  0
SECTION
  2
HEADER
  9
$ANGBASE
  50
0.0
  9
$ANGDIR
  70
  1
  9
$MEASUREMENT
  70
0
  0
ENDSEC
  0
SECTION
  2
TABLES
  0
TABLE
  2
LTYPE
  70
1
  0
LTYPE
  2
CONTINUOUS
  70
0
  3
Solid line
  72
65
  73
0
  40
0.0
  0
ENDTAB
  0
TABLE
  2
STYLE
  70
4
  0
STYLE
  2
KICAD
  70
0
  40
0
  41
1
  42
1
  50
0
  71
0
  3
isocp.shx
  0
STYLE
  2
KICADB
  70
0
  40
0
  41
1
  42
1
  50
0
  71
0
  3
isocp.shx
  0
STYLE
  2
KICADI
  70
0
  40
0
  41
1
  42
1
  50
15
  71
0
  3
isocp.shx
  0
STYLE
  2
KICADBI
  70
0
  40
0
  41
1
  42
1
  50
15
  71
0
  3
isocp.shx
  0
ENDTAB
  0
TABLE
  2
LAYER
  70
30
  0
LAYER
  2
BLACK
  70
0
  62
7
  6
CONTINUOUS
  0
LAYER
  2
GRAY1
  70
0
  62
251
  6
CONTINUOUS
  0
LAYER
  2
GRAY2
  70
0
  62
8
  6
CONTINUOUS
  0
LAYER
  2
GRAY3
  70
0
  62
9
  6
CONTINUOUS
  0
LAYER
  2
WHITE
  70
0
  62
7
  6
CONTINUOUS
  0
LAYER
  2
LYELLOW
  70
0
  62
51
  6
CONTINUOUS
  0
LAYER
  2
BLUE1
  70
0
  62
178
  6
CONTINUOUS
  0
LAYER
  2
GREEN1
  70
0
  62
98
  6
CONTINUOUS
  0
LAYER
  2
CYAN1
  70
0
  62
138
  6
CONTINUOUS
  0
LAYER
  2
RED1
  70
0
  62
18
  6
CONTINUOUS
  0
LAYER
  2
MAGENTA1
  70
0
  62
228
  6
CONTINUOUS
  0
LAYER
  2
BROWN1
  70
0
  62
58
  6
CONTINUOUS
  0
LAYER
  2
BLUE2
  70
0
  62
5
  6
CONTINUOUS
  0
LAYER
  2
GREEN2
  70
0
  62
3
  6
CONTINUOUS
  0
LAYER
  2
CYAN2
  70
0
  62
4
  6
CONTINUOUS
  0
LAYER
  2
RED2
  70
0
  62
1
  6
CONTINUOUS
  0
LAYER
  2
MAGENTA2
  70
0
  62
6
  6
CONTINUOUS
  0
LAYER
  2
BROWN2
  70
0
  62
54
  6
CONTINUOUS
  0
LAYER
  2
BLUE3
  70
0
  62
171
  6
CONTINUOUS
  0
LAYER
  2
GREEN3
  70
0
  62
91
  6
CONTINUOUS
  0
LAYER
  2
CYAN3
  70
0
  62
131
  6
CONTINUOUS
  0
LAYER
  2
RED3
  70
0
  62
11
  6
CONTINUOUS
  0
LAYER
  2
MAGENTA3
  70
0
  62
221
  6
CONTINUOUS
  0
LAYER
  2
YELLOW3
  70
0
  62
2
  6
CONTINUOUS
  0
LAYER
  2
BLUE4
  70
0
  62
5
  6
CONTINUOUS
  0
LAYER
  2
GREEN4
  70
0
  62
3
  6
CONTINUOUS
  0
LAYER
  2
CYAN4
  70
0
  62
4
  6
CONTINUOUS
  0
LAYER
  2
RED4
  70
0
  62
1
  6
CONTINUOUS
  0
LAYER
  2
MAGENTA4
  70
0
  62
6
  6
CONTINUOUS
  0
LAYER
  2
YELLOW4
  70
0
  62
2
  6
CONTINUOUS
  0
ENDTAB
  0
ENDSEC
  0
SECTION
  2
ENTITIES
0
LINE
8
Black
10
113.23
20
-109.75
11
112.73
21
-109.75
0
LINE
8
Black
10
112.73
20
-109.75
11
112.73
21
-108.85
0
LINE
8
Black
10
112.73
20
-108.85
11
113.23
21
-108.85
0
LINE
8
Black
10
113.23
20
-108.85
11
113.23
21
-109.75
0
LINE
8
Black
10
111.73
20
-109.75
11
111.23
21
-109.75
0
LINE
8
Black
10
111.23
20
-109.75
11
111.23
21
-108.85
0
LINE
8
Black
10
111.23
20
-108.85
11
111.73
21
-108.85
0
LINE
8
Black
10
111.73
20
-108.85
11
111.73
21
-109.75
0
LINE
8
Black
10
172.66
20
-109.18
11
171.76
21
-109.18
0
LINE
8
Black
10
171.76
20
-109.18
11
171.76
21
-108.68
0
LINE
8
Black
10
171.76
20
-108.68
11
172.66
21
-108.68
0
LINE
8
Black
10
172.66
20
-108.68
11
172.66
21
-109.18
0
LINE
8
Black
10
177.74
20
-109.16
11
176.84
21
-109.16
0
LINE
8
Black
10
176.84
20
-109.16
11
176.84
21
-108.66
0
LINE
8
Black
10
176.84
20
-108.66
11
177.74
21
-108.66
0
LINE
8
Black
10
177.74
20
-108.66
11
177.74
21
-109.16
0
LINE
8
Black
10
175.21
20
-109.16
11
174.31
21
-109.16
0
LINE
8
Black
10
174.31
20
-109.16
11
174.31
21
-108.66
0
LINE
8
Black
10
174.31
20
-108.66
11
175.21
21
-108.66
0
LINE
8
Black
10
175.21
20
-108.66
11
175.21
21
-109.16
0
LINE
8
Black
10
180.28
20
-109.14
11
179.38
21
-109.14
0
LINE
8
Black
10
179.38
20
-109.14
11
179.38
21
-108.64
0
LINE
8
Black
10
179.38
20
-108.64
11
180.28
21
-108.64
0
LINE
8
Black
10
180.28
20
-108.64
11
180.28
21
-109.14
0
LINE
8
Black
10
137.31
20
-107.96
11
135.81
21
-107.96
0
LINE
8
Black
10
135.81
20
-107.96
11
135.81
21
-107.36
0
LINE
8
Black
10
135.81
20
-107.36
11
137.31
21
-107.36
0
LINE
8
Black
10
137.31
20
-107.36
11
137.31
21
-107.96
0
LINE
8
Black
10
131.91
20
-107.96
11
130.41
21
-107.96
0
LINE
8
Black
10
130.41
20
-107.96
11
130.41
21
-107.36
0
LINE
8
Black
10
130.41
20
-107.36
11
131.91
21
-107.36
0
LINE
8
Black
10
131.91
20
-107.36
11
131.91
21
-107.96
0
LINE
8
Black
10
172.66
20
-107.68
11
171.76
21
-107.68
0
LINE
8
Black
10
171.76
20
-107.68
11
171.76
21
-107.18
0
LINE
8
Black
10
171.76
20
-107.18
11
172.66
21
-107.18
0
LINE
8
Black
10
172.66
20
-107.18
11
172.66
21
-107.68
0
LINE
8
Black
10
177.74
20
-107.66
11
176.84
21
-107.66
0
LINE
8
Black
10
176.84
20
-107.66
11
176.84
21
-107.16
0
LINE
8
Black
10
176.84
20
-107.16
11
177.74
21
-107.16
0
LINE
8
Black
10
177.74
20
-107.16
11
177.74
21
-107.66
0
LINE
8
Black
10
175.21
20
-107.66
11
174.31
21
-107.66
0
LINE
8
Black
10
174.31
20
-107.66
11
174.31
21
-107.16
0
LINE
8
Black
10
174.31
20
-107.16
11
175.21
21
-107.16
0
LINE
8
Black
10
175.21
20
-107.16
11
175.21
21
-107.66
0
LINE
8
Black
10
180.28
20
-107.64
11
179.38
21
-107.64
0
LINE
8
Black
10
179.38
20
-107.64
11
179.38
21
-107.14
0
LINE
8
Black
10
179.38
20
-107.14
11
180.28
21
-107.14
0
LINE
8
Black
10
180.28
20
-107.14
11
180.28
21
-107.64
0
LINE
8
Black
10
113.23
20
-107
11
112.73
21
-107
0
LINE
8
Black
10
112.73
20
-107
11
112.73
21
-106.1
0
LINE
8
Black
10
112.73
20
-106.1
11
113.23
21
-106.1
0
LINE
8
Black
10
113.23
20
-106.1
11
113.23
21
-107
0
LINE
8
Black
10
111.73
20
-107
11
111.23
21
-107
0
LINE
8
Black
10
111.23
20
-107
11
111.23
21
-106.1
0
LINE
8
Black
10
111.23
20
-106.1
11
111.73
21
-106.1
0
LINE
8
Black
10
111.73
20
-106.1
11
111.73
21
-107
0
LINE
8
Black
10
107.68
20
-107
11
107.18
21
-107
0
LINE
8
Black
10
107.18
20
-107
11
107.18
21
-106.1
0
LINE
8
Black
10
107.18
20
-106.1
11
107.68
21
-106.1
0
LINE
8
Black
10
107.68
20
-106.1
11
107.68
21
-107
0
LINE
8
Black
10
109.18
20
-107
11
108.68
21
-107
0
LINE
8
Black
10
108.68
20
-107
11
108.68
21
-106.1
0
LINE
8
Black
10
108.68
20
-106.1
11
109.18
21
-106.1
0
LINE
8
Black
10
109.18
20
-106.1
11
109.18
21
-107
0
LINE
8
Black
10
120.03
20
-106.925
11
119.23
21
-106.925
0
LINE
8
Black
10
119.23
20
-106.925
11
119.23
21
-106.175
0
LINE
8
Black
10
119.23
20
-106.175
11
120.03
21
-106.175
0
LINE
8
Black
10
120.03
20
-106.175
11
120.03
21
-106.925
0
LINE
8
Black
10
121.53
20
-106.925
11
120.73
21
-106.925
0
LINE
8
Black
10
120.73
20
-106.925
11
120.73
21
-106.175
0
LINE
8
Black
10
120.73
20
-106.175
11
121.53
21
-106.175
0
LINE
8
Black
10
121.53
20
-106.175
11
121.53
21
-106.925
0
LINE
8
Black
10
115.68
20
-106.925
11
114.88
21
-106.925
0
LINE
8
Black
10
114.88
20
-106.925
11
114.88
21
-106.175
0
LINE
8
Black
10
114.88
20
-106.175
11
115.68
21
-106.175
0
LINE
8
Black
10
115.68
20
-106.175
11
115.68
21
-106.925
0
LINE
8
Black
10
117.18
20
-106.925
11
116.38
21
-106.925
0
LINE
8
Black
10
116.38
20
-106.925
11
116.38
21
-106.175
0
LINE
8
Black
10
116.38
20
-106.175
11
117.18
21
-106.175
0
LINE
8
Black
10
117.18
20
-106.175
11
117.18
21
-106.925
0
LINE
8
Black
10
103.73
20
-106.925
11
102.93
21
-106.925
0
LINE
8
Black
10
102.93
20
-106.925
11
102.93
21
-106.175
0
LINE
8
Black
10
102.93
20
-106.175
11
103.73
21
-106.175
0
LINE
8
Black
10
103.73
20
-106.175
11
103.73
21
-106.925
0
LINE
8
Black
10
125.83
20
-106.925
11
125.03
21
-106.925
0
LINE
8
Black
10
125.03
20
-106.925
11
125.03
21
-106.175
0
LINE
8
Black
10
125.03
20
-106.175
11
125.83
21
-106.175
0
LINE
8
Black
10
125.83
20
-106.175
11
125.83
21
-106.925
0
LINE
8
Black
10
124.33
20
-106.925
11
123.53
21
-106.925
0
LINE
8
Black
10
123.53
20
-106.925
11
123.53
21
-106.175
0
LINE
8
Black
10
123.53
20
-106.175
11
124.33
21
-106.175
0
LINE
8
Black
10
124.33
20
-106.175
11
124.33
21
-106.925
0
LINE
8
Black
10
105.23
20
-106.925
11
104.43
21
-106.925
0
LINE
8
Black
10
104.43
20
-106.925
11
104.43
21
-106.175
0
LINE
8
Black
10
104.43
20
-106.175
11
105.23
21
-106.175
0
LINE
8
Black
10
105.23
20
-106.175
11
105.23
21
-106.925
0
LINE
8
Black
10
137.31
20
-106.69
11
135.81
21
-106.69
0
LINE
8
Black
10
135.81
20
-106.69
11
135.81
21
-106.09
0
LINE
8
Black
10
135.81
20
-106.09
11
137.31
21
-106.09
0
LINE
8
Black
10
137.31
20
-106.09
11
137.31
21
-106.69
0
LINE
8
Black
10
131.91
20
-106.69
11
130.41
21
-106.69
0
LINE
8
Black
10
130.41
20
-106.69
11
130.41
21
-106.09
0
LINE
8
Black
10
130.41
20
-106.09
11
131.91
21
-106.09
0
LINE
8
Black
10
131.91
20
-106.09
11
131.91
21
-106.69
0
LINE
8
Black
10
137.31
20
-105.42
11
135.81
21
-105.42
0
LINE
8
Black
10
135.81
20
-105.42
11
135.81
21
-104.82
0
LINE
8
Black
10
135.81
20
-104.82
11
137.31
21
-104.82
0
LINE
8
Black
10
137.31
20
-104.82
11
137.31
21
-105.42
0
LINE
8
Black
10
131.91
20
-105.42
11
130.41
21
-105.42
0
LINE
8
Black
10
130.41
20
-105.42
11
130.41
21
-104.82
0
LINE
8
Black
10
130.41
20
-104.82
11
131.91
21
-104.82
0
LINE
8
Black
10
131.91
20
-104.82
11
131.91
21
-105.42
0
LINE
8
Black
10
111.73
20
-104.45
11
111.23
21
-104.45
0
LINE
8
Black
10
111.23
20
-104.45
11
111.23
21
-103.55
0
LINE
8
Black
10
111.23
20
-103.55
11
111.73
21
-103.55
0
LINE
8
Black
10
111.73
20
-103.55
11
111.73
21
-104.45
0
LINE
8
Black
10
105.08
20
-104.45
11
104.58
21
-104.45
0
LINE
8
Black
10
104.58
20
-104.45
11
104.58
21
-103.55
0
LINE
8
Black
10
104.58
20
-103.55
11
105.08
21
-103.55
0
LINE
8
Black
10
105.08
20
-103.55
11
105.08
21
-104.45
0
LINE
8
Black
10
103.58
20
-104.45
11
103.08
21
-104.45
0
LINE
8
Black
10
103.08
20
-104.45
11
103.08
21
-103.55
0
LINE
8
Black
10
103.08
20
-103.55
11
103.58
21
-103.55
0
LINE
8
Black
10
103.58
20
-103.55
11
103.58
21
-104.45
0
LINE
8
Black
10
113.23
20
-104.45
11
112.73
21
-104.45
0
LINE
8
Black
10
112.73
20
-104.45
11
112.73
21
-103.55
0
LINE
8
Black
10
112.73
20
-103.55
11
113.23
21
-103.55
0
LINE
8
Black
10
113.23
20
-103.55
11
113.23
21
-104.45
0
LINE
8
Black
10
107.83
20
-104.375
11
107.03
21
-104.375
0
LINE
8
Black
10
107.03
20
-104.375
11
107.03
21
-103.625
0
LINE
8
Black
10
107.03
20
-103.625
11
107.83
21
-103.625
0
LINE
8
Black
10
107.83
20
-103.625
11
107.83
21
-104.375
0
LINE
8
Black
10
109.33
20
-104.375
11
108.53
21
-104.375
0
LINE
8
Black
10
108.53
20
-104.375
11
108.53
21
-103.625
0
LINE
8
Black
10
108.53
20
-103.625
11
109.33
21
-103.625
0
LINE
8
Black
10
109.33
20
-103.625
11
109.33
21
-104.375
0
LINE
8
Black
10
137.31
20
-104.15
11
135.81
21
-104.15
0
LINE
8
Black
10
135.81
20
-104.15
11
135.81
21
-103.55
0
LINE
8
Black
10
135.81
20
-103.55
11
137.31
21
-103.55
0
LINE
8
Black
10
137.31
20
-103.55
11
137.31
21
-104.15
0
LINE
8
Black
10
131.91
20
-104.15
11
130.41
21
-104.15
0
LINE
8
Black
10
130.41
20
-104.15
11
130.41
21
-103.55
0
LINE
8
Black
10
130.41
20
-103.55
11
131.91
21
-103.55
0
LINE
8
Black
10
131.91
20
-103.55
11
131.91
21
-104.15
0
LINE
8
Black
10
99.15
20
-104.025
11
98.4
21
-104.025
0
LINE
8
Black
10
98.4
20
-104.025
11
98.4
21
-103.225
0
LINE
8
Black
10
98.4
20
-103.225
11
99.15
21
-103.225
0
LINE
8
Black
10
99.15
20
-103.225
11
99.15
21
-104.025
0
LINE
8
Black
10
95.45
20
-104.025
11
94.7
21
-104.025
0
LINE
8
Black
10
94.7
20
-104.025
11
94.7
21
-103.225
0
LINE
8
Black
10
94.7
20
-103.225
11
95.45
21
-103.225
0
LINE
8
Black
10
95.45
20
-103.225
11
95.45
21
-104.025
0
LINE
8
Black
10
117.435
20
-103.455
11
115.885
21
-103.455
0
LINE
8
Black
10
115.885
20
-103.455
11
115.885
21
-102.855
0
LINE
8
Black
10
115.885
20
-102.855
11
117.435
21
-102.855
0
LINE
8
Black
10
117.435
20
-102.855
11
117.435
21
-103.455
0
LINE
8
Black
10
122.835
20
-103.455
11
121.285
21
-103.455
0
LINE
8
Black
10
121.285
20
-103.455
11
121.285
21
-102.855
0
LINE
8
Black
10
121.285
20
-102.855
11
122.835
21
-102.855
0
LINE
8
Black
10
122.835
20
-102.855
11
122.835
21
-103.455
0
LINE
8
Black
10
131.91
20
-102.88
11
130.41
21
-102.88
0
LINE
8
Black
10
130.41
20
-102.88
11
130.41
21
-102.28
0
LINE
8
Black
10
130.41
20
-102.28
11
131.91
21
-102.28
0
LINE
8
Black
10
131.91
20
-102.28
11
131.91
21
-102.88
0
LINE
8
Black
10
137.31
20
-102.88
11
135.81
21
-102.88
0
LINE
8
Black
10
135.81
20
-102.88
11
135.81
21
-102.28
0
LINE
8
Black
10
135.81
20
-102.28
11
137.31
21
-102.28
0
LINE
8
Black
10
137.31
20
-102.28
11
137.31
21
-102.88
0
LINE
8
Black
10
95.45
20
-102.525
11
94.7
21
-102.525
0
LINE
8
Black
10
94.7
20
-102.525
11
94.7
21
-101.725
0
LINE
8
Black
10
94.7
20
-101.725
11
95.45
21
-101.725
0
LINE
8
Black
10
95.45
20
-101.725
11
95.45
21
-102.525
0
LINE
8
Black
10
99.15
20
-102.525
11
98.4
21
-102.525
0
LINE
8
Black
10
98.4
20
-102.525
11
98.4
21
-101.725
0
LINE
8
Black
10
98.4
20
-101.725
11
99.15
21
-101.725
0
LINE
8
Black
10
99.15
20
-101.725
11
99.15
21
-102.525
0
LINE
8
Black
10
117.435
20
-102.185
11
115.885
21
-102.185
0
LINE
8
Black
10
115.885
20
-102.185
11
115.885
21
-101.585
0
LINE
8
Black
10
115.885
20
-101.585
11
117.435
21
-101.585
0
LINE
8
Black
10
117.435
20
-101.585
11
117.435
21
-102.185
0
LINE
8
Black
10
122.835
20
-102.185
11
121.285
21
-102.185
0
LINE
8
Black
10
121.285
20
-102.185
11
121.285
21
-101.585
0
LINE
8
Black
10
121.285
20
-101.585
11
122.835
21
-101.585
0
LINE
8
Black
10
122.835
20
-101.585
11
122.835
21
-102.185
0
LINE
8
Black
10
105.08
20
-101.85
11
104.58
21
-101.85
0
LINE
8
Black
10
104.58
20
-101.85
11
104.58
21
-100.95
0
LINE
8
Black
10
104.58
20
-100.95
11
105.08
21
-100.95
0
LINE
8
Black
10
105.08
20
-100.95
11
105.08
21
-101.85
0
LINE
8
Black
10
103.58
20
-101.85
11
103.08
21
-101.85
0
LINE
8
Black
10
103.08
20
-101.85
11
103.08
21
-100.95
0
LINE
8
Black
10
103.08
20
-100.95
11
103.58
21
-100.95
0
LINE
8
Black
10
103.58
20
-100.95
11
103.58
21
-101.85
0
LINE
8
Black
10
109.18
20
-101.85
11
108.68
21
-101.85
0
LINE
8
Black
10
108.68
20
-101.85
11
108.68
21
-100.95
0
LINE
8
Black
10
108.68
20
-100.95
11
109.18
21
-100.95
0
LINE
8
Black
10
109.18
20
-100.95
11
109.18
21
-101.85
0
LINE
8
Black
10
107.68
20
-101.85
11
107.18
21
-101.85
0
LINE
8
Black
10
107.18
20
-101.85
11
107.18
21
-100.95
0
LINE
8
Black
10
107.18
20
-100.95
11
107.68
21
-100.95
0
LINE
8
Black
10
107.68
20
-100.95
11
107.68
21
-101.85
0
LINE
8
Black
10
148.46
20
-101.8
11
147.96
21
-101.8
0
LINE
8
Black
10
147.96
20
-101.8
11
147.96
21
-100.9
0
LINE
8
Black
10
147.96
20
-100.9
11
148.46
21
-100.9
0
LINE
8
Black
10
148.46
20
-100.9
11
148.46
21
-101.8
0
LINE
8
Black
10
149.96
20
-101.8
11
149.46
21
-101.8
0
LINE
8
Black
10
149.46
20
-101.8
11
149.46
21
-100.9
0
LINE
8
Black
10
149.46
20
-100.9
11
149.96
21
-100.9
0
LINE
8
Black
10
149.96
20
-100.9
11
149.96
21
-101.8
0
LINE
8
Black
10
111.88
20
-101.775
11
111.08
21
-101.775
0
LINE
8
Black
10
111.08
20
-101.775
11
111.08
21
-101.025
0
LINE
8
Black
10
111.08
20
-101.025
11
111.88
21
-101.025
0
LINE
8
Black
10
111.88
20
-101.025
11
111.88
21
-101.775
0
LINE
8
Black
10
113.38
20
-101.775
11
112.58
21
-101.775
0
LINE
8
Black
10
112.58
20
-101.775
11
112.58
21
-101.025
0
LINE
8
Black
10
112.58
20
-101.025
11
113.38
21
-101.025
0
LINE
8
Black
10
113.38
20
-101.025
11
113.38
21
-101.775
0
LINE
8
Black
10
151.985
20
-101.75
11
151.235
21
-101.75
0
LINE
8
Black
10
151.235
20
-101.75
11
151.235
21
-100.95
0
LINE
8
Black
10
151.235
20
-100.95
11
151.985
21
-100.95
0
LINE
8
Black
10
151.985
20
-100.95
11
151.985
21
-101.75
0
LINE
8
Black
10
156.27
20
-101.685
11
155.47
21
-101.685
0
LINE
8
Black
10
155.47
20
-101.685
11
155.47
21
-100.935
0
LINE
8
Black
10
155.47
20
-100.935
11
156.27
21
-100.935
0
LINE
8
Black
10
156.27
20
-100.935
11
156.27
21
-101.685
0
LINE
8
Black
10
154.77
20
-101.685
11
153.97
21
-101.685
0
LINE
8
Black
10
153.97
20
-101.685
11
153.97
21
-100.935
0
LINE
8
Black
10
153.97
20
-100.935
11
154.77
21
-100.935
0
LINE
8
Black
10
154.77
20
-100.935
11
154.77
21
-101.685
0
LINE
8
Black
10
137.31
20
-101.61
11
135.81
21
-101.61
0
LINE
8
Black
10
135.81
20
-101.61
11
135.81
21
-101.01
0
LINE
8
Black
10
135.81
20
-101.01
11
137.31
21
-101.01
0
LINE
8
Black
10
137.31
20
-101.01
11
137.31
21
-101.61
0
LINE
8
Black
10
131.91
20
-101.61
11
130.41
21
-101.61
0
LINE
8
Black
10
130.41
20
-101.61
11
130.41
21
-101.01
0
LINE
8
Black
10
130.41
20
-101.01
11
131.91
21
-101.01
0
LINE
8
Black
10
131.91
20
-101.01
11
131.91
21
-101.61
0
LINE
8
Black
10
117.435
20
-100.915
11
115.885
21
-100.915
0
LINE
8
Black
10
115.885
20
-100.915
11
115.885
21
-100.315
0
LINE
8
Black
10
115.885
20
-100.315
11
117.435
21
-100.315
0
LINE
8
Black
10
117.435
20
-100.315
11
117.435
21
-100.915
0
LINE
8
Black
10
122.835
20
-100.915
11
121.285
21
-100.915
0
LINE
8
Black
10
121.285
20
-100.915
11
121.285
21
-100.315
0
LINE
8
Black
10
121.285
20
-100.315
11
122.835
21
-100.315
0
LINE
8
Black
10
122.835
20
-100.315
11
122.835
21
-100.915
0
LINE
8
Black
10
131.91
20
-100.34
11
130.41
21
-100.34
0
LINE
8
Black
10
130.41
20
-100.34
11
130.41
21
-99.74
0
LINE
8
Black
10
130.41
20
-99.74
11
131.91
21
-99.74
0
LINE
8
Black
10
131.91
20
-99.74
11
131.91
21
-100.34
0
LINE
8
Black
10
137.31
20
-100.34
11
135.81
21
-100.34
0
LINE
8
Black
10
135.81
20
-100.34
11
135.81
21
-99.74
0
LINE
8
Black
10
135.81
20
-99.74
11
137.31
21
-99.74
0
LINE
8
Black
10
137.31
20
-99.74
11
137.31
21
-100.34
0
LINE
8
Black
10
151.985
20
-100.25
11
151.235
21
-100.25
0
LINE
8
Black
10
151.235
20
-100.25
11
151.235
21
-99.45
0
LINE
8
Black
10
151.235
20
-99.45
11
151.985
21
-99.45
0
LINE
8
Black
10
151.985
20
-99.45
11
151.985
21
-100.25
0
LINE
8
Black
10
96.08
20
-100.04
11
94.08
21
-100.04
0
LINE
8
Black
10
94.08
20
-100.04
11
94.08
21
-97.64
0
LINE
8
Black
10
94.08
20
-97.64
11
96.08
21
-97.64
0
LINE
8
Black
10
96.08
20
-97.64
11
96.08
21
-100.04
0
LINE
8
Black
10
99.78
20
-100.04
11
97.78
21
-100.04
0
LINE
8
Black
10
97.78
20
-100.04
11
97.78
21
-97.64
0
LINE
8
Black
10
97.78
20
-97.64
11
99.78
21
-97.64
0
LINE
8
Black
10
99.78
20
-97.64
11
99.78
21
-100.04
0
LINE
8
Black
10
160.545
20
-99.705
11
158.995
21
-99.705
0
LINE
8
Black
10
158.995
20
-99.705
11
158.995
21
-99.105
0
LINE
8
Black
10
158.995
20
-99.105
11
160.545
21
-99.105
0
LINE
8
Black
10
160.545
20
-99.105
11
160.545
21
-99.705
0
LINE
8
Black
10
155.145
20
-99.705
11
153.595
21
-99.705
0
LINE
8
Black
10
153.595
20
-99.705
11
153.595
21
-99.105
0
LINE
8
Black
10
153.595
20
-99.105
11
155.145
21
-99.105
0
LINE
8
Black
10
155.145
20
-99.105
11
155.145
21
-99.705
0
LINE
8
Black
10
165.185
20
-99.705
11
163.635
21
-99.705
0
LINE
8
Black
10
163.635
20
-99.705
11
163.635
21
-99.105
0
LINE
8
Black
10
163.635
20
-99.105
11
165.185
21
-99.105
0
LINE
8
Black
10
165.185
20
-99.105
11
165.185
21
-99.705
0
LINE
8
Black
10
170.585
20
-99.705
11
169.035
21
-99.705
0
LINE
8
Black
10
169.035
20
-99.705
11
169.035
21
-99.105
0
LINE
8
Black
10
169.035
20
-99.105
11
170.585
21
-99.105
0
LINE
8
Black
10
170.585
20
-99.105
11
170.585
21
-99.705
0
LINE
8
Black
10
122.835
20
-99.645
11
121.285
21
-99.645
0
LINE
8
Black
10
121.285
20
-99.645
11
121.285
21
-99.045
0
LINE
8
Black
10
121.285
20
-99.045
11
122.835
21
-99.045
0
LINE
8
Black
10
122.835
20
-99.045
11
122.835
21
-99.645
0
LINE
8
Black
10
117.435
20
-99.645
11
115.885
21
-99.645
0
LINE
8
Black
10
115.885
20
-99.645
11
115.885
21
-99.045
0
LINE
8
Black
10
115.885
20
-99.045
11
117.435
21
-99.045
0
LINE
8
Black
10
117.435
20
-99.045
11
117.435
21
-99.645
0
LINE
8
Black
10
149.97
20
-99.25
11
149.47
21
-99.25
0
LINE
8
Black
10
149.47
20
-99.25
11
149.47
21
-98.35
0
LINE
8
Black
10
149.47
20
-98.35
11
149.97
21
-98.35
0
LINE
8
Black
10
149.97
20
-98.35
11
149.97
21
-99.25
0
LINE
8
Black
10
148.47
20
-99.25
11
147.97
21
-99.25
0
LINE
8
Black
10
147.97
20
-99.25
11
147.97
21
-98.35
0
LINE
8
Black
10
147.97
20
-98.35
11
148.47
21
-98.35
0
LINE
8
Black
10
148.47
20
-98.35
11
148.47
21
-99.25
0
LINE
8
Black
10
140.82
20
-99.215
11
140.02
21
-99.215
0
LINE
8
Black
10
140.02
20
-99.215
11
140.02
21
-98.465
0
LINE
8
Black
10
140.02
20
-98.465
11
140.82
21
-98.465
0
LINE
8
Black
10
140.82
20
-98.465
11
140.82
21
-99.215
0
LINE
8
Black
10
142.32
20
-99.215
11
141.52
21
-99.215
0
LINE
8
Black
10
141.52
20
-99.215
11
141.52
21
-98.465
0
LINE
8
Black
10
141.52
20
-98.465
11
142.32
21
-98.465
0
LINE
8
Black
10
142.32
20
-98.465
11
142.32
21
-99.215
0
LINE
8
Black
10
170.585
20
-98.435
11
169.035
21
-98.435
0
LINE
8
Black
10
169.035
20
-98.435
11
169.035
21
-97.835
0
LINE
8
Black
10
169.035
20
-97.835
11
170.585
21
-97.835
0
LINE
8
Black
10
170.585
20
-97.835
11
170.585
21
-98.435
0
LINE
8
Black
10
165.185
20
-98.435
11
163.635
21
-98.435
0
LINE
8
Black
10
163.635
20
-98.435
11
163.635
21
-97.835
0
LINE
8
Black
10
163.635
20
-97.835
11
165.185
21
-97.835
0
LINE
8
Black
10
165.185
20
-97.835
11
165.185
21
-98.435
0
LINE
8
Black
10
155.145
20
-98.435
11
153.595
21
-98.435
0
LINE
8
Black
10
153.595
20
-98.435
11
153.595
21
-97.835
0
LINE
8
Black
10
153.595
20
-97.835
11
155.145
21
-97.835
0
LINE
8
Black
10
155.145
20
-97.835
11
155.145
21
-98.435
0
LINE
8
Black
10
160.545
20
-98.435
11
158.995
21
-98.435
0
LINE
8
Black
10
158.995
20
-98.435
11
158.995
21
-97.835
0
LINE
8
Black
10
158.995
20
-97.835
11
160.545
21
-97.835
0
LINE
8
Black
10
160.545
20
-97.835
11
160.545
21
-98.435
0
LINE
8
Black
10
107.66
20
-98.21
11
107.16
21
-98.21
0
LINE
8
Black
10
107.16
20
-98.21
11
107.16
21
-97.31
0
LINE
8
Black
10
107.16
20
-97.31
11
107.66
21
-97.31
0
LINE
8
Black
10
107.66
20
-97.31
11
107.66
21
-98.21
0
LINE
8
Black
10
109.16
20
-98.21
11
108.66
21
-98.21
0
LINE
8
Black
10
108.66
20
-98.21
11
108.66
21
-97.31
0
LINE
8
Black
10
108.66
20
-97.31
11
109.16
21
-97.31
0
LINE
8
Black
10
109.16
20
-97.31
11
109.16
21
-98.21
0
LINE
8
Black
10
103.69
20
-98.135
11
102.89
21
-98.135
0
LINE
8
Black
10
102.89
20
-98.135
11
102.89
21
-97.385
0
LINE
8
Black
10
102.89
20
-97.385
11
103.69
21
-97.385
0
LINE
8
Black
10
103.69
20
-97.385
11
103.69
21
-98.135
0
LINE
8
Black
10
105.19
20
-98.135
11
104.39
21
-98.135
0
LINE
8
Black
10
104.39
20
-98.135
11
104.39
21
-97.385
0
LINE
8
Black
10
104.39
20
-97.385
11
105.19
21
-97.385
0
LINE
8
Black
10
105.19
20
-97.385
11
105.19
21
-98.135
0
LINE
8
Black
10
124.17
20
-98.115
11
123.37
21
-98.115
0
LINE
8
Black
10
123.37
20
-98.115
11
123.37
21
-97.365
0
LINE
8
Black
10
123.37
20
-97.365
11
124.17
21
-97.365
0
LINE
8
Black
10
124.17
20
-97.365
11
124.17
21
-98.115
0
LINE
8
Black
10
122.67
20
-98.115
11
121.87
21
-98.115
0
LINE
8
Black
10
121.87
20
-98.115
11
121.87
21
-97.365
0
LINE
8
Black
10
121.87
20
-97.365
11
122.67
21
-97.365
0
LINE
8
Black
10
122.67
20
-97.365
11
122.67
21
-98.115
0
LINE
8
Black
10
116.79
20
-98.005
11
115.99
21
-98.005
0
LINE
8
Black
10
115.99
20
-98.005
11
115.99
21
-97.255
0
LINE
8
Black
10
115.99
20
-97.255
11
116.79
21
-97.255
0
LINE
8
Black
10
116.79
20
-97.255
11
116.79
21
-98.005
0
LINE
8
Black
10
115.29
20
-98.005
11
114.49
21
-98.005
0
LINE
8
Black
10
114.49
20
-98.005
11
114.49
21
-97.255
0
LINE
8
Black
10
114.49
20
-97.255
11
115.29
21
-97.255
0
LINE
8
Black
10
115.29
20
-97.255
11
115.29
21
-98.005
0
LINE
8
Black
10
151.985
20
-97.26
11
151.235
21
-97.26
0
LINE
8
Black
10
151.235
20
-97.26
11
151.235
21
-96.46
0
LINE
8
Black
10
151.235
20
-96.46
11
151.985
21
-96.46
0
LINE
8
Black
10
151.985
20
-96.46
11
151.985
21
-97.26
0
LINE
8
Black
10
165.185
20
-97.165
11
163.635
21
-97.165
0
LINE
8
Black
10
163.635
20
-97.165
11
163.635
21
-96.565
0
LINE
8
Black
10
163.635
20
-96.565
11
165.185
21
-96.565
0
LINE
8
Black
10
165.185
20
-96.565
11
165.185
21
-97.165
0
LINE
8
Black
10
170.585
20
-97.165
11
169.035
21
-97.165
0
LINE
8
Black
10
169.035
20
-97.165
11
169.035
21
-96.565
0
LINE
8
Black
10
169.035
20
-96.565
11
170.585
21
-96.565
0
LINE
8
Black
10
170.585
20
-96.565
11
170.585
21
-97.165
0
LINE
8
Black
10
155.145
20
-97.165
11
153.595
21
-97.165
0
LINE
8
Black
10
153.595
20
-97.165
11
153.595
21
-96.565
0
LINE
8
Black
10
153.595
20
-96.565
11
155.145
21
-96.565
0
LINE
8
Black
10
155.145
20
-96.565
11
155.145
21
-97.165
0
LINE
8
Black
10
160.545
20
-97.165
11
158.995
21
-97.165
0
LINE
8
Black
10
158.995
20
-97.165
11
158.995
21
-96.565
0
LINE
8
Black
10
158.995
20
-96.565
11
160.545
21
-96.565
0
LINE
8
Black
10
160.545
20
-96.565
11
160.545
21
-97.165
0
LINE
8
Black
10
138.335
20
-96.77
11
137.785
21
-96.77
0
LINE
8
Black
10
137.785
20
-96.77
11
137.785
21
-95.27
0
LINE
8
Black
10
137.785
20
-95.27
11
138.335
21
-95.27
0
LINE
8
Black
10
138.335
20
-95.27
11
138.335
21
-96.77
0
LINE
8
Black
10
134.335
20
-96.77
11
133.785
21
-96.77
0
LINE
8
Black
10
133.785
20
-96.77
11
133.785
21
-95.27
0
LINE
8
Black
10
133.785
20
-95.27
11
134.335
21
-95.27
0
LINE
8
Black
10
134.335
20
-95.27
11
134.335
21
-96.77
0
LINE
8
Black
10
135.135
20
-96.77
11
134.585
21
-96.77
0
LINE
8
Black
10
134.585
20
-96.77
11
134.585
21
-95.27
0
LINE
8
Black
10
134.585
20
-95.27
11
135.135
21
-95.27
0
LINE
8
Black
10
135.135
20
-95.27
11
135.135
21
-96.77
0
LINE
8
Black
10
135.935
20
-96.77
11
135.385
21
-96.77
0
LINE
8
Black
10
135.385
20
-96.77
11
135.385
21
-95.27
0
LINE
8
Black
10
135.385
20
-95.27
11
135.935
21
-95.27
0
LINE
8
Black
10
135.935
20
-95.27
11
135.935
21
-96.77
0
LINE
8
Black
10
136.735
20
-96.77
11
136.185
21
-96.77
0
LINE
8
Black
10
136.185
20
-96.77
11
136.185
21
-95.27
0
LINE
8
Black
10
136.185
20
-95.27
11
136.735
21
-95.27
0
LINE
8
Black
10
136.735
20
-95.27
11
136.735
21
-96.77
0
LINE
8
Black
10
142.335
20
-96.77
11
141.785
21
-96.77
0
LINE
8
Black
10
141.785
20
-96.77
11
141.785
21
-95.27
0
LINE
8
Black
10
141.785
20
-95.27
11
142.335
21
-95.27
0
LINE
8
Black
10
142.335
20
-95.27
11
142.335
21
-96.77
0
LINE
8
Black
10
141.535
20
-96.77
11
140.985
21
-96.77
0
LINE
8
Black
10
140.985
20
-96.77
11
140.985
21
-95.27
0
LINE
8
Black
10
140.985
20
-95.27
11
141.535
21
-95.27
0
LINE
8
Black
10
141.535
20
-95.27
11
141.535
21
-96.77
0
LINE
8
Black
10
140.735
20
-96.77
11
140.185
21
-96.77
0
LINE
8
Black
10
140.185
20
-96.77
11
140.185
21
-95.27
0
LINE
8
Black
10
140.185
20
-95.27
11
140.735
21
-95.27
0
LINE
8
Black
10
140.735
20
-95.27
11
140.735
21
-96.77
0
LINE
8
Black
10
139.935
20
-96.77
11
139.385
21
-96.77
0
LINE
8
Black
10
139.385
20
-96.77
11
139.385
21
-95.27
0
LINE
8
Black
10
139.385
20
-95.27
11
139.935
21
-95.27
0
LINE
8
Black
10
139.935
20
-95.27
11
139.935
21
-96.77
0
LINE
8
Black
10
139.135
20
-96.77
11
138.585
21
-96.77
0
LINE
8
Black
10
138.585
20
-96.77
11
138.585
21
-95.27
0
LINE
8
Black
10
138.585
20
-95.27
11
139.135
21
-95.27
0
LINE
8
Black
10
139.135
20
-95.27
11
139.135
21
-96.77
0
LINE
8
Black
10
137.535
20
-96.77
11
136.985
21
-96.77
0
LINE
8
Black
10
136.985
20
-96.77
11
136.985
21
-95.27
0
LINE
8
Black
10
136.985
20
-95.27
11
137.535
21
-95.27
0
LINE
8
Black
10
137.535
20
-95.27
11
137.535
21
-96.77
0
LINE
8
Black
10
148.49
20
-96.71
11
147.99
21
-96.71
0
LINE
8
Black
10
147.99
20
-96.71
11
147.99
21
-95.81
0
LINE
8
Black
10
147.99
20
-95.81
11
148.49
21
-95.81
0
LINE
8
Black
10
148.49
20
-95.81
11
148.49
21
-96.71
0
LINE
8
Black
10
149.99
20
-96.71
11
149.49
21
-96.71
0
LINE
8
Black
10
149.49
20
-96.71
11
149.49
21
-95.81
0
LINE
8
Black
10
149.49
20
-95.81
11
149.99
21
-95.81
0
LINE
8
Black
10
149.99
20
-95.81
11
149.99
21
-96.71
0
LINE
8
Black
10
175.715
20
-95.99
11
174.965
21
-95.99
0
LINE
8
Black
10
174.965
20
-95.99
11
174.965
21
-95.19
0
LINE
8
Black
10
174.965
20
-95.19
11
175.715
21
-95.19
0
LINE
8
Black
10
175.715
20
-95.19
11
175.715
21
-95.99
0
LINE
8
Black
10
170.585
20
-95.895
11
169.035
21
-95.895
0
LINE
8
Black
10
169.035
20
-95.895
11
169.035
21
-95.295
0
LINE
8
Black
10
169.035
20
-95.295
11
170.585
21
-95.295
0
LINE
8
Black
10
170.585
20
-95.295
11
170.585
21
-95.895
0
LINE
8
Black
10
155.145
20
-95.895
11
153.595
21
-95.895
0
LINE
8
Black
10
153.595
20
-95.895
11
153.595
21
-95.295
0
LINE
8
Black
10
153.595
20
-95.295
11
155.145
21
-95.295
0
LINE
8
Black
10
155.145
20
-95.295
11
155.145
21
-95.895
0
LINE
8
Black
10
160.545
20
-95.895
11
158.995
21
-95.895
0
LINE
8
Black
10
158.995
20
-95.895
11
158.995
21
-95.295
0
LINE
8
Black
10
158.995
20
-95.295
11
160.545
21
-95.295
0
LINE
8
Black
10
160.545
20
-95.295
11
160.545
21
-95.895
0
LINE
8
Black
10
165.185
20
-95.895
11
163.635
21
-95.895
0
LINE
8
Black
10
163.635
20
-95.895
11
163.635
21
-95.295
0
LINE
8
Black
10
163.635
20
-95.295
11
165.185
21
-95.295
0
LINE
8
Black
10
165.185
20
-95.295
11
165.185
21
-95.895
0
LINE
8
Black
10
173.84
20
-95.83
11
172.94
21
-95.83
0
LINE
8
Black
10
172.94
20
-95.83
11
172.94
21
-95.33
0
LINE
8
Black
10
172.94
20
-95.33
11
173.84
21
-95.33
0
LINE
8
Black
10
173.84
20
-95.33
11
173.84
21
-95.83
0
LINE
8
Black
10
151.985
20
-95.76
11
151.235
21
-95.76
0
LINE
8
Black
10
151.235
20
-95.76
11
151.235
21
-94.96
0
LINE
8
Black
10
151.235
20
-94.96
11
151.985
21
-94.96
0
LINE
8
Black
10
151.985
20
-94.96
11
151.985
21
-95.76
0
LINE
8
Black
10
94.13
20
-95.27
11
93.23
21
-95.27
0
LINE
8
Black
10
93.23
20
-95.27
11
93.23
21
-94.77
0
LINE
8
Black
10
93.23
20
-94.77
11
94.13
21
-94.77
0
LINE
8
Black
10
94.13
20
-94.77
11
94.13
21
-95.27
0
LINE
8
Black
10
133.11
20
-94.595
11
131.61
21
-94.595
0
LINE
8
Black
10
131.61
20
-94.595
11
131.61
21
-94.045
0
LINE
8
Black
10
131.61
20
-94.045
11
133.11
21
-94.045
0
LINE
8
Black
10
133.11
20
-94.045
11
133.11
21
-94.595
0
LINE
8
Black
10
144.51
20
-94.595
11
143.01
21
-94.595
0
LINE
8
Black
10
143.01
20
-94.595
11
143.01
21
-94.045
0
LINE
8
Black
10
143.01
20
-94.045
11
144.51
21
-94.045
0
LINE
8
Black
10
144.51
20
-94.045
11
144.51
21
-94.595
0
LINE
8
Black
10
175.715
20
-94.49
11
174.965
21
-94.49
0
LINE
8
Black
10
174.965
20
-94.49
11
174.965
21
-93.69
0
LINE
8
Black
10
174.965
20
-93.69
11
175.715
21
-93.69
0
LINE
8
Black
10
175.715
20
-93.69
11
175.715
21
-94.49
0
LINE
8
Black
10
101.625
20
-94.485
11
101.025
21
-94.485
0
LINE
8
Black
10
101.025
20
-94.485
11
101.025
21
-92.535
0
LINE
8
Black
10
101.025
20
-92.535
11
101.625
21
-92.535
0
LINE
8
Black
10
101.625
20
-92.535
11
101.625
21
-94.485
0
LINE
8
Black
10
107.975
20
-94.485
11
107.375
21
-94.485
0
LINE
8
Black
10
107.375
20
-94.485
11
107.375
21
-92.535
0
LINE
8
Black
10
107.375
20
-92.535
11
107.975
21
-92.535
0
LINE
8
Black
10
107.975
20
-92.535
11
107.975
21
-94.485
0
LINE
8
Black
10
106.705
20
-94.485
11
106.105
21
-94.485
0
LINE
8
Black
10
106.105
20
-94.485
11
106.105
21
-92.535
0
LINE
8
Black
10
106.105
20
-92.535
11
106.705
21
-92.535
0
LINE
8
Black
10
106.705
20
-92.535
11
106.705
21
-94.485
0
LINE
8
Black
10
105.435
20
-94.485
11
104.835
21
-94.485
0
LINE
8
Black
10
104.835
20
-94.485
11
104.835
21
-92.535
0
LINE
8
Black
10
104.835
20
-92.535
11
105.435
21
-92.535
0
LINE
8
Black
10
105.435
20
-92.535
11
105.435
21
-94.485
0
LINE
8
Black
10
104.165
20
-94.485
11
103.565
21
-94.485
0
LINE
8
Black
10
103.565
20
-94.485
11
103.565
21
-92.535
0
LINE
8
Black
10
103.565
20
-92.535
11
104.165
21
-92.535
0
LINE
8
Black
10
104.165
20
-92.535
11
104.165
21
-94.485
0
LINE
8
Black
10
102.895
20
-94.485
11
102.295
21
-94.485
0
LINE
8
Black
10
102.295
20
-94.485
11
102.295
21
-92.535
0
LINE
8
Black
10
102.295
20
-92.535
11
102.895
21
-92.535
0
LINE
8
Black
10
102.895
20
-92.535
11
102.895
21
-94.485
0
LINE
8
Black
10
100.355
20
-94.485
11
99.755
21
-94.485
0
LINE
8
Black
10
99.755
20
-94.485
11
99.755
21
-92.535
0
LINE
8
Black
10
99.755
20
-92.535
11
100.355
21
-92.535
0
LINE
8
Black
10
100.355
20
-92.535
11
100.355
21
-94.485
0
LINE
8
Black
10
99.085
20
-94.485
11
98.485
21
-94.485
0
LINE
8
Black
10
98.485
20
-94.485
11
98.485
21
-92.535
0
LINE
8
Black
10
98.485
20
-92.535
11
99.085
21
-92.535
0
LINE
8
Black
10
99.085
20
-92.535
11
99.085
21
-94.485
0
LINE
8
Black
10
97.815
20
-94.485
11
97.215
21
-94.485
0
LINE
8
Black
10
97.215
20
-94.485
11
97.215
21
-92.535
0
LINE
8
Black
10
97.215
20
-92.535
11
97.815
21
-92.535
0
LINE
8
Black
10
97.815
20
-92.535
11
97.815
21
-94.485
0
LINE
8
Black
10
96.545
20
-94.485
11
95.945
21
-94.485
0
LINE
8
Black
10
95.945
20
-94.485
11
95.945
21
-92.535
0
LINE
8
Black
10
95.945
20
-92.535
11
96.545
21
-92.535
0
LINE
8
Black
10
96.545
20
-92.535
11
96.545
21
-94.485
0
LINE
8
Black
10
173.84
20
-94.33
11
172.94
21
-94.33
0
LINE
8
Black
10
172.94
20
-94.33
11
172.94
21
-93.83
0
LINE
8
Black
10
172.94
20
-93.83
11
173.84
21
-93.83
0
LINE
8
Black
10
173.84
20
-93.83
11
173.84
21
-94.33
0
LINE
8
Black
10
150
20
-94.33
11
149.5
21
-94.33
0
LINE
8
Black
10
149.5
20
-94.33
11
149.5
21
-93.43
0
LINE
8
Black
10
149.5
20
-93.43
11
150
21
-93.43
0
LINE
8
Black
10
150
20
-93.43
11
150
21
-94.33
0
LINE
8
Black
10
148.5
20
-94.33
11
148
21
-94.33
0
LINE
8
Black
10
148
20
-94.33
11
148
21
-93.43
0
LINE
8
Black
10
148
20
-93.43
11
148.5
21
-93.43
0
LINE
8
Black
10
148.5
20
-93.43
11
148.5
21
-94.33
0
LINE
8
Black
10
156.41
20
-94.25
11
155.51
21
-94.25
0
LINE
8
Black
10
155.51
20
-94.25
11
155.51
21
-93.75
0
LINE
8
Black
10
155.51
20
-93.75
11
156.41
21
-93.75
0
LINE
8
Black
10
156.41
20
-93.75
11
156.41
21
-94.25
0
LINE
8
Black
10
168.07
20
-93.915
11
167.27
21
-93.915
0
LINE
8
Black
10
167.27
20
-93.915
11
167.27
21
-93.165
0
LINE
8
Black
10
167.27
20
-93.165
11
168.07
21
-93.165
0
LINE
8
Black
10
168.07
20
-93.165
11
168.07
21
-93.915
0
LINE
8
Black
10
160.33
20
-93.915
11
159.53
21
-93.915
0
LINE
8
Black
10
159.53
20
-93.915
11
159.53
21
-93.165
0
LINE
8
Black
10
159.53
20
-93.165
11
160.33
21
-93.165
0
LINE
8
Black
10
160.33
20
-93.165
11
160.33
21
-93.915
0
LINE
8
Black
10
161.83
20
-93.915
11
161.03
21
-93.915
0
LINE
8
Black
10
161.03
20
-93.915
11
161.03
21
-93.165
0
LINE
8
Black
10
161.03
20
-93.165
11
161.83
21
-93.165
0
LINE
8
Black
10
161.83
20
-93.165
11
161.83
21
-93.915
0
LINE
8
Black
10
169.57
20
-93.915
11
168.77
21
-93.915
0
LINE
8
Black
10
168.77
20
-93.915
11
168.77
21
-93.165
0
LINE
8
Black
10
168.77
20
-93.165
11
169.57
21
-93.165
0
LINE
8
Black
10
169.57
20
-93.165
11
169.57
21
-93.915
0
LINE
8
Black
10
144.51
20
-93.795
11
143.01
21
-93.795
0
LINE
8
Black
10
143.01
20
-93.795
11
143.01
21
-93.245
0
LINE
8
Black
10
143.01
20
-93.245
11
144.51
21
-93.245
0
LINE
8
Black
10
144.51
20
-93.245
11
144.51
21
-93.795
0
LINE
8
Black
10
133.11
20
-93.795
11
131.61
21
-93.795
0
LINE
8
Black
10
131.61
20
-93.795
11
131.61
21
-93.245
0
LINE
8
Black
10
131.61
20
-93.245
11
133.11
21
-93.245
0
LINE
8
Black
10
133.11
20
-93.245
11
133.11
21
-93.795
0
LINE
8
Black
10
94.13
20
-93.77
11
93.23
21
-93.77
0
LINE
8
Black
10
93.23
20
-93.77
11
93.23
21
-93.27
0
LINE
8
Black
10
93.23
20
-93.27
11
94.13
21
-93.27
0
LINE
8
Black
10
94.13
20
-93.27
11
94.13
21
-93.77
0
LINE
8
Black
10
144.51
20
-92.995
11
143.01
21
-92.995
0
LINE
8
Black
10
143.01
20
-92.995
11
143.01
21
-92.445
0
LINE
8
Black
10
143.01
20
-92.445
11
144.51
21
-92.445
0
LINE
8
Black
10
144.51
20
-92.445
11
144.51
21
-92.995
0
LINE
8
Black
10
133.11
20
-92.995
11
131.61
21
-92.995
0
LINE
8
Black
10
131.61
20
-92.995
11
131.61
21
-92.445
0
LINE
8
Black
10
131.61
20
-92.445
11
133.11
21
-92.445
0
LINE
8
Black
10
133.11
20
-92.445
11
133.11
21
-92.995
0
LINE
8
Black
10
154.08
20
-92.77
11
152.88
21
-92.77
0
LINE
8
Black
10
152.88
20
-92.77
11
152.88
21
-91.57
0
LINE
8
Black
10
152.88
20
-91.57
11
154.08
21
-91.57
0
LINE
8
Black
10
154.08
20
-91.57
11
154.08
21
-92.77
0
LINE
8
Black
10
156.41
20
-92.75
11
155.51
21
-92.75
0
LINE
8
Black
10
155.51
20
-92.75
11
155.51
21
-92.25
0
LINE
8
Black
10
155.51
20
-92.25
11
156.41
21
-92.25
0
LINE
8
Black
10
156.41
20
-92.25
11
156.41
21
-92.75
0
LINE
8
Black
10
144.51
20
-92.195
11
143.01
21
-92.195
0
LINE
8
Black
10
143.01
20
-92.195
11
143.01
21
-91.645
0
LINE
8
Black
10
143.01
20
-91.645
11
144.51
21
-91.645
0
LINE
8
Black
10
144.51
20
-91.645
11
144.51
21
-92.195
0
LINE
8
Black
10
133.11
20
-92.195
11
131.61
21
-92.195
0
LINE
8
Black
10
131.61
20
-92.195
11
131.61
21
-91.645
0
LINE
8
Black
10
131.61
20
-91.645
11
133.11
21
-91.645
0
LINE
8
Black
10
133.11
20
-91.645
11
133.11
21
-92.195
0
LINE
8
Black
10
150.01
20
-91.75
11
149.51
21
-91.75
0
LINE
8
Black
10
149.51
20
-91.75
11
149.51
21
-90.85
0
LINE
8
Black
10
149.51
20
-90.85
11
150.01
21
-90.85
0
LINE
8
Black
10
150.01
20
-90.85
11
150.01
21
-91.75
0
LINE
8
Black
10
148.51
20
-91.75
11
148.01
21
-91.75
0
LINE
8
Black
10
148.01
20
-91.75
11
148.01
21
-90.85
0
LINE
8
Black
10
148.01
20
-90.85
11
148.51
21
-90.85
0
LINE
8
Black
10
148.51
20
-90.85
11
148.51
21
-91.75
0
LINE
8
Black
10
170.545
20
-91.735
11
168.995
21
-91.735
0
LINE
8
Black
10
168.995
20
-91.735
11
168.995
21
-91.135
0
LINE
8
Black
10
168.995
20
-91.135
11
170.545
21
-91.135
0
LINE
8
Black
10
170.545
20
-91.135
11
170.545
21
-91.735
0
LINE
8
Black
10
165.145
20
-91.735
11
163.595
21
-91.735
0
LINE
8
Black
10
163.595
20
-91.735
11
163.595
21
-91.135
0
LINE
8
Black
10
163.595
20
-91.135
11
165.145
21
-91.135
0
LINE
8
Black
10
165.145
20
-91.135
11
165.145
21
-91.735
0
LINE
8
Black
10
179.585
20
-91.725
11
178.035
21
-91.725
0
LINE
8
Black
10
178.035
20
-91.725
11
178.035
21
-91.125
0
LINE
8
Black
10
178.035
20
-91.125
11
179.585
21
-91.125
0
LINE
8
Black
10
179.585
20
-91.125
11
179.585
21
-91.725
0
LINE
8
Black
10
174.185
20
-91.725
11
172.635
21
-91.725
0
LINE
8
Black
10
172.635
20
-91.725
11
172.635
21
-91.125
0
LINE
8
Black
10
172.635
20
-91.125
11
174.185
21
-91.125
0
LINE
8
Black
10
174.185
20
-91.125
11
174.185
21
-91.725
0
LINE
8
Black
10
94.075
20
-91.61
11
93.325
21
-91.61
0
LINE
8
Black
10
93.325
20
-91.61
11
93.325
21
-90.81
0
LINE
8
Black
10
93.325
20
-90.81
11
94.075
21
-90.81
0
LINE
8
Black
10
94.075
20
-90.81
11
94.075
21
-91.61
0
LINE
8
Black
10
129.505
20
-91.51
11
128.755
21
-91.51
0
LINE
8
Black
10
128.755
20
-91.51
11
128.755
21
-90.71
0
LINE
8
Black
10
128.755
20
-90.71
11
129.505
21
-90.71
0
LINE
8
Black
10
129.505
20
-90.71
11
129.505
21
-91.51
0
LINE
8
Black
10
144.51
20
-91.395
11
143.01
21
-91.395
0
LINE
8
Black
10
143.01
20
-91.395
11
143.01
21
-90.845
0
LINE
8
Black
10
143.01
20
-90.845
11
144.51
21
-90.845
0
LINE
8
Black
10
144.51
20
-90.845
11
144.51
21
-91.395
0
LINE
8
Black
10
133.11
20
-91.395
11
131.61
21
-91.395
0
LINE
8
Black
10
131.61
20
-91.395
11
131.61
21
-90.845
0
LINE
8
Black
10
131.61
20
-90.845
11
133.11
21
-90.845
0
LINE
8
Black
10
133.11
20
-90.845
11
133.11
21
-91.395
0
LINE
8
Black
10
112.41
20
-90.91
11
111.91
21
-90.91
0
LINE
8
Black
10
111.91
20
-90.91
11
111.91
21
-90.01
0
LINE
8
Black
10
111.91
20
-90.01
11
112.41
21
-90.01
0
LINE
8
Black
10
112.41
20
-90.01
11
112.41
21
-90.91
0
LINE
8
Black
10
116.73
20
-90.91
11
116.23
21
-90.91
0
LINE
8
Black
10
116.23
20
-90.91
11
116.23
21
-90.01
0
LINE
8
Black
10
116.23
20
-90.01
11
116.73
21
-90.01
0
LINE
8
Black
10
116.73
20
-90.01
11
116.73
21
-90.91
0
LINE
8
Black
10
118.23
20
-90.91
11
117.73
21
-90.91
0
LINE
8
Black
10
117.73
20
-90.91
11
117.73
21
-90.01
0
LINE
8
Black
10
117.73
20
-90.01
11
118.23
21
-90.01
0
LINE
8
Black
10
118.23
20
-90.01
11
118.23
21
-90.91
0
LINE
8
Black
10
113.91
20
-90.91
11
113.41
21
-90.91
0
LINE
8
Black
10
113.41
20
-90.91
11
113.41
21
-90.01
0
LINE
8
Black
10
113.41
20
-90.01
11
113.91
21
-90.01
0
LINE
8
Black
10
113.91
20
-90.01
11
113.91
21
-90.91
0
LINE
8
Black
10
144.51
20
-90.595
11
143.01
21
-90.595
0
LINE
8
Black
10
143.01
20
-90.595
11
143.01
21
-90.045
0
LINE
8
Black
10
143.01
20
-90.045
11
144.51
21
-90.045
0
LINE
8
Black
10
144.51
20
-90.045
11
144.51
21
-90.595
0
LINE
8
Black
10
133.11
20
-90.595
11
131.61
21
-90.595
0
LINE
8
Black
10
131.61
20
-90.595
11
131.61
21
-90.045
0
LINE
8
Black
10
131.61
20
-90.045
11
133.11
21
-90.045
0
LINE
8
Black
10
133.11
20
-90.045
11
133.11
21
-90.595
0
LINE
8
Black
10
154.08
20
-90.57
11
152.88
21
-90.57
0
LINE
8
Black
10
152.88
20
-90.57
11
152.88
21
-89.37
0
LINE
8
Black
10
152.88
20
-89.37
11
154.08
21
-89.37
0
LINE
8
Black
10
154.08
20
-89.37
11
154.08
21
-90.57
0
LINE
8
Black
10
170.545
20
-90.465
11
168.995
21
-90.465
0
LINE
8
Black
10
168.995
20
-90.465
11
168.995
21
-89.865
0
LINE
8
Black
10
168.995
20
-89.865
11
170.545
21
-89.865
0
LINE
8
Black
10
170.545
20
-89.865
11
170.545
21
-90.465
0
LINE
8
Black
10
165.145
20
-90.465
11
163.595
21
-90.465
0
LINE
8
Black
10
163.595
20
-90.465
11
163.595
21
-89.865
0
LINE
8
Black
10
163.595
20
-89.865
11
165.145
21
-89.865
0
LINE
8
Black
10
165.145
20
-89.865
11
165.145
21
-90.465
0
LINE
8
Black
10
179.585
20
-90.455
11
178.035
21
-90.455
0
LINE
8
Black
10
178.035
20
-90.455
11
178.035
21
-89.855
0
LINE
8
Black
10
178.035
20
-89.855
11
179.585
21
-89.855
0
LINE
8
Black
10
179.585
20
-89.855
11
179.585
21
-90.455
0
LINE
8
Black
10
174.185
20
-90.455
11
172.635
21
-90.455
0
LINE
8
Black
10
172.635
20
-90.455
11
172.635
21
-89.855
0
LINE
8
Black
10
172.635
20
-89.855
11
174.185
21
-89.855
0
LINE
8
Black
10
174.185
20
-89.855
11
174.185
21
-90.455
0
LINE
8
Black
10
94.075
20
-90.11
11
93.325
21
-90.11
0
LINE
8
Black
10
93.325
20
-90.11
11
93.325
21
-89.31
0
LINE
8
Black
10
93.325
20
-89.31
11
94.075
21
-89.31
0
LINE
8
Black
10
94.075
20
-89.31
11
94.075
21
-90.11
0
LINE
8
Black
10
129.505
20
-90.01
11
128.755
21
-90.01
0
LINE
8
Black
10
128.755
20
-90.01
11
128.755
21
-89.21
0
LINE
8
Black
10
128.755
20
-89.21
11
129.505
21
-89.21
0
LINE
8
Black
10
129.505
20
-89.21
11
129.505
21
-90.01
0
LINE
8
Black
10
133.11
20
-89.795
11
131.61
21
-89.795
0
LINE
8
Black
10
131.61
20
-89.795
11
131.61
21
-89.245
0
LINE
8
Black
10
131.61
20
-89.245
11
133.11
21
-89.245
0
LINE
8
Black
10
133.11
20
-89.245
11
133.11
21
-89.795
0
LINE
8
Black
10
144.51
20
-89.795
11
143.01
21
-89.795
0
LINE
8
Black
10
143.01
20
-89.795
11
143.01
21
-89.245
0
LINE
8
Black
10
143.01
20
-89.245
11
144.51
21
-89.245
0
LINE
8
Black
10
144.51
20
-89.245
11
144.51
21
-89.795
0
LINE
8
Black
10
160.665
20
-89.4
11
159.915
21
-89.4
0
LINE
8
Black
10
159.915
20
-89.4
11
159.915
21
-88.6
0
LINE
8
Black
10
159.915
20
-88.6
11
160.665
21
-88.6
0
LINE
8
Black
10
160.665
20
-88.6
11
160.665
21
-89.4
0
LINE
8
Black
10
162.61
20
-89.26
11
161.71
21
-89.26
0
LINE
8
Black
10
161.71
20
-89.26
11
161.71
21
-88.76
0
LINE
8
Black
10
161.71
20
-88.76
11
162.61
21
-88.76
0
LINE
8
Black
10
162.61
20
-88.76
11
162.61
21
-89.26
0
LINE
8
Black
10
170.545
20
-89.195
11
168.995
21
-89.195
0
LINE
8
Black
10
168.995
20
-89.195
11
168.995
21
-88.595
0
LINE
8
Black
10
168.995
20
-88.595
11
170.545
21
-88.595
0
LINE
8
Black
10
170.545
20
-88.595
11
170.545
21
-89.195
0
LINE
8
Black
10
165.145
20
-89.195
11
163.595
21
-89.195
0
LINE
8
Black
10
163.595
20
-89.195
11
163.595
21
-88.595
0
LINE
8
Black
10
163.595
20
-88.595
11
165.145
21
-88.595
0
LINE
8
Black
10
165.145
20
-88.595
11
165.145
21
-89.195
0
LINE
8
Black
10
179.585
20
-89.185
11
178.035
21
-89.185
0
LINE
8
Black
10
178.035
20
-89.185
11
178.035
21
-88.585
0
LINE
8
Black
10
178.035
20
-88.585
11
179.585
21
-88.585
0
LINE
8
Black
10
179.585
20
-88.585
11
179.585
21
-89.185
0
LINE
8
Black
10
174.185
20
-89.185
11
172.635
21
-89.185
0
LINE
8
Black
10
172.635
20
-89.185
11
172.635
21
-88.585
0
LINE
8
Black
10
172.635
20
-88.585
11
174.185
21
-88.585
0
LINE
8
Black
10
174.185
20
-88.585
11
174.185
21
-89.185
0
LINE
8
Black
10
148.7
20
-88.995
11
147.9
21
-88.995
0
LINE
8
Black
10
147.9
20
-88.995
11
147.9
21
-88.245
0
LINE
8
Black
10
147.9
20
-88.245
11
148.7
21
-88.245
0
LINE
8
Black
10
148.7
20
-88.245
11
148.7
21
-88.995
0
LINE
8
Black
10
144.51
20
-88.995
11
143.01
21
-88.995
0
LINE
8
Black
10
143.01
20
-88.995
11
143.01
21
-88.445
0
LINE
8
Black
10
143.01
20
-88.445
11
144.51
21
-88.445
0
LINE
8
Black
10
144.51
20
-88.445
11
144.51
21
-88.995
0
LINE
8
Black
10
133.11
20
-88.995
11
131.61
21
-88.995
0
LINE
8
Black
10
131.61
20
-88.995
11
131.61
21
-88.445
0
LINE
8
Black
10
131.61
20
-88.445
11
133.11
21
-88.445
0
LINE
8
Black
10
133.11
20
-88.445
11
133.11
21
-88.995
0
LINE
8
Black
10
150.2
20
-88.995
11
149.4
21
-88.995
0
LINE
8
Black
10
149.4
20
-88.995
11
149.4
21
-88.245
0
LINE
8
Black
10
149.4
20
-88.245
11
150.2
21
-88.245
0
LINE
8
Black
10
150.2
20
-88.245
11
150.2
21
-88.995
0
LINE
8
Black
10
144.51
20
-88.195
11
143.01
21
-88.195
0
LINE
8
Black
10
143.01
20
-88.195
11
143.01
21
-87.645
0
LINE
8
Black
10
143.01
20
-87.645
11
144.51
21
-87.645
0
LINE
8
Black
10
144.51
20
-87.645
11
144.51
21
-88.195
0
LINE
8
Black
10
133.11
20
-88.195
11
131.61
21
-88.195
0
LINE
8
Black
10
131.61
20
-88.195
11
131.61
21
-87.645
0
LINE
8
Black
10
131.61
20
-87.645
11
133.11
21
-87.645
0
LINE
8
Black
10
133.11
20
-87.645
11
133.11
21
-88.195
0
LINE
8
Black
10
170.545
20
-87.925
11
168.995
21
-87.925
0
LINE
8
Black
10
168.995
20
-87.925
11
168.995
21
-87.325
0
LINE
8
Black
10
168.995
20
-87.325
11
170.545
21
-87.325
0
LINE
8
Black
10
170.545
20
-87.325
11
170.545
21
-87.925
0
LINE
8
Black
10
165.145
20
-87.925
11
163.595
21
-87.925
0
LINE
8
Black
10
163.595
20
-87.925
11
163.595
21
-87.325
0
LINE
8
Black
10
163.595
20
-87.325
11
165.145
21
-87.325
0
LINE
8
Black
10
165.145
20
-87.325
11
165.145
21
-87.925
0
LINE
8
Black
10
179.585
20
-87.915
11
178.035
21
-87.915
0
LINE
8
Black
10
178.035
20
-87.915
11
178.035
21
-87.315
0
LINE
8
Black
10
178.035
20
-87.315
11
179.585
21
-87.315
0
LINE
8
Black
10
179.585
20
-87.315
11
179.585
21
-87.915
0
LINE
8
Black
10
174.185
20
-87.915
11
172.635
21
-87.915
0
LINE
8
Black
10
172.635
20
-87.915
11
172.635
21
-87.315
0
LINE
8
Black
10
172.635
20
-87.315
11
174.185
21
-87.315
0
LINE
8
Black
10
174.185
20
-87.315
11
174.185
21
-87.915
0
LINE
8
Black
10
160.665
20
-87.9
11
159.915
21
-87.9
0
LINE
8
Black
10
159.915
20
-87.9
11
159.915
21
-87.1
0
LINE
8
Black
10
159.915
20
-87.1
11
160.665
21
-87.1
0
LINE
8
Black
10
160.665
20
-87.1
11
160.665
21
-87.9
0
LINE
8
Black
10
94.065
20
-87.83
11
93.315
21
-87.83
0
LINE
8
Black
10
93.315
20
-87.83
11
93.315
21
-87.03
0
LINE
8
Black
10
93.315
20
-87.03
11
94.065
21
-87.03
0
LINE
8
Black
10
94.065
20
-87.03
11
94.065
21
-87.83
0
LINE
8
Black
10
162.61
20
-87.76
11
161.71
21
-87.76
0
LINE
8
Black
10
161.71
20
-87.76
11
161.71
21
-87.26
0
LINE
8
Black
10
161.71
20
-87.26
11
162.61
21
-87.26
0
LINE
8
Black
10
162.61
20
-87.26
11
162.61
21
-87.76
0
LINE
8
Black
10
144.51
20
-87.395
11
143.01
21
-87.395
0
LINE
8
Black
10
143.01
20
-87.395
11
143.01
21
-86.845
0
LINE
8
Black
10
143.01
20
-86.845
11
144.51
21
-86.845
0
LINE
8
Black
10
144.51
20
-86.845
11
144.51
21
-87.395
0
LINE
8
Black
10
133.11
20
-87.395
11
131.61
21
-87.395
0
LINE
8
Black
10
131.61
20
-87.395
11
131.61
21
-86.845
0
LINE
8
Black
10
131.61
20
-86.845
11
133.11
21
-86.845
0
LINE
8
Black
10
133.11
20
-86.845
11
133.11
21
-87.395
0
LINE
8
Black
10
112.43
20
-87.29
11
111.93
21
-87.29
0
LINE
8
Black
10
111.93
20
-87.29
11
111.93
21
-86.39
0
LINE
8
Black
10
111.93
20
-86.39
11
112.43
21
-86.39
0
LINE
8
Black
10
112.43
20
-86.39
11
112.43
21
-87.29
0
LINE
8
Black
10
113.93
20
-87.29
11
113.43
21
-87.29
0
LINE
8
Black
10
113.43
20
-87.29
11
113.43
21
-86.39
0
LINE
8
Black
10
113.43
20
-86.39
11
113.93
21
-86.39
0
LINE
8
Black
10
113.93
20
-86.39
11
113.93
21
-87.29
0
LINE
8
Black
10
116.73
20
-87.28
11
116.23
21
-87.28
0
LINE
8
Black
10
116.23
20
-87.28
11
116.23
21
-86.38
0
LINE
8
Black
10
116.23
20
-86.38
11
116.73
21
-86.38
0
LINE
8
Black
10
116.73
20
-86.38
11
116.73
21
-87.28
0
LINE
8
Black
10
118.23
20
-87.28
11
117.73
21
-87.28
0
LINE
8
Black
10
117.73
20
-87.28
11
117.73
21
-86.38
0
LINE
8
Black
10
117.73
20
-86.38
11
118.23
21
-86.38
0
LINE
8
Black
10
118.23
20
-86.38
11
118.23
21
-87.28
0
LINE
8
Black
10
133.11
20
-86.595
11
131.61
21
-86.595
0
LINE
8
Black
10
131.61
20
-86.595
11
131.61
21
-86.045
0
LINE
8
Black
10
131.61
20
-86.045
11
133.11
21
-86.045
0
LINE
8
Black
10
133.11
20
-86.045
11
133.11
21
-86.595
0
LINE
8
Black
10
144.51
20
-86.595
11
143.01
21
-86.595
0
LINE
8
Black
10
143.01
20
-86.595
11
143.01
21
-86.045
0
LINE
8
Black
10
143.01
20
-86.045
11
144.51
21
-86.045
0
LINE
8
Black
10
144.51
20
-86.045
11
144.51
21
-86.595
0
LINE
8
Black
10
94.065
20
-86.33
11
93.315
21
-86.33
0
LINE
8
Black
10
93.315
20
-86.33
11
93.315
21
-85.53
0
LINE
8
Black
10
93.315
20
-85.53
11
94.065
21
-85.53
0
LINE
8
Black
10
94.065
20
-85.53
11
94.065
21
-86.33
0
LINE
8
Black
10
161.57
20
-85.61
11
161.07
21
-85.61
0
LINE
8
Black
10
161.07
20
-85.61
11
161.07
21
-84.71
0
LINE
8
Black
10
161.07
20
-84.71
11
161.57
21
-84.71
0
LINE
8
Black
10
161.57
20
-84.71
11
161.57
21
-85.61
0
LINE
8
Black
10
160.07
20
-85.61
11
159.57
21
-85.61
0
LINE
8
Black
10
159.57
20
-85.61
11
159.57
21
-84.71
0
LINE
8
Black
10
159.57
20
-84.71
11
160.07
21
-84.71
0
LINE
8
Black
10
160.07
20
-84.71
11
160.07
21
-85.61
0
LINE
8
Black
10
148.45
20
-85.59
11
147.95
21
-85.59
0
LINE
8
Black
10
147.95
20
-85.59
11
147.95
21
-84.69
0
LINE
8
Black
10
147.95
20
-84.69
11
148.45
21
-84.69
0
LINE
8
Black
10
148.45
20
-84.69
11
148.45
21
-85.59
0
LINE
8
Black
10
152.29
20
-85.59
11
151.79
21
-85.59
0
LINE
8
Black
10
151.79
20
-85.59
11
151.79
21
-84.69
0
LINE
8
Black
10
151.79
20
-84.69
11
152.29
21
-84.69
0
LINE
8
Black
10
152.29
20
-84.69
11
152.29
21
-85.59
0
LINE
8
Black
10
149.95
20
-85.59
11
149.45
21
-85.59
0
LINE
8
Black
10
149.45
20
-85.59
11
149.45
21
-84.69
0
LINE
8
Black
10
149.45
20
-84.69
11
149.95
21
-84.69
0
LINE
8
Black
10
149.95
20
-84.69
11
149.95
21
-85.59
0
LINE
8
Black
10
153.79
20
-85.59
11
153.29
21
-85.59
0
LINE
8
Black
10
153.29
20
-85.59
11
153.29
21
-84.69
0
LINE
8
Black
10
153.29
20
-84.69
11
153.79
21
-84.69
0
LINE
8
Black
10
153.79
20
-84.69
11
153.79
21
-85.59
0
LINE
8
Black
10
176.55
20
-85.58
11
176.05
21
-85.58
0
LINE
8
Black
10
176.05
20
-85.58
11
176.05
21
-84.68
0
LINE
8
Black
10
176.05
20
-84.68
11
176.55
21
-84.68
0
LINE
8
Black
10
176.55
20
-84.68
11
176.55
21
-85.58
0
LINE
8
Black
10
175.05
20
-85.58
11
174.55
21
-85.58
0
LINE
8
Black
10
174.55
20
-85.58
11
174.55
21
-84.68
0
LINE
8
Black
10
174.55
20
-84.68
11
175.05
21
-84.68
0
LINE
8
Black
10
175.05
20
-84.68
11
175.05
21
-85.58
0
LINE
8
Black
10
157.74
20
-85.535
11
156.94
21
-85.535
0
LINE
8
Black
10
156.94
20
-85.535
11
156.94
21
-84.785
0
LINE
8
Black
10
156.94
20
-84.785
11
157.74
21
-84.785
0
LINE
8
Black
10
157.74
20
-84.785
11
157.74
21
-85.535
0
LINE
8
Black
10
156.24
20
-85.535
11
155.44
21
-85.535
0
LINE
8
Black
10
155.44
20
-85.535
11
155.44
21
-84.785
0
LINE
8
Black
10
155.44
20
-84.785
11
156.24
21
-84.785
0
LINE
8
Black
10
156.24
20
-84.785
11
156.24
21
-85.535
0
LINE
8
Black
10
165.62
20
-85.535
11
164.82
21
-85.535
0
LINE
8
Black
10
164.82
20
-85.535
11
164.82
21
-84.785
0
LINE
8
Black
10
164.82
20
-84.785
11
165.62
21
-84.785
0
LINE
8
Black
10
165.62
20
-84.785
11
165.62
21
-85.535
0
LINE
8
Black
10
168.67
20
-85.535
11
167.87
21
-85.535
0
LINE
8
Black
10
167.87
20
-85.535
11
167.87
21
-84.785
0
LINE
8
Black
10
167.87
20
-84.785
11
168.67
21
-84.785
0
LINE
8
Black
10
168.67
20
-84.785
11
168.67
21
-85.535
0
LINE
8
Black
10
170.17
20
-85.535
11
169.37
21
-85.535
0
LINE
8
Black
10
169.37
20
-85.535
11
169.37
21
-84.785
0
LINE
8
Black
10
169.37
20
-84.785
11
170.17
21
-84.785
0
LINE
8
Black
10
170.17
20
-84.785
11
170.17
21
-85.535
0
LINE
8
Black
10
164.12
20
-85.535
11
163.32
21
-85.535
0
LINE
8
Black
10
163.32
20
-85.535
11
163.32
21
-84.785
0
LINE
8
Black
10
163.32
20
-84.785
11
164.12
21
-84.785
0
LINE
8
Black
10
164.12
20
-84.785
11
164.12
21
-85.535
0
LINE
8
Black
10
142.335
20
-85.37
11
141.785
21
-85.37
0
LINE
8
Black
10
141.785
20
-85.37
11
141.785
21
-83.87
0
LINE
8
Black
10
141.785
20
-83.87
11
142.335
21
-83.87
0
LINE
8
Black
10
142.335
20
-83.87
11
142.335
21
-85.37
0
LINE
8
Black
10
141.535
20
-85.37
11
140.985
21
-85.37
0
LINE
8
Black
10
140.985
20
-85.37
11
140.985
21
-83.87
0
LINE
8
Black
10
140.985
20
-83.87
11
141.535
21
-83.87
0
LINE
8
Black
10
141.535
20
-83.87
11
141.535
21
-85.37
0
LINE
8
Black
10
135.135
20
-85.37
11
134.585
21
-85.37
0
LINE
8
Black
10
134.585
20
-85.37
11
134.585
21
-83.87
0
LINE
8
Black
10
134.585
20
-83.87
11
135.135
21
-83.87
0
LINE
8
Black
10
135.135
20
-83.87
11
135.135
21
-85.37
0
LINE
8
Black
10
136.735
20
-85.37
11
136.185
21
-85.37
0
LINE
8
Black
10
136.185
20
-85.37
11
136.185
21
-83.87
0
LINE
8
Black
10
136.185
20
-83.87
11
136.735
21
-83.87
0
LINE
8
Black
10
136.735
20
-83.87
11
136.735
21
-85.37
0
LINE
8
Black
10
135.935
20
-85.37
11
135.385
21
-85.37
0
LINE
8
Black
10
135.385
20
-85.37
11
135.385
21
-83.87
0
LINE
8
Black
10
135.385
20
-83.87
11
135.935
21
-83.87
0
LINE
8
Black
10
135.935
20
-83.87
11
135.935
21
-85.37
0
LINE
8
Black
10
134.335
20
-85.37
11
133.785
21
-85.37
0
LINE
8
Black
10
133.785
20
-85.37
11
133.785
21
-83.87
0
LINE
8
Black
10
133.785
20
-83.87
11
134.335
21
-83.87
0
LINE
8
Black
10
134.335
20
-83.87
11
134.335
21
-85.37
0
LINE
8
Black
10
139.135
20
-85.37
11
138.585
21
-85.37
0
LINE
8
Black
10
138.585
20
-85.37
11
138.585
21
-83.87
0
LINE
8
Black
10
138.585
20
-83.87
11
139.135
21
-83.87
0
LINE
8
Black
10
139.135
20
-83.87
11
139.135
21
-85.37
0
LINE
8
Black
10
138.335
20
-85.37
11
137.785
21
-85.37
0
LINE
8
Black
10
137.785
20
-85.37
11
137.785
21
-83.87
0
LINE
8
Black
10
137.785
20
-83.87
11
138.335
21
-83.87
0
LINE
8
Black
10
138.335
20
-83.87
11
138.335
21
-85.37
0
LINE
8
Black
10
137.535
20
-85.37
11
136.985
21
-85.37
0
LINE
8
Black
10
136.985
20
-85.37
11
136.985
21
-83.87
0
LINE
8
Black
10
136.985
20
-83.87
11
137.535
21
-83.87
0
LINE
8
Black
10
137.535
20
-83.87
11
137.535
21
-85.37
0
LINE
8
Black
10
139.935
20
-85.37
11
139.385
21
-85.37
0
LINE
8
Black
10
139.385
20
-85.37
11
139.385
21
-83.87
0
LINE
8
Black
10
139.385
20
-83.87
11
139.935
21
-83.87
0
LINE
8
Black
10
139.935
20
-83.87
11
139.935
21
-85.37
0
LINE
8
Black
10
140.735
20
-85.37
11
140.185
21
-85.37
0
LINE
8
Black
10
140.185
20
-85.37
11
140.185
21
-83.87
0
LINE
8
Black
10
140.185
20
-83.87
11
140.735
21
-83.87
0
LINE
8
Black
10
140.735
20
-83.87
11
140.735
21
-85.37
0
LINE
8
Black
10
121.74
20
-85.23
11
120.04
21
-85.23
0
LINE
8
Black
10
120.04
20
-85.23
11
120.04
21
-83.93
0
LINE
8
Black
10
120.04
20
-83.93
11
121.74
21
-83.93
0
LINE
8
Black
10
121.74
20
-83.93
11
121.74
21
-85.23
0
LINE
8
Black
10
97.815
20
-85.085
11
97.215
21
-85.085
0
LINE
8
Black
10
97.215
20
-85.085
11
97.215
21
-83.135
0
LINE
8
Black
10
97.215
20
-83.135
11
97.815
21
-83.135
0
LINE
8
Black
10
97.815
20
-83.135
11
97.815
21
-85.085
0
LINE
8
Black
10
96.545
20
-85.085
11
95.945
21
-85.085
0
LINE
8
Black
10
95.945
20
-85.085
11
95.945
21
-83.135
0
LINE
8
Black
10
95.945
20
-83.135
11
96.545
21
-83.135
0
LINE
8
Black
10
96.545
20
-83.135
11
96.545
21
-85.085
0
LINE
8
Black
10
99.085
20
-85.085
11
98.485
21
-85.085
0
LINE
8
Black
10
98.485
20
-85.085
11
98.485
21
-83.135
0
LINE
8
Black
10
98.485
20
-83.135
11
99.085
21
-83.135
0
LINE
8
Black
10
99.085
20
-83.135
11
99.085
21
-85.085
0
LINE
8
Black
10
100.355
20
-85.085
11
99.755
21
-85.085
0
LINE
8
Black
10
99.755
20
-85.085
11
99.755
21
-83.135
0
LINE
8
Black
10
99.755
20
-83.135
11
100.355
21
-83.135
0
LINE
8
Black
10
100.355
20
-83.135
11
100.355
21
-85.085
0
LINE
8
Black
10
101.625
20
-85.085
11
101.025
21
-85.085
0
LINE
8
Black
10
101.025
20
-85.085
11
101.025
21
-83.135
0
LINE
8
Black
10
101.025
20
-83.135
11
101.625
21
-83.135
0
LINE
8
Black
10
101.625
20
-83.135
11
101.625
21
-85.085
0
LINE
8
Black
10
102.895
20
-85.085
11
102.295
21
-85.085
0
LINE
8
Black
10
102.295
20
-85.085
11
102.295
21
-83.135
0
LINE
8
Black
10
102.295
20
-83.135
11
102.895
21
-83.135
0
LINE
8
Black
10
102.895
20
-83.135
11
102.895
21
-85.085
0
LINE
8
Black
10
104.165
20
-85.085
11
103.565
21
-85.085
0
LINE
8
Black
10
103.565
20
-85.085
11
103.565
21
-83.135
0
LINE
8
Black
10
103.565
20
-83.135
11
104.165
21
-83.135
0
LINE
8
Black
10
104.165
20
-83.135
11
104.165
21
-85.085
0
LINE
8
Black
10
105.435
20
-85.085
11
104.835
21
-85.085
0
LINE
8
Black
10
104.835
20
-85.085
11
104.835
21
-83.135
0
LINE
8
Black
10
104.835
20
-83.135
11
105.435
21
-83.135
0
LINE
8
Black
10
105.435
20
-83.135
11
105.435
21
-85.085
0
LINE
8
Black
10
106.705
20
-85.085
11
106.105
21
-85.085
0
LINE
8
Black
10
106.105
20
-85.085
11
106.105
21
-83.135
0
LINE
8
Black
10
106.105
20
-83.135
11
106.705
21
-83.135
0
LINE
8
Black
10
106.705
20
-83.135
11
106.705
21
-85.085
0
LINE
8
Black
10
107.975
20
-85.085
11
107.375
21
-85.085
0
LINE
8
Black
10
107.375
20
-85.085
11
107.375
21
-83.135
0
LINE
8
Black
10
107.375
20
-83.135
11
107.975
21
-83.135
0
LINE
8
Black
10
107.975
20
-83.135
11
107.975
21
-85.085
0
LINE
8
Black
10
130.42
20
-84.78
11
129.92
21
-84.78
0
LINE
8
Black
10
129.92
20
-84.78
11
129.92
21
-83.88
0
LINE
8
Black
10
129.92
20
-83.88
11
130.42
21
-83.88
0
LINE
8
Black
10
130.42
20
-83.88
11
130.42
21
-84.78
0
LINE
8
Black
10
131.92
20
-84.78
11
131.42
21
-84.78
0
LINE
8
Black
10
131.42
20
-84.78
11
131.42
21
-83.88
0
LINE
8
Black
10
131.42
20
-83.88
11
131.92
21
-83.88
0
LINE
8
Black
10
131.92
20
-83.88
11
131.92
21
-84.78
0
LINE
8
Black
10
118.87
20
-84.34
11
116.32
21
-84.34
0
LINE
8
Black
10
116.32
20
-84.34
11
116.32
21
-81.84
0
LINE
8
Black
10
116.32
20
-81.84
11
118.87
21
-81.84
0
LINE
8
Black
10
118.87
20
-81.84
11
118.87
21
-84.34
0
LINE
8
Black
10
113.82
20
-84.34
11
111.27
21
-84.34
0
LINE
8
Black
10
111.27
20
-84.34
11
111.27
21
-81.84
0
LINE
8
Black
10
111.27
20
-81.84
11
113.82
21
-81.84
0
LINE
8
Black
10
113.82
20
-81.84
11
113.82
21
-84.34
0
LINE
8
Black
10
94.055
20
-84.24
11
93.305
21
-84.24
0
LINE
8
Black
10
93.305
20
-84.24
11
93.305
21
-83.44
0
LINE
8
Black
10
93.305
20
-83.44
11
94.055
21
-83.44
0
LINE
8
Black
10
94.055
20
-83.44
11
94.055
21
-84.24
0
LINE
8
Black
10
143.52
20
-83.46
11
142.62
21
-83.46
0
LINE
8
Black
10
142.62
20
-83.46
11
142.62
21
-82.96
0
LINE
8
Black
10
142.62
20
-82.96
11
143.52
21
-82.96
0
LINE
8
Black
10
143.52
20
-82.96
11
143.52
21
-83.46
0
LINE
8
Black
10
149.4
20
-83.46
11
148.5
21
-83.46
0
LINE
8
Black
10
148.5
20
-83.46
11
148.5
21
-82.96
0
LINE
8
Black
10
148.5
20
-82.96
11
149.4
21
-82.96
0
LINE
8
Black
10
149.4
20
-82.96
11
149.4
21
-83.46
0
LINE
8
Black
10
146.65
20
-83.46
11
145.75
21
-83.46
0
LINE
8
Black
10
145.75
20
-83.46
11
145.75
21
-82.96
0
LINE
8
Black
10
145.75
20
-82.96
11
146.65
21
-82.96
0
LINE
8
Black
10
146.65
20
-82.96
11
146.65
21
-83.46
0
LINE
8
Black
10
159.305
20
-82.995
11
157.755
21
-82.995
0
LINE
8
Black
10
157.755
20
-82.995
11
157.755
21
-82.395
0
LINE
8
Black
10
157.755
20
-82.395
11
159.305
21
-82.395
0
LINE
8
Black
10
159.305
20
-82.395
11
159.305
21
-82.995
0
LINE
8
Black
10
153.905
20
-82.995
11
152.355
21
-82.995
0
LINE
8
Black
10
152.355
20
-82.995
11
152.355
21
-82.395
0
LINE
8
Black
10
152.355
20
-82.395
11
153.905
21
-82.395
0
LINE
8
Black
10
153.905
20
-82.395
11
153.905
21
-82.995
0
LINE
8
Black
10
94.055
20
-82.74
11
93.305
21
-82.74
0
LINE
8
Black
10
93.305
20
-82.74
11
93.305
21
-81.94
0
LINE
8
Black
10
93.305
20
-81.94
11
94.055
21
-81.94
0
LINE
8
Black
10
94.055
20
-81.94
11
94.055
21
-82.74
0
LINE
8
Black
10
130.42
20
-82.69
11
129.92
21
-82.69
0
LINE
8
Black
10
129.92
20
-82.69
11
129.92
21
-81.79
0
LINE
8
Black
10
129.92
20
-81.79
11
130.42
21
-81.79
0
LINE
8
Black
10
130.42
20
-81.79
11
130.42
21
-82.69
0
LINE
8
Black
10
131.92
20
-82.69
11
131.42
21
-82.69
0
LINE
8
Black
10
131.42
20
-82.69
11
131.42
21
-81.79
0
LINE
8
Black
10
131.42
20
-81.79
11
131.92
21
-81.79
0
LINE
8
Black
10
131.92
20
-81.79
11
131.92
21
-82.69
0
LINE
8
Black
10
161.875
20
-82.675
11
160.975
21
-82.675
0
LINE
8
Black
10
160.975
20
-82.675
11
160.975
21
-82.175
0
LINE
8
Black
10
160.975
20
-82.175
11
161.875
21
-82.175
0
LINE
8
Black
10
161.875
20
-82.175
11
161.875
21
-82.675
0
LINE
8
Black
10
164.27
20
-82.67
11
163.37
21
-82.67
0
LINE
8
Black
10
163.37
20
-82.67
11
163.37
21
-82.17
0
LINE
8
Black
10
163.37
20
-82.17
11
164.27
21
-82.17
0
LINE
8
Black
10
164.27
20
-82.17
11
164.27
21
-82.67
0
LINE
8
Black
10
137.71
20
-82.005
11
136.91
21
-82.005
0
LINE
8
Black
10
136.91
20
-82.005
11
136.91
21
-81.255
0
LINE
8
Black
10
136.91
20
-81.255
11
137.71
21
-81.255
0
LINE
8
Black
10
137.71
20
-81.255
11
137.71
21
-82.005
0
LINE
8
Black
10
139.21
20
-82.005
11
138.41
21
-82.005
0
LINE
8
Black
10
138.41
20
-82.005
11
138.41
21
-81.255
0
LINE
8
Black
10
138.41
20
-81.255
11
139.21
21
-81.255
0
LINE
8
Black
10
139.21
20
-81.255
11
139.21
21
-82.005
0
LINE
8
Black
10
146.65
20
-81.96
11
145.75
21
-81.96
0
LINE
8
Black
10
145.75
20
-81.96
11
145.75
21
-81.46
0
LINE
8
Black
10
145.75
20
-81.46
11
146.65
21
-81.46
0
LINE
8
Black
10
146.65
20
-81.46
11
146.65
21
-81.96
0
LINE
8
Black
10
143.52
20
-81.96
11
142.62
21
-81.96
0
LINE
8
Black
10
142.62
20
-81.96
11
142.62
21
-81.46
0
LINE
8
Black
10
142.62
20
-81.46
11
143.52
21
-81.46
0
LINE
8
Black
10
143.52
20
-81.46
11
143.52
21
-81.96
0
LINE
8
Black
10
149.4
20
-81.96
11
148.5
21
-81.96
0
LINE
8
Black
10
148.5
20
-81.96
11
148.5
21
-81.46
0
LINE
8
Black
10
148.5
20
-81.46
11
149.4
21
-81.46
0
LINE
8
Black
10
149.4
20
-81.46
11
149.4
21
-81.96
0
LINE
8
Black
10
121.74
20
-81.73
11
120.04
21
-81.73
0
LINE
8
Black
10
120.04
20
-81.73
11
120.04
21
-80.43
0
LINE
8
Black
10
120.04
20
-80.43
11
121.74
21
-80.43
0
LINE
8
Black
10
121.74
20
-80.43
11
121.74
21
-81.73
0
LINE
8
Black
10
153.905
20
-81.725
11
152.355
21
-81.725
0
LINE
8
Black
10
152.355
20
-81.725
11
152.355
21
-81.125
0
LINE
8
Black
10
152.355
20
-81.125
11
153.905
21
-81.125
0
LINE
8
Black
10
153.905
20
-81.125
11
153.905
21
-81.725
0
LINE
8
Black
10
159.305
20
-81.725
11
157.755
21
-81.725
0
LINE
8
Black
10
157.755
20
-81.725
11
157.755
21
-81.125
0
LINE
8
Black
10
157.755
20
-81.125
11
159.305
21
-81.125
0
LINE
8
Black
10
159.305
20
-81.125
11
159.305
21
-81.725
0
LINE
8
Black
10
161.875
20
-81.175
11
160.975
21
-81.175
0
LINE
8
Black
10
160.975
20
-81.175
11
160.975
21
-80.675
0
LINE
8
Black
10
160.975
20
-80.675
11
161.875
21
-80.675
0
LINE
8
Black
10
161.875
20
-80.675
11
161.875
21
-81.175
0
LINE
8
Black
10
164.27
20
-81.17
11
163.37
21
-81.17
0
LINE
8
Black
10
163.37
20
-81.17
11
163.37
21
-80.67
0
LINE
8
Black
10
163.37
20
-80.67
11
164.27
21
-80.67
0
LINE
8
Black
10
164.27
20
-80.67
11
164.27
21
-81.17
0
LINE
8
Black
10
108.28
20
-81.075
11
107.22
21
-81.075
0
LINE
8
Black
10
107.22
20
-81.075
11
107.22
21
-80.425
0
LINE
8
Black
10
107.22
20
-80.425
11
108.28
21
-80.425
0
LINE
8
Black
10
108.28
20
-80.425
11
108.28
21
-81.075
0
LINE
8
Black
10
106.08
20
-81.075
11
105.02
21
-81.075
0
LINE
8
Black
10
105.02
20
-81.075
11
105.02
21
-80.425
0
LINE
8
Black
10
105.02
20
-80.425
11
106.08
21
-80.425
0
LINE
8
Black
10
106.08
20
-80.425
11
106.08
21
-81.075
0
LINE
8
Black
10
153.905
20
-80.455
11
152.355
21
-80.455
0
LINE
8
Black
10
152.355
20
-80.455
11
152.355
21
-79.855
0
LINE
8
Black
10
152.355
20
-79.855
11
153.905
21
-79.855
0
LINE
8
Black
10
153.905
20
-79.855
11
153.905
21
-80.455
0
LINE
8
Black
10
159.305
20
-80.455
11
157.755
21
-80.455
0
LINE
8
Black
10
157.755
20
-80.455
11
157.755
21
-79.855
0
LINE
8
Black
10
157.755
20
-79.855
11
159.305
21
-79.855
0
LINE
8
Black
10
159.305
20
-79.855
11
159.305
21
-80.455
0
LINE
8
Black
10
132.59
20
-80.41
11
130.59
21
-80.41
0
LINE
8
Black
10
130.59
20
-80.41
11
130.59
21
-78.01
0
LINE
8
Black
10
130.59
20
-78.01
11
132.59
21
-78.01
0
LINE
8
Black
10
132.59
20
-78.01
11
132.59
21
-80.41
0
LINE
8
Black
10
136.29
20
-80.41
11
134.29
21
-80.41
0
LINE
8
Black
10
134.29
20
-80.41
11
134.29
21
-78.01
0
LINE
8
Black
10
134.29
20
-78.01
11
136.29
21
-78.01
0
LINE
8
Black
10
136.29
20
-78.01
11
136.29
21
-80.41
0
LINE
8
Black
10
146.66
20
-80.34
11
145.76
21
-80.34
0
LINE
8
Black
10
145.76
20
-80.34
11
145.76
21
-79.84
0
LINE
8
Black
10
145.76
20
-79.84
11
146.66
21
-79.84
0
LINE
8
Black
10
146.66
20
-79.84
11
146.66
21
-80.34
0
LINE
8
Black
10
143.52
20
-80.34
11
142.62
21
-80.34
0
LINE
8
Black
10
142.62
20
-80.34
11
142.62
21
-79.84
0
LINE
8
Black
10
142.62
20
-79.84
11
143.52
21
-79.84
0
LINE
8
Black
10
143.52
20
-79.84
11
143.52
21
-80.34
0
LINE
8
Black
10
149.47
20
-80.34
11
148.57
21
-80.34
0
LINE
8
Black
10
148.57
20
-80.34
11
148.57
21
-79.84
0
LINE
8
Black
10
148.57
20
-79.84
11
149.47
21
-79.84
0
LINE
8
Black
10
149.47
20
-79.84
11
149.47
21
-80.34
0
LINE
8
Black
10
106.08
20
-80.125
11
105.02
21
-80.125
0
LINE
8
Black
10
105.02
20
-80.125
11
105.02
21
-79.475
0
LINE
8
Black
10
105.02
20
-79.475
11
106.08
21
-79.475
0
LINE
8
Black
10
106.08
20
-79.475
11
106.08
21
-80.125
0
LINE
8
Black
10
108.28
20
-80.125
11
107.22
21
-80.125
0
LINE
8
Black
10
107.22
20
-80.125
11
107.22
21
-79.475
0
LINE
8
Black
10
107.22
20
-79.475
11
108.28
21
-79.475
0
LINE
8
Black
10
108.28
20
-79.475
11
108.28
21
-80.125
0
LINE
8
Black
10
116.73
20
-79.67
11
116.23
21
-79.67
0
LINE
8
Black
10
116.23
20
-79.67
11
116.23
21
-78.77
0
LINE
8
Black
10
116.23
20
-78.77
11
116.73
21
-78.77
0
LINE
8
Black
10
116.73
20
-78.77
11
116.73
21
-79.67
0
LINE
8
Black
10
118.23
20
-79.67
11
117.73
21
-79.67
0
LINE
8
Black
10
117.73
20
-79.67
11
117.73
21
-78.77
0
LINE
8
Black
10
117.73
20
-78.77
11
118.23
21
-78.77
0
LINE
8
Black
10
118.23
20
-78.77
11
118.23
21
-79.67
0
LINE
8
Black
10
113.92
20
-79.66
11
113.42
21
-79.66
0
LINE
8
Black
10
113.42
20
-79.66
11
113.42
21
-78.76
0
LINE
8
Black
10
113.42
20
-78.76
11
113.92
21
-78.76
0
LINE
8
Black
10
113.92
20
-78.76
11
113.92
21
-79.66
0
LINE
8
Black
10
112.42
20
-79.66
11
111.92
21
-79.66
0
LINE
8
Black
10
111.92
20
-79.66
11
111.92
21
-78.76
0
LINE
8
Black
10
111.92
20
-78.76
11
112.42
21
-78.76
0
LINE
8
Black
10
112.42
20
-78.76
11
112.42
21
-79.66
0
LINE
8
Black
10
159.305
20
-79.185
11
157.755
21
-79.185
0
LINE
8
Black
10
157.755
20
-79.185
11
157.755
21
-78.585
0
LINE
8
Black
10
157.755
20
-78.585
11
159.305
21
-78.585
0
LINE
8
Black
10
159.305
20
-78.585
11
159.305
21
-79.185
0
LINE
8
Black
10
153.905
20
-79.185
11
152.355
21
-79.185
0
LINE
8
Black
10
152.355
20
-79.185
11
152.355
21
-78.585
0
LINE
8
Black
10
152.355
20
-78.585
11
153.905
21
-78.585
0
LINE
8
Black
10
153.905
20
-78.585
11
153.905
21
-79.185
0
LINE
8
Black
10
106.08
20
-79.175
11
105.02
21
-79.175
0
LINE
8
Black
10
105.02
20
-79.175
11
105.02
21
-78.525
0
LINE
8
Black
10
105.02
20
-78.525
11
106.08
21
-78.525
0
LINE
8
Black
10
106.08
20
-78.525
11
106.08
21
-79.175
0
LINE
8
Black
10
108.28
20
-79.175
11
107.22
21
-79.175
0
LINE
8
Black
10
107.22
20
-79.175
11
107.22
21
-78.525
0
LINE
8
Black
10
107.22
20
-78.525
11
108.28
21
-78.525
0
LINE
8
Black
10
108.28
20
-78.525
11
108.28
21
-79.175
0
LINE
8
Black
10
143.52
20
-78.84
11
142.62
21
-78.84
0
LINE
8
Black
10
142.62
20
-78.84
11
142.62
21
-78.34
0
LINE
8
Black
10
142.62
20
-78.34
11
143.52
21
-78.34
0
LINE
8
Black
10
143.52
20
-78.34
11
143.52
21
-78.84
0
LINE
8
Black
10
149.47
20
-78.84
11
148.57
21
-78.84
0
LINE
8
Black
10
148.57
20
-78.84
11
148.57
21
-78.34
0
LINE
8
Black
10
148.57
20
-78.34
11
149.47
21
-78.34
0
LINE
8
Black
10
149.47
20
-78.34
11
149.47
21
-78.84
0
LINE
8
Black
10
146.66
20
-78.84
11
145.76
21
-78.84
0
LINE
8
Black
10
145.76
20
-78.84
11
145.76
21
-78.34
0
LINE
8
Black
10
145.76
20
-78.34
11
146.66
21
-78.34
0
LINE
8
Black
10
146.66
20
-78.34
11
146.66
21
-78.84
0
LINE
8
Black
10
121.71
20
-78.78
11
120.81
21
-78.78
0
LINE
8
Black
10
120.81
20
-78.78
11
120.81
21
-77.98
0
LINE
8
Black
10
120.81
20
-77.98
11
121.71
21
-77.98
0
LINE
8
Black
10
121.71
20
-77.98
11
121.71
21
-78.78
0
LINE
8
Black
10
176.55
20
-78.68
11
176.05
21
-78.68
0
LINE
8
Black
10
176.05
20
-78.68
11
176.05
21
-77.78
0
LINE
8
Black
10
176.05
20
-77.78
11
176.55
21
-77.78
0
LINE
8
Black
10
176.55
20
-77.78
11
176.55
21
-78.68
0
LINE
8
Black
10
175.05
20
-78.68
11
174.55
21
-78.68
0
LINE
8
Black
10
174.55
20
-78.68
11
174.55
21
-77.78
0
LINE
8
Black
10
174.55
20
-77.78
11
175.05
21
-77.78
0
LINE
8
Black
10
175.05
20
-77.78
11
175.05
21
-78.68
0
LINE
8
Black
10
119.71
20
-77.83
11
118.81
21
-77.83
0
LINE
8
Black
10
118.81
20
-77.83
11
118.81
21
-77.03
0
LINE
8
Black
10
118.81
20
-77.03
11
119.71
21
-77.03
0
LINE
8
Black
10
119.71
20
-77.03
11
119.71
21
-77.83
0
LINE
8
Black
10
167.1
20
-77.18
11
166.6
21
-77.18
0
LINE
8
Black
10
166.6
20
-77.18
11
166.6
21
-76.28
0
LINE
8
Black
10
166.6
20
-76.28
11
167.1
21
-76.28
0
LINE
8
Black
10
167.1
20
-76.28
11
167.1
21
-77.18
0
LINE
8
Black
10
165.6
20
-77.18
11
165.1
21
-77.18
0
LINE
8
Black
10
165.1
20
-77.18
11
165.1
21
-76.28
0
LINE
8
Black
10
165.1
20
-76.28
11
165.6
21
-76.28
0
LINE
8
Black
10
165.6
20
-76.28
11
165.6
21
-77.18
0
LINE
8
Black
10
162.21
20
-77.105
11
161.41
21
-77.105
0
LINE
8
Black
10
161.41
20
-77.105
11
161.41
21
-76.355
0
LINE
8
Black
10
161.41
20
-76.355
11
162.21
21
-76.355
0
LINE
8
Black
10
162.21
20
-76.355
11
162.21
21
-77.105
0
LINE
8
Black
10
163.71
20
-77.105
11
162.91
21
-77.105
0
LINE
8
Black
10
162.91
20
-77.105
11
162.91
21
-76.355
0
LINE
8
Black
10
162.91
20
-76.355
11
163.71
21
-76.355
0
LINE
8
Black
10
163.71
20
-76.355
11
163.71
21
-77.105
0
LINE
8
Black
10
160.23
20
-77.095
11
159.43
21
-77.095
0
LINE
8
Black
10
159.43
20
-77.095
11
159.43
21
-76.345
0
LINE
8
Black
10
159.43
20
-76.345
11
160.23
21
-76.345
0
LINE
8
Black
10
160.23
20
-76.345
11
160.23
21
-77.095
0
LINE
8
Black
10
158.73
20
-77.095
11
157.93
21
-77.095
0
LINE
8
Black
10
157.93
20
-77.095
11
157.93
21
-76.345
0
LINE
8
Black
10
157.93
20
-76.345
11
158.73
21
-76.345
0
LINE
8
Black
10
158.73
20
-76.345
11
158.73
21
-77.095
0
LINE
8
Black
10
111.2
20
-77
11
108.7
21
-77
0
LINE
8
Black
10
108.7
20
-77
11
108.7
21
-74.45
0
LINE
8
Black
10
108.7
20
-74.45
11
111.2
21
-74.45
0
LINE
8
Black
10
111.2
20
-74.45
11
111.2
21
-77
0
LINE
8
Black
10
116.6
20
-76.9
11
114.1
21
-76.9
0
LINE
8
Black
10
114.1
20
-76.9
11
114.1
21
-74.95
0
LINE
8
Black
10
114.1
20
-74.95
11
116.6
21
-74.95
0
LINE
8
Black
10
116.6
20
-74.95
11
116.6
21
-76.9
0
LINE
8
Black
10
121.71
20
-76.88
11
120.81
21
-76.88
0
LINE
8
Black
10
120.81
20
-76.88
11
120.81
21
-76.08
0
LINE
8
Black
10
120.81
20
-76.08
11
121.71
21
-76.08
0
LINE
8
Black
10
121.71
20
-76.08
11
121.71
21
-76.88
0
LINE
8
Black
10
135.665
20
-76.84
11
134.915
21
-76.84
0
LINE
8
Black
10
134.915
20
-76.84
11
134.915
21
-76.04
0
LINE
8
Black
10
134.915
20
-76.04
11
135.665
21
-76.04
0
LINE
8
Black
10
135.665
20
-76.04
11
135.665
21
-76.84
0
LINE
8
Black
10
131.975
20
-76.84
11
131.225
21
-76.84
0
LINE
8
Black
10
131.225
20
-76.84
11
131.225
21
-76.04
0
LINE
8
Black
10
131.225
20
-76.04
11
131.975
21
-76.04
0
LINE
8
Black
10
131.975
20
-76.04
11
131.975
21
-76.84
0
LINE
8
Black
10
143.48
20
-76.77
11
142.58
21
-76.77
0
LINE
8
Black
10
142.58
20
-76.77
11
142.58
21
-76.27
0
LINE
8
Black
10
142.58
20
-76.27
11
143.48
21
-76.27
0
LINE
8
Black
10
143.48
20
-76.27
11
143.48
21
-76.77
0
LINE
8
Black
10
146.66
20
-76.77
11
145.76
21
-76.77
0
LINE
8
Black
10
145.76
20
-76.77
11
145.76
21
-76.27
0
LINE
8
Black
10
145.76
20
-76.27
11
146.66
21
-76.27
0
LINE
8
Black
10
146.66
20
-76.27
11
146.66
21
-76.77
0
LINE
8
Black
10
149.5
20
-76.77
11
148.6
21
-76.77
0
LINE
8
Black
10
148.6
20
-76.77
11
148.6
21
-76.27
0
LINE
8
Black
10
148.6
20
-76.27
11
149.5
21
-76.27
0
LINE
8
Black
10
149.5
20
-76.27
11
149.5
21
-76.77
0
LINE
8
Black
10
140.21
20
-76.75
11
139.31
21
-76.75
0
LINE
8
Black
10
139.31
20
-76.75
11
139.31
21
-76.25
0
LINE
8
Black
10
139.31
20
-76.25
11
140.21
21
-76.25
0
LINE
8
Black
10
140.21
20
-76.25
11
140.21
21
-76.75
0
LINE
8
Black
10
96.5
20
-76.35
11
94.7
21
-76.35
0
LINE
8
Black
10
94.7
20
-76.35
11
94.7
21
-75.95
0
LINE
8
Black
10
94.7
20
-75.95
11
96.5
21
-75.95
0
LINE
8
Black
10
96.5
20
-75.95
11
96.5
21
-76.35
0
LINE
8
Black
10
175.25
20
-76.17
11
174.35
21
-76.17
0
LINE
8
Black
10
174.35
20
-76.17
11
174.35
21
-75.37
0
LINE
8
Black
10
174.35
20
-75.37
11
175.25
21
-75.37
0
LINE
8
Black
10
175.25
20
-75.37
11
175.25
21
-76.17
0
LINE
8
Black
10
96.5
20
-75.7
11
94.7
21
-75.7
0
LINE
8
Black
10
94.7
20
-75.7
11
94.7
21
-75.3
0
LINE
8
Black
10
94.7
20
-75.3
11
96.5
21
-75.3
0
LINE
8
Black
10
96.5
20
-75.3
11
96.5
21
-75.7
0
LINE
8
Black
10
135.665
20
-75.34
11
134.915
21
-75.34
0
LINE
8
Black
10
134.915
20
-75.34
11
134.915
21
-74.54
0
LINE
8
Black
10
134.915
20
-74.54
11
135.665
21
-74.54
0
LINE
8
Black
10
135.665
20
-74.54
11
135.665
21
-75.34
0
LINE
8
Black
10
131.975
20
-75.34
11
131.225
21
-75.34
0
LINE
8
Black
10
131.225
20
-75.34
11
131.225
21
-74.54
0
LINE
8
Black
10
131.225
20
-74.54
11
131.975
21
-74.54
0
LINE
8
Black
10
131.975
20
-74.54
11
131.975
21
-75.34
0
LINE
8
Black
10
146.66
20
-75.27
11
145.76
21
-75.27
0
LINE
8
Black
10
145.76
20
-75.27
11
145.76
21
-74.77
0
LINE
8
Black
10
145.76
20
-74.77
11
146.66
21
-74.77
0
LINE
8
Black
10
146.66
20
-74.77
11
146.66
21
-75.27
0
LINE
8
Black
10
143.48
20
-75.27
11
142.58
21
-75.27
0
LINE
8
Black
10
142.58
20
-75.27
11
142.58
21
-74.77
0
LINE
8
Black
10
142.58
20
-74.77
11
143.48
21
-74.77
0
LINE
8
Black
10
143.48
20
-74.77
11
143.48
21
-75.27
0
LINE
8
Black
10
149.5
20
-75.27
11
148.6
21
-75.27
0
LINE
8
Black
10
148.6
20
-75.27
11
148.6
21
-74.77
0
LINE
8
Black
10
148.6
20
-74.77
11
149.5
21
-74.77
0
LINE
8
Black
10
149.5
20
-74.77
11
149.5
21
-75.27
0
LINE
8
Black
10
140.21
20
-75.25
11
139.31
21
-75.25
0
LINE
8
Black
10
139.31
20
-75.25
11
139.31
21
-74.75
0
LINE
8
Black
10
139.31
20
-74.75
11
140.21
21
-74.75
0
LINE
8
Black
10
140.21
20
-74.75
11
140.21
21
-75.25
0
LINE
8
Black
10
177.25
20
-75.22
11
176.35
21
-75.22
0
LINE
8
Black
10
176.35
20
-75.22
11
176.35
21
-74.42
0
LINE
8
Black
10
176.35
20
-74.42
11
177.25
21
-74.42
0
LINE
8
Black
10
177.25
20
-74.42
11
177.25
21
-75.22
0
LINE
8
Black
10
101.68
20
-75.05
11
100.18
21
-75.05
0
LINE
8
Black
10
100.18
20
-75.05
11
100.18
21
-73.05
0
LINE
8
Black
10
100.18
20
-73.05
11
101.68
21
-73.05
0
LINE
8
Black
10
101.68
20
-73.05
11
101.68
21
-75.05
0
LINE
8
Black
10
106.28
20
-75.05
11
104.78
21
-75.05
0
LINE
8
Black
10
104.78
20
-75.05
11
104.78
21
-73.05
0
LINE
8
Black
10
104.78
20
-73.05
11
106.28
21
-73.05
0
LINE
8
Black
10
106.28
20
-73.05
11
106.28
21
-75.05
0
LINE
8
Black
10
103.98
20
-75.05
11
102.48
21
-75.05
0
LINE
8
Black
10
102.48
20
-75.05
11
102.48
21
-73.05
0
LINE
8
Black
10
102.48
20
-73.05
11
103.98
21
-73.05
0
LINE
8
Black
10
103.98
20
-73.05
11
103.98
21
-75.05
0
LINE
8
Black
10
96.5
20
-75.05
11
94.7
21
-75.05
0
LINE
8
Black
10
94.7
20
-75.05
11
94.7
21
-74.65
0
LINE
8
Black
10
94.7
20
-74.65
11
96.5
21
-74.65
0
LINE
8
Black
10
96.5
20
-74.65
11
96.5
21
-75.05
0
LINE
8
Black
10
163.34
20
-74.74
11
162.84
21
-74.74
0
LINE
8
Black
10
162.84
20
-74.74
11
162.84
21
-73.84
0
LINE
8
Black
10
162.84
20
-73.84
11
163.34
21
-73.84
0
LINE
8
Black
10
163.34
20
-73.84
11
163.34
21
-74.74
0
LINE
8
Black
10
161.84
20
-74.74
11
161.34
21
-74.74
0
LINE
8
Black
10
161.34
20
-74.74
11
161.34
21
-73.84
0
LINE
8
Black
10
161.34
20
-73.84
11
161.84
21
-73.84
0
LINE
8
Black
10
161.84
20
-73.84
11
161.84
21
-74.74
0
LINE
8
Black
10
160
20
-74.74
11
159.5
21
-74.74
0
LINE
8
Black
10
159.5
20
-74.74
11
159.5
21
-73.84
0
LINE
8
Black
10
159.5
20
-73.84
11
160
21
-73.84
0
LINE
8
Black
10
160
20
-73.84
11
160
21
-74.74
0
LINE
8
Black
10
158.5
20
-74.74
11
158
21
-74.74
0
LINE
8
Black
10
158
20
-74.74
11
158
21
-73.84
0
LINE
8
Black
10
158
20
-73.84
11
158.5
21
-73.84
0
LINE
8
Black
10
158.5
20
-73.84
11
158.5
21
-74.74
0
LINE
8
Black
10
96.5
20
-74.4
11
94.7
21
-74.4
0
LINE
8
Black
10
94.7
20
-74.4
11
94.7
21
-74
0
LINE
8
Black
10
94.7
20
-74
11
96.5
21
-74
0
LINE
8
Black
10
96.5
20
-74
11
96.5
21
-74.4
0
LINE
8
Black
10
175.25
20
-74.27
11
174.35
21
-74.27
0
LINE
8
Black
10
174.35
20
-74.27
11
174.35
21
-73.47
0
LINE
8
Black
10
174.35
20
-73.47
11
175.25
21
-73.47
0
LINE
8
Black
10
175.25
20
-73.47
11
175.25
21
-74.27
0
LINE
8
Black
10
166.8
20
-74.16
11
165.3
21
-74.16
0
LINE
8
Black
10
165.3
20
-74.16
11
165.3
21
-73.56
0
LINE
8
Black
10
165.3
20
-73.56
11
166.8
21
-73.56
0
LINE
8
Black
10
166.8
20
-73.56
11
166.8
21
-74.16
0
LINE
8
Black
10
172.2
20
-74.16
11
170.7
21
-74.16
0
LINE
8
Black
10
170.7
20
-74.16
11
170.7
21
-73.56
0
LINE
8
Black
10
170.7
20
-73.56
11
172.2
21
-73.56
0
LINE
8
Black
10
172.2
20
-73.56
11
172.2
21
-74.16
0
LINE
8
Black
10
126.075
20
-74.155
11
124.525
21
-74.155
0
LINE
8
Black
10
124.525
20
-74.155
11
124.525
21
-73.555
0
LINE
8
Black
10
124.525
20
-73.555
11
126.075
21
-73.555
0
LINE
8
Black
10
126.075
20
-73.555
11
126.075
21
-74.155
0
LINE
8
Black
10
120.675
20
-74.155
11
119.125
21
-74.155
0
LINE
8
Black
10
119.125
20
-74.155
11
119.125
21
-73.555
0
LINE
8
Black
10
119.125
20
-73.555
11
120.675
21
-73.555
0
LINE
8
Black
10
120.675
20
-73.555
11
120.675
21
-74.155
0
LINE
8
Black
10
116.6
20
-73.85
11
114.1
21
-73.85
0
LINE
8
Black
10
114.1
20
-73.85
11
114.1
21
-71.9
0
LINE
8
Black
10
114.1
20
-71.9
11
116.6
21
-71.9
0
LINE
8
Black
10
116.6
20
-71.9
11
116.6
21
-73.85
0
LINE
8
Black
10
96.5
20
-73.75
11
94.7
21
-73.75
0
LINE
8
Black
10
94.7
20
-73.75
11
94.7
21
-73.35
0
LINE
8
Black
10
94.7
20
-73.35
11
96.5
21
-73.35
0
LINE
8
Black
10
96.5
20
-73.35
11
96.5
21
-73.75
0
LINE
8
Black
10
166.8
20
-72.89
11
165.3
21
-72.89
0
LINE
8
Black
10
165.3
20
-72.89
11
165.3
21
-72.29
0
LINE
8
Black
10
165.3
20
-72.29
11
166.8
21
-72.29
0
LINE
8
Black
10
166.8
20
-72.29
11
166.8
21
-72.89
0
LINE
8
Black
10
172.2
20
-72.89
11
170.7
21
-72.89
0
LINE
8
Black
10
170.7
20
-72.89
11
170.7
21
-72.29
0
LINE
8
Black
10
170.7
20
-72.29
11
172.2
21
-72.29
0
LINE
8
Black
10
172.2
20
-72.29
11
172.2
21
-72.89
0
LINE
8
Black
10
120.675
20
-72.885
11
119.125
21
-72.885
0
LINE
8
Black
10
119.125
20
-72.885
11
119.125
21
-72.285
0
LINE
8
Black
10
119.125
20
-72.285
11
120.675
21
-72.285
0
LINE
8
Black
10
120.675
20
-72.285
11
120.675
21
-72.885
0
LINE
8
Black
10
126.075
20
-72.885
11
124.525
21
-72.885
0
LINE
8
Black
10
124.525
20
-72.885
11
124.525
21
-72.285
0
LINE
8
Black
10
124.525
20
-72.285
11
126.075
21
-72.285
0
LINE
8
Black
10
126.075
20
-72.285
11
126.075
21
-72.885
0
LINE
8
Black
10
135.6
20
-72.45
11
133.05
21
-72.45
0
LINE
8
Black
10
133.05
20
-72.45
11
133.05
21
-69.95
0
LINE
8
Black
10
133.05
20
-69.95
11
135.6
21
-69.95
0
LINE
8
Black
10
135.6
20
-69.95
11
135.6
21
-72.45
0
LINE
8
Black
10
130.55
20
-72.45
11
128
21
-72.45
0
LINE
8
Black
10
128
20
-72.45
11
128
21
-69.95
0
LINE
8
Black
10
128
20
-69.95
11
130.55
21
-69.95
0
LINE
8
Black
10
130.55
20
-69.95
11
130.55
21
-72.45
0
LINE
8
Black
10
111.2
20
-71.95
11
108.7
21
-71.95
0
LINE
8
Black
10
108.7
20
-71.95
11
108.7
21
-69.4
0
LINE
8
Black
10
108.7
20
-69.4
11
111.2
21
-69.4
0
LINE
8
Black
10
111.2
20
-69.4
11
111.2
21
-71.95
0
LINE
8
Black
10
143.23
20
-71.82
11
141.53
21
-71.82
0
LINE
8
Black
10
141.53
20
-71.82
11
141.53
21
-70.52
0
LINE
8
Black
10
141.53
20
-70.52
11
143.23
21
-70.52
0
LINE
8
Black
10
143.23
20
-70.52
11
143.23
21
-71.82
0
LINE
8
Black
10
176.7
20
-71.705
11
175.9
21
-71.705
0
LINE
8
Black
10
175.9
20
-71.705
11
175.9
21
-70.955
0
LINE
8
Black
10
175.9
20
-70.955
11
176.7
21
-70.955
0
LINE
8
Black
10
176.7
20
-70.955
11
176.7
21
-71.705
0
LINE
8
Black
10
175.2
20
-71.705
11
174.4
21
-71.705
0
LINE
8
Black
10
174.4
20
-71.705
11
174.4
21
-70.955
0
LINE
8
Black
10
174.4
20
-70.955
11
175.2
21
-70.955
0
LINE
8
Black
10
175.2
20
-70.955
11
175.2
21
-71.705
0
LINE
8
Black
10
149.5
20
-71.64
11
148.6
21
-71.64
0
LINE
8
Black
10
148.6
20
-71.64
11
148.6
21
-71.14
0
LINE
8
Black
10
148.6
20
-71.14
11
149.5
21
-71.14
0
LINE
8
Black
10
149.5
20
-71.14
11
149.5
21
-71.64
0
LINE
8
Black
10
172.2
20
-71.62
11
170.7
21
-71.62
0
LINE
8
Black
10
170.7
20
-71.62
11
170.7
21
-71.02
0
LINE
8
Black
10
170.7
20
-71.02
11
172.2
21
-71.02
0
LINE
8
Black
10
172.2
20
-71.02
11
172.2
21
-71.62
0
LINE
8
Black
10
166.8
20
-71.62
11
165.3
21
-71.62
0
LINE
8
Black
10
165.3
20
-71.62
11
165.3
21
-71.02
0
LINE
8
Black
10
165.3
20
-71.02
11
166.8
21
-71.02
0
LINE
8
Black
10
166.8
20
-71.02
11
166.8
21
-71.62
0
LINE
8
Black
10
126.075
20
-71.615
11
124.525
21
-71.615
0
LINE
8
Black
10
124.525
20
-71.615
11
124.525
21
-71.015
0
LINE
8
Black
10
124.525
20
-71.015
11
126.075
21
-71.015
0
LINE
8
Black
10
126.075
20
-71.015
11
126.075
21
-71.615
0
LINE
8
Black
10
120.675
20
-71.615
11
119.125
21
-71.615
0
LINE
8
Black
10
119.125
20
-71.615
11
119.125
21
-71.015
0
LINE
8
Black
10
119.125
20
-71.015
11
120.675
21
-71.015
0
LINE
8
Black
10
120.675
20
-71.015
11
120.675
21
-71.615
0
LINE
8
Black
10
159.25
20
-71.6
11
157.85
21
-71.6
0
LINE
8
Black
10
157.85
20
-71.6
11
157.85
21
-71.3
0
LINE
8
Black
10
157.85
20
-71.3
11
159.25
21
-71.3
0
LINE
8
Black
10
159.25
20
-71.3
11
159.25
21
-71.6
0
LINE
8
Black
10
154.85
20
-71.6
11
153.45
21
-71.6
0
LINE
8
Black
10
153.45
20
-71.6
11
153.45
21
-71.3
0
LINE
8
Black
10
153.45
20
-71.3
11
154.85
21
-71.3
0
LINE
8
Black
10
154.85
20
-71.3
11
154.85
21
-71.6
0
LINE
8
Black
10
159.25
20
-71.1
11
157.85
21
-71.1
0
LINE
8
Black
10
157.85
20
-71.1
11
157.85
21
-70.8
0
LINE
8
Black
10
157.85
20
-70.8
11
159.25
21
-70.8
0
LINE
8
Black
10
159.25
20
-70.8
11
159.25
21
-71.1
0
LINE
8
Black
10
154.85
20
-71.1
11
153.45
21
-71.1
0
LINE
8
Black
10
153.45
20
-71.1
11
153.45
21
-70.8
0
LINE
8
Black
10
153.45
20
-70.8
11
154.85
21
-70.8
0
LINE
8
Black
10
154.85
20
-70.8
11
154.85
21
-71.1
0
LINE
8
Black
10
154.85
20
-70.6
11
153.45
21
-70.6
0
LINE
8
Black
10
153.45
20
-70.6
11
153.45
21
-70.3
0
LINE
8
Black
10
153.45
20
-70.3
11
154.85
21
-70.3
0
LINE
8
Black
10
154.85
20
-70.3
11
154.85
21
-70.6
0
LINE
8
Black
10
159.25
20
-70.6
11
157.85
21
-70.6
0
LINE
8
Black
10
157.85
20
-70.6
11
157.85
21
-70.3
0
LINE
8
Black
10
157.85
20
-70.3
11
159.25
21
-70.3
0
LINE
8
Black
10
159.25
20
-70.3
11
159.25
21
-70.6
0
LINE
8
Black
10
172.2
20
-70.35
11
170.7
21
-70.35
0
LINE
8
Black
10
170.7
20
-70.35
11
170.7
21
-69.75
0
LINE
8
Black
10
170.7
20
-69.75
11
172.2
21
-69.75
0
LINE
8
Black
10
172.2
20
-69.75
11
172.2
21
-70.35
0
LINE
8
Black
10
166.8
20
-70.35
11
165.3
21
-70.35
0
LINE
8
Black
10
165.3
20
-70.35
11
165.3
21
-69.75
0
LINE
8
Black
10
165.3
20
-69.75
11
166.8
21
-69.75
0
LINE
8
Black
10
166.8
20
-69.75
11
166.8
21
-70.35
0
LINE
8
Black
10
126.075
20
-70.345
11
124.525
21
-70.345
0
LINE
8
Black
10
124.525
20
-70.345
11
124.525
21
-69.745
0
LINE
8
Black
10
124.525
20
-69.745
11
126.075
21
-69.745
0
LINE
8
Black
10
126.075
20
-69.745
11
126.075
21
-70.345
0
LINE
8
Black
10
120.675
20
-70.345
11
119.125
21
-70.345
0
LINE
8
Black
10
119.125
20
-70.345
11
119.125
21
-69.745
0
LINE
8
Black
10
119.125
20
-69.745
11
120.675
21
-69.745
0
LINE
8
Black
10
120.675
20
-69.745
11
120.675
21
-70.345
0
LINE
8
Black
10
149.5
20
-70.14
11
148.6
21
-70.14
0
LINE
8
Black
10
148.6
20
-70.14
11
148.6
21
-69.64
0
LINE
8
Black
10
148.6
20
-69.64
11
149.5
21
-69.64
0
LINE
8
Black
10
149.5
20
-69.64
11
149.5
21
-70.14
0
LINE
8
Black
10
154.85
20
-70.1
11
153.45
21
-70.1
0
LINE
8
Black
10
153.45
20
-70.1
11
153.45
21
-69.8
0
LINE
8
Black
10
153.45
20
-69.8
11
154.85
21
-69.8
0
LINE
8
Black
10
154.85
20
-69.8
11
154.85
21
-70.1
0
LINE
8
Black
10
159.25
20
-70.1
11
157.85
21
-70.1
0
LINE
8
Black
10
157.85
20
-70.1
11
157.85
21
-69.8
0
LINE
8
Black
10
157.85
20
-69.8
11
159.25
21
-69.8
0
LINE
8
Black
10
159.25
20
-69.8
11
159.25
21
-70.1
0
LINE
8
Black
10
154.85
20
-69.6
11
153.45
21
-69.6
0
LINE
8
Black
10
153.45
20
-69.6
11
153.45
21
-69.3
0
LINE
8
Black
10
153.45
20
-69.3
11
154.85
21
-69.3
0
LINE
8
Black
10
154.85
20
-69.3
11
154.85
21
-69.6
0
LINE
8
Black
10
159.25
20
-69.6
11
157.85
21
-69.6
0
LINE
8
Black
10
157.85
20
-69.6
11
157.85
21
-69.3
0
LINE
8
Black
10
157.85
20
-69.3
11
159.25
21
-69.3
0
LINE
8
Black
10
159.25
20
-69.3
11
159.25
21
-69.6
0
LINE
8
Black
10
176.54
20
-69.38
11
176.04
21
-69.38
0
LINE
8
Black
10
176.04
20
-69.38
11
176.04
21
-68.48
0
LINE
8
Black
10
176.04
20
-68.48
11
176.54
21
-68.48
0
LINE
8
Black
10
176.54
20
-68.48
11
176.54
21
-69.38
0
LINE
8
Black
10
175.04
20
-69.38
11
174.54
21
-69.38
0
LINE
8
Black
10
174.54
20
-69.38
11
174.54
21
-68.48
0
LINE
8
Black
10
174.54
20
-68.48
11
175.04
21
-68.48
0
LINE
8
Black
10
175.04
20
-68.48
11
175.04
21
-69.38
0
LINE
8
Black
10
97.315
20
-69.17
11
95.285
21
-69.17
0
LINE
8
Black
10
95.285
20
-69.17
11
95.285
21
-68.03
0
LINE
8
Black
10
95.285
20
-68.03
11
97.315
21
-68.03
0
LINE
8
Black
10
97.315
20
-68.03
11
97.315
21
-69.17
0
LINE
8
Black
10
172.2
20
-69.08
11
170.7
21
-69.08
0
LINE
8
Black
10
170.7
20
-69.08
11
170.7
21
-68.48
0
LINE
8
Black
10
170.7
20
-68.48
11
172.2
21
-68.48
0
LINE
8
Black
10
172.2
20
-68.48
11
172.2
21
-69.08
0
LINE
8
Black
10
166.8
20
-69.08
11
165.3
21
-69.08
0
LINE
8
Black
10
165.3
20
-69.08
11
165.3
21
-68.48
0
LINE
8
Black
10
165.3
20
-68.48
11
166.8
21
-68.48
0
LINE
8
Black
10
166.8
20
-68.48
11
166.8
21
-69.08
0
LINE
8
Black
10
94.28
20
-69.02
11
93.08
21
-69.02
0
LINE
8
Black
10
93.08
20
-69.02
11
93.08
21
-67.82
0
LINE
8
Black
10
93.08
20
-67.82
11
94.28
21
-67.82
0
LINE
8
Black
10
94.28
20
-67.82
11
94.28
21
-69.02
0
LINE
8
Black
10
105.13
20
-68.75
11
101.33
21
-68.75
0
LINE
8
Black
10
101.33
20
-68.75
11
101.33
21
-66.75
0
LINE
8
Black
10
101.33
20
-66.75
11
105.13
21
-66.75
0
LINE
8
Black
10
105.13
20
-66.75
11
105.13
21
-68.75
0
LINE
8
Black
10
143.23
20
-68.32
11
141.53
21
-68.32
0
LINE
8
Black
10
141.53
20
-68.32
11
141.53
21
-67.02
0
LINE
8
Black
10
141.53
20
-67.02
11
143.23
21
-67.02
0
LINE
8
Black
10
143.23
20
-67.02
11
143.23
21
-68.32
0
LINE
8
Black
10
136.68
20
-68.06
11
135.78
21
-68.06
0
LINE
8
Black
10
135.78
20
-68.06
11
135.78
21
-67.26
0
LINE
8
Black
10
135.78
20
-67.26
11
136.68
21
-67.26
0
LINE
8
Black
10
136.68
20
-67.26
11
136.68
21
-68.06
0
LINE
8
Black
10
172.2
20
-67.81
11
170.7
21
-67.81
0
LINE
8
Black
10
170.7
20
-67.81
11
170.7
21
-67.21
0
LINE
8
Black
10
170.7
20
-67.21
11
172.2
21
-67.21
0
LINE
8
Black
10
172.2
20
-67.21
11
172.2
21
-67.81
0
LINE
8
Black
10
166.8
20
-67.81
11
165.3
21
-67.81
0
LINE
8
Black
10
165.3
20
-67.81
11
165.3
21
-67.21
0
LINE
8
Black
10
165.3
20
-67.21
11
166.8
21
-67.21
0
LINE
8
Black
10
166.8
20
-67.21
11
166.8
21
-67.81
0
LINE
8
Black
10
128.58
20
-67.73
11
126.63
21
-67.73
0
LINE
8
Black
10
126.63
20
-67.73
11
126.63
21
-65.23
0
LINE
8
Black
10
126.63
20
-65.23
11
128.58
21
-65.23
0
LINE
8
Black
10
128.58
20
-65.23
11
128.58
21
-67.73
0
LINE
8
Black
10
125.53
20
-67.73
11
123.58
21
-67.73
0
LINE
8
Black
10
123.58
20
-67.73
11
123.58
21
-65.23
0
LINE
8
Black
10
123.58
20
-65.23
11
125.53
21
-65.23
0
LINE
8
Black
10
125.53
20
-65.23
11
125.53
21
-67.73
0
LINE
8
Black
10
113.74
20
-67.73
11
111.19
21
-67.73
0
LINE
8
Black
10
111.19
20
-67.73
11
111.19
21
-65.23
0
LINE
8
Black
10
111.19
20
-65.23
11
113.74
21
-65.23
0
LINE
8
Black
10
113.74
20
-65.23
11
113.74
21
-67.73
0
LINE
8
Black
10
118.79
20
-67.73
11
116.24
21
-67.73
0
LINE
8
Black
10
116.24
20
-67.73
11
116.24
21
-65.23
0
LINE
8
Black
10
116.24
20
-65.23
11
118.79
21
-65.23
0
LINE
8
Black
10
118.79
20
-65.23
11
118.79
21
-67.73
0
LINE
8
Black
10
132.57
20
-67.72
11
131.67
21
-67.72
0
LINE
8
Black
10
131.67
20
-67.72
11
131.67
21
-67.22
0
LINE
8
Black
10
131.67
20
-67.22
11
132.57
21
-67.22
0
LINE
8
Black
10
132.57
20
-67.22
11
132.57
21
-67.72
0
LINE
8
Black
10
161.9
20
-67.675
11
161.1
21
-67.675
0
LINE
8
Black
10
161.1
20
-67.675
11
161.1
21
-66.925
0
LINE
8
Black
10
161.1
20
-66.925
11
161.9
21
-66.925
0
LINE
8
Black
10
161.9
20
-66.925
11
161.9
21
-67.675
0
LINE
8
Black
10
163.4
20
-67.675
11
162.6
21
-67.675
0
LINE
8
Black
10
162.6
20
-67.675
11
162.6
21
-66.925
0
LINE
8
Black
10
162.6
20
-66.925
11
163.4
21
-66.925
0
LINE
8
Black
10
163.4
20
-66.925
11
163.4
21
-67.675
0
LINE
8
Black
10
158.37
20
-67.675
11
157.57
21
-67.675
0
LINE
8
Black
10
157.57
20
-67.675
11
157.57
21
-66.925
0
LINE
8
Black
10
157.57
20
-66.925
11
158.37
21
-66.925
0
LINE
8
Black
10
158.37
20
-66.925
11
158.37
21
-67.675
0
LINE
8
Black
10
156.87
20
-67.675
11
156.07
21
-67.675
0
LINE
8
Black
10
156.07
20
-67.675
11
156.07
21
-66.925
0
LINE
8
Black
10
156.07
20
-66.925
11
156.87
21
-66.925
0
LINE
8
Black
10
156.87
20
-66.925
11
156.87
21
-67.675
0
LINE
8
Black
10
134.68
20
-67.11
11
133.78
21
-67.11
0
LINE
8
Black
10
133.78
20
-67.11
11
133.78
21
-66.31
0
LINE
8
Black
10
133.78
20
-66.31
11
134.68
21
-66.31
0
LINE
8
Black
10
134.68
20
-66.31
11
134.68
21
-67.11
0
LINE
8
Black
10
120.7
20
-66.93
11
120.2
21
-66.93
0
LINE
8
Black
10
120.2
20
-66.93
11
120.2
21
-66.03
0
LINE
8
Black
10
120.2
20
-66.03
11
120.7
21
-66.03
0
LINE
8
Black
10
120.7
20
-66.03
11
120.7
21
-66.93
0
LINE
8
Black
10
122.2
20
-66.93
11
121.7
21
-66.93
0
LINE
8
Black
10
121.7
20
-66.93
11
121.7
21
-66.03
0
LINE
8
Black
10
121.7
20
-66.03
11
122.2
21
-66.03
0
LINE
8
Black
10
122.2
20
-66.03
11
122.2
21
-66.93
0
LINE
8
Black
10
94.28
20
-66.82
11
93.08
21
-66.82
0
LINE
8
Black
10
93.08
20
-66.82
11
93.08
21
-65.62
0
LINE
8
Black
10
93.08
20
-65.62
11
94.28
21
-65.62
0
LINE
8
Black
10
94.28
20
-65.62
11
94.28
21
-66.82
0
LINE
8
Black
10
97.315
20
-66.77
11
95.285
21
-66.77
0
LINE
8
Black
10
95.285
20
-66.77
11
95.285
21
-65.63
0
LINE
8
Black
10
95.285
20
-65.63
11
97.315
21
-65.63
0
LINE
8
Black
10
97.315
20
-65.63
11
97.315
21
-66.77
0
LINE
8
Black
10
175.1
20
-66.68
11
174.6
21
-66.68
0
LINE
8
Black
10
174.6
20
-66.68
11
174.6
21
-65.78
0
LINE
8
Black
10
174.6
20
-65.78
11
175.1
21
-65.78
0
LINE
8
Black
10
175.1
20
-65.78
11
175.1
21
-66.68
0
LINE
8
Black
10
176.6
20
-66.68
11
176.1
21
-66.68
0
LINE
8
Black
10
176.1
20
-66.68
11
176.1
21
-65.78
0
LINE
8
Black
10
176.1
20
-65.78
11
176.6
21
-65.78
0
LINE
8
Black
10
176.6
20
-65.78
11
176.6
21
-66.68
0
LINE
8
Black
10
166.8
20
-66.54
11
165.3
21
-66.54
0
LINE
8
Black
10
165.3
20
-66.54
11
165.3
21
-65.94
0
LINE
8
Black
10
165.3
20
-65.94
11
166.8
21
-65.94
0
LINE
8
Black
10
166.8
20
-65.94
11
166.8
21
-66.54
0
LINE
8
Black
10
172.2
20
-66.54
11
170.7
21
-66.54
0
LINE
8
Black
10
170.7
20
-66.54
11
170.7
21
-65.94
0
LINE
8
Black
10
170.7
20
-65.94
11
172.2
21
-65.94
0
LINE
8
Black
10
172.2
20
-65.94
11
172.2
21
-66.54
0
LINE
8
Black
10
132.57
20
-66.22
11
131.67
21
-66.22
0
LINE
8
Black
10
131.67
20
-66.22
11
131.67
21
-65.72
0
LINE
8
Black
10
131.67
20
-65.72
11
132.57
21
-65.72
0
LINE
8
Black
10
132.57
20
-65.72
11
132.57
21
-66.22
0
LINE
8
Black
10
136.68
20
-66.16
11
135.78
21
-66.16
0
LINE
8
Black
10
135.78
20
-66.16
11
135.78
21
-65.36
0
LINE
8
Black
10
135.78
20
-65.36
11
136.68
21
-65.36
0
LINE
8
Black
10
136.68
20
-65.36
11
136.68
21
-66.16
0
LINE
8
Black
10
161.73
20
-65.59
11
161.23
21
-65.59
0
LINE
8
Black
10
161.23
20
-65.59
11
161.23
21
-64.69
0
LINE
8
Black
10
161.23
20
-64.69
11
161.73
21
-64.69
0
LINE
8
Black
10
161.73
20
-64.69
11
161.73
21
-65.59
0
LINE
8
Black
10
163.23
20
-65.59
11
162.73
21
-65.59
0
LINE
8
Black
10
162.73
20
-65.59
11
162.73
21
-64.69
0
LINE
8
Black
10
162.73
20
-64.69
11
163.23
21
-64.69
0
LINE
8
Black
10
163.23
20
-64.69
11
163.23
21
-65.59
0
LINE
8
Black
10
156.72
20
-65.59
11
156.22
21
-65.59
0
LINE
8
Black
10
156.22
20
-65.59
11
156.22
21
-64.69
0
LINE
8
Black
10
156.22
20
-64.69
11
156.72
21
-64.69
0
LINE
8
Black
10
156.72
20
-64.69
11
156.72
21
-65.59
0
LINE
8
Black
10
158.22
20
-65.59
11
157.72
21
-65.59
0
LINE
8
Black
10
157.72
20
-65.59
11
157.72
21
-64.69
0
LINE
8
Black
10
157.72
20
-64.69
11
158.22
21
-64.69
0
LINE
8
Black
10
158.22
20
-64.69
11
158.22
21
-65.59
0
LINE
8
Black
10
99.035
20
-64.53
11
98.285
21
-64.53
0
LINE
8
Black
10
98.285
20
-64.53
11
98.285
21
-63.73
0
LINE
8
Black
10
98.285
20
-63.73
11
99.035
21
-63.73
0
LINE
8
Black
10
99.035
20
-63.73
11
99.035
21
-64.53
0
LINE
8
Black
10
96.675
20
-64.53
11
95.925
21
-64.53
0
LINE
8
Black
10
95.925
20
-64.53
11
95.925
21
-63.73
0
LINE
8
Black
10
95.925
20
-63.73
11
96.675
21
-63.73
0
LINE
8
Black
10
96.675
20
-63.73
11
96.675
21
-64.53
0
LINE
8
Black
10
94.13
20
-64.37
11
93.23
21
-64.37
0
LINE
8
Black
10
93.23
20
-64.37
11
93.23
21
-63.87
0
LINE
8
Black
10
93.23
20
-63.87
11
94.13
21
-63.87
0
LINE
8
Black
10
94.13
20
-63.87
11
94.13
21
-64.37
0
LINE
8
Black
10
99.035
20
-63.03
11
98.285
21
-63.03
0
LINE
8
Black
10
98.285
20
-63.03
11
98.285
21
-62.23
0
LINE
8
Black
10
98.285
20
-62.23
11
99.035
21
-62.23
0
LINE
8
Black
10
99.035
20
-62.23
11
99.035
21
-63.03
0
LINE
8
Black
10
96.675
20
-63.03
11
95.925
21
-63.03
0
LINE
8
Black
10
95.925
20
-63.03
11
95.925
21
-62.23
0
LINE
8
Black
10
95.925
20
-62.23
11
96.675
21
-62.23
0
LINE
8
Black
10
96.675
20
-62.23
11
96.675
21
-63.03
0
LINE
8
Black
10
94.13
20
-62.87
11
93.23
21
-62.87
0
LINE
8
Black
10
93.23
20
-62.87
11
93.23
21
-62.37
0
LINE
8
Black
10
93.23
20
-62.37
11
94.13
21
-62.37
0
LINE
8
Black
10
94.13
20
-62.37
11
94.13
21
-62.87
  0
ENDSEC
  0
EOF
