  0
SECTION
  2
HEADER
  9
$ANGBASE
  50
0.0
  9
$ANGDIR
  70
  1
  9
$MEASUREMENT
  70
0
  0
ENDSEC
  0
SECTION
  2
TABLES
  0
TABLE
  2
LTYPE
  70
1
  0
LTYPE
  2
CONTINUOUS
  70
0
  3
Solid line
  72
65
  73
0
  40
0.0
  0
ENDTAB
  0
TABLE
  2
STYLE
  70
4
  0
STYLE
  2
KICAD
  70
0
  40
0
  41
1
  42
1
  50
0
  71
0
  3
isocp.shx
  0
STYLE
  2
KICADB
  70
0
  40
0
  41
1
  42
1
  50
0
  71
0
  3
isocp.shx
  0
STYLE
  2
KICADI
  70
0
  40
0
  41
1
  42
1
  50
15
  71
0
  3
isocp.shx
  0
STYLE
  2
KICADBI
  70
0
  40
0
  41
1
  42
1
  50
15
  71
0
  3
isocp.shx
  0
ENDTAB
  0
TABLE
  2
LAYER
  70
30
  0
LAYER
  2
BLACK
  70
0
  62
7
  6
CONTINUOUS
  0
LAYER
  2
GRAY1
  70
0
  62
251
  6
CONTINUOUS
  0
LAYER
  2
GRAY2
  70
0
  62
8
  6
CONTINUOUS
  0
LAYER
  2
GRAY3
  70
0
  62
9
  6
CONTINUOUS
  0
LAYER
  2
WHITE
  70
0
  62
7
  6
CONTINUOUS
  0
LAYER
  2
LYELLOW
  70
0
  62
51
  6
CONTINUOUS
  0
LAYER
  2
BLUE1
  70
0
  62
178
  6
CONTINUOUS
  0
LAYER
  2
GREEN1
  70
0
  62
98
  6
CONTINUOUS
  0
LAYER
  2
CYAN1
  70
0
  62
138
  6
CONTINUOUS
  0
LAYER
  2
RED1
  70
0
  62
18
  6
CONTINUOUS
  0
LAYER
  2
MAGENTA1
  70
0
  62
228
  6
CONTINUOUS
  0
LAYER
  2
BROWN1
  70
0
  62
58
  6
CONTINUOUS
  0
LAYER
  2
BLUE2
  70
0
  62
5
  6
CONTINUOUS
  0
LAYER
  2
GREEN2
  70
0
  62
3
  6
CONTINUOUS
  0
LAYER
  2
CYAN2
  70
0
  62
4
  6
CONTINUOUS
  0
LAYER
  2
RED2
  70
0
  62
1
  6
CONTINUOUS
  0
LAYER
  2
MAGENTA2
  70
0
  62
6
  6
CONTINUOUS
  0
LAYER
  2
BROWN2
  70
0
  62
54
  6
CONTINUOUS
  0
LAYER
  2
BLUE3
  70
0
  62
171
  6
CONTINUOUS
  0
LAYER
  2
GREEN3
  70
0
  62
91
  6
CONTINUOUS
  0
LAYER
  2
CYAN3
  70
0
  62
131
  6
CONTINUOUS
  0
LAYER
  2
RED3
  70
0
  62
11
  6
CONTINUOUS
  0
LAYER
  2
MAGENTA3
  70
0
  62
221
  6
CONTINUOUS
  0
LAYER
  2
YELLOW3
  70
0
  62
2
  6
CONTINUOUS
  0
LAYER
  2
BLUE4
  70
0
  62
5
  6
CONTINUOUS
  0
LAYER
  2
GREEN4
  70
0
  62
3
  6
CONTINUOUS
  0
LAYER
  2
CYAN4
  70
0
  62
4
  6
CONTINUOUS
  0
LAYER
  2
RED4
  70
0
  62
1
  6
CONTINUOUS
  0
LAYER
  2
MAGENTA4
  70
0
  62
6
  6
CONTINUOUS
  0
LAYER
  2
YELLOW4
  70
0
  62
2
  6
CONTINUOUS
  0
ENDTAB
  0
ENDSEC
  0
SECTION
  2
ENTITIES
0
LINE
8
Black
10
105.841
20
-108.379
11
106.687
21
-108.867
0
LINE
8
Black
10
106.687
20
-108.867
11
107.314
21
-109.615
0
LINE
8
Black
10
107.314
20
-109.615
11
107.648
21
-110.532
0
LINE
8
Black
10
107.648
20
-110.532
11
107.648
21
-111.508
0
LINE
8
Black
10
107.648
20
-111.508
11
107.314
21
-112.425
0
LINE
8
Black
10
107.314
20
-112.425
11
106.687
21
-113.173
0
LINE
8
Black
10
106.687
20
-113.173
11
105.841
21
-113.661
0
LINE
8
Black
10
105.841
20
-113.661
11
104.88
21
-113.831
0
LINE
8
Black
10
104.88
20
-113.831
11
103.919
21
-113.661
0
LINE
8
Black
10
103.919
20
-113.661
11
103.073
21
-113.173
0
LINE
8
Black
10
103.073
20
-113.173
11
102.446
21
-112.425
0
LINE
8
Black
10
102.446
20
-112.425
11
102.112
21
-111.508
0
LINE
8
Black
10
102.112
20
-111.508
11
102.112
21
-110.532
0
LINE
8
Black
10
102.112
20
-110.532
11
102.446
21
-109.615
0
LINE
8
Black
10
102.446
20
-109.615
11
103.073
21
-108.867
0
LINE
8
Black
10
103.073
20
-108.867
11
103.919
21
-108.379
0
LINE
8
Black
10
103.919
20
-108.379
11
104.88
21
-108.209
0
LINE
8
Black
10
104.88
20
-108.209
11
105.841
21
-108.379
0
LINE
8
Black
10
188.381
20
-108.369
11
189.227
21
-108.857
0
LINE
8
Black
10
189.227
20
-108.857
11
189.854
21
-109.605
0
LINE
8
Black
10
189.854
20
-109.605
11
190.188
21
-110.522
0
LINE
8
Black
10
190.188
20
-110.522
11
190.188
21
-111.498
0
LINE
8
Black
10
190.188
20
-111.498
11
189.854
21
-112.415
0
LINE
8
Black
10
189.854
20
-112.415
11
189.227
21
-113.163
0
LINE
8
Black
10
189.227
20
-113.163
11
188.381
21
-113.651
0
LINE
8
Black
10
188.381
20
-113.651
11
187.42
21
-113.821
0
LINE
8
Black
10
187.42
20
-113.821
11
186.459
21
-113.651
0
LINE
8
Black
10
186.459
20
-113.651
11
185.613
21
-113.163
0
LINE
8
Black
10
185.613
20
-113.163
11
184.986
21
-112.415
0
LINE
8
Black
10
184.986
20
-112.415
11
184.652
21
-111.498
0
LINE
8
Black
10
184.652
20
-111.498
11
184.652
21
-110.522
0
LINE
8
Black
10
184.652
20
-110.522
11
184.986
21
-109.605
0
LINE
8
Black
10
184.986
20
-109.605
11
185.613
21
-108.857
0
LINE
8
Black
10
185.613
20
-108.857
11
186.459
21
-108.369
0
LINE
8
Black
10
186.459
20
-108.369
11
187.42
21
-108.199
0
LINE
8
Black
10
187.42
20
-108.199
11
188.381
21
-108.369
0
LINE
8
Black
10
119.73
20
-111.94
11
118.03
21
-111.94
0
LINE
8
Black
10
118.03
20
-111.94
11
118.03
21
-110.24
0
LINE
8
Black
10
118.03
20
-110.24
11
119.73
21
-110.24
0
LINE
8
Black
10
119.73
20
-110.24
11
119.73
21
-111.94
0
LINE
8
Black
10
121.845
20
-110.351
11
122.071
21
-110.54
0
LINE
8
Black
10
122.071
20
-110.54
11
122.219
21
-110.796
0
LINE
8
Black
10
122.219
20
-110.796
11
122.27
21
-111.087
0
LINE
8
Black
10
122.27
20
-111.087
11
122.27
21
-111.093
0
LINE
8
Black
10
122.27
20
-111.093
11
122.219
21
-111.384
0
LINE
8
Black
10
122.219
20
-111.384
11
122.071
21
-111.64
0
LINE
8
Black
10
122.071
20
-111.64
11
121.845
21
-111.829
0
LINE
8
Black
10
121.845
20
-111.829
11
121.568
21
-111.93
0
LINE
8
Black
10
121.568
20
-111.93
11
121.272
21
-111.93
0
LINE
8
Black
10
121.272
20
-111.93
11
120.995
21
-111.829
0
LINE
8
Black
10
120.995
20
-111.829
11
120.769
21
-111.64
0
LINE
8
Black
10
120.769
20
-111.64
11
120.621
21
-111.384
0
LINE
8
Black
10
120.621
20
-111.384
11
120.57
21
-111.093
0
LINE
8
Black
10
120.57
20
-111.093
11
120.57
21
-111.087
0
LINE
8
Black
10
120.57
20
-111.087
11
120.621
21
-110.796
0
LINE
8
Black
10
120.621
20
-110.796
11
120.769
21
-110.54
0
LINE
8
Black
10
120.769
20
-110.54
11
120.995
21
-110.351
0
LINE
8
Black
10
120.995
20
-110.351
11
121.272
21
-110.25
0
LINE
8
Black
10
121.272
20
-110.25
11
121.568
21
-110.25
0
LINE
8
Black
10
121.568
20
-110.25
11
121.845
21
-110.351
0
LINE
8
Black
10
124.385
20
-110.351
11
124.611
21
-110.54
0
LINE
8
Black
10
124.611
20
-110.54
11
124.759
21
-110.796
0
LINE
8
Black
10
124.759
20
-110.796
11
124.81
21
-111.087
0
LINE
8
Black
10
124.81
20
-111.087
11
124.81
21
-111.093
0
LINE
8
Black
10
124.81
20
-111.093
11
124.759
21
-111.384
0
LINE
8
Black
10
124.759
20
-111.384
11
124.611
21
-111.64
0
LINE
8
Black
10
124.611
20
-111.64
11
124.385
21
-111.829
0
LINE
8
Black
10
124.385
20
-111.829
11
124.108
21
-111.93
0
LINE
8
Black
10
124.108
20
-111.93
11
123.812
21
-111.93
0
LINE
8
Black
10
123.812
20
-111.93
11
123.535
21
-111.829
0
LINE
8
Black
10
123.535
20
-111.829
11
123.309
21
-111.64
0
LINE
8
Black
10
123.309
20
-111.64
11
123.161
21
-111.384
0
LINE
8
Black
10
123.161
20
-111.384
11
123.11
21
-111.093
0
LINE
8
Black
10
123.11
20
-111.093
11
123.11
21
-111.087
0
LINE
8
Black
10
123.11
20
-111.087
11
123.161
21
-110.796
0
LINE
8
Black
10
123.161
20
-110.796
11
123.309
21
-110.54
0
LINE
8
Black
10
123.309
20
-110.54
11
123.535
21
-110.351
0
LINE
8
Black
10
123.535
20
-110.351
11
123.812
21
-110.25
0
LINE
8
Black
10
123.812
20
-110.25
11
124.108
21
-110.25
0
LINE
8
Black
10
124.108
20
-110.25
11
124.385
21
-110.351
0
LINE
8
Black
10
126.925
20
-110.351
11
127.151
21
-110.54
0
LINE
8
Black
10
127.151
20
-110.54
11
127.299
21
-110.796
0
LINE
8
Black
10
127.299
20
-110.796
11
127.35
21
-111.087
0
LINE
8
Black
10
127.35
20
-111.087
11
127.35
21
-111.093
0
LINE
8
Black
10
127.35
20
-111.093
11
127.299
21
-111.384
0
LINE
8
Black
10
127.299
20
-111.384
11
127.151
21
-111.64
0
LINE
8
Black
10
127.151
20
-111.64
11
126.925
21
-111.829
0
LINE
8
Black
10
126.925
20
-111.829
11
126.648
21
-111.93
0
LINE
8
Black
10
126.648
20
-111.93
11
126.352
21
-111.93
0
LINE
8
Black
10
126.352
20
-111.93
11
126.075
21
-111.829
0
LINE
8
Black
10
126.075
20
-111.829
11
125.849
21
-111.64
0
LINE
8
Black
10
125.849
20
-111.64
11
125.701
21
-111.384
0
LINE
8
Black
10
125.701
20
-111.384
11
125.65
21
-111.093
0
LINE
8
Black
10
125.65
20
-111.093
11
125.65
21
-111.087
0
LINE
8
Black
10
125.65
20
-111.087
11
125.701
21
-110.796
0
LINE
8
Black
10
125.701
20
-110.796
11
125.849
21
-110.54
0
LINE
8
Black
10
125.849
20
-110.54
11
126.075
21
-110.351
0
LINE
8
Black
10
126.075
20
-110.351
11
126.352
21
-110.25
0
LINE
8
Black
10
126.352
20
-110.25
11
126.648
21
-110.25
0
LINE
8
Black
10
126.648
20
-110.25
11
126.925
21
-110.351
0
LINE
8
Black
10
129.465
20
-110.351
11
129.691
21
-110.54
0
LINE
8
Black
10
129.691
20
-110.54
11
129.839
21
-110.796
0
LINE
8
Black
10
129.839
20
-110.796
11
129.89
21
-111.087
0
LINE
8
Black
10
129.89
20
-111.087
11
129.89
21
-111.093
0
LINE
8
Black
10
129.89
20
-111.093
11
129.839
21
-111.384
0
LINE
8
Black
10
129.839
20
-111.384
11
129.691
21
-111.64
0
LINE
8
Black
10
129.691
20
-111.64
11
129.465
21
-111.829
0
LINE
8
Black
10
129.465
20
-111.829
11
129.188
21
-111.93
0
LINE
8
Black
10
129.188
20
-111.93
11
128.892
21
-111.93
0
LINE
8
Black
10
128.892
20
-111.93
11
128.615
21
-111.829
0
LINE
8
Black
10
128.615
20
-111.829
11
128.389
21
-111.64
0
LINE
8
Black
10
128.389
20
-111.64
11
128.241
21
-111.384
0
LINE
8
Black
10
128.241
20
-111.384
11
128.19
21
-111.093
0
LINE
8
Black
10
128.19
20
-111.093
11
128.19
21
-111.087
0
LINE
8
Black
10
128.19
20
-111.087
11
128.241
21
-110.796
0
LINE
8
Black
10
128.241
20
-110.796
11
128.389
21
-110.54
0
LINE
8
Black
10
128.389
20
-110.54
11
128.615
21
-110.351
0
LINE
8
Black
10
128.615
20
-110.351
11
128.892
21
-110.25
0
LINE
8
Black
10
128.892
20
-110.25
11
129.188
21
-110.25
0
LINE
8
Black
10
129.188
20
-110.25
11
129.465
21
-110.351
0
LINE
8
Black
10
132.005
20
-110.351
11
132.231
21
-110.54
0
LINE
8
Black
10
132.231
20
-110.54
11
132.379
21
-110.796
0
LINE
8
Black
10
132.379
20
-110.796
11
132.43
21
-111.087
0
LINE
8
Black
10
132.43
20
-111.087
11
132.43
21
-111.093
0
LINE
8
Black
10
132.43
20
-111.093
11
132.379
21
-111.384
0
LINE
8
Black
10
132.379
20
-111.384
11
132.231
21
-111.64
0
LINE
8
Black
10
132.231
20
-111.64
11
132.005
21
-111.829
0
LINE
8
Black
10
132.005
20
-111.829
11
131.728
21
-111.93
0
LINE
8
Black
10
131.728
20
-111.93
11
131.432
21
-111.93
0
LINE
8
Black
10
131.432
20
-111.93
11
131.155
21
-111.829
0
LINE
8
Black
10
131.155
20
-111.829
11
130.929
21
-111.64
0
LINE
8
Black
10
130.929
20
-111.64
11
130.781
21
-111.384
0
LINE
8
Black
10
130.781
20
-111.384
11
130.73
21
-111.093
0
LINE
8
Black
10
130.73
20
-111.093
11
130.73
21
-111.087
0
LINE
8
Black
10
130.73
20
-111.087
11
130.781
21
-110.796
0
LINE
8
Black
10
130.781
20
-110.796
11
130.929
21
-110.54
0
LINE
8
Black
10
130.929
20
-110.54
11
131.155
21
-110.351
0
LINE
8
Black
10
131.155
20
-110.351
11
131.432
21
-110.25
0
LINE
8
Black
10
131.432
20
-110.25
11
131.728
21
-110.25
0
LINE
8
Black
10
131.728
20
-110.25
11
132.005
21
-110.351
0
LINE
8
Black
10
134.545
20
-110.351
11
134.771
21
-110.54
0
LINE
8
Black
10
134.771
20
-110.54
11
134.919
21
-110.796
0
LINE
8
Black
10
134.919
20
-110.796
11
134.97
21
-111.087
0
LINE
8
Black
10
134.97
20
-111.087
11
134.97
21
-111.093
0
LINE
8
Black
10
134.97
20
-111.093
11
134.919
21
-111.384
0
LINE
8
Black
10
134.919
20
-111.384
11
134.771
21
-111.64
0
LINE
8
Black
10
134.771
20
-111.64
11
134.545
21
-111.829
0
LINE
8
Black
10
134.545
20
-111.829
11
134.268
21
-111.93
0
LINE
8
Black
10
134.268
20
-111.93
11
133.972
21
-111.93
0
LINE
8
Black
10
133.972
20
-111.93
11
133.695
21
-111.829
0
LINE
8
Black
10
133.695
20
-111.829
11
133.469
21
-111.64
0
LINE
8
Black
10
133.469
20
-111.64
11
133.321
21
-111.384
0
LINE
8
Black
10
133.321
20
-111.384
11
133.27
21
-111.093
0
LINE
8
Black
10
133.27
20
-111.093
11
133.27
21
-111.087
0
LINE
8
Black
10
133.27
20
-111.087
11
133.321
21
-110.796
0
LINE
8
Black
10
133.321
20
-110.796
11
133.469
21
-110.54
0
LINE
8
Black
10
133.469
20
-110.54
11
133.695
21
-110.351
0
LINE
8
Black
10
133.695
20
-110.351
11
133.972
21
-110.25
0
LINE
8
Black
10
133.972
20
-110.25
11
134.268
21
-110.25
0
LINE
8
Black
10
134.268
20
-110.25
11
134.545
21
-110.351
0
LINE
8
Black
10
180.69
20
-111.89
11
178.99
21
-111.89
0
LINE
8
Black
10
178.99
20
-111.89
11
178.99
21
-110.19
0
LINE
8
Black
10
178.99
20
-110.19
11
180.69
21
-110.19
0
LINE
8
Black
10
180.69
20
-110.19
11
180.69
21
-111.89
0
LINE
8
Black
10
140.05
20
-111.89
11
138.35
21
-111.89
0
LINE
8
Black
10
138.35
20
-111.89
11
138.35
21
-110.19
0
LINE
8
Black
10
138.35
20
-110.19
11
140.05
21
-110.19
0
LINE
8
Black
10
140.05
20
-110.19
11
140.05
21
-111.89
0
LINE
8
Black
10
142.165
20
-110.301
11
142.391
21
-110.49
0
LINE
8
Black
10
142.391
20
-110.49
11
142.539
21
-110.746
0
LINE
8
Black
10
142.539
20
-110.746
11
142.59
21
-111.037
0
LINE
8
Black
10
142.59
20
-111.037
11
142.59
21
-111.043
0
LINE
8
Black
10
142.59
20
-111.043
11
142.539
21
-111.334
0
LINE
8
Black
10
142.539
20
-111.334
11
142.391
21
-111.59
0
LINE
8
Black
10
142.391
20
-111.59
11
142.165
21
-111.779
0
LINE
8
Black
10
142.165
20
-111.779
11
141.888
21
-111.88
0
LINE
8
Black
10
141.888
20
-111.88
11
141.592
21
-111.88
0
LINE
8
Black
10
141.592
20
-111.88
11
141.315
21
-111.779
0
LINE
8
Black
10
141.315
20
-111.779
11
141.089
21
-111.59
0
LINE
8
Black
10
141.089
20
-111.59
11
140.941
21
-111.334
0
LINE
8
Black
10
140.941
20
-111.334
11
140.89
21
-111.043
0
LINE
8
Black
10
140.89
20
-111.043
11
140.89
21
-111.037
0
LINE
8
Black
10
140.89
20
-111.037
11
140.941
21
-110.746
0
LINE
8
Black
10
140.941
20
-110.746
11
141.089
21
-110.49
0
LINE
8
Black
10
141.089
20
-110.49
11
141.315
21
-110.301
0
LINE
8
Black
10
141.315
20
-110.301
11
141.592
21
-110.2
0
LINE
8
Black
10
141.592
20
-110.2
11
141.888
21
-110.2
0
LINE
8
Black
10
141.888
20
-110.2
11
142.165
21
-110.301
0
LINE
8
Black
10
177.725
20
-110.301
11
177.951
21
-110.49
0
LINE
8
Black
10
177.951
20
-110.49
11
178.099
21
-110.746
0
LINE
8
Black
10
178.099
20
-110.746
11
178.15
21
-111.037
0
LINE
8
Black
10
178.15
20
-111.037
11
178.15
21
-111.043
0
LINE
8
Black
10
178.15
20
-111.043
11
178.099
21
-111.334
0
LINE
8
Black
10
178.099
20
-111.334
11
177.951
21
-111.59
0
LINE
8
Black
10
177.951
20
-111.59
11
177.725
21
-111.779
0
LINE
8
Black
10
177.725
20
-111.779
11
177.448
21
-111.88
0
LINE
8
Black
10
177.448
20
-111.88
11
177.152
21
-111.88
0
LINE
8
Black
10
177.152
20
-111.88
11
176.875
21
-111.779
0
LINE
8
Black
10
176.875
20
-111.779
11
176.649
21
-111.59
0
LINE
8
Black
10
176.649
20
-111.59
11
176.501
21
-111.334
0
LINE
8
Black
10
176.501
20
-111.334
11
176.45
21
-111.043
0
LINE
8
Black
10
176.45
20
-111.043
11
176.45
21
-111.037
0
LINE
8
Black
10
176.45
20
-111.037
11
176.501
21
-110.746
0
LINE
8
Black
10
176.501
20
-110.746
11
176.649
21
-110.49
0
LINE
8
Black
10
176.649
20
-110.49
11
176.875
21
-110.301
0
LINE
8
Black
10
176.875
20
-110.301
11
177.152
21
-110.2
0
LINE
8
Black
10
177.152
20
-110.2
11
177.448
21
-110.2
0
LINE
8
Black
10
177.448
20
-110.2
11
177.725
21
-110.301
0
LINE
8
Black
10
175.185
20
-110.301
11
175.411
21
-110.49
0
LINE
8
Black
10
175.411
20
-110.49
11
175.559
21
-110.746
0
LINE
8
Black
10
175.559
20
-110.746
11
175.61
21
-111.037
0
LINE
8
Black
10
175.61
20
-111.037
11
175.61
21
-111.043
0
LINE
8
Black
10
175.61
20
-111.043
11
175.559
21
-111.334
0
LINE
8
Black
10
175.559
20
-111.334
11
175.411
21
-111.59
0
LINE
8
Black
10
175.411
20
-111.59
11
175.185
21
-111.779
0
LINE
8
Black
10
175.185
20
-111.779
11
174.908
21
-111.88
0
LINE
8
Black
10
174.908
20
-111.88
11
174.612
21
-111.88
0
LINE
8
Black
10
174.612
20
-111.88
11
174.335
21
-111.779
0
LINE
8
Black
10
174.335
20
-111.779
11
174.109
21
-111.59
0
LINE
8
Black
10
174.109
20
-111.59
11
173.961
21
-111.334
0
LINE
8
Black
10
173.961
20
-111.334
11
173.91
21
-111.043
0
LINE
8
Black
10
173.91
20
-111.043
11
173.91
21
-111.037
0
LINE
8
Black
10
173.91
20
-111.037
11
173.961
21
-110.746
0
LINE
8
Black
10
173.961
20
-110.746
11
174.109
21
-110.49
0
LINE
8
Black
10
174.109
20
-110.49
11
174.335
21
-110.301
0
LINE
8
Black
10
174.335
20
-110.301
11
174.612
21
-110.2
0
LINE
8
Black
10
174.612
20
-110.2
11
174.908
21
-110.2
0
LINE
8
Black
10
174.908
20
-110.2
11
175.185
21
-110.301
0
LINE
8
Black
10
172.645
20
-110.301
11
172.871
21
-110.49
0
LINE
8
Black
10
172.871
20
-110.49
11
173.019
21
-110.746
0
LINE
8
Black
10
173.019
20
-110.746
11
173.07
21
-111.037
0
LINE
8
Black
10
173.07
20
-111.037
11
173.07
21
-111.043
0
LINE
8
Black
10
173.07
20
-111.043
11
173.019
21
-111.334
0
LINE
8
Black
10
173.019
20
-111.334
11
172.871
21
-111.59
0
LINE
8
Black
10
172.871
20
-111.59
11
172.645
21
-111.779
0
LINE
8
Black
10
172.645
20
-111.779
11
172.368
21
-111.88
0
LINE
8
Black
10
172.368
20
-111.88
11
172.072
21
-111.88
0
LINE
8
Black
10
172.072
20
-111.88
11
171.795
21
-111.779
0
LINE
8
Black
10
171.795
20
-111.779
11
171.569
21
-111.59
0
LINE
8
Black
10
171.569
20
-111.59
11
171.421
21
-111.334
0
LINE
8
Black
10
171.421
20
-111.334
11
171.37
21
-111.043
0
LINE
8
Black
10
171.37
20
-111.043
11
171.37
21
-111.037
0
LINE
8
Black
10
171.37
20
-111.037
11
171.421
21
-110.746
0
LINE
8
Black
10
171.421
20
-110.746
11
171.569
21
-110.49
0
LINE
8
Black
10
171.569
20
-110.49
11
171.795
21
-110.301
0
LINE
8
Black
10
171.795
20
-110.301
11
172.072
21
-110.2
0
LINE
8
Black
10
172.072
20
-110.2
11
172.368
21
-110.2
0
LINE
8
Black
10
172.368
20
-110.2
11
172.645
21
-110.301
0
LINE
8
Black
10
144.705
20
-110.301
11
144.931
21
-110.49
0
LINE
8
Black
10
144.931
20
-110.49
11
145.079
21
-110.746
0
LINE
8
Black
10
145.079
20
-110.746
11
145.13
21
-111.037
0
LINE
8
Black
10
145.13
20
-111.037
11
145.13
21
-111.043
0
LINE
8
Black
10
145.13
20
-111.043
11
145.079
21
-111.334
0
LINE
8
Black
10
145.079
20
-111.334
11
144.931
21
-111.59
0
LINE
8
Black
10
144.931
20
-111.59
11
144.705
21
-111.779
0
LINE
8
Black
10
144.705
20
-111.779
11
144.428
21
-111.88
0
LINE
8
Black
10
144.428
20
-111.88
11
144.132
21
-111.88
0
LINE
8
Black
10
144.132
20
-111.88
11
143.855
21
-111.779
0
LINE
8
Black
10
143.855
20
-111.779
11
143.629
21
-111.59
0
LINE
8
Black
10
143.629
20
-111.59
11
143.481
21
-111.334
0
LINE
8
Black
10
143.481
20
-111.334
11
143.43
21
-111.043
0
LINE
8
Black
10
143.43
20
-111.043
11
143.43
21
-111.037
0
LINE
8
Black
10
143.43
20
-111.037
11
143.481
21
-110.746
0
LINE
8
Black
10
143.481
20
-110.746
11
143.629
21
-110.49
0
LINE
8
Black
10
143.629
20
-110.49
11
143.855
21
-110.301
0
LINE
8
Black
10
143.855
20
-110.301
11
144.132
21
-110.2
0
LINE
8
Black
10
144.132
20
-110.2
11
144.428
21
-110.2
0
LINE
8
Black
10
144.428
20
-110.2
11
144.705
21
-110.301
0
LINE
8
Black
10
147.245
20
-110.301
11
147.471
21
-110.49
0
LINE
8
Black
10
147.471
20
-110.49
11
147.619
21
-110.746
0
LINE
8
Black
10
147.619
20
-110.746
11
147.67
21
-111.037
0
LINE
8
Black
10
147.67
20
-111.037
11
147.67
21
-111.043
0
LINE
8
Black
10
147.67
20
-111.043
11
147.619
21
-111.334
0
LINE
8
Black
10
147.619
20
-111.334
11
147.471
21
-111.59
0
LINE
8
Black
10
147.471
20
-111.59
11
147.245
21
-111.779
0
LINE
8
Black
10
147.245
20
-111.779
11
146.968
21
-111.88
0
LINE
8
Black
10
146.968
20
-111.88
11
146.672
21
-111.88
0
LINE
8
Black
10
146.672
20
-111.88
11
146.395
21
-111.779
0
LINE
8
Black
10
146.395
20
-111.779
11
146.169
21
-111.59
0
LINE
8
Black
10
146.169
20
-111.59
11
146.021
21
-111.334
0
LINE
8
Black
10
146.021
20
-111.334
11
145.97
21
-111.043
0
LINE
8
Black
10
145.97
20
-111.043
11
145.97
21
-111.037
0
LINE
8
Black
10
145.97
20
-111.037
11
146.021
21
-110.746
0
LINE
8
Black
10
146.021
20
-110.746
11
146.169
21
-110.49
0
LINE
8
Black
10
146.169
20
-110.49
11
146.395
21
-110.301
0
LINE
8
Black
10
146.395
20
-110.301
11
146.672
21
-110.2
0
LINE
8
Black
10
146.672
20
-110.2
11
146.968
21
-110.2
0
LINE
8
Black
10
146.968
20
-110.2
11
147.245
21
-110.301
0
LINE
8
Black
10
149.785
20
-110.301
11
150.011
21
-110.49
0
LINE
8
Black
10
150.011
20
-110.49
11
150.159
21
-110.746
0
LINE
8
Black
10
150.159
20
-110.746
11
150.21
21
-111.037
0
LINE
8
Black
10
150.21
20
-111.037
11
150.21
21
-111.043
0
LINE
8
Black
10
150.21
20
-111.043
11
150.159
21
-111.334
0
LINE
8
Black
10
150.159
20
-111.334
11
150.011
21
-111.59
0
LINE
8
Black
10
150.011
20
-111.59
11
149.785
21
-111.779
0
LINE
8
Black
10
149.785
20
-111.779
11
149.508
21
-111.88
0
LINE
8
Black
10
149.508
20
-111.88
11
149.212
21
-111.88
0
LINE
8
Black
10
149.212
20
-111.88
11
148.935
21
-111.779
0
LINE
8
Black
10
148.935
20
-111.779
11
148.709
21
-111.59
0
LINE
8
Black
10
148.709
20
-111.59
11
148.561
21
-111.334
0
LINE
8
Black
10
148.561
20
-111.334
11
148.51
21
-111.043
0
LINE
8
Black
10
148.51
20
-111.043
11
148.51
21
-111.037
0
LINE
8
Black
10
148.51
20
-111.037
11
148.561
21
-110.746
0
LINE
8
Black
10
148.561
20
-110.746
11
148.709
21
-110.49
0
LINE
8
Black
10
148.709
20
-110.49
11
148.935
21
-110.301
0
LINE
8
Black
10
148.935
20
-110.301
11
149.212
21
-110.2
0
LINE
8
Black
10
149.212
20
-110.2
11
149.508
21
-110.2
0
LINE
8
Black
10
149.508
20
-110.2
11
149.785
21
-110.301
0
LINE
8
Black
10
152.325
20
-110.301
11
152.551
21
-110.49
0
LINE
8
Black
10
152.551
20
-110.49
11
152.699
21
-110.746
0
LINE
8
Black
10
152.699
20
-110.746
11
152.75
21
-111.037
0
LINE
8
Black
10
152.75
20
-111.037
11
152.75
21
-111.043
0
LINE
8
Black
10
152.75
20
-111.043
11
152.699
21
-111.334
0
LINE
8
Black
10
152.699
20
-111.334
11
152.551
21
-111.59
0
LINE
8
Black
10
152.551
20
-111.59
11
152.325
21
-111.779
0
LINE
8
Black
10
152.325
20
-111.779
11
152.048
21
-111.88
0
LINE
8
Black
10
152.048
20
-111.88
11
151.752
21
-111.88
0
LINE
8
Black
10
151.752
20
-111.88
11
151.475
21
-111.779
0
LINE
8
Black
10
151.475
20
-111.779
11
151.249
21
-111.59
0
LINE
8
Black
10
151.249
20
-111.59
11
151.101
21
-111.334
0
LINE
8
Black
10
151.101
20
-111.334
11
151.05
21
-111.043
0
LINE
8
Black
10
151.05
20
-111.043
11
151.05
21
-111.037
0
LINE
8
Black
10
151.05
20
-111.037
11
151.101
21
-110.746
0
LINE
8
Black
10
151.101
20
-110.746
11
151.249
21
-110.49
0
LINE
8
Black
10
151.249
20
-110.49
11
151.475
21
-110.301
0
LINE
8
Black
10
151.475
20
-110.301
11
151.752
21
-110.2
0
LINE
8
Black
10
151.752
20
-110.2
11
152.048
21
-110.2
0
LINE
8
Black
10
152.048
20
-110.2
11
152.325
21
-110.301
0
LINE
8
Black
10
154.865
20
-110.301
11
155.091
21
-110.49
0
LINE
8
Black
10
155.091
20
-110.49
11
155.239
21
-110.746
0
LINE
8
Black
10
155.239
20
-110.746
11
155.29
21
-111.037
0
LINE
8
Black
10
155.29
20
-111.037
11
155.29
21
-111.043
0
LINE
8
Black
10
155.29
20
-111.043
11
155.239
21
-111.334
0
LINE
8
Black
10
155.239
20
-111.334
11
155.091
21
-111.59
0
LINE
8
Black
10
155.091
20
-111.59
11
154.865
21
-111.779
0
LINE
8
Black
10
154.865
20
-111.779
11
154.588
21
-111.88
0
LINE
8
Black
10
154.588
20
-111.88
11
154.292
21
-111.88
0
LINE
8
Black
10
154.292
20
-111.88
11
154.015
21
-111.779
0
LINE
8
Black
10
154.015
20
-111.779
11
153.789
21
-111.59
0
LINE
8
Black
10
153.789
20
-111.59
11
153.641
21
-111.334
0
LINE
8
Black
10
153.641
20
-111.334
11
153.59
21
-111.043
0
LINE
8
Black
10
153.59
20
-111.043
11
153.59
21
-111.037
0
LINE
8
Black
10
153.59
20
-111.037
11
153.641
21
-110.746
0
LINE
8
Black
10
153.641
20
-110.746
11
153.789
21
-110.49
0
LINE
8
Black
10
153.789
20
-110.49
11
154.015
21
-110.301
0
LINE
8
Black
10
154.015
20
-110.301
11
154.292
21
-110.2
0
LINE
8
Black
10
154.292
20
-110.2
11
154.588
21
-110.2
0
LINE
8
Black
10
154.588
20
-110.2
11
154.865
21
-110.301
0
LINE
8
Black
10
157.405
20
-110.301
11
157.631
21
-110.49
0
LINE
8
Black
10
157.631
20
-110.49
11
157.779
21
-110.746
0
LINE
8
Black
10
157.779
20
-110.746
11
157.83
21
-111.037
0
LINE
8
Black
10
157.83
20
-111.037
11
157.83
21
-111.043
0
LINE
8
Black
10
157.83
20
-111.043
11
157.779
21
-111.334
0
LINE
8
Black
10
157.779
20
-111.334
11
157.631
21
-111.59
0
LINE
8
Black
10
157.631
20
-111.59
11
157.405
21
-111.779
0
LINE
8
Black
10
157.405
20
-111.779
11
157.128
21
-111.88
0
LINE
8
Black
10
157.128
20
-111.88
11
156.832
21
-111.88
0
LINE
8
Black
10
156.832
20
-111.88
11
156.555
21
-111.779
0
LINE
8
Black
10
156.555
20
-111.779
11
156.329
21
-111.59
0
LINE
8
Black
10
156.329
20
-111.59
11
156.181
21
-111.334
0
LINE
8
Black
10
156.181
20
-111.334
11
156.13
21
-111.043
0
LINE
8
Black
10
156.13
20
-111.043
11
156.13
21
-111.037
0
LINE
8
Black
10
156.13
20
-111.037
11
156.181
21
-110.746
0
LINE
8
Black
10
156.181
20
-110.746
11
156.329
21
-110.49
0
LINE
8
Black
10
156.329
20
-110.49
11
156.555
21
-110.301
0
LINE
8
Black
10
156.555
20
-110.301
11
156.832
21
-110.2
0
LINE
8
Black
10
156.832
20
-110.2
11
157.128
21
-110.2
0
LINE
8
Black
10
157.128
20
-110.2
11
157.405
21
-110.301
0
LINE
8
Black
10
159.945
20
-110.301
11
160.171
21
-110.49
0
LINE
8
Black
10
160.171
20
-110.49
11
160.319
21
-110.746
0
LINE
8
Black
10
160.319
20
-110.746
11
160.37
21
-111.037
0
LINE
8
Black
10
160.37
20
-111.037
11
160.37
21
-111.043
0
LINE
8
Black
10
160.37
20
-111.043
11
160.319
21
-111.334
0
LINE
8
Black
10
160.319
20
-111.334
11
160.171
21
-111.59
0
LINE
8
Black
10
160.171
20
-111.59
11
159.945
21
-111.779
0
LINE
8
Black
10
159.945
20
-111.779
11
159.668
21
-111.88
0
LINE
8
Black
10
159.668
20
-111.88
11
159.372
21
-111.88
0
LINE
8
Black
10
159.372
20
-111.88
11
159.095
21
-111.779
0
LINE
8
Black
10
159.095
20
-111.779
11
158.869
21
-111.59
0
LINE
8
Black
10
158.869
20
-111.59
11
158.721
21
-111.334
0
LINE
8
Black
10
158.721
20
-111.334
11
158.67
21
-111.043
0
LINE
8
Black
10
158.67
20
-111.043
11
158.67
21
-111.037
0
LINE
8
Black
10
158.67
20
-111.037
11
158.721
21
-110.746
0
LINE
8
Black
10
158.721
20
-110.746
11
158.869
21
-110.49
0
LINE
8
Black
10
158.869
20
-110.49
11
159.095
21
-110.301
0
LINE
8
Black
10
159.095
20
-110.301
11
159.372
21
-110.2
0
LINE
8
Black
10
159.372
20
-110.2
11
159.668
21
-110.2
0
LINE
8
Black
10
159.668
20
-110.2
11
159.945
21
-110.301
0
LINE
8
Black
10
162.485
20
-110.301
11
162.711
21
-110.49
0
LINE
8
Black
10
162.711
20
-110.49
11
162.859
21
-110.746
0
LINE
8
Black
10
162.859
20
-110.746
11
162.91
21
-111.037
0
LINE
8
Black
10
162.91
20
-111.037
11
162.91
21
-111.043
0
LINE
8
Black
10
162.91
20
-111.043
11
162.859
21
-111.334
0
LINE
8
Black
10
162.859
20
-111.334
11
162.711
21
-111.59
0
LINE
8
Black
10
162.711
20
-111.59
11
162.485
21
-111.779
0
LINE
8
Black
10
162.485
20
-111.779
11
162.208
21
-111.88
0
LINE
8
Black
10
162.208
20
-111.88
11
161.912
21
-111.88
0
LINE
8
Black
10
161.912
20
-111.88
11
161.635
21
-111.779
0
LINE
8
Black
10
161.635
20
-111.779
11
161.409
21
-111.59
0
LINE
8
Black
10
161.409
20
-111.59
11
161.261
21
-111.334
0
LINE
8
Black
10
161.261
20
-111.334
11
161.21
21
-111.043
0
LINE
8
Black
10
161.21
20
-111.043
11
161.21
21
-111.037
0
LINE
8
Black
10
161.21
20
-111.037
11
161.261
21
-110.746
0
LINE
8
Black
10
161.261
20
-110.746
11
161.409
21
-110.49
0
LINE
8
Black
10
161.409
20
-110.49
11
161.635
21
-110.301
0
LINE
8
Black
10
161.635
20
-110.301
11
161.912
21
-110.2
0
LINE
8
Black
10
161.912
20
-110.2
11
162.208
21
-110.2
0
LINE
8
Black
10
162.208
20
-110.2
11
162.485
21
-110.301
0
LINE
8
Black
10
165.025
20
-110.301
11
165.251
21
-110.49
0
LINE
8
Black
10
165.251
20
-110.49
11
165.399
21
-110.746
0
LINE
8
Black
10
165.399
20
-110.746
11
165.45
21
-111.037
0
LINE
8
Black
10
165.45
20
-111.037
11
165.45
21
-111.043
0
LINE
8
Black
10
165.45
20
-111.043
11
165.399
21
-111.334
0
LINE
8
Black
10
165.399
20
-111.334
11
165.251
21
-111.59
0
LINE
8
Black
10
165.251
20
-111.59
11
165.025
21
-111.779
0
LINE
8
Black
10
165.025
20
-111.779
11
164.748
21
-111.88
0
LINE
8
Black
10
164.748
20
-111.88
11
164.452
21
-111.88
0
LINE
8
Black
10
164.452
20
-111.88
11
164.175
21
-111.779
0
LINE
8
Black
10
164.175
20
-111.779
11
163.949
21
-111.59
0
LINE
8
Black
10
163.949
20
-111.59
11
163.801
21
-111.334
0
LINE
8
Black
10
163.801
20
-111.334
11
163.75
21
-111.043
0
LINE
8
Black
10
163.75
20
-111.043
11
163.75
21
-111.037
0
LINE
8
Black
10
163.75
20
-111.037
11
163.801
21
-110.746
0
LINE
8
Black
10
163.801
20
-110.746
11
163.949
21
-110.49
0
LINE
8
Black
10
163.949
20
-110.49
11
164.175
21
-110.301
0
LINE
8
Black
10
164.175
20
-110.301
11
164.452
21
-110.2
0
LINE
8
Black
10
164.452
20
-110.2
11
164.748
21
-110.2
0
LINE
8
Black
10
164.748
20
-110.2
11
165.025
21
-110.301
0
LINE
8
Black
10
167.565
20
-110.301
11
167.791
21
-110.49
0
LINE
8
Black
10
167.791
20
-110.49
11
167.939
21
-110.746
0
LINE
8
Black
10
167.939
20
-110.746
11
167.99
21
-111.037
0
LINE
8
Black
10
167.99
20
-111.037
11
167.99
21
-111.043
0
LINE
8
Black
10
167.99
20
-111.043
11
167.939
21
-111.334
0
LINE
8
Black
10
167.939
20
-111.334
11
167.791
21
-111.59
0
LINE
8
Black
10
167.791
20
-111.59
11
167.565
21
-111.779
0
LINE
8
Black
10
167.565
20
-111.779
11
167.288
21
-111.88
0
LINE
8
Black
10
167.288
20
-111.88
11
166.992
21
-111.88
0
LINE
8
Black
10
166.992
20
-111.88
11
166.715
21
-111.779
0
LINE
8
Black
10
166.715
20
-111.779
11
166.489
21
-111.59
0
LINE
8
Black
10
166.489
20
-111.59
11
166.341
21
-111.334
0
LINE
8
Black
10
166.341
20
-111.334
11
166.29
21
-111.043
0
LINE
8
Black
10
166.29
20
-111.043
11
166.29
21
-111.037
0
LINE
8
Black
10
166.29
20
-111.037
11
166.341
21
-110.746
0
LINE
8
Black
10
166.341
20
-110.746
11
166.489
21
-110.49
0
LINE
8
Black
10
166.489
20
-110.49
11
166.715
21
-110.301
0
LINE
8
Black
10
166.715
20
-110.301
11
166.992
21
-110.2
0
LINE
8
Black
10
166.992
20
-110.2
11
167.288
21
-110.2
0
LINE
8
Black
10
167.288
20
-110.2
11
167.565
21
-110.301
0
LINE
8
Black
10
187.724
20
-102.631
11
187.98
21
-102.779
0
LINE
8
Black
10
187.98
20
-102.779
11
188.169
21
-103.005
0
LINE
8
Black
10
188.169
20
-103.005
11
188.27
21
-103.282
0
LINE
8
Black
10
188.27
20
-103.282
11
188.27
21
-103.578
0
LINE
8
Black
10
188.27
20
-103.578
11
188.169
21
-103.855
0
LINE
8
Black
10
188.169
20
-103.855
11
187.98
21
-104.081
0
LINE
8
Black
10
187.98
20
-104.081
11
187.724
21
-104.229
0
LINE
8
Black
10
187.724
20
-104.229
11
187.433
21
-104.28
0
LINE
8
Black
10
187.433
20
-104.28
11
187.427
21
-104.28
0
LINE
8
Black
10
187.427
20
-104.28
11
187.136
21
-104.229
0
LINE
8
Black
10
187.136
20
-104.229
11
186.88
21
-104.081
0
LINE
8
Black
10
186.88
20
-104.081
11
186.691
21
-103.855
0
LINE
8
Black
10
186.691
20
-103.855
11
186.59
21
-103.578
0
LINE
8
Black
10
186.59
20
-103.578
11
186.59
21
-103.282
0
LINE
8
Black
10
186.59
20
-103.282
11
186.691
21
-103.005
0
LINE
8
Black
10
186.691
20
-103.005
11
186.88
21
-102.779
0
LINE
8
Black
10
186.88
20
-102.779
11
187.136
21
-102.631
0
LINE
8
Black
10
187.136
20
-102.631
11
187.427
21
-102.58
0
LINE
8
Black
10
187.427
20
-102.58
11
187.433
21
-102.58
0
LINE
8
Black
10
187.433
20
-102.58
11
187.724
21
-102.631
0
LINE
8
Black
10
185.184
20
-102.631
11
185.44
21
-102.779
0
LINE
8
Black
10
185.44
20
-102.779
11
185.629
21
-103.005
0
LINE
8
Black
10
185.629
20
-103.005
11
185.73
21
-103.282
0
LINE
8
Black
10
185.73
20
-103.282
11
185.73
21
-103.578
0
LINE
8
Black
10
185.73
20
-103.578
11
185.629
21
-103.855
0
LINE
8
Black
10
185.629
20
-103.855
11
185.44
21
-104.081
0
LINE
8
Black
10
185.44
20
-104.081
11
185.184
21
-104.229
0
LINE
8
Black
10
185.184
20
-104.229
11
184.893
21
-104.28
0
LINE
8
Black
10
184.893
20
-104.28
11
184.887
21
-104.28
0
LINE
8
Black
10
184.887
20
-104.28
11
184.596
21
-104.229
0
LINE
8
Black
10
184.596
20
-104.229
11
184.34
21
-104.081
0
LINE
8
Black
10
184.34
20
-104.081
11
184.151
21
-103.855
0
LINE
8
Black
10
184.151
20
-103.855
11
184.05
21
-103.578
0
LINE
8
Black
10
184.05
20
-103.578
11
184.05
21
-103.282
0
LINE
8
Black
10
184.05
20
-103.282
11
184.151
21
-103.005
0
LINE
8
Black
10
184.151
20
-103.005
11
184.34
21
-102.779
0
LINE
8
Black
10
184.34
20
-102.779
11
184.596
21
-102.631
0
LINE
8
Black
10
184.596
20
-102.631
11
184.887
21
-102.58
0
LINE
8
Black
10
184.887
20
-102.58
11
184.893
21
-102.58
0
LINE
8
Black
10
184.893
20
-102.58
11
185.184
21
-102.631
0
LINE
8
Black
10
187.724
20
-100.091
11
187.98
21
-100.239
0
LINE
8
Black
10
187.98
20
-100.239
11
188.169
21
-100.465
0
LINE
8
Black
10
188.169
20
-100.465
11
188.27
21
-100.742
0
LINE
8
Black
10
188.27
20
-100.742
11
188.27
21
-101.038
0
LINE
8
Black
10
188.27
20
-101.038
11
188.169
21
-101.315
0
LINE
8
Black
10
188.169
20
-101.315
11
187.98
21
-101.541
0
LINE
8
Black
10
187.98
20
-101.541
11
187.724
21
-101.689
0
LINE
8
Black
10
187.724
20
-101.689
11
187.433
21
-101.74
0
LINE
8
Black
10
187.433
20
-101.74
11
187.427
21
-101.74
0
LINE
8
Black
10
187.427
20
-101.74
11
187.136
21
-101.689
0
LINE
8
Black
10
187.136
20
-101.689
11
186.88
21
-101.541
0
LINE
8
Black
10
186.88
20
-101.541
11
186.691
21
-101.315
0
LINE
8
Black
10
186.691
20
-101.315
11
186.59
21
-101.038
0
LINE
8
Black
10
186.59
20
-101.038
11
186.59
21
-100.742
0
LINE
8
Black
10
186.59
20
-100.742
11
186.691
21
-100.465
0
LINE
8
Black
10
186.691
20
-100.465
11
186.88
21
-100.239
0
LINE
8
Black
10
186.88
20
-100.239
11
187.136
21
-100.091
0
LINE
8
Black
10
187.136
20
-100.091
11
187.427
21
-100.04
0
LINE
8
Black
10
187.427
20
-100.04
11
187.433
21
-100.04
0
LINE
8
Black
10
187.433
20
-100.04
11
187.724
21
-100.091
0
LINE
8
Black
10
185.184
20
-100.091
11
185.44
21
-100.239
0
LINE
8
Black
10
185.44
20
-100.239
11
185.629
21
-100.465
0
LINE
8
Black
10
185.629
20
-100.465
11
185.73
21
-100.742
0
LINE
8
Black
10
185.73
20
-100.742
11
185.73
21
-101.038
0
LINE
8
Black
10
185.73
20
-101.038
11
185.629
21
-101.315
0
LINE
8
Black
10
185.629
20
-101.315
11
185.44
21
-101.541
0
LINE
8
Black
10
185.44
20
-101.541
11
185.184
21
-101.689
0
LINE
8
Black
10
185.184
20
-101.689
11
184.893
21
-101.74
0
LINE
8
Black
10
184.893
20
-101.74
11
184.887
21
-101.74
0
LINE
8
Black
10
184.887
20
-101.74
11
184.596
21
-101.689
0
LINE
8
Black
10
184.596
20
-101.689
11
184.34
21
-101.541
0
LINE
8
Black
10
184.34
20
-101.541
11
184.151
21
-101.315
0
LINE
8
Black
10
184.151
20
-101.315
11
184.05
21
-101.038
0
LINE
8
Black
10
184.05
20
-101.038
11
184.05
21
-100.742
0
LINE
8
Black
10
184.05
20
-100.742
11
184.151
21
-100.465
0
LINE
8
Black
10
184.151
20
-100.465
11
184.34
21
-100.239
0
LINE
8
Black
10
184.34
20
-100.239
11
184.596
21
-100.091
0
LINE
8
Black
10
184.596
20
-100.091
11
184.887
21
-100.04
0
LINE
8
Black
10
184.887
20
-100.04
11
184.893
21
-100.04
0
LINE
8
Black
10
184.893
20
-100.04
11
185.184
21
-100.091
0
LINE
8
Black
10
187.724
20
-97.5513
11
187.98
21
-97.6989
0
LINE
8
Black
10
187.98
20
-97.6989
11
188.169
21
-97.925
0
LINE
8
Black
10
188.169
20
-97.925
11
188.27
21
-98.2024
0
LINE
8
Black
10
188.27
20
-98.2024
11
188.27
21
-98.4976
0
LINE
8
Black
10
188.27
20
-98.4976
11
188.169
21
-98.775
0
LINE
8
Black
10
188.169
20
-98.775
11
187.98
21
-99.0011
0
LINE
8
Black
10
187.98
20
-99.0011
11
187.724
21
-99.1487
0
LINE
8
Black
10
187.724
20
-99.1487
11
187.433
21
-99.2
0
LINE
8
Black
10
187.433
20
-99.2
11
187.427
21
-99.2
0
LINE
8
Black
10
187.427
20
-99.2
11
187.136
21
-99.1487
0
LINE
8
Black
10
187.136
20
-99.1487
11
186.88
21
-99.0011
0
LINE
8
Black
10
186.88
20
-99.0011
11
186.691
21
-98.775
0
LINE
8
Black
10
186.691
20
-98.775
11
186.59
21
-98.4976
0
LINE
8
Black
10
186.59
20
-98.4976
11
186.59
21
-98.2024
0
LINE
8
Black
10
186.59
20
-98.2024
11
186.691
21
-97.925
0
LINE
8
Black
10
186.691
20
-97.925
11
186.88
21
-97.6989
0
LINE
8
Black
10
186.88
20
-97.6989
11
187.136
21
-97.5513
0
LINE
8
Black
10
187.136
20
-97.5513
11
187.427
21
-97.5
0
LINE
8
Black
10
187.427
20
-97.5
11
187.433
21
-97.5
0
LINE
8
Black
10
187.433
20
-97.5
11
187.724
21
-97.5513
0
LINE
8
Black
10
185.184
20
-97.5513
11
185.44
21
-97.6989
0
LINE
8
Black
10
185.44
20
-97.6989
11
185.629
21
-97.925
0
LINE
8
Black
10
185.629
20
-97.925
11
185.73
21
-98.2024
0
LINE
8
Black
10
185.73
20
-98.2024
11
185.73
21
-98.4976
0
LINE
8
Black
10
185.73
20
-98.4976
11
185.629
21
-98.775
0
LINE
8
Black
10
185.629
20
-98.775
11
185.44
21
-99.0011
0
LINE
8
Black
10
185.44
20
-99.0011
11
185.184
21
-99.1487
0
LINE
8
Black
10
185.184
20
-99.1487
11
184.893
21
-99.2
0
LINE
8
Black
10
184.893
20
-99.2
11
184.887
21
-99.2
0
LINE
8
Black
10
184.887
20
-99.2
11
184.596
21
-99.1487
0
LINE
8
Black
10
184.596
20
-99.1487
11
184.34
21
-99.0011
0
LINE
8
Black
10
184.34
20
-99.0011
11
184.151
21
-98.775
0
LINE
8
Black
10
184.151
20
-98.775
11
184.05
21
-98.4976
0
LINE
8
Black
10
184.05
20
-98.4976
11
184.05
21
-98.2024
0
LINE
8
Black
10
184.05
20
-98.2024
11
184.151
21
-97.925
0
LINE
8
Black
10
184.151
20
-97.925
11
184.34
21
-97.6989
0
LINE
8
Black
10
184.34
20
-97.6989
11
184.596
21
-97.5513
0
LINE
8
Black
10
184.596
20
-97.5513
11
184.887
21
-97.5
0
LINE
8
Black
10
184.887
20
-97.5
11
184.893
21
-97.5
0
LINE
8
Black
10
184.893
20
-97.5
11
185.184
21
-97.5513
0
LINE
8
Black
10
104.94
20
-97.77
11
103.94
21
-97.77
0
LINE
8
Black
10
103.94
20
-97.77
11
103.94
21
-95.77
0
LINE
8
Black
10
103.94
20
-95.77
11
104.94
21
-95.77
0
LINE
8
Black
10
104.94
20
-95.77
11
104.94
21
-97.77
0
LINE
8
Black
10
106.94
20
-97.77
11
105.94
21
-97.77
0
LINE
8
Black
10
105.94
20
-97.77
11
105.94
21
-95.77
0
LINE
8
Black
10
105.94
20
-95.77
11
106.94
21
-95.77
0
LINE
8
Black
10
106.94
20
-95.77
11
106.94
21
-97.77
0
LINE
8
Black
10
102.94
20
-97.77
11
101.94
21
-97.77
0
LINE
8
Black
10
101.94
20
-97.77
11
101.94
21
-95.77
0
LINE
8
Black
10
101.94
20
-95.77
11
102.94
21
-95.77
0
LINE
8
Black
10
102.94
20
-95.77
11
102.94
21
-97.77
0
LINE
8
Black
10
100.94
20
-97.77
11
99.94
21
-97.77
0
LINE
8
Black
10
99.94
20
-97.77
11
99.94
21
-95.77
0
LINE
8
Black
10
99.94
20
-95.77
11
100.94
21
-95.77
0
LINE
8
Black
10
100.94
20
-95.77
11
100.94
21
-97.77
0
LINE
8
Black
10
98.94
20
-97.77
11
97.94
21
-97.77
0
LINE
8
Black
10
97.94
20
-97.77
11
97.94
21
-95.77
0
LINE
8
Black
10
97.94
20
-95.77
11
98.94
21
-95.77
0
LINE
8
Black
10
98.94
20
-95.77
11
98.94
21
-97.77
0
LINE
8
Black
10
96.94
20
-97.77
11
95.94
21
-97.77
0
LINE
8
Black
10
95.94
20
-97.77
11
95.94
21
-95.77
0
LINE
8
Black
10
95.94
20
-95.77
11
96.94
21
-95.77
0
LINE
8
Black
10
96.94
20
-95.77
11
96.94
21
-97.77
0
LINE
8
Black
10
94.94
20
-97.77
11
93.94
21
-97.77
0
LINE
8
Black
10
93.94
20
-97.77
11
93.94
21
-95.77
0
LINE
8
Black
10
93.94
20
-95.77
11
94.94
21
-95.77
0
LINE
8
Black
10
94.94
20
-95.77
11
94.94
21
-97.77
0
LINE
8
Black
10
92.94
20
-97.77
11
91.94
21
-97.77
0
LINE
8
Black
10
91.94
20
-97.77
11
91.94
21
-95.77
0
LINE
8
Black
10
91.94
20
-95.77
11
92.94
21
-95.77
0
LINE
8
Black
10
92.94
20
-95.77
11
92.94
21
-97.77
0
LINE
8
Black
10
185.184
20
-95.0113
11
185.44
21
-95.1589
0
LINE
8
Black
10
185.44
20
-95.1589
11
185.629
21
-95.385
0
LINE
8
Black
10
185.629
20
-95.385
11
185.73
21
-95.6624
0
LINE
8
Black
10
185.73
20
-95.6624
11
185.73
21
-95.9576
0
LINE
8
Black
10
185.73
20
-95.9576
11
185.629
21
-96.235
0
LINE
8
Black
10
185.629
20
-96.235
11
185.44
21
-96.4611
0
LINE
8
Black
10
185.44
20
-96.4611
11
185.184
21
-96.6087
0
LINE
8
Black
10
185.184
20
-96.6087
11
184.893
21
-96.66
0
LINE
8
Black
10
184.893
20
-96.66
11
184.887
21
-96.66
0
LINE
8
Black
10
184.887
20
-96.66
11
184.596
21
-96.6087
0
LINE
8
Black
10
184.596
20
-96.6087
11
184.34
21
-96.4611
0
LINE
8
Black
10
184.34
20
-96.4611
11
184.151
21
-96.235
0
LINE
8
Black
10
184.151
20
-96.235
11
184.05
21
-95.9576
0
LINE
8
Black
10
184.05
20
-95.9576
11
184.05
21
-95.6624
0
LINE
8
Black
10
184.05
20
-95.6624
11
184.151
21
-95.385
0
LINE
8
Black
10
184.151
20
-95.385
11
184.34
21
-95.1589
0
LINE
8
Black
10
184.34
20
-95.1589
11
184.596
21
-95.0113
0
LINE
8
Black
10
184.596
20
-95.0113
11
184.887
21
-94.96
0
LINE
8
Black
10
184.887
20
-94.96
11
184.893
21
-94.96
0
LINE
8
Black
10
184.893
20
-94.96
11
185.184
21
-95.0113
0
LINE
8
Black
10
187.724
20
-95.0113
11
187.98
21
-95.1589
0
LINE
8
Black
10
187.98
20
-95.1589
11
188.169
21
-95.385
0
LINE
8
Black
10
188.169
20
-95.385
11
188.27
21
-95.6624
0
LINE
8
Black
10
188.27
20
-95.6624
11
188.27
21
-95.9576
0
LINE
8
Black
10
188.27
20
-95.9576
11
188.169
21
-96.235
0
LINE
8
Black
10
188.169
20
-96.235
11
187.98
21
-96.4611
0
LINE
8
Black
10
187.98
20
-96.4611
11
187.724
21
-96.6087
0
LINE
8
Black
10
187.724
20
-96.6087
11
187.433
21
-96.66
0
LINE
8
Black
10
187.433
20
-96.66
11
187.427
21
-96.66
0
LINE
8
Black
10
187.427
20
-96.66
11
187.136
21
-96.6087
0
LINE
8
Black
10
187.136
20
-96.6087
11
186.88
21
-96.4611
0
LINE
8
Black
10
186.88
20
-96.4611
11
186.691
21
-96.235
0
LINE
8
Black
10
186.691
20
-96.235
11
186.59
21
-95.9576
0
LINE
8
Black
10
186.59
20
-95.9576
11
186.59
21
-95.6624
0
LINE
8
Black
10
186.59
20
-95.6624
11
186.691
21
-95.385
0
LINE
8
Black
10
186.691
20
-95.385
11
186.88
21
-95.1589
0
LINE
8
Black
10
186.88
20
-95.1589
11
187.136
21
-95.0113
0
LINE
8
Black
10
187.136
20
-95.0113
11
187.427
21
-94.96
0
LINE
8
Black
10
187.427
20
-94.96
11
187.433
21
-94.96
0
LINE
8
Black
10
187.433
20
-94.96
11
187.724
21
-95.0113
0
LINE
8
Black
10
116.67
20
-95.19
11
114.97
21
-95.19
0
LINE
8
Black
10
114.97
20
-95.19
11
114.97
21
-93.49
0
LINE
8
Black
10
114.97
20
-93.49
11
116.67
21
-93.49
0
LINE
8
Black
10
116.67
20
-93.49
11
116.67
21
-95.19
0
LINE
8
Black
10
128.945
20
-93.6006
11
129.171
21
-93.7904
0
LINE
8
Black
10
129.171
20
-93.7904
11
129.319
21
-94.046
0
LINE
8
Black
10
129.319
20
-94.046
11
129.37
21
-94.3368
0
LINE
8
Black
10
129.37
20
-94.3368
11
129.37
21
-94.3432
0
LINE
8
Black
10
129.37
20
-94.3432
11
129.319
21
-94.634
0
LINE
8
Black
10
129.319
20
-94.634
11
129.171
21
-94.8896
0
LINE
8
Black
10
129.171
20
-94.8896
11
128.945
21
-95.0794
0
LINE
8
Black
10
128.945
20
-95.0794
11
128.668
21
-95.1803
0
LINE
8
Black
10
128.668
20
-95.1803
11
128.372
21
-95.1803
0
LINE
8
Black
10
128.372
20
-95.1803
11
128.095
21
-95.0794
0
LINE
8
Black
10
128.095
20
-95.0794
11
127.869
21
-94.8896
0
LINE
8
Black
10
127.869
20
-94.8896
11
127.721
21
-94.634
0
LINE
8
Black
10
127.721
20
-94.634
11
127.67
21
-94.3432
0
LINE
8
Black
10
127.67
20
-94.3432
11
127.67
21
-94.3368
0
LINE
8
Black
10
127.67
20
-94.3368
11
127.721
21
-94.046
0
LINE
8
Black
10
127.721
20
-94.046
11
127.869
21
-93.7904
0
LINE
8
Black
10
127.869
20
-93.7904
11
128.095
21
-93.6006
0
LINE
8
Black
10
128.095
20
-93.6006
11
128.372
21
-93.4997
0
LINE
8
Black
10
128.372
20
-93.4997
11
128.668
21
-93.4997
0
LINE
8
Black
10
128.668
20
-93.4997
11
128.945
21
-93.6006
0
LINE
8
Black
10
126.405
20
-93.6006
11
126.631
21
-93.7904
0
LINE
8
Black
10
126.631
20
-93.7904
11
126.779
21
-94.046
0
LINE
8
Black
10
126.779
20
-94.046
11
126.83
21
-94.3368
0
LINE
8
Black
10
126.83
20
-94.3368
11
126.83
21
-94.3432
0
LINE
8
Black
10
126.83
20
-94.3432
11
126.779
21
-94.634
0
LINE
8
Black
10
126.779
20
-94.634
11
126.631
21
-94.8896
0
LINE
8
Black
10
126.631
20
-94.8896
11
126.405
21
-95.0794
0
LINE
8
Black
10
126.405
20
-95.0794
11
126.128
21
-95.1803
0
LINE
8
Black
10
126.128
20
-95.1803
11
125.832
21
-95.1803
0
LINE
8
Black
10
125.832
20
-95.1803
11
125.555
21
-95.0794
0
LINE
8
Black
10
125.555
20
-95.0794
11
125.329
21
-94.8896
0
LINE
8
Black
10
125.329
20
-94.8896
11
125.181
21
-94.634
0
LINE
8
Black
10
125.181
20
-94.634
11
125.13
21
-94.3432
0
LINE
8
Black
10
125.13
20
-94.3432
11
125.13
21
-94.3368
0
LINE
8
Black
10
125.13
20
-94.3368
11
125.181
21
-94.046
0
LINE
8
Black
10
125.181
20
-94.046
11
125.329
21
-93.7904
0
LINE
8
Black
10
125.329
20
-93.7904
11
125.555
21
-93.6006
0
LINE
8
Black
10
125.555
20
-93.6006
11
125.832
21
-93.4997
0
LINE
8
Black
10
125.832
20
-93.4997
11
126.128
21
-93.4997
0
LINE
8
Black
10
126.128
20
-93.4997
11
126.405
21
-93.6006
0
LINE
8
Black
10
123.865
20
-93.6006
11
124.091
21
-93.7904
0
LINE
8
Black
10
124.091
20
-93.7904
11
124.239
21
-94.046
0
LINE
8
Black
10
124.239
20
-94.046
11
124.29
21
-94.3368
0
LINE
8
Black
10
124.29
20
-94.3368
11
124.29
21
-94.3432
0
LINE
8
Black
10
124.29
20
-94.3432
11
124.239
21
-94.634
0
LINE
8
Black
10
124.239
20
-94.634
11
124.091
21
-94.8896
0
LINE
8
Black
10
124.091
20
-94.8896
11
123.865
21
-95.0794
0
LINE
8
Black
10
123.865
20
-95.0794
11
123.588
21
-95.1803
0
LINE
8
Black
10
123.588
20
-95.1803
11
123.292
21
-95.1803
0
LINE
8
Black
10
123.292
20
-95.1803
11
123.015
21
-95.0794
0
LINE
8
Black
10
123.015
20
-95.0794
11
122.789
21
-94.8896
0
LINE
8
Black
10
122.789
20
-94.8896
11
122.641
21
-94.634
0
LINE
8
Black
10
122.641
20
-94.634
11
122.59
21
-94.3432
0
LINE
8
Black
10
122.59
20
-94.3432
11
122.59
21
-94.3368
0
LINE
8
Black
10
122.59
20
-94.3368
11
122.641
21
-94.046
0
LINE
8
Black
10
122.641
20
-94.046
11
122.789
21
-93.7904
0
LINE
8
Black
10
122.789
20
-93.7904
11
123.015
21
-93.6006
0
LINE
8
Black
10
123.015
20
-93.6006
11
123.292
21
-93.4997
0
LINE
8
Black
10
123.292
20
-93.4997
11
123.588
21
-93.4997
0
LINE
8
Black
10
123.588
20
-93.4997
11
123.865
21
-93.6006
0
LINE
8
Black
10
121.325
20
-93.6006
11
121.551
21
-93.7904
0
LINE
8
Black
10
121.551
20
-93.7904
11
121.699
21
-94.046
0
LINE
8
Black
10
121.699
20
-94.046
11
121.75
21
-94.3368
0
LINE
8
Black
10
121.75
20
-94.3368
11
121.75
21
-94.3432
0
LINE
8
Black
10
121.75
20
-94.3432
11
121.699
21
-94.634
0
LINE
8
Black
10
121.699
20
-94.634
11
121.551
21
-94.8896
0
LINE
8
Black
10
121.551
20
-94.8896
11
121.325
21
-95.0794
0
LINE
8
Black
10
121.325
20
-95.0794
11
121.048
21
-95.1803
0
LINE
8
Black
10
121.048
20
-95.1803
11
120.752
21
-95.1803
0
LINE
8
Black
10
120.752
20
-95.1803
11
120.475
21
-95.0794
0
LINE
8
Black
10
120.475
20
-95.0794
11
120.249
21
-94.8896
0
LINE
8
Black
10
120.249
20
-94.8896
11
120.101
21
-94.634
0
LINE
8
Black
10
120.101
20
-94.634
11
120.05
21
-94.3432
0
LINE
8
Black
10
120.05
20
-94.3432
11
120.05
21
-94.3368
0
LINE
8
Black
10
120.05
20
-94.3368
11
120.101
21
-94.046
0
LINE
8
Black
10
120.101
20
-94.046
11
120.249
21
-93.7904
0
LINE
8
Black
10
120.249
20
-93.7904
11
120.475
21
-93.6006
0
LINE
8
Black
10
120.475
20
-93.6006
11
120.752
21
-93.4997
0
LINE
8
Black
10
120.752
20
-93.4997
11
121.048
21
-93.4997
0
LINE
8
Black
10
121.048
20
-93.4997
11
121.325
21
-93.6006
0
LINE
8
Black
10
118.785
20
-93.6006
11
119.011
21
-93.7904
0
LINE
8
Black
10
119.011
20
-93.7904
11
119.159
21
-94.046
0
LINE
8
Black
10
119.159
20
-94.046
11
119.21
21
-94.3368
0
LINE
8
Black
10
119.21
20
-94.3368
11
119.21
21
-94.3432
0
LINE
8
Black
10
119.21
20
-94.3432
11
119.159
21
-94.634
0
LINE
8
Black
10
119.159
20
-94.634
11
119.011
21
-94.8896
0
LINE
8
Black
10
119.011
20
-94.8896
11
118.785
21
-95.0794
0
LINE
8
Black
10
118.785
20
-95.0794
11
118.508
21
-95.1803
0
LINE
8
Black
10
118.508
20
-95.1803
11
118.212
21
-95.1803
0
LINE
8
Black
10
118.212
20
-95.1803
11
117.935
21
-95.0794
0
LINE
8
Black
10
117.935
20
-95.0794
11
117.709
21
-94.8896
0
LINE
8
Black
10
117.709
20
-94.8896
11
117.561
21
-94.634
0
LINE
8
Black
10
117.561
20
-94.634
11
117.51
21
-94.3432
0
LINE
8
Black
10
117.51
20
-94.3432
11
117.51
21
-94.3368
0
LINE
8
Black
10
117.51
20
-94.3368
11
117.561
21
-94.046
0
LINE
8
Black
10
117.561
20
-94.046
11
117.709
21
-93.7904
0
LINE
8
Black
10
117.709
20
-93.7904
11
117.935
21
-93.6006
0
LINE
8
Black
10
117.935
20
-93.6006
11
118.212
21
-93.4997
0
LINE
8
Black
10
118.212
20
-93.4997
11
118.508
21
-93.4997
0
LINE
8
Black
10
118.508
20
-93.4997
11
118.785
21
-93.6006
0
LINE
8
Black
10
185.184
20
-92.4713
11
185.44
21
-92.6189
0
LINE
8
Black
10
185.44
20
-92.6189
11
185.629
21
-92.845
0
LINE
8
Black
10
185.629
20
-92.845
11
185.73
21
-93.1224
0
LINE
8
Black
10
185.73
20
-93.1224
11
185.73
21
-93.4176
0
LINE
8
Black
10
185.73
20
-93.4176
11
185.629
21
-93.695
0
LINE
8
Black
10
185.629
20
-93.695
11
185.44
21
-93.9211
0
LINE
8
Black
10
185.44
20
-93.9211
11
185.184
21
-94.0687
0
LINE
8
Black
10
185.184
20
-94.0687
11
184.893
21
-94.12
0
LINE
8
Black
10
184.893
20
-94.12
11
184.887
21
-94.12
0
LINE
8
Black
10
184.887
20
-94.12
11
184.596
21
-94.0687
0
LINE
8
Black
10
184.596
20
-94.0687
11
184.34
21
-93.9211
0
LINE
8
Black
10
184.34
20
-93.9211
11
184.151
21
-93.695
0
LINE
8
Black
10
184.151
20
-93.695
11
184.05
21
-93.4176
0
LINE
8
Black
10
184.05
20
-93.4176
11
184.05
21
-93.1224
0
LINE
8
Black
10
184.05
20
-93.1224
11
184.151
21
-92.845
0
LINE
8
Black
10
184.151
20
-92.845
11
184.34
21
-92.6189
0
LINE
8
Black
10
184.34
20
-92.6189
11
184.596
21
-92.4713
0
LINE
8
Black
10
184.596
20
-92.4713
11
184.887
21
-92.42
0
LINE
8
Black
10
184.887
20
-92.42
11
184.893
21
-92.42
0
LINE
8
Black
10
184.893
20
-92.42
11
185.184
21
-92.4713
0
LINE
8
Black
10
187.724
20
-92.4713
11
187.98
21
-92.6189
0
LINE
8
Black
10
187.98
20
-92.6189
11
188.169
21
-92.845
0
LINE
8
Black
10
188.169
20
-92.845
11
188.27
21
-93.1224
0
LINE
8
Black
10
188.27
20
-93.1224
11
188.27
21
-93.4176
0
LINE
8
Black
10
188.27
20
-93.4176
11
188.169
21
-93.695
0
LINE
8
Black
10
188.169
20
-93.695
11
187.98
21
-93.9211
0
LINE
8
Black
10
187.98
20
-93.9211
11
187.724
21
-94.0687
0
LINE
8
Black
10
187.724
20
-94.0687
11
187.433
21
-94.12
0
LINE
8
Black
10
187.433
20
-94.12
11
187.427
21
-94.12
0
LINE
8
Black
10
187.427
20
-94.12
11
187.136
21
-94.0687
0
LINE
8
Black
10
187.136
20
-94.0687
11
186.88
21
-93.9211
0
LINE
8
Black
10
186.88
20
-93.9211
11
186.691
21
-93.695
0
LINE
8
Black
10
186.691
20
-93.695
11
186.59
21
-93.4176
0
LINE
8
Black
10
186.59
20
-93.4176
11
186.59
21
-93.1224
0
LINE
8
Black
10
186.59
20
-93.1224
11
186.691
21
-92.845
0
LINE
8
Black
10
186.691
20
-92.845
11
186.88
21
-92.6189
0
LINE
8
Black
10
186.88
20
-92.6189
11
187.136
21
-92.4713
0
LINE
8
Black
10
187.136
20
-92.4713
11
187.427
21
-92.42
0
LINE
8
Black
10
187.427
20
-92.42
11
187.433
21
-92.42
0
LINE
8
Black
10
187.433
20
-92.42
11
187.724
21
-92.4713
0
LINE
8
Black
10
185.184
20
-89.9313
11
185.44
21
-90.0789
0
LINE
8
Black
10
185.44
20
-90.0789
11
185.629
21
-90.305
0
LINE
8
Black
10
185.629
20
-90.305
11
185.73
21
-90.5824
0
LINE
8
Black
10
185.73
20
-90.5824
11
185.73
21
-90.8776
0
LINE
8
Black
10
185.73
20
-90.8776
11
185.629
21
-91.155
0
LINE
8
Black
10
185.629
20
-91.155
11
185.44
21
-91.3811
0
LINE
8
Black
10
185.44
20
-91.3811
11
185.184
21
-91.5287
0
LINE
8
Black
10
185.184
20
-91.5287
11
184.893
21
-91.58
0
LINE
8
Black
10
184.893
20
-91.58
11
184.887
21
-91.58
0
LINE
8
Black
10
184.887
20
-91.58
11
184.596
21
-91.5287
0
LINE
8
Black
10
184.596
20
-91.5287
11
184.34
21
-91.3811
0
LINE
8
Black
10
184.34
20
-91.3811
11
184.151
21
-91.155
0
LINE
8
Black
10
184.151
20
-91.155
11
184.05
21
-90.8776
0
LINE
8
Black
10
184.05
20
-90.8776
11
184.05
21
-90.5824
0
LINE
8
Black
10
184.05
20
-90.5824
11
184.151
21
-90.305
0
LINE
8
Black
10
184.151
20
-90.305
11
184.34
21
-90.0789
0
LINE
8
Black
10
184.34
20
-90.0789
11
184.596
21
-89.9313
0
LINE
8
Black
10
184.596
20
-89.9313
11
184.887
21
-89.88
0
LINE
8
Black
10
184.887
20
-89.88
11
184.893
21
-89.88
0
LINE
8
Black
10
184.893
20
-89.88
11
185.184
21
-89.9313
0
LINE
8
Black
10
187.724
20
-89.9313
11
187.98
21
-90.0789
0
LINE
8
Black
10
187.98
20
-90.0789
11
188.169
21
-90.305
0
LINE
8
Black
10
188.169
20
-90.305
11
188.27
21
-90.5824
0
LINE
8
Black
10
188.27
20
-90.5824
11
188.27
21
-90.8776
0
LINE
8
Black
10
188.27
20
-90.8776
11
188.169
21
-91.155
0
LINE
8
Black
10
188.169
20
-91.155
11
187.98
21
-91.3811
0
LINE
8
Black
10
187.98
20
-91.3811
11
187.724
21
-91.5287
0
LINE
8
Black
10
187.724
20
-91.5287
11
187.433
21
-91.58
0
LINE
8
Black
10
187.433
20
-91.58
11
187.427
21
-91.58
0
LINE
8
Black
10
187.427
20
-91.58
11
187.136
21
-91.5287
0
LINE
8
Black
10
187.136
20
-91.5287
11
186.88
21
-91.3811
0
LINE
8
Black
10
186.88
20
-91.3811
11
186.691
21
-91.155
0
LINE
8
Black
10
186.691
20
-91.155
11
186.59
21
-90.8776
0
LINE
8
Black
10
186.59
20
-90.8776
11
186.59
21
-90.5824
0
LINE
8
Black
10
186.59
20
-90.5824
11
186.691
21
-90.305
0
LINE
8
Black
10
186.691
20
-90.305
11
186.88
21
-90.0789
0
LINE
8
Black
10
186.88
20
-90.0789
11
187.136
21
-89.9313
0
LINE
8
Black
10
187.136
20
-89.9313
11
187.427
21
-89.88
0
LINE
8
Black
10
187.427
20
-89.88
11
187.433
21
-89.88
0
LINE
8
Black
10
187.433
20
-89.88
11
187.724
21
-89.9313
0
LINE
8
Black
10
125.464
20
-88.8513
11
125.72
21
-88.9989
0
LINE
8
Black
10
125.72
20
-88.9989
11
125.909
21
-89.225
0
LINE
8
Black
10
125.909
20
-89.225
11
126.01
21
-89.5024
0
LINE
8
Black
10
126.01
20
-89.5024
11
126.01
21
-89.7976
0
LINE
8
Black
10
126.01
20
-89.7976
11
125.909
21
-90.075
0
LINE
8
Black
10
125.909
20
-90.075
11
125.72
21
-90.3011
0
LINE
8
Black
10
125.72
20
-90.3011
11
125.464
21
-90.4487
0
LINE
8
Black
10
125.464
20
-90.4487
11
125.173
21
-90.5
0
LINE
8
Black
10
125.173
20
-90.5
11
125.167
21
-90.5
0
LINE
8
Black
10
125.167
20
-90.5
11
124.876
21
-90.4487
0
LINE
8
Black
10
124.876
20
-90.4487
11
124.62
21
-90.3011
0
LINE
8
Black
10
124.62
20
-90.3011
11
124.431
21
-90.075
0
LINE
8
Black
10
124.431
20
-90.075
11
124.33
21
-89.7976
0
LINE
8
Black
10
124.33
20
-89.7976
11
124.33
21
-89.5024
0
LINE
8
Black
10
124.33
20
-89.5024
11
124.431
21
-89.225
0
LINE
8
Black
10
124.431
20
-89.225
11
124.62
21
-88.9989
0
LINE
8
Black
10
124.62
20
-88.9989
11
124.876
21
-88.8513
0
LINE
8
Black
10
124.876
20
-88.8513
11
125.167
21
-88.8
0
LINE
8
Black
10
125.167
20
-88.8
11
125.173
21
-88.8
0
LINE
8
Black
10
125.173
20
-88.8
11
125.464
21
-88.8513
0
LINE
8
Black
10
187.724
20
-87.3913
11
187.98
21
-87.5389
0
LINE
8
Black
10
187.98
20
-87.5389
11
188.169
21
-87.765
0
LINE
8
Black
10
188.169
20
-87.765
11
188.27
21
-88.0424
0
LINE
8
Black
10
188.27
20
-88.0424
11
188.27
21
-88.3376
0
LINE
8
Black
10
188.27
20
-88.3376
11
188.169
21
-88.615
0
LINE
8
Black
10
188.169
20
-88.615
11
187.98
21
-88.8411
0
LINE
8
Black
10
187.98
20
-88.8411
11
187.724
21
-88.9887
0
LINE
8
Black
10
187.724
20
-88.9887
11
187.433
21
-89.04
0
LINE
8
Black
10
187.433
20
-89.04
11
187.427
21
-89.04
0
LINE
8
Black
10
187.427
20
-89.04
11
187.136
21
-88.9887
0
LINE
8
Black
10
187.136
20
-88.9887
11
186.88
21
-88.8411
0
LINE
8
Black
10
186.88
20
-88.8411
11
186.691
21
-88.615
0
LINE
8
Black
10
186.691
20
-88.615
11
186.59
21
-88.3376
0
LINE
8
Black
10
186.59
20
-88.3376
11
186.59
21
-88.0424
0
LINE
8
Black
10
186.59
20
-88.0424
11
186.691
21
-87.765
0
LINE
8
Black
10
186.691
20
-87.765
11
186.88
21
-87.5389
0
LINE
8
Black
10
186.88
20
-87.5389
11
187.136
21
-87.3913
0
LINE
8
Black
10
187.136
20
-87.3913
11
187.427
21
-87.34
0
LINE
8
Black
10
187.427
20
-87.34
11
187.433
21
-87.34
0
LINE
8
Black
10
187.433
20
-87.34
11
187.724
21
-87.3913
0
LINE
8
Black
10
185.184
20
-87.3913
11
185.44
21
-87.5389
0
LINE
8
Black
10
185.44
20
-87.5389
11
185.629
21
-87.765
0
LINE
8
Black
10
185.629
20
-87.765
11
185.73
21
-88.0424
0
LINE
8
Black
10
185.73
20
-88.0424
11
185.73
21
-88.3376
0
LINE
8
Black
10
185.73
20
-88.3376
11
185.629
21
-88.615
0
LINE
8
Black
10
185.629
20
-88.615
11
185.44
21
-88.8411
0
LINE
8
Black
10
185.44
20
-88.8411
11
185.184
21
-88.9887
0
LINE
8
Black
10
185.184
20
-88.9887
11
184.893
21
-89.04
0
LINE
8
Black
10
184.893
20
-89.04
11
184.887
21
-89.04
0
LINE
8
Black
10
184.887
20
-89.04
11
184.596
21
-88.9887
0
LINE
8
Black
10
184.596
20
-88.9887
11
184.34
21
-88.8411
0
LINE
8
Black
10
184.34
20
-88.8411
11
184.151
21
-88.615
0
LINE
8
Black
10
184.151
20
-88.615
11
184.05
21
-88.3376
0
LINE
8
Black
10
184.05
20
-88.3376
11
184.05
21
-88.0424
0
LINE
8
Black
10
184.05
20
-88.0424
11
184.151
21
-87.765
0
LINE
8
Black
10
184.151
20
-87.765
11
184.34
21
-87.5389
0
LINE
8
Black
10
184.34
20
-87.5389
11
184.596
21
-87.3913
0
LINE
8
Black
10
184.596
20
-87.3913
11
184.887
21
-87.34
0
LINE
8
Black
10
184.887
20
-87.34
11
184.893
21
-87.34
0
LINE
8
Black
10
184.893
20
-87.34
11
185.184
21
-87.3913
0
LINE
8
Black
10
125.464
20
-86.3113
11
125.72
21
-86.4589
0
LINE
8
Black
10
125.72
20
-86.4589
11
125.909
21
-86.685
0
LINE
8
Black
10
125.909
20
-86.685
11
126.01
21
-86.9624
0
LINE
8
Black
10
126.01
20
-86.9624
11
126.01
21
-87.2576
0
LINE
8
Black
10
126.01
20
-87.2576
11
125.909
21
-87.535
0
LINE
8
Black
10
125.909
20
-87.535
11
125.72
21
-87.7611
0
LINE
8
Black
10
125.72
20
-87.7611
11
125.464
21
-87.9087
0
LINE
8
Black
10
125.464
20
-87.9087
11
125.173
21
-87.96
0
LINE
8
Black
10
125.173
20
-87.96
11
125.167
21
-87.96
0
LINE
8
Black
10
125.167
20
-87.96
11
124.876
21
-87.9087
0
LINE
8
Black
10
124.876
20
-87.9087
11
124.62
21
-87.7611
0
LINE
8
Black
10
124.62
20
-87.7611
11
124.431
21
-87.535
0
LINE
8
Black
10
124.431
20
-87.535
11
124.33
21
-87.2576
0
LINE
8
Black
10
124.33
20
-87.2576
11
124.33
21
-86.9624
0
LINE
8
Black
10
124.33
20
-86.9624
11
124.431
21
-86.685
0
LINE
8
Black
10
124.431
20
-86.685
11
124.62
21
-86.4589
0
LINE
8
Black
10
124.62
20
-86.4589
11
124.876
21
-86.3113
0
LINE
8
Black
10
124.876
20
-86.3113
11
125.167
21
-86.26
0
LINE
8
Black
10
125.167
20
-86.26
11
125.173
21
-86.26
0
LINE
8
Black
10
125.173
20
-86.26
11
125.464
21
-86.3113
0
LINE
8
Black
10
185.184
20
-84.8513
11
185.44
21
-84.9989
0
LINE
8
Black
10
185.44
20
-84.9989
11
185.629
21
-85.225
0
LINE
8
Black
10
185.629
20
-85.225
11
185.73
21
-85.5024
0
LINE
8
Black
10
185.73
20
-85.5024
11
185.73
21
-85.7976
0
LINE
8
Black
10
185.73
20
-85.7976
11
185.629
21
-86.075
0
LINE
8
Black
10
185.629
20
-86.075
11
185.44
21
-86.3011
0
LINE
8
Black
10
185.44
20
-86.3011
11
185.184
21
-86.4487
0
LINE
8
Black
10
185.184
20
-86.4487
11
184.893
21
-86.5
0
LINE
8
Black
10
184.893
20
-86.5
11
184.887
21
-86.5
0
LINE
8
Black
10
184.887
20
-86.5
11
184.596
21
-86.4487
0
LINE
8
Black
10
184.596
20
-86.4487
11
184.34
21
-86.3011
0
LINE
8
Black
10
184.34
20
-86.3011
11
184.151
21
-86.075
0
LINE
8
Black
10
184.151
20
-86.075
11
184.05
21
-85.7976
0
LINE
8
Black
10
184.05
20
-85.7976
11
184.05
21
-85.5024
0
LINE
8
Black
10
184.05
20
-85.5024
11
184.151
21
-85.225
0
LINE
8
Black
10
184.151
20
-85.225
11
184.34
21
-84.9989
0
LINE
8
Black
10
184.34
20
-84.9989
11
184.596
21
-84.8513
0
LINE
8
Black
10
184.596
20
-84.8513
11
184.887
21
-84.8
0
LINE
8
Black
10
184.887
20
-84.8
11
184.893
21
-84.8
0
LINE
8
Black
10
184.893
20
-84.8
11
185.184
21
-84.8513
0
LINE
8
Black
10
187.724
20
-84.8513
11
187.98
21
-84.9989
0
LINE
8
Black
10
187.98
20
-84.9989
11
188.169
21
-85.225
0
LINE
8
Black
10
188.169
20
-85.225
11
188.27
21
-85.5024
0
LINE
8
Black
10
188.27
20
-85.5024
11
188.27
21
-85.7976
0
LINE
8
Black
10
188.27
20
-85.7976
11
188.169
21
-86.075
0
LINE
8
Black
10
188.169
20
-86.075
11
187.98
21
-86.3011
0
LINE
8
Black
10
187.98
20
-86.3011
11
187.724
21
-86.4487
0
LINE
8
Black
10
187.724
20
-86.4487
11
187.433
21
-86.5
0
LINE
8
Black
10
187.433
20
-86.5
11
187.427
21
-86.5
0
LINE
8
Black
10
187.427
20
-86.5
11
187.136
21
-86.4487
0
LINE
8
Black
10
187.136
20
-86.4487
11
186.88
21
-86.3011
0
LINE
8
Black
10
186.88
20
-86.3011
11
186.691
21
-86.075
0
LINE
8
Black
10
186.691
20
-86.075
11
186.59
21
-85.7976
0
LINE
8
Black
10
186.59
20
-85.7976
11
186.59
21
-85.5024
0
LINE
8
Black
10
186.59
20
-85.5024
11
186.691
21
-85.225
0
LINE
8
Black
10
186.691
20
-85.225
11
186.88
21
-84.9989
0
LINE
8
Black
10
186.88
20
-84.9989
11
187.136
21
-84.8513
0
LINE
8
Black
10
187.136
20
-84.8513
11
187.427
21
-84.8
0
LINE
8
Black
10
187.427
20
-84.8
11
187.433
21
-84.8
0
LINE
8
Black
10
187.433
20
-84.8
11
187.724
21
-84.8513
0
LINE
8
Black
10
125.464
20
-83.7713
11
125.72
21
-83.9189
0
LINE
8
Black
10
125.72
20
-83.9189
11
125.909
21
-84.145
0
LINE
8
Black
10
125.909
20
-84.145
11
126.01
21
-84.4224
0
LINE
8
Black
10
126.01
20
-84.4224
11
126.01
21
-84.7176
0
LINE
8
Black
10
126.01
20
-84.7176
11
125.909
21
-84.995
0
LINE
8
Black
10
125.909
20
-84.995
11
125.72
21
-85.2211
0
LINE
8
Black
10
125.72
20
-85.2211
11
125.464
21
-85.3687
0
LINE
8
Black
10
125.464
20
-85.3687
11
125.173
21
-85.42
0
LINE
8
Black
10
125.173
20
-85.42
11
125.167
21
-85.42
0
LINE
8
Black
10
125.167
20
-85.42
11
124.876
21
-85.3687
0
LINE
8
Black
10
124.876
20
-85.3687
11
124.62
21
-85.2211
0
LINE
8
Black
10
124.62
20
-85.2211
11
124.431
21
-84.995
0
LINE
8
Black
10
124.431
20
-84.995
11
124.33
21
-84.7176
0
LINE
8
Black
10
124.33
20
-84.7176
11
124.33
21
-84.4224
0
LINE
8
Black
10
124.33
20
-84.4224
11
124.431
21
-84.145
0
LINE
8
Black
10
124.431
20
-84.145
11
124.62
21
-83.9189
0
LINE
8
Black
10
124.62
20
-83.9189
11
124.876
21
-83.7713
0
LINE
8
Black
10
124.876
20
-83.7713
11
125.167
21
-83.72
0
LINE
8
Black
10
125.167
20
-83.72
11
125.173
21
-83.72
0
LINE
8
Black
10
125.173
20
-83.72
11
125.464
21
-83.7713
0
LINE
8
Black
10
187.724
20
-82.3113
11
187.98
21
-82.4589
0
LINE
8
Black
10
187.98
20
-82.4589
11
188.169
21
-82.685
0
LINE
8
Black
10
188.169
20
-82.685
11
188.27
21
-82.9624
0
LINE
8
Black
10
188.27
20
-82.9624
11
188.27
21
-83.2576
0
LINE
8
Black
10
188.27
20
-83.2576
11
188.169
21
-83.535
0
LINE
8
Black
10
188.169
20
-83.535
11
187.98
21
-83.7611
0
LINE
8
Black
10
187.98
20
-83.7611
11
187.724
21
-83.9087
0
LINE
8
Black
10
187.724
20
-83.9087
11
187.433
21
-83.96
0
LINE
8
Black
10
187.433
20
-83.96
11
187.427
21
-83.96
0
LINE
8
Black
10
187.427
20
-83.96
11
187.136
21
-83.9087
0
LINE
8
Black
10
187.136
20
-83.9087
11
186.88
21
-83.7611
0
LINE
8
Black
10
186.88
20
-83.7611
11
186.691
21
-83.535
0
LINE
8
Black
10
186.691
20
-83.535
11
186.59
21
-83.2576
0
LINE
8
Black
10
186.59
20
-83.2576
11
186.59
21
-82.9624
0
LINE
8
Black
10
186.59
20
-82.9624
11
186.691
21
-82.685
0
LINE
8
Black
10
186.691
20
-82.685
11
186.88
21
-82.4589
0
LINE
8
Black
10
186.88
20
-82.4589
11
187.136
21
-82.3113
0
LINE
8
Black
10
187.136
20
-82.3113
11
187.427
21
-82.26
0
LINE
8
Black
10
187.427
20
-82.26
11
187.433
21
-82.26
0
LINE
8
Black
10
187.433
20
-82.26
11
187.724
21
-82.3113
0
LINE
8
Black
10
185.184
20
-82.3113
11
185.44
21
-82.4589
0
LINE
8
Black
10
185.44
20
-82.4589
11
185.629
21
-82.685
0
LINE
8
Black
10
185.629
20
-82.685
11
185.73
21
-82.9624
0
LINE
8
Black
10
185.73
20
-82.9624
11
185.73
21
-83.2576
0
LINE
8
Black
10
185.73
20
-83.2576
11
185.629
21
-83.535
0
LINE
8
Black
10
185.629
20
-83.535
11
185.44
21
-83.7611
0
LINE
8
Black
10
185.44
20
-83.7611
11
185.184
21
-83.9087
0
LINE
8
Black
10
185.184
20
-83.9087
11
184.893
21
-83.96
0
LINE
8
Black
10
184.893
20
-83.96
11
184.887
21
-83.96
0
LINE
8
Black
10
184.887
20
-83.96
11
184.596
21
-83.9087
0
LINE
8
Black
10
184.596
20
-83.9087
11
184.34
21
-83.7611
0
LINE
8
Black
10
184.34
20
-83.7611
11
184.151
21
-83.535
0
LINE
8
Black
10
184.151
20
-83.535
11
184.05
21
-83.2576
0
LINE
8
Black
10
184.05
20
-83.2576
11
184.05
21
-82.9624
0
LINE
8
Black
10
184.05
20
-82.9624
11
184.151
21
-82.685
0
LINE
8
Black
10
184.151
20
-82.685
11
184.34
21
-82.4589
0
LINE
8
Black
10
184.34
20
-82.4589
11
184.596
21
-82.3113
0
LINE
8
Black
10
184.596
20
-82.3113
11
184.887
21
-82.26
0
LINE
8
Black
10
184.887
20
-82.26
11
184.893
21
-82.26
0
LINE
8
Black
10
184.893
20
-82.26
11
185.184
21
-82.3113
0
LINE
8
Black
10
125.464
20
-81.2313
11
125.72
21
-81.3789
0
LINE
8
Black
10
125.72
20
-81.3789
11
125.909
21
-81.605
0
LINE
8
Black
10
125.909
20
-81.605
11
126.01
21
-81.8824
0
LINE
8
Black
10
126.01
20
-81.8824
11
126.01
21
-82.1776
0
LINE
8
Black
10
126.01
20
-82.1776
11
125.909
21
-82.455
0
LINE
8
Black
10
125.909
20
-82.455
11
125.72
21
-82.6811
0
LINE
8
Black
10
125.72
20
-82.6811
11
125.464
21
-82.8287
0
LINE
8
Black
10
125.464
20
-82.8287
11
125.173
21
-82.88
0
LINE
8
Black
10
125.173
20
-82.88
11
125.167
21
-82.88
0
LINE
8
Black
10
125.167
20
-82.88
11
124.876
21
-82.8287
0
LINE
8
Black
10
124.876
20
-82.8287
11
124.62
21
-82.6811
0
LINE
8
Black
10
124.62
20
-82.6811
11
124.431
21
-82.455
0
LINE
8
Black
10
124.431
20
-82.455
11
124.33
21
-82.1776
0
LINE
8
Black
10
124.33
20
-82.1776
11
124.33
21
-81.8824
0
LINE
8
Black
10
124.33
20
-81.8824
11
124.431
21
-81.605
0
LINE
8
Black
10
124.431
20
-81.605
11
124.62
21
-81.3789
0
LINE
8
Black
10
124.62
20
-81.3789
11
124.876
21
-81.2313
0
LINE
8
Black
10
124.876
20
-81.2313
11
125.167
21
-81.18
0
LINE
8
Black
10
125.167
20
-81.18
11
125.173
21
-81.18
0
LINE
8
Black
10
125.173
20
-81.18
11
125.464
21
-81.2313
0
LINE
8
Black
10
92.94
20
-81.77
11
91.94
21
-81.77
0
LINE
8
Black
10
91.94
20
-81.77
11
91.94
21
-79.77
0
LINE
8
Black
10
91.94
20
-79.77
11
92.94
21
-79.77
0
LINE
8
Black
10
92.94
20
-79.77
11
92.94
21
-81.77
0
LINE
8
Black
10
94.94
20
-81.77
11
93.94
21
-81.77
0
LINE
8
Black
10
93.94
20
-81.77
11
93.94
21
-79.77
0
LINE
8
Black
10
93.94
20
-79.77
11
94.94
21
-79.77
0
LINE
8
Black
10
94.94
20
-79.77
11
94.94
21
-81.77
0
LINE
8
Black
10
96.94
20
-81.77
11
95.94
21
-81.77
0
LINE
8
Black
10
95.94
20
-81.77
11
95.94
21
-79.77
0
LINE
8
Black
10
95.94
20
-79.77
11
96.94
21
-79.77
0
LINE
8
Black
10
96.94
20
-79.77
11
96.94
21
-81.77
0
LINE
8
Black
10
98.94
20
-81.77
11
97.94
21
-81.77
0
LINE
8
Black
10
97.94
20
-81.77
11
97.94
21
-79.77
0
LINE
8
Black
10
97.94
20
-79.77
11
98.94
21
-79.77
0
LINE
8
Black
10
98.94
20
-79.77
11
98.94
21
-81.77
0
LINE
8
Black
10
100.94
20
-81.77
11
99.94
21
-81.77
0
LINE
8
Black
10
99.94
20
-81.77
11
99.94
21
-79.77
0
LINE
8
Black
10
99.94
20
-79.77
11
100.94
21
-79.77
0
LINE
8
Black
10
100.94
20
-79.77
11
100.94
21
-81.77
0
LINE
8
Black
10
102.94
20
-81.77
11
101.94
21
-81.77
0
LINE
8
Black
10
101.94
20
-81.77
11
101.94
21
-79.77
0
LINE
8
Black
10
101.94
20
-79.77
11
102.94
21
-79.77
0
LINE
8
Black
10
102.94
20
-79.77
11
102.94
21
-81.77
0
LINE
8
Black
10
104.94
20
-81.77
11
103.94
21
-81.77
0
LINE
8
Black
10
103.94
20
-81.77
11
103.94
21
-79.77
0
LINE
8
Black
10
103.94
20
-79.77
11
104.94
21
-79.77
0
LINE
8
Black
10
104.94
20
-79.77
11
104.94
21
-81.77
0
LINE
8
Black
10
106.94
20
-81.77
11
105.94
21
-81.77
0
LINE
8
Black
10
105.94
20
-81.77
11
105.94
21
-79.77
0
LINE
8
Black
10
105.94
20
-79.77
11
106.94
21
-79.77
0
LINE
8
Black
10
106.94
20
-79.77
11
106.94
21
-81.77
0
LINE
8
Black
10
187.724
20
-79.7713
11
187.98
21
-79.9189
0
LINE
8
Black
10
187.98
20
-79.9189
11
188.169
21
-80.145
0
LINE
8
Black
10
188.169
20
-80.145
11
188.27
21
-80.4224
0
LINE
8
Black
10
188.27
20
-80.4224
11
188.27
21
-80.7176
0
LINE
8
Black
10
188.27
20
-80.7176
11
188.169
21
-80.995
0
LINE
8
Black
10
188.169
20
-80.995
11
187.98
21
-81.2211
0
LINE
8
Black
10
187.98
20
-81.2211
11
187.724
21
-81.3687
0
LINE
8
Black
10
187.724
20
-81.3687
11
187.433
21
-81.42
0
LINE
8
Black
10
187.433
20
-81.42
11
187.427
21
-81.42
0
LINE
8
Black
10
187.427
20
-81.42
11
187.136
21
-81.3687
0
LINE
8
Black
10
187.136
20
-81.3687
11
186.88
21
-81.2211
0
LINE
8
Black
10
186.88
20
-81.2211
11
186.691
21
-80.995
0
LINE
8
Black
10
186.691
20
-80.995
11
186.59
21
-80.7176
0
LINE
8
Black
10
186.59
20
-80.7176
11
186.59
21
-80.4224
0
LINE
8
Black
10
186.59
20
-80.4224
11
186.691
21
-80.145
0
LINE
8
Black
10
186.691
20
-80.145
11
186.88
21
-79.9189
0
LINE
8
Black
10
186.88
20
-79.9189
11
187.136
21
-79.7713
0
LINE
8
Black
10
187.136
20
-79.7713
11
187.427
21
-79.72
0
LINE
8
Black
10
187.427
20
-79.72
11
187.433
21
-79.72
0
LINE
8
Black
10
187.433
20
-79.72
11
187.724
21
-79.7713
0
LINE
8
Black
10
185.184
20
-79.7713
11
185.44
21
-79.9189
0
LINE
8
Black
10
185.44
20
-79.9189
11
185.629
21
-80.145
0
LINE
8
Black
10
185.629
20
-80.145
11
185.73
21
-80.4224
0
LINE
8
Black
10
185.73
20
-80.4224
11
185.73
21
-80.7176
0
LINE
8
Black
10
185.73
20
-80.7176
11
185.629
21
-80.995
0
LINE
8
Black
10
185.629
20
-80.995
11
185.44
21
-81.2211
0
LINE
8
Black
10
185.44
20
-81.2211
11
185.184
21
-81.3687
0
LINE
8
Black
10
185.184
20
-81.3687
11
184.893
21
-81.42
0
LINE
8
Black
10
184.893
20
-81.42
11
184.887
21
-81.42
0
LINE
8
Black
10
184.887
20
-81.42
11
184.596
21
-81.3687
0
LINE
8
Black
10
184.596
20
-81.3687
11
184.34
21
-81.2211
0
LINE
8
Black
10
184.34
20
-81.2211
11
184.151
21
-80.995
0
LINE
8
Black
10
184.151
20
-80.995
11
184.05
21
-80.7176
0
LINE
8
Black
10
184.05
20
-80.7176
11
184.05
21
-80.4224
0
LINE
8
Black
10
184.05
20
-80.4224
11
184.151
21
-80.145
0
LINE
8
Black
10
184.151
20
-80.145
11
184.34
21
-79.9189
0
LINE
8
Black
10
184.34
20
-79.9189
11
184.596
21
-79.7713
0
LINE
8
Black
10
184.596
20
-79.7713
11
184.887
21
-79.72
0
LINE
8
Black
10
184.887
20
-79.72
11
184.893
21
-79.72
0
LINE
8
Black
10
184.893
20
-79.72
11
185.184
21
-79.7713
0
LINE
8
Black
10
125.464
20
-78.6913
11
125.72
21
-78.8389
0
LINE
8
Black
10
125.72
20
-78.8389
11
125.909
21
-79.065
0
LINE
8
Black
10
125.909
20
-79.065
11
126.01
21
-79.3424
0
LINE
8
Black
10
126.01
20
-79.3424
11
126.01
21
-79.6376
0
LINE
8
Black
10
126.01
20
-79.6376
11
125.909
21
-79.915
0
LINE
8
Black
10
125.909
20
-79.915
11
125.72
21
-80.1411
0
LINE
8
Black
10
125.72
20
-80.1411
11
125.464
21
-80.2887
0
LINE
8
Black
10
125.464
20
-80.2887
11
125.173
21
-80.34
0
LINE
8
Black
10
125.173
20
-80.34
11
125.167
21
-80.34
0
LINE
8
Black
10
125.167
20
-80.34
11
124.876
21
-80.2887
0
LINE
8
Black
10
124.876
20
-80.2887
11
124.62
21
-80.1411
0
LINE
8
Black
10
124.62
20
-80.1411
11
124.431
21
-79.915
0
LINE
8
Black
10
124.431
20
-79.915
11
124.33
21
-79.6376
0
LINE
8
Black
10
124.33
20
-79.6376
11
124.33
21
-79.3424
0
LINE
8
Black
10
124.33
20
-79.3424
11
124.431
21
-79.065
0
LINE
8
Black
10
124.431
20
-79.065
11
124.62
21
-78.8389
0
LINE
8
Black
10
124.62
20
-78.8389
11
124.876
21
-78.6913
0
LINE
8
Black
10
124.876
20
-78.6913
11
125.167
21
-78.64
0
LINE
8
Black
10
125.167
20
-78.64
11
125.173
21
-78.64
0
LINE
8
Black
10
125.173
20
-78.64
11
125.464
21
-78.6913
0
LINE
8
Black
10
93.65
20
-79.4062
11
91.75
21
-79.4062
0
LINE
8
Black
10
91.75
20
-79.4062
11
91.75
21
-77.4062
0
LINE
8
Black
10
91.75
20
-77.4062
11
93.65
21
-77.4062
0
LINE
8
Black
10
93.65
20
-77.4062
11
93.65
21
-79.4062
0
LINE
8
Black
10
187.724
20
-77.2313
11
187.98
21
-77.3789
0
LINE
8
Black
10
187.98
20
-77.3789
11
188.169
21
-77.605
0
LINE
8
Black
10
188.169
20
-77.605
11
188.27
21
-77.8824
0
LINE
8
Black
10
188.27
20
-77.8824
11
188.27
21
-78.1776
0
LINE
8
Black
10
188.27
20
-78.1776
11
188.169
21
-78.455
0
LINE
8
Black
10
188.169
20
-78.455
11
187.98
21
-78.6811
0
LINE
8
Black
10
187.98
20
-78.6811
11
187.724
21
-78.8287
0
LINE
8
Black
10
187.724
20
-78.8287
11
187.433
21
-78.88
0
LINE
8
Black
10
187.433
20
-78.88
11
187.427
21
-78.88
0
LINE
8
Black
10
187.427
20
-78.88
11
187.136
21
-78.8287
0
LINE
8
Black
10
187.136
20
-78.8287
11
186.88
21
-78.6811
0
LINE
8
Black
10
186.88
20
-78.6811
11
186.691
21
-78.455
0
LINE
8
Black
10
186.691
20
-78.455
11
186.59
21
-78.1776
0
LINE
8
Black
10
186.59
20
-78.1776
11
186.59
21
-77.8824
0
LINE
8
Black
10
186.59
20
-77.8824
11
186.691
21
-77.605
0
LINE
8
Black
10
186.691
20
-77.605
11
186.88
21
-77.3789
0
LINE
8
Black
10
186.88
20
-77.3789
11
187.136
21
-77.2313
0
LINE
8
Black
10
187.136
20
-77.2313
11
187.427
21
-77.18
0
LINE
8
Black
10
187.427
20
-77.18
11
187.433
21
-77.18
0
LINE
8
Black
10
187.433
20
-77.18
11
187.724
21
-77.2313
0
LINE
8
Black
10
185.184
20
-77.2313
11
185.44
21
-77.3789
0
LINE
8
Black
10
185.44
20
-77.3789
11
185.629
21
-77.605
0
LINE
8
Black
10
185.629
20
-77.605
11
185.73
21
-77.8824
0
LINE
8
Black
10
185.73
20
-77.8824
11
185.73
21
-78.1776
0
LINE
8
Black
10
185.73
20
-78.1776
11
185.629
21
-78.455
0
LINE
8
Black
10
185.629
20
-78.455
11
185.44
21
-78.6811
0
LINE
8
Black
10
185.44
20
-78.6811
11
185.184
21
-78.8287
0
LINE
8
Black
10
185.184
20
-78.8287
11
184.893
21
-78.88
0
LINE
8
Black
10
184.893
20
-78.88
11
184.887
21
-78.88
0
LINE
8
Black
10
184.887
20
-78.88
11
184.596
21
-78.8287
0
LINE
8
Black
10
184.596
20
-78.8287
11
184.34
21
-78.6811
0
LINE
8
Black
10
184.34
20
-78.6811
11
184.151
21
-78.455
0
LINE
8
Black
10
184.151
20
-78.455
11
184.05
21
-78.1776
0
LINE
8
Black
10
184.05
20
-78.1776
11
184.05
21
-77.8824
0
LINE
8
Black
10
184.05
20
-77.8824
11
184.151
21
-77.605
0
LINE
8
Black
10
184.151
20
-77.605
11
184.34
21
-77.3789
0
LINE
8
Black
10
184.34
20
-77.3789
11
184.596
21
-77.2313
0
LINE
8
Black
10
184.596
20
-77.2313
11
184.887
21
-77.18
0
LINE
8
Black
10
184.887
20
-77.18
11
184.893
21
-77.18
0
LINE
8
Black
10
184.893
20
-77.18
11
185.184
21
-77.2313
0
LINE
8
Black
10
98.35
20
-78.5
11
96.85
21
-78.5
0
LINE
8
Black
10
96.85
20
-78.5
11
96.85
21
-77
0
LINE
8
Black
10
96.85
20
-77
11
98.35
21
-77
0
LINE
8
Black
10
98.35
20
-77
11
98.35
21
-78.5
0
LINE
8
Black
10
96.325
20
-77.8
11
95.075
21
-77.8
0
LINE
8
Black
10
95.075
20
-77.8
11
95.075
21
-76.75
0
LINE
8
Black
10
95.075
20
-76.75
11
96.325
21
-76.75
0
LINE
8
Black
10
96.325
20
-76.75
11
96.325
21
-77.8
0
LINE
8
Black
10
126.02
20
-77.8
11
124.32
21
-77.8
0
LINE
8
Black
10
124.32
20
-77.8
11
124.32
21
-76.1
0
LINE
8
Black
10
124.32
20
-76.1
11
126.02
21
-76.1
0
LINE
8
Black
10
126.02
20
-76.1
11
126.02
21
-77.8
0
LINE
8
Black
10
98.35
20
-76.45
11
96.85
21
-76.45
0
LINE
8
Black
10
96.85
20
-76.45
11
96.85
21
-74.95
0
LINE
8
Black
10
96.85
20
-74.95
11
98.35
21
-74.95
0
LINE
8
Black
10
98.35
20
-74.95
11
98.35
21
-76.45
0
LINE
8
Black
10
185.184
20
-74.6913
11
185.44
21
-74.8389
0
LINE
8
Black
10
185.44
20
-74.8389
11
185.629
21
-75.065
0
LINE
8
Black
10
185.629
20
-75.065
11
185.73
21
-75.3424
0
LINE
8
Black
10
185.73
20
-75.3424
11
185.73
21
-75.6376
0
LINE
8
Black
10
185.73
20
-75.6376
11
185.629
21
-75.915
0
LINE
8
Black
10
185.629
20
-75.915
11
185.44
21
-76.1411
0
LINE
8
Black
10
185.44
20
-76.1411
11
185.184
21
-76.2887
0
LINE
8
Black
10
185.184
20
-76.2887
11
184.893
21
-76.34
0
LINE
8
Black
10
184.893
20
-76.34
11
184.887
21
-76.34
0
LINE
8
Black
10
184.887
20
-76.34
11
184.596
21
-76.2887
0
LINE
8
Black
10
184.596
20
-76.2887
11
184.34
21
-76.1411
0
LINE
8
Black
10
184.34
20
-76.1411
11
184.151
21
-75.915
0
LINE
8
Black
10
184.151
20
-75.915
11
184.05
21
-75.6376
0
LINE
8
Black
10
184.05
20
-75.6376
11
184.05
21
-75.3424
0
LINE
8
Black
10
184.05
20
-75.3424
11
184.151
21
-75.065
0
LINE
8
Black
10
184.151
20
-75.065
11
184.34
21
-74.8389
0
LINE
8
Black
10
184.34
20
-74.8389
11
184.596
21
-74.6913
0
LINE
8
Black
10
184.596
20
-74.6913
11
184.887
21
-74.64
0
LINE
8
Black
10
184.887
20
-74.64
11
184.893
21
-74.64
0
LINE
8
Black
10
184.893
20
-74.64
11
185.184
21
-74.6913
0
LINE
8
Black
10
187.724
20
-74.6913
11
187.98
21
-74.8389
0
LINE
8
Black
10
187.98
20
-74.8389
11
188.169
21
-75.065
0
LINE
8
Black
10
188.169
20
-75.065
11
188.27
21
-75.3424
0
LINE
8
Black
10
188.27
20
-75.3424
11
188.27
21
-75.6376
0
LINE
8
Black
10
188.27
20
-75.6376
11
188.169
21
-75.915
0
LINE
8
Black
10
188.169
20
-75.915
11
187.98
21
-76.1411
0
LINE
8
Black
10
187.98
20
-76.1411
11
187.724
21
-76.2887
0
LINE
8
Black
10
187.724
20
-76.2887
11
187.433
21
-76.34
0
LINE
8
Black
10
187.433
20
-76.34
11
187.427
21
-76.34
0
LINE
8
Black
10
187.427
20
-76.34
11
187.136
21
-76.2887
0
LINE
8
Black
10
187.136
20
-76.2887
11
186.88
21
-76.1411
0
LINE
8
Black
10
186.88
20
-76.1411
11
186.691
21
-75.915
0
LINE
8
Black
10
186.691
20
-75.915
11
186.59
21
-75.6376
0
LINE
8
Black
10
186.59
20
-75.6376
11
186.59
21
-75.3424
0
LINE
8
Black
10
186.59
20
-75.3424
11
186.691
21
-75.065
0
LINE
8
Black
10
186.691
20
-75.065
11
186.88
21
-74.8389
0
LINE
8
Black
10
186.88
20
-74.8389
11
187.136
21
-74.6913
0
LINE
8
Black
10
187.136
20
-74.6913
11
187.427
21
-74.64
0
LINE
8
Black
10
187.427
20
-74.64
11
187.433
21
-74.64
0
LINE
8
Black
10
187.433
20
-74.64
11
187.724
21
-74.6913
0
LINE
8
Black
10
98.35
20
-74.4
11
96.85
21
-74.4
0
LINE
8
Black
10
96.85
20
-74.4
11
96.85
21
-72.9
0
LINE
8
Black
10
96.85
20
-72.9
11
98.35
21
-72.9
0
LINE
8
Black
10
98.35
20
-72.9
11
98.35
21
-74.4
0
LINE
8
Black
10
187.724
20
-72.1513
11
187.98
21
-72.2989
0
LINE
8
Black
10
187.98
20
-72.2989
11
188.169
21
-72.525
0
LINE
8
Black
10
188.169
20
-72.525
11
188.27
21
-72.8024
0
LINE
8
Black
10
188.27
20
-72.8024
11
188.27
21
-73.0976
0
LINE
8
Black
10
188.27
20
-73.0976
11
188.169
21
-73.375
0
LINE
8
Black
10
188.169
20
-73.375
11
187.98
21
-73.6011
0
LINE
8
Black
10
187.98
20
-73.6011
11
187.724
21
-73.7487
0
LINE
8
Black
10
187.724
20
-73.7487
11
187.433
21
-73.8
0
LINE
8
Black
10
187.433
20
-73.8
11
187.427
21
-73.8
0
LINE
8
Black
10
187.427
20
-73.8
11
187.136
21
-73.7487
0
LINE
8
Black
10
187.136
20
-73.7487
11
186.88
21
-73.6011
0
LINE
8
Black
10
186.88
20
-73.6011
11
186.691
21
-73.375
0
LINE
8
Black
10
186.691
20
-73.375
11
186.59
21
-73.0976
0
LINE
8
Black
10
186.59
20
-73.0976
11
186.59
21
-72.8024
0
LINE
8
Black
10
186.59
20
-72.8024
11
186.691
21
-72.525
0
LINE
8
Black
10
186.691
20
-72.525
11
186.88
21
-72.2989
0
LINE
8
Black
10
186.88
20
-72.2989
11
187.136
21
-72.1513
0
LINE
8
Black
10
187.136
20
-72.1513
11
187.427
21
-72.1
0
LINE
8
Black
10
187.427
20
-72.1
11
187.433
21
-72.1
0
LINE
8
Black
10
187.433
20
-72.1
11
187.724
21
-72.1513
0
LINE
8
Black
10
185.184
20
-72.1513
11
185.44
21
-72.2989
0
LINE
8
Black
10
185.44
20
-72.2989
11
185.629
21
-72.525
0
LINE
8
Black
10
185.629
20
-72.525
11
185.73
21
-72.8024
0
LINE
8
Black
10
185.73
20
-72.8024
11
185.73
21
-73.0976
0
LINE
8
Black
10
185.73
20
-73.0976
11
185.629
21
-73.375
0
LINE
8
Black
10
185.629
20
-73.375
11
185.44
21
-73.6011
0
LINE
8
Black
10
185.44
20
-73.6011
11
185.184
21
-73.7487
0
LINE
8
Black
10
185.184
20
-73.7487
11
184.893
21
-73.8
0
LINE
8
Black
10
184.893
20
-73.8
11
184.887
21
-73.8
0
LINE
8
Black
10
184.887
20
-73.8
11
184.596
21
-73.7487
0
LINE
8
Black
10
184.596
20
-73.7487
11
184.34
21
-73.6011
0
LINE
8
Black
10
184.34
20
-73.6011
11
184.151
21
-73.375
0
LINE
8
Black
10
184.151
20
-73.375
11
184.05
21
-73.0976
0
LINE
8
Black
10
184.05
20
-73.0976
11
184.05
21
-72.8024
0
LINE
8
Black
10
184.05
20
-72.8024
11
184.151
21
-72.525
0
LINE
8
Black
10
184.151
20
-72.525
11
184.34
21
-72.2989
0
LINE
8
Black
10
184.34
20
-72.2989
11
184.596
21
-72.1513
0
LINE
8
Black
10
184.596
20
-72.1513
11
184.887
21
-72.1
0
LINE
8
Black
10
184.887
20
-72.1
11
184.893
21
-72.1
0
LINE
8
Black
10
184.893
20
-72.1
11
185.184
21
-72.1513
0
LINE
8
Black
10
96.325
20
-72.95
11
95.075
21
-72.95
0
LINE
8
Black
10
95.075
20
-72.95
11
95.075
21
-71.9
0
LINE
8
Black
10
95.075
20
-71.9
11
96.325
21
-71.9
0
LINE
8
Black
10
96.325
20
-71.9
11
96.325
21
-72.95
0
LINE
8
Black
10
98.35
20
-72.35
11
96.85
21
-72.35
0
LINE
8
Black
10
96.85
20
-72.35
11
96.85
21
-70.85
0
LINE
8
Black
10
96.85
20
-70.85
11
98.35
21
-70.85
0
LINE
8
Black
10
98.35
20
-70.85
11
98.35
21
-72.35
0
LINE
8
Black
10
93.65
20
-72.2938
11
91.75
21
-72.2938
0
LINE
8
Black
10
91.75
20
-72.2938
11
91.75
21
-70.2938
0
LINE
8
Black
10
91.75
20
-70.2938
11
93.65
21
-70.2938
0
LINE
8
Black
10
93.65
20
-70.2938
11
93.65
21
-72.2938
0
LINE
8
Black
10
187.724
20
-69.6113
11
187.98
21
-69.7589
0
LINE
8
Black
10
187.98
20
-69.7589
11
188.169
21
-69.985
0
LINE
8
Black
10
188.169
20
-69.985
11
188.27
21
-70.2624
0
LINE
8
Black
10
188.27
20
-70.2624
11
188.27
21
-70.5576
0
LINE
8
Black
10
188.27
20
-70.5576
11
188.169
21
-70.835
0
LINE
8
Black
10
188.169
20
-70.835
11
187.98
21
-71.0611
0
LINE
8
Black
10
187.98
20
-71.0611
11
187.724
21
-71.2087
0
LINE
8
Black
10
187.724
20
-71.2087
11
187.433
21
-71.26
0
LINE
8
Black
10
187.433
20
-71.26
11
187.427
21
-71.26
0
LINE
8
Black
10
187.427
20
-71.26
11
187.136
21
-71.2087
0
LINE
8
Black
10
187.136
20
-71.2087
11
186.88
21
-71.0611
0
LINE
8
Black
10
186.88
20
-71.0611
11
186.691
21
-70.835
0
LINE
8
Black
10
186.691
20
-70.835
11
186.59
21
-70.5576
0
LINE
8
Black
10
186.59
20
-70.5576
11
186.59
21
-70.2624
0
LINE
8
Black
10
186.59
20
-70.2624
11
186.691
21
-69.985
0
LINE
8
Black
10
186.691
20
-69.985
11
186.88
21
-69.7589
0
LINE
8
Black
10
186.88
20
-69.7589
11
187.136
21
-69.6113
0
LINE
8
Black
10
187.136
20
-69.6113
11
187.427
21
-69.56
0
LINE
8
Black
10
187.427
20
-69.56
11
187.433
21
-69.56
0
LINE
8
Black
10
187.433
20
-69.56
11
187.724
21
-69.6113
0
LINE
8
Black
10
185.74
20
-71.26
11
184.04
21
-71.26
0
LINE
8
Black
10
184.04
20
-71.26
11
184.04
21
-69.56
0
LINE
8
Black
10
184.04
20
-69.56
11
185.74
21
-69.56
0
LINE
8
Black
10
185.74
20
-69.56
11
185.74
21
-71.26
0
LINE
8
Black
10
182.051
20
-60.1388
11
182.897
21
-60.6269
0
LINE
8
Black
10
182.897
20
-60.6269
11
183.524
21
-61.3747
0
LINE
8
Black
10
183.524
20
-61.3747
11
183.858
21
-62.2919
0
LINE
8
Black
10
183.858
20
-62.2919
11
183.858
21
-63.2681
0
LINE
8
Black
10
183.858
20
-63.2681
11
183.524
21
-64.1853
0
LINE
8
Black
10
183.524
20
-64.1853
11
182.897
21
-64.9331
0
LINE
8
Black
10
182.897
20
-64.9331
11
182.051
21
-65.4212
0
LINE
8
Black
10
182.051
20
-65.4212
11
181.09
21
-65.5907
0
LINE
8
Black
10
181.09
20
-65.5907
11
180.129
21
-65.4212
0
LINE
8
Black
10
180.129
20
-65.4212
11
179.283
21
-64.9331
0
LINE
8
Black
10
179.283
20
-64.9331
11
178.656
21
-64.1853
0
LINE
8
Black
10
178.656
20
-64.1853
11
178.322
21
-63.2681
0
LINE
8
Black
10
178.322
20
-63.2681
11
178.322
21
-62.2919
0
LINE
8
Black
10
178.322
20
-62.2919
11
178.656
21
-61.3747
0
LINE
8
Black
10
178.656
20
-61.3747
11
179.283
21
-60.6269
0
LINE
8
Black
10
179.283
20
-60.6269
11
180.129
21
-60.1388
0
LINE
8
Black
10
180.129
20
-60.1388
11
181.09
21
-59.9693
0
LINE
8
Black
10
181.09
20
-59.9693
11
182.051
21
-60.1388
0
LINE
8
Black
10
107.111
20
-60.1288
11
107.957
21
-60.6169
0
LINE
8
Black
10
107.957
20
-60.6169
11
108.584
21
-61.3647
0
LINE
8
Black
10
108.584
20
-61.3647
11
108.918
21
-62.2819
0
LINE
8
Black
10
108.918
20
-62.2819
11
108.918
21
-63.2581
0
LINE
8
Black
10
108.918
20
-63.2581
11
108.584
21
-64.1753
0
LINE
8
Black
10
108.584
20
-64.1753
11
107.957
21
-64.9231
0
LINE
8
Black
10
107.957
20
-64.9231
11
107.111
21
-65.4112
0
LINE
8
Black
10
107.111
20
-65.4112
11
106.15
21
-65.5807
0
LINE
8
Black
10
106.15
20
-65.5807
11
105.189
21
-65.4112
0
LINE
8
Black
10
105.189
20
-65.4112
11
104.343
21
-64.9231
0
LINE
8
Black
10
104.343
20
-64.9231
11
103.716
21
-64.1753
0
LINE
8
Black
10
103.716
20
-64.1753
11
103.382
21
-63.2581
0
LINE
8
Black
10
103.382
20
-63.2581
11
103.382
21
-62.2819
0
LINE
8
Black
10
103.382
20
-62.2819
11
103.716
21
-61.3647
0
LINE
8
Black
10
103.716
20
-61.3647
11
104.343
21
-60.6169
0
LINE
8
Black
10
104.343
20
-60.6169
11
105.189
21
-60.1288
0
LINE
8
Black
10
105.189
20
-60.1288
11
106.15
21
-59.9593
0
LINE
8
Black
10
106.15
20
-59.9593
11
107.111
21
-60.1288
0
LINE
8
Black
10
129.88
20
-63.64
11
128.18
21
-63.64
0
LINE
8
Black
10
128.18
20
-63.64
11
128.18
21
-61.94
0
LINE
8
Black
10
128.18
20
-61.94
11
129.88
21
-61.94
0
LINE
8
Black
10
129.88
20
-61.94
11
129.88
21
-63.64
0
LINE
8
Black
10
137.075
20
-62.0506
11
137.301
21
-62.2404
0
LINE
8
Black
10
137.301
20
-62.2404
11
137.449
21
-62.496
0
LINE
8
Black
10
137.449
20
-62.496
11
137.5
21
-62.7868
0
LINE
8
Black
10
137.5
20
-62.7868
11
137.5
21
-62.7932
0
LINE
8
Black
10
137.5
20
-62.7932
11
137.449
21
-63.084
0
LINE
8
Black
10
137.449
20
-63.084
11
137.301
21
-63.3396
0
LINE
8
Black
10
137.301
20
-63.3396
11
137.075
21
-63.5294
0
LINE
8
Black
10
137.075
20
-63.5294
11
136.798
21
-63.6303
0
LINE
8
Black
10
136.798
20
-63.6303
11
136.502
21
-63.6303
0
LINE
8
Black
10
136.502
20
-63.6303
11
136.225
21
-63.5294
0
LINE
8
Black
10
136.225
20
-63.5294
11
135.999
21
-63.3396
0
LINE
8
Black
10
135.999
20
-63.3396
11
135.851
21
-63.084
0
LINE
8
Black
10
135.851
20
-63.084
11
135.8
21
-62.7932
0
LINE
8
Black
10
135.8
20
-62.7932
11
135.8
21
-62.7868
0
LINE
8
Black
10
135.8
20
-62.7868
11
135.851
21
-62.496
0
LINE
8
Black
10
135.851
20
-62.496
11
135.999
21
-62.2404
0
LINE
8
Black
10
135.999
20
-62.2404
11
136.225
21
-62.0506
0
LINE
8
Black
10
136.225
20
-62.0506
11
136.502
21
-61.9497
0
LINE
8
Black
10
136.502
20
-61.9497
11
136.798
21
-61.9497
0
LINE
8
Black
10
136.798
20
-61.9497
11
137.075
21
-62.0506
0
LINE
8
Black
10
134.535
20
-62.0506
11
134.761
21
-62.2404
0
LINE
8
Black
10
134.761
20
-62.2404
11
134.909
21
-62.496
0
LINE
8
Black
10
134.909
20
-62.496
11
134.96
21
-62.7868
0
LINE
8
Black
10
134.96
20
-62.7868
11
134.96
21
-62.7932
0
LINE
8
Black
10
134.96
20
-62.7932
11
134.909
21
-63.084
0
LINE
8
Black
10
134.909
20
-63.084
11
134.761
21
-63.3396
0
LINE
8
Black
10
134.761
20
-63.3396
11
134.535
21
-63.5294
0
LINE
8
Black
10
134.535
20
-63.5294
11
134.258
21
-63.6303
0
LINE
8
Black
10
134.258
20
-63.6303
11
133.962
21
-63.6303
0
LINE
8
Black
10
133.962
20
-63.6303
11
133.685
21
-63.5294
0
LINE
8
Black
10
133.685
20
-63.5294
11
133.459
21
-63.3396
0
LINE
8
Black
10
133.459
20
-63.3396
11
133.311
21
-63.084
0
LINE
8
Black
10
133.311
20
-63.084
11
133.26
21
-62.7932
0
LINE
8
Black
10
133.26
20
-62.7932
11
133.26
21
-62.7868
0
LINE
8
Black
10
133.26
20
-62.7868
11
133.311
21
-62.496
0
LINE
8
Black
10
133.311
20
-62.496
11
133.459
21
-62.2404
0
LINE
8
Black
10
133.459
20
-62.2404
11
133.685
21
-62.0506
0
LINE
8
Black
10
133.685
20
-62.0506
11
133.962
21
-61.9497
0
LINE
8
Black
10
133.962
20
-61.9497
11
134.258
21
-61.9497
0
LINE
8
Black
10
134.258
20
-61.9497
11
134.535
21
-62.0506
0
LINE
8
Black
10
131.995
20
-62.0506
11
132.221
21
-62.2404
0
LINE
8
Black
10
132.221
20
-62.2404
11
132.369
21
-62.496
0
LINE
8
Black
10
132.369
20
-62.496
11
132.42
21
-62.7868
0
LINE
8
Black
10
132.42
20
-62.7868
11
132.42
21
-62.7932
0
LINE
8
Black
10
132.42
20
-62.7932
11
132.369
21
-63.084
0
LINE
8
Black
10
132.369
20
-63.084
11
132.221
21
-63.3396
0
LINE
8
Black
10
132.221
20
-63.3396
11
131.995
21
-63.5294
0
LINE
8
Black
10
131.995
20
-63.5294
11
131.718
21
-63.6303
0
LINE
8
Black
10
131.718
20
-63.6303
11
131.422
21
-63.6303
0
LINE
8
Black
10
131.422
20
-63.6303
11
131.145
21
-63.5294
0
LINE
8
Black
10
131.145
20
-63.5294
11
130.919
21
-63.3396
0
LINE
8
Black
10
130.919
20
-63.3396
11
130.771
21
-63.084
0
LINE
8
Black
10
130.771
20
-63.084
11
130.72
21
-62.7932
0
LINE
8
Black
10
130.72
20
-62.7932
11
130.72
21
-62.7868
0
LINE
8
Black
10
130.72
20
-62.7868
11
130.771
21
-62.496
0
LINE
8
Black
10
130.771
20
-62.496
11
130.919
21
-62.2404
0
LINE
8
Black
10
130.919
20
-62.2404
11
131.145
21
-62.0506
0
LINE
8
Black
10
131.145
20
-62.0506
11
131.422
21
-61.9497
0
LINE
8
Black
10
131.422
20
-61.9497
11
131.718
21
-61.9497
0
LINE
8
Black
10
131.718
20
-61.9497
11
131.995
21
-62.0506
0
LINE
8
Black
10
142.59
20
-63.63
11
140.89
21
-63.63
0
LINE
8
Black
10
140.89
20
-63.63
11
140.89
21
-61.93
0
LINE
8
Black
10
140.89
20
-61.93
11
142.59
21
-61.93
0
LINE
8
Black
10
142.59
20
-61.93
11
142.59
21
-63.63
0
LINE
8
Black
10
149.785
20
-62.0406
11
150.011
21
-62.2304
0
LINE
8
Black
10
150.011
20
-62.2304
11
150.159
21
-62.486
0
LINE
8
Black
10
150.159
20
-62.486
11
150.21
21
-62.7768
0
LINE
8
Black
10
150.21
20
-62.7768
11
150.21
21
-62.7832
0
LINE
8
Black
10
150.21
20
-62.7832
11
150.159
21
-63.074
0
LINE
8
Black
10
150.159
20
-63.074
11
150.011
21
-63.3296
0
LINE
8
Black
10
150.011
20
-63.3296
11
149.785
21
-63.5194
0
LINE
8
Black
10
149.785
20
-63.5194
11
149.508
21
-63.6203
0
LINE
8
Black
10
149.508
20
-63.6203
11
149.212
21
-63.6203
0
LINE
8
Black
10
149.212
20
-63.6203
11
148.935
21
-63.5194
0
LINE
8
Black
10
148.935
20
-63.5194
11
148.709
21
-63.3296
0
LINE
8
Black
10
148.709
20
-63.3296
11
148.561
21
-63.074
0
LINE
8
Black
10
148.561
20
-63.074
11
148.51
21
-62.7832
0
LINE
8
Black
10
148.51
20
-62.7832
11
148.51
21
-62.7768
0
LINE
8
Black
10
148.51
20
-62.7768
11
148.561
21
-62.486
0
LINE
8
Black
10
148.561
20
-62.486
11
148.709
21
-62.2304
0
LINE
8
Black
10
148.709
20
-62.2304
11
148.935
21
-62.0406
0
LINE
8
Black
10
148.935
20
-62.0406
11
149.212
21
-61.9397
0
LINE
8
Black
10
149.212
20
-61.9397
11
149.508
21
-61.9397
0
LINE
8
Black
10
149.508
20
-61.9397
11
149.785
21
-62.0406
0
LINE
8
Black
10
147.245
20
-62.0406
11
147.471
21
-62.2304
0
LINE
8
Black
10
147.471
20
-62.2304
11
147.619
21
-62.486
0
LINE
8
Black
10
147.619
20
-62.486
11
147.67
21
-62.7768
0
LINE
8
Black
10
147.67
20
-62.7768
11
147.67
21
-62.7832
0
LINE
8
Black
10
147.67
20
-62.7832
11
147.619
21
-63.074
0
LINE
8
Black
10
147.619
20
-63.074
11
147.471
21
-63.3296
0
LINE
8
Black
10
147.471
20
-63.3296
11
147.245
21
-63.5194
0
LINE
8
Black
10
147.245
20
-63.5194
11
146.968
21
-63.6203
0
LINE
8
Black
10
146.968
20
-63.6203
11
146.672
21
-63.6203
0
LINE
8
Black
10
146.672
20
-63.6203
11
146.395
21
-63.5194
0
LINE
8
Black
10
146.395
20
-63.5194
11
146.169
21
-63.3296
0
LINE
8
Black
10
146.169
20
-63.3296
11
146.021
21
-63.074
0
LINE
8
Black
10
146.021
20
-63.074
11
145.97
21
-62.7832
0
LINE
8
Black
10
145.97
20
-62.7832
11
145.97
21
-62.7768
0
LINE
8
Black
10
145.97
20
-62.7768
11
146.021
21
-62.486
0
LINE
8
Black
10
146.021
20
-62.486
11
146.169
21
-62.2304
0
LINE
8
Black
10
146.169
20
-62.2304
11
146.395
21
-62.0406
0
LINE
8
Black
10
146.395
20
-62.0406
11
146.672
21
-61.9397
0
LINE
8
Black
10
146.672
20
-61.9397
11
146.968
21
-61.9397
0
LINE
8
Black
10
146.968
20
-61.9397
11
147.245
21
-62.0406
0
LINE
8
Black
10
144.705
20
-62.0406
11
144.931
21
-62.2304
0
LINE
8
Black
10
144.931
20
-62.2304
11
145.079
21
-62.486
0
LINE
8
Black
10
145.079
20
-62.486
11
145.13
21
-62.7768
0
LINE
8
Black
10
145.13
20
-62.7768
11
145.13
21
-62.7832
0
LINE
8
Black
10
145.13
20
-62.7832
11
145.079
21
-63.074
0
LINE
8
Black
10
145.079
20
-63.074
11
144.931
21
-63.3296
0
LINE
8
Black
10
144.931
20
-63.3296
11
144.705
21
-63.5194
0
LINE
8
Black
10
144.705
20
-63.5194
11
144.428
21
-63.6203
0
LINE
8
Black
10
144.428
20
-63.6203
11
144.132
21
-63.6203
0
LINE
8
Black
10
144.132
20
-63.6203
11
143.855
21
-63.5194
0
LINE
8
Black
10
143.855
20
-63.5194
11
143.629
21
-63.3296
0
LINE
8
Black
10
143.629
20
-63.3296
11
143.481
21
-63.074
0
LINE
8
Black
10
143.481
20
-63.074
11
143.43
21
-62.7832
0
LINE
8
Black
10
143.43
20
-62.7832
11
143.43
21
-62.7768
0
LINE
8
Black
10
143.43
20
-62.7768
11
143.481
21
-62.486
0
LINE
8
Black
10
143.481
20
-62.486
11
143.629
21
-62.2304
0
LINE
8
Black
10
143.629
20
-62.2304
11
143.855
21
-62.0406
0
LINE
8
Black
10
143.855
20
-62.0406
11
144.132
21
-61.9397
0
LINE
8
Black
10
144.132
20
-61.9397
11
144.428
21
-61.9397
0
LINE
8
Black
10
144.428
20
-61.9397
11
144.705
21
-62.0406
0
LINE
8
Black
10
173.07
20
-63.62
11
171.37
21
-63.62
0
LINE
8
Black
10
171.37
20
-63.62
11
171.37
21
-61.92
0
LINE
8
Black
10
171.37
20
-61.92
11
173.07
21
-61.92
0
LINE
8
Black
10
173.07
20
-61.92
11
173.07
21
-63.62
0
LINE
8
Black
10
159.945
20
-62.0306
11
160.171
21
-62.2204
0
LINE
8
Black
10
160.171
20
-62.2204
11
160.319
21
-62.476
0
LINE
8
Black
10
160.319
20
-62.476
11
160.37
21
-62.7668
0
LINE
8
Black
10
160.37
20
-62.7668
11
160.37
21
-62.7732
0
LINE
8
Black
10
160.37
20
-62.7732
11
160.319
21
-63.064
0
LINE
8
Black
10
160.319
20
-63.064
11
160.171
21
-63.3196
0
LINE
8
Black
10
160.171
20
-63.3196
11
159.945
21
-63.5094
0
LINE
8
Black
10
159.945
20
-63.5094
11
159.668
21
-63.6103
0
LINE
8
Black
10
159.668
20
-63.6103
11
159.372
21
-63.6103
0
LINE
8
Black
10
159.372
20
-63.6103
11
159.095
21
-63.5094
0
LINE
8
Black
10
159.095
20
-63.5094
11
158.869
21
-63.3196
0
LINE
8
Black
10
158.869
20
-63.3196
11
158.721
21
-63.064
0
LINE
8
Black
10
158.721
20
-63.064
11
158.67
21
-62.7732
0
LINE
8
Black
10
158.67
20
-62.7732
11
158.67
21
-62.7668
0
LINE
8
Black
10
158.67
20
-62.7668
11
158.721
21
-62.476
0
LINE
8
Black
10
158.721
20
-62.476
11
158.869
21
-62.2204
0
LINE
8
Black
10
158.869
20
-62.2204
11
159.095
21
-62.0306
0
LINE
8
Black
10
159.095
20
-62.0306
11
159.372
21
-61.9297
0
LINE
8
Black
10
159.372
20
-61.9297
11
159.668
21
-61.9297
0
LINE
8
Black
10
159.668
20
-61.9297
11
159.945
21
-62.0306
0
LINE
8
Black
10
157.405
20
-62.0306
11
157.631
21
-62.2204
0
LINE
8
Black
10
157.631
20
-62.2204
11
157.779
21
-62.476
0
LINE
8
Black
10
157.779
20
-62.476
11
157.83
21
-62.7668
0
LINE
8
Black
10
157.83
20
-62.7668
11
157.83
21
-62.7732
0
LINE
8
Black
10
157.83
20
-62.7732
11
157.779
21
-63.064
0
LINE
8
Black
10
157.779
20
-63.064
11
157.631
21
-63.3196
0
LINE
8
Black
10
157.631
20
-63.3196
11
157.405
21
-63.5094
0
LINE
8
Black
10
157.405
20
-63.5094
11
157.128
21
-63.6103
0
LINE
8
Black
10
157.128
20
-63.6103
11
156.832
21
-63.6103
0
LINE
8
Black
10
156.832
20
-63.6103
11
156.555
21
-63.5094
0
LINE
8
Black
10
156.555
20
-63.5094
11
156.329
21
-63.3196
0
LINE
8
Black
10
156.329
20
-63.3196
11
156.181
21
-63.064
0
LINE
8
Black
10
156.181
20
-63.064
11
156.13
21
-62.7732
0
LINE
8
Black
10
156.13
20
-62.7732
11
156.13
21
-62.7668
0
LINE
8
Black
10
156.13
20
-62.7668
11
156.181
21
-62.476
0
LINE
8
Black
10
156.181
20
-62.476
11
156.329
21
-62.2204
0
LINE
8
Black
10
156.329
20
-62.2204
11
156.555
21
-62.0306
0
LINE
8
Black
10
156.555
20
-62.0306
11
156.832
21
-61.9297
0
LINE
8
Black
10
156.832
20
-61.9297
11
157.128
21
-61.9297
0
LINE
8
Black
10
157.128
20
-61.9297
11
157.405
21
-62.0306
0
LINE
8
Black
10
154.865
20
-62.0306
11
155.091
21
-62.2204
0
LINE
8
Black
10
155.091
20
-62.2204
11
155.239
21
-62.476
0
LINE
8
Black
10
155.239
20
-62.476
11
155.29
21
-62.7668
0
LINE
8
Black
10
155.29
20
-62.7668
11
155.29
21
-62.7732
0
LINE
8
Black
10
155.29
20
-62.7732
11
155.239
21
-63.064
0
LINE
8
Black
10
155.239
20
-63.064
11
155.091
21
-63.3196
0
LINE
8
Black
10
155.091
20
-63.3196
11
154.865
21
-63.5094
0
LINE
8
Black
10
154.865
20
-63.5094
11
154.588
21
-63.6103
0
LINE
8
Black
10
154.588
20
-63.6103
11
154.292
21
-63.6103
0
LINE
8
Black
10
154.292
20
-63.6103
11
154.015
21
-63.5094
0
LINE
8
Black
10
154.015
20
-63.5094
11
153.789
21
-63.3196
0
LINE
8
Black
10
153.789
20
-63.3196
11
153.641
21
-63.064
0
LINE
8
Black
10
153.641
20
-63.064
11
153.59
21
-62.7732
0
LINE
8
Black
10
153.59
20
-62.7732
11
153.59
21
-62.7668
0
LINE
8
Black
10
153.59
20
-62.7668
11
153.641
21
-62.476
0
LINE
8
Black
10
153.641
20
-62.476
11
153.789
21
-62.2204
0
LINE
8
Black
10
153.789
20
-62.2204
11
154.015
21
-62.0306
0
LINE
8
Black
10
154.015
20
-62.0306
11
154.292
21
-61.9297
0
LINE
8
Black
10
154.292
20
-61.9297
11
154.588
21
-61.9297
0
LINE
8
Black
10
154.588
20
-61.9297
11
154.865
21
-62.0306
0
LINE
8
Black
10
162.485
20
-62.0306
11
162.711
21
-62.2204
0
LINE
8
Black
10
162.711
20
-62.2204
11
162.859
21
-62.476
0
LINE
8
Black
10
162.859
20
-62.476
11
162.91
21
-62.7668
0
LINE
8
Black
10
162.91
20
-62.7668
11
162.91
21
-62.7732
0
LINE
8
Black
10
162.91
20
-62.7732
11
162.859
21
-63.064
0
LINE
8
Black
10
162.859
20
-63.064
11
162.711
21
-63.3196
0
LINE
8
Black
10
162.711
20
-63.3196
11
162.485
21
-63.5094
0
LINE
8
Black
10
162.485
20
-63.5094
11
162.208
21
-63.6103
0
LINE
8
Black
10
162.208
20
-63.6103
11
161.912
21
-63.6103
0
LINE
8
Black
10
161.912
20
-63.6103
11
161.635
21
-63.5094
0
LINE
8
Black
10
161.635
20
-63.5094
11
161.409
21
-63.3196
0
LINE
8
Black
10
161.409
20
-63.3196
11
161.261
21
-63.064
0
LINE
8
Black
10
161.261
20
-63.064
11
161.21
21
-62.7732
0
LINE
8
Black
10
161.21
20
-62.7732
11
161.21
21
-62.7668
0
LINE
8
Black
10
161.21
20
-62.7668
11
161.261
21
-62.476
0
LINE
8
Black
10
161.261
20
-62.476
11
161.409
21
-62.2204
0
LINE
8
Black
10
161.409
20
-62.2204
11
161.635
21
-62.0306
0
LINE
8
Black
10
161.635
20
-62.0306
11
161.912
21
-61.9297
0
LINE
8
Black
10
161.912
20
-61.9297
11
162.208
21
-61.9297
0
LINE
8
Black
10
162.208
20
-61.9297
11
162.485
21
-62.0306
0
LINE
8
Black
10
165.025
20
-62.0306
11
165.251
21
-62.2204
0
LINE
8
Black
10
165.251
20
-62.2204
11
165.399
21
-62.476
0
LINE
8
Black
10
165.399
20
-62.476
11
165.45
21
-62.7668
0
LINE
8
Black
10
165.45
20
-62.7668
11
165.45
21
-62.7732
0
LINE
8
Black
10
165.45
20
-62.7732
11
165.399
21
-63.064
0
LINE
8
Black
10
165.399
20
-63.064
11
165.251
21
-63.3196
0
LINE
8
Black
10
165.251
20
-63.3196
11
165.025
21
-63.5094
0
LINE
8
Black
10
165.025
20
-63.5094
11
164.748
21
-63.6103
0
LINE
8
Black
10
164.748
20
-63.6103
11
164.452
21
-63.6103
0
LINE
8
Black
10
164.452
20
-63.6103
11
164.175
21
-63.5094
0
LINE
8
Black
10
164.175
20
-63.5094
11
163.949
21
-63.3196
0
LINE
8
Black
10
163.949
20
-63.3196
11
163.801
21
-63.064
0
LINE
8
Black
10
163.801
20
-63.064
11
163.75
21
-62.7732
0
LINE
8
Black
10
163.75
20
-62.7732
11
163.75
21
-62.7668
0
LINE
8
Black
10
163.75
20
-62.7668
11
163.801
21
-62.476
0
LINE
8
Black
10
163.801
20
-62.476
11
163.949
21
-62.2204
0
LINE
8
Black
10
163.949
20
-62.2204
11
164.175
21
-62.0306
0
LINE
8
Black
10
164.175
20
-62.0306
11
164.452
21
-61.9297
0
LINE
8
Black
10
164.452
20
-61.9297
11
164.748
21
-61.9297
0
LINE
8
Black
10
164.748
20
-61.9297
11
165.025
21
-62.0306
0
LINE
8
Black
10
167.565
20
-62.0306
11
167.791
21
-62.2204
0
LINE
8
Black
10
167.791
20
-62.2204
11
167.939
21
-62.476
0
LINE
8
Black
10
167.939
20
-62.476
11
167.99
21
-62.7668
0
LINE
8
Black
10
167.99
20
-62.7668
11
167.99
21
-62.7732
0
LINE
8
Black
10
167.99
20
-62.7732
11
167.939
21
-63.064
0
LINE
8
Black
10
167.939
20
-63.064
11
167.791
21
-63.3196
0
LINE
8
Black
10
167.791
20
-63.3196
11
167.565
21
-63.5094
0
LINE
8
Black
10
167.565
20
-63.5094
11
167.288
21
-63.6103
0
LINE
8
Black
10
167.288
20
-63.6103
11
166.992
21
-63.6103
0
LINE
8
Black
10
166.992
20
-63.6103
11
166.715
21
-63.5094
0
LINE
8
Black
10
166.715
20
-63.5094
11
166.489
21
-63.3196
0
LINE
8
Black
10
166.489
20
-63.3196
11
166.341
21
-63.064
0
LINE
8
Black
10
166.341
20
-63.064
11
166.29
21
-62.7732
0
LINE
8
Black
10
166.29
20
-62.7732
11
166.29
21
-62.7668
0
LINE
8
Black
10
166.29
20
-62.7668
11
166.341
21
-62.476
0
LINE
8
Black
10
166.341
20
-62.476
11
166.489
21
-62.2204
0
LINE
8
Black
10
166.489
20
-62.2204
11
166.715
21
-62.0306
0
LINE
8
Black
10
166.715
20
-62.0306
11
166.992
21
-61.9297
0
LINE
8
Black
10
166.992
20
-61.9297
11
167.288
21
-61.9297
0
LINE
8
Black
10
167.288
20
-61.9297
11
167.565
21
-62.0306
0
LINE
8
Black
10
170.105
20
-62.0306
11
170.331
21
-62.2204
0
LINE
8
Black
10
170.331
20
-62.2204
11
170.479
21
-62.476
0
LINE
8
Black
10
170.479
20
-62.476
11
170.53
21
-62.7668
0
LINE
8
Black
10
170.53
20
-62.7668
11
170.53
21
-62.7732
0
LINE
8
Black
10
170.53
20
-62.7732
11
170.479
21
-63.064
0
LINE
8
Black
10
170.479
20
-63.064
11
170.331
21
-63.3196
0
LINE
8
Black
10
170.331
20
-63.3196
11
170.105
21
-63.5094
0
LINE
8
Black
10
170.105
20
-63.5094
11
169.828
21
-63.6103
0
LINE
8
Black
10
169.828
20
-63.6103
11
169.532
21
-63.6103
0
LINE
8
Black
10
169.532
20
-63.6103
11
169.255
21
-63.5094
0
LINE
8
Black
10
169.255
20
-63.5094
11
169.029
21
-63.3196
0
LINE
8
Black
10
169.029
20
-63.3196
11
168.881
21
-63.064
0
LINE
8
Black
10
168.881
20
-63.064
11
168.83
21
-62.7732
0
LINE
8
Black
10
168.83
20
-62.7732
11
168.83
21
-62.7668
0
LINE
8
Black
10
168.83
20
-62.7668
11
168.881
21
-62.476
0
LINE
8
Black
10
168.881
20
-62.476
11
169.029
21
-62.2204
0
LINE
8
Black
10
169.029
20
-62.2204
11
169.255
21
-62.0306
0
LINE
8
Black
10
169.255
20
-62.0306
11
169.532
21
-61.9297
0
LINE
8
Black
10
169.532
20
-61.9297
11
169.828
21
-61.9297
0
LINE
8
Black
10
169.828
20
-61.9297
11
170.105
21
-62.0306
  0
ENDSEC
  0
EOF
