  0
SECTION
  2
HEADER
  9
$ANGBASE
  50
0.0
  9
$ANGDIR
  70
  1
  9
$MEASUREMENT
  70
0
  0
ENDSEC
  0
SECTION
  2
TABLES
  0
TABLE
  2
LTYPE
  70
1
  0
LTYPE
  2
CONTINUOUS
  70
0
  3
Solid line
  72
65
  73
0
  40
0.0
  0
ENDTAB
  0
TABLE
  2
STYLE
  70
4
  0
STYLE
  2
KICAD
  70
0
  40
0
  41
1
  42
1
  50
0
  71
0
  3
isocp.shx
  0
STYLE
  2
KICADB
  70
0
  40
0
  41
1
  42
1
  50
0
  71
0
  3
isocp.shx
  0
STYLE
  2
KICADI
  70
0
  40
0
  41
1
  42
1
  50
15
  71
0
  3
isocp.shx
  0
STYLE
  2
KICADBI
  70
0
  40
0
  41
1
  42
1
  50
15
  71
0
  3
isocp.shx
  0
ENDTAB
  0
TABLE
  2
LAYER
  70
30
  0
LAYER
  2
BLACK
  70
0
  62
7
  6
CONTINUOUS
  0
LAYER
  2
GRAY1
  70
0
  62
251
  6
CONTINUOUS
  0
LAYER
  2
GRAY2
  70
0
  62
8
  6
CONTINUOUS
  0
LAYER
  2
GRAY3
  70
0
  62
9
  6
CONTINUOUS
  0
LAYER
  2
WHITE
  70
0
  62
7
  6
CONTINUOUS
  0
LAYER
  2
LYELLOW
  70
0
  62
51
  6
CONTINUOUS
  0
LAYER
  2
BLUE1
  70
0
  62
178
  6
CONTINUOUS
  0
LAYER
  2
GREEN1
  70
0
  62
98
  6
CONTINUOUS
  0
LAYER
  2
CYAN1
  70
0
  62
138
  6
CONTINUOUS
  0
LAYER
  2
RED1
  70
0
  62
18
  6
CONTINUOUS
  0
LAYER
  2
MAGENTA1
  70
0
  62
228
  6
CONTINUOUS
  0
LAYER
  2
BROWN1
  70
0
  62
58
  6
CONTINUOUS
  0
LAYER
  2
BLUE2
  70
0
  62
5
  6
CONTINUOUS
  0
LAYER
  2
GREEN2
  70
0
  62
3
  6
CONTINUOUS
  0
LAYER
  2
CYAN2
  70
0
  62
4
  6
CONTINUOUS
  0
LAYER
  2
RED2
  70
0
  62
1
  6
CONTINUOUS
  0
LAYER
  2
MAGENTA2
  70
0
  62
6
  6
CONTINUOUS
  0
LAYER
  2
BROWN2
  70
0
  62
54
  6
CONTINUOUS
  0
LAYER
  2
BLUE3
  70
0
  62
171
  6
CONTINUOUS
  0
LAYER
  2
GREEN3
  70
0
  62
91
  6
CONTINUOUS
  0
LAYER
  2
CYAN3
  70
0
  62
131
  6
CONTINUOUS
  0
LAYER
  2
RED3
  70
0
  62
11
  6
CONTINUOUS
  0
LAYER
  2
MAGENTA3
  70
0
  62
221
  6
CONTINUOUS
  0
LAYER
  2
YELLOW3
  70
0
  62
2
  6
CONTINUOUS
  0
LAYER
  2
BLUE4
  70
0
  62
5
  6
CONTINUOUS
  0
LAYER
  2
GREEN4
  70
0
  62
3
  6
CONTINUOUS
  0
LAYER
  2
CYAN4
  70
0
  62
4
  6
CONTINUOUS
  0
LAYER
  2
RED4
  70
0
  62
1
  6
CONTINUOUS
  0
LAYER
  2
MAGENTA4
  70
0
  62
6
  6
CONTINUOUS
  0
LAYER
  2
YELLOW4
  70
0
  62
2
  6
CONTINUOUS
  0
ENDTAB
  0
ENDSEC
  0
SECTION
  2
ENTITIES
0
LINE
8
Black
10
105.841
20
-108.379
11
106.687
21
-108.867
0
LINE
8
Black
10
106.687
20
-108.867
11
107.314
21
-109.615
0
LINE
8
Black
10
107.314
20
-109.615
11
107.648
21
-110.532
0
LINE
8
Black
10
107.648
20
-110.532
11
107.648
21
-111.508
0
LINE
8
Black
10
107.648
20
-111.508
11
107.314
21
-112.425
0
LINE
8
Black
10
107.314
20
-112.425
11
106.687
21
-113.173
0
LINE
8
Black
10
106.687
20
-113.173
11
105.841
21
-113.661
0
LINE
8
Black
10
105.841
20
-113.661
11
104.88
21
-113.831
0
LINE
8
Black
10
104.88
20
-113.831
11
103.919
21
-113.661
0
LINE
8
Black
10
103.919
20
-113.661
11
103.073
21
-113.173
0
LINE
8
Black
10
103.073
20
-113.173
11
102.446
21
-112.425
0
LINE
8
Black
10
102.446
20
-112.425
11
102.112
21
-111.508
0
LINE
8
Black
10
102.112
20
-111.508
11
102.112
21
-110.532
0
LINE
8
Black
10
102.112
20
-110.532
11
102.446
21
-109.615
0
LINE
8
Black
10
102.446
20
-109.615
11
103.073
21
-108.867
0
LINE
8
Black
10
103.073
20
-108.867
11
103.919
21
-108.379
0
LINE
8
Black
10
103.919
20
-108.379
11
104.88
21
-108.209
0
LINE
8
Black
10
104.88
20
-108.209
11
105.841
21
-108.379
0
LINE
8
Black
10
188.381
20
-108.369
11
189.227
21
-108.857
0
LINE
8
Black
10
189.227
20
-108.857
11
189.854
21
-109.605
0
LINE
8
Black
10
189.854
20
-109.605
11
190.188
21
-110.522
0
LINE
8
Black
10
190.188
20
-110.522
11
190.188
21
-111.498
0
LINE
8
Black
10
190.188
20
-111.498
11
189.854
21
-112.415
0
LINE
8
Black
10
189.854
20
-112.415
11
189.227
21
-113.163
0
LINE
8
Black
10
189.227
20
-113.163
11
188.381
21
-113.651
0
LINE
8
Black
10
188.381
20
-113.651
11
187.42
21
-113.821
0
LINE
8
Black
10
187.42
20
-113.821
11
186.459
21
-113.651
0
LINE
8
Black
10
186.459
20
-113.651
11
185.613
21
-113.163
0
LINE
8
Black
10
185.613
20
-113.163
11
184.986
21
-112.415
0
LINE
8
Black
10
184.986
20
-112.415
11
184.652
21
-111.498
0
LINE
8
Black
10
184.652
20
-111.498
11
184.652
21
-110.522
0
LINE
8
Black
10
184.652
20
-110.522
11
184.986
21
-109.605
0
LINE
8
Black
10
184.986
20
-109.605
11
185.613
21
-108.857
0
LINE
8
Black
10
185.613
20
-108.857
11
186.459
21
-108.369
0
LINE
8
Black
10
186.459
20
-108.369
11
187.42
21
-108.199
0
LINE
8
Black
10
187.42
20
-108.199
11
188.381
21
-108.369
0
LINE
8
Black
10
119.73
20
-111.94
11
118.03
21
-111.94
0
LINE
8
Black
10
118.03
20
-111.94
11
118.03
21
-110.24
0
LINE
8
Black
10
118.03
20
-110.24
11
119.73
21
-110.24
0
LINE
8
Black
10
119.73
20
-110.24
11
119.73
21
-111.94
0
LINE
8
Black
10
134.545
20
-110.351
11
134.771
21
-110.54
0
LINE
8
Black
10
134.771
20
-110.54
11
134.919
21
-110.796
0
LINE
8
Black
10
134.919
20
-110.796
11
134.97
21
-111.087
0
LINE
8
Black
10
134.97
20
-111.087
11
134.97
21
-111.093
0
LINE
8
Black
10
134.97
20
-111.093
11
134.919
21
-111.384
0
LINE
8
Black
10
134.919
20
-111.384
11
134.771
21
-111.64
0
LINE
8
Black
10
134.771
20
-111.64
11
134.545
21
-111.829
0
LINE
8
Black
10
134.545
20
-111.829
11
134.268
21
-111.93
0
LINE
8
Black
10
134.268
20
-111.93
11
133.972
21
-111.93
0
LINE
8
Black
10
133.972
20
-111.93
11
133.695
21
-111.829
0
LINE
8
Black
10
133.695
20
-111.829
11
133.469
21
-111.64
0
LINE
8
Black
10
133.469
20
-111.64
11
133.321
21
-111.384
0
LINE
8
Black
10
133.321
20
-111.384
11
133.27
21
-111.093
0
LINE
8
Black
10
133.27
20
-111.093
11
133.27
21
-111.087
0
LINE
8
Black
10
133.27
20
-111.087
11
133.321
21
-110.796
0
LINE
8
Black
10
133.321
20
-110.796
11
133.469
21
-110.54
0
LINE
8
Black
10
133.469
20
-110.54
11
133.695
21
-110.351
0
LINE
8
Black
10
133.695
20
-110.351
11
133.972
21
-110.25
0
LINE
8
Black
10
133.972
20
-110.25
11
134.268
21
-110.25
0
LINE
8
Black
10
134.268
20
-110.25
11
134.545
21
-110.351
0
LINE
8
Black
10
132.005
20
-110.351
11
132.231
21
-110.54
0
LINE
8
Black
10
132.231
20
-110.54
11
132.379
21
-110.796
0
LINE
8
Black
10
132.379
20
-110.796
11
132.43
21
-111.087
0
LINE
8
Black
10
132.43
20
-111.087
11
132.43
21
-111.093
0
LINE
8
Black
10
132.43
20
-111.093
11
132.379
21
-111.384
0
LINE
8
Black
10
132.379
20
-111.384
11
132.231
21
-111.64
0
LINE
8
Black
10
132.231
20
-111.64
11
132.005
21
-111.829
0
LINE
8
Black
10
132.005
20
-111.829
11
131.728
21
-111.93
0
LINE
8
Black
10
131.728
20
-111.93
11
131.432
21
-111.93
0
LINE
8
Black
10
131.432
20
-111.93
11
131.155
21
-111.829
0
LINE
8
Black
10
131.155
20
-111.829
11
130.929
21
-111.64
0
LINE
8
Black
10
130.929
20
-111.64
11
130.781
21
-111.384
0
LINE
8
Black
10
130.781
20
-111.384
11
130.73
21
-111.093
0
LINE
8
Black
10
130.73
20
-111.093
11
130.73
21
-111.087
0
LINE
8
Black
10
130.73
20
-111.087
11
130.781
21
-110.796
0
LINE
8
Black
10
130.781
20
-110.796
11
130.929
21
-110.54
0
LINE
8
Black
10
130.929
20
-110.54
11
131.155
21
-110.351
0
LINE
8
Black
10
131.155
20
-110.351
11
131.432
21
-110.25
0
LINE
8
Black
10
131.432
20
-110.25
11
131.728
21
-110.25
0
LINE
8
Black
10
131.728
20
-110.25
11
132.005
21
-110.351
0
LINE
8
Black
10
129.465
20
-110.351
11
129.691
21
-110.54
0
LINE
8
Black
10
129.691
20
-110.54
11
129.839
21
-110.796
0
LINE
8
Black
10
129.839
20
-110.796
11
129.89
21
-111.087
0
LINE
8
Black
10
129.89
20
-111.087
11
129.89
21
-111.093
0
LINE
8
Black
10
129.89
20
-111.093
11
129.839
21
-111.384
0
LINE
8
Black
10
129.839
20
-111.384
11
129.691
21
-111.64
0
LINE
8
Black
10
129.691
20
-111.64
11
129.465
21
-111.829
0
LINE
8
Black
10
129.465
20
-111.829
11
129.188
21
-111.93
0
LINE
8
Black
10
129.188
20
-111.93
11
128.892
21
-111.93
0
LINE
8
Black
10
128.892
20
-111.93
11
128.615
21
-111.829
0
LINE
8
Black
10
128.615
20
-111.829
11
128.389
21
-111.64
0
LINE
8
Black
10
128.389
20
-111.64
11
128.241
21
-111.384
0
LINE
8
Black
10
128.241
20
-111.384
11
128.19
21
-111.093
0
LINE
8
Black
10
128.19
20
-111.093
11
128.19
21
-111.087
0
LINE
8
Black
10
128.19
20
-111.087
11
128.241
21
-110.796
0
LINE
8
Black
10
128.241
20
-110.796
11
128.389
21
-110.54
0
LINE
8
Black
10
128.389
20
-110.54
11
128.615
21
-110.351
0
LINE
8
Black
10
128.615
20
-110.351
11
128.892
21
-110.25
0
LINE
8
Black
10
128.892
20
-110.25
11
129.188
21
-110.25
0
LINE
8
Black
10
129.188
20
-110.25
11
129.465
21
-110.351
0
LINE
8
Black
10
126.925
20
-110.351
11
127.151
21
-110.54
0
LINE
8
Black
10
127.151
20
-110.54
11
127.299
21
-110.796
0
LINE
8
Black
10
127.299
20
-110.796
11
127.35
21
-111.087
0
LINE
8
Black
10
127.35
20
-111.087
11
127.35
21
-111.093
0
LINE
8
Black
10
127.35
20
-111.093
11
127.299
21
-111.384
0
LINE
8
Black
10
127.299
20
-111.384
11
127.151
21
-111.64
0
LINE
8
Black
10
127.151
20
-111.64
11
126.925
21
-111.829
0
LINE
8
Black
10
126.925
20
-111.829
11
126.648
21
-111.93
0
LINE
8
Black
10
126.648
20
-111.93
11
126.352
21
-111.93
0
LINE
8
Black
10
126.352
20
-111.93
11
126.075
21
-111.829
0
LINE
8
Black
10
126.075
20
-111.829
11
125.849
21
-111.64
0
LINE
8
Black
10
125.849
20
-111.64
11
125.701
21
-111.384
0
LINE
8
Black
10
125.701
20
-111.384
11
125.65
21
-111.093
0
LINE
8
Black
10
125.65
20
-111.093
11
125.65
21
-111.087
0
LINE
8
Black
10
125.65
20
-111.087
11
125.701
21
-110.796
0
LINE
8
Black
10
125.701
20
-110.796
11
125.849
21
-110.54
0
LINE
8
Black
10
125.849
20
-110.54
11
126.075
21
-110.351
0
LINE
8
Black
10
126.075
20
-110.351
11
126.352
21
-110.25
0
LINE
8
Black
10
126.352
20
-110.25
11
126.648
21
-110.25
0
LINE
8
Black
10
126.648
20
-110.25
11
126.925
21
-110.351
0
LINE
8
Black
10
121.845
20
-110.351
11
122.071
21
-110.54
0
LINE
8
Black
10
122.071
20
-110.54
11
122.219
21
-110.796
0
LINE
8
Black
10
122.219
20
-110.796
11
122.27
21
-111.087
0
LINE
8
Black
10
122.27
20
-111.087
11
122.27
21
-111.093
0
LINE
8
Black
10
122.27
20
-111.093
11
122.219
21
-111.384
0
LINE
8
Black
10
122.219
20
-111.384
11
122.071
21
-111.64
0
LINE
8
Black
10
122.071
20
-111.64
11
121.845
21
-111.829
0
LINE
8
Black
10
121.845
20
-111.829
11
121.568
21
-111.93
0
LINE
8
Black
10
121.568
20
-111.93
11
121.272
21
-111.93
0
LINE
8
Black
10
121.272
20
-111.93
11
120.995
21
-111.829
0
LINE
8
Black
10
120.995
20
-111.829
11
120.769
21
-111.64
0
LINE
8
Black
10
120.769
20
-111.64
11
120.621
21
-111.384
0
LINE
8
Black
10
120.621
20
-111.384
11
120.57
21
-111.093
0
LINE
8
Black
10
120.57
20
-111.093
11
120.57
21
-111.087
0
LINE
8
Black
10
120.57
20
-111.087
11
120.621
21
-110.796
0
LINE
8
Black
10
120.621
20
-110.796
11
120.769
21
-110.54
0
LINE
8
Black
10
120.769
20
-110.54
11
120.995
21
-110.351
0
LINE
8
Black
10
120.995
20
-110.351
11
121.272
21
-110.25
0
LINE
8
Black
10
121.272
20
-110.25
11
121.568
21
-110.25
0
LINE
8
Black
10
121.568
20
-110.25
11
121.845
21
-110.351
0
LINE
8
Black
10
124.385
20
-110.351
11
124.611
21
-110.54
0
LINE
8
Black
10
124.611
20
-110.54
11
124.759
21
-110.796
0
LINE
8
Black
10
124.759
20
-110.796
11
124.81
21
-111.087
0
LINE
8
Black
10
124.81
20
-111.087
11
124.81
21
-111.093
0
LINE
8
Black
10
124.81
20
-111.093
11
124.759
21
-111.384
0
LINE
8
Black
10
124.759
20
-111.384
11
124.611
21
-111.64
0
LINE
8
Black
10
124.611
20
-111.64
11
124.385
21
-111.829
0
LINE
8
Black
10
124.385
20
-111.829
11
124.108
21
-111.93
0
LINE
8
Black
10
124.108
20
-111.93
11
123.812
21
-111.93
0
LINE
8
Black
10
123.812
20
-111.93
11
123.535
21
-111.829
0
LINE
8
Black
10
123.535
20
-111.829
11
123.309
21
-111.64
0
LINE
8
Black
10
123.309
20
-111.64
11
123.161
21
-111.384
0
LINE
8
Black
10
123.161
20
-111.384
11
123.11
21
-111.093
0
LINE
8
Black
10
123.11
20
-111.093
11
123.11
21
-111.087
0
LINE
8
Black
10
123.11
20
-111.087
11
123.161
21
-110.796
0
LINE
8
Black
10
123.161
20
-110.796
11
123.309
21
-110.54
0
LINE
8
Black
10
123.309
20
-110.54
11
123.535
21
-110.351
0
LINE
8
Black
10
123.535
20
-110.351
11
123.812
21
-110.25
0
LINE
8
Black
10
123.812
20
-110.25
11
124.108
21
-110.25
0
LINE
8
Black
10
124.108
20
-110.25
11
124.385
21
-110.351
0
LINE
8
Black
10
180.69
20
-111.89
11
178.99
21
-111.89
0
LINE
8
Black
10
178.99
20
-111.89
11
178.99
21
-110.19
0
LINE
8
Black
10
178.99
20
-110.19
11
180.69
21
-110.19
0
LINE
8
Black
10
180.69
20
-110.19
11
180.69
21
-111.89
0
LINE
8
Black
10
140.05
20
-111.89
11
138.35
21
-111.89
0
LINE
8
Black
10
138.35
20
-111.89
11
138.35
21
-110.19
0
LINE
8
Black
10
138.35
20
-110.19
11
140.05
21
-110.19
0
LINE
8
Black
10
140.05
20
-110.19
11
140.05
21
-111.89
0
LINE
8
Black
10
149.785
20
-110.301
11
150.011
21
-110.49
0
LINE
8
Black
10
150.011
20
-110.49
11
150.159
21
-110.746
0
LINE
8
Black
10
150.159
20
-110.746
11
150.21
21
-111.037
0
LINE
8
Black
10
150.21
20
-111.037
11
150.21
21
-111.043
0
LINE
8
Black
10
150.21
20
-111.043
11
150.159
21
-111.334
0
LINE
8
Black
10
150.159
20
-111.334
11
150.011
21
-111.59
0
LINE
8
Black
10
150.011
20
-111.59
11
149.785
21
-111.779
0
LINE
8
Black
10
149.785
20
-111.779
11
149.508
21
-111.88
0
LINE
8
Black
10
149.508
20
-111.88
11
149.212
21
-111.88
0
LINE
8
Black
10
149.212
20
-111.88
11
148.935
21
-111.779
0
LINE
8
Black
10
148.935
20
-111.779
11
148.709
21
-111.59
0
LINE
8
Black
10
148.709
20
-111.59
11
148.561
21
-111.334
0
LINE
8
Black
10
148.561
20
-111.334
11
148.51
21
-111.043
0
LINE
8
Black
10
148.51
20
-111.043
11
148.51
21
-111.037
0
LINE
8
Black
10
148.51
20
-111.037
11
148.561
21
-110.746
0
LINE
8
Black
10
148.561
20
-110.746
11
148.709
21
-110.49
0
LINE
8
Black
10
148.709
20
-110.49
11
148.935
21
-110.301
0
LINE
8
Black
10
148.935
20
-110.301
11
149.212
21
-110.2
0
LINE
8
Black
10
149.212
20
-110.2
11
149.508
21
-110.2
0
LINE
8
Black
10
149.508
20
-110.2
11
149.785
21
-110.301
0
LINE
8
Black
10
167.565
20
-110.301
11
167.791
21
-110.49
0
LINE
8
Black
10
167.791
20
-110.49
11
167.939
21
-110.746
0
LINE
8
Black
10
167.939
20
-110.746
11
167.99
21
-111.037
0
LINE
8
Black
10
167.99
20
-111.037
11
167.99
21
-111.043
0
LINE
8
Black
10
167.99
20
-111.043
11
167.939
21
-111.334
0
LINE
8
Black
10
167.939
20
-111.334
11
167.791
21
-111.59
0
LINE
8
Black
10
167.791
20
-111.59
11
167.565
21
-111.779
0
LINE
8
Black
10
167.565
20
-111.779
11
167.288
21
-111.88
0
LINE
8
Black
10
167.288
20
-111.88
11
166.992
21
-111.88
0
LINE
8
Black
10
166.992
20
-111.88
11
166.715
21
-111.779
0
LINE
8
Black
10
166.715
20
-111.779
11
166.489
21
-111.59
0
LINE
8
Black
10
166.489
20
-111.59
11
166.341
21
-111.334
0
LINE
8
Black
10
166.341
20
-111.334
11
166.29
21
-111.043
0
LINE
8
Black
10
166.29
20
-111.043
11
166.29
21
-111.037
0
LINE
8
Black
10
166.29
20
-111.037
11
166.341
21
-110.746
0
LINE
8
Black
10
166.341
20
-110.746
11
166.489
21
-110.49
0
LINE
8
Black
10
166.489
20
-110.49
11
166.715
21
-110.301
0
LINE
8
Black
10
166.715
20
-110.301
11
166.992
21
-110.2
0
LINE
8
Black
10
166.992
20
-110.2
11
167.288
21
-110.2
0
LINE
8
Black
10
167.288
20
-110.2
11
167.565
21
-110.301
0
LINE
8
Black
10
177.725
20
-110.301
11
177.951
21
-110.49
0
LINE
8
Black
10
177.951
20
-110.49
11
178.099
21
-110.746
0
LINE
8
Black
10
178.099
20
-110.746
11
178.15
21
-111.037
0
LINE
8
Black
10
178.15
20
-111.037
11
178.15
21
-111.043
0
LINE
8
Black
10
178.15
20
-111.043
11
178.099
21
-111.334
0
LINE
8
Black
10
178.099
20
-111.334
11
177.951
21
-111.59
0
LINE
8
Black
10
177.951
20
-111.59
11
177.725
21
-111.779
0
LINE
8
Black
10
177.725
20
-111.779
11
177.448
21
-111.88
0
LINE
8
Black
10
177.448
20
-111.88
11
177.152
21
-111.88
0
LINE
8
Black
10
177.152
20
-111.88
11
176.875
21
-111.779
0
LINE
8
Black
10
176.875
20
-111.779
11
176.649
21
-111.59
0
LINE
8
Black
10
176.649
20
-111.59
11
176.501
21
-111.334
0
LINE
8
Black
10
176.501
20
-111.334
11
176.45
21
-111.043
0
LINE
8
Black
10
176.45
20
-111.043
11
176.45
21
-111.037
0
LINE
8
Black
10
176.45
20
-111.037
11
176.501
21
-110.746
0
LINE
8
Black
10
176.501
20
-110.746
11
176.649
21
-110.49
0
LINE
8
Black
10
176.649
20
-110.49
11
176.875
21
-110.301
0
LINE
8
Black
10
176.875
20
-110.301
11
177.152
21
-110.2
0
LINE
8
Black
10
177.152
20
-110.2
11
177.448
21
-110.2
0
LINE
8
Black
10
177.448
20
-110.2
11
177.725
21
-110.301
0
LINE
8
Black
10
175.185
20
-110.301
11
175.411
21
-110.49
0
LINE
8
Black
10
175.411
20
-110.49
11
175.559
21
-110.746
0
LINE
8
Black
10
175.559
20
-110.746
11
175.61
21
-111.037
0
LINE
8
Black
10
175.61
20
-111.037
11
175.61
21
-111.043
0
LINE
8
Black
10
175.61
20
-111.043
11
175.559
21
-111.334
0
LINE
8
Black
10
175.559
20
-111.334
11
175.411
21
-111.59
0
LINE
8
Black
10
175.411
20
-111.59
11
175.185
21
-111.779
0
LINE
8
Black
10
175.185
20
-111.779
11
174.908
21
-111.88
0
LINE
8
Black
10
174.908
20
-111.88
11
174.612
21
-111.88
0
LINE
8
Black
10
174.612
20
-111.88
11
174.335
21
-111.779
0
LINE
8
Black
10
174.335
20
-111.779
11
174.109
21
-111.59
0
LINE
8
Black
10
174.109
20
-111.59
11
173.961
21
-111.334
0
LINE
8
Black
10
173.961
20
-111.334
11
173.91
21
-111.043
0
LINE
8
Black
10
173.91
20
-111.043
11
173.91
21
-111.037
0
LINE
8
Black
10
173.91
20
-111.037
11
173.961
21
-110.746
0
LINE
8
Black
10
173.961
20
-110.746
11
174.109
21
-110.49
0
LINE
8
Black
10
174.109
20
-110.49
11
174.335
21
-110.301
0
LINE
8
Black
10
174.335
20
-110.301
11
174.612
21
-110.2
0
LINE
8
Black
10
174.612
20
-110.2
11
174.908
21
-110.2
0
LINE
8
Black
10
174.908
20
-110.2
11
175.185
21
-110.301
0
LINE
8
Black
10
172.645
20
-110.301
11
172.871
21
-110.49
0
LINE
8
Black
10
172.871
20
-110.49
11
173.019
21
-110.746
0
LINE
8
Black
10
173.019
20
-110.746
11
173.07
21
-111.037
0
LINE
8
Black
10
173.07
20
-111.037
11
173.07
21
-111.043
0
LINE
8
Black
10
173.07
20
-111.043
11
173.019
21
-111.334
0
LINE
8
Black
10
173.019
20
-111.334
11
172.871
21
-111.59
0
LINE
8
Black
10
172.871
20
-111.59
11
172.645
21
-111.779
0
LINE
8
Black
10
172.645
20
-111.779
11
172.368
21
-111.88
0
LINE
8
Black
10
172.368
20
-111.88
11
172.072
21
-111.88
0
LINE
8
Black
10
172.072
20
-111.88
11
171.795
21
-111.779
0
LINE
8
Black
10
171.795
20
-111.779
11
171.569
21
-111.59
0
LINE
8
Black
10
171.569
20
-111.59
11
171.421
21
-111.334
0
LINE
8
Black
10
171.421
20
-111.334
11
171.37
21
-111.043
0
LINE
8
Black
10
171.37
20
-111.043
11
171.37
21
-111.037
0
LINE
8
Black
10
171.37
20
-111.037
11
171.421
21
-110.746
0
LINE
8
Black
10
171.421
20
-110.746
11
171.569
21
-110.49
0
LINE
8
Black
10
171.569
20
-110.49
11
171.795
21
-110.301
0
LINE
8
Black
10
171.795
20
-110.301
11
172.072
21
-110.2
0
LINE
8
Black
10
172.072
20
-110.2
11
172.368
21
-110.2
0
LINE
8
Black
10
172.368
20
-110.2
11
172.645
21
-110.301
0
LINE
8
Black
10
142.165
20
-110.301
11
142.391
21
-110.49
0
LINE
8
Black
10
142.391
20
-110.49
11
142.539
21
-110.746
0
LINE
8
Black
10
142.539
20
-110.746
11
142.59
21
-111.037
0
LINE
8
Black
10
142.59
20
-111.037
11
142.59
21
-111.043
0
LINE
8
Black
10
142.59
20
-111.043
11
142.539
21
-111.334
0
LINE
8
Black
10
142.539
20
-111.334
11
142.391
21
-111.59
0
LINE
8
Black
10
142.391
20
-111.59
11
142.165
21
-111.779
0
LINE
8
Black
10
142.165
20
-111.779
11
141.888
21
-111.88
0
LINE
8
Black
10
141.888
20
-111.88
11
141.592
21
-111.88
0
LINE
8
Black
10
141.592
20
-111.88
11
141.315
21
-111.779
0
LINE
8
Black
10
141.315
20
-111.779
11
141.089
21
-111.59
0
LINE
8
Black
10
141.089
20
-111.59
11
140.941
21
-111.334
0
LINE
8
Black
10
140.941
20
-111.334
11
140.89
21
-111.043
0
LINE
8
Black
10
140.89
20
-111.043
11
140.89
21
-111.037
0
LINE
8
Black
10
140.89
20
-111.037
11
140.941
21
-110.746
0
LINE
8
Black
10
140.941
20
-110.746
11
141.089
21
-110.49
0
LINE
8
Black
10
141.089
20
-110.49
11
141.315
21
-110.301
0
LINE
8
Black
10
141.315
20
-110.301
11
141.592
21
-110.2
0
LINE
8
Black
10
141.592
20
-110.2
11
141.888
21
-110.2
0
LINE
8
Black
10
141.888
20
-110.2
11
142.165
21
-110.301
0
LINE
8
Black
10
144.705
20
-110.301
11
144.931
21
-110.49
0
LINE
8
Black
10
144.931
20
-110.49
11
145.079
21
-110.746
0
LINE
8
Black
10
145.079
20
-110.746
11
145.13
21
-111.037
0
LINE
8
Black
10
145.13
20
-111.037
11
145.13
21
-111.043
0
LINE
8
Black
10
145.13
20
-111.043
11
145.079
21
-111.334
0
LINE
8
Black
10
145.079
20
-111.334
11
144.931
21
-111.59
0
LINE
8
Black
10
144.931
20
-111.59
11
144.705
21
-111.779
0
LINE
8
Black
10
144.705
20
-111.779
11
144.428
21
-111.88
0
LINE
8
Black
10
144.428
20
-111.88
11
144.132
21
-111.88
0
LINE
8
Black
10
144.132
20
-111.88
11
143.855
21
-111.779
0
LINE
8
Black
10
143.855
20
-111.779
11
143.629
21
-111.59
0
LINE
8
Black
10
143.629
20
-111.59
11
143.481
21
-111.334
0
LINE
8
Black
10
143.481
20
-111.334
11
143.43
21
-111.043
0
LINE
8
Black
10
143.43
20
-111.043
11
143.43
21
-111.037
0
LINE
8
Black
10
143.43
20
-111.037
11
143.481
21
-110.746
0
LINE
8
Black
10
143.481
20
-110.746
11
143.629
21
-110.49
0
LINE
8
Black
10
143.629
20
-110.49
11
143.855
21
-110.301
0
LINE
8
Black
10
143.855
20
-110.301
11
144.132
21
-110.2
0
LINE
8
Black
10
144.132
20
-110.2
11
144.428
21
-110.2
0
LINE
8
Black
10
144.428
20
-110.2
11
144.705
21
-110.301
0
LINE
8
Black
10
147.245
20
-110.301
11
147.471
21
-110.49
0
LINE
8
Black
10
147.471
20
-110.49
11
147.619
21
-110.746
0
LINE
8
Black
10
147.619
20
-110.746
11
147.67
21
-111.037
0
LINE
8
Black
10
147.67
20
-111.037
11
147.67
21
-111.043
0
LINE
8
Black
10
147.67
20
-111.043
11
147.619
21
-111.334
0
LINE
8
Black
10
147.619
20
-111.334
11
147.471
21
-111.59
0
LINE
8
Black
10
147.471
20
-111.59
11
147.245
21
-111.779
0
LINE
8
Black
10
147.245
20
-111.779
11
146.968
21
-111.88
0
LINE
8
Black
10
146.968
20
-111.88
11
146.672
21
-111.88
0
LINE
8
Black
10
146.672
20
-111.88
11
146.395
21
-111.779
0
LINE
8
Black
10
146.395
20
-111.779
11
146.169
21
-111.59
0
LINE
8
Black
10
146.169
20
-111.59
11
146.021
21
-111.334
0
LINE
8
Black
10
146.021
20
-111.334
11
145.97
21
-111.043
0
LINE
8
Black
10
145.97
20
-111.043
11
145.97
21
-111.037
0
LINE
8
Black
10
145.97
20
-111.037
11
146.021
21
-110.746
0
LINE
8
Black
10
146.021
20
-110.746
11
146.169
21
-110.49
0
LINE
8
Black
10
146.169
20
-110.49
11
146.395
21
-110.301
0
LINE
8
Black
10
146.395
20
-110.301
11
146.672
21
-110.2
0
LINE
8
Black
10
146.672
20
-110.2
11
146.968
21
-110.2
0
LINE
8
Black
10
146.968
20
-110.2
11
147.245
21
-110.301
0
LINE
8
Black
10
154.865
20
-110.301
11
155.091
21
-110.49
0
LINE
8
Black
10
155.091
20
-110.49
11
155.239
21
-110.746
0
LINE
8
Black
10
155.239
20
-110.746
11
155.29
21
-111.037
0
LINE
8
Black
10
155.29
20
-111.037
11
155.29
21
-111.043
0
LINE
8
Black
10
155.29
20
-111.043
11
155.239
21
-111.334
0
LINE
8
Black
10
155.239
20
-111.334
11
155.091
21
-111.59
0
LINE
8
Black
10
155.091
20
-111.59
11
154.865
21
-111.779
0
LINE
8
Black
10
154.865
20
-111.779
11
154.588
21
-111.88
0
LINE
8
Black
10
154.588
20
-111.88
11
154.292
21
-111.88
0
LINE
8
Black
10
154.292
20
-111.88
11
154.015
21
-111.779
0
LINE
8
Black
10
154.015
20
-111.779
11
153.789
21
-111.59
0
LINE
8
Black
10
153.789
20
-111.59
11
153.641
21
-111.334
0
LINE
8
Black
10
153.641
20
-111.334
11
153.59
21
-111.043
0
LINE
8
Black
10
153.59
20
-111.043
11
153.59
21
-111.037
0
LINE
8
Black
10
153.59
20
-111.037
11
153.641
21
-110.746
0
LINE
8
Black
10
153.641
20
-110.746
11
153.789
21
-110.49
0
LINE
8
Black
10
153.789
20
-110.49
11
154.015
21
-110.301
0
LINE
8
Black
10
154.015
20
-110.301
11
154.292
21
-110.2
0
LINE
8
Black
10
154.292
20
-110.2
11
154.588
21
-110.2
0
LINE
8
Black
10
154.588
20
-110.2
11
154.865
21
-110.301
0
LINE
8
Black
10
152.325
20
-110.301
11
152.551
21
-110.49
0
LINE
8
Black
10
152.551
20
-110.49
11
152.699
21
-110.746
0
LINE
8
Black
10
152.699
20
-110.746
11
152.75
21
-111.037
0
LINE
8
Black
10
152.75
20
-111.037
11
152.75
21
-111.043
0
LINE
8
Black
10
152.75
20
-111.043
11
152.699
21
-111.334
0
LINE
8
Black
10
152.699
20
-111.334
11
152.551
21
-111.59
0
LINE
8
Black
10
152.551
20
-111.59
11
152.325
21
-111.779
0
LINE
8
Black
10
152.325
20
-111.779
11
152.048
21
-111.88
0
LINE
8
Black
10
152.048
20
-111.88
11
151.752
21
-111.88
0
LINE
8
Black
10
151.752
20
-111.88
11
151.475
21
-111.779
0
LINE
8
Black
10
151.475
20
-111.779
11
151.249
21
-111.59
0
LINE
8
Black
10
151.249
20
-111.59
11
151.101
21
-111.334
0
LINE
8
Black
10
151.101
20
-111.334
11
151.05
21
-111.043
0
LINE
8
Black
10
151.05
20
-111.043
11
151.05
21
-111.037
0
LINE
8
Black
10
151.05
20
-111.037
11
151.101
21
-110.746
0
LINE
8
Black
10
151.101
20
-110.746
11
151.249
21
-110.49
0
LINE
8
Black
10
151.249
20
-110.49
11
151.475
21
-110.301
0
LINE
8
Black
10
151.475
20
-110.301
11
151.752
21
-110.2
0
LINE
8
Black
10
151.752
20
-110.2
11
152.048
21
-110.2
0
LINE
8
Black
10
152.048
20
-110.2
11
152.325
21
-110.301
0
LINE
8
Black
10
165.025
20
-110.301
11
165.251
21
-110.49
0
LINE
8
Black
10
165.251
20
-110.49
11
165.399
21
-110.746
0
LINE
8
Black
10
165.399
20
-110.746
11
165.45
21
-111.037
0
LINE
8
Black
10
165.45
20
-111.037
11
165.45
21
-111.043
0
LINE
8
Black
10
165.45
20
-111.043
11
165.399
21
-111.334
0
LINE
8
Black
10
165.399
20
-111.334
11
165.251
21
-111.59
0
LINE
8
Black
10
165.251
20
-111.59
11
165.025
21
-111.779
0
LINE
8
Black
10
165.025
20
-111.779
11
164.748
21
-111.88
0
LINE
8
Black
10
164.748
20
-111.88
11
164.452
21
-111.88
0
LINE
8
Black
10
164.452
20
-111.88
11
164.175
21
-111.779
0
LINE
8
Black
10
164.175
20
-111.779
11
163.949
21
-111.59
0
LINE
8
Black
10
163.949
20
-111.59
11
163.801
21
-111.334
0
LINE
8
Black
10
163.801
20
-111.334
11
163.75
21
-111.043
0
LINE
8
Black
10
163.75
20
-111.043
11
163.75
21
-111.037
0
LINE
8
Black
10
163.75
20
-111.037
11
163.801
21
-110.746
0
LINE
8
Black
10
163.801
20
-110.746
11
163.949
21
-110.49
0
LINE
8
Black
10
163.949
20
-110.49
11
164.175
21
-110.301
0
LINE
8
Black
10
164.175
20
-110.301
11
164.452
21
-110.2
0
LINE
8
Black
10
164.452
20
-110.2
11
164.748
21
-110.2
0
LINE
8
Black
10
164.748
20
-110.2
11
165.025
21
-110.301
0
LINE
8
Black
10
162.485
20
-110.301
11
162.711
21
-110.49
0
LINE
8
Black
10
162.711
20
-110.49
11
162.859
21
-110.746
0
LINE
8
Black
10
162.859
20
-110.746
11
162.91
21
-111.037
0
LINE
8
Black
10
162.91
20
-111.037
11
162.91
21
-111.043
0
LINE
8
Black
10
162.91
20
-111.043
11
162.859
21
-111.334
0
LINE
8
Black
10
162.859
20
-111.334
11
162.711
21
-111.59
0
LINE
8
Black
10
162.711
20
-111.59
11
162.485
21
-111.779
0
LINE
8
Black
10
162.485
20
-111.779
11
162.208
21
-111.88
0
LINE
8
Black
10
162.208
20
-111.88
11
161.912
21
-111.88
0
LINE
8
Black
10
161.912
20
-111.88
11
161.635
21
-111.779
0
LINE
8
Black
10
161.635
20
-111.779
11
161.409
21
-111.59
0
LINE
8
Black
10
161.409
20
-111.59
11
161.261
21
-111.334
0
LINE
8
Black
10
161.261
20
-111.334
11
161.21
21
-111.043
0
LINE
8
Black
10
161.21
20
-111.043
11
161.21
21
-111.037
0
LINE
8
Black
10
161.21
20
-111.037
11
161.261
21
-110.746
0
LINE
8
Black
10
161.261
20
-110.746
11
161.409
21
-110.49
0
LINE
8
Black
10
161.409
20
-110.49
11
161.635
21
-110.301
0
LINE
8
Black
10
161.635
20
-110.301
11
161.912
21
-110.2
0
LINE
8
Black
10
161.912
20
-110.2
11
162.208
21
-110.2
0
LINE
8
Black
10
162.208
20
-110.2
11
162.485
21
-110.301
0
LINE
8
Black
10
159.945
20
-110.301
11
160.171
21
-110.49
0
LINE
8
Black
10
160.171
20
-110.49
11
160.319
21
-110.746
0
LINE
8
Black
10
160.319
20
-110.746
11
160.37
21
-111.037
0
LINE
8
Black
10
160.37
20
-111.037
11
160.37
21
-111.043
0
LINE
8
Black
10
160.37
20
-111.043
11
160.319
21
-111.334
0
LINE
8
Black
10
160.319
20
-111.334
11
160.171
21
-111.59
0
LINE
8
Black
10
160.171
20
-111.59
11
159.945
21
-111.779
0
LINE
8
Black
10
159.945
20
-111.779
11
159.668
21
-111.88
0
LINE
8
Black
10
159.668
20
-111.88
11
159.372
21
-111.88
0
LINE
8
Black
10
159.372
20
-111.88
11
159.095
21
-111.779
0
LINE
8
Black
10
159.095
20
-111.779
11
158.869
21
-111.59
0
LINE
8
Black
10
158.869
20
-111.59
11
158.721
21
-111.334
0
LINE
8
Black
10
158.721
20
-111.334
11
158.67
21
-111.043
0
LINE
8
Black
10
158.67
20
-111.043
11
158.67
21
-111.037
0
LINE
8
Black
10
158.67
20
-111.037
11
158.721
21
-110.746
0
LINE
8
Black
10
158.721
20
-110.746
11
158.869
21
-110.49
0
LINE
8
Black
10
158.869
20
-110.49
11
159.095
21
-110.301
0
LINE
8
Black
10
159.095
20
-110.301
11
159.372
21
-110.2
0
LINE
8
Black
10
159.372
20
-110.2
11
159.668
21
-110.2
0
LINE
8
Black
10
159.668
20
-110.2
11
159.945
21
-110.301
0
LINE
8
Black
10
157.405
20
-110.301
11
157.631
21
-110.49
0
LINE
8
Black
10
157.631
20
-110.49
11
157.779
21
-110.746
0
LINE
8
Black
10
157.779
20
-110.746
11
157.83
21
-111.037
0
LINE
8
Black
10
157.83
20
-111.037
11
157.83
21
-111.043
0
LINE
8
Black
10
157.83
20
-111.043
11
157.779
21
-111.334
0
LINE
8
Black
10
157.779
20
-111.334
11
157.631
21
-111.59
0
LINE
8
Black
10
157.631
20
-111.59
11
157.405
21
-111.779
0
LINE
8
Black
10
157.405
20
-111.779
11
157.128
21
-111.88
0
LINE
8
Black
10
157.128
20
-111.88
11
156.832
21
-111.88
0
LINE
8
Black
10
156.832
20
-111.88
11
156.555
21
-111.779
0
LINE
8
Black
10
156.555
20
-111.779
11
156.329
21
-111.59
0
LINE
8
Black
10
156.329
20
-111.59
11
156.181
21
-111.334
0
LINE
8
Black
10
156.181
20
-111.334
11
156.13
21
-111.043
0
LINE
8
Black
10
156.13
20
-111.043
11
156.13
21
-111.037
0
LINE
8
Black
10
156.13
20
-111.037
11
156.181
21
-110.746
0
LINE
8
Black
10
156.181
20
-110.746
11
156.329
21
-110.49
0
LINE
8
Black
10
156.329
20
-110.49
11
156.555
21
-110.301
0
LINE
8
Black
10
156.555
20
-110.301
11
156.832
21
-110.2
0
LINE
8
Black
10
156.832
20
-110.2
11
157.128
21
-110.2
0
LINE
8
Black
10
157.128
20
-110.2
11
157.405
21
-110.301
0
LINE
8
Black
10
111.73
20
-109.75
11
111.23
21
-109.75
0
LINE
8
Black
10
111.23
20
-109.75
11
111.23
21
-108.85
0
LINE
8
Black
10
111.23
20
-108.85
11
111.73
21
-108.85
0
LINE
8
Black
10
111.73
20
-108.85
11
111.73
21
-109.75
0
LINE
8
Black
10
113.23
20
-109.75
11
112.73
21
-109.75
0
LINE
8
Black
10
112.73
20
-109.75
11
112.73
21
-108.85
0
LINE
8
Black
10
112.73
20
-108.85
11
113.23
21
-108.85
0
LINE
8
Black
10
113.23
20
-108.85
11
113.23
21
-109.75
0
LINE
8
Black
10
93.5175
20
-108.283
11
93.7439
21
-108.413
0
LINE
8
Black
10
93.7439
20
-108.413
11
93.912
21
-108.614
0
LINE
8
Black
10
93.912
20
-108.614
11
94.0014
21
-108.859
0
LINE
8
Black
10
94.0014
20
-108.859
11
94.0014
21
-109.121
0
LINE
8
Black
10
94.0014
20
-109.121
11
93.912
21
-109.366
0
LINE
8
Black
10
93.912
20
-109.366
11
93.7439
21
-109.567
0
LINE
8
Black
10
93.7439
20
-109.567
11
93.5175
21
-109.697
0
LINE
8
Black
10
93.5175
20
-109.697
11
93.26
21
-109.743
0
LINE
8
Black
10
93.26
20
-109.743
11
93.0025
21
-109.697
0
LINE
8
Black
10
93.0025
20
-109.697
11
92.7761
21
-109.567
0
LINE
8
Black
10
92.7761
20
-109.567
11
92.608
21
-109.366
0
LINE
8
Black
10
92.608
20
-109.366
11
92.5186
21
-109.121
0
LINE
8
Black
10
92.5186
20
-109.121
11
92.5186
21
-108.859
0
LINE
8
Black
10
92.5186
20
-108.859
11
92.608
21
-108.614
0
LINE
8
Black
10
92.608
20
-108.614
11
92.7761
21
-108.413
0
LINE
8
Black
10
92.7761
20
-108.413
11
93.0025
21
-108.283
0
LINE
8
Black
10
93.0025
20
-108.283
11
93.26
21
-108.237
0
LINE
8
Black
10
93.26
20
-108.237
11
93.5175
21
-108.283
0
LINE
8
Black
10
96.9975
20
-108.263
11
97.2239
21
-108.393
0
LINE
8
Black
10
97.2239
20
-108.393
11
97.392
21
-108.594
0
LINE
8
Black
10
97.392
20
-108.594
11
97.4814
21
-108.839
0
LINE
8
Black
10
97.4814
20
-108.839
11
97.4814
21
-109.101
0
LINE
8
Black
10
97.4814
20
-109.101
11
97.392
21
-109.346
0
LINE
8
Black
10
97.392
20
-109.346
11
97.2239
21
-109.547
0
LINE
8
Black
10
97.2239
20
-109.547
11
96.9975
21
-109.677
0
LINE
8
Black
10
96.9975
20
-109.677
11
96.74
21
-109.723
0
LINE
8
Black
10
96.74
20
-109.723
11
96.4825
21
-109.677
0
LINE
8
Black
10
96.4825
20
-109.677
11
96.2561
21
-109.547
0
LINE
8
Black
10
96.2561
20
-109.547
11
96.088
21
-109.346
0
LINE
8
Black
10
96.088
20
-109.346
11
95.9986
21
-109.101
0
LINE
8
Black
10
95.9986
20
-109.101
11
95.9986
21
-108.839
0
LINE
8
Black
10
95.9986
20
-108.839
11
96.088
21
-108.594
0
LINE
8
Black
10
96.088
20
-108.594
11
96.2561
21
-108.393
0
LINE
8
Black
10
96.2561
20
-108.393
11
96.4825
21
-108.263
0
LINE
8
Black
10
96.4825
20
-108.263
11
96.74
21
-108.217
0
LINE
8
Black
10
96.74
20
-108.217
11
96.9975
21
-108.263
0
LINE
8
Black
10
100.307
20
-108.263
11
100.534
21
-108.393
0
LINE
8
Black
10
100.534
20
-108.393
11
100.702
21
-108.594
0
LINE
8
Black
10
100.702
20
-108.594
11
100.791
21
-108.839
0
LINE
8
Black
10
100.791
20
-108.839
11
100.791
21
-109.101
0
LINE
8
Black
10
100.791
20
-109.101
11
100.702
21
-109.346
0
LINE
8
Black
10
100.702
20
-109.346
11
100.534
21
-109.547
0
LINE
8
Black
10
100.534
20
-109.547
11
100.307
21
-109.677
0
LINE
8
Black
10
100.307
20
-109.677
11
100.05
21
-109.723
0
LINE
8
Black
10
100.05
20
-109.723
11
99.7925
21
-109.677
0
LINE
8
Black
10
99.7925
20
-109.677
11
99.5661
21
-109.547
0
LINE
8
Black
10
99.5661
20
-109.547
11
99.398
21
-109.346
0
LINE
8
Black
10
99.398
20
-109.346
11
99.3086
21
-109.101
0
LINE
8
Black
10
99.3086
20
-109.101
11
99.3086
21
-108.839
0
LINE
8
Black
10
99.3086
20
-108.839
11
99.398
21
-108.594
0
LINE
8
Black
10
99.398
20
-108.594
11
99.5661
21
-108.393
0
LINE
8
Black
10
99.5661
20
-108.393
11
99.7925
21
-108.263
0
LINE
8
Black
10
99.7925
20
-108.263
11
100.05
21
-108.217
0
LINE
8
Black
10
100.05
20
-108.217
11
100.307
21
-108.263
0
LINE
8
Black
10
172.66
20
-109.18
11
171.76
21
-109.18
0
LINE
8
Black
10
171.76
20
-109.18
11
171.76
21
-108.68
0
LINE
8
Black
10
171.76
20
-108.68
11
172.66
21
-108.68
0
LINE
8
Black
10
172.66
20
-108.68
11
172.66
21
-109.18
0
LINE
8
Black
10
175.21
20
-109.16
11
174.31
21
-109.16
0
LINE
8
Black
10
174.31
20
-109.16
11
174.31
21
-108.66
0
LINE
8
Black
10
174.31
20
-108.66
11
175.21
21
-108.66
0
LINE
8
Black
10
175.21
20
-108.66
11
175.21
21
-109.16
0
LINE
8
Black
10
177.74
20
-109.16
11
176.84
21
-109.16
0
LINE
8
Black
10
176.84
20
-109.16
11
176.84
21
-108.66
0
LINE
8
Black
10
176.84
20
-108.66
11
177.74
21
-108.66
0
LINE
8
Black
10
177.74
20
-108.66
11
177.74
21
-109.16
0
LINE
8
Black
10
180.28
20
-109.14
11
179.38
21
-109.14
0
LINE
8
Black
10
179.38
20
-109.14
11
179.38
21
-108.64
0
LINE
8
Black
10
179.38
20
-108.64
11
180.28
21
-108.64
0
LINE
8
Black
10
180.28
20
-108.64
11
180.28
21
-109.14
0
LINE
8
Black
10
131.91
20
-107.96
11
130.41
21
-107.96
0
LINE
8
Black
10
130.41
20
-107.96
11
130.41
21
-107.36
0
LINE
8
Black
10
130.41
20
-107.36
11
131.91
21
-107.36
0
LINE
8
Black
10
131.91
20
-107.36
11
131.91
21
-107.96
0
LINE
8
Black
10
137.31
20
-107.96
11
135.81
21
-107.96
0
LINE
8
Black
10
135.81
20
-107.96
11
135.81
21
-107.36
0
LINE
8
Black
10
135.81
20
-107.36
11
137.31
21
-107.36
0
LINE
8
Black
10
137.31
20
-107.36
11
137.31
21
-107.96
0
LINE
8
Black
10
172.66
20
-107.68
11
171.76
21
-107.68
0
LINE
8
Black
10
171.76
20
-107.68
11
171.76
21
-107.18
0
LINE
8
Black
10
171.76
20
-107.18
11
172.66
21
-107.18
0
LINE
8
Black
10
172.66
20
-107.18
11
172.66
21
-107.68
0
LINE
8
Black
10
177.74
20
-107.66
11
176.84
21
-107.66
0
LINE
8
Black
10
176.84
20
-107.66
11
176.84
21
-107.16
0
LINE
8
Black
10
176.84
20
-107.16
11
177.74
21
-107.16
0
LINE
8
Black
10
177.74
20
-107.16
11
177.74
21
-107.66
0
LINE
8
Black
10
175.21
20
-107.66
11
174.31
21
-107.66
0
LINE
8
Black
10
174.31
20
-107.66
11
174.31
21
-107.16
0
LINE
8
Black
10
174.31
20
-107.16
11
175.21
21
-107.16
0
LINE
8
Black
10
175.21
20
-107.16
11
175.21
21
-107.66
0
LINE
8
Black
10
180.28
20
-107.64
11
179.38
21
-107.64
0
LINE
8
Black
10
179.38
20
-107.64
11
179.38
21
-107.14
0
LINE
8
Black
10
179.38
20
-107.14
11
180.28
21
-107.14
0
LINE
8
Black
10
180.28
20
-107.14
11
180.28
21
-107.64
0
LINE
8
Black
10
113.23
20
-107
11
112.73
21
-107
0
LINE
8
Black
10
112.73
20
-107
11
112.73
21
-106.1
0
LINE
8
Black
10
112.73
20
-106.1
11
113.23
21
-106.1
0
LINE
8
Black
10
113.23
20
-106.1
11
113.23
21
-107
0
LINE
8
Black
10
111.73
20
-107
11
111.23
21
-107
0
LINE
8
Black
10
111.23
20
-107
11
111.23
21
-106.1
0
LINE
8
Black
10
111.23
20
-106.1
11
111.73
21
-106.1
0
LINE
8
Black
10
111.73
20
-106.1
11
111.73
21
-107
0
LINE
8
Black
10
107.68
20
-107
11
107.18
21
-107
0
LINE
8
Black
10
107.18
20
-107
11
107.18
21
-106.1
0
LINE
8
Black
10
107.18
20
-106.1
11
107.68
21
-106.1
0
LINE
8
Black
10
107.68
20
-106.1
11
107.68
21
-107
0
LINE
8
Black
10
109.18
20
-107
11
108.68
21
-107
0
LINE
8
Black
10
108.68
20
-107
11
108.68
21
-106.1
0
LINE
8
Black
10
108.68
20
-106.1
11
109.18
21
-106.1
0
LINE
8
Black
10
109.18
20
-106.1
11
109.18
21
-107
0
LINE
8
Black
10
105.23
20
-106.925
11
104.43
21
-106.925
0
LINE
8
Black
10
104.43
20
-106.925
11
104.43
21
-106.175
0
LINE
8
Black
10
104.43
20
-106.175
11
105.23
21
-106.175
0
LINE
8
Black
10
105.23
20
-106.175
11
105.23
21
-106.925
0
LINE
8
Black
10
103.73
20
-106.925
11
102.93
21
-106.925
0
LINE
8
Black
10
102.93
20
-106.925
11
102.93
21
-106.175
0
LINE
8
Black
10
102.93
20
-106.175
11
103.73
21
-106.175
0
LINE
8
Black
10
103.73
20
-106.175
11
103.73
21
-106.925
0
LINE
8
Black
10
125.83
20
-106.925
11
125.03
21
-106.925
0
LINE
8
Black
10
125.03
20
-106.925
11
125.03
21
-106.175
0
LINE
8
Black
10
125.03
20
-106.175
11
125.83
21
-106.175
0
LINE
8
Black
10
125.83
20
-106.175
11
125.83
21
-106.925
0
LINE
8
Black
10
124.33
20
-106.925
11
123.53
21
-106.925
0
LINE
8
Black
10
123.53
20
-106.925
11
123.53
21
-106.175
0
LINE
8
Black
10
123.53
20
-106.175
11
124.33
21
-106.175
0
LINE
8
Black
10
124.33
20
-106.175
11
124.33
21
-106.925
0
LINE
8
Black
10
115.68
20
-106.925
11
114.88
21
-106.925
0
LINE
8
Black
10
114.88
20
-106.925
11
114.88
21
-106.175
0
LINE
8
Black
10
114.88
20
-106.175
11
115.68
21
-106.175
0
LINE
8
Black
10
115.68
20
-106.175
11
115.68
21
-106.925
0
LINE
8
Black
10
117.18
20
-106.925
11
116.38
21
-106.925
0
LINE
8
Black
10
116.38
20
-106.925
11
116.38
21
-106.175
0
LINE
8
Black
10
116.38
20
-106.175
11
117.18
21
-106.175
0
LINE
8
Black
10
117.18
20
-106.175
11
117.18
21
-106.925
0
LINE
8
Black
10
120.03
20
-106.925
11
119.23
21
-106.925
0
LINE
8
Black
10
119.23
20
-106.925
11
119.23
21
-106.175
0
LINE
8
Black
10
119.23
20
-106.175
11
120.03
21
-106.175
0
LINE
8
Black
10
120.03
20
-106.175
11
120.03
21
-106.925
0
LINE
8
Black
10
121.53
20
-106.925
11
120.73
21
-106.925
0
LINE
8
Black
10
120.73
20
-106.925
11
120.73
21
-106.175
0
LINE
8
Black
10
120.73
20
-106.175
11
121.53
21
-106.175
0
LINE
8
Black
10
121.53
20
-106.175
11
121.53
21
-106.925
0
LINE
8
Black
10
131.91
20
-106.69
11
130.41
21
-106.69
0
LINE
8
Black
10
130.41
20
-106.69
11
130.41
21
-106.09
0
LINE
8
Black
10
130.41
20
-106.09
11
131.91
21
-106.09
0
LINE
8
Black
10
131.91
20
-106.09
11
131.91
21
-106.69
0
LINE
8
Black
10
137.31
20
-106.69
11
135.81
21
-106.69
0
LINE
8
Black
10
135.81
20
-106.69
11
135.81
21
-106.09
0
LINE
8
Black
10
135.81
20
-106.09
11
137.31
21
-106.09
0
LINE
8
Black
10
137.31
20
-106.09
11
137.31
21
-106.69
0
LINE
8
Black
10
137.31
20
-105.42
11
135.81
21
-105.42
0
LINE
8
Black
10
135.81
20
-105.42
11
135.81
21
-104.82
0
LINE
8
Black
10
135.81
20
-104.82
11
137.31
21
-104.82
0
LINE
8
Black
10
137.31
20
-104.82
11
137.31
21
-105.42
0
LINE
8
Black
10
131.91
20
-105.42
11
130.41
21
-105.42
0
LINE
8
Black
10
130.41
20
-105.42
11
130.41
21
-104.82
0
LINE
8
Black
10
130.41
20
-104.82
11
131.91
21
-104.82
0
LINE
8
Black
10
131.91
20
-104.82
11
131.91
21
-105.42
0
LINE
8
Black
10
113.23
20
-104.45
11
112.73
21
-104.45
0
LINE
8
Black
10
112.73
20
-104.45
11
112.73
21
-103.55
0
LINE
8
Black
10
112.73
20
-103.55
11
113.23
21
-103.55
0
LINE
8
Black
10
113.23
20
-103.55
11
113.23
21
-104.45
0
LINE
8
Black
10
111.73
20
-104.45
11
111.23
21
-104.45
0
LINE
8
Black
10
111.23
20
-104.45
11
111.23
21
-103.55
0
LINE
8
Black
10
111.23
20
-103.55
11
111.73
21
-103.55
0
LINE
8
Black
10
111.73
20
-103.55
11
111.73
21
-104.45
0
LINE
8
Black
10
105.08
20
-104.45
11
104.58
21
-104.45
0
LINE
8
Black
10
104.58
20
-104.45
11
104.58
21
-103.55
0
LINE
8
Black
10
104.58
20
-103.55
11
105.08
21
-103.55
0
LINE
8
Black
10
105.08
20
-103.55
11
105.08
21
-104.45
0
LINE
8
Black
10
103.58
20
-104.45
11
103.08
21
-104.45
0
LINE
8
Black
10
103.08
20
-104.45
11
103.08
21
-103.55
0
LINE
8
Black
10
103.08
20
-103.55
11
103.58
21
-103.55
0
LINE
8
Black
10
103.58
20
-103.55
11
103.58
21
-104.45
0
LINE
8
Black
10
107.83
20
-104.375
11
107.03
21
-104.375
0
LINE
8
Black
10
107.03
20
-104.375
11
107.03
21
-103.625
0
LINE
8
Black
10
107.03
20
-103.625
11
107.83
21
-103.625
0
LINE
8
Black
10
107.83
20
-103.625
11
107.83
21
-104.375
0
LINE
8
Black
10
109.33
20
-104.375
11
108.53
21
-104.375
0
LINE
8
Black
10
108.53
20
-104.375
11
108.53
21
-103.625
0
LINE
8
Black
10
108.53
20
-103.625
11
109.33
21
-103.625
0
LINE
8
Black
10
109.33
20
-103.625
11
109.33
21
-104.375
0
LINE
8
Black
10
187.724
20
-102.631
11
187.98
21
-102.779
0
LINE
8
Black
10
187.98
20
-102.779
11
188.169
21
-103.005
0
LINE
8
Black
10
188.169
20
-103.005
11
188.27
21
-103.282
0
LINE
8
Black
10
188.27
20
-103.282
11
188.27
21
-103.578
0
LINE
8
Black
10
188.27
20
-103.578
11
188.169
21
-103.855
0
LINE
8
Black
10
188.169
20
-103.855
11
187.98
21
-104.081
0
LINE
8
Black
10
187.98
20
-104.081
11
187.724
21
-104.229
0
LINE
8
Black
10
187.724
20
-104.229
11
187.433
21
-104.28
0
LINE
8
Black
10
187.433
20
-104.28
11
187.427
21
-104.28
0
LINE
8
Black
10
187.427
20
-104.28
11
187.136
21
-104.229
0
LINE
8
Black
10
187.136
20
-104.229
11
186.88
21
-104.081
0
LINE
8
Black
10
186.88
20
-104.081
11
186.691
21
-103.855
0
LINE
8
Black
10
186.691
20
-103.855
11
186.59
21
-103.578
0
LINE
8
Black
10
186.59
20
-103.578
11
186.59
21
-103.282
0
LINE
8
Black
10
186.59
20
-103.282
11
186.691
21
-103.005
0
LINE
8
Black
10
186.691
20
-103.005
11
186.88
21
-102.779
0
LINE
8
Black
10
186.88
20
-102.779
11
187.136
21
-102.631
0
LINE
8
Black
10
187.136
20
-102.631
11
187.427
21
-102.58
0
LINE
8
Black
10
187.427
20
-102.58
11
187.433
21
-102.58
0
LINE
8
Black
10
187.433
20
-102.58
11
187.724
21
-102.631
0
LINE
8
Black
10
185.184
20
-102.631
11
185.44
21
-102.779
0
LINE
8
Black
10
185.44
20
-102.779
11
185.629
21
-103.005
0
LINE
8
Black
10
185.629
20
-103.005
11
185.73
21
-103.282
0
LINE
8
Black
10
185.73
20
-103.282
11
185.73
21
-103.578
0
LINE
8
Black
10
185.73
20
-103.578
11
185.629
21
-103.855
0
LINE
8
Black
10
185.629
20
-103.855
11
185.44
21
-104.081
0
LINE
8
Black
10
185.44
20
-104.081
11
185.184
21
-104.229
0
LINE
8
Black
10
185.184
20
-104.229
11
184.893
21
-104.28
0
LINE
8
Black
10
184.893
20
-104.28
11
184.887
21
-104.28
0
LINE
8
Black
10
184.887
20
-104.28
11
184.596
21
-104.229
0
LINE
8
Black
10
184.596
20
-104.229
11
184.34
21
-104.081
0
LINE
8
Black
10
184.34
20
-104.081
11
184.151
21
-103.855
0
LINE
8
Black
10
184.151
20
-103.855
11
184.05
21
-103.578
0
LINE
8
Black
10
184.05
20
-103.578
11
184.05
21
-103.282
0
LINE
8
Black
10
184.05
20
-103.282
11
184.151
21
-103.005
0
LINE
8
Black
10
184.151
20
-103.005
11
184.34
21
-102.779
0
LINE
8
Black
10
184.34
20
-102.779
11
184.596
21
-102.631
0
LINE
8
Black
10
184.596
20
-102.631
11
184.887
21
-102.58
0
LINE
8
Black
10
184.887
20
-102.58
11
184.893
21
-102.58
0
LINE
8
Black
10
184.893
20
-102.58
11
185.184
21
-102.631
0
LINE
8
Black
10
137.31
20
-104.15
11
135.81
21
-104.15
0
LINE
8
Black
10
135.81
20
-104.15
11
135.81
21
-103.55
0
LINE
8
Black
10
135.81
20
-103.55
11
137.31
21
-103.55
0
LINE
8
Black
10
137.31
20
-103.55
11
137.31
21
-104.15
0
LINE
8
Black
10
131.91
20
-104.15
11
130.41
21
-104.15
0
LINE
8
Black
10
130.41
20
-104.15
11
130.41
21
-103.55
0
LINE
8
Black
10
130.41
20
-103.55
11
131.91
21
-103.55
0
LINE
8
Black
10
131.91
20
-103.55
11
131.91
21
-104.15
0
LINE
8
Black
10
95.45
20
-104.025
11
94.7
21
-104.025
0
LINE
8
Black
10
94.7
20
-104.025
11
94.7
21
-103.225
0
LINE
8
Black
10
94.7
20
-103.225
11
95.45
21
-103.225
0
LINE
8
Black
10
95.45
20
-103.225
11
95.45
21
-104.025
0
LINE
8
Black
10
99.15
20
-104.025
11
98.4
21
-104.025
0
LINE
8
Black
10
98.4
20
-104.025
11
98.4
21
-103.225
0
LINE
8
Black
10
98.4
20
-103.225
11
99.15
21
-103.225
0
LINE
8
Black
10
99.15
20
-103.225
11
99.15
21
-104.025
0
LINE
8
Black
10
117.435
20
-103.455
11
115.885
21
-103.455
0
LINE
8
Black
10
115.885
20
-103.455
11
115.885
21
-102.855
0
LINE
8
Black
10
115.885
20
-102.855
11
117.435
21
-102.855
0
LINE
8
Black
10
117.435
20
-102.855
11
117.435
21
-103.455
0
LINE
8
Black
10
122.835
20
-103.455
11
121.285
21
-103.455
0
LINE
8
Black
10
121.285
20
-103.455
11
121.285
21
-102.855
0
LINE
8
Black
10
121.285
20
-102.855
11
122.835
21
-102.855
0
LINE
8
Black
10
122.835
20
-102.855
11
122.835
21
-103.455
0
LINE
8
Black
10
97.1417
20
-102.018
11
97.2926
21
-102.106
0
LINE
8
Black
10
97.2926
20
-102.106
11
97.4047
21
-102.239
0
LINE
8
Black
10
97.4047
20
-102.239
11
97.4643
21
-102.403
0
LINE
8
Black
10
97.4643
20
-102.403
11
97.4643
21
-102.577
0
LINE
8
Black
10
97.4643
20
-102.577
11
97.4047
21
-102.741
0
LINE
8
Black
10
97.4047
20
-102.741
11
97.2926
21
-102.874
0
LINE
8
Black
10
97.2926
20
-102.874
11
97.1417
21
-102.962
0
LINE
8
Black
10
97.1417
20
-102.962
11
96.97
21
-102.992
0
LINE
8
Black
10
96.97
20
-102.992
11
96.7983
21
-102.962
0
LINE
8
Black
10
96.7983
20
-102.962
11
96.6474
21
-102.874
0
LINE
8
Black
10
96.6474
20
-102.874
11
96.5353
21
-102.741
0
LINE
8
Black
10
96.5353
20
-102.741
11
96.4757
21
-102.577
0
LINE
8
Black
10
96.4757
20
-102.577
11
96.4757
21
-102.403
0
LINE
8
Black
10
96.4757
20
-102.403
11
96.5353
21
-102.239
0
LINE
8
Black
10
96.5353
20
-102.239
11
96.6474
21
-102.106
0
LINE
8
Black
10
96.6474
20
-102.106
11
96.7983
21
-102.018
0
LINE
8
Black
10
96.7983
20
-102.018
11
96.97
21
-101.988
0
LINE
8
Black
10
96.97
20
-101.988
11
97.1417
21
-102.018
0
LINE
8
Black
10
137.31
20
-102.88
11
135.81
21
-102.88
0
LINE
8
Black
10
135.81
20
-102.88
11
135.81
21
-102.28
0
LINE
8
Black
10
135.81
20
-102.28
11
137.31
21
-102.28
0
LINE
8
Black
10
137.31
20
-102.28
11
137.31
21
-102.88
0
LINE
8
Black
10
131.91
20
-102.88
11
130.41
21
-102.88
0
LINE
8
Black
10
130.41
20
-102.88
11
130.41
21
-102.28
0
LINE
8
Black
10
130.41
20
-102.28
11
131.91
21
-102.28
0
LINE
8
Black
10
131.91
20
-102.28
11
131.91
21
-102.88
0
LINE
8
Black
10
99.15
20
-102.525
11
98.4
21
-102.525
0
LINE
8
Black
10
98.4
20
-102.525
11
98.4
21
-101.725
0
LINE
8
Black
10
98.4
20
-101.725
11
99.15
21
-101.725
0
LINE
8
Black
10
99.15
20
-101.725
11
99.15
21
-102.525
0
LINE
8
Black
10
95.45
20
-102.525
11
94.7
21
-102.525
0
LINE
8
Black
10
94.7
20
-102.525
11
94.7
21
-101.725
0
LINE
8
Black
10
94.7
20
-101.725
11
95.45
21
-101.725
0
LINE
8
Black
10
95.45
20
-101.725
11
95.45
21
-102.525
0
LINE
8
Black
10
122.835
20
-102.185
11
121.285
21
-102.185
0
LINE
8
Black
10
121.285
20
-102.185
11
121.285
21
-101.585
0
LINE
8
Black
10
121.285
20
-101.585
11
122.835
21
-101.585
0
LINE
8
Black
10
122.835
20
-101.585
11
122.835
21
-102.185
0
LINE
8
Black
10
117.435
20
-102.185
11
115.885
21
-102.185
0
LINE
8
Black
10
115.885
20
-102.185
11
115.885
21
-101.585
0
LINE
8
Black
10
115.885
20
-101.585
11
117.435
21
-101.585
0
LINE
8
Black
10
117.435
20
-101.585
11
117.435
21
-102.185
0
LINE
8
Black
10
107.68
20
-101.85
11
107.18
21
-101.85
0
LINE
8
Black
10
107.18
20
-101.85
11
107.18
21
-100.95
0
LINE
8
Black
10
107.18
20
-100.95
11
107.68
21
-100.95
0
LINE
8
Black
10
107.68
20
-100.95
11
107.68
21
-101.85
0
LINE
8
Black
10
109.18
20
-101.85
11
108.68
21
-101.85
0
LINE
8
Black
10
108.68
20
-101.85
11
108.68
21
-100.95
0
LINE
8
Black
10
108.68
20
-100.95
11
109.18
21
-100.95
0
LINE
8
Black
10
109.18
20
-100.95
11
109.18
21
-101.85
0
LINE
8
Black
10
103.58
20
-101.85
11
103.08
21
-101.85
0
LINE
8
Black
10
103.08
20
-101.85
11
103.08
21
-100.95
0
LINE
8
Black
10
103.08
20
-100.95
11
103.58
21
-100.95
0
LINE
8
Black
10
103.58
20
-100.95
11
103.58
21
-101.85
0
LINE
8
Black
10
105.08
20
-101.85
11
104.58
21
-101.85
0
LINE
8
Black
10
104.58
20
-101.85
11
104.58
21
-100.95
0
LINE
8
Black
10
104.58
20
-100.95
11
105.08
21
-100.95
0
LINE
8
Black
10
105.08
20
-100.95
11
105.08
21
-101.85
0
LINE
8
Black
10
148.46
20
-101.8
11
147.96
21
-101.8
0
LINE
8
Black
10
147.96
20
-101.8
11
147.96
21
-100.9
0
LINE
8
Black
10
147.96
20
-100.9
11
148.46
21
-100.9
0
LINE
8
Black
10
148.46
20
-100.9
11
148.46
21
-101.8
0
LINE
8
Black
10
149.96
20
-101.8
11
149.46
21
-101.8
0
LINE
8
Black
10
149.46
20
-101.8
11
149.46
21
-100.9
0
LINE
8
Black
10
149.46
20
-100.9
11
149.96
21
-100.9
0
LINE
8
Black
10
149.96
20
-100.9
11
149.96
21
-101.8
0
LINE
8
Black
10
111.88
20
-101.775
11
111.08
21
-101.775
0
LINE
8
Black
10
111.08
20
-101.775
11
111.08
21
-101.025
0
LINE
8
Black
10
111.08
20
-101.025
11
111.88
21
-101.025
0
LINE
8
Black
10
111.88
20
-101.025
11
111.88
21
-101.775
0
LINE
8
Black
10
113.38
20
-101.775
11
112.58
21
-101.775
0
LINE
8
Black
10
112.58
20
-101.775
11
112.58
21
-101.025
0
LINE
8
Black
10
112.58
20
-101.025
11
113.38
21
-101.025
0
LINE
8
Black
10
113.38
20
-101.025
11
113.38
21
-101.775
0
LINE
8
Black
10
151.985
20
-101.75
11
151.235
21
-101.75
0
LINE
8
Black
10
151.235
20
-101.75
11
151.235
21
-100.95
0
LINE
8
Black
10
151.235
20
-100.95
11
151.985
21
-100.95
0
LINE
8
Black
10
151.985
20
-100.95
11
151.985
21
-101.75
0
LINE
8
Black
10
187.724
20
-100.091
11
187.98
21
-100.239
0
LINE
8
Black
10
187.98
20
-100.239
11
188.169
21
-100.465
0
LINE
8
Black
10
188.169
20
-100.465
11
188.27
21
-100.742
0
LINE
8
Black
10
188.27
20
-100.742
11
188.27
21
-101.038
0
LINE
8
Black
10
188.27
20
-101.038
11
188.169
21
-101.315
0
LINE
8
Black
10
188.169
20
-101.315
11
187.98
21
-101.541
0
LINE
8
Black
10
187.98
20
-101.541
11
187.724
21
-101.689
0
LINE
8
Black
10
187.724
20
-101.689
11
187.433
21
-101.74
0
LINE
8
Black
10
187.433
20
-101.74
11
187.427
21
-101.74
0
LINE
8
Black
10
187.427
20
-101.74
11
187.136
21
-101.689
0
LINE
8
Black
10
187.136
20
-101.689
11
186.88
21
-101.541
0
LINE
8
Black
10
186.88
20
-101.541
11
186.691
21
-101.315
0
LINE
8
Black
10
186.691
20
-101.315
11
186.59
21
-101.038
0
LINE
8
Black
10
186.59
20
-101.038
11
186.59
21
-100.742
0
LINE
8
Black
10
186.59
20
-100.742
11
186.691
21
-100.465
0
LINE
8
Black
10
186.691
20
-100.465
11
186.88
21
-100.239
0
LINE
8
Black
10
186.88
20
-100.239
11
187.136
21
-100.091
0
LINE
8
Black
10
187.136
20
-100.091
11
187.427
21
-100.04
0
LINE
8
Black
10
187.427
20
-100.04
11
187.433
21
-100.04
0
LINE
8
Black
10
187.433
20
-100.04
11
187.724
21
-100.091
0
LINE
8
Black
10
185.184
20
-100.091
11
185.44
21
-100.239
0
LINE
8
Black
10
185.44
20
-100.239
11
185.629
21
-100.465
0
LINE
8
Black
10
185.629
20
-100.465
11
185.73
21
-100.742
0
LINE
8
Black
10
185.73
20
-100.742
11
185.73
21
-101.038
0
LINE
8
Black
10
185.73
20
-101.038
11
185.629
21
-101.315
0
LINE
8
Black
10
185.629
20
-101.315
11
185.44
21
-101.541
0
LINE
8
Black
10
185.44
20
-101.541
11
185.184
21
-101.689
0
LINE
8
Black
10
185.184
20
-101.689
11
184.893
21
-101.74
0
LINE
8
Black
10
184.893
20
-101.74
11
184.887
21
-101.74
0
LINE
8
Black
10
184.887
20
-101.74
11
184.596
21
-101.689
0
LINE
8
Black
10
184.596
20
-101.689
11
184.34
21
-101.541
0
LINE
8
Black
10
184.34
20
-101.541
11
184.151
21
-101.315
0
LINE
8
Black
10
184.151
20
-101.315
11
184.05
21
-101.038
0
LINE
8
Black
10
184.05
20
-101.038
11
184.05
21
-100.742
0
LINE
8
Black
10
184.05
20
-100.742
11
184.151
21
-100.465
0
LINE
8
Black
10
184.151
20
-100.465
11
184.34
21
-100.239
0
LINE
8
Black
10
184.34
20
-100.239
11
184.596
21
-100.091
0
LINE
8
Black
10
184.596
20
-100.091
11
184.887
21
-100.04
0
LINE
8
Black
10
184.887
20
-100.04
11
184.893
21
-100.04
0
LINE
8
Black
10
184.893
20
-100.04
11
185.184
21
-100.091
0
LINE
8
Black
10
156.27
20
-101.685
11
155.47
21
-101.685
0
LINE
8
Black
10
155.47
20
-101.685
11
155.47
21
-100.935
0
LINE
8
Black
10
155.47
20
-100.935
11
156.27
21
-100.935
0
LINE
8
Black
10
156.27
20
-100.935
11
156.27
21
-101.685
0
LINE
8
Black
10
154.77
20
-101.685
11
153.97
21
-101.685
0
LINE
8
Black
10
153.97
20
-101.685
11
153.97
21
-100.935
0
LINE
8
Black
10
153.97
20
-100.935
11
154.77
21
-100.935
0
LINE
8
Black
10
154.77
20
-100.935
11
154.77
21
-101.685
0
LINE
8
Black
10
131.91
20
-101.61
11
130.41
21
-101.61
0
LINE
8
Black
10
130.41
20
-101.61
11
130.41
21
-101.01
0
LINE
8
Black
10
130.41
20
-101.01
11
131.91
21
-101.01
0
LINE
8
Black
10
131.91
20
-101.01
11
131.91
21
-101.61
0
LINE
8
Black
10
137.31
20
-101.61
11
135.81
21
-101.61
0
LINE
8
Black
10
135.81
20
-101.61
11
135.81
21
-101.01
0
LINE
8
Black
10
135.81
20
-101.01
11
137.31
21
-101.01
0
LINE
8
Black
10
137.31
20
-101.01
11
137.31
21
-101.61
0
LINE
8
Black
10
117.435
20
-100.915
11
115.885
21
-100.915
0
LINE
8
Black
10
115.885
20
-100.915
11
115.885
21
-100.315
0
LINE
8
Black
10
115.885
20
-100.315
11
117.435
21
-100.315
0
LINE
8
Black
10
117.435
20
-100.315
11
117.435
21
-100.915
0
LINE
8
Black
10
122.835
20
-100.915
11
121.285
21
-100.915
0
LINE
8
Black
10
121.285
20
-100.915
11
121.285
21
-100.315
0
LINE
8
Black
10
121.285
20
-100.315
11
122.835
21
-100.315
0
LINE
8
Black
10
122.835
20
-100.315
11
122.835
21
-100.915
0
LINE
8
Black
10
127.807
20
-99.3325
11
128.034
21
-99.4633
0
LINE
8
Black
10
128.034
20
-99.4633
11
128.202
21
-99.6636
0
LINE
8
Black
10
128.202
20
-99.6636
11
128.291
21
-99.9093
0
LINE
8
Black
10
128.291
20
-99.9093
11
128.291
21
-100.171
0
LINE
8
Black
10
128.291
20
-100.171
11
128.202
21
-100.416
0
LINE
8
Black
10
128.202
20
-100.416
11
128.034
21
-100.617
0
LINE
8
Black
10
128.034
20
-100.617
11
127.807
21
-100.747
0
LINE
8
Black
10
127.807
20
-100.747
11
127.55
21
-100.793
0
LINE
8
Black
10
127.55
20
-100.793
11
127.293
21
-100.747
0
LINE
8
Black
10
127.293
20
-100.747
11
127.066
21
-100.617
0
LINE
8
Black
10
127.066
20
-100.617
11
126.898
21
-100.416
0
LINE
8
Black
10
126.898
20
-100.416
11
126.809
21
-100.171
0
LINE
8
Black
10
126.809
20
-100.171
11
126.809
21
-99.9093
0
LINE
8
Black
10
126.809
20
-99.9093
11
126.898
21
-99.6636
0
LINE
8
Black
10
126.898
20
-99.6636
11
127.066
21
-99.4633
0
LINE
8
Black
10
127.066
20
-99.4633
11
127.293
21
-99.3325
0
LINE
8
Black
10
127.293
20
-99.3325
11
127.55
21
-99.2871
0
LINE
8
Black
10
127.55
20
-99.2871
11
127.807
21
-99.3325
0
LINE
8
Black
10
137.31
20
-100.34
11
135.81
21
-100.34
0
LINE
8
Black
10
135.81
20
-100.34
11
135.81
21
-99.74
0
LINE
8
Black
10
135.81
20
-99.74
11
137.31
21
-99.74
0
LINE
8
Black
10
137.31
20
-99.74
11
137.31
21
-100.34
0
LINE
8
Black
10
131.91
20
-100.34
11
130.41
21
-100.34
0
LINE
8
Black
10
130.41
20
-100.34
11
130.41
21
-99.74
0
LINE
8
Black
10
130.41
20
-99.74
11
131.91
21
-99.74
0
LINE
8
Black
10
131.91
20
-99.74
11
131.91
21
-100.34
0
LINE
8
Black
10
151.985
20
-100.25
11
151.235
21
-100.25
0
LINE
8
Black
10
151.235
20
-100.25
11
151.235
21
-99.45
0
LINE
8
Black
10
151.235
20
-99.45
11
151.985
21
-99.45
0
LINE
8
Black
10
151.985
20
-99.45
11
151.985
21
-100.25
0
LINE
8
Black
10
96.08
20
-100.04
11
94.08
21
-100.04
0
LINE
8
Black
10
94.08
20
-100.04
11
94.08
21
-97.64
0
LINE
8
Black
10
94.08
20
-97.64
11
96.08
21
-97.64
0
LINE
8
Black
10
96.08
20
-97.64
11
96.08
21
-100.04
0
LINE
8
Black
10
99.78
20
-100.04
11
97.78
21
-100.04
0
LINE
8
Black
10
97.78
20
-100.04
11
97.78
21
-97.64
0
LINE
8
Black
10
97.78
20
-97.64
11
99.78
21
-97.64
0
LINE
8
Black
10
99.78
20
-97.64
11
99.78
21
-100.04
0
LINE
8
Black
10
165.185
20
-99.705
11
163.635
21
-99.705
0
LINE
8
Black
10
163.635
20
-99.705
11
163.635
21
-99.105
0
LINE
8
Black
10
163.635
20
-99.105
11
165.185
21
-99.105
0
LINE
8
Black
10
165.185
20
-99.105
11
165.185
21
-99.705
0
LINE
8
Black
10
170.585
20
-99.705
11
169.035
21
-99.705
0
LINE
8
Black
10
169.035
20
-99.705
11
169.035
21
-99.105
0
LINE
8
Black
10
169.035
20
-99.105
11
170.585
21
-99.105
0
LINE
8
Black
10
170.585
20
-99.105
11
170.585
21
-99.705
0
LINE
8
Black
10
160.545
20
-99.705
11
158.995
21
-99.705
0
LINE
8
Black
10
158.995
20
-99.705
11
158.995
21
-99.105
0
LINE
8
Black
10
158.995
20
-99.105
11
160.545
21
-99.105
0
LINE
8
Black
10
160.545
20
-99.105
11
160.545
21
-99.705
0
LINE
8
Black
10
155.145
20
-99.705
11
153.595
21
-99.705
0
LINE
8
Black
10
153.595
20
-99.705
11
153.595
21
-99.105
0
LINE
8
Black
10
153.595
20
-99.105
11
155.145
21
-99.105
0
LINE
8
Black
10
155.145
20
-99.105
11
155.145
21
-99.705
0
LINE
8
Black
10
122.835
20
-99.645
11
121.285
21
-99.645
0
LINE
8
Black
10
121.285
20
-99.645
11
121.285
21
-99.045
0
LINE
8
Black
10
121.285
20
-99.045
11
122.835
21
-99.045
0
LINE
8
Black
10
122.835
20
-99.045
11
122.835
21
-99.645
0
LINE
8
Black
10
117.435
20
-99.645
11
115.885
21
-99.645
0
LINE
8
Black
10
115.885
20
-99.645
11
115.885
21
-99.045
0
LINE
8
Black
10
115.885
20
-99.045
11
117.435
21
-99.045
0
LINE
8
Black
10
117.435
20
-99.045
11
117.435
21
-99.645
0
LINE
8
Black
10
149.97
20
-99.25
11
149.47
21
-99.25
0
LINE
8
Black
10
149.47
20
-99.25
11
149.47
21
-98.35
0
LINE
8
Black
10
149.47
20
-98.35
11
149.97
21
-98.35
0
LINE
8
Black
10
149.97
20
-98.35
11
149.97
21
-99.25
0
LINE
8
Black
10
148.47
20
-99.25
11
147.97
21
-99.25
0
LINE
8
Black
10
147.97
20
-99.25
11
147.97
21
-98.35
0
LINE
8
Black
10
147.97
20
-98.35
11
148.47
21
-98.35
0
LINE
8
Black
10
148.47
20
-98.35
11
148.47
21
-99.25
0
LINE
8
Black
10
140.82
20
-99.215
11
140.02
21
-99.215
0
LINE
8
Black
10
140.02
20
-99.215
11
140.02
21
-98.465
0
LINE
8
Black
10
140.02
20
-98.465
11
140.82
21
-98.465
0
LINE
8
Black
10
140.82
20
-98.465
11
140.82
21
-99.215
0
LINE
8
Black
10
142.32
20
-99.215
11
141.52
21
-99.215
0
LINE
8
Black
10
141.52
20
-99.215
11
141.52
21
-98.465
0
LINE
8
Black
10
141.52
20
-98.465
11
142.32
21
-98.465
0
LINE
8
Black
10
142.32
20
-98.465
11
142.32
21
-99.215
0
LINE
8
Black
10
187.724
20
-97.5513
11
187.98
21
-97.6989
0
LINE
8
Black
10
187.98
20
-97.6989
11
188.169
21
-97.925
0
LINE
8
Black
10
188.169
20
-97.925
11
188.27
21
-98.2024
0
LINE
8
Black
10
188.27
20
-98.2024
11
188.27
21
-98.4976
0
LINE
8
Black
10
188.27
20
-98.4976
11
188.169
21
-98.775
0
LINE
8
Black
10
188.169
20
-98.775
11
187.98
21
-99.0011
0
LINE
8
Black
10
187.98
20
-99.0011
11
187.724
21
-99.1487
0
LINE
8
Black
10
187.724
20
-99.1487
11
187.433
21
-99.2
0
LINE
8
Black
10
187.433
20
-99.2
11
187.427
21
-99.2
0
LINE
8
Black
10
187.427
20
-99.2
11
187.136
21
-99.1487
0
LINE
8
Black
10
187.136
20
-99.1487
11
186.88
21
-99.0011
0
LINE
8
Black
10
186.88
20
-99.0011
11
186.691
21
-98.775
0
LINE
8
Black
10
186.691
20
-98.775
11
186.59
21
-98.4976
0
LINE
8
Black
10
186.59
20
-98.4976
11
186.59
21
-98.2024
0
LINE
8
Black
10
186.59
20
-98.2024
11
186.691
21
-97.925
0
LINE
8
Black
10
186.691
20
-97.925
11
186.88
21
-97.6989
0
LINE
8
Black
10
186.88
20
-97.6989
11
187.136
21
-97.5513
0
LINE
8
Black
10
187.136
20
-97.5513
11
187.427
21
-97.5
0
LINE
8
Black
10
187.427
20
-97.5
11
187.433
21
-97.5
0
LINE
8
Black
10
187.433
20
-97.5
11
187.724
21
-97.5513
0
LINE
8
Black
10
185.184
20
-97.5513
11
185.44
21
-97.6989
0
LINE
8
Black
10
185.44
20
-97.6989
11
185.629
21
-97.925
0
LINE
8
Black
10
185.629
20
-97.925
11
185.73
21
-98.2024
0
LINE
8
Black
10
185.73
20
-98.2024
11
185.73
21
-98.4976
0
LINE
8
Black
10
185.73
20
-98.4976
11
185.629
21
-98.775
0
LINE
8
Black
10
185.629
20
-98.775
11
185.44
21
-99.0011
0
LINE
8
Black
10
185.44
20
-99.0011
11
185.184
21
-99.1487
0
LINE
8
Black
10
185.184
20
-99.1487
11
184.893
21
-99.2
0
LINE
8
Black
10
184.893
20
-99.2
11
184.887
21
-99.2
0
LINE
8
Black
10
184.887
20
-99.2
11
184.596
21
-99.1487
0
LINE
8
Black
10
184.596
20
-99.1487
11
184.34
21
-99.0011
0
LINE
8
Black
10
184.34
20
-99.0011
11
184.151
21
-98.775
0
LINE
8
Black
10
184.151
20
-98.775
11
184.05
21
-98.4976
0
LINE
8
Black
10
184.05
20
-98.4976
11
184.05
21
-98.2024
0
LINE
8
Black
10
184.05
20
-98.2024
11
184.151
21
-97.925
0
LINE
8
Black
10
184.151
20
-97.925
11
184.34
21
-97.6989
0
LINE
8
Black
10
184.34
20
-97.6989
11
184.596
21
-97.5513
0
LINE
8
Black
10
184.596
20
-97.5513
11
184.887
21
-97.5
0
LINE
8
Black
10
184.887
20
-97.5
11
184.893
21
-97.5
0
LINE
8
Black
10
184.893
20
-97.5
11
185.184
21
-97.5513
0
LINE
8
Black
10
155.145
20
-98.435
11
153.595
21
-98.435
0
LINE
8
Black
10
153.595
20
-98.435
11
153.595
21
-97.835
0
LINE
8
Black
10
153.595
20
-97.835
11
155.145
21
-97.835
0
LINE
8
Black
10
155.145
20
-97.835
11
155.145
21
-98.435
0
LINE
8
Black
10
160.545
20
-98.435
11
158.995
21
-98.435
0
LINE
8
Black
10
158.995
20
-98.435
11
158.995
21
-97.835
0
LINE
8
Black
10
158.995
20
-97.835
11
160.545
21
-97.835
0
LINE
8
Black
10
160.545
20
-97.835
11
160.545
21
-98.435
0
LINE
8
Black
10
165.185
20
-98.435
11
163.635
21
-98.435
0
LINE
8
Black
10
163.635
20
-98.435
11
163.635
21
-97.835
0
LINE
8
Black
10
163.635
20
-97.835
11
165.185
21
-97.835
0
LINE
8
Black
10
165.185
20
-97.835
11
165.185
21
-98.435
0
LINE
8
Black
10
170.585
20
-98.435
11
169.035
21
-98.435
0
LINE
8
Black
10
169.035
20
-98.435
11
169.035
21
-97.835
0
LINE
8
Black
10
169.035
20
-97.835
11
170.585
21
-97.835
0
LINE
8
Black
10
170.585
20
-97.835
11
170.585
21
-98.435
0
LINE
8
Black
10
109.16
20
-98.21
11
108.66
21
-98.21
0
LINE
8
Black
10
108.66
20
-98.21
11
108.66
21
-97.31
0
LINE
8
Black
10
108.66
20
-97.31
11
109.16
21
-97.31
0
LINE
8
Black
10
109.16
20
-97.31
11
109.16
21
-98.21
0
LINE
8
Black
10
107.66
20
-98.21
11
107.16
21
-98.21
0
LINE
8
Black
10
107.16
20
-98.21
11
107.16
21
-97.31
0
LINE
8
Black
10
107.16
20
-97.31
11
107.66
21
-97.31
0
LINE
8
Black
10
107.66
20
-97.31
11
107.66
21
-98.21
0
LINE
8
Black
10
103.69
20
-98.135
11
102.89
21
-98.135
0
LINE
8
Black
10
102.89
20
-98.135
11
102.89
21
-97.385
0
LINE
8
Black
10
102.89
20
-97.385
11
103.69
21
-97.385
0
LINE
8
Black
10
103.69
20
-97.385
11
103.69
21
-98.135
0
LINE
8
Black
10
105.19
20
-98.135
11
104.39
21
-98.135
0
LINE
8
Black
10
104.39
20
-98.135
11
104.39
21
-97.385
0
LINE
8
Black
10
104.39
20
-97.385
11
105.19
21
-97.385
0
LINE
8
Black
10
105.19
20
-97.385
11
105.19
21
-98.135
0
LINE
8
Black
10
122.67
20
-98.115
11
121.87
21
-98.115
0
LINE
8
Black
10
121.87
20
-98.115
11
121.87
21
-97.365
0
LINE
8
Black
10
121.87
20
-97.365
11
122.67
21
-97.365
0
LINE
8
Black
10
122.67
20
-97.365
11
122.67
21
-98.115
0
LINE
8
Black
10
124.17
20
-98.115
11
123.37
21
-98.115
0
LINE
8
Black
10
123.37
20
-98.115
11
123.37
21
-97.365
0
LINE
8
Black
10
123.37
20
-97.365
11
124.17
21
-97.365
0
LINE
8
Black
10
124.17
20
-97.365
11
124.17
21
-98.115
0
LINE
8
Black
10
116.79
20
-98.005
11
115.99
21
-98.005
0
LINE
8
Black
10
115.99
20
-98.005
11
115.99
21
-97.255
0
LINE
8
Black
10
115.99
20
-97.255
11
116.79
21
-97.255
0
LINE
8
Black
10
116.79
20
-97.255
11
116.79
21
-98.005
0
LINE
8
Black
10
115.29
20
-98.005
11
114.49
21
-98.005
0
LINE
8
Black
10
114.49
20
-98.005
11
114.49
21
-97.255
0
LINE
8
Black
10
114.49
20
-97.255
11
115.29
21
-97.255
0
LINE
8
Black
10
115.29
20
-97.255
11
115.29
21
-98.005
0
LINE
8
Black
10
151.985
20
-97.26
11
151.235
21
-97.26
0
LINE
8
Black
10
151.235
20
-97.26
11
151.235
21
-96.46
0
LINE
8
Black
10
151.235
20
-96.46
11
151.985
21
-96.46
0
LINE
8
Black
10
151.985
20
-96.46
11
151.985
21
-97.26
0
LINE
8
Black
10
160.545
20
-97.165
11
158.995
21
-97.165
0
LINE
8
Black
10
158.995
20
-97.165
11
158.995
21
-96.565
0
LINE
8
Black
10
158.995
20
-96.565
11
160.545
21
-96.565
0
LINE
8
Black
10
160.545
20
-96.565
11
160.545
21
-97.165
0
LINE
8
Black
10
155.145
20
-97.165
11
153.595
21
-97.165
0
LINE
8
Black
10
153.595
20
-97.165
11
153.595
21
-96.565
0
LINE
8
Black
10
153.595
20
-96.565
11
155.145
21
-96.565
0
LINE
8
Black
10
155.145
20
-96.565
11
155.145
21
-97.165
0
LINE
8
Black
10
165.185
20
-97.165
11
163.635
21
-97.165
0
LINE
8
Black
10
163.635
20
-97.165
11
163.635
21
-96.565
0
LINE
8
Black
10
163.635
20
-96.565
11
165.185
21
-96.565
0
LINE
8
Black
10
165.185
20
-96.565
11
165.185
21
-97.165
0
LINE
8
Black
10
170.585
20
-97.165
11
169.035
21
-97.165
0
LINE
8
Black
10
169.035
20
-97.165
11
169.035
21
-96.565
0
LINE
8
Black
10
169.035
20
-96.565
11
170.585
21
-96.565
0
LINE
8
Black
10
170.585
20
-96.565
11
170.585
21
-97.165
0
LINE
8
Black
10
139.135
20
-96.77
11
138.585
21
-96.77
0
LINE
8
Black
10
138.585
20
-96.77
11
138.585
21
-95.27
0
LINE
8
Black
10
138.585
20
-95.27
11
139.135
21
-95.27
0
LINE
8
Black
10
139.135
20
-95.27
11
139.135
21
-96.77
0
LINE
8
Black
10
134.335
20
-96.77
11
133.785
21
-96.77
0
LINE
8
Black
10
133.785
20
-96.77
11
133.785
21
-95.27
0
LINE
8
Black
10
133.785
20
-95.27
11
134.335
21
-95.27
0
LINE
8
Black
10
134.335
20
-95.27
11
134.335
21
-96.77
0
LINE
8
Black
10
135.135
20
-96.77
11
134.585
21
-96.77
0
LINE
8
Black
10
134.585
20
-96.77
11
134.585
21
-95.27
0
LINE
8
Black
10
134.585
20
-95.27
11
135.135
21
-95.27
0
LINE
8
Black
10
135.135
20
-95.27
11
135.135
21
-96.77
0
LINE
8
Black
10
135.935
20
-96.77
11
135.385
21
-96.77
0
LINE
8
Black
10
135.385
20
-96.77
11
135.385
21
-95.27
0
LINE
8
Black
10
135.385
20
-95.27
11
135.935
21
-95.27
0
LINE
8
Black
10
135.935
20
-95.27
11
135.935
21
-96.77
0
LINE
8
Black
10
136.735
20
-96.77
11
136.185
21
-96.77
0
LINE
8
Black
10
136.185
20
-96.77
11
136.185
21
-95.27
0
LINE
8
Black
10
136.185
20
-95.27
11
136.735
21
-95.27
0
LINE
8
Black
10
136.735
20
-95.27
11
136.735
21
-96.77
0
LINE
8
Black
10
137.535
20
-96.77
11
136.985
21
-96.77
0
LINE
8
Black
10
136.985
20
-96.77
11
136.985
21
-95.27
0
LINE
8
Black
10
136.985
20
-95.27
11
137.535
21
-95.27
0
LINE
8
Black
10
137.535
20
-95.27
11
137.535
21
-96.77
0
LINE
8
Black
10
139.935
20
-96.77
11
139.385
21
-96.77
0
LINE
8
Black
10
139.385
20
-96.77
11
139.385
21
-95.27
0
LINE
8
Black
10
139.385
20
-95.27
11
139.935
21
-95.27
0
LINE
8
Black
10
139.935
20
-95.27
11
139.935
21
-96.77
0
LINE
8
Black
10
138.335
20
-96.77
11
137.785
21
-96.77
0
LINE
8
Black
10
137.785
20
-96.77
11
137.785
21
-95.27
0
LINE
8
Black
10
137.785
20
-95.27
11
138.335
21
-95.27
0
LINE
8
Black
10
138.335
20
-95.27
11
138.335
21
-96.77
0
LINE
8
Black
10
142.335
20
-96.77
11
141.785
21
-96.77
0
LINE
8
Black
10
141.785
20
-96.77
11
141.785
21
-95.27
0
LINE
8
Black
10
141.785
20
-95.27
11
142.335
21
-95.27
0
LINE
8
Black
10
142.335
20
-95.27
11
142.335
21
-96.77
0
LINE
8
Black
10
141.535
20
-96.77
11
140.985
21
-96.77
0
LINE
8
Black
10
140.985
20
-96.77
11
140.985
21
-95.27
0
LINE
8
Black
10
140.985
20
-95.27
11
141.535
21
-95.27
0
LINE
8
Black
10
141.535
20
-95.27
11
141.535
21
-96.77
0
LINE
8
Black
10
140.735
20
-96.77
11
140.185
21
-96.77
0
LINE
8
Black
10
140.185
20
-96.77
11
140.185
21
-95.27
0
LINE
8
Black
10
140.185
20
-95.27
11
140.735
21
-95.27
0
LINE
8
Black
10
140.735
20
-95.27
11
140.735
21
-96.77
0
LINE
8
Black
10
148.49
20
-96.71
11
147.99
21
-96.71
0
LINE
8
Black
10
147.99
20
-96.71
11
147.99
21
-95.81
0
LINE
8
Black
10
147.99
20
-95.81
11
148.49
21
-95.81
0
LINE
8
Black
10
148.49
20
-95.81
11
148.49
21
-96.71
0
LINE
8
Black
10
149.99
20
-96.71
11
149.49
21
-96.71
0
LINE
8
Black
10
149.49
20
-96.71
11
149.49
21
-95.81
0
LINE
8
Black
10
149.49
20
-95.81
11
149.99
21
-95.81
0
LINE
8
Black
10
149.99
20
-95.81
11
149.99
21
-96.71
0
LINE
8
Black
10
187.724
20
-95.0113
11
187.98
21
-95.1589
0
LINE
8
Black
10
187.98
20
-95.1589
11
188.169
21
-95.385
0
LINE
8
Black
10
188.169
20
-95.385
11
188.27
21
-95.6624
0
LINE
8
Black
10
188.27
20
-95.6624
11
188.27
21
-95.9576
0
LINE
8
Black
10
188.27
20
-95.9576
11
188.169
21
-96.235
0
LINE
8
Black
10
188.169
20
-96.235
11
187.98
21
-96.4611
0
LINE
8
Black
10
187.98
20
-96.4611
11
187.724
21
-96.6087
0
LINE
8
Black
10
187.724
20
-96.6087
11
187.433
21
-96.66
0
LINE
8
Black
10
187.433
20
-96.66
11
187.427
21
-96.66
0
LINE
8
Black
10
187.427
20
-96.66
11
187.136
21
-96.6087
0
LINE
8
Black
10
187.136
20
-96.6087
11
186.88
21
-96.4611
0
LINE
8
Black
10
186.88
20
-96.4611
11
186.691
21
-96.235
0
LINE
8
Black
10
186.691
20
-96.235
11
186.59
21
-95.9576
0
LINE
8
Black
10
186.59
20
-95.9576
11
186.59
21
-95.6624
0
LINE
8
Black
10
186.59
20
-95.6624
11
186.691
21
-95.385
0
LINE
8
Black
10
186.691
20
-95.385
11
186.88
21
-95.1589
0
LINE
8
Black
10
186.88
20
-95.1589
11
187.136
21
-95.0113
0
LINE
8
Black
10
187.136
20
-95.0113
11
187.427
21
-94.96
0
LINE
8
Black
10
187.427
20
-94.96
11
187.433
21
-94.96
0
LINE
8
Black
10
187.433
20
-94.96
11
187.724
21
-95.0113
0
LINE
8
Black
10
185.184
20
-95.0113
11
185.44
21
-95.1589
0
LINE
8
Black
10
185.44
20
-95.1589
11
185.629
21
-95.385
0
LINE
8
Black
10
185.629
20
-95.385
11
185.73
21
-95.6624
0
LINE
8
Black
10
185.73
20
-95.6624
11
185.73
21
-95.9576
0
LINE
8
Black
10
185.73
20
-95.9576
11
185.629
21
-96.235
0
LINE
8
Black
10
185.629
20
-96.235
11
185.44
21
-96.4611
0
LINE
8
Black
10
185.44
20
-96.4611
11
185.184
21
-96.6087
0
LINE
8
Black
10
185.184
20
-96.6087
11
184.893
21
-96.66
0
LINE
8
Black
10
184.893
20
-96.66
11
184.887
21
-96.66
0
LINE
8
Black
10
184.887
20
-96.66
11
184.596
21
-96.6087
0
LINE
8
Black
10
184.596
20
-96.6087
11
184.34
21
-96.4611
0
LINE
8
Black
10
184.34
20
-96.4611
11
184.151
21
-96.235
0
LINE
8
Black
10
184.151
20
-96.235
11
184.05
21
-95.9576
0
LINE
8
Black
10
184.05
20
-95.9576
11
184.05
21
-95.6624
0
LINE
8
Black
10
184.05
20
-95.6624
11
184.151
21
-95.385
0
LINE
8
Black
10
184.151
20
-95.385
11
184.34
21
-95.1589
0
LINE
8
Black
10
184.34
20
-95.1589
11
184.596
21
-95.0113
0
LINE
8
Black
10
184.596
20
-95.0113
11
184.887
21
-94.96
0
LINE
8
Black
10
184.887
20
-94.96
11
184.893
21
-94.96
0
LINE
8
Black
10
184.893
20
-94.96
11
185.184
21
-95.0113
0
LINE
8
Black
10
175.715
20
-95.99
11
174.965
21
-95.99
0
LINE
8
Black
10
174.965
20
-95.99
11
174.965
21
-95.19
0
LINE
8
Black
10
174.965
20
-95.19
11
175.715
21
-95.19
0
LINE
8
Black
10
175.715
20
-95.19
11
175.715
21
-95.99
0
LINE
8
Black
10
165.185
20
-95.895
11
163.635
21
-95.895
0
LINE
8
Black
10
163.635
20
-95.895
11
163.635
21
-95.295
0
LINE
8
Black
10
163.635
20
-95.295
11
165.185
21
-95.295
0
LINE
8
Black
10
165.185
20
-95.295
11
165.185
21
-95.895
0
LINE
8
Black
10
155.145
20
-95.895
11
153.595
21
-95.895
0
LINE
8
Black
10
153.595
20
-95.895
11
153.595
21
-95.295
0
LINE
8
Black
10
153.595
20
-95.295
11
155.145
21
-95.295
0
LINE
8
Black
10
155.145
20
-95.295
11
155.145
21
-95.895
0
LINE
8
Black
10
170.585
20
-95.895
11
169.035
21
-95.895
0
LINE
8
Black
10
169.035
20
-95.895
11
169.035
21
-95.295
0
LINE
8
Black
10
169.035
20
-95.295
11
170.585
21
-95.295
0
LINE
8
Black
10
170.585
20
-95.295
11
170.585
21
-95.895
0
LINE
8
Black
10
160.545
20
-95.895
11
158.995
21
-95.895
0
LINE
8
Black
10
158.995
20
-95.895
11
158.995
21
-95.295
0
LINE
8
Black
10
158.995
20
-95.295
11
160.545
21
-95.295
0
LINE
8
Black
10
160.545
20
-95.295
11
160.545
21
-95.895
0
LINE
8
Black
10
173.84
20
-95.83
11
172.94
21
-95.83
0
LINE
8
Black
10
172.94
20
-95.83
11
172.94
21
-95.33
0
LINE
8
Black
10
172.94
20
-95.33
11
173.84
21
-95.33
0
LINE
8
Black
10
173.84
20
-95.33
11
173.84
21
-95.83
0
LINE
8
Black
10
151.985
20
-95.76
11
151.235
21
-95.76
0
LINE
8
Black
10
151.235
20
-95.76
11
151.235
21
-94.96
0
LINE
8
Black
10
151.235
20
-94.96
11
151.985
21
-94.96
0
LINE
8
Black
10
151.985
20
-94.96
11
151.985
21
-95.76
0
LINE
8
Black
10
94.13
20
-95.27
11
93.23
21
-95.27
0
LINE
8
Black
10
93.23
20
-95.27
11
93.23
21
-94.77
0
LINE
8
Black
10
93.23
20
-94.77
11
94.13
21
-94.77
0
LINE
8
Black
10
94.13
20
-94.77
11
94.13
21
-95.27
0
LINE
8
Black
10
116.67
20
-95.19
11
114.97
21
-95.19
0
LINE
8
Black
10
114.97
20
-95.19
11
114.97
21
-93.49
0
LINE
8
Black
10
114.97
20
-93.49
11
116.67
21
-93.49
0
LINE
8
Black
10
116.67
20
-93.49
11
116.67
21
-95.19
0
LINE
8
Black
10
121.325
20
-93.6006
11
121.551
21
-93.7904
0
LINE
8
Black
10
121.551
20
-93.7904
11
121.699
21
-94.046
0
LINE
8
Black
10
121.699
20
-94.046
11
121.75
21
-94.3368
0
LINE
8
Black
10
121.75
20
-94.3368
11
121.75
21
-94.3432
0
LINE
8
Black
10
121.75
20
-94.3432
11
121.699
21
-94.634
0
LINE
8
Black
10
121.699
20
-94.634
11
121.551
21
-94.8896
0
LINE
8
Black
10
121.551
20
-94.8896
11
121.325
21
-95.0794
0
LINE
8
Black
10
121.325
20
-95.0794
11
121.048
21
-95.1803
0
LINE
8
Black
10
121.048
20
-95.1803
11
120.752
21
-95.1803
0
LINE
8
Black
10
120.752
20
-95.1803
11
120.475
21
-95.0794
0
LINE
8
Black
10
120.475
20
-95.0794
11
120.249
21
-94.8896
0
LINE
8
Black
10
120.249
20
-94.8896
11
120.101
21
-94.634
0
LINE
8
Black
10
120.101
20
-94.634
11
120.05
21
-94.3432
0
LINE
8
Black
10
120.05
20
-94.3432
11
120.05
21
-94.3368
0
LINE
8
Black
10
120.05
20
-94.3368
11
120.101
21
-94.046
0
LINE
8
Black
10
120.101
20
-94.046
11
120.249
21
-93.7904
0
LINE
8
Black
10
120.249
20
-93.7904
11
120.475
21
-93.6006
0
LINE
8
Black
10
120.475
20
-93.6006
11
120.752
21
-93.4997
0
LINE
8
Black
10
120.752
20
-93.4997
11
121.048
21
-93.4997
0
LINE
8
Black
10
121.048
20
-93.4997
11
121.325
21
-93.6006
0
LINE
8
Black
10
126.405
20
-93.6006
11
126.631
21
-93.7904
0
LINE
8
Black
10
126.631
20
-93.7904
11
126.779
21
-94.046
0
LINE
8
Black
10
126.779
20
-94.046
11
126.83
21
-94.3368
0
LINE
8
Black
10
126.83
20
-94.3368
11
126.83
21
-94.3432
0
LINE
8
Black
10
126.83
20
-94.3432
11
126.779
21
-94.634
0
LINE
8
Black
10
126.779
20
-94.634
11
126.631
21
-94.8896
0
LINE
8
Black
10
126.631
20
-94.8896
11
126.405
21
-95.0794
0
LINE
8
Black
10
126.405
20
-95.0794
11
126.128
21
-95.1803
0
LINE
8
Black
10
126.128
20
-95.1803
11
125.832
21
-95.1803
0
LINE
8
Black
10
125.832
20
-95.1803
11
125.555
21
-95.0794
0
LINE
8
Black
10
125.555
20
-95.0794
11
125.329
21
-94.8896
0
LINE
8
Black
10
125.329
20
-94.8896
11
125.181
21
-94.634
0
LINE
8
Black
10
125.181
20
-94.634
11
125.13
21
-94.3432
0
LINE
8
Black
10
125.13
20
-94.3432
11
125.13
21
-94.3368
0
LINE
8
Black
10
125.13
20
-94.3368
11
125.181
21
-94.046
0
LINE
8
Black
10
125.181
20
-94.046
11
125.329
21
-93.7904
0
LINE
8
Black
10
125.329
20
-93.7904
11
125.555
21
-93.6006
0
LINE
8
Black
10
125.555
20
-93.6006
11
125.832
21
-93.4997
0
LINE
8
Black
10
125.832
20
-93.4997
11
126.128
21
-93.4997
0
LINE
8
Black
10
126.128
20
-93.4997
11
126.405
21
-93.6006
0
LINE
8
Black
10
128.945
20
-93.6006
11
129.171
21
-93.7904
0
LINE
8
Black
10
129.171
20
-93.7904
11
129.319
21
-94.046
0
LINE
8
Black
10
129.319
20
-94.046
11
129.37
21
-94.3368
0
LINE
8
Black
10
129.37
20
-94.3368
11
129.37
21
-94.3432
0
LINE
8
Black
10
129.37
20
-94.3432
11
129.319
21
-94.634
0
LINE
8
Black
10
129.319
20
-94.634
11
129.171
21
-94.8896
0
LINE
8
Black
10
129.171
20
-94.8896
11
128.945
21
-95.0794
0
LINE
8
Black
10
128.945
20
-95.0794
11
128.668
21
-95.1803
0
LINE
8
Black
10
128.668
20
-95.1803
11
128.372
21
-95.1803
0
LINE
8
Black
10
128.372
20
-95.1803
11
128.095
21
-95.0794
0
LINE
8
Black
10
128.095
20
-95.0794
11
127.869
21
-94.8896
0
LINE
8
Black
10
127.869
20
-94.8896
11
127.721
21
-94.634
0
LINE
8
Black
10
127.721
20
-94.634
11
127.67
21
-94.3432
0
LINE
8
Black
10
127.67
20
-94.3432
11
127.67
21
-94.3368
0
LINE
8
Black
10
127.67
20
-94.3368
11
127.721
21
-94.046
0
LINE
8
Black
10
127.721
20
-94.046
11
127.869
21
-93.7904
0
LINE
8
Black
10
127.869
20
-93.7904
11
128.095
21
-93.6006
0
LINE
8
Black
10
128.095
20
-93.6006
11
128.372
21
-93.4997
0
LINE
8
Black
10
128.372
20
-93.4997
11
128.668
21
-93.4997
0
LINE
8
Black
10
128.668
20
-93.4997
11
128.945
21
-93.6006
0
LINE
8
Black
10
123.865
20
-93.6006
11
124.091
21
-93.7904
0
LINE
8
Black
10
124.091
20
-93.7904
11
124.239
21
-94.046
0
LINE
8
Black
10
124.239
20
-94.046
11
124.29
21
-94.3368
0
LINE
8
Black
10
124.29
20
-94.3368
11
124.29
21
-94.3432
0
LINE
8
Black
10
124.29
20
-94.3432
11
124.239
21
-94.634
0
LINE
8
Black
10
124.239
20
-94.634
11
124.091
21
-94.8896
0
LINE
8
Black
10
124.091
20
-94.8896
11
123.865
21
-95.0794
0
LINE
8
Black
10
123.865
20
-95.0794
11
123.588
21
-95.1803
0
LINE
8
Black
10
123.588
20
-95.1803
11
123.292
21
-95.1803
0
LINE
8
Black
10
123.292
20
-95.1803
11
123.015
21
-95.0794
0
LINE
8
Black
10
123.015
20
-95.0794
11
122.789
21
-94.8896
0
LINE
8
Black
10
122.789
20
-94.8896
11
122.641
21
-94.634
0
LINE
8
Black
10
122.641
20
-94.634
11
122.59
21
-94.3432
0
LINE
8
Black
10
122.59
20
-94.3432
11
122.59
21
-94.3368
0
LINE
8
Black
10
122.59
20
-94.3368
11
122.641
21
-94.046
0
LINE
8
Black
10
122.641
20
-94.046
11
122.789
21
-93.7904
0
LINE
8
Black
10
122.789
20
-93.7904
11
123.015
21
-93.6006
0
LINE
8
Black
10
123.015
20
-93.6006
11
123.292
21
-93.4997
0
LINE
8
Black
10
123.292
20
-93.4997
11
123.588
21
-93.4997
0
LINE
8
Black
10
123.588
20
-93.4997
11
123.865
21
-93.6006
0
LINE
8
Black
10
118.785
20
-93.6006
11
119.011
21
-93.7904
0
LINE
8
Black
10
119.011
20
-93.7904
11
119.159
21
-94.046
0
LINE
8
Black
10
119.159
20
-94.046
11
119.21
21
-94.3368
0
LINE
8
Black
10
119.21
20
-94.3368
11
119.21
21
-94.3432
0
LINE
8
Black
10
119.21
20
-94.3432
11
119.159
21
-94.634
0
LINE
8
Black
10
119.159
20
-94.634
11
119.011
21
-94.8896
0
LINE
8
Black
10
119.011
20
-94.8896
11
118.785
21
-95.0794
0
LINE
8
Black
10
118.785
20
-95.0794
11
118.508
21
-95.1803
0
LINE
8
Black
10
118.508
20
-95.1803
11
118.212
21
-95.1803
0
LINE
8
Black
10
118.212
20
-95.1803
11
117.935
21
-95.0794
0
LINE
8
Black
10
117.935
20
-95.0794
11
117.709
21
-94.8896
0
LINE
8
Black
10
117.709
20
-94.8896
11
117.561
21
-94.634
0
LINE
8
Black
10
117.561
20
-94.634
11
117.51
21
-94.3432
0
LINE
8
Black
10
117.51
20
-94.3432
11
117.51
21
-94.3368
0
LINE
8
Black
10
117.51
20
-94.3368
11
117.561
21
-94.046
0
LINE
8
Black
10
117.561
20
-94.046
11
117.709
21
-93.7904
0
LINE
8
Black
10
117.709
20
-93.7904
11
117.935
21
-93.6006
0
LINE
8
Black
10
117.935
20
-93.6006
11
118.212
21
-93.4997
0
LINE
8
Black
10
118.212
20
-93.4997
11
118.508
21
-93.4997
0
LINE
8
Black
10
118.508
20
-93.4997
11
118.785
21
-93.6006
0
LINE
8
Black
10
144.51
20
-94.595
11
143.01
21
-94.595
0
LINE
8
Black
10
143.01
20
-94.595
11
143.01
21
-94.045
0
LINE
8
Black
10
143.01
20
-94.045
11
144.51
21
-94.045
0
LINE
8
Black
10
144.51
20
-94.045
11
144.51
21
-94.595
0
LINE
8
Black
10
133.11
20
-94.595
11
131.61
21
-94.595
0
LINE
8
Black
10
131.61
20
-94.595
11
131.61
21
-94.045
0
LINE
8
Black
10
131.61
20
-94.045
11
133.11
21
-94.045
0
LINE
8
Black
10
133.11
20
-94.045
11
133.11
21
-94.595
0
LINE
8
Black
10
175.715
20
-94.49
11
174.965
21
-94.49
0
LINE
8
Black
10
174.965
20
-94.49
11
174.965
21
-93.69
0
LINE
8
Black
10
174.965
20
-93.69
11
175.715
21
-93.69
0
LINE
8
Black
10
175.715
20
-93.69
11
175.715
21
-94.49
0
LINE
8
Black
10
97.815
20
-94.485
11
97.215
21
-94.485
0
LINE
8
Black
10
97.215
20
-94.485
11
97.215
21
-92.535
0
LINE
8
Black
10
97.215
20
-92.535
11
97.815
21
-92.535
0
LINE
8
Black
10
97.815
20
-92.535
11
97.815
21
-94.485
0
LINE
8
Black
10
105.435
20
-94.485
11
104.835
21
-94.485
0
LINE
8
Black
10
104.835
20
-94.485
11
104.835
21
-92.535
0
LINE
8
Black
10
104.835
20
-92.535
11
105.435
21
-92.535
0
LINE
8
Black
10
105.435
20
-92.535
11
105.435
21
-94.485
0
LINE
8
Black
10
106.705
20
-94.485
11
106.105
21
-94.485
0
LINE
8
Black
10
106.105
20
-94.485
11
106.105
21
-92.535
0
LINE
8
Black
10
106.105
20
-92.535
11
106.705
21
-92.535
0
LINE
8
Black
10
106.705
20
-92.535
11
106.705
21
-94.485
0
LINE
8
Black
10
107.975
20
-94.485
11
107.375
21
-94.485
0
LINE
8
Black
10
107.375
20
-94.485
11
107.375
21
-92.535
0
LINE
8
Black
10
107.375
20
-92.535
11
107.975
21
-92.535
0
LINE
8
Black
10
107.975
20
-92.535
11
107.975
21
-94.485
0
LINE
8
Black
10
104.165
20
-94.485
11
103.565
21
-94.485
0
LINE
8
Black
10
103.565
20
-94.485
11
103.565
21
-92.535
0
LINE
8
Black
10
103.565
20
-92.535
11
104.165
21
-92.535
0
LINE
8
Black
10
104.165
20
-92.535
11
104.165
21
-94.485
0
LINE
8
Black
10
102.895
20
-94.485
11
102.295
21
-94.485
0
LINE
8
Black
10
102.295
20
-94.485
11
102.295
21
-92.535
0
LINE
8
Black
10
102.295
20
-92.535
11
102.895
21
-92.535
0
LINE
8
Black
10
102.895
20
-92.535
11
102.895
21
-94.485
0
LINE
8
Black
10
101.625
20
-94.485
11
101.025
21
-94.485
0
LINE
8
Black
10
101.025
20
-94.485
11
101.025
21
-92.535
0
LINE
8
Black
10
101.025
20
-92.535
11
101.625
21
-92.535
0
LINE
8
Black
10
101.625
20
-92.535
11
101.625
21
-94.485
0
LINE
8
Black
10
100.355
20
-94.485
11
99.755
21
-94.485
0
LINE
8
Black
10
99.755
20
-94.485
11
99.755
21
-92.535
0
LINE
8
Black
10
99.755
20
-92.535
11
100.355
21
-92.535
0
LINE
8
Black
10
100.355
20
-92.535
11
100.355
21
-94.485
0
LINE
8
Black
10
99.085
20
-94.485
11
98.485
21
-94.485
0
LINE
8
Black
10
98.485
20
-94.485
11
98.485
21
-92.535
0
LINE
8
Black
10
98.485
20
-92.535
11
99.085
21
-92.535
0
LINE
8
Black
10
99.085
20
-92.535
11
99.085
21
-94.485
0
LINE
8
Black
10
96.545
20
-94.485
11
95.945
21
-94.485
0
LINE
8
Black
10
95.945
20
-94.485
11
95.945
21
-92.535
0
LINE
8
Black
10
95.945
20
-92.535
11
96.545
21
-92.535
0
LINE
8
Black
10
96.545
20
-92.535
11
96.545
21
-94.485
0
LINE
8
Black
10
150
20
-94.33
11
149.5
21
-94.33
0
LINE
8
Black
10
149.5
20
-94.33
11
149.5
21
-93.43
0
LINE
8
Black
10
149.5
20
-93.43
11
150
21
-93.43
0
LINE
8
Black
10
150
20
-93.43
11
150
21
-94.33
0
LINE
8
Black
10
148.5
20
-94.33
11
148
21
-94.33
0
LINE
8
Black
10
148
20
-94.33
11
148
21
-93.43
0
LINE
8
Black
10
148
20
-93.43
11
148.5
21
-93.43
0
LINE
8
Black
10
148.5
20
-93.43
11
148.5
21
-94.33
0
LINE
8
Black
10
173.84
20
-94.33
11
172.94
21
-94.33
0
LINE
8
Black
10
172.94
20
-94.33
11
172.94
21
-93.83
0
LINE
8
Black
10
172.94
20
-93.83
11
173.84
21
-93.83
0
LINE
8
Black
10
173.84
20
-93.83
11
173.84
21
-94.33
0
LINE
8
Black
10
156.41
20
-94.25
11
155.51
21
-94.25
0
LINE
8
Black
10
155.51
20
-94.25
11
155.51
21
-93.75
0
LINE
8
Black
10
155.51
20
-93.75
11
156.41
21
-93.75
0
LINE
8
Black
10
156.41
20
-93.75
11
156.41
21
-94.25
0
LINE
8
Black
10
185.184
20
-92.4713
11
185.44
21
-92.6189
0
LINE
8
Black
10
185.44
20
-92.6189
11
185.629
21
-92.845
0
LINE
8
Black
10
185.629
20
-92.845
11
185.73
21
-93.1224
0
LINE
8
Black
10
185.73
20
-93.1224
11
185.73
21
-93.4176
0
LINE
8
Black
10
185.73
20
-93.4176
11
185.629
21
-93.695
0
LINE
8
Black
10
185.629
20
-93.695
11
185.44
21
-93.9211
0
LINE
8
Black
10
185.44
20
-93.9211
11
185.184
21
-94.0687
0
LINE
8
Black
10
185.184
20
-94.0687
11
184.893
21
-94.12
0
LINE
8
Black
10
184.893
20
-94.12
11
184.887
21
-94.12
0
LINE
8
Black
10
184.887
20
-94.12
11
184.596
21
-94.0687
0
LINE
8
Black
10
184.596
20
-94.0687
11
184.34
21
-93.9211
0
LINE
8
Black
10
184.34
20
-93.9211
11
184.151
21
-93.695
0
LINE
8
Black
10
184.151
20
-93.695
11
184.05
21
-93.4176
0
LINE
8
Black
10
184.05
20
-93.4176
11
184.05
21
-93.1224
0
LINE
8
Black
10
184.05
20
-93.1224
11
184.151
21
-92.845
0
LINE
8
Black
10
184.151
20
-92.845
11
184.34
21
-92.6189
0
LINE
8
Black
10
184.34
20
-92.6189
11
184.596
21
-92.4713
0
LINE
8
Black
10
184.596
20
-92.4713
11
184.887
21
-92.42
0
LINE
8
Black
10
184.887
20
-92.42
11
184.893
21
-92.42
0
LINE
8
Black
10
184.893
20
-92.42
11
185.184
21
-92.4713
0
LINE
8
Black
10
187.724
20
-92.4713
11
187.98
21
-92.6189
0
LINE
8
Black
10
187.98
20
-92.6189
11
188.169
21
-92.845
0
LINE
8
Black
10
188.169
20
-92.845
11
188.27
21
-93.1224
0
LINE
8
Black
10
188.27
20
-93.1224
11
188.27
21
-93.4176
0
LINE
8
Black
10
188.27
20
-93.4176
11
188.169
21
-93.695
0
LINE
8
Black
10
188.169
20
-93.695
11
187.98
21
-93.9211
0
LINE
8
Black
10
187.98
20
-93.9211
11
187.724
21
-94.0687
0
LINE
8
Black
10
187.724
20
-94.0687
11
187.433
21
-94.12
0
LINE
8
Black
10
187.433
20
-94.12
11
187.427
21
-94.12
0
LINE
8
Black
10
187.427
20
-94.12
11
187.136
21
-94.0687
0
LINE
8
Black
10
187.136
20
-94.0687
11
186.88
21
-93.9211
0
LINE
8
Black
10
186.88
20
-93.9211
11
186.691
21
-93.695
0
LINE
8
Black
10
186.691
20
-93.695
11
186.59
21
-93.4176
0
LINE
8
Black
10
186.59
20
-93.4176
11
186.59
21
-93.1224
0
LINE
8
Black
10
186.59
20
-93.1224
11
186.691
21
-92.845
0
LINE
8
Black
10
186.691
20
-92.845
11
186.88
21
-92.6189
0
LINE
8
Black
10
186.88
20
-92.6189
11
187.136
21
-92.4713
0
LINE
8
Black
10
187.136
20
-92.4713
11
187.427
21
-92.42
0
LINE
8
Black
10
187.427
20
-92.42
11
187.433
21
-92.42
0
LINE
8
Black
10
187.433
20
-92.42
11
187.724
21
-92.4713
0
LINE
8
Black
10
161.83
20
-93.915
11
161.03
21
-93.915
0
LINE
8
Black
10
161.03
20
-93.915
11
161.03
21
-93.165
0
LINE
8
Black
10
161.03
20
-93.165
11
161.83
21
-93.165
0
LINE
8
Black
10
161.83
20
-93.165
11
161.83
21
-93.915
0
LINE
8
Black
10
169.57
20
-93.915
11
168.77
21
-93.915
0
LINE
8
Black
10
168.77
20
-93.915
11
168.77
21
-93.165
0
LINE
8
Black
10
168.77
20
-93.165
11
169.57
21
-93.165
0
LINE
8
Black
10
169.57
20
-93.165
11
169.57
21
-93.915
0
LINE
8
Black
10
168.07
20
-93.915
11
167.27
21
-93.915
0
LINE
8
Black
10
167.27
20
-93.915
11
167.27
21
-93.165
0
LINE
8
Black
10
167.27
20
-93.165
11
168.07
21
-93.165
0
LINE
8
Black
10
168.07
20
-93.165
11
168.07
21
-93.915
0
LINE
8
Black
10
160.33
20
-93.915
11
159.53
21
-93.915
0
LINE
8
Black
10
159.53
20
-93.915
11
159.53
21
-93.165
0
LINE
8
Black
10
159.53
20
-93.165
11
160.33
21
-93.165
0
LINE
8
Black
10
160.33
20
-93.165
11
160.33
21
-93.915
0
LINE
8
Black
10
133.11
20
-93.795
11
131.61
21
-93.795
0
LINE
8
Black
10
131.61
20
-93.795
11
131.61
21
-93.245
0
LINE
8
Black
10
131.61
20
-93.245
11
133.11
21
-93.245
0
LINE
8
Black
10
133.11
20
-93.245
11
133.11
21
-93.795
0
LINE
8
Black
10
144.51
20
-93.795
11
143.01
21
-93.795
0
LINE
8
Black
10
143.01
20
-93.795
11
143.01
21
-93.245
0
LINE
8
Black
10
143.01
20
-93.245
11
144.51
21
-93.245
0
LINE
8
Black
10
144.51
20
-93.245
11
144.51
21
-93.795
0
LINE
8
Black
10
94.13
20
-93.77
11
93.23
21
-93.77
0
LINE
8
Black
10
93.23
20
-93.77
11
93.23
21
-93.27
0
LINE
8
Black
10
93.23
20
-93.27
11
94.13
21
-93.27
0
LINE
8
Black
10
94.13
20
-93.27
11
94.13
21
-93.77
0
LINE
8
Black
10
144.51
20
-92.995
11
143.01
21
-92.995
0
LINE
8
Black
10
143.01
20
-92.995
11
143.01
21
-92.445
0
LINE
8
Black
10
143.01
20
-92.445
11
144.51
21
-92.445
0
LINE
8
Black
10
144.51
20
-92.445
11
144.51
21
-92.995
0
LINE
8
Black
10
133.11
20
-92.995
11
131.61
21
-92.995
0
LINE
8
Black
10
131.61
20
-92.995
11
131.61
21
-92.445
0
LINE
8
Black
10
131.61
20
-92.445
11
133.11
21
-92.445
0
LINE
8
Black
10
133.11
20
-92.445
11
133.11
21
-92.995
0
LINE
8
Black
10
154.08
20
-92.77
11
152.88
21
-92.77
0
LINE
8
Black
10
152.88
20
-92.77
11
152.88
21
-91.57
0
LINE
8
Black
10
152.88
20
-91.57
11
154.08
21
-91.57
0
LINE
8
Black
10
154.08
20
-91.57
11
154.08
21
-92.77
0
LINE
8
Black
10
156.41
20
-92.75
11
155.51
21
-92.75
0
LINE
8
Black
10
155.51
20
-92.75
11
155.51
21
-92.25
0
LINE
8
Black
10
155.51
20
-92.25
11
156.41
21
-92.25
0
LINE
8
Black
10
156.41
20
-92.25
11
156.41
21
-92.75
0
LINE
8
Black
10
133.11
20
-92.195
11
131.61
21
-92.195
0
LINE
8
Black
10
131.61
20
-92.195
11
131.61
21
-91.645
0
LINE
8
Black
10
131.61
20
-91.645
11
133.11
21
-91.645
0
LINE
8
Black
10
133.11
20
-91.645
11
133.11
21
-92.195
0
LINE
8
Black
10
144.51
20
-92.195
11
143.01
21
-92.195
0
LINE
8
Black
10
143.01
20
-92.195
11
143.01
21
-91.645
0
LINE
8
Black
10
143.01
20
-91.645
11
144.51
21
-91.645
0
LINE
8
Black
10
144.51
20
-91.645
11
144.51
21
-92.195
0
LINE
8
Black
10
148.51
20
-91.75
11
148.01
21
-91.75
0
LINE
8
Black
10
148.01
20
-91.75
11
148.01
21
-90.85
0
LINE
8
Black
10
148.01
20
-90.85
11
148.51
21
-90.85
0
LINE
8
Black
10
148.51
20
-90.85
11
148.51
21
-91.75
0
LINE
8
Black
10
150.01
20
-91.75
11
149.51
21
-91.75
0
LINE
8
Black
10
149.51
20
-91.75
11
149.51
21
-90.85
0
LINE
8
Black
10
149.51
20
-90.85
11
150.01
21
-90.85
0
LINE
8
Black
10
150.01
20
-90.85
11
150.01
21
-91.75
0
LINE
8
Black
10
170.545
20
-91.735
11
168.995
21
-91.735
0
LINE
8
Black
10
168.995
20
-91.735
11
168.995
21
-91.135
0
LINE
8
Black
10
168.995
20
-91.135
11
170.545
21
-91.135
0
LINE
8
Black
10
170.545
20
-91.135
11
170.545
21
-91.735
0
LINE
8
Black
10
165.145
20
-91.735
11
163.595
21
-91.735
0
LINE
8
Black
10
163.595
20
-91.735
11
163.595
21
-91.135
0
LINE
8
Black
10
163.595
20
-91.135
11
165.145
21
-91.135
0
LINE
8
Black
10
165.145
20
-91.135
11
165.145
21
-91.735
0
LINE
8
Black
10
174.185
20
-91.725
11
172.635
21
-91.725
0
LINE
8
Black
10
172.635
20
-91.725
11
172.635
21
-91.125
0
LINE
8
Black
10
172.635
20
-91.125
11
174.185
21
-91.125
0
LINE
8
Black
10
174.185
20
-91.125
11
174.185
21
-91.725
0
LINE
8
Black
10
179.585
20
-91.725
11
178.035
21
-91.725
0
LINE
8
Black
10
178.035
20
-91.725
11
178.035
21
-91.125
0
LINE
8
Black
10
178.035
20
-91.125
11
179.585
21
-91.125
0
LINE
8
Black
10
179.585
20
-91.125
11
179.585
21
-91.725
0
LINE
8
Black
10
94.075
20
-91.61
11
93.325
21
-91.61
0
LINE
8
Black
10
93.325
20
-91.61
11
93.325
21
-90.81
0
LINE
8
Black
10
93.325
20
-90.81
11
94.075
21
-90.81
0
LINE
8
Black
10
94.075
20
-90.81
11
94.075
21
-91.61
0
LINE
8
Black
10
185.184
20
-89.9313
11
185.44
21
-90.0789
0
LINE
8
Black
10
185.44
20
-90.0789
11
185.629
21
-90.305
0
LINE
8
Black
10
185.629
20
-90.305
11
185.73
21
-90.5824
0
LINE
8
Black
10
185.73
20
-90.5824
11
185.73
21
-90.8776
0
LINE
8
Black
10
185.73
20
-90.8776
11
185.629
21
-91.155
0
LINE
8
Black
10
185.629
20
-91.155
11
185.44
21
-91.3811
0
LINE
8
Black
10
185.44
20
-91.3811
11
185.184
21
-91.5287
0
LINE
8
Black
10
185.184
20
-91.5287
11
184.893
21
-91.58
0
LINE
8
Black
10
184.893
20
-91.58
11
184.887
21
-91.58
0
LINE
8
Black
10
184.887
20
-91.58
11
184.596
21
-91.5287
0
LINE
8
Black
10
184.596
20
-91.5287
11
184.34
21
-91.3811
0
LINE
8
Black
10
184.34
20
-91.3811
11
184.151
21
-91.155
0
LINE
8
Black
10
184.151
20
-91.155
11
184.05
21
-90.8776
0
LINE
8
Black
10
184.05
20
-90.8776
11
184.05
21
-90.5824
0
LINE
8
Black
10
184.05
20
-90.5824
11
184.151
21
-90.305
0
LINE
8
Black
10
184.151
20
-90.305
11
184.34
21
-90.0789
0
LINE
8
Black
10
184.34
20
-90.0789
11
184.596
21
-89.9313
0
LINE
8
Black
10
184.596
20
-89.9313
11
184.887
21
-89.88
0
LINE
8
Black
10
184.887
20
-89.88
11
184.893
21
-89.88
0
LINE
8
Black
10
184.893
20
-89.88
11
185.184
21
-89.9313
0
LINE
8
Black
10
187.724
20
-89.9313
11
187.98
21
-90.0789
0
LINE
8
Black
10
187.98
20
-90.0789
11
188.169
21
-90.305
0
LINE
8
Black
10
188.169
20
-90.305
11
188.27
21
-90.5824
0
LINE
8
Black
10
188.27
20
-90.5824
11
188.27
21
-90.8776
0
LINE
8
Black
10
188.27
20
-90.8776
11
188.169
21
-91.155
0
LINE
8
Black
10
188.169
20
-91.155
11
187.98
21
-91.3811
0
LINE
8
Black
10
187.98
20
-91.3811
11
187.724
21
-91.5287
0
LINE
8
Black
10
187.724
20
-91.5287
11
187.433
21
-91.58
0
LINE
8
Black
10
187.433
20
-91.58
11
187.427
21
-91.58
0
LINE
8
Black
10
187.427
20
-91.58
11
187.136
21
-91.5287
0
LINE
8
Black
10
187.136
20
-91.5287
11
186.88
21
-91.3811
0
LINE
8
Black
10
186.88
20
-91.3811
11
186.691
21
-91.155
0
LINE
8
Black
10
186.691
20
-91.155
11
186.59
21
-90.8776
0
LINE
8
Black
10
186.59
20
-90.8776
11
186.59
21
-90.5824
0
LINE
8
Black
10
186.59
20
-90.5824
11
186.691
21
-90.305
0
LINE
8
Black
10
186.691
20
-90.305
11
186.88
21
-90.0789
0
LINE
8
Black
10
186.88
20
-90.0789
11
187.136
21
-89.9313
0
LINE
8
Black
10
187.136
20
-89.9313
11
187.427
21
-89.88
0
LINE
8
Black
10
187.427
20
-89.88
11
187.433
21
-89.88
0
LINE
8
Black
10
187.433
20
-89.88
11
187.724
21
-89.9313
0
LINE
8
Black
10
129.505
20
-91.51
11
128.755
21
-91.51
0
LINE
8
Black
10
128.755
20
-91.51
11
128.755
21
-90.71
0
LINE
8
Black
10
128.755
20
-90.71
11
129.505
21
-90.71
0
LINE
8
Black
10
129.505
20
-90.71
11
129.505
21
-91.51
0
LINE
8
Black
10
144.51
20
-91.395
11
143.01
21
-91.395
0
LINE
8
Black
10
143.01
20
-91.395
11
143.01
21
-90.845
0
LINE
8
Black
10
143.01
20
-90.845
11
144.51
21
-90.845
0
LINE
8
Black
10
144.51
20
-90.845
11
144.51
21
-91.395
0
LINE
8
Black
10
133.11
20
-91.395
11
131.61
21
-91.395
0
LINE
8
Black
10
131.61
20
-91.395
11
131.61
21
-90.845
0
LINE
8
Black
10
131.61
20
-90.845
11
133.11
21
-90.845
0
LINE
8
Black
10
133.11
20
-90.845
11
133.11
21
-91.395
0
LINE
8
Black
10
113.91
20
-90.91
11
113.41
21
-90.91
0
LINE
8
Black
10
113.41
20
-90.91
11
113.41
21
-90.01
0
LINE
8
Black
10
113.41
20
-90.01
11
113.91
21
-90.01
0
LINE
8
Black
10
113.91
20
-90.01
11
113.91
21
-90.91
0
LINE
8
Black
10
118.23
20
-90.91
11
117.73
21
-90.91
0
LINE
8
Black
10
117.73
20
-90.91
11
117.73
21
-90.01
0
LINE
8
Black
10
117.73
20
-90.01
11
118.23
21
-90.01
0
LINE
8
Black
10
118.23
20
-90.01
11
118.23
21
-90.91
0
LINE
8
Black
10
112.41
20
-90.91
11
111.91
21
-90.91
0
LINE
8
Black
10
111.91
20
-90.91
11
111.91
21
-90.01
0
LINE
8
Black
10
111.91
20
-90.01
11
112.41
21
-90.01
0
LINE
8
Black
10
112.41
20
-90.01
11
112.41
21
-90.91
0
LINE
8
Black
10
116.73
20
-90.91
11
116.23
21
-90.91
0
LINE
8
Black
10
116.23
20
-90.91
11
116.23
21
-90.01
0
LINE
8
Black
10
116.23
20
-90.01
11
116.73
21
-90.01
0
LINE
8
Black
10
116.73
20
-90.01
11
116.73
21
-90.91
0
LINE
8
Black
10
133.11
20
-90.595
11
131.61
21
-90.595
0
LINE
8
Black
10
131.61
20
-90.595
11
131.61
21
-90.045
0
LINE
8
Black
10
131.61
20
-90.045
11
133.11
21
-90.045
0
LINE
8
Black
10
133.11
20
-90.045
11
133.11
21
-90.595
0
LINE
8
Black
10
144.51
20
-90.595
11
143.01
21
-90.595
0
LINE
8
Black
10
143.01
20
-90.595
11
143.01
21
-90.045
0
LINE
8
Black
10
143.01
20
-90.045
11
144.51
21
-90.045
0
LINE
8
Black
10
144.51
20
-90.045
11
144.51
21
-90.595
0
LINE
8
Black
10
154.08
20
-90.57
11
152.88
21
-90.57
0
LINE
8
Black
10
152.88
20
-90.57
11
152.88
21
-89.37
0
LINE
8
Black
10
152.88
20
-89.37
11
154.08
21
-89.37
0
LINE
8
Black
10
154.08
20
-89.37
11
154.08
21
-90.57
0
LINE
8
Black
10
125.464
20
-88.8513
11
125.72
21
-88.9989
0
LINE
8
Black
10
125.72
20
-88.9989
11
125.909
21
-89.225
0
LINE
8
Black
10
125.909
20
-89.225
11
126.01
21
-89.5024
0
LINE
8
Black
10
126.01
20
-89.5024
11
126.01
21
-89.7976
0
LINE
8
Black
10
126.01
20
-89.7976
11
125.909
21
-90.075
0
LINE
8
Black
10
125.909
20
-90.075
11
125.72
21
-90.3011
0
LINE
8
Black
10
125.72
20
-90.3011
11
125.464
21
-90.4487
0
LINE
8
Black
10
125.464
20
-90.4487
11
125.173
21
-90.5
0
LINE
8
Black
10
125.173
20
-90.5
11
125.167
21
-90.5
0
LINE
8
Black
10
125.167
20
-90.5
11
124.876
21
-90.4487
0
LINE
8
Black
10
124.876
20
-90.4487
11
124.62
21
-90.3011
0
LINE
8
Black
10
124.62
20
-90.3011
11
124.431
21
-90.075
0
LINE
8
Black
10
124.431
20
-90.075
11
124.33
21
-89.7976
0
LINE
8
Black
10
124.33
20
-89.7976
11
124.33
21
-89.5024
0
LINE
8
Black
10
124.33
20
-89.5024
11
124.431
21
-89.225
0
LINE
8
Black
10
124.431
20
-89.225
11
124.62
21
-88.9989
0
LINE
8
Black
10
124.62
20
-88.9989
11
124.876
21
-88.8513
0
LINE
8
Black
10
124.876
20
-88.8513
11
125.167
21
-88.8
0
LINE
8
Black
10
125.167
20
-88.8
11
125.173
21
-88.8
0
LINE
8
Black
10
125.173
20
-88.8
11
125.464
21
-88.8513
0
LINE
8
Black
10
165.145
20
-90.465
11
163.595
21
-90.465
0
LINE
8
Black
10
163.595
20
-90.465
11
163.595
21
-89.865
0
LINE
8
Black
10
163.595
20
-89.865
11
165.145
21
-89.865
0
LINE
8
Black
10
165.145
20
-89.865
11
165.145
21
-90.465
0
LINE
8
Black
10
170.545
20
-90.465
11
168.995
21
-90.465
0
LINE
8
Black
10
168.995
20
-90.465
11
168.995
21
-89.865
0
LINE
8
Black
10
168.995
20
-89.865
11
170.545
21
-89.865
0
LINE
8
Black
10
170.545
20
-89.865
11
170.545
21
-90.465
0
LINE
8
Black
10
179.585
20
-90.455
11
178.035
21
-90.455
0
LINE
8
Black
10
178.035
20
-90.455
11
178.035
21
-89.855
0
LINE
8
Black
10
178.035
20
-89.855
11
179.585
21
-89.855
0
LINE
8
Black
10
179.585
20
-89.855
11
179.585
21
-90.455
0
LINE
8
Black
10
174.185
20
-90.455
11
172.635
21
-90.455
0
LINE
8
Black
10
172.635
20
-90.455
11
172.635
21
-89.855
0
LINE
8
Black
10
172.635
20
-89.855
11
174.185
21
-89.855
0
LINE
8
Black
10
174.185
20
-89.855
11
174.185
21
-90.455
0
LINE
8
Black
10
94.075
20
-90.11
11
93.325
21
-90.11
0
LINE
8
Black
10
93.325
20
-90.11
11
93.325
21
-89.31
0
LINE
8
Black
10
93.325
20
-89.31
11
94.075
21
-89.31
0
LINE
8
Black
10
94.075
20
-89.31
11
94.075
21
-90.11
0
LINE
8
Black
10
129.505
20
-90.01
11
128.755
21
-90.01
0
LINE
8
Black
10
128.755
20
-90.01
11
128.755
21
-89.21
0
LINE
8
Black
10
128.755
20
-89.21
11
129.505
21
-89.21
0
LINE
8
Black
10
129.505
20
-89.21
11
129.505
21
-90.01
0
LINE
8
Black
10
144.51
20
-89.795
11
143.01
21
-89.795
0
LINE
8
Black
10
143.01
20
-89.795
11
143.01
21
-89.245
0
LINE
8
Black
10
143.01
20
-89.245
11
144.51
21
-89.245
0
LINE
8
Black
10
144.51
20
-89.245
11
144.51
21
-89.795
0
LINE
8
Black
10
133.11
20
-89.795
11
131.61
21
-89.795
0
LINE
8
Black
10
131.61
20
-89.795
11
131.61
21
-89.245
0
LINE
8
Black
10
131.61
20
-89.245
11
133.11
21
-89.245
0
LINE
8
Black
10
133.11
20
-89.245
11
133.11
21
-89.795
0
LINE
8
Black
10
160.665
20
-89.4
11
159.915
21
-89.4
0
LINE
8
Black
10
159.915
20
-89.4
11
159.915
21
-88.6
0
LINE
8
Black
10
159.915
20
-88.6
11
160.665
21
-88.6
0
LINE
8
Black
10
160.665
20
-88.6
11
160.665
21
-89.4
0
LINE
8
Black
10
162.61
20
-89.26
11
161.71
21
-89.26
0
LINE
8
Black
10
161.71
20
-89.26
11
161.71
21
-88.76
0
LINE
8
Black
10
161.71
20
-88.76
11
162.61
21
-88.76
0
LINE
8
Black
10
162.61
20
-88.76
11
162.61
21
-89.26
0
LINE
8
Black
10
170.545
20
-89.195
11
168.995
21
-89.195
0
LINE
8
Black
10
168.995
20
-89.195
11
168.995
21
-88.595
0
LINE
8
Black
10
168.995
20
-88.595
11
170.545
21
-88.595
0
LINE
8
Black
10
170.545
20
-88.595
11
170.545
21
-89.195
0
LINE
8
Black
10
165.145
20
-89.195
11
163.595
21
-89.195
0
LINE
8
Black
10
163.595
20
-89.195
11
163.595
21
-88.595
0
LINE
8
Black
10
163.595
20
-88.595
11
165.145
21
-88.595
0
LINE
8
Black
10
165.145
20
-88.595
11
165.145
21
-89.195
0
LINE
8
Black
10
174.185
20
-89.185
11
172.635
21
-89.185
0
LINE
8
Black
10
172.635
20
-89.185
11
172.635
21
-88.585
0
LINE
8
Black
10
172.635
20
-88.585
11
174.185
21
-88.585
0
LINE
8
Black
10
174.185
20
-88.585
11
174.185
21
-89.185
0
LINE
8
Black
10
179.585
20
-89.185
11
178.035
21
-89.185
0
LINE
8
Black
10
178.035
20
-89.185
11
178.035
21
-88.585
0
LINE
8
Black
10
178.035
20
-88.585
11
179.585
21
-88.585
0
LINE
8
Black
10
179.585
20
-88.585
11
179.585
21
-89.185
0
LINE
8
Black
10
185.184
20
-87.3913
11
185.44
21
-87.5389
0
LINE
8
Black
10
185.44
20
-87.5389
11
185.629
21
-87.765
0
LINE
8
Black
10
185.629
20
-87.765
11
185.73
21
-88.0424
0
LINE
8
Black
10
185.73
20
-88.0424
11
185.73
21
-88.3376
0
LINE
8
Black
10
185.73
20
-88.3376
11
185.629
21
-88.615
0
LINE
8
Black
10
185.629
20
-88.615
11
185.44
21
-88.8411
0
LINE
8
Black
10
185.44
20
-88.8411
11
185.184
21
-88.9887
0
LINE
8
Black
10
185.184
20
-88.9887
11
184.893
21
-89.04
0
LINE
8
Black
10
184.893
20
-89.04
11
184.887
21
-89.04
0
LINE
8
Black
10
184.887
20
-89.04
11
184.596
21
-88.9887
0
LINE
8
Black
10
184.596
20
-88.9887
11
184.34
21
-88.8411
0
LINE
8
Black
10
184.34
20
-88.8411
11
184.151
21
-88.615
0
LINE
8
Black
10
184.151
20
-88.615
11
184.05
21
-88.3376
0
LINE
8
Black
10
184.05
20
-88.3376
11
184.05
21
-88.0424
0
LINE
8
Black
10
184.05
20
-88.0424
11
184.151
21
-87.765
0
LINE
8
Black
10
184.151
20
-87.765
11
184.34
21
-87.5389
0
LINE
8
Black
10
184.34
20
-87.5389
11
184.596
21
-87.3913
0
LINE
8
Black
10
184.596
20
-87.3913
11
184.887
21
-87.34
0
LINE
8
Black
10
184.887
20
-87.34
11
184.893
21
-87.34
0
LINE
8
Black
10
184.893
20
-87.34
11
185.184
21
-87.3913
0
LINE
8
Black
10
187.724
20
-87.3913
11
187.98
21
-87.5389
0
LINE
8
Black
10
187.98
20
-87.5389
11
188.169
21
-87.765
0
LINE
8
Black
10
188.169
20
-87.765
11
188.27
21
-88.0424
0
LINE
8
Black
10
188.27
20
-88.0424
11
188.27
21
-88.3376
0
LINE
8
Black
10
188.27
20
-88.3376
11
188.169
21
-88.615
0
LINE
8
Black
10
188.169
20
-88.615
11
187.98
21
-88.8411
0
LINE
8
Black
10
187.98
20
-88.8411
11
187.724
21
-88.9887
0
LINE
8
Black
10
187.724
20
-88.9887
11
187.433
21
-89.04
0
LINE
8
Black
10
187.433
20
-89.04
11
187.427
21
-89.04
0
LINE
8
Black
10
187.427
20
-89.04
11
187.136
21
-88.9887
0
LINE
8
Black
10
187.136
20
-88.9887
11
186.88
21
-88.8411
0
LINE
8
Black
10
186.88
20
-88.8411
11
186.691
21
-88.615
0
LINE
8
Black
10
186.691
20
-88.615
11
186.59
21
-88.3376
0
LINE
8
Black
10
186.59
20
-88.3376
11
186.59
21
-88.0424
0
LINE
8
Black
10
186.59
20
-88.0424
11
186.691
21
-87.765
0
LINE
8
Black
10
186.691
20
-87.765
11
186.88
21
-87.5389
0
LINE
8
Black
10
186.88
20
-87.5389
11
187.136
21
-87.3913
0
LINE
8
Black
10
187.136
20
-87.3913
11
187.427
21
-87.34
0
LINE
8
Black
10
187.427
20
-87.34
11
187.433
21
-87.34
0
LINE
8
Black
10
187.433
20
-87.34
11
187.724
21
-87.3913
0
LINE
8
Black
10
133.11
20
-88.995
11
131.61
21
-88.995
0
LINE
8
Black
10
131.61
20
-88.995
11
131.61
21
-88.445
0
LINE
8
Black
10
131.61
20
-88.445
11
133.11
21
-88.445
0
LINE
8
Black
10
133.11
20
-88.445
11
133.11
21
-88.995
0
LINE
8
Black
10
148.7
20
-88.995
11
147.9
21
-88.995
0
LINE
8
Black
10
147.9
20
-88.995
11
147.9
21
-88.245
0
LINE
8
Black
10
147.9
20
-88.245
11
148.7
21
-88.245
0
LINE
8
Black
10
148.7
20
-88.245
11
148.7
21
-88.995
0
LINE
8
Black
10
150.2
20
-88.995
11
149.4
21
-88.995
0
LINE
8
Black
10
149.4
20
-88.995
11
149.4
21
-88.245
0
LINE
8
Black
10
149.4
20
-88.245
11
150.2
21
-88.245
0
LINE
8
Black
10
150.2
20
-88.245
11
150.2
21
-88.995
0
LINE
8
Black
10
144.51
20
-88.995
11
143.01
21
-88.995
0
LINE
8
Black
10
143.01
20
-88.995
11
143.01
21
-88.445
0
LINE
8
Black
10
143.01
20
-88.445
11
144.51
21
-88.445
0
LINE
8
Black
10
144.51
20
-88.445
11
144.51
21
-88.995
0
LINE
8
Black
10
144.51
20
-88.195
11
143.01
21
-88.195
0
LINE
8
Black
10
143.01
20
-88.195
11
143.01
21
-87.645
0
LINE
8
Black
10
143.01
20
-87.645
11
144.51
21
-87.645
0
LINE
8
Black
10
144.51
20
-87.645
11
144.51
21
-88.195
0
LINE
8
Black
10
133.11
20
-88.195
11
131.61
21
-88.195
0
LINE
8
Black
10
131.61
20
-88.195
11
131.61
21
-87.645
0
LINE
8
Black
10
131.61
20
-87.645
11
133.11
21
-87.645
0
LINE
8
Black
10
133.11
20
-87.645
11
133.11
21
-88.195
0
LINE
8
Black
10
125.464
20
-86.3113
11
125.72
21
-86.4589
0
LINE
8
Black
10
125.72
20
-86.4589
11
125.909
21
-86.685
0
LINE
8
Black
10
125.909
20
-86.685
11
126.01
21
-86.9624
0
LINE
8
Black
10
126.01
20
-86.9624
11
126.01
21
-87.2576
0
LINE
8
Black
10
126.01
20
-87.2576
11
125.909
21
-87.535
0
LINE
8
Black
10
125.909
20
-87.535
11
125.72
21
-87.7611
0
LINE
8
Black
10
125.72
20
-87.7611
11
125.464
21
-87.9087
0
LINE
8
Black
10
125.464
20
-87.9087
11
125.173
21
-87.96
0
LINE
8
Black
10
125.173
20
-87.96
11
125.167
21
-87.96
0
LINE
8
Black
10
125.167
20
-87.96
11
124.876
21
-87.9087
0
LINE
8
Black
10
124.876
20
-87.9087
11
124.62
21
-87.7611
0
LINE
8
Black
10
124.62
20
-87.7611
11
124.431
21
-87.535
0
LINE
8
Black
10
124.431
20
-87.535
11
124.33
21
-87.2576
0
LINE
8
Black
10
124.33
20
-87.2576
11
124.33
21
-86.9624
0
LINE
8
Black
10
124.33
20
-86.9624
11
124.431
21
-86.685
0
LINE
8
Black
10
124.431
20
-86.685
11
124.62
21
-86.4589
0
LINE
8
Black
10
124.62
20
-86.4589
11
124.876
21
-86.3113
0
LINE
8
Black
10
124.876
20
-86.3113
11
125.167
21
-86.26
0
LINE
8
Black
10
125.167
20
-86.26
11
125.173
21
-86.26
0
LINE
8
Black
10
125.173
20
-86.26
11
125.464
21
-86.3113
0
LINE
8
Black
10
165.145
20
-87.925
11
163.595
21
-87.925
0
LINE
8
Black
10
163.595
20
-87.925
11
163.595
21
-87.325
0
LINE
8
Black
10
163.595
20
-87.325
11
165.145
21
-87.325
0
LINE
8
Black
10
165.145
20
-87.325
11
165.145
21
-87.925
0
LINE
8
Black
10
170.545
20
-87.925
11
168.995
21
-87.925
0
LINE
8
Black
10
168.995
20
-87.925
11
168.995
21
-87.325
0
LINE
8
Black
10
168.995
20
-87.325
11
170.545
21
-87.325
0
LINE
8
Black
10
170.545
20
-87.325
11
170.545
21
-87.925
0
LINE
8
Black
10
174.185
20
-87.915
11
172.635
21
-87.915
0
LINE
8
Black
10
172.635
20
-87.915
11
172.635
21
-87.315
0
LINE
8
Black
10
172.635
20
-87.315
11
174.185
21
-87.315
0
LINE
8
Black
10
174.185
20
-87.315
11
174.185
21
-87.915
0
LINE
8
Black
10
179.585
20
-87.915
11
178.035
21
-87.915
0
LINE
8
Black
10
178.035
20
-87.915
11
178.035
21
-87.315
0
LINE
8
Black
10
178.035
20
-87.315
11
179.585
21
-87.315
0
LINE
8
Black
10
179.585
20
-87.315
11
179.585
21
-87.915
0
LINE
8
Black
10
160.665
20
-87.9
11
159.915
21
-87.9
0
LINE
8
Black
10
159.915
20
-87.9
11
159.915
21
-87.1
0
LINE
8
Black
10
159.915
20
-87.1
11
160.665
21
-87.1
0
LINE
8
Black
10
160.665
20
-87.1
11
160.665
21
-87.9
0
LINE
8
Black
10
94.065
20
-87.83
11
93.315
21
-87.83
0
LINE
8
Black
10
93.315
20
-87.83
11
93.315
21
-87.03
0
LINE
8
Black
10
93.315
20
-87.03
11
94.065
21
-87.03
0
LINE
8
Black
10
94.065
20
-87.03
11
94.065
21
-87.83
0
LINE
8
Black
10
162.61
20
-87.76
11
161.71
21
-87.76
0
LINE
8
Black
10
161.71
20
-87.76
11
161.71
21
-87.26
0
LINE
8
Black
10
161.71
20
-87.26
11
162.61
21
-87.26
0
LINE
8
Black
10
162.61
20
-87.26
11
162.61
21
-87.76
0
LINE
8
Black
10
133.11
20
-87.395
11
131.61
21
-87.395
0
LINE
8
Black
10
131.61
20
-87.395
11
131.61
21
-86.845
0
LINE
8
Black
10
131.61
20
-86.845
11
133.11
21
-86.845
0
LINE
8
Black
10
133.11
20
-86.845
11
133.11
21
-87.395
0
LINE
8
Black
10
144.51
20
-87.395
11
143.01
21
-87.395
0
LINE
8
Black
10
143.01
20
-87.395
11
143.01
21
-86.845
0
LINE
8
Black
10
143.01
20
-86.845
11
144.51
21
-86.845
0
LINE
8
Black
10
144.51
20
-86.845
11
144.51
21
-87.395
0
LINE
8
Black
10
113.93
20
-87.29
11
113.43
21
-87.29
0
LINE
8
Black
10
113.43
20
-87.29
11
113.43
21
-86.39
0
LINE
8
Black
10
113.43
20
-86.39
11
113.93
21
-86.39
0
LINE
8
Black
10
113.93
20
-86.39
11
113.93
21
-87.29
0
LINE
8
Black
10
112.43
20
-87.29
11
111.93
21
-87.29
0
LINE
8
Black
10
111.93
20
-87.29
11
111.93
21
-86.39
0
LINE
8
Black
10
111.93
20
-86.39
11
112.43
21
-86.39
0
LINE
8
Black
10
112.43
20
-86.39
11
112.43
21
-87.29
0
LINE
8
Black
10
118.23
20
-87.28
11
117.73
21
-87.28
0
LINE
8
Black
10
117.73
20
-87.28
11
117.73
21
-86.38
0
LINE
8
Black
10
117.73
20
-86.38
11
118.23
21
-86.38
0
LINE
8
Black
10
118.23
20
-86.38
11
118.23
21
-87.28
0
LINE
8
Black
10
116.73
20
-87.28
11
116.23
21
-87.28
0
LINE
8
Black
10
116.23
20
-87.28
11
116.23
21
-86.38
0
LINE
8
Black
10
116.23
20
-86.38
11
116.73
21
-86.38
0
LINE
8
Black
10
116.73
20
-86.38
11
116.73
21
-87.28
0
LINE
8
Black
10
133.11
20
-86.595
11
131.61
21
-86.595
0
LINE
8
Black
10
131.61
20
-86.595
11
131.61
21
-86.045
0
LINE
8
Black
10
131.61
20
-86.045
11
133.11
21
-86.045
0
LINE
8
Black
10
133.11
20
-86.045
11
133.11
21
-86.595
0
LINE
8
Black
10
144.51
20
-86.595
11
143.01
21
-86.595
0
LINE
8
Black
10
143.01
20
-86.595
11
143.01
21
-86.045
0
LINE
8
Black
10
143.01
20
-86.045
11
144.51
21
-86.045
0
LINE
8
Black
10
144.51
20
-86.045
11
144.51
21
-86.595
0
LINE
8
Black
10
187.724
20
-84.8513
11
187.98
21
-84.9989
0
LINE
8
Black
10
187.98
20
-84.9989
11
188.169
21
-85.225
0
LINE
8
Black
10
188.169
20
-85.225
11
188.27
21
-85.5024
0
LINE
8
Black
10
188.27
20
-85.5024
11
188.27
21
-85.7976
0
LINE
8
Black
10
188.27
20
-85.7976
11
188.169
21
-86.075
0
LINE
8
Black
10
188.169
20
-86.075
11
187.98
21
-86.3011
0
LINE
8
Black
10
187.98
20
-86.3011
11
187.724
21
-86.4487
0
LINE
8
Black
10
187.724
20
-86.4487
11
187.433
21
-86.5
0
LINE
8
Black
10
187.433
20
-86.5
11
187.427
21
-86.5
0
LINE
8
Black
10
187.427
20
-86.5
11
187.136
21
-86.4487
0
LINE
8
Black
10
187.136
20
-86.4487
11
186.88
21
-86.3011
0
LINE
8
Black
10
186.88
20
-86.3011
11
186.691
21
-86.075
0
LINE
8
Black
10
186.691
20
-86.075
11
186.59
21
-85.7976
0
LINE
8
Black
10
186.59
20
-85.7976
11
186.59
21
-85.5024
0
LINE
8
Black
10
186.59
20
-85.5024
11
186.691
21
-85.225
0
LINE
8
Black
10
186.691
20
-85.225
11
186.88
21
-84.9989
0
LINE
8
Black
10
186.88
20
-84.9989
11
187.136
21
-84.8513
0
LINE
8
Black
10
187.136
20
-84.8513
11
187.427
21
-84.8
0
LINE
8
Black
10
187.427
20
-84.8
11
187.433
21
-84.8
0
LINE
8
Black
10
187.433
20
-84.8
11
187.724
21
-84.8513
0
LINE
8
Black
10
185.184
20
-84.8513
11
185.44
21
-84.9989
0
LINE
8
Black
10
185.44
20
-84.9989
11
185.629
21
-85.225
0
LINE
8
Black
10
185.629
20
-85.225
11
185.73
21
-85.5024
0
LINE
8
Black
10
185.73
20
-85.5024
11
185.73
21
-85.7976
0
LINE
8
Black
10
185.73
20
-85.7976
11
185.629
21
-86.075
0
LINE
8
Black
10
185.629
20
-86.075
11
185.44
21
-86.3011
0
LINE
8
Black
10
185.44
20
-86.3011
11
185.184
21
-86.4487
0
LINE
8
Black
10
185.184
20
-86.4487
11
184.893
21
-86.5
0
LINE
8
Black
10
184.893
20
-86.5
11
184.887
21
-86.5
0
LINE
8
Black
10
184.887
20
-86.5
11
184.596
21
-86.4487
0
LINE
8
Black
10
184.596
20
-86.4487
11
184.34
21
-86.3011
0
LINE
8
Black
10
184.34
20
-86.3011
11
184.151
21
-86.075
0
LINE
8
Black
10
184.151
20
-86.075
11
184.05
21
-85.7976
0
LINE
8
Black
10
184.05
20
-85.7976
11
184.05
21
-85.5024
0
LINE
8
Black
10
184.05
20
-85.5024
11
184.151
21
-85.225
0
LINE
8
Black
10
184.151
20
-85.225
11
184.34
21
-84.9989
0
LINE
8
Black
10
184.34
20
-84.9989
11
184.596
21
-84.8513
0
LINE
8
Black
10
184.596
20
-84.8513
11
184.887
21
-84.8
0
LINE
8
Black
10
184.887
20
-84.8
11
184.893
21
-84.8
0
LINE
8
Black
10
184.893
20
-84.8
11
185.184
21
-84.8513
0
LINE
8
Black
10
94.065
20
-86.33
11
93.315
21
-86.33
0
LINE
8
Black
10
93.315
20
-86.33
11
93.315
21
-85.53
0
LINE
8
Black
10
93.315
20
-85.53
11
94.065
21
-85.53
0
LINE
8
Black
10
94.065
20
-85.53
11
94.065
21
-86.33
0
LINE
8
Black
10
160.07
20
-85.61
11
159.57
21
-85.61
0
LINE
8
Black
10
159.57
20
-85.61
11
159.57
21
-84.71
0
LINE
8
Black
10
159.57
20
-84.71
11
160.07
21
-84.71
0
LINE
8
Black
10
160.07
20
-84.71
11
160.07
21
-85.61
0
LINE
8
Black
10
161.57
20
-85.61
11
161.07
21
-85.61
0
LINE
8
Black
10
161.07
20
-85.61
11
161.07
21
-84.71
0
LINE
8
Black
10
161.07
20
-84.71
11
161.57
21
-84.71
0
LINE
8
Black
10
161.57
20
-84.71
11
161.57
21
-85.61
0
LINE
8
Black
10
152.29
20
-85.59
11
151.79
21
-85.59
0
LINE
8
Black
10
151.79
20
-85.59
11
151.79
21
-84.69
0
LINE
8
Black
10
151.79
20
-84.69
11
152.29
21
-84.69
0
LINE
8
Black
10
152.29
20
-84.69
11
152.29
21
-85.59
0
LINE
8
Black
10
153.79
20
-85.59
11
153.29
21
-85.59
0
LINE
8
Black
10
153.29
20
-85.59
11
153.29
21
-84.69
0
LINE
8
Black
10
153.29
20
-84.69
11
153.79
21
-84.69
0
LINE
8
Black
10
153.79
20
-84.69
11
153.79
21
-85.59
0
LINE
8
Black
10
148.45
20
-85.59
11
147.95
21
-85.59
0
LINE
8
Black
10
147.95
20
-85.59
11
147.95
21
-84.69
0
LINE
8
Black
10
147.95
20
-84.69
11
148.45
21
-84.69
0
LINE
8
Black
10
148.45
20
-84.69
11
148.45
21
-85.59
0
LINE
8
Black
10
149.95
20
-85.59
11
149.45
21
-85.59
0
LINE
8
Black
10
149.45
20
-85.59
11
149.45
21
-84.69
0
LINE
8
Black
10
149.45
20
-84.69
11
149.95
21
-84.69
0
LINE
8
Black
10
149.95
20
-84.69
11
149.95
21
-85.59
0
LINE
8
Black
10
175.05
20
-85.58
11
174.55
21
-85.58
0
LINE
8
Black
10
174.55
20
-85.58
11
174.55
21
-84.68
0
LINE
8
Black
10
174.55
20
-84.68
11
175.05
21
-84.68
0
LINE
8
Black
10
175.05
20
-84.68
11
175.05
21
-85.58
0
LINE
8
Black
10
176.55
20
-85.58
11
176.05
21
-85.58
0
LINE
8
Black
10
176.05
20
-85.58
11
176.05
21
-84.68
0
LINE
8
Black
10
176.05
20
-84.68
11
176.55
21
-84.68
0
LINE
8
Black
10
176.55
20
-84.68
11
176.55
21
-85.58
0
LINE
8
Black
10
157.74
20
-85.535
11
156.94
21
-85.535
0
LINE
8
Black
10
156.94
20
-85.535
11
156.94
21
-84.785
0
LINE
8
Black
10
156.94
20
-84.785
11
157.74
21
-84.785
0
LINE
8
Black
10
157.74
20
-84.785
11
157.74
21
-85.535
0
LINE
8
Black
10
168.67
20
-85.535
11
167.87
21
-85.535
0
LINE
8
Black
10
167.87
20
-85.535
11
167.87
21
-84.785
0
LINE
8
Black
10
167.87
20
-84.785
11
168.67
21
-84.785
0
LINE
8
Black
10
168.67
20
-84.785
11
168.67
21
-85.535
0
LINE
8
Black
10
170.17
20
-85.535
11
169.37
21
-85.535
0
LINE
8
Black
10
169.37
20
-85.535
11
169.37
21
-84.785
0
LINE
8
Black
10
169.37
20
-84.785
11
170.17
21
-84.785
0
LINE
8
Black
10
170.17
20
-84.785
11
170.17
21
-85.535
0
LINE
8
Black
10
164.12
20
-85.535
11
163.32
21
-85.535
0
LINE
8
Black
10
163.32
20
-85.535
11
163.32
21
-84.785
0
LINE
8
Black
10
163.32
20
-84.785
11
164.12
21
-84.785
0
LINE
8
Black
10
164.12
20
-84.785
11
164.12
21
-85.535
0
LINE
8
Black
10
165.62
20
-85.535
11
164.82
21
-85.535
0
LINE
8
Black
10
164.82
20
-85.535
11
164.82
21
-84.785
0
LINE
8
Black
10
164.82
20
-84.785
11
165.62
21
-84.785
0
LINE
8
Black
10
165.62
20
-84.785
11
165.62
21
-85.535
0
LINE
8
Black
10
156.24
20
-85.535
11
155.44
21
-85.535
0
LINE
8
Black
10
155.44
20
-85.535
11
155.44
21
-84.785
0
LINE
8
Black
10
155.44
20
-84.785
11
156.24
21
-84.785
0
LINE
8
Black
10
156.24
20
-84.785
11
156.24
21
-85.535
0
LINE
8
Black
10
125.464
20
-83.7713
11
125.72
21
-83.9189
0
LINE
8
Black
10
125.72
20
-83.9189
11
125.909
21
-84.145
0
LINE
8
Black
10
125.909
20
-84.145
11
126.01
21
-84.4224
0
LINE
8
Black
10
126.01
20
-84.4224
11
126.01
21
-84.7176
0
LINE
8
Black
10
126.01
20
-84.7176
11
125.909
21
-84.995
0
LINE
8
Black
10
125.909
20
-84.995
11
125.72
21
-85.2211
0
LINE
8
Black
10
125.72
20
-85.2211
11
125.464
21
-85.3687
0
LINE
8
Black
10
125.464
20
-85.3687
11
125.173
21
-85.42
0
LINE
8
Black
10
125.173
20
-85.42
11
125.167
21
-85.42
0
LINE
8
Black
10
125.167
20
-85.42
11
124.876
21
-85.3687
0
LINE
8
Black
10
124.876
20
-85.3687
11
124.62
21
-85.2211
0
LINE
8
Black
10
124.62
20
-85.2211
11
124.431
21
-84.995
0
LINE
8
Black
10
124.431
20
-84.995
11
124.33
21
-84.7176
0
LINE
8
Black
10
124.33
20
-84.7176
11
124.33
21
-84.4224
0
LINE
8
Black
10
124.33
20
-84.4224
11
124.431
21
-84.145
0
LINE
8
Black
10
124.431
20
-84.145
11
124.62
21
-83.9189
0
LINE
8
Black
10
124.62
20
-83.9189
11
124.876
21
-83.7713
0
LINE
8
Black
10
124.876
20
-83.7713
11
125.167
21
-83.72
0
LINE
8
Black
10
125.167
20
-83.72
11
125.173
21
-83.72
0
LINE
8
Black
10
125.173
20
-83.72
11
125.464
21
-83.7713
0
LINE
8
Black
10
138.335
20
-85.37
11
137.785
21
-85.37
0
LINE
8
Black
10
137.785
20
-85.37
11
137.785
21
-83.87
0
LINE
8
Black
10
137.785
20
-83.87
11
138.335
21
-83.87
0
LINE
8
Black
10
138.335
20
-83.87
11
138.335
21
-85.37
0
LINE
8
Black
10
141.535
20
-85.37
11
140.985
21
-85.37
0
LINE
8
Black
10
140.985
20
-85.37
11
140.985
21
-83.87
0
LINE
8
Black
10
140.985
20
-83.87
11
141.535
21
-83.87
0
LINE
8
Black
10
141.535
20
-83.87
11
141.535
21
-85.37
0
LINE
8
Black
10
142.335
20
-85.37
11
141.785
21
-85.37
0
LINE
8
Black
10
141.785
20
-85.37
11
141.785
21
-83.87
0
LINE
8
Black
10
141.785
20
-83.87
11
142.335
21
-83.87
0
LINE
8
Black
10
142.335
20
-83.87
11
142.335
21
-85.37
0
LINE
8
Black
10
139.135
20
-85.37
11
138.585
21
-85.37
0
LINE
8
Black
10
138.585
20
-85.37
11
138.585
21
-83.87
0
LINE
8
Black
10
138.585
20
-83.87
11
139.135
21
-83.87
0
LINE
8
Black
10
139.135
20
-83.87
11
139.135
21
-85.37
0
LINE
8
Black
10
140.735
20
-85.37
11
140.185
21
-85.37
0
LINE
8
Black
10
140.185
20
-85.37
11
140.185
21
-83.87
0
LINE
8
Black
10
140.185
20
-83.87
11
140.735
21
-83.87
0
LINE
8
Black
10
140.735
20
-83.87
11
140.735
21
-85.37
0
LINE
8
Black
10
137.535
20
-85.37
11
136.985
21
-85.37
0
LINE
8
Black
10
136.985
20
-85.37
11
136.985
21
-83.87
0
LINE
8
Black
10
136.985
20
-83.87
11
137.535
21
-83.87
0
LINE
8
Black
10
137.535
20
-83.87
11
137.535
21
-85.37
0
LINE
8
Black
10
136.735
20
-85.37
11
136.185
21
-85.37
0
LINE
8
Black
10
136.185
20
-85.37
11
136.185
21
-83.87
0
LINE
8
Black
10
136.185
20
-83.87
11
136.735
21
-83.87
0
LINE
8
Black
10
136.735
20
-83.87
11
136.735
21
-85.37
0
LINE
8
Black
10
139.935
20
-85.37
11
139.385
21
-85.37
0
LINE
8
Black
10
139.385
20
-85.37
11
139.385
21
-83.87
0
LINE
8
Black
10
139.385
20
-83.87
11
139.935
21
-83.87
0
LINE
8
Black
10
139.935
20
-83.87
11
139.935
21
-85.37
0
LINE
8
Black
10
134.335
20
-85.37
11
133.785
21
-85.37
0
LINE
8
Black
10
133.785
20
-85.37
11
133.785
21
-83.87
0
LINE
8
Black
10
133.785
20
-83.87
11
134.335
21
-83.87
0
LINE
8
Black
10
134.335
20
-83.87
11
134.335
21
-85.37
0
LINE
8
Black
10
135.935
20
-85.37
11
135.385
21
-85.37
0
LINE
8
Black
10
135.385
20
-85.37
11
135.385
21
-83.87
0
LINE
8
Black
10
135.385
20
-83.87
11
135.935
21
-83.87
0
LINE
8
Black
10
135.935
20
-83.87
11
135.935
21
-85.37
0
LINE
8
Black
10
135.135
20
-85.37
11
134.585
21
-85.37
0
LINE
8
Black
10
134.585
20
-85.37
11
134.585
21
-83.87
0
LINE
8
Black
10
134.585
20
-83.87
11
135.135
21
-83.87
0
LINE
8
Black
10
135.135
20
-83.87
11
135.135
21
-85.37
0
LINE
8
Black
10
121.74
20
-85.23
11
120.04
21
-85.23
0
LINE
8
Black
10
120.04
20
-85.23
11
120.04
21
-83.93
0
LINE
8
Black
10
120.04
20
-83.93
11
121.74
21
-83.93
0
LINE
8
Black
10
121.74
20
-83.93
11
121.74
21
-85.23
0
LINE
8
Black
10
107.975
20
-85.085
11
107.375
21
-85.085
0
LINE
8
Black
10
107.375
20
-85.085
11
107.375
21
-83.135
0
LINE
8
Black
10
107.375
20
-83.135
11
107.975
21
-83.135
0
LINE
8
Black
10
107.975
20
-83.135
11
107.975
21
-85.085
0
LINE
8
Black
10
96.545
20
-85.085
11
95.945
21
-85.085
0
LINE
8
Black
10
95.945
20
-85.085
11
95.945
21
-83.135
0
LINE
8
Black
10
95.945
20
-83.135
11
96.545
21
-83.135
0
LINE
8
Black
10
96.545
20
-83.135
11
96.545
21
-85.085
0
LINE
8
Black
10
97.815
20
-85.085
11
97.215
21
-85.085
0
LINE
8
Black
10
97.215
20
-85.085
11
97.215
21
-83.135
0
LINE
8
Black
10
97.215
20
-83.135
11
97.815
21
-83.135
0
LINE
8
Black
10
97.815
20
-83.135
11
97.815
21
-85.085
0
LINE
8
Black
10
99.085
20
-85.085
11
98.485
21
-85.085
0
LINE
8
Black
10
98.485
20
-85.085
11
98.485
21
-83.135
0
LINE
8
Black
10
98.485
20
-83.135
11
99.085
21
-83.135
0
LINE
8
Black
10
99.085
20
-83.135
11
99.085
21
-85.085
0
LINE
8
Black
10
105.435
20
-85.085
11
104.835
21
-85.085
0
LINE
8
Black
10
104.835
20
-85.085
11
104.835
21
-83.135
0
LINE
8
Black
10
104.835
20
-83.135
11
105.435
21
-83.135
0
LINE
8
Black
10
105.435
20
-83.135
11
105.435
21
-85.085
0
LINE
8
Black
10
101.625
20
-85.085
11
101.025
21
-85.085
0
LINE
8
Black
10
101.025
20
-85.085
11
101.025
21
-83.135
0
LINE
8
Black
10
101.025
20
-83.135
11
101.625
21
-83.135
0
LINE
8
Black
10
101.625
20
-83.135
11
101.625
21
-85.085
0
LINE
8
Black
10
100.355
20
-85.085
11
99.755
21
-85.085
0
LINE
8
Black
10
99.755
20
-85.085
11
99.755
21
-83.135
0
LINE
8
Black
10
99.755
20
-83.135
11
100.355
21
-83.135
0
LINE
8
Black
10
100.355
20
-83.135
11
100.355
21
-85.085
0
LINE
8
Black
10
102.895
20
-85.085
11
102.295
21
-85.085
0
LINE
8
Black
10
102.295
20
-85.085
11
102.295
21
-83.135
0
LINE
8
Black
10
102.295
20
-83.135
11
102.895
21
-83.135
0
LINE
8
Black
10
102.895
20
-83.135
11
102.895
21
-85.085
0
LINE
8
Black
10
104.165
20
-85.085
11
103.565
21
-85.085
0
LINE
8
Black
10
103.565
20
-85.085
11
103.565
21
-83.135
0
LINE
8
Black
10
103.565
20
-83.135
11
104.165
21
-83.135
0
LINE
8
Black
10
104.165
20
-83.135
11
104.165
21
-85.085
0
LINE
8
Black
10
106.705
20
-85.085
11
106.105
21
-85.085
0
LINE
8
Black
10
106.105
20
-85.085
11
106.105
21
-83.135
0
LINE
8
Black
10
106.105
20
-83.135
11
106.705
21
-83.135
0
LINE
8
Black
10
106.705
20
-83.135
11
106.705
21
-85.085
0
LINE
8
Black
10
130.42
20
-84.78
11
129.92
21
-84.78
0
LINE
8
Black
10
129.92
20
-84.78
11
129.92
21
-83.88
0
LINE
8
Black
10
129.92
20
-83.88
11
130.42
21
-83.88
0
LINE
8
Black
10
130.42
20
-83.88
11
130.42
21
-84.78
0
LINE
8
Black
10
131.92
20
-84.78
11
131.42
21
-84.78
0
LINE
8
Black
10
131.42
20
-84.78
11
131.42
21
-83.88
0
LINE
8
Black
10
131.42
20
-83.88
11
131.92
21
-83.88
0
LINE
8
Black
10
131.92
20
-83.88
11
131.92
21
-84.78
0
LINE
8
Black
10
113.82
20
-84.34
11
111.27
21
-84.34
0
LINE
8
Black
10
111.27
20
-84.34
11
111.27
21
-81.84
0
LINE
8
Black
10
111.27
20
-81.84
11
113.82
21
-81.84
0
LINE
8
Black
10
113.82
20
-81.84
11
113.82
21
-84.34
0
LINE
8
Black
10
118.87
20
-84.34
11
116.32
21
-84.34
0
LINE
8
Black
10
116.32
20
-84.34
11
116.32
21
-81.84
0
LINE
8
Black
10
116.32
20
-81.84
11
118.87
21
-81.84
0
LINE
8
Black
10
118.87
20
-81.84
11
118.87
21
-84.34
0
LINE
8
Black
10
94.055
20
-84.24
11
93.305
21
-84.24
0
LINE
8
Black
10
93.305
20
-84.24
11
93.305
21
-83.44
0
LINE
8
Black
10
93.305
20
-83.44
11
94.055
21
-83.44
0
LINE
8
Black
10
94.055
20
-83.44
11
94.055
21
-84.24
0
LINE
8
Black
10
187.724
20
-82.3113
11
187.98
21
-82.4589
0
LINE
8
Black
10
187.98
20
-82.4589
11
188.169
21
-82.685
0
LINE
8
Black
10
188.169
20
-82.685
11
188.27
21
-82.9624
0
LINE
8
Black
10
188.27
20
-82.9624
11
188.27
21
-83.2576
0
LINE
8
Black
10
188.27
20
-83.2576
11
188.169
21
-83.535
0
LINE
8
Black
10
188.169
20
-83.535
11
187.98
21
-83.7611
0
LINE
8
Black
10
187.98
20
-83.7611
11
187.724
21
-83.9087
0
LINE
8
Black
10
187.724
20
-83.9087
11
187.433
21
-83.96
0
LINE
8
Black
10
187.433
20
-83.96
11
187.427
21
-83.96
0
LINE
8
Black
10
187.427
20
-83.96
11
187.136
21
-83.9087
0
LINE
8
Black
10
187.136
20
-83.9087
11
186.88
21
-83.7611
0
LINE
8
Black
10
186.88
20
-83.7611
11
186.691
21
-83.535
0
LINE
8
Black
10
186.691
20
-83.535
11
186.59
21
-83.2576
0
LINE
8
Black
10
186.59
20
-83.2576
11
186.59
21
-82.9624
0
LINE
8
Black
10
186.59
20
-82.9624
11
186.691
21
-82.685
0
LINE
8
Black
10
186.691
20
-82.685
11
186.88
21
-82.4589
0
LINE
8
Black
10
186.88
20
-82.4589
11
187.136
21
-82.3113
0
LINE
8
Black
10
187.136
20
-82.3113
11
187.427
21
-82.26
0
LINE
8
Black
10
187.427
20
-82.26
11
187.433
21
-82.26
0
LINE
8
Black
10
187.433
20
-82.26
11
187.724
21
-82.3113
0
LINE
8
Black
10
185.184
20
-82.3113
11
185.44
21
-82.4589
0
LINE
8
Black
10
185.44
20
-82.4589
11
185.629
21
-82.685
0
LINE
8
Black
10
185.629
20
-82.685
11
185.73
21
-82.9624
0
LINE
8
Black
10
185.73
20
-82.9624
11
185.73
21
-83.2576
0
LINE
8
Black
10
185.73
20
-83.2576
11
185.629
21
-83.535
0
LINE
8
Black
10
185.629
20
-83.535
11
185.44
21
-83.7611
0
LINE
8
Black
10
185.44
20
-83.7611
11
185.184
21
-83.9087
0
LINE
8
Black
10
185.184
20
-83.9087
11
184.893
21
-83.96
0
LINE
8
Black
10
184.893
20
-83.96
11
184.887
21
-83.96
0
LINE
8
Black
10
184.887
20
-83.96
11
184.596
21
-83.9087
0
LINE
8
Black
10
184.596
20
-83.9087
11
184.34
21
-83.7611
0
LINE
8
Black
10
184.34
20
-83.7611
11
184.151
21
-83.535
0
LINE
8
Black
10
184.151
20
-83.535
11
184.05
21
-83.2576
0
LINE
8
Black
10
184.05
20
-83.2576
11
184.05
21
-82.9624
0
LINE
8
Black
10
184.05
20
-82.9624
11
184.151
21
-82.685
0
LINE
8
Black
10
184.151
20
-82.685
11
184.34
21
-82.4589
0
LINE
8
Black
10
184.34
20
-82.4589
11
184.596
21
-82.3113
0
LINE
8
Black
10
184.596
20
-82.3113
11
184.887
21
-82.26
0
LINE
8
Black
10
184.887
20
-82.26
11
184.893
21
-82.26
0
LINE
8
Black
10
184.893
20
-82.26
11
185.184
21
-82.3113
0
LINE
8
Black
10
146.65
20
-83.46
11
145.75
21
-83.46
0
LINE
8
Black
10
145.75
20
-83.46
11
145.75
21
-82.96
0
LINE
8
Black
10
145.75
20
-82.96
11
146.65
21
-82.96
0
LINE
8
Black
10
146.65
20
-82.96
11
146.65
21
-83.46
0
LINE
8
Black
10
143.52
20
-83.46
11
142.62
21
-83.46
0
LINE
8
Black
10
142.62
20
-83.46
11
142.62
21
-82.96
0
LINE
8
Black
10
142.62
20
-82.96
11
143.52
21
-82.96
0
LINE
8
Black
10
143.52
20
-82.96
11
143.52
21
-83.46
0
LINE
8
Black
10
149.4
20
-83.46
11
148.5
21
-83.46
0
LINE
8
Black
10
148.5
20
-83.46
11
148.5
21
-82.96
0
LINE
8
Black
10
148.5
20
-82.96
11
149.4
21
-82.96
0
LINE
8
Black
10
149.4
20
-82.96
11
149.4
21
-83.46
0
LINE
8
Black
10
159.305
20
-82.995
11
157.755
21
-82.995
0
LINE
8
Black
10
157.755
20
-82.995
11
157.755
21
-82.395
0
LINE
8
Black
10
157.755
20
-82.395
11
159.305
21
-82.395
0
LINE
8
Black
10
159.305
20
-82.395
11
159.305
21
-82.995
0
LINE
8
Black
10
153.905
20
-82.995
11
152.355
21
-82.995
0
LINE
8
Black
10
152.355
20
-82.995
11
152.355
21
-82.395
0
LINE
8
Black
10
152.355
20
-82.395
11
153.905
21
-82.395
0
LINE
8
Black
10
153.905
20
-82.395
11
153.905
21
-82.995
0
LINE
8
Black
10
125.464
20
-81.2313
11
125.72
21
-81.3789
0
LINE
8
Black
10
125.72
20
-81.3789
11
125.909
21
-81.605
0
LINE
8
Black
10
125.909
20
-81.605
11
126.01
21
-81.8824
0
LINE
8
Black
10
126.01
20
-81.8824
11
126.01
21
-82.1776
0
LINE
8
Black
10
126.01
20
-82.1776
11
125.909
21
-82.455
0
LINE
8
Black
10
125.909
20
-82.455
11
125.72
21
-82.6811
0
LINE
8
Black
10
125.72
20
-82.6811
11
125.464
21
-82.8287
0
LINE
8
Black
10
125.464
20
-82.8287
11
125.173
21
-82.88
0
LINE
8
Black
10
125.173
20
-82.88
11
125.167
21
-82.88
0
LINE
8
Black
10
125.167
20
-82.88
11
124.876
21
-82.8287
0
LINE
8
Black
10
124.876
20
-82.8287
11
124.62
21
-82.6811
0
LINE
8
Black
10
124.62
20
-82.6811
11
124.431
21
-82.455
0
LINE
8
Black
10
124.431
20
-82.455
11
124.33
21
-82.1776
0
LINE
8
Black
10
124.33
20
-82.1776
11
124.33
21
-81.8824
0
LINE
8
Black
10
124.33
20
-81.8824
11
124.431
21
-81.605
0
LINE
8
Black
10
124.431
20
-81.605
11
124.62
21
-81.3789
0
LINE
8
Black
10
124.62
20
-81.3789
11
124.876
21
-81.2313
0
LINE
8
Black
10
124.876
20
-81.2313
11
125.167
21
-81.18
0
LINE
8
Black
10
125.167
20
-81.18
11
125.173
21
-81.18
0
LINE
8
Black
10
125.173
20
-81.18
11
125.464
21
-81.2313
0
LINE
8
Black
10
94.055
20
-82.74
11
93.305
21
-82.74
0
LINE
8
Black
10
93.305
20
-82.74
11
93.305
21
-81.94
0
LINE
8
Black
10
93.305
20
-81.94
11
94.055
21
-81.94
0
LINE
8
Black
10
94.055
20
-81.94
11
94.055
21
-82.74
0
LINE
8
Black
10
130.42
20
-82.69
11
129.92
21
-82.69
0
LINE
8
Black
10
129.92
20
-82.69
11
129.92
21
-81.79
0
LINE
8
Black
10
129.92
20
-81.79
11
130.42
21
-81.79
0
LINE
8
Black
10
130.42
20
-81.79
11
130.42
21
-82.69
0
LINE
8
Black
10
131.92
20
-82.69
11
131.42
21
-82.69
0
LINE
8
Black
10
131.42
20
-82.69
11
131.42
21
-81.79
0
LINE
8
Black
10
131.42
20
-81.79
11
131.92
21
-81.79
0
LINE
8
Black
10
131.92
20
-81.79
11
131.92
21
-82.69
0
LINE
8
Black
10
161.875
20
-82.675
11
160.975
21
-82.675
0
LINE
8
Black
10
160.975
20
-82.675
11
160.975
21
-82.175
0
LINE
8
Black
10
160.975
20
-82.175
11
161.875
21
-82.175
0
LINE
8
Black
10
161.875
20
-82.175
11
161.875
21
-82.675
0
LINE
8
Black
10
164.27
20
-82.67
11
163.37
21
-82.67
0
LINE
8
Black
10
163.37
20
-82.67
11
163.37
21
-82.17
0
LINE
8
Black
10
163.37
20
-82.17
11
164.27
21
-82.17
0
LINE
8
Black
10
164.27
20
-82.17
11
164.27
21
-82.67
0
LINE
8
Black
10
137.71
20
-82.005
11
136.91
21
-82.005
0
LINE
8
Black
10
136.91
20
-82.005
11
136.91
21
-81.255
0
LINE
8
Black
10
136.91
20
-81.255
11
137.71
21
-81.255
0
LINE
8
Black
10
137.71
20
-81.255
11
137.71
21
-82.005
0
LINE
8
Black
10
139.21
20
-82.005
11
138.41
21
-82.005
0
LINE
8
Black
10
138.41
20
-82.005
11
138.41
21
-81.255
0
LINE
8
Black
10
138.41
20
-81.255
11
139.21
21
-81.255
0
LINE
8
Black
10
139.21
20
-81.255
11
139.21
21
-82.005
0
LINE
8
Black
10
143.52
20
-81.96
11
142.62
21
-81.96
0
LINE
8
Black
10
142.62
20
-81.96
11
142.62
21
-81.46
0
LINE
8
Black
10
142.62
20
-81.46
11
143.52
21
-81.46
0
LINE
8
Black
10
143.52
20
-81.46
11
143.52
21
-81.96
0
LINE
8
Black
10
146.65
20
-81.96
11
145.75
21
-81.96
0
LINE
8
Black
10
145.75
20
-81.96
11
145.75
21
-81.46
0
LINE
8
Black
10
145.75
20
-81.46
11
146.65
21
-81.46
0
LINE
8
Black
10
146.65
20
-81.46
11
146.65
21
-81.96
0
LINE
8
Black
10
149.4
20
-81.96
11
148.5
21
-81.96
0
LINE
8
Black
10
148.5
20
-81.96
11
148.5
21
-81.46
0
LINE
8
Black
10
148.5
20
-81.46
11
149.4
21
-81.46
0
LINE
8
Black
10
149.4
20
-81.46
11
149.4
21
-81.96
0
LINE
8
Black
10
121.74
20
-81.73
11
120.04
21
-81.73
0
LINE
8
Black
10
120.04
20
-81.73
11
120.04
21
-80.43
0
LINE
8
Black
10
120.04
20
-80.43
11
121.74
21
-80.43
0
LINE
8
Black
10
121.74
20
-80.43
11
121.74
21
-81.73
0
LINE
8
Black
10
153.905
20
-81.725
11
152.355
21
-81.725
0
LINE
8
Black
10
152.355
20
-81.725
11
152.355
21
-81.125
0
LINE
8
Black
10
152.355
20
-81.125
11
153.905
21
-81.125
0
LINE
8
Black
10
153.905
20
-81.125
11
153.905
21
-81.725
0
LINE
8
Black
10
159.305
20
-81.725
11
157.755
21
-81.725
0
LINE
8
Black
10
157.755
20
-81.725
11
157.755
21
-81.125
0
LINE
8
Black
10
157.755
20
-81.125
11
159.305
21
-81.125
0
LINE
8
Black
10
159.305
20
-81.125
11
159.305
21
-81.725
0
LINE
8
Black
10
187.724
20
-79.7713
11
187.98
21
-79.9189
0
LINE
8
Black
10
187.98
20
-79.9189
11
188.169
21
-80.145
0
LINE
8
Black
10
188.169
20
-80.145
11
188.27
21
-80.4224
0
LINE
8
Black
10
188.27
20
-80.4224
11
188.27
21
-80.7176
0
LINE
8
Black
10
188.27
20
-80.7176
11
188.169
21
-80.995
0
LINE
8
Black
10
188.169
20
-80.995
11
187.98
21
-81.2211
0
LINE
8
Black
10
187.98
20
-81.2211
11
187.724
21
-81.3687
0
LINE
8
Black
10
187.724
20
-81.3687
11
187.433
21
-81.42
0
LINE
8
Black
10
187.433
20
-81.42
11
187.427
21
-81.42
0
LINE
8
Black
10
187.427
20
-81.42
11
187.136
21
-81.3687
0
LINE
8
Black
10
187.136
20
-81.3687
11
186.88
21
-81.2211
0
LINE
8
Black
10
186.88
20
-81.2211
11
186.691
21
-80.995
0
LINE
8
Black
10
186.691
20
-80.995
11
186.59
21
-80.7176
0
LINE
8
Black
10
186.59
20
-80.7176
11
186.59
21
-80.4224
0
LINE
8
Black
10
186.59
20
-80.4224
11
186.691
21
-80.145
0
LINE
8
Black
10
186.691
20
-80.145
11
186.88
21
-79.9189
0
LINE
8
Black
10
186.88
20
-79.9189
11
187.136
21
-79.7713
0
LINE
8
Black
10
187.136
20
-79.7713
11
187.427
21
-79.72
0
LINE
8
Black
10
187.427
20
-79.72
11
187.433
21
-79.72
0
LINE
8
Black
10
187.433
20
-79.72
11
187.724
21
-79.7713
0
LINE
8
Black
10
185.184
20
-79.7713
11
185.44
21
-79.9189
0
LINE
8
Black
10
185.44
20
-79.9189
11
185.629
21
-80.145
0
LINE
8
Black
10
185.629
20
-80.145
11
185.73
21
-80.4224
0
LINE
8
Black
10
185.73
20
-80.4224
11
185.73
21
-80.7176
0
LINE
8
Black
10
185.73
20
-80.7176
11
185.629
21
-80.995
0
LINE
8
Black
10
185.629
20
-80.995
11
185.44
21
-81.2211
0
LINE
8
Black
10
185.44
20
-81.2211
11
185.184
21
-81.3687
0
LINE
8
Black
10
185.184
20
-81.3687
11
184.893
21
-81.42
0
LINE
8
Black
10
184.893
20
-81.42
11
184.887
21
-81.42
0
LINE
8
Black
10
184.887
20
-81.42
11
184.596
21
-81.3687
0
LINE
8
Black
10
184.596
20
-81.3687
11
184.34
21
-81.2211
0
LINE
8
Black
10
184.34
20
-81.2211
11
184.151
21
-80.995
0
LINE
8
Black
10
184.151
20
-80.995
11
184.05
21
-80.7176
0
LINE
8
Black
10
184.05
20
-80.7176
11
184.05
21
-80.4224
0
LINE
8
Black
10
184.05
20
-80.4224
11
184.151
21
-80.145
0
LINE
8
Black
10
184.151
20
-80.145
11
184.34
21
-79.9189
0
LINE
8
Black
10
184.34
20
-79.9189
11
184.596
21
-79.7713
0
LINE
8
Black
10
184.596
20
-79.7713
11
184.887
21
-79.72
0
LINE
8
Black
10
184.887
20
-79.72
11
184.893
21
-79.72
0
LINE
8
Black
10
184.893
20
-79.72
11
185.184
21
-79.7713
0
LINE
8
Black
10
161.875
20
-81.175
11
160.975
21
-81.175
0
LINE
8
Black
10
160.975
20
-81.175
11
160.975
21
-80.675
0
LINE
8
Black
10
160.975
20
-80.675
11
161.875
21
-80.675
0
LINE
8
Black
10
161.875
20
-80.675
11
161.875
21
-81.175
0
LINE
8
Black
10
164.27
20
-81.17
11
163.37
21
-81.17
0
LINE
8
Black
10
163.37
20
-81.17
11
163.37
21
-80.67
0
LINE
8
Black
10
163.37
20
-80.67
11
164.27
21
-80.67
0
LINE
8
Black
10
164.27
20
-80.67
11
164.27
21
-81.17
0
LINE
8
Black
10
108.28
20
-81.075
11
107.22
21
-81.075
0
LINE
8
Black
10
107.22
20
-81.075
11
107.22
21
-80.425
0
LINE
8
Black
10
107.22
20
-80.425
11
108.28
21
-80.425
0
LINE
8
Black
10
108.28
20
-80.425
11
108.28
21
-81.075
0
LINE
8
Black
10
106.08
20
-81.075
11
105.02
21
-81.075
0
LINE
8
Black
10
105.02
20
-81.075
11
105.02
21
-80.425
0
LINE
8
Black
10
105.02
20
-80.425
11
106.08
21
-80.425
0
LINE
8
Black
10
106.08
20
-80.425
11
106.08
21
-81.075
0
LINE
8
Black
10
153.905
20
-80.455
11
152.355
21
-80.455
0
LINE
8
Black
10
152.355
20
-80.455
11
152.355
21
-79.855
0
LINE
8
Black
10
152.355
20
-79.855
11
153.905
21
-79.855
0
LINE
8
Black
10
153.905
20
-79.855
11
153.905
21
-80.455
0
LINE
8
Black
10
159.305
20
-80.455
11
157.755
21
-80.455
0
LINE
8
Black
10
157.755
20
-80.455
11
157.755
21
-79.855
0
LINE
8
Black
10
157.755
20
-79.855
11
159.305
21
-79.855
0
LINE
8
Black
10
159.305
20
-79.855
11
159.305
21
-80.455
0
LINE
8
Black
10
136.29
20
-80.41
11
134.29
21
-80.41
0
LINE
8
Black
10
134.29
20
-80.41
11
134.29
21
-78.01
0
LINE
8
Black
10
134.29
20
-78.01
11
136.29
21
-78.01
0
LINE
8
Black
10
136.29
20
-78.01
11
136.29
21
-80.41
0
LINE
8
Black
10
132.59
20
-80.41
11
130.59
21
-80.41
0
LINE
8
Black
10
130.59
20
-80.41
11
130.59
21
-78.01
0
LINE
8
Black
10
130.59
20
-78.01
11
132.59
21
-78.01
0
LINE
8
Black
10
132.59
20
-78.01
11
132.59
21
-80.41
0
LINE
8
Black
10
125.464
20
-78.6913
11
125.72
21
-78.8389
0
LINE
8
Black
10
125.72
20
-78.8389
11
125.909
21
-79.065
0
LINE
8
Black
10
125.909
20
-79.065
11
126.01
21
-79.3424
0
LINE
8
Black
10
126.01
20
-79.3424
11
126.01
21
-79.6376
0
LINE
8
Black
10
126.01
20
-79.6376
11
125.909
21
-79.915
0
LINE
8
Black
10
125.909
20
-79.915
11
125.72
21
-80.1411
0
LINE
8
Black
10
125.72
20
-80.1411
11
125.464
21
-80.2887
0
LINE
8
Black
10
125.464
20
-80.2887
11
125.173
21
-80.34
0
LINE
8
Black
10
125.173
20
-80.34
11
125.167
21
-80.34
0
LINE
8
Black
10
125.167
20
-80.34
11
124.876
21
-80.2887
0
LINE
8
Black
10
124.876
20
-80.2887
11
124.62
21
-80.1411
0
LINE
8
Black
10
124.62
20
-80.1411
11
124.431
21
-79.915
0
LINE
8
Black
10
124.431
20
-79.915
11
124.33
21
-79.6376
0
LINE
8
Black
10
124.33
20
-79.6376
11
124.33
21
-79.3424
0
LINE
8
Black
10
124.33
20
-79.3424
11
124.431
21
-79.065
0
LINE
8
Black
10
124.431
20
-79.065
11
124.62
21
-78.8389
0
LINE
8
Black
10
124.62
20
-78.8389
11
124.876
21
-78.6913
0
LINE
8
Black
10
124.876
20
-78.6913
11
125.167
21
-78.64
0
LINE
8
Black
10
125.167
20
-78.64
11
125.173
21
-78.64
0
LINE
8
Black
10
125.173
20
-78.64
11
125.464
21
-78.6913
0
LINE
8
Black
10
143.52
20
-80.34
11
142.62
21
-80.34
0
LINE
8
Black
10
142.62
20
-80.34
11
142.62
21
-79.84
0
LINE
8
Black
10
142.62
20
-79.84
11
143.52
21
-79.84
0
LINE
8
Black
10
143.52
20
-79.84
11
143.52
21
-80.34
0
LINE
8
Black
10
149.47
20
-80.34
11
148.57
21
-80.34
0
LINE
8
Black
10
148.57
20
-80.34
11
148.57
21
-79.84
0
LINE
8
Black
10
148.57
20
-79.84
11
149.47
21
-79.84
0
LINE
8
Black
10
149.47
20
-79.84
11
149.47
21
-80.34
0
LINE
8
Black
10
146.66
20
-80.34
11
145.76
21
-80.34
0
LINE
8
Black
10
145.76
20
-80.34
11
145.76
21
-79.84
0
LINE
8
Black
10
145.76
20
-79.84
11
146.66
21
-79.84
0
LINE
8
Black
10
146.66
20
-79.84
11
146.66
21
-80.34
0
LINE
8
Black
10
106.08
20
-80.125
11
105.02
21
-80.125
0
LINE
8
Black
10
105.02
20
-80.125
11
105.02
21
-79.475
0
LINE
8
Black
10
105.02
20
-79.475
11
106.08
21
-79.475
0
LINE
8
Black
10
106.08
20
-79.475
11
106.08
21
-80.125
0
LINE
8
Black
10
108.28
20
-80.125
11
107.22
21
-80.125
0
LINE
8
Black
10
107.22
20
-80.125
11
107.22
21
-79.475
0
LINE
8
Black
10
107.22
20
-79.475
11
108.28
21
-79.475
0
LINE
8
Black
10
108.28
20
-79.475
11
108.28
21
-80.125
0
LINE
8
Black
10
116.73
20
-79.67
11
116.23
21
-79.67
0
LINE
8
Black
10
116.23
20
-79.67
11
116.23
21
-78.77
0
LINE
8
Black
10
116.23
20
-78.77
11
116.73
21
-78.77
0
LINE
8
Black
10
116.73
20
-78.77
11
116.73
21
-79.67
0
LINE
8
Black
10
118.23
20
-79.67
11
117.73
21
-79.67
0
LINE
8
Black
10
117.73
20
-79.67
11
117.73
21
-78.77
0
LINE
8
Black
10
117.73
20
-78.77
11
118.23
21
-78.77
0
LINE
8
Black
10
118.23
20
-78.77
11
118.23
21
-79.67
0
LINE
8
Black
10
113.92
20
-79.66
11
113.42
21
-79.66
0
LINE
8
Black
10
113.42
20
-79.66
11
113.42
21
-78.76
0
LINE
8
Black
10
113.42
20
-78.76
11
113.92
21
-78.76
0
LINE
8
Black
10
113.92
20
-78.76
11
113.92
21
-79.66
0
LINE
8
Black
10
112.42
20
-79.66
11
111.92
21
-79.66
0
LINE
8
Black
10
111.92
20
-79.66
11
111.92
21
-78.76
0
LINE
8
Black
10
111.92
20
-78.76
11
112.42
21
-78.76
0
LINE
8
Black
10
112.42
20
-78.76
11
112.42
21
-79.66
0
LINE
8
Black
10
93.65
20
-79.4062
11
91.75
21
-79.4062
0
LINE
8
Black
10
91.75
20
-79.4062
11
91.75
21
-77.4062
0
LINE
8
Black
10
91.75
20
-77.4062
11
93.65
21
-77.4062
0
LINE
8
Black
10
93.65
20
-77.4062
11
93.65
21
-79.4062
0
LINE
8
Black
10
159.305
20
-79.185
11
157.755
21
-79.185
0
LINE
8
Black
10
157.755
20
-79.185
11
157.755
21
-78.585
0
LINE
8
Black
10
157.755
20
-78.585
11
159.305
21
-78.585
0
LINE
8
Black
10
159.305
20
-78.585
11
159.305
21
-79.185
0
LINE
8
Black
10
153.905
20
-79.185
11
152.355
21
-79.185
0
LINE
8
Black
10
152.355
20
-79.185
11
152.355
21
-78.585
0
LINE
8
Black
10
152.355
20
-78.585
11
153.905
21
-78.585
0
LINE
8
Black
10
153.905
20
-78.585
11
153.905
21
-79.185
0
LINE
8
Black
10
106.08
20
-79.175
11
105.02
21
-79.175
0
LINE
8
Black
10
105.02
20
-79.175
11
105.02
21
-78.525
0
LINE
8
Black
10
105.02
20
-78.525
11
106.08
21
-78.525
0
LINE
8
Black
10
106.08
20
-78.525
11
106.08
21
-79.175
0
LINE
8
Black
10
108.28
20
-79.175
11
107.22
21
-79.175
0
LINE
8
Black
10
107.22
20
-79.175
11
107.22
21
-78.525
0
LINE
8
Black
10
107.22
20
-78.525
11
108.28
21
-78.525
0
LINE
8
Black
10
108.28
20
-78.525
11
108.28
21
-79.175
0
LINE
8
Black
10
187.724
20
-77.2313
11
187.98
21
-77.3789
0
LINE
8
Black
10
187.98
20
-77.3789
11
188.169
21
-77.605
0
LINE
8
Black
10
188.169
20
-77.605
11
188.27
21
-77.8824
0
LINE
8
Black
10
188.27
20
-77.8824
11
188.27
21
-78.1776
0
LINE
8
Black
10
188.27
20
-78.1776
11
188.169
21
-78.455
0
LINE
8
Black
10
188.169
20
-78.455
11
187.98
21
-78.6811
0
LINE
8
Black
10
187.98
20
-78.6811
11
187.724
21
-78.8287
0
LINE
8
Black
10
187.724
20
-78.8287
11
187.433
21
-78.88
0
LINE
8
Black
10
187.433
20
-78.88
11
187.427
21
-78.88
0
LINE
8
Black
10
187.427
20
-78.88
11
187.136
21
-78.8287
0
LINE
8
Black
10
187.136
20
-78.8287
11
186.88
21
-78.6811
0
LINE
8
Black
10
186.88
20
-78.6811
11
186.691
21
-78.455
0
LINE
8
Black
10
186.691
20
-78.455
11
186.59
21
-78.1776
0
LINE
8
Black
10
186.59
20
-78.1776
11
186.59
21
-77.8824
0
LINE
8
Black
10
186.59
20
-77.8824
11
186.691
21
-77.605
0
LINE
8
Black
10
186.691
20
-77.605
11
186.88
21
-77.3789
0
LINE
8
Black
10
186.88
20
-77.3789
11
187.136
21
-77.2313
0
LINE
8
Black
10
187.136
20
-77.2313
11
187.427
21
-77.18
0
LINE
8
Black
10
187.427
20
-77.18
11
187.433
21
-77.18
0
LINE
8
Black
10
187.433
20
-77.18
11
187.724
21
-77.2313
0
LINE
8
Black
10
185.184
20
-77.2313
11
185.44
21
-77.3789
0
LINE
8
Black
10
185.44
20
-77.3789
11
185.629
21
-77.605
0
LINE
8
Black
10
185.629
20
-77.605
11
185.73
21
-77.8824
0
LINE
8
Black
10
185.73
20
-77.8824
11
185.73
21
-78.1776
0
LINE
8
Black
10
185.73
20
-78.1776
11
185.629
21
-78.455
0
LINE
8
Black
10
185.629
20
-78.455
11
185.44
21
-78.6811
0
LINE
8
Black
10
185.44
20
-78.6811
11
185.184
21
-78.8287
0
LINE
8
Black
10
185.184
20
-78.8287
11
184.893
21
-78.88
0
LINE
8
Black
10
184.893
20
-78.88
11
184.887
21
-78.88
0
LINE
8
Black
10
184.887
20
-78.88
11
184.596
21
-78.8287
0
LINE
8
Black
10
184.596
20
-78.8287
11
184.34
21
-78.6811
0
LINE
8
Black
10
184.34
20
-78.6811
11
184.151
21
-78.455
0
LINE
8
Black
10
184.151
20
-78.455
11
184.05
21
-78.1776
0
LINE
8
Black
10
184.05
20
-78.1776
11
184.05
21
-77.8824
0
LINE
8
Black
10
184.05
20
-77.8824
11
184.151
21
-77.605
0
LINE
8
Black
10
184.151
20
-77.605
11
184.34
21
-77.3789
0
LINE
8
Black
10
184.34
20
-77.3789
11
184.596
21
-77.2313
0
LINE
8
Black
10
184.596
20
-77.2313
11
184.887
21
-77.18
0
LINE
8
Black
10
184.887
20
-77.18
11
184.893
21
-77.18
0
LINE
8
Black
10
184.893
20
-77.18
11
185.184
21
-77.2313
0
LINE
8
Black
10
146.66
20
-78.84
11
145.76
21
-78.84
0
LINE
8
Black
10
145.76
20
-78.84
11
145.76
21
-78.34
0
LINE
8
Black
10
145.76
20
-78.34
11
146.66
21
-78.34
0
LINE
8
Black
10
146.66
20
-78.34
11
146.66
21
-78.84
0
LINE
8
Black
10
149.47
20
-78.84
11
148.57
21
-78.84
0
LINE
8
Black
10
148.57
20
-78.84
11
148.57
21
-78.34
0
LINE
8
Black
10
148.57
20
-78.34
11
149.47
21
-78.34
0
LINE
8
Black
10
149.47
20
-78.34
11
149.47
21
-78.84
0
LINE
8
Black
10
143.52
20
-78.84
11
142.62
21
-78.84
0
LINE
8
Black
10
142.62
20
-78.84
11
142.62
21
-78.34
0
LINE
8
Black
10
142.62
20
-78.34
11
143.52
21
-78.34
0
LINE
8
Black
10
143.52
20
-78.34
11
143.52
21
-78.84
0
LINE
8
Black
10
121.71
20
-78.78
11
120.81
21
-78.78
0
LINE
8
Black
10
120.81
20
-78.78
11
120.81
21
-77.98
0
LINE
8
Black
10
120.81
20
-77.98
11
121.71
21
-77.98
0
LINE
8
Black
10
121.71
20
-77.98
11
121.71
21
-78.78
0
LINE
8
Black
10
175.05
20
-78.68
11
174.55
21
-78.68
0
LINE
8
Black
10
174.55
20
-78.68
11
174.55
21
-77.78
0
LINE
8
Black
10
174.55
20
-77.78
11
175.05
21
-77.78
0
LINE
8
Black
10
175.05
20
-77.78
11
175.05
21
-78.68
0
LINE
8
Black
10
176.55
20
-78.68
11
176.05
21
-78.68
0
LINE
8
Black
10
176.05
20
-78.68
11
176.05
21
-77.78
0
LINE
8
Black
10
176.05
20
-77.78
11
176.55
21
-77.78
0
LINE
8
Black
10
176.55
20
-77.78
11
176.55
21
-78.68
0
LINE
8
Black
10
119.71
20
-77.83
11
118.81
21
-77.83
0
LINE
8
Black
10
118.81
20
-77.83
11
118.81
21
-77.03
0
LINE
8
Black
10
118.81
20
-77.03
11
119.71
21
-77.03
0
LINE
8
Black
10
119.71
20
-77.03
11
119.71
21
-77.83
0
LINE
8
Black
10
96.325
20
-77.8
11
95.075
21
-77.8
0
LINE
8
Black
10
95.075
20
-77.8
11
95.075
21
-76.75
0
LINE
8
Black
10
95.075
20
-76.75
11
96.325
21
-76.75
0
LINE
8
Black
10
96.325
20
-76.75
11
96.325
21
-77.8
0
LINE
8
Black
10
126.02
20
-77.8
11
124.32
21
-77.8
0
LINE
8
Black
10
124.32
20
-77.8
11
124.32
21
-76.1
0
LINE
8
Black
10
124.32
20
-76.1
11
126.02
21
-76.1
0
LINE
8
Black
10
126.02
20
-76.1
11
126.02
21
-77.8
0
LINE
8
Black
10
167.1
20
-77.18
11
166.6
21
-77.18
0
LINE
8
Black
10
166.6
20
-77.18
11
166.6
21
-76.28
0
LINE
8
Black
10
166.6
20
-76.28
11
167.1
21
-76.28
0
LINE
8
Black
10
167.1
20
-76.28
11
167.1
21
-77.18
0
LINE
8
Black
10
165.6
20
-77.18
11
165.1
21
-77.18
0
LINE
8
Black
10
165.1
20
-77.18
11
165.1
21
-76.28
0
LINE
8
Black
10
165.1
20
-76.28
11
165.6
21
-76.28
0
LINE
8
Black
10
165.6
20
-76.28
11
165.6
21
-77.18
0
LINE
8
Black
10
163.71
20
-77.105
11
162.91
21
-77.105
0
LINE
8
Black
10
162.91
20
-77.105
11
162.91
21
-76.355
0
LINE
8
Black
10
162.91
20
-76.355
11
163.71
21
-76.355
0
LINE
8
Black
10
163.71
20
-76.355
11
163.71
21
-77.105
0
LINE
8
Black
10
162.21
20
-77.105
11
161.41
21
-77.105
0
LINE
8
Black
10
161.41
20
-77.105
11
161.41
21
-76.355
0
LINE
8
Black
10
161.41
20
-76.355
11
162.21
21
-76.355
0
LINE
8
Black
10
162.21
20
-76.355
11
162.21
21
-77.105
0
LINE
8
Black
10
158.73
20
-77.095
11
157.93
21
-77.095
0
LINE
8
Black
10
157.93
20
-77.095
11
157.93
21
-76.345
0
LINE
8
Black
10
157.93
20
-76.345
11
158.73
21
-76.345
0
LINE
8
Black
10
158.73
20
-76.345
11
158.73
21
-77.095
0
LINE
8
Black
10
160.23
20
-77.095
11
159.43
21
-77.095
0
LINE
8
Black
10
159.43
20
-77.095
11
159.43
21
-76.345
0
LINE
8
Black
10
159.43
20
-76.345
11
160.23
21
-76.345
0
LINE
8
Black
10
160.23
20
-76.345
11
160.23
21
-77.095
0
LINE
8
Black
10
111.2
20
-77
11
108.7
21
-77
0
LINE
8
Black
10
108.7
20
-77
11
108.7
21
-74.45
0
LINE
8
Black
10
108.7
20
-74.45
11
111.2
21
-74.45
0
LINE
8
Black
10
111.2
20
-74.45
11
111.2
21
-77
0
LINE
8
Black
10
116.6
20
-76.9
11
114.1
21
-76.9
0
LINE
8
Black
10
114.1
20
-76.9
11
114.1
21
-74.95
0
LINE
8
Black
10
114.1
20
-74.95
11
116.6
21
-74.95
0
LINE
8
Black
10
116.6
20
-74.95
11
116.6
21
-76.9
0
LINE
8
Black
10
121.71
20
-76.88
11
120.81
21
-76.88
0
LINE
8
Black
10
120.81
20
-76.88
11
120.81
21
-76.08
0
LINE
8
Black
10
120.81
20
-76.08
11
121.71
21
-76.08
0
LINE
8
Black
10
121.71
20
-76.08
11
121.71
21
-76.88
0
LINE
8
Black
10
131.975
20
-76.84
11
131.225
21
-76.84
0
LINE
8
Black
10
131.225
20
-76.84
11
131.225
21
-76.04
0
LINE
8
Black
10
131.225
20
-76.04
11
131.975
21
-76.04
0
LINE
8
Black
10
131.975
20
-76.04
11
131.975
21
-76.84
0
LINE
8
Black
10
135.665
20
-76.84
11
134.915
21
-76.84
0
LINE
8
Black
10
134.915
20
-76.84
11
134.915
21
-76.04
0
LINE
8
Black
10
134.915
20
-76.04
11
135.665
21
-76.04
0
LINE
8
Black
10
135.665
20
-76.04
11
135.665
21
-76.84
0
LINE
8
Black
10
146.66
20
-76.77
11
145.76
21
-76.77
0
LINE
8
Black
10
145.76
20
-76.77
11
145.76
21
-76.27
0
LINE
8
Black
10
145.76
20
-76.27
11
146.66
21
-76.27
0
LINE
8
Black
10
146.66
20
-76.27
11
146.66
21
-76.77
0
LINE
8
Black
10
149.5
20
-76.77
11
148.6
21
-76.77
0
LINE
8
Black
10
148.6
20
-76.77
11
148.6
21
-76.27
0
LINE
8
Black
10
148.6
20
-76.27
11
149.5
21
-76.27
0
LINE
8
Black
10
149.5
20
-76.27
11
149.5
21
-76.77
0
LINE
8
Black
10
143.48
20
-76.77
11
142.58
21
-76.77
0
LINE
8
Black
10
142.58
20
-76.77
11
142.58
21
-76.27
0
LINE
8
Black
10
142.58
20
-76.27
11
143.48
21
-76.27
0
LINE
8
Black
10
143.48
20
-76.27
11
143.48
21
-76.77
0
LINE
8
Black
10
140.21
20
-76.75
11
139.31
21
-76.75
0
LINE
8
Black
10
139.31
20
-76.75
11
139.31
21
-76.25
0
LINE
8
Black
10
139.31
20
-76.25
11
140.21
21
-76.25
0
LINE
8
Black
10
140.21
20
-76.25
11
140.21
21
-76.75
0
LINE
8
Black
10
96.5
20
-76.35
11
94.7
21
-76.35
0
LINE
8
Black
10
94.7
20
-76.35
11
94.7
21
-75.95
0
LINE
8
Black
10
94.7
20
-75.95
11
96.5
21
-75.95
0
LINE
8
Black
10
96.5
20
-75.95
11
96.5
21
-76.35
0
LINE
8
Black
10
185.184
20
-74.6913
11
185.44
21
-74.8389
0
LINE
8
Black
10
185.44
20
-74.8389
11
185.629
21
-75.065
0
LINE
8
Black
10
185.629
20
-75.065
11
185.73
21
-75.3424
0
LINE
8
Black
10
185.73
20
-75.3424
11
185.73
21
-75.6376
0
LINE
8
Black
10
185.73
20
-75.6376
11
185.629
21
-75.915
0
LINE
8
Black
10
185.629
20
-75.915
11
185.44
21
-76.1411
0
LINE
8
Black
10
185.44
20
-76.1411
11
185.184
21
-76.2887
0
LINE
8
Black
10
185.184
20
-76.2887
11
184.893
21
-76.34
0
LINE
8
Black
10
184.893
20
-76.34
11
184.887
21
-76.34
0
LINE
8
Black
10
184.887
20
-76.34
11
184.596
21
-76.2887
0
LINE
8
Black
10
184.596
20
-76.2887
11
184.34
21
-76.1411
0
LINE
8
Black
10
184.34
20
-76.1411
11
184.151
21
-75.915
0
LINE
8
Black
10
184.151
20
-75.915
11
184.05
21
-75.6376
0
LINE
8
Black
10
184.05
20
-75.6376
11
184.05
21
-75.3424
0
LINE
8
Black
10
184.05
20
-75.3424
11
184.151
21
-75.065
0
LINE
8
Black
10
184.151
20
-75.065
11
184.34
21
-74.8389
0
LINE
8
Black
10
184.34
20
-74.8389
11
184.596
21
-74.6913
0
LINE
8
Black
10
184.596
20
-74.6913
11
184.887
21
-74.64
0
LINE
8
Black
10
184.887
20
-74.64
11
184.893
21
-74.64
0
LINE
8
Black
10
184.893
20
-74.64
11
185.184
21
-74.6913
0
LINE
8
Black
10
187.724
20
-74.6913
11
187.98
21
-74.8389
0
LINE
8
Black
10
187.98
20
-74.8389
11
188.169
21
-75.065
0
LINE
8
Black
10
188.169
20
-75.065
11
188.27
21
-75.3424
0
LINE
8
Black
10
188.27
20
-75.3424
11
188.27
21
-75.6376
0
LINE
8
Black
10
188.27
20
-75.6376
11
188.169
21
-75.915
0
LINE
8
Black
10
188.169
20
-75.915
11
187.98
21
-76.1411
0
LINE
8
Black
10
187.98
20
-76.1411
11
187.724
21
-76.2887
0
LINE
8
Black
10
187.724
20
-76.2887
11
187.433
21
-76.34
0
LINE
8
Black
10
187.433
20
-76.34
11
187.427
21
-76.34
0
LINE
8
Black
10
187.427
20
-76.34
11
187.136
21
-76.2887
0
LINE
8
Black
10
187.136
20
-76.2887
11
186.88
21
-76.1411
0
LINE
8
Black
10
186.88
20
-76.1411
11
186.691
21
-75.915
0
LINE
8
Black
10
186.691
20
-75.915
11
186.59
21
-75.6376
0
LINE
8
Black
10
186.59
20
-75.6376
11
186.59
21
-75.3424
0
LINE
8
Black
10
186.59
20
-75.3424
11
186.691
21
-75.065
0
LINE
8
Black
10
186.691
20
-75.065
11
186.88
21
-74.8389
0
LINE
8
Black
10
186.88
20
-74.8389
11
187.136
21
-74.6913
0
LINE
8
Black
10
187.136
20
-74.6913
11
187.427
21
-74.64
0
LINE
8
Black
10
187.427
20
-74.64
11
187.433
21
-74.64
0
LINE
8
Black
10
187.433
20
-74.64
11
187.724
21
-74.6913
0
LINE
8
Black
10
175.25
20
-76.17
11
174.35
21
-76.17
0
LINE
8
Black
10
174.35
20
-76.17
11
174.35
21
-75.37
0
LINE
8
Black
10
174.35
20
-75.37
11
175.25
21
-75.37
0
LINE
8
Black
10
175.25
20
-75.37
11
175.25
21
-76.17
0
LINE
8
Black
10
96.5
20
-75.7
11
94.7
21
-75.7
0
LINE
8
Black
10
94.7
20
-75.7
11
94.7
21
-75.3
0
LINE
8
Black
10
94.7
20
-75.3
11
96.5
21
-75.3
0
LINE
8
Black
10
96.5
20
-75.3
11
96.5
21
-75.7
0
LINE
8
Black
10
131.975
20
-75.34
11
131.225
21
-75.34
0
LINE
8
Black
10
131.225
20
-75.34
11
131.225
21
-74.54
0
LINE
8
Black
10
131.225
20
-74.54
11
131.975
21
-74.54
0
LINE
8
Black
10
131.975
20
-74.54
11
131.975
21
-75.34
0
LINE
8
Black
10
135.665
20
-75.34
11
134.915
21
-75.34
0
LINE
8
Black
10
134.915
20
-75.34
11
134.915
21
-74.54
0
LINE
8
Black
10
134.915
20
-74.54
11
135.665
21
-74.54
0
LINE
8
Black
10
135.665
20
-74.54
11
135.665
21
-75.34
0
LINE
8
Black
10
146.66
20
-75.27
11
145.76
21
-75.27
0
LINE
8
Black
10
145.76
20
-75.27
11
145.76
21
-74.77
0
LINE
8
Black
10
145.76
20
-74.77
11
146.66
21
-74.77
0
LINE
8
Black
10
146.66
20
-74.77
11
146.66
21
-75.27
0
LINE
8
Black
10
143.48
20
-75.27
11
142.58
21
-75.27
0
LINE
8
Black
10
142.58
20
-75.27
11
142.58
21
-74.77
0
LINE
8
Black
10
142.58
20
-74.77
11
143.48
21
-74.77
0
LINE
8
Black
10
143.48
20
-74.77
11
143.48
21
-75.27
0
LINE
8
Black
10
149.5
20
-75.27
11
148.6
21
-75.27
0
LINE
8
Black
10
148.6
20
-75.27
11
148.6
21
-74.77
0
LINE
8
Black
10
148.6
20
-74.77
11
149.5
21
-74.77
0
LINE
8
Black
10
149.5
20
-74.77
11
149.5
21
-75.27
0
LINE
8
Black
10
140.21
20
-75.25
11
139.31
21
-75.25
0
LINE
8
Black
10
139.31
20
-75.25
11
139.31
21
-74.75
0
LINE
8
Black
10
139.31
20
-74.75
11
140.21
21
-74.75
0
LINE
8
Black
10
140.21
20
-74.75
11
140.21
21
-75.25
0
LINE
8
Black
10
177.25
20
-75.22
11
176.35
21
-75.22
0
LINE
8
Black
10
176.35
20
-75.22
11
176.35
21
-74.42
0
LINE
8
Black
10
176.35
20
-74.42
11
177.25
21
-74.42
0
LINE
8
Black
10
177.25
20
-74.42
11
177.25
21
-75.22
0
LINE
8
Black
10
101.68
20
-75.05
11
100.18
21
-75.05
0
LINE
8
Black
10
100.18
20
-75.05
11
100.18
21
-73.05
0
LINE
8
Black
10
100.18
20
-73.05
11
101.68
21
-73.05
0
LINE
8
Black
10
101.68
20
-73.05
11
101.68
21
-75.05
0
LINE
8
Black
10
106.28
20
-75.05
11
104.78
21
-75.05
0
LINE
8
Black
10
104.78
20
-75.05
11
104.78
21
-73.05
0
LINE
8
Black
10
104.78
20
-73.05
11
106.28
21
-73.05
0
LINE
8
Black
10
106.28
20
-73.05
11
106.28
21
-75.05
0
LINE
8
Black
10
103.98
20
-75.05
11
102.48
21
-75.05
0
LINE
8
Black
10
102.48
20
-75.05
11
102.48
21
-73.05
0
LINE
8
Black
10
102.48
20
-73.05
11
103.98
21
-73.05
0
LINE
8
Black
10
103.98
20
-73.05
11
103.98
21
-75.05
0
LINE
8
Black
10
96.5
20
-75.05
11
94.7
21
-75.05
0
LINE
8
Black
10
94.7
20
-75.05
11
94.7
21
-74.65
0
LINE
8
Black
10
94.7
20
-74.65
11
96.5
21
-74.65
0
LINE
8
Black
10
96.5
20
-74.65
11
96.5
21
-75.05
0
LINE
8
Black
10
158.5
20
-74.74
11
158
21
-74.74
0
LINE
8
Black
10
158
20
-74.74
11
158
21
-73.84
0
LINE
8
Black
10
158
20
-73.84
11
158.5
21
-73.84
0
LINE
8
Black
10
158.5
20
-73.84
11
158.5
21
-74.74
0
LINE
8
Black
10
163.34
20
-74.74
11
162.84
21
-74.74
0
LINE
8
Black
10
162.84
20
-74.74
11
162.84
21
-73.84
0
LINE
8
Black
10
162.84
20
-73.84
11
163.34
21
-73.84
0
LINE
8
Black
10
163.34
20
-73.84
11
163.34
21
-74.74
0
LINE
8
Black
10
161.84
20
-74.74
11
161.34
21
-74.74
0
LINE
8
Black
10
161.34
20
-74.74
11
161.34
21
-73.84
0
LINE
8
Black
10
161.34
20
-73.84
11
161.84
21
-73.84
0
LINE
8
Black
10
161.84
20
-73.84
11
161.84
21
-74.74
0
LINE
8
Black
10
160
20
-74.74
11
159.5
21
-74.74
0
LINE
8
Black
10
159.5
20
-74.74
11
159.5
21
-73.84
0
LINE
8
Black
10
159.5
20
-73.84
11
160
21
-73.84
0
LINE
8
Black
10
160
20
-73.84
11
160
21
-74.74
0
LINE
8
Black
10
96.5
20
-74.4
11
94.7
21
-74.4
0
LINE
8
Black
10
94.7
20
-74.4
11
94.7
21
-74
0
LINE
8
Black
10
94.7
20
-74
11
96.5
21
-74
0
LINE
8
Black
10
96.5
20
-74
11
96.5
21
-74.4
0
LINE
8
Black
10
175.25
20
-74.27
11
174.35
21
-74.27
0
LINE
8
Black
10
174.35
20
-74.27
11
174.35
21
-73.47
0
LINE
8
Black
10
174.35
20
-73.47
11
175.25
21
-73.47
0
LINE
8
Black
10
175.25
20
-73.47
11
175.25
21
-74.27
0
LINE
8
Black
10
172.2
20
-74.16
11
170.7
21
-74.16
0
LINE
8
Black
10
170.7
20
-74.16
11
170.7
21
-73.56
0
LINE
8
Black
10
170.7
20
-73.56
11
172.2
21
-73.56
0
LINE
8
Black
10
172.2
20
-73.56
11
172.2
21
-74.16
0
LINE
8
Black
10
166.8
20
-74.16
11
165.3
21
-74.16
0
LINE
8
Black
10
165.3
20
-74.16
11
165.3
21
-73.56
0
LINE
8
Black
10
165.3
20
-73.56
11
166.8
21
-73.56
0
LINE
8
Black
10
166.8
20
-73.56
11
166.8
21
-74.16
0
LINE
8
Black
10
126.075
20
-74.155
11
124.525
21
-74.155
0
LINE
8
Black
10
124.525
20
-74.155
11
124.525
21
-73.555
0
LINE
8
Black
10
124.525
20
-73.555
11
126.075
21
-73.555
0
LINE
8
Black
10
126.075
20
-73.555
11
126.075
21
-74.155
0
LINE
8
Black
10
120.675
20
-74.155
11
119.125
21
-74.155
0
LINE
8
Black
10
119.125
20
-74.155
11
119.125
21
-73.555
0
LINE
8
Black
10
119.125
20
-73.555
11
120.675
21
-73.555
0
LINE
8
Black
10
120.675
20
-73.555
11
120.675
21
-74.155
0
LINE
8
Black
10
116.6
20
-73.85
11
114.1
21
-73.85
0
LINE
8
Black
10
114.1
20
-73.85
11
114.1
21
-71.9
0
LINE
8
Black
10
114.1
20
-71.9
11
116.6
21
-71.9
0
LINE
8
Black
10
116.6
20
-71.9
11
116.6
21
-73.85
0
LINE
8
Black
10
185.184
20
-72.1513
11
185.44
21
-72.2989
0
LINE
8
Black
10
185.44
20
-72.2989
11
185.629
21
-72.525
0
LINE
8
Black
10
185.629
20
-72.525
11
185.73
21
-72.8024
0
LINE
8
Black
10
185.73
20
-72.8024
11
185.73
21
-73.0976
0
LINE
8
Black
10
185.73
20
-73.0976
11
185.629
21
-73.375
0
LINE
8
Black
10
185.629
20
-73.375
11
185.44
21
-73.6011
0
LINE
8
Black
10
185.44
20
-73.6011
11
185.184
21
-73.7487
0
LINE
8
Black
10
185.184
20
-73.7487
11
184.893
21
-73.8
0
LINE
8
Black
10
184.893
20
-73.8
11
184.887
21
-73.8
0
LINE
8
Black
10
184.887
20
-73.8
11
184.596
21
-73.7487
0
LINE
8
Black
10
184.596
20
-73.7487
11
184.34
21
-73.6011
0
LINE
8
Black
10
184.34
20
-73.6011
11
184.151
21
-73.375
0
LINE
8
Black
10
184.151
20
-73.375
11
184.05
21
-73.0976
0
LINE
8
Black
10
184.05
20
-73.0976
11
184.05
21
-72.8024
0
LINE
8
Black
10
184.05
20
-72.8024
11
184.151
21
-72.525
0
LINE
8
Black
10
184.151
20
-72.525
11
184.34
21
-72.2989
0
LINE
8
Black
10
184.34
20
-72.2989
11
184.596
21
-72.1513
0
LINE
8
Black
10
184.596
20
-72.1513
11
184.887
21
-72.1
0
LINE
8
Black
10
184.887
20
-72.1
11
184.893
21
-72.1
0
LINE
8
Black
10
184.893
20
-72.1
11
185.184
21
-72.1513
0
LINE
8
Black
10
187.724
20
-72.1513
11
187.98
21
-72.2989
0
LINE
8
Black
10
187.98
20
-72.2989
11
188.169
21
-72.525
0
LINE
8
Black
10
188.169
20
-72.525
11
188.27
21
-72.8024
0
LINE
8
Black
10
188.27
20
-72.8024
11
188.27
21
-73.0976
0
LINE
8
Black
10
188.27
20
-73.0976
11
188.169
21
-73.375
0
LINE
8
Black
10
188.169
20
-73.375
11
187.98
21
-73.6011
0
LINE
8
Black
10
187.98
20
-73.6011
11
187.724
21
-73.7487
0
LINE
8
Black
10
187.724
20
-73.7487
11
187.433
21
-73.8
0
LINE
8
Black
10
187.433
20
-73.8
11
187.427
21
-73.8
0
LINE
8
Black
10
187.427
20
-73.8
11
187.136
21
-73.7487
0
LINE
8
Black
10
187.136
20
-73.7487
11
186.88
21
-73.6011
0
LINE
8
Black
10
186.88
20
-73.6011
11
186.691
21
-73.375
0
LINE
8
Black
10
186.691
20
-73.375
11
186.59
21
-73.0976
0
LINE
8
Black
10
186.59
20
-73.0976
11
186.59
21
-72.8024
0
LINE
8
Black
10
186.59
20
-72.8024
11
186.691
21
-72.525
0
LINE
8
Black
10
186.691
20
-72.525
11
186.88
21
-72.2989
0
LINE
8
Black
10
186.88
20
-72.2989
11
187.136
21
-72.1513
0
LINE
8
Black
10
187.136
20
-72.1513
11
187.427
21
-72.1
0
LINE
8
Black
10
187.427
20
-72.1
11
187.433
21
-72.1
0
LINE
8
Black
10
187.433
20
-72.1
11
187.724
21
-72.1513
0
LINE
8
Black
10
96.5
20
-73.75
11
94.7
21
-73.75
0
LINE
8
Black
10
94.7
20
-73.75
11
94.7
21
-73.35
0
LINE
8
Black
10
94.7
20
-73.35
11
96.5
21
-73.35
0
LINE
8
Black
10
96.5
20
-73.35
11
96.5
21
-73.75
0
LINE
8
Black
10
96.325
20
-72.95
11
95.075
21
-72.95
0
LINE
8
Black
10
95.075
20
-72.95
11
95.075
21
-71.9
0
LINE
8
Black
10
95.075
20
-71.9
11
96.325
21
-71.9
0
LINE
8
Black
10
96.325
20
-71.9
11
96.325
21
-72.95
0
LINE
8
Black
10
166.8
20
-72.89
11
165.3
21
-72.89
0
LINE
8
Black
10
165.3
20
-72.89
11
165.3
21
-72.29
0
LINE
8
Black
10
165.3
20
-72.29
11
166.8
21
-72.29
0
LINE
8
Black
10
166.8
20
-72.29
11
166.8
21
-72.89
0
LINE
8
Black
10
172.2
20
-72.89
11
170.7
21
-72.89
0
LINE
8
Black
10
170.7
20
-72.89
11
170.7
21
-72.29
0
LINE
8
Black
10
170.7
20
-72.29
11
172.2
21
-72.29
0
LINE
8
Black
10
172.2
20
-72.29
11
172.2
21
-72.89
0
LINE
8
Black
10
126.075
20
-72.885
11
124.525
21
-72.885
0
LINE
8
Black
10
124.525
20
-72.885
11
124.525
21
-72.285
0
LINE
8
Black
10
124.525
20
-72.285
11
126.075
21
-72.285
0
LINE
8
Black
10
126.075
20
-72.285
11
126.075
21
-72.885
0
LINE
8
Black
10
120.675
20
-72.885
11
119.125
21
-72.885
0
LINE
8
Black
10
119.125
20
-72.885
11
119.125
21
-72.285
0
LINE
8
Black
10
119.125
20
-72.285
11
120.675
21
-72.285
0
LINE
8
Black
10
120.675
20
-72.285
11
120.675
21
-72.885
0
LINE
8
Black
10
130.55
20
-72.45
11
128
21
-72.45
0
LINE
8
Black
10
128
20
-72.45
11
128
21
-69.95
0
LINE
8
Black
10
128
20
-69.95
11
130.55
21
-69.95
0
LINE
8
Black
10
130.55
20
-69.95
11
130.55
21
-72.45
0
LINE
8
Black
10
135.6
20
-72.45
11
133.05
21
-72.45
0
LINE
8
Black
10
133.05
20
-72.45
11
133.05
21
-69.95
0
LINE
8
Black
10
133.05
20
-69.95
11
135.6
21
-69.95
0
LINE
8
Black
10
135.6
20
-69.95
11
135.6
21
-72.45
0
LINE
8
Black
10
93.65
20
-72.2938
11
91.75
21
-72.2938
0
LINE
8
Black
10
91.75
20
-72.2938
11
91.75
21
-70.2938
0
LINE
8
Black
10
91.75
20
-70.2938
11
93.65
21
-70.2938
0
LINE
8
Black
10
93.65
20
-70.2938
11
93.65
21
-72.2938
0
LINE
8
Black
10
111.2
20
-71.95
11
108.7
21
-71.95
0
LINE
8
Black
10
108.7
20
-71.95
11
108.7
21
-69.4
0
LINE
8
Black
10
108.7
20
-69.4
11
111.2
21
-69.4
0
LINE
8
Black
10
111.2
20
-69.4
11
111.2
21
-71.95
0
LINE
8
Black
10
143.23
20
-71.82
11
141.53
21
-71.82
0
LINE
8
Black
10
141.53
20
-71.82
11
141.53
21
-70.52
0
LINE
8
Black
10
141.53
20
-70.52
11
143.23
21
-70.52
0
LINE
8
Black
10
143.23
20
-70.52
11
143.23
21
-71.82
0
LINE
8
Black
10
175.2
20
-71.705
11
174.4
21
-71.705
0
LINE
8
Black
10
174.4
20
-71.705
11
174.4
21
-70.955
0
LINE
8
Black
10
174.4
20
-70.955
11
175.2
21
-70.955
0
LINE
8
Black
10
175.2
20
-70.955
11
175.2
21
-71.705
0
LINE
8
Black
10
176.7
20
-71.705
11
175.9
21
-71.705
0
LINE
8
Black
10
175.9
20
-71.705
11
175.9
21
-70.955
0
LINE
8
Black
10
175.9
20
-70.955
11
176.7
21
-70.955
0
LINE
8
Black
10
176.7
20
-70.955
11
176.7
21
-71.705
0
LINE
8
Black
10
149.5
20
-71.64
11
148.6
21
-71.64
0
LINE
8
Black
10
148.6
20
-71.64
11
148.6
21
-71.14
0
LINE
8
Black
10
148.6
20
-71.14
11
149.5
21
-71.14
0
LINE
8
Black
10
149.5
20
-71.14
11
149.5
21
-71.64
0
LINE
8
Black
10
172.2
20
-71.62
11
170.7
21
-71.62
0
LINE
8
Black
10
170.7
20
-71.62
11
170.7
21
-71.02
0
LINE
8
Black
10
170.7
20
-71.02
11
172.2
21
-71.02
0
LINE
8
Black
10
172.2
20
-71.02
11
172.2
21
-71.62
0
LINE
8
Black
10
166.8
20
-71.62
11
165.3
21
-71.62
0
LINE
8
Black
10
165.3
20
-71.62
11
165.3
21
-71.02
0
LINE
8
Black
10
165.3
20
-71.02
11
166.8
21
-71.02
0
LINE
8
Black
10
166.8
20
-71.02
11
166.8
21
-71.62
0
LINE
8
Black
10
126.075
20
-71.615
11
124.525
21
-71.615
0
LINE
8
Black
10
124.525
20
-71.615
11
124.525
21
-71.015
0
LINE
8
Black
10
124.525
20
-71.015
11
126.075
21
-71.015
0
LINE
8
Black
10
126.075
20
-71.015
11
126.075
21
-71.615
0
LINE
8
Black
10
120.675
20
-71.615
11
119.125
21
-71.615
0
LINE
8
Black
10
119.125
20
-71.615
11
119.125
21
-71.015
0
LINE
8
Black
10
119.125
20
-71.015
11
120.675
21
-71.015
0
LINE
8
Black
10
120.675
20
-71.015
11
120.675
21
-71.615
0
LINE
8
Black
10
159.25
20
-71.6
11
157.85
21
-71.6
0
LINE
8
Black
10
157.85
20
-71.6
11
157.85
21
-71.3
0
LINE
8
Black
10
157.85
20
-71.3
11
159.25
21
-71.3
0
LINE
8
Black
10
159.25
20
-71.3
11
159.25
21
-71.6
0
LINE
8
Black
10
154.85
20
-71.6
11
153.45
21
-71.6
0
LINE
8
Black
10
153.45
20
-71.6
11
153.45
21
-71.3
0
LINE
8
Black
10
153.45
20
-71.3
11
154.85
21
-71.3
0
LINE
8
Black
10
154.85
20
-71.3
11
154.85
21
-71.6
0
LINE
8
Black
10
185.74
20
-71.26
11
184.04
21
-71.26
0
LINE
8
Black
10
184.04
20
-71.26
11
184.04
21
-69.56
0
LINE
8
Black
10
184.04
20
-69.56
11
185.74
21
-69.56
0
LINE
8
Black
10
185.74
20
-69.56
11
185.74
21
-71.26
0
LINE
8
Black
10
187.724
20
-69.6113
11
187.98
21
-69.7589
0
LINE
8
Black
10
187.98
20
-69.7589
11
188.169
21
-69.985
0
LINE
8
Black
10
188.169
20
-69.985
11
188.27
21
-70.2624
0
LINE
8
Black
10
188.27
20
-70.2624
11
188.27
21
-70.5576
0
LINE
8
Black
10
188.27
20
-70.5576
11
188.169
21
-70.835
0
LINE
8
Black
10
188.169
20
-70.835
11
187.98
21
-71.0611
0
LINE
8
Black
10
187.98
20
-71.0611
11
187.724
21
-71.2087
0
LINE
8
Black
10
187.724
20
-71.2087
11
187.433
21
-71.26
0
LINE
8
Black
10
187.433
20
-71.26
11
187.427
21
-71.26
0
LINE
8
Black
10
187.427
20
-71.26
11
187.136
21
-71.2087
0
LINE
8
Black
10
187.136
20
-71.2087
11
186.88
21
-71.0611
0
LINE
8
Black
10
186.88
20
-71.0611
11
186.691
21
-70.835
0
LINE
8
Black
10
186.691
20
-70.835
11
186.59
21
-70.5576
0
LINE
8
Black
10
186.59
20
-70.5576
11
186.59
21
-70.2624
0
LINE
8
Black
10
186.59
20
-70.2624
11
186.691
21
-69.985
0
LINE
8
Black
10
186.691
20
-69.985
11
186.88
21
-69.7589
0
LINE
8
Black
10
186.88
20
-69.7589
11
187.136
21
-69.6113
0
LINE
8
Black
10
187.136
20
-69.6113
11
187.427
21
-69.56
0
LINE
8
Black
10
187.427
20
-69.56
11
187.433
21
-69.56
0
LINE
8
Black
10
187.433
20
-69.56
11
187.724
21
-69.6113
0
LINE
8
Black
10
159.25
20
-71.1
11
157.85
21
-71.1
0
LINE
8
Black
10
157.85
20
-71.1
11
157.85
21
-70.8
0
LINE
8
Black
10
157.85
20
-70.8
11
159.25
21
-70.8
0
LINE
8
Black
10
159.25
20
-70.8
11
159.25
21
-71.1
0
LINE
8
Black
10
154.85
20
-71.1
11
153.45
21
-71.1
0
LINE
8
Black
10
153.45
20
-71.1
11
153.45
21
-70.8
0
LINE
8
Black
10
153.45
20
-70.8
11
154.85
21
-70.8
0
LINE
8
Black
10
154.85
20
-70.8
11
154.85
21
-71.1
0
LINE
8
Black
10
159.25
20
-70.6
11
157.85
21
-70.6
0
LINE
8
Black
10
157.85
20
-70.6
11
157.85
21
-70.3
0
LINE
8
Black
10
157.85
20
-70.3
11
159.25
21
-70.3
0
LINE
8
Black
10
159.25
20
-70.3
11
159.25
21
-70.6
0
LINE
8
Black
10
154.85
20
-70.6
11
153.45
21
-70.6
0
LINE
8
Black
10
153.45
20
-70.6
11
153.45
21
-70.3
0
LINE
8
Black
10
153.45
20
-70.3
11
154.85
21
-70.3
0
LINE
8
Black
10
154.85
20
-70.3
11
154.85
21
-70.6
0
LINE
8
Black
10
172.2
20
-70.35
11
170.7
21
-70.35
0
LINE
8
Black
10
170.7
20
-70.35
11
170.7
21
-69.75
0
LINE
8
Black
10
170.7
20
-69.75
11
172.2
21
-69.75
0
LINE
8
Black
10
172.2
20
-69.75
11
172.2
21
-70.35
0
LINE
8
Black
10
166.8
20
-70.35
11
165.3
21
-70.35
0
LINE
8
Black
10
165.3
20
-70.35
11
165.3
21
-69.75
0
LINE
8
Black
10
165.3
20
-69.75
11
166.8
21
-69.75
0
LINE
8
Black
10
166.8
20
-69.75
11
166.8
21
-70.35
0
LINE
8
Black
10
126.075
20
-70.345
11
124.525
21
-70.345
0
LINE
8
Black
10
124.525
20
-70.345
11
124.525
21
-69.745
0
LINE
8
Black
10
124.525
20
-69.745
11
126.075
21
-69.745
0
LINE
8
Black
10
126.075
20
-69.745
11
126.075
21
-70.345
0
LINE
8
Black
10
120.675
20
-70.345
11
119.125
21
-70.345
0
LINE
8
Black
10
119.125
20
-70.345
11
119.125
21
-69.745
0
LINE
8
Black
10
119.125
20
-69.745
11
120.675
21
-69.745
0
LINE
8
Black
10
120.675
20
-69.745
11
120.675
21
-70.345
0
LINE
8
Black
10
149.5
20
-70.14
11
148.6
21
-70.14
0
LINE
8
Black
10
148.6
20
-70.14
11
148.6
21
-69.64
0
LINE
8
Black
10
148.6
20
-69.64
11
149.5
21
-69.64
0
LINE
8
Black
10
149.5
20
-69.64
11
149.5
21
-70.14
0
LINE
8
Black
10
154.85
20
-70.1
11
153.45
21
-70.1
0
LINE
8
Black
10
153.45
20
-70.1
11
153.45
21
-69.8
0
LINE
8
Black
10
153.45
20
-69.8
11
154.85
21
-69.8
0
LINE
8
Black
10
154.85
20
-69.8
11
154.85
21
-70.1
0
LINE
8
Black
10
159.25
20
-70.1
11
157.85
21
-70.1
0
LINE
8
Black
10
157.85
20
-70.1
11
157.85
21
-69.8
0
LINE
8
Black
10
157.85
20
-69.8
11
159.25
21
-69.8
0
LINE
8
Black
10
159.25
20
-69.8
11
159.25
21
-70.1
0
LINE
8
Black
10
154.85
20
-69.6
11
153.45
21
-69.6
0
LINE
8
Black
10
153.45
20
-69.6
11
153.45
21
-69.3
0
LINE
8
Black
10
153.45
20
-69.3
11
154.85
21
-69.3
0
LINE
8
Black
10
154.85
20
-69.3
11
154.85
21
-69.6
0
LINE
8
Black
10
159.25
20
-69.6
11
157.85
21
-69.6
0
LINE
8
Black
10
157.85
20
-69.6
11
157.85
21
-69.3
0
LINE
8
Black
10
157.85
20
-69.3
11
159.25
21
-69.3
0
LINE
8
Black
10
159.25
20
-69.3
11
159.25
21
-69.6
0
LINE
8
Black
10
176.54
20
-69.38
11
176.04
21
-69.38
0
LINE
8
Black
10
176.04
20
-69.38
11
176.04
21
-68.48
0
LINE
8
Black
10
176.04
20
-68.48
11
176.54
21
-68.48
0
LINE
8
Black
10
176.54
20
-68.48
11
176.54
21
-69.38
0
LINE
8
Black
10
175.04
20
-69.38
11
174.54
21
-69.38
0
LINE
8
Black
10
174.54
20
-69.38
11
174.54
21
-68.48
0
LINE
8
Black
10
174.54
20
-68.48
11
175.04
21
-68.48
0
LINE
8
Black
10
175.04
20
-68.48
11
175.04
21
-69.38
0
LINE
8
Black
10
97.315
20
-69.17
11
95.285
21
-69.17
0
LINE
8
Black
10
95.285
20
-69.17
11
95.285
21
-68.03
0
LINE
8
Black
10
95.285
20
-68.03
11
97.315
21
-68.03
0
LINE
8
Black
10
97.315
20
-68.03
11
97.315
21
-69.17
0
LINE
8
Black
10
172.2
20
-69.08
11
170.7
21
-69.08
0
LINE
8
Black
10
170.7
20
-69.08
11
170.7
21
-68.48
0
LINE
8
Black
10
170.7
20
-68.48
11
172.2
21
-68.48
0
LINE
8
Black
10
172.2
20
-68.48
11
172.2
21
-69.08
0
LINE
8
Black
10
166.8
20
-69.08
11
165.3
21
-69.08
0
LINE
8
Black
10
165.3
20
-69.08
11
165.3
21
-68.48
0
LINE
8
Black
10
165.3
20
-68.48
11
166.8
21
-68.48
0
LINE
8
Black
10
166.8
20
-68.48
11
166.8
21
-69.08
0
LINE
8
Black
10
94.28
20
-69.02
11
93.08
21
-69.02
0
LINE
8
Black
10
93.08
20
-69.02
11
93.08
21
-67.82
0
LINE
8
Black
10
93.08
20
-67.82
11
94.28
21
-67.82
0
LINE
8
Black
10
94.28
20
-67.82
11
94.28
21
-69.02
0
LINE
8
Black
10
105.13
20
-68.75
11
101.33
21
-68.75
0
LINE
8
Black
10
101.33
20
-68.75
11
101.33
21
-66.75
0
LINE
8
Black
10
101.33
20
-66.75
11
105.13
21
-66.75
0
LINE
8
Black
10
105.13
20
-66.75
11
105.13
21
-68.75
0
LINE
8
Black
10
143.23
20
-68.32
11
141.53
21
-68.32
0
LINE
8
Black
10
141.53
20
-68.32
11
141.53
21
-67.02
0
LINE
8
Black
10
141.53
20
-67.02
11
143.23
21
-67.02
0
LINE
8
Black
10
143.23
20
-67.02
11
143.23
21
-68.32
0
LINE
8
Black
10
136.68
20
-68.06
11
135.78
21
-68.06
0
LINE
8
Black
10
135.78
20
-68.06
11
135.78
21
-67.26
0
LINE
8
Black
10
135.78
20
-67.26
11
136.68
21
-67.26
0
LINE
8
Black
10
136.68
20
-67.26
11
136.68
21
-68.06
0
LINE
8
Black
10
172.2
20
-67.81
11
170.7
21
-67.81
0
LINE
8
Black
10
170.7
20
-67.81
11
170.7
21
-67.21
0
LINE
8
Black
10
170.7
20
-67.21
11
172.2
21
-67.21
0
LINE
8
Black
10
172.2
20
-67.21
11
172.2
21
-67.81
0
LINE
8
Black
10
166.8
20
-67.81
11
165.3
21
-67.81
0
LINE
8
Black
10
165.3
20
-67.81
11
165.3
21
-67.21
0
LINE
8
Black
10
165.3
20
-67.21
11
166.8
21
-67.21
0
LINE
8
Black
10
166.8
20
-67.21
11
166.8
21
-67.81
0
LINE
8
Black
10
125.53
20
-67.73
11
123.58
21
-67.73
0
LINE
8
Black
10
123.58
20
-67.73
11
123.58
21
-65.23
0
LINE
8
Black
10
123.58
20
-65.23
11
125.53
21
-65.23
0
LINE
8
Black
10
125.53
20
-65.23
11
125.53
21
-67.73
0
LINE
8
Black
10
128.58
20
-67.73
11
126.63
21
-67.73
0
LINE
8
Black
10
126.63
20
-67.73
11
126.63
21
-65.23
0
LINE
8
Black
10
126.63
20
-65.23
11
128.58
21
-65.23
0
LINE
8
Black
10
128.58
20
-65.23
11
128.58
21
-67.73
0
LINE
8
Black
10
113.74
20
-67.73
11
111.19
21
-67.73
0
LINE
8
Black
10
111.19
20
-67.73
11
111.19
21
-65.23
0
LINE
8
Black
10
111.19
20
-65.23
11
113.74
21
-65.23
0
LINE
8
Black
10
113.74
20
-65.23
11
113.74
21
-67.73
0
LINE
8
Black
10
118.79
20
-67.73
11
116.24
21
-67.73
0
LINE
8
Black
10
116.24
20
-67.73
11
116.24
21
-65.23
0
LINE
8
Black
10
116.24
20
-65.23
11
118.79
21
-65.23
0
LINE
8
Black
10
118.79
20
-65.23
11
118.79
21
-67.73
0
LINE
8
Black
10
132.57
20
-67.72
11
131.67
21
-67.72
0
LINE
8
Black
10
131.67
20
-67.72
11
131.67
21
-67.22
0
LINE
8
Black
10
131.67
20
-67.22
11
132.57
21
-67.22
0
LINE
8
Black
10
132.57
20
-67.22
11
132.57
21
-67.72
0
LINE
8
Black
10
161.9
20
-67.675
11
161.1
21
-67.675
0
LINE
8
Black
10
161.1
20
-67.675
11
161.1
21
-66.925
0
LINE
8
Black
10
161.1
20
-66.925
11
161.9
21
-66.925
0
LINE
8
Black
10
161.9
20
-66.925
11
161.9
21
-67.675
0
LINE
8
Black
10
158.37
20
-67.675
11
157.57
21
-67.675
0
LINE
8
Black
10
157.57
20
-67.675
11
157.57
21
-66.925
0
LINE
8
Black
10
157.57
20
-66.925
11
158.37
21
-66.925
0
LINE
8
Black
10
158.37
20
-66.925
11
158.37
21
-67.675
0
LINE
8
Black
10
156.87
20
-67.675
11
156.07
21
-67.675
0
LINE
8
Black
10
156.07
20
-67.675
11
156.07
21
-66.925
0
LINE
8
Black
10
156.07
20
-66.925
11
156.87
21
-66.925
0
LINE
8
Black
10
156.87
20
-66.925
11
156.87
21
-67.675
0
LINE
8
Black
10
163.4
20
-67.675
11
162.6
21
-67.675
0
LINE
8
Black
10
162.6
20
-67.675
11
162.6
21
-66.925
0
LINE
8
Black
10
162.6
20
-66.925
11
163.4
21
-66.925
0
LINE
8
Black
10
163.4
20
-66.925
11
163.4
21
-67.675
0
LINE
8
Black
10
134.68
20
-67.11
11
133.78
21
-67.11
0
LINE
8
Black
10
133.78
20
-67.11
11
133.78
21
-66.31
0
LINE
8
Black
10
133.78
20
-66.31
11
134.68
21
-66.31
0
LINE
8
Black
10
134.68
20
-66.31
11
134.68
21
-67.11
0
LINE
8
Black
10
122.2
20
-66.93
11
121.7
21
-66.93
0
LINE
8
Black
10
121.7
20
-66.93
11
121.7
21
-66.03
0
LINE
8
Black
10
121.7
20
-66.03
11
122.2
21
-66.03
0
LINE
8
Black
10
122.2
20
-66.03
11
122.2
21
-66.93
0
LINE
8
Black
10
120.7
20
-66.93
11
120.2
21
-66.93
0
LINE
8
Black
10
120.2
20
-66.93
11
120.2
21
-66.03
0
LINE
8
Black
10
120.2
20
-66.03
11
120.7
21
-66.03
0
LINE
8
Black
10
120.7
20
-66.03
11
120.7
21
-66.93
0
LINE
8
Black
10
94.28
20
-66.82
11
93.08
21
-66.82
0
LINE
8
Black
10
93.08
20
-66.82
11
93.08
21
-65.62
0
LINE
8
Black
10
93.08
20
-65.62
11
94.28
21
-65.62
0
LINE
8
Black
10
94.28
20
-65.62
11
94.28
21
-66.82
0
LINE
8
Black
10
97.315
20
-66.77
11
95.285
21
-66.77
0
LINE
8
Black
10
95.285
20
-66.77
11
95.285
21
-65.63
0
LINE
8
Black
10
95.285
20
-65.63
11
97.315
21
-65.63
0
LINE
8
Black
10
97.315
20
-65.63
11
97.315
21
-66.77
0
LINE
8
Black
10
175.1
20
-66.68
11
174.6
21
-66.68
0
LINE
8
Black
10
174.6
20
-66.68
11
174.6
21
-65.78
0
LINE
8
Black
10
174.6
20
-65.78
11
175.1
21
-65.78
0
LINE
8
Black
10
175.1
20
-65.78
11
175.1
21
-66.68
0
LINE
8
Black
10
176.6
20
-66.68
11
176.1
21
-66.68
0
LINE
8
Black
10
176.1
20
-66.68
11
176.1
21
-65.78
0
LINE
8
Black
10
176.1
20
-65.78
11
176.6
21
-65.78
0
LINE
8
Black
10
176.6
20
-65.78
11
176.6
21
-66.68
0
LINE
8
Black
10
172.2
20
-66.54
11
170.7
21
-66.54
0
LINE
8
Black
10
170.7
20
-66.54
11
170.7
21
-65.94
0
LINE
8
Black
10
170.7
20
-65.94
11
172.2
21
-65.94
0
LINE
8
Black
10
172.2
20
-65.94
11
172.2
21
-66.54
0
LINE
8
Black
10
166.8
20
-66.54
11
165.3
21
-66.54
0
LINE
8
Black
10
165.3
20
-66.54
11
165.3
21
-65.94
0
LINE
8
Black
10
165.3
20
-65.94
11
166.8
21
-65.94
0
LINE
8
Black
10
166.8
20
-65.94
11
166.8
21
-66.54
0
LINE
8
Black
10
132.57
20
-66.22
11
131.67
21
-66.22
0
LINE
8
Black
10
131.67
20
-66.22
11
131.67
21
-65.72
0
LINE
8
Black
10
131.67
20
-65.72
11
132.57
21
-65.72
0
LINE
8
Black
10
132.57
20
-65.72
11
132.57
21
-66.22
0
LINE
8
Black
10
136.68
20
-66.16
11
135.78
21
-66.16
0
LINE
8
Black
10
135.78
20
-66.16
11
135.78
21
-65.36
0
LINE
8
Black
10
135.78
20
-65.36
11
136.68
21
-65.36
0
LINE
8
Black
10
136.68
20
-65.36
11
136.68
21
-66.16
0
LINE
8
Black
10
182.051
20
-60.1388
11
182.897
21
-60.6269
0
LINE
8
Black
10
182.897
20
-60.6269
11
183.524
21
-61.3747
0
LINE
8
Black
10
183.524
20
-61.3747
11
183.858
21
-62.2919
0
LINE
8
Black
10
183.858
20
-62.2919
11
183.858
21
-63.2681
0
LINE
8
Black
10
183.858
20
-63.2681
11
183.524
21
-64.1853
0
LINE
8
Black
10
183.524
20
-64.1853
11
182.897
21
-64.9331
0
LINE
8
Black
10
182.897
20
-64.9331
11
182.051
21
-65.4212
0
LINE
8
Black
10
182.051
20
-65.4212
11
181.09
21
-65.5907
0
LINE
8
Black
10
181.09
20
-65.5907
11
180.129
21
-65.4212
0
LINE
8
Black
10
180.129
20
-65.4212
11
179.283
21
-64.9331
0
LINE
8
Black
10
179.283
20
-64.9331
11
178.656
21
-64.1853
0
LINE
8
Black
10
178.656
20
-64.1853
11
178.322
21
-63.2681
0
LINE
8
Black
10
178.322
20
-63.2681
11
178.322
21
-62.2919
0
LINE
8
Black
10
178.322
20
-62.2919
11
178.656
21
-61.3747
0
LINE
8
Black
10
178.656
20
-61.3747
11
179.283
21
-60.6269
0
LINE
8
Black
10
179.283
20
-60.6269
11
180.129
21
-60.1388
0
LINE
8
Black
10
180.129
20
-60.1388
11
181.09
21
-59.9693
0
LINE
8
Black
10
181.09
20
-59.9693
11
182.051
21
-60.1388
0
LINE
8
Black
10
158.22
20
-65.59
11
157.72
21
-65.59
0
LINE
8
Black
10
157.72
20
-65.59
11
157.72
21
-64.69
0
LINE
8
Black
10
157.72
20
-64.69
11
158.22
21
-64.69
0
LINE
8
Black
10
158.22
20
-64.69
11
158.22
21
-65.59
0
LINE
8
Black
10
156.72
20
-65.59
11
156.22
21
-65.59
0
LINE
8
Black
10
156.22
20
-65.59
11
156.22
21
-64.69
0
LINE
8
Black
10
156.22
20
-64.69
11
156.72
21
-64.69
0
LINE
8
Black
10
156.72
20
-64.69
11
156.72
21
-65.59
0
LINE
8
Black
10
161.73
20
-65.59
11
161.23
21
-65.59
0
LINE
8
Black
10
161.23
20
-65.59
11
161.23
21
-64.69
0
LINE
8
Black
10
161.23
20
-64.69
11
161.73
21
-64.69
0
LINE
8
Black
10
161.73
20
-64.69
11
161.73
21
-65.59
0
LINE
8
Black
10
163.23
20
-65.59
11
162.73
21
-65.59
0
LINE
8
Black
10
162.73
20
-65.59
11
162.73
21
-64.69
0
LINE
8
Black
10
162.73
20
-64.69
11
163.23
21
-64.69
0
LINE
8
Black
10
163.23
20
-64.69
11
163.23
21
-65.59
0
LINE
8
Black
10
107.111
20
-60.1288
11
107.957
21
-60.6169
0
LINE
8
Black
10
107.957
20
-60.6169
11
108.584
21
-61.3647
0
LINE
8
Black
10
108.584
20
-61.3647
11
108.918
21
-62.2819
0
LINE
8
Black
10
108.918
20
-62.2819
11
108.918
21
-63.2581
0
LINE
8
Black
10
108.918
20
-63.2581
11
108.584
21
-64.1753
0
LINE
8
Black
10
108.584
20
-64.1753
11
107.957
21
-64.9231
0
LINE
8
Black
10
107.957
20
-64.9231
11
107.111
21
-65.4112
0
LINE
8
Black
10
107.111
20
-65.4112
11
106.15
21
-65.5807
0
LINE
8
Black
10
106.15
20
-65.5807
11
105.189
21
-65.4112
0
LINE
8
Black
10
105.189
20
-65.4112
11
104.343
21
-64.9231
0
LINE
8
Black
10
104.343
20
-64.9231
11
103.716
21
-64.1753
0
LINE
8
Black
10
103.716
20
-64.1753
11
103.382
21
-63.2581
0
LINE
8
Black
10
103.382
20
-63.2581
11
103.382
21
-62.2819
0
LINE
8
Black
10
103.382
20
-62.2819
11
103.716
21
-61.3647
0
LINE
8
Black
10
103.716
20
-61.3647
11
104.343
21
-60.6169
0
LINE
8
Black
10
104.343
20
-60.6169
11
105.189
21
-60.1288
0
LINE
8
Black
10
105.189
20
-60.1288
11
106.15
21
-59.9593
0
LINE
8
Black
10
106.15
20
-59.9593
11
107.111
21
-60.1288
0
LINE
8
Black
10
96.675
20
-64.53
11
95.925
21
-64.53
0
LINE
8
Black
10
95.925
20
-64.53
11
95.925
21
-63.73
0
LINE
8
Black
10
95.925
20
-63.73
11
96.675
21
-63.73
0
LINE
8
Black
10
96.675
20
-63.73
11
96.675
21
-64.53
0
LINE
8
Black
10
99.035
20
-64.53
11
98.285
21
-64.53
0
LINE
8
Black
10
98.285
20
-64.53
11
98.285
21
-63.73
0
LINE
8
Black
10
98.285
20
-63.73
11
99.035
21
-63.73
0
LINE
8
Black
10
99.035
20
-63.73
11
99.035
21
-64.53
0
LINE
8
Black
10
94.13
20
-64.37
11
93.23
21
-64.37
0
LINE
8
Black
10
93.23
20
-64.37
11
93.23
21
-63.87
0
LINE
8
Black
10
93.23
20
-63.87
11
94.13
21
-63.87
0
LINE
8
Black
10
94.13
20
-63.87
11
94.13
21
-64.37
0
LINE
8
Black
10
186.922
20
-63.0684
11
187.073
21
-63.1555
0
LINE
8
Black
10
187.073
20
-63.1555
11
187.185
21
-63.289
0
LINE
8
Black
10
187.185
20
-63.289
11
187.244
21
-63.4528
0
LINE
8
Black
10
187.244
20
-63.4528
11
187.244
21
-63.6272
0
LINE
8
Black
10
187.244
20
-63.6272
11
187.185
21
-63.791
0
LINE
8
Black
10
187.185
20
-63.791
11
187.073
21
-63.9245
0
LINE
8
Black
10
187.073
20
-63.9245
11
186.922
21
-64.0116
0
LINE
8
Black
10
186.922
20
-64.0116
11
186.75
21
-64.0419
0
LINE
8
Black
10
186.75
20
-64.0419
11
186.578
21
-64.0116
0
LINE
8
Black
10
186.578
20
-64.0116
11
186.427
21
-63.9245
0
LINE
8
Black
10
186.427
20
-63.9245
11
186.315
21
-63.791
0
LINE
8
Black
10
186.315
20
-63.791
11
186.256
21
-63.6272
0
LINE
8
Black
10
186.256
20
-63.6272
11
186.256
21
-63.4528
0
LINE
8
Black
10
186.256
20
-63.4528
11
186.315
21
-63.289
0
LINE
8
Black
10
186.315
20
-63.289
11
186.427
21
-63.1555
0
LINE
8
Black
10
186.427
20
-63.1555
11
186.578
21
-63.0684
0
LINE
8
Black
10
186.578
20
-63.0684
11
186.75
21
-63.0381
0
LINE
8
Black
10
186.75
20
-63.0381
11
186.922
21
-63.0684
0
LINE
8
Black
10
129.88
20
-63.64
11
128.18
21
-63.64
0
LINE
8
Black
10
128.18
20
-63.64
11
128.18
21
-61.94
0
LINE
8
Black
10
128.18
20
-61.94
11
129.88
21
-61.94
0
LINE
8
Black
10
129.88
20
-61.94
11
129.88
21
-63.64
0
LINE
8
Black
10
137.075
20
-62.0506
11
137.301
21
-62.2404
0
LINE
8
Black
10
137.301
20
-62.2404
11
137.449
21
-62.496
0
LINE
8
Black
10
137.449
20
-62.496
11
137.5
21
-62.7868
0
LINE
8
Black
10
137.5
20
-62.7868
11
137.5
21
-62.7932
0
LINE
8
Black
10
137.5
20
-62.7932
11
137.449
21
-63.084
0
LINE
8
Black
10
137.449
20
-63.084
11
137.301
21
-63.3396
0
LINE
8
Black
10
137.301
20
-63.3396
11
137.075
21
-63.5294
0
LINE
8
Black
10
137.075
20
-63.5294
11
136.798
21
-63.6303
0
LINE
8
Black
10
136.798
20
-63.6303
11
136.502
21
-63.6303
0
LINE
8
Black
10
136.502
20
-63.6303
11
136.225
21
-63.5294
0
LINE
8
Black
10
136.225
20
-63.5294
11
135.999
21
-63.3396
0
LINE
8
Black
10
135.999
20
-63.3396
11
135.851
21
-63.084
0
LINE
8
Black
10
135.851
20
-63.084
11
135.8
21
-62.7932
0
LINE
8
Black
10
135.8
20
-62.7932
11
135.8
21
-62.7868
0
LINE
8
Black
10
135.8
20
-62.7868
11
135.851
21
-62.496
0
LINE
8
Black
10
135.851
20
-62.496
11
135.999
21
-62.2404
0
LINE
8
Black
10
135.999
20
-62.2404
11
136.225
21
-62.0506
0
LINE
8
Black
10
136.225
20
-62.0506
11
136.502
21
-61.9497
0
LINE
8
Black
10
136.502
20
-61.9497
11
136.798
21
-61.9497
0
LINE
8
Black
10
136.798
20
-61.9497
11
137.075
21
-62.0506
0
LINE
8
Black
10
131.995
20
-62.0506
11
132.221
21
-62.2404
0
LINE
8
Black
10
132.221
20
-62.2404
11
132.369
21
-62.496
0
LINE
8
Black
10
132.369
20
-62.496
11
132.42
21
-62.7868
0
LINE
8
Black
10
132.42
20
-62.7868
11
132.42
21
-62.7932
0
LINE
8
Black
10
132.42
20
-62.7932
11
132.369
21
-63.084
0
LINE
8
Black
10
132.369
20
-63.084
11
132.221
21
-63.3396
0
LINE
8
Black
10
132.221
20
-63.3396
11
131.995
21
-63.5294
0
LINE
8
Black
10
131.995
20
-63.5294
11
131.718
21
-63.6303
0
LINE
8
Black
10
131.718
20
-63.6303
11
131.422
21
-63.6303
0
LINE
8
Black
10
131.422
20
-63.6303
11
131.145
21
-63.5294
0
LINE
8
Black
10
131.145
20
-63.5294
11
130.919
21
-63.3396
0
LINE
8
Black
10
130.919
20
-63.3396
11
130.771
21
-63.084
0
LINE
8
Black
10
130.771
20
-63.084
11
130.72
21
-62.7932
0
LINE
8
Black
10
130.72
20
-62.7932
11
130.72
21
-62.7868
0
LINE
8
Black
10
130.72
20
-62.7868
11
130.771
21
-62.496
0
LINE
8
Black
10
130.771
20
-62.496
11
130.919
21
-62.2404
0
LINE
8
Black
10
130.919
20
-62.2404
11
131.145
21
-62.0506
0
LINE
8
Black
10
131.145
20
-62.0506
11
131.422
21
-61.9497
0
LINE
8
Black
10
131.422
20
-61.9497
11
131.718
21
-61.9497
0
LINE
8
Black
10
131.718
20
-61.9497
11
131.995
21
-62.0506
0
LINE
8
Black
10
134.535
20
-62.0506
11
134.761
21
-62.2404
0
LINE
8
Black
10
134.761
20
-62.2404
11
134.909
21
-62.496
0
LINE
8
Black
10
134.909
20
-62.496
11
134.96
21
-62.7868
0
LINE
8
Black
10
134.96
20
-62.7868
11
134.96
21
-62.7932
0
LINE
8
Black
10
134.96
20
-62.7932
11
134.909
21
-63.084
0
LINE
8
Black
10
134.909
20
-63.084
11
134.761
21
-63.3396
0
LINE
8
Black
10
134.761
20
-63.3396
11
134.535
21
-63.5294
0
LINE
8
Black
10
134.535
20
-63.5294
11
134.258
21
-63.6303
0
LINE
8
Black
10
134.258
20
-63.6303
11
133.962
21
-63.6303
0
LINE
8
Black
10
133.962
20
-63.6303
11
133.685
21
-63.5294
0
LINE
8
Black
10
133.685
20
-63.5294
11
133.459
21
-63.3396
0
LINE
8
Black
10
133.459
20
-63.3396
11
133.311
21
-63.084
0
LINE
8
Black
10
133.311
20
-63.084
11
133.26
21
-62.7932
0
LINE
8
Black
10
133.26
20
-62.7932
11
133.26
21
-62.7868
0
LINE
8
Black
10
133.26
20
-62.7868
11
133.311
21
-62.496
0
LINE
8
Black
10
133.311
20
-62.496
11
133.459
21
-62.2404
0
LINE
8
Black
10
133.459
20
-62.2404
11
133.685
21
-62.0506
0
LINE
8
Black
10
133.685
20
-62.0506
11
133.962
21
-61.9497
0
LINE
8
Black
10
133.962
20
-61.9497
11
134.258
21
-61.9497
0
LINE
8
Black
10
134.258
20
-61.9497
11
134.535
21
-62.0506
0
LINE
8
Black
10
142.59
20
-63.63
11
140.89
21
-63.63
0
LINE
8
Black
10
140.89
20
-63.63
11
140.89
21
-61.93
0
LINE
8
Black
10
140.89
20
-61.93
11
142.59
21
-61.93
0
LINE
8
Black
10
142.59
20
-61.93
11
142.59
21
-63.63
0
LINE
8
Black
10
144.705
20
-62.0406
11
144.931
21
-62.2304
0
LINE
8
Black
10
144.931
20
-62.2304
11
145.079
21
-62.486
0
LINE
8
Black
10
145.079
20
-62.486
11
145.13
21
-62.7768
0
LINE
8
Black
10
145.13
20
-62.7768
11
145.13
21
-62.7832
0
LINE
8
Black
10
145.13
20
-62.7832
11
145.079
21
-63.074
0
LINE
8
Black
10
145.079
20
-63.074
11
144.931
21
-63.3296
0
LINE
8
Black
10
144.931
20
-63.3296
11
144.705
21
-63.5194
0
LINE
8
Black
10
144.705
20
-63.5194
11
144.428
21
-63.6203
0
LINE
8
Black
10
144.428
20
-63.6203
11
144.132
21
-63.6203
0
LINE
8
Black
10
144.132
20
-63.6203
11
143.855
21
-63.5194
0
LINE
8
Black
10
143.855
20
-63.5194
11
143.629
21
-63.3296
0
LINE
8
Black
10
143.629
20
-63.3296
11
143.481
21
-63.074
0
LINE
8
Black
10
143.481
20
-63.074
11
143.43
21
-62.7832
0
LINE
8
Black
10
143.43
20
-62.7832
11
143.43
21
-62.7768
0
LINE
8
Black
10
143.43
20
-62.7768
11
143.481
21
-62.486
0
LINE
8
Black
10
143.481
20
-62.486
11
143.629
21
-62.2304
0
LINE
8
Black
10
143.629
20
-62.2304
11
143.855
21
-62.0406
0
LINE
8
Black
10
143.855
20
-62.0406
11
144.132
21
-61.9397
0
LINE
8
Black
10
144.132
20
-61.9397
11
144.428
21
-61.9397
0
LINE
8
Black
10
144.428
20
-61.9397
11
144.705
21
-62.0406
0
LINE
8
Black
10
147.245
20
-62.0406
11
147.471
21
-62.2304
0
LINE
8
Black
10
147.471
20
-62.2304
11
147.619
21
-62.486
0
LINE
8
Black
10
147.619
20
-62.486
11
147.67
21
-62.7768
0
LINE
8
Black
10
147.67
20
-62.7768
11
147.67
21
-62.7832
0
LINE
8
Black
10
147.67
20
-62.7832
11
147.619
21
-63.074
0
LINE
8
Black
10
147.619
20
-63.074
11
147.471
21
-63.3296
0
LINE
8
Black
10
147.471
20
-63.3296
11
147.245
21
-63.5194
0
LINE
8
Black
10
147.245
20
-63.5194
11
146.968
21
-63.6203
0
LINE
8
Black
10
146.968
20
-63.6203
11
146.672
21
-63.6203
0
LINE
8
Black
10
146.672
20
-63.6203
11
146.395
21
-63.5194
0
LINE
8
Black
10
146.395
20
-63.5194
11
146.169
21
-63.3296
0
LINE
8
Black
10
146.169
20
-63.3296
11
146.021
21
-63.074
0
LINE
8
Black
10
146.021
20
-63.074
11
145.97
21
-62.7832
0
LINE
8
Black
10
145.97
20
-62.7832
11
145.97
21
-62.7768
0
LINE
8
Black
10
145.97
20
-62.7768
11
146.021
21
-62.486
0
LINE
8
Black
10
146.021
20
-62.486
11
146.169
21
-62.2304
0
LINE
8
Black
10
146.169
20
-62.2304
11
146.395
21
-62.0406
0
LINE
8
Black
10
146.395
20
-62.0406
11
146.672
21
-61.9397
0
LINE
8
Black
10
146.672
20
-61.9397
11
146.968
21
-61.9397
0
LINE
8
Black
10
146.968
20
-61.9397
11
147.245
21
-62.0406
0
LINE
8
Black
10
149.785
20
-62.0406
11
150.011
21
-62.2304
0
LINE
8
Black
10
150.011
20
-62.2304
11
150.159
21
-62.486
0
LINE
8
Black
10
150.159
20
-62.486
11
150.21
21
-62.7768
0
LINE
8
Black
10
150.21
20
-62.7768
11
150.21
21
-62.7832
0
LINE
8
Black
10
150.21
20
-62.7832
11
150.159
21
-63.074
0
LINE
8
Black
10
150.159
20
-63.074
11
150.011
21
-63.3296
0
LINE
8
Black
10
150.011
20
-63.3296
11
149.785
21
-63.5194
0
LINE
8
Black
10
149.785
20
-63.5194
11
149.508
21
-63.6203
0
LINE
8
Black
10
149.508
20
-63.6203
11
149.212
21
-63.6203
0
LINE
8
Black
10
149.212
20
-63.6203
11
148.935
21
-63.5194
0
LINE
8
Black
10
148.935
20
-63.5194
11
148.709
21
-63.3296
0
LINE
8
Black
10
148.709
20
-63.3296
11
148.561
21
-63.074
0
LINE
8
Black
10
148.561
20
-63.074
11
148.51
21
-62.7832
0
LINE
8
Black
10
148.51
20
-62.7832
11
148.51
21
-62.7768
0
LINE
8
Black
10
148.51
20
-62.7768
11
148.561
21
-62.486
0
LINE
8
Black
10
148.561
20
-62.486
11
148.709
21
-62.2304
0
LINE
8
Black
10
148.709
20
-62.2304
11
148.935
21
-62.0406
0
LINE
8
Black
10
148.935
20
-62.0406
11
149.212
21
-61.9397
0
LINE
8
Black
10
149.212
20
-61.9397
11
149.508
21
-61.9397
0
LINE
8
Black
10
149.508
20
-61.9397
11
149.785
21
-62.0406
0
LINE
8
Black
10
173.07
20
-63.62
11
171.37
21
-63.62
0
LINE
8
Black
10
171.37
20
-63.62
11
171.37
21
-61.92
0
LINE
8
Black
10
171.37
20
-61.92
11
173.07
21
-61.92
0
LINE
8
Black
10
173.07
20
-61.92
11
173.07
21
-63.62
0
LINE
8
Black
10
167.565
20
-62.0306
11
167.791
21
-62.2204
0
LINE
8
Black
10
167.791
20
-62.2204
11
167.939
21
-62.476
0
LINE
8
Black
10
167.939
20
-62.476
11
167.99
21
-62.7668
0
LINE
8
Black
10
167.99
20
-62.7668
11
167.99
21
-62.7732
0
LINE
8
Black
10
167.99
20
-62.7732
11
167.939
21
-63.064
0
LINE
8
Black
10
167.939
20
-63.064
11
167.791
21
-63.3196
0
LINE
8
Black
10
167.791
20
-63.3196
11
167.565
21
-63.5094
0
LINE
8
Black
10
167.565
20
-63.5094
11
167.288
21
-63.6103
0
LINE
8
Black
10
167.288
20
-63.6103
11
166.992
21
-63.6103
0
LINE
8
Black
10
166.992
20
-63.6103
11
166.715
21
-63.5094
0
LINE
8
Black
10
166.715
20
-63.5094
11
166.489
21
-63.3196
0
LINE
8
Black
10
166.489
20
-63.3196
11
166.341
21
-63.064
0
LINE
8
Black
10
166.341
20
-63.064
11
166.29
21
-62.7732
0
LINE
8
Black
10
166.29
20
-62.7732
11
166.29
21
-62.7668
0
LINE
8
Black
10
166.29
20
-62.7668
11
166.341
21
-62.476
0
LINE
8
Black
10
166.341
20
-62.476
11
166.489
21
-62.2204
0
LINE
8
Black
10
166.489
20
-62.2204
11
166.715
21
-62.0306
0
LINE
8
Black
10
166.715
20
-62.0306
11
166.992
21
-61.9297
0
LINE
8
Black
10
166.992
20
-61.9297
11
167.288
21
-61.9297
0
LINE
8
Black
10
167.288
20
-61.9297
11
167.565
21
-62.0306
0
LINE
8
Black
10
154.865
20
-62.0306
11
155.091
21
-62.2204
0
LINE
8
Black
10
155.091
20
-62.2204
11
155.239
21
-62.476
0
LINE
8
Black
10
155.239
20
-62.476
11
155.29
21
-62.7668
0
LINE
8
Black
10
155.29
20
-62.7668
11
155.29
21
-62.7732
0
LINE
8
Black
10
155.29
20
-62.7732
11
155.239
21
-63.064
0
LINE
8
Black
10
155.239
20
-63.064
11
155.091
21
-63.3196
0
LINE
8
Black
10
155.091
20
-63.3196
11
154.865
21
-63.5094
0
LINE
8
Black
10
154.865
20
-63.5094
11
154.588
21
-63.6103
0
LINE
8
Black
10
154.588
20
-63.6103
11
154.292
21
-63.6103
0
LINE
8
Black
10
154.292
20
-63.6103
11
154.015
21
-63.5094
0
LINE
8
Black
10
154.015
20
-63.5094
11
153.789
21
-63.3196
0
LINE
8
Black
10
153.789
20
-63.3196
11
153.641
21
-63.064
0
LINE
8
Black
10
153.641
20
-63.064
11
153.59
21
-62.7732
0
LINE
8
Black
10
153.59
20
-62.7732
11
153.59
21
-62.7668
0
LINE
8
Black
10
153.59
20
-62.7668
11
153.641
21
-62.476
0
LINE
8
Black
10
153.641
20
-62.476
11
153.789
21
-62.2204
0
LINE
8
Black
10
153.789
20
-62.2204
11
154.015
21
-62.0306
0
LINE
8
Black
10
154.015
20
-62.0306
11
154.292
21
-61.9297
0
LINE
8
Black
10
154.292
20
-61.9297
11
154.588
21
-61.9297
0
LINE
8
Black
10
154.588
20
-61.9297
11
154.865
21
-62.0306
0
LINE
8
Black
10
157.405
20
-62.0306
11
157.631
21
-62.2204
0
LINE
8
Black
10
157.631
20
-62.2204
11
157.779
21
-62.476
0
LINE
8
Black
10
157.779
20
-62.476
11
157.83
21
-62.7668
0
LINE
8
Black
10
157.83
20
-62.7668
11
157.83
21
-62.7732
0
LINE
8
Black
10
157.83
20
-62.7732
11
157.779
21
-63.064
0
LINE
8
Black
10
157.779
20
-63.064
11
157.631
21
-63.3196
0
LINE
8
Black
10
157.631
20
-63.3196
11
157.405
21
-63.5094
0
LINE
8
Black
10
157.405
20
-63.5094
11
157.128
21
-63.6103
0
LINE
8
Black
10
157.128
20
-63.6103
11
156.832
21
-63.6103
0
LINE
8
Black
10
156.832
20
-63.6103
11
156.555
21
-63.5094
0
LINE
8
Black
10
156.555
20
-63.5094
11
156.329
21
-63.3196
0
LINE
8
Black
10
156.329
20
-63.3196
11
156.181
21
-63.064
0
LINE
8
Black
10
156.181
20
-63.064
11
156.13
21
-62.7732
0
LINE
8
Black
10
156.13
20
-62.7732
11
156.13
21
-62.7668
0
LINE
8
Black
10
156.13
20
-62.7668
11
156.181
21
-62.476
0
LINE
8
Black
10
156.181
20
-62.476
11
156.329
21
-62.2204
0
LINE
8
Black
10
156.329
20
-62.2204
11
156.555
21
-62.0306
0
LINE
8
Black
10
156.555
20
-62.0306
11
156.832
21
-61.9297
0
LINE
8
Black
10
156.832
20
-61.9297
11
157.128
21
-61.9297
0
LINE
8
Black
10
157.128
20
-61.9297
11
157.405
21
-62.0306
0
LINE
8
Black
10
159.945
20
-62.0306
11
160.171
21
-62.2204
0
LINE
8
Black
10
160.171
20
-62.2204
11
160.319
21
-62.476
0
LINE
8
Black
10
160.319
20
-62.476
11
160.37
21
-62.7668
0
LINE
8
Black
10
160.37
20
-62.7668
11
160.37
21
-62.7732
0
LINE
8
Black
10
160.37
20
-62.7732
11
160.319
21
-63.064
0
LINE
8
Black
10
160.319
20
-63.064
11
160.171
21
-63.3196
0
LINE
8
Black
10
160.171
20
-63.3196
11
159.945
21
-63.5094
0
LINE
8
Black
10
159.945
20
-63.5094
11
159.668
21
-63.6103
0
LINE
8
Black
10
159.668
20
-63.6103
11
159.372
21
-63.6103
0
LINE
8
Black
10
159.372
20
-63.6103
11
159.095
21
-63.5094
0
LINE
8
Black
10
159.095
20
-63.5094
11
158.869
21
-63.3196
0
LINE
8
Black
10
158.869
20
-63.3196
11
158.721
21
-63.064
0
LINE
8
Black
10
158.721
20
-63.064
11
158.67
21
-62.7732
0
LINE
8
Black
10
158.67
20
-62.7732
11
158.67
21
-62.7668
0
LINE
8
Black
10
158.67
20
-62.7668
11
158.721
21
-62.476
0
LINE
8
Black
10
158.721
20
-62.476
11
158.869
21
-62.2204
0
LINE
8
Black
10
158.869
20
-62.2204
11
159.095
21
-62.0306
0
LINE
8
Black
10
159.095
20
-62.0306
11
159.372
21
-61.9297
0
LINE
8
Black
10
159.372
20
-61.9297
11
159.668
21
-61.9297
0
LINE
8
Black
10
159.668
20
-61.9297
11
159.945
21
-62.0306
0
LINE
8
Black
10
162.485
20
-62.0306
11
162.711
21
-62.2204
0
LINE
8
Black
10
162.711
20
-62.2204
11
162.859
21
-62.476
0
LINE
8
Black
10
162.859
20
-62.476
11
162.91
21
-62.7668
0
LINE
8
Black
10
162.91
20
-62.7668
11
162.91
21
-62.7732
0
LINE
8
Black
10
162.91
20
-62.7732
11
162.859
21
-63.064
0
LINE
8
Black
10
162.859
20
-63.064
11
162.711
21
-63.3196
0
LINE
8
Black
10
162.711
20
-63.3196
11
162.485
21
-63.5094
0
LINE
8
Black
10
162.485
20
-63.5094
11
162.208
21
-63.6103
0
LINE
8
Black
10
162.208
20
-63.6103
11
161.912
21
-63.6103
0
LINE
8
Black
10
161.912
20
-63.6103
11
161.635
21
-63.5094
0
LINE
8
Black
10
161.635
20
-63.5094
11
161.409
21
-63.3196
0
LINE
8
Black
10
161.409
20
-63.3196
11
161.261
21
-63.064
0
LINE
8
Black
10
161.261
20
-63.064
11
161.21
21
-62.7732
0
LINE
8
Black
10
161.21
20
-62.7732
11
161.21
21
-62.7668
0
LINE
8
Black
10
161.21
20
-62.7668
11
161.261
21
-62.476
0
LINE
8
Black
10
161.261
20
-62.476
11
161.409
21
-62.2204
0
LINE
8
Black
10
161.409
20
-62.2204
11
161.635
21
-62.0306
0
LINE
8
Black
10
161.635
20
-62.0306
11
161.912
21
-61.9297
0
LINE
8
Black
10
161.912
20
-61.9297
11
162.208
21
-61.9297
0
LINE
8
Black
10
162.208
20
-61.9297
11
162.485
21
-62.0306
0
LINE
8
Black
10
165.025
20
-62.0306
11
165.251
21
-62.2204
0
LINE
8
Black
10
165.251
20
-62.2204
11
165.399
21
-62.476
0
LINE
8
Black
10
165.399
20
-62.476
11
165.45
21
-62.7668
0
LINE
8
Black
10
165.45
20
-62.7668
11
165.45
21
-62.7732
0
LINE
8
Black
10
165.45
20
-62.7732
11
165.399
21
-63.064
0
LINE
8
Black
10
165.399
20
-63.064
11
165.251
21
-63.3196
0
LINE
8
Black
10
165.251
20
-63.3196
11
165.025
21
-63.5094
0
LINE
8
Black
10
165.025
20
-63.5094
11
164.748
21
-63.6103
0
LINE
8
Black
10
164.748
20
-63.6103
11
164.452
21
-63.6103
0
LINE
8
Black
10
164.452
20
-63.6103
11
164.175
21
-63.5094
0
LINE
8
Black
10
164.175
20
-63.5094
11
163.949
21
-63.3196
0
LINE
8
Black
10
163.949
20
-63.3196
11
163.801
21
-63.064
0
LINE
8
Black
10
163.801
20
-63.064
11
163.75
21
-62.7732
0
LINE
8
Black
10
163.75
20
-62.7732
11
163.75
21
-62.7668
0
LINE
8
Black
10
163.75
20
-62.7668
11
163.801
21
-62.476
0
LINE
8
Black
10
163.801
20
-62.476
11
163.949
21
-62.2204
0
LINE
8
Black
10
163.949
20
-62.2204
11
164.175
21
-62.0306
0
LINE
8
Black
10
164.175
20
-62.0306
11
164.452
21
-61.9297
0
LINE
8
Black
10
164.452
20
-61.9297
11
164.748
21
-61.9297
0
LINE
8
Black
10
164.748
20
-61.9297
11
165.025
21
-62.0306
0
LINE
8
Black
10
170.105
20
-62.0306
11
170.331
21
-62.2204
0
LINE
8
Black
10
170.331
20
-62.2204
11
170.479
21
-62.476
0
LINE
8
Black
10
170.479
20
-62.476
11
170.53
21
-62.7668
0
LINE
8
Black
10
170.53
20
-62.7668
11
170.53
21
-62.7732
0
LINE
8
Black
10
170.53
20
-62.7732
11
170.479
21
-63.064
0
LINE
8
Black
10
170.479
20
-63.064
11
170.331
21
-63.3196
0
LINE
8
Black
10
170.331
20
-63.3196
11
170.105
21
-63.5094
0
LINE
8
Black
10
170.105
20
-63.5094
11
169.828
21
-63.6103
0
LINE
8
Black
10
169.828
20
-63.6103
11
169.532
21
-63.6103
0
LINE
8
Black
10
169.532
20
-63.6103
11
169.255
21
-63.5094
0
LINE
8
Black
10
169.255
20
-63.5094
11
169.029
21
-63.3196
0
LINE
8
Black
10
169.029
20
-63.3196
11
168.881
21
-63.064
0
LINE
8
Black
10
168.881
20
-63.064
11
168.83
21
-62.7732
0
LINE
8
Black
10
168.83
20
-62.7732
11
168.83
21
-62.7668
0
LINE
8
Black
10
168.83
20
-62.7668
11
168.881
21
-62.476
0
LINE
8
Black
10
168.881
20
-62.476
11
169.029
21
-62.2204
0
LINE
8
Black
10
169.029
20
-62.2204
11
169.255
21
-62.0306
0
LINE
8
Black
10
169.255
20
-62.0306
11
169.532
21
-61.9297
0
LINE
8
Black
10
169.532
20
-61.9297
11
169.828
21
-61.9297
0
LINE
8
Black
10
169.828
20
-61.9297
11
170.105
21
-62.0306
0
LINE
8
Black
10
99.035
20
-63.03
11
98.285
21
-63.03
0
LINE
8
Black
10
98.285
20
-63.03
11
98.285
21
-62.23
0
LINE
8
Black
10
98.285
20
-62.23
11
99.035
21
-62.23
0
LINE
8
Black
10
99.035
20
-62.23
11
99.035
21
-63.03
0
LINE
8
Black
10
96.675
20
-63.03
11
95.925
21
-63.03
0
LINE
8
Black
10
95.925
20
-63.03
11
95.925
21
-62.23
0
LINE
8
Black
10
95.925
20
-62.23
11
96.675
21
-62.23
0
LINE
8
Black
10
96.675
20
-62.23
11
96.675
21
-63.03
0
LINE
8
Black
10
94.13
20
-62.87
11
93.23
21
-62.87
0
LINE
8
Black
10
93.23
20
-62.87
11
93.23
21
-62.37
0
LINE
8
Black
10
93.23
20
-62.37
11
94.13
21
-62.37
0
LINE
8
Black
10
94.13
20
-62.37
11
94.13
21
-62.87
0
LINE
8
Black
10
114.842
20
-61.7984
11
114.993
21
-61.8855
0
LINE
8
Black
10
114.993
20
-61.8855
11
115.105
21
-62.019
0
LINE
8
Black
10
115.105
20
-62.019
11
115.164
21
-62.1828
0
LINE
8
Black
10
115.164
20
-62.1828
11
115.164
21
-62.3572
0
LINE
8
Black
10
115.164
20
-62.3572
11
115.105
21
-62.521
0
LINE
8
Black
10
115.105
20
-62.521
11
114.993
21
-62.6545
0
LINE
8
Black
10
114.993
20
-62.6545
11
114.842
21
-62.7416
0
LINE
8
Black
10
114.842
20
-62.7416
11
114.67
21
-62.7719
0
LINE
8
Black
10
114.67
20
-62.7719
11
114.498
21
-62.7416
0
LINE
8
Black
10
114.498
20
-62.7416
11
114.347
21
-62.6545
0
LINE
8
Black
10
114.347
20
-62.6545
11
114.235
21
-62.521
0
LINE
8
Black
10
114.235
20
-62.521
11
114.176
21
-62.3572
0
LINE
8
Black
10
114.176
20
-62.3572
11
114.176
21
-62.1828
0
LINE
8
Black
10
114.176
20
-62.1828
11
114.235
21
-62.019
0
LINE
8
Black
10
114.235
20
-62.019
11
114.347
21
-61.8855
0
LINE
8
Black
10
114.347
20
-61.8855
11
114.498
21
-61.7984
0
LINE
8
Black
10
114.498
20
-61.7984
11
114.67
21
-61.7681
0
LINE
8
Black
10
114.67
20
-61.7681
11
114.842
21
-61.7984
  0
ENDSEC
  0
EOF
