  0
SECTION
  2
HEADER
  9
$ANGBASE
  50
0.0
  9
$ANGDIR
  70
  1
  9
$MEASUREMENT
  70
0
  0
ENDSEC
  0
SECTION
  2
TABLES
  0
TABLE
  2
LTYPE
  70
4
  0
LTYPE
  5
40F
  2
CONTINUOUS
  70
0
  3
Solid line
  72
65
  73
0
  40
0.0
  0
LTYPE
  5
410
  2
DASHDOT
 70
0
  3
Dash Dot ____ _ ____ _
 72
65
 73
4
 40
2.0
 49
1.25
 49
-0.25
 49
0.25
 49
-0.25
  0
LTYPE
  5
411
  2
DASHED
 70
0
  3
Dashed __ __ __ __ __
 72
65
 73
2
 40
0.75
 49
0.5
 49
-0.25
  0
LTYPE
  5
43B
  2
DOTTED
 70
0
  3
Dotted .  .  .  .
 72
65
 73
2
 40
0.2
 49
0.0
 49
-0.2
  0
ENDTAB
  0
TABLE
  2
STYLE
  70
4
  0
STYLE
  2
KICAD
  70
0
  40
0
  41
1
  42
1
  50
0
  71
0
  3
isocp.shx
  0
STYLE
  2
KICADB
  70
0
  40
0
  41
1
  42
1
  50
0
  71
0
  3
isocp.shx
  0
STYLE
  2
KICADI
  70
0
  40
0
  41
1
  42
1
  50
15
  71
0
  3
isocp.shx
  0
STYLE
  2
KICADBI
  70
0
  40
0
  41
1
  42
1
  50
15
  71
0
  3
isocp.shx
  0
ENDTAB
  0
TABLE
  2
LAYER
  70
30
  0
LAYER
  2
BLACK
  70
0
  62
7
  6
CONTINUOUS
  0
LAYER
  2
GRAY1
  70
0
  62
251
  6
CONTINUOUS
  0
LAYER
  2
GRAY2
  70
0
  62
8
  6
CONTINUOUS
  0
LAYER
  2
GRAY3
  70
0
  62
9
  6
CONTINUOUS
  0
LAYER
  2
WHITE
  70
0
  62
7
  6
CONTINUOUS
  0
LAYER
  2
LYELLOW
  70
0
  62
51
  6
CONTINUOUS
  0
LAYER
  2
BLUE1
  70
0
  62
178
  6
CONTINUOUS
  0
LAYER
  2
GREEN1
  70
0
  62
98
  6
CONTINUOUS
  0
LAYER
  2
CYAN1
  70
0
  62
138
  6
CONTINUOUS
  0
LAYER
  2
RED1
  70
0
  62
18
  6
CONTINUOUS
  0
LAYER
  2
MAGENTA1
  70
0
  62
228
  6
CONTINUOUS
  0
LAYER
  2
BROWN1
  70
0
  62
58
  6
CONTINUOUS
  0
LAYER
  2
BLUE2
  70
0
  62
5
  6
CONTINUOUS
  0
LAYER
  2
GREEN2
  70
0
  62
3
  6
CONTINUOUS
  0
LAYER
  2
CYAN2
  70
0
  62
4
  6
CONTINUOUS
  0
LAYER
  2
RED2
  70
0
  62
1
  6
CONTINUOUS
  0
LAYER
  2
MAGENTA2
  70
0
  62
6
  6
CONTINUOUS
  0
LAYER
  2
BROWN2
  70
0
  62
54
  6
CONTINUOUS
  0
LAYER
  2
BLUE3
  70
0
  62
171
  6
CONTINUOUS
  0
LAYER
  2
GREEN3
  70
0
  62
91
  6
CONTINUOUS
  0
LAYER
  2
CYAN3
  70
0
  62
131
  6
CONTINUOUS
  0
LAYER
  2
RED3
  70
0
  62
11
  6
CONTINUOUS
  0
LAYER
  2
MAGENTA3
  70
0
  62
221
  6
CONTINUOUS
  0
LAYER
  2
YELLOW3
  70
0
  62
2
  6
CONTINUOUS
  0
LAYER
  2
BLUE4
  70
0
  62
5
  6
CONTINUOUS
  0
LAYER
  2
GREEN4
  70
0
  62
3
  6
CONTINUOUS
  0
LAYER
  2
CYAN4
  70
0
  62
4
  6
CONTINUOUS
  0
LAYER
  2
RED4
  70
0
  62
1
  6
CONTINUOUS
  0
LAYER
  2
MAGENTA4
  70
0
  62
6
  6
CONTINUOUS
  0
LAYER
  2
YELLOW4
  70
0
  62
2
  6
CONTINUOUS
  0
ENDTAB
  0
ENDSEC
  0
SECTION
  2
ENTITIES
0
LINE
8
BLACK
6
CONTINUOUS
10
190.009
20
-61.7574
11
190.012
21
-61.7631
0
LINE
8
BLACK
6
CONTINUOUS
10
190.012
20
-61.7631
11
190.016
21
-61.7685
0
LINE
8
BLACK
6
CONTINUOUS
10
190.016
20
-61.7685
11
190.017
21
-61.7707
0
LINE
8
BLACK
6
CONTINUOUS
10
190.017
20
-61.7707
11
190.018
21
-61.7726
0
LINE
8
BLACK
6
CONTINUOUS
10
190.018
20
-61.7726
11
190.019
21
-61.7792
0
LINE
8
BLACK
6
CONTINUOUS
10
190.019
20
-61.7792
11
190.021
21
-61.7856
0
LINE
8
BLACK
6
CONTINUOUS
10
190.021
20
-61.7856
11
190.02
21
-61.7922
0
LINE
8
BLACK
6
CONTINUOUS
10
190.02
20
-61.7922
11
190.02
21
-113.589
0
LINE
8
BLACK
6
CONTINUOUS
10
190.02
20
-113.589
11
190.018
21
-113.593
0
LINE
8
BLACK
6
CONTINUOUS
10
190.018
20
-113.593
11
190.018
21
-113.597
0
LINE
8
BLACK
6
CONTINUOUS
10
190.018
20
-113.597
11
190.015
21
-113.601
0
LINE
8
BLACK
6
CONTINUOUS
10
190.015
20
-113.601
11
190.014
21
-113.605
0
LINE
8
BLACK
6
CONTINUOUS
10
190.014
20
-113.605
11
190.011
21
-113.609
0
LINE
8
BLACK
6
CONTINUOUS
10
190.011
20
-113.609
11
190.009
21
-113.613
0
LINE
8
BLACK
6
CONTINUOUS
10
190.009
20
-113.613
11
190.005
21
-113.615
0
LINE
8
BLACK
6
CONTINUOUS
10
190.005
20
-113.615
11
190.003
21
-113.619
0
LINE
8
BLACK
6
CONTINUOUS
10
190.003
20
-113.619
11
189.999
21
-113.621
0
LINE
8
BLACK
6
CONTINUOUS
10
189.999
20
-113.621
11
189.995
21
-113.624
0
LINE
8
BLACK
6
CONTINUOUS
10
189.995
20
-113.624
11
189.991
21
-113.625
0
LINE
8
BLACK
6
CONTINUOUS
10
189.991
20
-113.625
11
189.987
21
-113.628
0
LINE
8
BLACK
6
CONTINUOUS
10
189.987
20
-113.628
11
189.983
21
-113.628
0
LINE
8
BLACK
6
CONTINUOUS
10
189.983
20
-113.628
11
189.979
21
-113.63
0
LINE
8
BLACK
6
CONTINUOUS
10
189.979
20
-113.63
11
90.9804
21
-113.63
0
LINE
8
BLACK
6
CONTINUOUS
10
90.9804
20
-113.63
11
90.9789
21
-113.633
0
LINE
8
BLACK
6
CONTINUOUS
10
90.9789
20
-113.633
11
90.9654
21
-113.644
0
LINE
8
BLACK
6
CONTINUOUS
10
90.9654
20
-113.644
11
90.9488
21
-113.65
0
LINE
8
BLACK
6
CONTINUOUS
10
90.9488
20
-113.65
11
90.9312
21
-113.65
0
LINE
8
BLACK
6
CONTINUOUS
10
90.9312
20
-113.65
11
90.9146
21
-113.644
0
LINE
8
BLACK
6
CONTINUOUS
10
90.9146
20
-113.644
11
90.9011
21
-113.633
0
LINE
8
BLACK
6
CONTINUOUS
10
90.9011
20
-113.633
11
90.8923
21
-113.617
0
LINE
8
BLACK
6
CONTINUOUS
10
90.8923
20
-113.617
11
90.89
21
-113.604
0
LINE
8
BLACK
6
CONTINUOUS
10
90.89
20
-113.604
11
90.89
21
-113.571
0
LINE
8
BLACK
6
CONTINUOUS
10
90.89
20
-113.571
11
90.89
21
-60.2788
0
LINE
8
BLACK
6
CONTINUOUS
10
90.89
20
-60.2788
11
90.89
21
-60.2788
0
LINE
8
BLACK
6
CONTINUOUS
10
90.89
20
-60.2788
11
90.89
21
-60.2612
0
LINE
8
BLACK
6
CONTINUOUS
10
90.89
20
-60.2612
11
90.8915
21
-60.257
0
LINE
8
BLACK
6
CONTINUOUS
10
90.8915
20
-60.257
11
90.8923
21
-60.2526
0
LINE
8
BLACK
6
CONTINUOUS
10
90.8923
20
-60.2526
11
90.8945
21
-60.2488
0
LINE
8
BLACK
6
CONTINUOUS
10
90.8945
20
-60.2488
11
90.896
21
-60.2446
0
LINE
8
BLACK
6
CONTINUOUS
10
90.896
20
-60.2446
11
90.8989
21
-60.2412
0
LINE
8
BLACK
6
CONTINUOUS
10
90.8989
20
-60.2412
11
90.9011
21
-60.2374
0
LINE
8
BLACK
6
CONTINUOUS
10
90.9011
20
-60.2374
11
90.9045
21
-60.2345
0
LINE
8
BLACK
6
CONTINUOUS
10
90.9045
20
-60.2345
11
90.9074
21
-60.2311
0
LINE
8
BLACK
6
CONTINUOUS
10
90.9074
20
-60.2311
11
90.9112
21
-60.2289
0
LINE
8
BLACK
6
CONTINUOUS
10
90.9112
20
-60.2289
11
90.9146
21
-60.226
0
LINE
8
BLACK
6
CONTINUOUS
10
90.9146
20
-60.226
11
90.9188
21
-60.2245
0
LINE
8
BLACK
6
CONTINUOUS
10
90.9188
20
-60.2245
11
90.9226
21
-60.2223
0
LINE
8
BLACK
6
CONTINUOUS
10
90.9226
20
-60.2223
11
90.927
21
-60.2215
0
LINE
8
BLACK
6
CONTINUOUS
10
90.927
20
-60.2215
11
90.9312
21
-60.22
0
LINE
8
BLACK
6
CONTINUOUS
10
90.9312
20
-60.22
11
90.9644
21
-60.22
0
LINE
8
BLACK
6
CONTINUOUS
10
90.9644
20
-60.22
11
90.965
21
-60.2201
0
LINE
8
BLACK
6
CONTINUOUS
10
90.965
20
-60.2201
11
90.9656
21
-60.22
0
LINE
8
BLACK
6
CONTINUOUS
10
90.9656
20
-60.22
11
188.448
21
-60.22
0
LINE
8
BLACK
6
CONTINUOUS
10
188.448
20
-60.22
11
188.454
21
-60.2194
0
LINE
8
BLACK
6
CONTINUOUS
10
188.454
20
-60.2194
11
188.461
21
-60.2211
0
LINE
8
BLACK
6
CONTINUOUS
10
188.461
20
-60.2211
11
188.467
21
-60.2223
0
LINE
8
BLACK
6
CONTINUOUS
10
188.467
20
-60.2223
11
188.469
21
-60.2234
0
LINE
8
BLACK
6
CONTINUOUS
10
188.469
20
-60.2234
11
188.471
21
-60.224
0
LINE
8
BLACK
6
CONTINUOUS
10
188.471
20
-60.224
11
188.477
21
-60.2278
0
LINE
8
BLACK
6
CONTINUOUS
10
188.477
20
-60.2278
11
188.483
21
-60.2311
0
LINE
8
BLACK
6
CONTINUOUS
10
188.483
20
-60.2311
11
188.487
21
-60.2362
0
LINE
8
BLACK
6
CONTINUOUS
10
188.487
20
-60.2362
11
189.988
21
-61.7377
0
LINE
8
BLACK
6
CONTINUOUS
10
189.988
20
-61.7377
11
189.988
21
-61.7377
0
LINE
8
BLACK
6
CONTINUOUS
10
189.988
20
-61.7377
11
190.004
21
-61.7531
0
LINE
8
BLACK
6
CONTINUOUS
10
190.004
20
-61.7531
11
190.009
21
-61.7574
0
LINE
8
BLACK
6
CONTINUOUS
10
90.99
20
-113.53
11
189.92
21
-113.53
0
LINE
8
BLACK
6
CONTINUOUS
10
189.92
20
-113.53
11
189.92
21
-113.526
0
LINE
8
BLACK
6
CONTINUOUS
10
189.92
20
-113.526
11
189.92
21
-113.526
0
LINE
8
BLACK
6
CONTINUOUS
10
189.92
20
-113.526
11
189.92
21
-61.8107
0
LINE
8
BLACK
6
CONTINUOUS
10
189.92
20
-61.8107
11
189.918
21
-61.8085
0
LINE
8
BLACK
6
CONTINUOUS
10
189.918
20
-61.8085
11
189.918
21
-61.8084
0
LINE
8
BLACK
6
CONTINUOUS
10
189.918
20
-61.8084
11
188.429
21
-60.32
0
LINE
8
BLACK
6
CONTINUOUS
10
188.429
20
-60.32
11
90.99
21
-60.32
0
LINE
8
BLACK
6
CONTINUOUS
10
90.99
20
-60.32
11
90.99
21
-113.53
  0
ENDSEC
  0
EOF
