  0
SECTION
  2
HEADER
  9
$ANGBASE
  50
0.0
  9
$ANGDIR
  70
  1
  9
$MEASUREMENT
  70
0
  0
ENDSEC
  0
SECTION
  2
TABLES
  0
TABLE
  2
LTYPE
  70
1
  0
LTYPE
  2
CONTINUOUS
  70
0
  3
Solid line
  72
65
  73
0
  40
0.0
  0
ENDTAB
  0
TABLE
  2
STYLE
  70
4
  0
STYLE
  2
KICAD
  70
0
  40
0
  41
1
  42
1
  50
0
  71
0
  3
isocp.shx
  0
STYLE
  2
KICADB
  70
0
  40
0
  41
1
  42
1
  50
0
  71
0
  3
isocp.shx
  0
STYLE
  2
KICADI
  70
0
  40
0
  41
1
  42
1
  50
15
  71
0
  3
isocp.shx
  0
STYLE
  2
KICADBI
  70
0
  40
0
  41
1
  42
1
  50
15
  71
0
  3
isocp.shx
  0
ENDTAB
  0
TABLE
  2
LAYER
  70
30
  0
LAYER
  2
BLACK
  70
0
  62
7
  6
CONTINUOUS
  0
LAYER
  2
GRAY1
  70
0
  62
251
  6
CONTINUOUS
  0
LAYER
  2
GRAY2
  70
0
  62
8
  6
CONTINUOUS
  0
LAYER
  2
GRAY3
  70
0
  62
9
  6
CONTINUOUS
  0
LAYER
  2
WHITE
  70
0
  62
7
  6
CONTINUOUS
  0
LAYER
  2
LYELLOW
  70
0
  62
51
  6
CONTINUOUS
  0
LAYER
  2
BLUE1
  70
0
  62
178
  6
CONTINUOUS
  0
LAYER
  2
GREEN1
  70
0
  62
98
  6
CONTINUOUS
  0
LAYER
  2
CYAN1
  70
0
  62
138
  6
CONTINUOUS
  0
LAYER
  2
RED1
  70
0
  62
18
  6
CONTINUOUS
  0
LAYER
  2
MAGENTA1
  70
0
  62
228
  6
CONTINUOUS
  0
LAYER
  2
BROWN1
  70
0
  62
58
  6
CONTINUOUS
  0
LAYER
  2
BLUE2
  70
0
  62
5
  6
CONTINUOUS
  0
LAYER
  2
GREEN2
  70
0
  62
3
  6
CONTINUOUS
  0
LAYER
  2
CYAN2
  70
0
  62
4
  6
CONTINUOUS
  0
LAYER
  2
RED2
  70
0
  62
1
  6
CONTINUOUS
  0
LAYER
  2
MAGENTA2
  70
0
  62
6
  6
CONTINUOUS
  0
LAYER
  2
BROWN2
  70
0
  62
54
  6
CONTINUOUS
  0
LAYER
  2
BLUE3
  70
0
  62
171
  6
CONTINUOUS
  0
LAYER
  2
GREEN3
  70
0
  62
91
  6
CONTINUOUS
  0
LAYER
  2
CYAN3
  70
0
  62
131
  6
CONTINUOUS
  0
LAYER
  2
RED3
  70
0
  62
11
  6
CONTINUOUS
  0
LAYER
  2
MAGENTA3
  70
0
  62
221
  6
CONTINUOUS
  0
LAYER
  2
YELLOW3
  70
0
  62
2
  6
CONTINUOUS
  0
LAYER
  2
BLUE4
  70
0
  62
5
  6
CONTINUOUS
  0
LAYER
  2
GREEN4
  70
0
  62
3
  6
CONTINUOUS
  0
LAYER
  2
CYAN4
  70
0
  62
4
  6
CONTINUOUS
  0
LAYER
  2
RED4
  70
0
  62
1
  6
CONTINUOUS
  0
LAYER
  2
MAGENTA4
  70
0
  62
6
  6
CONTINUOUS
  0
LAYER
  2
YELLOW4
  70
0
  62
2
  6
CONTINUOUS
  0
ENDTAB
  0
ENDSEC
  0
SECTION
  2
ENTITIES
0
LINE
8
Black
10
97.2747
20
-99.1293
11
97.155
21
-99.2297
0
LINE
8
Black
10
97.155
20
-99.2297
11
97.0081
21
-99.2832
0
LINE
8
Black
10
97.0081
20
-99.2832
11
96.8519
21
-99.2832
0
LINE
8
Black
10
96.8519
20
-99.2832
11
96.705
21
-99.2297
0
LINE
8
Black
10
96.705
20
-99.2297
11
96.5853
21
-99.1293
0
LINE
8
Black
10
96.5853
20
-99.1293
11
96.5071
21
-98.9939
0
LINE
8
Black
10
96.5071
20
-98.9939
11
96.48
21
-98.84
0
LINE
8
Black
10
96.48
20
-98.84
11
96.5071
21
-98.6861
0
LINE
8
Black
10
96.5071
20
-98.6861
11
96.5853
21
-98.5507
0
LINE
8
Black
10
96.5853
20
-98.5507
11
96.705
21
-98.4503
0
LINE
8
Black
10
96.705
20
-98.4503
11
96.8519
21
-98.3968
0
LINE
8
Black
10
96.8519
20
-98.3968
11
97.0081
21
-98.3968
0
LINE
8
Black
10
97.0081
20
-98.3968
11
97.155
21
-98.4503
0
LINE
8
Black
10
97.155
20
-98.4503
11
97.2747
21
-98.5507
0
LINE
8
Black
10
97.2747
20
-98.5507
11
97.3529
21
-98.6861
0
LINE
8
Black
10
97.3529
20
-98.6861
11
97.38
21
-98.84
0
LINE
8
Black
10
97.38
20
-98.84
11
97.3529
21
-98.9939
0
LINE
8
Black
10
97.3529
20
-98.9939
11
97.2747
21
-99.1293
0
LINE
8
Black
10
133.785
20
-79.4993
11
133.665
21
-79.5997
0
LINE
8
Black
10
133.665
20
-79.5997
11
133.518
21
-79.6532
0
LINE
8
Black
10
133.518
20
-79.6532
11
133.362
21
-79.6532
0
LINE
8
Black
10
133.362
20
-79.6532
11
133.215
21
-79.5997
0
LINE
8
Black
10
133.215
20
-79.5997
11
133.095
21
-79.4993
0
LINE
8
Black
10
133.095
20
-79.4993
11
133.017
21
-79.3639
0
LINE
8
Black
10
133.017
20
-79.3639
11
132.99
21
-79.21
0
LINE
8
Black
10
132.99
20
-79.21
11
133.017
21
-79.0561
0
LINE
8
Black
10
133.017
20
-79.0561
11
133.095
21
-78.9207
0
LINE
8
Black
10
133.095
20
-78.9207
11
133.215
21
-78.8203
0
LINE
8
Black
10
133.215
20
-78.8203
11
133.362
21
-78.7668
0
LINE
8
Black
10
133.362
20
-78.7668
11
133.518
21
-78.7668
0
LINE
8
Black
10
133.518
20
-78.7668
11
133.665
21
-78.8203
0
LINE
8
Black
10
133.665
20
-78.8203
11
133.785
21
-78.9207
0
LINE
8
Black
10
133.785
20
-78.9207
11
133.863
21
-79.0561
0
LINE
8
Black
10
133.863
20
-79.0561
11
133.89
21
-79.21
0
LINE
8
Black
10
133.89
20
-79.21
11
133.863
21
-79.3639
0
LINE
8
Black
10
133.863
20
-79.3639
11
133.785
21
-79.4993
  0
ENDSEC
  0
EOF
