  0
SECTION
  2
HEADER
  9
$ANGBASE
  50
0.0
  9
$ANGDIR
  70
  1
  9
$MEASUREMENT
  70
0
  0
ENDSEC
  0
SECTION
  2
TABLES
  0
TABLE
  2
LTYPE
  70
1
  0
LTYPE
  2
CONTINUOUS
  70
0
  3
Solid line
  72
65
  73
0
  40
0.0
  0
ENDTAB
  0
TABLE
  2
STYLE
  70
4
  0
STYLE
  2
KICAD
  70
0
  40
0
  41
1
  42
1
  50
0
  71
0
  3
isocp.shx
  0
STYLE
  2
KICADB
  70
0
  40
0
  41
1
  42
1
  50
0
  71
0
  3
isocp.shx
  0
STYLE
  2
KICADI
  70
0
  40
0
  41
1
  42
1
  50
15
  71
0
  3
isocp.shx
  0
STYLE
  2
KICADBI
  70
0
  40
0
  41
1
  42
1
  50
15
  71
0
  3
isocp.shx
  0
ENDTAB
  0
TABLE
  2
LAYER
  70
30
  0
LAYER
  2
BLACK
  70
0
  62
7
  6
CONTINUOUS
  0
LAYER
  2
GRAY1
  70
0
  62
251
  6
CONTINUOUS
  0
LAYER
  2
GRAY2
  70
0
  62
8
  6
CONTINUOUS
  0
LAYER
  2
GRAY3
  70
0
  62
9
  6
CONTINUOUS
  0
LAYER
  2
WHITE
  70
0
  62
7
  6
CONTINUOUS
  0
LAYER
  2
LYELLOW
  70
0
  62
51
  6
CONTINUOUS
  0
LAYER
  2
BLUE1
  70
0
  62
178
  6
CONTINUOUS
  0
LAYER
  2
GREEN1
  70
0
  62
98
  6
CONTINUOUS
  0
LAYER
  2
CYAN1
  70
0
  62
138
  6
CONTINUOUS
  0
LAYER
  2
RED1
  70
0
  62
18
  6
CONTINUOUS
  0
LAYER
  2
MAGENTA1
  70
0
  62
228
  6
CONTINUOUS
  0
LAYER
  2
BROWN1
  70
0
  62
58
  6
CONTINUOUS
  0
LAYER
  2
BLUE2
  70
0
  62
5
  6
CONTINUOUS
  0
LAYER
  2
GREEN2
  70
0
  62
3
  6
CONTINUOUS
  0
LAYER
  2
CYAN2
  70
0
  62
4
  6
CONTINUOUS
  0
LAYER
  2
RED2
  70
0
  62
1
  6
CONTINUOUS
  0
LAYER
  2
MAGENTA2
  70
0
  62
6
  6
CONTINUOUS
  0
LAYER
  2
BROWN2
  70
0
  62
54
  6
CONTINUOUS
  0
LAYER
  2
BLUE3
  70
0
  62
171
  6
CONTINUOUS
  0
LAYER
  2
GREEN3
  70
0
  62
91
  6
CONTINUOUS
  0
LAYER
  2
CYAN3
  70
0
  62
131
  6
CONTINUOUS
  0
LAYER
  2
RED3
  70
0
  62
11
  6
CONTINUOUS
  0
LAYER
  2
MAGENTA3
  70
0
  62
221
  6
CONTINUOUS
  0
LAYER
  2
YELLOW3
  70
0
  62
2
  6
CONTINUOUS
  0
LAYER
  2
BLUE4
  70
0
  62
5
  6
CONTINUOUS
  0
LAYER
  2
GREEN4
  70
0
  62
3
  6
CONTINUOUS
  0
LAYER
  2
CYAN4
  70
0
  62
4
  6
CONTINUOUS
  0
LAYER
  2
RED4
  70
0
  62
1
  6
CONTINUOUS
  0
LAYER
  2
MAGENTA4
  70
0
  62
6
  6
CONTINUOUS
  0
LAYER
  2
YELLOW4
  70
0
  62
2
  6
CONTINUOUS
  0
ENDTAB
  0
ENDSEC
  0
SECTION
  2
ENTITIES
0
LINE
8
Black
10
106.94
20
-97.77
11
105.94
21
-97.77
0
LINE
8
Black
10
105.94
20
-97.77
11
105.94
21
-95.77
0
LINE
8
Black
10
105.94
20
-95.77
11
106.94
21
-95.77
0
LINE
8
Black
10
106.94
20
-95.77
11
106.94
21
-97.77
0
LINE
8
Black
10
104.94
20
-97.77
11
103.94
21
-97.77
0
LINE
8
Black
10
103.94
20
-97.77
11
103.94
21
-95.77
0
LINE
8
Black
10
103.94
20
-95.77
11
104.94
21
-95.77
0
LINE
8
Black
10
104.94
20
-95.77
11
104.94
21
-97.77
0
LINE
8
Black
10
102.94
20
-97.77
11
101.94
21
-97.77
0
LINE
8
Black
10
101.94
20
-97.77
11
101.94
21
-95.77
0
LINE
8
Black
10
101.94
20
-95.77
11
102.94
21
-95.77
0
LINE
8
Black
10
102.94
20
-95.77
11
102.94
21
-97.77
0
LINE
8
Black
10
100.94
20
-97.77
11
99.94
21
-97.77
0
LINE
8
Black
10
99.94
20
-97.77
11
99.94
21
-95.77
0
LINE
8
Black
10
99.94
20
-95.77
11
100.94
21
-95.77
0
LINE
8
Black
10
100.94
20
-95.77
11
100.94
21
-97.77
0
LINE
8
Black
10
98.94
20
-97.77
11
97.94
21
-97.77
0
LINE
8
Black
10
97.94
20
-97.77
11
97.94
21
-95.77
0
LINE
8
Black
10
97.94
20
-95.77
11
98.94
21
-95.77
0
LINE
8
Black
10
98.94
20
-95.77
11
98.94
21
-97.77
0
LINE
8
Black
10
96.94
20
-97.77
11
95.94
21
-97.77
0
LINE
8
Black
10
95.94
20
-97.77
11
95.94
21
-95.77
0
LINE
8
Black
10
95.94
20
-95.77
11
96.94
21
-95.77
0
LINE
8
Black
10
96.94
20
-95.77
11
96.94
21
-97.77
0
LINE
8
Black
10
94.94
20
-97.77
11
93.94
21
-97.77
0
LINE
8
Black
10
93.94
20
-97.77
11
93.94
21
-95.77
0
LINE
8
Black
10
93.94
20
-95.77
11
94.94
21
-95.77
0
LINE
8
Black
10
94.94
20
-95.77
11
94.94
21
-97.77
0
LINE
8
Black
10
92.94
20
-97.77
11
91.94
21
-97.77
0
LINE
8
Black
10
91.94
20
-97.77
11
91.94
21
-95.77
0
LINE
8
Black
10
91.94
20
-95.77
11
92.94
21
-95.77
0
LINE
8
Black
10
92.94
20
-95.77
11
92.94
21
-97.77
0
LINE
8
Black
10
92.94
20
-81.77
11
91.94
21
-81.77
0
LINE
8
Black
10
91.94
20
-81.77
11
91.94
21
-79.77
0
LINE
8
Black
10
91.94
20
-79.77
11
92.94
21
-79.77
0
LINE
8
Black
10
92.94
20
-79.77
11
92.94
21
-81.77
0
LINE
8
Black
10
94.94
20
-81.77
11
93.94
21
-81.77
0
LINE
8
Black
10
93.94
20
-81.77
11
93.94
21
-79.77
0
LINE
8
Black
10
93.94
20
-79.77
11
94.94
21
-79.77
0
LINE
8
Black
10
94.94
20
-79.77
11
94.94
21
-81.77
0
LINE
8
Black
10
96.94
20
-81.77
11
95.94
21
-81.77
0
LINE
8
Black
10
95.94
20
-81.77
11
95.94
21
-79.77
0
LINE
8
Black
10
95.94
20
-79.77
11
96.94
21
-79.77
0
LINE
8
Black
10
96.94
20
-79.77
11
96.94
21
-81.77
0
LINE
8
Black
10
98.94
20
-81.77
11
97.94
21
-81.77
0
LINE
8
Black
10
97.94
20
-81.77
11
97.94
21
-79.77
0
LINE
8
Black
10
97.94
20
-79.77
11
98.94
21
-79.77
0
LINE
8
Black
10
98.94
20
-79.77
11
98.94
21
-81.77
0
LINE
8
Black
10
100.94
20
-81.77
11
99.94
21
-81.77
0
LINE
8
Black
10
99.94
20
-81.77
11
99.94
21
-79.77
0
LINE
8
Black
10
99.94
20
-79.77
11
100.94
21
-79.77
0
LINE
8
Black
10
100.94
20
-79.77
11
100.94
21
-81.77
0
LINE
8
Black
10
102.94
20
-81.77
11
101.94
21
-81.77
0
LINE
8
Black
10
101.94
20
-81.77
11
101.94
21
-79.77
0
LINE
8
Black
10
101.94
20
-79.77
11
102.94
21
-79.77
0
LINE
8
Black
10
102.94
20
-79.77
11
102.94
21
-81.77
0
LINE
8
Black
10
104.94
20
-81.77
11
103.94
21
-81.77
0
LINE
8
Black
10
103.94
20
-81.77
11
103.94
21
-79.77
0
LINE
8
Black
10
103.94
20
-79.77
11
104.94
21
-79.77
0
LINE
8
Black
10
104.94
20
-79.77
11
104.94
21
-81.77
0
LINE
8
Black
10
106.94
20
-81.77
11
105.94
21
-81.77
0
LINE
8
Black
10
105.94
20
-81.77
11
105.94
21
-79.77
0
LINE
8
Black
10
105.94
20
-79.77
11
106.94
21
-79.77
0
LINE
8
Black
10
106.94
20
-79.77
11
106.94
21
-81.77
  0
ENDSEC
  0
EOF
