  0
SECTION
  2
HEADER
  9
$ANGBASE
  50
0.0
  9
$ANGDIR
  70
  1
  9
$MEASUREMENT
  70
0
  0
ENDSEC
  0
SECTION
  2
TABLES
  0
TABLE
  2
LTYPE
  70
1
  0
LTYPE
  2
CONTINUOUS
  70
0
  3
Solid line
  72
65
  73
0
  40
0.0
  0
ENDTAB
  0
TABLE
  2
STYLE
  70
4
  0
STYLE
  2
KICAD
  70
0
  40
0
  41
1
  42
1
  50
0
  71
0
  3
isocp.shx
  0
STYLE
  2
KICADB
  70
0
  40
0
  41
1
  42
1
  50
0
  71
0
  3
isocp.shx
  0
STYLE
  2
KICADI
  70
0
  40
0
  41
1
  42
1
  50
15
  71
0
  3
isocp.shx
  0
STYLE
  2
KICADBI
  70
0
  40
0
  41
1
  42
1
  50
15
  71
0
  3
isocp.shx
  0
ENDTAB
  0
TABLE
  2
LAYER
  70
30
  0
LAYER
  2
BLACK
  70
0
  62
7
  6
CONTINUOUS
  0
LAYER
  2
GRAY1
  70
0
  62
251
  6
CONTINUOUS
  0
LAYER
  2
GRAY2
  70
0
  62
8
  6
CONTINUOUS
  0
LAYER
  2
GRAY3
  70
0
  62
9
  6
CONTINUOUS
  0
LAYER
  2
WHITE
  70
0
  62
7
  6
CONTINUOUS
  0
LAYER
  2
LYELLOW
  70
0
  62
51
  6
CONTINUOUS
  0
LAYER
  2
BLUE1
  70
0
  62
178
  6
CONTINUOUS
  0
LAYER
  2
GREEN1
  70
0
  62
98
  6
CONTINUOUS
  0
LAYER
  2
CYAN1
  70
0
  62
138
  6
CONTINUOUS
  0
LAYER
  2
RED1
  70
0
  62
18
  6
CONTINUOUS
  0
LAYER
  2
MAGENTA1
  70
0
  62
228
  6
CONTINUOUS
  0
LAYER
  2
BROWN1
  70
0
  62
58
  6
CONTINUOUS
  0
LAYER
  2
BLUE2
  70
0
  62
5
  6
CONTINUOUS
  0
LAYER
  2
GREEN2
  70
0
  62
3
  6
CONTINUOUS
  0
LAYER
  2
CYAN2
  70
0
  62
4
  6
CONTINUOUS
  0
LAYER
  2
RED2
  70
0
  62
1
  6
CONTINUOUS
  0
LAYER
  2
MAGENTA2
  70
0
  62
6
  6
CONTINUOUS
  0
LAYER
  2
BROWN2
  70
0
  62
54
  6
CONTINUOUS
  0
LAYER
  2
BLUE3
  70
0
  62
171
  6
CONTINUOUS
  0
LAYER
  2
GREEN3
  70
0
  62
91
  6
CONTINUOUS
  0
LAYER
  2
CYAN3
  70
0
  62
131
  6
CONTINUOUS
  0
LAYER
  2
RED3
  70
0
  62
11
  6
CONTINUOUS
  0
LAYER
  2
MAGENTA3
  70
0
  62
221
  6
CONTINUOUS
  0
LAYER
  2
YELLOW3
  70
0
  62
2
  6
CONTINUOUS
  0
LAYER
  2
BLUE4
  70
0
  62
5
  6
CONTINUOUS
  0
LAYER
  2
GREEN4
  70
0
  62
3
  6
CONTINUOUS
  0
LAYER
  2
CYAN4
  70
0
  62
4
  6
CONTINUOUS
  0
LAYER
  2
RED4
  70
0
  62
1
  6
CONTINUOUS
  0
LAYER
  2
MAGENTA4
  70
0
  62
6
  6
CONTINUOUS
  0
LAYER
  2
YELLOW4
  70
0
  62
2
  6
CONTINUOUS
  0
ENDTAB
  0
ENDSEC
  0
SECTION
  2
ENTITIES
0
LINE
8
Black
10
90.94
20
-60.27
11
90.96
21
-60.27
0
LINE
8
Black
10
90.94
20
-113.58
11
90.94
21
-60.27
0
LINE
8
Black
10
189.97
20
-113.58
11
90.94
21
-113.58
0
LINE
8
Black
10
189.97
20
-113.56
11
189.97
21
-113.58
0
LINE
8
Black
10
189.97
20
-113.55
11
189.97
21
-113.56
0
LINE
8
Black
10
189.97
20
-113.54
11
189.97
21
-113.55
0
LINE
8
Black
10
189.97
20
-113.53
11
189.97
21
-113.54
0
LINE
8
Black
10
189.97
20
-61.79
11
189.97
21
-113.53
0
LINE
8
Black
10
189.96
20
-61.78
11
189.97
21
-61.79
0
LINE
8
Black
10
189.95
20
-61.77
11
189.96
21
-61.78
0
LINE
8
Black
10
188.45
20
-60.27
11
189.95
21
-61.77
0
LINE
8
Black
10
188.44
20
-60.27
11
188.45
21
-60.27
0
LINE
8
Black
10
188.43
20
-60.27
11
188.44
21
-60.27
0
LINE
8
Black
10
188.42
20
-60.27
11
188.43
21
-60.27
0
LINE
8
Black
10
90.97
20
-60.27
11
188.42
21
-60.27
0
LINE
8
Black
10
90.94
20
-113.58
11
90.94
21
-113.6
0
LINE
8
Black
10
92.2868
20
-83.6268
11
92.6932
21
-84.0332
0
LINE
8
Black
10
92.6932
20
-83.6268
11
92.2868
21
-84.0332
0
LINE
8
Black
10
93.5668
20
-73.4468
11
93.9732
21
-73.8532
0
LINE
8
Black
10
93.9732
20
-73.4468
11
93.5668
21
-73.8532
0
LINE
8
Black
10
93.5668
20
-75.7068
11
93.9732
21
-76.1132
0
LINE
8
Black
10
93.9732
20
-75.7068
11
93.5668
21
-76.1132
0
LINE
8
Black
10
94.5368
20
-107.267
11
94.9432
21
-107.673
0
LINE
8
Black
10
94.9432
20
-107.267
11
94.5368
21
-107.673
0
LINE
8
Black
10
96.2468
20
-86.2968
11
96.6532
21
-86.7032
0
LINE
8
Black
10
96.6532
20
-86.2968
11
96.2468
21
-86.7032
0
LINE
8
Black
10
97.2068
20
-70.1568
11
97.6132
21
-70.5632
0
LINE
8
Black
10
97.6132
20
-70.1568
11
97.2068
21
-70.5632
0
LINE
8
Black
10
97.5268
20
-90.9368
11
97.9332
21
-91.3432
0
LINE
8
Black
10
97.9332
20
-90.9368
11
97.5268
21
-91.3432
0
LINE
8
Black
10
98.0268
20
-107.267
11
98.4332
21
-107.673
0
LINE
8
Black
10
98.4332
20
-107.267
11
98.0268
21
-107.673
0
LINE
8
Black
10
99.0468
20
-72.2068
11
99.4532
21
-72.6132
0
LINE
8
Black
10
99.4532
20
-72.2068
11
99.0468
21
-72.6132
0
LINE
8
Black
10
101.307
20
-107.257
11
101.713
21
-107.663
0
LINE
8
Black
10
101.713
20
-107.257
11
101.307
21
-107.663
0
LINE
8
Black
10
101.817
20
-89.6568
11
102.223
21
-90.0632
0
LINE
8
Black
10
102.223
20
-89.6568
11
101.817
21
-90.0632
0
LINE
8
Black
10
102.807
20
-87.9468
11
103.213
21
-88.3532
0
LINE
8
Black
10
103.213
20
-87.9468
11
102.807
21
-88.3532
0
LINE
8
Black
10
103.027
20
-71.1868
11
103.433
21
-71.5932
0
LINE
8
Black
10
103.433
20
-71.1868
11
103.027
21
-71.5932
0
LINE
8
Black
10
103.047
20
-68.3068
11
103.453
21
-68.7132
0
LINE
8
Black
10
103.453
20
-68.3068
11
103.047
21
-68.7132
0
LINE
8
Black
10
103.087
20
-99.2568
11
103.493
21
-99.6632
0
LINE
8
Black
10
103.493
20
-99.2568
11
103.087
21
-99.6632
0
LINE
8
Black
10
103.847
20
-89.6368
11
104.253
21
-90.0432
0
LINE
8
Black
10
104.253
20
-89.6368
11
103.847
21
-90.0432
0
LINE
8
Black
10
105.337
20
-69.5968
11
105.743
21
-70.0032
0
LINE
8
Black
10
105.743
20
-69.5968
11
105.337
21
-70.0032
0
LINE
8
Black
10
105.727
20
-106.347
11
106.133
21
-106.753
0
LINE
8
Black
10
106.133
20
-106.347
11
105.727
21
-106.753
0
LINE
8
Black
10
109.637
20
-81.6468
11
110.043
21
-82.0532
0
LINE
8
Black
10
110.043
20
-81.6468
11
109.637
21
-82.0532
0
LINE
8
Black
10
109.747
20
-73.4868
11
110.153
21
-73.8932
0
LINE
8
Black
10
110.153
20
-73.4868
11
109.747
21
-73.8932
0
LINE
8
Black
10
109.757
20
-80.0068
11
110.163
21
-80.4132
0
LINE
8
Black
10
110.163
20
-80.0068
11
109.757
21
-80.4132
0
LINE
8
Black
10
114.477
20
-102.747
11
114.883
21
-103.153
0
LINE
8
Black
10
114.883
20
-102.747
11
114.477
21
-103.153
0
LINE
8
Black
10
114.767
20
-79.0268
11
115.173
21
-79.4332
0
LINE
8
Black
10
115.173
20
-79.0268
11
114.767
21
-79.4332
0
LINE
8
Black
10
114.787
20
-86.6268
11
115.193
21
-87.0332
0
LINE
8
Black
10
115.193
20
-86.6268
11
114.787
21
-87.0332
0
LINE
8
Black
10
114.787
20
-90.2768
11
115.193
21
-90.6832
0
LINE
8
Black
10
115.193
20
-90.2768
11
114.787
21
-90.6832
0
LINE
8
Black
10
115.177
20
-70.4168
11
115.583
21
-70.8232
0
LINE
8
Black
10
115.583
20
-70.4168
11
115.177
21
-70.8232
0
LINE
8
Black
10
117.877
20
-73.4868
11
118.283
21
-73.8932
0
LINE
8
Black
10
118.283
20
-73.4868
11
117.877
21
-73.8932
0
LINE
8
Black
10
118.897
20
-99.3568
11
119.303
21
-99.7632
0
LINE
8
Black
10
119.303
20
-99.3568
11
118.897
21
-99.7632
0
LINE
8
Black
10
119.157
20
-86.6168
11
119.563
21
-87.0232
0
LINE
8
Black
10
119.563
20
-86.6168
11
119.157
21
-87.0232
0
LINE
8
Black
10
119.157
20
-90.2368
11
119.563
21
-90.6432
0
LINE
8
Black
10
119.563
20
-90.2368
11
119.157
21
-90.6432
0
LINE
8
Black
10
121.927
20
-105.177
11
122.333
21
-105.583
0
LINE
8
Black
10
122.333
20
-105.177
11
121.927
21
-105.583
0
LINE
8
Black
10
122.037
20
-75.0068
11
122.443
21
-75.4132
0
LINE
8
Black
10
122.443
20
-75.0068
11
122.037
21
-75.4132
0
LINE
8
Black
10
122.547
20
-64.3268
11
122.953
21
-64.7332
0
LINE
8
Black
10
122.953
20
-64.3268
11
122.547
21
-64.7332
0
LINE
8
Black
10
125.007
20
-102.967
11
125.413
21
-103.373
0
LINE
8
Black
10
125.413
20
-102.967
11
125.007
21
-103.373
0
LINE
8
Black
10
125.577
20
-97.5568
11
125.983
21
-97.9632
0
LINE
8
Black
10
125.983
20
-97.5568
11
125.577
21
-97.9632
0
LINE
8
Black
10
127.407
20
-65.5568
11
127.813
21
-65.9632
0
LINE
8
Black
10
127.813
20
-65.5568
11
127.407
21
-65.9632
0
LINE
8
Black
10
127.537
20
-74.7368
11
127.943
21
-75.1432
0
LINE
8
Black
10
127.943
20
-74.7368
11
127.537
21
-75.1432
0
LINE
8
Black
10
127.977
20
-102.467
11
128.383
21
-102.873
0
LINE
8
Black
10
128.383
20
-102.467
11
127.977
21
-102.873
0
LINE
8
Black
10
128.697
20
-76.7068
11
129.103
21
-77.1132
0
LINE
8
Black
10
129.103
20
-76.7068
11
128.697
21
-77.1132
0
LINE
8
Black
10
129.387
20
-99.8368
11
129.793
21
-100.243
0
LINE
8
Black
10
129.793
20
-99.8368
11
129.387
21
-100.243
0
LINE
8
Black
10
129.387
20
-103.647
11
129.793
21
-104.053
0
LINE
8
Black
10
129.793
20
-103.647
11
129.387
21
-104.053
0
LINE
8
Black
10
130.357
20
-86.1168
11
130.763
21
-86.5232
0
LINE
8
Black
10
130.763
20
-86.1168
11
130.357
21
-86.5232
0
LINE
8
Black
10
133.857
20
-86.8768
11
134.263
21
-87.2832
0
LINE
8
Black
10
134.263
20
-86.8768
11
133.857
21
-87.2832
0
LINE
8
Black
10
134.447
20
-93.0468
11
134.853
21
-93.4532
0
LINE
8
Black
10
134.853
20
-93.0468
11
134.447
21
-93.4532
0
LINE
8
Black
10
134.847
20
-101.377
11
135.253
21
-101.783
0
LINE
8
Black
10
135.253
20
-101.377
11
134.847
21
-101.783
0
LINE
8
Black
10
135.067
20
-88.3268
11
135.473
21
-88.7332
0
LINE
8
Black
10
135.473
20
-88.3268
11
135.067
21
-88.7332
0
LINE
8
Black
10
135.347
20
-94.1468
11
135.753
21
-94.5532
0
LINE
8
Black
10
135.753
20
-94.1468
11
135.347
21
-94.5532
0
LINE
8
Black
10
135.457
20
-90.9168
11
135.863
21
-91.3232
0
LINE
8
Black
10
135.863
20
-90.9168
11
135.457
21
-91.3232
0
LINE
8
Black
10
135.757
20
-86.8568
11
136.163
21
-87.2632
0
LINE
8
Black
10
136.163
20
-86.8568
11
135.757
21
-87.2632
0
LINE
8
Black
10
135.777
20
-106.197
11
136.183
21
-106.603
0
LINE
8
Black
10
136.183
20
-106.197
11
135.777
21
-106.603
0
LINE
8
Black
10
136.367
20
-93.0968
11
136.773
21
-93.5032
0
LINE
8
Black
10
136.773
20
-93.0968
11
136.367
21
-93.5032
0
LINE
8
Black
10
136.647
20
-73.9068
11
137.053
21
-74.3132
0
LINE
8
Black
10
137.053
20
-73.9068
11
136.647
21
-74.3132
0
LINE
8
Black
10
137.407
20
-70.2868
11
137.813
21
-70.6932
0
LINE
8
Black
10
137.813
20
-70.2868
11
137.407
21
-70.6932
0
LINE
8
Black
10
138.097
20
-87.2168
11
138.503
21
-87.6232
0
LINE
8
Black
10
138.503
20
-87.2168
11
138.097
21
-87.6232
0
LINE
8
Black
10
138.367
20
-102.377
11
138.773
21
-102.783
0
LINE
8
Black
10
138.773
20
-102.377
11
138.367
21
-102.783
0
LINE
8
Black
10
138.377
20
-103.647
11
138.783
21
-104.053
0
LINE
8
Black
10
138.783
20
-103.647
11
138.377
21
-104.053
0
LINE
8
Black
10
138.867
20
-93.8068
11
139.273
21
-94.2132
0
LINE
8
Black
10
139.273
20
-93.8068
11
138.867
21
-94.2132
0
LINE
8
Black
10
139.547
20
-70.2368
11
139.953
21
-70.6432
0
LINE
8
Black
10
139.953
20
-70.2368
11
139.547
21
-70.6432
0
LINE
8
Black
10
139.807
20
-92.9268
11
140.213
21
-93.3332
0
LINE
8
Black
10
140.213
20
-92.9268
11
139.807
21
-93.3332
0
LINE
8
Black
10
139.867
20
-87.4268
11
140.273
21
-87.8332
0
LINE
8
Black
10
140.273
20
-87.4268
11
139.867
21
-87.8332
0
LINE
8
Black
10
140.347
20
-86.0968
11
140.753
21
-86.5032
0
LINE
8
Black
10
140.753
20
-86.0968
11
140.347
21
-86.5032
0
LINE
8
Black
10
141.427
20
-74.4368
11
141.833
21
-74.8432
0
LINE
8
Black
10
141.833
20
-74.4368
11
141.427
21
-74.8432
0
LINE
8
Black
10
141.627
20
-93.9768
11
142.033
21
-94.3832
0
LINE
8
Black
10
142.033
20
-93.9768
11
141.627
21
-94.3832
0
LINE
8
Black
10
141.777
20
-79.9768
11
142.183
21
-80.3832
0
LINE
8
Black
10
142.183
20
-79.9768
11
141.777
21
-80.3832
0
LINE
8
Black
10
142.837
20
-77.1868
11
143.243
21
-77.5932
0
LINE
8
Black
10
143.243
20
-77.1868
11
142.837
21
-77.5932
0
LINE
8
Black
10
143.397
20
-84.5568
11
143.803
21
-84.9632
0
LINE
8
Black
10
143.803
20
-84.5568
11
143.397
21
-84.9632
0
LINE
8
Black
10
143.547
20
-106.017
11
143.953
21
-106.423
0
LINE
8
Black
10
143.953
20
-106.017
11
143.547
21
-106.423
0
LINE
8
Black
10
143.677
20
-96.2368
11
144.083
21
-96.6432
0
LINE
8
Black
10
144.083
20
-96.2368
11
143.677
21
-96.6432
0
LINE
8
Black
10
144.437
20
-83.3868
11
144.843
21
-83.7932
0
LINE
8
Black
10
144.843
20
-83.3868
11
144.437
21
-83.7932
0
LINE
8
Black
10
144.927
20
-85.0168
11
145.333
21
-85.4232
0
LINE
8
Black
10
145.333
20
-85.0168
11
144.927
21
-85.4232
0
LINE
8
Black
10
145.187
20
-68.0368
11
145.593
21
-68.4432
0
LINE
8
Black
10
145.593
20
-68.0368
11
145.187
21
-68.4432
0
LINE
8
Black
10
145.397
20
-89.5968
11
145.803
21
-90.0032
0
LINE
8
Black
10
145.803
20
-89.5968
11
145.397
21
-90.0032
0
LINE
8
Black
10
145.997
20
-77.2168
11
146.403
21
-77.6232
0
LINE
8
Black
10
146.403
20
-77.2168
11
145.997
21
-77.6232
0
LINE
8
Black
10
147.557
20
-77.2168
11
147.963
21
-77.6232
0
LINE
8
Black
10
147.963
20
-77.2168
11
147.557
21
-77.6232
0
LINE
8
Black
10
150.457
20
-84.9368
11
150.863
21
-85.3432
0
LINE
8
Black
10
150.863
20
-84.9368
11
150.457
21
-85.3432
0
LINE
8
Black
10
150.537
20
-89.7168
11
150.943
21
-90.1232
0
LINE
8
Black
10
150.943
20
-89.7168
11
150.537
21
-90.1232
0
LINE
8
Black
10
150.817
20
-77.7868
11
151.223
21
-78.1932
0
LINE
8
Black
10
151.223
20
-77.7868
11
150.817
21
-78.1932
0
LINE
8
Black
10
151.037
20
-82.2568
11
151.443
21
-82.6632
0
LINE
8
Black
10
151.443
20
-82.2568
11
151.037
21
-82.6632
0
LINE
8
Black
10
152.047
20
-69.5968
11
152.453
21
-70.0032
0
LINE
8
Black
10
152.453
20
-69.5968
11
152.047
21
-70.0032
0
LINE
8
Black
10
152.227
20
-93.7868
11
152.633
21
-94.1932
0
LINE
8
Black
10
152.633
20
-93.7868
11
152.227
21
-94.1932
0
LINE
8
Black
10
152.687
20
-87.0668
11
153.093
21
-87.4732
0
LINE
8
Black
10
153.093
20
-87.0668
11
152.687
21
-87.4732
0
LINE
8
Black
10
152.687
20
-100.687
11
153.093
21
-101.093
0
LINE
8
Black
10
153.093
20
-100.687
11
152.687
21
-101.093
0
LINE
8
Black
10
154.507
20
-78.6968
11
154.913
21
-79.1032
0
LINE
8
Black
10
154.913
20
-78.6968
11
154.507
21
-79.1032
0
LINE
8
Black
10
154.517
20
-87.0268
11
154.923
21
-87.4332
0
LINE
8
Black
10
154.923
20
-87.0268
11
154.517
21
-87.4332
0
LINE
8
Black
10
155.107
20
-72.3868
11
155.513
21
-72.7932
0
LINE
8
Black
10
155.513
20
-72.3868
11
155.107
21
-72.7932
0
LINE
8
Black
10
155.217
20
-91.0868
11
155.623
21
-91.4932
0
LINE
8
Black
10
155.623
20
-91.0868
11
155.217
21
-91.4932
0
LINE
8
Black
10
155.397
20
-70.2468
11
155.803
21
-70.6532
0
LINE
8
Black
10
155.803
20
-70.2468
11
155.397
21
-70.6532
0
LINE
8
Black
10
155.847
20
-99.2068
11
156.253
21
-99.6132
0
LINE
8
Black
10
156.253
20
-99.2068
11
155.847
21
-99.6132
0
LINE
8
Black
10
156.027
20
-78.2068
11
156.433
21
-78.6132
0
LINE
8
Black
10
156.433
20
-78.2068
11
156.027
21
-78.6132
0
LINE
8
Black
10
156.707
20
-82.4968
11
157.113
21
-82.9032
0
LINE
8
Black
10
157.113
20
-82.4968
11
156.707
21
-82.9032
0
LINE
8
Black
10
157.687
20
-95.2968
11
158.093
21
-95.7032
0
LINE
8
Black
10
158.093
20
-95.2968
11
157.687
21
-95.7032
0
LINE
8
Black
10
158.127
20
-72.4568
11
158.533
21
-72.8632
0
LINE
8
Black
10
158.533
20
-72.4568
11
158.127
21
-72.8632
0
LINE
8
Black
10
158.807
20
-67.7068
11
159.213
21
-68.1132
0
LINE
8
Black
10
159.213
20
-67.7068
11
158.807
21
-68.1132
0
LINE
8
Black
10
159.987
20
-66.0468
11
160.393
21
-66.4532
0
LINE
8
Black
10
160.393
20
-66.0468
11
159.987
21
-66.4532
0
LINE
8
Black
10
159.987
20
-79.9668
11
160.393
21
-80.3732
0
LINE
8
Black
10
160.393
20
-79.9668
11
159.987
21
-80.3732
0
LINE
8
Black
10
161.347
20
-71.4368
11
161.753
21
-71.8432
0
LINE
8
Black
10
161.753
20
-71.4368
11
161.347
21
-71.8432
0
LINE
8
Black
10
161.967
20
-95.6568
11
162.373
21
-96.0632
0
LINE
8
Black
10
162.373
20
-95.6568
11
161.967
21
-96.0632
0
LINE
8
Black
10
162.007
20
-79.4868
11
162.413
21
-79.8932
0
LINE
8
Black
10
162.413
20
-79.4868
11
162.007
21
-79.8932
0
LINE
8
Black
10
162.557
20
-100.277
11
162.963
21
-100.683
0
LINE
8
Black
10
162.963
20
-100.277
11
162.557
21
-100.683
0
LINE
8
Black
10
163.497
20
-69.8468
11
163.903
21
-70.2532
0
LINE
8
Black
10
163.903
20
-69.8468
11
163.497
21
-70.2532
0
LINE
8
Black
10
165.157
20
-79.8668
11
165.563
21
-80.2732
0
LINE
8
Black
10
165.563
20
-79.8668
11
165.157
21
-80.2732
0
LINE
8
Black
10
167.047
20
-80.7368
11
167.453
21
-81.1432
0
LINE
8
Black
10
167.453
20
-80.7368
11
167.047
21
-81.1432
0
LINE
8
Black
10
167.417
20
-66.0368
11
167.823
21
-66.4432
0
LINE
8
Black
10
167.823
20
-66.0368
11
167.417
21
-66.4432
0
LINE
8
Black
10
167.917
20
-87.4168
11
168.323
21
-87.8232
0
LINE
8
Black
10
168.323
20
-87.4168
11
167.917
21
-87.8232
0
LINE
8
Black
10
167.947
20
-91.2068
11
168.353
21
-91.6132
0
LINE
8
Black
10
168.353
20
-91.2068
11
167.947
21
-91.6132
0
LINE
8
Black
10
167.967
20
-89.9568
11
168.373
21
-90.3632
0
LINE
8
Black
10
168.373
20
-89.9568
11
167.967
21
-90.3632
0
LINE
8
Black
10
167.967
20
-97.9468
11
168.373
21
-98.3532
0
LINE
8
Black
10
168.373
20
-97.9468
11
167.967
21
-98.3532
0
LINE
8
Black
10
167.997
20
-95.4068
11
168.403
21
-95.8132
0
LINE
8
Black
10
168.403
20
-95.4068
11
167.997
21
-95.8132
0
LINE
8
Black
10
167.997
20
-96.6568
11
168.403
21
-97.0632
0
LINE
8
Black
10
168.403
20
-96.6568
11
167.997
21
-97.0632
0
LINE
8
Black
10
169.697
20
-71.1168
11
170.103
21
-71.5232
0
LINE
8
Black
10
170.103
20
-71.1168
11
169.697
21
-71.5232
0
LINE
8
Black
10
170.167
20
-93.3368
11
170.573
21
-93.7432
0
LINE
8
Black
10
170.573
20
-93.3368
11
170.167
21
-93.7432
0
LINE
8
Black
10
171.237
20
-85.9268
11
171.643
21
-86.3332
0
LINE
8
Black
10
171.643
20
-85.9268
11
171.237
21
-86.3332
0
LINE
8
Black
10
171.947
20
-105.147
11
172.353
21
-105.553
0
LINE
8
Black
10
172.353
20
-105.147
11
171.947
21
-105.553
0
LINE
8
Black
10
172.557
20
-82.2568
11
172.963
21
-82.6632
0
LINE
8
Black
10
172.963
20
-82.2568
11
172.557
21
-82.6632
0
LINE
8
Black
10
172.857
20
-68.5768
11
173.263
21
-68.9832
0
LINE
8
Black
10
173.263
20
-68.5768
11
172.857
21
-68.9832
0
LINE
8
Black
10
173.087
20
-71.1168
11
173.493
21
-71.5232
0
LINE
8
Black
10
173.493
20
-71.1168
11
173.087
21
-71.5232
0
LINE
8
Black
10
173.167
20
-86.2268
11
173.573
21
-86.6332
0
LINE
8
Black
10
173.573
20
-86.2268
11
173.167
21
-86.6332
0
LINE
8
Black
10
174.147
20
-92.4468
11
174.553
21
-92.8532
0
LINE
8
Black
10
174.553
20
-92.4468
11
174.147
21
-92.8532
0
LINE
8
Black
10
174.587
20
-105.107
11
174.993
21
-105.513
0
LINE
8
Black
10
174.993
20
-105.107
11
174.587
21
-105.513
0
LINE
8
Black
10
174.897
20
-89.9468
11
175.303
21
-90.3532
0
LINE
8
Black
10
175.303
20
-89.9468
11
174.897
21
-90.3532
0
LINE
8
Black
10
177.007
20
-105.057
11
177.413
21
-105.463
0
LINE
8
Black
10
177.413
20
-105.057
11
177.007
21
-105.463
0
LINE
8
Black
10
179.627
20
-105.077
11
180.033
21
-105.483
0
LINE
8
Black
10
180.033
20
-105.077
11
179.627
21
-105.483
0
LINE
8
Black
10
179.727
20
-68.3968
11
180.133
21
-68.8032
0
LINE
8
Black
10
180.133
20
-68.3968
11
179.727
21
-68.8032
0
LINE
8
Black
10
180.397
20
-96.7968
11
180.803
21
-97.2032
0
LINE
8
Black
10
180.803
20
-96.7968
11
180.397
21
-97.2032
0
LINE
8
Black
10
180.397
20
-99.3968
11
180.803
21
-99.8032
0
LINE
8
Black
10
180.803
20
-99.3968
11
180.397
21
-99.8032
0
LINE
8
Black
10
180.897
20
-89.9368
11
181.303
21
-90.3432
0
LINE
8
Black
10
181.303
20
-89.9368
11
180.897
21
-90.3432
0
CIRCLE
8
Black
10
95.7
20
-72.425
40
0.325
0
LINE
8
Black
10
95.6
20
-72.75
11
95.8
21
-72.75
0
LINE
8
Black
10
95.6
20
-72.1
11
95.8
21
-72.1
0
ARC
8
Black
10
95.8
20
-72.425
40
0.325
50
270
51
450
0
ARC
8
Black
10
95.6
20
-72.425
40
0.325
50
90
51
270
0
CIRCLE
8
Black
10
95.7
20
-77.275
40
0.325
0
LINE
8
Black
10
95.6
20
-77.6
11
95.8
21
-77.6
0
LINE
8
Black
10
95.6
20
-76.95
11
95.8
21
-76.95
0
ARC
8
Black
10
95.8
20
-77.275
40
0.325
50
270
51
450
0
ARC
8
Black
10
95.6
20
-77.275
40
0.325
50
90
51
270
0
LINE
8
Black
10
92.7
20
-70.8812
11
92.7
21
-71.7062
0
LINE
8
Black
10
92.2875
20
-71.2938
11
93.1125
21
-71.2938
0
LINE
8
Black
10
92.3625
20
-71.7062
11
93.0375
21
-71.7062
0
LINE
8
Black
10
92.3625
20
-70.8812
11
93.0375
21
-70.8812
0
ARC
8
Black
10
93.0375
20
-71.2938
40
0.4125
50
270
51
450
0
ARC
8
Black
10
92.3625
20
-71.2938
40
0.4125
50
90
51
270
0
LINE
8
Black
10
92.7
20
-77.9937
11
92.7
21
-78.8187
0
LINE
8
Black
10
92.2875
20
-78.4062
11
93.1125
21
-78.4062
0
LINE
8
Black
10
92.3625
20
-78.8187
11
93.0375
21
-78.8187
0
LINE
8
Black
10
92.3625
20
-77.9937
11
93.0375
21
-77.9937
0
ARC
8
Black
10
93.0375
20
-78.4062
40
0.4125
50
270
51
450
0
ARC
8
Black
10
92.3625
20
-78.4062
40
0.4125
50
90
51
270
0
LINE
8
Black
10
116.174
20
-94.6936
11
116.174
21
-93.9864
0
LINE
8
Black
10
116.174
20
-93.9864
11
115.466
21
-93.9864
0
LINE
8
Black
10
115.466
20
-93.9864
11
115.466
21
-94.6936
0
LINE
8
Black
10
115.466
20
-94.6936
11
116.174
21
-94.6936
0
LINE
8
Black
10
118.714
20
-94.6936
11
118.714
21
-93.9864
0
LINE
8
Black
10
118.714
20
-93.9864
11
118.006
21
-93.9864
0
LINE
8
Black
10
118.006
20
-93.9864
11
118.006
21
-94.6936
0
LINE
8
Black
10
118.006
20
-94.6936
11
118.714
21
-94.6936
0
LINE
8
Black
10
119.234
20
-111.444
11
119.234
21
-110.736
0
LINE
8
Black
10
119.234
20
-110.736
11
118.526
21
-110.736
0
LINE
8
Black
10
118.526
20
-110.736
11
118.526
21
-111.444
0
LINE
8
Black
10
118.526
20
-111.444
11
119.234
21
-111.444
0
LINE
8
Black
10
121.254
20
-94.6936
11
121.254
21
-93.9864
0
LINE
8
Black
10
121.254
20
-93.9864
11
120.546
21
-93.9864
0
LINE
8
Black
10
120.546
20
-93.9864
11
120.546
21
-94.6936
0
LINE
8
Black
10
120.546
20
-94.6936
11
121.254
21
-94.6936
0
LINE
8
Black
10
121.774
20
-111.444
11
121.774
21
-110.736
0
LINE
8
Black
10
121.774
20
-110.736
11
121.066
21
-110.736
0
LINE
8
Black
10
121.066
20
-110.736
11
121.066
21
-111.444
0
LINE
8
Black
10
121.066
20
-111.444
11
121.774
21
-111.444
0
LINE
8
Black
10
123.794
20
-94.6936
11
123.794
21
-93.9864
0
LINE
8
Black
10
123.794
20
-93.9864
11
123.086
21
-93.9864
0
LINE
8
Black
10
123.086
20
-93.9864
11
123.086
21
-94.6936
0
LINE
8
Black
10
123.086
20
-94.6936
11
123.794
21
-94.6936
0
LINE
8
Black
10
124.314
20
-111.444
11
124.314
21
-110.736
0
LINE
8
Black
10
124.314
20
-110.736
11
123.606
21
-110.736
0
LINE
8
Black
10
123.606
20
-110.736
11
123.606
21
-111.444
0
LINE
8
Black
10
123.606
20
-111.444
11
124.314
21
-111.444
0
LINE
8
Black
10
125.524
20
-77.3036
11
125.524
21
-76.5964
0
LINE
8
Black
10
125.524
20
-76.5964
11
124.816
21
-76.5964
0
LINE
8
Black
10
124.816
20
-76.5964
11
124.816
21
-77.3036
0
LINE
8
Black
10
124.816
20
-77.3036
11
125.524
21
-77.3036
0
LINE
8
Black
10
125.524
20
-79.8436
11
125.524
21
-79.1364
0
LINE
8
Black
10
125.524
20
-79.1364
11
124.816
21
-79.1364
0
LINE
8
Black
10
124.816
20
-79.1364
11
124.816
21
-79.8436
0
LINE
8
Black
10
124.816
20
-79.8436
11
125.524
21
-79.8436
0
LINE
8
Black
10
125.524
20
-82.3836
11
125.524
21
-81.6764
0
LINE
8
Black
10
125.524
20
-81.6764
11
124.816
21
-81.6764
0
LINE
8
Black
10
124.816
20
-81.6764
11
124.816
21
-82.3836
0
LINE
8
Black
10
124.816
20
-82.3836
11
125.524
21
-82.3836
0
LINE
8
Black
10
125.524
20
-84.9236
11
125.524
21
-84.2164
0
LINE
8
Black
10
125.524
20
-84.2164
11
124.816
21
-84.2164
0
LINE
8
Black
10
124.816
20
-84.2164
11
124.816
21
-84.9236
0
LINE
8
Black
10
124.816
20
-84.9236
11
125.524
21
-84.9236
0
LINE
8
Black
10
125.524
20
-87.4636
11
125.524
21
-86.7564
0
LINE
8
Black
10
125.524
20
-86.7564
11
124.816
21
-86.7564
0
LINE
8
Black
10
124.816
20
-86.7564
11
124.816
21
-87.4636
0
LINE
8
Black
10
124.816
20
-87.4636
11
125.524
21
-87.4636
0
LINE
8
Black
10
125.524
20
-90.0036
11
125.524
21
-89.2964
0
LINE
8
Black
10
125.524
20
-89.2964
11
124.816
21
-89.2964
0
LINE
8
Black
10
124.816
20
-89.2964
11
124.816
21
-90.0036
0
LINE
8
Black
10
124.816
20
-90.0036
11
125.524
21
-90.0036
0
LINE
8
Black
10
126.334
20
-94.6936
11
126.334
21
-93.9864
0
LINE
8
Black
10
126.334
20
-93.9864
11
125.626
21
-93.9864
0
LINE
8
Black
10
125.626
20
-93.9864
11
125.626
21
-94.6936
0
LINE
8
Black
10
125.626
20
-94.6936
11
126.334
21
-94.6936
0
LINE
8
Black
10
126.854
20
-111.444
11
126.854
21
-110.736
0
LINE
8
Black
10
126.854
20
-110.736
11
126.146
21
-110.736
0
LINE
8
Black
10
126.146
20
-110.736
11
126.146
21
-111.444
0
LINE
8
Black
10
126.146
20
-111.444
11
126.854
21
-111.444
0
LINE
8
Black
10
128.874
20
-94.6936
11
128.874
21
-93.9864
0
LINE
8
Black
10
128.874
20
-93.9864
11
128.166
21
-93.9864
0
LINE
8
Black
10
128.166
20
-93.9864
11
128.166
21
-94.6936
0
LINE
8
Black
10
128.166
20
-94.6936
11
128.874
21
-94.6936
0
LINE
8
Black
10
129.384
20
-63.1436
11
129.384
21
-62.4364
0
LINE
8
Black
10
129.384
20
-62.4364
11
128.676
21
-62.4364
0
LINE
8
Black
10
128.676
20
-62.4364
11
128.676
21
-63.1436
0
LINE
8
Black
10
128.676
20
-63.1436
11
129.384
21
-63.1436
0
LINE
8
Black
10
129.394
20
-111.444
11
129.394
21
-110.736
0
LINE
8
Black
10
129.394
20
-110.736
11
128.686
21
-110.736
0
LINE
8
Black
10
128.686
20
-110.736
11
128.686
21
-111.444
0
LINE
8
Black
10
128.686
20
-111.444
11
129.394
21
-111.444
0
LINE
8
Black
10
131.924
20
-63.1436
11
131.924
21
-62.4364
0
LINE
8
Black
10
131.924
20
-62.4364
11
131.216
21
-62.4364
0
LINE
8
Black
10
131.216
20
-62.4364
11
131.216
21
-63.1436
0
LINE
8
Black
10
131.216
20
-63.1436
11
131.924
21
-63.1436
0
LINE
8
Black
10
131.934
20
-111.444
11
131.934
21
-110.736
0
LINE
8
Black
10
131.934
20
-110.736
11
131.226
21
-110.736
0
LINE
8
Black
10
131.226
20
-110.736
11
131.226
21
-111.444
0
LINE
8
Black
10
131.226
20
-111.444
11
131.934
21
-111.444
0
LINE
8
Black
10
134.464
20
-63.1436
11
134.464
21
-62.4364
0
LINE
8
Black
10
134.464
20
-62.4364
11
133.756
21
-62.4364
0
LINE
8
Black
10
133.756
20
-62.4364
11
133.756
21
-63.1436
0
LINE
8
Black
10
133.756
20
-63.1436
11
134.464
21
-63.1436
0
LINE
8
Black
10
134.474
20
-111.444
11
134.474
21
-110.736
0
LINE
8
Black
10
134.474
20
-110.736
11
133.766
21
-110.736
0
LINE
8
Black
10
133.766
20
-110.736
11
133.766
21
-111.444
0
LINE
8
Black
10
133.766
20
-111.444
11
134.474
21
-111.444
0
LINE
8
Black
10
137.004
20
-63.1436
11
137.004
21
-62.4364
0
LINE
8
Black
10
137.004
20
-62.4364
11
136.296
21
-62.4364
0
LINE
8
Black
10
136.296
20
-62.4364
11
136.296
21
-63.1436
0
LINE
8
Black
10
136.296
20
-63.1436
11
137.004
21
-63.1436
0
LINE
8
Black
10
139.554
20
-111.394
11
139.554
21
-110.686
0
LINE
8
Black
10
139.554
20
-110.686
11
138.846
21
-110.686
0
LINE
8
Black
10
138.846
20
-110.686
11
138.846
21
-111.394
0
LINE
8
Black
10
138.846
20
-111.394
11
139.554
21
-111.394
0
LINE
8
Black
10
142.094
20
-63.1336
11
142.094
21
-62.4264
0
LINE
8
Black
10
142.094
20
-62.4264
11
141.386
21
-62.4264
0
LINE
8
Black
10
141.386
20
-62.4264
11
141.386
21
-63.1336
0
LINE
8
Black
10
141.386
20
-63.1336
11
142.094
21
-63.1336
0
LINE
8
Black
10
142.094
20
-111.394
11
142.094
21
-110.686
0
LINE
8
Black
10
142.094
20
-110.686
11
141.386
21
-110.686
0
LINE
8
Black
10
141.386
20
-110.686
11
141.386
21
-111.394
0
LINE
8
Black
10
141.386
20
-111.394
11
142.094
21
-111.394
0
LINE
8
Black
10
144.634
20
-63.1336
11
144.634
21
-62.4264
0
LINE
8
Black
10
144.634
20
-62.4264
11
143.926
21
-62.4264
0
LINE
8
Black
10
143.926
20
-62.4264
11
143.926
21
-63.1336
0
LINE
8
Black
10
143.926
20
-63.1336
11
144.634
21
-63.1336
0
LINE
8
Black
10
144.634
20
-111.394
11
144.634
21
-110.686
0
LINE
8
Black
10
144.634
20
-110.686
11
143.926
21
-110.686
0
LINE
8
Black
10
143.926
20
-110.686
11
143.926
21
-111.394
0
LINE
8
Black
10
143.926
20
-111.394
11
144.634
21
-111.394
0
LINE
8
Black
10
147.174
20
-63.1336
11
147.174
21
-62.4264
0
LINE
8
Black
10
147.174
20
-62.4264
11
146.466
21
-62.4264
0
LINE
8
Black
10
146.466
20
-62.4264
11
146.466
21
-63.1336
0
LINE
8
Black
10
146.466
20
-63.1336
11
147.174
21
-63.1336
0
LINE
8
Black
10
147.174
20
-111.394
11
147.174
21
-110.686
0
LINE
8
Black
10
147.174
20
-110.686
11
146.466
21
-110.686
0
LINE
8
Black
10
146.466
20
-110.686
11
146.466
21
-111.394
0
LINE
8
Black
10
146.466
20
-111.394
11
147.174
21
-111.394
0
LINE
8
Black
10
149.714
20
-63.1336
11
149.714
21
-62.4264
0
LINE
8
Black
10
149.714
20
-62.4264
11
149.006
21
-62.4264
0
LINE
8
Black
10
149.006
20
-62.4264
11
149.006
21
-63.1336
0
LINE
8
Black
10
149.006
20
-63.1336
11
149.714
21
-63.1336
0
LINE
8
Black
10
149.714
20
-111.394
11
149.714
21
-110.686
0
LINE
8
Black
10
149.714
20
-110.686
11
149.006
21
-110.686
0
LINE
8
Black
10
149.006
20
-110.686
11
149.006
21
-111.394
0
LINE
8
Black
10
149.006
20
-111.394
11
149.714
21
-111.394
0
LINE
8
Black
10
152.254
20
-111.394
11
152.254
21
-110.686
0
LINE
8
Black
10
152.254
20
-110.686
11
151.546
21
-110.686
0
LINE
8
Black
10
151.546
20
-110.686
11
151.546
21
-111.394
0
LINE
8
Black
10
151.546
20
-111.394
11
152.254
21
-111.394
0
LINE
8
Black
10
154.794
20
-63.1236
11
154.794
21
-62.4164
0
LINE
8
Black
10
154.794
20
-62.4164
11
154.086
21
-62.4164
0
LINE
8
Black
10
154.086
20
-62.4164
11
154.086
21
-63.1236
0
LINE
8
Black
10
154.086
20
-63.1236
11
154.794
21
-63.1236
0
LINE
8
Black
10
154.794
20
-111.394
11
154.794
21
-110.686
0
LINE
8
Black
10
154.794
20
-110.686
11
154.086
21
-110.686
0
LINE
8
Black
10
154.086
20
-110.686
11
154.086
21
-111.394
0
LINE
8
Black
10
154.086
20
-111.394
11
154.794
21
-111.394
0
LINE
8
Black
10
157.334
20
-63.1236
11
157.334
21
-62.4164
0
LINE
8
Black
10
157.334
20
-62.4164
11
156.626
21
-62.4164
0
LINE
8
Black
10
156.626
20
-62.4164
11
156.626
21
-63.1236
0
LINE
8
Black
10
156.626
20
-63.1236
11
157.334
21
-63.1236
0
LINE
8
Black
10
157.334
20
-111.394
11
157.334
21
-110.686
0
LINE
8
Black
10
157.334
20
-110.686
11
156.626
21
-110.686
0
LINE
8
Black
10
156.626
20
-110.686
11
156.626
21
-111.394
0
LINE
8
Black
10
156.626
20
-111.394
11
157.334
21
-111.394
0
LINE
8
Black
10
159.874
20
-63.1236
11
159.874
21
-62.4164
0
LINE
8
Black
10
159.874
20
-62.4164
11
159.166
21
-62.4164
0
LINE
8
Black
10
159.166
20
-62.4164
11
159.166
21
-63.1236
0
LINE
8
Black
10
159.166
20
-63.1236
11
159.874
21
-63.1236
0
LINE
8
Black
10
159.874
20
-111.394
11
159.874
21
-110.686
0
LINE
8
Black
10
159.874
20
-110.686
11
159.166
21
-110.686
0
LINE
8
Black
10
159.166
20
-110.686
11
159.166
21
-111.394
0
LINE
8
Black
10
159.166
20
-111.394
11
159.874
21
-111.394
0
LINE
8
Black
10
162.414
20
-63.1236
11
162.414
21
-62.4164
0
LINE
8
Black
10
162.414
20
-62.4164
11
161.706
21
-62.4164
0
LINE
8
Black
10
161.706
20
-62.4164
11
161.706
21
-63.1236
0
LINE
8
Black
10
161.706
20
-63.1236
11
162.414
21
-63.1236
0
LINE
8
Black
10
162.414
20
-111.394
11
162.414
21
-110.686
0
LINE
8
Black
10
162.414
20
-110.686
11
161.706
21
-110.686
0
LINE
8
Black
10
161.706
20
-110.686
11
161.706
21
-111.394
0
LINE
8
Black
10
161.706
20
-111.394
11
162.414
21
-111.394
0
LINE
8
Black
10
164.954
20
-63.1236
11
164.954
21
-62.4164
0
LINE
8
Black
10
164.954
20
-62.4164
11
164.246
21
-62.4164
0
LINE
8
Black
10
164.246
20
-62.4164
11
164.246
21
-63.1236
0
LINE
8
Black
10
164.246
20
-63.1236
11
164.954
21
-63.1236
0
LINE
8
Black
10
164.954
20
-111.394
11
164.954
21
-110.686
0
LINE
8
Black
10
164.954
20
-110.686
11
164.246
21
-110.686
0
LINE
8
Black
10
164.246
20
-110.686
11
164.246
21
-111.394
0
LINE
8
Black
10
164.246
20
-111.394
11
164.954
21
-111.394
0
LINE
8
Black
10
167.494
20
-63.1236
11
167.494
21
-62.4164
0
LINE
8
Black
10
167.494
20
-62.4164
11
166.786
21
-62.4164
0
LINE
8
Black
10
166.786
20
-62.4164
11
166.786
21
-63.1236
0
LINE
8
Black
10
166.786
20
-63.1236
11
167.494
21
-63.1236
0
LINE
8
Black
10
167.494
20
-111.394
11
167.494
21
-110.686
0
LINE
8
Black
10
167.494
20
-110.686
11
166.786
21
-110.686
0
LINE
8
Black
10
166.786
20
-110.686
11
166.786
21
-111.394
0
LINE
8
Black
10
166.786
20
-111.394
11
167.494
21
-111.394
0
LINE
8
Black
10
170.034
20
-63.1236
11
170.034
21
-62.4164
0
LINE
8
Black
10
170.034
20
-62.4164
11
169.326
21
-62.4164
0
LINE
8
Black
10
169.326
20
-62.4164
11
169.326
21
-63.1236
0
LINE
8
Black
10
169.326
20
-63.1236
11
170.034
21
-63.1236
0
LINE
8
Black
10
172.574
20
-63.1236
11
172.574
21
-62.4164
0
LINE
8
Black
10
172.574
20
-62.4164
11
171.866
21
-62.4164
0
LINE
8
Black
10
171.866
20
-62.4164
11
171.866
21
-63.1236
0
LINE
8
Black
10
171.866
20
-63.1236
11
172.574
21
-63.1236
0
LINE
8
Black
10
172.574
20
-111.394
11
172.574
21
-110.686
0
LINE
8
Black
10
172.574
20
-110.686
11
171.866
21
-110.686
0
LINE
8
Black
10
171.866
20
-110.686
11
171.866
21
-111.394
0
LINE
8
Black
10
171.866
20
-111.394
11
172.574
21
-111.394
0
LINE
8
Black
10
175.114
20
-111.394
11
175.114
21
-110.686
0
LINE
8
Black
10
175.114
20
-110.686
11
174.406
21
-110.686
0
LINE
8
Black
10
174.406
20
-110.686
11
174.406
21
-111.394
0
LINE
8
Black
10
174.406
20
-111.394
11
175.114
21
-111.394
0
LINE
8
Black
10
177.654
20
-111.394
11
177.654
21
-110.686
0
LINE
8
Black
10
177.654
20
-110.686
11
176.946
21
-110.686
0
LINE
8
Black
10
176.946
20
-110.686
11
176.946
21
-111.394
0
LINE
8
Black
10
176.946
20
-111.394
11
177.654
21
-111.394
0
LINE
8
Black
10
180.194
20
-111.394
11
180.194
21
-110.686
0
LINE
8
Black
10
180.194
20
-110.686
11
179.486
21
-110.686
0
LINE
8
Black
10
179.486
20
-110.686
11
179.486
21
-111.394
0
LINE
8
Black
10
179.486
20
-111.394
11
180.194
21
-111.394
0
LINE
8
Black
10
185.244
20
-70.7636
11
185.244
21
-70.0564
0
LINE
8
Black
10
185.244
20
-70.0564
11
184.536
21
-70.0564
0
LINE
8
Black
10
184.536
20
-70.0564
11
184.536
21
-70.7636
0
LINE
8
Black
10
184.536
20
-70.7636
11
185.244
21
-70.7636
0
LINE
8
Black
10
185.244
20
-73.3036
11
185.244
21
-72.5964
0
LINE
8
Black
10
185.244
20
-72.5964
11
184.536
21
-72.5964
0
LINE
8
Black
10
184.536
20
-72.5964
11
184.536
21
-73.3036
0
LINE
8
Black
10
184.536
20
-73.3036
11
185.244
21
-73.3036
0
LINE
8
Black
10
185.244
20
-75.8436
11
185.244
21
-75.1364
0
LINE
8
Black
10
185.244
20
-75.1364
11
184.536
21
-75.1364
0
LINE
8
Black
10
184.536
20
-75.1364
11
184.536
21
-75.8436
0
LINE
8
Black
10
184.536
20
-75.8436
11
185.244
21
-75.8436
0
LINE
8
Black
10
185.244
20
-78.3836
11
185.244
21
-77.6764
0
LINE
8
Black
10
185.244
20
-77.6764
11
184.536
21
-77.6764
0
LINE
8
Black
10
184.536
20
-77.6764
11
184.536
21
-78.3836
0
LINE
8
Black
10
184.536
20
-78.3836
11
185.244
21
-78.3836
0
LINE
8
Black
10
185.244
20
-80.9236
11
185.244
21
-80.2164
0
LINE
8
Black
10
185.244
20
-80.2164
11
184.536
21
-80.2164
0
LINE
8
Black
10
184.536
20
-80.2164
11
184.536
21
-80.9236
0
LINE
8
Black
10
184.536
20
-80.9236
11
185.244
21
-80.9236
0
LINE
8
Black
10
185.244
20
-83.4636
11
185.244
21
-82.7564
0
LINE
8
Black
10
185.244
20
-82.7564
11
184.536
21
-82.7564
0
LINE
8
Black
10
184.536
20
-82.7564
11
184.536
21
-83.4636
0
LINE
8
Black
10
184.536
20
-83.4636
11
185.244
21
-83.4636
0
LINE
8
Black
10
185.244
20
-86.0036
11
185.244
21
-85.2964
0
LINE
8
Black
10
185.244
20
-85.2964
11
184.536
21
-85.2964
0
LINE
8
Black
10
184.536
20
-85.2964
11
184.536
21
-86.0036
0
LINE
8
Black
10
184.536
20
-86.0036
11
185.244
21
-86.0036
0
LINE
8
Black
10
185.244
20
-88.5436
11
185.244
21
-87.8364
0
LINE
8
Black
10
185.244
20
-87.8364
11
184.536
21
-87.8364
0
LINE
8
Black
10
184.536
20
-87.8364
11
184.536
21
-88.5436
0
LINE
8
Black
10
184.536
20
-88.5436
11
185.244
21
-88.5436
0
LINE
8
Black
10
185.244
20
-91.0836
11
185.244
21
-90.3764
0
LINE
8
Black
10
185.244
20
-90.3764
11
184.536
21
-90.3764
0
LINE
8
Black
10
184.536
20
-90.3764
11
184.536
21
-91.0836
0
LINE
8
Black
10
184.536
20
-91.0836
11
185.244
21
-91.0836
0
LINE
8
Black
10
185.244
20
-93.6236
11
185.244
21
-92.9164
0
LINE
8
Black
10
185.244
20
-92.9164
11
184.536
21
-92.9164
0
LINE
8
Black
10
184.536
20
-92.9164
11
184.536
21
-93.6236
0
LINE
8
Black
10
184.536
20
-93.6236
11
185.244
21
-93.6236
0
LINE
8
Black
10
185.244
20
-96.1636
11
185.244
21
-95.4564
0
LINE
8
Black
10
185.244
20
-95.4564
11
184.536
21
-95.4564
0
LINE
8
Black
10
184.536
20
-95.4564
11
184.536
21
-96.1636
0
LINE
8
Black
10
184.536
20
-96.1636
11
185.244
21
-96.1636
0
LINE
8
Black
10
185.244
20
-98.7036
11
185.244
21
-97.9964
0
LINE
8
Black
10
185.244
20
-97.9964
11
184.536
21
-97.9964
0
LINE
8
Black
10
184.536
20
-97.9964
11
184.536
21
-98.7036
0
LINE
8
Black
10
184.536
20
-98.7036
11
185.244
21
-98.7036
0
LINE
8
Black
10
185.244
20
-101.244
11
185.244
21
-100.536
0
LINE
8
Black
10
185.244
20
-100.536
11
184.536
21
-100.536
0
LINE
8
Black
10
184.536
20
-100.536
11
184.536
21
-101.244
0
LINE
8
Black
10
184.536
20
-101.244
11
185.244
21
-101.244
0
LINE
8
Black
10
185.244
20
-103.784
11
185.244
21
-103.076
0
LINE
8
Black
10
185.244
20
-103.076
11
184.536
21
-103.076
0
LINE
8
Black
10
184.536
20
-103.076
11
184.536
21
-103.784
0
LINE
8
Black
10
184.536
20
-103.784
11
185.244
21
-103.784
0
LINE
8
Black
10
187.784
20
-70.7636
11
187.784
21
-70.0564
0
LINE
8
Black
10
187.784
20
-70.0564
11
187.076
21
-70.0564
0
LINE
8
Black
10
187.076
20
-70.0564
11
187.076
21
-70.7636
0
LINE
8
Black
10
187.076
20
-70.7636
11
187.784
21
-70.7636
0
LINE
8
Black
10
187.784
20
-73.3036
11
187.784
21
-72.5964
0
LINE
8
Black
10
187.784
20
-72.5964
11
187.076
21
-72.5964
0
LINE
8
Black
10
187.076
20
-72.5964
11
187.076
21
-73.3036
0
LINE
8
Black
10
187.076
20
-73.3036
11
187.784
21
-73.3036
0
LINE
8
Black
10
187.784
20
-75.8436
11
187.784
21
-75.1364
0
LINE
8
Black
10
187.784
20
-75.1364
11
187.076
21
-75.1364
0
LINE
8
Black
10
187.076
20
-75.1364
11
187.076
21
-75.8436
0
LINE
8
Black
10
187.076
20
-75.8436
11
187.784
21
-75.8436
0
LINE
8
Black
10
187.784
20
-78.3836
11
187.784
21
-77.6764
0
LINE
8
Black
10
187.784
20
-77.6764
11
187.076
21
-77.6764
0
LINE
8
Black
10
187.076
20
-77.6764
11
187.076
21
-78.3836
0
LINE
8
Black
10
187.076
20
-78.3836
11
187.784
21
-78.3836
0
LINE
8
Black
10
187.784
20
-80.9236
11
187.784
21
-80.2164
0
LINE
8
Black
10
187.784
20
-80.2164
11
187.076
21
-80.2164
0
LINE
8
Black
10
187.076
20
-80.2164
11
187.076
21
-80.9236
0
LINE
8
Black
10
187.076
20
-80.9236
11
187.784
21
-80.9236
0
LINE
8
Black
10
187.784
20
-83.4636
11
187.784
21
-82.7564
0
LINE
8
Black
10
187.784
20
-82.7564
11
187.076
21
-82.7564
0
LINE
8
Black
10
187.076
20
-82.7564
11
187.076
21
-83.4636
0
LINE
8
Black
10
187.076
20
-83.4636
11
187.784
21
-83.4636
0
LINE
8
Black
10
187.784
20
-86.0036
11
187.784
21
-85.2964
0
LINE
8
Black
10
187.784
20
-85.2964
11
187.076
21
-85.2964
0
LINE
8
Black
10
187.076
20
-85.2964
11
187.076
21
-86.0036
0
LINE
8
Black
10
187.076
20
-86.0036
11
187.784
21
-86.0036
0
LINE
8
Black
10
187.784
20
-88.5436
11
187.784
21
-87.8364
0
LINE
8
Black
10
187.784
20
-87.8364
11
187.076
21
-87.8364
0
LINE
8
Black
10
187.076
20
-87.8364
11
187.076
21
-88.5436
0
LINE
8
Black
10
187.076
20
-88.5436
11
187.784
21
-88.5436
0
LINE
8
Black
10
187.784
20
-91.0836
11
187.784
21
-90.3764
0
LINE
8
Black
10
187.784
20
-90.3764
11
187.076
21
-90.3764
0
LINE
8
Black
10
187.076
20
-90.3764
11
187.076
21
-91.0836
0
LINE
8
Black
10
187.076
20
-91.0836
11
187.784
21
-91.0836
0
LINE
8
Black
10
187.784
20
-93.6236
11
187.784
21
-92.9164
0
LINE
8
Black
10
187.784
20
-92.9164
11
187.076
21
-92.9164
0
LINE
8
Black
10
187.076
20
-92.9164
11
187.076
21
-93.6236
0
LINE
8
Black
10
187.076
20
-93.6236
11
187.784
21
-93.6236
0
LINE
8
Black
10
187.784
20
-96.1636
11
187.784
21
-95.4564
0
LINE
8
Black
10
187.784
20
-95.4564
11
187.076
21
-95.4564
0
LINE
8
Black
10
187.076
20
-95.4564
11
187.076
21
-96.1636
0
LINE
8
Black
10
187.076
20
-96.1636
11
187.784
21
-96.1636
0
LINE
8
Black
10
187.784
20
-98.7036
11
187.784
21
-97.9964
0
LINE
8
Black
10
187.784
20
-97.9964
11
187.076
21
-97.9964
0
LINE
8
Black
10
187.076
20
-97.9964
11
187.076
21
-98.7036
0
LINE
8
Black
10
187.076
20
-98.7036
11
187.784
21
-98.7036
0
LINE
8
Black
10
187.784
20
-101.244
11
187.784
21
-100.536
0
LINE
8
Black
10
187.784
20
-100.536
11
187.076
21
-100.536
0
LINE
8
Black
10
187.076
20
-100.536
11
187.076
21
-101.244
0
LINE
8
Black
10
187.076
20
-101.244
11
187.784
21
-101.244
0
LINE
8
Black
10
187.784
20
-103.784
11
187.784
21
-103.076
0
LINE
8
Black
10
187.784
20
-103.076
11
187.076
21
-103.076
0
LINE
8
Black
10
187.076
20
-103.076
11
187.076
21
-103.784
0
LINE
8
Black
10
187.076
20
-103.784
11
187.784
21
-103.784
0
LINE
8
Black
10
104.88
20
-112.62
11
106.48
21
-111.02
0
LINE
8
Black
10
106.48
20
-111.02
11
104.88
21
-109.42
0
LINE
8
Black
10
104.88
20
-109.42
11
103.28
21
-111.02
0
LINE
8
Black
10
103.28
20
-111.02
11
104.88
21
-112.62
0
LINE
8
Black
10
106.15
20
-64.37
11
107.75
21
-62.77
0
LINE
8
Black
10
107.75
20
-62.77
11
106.15
21
-61.17
0
LINE
8
Black
10
106.15
20
-61.17
11
104.55
21
-62.77
0
LINE
8
Black
10
104.55
20
-62.77
11
106.15
21
-64.37
0
LINE
8
Black
10
181.09
20
-64.38
11
182.69
21
-62.78
0
LINE
8
Black
10
182.69
20
-62.78
11
181.09
21
-61.18
0
LINE
8
Black
10
181.09
20
-61.18
11
179.49
21
-62.78
0
LINE
8
Black
10
179.49
20
-62.78
11
181.09
21
-64.38
0
LINE
8
Black
10
187.42
20
-112.61
11
189.02
21
-111.01
0
LINE
8
Black
10
189.02
20
-111.01
11
187.42
21
-109.41
0
LINE
8
Black
10
187.42
20
-109.41
11
185.82
21
-111.01
0
LINE
8
Black
10
185.82
20
-111.01
11
187.42
21
-112.61
0
LINE
8
Black
10
93.6043
20
-118.307
11
93.6043
21
-115.307
0
LINE
8
Black
10
93.6043
20
-115.307
11
94.3186
21
-115.307
0
LINE
8
Black
10
94.3186
20
-115.307
11
94.7471
21
-115.45
0
LINE
8
Black
10
94.7471
20
-115.45
11
95.0329
21
-115.736
0
LINE
8
Black
10
95.0329
20
-115.736
11
95.1757
21
-116.021
0
LINE
8
Black
10
95.1757
20
-116.021
11
95.3186
21
-116.593
0
LINE
8
Black
10
95.3186
20
-116.593
11
95.3186
21
-117.021
0
LINE
8
Black
10
95.3186
20
-117.021
11
95.1757
21
-117.593
0
LINE
8
Black
10
95.1757
20
-117.593
11
95.0329
21
-117.879
0
LINE
8
Black
10
95.0329
20
-117.879
11
94.7471
21
-118.164
0
LINE
8
Black
10
94.7471
20
-118.164
11
94.3186
21
-118.307
0
LINE
8
Black
10
94.3186
20
-118.307
11
93.6043
21
-118.307
0
LINE
8
Black
10
96.6043
20
-118.307
11
96.6043
21
-116.307
0
LINE
8
Black
10
96.6043
20
-116.879
11
96.7471
21
-116.593
0
LINE
8
Black
10
96.7471
20
-116.593
11
96.89
21
-116.45
0
LINE
8
Black
10
96.89
20
-116.45
11
97.1757
21
-116.307
0
LINE
8
Black
10
97.1757
20
-116.307
11
97.4614
21
-116.307
0
LINE
8
Black
10
98.4614
20
-118.307
11
98.4614
21
-116.307
0
LINE
8
Black
10
98.4614
20
-115.307
11
98.3186
21
-115.45
0
LINE
8
Black
10
98.3186
20
-115.45
11
98.4614
21
-115.593
0
LINE
8
Black
10
98.4614
20
-115.593
11
98.6043
21
-115.45
0
LINE
8
Black
10
98.6043
20
-115.45
11
98.4614
21
-115.307
0
LINE
8
Black
10
98.4614
20
-115.307
11
98.4614
21
-115.593
0
LINE
8
Black
10
100.319
20
-118.307
11
100.033
21
-118.164
0
LINE
8
Black
10
100.033
20
-118.164
11
99.89
21
-117.879
0
LINE
8
Black
10
99.89
20
-117.879
11
99.89
21
-115.307
0
LINE
8
Black
10
101.89
20
-118.307
11
101.604
21
-118.164
0
LINE
8
Black
10
101.604
20
-118.164
11
101.461
21
-117.879
0
LINE
8
Black
10
101.461
20
-117.879
11
101.461
21
-115.307
0
LINE
8
Black
10
105.319
20
-118.307
11
105.319
21
-115.307
0
LINE
8
Black
10
105.319
20
-115.307
11
106.319
21
-117.45
0
LINE
8
Black
10
106.319
20
-117.45
11
107.319
21
-115.307
0
LINE
8
Black
10
107.319
20
-115.307
11
107.319
21
-118.307
0
LINE
8
Black
10
110.033
20
-118.307
11
110.033
21
-116.736
0
LINE
8
Black
10
110.033
20
-116.736
11
109.89
21
-116.45
0
LINE
8
Black
10
109.89
20
-116.45
11
109.604
21
-116.307
0
LINE
8
Black
10
109.604
20
-116.307
11
109.033
21
-116.307
0
LINE
8
Black
10
109.033
20
-116.307
11
108.747
21
-116.45
0
LINE
8
Black
10
110.033
20
-118.164
11
109.747
21
-118.307
0
LINE
8
Black
10
109.747
20
-118.307
11
109.033
21
-118.307
0
LINE
8
Black
10
109.033
20
-118.307
11
108.747
21
-118.164
0
LINE
8
Black
10
108.747
20
-118.164
11
108.604
21
-117.879
0
LINE
8
Black
10
108.604
20
-117.879
11
108.604
21
-117.593
0
LINE
8
Black
10
108.604
20
-117.593
11
108.747
21
-117.307
0
LINE
8
Black
10
108.747
20
-117.307
11
109.033
21
-117.164
0
LINE
8
Black
10
109.033
20
-117.164
11
109.747
21
-117.164
0
LINE
8
Black
10
109.747
20
-117.164
11
110.033
21
-117.021
0
LINE
8
Black
10
111.461
20
-116.307
11
111.461
21
-119.307
0
LINE
8
Black
10
111.461
20
-116.45
11
111.747
21
-116.307
0
LINE
8
Black
10
111.747
20
-116.307
11
112.319
21
-116.307
0
LINE
8
Black
10
112.319
20
-116.307
11
112.604
21
-116.45
0
LINE
8
Black
10
112.604
20
-116.45
11
112.747
21
-116.593
0
LINE
8
Black
10
112.747
20
-116.593
11
112.89
21
-116.879
0
LINE
8
Black
10
112.89
20
-116.879
11
112.89
21
-117.736
0
LINE
8
Black
10
112.89
20
-117.736
11
112.747
21
-118.021
0
LINE
8
Black
10
112.747
20
-118.021
11
112.604
21
-118.164
0
LINE
8
Black
10
112.604
20
-118.164
11
112.319
21
-118.307
0
LINE
8
Black
10
112.319
20
-118.307
11
111.747
21
-118.307
0
LINE
8
Black
10
111.747
20
-118.307
11
111.461
21
-118.164
0
LINE
8
Black
10
114.176
20
-118.021
11
114.319
21
-118.164
0
LINE
8
Black
10
114.319
20
-118.164
11
114.176
21
-118.307
0
LINE
8
Black
10
114.176
20
-118.307
11
114.033
21
-118.164
0
LINE
8
Black
10
114.033
20
-118.164
11
114.176
21
-118.021
0
LINE
8
Black
10
114.176
20
-118.021
11
114.176
21
-118.307
0
LINE
8
Black
10
114.176
20
-116.45
11
114.319
21
-116.593
0
LINE
8
Black
10
114.319
20
-116.593
11
114.176
21
-116.736
0
LINE
8
Black
10
114.176
20
-116.736
11
114.033
21
-116.593
0
LINE
8
Black
10
114.033
20
-116.593
11
114.176
21
-116.45
0
LINE
8
Black
10
114.176
20
-116.45
11
114.176
21
-116.736
0
LINE
8
Black
10
90.4836
20
-123.047
11
90.89
21
-123.453
0
LINE
8
Black
10
90.89
20
-123.047
11
90.4836
21
-123.453
0
LINE
8
Black
10
94.1757
20
-121.607
11
94.4614
21
-121.607
0
LINE
8
Black
10
94.4614
20
-121.607
11
94.7471
21
-121.75
0
LINE
8
Black
10
94.7471
20
-121.75
11
94.89
21
-121.893
0
LINE
8
Black
10
94.89
20
-121.893
11
95.0329
21
-122.179
0
LINE
8
Black
10
95.0329
20
-122.179
11
95.1757
21
-122.75
0
LINE
8
Black
10
95.1757
20
-122.75
11
95.1757
21
-123.464
0
LINE
8
Black
10
95.1757
20
-123.464
11
95.0329
21
-124.036
0
LINE
8
Black
10
95.0329
20
-124.036
11
94.89
21
-124.321
0
LINE
8
Black
10
94.89
20
-124.321
11
94.7471
21
-124.464
0
LINE
8
Black
10
94.7471
20
-124.464
11
94.4614
21
-124.607
0
LINE
8
Black
10
94.4614
20
-124.607
11
94.1757
21
-124.607
0
LINE
8
Black
10
94.1757
20
-124.607
11
93.89
21
-124.464
0
LINE
8
Black
10
93.89
20
-124.464
11
93.7471
21
-124.321
0
LINE
8
Black
10
93.7471
20
-124.321
11
93.6043
21
-124.036
0
LINE
8
Black
10
93.6043
20
-124.036
11
93.4614
21
-123.464
0
LINE
8
Black
10
93.4614
20
-123.464
11
93.4614
21
-122.75
0
LINE
8
Black
10
93.4614
20
-122.75
11
93.6043
21
-122.179
0
LINE
8
Black
10
93.6043
20
-122.179
11
93.7471
21
-121.893
0
LINE
8
Black
10
93.7471
20
-121.893
11
93.89
21
-121.75
0
LINE
8
Black
10
93.89
20
-121.75
11
94.1757
21
-121.607
0
LINE
8
Black
10
96.4614
20
-124.321
11
96.6043
21
-124.464
0
LINE
8
Black
10
96.6043
20
-124.464
11
96.4614
21
-124.607
0
LINE
8
Black
10
96.4614
20
-124.607
11
96.3186
21
-124.464
0
LINE
8
Black
10
96.3186
20
-124.464
11
96.4614
21
-124.321
0
LINE
8
Black
10
96.4614
20
-124.321
11
96.4614
21
-124.607
0
LINE
8
Black
10
99.1757
20
-122.607
11
99.1757
21
-124.607
0
LINE
8
Black
10
98.4614
20
-121.464
11
97.7471
21
-123.607
0
LINE
8
Black
10
97.7471
20
-123.607
11
99.6043
21
-123.607
0
LINE
8
Black
10
102.319
20
-124.607
11
100.604
21
-124.607
0
LINE
8
Black
10
101.461
20
-124.607
11
101.461
21
-121.607
0
LINE
8
Black
10
101.461
20
-121.607
11
101.176
21
-122.036
0
LINE
8
Black
10
101.176
20
-122.036
11
100.89
21
-122.321
0
LINE
8
Black
10
100.89
20
-122.321
11
100.604
21
-122.464
0
LINE
8
Black
10
103.604
20
-124.607
11
103.604
21
-122.607
0
LINE
8
Black
10
103.604
20
-122.893
11
103.747
21
-122.75
0
LINE
8
Black
10
103.747
20
-122.75
11
104.033
21
-122.607
0
LINE
8
Black
10
104.033
20
-122.607
11
104.461
21
-122.607
0
LINE
8
Black
10
104.461
20
-122.607
11
104.747
21
-122.75
0
LINE
8
Black
10
104.747
20
-122.75
11
104.89
21
-123.036
0
LINE
8
Black
10
104.89
20
-123.036
11
104.89
21
-124.607
0
LINE
8
Black
10
104.89
20
-123.036
11
105.033
21
-122.75
0
LINE
8
Black
10
105.033
20
-122.75
11
105.319
21
-122.607
0
LINE
8
Black
10
105.319
20
-122.607
11
105.747
21
-122.607
0
LINE
8
Black
10
105.747
20
-122.607
11
106.033
21
-122.75
0
LINE
8
Black
10
106.033
20
-122.75
11
106.176
21
-123.036
0
LINE
8
Black
10
106.176
20
-123.036
11
106.176
21
-124.607
0
LINE
8
Black
10
107.604
20
-124.607
11
107.604
21
-122.607
0
LINE
8
Black
10
107.604
20
-122.893
11
107.747
21
-122.75
0
LINE
8
Black
10
107.747
20
-122.75
11
108.033
21
-122.607
0
LINE
8
Black
10
108.033
20
-122.607
11
108.461
21
-122.607
0
LINE
8
Black
10
108.461
20
-122.607
11
108.747
21
-122.75
0
LINE
8
Black
10
108.747
20
-122.75
11
108.89
21
-123.036
0
LINE
8
Black
10
108.89
20
-123.036
11
108.89
21
-124.607
0
LINE
8
Black
10
108.89
20
-123.036
11
109.033
21
-122.75
0
LINE
8
Black
10
109.033
20
-122.75
11
109.319
21
-122.607
0
LINE
8
Black
10
109.319
20
-122.607
11
109.747
21
-122.607
0
LINE
8
Black
10
109.747
20
-122.607
11
110.033
21
-122.75
0
LINE
8
Black
10
110.033
20
-122.75
11
110.176
21
-123.036
0
LINE
8
Black
10
110.176
20
-123.036
11
110.176
21
-124.607
0
LINE
8
Black
10
116.033
20
-121.464
11
113.461
21
-125.321
0
LINE
8
Black
10
119.89
20
-121.607
11
120.176
21
-121.607
0
LINE
8
Black
10
120.176
20
-121.607
11
120.461
21
-121.75
0
LINE
8
Black
10
120.461
20
-121.75
11
120.604
21
-121.893
0
LINE
8
Black
10
120.604
20
-121.893
11
120.747
21
-122.179
0
LINE
8
Black
10
120.747
20
-122.179
11
120.89
21
-122.75
0
LINE
8
Black
10
120.89
20
-122.75
11
120.89
21
-123.464
0
LINE
8
Black
10
120.89
20
-123.464
11
120.747
21
-124.036
0
LINE
8
Black
10
120.747
20
-124.036
11
120.604
21
-124.321
0
LINE
8
Black
10
120.604
20
-124.321
11
120.461
21
-124.464
0
LINE
8
Black
10
120.461
20
-124.464
11
120.176
21
-124.607
0
LINE
8
Black
10
120.176
20
-124.607
11
119.89
21
-124.607
0
LINE
8
Black
10
119.89
20
-124.607
11
119.604
21
-124.464
0
LINE
8
Black
10
119.604
20
-124.464
11
119.461
21
-124.321
0
LINE
8
Black
10
119.461
20
-124.321
11
119.319
21
-124.036
0
LINE
8
Black
10
119.319
20
-124.036
11
119.176
21
-123.464
0
LINE
8
Black
10
119.176
20
-123.464
11
119.176
21
-122.75
0
LINE
8
Black
10
119.176
20
-122.75
11
119.319
21
-122.179
0
LINE
8
Black
10
119.319
20
-122.179
11
119.461
21
-121.893
0
LINE
8
Black
10
119.461
20
-121.893
11
119.604
21
-121.75
0
LINE
8
Black
10
119.604
20
-121.75
11
119.89
21
-121.607
0
LINE
8
Black
10
122.176
20
-124.321
11
122.319
21
-124.464
0
LINE
8
Black
10
122.319
20
-124.464
11
122.176
21
-124.607
0
LINE
8
Black
10
122.176
20
-124.607
11
122.033
21
-124.464
0
LINE
8
Black
10
122.033
20
-124.464
11
122.176
21
-124.321
0
LINE
8
Black
10
122.176
20
-124.321
11
122.176
21
-124.607
0
LINE
8
Black
10
124.176
20
-121.607
11
124.461
21
-121.607
0
LINE
8
Black
10
124.461
20
-121.607
11
124.747
21
-121.75
0
LINE
8
Black
10
124.747
20
-121.75
11
124.89
21
-121.893
0
LINE
8
Black
10
124.89
20
-121.893
11
125.033
21
-122.179
0
LINE
8
Black
10
125.033
20
-122.179
11
125.176
21
-122.75
0
LINE
8
Black
10
125.176
20
-122.75
11
125.176
21
-123.464
0
LINE
8
Black
10
125.176
20
-123.464
11
125.033
21
-124.036
0
LINE
8
Black
10
125.033
20
-124.036
11
124.89
21
-124.321
0
LINE
8
Black
10
124.89
20
-124.321
11
124.747
21
-124.464
0
LINE
8
Black
10
124.747
20
-124.464
11
124.461
21
-124.607
0
LINE
8
Black
10
124.461
20
-124.607
11
124.176
21
-124.607
0
LINE
8
Black
10
124.176
20
-124.607
11
123.89
21
-124.464
0
LINE
8
Black
10
123.89
20
-124.464
11
123.747
21
-124.321
0
LINE
8
Black
10
123.747
20
-124.321
11
123.604
21
-124.036
0
LINE
8
Black
10
123.604
20
-124.036
11
123.461
21
-123.464
0
LINE
8
Black
10
123.461
20
-123.464
11
123.461
21
-122.75
0
LINE
8
Black
10
123.461
20
-122.75
11
123.604
21
-122.179
0
LINE
8
Black
10
123.604
20
-122.179
11
123.747
21
-121.893
0
LINE
8
Black
10
123.747
20
-121.893
11
123.89
21
-121.75
0
LINE
8
Black
10
123.89
20
-121.75
11
124.176
21
-121.607
0
LINE
8
Black
10
128.033
20
-124.607
11
126.319
21
-124.607
0
LINE
8
Black
10
127.176
20
-124.607
11
127.176
21
-121.607
0
LINE
8
Black
10
127.176
20
-121.607
11
126.89
21
-122.036
0
LINE
8
Black
10
126.89
20
-122.036
11
126.604
21
-122.321
0
LINE
8
Black
10
126.604
20
-122.321
11
126.319
21
-122.464
0
LINE
8
Black
10
130.604
20
-121.607
11
130.033
21
-121.607
0
LINE
8
Black
10
130.033
20
-121.607
11
129.747
21
-121.75
0
LINE
8
Black
10
129.747
20
-121.75
11
129.604
21
-121.893
0
LINE
8
Black
10
129.604
20
-121.893
11
129.319
21
-122.321
0
LINE
8
Black
10
129.319
20
-122.321
11
129.176
21
-122.893
0
LINE
8
Black
10
129.176
20
-122.893
11
129.176
21
-124.036
0
LINE
8
Black
10
129.176
20
-124.036
11
129.319
21
-124.321
0
LINE
8
Black
10
129.319
20
-124.321
11
129.461
21
-124.464
0
LINE
8
Black
10
129.461
20
-124.464
11
129.747
21
-124.607
0
LINE
8
Black
10
129.747
20
-124.607
11
130.319
21
-124.607
0
LINE
8
Black
10
130.319
20
-124.607
11
130.604
21
-124.464
0
LINE
8
Black
10
130.604
20
-124.464
11
130.747
21
-124.321
0
LINE
8
Black
10
130.747
20
-124.321
11
130.89
21
-124.036
0
LINE
8
Black
10
130.89
20
-124.036
11
130.89
21
-123.321
0
LINE
8
Black
10
130.89
20
-123.321
11
130.747
21
-123.036
0
LINE
8
Black
10
130.747
20
-123.036
11
130.604
21
-122.893
0
LINE
8
Black
10
130.604
20
-122.893
11
130.319
21
-122.75
0
LINE
8
Black
10
130.319
20
-122.75
11
129.747
21
-122.75
0
LINE
8
Black
10
129.747
20
-122.75
11
129.461
21
-122.893
0
LINE
8
Black
10
129.461
20
-122.893
11
129.319
21
-123.036
0
LINE
8
Black
10
129.319
20
-123.036
11
129.176
21
-123.321
0
LINE
8
Black
10
132.033
20
-121.607
11
132.033
21
-122.179
0
LINE
8
Black
10
133.176
20
-121.607
11
133.176
21
-122.179
0
LINE
8
Black
10
137.604
20
-125.75
11
137.461
21
-125.607
0
LINE
8
Black
10
137.461
20
-125.607
11
137.176
21
-125.179
0
LINE
8
Black
10
137.176
20
-125.179
11
137.033
21
-124.893
0
LINE
8
Black
10
137.033
20
-124.893
11
136.89
21
-124.464
0
LINE
8
Black
10
136.89
20
-124.464
11
136.747
21
-123.75
0
LINE
8
Black
10
136.747
20
-123.75
11
136.747
21
-123.179
0
LINE
8
Black
10
136.747
20
-123.179
11
136.89
21
-122.464
0
LINE
8
Black
10
136.89
20
-122.464
11
137.033
21
-122.036
0
LINE
8
Black
10
137.033
20
-122.036
11
137.176
21
-121.75
0
LINE
8
Black
10
137.176
20
-121.75
11
137.461
21
-121.321
0
LINE
8
Black
10
137.461
20
-121.321
11
137.604
21
-121.179
0
LINE
8
Black
10
140.319
20
-124.607
11
138.604
21
-124.607
0
LINE
8
Black
10
139.461
20
-124.607
11
139.461
21
-121.607
0
LINE
8
Black
10
139.461
20
-121.607
11
139.176
21
-122.036
0
LINE
8
Black
10
139.176
20
-122.036
11
138.89
21
-122.321
0
LINE
8
Black
10
138.89
20
-122.321
11
138.604
21
-122.464
0
LINE
8
Black
10
141.461
20
-121.893
11
141.604
21
-121.75
0
LINE
8
Black
10
141.604
20
-121.75
11
141.89
21
-121.607
0
LINE
8
Black
10
141.89
20
-121.607
11
142.604
21
-121.607
0
LINE
8
Black
10
142.604
20
-121.607
11
142.89
21
-121.75
0
LINE
8
Black
10
142.89
20
-121.75
11
143.033
21
-121.893
0
LINE
8
Black
10
143.033
20
-121.893
11
143.176
21
-122.179
0
LINE
8
Black
10
143.176
20
-122.179
11
143.176
21
-122.464
0
LINE
8
Black
10
143.176
20
-122.464
11
143.033
21
-122.893
0
LINE
8
Black
10
143.033
20
-122.893
11
141.319
21
-124.607
0
LINE
8
Black
10
141.319
20
-124.607
11
143.176
21
-124.607
0
LINE
8
Black
10
145.747
20
-121.607
11
145.176
21
-121.607
0
LINE
8
Black
10
145.176
20
-121.607
11
144.89
21
-121.75
0
LINE
8
Black
10
144.89
20
-121.75
11
144.747
21
-121.893
0
LINE
8
Black
10
144.747
20
-121.893
11
144.461
21
-122.321
0
LINE
8
Black
10
144.461
20
-122.321
11
144.319
21
-122.893
0
LINE
8
Black
10
144.319
20
-122.893
11
144.319
21
-124.036
0
LINE
8
Black
10
144.319
20
-124.036
11
144.461
21
-124.321
0
LINE
8
Black
10
144.461
20
-124.321
11
144.604
21
-124.464
0
LINE
8
Black
10
144.604
20
-124.464
11
144.89
21
-124.607
0
LINE
8
Black
10
144.89
20
-124.607
11
145.461
21
-124.607
0
LINE
8
Black
10
145.461
20
-124.607
11
145.747
21
-124.464
0
LINE
8
Black
10
145.747
20
-124.464
11
145.89
21
-124.321
0
LINE
8
Black
10
145.89
20
-124.321
11
146.033
21
-124.036
0
LINE
8
Black
10
146.033
20
-124.036
11
146.033
21
-123.321
0
LINE
8
Black
10
146.033
20
-123.321
11
145.89
21
-123.036
0
LINE
8
Black
10
145.89
20
-123.036
11
145.747
21
-122.893
0
LINE
8
Black
10
145.747
20
-122.893
11
145.461
21
-122.75
0
LINE
8
Black
10
145.461
20
-122.75
11
144.89
21
-122.75
0
LINE
8
Black
10
144.89
20
-122.75
11
144.604
21
-122.893
0
LINE
8
Black
10
144.604
20
-122.893
11
144.461
21
-123.036
0
LINE
8
Black
10
144.461
20
-123.036
11
144.319
21
-123.321
0
LINE
8
Black
10
149.604
20
-124.607
11
149.604
21
-121.607
0
LINE
8
Black
10
150.89
20
-124.607
11
150.89
21
-123.036
0
LINE
8
Black
10
150.89
20
-123.036
11
150.747
21
-122.75
0
LINE
8
Black
10
150.747
20
-122.75
11
150.461
21
-122.607
0
LINE
8
Black
10
150.461
20
-122.607
11
150.033
21
-122.607
0
LINE
8
Black
10
150.033
20
-122.607
11
149.747
21
-122.75
0
LINE
8
Black
10
149.747
20
-122.75
11
149.604
21
-122.893
0
LINE
8
Black
10
152.747
20
-124.607
11
152.461
21
-124.464
0
LINE
8
Black
10
152.461
20
-124.464
11
152.319
21
-124.321
0
LINE
8
Black
10
152.319
20
-124.321
11
152.176
21
-124.036
0
LINE
8
Black
10
152.176
20
-124.036
11
152.176
21
-123.179
0
LINE
8
Black
10
152.176
20
-123.179
11
152.319
21
-122.893
0
LINE
8
Black
10
152.319
20
-122.893
11
152.461
21
-122.75
0
LINE
8
Black
10
152.461
20
-122.75
11
152.747
21
-122.607
0
LINE
8
Black
10
152.747
20
-122.607
11
153.176
21
-122.607
0
LINE
8
Black
10
153.176
20
-122.607
11
153.461
21
-122.75
0
LINE
8
Black
10
153.461
20
-122.75
11
153.604
21
-122.893
0
LINE
8
Black
10
153.604
20
-122.893
11
153.747
21
-123.179
0
LINE
8
Black
10
153.747
20
-123.179
11
153.747
21
-124.036
0
LINE
8
Black
10
153.747
20
-124.036
11
153.604
21
-124.321
0
LINE
8
Black
10
153.604
20
-124.321
11
153.461
21
-124.464
0
LINE
8
Black
10
153.461
20
-124.464
11
153.176
21
-124.607
0
LINE
8
Black
10
153.176
20
-124.607
11
152.747
21
-124.607
0
LINE
8
Black
10
155.461
20
-124.607
11
155.176
21
-124.464
0
LINE
8
Black
10
155.176
20
-124.464
11
155.033
21
-124.179
0
LINE
8
Black
10
155.033
20
-124.179
11
155.033
21
-121.607
0
LINE
8
Black
10
157.747
20
-124.464
11
157.461
21
-124.607
0
LINE
8
Black
10
157.461
20
-124.607
11
156.89
21
-124.607
0
LINE
8
Black
10
156.89
20
-124.607
11
156.604
21
-124.464
0
LINE
8
Black
10
156.604
20
-124.464
11
156.461
21
-124.179
0
LINE
8
Black
10
156.461
20
-124.179
11
156.461
21
-123.036
0
LINE
8
Black
10
156.461
20
-123.036
11
156.604
21
-122.75
0
LINE
8
Black
10
156.604
20
-122.75
11
156.89
21
-122.607
0
LINE
8
Black
10
156.89
20
-122.607
11
157.461
21
-122.607
0
LINE
8
Black
10
157.461
20
-122.607
11
157.747
21
-122.75
0
LINE
8
Black
10
157.747
20
-122.75
11
157.89
21
-123.036
0
LINE
8
Black
10
157.89
20
-123.036
11
157.89
21
-123.321
0
LINE
8
Black
10
157.89
20
-123.321
11
156.461
21
-123.607
0
LINE
8
Black
10
159.033
20
-124.464
11
159.319
21
-124.607
0
LINE
8
Black
10
159.319
20
-124.607
11
159.89
21
-124.607
0
LINE
8
Black
10
159.89
20
-124.607
11
160.176
21
-124.464
0
LINE
8
Black
10
160.176
20
-124.464
11
160.319
21
-124.179
0
LINE
8
Black
10
160.319
20
-124.179
11
160.319
21
-124.036
0
LINE
8
Black
10
160.319
20
-124.036
11
160.176
21
-123.75
0
LINE
8
Black
10
160.176
20
-123.75
11
159.89
21
-123.607
0
LINE
8
Black
10
159.89
20
-123.607
11
159.461
21
-123.607
0
LINE
8
Black
10
159.461
20
-123.607
11
159.176
21
-123.464
0
LINE
8
Black
10
159.176
20
-123.464
11
159.033
21
-123.179
0
LINE
8
Black
10
159.033
20
-123.179
11
159.033
21
-123.036
0
LINE
8
Black
10
159.033
20
-123.036
11
159.176
21
-122.75
0
LINE
8
Black
10
159.176
20
-122.75
11
159.461
21
-122.607
0
LINE
8
Black
10
159.461
20
-122.607
11
159.89
21
-122.607
0
LINE
8
Black
10
159.89
20
-122.607
11
160.176
21
-122.75
0
LINE
8
Black
10
161.319
20
-125.75
11
161.461
21
-125.607
0
LINE
8
Black
10
161.461
20
-125.607
11
161.747
21
-125.179
0
LINE
8
Black
10
161.747
20
-125.179
11
161.89
21
-124.893
0
LINE
8
Black
10
161.89
20
-124.893
11
162.033
21
-124.464
0
LINE
8
Black
10
162.033
20
-124.464
11
162.176
21
-123.75
0
LINE
8
Black
10
162.176
20
-123.75
11
162.176
21
-123.179
0
LINE
8
Black
10
162.176
20
-123.179
11
162.033
21
-122.464
0
LINE
8
Black
10
162.033
20
-122.464
11
161.89
21
-122.036
0
LINE
8
Black
10
161.89
20
-122.036
11
161.747
21
-121.75
0
LINE
8
Black
10
161.747
20
-121.75
11
161.461
21
-121.321
0
LINE
8
Black
10
161.461
20
-121.321
11
161.319
21
-121.179
0
CIRCLE
8
Black
10
90.565
20
-127.21
40
0.325
0
LINE
8
Black
10
94.1757
20
-125.567
11
94.4614
21
-125.567
0
LINE
8
Black
10
94.4614
20
-125.567
11
94.7471
21
-125.71
0
LINE
8
Black
10
94.7471
20
-125.71
11
94.89
21
-125.853
0
LINE
8
Black
10
94.89
20
-125.853
11
95.0329
21
-126.139
0
LINE
8
Black
10
95.0329
20
-126.139
11
95.1757
21
-126.71
0
LINE
8
Black
10
95.1757
20
-126.71
11
95.1757
21
-127.424
0
LINE
8
Black
10
95.1757
20
-127.424
11
95.0329
21
-127.996
0
LINE
8
Black
10
95.0329
20
-127.996
11
94.89
21
-128.281
0
LINE
8
Black
10
94.89
20
-128.281
11
94.7471
21
-128.424
0
LINE
8
Black
10
94.7471
20
-128.424
11
94.4614
21
-128.567
0
LINE
8
Black
10
94.4614
20
-128.567
11
94.1757
21
-128.567
0
LINE
8
Black
10
94.1757
20
-128.567
11
93.89
21
-128.424
0
LINE
8
Black
10
93.89
20
-128.424
11
93.7471
21
-128.281
0
LINE
8
Black
10
93.7471
20
-128.281
11
93.6043
21
-127.996
0
LINE
8
Black
10
93.6043
20
-127.996
11
93.4614
21
-127.424
0
LINE
8
Black
10
93.4614
20
-127.424
11
93.4614
21
-126.71
0
LINE
8
Black
10
93.4614
20
-126.71
11
93.6043
21
-126.139
0
LINE
8
Black
10
93.6043
20
-126.139
11
93.7471
21
-125.853
0
LINE
8
Black
10
93.7471
20
-125.853
11
93.89
21
-125.71
0
LINE
8
Black
10
93.89
20
-125.71
11
94.1757
21
-125.567
0
LINE
8
Black
10
96.4614
20
-128.281
11
96.6043
21
-128.424
0
LINE
8
Black
10
96.6043
20
-128.424
11
96.4614
21
-128.567
0
LINE
8
Black
10
96.4614
20
-128.567
11
96.3186
21
-128.424
0
LINE
8
Black
10
96.3186
20
-128.424
11
96.4614
21
-128.281
0
LINE
8
Black
10
96.4614
20
-128.281
11
96.4614
21
-128.567
0
LINE
8
Black
10
99.1757
20
-125.567
11
98.6043
21
-125.567
0
LINE
8
Black
10
98.6043
20
-125.567
11
98.3186
21
-125.71
0
LINE
8
Black
10
98.3186
20
-125.71
11
98.1757
21
-125.853
0
LINE
8
Black
10
98.1757
20
-125.853
11
97.89
21
-126.281
0
LINE
8
Black
10
97.89
20
-126.281
11
97.7471
21
-126.853
0
LINE
8
Black
10
97.7471
20
-126.853
11
97.7471
21
-127.996
0
LINE
8
Black
10
97.7471
20
-127.996
11
97.89
21
-128.281
0
LINE
8
Black
10
97.89
20
-128.281
11
98.0329
21
-128.424
0
LINE
8
Black
10
98.0329
20
-128.424
11
98.3186
21
-128.567
0
LINE
8
Black
10
98.3186
20
-128.567
11
98.89
21
-128.567
0
LINE
8
Black
10
98.89
20
-128.567
11
99.1757
21
-128.424
0
LINE
8
Black
10
99.1757
20
-128.424
11
99.3186
21
-128.281
0
LINE
8
Black
10
99.3186
20
-128.281
11
99.4614
21
-127.996
0
LINE
8
Black
10
99.4614
20
-127.996
11
99.4614
21
-127.281
0
LINE
8
Black
10
99.4614
20
-127.281
11
99.3186
21
-126.996
0
LINE
8
Black
10
99.3186
20
-126.996
11
99.1757
21
-126.853
0
LINE
8
Black
10
99.1757
20
-126.853
11
98.89
21
-126.71
0
LINE
8
Black
10
98.89
20
-126.71
11
98.3186
21
-126.71
0
LINE
8
Black
10
98.3186
20
-126.71
11
98.0329
21
-126.853
0
LINE
8
Black
10
98.0329
20
-126.853
11
97.89
21
-126.996
0
LINE
8
Black
10
97.89
20
-126.996
11
97.7471
21
-127.281
0
LINE
8
Black
10
102.176
20
-125.567
11
100.747
21
-125.567
0
LINE
8
Black
10
100.747
20
-125.567
11
100.604
21
-126.996
0
LINE
8
Black
10
100.604
20
-126.996
11
100.747
21
-126.853
0
LINE
8
Black
10
100.747
20
-126.853
11
101.033
21
-126.71
0
LINE
8
Black
10
101.033
20
-126.71
11
101.747
21
-126.71
0
LINE
8
Black
10
101.747
20
-126.71
11
102.033
21
-126.853
0
LINE
8
Black
10
102.033
20
-126.853
11
102.176
21
-126.996
0
LINE
8
Black
10
102.176
20
-126.996
11
102.319
21
-127.281
0
LINE
8
Black
10
102.319
20
-127.281
11
102.319
21
-127.996
0
LINE
8
Black
10
102.319
20
-127.996
11
102.176
21
-128.281
0
LINE
8
Black
10
102.176
20
-128.281
11
102.033
21
-128.424
0
LINE
8
Black
10
102.033
20
-128.424
11
101.747
21
-128.567
0
LINE
8
Black
10
101.747
20
-128.567
11
101.033
21
-128.567
0
LINE
8
Black
10
101.033
20
-128.567
11
100.747
21
-128.424
0
LINE
8
Black
10
100.747
20
-128.424
11
100.604
21
-128.281
0
LINE
8
Black
10
103.604
20
-128.567
11
103.604
21
-126.567
0
LINE
8
Black
10
103.604
20
-126.853
11
103.747
21
-126.71
0
LINE
8
Black
10
103.747
20
-126.71
11
104.033
21
-126.567
0
LINE
8
Black
10
104.033
20
-126.567
11
104.461
21
-126.567
0
LINE
8
Black
10
104.461
20
-126.567
11
104.747
21
-126.71
0
LINE
8
Black
10
104.747
20
-126.71
11
104.89
21
-126.996
0
LINE
8
Black
10
104.89
20
-126.996
11
104.89
21
-128.567
0
LINE
8
Black
10
104.89
20
-126.996
11
105.033
21
-126.71
0
LINE
8
Black
10
105.033
20
-126.71
11
105.319
21
-126.567
0
LINE
8
Black
10
105.319
20
-126.567
11
105.747
21
-126.567
0
LINE
8
Black
10
105.747
20
-126.567
11
106.033
21
-126.71
0
LINE
8
Black
10
106.033
20
-126.71
11
106.176
21
-126.996
0
LINE
8
Black
10
106.176
20
-126.996
11
106.176
21
-128.567
0
LINE
8
Black
10
107.604
20
-128.567
11
107.604
21
-126.567
0
LINE
8
Black
10
107.604
20
-126.853
11
107.747
21
-126.71
0
LINE
8
Black
10
107.747
20
-126.71
11
108.033
21
-126.567
0
LINE
8
Black
10
108.033
20
-126.567
11
108.461
21
-126.567
0
LINE
8
Black
10
108.461
20
-126.567
11
108.747
21
-126.71
0
LINE
8
Black
10
108.747
20
-126.71
11
108.89
21
-126.996
0
LINE
8
Black
10
108.89
20
-126.996
11
108.89
21
-128.567
0
LINE
8
Black
10
108.89
20
-126.996
11
109.033
21
-126.71
0
LINE
8
Black
10
109.033
20
-126.71
11
109.319
21
-126.567
0
LINE
8
Black
10
109.319
20
-126.567
11
109.747
21
-126.567
0
LINE
8
Black
10
109.747
20
-126.567
11
110.033
21
-126.71
0
LINE
8
Black
10
110.033
20
-126.71
11
110.176
21
-126.996
0
LINE
8
Black
10
110.176
20
-126.996
11
110.176
21
-128.567
0
LINE
8
Black
10
116.033
20
-125.424
11
113.461
21
-129.281
0
LINE
8
Black
10
119.89
20
-125.567
11
120.176
21
-125.567
0
LINE
8
Black
10
120.176
20
-125.567
11
120.461
21
-125.71
0
LINE
8
Black
10
120.461
20
-125.71
11
120.604
21
-125.853
0
LINE
8
Black
10
120.604
20
-125.853
11
120.747
21
-126.139
0
LINE
8
Black
10
120.747
20
-126.139
11
120.89
21
-126.71
0
LINE
8
Black
10
120.89
20
-126.71
11
120.89
21
-127.424
0
LINE
8
Black
10
120.89
20
-127.424
11
120.747
21
-127.996
0
LINE
8
Black
10
120.747
20
-127.996
11
120.604
21
-128.281
0
LINE
8
Black
10
120.604
20
-128.281
11
120.461
21
-128.424
0
LINE
8
Black
10
120.461
20
-128.424
11
120.176
21
-128.567
0
LINE
8
Black
10
120.176
20
-128.567
11
119.89
21
-128.567
0
LINE
8
Black
10
119.89
20
-128.567
11
119.604
21
-128.424
0
LINE
8
Black
10
119.604
20
-128.424
11
119.461
21
-128.281
0
LINE
8
Black
10
119.461
20
-128.281
11
119.319
21
-127.996
0
LINE
8
Black
10
119.319
20
-127.996
11
119.176
21
-127.424
0
LINE
8
Black
10
119.176
20
-127.424
11
119.176
21
-126.71
0
LINE
8
Black
10
119.176
20
-126.71
11
119.319
21
-126.139
0
LINE
8
Black
10
119.319
20
-126.139
11
119.461
21
-125.853
0
LINE
8
Black
10
119.461
20
-125.853
11
119.604
21
-125.71
0
LINE
8
Black
10
119.604
20
-125.71
11
119.89
21
-125.567
0
LINE
8
Black
10
122.176
20
-128.281
11
122.319
21
-128.424
0
LINE
8
Black
10
122.319
20
-128.424
11
122.176
21
-128.567
0
LINE
8
Black
10
122.176
20
-128.567
11
122.033
21
-128.424
0
LINE
8
Black
10
122.033
20
-128.424
11
122.176
21
-128.281
0
LINE
8
Black
10
122.176
20
-128.281
11
122.176
21
-128.567
0
LINE
8
Black
10
124.176
20
-125.567
11
124.461
21
-125.567
0
LINE
8
Black
10
124.461
20
-125.567
11
124.747
21
-125.71
0
LINE
8
Black
10
124.747
20
-125.71
11
124.89
21
-125.853
0
LINE
8
Black
10
124.89
20
-125.853
11
125.033
21
-126.139
0
LINE
8
Black
10
125.033
20
-126.139
11
125.176
21
-126.71
0
LINE
8
Black
10
125.176
20
-126.71
11
125.176
21
-127.424
0
LINE
8
Black
10
125.176
20
-127.424
11
125.033
21
-127.996
0
LINE
8
Black
10
125.033
20
-127.996
11
124.89
21
-128.281
0
LINE
8
Black
10
124.89
20
-128.281
11
124.747
21
-128.424
0
LINE
8
Black
10
124.747
20
-128.424
11
124.461
21
-128.567
0
LINE
8
Black
10
124.461
20
-128.567
11
124.176
21
-128.567
0
LINE
8
Black
10
124.176
20
-128.567
11
123.89
21
-128.424
0
LINE
8
Black
10
123.89
20
-128.424
11
123.747
21
-128.281
0
LINE
8
Black
10
123.747
20
-128.281
11
123.604
21
-127.996
0
LINE
8
Black
10
123.604
20
-127.996
11
123.461
21
-127.424
0
LINE
8
Black
10
123.461
20
-127.424
11
123.461
21
-126.71
0
LINE
8
Black
10
123.461
20
-126.71
11
123.604
21
-126.139
0
LINE
8
Black
10
123.604
20
-126.139
11
123.747
21
-125.853
0
LINE
8
Black
10
123.747
20
-125.853
11
123.89
21
-125.71
0
LINE
8
Black
10
123.89
20
-125.71
11
124.176
21
-125.567
0
LINE
8
Black
10
126.319
20
-125.853
11
126.461
21
-125.71
0
LINE
8
Black
10
126.461
20
-125.71
11
126.747
21
-125.567
0
LINE
8
Black
10
126.747
20
-125.567
11
127.461
21
-125.567
0
LINE
8
Black
10
127.461
20
-125.567
11
127.747
21
-125.71
0
LINE
8
Black
10
127.747
20
-125.71
11
127.89
21
-125.853
0
LINE
8
Black
10
127.89
20
-125.853
11
128.033
21
-126.139
0
LINE
8
Black
10
128.033
20
-126.139
11
128.033
21
-126.424
0
LINE
8
Black
10
128.033
20
-126.424
11
127.89
21
-126.853
0
LINE
8
Black
10
127.89
20
-126.853
11
126.176
21
-128.567
0
LINE
8
Black
10
126.176
20
-128.567
11
128.033
21
-128.567
0
LINE
8
Black
10
130.604
20
-125.567
11
130.033
21
-125.567
0
LINE
8
Black
10
130.033
20
-125.567
11
129.747
21
-125.71
0
LINE
8
Black
10
129.747
20
-125.71
11
129.604
21
-125.853
0
LINE
8
Black
10
129.604
20
-125.853
11
129.319
21
-126.281
0
LINE
8
Black
10
129.319
20
-126.281
11
129.176
21
-126.853
0
LINE
8
Black
10
129.176
20
-126.853
11
129.176
21
-127.996
0
LINE
8
Black
10
129.176
20
-127.996
11
129.319
21
-128.281
0
LINE
8
Black
10
129.319
20
-128.281
11
129.461
21
-128.424
0
LINE
8
Black
10
129.461
20
-128.424
11
129.747
21
-128.567
0
LINE
8
Black
10
129.747
20
-128.567
11
130.319
21
-128.567
0
LINE
8
Black
10
130.319
20
-128.567
11
130.604
21
-128.424
0
LINE
8
Black
10
130.604
20
-128.424
11
130.747
21
-128.281
0
LINE
8
Black
10
130.747
20
-128.281
11
130.89
21
-127.996
0
LINE
8
Black
10
130.89
20
-127.996
11
130.89
21
-127.281
0
LINE
8
Black
10
130.89
20
-127.281
11
130.747
21
-126.996
0
LINE
8
Black
10
130.747
20
-126.996
11
130.604
21
-126.853
0
LINE
8
Black
10
130.604
20
-126.853
11
130.319
21
-126.71
0
LINE
8
Black
10
130.319
20
-126.71
11
129.747
21
-126.71
0
LINE
8
Black
10
129.747
20
-126.71
11
129.461
21
-126.853
0
LINE
8
Black
10
129.461
20
-126.853
11
129.319
21
-126.996
0
LINE
8
Black
10
129.319
20
-126.996
11
129.176
21
-127.281
0
LINE
8
Black
10
132.033
20
-125.567
11
132.033
21
-126.139
0
LINE
8
Black
10
133.176
20
-125.567
11
133.176
21
-126.139
0
LINE
8
Black
10
137.604
20
-129.71
11
137.461
21
-129.567
0
LINE
8
Black
10
137.461
20
-129.567
11
137.176
21
-129.139
0
LINE
8
Black
10
137.176
20
-129.139
11
137.033
21
-128.853
0
LINE
8
Black
10
137.033
20
-128.853
11
136.89
21
-128.424
0
LINE
8
Black
10
136.89
20
-128.424
11
136.747
21
-127.71
0
LINE
8
Black
10
136.747
20
-127.71
11
136.747
21
-127.139
0
LINE
8
Black
10
136.747
20
-127.139
11
136.89
21
-126.424
0
LINE
8
Black
10
136.89
20
-126.424
11
137.033
21
-125.996
0
LINE
8
Black
10
137.033
20
-125.996
11
137.176
21
-125.71
0
LINE
8
Black
10
137.176
20
-125.71
11
137.461
21
-125.281
0
LINE
8
Black
10
137.461
20
-125.281
11
137.604
21
-125.139
0
LINE
8
Black
10
139.319
20
-125.567
11
139.604
21
-125.567
0
LINE
8
Black
10
139.604
20
-125.567
11
139.89
21
-125.71
0
LINE
8
Black
10
139.89
20
-125.71
11
140.033
21
-125.853
0
LINE
8
Black
10
140.033
20
-125.853
11
140.176
21
-126.139
0
LINE
8
Black
10
140.176
20
-126.139
11
140.319
21
-126.71
0
LINE
8
Black
10
140.319
20
-126.71
11
140.319
21
-127.424
0
LINE
8
Black
10
140.319
20
-127.424
11
140.176
21
-127.996
0
LINE
8
Black
10
140.176
20
-127.996
11
140.033
21
-128.281
0
LINE
8
Black
10
140.033
20
-128.281
11
139.89
21
-128.424
0
LINE
8
Black
10
139.89
20
-128.424
11
139.604
21
-128.567
0
LINE
8
Black
10
139.604
20
-128.567
11
139.319
21
-128.567
0
LINE
8
Black
10
139.319
20
-128.567
11
139.033
21
-128.424
0
LINE
8
Black
10
139.033
20
-128.424
11
138.89
21
-128.281
0
LINE
8
Black
10
138.89
20
-128.281
11
138.747
21
-127.996
0
LINE
8
Black
10
138.747
20
-127.996
11
138.604
21
-127.424
0
LINE
8
Black
10
138.604
20
-127.424
11
138.604
21
-126.71
0
LINE
8
Black
10
138.604
20
-126.71
11
138.747
21
-126.139
0
LINE
8
Black
10
138.747
20
-126.139
11
138.89
21
-125.853
0
LINE
8
Black
10
138.89
20
-125.853
11
139.033
21
-125.71
0
LINE
8
Black
10
139.033
20
-125.71
11
139.319
21
-125.567
0
LINE
8
Black
10
143.89
20
-128.567
11
143.89
21
-125.567
0
LINE
8
Black
10
145.176
20
-128.567
11
145.176
21
-126.996
0
LINE
8
Black
10
145.176
20
-126.996
11
145.033
21
-126.71
0
LINE
8
Black
10
145.033
20
-126.71
11
144.747
21
-126.567
0
LINE
8
Black
10
144.747
20
-126.567
11
144.319
21
-126.567
0
LINE
8
Black
10
144.319
20
-126.567
11
144.033
21
-126.71
0
LINE
8
Black
10
144.033
20
-126.71
11
143.89
21
-126.853
0
LINE
8
Black
10
147.033
20
-128.567
11
146.747
21
-128.424
0
LINE
8
Black
10
146.747
20
-128.424
11
146.604
21
-128.281
0
LINE
8
Black
10
146.604
20
-128.281
11
146.461
21
-127.996
0
LINE
8
Black
10
146.461
20
-127.996
11
146.461
21
-127.139
0
LINE
8
Black
10
146.461
20
-127.139
11
146.604
21
-126.853
0
LINE
8
Black
10
146.604
20
-126.853
11
146.747
21
-126.71
0
LINE
8
Black
10
146.747
20
-126.71
11
147.033
21
-126.567
0
LINE
8
Black
10
147.033
20
-126.567
11
147.461
21
-126.567
0
LINE
8
Black
10
147.461
20
-126.567
11
147.747
21
-126.71
0
LINE
8
Black
10
147.747
20
-126.71
11
147.89
21
-126.853
0
LINE
8
Black
10
147.89
20
-126.853
11
148.033
21
-127.139
0
LINE
8
Black
10
148.033
20
-127.139
11
148.033
21
-127.996
0
LINE
8
Black
10
148.033
20
-127.996
11
147.89
21
-128.281
0
LINE
8
Black
10
147.89
20
-128.281
11
147.747
21
-128.424
0
LINE
8
Black
10
147.747
20
-128.424
11
147.461
21
-128.567
0
LINE
8
Black
10
147.461
20
-128.567
11
147.033
21
-128.567
0
LINE
8
Black
10
149.747
20
-128.567
11
149.461
21
-128.424
0
LINE
8
Black
10
149.461
20
-128.424
11
149.319
21
-128.139
0
LINE
8
Black
10
149.319
20
-128.139
11
149.319
21
-125.567
0
LINE
8
Black
10
152.033
20
-128.424
11
151.747
21
-128.567
0
LINE
8
Black
10
151.747
20
-128.567
11
151.176
21
-128.567
0
LINE
8
Black
10
151.176
20
-128.567
11
150.89
21
-128.424
0
LINE
8
Black
10
150.89
20
-128.424
11
150.747
21
-128.139
0
LINE
8
Black
10
150.747
20
-128.139
11
150.747
21
-126.996
0
LINE
8
Black
10
150.747
20
-126.996
11
150.89
21
-126.71
0
LINE
8
Black
10
150.89
20
-126.71
11
151.176
21
-126.567
0
LINE
8
Black
10
151.176
20
-126.567
11
151.747
21
-126.567
0
LINE
8
Black
10
151.747
20
-126.567
11
152.033
21
-126.71
0
LINE
8
Black
10
152.033
20
-126.71
11
152.176
21
-126.996
0
LINE
8
Black
10
152.176
20
-126.996
11
152.176
21
-127.281
0
LINE
8
Black
10
152.176
20
-127.281
11
150.747
21
-127.567
0
LINE
8
Black
10
153.319
20
-128.424
11
153.604
21
-128.567
0
LINE
8
Black
10
153.604
20
-128.567
11
154.176
21
-128.567
0
LINE
8
Black
10
154.176
20
-128.567
11
154.461
21
-128.424
0
LINE
8
Black
10
154.461
20
-128.424
11
154.604
21
-128.139
0
LINE
8
Black
10
154.604
20
-128.139
11
154.604
21
-127.996
0
LINE
8
Black
10
154.604
20
-127.996
11
154.461
21
-127.71
0
LINE
8
Black
10
154.461
20
-127.71
11
154.176
21
-127.567
0
LINE
8
Black
10
154.176
20
-127.567
11
153.747
21
-127.567
0
LINE
8
Black
10
153.747
20
-127.567
11
153.461
21
-127.424
0
LINE
8
Black
10
153.461
20
-127.424
11
153.319
21
-127.139
0
LINE
8
Black
10
153.319
20
-127.139
11
153.319
21
-126.996
0
LINE
8
Black
10
153.319
20
-126.996
11
153.461
21
-126.71
0
LINE
8
Black
10
153.461
20
-126.71
11
153.747
21
-126.567
0
LINE
8
Black
10
153.747
20
-126.567
11
154.176
21
-126.567
0
LINE
8
Black
10
154.176
20
-126.567
11
154.461
21
-126.71
0
LINE
8
Black
10
158.176
20
-127.424
11
160.461
21
-127.424
0
LINE
8
Black
10
159.319
20
-128.567
11
159.319
21
-126.281
0
LINE
8
Black
10
164.033
20
-125.853
11
164.176
21
-125.71
0
LINE
8
Black
10
164.176
20
-125.71
11
164.461
21
-125.567
0
LINE
8
Black
10
164.461
20
-125.567
11
165.176
21
-125.567
0
LINE
8
Black
10
165.176
20
-125.567
11
165.461
21
-125.71
0
LINE
8
Black
10
165.461
20
-125.71
11
165.604
21
-125.853
0
LINE
8
Black
10
165.604
20
-125.853
11
165.747
21
-126.139
0
LINE
8
Black
10
165.747
20
-126.139
11
165.747
21
-126.424
0
LINE
8
Black
10
165.747
20
-126.424
11
165.604
21
-126.853
0
LINE
8
Black
10
165.604
20
-126.853
11
163.89
21
-128.567
0
LINE
8
Black
10
163.89
20
-128.567
11
165.747
21
-128.567
0
LINE
8
Black
10
169.176
20
-128.424
11
169.461
21
-128.567
0
LINE
8
Black
10
169.461
20
-128.567
11
170.033
21
-128.567
0
LINE
8
Black
10
170.033
20
-128.567
11
170.319
21
-128.424
0
LINE
8
Black
10
170.319
20
-128.424
11
170.461
21
-128.139
0
LINE
8
Black
10
170.461
20
-128.139
11
170.461
21
-127.996
0
LINE
8
Black
10
170.461
20
-127.996
11
170.319
21
-127.71
0
LINE
8
Black
10
170.319
20
-127.71
11
170.033
21
-127.567
0
LINE
8
Black
10
170.033
20
-127.567
11
169.604
21
-127.567
0
LINE
8
Black
10
169.604
20
-127.567
11
169.319
21
-127.424
0
LINE
8
Black
10
169.319
20
-127.424
11
169.176
21
-127.139
0
LINE
8
Black
10
169.176
20
-127.139
11
169.176
21
-126.996
0
LINE
8
Black
10
169.176
20
-126.996
11
169.319
21
-126.71
0
LINE
8
Black
10
169.319
20
-126.71
11
169.604
21
-126.567
0
LINE
8
Black
10
169.604
20
-126.567
11
170.033
21
-126.567
0
LINE
8
Black
10
170.033
20
-126.567
11
170.319
21
-126.71
0
LINE
8
Black
10
172.176
20
-128.567
11
171.89
21
-128.424
0
LINE
8
Black
10
171.89
20
-128.424
11
171.747
21
-128.139
0
LINE
8
Black
10
171.747
20
-128.139
11
171.747
21
-125.567
0
LINE
8
Black
10
173.747
20
-128.567
11
173.461
21
-128.424
0
LINE
8
Black
10
173.461
20
-128.424
11
173.319
21
-128.281
0
LINE
8
Black
10
173.319
20
-128.281
11
173.176
21
-127.996
0
LINE
8
Black
10
173.176
20
-127.996
11
173.176
21
-127.139
0
LINE
8
Black
10
173.176
20
-127.139
11
173.319
21
-126.853
0
LINE
8
Black
10
173.319
20
-126.853
11
173.461
21
-126.71
0
LINE
8
Black
10
173.461
20
-126.71
11
173.747
21
-126.567
0
LINE
8
Black
10
173.747
20
-126.567
11
174.176
21
-126.567
0
LINE
8
Black
10
174.176
20
-126.567
11
174.461
21
-126.71
0
LINE
8
Black
10
174.461
20
-126.71
11
174.604
21
-126.853
0
LINE
8
Black
10
174.604
20
-126.853
11
174.747
21
-127.139
0
LINE
8
Black
10
174.747
20
-127.139
11
174.747
21
-127.996
0
LINE
8
Black
10
174.747
20
-127.996
11
174.604
21
-128.281
0
LINE
8
Black
10
174.604
20
-128.281
11
174.461
21
-128.424
0
LINE
8
Black
10
174.461
20
-128.424
11
174.176
21
-128.567
0
LINE
8
Black
10
174.176
20
-128.567
11
173.747
21
-128.567
0
LINE
8
Black
10
175.604
20
-126.567
11
176.747
21
-126.567
0
LINE
8
Black
10
176.033
20
-125.567
11
176.033
21
-128.139
0
LINE
8
Black
10
176.033
20
-128.139
11
176.176
21
-128.424
0
LINE
8
Black
10
176.176
20
-128.424
11
176.461
21
-128.567
0
LINE
8
Black
10
176.461
20
-128.567
11
176.747
21
-128.567
0
LINE
8
Black
10
177.604
20
-128.424
11
177.89
21
-128.567
0
LINE
8
Black
10
177.89
20
-128.567
11
178.461
21
-128.567
0
LINE
8
Black
10
178.461
20
-128.567
11
178.747
21
-128.424
0
LINE
8
Black
10
178.747
20
-128.424
11
178.89
21
-128.139
0
LINE
8
Black
10
178.89
20
-128.139
11
178.89
21
-127.996
0
LINE
8
Black
10
178.89
20
-127.996
11
178.747
21
-127.71
0
LINE
8
Black
10
178.747
20
-127.71
11
178.461
21
-127.567
0
LINE
8
Black
10
178.461
20
-127.567
11
178.033
21
-127.567
0
LINE
8
Black
10
178.033
20
-127.567
11
177.747
21
-127.424
0
LINE
8
Black
10
177.747
20
-127.424
11
177.604
21
-127.139
0
LINE
8
Black
10
177.604
20
-127.139
11
177.604
21
-126.996
0
LINE
8
Black
10
177.604
20
-126.996
11
177.747
21
-126.71
0
LINE
8
Black
10
177.747
20
-126.71
11
178.033
21
-126.567
0
LINE
8
Black
10
178.033
20
-126.567
11
178.461
21
-126.567
0
LINE
8
Black
10
178.461
20
-126.567
11
178.747
21
-126.71
0
LINE
8
Black
10
179.89
20
-129.71
11
180.033
21
-129.567
0
LINE
8
Black
10
180.033
20
-129.567
11
180.319
21
-129.139
0
LINE
8
Black
10
180.319
20
-129.139
11
180.461
21
-128.853
0
LINE
8
Black
10
180.461
20
-128.853
11
180.604
21
-128.424
0
LINE
8
Black
10
180.604
20
-128.424
11
180.747
21
-127.71
0
LINE
8
Black
10
180.747
20
-127.71
11
180.747
21
-127.139
0
LINE
8
Black
10
180.747
20
-127.139
11
180.604
21
-126.424
0
LINE
8
Black
10
180.604
20
-126.424
11
180.461
21
-125.996
0
LINE
8
Black
10
180.461
20
-125.996
11
180.319
21
-125.71
0
LINE
8
Black
10
180.319
20
-125.71
11
180.033
21
-125.281
0
LINE
8
Black
10
180.033
20
-125.281
11
179.89
21
-125.139
0
LINE
8
Black
10
90.4775
20
-130.758
11
90.4775
21
-131.583
0
LINE
8
Black
10
90.065
20
-131.17
11
90.89
21
-131.17
0
LINE
8
Black
10
94.1757
20
-129.527
11
94.4614
21
-129.527
0
LINE
8
Black
10
94.4614
20
-129.527
11
94.7471
21
-129.67
0
LINE
8
Black
10
94.7471
20
-129.67
11
94.89
21
-129.813
0
LINE
8
Black
10
94.89
20
-129.813
11
95.0329
21
-130.099
0
LINE
8
Black
10
95.0329
20
-130.099
11
95.1757
21
-130.67
0
LINE
8
Black
10
95.1757
20
-130.67
11
95.1757
21
-131.384
0
LINE
8
Black
10
95.1757
20
-131.384
11
95.0329
21
-131.956
0
LINE
8
Black
10
95.0329
20
-131.956
11
94.89
21
-132.241
0
LINE
8
Black
10
94.89
20
-132.241
11
94.7471
21
-132.384
0
LINE
8
Black
10
94.7471
20
-132.384
11
94.4614
21
-132.527
0
LINE
8
Black
10
94.4614
20
-132.527
11
94.1757
21
-132.527
0
LINE
8
Black
10
94.1757
20
-132.527
11
93.89
21
-132.384
0
LINE
8
Black
10
93.89
20
-132.384
11
93.7471
21
-132.241
0
LINE
8
Black
10
93.7471
20
-132.241
11
93.6043
21
-131.956
0
LINE
8
Black
10
93.6043
20
-131.956
11
93.4614
21
-131.384
0
LINE
8
Black
10
93.4614
20
-131.384
11
93.4614
21
-130.67
0
LINE
8
Black
10
93.4614
20
-130.67
11
93.6043
21
-130.099
0
LINE
8
Black
10
93.6043
20
-130.099
11
93.7471
21
-129.813
0
LINE
8
Black
10
93.7471
20
-129.813
11
93.89
21
-129.67
0
LINE
8
Black
10
93.89
20
-129.67
11
94.1757
21
-129.527
0
LINE
8
Black
10
96.4614
20
-132.241
11
96.6043
21
-132.384
0
LINE
8
Black
10
96.6043
20
-132.384
11
96.4614
21
-132.527
0
LINE
8
Black
10
96.4614
20
-132.527
11
96.3186
21
-132.384
0
LINE
8
Black
10
96.3186
20
-132.384
11
96.4614
21
-132.241
0
LINE
8
Black
10
96.4614
20
-132.241
11
96.4614
21
-132.527
0
LINE
8
Black
10
98.3186
20
-130.813
11
98.0329
21
-130.67
0
LINE
8
Black
10
98.0329
20
-130.67
11
97.89
21
-130.527
0
LINE
8
Black
10
97.89
20
-130.527
11
97.7471
21
-130.241
0
LINE
8
Black
10
97.7471
20
-130.241
11
97.7471
21
-130.099
0
LINE
8
Black
10
97.7471
20
-130.099
11
97.89
21
-129.813
0
LINE
8
Black
10
97.89
20
-129.813
11
98.0329
21
-129.67
0
LINE
8
Black
10
98.0329
20
-129.67
11
98.3186
21
-129.527
0
LINE
8
Black
10
98.3186
20
-129.527
11
98.89
21
-129.527
0
LINE
8
Black
10
98.89
20
-129.527
11
99.1757
21
-129.67
0
LINE
8
Black
10
99.1757
20
-129.67
11
99.3186
21
-129.813
0
LINE
8
Black
10
99.3186
20
-129.813
11
99.4614
21
-130.099
0
LINE
8
Black
10
99.4614
20
-130.099
11
99.4614
21
-130.241
0
LINE
8
Black
10
99.4614
20
-130.241
11
99.3186
21
-130.527
0
LINE
8
Black
10
99.3186
20
-130.527
11
99.1757
21
-130.67
0
LINE
8
Black
10
99.1757
20
-130.67
11
98.89
21
-130.813
0
LINE
8
Black
10
98.89
20
-130.813
11
98.3186
21
-130.813
0
LINE
8
Black
10
98.3186
20
-130.813
11
98.0329
21
-130.956
0
LINE
8
Black
10
98.0329
20
-130.956
11
97.89
21
-131.099
0
LINE
8
Black
10
97.89
20
-131.099
11
97.7471
21
-131.384
0
LINE
8
Black
10
97.7471
20
-131.384
11
97.7471
21
-131.956
0
LINE
8
Black
10
97.7471
20
-131.956
11
97.89
21
-132.241
0
LINE
8
Black
10
97.89
20
-132.241
11
98.0329
21
-132.384
0
LINE
8
Black
10
98.0329
20
-132.384
11
98.3186
21
-132.527
0
LINE
8
Black
10
98.3186
20
-132.527
11
98.89
21
-132.527
0
LINE
8
Black
10
98.89
20
-132.527
11
99.1757
21
-132.384
0
LINE
8
Black
10
99.1757
20
-132.384
11
99.3186
21
-132.241
0
LINE
8
Black
10
99.3186
20
-132.241
11
99.4614
21
-131.956
0
LINE
8
Black
10
99.4614
20
-131.956
11
99.4614
21
-131.384
0
LINE
8
Black
10
99.4614
20
-131.384
11
99.3186
21
-131.099
0
LINE
8
Black
10
99.3186
20
-131.099
11
99.1757
21
-130.956
0
LINE
8
Black
10
99.1757
20
-130.956
11
98.89
21
-130.813
0
LINE
8
Black
10
100.604
20
-129.813
11
100.747
21
-129.67
0
LINE
8
Black
10
100.747
20
-129.67
11
101.033
21
-129.527
0
LINE
8
Black
10
101.033
20
-129.527
11
101.747
21
-129.527
0
LINE
8
Black
10
101.747
20
-129.527
11
102.033
21
-129.67
0
LINE
8
Black
10
102.033
20
-129.67
11
102.176
21
-129.813
0
LINE
8
Black
10
102.176
20
-129.813
11
102.319
21
-130.099
0
LINE
8
Black
10
102.319
20
-130.099
11
102.319
21
-130.384
0
LINE
8
Black
10
102.319
20
-130.384
11
102.176
21
-130.813
0
LINE
8
Black
10
102.176
20
-130.813
11
100.461
21
-132.527
0
LINE
8
Black
10
100.461
20
-132.527
11
102.319
21
-132.527
0
LINE
8
Black
10
103.604
20
-132.527
11
103.604
21
-130.527
0
LINE
8
Black
10
103.604
20
-130.813
11
103.747
21
-130.67
0
LINE
8
Black
10
103.747
20
-130.67
11
104.033
21
-130.527
0
LINE
8
Black
10
104.033
20
-130.527
11
104.461
21
-130.527
0
LINE
8
Black
10
104.461
20
-130.527
11
104.747
21
-130.67
0
LINE
8
Black
10
104.747
20
-130.67
11
104.89
21
-130.956
0
LINE
8
Black
10
104.89
20
-130.956
11
104.89
21
-132.527
0
LINE
8
Black
10
104.89
20
-130.956
11
105.033
21
-130.67
0
LINE
8
Black
10
105.033
20
-130.67
11
105.319
21
-130.527
0
LINE
8
Black
10
105.319
20
-130.527
11
105.747
21
-130.527
0
LINE
8
Black
10
105.747
20
-130.527
11
106.033
21
-130.67
0
LINE
8
Black
10
106.033
20
-130.67
11
106.176
21
-130.956
0
LINE
8
Black
10
106.176
20
-130.956
11
106.176
21
-132.527
0
LINE
8
Black
10
107.604
20
-132.527
11
107.604
21
-130.527
0
LINE
8
Black
10
107.604
20
-130.813
11
107.747
21
-130.67
0
LINE
8
Black
10
107.747
20
-130.67
11
108.033
21
-130.527
0
LINE
8
Black
10
108.033
20
-130.527
11
108.461
21
-130.527
0
LINE
8
Black
10
108.461
20
-130.527
11
108.747
21
-130.67
0
LINE
8
Black
10
108.747
20
-130.67
11
108.89
21
-130.956
0
LINE
8
Black
10
108.89
20
-130.956
11
108.89
21
-132.527
0
LINE
8
Black
10
108.89
20
-130.956
11
109.033
21
-130.67
0
LINE
8
Black
10
109.033
20
-130.67
11
109.319
21
-130.527
0
LINE
8
Black
10
109.319
20
-130.527
11
109.747
21
-130.527
0
LINE
8
Black
10
109.747
20
-130.527
11
110.033
21
-130.67
0
LINE
8
Black
10
110.033
20
-130.67
11
110.176
21
-130.956
0
LINE
8
Black
10
110.176
20
-130.956
11
110.176
21
-132.527
0
LINE
8
Black
10
116.033
20
-129.384
11
113.461
21
-133.241
0
LINE
8
Black
10
119.89
20
-129.527
11
120.176
21
-129.527
0
LINE
8
Black
10
120.176
20
-129.527
11
120.461
21
-129.67
0
LINE
8
Black
10
120.461
20
-129.67
11
120.604
21
-129.813
0
LINE
8
Black
10
120.604
20
-129.813
11
120.747
21
-130.099
0
LINE
8
Black
10
120.747
20
-130.099
11
120.89
21
-130.67
0
LINE
8
Black
10
120.89
20
-130.67
11
120.89
21
-131.384
0
LINE
8
Black
10
120.89
20
-131.384
11
120.747
21
-131.956
0
LINE
8
Black
10
120.747
20
-131.956
11
120.604
21
-132.241
0
LINE
8
Black
10
120.604
20
-132.241
11
120.461
21
-132.384
0
LINE
8
Black
10
120.461
20
-132.384
11
120.176
21
-132.527
0
LINE
8
Black
10
120.176
20
-132.527
11
119.89
21
-132.527
0
LINE
8
Black
10
119.89
20
-132.527
11
119.604
21
-132.384
0
LINE
8
Black
10
119.604
20
-132.384
11
119.461
21
-132.241
0
LINE
8
Black
10
119.461
20
-132.241
11
119.319
21
-131.956
0
LINE
8
Black
10
119.319
20
-131.956
11
119.176
21
-131.384
0
LINE
8
Black
10
119.176
20
-131.384
11
119.176
21
-130.67
0
LINE
8
Black
10
119.176
20
-130.67
11
119.319
21
-130.099
0
LINE
8
Black
10
119.319
20
-130.099
11
119.461
21
-129.813
0
LINE
8
Black
10
119.461
20
-129.813
11
119.604
21
-129.67
0
LINE
8
Black
10
119.604
20
-129.67
11
119.89
21
-129.527
0
LINE
8
Black
10
122.176
20
-132.241
11
122.319
21
-132.384
0
LINE
8
Black
10
122.319
20
-132.384
11
122.176
21
-132.527
0
LINE
8
Black
10
122.176
20
-132.527
11
122.033
21
-132.384
0
LINE
8
Black
10
122.033
20
-132.384
11
122.176
21
-132.241
0
LINE
8
Black
10
122.176
20
-132.241
11
122.176
21
-132.527
0
LINE
8
Black
10
124.176
20
-129.527
11
124.461
21
-129.527
0
LINE
8
Black
10
124.461
20
-129.527
11
124.747
21
-129.67
0
LINE
8
Black
10
124.747
20
-129.67
11
124.89
21
-129.813
0
LINE
8
Black
10
124.89
20
-129.813
11
125.033
21
-130.099
0
LINE
8
Black
10
125.033
20
-130.099
11
125.176
21
-130.67
0
LINE
8
Black
10
125.176
20
-130.67
11
125.176
21
-131.384
0
LINE
8
Black
10
125.176
20
-131.384
11
125.033
21
-131.956
0
LINE
8
Black
10
125.033
20
-131.956
11
124.89
21
-132.241
0
LINE
8
Black
10
124.89
20
-132.241
11
124.747
21
-132.384
0
LINE
8
Black
10
124.747
20
-132.384
11
124.461
21
-132.527
0
LINE
8
Black
10
124.461
20
-132.527
11
124.176
21
-132.527
0
LINE
8
Black
10
124.176
20
-132.527
11
123.89
21
-132.384
0
LINE
8
Black
10
123.89
20
-132.384
11
123.747
21
-132.241
0
LINE
8
Black
10
123.747
20
-132.241
11
123.604
21
-131.956
0
LINE
8
Black
10
123.604
20
-131.956
11
123.461
21
-131.384
0
LINE
8
Black
10
123.461
20
-131.384
11
123.461
21
-130.67
0
LINE
8
Black
10
123.461
20
-130.67
11
123.604
21
-130.099
0
LINE
8
Black
10
123.604
20
-130.099
11
123.747
21
-129.813
0
LINE
8
Black
10
123.747
20
-129.813
11
123.89
21
-129.67
0
LINE
8
Black
10
123.89
20
-129.67
11
124.176
21
-129.527
0
LINE
8
Black
10
126.176
20
-129.527
11
128.033
21
-129.527
0
LINE
8
Black
10
128.033
20
-129.527
11
127.033
21
-130.67
0
LINE
8
Black
10
127.033
20
-130.67
11
127.461
21
-130.67
0
LINE
8
Black
10
127.461
20
-130.67
11
127.747
21
-130.813
0
LINE
8
Black
10
127.747
20
-130.813
11
127.89
21
-130.956
0
LINE
8
Black
10
127.89
20
-130.956
11
128.033
21
-131.241
0
LINE
8
Black
10
128.033
20
-131.241
11
128.033
21
-131.956
0
LINE
8
Black
10
128.033
20
-131.956
11
127.89
21
-132.241
0
LINE
8
Black
10
127.89
20
-132.241
11
127.747
21
-132.384
0
LINE
8
Black
10
127.747
20
-132.384
11
127.461
21
-132.527
0
LINE
8
Black
10
127.461
20
-132.527
11
126.604
21
-132.527
0
LINE
8
Black
10
126.604
20
-132.527
11
126.319
21
-132.384
0
LINE
8
Black
10
126.319
20
-132.384
11
126.176
21
-132.241
0
LINE
8
Black
10
129.176
20
-129.813
11
129.319
21
-129.67
0
LINE
8
Black
10
129.319
20
-129.67
11
129.604
21
-129.527
0
LINE
8
Black
10
129.604
20
-129.527
11
130.319
21
-129.527
0
LINE
8
Black
10
130.319
20
-129.527
11
130.604
21
-129.67
0
LINE
8
Black
10
130.604
20
-129.67
11
130.747
21
-129.813
0
LINE
8
Black
10
130.747
20
-129.813
11
130.89
21
-130.099
0
LINE
8
Black
10
130.89
20
-130.099
11
130.89
21
-130.384
0
LINE
8
Black
10
130.89
20
-130.384
11
130.747
21
-130.813
0
LINE
8
Black
10
130.747
20
-130.813
11
129.033
21
-132.527
0
LINE
8
Black
10
129.033
20
-132.527
11
130.89
21
-132.527
0
LINE
8
Black
10
132.033
20
-129.527
11
132.033
21
-130.099
0
LINE
8
Black
10
133.176
20
-129.527
11
133.176
21
-130.099
0
LINE
8
Black
10
137.604
20
-133.67
11
137.461
21
-133.527
0
LINE
8
Black
10
137.461
20
-133.527
11
137.176
21
-133.099
0
LINE
8
Black
10
137.176
20
-133.099
11
137.033
21
-132.813
0
LINE
8
Black
10
137.033
20
-132.813
11
136.89
21
-132.384
0
LINE
8
Black
10
136.89
20
-132.384
11
136.747
21
-131.67
0
LINE
8
Black
10
136.747
20
-131.67
11
136.747
21
-131.099
0
LINE
8
Black
10
136.747
20
-131.099
11
136.89
21
-130.384
0
LINE
8
Black
10
136.89
20
-130.384
11
137.033
21
-129.956
0
LINE
8
Black
10
137.033
20
-129.956
11
137.176
21
-129.67
0
LINE
8
Black
10
137.176
20
-129.67
11
137.461
21
-129.241
0
LINE
8
Black
10
137.461
20
-129.241
11
137.604
21
-129.099
0
LINE
8
Black
10
139.319
20
-129.527
11
139.604
21
-129.527
0
LINE
8
Black
10
139.604
20
-129.527
11
139.89
21
-129.67
0
LINE
8
Black
10
139.89
20
-129.67
11
140.033
21
-129.813
0
LINE
8
Black
10
140.033
20
-129.813
11
140.176
21
-130.099
0
LINE
8
Black
10
140.176
20
-130.099
11
140.319
21
-130.67
0
LINE
8
Black
10
140.319
20
-130.67
11
140.319
21
-131.384
0
LINE
8
Black
10
140.319
20
-131.384
11
140.176
21
-131.956
0
LINE
8
Black
10
140.176
20
-131.956
11
140.033
21
-132.241
0
LINE
8
Black
10
140.033
20
-132.241
11
139.89
21
-132.384
0
LINE
8
Black
10
139.89
20
-132.384
11
139.604
21
-132.527
0
LINE
8
Black
10
139.604
20
-132.527
11
139.319
21
-132.527
0
LINE
8
Black
10
139.319
20
-132.527
11
139.033
21
-132.384
0
LINE
8
Black
10
139.033
20
-132.384
11
138.89
21
-132.241
0
LINE
8
Black
10
138.89
20
-132.241
11
138.747
21
-131.956
0
LINE
8
Black
10
138.747
20
-131.956
11
138.604
21
-131.384
0
LINE
8
Black
10
138.604
20
-131.384
11
138.604
21
-130.67
0
LINE
8
Black
10
138.604
20
-130.67
11
138.747
21
-130.099
0
LINE
8
Black
10
138.747
20
-130.099
11
138.89
21
-129.813
0
LINE
8
Black
10
138.89
20
-129.813
11
139.033
21
-129.67
0
LINE
8
Black
10
139.033
20
-129.67
11
139.319
21
-129.527
0
LINE
8
Black
10
143.89
20
-132.527
11
143.89
21
-129.527
0
LINE
8
Black
10
145.176
20
-132.527
11
145.176
21
-130.956
0
LINE
8
Black
10
145.176
20
-130.956
11
145.033
21
-130.67
0
LINE
8
Black
10
145.033
20
-130.67
11
144.747
21
-130.527
0
LINE
8
Black
10
144.747
20
-130.527
11
144.319
21
-130.527
0
LINE
8
Black
10
144.319
20
-130.527
11
144.033
21
-130.67
0
LINE
8
Black
10
144.033
20
-130.67
11
143.89
21
-130.813
0
LINE
8
Black
10
147.033
20
-132.527
11
146.747
21
-132.384
0
LINE
8
Black
10
146.747
20
-132.384
11
146.604
21
-132.241
0
LINE
8
Black
10
146.604
20
-132.241
11
146.461
21
-131.956
0
LINE
8
Black
10
146.461
20
-131.956
11
146.461
21
-131.099
0
LINE
8
Black
10
146.461
20
-131.099
11
146.604
21
-130.813
0
LINE
8
Black
10
146.604
20
-130.813
11
146.747
21
-130.67
0
LINE
8
Black
10
146.747
20
-130.67
11
147.033
21
-130.527
0
LINE
8
Black
10
147.033
20
-130.527
11
147.461
21
-130.527
0
LINE
8
Black
10
147.461
20
-130.527
11
147.747
21
-130.67
0
LINE
8
Black
10
147.747
20
-130.67
11
147.89
21
-130.813
0
LINE
8
Black
10
147.89
20
-130.813
11
148.033
21
-131.099
0
LINE
8
Black
10
148.033
20
-131.099
11
148.033
21
-131.956
0
LINE
8
Black
10
148.033
20
-131.956
11
147.89
21
-132.241
0
LINE
8
Black
10
147.89
20
-132.241
11
147.747
21
-132.384
0
LINE
8
Black
10
147.747
20
-132.384
11
147.461
21
-132.527
0
LINE
8
Black
10
147.461
20
-132.527
11
147.033
21
-132.527
0
LINE
8
Black
10
149.747
20
-132.527
11
149.461
21
-132.384
0
LINE
8
Black
10
149.461
20
-132.384
11
149.319
21
-132.099
0
LINE
8
Black
10
149.319
20
-132.099
11
149.319
21
-129.527
0
LINE
8
Black
10
152.033
20
-132.384
11
151.747
21
-132.527
0
LINE
8
Black
10
151.747
20
-132.527
11
151.176
21
-132.527
0
LINE
8
Black
10
151.176
20
-132.527
11
150.89
21
-132.384
0
LINE
8
Black
10
150.89
20
-132.384
11
150.747
21
-132.099
0
LINE
8
Black
10
150.747
20
-132.099
11
150.747
21
-130.956
0
LINE
8
Black
10
150.747
20
-130.956
11
150.89
21
-130.67
0
LINE
8
Black
10
150.89
20
-130.67
11
151.176
21
-130.527
0
LINE
8
Black
10
151.176
20
-130.527
11
151.747
21
-130.527
0
LINE
8
Black
10
151.747
20
-130.527
11
152.033
21
-130.67
0
LINE
8
Black
10
152.033
20
-130.67
11
152.176
21
-130.956
0
LINE
8
Black
10
152.176
20
-130.956
11
152.176
21
-131.241
0
LINE
8
Black
10
152.176
20
-131.241
11
150.747
21
-131.527
0
LINE
8
Black
10
153.319
20
-132.384
11
153.604
21
-132.527
0
LINE
8
Black
10
153.604
20
-132.527
11
154.176
21
-132.527
0
LINE
8
Black
10
154.176
20
-132.527
11
154.461
21
-132.384
0
LINE
8
Black
10
154.461
20
-132.384
11
154.604
21
-132.099
0
LINE
8
Black
10
154.604
20
-132.099
11
154.604
21
-131.956
0
LINE
8
Black
10
154.604
20
-131.956
11
154.461
21
-131.67
0
LINE
8
Black
10
154.461
20
-131.67
11
154.176
21
-131.527
0
LINE
8
Black
10
154.176
20
-131.527
11
153.747
21
-131.527
0
LINE
8
Black
10
153.747
20
-131.527
11
153.461
21
-131.384
0
LINE
8
Black
10
153.461
20
-131.384
11
153.319
21
-131.099
0
LINE
8
Black
10
153.319
20
-131.099
11
153.319
21
-130.956
0
LINE
8
Black
10
153.319
20
-130.956
11
153.461
21
-130.67
0
LINE
8
Black
10
153.461
20
-130.67
11
153.747
21
-130.527
0
LINE
8
Black
10
153.747
20
-130.527
11
154.176
21
-130.527
0
LINE
8
Black
10
154.176
20
-130.527
11
154.461
21
-130.67
0
LINE
8
Black
10
158.176
20
-131.384
11
160.461
21
-131.384
0
LINE
8
Black
10
159.319
20
-132.527
11
159.319
21
-130.241
0
LINE
8
Black
10
164.033
20
-129.813
11
164.176
21
-129.67
0
LINE
8
Black
10
164.176
20
-129.67
11
164.461
21
-129.527
0
LINE
8
Black
10
164.461
20
-129.527
11
165.176
21
-129.527
0
LINE
8
Black
10
165.176
20
-129.527
11
165.461
21
-129.67
0
LINE
8
Black
10
165.461
20
-129.67
11
165.604
21
-129.813
0
LINE
8
Black
10
165.604
20
-129.813
11
165.747
21
-130.099
0
LINE
8
Black
10
165.747
20
-130.099
11
165.747
21
-130.384
0
LINE
8
Black
10
165.747
20
-130.384
11
165.604
21
-130.813
0
LINE
8
Black
10
165.604
20
-130.813
11
163.89
21
-132.527
0
LINE
8
Black
10
163.89
20
-132.527
11
165.747
21
-132.527
0
LINE
8
Black
10
169.176
20
-132.384
11
169.461
21
-132.527
0
LINE
8
Black
10
169.461
20
-132.527
11
170.033
21
-132.527
0
LINE
8
Black
10
170.033
20
-132.527
11
170.319
21
-132.384
0
LINE
8
Black
10
170.319
20
-132.384
11
170.461
21
-132.099
0
LINE
8
Black
10
170.461
20
-132.099
11
170.461
21
-131.956
0
LINE
8
Black
10
170.461
20
-131.956
11
170.319
21
-131.67
0
LINE
8
Black
10
170.319
20
-131.67
11
170.033
21
-131.527
0
LINE
8
Black
10
170.033
20
-131.527
11
169.604
21
-131.527
0
LINE
8
Black
10
169.604
20
-131.527
11
169.319
21
-131.384
0
LINE
8
Black
10
169.319
20
-131.384
11
169.176
21
-131.099
0
LINE
8
Black
10
169.176
20
-131.099
11
169.176
21
-130.956
0
LINE
8
Black
10
169.176
20
-130.956
11
169.319
21
-130.67
0
LINE
8
Black
10
169.319
20
-130.67
11
169.604
21
-130.527
0
LINE
8
Black
10
169.604
20
-130.527
11
170.033
21
-130.527
0
LINE
8
Black
10
170.033
20
-130.527
11
170.319
21
-130.67
0
LINE
8
Black
10
172.176
20
-132.527
11
171.89
21
-132.384
0
LINE
8
Black
10
171.89
20
-132.384
11
171.747
21
-132.099
0
LINE
8
Black
10
171.747
20
-132.099
11
171.747
21
-129.527
0
LINE
8
Black
10
173.747
20
-132.527
11
173.461
21
-132.384
0
LINE
8
Black
10
173.461
20
-132.384
11
173.319
21
-132.241
0
LINE
8
Black
10
173.319
20
-132.241
11
173.176
21
-131.956
0
LINE
8
Black
10
173.176
20
-131.956
11
173.176
21
-131.099
0
LINE
8
Black
10
173.176
20
-131.099
11
173.319
21
-130.813
0
LINE
8
Black
10
173.319
20
-130.813
11
173.461
21
-130.67
0
LINE
8
Black
10
173.461
20
-130.67
11
173.747
21
-130.527
0
LINE
8
Black
10
173.747
20
-130.527
11
174.176
21
-130.527
0
LINE
8
Black
10
174.176
20
-130.527
11
174.461
21
-130.67
0
LINE
8
Black
10
174.461
20
-130.67
11
174.604
21
-130.813
0
LINE
8
Black
10
174.604
20
-130.813
11
174.747
21
-131.099
0
LINE
8
Black
10
174.747
20
-131.099
11
174.747
21
-131.956
0
LINE
8
Black
10
174.747
20
-131.956
11
174.604
21
-132.241
0
LINE
8
Black
10
174.604
20
-132.241
11
174.461
21
-132.384
0
LINE
8
Black
10
174.461
20
-132.384
11
174.176
21
-132.527
0
LINE
8
Black
10
174.176
20
-132.527
11
173.747
21
-132.527
0
LINE
8
Black
10
175.604
20
-130.527
11
176.747
21
-130.527
0
LINE
8
Black
10
176.033
20
-129.527
11
176.033
21
-132.099
0
LINE
8
Black
10
176.033
20
-132.099
11
176.176
21
-132.384
0
LINE
8
Black
10
176.176
20
-132.384
11
176.461
21
-132.527
0
LINE
8
Black
10
176.461
20
-132.527
11
176.747
21
-132.527
0
LINE
8
Black
10
177.604
20
-132.384
11
177.89
21
-132.527
0
LINE
8
Black
10
177.89
20
-132.527
11
178.461
21
-132.527
0
LINE
8
Black
10
178.461
20
-132.527
11
178.747
21
-132.384
0
LINE
8
Black
10
178.747
20
-132.384
11
178.89
21
-132.099
0
LINE
8
Black
10
178.89
20
-132.099
11
178.89
21
-131.956
0
LINE
8
Black
10
178.89
20
-131.956
11
178.747
21
-131.67
0
LINE
8
Black
10
178.747
20
-131.67
11
178.461
21
-131.527
0
LINE
8
Black
10
178.461
20
-131.527
11
178.033
21
-131.527
0
LINE
8
Black
10
178.033
20
-131.527
11
177.747
21
-131.384
0
LINE
8
Black
10
177.747
20
-131.384
11
177.604
21
-131.099
0
LINE
8
Black
10
177.604
20
-131.099
11
177.604
21
-130.956
0
LINE
8
Black
10
177.604
20
-130.956
11
177.747
21
-130.67
0
LINE
8
Black
10
177.747
20
-130.67
11
178.033
21
-130.527
0
LINE
8
Black
10
178.033
20
-130.527
11
178.461
21
-130.527
0
LINE
8
Black
10
178.461
20
-130.527
11
178.747
21
-130.67
0
LINE
8
Black
10
179.89
20
-133.67
11
180.033
21
-133.527
0
LINE
8
Black
10
180.033
20
-133.527
11
180.319
21
-133.099
0
LINE
8
Black
10
180.319
20
-133.099
11
180.461
21
-132.813
0
LINE
8
Black
10
180.461
20
-132.813
11
180.604
21
-132.384
0
LINE
8
Black
10
180.604
20
-132.384
11
180.747
21
-131.67
0
LINE
8
Black
10
180.747
20
-131.67
11
180.747
21
-131.099
0
LINE
8
Black
10
180.747
20
-131.099
11
180.604
21
-130.384
0
LINE
8
Black
10
180.604
20
-130.384
11
180.461
21
-129.956
0
LINE
8
Black
10
180.461
20
-129.956
11
180.319
21
-129.67
0
LINE
8
Black
10
180.319
20
-129.67
11
180.033
21
-129.241
0
LINE
8
Black
10
180.033
20
-129.241
11
179.89
21
-129.099
0
LINE
8
Black
10
90.7436
20
-135.484
11
90.7436
21
-134.776
0
LINE
8
Black
10
90.7436
20
-134.776
11
90.0364
21
-134.776
0
LINE
8
Black
10
90.0364
20
-134.776
11
90.0364
21
-135.484
0
LINE
8
Black
10
90.0364
20
-135.484
11
90.7436
21
-135.484
0
LINE
8
Black
10
95.1757
20
-136.487
11
93.4614
21
-136.487
0
LINE
8
Black
10
94.3186
20
-136.487
11
94.3186
21
-133.487
0
LINE
8
Black
10
94.3186
20
-133.487
11
94.0329
21
-133.916
0
LINE
8
Black
10
94.0329
20
-133.916
11
93.7471
21
-134.201
0
LINE
8
Black
10
93.7471
20
-134.201
11
93.4614
21
-134.344
0
LINE
8
Black
10
96.4614
20
-136.201
11
96.6043
21
-136.344
0
LINE
8
Black
10
96.6043
20
-136.344
11
96.4614
21
-136.487
0
LINE
8
Black
10
96.4614
20
-136.487
11
96.3186
21
-136.344
0
LINE
8
Black
10
96.3186
20
-136.344
11
96.4614
21
-136.201
0
LINE
8
Black
10
96.4614
20
-136.201
11
96.4614
21
-136.487
0
LINE
8
Black
10
98.4614
20
-133.487
11
98.7471
21
-133.487
0
LINE
8
Black
10
98.7471
20
-133.487
11
99.0329
21
-133.63
0
LINE
8
Black
10
99.0329
20
-133.63
11
99.1757
21
-133.773
0
LINE
8
Black
10
99.1757
20
-133.773
11
99.3186
21
-134.059
0
LINE
8
Black
10
99.3186
20
-134.059
11
99.4614
21
-134.63
0
LINE
8
Black
10
99.4614
20
-134.63
11
99.4614
21
-135.344
0
LINE
8
Black
10
99.4614
20
-135.344
11
99.3186
21
-135.916
0
LINE
8
Black
10
99.3186
20
-135.916
11
99.1757
21
-136.201
0
LINE
8
Black
10
99.1757
20
-136.201
11
99.0329
21
-136.344
0
LINE
8
Black
10
99.0329
20
-136.344
11
98.7471
21
-136.487
0
LINE
8
Black
10
98.7471
20
-136.487
11
98.4614
21
-136.487
0
LINE
8
Black
10
98.4614
20
-136.487
11
98.1757
21
-136.344
0
LINE
8
Black
10
98.1757
20
-136.344
11
98.0329
21
-136.201
0
LINE
8
Black
10
98.0329
20
-136.201
11
97.89
21
-135.916
0
LINE
8
Black
10
97.89
20
-135.916
11
97.7471
21
-135.344
0
LINE
8
Black
10
97.7471
20
-135.344
11
97.7471
21
-134.63
0
LINE
8
Black
10
97.7471
20
-134.63
11
97.89
21
-134.059
0
LINE
8
Black
10
97.89
20
-134.059
11
98.0329
21
-133.773
0
LINE
8
Black
10
98.0329
20
-133.773
11
98.1757
21
-133.63
0
LINE
8
Black
10
98.1757
20
-133.63
11
98.4614
21
-133.487
0
LINE
8
Black
10
101.319
20
-133.487
11
101.604
21
-133.487
0
LINE
8
Black
10
101.604
20
-133.487
11
101.89
21
-133.63
0
LINE
8
Black
10
101.89
20
-133.63
11
102.033
21
-133.773
0
LINE
8
Black
10
102.033
20
-133.773
11
102.176
21
-134.059
0
LINE
8
Black
10
102.176
20
-134.059
11
102.319
21
-134.63
0
LINE
8
Black
10
102.319
20
-134.63
11
102.319
21
-135.344
0
LINE
8
Black
10
102.319
20
-135.344
11
102.176
21
-135.916
0
LINE
8
Black
10
102.176
20
-135.916
11
102.033
21
-136.201
0
LINE
8
Black
10
102.033
20
-136.201
11
101.89
21
-136.344
0
LINE
8
Black
10
101.89
20
-136.344
11
101.604
21
-136.487
0
LINE
8
Black
10
101.604
20
-136.487
11
101.319
21
-136.487
0
LINE
8
Black
10
101.319
20
-136.487
11
101.033
21
-136.344
0
LINE
8
Black
10
101.033
20
-136.344
11
100.89
21
-136.201
0
LINE
8
Black
10
100.89
20
-136.201
11
100.747
21
-135.916
0
LINE
8
Black
10
100.747
20
-135.916
11
100.604
21
-135.344
0
LINE
8
Black
10
100.604
20
-135.344
11
100.604
21
-134.63
0
LINE
8
Black
10
100.604
20
-134.63
11
100.747
21
-134.059
0
LINE
8
Black
10
100.747
20
-134.059
11
100.89
21
-133.773
0
LINE
8
Black
10
100.89
20
-133.773
11
101.033
21
-133.63
0
LINE
8
Black
10
101.033
20
-133.63
11
101.319
21
-133.487
0
LINE
8
Black
10
103.604
20
-136.487
11
103.604
21
-134.487
0
LINE
8
Black
10
103.604
20
-134.773
11
103.747
21
-134.63
0
LINE
8
Black
10
103.747
20
-134.63
11
104.033
21
-134.487
0
LINE
8
Black
10
104.033
20
-134.487
11
104.461
21
-134.487
0
LINE
8
Black
10
104.461
20
-134.487
11
104.747
21
-134.63
0
LINE
8
Black
10
104.747
20
-134.63
11
104.89
21
-134.916
0
LINE
8
Black
10
104.89
20
-134.916
11
104.89
21
-136.487
0
LINE
8
Black
10
104.89
20
-134.916
11
105.033
21
-134.63
0
LINE
8
Black
10
105.033
20
-134.63
11
105.319
21
-134.487
0
LINE
8
Black
10
105.319
20
-134.487
11
105.747
21
-134.487
0
LINE
8
Black
10
105.747
20
-134.487
11
106.033
21
-134.63
0
LINE
8
Black
10
106.033
20
-134.63
11
106.176
21
-134.916
0
LINE
8
Black
10
106.176
20
-134.916
11
106.176
21
-136.487
0
LINE
8
Black
10
107.604
20
-136.487
11
107.604
21
-134.487
0
LINE
8
Black
10
107.604
20
-134.773
11
107.747
21
-134.63
0
LINE
8
Black
10
107.747
20
-134.63
11
108.033
21
-134.487
0
LINE
8
Black
10
108.033
20
-134.487
11
108.461
21
-134.487
0
LINE
8
Black
10
108.461
20
-134.487
11
108.747
21
-134.63
0
LINE
8
Black
10
108.747
20
-134.63
11
108.89
21
-134.916
0
LINE
8
Black
10
108.89
20
-134.916
11
108.89
21
-136.487
0
LINE
8
Black
10
108.89
20
-134.916
11
109.033
21
-134.63
0
LINE
8
Black
10
109.033
20
-134.63
11
109.319
21
-134.487
0
LINE
8
Black
10
109.319
20
-134.487
11
109.747
21
-134.487
0
LINE
8
Black
10
109.747
20
-134.487
11
110.033
21
-134.63
0
LINE
8
Black
10
110.033
20
-134.63
11
110.176
21
-134.916
0
LINE
8
Black
10
110.176
20
-134.916
11
110.176
21
-136.487
0
LINE
8
Black
10
116.033
20
-133.344
11
113.461
21
-137.201
0
LINE
8
Black
10
119.89
20
-133.487
11
120.176
21
-133.487
0
LINE
8
Black
10
120.176
20
-133.487
11
120.461
21
-133.63
0
LINE
8
Black
10
120.461
20
-133.63
11
120.604
21
-133.773
0
LINE
8
Black
10
120.604
20
-133.773
11
120.747
21
-134.059
0
LINE
8
Black
10
120.747
20
-134.059
11
120.89
21
-134.63
0
LINE
8
Black
10
120.89
20
-134.63
11
120.89
21
-135.344
0
LINE
8
Black
10
120.89
20
-135.344
11
120.747
21
-135.916
0
LINE
8
Black
10
120.747
20
-135.916
11
120.604
21
-136.201
0
LINE
8
Black
10
120.604
20
-136.201
11
120.461
21
-136.344
0
LINE
8
Black
10
120.461
20
-136.344
11
120.176
21
-136.487
0
LINE
8
Black
10
120.176
20
-136.487
11
119.89
21
-136.487
0
LINE
8
Black
10
119.89
20
-136.487
11
119.604
21
-136.344
0
LINE
8
Black
10
119.604
20
-136.344
11
119.461
21
-136.201
0
LINE
8
Black
10
119.461
20
-136.201
11
119.319
21
-135.916
0
LINE
8
Black
10
119.319
20
-135.916
11
119.176
21
-135.344
0
LINE
8
Black
10
119.176
20
-135.344
11
119.176
21
-134.63
0
LINE
8
Black
10
119.176
20
-134.63
11
119.319
21
-134.059
0
LINE
8
Black
10
119.319
20
-134.059
11
119.461
21
-133.773
0
LINE
8
Black
10
119.461
20
-133.773
11
119.604
21
-133.63
0
LINE
8
Black
10
119.604
20
-133.63
11
119.89
21
-133.487
0
LINE
8
Black
10
122.176
20
-136.201
11
122.319
21
-136.344
0
LINE
8
Black
10
122.319
20
-136.344
11
122.176
21
-136.487
0
LINE
8
Black
10
122.176
20
-136.487
11
122.033
21
-136.344
0
LINE
8
Black
10
122.033
20
-136.344
11
122.176
21
-136.201
0
LINE
8
Black
10
122.176
20
-136.201
11
122.176
21
-136.487
0
LINE
8
Black
10
124.176
20
-133.487
11
124.461
21
-133.487
0
LINE
8
Black
10
124.461
20
-133.487
11
124.747
21
-133.63
0
LINE
8
Black
10
124.747
20
-133.63
11
124.89
21
-133.773
0
LINE
8
Black
10
124.89
20
-133.773
11
125.033
21
-134.059
0
LINE
8
Black
10
125.033
20
-134.059
11
125.176
21
-134.63
0
LINE
8
Black
10
125.176
20
-134.63
11
125.176
21
-135.344
0
LINE
8
Black
10
125.176
20
-135.344
11
125.033
21
-135.916
0
LINE
8
Black
10
125.033
20
-135.916
11
124.89
21
-136.201
0
LINE
8
Black
10
124.89
20
-136.201
11
124.747
21
-136.344
0
LINE
8
Black
10
124.747
20
-136.344
11
124.461
21
-136.487
0
LINE
8
Black
10
124.461
20
-136.487
11
124.176
21
-136.487
0
LINE
8
Black
10
124.176
20
-136.487
11
123.89
21
-136.344
0
LINE
8
Black
10
123.89
20
-136.344
11
123.747
21
-136.201
0
LINE
8
Black
10
123.747
20
-136.201
11
123.604
21
-135.916
0
LINE
8
Black
10
123.604
20
-135.916
11
123.461
21
-135.344
0
LINE
8
Black
10
123.461
20
-135.344
11
123.461
21
-134.63
0
LINE
8
Black
10
123.461
20
-134.63
11
123.604
21
-134.059
0
LINE
8
Black
10
123.604
20
-134.059
11
123.747
21
-133.773
0
LINE
8
Black
10
123.747
20
-133.773
11
123.89
21
-133.63
0
LINE
8
Black
10
123.89
20
-133.63
11
124.176
21
-133.487
0
LINE
8
Black
10
126.176
20
-133.487
11
128.033
21
-133.487
0
LINE
8
Black
10
128.033
20
-133.487
11
127.033
21
-134.63
0
LINE
8
Black
10
127.033
20
-134.63
11
127.461
21
-134.63
0
LINE
8
Black
10
127.461
20
-134.63
11
127.747
21
-134.773
0
LINE
8
Black
10
127.747
20
-134.773
11
127.89
21
-134.916
0
LINE
8
Black
10
127.89
20
-134.916
11
128.033
21
-135.201
0
LINE
8
Black
10
128.033
20
-135.201
11
128.033
21
-135.916
0
LINE
8
Black
10
128.033
20
-135.916
11
127.89
21
-136.201
0
LINE
8
Black
10
127.89
20
-136.201
11
127.747
21
-136.344
0
LINE
8
Black
10
127.747
20
-136.344
11
127.461
21
-136.487
0
LINE
8
Black
10
127.461
20
-136.487
11
126.604
21
-136.487
0
LINE
8
Black
10
126.604
20
-136.487
11
126.319
21
-136.344
0
LINE
8
Black
10
126.319
20
-136.344
11
126.176
21
-136.201
0
LINE
8
Black
10
129.461
20
-136.487
11
130.033
21
-136.487
0
LINE
8
Black
10
130.033
20
-136.487
11
130.319
21
-136.344
0
LINE
8
Black
10
130.319
20
-136.344
11
130.461
21
-136.201
0
LINE
8
Black
10
130.461
20
-136.201
11
130.747
21
-135.773
0
LINE
8
Black
10
130.747
20
-135.773
11
130.89
21
-135.201
0
LINE
8
Black
10
130.89
20
-135.201
11
130.89
21
-134.059
0
LINE
8
Black
10
130.89
20
-134.059
11
130.747
21
-133.773
0
LINE
8
Black
10
130.747
20
-133.773
11
130.604
21
-133.63
0
LINE
8
Black
10
130.604
20
-133.63
11
130.319
21
-133.487
0
LINE
8
Black
10
130.319
20
-133.487
11
129.747
21
-133.487
0
LINE
8
Black
10
129.747
20
-133.487
11
129.461
21
-133.63
0
LINE
8
Black
10
129.461
20
-133.63
11
129.319
21
-133.773
0
LINE
8
Black
10
129.319
20
-133.773
11
129.176
21
-134.059
0
LINE
8
Black
10
129.176
20
-134.059
11
129.176
21
-134.773
0
LINE
8
Black
10
129.176
20
-134.773
11
129.319
21
-135.059
0
LINE
8
Black
10
129.319
20
-135.059
11
129.461
21
-135.201
0
LINE
8
Black
10
129.461
20
-135.201
11
129.747
21
-135.344
0
LINE
8
Black
10
129.747
20
-135.344
11
130.319
21
-135.344
0
LINE
8
Black
10
130.319
20
-135.344
11
130.604
21
-135.201
0
LINE
8
Black
10
130.604
20
-135.201
11
130.747
21
-135.059
0
LINE
8
Black
10
130.747
20
-135.059
11
130.89
21
-134.773
0
LINE
8
Black
10
132.033
20
-133.487
11
132.033
21
-134.059
0
LINE
8
Black
10
133.176
20
-133.487
11
133.176
21
-134.059
0
LINE
8
Black
10
137.604
20
-137.63
11
137.461
21
-137.487
0
LINE
8
Black
10
137.461
20
-137.487
11
137.176
21
-137.059
0
LINE
8
Black
10
137.176
20
-137.059
11
137.033
21
-136.773
0
LINE
8
Black
10
137.033
20
-136.773
11
136.89
21
-136.344
0
LINE
8
Black
10
136.89
20
-136.344
11
136.747
21
-135.63
0
LINE
8
Black
10
136.747
20
-135.63
11
136.747
21
-135.059
0
LINE
8
Black
10
136.747
20
-135.059
11
136.89
21
-134.344
0
LINE
8
Black
10
136.89
20
-134.344
11
137.033
21
-133.916
0
LINE
8
Black
10
137.033
20
-133.916
11
137.176
21
-133.63
0
LINE
8
Black
10
137.176
20
-133.63
11
137.461
21
-133.201
0
LINE
8
Black
10
137.461
20
-133.201
11
137.604
21
-133.059
0
LINE
8
Black
10
138.461
20
-133.487
11
140.461
21
-133.487
0
LINE
8
Black
10
140.461
20
-133.487
11
139.176
21
-136.487
0
LINE
8
Black
10
141.747
20
-136.487
11
142.319
21
-136.487
0
LINE
8
Black
10
142.319
20
-136.487
11
142.604
21
-136.344
0
LINE
8
Black
10
142.604
20
-136.344
11
142.747
21
-136.201
0
LINE
8
Black
10
142.747
20
-136.201
11
143.033
21
-135.773
0
LINE
8
Black
10
143.033
20
-135.773
11
143.176
21
-135.201
0
LINE
8
Black
10
143.176
20
-135.201
11
143.176
21
-134.059
0
LINE
8
Black
10
143.176
20
-134.059
11
143.033
21
-133.773
0
LINE
8
Black
10
143.033
20
-133.773
11
142.89
21
-133.63
0
LINE
8
Black
10
142.89
20
-133.63
11
142.604
21
-133.487
0
LINE
8
Black
10
142.604
20
-133.487
11
142.033
21
-133.487
0
LINE
8
Black
10
142.033
20
-133.487
11
141.747
21
-133.63
0
LINE
8
Black
10
141.747
20
-133.63
11
141.604
21
-133.773
0
LINE
8
Black
10
141.604
20
-133.773
11
141.461
21
-134.059
0
LINE
8
Black
10
141.461
20
-134.059
11
141.461
21
-134.773
0
LINE
8
Black
10
141.461
20
-134.773
11
141.604
21
-135.059
0
LINE
8
Black
10
141.604
20
-135.059
11
141.747
21
-135.201
0
LINE
8
Black
10
141.747
20
-135.201
11
142.033
21
-135.344
0
LINE
8
Black
10
142.033
20
-135.344
11
142.604
21
-135.344
0
LINE
8
Black
10
142.604
20
-135.344
11
142.89
21
-135.201
0
LINE
8
Black
10
142.89
20
-135.201
11
143.033
21
-135.059
0
LINE
8
Black
10
143.033
20
-135.059
11
143.176
21
-134.773
0
LINE
8
Black
10
146.747
20
-136.487
11
146.747
21
-133.487
0
LINE
8
Black
10
148.033
20
-136.487
11
148.033
21
-134.916
0
LINE
8
Black
10
148.033
20
-134.916
11
147.89
21
-134.63
0
LINE
8
Black
10
147.89
20
-134.63
11
147.604
21
-134.487
0
LINE
8
Black
10
147.604
20
-134.487
11
147.176
21
-134.487
0
LINE
8
Black
10
147.176
20
-134.487
11
146.89
21
-134.63
0
LINE
8
Black
10
146.89
20
-134.63
11
146.747
21
-134.773
0
LINE
8
Black
10
149.89
20
-136.487
11
149.604
21
-136.344
0
LINE
8
Black
10
149.604
20
-136.344
11
149.461
21
-136.201
0
LINE
8
Black
10
149.461
20
-136.201
11
149.319
21
-135.916
0
LINE
8
Black
10
149.319
20
-135.916
11
149.319
21
-135.059
0
LINE
8
Black
10
149.319
20
-135.059
11
149.461
21
-134.773
0
LINE
8
Black
10
149.461
20
-134.773
11
149.604
21
-134.63
0
LINE
8
Black
10
149.604
20
-134.63
11
149.89
21
-134.487
0
LINE
8
Black
10
149.89
20
-134.487
11
150.319
21
-134.487
0
LINE
8
Black
10
150.319
20
-134.487
11
150.604
21
-134.63
0
LINE
8
Black
10
150.604
20
-134.63
11
150.747
21
-134.773
0
LINE
8
Black
10
150.747
20
-134.773
11
150.89
21
-135.059
0
LINE
8
Black
10
150.89
20
-135.059
11
150.89
21
-135.916
0
LINE
8
Black
10
150.89
20
-135.916
11
150.747
21
-136.201
0
LINE
8
Black
10
150.747
20
-136.201
11
150.604
21
-136.344
0
LINE
8
Black
10
150.604
20
-136.344
11
150.319
21
-136.487
0
LINE
8
Black
10
150.319
20
-136.487
11
149.89
21
-136.487
0
LINE
8
Black
10
152.604
20
-136.487
11
152.319
21
-136.344
0
LINE
8
Black
10
152.319
20
-136.344
11
152.176
21
-136.059
0
LINE
8
Black
10
152.176
20
-136.059
11
152.176
21
-133.487
0
LINE
8
Black
10
154.89
20
-136.344
11
154.604
21
-136.487
0
LINE
8
Black
10
154.604
20
-136.487
11
154.033
21
-136.487
0
LINE
8
Black
10
154.033
20
-136.487
11
153.747
21
-136.344
0
LINE
8
Black
10
153.747
20
-136.344
11
153.604
21
-136.059
0
LINE
8
Black
10
153.604
20
-136.059
11
153.604
21
-134.916
0
LINE
8
Black
10
153.604
20
-134.916
11
153.747
21
-134.63
0
LINE
8
Black
10
153.747
20
-134.63
11
154.033
21
-134.487
0
LINE
8
Black
10
154.033
20
-134.487
11
154.604
21
-134.487
0
LINE
8
Black
10
154.604
20
-134.487
11
154.89
21
-134.63
0
LINE
8
Black
10
154.89
20
-134.63
11
155.033
21
-134.916
0
LINE
8
Black
10
155.033
20
-134.916
11
155.033
21
-135.201
0
LINE
8
Black
10
155.033
20
-135.201
11
153.604
21
-135.487
0
LINE
8
Black
10
156.176
20
-136.344
11
156.461
21
-136.487
0
LINE
8
Black
10
156.461
20
-136.487
11
157.033
21
-136.487
0
LINE
8
Black
10
157.033
20
-136.487
11
157.319
21
-136.344
0
LINE
8
Black
10
157.319
20
-136.344
11
157.461
21
-136.059
0
LINE
8
Black
10
157.461
20
-136.059
11
157.461
21
-135.916
0
LINE
8
Black
10
157.461
20
-135.916
11
157.319
21
-135.63
0
LINE
8
Black
10
157.319
20
-135.63
11
157.033
21
-135.487
0
LINE
8
Black
10
157.033
20
-135.487
11
156.604
21
-135.487
0
LINE
8
Black
10
156.604
20
-135.487
11
156.319
21
-135.344
0
LINE
8
Black
10
156.319
20
-135.344
11
156.176
21
-135.059
0
LINE
8
Black
10
156.176
20
-135.059
11
156.176
21
-134.916
0
LINE
8
Black
10
156.176
20
-134.916
11
156.319
21
-134.63
0
LINE
8
Black
10
156.319
20
-134.63
11
156.604
21
-134.487
0
LINE
8
Black
10
156.604
20
-134.487
11
157.033
21
-134.487
0
LINE
8
Black
10
157.033
20
-134.487
11
157.319
21
-134.63
0
LINE
8
Black
10
158.461
20
-137.63
11
158.604
21
-137.487
0
LINE
8
Black
10
158.604
20
-137.487
11
158.89
21
-137.059
0
LINE
8
Black
10
158.89
20
-137.059
11
159.033
21
-136.773
0
LINE
8
Black
10
159.033
20
-136.773
11
159.176
21
-136.344
0
LINE
8
Black
10
159.176
20
-136.344
11
159.319
21
-135.63
0
LINE
8
Black
10
159.319
20
-135.63
11
159.319
21
-135.059
0
LINE
8
Black
10
159.319
20
-135.059
11
159.176
21
-134.344
0
LINE
8
Black
10
159.176
20
-134.344
11
159.033
21
-133.916
0
LINE
8
Black
10
159.033
20
-133.916
11
158.89
21
-133.63
0
LINE
8
Black
10
158.89
20
-133.63
11
158.604
21
-133.201
0
LINE
8
Black
10
158.604
20
-133.201
11
158.461
21
-133.059
0
LINE
8
Black
10
89.29
20
-140.69
11
90.89
21
-139.09
0
LINE
8
Black
10
90.89
20
-139.09
11
89.29
21
-137.49
0
LINE
8
Black
10
89.29
20
-137.49
11
87.69
21
-139.09
0
LINE
8
Black
10
87.69
20
-139.09
11
89.29
21
-140.69
0
LINE
8
Black
10
93.3186
20
-137.447
11
95.1757
21
-137.447
0
LINE
8
Black
10
95.1757
20
-137.447
11
94.1757
21
-138.59
0
LINE
8
Black
10
94.1757
20
-138.59
11
94.6043
21
-138.59
0
LINE
8
Black
10
94.6043
20
-138.59
11
94.89
21
-138.733
0
LINE
8
Black
10
94.89
20
-138.733
11
95.0329
21
-138.876
0
LINE
8
Black
10
95.0329
20
-138.876
11
95.1757
21
-139.161
0
LINE
8
Black
10
95.1757
20
-139.161
11
95.1757
21
-139.876
0
LINE
8
Black
10
95.1757
20
-139.876
11
95.0329
21
-140.161
0
LINE
8
Black
10
95.0329
20
-140.161
11
94.89
21
-140.304
0
LINE
8
Black
10
94.89
20
-140.304
11
94.6043
21
-140.447
0
LINE
8
Black
10
94.6043
20
-140.447
11
93.7471
21
-140.447
0
LINE
8
Black
10
93.7471
20
-140.447
11
93.4614
21
-140.304
0
LINE
8
Black
10
93.4614
20
-140.304
11
93.3186
21
-140.161
0
LINE
8
Black
10
96.4614
20
-140.161
11
96.6043
21
-140.304
0
LINE
8
Black
10
96.6043
20
-140.304
11
96.4614
21
-140.447
0
LINE
8
Black
10
96.4614
20
-140.447
11
96.3186
21
-140.304
0
LINE
8
Black
10
96.3186
20
-140.304
11
96.4614
21
-140.161
0
LINE
8
Black
10
96.4614
20
-140.161
11
96.4614
21
-140.447
0
LINE
8
Black
10
97.7471
20
-137.733
11
97.89
21
-137.59
0
LINE
8
Black
10
97.89
20
-137.59
11
98.1757
21
-137.447
0
LINE
8
Black
10
98.1757
20
-137.447
11
98.89
21
-137.447
0
LINE
8
Black
10
98.89
20
-137.447
11
99.1757
21
-137.59
0
LINE
8
Black
10
99.1757
20
-137.59
11
99.3186
21
-137.733
0
LINE
8
Black
10
99.3186
20
-137.733
11
99.4614
21
-138.019
0
LINE
8
Black
10
99.4614
20
-138.019
11
99.4614
21
-138.304
0
LINE
8
Black
10
99.4614
20
-138.304
11
99.3186
21
-138.733
0
LINE
8
Black
10
99.3186
20
-138.733
11
97.6043
21
-140.447
0
LINE
8
Black
10
97.6043
20
-140.447
11
99.4614
21
-140.447
0
LINE
8
Black
10
101.319
20
-137.447
11
101.604
21
-137.447
0
LINE
8
Black
10
101.604
20
-137.447
11
101.89
21
-137.59
0
LINE
8
Black
10
101.89
20
-137.59
11
102.033
21
-137.733
0
LINE
8
Black
10
102.033
20
-137.733
11
102.176
21
-138.019
0
LINE
8
Black
10
102.176
20
-138.019
11
102.319
21
-138.59
0
LINE
8
Black
10
102.319
20
-138.59
11
102.319
21
-139.304
0
LINE
8
Black
10
102.319
20
-139.304
11
102.176
21
-139.876
0
LINE
8
Black
10
102.176
20
-139.876
11
102.033
21
-140.161
0
LINE
8
Black
10
102.033
20
-140.161
11
101.89
21
-140.304
0
LINE
8
Black
10
101.89
20
-140.304
11
101.604
21
-140.447
0
LINE
8
Black
10
101.604
20
-140.447
11
101.319
21
-140.447
0
LINE
8
Black
10
101.319
20
-140.447
11
101.033
21
-140.304
0
LINE
8
Black
10
101.033
20
-140.304
11
100.89
21
-140.161
0
LINE
8
Black
10
100.89
20
-140.161
11
100.747
21
-139.876
0
LINE
8
Black
10
100.747
20
-139.876
11
100.604
21
-139.304
0
LINE
8
Black
10
100.604
20
-139.304
11
100.604
21
-138.59
0
LINE
8
Black
10
100.604
20
-138.59
11
100.747
21
-138.019
0
LINE
8
Black
10
100.747
20
-138.019
11
100.89
21
-137.733
0
LINE
8
Black
10
100.89
20
-137.733
11
101.033
21
-137.59
0
LINE
8
Black
10
101.033
20
-137.59
11
101.319
21
-137.447
0
LINE
8
Black
10
103.604
20
-140.447
11
103.604
21
-138.447
0
LINE
8
Black
10
103.604
20
-138.733
11
103.747
21
-138.59
0
LINE
8
Black
10
103.747
20
-138.59
11
104.033
21
-138.447
0
LINE
8
Black
10
104.033
20
-138.447
11
104.461
21
-138.447
0
LINE
8
Black
10
104.461
20
-138.447
11
104.747
21
-138.59
0
LINE
8
Black
10
104.747
20
-138.59
11
104.89
21
-138.876
0
LINE
8
Black
10
104.89
20
-138.876
11
104.89
21
-140.447
0
LINE
8
Black
10
104.89
20
-138.876
11
105.033
21
-138.59
0
LINE
8
Black
10
105.033
20
-138.59
11
105.319
21
-138.447
0
LINE
8
Black
10
105.319
20
-138.447
11
105.747
21
-138.447
0
LINE
8
Black
10
105.747
20
-138.447
11
106.033
21
-138.59
0
LINE
8
Black
10
106.033
20
-138.59
11
106.176
21
-138.876
0
LINE
8
Black
10
106.176
20
-138.876
11
106.176
21
-140.447
0
LINE
8
Black
10
107.604
20
-140.447
11
107.604
21
-138.447
0
LINE
8
Black
10
107.604
20
-138.733
11
107.747
21
-138.59
0
LINE
8
Black
10
107.747
20
-138.59
11
108.033
21
-138.447
0
LINE
8
Black
10
108.033
20
-138.447
11
108.461
21
-138.447
0
LINE
8
Black
10
108.461
20
-138.447
11
108.747
21
-138.59
0
LINE
8
Black
10
108.747
20
-138.59
11
108.89
21
-138.876
0
LINE
8
Black
10
108.89
20
-138.876
11
108.89
21
-140.447
0
LINE
8
Black
10
108.89
20
-138.876
11
109.033
21
-138.59
0
LINE
8
Black
10
109.033
20
-138.59
11
109.319
21
-138.447
0
LINE
8
Black
10
109.319
20
-138.447
11
109.747
21
-138.447
0
LINE
8
Black
10
109.747
20
-138.447
11
110.033
21
-138.59
0
LINE
8
Black
10
110.033
20
-138.59
11
110.176
21
-138.876
0
LINE
8
Black
10
110.176
20
-138.876
11
110.176
21
-140.447
0
LINE
8
Black
10
116.033
20
-137.304
11
113.461
21
-141.161
0
LINE
8
Black
10
119.89
20
-137.447
11
120.176
21
-137.447
0
LINE
8
Black
10
120.176
20
-137.447
11
120.461
21
-137.59
0
LINE
8
Black
10
120.461
20
-137.59
11
120.604
21
-137.733
0
LINE
8
Black
10
120.604
20
-137.733
11
120.747
21
-138.019
0
LINE
8
Black
10
120.747
20
-138.019
11
120.89
21
-138.59
0
LINE
8
Black
10
120.89
20
-138.59
11
120.89
21
-139.304
0
LINE
8
Black
10
120.89
20
-139.304
11
120.747
21
-139.876
0
LINE
8
Black
10
120.747
20
-139.876
11
120.604
21
-140.161
0
LINE
8
Black
10
120.604
20
-140.161
11
120.461
21
-140.304
0
LINE
8
Black
10
120.461
20
-140.304
11
120.176
21
-140.447
0
LINE
8
Black
10
120.176
20
-140.447
11
119.89
21
-140.447
0
LINE
8
Black
10
119.89
20
-140.447
11
119.604
21
-140.304
0
LINE
8
Black
10
119.604
20
-140.304
11
119.461
21
-140.161
0
LINE
8
Black
10
119.461
20
-140.161
11
119.319
21
-139.876
0
LINE
8
Black
10
119.319
20
-139.876
11
119.176
21
-139.304
0
LINE
8
Black
10
119.176
20
-139.304
11
119.176
21
-138.59
0
LINE
8
Black
10
119.176
20
-138.59
11
119.319
21
-138.019
0
LINE
8
Black
10
119.319
20
-138.019
11
119.461
21
-137.733
0
LINE
8
Black
10
119.461
20
-137.733
11
119.604
21
-137.59
0
LINE
8
Black
10
119.604
20
-137.59
11
119.89
21
-137.447
0
LINE
8
Black
10
122.176
20
-140.161
11
122.319
21
-140.304
0
LINE
8
Black
10
122.319
20
-140.304
11
122.176
21
-140.447
0
LINE
8
Black
10
122.176
20
-140.447
11
122.033
21
-140.304
0
LINE
8
Black
10
122.033
20
-140.304
11
122.176
21
-140.161
0
LINE
8
Black
10
122.176
20
-140.161
11
122.176
21
-140.447
0
LINE
8
Black
10
125.176
20
-140.447
11
123.461
21
-140.447
0
LINE
8
Black
10
124.319
20
-140.447
11
124.319
21
-137.447
0
LINE
8
Black
10
124.319
20
-137.447
11
124.033
21
-137.876
0
LINE
8
Black
10
124.033
20
-137.876
11
123.747
21
-138.161
0
LINE
8
Black
10
123.747
20
-138.161
11
123.461
21
-138.304
0
LINE
8
Black
10
126.319
20
-137.733
11
126.461
21
-137.59
0
LINE
8
Black
10
126.461
20
-137.59
11
126.747
21
-137.447
0
LINE
8
Black
10
126.747
20
-137.447
11
127.461
21
-137.447
0
LINE
8
Black
10
127.461
20
-137.447
11
127.747
21
-137.59
0
LINE
8
Black
10
127.747
20
-137.59
11
127.89
21
-137.733
0
LINE
8
Black
10
127.89
20
-137.733
11
128.033
21
-138.019
0
LINE
8
Black
10
128.033
20
-138.019
11
128.033
21
-138.304
0
LINE
8
Black
10
128.033
20
-138.304
11
127.89
21
-138.733
0
LINE
8
Black
10
127.89
20
-138.733
11
126.176
21
-140.447
0
LINE
8
Black
10
126.176
20
-140.447
11
128.033
21
-140.447
0
LINE
8
Black
10
130.604
20
-137.447
11
130.033
21
-137.447
0
LINE
8
Black
10
130.033
20
-137.447
11
129.747
21
-137.59
0
LINE
8
Black
10
129.747
20
-137.59
11
129.604
21
-137.733
0
LINE
8
Black
10
129.604
20
-137.733
11
129.319
21
-138.161
0
LINE
8
Black
10
129.319
20
-138.161
11
129.176
21
-138.733
0
LINE
8
Black
10
129.176
20
-138.733
11
129.176
21
-139.876
0
LINE
8
Black
10
129.176
20
-139.876
11
129.319
21
-140.161
0
LINE
8
Black
10
129.319
20
-140.161
11
129.461
21
-140.304
0
LINE
8
Black
10
129.461
20
-140.304
11
129.747
21
-140.447
0
LINE
8
Black
10
129.747
20
-140.447
11
130.319
21
-140.447
0
LINE
8
Black
10
130.319
20
-140.447
11
130.604
21
-140.304
0
LINE
8
Black
10
130.604
20
-140.304
11
130.747
21
-140.161
0
LINE
8
Black
10
130.747
20
-140.161
11
130.89
21
-139.876
0
LINE
8
Black
10
130.89
20
-139.876
11
130.89
21
-139.161
0
LINE
8
Black
10
130.89
20
-139.161
11
130.747
21
-138.876
0
LINE
8
Black
10
130.747
20
-138.876
11
130.604
21
-138.733
0
LINE
8
Black
10
130.604
20
-138.733
11
130.319
21
-138.59
0
LINE
8
Black
10
130.319
20
-138.59
11
129.747
21
-138.59
0
LINE
8
Black
10
129.747
20
-138.59
11
129.461
21
-138.733
0
LINE
8
Black
10
129.461
20
-138.733
11
129.319
21
-138.876
0
LINE
8
Black
10
129.319
20
-138.876
11
129.176
21
-139.161
0
LINE
8
Black
10
132.033
20
-137.447
11
132.033
21
-138.019
0
LINE
8
Black
10
133.176
20
-137.447
11
133.176
21
-138.019
0
LINE
8
Black
10
137.604
20
-141.59
11
137.461
21
-141.447
0
LINE
8
Black
10
137.461
20
-141.447
11
137.176
21
-141.019
0
LINE
8
Black
10
137.176
20
-141.019
11
137.033
21
-140.733
0
LINE
8
Black
10
137.033
20
-140.733
11
136.89
21
-140.304
0
LINE
8
Black
10
136.89
20
-140.304
11
136.747
21
-139.59
0
LINE
8
Black
10
136.747
20
-139.59
11
136.747
21
-139.019
0
LINE
8
Black
10
136.747
20
-139.019
11
136.89
21
-138.304
0
LINE
8
Black
10
136.89
20
-138.304
11
137.033
21
-137.876
0
LINE
8
Black
10
137.033
20
-137.876
11
137.176
21
-137.59
0
LINE
8
Black
10
137.176
20
-137.59
11
137.461
21
-137.161
0
LINE
8
Black
10
137.461
20
-137.161
11
137.604
21
-137.019
0
LINE
8
Black
10
140.033
20
-138.447
11
140.033
21
-140.447
0
LINE
8
Black
10
139.319
20
-137.304
11
138.604
21
-139.447
0
LINE
8
Black
10
138.604
20
-139.447
11
140.461
21
-139.447
0
LINE
8
Black
10
143.89
20
-140.447
11
143.89
21
-137.447
0
LINE
8
Black
10
145.176
20
-140.447
11
145.176
21
-138.876
0
LINE
8
Black
10
145.176
20
-138.876
11
145.033
21
-138.59
0
LINE
8
Black
10
145.033
20
-138.59
11
144.747
21
-138.447
0
LINE
8
Black
10
144.747
20
-138.447
11
144.319
21
-138.447
0
LINE
8
Black
10
144.319
20
-138.447
11
144.033
21
-138.59
0
LINE
8
Black
10
144.033
20
-138.59
11
143.89
21
-138.733
0
LINE
8
Black
10
147.033
20
-140.447
11
146.747
21
-140.304
0
LINE
8
Black
10
146.747
20
-140.304
11
146.604
21
-140.161
0
LINE
8
Black
10
146.604
20
-140.161
11
146.461
21
-139.876
0
LINE
8
Black
10
146.461
20
-139.876
11
146.461
21
-139.019
0
LINE
8
Black
10
146.461
20
-139.019
11
146.604
21
-138.733
0
LINE
8
Black
10
146.604
20
-138.733
11
146.747
21
-138.59
0
LINE
8
Black
10
146.747
20
-138.59
11
147.033
21
-138.447
0
LINE
8
Black
10
147.033
20
-138.447
11
147.461
21
-138.447
0
LINE
8
Black
10
147.461
20
-138.447
11
147.747
21
-138.59
0
LINE
8
Black
10
147.747
20
-138.59
11
147.89
21
-138.733
0
LINE
8
Black
10
147.89
20
-138.733
11
148.033
21
-139.019
0
LINE
8
Black
10
148.033
20
-139.019
11
148.033
21
-139.876
0
LINE
8
Black
10
148.033
20
-139.876
11
147.89
21
-140.161
0
LINE
8
Black
10
147.89
20
-140.161
11
147.747
21
-140.304
0
LINE
8
Black
10
147.747
20
-140.304
11
147.461
21
-140.447
0
LINE
8
Black
10
147.461
20
-140.447
11
147.033
21
-140.447
0
LINE
8
Black
10
149.747
20
-140.447
11
149.461
21
-140.304
0
LINE
8
Black
10
149.461
20
-140.304
11
149.319
21
-140.019
0
LINE
8
Black
10
149.319
20
-140.019
11
149.319
21
-137.447
0
LINE
8
Black
10
152.033
20
-140.304
11
151.747
21
-140.447
0
LINE
8
Black
10
151.747
20
-140.447
11
151.176
21
-140.447
0
LINE
8
Black
10
151.176
20
-140.447
11
150.89
21
-140.304
0
LINE
8
Black
10
150.89
20
-140.304
11
150.747
21
-140.019
0
LINE
8
Black
10
150.747
20
-140.019
11
150.747
21
-138.876
0
LINE
8
Black
10
150.747
20
-138.876
11
150.89
21
-138.59
0
LINE
8
Black
10
150.89
20
-138.59
11
151.176
21
-138.447
0
LINE
8
Black
10
151.176
20
-138.447
11
151.747
21
-138.447
0
LINE
8
Black
10
151.747
20
-138.447
11
152.033
21
-138.59
0
LINE
8
Black
10
152.033
20
-138.59
11
152.176
21
-138.876
0
LINE
8
Black
10
152.176
20
-138.876
11
152.176
21
-139.161
0
LINE
8
Black
10
152.176
20
-139.161
11
150.747
21
-139.447
0
LINE
8
Black
10
153.319
20
-140.304
11
153.604
21
-140.447
0
LINE
8
Black
10
153.604
20
-140.447
11
154.176
21
-140.447
0
LINE
8
Black
10
154.176
20
-140.447
11
154.461
21
-140.304
0
LINE
8
Black
10
154.461
20
-140.304
11
154.604
21
-140.019
0
LINE
8
Black
10
154.604
20
-140.019
11
154.604
21
-139.876
0
LINE
8
Black
10
154.604
20
-139.876
11
154.461
21
-139.59
0
LINE
8
Black
10
154.461
20
-139.59
11
154.176
21
-139.447
0
LINE
8
Black
10
154.176
20
-139.447
11
153.747
21
-139.447
0
LINE
8
Black
10
153.747
20
-139.447
11
153.461
21
-139.304
0
LINE
8
Black
10
153.461
20
-139.304
11
153.319
21
-139.019
0
LINE
8
Black
10
153.319
20
-139.019
11
153.319
21
-138.876
0
LINE
8
Black
10
153.319
20
-138.876
11
153.461
21
-138.59
0
LINE
8
Black
10
153.461
20
-138.59
11
153.747
21
-138.447
0
LINE
8
Black
10
153.747
20
-138.447
11
154.176
21
-138.447
0
LINE
8
Black
10
154.176
20
-138.447
11
154.461
21
-138.59
0
LINE
8
Black
10
155.604
20
-141.59
11
155.747
21
-141.447
0
LINE
8
Black
10
155.747
20
-141.447
11
156.033
21
-141.019
0
LINE
8
Black
10
156.033
20
-141.019
11
156.176
21
-140.733
0
LINE
8
Black
10
156.176
20
-140.733
11
156.319
21
-140.304
0
LINE
8
Black
10
156.319
20
-140.304
11
156.461
21
-139.59
0
LINE
8
Black
10
156.461
20
-139.59
11
156.461
21
-139.019
0
LINE
8
Black
10
156.461
20
-139.019
11
156.319
21
-138.304
0
LINE
8
Black
10
156.319
20
-138.304
11
156.176
21
-137.876
0
LINE
8
Black
10
156.176
20
-137.876
11
156.033
21
-137.59
0
LINE
8
Black
10
156.033
20
-137.59
11
155.747
21
-137.161
0
LINE
8
Black
10
155.747
20
-137.161
11
155.604
21
-137.019
  0
ENDSEC
  0
EOF
