<?xml version="1.0" encoding="UTF-8"?>
<svg xmlns="http://www.w3.org/2000/svg" width="800.000" height="600.000" viewBox="0.0 0.0 800.000 600.000" version="1.1">
  <title>Produce by Acme CAD Converter</title>
  <desc>Produce by Acme CAD Converter</desc>
<path d="M319.64 301.37L374.12 301.37"
fill="none" stroke="black" stroke-width="0.5"/>
<path d="M371.1 303.42L372.08 303.42"
fill="none" stroke="black" stroke-width="0.5"/>
<path d="M370.08 302.39L370.22 302.9M370.22 302.9L370.59 303.28M370.59 303.28L371.1 303.42"
fill="none" stroke="black" stroke-width="0.5"/>
<path d="M374.12 301.37L374.12 299.73"
fill="none" stroke="black" stroke-width="0.5"/>
<path d="M365.26 299.73L365.26 288.57"
fill="none" stroke="black" stroke-width="0.5"/>
<path d="M328.6 302.39L328.6 301.37"
fill="none" stroke="black" stroke-width="0.5"/>
<path d="M328.6 299.73L328.6 288.57"
fill="none" stroke="black" stroke-width="0.5"/>
<path d="M373.1 302.39L373.1 301.37"
fill="none" stroke="black" stroke-width="0.5"/>
<path d="M372.08 303.42L372.59 303.28M372.59 303.28L372.96 302.9M372.96 302.9L373.1 302.39"
fill="none" stroke="black" stroke-width="0.5"/>
<path d="M373.1 299.73L373.1 288.57"
fill="none" stroke="black" stroke-width="0.5"/>
<path d="M370.08 302.39L370.08 301.37"
fill="none" stroke="black" stroke-width="0.5"/>
<path d="M365.26 302.39L365.26 301.37"
fill="none" stroke="black" stroke-width="0.5"/>
<path d="M364.23 303.42L364.75 303.28M364.75 303.28L365.12 302.9M365.12 302.9L365.26 302.39"
fill="none" stroke="black" stroke-width="0.5"/>
<path d="M370.08 299.73L370.08 288.57"
fill="none" stroke="black" stroke-width="0.5"/>
<path d="M338.43 299.73L330.7 299.73"
fill="none" stroke="black" stroke-width="0.5"/>
<path d="M338.43 299.73L338.94 299.59M338.94 299.59L339.32 299.22M339.32 299.22L339.46 298.71"
fill="none" stroke="black" stroke-width="0.5"/>
<path d="M329.68 298.71L329.82 299.22M329.82 299.22L330.19 299.59M330.19 299.59L330.7 299.73"
fill="none" stroke="black" stroke-width="0.5"/>
<path d="M373.1 288.57L370.08 288.57"
fill="none" stroke="black" stroke-width="0.5"/>
<path d="M323.58 288.57L320.67 288.57"
fill="none" stroke="black" stroke-width="0.5"/>
<path d="M319.64 299.73L319.64 301.37"
fill="none" stroke="black" stroke-width="0.5"/>
<path d="M319.64 299.73L329.68 299.73"
fill="none" stroke="black" stroke-width="0.5"/>
<path d="M329.68 298.71L329.68 296.66"
fill="none" stroke="black" stroke-width="0.5"/>
<path d="M330.7 298.19L330.7 297.17"
fill="none" stroke="black" stroke-width="0.5"/>
<path d="M330.19 296.15L329.83 296.3M329.83 296.3L329.68 296.66"
fill="none" stroke="black" stroke-width="0.5"/>
<path d="M330.19 296.15L338.94 296.15"
fill="none" stroke="black" stroke-width="0.5"/>
<path d="M330.7 297.17L338.43 297.17"
fill="none" stroke="black" stroke-width="0.5"/>
<path d="M330.7 298.19L338.43 298.19"
fill="none" stroke="black" stroke-width="0.5"/>
<path d="M339.46 296.66L339.46 298.71"
fill="none" stroke="black" stroke-width="0.5"/>
<path d="M338.43 297.17L338.43 298.19"
fill="none" stroke="black" stroke-width="0.5"/>
<path d="M339.46 296.66L339.31 296.3M339.31 296.3L338.94 296.15"
fill="none" stroke="black" stroke-width="0.5"/>
<path d="M338.43 299.73L374.12 299.73"
fill="none" stroke="black" stroke-width="0.5"/>
<path d="M328.6 288.57L365.26 288.57"
fill="none" stroke="black" stroke-width="0.5"/>
<path d="M329.68 299.73L330.7 299.73"
fill="none" stroke="black" stroke-width="0.5"/>
<path d="M364.23 303.42L329.63 303.42"
fill="none" stroke="black" stroke-width="0.5"/>
<path d="M328.6 302.39L328.74 302.9M328.74 302.9L329.12 303.28M329.12 303.28L329.63 303.42"
fill="none" stroke="black" stroke-width="0.5"/>
<path d="M318 288.57L311.19 288.57"
fill="none" stroke="cyan" stroke-width="0.5"/>
<path d="M318 303.42L311.19 303.42"
fill="none" stroke="cyan" stroke-width="0.5"/>
<path d="M312.47 290.62L312.47 294.05"
fill="none" stroke="cyan" stroke-width="0.5"/>
<path d="M312.47 301.37L312.47 297.94"
fill="none" stroke="cyan" stroke-width="0.5"/>
<path d="M312.13 290.62L312.47 288.57 312.47 288.57 312.81 290.62 312.13 290.62Z"
fill-rule="evenodd" fill="cyan"/>
<path d="M312.13 301.37L312.47 303.42 312.47 303.42 312.81 301.37 312.13 301.37Z"
fill-rule="evenodd" fill="cyan"/>
<path d="M308.82 295.2L309.06 295.08M309.06 295.08L309.42 294.71M309.42 294.71L309.42 297.27M311.98 294.71L310.77 296.42M310.77 296.42L312.59 296.42M311.98 294.71L311.98 297.27M313.33 297.03L313.2 297.15M313.2 297.15L313.33 297.27M313.33 297.27L313.45 297.15M315.88 294.71L314.67 294.71M314.67 294.71L314.54 295.81M314.54 295.81L314.67 295.69M314.67 295.69L315.03 295.57M315.03 295.57L315.4 295.57M315.4 295.57L315.76 295.69M315.76 295.69L316.01 295.93M316.01 295.93L316.13 296.3M316.13 296.3L316.13 296.54M316.13 296.54L316.01 296.91M316.01 296.91L315.76 297.15M315.76 297.15L315.4 297.27M315.4 297.27L315.03 297.27M315.03 297.27L314.67 297.15M314.67 297.15L314.54 297.03M314.54 297.03L314.42 296.78"
fill="none" stroke="cyan" stroke-width="0.5"/>
<path d="M320.56 288.57L320.56 288.57"
fill="none" stroke="black" stroke-width="0.5"/>
<path d="M320.56 303.42L320.56 303.42"
fill="none" stroke="black" stroke-width="0.5"/>
<path d="M312.47 303.42L312.47 303.42"
fill="none" stroke="black" stroke-width="0.5"/>
<path d="M319.64 303.93L319.64 324.25"
fill="none" stroke="cyan" stroke-width="0.5"/>
<path d="M374.12 303.93L374.12 324.25"
fill="none" stroke="cyan" stroke-width="0.5"/>
<path d="M321.69 322.97L372.08 322.97"
fill="none" stroke="cyan" stroke-width="0.5"/>
<path d="M321.69 322.63L319.64 322.97 319.64 322.97 321.69 323.31 321.69 322.63Z"
fill-rule="evenodd" fill="cyan"/>
<path d="M372.08 322.63L374.12 322.97 374.12 322.97 372.08 323.31 372.08 322.63Z"
fill-rule="evenodd" fill="cyan"/>
<path d="M343.78 319.74L342.56 319.74M342.56 319.74L342.44 320.84M342.44 320.84L342.56 320.71M342.56 320.71L342.92 320.59M342.92 320.59L343.29 320.59M343.29 320.59L343.65 320.71M343.65 320.71L343.9 320.96M343.9 320.96L344.02 321.32M344.02 321.32L344.02 321.57M344.02 321.57L343.9 321.93M343.9 321.93L343.65 322.18M343.65 322.18L343.29 322.3M343.29 322.3L342.92 322.3M342.92 322.3L342.56 322.18M342.56 322.18L342.44 322.06M342.44 322.06L342.31 321.81M345 319.74L346.34 319.74M346.34 319.74L345.6 320.71M345.6 320.71L345.97 320.71M345.97 320.71L346.21 320.84M346.21 320.84L346.34 320.96M346.34 320.96L346.46 321.32M346.46 321.32L346.46 321.57M346.46 321.57L346.34 321.93M346.34 321.93L346.09 322.18M346.09 322.18L345.73 322.3M345.73 322.3L345.36 322.3M345.36 322.3L345 322.18M345 322.18L344.87 322.06M344.87 322.06L344.75 321.81M347.31 322.06L347.19 322.18M347.19 322.18L347.31 322.3M347.31 322.3L347.43 322.18M348.53 320.35L348.53 320.23M348.53 320.23L348.65 319.98M348.65 319.98L348.77 319.86M348.77 319.86L349.02 319.74M349.02 319.74L349.51 319.74M349.51 319.74L349.75 319.86M349.75 319.86L349.87 319.98M349.87 319.98L349.99 320.23M349.99 320.23L349.99 320.47M349.99 320.47L349.87 320.71M349.87 320.71L349.63 321.08M349.63 321.08L348.41 322.3M348.41 322.3L350.11 322.3M350.85 320.23L351.09 320.11M351.09 320.11L351.46 319.74M351.46 319.74L351.46 322.3"
fill="none" stroke="cyan" stroke-width="0.5"/>
<path d="M319.64 301.37L319.64 301.37"
fill="none" stroke="black" stroke-width="0.5"/>
<path d="M374.12 301.37L374.12 301.37"
fill="none" stroke="black" stroke-width="0.5"/>
<path d="M374.12 322.97L374.12 322.97"
fill="none" stroke="black" stroke-width="0.5"/>
<path d="M320.67 299.73L320.67 288.57"
fill="none" stroke="black" stroke-width="0.5"/>
<path d="M323.69 299.73L323.69 288.57"
fill="none" stroke="black" stroke-width="0.5"/>
<path d="M323.69 288.57L323.58 288.57"
fill="none" stroke="black" stroke-width="0.5"/>
<path d="M322.67 303.42L321.69 303.42"
fill="none" stroke="black" stroke-width="0.5"/>
<path d="M322.67 303.42L323.18 303.28M323.18 303.28L323.55 302.9M323.55 302.9L323.69 302.39"
fill="none" stroke="black" stroke-width="0.5"/>
<path d="M320.67 302.39L320.67 301.37"
fill="none" stroke="black" stroke-width="0.5"/>
<path d="M320.67 302.39L320.81 302.9M320.81 302.9L321.18 303.28M321.18 303.28L321.69 303.42"
fill="none" stroke="black" stroke-width="0.5"/>
<path d="M323.69 301.37L323.69 302.39"
fill="none" stroke="black" stroke-width="0.5"/>
<path d="M328.6 286.01L328.6 277.05"
fill="none" stroke="blue" stroke-width="0.5"/>
<path d="M365.26 286.01L365.26 277.05"
fill="none" stroke="blue" stroke-width="0.5"/>
<path d="M330.65 278.33L363.21 278.33"
fill="none" stroke="blue" stroke-width="0.5"/>
<path d="M330.65 277.99L328.6 278.33 328.6 278.33 330.65 278.67 330.65 277.99Z"
fill-rule="evenodd" fill="blue"/>
<path d="M363.21 277.99L365.26 278.33 365.26 278.33 363.21 278.67 363.21 277.99Z"
fill-rule="evenodd" fill="blue"/>
<path d="M343.27 275.1L344.61 275.1M344.61 275.1L343.88 276.08M343.88 276.08L344.25 276.08M344.25 276.08L344.49 276.2M344.49 276.2L344.61 276.32M344.61 276.32L344.74 276.69M344.74 276.69L344.74 276.93M344.74 276.93L344.61 277.3M344.61 277.3L344.37 277.54M344.37 277.54L344.01 277.66M344.01 277.66L343.64 277.66M343.64 277.66L343.27 277.54M343.27 277.54L343.15 277.42M343.15 277.42L343.03 277.18M346.93 275.1L345.71 275.1M345.71 275.1L345.59 276.2M345.59 276.2L345.71 276.08M345.71 276.08L346.08 275.96M346.08 275.96L346.44 275.96M346.44 275.96L346.81 276.08M346.81 276.08L347.05 276.32M347.05 276.32L347.17 276.69M347.17 276.69L347.17 276.93M347.17 276.93L347.05 277.3M347.05 277.3L346.81 277.54M346.81 277.54L346.44 277.66M346.44 277.66L346.08 277.66M346.08 277.66L345.71 277.54M345.71 277.54L345.59 277.42M345.59 277.42L345.47 277.18M348.03 277.42L347.91 277.54M347.91 277.54L348.03 277.66M348.03 277.66L348.15 277.54M349.73 275.1L349.37 275.23M349.37 275.23L349.25 275.47M349.25 275.47L349.25 275.71M349.25 275.71L349.37 275.96M349.37 275.96L349.61 276.08M349.61 276.08L350.1 276.2M350.1 276.2L350.47 276.32M350.47 276.32L350.71 276.57M350.71 276.57L350.83 276.81M350.83 276.81L350.83 277.18M350.83 277.18L350.71 277.42M350.71 277.42L350.59 277.54M350.59 277.54L350.22 277.66M350.22 277.66L349.73 277.66M349.73 277.66L349.37 277.54M349.37 277.54L349.25 277.42M349.25 277.42L349.12 277.18M349.12 277.18L349.12 276.81M349.12 276.81L349.25 276.57M349.25 276.57L349.49 276.32M349.49 276.32L349.86 276.2M349.86 276.2L350.34 276.08M350.34 276.08L350.59 275.96M350.59 275.96L350.71 275.71M350.71 275.71L350.71 275.47M350.71 275.47L350.59 275.23M350.59 275.23L350.22 275.1M350.22 275.1L349.73 275.1"
fill="none" stroke="blue" stroke-width="0.5"/>
<path d="M328.6 288.57L328.6 288.57"
fill="none" stroke="black" stroke-width="0.5"/>
<path d="M365.26 288.57L365.26 288.57"
fill="none" stroke="black" stroke-width="0.5"/>
<path d="M365.26 278.33L365.26 278.33"
fill="none" stroke="black" stroke-width="0.5"/>
<path d="M365.26 286.01L365.26 277.05"
fill="none" stroke="blue" stroke-width="0.5"/>
<path d="M370.08 286.01L370.08 277.05"
fill="none" stroke="blue" stroke-width="0.5"/>
<path d="M363.21 278.33L361.16 278.33"
fill="none" stroke="blue" stroke-width="0.5"/>
<path d="M372.13 278.33L374.18 278.33"
fill="none" stroke="blue" stroke-width="0.5"/>
<path d="M367.67 278.33L362.04 273.11"
fill="none" stroke="blue" stroke-width="0.5"/>
<path d="M362.04 273.11L354.5 273.11"
fill="none" stroke="blue" stroke-width="0.5"/>
<path d="M356.14 269.91L354.92 271.61M354.92 271.61L356.75 271.61M356.14 269.91L356.14 272.47M357.48 272.22L357.36 272.34M357.36 272.34L357.48 272.47M357.48 272.47L357.6 272.34M358.58 269.91L360.28 269.91M360.28 269.91L359.06 272.47M361.01 270.39L361.26 270.27M361.26 270.27L361.62 269.91M361.62 269.91L361.62 272.47"
fill="none" stroke="blue" stroke-width="0.5"/>
<path d="M365.26 278.33L370.08 278.33"
fill="none" stroke="blue" stroke-width="0.5"/>
<path d="M365.26 278.33L370.08 278.33"
fill="none" stroke="blue" stroke-width="0.5"/>
<path d="M363.21 277.99L365.26 278.33 365.26 278.33 363.21 278.67 363.21 277.99Z"
fill-rule="evenodd" fill="blue"/>
<path d="M372.13 277.99L370.08 278.33 370.08 278.33 372.13 278.67 372.13 277.99Z"
fill-rule="evenodd" fill="blue"/>
<path d="M365.26 288.57L365.26 288.57"
fill="none" stroke="black" stroke-width="0.5"/>
<path d="M370.08 288.57L370.08 288.57"
fill="none" stroke="black" stroke-width="0.5"/>
<path d="M370.08 278.33L370.08 278.33"
fill="none" stroke="black" stroke-width="0.5"/>
<path d="M370.08 286.01L370.08 273.23"
fill="none" stroke="blue" stroke-width="0.5"/>
<path d="M373.1 286.01L373.1 273.23"
fill="none" stroke="blue" stroke-width="0.5"/>
<path d="M368.03 274.51L365.98 274.51"
fill="none" stroke="blue" stroke-width="0.5"/>
<path d="M375.15 274.51L377.2 274.51"
fill="none" stroke="blue" stroke-width="0.5"/>
<path d="M371.59 274.51L371.59 270.86"
fill="none" stroke="blue" stroke-width="0.5"/>
<path d="M371.59 270.86L379.58 270.86"
fill="none" stroke="blue" stroke-width="0.5"/>
<path d="M371.81 268.25L371.81 268.12M371.81 268.12L371.93 267.88M371.93 267.88L372.05 267.76M372.05 267.76L372.29 267.64M372.29 267.64L372.78 267.64M372.78 267.64L373.03 267.76M373.03 267.76L373.15 267.88M373.15 267.88L373.27 268.12M373.27 268.12L373.27 268.37M373.27 268.37L373.15 268.61M373.15 268.61L372.9 268.98M372.9 268.98L371.69 270.2M371.69 270.2L373.39 270.2M374.25 269.95L374.12 270.07M374.12 270.07L374.25 270.2M374.25 270.2L374.37 270.07M376.93 268.49L376.8 268.86M376.8 268.86L376.56 269.1M376.56 269.1L376.2 269.22M376.2 269.22L376.07 269.22M376.07 269.22L375.71 269.1M375.71 269.1L375.46 268.86M375.46 268.86L375.34 268.49M375.34 268.49L375.34 268.37M375.34 268.37L375.46 268M375.46 268L375.71 267.76M375.71 267.76L376.07 267.64M376.07 267.64L376.2 267.64M376.2 267.64L376.56 267.76M376.56 267.76L376.8 268M376.8 268L376.93 268.49M376.93 268.49L376.93 269.1M376.93 269.1L376.8 269.71M376.8 269.71L376.56 270.07M376.56 270.07L376.2 270.2M376.2 270.2L375.95 270.2M375.95 270.2L375.59 270.07M375.59 270.07L375.46 269.83M379.24 267.64L378.02 267.64M378.02 267.64L377.9 268.73M377.9 268.73L378.02 268.61M378.02 268.61L378.39 268.49M378.39 268.49L378.75 268.49M378.75 268.49L379.12 268.61M379.12 268.61L379.36 268.86M379.36 268.86L379.49 269.22M379.49 269.22L379.49 269.47M379.49 269.47L379.36 269.83M379.36 269.83L379.12 270.07M379.12 270.07L378.75 270.2M378.75 270.2L378.39 270.2M378.39 270.2L378.02 270.07M378.02 270.07L377.9 269.95M377.9 269.95L377.78 269.71"
fill="none" stroke="blue" stroke-width="0.5"/>
<path d="M370.08 274.51L373.1 274.51"
fill="none" stroke="blue" stroke-width="0.5"/>
<path d="M370.08 274.51L373.1 274.51"
fill="none" stroke="blue" stroke-width="0.5"/>
<path d="M368.03 274.17L370.08 274.51 370.08 274.51 368.03 274.85 368.03 274.17Z"
fill-rule="evenodd" fill="blue"/>
<path d="M375.15 274.17L373.1 274.51 373.1 274.51 375.15 274.85 375.15 274.17Z"
fill-rule="evenodd" fill="blue"/>
<path d="M370.08 288.57L370.08 288.57"
fill="none" stroke="black" stroke-width="0.5"/>
<path d="M373.1 288.57L373.1 288.57"
fill="none" stroke="black" stroke-width="0.5"/>
<path d="M373.1 274.51L373.1 274.51"
fill="none" stroke="black" stroke-width="0.5"/>
<path d="M373.1 286.01L373.1 280.51"
fill="none" stroke="blue" stroke-width="0.5"/>
<path d="M374.12 286.01L374.12 280.51"
fill="none" stroke="blue" stroke-width="0.5"/>
<path d="M371.05 281.79L369 281.79"
fill="none" stroke="blue" stroke-width="0.5"/>
<path d="M376.17 281.79L378.22 281.79"
fill="none" stroke="blue" stroke-width="0.5"/>
<path d="M377.91 279.07L378.16 278.95M378.16 278.95L378.52 278.59M378.52 278.59L378.52 281.15"
fill="none" stroke="blue" stroke-width="0.5"/>
<path d="M373.1 281.79L374.12 281.79"
fill="none" stroke="blue" stroke-width="0.5"/>
<path d="M371.05 281.45L373.1 281.79 373.1 281.79 371.05 282.13 371.05 281.45Z"
fill-rule="evenodd" fill="blue"/>
<path d="M376.17 281.45L374.12 281.79 374.12 281.79 376.17 282.13 376.17 281.45Z"
fill-rule="evenodd" fill="blue"/>
<path d="M373.1 288.57L373.1 288.57"
fill="none" stroke="black" stroke-width="0.5"/>
<path d="M374.12 288.57L374.12 288.57"
fill="none" stroke="black" stroke-width="0.5"/>
<path d="M374.12 281.79L374.12 281.79"
fill="none" stroke="black" stroke-width="0.5"/>
<path d="M328.6 286.01L328.6 277.05"
fill="none" stroke="blue" stroke-width="0.5"/>
<path d="M323.69 286.01L323.69 277.05"
fill="none" stroke="blue" stroke-width="0.5"/>
<path d="M330.65 278.33L332.7 278.33"
fill="none" stroke="blue" stroke-width="0.5"/>
<path d="M321.64 278.33L319.59 278.33"
fill="none" stroke="blue" stroke-width="0.5"/>
<path d="M326.15 278.33L332.47 273.29"
fill="none" stroke="blue" stroke-width="0.5"/>
<path d="M332.47 273.29L338.52 273.29"
fill="none" stroke="blue" stroke-width="0.5"/>
<path d="M334.03 270.07L332.81 271.77M332.81 271.77L334.64 271.77M334.03 270.07L334.03 272.63M335.37 272.38L335.25 272.5M335.25 272.5L335.37 272.63M335.37 272.63L335.49 272.5M337.08 270.07L336.71 270.19M336.71 270.19L336.59 270.43M336.59 270.43L336.59 270.68M336.59 270.68L336.71 270.92M336.71 270.92L336.95 271.04M336.95 271.04L337.44 271.16M337.44 271.16L337.81 271.29M337.81 271.29L338.05 271.53M338.05 271.53L338.17 271.77M338.17 271.77L338.17 272.14M338.17 272.14L338.05 272.38M338.05 272.38L337.93 272.5M337.93 272.5L337.56 272.63M337.56 272.63L337.08 272.63M337.08 272.63L336.71 272.5M336.71 272.5L336.59 272.38M336.59 272.38L336.47 272.14M336.47 272.14L336.47 271.77M336.47 271.77L336.59 271.53M336.59 271.53L336.83 271.29M336.83 271.29L337.2 271.16M337.2 271.16L337.69 271.04M337.69 271.04L337.93 270.92M337.93 270.92L338.05 270.68M338.05 270.68L338.05 270.43M338.05 270.43L337.93 270.19M337.93 270.19L337.56 270.07M337.56 270.07L337.08 270.07"
fill="none" stroke="blue" stroke-width="0.5"/>
<path d="M328.6 278.33L323.69 278.33"
fill="none" stroke="blue" stroke-width="0.5"/>
<path d="M328.6 278.33L323.69 278.33"
fill="none" stroke="blue" stroke-width="0.5"/>
<path d="M330.65 277.99L328.6 278.33 328.6 278.33 330.65 278.67 330.65 277.99Z"
fill-rule="evenodd" fill="blue"/>
<path d="M321.64 277.99L323.69 278.33 323.69 278.33 321.64 278.67 321.64 277.99Z"
fill-rule="evenodd" fill="blue"/>
<path d="M328.6 288.57L328.6 288.57"
fill="none" stroke="black" stroke-width="0.5"/>
<path d="M323.69 288.57L323.69 288.57"
fill="none" stroke="black" stroke-width="0.5"/>
<path d="M323.69 278.33L323.69 278.33"
fill="none" stroke="black" stroke-width="0.5"/>
<path d="M323.69 286.01L323.69 273.76"
fill="none" stroke="blue" stroke-width="0.5"/>
<path d="M320.67 286.01L320.67 273.76"
fill="none" stroke="blue" stroke-width="0.5"/>
<path d="M325.74 275.04L327.78 275.04"
fill="none" stroke="blue" stroke-width="0.5"/>
<path d="M318.62 275.04L316.57 275.04"
fill="none" stroke="blue" stroke-width="0.5"/>
<path d="M322.18 275.04L322.18 270.83"
fill="none" stroke="blue" stroke-width="0.5"/>
<path d="M322.18 270.83L330.17 270.83"
fill="none" stroke="blue" stroke-width="0.5"/>
<path d="M322.4 268.21L322.4 268.09M322.4 268.09L322.52 267.84M322.52 267.84L322.64 267.72M322.64 267.72L322.88 267.6M322.88 267.6L323.37 267.6M323.37 267.6L323.62 267.72M323.62 267.72L323.74 267.84M323.74 267.84L323.86 268.09M323.86 268.09L323.86 268.33M323.86 268.33L323.74 268.57M323.74 268.57L323.49 268.94M323.49 268.94L322.27 270.16M322.27 270.16L323.98 270.16M324.83 269.92L324.71 270.04M324.71 270.04L324.83 270.16M324.83 270.16L324.96 270.04M327.52 268.45L327.39 268.82M327.39 268.82L327.15 269.06M327.15 269.06L326.78 269.18M326.78 269.18L326.66 269.18M326.66 269.18L326.3 269.06M326.3 269.06L326.05 268.82M326.05 268.82L325.93 268.45M325.93 268.45L325.93 268.33M325.93 268.33L326.05 267.96M326.05 267.96L326.3 267.72M326.3 267.72L326.66 267.6M326.66 267.6L326.78 267.6M326.78 267.6L327.15 267.72M327.15 267.72L327.39 267.96M327.39 267.96L327.52 268.45M327.52 268.45L327.52 269.06M327.52 269.06L327.39 269.67M327.39 269.67L327.15 270.04M327.15 270.04L326.78 270.16M326.78 270.16L326.54 270.16M326.54 270.16L326.17 270.04M326.17 270.04L326.05 269.79M329.83 267.6L328.61 267.6M328.61 267.6L328.49 268.7M328.49 268.7L328.61 268.57M328.61 268.57L328.98 268.45M328.98 268.45L329.34 268.45M329.34 268.45L329.71 268.57M329.71 268.57L329.95 268.82M329.95 268.82L330.08 269.18M330.08 269.18L330.08 269.43M330.08 269.43L329.95 269.79M329.95 269.79L329.71 270.04M329.71 270.04L329.34 270.16M329.34 270.16L328.98 270.16M328.98 270.16L328.61 270.04M328.61 270.04L328.49 269.92M328.49 269.92L328.37 269.67"
fill="none" stroke="blue" stroke-width="0.5"/>
<path d="M323.69 275.04L320.67 275.04"
fill="none" stroke="blue" stroke-width="0.5"/>
<path d="M323.69 275.04L320.67 275.04"
fill="none" stroke="blue" stroke-width="0.5"/>
<path d="M325.74 274.7L323.69 275.04 323.69 275.04 325.74 275.38 325.74 274.7Z"
fill-rule="evenodd" fill="blue"/>
<path d="M318.62 274.7L320.67 275.04 320.67 275.04 318.62 275.38 318.62 274.7Z"
fill-rule="evenodd" fill="blue"/>
<path d="M323.69 288.57L323.69 288.57"
fill="none" stroke="black" stroke-width="0.5"/>
<path d="M320.67 288.57L320.67 288.57"
fill="none" stroke="black" stroke-width="0.5"/>
<path d="M320.67 275.04L320.67 275.04"
fill="none" stroke="black" stroke-width="0.5"/>
<path d="M320.67 286.01L320.67 281.13"
fill="none" stroke="blue" stroke-width="0.5"/>
<path d="M319.64 286.01L319.64 281.13"
fill="none" stroke="blue" stroke-width="0.5"/>
<path d="M322.72 282.41L324.76 282.41"
fill="none" stroke="blue" stroke-width="0.5"/>
<path d="M317.6 282.41L315.55 282.41"
fill="none" stroke="blue" stroke-width="0.5"/>
<path d="M315.24 279.69L315.49 279.57M315.49 279.57L315.85 279.2M315.85 279.2L315.85 281.76"
fill="none" stroke="blue" stroke-width="0.5"/>
<path d="M320.67 282.41L319.64 282.41"
fill="none" stroke="blue" stroke-width="0.5"/>
<path d="M322.72 282.06L320.67 282.41 320.67 282.41 322.72 282.75 322.72 282.06Z"
fill-rule="evenodd" fill="blue"/>
<path d="M317.6 282.06L319.64 282.41 319.64 282.41 317.6 282.75 317.6 282.06Z"
fill-rule="evenodd" fill="blue"/>
<path d="M320.67 288.57L320.67 288.57"
fill="none" stroke="black" stroke-width="0.5"/>
<path d="M319.64 288.57L319.64 288.57"
fill="none" stroke="black" stroke-width="0.5"/>
<path d="M319.64 282.41L319.64 282.41"
fill="none" stroke="black" stroke-width="0.5"/>
<path d="M319.64 305.97L319.64 314.93"
fill="none" stroke="blue" stroke-width="0.5"/>
<path d="M329.63 305.97L329.63 314.93"
fill="none" stroke="blue" stroke-width="0.5"/>
<path d="M321.69 313.65L327.58 313.65"
fill="none" stroke="blue" stroke-width="0.5"/>
<path d="M321.69 313.31L319.64 313.65 319.64 313.65 321.69 313.99 321.69 313.31Z"
fill-rule="evenodd" fill="blue"/>
<path d="M327.58 313.31L329.63 313.65 329.63 313.65 327.58 313.99 327.58 313.31Z"
fill-rule="evenodd" fill="blue"/>
<path d="M322.32 311.28L322.2 311.65M322.2 311.65L321.95 311.89M321.95 311.89L321.59 312.01M321.59 312.01L321.47 312.01M321.47 312.01L321.1 311.89M321.1 311.89L320.86 311.65M320.86 311.65L320.74 311.28M320.74 311.28L320.74 311.16M320.74 311.16L320.86 310.79M320.86 310.79L321.1 310.55M321.1 310.55L321.47 310.43M321.47 310.43L321.59 310.43M321.59 310.43L321.95 310.55M321.95 310.55L322.2 310.79M322.2 310.79L322.32 311.28M322.32 311.28L322.32 311.89M322.32 311.89L322.2 312.5M322.2 312.5L321.95 312.86M321.95 312.86L321.59 312.99M321.59 312.99L321.35 312.99M321.35 312.99L320.98 312.86M320.98 312.86L320.86 312.62M323.3 312.74L323.17 312.86M323.17 312.86L323.3 312.99M323.3 312.99L323.42 312.86M324.39 310.43L326.1 310.43M326.1 310.43L324.88 312.99M328.29 310.43L327.07 310.43M327.07 310.43L326.95 311.52M326.95 311.52L327.07 311.4M327.07 311.4L327.44 311.28M327.44 311.28L327.81 311.28M327.81 311.28L328.17 311.4M328.17 311.4L328.41 311.65M328.41 311.65L328.54 312.01M328.54 312.01L328.54 312.26M328.54 312.26L328.41 312.62M328.41 312.62L328.17 312.86M328.17 312.86L327.81 312.99M327.81 312.99L327.44 312.99M327.44 312.99L327.07 312.86M327.07 312.86L326.95 312.74M326.95 312.74L326.83 312.5"
fill="none" stroke="blue" stroke-width="0.5"/>
<path d="M319.64 303.42L319.64 303.42"
fill="none" stroke="black" stroke-width="0.5"/>
<path d="M329.63 303.42L329.63 303.42"
fill="none" stroke="black" stroke-width="0.5"/>
<path d="M329.63 313.65L329.63 313.65"
fill="none" stroke="black" stroke-width="0.5"/>
<path d="M329.63 305.97L329.63 314.93"
fill="none" stroke="blue" stroke-width="0.5"/>
<path d="M339.46 305.97L339.46 314.93"
fill="none" stroke="blue" stroke-width="0.5"/>
<path d="M331.68 313.65L337.41 313.65"
fill="none" stroke="blue" stroke-width="0.5"/>
<path d="M331.68 313.31L329.63 313.65 329.63 313.65 331.68 313.99 331.68 313.31Z"
fill-rule="evenodd" fill="blue"/>
<path d="M337.41 313.31L339.46 313.65 339.46 313.65 337.41 313.99 337.41 313.31Z"
fill-rule="evenodd" fill="blue"/>
<path d="M333.51 311.28L333.38 311.65M333.38 311.65L333.14 311.89M333.14 311.89L332.77 312.01M332.77 312.01L332.65 312.01M332.65 312.01L332.29 311.89M332.29 311.89L332.04 311.65M332.04 311.65L331.92 311.28M331.92 311.28L331.92 311.16M331.92 311.16L332.04 310.79M332.04 310.79L332.29 310.55M332.29 310.55L332.65 310.43M332.65 310.43L332.77 310.43M332.77 310.43L333.14 310.55M333.14 310.55L333.38 310.79M333.38 310.79L333.51 311.28M333.51 311.28L333.51 311.89M333.51 311.89L333.38 312.5M333.38 312.5L333.14 312.86M333.14 312.86L332.77 312.99M332.77 312.99L332.53 312.99M332.53 312.99L332.17 312.86M332.17 312.86L332.04 312.62M334.48 312.74L334.36 312.86M334.36 312.86L334.48 312.99M334.48 312.99L334.6 312.86M337.04 310.79L336.92 310.55M336.92 310.55L336.55 310.43M336.55 310.43L336.31 310.43M336.31 310.43L335.94 310.55M335.94 310.55L335.7 310.91M335.7 310.91L335.58 311.52M335.58 311.52L335.58 312.13M335.58 312.13L335.7 312.62M335.7 312.62L335.94 312.86M335.94 312.86L336.31 312.99M336.31 312.99L336.43 312.99M336.43 312.99L336.8 312.86M336.8 312.86L337.04 312.62M337.04 312.62L337.16 312.26M337.16 312.26L337.16 312.13M337.16 312.13L337.04 311.77M337.04 311.77L336.8 311.52M336.8 311.52L336.43 311.4M336.43 311.4L336.31 311.4M336.31 311.4L335.94 311.52M335.94 311.52L335.7 311.77M335.7 311.77L335.58 312.13"
fill="none" stroke="blue" stroke-width="0.5"/>
<path d="M329.63 303.42L329.63 303.42"
fill="none" stroke="black" stroke-width="0.5"/>
<path d="M339.46 303.42L339.46 303.42"
fill="none" stroke="black" stroke-width="0.5"/>
<path d="M339.46 313.65L339.46 313.65"
fill="none" stroke="black" stroke-width="0.5"/>
<path d="M339.46 305.97L339.46 314.93"
fill="none" stroke="blue" stroke-width="0.5"/>
<path d="M374.12 305.97L374.12 314.93"
fill="none" stroke="blue" stroke-width="0.5"/>
<path d="M341.5 313.65L372.08 313.65"
fill="none" stroke="blue" stroke-width="0.5"/>
<path d="M341.5 313.31L339.46 313.65 339.46 313.65 341.5 313.99 341.5 313.31Z"
fill-rule="evenodd" fill="blue"/>
<path d="M372.08 313.31L374.12 313.65 374.12 313.65 372.08 313.99 372.08 313.31Z"
fill-rule="evenodd" fill="blue"/>
<path d="M351.98 310.43L353.32 310.43M353.32 310.43L352.59 311.4M352.59 311.4L352.95 311.4M352.95 311.4L353.19 311.52M353.19 311.52L353.32 311.65M353.32 311.65L353.44 312.01M353.44 312.01L353.44 312.25M353.44 312.25L353.32 312.62M353.32 312.62L353.07 312.86M353.07 312.86L352.71 312.99M352.71 312.99L352.34 312.99M352.34 312.99L351.98 312.86M351.98 312.86L351.85 312.74M351.85 312.74L351.73 312.5M354.41 310.43L355.75 310.43M355.75 310.43L355.02 311.4M355.02 311.4L355.39 311.4M355.39 311.4L355.63 311.52M355.63 311.52L355.75 311.65M355.75 311.65L355.88 312.01M355.88 312.01L355.88 312.25M355.88 312.25L355.75 312.62M355.75 312.62L355.51 312.86M355.51 312.86L355.14 312.99M355.14 312.99L354.78 312.99M354.78 312.99L354.41 312.86M354.41 312.86L354.29 312.74M354.29 312.74L354.17 312.5M356.73 312.74L356.61 312.86M356.61 312.86L356.73 312.99M356.73 312.99L356.85 312.86M358.44 310.43L358.07 310.55M358.07 310.55L357.95 310.79M357.95 310.79L357.95 311.04M357.95 311.04L358.07 311.28M358.07 311.28L358.31 311.4M358.31 311.4L358.8 311.52M358.8 311.52L359.17 311.65M359.17 311.65L359.41 311.89M359.41 311.89L359.53 312.13M359.53 312.13L359.53 312.5M359.53 312.5L359.41 312.74M359.41 312.74L359.29 312.86M359.29 312.86L358.92 312.99M358.92 312.99L358.44 312.99M358.44 312.99L358.07 312.86M358.07 312.86L357.95 312.74M357.95 312.74L357.83 312.5M357.83 312.5L357.83 312.13M357.83 312.13L357.95 311.89M357.95 311.89L358.19 311.65M358.19 311.65L358.56 311.52M358.56 311.52L359.05 311.4M359.05 311.4L359.29 311.28M359.29 311.28L359.41 311.04M359.41 311.04L359.41 310.79M359.41 310.79L359.29 310.55M359.29 310.55L358.92 310.43M358.92 310.43L358.44 310.43M361.73 310.79L361.6 310.55M361.6 310.55L361.24 310.43M361.24 310.43L361 310.43M361 310.43L360.63 310.55M360.63 310.55L360.39 310.91M360.39 310.91L360.26 311.52M360.26 311.52L360.26 312.13M360.26 312.13L360.39 312.62M360.39 312.62L360.63 312.86M360.63 312.86L361 312.99M361 312.99L361.12 312.99M361.12 312.99L361.48 312.86M361.48 312.86L361.73 312.62M361.73 312.62L361.85 312.25M361.85 312.25L361.85 312.13M361.85 312.13L361.73 311.77M361.73 311.77L361.48 311.52M361.48 311.52L361.12 311.4M361.12 311.4L361 311.4M361 311.4L360.63 311.52M360.63 311.52L360.39 311.77M360.39 311.77L360.26 312.13"
fill="none" stroke="blue" stroke-width="0.5"/>
<path d="M339.46 303.42L339.46 303.42"
fill="none" stroke="black" stroke-width="0.5"/>
<path d="M374.12 303.42L374.12 303.42"
fill="none" stroke="black" stroke-width="0.5"/>
<path d="M374.12 313.65L374.12 313.65"
fill="none" stroke="black" stroke-width="0.5"/>
<path d="M375.66 288.57L384.49 288.57"
fill="none" stroke="blue" stroke-width="0.5"/>
<path d="M375.66 299.73L384.49 299.73"
fill="none" stroke="blue" stroke-width="0.5"/>
<path d="M383.21 290.62L383.21 292.2"
fill="none" stroke="blue" stroke-width="0.5"/>
<path d="M383.21 297.68L383.21 296.1"
fill="none" stroke="blue" stroke-width="0.5"/>
<path d="M382.87 290.62L383.21 288.57 383.21 288.57 383.56 290.62 382.87 290.62Z"
fill-rule="evenodd" fill="blue"/>
<path d="M382.87 297.68L383.21 299.73 383.21 299.73 383.56 297.68 382.87 297.68Z"
fill-rule="evenodd" fill="blue"/>
<path d="M379.62 293.36L379.86 293.24M379.86 293.24L380.23 292.87M380.23 292.87L380.23 295.43M382.3 292.87L381.93 292.99M381.93 292.99L381.69 293.36M381.69 293.36L381.57 293.97M381.57 293.97L381.57 294.33M381.57 294.33L381.69 294.94M381.69 294.94L381.93 295.31M381.93 295.31L382.3 295.43M382.3 295.43L382.54 295.43M382.54 295.43L382.91 295.31M382.91 295.31L383.15 294.94M383.15 294.94L383.27 294.33M383.27 294.33L383.27 293.97M383.27 293.97L383.15 293.36M383.15 293.36L382.91 292.99M382.91 292.99L382.54 292.87M382.54 292.87L382.3 292.87M384.13 295.19L384.01 295.31M384.01 295.31L384.13 295.43M384.13 295.43L384.25 295.31M386.81 293.72L386.69 294.09M386.69 294.09L386.44 294.33M386.44 294.33L386.08 294.45M386.08 294.45L385.96 294.45M385.96 294.45L385.59 294.33M385.59 294.33L385.35 294.09M385.35 294.09L385.22 293.72M385.22 293.72L385.22 293.6M385.22 293.6L385.35 293.24M385.35 293.24L385.59 292.99M385.59 292.99L385.96 292.87M385.96 292.87L386.08 292.87M386.08 292.87L386.44 292.99M386.44 292.99L386.69 293.24M386.69 293.24L386.81 293.72M386.81 293.72L386.81 294.33M386.81 294.33L386.69 294.94M386.69 294.94L386.44 295.31M386.44 295.31L386.08 295.43M386.08 295.43L385.83 295.43M385.83 295.43L385.47 295.31M385.47 295.31L385.35 295.06"
fill="none" stroke="blue" stroke-width="0.5"/>
<path d="M373.1 288.57L373.1 288.57"
fill="none" stroke="black" stroke-width="0.5"/>
<path d="M373.1 299.73L373.1 299.73"
fill="none" stroke="black" stroke-width="0.5"/>
<path d="M383.21 299.73L383.21 299.73"
fill="none" stroke="black" stroke-width="0.5"/>
<path d="M375.66 299.73L393.57 299.73"
fill="none" stroke="blue" stroke-width="0.5"/>
<path d="M375.66 301.37L393.57 301.37"
fill="none" stroke="blue" stroke-width="0.5"/>
<path d="M392.29 297.68L392.29 295.63"
fill="none" stroke="blue" stroke-width="0.5"/>
<path d="M392.29 303.42L392.29 305.46"
fill="none" stroke="blue" stroke-width="0.5"/>
<path d="M392.29 300.55L399.12 300.55"
fill="none" stroke="blue" stroke-width="0.5"/>
<path d="M399.12 300.55L404.81 300.55"
fill="none" stroke="blue" stroke-width="0.5"/>
<path d="M399.59 297.81L399.83 297.69M399.83 297.69L400.2 297.32M400.2 297.32L400.2 299.88M401.66 299.64L401.54 299.76M401.54 299.76L401.66 299.88M401.66 299.88L401.78 299.76M404.22 297.69L404.1 297.44M404.1 297.44L403.73 297.32M403.73 297.32L403.49 297.32M403.49 297.32L403.12 297.44M403.12 297.44L402.88 297.81M402.88 297.81L402.76 298.42M402.76 298.42L402.76 299.03M402.76 299.03L402.88 299.52M402.88 299.52L403.12 299.76M403.12 299.76L403.49 299.88M403.49 299.88L403.61 299.88M403.61 299.88L403.98 299.76M403.98 299.76L404.22 299.52M404.22 299.52L404.34 299.15M404.34 299.15L404.34 299.03M404.34 299.03L404.22 298.66M404.22 298.66L403.98 298.42M403.98 298.42L403.61 298.3M403.61 298.3L403.49 298.3M403.49 298.3L403.12 298.42M403.12 298.42L402.88 298.66M402.88 298.66L402.76 299.03"
fill="none" stroke="blue" stroke-width="0.5"/>
<path d="M392.29 299.73L392.29 301.37"
fill="none" stroke="blue" stroke-width="0.5"/>
<path d="M392.29 299.73L392.29 301.37"
fill="none" stroke="blue" stroke-width="0.5"/>
<path d="M391.95 297.68L392.29 299.73 392.29 299.73 392.63 297.68 391.95 297.68Z"
fill-rule="evenodd" fill="blue"/>
<path d="M391.95 303.42L392.29 301.37 392.29 301.37 392.63 303.42 391.95 303.42Z"
fill-rule="evenodd" fill="blue"/>
<path d="M373.1 299.73L373.1 299.73"
fill="none" stroke="black" stroke-width="0.5"/>
<path d="M373.1 301.37L373.1 301.37"
fill="none" stroke="black" stroke-width="0.5"/>
<path d="M392.29 301.37L392.29 301.37"
fill="none" stroke="black" stroke-width="0.5"/>
<path d="M375.66 301.37L385.77 301.37"
fill="none" stroke="blue" stroke-width="0.5"/>
<path d="M375.66 303.42L385.77 303.42"
fill="none" stroke="blue" stroke-width="0.5"/>
<path d="M384.49 299.32L384.49 297.27"
fill="none" stroke="blue" stroke-width="0.5"/>
<path d="M384.49 305.46L384.49 307.51"
fill="none" stroke="blue" stroke-width="0.5"/>
<path d="M389.52 307.51L384.49 307.51"
fill="none" stroke="blue" stroke-width="0.5"/>
<path d="M387.3 304.92L387.3 304.79M387.3 304.79L387.42 304.55M387.42 304.55L387.54 304.43M387.54 304.43L387.79 304.31M387.79 304.31L388.27 304.31M388.27 304.31L388.52 304.43M388.52 304.43L388.64 304.55M388.64 304.55L388.76 304.79M388.76 304.79L388.76 305.04M388.76 305.04L388.64 305.28M388.64 305.28L388.39 305.65M388.39 305.65L387.18 306.87M387.18 306.87L388.88 306.87"
fill="none" stroke="blue" stroke-width="0.5"/>
<path d="M384.49 301.37L384.49 303.42"
fill="none" stroke="blue" stroke-width="0.5"/>
<path d="M384.15 299.32L384.49 301.37 384.49 301.37 384.83 299.32 384.15 299.32Z"
fill-rule="evenodd" fill="blue"/>
<path d="M384.15 305.46L384.49 303.42 384.49 303.42 384.83 305.46 384.15 305.46Z"
fill-rule="evenodd" fill="blue"/>
<path d="M373.1 301.37L373.1 301.37"
fill="none" stroke="black" stroke-width="0.5"/>
<path d="M373.1 303.42L373.1 303.42"
fill="none" stroke="black" stroke-width="0.5"/>
<path d="M384.49 303.42L384.49 303.42"
fill="none" stroke="black" stroke-width="0.5"/>
<path d="M379.34 390.45L379.34 386.35M379.34 386.35L380.9 390.45M380.9 390.45L382.46 386.35M382.46 386.35L382.46 390.45M385 387.72L384.61 387.91M384.61 387.91L384.22 388.3M384.22 388.3L384.02 388.89M384.02 388.89L384.02 389.28M384.02 389.28L384.22 389.86M384.22 389.86L384.61 390.25M384.61 390.25L385 390.45M385 390.45L385.58 390.45M385.58 390.45L385.97 390.25M385.97 390.25L386.36 389.86M386.36 389.86L386.56 389.28M386.56 389.28L386.56 388.89M386.56 388.89L386.36 388.3M386.36 388.3L385.97 387.91M385.97 387.91L385.58 387.72M385.58 387.72L385 387.72M390.07 386.35L390.07 390.45M390.07 388.3L389.68 387.91M389.68 387.91L389.29 387.72M389.29 387.72L388.7 387.72M388.7 387.72L388.31 387.91M388.31 387.91L387.92 388.3M387.92 388.3L387.73 388.89M387.73 388.89L387.73 389.28M387.73 389.28L387.92 389.86M387.92 389.86L388.31 390.25M388.31 390.25L388.7 390.45M388.7 390.45L389.29 390.45M389.29 390.45L389.68 390.25M389.68 390.25L390.07 389.86M391.43 388.89L393.78 388.89M393.78 388.89L393.78 388.5M393.78 388.5L393.58 388.11M393.58 388.11L393.39 387.91M393.39 387.91L393 387.72M393 387.72L392.41 387.72M392.41 387.72L392.02 387.91M392.02 387.91L391.63 388.3M391.63 388.3L391.43 388.89M391.43 388.89L391.43 389.28M391.43 389.28L391.63 389.86M391.63 389.86L392.02 390.25M392.02 390.25L392.41 390.45M392.41 390.45L393 390.45M393 390.45L393.39 390.25M393.39 390.25L393.78 389.86M394.95 390.45L394.95 386.35M396.7 387.72L396.51 387.91M396.51 387.91L396.7 388.11M396.7 388.11L396.9 387.91M396.9 387.91L396.7 387.72M396.7 390.06L396.51 390.25M396.51 390.25L396.7 390.45M396.7 390.45L396.9 390.25M396.9 390.25L396.7 390.06M403.14 390.45L403.14 386.35M403.14 386.35L404.89 386.35M404.89 386.35L405.48 386.55M405.48 386.55L405.67 386.74M405.67 386.74L405.87 387.13M405.87 387.13L405.87 387.72M405.87 387.72L405.67 388.11M405.67 388.11L405.48 388.3M405.48 388.3L404.89 388.5M404.89 388.5L403.14 388.5M409.96 386.94L409.57 386.55M409.57 386.55L408.99 386.35M408.99 386.35L408.21 386.35M408.21 386.35L407.62 386.55M407.62 386.55L407.23 386.94M407.23 386.94L407.23 387.33M407.23 387.33L407.43 387.72M407.43 387.72L407.62 387.91M407.62 387.91L408.01 388.11M408.01 388.11L409.18 388.5M409.18 388.5L409.57 388.69M409.57 388.69L409.77 388.89M409.77 388.89L409.96 389.28M409.96 389.28L409.96 389.86M409.96 389.86L409.57 390.25M409.57 390.25L408.99 390.45M408.99 390.45L408.21 390.45M408.21 390.45L407.62 390.25M407.62 390.25L407.23 389.86M411.13 386.35L411.13 390.45M411.13 390.45L413.47 390.45M416.79 387.72L416.79 390.45M416.79 388.3L416.4 387.91M416.4 387.91L416.01 387.72M416.01 387.72L415.42 387.72M415.42 387.72L415.03 387.91M415.03 387.91L414.64 388.3M414.64 388.3L414.45 388.89M414.45 388.89L414.45 389.28M414.45 389.28L414.64 389.86M414.64 389.86L415.03 390.25M415.03 390.25L415.42 390.45M415.42 390.45L416.01 390.45M416.01 390.45L416.4 390.25M416.4 390.25L416.79 389.86M418.15 390.45L418.15 386.35M418.15 388.3L418.54 387.91M418.54 387.91L418.93 387.72M418.93 387.72L419.52 387.72M419.52 387.72L419.91 387.91M419.91 387.91L420.3 388.3M420.3 388.3L420.49 388.89M420.49 388.89L420.49 389.28M420.49 389.28L420.3 389.86M420.3 389.86L419.91 390.25M419.91 390.25L419.52 390.45M419.52 390.45L418.93 390.45M418.93 390.45L418.54 390.25M418.54 390.25L418.15 389.86M425.56 386.35L427.12 390.45M427.12 390.45L428.68 386.35M431.8 386.35L429.85 386.35M429.85 386.35L429.66 388.11M429.66 388.11L429.85 387.91M429.85 387.91L430.44 387.72M430.44 387.72L431.02 387.72M431.02 387.72L431.61 387.91M431.61 387.91L432 388.3M432 388.3L432.19 388.89M432.19 388.89L432.19 389.28M432.19 389.28L432 389.86M432 389.86L431.61 390.25M431.61 390.25L431.02 390.45M431.02 390.45L430.44 390.45M430.44 390.45L429.85 390.25M429.85 390.25L429.66 390.06M429.66 390.06L429.46 389.67M379.34 393.18L380.9 397.27M380.9 397.27L382.46 393.18M383.24 393.37L383.44 393.57M383.44 393.57L383.63 393.37M383.63 393.37L383.44 393.18M383.44 393.18L383.24 393.37M383.44 394.54L383.44 397.27M384.8 395.71L387.14 395.71M387.14 395.71L387.14 395.32M387.14 395.32L386.95 394.93M386.95 394.93L386.75 394.74M386.75 394.74L386.36 394.54M386.36 394.54L385.78 394.54M385.78 394.54L385.39 394.74M385.39 394.74L385 395.13M385 395.13L384.8 395.71M384.8 395.71L384.8 396.1M384.8 396.1L385 396.69M385 396.69L385.39 397.08M385.39 397.08L385.78 397.27M385.78 397.27L386.36 397.27M386.36 397.27L386.75 397.08M386.75 397.08L387.14 396.69M388.31 394.54L389.09 397.27M389.09 397.27L389.87 394.54M389.87 394.54L390.65 397.27M390.65 397.27L391.43 394.54M392.8 394.54L392.61 394.74M392.61 394.74L392.8 394.93M392.8 394.93L393 394.74M393 394.74L392.8 394.54M392.8 396.88L392.61 397.08M392.61 397.08L392.8 397.27M392.8 397.27L393 397.08M393 397.08L392.8 396.88M399.24 397.27L399.24 393.18M399.24 393.18L401.77 393.18M399.24 395.13L400.8 395.13M402.75 397.27L402.75 394.54M402.75 395.71L402.94 395.13M402.94 395.13L403.33 394.74M403.33 394.74L403.72 394.54M403.72 394.54L404.31 394.54M406.26 394.54L405.87 394.74M405.87 394.74L405.48 395.13M405.48 395.13L405.28 395.71M405.28 395.71L405.28 396.1M405.28 396.1L405.48 396.69M405.48 396.69L405.87 397.08M405.87 397.08L406.26 397.27M406.26 397.27L406.84 397.27M406.84 397.27L407.23 397.08M407.23 397.08L407.62 396.69M407.62 396.69L407.82 396.1M407.82 396.1L407.82 395.71M407.82 395.71L407.62 395.13M407.62 395.13L407.23 394.74M407.23 394.74L406.84 394.54M406.84 394.54L406.26 394.54M408.99 397.27L408.99 394.54M408.99 395.32L409.57 394.74M409.57 394.74L409.96 394.54M409.96 394.54L410.55 394.54M410.55 394.54L410.94 394.74M410.94 394.74L411.13 395.32M411.13 395.32L411.13 397.27M413.28 393.18L413.28 396.49M413.28 396.49L413.47 397.08M413.47 397.08L413.86 397.27M413.86 397.27L414.25 397.27M412.69 394.54L414.06 394.54M379.34 404.1L379.34 400M379.34 400L380.71 400M380.71 400L381.29 400.2M381.29 400.2L381.68 400.59M381.68 400.59L381.88 400.98M381.88 400.98L382.07 401.56M382.07 401.56L382.07 402.54M382.07 402.54L381.88 403.12M381.88 403.12L381.68 403.51M381.68 403.51L381.29 403.9M381.29 403.9L380.71 404.1M380.71 404.1L379.34 404.1M383.44 400.2L383.63 400.39M383.63 400.39L383.83 400.2M383.83 400.2L383.63 400M383.63 400L383.44 400.2M383.63 401.37L383.63 404.1M385 404.1L385 401.37M385 402.15L385.58 401.56M385.58 401.56L385.97 401.37M385.97 401.37L386.56 401.37M386.56 401.37L386.95 401.56M386.95 401.56L387.14 402.15M387.14 402.15L387.14 404.1M387.14 402.15L387.73 401.56M387.73 401.56L388.12 401.37M388.12 401.37L388.7 401.37M388.7 401.37L389.09 401.56M389.09 401.56L389.29 402.15M389.29 402.15L389.29 404.1M390.85 402.54L393.19 402.54M393.19 402.54L393.19 402.15M393.19 402.15L393 401.76M393 401.76L392.8 401.56M392.8 401.56L392.41 401.37M392.41 401.37L391.82 401.37M391.82 401.37L391.43 401.56M391.43 401.56L391.04 401.95M391.04 401.95L390.85 402.54M390.85 402.54L390.85 402.93M390.85 402.93L391.04 403.51M391.04 403.51L391.43 403.9M391.43 403.9L391.82 404.1M391.82 404.1L392.41 404.1M392.41 404.1L392.8 403.9M392.8 403.9L393.19 403.51M394.36 404.1L394.36 401.37M394.36 402.15L394.95 401.56M394.95 401.56L395.34 401.37M395.34 401.37L395.92 401.37M395.92 401.37L396.31 401.56M396.31 401.56L396.51 402.15M396.51 402.15L396.51 404.1M400.21 401.95L400.02 401.56M400.02 401.56L399.43 401.37M399.43 401.37L398.85 401.37M398.85 401.37L398.26 401.56M398.26 401.56L398.07 401.95M398.07 401.95L398.26 402.34M398.26 402.34L398.65 402.54M398.65 402.54L399.63 402.73M399.63 402.73L400.02 402.93M400.02 402.93L400.21 403.32M400.21 403.32L400.21 403.51M400.21 403.51L400.02 403.9M400.02 403.9L399.43 404.1M399.43 404.1L398.85 404.1M398.85 404.1L398.26 403.9M398.26 403.9L398.07 403.51M401.38 400.2L401.58 400.39M401.58 400.39L401.77 400.2M401.77 400.2L401.58 400M401.58 400L401.38 400.2M401.58 401.37L401.58 404.1M403.92 401.37L403.53 401.56M403.53 401.56L403.14 401.95M403.14 401.95L402.94 402.54M402.94 402.54L402.94 402.93M402.94 402.93L403.14 403.51M403.14 403.51L403.53 403.9M403.53 403.9L403.92 404.1M403.92 404.1L404.5 404.1M404.5 404.1L404.89 403.9M404.89 403.9L405.28 403.51M405.28 403.51L405.48 402.93M405.48 402.93L405.48 402.54M405.48 402.54L405.28 401.95M405.28 401.95L404.89 401.56M404.89 401.56L404.5 401.37M404.5 401.37L403.92 401.37M406.65 404.1L406.65 401.37M406.65 402.15L407.23 401.56M407.23 401.56L407.62 401.37M407.62 401.37L408.21 401.37M408.21 401.37L408.6 401.56M408.6 401.56L408.79 402.15M408.79 402.15L408.79 404.1M412.5 401.95L412.3 401.56M412.3 401.56L411.72 401.37M411.72 401.37L411.13 401.37M411.13 401.37L410.55 401.56M410.55 401.56L410.35 401.95M410.35 401.95L410.55 402.34M410.55 402.34L410.94 402.54M410.94 402.54L411.91 402.73M411.91 402.73L412.3 402.93M412.3 402.93L412.5 403.32M412.5 403.32L412.5 403.51M412.5 403.51L412.3 403.9M412.3 403.9L411.72 404.1M411.72 404.1L411.13 404.1M411.13 404.1L410.55 403.9M410.55 403.9L410.35 403.51M413.86 401.37L413.67 401.56M413.67 401.56L413.86 401.76M413.86 401.76L414.06 401.56M414.06 401.56L413.86 401.37M413.86 403.71L413.67 403.9M413.67 403.9L413.86 404.1M413.86 404.1L414.06 403.9M414.06 403.9L413.86 403.71M420.3 404.1L420.3 401.37M420.3 402.15L420.88 401.56M420.88 401.56L421.27 401.37M421.27 401.37L421.86 401.37M421.86 401.37L422.25 401.56M422.25 401.56L422.44 402.15M422.44 402.15L422.44 404.1M422.44 402.15L423.03 401.56M423.03 401.56L423.42 401.37M423.42 401.37L424 401.37M424 401.37L424.39 401.56M424.39 401.56L424.59 402.15M424.59 402.15L424.59 404.1M426.15 400.2L426.34 400.39M426.34 400.39L426.54 400.2M426.54 400.2L426.34 400M426.34 400L426.15 400.2M426.34 401.37L426.34 404.1M427.71 404.1L427.71 400M429.27 404.1L429.27 400M430.83 400.2L431.02 400.39M431.02 400.39L431.22 400.2M431.22 400.2L431.02 400M431.02 400L430.83 400.2M431.02 401.37L431.02 404.1M432.39 404.1L432.39 401.37M432.39 402.15L432.97 401.56M432.97 401.56L433.36 401.37M433.36 401.37L433.95 401.37M433.95 401.37L434.34 401.56M434.34 401.56L434.53 402.15M434.53 402.15L434.53 404.1M434.53 402.15L435.12 401.56M435.12 401.56L435.51 401.37M435.51 401.37L436.09 401.37M436.09 401.37L436.48 401.56M436.48 401.56L436.68 402.15M436.68 402.15L436.68 404.1M438.24 402.54L440.58 402.54M440.58 402.54L440.58 402.15M440.58 402.15L440.38 401.76M440.38 401.76L440.19 401.56M440.19 401.56L439.8 401.37M439.8 401.37L439.21 401.37M439.21 401.37L438.82 401.56M438.82 401.56L438.43 401.95M438.43 401.95L438.24 402.54M438.24 402.54L438.24 402.93M438.24 402.93L438.43 403.51M438.43 403.51L438.82 403.9M438.82 403.9L439.21 404.1M439.21 404.1L439.8 404.1M439.8 404.1L440.19 403.9M440.19 403.9L440.58 403.51M442.34 400L442.34 403.32M442.34 403.32L442.53 403.9M442.53 403.9L442.92 404.1M442.92 404.1L443.31 404.1M441.75 401.37L443.12 401.37M444.48 402.54L446.82 402.54M446.82 402.54L446.82 402.15M446.82 402.15L446.63 401.76M446.63 401.76L446.43 401.56M446.43 401.56L446.04 401.37M446.04 401.37L445.46 401.37M445.46 401.37L445.07 401.56M445.07 401.56L444.68 401.95M444.68 401.95L444.48 402.54M444.48 402.54L444.48 402.93M444.48 402.93L444.68 403.51M444.68 403.51L445.07 403.9M445.07 403.9L445.46 404.1M445.46 404.1L446.04 404.1M446.04 404.1L446.43 403.9M446.43 403.9L446.82 403.51M447.99 404.1L447.99 401.37M447.99 402.54L448.19 401.95M448.19 401.95L448.58 401.56M448.58 401.56L448.97 401.37M448.97 401.37L449.55 401.37M452.67 401.95L452.48 401.56M452.48 401.56L451.89 401.37M451.89 401.37L451.31 401.37M451.31 401.37L450.72 401.56M450.72 401.56L450.53 401.95M450.53 401.95L450.72 402.34M450.72 402.34L451.11 402.54M451.11 402.54L452.09 402.73M452.09 402.73L452.48 402.93M452.48 402.93L452.67 403.32M452.67 403.32L452.67 403.51M452.67 403.51L452.48 403.9M452.48 403.9L451.89 404.1M451.89 404.1L451.31 404.1M451.31 404.1L450.72 403.9M450.72 403.9L450.53 403.51"
fill="none" stroke="black" stroke-width="0.5"/>
<path d="M196.95 410.83L501.04 410.83M501.04 410.83L501.04 195.82M501.04 195.82L196.95 195.82M196.95 195.82L196.95 410.83"
fill="none" stroke="black" stroke-width="0.5"/>
<path d="M501.04 410.83L501.04 380.12"
fill="none" stroke="black" stroke-width="0.5"/>
<path d="M501.04 380.12L373.06 380.12"
fill="none" stroke="black" stroke-width="0.5"/>
<path d="M373.06 380.12L373.06 410.83"
fill="none" stroke="black" stroke-width="0.5"/>
<path d="M190.25 417.53L190.25 189.12 507.74 189.12 507.74 417.53 190.25 417.53"
fill="none" stroke="black" stroke-width="0.5"/>
</svg>
