G04 #@! TF.FileFunction,Copper,L1,Top,Signal*
%FSLAX46Y46*%
G04 Gerber Fmt 4.6, Leading zero omitted, Abs format (unit mm)*
G04 Created by KiCad (PCBNEW 4.0.7-e1-6374~58~ubuntu14.04.1) date Sat Jan 27 06:03:06 2018*
%MOMM*%
%LPD*%
G01*
G04 APERTURE LIST*
%ADD10C,0.100000*%
%ADD11R,0.600000X1.950000*%
%ADD12R,1.500000X1.250000*%
%ADD13R,1.250000X1.500000*%
%ADD14C,1.520000*%
%ADD15C,2.700000*%
%ADD16R,1.700000X1.700000*%
%ADD17O,1.700000X1.700000*%
%ADD18R,1.500000X1.300000*%
%ADD19R,1.300000X1.500000*%
%ADD20R,1.500000X0.550000*%
%ADD21R,0.550000X1.500000*%
%ADD22C,1.500000*%
%ADD23R,2.000000X3.800000*%
%ADD24R,2.000000X1.500000*%
%ADD25C,0.600000*%
%ADD26C,0.500000*%
%ADD27C,0.351000*%
G04 APERTURE END LIST*
D10*
D11*
X134655000Y-88710000D03*
X135925000Y-88710000D03*
X137195000Y-88710000D03*
X138465000Y-88710000D03*
X139735000Y-88710000D03*
X141005000Y-88710000D03*
X142275000Y-88710000D03*
X143545000Y-88710000D03*
X144815000Y-88710000D03*
X146085000Y-88710000D03*
X146085000Y-79310000D03*
X144815000Y-79310000D03*
X143545000Y-79310000D03*
X142275000Y-79310000D03*
X141005000Y-79310000D03*
X139735000Y-79310000D03*
X138465000Y-79310000D03*
X137195000Y-79310000D03*
X135925000Y-79310000D03*
X134655000Y-79310000D03*
D12*
X147430000Y-96770000D03*
X144930000Y-96770000D03*
X147430000Y-93090000D03*
X144930000Y-93090000D03*
X135970000Y-75850000D03*
X138470000Y-75850000D03*
D13*
X120970000Y-115820000D03*
X120970000Y-113320000D03*
X130930000Y-77400000D03*
X130930000Y-79900000D03*
D12*
X131590000Y-103070000D03*
X129090000Y-103070000D03*
X126710000Y-123560000D03*
X124210000Y-123560000D03*
D13*
X148040000Y-117990000D03*
X148040000Y-115490000D03*
D12*
X126500000Y-93880000D03*
X129000000Y-93880000D03*
D13*
X138740000Y-115050000D03*
X138740000Y-117550000D03*
X148040000Y-108740000D03*
X148040000Y-111240000D03*
D14*
X126070000Y-82290000D03*
X126070000Y-84830000D03*
X124070000Y-84830000D03*
X124070000Y-82290000D03*
D15*
X121370000Y-77560000D03*
X121370000Y-89560000D03*
D16*
X149730000Y-82950000D03*
D17*
X149730000Y-85490000D03*
D16*
X117120000Y-118800000D03*
D17*
X117120000Y-116260000D03*
X117120000Y-113720000D03*
X117120000Y-111180000D03*
X117120000Y-108640000D03*
D16*
X147790000Y-123520000D03*
D17*
X150330000Y-123520000D03*
D18*
X129350000Y-123550000D03*
X132050000Y-123550000D03*
D19*
X130920000Y-87060000D03*
X130920000Y-89760000D03*
D18*
X137500000Y-123550000D03*
X134800000Y-123550000D03*
D20*
X124180000Y-110240000D03*
X124180000Y-111040000D03*
X124180000Y-111840000D03*
X124180000Y-112640000D03*
X124180000Y-113440000D03*
X124180000Y-114240000D03*
X124180000Y-115040000D03*
X124180000Y-115840000D03*
X124180000Y-116640000D03*
X124180000Y-117440000D03*
X124180000Y-118240000D03*
D21*
X125880000Y-119940000D03*
X126680000Y-119940000D03*
X127480000Y-119940000D03*
X128280000Y-119940000D03*
X129080000Y-119940000D03*
X129880000Y-119940000D03*
X130680000Y-119940000D03*
X131480000Y-119940000D03*
X132280000Y-119940000D03*
X133080000Y-119940000D03*
X133880000Y-119940000D03*
D20*
X135580000Y-118240000D03*
X135580000Y-117440000D03*
X135580000Y-116640000D03*
X135580000Y-115840000D03*
X135580000Y-115040000D03*
X135580000Y-114240000D03*
X135580000Y-113440000D03*
X135580000Y-112640000D03*
X135580000Y-111840000D03*
X135580000Y-111040000D03*
X135580000Y-110240000D03*
D21*
X133880000Y-108540000D03*
X133080000Y-108540000D03*
X132280000Y-108540000D03*
X131480000Y-108540000D03*
X130680000Y-108540000D03*
X129880000Y-108540000D03*
X129080000Y-108540000D03*
X128280000Y-108540000D03*
X127480000Y-108540000D03*
X126680000Y-108540000D03*
X125880000Y-108540000D03*
D22*
X134250000Y-95020000D03*
X139130000Y-95020000D03*
X143450000Y-115860000D03*
X143450000Y-110980000D03*
D12*
X126500000Y-98450000D03*
X129000000Y-98450000D03*
D23*
X117270000Y-96170000D03*
D24*
X123570000Y-96170000D03*
X123570000Y-93870000D03*
X123570000Y-98470000D03*
D12*
X118800000Y-123570000D03*
X121300000Y-123570000D03*
D16*
X112700000Y-123570000D03*
D17*
X115240000Y-123570000D03*
D18*
X142960000Y-123550000D03*
X140260000Y-123550000D03*
D16*
X139870000Y-103380000D03*
D17*
X142410000Y-103380000D03*
X144950000Y-103380000D03*
D25*
X130680000Y-118070000D03*
X120430000Y-94400000D03*
X132570000Y-79920000D03*
X132830000Y-90480000D03*
X127110000Y-111160000D03*
X132190000Y-116250000D03*
X138900000Y-123570000D03*
D26*
X138470000Y-75850000D02*
X138470000Y-79305000D01*
X138470000Y-79305000D02*
X138465000Y-79310000D01*
X120970000Y-115820000D02*
X122150000Y-115820000D01*
X122930000Y-115040000D02*
X124180000Y-115040000D01*
X122150000Y-115820000D02*
X122930000Y-115040000D01*
X129350000Y-123550000D02*
X129350000Y-122370000D01*
X129880000Y-121840000D02*
X129880000Y-119940000D01*
X129350000Y-122370000D02*
X129880000Y-121840000D01*
X126710000Y-123560000D02*
X129340000Y-123560000D01*
X129340000Y-123560000D02*
X129350000Y-123550000D01*
X130680000Y-119940000D02*
X130680000Y-121430000D01*
X142960000Y-122400000D02*
X142960000Y-123550000D01*
X142350000Y-121790000D02*
X142960000Y-122400000D01*
X131040000Y-121790000D02*
X142350000Y-121790000D01*
X130680000Y-121430000D02*
X131040000Y-121790000D01*
X130680000Y-119940000D02*
X130680000Y-118070000D01*
X130920000Y-87060000D02*
X130920000Y-85640000D01*
X138465000Y-86435000D02*
X138465000Y-88710000D01*
X137160000Y-85130000D02*
X138465000Y-86435000D01*
X131430000Y-85130000D02*
X137160000Y-85130000D01*
X130920000Y-85640000D02*
X131430000Y-85130000D01*
X139870000Y-98970000D02*
X139870000Y-98850000D01*
X139870000Y-98850000D02*
X140270000Y-98450000D01*
X139870000Y-103380000D02*
X139870000Y-98970000D01*
X139870000Y-98970000D02*
X139350000Y-98450000D01*
X149160000Y-96770000D02*
X149280000Y-96770000D01*
X149280000Y-96770000D02*
X149700000Y-97190000D01*
X129000000Y-98450000D02*
X139350000Y-98450000D01*
X139350000Y-98450000D02*
X140270000Y-98450000D01*
X140270000Y-98450000D02*
X148470000Y-98450000D01*
X149700000Y-97400000D02*
X149700000Y-97190000D01*
X148650000Y-98450000D02*
X149700000Y-97400000D01*
X148470000Y-98450000D02*
X148650000Y-98450000D01*
X149700000Y-97190000D02*
X149700000Y-96230000D01*
X129000000Y-93880000D02*
X129000000Y-98450000D01*
X123570000Y-98470000D02*
X123570000Y-99870000D01*
X129000000Y-100060000D02*
X129000000Y-98450000D01*
X128740000Y-100320000D02*
X129000000Y-100060000D01*
X124020000Y-100320000D02*
X128740000Y-100320000D01*
X123570000Y-99870000D02*
X124020000Y-100320000D01*
X123570000Y-98470000D02*
X120070000Y-98470000D01*
X119500000Y-84830000D02*
X122520000Y-84830000D01*
X114950000Y-89380000D02*
X119500000Y-84830000D01*
X120070000Y-98470000D02*
X118910000Y-99630000D01*
X135970000Y-75850000D02*
X134270000Y-75850000D01*
X134270000Y-75850000D02*
X133860000Y-75440000D01*
X130930000Y-75910000D02*
X130930000Y-75780000D01*
X130930000Y-75780000D02*
X130590000Y-75440000D01*
X124070000Y-84830000D02*
X122520000Y-84830000D01*
X127180000Y-75440000D02*
X130590000Y-75440000D01*
X122520000Y-84830000D02*
X122150000Y-84460000D01*
X122150000Y-84460000D02*
X122150000Y-80470000D01*
X122150000Y-80470000D02*
X127180000Y-75440000D01*
X130590000Y-75440000D02*
X131400000Y-75440000D01*
X130930000Y-77400000D02*
X130930000Y-75910000D01*
X134655000Y-76235000D02*
X134655000Y-79310000D01*
X133860000Y-75440000D02*
X134655000Y-76235000D01*
X131400000Y-75440000D02*
X133860000Y-75440000D01*
X130930000Y-75910000D02*
X131400000Y-75440000D01*
X147430000Y-93090000D02*
X149000000Y-93090000D01*
X149000000Y-93090000D02*
X149700000Y-93790000D01*
X149700000Y-93790000D02*
X149700000Y-96230000D01*
X149160000Y-96770000D02*
X147430000Y-96770000D01*
X149700000Y-96230000D02*
X149160000Y-96770000D01*
X114950000Y-95660000D02*
X114950000Y-89380000D01*
X118910000Y-99630000D02*
X118360000Y-99630000D01*
X117370000Y-99630000D02*
X115900000Y-99630000D01*
X115900000Y-99630000D02*
X114950000Y-98680000D01*
X114950000Y-98680000D02*
X114950000Y-95660000D01*
X118360000Y-99630000D02*
X117370000Y-99630000D01*
X134250000Y-95020000D02*
X134250000Y-93520000D01*
X135925000Y-91845000D02*
X135925000Y-88710000D01*
X134250000Y-93520000D02*
X135925000Y-91845000D01*
X134250000Y-95020000D02*
X134250000Y-96250000D01*
X134770000Y-96770000D02*
X144930000Y-96770000D01*
X134250000Y-96250000D02*
X134770000Y-96770000D01*
X137195000Y-88710000D02*
X137195000Y-92015000D01*
X137195000Y-92015000D02*
X139130000Y-93950000D01*
X139130000Y-95020000D02*
X139130000Y-93950000D01*
X139130000Y-93950000D02*
X139130000Y-93920000D01*
X139960000Y-93090000D02*
X144930000Y-93090000D01*
X139130000Y-93920000D02*
X139960000Y-93090000D01*
X129880000Y-108540000D02*
X129880000Y-106160000D01*
X131590000Y-104450000D02*
X131590000Y-103070000D01*
X129880000Y-106160000D02*
X131590000Y-104450000D01*
X120970000Y-113320000D02*
X118980000Y-113320000D01*
X118580000Y-113720000D02*
X117120000Y-113720000D01*
X118980000Y-113320000D02*
X118580000Y-113720000D01*
X120970000Y-113320000D02*
X122180000Y-113320000D01*
X123100000Y-114240000D02*
X124180000Y-114240000D01*
X122180000Y-113320000D02*
X123100000Y-114240000D01*
X150260000Y-119250000D02*
X150260000Y-123450000D01*
X150260000Y-123450000D02*
X150330000Y-123520000D01*
X138740000Y-115050000D02*
X140210000Y-115050000D01*
X149420000Y-113320000D02*
X148040000Y-113320000D01*
X150260000Y-114160000D02*
X149420000Y-113320000D01*
X150260000Y-119250000D02*
X150260000Y-114160000D01*
X149280000Y-120230000D02*
X150260000Y-119250000D01*
X144350000Y-120230000D02*
X149280000Y-120230000D01*
X141220000Y-117100000D02*
X144350000Y-120230000D01*
X141220000Y-116060000D02*
X141220000Y-117100000D01*
X140210000Y-115050000D02*
X141220000Y-116060000D01*
X121300000Y-123570000D02*
X124200000Y-123570000D01*
X124200000Y-123570000D02*
X124210000Y-123560000D01*
X148040000Y-111240000D02*
X148040000Y-113320000D01*
X148040000Y-113320000D02*
X148040000Y-115490000D01*
X135580000Y-113440000D02*
X138210000Y-113440000D01*
X138740000Y-113970000D02*
X138740000Y-115050000D01*
X138210000Y-113440000D02*
X138740000Y-113970000D01*
X124210000Y-123560000D02*
X124210000Y-122660000D01*
X129080000Y-121240000D02*
X129080000Y-119940000D01*
X128510000Y-121810000D02*
X129080000Y-121240000D01*
X125060000Y-121810000D02*
X128510000Y-121810000D01*
X124210000Y-122660000D02*
X125060000Y-121810000D01*
X129080000Y-117490000D02*
X133130000Y-113440000D01*
X129080000Y-119940000D02*
X129080000Y-117490000D01*
X129080000Y-117490000D02*
X125830000Y-114240000D01*
X124180000Y-114240000D02*
X125830000Y-114240000D01*
X125830000Y-114240000D02*
X129880000Y-110190000D01*
X129880000Y-108540000D02*
X129880000Y-110190000D01*
X133130000Y-113440000D02*
X135580000Y-113440000D01*
X129880000Y-110190000D02*
X133130000Y-113440000D01*
X148050000Y-115480000D02*
X148040000Y-115490000D01*
X120430000Y-94400000D02*
X120420000Y-94410000D01*
X120420000Y-94410000D02*
X120420000Y-96170000D01*
X132570000Y-79920000D02*
X132550000Y-79900000D01*
X132840000Y-90490000D02*
X132840000Y-91450000D01*
X132830000Y-90480000D02*
X132840000Y-90490000D01*
X131350000Y-91450000D02*
X132840000Y-91450000D01*
X132840000Y-91450000D02*
X133910000Y-91450000D01*
X130920000Y-91020000D02*
X131350000Y-91450000D01*
X133910000Y-91450000D02*
X134655000Y-90705000D01*
X132550000Y-79900000D02*
X130930000Y-79900000D01*
X123570000Y-96170000D02*
X125980000Y-96170000D01*
X126500000Y-96690000D02*
X126500000Y-98450000D01*
X125980000Y-96170000D02*
X126500000Y-96690000D01*
X117270000Y-96170000D02*
X120420000Y-96170000D01*
X120420000Y-96170000D02*
X123570000Y-96170000D01*
X130920000Y-89760000D02*
X130920000Y-91020000D01*
X134655000Y-90705000D02*
X134655000Y-88710000D01*
X129080000Y-109770000D02*
X129080000Y-108540000D01*
X127110000Y-111160000D02*
X127240000Y-111290000D01*
X127240000Y-111290000D02*
X127560000Y-111290000D01*
X127560000Y-111290000D02*
X129080000Y-109770000D01*
X129080000Y-108540000D02*
X129080000Y-103080000D01*
X129080000Y-103080000D02*
X129090000Y-103070000D01*
X132050000Y-123550000D02*
X132050000Y-124680000D01*
X145830000Y-125480000D02*
X147790000Y-123520000D01*
X132850000Y-125480000D02*
X145830000Y-125480000D01*
X132050000Y-124680000D02*
X132850000Y-125480000D01*
X138740000Y-117550000D02*
X138740000Y-119580000D01*
X138740000Y-119580000D02*
X139440000Y-120280000D01*
X139440000Y-120280000D02*
X142690000Y-120280000D01*
X142690000Y-120280000D02*
X143890000Y-121480000D01*
X143890000Y-121480000D02*
X145750000Y-121480000D01*
X145750000Y-121480000D02*
X147790000Y-123520000D01*
X135580000Y-114240000D02*
X136660000Y-114240000D01*
X137740000Y-117550000D02*
X138740000Y-117550000D01*
X137180000Y-116990000D02*
X137740000Y-117550000D01*
X137180000Y-114760000D02*
X137180000Y-116990000D01*
X136660000Y-114240000D02*
X137180000Y-114760000D01*
X132050000Y-123550000D02*
X133440000Y-123550000D01*
X133440000Y-123550000D02*
X134800000Y-123550000D01*
X135580000Y-114240000D02*
X133650000Y-114240000D01*
X132190000Y-115700000D02*
X132190000Y-116250000D01*
X133650000Y-114240000D02*
X132190000Y-115700000D01*
X143450000Y-115860000D02*
X143450000Y-116870000D01*
X144570000Y-117990000D02*
X148040000Y-117990000D01*
X143450000Y-116870000D02*
X144570000Y-117990000D01*
X135580000Y-112640000D02*
X140680000Y-112640000D01*
X140680000Y-112640000D02*
X143450000Y-115410000D01*
X143450000Y-115410000D02*
X143450000Y-115860000D01*
X126500000Y-93880000D02*
X123580000Y-93880000D01*
X123580000Y-93880000D02*
X123570000Y-93870000D01*
X123570000Y-93870000D02*
X123570000Y-92000000D01*
X126070000Y-89500000D02*
X126070000Y-84830000D01*
X123570000Y-92000000D02*
X126070000Y-89500000D01*
X143450000Y-110980000D02*
X143450000Y-110060000D01*
X144770000Y-108740000D02*
X148040000Y-108740000D01*
X143450000Y-110060000D02*
X144770000Y-108740000D01*
X135580000Y-111840000D02*
X139780000Y-111840000D01*
X140640000Y-110980000D02*
X143450000Y-110980000D01*
X139780000Y-111840000D02*
X140640000Y-110980000D01*
X126070000Y-82290000D02*
X128170000Y-82290000D01*
X137195000Y-82185000D02*
X137195000Y-79310000D01*
X135560000Y-83820000D02*
X137195000Y-82185000D01*
X129700000Y-83820000D02*
X135560000Y-83820000D01*
X128170000Y-82290000D02*
X129700000Y-83820000D01*
X124070000Y-82290000D02*
X124070000Y-80900000D01*
X135925000Y-81275000D02*
X135925000Y-79310000D01*
X134690000Y-82510000D02*
X135925000Y-81275000D01*
X130260000Y-82510000D02*
X134690000Y-82510000D01*
X127990000Y-80240000D02*
X130260000Y-82510000D01*
X124730000Y-80240000D02*
X127990000Y-80240000D01*
X124070000Y-80900000D02*
X124730000Y-80240000D01*
X149730000Y-82950000D02*
X146380000Y-82950000D01*
X144815000Y-81385000D02*
X144815000Y-79310000D01*
X146380000Y-82950000D02*
X144815000Y-81385000D01*
X146085000Y-88710000D02*
X146085000Y-85955000D01*
X146550000Y-85490000D02*
X149730000Y-85490000D01*
X146085000Y-85955000D02*
X146550000Y-85490000D01*
X117120000Y-111180000D02*
X116360000Y-111180000D01*
X116360000Y-111180000D02*
X115380000Y-110200000D01*
X115380000Y-110200000D02*
X115380000Y-106820000D01*
X115380000Y-106820000D02*
X117090000Y-105110000D01*
X117090000Y-105110000D02*
X127350000Y-105110000D01*
X127350000Y-105110000D02*
X128280000Y-106040000D01*
X128280000Y-106040000D02*
X128280000Y-108540000D01*
X117120000Y-108640000D02*
X117120000Y-107320000D01*
X117120000Y-107320000D02*
X118180000Y-106260000D01*
X127480000Y-108540000D02*
X127480000Y-106630000D01*
X127110000Y-106260000D02*
X118180000Y-106260000D01*
X127480000Y-106630000D02*
X127110000Y-106260000D01*
X115240000Y-123570000D02*
X118800000Y-123570000D01*
X138890000Y-123550000D02*
X138900000Y-123570000D01*
X137500000Y-123550000D02*
X138890000Y-123550000D01*
X138890000Y-123550000D02*
X140260000Y-123550000D01*
D27*
G36*
X153599500Y-125589500D02*
X147595040Y-125589500D01*
X147717970Y-125466570D01*
X148640000Y-125466570D01*
X149038556Y-125391576D01*
X149362944Y-125182839D01*
X149593143Y-125336653D01*
X150330000Y-125483223D01*
X151066857Y-125336653D01*
X151691534Y-124919257D01*
X152108930Y-124294580D01*
X152255500Y-123557723D01*
X152255500Y-123482277D01*
X152108930Y-122745420D01*
X151691534Y-122120743D01*
X151585500Y-122049893D01*
X151585500Y-114160000D01*
X151484602Y-113652753D01*
X151197270Y-113222730D01*
X150357270Y-112382730D01*
X149927247Y-112095398D01*
X149747468Y-112059638D01*
X149761570Y-111990000D01*
X149761570Y-110490000D01*
X149686576Y-110091444D01*
X149623114Y-109992822D01*
X149675176Y-109916627D01*
X149761570Y-109490000D01*
X149761570Y-107990000D01*
X149686576Y-107591444D01*
X149451030Y-107225394D01*
X149091627Y-106979824D01*
X148665000Y-106893430D01*
X147415000Y-106893430D01*
X147016444Y-106968424D01*
X146650394Y-107203970D01*
X146506545Y-107414500D01*
X144770000Y-107414500D01*
X144262753Y-107515398D01*
X143832730Y-107802730D01*
X142512730Y-109122730D01*
X142225398Y-109552753D01*
X142207946Y-109640491D01*
X142193913Y-109654500D01*
X140640000Y-109654500D01*
X140132753Y-109755398D01*
X139818313Y-109965500D01*
X139702730Y-110042730D01*
X139230960Y-110514500D01*
X137426570Y-110514500D01*
X137426570Y-109965000D01*
X137351576Y-109566444D01*
X137116030Y-109200394D01*
X136756627Y-108954824D01*
X136330000Y-108868430D01*
X135251570Y-108868430D01*
X135251570Y-107790000D01*
X135176576Y-107391444D01*
X134941030Y-107025394D01*
X134581627Y-106779824D01*
X134155000Y-106693430D01*
X133605000Y-106693430D01*
X133475412Y-106717814D01*
X133355000Y-106693430D01*
X132805000Y-106693430D01*
X132675412Y-106717814D01*
X132555000Y-106693430D01*
X132005000Y-106693430D01*
X131875412Y-106717814D01*
X131755000Y-106693430D01*
X131221110Y-106693430D01*
X132527270Y-105387270D01*
X132814602Y-104957247D01*
X132880664Y-104625132D01*
X133104606Y-104481030D01*
X133350176Y-104121627D01*
X133436570Y-103695000D01*
X133436570Y-102445000D01*
X133361576Y-102046444D01*
X133126030Y-101680394D01*
X132766627Y-101434824D01*
X132340000Y-101348430D01*
X130840000Y-101348430D01*
X130441444Y-101423424D01*
X130342822Y-101486886D01*
X130266627Y-101434824D01*
X129840000Y-101348430D01*
X129540839Y-101348430D01*
X129677270Y-101257270D01*
X129937270Y-100997270D01*
X130224603Y-100567246D01*
X130325500Y-100060000D01*
X130325500Y-99982716D01*
X130514606Y-99861030D01*
X130573046Y-99775500D01*
X138544500Y-99775500D01*
X138544500Y-101557936D01*
X138255394Y-101743970D01*
X138009824Y-102103373D01*
X137923430Y-102530000D01*
X137923430Y-104230000D01*
X137998424Y-104628556D01*
X138233970Y-104994606D01*
X138593373Y-105240176D01*
X139020000Y-105326570D01*
X140720000Y-105326570D01*
X141118556Y-105251576D01*
X141442944Y-105042839D01*
X141673143Y-105196653D01*
X142410000Y-105343223D01*
X143146857Y-105196653D01*
X143680000Y-104840418D01*
X144213143Y-105196653D01*
X144950000Y-105343223D01*
X145686857Y-105196653D01*
X146311534Y-104779257D01*
X146728930Y-104154580D01*
X146875500Y-103417723D01*
X146875500Y-103342277D01*
X146728930Y-102605420D01*
X146311534Y-101980743D01*
X145686857Y-101563347D01*
X144950000Y-101416777D01*
X144213143Y-101563347D01*
X143680000Y-101919582D01*
X143146857Y-101563347D01*
X142410000Y-101416777D01*
X141673143Y-101563347D01*
X141439150Y-101719696D01*
X141195500Y-101553218D01*
X141195500Y-99775500D01*
X148650000Y-99775500D01*
X149157247Y-99674602D01*
X149587270Y-99387270D01*
X150637270Y-98337270D01*
X150924602Y-97907247D01*
X151025500Y-97400000D01*
X151025500Y-93790000D01*
X150924602Y-93282753D01*
X150637270Y-92852730D01*
X149937270Y-92152730D01*
X149507247Y-91865398D01*
X149008350Y-91766161D01*
X148966030Y-91700394D01*
X148606627Y-91454824D01*
X148180000Y-91368430D01*
X146680000Y-91368430D01*
X146281444Y-91443424D01*
X146182822Y-91506886D01*
X146106627Y-91454824D01*
X145680000Y-91368430D01*
X144180000Y-91368430D01*
X143781444Y-91443424D01*
X143415394Y-91678970D01*
X143356954Y-91764500D01*
X139960000Y-91764500D01*
X139452753Y-91865398D01*
X139133354Y-92078814D01*
X138520500Y-91465960D01*
X138520500Y-90781570D01*
X138765000Y-90781570D01*
X139112297Y-90716221D01*
X139435000Y-90781570D01*
X140035000Y-90781570D01*
X140382297Y-90716221D01*
X140705000Y-90781570D01*
X141305000Y-90781570D01*
X141652297Y-90716221D01*
X141975000Y-90781570D01*
X142575000Y-90781570D01*
X142922297Y-90716221D01*
X143245000Y-90781570D01*
X143845000Y-90781570D01*
X144192297Y-90716221D01*
X144515000Y-90781570D01*
X145115000Y-90781570D01*
X145462297Y-90716221D01*
X145785000Y-90781570D01*
X146385000Y-90781570D01*
X146783556Y-90706576D01*
X147149606Y-90471030D01*
X147395176Y-90111627D01*
X147481570Y-89685000D01*
X147481570Y-87735000D01*
X147410500Y-87357298D01*
X147410500Y-86815500D01*
X148306666Y-86815500D01*
X148330743Y-86851534D01*
X148955420Y-87268930D01*
X149692277Y-87415500D01*
X149767723Y-87415500D01*
X150504580Y-87268930D01*
X151129257Y-86851534D01*
X151546653Y-86226857D01*
X151693223Y-85490000D01*
X151546653Y-84753143D01*
X151390304Y-84519150D01*
X151590176Y-84226627D01*
X151676570Y-83800000D01*
X151676570Y-82100000D01*
X151601576Y-81701444D01*
X151366030Y-81335394D01*
X151006627Y-81089824D01*
X150580000Y-81003430D01*
X148880000Y-81003430D01*
X148481444Y-81078424D01*
X148115394Y-81313970D01*
X147903218Y-81624500D01*
X146929040Y-81624500D01*
X146638425Y-81333885D01*
X146783556Y-81306576D01*
X147149606Y-81071030D01*
X147395176Y-80711627D01*
X147481570Y-80285000D01*
X147481570Y-78335000D01*
X147406576Y-77936444D01*
X147171030Y-77570394D01*
X146811627Y-77324824D01*
X146385000Y-77238430D01*
X145785000Y-77238430D01*
X145437703Y-77303779D01*
X145115000Y-77238430D01*
X144515000Y-77238430D01*
X144167703Y-77303779D01*
X143845000Y-77238430D01*
X143245000Y-77238430D01*
X142897703Y-77303779D01*
X142575000Y-77238430D01*
X141975000Y-77238430D01*
X141627703Y-77303779D01*
X141305000Y-77238430D01*
X140705000Y-77238430D01*
X140357703Y-77303779D01*
X140035000Y-77238430D01*
X140000048Y-77238430D01*
X140230176Y-76901627D01*
X140316570Y-76475000D01*
X140316570Y-75225000D01*
X140241576Y-74826444D01*
X140006030Y-74460394D01*
X139646627Y-74214824D01*
X139220000Y-74128430D01*
X137720000Y-74128430D01*
X137321444Y-74203424D01*
X137222822Y-74266886D01*
X137146627Y-74214824D01*
X136720000Y-74128430D01*
X135220000Y-74128430D01*
X134821444Y-74203424D01*
X134580940Y-74358183D01*
X134367247Y-74215398D01*
X133860000Y-74114500D01*
X127180000Y-74114500D01*
X126672753Y-74215398D01*
X126242730Y-74502730D01*
X123757877Y-76987583D01*
X123427438Y-76187860D01*
X122745729Y-75504960D01*
X121854578Y-75134922D01*
X120889655Y-75134080D01*
X119997860Y-75502562D01*
X119314960Y-76184271D01*
X118944922Y-77075422D01*
X118944080Y-78040345D01*
X119312562Y-78932140D01*
X119994271Y-79615040D01*
X120885422Y-79985078D01*
X120920951Y-79985109D01*
X120824500Y-80470000D01*
X120824500Y-83504500D01*
X119500000Y-83504500D01*
X118992753Y-83605398D01*
X118694776Y-83804500D01*
X118562730Y-83892730D01*
X114012730Y-88442730D01*
X113725398Y-88872753D01*
X113624500Y-89380000D01*
X113624500Y-98680000D01*
X113725398Y-99187247D01*
X114012730Y-99617270D01*
X114962730Y-100567270D01*
X115392753Y-100854602D01*
X115900000Y-100955500D01*
X118910000Y-100955500D01*
X119417247Y-100854602D01*
X119847270Y-100567270D01*
X120619040Y-99795500D01*
X121662284Y-99795500D01*
X121783970Y-99984606D01*
X122143373Y-100230176D01*
X122323395Y-100266631D01*
X122345398Y-100377247D01*
X122632730Y-100807270D01*
X123082730Y-101257270D01*
X123512753Y-101544602D01*
X124020000Y-101645500D01*
X127596327Y-101645500D01*
X127575394Y-101658970D01*
X127329824Y-102018373D01*
X127243430Y-102445000D01*
X127243430Y-103695000D01*
X127260271Y-103784500D01*
X117090000Y-103784500D01*
X116582753Y-103885398D01*
X116152730Y-104172730D01*
X114442730Y-105882730D01*
X114155398Y-106312753D01*
X114054500Y-106820000D01*
X114054500Y-110200000D01*
X114155398Y-110707247D01*
X114442730Y-111137270D01*
X115422730Y-112117270D01*
X115448977Y-112134808D01*
X115659582Y-112450000D01*
X115303347Y-112983143D01*
X115156777Y-113720000D01*
X115303347Y-114456857D01*
X115659582Y-114990000D01*
X115303347Y-115523143D01*
X115156777Y-116260000D01*
X115303347Y-116996857D01*
X115459696Y-117230850D01*
X115259824Y-117523373D01*
X115173430Y-117950000D01*
X115173430Y-119650000D01*
X115248424Y-120048556D01*
X115483970Y-120414606D01*
X115843373Y-120660176D01*
X116270000Y-120746570D01*
X117970000Y-120746570D01*
X118368556Y-120671576D01*
X118734606Y-120436030D01*
X118980176Y-120076627D01*
X119066570Y-119650000D01*
X119066570Y-117950000D01*
X118991576Y-117551444D01*
X118782839Y-117227056D01*
X118936653Y-116996857D01*
X119083223Y-116260000D01*
X118936653Y-115523143D01*
X118613102Y-115038916D01*
X119087247Y-114944602D01*
X119303020Y-114800427D01*
X119248430Y-115070000D01*
X119248430Y-116570000D01*
X119323424Y-116968556D01*
X119558970Y-117334606D01*
X119918373Y-117580176D01*
X120345000Y-117666570D01*
X121595000Y-117666570D01*
X121993556Y-117591576D01*
X122333430Y-117372874D01*
X122333430Y-117715000D01*
X122357814Y-117844588D01*
X122333430Y-117965000D01*
X122333430Y-118515000D01*
X122408424Y-118913556D01*
X122643970Y-119279606D01*
X123003373Y-119525176D01*
X123430000Y-119611570D01*
X124508430Y-119611570D01*
X124508430Y-120615013D01*
X124122730Y-120872730D01*
X123272730Y-121722730D01*
X123157373Y-121895374D01*
X123061444Y-121913424D01*
X122744136Y-122117605D01*
X122476627Y-121934824D01*
X122050000Y-121848430D01*
X120550000Y-121848430D01*
X120151444Y-121923424D01*
X120052822Y-121986886D01*
X119976627Y-121934824D01*
X119550000Y-121848430D01*
X118050000Y-121848430D01*
X117651444Y-121923424D01*
X117285394Y-122158970D01*
X117226954Y-122244500D01*
X116650817Y-122244500D01*
X116601534Y-122170743D01*
X115976857Y-121753347D01*
X115240000Y-121606777D01*
X114503143Y-121753347D01*
X114269150Y-121909696D01*
X113976627Y-121709824D01*
X113550000Y-121623430D01*
X111850000Y-121623430D01*
X111451444Y-121698424D01*
X111085394Y-121933970D01*
X110839824Y-122293373D01*
X110753430Y-122720000D01*
X110753430Y-124420000D01*
X110828424Y-124818556D01*
X111063970Y-125184606D01*
X111423373Y-125430176D01*
X111850000Y-125516570D01*
X113550000Y-125516570D01*
X113948556Y-125441576D01*
X114272944Y-125232839D01*
X114503143Y-125386653D01*
X115240000Y-125533223D01*
X115976857Y-125386653D01*
X116601534Y-124969257D01*
X116650817Y-124895500D01*
X117222719Y-124895500D01*
X117263970Y-124959606D01*
X117623373Y-125205176D01*
X118050000Y-125291570D01*
X119550000Y-125291570D01*
X119948556Y-125216576D01*
X120047178Y-125153114D01*
X120123373Y-125205176D01*
X120550000Y-125291570D01*
X122050000Y-125291570D01*
X122448556Y-125216576D01*
X122765864Y-125012395D01*
X123033373Y-125195176D01*
X123460000Y-125281570D01*
X124960000Y-125281570D01*
X125358556Y-125206576D01*
X125457178Y-125143114D01*
X125533373Y-125195176D01*
X125960000Y-125281570D01*
X127460000Y-125281570D01*
X127858556Y-125206576D01*
X128017972Y-125103995D01*
X128173373Y-125210176D01*
X128600000Y-125296570D01*
X130100000Y-125296570D01*
X130498556Y-125221576D01*
X130700178Y-125091836D01*
X130823130Y-125175847D01*
X130825398Y-125187247D01*
X131094175Y-125589500D01*
X110720500Y-125589500D01*
X110720500Y-74010500D01*
X153599500Y-74010500D01*
X153599500Y-125589500D01*
X153599500Y-125589500D01*
G37*
X153599500Y-125589500D02*
X147595040Y-125589500D01*
X147717970Y-125466570D01*
X148640000Y-125466570D01*
X149038556Y-125391576D01*
X149362944Y-125182839D01*
X149593143Y-125336653D01*
X150330000Y-125483223D01*
X151066857Y-125336653D01*
X151691534Y-124919257D01*
X152108930Y-124294580D01*
X152255500Y-123557723D01*
X152255500Y-123482277D01*
X152108930Y-122745420D01*
X151691534Y-122120743D01*
X151585500Y-122049893D01*
X151585500Y-114160000D01*
X151484602Y-113652753D01*
X151197270Y-113222730D01*
X150357270Y-112382730D01*
X149927247Y-112095398D01*
X149747468Y-112059638D01*
X149761570Y-111990000D01*
X149761570Y-110490000D01*
X149686576Y-110091444D01*
X149623114Y-109992822D01*
X149675176Y-109916627D01*
X149761570Y-109490000D01*
X149761570Y-107990000D01*
X149686576Y-107591444D01*
X149451030Y-107225394D01*
X149091627Y-106979824D01*
X148665000Y-106893430D01*
X147415000Y-106893430D01*
X147016444Y-106968424D01*
X146650394Y-107203970D01*
X146506545Y-107414500D01*
X144770000Y-107414500D01*
X144262753Y-107515398D01*
X143832730Y-107802730D01*
X142512730Y-109122730D01*
X142225398Y-109552753D01*
X142207946Y-109640491D01*
X142193913Y-109654500D01*
X140640000Y-109654500D01*
X140132753Y-109755398D01*
X139818313Y-109965500D01*
X139702730Y-110042730D01*
X139230960Y-110514500D01*
X137426570Y-110514500D01*
X137426570Y-109965000D01*
X137351576Y-109566444D01*
X137116030Y-109200394D01*
X136756627Y-108954824D01*
X136330000Y-108868430D01*
X135251570Y-108868430D01*
X135251570Y-107790000D01*
X135176576Y-107391444D01*
X134941030Y-107025394D01*
X134581627Y-106779824D01*
X134155000Y-106693430D01*
X133605000Y-106693430D01*
X133475412Y-106717814D01*
X133355000Y-106693430D01*
X132805000Y-106693430D01*
X132675412Y-106717814D01*
X132555000Y-106693430D01*
X132005000Y-106693430D01*
X131875412Y-106717814D01*
X131755000Y-106693430D01*
X131221110Y-106693430D01*
X132527270Y-105387270D01*
X132814602Y-104957247D01*
X132880664Y-104625132D01*
X133104606Y-104481030D01*
X133350176Y-104121627D01*
X133436570Y-103695000D01*
X133436570Y-102445000D01*
X133361576Y-102046444D01*
X133126030Y-101680394D01*
X132766627Y-101434824D01*
X132340000Y-101348430D01*
X130840000Y-101348430D01*
X130441444Y-101423424D01*
X130342822Y-101486886D01*
X130266627Y-101434824D01*
X129840000Y-101348430D01*
X129540839Y-101348430D01*
X129677270Y-101257270D01*
X129937270Y-100997270D01*
X130224603Y-100567246D01*
X130325500Y-100060000D01*
X130325500Y-99982716D01*
X130514606Y-99861030D01*
X130573046Y-99775500D01*
X138544500Y-99775500D01*
X138544500Y-101557936D01*
X138255394Y-101743970D01*
X138009824Y-102103373D01*
X137923430Y-102530000D01*
X137923430Y-104230000D01*
X137998424Y-104628556D01*
X138233970Y-104994606D01*
X138593373Y-105240176D01*
X139020000Y-105326570D01*
X140720000Y-105326570D01*
X141118556Y-105251576D01*
X141442944Y-105042839D01*
X141673143Y-105196653D01*
X142410000Y-105343223D01*
X143146857Y-105196653D01*
X143680000Y-104840418D01*
X144213143Y-105196653D01*
X144950000Y-105343223D01*
X145686857Y-105196653D01*
X146311534Y-104779257D01*
X146728930Y-104154580D01*
X146875500Y-103417723D01*
X146875500Y-103342277D01*
X146728930Y-102605420D01*
X146311534Y-101980743D01*
X145686857Y-101563347D01*
X144950000Y-101416777D01*
X144213143Y-101563347D01*
X143680000Y-101919582D01*
X143146857Y-101563347D01*
X142410000Y-101416777D01*
X141673143Y-101563347D01*
X141439150Y-101719696D01*
X141195500Y-101553218D01*
X141195500Y-99775500D01*
X148650000Y-99775500D01*
X149157247Y-99674602D01*
X149587270Y-99387270D01*
X150637270Y-98337270D01*
X150924602Y-97907247D01*
X151025500Y-97400000D01*
X151025500Y-93790000D01*
X150924602Y-93282753D01*
X150637270Y-92852730D01*
X149937270Y-92152730D01*
X149507247Y-91865398D01*
X149008350Y-91766161D01*
X148966030Y-91700394D01*
X148606627Y-91454824D01*
X148180000Y-91368430D01*
X146680000Y-91368430D01*
X146281444Y-91443424D01*
X146182822Y-91506886D01*
X146106627Y-91454824D01*
X145680000Y-91368430D01*
X144180000Y-91368430D01*
X143781444Y-91443424D01*
X143415394Y-91678970D01*
X143356954Y-91764500D01*
X139960000Y-91764500D01*
X139452753Y-91865398D01*
X139133354Y-92078814D01*
X138520500Y-91465960D01*
X138520500Y-90781570D01*
X138765000Y-90781570D01*
X139112297Y-90716221D01*
X139435000Y-90781570D01*
X140035000Y-90781570D01*
X140382297Y-90716221D01*
X140705000Y-90781570D01*
X141305000Y-90781570D01*
X141652297Y-90716221D01*
X141975000Y-90781570D01*
X142575000Y-90781570D01*
X142922297Y-90716221D01*
X143245000Y-90781570D01*
X143845000Y-90781570D01*
X144192297Y-90716221D01*
X144515000Y-90781570D01*
X145115000Y-90781570D01*
X145462297Y-90716221D01*
X145785000Y-90781570D01*
X146385000Y-90781570D01*
X146783556Y-90706576D01*
X147149606Y-90471030D01*
X147395176Y-90111627D01*
X147481570Y-89685000D01*
X147481570Y-87735000D01*
X147410500Y-87357298D01*
X147410500Y-86815500D01*
X148306666Y-86815500D01*
X148330743Y-86851534D01*
X148955420Y-87268930D01*
X149692277Y-87415500D01*
X149767723Y-87415500D01*
X150504580Y-87268930D01*
X151129257Y-86851534D01*
X151546653Y-86226857D01*
X151693223Y-85490000D01*
X151546653Y-84753143D01*
X151390304Y-84519150D01*
X151590176Y-84226627D01*
X151676570Y-83800000D01*
X151676570Y-82100000D01*
X151601576Y-81701444D01*
X151366030Y-81335394D01*
X151006627Y-81089824D01*
X150580000Y-81003430D01*
X148880000Y-81003430D01*
X148481444Y-81078424D01*
X148115394Y-81313970D01*
X147903218Y-81624500D01*
X146929040Y-81624500D01*
X146638425Y-81333885D01*
X146783556Y-81306576D01*
X147149606Y-81071030D01*
X147395176Y-80711627D01*
X147481570Y-80285000D01*
X147481570Y-78335000D01*
X147406576Y-77936444D01*
X147171030Y-77570394D01*
X146811627Y-77324824D01*
X146385000Y-77238430D01*
X145785000Y-77238430D01*
X145437703Y-77303779D01*
X145115000Y-77238430D01*
X144515000Y-77238430D01*
X144167703Y-77303779D01*
X143845000Y-77238430D01*
X143245000Y-77238430D01*
X142897703Y-77303779D01*
X142575000Y-77238430D01*
X141975000Y-77238430D01*
X141627703Y-77303779D01*
X141305000Y-77238430D01*
X140705000Y-77238430D01*
X140357703Y-77303779D01*
X140035000Y-77238430D01*
X140000048Y-77238430D01*
X140230176Y-76901627D01*
X140316570Y-76475000D01*
X140316570Y-75225000D01*
X140241576Y-74826444D01*
X140006030Y-74460394D01*
X139646627Y-74214824D01*
X139220000Y-74128430D01*
X137720000Y-74128430D01*
X137321444Y-74203424D01*
X137222822Y-74266886D01*
X137146627Y-74214824D01*
X136720000Y-74128430D01*
X135220000Y-74128430D01*
X134821444Y-74203424D01*
X134580940Y-74358183D01*
X134367247Y-74215398D01*
X133860000Y-74114500D01*
X127180000Y-74114500D01*
X126672753Y-74215398D01*
X126242730Y-74502730D01*
X123757877Y-76987583D01*
X123427438Y-76187860D01*
X122745729Y-75504960D01*
X121854578Y-75134922D01*
X120889655Y-75134080D01*
X119997860Y-75502562D01*
X119314960Y-76184271D01*
X118944922Y-77075422D01*
X118944080Y-78040345D01*
X119312562Y-78932140D01*
X119994271Y-79615040D01*
X120885422Y-79985078D01*
X120920951Y-79985109D01*
X120824500Y-80470000D01*
X120824500Y-83504500D01*
X119500000Y-83504500D01*
X118992753Y-83605398D01*
X118694776Y-83804500D01*
X118562730Y-83892730D01*
X114012730Y-88442730D01*
X113725398Y-88872753D01*
X113624500Y-89380000D01*
X113624500Y-98680000D01*
X113725398Y-99187247D01*
X114012730Y-99617270D01*
X114962730Y-100567270D01*
X115392753Y-100854602D01*
X115900000Y-100955500D01*
X118910000Y-100955500D01*
X119417247Y-100854602D01*
X119847270Y-100567270D01*
X120619040Y-99795500D01*
X121662284Y-99795500D01*
X121783970Y-99984606D01*
X122143373Y-100230176D01*
X122323395Y-100266631D01*
X122345398Y-100377247D01*
X122632730Y-100807270D01*
X123082730Y-101257270D01*
X123512753Y-101544602D01*
X124020000Y-101645500D01*
X127596327Y-101645500D01*
X127575394Y-101658970D01*
X127329824Y-102018373D01*
X127243430Y-102445000D01*
X127243430Y-103695000D01*
X127260271Y-103784500D01*
X117090000Y-103784500D01*
X116582753Y-103885398D01*
X116152730Y-104172730D01*
X114442730Y-105882730D01*
X114155398Y-106312753D01*
X114054500Y-106820000D01*
X114054500Y-110200000D01*
X114155398Y-110707247D01*
X114442730Y-111137270D01*
X115422730Y-112117270D01*
X115448977Y-112134808D01*
X115659582Y-112450000D01*
X115303347Y-112983143D01*
X115156777Y-113720000D01*
X115303347Y-114456857D01*
X115659582Y-114990000D01*
X115303347Y-115523143D01*
X115156777Y-116260000D01*
X115303347Y-116996857D01*
X115459696Y-117230850D01*
X115259824Y-117523373D01*
X115173430Y-117950000D01*
X115173430Y-119650000D01*
X115248424Y-120048556D01*
X115483970Y-120414606D01*
X115843373Y-120660176D01*
X116270000Y-120746570D01*
X117970000Y-120746570D01*
X118368556Y-120671576D01*
X118734606Y-120436030D01*
X118980176Y-120076627D01*
X119066570Y-119650000D01*
X119066570Y-117950000D01*
X118991576Y-117551444D01*
X118782839Y-117227056D01*
X118936653Y-116996857D01*
X119083223Y-116260000D01*
X118936653Y-115523143D01*
X118613102Y-115038916D01*
X119087247Y-114944602D01*
X119303020Y-114800427D01*
X119248430Y-115070000D01*
X119248430Y-116570000D01*
X119323424Y-116968556D01*
X119558970Y-117334606D01*
X119918373Y-117580176D01*
X120345000Y-117666570D01*
X121595000Y-117666570D01*
X121993556Y-117591576D01*
X122333430Y-117372874D01*
X122333430Y-117715000D01*
X122357814Y-117844588D01*
X122333430Y-117965000D01*
X122333430Y-118515000D01*
X122408424Y-118913556D01*
X122643970Y-119279606D01*
X123003373Y-119525176D01*
X123430000Y-119611570D01*
X124508430Y-119611570D01*
X124508430Y-120615013D01*
X124122730Y-120872730D01*
X123272730Y-121722730D01*
X123157373Y-121895374D01*
X123061444Y-121913424D01*
X122744136Y-122117605D01*
X122476627Y-121934824D01*
X122050000Y-121848430D01*
X120550000Y-121848430D01*
X120151444Y-121923424D01*
X120052822Y-121986886D01*
X119976627Y-121934824D01*
X119550000Y-121848430D01*
X118050000Y-121848430D01*
X117651444Y-121923424D01*
X117285394Y-122158970D01*
X117226954Y-122244500D01*
X116650817Y-122244500D01*
X116601534Y-122170743D01*
X115976857Y-121753347D01*
X115240000Y-121606777D01*
X114503143Y-121753347D01*
X114269150Y-121909696D01*
X113976627Y-121709824D01*
X113550000Y-121623430D01*
X111850000Y-121623430D01*
X111451444Y-121698424D01*
X111085394Y-121933970D01*
X110839824Y-122293373D01*
X110753430Y-122720000D01*
X110753430Y-124420000D01*
X110828424Y-124818556D01*
X111063970Y-125184606D01*
X111423373Y-125430176D01*
X111850000Y-125516570D01*
X113550000Y-125516570D01*
X113948556Y-125441576D01*
X114272944Y-125232839D01*
X114503143Y-125386653D01*
X115240000Y-125533223D01*
X115976857Y-125386653D01*
X116601534Y-124969257D01*
X116650817Y-124895500D01*
X117222719Y-124895500D01*
X117263970Y-124959606D01*
X117623373Y-125205176D01*
X118050000Y-125291570D01*
X119550000Y-125291570D01*
X119948556Y-125216576D01*
X120047178Y-125153114D01*
X120123373Y-125205176D01*
X120550000Y-125291570D01*
X122050000Y-125291570D01*
X122448556Y-125216576D01*
X122765864Y-125012395D01*
X123033373Y-125195176D01*
X123460000Y-125281570D01*
X124960000Y-125281570D01*
X125358556Y-125206576D01*
X125457178Y-125143114D01*
X125533373Y-125195176D01*
X125960000Y-125281570D01*
X127460000Y-125281570D01*
X127858556Y-125206576D01*
X128017972Y-125103995D01*
X128173373Y-125210176D01*
X128600000Y-125296570D01*
X130100000Y-125296570D01*
X130498556Y-125221576D01*
X130700178Y-125091836D01*
X130823130Y-125175847D01*
X130825398Y-125187247D01*
X131094175Y-125589500D01*
X110720500Y-125589500D01*
X110720500Y-74010500D01*
X153599500Y-74010500D01*
X153599500Y-125589500D01*
G36*
X145843430Y-123447970D02*
X145843430Y-123592030D01*
X145280960Y-124154500D01*
X144806570Y-124154500D01*
X144806570Y-122900000D01*
X144788788Y-122805500D01*
X145200960Y-122805500D01*
X145843430Y-123447970D01*
X145843430Y-123447970D01*
G37*
X145843430Y-123447970D02*
X145843430Y-123592030D01*
X145280960Y-124154500D01*
X144806570Y-124154500D01*
X144806570Y-122900000D01*
X144788788Y-122805500D01*
X145200960Y-122805500D01*
X145843430Y-123447970D01*
G36*
X148934500Y-121633068D02*
X148640000Y-121573430D01*
X147717970Y-121573430D01*
X147700040Y-121555500D01*
X148934500Y-121555500D01*
X148934500Y-121633068D01*
X148934500Y-121633068D01*
G37*
X148934500Y-121633068D02*
X148640000Y-121573430D01*
X147717970Y-121573430D01*
X147700040Y-121555500D01*
X148934500Y-121555500D01*
X148934500Y-121633068D01*
G36*
X137328970Y-119064606D02*
X137414500Y-119123046D01*
X137414500Y-119580000D01*
X137515398Y-120087247D01*
X137767470Y-120464500D01*
X135251570Y-120464500D01*
X135251570Y-119611570D01*
X136330000Y-119611570D01*
X136728556Y-119536576D01*
X137094606Y-119301030D01*
X137293651Y-119009719D01*
X137328970Y-119064606D01*
X137328970Y-119064606D01*
G37*
X137328970Y-119064606D02*
X137414500Y-119123046D01*
X137414500Y-119580000D01*
X137515398Y-120087247D01*
X137767470Y-120464500D01*
X135251570Y-120464500D01*
X135251570Y-119611570D01*
X136330000Y-119611570D01*
X136728556Y-119536576D01*
X137094606Y-119301030D01*
X137293651Y-119009719D01*
X137328970Y-119064606D01*
G36*
X141199960Y-118954500D02*
X140219477Y-118954500D01*
X140375176Y-118726627D01*
X140461570Y-118300000D01*
X140461570Y-118216110D01*
X141199960Y-118954500D01*
X141199960Y-118954500D01*
G37*
X141199960Y-118954500D02*
X140219477Y-118954500D01*
X140375176Y-118726627D01*
X140461570Y-118300000D01*
X140461570Y-118216110D01*
X141199960Y-118954500D01*
G36*
X133733430Y-116115000D02*
X133757814Y-116244588D01*
X133733430Y-116365000D01*
X133733430Y-116915000D01*
X133757814Y-117044588D01*
X133733430Y-117165000D01*
X133733430Y-117715000D01*
X133757814Y-117844588D01*
X133733430Y-117965000D01*
X133733430Y-118093430D01*
X133605000Y-118093430D01*
X133475412Y-118117814D01*
X133355000Y-118093430D01*
X132805000Y-118093430D01*
X132675412Y-118117814D01*
X132555000Y-118093430D01*
X132055481Y-118093430D01*
X132055739Y-117797596D01*
X131984556Y-117625322D01*
X132462404Y-117625739D01*
X132968140Y-117416772D01*
X133355413Y-117030176D01*
X133565261Y-116524804D01*
X133565546Y-116198994D01*
X133733430Y-116031110D01*
X133733430Y-116115000D01*
X133733430Y-116115000D01*
G37*
X133733430Y-116115000D02*
X133757814Y-116244588D01*
X133733430Y-116365000D01*
X133733430Y-116915000D01*
X133757814Y-117044588D01*
X133733430Y-117165000D01*
X133733430Y-117715000D01*
X133757814Y-117844588D01*
X133733430Y-117965000D01*
X133733430Y-118093430D01*
X133605000Y-118093430D01*
X133475412Y-118117814D01*
X133355000Y-118093430D01*
X132805000Y-118093430D01*
X132675412Y-118117814D01*
X132555000Y-118093430D01*
X132055481Y-118093430D01*
X132055739Y-117797596D01*
X131984556Y-117625322D01*
X132462404Y-117625739D01*
X132968140Y-117416772D01*
X133355413Y-117030176D01*
X133565261Y-116524804D01*
X133565546Y-116198994D01*
X133733430Y-116031110D01*
X133733430Y-116115000D01*
G36*
X127754500Y-118039040D02*
X127754500Y-118093430D01*
X127205000Y-118093430D01*
X127075412Y-118117814D01*
X126955000Y-118093430D01*
X126405000Y-118093430D01*
X126275412Y-118117814D01*
X126155000Y-118093430D01*
X126026570Y-118093430D01*
X126026570Y-117965000D01*
X126002186Y-117835412D01*
X126026570Y-117715000D01*
X126026570Y-117165000D01*
X126002186Y-117035412D01*
X126026570Y-116915000D01*
X126026570Y-116365000D01*
X126014080Y-116298620D01*
X127754500Y-118039040D01*
X127754500Y-118039040D01*
G37*
X127754500Y-118039040D02*
X127754500Y-118093430D01*
X127205000Y-118093430D01*
X127075412Y-118117814D01*
X126955000Y-118093430D01*
X126405000Y-118093430D01*
X126275412Y-118117814D01*
X126155000Y-118093430D01*
X126026570Y-118093430D01*
X126026570Y-117965000D01*
X126002186Y-117835412D01*
X126026570Y-117715000D01*
X126026570Y-117165000D01*
X126002186Y-117035412D01*
X126026570Y-116915000D01*
X126026570Y-116365000D01*
X126014080Y-116298620D01*
X127754500Y-118039040D01*
G36*
X146318430Y-110490000D02*
X146318430Y-111990000D01*
X146393424Y-112388556D01*
X146628970Y-112754606D01*
X146714500Y-112813046D01*
X146714500Y-113912719D01*
X146650394Y-113953970D01*
X146404824Y-114313373D01*
X146318430Y-114740000D01*
X146318430Y-116240000D01*
X146393424Y-116638556D01*
X146410118Y-116664500D01*
X145119040Y-116664500D01*
X145100333Y-116645793D01*
X145275183Y-116224708D01*
X145275817Y-115498479D01*
X144998486Y-114827288D01*
X144485413Y-114313319D01*
X144044971Y-114130431D01*
X142460134Y-112545594D01*
X143085292Y-112805183D01*
X143811521Y-112805817D01*
X144482712Y-112528486D01*
X144996681Y-112015413D01*
X145275183Y-111344708D01*
X145275817Y-110618479D01*
X145126773Y-110257767D01*
X145319040Y-110065500D01*
X146404393Y-110065500D01*
X146318430Y-110490000D01*
X146318430Y-110490000D01*
G37*
X146318430Y-110490000D02*
X146318430Y-111990000D01*
X146393424Y-112388556D01*
X146628970Y-112754606D01*
X146714500Y-112813046D01*
X146714500Y-113912719D01*
X146650394Y-113953970D01*
X146404824Y-114313373D01*
X146318430Y-114740000D01*
X146318430Y-116240000D01*
X146393424Y-116638556D01*
X146410118Y-116664500D01*
X145119040Y-116664500D01*
X145100333Y-116645793D01*
X145275183Y-116224708D01*
X145275817Y-115498479D01*
X144998486Y-114827288D01*
X144485413Y-114313319D01*
X144044971Y-114130431D01*
X142460134Y-112545594D01*
X143085292Y-112805183D01*
X143811521Y-112805817D01*
X144482712Y-112528486D01*
X144996681Y-112015413D01*
X145275183Y-111344708D01*
X145275817Y-110618479D01*
X145126773Y-110257767D01*
X145319040Y-110065500D01*
X146404393Y-110065500D01*
X146318430Y-110490000D01*
G36*
X131255460Y-113440000D02*
X129080000Y-115615460D01*
X127704540Y-114240000D01*
X129880000Y-112064540D01*
X131255460Y-113440000D01*
X131255460Y-113440000D01*
G37*
X131255460Y-113440000D02*
X129080000Y-115615460D01*
X127704540Y-114240000D01*
X129880000Y-112064540D01*
X131255460Y-113440000D01*
G36*
X126100137Y-112095323D02*
X126012886Y-112182574D01*
X126026570Y-112115000D01*
X126026570Y-112021628D01*
X126100137Y-112095323D01*
X126100137Y-112095323D01*
G37*
X126100137Y-112095323D02*
X126012886Y-112182574D01*
X126026570Y-112115000D01*
X126026570Y-112021628D01*
X126100137Y-112095323D01*
G36*
X133605000Y-110386570D02*
X133733430Y-110386570D01*
X133733430Y-110515000D01*
X133757814Y-110644588D01*
X133733430Y-110765000D01*
X133733430Y-111315000D01*
X133757814Y-111444588D01*
X133733430Y-111565000D01*
X133733430Y-112114500D01*
X133679040Y-112114500D01*
X131937426Y-110372886D01*
X132005000Y-110386570D01*
X132555000Y-110386570D01*
X132684588Y-110362186D01*
X132805000Y-110386570D01*
X133355000Y-110386570D01*
X133484588Y-110362186D01*
X133605000Y-110386570D01*
X133605000Y-110386570D01*
G37*
X133605000Y-110386570D02*
X133733430Y-110386570D01*
X133733430Y-110515000D01*
X133757814Y-110644588D01*
X133733430Y-110765000D01*
X133733430Y-111315000D01*
X133757814Y-111444588D01*
X133733430Y-111565000D01*
X133733430Y-112114500D01*
X133679040Y-112114500D01*
X131937426Y-110372886D01*
X132005000Y-110386570D01*
X132555000Y-110386570D01*
X132684588Y-110362186D01*
X132805000Y-110386570D01*
X133355000Y-110386570D01*
X133484588Y-110362186D01*
X133605000Y-110386570D01*
G36*
X124508430Y-107790000D02*
X124508430Y-108868430D01*
X123430000Y-108868430D01*
X123031444Y-108943424D01*
X122665394Y-109178970D01*
X122419824Y-109538373D01*
X122333430Y-109965000D01*
X122333430Y-110515000D01*
X122357814Y-110644588D01*
X122333430Y-110765000D01*
X122333430Y-111315000D01*
X122357814Y-111444588D01*
X122333430Y-111565000D01*
X122333430Y-111772870D01*
X122021627Y-111559824D01*
X121595000Y-111473430D01*
X120345000Y-111473430D01*
X119946444Y-111548424D01*
X119580394Y-111783970D01*
X119436545Y-111994500D01*
X118980000Y-111994500D01*
X118870177Y-112016345D01*
X118936653Y-111916857D01*
X119083223Y-111180000D01*
X118936653Y-110443143D01*
X118580418Y-109910000D01*
X118936653Y-109376857D01*
X119083223Y-108640000D01*
X118936653Y-107903143D01*
X118726265Y-107588275D01*
X118729040Y-107585500D01*
X124549842Y-107585500D01*
X124508430Y-107790000D01*
X124508430Y-107790000D01*
G37*
X124508430Y-107790000D02*
X124508430Y-108868430D01*
X123430000Y-108868430D01*
X123031444Y-108943424D01*
X122665394Y-109178970D01*
X122419824Y-109538373D01*
X122333430Y-109965000D01*
X122333430Y-110515000D01*
X122357814Y-110644588D01*
X122333430Y-110765000D01*
X122333430Y-111315000D01*
X122357814Y-111444588D01*
X122333430Y-111565000D01*
X122333430Y-111772870D01*
X122021627Y-111559824D01*
X121595000Y-111473430D01*
X120345000Y-111473430D01*
X119946444Y-111548424D01*
X119580394Y-111783970D01*
X119436545Y-111994500D01*
X118980000Y-111994500D01*
X118870177Y-112016345D01*
X118936653Y-111916857D01*
X119083223Y-111180000D01*
X118936653Y-110443143D01*
X118580418Y-109910000D01*
X118936653Y-109376857D01*
X119083223Y-108640000D01*
X118936653Y-107903143D01*
X118726265Y-107588275D01*
X118729040Y-107585500D01*
X124549842Y-107585500D01*
X124508430Y-107790000D01*
G36*
X128762730Y-84757270D02*
X129192753Y-85044602D01*
X129693134Y-85144134D01*
X129634047Y-85441184D01*
X129505394Y-85523970D01*
X129259824Y-85883373D01*
X129173430Y-86310000D01*
X129173430Y-87810000D01*
X129248424Y-88208556D01*
X129378164Y-88410178D01*
X129259824Y-88583373D01*
X129173430Y-89010000D01*
X129173430Y-90510000D01*
X129248424Y-90908556D01*
X129483970Y-91274606D01*
X129670495Y-91402054D01*
X129695398Y-91527247D01*
X129982730Y-91957270D01*
X130412730Y-92387270D01*
X130842753Y-92674602D01*
X131350000Y-92775500D01*
X133183925Y-92775500D01*
X133025398Y-93012753D01*
X132924500Y-93520000D01*
X132924500Y-93763792D01*
X132703319Y-93984587D01*
X132424817Y-94655292D01*
X132424183Y-95381521D01*
X132701514Y-96052712D01*
X132930980Y-96282579D01*
X133025398Y-96757247D01*
X133270788Y-97124500D01*
X130577281Y-97124500D01*
X130536030Y-97060394D01*
X130325500Y-96916545D01*
X130325500Y-95412716D01*
X130514606Y-95291030D01*
X130760176Y-94931627D01*
X130846570Y-94505000D01*
X130846570Y-93255000D01*
X130771576Y-92856444D01*
X130536030Y-92490394D01*
X130176627Y-92244824D01*
X129750000Y-92158430D01*
X128250000Y-92158430D01*
X127851444Y-92233424D01*
X127752822Y-92296886D01*
X127676627Y-92244824D01*
X127250000Y-92158430D01*
X125750000Y-92158430D01*
X125351444Y-92233424D01*
X125261875Y-92291060D01*
X125197479Y-92247061D01*
X127007270Y-90437270D01*
X127294602Y-90007247D01*
X127395500Y-89500000D01*
X127395500Y-86100339D01*
X127625154Y-85871085D01*
X127905181Y-85196705D01*
X127905818Y-84466498D01*
X127626969Y-83791631D01*
X127451145Y-83615500D01*
X127620960Y-83615500D01*
X128762730Y-84757270D01*
X128762730Y-84757270D01*
G37*
X128762730Y-84757270D02*
X129192753Y-85044602D01*
X129693134Y-85144134D01*
X129634047Y-85441184D01*
X129505394Y-85523970D01*
X129259824Y-85883373D01*
X129173430Y-86310000D01*
X129173430Y-87810000D01*
X129248424Y-88208556D01*
X129378164Y-88410178D01*
X129259824Y-88583373D01*
X129173430Y-89010000D01*
X129173430Y-90510000D01*
X129248424Y-90908556D01*
X129483970Y-91274606D01*
X129670495Y-91402054D01*
X129695398Y-91527247D01*
X129982730Y-91957270D01*
X130412730Y-92387270D01*
X130842753Y-92674602D01*
X131350000Y-92775500D01*
X133183925Y-92775500D01*
X133025398Y-93012753D01*
X132924500Y-93520000D01*
X132924500Y-93763792D01*
X132703319Y-93984587D01*
X132424817Y-94655292D01*
X132424183Y-95381521D01*
X132701514Y-96052712D01*
X132930980Y-96282579D01*
X133025398Y-96757247D01*
X133270788Y-97124500D01*
X130577281Y-97124500D01*
X130536030Y-97060394D01*
X130325500Y-96916545D01*
X130325500Y-95412716D01*
X130514606Y-95291030D01*
X130760176Y-94931627D01*
X130846570Y-94505000D01*
X130846570Y-93255000D01*
X130771576Y-92856444D01*
X130536030Y-92490394D01*
X130176627Y-92244824D01*
X129750000Y-92158430D01*
X128250000Y-92158430D01*
X127851444Y-92233424D01*
X127752822Y-92296886D01*
X127676627Y-92244824D01*
X127250000Y-92158430D01*
X125750000Y-92158430D01*
X125351444Y-92233424D01*
X125261875Y-92291060D01*
X125197479Y-92247061D01*
X127007270Y-90437270D01*
X127294602Y-90007247D01*
X127395500Y-89500000D01*
X127395500Y-86100339D01*
X127625154Y-85871085D01*
X127905181Y-85196705D01*
X127905818Y-84466498D01*
X127626969Y-83791631D01*
X127451145Y-83615500D01*
X127620960Y-83615500D01*
X128762730Y-84757270D01*
G36*
X127674500Y-96107770D02*
X127437270Y-95752730D01*
X127280391Y-95595851D01*
X127648556Y-95526576D01*
X127674500Y-95509882D01*
X127674500Y-96107770D01*
X127674500Y-96107770D01*
G37*
X127674500Y-96107770D02*
X127437270Y-95752730D01*
X127280391Y-95595851D01*
X127648556Y-95526576D01*
X127674500Y-95509882D01*
X127674500Y-96107770D01*
G36*
X143393970Y-94479606D02*
X143753373Y-94725176D01*
X144180000Y-94811570D01*
X145680000Y-94811570D01*
X146078556Y-94736576D01*
X146177178Y-94673114D01*
X146253373Y-94725176D01*
X146680000Y-94811570D01*
X148180000Y-94811570D01*
X148374500Y-94774972D01*
X148374500Y-95087817D01*
X148180000Y-95048430D01*
X146680000Y-95048430D01*
X146281444Y-95123424D01*
X146182822Y-95186886D01*
X146106627Y-95134824D01*
X145680000Y-95048430D01*
X144180000Y-95048430D01*
X143781444Y-95123424D01*
X143415394Y-95358970D01*
X143356954Y-95444500D01*
X140930355Y-95444500D01*
X140955183Y-95384708D01*
X140955817Y-94658479D01*
X140855420Y-94415500D01*
X143352719Y-94415500D01*
X143393970Y-94479606D01*
X143393970Y-94479606D01*
G37*
X143393970Y-94479606D02*
X143753373Y-94725176D01*
X144180000Y-94811570D01*
X145680000Y-94811570D01*
X146078556Y-94736576D01*
X146177178Y-94673114D01*
X146253373Y-94725176D01*
X146680000Y-94811570D01*
X148180000Y-94811570D01*
X148374500Y-94774972D01*
X148374500Y-95087817D01*
X148180000Y-95048430D01*
X146680000Y-95048430D01*
X146281444Y-95123424D01*
X146182822Y-95186886D01*
X146106627Y-95134824D01*
X145680000Y-95048430D01*
X144180000Y-95048430D01*
X143781444Y-95123424D01*
X143415394Y-95358970D01*
X143356954Y-95444500D01*
X140930355Y-95444500D01*
X140955183Y-95384708D01*
X140955817Y-94658479D01*
X140855420Y-94415500D01*
X143352719Y-94415500D01*
X143393970Y-94479606D01*
G36*
X137497272Y-94191812D02*
X137304817Y-94655292D01*
X137304183Y-95381521D01*
X137330205Y-95444500D01*
X136050355Y-95444500D01*
X136075183Y-95384708D01*
X136075817Y-94658479D01*
X135798486Y-93987288D01*
X135727931Y-93916609D01*
X136475000Y-93169540D01*
X137497272Y-94191812D01*
X137497272Y-94191812D01*
G37*
X137497272Y-94191812D02*
X137304817Y-94655292D01*
X137304183Y-95381521D01*
X137330205Y-95444500D01*
X136050355Y-95444500D01*
X136075183Y-95384708D01*
X136075817Y-94658479D01*
X135798486Y-93987288D01*
X135727931Y-93916609D01*
X136475000Y-93169540D01*
X137497272Y-94191812D01*
G36*
X123028915Y-86385154D02*
X123703295Y-86665181D01*
X124433502Y-86665818D01*
X124744500Y-86537316D01*
X124744500Y-88950960D01*
X123795204Y-89900256D01*
X123795920Y-89079655D01*
X123427438Y-88187860D01*
X122745729Y-87504960D01*
X121854578Y-87134922D01*
X120889655Y-87134080D01*
X119997860Y-87502562D01*
X119314960Y-88184271D01*
X118944922Y-89075422D01*
X118944080Y-90040345D01*
X119312562Y-90932140D01*
X119994271Y-91615040D01*
X120885422Y-91985078D01*
X121850345Y-91985920D01*
X122282848Y-91807214D01*
X122244500Y-92000000D01*
X122244500Y-92084677D01*
X122171444Y-92098424D01*
X121805394Y-92333970D01*
X121559824Y-92693373D01*
X121473430Y-93120000D01*
X121473430Y-93498302D01*
X121210176Y-93234587D01*
X120704804Y-93024739D01*
X120157596Y-93024261D01*
X119651860Y-93233228D01*
X119264587Y-93619824D01*
X119211669Y-93747265D01*
X119056030Y-93505394D01*
X118696627Y-93259824D01*
X118270000Y-93173430D01*
X116275500Y-93173430D01*
X116275500Y-89929040D01*
X120049040Y-86155500D01*
X122799661Y-86155500D01*
X123028915Y-86385154D01*
X123028915Y-86385154D01*
G37*
X123028915Y-86385154D02*
X123703295Y-86665181D01*
X124433502Y-86665818D01*
X124744500Y-86537316D01*
X124744500Y-88950960D01*
X123795204Y-89900256D01*
X123795920Y-89079655D01*
X123427438Y-88187860D01*
X122745729Y-87504960D01*
X121854578Y-87134922D01*
X120889655Y-87134080D01*
X119997860Y-87502562D01*
X119314960Y-88184271D01*
X118944922Y-89075422D01*
X118944080Y-90040345D01*
X119312562Y-90932140D01*
X119994271Y-91615040D01*
X120885422Y-91985078D01*
X121850345Y-91985920D01*
X122282848Y-91807214D01*
X122244500Y-92000000D01*
X122244500Y-92084677D01*
X122171444Y-92098424D01*
X121805394Y-92333970D01*
X121559824Y-92693373D01*
X121473430Y-93120000D01*
X121473430Y-93498302D01*
X121210176Y-93234587D01*
X120704804Y-93024739D01*
X120157596Y-93024261D01*
X119651860Y-93233228D01*
X119264587Y-93619824D01*
X119211669Y-93747265D01*
X119056030Y-93505394D01*
X118696627Y-93259824D01*
X118270000Y-93173430D01*
X116275500Y-93173430D01*
X116275500Y-89929040D01*
X120049040Y-86155500D01*
X122799661Y-86155500D01*
X123028915Y-86385154D01*
G36*
X136809902Y-86654442D02*
X136547703Y-86703779D01*
X136225000Y-86638430D01*
X135625000Y-86638430D01*
X135277703Y-86703779D01*
X134955000Y-86638430D01*
X134355000Y-86638430D01*
X133956444Y-86713424D01*
X133590394Y-86948970D01*
X133344824Y-87308373D01*
X133258430Y-87735000D01*
X133258430Y-89168530D01*
X133104804Y-89104739D01*
X132666570Y-89104356D01*
X132666570Y-89010000D01*
X132591576Y-88611444D01*
X132461836Y-88409822D01*
X132580176Y-88236627D01*
X132666570Y-87810000D01*
X132666570Y-86455500D01*
X136610960Y-86455500D01*
X136809902Y-86654442D01*
X136809902Y-86654442D01*
G37*
X136809902Y-86654442D02*
X136547703Y-86703779D01*
X136225000Y-86638430D01*
X135625000Y-86638430D01*
X135277703Y-86703779D01*
X134955000Y-86638430D01*
X134355000Y-86638430D01*
X133956444Y-86713424D01*
X133590394Y-86948970D01*
X133344824Y-87308373D01*
X133258430Y-87735000D01*
X133258430Y-89168530D01*
X133104804Y-89104739D01*
X132666570Y-89104356D01*
X132666570Y-89010000D01*
X132591576Y-88611444D01*
X132461836Y-88409822D01*
X132580176Y-88236627D01*
X132666570Y-87810000D01*
X132666570Y-86455500D01*
X136610960Y-86455500D01*
X136809902Y-86654442D01*
G36*
X143245000Y-81381570D02*
X143489500Y-81381570D01*
X143489500Y-81385000D01*
X143590398Y-81892247D01*
X143877730Y-82322270D01*
X145442730Y-83887270D01*
X145872753Y-84174602D01*
X146185983Y-84236908D01*
X146042753Y-84265398D01*
X145612730Y-84552730D01*
X145147730Y-85017730D01*
X144860398Y-85447753D01*
X144759500Y-85955000D01*
X144759500Y-86638430D01*
X144515000Y-86638430D01*
X144167703Y-86703779D01*
X143845000Y-86638430D01*
X143245000Y-86638430D01*
X142897703Y-86703779D01*
X142575000Y-86638430D01*
X141975000Y-86638430D01*
X141627703Y-86703779D01*
X141305000Y-86638430D01*
X140705000Y-86638430D01*
X140357703Y-86703779D01*
X140035000Y-86638430D01*
X139790500Y-86638430D01*
X139790500Y-86435000D01*
X139689602Y-85927753D01*
X139402270Y-85497730D01*
X138097270Y-84192730D01*
X137667247Y-83905398D01*
X137401919Y-83852621D01*
X138132270Y-83122270D01*
X138419602Y-82692247D01*
X138520500Y-82185000D01*
X138520500Y-81381570D01*
X138765000Y-81381570D01*
X139112297Y-81316221D01*
X139435000Y-81381570D01*
X140035000Y-81381570D01*
X140382297Y-81316221D01*
X140705000Y-81381570D01*
X141305000Y-81381570D01*
X141652297Y-81316221D01*
X141975000Y-81381570D01*
X142575000Y-81381570D01*
X142922297Y-81316221D01*
X143245000Y-81381570D01*
X143245000Y-81381570D01*
G37*
X143245000Y-81381570D02*
X143489500Y-81381570D01*
X143489500Y-81385000D01*
X143590398Y-81892247D01*
X143877730Y-82322270D01*
X145442730Y-83887270D01*
X145872753Y-84174602D01*
X146185983Y-84236908D01*
X146042753Y-84265398D01*
X145612730Y-84552730D01*
X145147730Y-85017730D01*
X144860398Y-85447753D01*
X144759500Y-85955000D01*
X144759500Y-86638430D01*
X144515000Y-86638430D01*
X144167703Y-86703779D01*
X143845000Y-86638430D01*
X143245000Y-86638430D01*
X142897703Y-86703779D01*
X142575000Y-86638430D01*
X141975000Y-86638430D01*
X141627703Y-86703779D01*
X141305000Y-86638430D01*
X140705000Y-86638430D01*
X140357703Y-86703779D01*
X140035000Y-86638430D01*
X139790500Y-86638430D01*
X139790500Y-86435000D01*
X139689602Y-85927753D01*
X139402270Y-85497730D01*
X138097270Y-84192730D01*
X137667247Y-83905398D01*
X137401919Y-83852621D01*
X138132270Y-83122270D01*
X138419602Y-82692247D01*
X138520500Y-82185000D01*
X138520500Y-81381570D01*
X138765000Y-81381570D01*
X139112297Y-81316221D01*
X139435000Y-81381570D01*
X140035000Y-81381570D01*
X140382297Y-81316221D01*
X140705000Y-81381570D01*
X141305000Y-81381570D01*
X141652297Y-81316221D01*
X141975000Y-81381570D01*
X142575000Y-81381570D01*
X142922297Y-81316221D01*
X143245000Y-81381570D01*
G36*
X133568970Y-81049606D02*
X133766394Y-81184500D01*
X133111621Y-81184500D01*
X133348140Y-81086772D01*
X133497161Y-80938011D01*
X133568970Y-81049606D01*
X133568970Y-81049606D01*
G37*
X133568970Y-81049606D02*
X133766394Y-81184500D01*
X133111621Y-81184500D01*
X133348140Y-81086772D01*
X133497161Y-80938011D01*
X133568970Y-81049606D01*
G36*
X129208430Y-78150000D02*
X129283424Y-78548556D01*
X129346886Y-78647178D01*
X129294824Y-78723373D01*
X129208430Y-79150000D01*
X129208430Y-79583890D01*
X128927270Y-79302730D01*
X128497247Y-79015398D01*
X127990000Y-78914500D01*
X125580040Y-78914500D01*
X127729040Y-76765500D01*
X129208430Y-76765500D01*
X129208430Y-78150000D01*
X129208430Y-78150000D01*
G37*
X129208430Y-78150000D02*
X129283424Y-78548556D01*
X129346886Y-78647178D01*
X129294824Y-78723373D01*
X129208430Y-79150000D01*
X129208430Y-79583890D01*
X128927270Y-79302730D01*
X128497247Y-79015398D01*
X127990000Y-78914500D01*
X125580040Y-78914500D01*
X127729040Y-76765500D01*
X129208430Y-76765500D01*
X129208430Y-78150000D01*
G36*
X133329500Y-76784040D02*
X133329500Y-77984045D01*
X133258430Y-78335000D01*
X133258430Y-78716491D01*
X132844804Y-78544739D01*
X132571682Y-78544500D01*
X132651570Y-78150000D01*
X132651570Y-76765500D01*
X133310960Y-76765500D01*
X133329500Y-76784040D01*
X133329500Y-76784040D01*
G37*
X133329500Y-76784040D02*
X133329500Y-77984045D01*
X133258430Y-78335000D01*
X133258430Y-78716491D01*
X132844804Y-78544739D01*
X132571682Y-78544500D01*
X132651570Y-78150000D01*
X132651570Y-76765500D01*
X133310960Y-76765500D01*
X133329500Y-76784040D01*
M02*
