G04 #@! TF.FileFunction,Legend,Top*
%FSLAX46Y46*%
G04 Gerber Fmt 4.6, Leading zero omitted, Abs format (unit mm)*
G04 Created by KiCad (PCBNEW 4.0.7-e1-6374~58~ubuntu14.04.1) date Sat Jan 27 06:03:06 2018*
%MOMM*%
%LPD*%
G01*
G04 APERTURE LIST*
%ADD10C,0.100000*%
%ADD11C,0.200000*%
%ADD12C,0.250000*%
%ADD13C,0.300000*%
%ADD14C,0.150000*%
%ADD15C,0.120000*%
G04 APERTURE END LIST*
D10*
D11*
X146299524Y-120772381D02*
X146566191Y-121772381D01*
X146832858Y-120772381D01*
X147099524Y-121772381D02*
X147099524Y-120772381D01*
X147290000Y-120772381D01*
X147404286Y-120820000D01*
X147480477Y-120915238D01*
X147518572Y-121010476D01*
X147556667Y-121200952D01*
X147556667Y-121343810D01*
X147518572Y-121534286D01*
X147480477Y-121629524D01*
X147404286Y-121724762D01*
X147290000Y-121772381D01*
X147099524Y-121772381D01*
X147899524Y-121772381D02*
X147899524Y-120772381D01*
X148090000Y-120772381D01*
X148204286Y-120820000D01*
X148280477Y-120915238D01*
X148318572Y-121010476D01*
X148356667Y-121200952D01*
X148356667Y-121343810D01*
X148318572Y-121534286D01*
X148280477Y-121629524D01*
X148204286Y-121724762D01*
X148090000Y-121772381D01*
X147899524Y-121772381D01*
X149728096Y-120820000D02*
X149651905Y-120772381D01*
X149537620Y-120772381D01*
X149423334Y-120820000D01*
X149347143Y-120915238D01*
X149309048Y-121010476D01*
X149270953Y-121200952D01*
X149270953Y-121343810D01*
X149309048Y-121534286D01*
X149347143Y-121629524D01*
X149423334Y-121724762D01*
X149537620Y-121772381D01*
X149613810Y-121772381D01*
X149728096Y-121724762D01*
X149766191Y-121677143D01*
X149766191Y-121343810D01*
X149613810Y-121343810D01*
X150109048Y-121772381D02*
X150109048Y-120772381D01*
X150566191Y-121772381D01*
X150566191Y-120772381D01*
X150947143Y-121772381D02*
X150947143Y-120772381D01*
X151137619Y-120772381D01*
X151251905Y-120820000D01*
X151328096Y-120915238D01*
X151366191Y-121010476D01*
X151404286Y-121200952D01*
X151404286Y-121343810D01*
X151366191Y-121534286D01*
X151328096Y-121629524D01*
X151251905Y-121724762D01*
X151137619Y-121772381D01*
X150947143Y-121772381D01*
X138800952Y-100182381D02*
X138881904Y-100182381D01*
X138962856Y-100230000D01*
X139003333Y-100277619D01*
X139043809Y-100372857D01*
X139084285Y-100563333D01*
X139084285Y-100801429D01*
X139043809Y-100991905D01*
X139003333Y-101087143D01*
X138962856Y-101134762D01*
X138881904Y-101182381D01*
X138800952Y-101182381D01*
X138719999Y-101134762D01*
X138679523Y-101087143D01*
X138639047Y-100991905D01*
X138598571Y-100801429D01*
X138598571Y-100563333D01*
X138639047Y-100372857D01*
X138679523Y-100277619D01*
X138719999Y-100230000D01*
X138800952Y-100182381D01*
X139448571Y-101087143D02*
X139489047Y-101134762D01*
X139448571Y-101182381D01*
X139408095Y-101134762D01*
X139448571Y-101087143D01*
X139448571Y-101182381D01*
X140015238Y-100182381D02*
X140096190Y-100182381D01*
X140177142Y-100230000D01*
X140217619Y-100277619D01*
X140258095Y-100372857D01*
X140298571Y-100563333D01*
X140298571Y-100801429D01*
X140258095Y-100991905D01*
X140217619Y-101087143D01*
X140177142Y-101134762D01*
X140096190Y-101182381D01*
X140015238Y-101182381D01*
X139934285Y-101134762D01*
X139893809Y-101087143D01*
X139853333Y-100991905D01*
X139812857Y-100801429D01*
X139812857Y-100563333D01*
X139853333Y-100372857D01*
X139893809Y-100277619D01*
X139934285Y-100230000D01*
X140015238Y-100182381D01*
X141229524Y-100182381D02*
X141755714Y-100182381D01*
X141472381Y-100563333D01*
X141593809Y-100563333D01*
X141674762Y-100610952D01*
X141715238Y-100658571D01*
X141755714Y-100753810D01*
X141755714Y-100991905D01*
X141715238Y-101087143D01*
X141674762Y-101134762D01*
X141593809Y-101182381D01*
X141350952Y-101182381D01*
X141270000Y-101134762D01*
X141229524Y-101087143D01*
X142120000Y-101087143D02*
X142160476Y-101134762D01*
X142120000Y-101182381D01*
X142079524Y-101134762D01*
X142120000Y-101087143D01*
X142120000Y-101182381D01*
X142443810Y-100182381D02*
X142970000Y-100182381D01*
X142686667Y-100563333D01*
X142808095Y-100563333D01*
X142889048Y-100610952D01*
X142929524Y-100658571D01*
X142970000Y-100753810D01*
X142970000Y-100991905D01*
X142929524Y-101087143D01*
X142889048Y-101134762D01*
X142808095Y-101182381D01*
X142565238Y-101182381D01*
X142484286Y-101134762D01*
X142443810Y-101087143D01*
X144386667Y-100182381D02*
X143981905Y-100182381D01*
X143941429Y-100658571D01*
X143981905Y-100610952D01*
X144062857Y-100563333D01*
X144265238Y-100563333D01*
X144346191Y-100610952D01*
X144386667Y-100658571D01*
X144427143Y-100753810D01*
X144427143Y-100991905D01*
X144386667Y-101087143D01*
X144346191Y-101134762D01*
X144265238Y-101182381D01*
X144062857Y-101182381D01*
X143981905Y-101134762D01*
X143941429Y-101087143D01*
X144791429Y-101087143D02*
X144831905Y-101134762D01*
X144791429Y-101182381D01*
X144750953Y-101134762D01*
X144791429Y-101087143D01*
X144791429Y-101182381D01*
X145358096Y-100182381D02*
X145439048Y-100182381D01*
X145520000Y-100230000D01*
X145560477Y-100277619D01*
X145600953Y-100372857D01*
X145641429Y-100563333D01*
X145641429Y-100801429D01*
X145600953Y-100991905D01*
X145560477Y-101087143D01*
X145520000Y-101134762D01*
X145439048Y-101182381D01*
X145358096Y-101182381D01*
X145277143Y-101134762D01*
X145236667Y-101087143D01*
X145196191Y-100991905D01*
X145155715Y-100801429D01*
X145155715Y-100563333D01*
X145196191Y-100372857D01*
X145236667Y-100277619D01*
X145277143Y-100230000D01*
X145358096Y-100182381D01*
X154690000Y-101520000D02*
X154690000Y-101500000D01*
D12*
X145961905Y-76118571D02*
X145961905Y-74618571D01*
X146295239Y-75690000D01*
X146628572Y-74618571D01*
X146628572Y-76118571D01*
X147676191Y-75975714D02*
X147628572Y-76047143D01*
X147485715Y-76118571D01*
X147390477Y-76118571D01*
X147247619Y-76047143D01*
X147152381Y-75904286D01*
X147104762Y-75761429D01*
X147057143Y-75475714D01*
X147057143Y-75261429D01*
X147104762Y-74975714D01*
X147152381Y-74832857D01*
X147247619Y-74690000D01*
X147390477Y-74618571D01*
X147485715Y-74618571D01*
X147628572Y-74690000D01*
X147676191Y-74761429D01*
X148104762Y-76118571D02*
X148104762Y-74618571D01*
X148485715Y-74618571D01*
X148580953Y-74690000D01*
X148628572Y-74761429D01*
X148676191Y-74904286D01*
X148676191Y-75118571D01*
X148628572Y-75261429D01*
X148580953Y-75332857D01*
X148485715Y-75404286D01*
X148104762Y-75404286D01*
X149057143Y-74761429D02*
X149104762Y-74690000D01*
X149200000Y-74618571D01*
X149438096Y-74618571D01*
X149533334Y-74690000D01*
X149580953Y-74761429D01*
X149628572Y-74904286D01*
X149628572Y-75047143D01*
X149580953Y-75261429D01*
X149009524Y-76118571D01*
X149628572Y-76118571D01*
X150009524Y-74761429D02*
X150057143Y-74690000D01*
X150152381Y-74618571D01*
X150390477Y-74618571D01*
X150485715Y-74690000D01*
X150533334Y-74761429D01*
X150580953Y-74904286D01*
X150580953Y-75047143D01*
X150533334Y-75261429D01*
X149961905Y-76118571D01*
X150580953Y-76118571D01*
X151200000Y-74618571D02*
X151295239Y-74618571D01*
X151390477Y-74690000D01*
X151438096Y-74761429D01*
X151485715Y-74904286D01*
X151533334Y-75190000D01*
X151533334Y-75547143D01*
X151485715Y-75832857D01*
X151438096Y-75975714D01*
X151390477Y-76047143D01*
X151295239Y-76118571D01*
X151200000Y-76118571D01*
X151104762Y-76047143D01*
X151057143Y-75975714D01*
X151009524Y-75832857D01*
X150961905Y-75547143D01*
X150961905Y-75190000D01*
X151009524Y-74904286D01*
X151057143Y-74761429D01*
X151104762Y-74690000D01*
X151200000Y-74618571D01*
X152152381Y-74618571D02*
X152247620Y-74618571D01*
X152342858Y-74690000D01*
X152390477Y-74761429D01*
X152438096Y-74904286D01*
X152485715Y-75190000D01*
X152485715Y-75547143D01*
X152438096Y-75832857D01*
X152390477Y-75975714D01*
X152342858Y-76047143D01*
X152247620Y-76118571D01*
X152152381Y-76118571D01*
X152057143Y-76047143D01*
X152009524Y-75975714D01*
X151961905Y-75832857D01*
X151914286Y-75547143D01*
X151914286Y-75190000D01*
X151961905Y-74904286D01*
X152009524Y-74761429D01*
X152057143Y-74690000D01*
X152152381Y-74618571D01*
D11*
X111538095Y-103508571D02*
X111538095Y-102008571D01*
X111919048Y-102008571D01*
X112014286Y-102080000D01*
X112061905Y-102151429D01*
X112109524Y-102294286D01*
X112109524Y-102508571D01*
X112061905Y-102651429D01*
X112014286Y-102722857D01*
X111919048Y-102794286D01*
X111538095Y-102794286D01*
X112538095Y-103508571D02*
X112538095Y-102008571D01*
X113585714Y-103365714D02*
X113538095Y-103437143D01*
X113395238Y-103508571D01*
X113300000Y-103508571D01*
X113157142Y-103437143D01*
X113061904Y-103294286D01*
X113014285Y-103151429D01*
X112966666Y-102865714D01*
X112966666Y-102651429D01*
X113014285Y-102365714D01*
X113061904Y-102222857D01*
X113157142Y-102080000D01*
X113300000Y-102008571D01*
X113395238Y-102008571D01*
X113538095Y-102080000D01*
X113585714Y-102151429D01*
X113966666Y-102151429D02*
X114014285Y-102080000D01*
X114109523Y-102008571D01*
X114347619Y-102008571D01*
X114442857Y-102080000D01*
X114490476Y-102151429D01*
X114538095Y-102294286D01*
X114538095Y-102437143D01*
X114490476Y-102651429D01*
X113919047Y-103508571D01*
X114538095Y-103508571D01*
X115395238Y-102508571D02*
X115395238Y-103508571D01*
X115157142Y-101937143D02*
X114919047Y-103008571D01*
X115538095Y-103008571D01*
X115919047Y-102722857D02*
X116252381Y-102722857D01*
X116395238Y-103508571D02*
X115919047Y-103508571D01*
X115919047Y-102008571D01*
X116395238Y-102008571D01*
X116823809Y-103508571D02*
X116823809Y-102008571D01*
X117204762Y-102008571D01*
X117300000Y-102080000D01*
X117347619Y-102151429D01*
X117395238Y-102294286D01*
X117395238Y-102508571D01*
X117347619Y-102651429D01*
X117300000Y-102722857D01*
X117204762Y-102794286D01*
X116823809Y-102794286D01*
X117776190Y-102151429D02*
X117823809Y-102080000D01*
X117919047Y-102008571D01*
X118157143Y-102008571D01*
X118252381Y-102080000D01*
X118300000Y-102151429D01*
X118347619Y-102294286D01*
X118347619Y-102437143D01*
X118300000Y-102651429D01*
X117728571Y-103508571D01*
X118347619Y-103508571D01*
X119252381Y-102008571D02*
X118776190Y-102008571D01*
X118728571Y-102722857D01*
X118776190Y-102651429D01*
X118871428Y-102580000D01*
X119109524Y-102580000D01*
X119204762Y-102651429D01*
X119252381Y-102722857D01*
X119300000Y-102865714D01*
X119300000Y-103222857D01*
X119252381Y-103365714D01*
X119204762Y-103437143D01*
X119109524Y-103508571D01*
X118871428Y-103508571D01*
X118776190Y-103437143D01*
X118728571Y-103365714D01*
X120157143Y-102008571D02*
X119966666Y-102008571D01*
X119871428Y-102080000D01*
X119823809Y-102151429D01*
X119728571Y-102365714D01*
X119680952Y-102651429D01*
X119680952Y-103222857D01*
X119728571Y-103365714D01*
X119776190Y-103437143D01*
X119871428Y-103508571D01*
X120061905Y-103508571D01*
X120157143Y-103437143D01*
X120204762Y-103365714D01*
X120252381Y-103222857D01*
X120252381Y-102865714D01*
X120204762Y-102722857D01*
X120157143Y-102651429D01*
X120061905Y-102580000D01*
X119871428Y-102580000D01*
X119776190Y-102651429D01*
X119728571Y-102722857D01*
X119680952Y-102865714D01*
X121204762Y-102080000D02*
X121109524Y-102008571D01*
X120966667Y-102008571D01*
X120823809Y-102080000D01*
X120728571Y-102222857D01*
X120680952Y-102365714D01*
X120633333Y-102651429D01*
X120633333Y-102865714D01*
X120680952Y-103151429D01*
X120728571Y-103294286D01*
X120823809Y-103437143D01*
X120966667Y-103508571D01*
X121061905Y-103508571D01*
X121204762Y-103437143D01*
X121252381Y-103365714D01*
X121252381Y-102865714D01*
X121061905Y-102865714D01*
X121680952Y-103508571D02*
X121680952Y-102008571D01*
X122061905Y-102008571D01*
X122157143Y-102080000D01*
X122204762Y-102151429D01*
X122252381Y-102294286D01*
X122252381Y-102508571D01*
X122204762Y-102651429D01*
X122157143Y-102722857D01*
X122061905Y-102794286D01*
X121680952Y-102794286D01*
X122633333Y-102151429D02*
X122680952Y-102080000D01*
X122776190Y-102008571D01*
X123014286Y-102008571D01*
X123109524Y-102080000D01*
X123157143Y-102151429D01*
X123204762Y-102294286D01*
X123204762Y-102437143D01*
X123157143Y-102651429D01*
X122585714Y-103508571D01*
X123204762Y-103508571D01*
X123823809Y-102008571D02*
X123919048Y-102008571D01*
X124014286Y-102080000D01*
X124061905Y-102151429D01*
X124109524Y-102294286D01*
X124157143Y-102580000D01*
X124157143Y-102937143D01*
X124109524Y-103222857D01*
X124061905Y-103365714D01*
X124014286Y-103437143D01*
X123919048Y-103508571D01*
X123823809Y-103508571D01*
X123728571Y-103437143D01*
X123680952Y-103365714D01*
X123633333Y-103222857D01*
X123585714Y-102937143D01*
X123585714Y-102580000D01*
X123633333Y-102294286D01*
X123680952Y-102151429D01*
X123728571Y-102080000D01*
X123823809Y-102008571D01*
X125014286Y-102508571D02*
X125014286Y-103508571D01*
X124776190Y-101937143D02*
X124538095Y-103008571D01*
X125157143Y-103008571D01*
D13*
X152377143Y-83613571D02*
X151877143Y-82899286D01*
X151520000Y-83613571D02*
X151520000Y-82113571D01*
X152091428Y-82113571D01*
X152234286Y-82185000D01*
X152305714Y-82256429D01*
X152377143Y-82399286D01*
X152377143Y-82613571D01*
X152305714Y-82756429D01*
X152234286Y-82827857D01*
X152091428Y-82899286D01*
X151520000Y-82899286D01*
X152877143Y-83613571D02*
X153662857Y-82613571D01*
X152877143Y-82613571D02*
X153662857Y-83613571D01*
X151484286Y-84663571D02*
X152341429Y-84663571D01*
X151912858Y-86163571D02*
X151912858Y-84663571D01*
X152698572Y-86163571D02*
X153484286Y-85163571D01*
X152698572Y-85163571D02*
X153484286Y-86163571D01*
X110987143Y-109408571D02*
X110987143Y-107908571D01*
X111558571Y-107908571D01*
X111701429Y-107980000D01*
X111772857Y-108051429D01*
X111844286Y-108194286D01*
X111844286Y-108408571D01*
X111772857Y-108551429D01*
X111701429Y-108622857D01*
X111558571Y-108694286D01*
X110987143Y-108694286D01*
X113272857Y-107980000D02*
X113130000Y-107908571D01*
X112915714Y-107908571D01*
X112701429Y-107980000D01*
X112558571Y-108122857D01*
X112487143Y-108265714D01*
X112415714Y-108551429D01*
X112415714Y-108765714D01*
X112487143Y-109051429D01*
X112558571Y-109194286D01*
X112701429Y-109337143D01*
X112915714Y-109408571D01*
X113058571Y-109408571D01*
X113272857Y-109337143D01*
X113344286Y-109265714D01*
X113344286Y-108765714D01*
X113058571Y-108765714D01*
X114844286Y-109265714D02*
X114772857Y-109337143D01*
X114558571Y-109408571D01*
X114415714Y-109408571D01*
X114201429Y-109337143D01*
X114058571Y-109194286D01*
X113987143Y-109051429D01*
X113915714Y-108765714D01*
X113915714Y-108551429D01*
X113987143Y-108265714D01*
X114058571Y-108122857D01*
X114201429Y-107980000D01*
X114415714Y-107908571D01*
X114558571Y-107908571D01*
X114772857Y-107980000D01*
X114844286Y-108051429D01*
X110987143Y-111958571D02*
X110987143Y-110458571D01*
X111558571Y-110458571D01*
X111701429Y-110530000D01*
X111772857Y-110601429D01*
X111844286Y-110744286D01*
X111844286Y-110958571D01*
X111772857Y-111101429D01*
X111701429Y-111172857D01*
X111558571Y-111244286D01*
X110987143Y-111244286D01*
X113272857Y-110530000D02*
X113130000Y-110458571D01*
X112915714Y-110458571D01*
X112701429Y-110530000D01*
X112558571Y-110672857D01*
X112487143Y-110815714D01*
X112415714Y-111101429D01*
X112415714Y-111315714D01*
X112487143Y-111601429D01*
X112558571Y-111744286D01*
X112701429Y-111887143D01*
X112915714Y-111958571D01*
X113058571Y-111958571D01*
X113272857Y-111887143D01*
X113344286Y-111815714D01*
X113344286Y-111315714D01*
X113058571Y-111315714D01*
X113987143Y-111958571D02*
X113987143Y-110458571D01*
X114344286Y-110458571D01*
X114558571Y-110530000D01*
X114701429Y-110672857D01*
X114772857Y-110815714D01*
X114844286Y-111101429D01*
X114844286Y-111315714D01*
X114772857Y-111601429D01*
X114701429Y-111744286D01*
X114558571Y-111887143D01*
X114344286Y-111958571D01*
X113987143Y-111958571D01*
X111737143Y-113080000D02*
X111594286Y-113008571D01*
X111380000Y-113008571D01*
X111165715Y-113080000D01*
X111022857Y-113222857D01*
X110951429Y-113365714D01*
X110880000Y-113651429D01*
X110880000Y-113865714D01*
X110951429Y-114151429D01*
X111022857Y-114294286D01*
X111165715Y-114437143D01*
X111380000Y-114508571D01*
X111522857Y-114508571D01*
X111737143Y-114437143D01*
X111808572Y-114365714D01*
X111808572Y-113865714D01*
X111522857Y-113865714D01*
X112451429Y-114508571D02*
X112451429Y-113008571D01*
X113308572Y-114508571D01*
X113308572Y-113008571D01*
X114022858Y-114508571D02*
X114022858Y-113008571D01*
X114380001Y-113008571D01*
X114594286Y-113080000D01*
X114737144Y-113222857D01*
X114808572Y-113365714D01*
X114880001Y-113651429D01*
X114880001Y-113865714D01*
X114808572Y-114151429D01*
X114737144Y-114294286D01*
X114594286Y-114437143D01*
X114380001Y-114508571D01*
X114022858Y-114508571D01*
X110880000Y-115558571D02*
X111380000Y-117058571D01*
X111880000Y-115558571D01*
X112380000Y-117058571D02*
X112380000Y-115558571D01*
X112737143Y-115558571D01*
X112951428Y-115630000D01*
X113094286Y-115772857D01*
X113165714Y-115915714D01*
X113237143Y-116201429D01*
X113237143Y-116415714D01*
X113165714Y-116701429D01*
X113094286Y-116844286D01*
X112951428Y-116987143D01*
X112737143Y-117058571D01*
X112380000Y-117058571D01*
X113880000Y-117058571D02*
X113880000Y-115558571D01*
X114237143Y-115558571D01*
X114451428Y-115630000D01*
X114594286Y-115772857D01*
X114665714Y-115915714D01*
X114737143Y-116201429D01*
X114737143Y-116415714D01*
X114665714Y-116701429D01*
X114594286Y-116844286D01*
X114451428Y-116987143D01*
X114237143Y-117058571D01*
X113880000Y-117058571D01*
X111022857Y-119608571D02*
X111022857Y-118108571D01*
X111522857Y-119180000D01*
X112022857Y-118108571D01*
X112022857Y-119608571D01*
X113594286Y-119465714D02*
X113522857Y-119537143D01*
X113308571Y-119608571D01*
X113165714Y-119608571D01*
X112951429Y-119537143D01*
X112808571Y-119394286D01*
X112737143Y-119251429D01*
X112665714Y-118965714D01*
X112665714Y-118751429D01*
X112737143Y-118465714D01*
X112808571Y-118322857D01*
X112951429Y-118180000D01*
X113165714Y-118108571D01*
X113308571Y-118108571D01*
X113522857Y-118180000D01*
X113594286Y-118251429D01*
X114951429Y-119608571D02*
X114237143Y-119608571D01*
X114237143Y-118108571D01*
D11*
X109630000Y-126690000D02*
X109630000Y-126670000D01*
X154690000Y-126690000D02*
X109630000Y-126690000D01*
X154690000Y-126660000D02*
X154690000Y-126690000D01*
X154690000Y-102090000D02*
X154690000Y-126660000D01*
X154180000Y-102090000D02*
X154210000Y-102090000D01*
X109620000Y-102090000D02*
X109620000Y-126680000D01*
X154690000Y-74420000D02*
X154680000Y-74420000D01*
X154690000Y-72890000D02*
X154690000Y-74420000D01*
X109610000Y-72890000D02*
X154690000Y-72890000D01*
X154690000Y-102110000D02*
X154690000Y-74420000D01*
X109600000Y-72900000D02*
X109600000Y-102110000D01*
D14*
X133795000Y-87885000D02*
X134045000Y-87885000D01*
X133795000Y-80135000D02*
X134130000Y-80135000D01*
X146945000Y-80135000D02*
X146610000Y-80135000D01*
X146945000Y-87885000D02*
X146610000Y-87885000D01*
X133795000Y-87885000D02*
X133795000Y-80135000D01*
X146945000Y-87885000D02*
X146945000Y-80135000D01*
X134045000Y-87885000D02*
X134045000Y-89685000D01*
D15*
X145680000Y-97620000D02*
X146680000Y-97620000D01*
X146680000Y-95920000D02*
X145680000Y-95920000D01*
X145680000Y-93940000D02*
X146680000Y-93940000D01*
X146680000Y-92240000D02*
X145680000Y-92240000D01*
X137720000Y-75000000D02*
X136720000Y-75000000D01*
X136720000Y-76700000D02*
X137720000Y-76700000D01*
X120120000Y-114070000D02*
X120120000Y-115070000D01*
X121820000Y-115070000D02*
X121820000Y-114070000D01*
X131780000Y-79150000D02*
X131780000Y-78150000D01*
X130080000Y-78150000D02*
X130080000Y-79150000D01*
X129840000Y-103920000D02*
X130840000Y-103920000D01*
X130840000Y-102220000D02*
X129840000Y-102220000D01*
X124960000Y-124410000D02*
X125960000Y-124410000D01*
X125960000Y-122710000D02*
X124960000Y-122710000D01*
X147190000Y-116240000D02*
X147190000Y-117240000D01*
X148890000Y-117240000D02*
X148890000Y-116240000D01*
X128250000Y-93030000D02*
X127250000Y-93030000D01*
X127250000Y-94730000D02*
X128250000Y-94730000D01*
X139590000Y-116800000D02*
X139590000Y-115800000D01*
X137890000Y-115800000D02*
X137890000Y-116800000D01*
X148890000Y-110490000D02*
X148890000Y-109490000D01*
X147190000Y-109490000D02*
X147190000Y-110490000D01*
X119720000Y-77460000D02*
X111080000Y-77460000D01*
X128100000Y-77460000D02*
X123020000Y-77460000D01*
X119720000Y-89660000D02*
X111080000Y-89660000D01*
X128100000Y-89660000D02*
X123020000Y-89660000D01*
X111080000Y-89660000D02*
X111080000Y-77460000D01*
X128100000Y-77460000D02*
X128100000Y-89660000D01*
X148400000Y-86820000D02*
X151060000Y-86820000D01*
X148400000Y-84220000D02*
X148400000Y-86820000D01*
X151060000Y-84220000D02*
X151060000Y-86820000D01*
X148400000Y-84220000D02*
X151060000Y-84220000D01*
X148400000Y-82950000D02*
X148400000Y-81620000D01*
X148400000Y-81620000D02*
X149730000Y-81620000D01*
X118450000Y-107310000D02*
X115790000Y-107310000D01*
X118450000Y-117530000D02*
X118450000Y-107310000D01*
X115790000Y-117530000D02*
X115790000Y-107310000D01*
X118450000Y-117530000D02*
X115790000Y-117530000D01*
X118450000Y-118800000D02*
X118450000Y-120130000D01*
X118450000Y-120130000D02*
X117120000Y-120130000D01*
X151660000Y-124850000D02*
X151660000Y-122190000D01*
X149060000Y-124850000D02*
X151660000Y-124850000D01*
X149060000Y-122190000D02*
X151660000Y-122190000D01*
X149060000Y-124850000D02*
X149060000Y-122190000D01*
X147790000Y-124850000D02*
X146460000Y-124850000D01*
X146460000Y-124850000D02*
X146460000Y-123520000D01*
X131300000Y-124430000D02*
X130100000Y-124430000D01*
X130100000Y-122670000D02*
X131300000Y-122670000D01*
X130040000Y-89010000D02*
X130040000Y-87810000D01*
X131800000Y-87810000D02*
X131800000Y-89010000D01*
X135550000Y-122670000D02*
X136750000Y-122670000D01*
X136750000Y-124430000D02*
X135550000Y-124430000D01*
D14*
X124705000Y-109065000D02*
X124705000Y-109640000D01*
X135055000Y-109065000D02*
X135055000Y-109740000D01*
X135055000Y-119415000D02*
X135055000Y-118740000D01*
X124705000Y-119415000D02*
X124705000Y-118740000D01*
X124705000Y-109065000D02*
X125380000Y-109065000D01*
X124705000Y-119415000D02*
X125380000Y-119415000D01*
X135055000Y-119415000D02*
X134380000Y-119415000D01*
X135055000Y-109065000D02*
X134380000Y-109065000D01*
X124705000Y-109640000D02*
X123430000Y-109640000D01*
D15*
X133490000Y-92495000D02*
X139890000Y-92495000D01*
X133490000Y-97545000D02*
X139890000Y-97545000D01*
X133490000Y-97545000D02*
G75*
G02X133490000Y-92495000I0J2525000D01*
G01*
X139890000Y-97545000D02*
G75*
G03X139890000Y-92495000I0J2525000D01*
G01*
X140925000Y-116620000D02*
X140925000Y-110220000D01*
X145975000Y-116620000D02*
X145975000Y-110220000D01*
X145975000Y-116620000D02*
G75*
G02X140925000Y-116620000I-2525000J0D01*
G01*
X145975000Y-110220000D02*
G75*
G03X140925000Y-110220000I-2525000J0D01*
G01*
X128250000Y-97600000D02*
X127250000Y-97600000D01*
X127250000Y-99300000D02*
X128250000Y-99300000D01*
X118510000Y-92760000D02*
X118510000Y-94020000D01*
X118510000Y-99580000D02*
X118510000Y-98320000D01*
X122270000Y-92760000D02*
X118510000Y-92760000D01*
X124520000Y-99580000D02*
X118510000Y-99580000D01*
X120550000Y-122720000D02*
X119550000Y-122720000D01*
X119550000Y-124420000D02*
X120550000Y-124420000D01*
X116570000Y-124900000D02*
X116570000Y-122240000D01*
X113970000Y-124900000D02*
X116570000Y-124900000D01*
X113970000Y-122240000D02*
X116570000Y-122240000D01*
X113970000Y-124900000D02*
X113970000Y-122240000D01*
X112700000Y-124900000D02*
X111370000Y-124900000D01*
X111370000Y-124900000D02*
X111370000Y-123570000D01*
X141010000Y-122670000D02*
X142210000Y-122670000D01*
X142210000Y-124430000D02*
X141010000Y-124430000D01*
X146280000Y-104710000D02*
X146280000Y-102050000D01*
X141140000Y-104710000D02*
X146280000Y-104710000D01*
X141140000Y-102050000D02*
X146280000Y-102050000D01*
X141140000Y-104710000D02*
X141140000Y-102050000D01*
X139870000Y-104710000D02*
X138540000Y-104710000D01*
X138540000Y-104710000D02*
X138540000Y-103380000D01*
D14*
X132322381Y-84771905D02*
X133131905Y-84771905D01*
X133227143Y-84724286D01*
X133274762Y-84676667D01*
X133322381Y-84581429D01*
X133322381Y-84390952D01*
X133274762Y-84295714D01*
X133227143Y-84248095D01*
X133131905Y-84200476D01*
X132322381Y-84200476D01*
X133322381Y-83200476D02*
X133322381Y-83771905D01*
X133322381Y-83486191D02*
X132322381Y-83486191D01*
X132465238Y-83581429D01*
X132560476Y-83676667D01*
X132608095Y-83771905D01*
X146013334Y-98877143D02*
X145965715Y-98924762D01*
X145822858Y-98972381D01*
X145727620Y-98972381D01*
X145584762Y-98924762D01*
X145489524Y-98829524D01*
X145441905Y-98734286D01*
X145394286Y-98543810D01*
X145394286Y-98400952D01*
X145441905Y-98210476D01*
X145489524Y-98115238D01*
X145584762Y-98020000D01*
X145727620Y-97972381D01*
X145822858Y-97972381D01*
X145965715Y-98020000D01*
X146013334Y-98067619D01*
X146965715Y-98972381D02*
X146394286Y-98972381D01*
X146680000Y-98972381D02*
X146680000Y-97972381D01*
X146584762Y-98115238D01*
X146489524Y-98210476D01*
X146394286Y-98258095D01*
X146013334Y-95197143D02*
X145965715Y-95244762D01*
X145822858Y-95292381D01*
X145727620Y-95292381D01*
X145584762Y-95244762D01*
X145489524Y-95149524D01*
X145441905Y-95054286D01*
X145394286Y-94863810D01*
X145394286Y-94720952D01*
X145441905Y-94530476D01*
X145489524Y-94435238D01*
X145584762Y-94340000D01*
X145727620Y-94292381D01*
X145822858Y-94292381D01*
X145965715Y-94340000D01*
X146013334Y-94387619D01*
X146394286Y-94387619D02*
X146441905Y-94340000D01*
X146537143Y-94292381D01*
X146775239Y-94292381D01*
X146870477Y-94340000D01*
X146918096Y-94387619D01*
X146965715Y-94482857D01*
X146965715Y-94578095D01*
X146918096Y-94720952D01*
X146346667Y-95292381D01*
X146965715Y-95292381D01*
X137053334Y-74457143D02*
X137005715Y-74504762D01*
X136862858Y-74552381D01*
X136767620Y-74552381D01*
X136624762Y-74504762D01*
X136529524Y-74409524D01*
X136481905Y-74314286D01*
X136434286Y-74123810D01*
X136434286Y-73980952D01*
X136481905Y-73790476D01*
X136529524Y-73695238D01*
X136624762Y-73600000D01*
X136767620Y-73552381D01*
X136862858Y-73552381D01*
X137005715Y-73600000D01*
X137053334Y-73647619D01*
X137386667Y-73552381D02*
X138005715Y-73552381D01*
X137672381Y-73933333D01*
X137815239Y-73933333D01*
X137910477Y-73980952D01*
X137958096Y-74028571D01*
X138005715Y-74123810D01*
X138005715Y-74361905D01*
X137958096Y-74457143D01*
X137910477Y-74504762D01*
X137815239Y-74552381D01*
X137529524Y-74552381D01*
X137434286Y-74504762D01*
X137386667Y-74457143D01*
X121327143Y-111306666D02*
X121374762Y-111354285D01*
X121422381Y-111497142D01*
X121422381Y-111592380D01*
X121374762Y-111735238D01*
X121279524Y-111830476D01*
X121184286Y-111878095D01*
X120993810Y-111925714D01*
X120850952Y-111925714D01*
X120660476Y-111878095D01*
X120565238Y-111830476D01*
X120470000Y-111735238D01*
X120422381Y-111592380D01*
X120422381Y-111497142D01*
X120470000Y-111354285D01*
X120517619Y-111306666D01*
X120755714Y-110449523D02*
X121422381Y-110449523D01*
X120374762Y-110687619D02*
X121089048Y-110925714D01*
X121089048Y-110306666D01*
X133037143Y-78816666D02*
X133084762Y-78864285D01*
X133132381Y-79007142D01*
X133132381Y-79102380D01*
X133084762Y-79245238D01*
X132989524Y-79340476D01*
X132894286Y-79388095D01*
X132703810Y-79435714D01*
X132560952Y-79435714D01*
X132370476Y-79388095D01*
X132275238Y-79340476D01*
X132180000Y-79245238D01*
X132132381Y-79102380D01*
X132132381Y-79007142D01*
X132180000Y-78864285D01*
X132227619Y-78816666D01*
X132132381Y-77911904D02*
X132132381Y-78388095D01*
X132608571Y-78435714D01*
X132560952Y-78388095D01*
X132513333Y-78292857D01*
X132513333Y-78054761D01*
X132560952Y-77959523D01*
X132608571Y-77911904D01*
X132703810Y-77864285D01*
X132941905Y-77864285D01*
X133037143Y-77911904D01*
X133084762Y-77959523D01*
X133132381Y-78054761D01*
X133132381Y-78292857D01*
X133084762Y-78388095D01*
X133037143Y-78435714D01*
X130143334Y-105207143D02*
X130095715Y-105254762D01*
X129952858Y-105302381D01*
X129857620Y-105302381D01*
X129714762Y-105254762D01*
X129619524Y-105159524D01*
X129571905Y-105064286D01*
X129524286Y-104873810D01*
X129524286Y-104730952D01*
X129571905Y-104540476D01*
X129619524Y-104445238D01*
X129714762Y-104350000D01*
X129857620Y-104302381D01*
X129952858Y-104302381D01*
X130095715Y-104350000D01*
X130143334Y-104397619D01*
X131000477Y-104302381D02*
X130810000Y-104302381D01*
X130714762Y-104350000D01*
X130667143Y-104397619D01*
X130571905Y-104540476D01*
X130524286Y-104730952D01*
X130524286Y-105111905D01*
X130571905Y-105207143D01*
X130619524Y-105254762D01*
X130714762Y-105302381D01*
X130905239Y-105302381D01*
X131000477Y-105254762D01*
X131048096Y-105207143D01*
X131095715Y-105111905D01*
X131095715Y-104873810D01*
X131048096Y-104778571D01*
X131000477Y-104730952D01*
X130905239Y-104683333D01*
X130714762Y-104683333D01*
X130619524Y-104730952D01*
X130571905Y-104778571D01*
X130524286Y-104873810D01*
X125293334Y-125667143D02*
X125245715Y-125714762D01*
X125102858Y-125762381D01*
X125007620Y-125762381D01*
X124864762Y-125714762D01*
X124769524Y-125619524D01*
X124721905Y-125524286D01*
X124674286Y-125333810D01*
X124674286Y-125190952D01*
X124721905Y-125000476D01*
X124769524Y-124905238D01*
X124864762Y-124810000D01*
X125007620Y-124762381D01*
X125102858Y-124762381D01*
X125245715Y-124810000D01*
X125293334Y-124857619D01*
X125626667Y-124762381D02*
X126293334Y-124762381D01*
X125864762Y-125762381D01*
X150167143Y-116846666D02*
X150214762Y-116894285D01*
X150262381Y-117037142D01*
X150262381Y-117132380D01*
X150214762Y-117275238D01*
X150119524Y-117370476D01*
X150024286Y-117418095D01*
X149833810Y-117465714D01*
X149690952Y-117465714D01*
X149500476Y-117418095D01*
X149405238Y-117370476D01*
X149310000Y-117275238D01*
X149262381Y-117132380D01*
X149262381Y-117037142D01*
X149310000Y-116894285D01*
X149357619Y-116846666D01*
X149690952Y-116275238D02*
X149643333Y-116370476D01*
X149595714Y-116418095D01*
X149500476Y-116465714D01*
X149452857Y-116465714D01*
X149357619Y-116418095D01*
X149310000Y-116370476D01*
X149262381Y-116275238D01*
X149262381Y-116084761D01*
X149310000Y-115989523D01*
X149357619Y-115941904D01*
X149452857Y-115894285D01*
X149500476Y-115894285D01*
X149595714Y-115941904D01*
X149643333Y-115989523D01*
X149690952Y-116084761D01*
X149690952Y-116275238D01*
X149738571Y-116370476D01*
X149786190Y-116418095D01*
X149881429Y-116465714D01*
X150071905Y-116465714D01*
X150167143Y-116418095D01*
X150214762Y-116370476D01*
X150262381Y-116275238D01*
X150262381Y-116084761D01*
X150214762Y-115989523D01*
X150167143Y-115941904D01*
X150071905Y-115894285D01*
X149881429Y-115894285D01*
X149786190Y-115941904D01*
X149738571Y-115989523D01*
X149690952Y-116084761D01*
X127583334Y-92487143D02*
X127535715Y-92534762D01*
X127392858Y-92582381D01*
X127297620Y-92582381D01*
X127154762Y-92534762D01*
X127059524Y-92439524D01*
X127011905Y-92344286D01*
X126964286Y-92153810D01*
X126964286Y-92010952D01*
X127011905Y-91820476D01*
X127059524Y-91725238D01*
X127154762Y-91630000D01*
X127297620Y-91582381D01*
X127392858Y-91582381D01*
X127535715Y-91630000D01*
X127583334Y-91677619D01*
X128059524Y-92582381D02*
X128250000Y-92582381D01*
X128345239Y-92534762D01*
X128392858Y-92487143D01*
X128488096Y-92344286D01*
X128535715Y-92153810D01*
X128535715Y-91772857D01*
X128488096Y-91677619D01*
X128440477Y-91630000D01*
X128345239Y-91582381D01*
X128154762Y-91582381D01*
X128059524Y-91630000D01*
X128011905Y-91677619D01*
X127964286Y-91772857D01*
X127964286Y-92010952D01*
X128011905Y-92106190D01*
X128059524Y-92153810D01*
X128154762Y-92201429D01*
X128345239Y-92201429D01*
X128440477Y-92153810D01*
X128488096Y-92106190D01*
X128535715Y-92010952D01*
X139037143Y-112692857D02*
X139084762Y-112740476D01*
X139132381Y-112883333D01*
X139132381Y-112978571D01*
X139084762Y-113121429D01*
X138989524Y-113216667D01*
X138894286Y-113264286D01*
X138703810Y-113311905D01*
X138560952Y-113311905D01*
X138370476Y-113264286D01*
X138275238Y-113216667D01*
X138180000Y-113121429D01*
X138132381Y-112978571D01*
X138132381Y-112883333D01*
X138180000Y-112740476D01*
X138227619Y-112692857D01*
X139132381Y-111740476D02*
X139132381Y-112311905D01*
X139132381Y-112026191D02*
X138132381Y-112026191D01*
X138275238Y-112121429D01*
X138370476Y-112216667D01*
X138418095Y-112311905D01*
X138132381Y-111121429D02*
X138132381Y-111026190D01*
X138180000Y-110930952D01*
X138227619Y-110883333D01*
X138322857Y-110835714D01*
X138513333Y-110788095D01*
X138751429Y-110788095D01*
X138941905Y-110835714D01*
X139037143Y-110883333D01*
X139084762Y-110930952D01*
X139132381Y-111026190D01*
X139132381Y-111121429D01*
X139084762Y-111216667D01*
X139037143Y-111264286D01*
X138941905Y-111311905D01*
X138751429Y-111359524D01*
X138513333Y-111359524D01*
X138322857Y-111311905D01*
X138227619Y-111264286D01*
X138180000Y-111216667D01*
X138132381Y-111121429D01*
X150147143Y-110632857D02*
X150194762Y-110680476D01*
X150242381Y-110823333D01*
X150242381Y-110918571D01*
X150194762Y-111061429D01*
X150099524Y-111156667D01*
X150004286Y-111204286D01*
X149813810Y-111251905D01*
X149670952Y-111251905D01*
X149480476Y-111204286D01*
X149385238Y-111156667D01*
X149290000Y-111061429D01*
X149242381Y-110918571D01*
X149242381Y-110823333D01*
X149290000Y-110680476D01*
X149337619Y-110632857D01*
X150242381Y-109680476D02*
X150242381Y-110251905D01*
X150242381Y-109966191D02*
X149242381Y-109966191D01*
X149385238Y-110061429D01*
X149480476Y-110156667D01*
X149528095Y-110251905D01*
X150242381Y-108728095D02*
X150242381Y-109299524D01*
X150242381Y-109013810D02*
X149242381Y-109013810D01*
X149385238Y-109109048D01*
X149480476Y-109204286D01*
X149528095Y-109299524D01*
X114472381Y-83893333D02*
X115186667Y-83893333D01*
X115329524Y-83940953D01*
X115424762Y-84036191D01*
X115472381Y-84179048D01*
X115472381Y-84274286D01*
X115472381Y-82893333D02*
X115472381Y-83464762D01*
X115472381Y-83179048D02*
X114472381Y-83179048D01*
X114615238Y-83274286D01*
X114710476Y-83369524D01*
X114758095Y-83464762D01*
X149476667Y-87652381D02*
X149476667Y-88366667D01*
X149429047Y-88509524D01*
X149333809Y-88604762D01*
X149190952Y-88652381D01*
X149095714Y-88652381D01*
X149905238Y-87747619D02*
X149952857Y-87700000D01*
X150048095Y-87652381D01*
X150286191Y-87652381D01*
X150381429Y-87700000D01*
X150429048Y-87747619D01*
X150476667Y-87842857D01*
X150476667Y-87938095D01*
X150429048Y-88080952D01*
X149857619Y-88652381D01*
X150476667Y-88652381D01*
X118446667Y-117732381D02*
X118446667Y-118446667D01*
X118399047Y-118589524D01*
X118303809Y-118684762D01*
X118160952Y-118732381D01*
X118065714Y-118732381D01*
X118827619Y-117732381D02*
X119446667Y-117732381D01*
X119113333Y-118113333D01*
X119256191Y-118113333D01*
X119351429Y-118160952D01*
X119399048Y-118208571D01*
X119446667Y-118303810D01*
X119446667Y-118541905D01*
X119399048Y-118637143D01*
X119351429Y-118684762D01*
X119256191Y-118732381D01*
X118970476Y-118732381D01*
X118875238Y-118684762D01*
X118827619Y-118637143D01*
X147996667Y-124712381D02*
X147996667Y-125426667D01*
X147949047Y-125569524D01*
X147853809Y-125664762D01*
X147710952Y-125712381D01*
X147615714Y-125712381D01*
X148901429Y-125045714D02*
X148901429Y-125712381D01*
X148663333Y-124664762D02*
X148425238Y-125379048D01*
X149044286Y-125379048D01*
X130743334Y-125802381D02*
X130267143Y-125802381D01*
X130267143Y-124802381D01*
X131600477Y-125802381D02*
X131029048Y-125802381D01*
X131314762Y-125802381D02*
X131314762Y-124802381D01*
X131219524Y-124945238D01*
X131124286Y-125040476D01*
X131029048Y-125088095D01*
X133072381Y-88576666D02*
X132596190Y-88910000D01*
X133072381Y-89148095D02*
X132072381Y-89148095D01*
X132072381Y-88767142D01*
X132120000Y-88671904D01*
X132167619Y-88624285D01*
X132262857Y-88576666D01*
X132405714Y-88576666D01*
X132500952Y-88624285D01*
X132548571Y-88671904D01*
X132596190Y-88767142D01*
X132596190Y-89148095D01*
X133072381Y-87624285D02*
X133072381Y-88195714D01*
X133072381Y-87910000D02*
X132072381Y-87910000D01*
X132215238Y-88005238D01*
X132310476Y-88100476D01*
X132358095Y-88195714D01*
X136003334Y-125762381D02*
X135670000Y-125286190D01*
X135431905Y-125762381D02*
X135431905Y-124762381D01*
X135812858Y-124762381D01*
X135908096Y-124810000D01*
X135955715Y-124857619D01*
X136003334Y-124952857D01*
X136003334Y-125095714D01*
X135955715Y-125190952D01*
X135908096Y-125238571D01*
X135812858Y-125286190D01*
X135431905Y-125286190D01*
X136384286Y-124857619D02*
X136431905Y-124810000D01*
X136527143Y-124762381D01*
X136765239Y-124762381D01*
X136860477Y-124810000D01*
X136908096Y-124857619D01*
X136955715Y-124952857D01*
X136955715Y-125048095D01*
X136908096Y-125190952D01*
X136336667Y-125762381D01*
X136955715Y-125762381D01*
X122818095Y-108162381D02*
X122818095Y-108971905D01*
X122865714Y-109067143D01*
X122913333Y-109114762D01*
X123008571Y-109162381D01*
X123199048Y-109162381D01*
X123294286Y-109114762D01*
X123341905Y-109067143D01*
X123389524Y-108971905D01*
X123389524Y-108162381D01*
X123818095Y-108257619D02*
X123865714Y-108210000D01*
X123960952Y-108162381D01*
X124199048Y-108162381D01*
X124294286Y-108210000D01*
X124341905Y-108257619D01*
X124389524Y-108352857D01*
X124389524Y-108448095D01*
X124341905Y-108590952D01*
X123770476Y-109162381D01*
X124389524Y-109162381D01*
X136213809Y-91471190D02*
X136213809Y-91947381D01*
X135880476Y-90947381D02*
X136213809Y-91471190D01*
X136547143Y-90947381D01*
X137404286Y-91947381D02*
X136832857Y-91947381D01*
X137118571Y-91947381D02*
X137118571Y-90947381D01*
X137023333Y-91090238D01*
X136928095Y-91185476D01*
X136832857Y-91233095D01*
X139616190Y-108996191D02*
X140092381Y-108996191D01*
X139092381Y-109329524D02*
X139616190Y-108996191D01*
X139092381Y-108662857D01*
X139187619Y-108377143D02*
X139140000Y-108329524D01*
X139092381Y-108234286D01*
X139092381Y-107996190D01*
X139140000Y-107900952D01*
X139187619Y-107853333D01*
X139282857Y-107805714D01*
X139378095Y-107805714D01*
X139520952Y-107853333D01*
X140092381Y-108424762D01*
X140092381Y-107805714D01*
X127107143Y-97057143D02*
X127059524Y-97104762D01*
X126916667Y-97152381D01*
X126821429Y-97152381D01*
X126678571Y-97104762D01*
X126583333Y-97009524D01*
X126535714Y-96914286D01*
X126488095Y-96723810D01*
X126488095Y-96580952D01*
X126535714Y-96390476D01*
X126583333Y-96295238D01*
X126678571Y-96200000D01*
X126821429Y-96152381D01*
X126916667Y-96152381D01*
X127059524Y-96200000D01*
X127107143Y-96247619D01*
X128059524Y-97152381D02*
X127488095Y-97152381D01*
X127773809Y-97152381D02*
X127773809Y-96152381D01*
X127678571Y-96295238D01*
X127583333Y-96390476D01*
X127488095Y-96438095D01*
X128440476Y-96247619D02*
X128488095Y-96200000D01*
X128583333Y-96152381D01*
X128821429Y-96152381D01*
X128916667Y-96200000D01*
X128964286Y-96247619D01*
X129011905Y-96342857D01*
X129011905Y-96438095D01*
X128964286Y-96580952D01*
X128392857Y-97152381D01*
X129011905Y-97152381D01*
X114632381Y-94261905D02*
X115441905Y-94261905D01*
X115537143Y-94214286D01*
X115584762Y-94166667D01*
X115632381Y-94071429D01*
X115632381Y-93880952D01*
X115584762Y-93785714D01*
X115537143Y-93738095D01*
X115441905Y-93690476D01*
X114632381Y-93690476D01*
X114632381Y-93309524D02*
X114632381Y-92690476D01*
X115013333Y-93023810D01*
X115013333Y-92880952D01*
X115060952Y-92785714D01*
X115108571Y-92738095D01*
X115203810Y-92690476D01*
X115441905Y-92690476D01*
X115537143Y-92738095D01*
X115584762Y-92785714D01*
X115632381Y-92880952D01*
X115632381Y-93166667D01*
X115584762Y-93261905D01*
X115537143Y-93309524D01*
X119387143Y-125667143D02*
X119339524Y-125714762D01*
X119196667Y-125762381D01*
X119101429Y-125762381D01*
X118958571Y-125714762D01*
X118863333Y-125619524D01*
X118815714Y-125524286D01*
X118768095Y-125333810D01*
X118768095Y-125190952D01*
X118815714Y-125000476D01*
X118863333Y-124905238D01*
X118958571Y-124810000D01*
X119101429Y-124762381D01*
X119196667Y-124762381D01*
X119339524Y-124810000D01*
X119387143Y-124857619D01*
X120339524Y-125762381D02*
X119768095Y-125762381D01*
X120053809Y-125762381D02*
X120053809Y-124762381D01*
X119958571Y-124905238D01*
X119863333Y-125000476D01*
X119768095Y-125048095D01*
X120672857Y-124762381D02*
X121291905Y-124762381D01*
X120958571Y-125143333D01*
X121101429Y-125143333D01*
X121196667Y-125190952D01*
X121244286Y-125238571D01*
X121291905Y-125333810D01*
X121291905Y-125571905D01*
X121244286Y-125667143D01*
X121196667Y-125714762D01*
X121101429Y-125762381D01*
X120815714Y-125762381D01*
X120720476Y-125714762D01*
X120672857Y-125667143D01*
X111396667Y-121042381D02*
X111396667Y-121756667D01*
X111349047Y-121899524D01*
X111253809Y-121994762D01*
X111110952Y-122042381D01*
X111015714Y-122042381D01*
X112349048Y-121042381D02*
X111872857Y-121042381D01*
X111825238Y-121518571D01*
X111872857Y-121470952D01*
X111968095Y-121423333D01*
X112206191Y-121423333D01*
X112301429Y-121470952D01*
X112349048Y-121518571D01*
X112396667Y-121613810D01*
X112396667Y-121851905D01*
X112349048Y-121947143D01*
X112301429Y-121994762D01*
X112206191Y-122042381D01*
X111968095Y-122042381D01*
X111872857Y-121994762D01*
X111825238Y-121947143D01*
X141443334Y-125702381D02*
X141110000Y-125226190D01*
X140871905Y-125702381D02*
X140871905Y-124702381D01*
X141252858Y-124702381D01*
X141348096Y-124750000D01*
X141395715Y-124797619D01*
X141443334Y-124892857D01*
X141443334Y-125035714D01*
X141395715Y-125130952D01*
X141348096Y-125178571D01*
X141252858Y-125226190D01*
X140871905Y-125226190D01*
X141776667Y-124702381D02*
X142395715Y-124702381D01*
X142062381Y-125083333D01*
X142205239Y-125083333D01*
X142300477Y-125130952D01*
X142348096Y-125178571D01*
X142395715Y-125273810D01*
X142395715Y-125511905D01*
X142348096Y-125607143D01*
X142300477Y-125654762D01*
X142205239Y-125702381D01*
X141919524Y-125702381D01*
X141824286Y-125654762D01*
X141776667Y-125607143D01*
X139986667Y-104612381D02*
X139986667Y-105326667D01*
X139939047Y-105469524D01*
X139843809Y-105564762D01*
X139700952Y-105612381D01*
X139605714Y-105612381D01*
X140891429Y-104612381D02*
X140700952Y-104612381D01*
X140605714Y-104660000D01*
X140558095Y-104707619D01*
X140462857Y-104850476D01*
X140415238Y-105040952D01*
X140415238Y-105421905D01*
X140462857Y-105517143D01*
X140510476Y-105564762D01*
X140605714Y-105612381D01*
X140796191Y-105612381D01*
X140891429Y-105564762D01*
X140939048Y-105517143D01*
X140986667Y-105421905D01*
X140986667Y-105183810D01*
X140939048Y-105088571D01*
X140891429Y-105040952D01*
X140796191Y-104993333D01*
X140605714Y-104993333D01*
X140510476Y-105040952D01*
X140462857Y-105088571D01*
X140415238Y-105183810D01*
M02*
