M48
;DRILL file {KiCad 4.0.7-e1-6374~58~ubuntu14.04.1} date Sat Jan 27 06:03:10 2018
;FORMAT={-:-/ absolute / metric / decimal}
FMAT,2
METRIC,TZ
T1C0.400
T2C0.800
T3C0.810
T4C1.000
T5C2.300
%
G90
G05
M71
T1
X120.43Y-94.4
X127.11Y-111.16
X130.68Y-118.07
X132.19Y-116.25
X132.57Y-79.92
X132.83Y-90.48
X138.9Y-123.57
T2
X134.25Y-95.02
X139.13Y-95.02
X143.45Y-110.98
X143.45Y-115.86
T3
X124.07Y-82.29
X124.07Y-84.83
X126.07Y-82.29
X126.07Y-84.83
T4
X112.7Y-123.57
X115.24Y-123.57
X117.12Y-108.64
X117.12Y-111.18
X117.12Y-113.72
X117.12Y-116.26
X117.12Y-118.8
X139.87Y-103.38
X142.41Y-103.38
X144.95Y-103.38
X147.79Y-123.52
X149.73Y-82.95
X149.73Y-85.49
X150.33Y-123.52
T5
X121.37Y-77.56
X121.37Y-89.56
T0
M30
