G04 #@! TF.FileFunction,Copper,L2,Inr,Signal*
%FSLAX46Y46*%
G04 Gerber Fmt 4.6, Leading zero omitted, Abs format (unit mm)*
G04 Created by KiCad (PCBNEW 4.0.7-e2-6376~58~ubuntu16.04.1) date Sat Apr 21 13:31:31 2018*
%MOMM*%
%LPD*%
G01*
G04 APERTURE LIST*
%ADD10C,0.100000*%
%ADD11C,3.600000*%
%ADD12O,0.950000X1.250000*%
%ADD13O,1.550000X1.000000*%
%ADD14R,1.700000X1.700000*%
%ADD15O,1.700000X1.700000*%
%ADD16C,0.914400*%
%ADD17C,0.406400*%
%ADD18C,0.762000*%
%ADD19C,0.508000*%
%ADD20C,0.254000*%
G04 APERTURE END LIST*
D10*
D11*
X187420000Y-111010000D03*
D12*
X94980000Y-72360000D03*
X94980000Y-77360000D03*
D13*
X92280000Y-71360000D03*
X92280000Y-78360000D03*
D14*
X126390000Y-62850000D03*
D15*
X128930000Y-62850000D03*
X131470000Y-62850000D03*
X134010000Y-62850000D03*
D14*
X124440000Y-85720000D03*
D15*
X121900000Y-85720000D03*
X124440000Y-83180000D03*
X121900000Y-83180000D03*
X124440000Y-80640000D03*
X121900000Y-80640000D03*
X124440000Y-78100000D03*
X121900000Y-78100000D03*
D14*
X172220000Y-62780000D03*
D15*
X169680000Y-62780000D03*
X167140000Y-62780000D03*
X164600000Y-62780000D03*
X162060000Y-62780000D03*
X159520000Y-62780000D03*
D14*
X151900000Y-62780000D03*
D15*
X154440000Y-62780000D03*
D14*
X118880000Y-111040000D03*
D15*
X121420000Y-111040000D03*
X123960000Y-111040000D03*
X126500000Y-111040000D03*
X129040000Y-111040000D03*
X131580000Y-111040000D03*
X134120000Y-111040000D03*
D14*
X139110000Y-62780000D03*
D15*
X141650000Y-62780000D03*
X144190000Y-62780000D03*
X146730000Y-62780000D03*
D14*
X179840000Y-111040000D03*
D15*
X177300000Y-111040000D03*
X174760000Y-111040000D03*
X172220000Y-111040000D03*
D11*
X181090000Y-62780000D03*
X106150000Y-62770000D03*
X104880000Y-111020000D03*
D14*
X139200000Y-111040000D03*
D15*
X141740000Y-111040000D03*
X144280000Y-111040000D03*
X146820000Y-111040000D03*
X149360000Y-111040000D03*
X151900000Y-111040000D03*
X154440000Y-111040000D03*
X156980000Y-111040000D03*
X159520000Y-111040000D03*
X162060000Y-111040000D03*
X164600000Y-111040000D03*
X167140000Y-111040000D03*
D14*
X184890000Y-70410000D03*
D15*
X187430000Y-70410000D03*
X184890000Y-72950000D03*
X187430000Y-72950000D03*
X184890000Y-75490000D03*
X187430000Y-75490000D03*
X184890000Y-78030000D03*
X187430000Y-78030000D03*
X184890000Y-80570000D03*
X187430000Y-80570000D03*
X184890000Y-83110000D03*
X187430000Y-83110000D03*
X184890000Y-85650000D03*
X187430000Y-85650000D03*
X184890000Y-88190000D03*
X187430000Y-88190000D03*
X184890000Y-90730000D03*
X187430000Y-90730000D03*
X184890000Y-93270000D03*
X187430000Y-93270000D03*
X184890000Y-95810000D03*
X187430000Y-95810000D03*
X184890000Y-98350000D03*
X187430000Y-98350000D03*
X184890000Y-100890000D03*
X187430000Y-100890000D03*
X184890000Y-103430000D03*
X187430000Y-103430000D03*
D14*
X115820000Y-94340000D03*
D15*
X118360000Y-94340000D03*
X120900000Y-94340000D03*
X123440000Y-94340000D03*
X125980000Y-94340000D03*
X128520000Y-94340000D03*
D16*
X95780000Y-106460000D03*
X103290000Y-99460000D03*
X109570000Y-82510000D03*
X162760000Y-100480000D03*
X127630000Y-68730000D03*
X136570000Y-93300000D03*
X127890000Y-76340000D03*
X136850000Y-74110000D03*
X98670000Y-72380000D03*
X115970000Y-87040000D03*
X156910000Y-82700000D03*
X150740000Y-89920000D03*
X156230000Y-78410000D03*
X170370000Y-93540000D03*
X147760000Y-77420000D03*
X115380000Y-70620000D03*
X155310000Y-72590000D03*
X159010000Y-67910000D03*
X174350000Y-92650000D03*
X105540000Y-69800000D03*
X135050000Y-101580000D03*
X129590000Y-103850000D03*
X129590000Y-100040000D03*
X92500000Y-83150000D03*
X128440000Y-80620000D03*
X135660000Y-91120000D03*
X96450000Y-86500000D03*
X137610000Y-70490000D03*
X138300000Y-87420000D03*
X143600000Y-84760000D03*
X103220000Y-71210000D03*
X103250000Y-68090000D03*
X144640000Y-83590000D03*
X141630000Y-74640000D03*
X168200000Y-95610000D03*
X145600000Y-89800000D03*
X152890000Y-100890000D03*
X98120000Y-108360000D03*
X114970000Y-79230000D03*
X160190000Y-66250000D03*
X163700000Y-70050000D03*
X118730000Y-98020000D03*
X101700000Y-108310000D03*
X122750000Y-64530000D03*
X173290000Y-71320000D03*
X125780000Y-97760000D03*
X93370000Y-73650000D03*
X168200000Y-96860000D03*
X135270000Y-88530000D03*
X134060000Y-87080000D03*
X152250000Y-69800000D03*
X135960000Y-87060000D03*
X155600000Y-70450000D03*
X110380000Y-91380000D03*
X135550000Y-94350000D03*
X134650000Y-93250000D03*
X110300000Y-88350000D03*
X130575000Y-85775000D03*
X181100000Y-90140000D03*
X168170000Y-98150000D03*
X139070000Y-94010000D03*
X172150000Y-105350000D03*
X140010000Y-93130000D03*
X174790000Y-105310000D03*
X177210000Y-105260000D03*
X141830000Y-94180000D03*
X179830000Y-105280000D03*
X143880000Y-96440000D03*
X161550000Y-71640000D03*
X179930000Y-66780000D03*
X127140000Y-88330000D03*
X115990000Y-92580000D03*
X104050000Y-89840000D03*
X103010000Y-88150000D03*
X115980000Y-88410000D03*
X109590000Y-81020000D03*
X118080000Y-73690000D03*
X109950000Y-73690000D03*
X145390000Y-68240000D03*
X156050000Y-99410000D03*
X154720000Y-87230000D03*
X119440000Y-76500000D03*
X162170000Y-95860000D03*
X162210000Y-79690000D03*
X168120000Y-87620000D03*
X131760000Y-96180000D03*
X168150000Y-91410000D03*
X146200000Y-77420000D03*
X157890000Y-95500000D03*
X167620000Y-66240000D03*
X173060000Y-68780000D03*
X145130000Y-85220000D03*
X173370000Y-86430000D03*
X140550000Y-86300000D03*
X165360000Y-80070000D03*
X169900000Y-71320000D03*
X158330000Y-72660000D03*
X138470000Y-106420000D03*
X106010000Y-107460000D03*
X93400000Y-75940000D03*
X167250000Y-80940000D03*
X172760000Y-82460000D03*
X171440000Y-86130000D03*
X155420000Y-91290000D03*
X151240000Y-82460000D03*
X154710000Y-78900000D03*
X152890000Y-87270000D03*
X175100000Y-90150000D03*
X168170000Y-90160000D03*
X160190000Y-80170000D03*
X150660000Y-85140000D03*
X141810000Y-86650000D03*
X114330000Y-103100000D03*
X138570000Y-102580000D03*
X122130000Y-105380000D03*
X125210000Y-103170000D03*
X102020000Y-89860000D03*
X151020000Y-77990000D03*
X98470000Y-68990000D03*
X152430000Y-93990000D03*
X139750000Y-70440000D03*
X140070000Y-87630000D03*
X142075000Y-89525000D03*
X92190000Y-93900000D03*
X97390000Y-90980000D03*
X138580000Y-103850000D03*
X143750000Y-106220000D03*
X128180000Y-102670000D03*
X180600000Y-97000000D03*
X180600000Y-99600000D03*
X143040000Y-77390000D03*
X141980000Y-80180000D03*
D17*
X187440000Y-75460000D02*
X187450000Y-75470000D01*
X159520000Y-62780000D02*
X159520000Y-64330000D01*
X159010000Y-64840000D02*
X159010000Y-67910000D01*
X159520000Y-64330000D02*
X159010000Y-64840000D01*
D18*
X181090000Y-62780000D02*
X186700000Y-62780000D01*
X186700000Y-62780000D02*
X187440000Y-63520000D01*
X187440000Y-63520000D02*
X187440000Y-66450000D01*
X187440000Y-68990000D02*
X187440000Y-66450000D01*
X187440000Y-71530000D02*
X187440000Y-68990000D01*
X187450000Y-76000000D02*
X187450000Y-71540000D01*
X187450000Y-71540000D02*
X187440000Y-71530000D01*
X187450000Y-78540000D02*
X187450000Y-76000000D01*
X187450000Y-81080000D02*
X187450000Y-78540000D01*
X187450000Y-83620000D02*
X187450000Y-81080000D01*
X187450000Y-86160000D02*
X187450000Y-83620000D01*
X187450000Y-98290000D02*
X187450000Y-95750000D01*
X187450000Y-100830000D02*
X187450000Y-98290000D01*
X187450000Y-103370000D02*
X187450000Y-100830000D01*
X187420000Y-111010000D02*
X187420000Y-103400000D01*
X187420000Y-103400000D02*
X187450000Y-103370000D01*
X187450000Y-95750000D02*
X187450000Y-93460000D01*
X187450000Y-93460000D02*
X187420000Y-93430000D01*
X187450000Y-88700000D02*
X187450000Y-86160000D01*
X187450000Y-91240000D02*
X187450000Y-88700000D01*
X187420000Y-93430000D02*
X187420000Y-91270000D01*
X187420000Y-91270000D02*
X187450000Y-91240000D01*
X115380000Y-70620000D02*
X116920000Y-70620000D01*
X118810000Y-68730000D02*
X127630000Y-68730000D01*
X116920000Y-70620000D02*
X118810000Y-68730000D01*
D17*
X187420000Y-103400000D02*
X187450000Y-103370000D01*
D19*
X187450000Y-71540000D02*
X187440000Y-71530000D01*
D18*
X115970000Y-87040000D02*
X118840000Y-87040000D01*
X118840000Y-87040000D02*
X120010000Y-88210000D01*
X120010000Y-88210000D02*
X123730000Y-88210000D01*
X123730000Y-88210000D02*
X124440000Y-87500000D01*
X124440000Y-87500000D02*
X124440000Y-85720000D01*
D17*
X155310000Y-72590000D02*
X156190000Y-72590000D01*
X159010000Y-69770000D02*
X159010000Y-67910000D01*
X156190000Y-72590000D02*
X159010000Y-69770000D01*
X159010000Y-67910000D02*
X159020000Y-68170000D01*
D19*
X124440000Y-85960000D02*
X124440000Y-85720000D01*
D17*
X187450000Y-66440000D02*
X187440000Y-66450000D01*
D20*
X159020000Y-68170000D02*
X159010000Y-67910000D01*
D17*
X154440000Y-62780000D02*
X159520000Y-62780000D01*
D18*
X129590000Y-103850000D02*
X130250000Y-103850000D01*
X131580000Y-105180000D02*
X131580000Y-111040000D01*
X130250000Y-103850000D02*
X131580000Y-105180000D01*
D17*
X137610000Y-70490000D02*
X137610000Y-68560000D01*
X137610000Y-68560000D02*
X140980000Y-65190000D01*
X141650000Y-62780000D02*
X141650000Y-64520000D01*
X141650000Y-64520000D02*
X140980000Y-65190000D01*
X130670000Y-65190000D02*
X128930000Y-63450000D01*
X140980000Y-65190000D02*
X130670000Y-65190000D01*
X128930000Y-63450000D02*
X128930000Y-62850000D01*
D18*
X103220000Y-83660000D02*
X103220000Y-83760000D01*
X103220000Y-83760000D02*
X103740000Y-84280000D01*
X103220000Y-71210000D02*
X103220000Y-83660000D01*
X103220000Y-83660000D02*
X102600000Y-84280000D01*
X96450000Y-86500000D02*
X96450000Y-84880000D01*
X97050000Y-84280000D02*
X102600000Y-84280000D01*
X96450000Y-84880000D02*
X97050000Y-84280000D01*
X102600000Y-84280000D02*
X103740000Y-84280000D01*
X103740000Y-84280000D02*
X118740000Y-84280000D01*
X118740000Y-84280000D02*
X120180000Y-85720000D01*
X120180000Y-85720000D02*
X121900000Y-85720000D01*
D17*
X135270000Y-88530000D02*
X139250000Y-88530000D01*
X139250000Y-88530000D02*
X147580000Y-96860000D01*
X168200000Y-96860000D02*
X147580000Y-96860000D01*
X152250000Y-69800000D02*
X152250000Y-70330000D01*
X142220000Y-70640000D02*
X138165000Y-74695000D01*
X151940000Y-70640000D02*
X142220000Y-70640000D01*
X152250000Y-70330000D02*
X151940000Y-70640000D01*
X138165000Y-84575000D02*
X138165000Y-83805000D01*
X136630000Y-86110000D02*
X138165000Y-84575000D01*
X134390000Y-86110000D02*
X136630000Y-86110000D01*
X134060000Y-86440000D02*
X134390000Y-86110000D01*
X138165000Y-83805000D02*
X138165000Y-82145000D01*
X138165000Y-82145000D02*
X138165000Y-74695000D01*
X134060000Y-87080000D02*
X134060000Y-86440000D01*
X135960000Y-87060000D02*
X137270000Y-87060000D01*
X137270000Y-87060000D02*
X139370000Y-84960000D01*
X139370000Y-84960000D02*
X139370000Y-75320000D01*
X139370000Y-75320000D02*
X143040000Y-71650000D01*
X143040000Y-71650000D02*
X154400000Y-71650000D01*
X154400000Y-71650000D02*
X155600000Y-70450000D01*
D18*
X126500000Y-111040000D02*
X126500000Y-108400000D01*
X126500000Y-108400000D02*
X125030000Y-106930000D01*
X114000000Y-106930000D02*
X108990000Y-101920000D01*
X125030000Y-106930000D02*
X114000000Y-106930000D01*
X110380000Y-91380000D02*
X109450000Y-91380000D01*
X109450000Y-91380000D02*
X108990000Y-91840000D01*
X108990000Y-91840000D02*
X108990000Y-101920000D01*
X133620000Y-94850000D02*
X132910000Y-94850000D01*
X132910000Y-94850000D02*
X129440000Y-91380000D01*
X135550000Y-94350000D02*
X135550000Y-94550000D01*
X129440000Y-91380000D02*
X110380000Y-91380000D01*
X135250000Y-94850000D02*
X133620000Y-94850000D01*
X135550000Y-94550000D02*
X135250000Y-94850000D01*
X123960000Y-111040000D02*
X123960000Y-109600000D01*
X123960000Y-109600000D02*
X123250000Y-108890000D01*
X109720000Y-88350000D02*
X110300000Y-88350000D01*
X107040000Y-91030000D02*
X109720000Y-88350000D01*
X107040000Y-103240000D02*
X107040000Y-91030000D01*
X112690000Y-108890000D02*
X107040000Y-103240000D01*
X123250000Y-108890000D02*
X112690000Y-108890000D01*
X134650000Y-93250000D02*
X133790000Y-93250000D01*
X111500000Y-88350000D02*
X112900000Y-89750000D01*
X112900000Y-89750000D02*
X130290000Y-89750000D01*
X110300000Y-88350000D02*
X111500000Y-88350000D01*
X133790000Y-93250000D02*
X130290000Y-89750000D01*
D17*
X124440000Y-78100000D02*
X125570000Y-78100000D01*
X126190000Y-81390000D02*
X130575000Y-85775000D01*
X126190000Y-78720000D02*
X126190000Y-81390000D01*
X125570000Y-78100000D02*
X126190000Y-78720000D01*
X130540000Y-85775000D02*
X130540000Y-86950000D01*
X130575000Y-85775000D02*
X130540000Y-85775000D01*
X139045000Y-89770000D02*
X147425000Y-98150000D01*
X130540000Y-86950000D02*
X133360000Y-89770000D01*
X133360000Y-89770000D02*
X139045000Y-89770000D01*
X147425000Y-98150000D02*
X168170000Y-98150000D01*
X147440000Y-98150000D02*
X147425000Y-98150000D01*
X168170000Y-98150000D02*
X147440000Y-98150000D01*
X161550000Y-62760000D02*
X161560000Y-62750000D01*
X162060000Y-62780000D02*
X162060000Y-71130000D01*
X162060000Y-71130000D02*
X161550000Y-71640000D01*
X124440000Y-83180000D02*
X125880000Y-83180000D01*
X125880000Y-83180000D02*
X127140000Y-84440000D01*
X127140000Y-84440000D02*
X127140000Y-88330000D01*
D18*
X109950000Y-80660000D02*
X109590000Y-81020000D01*
X109950000Y-73690000D02*
X109950000Y-80660000D01*
X109950000Y-73690000D02*
X118080000Y-73690000D01*
X118010000Y-73760000D02*
X118080000Y-73690000D01*
D17*
X118080000Y-73690000D02*
X118010000Y-73760000D01*
X109940000Y-73700000D02*
X109950000Y-73690000D01*
D18*
X162210000Y-79670000D02*
X162210000Y-81710000D01*
X162210000Y-81710000D02*
X168120000Y-87620000D01*
D17*
X162210000Y-79690000D02*
X162210000Y-79670000D01*
D18*
X173350000Y-88640000D02*
X168990000Y-93000000D01*
X167170000Y-93000000D02*
X166680000Y-92510000D01*
X168990000Y-93000000D02*
X167170000Y-93000000D01*
X145130000Y-85220000D02*
X145130000Y-86950000D01*
X150690000Y-92510000D02*
X166680000Y-92510000D01*
X145130000Y-86950000D02*
X150690000Y-92510000D01*
X173350000Y-88640000D02*
X173370000Y-88620000D01*
X173370000Y-88620000D02*
X173370000Y-86430000D01*
D19*
X184910000Y-70410000D02*
X178590000Y-70410000D01*
X178590000Y-70410000D02*
X174840000Y-74160000D01*
X174840000Y-74160000D02*
X144040000Y-74160000D01*
X144040000Y-74160000D02*
X140550000Y-77650000D01*
X140550000Y-77650000D02*
X140550000Y-86300000D01*
D17*
X184910000Y-70410000D02*
X184910000Y-66460000D01*
X184910000Y-66460000D02*
X184900000Y-66450000D01*
X140550000Y-86300000D02*
X140550000Y-79800000D01*
X140550000Y-79800000D02*
X140550000Y-77650000D01*
X140550000Y-79800000D02*
X140550000Y-79800000D01*
X140550000Y-77650000D02*
X144040000Y-74160000D01*
X174840000Y-74160000D02*
X181250000Y-67750000D01*
X144040000Y-74160000D02*
X174840000Y-74160000D01*
X181250000Y-67750000D02*
X181250000Y-67750000D01*
X181250000Y-67750000D02*
X182550000Y-66450000D01*
X182550000Y-66450000D02*
X184900000Y-66450000D01*
X184900000Y-66450000D02*
X184150000Y-66450000D01*
X158330000Y-72660000D02*
X168520000Y-72660000D01*
X169860000Y-71320000D02*
X169900000Y-71320000D01*
X168520000Y-72660000D02*
X169860000Y-71320000D01*
D18*
X173840000Y-80940000D02*
X183630000Y-90730000D01*
X167250000Y-80940000D02*
X173840000Y-80940000D01*
X183630000Y-90730000D02*
X184920000Y-90730000D01*
X180130000Y-93270000D02*
X184920000Y-93270000D01*
X178840000Y-91980000D02*
X180130000Y-93270000D01*
X178840000Y-88570000D02*
X178840000Y-91980000D01*
X172840000Y-82540000D02*
X172840000Y-82570000D01*
D17*
X172760000Y-82460000D02*
X172840000Y-82540000D01*
D18*
X172840000Y-82570000D02*
X178840000Y-88570000D01*
D17*
X171440000Y-87120000D02*
X171440000Y-86130000D01*
X155420000Y-91290000D02*
X157780000Y-88930000D01*
X157780000Y-88930000D02*
X169630000Y-88930000D01*
X169630000Y-88930000D02*
X171440000Y-87120000D01*
D19*
X151240000Y-82460000D02*
X154860000Y-82460000D01*
X154860000Y-82460000D02*
X158810000Y-78510000D01*
X174140000Y-78510000D02*
X181280000Y-85650000D01*
X158810000Y-78510000D02*
X174140000Y-78510000D01*
X181280000Y-85650000D02*
X184920000Y-85650000D01*
D18*
X150680000Y-85120000D02*
X157950000Y-85120000D01*
X157950000Y-85120000D02*
X160190000Y-82880000D01*
X160190000Y-82880000D02*
X160190000Y-80170000D01*
D17*
X150680000Y-85120000D02*
X150680000Y-85120000D01*
X150660000Y-85140000D02*
X150680000Y-85120000D01*
D18*
X111850000Y-111070000D02*
X118880000Y-111040000D01*
X104550000Y-103770000D02*
X111850000Y-111070000D01*
X104550000Y-92390000D02*
X104550000Y-103770000D01*
X102020000Y-89860000D02*
X104550000Y-92390000D01*
D19*
X184920000Y-83110000D02*
X180900000Y-83110000D01*
X175250000Y-77460000D02*
X151550000Y-77460000D01*
X180900000Y-83110000D02*
X175250000Y-77460000D01*
X151550000Y-77460000D02*
X151020000Y-77990000D01*
X174760000Y-111040000D02*
X174760000Y-108040000D01*
X174760000Y-108040000D02*
X176000000Y-106800000D01*
X176000000Y-106800000D02*
X176000000Y-103600000D01*
X176000000Y-103600000D02*
X180000000Y-99600000D01*
X180000000Y-99600000D02*
X180600000Y-99600000D01*
D17*
X180000000Y-99600000D02*
X180600000Y-99600000D01*
X176000000Y-106800000D02*
X176000000Y-103600000D01*
X174760000Y-108040000D02*
X176000000Y-106800000D01*
D19*
X143040000Y-77390000D02*
X143040000Y-76950000D01*
X143040000Y-76950000D02*
X144640000Y-75350000D01*
X144640000Y-75350000D02*
X176710000Y-75350000D01*
X184910000Y-72950000D02*
X179110000Y-72950000D01*
X179110000Y-72950000D02*
X176710000Y-75350000D01*
D17*
X144640000Y-75350000D02*
X176710000Y-75350000D01*
X143040000Y-76950000D02*
X144640000Y-75350000D01*
D19*
X184910000Y-75490000D02*
X179490000Y-75490000D01*
X179490000Y-75490000D02*
X178590000Y-76390000D01*
X178590000Y-76390000D02*
X145550000Y-76390000D01*
X143460000Y-80180000D02*
X141980000Y-80180000D01*
X144660000Y-78980000D02*
X143460000Y-80180000D01*
X144660000Y-77280000D02*
X144660000Y-78980000D01*
X145550000Y-76390000D02*
X144660000Y-77280000D01*
M02*
