G04 #@! TF.FileFunction,Copper,L3,Inr,Signal*
%FSLAX46Y46*%
G04 Gerber Fmt 4.6, Leading zero omitted, Abs format (unit mm)*
G04 Created by KiCad (PCBNEW 4.0.7-e2-6376~58~ubuntu16.04.1) date Sat Apr 21 07:24:12 2018*
%MOMM*%
%LPD*%
G01*
G04 APERTURE LIST*
%ADD10C,0.100000*%
%ADD11C,3.600000*%
%ADD12C,1.800000*%
%ADD13O,4.500000X2.000000*%
%ADD14O,0.950000X1.250000*%
%ADD15O,1.550000X1.000000*%
%ADD16R,1.700000X1.700000*%
%ADD17O,1.700000X1.700000*%
%ADD18C,0.914400*%
%ADD19C,0.406400*%
%ADD20C,0.762000*%
%ADD21C,0.508000*%
%ADD22C,0.304800*%
G04 APERTURE END LIST*
D10*
D11*
X187420000Y-111010000D03*
D12*
X94440000Y-107600000D03*
X94440000Y-105100000D03*
X94440000Y-102600000D03*
D13*
X97740000Y-110100000D03*
X97740000Y-100100000D03*
D14*
X94980000Y-72360000D03*
X94980000Y-77360000D03*
D15*
X92280000Y-71360000D03*
X92280000Y-78360000D03*
D16*
X115820000Y-94340000D03*
D17*
X118360000Y-94340000D03*
X120900000Y-94340000D03*
X123440000Y-94340000D03*
X125980000Y-94340000D03*
X128520000Y-94340000D03*
D16*
X126390000Y-62850000D03*
D17*
X128930000Y-62850000D03*
X131470000Y-62850000D03*
X134010000Y-62850000D03*
D16*
X124440000Y-85720000D03*
D17*
X121900000Y-85720000D03*
X124440000Y-83180000D03*
X121900000Y-83180000D03*
X124440000Y-80640000D03*
X121900000Y-80640000D03*
X124440000Y-78100000D03*
X121900000Y-78100000D03*
D16*
X172220000Y-62780000D03*
D17*
X169680000Y-62780000D03*
X167140000Y-62780000D03*
X164600000Y-62780000D03*
X162060000Y-62780000D03*
X159520000Y-62780000D03*
D16*
X151900000Y-62780000D03*
D17*
X154440000Y-62780000D03*
D16*
X118880000Y-111040000D03*
D17*
X121420000Y-111040000D03*
X123960000Y-111040000D03*
X126500000Y-111040000D03*
X129040000Y-111040000D03*
X131580000Y-111040000D03*
X134120000Y-111040000D03*
D16*
X139110000Y-62780000D03*
D17*
X141650000Y-62780000D03*
X144190000Y-62780000D03*
X146730000Y-62780000D03*
D16*
X179840000Y-111040000D03*
D17*
X177300000Y-111040000D03*
X174760000Y-111040000D03*
X172220000Y-111040000D03*
D11*
X181090000Y-62780000D03*
X106150000Y-62770000D03*
X104880000Y-111020000D03*
D16*
X139200000Y-111040000D03*
D17*
X141740000Y-111040000D03*
X144280000Y-111040000D03*
X146820000Y-111040000D03*
X149360000Y-111040000D03*
X151900000Y-111040000D03*
X154440000Y-111040000D03*
X156980000Y-111040000D03*
X159520000Y-111040000D03*
X162060000Y-111040000D03*
X164600000Y-111040000D03*
X167140000Y-111040000D03*
D16*
X184890000Y-70410000D03*
D17*
X187430000Y-70410000D03*
X184890000Y-72950000D03*
X187430000Y-72950000D03*
X184890000Y-75490000D03*
X187430000Y-75490000D03*
X184890000Y-78030000D03*
X187430000Y-78030000D03*
X184890000Y-80570000D03*
X187430000Y-80570000D03*
X184890000Y-83110000D03*
X187430000Y-83110000D03*
X184890000Y-85650000D03*
X187430000Y-85650000D03*
X184890000Y-88190000D03*
X187430000Y-88190000D03*
X184890000Y-90730000D03*
X187430000Y-90730000D03*
X184890000Y-93270000D03*
X187430000Y-93270000D03*
X184890000Y-95810000D03*
X187430000Y-95810000D03*
X184890000Y-98350000D03*
X187430000Y-98350000D03*
X184890000Y-100890000D03*
X187430000Y-100890000D03*
X184890000Y-103430000D03*
X187430000Y-103430000D03*
D18*
X109570000Y-82510000D03*
X162760000Y-100480000D03*
X127630000Y-68730000D03*
X136570000Y-93300000D03*
X127890000Y-76340000D03*
X136850000Y-74110000D03*
X98670000Y-72380000D03*
X115970000Y-87040000D03*
X156910000Y-82700000D03*
X150740000Y-89920000D03*
X156230000Y-78410000D03*
X170370000Y-93540000D03*
X147760000Y-77420000D03*
X107140000Y-108690000D03*
X115380000Y-70620000D03*
X155310000Y-72590000D03*
X159010000Y-67910000D03*
X174350000Y-92650000D03*
X105540000Y-69800000D03*
X135050000Y-101580000D03*
X129590000Y-103850000D03*
X129590000Y-100040000D03*
X92500000Y-83150000D03*
X128440000Y-80620000D03*
X135660000Y-91120000D03*
X96450000Y-86500000D03*
X137610000Y-70490000D03*
X138300000Y-87420000D03*
X143600000Y-84760000D03*
X103220000Y-71210000D03*
X103250000Y-68090000D03*
X144640000Y-83590000D03*
X141630000Y-74640000D03*
X168200000Y-95610000D03*
X145600000Y-89800000D03*
X152890000Y-100890000D03*
X114970000Y-79230000D03*
X160190000Y-66250000D03*
X163700000Y-70050000D03*
X110450000Y-92820000D03*
X118730000Y-98020000D03*
X122750000Y-64530000D03*
X113100000Y-92980000D03*
X173290000Y-71320000D03*
X125780000Y-97760000D03*
X93370000Y-73650000D03*
X168200000Y-96860000D03*
X135270000Y-88530000D03*
X134060000Y-87080000D03*
X152250000Y-69800000D03*
X135960000Y-87060000D03*
X155600000Y-70450000D03*
X110380000Y-91380000D03*
X135550000Y-94350000D03*
X134650000Y-93250000D03*
X110300000Y-88350000D03*
X130575000Y-85775000D03*
X181100000Y-90140000D03*
X168170000Y-98150000D03*
X139070000Y-94010000D03*
X172150000Y-105350000D03*
X140010000Y-93130000D03*
X174790000Y-105310000D03*
X177210000Y-105260000D03*
X141830000Y-94180000D03*
X179830000Y-105280000D03*
X143880000Y-96440000D03*
X161550000Y-71640000D03*
X179930000Y-66780000D03*
X127140000Y-88330000D03*
X104050000Y-89840000D03*
X115990000Y-92580000D03*
X103010000Y-88150000D03*
X115980000Y-88410000D03*
X109590000Y-81020000D03*
X118080000Y-73690000D03*
X109950000Y-73690000D03*
X145390000Y-68240000D03*
X156050000Y-99410000D03*
X154720000Y-87230000D03*
X119440000Y-76500000D03*
X162170000Y-95860000D03*
X162210000Y-79690000D03*
X168120000Y-87620000D03*
X131760000Y-96180000D03*
X168150000Y-91410000D03*
X146200000Y-77420000D03*
X157890000Y-95500000D03*
X167620000Y-66240000D03*
X173060000Y-68780000D03*
X145130000Y-85220000D03*
X173370000Y-86430000D03*
X140550000Y-86300000D03*
X165360000Y-80070000D03*
X169900000Y-71320000D03*
X158330000Y-72660000D03*
X138530000Y-106380000D03*
X104960000Y-107010000D03*
X93400000Y-75940000D03*
X167250000Y-80940000D03*
X172760000Y-82460000D03*
X171440000Y-86130000D03*
X155420000Y-91290000D03*
X151240000Y-82460000D03*
X154710000Y-78900000D03*
X152890000Y-87270000D03*
X175100000Y-90150000D03*
X168170000Y-90160000D03*
X160190000Y-80170000D03*
X150660000Y-85140000D03*
X141810000Y-86650000D03*
X114330000Y-103100000D03*
X138570000Y-102580000D03*
X122130000Y-105380000D03*
X125210000Y-103170000D03*
X102020000Y-89860000D03*
X151020000Y-77990000D03*
X98470000Y-68990000D03*
X152430000Y-93990000D03*
X139750000Y-70440000D03*
X140070000Y-87630000D03*
X142075000Y-89525000D03*
X92190000Y-93900000D03*
X97390000Y-90980000D03*
X138580000Y-103850000D03*
X143750000Y-106220000D03*
X128180000Y-102670000D03*
X143040000Y-77390000D03*
X141980000Y-80180000D03*
D19*
X126390000Y-62850000D02*
X126390000Y-64500000D01*
X136680000Y-65210000D02*
X139110000Y-62780000D01*
X127100000Y-65210000D02*
X136680000Y-65210000D01*
X126390000Y-64500000D02*
X127100000Y-65210000D01*
D20*
X156230000Y-78410000D02*
X156230000Y-73510000D01*
X156230000Y-73510000D02*
X155310000Y-72590000D01*
X147760000Y-77420000D02*
X147760000Y-74680000D01*
X147760000Y-74680000D02*
X149850000Y-72590000D01*
X149850000Y-72590000D02*
X155310000Y-72590000D01*
X170370000Y-93540000D02*
X173460000Y-93540000D01*
X173460000Y-93540000D02*
X174350000Y-92650000D01*
X150740000Y-89920000D02*
X154390000Y-89920000D01*
X154390000Y-89920000D02*
X156910000Y-87400000D01*
X156910000Y-87400000D02*
X156910000Y-82700000D01*
D21*
X92280000Y-71360000D02*
X92280000Y-78360000D01*
D20*
X92280000Y-78360000D02*
X93980000Y-78360000D01*
X93980000Y-78360000D02*
X94980000Y-77360000D01*
X94980000Y-72360000D02*
X94980000Y-72350000D01*
X94980000Y-72350000D02*
X93990000Y-71360000D01*
X93990000Y-71360000D02*
X92280000Y-71360000D01*
X98670000Y-72380000D02*
X95000000Y-72380000D01*
X95000000Y-72380000D02*
X94980000Y-72360000D01*
X106150000Y-62770000D02*
X110320000Y-62770000D01*
X110320000Y-62770000D02*
X115380000Y-67830000D01*
X115380000Y-67830000D02*
X115380000Y-70620000D01*
X123440000Y-94340000D02*
X123440000Y-92420000D01*
X123440000Y-92420000D02*
X124440000Y-91420000D01*
X124440000Y-91420000D02*
X124440000Y-85720000D01*
X121900000Y-85720000D02*
X121900000Y-90970000D01*
X121900000Y-90970000D02*
X120900000Y-91970000D01*
X120900000Y-91970000D02*
X120900000Y-94340000D01*
X145600000Y-89800000D02*
X145600000Y-97780000D01*
X145600000Y-97780000D02*
X148710000Y-100890000D01*
X148710000Y-100890000D02*
X152890000Y-100890000D01*
X152890000Y-100890000D02*
X160440000Y-100890000D01*
X160440000Y-100890000D02*
X165720000Y-95610000D01*
X165720000Y-95610000D02*
X168200000Y-95610000D01*
X141630000Y-74640000D02*
X144170000Y-74640000D01*
X144170000Y-74640000D02*
X144640000Y-75110000D01*
X144640000Y-75110000D02*
X144640000Y-83590000D01*
D19*
X165730000Y-95600000D02*
X168200000Y-95610000D01*
X168200000Y-95610000D02*
X165730000Y-95600000D01*
D20*
X121610000Y-67100000D02*
X123790000Y-67100000D01*
X160190000Y-66250000D02*
X138960000Y-66250000D01*
X138960000Y-66250000D02*
X138770000Y-66440000D01*
X138770000Y-66440000D02*
X138110000Y-67100000D01*
X138110000Y-67100000D02*
X123790000Y-67100000D01*
X137410000Y-67100000D02*
X138110000Y-67100000D01*
X123790000Y-67100000D02*
X137410000Y-67100000D01*
X138110000Y-67100000D02*
X138770000Y-66440000D01*
X160190000Y-66250000D02*
X162560000Y-66250000D01*
D22*
X160190000Y-66250000D02*
X160190000Y-66220000D01*
X160190000Y-66220000D02*
X160190000Y-66250000D01*
X160190000Y-66250000D02*
X160190000Y-66220000D01*
D20*
X114970000Y-79230000D02*
X114970000Y-73740000D01*
X114970000Y-73740000D02*
X121610000Y-67100000D01*
X114970000Y-75920000D02*
X114970000Y-79230000D01*
X114970000Y-79230000D02*
X114970000Y-75920000D01*
X162560000Y-66250000D02*
X163700000Y-67390000D01*
X163700000Y-67390000D02*
X163700000Y-70050000D01*
D19*
X131470000Y-62850000D02*
X131470000Y-62100000D01*
X131470000Y-62100000D02*
X132740000Y-60830000D01*
X144190000Y-61840000D02*
X144190000Y-62780000D01*
X143180000Y-60830000D02*
X144190000Y-61840000D01*
X132740000Y-60830000D02*
X143180000Y-60830000D01*
D20*
X168170000Y-98150000D02*
X177350000Y-98150000D01*
X177350000Y-98150000D02*
X181100000Y-94400000D01*
X181100000Y-94400000D02*
X181100000Y-90140000D01*
X104050000Y-89840000D02*
X113250000Y-89840000D01*
X113250000Y-89840000D02*
X115990000Y-92580000D01*
X103010000Y-88150000D02*
X108540000Y-88150000D01*
X112250000Y-88410000D02*
X115980000Y-88410000D01*
X110970000Y-87130000D02*
X112250000Y-88410000D01*
X109560000Y-87130000D02*
X110970000Y-87130000D01*
X108540000Y-88150000D02*
X109560000Y-87130000D01*
D21*
X151180000Y-68620000D02*
X156350000Y-68620000D01*
X140370000Y-68620000D02*
X141740000Y-69990000D01*
X141740000Y-69990000D02*
X149810000Y-69990000D01*
X149810000Y-69990000D02*
X151180000Y-68620000D01*
D19*
X151180000Y-68620000D02*
X149810000Y-69990000D01*
D21*
X162210000Y-79690000D02*
X162210000Y-74480000D01*
X119440000Y-75070000D02*
X119440000Y-76500000D01*
X121140000Y-73370000D02*
X119440000Y-75070000D01*
X132660000Y-73370000D02*
X121140000Y-73370000D01*
X137410000Y-68620000D02*
X132660000Y-73370000D01*
X140370000Y-68620000D02*
X137410000Y-68620000D01*
X162210000Y-74480000D02*
X156350000Y-68620000D01*
D19*
X115820000Y-94340000D02*
X115820000Y-95650000D01*
X116350000Y-96180000D02*
X131760000Y-96180000D01*
X115820000Y-95650000D02*
X116350000Y-96180000D01*
D20*
X157890000Y-95500000D02*
X157890000Y-95060000D01*
X161540000Y-91410000D02*
X168150000Y-91410000D01*
X157890000Y-95060000D02*
X161540000Y-91410000D01*
X146200000Y-77420000D02*
X146200000Y-78640000D01*
X157000000Y-96390000D02*
X157890000Y-95500000D01*
X150090000Y-96390000D02*
X157000000Y-96390000D01*
X148860000Y-95160000D02*
X150090000Y-96390000D01*
X148860000Y-81300000D02*
X148860000Y-95160000D01*
X146200000Y-78640000D02*
X148860000Y-81300000D01*
D21*
X166070000Y-79360000D02*
X165360000Y-80070000D01*
X169540000Y-79360000D02*
X166070000Y-79360000D01*
X170750000Y-80570000D02*
X169540000Y-79360000D01*
X184920000Y-80570000D02*
X170750000Y-80570000D01*
D20*
X104930000Y-107010000D02*
X108490000Y-107010000D01*
X136360000Y-108550000D02*
X138530000Y-106380000D01*
X110030000Y-108550000D02*
X136360000Y-108550000D01*
X108490000Y-107010000D02*
X110030000Y-108550000D01*
X104960000Y-107010000D02*
X104930000Y-107010000D01*
D19*
X104960000Y-107010000D02*
X104950000Y-107010000D01*
X104950000Y-107010000D02*
X104960000Y-107010000D01*
X104960000Y-107010000D02*
X104950000Y-107010000D01*
X177760000Y-88190000D02*
X184920000Y-88190000D01*
X174390000Y-84820000D02*
X177760000Y-88190000D01*
X172750000Y-84820000D02*
X174390000Y-84820000D01*
X171440000Y-86130000D02*
X172750000Y-84820000D01*
D20*
X152890000Y-87270000D02*
X152890000Y-86260000D01*
X152890000Y-86260000D02*
X154710000Y-84440000D01*
X154710000Y-84440000D02*
X154710000Y-78900000D01*
D19*
X121900000Y-78100000D02*
X121900000Y-78250000D01*
X121900000Y-78250000D02*
X123010000Y-79360000D01*
X128970000Y-82930000D02*
X128970000Y-88290000D01*
X125400000Y-79360000D02*
X128970000Y-82930000D01*
X123010000Y-79360000D02*
X125400000Y-79360000D01*
X141810000Y-86650000D02*
X141810000Y-87870000D01*
X130450000Y-89770000D02*
X128970000Y-88290000D01*
X139910000Y-89770000D02*
X130450000Y-89770000D01*
X141810000Y-87870000D02*
X139910000Y-89770000D01*
D22*
X121900000Y-78100000D02*
X121900000Y-78130000D01*
X121900000Y-77730000D02*
X121900000Y-78100000D01*
D20*
X122130000Y-105380000D02*
X122130000Y-105890000D01*
X137370000Y-102580000D02*
X138570000Y-102580000D01*
X133190000Y-106760000D02*
X137370000Y-102580000D01*
X123000000Y-106760000D02*
X133190000Y-106760000D01*
X122130000Y-105890000D02*
X123000000Y-106760000D01*
D19*
X164530000Y-78120000D02*
X184830000Y-78120000D01*
X163930000Y-78720000D02*
X164530000Y-78120000D01*
X184830000Y-78120000D02*
X184920000Y-78030000D01*
X163930000Y-81870000D02*
X163930000Y-78720000D01*
X164670000Y-82610000D02*
X163930000Y-81870000D01*
X164670000Y-84770000D02*
X164670000Y-82610000D01*
X156660000Y-92780000D02*
X164670000Y-84770000D01*
X153640000Y-92780000D02*
X156660000Y-92780000D01*
X152430000Y-93990000D02*
X153640000Y-92780000D01*
D20*
X140070000Y-87630000D02*
X139380000Y-86940000D01*
X139380000Y-86940000D02*
X139380000Y-70810000D01*
X139380000Y-70810000D02*
X139750000Y-70440000D01*
X92190000Y-93900000D02*
X92190000Y-93060000D01*
X94270000Y-90980000D02*
X97390000Y-90980000D01*
X92190000Y-93060000D02*
X94270000Y-90980000D01*
D21*
X141380000Y-103850000D02*
X138580000Y-103850000D01*
X143750000Y-106220000D02*
X141380000Y-103850000D01*
X151970000Y-111030000D02*
X151970000Y-107320000D01*
X151970000Y-107320000D02*
X144590000Y-99940000D01*
X144590000Y-99940000D02*
X133480000Y-99940000D01*
X130750000Y-102670000D02*
X128180000Y-102670000D01*
X133480000Y-99940000D02*
X130750000Y-102670000D01*
M02*
