G04 #@! TF.FileFunction,Copper,L3,Inr,Signal*
%FSLAX46Y46*%
G04 Gerber Fmt 4.6, Leading zero omitted, Abs format (unit mm)*
G04 Created by KiCad (PCBNEW 4.0.7-e2-6376~58~ubuntu16.04.1) date Mon Jan 29 23:26:01 2018*
%MOMM*%
%LPD*%
G01*
G04 APERTURE LIST*
%ADD10C,0.100000*%
%ADD11O,0.950000X1.250000*%
%ADD12O,1.550000X1.000000*%
%ADD13C,1.800000*%
%ADD14O,4.500000X2.000000*%
%ADD15R,1.700000X1.700000*%
%ADD16O,1.700000X1.700000*%
%ADD17C,3.800000*%
%ADD18C,0.914400*%
%ADD19C,0.406400*%
%ADD20C,0.508000*%
%ADD21C,0.762000*%
%ADD22C,0.254000*%
%ADD23C,0.304800*%
G04 APERTURE END LIST*
D10*
D11*
X94980000Y-72360000D03*
X94980000Y-77360000D03*
D12*
X92280000Y-71360000D03*
X92280000Y-78360000D03*
D13*
X94440000Y-108520000D03*
X94440000Y-106020000D03*
X94440000Y-103520000D03*
D14*
X97740000Y-111020000D03*
X97740000Y-101020000D03*
D15*
X184910000Y-76000000D03*
D16*
X187450000Y-76000000D03*
X184910000Y-78540000D03*
X187450000Y-78540000D03*
X184910000Y-81080000D03*
X187450000Y-81080000D03*
X184910000Y-83620000D03*
X187450000Y-83620000D03*
X184910000Y-86160000D03*
X187450000Y-86160000D03*
X184910000Y-88700000D03*
X187450000Y-88700000D03*
X184910000Y-91240000D03*
X187450000Y-91240000D03*
D17*
X104880000Y-111020000D03*
X106150000Y-62770000D03*
X187420000Y-111010000D03*
D15*
X125370000Y-111070000D03*
D16*
X127910000Y-111070000D03*
X130450000Y-111070000D03*
D17*
X181090000Y-62780000D03*
D15*
X115820000Y-94340000D03*
D16*
X118360000Y-94340000D03*
X120900000Y-94340000D03*
X123440000Y-94340000D03*
X125980000Y-94340000D03*
X128520000Y-94340000D03*
D15*
X166470000Y-111060000D03*
D16*
X163930000Y-111060000D03*
X161390000Y-111060000D03*
X158850000Y-111060000D03*
X156310000Y-111060000D03*
X153770000Y-111060000D03*
X151230000Y-111060000D03*
X148690000Y-111060000D03*
D15*
X182070000Y-111040000D03*
D16*
X179530000Y-111040000D03*
X176990000Y-111040000D03*
X174450000Y-111040000D03*
X171910000Y-111040000D03*
D15*
X176800000Y-62750000D03*
D16*
X174260000Y-62750000D03*
X171720000Y-62750000D03*
X169180000Y-62750000D03*
X166640000Y-62750000D03*
X164100000Y-62750000D03*
X161560000Y-62750000D03*
X159020000Y-62750000D03*
D15*
X135820000Y-111070000D03*
D16*
X138360000Y-111070000D03*
X140900000Y-111070000D03*
X143440000Y-111070000D03*
D15*
X184900000Y-66450000D03*
D16*
X187440000Y-66450000D03*
X184900000Y-68990000D03*
X187440000Y-68990000D03*
X184900000Y-71530000D03*
X187440000Y-71530000D03*
D15*
X146450000Y-62750000D03*
D16*
X148990000Y-62750000D03*
X151530000Y-62750000D03*
X154070000Y-62750000D03*
D15*
X184910000Y-95750000D03*
D16*
X187450000Y-95750000D03*
X184910000Y-98290000D03*
X187450000Y-98290000D03*
X184910000Y-100830000D03*
X187450000Y-100830000D03*
X184910000Y-103370000D03*
X187450000Y-103370000D03*
D15*
X133690000Y-62750000D03*
D16*
X136230000Y-62750000D03*
X138770000Y-62750000D03*
X141310000Y-62750000D03*
D15*
X124440000Y-85720000D03*
D16*
X121900000Y-85720000D03*
X124440000Y-83180000D03*
X121900000Y-83180000D03*
X124440000Y-80640000D03*
X121900000Y-80640000D03*
X124440000Y-78100000D03*
X121900000Y-78100000D03*
D18*
X98670000Y-72380000D03*
X136710000Y-93300000D03*
X124330000Y-101530000D03*
X115970000Y-87040000D03*
X156910000Y-82700000D03*
X150740000Y-89920000D03*
X156230000Y-78410000D03*
X170370000Y-93540000D03*
X147760000Y-77420000D03*
X107140000Y-108690000D03*
X133020000Y-107660000D03*
X127630000Y-68730000D03*
X115380000Y-70620000D03*
X155310000Y-72590000D03*
X159010000Y-67910000D03*
X174350000Y-92650000D03*
X105540000Y-69800000D03*
X135050000Y-101580000D03*
X129590000Y-103850000D03*
X129590000Y-100040000D03*
X130230000Y-79960000D03*
X92500000Y-83450000D03*
X143600000Y-84760000D03*
X135660000Y-91120000D03*
X103220000Y-71210000D03*
X103250000Y-68090000D03*
X96450000Y-86500000D03*
X137610000Y-70490000D03*
X138300000Y-87420000D03*
X141630000Y-74640000D03*
X144640000Y-83590000D03*
X168200000Y-95610000D03*
X145600000Y-89800000D03*
X152890000Y-100890000D03*
X110450000Y-92820000D03*
X163700000Y-70050000D03*
X160190000Y-66250000D03*
X118730000Y-98020000D03*
X114970000Y-79230000D03*
X113100000Y-92980000D03*
X173290000Y-71320000D03*
X131870000Y-65560000D03*
X125780000Y-97760000D03*
X93370000Y-73650000D03*
X168200000Y-96860000D03*
X135270000Y-88530000D03*
X142990000Y-77130000D03*
X134060000Y-87080000D03*
X152250000Y-69800000D03*
X136280000Y-87110000D03*
X155600000Y-70600000D03*
X110380000Y-91380000D03*
X135550000Y-94350000D03*
X110300000Y-88350000D03*
X134650000Y-93250000D03*
X181100000Y-90140000D03*
X130575000Y-85775000D03*
X168170000Y-98150000D03*
X139070000Y-94010000D03*
X174410000Y-105450000D03*
X140010000Y-93130000D03*
X176960000Y-105340000D03*
X179530000Y-105240000D03*
X141830000Y-94180000D03*
X182060000Y-105280000D03*
X143880000Y-96440000D03*
X133040000Y-102580000D03*
X161550000Y-71640000D03*
X138650000Y-103850000D03*
X143720000Y-106210000D03*
X141980000Y-80180000D03*
X127140000Y-88330000D03*
X96400000Y-88410000D03*
X115810000Y-92520000D03*
X115920000Y-88390000D03*
X98710000Y-88400000D03*
X147950000Y-71070000D03*
X156050000Y-99410000D03*
X154720000Y-86870000D03*
X151300000Y-82730000D03*
X162170000Y-95860000D03*
X118630000Y-77200000D03*
X162210000Y-79690000D03*
X168120000Y-87620000D03*
X131760000Y-96180000D03*
X168150000Y-91410000D03*
X146200000Y-77420000D03*
X157890000Y-95500000D03*
X167620000Y-66240000D03*
X173060000Y-68780000D03*
X145130000Y-85220000D03*
X173370000Y-86430000D03*
X140550000Y-86300000D03*
X165350000Y-79700000D03*
X169900000Y-71320000D03*
X158330000Y-72660000D03*
X138530000Y-106380000D03*
X105390000Y-107200000D03*
X93400000Y-75940000D03*
X165800000Y-81110000D03*
X166470000Y-82680000D03*
X171700000Y-85240000D03*
X155450000Y-91280000D03*
X151290000Y-81430000D03*
X153170000Y-86850000D03*
X154710000Y-78900000D03*
X175100000Y-90150000D03*
X168170000Y-90160000D03*
X160190000Y-80170000D03*
X150660000Y-85140000D03*
X141810000Y-86650000D03*
X114380000Y-103100000D03*
X138570000Y-102580000D03*
X122130000Y-105380000D03*
X125200000Y-103150000D03*
X102350000Y-102070000D03*
X150990000Y-77460000D03*
X98470000Y-68990000D03*
X152370000Y-93880000D03*
X139900000Y-70440000D03*
X142075000Y-89525000D03*
X97390000Y-90980000D03*
X92200000Y-94570000D03*
D19*
X155310000Y-72590000D02*
X155340000Y-72590000D01*
X155340000Y-72590000D02*
X156230000Y-73480000D01*
D20*
X92280000Y-71360000D02*
X92280000Y-78360000D01*
D21*
X92280000Y-78360000D02*
X93980000Y-78360000D01*
X93980000Y-78360000D02*
X94980000Y-77360000D01*
X94980000Y-72360000D02*
X94980000Y-72350000D01*
X94980000Y-72350000D02*
X93990000Y-71360000D01*
X93990000Y-71360000D02*
X92280000Y-71360000D01*
X98670000Y-72380000D02*
X95000000Y-72380000D01*
X95000000Y-72380000D02*
X94980000Y-72360000D01*
D19*
X94440000Y-103520000D02*
X110720000Y-103520000D01*
X124330000Y-101530000D02*
X112710000Y-101530000D01*
X110720000Y-103520000D02*
X112710000Y-101530000D01*
D21*
X106150000Y-62770000D02*
X110320000Y-62770000D01*
X110320000Y-62770000D02*
X115380000Y-67830000D01*
X115380000Y-67830000D02*
X115380000Y-70620000D01*
X123440000Y-94340000D02*
X123440000Y-92420000D01*
X123440000Y-92420000D02*
X124440000Y-91420000D01*
X124440000Y-91420000D02*
X124440000Y-85720000D01*
D19*
X115380000Y-70620000D02*
X115380000Y-67830000D01*
X115380000Y-67830000D02*
X110320000Y-62770000D01*
X150740000Y-89920000D02*
X154390000Y-89920000D01*
X154390000Y-89920000D02*
X156910000Y-87400000D01*
X156910000Y-87400000D02*
X156910000Y-82700000D01*
X156230000Y-73480000D02*
X156230000Y-78410000D01*
X147760000Y-77420000D02*
X147760000Y-74680000D01*
X149850000Y-72590000D02*
X155310000Y-72590000D01*
X147760000Y-74680000D02*
X149850000Y-72590000D01*
X170370000Y-93540000D02*
X170400000Y-93570000D01*
X170400000Y-93570000D02*
X173430000Y-93570000D01*
X173430000Y-93570000D02*
X174350000Y-92650000D01*
X133020000Y-107660000D02*
X133020000Y-107690000D01*
X148170000Y-108690000D02*
X148690000Y-109210000D01*
X134020000Y-108690000D02*
X148170000Y-108690000D01*
X133020000Y-107690000D02*
X134020000Y-108690000D01*
X148690000Y-111060000D02*
X148690000Y-109210000D01*
X173700000Y-93300000D02*
X174350000Y-92650000D01*
D22*
X174350000Y-92650000D02*
X173700000Y-93300000D01*
D21*
X121900000Y-85720000D02*
X121900000Y-90970000D01*
X121900000Y-90970000D02*
X120900000Y-91970000D01*
X120900000Y-91970000D02*
X120900000Y-94340000D01*
D19*
X144640000Y-83590000D02*
X144640000Y-75110000D01*
X144170000Y-74640000D02*
X141630000Y-74640000D01*
X144640000Y-75110000D02*
X144170000Y-74640000D01*
X152890000Y-100890000D02*
X148710000Y-100890000D01*
X145600000Y-97780000D02*
X145600000Y-89800000D01*
X148710000Y-100890000D02*
X145600000Y-97780000D01*
X152890000Y-100890000D02*
X160440000Y-100890000D01*
X160440000Y-100890000D02*
X165730000Y-95600000D01*
X165730000Y-95600000D02*
X168200000Y-95610000D01*
X168200000Y-95610000D02*
X165730000Y-95600000D01*
X160190000Y-66250000D02*
X160190000Y-67230000D01*
X163010000Y-70050000D02*
X163700000Y-70050000D01*
X160190000Y-67230000D02*
X163010000Y-70050000D01*
D20*
X114970000Y-79190000D02*
X114970000Y-75920000D01*
X123790000Y-67100000D02*
X138370000Y-67100000D01*
X114970000Y-75920000D02*
X123790000Y-67100000D01*
X138370000Y-67100000D02*
X139250000Y-66220000D01*
X114970000Y-79230000D02*
X114970000Y-79190000D01*
D19*
X138770000Y-62750000D02*
X138770000Y-66700000D01*
X138770000Y-66700000D02*
X138370000Y-67100000D01*
D23*
X160190000Y-66250000D02*
X160190000Y-66220000D01*
X160190000Y-66220000D02*
X160190000Y-66250000D01*
X160190000Y-66250000D02*
X160190000Y-66220000D01*
D19*
X138770000Y-62750000D02*
X138770000Y-65660000D01*
X138770000Y-65660000D02*
X139330000Y-66220000D01*
X160190000Y-66220000D02*
X139330000Y-66220000D01*
X139330000Y-66220000D02*
X139250000Y-66220000D01*
X139250000Y-66220000D02*
X138370000Y-67100000D01*
X168170000Y-98150000D02*
X177325000Y-98175000D01*
X177325000Y-98175000D02*
X181100000Y-94400000D01*
X181100000Y-94400000D02*
X181100000Y-90140000D01*
X151230000Y-111060000D02*
X151230000Y-109180000D01*
X141660000Y-107400000D02*
X139400000Y-105140000D01*
X149450000Y-107400000D02*
X141660000Y-107400000D01*
X151230000Y-109180000D02*
X149450000Y-107400000D01*
X133040000Y-102580000D02*
X135600000Y-105140000D01*
X135600000Y-105140000D02*
X139400000Y-105140000D01*
X138650000Y-103850000D02*
X141360000Y-103850000D01*
X141360000Y-103850000D02*
X143720000Y-106210000D01*
X138650000Y-103850000D02*
X141350000Y-103850000D01*
X141350000Y-103850000D02*
X143720000Y-106210000D01*
D23*
X143720000Y-106210000D02*
X141350000Y-103850000D01*
D20*
X96400000Y-88410000D02*
X96400000Y-88410000D01*
X115810000Y-92520000D02*
X113040000Y-89750000D01*
X113040000Y-89750000D02*
X97740000Y-89750000D01*
X96400000Y-88410000D02*
X97740000Y-89750000D01*
X115870000Y-88400870D02*
X113970870Y-88400870D01*
X115920000Y-88390000D02*
X115870000Y-88400870D01*
X100330000Y-86780000D02*
X98710000Y-88400000D01*
X112350000Y-86780000D02*
X100330000Y-86780000D01*
X113970870Y-88400870D02*
X112350000Y-86780000D01*
D19*
X115820000Y-94340000D02*
X115820000Y-95650000D01*
X116350000Y-96180000D02*
X131760000Y-96180000D01*
X115820000Y-95650000D02*
X116350000Y-96180000D01*
X168150000Y-91410000D02*
X160810000Y-91410000D01*
X157890000Y-94330000D02*
X157890000Y-95500000D01*
X160810000Y-91410000D02*
X157890000Y-94330000D01*
X146200000Y-77380000D02*
X146200000Y-77720000D01*
X149500000Y-94490000D02*
X150510000Y-95500000D01*
X149500000Y-81020000D02*
X149500000Y-94490000D01*
X146200000Y-77720000D02*
X149500000Y-81020000D01*
X150510000Y-95500000D02*
X157890000Y-95500000D01*
X146200000Y-77420000D02*
X146200000Y-77380000D01*
X165350000Y-79700000D02*
X165350000Y-78960000D01*
X165770000Y-78540000D02*
X184910000Y-78540000D01*
X165350000Y-78960000D02*
X165770000Y-78540000D01*
X105390000Y-107200000D02*
X105390000Y-107180000D01*
X106190000Y-106380000D02*
X138530000Y-106380000D01*
X105390000Y-107180000D02*
X106190000Y-106380000D01*
X105390000Y-107200000D02*
X105380000Y-107200000D01*
X105380000Y-107200000D02*
X105390000Y-107200000D01*
X105390000Y-107200000D02*
X105380000Y-107200000D01*
X184910000Y-86160000D02*
X174920000Y-86160000D01*
X174920000Y-86160000D02*
X174000000Y-85240000D01*
X171700000Y-85240000D02*
X174000000Y-85240000D01*
X153170000Y-86850000D02*
X153170000Y-84690000D01*
X153170000Y-84690000D02*
X154675000Y-83185000D01*
X154675000Y-83185000D02*
X154710000Y-78900000D01*
X141810000Y-86650000D02*
X141810000Y-87870000D01*
X128970000Y-88290000D02*
X128970000Y-86720000D01*
X130450000Y-89770000D02*
X128970000Y-88290000D01*
X139910000Y-89770000D02*
X130450000Y-89770000D01*
X141810000Y-87870000D02*
X139910000Y-89770000D01*
X121900000Y-78100000D02*
X121900000Y-76890000D01*
X121900000Y-76890000D02*
X122510000Y-76280000D01*
X122510000Y-76280000D02*
X125680000Y-76280000D01*
X125680000Y-76280000D02*
X128970000Y-79570000D01*
X128970000Y-79570000D02*
X128970000Y-86720000D01*
X141810000Y-87700000D02*
X141810000Y-86650000D01*
D23*
X141810000Y-87700000D02*
X141810000Y-86650000D01*
X121900000Y-78100000D02*
X121900000Y-78130000D01*
X121900000Y-77730000D02*
X121900000Y-78100000D01*
D19*
X163390000Y-78580000D02*
X163390000Y-76830000D01*
X164220000Y-76000000D02*
X184910000Y-76000000D01*
X163390000Y-76830000D02*
X164220000Y-76000000D01*
X163390000Y-86540000D02*
X163390000Y-78580000D01*
X156050000Y-93880000D02*
X163390000Y-86540000D01*
X152370000Y-93880000D02*
X156050000Y-93880000D01*
X139900000Y-82660000D02*
X139900000Y-70440000D01*
X142075000Y-89525000D02*
X143220000Y-88380000D01*
X143220000Y-88380000D02*
X143220000Y-85980000D01*
X143220000Y-85980000D02*
X139900000Y-82660000D01*
X143220000Y-85980000D02*
X143220000Y-88380000D01*
X95790000Y-90980000D02*
X97390000Y-90980000D01*
X92200000Y-94570000D02*
X95790000Y-90980000D01*
M02*
