G04 #@! TF.FileFunction,Legend,Bot*
%FSLAX46Y46*%
G04 Gerber Fmt 4.6, Leading zero omitted, Abs format (unit mm)*
G04 Created by KiCad (PCBNEW 4.0.7-e2-6376~58~ubuntu16.04.1) date Wed Feb 14 08:22:07 2018*
%MOMM*%
%LPD*%
G01*
G04 APERTURE LIST*
%ADD10C,0.100000*%
%ADD11C,0.200000*%
G04 APERTURE END LIST*
D10*
X106223810Y-100144761D02*
X106723810Y-100144761D01*
X106723810Y-99954285D01*
X106700000Y-99906666D01*
X106676190Y-99882857D01*
X106628571Y-99859047D01*
X106557143Y-99859047D01*
X106509524Y-99882857D01*
X106485714Y-99906666D01*
X106461905Y-99954285D01*
X106461905Y-100144761D01*
X106223810Y-99644761D02*
X106557143Y-99644761D01*
X106723810Y-99644761D02*
X106700000Y-99668571D01*
X106676190Y-99644761D01*
X106700000Y-99620952D01*
X106723810Y-99644761D01*
X106676190Y-99644761D01*
X106557143Y-99406666D02*
X106223810Y-99406666D01*
X106509524Y-99406666D02*
X106533333Y-99382857D01*
X106557143Y-99335238D01*
X106557143Y-99263809D01*
X106533333Y-99216190D01*
X106485714Y-99192381D01*
X106223810Y-99192381D01*
X106223810Y-98311429D02*
X106223810Y-98597143D01*
X106223810Y-98454286D02*
X106723810Y-98454286D01*
X106652381Y-98501905D01*
X106604762Y-98549524D01*
X106580952Y-98597143D01*
X98389047Y-78050000D02*
X98341428Y-78073810D01*
X98270000Y-78073810D01*
X98198571Y-78050000D01*
X98150952Y-78002381D01*
X98127143Y-77954762D01*
X98103333Y-77859524D01*
X98103333Y-77788095D01*
X98127143Y-77692857D01*
X98150952Y-77645238D01*
X98198571Y-77597619D01*
X98270000Y-77573810D01*
X98317619Y-77573810D01*
X98389047Y-77597619D01*
X98412857Y-77621429D01*
X98412857Y-77788095D01*
X98317619Y-77788095D01*
X98627143Y-77573810D02*
X98627143Y-78073810D01*
X98912857Y-77573810D01*
X98912857Y-78073810D01*
X99150953Y-77573810D02*
X99150953Y-78073810D01*
X99270000Y-78073810D01*
X99341429Y-78050000D01*
X99389048Y-78002381D01*
X99412857Y-77954762D01*
X99436667Y-77859524D01*
X99436667Y-77788095D01*
X99412857Y-77692857D01*
X99389048Y-77645238D01*
X99341429Y-77597619D01*
X99270000Y-77573810D01*
X99150953Y-77573810D01*
X98159524Y-75423810D02*
X98159524Y-75923810D01*
X98278571Y-75923810D01*
X98350000Y-75900000D01*
X98397619Y-75852381D01*
X98421428Y-75804762D01*
X98445238Y-75709524D01*
X98445238Y-75638095D01*
X98421428Y-75542857D01*
X98397619Y-75495238D01*
X98350000Y-75447619D01*
X98278571Y-75423810D01*
X98159524Y-75423810D01*
X98659524Y-75614286D02*
X99040476Y-75614286D01*
X98850000Y-75423810D02*
X98850000Y-75804762D01*
X98149524Y-73553810D02*
X98149524Y-74053810D01*
X98268571Y-74053810D01*
X98340000Y-74030000D01*
X98387619Y-73982381D01*
X98411428Y-73934762D01*
X98435238Y-73839524D01*
X98435238Y-73768095D01*
X98411428Y-73672857D01*
X98387619Y-73625238D01*
X98340000Y-73577619D01*
X98268571Y-73553810D01*
X98149524Y-73553810D01*
X98649524Y-73744286D02*
X99030476Y-73744286D01*
X97998572Y-71813810D02*
X98165239Y-71313810D01*
X98331905Y-71813810D01*
X98498572Y-71313810D02*
X98498572Y-71813810D01*
X98498572Y-71623333D02*
X98546191Y-71647143D01*
X98641429Y-71647143D01*
X98689048Y-71623333D01*
X98712857Y-71599524D01*
X98736667Y-71551905D01*
X98736667Y-71409048D01*
X98712857Y-71361429D01*
X98689048Y-71337619D01*
X98641429Y-71313810D01*
X98546191Y-71313810D01*
X98498572Y-71337619D01*
X99165238Y-71647143D02*
X99165238Y-71313810D01*
X98950953Y-71647143D02*
X98950953Y-71385238D01*
X98974762Y-71337619D01*
X99022381Y-71313810D01*
X99093810Y-71313810D01*
X99141429Y-71337619D01*
X99165238Y-71361429D01*
X99379524Y-71337619D02*
X99427143Y-71313810D01*
X99522381Y-71313810D01*
X99570000Y-71337619D01*
X99593810Y-71385238D01*
X99593810Y-71409048D01*
X99570000Y-71456667D01*
X99522381Y-71480476D01*
X99450953Y-71480476D01*
X99403334Y-71504286D01*
X99379524Y-71551905D01*
X99379524Y-71575714D01*
X99403334Y-71623333D01*
X99450953Y-71647143D01*
X99522381Y-71647143D01*
X99570000Y-71623333D01*
X100151429Y-92055238D02*
X100151429Y-91721904D01*
X99627619Y-91579047D02*
X99627619Y-92055238D01*
X100627619Y-92055238D01*
X100627619Y-91579047D01*
X99675238Y-91198095D02*
X99627619Y-91055238D01*
X99627619Y-90817142D01*
X99675238Y-90721904D01*
X99722857Y-90674285D01*
X99818095Y-90626666D01*
X99913333Y-90626666D01*
X100008571Y-90674285D01*
X100056190Y-90721904D01*
X100103810Y-90817142D01*
X100151429Y-91007619D01*
X100199048Y-91102857D01*
X100246667Y-91150476D01*
X100341905Y-91198095D01*
X100437143Y-91198095D01*
X100532381Y-91150476D01*
X100580000Y-91102857D01*
X100627619Y-91007619D01*
X100627619Y-90769523D01*
X100580000Y-90626666D01*
X99627619Y-90198095D02*
X100627619Y-90198095D01*
X100627619Y-89817142D01*
X100580000Y-89721904D01*
X100532381Y-89674285D01*
X100437143Y-89626666D01*
X100294286Y-89626666D01*
X100199048Y-89674285D01*
X100151429Y-89721904D01*
X100103810Y-89817142D01*
X100103810Y-90198095D01*
X100199048Y-89055238D02*
X100246667Y-89150476D01*
X100294286Y-89198095D01*
X100389524Y-89245714D01*
X100437143Y-89245714D01*
X100532381Y-89198095D01*
X100580000Y-89150476D01*
X100627619Y-89055238D01*
X100627619Y-88864761D01*
X100580000Y-88769523D01*
X100532381Y-88721904D01*
X100437143Y-88674285D01*
X100389524Y-88674285D01*
X100294286Y-88721904D01*
X100246667Y-88769523D01*
X100199048Y-88864761D01*
X100199048Y-89055238D01*
X100151429Y-89150476D01*
X100103810Y-89198095D01*
X100008571Y-89245714D01*
X99818095Y-89245714D01*
X99722857Y-89198095D01*
X99675238Y-89150476D01*
X99627619Y-89055238D01*
X99627619Y-88864761D01*
X99675238Y-88769523D01*
X99722857Y-88721904D01*
X99818095Y-88674285D01*
X100008571Y-88674285D01*
X100103810Y-88721904D01*
X100151429Y-88769523D01*
X100199048Y-88864761D01*
X100532381Y-88293333D02*
X100580000Y-88245714D01*
X100627619Y-88150476D01*
X100627619Y-87912380D01*
X100580000Y-87817142D01*
X100532381Y-87769523D01*
X100437143Y-87721904D01*
X100341905Y-87721904D01*
X100199048Y-87769523D01*
X99627619Y-88340952D01*
X99627619Y-87721904D01*
X100627619Y-86864761D02*
X100627619Y-87055238D01*
X100580000Y-87150476D01*
X100532381Y-87198095D01*
X100389524Y-87293333D01*
X100199048Y-87340952D01*
X99818095Y-87340952D01*
X99722857Y-87293333D01*
X99675238Y-87245714D01*
X99627619Y-87150476D01*
X99627619Y-86959999D01*
X99675238Y-86864761D01*
X99722857Y-86817142D01*
X99818095Y-86769523D01*
X100056190Y-86769523D01*
X100151429Y-86817142D01*
X100199048Y-86864761D01*
X100246667Y-86959999D01*
X100246667Y-87150476D01*
X100199048Y-87245714D01*
X100151429Y-87293333D01*
X100056190Y-87340952D01*
X100627619Y-85912380D02*
X100627619Y-86102857D01*
X100580000Y-86198095D01*
X100532381Y-86245714D01*
X100389524Y-86340952D01*
X100199048Y-86388571D01*
X99818095Y-86388571D01*
X99722857Y-86340952D01*
X99675238Y-86293333D01*
X99627619Y-86198095D01*
X99627619Y-86007618D01*
X99675238Y-85912380D01*
X99722857Y-85864761D01*
X99818095Y-85817142D01*
X100056190Y-85817142D01*
X100151429Y-85864761D01*
X100199048Y-85912380D01*
X100246667Y-86007618D01*
X100246667Y-86198095D01*
X100199048Y-86293333D01*
X100151429Y-86340952D01*
X100056190Y-86388571D01*
D11*
X109393332Y-111101429D02*
X109393332Y-110568095D01*
X109202856Y-111406190D02*
X109012380Y-110834762D01*
X109507618Y-110834762D01*
X109698094Y-111101429D02*
X110002856Y-111101429D01*
X109812380Y-111368095D02*
X109812380Y-110682381D01*
X109850475Y-110606190D01*
X109926666Y-110568095D01*
X110002856Y-110568095D01*
X110269523Y-110568095D02*
X110269523Y-111368095D01*
X110612380Y-110568095D02*
X110612380Y-110987143D01*
X110574285Y-111063333D01*
X110498095Y-111101429D01*
X110383809Y-111101429D01*
X110307618Y-111063333D01*
X110269523Y-111025238D01*
X112060000Y-110568095D02*
X111793333Y-110949048D01*
X111602857Y-110568095D02*
X111602857Y-111368095D01*
X111907619Y-111368095D01*
X111983810Y-111330000D01*
X112021905Y-111291905D01*
X112060000Y-111215714D01*
X112060000Y-111101429D01*
X112021905Y-111025238D01*
X111983810Y-110987143D01*
X111907619Y-110949048D01*
X111602857Y-110949048D01*
X112707619Y-110606190D02*
X112631429Y-110568095D01*
X112479048Y-110568095D01*
X112402857Y-110606190D01*
X112364762Y-110682381D01*
X112364762Y-110987143D01*
X112402857Y-111063333D01*
X112479048Y-111101429D01*
X112631429Y-111101429D01*
X112707619Y-111063333D01*
X112745714Y-110987143D01*
X112745714Y-110910952D01*
X112364762Y-110834762D01*
X113012381Y-111101429D02*
X113202857Y-110568095D01*
X113393333Y-111101429D01*
X114802857Y-110949048D02*
X114764762Y-110987143D01*
X114688572Y-111025238D01*
X114612381Y-111025238D01*
X114536191Y-110987143D01*
X114498095Y-110949048D01*
X114460000Y-110872857D01*
X114460000Y-110796667D01*
X114498095Y-110720476D01*
X114536191Y-110682381D01*
X114612381Y-110644286D01*
X114688572Y-110644286D01*
X114764762Y-110682381D01*
X114802857Y-110720476D01*
X114802857Y-111025238D02*
X114802857Y-110720476D01*
X114840953Y-110682381D01*
X114879048Y-110682381D01*
X114955238Y-110720476D01*
X114993333Y-110796667D01*
X114993333Y-110987143D01*
X114917143Y-111101429D01*
X114802857Y-111177619D01*
X114650476Y-111215714D01*
X114498095Y-111177619D01*
X114383810Y-111101429D01*
X114307619Y-110987143D01*
X114269524Y-110834762D01*
X114307619Y-110682381D01*
X114383810Y-110568095D01*
X114498095Y-110491905D01*
X114650476Y-110453810D01*
X114802857Y-110491905D01*
X114917143Y-110568095D01*
X115907619Y-111291905D02*
X115945714Y-111330000D01*
X116021905Y-111368095D01*
X116212381Y-111368095D01*
X116288571Y-111330000D01*
X116326667Y-111291905D01*
X116364762Y-111215714D01*
X116364762Y-111139524D01*
X116326667Y-111025238D01*
X115869524Y-110568095D01*
X116364762Y-110568095D01*
X116745714Y-110568095D02*
X116898095Y-110568095D01*
X116974286Y-110606190D01*
X117012381Y-110644286D01*
X117088572Y-110758571D01*
X117126667Y-110910952D01*
X117126667Y-111215714D01*
X117088572Y-111291905D01*
X117050476Y-111330000D01*
X116974286Y-111368095D01*
X116821905Y-111368095D01*
X116745714Y-111330000D01*
X116707619Y-111291905D01*
X116669524Y-111215714D01*
X116669524Y-111025238D01*
X116707619Y-110949048D01*
X116745714Y-110910952D01*
X116821905Y-110872857D01*
X116974286Y-110872857D01*
X117050476Y-110910952D01*
X117088572Y-110949048D01*
X117126667Y-111025238D01*
X118307620Y-111368095D02*
X118307620Y-110796667D01*
X118269524Y-110682381D01*
X118193334Y-110606190D01*
X118079048Y-110568095D01*
X118002858Y-110568095D01*
X119031429Y-110568095D02*
X119031429Y-110987143D01*
X118993334Y-111063333D01*
X118917144Y-111101429D01*
X118764763Y-111101429D01*
X118688572Y-111063333D01*
X119031429Y-110606190D02*
X118955239Y-110568095D01*
X118764763Y-110568095D01*
X118688572Y-110606190D01*
X118650477Y-110682381D01*
X118650477Y-110758571D01*
X118688572Y-110834762D01*
X118764763Y-110872857D01*
X118955239Y-110872857D01*
X119031429Y-110910952D01*
X119412382Y-111101429D02*
X119412382Y-110568095D01*
X119412382Y-111025238D02*
X119450477Y-111063333D01*
X119526668Y-111101429D01*
X119640954Y-111101429D01*
X119717144Y-111063333D01*
X119755239Y-110987143D01*
X119755239Y-110568095D01*
X120783811Y-111368095D02*
X120707621Y-111215714D01*
X121545716Y-110568095D02*
X121088573Y-110568095D01*
X121317144Y-110568095D02*
X121317144Y-111368095D01*
X121240954Y-111253810D01*
X121164763Y-111177619D01*
X121088573Y-111139524D01*
X122002859Y-111025238D02*
X121926668Y-111063333D01*
X121888573Y-111101429D01*
X121850478Y-111177619D01*
X121850478Y-111215714D01*
X121888573Y-111291905D01*
X121926668Y-111330000D01*
X122002859Y-111368095D01*
X122155240Y-111368095D01*
X122231430Y-111330000D01*
X122269526Y-111291905D01*
X122307621Y-111215714D01*
X122307621Y-111177619D01*
X122269526Y-111101429D01*
X122231430Y-111063333D01*
X122155240Y-111025238D01*
X122002859Y-111025238D01*
X121926668Y-110987143D01*
X121888573Y-110949048D01*
X121850478Y-110872857D01*
X121850478Y-110720476D01*
X121888573Y-110644286D01*
X121926668Y-110606190D01*
X122002859Y-110568095D01*
X122155240Y-110568095D01*
X122231430Y-110606190D01*
X122269526Y-110644286D01*
X122307621Y-110720476D01*
X122307621Y-110872857D01*
X122269526Y-110949048D01*
X122231430Y-110987143D01*
X122155240Y-111025238D01*
D10*
X107560000Y-96890000D02*
X107560000Y-88770000D01*
X91320000Y-82770000D02*
X91320000Y-80650000D01*
X91320000Y-80650000D02*
X91490000Y-80650000D01*
X91320000Y-96890000D02*
X91320000Y-94770000D01*
X91320000Y-96890000D02*
X91490000Y-96890000D01*
X107560000Y-82770000D02*
X107560000Y-80650000D01*
X107560000Y-80650000D02*
X107390000Y-80650000D01*
X108759047Y-97276190D02*
X108759047Y-97680952D01*
X108735238Y-97728571D01*
X108711428Y-97752381D01*
X108663809Y-97776190D01*
X108568571Y-97776190D01*
X108520952Y-97752381D01*
X108497143Y-97728571D01*
X108473333Y-97680952D01*
X108473333Y-97276190D01*
X107973333Y-97776190D02*
X108259047Y-97776190D01*
X108116190Y-97776190D02*
X108116190Y-97276190D01*
X108163809Y-97347619D01*
X108211428Y-97395238D01*
X108259047Y-97419048D01*
X107520952Y-97276190D02*
X107759047Y-97276190D01*
X107782857Y-97514286D01*
X107759047Y-97490476D01*
X107711428Y-97466667D01*
X107592381Y-97466667D01*
X107544762Y-97490476D01*
X107520952Y-97514286D01*
X107497143Y-97561905D01*
X107497143Y-97680952D01*
X107520952Y-97728571D01*
X107544762Y-97752381D01*
X107592381Y-97776190D01*
X107711428Y-97776190D01*
X107759047Y-97752381D01*
X107782857Y-97728571D01*
M02*
