G04 #@! TF.FileFunction,Soldermask,Top*
%FSLAX46Y46*%
G04 Gerber Fmt 4.6, Leading zero omitted, Abs format (unit mm)*
G04 Created by KiCad (PCBNEW 4.0.7-e2-6376~58~ubuntu16.04.1) date Mon Jan 29 23:26:01 2018*
%MOMM*%
%LPD*%
G01*
G04 APERTURE LIST*
%ADD10C,0.100000*%
%ADD11R,1.350000X0.400000*%
%ADD12O,0.950000X1.250000*%
%ADD13O,1.550000X1.000000*%
%ADD14C,1.800000*%
%ADD15O,4.500000X2.000000*%
%ADD16R,1.700000X1.700000*%
%ADD17O,1.700000X1.700000*%
%ADD18R,0.500000X0.900000*%
%ADD19R,1.550000X0.600000*%
%ADD20R,0.600000X1.950000*%
%ADD21R,0.550000X1.500000*%
%ADD22R,1.500000X0.550000*%
%ADD23R,2.500000X2.550000*%
%ADD24R,2.550000X2.500000*%
%ADD25R,1.700000X1.300000*%
%ADD26R,1.300000X1.700000*%
%ADD27R,2.030000X1.140000*%
%ADD28C,3.800000*%
%ADD29R,0.900000X0.800000*%
%ADD30R,1.500000X0.600000*%
%ADD31R,1.060000X0.650000*%
%ADD32R,3.800000X2.000000*%
%ADD33R,1.500000X2.000000*%
%ADD34R,1.400000X0.300000*%
%ADD35R,2.500000X1.950000*%
%ADD36R,1.950000X2.500000*%
%ADD37R,0.800000X0.750000*%
%ADD38R,0.750000X0.800000*%
%ADD39R,0.900000X0.500000*%
%ADD40R,0.800000X0.800000*%
%ADD41C,1.500000*%
%ADD42R,2.000000X2.400000*%
G04 APERTURE END LIST*
D10*
D11*
X94980000Y-73560000D03*
X94980000Y-74210000D03*
X94980000Y-74860000D03*
X94980000Y-75510000D03*
X94980000Y-76160000D03*
D12*
X94980000Y-72360000D03*
X94980000Y-77360000D03*
D13*
X92280000Y-71360000D03*
X92280000Y-78360000D03*
D14*
X94440000Y-108520000D03*
X94440000Y-106020000D03*
X94440000Y-103520000D03*
D15*
X97740000Y-111020000D03*
X97740000Y-101020000D03*
D16*
X184910000Y-76000000D03*
D17*
X187450000Y-76000000D03*
X184910000Y-78540000D03*
X187450000Y-78540000D03*
X184910000Y-81080000D03*
X187450000Y-81080000D03*
X184910000Y-83620000D03*
X187450000Y-83620000D03*
X184910000Y-86160000D03*
X187450000Y-86160000D03*
X184910000Y-88700000D03*
X187450000Y-88700000D03*
X184910000Y-91240000D03*
X187450000Y-91240000D03*
D18*
X112960000Y-107010000D03*
X111460000Y-107010000D03*
D19*
X154370000Y-95595000D03*
X154370000Y-96865000D03*
X154370000Y-98135000D03*
X154370000Y-99405000D03*
X159770000Y-99405000D03*
X159770000Y-98135000D03*
X159770000Y-96865000D03*
X159770000Y-95595000D03*
D20*
X93995000Y-93510000D03*
X95265000Y-93510000D03*
X96535000Y-93510000D03*
X97805000Y-93510000D03*
X99075000Y-93510000D03*
X100345000Y-93510000D03*
X101615000Y-93510000D03*
X102885000Y-93510000D03*
X104155000Y-93510000D03*
X105425000Y-93510000D03*
X105425000Y-84110000D03*
X104155000Y-84110000D03*
X102885000Y-84110000D03*
X101615000Y-84110000D03*
X100345000Y-84110000D03*
X99075000Y-84110000D03*
X97805000Y-84110000D03*
X96535000Y-84110000D03*
X95265000Y-84110000D03*
X93995000Y-84110000D03*
D21*
X134060000Y-96020000D03*
X134860000Y-96020000D03*
X135660000Y-96020000D03*
X136460000Y-96020000D03*
X137260000Y-96020000D03*
X138060000Y-96020000D03*
X138860000Y-96020000D03*
X139660000Y-96020000D03*
X140460000Y-96020000D03*
X141260000Y-96020000D03*
X142060000Y-96020000D03*
D22*
X143760000Y-94320000D03*
X143760000Y-93520000D03*
X143760000Y-92720000D03*
X143760000Y-91920000D03*
X143760000Y-91120000D03*
X143760000Y-90320000D03*
X143760000Y-89520000D03*
X143760000Y-88720000D03*
X143760000Y-87920000D03*
X143760000Y-87120000D03*
X143760000Y-86320000D03*
D21*
X142060000Y-84620000D03*
X141260000Y-84620000D03*
X140460000Y-84620000D03*
X139660000Y-84620000D03*
X138860000Y-84620000D03*
X138060000Y-84620000D03*
X137260000Y-84620000D03*
X136460000Y-84620000D03*
X135660000Y-84620000D03*
X134860000Y-84620000D03*
X134060000Y-84620000D03*
D22*
X132360000Y-86320000D03*
X132360000Y-87120000D03*
X132360000Y-87920000D03*
X132360000Y-88720000D03*
X132360000Y-89520000D03*
X132360000Y-90320000D03*
X132360000Y-91120000D03*
X132360000Y-91920000D03*
X132360000Y-92720000D03*
X132360000Y-93520000D03*
X132360000Y-94320000D03*
D23*
X109950000Y-75725000D03*
X109950000Y-70675000D03*
D24*
X113425000Y-84950000D03*
X108375000Y-84950000D03*
X134325000Y-71200000D03*
X129275000Y-71200000D03*
X112475000Y-65200000D03*
X117525000Y-65200000D03*
D25*
X118050000Y-86600000D03*
X118050000Y-83100000D03*
D26*
X140980000Y-67670000D03*
X144480000Y-67670000D03*
D27*
X96300000Y-68600000D03*
X96300000Y-66200000D03*
D28*
X104880000Y-111020000D03*
X106150000Y-62770000D03*
X187420000Y-111010000D03*
D29*
X174800000Y-73870000D03*
X174800000Y-75770000D03*
X176800000Y-74820000D03*
D30*
X131160000Y-100040000D03*
X131160000Y-101310000D03*
X131160000Y-102580000D03*
X131160000Y-103850000D03*
X131160000Y-105120000D03*
X131160000Y-106390000D03*
X131160000Y-107660000D03*
X136560000Y-107660000D03*
X136560000Y-106390000D03*
X136560000Y-105120000D03*
X136560000Y-103850000D03*
X136560000Y-102580000D03*
X136560000Y-101310000D03*
X136560000Y-100040000D03*
D31*
X105550000Y-78850000D03*
X105550000Y-79800000D03*
X105550000Y-80750000D03*
X107750000Y-80750000D03*
X107750000Y-78850000D03*
X107750000Y-79800000D03*
D19*
X125300000Y-73855000D03*
X125300000Y-72585000D03*
X125300000Y-71315000D03*
X125300000Y-70045000D03*
X119900000Y-70045000D03*
X119900000Y-71315000D03*
X119900000Y-72585000D03*
X119900000Y-73855000D03*
D32*
X103250000Y-66500000D03*
D33*
X103250000Y-72800000D03*
X105550000Y-72800000D03*
X100950000Y-72800000D03*
D30*
X166050000Y-66240000D03*
X166050000Y-67510000D03*
X166050000Y-68780000D03*
X166050000Y-70050000D03*
X166050000Y-71320000D03*
X166050000Y-72590000D03*
X166050000Y-73860000D03*
X171450000Y-73860000D03*
X171450000Y-72590000D03*
X171450000Y-71320000D03*
X171450000Y-70050000D03*
X171450000Y-68780000D03*
X171450000Y-67510000D03*
X171450000Y-66240000D03*
D19*
X164370000Y-87625000D03*
X164370000Y-88895000D03*
X164370000Y-90165000D03*
X164370000Y-91435000D03*
X169770000Y-91435000D03*
X169770000Y-90165000D03*
X169770000Y-88895000D03*
X169770000Y-87625000D03*
D34*
X154150000Y-69450000D03*
X154150000Y-69950000D03*
X154150000Y-70450000D03*
X154150000Y-70950000D03*
X154150000Y-71450000D03*
X158550000Y-71450000D03*
X158550000Y-70950000D03*
X158550000Y-70450000D03*
X158550000Y-69950000D03*
X158550000Y-69450000D03*
D19*
X173410000Y-87615000D03*
X173410000Y-88885000D03*
X173410000Y-90155000D03*
X173410000Y-91425000D03*
X178810000Y-91425000D03*
X178810000Y-90155000D03*
X178810000Y-88885000D03*
X178810000Y-87615000D03*
X164410000Y-95595000D03*
X164410000Y-96865000D03*
X164410000Y-98135000D03*
X164410000Y-99405000D03*
X169810000Y-99405000D03*
X169810000Y-98135000D03*
X169810000Y-96865000D03*
X169810000Y-95595000D03*
X122060000Y-103155000D03*
X122060000Y-101885000D03*
X122060000Y-100615000D03*
X122060000Y-99345000D03*
X116660000Y-99345000D03*
X116660000Y-100615000D03*
X116660000Y-101885000D03*
X116660000Y-103155000D03*
X153130000Y-78885000D03*
X153130000Y-80155000D03*
X153130000Y-81425000D03*
X153130000Y-82695000D03*
X158530000Y-82695000D03*
X158530000Y-81425000D03*
X158530000Y-80155000D03*
X158530000Y-78885000D03*
D29*
X118300000Y-80750000D03*
X118300000Y-78850000D03*
X116300000Y-79800000D03*
X136230000Y-67660000D03*
X136230000Y-65760000D03*
X134230000Y-66710000D03*
D16*
X125370000Y-111070000D03*
D17*
X127910000Y-111070000D03*
X130450000Y-111070000D03*
D35*
X115350000Y-75925000D03*
X115350000Y-72875000D03*
D36*
X127825000Y-65200000D03*
X124775000Y-65200000D03*
D28*
X181090000Y-62780000D03*
D16*
X115820000Y-94340000D03*
D17*
X118360000Y-94340000D03*
X120900000Y-94340000D03*
X123440000Y-94340000D03*
X125980000Y-94340000D03*
X128520000Y-94340000D03*
D16*
X166470000Y-111060000D03*
D17*
X163930000Y-111060000D03*
X161390000Y-111060000D03*
X158850000Y-111060000D03*
X156310000Y-111060000D03*
X153770000Y-111060000D03*
X151230000Y-111060000D03*
X148690000Y-111060000D03*
D16*
X182070000Y-111040000D03*
D17*
X179530000Y-111040000D03*
X176990000Y-111040000D03*
X174450000Y-111040000D03*
X171910000Y-111040000D03*
D16*
X176800000Y-62750000D03*
D17*
X174260000Y-62750000D03*
X171720000Y-62750000D03*
X169180000Y-62750000D03*
X166640000Y-62750000D03*
X164100000Y-62750000D03*
X161560000Y-62750000D03*
X159020000Y-62750000D03*
D16*
X135820000Y-111070000D03*
D17*
X138360000Y-111070000D03*
X140900000Y-111070000D03*
X143440000Y-111070000D03*
D16*
X184900000Y-66450000D03*
D17*
X187440000Y-66450000D03*
X184900000Y-68990000D03*
X187440000Y-68990000D03*
X184900000Y-71530000D03*
X187440000Y-71530000D03*
D16*
X146450000Y-62750000D03*
D17*
X148990000Y-62750000D03*
X151530000Y-62750000D03*
X154070000Y-62750000D03*
D16*
X184910000Y-95750000D03*
D17*
X187450000Y-95750000D03*
X184910000Y-98290000D03*
X187450000Y-98290000D03*
X184910000Y-100830000D03*
X187450000Y-100830000D03*
X184910000Y-103370000D03*
X187450000Y-103370000D03*
D16*
X133690000Y-62750000D03*
D17*
X136230000Y-62750000D03*
X138770000Y-62750000D03*
X141310000Y-62750000D03*
D37*
X94000000Y-81970000D03*
X92500000Y-81970000D03*
X92500000Y-80240000D03*
X94000000Y-80240000D03*
D38*
X125950000Y-89550000D03*
X125950000Y-91050000D03*
X92190000Y-86260000D03*
X92190000Y-87760000D03*
D37*
X100840000Y-107210000D03*
X102340000Y-107210000D03*
X105620000Y-104530000D03*
X104120000Y-104530000D03*
D38*
X132520000Y-76100000D03*
X132520000Y-74600000D03*
X128170000Y-106160000D03*
X128170000Y-107660000D03*
X135450000Y-76100000D03*
X135450000Y-74600000D03*
D37*
X138810000Y-81630000D03*
X137310000Y-81630000D03*
X140430000Y-98840000D03*
X141930000Y-98840000D03*
X148300000Y-88620000D03*
X149800000Y-88620000D03*
X97950000Y-64100000D03*
X99450000Y-64100000D03*
X101420000Y-64110000D03*
X102920000Y-64110000D03*
X167670000Y-93540000D03*
X169170000Y-93540000D03*
D38*
X159610000Y-88070000D03*
X159610000Y-86570000D03*
D37*
X155840000Y-67300000D03*
X157340000Y-67300000D03*
X165220000Y-84710000D03*
X163720000Y-84710000D03*
X169780000Y-84720000D03*
X168280000Y-84720000D03*
X163000000Y-67300000D03*
X161500000Y-67300000D03*
X154370000Y-101310000D03*
X155870000Y-101310000D03*
D38*
X151610000Y-96860000D03*
X151610000Y-95360000D03*
D37*
X111480000Y-101880000D03*
X112980000Y-101880000D03*
D38*
X162170000Y-94890000D03*
X162170000Y-93390000D03*
D37*
X176300000Y-71330000D03*
X174800000Y-71330000D03*
D38*
X122130000Y-107790000D03*
X122130000Y-106290000D03*
D37*
X155830000Y-84740000D03*
X157330000Y-84740000D03*
X116390000Y-97630000D03*
X114890000Y-97630000D03*
D38*
X116430000Y-106230000D03*
X116430000Y-107730000D03*
D37*
X159830000Y-76720000D03*
X158330000Y-76720000D03*
X123770000Y-97740000D03*
X122270000Y-97740000D03*
D38*
X175340000Y-95590000D03*
X175340000Y-94090000D03*
D37*
X107800000Y-107010000D03*
X109300000Y-107010000D03*
D38*
X151610000Y-101350000D03*
X151610000Y-99850000D03*
D37*
X163310000Y-76730000D03*
X161810000Y-76730000D03*
D18*
X137600000Y-72400000D03*
X139100000Y-72400000D03*
X131670000Y-84330000D03*
X130170000Y-84330000D03*
X131670000Y-82240000D03*
X130170000Y-82240000D03*
X113670000Y-79210000D03*
X112170000Y-79210000D03*
X112170000Y-81780000D03*
X113670000Y-81780000D03*
D39*
X174460000Y-109130000D03*
X174460000Y-107630000D03*
X177000000Y-109130000D03*
X177000000Y-107630000D03*
X179540000Y-109160000D03*
X179540000Y-107660000D03*
X182060000Y-109160000D03*
X182060000Y-107660000D03*
X143070000Y-80100000D03*
X143070000Y-78600000D03*
X131860000Y-68210000D03*
X131860000Y-66710000D03*
X143040000Y-74640000D03*
X143040000Y-76140000D03*
D18*
X121750000Y-65200000D03*
X120250000Y-65200000D03*
X148200000Y-85140000D03*
X149700000Y-85140000D03*
X112940000Y-104530000D03*
X111440000Y-104530000D03*
D39*
X146210000Y-78590000D03*
X146210000Y-80090000D03*
X146210000Y-76140000D03*
X146210000Y-74640000D03*
D18*
X155840000Y-65140000D03*
X157340000Y-65140000D03*
X161480000Y-65140000D03*
X162980000Y-65140000D03*
D39*
X161750000Y-86570000D03*
X161750000Y-88070000D03*
X173390000Y-94080000D03*
X173390000Y-95580000D03*
D18*
X176290000Y-81220000D03*
X174790000Y-81220000D03*
X161140000Y-84710000D03*
X159640000Y-84710000D03*
X176290000Y-68930000D03*
X174790000Y-68930000D03*
X176350000Y-66230000D03*
X174850000Y-66230000D03*
X151020000Y-70950000D03*
X149520000Y-70950000D03*
X149740000Y-96260000D03*
X148240000Y-96260000D03*
X149710000Y-101350000D03*
X148210000Y-101350000D03*
X148220000Y-98800000D03*
X149720000Y-98800000D03*
D39*
X146200000Y-83210000D03*
X146200000Y-81710000D03*
X148950000Y-83210000D03*
X148950000Y-81710000D03*
D18*
X152050000Y-84700000D03*
X153550000Y-84700000D03*
D39*
X155960000Y-92500000D03*
X155960000Y-94000000D03*
D18*
X158250000Y-74290000D03*
X159750000Y-74290000D03*
X176300000Y-78230000D03*
X174800000Y-78230000D03*
X161590000Y-74290000D03*
X163090000Y-74290000D03*
D39*
X149050000Y-76140000D03*
X149050000Y-74640000D03*
D18*
X165350000Y-76730000D03*
X166850000Y-76730000D03*
X109300000Y-109850000D03*
X107800000Y-109850000D03*
X109190000Y-101870000D03*
X107690000Y-101870000D03*
X107690000Y-104520000D03*
X109190000Y-104520000D03*
X100830000Y-104530000D03*
X102330000Y-104530000D03*
X112960000Y-109850000D03*
X111460000Y-109850000D03*
D39*
X149020000Y-78590000D03*
X149020000Y-80090000D03*
X161425000Y-82425000D03*
X161425000Y-80925000D03*
X163820000Y-82420000D03*
X163820000Y-80920000D03*
D18*
X148250000Y-93880000D03*
X149750000Y-93880000D03*
X149760000Y-91300000D03*
X148260000Y-91300000D03*
X95060000Y-62470000D03*
X96560000Y-62470000D03*
X109170000Y-88390000D03*
X107670000Y-88390000D03*
X109210000Y-91380000D03*
X107710000Y-91380000D03*
X113210000Y-88410000D03*
X111710000Y-88410000D03*
X113210000Y-91390000D03*
X111710000Y-91390000D03*
D16*
X124440000Y-85720000D03*
D17*
X121900000Y-85720000D03*
X124440000Y-83180000D03*
X121900000Y-83180000D03*
X124440000Y-80640000D03*
X121900000Y-80640000D03*
X124440000Y-78100000D03*
X121900000Y-78100000D03*
D40*
X153380000Y-91310000D03*
X153380000Y-89710000D03*
X93730000Y-65400000D03*
X93730000Y-67000000D03*
D39*
X92200000Y-89970000D03*
X92200000Y-91470000D03*
D41*
X113090000Y-94310000D03*
X110440000Y-94270000D03*
X127550000Y-100040000D03*
X107880000Y-94240000D03*
D38*
X93760000Y-98390000D03*
X93760000Y-96890000D03*
X102840000Y-98390000D03*
X102840000Y-96890000D03*
D42*
X132530000Y-79020000D03*
X136230000Y-79020000D03*
X96420000Y-97700000D03*
X100120000Y-97700000D03*
D39*
X143010000Y-81710000D03*
X143010000Y-83210000D03*
M02*
