G04 #@! TF.FileFunction,Copper,L1,Top,Signal*
%FSLAX46Y46*%
G04 Gerber Fmt 4.6, Leading zero omitted, Abs format (unit mm)*
G04 Created by KiCad (PCBNEW 4.0.7-e2-6376~58~ubuntu16.04.1) date Fri Feb 23 10:11:40 2018*
%MOMM*%
%LPD*%
G01*
G04 APERTURE LIST*
%ADD10C,0.100000*%
%ADD11R,1.350000X0.400000*%
%ADD12O,0.950000X1.250000*%
%ADD13O,1.550000X1.000000*%
%ADD14C,1.800000*%
%ADD15O,4.500000X2.000000*%
%ADD16R,1.700000X1.700000*%
%ADD17O,1.700000X1.700000*%
%ADD18R,0.500000X0.900000*%
%ADD19R,1.550000X0.600000*%
%ADD20R,0.600000X1.950000*%
%ADD21R,0.550000X1.500000*%
%ADD22R,1.500000X0.550000*%
%ADD23R,2.500000X2.550000*%
%ADD24R,2.550000X2.500000*%
%ADD25R,1.700000X1.300000*%
%ADD26R,2.030000X1.140000*%
%ADD27C,3.800000*%
%ADD28R,0.900000X0.800000*%
%ADD29R,1.500000X0.600000*%
%ADD30R,1.060000X0.650000*%
%ADD31R,3.800000X2.000000*%
%ADD32R,1.500000X2.000000*%
%ADD33R,1.400000X0.300000*%
%ADD34R,2.500000X1.950000*%
%ADD35R,1.950000X2.500000*%
%ADD36R,0.800000X0.750000*%
%ADD37R,0.750000X0.800000*%
%ADD38R,0.900000X0.500000*%
%ADD39C,1.500000*%
%ADD40R,2.000000X2.400000*%
%ADD41R,1.200000X1.200000*%
%ADD42C,0.914400*%
%ADD43C,0.762000*%
%ADD44C,0.406400*%
%ADD45C,0.304800*%
%ADD46C,0.508000*%
%ADD47C,0.254000*%
%ADD48C,0.351000*%
G04 APERTURE END LIST*
D10*
X106910001Y-90066190D02*
X106910001Y-89566190D01*
X107029048Y-89566190D01*
X107100477Y-89590000D01*
X107148096Y-89637619D01*
X107171905Y-89685238D01*
X107195715Y-89780476D01*
X107195715Y-89851905D01*
X107171905Y-89947143D01*
X107148096Y-89994762D01*
X107100477Y-90042381D01*
X107029048Y-90066190D01*
X106910001Y-90066190D01*
X107600477Y-90042381D02*
X107552858Y-90066190D01*
X107457620Y-90066190D01*
X107410001Y-90042381D01*
X107386191Y-89994762D01*
X107386191Y-89804286D01*
X107410001Y-89756667D01*
X107457620Y-89732857D01*
X107552858Y-89732857D01*
X107600477Y-89756667D01*
X107624286Y-89804286D01*
X107624286Y-89851905D01*
X107386191Y-89899524D01*
X107814762Y-90042381D02*
X107862381Y-90066190D01*
X107957619Y-90066190D01*
X108005238Y-90042381D01*
X108029048Y-89994762D01*
X108029048Y-89970952D01*
X108005238Y-89923333D01*
X107957619Y-89899524D01*
X107886191Y-89899524D01*
X107838572Y-89875714D01*
X107814762Y-89828095D01*
X107814762Y-89804286D01*
X107838572Y-89756667D01*
X107886191Y-89732857D01*
X107957619Y-89732857D01*
X108005238Y-89756667D01*
X108243334Y-90066190D02*
X108243334Y-89732857D01*
X108243334Y-89566190D02*
X108219524Y-89590000D01*
X108243334Y-89613810D01*
X108267143Y-89590000D01*
X108243334Y-89566190D01*
X108243334Y-89613810D01*
X108695714Y-89732857D02*
X108695714Y-90137619D01*
X108671905Y-90185238D01*
X108648095Y-90209048D01*
X108600476Y-90232857D01*
X108529048Y-90232857D01*
X108481429Y-90209048D01*
X108695714Y-90042381D02*
X108648095Y-90066190D01*
X108552857Y-90066190D01*
X108505238Y-90042381D01*
X108481429Y-90018571D01*
X108457619Y-89970952D01*
X108457619Y-89828095D01*
X108481429Y-89780476D01*
X108505238Y-89756667D01*
X108552857Y-89732857D01*
X108648095Y-89732857D01*
X108695714Y-89756667D01*
X108933810Y-89732857D02*
X108933810Y-90066190D01*
X108933810Y-89780476D02*
X108957619Y-89756667D01*
X109005238Y-89732857D01*
X109076667Y-89732857D01*
X109124286Y-89756667D01*
X109148095Y-89804286D01*
X109148095Y-90066190D01*
X109576667Y-90042381D02*
X109529048Y-90066190D01*
X109433810Y-90066190D01*
X109386191Y-90042381D01*
X109362381Y-89994762D01*
X109362381Y-89804286D01*
X109386191Y-89756667D01*
X109433810Y-89732857D01*
X109529048Y-89732857D01*
X109576667Y-89756667D01*
X109600476Y-89804286D01*
X109600476Y-89851905D01*
X109362381Y-89899524D01*
X110029047Y-90066190D02*
X110029047Y-89566190D01*
X110029047Y-90042381D02*
X109981428Y-90066190D01*
X109886190Y-90066190D01*
X109838571Y-90042381D01*
X109814762Y-90018571D01*
X109790952Y-89970952D01*
X109790952Y-89828095D01*
X109814762Y-89780476D01*
X109838571Y-89756667D01*
X109886190Y-89732857D01*
X109981428Y-89732857D01*
X110029047Y-89756667D01*
X110648095Y-90066190D02*
X110648095Y-89566190D01*
X110648095Y-89756667D02*
X110695714Y-89732857D01*
X110790952Y-89732857D01*
X110838571Y-89756667D01*
X110862380Y-89780476D01*
X110886190Y-89828095D01*
X110886190Y-89970952D01*
X110862380Y-90018571D01*
X110838571Y-90042381D01*
X110790952Y-90066190D01*
X110695714Y-90066190D01*
X110648095Y-90042381D01*
X111052857Y-89732857D02*
X111171904Y-90066190D01*
X111290952Y-89732857D02*
X111171904Y-90066190D01*
X111124285Y-90185238D01*
X111100476Y-90209048D01*
X111052857Y-90232857D01*
X111862380Y-90066190D02*
X111862380Y-89566190D01*
X112052856Y-89566190D01*
X112100475Y-89590000D01*
X112124284Y-89613810D01*
X112148094Y-89661429D01*
X112148094Y-89732857D01*
X112124284Y-89780476D01*
X112100475Y-89804286D01*
X112052856Y-89828095D01*
X111862380Y-89828095D01*
X112576665Y-90066190D02*
X112576665Y-89804286D01*
X112552856Y-89756667D01*
X112505237Y-89732857D01*
X112409999Y-89732857D01*
X112362380Y-89756667D01*
X112576665Y-90042381D02*
X112529046Y-90066190D01*
X112409999Y-90066190D01*
X112362380Y-90042381D01*
X112338570Y-89994762D01*
X112338570Y-89947143D01*
X112362380Y-89899524D01*
X112409999Y-89875714D01*
X112529046Y-89875714D01*
X112576665Y-89851905D01*
X113029046Y-90066190D02*
X113029046Y-89566190D01*
X113029046Y-90042381D02*
X112981427Y-90066190D01*
X112886189Y-90066190D01*
X112838570Y-90042381D01*
X112814761Y-90018571D01*
X112790951Y-89970952D01*
X112790951Y-89828095D01*
X112814761Y-89780476D01*
X112838570Y-89756667D01*
X112886189Y-89732857D01*
X112981427Y-89732857D01*
X113029046Y-89756667D01*
X113267142Y-90066190D02*
X113267142Y-89732857D01*
X113267142Y-89780476D02*
X113290951Y-89756667D01*
X113338570Y-89732857D01*
X113409999Y-89732857D01*
X113457618Y-89756667D01*
X113481427Y-89804286D01*
X113481427Y-90066190D01*
X113481427Y-89804286D02*
X113505237Y-89756667D01*
X113552856Y-89732857D01*
X113624284Y-89732857D01*
X113671904Y-89756667D01*
X113695713Y-89804286D01*
X113695713Y-90066190D01*
X114148094Y-90066190D02*
X114148094Y-89804286D01*
X114124285Y-89756667D01*
X114076666Y-89732857D01*
X113981428Y-89732857D01*
X113933809Y-89756667D01*
X114148094Y-90042381D02*
X114100475Y-90066190D01*
X113981428Y-90066190D01*
X113933809Y-90042381D01*
X113909999Y-89994762D01*
X113909999Y-89947143D01*
X113933809Y-89899524D01*
X113981428Y-89875714D01*
X114100475Y-89875714D01*
X114148094Y-89851905D01*
X114457618Y-90066190D02*
X114409999Y-90042381D01*
X114386190Y-89994762D01*
X114386190Y-89566190D01*
D11*
X94980000Y-73560000D03*
X94980000Y-74210000D03*
X94980000Y-74860000D03*
X94980000Y-75510000D03*
X94980000Y-76160000D03*
D12*
X94980000Y-72360000D03*
X94980000Y-77360000D03*
D13*
X92280000Y-71360000D03*
X92280000Y-78360000D03*
D14*
X94450000Y-107350000D03*
X94450000Y-104850000D03*
X94450000Y-102350000D03*
D15*
X97750000Y-109850000D03*
X97750000Y-99850000D03*
D16*
X184910000Y-76000000D03*
D17*
X187450000Y-76000000D03*
X184910000Y-78540000D03*
X187450000Y-78540000D03*
X184910000Y-81080000D03*
X187450000Y-81080000D03*
X184910000Y-83620000D03*
X187450000Y-83620000D03*
X184910000Y-86160000D03*
X187450000Y-86160000D03*
X184910000Y-88700000D03*
X187450000Y-88700000D03*
X184910000Y-91240000D03*
X187450000Y-91240000D03*
D18*
X112960000Y-107010000D03*
X111460000Y-107010000D03*
D19*
X154370000Y-95595000D03*
X154370000Y-96865000D03*
X154370000Y-98135000D03*
X154370000Y-99405000D03*
X159770000Y-99405000D03*
X159770000Y-98135000D03*
X159770000Y-96865000D03*
X159770000Y-95595000D03*
D20*
X93995000Y-93510000D03*
X95265000Y-93510000D03*
X96535000Y-93510000D03*
X97805000Y-93510000D03*
X99075000Y-93510000D03*
X100345000Y-93510000D03*
X101615000Y-93510000D03*
X102885000Y-93510000D03*
X104155000Y-93510000D03*
X105425000Y-93510000D03*
X105425000Y-84110000D03*
X104155000Y-84110000D03*
X102885000Y-84110000D03*
X101615000Y-84110000D03*
X100345000Y-84110000D03*
X99075000Y-84110000D03*
X97805000Y-84110000D03*
X96535000Y-84110000D03*
X95265000Y-84110000D03*
X93995000Y-84110000D03*
D21*
X134060000Y-96020000D03*
X134860000Y-96020000D03*
X135660000Y-96020000D03*
X136460000Y-96020000D03*
X137260000Y-96020000D03*
X138060000Y-96020000D03*
X138860000Y-96020000D03*
X139660000Y-96020000D03*
X140460000Y-96020000D03*
X141260000Y-96020000D03*
X142060000Y-96020000D03*
D22*
X143760000Y-94320000D03*
X143760000Y-93520000D03*
X143760000Y-92720000D03*
X143760000Y-91920000D03*
X143760000Y-91120000D03*
X143760000Y-90320000D03*
X143760000Y-89520000D03*
X143760000Y-88720000D03*
X143760000Y-87920000D03*
X143760000Y-87120000D03*
X143760000Y-86320000D03*
D21*
X142060000Y-84620000D03*
X141260000Y-84620000D03*
X140460000Y-84620000D03*
X139660000Y-84620000D03*
X138860000Y-84620000D03*
X138060000Y-84620000D03*
X137260000Y-84620000D03*
X136460000Y-84620000D03*
X135660000Y-84620000D03*
X134860000Y-84620000D03*
X134060000Y-84620000D03*
D22*
X132360000Y-86320000D03*
X132360000Y-87120000D03*
X132360000Y-87920000D03*
X132360000Y-88720000D03*
X132360000Y-89520000D03*
X132360000Y-90320000D03*
X132360000Y-91120000D03*
X132360000Y-91920000D03*
X132360000Y-92720000D03*
X132360000Y-93520000D03*
X132360000Y-94320000D03*
D23*
X109950000Y-75725000D03*
X109950000Y-70675000D03*
D24*
X113425000Y-84950000D03*
X108375000Y-84950000D03*
X134325000Y-71200000D03*
X129275000Y-71200000D03*
X112475000Y-65200000D03*
X117525000Y-65200000D03*
D25*
X118050000Y-86600000D03*
X118050000Y-83100000D03*
X142380000Y-67670000D03*
X142380000Y-71170000D03*
D26*
X96300000Y-68600000D03*
X96300000Y-66200000D03*
D27*
X104880000Y-111020000D03*
X106150000Y-62770000D03*
X187420000Y-111010000D03*
D28*
X174800000Y-73870000D03*
X174800000Y-75770000D03*
X176800000Y-74820000D03*
D29*
X131160000Y-100040000D03*
X131160000Y-101310000D03*
X131160000Y-102580000D03*
X131160000Y-103850000D03*
X131160000Y-105120000D03*
X131160000Y-106390000D03*
X131160000Y-107660000D03*
X136560000Y-107660000D03*
X136560000Y-106390000D03*
X136560000Y-105120000D03*
X136560000Y-103850000D03*
X136560000Y-102580000D03*
X136560000Y-101310000D03*
X136560000Y-100040000D03*
D30*
X105550000Y-78850000D03*
X105550000Y-79800000D03*
X105550000Y-80750000D03*
X107750000Y-80750000D03*
X107750000Y-78850000D03*
X107750000Y-79800000D03*
D19*
X125300000Y-73855000D03*
X125300000Y-72585000D03*
X125300000Y-71315000D03*
X125300000Y-70045000D03*
X119900000Y-70045000D03*
X119900000Y-71315000D03*
X119900000Y-72585000D03*
X119900000Y-73855000D03*
D31*
X103250000Y-66500000D03*
D32*
X103250000Y-72800000D03*
X105550000Y-72800000D03*
X100950000Y-72800000D03*
D29*
X166050000Y-66240000D03*
X166050000Y-67510000D03*
X166050000Y-68780000D03*
X166050000Y-70050000D03*
X166050000Y-71320000D03*
X166050000Y-72590000D03*
X166050000Y-73860000D03*
X171450000Y-73860000D03*
X171450000Y-72590000D03*
X171450000Y-71320000D03*
X171450000Y-70050000D03*
X171450000Y-68780000D03*
X171450000Y-67510000D03*
X171450000Y-66240000D03*
D19*
X164370000Y-87625000D03*
X164370000Y-88895000D03*
X164370000Y-90165000D03*
X164370000Y-91435000D03*
X169770000Y-91435000D03*
X169770000Y-90165000D03*
X169770000Y-88895000D03*
X169770000Y-87625000D03*
D33*
X154150000Y-69450000D03*
X154150000Y-69950000D03*
X154150000Y-70450000D03*
X154150000Y-70950000D03*
X154150000Y-71450000D03*
X158550000Y-71450000D03*
X158550000Y-70950000D03*
X158550000Y-70450000D03*
X158550000Y-69950000D03*
X158550000Y-69450000D03*
D19*
X173410000Y-87615000D03*
X173410000Y-88885000D03*
X173410000Y-90155000D03*
X173410000Y-91425000D03*
X178810000Y-91425000D03*
X178810000Y-90155000D03*
X178810000Y-88885000D03*
X178810000Y-87615000D03*
X164410000Y-95595000D03*
X164410000Y-96865000D03*
X164410000Y-98135000D03*
X164410000Y-99405000D03*
X169810000Y-99405000D03*
X169810000Y-98135000D03*
X169810000Y-96865000D03*
X169810000Y-95595000D03*
X122060000Y-103155000D03*
X122060000Y-101885000D03*
X122060000Y-100615000D03*
X122060000Y-99345000D03*
X116660000Y-99345000D03*
X116660000Y-100615000D03*
X116660000Y-101885000D03*
X116660000Y-103155000D03*
X153130000Y-78885000D03*
X153130000Y-80155000D03*
X153130000Y-81425000D03*
X153130000Y-82695000D03*
X158530000Y-82695000D03*
X158530000Y-81425000D03*
X158530000Y-80155000D03*
X158530000Y-78885000D03*
D28*
X118300000Y-80750000D03*
X118300000Y-78850000D03*
X116300000Y-79800000D03*
X136230000Y-67660000D03*
X136230000Y-65760000D03*
X134230000Y-66710000D03*
D16*
X125370000Y-111070000D03*
D17*
X127910000Y-111070000D03*
X130450000Y-111070000D03*
D34*
X115350000Y-75925000D03*
X115350000Y-72875000D03*
D35*
X127825000Y-65200000D03*
X124775000Y-65200000D03*
D27*
X181090000Y-62780000D03*
D16*
X115820000Y-94340000D03*
D17*
X118360000Y-94340000D03*
X120900000Y-94340000D03*
X123440000Y-94340000D03*
X125980000Y-94340000D03*
X128520000Y-94340000D03*
D16*
X166470000Y-111060000D03*
D17*
X163930000Y-111060000D03*
X161390000Y-111060000D03*
X158850000Y-111060000D03*
X156310000Y-111060000D03*
X153770000Y-111060000D03*
X151230000Y-111060000D03*
X148690000Y-111060000D03*
D16*
X182070000Y-111040000D03*
D17*
X179530000Y-111040000D03*
X176990000Y-111040000D03*
X174450000Y-111040000D03*
X171910000Y-111040000D03*
D16*
X176800000Y-62750000D03*
D17*
X174260000Y-62750000D03*
X171720000Y-62750000D03*
X169180000Y-62750000D03*
X166640000Y-62750000D03*
X164100000Y-62750000D03*
X161560000Y-62750000D03*
X159020000Y-62750000D03*
D16*
X135820000Y-111070000D03*
D17*
X138360000Y-111070000D03*
X140900000Y-111070000D03*
X143440000Y-111070000D03*
D16*
X184900000Y-66450000D03*
D17*
X187440000Y-66450000D03*
X184900000Y-68990000D03*
X187440000Y-68990000D03*
X184900000Y-71530000D03*
X187440000Y-71530000D03*
D16*
X146450000Y-62750000D03*
D17*
X148990000Y-62750000D03*
X151530000Y-62750000D03*
X154070000Y-62750000D03*
D16*
X184910000Y-95750000D03*
D17*
X187450000Y-95750000D03*
X184910000Y-98290000D03*
X187450000Y-98290000D03*
X184910000Y-100830000D03*
X187450000Y-100830000D03*
X184910000Y-103370000D03*
X187450000Y-103370000D03*
D16*
X133690000Y-62750000D03*
D17*
X136230000Y-62750000D03*
X138770000Y-62750000D03*
X141310000Y-62750000D03*
D36*
X94000000Y-81970000D03*
X92500000Y-81970000D03*
X92500000Y-80240000D03*
X94000000Y-80240000D03*
D37*
X125950000Y-89550000D03*
X125950000Y-91050000D03*
X92190000Y-86260000D03*
X92190000Y-87760000D03*
D36*
X100850000Y-107010000D03*
X102350000Y-107010000D03*
X105620000Y-104530000D03*
X104120000Y-104530000D03*
D37*
X131600000Y-76440000D03*
X131600000Y-74940000D03*
D36*
X125410000Y-107020000D03*
X123910000Y-107020000D03*
D37*
X135290000Y-76440000D03*
X135290000Y-74940000D03*
D36*
X138810000Y-81630000D03*
X137310000Y-81630000D03*
X140430000Y-98840000D03*
X141930000Y-98840000D03*
X148300000Y-88620000D03*
X149800000Y-88620000D03*
D37*
X96300000Y-64130000D03*
X96300000Y-62630000D03*
X98710000Y-62630000D03*
X98710000Y-64130000D03*
D36*
X167670000Y-93540000D03*
X169170000Y-93540000D03*
D37*
X160290000Y-89000000D03*
X160290000Y-87500000D03*
D36*
X156470000Y-67300000D03*
X157970000Y-67300000D03*
X165220000Y-85160000D03*
X163720000Y-85160000D03*
X169770000Y-85160000D03*
X168270000Y-85160000D03*
X163000000Y-67300000D03*
X161500000Y-67300000D03*
X154370000Y-101310000D03*
X155870000Y-101310000D03*
D37*
X151610000Y-96860000D03*
X151610000Y-95360000D03*
D36*
X111480000Y-101880000D03*
X112980000Y-101880000D03*
X161430000Y-93540000D03*
X159930000Y-93540000D03*
X176300000Y-71330000D03*
X174800000Y-71330000D03*
X119620000Y-107010000D03*
X121120000Y-107010000D03*
X155840000Y-85160000D03*
X157340000Y-85160000D03*
X116390000Y-97630000D03*
X114890000Y-97630000D03*
X116760000Y-107010000D03*
X115260000Y-107010000D03*
X159830000Y-76720000D03*
X158330000Y-76720000D03*
X123770000Y-97740000D03*
X122270000Y-97740000D03*
D37*
X175340000Y-95590000D03*
X175340000Y-94090000D03*
D36*
X107800000Y-107010000D03*
X109300000Y-107010000D03*
D37*
X151610000Y-101350000D03*
X151610000Y-99850000D03*
D36*
X163310000Y-76730000D03*
X161810000Y-76730000D03*
D38*
X139760000Y-76500000D03*
X139760000Y-75000000D03*
D18*
X131670000Y-84330000D03*
X130170000Y-84330000D03*
X131670000Y-82240000D03*
X130170000Y-82240000D03*
X113670000Y-79210000D03*
X112170000Y-79210000D03*
X112170000Y-81780000D03*
X113670000Y-81780000D03*
D38*
X174460000Y-109130000D03*
X174460000Y-107630000D03*
X177000000Y-109130000D03*
X177000000Y-107630000D03*
X179540000Y-109160000D03*
X179540000Y-107660000D03*
X182060000Y-109160000D03*
X182060000Y-107660000D03*
X143070000Y-80100000D03*
X143070000Y-78600000D03*
X132120000Y-67470000D03*
X132120000Y-65970000D03*
X143030000Y-75020000D03*
X143030000Y-76520000D03*
D18*
X121750000Y-65200000D03*
X120250000Y-65200000D03*
X148200000Y-85140000D03*
X149700000Y-85140000D03*
X112940000Y-104530000D03*
X111440000Y-104530000D03*
D38*
X146210000Y-78590000D03*
X146210000Y-80090000D03*
X146210000Y-76520000D03*
X146210000Y-75020000D03*
D18*
X156470000Y-65140000D03*
X157970000Y-65140000D03*
X161480000Y-65140000D03*
X162980000Y-65140000D03*
D38*
X162160000Y-87510000D03*
X162160000Y-89010000D03*
X173390000Y-94080000D03*
X173390000Y-95580000D03*
D18*
X176300000Y-85130000D03*
X174800000Y-85130000D03*
X161320000Y-85160000D03*
X159820000Y-85160000D03*
X176290000Y-68930000D03*
X174790000Y-68930000D03*
X176350000Y-66230000D03*
X174850000Y-66230000D03*
D38*
X149050000Y-69890000D03*
X149050000Y-71390000D03*
D18*
X149740000Y-96260000D03*
X148240000Y-96260000D03*
X149710000Y-101350000D03*
X148210000Y-101350000D03*
X148220000Y-98800000D03*
X149720000Y-98800000D03*
D38*
X146200000Y-83210000D03*
X146200000Y-81710000D03*
X148950000Y-83210000D03*
X148950000Y-81710000D03*
D18*
X152040000Y-85140000D03*
X153540000Y-85140000D03*
D38*
X155960000Y-92500000D03*
X155960000Y-94000000D03*
D18*
X158250000Y-74290000D03*
X159750000Y-74290000D03*
X176300000Y-78230000D03*
X174800000Y-78230000D03*
X161590000Y-74290000D03*
X163090000Y-74290000D03*
D38*
X149050000Y-76520000D03*
X149050000Y-75020000D03*
D18*
X165350000Y-76730000D03*
X166850000Y-76730000D03*
X109300000Y-109850000D03*
X107800000Y-109850000D03*
X109190000Y-101870000D03*
X107690000Y-101870000D03*
X107690000Y-104520000D03*
X109190000Y-104520000D03*
X100830000Y-104530000D03*
X102330000Y-104530000D03*
X112960000Y-109850000D03*
X111460000Y-109850000D03*
D38*
X149020000Y-78590000D03*
X149020000Y-80090000D03*
X161425000Y-82425000D03*
X161425000Y-80925000D03*
X163820000Y-82420000D03*
X163820000Y-80920000D03*
D18*
X148250000Y-93880000D03*
X149750000Y-93880000D03*
X149760000Y-91300000D03*
X148260000Y-91300000D03*
D38*
X93680000Y-64120000D03*
X93680000Y-62620000D03*
D18*
X109170000Y-88390000D03*
X107670000Y-88390000D03*
X109210000Y-91380000D03*
X107710000Y-91380000D03*
X113210000Y-88410000D03*
X111710000Y-88410000D03*
X113210000Y-91390000D03*
X111710000Y-91390000D03*
D16*
X124440000Y-85720000D03*
D17*
X121900000Y-85720000D03*
X124440000Y-83180000D03*
X121900000Y-83180000D03*
X124440000Y-80640000D03*
X121900000Y-80640000D03*
X124440000Y-78100000D03*
X121900000Y-78100000D03*
D38*
X92200000Y-89970000D03*
X92200000Y-91470000D03*
D39*
X113090000Y-94310000D03*
X110440000Y-94270000D03*
X127550000Y-100040000D03*
X107880000Y-94240000D03*
D37*
X92270000Y-97620000D03*
X92270000Y-96120000D03*
X101700000Y-97620000D03*
X101700000Y-96120000D03*
D40*
X95260000Y-96740000D03*
X98960000Y-96740000D03*
D38*
X143070000Y-83210000D03*
X143070000Y-81710000D03*
D41*
X153480000Y-92170000D03*
X153480000Y-89970000D03*
X93680000Y-66220000D03*
X93680000Y-68420000D03*
D40*
X131590000Y-79210000D03*
X135290000Y-79210000D03*
D42*
X109570000Y-82510000D03*
X162760000Y-100480000D03*
X127630000Y-68730000D03*
X136570000Y-93300000D03*
X127890000Y-76340000D03*
X136850000Y-74110000D03*
X98670000Y-72380000D03*
X124330000Y-101530000D03*
X115970000Y-87040000D03*
X156910000Y-82700000D03*
X150740000Y-89920000D03*
X156230000Y-78410000D03*
X170370000Y-93540000D03*
X147760000Y-77420000D03*
X107140000Y-108690000D03*
X115380000Y-70620000D03*
X155310000Y-72590000D03*
X159010000Y-67910000D03*
X174350000Y-92650000D03*
X105540000Y-69800000D03*
X135050000Y-101580000D03*
X129590000Y-103850000D03*
X129590000Y-100040000D03*
X92500000Y-83150000D03*
X128440000Y-80620000D03*
X135660000Y-91120000D03*
X96450000Y-86500000D03*
X137610000Y-70490000D03*
X138300000Y-87420000D03*
X143600000Y-84760000D03*
X103220000Y-71210000D03*
X103250000Y-68090000D03*
X144640000Y-83590000D03*
X141630000Y-74640000D03*
X168200000Y-95610000D03*
X145600000Y-89800000D03*
X152890000Y-100890000D03*
X110450000Y-92820000D03*
X163700000Y-70050000D03*
X160190000Y-66250000D03*
X118730000Y-98020000D03*
X114970000Y-79230000D03*
X113100000Y-92980000D03*
X173290000Y-71320000D03*
X125780000Y-97760000D03*
X93370000Y-73650000D03*
X168200000Y-96860000D03*
X135270000Y-88530000D03*
X143040000Y-77390000D03*
X134060000Y-87080000D03*
X152250000Y-69800000D03*
X136280000Y-87110000D03*
X155600000Y-70600000D03*
X110380000Y-91380000D03*
X135550000Y-94350000D03*
X134650000Y-93250000D03*
X110300000Y-88350000D03*
X130575000Y-85775000D03*
X181100000Y-90140000D03*
X168170000Y-98150000D03*
X139070000Y-94010000D03*
X174410000Y-105450000D03*
X140010000Y-93130000D03*
X176960000Y-105340000D03*
X179530000Y-105240000D03*
X141830000Y-94180000D03*
X182060000Y-105280000D03*
X143880000Y-96440000D03*
X133040000Y-102580000D03*
X161550000Y-71640000D03*
X143720000Y-106210000D03*
X138650000Y-103850000D03*
X141980000Y-80180000D03*
X127140000Y-88330000D03*
X104050000Y-89840000D03*
X115990000Y-92580000D03*
X103010000Y-88150000D03*
X115980000Y-88410000D03*
X109590000Y-81020000D03*
X118080000Y-73690000D03*
X109950000Y-73690000D03*
X146850000Y-71070000D03*
X156050000Y-99410000D03*
X154720000Y-87230000D03*
X151300000Y-82730000D03*
X162170000Y-95860000D03*
X118630000Y-77200000D03*
X162210000Y-79690000D03*
X168120000Y-87620000D03*
X131760000Y-96180000D03*
X168150000Y-91410000D03*
X146200000Y-77420000D03*
X157890000Y-95500000D03*
X167620000Y-66240000D03*
X173060000Y-68780000D03*
X145130000Y-85220000D03*
X173370000Y-86430000D03*
X140550000Y-86300000D03*
X165350000Y-79700000D03*
X169900000Y-71320000D03*
X158330000Y-72660000D03*
X138530000Y-106380000D03*
X104960000Y-107010000D03*
X93400000Y-75940000D03*
X165800000Y-81110000D03*
X166470000Y-82680000D03*
X171700000Y-85240000D03*
X155450000Y-91280000D03*
X151290000Y-81430000D03*
X154710000Y-78900000D03*
X152890000Y-87270000D03*
X175100000Y-90150000D03*
X168170000Y-90160000D03*
X160190000Y-80170000D03*
X150660000Y-85140000D03*
X141810000Y-86650000D03*
X114380000Y-103100000D03*
X138570000Y-102580000D03*
X122130000Y-105380000D03*
X125200000Y-103150000D03*
X102020000Y-89860000D03*
X150990000Y-77460000D03*
X98470000Y-68990000D03*
X152370000Y-93880000D03*
X139750000Y-70440000D03*
X140070000Y-87630000D03*
X142075000Y-89525000D03*
X92190000Y-93900000D03*
X97390000Y-90980000D03*
D43*
X115380000Y-70620000D02*
X115380000Y-72845000D01*
X115380000Y-72845000D02*
X115350000Y-72875000D01*
X115380000Y-70620000D02*
X110005000Y-70620000D01*
X110005000Y-70620000D02*
X109950000Y-70675000D01*
D44*
X107750000Y-80750000D02*
X107750000Y-81510000D01*
X109030000Y-81970000D02*
X109570000Y-82510000D01*
X108210000Y-81970000D02*
X109030000Y-81970000D01*
X107750000Y-81510000D02*
X108210000Y-81970000D01*
X149050000Y-71390000D02*
X149050000Y-72590000D01*
X149050000Y-72590000D02*
X149050000Y-72500000D01*
X149050000Y-72500000D02*
X149050000Y-72590000D01*
X162760000Y-101310000D02*
X162760000Y-100480000D01*
X157970000Y-67300000D02*
X158890000Y-67300000D01*
X159010000Y-67420000D02*
X159010000Y-67910000D01*
X158890000Y-67300000D02*
X159010000Y-67420000D01*
X157800000Y-93540000D02*
X157470000Y-93870000D01*
X157550000Y-93770000D02*
X157470000Y-93770000D01*
X157470000Y-93850000D02*
X157550000Y-93770000D01*
X157470000Y-93870000D02*
X157470000Y-93850000D01*
X159930000Y-93540000D02*
X157800000Y-93540000D01*
X157800000Y-93540000D02*
X157470000Y-93210000D01*
X142380000Y-71170000D02*
X142380000Y-72180000D01*
X142790000Y-72590000D02*
X147220000Y-72590000D01*
X142380000Y-72180000D02*
X142790000Y-72590000D01*
D43*
X127825000Y-65200000D02*
X127825000Y-68535000D01*
X127825000Y-68535000D02*
X127630000Y-68730000D01*
D44*
X123910000Y-107020000D02*
X123910000Y-108140000D01*
X124290000Y-108520000D02*
X125260000Y-108520000D01*
X123910000Y-108140000D02*
X124290000Y-108520000D01*
X123910000Y-107020000D02*
X123910000Y-105970000D01*
X125210000Y-104670000D02*
X126000000Y-104670000D01*
X123910000Y-105970000D02*
X125210000Y-104670000D01*
X126000000Y-104670000D02*
X126770000Y-103900000D01*
X128500000Y-108520000D02*
X129360000Y-107660000D01*
X131160000Y-107660000D02*
X129360000Y-107660000D01*
X125260000Y-108520000D02*
X128500000Y-108520000D01*
D43*
X106840000Y-62770000D02*
X109950000Y-65880000D01*
X109950000Y-65880000D02*
X109950000Y-70675000D01*
X112475000Y-65200000D02*
X110630000Y-65200000D01*
X110630000Y-65200000D02*
X109950000Y-65880000D01*
X106150000Y-62770000D02*
X106840000Y-62770000D01*
D44*
X135820000Y-111070000D02*
X134400000Y-111070000D01*
X132340000Y-107660000D02*
X131160000Y-107660000D01*
X133050000Y-108370000D02*
X132340000Y-107660000D01*
X133050000Y-109720000D02*
X133050000Y-108370000D01*
X134400000Y-111070000D02*
X133050000Y-109720000D01*
X157330000Y-84740000D02*
X157320000Y-87960000D01*
X159525000Y-90165000D02*
X164370000Y-90165000D01*
X157320000Y-87960000D02*
X159525000Y-90165000D01*
D45*
X138060000Y-93300000D02*
X136570000Y-93300000D01*
X138060000Y-92210000D02*
X138060000Y-92150000D01*
X138060000Y-92150000D02*
X139160000Y-91050000D01*
X138060000Y-96020000D02*
X138060000Y-93300000D01*
X138060000Y-93300000D02*
X138060000Y-92210000D01*
D44*
X164370000Y-90165000D02*
X165965000Y-90165000D01*
X168270000Y-85730000D02*
X168270000Y-85160000D01*
X166970000Y-87030000D02*
X168270000Y-85730000D01*
X166970000Y-89160000D02*
X166970000Y-87030000D01*
X165965000Y-90165000D02*
X166970000Y-89160000D01*
X157340000Y-85160000D02*
X157340000Y-83830000D01*
X157340000Y-83830000D02*
X157330000Y-83820000D01*
X131600000Y-74940000D02*
X129290000Y-74940000D01*
X129290000Y-74940000D02*
X128740000Y-75490000D01*
X136000000Y-74940000D02*
X136490000Y-74940000D01*
X136490000Y-74940000D02*
X136500000Y-74950000D01*
X135290000Y-74940000D02*
X136000000Y-74940000D01*
X136000000Y-74940000D02*
X136020000Y-74940000D01*
X136020000Y-74940000D02*
X136500000Y-74460000D01*
X131600000Y-74940000D02*
X135290000Y-74940000D01*
X128740000Y-75490000D02*
X127890000Y-76340000D01*
X136500000Y-74950000D02*
X136500000Y-74460000D01*
X137310000Y-76060000D02*
X137310000Y-75780000D01*
X136500000Y-74950000D02*
X136500000Y-74970000D01*
X136500000Y-74970000D02*
X137310000Y-75780000D01*
X137310000Y-76060000D02*
X137310000Y-81630000D01*
X136500000Y-74460000D02*
X136850000Y-74110000D01*
X128740000Y-75490000D02*
X124380000Y-75490000D01*
X124160000Y-75270000D02*
X123240000Y-74350000D01*
X123240000Y-74350000D02*
X123240000Y-71830000D01*
X124380000Y-75490000D02*
X124160000Y-75270000D01*
X123645000Y-71315000D02*
X123645000Y-71425000D01*
X123645000Y-71425000D02*
X123240000Y-71830000D01*
X123240000Y-71830000D02*
X123240000Y-70910000D01*
X147760000Y-77420000D02*
X147760000Y-78230000D01*
X148120000Y-78590000D02*
X149020000Y-78590000D01*
X147760000Y-78230000D02*
X148120000Y-78590000D01*
X146210000Y-75020000D02*
X147230000Y-75020000D01*
X147230000Y-75020000D02*
X147760000Y-75550000D01*
X147760000Y-75550000D02*
X147760000Y-77420000D01*
X147230000Y-75020000D02*
X147760000Y-75550000D01*
X120920000Y-97740000D02*
X120920000Y-97720000D01*
X120920000Y-97720000D02*
X120510000Y-97310000D01*
X122060000Y-100615000D02*
X123415000Y-100615000D01*
X123415000Y-100615000D02*
X124330000Y-101530000D01*
X101700000Y-97620000D02*
X106360000Y-97620000D01*
X106360000Y-97620000D02*
X107940000Y-96040000D01*
X94450000Y-102350000D02*
X99970000Y-102350000D01*
X99970000Y-102350000D02*
X101700000Y-100620000D01*
X101700000Y-100620000D02*
X101700000Y-97620000D01*
X94450000Y-102350000D02*
X93190000Y-102350000D01*
X92270000Y-97620000D02*
X92270000Y-98490000D01*
X92270000Y-101430000D02*
X92270000Y-98490000D01*
X93190000Y-102350000D02*
X92270000Y-101430000D01*
X92280000Y-70750000D02*
X92280000Y-61930000D01*
X97480000Y-61840000D02*
X97480000Y-62630000D01*
X97050000Y-61410000D02*
X97480000Y-61840000D01*
X92800000Y-61410000D02*
X97050000Y-61410000D01*
X92280000Y-61930000D02*
X92800000Y-61410000D01*
X98710000Y-62630000D02*
X106010000Y-62630000D01*
X106010000Y-62630000D02*
X106150000Y-62770000D01*
X96300000Y-62630000D02*
X97480000Y-62630000D01*
X97480000Y-62630000D02*
X98710000Y-62630000D01*
D46*
X93680000Y-68420000D02*
X93680000Y-69340000D01*
X92280000Y-70740000D02*
X92280000Y-70750000D01*
X92280000Y-70750000D02*
X92280000Y-71360000D01*
X93680000Y-69340000D02*
X92280000Y-70740000D01*
D44*
X153480000Y-89970000D02*
X155580000Y-89970000D01*
X155580000Y-89970000D02*
X157470000Y-91860000D01*
X149800000Y-88620000D02*
X151030000Y-88620000D01*
X152380000Y-89970000D02*
X153480000Y-89970000D01*
X151030000Y-88620000D02*
X152380000Y-89970000D01*
X92190000Y-86260000D02*
X93680000Y-86260000D01*
X93995000Y-85945000D02*
X93995000Y-84110000D01*
X93680000Y-86260000D02*
X93995000Y-85945000D01*
X147760000Y-75550000D02*
X147760000Y-77420000D01*
D46*
X98670000Y-72380000D02*
X99090000Y-72800000D01*
X99090000Y-72800000D02*
X100950000Y-72800000D01*
D44*
X137260000Y-84620000D02*
X137260000Y-81680000D01*
X137260000Y-81680000D02*
X137310000Y-81630000D01*
D45*
X136170000Y-90320000D02*
X132360000Y-90320000D01*
D44*
X125300000Y-71315000D02*
X123645000Y-71315000D01*
X123645000Y-71315000D02*
X123240000Y-70910000D01*
X123440000Y-68730000D02*
X127610000Y-68730000D01*
X127610000Y-68730000D02*
X127630000Y-68730000D01*
X123240000Y-70910000D02*
X123240000Y-68930000D01*
X123240000Y-68930000D02*
X123440000Y-68730000D01*
D46*
X113090000Y-97630000D02*
X109530000Y-97630000D01*
X109530000Y-97630000D02*
X107940000Y-96040000D01*
X107940000Y-96040000D02*
X107880000Y-95980000D01*
X107880000Y-95980000D02*
X107880000Y-94240000D01*
X93995000Y-84110000D02*
X93995000Y-81975000D01*
X93995000Y-81975000D02*
X94000000Y-81970000D01*
X94000000Y-80240000D02*
X94000000Y-81970000D01*
D44*
X94000000Y-78600000D02*
X94000000Y-78380000D01*
X94000000Y-78380000D02*
X93980000Y-78360000D01*
X94000000Y-80240000D02*
X94000000Y-78600000D01*
X94000000Y-78600000D02*
X94000000Y-78590000D01*
X94000000Y-78590000D02*
X93770000Y-78360000D01*
X93995000Y-81975000D02*
X94000000Y-81970000D01*
X107140000Y-108690000D02*
X107140000Y-108470000D01*
X107140000Y-108470000D02*
X107800000Y-107810000D01*
X107800000Y-107810000D02*
X107800000Y-107010000D01*
X107800000Y-107010000D02*
X106870000Y-107010000D01*
X106870000Y-107010000D02*
X105620000Y-105760000D01*
X105620000Y-105760000D02*
X105620000Y-104530000D01*
D46*
X115970000Y-87040000D02*
X115970000Y-86920000D01*
X115970000Y-86920000D02*
X116290000Y-86600000D01*
X116290000Y-86600000D02*
X118050000Y-86600000D01*
D44*
X92280000Y-71360000D02*
X93980000Y-71360000D01*
X93980000Y-71360000D02*
X94980000Y-72360000D01*
X92280000Y-78360000D02*
X93250000Y-78360000D01*
X93250000Y-78360000D02*
X93770000Y-78360000D01*
X93770000Y-78360000D02*
X93980000Y-78360000D01*
X93980000Y-78360000D02*
X94980000Y-77360000D01*
X94980000Y-77360000D02*
X95860000Y-77360000D01*
X96690000Y-76530000D02*
X96690000Y-75690000D01*
X95860000Y-77360000D02*
X96690000Y-76530000D01*
X94980000Y-75510000D02*
X96510000Y-75510000D01*
X96540000Y-76160000D02*
X94980000Y-76160000D01*
X96690000Y-76010000D02*
X96540000Y-76160000D01*
X96690000Y-75690000D02*
X96690000Y-76010000D01*
X96510000Y-75510000D02*
X96690000Y-75690000D01*
X125950000Y-89550000D02*
X125300000Y-89550000D01*
X124440000Y-88690000D02*
X124440000Y-85720000D01*
X125300000Y-89550000D02*
X124440000Y-88690000D01*
X125950000Y-89550000D02*
X126900000Y-89550000D01*
X127670000Y-90320000D02*
X132360000Y-90320000D01*
X126900000Y-89550000D02*
X127670000Y-90320000D01*
X138060000Y-96020000D02*
X138060000Y-97270000D01*
X139630000Y-98840000D02*
X140430000Y-98840000D01*
X138060000Y-97270000D02*
X139630000Y-98840000D01*
X113090000Y-97630000D02*
X113360000Y-97630000D01*
D45*
X137335000Y-89285000D02*
X139005000Y-89285000D01*
X139160000Y-89440000D02*
X139160000Y-91050000D01*
X139005000Y-89285000D02*
X139160000Y-89440000D01*
X137335000Y-89285000D02*
X137260000Y-89210000D01*
X139160000Y-91050000D02*
X139160000Y-91120000D01*
X143760000Y-91120000D02*
X139160000Y-91120000D01*
D44*
X156230000Y-78370000D02*
X156230000Y-82020000D01*
X156230000Y-82020000D02*
X156910000Y-82700000D01*
X173410000Y-91425000D02*
X173410000Y-92500000D01*
X173410000Y-92500000D02*
X173560000Y-92650000D01*
X173560000Y-92650000D02*
X174350000Y-92650000D01*
X157330000Y-84740000D02*
X157330000Y-83820000D01*
X157330000Y-83820000D02*
X156910000Y-83400000D01*
X156910000Y-83400000D02*
X156910000Y-82700000D01*
X143760000Y-91120000D02*
X145990000Y-91120000D01*
X145990000Y-91120000D02*
X147190000Y-89920000D01*
X147190000Y-89920000D02*
X150740000Y-89920000D01*
X116790000Y-86600000D02*
X118050000Y-86600000D01*
X106120000Y-62800000D02*
X106150000Y-62770000D01*
X150740000Y-89920000D02*
X149640000Y-89920000D01*
X149640000Y-89920000D02*
X149600000Y-89880000D01*
X149800000Y-88620000D02*
X149800000Y-89680000D01*
X149800000Y-89680000D02*
X149600000Y-89880000D01*
X156230000Y-78410000D02*
X156230000Y-78370000D01*
X156230000Y-78370000D02*
X156230000Y-77660000D01*
X156230000Y-77660000D02*
X157170000Y-76720000D01*
X157170000Y-76720000D02*
X158330000Y-76720000D01*
X156910000Y-82700000D02*
X158525000Y-82700000D01*
X158525000Y-82700000D02*
X158530000Y-82695000D01*
X122270000Y-97740000D02*
X120920000Y-97740000D01*
X120920000Y-97740000D02*
X120880000Y-97740000D01*
X120880000Y-97740000D02*
X120510000Y-98110000D01*
D45*
X163000000Y-67300000D02*
X163000000Y-68140000D01*
X162020000Y-69120000D02*
X160040000Y-69120000D01*
X163000000Y-68140000D02*
X162020000Y-69120000D01*
X158550000Y-69450000D02*
X159710000Y-69450000D01*
X159800000Y-67910000D02*
X159010000Y-67910000D01*
X160040000Y-68150000D02*
X159800000Y-67910000D01*
X160040000Y-69120000D02*
X160040000Y-68150000D01*
X159710000Y-69450000D02*
X160040000Y-69120000D01*
D44*
X176300000Y-71330000D02*
X177210000Y-71330000D01*
X177210000Y-71330000D02*
X178120000Y-70420000D01*
X174260000Y-62750000D02*
X174260000Y-64150000D01*
X174260000Y-64150000D02*
X174850000Y-64740000D01*
X174850000Y-64740000D02*
X177040000Y-64740000D01*
X177040000Y-64740000D02*
X178120000Y-65820000D01*
X178120000Y-65820000D02*
X178120000Y-70420000D01*
X176290000Y-68930000D02*
X176290000Y-71320000D01*
X176290000Y-71320000D02*
X176300000Y-71330000D01*
X157470000Y-91860000D02*
X157470000Y-93210000D01*
X157470000Y-93210000D02*
X157470000Y-93160000D01*
X157470000Y-93160000D02*
X157470000Y-93770000D01*
X145990000Y-91120000D02*
X147230000Y-89880000D01*
X147230000Y-89880000D02*
X149600000Y-89880000D01*
X107150000Y-108680000D02*
X107150000Y-109550000D01*
X107450000Y-109850000D02*
X107800000Y-109850000D01*
X107150000Y-109550000D02*
X107450000Y-109850000D01*
X155870000Y-101310000D02*
X162760000Y-101310000D01*
X162760000Y-101310000D02*
X163460000Y-101310000D01*
X164410000Y-100360000D02*
X164410000Y-99405000D01*
X163460000Y-101310000D02*
X164410000Y-100360000D01*
X151610000Y-99850000D02*
X152440000Y-99850000D01*
X152830000Y-99460000D02*
X152830000Y-98135000D01*
X152440000Y-99850000D02*
X152830000Y-99460000D01*
X152830000Y-98135000D02*
X154370000Y-98135000D01*
X154370000Y-98135000D02*
X156335000Y-98135000D01*
X156740000Y-101310000D02*
X155870000Y-101310000D01*
X157050000Y-101000000D02*
X156740000Y-101310000D01*
X157350000Y-84720000D02*
X157330000Y-84740000D01*
X169170000Y-93540000D02*
X170370000Y-93540000D01*
X174350000Y-92650000D02*
X175030000Y-92650000D01*
X175030000Y-92650000D02*
X175340000Y-92960000D01*
X175340000Y-92960000D02*
X175340000Y-94090000D01*
X147220000Y-72590000D02*
X149050000Y-72590000D01*
X149050000Y-72590000D02*
X150050000Y-72590000D01*
X120510000Y-96790000D02*
X120510000Y-97310000D01*
X113910000Y-96320000D02*
X120040000Y-96320000D01*
X113110000Y-97120000D02*
X113910000Y-96320000D01*
X113110000Y-97900000D02*
X113110000Y-97120000D01*
X120040000Y-96320000D02*
X120510000Y-96790000D01*
X120510000Y-97310000D02*
X120510000Y-98110000D01*
X120510000Y-98110000D02*
X120510000Y-100470000D01*
X120510000Y-100470000D02*
X120655000Y-100615000D01*
X120655000Y-100615000D02*
X122060000Y-100615000D01*
X114890000Y-97630000D02*
X113360000Y-97630000D01*
X113655000Y-99345000D02*
X116660000Y-99345000D01*
X113110000Y-98800000D02*
X113655000Y-99345000D01*
X113110000Y-97880000D02*
X113110000Y-97900000D01*
X113110000Y-97900000D02*
X113110000Y-98800000D01*
X113360000Y-97630000D02*
X113110000Y-97880000D01*
X173410000Y-91425000D02*
X173410000Y-91710000D01*
X150050000Y-72590000D02*
X155310000Y-72590000D01*
D46*
X115325000Y-70675000D02*
X115380000Y-70620000D01*
D44*
X107140000Y-108690000D02*
X107150000Y-108680000D01*
D46*
X100950000Y-72800000D02*
X100950000Y-77870000D01*
X102880000Y-79800000D02*
X105550000Y-79800000D01*
X100950000Y-77870000D02*
X102880000Y-79800000D01*
D44*
X124380000Y-101530000D02*
X125960000Y-101530000D01*
D45*
X124330000Y-101530000D02*
X124380000Y-101530000D01*
D44*
X126770000Y-102340000D02*
X126770000Y-103900000D01*
X125960000Y-101530000D02*
X126770000Y-102340000D01*
D46*
X115350000Y-70650000D02*
X115380000Y-70620000D01*
X115325000Y-70675000D02*
X115380000Y-70620000D01*
X106150000Y-62770000D02*
X106630000Y-62770000D01*
D44*
X105550000Y-79800000D02*
X102850000Y-79800000D01*
X102850000Y-79800000D02*
X100950000Y-77900000D01*
X100950000Y-77900000D02*
X100950000Y-72800000D01*
X115325000Y-70675000D02*
X115380000Y-70620000D01*
X115380000Y-70620000D02*
X115350000Y-70650000D01*
D47*
X111825000Y-65850000D02*
X112475000Y-65200000D01*
X118050000Y-86600000D02*
X116790000Y-86600000D01*
X100950000Y-77900000D02*
X102850000Y-79800000D01*
X105550000Y-79800000D02*
X106390000Y-79800000D01*
X106910000Y-80750000D02*
X107750000Y-80750000D01*
X106660000Y-80500000D02*
X106910000Y-80750000D01*
X106660000Y-80070000D02*
X106660000Y-80500000D01*
X106390000Y-79800000D02*
X106660000Y-80070000D01*
D45*
X138060000Y-92210000D02*
X136170000Y-90320000D01*
X137260000Y-84620000D02*
X137260000Y-89210000D01*
X137260000Y-89210000D02*
X137260000Y-89360000D01*
X137260000Y-89360000D02*
X136300000Y-90320000D01*
X136300000Y-90320000D02*
X136170000Y-90320000D01*
D47*
X154800000Y-98135000D02*
X154800000Y-98075000D01*
X154510000Y-98135000D02*
X154800000Y-98135000D01*
X154800000Y-98135000D02*
X155125000Y-98135000D01*
X164285000Y-99415000D02*
X164105000Y-99415000D01*
X173410000Y-91425000D02*
X173665000Y-91425000D01*
D44*
X157470000Y-93770000D02*
X157470000Y-94310000D01*
X157050000Y-94730000D02*
X157470000Y-94310000D01*
X157050000Y-98850000D02*
X157050000Y-94730000D01*
X157050000Y-98850000D02*
X157050000Y-101000000D01*
X156335000Y-98135000D02*
X157050000Y-98850000D01*
X125410000Y-107020000D02*
X127470000Y-107020000D01*
X129590000Y-104900000D02*
X129590000Y-103850000D01*
X127470000Y-107020000D02*
X129590000Y-104900000D01*
X96300000Y-66200000D02*
X96300000Y-64130000D01*
X93680000Y-62620000D02*
X94520000Y-62620000D01*
X94520000Y-62620000D02*
X94990000Y-63090000D01*
X94990000Y-63090000D02*
X94990000Y-63890000D01*
X94990000Y-63890000D02*
X95230000Y-64130000D01*
X95230000Y-64130000D02*
X96300000Y-64130000D01*
X127570000Y-100050000D02*
X129580000Y-100050000D01*
X129580000Y-100050000D02*
X129590000Y-100040000D01*
X135050000Y-101580000D02*
X135050000Y-104990000D01*
X135050000Y-104990000D02*
X135180000Y-105120000D01*
X135180000Y-105120000D02*
X136560000Y-105120000D01*
X129590000Y-100040000D02*
X131160000Y-100040000D01*
X136560000Y-101310000D02*
X135320000Y-101310000D01*
X135320000Y-101310000D02*
X135050000Y-101580000D01*
X135050000Y-101580000D02*
X135050000Y-100270000D01*
X135050000Y-100270000D02*
X135280000Y-100040000D01*
X135280000Y-100040000D02*
X136560000Y-100040000D01*
D43*
X96300000Y-66200000D02*
X98070000Y-66200000D01*
X101670000Y-69800000D02*
X105540000Y-69800000D01*
X98070000Y-66200000D02*
X101670000Y-69800000D01*
X105540000Y-69800000D02*
X105540000Y-72790000D01*
X105540000Y-72790000D02*
X105550000Y-72800000D01*
D44*
X129590000Y-103850000D02*
X131160000Y-103850000D01*
D46*
X105550000Y-78850000D02*
X105550000Y-72800000D01*
D44*
X139760000Y-76500000D02*
X138720000Y-76500000D01*
X138380000Y-71260000D02*
X137610000Y-70490000D01*
X138380000Y-76160000D02*
X138380000Y-71260000D01*
X138720000Y-76500000D02*
X138380000Y-76160000D01*
X98710000Y-64130000D02*
X102350000Y-64130000D01*
X93995000Y-90695000D02*
X93995000Y-88955000D01*
X93995000Y-88955000D02*
X95190000Y-87760000D01*
X92500000Y-81970000D02*
X92500000Y-83150000D01*
X130170000Y-82240000D02*
X129570000Y-82240000D01*
X128440000Y-81110000D02*
X128440000Y-80620000D01*
X129570000Y-82240000D02*
X128440000Y-81110000D01*
X103250000Y-65030000D02*
X103250000Y-66500000D01*
X102350000Y-64130000D02*
X103250000Y-65030000D01*
X143600000Y-84760000D02*
X143600000Y-84100000D01*
X143450000Y-83950000D02*
X143070000Y-83950000D01*
X143600000Y-84100000D02*
X143450000Y-83950000D01*
X143070000Y-83950000D02*
X143070000Y-83210000D01*
X92190000Y-87760000D02*
X95190000Y-87760000D01*
X95190000Y-87760000D02*
X96450000Y-86500000D01*
X92200000Y-89970000D02*
X93270000Y-89970000D01*
X93995000Y-90695000D02*
X93995000Y-93510000D01*
X93270000Y-89970000D02*
X93995000Y-90695000D01*
X92190000Y-87760000D02*
X92190000Y-89960000D01*
X92190000Y-89960000D02*
X92200000Y-89970000D01*
D46*
X96450000Y-86500000D02*
X97570000Y-86500000D01*
X97570000Y-86500000D02*
X97805000Y-86265000D01*
X97805000Y-86265000D02*
X97805000Y-84110000D01*
D44*
X138060000Y-84620000D02*
X138060000Y-87180000D01*
X138060000Y-87180000D02*
X138300000Y-87420000D01*
X138060000Y-84620000D02*
X138060000Y-83390000D01*
X138810000Y-82640000D02*
X138810000Y-81630000D01*
X138060000Y-83390000D02*
X138810000Y-82640000D01*
X138290000Y-87410000D02*
X138300000Y-87420000D01*
D45*
X138300000Y-87420000D02*
X138290000Y-87410000D01*
D46*
X92500000Y-80240000D02*
X92500000Y-81970000D01*
D44*
X125950000Y-91050000D02*
X121600000Y-91050000D01*
X120900000Y-91750000D02*
X120900000Y-94340000D01*
X121600000Y-91050000D02*
X120900000Y-91750000D01*
X132360000Y-91120000D02*
X126020000Y-91120000D01*
X126020000Y-91120000D02*
X125950000Y-91050000D01*
X132320000Y-91160000D02*
X132360000Y-91120000D01*
X130170000Y-84330000D02*
X130170000Y-82240000D01*
X120910000Y-94330000D02*
X120900000Y-94340000D01*
X132360000Y-91120000D02*
X135660000Y-91120000D01*
D43*
X103220000Y-71210000D02*
X103240000Y-72790000D01*
X103240000Y-72790000D02*
X103250000Y-72800000D01*
X103250000Y-68090000D02*
X103260000Y-66510000D01*
X103260000Y-66510000D02*
X103250000Y-66500000D01*
D46*
X103260000Y-66510000D02*
X103250000Y-66500000D01*
X103230000Y-71220000D02*
X103220000Y-71210000D01*
X103240000Y-68080000D02*
X103250000Y-68090000D01*
D47*
X103230000Y-71220000D02*
X103220000Y-71210000D01*
X103250000Y-68090000D02*
X103240000Y-68080000D01*
D45*
X120900000Y-93680000D02*
X120900000Y-94340000D01*
D47*
X138075000Y-84605000D02*
X138060000Y-84620000D01*
D44*
X143600000Y-84760000D02*
X143600000Y-84760000D01*
D46*
X107750000Y-78850000D02*
X109060000Y-78850000D01*
X111610000Y-84950000D02*
X113425000Y-84950000D01*
X110930000Y-84270000D02*
X111610000Y-84950000D01*
X110930000Y-80720000D02*
X110930000Y-84270000D01*
X109060000Y-78850000D02*
X110930000Y-80720000D01*
D44*
X156470000Y-65140000D02*
X156470000Y-67300000D01*
X156470000Y-69570000D02*
X156470000Y-67300000D01*
X143030000Y-75020000D02*
X143030000Y-73980000D01*
X154220000Y-73760000D02*
X154750000Y-74290000D01*
X143250000Y-73760000D02*
X154220000Y-73760000D01*
X143030000Y-73980000D02*
X143250000Y-73760000D01*
X141630000Y-74640000D02*
X141630000Y-74730000D01*
X141920000Y-75020000D02*
X143030000Y-75020000D01*
X141630000Y-74730000D02*
X141920000Y-75020000D01*
X143010000Y-81710000D02*
X144680000Y-81710000D01*
X144640000Y-83590000D02*
X144640000Y-81750000D01*
X144640000Y-81750000D02*
X144680000Y-81710000D01*
X144680000Y-81710000D02*
X146200000Y-81710000D01*
X154750000Y-74290000D02*
X156470000Y-74290000D01*
X146200000Y-81710000D02*
X148950000Y-81710000D01*
X156470000Y-74290000D02*
X156470000Y-69570000D01*
X143760000Y-90320000D02*
X145080000Y-90320000D01*
X145080000Y-90320000D02*
X145600000Y-89800000D01*
X146210000Y-80090000D02*
X146210000Y-80910000D01*
X146210000Y-80910000D02*
X146210000Y-81700000D01*
X146210000Y-81700000D02*
X146200000Y-81710000D01*
X156470000Y-69570000D02*
X156470000Y-69890000D01*
X176300000Y-78230000D02*
X177980000Y-78230000D01*
X178810000Y-79060000D02*
X178810000Y-87615000D01*
X177980000Y-78230000D02*
X178810000Y-79060000D01*
X158280000Y-75500000D02*
X166600000Y-75500000D01*
X158250000Y-75500000D02*
X158270000Y-75480000D01*
X158270000Y-75480000D02*
X158280000Y-75480000D01*
X158280000Y-75480000D02*
X158280000Y-75500000D01*
X158250000Y-74290000D02*
X158250000Y-75500000D01*
X166850000Y-75750000D02*
X166850000Y-76730000D01*
X166600000Y-75500000D02*
X166850000Y-75750000D01*
X145600000Y-89800000D02*
X145770000Y-89800000D01*
X145770000Y-89800000D02*
X146950000Y-88620000D01*
X146950000Y-88620000D02*
X148300000Y-88620000D01*
X151610000Y-101350000D02*
X152430000Y-101350000D01*
X152430000Y-101350000D02*
X152890000Y-100890000D01*
X149710000Y-101350000D02*
X151610000Y-101350000D01*
X168200000Y-95610000D02*
X169795000Y-95610000D01*
X169795000Y-95610000D02*
X169810000Y-95595000D01*
X175340000Y-95590000D02*
X173400000Y-95590000D01*
X173400000Y-95590000D02*
X173390000Y-95580000D01*
X169810000Y-95595000D02*
X173375000Y-95595000D01*
X173375000Y-95595000D02*
X173390000Y-95580000D01*
X169825000Y-95590000D02*
X169810000Y-95605000D01*
X173390000Y-95580000D02*
X175330000Y-95580000D01*
X175330000Y-95580000D02*
X175340000Y-95590000D01*
X175340000Y-95590000D02*
X176180000Y-95590000D01*
X176390000Y-95380000D02*
X176390000Y-87980000D01*
X176180000Y-95590000D02*
X176390000Y-95380000D01*
X176390000Y-87980000D02*
X176755000Y-87615000D01*
X176755000Y-87615000D02*
X178810000Y-87615000D01*
X145080000Y-90320000D02*
X145600000Y-89800000D01*
X148940000Y-81700000D02*
X148950000Y-81710000D01*
X146200000Y-81710000D02*
X146210000Y-80090000D01*
D45*
X154150000Y-69450000D02*
X156030000Y-69450000D01*
X156030000Y-69450000D02*
X156470000Y-69890000D01*
D44*
X156470000Y-74290000D02*
X158250000Y-74290000D01*
D47*
X145080000Y-90320000D02*
X145600000Y-89800000D01*
D44*
X125300000Y-70045000D02*
X126465000Y-70045000D01*
X127280000Y-71200000D02*
X129275000Y-71200000D01*
X126950000Y-70870000D02*
X127280000Y-71200000D01*
X126950000Y-70530000D02*
X126950000Y-70870000D01*
X126465000Y-70045000D02*
X126950000Y-70530000D01*
X110440000Y-94240000D02*
X110440000Y-92830000D01*
X110440000Y-92830000D02*
X110450000Y-92820000D01*
X114970000Y-79230000D02*
X115290000Y-79230000D01*
X115350000Y-79170000D02*
X115350000Y-75925000D01*
X115290000Y-79230000D02*
X115350000Y-79170000D01*
X112170000Y-81990000D02*
X112170000Y-81050000D01*
X113670000Y-80200000D02*
X113670000Y-79210000D01*
X113460000Y-80410000D02*
X113670000Y-80200000D01*
X112810000Y-80410000D02*
X113460000Y-80410000D01*
X112170000Y-81050000D02*
X112810000Y-80410000D01*
X160190000Y-66250000D02*
X160190000Y-66940000D01*
X160190000Y-66940000D02*
X160550000Y-67300000D01*
X160550000Y-67300000D02*
X161500000Y-67300000D01*
X163700000Y-70050000D02*
X166050000Y-70050000D01*
X118730000Y-98020000D02*
X118730000Y-102250000D01*
X117825000Y-103155000D02*
X116660000Y-103155000D01*
X118730000Y-102250000D02*
X117825000Y-103155000D01*
X116390000Y-97630000D02*
X118340000Y-97630000D01*
X118340000Y-97630000D02*
X118730000Y-98020000D01*
D46*
X113670000Y-79210000D02*
X114620000Y-79210000D01*
X115210000Y-79800000D02*
X115320000Y-79800000D01*
X114620000Y-79210000D02*
X115210000Y-79800000D01*
X115320000Y-79800000D02*
X116300000Y-79800000D01*
X124775000Y-65200000D02*
X124775000Y-63365000D01*
X124775000Y-63365000D02*
X125390000Y-62750000D01*
X125390000Y-62750000D02*
X133690000Y-62750000D01*
D44*
X132120000Y-63300000D02*
X132120000Y-63160000D01*
X132120000Y-63160000D02*
X131710000Y-62750000D01*
X131710000Y-62750000D02*
X133690000Y-62750000D01*
X134230000Y-66710000D02*
X134230000Y-65560000D01*
X133420000Y-64750000D02*
X132120000Y-64750000D01*
X134230000Y-65560000D02*
X133420000Y-64750000D01*
X132120000Y-65970000D02*
X132120000Y-64750000D01*
X132120000Y-64750000D02*
X132120000Y-63300000D01*
X132120000Y-63300000D02*
X132120000Y-63260000D01*
X132630000Y-62750000D02*
X133690000Y-62750000D01*
X132120000Y-63260000D02*
X132630000Y-62750000D01*
X113110000Y-94310000D02*
X113110000Y-92990000D01*
X113110000Y-92990000D02*
X113100000Y-92980000D01*
X171450000Y-70050000D02*
X173050000Y-70050000D01*
X173050000Y-70050000D02*
X173290000Y-70290000D01*
X173290000Y-70290000D02*
X173290000Y-71320000D01*
X123770000Y-97740000D02*
X125760000Y-97740000D01*
X125760000Y-97740000D02*
X125780000Y-97760000D01*
D46*
X122060000Y-99345000D02*
X125275000Y-99345000D01*
X125780000Y-98840000D02*
X125780000Y-97760000D01*
X125275000Y-99345000D02*
X125780000Y-98840000D01*
D44*
X173290000Y-71310000D02*
X174780000Y-71310000D01*
X174780000Y-71310000D02*
X174800000Y-71330000D01*
X174760000Y-71320000D02*
X174800000Y-71360000D01*
X173050000Y-70050000D02*
X173290000Y-70290000D01*
X173290000Y-70290000D02*
X173290000Y-71310000D01*
X173290000Y-71310000D02*
X173290000Y-71320000D01*
D46*
X121750000Y-65200000D02*
X124775000Y-65200000D01*
D45*
X93370000Y-73650000D02*
X93370000Y-74170000D01*
X93370000Y-74170000D02*
X93410000Y-74210000D01*
X93410000Y-74210000D02*
X94980000Y-74210000D01*
D44*
X96535000Y-84110000D02*
X96535000Y-82605000D01*
X99570000Y-79570000D02*
X99570000Y-78510000D01*
X96535000Y-82605000D02*
X99570000Y-79570000D01*
X94980000Y-74210000D02*
X98620000Y-74210000D01*
X99570000Y-75160000D02*
X99570000Y-78510000D01*
X98620000Y-74210000D02*
X99570000Y-75160000D01*
X121900000Y-83180000D02*
X123190000Y-84470000D01*
X128960000Y-88720000D02*
X132360000Y-88720000D01*
X126370000Y-86130000D02*
X128960000Y-88720000D01*
X126370000Y-84960000D02*
X126370000Y-86130000D01*
X125880000Y-84470000D02*
X126370000Y-84960000D01*
X123190000Y-84470000D02*
X125880000Y-84470000D01*
X132360000Y-87920000D02*
X133590000Y-87920000D01*
X134200000Y-88530000D02*
X135270000Y-88530000D01*
X133590000Y-87920000D02*
X134200000Y-88530000D01*
X168200000Y-96860000D02*
X169805000Y-96860000D01*
X135265000Y-88525000D02*
X135270000Y-88530000D01*
X124440000Y-80640000D02*
X125370000Y-80640000D01*
X125370000Y-80640000D02*
X127280000Y-82550000D01*
X127280000Y-82550000D02*
X127280000Y-85780000D01*
X127280000Y-85780000D02*
X129420000Y-87920000D01*
X129420000Y-87920000D02*
X132360000Y-87920000D01*
X169805000Y-96860000D02*
X169810000Y-96865000D01*
X169810000Y-96875000D02*
X176245000Y-96865000D01*
X177465000Y-88885000D02*
X178810000Y-88885000D01*
X177210000Y-89140000D02*
X177465000Y-88885000D01*
X177210000Y-95900000D02*
X177210000Y-89140000D01*
X176245000Y-96865000D02*
X177210000Y-95900000D01*
D47*
X135265000Y-88525000D02*
X135270000Y-88530000D01*
D44*
X143040000Y-77390000D02*
X141300000Y-77390000D01*
X141300000Y-77390000D02*
X139660000Y-79030000D01*
X143030000Y-76520000D02*
X143030000Y-77380000D01*
X143030000Y-77380000D02*
X143040000Y-77390000D01*
X139660000Y-84620000D02*
X139660000Y-79030000D01*
X134060000Y-84620000D02*
X134060000Y-87080000D01*
X131670000Y-84330000D02*
X132590000Y-84330000D01*
X132880000Y-84620000D02*
X134060000Y-84620000D01*
X132590000Y-84330000D02*
X132880000Y-84620000D01*
D45*
X154150000Y-69950000D02*
X152400000Y-69950000D01*
X152400000Y-69950000D02*
X152250000Y-69800000D01*
D47*
X152250000Y-69800000D02*
X152400000Y-69950000D01*
D44*
X134860000Y-84620000D02*
X134860000Y-86300000D01*
X135670000Y-87110000D02*
X136280000Y-87110000D01*
X134860000Y-86300000D02*
X135670000Y-87110000D01*
X131670000Y-82240000D02*
X133600000Y-82240000D01*
X134860000Y-83500000D02*
X134860000Y-84620000D01*
X133600000Y-82240000D02*
X134860000Y-83500000D01*
D47*
X154150000Y-70450000D02*
X155450000Y-70450000D01*
X155450000Y-70450000D02*
X155600000Y-70600000D01*
D44*
X110380000Y-91380000D02*
X111700000Y-91380000D01*
X111700000Y-91380000D02*
X111710000Y-91390000D01*
X109210000Y-91380000D02*
X110380000Y-91380000D01*
D46*
X132360000Y-94320000D02*
X135520000Y-94320000D01*
X135520000Y-94320000D02*
X135550000Y-94350000D01*
D47*
X135550000Y-94350000D02*
X135520000Y-94320000D01*
D44*
X110300000Y-88350000D02*
X109210000Y-88350000D01*
X109210000Y-88350000D02*
X109170000Y-88390000D01*
X111710000Y-88410000D02*
X110360000Y-88410000D01*
X110360000Y-88410000D02*
X110300000Y-88350000D01*
D46*
X132360000Y-93520000D02*
X134380000Y-93520000D01*
X134380000Y-93520000D02*
X134650000Y-93250000D01*
D47*
X134380000Y-93520000D02*
X134650000Y-93250000D01*
D44*
X130575000Y-85775000D02*
X131120000Y-86320000D01*
X131120000Y-86320000D02*
X132360000Y-86320000D01*
X181100000Y-90140000D02*
X181085000Y-90155000D01*
X181085000Y-90155000D02*
X178810000Y-90155000D01*
X168170000Y-98150000D02*
X169795000Y-98150000D01*
X169795000Y-98150000D02*
X169810000Y-98135000D01*
X174410000Y-105450000D02*
X174410000Y-107580000D01*
X174410000Y-107580000D02*
X174460000Y-107630000D01*
X139660000Y-94600000D02*
X139070000Y-94010000D01*
X139660000Y-94600000D02*
X139660000Y-96020000D01*
X177000000Y-107630000D02*
X177000000Y-105380000D01*
X177000000Y-105380000D02*
X176960000Y-105340000D01*
X140460000Y-93580000D02*
X140010000Y-93130000D01*
X140460000Y-93580000D02*
X140460000Y-96020000D01*
X179540000Y-107660000D02*
X179540000Y-105250000D01*
X179540000Y-105250000D02*
X179530000Y-105240000D01*
X141260000Y-96020000D02*
X141260000Y-94750000D01*
X141260000Y-94750000D02*
X141830000Y-94180000D01*
X182060000Y-107660000D02*
X182060000Y-105280000D01*
X142060000Y-96020000D02*
X143460000Y-96020000D01*
X143460000Y-96020000D02*
X143880000Y-96440000D01*
X121900000Y-80640000D02*
X121900000Y-80460000D01*
X121900000Y-80460000D02*
X123000000Y-79360000D01*
X123000000Y-79360000D02*
X125460000Y-79360000D01*
X125460000Y-79360000D02*
X128240000Y-82140000D01*
X128240000Y-82140000D02*
X128240000Y-85460000D01*
X128240000Y-85460000D02*
X129900000Y-87120000D01*
X129900000Y-87120000D02*
X132360000Y-87120000D01*
X171450000Y-73860000D02*
X174790000Y-73860000D01*
X174790000Y-73860000D02*
X174800000Y-73870000D01*
X171460000Y-73870000D02*
X171450000Y-73860000D01*
X163090000Y-74290000D02*
X164230000Y-74290000D01*
X164230000Y-74290000D02*
X164660000Y-73860000D01*
X164660000Y-73860000D02*
X166050000Y-73860000D01*
X166050000Y-73860000D02*
X167090000Y-73860000D01*
X169120000Y-65720000D02*
X166640000Y-63240000D01*
X169120000Y-67050000D02*
X169120000Y-65720000D01*
X168480000Y-67690000D02*
X169120000Y-67050000D01*
X168480000Y-72470000D02*
X168480000Y-67690000D01*
X167090000Y-73860000D02*
X168480000Y-72470000D01*
X166640000Y-63240000D02*
X166640000Y-62750000D01*
X166050000Y-73860000D02*
X164660000Y-73860000D01*
D47*
X166110000Y-73800000D02*
X166050000Y-73860000D01*
D44*
X174850000Y-66230000D02*
X171460000Y-66230000D01*
X171460000Y-66230000D02*
X171450000Y-66240000D01*
X171720000Y-62750000D02*
X171720000Y-63820000D01*
X173100000Y-65200000D02*
X173100000Y-66240000D01*
X171720000Y-63820000D02*
X173100000Y-65200000D01*
X171450000Y-66240000D02*
X173100000Y-66240000D01*
X134730000Y-108440000D02*
X135150000Y-108860000D01*
X156310000Y-109270000D02*
X156310000Y-111060000D01*
X155900000Y-108860000D02*
X156310000Y-109270000D01*
X135150000Y-108860000D02*
X155900000Y-108860000D01*
X131160000Y-106390000D02*
X133410000Y-106390000D01*
X133410000Y-106390000D02*
X134730000Y-107710000D01*
X134730000Y-107710000D02*
X134730000Y-108440000D01*
X134730000Y-108440000D02*
X134730000Y-107710000D01*
X134730000Y-107710000D02*
X133410000Y-106390000D01*
X133040000Y-102580000D02*
X131160000Y-102580000D01*
D45*
X158550000Y-70950000D02*
X160860000Y-70950000D01*
X160860000Y-70950000D02*
X161550000Y-71640000D01*
D44*
X171450000Y-72590000D02*
X169830000Y-72590000D01*
X169830000Y-72590000D02*
X169760000Y-72660000D01*
X170460000Y-75770000D02*
X174800000Y-75770000D01*
X169760000Y-75070000D02*
X170460000Y-75770000D01*
X169760000Y-72660000D02*
X169760000Y-75070000D01*
X174800000Y-75770000D02*
X174800000Y-78230000D01*
X176800000Y-74820000D02*
X178570000Y-74820000D01*
X179030000Y-65220000D02*
X179030000Y-74360000D01*
X176800000Y-62750000D02*
X176800000Y-62990000D01*
X176800000Y-62990000D02*
X179030000Y-65220000D01*
X179030000Y-74360000D02*
X178570000Y-74820000D01*
X136560000Y-107660000D02*
X141560000Y-107660000D01*
X166470000Y-109360000D02*
X166470000Y-111060000D01*
X163450000Y-106340000D02*
X166470000Y-109360000D01*
X145300000Y-106340000D02*
X163450000Y-106340000D01*
X145300000Y-105590000D02*
X145300000Y-106340000D01*
X144530000Y-104820000D02*
X145300000Y-105590000D01*
X142880000Y-104820000D02*
X144530000Y-104820000D01*
X142140000Y-105560000D02*
X142880000Y-104820000D01*
X142140000Y-107080000D02*
X142140000Y-105560000D01*
X141560000Y-107660000D02*
X142140000Y-107080000D01*
X161390000Y-111060000D02*
X161390000Y-109010000D01*
X159950000Y-107570000D02*
X161390000Y-109010000D01*
X136560000Y-103850000D02*
X138650000Y-103850000D01*
X143720000Y-107230000D02*
X144060000Y-107570000D01*
X144060000Y-107570000D02*
X159950000Y-107570000D01*
X143720000Y-106210000D02*
X143720000Y-107230000D01*
X143070000Y-80100000D02*
X142060000Y-80100000D01*
X142060000Y-80100000D02*
X141980000Y-80180000D01*
X141980000Y-80180000D02*
X141550000Y-80180000D01*
X141550000Y-80180000D02*
X141260000Y-80470000D01*
X141260000Y-80470000D02*
X141260000Y-84620000D01*
X127140000Y-88330000D02*
X128330000Y-89520000D01*
X128330000Y-89520000D02*
X132360000Y-89520000D01*
X174790000Y-67800000D02*
X174820000Y-67800000D01*
X174820000Y-67800000D02*
X175110000Y-67510000D01*
X176350000Y-66230000D02*
X176350000Y-67310000D01*
X176350000Y-67310000D02*
X176150000Y-67510000D01*
X176150000Y-67510000D02*
X175110000Y-67510000D01*
X175110000Y-67510000D02*
X174530000Y-67510000D01*
X174790000Y-68930000D02*
X174790000Y-67800000D01*
X174790000Y-67800000D02*
X174790000Y-67770000D01*
X174790000Y-67770000D02*
X174530000Y-67510000D01*
X171450000Y-67510000D02*
X174530000Y-67510000D01*
X147210000Y-101350000D02*
X147020000Y-101350000D01*
X147020000Y-101350000D02*
X146800000Y-101130000D01*
X148240000Y-96110000D02*
X147370000Y-96110000D01*
X146800000Y-96680000D02*
X146800000Y-101130000D01*
X147370000Y-96110000D02*
X146800000Y-96680000D01*
X148210000Y-101350000D02*
X147210000Y-101350000D01*
X147210000Y-101350000D02*
X147120000Y-101350000D01*
X147120000Y-101350000D02*
X146800000Y-101670000D01*
X146800000Y-101670000D02*
X146800000Y-102160000D01*
X165460000Y-102760000D02*
X166500000Y-101720000D01*
X147400000Y-102760000D02*
X165460000Y-102760000D01*
X146800000Y-102160000D02*
X147400000Y-102760000D01*
X164410000Y-96865000D02*
X166185000Y-96865000D01*
X166185000Y-96865000D02*
X166500000Y-97180000D01*
X166500000Y-97180000D02*
X166500000Y-101720000D01*
X146800000Y-101130000D02*
X146800000Y-101670000D01*
X165035000Y-96865000D02*
X164410000Y-96875000D01*
X113210000Y-91390000D02*
X114800000Y-91390000D01*
X114800000Y-91390000D02*
X115990000Y-92580000D01*
X113210000Y-88410000D02*
X115980000Y-88410000D01*
D46*
X105425000Y-93510000D02*
X105425000Y-91875000D01*
X105425000Y-91875000D02*
X105920000Y-91380000D01*
X105920000Y-91380000D02*
X107710000Y-91380000D01*
X104155000Y-84110000D02*
X104155000Y-86865000D01*
X105680000Y-88390000D02*
X107670000Y-88390000D01*
X104155000Y-86865000D02*
X105680000Y-88390000D01*
D43*
X109950000Y-73690000D02*
X109950000Y-75725000D01*
D44*
X109590000Y-80740000D02*
X109590000Y-81020000D01*
X108650000Y-79800000D02*
X109590000Y-80740000D01*
X107750000Y-79800000D02*
X108650000Y-79800000D01*
X119900000Y-73855000D02*
X118245000Y-73855000D01*
X118245000Y-73855000D02*
X118080000Y-73690000D01*
X109940000Y-75715000D02*
X109950000Y-75725000D01*
X109950000Y-73690000D02*
X109940000Y-73700000D01*
D46*
X109950000Y-75725000D02*
X109950000Y-77840000D01*
X111320000Y-79210000D02*
X112170000Y-79210000D01*
X109950000Y-77840000D02*
X111320000Y-79210000D01*
X106785000Y-82945000D02*
X108135000Y-82945000D01*
X108375000Y-83185000D02*
X108375000Y-84950000D01*
X108135000Y-82945000D02*
X108375000Y-83185000D01*
X105550000Y-80750000D02*
X105550000Y-81710000D01*
X105550000Y-81710000D02*
X106785000Y-82945000D01*
X108375000Y-84535000D02*
X108375000Y-84950000D01*
D44*
X138860000Y-96020000D02*
X138860000Y-97170000D01*
X141930000Y-97920000D02*
X141930000Y-98840000D01*
X141770000Y-97760000D02*
X141930000Y-97920000D01*
X139450000Y-97760000D02*
X141770000Y-97760000D01*
X138860000Y-97170000D02*
X139450000Y-97760000D01*
X129480000Y-73180000D02*
X131040000Y-73180000D01*
X131040000Y-73180000D02*
X131900000Y-72320000D01*
X134325000Y-71200000D02*
X133020000Y-71200000D01*
X133020000Y-71200000D02*
X131900000Y-72320000D01*
X125300000Y-72585000D02*
X126575000Y-72585000D01*
X126575000Y-72585000D02*
X127170000Y-73180000D01*
X127170000Y-73180000D02*
X129480000Y-73180000D01*
D46*
X117525000Y-65200000D02*
X117525000Y-69245000D01*
X117525000Y-69245000D02*
X118325000Y-70045000D01*
X118325000Y-70045000D02*
X119900000Y-70045000D01*
X120250000Y-65200000D02*
X117525000Y-65200000D01*
D44*
X136230000Y-65760000D02*
X143870000Y-65760000D01*
X145030000Y-71070000D02*
X146850000Y-71070000D01*
X144490000Y-70530000D02*
X145030000Y-71070000D01*
X144490000Y-66380000D02*
X144490000Y-70530000D01*
X143870000Y-65760000D02*
X144490000Y-66380000D01*
X155840000Y-85160000D02*
X154880000Y-85160000D01*
X154880000Y-85160000D02*
X154720000Y-85000000D01*
X154720000Y-87270000D02*
X155390000Y-87270000D01*
X155390000Y-87270000D02*
X159555000Y-91435000D01*
X153130000Y-82695000D02*
X154135000Y-82695000D01*
X154720000Y-83280000D02*
X154720000Y-84390000D01*
X154135000Y-82695000D02*
X154720000Y-83280000D01*
X154720000Y-84390000D02*
X154720000Y-85000000D01*
X154720000Y-85000000D02*
X154720000Y-87270000D01*
X154720000Y-87270000D02*
X154720000Y-87230000D01*
X159555000Y-91435000D02*
X164370000Y-91435000D01*
D47*
X156045000Y-99415000D02*
X156050000Y-99410000D01*
X156080000Y-99415121D02*
X156045000Y-99415000D01*
D44*
X156080000Y-99415121D02*
X154380121Y-99415121D01*
X154370000Y-99405000D02*
X154370000Y-101310000D01*
X154380121Y-99415121D02*
X154370000Y-99405000D01*
X164370000Y-91435000D02*
X165665000Y-91435000D01*
X165665000Y-91435000D02*
X166300000Y-92070000D01*
X166300000Y-92070000D02*
X166300000Y-93150000D01*
X166300000Y-93150000D02*
X166690000Y-93540000D01*
X166690000Y-93540000D02*
X167670000Y-93540000D01*
X153130000Y-82695000D02*
X151735000Y-82695000D01*
X151735000Y-82695000D02*
X151530000Y-82900000D01*
X151530000Y-82900000D02*
X151300000Y-82730000D01*
X153135000Y-82700000D02*
X153130000Y-82695000D01*
X136230000Y-62750000D02*
X136230000Y-65760000D01*
X136230000Y-62750000D02*
X136230000Y-63200000D01*
X160290000Y-87500000D02*
X161990000Y-87500000D01*
X161990000Y-87500000D02*
X162910000Y-87500000D01*
X162910000Y-87500000D02*
X163035000Y-87625000D01*
X163035000Y-87625000D02*
X164370000Y-87625000D01*
X174800000Y-85130000D02*
X173650000Y-85130000D01*
X172090000Y-83570000D02*
X167360000Y-83570000D01*
X173650000Y-85130000D02*
X172090000Y-83570000D01*
X166060000Y-86510000D02*
X166060000Y-86090000D01*
X166910000Y-85240000D02*
X166910000Y-84020000D01*
X166060000Y-86090000D02*
X166910000Y-85240000D01*
X167360000Y-83570000D02*
X166910000Y-84020000D01*
X164370000Y-87625000D02*
X165725000Y-87625000D01*
X165725000Y-87625000D02*
X166060000Y-87290000D01*
X166060000Y-87290000D02*
X166060000Y-86510000D01*
X164370000Y-88895000D02*
X163145000Y-88895000D01*
X163145000Y-88895000D02*
X163040000Y-89000000D01*
X163040000Y-89000000D02*
X161990000Y-89000000D01*
X160290000Y-89000000D02*
X161990000Y-89000000D01*
X160290000Y-89000000D02*
X159650000Y-89000000D01*
X159650000Y-89000000D02*
X158770000Y-88120000D01*
X158770000Y-88120000D02*
X158770000Y-85470000D01*
X158770000Y-85470000D02*
X159080000Y-85160000D01*
X159080000Y-85160000D02*
X159820000Y-85160000D01*
X159770000Y-95595000D02*
X161905000Y-95595000D01*
X161905000Y-95595000D02*
X162170000Y-95860000D01*
X162170000Y-95860000D02*
X162170000Y-94890000D01*
X161430000Y-93540000D02*
X162360000Y-93540000D01*
X162360000Y-93540000D02*
X162720000Y-93900000D01*
X162720000Y-93900000D02*
X162720000Y-94340000D01*
X162720000Y-94340000D02*
X162170000Y-94890000D01*
X169770000Y-85160000D02*
X169770000Y-87625000D01*
X169780000Y-87615000D02*
X169770000Y-87625000D01*
X159830000Y-78590000D02*
X159830000Y-78720000D01*
X159830000Y-78720000D02*
X159665000Y-78885000D01*
X118630000Y-77200000D02*
X118520000Y-77200000D01*
X118520000Y-77200000D02*
X118300000Y-77420000D01*
X118300000Y-77420000D02*
X118300000Y-78850000D01*
X159830000Y-76720000D02*
X159830000Y-78590000D01*
X159830000Y-78590000D02*
X160125000Y-78885000D01*
X158530000Y-78885000D02*
X159665000Y-78885000D01*
X159665000Y-78885000D02*
X160125000Y-78885000D01*
X160125000Y-78885000D02*
X161165000Y-78885000D01*
X161425000Y-79145000D02*
X162210000Y-79690000D01*
X161165000Y-78885000D02*
X161425000Y-79145000D01*
X162160000Y-95850000D02*
X162170000Y-95860000D01*
X162170000Y-95090000D02*
X162160000Y-95850000D01*
X168120000Y-87620000D02*
X169765000Y-87620000D01*
X169765000Y-87620000D02*
X169770000Y-87625000D01*
X162205000Y-79685000D02*
X162210000Y-79690000D01*
X168120000Y-87620000D02*
X168670000Y-87625000D01*
X168670000Y-87625000D02*
X168675000Y-87620000D01*
D47*
X168125000Y-87615000D02*
X168675000Y-87620000D01*
X168120000Y-87620000D02*
X168125000Y-87615000D01*
X162205000Y-79685000D02*
X162210000Y-79690000D01*
D44*
X149740000Y-96110000D02*
X149740000Y-97170000D01*
X148220000Y-97700000D02*
X148220000Y-98800000D01*
X148280000Y-97640000D02*
X148220000Y-97700000D01*
X149270000Y-97640000D02*
X148280000Y-97640000D01*
X149740000Y-97170000D02*
X149270000Y-97640000D01*
X149740000Y-96110000D02*
X150230000Y-96110000D01*
X150980000Y-95360000D02*
X151610000Y-95360000D01*
X150230000Y-96110000D02*
X150980000Y-95360000D01*
X151610000Y-95360000D02*
X152520000Y-95360000D01*
X152755000Y-95595000D02*
X154370000Y-95595000D01*
X152520000Y-95360000D02*
X152755000Y-95595000D01*
X151610000Y-95561602D02*
X151610000Y-95360000D01*
X154370000Y-96865000D02*
X155855000Y-96865000D01*
X155960000Y-96760000D02*
X155960000Y-94000000D01*
X155855000Y-96865000D02*
X155960000Y-96760000D01*
X149720000Y-98800000D02*
X151240000Y-98800000D01*
X151610000Y-98430000D02*
X151610000Y-96860000D01*
X151240000Y-98800000D02*
X151610000Y-98430000D01*
X151610000Y-96860000D02*
X154365000Y-96860000D01*
X154365000Y-96860000D02*
X154370000Y-96865000D01*
X131760000Y-96180000D02*
X133080000Y-97500000D01*
X133080000Y-97500000D02*
X133880000Y-97500000D01*
X133880000Y-97500000D02*
X134060000Y-97320000D01*
X134060000Y-97320000D02*
X134060000Y-96020000D01*
X131760000Y-96180000D02*
X133080000Y-97500000D01*
X133080000Y-97500000D02*
X133880000Y-97500000D01*
X133880000Y-97500000D02*
X134060000Y-97320000D01*
X146210000Y-76520000D02*
X146210000Y-77410000D01*
X146210000Y-77410000D02*
X146200000Y-77420000D01*
X168150000Y-91410000D02*
X169745000Y-91410000D01*
X146210000Y-77410000D02*
X146200000Y-77420000D01*
X146210000Y-77410000D02*
X146200000Y-77420000D01*
X159770000Y-99405000D02*
X158445000Y-99405000D01*
X158445000Y-99405000D02*
X157890000Y-98850000D01*
X157890000Y-98850000D02*
X157890000Y-95500000D01*
X157890000Y-98850000D02*
X158445000Y-99405000D01*
X169745000Y-91410000D02*
X169770000Y-91435000D01*
X146220000Y-77400000D02*
X146200000Y-77420000D01*
X146210000Y-78590000D02*
X146210000Y-77430000D01*
X146210000Y-77430000D02*
X146200000Y-77420000D01*
X146220000Y-77400000D02*
X146200000Y-77420000D01*
X146220000Y-77400000D02*
X146220000Y-78580000D01*
X146220000Y-78580000D02*
X146210000Y-78590000D01*
X146220000Y-77400000D02*
X146200000Y-77420000D01*
X157970000Y-65140000D02*
X161480000Y-65140000D01*
X161480000Y-65140000D02*
X161480000Y-66240000D01*
X164920000Y-67510000D02*
X166050000Y-67510000D01*
X163710000Y-66300000D02*
X164920000Y-67510000D01*
X161540000Y-66300000D02*
X163710000Y-66300000D01*
X161480000Y-66240000D02*
X161540000Y-66300000D01*
D45*
X161450000Y-65110000D02*
X161480000Y-65140000D01*
D44*
X162980000Y-65140000D02*
X163660000Y-65140000D01*
X164760000Y-66240000D02*
X166050000Y-66240000D01*
X163660000Y-65140000D02*
X164760000Y-66240000D01*
X171450000Y-68780000D02*
X173060000Y-68780000D01*
X166050000Y-66240000D02*
X167620000Y-66240000D01*
D45*
X149050000Y-69890000D02*
X150330000Y-69890000D01*
X151390000Y-70950000D02*
X154150000Y-70950000D01*
X150330000Y-69890000D02*
X151390000Y-70950000D01*
D44*
X160630000Y-74290000D02*
X160630000Y-73260000D01*
X161300000Y-72590000D02*
X166050000Y-72590000D01*
X160630000Y-73260000D02*
X161300000Y-72590000D01*
X159750000Y-74290000D02*
X160630000Y-74290000D01*
X160630000Y-74290000D02*
X161590000Y-74290000D01*
X131160000Y-101310000D02*
X132290000Y-101310000D01*
X134860000Y-97860000D02*
X134860000Y-96020000D01*
X132890000Y-99830000D02*
X134860000Y-97860000D01*
X132890000Y-100710000D02*
X132890000Y-99830000D01*
X132290000Y-101310000D02*
X132890000Y-100710000D01*
X134020000Y-103540000D02*
X134020000Y-100160000D01*
X134020000Y-100160000D02*
X134010000Y-100150000D01*
X134010000Y-100150000D02*
X135660000Y-98500000D01*
X131160000Y-105120000D02*
X132440000Y-105120000D01*
X132440000Y-105120000D02*
X134020000Y-103540000D01*
X135660000Y-98500000D02*
X135660000Y-96020000D01*
X144680000Y-86320000D02*
X145130000Y-85870000D01*
X145130000Y-85870000D02*
X145130000Y-85220000D01*
X143760000Y-86320000D02*
X144680000Y-86320000D01*
X173370000Y-86430000D02*
X173410000Y-86650000D01*
X173410000Y-86650000D02*
X173410000Y-87615000D01*
X143770000Y-86310000D02*
X143760000Y-86320000D01*
X143760000Y-88720000D02*
X145670000Y-88720000D01*
X145670000Y-88720000D02*
X147070000Y-87320000D01*
X152370000Y-88500000D02*
X155350000Y-88500000D01*
X155350000Y-88500000D02*
X159210000Y-92360000D01*
X147070000Y-87320000D02*
X151190000Y-87320000D01*
X151190000Y-87320000D02*
X152370000Y-88500000D01*
X159210000Y-92360000D02*
X162850000Y-92360000D01*
X162850000Y-92360000D02*
X164410000Y-93920000D01*
X164410000Y-93920000D02*
X164410000Y-95595000D01*
D47*
X143850000Y-88810000D02*
X143760000Y-88720000D01*
D44*
X148950000Y-83210000D02*
X149940000Y-83210000D01*
X152040000Y-84320000D02*
X152040000Y-85140000D01*
X151600000Y-83880000D02*
X152040000Y-84320000D01*
X150610000Y-83880000D02*
X151600000Y-83880000D01*
X149940000Y-83210000D02*
X150610000Y-83880000D01*
X143760000Y-87920000D02*
X145310000Y-87920000D01*
X152040000Y-86030000D02*
X152040000Y-85140000D01*
X151590000Y-86480000D02*
X152040000Y-86030000D01*
X146750000Y-86480000D02*
X151590000Y-86480000D01*
X145310000Y-87920000D02*
X146750000Y-86480000D01*
X158530000Y-81425000D02*
X159785000Y-81425000D01*
X160785000Y-82425000D02*
X161425000Y-82425000D01*
X159785000Y-81425000D02*
X160785000Y-82425000D01*
X161425000Y-82425000D02*
X163385000Y-82425000D01*
X163385000Y-82425000D02*
X163390000Y-82420000D01*
X138860000Y-84620000D02*
X138860000Y-86000000D01*
X139160000Y-86300000D02*
X140550000Y-86300000D01*
X138860000Y-86000000D02*
X139160000Y-86300000D01*
X165350000Y-79700000D02*
X165350000Y-76730000D01*
X163310000Y-76730000D02*
X165350000Y-76730000D01*
X136460000Y-84620000D02*
X136460000Y-82960000D01*
X135290000Y-81790000D02*
X135290000Y-79210000D01*
X136460000Y-82960000D02*
X135290000Y-81790000D01*
X135290000Y-76440000D02*
X135290000Y-79210000D01*
X134650000Y-79200000D02*
X134640000Y-79210000D01*
X134640000Y-78640000D02*
X134650000Y-78650000D01*
D45*
X136450000Y-84610000D02*
X136460000Y-84620000D01*
D44*
X143760000Y-87120000D02*
X144940000Y-87120000D01*
X146200000Y-85860000D02*
X146200000Y-85140000D01*
X144940000Y-87120000D02*
X146200000Y-85860000D01*
X148200000Y-85140000D02*
X146200000Y-85140000D01*
X146200000Y-83210000D02*
X146200000Y-85140000D01*
D45*
X158550000Y-69950000D02*
X162440000Y-69950000D01*
X163610000Y-68780000D02*
X166050000Y-68780000D01*
X162440000Y-69950000D02*
X163610000Y-68780000D01*
X158550000Y-70450000D02*
X162360000Y-70450000D01*
X163230000Y-71320000D02*
X166050000Y-71320000D01*
X162360000Y-70450000D02*
X163230000Y-71320000D01*
X158550000Y-71450000D02*
X157260000Y-71450000D01*
X157260000Y-71450000D02*
X157150000Y-71560000D01*
X157150000Y-72410000D02*
X157400000Y-72660000D01*
X157150000Y-71560000D02*
X157150000Y-72410000D01*
X157400000Y-72660000D02*
X158330000Y-72660000D01*
D47*
X169900000Y-71320000D02*
X171450000Y-71320000D01*
D44*
X100850000Y-107010000D02*
X99190000Y-107010000D01*
X99190000Y-107010000D02*
X98610000Y-106430000D01*
X96530000Y-107350000D02*
X94450000Y-107350000D01*
X97450000Y-106430000D02*
X96530000Y-107350000D01*
X98610000Y-106430000D02*
X97450000Y-106430000D01*
X104120000Y-104530000D02*
X104120000Y-103640000D01*
X104120000Y-103640000D02*
X105890000Y-101870000D01*
X107690000Y-101870000D02*
X105890000Y-101870000D01*
X107690000Y-101870000D02*
X107690000Y-104520000D01*
X102330000Y-104530000D02*
X104120000Y-104530000D01*
X109190000Y-101870000D02*
X111470000Y-101870000D01*
X111470000Y-101870000D02*
X111480000Y-101880000D01*
X111480000Y-101880000D02*
X111480000Y-101050000D01*
X111915000Y-100615000D02*
X116660000Y-100615000D01*
X111480000Y-101050000D02*
X111915000Y-100615000D01*
X109300000Y-107010000D02*
X111460000Y-107010000D01*
X110420000Y-106830000D02*
X110420000Y-107740000D01*
X110420000Y-107740000D02*
X111450000Y-108770000D01*
X110420000Y-104530000D02*
X110420000Y-106830000D01*
X110420000Y-106830000D02*
X110420000Y-106940000D01*
X110420000Y-106940000D02*
X110490000Y-107010000D01*
X110420000Y-104530000D02*
X111440000Y-104530000D01*
X111460000Y-109850000D02*
X111460000Y-109320000D01*
X111460000Y-109320000D02*
X111450000Y-109310000D01*
X111450000Y-109310000D02*
X111450000Y-108770000D01*
X111460000Y-107010000D02*
X110490000Y-107010000D01*
X104970000Y-107007841D02*
X102352159Y-107007841D01*
X102352159Y-107007841D02*
X102350000Y-107010000D01*
X104970000Y-107007841D02*
X104960000Y-107010000D01*
X137260000Y-96020000D02*
X137260000Y-97500000D01*
X137260000Y-97500000D02*
X139770000Y-100010000D01*
X136560000Y-106390000D02*
X138520000Y-106390000D01*
X138520000Y-106390000D02*
X138530000Y-106380000D01*
X138530000Y-106380000D02*
X138830000Y-106080000D01*
X138830000Y-106080000D02*
X138850000Y-106080000D01*
X138850000Y-106080000D02*
X139770000Y-105160000D01*
X139770000Y-105160000D02*
X139770000Y-100010000D01*
X137260000Y-97390000D02*
X137260000Y-96020000D01*
D47*
X138830000Y-106080000D02*
X138830000Y-106100000D01*
D45*
X137260000Y-96020000D02*
X137260000Y-97390000D01*
X138530000Y-106400000D02*
X136350000Y-106400000D01*
X138830000Y-106100000D02*
X138530000Y-106400000D01*
X94980000Y-74860000D02*
X93830000Y-74860000D01*
X93830000Y-74860000D02*
X93400000Y-75290000D01*
X93400000Y-75290000D02*
X93400000Y-75940000D01*
D44*
X98450000Y-75470000D02*
X98450000Y-75360000D01*
X98450000Y-75360000D02*
X97950000Y-74860000D01*
X98450000Y-79020000D02*
X98450000Y-75470000D01*
X95265000Y-84110000D02*
X95265000Y-82225000D01*
X98450000Y-79040000D02*
X98450000Y-79020000D01*
X95265000Y-82225000D02*
X98450000Y-79040000D01*
X94980000Y-74860000D02*
X97950000Y-74860000D01*
X132360000Y-92720000D02*
X128680000Y-92720000D01*
X128520000Y-92880000D02*
X128520000Y-94340000D01*
X128680000Y-92720000D02*
X128520000Y-92880000D01*
D45*
X132330000Y-92690000D02*
X132360000Y-92720000D01*
D44*
X162790000Y-83470000D02*
X162770000Y-83470000D01*
X162770000Y-83470000D02*
X162490000Y-83750000D01*
X162490000Y-83750000D02*
X162490000Y-85160000D01*
X161320000Y-85160000D02*
X162490000Y-85160000D01*
X162490000Y-85160000D02*
X163720000Y-85160000D01*
X165310000Y-82860000D02*
X165310000Y-81600000D01*
X165310000Y-81600000D02*
X165800000Y-81110000D01*
X162790000Y-83470000D02*
X164700000Y-83470000D01*
X164700000Y-83470000D02*
X165310000Y-82860000D01*
X165220000Y-85160000D02*
X165220000Y-84410000D01*
X166470000Y-83160000D02*
X166470000Y-82680000D01*
X165220000Y-84410000D02*
X166470000Y-83160000D01*
X155960000Y-92500000D02*
X155960000Y-91790000D01*
X155960000Y-91790000D02*
X155450000Y-91280000D01*
X151240000Y-81395254D02*
X151240000Y-81390000D01*
X149940000Y-80090000D02*
X149020000Y-80090000D01*
X151240000Y-81390000D02*
X149940000Y-80090000D01*
X151240000Y-81395254D02*
X151240000Y-81395254D01*
X151240000Y-81395254D02*
X151290000Y-81430000D01*
X151270000Y-81410000D02*
X151270000Y-81610000D01*
X151270000Y-81610000D02*
X151290000Y-81430000D01*
X151270000Y-81410000D02*
X153125000Y-81430000D01*
X153125000Y-81430000D02*
X153130000Y-81425000D01*
X153125000Y-81430000D02*
X153130000Y-81425000D01*
X153120000Y-81415000D02*
X153130000Y-81425000D01*
D47*
X153120000Y-81415000D02*
X153130000Y-81425000D01*
D44*
X173410000Y-88885000D02*
X174565000Y-88885000D01*
X176300000Y-86510000D02*
X176300000Y-85130000D01*
X175410000Y-87400000D02*
X176300000Y-86510000D01*
X175410000Y-88040000D02*
X175410000Y-87400000D01*
X174565000Y-88885000D02*
X175410000Y-88040000D01*
X173410000Y-88885000D02*
X172115000Y-88885000D01*
X172115000Y-88885000D02*
X171540000Y-89460000D01*
X173390000Y-94080000D02*
X172000000Y-94080000D01*
X172000000Y-94080000D02*
X171540000Y-93620000D01*
X171540000Y-93620000D02*
X171540000Y-89460000D01*
X173385000Y-88860000D02*
X173410000Y-88885000D01*
X153540000Y-85140000D02*
X153540000Y-86460000D01*
X152890000Y-87110000D02*
X152890000Y-87270000D01*
X153540000Y-86460000D02*
X152890000Y-87110000D01*
X153550000Y-85150000D02*
X153540000Y-85140000D01*
X149050000Y-75020000D02*
X152310000Y-75020000D01*
X152310000Y-75020000D02*
X154710000Y-77420000D01*
X154710000Y-77420000D02*
X154710000Y-78900000D01*
X154710000Y-77420000D02*
X154710000Y-78900000D01*
X153130000Y-78885000D02*
X154705000Y-78895000D01*
X154705000Y-78895000D02*
X154710000Y-78900000D01*
X153125000Y-78890000D02*
X153130000Y-78885000D01*
D47*
X154710000Y-78900000D02*
X154705000Y-78895000D01*
X153125000Y-78890000D02*
X153130000Y-78885000D01*
D44*
X168175000Y-89115000D02*
X168170000Y-89110000D01*
X168175000Y-90165000D02*
X168175000Y-89115000D01*
X168170000Y-90160000D02*
X168175000Y-90165000D01*
X173410000Y-90155000D02*
X175095000Y-90155000D01*
X175095000Y-90155000D02*
X175100000Y-90150000D01*
X169770000Y-88895000D02*
X168385000Y-88895000D01*
X168385000Y-88895000D02*
X168170000Y-89110000D01*
X168345000Y-90165000D02*
X169770000Y-90165000D01*
X168170000Y-89110000D02*
X168170000Y-89990000D01*
X168170000Y-89990000D02*
X168345000Y-90165000D01*
D47*
X175095000Y-90155000D02*
X175100000Y-90150000D01*
X173405000Y-90160000D02*
X173410000Y-90155000D01*
D44*
X145850000Y-94090000D02*
X145850000Y-102660000D01*
X169810000Y-102570000D02*
X169810000Y-99405000D01*
X168480000Y-103900000D02*
X169810000Y-102570000D01*
X147090000Y-103900000D02*
X168480000Y-103900000D01*
X145850000Y-102660000D02*
X147090000Y-103900000D01*
X143760000Y-93520000D02*
X145280000Y-93520000D01*
X145280000Y-93520000D02*
X145850000Y-94090000D01*
X144890000Y-95650000D02*
X144890000Y-103320000D01*
X172220000Y-105050000D02*
X181080000Y-96190000D01*
X146620000Y-105050000D02*
X172220000Y-105050000D01*
X144890000Y-103320000D02*
X146620000Y-105050000D01*
X143760000Y-94320000D02*
X143760000Y-95030000D01*
X144550000Y-95310000D02*
X144890000Y-95650000D01*
X144040000Y-95310000D02*
X144550000Y-95310000D01*
X143760000Y-95030000D02*
X144040000Y-95310000D01*
X181080000Y-96190000D02*
X181080000Y-91950000D01*
X178810000Y-91425000D02*
X180555000Y-91425000D01*
X180555000Y-91425000D02*
X181080000Y-91950000D01*
X149700000Y-85140000D02*
X150660000Y-85140000D01*
X160190000Y-80170000D02*
X160190000Y-80155000D01*
X160190000Y-80155000D02*
X160190000Y-80170000D01*
X160190000Y-80170000D02*
X160190000Y-80155000D01*
X161425000Y-80925000D02*
X161425000Y-80745000D01*
X161425000Y-80745000D02*
X160835000Y-80155000D01*
X160835000Y-80155000D02*
X160190000Y-80155000D01*
X160190000Y-80155000D02*
X158530000Y-80155000D01*
X132360000Y-91920000D02*
X126660000Y-91920000D01*
X125980000Y-92600000D02*
X125980000Y-94340000D01*
X126660000Y-91920000D02*
X125980000Y-92600000D01*
D45*
X142060000Y-84620000D02*
X142060000Y-86400000D01*
X142060000Y-86400000D02*
X141810000Y-86650000D01*
D44*
X119620000Y-107010000D02*
X119620000Y-110720000D01*
X119620000Y-110720000D02*
X118360000Y-111980000D01*
X112960000Y-111690000D02*
X112960000Y-111730000D01*
X112960000Y-111730000D02*
X113210000Y-111980000D01*
X112960000Y-109850000D02*
X112960000Y-111690000D01*
X112960000Y-111690000D02*
X112670000Y-111980000D01*
X109300000Y-109850000D02*
X109300000Y-110930000D01*
X109300000Y-110930000D02*
X110350000Y-111980000D01*
X110350000Y-111980000D02*
X112670000Y-111980000D01*
X112670000Y-111980000D02*
X113210000Y-111980000D01*
X113210000Y-111980000D02*
X118360000Y-111980000D01*
X116760000Y-107010000D02*
X116760000Y-105770000D01*
X116760000Y-105770000D02*
X118000000Y-104530000D01*
X112940000Y-104530000D02*
X116490000Y-104530000D01*
X116490000Y-104530000D02*
X117040000Y-104530000D01*
X117040000Y-104530000D02*
X118000000Y-104530000D01*
X118000000Y-104530000D02*
X120645000Y-101885000D01*
X120645000Y-101885000D02*
X122060000Y-101885000D01*
X109190000Y-104520000D02*
X109190000Y-103550000D01*
X109640000Y-103100000D02*
X114380000Y-103100000D01*
X109190000Y-103550000D02*
X109640000Y-103100000D01*
X112980000Y-101880000D02*
X114375000Y-101880000D01*
X114375000Y-101880000D02*
X114380000Y-101885000D01*
X114380000Y-103100000D02*
X114380000Y-101885000D01*
X114360000Y-101885000D02*
X116660000Y-101885000D01*
X114380000Y-101885000D02*
X114360000Y-101865000D01*
X114360000Y-101865000D02*
X114360000Y-101885000D01*
X121120000Y-107010000D02*
X121810000Y-107010000D01*
X122130000Y-106690000D02*
X122130000Y-105380000D01*
X121810000Y-107010000D02*
X122130000Y-106690000D01*
X136460000Y-96020000D02*
X136460000Y-97790000D01*
X136460000Y-97790000D02*
X138810000Y-100140000D01*
X138810000Y-102340000D02*
X138570000Y-102580000D01*
X138810000Y-100140000D02*
X138810000Y-102340000D01*
X136560000Y-102580000D02*
X138570000Y-102580000D01*
X122060000Y-103155000D02*
X125195000Y-103155000D01*
X125195000Y-103155000D02*
X125200000Y-103150000D01*
X114080000Y-107010000D02*
X114080000Y-108100000D01*
X120945000Y-103155000D02*
X122060000Y-103155000D01*
X118160000Y-105940000D02*
X120945000Y-103155000D01*
X118160000Y-107930000D02*
X118160000Y-105940000D01*
X117630000Y-108460000D02*
X118160000Y-107930000D01*
X114440000Y-108460000D02*
X117630000Y-108460000D01*
X114080000Y-108100000D02*
X114440000Y-108460000D01*
X112960000Y-107010000D02*
X114080000Y-107010000D01*
X114080000Y-107010000D02*
X115260000Y-107010000D01*
D45*
X125195000Y-103155000D02*
X125200000Y-103150000D01*
D44*
X161810000Y-76730000D02*
X161810000Y-77360000D01*
X163820000Y-79370000D02*
X163820000Y-80920000D01*
X161810000Y-77360000D02*
X163820000Y-79370000D01*
X143070000Y-78600000D02*
X141810000Y-78600000D01*
X141810000Y-78600000D02*
X140460000Y-79950000D01*
X140460000Y-79950000D02*
X140460000Y-84620000D01*
X143760000Y-92720000D02*
X146390000Y-92720000D01*
X147550000Y-93880000D02*
X148250000Y-93880000D01*
X146390000Y-92720000D02*
X147550000Y-93880000D01*
X161440000Y-97850000D02*
X161550000Y-97850000D01*
X161550000Y-97850000D02*
X161835000Y-98135000D01*
X164410000Y-98135000D02*
X161835000Y-98135000D01*
X161835000Y-98135000D02*
X159770000Y-98135000D01*
X159770000Y-96865000D02*
X161075000Y-96865000D01*
X161155000Y-98135000D02*
X159770000Y-98135000D01*
X161440000Y-97850000D02*
X161155000Y-98135000D01*
X161440000Y-97230000D02*
X161440000Y-97850000D01*
X161075000Y-96865000D02*
X161440000Y-97230000D01*
D47*
X160375000Y-98135000D02*
X160040000Y-98135000D01*
D44*
X143760000Y-91920000D02*
X146470000Y-91920000D01*
X147090000Y-91300000D02*
X148260000Y-91300000D01*
X146470000Y-91920000D02*
X147090000Y-91300000D01*
X143770000Y-91930000D02*
X143760000Y-91920000D01*
D47*
X143765000Y-91925000D02*
X143760000Y-91920000D01*
D44*
X149760000Y-91300000D02*
X150210000Y-91300000D01*
X151080000Y-92170000D02*
X153480000Y-92170000D01*
X150210000Y-91300000D02*
X151080000Y-92170000D01*
D46*
X93680000Y-66220000D02*
X93680000Y-64120000D01*
D44*
X149050000Y-76520000D02*
X150050000Y-76520000D01*
X150050000Y-76520000D02*
X150990000Y-77460000D01*
X150990000Y-77460000D02*
X150990000Y-79750000D01*
X150990000Y-79750000D02*
X151395000Y-80155000D01*
X151395000Y-80155000D02*
X153130000Y-80155000D01*
X153130000Y-80155000D02*
X151395000Y-80155000D01*
X151395000Y-80155000D02*
X150990000Y-79750000D01*
X153115000Y-80140000D02*
X153130000Y-80155000D01*
X96300000Y-68600000D02*
X98080000Y-68600000D01*
X98080000Y-68600000D02*
X98470000Y-68990000D01*
X94980000Y-73560000D02*
X96390000Y-73560000D01*
X96390000Y-73560000D02*
X97110000Y-72840000D01*
X97110000Y-70170000D02*
X96300000Y-69360000D01*
X97110000Y-72840000D02*
X97110000Y-70170000D01*
X96300000Y-69360000D02*
X96300000Y-68600000D01*
X100830000Y-104530000D02*
X99140000Y-104530000D01*
X96540000Y-104850000D02*
X94450000Y-104850000D01*
X97450000Y-103940000D02*
X96540000Y-104850000D01*
X98550000Y-103940000D02*
X97450000Y-103940000D01*
X99140000Y-104530000D02*
X98550000Y-103940000D01*
D46*
X113670000Y-81780000D02*
X115030000Y-81780000D01*
X116350000Y-83100000D02*
X118050000Y-83100000D01*
X115030000Y-81780000D02*
X116350000Y-83100000D01*
D44*
X118300000Y-80750000D02*
X118300000Y-82850000D01*
X118300000Y-82850000D02*
X118050000Y-83100000D01*
X142380000Y-67670000D02*
X136240000Y-67670000D01*
X136240000Y-67670000D02*
X136230000Y-67660000D01*
X132120000Y-67470000D02*
X132120000Y-68320000D01*
X138400000Y-68440000D02*
X138400000Y-67660000D01*
X137980000Y-68860000D02*
X138400000Y-68440000D01*
X132660000Y-68860000D02*
X137980000Y-68860000D01*
X132120000Y-68320000D02*
X132660000Y-68860000D01*
X136480000Y-67660000D02*
X138400000Y-67660000D01*
X138400000Y-67660000D02*
X140970000Y-67660000D01*
X140970000Y-67660000D02*
X140980000Y-67670000D01*
X152370000Y-93880000D02*
X149750000Y-93880000D01*
D46*
X142075000Y-89525000D02*
X141965000Y-89525000D01*
X141965000Y-89525000D02*
X140070000Y-87630000D01*
X143760000Y-89520000D02*
X142080000Y-89520000D01*
X142080000Y-89520000D02*
X142075000Y-89525000D01*
D44*
X139760000Y-75000000D02*
X139760000Y-70450000D01*
X139760000Y-70450000D02*
X139750000Y-70440000D01*
X143755000Y-89525000D02*
X143760000Y-89520000D01*
D47*
X142075000Y-89525000D02*
X142080000Y-89520000D01*
D44*
X182060000Y-109160000D02*
X182060000Y-111030000D01*
X182060000Y-111030000D02*
X182070000Y-111040000D01*
X179540000Y-109160000D02*
X179540000Y-111030000D01*
X179540000Y-111030000D02*
X179530000Y-111040000D01*
X177000000Y-109130000D02*
X177000000Y-111030000D01*
X177000000Y-111030000D02*
X176990000Y-111040000D01*
X174460000Y-109130000D02*
X174460000Y-111030000D01*
X174460000Y-111030000D02*
X174450000Y-111040000D01*
X92200000Y-91470000D02*
X92190000Y-93900000D01*
X97805000Y-91385000D02*
X97805000Y-93510000D01*
X97400000Y-90980000D02*
X97805000Y-91385000D01*
X97390000Y-90980000D02*
X97400000Y-90980000D01*
X92270000Y-96120000D02*
X93100000Y-96120000D01*
X93720000Y-96740000D02*
X95260000Y-96740000D01*
X93100000Y-96120000D02*
X93720000Y-96740000D01*
X95265000Y-93510000D02*
X95265000Y-96735000D01*
X95265000Y-96735000D02*
X95260000Y-96740000D01*
X94580000Y-96850000D02*
X94600000Y-96830000D01*
X135660000Y-84620000D02*
X135660000Y-83240000D01*
X131590000Y-80460000D02*
X131590000Y-79210000D01*
X132220000Y-81090000D02*
X131590000Y-80460000D01*
X133510000Y-81090000D02*
X132220000Y-81090000D01*
X135660000Y-83240000D02*
X133510000Y-81090000D01*
X131600000Y-76440000D02*
X131600000Y-79200000D01*
X131600000Y-79200000D02*
X131590000Y-79210000D01*
X130950000Y-78650000D02*
X130950000Y-79870000D01*
X98960000Y-96740000D02*
X100220000Y-96740000D01*
X100840000Y-96120000D02*
X101700000Y-96120000D01*
X100220000Y-96740000D02*
X100840000Y-96120000D01*
X96535000Y-93510000D02*
X96535000Y-94705000D01*
X96535000Y-94705000D02*
X98570000Y-96740000D01*
X98570000Y-96740000D02*
X98960000Y-96740000D01*
D48*
G36*
X142385510Y-112554500D02*
X141954490Y-112554500D01*
X142170000Y-112410501D01*
X142385510Y-112554500D01*
X142385510Y-112554500D01*
G37*
X142385510Y-112554500D02*
X141954490Y-112554500D01*
X142170000Y-112410501D01*
X142385510Y-112554500D01*
G36*
X160350476Y-112554500D02*
X159889524Y-112554500D01*
X160120000Y-112400501D01*
X160350476Y-112554500D01*
X160350476Y-112554500D01*
G37*
X160350476Y-112554500D02*
X159889524Y-112554500D01*
X160120000Y-112400501D01*
X160350476Y-112554500D01*
G36*
X162890476Y-112554500D02*
X162429524Y-112554500D01*
X162660000Y-112400501D01*
X162890476Y-112554500D01*
X162890476Y-112554500D01*
G37*
X162890476Y-112554500D02*
X162429524Y-112554500D01*
X162660000Y-112400501D01*
X162890476Y-112554500D01*
G36*
X173194708Y-106260499D02*
X173231300Y-106297155D01*
X173231300Y-106791730D01*
X173093750Y-106993041D01*
X173015389Y-107380000D01*
X173015389Y-107880000D01*
X173083410Y-108241499D01*
X173171783Y-108378835D01*
X173093750Y-108493041D01*
X173015389Y-108880000D01*
X173015389Y-109380000D01*
X173060480Y-109619639D01*
X172608589Y-109317694D01*
X171910000Y-109178736D01*
X171211411Y-109317694D01*
X170619177Y-109713413D01*
X170223458Y-110305647D01*
X170084500Y-111004236D01*
X170084500Y-111075764D01*
X170223458Y-111774353D01*
X170619177Y-112366587D01*
X170900408Y-112554500D01*
X168060280Y-112554500D01*
X168236250Y-112296959D01*
X168314611Y-111910000D01*
X168314611Y-110210000D01*
X168246590Y-109848501D01*
X168032945Y-109516487D01*
X167706959Y-109293750D01*
X167632524Y-109278677D01*
X167558977Y-108908931D01*
X167303467Y-108526533D01*
X165005634Y-106228700D01*
X172220000Y-106228700D01*
X172671069Y-106138977D01*
X173042069Y-105891083D01*
X173194708Y-106260499D01*
X173194708Y-106260499D01*
G37*
X173194708Y-106260499D02*
X173231300Y-106297155D01*
X173231300Y-106791730D01*
X173093750Y-106993041D01*
X173015389Y-107380000D01*
X173015389Y-107880000D01*
X173083410Y-108241499D01*
X173171783Y-108378835D01*
X173093750Y-108493041D01*
X173015389Y-108880000D01*
X173015389Y-109380000D01*
X173060480Y-109619639D01*
X172608589Y-109317694D01*
X171910000Y-109178736D01*
X171211411Y-109317694D01*
X170619177Y-109713413D01*
X170223458Y-110305647D01*
X170084500Y-111004236D01*
X170084500Y-111075764D01*
X170223458Y-111774353D01*
X170619177Y-112366587D01*
X170900408Y-112554500D01*
X168060280Y-112554500D01*
X168236250Y-112296959D01*
X168314611Y-111910000D01*
X168314611Y-110210000D01*
X168246590Y-109848501D01*
X168032945Y-109516487D01*
X167706959Y-109293750D01*
X167632524Y-109278677D01*
X167558977Y-108908931D01*
X167303467Y-108526533D01*
X165005634Y-106228700D01*
X172220000Y-106228700D01*
X172671069Y-106138977D01*
X173042069Y-105891083D01*
X173194708Y-106260499D01*
G36*
X157810476Y-112554500D02*
X157349524Y-112554500D01*
X157580000Y-112400501D01*
X157810476Y-112554500D01*
X157810476Y-112554500D01*
G37*
X157810476Y-112554500D02*
X157349524Y-112554500D01*
X157580000Y-112400501D01*
X157810476Y-112554500D01*
G36*
X173440408Y-112554500D02*
X172919592Y-112554500D01*
X173180000Y-112380501D01*
X173440408Y-112554500D01*
X173440408Y-112554500D01*
G37*
X173440408Y-112554500D02*
X172919592Y-112554500D01*
X173180000Y-112380501D01*
X173440408Y-112554500D01*
G36*
X175980408Y-112554500D02*
X175459592Y-112554500D01*
X175720000Y-112380501D01*
X175980408Y-112554500D01*
X175980408Y-112554500D01*
G37*
X175980408Y-112554500D02*
X175459592Y-112554500D01*
X175720000Y-112380501D01*
X175980408Y-112554500D01*
G36*
X178520408Y-112554500D02*
X177999592Y-112554500D01*
X178260000Y-112380501D01*
X178520408Y-112554500D01*
X178520408Y-112554500D01*
G37*
X178520408Y-112554500D02*
X177999592Y-112554500D01*
X178260000Y-112380501D01*
X178520408Y-112554500D01*
G36*
X155270476Y-112554500D02*
X154809524Y-112554500D01*
X155040000Y-112400501D01*
X155270476Y-112554500D01*
X155270476Y-112554500D01*
G37*
X155270476Y-112554500D02*
X154809524Y-112554500D01*
X155040000Y-112400501D01*
X155270476Y-112554500D01*
G36*
X152730476Y-112554500D02*
X152269524Y-112554500D01*
X152500000Y-112400501D01*
X152730476Y-112554500D01*
X152730476Y-112554500D01*
G37*
X152730476Y-112554500D02*
X152269524Y-112554500D01*
X152500000Y-112400501D01*
X152730476Y-112554500D01*
G36*
X150190476Y-112554500D02*
X149729524Y-112554500D01*
X149960000Y-112400501D01*
X150190476Y-112554500D01*
X150190476Y-112554500D01*
G37*
X150190476Y-112554500D02*
X149729524Y-112554500D01*
X149960000Y-112400501D01*
X150190476Y-112554500D01*
G36*
X147003458Y-110325647D02*
X146864500Y-111024236D01*
X146864500Y-111095764D01*
X147003458Y-111794353D01*
X147399177Y-112386587D01*
X147650476Y-112554500D01*
X144494490Y-112554500D01*
X144730823Y-112396587D01*
X145126542Y-111804353D01*
X145265500Y-111105764D01*
X145265500Y-111034236D01*
X145126542Y-110335647D01*
X144928128Y-110038700D01*
X147195190Y-110038700D01*
X147003458Y-110325647D01*
X147003458Y-110325647D01*
G37*
X147003458Y-110325647D02*
X146864500Y-111024236D01*
X146864500Y-111095764D01*
X147003458Y-111794353D01*
X147399177Y-112386587D01*
X147650476Y-112554500D01*
X144494490Y-112554500D01*
X144730823Y-112396587D01*
X145126542Y-111804353D01*
X145265500Y-111105764D01*
X145265500Y-111034236D01*
X145126542Y-110335647D01*
X144928128Y-110038700D01*
X147195190Y-110038700D01*
X147003458Y-110325647D01*
G36*
X188944500Y-62214776D02*
X188944500Y-65425442D01*
X188766587Y-65159177D01*
X188174353Y-64763458D01*
X187475764Y-64624500D01*
X187404236Y-64624500D01*
X186705647Y-64763458D01*
X186471558Y-64919872D01*
X186462945Y-64906487D01*
X186136959Y-64683750D01*
X185750000Y-64605389D01*
X184050000Y-64605389D01*
X183688501Y-64673410D01*
X183356487Y-64887055D01*
X183133750Y-65213041D01*
X183055389Y-65600000D01*
X183055389Y-67300000D01*
X183123410Y-67661499D01*
X183337055Y-67993513D01*
X183364303Y-68012131D01*
X183177694Y-68291411D01*
X183038736Y-68990000D01*
X183177694Y-69688589D01*
X183559499Y-70260000D01*
X183177694Y-70831411D01*
X183038736Y-71530000D01*
X183177694Y-72228589D01*
X183573413Y-72820823D01*
X184165647Y-73216542D01*
X184864236Y-73355500D01*
X184935764Y-73355500D01*
X185634353Y-73216542D01*
X186170000Y-72858633D01*
X186705647Y-73216542D01*
X187404236Y-73355500D01*
X187475764Y-73355500D01*
X188174353Y-73216542D01*
X188766587Y-72820823D01*
X188944500Y-72554558D01*
X188944500Y-74960476D01*
X188776587Y-74709177D01*
X188184353Y-74313458D01*
X187485764Y-74174500D01*
X187414236Y-74174500D01*
X186715647Y-74313458D01*
X186481558Y-74469872D01*
X186472945Y-74456487D01*
X186146959Y-74233750D01*
X185760000Y-74155389D01*
X184060000Y-74155389D01*
X183698501Y-74223410D01*
X183366487Y-74437055D01*
X183143750Y-74763041D01*
X183065389Y-75150000D01*
X183065389Y-76850000D01*
X183133410Y-77211499D01*
X183347055Y-77543513D01*
X183374303Y-77562131D01*
X183187694Y-77841411D01*
X183048736Y-78540000D01*
X183187694Y-79238589D01*
X183569499Y-79810000D01*
X183187694Y-80381411D01*
X183048736Y-81080000D01*
X183187694Y-81778589D01*
X183569499Y-82350000D01*
X183187694Y-82921411D01*
X183048736Y-83620000D01*
X183187694Y-84318589D01*
X183569499Y-84890000D01*
X183187694Y-85461411D01*
X183048736Y-86160000D01*
X183187694Y-86858589D01*
X183569499Y-87430000D01*
X183187694Y-88001411D01*
X183048736Y-88700000D01*
X183187694Y-89398589D01*
X183569499Y-89970000D01*
X183187694Y-90541411D01*
X183048736Y-91240000D01*
X183187694Y-91938589D01*
X183583413Y-92530823D01*
X184175647Y-92926542D01*
X184874236Y-93065500D01*
X184945764Y-93065500D01*
X185644353Y-92926542D01*
X186180000Y-92568633D01*
X186715647Y-92926542D01*
X187414236Y-93065500D01*
X187485764Y-93065500D01*
X188184353Y-92926542D01*
X188776587Y-92530823D01*
X188944500Y-92279524D01*
X188944500Y-94710476D01*
X188776587Y-94459177D01*
X188184353Y-94063458D01*
X187485764Y-93924500D01*
X187414236Y-93924500D01*
X186715647Y-94063458D01*
X186481558Y-94219872D01*
X186472945Y-94206487D01*
X186146959Y-93983750D01*
X185760000Y-93905389D01*
X184060000Y-93905389D01*
X183698501Y-93973410D01*
X183366487Y-94187055D01*
X183143750Y-94513041D01*
X183065389Y-94900000D01*
X183065389Y-96600000D01*
X183133410Y-96961499D01*
X183347055Y-97293513D01*
X183374303Y-97312131D01*
X183187694Y-97591411D01*
X183048736Y-98290000D01*
X183187694Y-98988589D01*
X183569499Y-99560000D01*
X183187694Y-100131411D01*
X183048736Y-100830000D01*
X183187694Y-101528589D01*
X183569499Y-102100000D01*
X183187694Y-102671411D01*
X183048736Y-103370000D01*
X183187694Y-104068589D01*
X183583413Y-104660823D01*
X184175647Y-105056542D01*
X184874236Y-105195500D01*
X184945764Y-105195500D01*
X185644353Y-105056542D01*
X186180000Y-104698633D01*
X186715647Y-105056542D01*
X187414236Y-105195500D01*
X187485764Y-105195500D01*
X188184353Y-105056542D01*
X188776587Y-104660823D01*
X188944500Y-104409524D01*
X188944500Y-108529483D01*
X187994482Y-108135001D01*
X186850537Y-108134002D01*
X185793288Y-108570849D01*
X184983691Y-109379034D01*
X184545001Y-110435518D01*
X184544002Y-111579463D01*
X184946880Y-112554500D01*
X183646614Y-112554500D01*
X183836250Y-112276959D01*
X183914611Y-111890000D01*
X183914611Y-110190000D01*
X183846590Y-109828501D01*
X183632945Y-109496487D01*
X183504611Y-109408800D01*
X183504611Y-108910000D01*
X183436590Y-108548501D01*
X183348217Y-108411165D01*
X183426250Y-108296959D01*
X183504611Y-107910000D01*
X183504611Y-107410000D01*
X183436590Y-107048501D01*
X183238700Y-106740971D01*
X183238700Y-106127734D01*
X183273876Y-106092619D01*
X183492451Y-105566232D01*
X183492948Y-104996269D01*
X183275292Y-104469501D01*
X182872619Y-104066124D01*
X182346232Y-103847549D01*
X181776269Y-103847052D01*
X181249501Y-104064708D01*
X180846124Y-104467381D01*
X180803429Y-104570203D01*
X180745292Y-104429501D01*
X180342619Y-104026124D01*
X179816232Y-103807549D01*
X179246269Y-103807052D01*
X178719501Y-104024708D01*
X178316124Y-104427381D01*
X178224385Y-104648314D01*
X178175292Y-104529501D01*
X177772619Y-104126124D01*
X177246232Y-103907549D01*
X176676269Y-103907052D01*
X176149501Y-104124708D01*
X175746124Y-104527381D01*
X175662338Y-104729160D01*
X175625292Y-104639501D01*
X175222619Y-104236124D01*
X174853911Y-104083023D01*
X181913467Y-97023467D01*
X182168977Y-96641069D01*
X182258700Y-96190000D01*
X182258700Y-91950000D01*
X182168977Y-91498931D01*
X182007980Y-91257981D01*
X182313876Y-90952619D01*
X182532451Y-90426232D01*
X182532948Y-89856269D01*
X182315292Y-89329501D01*
X181912619Y-88926124D01*
X181386232Y-88707549D01*
X180816269Y-88707052D01*
X180579611Y-88804837D01*
X180579611Y-88585000D01*
X180514262Y-88237703D01*
X180579611Y-87915000D01*
X180579611Y-87315000D01*
X180511590Y-86953501D01*
X180297945Y-86621487D01*
X179988700Y-86410189D01*
X179988700Y-79060000D01*
X179898977Y-78608931D01*
X179643467Y-78226533D01*
X178813467Y-77396533D01*
X178431069Y-77141023D01*
X177980000Y-77051300D01*
X177211447Y-77051300D01*
X176936959Y-76863750D01*
X176550000Y-76785389D01*
X176050000Y-76785389D01*
X176004294Y-76793989D01*
X176166250Y-76556959D01*
X176240084Y-76192353D01*
X176350000Y-76214611D01*
X177250000Y-76214611D01*
X177611499Y-76146590D01*
X177841327Y-75998700D01*
X178570000Y-75998700D01*
X179021069Y-75908977D01*
X179403467Y-75653467D01*
X179863467Y-75193467D01*
X180118977Y-74811069D01*
X180208700Y-74360000D01*
X180208700Y-65527597D01*
X180515518Y-65654999D01*
X181659463Y-65655998D01*
X182716712Y-65219151D01*
X183526309Y-64410966D01*
X183964999Y-63354482D01*
X183965998Y-62210537D01*
X183587912Y-61295500D01*
X188025224Y-61295500D01*
X188944500Y-62214776D01*
X188944500Y-62214776D01*
G37*
X188944500Y-62214776D02*
X188944500Y-65425442D01*
X188766587Y-65159177D01*
X188174353Y-64763458D01*
X187475764Y-64624500D01*
X187404236Y-64624500D01*
X186705647Y-64763458D01*
X186471558Y-64919872D01*
X186462945Y-64906487D01*
X186136959Y-64683750D01*
X185750000Y-64605389D01*
X184050000Y-64605389D01*
X183688501Y-64673410D01*
X183356487Y-64887055D01*
X183133750Y-65213041D01*
X183055389Y-65600000D01*
X183055389Y-67300000D01*
X183123410Y-67661499D01*
X183337055Y-67993513D01*
X183364303Y-68012131D01*
X183177694Y-68291411D01*
X183038736Y-68990000D01*
X183177694Y-69688589D01*
X183559499Y-70260000D01*
X183177694Y-70831411D01*
X183038736Y-71530000D01*
X183177694Y-72228589D01*
X183573413Y-72820823D01*
X184165647Y-73216542D01*
X184864236Y-73355500D01*
X184935764Y-73355500D01*
X185634353Y-73216542D01*
X186170000Y-72858633D01*
X186705647Y-73216542D01*
X187404236Y-73355500D01*
X187475764Y-73355500D01*
X188174353Y-73216542D01*
X188766587Y-72820823D01*
X188944500Y-72554558D01*
X188944500Y-74960476D01*
X188776587Y-74709177D01*
X188184353Y-74313458D01*
X187485764Y-74174500D01*
X187414236Y-74174500D01*
X186715647Y-74313458D01*
X186481558Y-74469872D01*
X186472945Y-74456487D01*
X186146959Y-74233750D01*
X185760000Y-74155389D01*
X184060000Y-74155389D01*
X183698501Y-74223410D01*
X183366487Y-74437055D01*
X183143750Y-74763041D01*
X183065389Y-75150000D01*
X183065389Y-76850000D01*
X183133410Y-77211499D01*
X183347055Y-77543513D01*
X183374303Y-77562131D01*
X183187694Y-77841411D01*
X183048736Y-78540000D01*
X183187694Y-79238589D01*
X183569499Y-79810000D01*
X183187694Y-80381411D01*
X183048736Y-81080000D01*
X183187694Y-81778589D01*
X183569499Y-82350000D01*
X183187694Y-82921411D01*
X183048736Y-83620000D01*
X183187694Y-84318589D01*
X183569499Y-84890000D01*
X183187694Y-85461411D01*
X183048736Y-86160000D01*
X183187694Y-86858589D01*
X183569499Y-87430000D01*
X183187694Y-88001411D01*
X183048736Y-88700000D01*
X183187694Y-89398589D01*
X183569499Y-89970000D01*
X183187694Y-90541411D01*
X183048736Y-91240000D01*
X183187694Y-91938589D01*
X183583413Y-92530823D01*
X184175647Y-92926542D01*
X184874236Y-93065500D01*
X184945764Y-93065500D01*
X185644353Y-92926542D01*
X186180000Y-92568633D01*
X186715647Y-92926542D01*
X187414236Y-93065500D01*
X187485764Y-93065500D01*
X188184353Y-92926542D01*
X188776587Y-92530823D01*
X188944500Y-92279524D01*
X188944500Y-94710476D01*
X188776587Y-94459177D01*
X188184353Y-94063458D01*
X187485764Y-93924500D01*
X187414236Y-93924500D01*
X186715647Y-94063458D01*
X186481558Y-94219872D01*
X186472945Y-94206487D01*
X186146959Y-93983750D01*
X185760000Y-93905389D01*
X184060000Y-93905389D01*
X183698501Y-93973410D01*
X183366487Y-94187055D01*
X183143750Y-94513041D01*
X183065389Y-94900000D01*
X183065389Y-96600000D01*
X183133410Y-96961499D01*
X183347055Y-97293513D01*
X183374303Y-97312131D01*
X183187694Y-97591411D01*
X183048736Y-98290000D01*
X183187694Y-98988589D01*
X183569499Y-99560000D01*
X183187694Y-100131411D01*
X183048736Y-100830000D01*
X183187694Y-101528589D01*
X183569499Y-102100000D01*
X183187694Y-102671411D01*
X183048736Y-103370000D01*
X183187694Y-104068589D01*
X183583413Y-104660823D01*
X184175647Y-105056542D01*
X184874236Y-105195500D01*
X184945764Y-105195500D01*
X185644353Y-105056542D01*
X186180000Y-104698633D01*
X186715647Y-105056542D01*
X187414236Y-105195500D01*
X187485764Y-105195500D01*
X188184353Y-105056542D01*
X188776587Y-104660823D01*
X188944500Y-104409524D01*
X188944500Y-108529483D01*
X187994482Y-108135001D01*
X186850537Y-108134002D01*
X185793288Y-108570849D01*
X184983691Y-109379034D01*
X184545001Y-110435518D01*
X184544002Y-111579463D01*
X184946880Y-112554500D01*
X183646614Y-112554500D01*
X183836250Y-112276959D01*
X183914611Y-111890000D01*
X183914611Y-110190000D01*
X183846590Y-109828501D01*
X183632945Y-109496487D01*
X183504611Y-109408800D01*
X183504611Y-108910000D01*
X183436590Y-108548501D01*
X183348217Y-108411165D01*
X183426250Y-108296959D01*
X183504611Y-107910000D01*
X183504611Y-107410000D01*
X183436590Y-107048501D01*
X183238700Y-106740971D01*
X183238700Y-106127734D01*
X183273876Y-106092619D01*
X183492451Y-105566232D01*
X183492948Y-104996269D01*
X183275292Y-104469501D01*
X182872619Y-104066124D01*
X182346232Y-103847549D01*
X181776269Y-103847052D01*
X181249501Y-104064708D01*
X180846124Y-104467381D01*
X180803429Y-104570203D01*
X180745292Y-104429501D01*
X180342619Y-104026124D01*
X179816232Y-103807549D01*
X179246269Y-103807052D01*
X178719501Y-104024708D01*
X178316124Y-104427381D01*
X178224385Y-104648314D01*
X178175292Y-104529501D01*
X177772619Y-104126124D01*
X177246232Y-103907549D01*
X176676269Y-103907052D01*
X176149501Y-104124708D01*
X175746124Y-104527381D01*
X175662338Y-104729160D01*
X175625292Y-104639501D01*
X175222619Y-104236124D01*
X174853911Y-104083023D01*
X181913467Y-97023467D01*
X182168977Y-96641069D01*
X182258700Y-96190000D01*
X182258700Y-91950000D01*
X182168977Y-91498931D01*
X182007980Y-91257981D01*
X182313876Y-90952619D01*
X182532451Y-90426232D01*
X182532948Y-89856269D01*
X182315292Y-89329501D01*
X181912619Y-88926124D01*
X181386232Y-88707549D01*
X180816269Y-88707052D01*
X180579611Y-88804837D01*
X180579611Y-88585000D01*
X180514262Y-88237703D01*
X180579611Y-87915000D01*
X180579611Y-87315000D01*
X180511590Y-86953501D01*
X180297945Y-86621487D01*
X179988700Y-86410189D01*
X179988700Y-79060000D01*
X179898977Y-78608931D01*
X179643467Y-78226533D01*
X178813467Y-77396533D01*
X178431069Y-77141023D01*
X177980000Y-77051300D01*
X177211447Y-77051300D01*
X176936959Y-76863750D01*
X176550000Y-76785389D01*
X176050000Y-76785389D01*
X176004294Y-76793989D01*
X176166250Y-76556959D01*
X176240084Y-76192353D01*
X176350000Y-76214611D01*
X177250000Y-76214611D01*
X177611499Y-76146590D01*
X177841327Y-75998700D01*
X178570000Y-75998700D01*
X179021069Y-75908977D01*
X179403467Y-75653467D01*
X179863467Y-75193467D01*
X180118977Y-74811069D01*
X180208700Y-74360000D01*
X180208700Y-65527597D01*
X180515518Y-65654999D01*
X181659463Y-65655998D01*
X182716712Y-65219151D01*
X183526309Y-64410966D01*
X183964999Y-63354482D01*
X183965998Y-62210537D01*
X183587912Y-61295500D01*
X188025224Y-61295500D01*
X188944500Y-62214776D01*
G36*
X139845510Y-112554500D02*
X139414490Y-112554500D01*
X139630000Y-112410501D01*
X139845510Y-112554500D01*
X139845510Y-112554500D01*
G37*
X139845510Y-112554500D02*
X139414490Y-112554500D01*
X139630000Y-112410501D01*
X139845510Y-112554500D01*
G36*
X132216533Y-110553467D02*
X133566533Y-111903467D01*
X133948931Y-112158977D01*
X134023133Y-112173737D01*
X134043410Y-112281499D01*
X134219081Y-112554500D01*
X131504490Y-112554500D01*
X131740823Y-112396587D01*
X132136542Y-111804353D01*
X132275500Y-111105764D01*
X132275500Y-111034236D01*
X132164328Y-110475337D01*
X132216533Y-110553467D01*
X132216533Y-110553467D01*
G37*
X132216533Y-110553467D02*
X133566533Y-111903467D01*
X133948931Y-112158977D01*
X134023133Y-112173737D01*
X134043410Y-112281499D01*
X134219081Y-112554500D01*
X131504490Y-112554500D01*
X131740823Y-112396587D01*
X132136542Y-111804353D01*
X132275500Y-111105764D01*
X132275500Y-111034236D01*
X132164328Y-110475337D01*
X132216533Y-110553467D01*
G36*
X129395510Y-112554500D02*
X128964490Y-112554500D01*
X129180000Y-112410501D01*
X129395510Y-112554500D01*
X129395510Y-112554500D01*
G37*
X129395510Y-112554500D02*
X128964490Y-112554500D01*
X129180000Y-112410501D01*
X129395510Y-112554500D01*
G36*
X122731300Y-107986327D02*
X122731300Y-108140000D01*
X122821023Y-108591069D01*
X123076533Y-108973467D01*
X123456533Y-109353467D01*
X123782576Y-109571321D01*
X123603750Y-109833041D01*
X123525389Y-110220000D01*
X123525389Y-111920000D01*
X123593410Y-112281499D01*
X123769081Y-112554500D01*
X119452434Y-112554500D01*
X120453467Y-111553467D01*
X120708977Y-111171069D01*
X120798700Y-110720000D01*
X120798700Y-108379611D01*
X121520000Y-108379611D01*
X121881499Y-108311590D01*
X122189914Y-108113131D01*
X122261069Y-108098977D01*
X122640604Y-107845380D01*
X122731300Y-107986327D01*
X122731300Y-107986327D01*
G37*
X122731300Y-107986327D02*
X122731300Y-108140000D01*
X122821023Y-108591069D01*
X123076533Y-108973467D01*
X123456533Y-109353467D01*
X123782576Y-109571321D01*
X123603750Y-109833041D01*
X123525389Y-110220000D01*
X123525389Y-111920000D01*
X123593410Y-112281499D01*
X123769081Y-112554500D01*
X119452434Y-112554500D01*
X120453467Y-111553467D01*
X120708977Y-111171069D01*
X120798700Y-110720000D01*
X120798700Y-108379611D01*
X121520000Y-108379611D01*
X121881499Y-108311590D01*
X122189914Y-108113131D01*
X122261069Y-108098977D01*
X122640604Y-107845380D01*
X122731300Y-107986327D01*
G36*
X108211023Y-111381069D02*
X108466533Y-111763467D01*
X109257566Y-112554500D01*
X107356365Y-112554500D01*
X107754999Y-111594482D01*
X107755261Y-111294611D01*
X108050000Y-111294611D01*
X108188637Y-111268525D01*
X108211023Y-111381069D01*
X108211023Y-111381069D01*
G37*
X108211023Y-111381069D02*
X108466533Y-111763467D01*
X109257566Y-112554500D01*
X107356365Y-112554500D01*
X107754999Y-111594482D01*
X107755261Y-111294611D01*
X108050000Y-111294611D01*
X108188637Y-111268525D01*
X108211023Y-111381069D01*
G36*
X92356531Y-103183464D02*
X92356533Y-103183467D01*
X92697056Y-103410997D01*
X92738931Y-103438977D01*
X92923727Y-103475735D01*
X93047643Y-103599867D01*
X92860956Y-103786228D01*
X92574826Y-104475303D01*
X92574175Y-105221423D01*
X92859102Y-105910997D01*
X93047643Y-106099867D01*
X92860956Y-106286228D01*
X92574826Y-106975303D01*
X92574175Y-107721423D01*
X92859102Y-108410997D01*
X93386228Y-108939044D01*
X94075303Y-109225174D01*
X94585506Y-109225619D01*
X94461309Y-109850000D01*
X94611685Y-110605991D01*
X95039920Y-111246889D01*
X95680818Y-111675124D01*
X96436809Y-111825500D01*
X99063191Y-111825500D01*
X99819182Y-111675124D01*
X100460080Y-111246889D01*
X100888315Y-110605991D01*
X101038691Y-109850000D01*
X100888315Y-109094009D01*
X100460080Y-108453111D01*
X100306628Y-108350578D01*
X100450000Y-108379611D01*
X101250000Y-108379611D01*
X101611499Y-108311590D01*
X101612122Y-108311189D01*
X101950000Y-108379611D01*
X102750000Y-108379611D01*
X103111499Y-108311590D01*
X103305831Y-108186541D01*
X104110111Y-108186541D01*
X104138576Y-108215055D01*
X103253288Y-108580849D01*
X102443691Y-109389034D01*
X102005001Y-110445518D01*
X102004002Y-111589463D01*
X102402748Y-112554500D01*
X91965500Y-112554500D01*
X91965500Y-102792433D01*
X92356531Y-103183464D01*
X92356531Y-103183464D01*
G37*
X92356531Y-103183464D02*
X92356533Y-103183467D01*
X92697056Y-103410997D01*
X92738931Y-103438977D01*
X92923727Y-103475735D01*
X93047643Y-103599867D01*
X92860956Y-103786228D01*
X92574826Y-104475303D01*
X92574175Y-105221423D01*
X92859102Y-105910997D01*
X93047643Y-106099867D01*
X92860956Y-106286228D01*
X92574826Y-106975303D01*
X92574175Y-107721423D01*
X92859102Y-108410997D01*
X93386228Y-108939044D01*
X94075303Y-109225174D01*
X94585506Y-109225619D01*
X94461309Y-109850000D01*
X94611685Y-110605991D01*
X95039920Y-111246889D01*
X95680818Y-111675124D01*
X96436809Y-111825500D01*
X99063191Y-111825500D01*
X99819182Y-111675124D01*
X100460080Y-111246889D01*
X100888315Y-110605991D01*
X101038691Y-109850000D01*
X100888315Y-109094009D01*
X100460080Y-108453111D01*
X100306628Y-108350578D01*
X100450000Y-108379611D01*
X101250000Y-108379611D01*
X101611499Y-108311590D01*
X101612122Y-108311189D01*
X101950000Y-108379611D01*
X102750000Y-108379611D01*
X103111499Y-108311590D01*
X103305831Y-108186541D01*
X104110111Y-108186541D01*
X104138576Y-108215055D01*
X103253288Y-108580849D01*
X102443691Y-109389034D01*
X102005001Y-110445518D01*
X102004002Y-111589463D01*
X102402748Y-112554500D01*
X91965500Y-112554500D01*
X91965500Y-102792433D01*
X92356531Y-103183464D01*
G36*
X118441300Y-110231766D02*
X117871766Y-110801300D01*
X114138700Y-110801300D01*
X114138700Y-110625479D01*
X114204611Y-110300000D01*
X114204611Y-109591878D01*
X114440000Y-109638700D01*
X117630000Y-109638700D01*
X118081069Y-109548977D01*
X118441300Y-109308279D01*
X118441300Y-110231766D01*
X118441300Y-110231766D01*
G37*
X118441300Y-110231766D02*
X117871766Y-110801300D01*
X114138700Y-110801300D01*
X114138700Y-110625479D01*
X114204611Y-110300000D01*
X114204611Y-109591878D01*
X114440000Y-109638700D01*
X117630000Y-109638700D01*
X118081069Y-109548977D01*
X118441300Y-109308279D01*
X118441300Y-110231766D01*
G36*
X130023041Y-108876250D02*
X130410000Y-108954611D01*
X131871300Y-108954611D01*
X131871300Y-109720000D01*
X131933237Y-110031381D01*
X131740823Y-109743413D01*
X131148589Y-109347694D01*
X130450000Y-109208736D01*
X129751411Y-109347694D01*
X129180000Y-109729499D01*
X128975347Y-109592755D01*
X129333467Y-109353467D01*
X129848234Y-108838700D01*
X129968085Y-108838700D01*
X130023041Y-108876250D01*
X130023041Y-108876250D01*
G37*
X130023041Y-108876250D02*
X130410000Y-108954611D01*
X131871300Y-108954611D01*
X131871300Y-109720000D01*
X131933237Y-110031381D01*
X131740823Y-109743413D01*
X131148589Y-109347694D01*
X130450000Y-109208736D01*
X129751411Y-109347694D01*
X129180000Y-109729499D01*
X128975347Y-109592755D01*
X129333467Y-109353467D01*
X129848234Y-108838700D01*
X129968085Y-108838700D01*
X130023041Y-108876250D01*
G36*
X164934783Y-109491717D02*
X164926487Y-109497055D01*
X164907869Y-109524303D01*
X164628589Y-109337694D01*
X163930000Y-109198736D01*
X163231411Y-109337694D01*
X162660000Y-109719499D01*
X162568700Y-109658495D01*
X162568700Y-109010005D01*
X162568701Y-109010000D01*
X162478977Y-108558931D01*
X162452964Y-108520000D01*
X162223467Y-108176533D01*
X162223464Y-108176531D01*
X161565633Y-107518700D01*
X162961766Y-107518700D01*
X164934783Y-109491717D01*
X164934783Y-109491717D01*
G37*
X164934783Y-109491717D02*
X164926487Y-109497055D01*
X164907869Y-109524303D01*
X164628589Y-109337694D01*
X163930000Y-109198736D01*
X163231411Y-109337694D01*
X162660000Y-109719499D01*
X162568700Y-109658495D01*
X162568700Y-109010005D01*
X162568701Y-109010000D01*
X162478977Y-108558931D01*
X162452964Y-108520000D01*
X162223467Y-108176533D01*
X162223464Y-108176531D01*
X161565633Y-107518700D01*
X162961766Y-107518700D01*
X164934783Y-109491717D01*
G36*
X160211300Y-109498233D02*
X160211300Y-109658495D01*
X160120000Y-109719499D01*
X159548589Y-109337694D01*
X158850000Y-109198736D01*
X158151411Y-109337694D01*
X157580000Y-109719499D01*
X157488700Y-109658495D01*
X157488700Y-109270005D01*
X157488701Y-109270000D01*
X157398977Y-108818931D01*
X157352050Y-108748700D01*
X159461766Y-108748700D01*
X160211300Y-109498233D01*
X160211300Y-109498233D01*
G37*
X160211300Y-109498233D02*
X160211300Y-109658495D01*
X160120000Y-109719499D01*
X159548589Y-109337694D01*
X158850000Y-109198736D01*
X158151411Y-109337694D01*
X157580000Y-109719499D01*
X157488700Y-109658495D01*
X157488700Y-109270005D01*
X157488701Y-109270000D01*
X157398977Y-108818931D01*
X157352050Y-108748700D01*
X159461766Y-108748700D01*
X160211300Y-109498233D01*
G36*
X108900000Y-108379611D02*
X109457003Y-108379611D01*
X109474227Y-108405389D01*
X109050000Y-108405389D01*
X108755522Y-108460799D01*
X108820524Y-108363517D01*
X108900000Y-108379611D01*
X108900000Y-108379611D01*
G37*
X108900000Y-108379611D02*
X109457003Y-108379611D01*
X109474227Y-108405389D01*
X109050000Y-108405389D01*
X108755522Y-108460799D01*
X108820524Y-108363517D01*
X108900000Y-108379611D01*
G36*
X112584006Y-108429097D02*
X112561724Y-108433289D01*
X112559920Y-108424219D01*
X112584006Y-108429097D01*
X112584006Y-108429097D01*
G37*
X112584006Y-108429097D02*
X112561724Y-108433289D01*
X112559920Y-108424219D01*
X112584006Y-108429097D01*
G36*
X105761979Y-108272685D02*
X105709020Y-108250694D01*
X105770499Y-108225292D01*
X105789560Y-108206265D01*
X105761979Y-108272685D01*
X105761979Y-108272685D01*
G37*
X105761979Y-108272685D02*
X105709020Y-108250694D01*
X105770499Y-108225292D01*
X105789560Y-108206265D01*
X105761979Y-108272685D01*
G36*
X98356533Y-107843467D02*
X98402977Y-107874500D01*
X97672434Y-107874500D01*
X97938233Y-107608700D01*
X98121766Y-107608700D01*
X98356533Y-107843467D01*
X98356533Y-107843467D01*
G37*
X98356533Y-107843467D02*
X98402977Y-107874500D01*
X97672434Y-107874500D01*
X97938233Y-107608700D01*
X98121766Y-107608700D01*
X98356533Y-107843467D01*
G36*
X178314708Y-106050499D02*
X178361300Y-106097172D01*
X178361300Y-106748553D01*
X178279716Y-106867955D01*
X178178700Y-106710971D01*
X178178700Y-106141002D01*
X178265615Y-105931686D01*
X178314708Y-106050499D01*
X178314708Y-106050499D01*
G37*
X178314708Y-106050499D02*
X178361300Y-106097172D01*
X178361300Y-106748553D01*
X178279716Y-106867955D01*
X178178700Y-106710971D01*
X178178700Y-106141002D01*
X178265615Y-105931686D01*
X178314708Y-106050499D01*
G36*
X180844708Y-106090499D02*
X180881300Y-106127155D01*
X180881300Y-106748553D01*
X180800074Y-106867430D01*
X180718700Y-106740971D01*
X180718700Y-106077751D01*
X180743876Y-106052619D01*
X180786571Y-105949797D01*
X180844708Y-106090499D01*
X180844708Y-106090499D01*
G37*
X180844708Y-106090499D02*
X180881300Y-106127155D01*
X180881300Y-106748553D01*
X180800074Y-106867430D01*
X180718700Y-106740971D01*
X180718700Y-106077751D01*
X180743876Y-106052619D01*
X180786571Y-105949797D01*
X180844708Y-106090499D01*
G36*
X175744708Y-106150499D02*
X175821300Y-106227225D01*
X175821300Y-106718553D01*
X175729774Y-106852505D01*
X175622945Y-106686487D01*
X175588700Y-106663088D01*
X175588700Y-106297734D01*
X175623876Y-106262619D01*
X175707662Y-106060840D01*
X175744708Y-106150499D01*
X175744708Y-106150499D01*
G37*
X175744708Y-106150499D02*
X175821300Y-106227225D01*
X175821300Y-106718553D01*
X175729774Y-106852505D01*
X175622945Y-106686487D01*
X175588700Y-106663088D01*
X175588700Y-106297734D01*
X175623876Y-106262619D01*
X175707662Y-106060840D01*
X175744708Y-106150499D01*
G36*
X143067381Y-97653876D02*
X143593768Y-97872451D01*
X143711300Y-97872553D01*
X143711300Y-103320000D01*
X143775210Y-103641300D01*
X142880000Y-103641300D01*
X142428931Y-103731023D01*
X142046533Y-103986533D01*
X141306533Y-104726533D01*
X141051023Y-105108931D01*
X140961300Y-105560000D01*
X140961300Y-106481300D01*
X140115634Y-106481300D01*
X140603464Y-105993469D01*
X140603467Y-105993467D01*
X140858977Y-105611069D01*
X140948700Y-105160000D01*
X140948700Y-100187276D01*
X141191499Y-100141590D01*
X141192122Y-100141189D01*
X141530000Y-100209611D01*
X142330000Y-100209611D01*
X142691499Y-100141590D01*
X143023513Y-99927945D01*
X143246250Y-99601959D01*
X143324611Y-99215000D01*
X143324611Y-98465000D01*
X143256590Y-98103501D01*
X143095362Y-97852945D01*
X143052874Y-97639344D01*
X143067381Y-97653876D01*
X143067381Y-97653876D01*
G37*
X143067381Y-97653876D02*
X143593768Y-97872451D01*
X143711300Y-97872553D01*
X143711300Y-103320000D01*
X143775210Y-103641300D01*
X142880000Y-103641300D01*
X142428931Y-103731023D01*
X142046533Y-103986533D01*
X141306533Y-104726533D01*
X141051023Y-105108931D01*
X140961300Y-105560000D01*
X140961300Y-106481300D01*
X140115634Y-106481300D01*
X140603464Y-105993469D01*
X140603467Y-105993467D01*
X140858977Y-105611069D01*
X140948700Y-105160000D01*
X140948700Y-100187276D01*
X141191499Y-100141590D01*
X141192122Y-100141189D01*
X141530000Y-100209611D01*
X142330000Y-100209611D01*
X142691499Y-100141590D01*
X143023513Y-99927945D01*
X143246250Y-99601959D01*
X143324611Y-99215000D01*
X143324611Y-98465000D01*
X143256590Y-98103501D01*
X143095362Y-97852945D01*
X143052874Y-97639344D01*
X143067381Y-97653876D01*
G36*
X96041766Y-106171300D02*
X95923400Y-106171300D01*
X95852357Y-106100133D01*
X95923915Y-106028700D01*
X96184367Y-106028700D01*
X96041766Y-106171300D01*
X96041766Y-106171300D01*
G37*
X96041766Y-106171300D02*
X95923400Y-106171300D01*
X95852357Y-106100133D01*
X95923915Y-106028700D01*
X96184367Y-106028700D01*
X96041766Y-106171300D01*
G36*
X128777381Y-101253876D02*
X129303768Y-101472451D01*
X129415389Y-101472548D01*
X129415389Y-101610000D01*
X129480738Y-101957297D01*
X129415389Y-102280000D01*
X129415389Y-102417147D01*
X129306269Y-102417052D01*
X128779501Y-102634708D01*
X128376124Y-103037381D01*
X128157549Y-103563768D01*
X128157052Y-104133731D01*
X128312682Y-104510384D01*
X126981766Y-105841300D01*
X126361681Y-105841300D01*
X126288519Y-105791310D01*
X126451069Y-105758977D01*
X126833467Y-105503467D01*
X127603464Y-104733469D01*
X127603467Y-104733467D01*
X127858977Y-104351069D01*
X127948700Y-103900000D01*
X127948700Y-102340000D01*
X127858977Y-101888931D01*
X127776636Y-101765699D01*
X127891717Y-101765799D01*
X128526141Y-101503661D01*
X128776873Y-101253367D01*
X128777381Y-101253876D01*
X128777381Y-101253876D01*
G37*
X128777381Y-101253876D02*
X129303768Y-101472451D01*
X129415389Y-101472548D01*
X129415389Y-101610000D01*
X129480738Y-101957297D01*
X129415389Y-102280000D01*
X129415389Y-102417147D01*
X129306269Y-102417052D01*
X128779501Y-102634708D01*
X128376124Y-103037381D01*
X128157549Y-103563768D01*
X128157052Y-104133731D01*
X128312682Y-104510384D01*
X126981766Y-105841300D01*
X126361681Y-105841300D01*
X126288519Y-105791310D01*
X126451069Y-105758977D01*
X126833467Y-105503467D01*
X127603464Y-104733469D01*
X127603467Y-104733467D01*
X127858977Y-104351069D01*
X127948700Y-103900000D01*
X127948700Y-102340000D01*
X127858977Y-101888931D01*
X127776636Y-101765699D01*
X127891717Y-101765799D01*
X128526141Y-101503661D01*
X128776873Y-101253367D01*
X128777381Y-101253876D01*
G36*
X114307524Y-105831300D02*
X113871447Y-105831300D01*
X113773018Y-105764046D01*
X113859029Y-105708700D01*
X114498050Y-105708700D01*
X114307524Y-105831300D01*
X114307524Y-105831300D01*
G37*
X114307524Y-105831300D02*
X113871447Y-105831300D01*
X113773018Y-105764046D01*
X113859029Y-105708700D01*
X114498050Y-105708700D01*
X114307524Y-105831300D01*
G36*
X100000760Y-105764870D02*
X99897524Y-105831300D01*
X99678234Y-105831300D01*
X99555634Y-105708700D01*
X99918553Y-105708700D01*
X100000760Y-105764870D01*
X100000760Y-105764870D01*
G37*
X100000760Y-105764870D02*
X99897524Y-105831300D01*
X99678234Y-105831300D01*
X99555634Y-105708700D01*
X99918553Y-105708700D01*
X100000760Y-105764870D01*
G36*
X103333041Y-105821250D02*
X103372008Y-105829141D01*
X103298521Y-105829141D01*
X103183739Y-105750713D01*
X103207464Y-105735447D01*
X103333041Y-105821250D01*
X103333041Y-105821250D01*
G37*
X103333041Y-105821250D02*
X103372008Y-105829141D01*
X103298521Y-105829141D01*
X103183739Y-105750713D01*
X103207464Y-105735447D01*
X103333041Y-105821250D01*
G36*
X120697549Y-105093768D02*
X120697069Y-105644704D01*
X120358501Y-105708410D01*
X120357878Y-105708811D01*
X120108603Y-105658331D01*
X120714863Y-105052071D01*
X120697549Y-105093768D01*
X120697549Y-105093768D01*
G37*
X120697549Y-105093768D02*
X120697069Y-105644704D01*
X120358501Y-105708410D01*
X120357878Y-105708811D01*
X120108603Y-105658331D01*
X120714863Y-105052071D01*
X120697549Y-105093768D01*
G36*
X133944217Y-105356581D02*
X133899939Y-105326995D01*
X133931962Y-105294971D01*
X133944217Y-105356581D01*
X133944217Y-105356581D01*
G37*
X133944217Y-105356581D02*
X133899939Y-105326995D01*
X133931962Y-105294971D01*
X133944217Y-105356581D01*
G36*
X98194366Y-105251300D02*
X97805634Y-105251300D01*
X97938234Y-105118700D01*
X98061766Y-105118700D01*
X98194366Y-105251300D01*
X98194366Y-105251300D01*
G37*
X98194366Y-105251300D02*
X97805634Y-105251300D01*
X97938234Y-105118700D01*
X98061766Y-105118700D01*
X98194366Y-105251300D01*
G36*
X123432502Y-104780564D02*
X123345292Y-104569501D01*
X123163843Y-104387735D01*
X123196499Y-104381590D01*
X123270922Y-104333700D01*
X123879366Y-104333700D01*
X123432502Y-104780564D01*
X123432502Y-104780564D01*
G37*
X123432502Y-104780564D02*
X123345292Y-104569501D01*
X123163843Y-104387735D01*
X123196499Y-104381590D01*
X123270922Y-104333700D01*
X123879366Y-104333700D01*
X123432502Y-104780564D01*
G36*
X179901300Y-95701766D02*
X171731766Y-103871300D01*
X170175634Y-103871300D01*
X170643467Y-103403467D01*
X170898977Y-103021069D01*
X170988700Y-102570000D01*
X170988700Y-100604434D01*
X171278513Y-100417945D01*
X171501250Y-100091959D01*
X171579611Y-99705000D01*
X171579611Y-99105000D01*
X171514262Y-98757703D01*
X171579611Y-98435000D01*
X171579611Y-98050952D01*
X176246832Y-98043699D01*
X176471667Y-97998613D01*
X176696069Y-97953977D01*
X176696845Y-97953459D01*
X176697761Y-97953275D01*
X176888135Y-97825643D01*
X177078467Y-97698467D01*
X178043467Y-96733467D01*
X178298977Y-96351069D01*
X178388700Y-95900000D01*
X178388700Y-92719611D01*
X179585000Y-92719611D01*
X179901300Y-92660095D01*
X179901300Y-95701766D01*
X179901300Y-95701766D01*
G37*
X179901300Y-95701766D02*
X171731766Y-103871300D01*
X170175634Y-103871300D01*
X170643467Y-103403467D01*
X170898977Y-103021069D01*
X170988700Y-102570000D01*
X170988700Y-100604434D01*
X171278513Y-100417945D01*
X171501250Y-100091959D01*
X171579611Y-99705000D01*
X171579611Y-99105000D01*
X171514262Y-98757703D01*
X171579611Y-98435000D01*
X171579611Y-98050952D01*
X176246832Y-98043699D01*
X176471667Y-97998613D01*
X176696069Y-97953977D01*
X176696845Y-97953459D01*
X176697761Y-97953275D01*
X176888135Y-97825643D01*
X177078467Y-97698467D01*
X178043467Y-96733467D01*
X178298977Y-96351069D01*
X178388700Y-95900000D01*
X178388700Y-92719611D01*
X179585000Y-92719611D01*
X179901300Y-92660095D01*
X179901300Y-95701766D01*
G36*
X96051766Y-103671300D02*
X95923400Y-103671300D01*
X95852357Y-103600133D01*
X95923915Y-103528700D01*
X96194366Y-103528700D01*
X96051766Y-103671300D01*
X96051766Y-103671300D01*
G37*
X96051766Y-103671300D02*
X95923400Y-103671300D01*
X95852357Y-103600133D01*
X95923915Y-103528700D01*
X96194366Y-103528700D01*
X96051766Y-103671300D01*
G36*
X106511300Y-103310043D02*
X106406959Y-103238750D01*
X106225026Y-103201908D01*
X106378234Y-103048700D01*
X106511300Y-103048700D01*
X106511300Y-103310043D01*
X106511300Y-103310043D01*
G37*
X106511300Y-103310043D02*
X106406959Y-103238750D01*
X106225026Y-103201908D01*
X106378234Y-103048700D01*
X106511300Y-103048700D01*
X106511300Y-103310043D01*
G36*
X108660610Y-98499385D02*
X108660612Y-98499388D01*
X108981073Y-98713513D01*
X109059491Y-98765910D01*
X109530000Y-98859501D01*
X109530005Y-98859500D01*
X111943135Y-98859500D01*
X112021023Y-99251069D01*
X112144790Y-99436300D01*
X111915000Y-99436300D01*
X111463931Y-99526023D01*
X111081533Y-99781533D01*
X110646533Y-100216533D01*
X110391023Y-100598931D01*
X110372650Y-100691300D01*
X110101447Y-100691300D01*
X109826959Y-100503750D01*
X109440000Y-100425389D01*
X108940000Y-100425389D01*
X108578501Y-100493410D01*
X108441165Y-100581783D01*
X108326959Y-100503750D01*
X107940000Y-100425389D01*
X107440000Y-100425389D01*
X107078501Y-100493410D01*
X106770971Y-100691300D01*
X105890000Y-100691300D01*
X105438931Y-100781023D01*
X105056533Y-101036533D01*
X103286533Y-102806533D01*
X103031023Y-103188931D01*
X103027767Y-103205299D01*
X102966959Y-103163750D01*
X102580000Y-103085389D01*
X102080000Y-103085389D01*
X101718501Y-103153410D01*
X101581165Y-103241783D01*
X101466959Y-103163750D01*
X101080000Y-103085389D01*
X100901545Y-103085389D01*
X102533464Y-101453469D01*
X102533467Y-101453467D01*
X102788977Y-101071069D01*
X102878700Y-100620000D01*
X102878700Y-98798700D01*
X106360000Y-98798700D01*
X106811069Y-98708977D01*
X107193467Y-98453467D01*
X107904079Y-97742855D01*
X108660610Y-98499385D01*
X108660610Y-98499385D01*
G37*
X108660610Y-98499385D02*
X108660612Y-98499388D01*
X108981073Y-98713513D01*
X109059491Y-98765910D01*
X109530000Y-98859501D01*
X109530005Y-98859500D01*
X111943135Y-98859500D01*
X112021023Y-99251069D01*
X112144790Y-99436300D01*
X111915000Y-99436300D01*
X111463931Y-99526023D01*
X111081533Y-99781533D01*
X110646533Y-100216533D01*
X110391023Y-100598931D01*
X110372650Y-100691300D01*
X110101447Y-100691300D01*
X109826959Y-100503750D01*
X109440000Y-100425389D01*
X108940000Y-100425389D01*
X108578501Y-100493410D01*
X108441165Y-100581783D01*
X108326959Y-100503750D01*
X107940000Y-100425389D01*
X107440000Y-100425389D01*
X107078501Y-100493410D01*
X106770971Y-100691300D01*
X105890000Y-100691300D01*
X105438931Y-100781023D01*
X105056533Y-101036533D01*
X103286533Y-102806533D01*
X103031023Y-103188931D01*
X103027767Y-103205299D01*
X102966959Y-103163750D01*
X102580000Y-103085389D01*
X102080000Y-103085389D01*
X101718501Y-103153410D01*
X101581165Y-103241783D01*
X101466959Y-103163750D01*
X101080000Y-103085389D01*
X100901545Y-103085389D01*
X102533464Y-101453469D01*
X102533467Y-101453467D01*
X102788977Y-101071069D01*
X102878700Y-100620000D01*
X102878700Y-98798700D01*
X106360000Y-98798700D01*
X106811069Y-98708977D01*
X107193467Y-98453467D01*
X107904079Y-97742855D01*
X108660610Y-98499385D01*
G36*
X167883768Y-99582451D02*
X168040389Y-99582588D01*
X168040389Y-99705000D01*
X168108410Y-100066499D01*
X168322055Y-100398513D01*
X168631300Y-100609811D01*
X168631300Y-102081766D01*
X167991766Y-102721300D01*
X167165634Y-102721300D01*
X167333467Y-102553467D01*
X167588977Y-102171069D01*
X167678700Y-101720000D01*
X167678700Y-99497299D01*
X167883768Y-99582451D01*
X167883768Y-99582451D01*
G37*
X167883768Y-99582451D02*
X168040389Y-99582588D01*
X168040389Y-99705000D01*
X168108410Y-100066499D01*
X168322055Y-100398513D01*
X168631300Y-100609811D01*
X168631300Y-102081766D01*
X167991766Y-102721300D01*
X167165634Y-102721300D01*
X167333467Y-102553467D01*
X167588977Y-102171069D01*
X167678700Y-101720000D01*
X167678700Y-99497299D01*
X167883768Y-99582451D01*
G36*
X188944500Y-102330476D02*
X188790501Y-102100000D01*
X188944500Y-101869524D01*
X188944500Y-102330476D01*
X188944500Y-102330476D01*
G37*
X188944500Y-102330476D02*
X188790501Y-102100000D01*
X188944500Y-101869524D01*
X188944500Y-102330476D01*
G36*
X165321300Y-101231766D02*
X164971766Y-101581300D01*
X164855634Y-101581300D01*
X165243467Y-101193467D01*
X165321300Y-101076982D01*
X165321300Y-101231766D01*
X165321300Y-101231766D01*
G37*
X165321300Y-101231766D02*
X164971766Y-101581300D01*
X164855634Y-101581300D01*
X165243467Y-101193467D01*
X165321300Y-101076982D01*
X165321300Y-101231766D01*
G36*
X93873041Y-98856250D02*
X94260000Y-98934611D01*
X94718191Y-98934611D01*
X94611685Y-99094009D01*
X94461309Y-99850000D01*
X94585553Y-100474617D01*
X94078577Y-100474175D01*
X93448700Y-100734436D01*
X93448700Y-98705500D01*
X93652411Y-98705500D01*
X93873041Y-98856250D01*
X93873041Y-98856250D01*
G37*
X93873041Y-98856250D02*
X94260000Y-98934611D01*
X94718191Y-98934611D01*
X94611685Y-99094009D01*
X94461309Y-99850000D01*
X94585553Y-100474617D01*
X94078577Y-100474175D01*
X93448700Y-100734436D01*
X93448700Y-98705500D01*
X93652411Y-98705500D01*
X93873041Y-98856250D01*
G36*
X188944500Y-99790476D02*
X188790501Y-99560000D01*
X188944500Y-99329524D01*
X188944500Y-99790476D01*
X188944500Y-99790476D01*
G37*
X188944500Y-99790476D02*
X188790501Y-99560000D01*
X188944500Y-99329524D01*
X188944500Y-99790476D01*
G36*
X161546124Y-99667381D02*
X161539611Y-99683066D01*
X161539611Y-99313700D01*
X161900423Y-99313700D01*
X161546124Y-99667381D01*
X161546124Y-99667381D01*
G37*
X161546124Y-99667381D02*
X161539611Y-99683066D01*
X161539611Y-99313700D01*
X161900423Y-99313700D01*
X161546124Y-99667381D01*
G36*
X130639773Y-93924589D02*
X130615389Y-94045000D01*
X130615389Y-94595000D01*
X130683410Y-94956499D01*
X130790700Y-95123232D01*
X130546124Y-95367381D01*
X130327549Y-95893768D01*
X130327052Y-96463731D01*
X130544708Y-96990499D01*
X130947381Y-97393876D01*
X131473768Y-97612451D01*
X131525562Y-97612496D01*
X132246533Y-98333467D01*
X132530115Y-98522951D01*
X132240707Y-98812359D01*
X131910000Y-98745389D01*
X130410000Y-98745389D01*
X130271121Y-98771521D01*
X129876232Y-98607549D01*
X129306269Y-98607052D01*
X128779501Y-98824708D01*
X128777210Y-98826995D01*
X128528694Y-98578045D01*
X127894729Y-98314800D01*
X127208283Y-98314201D01*
X127078999Y-98367620D01*
X127212451Y-98046232D01*
X127212948Y-97476269D01*
X126995292Y-96949501D01*
X126592619Y-96546124D01*
X126066232Y-96327549D01*
X125496269Y-96327052D01*
X124969501Y-96544708D01*
X124952880Y-96561300D01*
X124721681Y-96561300D01*
X124556959Y-96448750D01*
X124170000Y-96370389D01*
X123370000Y-96370389D01*
X123008501Y-96438410D01*
X123007878Y-96438811D01*
X122670000Y-96370389D01*
X121870000Y-96370389D01*
X121614787Y-96418411D01*
X121598977Y-96338931D01*
X121435781Y-96094691D01*
X121598589Y-96062306D01*
X122170000Y-95680501D01*
X122741411Y-96062306D01*
X123440000Y-96201264D01*
X124138589Y-96062306D01*
X124710000Y-95680501D01*
X125281411Y-96062306D01*
X125980000Y-96201264D01*
X126678589Y-96062306D01*
X127250000Y-95680501D01*
X127821411Y-96062306D01*
X128520000Y-96201264D01*
X129218589Y-96062306D01*
X129810823Y-95666587D01*
X130206542Y-95074353D01*
X130345500Y-94375764D01*
X130345500Y-94304236D01*
X130264834Y-93898700D01*
X130634902Y-93898700D01*
X130639773Y-93924589D01*
X130639773Y-93924589D01*
G37*
X130639773Y-93924589D02*
X130615389Y-94045000D01*
X130615389Y-94595000D01*
X130683410Y-94956499D01*
X130790700Y-95123232D01*
X130546124Y-95367381D01*
X130327549Y-95893768D01*
X130327052Y-96463731D01*
X130544708Y-96990499D01*
X130947381Y-97393876D01*
X131473768Y-97612451D01*
X131525562Y-97612496D01*
X132246533Y-98333467D01*
X132530115Y-98522951D01*
X132240707Y-98812359D01*
X131910000Y-98745389D01*
X130410000Y-98745389D01*
X130271121Y-98771521D01*
X129876232Y-98607549D01*
X129306269Y-98607052D01*
X128779501Y-98824708D01*
X128777210Y-98826995D01*
X128528694Y-98578045D01*
X127894729Y-98314800D01*
X127208283Y-98314201D01*
X127078999Y-98367620D01*
X127212451Y-98046232D01*
X127212948Y-97476269D01*
X126995292Y-96949501D01*
X126592619Y-96546124D01*
X126066232Y-96327549D01*
X125496269Y-96327052D01*
X124969501Y-96544708D01*
X124952880Y-96561300D01*
X124721681Y-96561300D01*
X124556959Y-96448750D01*
X124170000Y-96370389D01*
X123370000Y-96370389D01*
X123008501Y-96438410D01*
X123007878Y-96438811D01*
X122670000Y-96370389D01*
X121870000Y-96370389D01*
X121614787Y-96418411D01*
X121598977Y-96338931D01*
X121435781Y-96094691D01*
X121598589Y-96062306D01*
X122170000Y-95680501D01*
X122741411Y-96062306D01*
X123440000Y-96201264D01*
X124138589Y-96062306D01*
X124710000Y-95680501D01*
X125281411Y-96062306D01*
X125980000Y-96201264D01*
X126678589Y-96062306D01*
X127250000Y-95680501D01*
X127821411Y-96062306D01*
X128520000Y-96201264D01*
X129218589Y-96062306D01*
X129810823Y-95666587D01*
X130206542Y-95074353D01*
X130345500Y-94375764D01*
X130345500Y-94304236D01*
X130264834Y-93898700D01*
X130634902Y-93898700D01*
X130639773Y-93924589D01*
G36*
X188944500Y-97250476D02*
X188790501Y-97020000D01*
X188944500Y-96789524D01*
X188944500Y-97250476D01*
X188944500Y-97250476D01*
G37*
X188944500Y-97250476D02*
X188790501Y-97020000D01*
X188944500Y-96789524D01*
X188944500Y-97250476D01*
G36*
X106416339Y-95216141D02*
X106650500Y-95450711D01*
X106650500Y-95662567D01*
X105871766Y-96441300D01*
X103069611Y-96441300D01*
X103069611Y-95720000D01*
X103024379Y-95479611D01*
X103185000Y-95479611D01*
X103532297Y-95414262D01*
X103855000Y-95479611D01*
X104455000Y-95479611D01*
X104802297Y-95414262D01*
X105125000Y-95479611D01*
X105725000Y-95479611D01*
X106086499Y-95411590D01*
X106410856Y-95202872D01*
X106416339Y-95216141D01*
X106416339Y-95216141D01*
G37*
X106416339Y-95216141D02*
X106650500Y-95450711D01*
X106650500Y-95662567D01*
X105871766Y-96441300D01*
X103069611Y-96441300D01*
X103069611Y-95720000D01*
X103024379Y-95479611D01*
X103185000Y-95479611D01*
X103532297Y-95414262D01*
X103855000Y-95479611D01*
X104455000Y-95479611D01*
X104802297Y-95414262D01*
X105125000Y-95479611D01*
X105725000Y-95479611D01*
X106086499Y-95411590D01*
X106410856Y-95202872D01*
X106416339Y-95216141D01*
G36*
X112111306Y-95771955D02*
X112591653Y-95971413D01*
X112276533Y-96286533D01*
X112200383Y-96400500D01*
X110039275Y-96400500D01*
X109109500Y-95470724D01*
X109109500Y-95450744D01*
X109145105Y-95415201D01*
X109461306Y-95731955D01*
X110095271Y-95995200D01*
X110781717Y-95995799D01*
X111416141Y-95733661D01*
X111745183Y-95405193D01*
X112111306Y-95771955D01*
X112111306Y-95771955D01*
G37*
X112111306Y-95771955D02*
X112591653Y-95971413D01*
X112276533Y-96286533D01*
X112200383Y-96400500D01*
X110039275Y-96400500D01*
X109109500Y-95470724D01*
X109109500Y-95450744D01*
X109145105Y-95415201D01*
X109461306Y-95731955D01*
X110095271Y-95995200D01*
X110781717Y-95995799D01*
X111416141Y-95733661D01*
X111745183Y-95405193D01*
X112111306Y-95771955D01*
G36*
X165856533Y-94373467D02*
X166238931Y-94628977D01*
X166690000Y-94718700D01*
X166718319Y-94718700D01*
X166883041Y-94831250D01*
X166965156Y-94847879D01*
X166767549Y-95323768D01*
X166767078Y-95863561D01*
X166636069Y-95776023D01*
X166185000Y-95686300D01*
X166179611Y-95686300D01*
X166179611Y-95295000D01*
X166111590Y-94933501D01*
X165897945Y-94601487D01*
X165588700Y-94390189D01*
X165588700Y-94105634D01*
X165856533Y-94373467D01*
X165856533Y-94373467D01*
G37*
X165856533Y-94373467D02*
X166238931Y-94628977D01*
X166690000Y-94718700D01*
X166718319Y-94718700D01*
X166883041Y-94831250D01*
X166965156Y-94847879D01*
X166767549Y-95323768D01*
X166767078Y-95863561D01*
X166636069Y-95776023D01*
X166185000Y-95686300D01*
X166179611Y-95686300D01*
X166179611Y-95295000D01*
X166111590Y-94933501D01*
X165897945Y-94601487D01*
X165588700Y-94390189D01*
X165588700Y-94105634D01*
X165856533Y-94373467D01*
G36*
X147098931Y-94968977D02*
X147139756Y-94977098D01*
X147028700Y-94999188D01*
X147028700Y-94922050D01*
X147098931Y-94968977D01*
X147098931Y-94968977D01*
G37*
X147098931Y-94968977D02*
X147139756Y-94977098D01*
X147028700Y-94999188D01*
X147028700Y-94922050D01*
X147098931Y-94968977D01*
G36*
X154515389Y-93750000D02*
X154515389Y-94250000D01*
X154524870Y-94300389D01*
X153746744Y-94300389D01*
X153802451Y-94166232D01*
X153802801Y-93764611D01*
X154080000Y-93764611D01*
X154441499Y-93696590D01*
X154538896Y-93633917D01*
X154515389Y-93750000D01*
X154515389Y-93750000D01*
G37*
X154515389Y-93750000D02*
X154515389Y-94250000D01*
X154524870Y-94300389D01*
X153746744Y-94300389D01*
X153802451Y-94166232D01*
X153802801Y-93764611D01*
X154080000Y-93764611D01*
X154441499Y-93696590D01*
X154538896Y-93633917D01*
X154515389Y-93750000D01*
G36*
X122805389Y-66450000D02*
X122873410Y-66811499D01*
X123087055Y-67143513D01*
X123413041Y-67366250D01*
X123800000Y-67444611D01*
X125750000Y-67444611D01*
X126111499Y-67376590D01*
X126300335Y-67255078D01*
X126463041Y-67366250D01*
X126468500Y-67367355D01*
X126468500Y-67551300D01*
X123440005Y-67551300D01*
X123440000Y-67551299D01*
X122988931Y-67641023D01*
X122606533Y-67896533D01*
X122406533Y-68096533D01*
X122151023Y-68478931D01*
X122061300Y-68930000D01*
X122061300Y-74350000D01*
X122151023Y-74801069D01*
X122406533Y-75183467D01*
X123326531Y-76103464D01*
X123326533Y-76103467D01*
X123546533Y-76323467D01*
X123693431Y-76421621D01*
X123170000Y-76771367D01*
X122634353Y-76413458D01*
X121935764Y-76274500D01*
X121864236Y-76274500D01*
X121165647Y-76413458D01*
X120573413Y-76809177D01*
X120177694Y-77401411D01*
X120038736Y-78100000D01*
X120177694Y-78798589D01*
X120559499Y-79370000D01*
X120177694Y-79941411D01*
X120038736Y-80640000D01*
X120177694Y-81338589D01*
X120559499Y-81910000D01*
X120177694Y-82481411D01*
X120038736Y-83180000D01*
X120177694Y-83878589D01*
X120559499Y-84450000D01*
X120177694Y-85021411D01*
X120038736Y-85720000D01*
X120177694Y-86418589D01*
X120573413Y-87010823D01*
X121165647Y-87406542D01*
X121864236Y-87545500D01*
X121935764Y-87545500D01*
X122634353Y-87406542D01*
X122868442Y-87250128D01*
X122877055Y-87263513D01*
X123203041Y-87486250D01*
X123261300Y-87498048D01*
X123261300Y-88690000D01*
X123351023Y-89141069D01*
X123606533Y-89523467D01*
X123954366Y-89871300D01*
X121600000Y-89871300D01*
X121148931Y-89961023D01*
X120766533Y-90216533D01*
X120766531Y-90216536D01*
X120066533Y-90916533D01*
X119811023Y-91298931D01*
X119721300Y-91750000D01*
X119721300Y-92938495D01*
X119630000Y-92999499D01*
X119058589Y-92617694D01*
X118360000Y-92478736D01*
X117661411Y-92617694D01*
X117422529Y-92777311D01*
X117422948Y-92296269D01*
X117205292Y-91769501D01*
X116802619Y-91366124D01*
X116276232Y-91147549D01*
X116224438Y-91147504D01*
X115633467Y-90556533D01*
X115504547Y-90470391D01*
X115504547Y-89763880D01*
X115693768Y-89842451D01*
X116263731Y-89842948D01*
X116790499Y-89625292D01*
X117193876Y-89222619D01*
X117412451Y-88696232D01*
X117412845Y-88244611D01*
X118900000Y-88244611D01*
X119261499Y-88176590D01*
X119593513Y-87962945D01*
X119816250Y-87636959D01*
X119894611Y-87250000D01*
X119894611Y-85950000D01*
X119826590Y-85588501D01*
X119612945Y-85256487D01*
X119286959Y-85033750D01*
X118900000Y-84955389D01*
X117200000Y-84955389D01*
X116838501Y-85023410D01*
X116506487Y-85237055D01*
X116415308Y-85370500D01*
X116290000Y-85370500D01*
X115819490Y-85464090D01*
X115694611Y-85547532D01*
X115694611Y-84112377D01*
X115879491Y-84235910D01*
X116350000Y-84329500D01*
X116413690Y-84329500D01*
X116487055Y-84443513D01*
X116813041Y-84666250D01*
X117200000Y-84744611D01*
X118900000Y-84744611D01*
X119261499Y-84676590D01*
X119593513Y-84462945D01*
X119816250Y-84136959D01*
X119894611Y-83750000D01*
X119894611Y-82450000D01*
X119826590Y-82088501D01*
X119612945Y-81756487D01*
X119547027Y-81711447D01*
X119666250Y-81536959D01*
X119744611Y-81150000D01*
X119744611Y-80350000D01*
X119676590Y-79988501D01*
X119555078Y-79799665D01*
X119666250Y-79636959D01*
X119744611Y-79250000D01*
X119744611Y-78450000D01*
X119691023Y-78165205D01*
X119843876Y-78012619D01*
X120062451Y-77486232D01*
X120062948Y-76916269D01*
X119845292Y-76389501D01*
X119442619Y-75986124D01*
X118916232Y-75767549D01*
X118346269Y-75767052D01*
X117819501Y-75984708D01*
X117594611Y-76209206D01*
X117594611Y-75039754D01*
X117793768Y-75122451D01*
X118363731Y-75122948D01*
X118579728Y-75033700D01*
X118683085Y-75033700D01*
X118738041Y-75071250D01*
X119125000Y-75149611D01*
X120675000Y-75149611D01*
X121036499Y-75081590D01*
X121368513Y-74867945D01*
X121591250Y-74541959D01*
X121669611Y-74155000D01*
X121669611Y-73555000D01*
X121604262Y-73207703D01*
X121669611Y-72885000D01*
X121669611Y-72285000D01*
X121604262Y-71937703D01*
X121669611Y-71615000D01*
X121669611Y-71015000D01*
X121604262Y-70667703D01*
X121669611Y-70345000D01*
X121669611Y-69745000D01*
X121601590Y-69383501D01*
X121387945Y-69051487D01*
X121061959Y-68828750D01*
X120675000Y-68750389D01*
X119125000Y-68750389D01*
X118825517Y-68806741D01*
X118754500Y-68735724D01*
X118754500Y-67444611D01*
X118800000Y-67444611D01*
X119161499Y-67376590D01*
X119493513Y-67162945D01*
X119716250Y-66836959D01*
X119764845Y-66596991D01*
X120000000Y-66644611D01*
X120500000Y-66644611D01*
X120861499Y-66576590D01*
X120998835Y-66488217D01*
X121113041Y-66566250D01*
X121500000Y-66644611D01*
X122000000Y-66644611D01*
X122361499Y-66576590D01*
X122590084Y-66429500D01*
X122805389Y-66429500D01*
X122805389Y-66450000D01*
X122805389Y-66450000D01*
G37*
X122805389Y-66450000D02*
X122873410Y-66811499D01*
X123087055Y-67143513D01*
X123413041Y-67366250D01*
X123800000Y-67444611D01*
X125750000Y-67444611D01*
X126111499Y-67376590D01*
X126300335Y-67255078D01*
X126463041Y-67366250D01*
X126468500Y-67367355D01*
X126468500Y-67551300D01*
X123440005Y-67551300D01*
X123440000Y-67551299D01*
X122988931Y-67641023D01*
X122606533Y-67896533D01*
X122406533Y-68096533D01*
X122151023Y-68478931D01*
X122061300Y-68930000D01*
X122061300Y-74350000D01*
X122151023Y-74801069D01*
X122406533Y-75183467D01*
X123326531Y-76103464D01*
X123326533Y-76103467D01*
X123546533Y-76323467D01*
X123693431Y-76421621D01*
X123170000Y-76771367D01*
X122634353Y-76413458D01*
X121935764Y-76274500D01*
X121864236Y-76274500D01*
X121165647Y-76413458D01*
X120573413Y-76809177D01*
X120177694Y-77401411D01*
X120038736Y-78100000D01*
X120177694Y-78798589D01*
X120559499Y-79370000D01*
X120177694Y-79941411D01*
X120038736Y-80640000D01*
X120177694Y-81338589D01*
X120559499Y-81910000D01*
X120177694Y-82481411D01*
X120038736Y-83180000D01*
X120177694Y-83878589D01*
X120559499Y-84450000D01*
X120177694Y-85021411D01*
X120038736Y-85720000D01*
X120177694Y-86418589D01*
X120573413Y-87010823D01*
X121165647Y-87406542D01*
X121864236Y-87545500D01*
X121935764Y-87545500D01*
X122634353Y-87406542D01*
X122868442Y-87250128D01*
X122877055Y-87263513D01*
X123203041Y-87486250D01*
X123261300Y-87498048D01*
X123261300Y-88690000D01*
X123351023Y-89141069D01*
X123606533Y-89523467D01*
X123954366Y-89871300D01*
X121600000Y-89871300D01*
X121148931Y-89961023D01*
X120766533Y-90216533D01*
X120766531Y-90216536D01*
X120066533Y-90916533D01*
X119811023Y-91298931D01*
X119721300Y-91750000D01*
X119721300Y-92938495D01*
X119630000Y-92999499D01*
X119058589Y-92617694D01*
X118360000Y-92478736D01*
X117661411Y-92617694D01*
X117422529Y-92777311D01*
X117422948Y-92296269D01*
X117205292Y-91769501D01*
X116802619Y-91366124D01*
X116276232Y-91147549D01*
X116224438Y-91147504D01*
X115633467Y-90556533D01*
X115504547Y-90470391D01*
X115504547Y-89763880D01*
X115693768Y-89842451D01*
X116263731Y-89842948D01*
X116790499Y-89625292D01*
X117193876Y-89222619D01*
X117412451Y-88696232D01*
X117412845Y-88244611D01*
X118900000Y-88244611D01*
X119261499Y-88176590D01*
X119593513Y-87962945D01*
X119816250Y-87636959D01*
X119894611Y-87250000D01*
X119894611Y-85950000D01*
X119826590Y-85588501D01*
X119612945Y-85256487D01*
X119286959Y-85033750D01*
X118900000Y-84955389D01*
X117200000Y-84955389D01*
X116838501Y-85023410D01*
X116506487Y-85237055D01*
X116415308Y-85370500D01*
X116290000Y-85370500D01*
X115819490Y-85464090D01*
X115694611Y-85547532D01*
X115694611Y-84112377D01*
X115879491Y-84235910D01*
X116350000Y-84329500D01*
X116413690Y-84329500D01*
X116487055Y-84443513D01*
X116813041Y-84666250D01*
X117200000Y-84744611D01*
X118900000Y-84744611D01*
X119261499Y-84676590D01*
X119593513Y-84462945D01*
X119816250Y-84136959D01*
X119894611Y-83750000D01*
X119894611Y-82450000D01*
X119826590Y-82088501D01*
X119612945Y-81756487D01*
X119547027Y-81711447D01*
X119666250Y-81536959D01*
X119744611Y-81150000D01*
X119744611Y-80350000D01*
X119676590Y-79988501D01*
X119555078Y-79799665D01*
X119666250Y-79636959D01*
X119744611Y-79250000D01*
X119744611Y-78450000D01*
X119691023Y-78165205D01*
X119843876Y-78012619D01*
X120062451Y-77486232D01*
X120062948Y-76916269D01*
X119845292Y-76389501D01*
X119442619Y-75986124D01*
X118916232Y-75767549D01*
X118346269Y-75767052D01*
X117819501Y-75984708D01*
X117594611Y-76209206D01*
X117594611Y-75039754D01*
X117793768Y-75122451D01*
X118363731Y-75122948D01*
X118579728Y-75033700D01*
X118683085Y-75033700D01*
X118738041Y-75071250D01*
X119125000Y-75149611D01*
X120675000Y-75149611D01*
X121036499Y-75081590D01*
X121368513Y-74867945D01*
X121591250Y-74541959D01*
X121669611Y-74155000D01*
X121669611Y-73555000D01*
X121604262Y-73207703D01*
X121669611Y-72885000D01*
X121669611Y-72285000D01*
X121604262Y-71937703D01*
X121669611Y-71615000D01*
X121669611Y-71015000D01*
X121604262Y-70667703D01*
X121669611Y-70345000D01*
X121669611Y-69745000D01*
X121601590Y-69383501D01*
X121387945Y-69051487D01*
X121061959Y-68828750D01*
X120675000Y-68750389D01*
X119125000Y-68750389D01*
X118825517Y-68806741D01*
X118754500Y-68735724D01*
X118754500Y-67444611D01*
X118800000Y-67444611D01*
X119161499Y-67376590D01*
X119493513Y-67162945D01*
X119716250Y-66836959D01*
X119764845Y-66596991D01*
X120000000Y-66644611D01*
X120500000Y-66644611D01*
X120861499Y-66576590D01*
X120998835Y-66488217D01*
X121113041Y-66566250D01*
X121500000Y-66644611D01*
X122000000Y-66644611D01*
X122361499Y-66576590D01*
X122590084Y-66429500D01*
X122805389Y-66429500D01*
X122805389Y-66450000D01*
G36*
X124801300Y-92600000D02*
X124801300Y-92938495D01*
X124710000Y-92999499D01*
X124138589Y-92617694D01*
X123440000Y-92478736D01*
X122741411Y-92617694D01*
X122170000Y-92999499D01*
X122078700Y-92938495D01*
X122078700Y-92238234D01*
X122088233Y-92228700D01*
X124875156Y-92228700D01*
X124801300Y-92600000D01*
X124801300Y-92600000D01*
G37*
X124801300Y-92600000D02*
X124801300Y-92938495D01*
X124710000Y-92999499D01*
X124138589Y-92617694D01*
X123440000Y-92478736D01*
X122741411Y-92617694D01*
X122170000Y-92999499D01*
X122078700Y-92938495D01*
X122078700Y-92238234D01*
X122088233Y-92228700D01*
X124875156Y-92228700D01*
X124801300Y-92600000D01*
G36*
X165121300Y-92964366D02*
X164886545Y-92729611D01*
X165121300Y-92729611D01*
X165121300Y-92964366D01*
X165121300Y-92964366D01*
G37*
X165121300Y-92964366D02*
X164886545Y-92729611D01*
X165121300Y-92729611D01*
X165121300Y-92964366D01*
G36*
X107036728Y-92721439D02*
X106903859Y-92776339D01*
X106719611Y-92960266D01*
X106719611Y-92609500D01*
X106872901Y-92609500D01*
X107036728Y-92721439D01*
X107036728Y-92721439D01*
G37*
X107036728Y-92721439D02*
X106903859Y-92776339D01*
X106719611Y-92960266D01*
X106719611Y-92609500D01*
X106872901Y-92609500D01*
X107036728Y-92721439D01*
G36*
X108960000Y-92824611D02*
X109017295Y-92824611D01*
X109017198Y-92936825D01*
X108891289Y-92810697D01*
X108960000Y-92824611D01*
X108960000Y-92824611D01*
G37*
X108960000Y-92824611D02*
X109017295Y-92824611D01*
X109017198Y-92936825D01*
X108891289Y-92810697D01*
X108960000Y-92824611D01*
G36*
X142039773Y-92324589D02*
X142015389Y-92445000D01*
X142015389Y-92747461D01*
X141546269Y-92747052D01*
X141422998Y-92797986D01*
X141225292Y-92319501D01*
X141153816Y-92247900D01*
X142025343Y-92247900D01*
X142039773Y-92324589D01*
X142039773Y-92324589D01*
G37*
X142039773Y-92324589D02*
X142015389Y-92445000D01*
X142015389Y-92747461D01*
X141546269Y-92747052D01*
X141422998Y-92797986D01*
X141225292Y-92319501D01*
X141153816Y-92247900D01*
X142025343Y-92247900D01*
X142039773Y-92324589D01*
G36*
X102585000Y-86079611D02*
X102925500Y-86079611D01*
X102925500Y-86717226D01*
X102726269Y-86717052D01*
X102199501Y-86934708D01*
X101796124Y-87337381D01*
X101577549Y-87863768D01*
X101577052Y-88433731D01*
X101597913Y-88484219D01*
X101209501Y-88644708D01*
X100806124Y-89047381D01*
X100587549Y-89573768D01*
X100587052Y-90143731D01*
X100804708Y-90670499D01*
X101207381Y-91073876D01*
X101733768Y-91292451D01*
X102303731Y-91292948D01*
X102830499Y-91075292D01*
X103045003Y-90861162D01*
X103237381Y-91053876D01*
X103763768Y-91272451D01*
X104333731Y-91272948D01*
X104393479Y-91248261D01*
X104289090Y-91404490D01*
X104262058Y-91540389D01*
X103855000Y-91540389D01*
X103507703Y-91605738D01*
X103185000Y-91540389D01*
X102585000Y-91540389D01*
X102237703Y-91605738D01*
X101915000Y-91540389D01*
X101315000Y-91540389D01*
X100967703Y-91605738D01*
X100645000Y-91540389D01*
X100045000Y-91540389D01*
X99697703Y-91605738D01*
X99375000Y-91540389D01*
X98983700Y-91540389D01*
X98983700Y-91385000D01*
X98893977Y-90933931D01*
X98822834Y-90827457D01*
X98822948Y-90696269D01*
X98605292Y-90169501D01*
X98202619Y-89766124D01*
X97676232Y-89547549D01*
X97106269Y-89547052D01*
X96579501Y-89764708D01*
X96176124Y-90167381D01*
X95957549Y-90693768D01*
X95957052Y-91263731D01*
X96083169Y-91568958D01*
X95887703Y-91605738D01*
X95565000Y-91540389D01*
X95173700Y-91540389D01*
X95173700Y-89443234D01*
X96684029Y-87932905D01*
X96733731Y-87932948D01*
X97226113Y-87729500D01*
X97570000Y-87729500D01*
X98040510Y-87635910D01*
X98439388Y-87369388D01*
X98674388Y-87134388D01*
X98940910Y-86735510D01*
X99034500Y-86265000D01*
X99034500Y-86079611D01*
X99375000Y-86079611D01*
X99722297Y-86014262D01*
X100045000Y-86079611D01*
X100645000Y-86079611D01*
X100992297Y-86014262D01*
X101315000Y-86079611D01*
X101915000Y-86079611D01*
X102262297Y-86014262D01*
X102585000Y-86079611D01*
X102585000Y-86079611D01*
G37*
X102585000Y-86079611D02*
X102925500Y-86079611D01*
X102925500Y-86717226D01*
X102726269Y-86717052D01*
X102199501Y-86934708D01*
X101796124Y-87337381D01*
X101577549Y-87863768D01*
X101577052Y-88433731D01*
X101597913Y-88484219D01*
X101209501Y-88644708D01*
X100806124Y-89047381D01*
X100587549Y-89573768D01*
X100587052Y-90143731D01*
X100804708Y-90670499D01*
X101207381Y-91073876D01*
X101733768Y-91292451D01*
X102303731Y-91292948D01*
X102830499Y-91075292D01*
X103045003Y-90861162D01*
X103237381Y-91053876D01*
X103763768Y-91272451D01*
X104333731Y-91272948D01*
X104393479Y-91248261D01*
X104289090Y-91404490D01*
X104262058Y-91540389D01*
X103855000Y-91540389D01*
X103507703Y-91605738D01*
X103185000Y-91540389D01*
X102585000Y-91540389D01*
X102237703Y-91605738D01*
X101915000Y-91540389D01*
X101315000Y-91540389D01*
X100967703Y-91605738D01*
X100645000Y-91540389D01*
X100045000Y-91540389D01*
X99697703Y-91605738D01*
X99375000Y-91540389D01*
X98983700Y-91540389D01*
X98983700Y-91385000D01*
X98893977Y-90933931D01*
X98822834Y-90827457D01*
X98822948Y-90696269D01*
X98605292Y-90169501D01*
X98202619Y-89766124D01*
X97676232Y-89547549D01*
X97106269Y-89547052D01*
X96579501Y-89764708D01*
X96176124Y-90167381D01*
X95957549Y-90693768D01*
X95957052Y-91263731D01*
X96083169Y-91568958D01*
X95887703Y-91605738D01*
X95565000Y-91540389D01*
X95173700Y-91540389D01*
X95173700Y-89443234D01*
X96684029Y-87932905D01*
X96733731Y-87932948D01*
X97226113Y-87729500D01*
X97570000Y-87729500D01*
X98040510Y-87635910D01*
X98439388Y-87369388D01*
X98674388Y-87134388D01*
X98940910Y-86735510D01*
X99034500Y-86265000D01*
X99034500Y-86079611D01*
X99375000Y-86079611D01*
X99722297Y-86014262D01*
X100045000Y-86079611D01*
X100645000Y-86079611D01*
X100992297Y-86014262D01*
X101315000Y-86079611D01*
X101915000Y-86079611D01*
X102262297Y-86014262D01*
X102585000Y-86079611D01*
G36*
X151827645Y-90991300D02*
X151694743Y-90991300D01*
X151748032Y-90938104D01*
X151827645Y-90991300D01*
X151827645Y-90991300D01*
G37*
X151827645Y-90991300D02*
X151694743Y-90991300D01*
X151748032Y-90938104D01*
X151827645Y-90991300D01*
G36*
X138032100Y-90582808D02*
X138030000Y-90584908D01*
X137857992Y-90412900D01*
X138032100Y-90412900D01*
X138032100Y-90582808D01*
X138032100Y-90582808D01*
G37*
X138032100Y-90582808D02*
X138030000Y-90584908D01*
X137857992Y-90412900D01*
X138032100Y-90412900D01*
X138032100Y-90582808D01*
G36*
X105680000Y-89619501D02*
X105680005Y-89619500D01*
X105815453Y-89619500D01*
X105815453Y-90171295D01*
X105449491Y-90244090D01*
X105427376Y-90258867D01*
X105482451Y-90126232D01*
X105482927Y-89580300D01*
X105680000Y-89619501D01*
X105680000Y-89619501D01*
G37*
X105680000Y-89619501D02*
X105680005Y-89619500D01*
X105815453Y-89619500D01*
X105815453Y-90171295D01*
X105449491Y-90244090D01*
X105427376Y-90258867D01*
X105482451Y-90126232D01*
X105482927Y-89580300D01*
X105680000Y-89619501D01*
G36*
X188944500Y-90200476D02*
X188790501Y-89970000D01*
X188944500Y-89739524D01*
X188944500Y-90200476D01*
X188944500Y-90200476D01*
G37*
X188944500Y-90200476D02*
X188790501Y-89970000D01*
X188944500Y-89739524D01*
X188944500Y-90200476D01*
G36*
X140693324Y-89992100D02*
X140287900Y-89992100D01*
X140287900Y-89586676D01*
X140693324Y-89992100D01*
X140693324Y-89992100D01*
G37*
X140693324Y-89992100D02*
X140287900Y-89992100D01*
X140287900Y-89586676D01*
X140693324Y-89992100D01*
G36*
X126008357Y-87435291D02*
X125926124Y-87517381D01*
X125707549Y-88043768D01*
X125707452Y-88155389D01*
X125618700Y-88155389D01*
X125618700Y-87502762D01*
X125651499Y-87496590D01*
X125905933Y-87332867D01*
X126008357Y-87435291D01*
X126008357Y-87435291D01*
G37*
X126008357Y-87435291D02*
X125926124Y-87517381D01*
X125707549Y-88043768D01*
X125707452Y-88155389D01*
X125618700Y-88155389D01*
X125618700Y-87502762D01*
X125651499Y-87496590D01*
X125905933Y-87332867D01*
X126008357Y-87435291D01*
G36*
X171413768Y-86672451D02*
X171893102Y-86672869D01*
X171718750Y-86928041D01*
X171640389Y-87315000D01*
X171640389Y-87811753D01*
X171539611Y-87879091D01*
X171539611Y-87325000D01*
X171471590Y-86963501D01*
X171257945Y-86631487D01*
X171169377Y-86570971D01*
X171413768Y-86672451D01*
X171413768Y-86672451D01*
G37*
X171413768Y-86672451D02*
X171893102Y-86672869D01*
X171718750Y-86928041D01*
X171640389Y-87315000D01*
X171640389Y-87811753D01*
X171539611Y-87879091D01*
X171539611Y-87325000D01*
X171471590Y-86963501D01*
X171257945Y-86631487D01*
X171169377Y-86570971D01*
X171413768Y-86672451D01*
G36*
X188944500Y-87660476D02*
X188790501Y-87430000D01*
X188944500Y-87199524D01*
X188944500Y-87660476D01*
X188944500Y-87660476D01*
G37*
X188944500Y-87660476D02*
X188790501Y-87430000D01*
X188944500Y-87199524D01*
X188944500Y-87660476D01*
G36*
X114537133Y-87231300D02*
X114121447Y-87231300D01*
X114067751Y-87194611D01*
X114537165Y-87194611D01*
X114537133Y-87231300D01*
X114537133Y-87231300D01*
G37*
X114537133Y-87231300D02*
X114121447Y-87231300D01*
X114067751Y-87194611D01*
X114537165Y-87194611D01*
X114537133Y-87231300D01*
G36*
X106105389Y-86200000D02*
X106173410Y-86561499D01*
X106387055Y-86893513D01*
X106713041Y-87116250D01*
X106854246Y-87144845D01*
X106829916Y-87160500D01*
X106189276Y-87160500D01*
X105384500Y-86355724D01*
X105384500Y-86079611D01*
X105725000Y-86079611D01*
X106086499Y-86011590D01*
X106105389Y-85999435D01*
X106105389Y-86200000D01*
X106105389Y-86200000D01*
G37*
X106105389Y-86200000D02*
X106173410Y-86561499D01*
X106387055Y-86893513D01*
X106713041Y-87116250D01*
X106854246Y-87144845D01*
X106829916Y-87160500D01*
X106189276Y-87160500D01*
X105384500Y-86355724D01*
X105384500Y-86079611D01*
X105725000Y-86079611D01*
X106086499Y-86011590D01*
X106105389Y-85999435D01*
X106105389Y-86200000D01*
G36*
X110740612Y-85819388D02*
X111139490Y-86085910D01*
X111155389Y-86089072D01*
X111155389Y-86200000D01*
X111223410Y-86561499D01*
X111437055Y-86893513D01*
X111542249Y-86965389D01*
X111460000Y-86965389D01*
X111098501Y-87033410D01*
X111007021Y-87092276D01*
X110586232Y-86917549D01*
X110336696Y-86917331D01*
X110343513Y-86912945D01*
X110566250Y-86586959D01*
X110644611Y-86200000D01*
X110644611Y-85723387D01*
X110740612Y-85819388D01*
X110740612Y-85819388D01*
G37*
X110740612Y-85819388D02*
X111139490Y-86085910D01*
X111155389Y-86089072D01*
X111155389Y-86200000D01*
X111223410Y-86561499D01*
X111437055Y-86893513D01*
X111542249Y-86965389D01*
X111460000Y-86965389D01*
X111098501Y-87033410D01*
X111007021Y-87092276D01*
X110586232Y-86917549D01*
X110336696Y-86917331D01*
X110343513Y-86912945D01*
X110566250Y-86586959D01*
X110644611Y-86200000D01*
X110644611Y-85723387D01*
X110740612Y-85819388D01*
G36*
X168581300Y-75070000D02*
X168671023Y-75521069D01*
X168926533Y-75903467D01*
X169626531Y-76603464D01*
X169626533Y-76603467D01*
X170008931Y-76858977D01*
X170460000Y-76948700D01*
X173621300Y-76948700D01*
X173621300Y-77454521D01*
X173555389Y-77780000D01*
X173555389Y-78680000D01*
X173623410Y-79041499D01*
X173837055Y-79373513D01*
X174163041Y-79596250D01*
X174550000Y-79674611D01*
X175050000Y-79674611D01*
X175411499Y-79606590D01*
X175548835Y-79518217D01*
X175663041Y-79596250D01*
X176050000Y-79674611D01*
X176550000Y-79674611D01*
X176911499Y-79606590D01*
X177219029Y-79408700D01*
X177491766Y-79408700D01*
X177631300Y-79548234D01*
X177631300Y-86415566D01*
X177599078Y-86436300D01*
X177478700Y-86436300D01*
X177478700Y-85905479D01*
X177544611Y-85580000D01*
X177544611Y-84680000D01*
X177476590Y-84318501D01*
X177262945Y-83986487D01*
X176936959Y-83763750D01*
X176550000Y-83685389D01*
X176050000Y-83685389D01*
X175688501Y-83753410D01*
X175551165Y-83841783D01*
X175436959Y-83763750D01*
X175050000Y-83685389D01*
X174550000Y-83685389D01*
X174188501Y-83753410D01*
X174037506Y-83850572D01*
X172923467Y-82736533D01*
X172541069Y-82481023D01*
X172090000Y-82391300D01*
X167900895Y-82391300D01*
X167685292Y-81869501D01*
X167282619Y-81466124D01*
X167215075Y-81438077D01*
X167232451Y-81396232D01*
X167232948Y-80826269D01*
X167015292Y-80299501D01*
X166758985Y-80042745D01*
X166782451Y-79986232D01*
X166782948Y-79416269D01*
X166565292Y-78889501D01*
X166528700Y-78852845D01*
X166528700Y-78160172D01*
X166600000Y-78174611D01*
X167100000Y-78174611D01*
X167461499Y-78106590D01*
X167793513Y-77892945D01*
X168016250Y-77566959D01*
X168094611Y-77180000D01*
X168094611Y-76280000D01*
X168028700Y-75929715D01*
X168028700Y-75750000D01*
X167938977Y-75298931D01*
X167683467Y-74916533D01*
X167683464Y-74916531D01*
X167645879Y-74878945D01*
X167923467Y-74693467D01*
X168581300Y-74035634D01*
X168581300Y-75070000D01*
X168581300Y-75070000D01*
G37*
X168581300Y-75070000D02*
X168671023Y-75521069D01*
X168926533Y-75903467D01*
X169626531Y-76603464D01*
X169626533Y-76603467D01*
X170008931Y-76858977D01*
X170460000Y-76948700D01*
X173621300Y-76948700D01*
X173621300Y-77454521D01*
X173555389Y-77780000D01*
X173555389Y-78680000D01*
X173623410Y-79041499D01*
X173837055Y-79373513D01*
X174163041Y-79596250D01*
X174550000Y-79674611D01*
X175050000Y-79674611D01*
X175411499Y-79606590D01*
X175548835Y-79518217D01*
X175663041Y-79596250D01*
X176050000Y-79674611D01*
X176550000Y-79674611D01*
X176911499Y-79606590D01*
X177219029Y-79408700D01*
X177491766Y-79408700D01*
X177631300Y-79548234D01*
X177631300Y-86415566D01*
X177599078Y-86436300D01*
X177478700Y-86436300D01*
X177478700Y-85905479D01*
X177544611Y-85580000D01*
X177544611Y-84680000D01*
X177476590Y-84318501D01*
X177262945Y-83986487D01*
X176936959Y-83763750D01*
X176550000Y-83685389D01*
X176050000Y-83685389D01*
X175688501Y-83753410D01*
X175551165Y-83841783D01*
X175436959Y-83763750D01*
X175050000Y-83685389D01*
X174550000Y-83685389D01*
X174188501Y-83753410D01*
X174037506Y-83850572D01*
X172923467Y-82736533D01*
X172541069Y-82481023D01*
X172090000Y-82391300D01*
X167900895Y-82391300D01*
X167685292Y-81869501D01*
X167282619Y-81466124D01*
X167215075Y-81438077D01*
X167232451Y-81396232D01*
X167232948Y-80826269D01*
X167015292Y-80299501D01*
X166758985Y-80042745D01*
X166782451Y-79986232D01*
X166782948Y-79416269D01*
X166565292Y-78889501D01*
X166528700Y-78852845D01*
X166528700Y-78160172D01*
X166600000Y-78174611D01*
X167100000Y-78174611D01*
X167461499Y-78106590D01*
X167793513Y-77892945D01*
X168016250Y-77566959D01*
X168094611Y-77180000D01*
X168094611Y-76280000D01*
X168028700Y-75929715D01*
X168028700Y-75750000D01*
X167938977Y-75298931D01*
X167683467Y-74916533D01*
X167683464Y-74916531D01*
X167645879Y-74878945D01*
X167923467Y-74693467D01*
X168581300Y-74035634D01*
X168581300Y-75070000D01*
G36*
X188944500Y-85120476D02*
X188790501Y-84890000D01*
X188944500Y-84659524D01*
X188944500Y-85120476D01*
X188944500Y-85120476D01*
G37*
X188944500Y-85120476D02*
X188790501Y-84890000D01*
X188944500Y-84659524D01*
X188944500Y-85120476D01*
G36*
X92213768Y-84582451D02*
X92700389Y-84582875D01*
X92700389Y-84892806D01*
X92565000Y-84865389D01*
X91965500Y-84865389D01*
X91965500Y-84479361D01*
X92213768Y-84582451D01*
X92213768Y-84582451D01*
G37*
X92213768Y-84582451D02*
X92700389Y-84582875D01*
X92700389Y-84892806D01*
X92565000Y-84865389D01*
X91965500Y-84865389D01*
X91965500Y-84479361D01*
X92213768Y-84582451D01*
G36*
X158876487Y-83997055D02*
X158856935Y-84025670D01*
X158628931Y-84071023D01*
X158518700Y-84144677D01*
X158518700Y-83989611D01*
X158888055Y-83989611D01*
X158876487Y-83997055D01*
X158876487Y-83997055D01*
G37*
X158876487Y-83997055D02*
X158856935Y-84025670D01*
X158628931Y-84071023D01*
X158518700Y-84144677D01*
X158518700Y-83989611D01*
X158888055Y-83989611D01*
X158876487Y-83997055D01*
G36*
X160302598Y-83493041D02*
X160333931Y-83513977D01*
X160532861Y-83553547D01*
X160588041Y-83591250D01*
X160975000Y-83669611D01*
X161327290Y-83669611D01*
X161318185Y-83715389D01*
X161070000Y-83715389D01*
X160708501Y-83783410D01*
X160571165Y-83871783D01*
X160456959Y-83793750D01*
X160070000Y-83715389D01*
X159986945Y-83715389D01*
X159998513Y-83707945D01*
X160194639Y-83420905D01*
X160302598Y-83493041D01*
X160302598Y-83493041D01*
G37*
X160302598Y-83493041D02*
X160333931Y-83513977D01*
X160532861Y-83553547D01*
X160588041Y-83591250D01*
X160975000Y-83669611D01*
X161327290Y-83669611D01*
X161318185Y-83715389D01*
X161070000Y-83715389D01*
X160708501Y-83783410D01*
X160571165Y-83871783D01*
X160456959Y-83793750D01*
X160070000Y-83715389D01*
X159986945Y-83715389D01*
X159998513Y-83707945D01*
X160194639Y-83420905D01*
X160302598Y-83493041D01*
G36*
X188944500Y-82580476D02*
X188790501Y-82350000D01*
X188944500Y-82119524D01*
X188944500Y-82580476D01*
X188944500Y-82580476D01*
G37*
X188944500Y-82580476D02*
X188790501Y-82350000D01*
X188944500Y-82119524D01*
X188944500Y-82580476D01*
G36*
X102010612Y-80669388D02*
X102409490Y-80935910D01*
X102880000Y-81029500D01*
X104025389Y-81029500D01*
X104025389Y-81075000D01*
X104093410Y-81436499D01*
X104307055Y-81768513D01*
X104336084Y-81788348D01*
X104406109Y-82140389D01*
X103855000Y-82140389D01*
X103507703Y-82205738D01*
X103185000Y-82140389D01*
X102585000Y-82140389D01*
X102237703Y-82205738D01*
X101915000Y-82140389D01*
X101315000Y-82140389D01*
X100967703Y-82205738D01*
X100645000Y-82140389D01*
X100045000Y-82140389D01*
X99697703Y-82205738D01*
X99375000Y-82140389D01*
X98775000Y-82140389D01*
X98641408Y-82165526D01*
X100403467Y-80403467D01*
X100658977Y-80021069D01*
X100748700Y-79570000D01*
X100748700Y-79407476D01*
X102010612Y-80669388D01*
X102010612Y-80669388D01*
G37*
X102010612Y-80669388D02*
X102409490Y-80935910D01*
X102880000Y-81029500D01*
X104025389Y-81029500D01*
X104025389Y-81075000D01*
X104093410Y-81436499D01*
X104307055Y-81768513D01*
X104336084Y-81788348D01*
X104406109Y-82140389D01*
X103855000Y-82140389D01*
X103507703Y-82205738D01*
X103185000Y-82140389D01*
X102585000Y-82140389D01*
X102237703Y-82205738D01*
X101915000Y-82140389D01*
X101315000Y-82140389D01*
X100967703Y-82205738D01*
X100645000Y-82140389D01*
X100045000Y-82140389D01*
X99697703Y-82205738D01*
X99375000Y-82140389D01*
X98775000Y-82140389D01*
X98641408Y-82165526D01*
X100403467Y-80403467D01*
X100658977Y-80021069D01*
X100748700Y-79570000D01*
X100748700Y-79407476D01*
X102010612Y-80669388D01*
G36*
X155051300Y-81944366D02*
X154968467Y-81861533D01*
X154883464Y-81804736D01*
X154899611Y-81725000D01*
X154899611Y-81125000D01*
X154834262Y-80777703D01*
X154899611Y-80455000D01*
X154899611Y-80332866D01*
X154993731Y-80332948D01*
X155051300Y-80309161D01*
X155051300Y-81944366D01*
X155051300Y-81944366D01*
G37*
X155051300Y-81944366D02*
X154968467Y-81861533D01*
X154883464Y-81804736D01*
X154899611Y-81725000D01*
X154899611Y-81125000D01*
X154834262Y-80777703D01*
X154899611Y-80455000D01*
X154899611Y-80332866D01*
X154993731Y-80332948D01*
X155051300Y-80309161D01*
X155051300Y-81944366D01*
G36*
X116922671Y-81507572D02*
X116838501Y-81523410D01*
X116639950Y-81651174D01*
X116183387Y-81194611D01*
X116750000Y-81194611D01*
X116859892Y-81173933D01*
X116922671Y-81507572D01*
X116922671Y-81507572D01*
G37*
X116922671Y-81507572D02*
X116838501Y-81523410D01*
X116639950Y-81651174D01*
X116183387Y-81194611D01*
X116750000Y-81194611D01*
X116859892Y-81173933D01*
X116922671Y-81507572D01*
G36*
X144765389Y-75270000D02*
X144833410Y-75631499D01*
X144921783Y-75768835D01*
X144843750Y-75883041D01*
X144765389Y-76270000D01*
X144765389Y-76770000D01*
X144813166Y-77023911D01*
X144767549Y-77133768D01*
X144767052Y-77703731D01*
X144860148Y-77929041D01*
X144843750Y-77953041D01*
X144765389Y-78340000D01*
X144765389Y-78840000D01*
X144833410Y-79201499D01*
X144921783Y-79338835D01*
X144843750Y-79453041D01*
X144765389Y-79840000D01*
X144765389Y-80340000D01*
X144801385Y-80531300D01*
X144680005Y-80531300D01*
X144680000Y-80531299D01*
X144679995Y-80531300D01*
X144477897Y-80531300D01*
X144514611Y-80350000D01*
X144514611Y-79850000D01*
X144446590Y-79488501D01*
X144358217Y-79351165D01*
X144436250Y-79236959D01*
X144514611Y-78850000D01*
X144514611Y-78350000D01*
X144446590Y-77988501D01*
X144383498Y-77890454D01*
X144472451Y-77676232D01*
X144472948Y-77106269D01*
X144428365Y-76998370D01*
X144474611Y-76770000D01*
X144474611Y-76270000D01*
X144406590Y-75908501D01*
X144318217Y-75771165D01*
X144396250Y-75656959D01*
X144474611Y-75270000D01*
X144474611Y-74938700D01*
X144765389Y-74938700D01*
X144765389Y-75270000D01*
X144765389Y-75270000D01*
G37*
X144765389Y-75270000D02*
X144833410Y-75631499D01*
X144921783Y-75768835D01*
X144843750Y-75883041D01*
X144765389Y-76270000D01*
X144765389Y-76770000D01*
X144813166Y-77023911D01*
X144767549Y-77133768D01*
X144767052Y-77703731D01*
X144860148Y-77929041D01*
X144843750Y-77953041D01*
X144765389Y-78340000D01*
X144765389Y-78840000D01*
X144833410Y-79201499D01*
X144921783Y-79338835D01*
X144843750Y-79453041D01*
X144765389Y-79840000D01*
X144765389Y-80340000D01*
X144801385Y-80531300D01*
X144680005Y-80531300D01*
X144680000Y-80531299D01*
X144679995Y-80531300D01*
X144477897Y-80531300D01*
X144514611Y-80350000D01*
X144514611Y-79850000D01*
X144446590Y-79488501D01*
X144358217Y-79351165D01*
X144436250Y-79236959D01*
X144514611Y-78850000D01*
X144514611Y-78350000D01*
X144446590Y-77988501D01*
X144383498Y-77890454D01*
X144472451Y-77676232D01*
X144472948Y-77106269D01*
X144428365Y-76998370D01*
X144474611Y-76770000D01*
X144474611Y-76270000D01*
X144406590Y-75908501D01*
X144318217Y-75771165D01*
X144396250Y-75656959D01*
X144474611Y-75270000D01*
X144474611Y-74938700D01*
X144765389Y-74938700D01*
X144765389Y-75270000D01*
G36*
X97271300Y-78551766D02*
X95394611Y-80428455D01*
X95394611Y-79865000D01*
X95326590Y-79503501D01*
X95178700Y-79273673D01*
X95178700Y-78952332D01*
X95535082Y-78881443D01*
X96005658Y-78567014D01*
X96049803Y-78500946D01*
X96311069Y-78448977D01*
X96693467Y-78193467D01*
X97271300Y-77615634D01*
X97271300Y-78551766D01*
X97271300Y-78551766D01*
G37*
X97271300Y-78551766D02*
X95394611Y-80428455D01*
X95394611Y-79865000D01*
X95326590Y-79503501D01*
X95178700Y-79273673D01*
X95178700Y-78952332D01*
X95535082Y-78881443D01*
X96005658Y-78567014D01*
X96049803Y-78500946D01*
X96311069Y-78448977D01*
X96693467Y-78193467D01*
X97271300Y-77615634D01*
X97271300Y-78551766D01*
G36*
X188944500Y-80040476D02*
X188790501Y-79810000D01*
X188944500Y-79579524D01*
X188944500Y-80040476D01*
X188944500Y-80040476D01*
G37*
X188944500Y-80040476D02*
X188790501Y-79810000D01*
X188944500Y-79579524D01*
X188944500Y-80040476D01*
G36*
X129874500Y-77329234D02*
X129673750Y-77623041D01*
X129595389Y-78010000D01*
X129595389Y-79749493D01*
X129252619Y-79406124D01*
X128726232Y-79187549D01*
X128156269Y-79187052D01*
X127629501Y-79404708D01*
X127400372Y-79633438D01*
X126293467Y-78526533D01*
X126225460Y-78481092D01*
X126301264Y-78100000D01*
X126162306Y-77401411D01*
X125766587Y-76809177D01*
X125556349Y-76668700D01*
X126475633Y-76668700D01*
X126674708Y-77150499D01*
X127077381Y-77553876D01*
X127603768Y-77772451D01*
X128173731Y-77772948D01*
X128700499Y-77555292D01*
X129103876Y-77152619D01*
X129322451Y-76626232D01*
X129322496Y-76574437D01*
X129573464Y-76323469D01*
X129573467Y-76323467D01*
X129778234Y-76118700D01*
X129874500Y-76118700D01*
X129874500Y-77329234D01*
X129874500Y-77329234D01*
G37*
X129874500Y-77329234D02*
X129673750Y-77623041D01*
X129595389Y-78010000D01*
X129595389Y-79749493D01*
X129252619Y-79406124D01*
X128726232Y-79187549D01*
X128156269Y-79187052D01*
X127629501Y-79404708D01*
X127400372Y-79633438D01*
X126293467Y-78526533D01*
X126225460Y-78481092D01*
X126301264Y-78100000D01*
X126162306Y-77401411D01*
X125766587Y-76809177D01*
X125556349Y-76668700D01*
X126475633Y-76668700D01*
X126674708Y-77150499D01*
X127077381Y-77553876D01*
X127603768Y-77772451D01*
X128173731Y-77772948D01*
X128700499Y-77555292D01*
X129103876Y-77152619D01*
X129322451Y-76626232D01*
X129322496Y-76574437D01*
X129573464Y-76323469D01*
X129573467Y-76323467D01*
X129778234Y-76118700D01*
X129874500Y-76118700D01*
X129874500Y-77329234D01*
G36*
X138720000Y-77678701D02*
X138720005Y-77678700D01*
X138984521Y-77678700D01*
X139283767Y-77739299D01*
X138826533Y-78196533D01*
X138571023Y-78578931D01*
X138488700Y-78992798D01*
X138488700Y-77632692D01*
X138720000Y-77678701D01*
X138720000Y-77678701D01*
G37*
X138720000Y-77678701D02*
X138720005Y-77678700D01*
X138984521Y-77678700D01*
X139283767Y-77739299D01*
X138826533Y-78196533D01*
X138571023Y-78578931D01*
X138488700Y-78992798D01*
X138488700Y-77632692D01*
X138720000Y-77678701D01*
G36*
X102500000Y-74794611D02*
X104000000Y-74794611D01*
X104320500Y-74734305D01*
X104320500Y-77820817D01*
X104103750Y-78138041D01*
X104025389Y-78525000D01*
X104025389Y-78570500D01*
X103389276Y-78570500D01*
X102179500Y-77360724D01*
X102179500Y-74729708D01*
X102500000Y-74794611D01*
X102500000Y-74794611D01*
G37*
X102500000Y-74794611D02*
X104000000Y-74794611D01*
X104320500Y-74734305D01*
X104320500Y-77820817D01*
X104103750Y-78138041D01*
X104025389Y-78525000D01*
X104025389Y-78570500D01*
X103389276Y-78570500D01*
X102179500Y-77360724D01*
X102179500Y-74729708D01*
X102500000Y-74794611D01*
G36*
X117121300Y-77788553D02*
X116933750Y-78063041D01*
X116859916Y-78427647D01*
X116750000Y-78405389D01*
X116528700Y-78405389D01*
X116528700Y-77894611D01*
X116600000Y-77894611D01*
X116961499Y-77826590D01*
X117121300Y-77723761D01*
X117121300Y-77788553D01*
X117121300Y-77788553D01*
G37*
X117121300Y-77788553D02*
X116933750Y-78063041D01*
X116859916Y-78427647D01*
X116750000Y-78405389D01*
X116528700Y-78405389D01*
X116528700Y-77894611D01*
X116600000Y-77894611D01*
X116961499Y-77826590D01*
X117121300Y-77723761D01*
X117121300Y-77788553D01*
G36*
X164171300Y-78054366D02*
X164118366Y-78001432D01*
X164171300Y-77967370D01*
X164171300Y-78054366D01*
X164171300Y-78054366D01*
G37*
X164171300Y-78054366D02*
X164118366Y-78001432D01*
X164171300Y-77967370D01*
X164171300Y-78054366D01*
G36*
X113105389Y-73850000D02*
X113173410Y-74211499D01*
X113294922Y-74400335D01*
X113183750Y-74563041D01*
X113105389Y-74950000D01*
X113105389Y-76900000D01*
X113173410Y-77261499D01*
X113387055Y-77593513D01*
X113638604Y-77765389D01*
X113420000Y-77765389D01*
X113058501Y-77833410D01*
X112921165Y-77921783D01*
X112806959Y-77843750D01*
X112420000Y-77765389D01*
X111920000Y-77765389D01*
X111767386Y-77794105D01*
X111893513Y-77712945D01*
X112116250Y-77386959D01*
X112194611Y-77000000D01*
X112194611Y-74450000D01*
X112126590Y-74088501D01*
X111912945Y-73756487D01*
X111586959Y-73533750D01*
X111382873Y-73492422D01*
X111382948Y-73406269D01*
X111192195Y-72944611D01*
X111200000Y-72944611D01*
X111561499Y-72876590D01*
X111893513Y-72662945D01*
X112116250Y-72336959D01*
X112189245Y-71976500D01*
X113105389Y-71976500D01*
X113105389Y-73850000D01*
X113105389Y-73850000D01*
G37*
X113105389Y-73850000D02*
X113173410Y-74211499D01*
X113294922Y-74400335D01*
X113183750Y-74563041D01*
X113105389Y-74950000D01*
X113105389Y-76900000D01*
X113173410Y-77261499D01*
X113387055Y-77593513D01*
X113638604Y-77765389D01*
X113420000Y-77765389D01*
X113058501Y-77833410D01*
X112921165Y-77921783D01*
X112806959Y-77843750D01*
X112420000Y-77765389D01*
X111920000Y-77765389D01*
X111767386Y-77794105D01*
X111893513Y-77712945D01*
X112116250Y-77386959D01*
X112194611Y-77000000D01*
X112194611Y-74450000D01*
X112126590Y-74088501D01*
X111912945Y-73756487D01*
X111586959Y-73533750D01*
X111382873Y-73492422D01*
X111382948Y-73406269D01*
X111192195Y-72944611D01*
X111200000Y-72944611D01*
X111561499Y-72876590D01*
X111893513Y-72662945D01*
X112116250Y-72336959D01*
X112189245Y-71976500D01*
X113105389Y-71976500D01*
X113105389Y-73850000D01*
G36*
X108593500Y-66441880D02*
X108593500Y-68425428D01*
X108338501Y-68473410D01*
X108006487Y-68687055D01*
X107783750Y-69013041D01*
X107705389Y-69400000D01*
X107705389Y-71950000D01*
X107773410Y-72311499D01*
X107987055Y-72643513D01*
X108313041Y-72866250D01*
X108700000Y-72944611D01*
X108708208Y-72944611D01*
X108517549Y-73403768D01*
X108517474Y-73489734D01*
X108338501Y-73523410D01*
X108006487Y-73737055D01*
X107783750Y-74063041D01*
X107705389Y-74450000D01*
X107705389Y-77000000D01*
X107773410Y-77361499D01*
X107882088Y-77530389D01*
X107220000Y-77530389D01*
X106858501Y-77598410D01*
X106779500Y-77649246D01*
X106779500Y-74650658D01*
X106993513Y-74512945D01*
X107216250Y-74186959D01*
X107294611Y-73800000D01*
X107294611Y-71800000D01*
X107226590Y-71438501D01*
X107012945Y-71106487D01*
X106896500Y-71026923D01*
X106896500Y-70269142D01*
X106972451Y-70086232D01*
X106972948Y-69516269D01*
X106755292Y-68989501D01*
X106352619Y-68586124D01*
X105826232Y-68367549D01*
X105603553Y-68367355D01*
X105843513Y-68212945D01*
X106066250Y-67886959D01*
X106144611Y-67500000D01*
X106144611Y-65645496D01*
X106719463Y-65645998D01*
X107482385Y-65330765D01*
X108593500Y-66441880D01*
X108593500Y-66441880D01*
G37*
X108593500Y-66441880D02*
X108593500Y-68425428D01*
X108338501Y-68473410D01*
X108006487Y-68687055D01*
X107783750Y-69013041D01*
X107705389Y-69400000D01*
X107705389Y-71950000D01*
X107773410Y-72311499D01*
X107987055Y-72643513D01*
X108313041Y-72866250D01*
X108700000Y-72944611D01*
X108708208Y-72944611D01*
X108517549Y-73403768D01*
X108517474Y-73489734D01*
X108338501Y-73523410D01*
X108006487Y-73737055D01*
X107783750Y-74063041D01*
X107705389Y-74450000D01*
X107705389Y-77000000D01*
X107773410Y-77361499D01*
X107882088Y-77530389D01*
X107220000Y-77530389D01*
X106858501Y-77598410D01*
X106779500Y-77649246D01*
X106779500Y-74650658D01*
X106993513Y-74512945D01*
X107216250Y-74186959D01*
X107294611Y-73800000D01*
X107294611Y-71800000D01*
X107226590Y-71438501D01*
X107012945Y-71106487D01*
X106896500Y-71026923D01*
X106896500Y-70269142D01*
X106972451Y-70086232D01*
X106972948Y-69516269D01*
X106755292Y-68989501D01*
X106352619Y-68586124D01*
X105826232Y-68367549D01*
X105603553Y-68367355D01*
X105843513Y-68212945D01*
X106066250Y-67886959D01*
X106144611Y-67500000D01*
X106144611Y-65645496D01*
X106719463Y-65645998D01*
X107482385Y-65330765D01*
X108593500Y-66441880D01*
G36*
X153213456Y-77590389D02*
X152422587Y-77590389D01*
X152422948Y-77176269D01*
X152205292Y-76649501D01*
X151802619Y-76246124D01*
X151688409Y-76198700D01*
X151821766Y-76198700D01*
X153213456Y-77590389D01*
X153213456Y-77590389D01*
G37*
X153213456Y-77590389D02*
X152422587Y-77590389D01*
X152422948Y-77176269D01*
X152205292Y-76649501D01*
X151802619Y-76246124D01*
X151688409Y-76198700D01*
X151821766Y-76198700D01*
X153213456Y-77590389D01*
G36*
X188944500Y-77500476D02*
X188790501Y-77270000D01*
X188944500Y-77039524D01*
X188944500Y-77500476D01*
X188944500Y-77500476D01*
G37*
X188944500Y-77500476D02*
X188790501Y-77270000D01*
X188944500Y-77039524D01*
X188944500Y-77500476D01*
G36*
X92154708Y-74460499D02*
X92393472Y-74699680D01*
X92428731Y-74752449D01*
X92357956Y-74858371D01*
X92333763Y-74980000D01*
X92186124Y-75127381D01*
X91967549Y-75653768D01*
X91967052Y-76223731D01*
X92184708Y-76750499D01*
X92318475Y-76884500D01*
X91970706Y-76884500D01*
X91965500Y-76885536D01*
X91965500Y-74002580D01*
X92154708Y-74460499D01*
X92154708Y-74460499D01*
G37*
X92154708Y-74460499D02*
X92393472Y-74699680D01*
X92428731Y-74752449D01*
X92357956Y-74858371D01*
X92333763Y-74980000D01*
X92186124Y-75127381D01*
X91967549Y-75653768D01*
X91967052Y-76223731D01*
X92184708Y-76750499D01*
X92318475Y-76884500D01*
X91970706Y-76884500D01*
X91965500Y-76885536D01*
X91965500Y-74002580D01*
X92154708Y-74460499D01*
G36*
X154750000Y-75468700D02*
X157071300Y-75468700D01*
X157071300Y-75500000D01*
X157082959Y-75558613D01*
X156718931Y-75631023D01*
X156336533Y-75886533D01*
X155580744Y-76642322D01*
X155543467Y-76586533D01*
X155543464Y-76586531D01*
X154345093Y-75388159D01*
X154750000Y-75468700D01*
X154750000Y-75468700D01*
G37*
X154750000Y-75468700D02*
X157071300Y-75468700D01*
X157071300Y-75500000D01*
X157082959Y-75558613D01*
X156718931Y-75631023D01*
X156336533Y-75886533D01*
X155580744Y-76642322D01*
X155543467Y-76586533D01*
X155543464Y-76586531D01*
X154345093Y-75388159D01*
X154750000Y-75468700D01*
G36*
X141343768Y-76072451D02*
X141414358Y-76072513D01*
X141468931Y-76108977D01*
X141612225Y-76137480D01*
X141597276Y-76211300D01*
X141300000Y-76211300D01*
X141201033Y-76230986D01*
X141156577Y-75994723D01*
X141343768Y-76072451D01*
X141343768Y-76072451D01*
G37*
X141343768Y-76072451D02*
X141414358Y-76072513D01*
X141468931Y-76108977D01*
X141612225Y-76137480D01*
X141597276Y-76211300D01*
X141300000Y-76211300D01*
X141201033Y-76230986D01*
X141156577Y-75994723D01*
X141343768Y-76072451D01*
G36*
X132663041Y-73366250D02*
X133050000Y-73444611D01*
X135574989Y-73444611D01*
X135533142Y-73545389D01*
X134915000Y-73545389D01*
X134553501Y-73613410D01*
X134323673Y-73761300D01*
X132563270Y-73761300D01*
X132361959Y-73623750D01*
X132279818Y-73607116D01*
X132578469Y-73308465D01*
X132663041Y-73366250D01*
X132663041Y-73366250D01*
G37*
X132663041Y-73366250D02*
X133050000Y-73444611D01*
X135574989Y-73444611D01*
X135533142Y-73545389D01*
X134915000Y-73545389D01*
X134553501Y-73613410D01*
X134323673Y-73761300D01*
X132563270Y-73761300D01*
X132361959Y-73623750D01*
X132279818Y-73607116D01*
X132578469Y-73308465D01*
X132663041Y-73366250D01*
G36*
X177851300Y-73641300D02*
X177838270Y-73641300D01*
X177636959Y-73503750D01*
X177250000Y-73425389D01*
X176350000Y-73425389D01*
X176240108Y-73446067D01*
X176176590Y-73108501D01*
X175962945Y-72776487D01*
X175829555Y-72685346D01*
X175900000Y-72699611D01*
X176700000Y-72699611D01*
X177061499Y-72631590D01*
X177271480Y-72496471D01*
X177661069Y-72418977D01*
X177851300Y-72291869D01*
X177851300Y-73641300D01*
X177851300Y-73641300D01*
G37*
X177851300Y-73641300D02*
X177838270Y-73641300D01*
X177636959Y-73503750D01*
X177250000Y-73425389D01*
X176350000Y-73425389D01*
X176240108Y-73446067D01*
X176176590Y-73108501D01*
X175962945Y-72776487D01*
X175829555Y-72685346D01*
X175900000Y-72699611D01*
X176700000Y-72699611D01*
X177061499Y-72631590D01*
X177271480Y-72496471D01*
X177661069Y-72418977D01*
X177851300Y-72291869D01*
X177851300Y-73641300D01*
G36*
X141143041Y-72736250D02*
X141395457Y-72787365D01*
X141546533Y-73013467D01*
X141740462Y-73207396D01*
X141346269Y-73207052D01*
X140938700Y-73375456D01*
X140938700Y-72596630D01*
X141143041Y-72736250D01*
X141143041Y-72736250D01*
G37*
X141143041Y-72736250D02*
X141395457Y-72787365D01*
X141546533Y-73013467D01*
X141740462Y-73207396D01*
X141346269Y-73207052D01*
X140938700Y-73375456D01*
X140938700Y-72596630D01*
X141143041Y-72736250D01*
G36*
X91970706Y-72835500D02*
X92158008Y-72835500D01*
X92156124Y-72837381D01*
X91965500Y-73296455D01*
X91965500Y-72834464D01*
X91970706Y-72835500D01*
X91970706Y-72835500D01*
G37*
X91970706Y-72835500D02*
X92158008Y-72835500D01*
X92156124Y-72837381D01*
X91965500Y-73296455D01*
X91965500Y-72834464D01*
X91970706Y-72835500D01*
G36*
X136797381Y-71703876D02*
X137201300Y-71871598D01*
X137201300Y-72704568D01*
X137136232Y-72677549D01*
X136566269Y-72677052D01*
X136547021Y-72685005D01*
X136594611Y-72450000D01*
X136594611Y-71500751D01*
X136797381Y-71703876D01*
X136797381Y-71703876D01*
G37*
X136797381Y-71703876D02*
X137201300Y-71871598D01*
X137201300Y-72704568D01*
X137136232Y-72677549D01*
X136566269Y-72677052D01*
X136547021Y-72685005D01*
X136594611Y-72450000D01*
X136594611Y-71500751D01*
X136797381Y-71703876D01*
G36*
X173774214Y-72681300D02*
X173747132Y-72681300D01*
X173822803Y-72650033D01*
X173774214Y-72681300D01*
X173774214Y-72681300D01*
G37*
X173774214Y-72681300D02*
X173747132Y-72681300D01*
X173822803Y-72650033D01*
X173774214Y-72681300D01*
G36*
X159796533Y-72426533D02*
X159762860Y-72476928D01*
X159762902Y-72429165D01*
X159849852Y-72373214D01*
X159796533Y-72426533D01*
X159796533Y-72426533D01*
G37*
X159796533Y-72426533D02*
X159762860Y-72476928D01*
X159762902Y-72429165D01*
X159849852Y-72373214D01*
X159796533Y-72426533D01*
G36*
X117455612Y-70914388D02*
X117854491Y-71180910D01*
X118130389Y-71235789D01*
X118130389Y-71615000D01*
X118195738Y-71962297D01*
X118135989Y-72257348D01*
X117796269Y-72257052D01*
X117594611Y-72340375D01*
X117594611Y-71900000D01*
X117526590Y-71538501D01*
X117312945Y-71206487D01*
X116986959Y-70983750D01*
X116796295Y-70945140D01*
X116812451Y-70906232D01*
X116812948Y-70336269D01*
X116767500Y-70226276D01*
X117455612Y-70914388D01*
X117455612Y-70914388D01*
G37*
X117455612Y-70914388D02*
X117854491Y-71180910D01*
X118130389Y-71235789D01*
X118130389Y-71615000D01*
X118195738Y-71962297D01*
X118135989Y-72257348D01*
X117796269Y-72257052D01*
X117594611Y-72340375D01*
X117594611Y-71900000D01*
X117526590Y-71538501D01*
X117312945Y-71206487D01*
X116986959Y-70983750D01*
X116796295Y-70945140D01*
X116812451Y-70906232D01*
X116812948Y-70336269D01*
X116767500Y-70226276D01*
X117455612Y-70914388D01*
G36*
X160015549Y-72207517D02*
X160104113Y-72077900D01*
X160145166Y-72077900D01*
X160015549Y-72207517D01*
X160015549Y-72207517D01*
G37*
X160015549Y-72207517D02*
X160104113Y-72077900D01*
X160145166Y-72077900D01*
X160015549Y-72207517D01*
G36*
X100710810Y-70759190D02*
X100779951Y-70805389D01*
X100200000Y-70805389D01*
X99838501Y-70873410D01*
X99506487Y-71087055D01*
X99459127Y-71156369D01*
X98956232Y-70947549D01*
X98386269Y-70947052D01*
X98288700Y-70987367D01*
X98288700Y-70422542D01*
X98753731Y-70422948D01*
X99280499Y-70205292D01*
X99683876Y-69802619D01*
X99704521Y-69752901D01*
X100710810Y-70759190D01*
X100710810Y-70759190D01*
G37*
X100710810Y-70759190D02*
X100779951Y-70805389D01*
X100200000Y-70805389D01*
X99838501Y-70873410D01*
X99506487Y-71087055D01*
X99459127Y-71156369D01*
X98956232Y-70947549D01*
X98386269Y-70947052D01*
X98288700Y-70987367D01*
X98288700Y-70422542D01*
X98753731Y-70422948D01*
X99280499Y-70205292D01*
X99683876Y-69802619D01*
X99704521Y-69752901D01*
X100710810Y-70759190D01*
G36*
X94898041Y-70086250D02*
X95285000Y-70164611D01*
X95447252Y-70164611D01*
X95466533Y-70193467D01*
X95931300Y-70658234D01*
X95931300Y-71103302D01*
X95535082Y-70838557D01*
X95023788Y-70736854D01*
X94813467Y-70526533D01*
X94465049Y-70293727D01*
X94549388Y-70209388D01*
X94715160Y-69961293D01*
X94898041Y-70086250D01*
X94898041Y-70086250D01*
G37*
X94898041Y-70086250D02*
X95285000Y-70164611D01*
X95447252Y-70164611D01*
X95466533Y-70193467D01*
X95931300Y-70658234D01*
X95931300Y-71103302D01*
X95535082Y-70838557D01*
X95023788Y-70736854D01*
X94813467Y-70526533D01*
X94465049Y-70293727D01*
X94549388Y-70209388D01*
X94715160Y-69961293D01*
X94898041Y-70086250D01*
G36*
X130941300Y-65058553D02*
X130753750Y-65333041D01*
X130675389Y-65720000D01*
X130675389Y-66220000D01*
X130743410Y-66581499D01*
X130831783Y-66718835D01*
X130753750Y-66833041D01*
X130675389Y-67220000D01*
X130675389Y-67720000D01*
X130743410Y-68081499D01*
X130957055Y-68413513D01*
X130960348Y-68415763D01*
X131031023Y-68771069D01*
X131286533Y-69153467D01*
X131826533Y-69693467D01*
X132073871Y-69858733D01*
X132055389Y-69950000D01*
X132055389Y-70497677D01*
X131544611Y-71008455D01*
X131544611Y-69950000D01*
X131476590Y-69588501D01*
X131262945Y-69256487D01*
X130936959Y-69033750D01*
X130550000Y-68955389D01*
X129097880Y-68955389D01*
X129181500Y-68535000D01*
X129181500Y-67363720D01*
X129493513Y-67162945D01*
X129716250Y-66836959D01*
X129794611Y-66450000D01*
X129794611Y-63979500D01*
X130941300Y-63979500D01*
X130941300Y-65058553D01*
X130941300Y-65058553D01*
G37*
X130941300Y-65058553D02*
X130753750Y-65333041D01*
X130675389Y-65720000D01*
X130675389Y-66220000D01*
X130743410Y-66581499D01*
X130831783Y-66718835D01*
X130753750Y-66833041D01*
X130675389Y-67220000D01*
X130675389Y-67720000D01*
X130743410Y-68081499D01*
X130957055Y-68413513D01*
X130960348Y-68415763D01*
X131031023Y-68771069D01*
X131286533Y-69153467D01*
X131826533Y-69693467D01*
X132073871Y-69858733D01*
X132055389Y-69950000D01*
X132055389Y-70497677D01*
X131544611Y-71008455D01*
X131544611Y-69950000D01*
X131476590Y-69588501D01*
X131262945Y-69256487D01*
X130936959Y-69033750D01*
X130550000Y-68955389D01*
X129097880Y-68955389D01*
X129181500Y-68535000D01*
X129181500Y-67363720D01*
X129493513Y-67162945D01*
X129716250Y-66836959D01*
X129794611Y-66450000D01*
X129794611Y-63979500D01*
X130941300Y-63979500D01*
X130941300Y-65058553D01*
G36*
X188944500Y-70505442D02*
X188780501Y-70260000D01*
X188944500Y-70014558D01*
X188944500Y-70505442D01*
X188944500Y-70505442D01*
G37*
X188944500Y-70505442D02*
X188780501Y-70260000D01*
X188944500Y-70014558D01*
X188944500Y-70505442D01*
G36*
X144683750Y-61513041D02*
X144605389Y-61900000D01*
X144605389Y-63600000D01*
X144673410Y-63961499D01*
X144887055Y-64293513D01*
X145213041Y-64516250D01*
X145600000Y-64594611D01*
X147300000Y-64594611D01*
X147661499Y-64526590D01*
X147993513Y-64312945D01*
X148012131Y-64285697D01*
X148291411Y-64472306D01*
X148990000Y-64611264D01*
X149688589Y-64472306D01*
X150260000Y-64090501D01*
X150831411Y-64472306D01*
X151530000Y-64611264D01*
X152228589Y-64472306D01*
X152800000Y-64090501D01*
X153371411Y-64472306D01*
X154070000Y-64611264D01*
X154768589Y-64472306D01*
X155360823Y-64076587D01*
X155756542Y-63484353D01*
X155895500Y-62785764D01*
X155895500Y-62714236D01*
X155756542Y-62015647D01*
X155360823Y-61423413D01*
X155169388Y-61295500D01*
X157920612Y-61295500D01*
X157729177Y-61423413D01*
X157333458Y-62015647D01*
X157194500Y-62714236D01*
X157194500Y-62785764D01*
X157333458Y-63484353D01*
X157501890Y-63736429D01*
X157358501Y-63763410D01*
X157221165Y-63851783D01*
X157106959Y-63773750D01*
X156720000Y-63695389D01*
X156220000Y-63695389D01*
X155858501Y-63763410D01*
X155526487Y-63977055D01*
X155303750Y-64303041D01*
X155225389Y-64690000D01*
X155225389Y-65590000D01*
X155291300Y-65940285D01*
X155291300Y-66336730D01*
X155153750Y-66538041D01*
X155075389Y-66925000D01*
X155075389Y-67675000D01*
X155143410Y-68036499D01*
X155291300Y-68266327D01*
X155291300Y-68322100D01*
X154932522Y-68322100D01*
X154850000Y-68305389D01*
X153450000Y-68305389D01*
X153088501Y-68373410D01*
X152877433Y-68509228D01*
X152536232Y-68367549D01*
X151966269Y-68367052D01*
X151439501Y-68584708D01*
X151036124Y-68987381D01*
X151021826Y-69021814D01*
X150761629Y-68847956D01*
X150330000Y-68762100D01*
X149943086Y-68762100D01*
X149886959Y-68723750D01*
X149500000Y-68645389D01*
X148600000Y-68645389D01*
X148238501Y-68713410D01*
X147906487Y-68927055D01*
X147683750Y-69253041D01*
X147605389Y-69640000D01*
X147605389Y-69832360D01*
X147136232Y-69637549D01*
X146566269Y-69637052D01*
X146039501Y-69854708D01*
X146002845Y-69891300D01*
X145668700Y-69891300D01*
X145668700Y-66380000D01*
X145578977Y-65928931D01*
X145323467Y-65546533D01*
X145323464Y-65546531D01*
X144703467Y-64926533D01*
X144321069Y-64671023D01*
X143870000Y-64581300D01*
X141460639Y-64581300D01*
X142008589Y-64472306D01*
X142600823Y-64076587D01*
X142996542Y-63484353D01*
X143135500Y-62785764D01*
X143135500Y-62714236D01*
X142996542Y-62015647D01*
X142600823Y-61423413D01*
X142409388Y-61295500D01*
X144832390Y-61295500D01*
X144683750Y-61513041D01*
X144683750Y-61513041D01*
G37*
X144683750Y-61513041D02*
X144605389Y-61900000D01*
X144605389Y-63600000D01*
X144673410Y-63961499D01*
X144887055Y-64293513D01*
X145213041Y-64516250D01*
X145600000Y-64594611D01*
X147300000Y-64594611D01*
X147661499Y-64526590D01*
X147993513Y-64312945D01*
X148012131Y-64285697D01*
X148291411Y-64472306D01*
X148990000Y-64611264D01*
X149688589Y-64472306D01*
X150260000Y-64090501D01*
X150831411Y-64472306D01*
X151530000Y-64611264D01*
X152228589Y-64472306D01*
X152800000Y-64090501D01*
X153371411Y-64472306D01*
X154070000Y-64611264D01*
X154768589Y-64472306D01*
X155360823Y-64076587D01*
X155756542Y-63484353D01*
X155895500Y-62785764D01*
X155895500Y-62714236D01*
X155756542Y-62015647D01*
X155360823Y-61423413D01*
X155169388Y-61295500D01*
X157920612Y-61295500D01*
X157729177Y-61423413D01*
X157333458Y-62015647D01*
X157194500Y-62714236D01*
X157194500Y-62785764D01*
X157333458Y-63484353D01*
X157501890Y-63736429D01*
X157358501Y-63763410D01*
X157221165Y-63851783D01*
X157106959Y-63773750D01*
X156720000Y-63695389D01*
X156220000Y-63695389D01*
X155858501Y-63763410D01*
X155526487Y-63977055D01*
X155303750Y-64303041D01*
X155225389Y-64690000D01*
X155225389Y-65590000D01*
X155291300Y-65940285D01*
X155291300Y-66336730D01*
X155153750Y-66538041D01*
X155075389Y-66925000D01*
X155075389Y-67675000D01*
X155143410Y-68036499D01*
X155291300Y-68266327D01*
X155291300Y-68322100D01*
X154932522Y-68322100D01*
X154850000Y-68305389D01*
X153450000Y-68305389D01*
X153088501Y-68373410D01*
X152877433Y-68509228D01*
X152536232Y-68367549D01*
X151966269Y-68367052D01*
X151439501Y-68584708D01*
X151036124Y-68987381D01*
X151021826Y-69021814D01*
X150761629Y-68847956D01*
X150330000Y-68762100D01*
X149943086Y-68762100D01*
X149886959Y-68723750D01*
X149500000Y-68645389D01*
X148600000Y-68645389D01*
X148238501Y-68713410D01*
X147906487Y-68927055D01*
X147683750Y-69253041D01*
X147605389Y-69640000D01*
X147605389Y-69832360D01*
X147136232Y-69637549D01*
X146566269Y-69637052D01*
X146039501Y-69854708D01*
X146002845Y-69891300D01*
X145668700Y-69891300D01*
X145668700Y-66380000D01*
X145578977Y-65928931D01*
X145323467Y-65546533D01*
X145323464Y-65546531D01*
X144703467Y-64926533D01*
X144321069Y-64671023D01*
X143870000Y-64581300D01*
X141460639Y-64581300D01*
X142008589Y-64472306D01*
X142600823Y-64076587D01*
X142996542Y-63484353D01*
X143135500Y-62785764D01*
X143135500Y-62714236D01*
X142996542Y-62015647D01*
X142600823Y-61423413D01*
X142409388Y-61295500D01*
X144832390Y-61295500D01*
X144683750Y-61513041D01*
G36*
X169770738Y-68157297D02*
X169705389Y-68480000D01*
X169705389Y-69080000D01*
X169770738Y-69427297D01*
X169705389Y-69750000D01*
X169705389Y-69887130D01*
X169658700Y-69887089D01*
X169658700Y-68178234D01*
X169756311Y-68080623D01*
X169770738Y-68157297D01*
X169770738Y-68157297D01*
G37*
X169770738Y-68157297D02*
X169705389Y-68480000D01*
X169705389Y-69080000D01*
X169770738Y-69427297D01*
X169705389Y-69750000D01*
X169705389Y-69887130D01*
X169658700Y-69887089D01*
X169658700Y-68178234D01*
X169756311Y-68080623D01*
X169770738Y-68157297D01*
G36*
X140817055Y-69013513D02*
X141143041Y-69236250D01*
X141530000Y-69314611D01*
X143230000Y-69314611D01*
X143311300Y-69299313D01*
X143311300Y-69541853D01*
X143230000Y-69525389D01*
X141530000Y-69525389D01*
X141168501Y-69593410D01*
X140996193Y-69704287D01*
X140965292Y-69629501D01*
X140562619Y-69226124D01*
X140036232Y-69007549D01*
X139466269Y-69007052D01*
X139390584Y-69038324D01*
X139488977Y-68891069D01*
X139497405Y-68848700D01*
X140711001Y-68848700D01*
X140817055Y-69013513D01*
X140817055Y-69013513D01*
G37*
X140817055Y-69013513D02*
X141143041Y-69236250D01*
X141530000Y-69314611D01*
X143230000Y-69314611D01*
X143311300Y-69299313D01*
X143311300Y-69541853D01*
X143230000Y-69525389D01*
X141530000Y-69525389D01*
X141168501Y-69593410D01*
X140996193Y-69704287D01*
X140965292Y-69629501D01*
X140562619Y-69226124D01*
X140036232Y-69007549D01*
X139466269Y-69007052D01*
X139390584Y-69038324D01*
X139488977Y-68891069D01*
X139497405Y-68848700D01*
X140711001Y-68848700D01*
X140817055Y-69013513D01*
G36*
X131923750Y-61513041D02*
X131922240Y-61520500D01*
X125390000Y-61520500D01*
X124919490Y-61614090D01*
X124520612Y-61880612D01*
X123905612Y-62495612D01*
X123639090Y-62894490D01*
X123620249Y-62989212D01*
X123438501Y-63023410D01*
X123106487Y-63237055D01*
X122883750Y-63563041D01*
X122805389Y-63950000D01*
X122805389Y-63970500D01*
X122587099Y-63970500D01*
X122386959Y-63833750D01*
X122000000Y-63755389D01*
X121500000Y-63755389D01*
X121138501Y-63823410D01*
X121001165Y-63911783D01*
X120886959Y-63833750D01*
X120500000Y-63755389D01*
X120000000Y-63755389D01*
X119766268Y-63799369D01*
X119726590Y-63588501D01*
X119512945Y-63256487D01*
X119186959Y-63033750D01*
X118800000Y-62955389D01*
X116250000Y-62955389D01*
X115888501Y-63023410D01*
X115556487Y-63237055D01*
X115333750Y-63563041D01*
X115255389Y-63950000D01*
X115255389Y-66450000D01*
X115323410Y-66811499D01*
X115537055Y-67143513D01*
X115863041Y-67366250D01*
X116250000Y-67444611D01*
X116295500Y-67444611D01*
X116295500Y-69245000D01*
X116361126Y-69574926D01*
X116192619Y-69406124D01*
X115666232Y-69187549D01*
X115096269Y-69187052D01*
X114911251Y-69263500D01*
X112168927Y-69263500D01*
X112126590Y-69038501D01*
X111912945Y-68706487D01*
X111586959Y-68483750D01*
X111306500Y-68426956D01*
X111306500Y-67444611D01*
X113750000Y-67444611D01*
X114111499Y-67376590D01*
X114443513Y-67162945D01*
X114666250Y-66836959D01*
X114744611Y-66450000D01*
X114744611Y-63950000D01*
X114676590Y-63588501D01*
X114462945Y-63256487D01*
X114136959Y-63033750D01*
X113750000Y-62955389D01*
X111200000Y-62955389D01*
X110838501Y-63023410D01*
X110506487Y-63237055D01*
X110283750Y-63563041D01*
X110210040Y-63927035D01*
X110201669Y-63928700D01*
X110110889Y-63946757D01*
X110005534Y-64017154D01*
X109025268Y-63036888D01*
X109025998Y-62200537D01*
X108652044Y-61295500D01*
X132072390Y-61295500D01*
X131923750Y-61513041D01*
X131923750Y-61513041D01*
G37*
X131923750Y-61513041D02*
X131922240Y-61520500D01*
X125390000Y-61520500D01*
X124919490Y-61614090D01*
X124520612Y-61880612D01*
X123905612Y-62495612D01*
X123639090Y-62894490D01*
X123620249Y-62989212D01*
X123438501Y-63023410D01*
X123106487Y-63237055D01*
X122883750Y-63563041D01*
X122805389Y-63950000D01*
X122805389Y-63970500D01*
X122587099Y-63970500D01*
X122386959Y-63833750D01*
X122000000Y-63755389D01*
X121500000Y-63755389D01*
X121138501Y-63823410D01*
X121001165Y-63911783D01*
X120886959Y-63833750D01*
X120500000Y-63755389D01*
X120000000Y-63755389D01*
X119766268Y-63799369D01*
X119726590Y-63588501D01*
X119512945Y-63256487D01*
X119186959Y-63033750D01*
X118800000Y-62955389D01*
X116250000Y-62955389D01*
X115888501Y-63023410D01*
X115556487Y-63237055D01*
X115333750Y-63563041D01*
X115255389Y-63950000D01*
X115255389Y-66450000D01*
X115323410Y-66811499D01*
X115537055Y-67143513D01*
X115863041Y-67366250D01*
X116250000Y-67444611D01*
X116295500Y-67444611D01*
X116295500Y-69245000D01*
X116361126Y-69574926D01*
X116192619Y-69406124D01*
X115666232Y-69187549D01*
X115096269Y-69187052D01*
X114911251Y-69263500D01*
X112168927Y-69263500D01*
X112126590Y-69038501D01*
X111912945Y-68706487D01*
X111586959Y-68483750D01*
X111306500Y-68426956D01*
X111306500Y-67444611D01*
X113750000Y-67444611D01*
X114111499Y-67376590D01*
X114443513Y-67162945D01*
X114666250Y-66836959D01*
X114744611Y-66450000D01*
X114744611Y-63950000D01*
X114676590Y-63588501D01*
X114462945Y-63256487D01*
X114136959Y-63033750D01*
X113750000Y-62955389D01*
X111200000Y-62955389D01*
X110838501Y-63023410D01*
X110506487Y-63237055D01*
X110283750Y-63563041D01*
X110210040Y-63927035D01*
X110201669Y-63928700D01*
X110110889Y-63946757D01*
X110005534Y-64017154D01*
X109025268Y-63036888D01*
X109025998Y-62200537D01*
X108652044Y-61295500D01*
X132072390Y-61295500D01*
X131923750Y-61513041D01*
G36*
X188944500Y-67965442D02*
X188780501Y-67720000D01*
X188944500Y-67474558D01*
X188944500Y-67965442D01*
X188944500Y-67965442D01*
G37*
X188944500Y-67965442D02*
X188780501Y-67720000D01*
X188944500Y-67474558D01*
X188944500Y-67965442D01*
G36*
X100355389Y-65500000D02*
X100355389Y-66567009D01*
X99276885Y-65488505D01*
X99446499Y-65456590D01*
X99676327Y-65308700D01*
X100394128Y-65308700D01*
X100355389Y-65500000D01*
X100355389Y-65500000D01*
G37*
X100355389Y-65500000D02*
X100355389Y-66567009D01*
X99276885Y-65488505D01*
X99446499Y-65456590D01*
X99676327Y-65308700D01*
X100394128Y-65308700D01*
X100355389Y-65500000D01*
G36*
X170617348Y-64202319D02*
X170631023Y-64271069D01*
X170886533Y-64653467D01*
X171178455Y-64945389D01*
X170700000Y-64945389D01*
X170338501Y-65013410D01*
X170128525Y-65148526D01*
X169953467Y-64886533D01*
X169595542Y-64528608D01*
X169878589Y-64472306D01*
X170450000Y-64090501D01*
X170617348Y-64202319D01*
X170617348Y-64202319D01*
G37*
X170617348Y-64202319D02*
X170631023Y-64271069D01*
X170886533Y-64653467D01*
X171178455Y-64945389D01*
X170700000Y-64945389D01*
X170338501Y-65013410D01*
X170128525Y-65148526D01*
X169953467Y-64886533D01*
X169595542Y-64528608D01*
X169878589Y-64472306D01*
X170450000Y-64090501D01*
X170617348Y-64202319D01*
G36*
X165941411Y-64472306D02*
X166270914Y-64537848D01*
X166678455Y-64945389D01*
X165300000Y-64945389D01*
X165158877Y-64971943D01*
X164682359Y-64495425D01*
X164798589Y-64472306D01*
X165370000Y-64090501D01*
X165941411Y-64472306D01*
X165941411Y-64472306D01*
G37*
X165941411Y-64472306D02*
X166270914Y-64537848D01*
X166678455Y-64945389D01*
X165300000Y-64945389D01*
X165158877Y-64971943D01*
X164682359Y-64495425D01*
X164798589Y-64472306D01*
X165370000Y-64090501D01*
X165941411Y-64472306D01*
G36*
X135051300Y-64698553D02*
X135044881Y-64707947D01*
X134869538Y-64532604D01*
X134901499Y-64526590D01*
X135051300Y-64430196D01*
X135051300Y-64698553D01*
X135051300Y-64698553D01*
G37*
X135051300Y-64698553D02*
X135044881Y-64707947D01*
X134869538Y-64532604D01*
X134901499Y-64526590D01*
X135051300Y-64430196D01*
X135051300Y-64698553D01*
G36*
X138071411Y-64472306D02*
X138619361Y-64581300D01*
X137408700Y-64581300D01*
X137408700Y-64151505D01*
X137500000Y-64090501D01*
X138071411Y-64472306D01*
X138071411Y-64472306D01*
G37*
X138071411Y-64472306D02*
X138619361Y-64581300D01*
X137408700Y-64581300D01*
X137408700Y-64151505D01*
X137500000Y-64090501D01*
X138071411Y-64472306D01*
G36*
X140611411Y-64472306D02*
X141159361Y-64581300D01*
X138920639Y-64581300D01*
X139468589Y-64472306D01*
X140040000Y-64090501D01*
X140611411Y-64472306D01*
X140611411Y-64472306D01*
G37*
X140611411Y-64472306D02*
X141159361Y-64581300D01*
X138920639Y-64581300D01*
X139468589Y-64472306D01*
X140040000Y-64090501D01*
X140611411Y-64472306D01*
G36*
X178525159Y-61458574D02*
X178420223Y-61295500D01*
X178592873Y-61295500D01*
X178525159Y-61458574D01*
X178525159Y-61458574D01*
G37*
X178525159Y-61458574D02*
X178420223Y-61295500D01*
X178592873Y-61295500D01*
X178525159Y-61458574D01*
G36*
X103584027Y-61451300D02*
X99673270Y-61451300D01*
X99471959Y-61313750D01*
X99381838Y-61295500D01*
X103648721Y-61295500D01*
X103584027Y-61451300D01*
X103584027Y-61451300D01*
G37*
X103584027Y-61451300D02*
X99673270Y-61451300D01*
X99471959Y-61313750D01*
X99381838Y-61295500D01*
X103648721Y-61295500D01*
X103584027Y-61451300D01*
G36*
X172990000Y-61409499D02*
X172819388Y-61295500D01*
X173160612Y-61295500D01*
X172990000Y-61409499D01*
X172990000Y-61409499D01*
G37*
X172990000Y-61409499D02*
X172819388Y-61295500D01*
X173160612Y-61295500D01*
X172990000Y-61409499D01*
G36*
X170450000Y-61409499D02*
X170279388Y-61295500D01*
X170620612Y-61295500D01*
X170450000Y-61409499D01*
X170450000Y-61409499D01*
G37*
X170450000Y-61409499D02*
X170279388Y-61295500D01*
X170620612Y-61295500D01*
X170450000Y-61409499D01*
G36*
X167910000Y-61409499D02*
X167739388Y-61295500D01*
X168080612Y-61295500D01*
X167910000Y-61409499D01*
X167910000Y-61409499D01*
G37*
X167910000Y-61409499D02*
X167739388Y-61295500D01*
X168080612Y-61295500D01*
X167910000Y-61409499D01*
G36*
X165370000Y-61409499D02*
X165199388Y-61295500D01*
X165540612Y-61295500D01*
X165370000Y-61409499D01*
X165370000Y-61409499D01*
G37*
X165370000Y-61409499D02*
X165199388Y-61295500D01*
X165540612Y-61295500D01*
X165370000Y-61409499D01*
G36*
X162830000Y-61409499D02*
X162659388Y-61295500D01*
X163000612Y-61295500D01*
X162830000Y-61409499D01*
X162830000Y-61409499D01*
G37*
X162830000Y-61409499D02*
X162659388Y-61295500D01*
X163000612Y-61295500D01*
X162830000Y-61409499D01*
G36*
X160290000Y-61409499D02*
X160119388Y-61295500D01*
X160460612Y-61295500D01*
X160290000Y-61409499D01*
X160290000Y-61409499D01*
G37*
X160290000Y-61409499D02*
X160119388Y-61295500D01*
X160460612Y-61295500D01*
X160290000Y-61409499D01*
G36*
X152800000Y-61409499D02*
X152629388Y-61295500D01*
X152970612Y-61295500D01*
X152800000Y-61409499D01*
X152800000Y-61409499D01*
G37*
X152800000Y-61409499D02*
X152629388Y-61295500D01*
X152970612Y-61295500D01*
X152800000Y-61409499D01*
G36*
X150260000Y-61409499D02*
X150089388Y-61295500D01*
X150430612Y-61295500D01*
X150260000Y-61409499D01*
X150260000Y-61409499D01*
G37*
X150260000Y-61409499D02*
X150089388Y-61295500D01*
X150430612Y-61295500D01*
X150260000Y-61409499D01*
G36*
X140040000Y-61409499D02*
X139869388Y-61295500D01*
X140210612Y-61295500D01*
X140040000Y-61409499D01*
X140040000Y-61409499D01*
G37*
X140040000Y-61409499D02*
X139869388Y-61295500D01*
X140210612Y-61295500D01*
X140040000Y-61409499D01*
G36*
X137500000Y-61409499D02*
X137329388Y-61295500D01*
X137670612Y-61295500D01*
X137500000Y-61409499D01*
X137500000Y-61409499D01*
G37*
X137500000Y-61409499D02*
X137329388Y-61295500D01*
X137670612Y-61295500D01*
X137500000Y-61409499D01*
M02*
