M48
;DRILL file {KiCad 4.0.7-e1-6374~58~ubuntu14.04.1} date Tue Jan 23 22:35:47 2018
;FORMAT={-:-/ absolute / metric / decimal}
FMAT,2
METRIC,TZ
T1C0.406
T2C0.500
T3C0.550
T4C0.800
T5C1.000
T6C2.000
T7C2.200
%
G90
G05
M71
T1
X93.97Y-101.18
X94.05Y-99.52
X96.45Y-86.5
X98.67Y-72.38
X99.11Y-95.45
X100.74Y-95.44
X101.4Y-99.95
X103.22Y-71.21
X103.25Y-68.09
X105.39Y-107.2
X105.54Y-69.8
X107.14Y-108.69
X110.3Y-88.35
X110.38Y-91.38
X110.45Y-92.82
X113.1Y-92.98
X114.38Y-103.1
X114.97Y-79.23
X115.38Y-70.62
X115.98Y-87.41
X118.63Y-77.2
X118.73Y-98.02
X122.13Y-105.38
X124.33Y-101.53
X125.2Y-103.15
X125.78Y-97.76
X127.14Y-88.33
X127.63Y-68.73
X129.59Y-100.04
X129.59Y-103.85
X130.23Y-79.96
X130.575Y-85.775
X131.76Y-96.18
X131.87Y-65.56
X133.02Y-107.66
X133.04Y-102.58
X134.5Y-86.85
X134.65Y-93.25
X135.05Y-101.58
X135.55Y-94.35
X135.65Y-87.925
X135.66Y-91.12
X136.15Y-86.45
X137.61Y-70.49
X138.07Y-79.79
X138.07Y-86.97
X138.53Y-106.38
X138.57Y-102.58
X138.65Y-103.85
X139.07Y-94.01
X140.01Y-93.13
X140.55Y-86.3
X141.13Y-75.5
X141.81Y-86.65
X141.83Y-94.18
X142.075Y-89.525
X142.99Y-77.13
X143.06Y-81.74
X143.72Y-106.21
X143.77Y-84.49
X143.88Y-96.44
X144.68Y-79.92
X145.6Y-89.8
X146.2Y-77.42
X147.76Y-77.42
X147.95Y-71.07
X150.66Y-85.14
X150.74Y-89.92
X150.99Y-77.46
X151.29Y-81.43
X151.3Y-82.73
X152.25Y-69.8
X152.37Y-93.88
X152.89Y-100.89
X153.17Y-86.85
X154.71Y-78.9
X154.72Y-86.87
X155.31Y-72.59
X155.45Y-91.28
X155.6Y-70.6
X156.05Y-99.41
X156.23Y-78.41
X156.91Y-82.7
X157.89Y-95.5
X158.33Y-72.66
X159.01Y-67.91
X160.19Y-66.25
X160.19Y-80.17
X161.55Y-71.64
X162.18Y-96.16
X162.21Y-79.69
X163.7Y-70.05
X165.35Y-79.7
X165.8Y-81.11
X166.47Y-82.68
X167.62Y-66.24
X168.12Y-87.62
X168.15Y-91.41
X168.17Y-90.16
X168.17Y-98.15
X168.2Y-95.61
X168.2Y-96.86
X169.9Y-71.32
X170.37Y-93.54
X171.7Y-85.24
X173.06Y-68.78
X173.29Y-71.32
X173.37Y-86.43
X174.35Y-92.65
X174.41Y-105.45
X175.1Y-90.15
X176.96Y-105.34
X179.53Y-105.24
X181.1Y-90.14
X182.06Y-105.28
T4
X131.57Y-78.39
X136.45Y-78.39
T5
X94.44Y-103.52
X94.44Y-106.02
X94.44Y-108.52
X115.82Y-94.34
X118.36Y-94.34
X120.9Y-94.34
X121.9Y-78.1
X121.9Y-80.64
X121.9Y-83.18
X121.9Y-85.72
X123.44Y-94.34
X124.44Y-78.1
X124.44Y-80.64
X124.44Y-83.18
X124.44Y-85.72
X125.37Y-111.07
X125.98Y-94.34
X127.91Y-111.07
X128.52Y-94.34
X130.45Y-111.07
X133.69Y-62.75
X135.82Y-111.07
X136.23Y-62.75
X138.36Y-111.07
X138.77Y-62.75
X140.9Y-111.07
X141.31Y-62.75
X143.44Y-111.07
X146.45Y-62.75
X148.69Y-111.06
X148.99Y-62.75
X151.23Y-111.06
X151.53Y-62.75
X153.77Y-111.06
X154.07Y-62.75
X156.31Y-111.06
X158.85Y-111.06
X159.02Y-62.75
X161.39Y-111.06
X161.56Y-62.75
X163.93Y-111.06
X164.1Y-62.75
X166.47Y-111.06
X166.64Y-62.75
X169.18Y-62.75
X171.72Y-62.75
X171.91Y-111.04
X174.26Y-62.75
X174.45Y-111.04
X176.8Y-62.75
X176.99Y-111.04
X179.53Y-111.04
X182.07Y-111.04
X184.9Y-66.45
X184.9Y-68.99
X184.9Y-71.53
X184.9Y-75.48
X184.9Y-78.02
X184.9Y-80.56
X184.9Y-83.1
X184.9Y-85.64
X184.9Y-88.18
X184.9Y-90.72
X184.91Y-95.75
X184.91Y-98.29
X184.91Y-100.83
X184.91Y-103.37
X187.44Y-66.45
X187.44Y-68.99
X187.44Y-71.53
X187.44Y-75.48
X187.44Y-78.02
X187.44Y-80.56
X187.44Y-83.1
X187.44Y-85.64
X187.44Y-88.18
X187.44Y-90.72
X187.45Y-95.75
X187.45Y-98.29
X187.45Y-100.83
X187.45Y-103.37
T6
X97.74Y-101.02
X97.74Y-111.02
T7
X104.88Y-111.02
X106.15Y-62.77
X181.09Y-62.78
X187.42Y-111.01
T2
X92.015Y-71.37G85X92.665Y-71.37
G05
X92.015Y-78.37G85X92.665Y-78.37
G05
T3
X95.04Y-72.22G85X95.04Y-72.52
G05
X95.04Y-77.22G85X95.04Y-77.52
G05
T0
M30
