G04 #@! TF.FileFunction,Paste,Top*
%FSLAX46Y46*%
G04 Gerber Fmt 4.6, Leading zero omitted, Abs format (unit mm)*
G04 Created by KiCad (PCBNEW 4.0.7-e1-6374~58~ubuntu14.04.1) date Sat Jan 27 07:15:51 2018*
%MOMM*%
%LPD*%
G01*
G04 APERTURE LIST*
%ADD10C,0.100000*%
%ADD11R,0.500000X0.900000*%
%ADD12R,1.550000X0.600000*%
%ADD13R,0.600000X1.950000*%
%ADD14R,0.550000X1.500000*%
%ADD15R,1.500000X0.550000*%
%ADD16R,2.500000X2.550000*%
%ADD17R,2.550000X2.500000*%
%ADD18R,1.700000X1.300000*%
%ADD19R,1.300000X1.700000*%
%ADD20R,1.200000X1.200000*%
%ADD21R,2.030000X1.140000*%
%ADD22R,0.700000X1.300000*%
%ADD23R,0.900000X0.800000*%
%ADD24R,1.500000X0.600000*%
%ADD25R,1.060000X0.650000*%
%ADD26R,3.800000X2.000000*%
%ADD27R,1.500000X2.000000*%
%ADD28R,1.400000X0.300000*%
%ADD29R,1.350000X0.400000*%
%ADD30R,2.500000X1.950000*%
%ADD31R,1.950000X2.500000*%
%ADD32R,0.800000X0.750000*%
%ADD33R,0.750000X0.800000*%
%ADD34R,0.900000X0.500000*%
G04 APERTURE END LIST*
D10*
D11*
X112960000Y-107010000D03*
X111460000Y-107010000D03*
D12*
X154370000Y-95595000D03*
X154370000Y-96865000D03*
X154370000Y-98135000D03*
X154370000Y-99405000D03*
X159770000Y-99405000D03*
X159770000Y-98135000D03*
X159770000Y-96865000D03*
X159770000Y-95595000D03*
D13*
X93345000Y-93510000D03*
X94615000Y-93510000D03*
X95885000Y-93510000D03*
X97155000Y-93510000D03*
X98425000Y-93510000D03*
X99695000Y-93510000D03*
X100965000Y-93510000D03*
X102235000Y-93510000D03*
X103505000Y-93510000D03*
X104775000Y-93510000D03*
X104775000Y-84110000D03*
X103505000Y-84110000D03*
X102235000Y-84110000D03*
X100965000Y-84110000D03*
X99695000Y-84110000D03*
X98425000Y-84110000D03*
X97155000Y-84110000D03*
X95885000Y-84110000D03*
X94615000Y-84110000D03*
X93345000Y-84110000D03*
D14*
X134060000Y-96020000D03*
X134860000Y-96020000D03*
X135660000Y-96020000D03*
X136460000Y-96020000D03*
X137260000Y-96020000D03*
X138060000Y-96020000D03*
X138860000Y-96020000D03*
X139660000Y-96020000D03*
X140460000Y-96020000D03*
X141260000Y-96020000D03*
X142060000Y-96020000D03*
D15*
X143760000Y-94320000D03*
X143760000Y-93520000D03*
X143760000Y-92720000D03*
X143760000Y-91920000D03*
X143760000Y-91120000D03*
X143760000Y-90320000D03*
X143760000Y-89520000D03*
X143760000Y-88720000D03*
X143760000Y-87920000D03*
X143760000Y-87120000D03*
X143760000Y-86320000D03*
D14*
X142060000Y-84620000D03*
X141260000Y-84620000D03*
X140460000Y-84620000D03*
X139660000Y-84620000D03*
X138860000Y-84620000D03*
X138060000Y-84620000D03*
X137260000Y-84620000D03*
X136460000Y-84620000D03*
X135660000Y-84620000D03*
X134860000Y-84620000D03*
X134060000Y-84620000D03*
D15*
X132360000Y-86320000D03*
X132360000Y-87120000D03*
X132360000Y-87920000D03*
X132360000Y-88720000D03*
X132360000Y-89520000D03*
X132360000Y-90320000D03*
X132360000Y-91120000D03*
X132360000Y-91920000D03*
X132360000Y-92720000D03*
X132360000Y-93520000D03*
X132360000Y-94320000D03*
D16*
X109950000Y-75725000D03*
X109950000Y-70675000D03*
D17*
X113425000Y-84950000D03*
X108375000Y-84950000D03*
X134325000Y-71200000D03*
X129275000Y-71200000D03*
X112475000Y-65200000D03*
X117525000Y-65200000D03*
D18*
X118050000Y-86600000D03*
X118050000Y-83100000D03*
D19*
X140980000Y-67670000D03*
X144480000Y-67670000D03*
D20*
X153380000Y-91790000D03*
X153380000Y-89590000D03*
X93710000Y-64840000D03*
X93710000Y-67040000D03*
D21*
X96300000Y-68600000D03*
X96300000Y-66200000D03*
D22*
X144190000Y-82090000D03*
X142290000Y-82090000D03*
D23*
X174800000Y-73870000D03*
X174800000Y-75770000D03*
X176800000Y-74820000D03*
D24*
X131160000Y-100040000D03*
X131160000Y-101310000D03*
X131160000Y-102580000D03*
X131160000Y-103850000D03*
X131160000Y-105120000D03*
X131160000Y-106390000D03*
X131160000Y-107660000D03*
X136560000Y-107660000D03*
X136560000Y-106390000D03*
X136560000Y-105120000D03*
X136560000Y-103850000D03*
X136560000Y-102580000D03*
X136560000Y-101310000D03*
X136560000Y-100040000D03*
D25*
X105550000Y-78850000D03*
X105550000Y-79800000D03*
X105550000Y-80750000D03*
X107750000Y-80750000D03*
X107750000Y-78850000D03*
X107750000Y-79800000D03*
D12*
X125300000Y-73855000D03*
X125300000Y-72585000D03*
X125300000Y-71315000D03*
X125300000Y-70045000D03*
X119900000Y-70045000D03*
X119900000Y-71315000D03*
X119900000Y-72585000D03*
X119900000Y-73855000D03*
D26*
X103250000Y-66500000D03*
D27*
X103250000Y-72800000D03*
X105550000Y-72800000D03*
X100950000Y-72800000D03*
D24*
X166050000Y-66240000D03*
X166050000Y-67510000D03*
X166050000Y-68780000D03*
X166050000Y-70050000D03*
X166050000Y-71320000D03*
X166050000Y-72590000D03*
X166050000Y-73860000D03*
X171450000Y-73860000D03*
X171450000Y-72590000D03*
X171450000Y-71320000D03*
X171450000Y-70050000D03*
X171450000Y-68780000D03*
X171450000Y-67510000D03*
X171450000Y-66240000D03*
D12*
X164370000Y-87625000D03*
X164370000Y-88895000D03*
X164370000Y-90165000D03*
X164370000Y-91435000D03*
X169770000Y-91435000D03*
X169770000Y-90165000D03*
X169770000Y-88895000D03*
X169770000Y-87625000D03*
D28*
X154150000Y-69450000D03*
X154150000Y-69950000D03*
X154150000Y-70450000D03*
X154150000Y-70950000D03*
X154150000Y-71450000D03*
X158550000Y-71450000D03*
X158550000Y-70950000D03*
X158550000Y-70450000D03*
X158550000Y-69950000D03*
X158550000Y-69450000D03*
D12*
X173410000Y-87615000D03*
X173410000Y-88885000D03*
X173410000Y-90155000D03*
X173410000Y-91425000D03*
X178810000Y-91425000D03*
X178810000Y-90155000D03*
X178810000Y-88885000D03*
X178810000Y-87615000D03*
X164410000Y-95595000D03*
X164410000Y-96865000D03*
X164410000Y-98135000D03*
X164410000Y-99405000D03*
X169810000Y-99405000D03*
X169810000Y-98135000D03*
X169810000Y-96865000D03*
X169810000Y-95595000D03*
X122060000Y-103155000D03*
X122060000Y-101885000D03*
X122060000Y-100615000D03*
X122060000Y-99345000D03*
X116660000Y-99345000D03*
X116660000Y-100615000D03*
X116660000Y-101885000D03*
X116660000Y-103155000D03*
X153130000Y-78885000D03*
X153130000Y-80155000D03*
X153130000Y-81425000D03*
X153130000Y-82695000D03*
X158530000Y-82695000D03*
X158530000Y-81425000D03*
X158530000Y-80155000D03*
X158530000Y-78885000D03*
D29*
X95040000Y-73570000D03*
X95040000Y-74220000D03*
X95040000Y-74870000D03*
X95040000Y-75520000D03*
X95040000Y-76170000D03*
D23*
X118300000Y-80750000D03*
X118300000Y-78850000D03*
X116300000Y-79800000D03*
X136230000Y-67660000D03*
X136230000Y-65760000D03*
X134230000Y-66710000D03*
D30*
X115350000Y-75925000D03*
X115350000Y-72875000D03*
D31*
X127825000Y-65200000D03*
X124775000Y-65200000D03*
D32*
X93490000Y-81980000D03*
X91990000Y-81980000D03*
X91990000Y-80250000D03*
X93490000Y-80250000D03*
D33*
X125950000Y-89550000D03*
X125950000Y-91050000D03*
X92640000Y-97520000D03*
X92640000Y-96020000D03*
D32*
X100840000Y-107210000D03*
X102340000Y-107210000D03*
X105620000Y-104530000D03*
X104120000Y-104530000D03*
X128170000Y-75040000D03*
X129670000Y-75040000D03*
D33*
X128170000Y-106160000D03*
X128170000Y-107660000D03*
D32*
X133640000Y-75040000D03*
X132140000Y-75040000D03*
X138900000Y-82100000D03*
X137400000Y-82100000D03*
X140430000Y-98840000D03*
X141930000Y-98840000D03*
X148300000Y-88620000D03*
X149800000Y-88620000D03*
X97950000Y-64100000D03*
X99450000Y-64100000D03*
X101750000Y-64100000D03*
X103250000Y-64100000D03*
X167670000Y-93540000D03*
X169170000Y-93540000D03*
D33*
X159610000Y-88070000D03*
X159610000Y-86570000D03*
D32*
X155840000Y-67300000D03*
X157340000Y-67300000D03*
X165220000Y-84710000D03*
X163720000Y-84710000D03*
X169780000Y-84720000D03*
X168280000Y-84720000D03*
X163000000Y-67300000D03*
X161500000Y-67300000D03*
X154370000Y-101310000D03*
X155870000Y-101310000D03*
D33*
X151610000Y-96860000D03*
X151610000Y-95360000D03*
X107790000Y-99860000D03*
X107790000Y-101360000D03*
X162170000Y-95090000D03*
X162170000Y-93590000D03*
D32*
X176300000Y-71330000D03*
X174800000Y-71330000D03*
D33*
X122130000Y-107790000D03*
X122130000Y-106290000D03*
D32*
X155830000Y-84740000D03*
X157330000Y-84740000D03*
X116390000Y-97630000D03*
X114890000Y-97630000D03*
D33*
X116430000Y-106230000D03*
X116430000Y-107730000D03*
D32*
X159830000Y-76720000D03*
X158330000Y-76720000D03*
X123770000Y-97740000D03*
X122270000Y-97740000D03*
D33*
X175340000Y-95590000D03*
X175340000Y-94090000D03*
D32*
X107800000Y-104530000D03*
X109300000Y-104530000D03*
D33*
X151610000Y-101350000D03*
X151610000Y-99850000D03*
D32*
X163310000Y-76730000D03*
X161810000Y-76730000D03*
D34*
X139500000Y-74160000D03*
X139500000Y-75660000D03*
D11*
X131670000Y-84330000D03*
X130170000Y-84330000D03*
X131670000Y-82240000D03*
X130170000Y-82240000D03*
X113670000Y-79210000D03*
X112170000Y-79210000D03*
X112170000Y-81780000D03*
X113670000Y-81780000D03*
D34*
X174450000Y-108660000D03*
X174450000Y-107160000D03*
X176990000Y-108660000D03*
X176990000Y-107160000D03*
X179530000Y-108660000D03*
X179530000Y-107160000D03*
X182070000Y-108660000D03*
X182070000Y-107160000D03*
X143070000Y-80100000D03*
X143070000Y-78600000D03*
X131860000Y-68210000D03*
X131860000Y-66710000D03*
X143050000Y-74310000D03*
X143050000Y-75810000D03*
D11*
X121750000Y-65200000D03*
X120250000Y-65200000D03*
X148200000Y-85140000D03*
X149700000Y-85140000D03*
X112940000Y-104530000D03*
X111440000Y-104530000D03*
D34*
X146210000Y-78590000D03*
X146210000Y-80090000D03*
D11*
X146210000Y-75860000D03*
X147710000Y-75860000D03*
X155840000Y-65140000D03*
X157340000Y-65140000D03*
X161480000Y-65140000D03*
X162980000Y-65140000D03*
D34*
X161750000Y-86570000D03*
X161750000Y-88070000D03*
X173390000Y-94080000D03*
X173390000Y-95580000D03*
D11*
X176290000Y-81220000D03*
X174790000Y-81220000D03*
X161140000Y-84710000D03*
X159640000Y-84710000D03*
X176290000Y-68930000D03*
X174790000Y-68930000D03*
X176350000Y-66230000D03*
X174850000Y-66230000D03*
X151020000Y-70950000D03*
X149520000Y-70950000D03*
X149740000Y-96260000D03*
X148240000Y-96260000D03*
X149710000Y-101350000D03*
X148210000Y-101350000D03*
X148220000Y-98800000D03*
X149720000Y-98800000D03*
D34*
X146200000Y-83210000D03*
X146200000Y-81710000D03*
X148950000Y-83210000D03*
X148950000Y-81710000D03*
D11*
X152050000Y-84700000D03*
X153550000Y-84700000D03*
D34*
X155960000Y-92500000D03*
X155960000Y-94000000D03*
D11*
X158250000Y-74290000D03*
X159750000Y-74290000D03*
X176300000Y-78230000D03*
X174800000Y-78230000D03*
X161590000Y-74290000D03*
X163090000Y-74290000D03*
X149760000Y-75850000D03*
X151260000Y-75850000D03*
X165350000Y-76730000D03*
X166850000Y-76730000D03*
X109300000Y-109850000D03*
X107800000Y-109850000D03*
X105640000Y-98210000D03*
X104140000Y-98210000D03*
X104120000Y-101360000D03*
X105620000Y-101360000D03*
X100830000Y-104530000D03*
X102330000Y-104530000D03*
X112960000Y-109850000D03*
X111460000Y-109850000D03*
D34*
X149020000Y-78590000D03*
X149020000Y-80090000D03*
X161425000Y-82425000D03*
X161425000Y-80925000D03*
X163820000Y-82420000D03*
X163820000Y-80920000D03*
D11*
X148250000Y-93880000D03*
X149750000Y-93880000D03*
X149760000Y-91300000D03*
X148260000Y-91300000D03*
X95060000Y-62470000D03*
X96560000Y-62470000D03*
X108920000Y-88390000D03*
X107420000Y-88390000D03*
X108980000Y-91380000D03*
X107480000Y-91380000D03*
X96200000Y-96250000D03*
X97700000Y-96250000D03*
X96200000Y-98050000D03*
X97700000Y-98050000D03*
M02*
