G04 #@! TF.FileFunction,Copper,L1,Top,Signal*
%FSLAX46Y46*%
G04 Gerber Fmt 4.6, Leading zero omitted, Abs format (unit mm)*
G04 Created by KiCad (PCBNEW 4.0.7-e1-6374~58~ubuntu14.04.1) date Tue Jan 23 22:35:42 2018*
%MOMM*%
%LPD*%
G01*
G04 APERTURE LIST*
%ADD10C,0.100000*%
%ADD11C,1.800000*%
%ADD12O,4.500000X3.000000*%
%ADD13R,0.500000X0.900000*%
%ADD14R,1.550000X0.600000*%
%ADD15R,0.600000X1.950000*%
%ADD16R,0.550000X1.500000*%
%ADD17R,1.500000X0.550000*%
%ADD18R,2.500000X2.550000*%
%ADD19R,2.550000X2.500000*%
%ADD20R,1.700000X1.300000*%
%ADD21R,1.300000X1.700000*%
%ADD22R,1.200000X1.200000*%
%ADD23R,2.030000X1.140000*%
%ADD24R,0.700000X1.300000*%
%ADD25C,3.800000*%
%ADD26R,0.900000X0.800000*%
%ADD27R,1.500000X0.600000*%
%ADD28R,1.060000X0.650000*%
%ADD29R,3.800000X2.000000*%
%ADD30R,1.500000X2.000000*%
%ADD31R,1.400000X0.300000*%
%ADD32R,1.350000X0.400000*%
%ADD33O,0.950000X1.250000*%
%ADD34O,1.550000X1.000000*%
%ADD35R,1.700000X1.700000*%
%ADD36O,1.700000X1.700000*%
%ADD37C,1.500000*%
%ADD38R,2.500000X1.950000*%
%ADD39R,1.950000X2.500000*%
%ADD40R,0.800000X0.750000*%
%ADD41R,0.750000X0.800000*%
%ADD42R,0.900000X0.500000*%
%ADD43C,0.914400*%
%ADD44C,0.406400*%
%ADD45C,0.762000*%
%ADD46C,0.508000*%
%ADD47C,0.304800*%
%ADD48C,0.254000*%
%ADD49C,0.351000*%
G04 APERTURE END LIST*
D10*
D11*
X94440000Y-108520000D03*
X94440000Y-106020000D03*
X94440000Y-103520000D03*
D12*
X97740000Y-111020000D03*
X97740000Y-101020000D03*
D13*
X112960000Y-107010000D03*
X111460000Y-107010000D03*
D14*
X154370000Y-95595000D03*
X154370000Y-96865000D03*
X154370000Y-98135000D03*
X154370000Y-99405000D03*
X159770000Y-99405000D03*
X159770000Y-98135000D03*
X159770000Y-96865000D03*
X159770000Y-95595000D03*
D15*
X93345000Y-93510000D03*
X94615000Y-93510000D03*
X95885000Y-93510000D03*
X97155000Y-93510000D03*
X98425000Y-93510000D03*
X99695000Y-93510000D03*
X100965000Y-93510000D03*
X102235000Y-93510000D03*
X103505000Y-93510000D03*
X104775000Y-93510000D03*
X104775000Y-84110000D03*
X103505000Y-84110000D03*
X102235000Y-84110000D03*
X100965000Y-84110000D03*
X99695000Y-84110000D03*
X98425000Y-84110000D03*
X97155000Y-84110000D03*
X95885000Y-84110000D03*
X94615000Y-84110000D03*
X93345000Y-84110000D03*
D16*
X134060000Y-96020000D03*
X134860000Y-96020000D03*
X135660000Y-96020000D03*
X136460000Y-96020000D03*
X137260000Y-96020000D03*
X138060000Y-96020000D03*
X138860000Y-96020000D03*
X139660000Y-96020000D03*
X140460000Y-96020000D03*
X141260000Y-96020000D03*
X142060000Y-96020000D03*
D17*
X143760000Y-94320000D03*
X143760000Y-93520000D03*
X143760000Y-92720000D03*
X143760000Y-91920000D03*
X143760000Y-91120000D03*
X143760000Y-90320000D03*
X143760000Y-89520000D03*
X143760000Y-88720000D03*
X143760000Y-87920000D03*
X143760000Y-87120000D03*
X143760000Y-86320000D03*
D16*
X142060000Y-84620000D03*
X141260000Y-84620000D03*
X140460000Y-84620000D03*
X139660000Y-84620000D03*
X138860000Y-84620000D03*
X138060000Y-84620000D03*
X137260000Y-84620000D03*
X136460000Y-84620000D03*
X135660000Y-84620000D03*
X134860000Y-84620000D03*
X134060000Y-84620000D03*
D17*
X132360000Y-86320000D03*
X132360000Y-87120000D03*
X132360000Y-87920000D03*
X132360000Y-88720000D03*
X132360000Y-89520000D03*
X132360000Y-90320000D03*
X132360000Y-91120000D03*
X132360000Y-91920000D03*
X132360000Y-92720000D03*
X132360000Y-93520000D03*
X132360000Y-94320000D03*
D18*
X109950000Y-75725000D03*
X109950000Y-70675000D03*
D19*
X113425000Y-84950000D03*
X108375000Y-84950000D03*
X134325000Y-71200000D03*
X129275000Y-71200000D03*
X112475000Y-65200000D03*
X117525000Y-65200000D03*
D20*
X118050000Y-86600000D03*
X118050000Y-83100000D03*
D21*
X140980000Y-67670000D03*
X144480000Y-67670000D03*
D22*
X153380000Y-91790000D03*
X153380000Y-89590000D03*
X93710000Y-64840000D03*
X93710000Y-67040000D03*
D23*
X96300000Y-68600000D03*
X96300000Y-66200000D03*
D24*
X141360000Y-70490000D03*
X139460000Y-70490000D03*
D25*
X104880000Y-111020000D03*
X106150000Y-62770000D03*
X187420000Y-111010000D03*
D26*
X174800000Y-73870000D03*
X174800000Y-75770000D03*
X176800000Y-74820000D03*
D27*
X131160000Y-100040000D03*
X131160000Y-101310000D03*
X131160000Y-102580000D03*
X131160000Y-103850000D03*
X131160000Y-105120000D03*
X131160000Y-106390000D03*
X131160000Y-107660000D03*
X136560000Y-107660000D03*
X136560000Y-106390000D03*
X136560000Y-105120000D03*
X136560000Y-103850000D03*
X136560000Y-102580000D03*
X136560000Y-101310000D03*
X136560000Y-100040000D03*
D28*
X105550000Y-78850000D03*
X105550000Y-79800000D03*
X105550000Y-80750000D03*
X107750000Y-80750000D03*
X107750000Y-78850000D03*
X107750000Y-79800000D03*
D14*
X125300000Y-73855000D03*
X125300000Y-72585000D03*
X125300000Y-71315000D03*
X125300000Y-70045000D03*
X119900000Y-70045000D03*
X119900000Y-71315000D03*
X119900000Y-72585000D03*
X119900000Y-73855000D03*
D29*
X103250000Y-66500000D03*
D30*
X103250000Y-72800000D03*
X105550000Y-72800000D03*
X100950000Y-72800000D03*
D27*
X166050000Y-66240000D03*
X166050000Y-67510000D03*
X166050000Y-68780000D03*
X166050000Y-70050000D03*
X166050000Y-71320000D03*
X166050000Y-72590000D03*
X166050000Y-73860000D03*
X171450000Y-73860000D03*
X171450000Y-72590000D03*
X171450000Y-71320000D03*
X171450000Y-70050000D03*
X171450000Y-68780000D03*
X171450000Y-67510000D03*
X171450000Y-66240000D03*
D14*
X164370000Y-87625000D03*
X164370000Y-88895000D03*
X164370000Y-90165000D03*
X164370000Y-91435000D03*
X169770000Y-91435000D03*
X169770000Y-90165000D03*
X169770000Y-88895000D03*
X169770000Y-87625000D03*
D31*
X154150000Y-69450000D03*
X154150000Y-69950000D03*
X154150000Y-70450000D03*
X154150000Y-70950000D03*
X154150000Y-71450000D03*
X158550000Y-71450000D03*
X158550000Y-70950000D03*
X158550000Y-70450000D03*
X158550000Y-69950000D03*
X158550000Y-69450000D03*
D14*
X173410000Y-87615000D03*
X173410000Y-88885000D03*
X173410000Y-90155000D03*
X173410000Y-91425000D03*
X178810000Y-91425000D03*
X178810000Y-90155000D03*
X178810000Y-88885000D03*
X178810000Y-87615000D03*
X164410000Y-95595000D03*
X164410000Y-96865000D03*
X164410000Y-98135000D03*
X164410000Y-99405000D03*
X169810000Y-99405000D03*
X169810000Y-98135000D03*
X169810000Y-96865000D03*
X169810000Y-95595000D03*
X122060000Y-103155000D03*
X122060000Y-101885000D03*
X122060000Y-100615000D03*
X122060000Y-99345000D03*
X116660000Y-99345000D03*
X116660000Y-100615000D03*
X116660000Y-101885000D03*
X116660000Y-103155000D03*
X153130000Y-78885000D03*
X153130000Y-80155000D03*
X153130000Y-81425000D03*
X153130000Y-82695000D03*
X158530000Y-82695000D03*
X158530000Y-81425000D03*
X158530000Y-80155000D03*
X158530000Y-78885000D03*
D32*
X95040000Y-73570000D03*
X95040000Y-74220000D03*
X95040000Y-74870000D03*
X95040000Y-75520000D03*
X95040000Y-76170000D03*
D33*
X95040000Y-72370000D03*
X95040000Y-77370000D03*
D34*
X92340000Y-71370000D03*
X92340000Y-78370000D03*
D26*
X118300000Y-80750000D03*
X118300000Y-78850000D03*
X116300000Y-79800000D03*
X136230000Y-67660000D03*
X136230000Y-65760000D03*
X134230000Y-66710000D03*
D35*
X125370000Y-111070000D03*
D36*
X127910000Y-111070000D03*
X130450000Y-111070000D03*
D37*
X131570000Y-78390000D03*
X136450000Y-78390000D03*
D38*
X115350000Y-75925000D03*
X115350000Y-72875000D03*
D39*
X127825000Y-65200000D03*
X124775000Y-65200000D03*
D25*
X181090000Y-62780000D03*
D35*
X115820000Y-94340000D03*
D36*
X118360000Y-94340000D03*
X120900000Y-94340000D03*
X123440000Y-94340000D03*
X125980000Y-94340000D03*
X128520000Y-94340000D03*
D35*
X184900000Y-75480000D03*
D36*
X187440000Y-75480000D03*
X184900000Y-78020000D03*
X187440000Y-78020000D03*
X184900000Y-80560000D03*
X187440000Y-80560000D03*
X184900000Y-83100000D03*
X187440000Y-83100000D03*
X184900000Y-85640000D03*
X187440000Y-85640000D03*
X184900000Y-88180000D03*
X187440000Y-88180000D03*
X184900000Y-90720000D03*
X187440000Y-90720000D03*
D35*
X166470000Y-111060000D03*
D36*
X163930000Y-111060000D03*
X161390000Y-111060000D03*
X158850000Y-111060000D03*
X156310000Y-111060000D03*
X153770000Y-111060000D03*
X151230000Y-111060000D03*
X148690000Y-111060000D03*
D35*
X182070000Y-111040000D03*
D36*
X179530000Y-111040000D03*
X176990000Y-111040000D03*
X174450000Y-111040000D03*
X171910000Y-111040000D03*
D35*
X176800000Y-62750000D03*
D36*
X174260000Y-62750000D03*
X171720000Y-62750000D03*
X169180000Y-62750000D03*
X166640000Y-62750000D03*
X164100000Y-62750000D03*
X161560000Y-62750000D03*
X159020000Y-62750000D03*
D35*
X135820000Y-111070000D03*
D36*
X138360000Y-111070000D03*
X140900000Y-111070000D03*
X143440000Y-111070000D03*
D35*
X184900000Y-66450000D03*
D36*
X187440000Y-66450000D03*
X184900000Y-68990000D03*
X187440000Y-68990000D03*
X184900000Y-71530000D03*
X187440000Y-71530000D03*
D35*
X146450000Y-62750000D03*
D36*
X148990000Y-62750000D03*
X151530000Y-62750000D03*
X154070000Y-62750000D03*
D35*
X184910000Y-95750000D03*
D36*
X187450000Y-95750000D03*
X184910000Y-98290000D03*
X187450000Y-98290000D03*
X184910000Y-100830000D03*
X187450000Y-100830000D03*
X184910000Y-103370000D03*
X187450000Y-103370000D03*
D35*
X133690000Y-62750000D03*
D36*
X136230000Y-62750000D03*
X138770000Y-62750000D03*
X141310000Y-62750000D03*
D40*
X93490000Y-81980000D03*
X91990000Y-81980000D03*
X91990000Y-80250000D03*
X93490000Y-80250000D03*
X123770000Y-90320000D03*
X122270000Y-90320000D03*
D41*
X92640000Y-97520000D03*
X92640000Y-96020000D03*
D40*
X100840000Y-107210000D03*
X102340000Y-107210000D03*
X105620000Y-104530000D03*
X104120000Y-104530000D03*
X128170000Y-75040000D03*
X129670000Y-75040000D03*
D41*
X128170000Y-106160000D03*
X128170000Y-107660000D03*
D40*
X133640000Y-75040000D03*
X132140000Y-75040000D03*
X139690000Y-72760000D03*
X141190000Y-72760000D03*
D41*
X143200000Y-100480000D03*
X143200000Y-98980000D03*
D40*
X148300000Y-88620000D03*
X149800000Y-88620000D03*
X97950000Y-64100000D03*
X99450000Y-64100000D03*
X101750000Y-64100000D03*
X103250000Y-64100000D03*
X167670000Y-93540000D03*
X169170000Y-93540000D03*
D41*
X159610000Y-88070000D03*
X159610000Y-86570000D03*
D40*
X155840000Y-67300000D03*
X157340000Y-67300000D03*
X165220000Y-84710000D03*
X163720000Y-84710000D03*
X169780000Y-84720000D03*
X168280000Y-84720000D03*
X163000000Y-67300000D03*
X161500000Y-67300000D03*
X154370000Y-101310000D03*
X155870000Y-101310000D03*
D41*
X151610000Y-96860000D03*
X151610000Y-95360000D03*
X107790000Y-99860000D03*
X107790000Y-101360000D03*
X162170000Y-95090000D03*
X162170000Y-93590000D03*
D40*
X176300000Y-71330000D03*
X174800000Y-71330000D03*
D41*
X122130000Y-107790000D03*
X122130000Y-106290000D03*
D40*
X155830000Y-84740000D03*
X157330000Y-84740000D03*
X116390000Y-97630000D03*
X114890000Y-97630000D03*
D41*
X116430000Y-106230000D03*
X116430000Y-107730000D03*
D40*
X159830000Y-76720000D03*
X158330000Y-76720000D03*
X123770000Y-97740000D03*
X122270000Y-97740000D03*
D41*
X175340000Y-95590000D03*
X175340000Y-94090000D03*
D40*
X107800000Y-104530000D03*
X109300000Y-104530000D03*
D41*
X151610000Y-101350000D03*
X151610000Y-99850000D03*
D40*
X163310000Y-76730000D03*
X161810000Y-76730000D03*
D42*
X138060000Y-82890000D03*
X138060000Y-81390000D03*
D13*
X131670000Y-84330000D03*
X130170000Y-84330000D03*
X131670000Y-82240000D03*
X130170000Y-82240000D03*
X113670000Y-79210000D03*
X112170000Y-79210000D03*
X112170000Y-81780000D03*
X113670000Y-81780000D03*
D42*
X174450000Y-108660000D03*
X174450000Y-107160000D03*
X176990000Y-108660000D03*
X176990000Y-107160000D03*
X179530000Y-108660000D03*
X179530000Y-107160000D03*
X182070000Y-108660000D03*
X182070000Y-107160000D03*
X143070000Y-80100000D03*
X143070000Y-78600000D03*
X131860000Y-68210000D03*
X131860000Y-66710000D03*
X143050000Y-74310000D03*
X143050000Y-75810000D03*
D13*
X121750000Y-65200000D03*
X120250000Y-65200000D03*
X148200000Y-85140000D03*
X149700000Y-85140000D03*
X112940000Y-104530000D03*
X111440000Y-104530000D03*
D42*
X146210000Y-78590000D03*
X146210000Y-80090000D03*
D13*
X146210000Y-75860000D03*
X147710000Y-75860000D03*
X155840000Y-65140000D03*
X157340000Y-65140000D03*
X161480000Y-65140000D03*
X162980000Y-65140000D03*
D42*
X161750000Y-86570000D03*
X161750000Y-88070000D03*
X173390000Y-94080000D03*
X173390000Y-95580000D03*
D13*
X176290000Y-81220000D03*
X174790000Y-81220000D03*
X161140000Y-84710000D03*
X159640000Y-84710000D03*
X176290000Y-68930000D03*
X174790000Y-68930000D03*
X176350000Y-66230000D03*
X174850000Y-66230000D03*
X151020000Y-70950000D03*
X149520000Y-70950000D03*
X149740000Y-96260000D03*
X148240000Y-96260000D03*
X149710000Y-101350000D03*
X148210000Y-101350000D03*
X148220000Y-98800000D03*
X149720000Y-98800000D03*
D42*
X146200000Y-83210000D03*
X146200000Y-81710000D03*
X148950000Y-83210000D03*
X148950000Y-81710000D03*
D13*
X152050000Y-84700000D03*
X153550000Y-84700000D03*
D42*
X155960000Y-92500000D03*
X155960000Y-94000000D03*
D13*
X158250000Y-74290000D03*
X159750000Y-74290000D03*
X176300000Y-78230000D03*
X174800000Y-78230000D03*
X161590000Y-74290000D03*
X163090000Y-74290000D03*
X149760000Y-75850000D03*
X151260000Y-75850000D03*
X165350000Y-76730000D03*
X166850000Y-76730000D03*
X109300000Y-109850000D03*
X107800000Y-109850000D03*
X105640000Y-98210000D03*
X104140000Y-98210000D03*
X104120000Y-101360000D03*
X105620000Y-101360000D03*
X100830000Y-104530000D03*
X102330000Y-104530000D03*
X112960000Y-109850000D03*
X111460000Y-109850000D03*
D42*
X149020000Y-78590000D03*
X149020000Y-80090000D03*
X161425000Y-82425000D03*
X161425000Y-80925000D03*
X163820000Y-82420000D03*
X163820000Y-80920000D03*
D13*
X148250000Y-93880000D03*
X149750000Y-93880000D03*
X149760000Y-91300000D03*
X148260000Y-91300000D03*
X95060000Y-62470000D03*
X96560000Y-62470000D03*
X108920000Y-88390000D03*
X107420000Y-88390000D03*
X108980000Y-91380000D03*
X107480000Y-91380000D03*
X96200000Y-96250000D03*
X97700000Y-96250000D03*
X96200000Y-98050000D03*
X97700000Y-98050000D03*
D35*
X124440000Y-85720000D03*
D36*
X121900000Y-85720000D03*
X124440000Y-83180000D03*
X121900000Y-83180000D03*
X124440000Y-80640000D03*
X121900000Y-80640000D03*
X124440000Y-78100000D03*
X121900000Y-78100000D03*
D37*
X113110000Y-94310000D03*
X110440000Y-94240000D03*
X127570000Y-100050000D03*
X107880000Y-94270000D03*
D43*
X115980000Y-87410000D03*
X156910000Y-82700000D03*
X150740000Y-89920000D03*
X156230000Y-78410000D03*
X170370000Y-93540000D03*
X147760000Y-77420000D03*
X107140000Y-108690000D03*
X98670000Y-72380000D03*
X133020000Y-107660000D03*
X127630000Y-68730000D03*
X115380000Y-70620000D03*
X155310000Y-72590000D03*
X159010000Y-67910000D03*
X124330000Y-101530000D03*
X174350000Y-92650000D03*
X105540000Y-69800000D03*
X135050000Y-101580000D03*
X129590000Y-103850000D03*
X129590000Y-100040000D03*
X135660000Y-91120000D03*
X130230000Y-79960000D03*
X103220000Y-71210000D03*
X103250000Y-68090000D03*
X96450000Y-86500000D03*
X137610000Y-70490000D03*
X138070000Y-86970000D03*
X168200000Y-95610000D03*
X145600000Y-89800000D03*
X152890000Y-100890000D03*
X141130000Y-75500000D03*
X144680000Y-79920000D03*
X110450000Y-92820000D03*
X160190000Y-66250000D03*
X163700000Y-70050000D03*
X118730000Y-98020000D03*
X114970000Y-79230000D03*
X113100000Y-92980000D03*
X173290000Y-71320000D03*
X131870000Y-65560000D03*
X125780000Y-97760000D03*
X168200000Y-96860000D03*
X135650000Y-87925000D03*
X142990000Y-77130000D03*
X134500000Y-86850000D03*
X152250000Y-69800000D03*
X155600000Y-70600000D03*
X136150000Y-86450000D03*
X100740000Y-95440000D03*
X110380000Y-91380000D03*
X135550000Y-94350000D03*
X99110000Y-95450000D03*
X110300000Y-88350000D03*
X134650000Y-93250000D03*
X181100000Y-90140000D03*
X130575000Y-85775000D03*
X168170000Y-98150000D03*
X174410000Y-105450000D03*
X139070000Y-94010000D03*
X176960000Y-105340000D03*
X140010000Y-93130000D03*
X179530000Y-105240000D03*
X141830000Y-94180000D03*
X182060000Y-105280000D03*
X143880000Y-96440000D03*
X133040000Y-102580000D03*
X161550000Y-71640000D03*
X138650000Y-103850000D03*
X143720000Y-106210000D03*
X143060000Y-81740000D03*
X127140000Y-88330000D03*
X93970000Y-101180000D03*
X94050000Y-99520000D03*
X147950000Y-71070000D03*
X156050000Y-99410000D03*
X154720000Y-86870000D03*
X151300000Y-82730000D03*
X162180000Y-96160000D03*
X118630000Y-77200000D03*
X162210000Y-79690000D03*
X168120000Y-87620000D03*
X131760000Y-96180000D03*
X168150000Y-91410000D03*
X146200000Y-77420000D03*
X157890000Y-95500000D03*
X167620000Y-66240000D03*
X173060000Y-68780000D03*
X143770000Y-84490000D03*
X173370000Y-86430000D03*
X140550000Y-86300000D03*
X165350000Y-79700000D03*
X169900000Y-71320000D03*
X158330000Y-72660000D03*
X105390000Y-107200000D03*
X138530000Y-106380000D03*
X165800000Y-81110000D03*
X166470000Y-82680000D03*
X171700000Y-85240000D03*
X155450000Y-91280000D03*
X151290000Y-81430000D03*
X153170000Y-86850000D03*
X154710000Y-78900000D03*
X175100000Y-90150000D03*
X168170000Y-90160000D03*
X160190000Y-80170000D03*
X150660000Y-85140000D03*
X141810000Y-86650000D03*
X114380000Y-103100000D03*
X138570000Y-102580000D03*
X122130000Y-105380000D03*
X125200000Y-103150000D03*
X101400000Y-99950000D03*
X150990000Y-77460000D03*
X152370000Y-93880000D03*
X138070000Y-79790000D03*
X142075000Y-89525000D03*
D44*
X107880000Y-94270000D02*
X107880000Y-95980000D01*
X109530000Y-97630000D02*
X113360000Y-97630000D01*
X107880000Y-95980000D02*
X109530000Y-97630000D01*
X115980000Y-87410000D02*
X116790000Y-86600000D01*
X124440000Y-85720000D02*
X124440000Y-87720000D01*
X125520000Y-88800000D02*
X125520000Y-90320000D01*
X124440000Y-87720000D02*
X125520000Y-88800000D01*
X123770000Y-90320000D02*
X125520000Y-90320000D01*
X125520000Y-90320000D02*
X132360000Y-90320000D01*
D45*
X93490000Y-80250000D02*
X93490000Y-78370000D01*
X93510000Y-78390000D02*
X93510000Y-78370000D01*
X93490000Y-78370000D02*
X93510000Y-78390000D01*
X92340000Y-78370000D02*
X93510000Y-78370000D01*
X93510000Y-78370000D02*
X94040000Y-78370000D01*
X94040000Y-78370000D02*
X95040000Y-77370000D01*
X92340000Y-78370000D02*
X92340000Y-71370000D01*
X95040000Y-72370000D02*
X95040000Y-71650000D01*
X95040000Y-71650000D02*
X93710000Y-70320000D01*
X92340000Y-71370000D02*
X92660000Y-71370000D01*
X92660000Y-71370000D02*
X93710000Y-70320000D01*
X93710000Y-70320000D02*
X93710000Y-67040000D01*
D44*
X99230000Y-61240000D02*
X92530000Y-61240000D01*
X92530000Y-61240000D02*
X92290000Y-61480000D01*
X92290000Y-61480000D02*
X92290000Y-66780000D01*
X92290000Y-66780000D02*
X92550000Y-67040000D01*
X92550000Y-67040000D02*
X93710000Y-67040000D01*
D46*
X93710000Y-67040000D02*
X92550000Y-67040000D01*
X92550000Y-67040000D02*
X92290000Y-66780000D01*
D44*
X167000000Y-89340000D02*
X167000000Y-87210000D01*
X167000000Y-87210000D02*
X167830000Y-86380000D01*
X168280000Y-84720000D02*
X168280000Y-85940000D01*
X168280000Y-85940000D02*
X167840000Y-86380000D01*
X167840000Y-86380000D02*
X167830000Y-86380000D01*
D47*
X137335000Y-89285000D02*
X139005000Y-89285000D01*
X139160000Y-89440000D02*
X139160000Y-91120000D01*
X139005000Y-89285000D02*
X139160000Y-89440000D01*
D44*
X156230000Y-78370000D02*
X156230000Y-82020000D01*
X156230000Y-82020000D02*
X156910000Y-82700000D01*
X131160000Y-107660000D02*
X128170000Y-107660000D01*
X126910000Y-105400000D02*
X126910000Y-107650000D01*
X126910000Y-107650000D02*
X126920000Y-107660000D01*
X126920000Y-107660000D02*
X128170000Y-107660000D01*
X173410000Y-91425000D02*
X173410000Y-92500000D01*
X173560000Y-92650000D02*
X174350000Y-92650000D01*
X173410000Y-92500000D02*
X173560000Y-92650000D01*
X157330000Y-84740000D02*
X157330000Y-83820000D01*
X157330000Y-83820000D02*
X156910000Y-83400000D01*
X156910000Y-83400000D02*
X156910000Y-82700000D01*
X143760000Y-91120000D02*
X145990000Y-91120000D01*
X145990000Y-91120000D02*
X147190000Y-89920000D01*
X147190000Y-89920000D02*
X150740000Y-89920000D01*
X149800000Y-88620000D02*
X151540000Y-88620000D01*
X151540000Y-88620000D02*
X152510000Y-89590000D01*
X152510000Y-89590000D02*
X153380000Y-89590000D01*
X138060000Y-96020000D02*
X138060000Y-97350000D01*
X141190000Y-100480000D02*
X143200000Y-100480000D01*
X138060000Y-97350000D02*
X141190000Y-100480000D01*
X116790000Y-86600000D02*
X118050000Y-86600000D01*
X99230000Y-61240000D02*
X100790000Y-62800000D01*
X92290000Y-61480000D02*
X92530000Y-61240000D01*
X100660000Y-62800000D02*
X100790000Y-62800000D01*
X100660000Y-64100000D02*
X100660000Y-62800000D01*
X100790000Y-62800000D02*
X106120000Y-62800000D01*
X106120000Y-62800000D02*
X106150000Y-62770000D01*
X150740000Y-89920000D02*
X149640000Y-89920000D01*
X149640000Y-89920000D02*
X149600000Y-89880000D01*
X149800000Y-88620000D02*
X149800000Y-89680000D01*
X149800000Y-89680000D02*
X149600000Y-89880000D01*
X156230000Y-78410000D02*
X156230000Y-78370000D01*
X156230000Y-78370000D02*
X156230000Y-77660000D01*
X156230000Y-77660000D02*
X157170000Y-76720000D01*
X157170000Y-76720000D02*
X158330000Y-76720000D01*
X156910000Y-82700000D02*
X158525000Y-82700000D01*
X158525000Y-82700000D02*
X158530000Y-82695000D01*
X147710000Y-75860000D02*
X147710000Y-77370000D01*
X147710000Y-77370000D02*
X147760000Y-77420000D01*
X122270000Y-97740000D02*
X120880000Y-97740000D01*
X120880000Y-97740000D02*
X120510000Y-98110000D01*
D47*
X163000000Y-67300000D02*
X163000000Y-68140000D01*
X162020000Y-69120000D02*
X160040000Y-69120000D01*
X163000000Y-68140000D02*
X162020000Y-69120000D01*
X158550000Y-69450000D02*
X159710000Y-69450000D01*
X159800000Y-67910000D02*
X159010000Y-67910000D01*
X160040000Y-68150000D02*
X159800000Y-67910000D01*
X160040000Y-69120000D02*
X160040000Y-68150000D01*
X159710000Y-69450000D02*
X160040000Y-69120000D01*
D44*
X157340000Y-67300000D02*
X158400000Y-67300000D01*
X158400000Y-67300000D02*
X159010000Y-67910000D01*
X176300000Y-71330000D02*
X177210000Y-71330000D01*
X177210000Y-71330000D02*
X178120000Y-70420000D01*
X174260000Y-62750000D02*
X174260000Y-64150000D01*
X174260000Y-64150000D02*
X174850000Y-64740000D01*
X174850000Y-64740000D02*
X177040000Y-64740000D01*
X177040000Y-64740000D02*
X178120000Y-65820000D01*
X178120000Y-65820000D02*
X178120000Y-70420000D01*
X176290000Y-68930000D02*
X176290000Y-71320000D01*
X176290000Y-71320000D02*
X176300000Y-71330000D01*
X153380000Y-89590000D02*
X155270000Y-89590000D01*
X155270000Y-89590000D02*
X157470000Y-91790000D01*
X157470000Y-91790000D02*
X157470000Y-94310000D01*
X145990000Y-91120000D02*
X147230000Y-89880000D01*
X147230000Y-89880000D02*
X149600000Y-89880000D01*
X107800000Y-104530000D02*
X107800000Y-108030000D01*
X107800000Y-108030000D02*
X107140000Y-108690000D01*
X107150000Y-108680000D02*
X107150000Y-109550000D01*
X107450000Y-109850000D02*
X107800000Y-109850000D01*
X107150000Y-109550000D02*
X107450000Y-109850000D01*
X147760000Y-77420000D02*
X148650000Y-77420000D01*
X148650000Y-77420000D02*
X149020000Y-77790000D01*
X149020000Y-77790000D02*
X149020000Y-78590000D01*
X157050000Y-98850000D02*
X157050000Y-94730000D01*
X157050000Y-94730000D02*
X157470000Y-94310000D01*
X157470000Y-94310000D02*
X159210000Y-94310000D01*
X162000000Y-93590000D02*
X159930000Y-93590000D01*
X159210000Y-94310000D02*
X159930000Y-93590000D01*
X155870000Y-101310000D02*
X163460000Y-101310000D01*
X164410000Y-100360000D02*
X164410000Y-99405000D01*
X163460000Y-101310000D02*
X164410000Y-100360000D01*
X151610000Y-99850000D02*
X152440000Y-99850000D01*
X152830000Y-99460000D02*
X152830000Y-98135000D01*
X152440000Y-99850000D02*
X152830000Y-99460000D01*
X152830000Y-98135000D02*
X154370000Y-98135000D01*
X154370000Y-98135000D02*
X156335000Y-98135000D01*
X156740000Y-101310000D02*
X155870000Y-101310000D01*
X157050000Y-101000000D02*
X156740000Y-101310000D01*
X157050000Y-98850000D02*
X157050000Y-101000000D01*
X156335000Y-98135000D02*
X157050000Y-98850000D01*
X157330000Y-84740000D02*
X157320000Y-87960000D01*
X157320000Y-87960000D02*
X159525000Y-90165000D01*
X157350000Y-84720000D02*
X157330000Y-84740000D01*
X159525000Y-90165000D02*
X164370000Y-90165000D01*
X169170000Y-93540000D02*
X170370000Y-93540000D01*
X167000000Y-89340000D02*
X166175000Y-90165000D01*
X166175000Y-90165000D02*
X164370000Y-90165000D01*
X174350000Y-92650000D02*
X175030000Y-92650000D01*
X175030000Y-92650000D02*
X175340000Y-92960000D01*
X175340000Y-92960000D02*
X175340000Y-94090000D01*
X144480000Y-67670000D02*
X145930000Y-67670000D01*
X147220000Y-72590000D02*
X150050000Y-72590000D01*
X146490000Y-71860000D02*
X147220000Y-72590000D01*
X146490000Y-68230000D02*
X146490000Y-71860000D01*
X145930000Y-67670000D02*
X146490000Y-68230000D01*
X131160000Y-74000000D02*
X141040000Y-74000000D01*
X141190000Y-73850000D02*
X141190000Y-72760000D01*
X141040000Y-74000000D02*
X141190000Y-73850000D01*
X120510000Y-96790000D02*
X120510000Y-98110000D01*
X120040000Y-96320000D02*
X120510000Y-96790000D01*
X120510000Y-98110000D02*
X120510000Y-100470000D01*
X120510000Y-100470000D02*
X120655000Y-100615000D01*
X120655000Y-100615000D02*
X122060000Y-100615000D01*
X114890000Y-97630000D02*
X113360000Y-97630000D01*
X113655000Y-99345000D02*
X116660000Y-99345000D01*
X113110000Y-98800000D02*
X113655000Y-99345000D01*
X113110000Y-97880000D02*
X113110000Y-97900000D01*
X113110000Y-97900000D02*
X113110000Y-98800000D01*
X113360000Y-97630000D02*
X113110000Y-97880000D01*
X173410000Y-91425000D02*
X173410000Y-91710000D01*
X149520000Y-70950000D02*
X149520000Y-72060000D01*
X150050000Y-72590000D02*
X155310000Y-72590000D01*
X149520000Y-72060000D02*
X150050000Y-72590000D01*
D46*
X129670000Y-75040000D02*
X130960000Y-75040000D01*
X130960000Y-75040000D02*
X132140000Y-75040000D01*
D44*
X123925000Y-71315000D02*
X123885000Y-71315000D01*
X123780000Y-71420000D02*
X123780000Y-74630000D01*
X123885000Y-71315000D02*
X123780000Y-71420000D01*
D46*
X106150000Y-62770000D02*
X106840000Y-62770000D01*
X106840000Y-62770000D02*
X109950000Y-65880000D01*
X112475000Y-65200000D02*
X110630000Y-65200000D01*
X110630000Y-65200000D02*
X109950000Y-65880000D01*
X109950000Y-65880000D02*
X109950000Y-70675000D01*
X109950000Y-70675000D02*
X115325000Y-70675000D01*
X115325000Y-70675000D02*
X115380000Y-70620000D01*
D44*
X93490000Y-80250000D02*
X93490000Y-78870000D01*
X93490000Y-78870000D02*
X93990000Y-78370000D01*
X107140000Y-108690000D02*
X107150000Y-108680000D01*
X105620000Y-104530000D02*
X107540000Y-104530000D01*
D46*
X92640000Y-97520000D02*
X92640000Y-102560000D01*
X92640000Y-102560000D02*
X93600000Y-103520000D01*
X93600000Y-103520000D02*
X94440000Y-103520000D01*
D44*
X93800000Y-103520000D02*
X94440000Y-103520000D01*
X93345000Y-84110000D02*
X93345000Y-82755000D01*
X93490000Y-82610000D02*
X93490000Y-81980000D01*
X93345000Y-82755000D02*
X93490000Y-82610000D01*
X93490000Y-80250000D02*
X93490000Y-81980000D01*
D46*
X98670000Y-72380000D02*
X99090000Y-72800000D01*
X99090000Y-72800000D02*
X100950000Y-72800000D01*
X100950000Y-72800000D02*
X100950000Y-77870000D01*
X102880000Y-79800000D02*
X105550000Y-79800000D01*
X100950000Y-77870000D02*
X102880000Y-79800000D01*
D44*
X124380000Y-101530000D02*
X125960000Y-101530000D01*
X125960000Y-101530000D02*
X126910000Y-102480000D01*
X126910000Y-102480000D02*
X126910000Y-105400000D01*
X126910000Y-105400000D02*
X126910000Y-105640000D01*
X133020000Y-107660000D02*
X133020000Y-109770000D01*
X134320000Y-111070000D02*
X135820000Y-111070000D01*
X133020000Y-109770000D02*
X134320000Y-111070000D01*
X131160000Y-107660000D02*
X133020000Y-107660000D01*
D47*
X124330000Y-101530000D02*
X124380000Y-101530000D01*
X126910000Y-102480000D02*
X126910000Y-105640000D01*
X125960000Y-101530000D02*
X126910000Y-102480000D01*
D46*
X115350000Y-72875000D02*
X115350000Y-70650000D01*
X115350000Y-70650000D02*
X115380000Y-70620000D01*
X115325000Y-70675000D02*
X115380000Y-70620000D01*
X106150000Y-62770000D02*
X106630000Y-62770000D01*
X105650000Y-62270000D02*
X106150000Y-62770000D01*
D44*
X99250000Y-64100000D02*
X100660000Y-64100000D01*
X100660000Y-64100000D02*
X101950000Y-64100000D01*
X92650000Y-71060000D02*
X92340000Y-71370000D01*
X105550000Y-79800000D02*
X102850000Y-79800000D01*
X102850000Y-79800000D02*
X100950000Y-77900000D01*
X100950000Y-77900000D02*
X100950000Y-72800000D01*
X115325000Y-70675000D02*
X115380000Y-70620000D01*
X115380000Y-70620000D02*
X115350000Y-70650000D01*
X125300000Y-71315000D02*
X123925000Y-71315000D01*
X123770000Y-71160000D02*
X123770000Y-69290000D01*
X123925000Y-71315000D02*
X123770000Y-71160000D01*
X123770000Y-69290000D02*
X124330000Y-68730000D01*
X124330000Y-68730000D02*
X127630000Y-68730000D01*
X127825000Y-65200000D02*
X129700000Y-65200000D01*
X129510000Y-68730000D02*
X127630000Y-68730000D01*
X130310000Y-67930000D02*
X129510000Y-68730000D01*
X130310000Y-65810000D02*
X130310000Y-67930000D01*
X129700000Y-65200000D02*
X130310000Y-65810000D01*
D48*
X92340000Y-78370000D02*
X92340000Y-78640000D01*
X93490000Y-80420000D02*
X93590000Y-80420000D01*
X111825000Y-65850000D02*
X112475000Y-65200000D01*
X118050000Y-86600000D02*
X116790000Y-86600000D01*
X100950000Y-77900000D02*
X102850000Y-79800000D01*
X105550000Y-79800000D02*
X106390000Y-79800000D01*
X106910000Y-80750000D02*
X107750000Y-80750000D01*
X106660000Y-80500000D02*
X106910000Y-80750000D01*
X106660000Y-80070000D02*
X106660000Y-80500000D01*
X106390000Y-79800000D02*
X106660000Y-80070000D01*
X92650000Y-71060000D02*
X92340000Y-71370000D01*
X122060000Y-100615000D02*
X123415000Y-100615000D01*
X123415000Y-100615000D02*
X124330000Y-101530000D01*
D44*
X97580000Y-75830000D02*
X97580000Y-77070000D01*
X96800000Y-75830000D02*
X97580000Y-75830000D01*
X97580000Y-77070000D02*
X97280000Y-77370000D01*
X97280000Y-77370000D02*
X95040000Y-77370000D01*
D47*
X137335000Y-89285000D02*
X137260000Y-89210000D01*
X143760000Y-91120000D02*
X139160000Y-91120000D01*
X139160000Y-91120000D02*
X139150000Y-91120000D01*
X139150000Y-91120000D02*
X138060000Y-92210000D01*
X138060000Y-96020000D02*
X138060000Y-92210000D01*
X138060000Y-92210000D02*
X136170000Y-90320000D01*
X137260000Y-84620000D02*
X137260000Y-89210000D01*
X137260000Y-89210000D02*
X137260000Y-89360000D01*
X137260000Y-89360000D02*
X136300000Y-90320000D01*
X136300000Y-90320000D02*
X136170000Y-90320000D01*
X136170000Y-90320000D02*
X132360000Y-90320000D01*
D48*
X154800000Y-98135000D02*
X154800000Y-98075000D01*
X154510000Y-98135000D02*
X154800000Y-98135000D01*
X154800000Y-98135000D02*
X155125000Y-98135000D01*
X164285000Y-99415000D02*
X164105000Y-99415000D01*
X154750000Y-98000000D02*
X154750000Y-97895000D01*
X154750000Y-97895000D02*
X154510000Y-98135000D01*
X173410000Y-91425000D02*
X173665000Y-91425000D01*
D44*
X92340000Y-78370000D02*
X93990000Y-78370000D01*
X93990000Y-78370000D02*
X94040000Y-78370000D01*
X94040000Y-78370000D02*
X95040000Y-77370000D01*
X95040000Y-75520000D02*
X96650000Y-75520000D01*
X96690000Y-76170000D02*
X95040000Y-76170000D01*
X96800000Y-76060000D02*
X96690000Y-76170000D01*
X96800000Y-75670000D02*
X96800000Y-75830000D01*
X96800000Y-75830000D02*
X96800000Y-76060000D01*
X96650000Y-75520000D02*
X96800000Y-75670000D01*
X130960000Y-74260000D02*
X130960000Y-74200000D01*
X130960000Y-74200000D02*
X131160000Y-74000000D01*
X130960000Y-75040000D02*
X130960000Y-74260000D01*
X130960000Y-74260000D02*
X130700000Y-74000000D01*
X127320000Y-74000000D02*
X130700000Y-74000000D01*
X126340000Y-74980000D02*
X127320000Y-74000000D01*
X124130000Y-74980000D02*
X126340000Y-74980000D01*
X123780000Y-74630000D02*
X124130000Y-74980000D01*
X130700000Y-74000000D02*
X131160000Y-74000000D01*
X113110000Y-97900000D02*
X113110000Y-97120000D01*
X113110000Y-97120000D02*
X113910000Y-96320000D01*
X113910000Y-96320000D02*
X120040000Y-96320000D01*
X127570000Y-100050000D02*
X129580000Y-100050000D01*
X129580000Y-100050000D02*
X129590000Y-100040000D01*
X135050000Y-101580000D02*
X135050000Y-104990000D01*
X135050000Y-104990000D02*
X135180000Y-105120000D01*
X135180000Y-105120000D02*
X136560000Y-105120000D01*
X129590000Y-100040000D02*
X131160000Y-100040000D01*
X136560000Y-101310000D02*
X135320000Y-101310000D01*
X135320000Y-101310000D02*
X135050000Y-101580000D01*
X135050000Y-101580000D02*
X135050000Y-100270000D01*
X135050000Y-100270000D02*
X135280000Y-100040000D01*
X135280000Y-100040000D02*
X136560000Y-100040000D01*
D45*
X96300000Y-66200000D02*
X98070000Y-66200000D01*
X101670000Y-69800000D02*
X105540000Y-69800000D01*
X98070000Y-66200000D02*
X101670000Y-69800000D01*
X105540000Y-69800000D02*
X105540000Y-72790000D01*
X105540000Y-72790000D02*
X105550000Y-72800000D01*
D46*
X96300000Y-66200000D02*
X96300000Y-64500000D01*
X96300000Y-64500000D02*
X96700000Y-64100000D01*
X96700000Y-64100000D02*
X97950000Y-64100000D01*
X96560000Y-62470000D02*
X97420000Y-62470000D01*
X97420000Y-62470000D02*
X97950000Y-63000000D01*
X97950000Y-63000000D02*
X97950000Y-64100000D01*
X105460000Y-69780000D02*
X105540000Y-69800000D01*
D44*
X128170000Y-106160000D02*
X128170000Y-104350000D01*
X128670000Y-103850000D02*
X129590000Y-103850000D01*
X128170000Y-104350000D02*
X128670000Y-103850000D01*
X129590000Y-103850000D02*
X131160000Y-103850000D01*
X97950000Y-63000000D02*
X97950000Y-64100000D01*
X97420000Y-62470000D02*
X97950000Y-63000000D01*
D46*
X105550000Y-78850000D02*
X105550000Y-72800000D01*
X105550000Y-72800000D02*
X105550000Y-69780000D01*
X105550000Y-69780000D02*
X105470000Y-69860000D01*
X105470000Y-69860000D02*
X105460000Y-69860000D01*
X105460000Y-69860000D02*
X105460000Y-69780000D01*
D44*
X98150000Y-64100000D02*
X96700000Y-64100000D01*
X96700000Y-64100000D02*
X96300000Y-64500000D01*
D47*
X135050000Y-101580000D02*
X135040000Y-101580000D01*
X135040000Y-101580000D02*
X135040000Y-101570000D01*
X136560000Y-101310000D02*
X135300000Y-101310000D01*
X135180000Y-105120000D02*
X136560000Y-105120000D01*
X135040000Y-104980000D02*
X135180000Y-105120000D01*
X135040000Y-101570000D02*
X135040000Y-104980000D01*
X135300000Y-101310000D02*
X135040000Y-101570000D01*
D44*
X120900000Y-91090000D02*
X120900000Y-89390000D01*
X121900000Y-88390000D02*
X121900000Y-85720000D01*
X120900000Y-89390000D02*
X121900000Y-88390000D01*
X122270000Y-90320000D02*
X121670000Y-90320000D01*
X120900000Y-91090000D02*
X120900000Y-93170000D01*
X121670000Y-90320000D02*
X120900000Y-91090000D01*
X120900000Y-94340000D02*
X120900000Y-93170000D01*
X124650000Y-92370000D02*
X125860000Y-91160000D01*
X121700000Y-92370000D02*
X124650000Y-92370000D01*
X120900000Y-93170000D02*
X121700000Y-92370000D01*
X125860000Y-91160000D02*
X132320000Y-91160000D01*
X132320000Y-91160000D02*
X132360000Y-91120000D01*
D46*
X97155000Y-84110000D02*
X97155000Y-85795000D01*
X97155000Y-85795000D02*
X96450000Y-86500000D01*
D44*
X97155000Y-85795000D02*
X96450000Y-86500000D01*
X130230000Y-79960000D02*
X130230000Y-82180000D01*
X130230000Y-82180000D02*
X130170000Y-82240000D01*
X130170000Y-84330000D02*
X130170000Y-82240000D01*
X137610000Y-70490000D02*
X137610000Y-72570000D01*
X137800000Y-72760000D02*
X139690000Y-72760000D01*
X137610000Y-72570000D02*
X137800000Y-72760000D01*
X139460000Y-70490000D02*
X137610000Y-70490000D01*
X120910000Y-94330000D02*
X120900000Y-94340000D01*
X132360000Y-91120000D02*
X135660000Y-91120000D01*
D46*
X103250000Y-64100000D02*
X103150000Y-64100000D01*
X103250000Y-64200000D02*
X103250000Y-66500000D01*
X103150000Y-64100000D02*
X103250000Y-64200000D01*
X93345000Y-93510000D02*
X93345000Y-88265000D01*
X95110000Y-86500000D02*
X96450000Y-86500000D01*
X93345000Y-88265000D02*
X95110000Y-86500000D01*
X91990000Y-81980000D02*
X91990000Y-85670000D01*
X91990000Y-85670000D02*
X92820000Y-86500000D01*
X92820000Y-86500000D02*
X96450000Y-86500000D01*
D44*
X92640000Y-96020000D02*
X92640000Y-95710000D01*
X92640000Y-95710000D02*
X93345000Y-95005000D01*
X93345000Y-95005000D02*
X93345000Y-93510000D01*
X91990000Y-85670000D02*
X92820000Y-86500000D01*
X92820000Y-86500000D02*
X96450000Y-86500000D01*
X91990000Y-81980000D02*
X91990000Y-80250000D01*
D45*
X103220000Y-71210000D02*
X103240000Y-72790000D01*
X103240000Y-72790000D02*
X103250000Y-72800000D01*
X103250000Y-68090000D02*
X103260000Y-66510000D01*
X103260000Y-66510000D02*
X103250000Y-66500000D01*
D46*
X103260000Y-66510000D02*
X103250000Y-66500000D01*
X103230000Y-71220000D02*
X103220000Y-71210000D01*
X103240000Y-68080000D02*
X103250000Y-68090000D01*
D48*
X103230000Y-71220000D02*
X103220000Y-71210000D01*
X103250000Y-68090000D02*
X103240000Y-68080000D01*
D47*
X97160000Y-84115000D02*
X97155000Y-84110000D01*
X138060000Y-86960000D02*
X138060000Y-84620000D01*
X138070000Y-86970000D02*
X138060000Y-86960000D01*
X120900000Y-93680000D02*
X120900000Y-94340000D01*
D48*
X138075000Y-82735000D02*
X138075000Y-84605000D01*
X138075000Y-84605000D02*
X138060000Y-84620000D01*
D46*
X107750000Y-78850000D02*
X109060000Y-78850000D01*
X111610000Y-84950000D02*
X113425000Y-84950000D01*
X110930000Y-84270000D02*
X111610000Y-84950000D01*
X110930000Y-80720000D02*
X110930000Y-84270000D01*
X109060000Y-78850000D02*
X110930000Y-80720000D01*
D44*
X156470000Y-74290000D02*
X156470000Y-69570000D01*
X143760000Y-90320000D02*
X145080000Y-90320000D01*
X145080000Y-90320000D02*
X145600000Y-89800000D01*
X144680000Y-79920000D02*
X144680000Y-80560000D01*
X145030000Y-80910000D02*
X146210000Y-80910000D01*
X144680000Y-80560000D02*
X145030000Y-80910000D01*
X146210000Y-80090000D02*
X146210000Y-80910000D01*
X146210000Y-80910000D02*
X146210000Y-81700000D01*
X146210000Y-81700000D02*
X146200000Y-81710000D01*
X143050000Y-70770000D02*
X143050000Y-70670000D01*
X143050000Y-70670000D02*
X143230000Y-70490000D01*
X143050000Y-74310000D02*
X143050000Y-70770000D01*
X143050000Y-70770000D02*
X142770000Y-70490000D01*
X143050000Y-74310000D02*
X142320000Y-74310000D01*
X142320000Y-74310000D02*
X141130000Y-75500000D01*
X155840000Y-67300000D02*
X155840000Y-68210000D01*
X155840000Y-68210000D02*
X156470000Y-68840000D01*
X156470000Y-68840000D02*
X156470000Y-69570000D01*
X156470000Y-69570000D02*
X156470000Y-69890000D01*
X155840000Y-67300000D02*
X155190000Y-67300000D01*
X155190000Y-67300000D02*
X154550000Y-66660000D01*
X143530000Y-70490000D02*
X143230000Y-70490000D01*
X144720000Y-71680000D02*
X143530000Y-70490000D01*
X144720000Y-73930000D02*
X144720000Y-71680000D01*
X143230000Y-70490000D02*
X142770000Y-70490000D01*
X142770000Y-70490000D02*
X141360000Y-70490000D01*
X176300000Y-78230000D02*
X177980000Y-78230000D01*
X178810000Y-79060000D02*
X178810000Y-87615000D01*
X177980000Y-78230000D02*
X178810000Y-79060000D01*
X158280000Y-75500000D02*
X166600000Y-75500000D01*
X158250000Y-75500000D02*
X158270000Y-75480000D01*
X158270000Y-75480000D02*
X158280000Y-75480000D01*
X158280000Y-75480000D02*
X158280000Y-75500000D01*
X158250000Y-74290000D02*
X158250000Y-75500000D01*
X166850000Y-75750000D02*
X166850000Y-76730000D01*
X166600000Y-75500000D02*
X166850000Y-75750000D01*
X145600000Y-89800000D02*
X145770000Y-89800000D01*
X145770000Y-89800000D02*
X146950000Y-88620000D01*
X146950000Y-88620000D02*
X148300000Y-88620000D01*
X151610000Y-101350000D02*
X152430000Y-101350000D01*
X152430000Y-101350000D02*
X152890000Y-100890000D01*
X149710000Y-101350000D02*
X151610000Y-101350000D01*
X168200000Y-95610000D02*
X169795000Y-95610000D01*
X169795000Y-95610000D02*
X169810000Y-95595000D01*
X175340000Y-95590000D02*
X173400000Y-95590000D01*
X173400000Y-95590000D02*
X173390000Y-95580000D01*
X169810000Y-95595000D02*
X173375000Y-95595000D01*
X173375000Y-95595000D02*
X173390000Y-95580000D01*
X169825000Y-95590000D02*
X169810000Y-95605000D01*
X173390000Y-95580000D02*
X175330000Y-95580000D01*
X175330000Y-95580000D02*
X175340000Y-95590000D01*
X175340000Y-95590000D02*
X176180000Y-95590000D01*
X176390000Y-95380000D02*
X176390000Y-87980000D01*
X176180000Y-95590000D02*
X176390000Y-95380000D01*
X176390000Y-87980000D02*
X176755000Y-87615000D01*
X176755000Y-87615000D02*
X178810000Y-87615000D01*
X145080000Y-90320000D02*
X145600000Y-89800000D01*
X146200000Y-81710000D02*
X148940000Y-81700000D01*
X148940000Y-81700000D02*
X148950000Y-81710000D01*
X146200000Y-81710000D02*
X146210000Y-80090000D01*
D47*
X154150000Y-69450000D02*
X156030000Y-69450000D01*
X156030000Y-69450000D02*
X156470000Y-69890000D01*
D44*
X156470000Y-74290000D02*
X158250000Y-74290000D01*
X155840000Y-65110000D02*
X154790000Y-65110000D01*
X154790000Y-65110000D02*
X154550000Y-65350000D01*
X154550000Y-65350000D02*
X154550000Y-66660000D01*
X154550000Y-66660000D02*
X154800000Y-66910000D01*
D47*
X154800000Y-66910000D02*
X154550000Y-66660000D01*
X154550000Y-65350000D02*
X154790000Y-65110000D01*
X154550000Y-66660000D02*
X154550000Y-65350000D01*
D48*
X145080000Y-90320000D02*
X145600000Y-89800000D01*
D44*
X147270000Y-74240000D02*
X145030000Y-74240000D01*
X147270000Y-74240000D02*
X147320000Y-74290000D01*
X147320000Y-74290000D02*
X156470000Y-74290000D01*
X145030000Y-74240000D02*
X144720000Y-73930000D01*
X144680000Y-80000000D02*
X144720000Y-76280000D01*
X144680000Y-79920000D02*
X144680000Y-80000000D01*
X144720000Y-76280000D02*
X144720000Y-73930000D01*
X125300000Y-70045000D02*
X126465000Y-70045000D01*
X127280000Y-71200000D02*
X129275000Y-71200000D01*
X126950000Y-70870000D02*
X127280000Y-71200000D01*
X126950000Y-70530000D02*
X126950000Y-70870000D01*
X126465000Y-70045000D02*
X126950000Y-70530000D01*
X110440000Y-94240000D02*
X110440000Y-92830000D01*
X110440000Y-92830000D02*
X110450000Y-92820000D01*
X114970000Y-79230000D02*
X115290000Y-79230000D01*
X115350000Y-79170000D02*
X115350000Y-75925000D01*
X115290000Y-79230000D02*
X115350000Y-79170000D01*
X114970000Y-79230000D02*
X114970000Y-79450000D01*
X114970000Y-79450000D02*
X115320000Y-79800000D01*
X115320000Y-79800000D02*
X116300000Y-79800000D01*
X113670000Y-79210000D02*
X114950000Y-79210000D01*
X114950000Y-79210000D02*
X114970000Y-79230000D01*
X112170000Y-81990000D02*
X112170000Y-81050000D01*
X113670000Y-80200000D02*
X113670000Y-79210000D01*
X113460000Y-80410000D02*
X113670000Y-80200000D01*
X112810000Y-80410000D02*
X113460000Y-80410000D01*
X112170000Y-81050000D02*
X112810000Y-80410000D01*
X160190000Y-66250000D02*
X160190000Y-66940000D01*
X160190000Y-66940000D02*
X160550000Y-67300000D01*
X160550000Y-67300000D02*
X161500000Y-67300000D01*
X163700000Y-70050000D02*
X166050000Y-70050000D01*
D47*
X161500000Y-67300000D02*
X160550000Y-67300000D01*
X160550000Y-67300000D02*
X160190000Y-66940000D01*
D44*
X118730000Y-98020000D02*
X118730000Y-102250000D01*
X117825000Y-103155000D02*
X116660000Y-103155000D01*
X118730000Y-102250000D02*
X117825000Y-103155000D01*
X116390000Y-97630000D02*
X118340000Y-97630000D01*
X118340000Y-97630000D02*
X118730000Y-98020000D01*
D46*
X113670000Y-79210000D02*
X114620000Y-79210000D01*
X115210000Y-79800000D02*
X115320000Y-79800000D01*
X114620000Y-79210000D02*
X115210000Y-79800000D01*
X115320000Y-79800000D02*
X116300000Y-79800000D01*
D44*
X113110000Y-94310000D02*
X113110000Y-92990000D01*
X113110000Y-92990000D02*
X113100000Y-92980000D01*
X171450000Y-70050000D02*
X173050000Y-70050000D01*
X173050000Y-70050000D02*
X173290000Y-70290000D01*
X173290000Y-70290000D02*
X173290000Y-71320000D01*
X123770000Y-97740000D02*
X125760000Y-97740000D01*
X125760000Y-97740000D02*
X125780000Y-97760000D01*
X131870000Y-65560000D02*
X131860000Y-65560000D01*
X131860000Y-65560000D02*
X131860000Y-66710000D01*
X132120000Y-62750000D02*
X132120000Y-62890000D01*
X132120000Y-62890000D02*
X131860000Y-63150000D01*
X131860000Y-63150000D02*
X131770000Y-63150000D01*
X131770000Y-63150000D02*
X131370000Y-62750000D01*
X131860000Y-66710000D02*
X131860000Y-63150000D01*
X124775000Y-65200000D02*
X124775000Y-63485000D01*
X125510000Y-62750000D02*
X131370000Y-62750000D01*
X124775000Y-63485000D02*
X125510000Y-62750000D01*
X131370000Y-62750000D02*
X132120000Y-62750000D01*
X132120000Y-62750000D02*
X133690000Y-62750000D01*
X131860000Y-66710000D02*
X134480000Y-66710000D01*
D46*
X122060000Y-99345000D02*
X125275000Y-99345000D01*
X125780000Y-98840000D02*
X125780000Y-97760000D01*
X125275000Y-99345000D02*
X125780000Y-98840000D01*
D44*
X173290000Y-71310000D02*
X174780000Y-71310000D01*
X174780000Y-71310000D02*
X174800000Y-71330000D01*
X174760000Y-71320000D02*
X174800000Y-71360000D01*
X173050000Y-70050000D02*
X173290000Y-70290000D01*
X173290000Y-70290000D02*
X173290000Y-71310000D01*
X173290000Y-71310000D02*
X173290000Y-71320000D01*
D46*
X121750000Y-65200000D02*
X124775000Y-65200000D01*
D44*
X95885000Y-84110000D02*
X95885000Y-81965000D01*
X95885000Y-81965000D02*
X99400000Y-78450000D01*
X98570000Y-74220000D02*
X95040000Y-74220000D01*
X99400000Y-75050000D02*
X98570000Y-74220000D01*
X99400000Y-78450000D02*
X99400000Y-75050000D01*
X121900000Y-83180000D02*
X123190000Y-84470000D01*
X123190000Y-84470000D02*
X125880000Y-84470000D01*
X125880000Y-84470000D02*
X126370000Y-84960000D01*
X126370000Y-84960000D02*
X126370000Y-85980000D01*
X126370000Y-85980000D02*
X129110000Y-88720000D01*
X129110000Y-88720000D02*
X132360000Y-88720000D01*
X132360000Y-87920000D02*
X135645000Y-87920000D01*
X135645000Y-87920000D02*
X135650000Y-87925000D01*
X124440000Y-80640000D02*
X125370000Y-80640000D01*
X125370000Y-80640000D02*
X127280000Y-82550000D01*
X127280000Y-82550000D02*
X127280000Y-85780000D01*
X127280000Y-85780000D02*
X129420000Y-87920000D01*
X129420000Y-87920000D02*
X132360000Y-87920000D01*
X168200000Y-96860000D02*
X169805000Y-96860000D01*
X169805000Y-96860000D02*
X169810000Y-96865000D01*
X169810000Y-96875000D02*
X176245000Y-96865000D01*
X177465000Y-88885000D02*
X178810000Y-88885000D01*
X177210000Y-89140000D02*
X177465000Y-88885000D01*
X177210000Y-95900000D02*
X177210000Y-89140000D01*
X176245000Y-96865000D02*
X177210000Y-95900000D01*
D48*
X135645000Y-87920000D02*
X135650000Y-87925000D01*
D44*
X142990000Y-77130000D02*
X141980000Y-77130000D01*
X141980000Y-77130000D02*
X139660000Y-79450000D01*
X143050000Y-75810000D02*
X143050000Y-77070000D01*
X143050000Y-77070000D02*
X142990000Y-77130000D01*
X139660000Y-84620000D02*
X139660000Y-79450000D01*
X131670000Y-84330000D02*
X132590000Y-84330000D01*
X132880000Y-84620000D02*
X134060000Y-84620000D01*
X132590000Y-84330000D02*
X132880000Y-84620000D01*
D47*
X154150000Y-69950000D02*
X152400000Y-69950000D01*
X152400000Y-69950000D02*
X152250000Y-69800000D01*
D44*
X134060000Y-84620000D02*
X134060000Y-86410000D01*
X134060000Y-86410000D02*
X134500000Y-86850000D01*
D48*
X152250000Y-69800000D02*
X152400000Y-69950000D01*
D44*
X131670000Y-82240000D02*
X134280000Y-82240000D01*
X134860000Y-82820000D02*
X134860000Y-84620000D01*
X134280000Y-82240000D02*
X134860000Y-82820000D01*
X134860000Y-84620000D02*
X134860000Y-85960000D01*
X134860000Y-85960000D02*
X135350000Y-86450000D01*
X135350000Y-86450000D02*
X136150000Y-86450000D01*
D48*
X154150000Y-70450000D02*
X155450000Y-70450000D01*
X155450000Y-70450000D02*
X155600000Y-70600000D01*
D46*
X100740000Y-97610000D02*
X100740000Y-95440000D01*
X132360000Y-94320000D02*
X135520000Y-94320000D01*
X135520000Y-94320000D02*
X135550000Y-94350000D01*
D44*
X108980000Y-91380000D02*
X110380000Y-91380000D01*
D48*
X135550000Y-94350000D02*
X135520000Y-94320000D01*
D46*
X97700000Y-98050000D02*
X100300000Y-98050000D01*
X100300000Y-98050000D02*
X100740000Y-97610000D01*
D48*
X100740000Y-97610000D02*
X100300000Y-98050000D01*
D46*
X132360000Y-93520000D02*
X134380000Y-93520000D01*
X134380000Y-93520000D02*
X134650000Y-93250000D01*
D44*
X97700000Y-96250000D02*
X98520000Y-96250000D01*
X99110000Y-95660000D02*
X99110000Y-95450000D01*
X98520000Y-96250000D02*
X99110000Y-95660000D01*
X108920000Y-88390000D02*
X110300000Y-88350000D01*
D48*
X134380000Y-93520000D02*
X134650000Y-93250000D01*
D44*
X130575000Y-85775000D02*
X131120000Y-86320000D01*
X131120000Y-86320000D02*
X132360000Y-86320000D01*
X181100000Y-90140000D02*
X181085000Y-90155000D01*
X181085000Y-90155000D02*
X178810000Y-90155000D01*
X168170000Y-98150000D02*
X169795000Y-98150000D01*
X169795000Y-98150000D02*
X169810000Y-98135000D01*
X139660000Y-96020000D02*
X139660000Y-94600000D01*
X174450000Y-105490000D02*
X174450000Y-107160000D01*
X174410000Y-105450000D02*
X174450000Y-105490000D01*
X139660000Y-94600000D02*
X139070000Y-94010000D01*
X140460000Y-96020000D02*
X140460000Y-93580000D01*
X176990000Y-105370000D02*
X176990000Y-107160000D01*
X176960000Y-105340000D02*
X176990000Y-105370000D01*
X140460000Y-93580000D02*
X140010000Y-93130000D01*
X179530000Y-105240000D02*
X179530000Y-107160000D01*
X141260000Y-96020000D02*
X141260000Y-94750000D01*
X141260000Y-94750000D02*
X141830000Y-94180000D01*
X182070000Y-105290000D02*
X182070000Y-107160000D01*
X182060000Y-105280000D02*
X182070000Y-105290000D01*
X142060000Y-96020000D02*
X143460000Y-96020000D01*
X143460000Y-96020000D02*
X143880000Y-96440000D01*
X121900000Y-80640000D02*
X121900000Y-80460000D01*
X121900000Y-80460000D02*
X123000000Y-79360000D01*
X123000000Y-79360000D02*
X125460000Y-79360000D01*
X125460000Y-79360000D02*
X128240000Y-82140000D01*
X128240000Y-82140000D02*
X128240000Y-85460000D01*
X128240000Y-85460000D02*
X129900000Y-87120000D01*
X129900000Y-87120000D02*
X132360000Y-87120000D01*
X171450000Y-73860000D02*
X174790000Y-73860000D01*
X174790000Y-73860000D02*
X174800000Y-73870000D01*
X171460000Y-73870000D02*
X171450000Y-73860000D01*
X163090000Y-74290000D02*
X164230000Y-74290000D01*
X164230000Y-74290000D02*
X164660000Y-73860000D01*
X164660000Y-73860000D02*
X166050000Y-73860000D01*
X166050000Y-73860000D02*
X167090000Y-73860000D01*
X169120000Y-65720000D02*
X166640000Y-63240000D01*
X169120000Y-67050000D02*
X169120000Y-65720000D01*
X168480000Y-67690000D02*
X169120000Y-67050000D01*
X168480000Y-72470000D02*
X168480000Y-67690000D01*
X167090000Y-73860000D02*
X168480000Y-72470000D01*
X166640000Y-63240000D02*
X166640000Y-62750000D01*
X166050000Y-73860000D02*
X164660000Y-73860000D01*
D48*
X166110000Y-73800000D02*
X166050000Y-73860000D01*
D44*
X174850000Y-66230000D02*
X171460000Y-66230000D01*
X171460000Y-66230000D02*
X171450000Y-66240000D01*
X171720000Y-62750000D02*
X171720000Y-63820000D01*
X173100000Y-65200000D02*
X173100000Y-66240000D01*
X171720000Y-63820000D02*
X173100000Y-65200000D01*
X171450000Y-66240000D02*
X173100000Y-66240000D01*
X131160000Y-106390000D02*
X133410000Y-106390000D01*
X133410000Y-106390000D02*
X134730000Y-107710000D01*
X134730000Y-107710000D02*
X134730000Y-108440000D01*
X134730000Y-108440000D02*
X135150000Y-108860000D01*
X135150000Y-108860000D02*
X155900000Y-108860000D01*
X155900000Y-108860000D02*
X156310000Y-109270000D01*
X156310000Y-109270000D02*
X156310000Y-111060000D01*
X139230000Y-108910000D02*
X135200000Y-108910000D01*
X135200000Y-108910000D02*
X134730000Y-108440000D01*
X134730000Y-108440000D02*
X134730000Y-107710000D01*
X134730000Y-107710000D02*
X133410000Y-106390000D01*
D47*
X131160000Y-106390000D02*
X133410000Y-106390000D01*
X135200000Y-108910000D02*
X139230000Y-108910000D01*
X134730000Y-108440000D02*
X135200000Y-108910000D01*
X134730000Y-107710000D02*
X134730000Y-108440000D01*
X133410000Y-106390000D02*
X134730000Y-107710000D01*
D44*
X133040000Y-102580000D02*
X131160000Y-102580000D01*
D47*
X158550000Y-70950000D02*
X160860000Y-70950000D01*
X160860000Y-70950000D02*
X161550000Y-71640000D01*
D44*
X171450000Y-72590000D02*
X169830000Y-72590000D01*
X169830000Y-72590000D02*
X169760000Y-72660000D01*
X170460000Y-75770000D02*
X174800000Y-75770000D01*
X169760000Y-75070000D02*
X170460000Y-75770000D01*
X169760000Y-72660000D02*
X169760000Y-75070000D01*
X174800000Y-75770000D02*
X174800000Y-78230000D01*
X176800000Y-74820000D02*
X178570000Y-74820000D01*
X179030000Y-65220000D02*
X179030000Y-74360000D01*
X176800000Y-62750000D02*
X176800000Y-62990000D01*
X176800000Y-62990000D02*
X179030000Y-65220000D01*
X179030000Y-74360000D02*
X178570000Y-74820000D01*
X136560000Y-107660000D02*
X141740000Y-107660000D01*
X164260000Y-106340000D02*
X164260000Y-106190000D01*
X164410000Y-106340000D02*
X164260000Y-106340000D01*
X164440000Y-106370000D02*
X164410000Y-106340000D01*
X145070000Y-106370000D02*
X164440000Y-106370000D01*
X145070000Y-105910000D02*
X145070000Y-106370000D01*
X144270000Y-105110000D02*
X145070000Y-105910000D01*
X143310000Y-105110000D02*
X144270000Y-105110000D01*
X142570000Y-105850000D02*
X143310000Y-105110000D01*
X142570000Y-106830000D02*
X142570000Y-105850000D01*
X141740000Y-107660000D02*
X142570000Y-106830000D01*
X164260000Y-106190000D02*
X166470000Y-108400000D01*
X166470000Y-108400000D02*
X166470000Y-111060000D01*
X143720000Y-106210000D02*
X143720000Y-107230000D01*
X144060000Y-107570000D02*
X159950000Y-107570000D01*
X143720000Y-107230000D02*
X144060000Y-107570000D01*
X136560000Y-103850000D02*
X138650000Y-103850000D01*
X159950000Y-107570000D02*
X161390000Y-109010000D01*
X161390000Y-111060000D02*
X161390000Y-109010000D01*
X143070000Y-80100000D02*
X143070000Y-81730000D01*
X143070000Y-81730000D02*
X143060000Y-81740000D01*
X143060000Y-81710000D02*
X142160000Y-81710000D01*
X141260000Y-82610000D02*
X141260000Y-84620000D01*
X142160000Y-81710000D02*
X141260000Y-82610000D01*
X143060000Y-81710000D02*
X143060000Y-81740000D01*
X127140000Y-88330000D02*
X128330000Y-89520000D01*
X128330000Y-89520000D02*
X132360000Y-89520000D01*
X174790000Y-67800000D02*
X174820000Y-67800000D01*
X174820000Y-67800000D02*
X175110000Y-67510000D01*
X176350000Y-66230000D02*
X176350000Y-67310000D01*
X176350000Y-67310000D02*
X176150000Y-67510000D01*
X176150000Y-67510000D02*
X175110000Y-67510000D01*
X175110000Y-67510000D02*
X174530000Y-67510000D01*
X174790000Y-68930000D02*
X174790000Y-67800000D01*
X174790000Y-67800000D02*
X174790000Y-67770000D01*
X174790000Y-67770000D02*
X174530000Y-67510000D01*
X171450000Y-67510000D02*
X174530000Y-67510000D01*
X147210000Y-101350000D02*
X147020000Y-101350000D01*
X147020000Y-101350000D02*
X146800000Y-101130000D01*
X148240000Y-96110000D02*
X147370000Y-96110000D01*
X146800000Y-96680000D02*
X146800000Y-101130000D01*
X147370000Y-96110000D02*
X146800000Y-96680000D01*
X148210000Y-101350000D02*
X147210000Y-101350000D01*
X147210000Y-101350000D02*
X147120000Y-101350000D01*
X147120000Y-101350000D02*
X146800000Y-101670000D01*
X146800000Y-101670000D02*
X146800000Y-102160000D01*
X165460000Y-102760000D02*
X166500000Y-101720000D01*
X147400000Y-102760000D02*
X165460000Y-102760000D01*
X146800000Y-102160000D02*
X147400000Y-102760000D01*
X164410000Y-96865000D02*
X166185000Y-96865000D01*
X166185000Y-96865000D02*
X166500000Y-97180000D01*
X166500000Y-97180000D02*
X166500000Y-101720000D01*
X146800000Y-101130000D02*
X146800000Y-101670000D01*
X165035000Y-96865000D02*
X164410000Y-96875000D01*
D46*
X93970000Y-101180000D02*
X95070000Y-100080000D01*
X95070000Y-100080000D02*
X95070000Y-98310000D01*
X95330000Y-98050000D02*
X96200000Y-98050000D01*
X95070000Y-98310000D02*
X95330000Y-98050000D01*
X94050000Y-99520000D02*
X94050000Y-96860000D01*
X94050000Y-96860000D02*
X94660000Y-96250000D01*
X94660000Y-96250000D02*
X96200000Y-96250000D01*
D48*
X94660000Y-96250000D02*
X94050000Y-96860000D01*
D46*
X104775000Y-93510000D02*
X104775000Y-92045000D01*
X104775000Y-92045000D02*
X105440000Y-91380000D01*
X105440000Y-91380000D02*
X107480000Y-91380000D01*
D44*
X107480000Y-91380000D02*
X105440000Y-91380000D01*
X105440000Y-91380000D02*
X104775000Y-92045000D01*
D46*
X103505000Y-84110000D02*
X103505000Y-86915000D01*
X103505000Y-86915000D02*
X104980000Y-88390000D01*
X104980000Y-88390000D02*
X107420000Y-88390000D01*
D44*
X104980000Y-88390000D02*
X107420000Y-88390000D01*
X103505000Y-86915000D02*
X104980000Y-88390000D01*
X107420000Y-88213798D02*
X107420000Y-88390000D01*
D47*
X109950000Y-75725000D02*
X111725000Y-75725000D01*
X111725000Y-75725000D02*
X113070000Y-74380000D01*
X113070000Y-74380000D02*
X117670000Y-74380000D01*
X117670000Y-74380000D02*
X118195000Y-73855000D01*
X118195000Y-73855000D02*
X119900000Y-73855000D01*
D46*
X109950000Y-75725000D02*
X109950000Y-77840000D01*
X111320000Y-79210000D02*
X112170000Y-79210000D01*
X109950000Y-77840000D02*
X111320000Y-79210000D01*
D48*
X107750000Y-79800000D02*
X107110000Y-79800000D01*
X107825000Y-75725000D02*
X109950000Y-75725000D01*
X106670000Y-76880000D02*
X107825000Y-75725000D01*
X106670000Y-79360000D02*
X106670000Y-76880000D01*
X107110000Y-79800000D02*
X106670000Y-79360000D01*
D46*
X106635000Y-82795000D02*
X107985000Y-82795000D01*
X108375000Y-83185000D02*
X108375000Y-84950000D01*
X107985000Y-82795000D02*
X108375000Y-83185000D01*
X105550000Y-80750000D02*
X105550000Y-81710000D01*
X105550000Y-81710000D02*
X106635000Y-82795000D01*
X108375000Y-84535000D02*
X108375000Y-84950000D01*
D44*
X138860000Y-96020000D02*
X138860000Y-97030000D01*
X138860000Y-97030000D02*
X140810000Y-98980000D01*
X140810000Y-98980000D02*
X143200000Y-98980000D01*
X125300000Y-72585000D02*
X126575000Y-72585000D01*
X133940000Y-73180000D02*
X134325000Y-72795000D01*
X127170000Y-73180000D02*
X133940000Y-73180000D01*
X126575000Y-72585000D02*
X127170000Y-73180000D01*
X134325000Y-72795000D02*
X134325000Y-71200000D01*
D46*
X117525000Y-65200000D02*
X117525000Y-69245000D01*
X117525000Y-69245000D02*
X118325000Y-70045000D01*
X118325000Y-70045000D02*
X119900000Y-70045000D01*
X120250000Y-65200000D02*
X117525000Y-65200000D01*
D44*
X118325000Y-70045000D02*
X119900000Y-70045000D01*
X136230000Y-65760000D02*
X146340000Y-65760000D01*
X147950000Y-67370000D02*
X147950000Y-71070000D01*
X146340000Y-65760000D02*
X147950000Y-67370000D01*
X154980000Y-84740000D02*
X154980000Y-84650000D01*
X154980000Y-84650000D02*
X154720000Y-84390000D01*
X155830000Y-84740000D02*
X154980000Y-84740000D01*
X154980000Y-84740000D02*
X154720000Y-85000000D01*
X153130000Y-82695000D02*
X154135000Y-82695000D01*
X154720000Y-83280000D02*
X154720000Y-84390000D01*
X154135000Y-82695000D02*
X154720000Y-83280000D01*
X154720000Y-84390000D02*
X154720000Y-85000000D01*
X154720000Y-85000000D02*
X154720000Y-86870000D01*
X154720000Y-86870000D02*
X155090000Y-86870000D01*
X159655000Y-91435000D02*
X164370000Y-91435000D01*
X155090000Y-86870000D02*
X159655000Y-91435000D01*
D48*
X156045000Y-99415000D02*
X156050000Y-99410000D01*
X156080000Y-99415121D02*
X156045000Y-99415000D01*
D44*
X156080000Y-99415121D02*
X154380121Y-99415121D01*
X154370000Y-99405000D02*
X154370000Y-101310000D01*
X154380121Y-99415121D02*
X154370000Y-99405000D01*
X164370000Y-91435000D02*
X165665000Y-91435000D01*
X165665000Y-91435000D02*
X166300000Y-92070000D01*
X166300000Y-92070000D02*
X166300000Y-93150000D01*
X166300000Y-93150000D02*
X166690000Y-93540000D01*
X166690000Y-93540000D02*
X167670000Y-93540000D01*
X153130000Y-82695000D02*
X151735000Y-82695000D01*
X151735000Y-82695000D02*
X151530000Y-82900000D01*
X151530000Y-82900000D02*
X151300000Y-82730000D01*
X153135000Y-82700000D02*
X153130000Y-82695000D01*
X136230000Y-62750000D02*
X136230000Y-65760000D01*
X136230000Y-62750000D02*
X136230000Y-63200000D01*
X166060000Y-86510000D02*
X166060000Y-86090000D01*
X166910000Y-85240000D02*
X166910000Y-84020000D01*
X166060000Y-86090000D02*
X166910000Y-85240000D01*
X174790000Y-81220000D02*
X168740000Y-81220000D01*
X168740000Y-81220000D02*
X167540000Y-82420000D01*
X167540000Y-82420000D02*
X167540000Y-83390000D01*
X167540000Y-83390000D02*
X166910000Y-84020000D01*
X161750000Y-86570000D02*
X166000000Y-86570000D01*
X166000000Y-86570000D02*
X166060000Y-86510000D01*
X161750000Y-86570000D02*
X159610000Y-86570000D01*
X164370000Y-87625000D02*
X165725000Y-87625000D01*
X165725000Y-87625000D02*
X166060000Y-87290000D01*
X166060000Y-87290000D02*
X166060000Y-86510000D01*
X161750000Y-88070000D02*
X161750000Y-88750000D01*
X161895000Y-88895000D02*
X164370000Y-88895000D01*
X161750000Y-88750000D02*
X161895000Y-88895000D01*
X159610000Y-88070000D02*
X158680000Y-88070000D01*
X158730000Y-84710000D02*
X159640000Y-84710000D01*
X158350000Y-85090000D02*
X158730000Y-84710000D01*
X158350000Y-87740000D02*
X158350000Y-85090000D01*
X158680000Y-88070000D02*
X158350000Y-87740000D01*
X161755000Y-88065000D02*
X161750000Y-88070000D01*
X161750000Y-88070000D02*
X159610000Y-88070000D01*
X169780000Y-84720000D02*
X169780000Y-87615000D01*
X169780000Y-87615000D02*
X169770000Y-87625000D01*
X159830000Y-78590000D02*
X159830000Y-78720000D01*
X159830000Y-78720000D02*
X159665000Y-78885000D01*
X118630000Y-77200000D02*
X118520000Y-77200000D01*
X118300000Y-77420000D02*
X118300000Y-78850000D01*
X118520000Y-77200000D02*
X118300000Y-77420000D01*
X159830000Y-76720000D02*
X159830000Y-78590000D01*
X159830000Y-78590000D02*
X160125000Y-78885000D01*
X158530000Y-78885000D02*
X159665000Y-78885000D01*
X159665000Y-78885000D02*
X160125000Y-78885000D01*
X160125000Y-78885000D02*
X161165000Y-78885000D01*
X161425000Y-79145000D02*
X162210000Y-79690000D01*
X161165000Y-78885000D02*
X161425000Y-79145000D01*
X162170000Y-96150000D02*
X162180000Y-96160000D01*
X162170000Y-95090000D02*
X162170000Y-96150000D01*
X159770000Y-95595000D02*
X159770000Y-95010000D01*
X160990000Y-94580000D02*
X161500000Y-95090000D01*
X160200000Y-94580000D02*
X160990000Y-94580000D01*
X159770000Y-95010000D02*
X160200000Y-94580000D01*
X161500000Y-95090000D02*
X162000000Y-95090000D01*
X168120000Y-87620000D02*
X169765000Y-87620000D01*
X169765000Y-87620000D02*
X169770000Y-87625000D01*
X162205000Y-79685000D02*
X162210000Y-79690000D01*
X168120000Y-87620000D02*
X168670000Y-87625000D01*
X168670000Y-87625000D02*
X168675000Y-87620000D01*
D48*
X168125000Y-87615000D02*
X168675000Y-87620000D01*
X168120000Y-87620000D02*
X168125000Y-87615000D01*
X162205000Y-79685000D02*
X162210000Y-79690000D01*
D44*
X149740000Y-96110000D02*
X149740000Y-97170000D01*
X148220000Y-97700000D02*
X148220000Y-98800000D01*
X148280000Y-97640000D02*
X148220000Y-97700000D01*
X149270000Y-97640000D02*
X148280000Y-97640000D01*
X149740000Y-97170000D02*
X149270000Y-97640000D01*
X149740000Y-96110000D02*
X150230000Y-96110000D01*
X150980000Y-95360000D02*
X151610000Y-95360000D01*
X150230000Y-96110000D02*
X150980000Y-95360000D01*
X151610000Y-95360000D02*
X152520000Y-95360000D01*
X152755000Y-95595000D02*
X154370000Y-95595000D01*
X152520000Y-95360000D02*
X152755000Y-95595000D01*
X151610000Y-95561602D02*
X151610000Y-95360000D01*
X154370000Y-96865000D02*
X155855000Y-96865000D01*
X155960000Y-96760000D02*
X155960000Y-94000000D01*
X155855000Y-96865000D02*
X155960000Y-96760000D01*
X149720000Y-98800000D02*
X151240000Y-98800000D01*
X151610000Y-98430000D02*
X151610000Y-96860000D01*
X151240000Y-98800000D02*
X151610000Y-98430000D01*
X151610000Y-96860000D02*
X154365000Y-96860000D01*
X154365000Y-96860000D02*
X154370000Y-96865000D01*
X131760000Y-96180000D02*
X133080000Y-97500000D01*
X133080000Y-97500000D02*
X133880000Y-97500000D01*
X133880000Y-97500000D02*
X134060000Y-97320000D01*
X134060000Y-97320000D02*
X134060000Y-96020000D01*
D47*
X134060000Y-97320000D02*
X133880000Y-97500000D01*
D44*
X131760000Y-96180000D02*
X133080000Y-97500000D01*
X133080000Y-97500000D02*
X133880000Y-97500000D01*
X133880000Y-97500000D02*
X134060000Y-97320000D01*
D47*
X134060000Y-96020000D02*
X134060000Y-97320000D01*
X133880000Y-97500000D02*
X133080000Y-97500000D01*
X134060000Y-97320000D02*
X133880000Y-97500000D01*
D44*
X146210000Y-75860000D02*
X146210000Y-77410000D01*
X146210000Y-77410000D02*
X146200000Y-77420000D01*
X159770000Y-99405000D02*
X158445000Y-99405000D01*
X158445000Y-99405000D02*
X157890000Y-98850000D01*
X157890000Y-98850000D02*
X157890000Y-95500000D01*
X157890000Y-98850000D02*
X158445000Y-99405000D01*
X168150000Y-91410000D02*
X169745000Y-91410000D01*
X169745000Y-91410000D02*
X169770000Y-91435000D01*
X146220000Y-77400000D02*
X146200000Y-77420000D01*
X146210000Y-78590000D02*
X146210000Y-77430000D01*
X146210000Y-77430000D02*
X146200000Y-77420000D01*
X146220000Y-77400000D02*
X146200000Y-77420000D01*
X146220000Y-77400000D02*
X146220000Y-78580000D01*
X146220000Y-78580000D02*
X146210000Y-78590000D01*
X146220000Y-77400000D02*
X146200000Y-77420000D01*
X161480000Y-65140000D02*
X161480000Y-66240000D01*
X164920000Y-67510000D02*
X166050000Y-67510000D01*
X163710000Y-66300000D02*
X164920000Y-67510000D01*
X161540000Y-66300000D02*
X163710000Y-66300000D01*
X161480000Y-66240000D02*
X161540000Y-66300000D01*
X157340000Y-65140000D02*
X161480000Y-65140000D01*
D47*
X161450000Y-65110000D02*
X161480000Y-65140000D01*
D44*
X162980000Y-65140000D02*
X163660000Y-65140000D01*
X164760000Y-66240000D02*
X166050000Y-66240000D01*
X163660000Y-65140000D02*
X164760000Y-66240000D01*
X171450000Y-68780000D02*
X173060000Y-68780000D01*
X166050000Y-66240000D02*
X167620000Y-66240000D01*
D47*
X151020000Y-70950000D02*
X154150000Y-70950000D01*
D44*
X160630000Y-74290000D02*
X160630000Y-73260000D01*
X161300000Y-72590000D02*
X166050000Y-72590000D01*
X160630000Y-73260000D02*
X161300000Y-72590000D01*
X159750000Y-74290000D02*
X160630000Y-74290000D01*
X160630000Y-74290000D02*
X161590000Y-74290000D01*
X131160000Y-101310000D02*
X132290000Y-101310000D01*
X134860000Y-97860000D02*
X134860000Y-96020000D01*
X132890000Y-99830000D02*
X134860000Y-97860000D01*
X132890000Y-100710000D02*
X132890000Y-99830000D01*
X132290000Y-101310000D02*
X132890000Y-100710000D01*
X134020000Y-103540000D02*
X134020000Y-100160000D01*
X134020000Y-100160000D02*
X134010000Y-100150000D01*
X134010000Y-100150000D02*
X135660000Y-98500000D01*
X131160000Y-105120000D02*
X132440000Y-105120000D01*
X132440000Y-105120000D02*
X134020000Y-103540000D01*
X135660000Y-98500000D02*
X135660000Y-96020000D01*
X143770000Y-84490000D02*
X143770000Y-86310000D01*
X173410000Y-86650000D02*
X173410000Y-87615000D01*
X173370000Y-86430000D02*
X173410000Y-86650000D01*
X143770000Y-86310000D02*
X143760000Y-86320000D01*
X143760000Y-88720000D02*
X145670000Y-88720000D01*
X145670000Y-88720000D02*
X147070000Y-87320000D01*
X151910000Y-88040000D02*
X155040000Y-88040000D01*
X155040000Y-88040000D02*
X159360000Y-92360000D01*
X147070000Y-87320000D02*
X151190000Y-87320000D01*
X151190000Y-87320000D02*
X151910000Y-88040000D01*
X159360000Y-92360000D02*
X162850000Y-92360000D01*
X162850000Y-92360000D02*
X164410000Y-93920000D01*
X164410000Y-93920000D02*
X164410000Y-95595000D01*
D48*
X143850000Y-88810000D02*
X143760000Y-88720000D01*
D44*
X143760000Y-87920000D02*
X145360000Y-87920000D01*
X145360000Y-87920000D02*
X146810000Y-86470000D01*
X152050000Y-86240000D02*
X152050000Y-84830000D01*
X151820000Y-86470000D02*
X152050000Y-86240000D01*
X152050000Y-84830000D02*
X152050000Y-83980000D01*
X150180000Y-83210000D02*
X150927531Y-83910000D01*
X148950000Y-83210000D02*
X150180000Y-83210000D01*
X152050000Y-83980000D02*
X151980000Y-83910000D01*
X151980000Y-83910000D02*
X150927531Y-83910000D01*
X146810000Y-86470000D02*
X151820000Y-86470000D01*
X158530000Y-81425000D02*
X159785000Y-81425000D01*
X160785000Y-82425000D02*
X161425000Y-82425000D01*
X159785000Y-81425000D02*
X160785000Y-82425000D01*
X161425000Y-82425000D02*
X163385000Y-82425000D01*
X163385000Y-82425000D02*
X163390000Y-82420000D01*
X138860000Y-84620000D02*
X138860000Y-86000000D01*
X139160000Y-86300000D02*
X140550000Y-86300000D01*
X138860000Y-86000000D02*
X139160000Y-86300000D01*
X165350000Y-79700000D02*
X165350000Y-76730000D01*
X163310000Y-76730000D02*
X165350000Y-76730000D01*
D46*
X136460000Y-84620000D02*
X136460000Y-78400000D01*
X136460000Y-78400000D02*
X136450000Y-78390000D01*
X136450000Y-78390000D02*
X135510000Y-78390000D01*
X133640000Y-76520000D02*
X133640000Y-75040000D01*
X135510000Y-78390000D02*
X133640000Y-76520000D01*
D47*
X136450000Y-84610000D02*
X136460000Y-84620000D01*
D44*
X143760000Y-87120000D02*
X144940000Y-87120000D01*
X146200000Y-85860000D02*
X146200000Y-85140000D01*
X144940000Y-87120000D02*
X146200000Y-85860000D01*
X148200000Y-85140000D02*
X146200000Y-85140000D01*
X146200000Y-83210000D02*
X146200000Y-85140000D01*
D47*
X158550000Y-69950000D02*
X162440000Y-69950000D01*
X163610000Y-68780000D02*
X166050000Y-68780000D01*
X162440000Y-69950000D02*
X163610000Y-68780000D01*
X158550000Y-70450000D02*
X162360000Y-70450000D01*
X163230000Y-71320000D02*
X166050000Y-71320000D01*
X162360000Y-70450000D02*
X163230000Y-71320000D01*
X158550000Y-71450000D02*
X157260000Y-71450000D01*
X157260000Y-71450000D02*
X157150000Y-71560000D01*
X157150000Y-72410000D02*
X157400000Y-72660000D01*
X157150000Y-71560000D02*
X157150000Y-72410000D01*
X157400000Y-72660000D02*
X158330000Y-72660000D01*
D48*
X169900000Y-71320000D02*
X171450000Y-71320000D01*
X157400000Y-72660000D02*
X158330000Y-72660000D01*
D44*
X100840000Y-107210000D02*
X100100000Y-107210000D01*
X98790000Y-108520000D02*
X94440000Y-108520000D01*
X100100000Y-107210000D02*
X98790000Y-108520000D01*
X104120000Y-101360000D02*
X104120000Y-104530000D01*
X104140000Y-98210000D02*
X104140000Y-101340000D01*
X104140000Y-101340000D02*
X104120000Y-101360000D01*
X102330000Y-104530000D02*
X104120000Y-104530000D01*
X107790000Y-99860000D02*
X111460000Y-99860000D01*
X111460000Y-99860000D02*
X112215000Y-100615000D01*
X107790000Y-99860000D02*
X107790000Y-99100000D01*
X106900000Y-98210000D02*
X105640000Y-98210000D01*
X107790000Y-99100000D02*
X106900000Y-98210000D01*
X112215000Y-100615000D02*
X116660000Y-100615000D01*
X110420000Y-106830000D02*
X110420000Y-107740000D01*
X110420000Y-107740000D02*
X111450000Y-108770000D01*
X110420000Y-104530000D02*
X110420000Y-106830000D01*
X110420000Y-106830000D02*
X110420000Y-106940000D01*
X110420000Y-106940000D02*
X110490000Y-107010000D01*
X109300000Y-104530000D02*
X110420000Y-104530000D01*
X110420000Y-104530000D02*
X111440000Y-104530000D01*
X111460000Y-109850000D02*
X111460000Y-109320000D01*
X111460000Y-109320000D02*
X111450000Y-109310000D01*
X111450000Y-109310000D02*
X111450000Y-108770000D01*
X111460000Y-107010000D02*
X110490000Y-107010000D01*
X137260000Y-96020000D02*
X137260000Y-97620000D01*
X137260000Y-97620000D02*
X139770000Y-100130000D01*
X105380000Y-107210000D02*
X102340000Y-107210000D01*
X105380000Y-107210000D02*
X105390000Y-107200000D01*
X136560000Y-106390000D02*
X138520000Y-106390000D01*
X138520000Y-106390000D02*
X138530000Y-106380000D01*
X138530000Y-106380000D02*
X138830000Y-106080000D01*
X138830000Y-106080000D02*
X138850000Y-106080000D01*
X138850000Y-106080000D02*
X139770000Y-105160000D01*
X139770000Y-105160000D02*
X139770000Y-100130000D01*
X137260000Y-97390000D02*
X137260000Y-96020000D01*
D48*
X138830000Y-106080000D02*
X138830000Y-106100000D01*
D47*
X137260000Y-96020000D02*
X137260000Y-97390000D01*
X138530000Y-106400000D02*
X136350000Y-106400000D01*
X139770000Y-105160000D02*
X138830000Y-106100000D01*
X138830000Y-106100000D02*
X138530000Y-106400000D01*
D44*
X94615000Y-84110000D02*
X94615000Y-81585000D01*
X94615000Y-81585000D02*
X98500000Y-77700000D01*
X95040000Y-74870000D02*
X97970000Y-74870000D01*
X98500000Y-75400000D02*
X98500000Y-77700000D01*
X97970000Y-74870000D02*
X98500000Y-75400000D01*
X132360000Y-92720000D02*
X130840000Y-92720000D01*
X130840000Y-92720000D02*
X130700000Y-92860000D01*
X130700000Y-92860000D02*
X130700000Y-95480000D01*
X130050000Y-96130000D02*
X128540000Y-96130000D01*
X128540000Y-96130000D02*
X128520000Y-96110000D01*
X128520000Y-96110000D02*
X128520000Y-94340000D01*
X130700000Y-95480000D02*
X130050000Y-96130000D01*
D47*
X132330000Y-92690000D02*
X132360000Y-92720000D01*
D44*
X165310000Y-82860000D02*
X165310000Y-81600000D01*
X165310000Y-81600000D02*
X165800000Y-81110000D01*
X162400000Y-84710000D02*
X162400000Y-83840000D01*
X162770000Y-83470000D02*
X164700000Y-83470000D01*
X162400000Y-83840000D02*
X162770000Y-83470000D01*
X163720000Y-84710000D02*
X162400000Y-84710000D01*
X164700000Y-83470000D02*
X165310000Y-82860000D01*
X161140000Y-84710000D02*
X162400000Y-84710000D01*
X165220000Y-84710000D02*
X165220000Y-84350000D01*
X165220000Y-84350000D02*
X166470000Y-83100000D01*
X166470000Y-83100000D02*
X166470000Y-82680000D01*
X165220000Y-84710000D02*
X165373989Y-84710000D01*
X155960000Y-92500000D02*
X155960000Y-91790000D01*
X155960000Y-91790000D02*
X155450000Y-91280000D01*
X151240000Y-81395254D02*
X150355254Y-81395254D01*
X149980000Y-80090000D02*
X149020000Y-80090000D01*
X150280000Y-80390000D02*
X149980000Y-80090000D01*
X150280000Y-81320000D02*
X150280000Y-80390000D01*
X150355254Y-81395254D02*
X150280000Y-81320000D01*
X151240000Y-81395254D02*
X151290000Y-81430000D01*
X151270000Y-81410000D02*
X151270000Y-81610000D01*
X151270000Y-81610000D02*
X151290000Y-81430000D01*
X151270000Y-81410000D02*
X153125000Y-81430000D01*
X153125000Y-81430000D02*
X153130000Y-81425000D01*
X153125000Y-81430000D02*
X153130000Y-81425000D01*
X153120000Y-81415000D02*
X153130000Y-81425000D01*
D48*
X153120000Y-81415000D02*
X153130000Y-81425000D01*
D44*
X173410000Y-88885000D02*
X172115000Y-88885000D01*
X172115000Y-88885000D02*
X171540000Y-89460000D01*
X173410000Y-88885000D02*
X174925000Y-88885000D01*
X176290000Y-83930000D02*
X176290000Y-81220000D01*
X175300000Y-84920000D02*
X176290000Y-83930000D01*
X175300000Y-88510000D02*
X175300000Y-84920000D01*
X174925000Y-88885000D02*
X175300000Y-88510000D01*
X173390000Y-94080000D02*
X172000000Y-94080000D01*
X172000000Y-94080000D02*
X171540000Y-93620000D01*
X171540000Y-93620000D02*
X171540000Y-89460000D01*
X173385000Y-88860000D02*
X173410000Y-88885000D01*
X151260000Y-75850000D02*
X154460000Y-75850000D01*
X154710000Y-76100000D02*
X154710000Y-78900000D01*
X154460000Y-75850000D02*
X154710000Y-76100000D01*
X153550000Y-86470000D02*
X153170000Y-86850000D01*
X153550000Y-84830000D02*
X153550000Y-86470000D01*
X153130000Y-78885000D02*
X154705000Y-78895000D01*
X154705000Y-78895000D02*
X154710000Y-78900000D01*
X153125000Y-78890000D02*
X153130000Y-78885000D01*
D48*
X154710000Y-78900000D02*
X154705000Y-78895000D01*
X153125000Y-78890000D02*
X153130000Y-78885000D01*
D44*
X168175000Y-89115000D02*
X168170000Y-89110000D01*
X168175000Y-90165000D02*
X168175000Y-89115000D01*
X168170000Y-90160000D02*
X168175000Y-90165000D01*
X173410000Y-90155000D02*
X175095000Y-90155000D01*
X175095000Y-90155000D02*
X175100000Y-90150000D01*
X169770000Y-88895000D02*
X168385000Y-88895000D01*
X168385000Y-88895000D02*
X168170000Y-89110000D01*
X168345000Y-90165000D02*
X169770000Y-90165000D01*
X168170000Y-89110000D02*
X168170000Y-89990000D01*
X168170000Y-89990000D02*
X168345000Y-90165000D01*
D48*
X175095000Y-90155000D02*
X175100000Y-90150000D01*
X173405000Y-90160000D02*
X173410000Y-90155000D01*
D44*
X145850000Y-94470000D02*
X145850000Y-102660000D01*
X169810000Y-102570000D02*
X169810000Y-99405000D01*
X168560000Y-103820000D02*
X169810000Y-102570000D01*
X147010000Y-103820000D02*
X168560000Y-103820000D01*
X145850000Y-102660000D02*
X147010000Y-103820000D01*
X143760000Y-93520000D02*
X144900000Y-93520000D01*
X144900000Y-93520000D02*
X145850000Y-94470000D01*
X145010000Y-95770000D02*
X145010000Y-103440000D01*
X172330000Y-104940000D02*
X181080000Y-96190000D01*
X146510000Y-104940000D02*
X172330000Y-104940000D01*
X145010000Y-103440000D02*
X146510000Y-104940000D01*
X143760000Y-94320000D02*
X143760000Y-95030000D01*
X144550000Y-95310000D02*
X145010000Y-95770000D01*
X144040000Y-95310000D02*
X144550000Y-95310000D01*
X143760000Y-95030000D02*
X144040000Y-95310000D01*
X181080000Y-96190000D02*
X181080000Y-91950000D01*
X178810000Y-91425000D02*
X180555000Y-91425000D01*
X180555000Y-91425000D02*
X181080000Y-91950000D01*
X149700000Y-85140000D02*
X150660000Y-85140000D01*
X160190000Y-80170000D02*
X160190000Y-80155000D01*
X160190000Y-80155000D02*
X160190000Y-80170000D01*
X160190000Y-80170000D02*
X160190000Y-80155000D01*
X161425000Y-80925000D02*
X161425000Y-80745000D01*
X161425000Y-80745000D02*
X160835000Y-80155000D01*
X160835000Y-80155000D02*
X160190000Y-80155000D01*
X160190000Y-80155000D02*
X158530000Y-80155000D01*
X132360000Y-91920000D02*
X126660000Y-91920000D01*
X125980000Y-92600000D02*
X125980000Y-94340000D01*
X126660000Y-91920000D02*
X125980000Y-92600000D01*
D47*
X142060000Y-84620000D02*
X142060000Y-86400000D01*
X142060000Y-86400000D02*
X141810000Y-86650000D01*
D46*
X135660000Y-84620000D02*
X135660000Y-81200000D01*
X132850000Y-78390000D02*
X131570000Y-78390000D01*
X135660000Y-81200000D02*
X132850000Y-78390000D01*
X131570000Y-78390000D02*
X128390000Y-78390000D01*
X128390000Y-78390000D02*
X127230000Y-77230000D01*
X128170000Y-75040000D02*
X128170000Y-76290000D01*
X128170000Y-76290000D02*
X127230000Y-77230000D01*
X127230000Y-77230000D02*
X126300000Y-76300000D01*
X94615000Y-93510000D02*
X94615000Y-90735000D01*
X94615000Y-90735000D02*
X95450000Y-89900000D01*
D44*
X94615000Y-90735000D02*
X95450000Y-89900000D01*
D46*
X95450000Y-89900000D02*
X118000000Y-89900000D01*
X118000000Y-89900000D02*
X120350000Y-87550000D01*
X120350000Y-87550000D02*
X120350000Y-76850000D01*
X120350000Y-76850000D02*
X120900000Y-76300000D01*
X120900000Y-76300000D02*
X126300000Y-76300000D01*
D47*
X118000000Y-89900000D02*
X120350000Y-87550000D01*
D44*
X112960000Y-111690000D02*
X112960000Y-111730000D01*
X112960000Y-111730000D02*
X113210000Y-111980000D01*
X112960000Y-109850000D02*
X112960000Y-111690000D01*
X112960000Y-111690000D02*
X112670000Y-111980000D01*
X109300000Y-109850000D02*
X109300000Y-110930000D01*
X109300000Y-110930000D02*
X110350000Y-111980000D01*
X110350000Y-111980000D02*
X112670000Y-111980000D01*
X112670000Y-111980000D02*
X113210000Y-111980000D01*
X113210000Y-111980000D02*
X119890000Y-111980000D01*
X119890000Y-111980000D02*
X122130000Y-109740000D01*
X122130000Y-109740000D02*
X122130000Y-107790000D01*
X122130000Y-109740000D02*
X119890000Y-111980000D01*
X112940000Y-104530000D02*
X115420000Y-104530000D01*
X116430000Y-105540000D02*
X116430000Y-106230000D01*
X115420000Y-104530000D02*
X116430000Y-105540000D01*
X112940000Y-104530000D02*
X118000000Y-104530000D01*
X120645000Y-101885000D02*
X122060000Y-101885000D01*
X118000000Y-104530000D02*
X120645000Y-101885000D01*
X107790000Y-101360000D02*
X109930000Y-101360000D01*
X110455000Y-101885000D02*
X116660000Y-101885000D01*
X109930000Y-101360000D02*
X110455000Y-101885000D01*
X105620000Y-101360000D02*
X107790000Y-101360000D01*
X114380000Y-103100000D02*
X114380000Y-101885000D01*
X114360000Y-101885000D02*
X116660000Y-101885000D01*
X114380000Y-101885000D02*
X114360000Y-101865000D01*
X114360000Y-101865000D02*
X114360000Y-101885000D01*
D48*
X114380000Y-102220000D02*
X114380000Y-102150000D01*
X114380000Y-102150000D02*
X114645000Y-101885000D01*
X114380000Y-103100000D02*
X114380000Y-102220000D01*
X114380000Y-102220000D02*
X114380000Y-102170000D01*
X114380000Y-102170000D02*
X114095000Y-101885000D01*
X114095000Y-101885000D02*
X114645000Y-101885000D01*
X114645000Y-101885000D02*
X116660000Y-101885000D01*
D44*
X136460000Y-96020000D02*
X136460000Y-97790000D01*
X136460000Y-97790000D02*
X138810000Y-100140000D01*
X138810000Y-102340000D02*
X138570000Y-102580000D01*
X138810000Y-100140000D02*
X138810000Y-102340000D01*
X136560000Y-102580000D02*
X138570000Y-102580000D01*
D47*
X136460000Y-97790000D02*
X138850000Y-100180000D01*
X138850000Y-100180000D02*
X138850000Y-102300000D01*
X138850000Y-102300000D02*
X138570000Y-102580000D01*
X122130000Y-105380000D02*
X122130000Y-106490000D01*
D44*
X116430000Y-107730000D02*
X118330000Y-107730000D01*
X118330000Y-107730000D02*
X119260000Y-106800000D01*
X112960000Y-107010000D02*
X114250000Y-107010000D01*
X114970000Y-107730000D02*
X116430000Y-107730000D01*
X114250000Y-107010000D02*
X114970000Y-107730000D01*
X122060000Y-103155000D02*
X120885000Y-103155000D01*
X119260000Y-104780000D02*
X119260000Y-106800000D01*
X120885000Y-103155000D02*
X119260000Y-104780000D01*
D47*
X122060000Y-103155000D02*
X125195000Y-103155000D01*
X125195000Y-103155000D02*
X125200000Y-103150000D01*
D44*
X161810000Y-76730000D02*
X161810000Y-77360000D01*
X163820000Y-79370000D02*
X163820000Y-80920000D01*
X161810000Y-77360000D02*
X163820000Y-79370000D01*
X143070000Y-78600000D02*
X142020000Y-78600000D01*
X142020000Y-78600000D02*
X140460000Y-80160000D01*
X140460000Y-80160000D02*
X140460000Y-84620000D01*
X143760000Y-92720000D02*
X145640000Y-92720000D01*
X146800000Y-93880000D02*
X148250000Y-93880000D01*
X145640000Y-92720000D02*
X146800000Y-93880000D01*
X161440000Y-97850000D02*
X161550000Y-97850000D01*
X161550000Y-97850000D02*
X161835000Y-98135000D01*
X164410000Y-98135000D02*
X161835000Y-98135000D01*
X161835000Y-98135000D02*
X159770000Y-98135000D01*
X159770000Y-96865000D02*
X161075000Y-96865000D01*
X161155000Y-98135000D02*
X159770000Y-98135000D01*
X161440000Y-97850000D02*
X161155000Y-98135000D01*
X161440000Y-97230000D02*
X161440000Y-97850000D01*
X161075000Y-96865000D02*
X161440000Y-97230000D01*
D48*
X160375000Y-98135000D02*
X160040000Y-98135000D01*
D44*
X143760000Y-91920000D02*
X146860000Y-91920000D01*
X147480000Y-91300000D02*
X148260000Y-91300000D01*
X146860000Y-91920000D02*
X147480000Y-91300000D01*
X143770000Y-91930000D02*
X143760000Y-91920000D01*
D48*
X143765000Y-91925000D02*
X143760000Y-91920000D01*
D44*
X149760000Y-91300000D02*
X150880000Y-91300000D01*
X151370000Y-91790000D02*
X153380000Y-91790000D01*
X150880000Y-91300000D02*
X151370000Y-91790000D01*
D46*
X95060000Y-62470000D02*
X94190000Y-62470000D01*
X93710000Y-62950000D02*
X93710000Y-64840000D01*
X94190000Y-62470000D02*
X93710000Y-62950000D01*
D44*
X150990000Y-77460000D02*
X150990000Y-79750000D01*
X150990000Y-79750000D02*
X151395000Y-80155000D01*
X151395000Y-80155000D02*
X153130000Y-80155000D01*
X149760000Y-75850000D02*
X149760000Y-77090000D01*
X150130000Y-77460000D02*
X150990000Y-77460000D01*
X149760000Y-77090000D02*
X150130000Y-77460000D01*
X153130000Y-80155000D02*
X151395000Y-80155000D01*
X151395000Y-80155000D02*
X150990000Y-79750000D01*
X153115000Y-80140000D02*
X153130000Y-80155000D01*
X95040000Y-73570000D02*
X96730000Y-73570000D01*
X97110000Y-70170000D02*
X96300000Y-69360000D01*
X97110000Y-73190000D02*
X97110000Y-70170000D01*
X96730000Y-73570000D02*
X97110000Y-73190000D01*
X96300000Y-69360000D02*
X96300000Y-68600000D01*
X94440000Y-106020000D02*
X96940000Y-106020000D01*
X98430000Y-104530000D02*
X100830000Y-104530000D01*
X96940000Y-106020000D02*
X98430000Y-104530000D01*
D48*
X94450000Y-106030000D02*
X94440000Y-106020000D01*
D46*
X113670000Y-81780000D02*
X115030000Y-81780000D01*
X116350000Y-83100000D02*
X118050000Y-83100000D01*
X115030000Y-81780000D02*
X116350000Y-83100000D01*
D44*
X118300000Y-80750000D02*
X118300000Y-82850000D01*
X118300000Y-82850000D02*
X118050000Y-83100000D01*
X131860000Y-68210000D02*
X134970000Y-68210000D01*
X135520000Y-67660000D02*
X136480000Y-67660000D01*
X134970000Y-68210000D02*
X135520000Y-67660000D01*
X136480000Y-67660000D02*
X140970000Y-67660000D01*
X140970000Y-67660000D02*
X140980000Y-67670000D01*
X152370000Y-93880000D02*
X149750000Y-93880000D01*
X142075000Y-89525000D02*
X143755000Y-89525000D01*
X143755000Y-89525000D02*
X143760000Y-89520000D01*
X138060000Y-81390000D02*
X138060000Y-79800000D01*
X138060000Y-79800000D02*
X138070000Y-79790000D01*
D48*
X142080000Y-89520000D02*
X143760000Y-89520000D01*
X142075000Y-89525000D02*
X142080000Y-89520000D01*
D44*
X182070000Y-108660000D02*
X182070000Y-111040000D01*
X179530000Y-108660000D02*
X179530000Y-111040000D01*
X176990000Y-108660000D02*
X176990000Y-111040000D01*
X174450000Y-108660000D02*
X174450000Y-111040000D01*
D49*
G36*
X150182993Y-112549500D02*
X149737007Y-112549500D01*
X149960000Y-112400501D01*
X150182993Y-112549500D01*
X150182993Y-112549500D01*
G37*
X150182993Y-112549500D02*
X149737007Y-112549500D01*
X149960000Y-112400501D01*
X150182993Y-112549500D01*
G36*
X92730612Y-104389388D02*
X92784926Y-104425679D01*
X92849102Y-104580997D01*
X93037643Y-104769867D01*
X92850956Y-104956228D01*
X92564826Y-105645303D01*
X92564175Y-106391423D01*
X92849102Y-107080997D01*
X93037643Y-107269867D01*
X92850956Y-107456228D01*
X92564826Y-108145303D01*
X92564175Y-108891423D01*
X92849102Y-109580997D01*
X93376228Y-110109044D01*
X94065303Y-110395174D01*
X94575506Y-110395619D01*
X94451309Y-111020000D01*
X94639745Y-111967333D01*
X95028737Y-112549500D01*
X91975500Y-112549500D01*
X91975500Y-103634276D01*
X92730612Y-104389388D01*
X92730612Y-104389388D01*
G37*
X92730612Y-104389388D02*
X92784926Y-104425679D01*
X92849102Y-104580997D01*
X93037643Y-104769867D01*
X92850956Y-104956228D01*
X92564826Y-105645303D01*
X92564175Y-106391423D01*
X92849102Y-107080997D01*
X93037643Y-107269867D01*
X92850956Y-107456228D01*
X92564826Y-108145303D01*
X92564175Y-108891423D01*
X92849102Y-109580997D01*
X93376228Y-110109044D01*
X94065303Y-110395174D01*
X94575506Y-110395619D01*
X94451309Y-111020000D01*
X94639745Y-111967333D01*
X95028737Y-112549500D01*
X91975500Y-112549500D01*
X91975500Y-103634276D01*
X92730612Y-104389388D01*
G36*
X175972925Y-112549500D02*
X175467075Y-112549500D01*
X175720000Y-112380501D01*
X175972925Y-112549500D01*
X175972925Y-112549500D01*
G37*
X175972925Y-112549500D02*
X175467075Y-112549500D01*
X175720000Y-112380501D01*
X175972925Y-112549500D01*
G36*
X173432925Y-112549500D02*
X172927075Y-112549500D01*
X173180000Y-112380501D01*
X173432925Y-112549500D01*
X173432925Y-112549500D01*
G37*
X173432925Y-112549500D02*
X172927075Y-112549500D01*
X173180000Y-112380501D01*
X173432925Y-112549500D01*
G36*
X162882993Y-112549500D02*
X162437007Y-112549500D01*
X162660000Y-112400501D01*
X162882993Y-112549500D01*
X162882993Y-112549500D01*
G37*
X162882993Y-112549500D02*
X162437007Y-112549500D01*
X162660000Y-112400501D01*
X162882993Y-112549500D01*
G36*
X160342993Y-112549500D02*
X159897007Y-112549500D01*
X160120000Y-112400501D01*
X160342993Y-112549500D01*
X160342993Y-112549500D01*
G37*
X160342993Y-112549500D02*
X159897007Y-112549500D01*
X160120000Y-112400501D01*
X160342993Y-112549500D01*
G36*
X157802993Y-112549500D02*
X157357007Y-112549500D01*
X157580000Y-112400501D01*
X157802993Y-112549500D01*
X157802993Y-112549500D01*
G37*
X157802993Y-112549500D02*
X157357007Y-112549500D01*
X157580000Y-112400501D01*
X157802993Y-112549500D01*
G36*
X155262993Y-112549500D02*
X154817007Y-112549500D01*
X155040000Y-112400501D01*
X155262993Y-112549500D01*
X155262993Y-112549500D01*
G37*
X155262993Y-112549500D02*
X154817007Y-112549500D01*
X155040000Y-112400501D01*
X155262993Y-112549500D01*
G36*
X152722993Y-112549500D02*
X152277007Y-112549500D01*
X152500000Y-112400501D01*
X152722993Y-112549500D01*
X152722993Y-112549500D01*
G37*
X152722993Y-112549500D02*
X152277007Y-112549500D01*
X152500000Y-112400501D01*
X152722993Y-112549500D01*
G36*
X178512925Y-112549500D02*
X178007075Y-112549500D01*
X178260000Y-112380501D01*
X178512925Y-112549500D01*
X178512925Y-112549500D01*
G37*
X178512925Y-112549500D02*
X178007075Y-112549500D01*
X178260000Y-112380501D01*
X178512925Y-112549500D01*
G36*
X147003458Y-110325647D02*
X146864500Y-111024236D01*
X146864500Y-111095764D01*
X147003458Y-111794353D01*
X147399177Y-112386587D01*
X147642993Y-112549500D01*
X144501973Y-112549500D01*
X144730823Y-112396587D01*
X145126542Y-111804353D01*
X145265500Y-111105764D01*
X145265500Y-111034236D01*
X145126542Y-110335647D01*
X144928128Y-110038700D01*
X147195190Y-110038700D01*
X147003458Y-110325647D01*
X147003458Y-110325647D01*
G37*
X147003458Y-110325647D02*
X146864500Y-111024236D01*
X146864500Y-111095764D01*
X147003458Y-111794353D01*
X147399177Y-112386587D01*
X147642993Y-112549500D01*
X144501973Y-112549500D01*
X144730823Y-112396587D01*
X145126542Y-111804353D01*
X145265500Y-111105764D01*
X145265500Y-111034236D01*
X145126542Y-110335647D01*
X144928128Y-110038700D01*
X147195190Y-110038700D01*
X147003458Y-110325647D01*
G36*
X142378027Y-112549500D02*
X141961973Y-112549500D01*
X142170000Y-112410501D01*
X142378027Y-112549500D01*
X142378027Y-112549500D01*
G37*
X142378027Y-112549500D02*
X141961973Y-112549500D01*
X142170000Y-112410501D01*
X142378027Y-112549500D01*
G36*
X133486533Y-111903467D02*
X133868931Y-112158977D01*
X134026244Y-112190269D01*
X134043410Y-112281499D01*
X134215864Y-112549500D01*
X131511973Y-112549500D01*
X131740823Y-112396587D01*
X132136542Y-111804353D01*
X132275500Y-111105764D01*
X132275500Y-111034236D01*
X132190630Y-110607564D01*
X133486533Y-111903467D01*
X133486533Y-111903467D01*
G37*
X133486533Y-111903467D02*
X133868931Y-112158977D01*
X134026244Y-112190269D01*
X134043410Y-112281499D01*
X134215864Y-112549500D01*
X131511973Y-112549500D01*
X131740823Y-112396587D01*
X132136542Y-111804353D01*
X132275500Y-111105764D01*
X132275500Y-111034236D01*
X132190630Y-110607564D01*
X133486533Y-111903467D01*
G36*
X129388027Y-112549500D02*
X128971973Y-112549500D01*
X129180000Y-112410501D01*
X129388027Y-112549500D01*
X129388027Y-112549500D01*
G37*
X129388027Y-112549500D02*
X128971973Y-112549500D01*
X129180000Y-112410501D01*
X129388027Y-112549500D01*
G36*
X139838027Y-112549500D02*
X139421973Y-112549500D01*
X139630000Y-112410501D01*
X139838027Y-112549500D01*
X139838027Y-112549500D01*
G37*
X139838027Y-112549500D02*
X139421973Y-112549500D01*
X139630000Y-112410501D01*
X139838027Y-112549500D01*
G36*
X124387381Y-104363876D02*
X124913768Y-104582451D01*
X125483731Y-104582948D01*
X125731300Y-104480655D01*
X125731300Y-107650000D01*
X125821023Y-108101069D01*
X126076533Y-108483467D01*
X126086533Y-108493467D01*
X126468931Y-108748977D01*
X126920000Y-108838700D01*
X127206730Y-108838700D01*
X127408041Y-108976250D01*
X127795000Y-109054611D01*
X128545000Y-109054611D01*
X128906499Y-108986590D01*
X129136327Y-108838700D01*
X129968085Y-108838700D01*
X130023041Y-108876250D01*
X130410000Y-108954611D01*
X131841300Y-108954611D01*
X131841300Y-109770000D01*
X131876360Y-109946258D01*
X131740823Y-109743413D01*
X131148589Y-109347694D01*
X130450000Y-109208736D01*
X129751411Y-109347694D01*
X129180000Y-109729499D01*
X128608589Y-109347694D01*
X127910000Y-109208736D01*
X127211411Y-109347694D01*
X126936218Y-109531573D01*
X126932945Y-109526487D01*
X126606959Y-109303750D01*
X126220000Y-109225389D01*
X124520000Y-109225389D01*
X124158501Y-109293410D01*
X123826487Y-109507055D01*
X123603750Y-109833041D01*
X123525389Y-110220000D01*
X123525389Y-111920000D01*
X123593410Y-112281499D01*
X123765864Y-112549500D01*
X120987434Y-112549500D01*
X122963464Y-110573469D01*
X122963467Y-110573467D01*
X123218977Y-110191069D01*
X123308700Y-109740000D01*
X123308700Y-108741681D01*
X123421250Y-108576959D01*
X123499611Y-108190000D01*
X123499611Y-107390000D01*
X123431590Y-107028501D01*
X123431189Y-107027878D01*
X123499611Y-106690000D01*
X123499611Y-105890000D01*
X123490232Y-105840155D01*
X123562451Y-105666232D01*
X123562948Y-105096269D01*
X123345292Y-104569501D01*
X123163843Y-104387735D01*
X123196499Y-104381590D01*
X123349868Y-104282900D01*
X124306546Y-104282900D01*
X124387381Y-104363876D01*
X124387381Y-104363876D01*
G37*
X124387381Y-104363876D02*
X124913768Y-104582451D01*
X125483731Y-104582948D01*
X125731300Y-104480655D01*
X125731300Y-107650000D01*
X125821023Y-108101069D01*
X126076533Y-108483467D01*
X126086533Y-108493467D01*
X126468931Y-108748977D01*
X126920000Y-108838700D01*
X127206730Y-108838700D01*
X127408041Y-108976250D01*
X127795000Y-109054611D01*
X128545000Y-109054611D01*
X128906499Y-108986590D01*
X129136327Y-108838700D01*
X129968085Y-108838700D01*
X130023041Y-108876250D01*
X130410000Y-108954611D01*
X131841300Y-108954611D01*
X131841300Y-109770000D01*
X131876360Y-109946258D01*
X131740823Y-109743413D01*
X131148589Y-109347694D01*
X130450000Y-109208736D01*
X129751411Y-109347694D01*
X129180000Y-109729499D01*
X128608589Y-109347694D01*
X127910000Y-109208736D01*
X127211411Y-109347694D01*
X126936218Y-109531573D01*
X126932945Y-109526487D01*
X126606959Y-109303750D01*
X126220000Y-109225389D01*
X124520000Y-109225389D01*
X124158501Y-109293410D01*
X123826487Y-109507055D01*
X123603750Y-109833041D01*
X123525389Y-110220000D01*
X123525389Y-111920000D01*
X123593410Y-112281499D01*
X123765864Y-112549500D01*
X120987434Y-112549500D01*
X122963464Y-110573469D01*
X122963467Y-110573467D01*
X123218977Y-110191069D01*
X123308700Y-109740000D01*
X123308700Y-108741681D01*
X123421250Y-108576959D01*
X123499611Y-108190000D01*
X123499611Y-107390000D01*
X123431590Y-107028501D01*
X123431189Y-107027878D01*
X123499611Y-106690000D01*
X123499611Y-105890000D01*
X123490232Y-105840155D01*
X123562451Y-105666232D01*
X123562948Y-105096269D01*
X123345292Y-104569501D01*
X123163843Y-104387735D01*
X123196499Y-104381590D01*
X123349868Y-104282900D01*
X124306546Y-104282900D01*
X124387381Y-104363876D01*
G36*
X108211023Y-111381069D02*
X108466533Y-111763467D01*
X109252566Y-112549500D01*
X107358441Y-112549500D01*
X107754999Y-111594482D01*
X107755261Y-111294611D01*
X108050000Y-111294611D01*
X108188637Y-111268525D01*
X108211023Y-111381069D01*
X108211023Y-111381069D01*
G37*
X108211023Y-111381069D02*
X108466533Y-111763467D01*
X109252566Y-112549500D01*
X107358441Y-112549500D01*
X107754999Y-111594482D01*
X107755261Y-111294611D01*
X108050000Y-111294611D01*
X108188637Y-111268525D01*
X108211023Y-111381069D01*
G36*
X103253288Y-108580849D02*
X102443691Y-109389034D01*
X102005001Y-110445518D01*
X102004002Y-111589463D01*
X102400682Y-112549500D01*
X100451263Y-112549500D01*
X100840255Y-111967333D01*
X101028691Y-111020000D01*
X100840255Y-110072667D01*
X100303634Y-109269557D01*
X99946204Y-109030730D01*
X100404510Y-108572424D01*
X100440000Y-108579611D01*
X101240000Y-108579611D01*
X101601499Y-108511590D01*
X101602122Y-108511189D01*
X101940000Y-108579611D01*
X102740000Y-108579611D01*
X103101499Y-108511590D01*
X103292476Y-108388700D01*
X103718323Y-108388700D01*
X103253288Y-108580849D01*
X103253288Y-108580849D01*
G37*
X103253288Y-108580849D02*
X102443691Y-109389034D01*
X102005001Y-110445518D01*
X102004002Y-111589463D01*
X102400682Y-112549500D01*
X100451263Y-112549500D01*
X100840255Y-111967333D01*
X101028691Y-111020000D01*
X100840255Y-110072667D01*
X100303634Y-109269557D01*
X99946204Y-109030730D01*
X100404510Y-108572424D01*
X100440000Y-108579611D01*
X101240000Y-108579611D01*
X101601499Y-108511590D01*
X101602122Y-108511189D01*
X101940000Y-108579611D01*
X102740000Y-108579611D01*
X103101499Y-108511590D01*
X103292476Y-108388700D01*
X103718323Y-108388700D01*
X103253288Y-108580849D01*
G36*
X173194708Y-106260499D02*
X173235332Y-106301194D01*
X173083750Y-106523041D01*
X173005389Y-106910000D01*
X173005389Y-107410000D01*
X173073410Y-107771499D01*
X173161783Y-107908835D01*
X173083750Y-108023041D01*
X173005389Y-108410000D01*
X173005389Y-108910000D01*
X173073410Y-109271499D01*
X173271300Y-109579029D01*
X173271300Y-109638495D01*
X173180000Y-109699499D01*
X172608589Y-109317694D01*
X171910000Y-109178736D01*
X171211411Y-109317694D01*
X170619177Y-109713413D01*
X170223458Y-110305647D01*
X170084500Y-111004236D01*
X170084500Y-111075764D01*
X170223458Y-111774353D01*
X170619177Y-112366587D01*
X170892925Y-112549500D01*
X168063696Y-112549500D01*
X168236250Y-112296959D01*
X168314611Y-111910000D01*
X168314611Y-110210000D01*
X168246590Y-109848501D01*
X168032945Y-109516487D01*
X167706959Y-109293750D01*
X167648700Y-109281952D01*
X167648700Y-108400000D01*
X167558977Y-107948931D01*
X167303467Y-107566533D01*
X165855634Y-106118700D01*
X172330000Y-106118700D01*
X172781069Y-106028977D01*
X173030250Y-105862480D01*
X173194708Y-106260499D01*
X173194708Y-106260499D01*
G37*
X173194708Y-106260499D02*
X173235332Y-106301194D01*
X173083750Y-106523041D01*
X173005389Y-106910000D01*
X173005389Y-107410000D01*
X173073410Y-107771499D01*
X173161783Y-107908835D01*
X173083750Y-108023041D01*
X173005389Y-108410000D01*
X173005389Y-108910000D01*
X173073410Y-109271499D01*
X173271300Y-109579029D01*
X173271300Y-109638495D01*
X173180000Y-109699499D01*
X172608589Y-109317694D01*
X171910000Y-109178736D01*
X171211411Y-109317694D01*
X170619177Y-109713413D01*
X170223458Y-110305647D01*
X170084500Y-111004236D01*
X170084500Y-111075764D01*
X170223458Y-111774353D01*
X170619177Y-112366587D01*
X170892925Y-112549500D01*
X168063696Y-112549500D01*
X168236250Y-112296959D01*
X168314611Y-111910000D01*
X168314611Y-110210000D01*
X168246590Y-109848501D01*
X168032945Y-109516487D01*
X167706959Y-109293750D01*
X167648700Y-109281952D01*
X167648700Y-108400000D01*
X167558977Y-107948931D01*
X167303467Y-107566533D01*
X165855634Y-106118700D01*
X172330000Y-106118700D01*
X172781069Y-106028977D01*
X173030250Y-105862480D01*
X173194708Y-106260499D01*
G36*
X188949500Y-62199776D02*
X188949500Y-65432925D01*
X188766587Y-65159177D01*
X188174353Y-64763458D01*
X187475764Y-64624500D01*
X187404236Y-64624500D01*
X186705647Y-64763458D01*
X186471558Y-64919872D01*
X186462945Y-64906487D01*
X186136959Y-64683750D01*
X185750000Y-64605389D01*
X184050000Y-64605389D01*
X183688501Y-64673410D01*
X183356487Y-64887055D01*
X183133750Y-65213041D01*
X183055389Y-65600000D01*
X183055389Y-67300000D01*
X183123410Y-67661499D01*
X183337055Y-67993513D01*
X183364303Y-68012131D01*
X183177694Y-68291411D01*
X183038736Y-68990000D01*
X183177694Y-69688589D01*
X183559499Y-70260000D01*
X183177694Y-70831411D01*
X183038736Y-71530000D01*
X183177694Y-72228589D01*
X183573413Y-72820823D01*
X184165647Y-73216542D01*
X184864236Y-73355500D01*
X184935764Y-73355500D01*
X185634353Y-73216542D01*
X186170000Y-72858633D01*
X186705647Y-73216542D01*
X187404236Y-73355500D01*
X187475764Y-73355500D01*
X188174353Y-73216542D01*
X188766587Y-72820823D01*
X188949500Y-72547075D01*
X188949500Y-72950000D01*
X189027562Y-73342442D01*
X189220416Y-73631069D01*
X189249862Y-73675138D01*
X191499500Y-75924776D01*
X191499500Y-109350224D01*
X190295899Y-110553825D01*
X190295998Y-110440537D01*
X189859151Y-109383288D01*
X189050966Y-108573691D01*
X187994482Y-108135001D01*
X186850537Y-108134002D01*
X185793288Y-108570849D01*
X184983691Y-109379034D01*
X184545001Y-110435518D01*
X184544002Y-111579463D01*
X184944814Y-112549500D01*
X183650030Y-112549500D01*
X183836250Y-112276959D01*
X183914611Y-111890000D01*
X183914611Y-110190000D01*
X183846590Y-109828501D01*
X183632945Y-109496487D01*
X183405911Y-109341361D01*
X183436250Y-109296959D01*
X183514611Y-108910000D01*
X183514611Y-108410000D01*
X183446590Y-108048501D01*
X183358217Y-107911165D01*
X183436250Y-107796959D01*
X183514611Y-107410000D01*
X183514611Y-106910000D01*
X183446590Y-106548501D01*
X183248700Y-106240971D01*
X183248700Y-106117751D01*
X183273876Y-106092619D01*
X183492451Y-105566232D01*
X183492948Y-104996269D01*
X183275292Y-104469501D01*
X182872619Y-104066124D01*
X182346232Y-103847549D01*
X181776269Y-103847052D01*
X181249501Y-104064708D01*
X180846124Y-104467381D01*
X180803429Y-104570203D01*
X180745292Y-104429501D01*
X180342619Y-104026124D01*
X179816232Y-103807549D01*
X179246269Y-103807052D01*
X178719501Y-104024708D01*
X178316124Y-104427381D01*
X178224385Y-104648314D01*
X178175292Y-104529501D01*
X177772619Y-104126124D01*
X177246232Y-103907549D01*
X176676269Y-103907052D01*
X176149501Y-104124708D01*
X175746124Y-104527381D01*
X175662338Y-104729160D01*
X175625292Y-104639501D01*
X175222619Y-104236124D01*
X174853911Y-104083023D01*
X180646934Y-98290000D01*
X183048736Y-98290000D01*
X183187694Y-98988589D01*
X183569499Y-99560000D01*
X183187694Y-100131411D01*
X183048736Y-100830000D01*
X183187694Y-101528589D01*
X183569499Y-102100000D01*
X183187694Y-102671411D01*
X183048736Y-103370000D01*
X183187694Y-104068589D01*
X183583413Y-104660823D01*
X184175647Y-105056542D01*
X184874236Y-105195500D01*
X184945764Y-105195500D01*
X185644353Y-105056542D01*
X186180000Y-104698633D01*
X186715647Y-105056542D01*
X187414236Y-105195500D01*
X187485764Y-105195500D01*
X188184353Y-105056542D01*
X188776587Y-104660823D01*
X189172306Y-104068589D01*
X189311264Y-103370000D01*
X189172306Y-102671411D01*
X188790501Y-102100000D01*
X189172306Y-101528589D01*
X189311264Y-100830000D01*
X189172306Y-100131411D01*
X188790501Y-99560000D01*
X189172306Y-98988589D01*
X189311264Y-98290000D01*
X189172306Y-97591411D01*
X188790501Y-97020000D01*
X189172306Y-96448589D01*
X189311264Y-95750000D01*
X189172306Y-95051411D01*
X188776587Y-94459177D01*
X188184353Y-94063458D01*
X187485764Y-93924500D01*
X187414236Y-93924500D01*
X186715647Y-94063458D01*
X186481558Y-94219872D01*
X186472945Y-94206487D01*
X186146959Y-93983750D01*
X185760000Y-93905389D01*
X184060000Y-93905389D01*
X183698501Y-93973410D01*
X183366487Y-94187055D01*
X183143750Y-94513041D01*
X183065389Y-94900000D01*
X183065389Y-96600000D01*
X183133410Y-96961499D01*
X183347055Y-97293513D01*
X183374303Y-97312131D01*
X183187694Y-97591411D01*
X183048736Y-98290000D01*
X180646934Y-98290000D01*
X181913467Y-97023467D01*
X182168977Y-96641069D01*
X182258701Y-96190000D01*
X182258700Y-96189995D01*
X182258700Y-91950000D01*
X182168977Y-91498931D01*
X182007980Y-91257981D01*
X182313876Y-90952619D01*
X182532451Y-90426232D01*
X182532948Y-89856269D01*
X182315292Y-89329501D01*
X181912619Y-88926124D01*
X181386232Y-88707549D01*
X180816269Y-88707052D01*
X180579611Y-88804837D01*
X180579611Y-88585000D01*
X180514262Y-88237703D01*
X180579611Y-87915000D01*
X180579611Y-87315000D01*
X180511590Y-86953501D01*
X180297945Y-86621487D01*
X179988700Y-86410189D01*
X179988700Y-79060000D01*
X179898977Y-78608931D01*
X179643467Y-78226533D01*
X179436934Y-78020000D01*
X183038736Y-78020000D01*
X183177694Y-78718589D01*
X183559499Y-79290000D01*
X183177694Y-79861411D01*
X183038736Y-80560000D01*
X183177694Y-81258589D01*
X183559499Y-81830000D01*
X183177694Y-82401411D01*
X183038736Y-83100000D01*
X183177694Y-83798589D01*
X183559499Y-84370000D01*
X183177694Y-84941411D01*
X183038736Y-85640000D01*
X183177694Y-86338589D01*
X183559499Y-86910000D01*
X183177694Y-87481411D01*
X183038736Y-88180000D01*
X183177694Y-88878589D01*
X183559499Y-89450000D01*
X183177694Y-90021411D01*
X183038736Y-90720000D01*
X183177694Y-91418589D01*
X183573413Y-92010823D01*
X184165647Y-92406542D01*
X184864236Y-92545500D01*
X184935764Y-92545500D01*
X185634353Y-92406542D01*
X186170000Y-92048633D01*
X186705647Y-92406542D01*
X187404236Y-92545500D01*
X187475764Y-92545500D01*
X188174353Y-92406542D01*
X188766587Y-92010823D01*
X189162306Y-91418589D01*
X189301264Y-90720000D01*
X189162306Y-90021411D01*
X188780501Y-89450000D01*
X189162306Y-88878589D01*
X189301264Y-88180000D01*
X189162306Y-87481411D01*
X188780501Y-86910000D01*
X189162306Y-86338589D01*
X189301264Y-85640000D01*
X189162306Y-84941411D01*
X188780501Y-84370000D01*
X189162306Y-83798589D01*
X189301264Y-83100000D01*
X189162306Y-82401411D01*
X188780501Y-81830000D01*
X189162306Y-81258589D01*
X189301264Y-80560000D01*
X189162306Y-79861411D01*
X188780501Y-79290000D01*
X189162306Y-78718589D01*
X189301264Y-78020000D01*
X189162306Y-77321411D01*
X188780501Y-76750000D01*
X189162306Y-76178589D01*
X189301264Y-75480000D01*
X189162306Y-74781411D01*
X188766587Y-74189177D01*
X188174353Y-73793458D01*
X187475764Y-73654500D01*
X187404236Y-73654500D01*
X186705647Y-73793458D01*
X186471558Y-73949872D01*
X186462945Y-73936487D01*
X186136959Y-73713750D01*
X185750000Y-73635389D01*
X184050000Y-73635389D01*
X183688501Y-73703410D01*
X183356487Y-73917055D01*
X183133750Y-74243041D01*
X183055389Y-74630000D01*
X183055389Y-76330000D01*
X183123410Y-76691499D01*
X183337055Y-77023513D01*
X183364303Y-77042131D01*
X183177694Y-77321411D01*
X183038736Y-78020000D01*
X179436934Y-78020000D01*
X178813467Y-77396533D01*
X178431069Y-77141023D01*
X177980000Y-77051300D01*
X177211447Y-77051300D01*
X176936959Y-76863750D01*
X176550000Y-76785389D01*
X176050000Y-76785389D01*
X176004294Y-76793989D01*
X176166250Y-76556959D01*
X176240084Y-76192353D01*
X176350000Y-76214611D01*
X177250000Y-76214611D01*
X177611499Y-76146590D01*
X177841327Y-75998700D01*
X178570000Y-75998700D01*
X179021069Y-75908977D01*
X179403467Y-75653467D01*
X179863467Y-75193467D01*
X180118977Y-74811069D01*
X180208700Y-74360000D01*
X180208700Y-65527597D01*
X180515518Y-65654999D01*
X181659463Y-65655998D01*
X182716712Y-65219151D01*
X183526309Y-64410966D01*
X183964999Y-63354482D01*
X183965998Y-62210537D01*
X183579648Y-61275500D01*
X188025224Y-61275500D01*
X188949500Y-62199776D01*
X188949500Y-62199776D01*
G37*
X188949500Y-62199776D02*
X188949500Y-65432925D01*
X188766587Y-65159177D01*
X188174353Y-64763458D01*
X187475764Y-64624500D01*
X187404236Y-64624500D01*
X186705647Y-64763458D01*
X186471558Y-64919872D01*
X186462945Y-64906487D01*
X186136959Y-64683750D01*
X185750000Y-64605389D01*
X184050000Y-64605389D01*
X183688501Y-64673410D01*
X183356487Y-64887055D01*
X183133750Y-65213041D01*
X183055389Y-65600000D01*
X183055389Y-67300000D01*
X183123410Y-67661499D01*
X183337055Y-67993513D01*
X183364303Y-68012131D01*
X183177694Y-68291411D01*
X183038736Y-68990000D01*
X183177694Y-69688589D01*
X183559499Y-70260000D01*
X183177694Y-70831411D01*
X183038736Y-71530000D01*
X183177694Y-72228589D01*
X183573413Y-72820823D01*
X184165647Y-73216542D01*
X184864236Y-73355500D01*
X184935764Y-73355500D01*
X185634353Y-73216542D01*
X186170000Y-72858633D01*
X186705647Y-73216542D01*
X187404236Y-73355500D01*
X187475764Y-73355500D01*
X188174353Y-73216542D01*
X188766587Y-72820823D01*
X188949500Y-72547075D01*
X188949500Y-72950000D01*
X189027562Y-73342442D01*
X189220416Y-73631069D01*
X189249862Y-73675138D01*
X191499500Y-75924776D01*
X191499500Y-109350224D01*
X190295899Y-110553825D01*
X190295998Y-110440537D01*
X189859151Y-109383288D01*
X189050966Y-108573691D01*
X187994482Y-108135001D01*
X186850537Y-108134002D01*
X185793288Y-108570849D01*
X184983691Y-109379034D01*
X184545001Y-110435518D01*
X184544002Y-111579463D01*
X184944814Y-112549500D01*
X183650030Y-112549500D01*
X183836250Y-112276959D01*
X183914611Y-111890000D01*
X183914611Y-110190000D01*
X183846590Y-109828501D01*
X183632945Y-109496487D01*
X183405911Y-109341361D01*
X183436250Y-109296959D01*
X183514611Y-108910000D01*
X183514611Y-108410000D01*
X183446590Y-108048501D01*
X183358217Y-107911165D01*
X183436250Y-107796959D01*
X183514611Y-107410000D01*
X183514611Y-106910000D01*
X183446590Y-106548501D01*
X183248700Y-106240971D01*
X183248700Y-106117751D01*
X183273876Y-106092619D01*
X183492451Y-105566232D01*
X183492948Y-104996269D01*
X183275292Y-104469501D01*
X182872619Y-104066124D01*
X182346232Y-103847549D01*
X181776269Y-103847052D01*
X181249501Y-104064708D01*
X180846124Y-104467381D01*
X180803429Y-104570203D01*
X180745292Y-104429501D01*
X180342619Y-104026124D01*
X179816232Y-103807549D01*
X179246269Y-103807052D01*
X178719501Y-104024708D01*
X178316124Y-104427381D01*
X178224385Y-104648314D01*
X178175292Y-104529501D01*
X177772619Y-104126124D01*
X177246232Y-103907549D01*
X176676269Y-103907052D01*
X176149501Y-104124708D01*
X175746124Y-104527381D01*
X175662338Y-104729160D01*
X175625292Y-104639501D01*
X175222619Y-104236124D01*
X174853911Y-104083023D01*
X180646934Y-98290000D01*
X183048736Y-98290000D01*
X183187694Y-98988589D01*
X183569499Y-99560000D01*
X183187694Y-100131411D01*
X183048736Y-100830000D01*
X183187694Y-101528589D01*
X183569499Y-102100000D01*
X183187694Y-102671411D01*
X183048736Y-103370000D01*
X183187694Y-104068589D01*
X183583413Y-104660823D01*
X184175647Y-105056542D01*
X184874236Y-105195500D01*
X184945764Y-105195500D01*
X185644353Y-105056542D01*
X186180000Y-104698633D01*
X186715647Y-105056542D01*
X187414236Y-105195500D01*
X187485764Y-105195500D01*
X188184353Y-105056542D01*
X188776587Y-104660823D01*
X189172306Y-104068589D01*
X189311264Y-103370000D01*
X189172306Y-102671411D01*
X188790501Y-102100000D01*
X189172306Y-101528589D01*
X189311264Y-100830000D01*
X189172306Y-100131411D01*
X188790501Y-99560000D01*
X189172306Y-98988589D01*
X189311264Y-98290000D01*
X189172306Y-97591411D01*
X188790501Y-97020000D01*
X189172306Y-96448589D01*
X189311264Y-95750000D01*
X189172306Y-95051411D01*
X188776587Y-94459177D01*
X188184353Y-94063458D01*
X187485764Y-93924500D01*
X187414236Y-93924500D01*
X186715647Y-94063458D01*
X186481558Y-94219872D01*
X186472945Y-94206487D01*
X186146959Y-93983750D01*
X185760000Y-93905389D01*
X184060000Y-93905389D01*
X183698501Y-93973410D01*
X183366487Y-94187055D01*
X183143750Y-94513041D01*
X183065389Y-94900000D01*
X183065389Y-96600000D01*
X183133410Y-96961499D01*
X183347055Y-97293513D01*
X183374303Y-97312131D01*
X183187694Y-97591411D01*
X183048736Y-98290000D01*
X180646934Y-98290000D01*
X181913467Y-97023467D01*
X182168977Y-96641069D01*
X182258701Y-96190000D01*
X182258700Y-96189995D01*
X182258700Y-91950000D01*
X182168977Y-91498931D01*
X182007980Y-91257981D01*
X182313876Y-90952619D01*
X182532451Y-90426232D01*
X182532948Y-89856269D01*
X182315292Y-89329501D01*
X181912619Y-88926124D01*
X181386232Y-88707549D01*
X180816269Y-88707052D01*
X180579611Y-88804837D01*
X180579611Y-88585000D01*
X180514262Y-88237703D01*
X180579611Y-87915000D01*
X180579611Y-87315000D01*
X180511590Y-86953501D01*
X180297945Y-86621487D01*
X179988700Y-86410189D01*
X179988700Y-79060000D01*
X179898977Y-78608931D01*
X179643467Y-78226533D01*
X179436934Y-78020000D01*
X183038736Y-78020000D01*
X183177694Y-78718589D01*
X183559499Y-79290000D01*
X183177694Y-79861411D01*
X183038736Y-80560000D01*
X183177694Y-81258589D01*
X183559499Y-81830000D01*
X183177694Y-82401411D01*
X183038736Y-83100000D01*
X183177694Y-83798589D01*
X183559499Y-84370000D01*
X183177694Y-84941411D01*
X183038736Y-85640000D01*
X183177694Y-86338589D01*
X183559499Y-86910000D01*
X183177694Y-87481411D01*
X183038736Y-88180000D01*
X183177694Y-88878589D01*
X183559499Y-89450000D01*
X183177694Y-90021411D01*
X183038736Y-90720000D01*
X183177694Y-91418589D01*
X183573413Y-92010823D01*
X184165647Y-92406542D01*
X184864236Y-92545500D01*
X184935764Y-92545500D01*
X185634353Y-92406542D01*
X186170000Y-92048633D01*
X186705647Y-92406542D01*
X187404236Y-92545500D01*
X187475764Y-92545500D01*
X188174353Y-92406542D01*
X188766587Y-92010823D01*
X189162306Y-91418589D01*
X189301264Y-90720000D01*
X189162306Y-90021411D01*
X188780501Y-89450000D01*
X189162306Y-88878589D01*
X189301264Y-88180000D01*
X189162306Y-87481411D01*
X188780501Y-86910000D01*
X189162306Y-86338589D01*
X189301264Y-85640000D01*
X189162306Y-84941411D01*
X188780501Y-84370000D01*
X189162306Y-83798589D01*
X189301264Y-83100000D01*
X189162306Y-82401411D01*
X188780501Y-81830000D01*
X189162306Y-81258589D01*
X189301264Y-80560000D01*
X189162306Y-79861411D01*
X188780501Y-79290000D01*
X189162306Y-78718589D01*
X189301264Y-78020000D01*
X189162306Y-77321411D01*
X188780501Y-76750000D01*
X189162306Y-76178589D01*
X189301264Y-75480000D01*
X189162306Y-74781411D01*
X188766587Y-74189177D01*
X188174353Y-73793458D01*
X187475764Y-73654500D01*
X187404236Y-73654500D01*
X186705647Y-73793458D01*
X186471558Y-73949872D01*
X186462945Y-73936487D01*
X186136959Y-73713750D01*
X185750000Y-73635389D01*
X184050000Y-73635389D01*
X183688501Y-73703410D01*
X183356487Y-73917055D01*
X183133750Y-74243041D01*
X183055389Y-74630000D01*
X183055389Y-76330000D01*
X183123410Y-76691499D01*
X183337055Y-77023513D01*
X183364303Y-77042131D01*
X183177694Y-77321411D01*
X183038736Y-78020000D01*
X179436934Y-78020000D01*
X178813467Y-77396533D01*
X178431069Y-77141023D01*
X177980000Y-77051300D01*
X177211447Y-77051300D01*
X176936959Y-76863750D01*
X176550000Y-76785389D01*
X176050000Y-76785389D01*
X176004294Y-76793989D01*
X176166250Y-76556959D01*
X176240084Y-76192353D01*
X176350000Y-76214611D01*
X177250000Y-76214611D01*
X177611499Y-76146590D01*
X177841327Y-75998700D01*
X178570000Y-75998700D01*
X179021069Y-75908977D01*
X179403467Y-75653467D01*
X179863467Y-75193467D01*
X180118977Y-74811069D01*
X180208700Y-74360000D01*
X180208700Y-65527597D01*
X180515518Y-65654999D01*
X181659463Y-65655998D01*
X182716712Y-65219151D01*
X183526309Y-64410966D01*
X183964999Y-63354482D01*
X183965998Y-62210537D01*
X183579648Y-61275500D01*
X188025224Y-61275500D01*
X188949500Y-62199776D01*
G36*
X120697549Y-105093768D02*
X120697052Y-105663731D01*
X120770307Y-105841022D01*
X120760389Y-105890000D01*
X120760389Y-106690000D01*
X120828410Y-107051499D01*
X120828811Y-107052122D01*
X120760389Y-107390000D01*
X120760389Y-108190000D01*
X120828410Y-108551499D01*
X120951300Y-108742476D01*
X120951300Y-109251767D01*
X119401766Y-110801300D01*
X114138700Y-110801300D01*
X114138700Y-110625479D01*
X114204611Y-110300000D01*
X114204611Y-109400000D01*
X114136590Y-109038501D01*
X113922945Y-108706487D01*
X113596959Y-108483750D01*
X113335994Y-108430903D01*
X113571499Y-108386590D01*
X113807679Y-108234613D01*
X114136533Y-108563467D01*
X114518931Y-108818977D01*
X114970000Y-108908701D01*
X114970005Y-108908700D01*
X115466730Y-108908700D01*
X115668041Y-109046250D01*
X116055000Y-109124611D01*
X116805000Y-109124611D01*
X117166499Y-109056590D01*
X117396327Y-108908700D01*
X118330000Y-108908700D01*
X118781069Y-108818977D01*
X119163467Y-108563467D01*
X120093464Y-107633469D01*
X120093467Y-107633467D01*
X120348977Y-107251069D01*
X120354898Y-107221300D01*
X120438701Y-106800000D01*
X120438700Y-106799995D01*
X120438700Y-105268234D01*
X120757469Y-104949465D01*
X120697549Y-105093768D01*
X120697549Y-105093768D01*
G37*
X120697549Y-105093768D02*
X120697052Y-105663731D01*
X120770307Y-105841022D01*
X120760389Y-105890000D01*
X120760389Y-106690000D01*
X120828410Y-107051499D01*
X120828811Y-107052122D01*
X120760389Y-107390000D01*
X120760389Y-108190000D01*
X120828410Y-108551499D01*
X120951300Y-108742476D01*
X120951300Y-109251767D01*
X119401766Y-110801300D01*
X114138700Y-110801300D01*
X114138700Y-110625479D01*
X114204611Y-110300000D01*
X114204611Y-109400000D01*
X114136590Y-109038501D01*
X113922945Y-108706487D01*
X113596959Y-108483750D01*
X113335994Y-108430903D01*
X113571499Y-108386590D01*
X113807679Y-108234613D01*
X114136533Y-108563467D01*
X114518931Y-108818977D01*
X114970000Y-108908701D01*
X114970005Y-108908700D01*
X115466730Y-108908700D01*
X115668041Y-109046250D01*
X116055000Y-109124611D01*
X116805000Y-109124611D01*
X117166499Y-109056590D01*
X117396327Y-108908700D01*
X118330000Y-108908700D01*
X118781069Y-108818977D01*
X119163467Y-108563467D01*
X120093464Y-107633469D01*
X120093467Y-107633467D01*
X120348977Y-107251069D01*
X120354898Y-107221300D01*
X120438701Y-106800000D01*
X120438700Y-106799995D01*
X120438700Y-105268234D01*
X120757469Y-104949465D01*
X120697549Y-105093768D01*
G36*
X160211300Y-109498233D02*
X160211300Y-109658495D01*
X160120000Y-109719499D01*
X159548589Y-109337694D01*
X158850000Y-109198736D01*
X158151411Y-109337694D01*
X157580000Y-109719499D01*
X157488700Y-109658495D01*
X157488700Y-109270005D01*
X157488701Y-109270000D01*
X157398977Y-108818931D01*
X157355266Y-108753513D01*
X157352050Y-108748700D01*
X159461766Y-108748700D01*
X160211300Y-109498233D01*
X160211300Y-109498233D01*
G37*
X160211300Y-109498233D02*
X160211300Y-109658495D01*
X160120000Y-109719499D01*
X159548589Y-109337694D01*
X158850000Y-109198736D01*
X158151411Y-109337694D01*
X157580000Y-109719499D01*
X157488700Y-109658495D01*
X157488700Y-109270005D01*
X157488701Y-109270000D01*
X157398977Y-108818931D01*
X157355266Y-108753513D01*
X157352050Y-108748700D01*
X159461766Y-108748700D01*
X160211300Y-109498233D01*
G36*
X165291300Y-108888234D02*
X165291300Y-109277238D01*
X165258501Y-109283410D01*
X164926487Y-109497055D01*
X164907869Y-109524303D01*
X164628589Y-109337694D01*
X163930000Y-109198736D01*
X163231411Y-109337694D01*
X162660000Y-109719499D01*
X162568700Y-109658495D01*
X162568700Y-109010005D01*
X162568701Y-109010000D01*
X162478977Y-108558931D01*
X162474011Y-108551499D01*
X162223467Y-108176533D01*
X162223464Y-108176531D01*
X161595633Y-107548700D01*
X163951766Y-107548700D01*
X165291300Y-108888234D01*
X165291300Y-108888234D01*
G37*
X165291300Y-108888234D02*
X165291300Y-109277238D01*
X165258501Y-109283410D01*
X164926487Y-109497055D01*
X164907869Y-109524303D01*
X164628589Y-109337694D01*
X163930000Y-109198736D01*
X163231411Y-109337694D01*
X162660000Y-109719499D01*
X162568700Y-109658495D01*
X162568700Y-109010005D01*
X162568701Y-109010000D01*
X162478977Y-108558931D01*
X162474011Y-108551499D01*
X162223467Y-108176533D01*
X162223464Y-108176531D01*
X161595633Y-107548700D01*
X163951766Y-107548700D01*
X165291300Y-108888234D01*
G36*
X175811300Y-109579029D02*
X175811300Y-109638495D01*
X175720000Y-109699499D01*
X175628700Y-109638495D01*
X175628700Y-109571447D01*
X175720226Y-109437495D01*
X175811300Y-109579029D01*
X175811300Y-109579029D01*
G37*
X175811300Y-109579029D02*
X175811300Y-109638495D01*
X175720000Y-109699499D01*
X175628700Y-109638495D01*
X175628700Y-109571447D01*
X175720226Y-109437495D01*
X175811300Y-109579029D01*
G36*
X178351300Y-109579029D02*
X178351300Y-109638495D01*
X178260000Y-109699499D01*
X178168700Y-109638495D01*
X178168700Y-109571447D01*
X178260226Y-109437495D01*
X178351300Y-109579029D01*
X178351300Y-109579029D01*
G37*
X178351300Y-109579029D02*
X178351300Y-109638495D01*
X178260000Y-109699499D01*
X178168700Y-109638495D01*
X178168700Y-109571447D01*
X178260226Y-109437495D01*
X178351300Y-109579029D01*
G36*
X109241300Y-107740000D02*
X109331023Y-108191069D01*
X109474227Y-108405389D01*
X109050000Y-108405389D01*
X108898355Y-108433923D01*
X108978700Y-108030000D01*
X108978700Y-105899611D01*
X109241300Y-105899611D01*
X109241300Y-107740000D01*
X109241300Y-107740000D01*
G37*
X109241300Y-107740000D02*
X109331023Y-108191069D01*
X109474227Y-108405389D01*
X109050000Y-108405389D01*
X108898355Y-108433923D01*
X108978700Y-108030000D01*
X108978700Y-105899611D01*
X109241300Y-105899611D01*
X109241300Y-107740000D01*
G36*
X112584006Y-108429097D02*
X112561724Y-108433289D01*
X112559920Y-108424219D01*
X112584006Y-108429097D01*
X112584006Y-108429097D01*
G37*
X112584006Y-108429097D02*
X112561724Y-108433289D01*
X112559920Y-108424219D01*
X112584006Y-108429097D01*
G36*
X100182263Y-105888886D02*
X100078501Y-105908410D01*
X99792458Y-106092473D01*
X99648931Y-106121023D01*
X99266533Y-106376533D01*
X98301766Y-107341300D01*
X95913400Y-107341300D01*
X95842357Y-107270133D01*
X95913915Y-107198700D01*
X96940000Y-107198700D01*
X97391069Y-107108977D01*
X97773467Y-106853467D01*
X98918234Y-105708700D01*
X99918553Y-105708700D01*
X100182263Y-105888886D01*
X100182263Y-105888886D01*
G37*
X100182263Y-105888886D02*
X100078501Y-105908410D01*
X99792458Y-106092473D01*
X99648931Y-106121023D01*
X99266533Y-106376533D01*
X98301766Y-107341300D01*
X95913400Y-107341300D01*
X95842357Y-107270133D01*
X95913915Y-107198700D01*
X96940000Y-107198700D01*
X97391069Y-107108977D01*
X97773467Y-106853467D01*
X98918234Y-105708700D01*
X99918553Y-105708700D01*
X100182263Y-105888886D01*
G36*
X118081300Y-106311767D02*
X117841766Y-106551300D01*
X117799611Y-106551300D01*
X117799611Y-105830000D01*
X117776787Y-105708700D01*
X118000000Y-105708700D01*
X118081300Y-105692528D01*
X118081300Y-106311767D01*
X118081300Y-106311767D01*
G37*
X118081300Y-106311767D02*
X117841766Y-106551300D01*
X117799611Y-106551300D01*
X117799611Y-105830000D01*
X117776787Y-105708700D01*
X118000000Y-105708700D01*
X118081300Y-105692528D01*
X118081300Y-106311767D01*
G36*
X141190000Y-101658700D02*
X142236730Y-101658700D01*
X142438041Y-101796250D01*
X142825000Y-101874611D01*
X143575000Y-101874611D01*
X143831300Y-101826385D01*
X143831300Y-103440000D01*
X143921023Y-103891069D01*
X143947904Y-103931300D01*
X143310000Y-103931300D01*
X142858931Y-104021023D01*
X142476533Y-104276533D01*
X141736533Y-105016533D01*
X141481023Y-105398931D01*
X141391300Y-105850000D01*
X141391300Y-106341766D01*
X141251766Y-106481300D01*
X140115634Y-106481300D01*
X140603464Y-105993469D01*
X140603467Y-105993467D01*
X140858977Y-105611069D01*
X140948700Y-105160000D01*
X140948700Y-101610703D01*
X141190000Y-101658700D01*
X141190000Y-101658700D01*
G37*
X141190000Y-101658700D02*
X142236730Y-101658700D01*
X142438041Y-101796250D01*
X142825000Y-101874611D01*
X143575000Y-101874611D01*
X143831300Y-101826385D01*
X143831300Y-103440000D01*
X143921023Y-103891069D01*
X143947904Y-103931300D01*
X143310000Y-103931300D01*
X142858931Y-104021023D01*
X142476533Y-104276533D01*
X141736533Y-105016533D01*
X141481023Y-105398931D01*
X141391300Y-105850000D01*
X141391300Y-106341766D01*
X141251766Y-106481300D01*
X140115634Y-106481300D01*
X140603464Y-105993469D01*
X140603467Y-105993467D01*
X140858977Y-105611069D01*
X140948700Y-105160000D01*
X140948700Y-101610703D01*
X141190000Y-101658700D01*
G36*
X106621300Y-106428243D02*
X106605292Y-106389501D01*
X106202619Y-105986124D01*
X105994273Y-105899611D01*
X106020000Y-105899611D01*
X106381499Y-105831590D01*
X106572476Y-105708700D01*
X106621300Y-105708700D01*
X106621300Y-106428243D01*
X106621300Y-106428243D01*
G37*
X106621300Y-106428243D02*
X106605292Y-106389501D01*
X106202619Y-105986124D01*
X105994273Y-105899611D01*
X106020000Y-105899611D01*
X106381499Y-105831590D01*
X106572476Y-105708700D01*
X106621300Y-105708700D01*
X106621300Y-106428243D01*
G36*
X175744708Y-106150499D02*
X175811300Y-106217207D01*
X175811300Y-106248553D01*
X175719774Y-106382505D01*
X175631231Y-106244905D01*
X175707662Y-106060840D01*
X175744708Y-106150499D01*
X175744708Y-106150499D01*
G37*
X175744708Y-106150499D02*
X175811300Y-106217207D01*
X175811300Y-106248553D01*
X175719774Y-106382505D01*
X175631231Y-106244905D01*
X175707662Y-106060840D01*
X175744708Y-106150499D01*
G36*
X180844708Y-106090499D02*
X180891300Y-106137172D01*
X180891300Y-106248553D01*
X180799774Y-106382505D01*
X180708700Y-106240971D01*
X180708700Y-106087734D01*
X180743876Y-106052619D01*
X180786571Y-105949797D01*
X180844708Y-106090499D01*
X180844708Y-106090499D01*
G37*
X180844708Y-106090499D02*
X180891300Y-106137172D01*
X180891300Y-106248553D01*
X180799774Y-106382505D01*
X180708700Y-106240971D01*
X180708700Y-106087734D01*
X180743876Y-106052619D01*
X180786571Y-105949797D01*
X180844708Y-106090499D01*
G36*
X178314708Y-106050499D02*
X178351300Y-106087155D01*
X178351300Y-106248553D01*
X178259774Y-106382505D01*
X178168700Y-106240971D01*
X178168700Y-106157786D01*
X178173876Y-106152619D01*
X178265615Y-105931686D01*
X178314708Y-106050499D01*
X178314708Y-106050499D01*
G37*
X178314708Y-106050499D02*
X178351300Y-106087155D01*
X178351300Y-106248553D01*
X178259774Y-106382505D01*
X178168700Y-106240971D01*
X178168700Y-106157786D01*
X178173876Y-106152619D01*
X178265615Y-105931686D01*
X178314708Y-106050499D01*
G36*
X115060389Y-105837323D02*
X115060389Y-106161113D01*
X114701069Y-105921023D01*
X114250000Y-105831300D01*
X113871447Y-105831300D01*
X113773018Y-105764046D01*
X113859029Y-105708700D01*
X114931766Y-105708700D01*
X115060389Y-105837323D01*
X115060389Y-105837323D01*
G37*
X115060389Y-105837323D02*
X115060389Y-106161113D01*
X114701069Y-105921023D01*
X114250000Y-105831300D01*
X113871447Y-105831300D01*
X113773018Y-105764046D01*
X113859029Y-105708700D01*
X114931766Y-105708700D01*
X115060389Y-105837323D01*
G36*
X103333041Y-105821250D02*
X103720000Y-105899611D01*
X104520000Y-105899611D01*
X104881499Y-105831590D01*
X104882122Y-105831189D01*
X104928376Y-105840556D01*
X104579501Y-105984708D01*
X104532828Y-106031300D01*
X103291681Y-106031300D01*
X103126959Y-105918750D01*
X102971519Y-105887273D01*
X103207464Y-105735447D01*
X103333041Y-105821250D01*
X103333041Y-105821250D01*
G37*
X103333041Y-105821250D02*
X103720000Y-105899611D01*
X104520000Y-105899611D01*
X104881499Y-105831590D01*
X104882122Y-105831189D01*
X104928376Y-105840556D01*
X104579501Y-105984708D01*
X104532828Y-106031300D01*
X103291681Y-106031300D01*
X103126959Y-105918750D01*
X102971519Y-105887273D01*
X103207464Y-105735447D01*
X103333041Y-105821250D01*
G36*
X101682263Y-105888886D02*
X101578501Y-105908410D01*
X101577878Y-105908811D01*
X101471519Y-105887273D01*
X101578835Y-105818217D01*
X101682263Y-105888886D01*
X101682263Y-105888886D01*
G37*
X101682263Y-105888886D02*
X101578501Y-105908410D01*
X101577878Y-105908811D01*
X101471519Y-105887273D01*
X101578835Y-105818217D01*
X101682263Y-105888886D01*
G36*
X133944217Y-105356581D02*
X133899939Y-105326995D01*
X133931962Y-105294971D01*
X133944217Y-105356581D01*
X133944217Y-105356581D01*
G37*
X133944217Y-105356581D02*
X133899939Y-105326995D01*
X133931962Y-105294971D01*
X133944217Y-105356581D01*
G36*
X129415389Y-105282548D02*
X129415389Y-105311162D01*
X129396966Y-105282532D01*
X129415389Y-105282548D01*
X129415389Y-105282548D01*
G37*
X129415389Y-105282548D02*
X129415389Y-105311162D01*
X129396966Y-105282532D01*
X129415389Y-105282548D01*
G36*
X96926809Y-103495500D02*
X97897400Y-103495500D01*
X97596533Y-103696533D01*
X96451766Y-104841300D01*
X95913400Y-104841300D01*
X95842357Y-104770133D01*
X96029044Y-104583772D01*
X96315174Y-103894697D01*
X96315628Y-103373929D01*
X96926809Y-103495500D01*
X96926809Y-103495500D01*
G37*
X96926809Y-103495500D02*
X97897400Y-103495500D01*
X97596533Y-103696533D01*
X96451766Y-104841300D01*
X95913400Y-104841300D01*
X95842357Y-104770133D01*
X96029044Y-104583772D01*
X96315174Y-103894697D01*
X96315628Y-103373929D01*
X96926809Y-103495500D01*
G36*
X179901300Y-95701766D02*
X171841766Y-103761300D01*
X170285634Y-103761300D01*
X170643467Y-103403467D01*
X170898977Y-103021069D01*
X170988700Y-102570000D01*
X170988700Y-100604434D01*
X171278513Y-100417945D01*
X171501250Y-100091959D01*
X171579611Y-99705000D01*
X171579611Y-99105000D01*
X171514262Y-98757703D01*
X171579611Y-98435000D01*
X171579611Y-98050952D01*
X176246832Y-98043699D01*
X176471667Y-97998613D01*
X176696069Y-97953977D01*
X176696845Y-97953459D01*
X176697761Y-97953275D01*
X176888135Y-97825643D01*
X177078467Y-97698467D01*
X178043467Y-96733467D01*
X178298977Y-96351069D01*
X178388700Y-95900000D01*
X178388700Y-92719611D01*
X179585000Y-92719611D01*
X179901300Y-92660095D01*
X179901300Y-95701766D01*
X179901300Y-95701766D01*
G37*
X179901300Y-95701766D02*
X171841766Y-103761300D01*
X170285634Y-103761300D01*
X170643467Y-103403467D01*
X170898977Y-103021069D01*
X170988700Y-102570000D01*
X170988700Y-100604434D01*
X171278513Y-100417945D01*
X171501250Y-100091959D01*
X171579611Y-99705000D01*
X171579611Y-99105000D01*
X171514262Y-98757703D01*
X171579611Y-98435000D01*
X171579611Y-98050952D01*
X176246832Y-98043699D01*
X176471667Y-97998613D01*
X176696069Y-97953977D01*
X176696845Y-97953459D01*
X176697761Y-97953275D01*
X176888135Y-97825643D01*
X177078467Y-97698467D01*
X178043467Y-96733467D01*
X178298977Y-96351069D01*
X178388700Y-95900000D01*
X178388700Y-92719611D01*
X179585000Y-92719611D01*
X179901300Y-92660095D01*
X179901300Y-95701766D01*
G36*
X107028041Y-102676250D02*
X107415000Y-102754611D01*
X108165000Y-102754611D01*
X108526499Y-102686590D01*
X108756327Y-102538700D01*
X109441766Y-102538700D01*
X109621533Y-102718467D01*
X110003931Y-102973977D01*
X110455000Y-103063700D01*
X112947331Y-103063700D01*
X112947312Y-103085389D01*
X112690000Y-103085389D01*
X112328501Y-103153410D01*
X112191165Y-103241783D01*
X112076959Y-103163750D01*
X111690000Y-103085389D01*
X111190000Y-103085389D01*
X110828501Y-103153410D01*
X110520971Y-103351300D01*
X110251681Y-103351300D01*
X110086959Y-103238750D01*
X109700000Y-103160389D01*
X108900000Y-103160389D01*
X108538501Y-103228410D01*
X108537878Y-103228811D01*
X108200000Y-103160389D01*
X107400000Y-103160389D01*
X107038501Y-103228410D01*
X106847524Y-103351300D01*
X106571681Y-103351300D01*
X106406959Y-103238750D01*
X106020000Y-103160389D01*
X105298700Y-103160389D01*
X105298700Y-102790172D01*
X105370000Y-102804611D01*
X105870000Y-102804611D01*
X106231499Y-102736590D01*
X106539029Y-102538700D01*
X106826730Y-102538700D01*
X107028041Y-102676250D01*
X107028041Y-102676250D01*
G37*
X107028041Y-102676250D02*
X107415000Y-102754611D01*
X108165000Y-102754611D01*
X108526499Y-102686590D01*
X108756327Y-102538700D01*
X109441766Y-102538700D01*
X109621533Y-102718467D01*
X110003931Y-102973977D01*
X110455000Y-103063700D01*
X112947331Y-103063700D01*
X112947312Y-103085389D01*
X112690000Y-103085389D01*
X112328501Y-103153410D01*
X112191165Y-103241783D01*
X112076959Y-103163750D01*
X111690000Y-103085389D01*
X111190000Y-103085389D01*
X110828501Y-103153410D01*
X110520971Y-103351300D01*
X110251681Y-103351300D01*
X110086959Y-103238750D01*
X109700000Y-103160389D01*
X108900000Y-103160389D01*
X108538501Y-103228410D01*
X108537878Y-103228811D01*
X108200000Y-103160389D01*
X107400000Y-103160389D01*
X107038501Y-103228410D01*
X106847524Y-103351300D01*
X106571681Y-103351300D01*
X106406959Y-103238750D01*
X106020000Y-103160389D01*
X105298700Y-103160389D01*
X105298700Y-102790172D01*
X105370000Y-102804611D01*
X105870000Y-102804611D01*
X106231499Y-102736590D01*
X106539029Y-102538700D01*
X106826730Y-102538700D01*
X107028041Y-102676250D01*
G36*
X106843041Y-92746250D02*
X106981451Y-92774279D01*
X106903859Y-92806339D01*
X106418045Y-93291306D01*
X106154800Y-93925271D01*
X106154201Y-94611717D01*
X106416339Y-95246141D01*
X106701300Y-95531600D01*
X106701300Y-95980000D01*
X106791023Y-96431069D01*
X107046533Y-96813467D01*
X107360171Y-97127105D01*
X107351069Y-97121023D01*
X106900000Y-97031300D01*
X106551447Y-97031300D01*
X106276959Y-96843750D01*
X105890000Y-96765389D01*
X105390000Y-96765389D01*
X105028501Y-96833410D01*
X104891165Y-96921783D01*
X104776959Y-96843750D01*
X104390000Y-96765389D01*
X103890000Y-96765389D01*
X103528501Y-96833410D01*
X103196487Y-97047055D01*
X102973750Y-97373041D01*
X102895389Y-97760000D01*
X102895389Y-98660000D01*
X102961300Y-99010285D01*
X102961300Y-100511991D01*
X102953750Y-100523041D01*
X102875389Y-100910000D01*
X102875389Y-101810000D01*
X102941300Y-102160285D01*
X102941300Y-103158554D01*
X102580000Y-103085389D01*
X102080000Y-103085389D01*
X101718501Y-103153410D01*
X101581165Y-103241783D01*
X101466959Y-103163750D01*
X101080000Y-103085389D01*
X100580000Y-103085389D01*
X100218501Y-103153410D01*
X99910971Y-103351300D01*
X99278134Y-103351300D01*
X99500524Y-103307064D01*
X100303634Y-102770443D01*
X100840255Y-101967333D01*
X100968586Y-101322166D01*
X101113768Y-101382451D01*
X101683731Y-101382948D01*
X102210499Y-101165292D01*
X102613876Y-100762619D01*
X102832451Y-100236232D01*
X102832948Y-99666269D01*
X102615292Y-99139501D01*
X102212619Y-98736124D01*
X101686232Y-98517549D01*
X101571327Y-98517449D01*
X101609388Y-98479388D01*
X101875910Y-98080510D01*
X101969500Y-97610000D01*
X101969500Y-96214992D01*
X102172451Y-95726232D01*
X102172666Y-95479611D01*
X102535000Y-95479611D01*
X102882297Y-95414262D01*
X103205000Y-95479611D01*
X103805000Y-95479611D01*
X104152297Y-95414262D01*
X104475000Y-95479611D01*
X105075000Y-95479611D01*
X105436499Y-95411590D01*
X105768513Y-95197945D01*
X105991250Y-94871959D01*
X106069611Y-94485000D01*
X106069611Y-92609500D01*
X106642901Y-92609500D01*
X106843041Y-92746250D01*
X106843041Y-92746250D01*
G37*
X106843041Y-92746250D02*
X106981451Y-92774279D01*
X106903859Y-92806339D01*
X106418045Y-93291306D01*
X106154800Y-93925271D01*
X106154201Y-94611717D01*
X106416339Y-95246141D01*
X106701300Y-95531600D01*
X106701300Y-95980000D01*
X106791023Y-96431069D01*
X107046533Y-96813467D01*
X107360171Y-97127105D01*
X107351069Y-97121023D01*
X106900000Y-97031300D01*
X106551447Y-97031300D01*
X106276959Y-96843750D01*
X105890000Y-96765389D01*
X105390000Y-96765389D01*
X105028501Y-96833410D01*
X104891165Y-96921783D01*
X104776959Y-96843750D01*
X104390000Y-96765389D01*
X103890000Y-96765389D01*
X103528501Y-96833410D01*
X103196487Y-97047055D01*
X102973750Y-97373041D01*
X102895389Y-97760000D01*
X102895389Y-98660000D01*
X102961300Y-99010285D01*
X102961300Y-100511991D01*
X102953750Y-100523041D01*
X102875389Y-100910000D01*
X102875389Y-101810000D01*
X102941300Y-102160285D01*
X102941300Y-103158554D01*
X102580000Y-103085389D01*
X102080000Y-103085389D01*
X101718501Y-103153410D01*
X101581165Y-103241783D01*
X101466959Y-103163750D01*
X101080000Y-103085389D01*
X100580000Y-103085389D01*
X100218501Y-103153410D01*
X99910971Y-103351300D01*
X99278134Y-103351300D01*
X99500524Y-103307064D01*
X100303634Y-102770443D01*
X100840255Y-101967333D01*
X100968586Y-101322166D01*
X101113768Y-101382451D01*
X101683731Y-101382948D01*
X102210499Y-101165292D01*
X102613876Y-100762619D01*
X102832451Y-100236232D01*
X102832948Y-99666269D01*
X102615292Y-99139501D01*
X102212619Y-98736124D01*
X101686232Y-98517549D01*
X101571327Y-98517449D01*
X101609388Y-98479388D01*
X101875910Y-98080510D01*
X101969500Y-97610000D01*
X101969500Y-96214992D01*
X102172451Y-95726232D01*
X102172666Y-95479611D01*
X102535000Y-95479611D01*
X102882297Y-95414262D01*
X103205000Y-95479611D01*
X103805000Y-95479611D01*
X104152297Y-95414262D01*
X104475000Y-95479611D01*
X105075000Y-95479611D01*
X105436499Y-95411590D01*
X105768513Y-95197945D01*
X105991250Y-94871959D01*
X106069611Y-94485000D01*
X106069611Y-92609500D01*
X106642901Y-92609500D01*
X106843041Y-92746250D01*
G36*
X129303768Y-101472451D02*
X129415389Y-101472548D01*
X129415389Y-101610000D01*
X129480738Y-101957297D01*
X129415389Y-102280000D01*
X129415389Y-102417147D01*
X129306269Y-102417052D01*
X128779501Y-102634708D01*
X128742845Y-102671300D01*
X128670000Y-102671300D01*
X128218931Y-102761023D01*
X128088700Y-102848041D01*
X128088700Y-102480000D01*
X127998977Y-102028931D01*
X127829792Y-101775728D01*
X127911717Y-101775799D01*
X128546141Y-101513661D01*
X128797861Y-101262380D01*
X129303768Y-101472451D01*
X129303768Y-101472451D01*
G37*
X129303768Y-101472451D02*
X129415389Y-101472548D01*
X129415389Y-101610000D01*
X129480738Y-101957297D01*
X129415389Y-102280000D01*
X129415389Y-102417147D01*
X129306269Y-102417052D01*
X128779501Y-102634708D01*
X128742845Y-102671300D01*
X128670000Y-102671300D01*
X128218931Y-102761023D01*
X128088700Y-102848041D01*
X128088700Y-102480000D01*
X127998977Y-102028931D01*
X127829792Y-101775728D01*
X127911717Y-101775799D01*
X128546141Y-101513661D01*
X128797861Y-101262380D01*
X129303768Y-101472451D01*
G36*
X167883768Y-99582451D02*
X168040389Y-99582588D01*
X168040389Y-99705000D01*
X168108410Y-100066499D01*
X168322055Y-100398513D01*
X168631300Y-100609811D01*
X168631300Y-102081766D01*
X168071766Y-102641300D01*
X167245634Y-102641300D01*
X167333467Y-102553467D01*
X167588977Y-102171069D01*
X167678700Y-101720000D01*
X167678700Y-99497299D01*
X167883768Y-99582451D01*
X167883768Y-99582451D01*
G37*
X167883768Y-99582451D02*
X168040389Y-99582588D01*
X168040389Y-99705000D01*
X168108410Y-100066499D01*
X168322055Y-100398513D01*
X168631300Y-100609811D01*
X168631300Y-102081766D01*
X168071766Y-102641300D01*
X167245634Y-102641300D01*
X167333467Y-102553467D01*
X167588977Y-102171069D01*
X167678700Y-101720000D01*
X167678700Y-99497299D01*
X167883768Y-99582451D01*
G36*
X165321300Y-101231766D02*
X164971766Y-101581300D01*
X164855634Y-101581300D01*
X165243467Y-101193467D01*
X165321300Y-101076982D01*
X165321300Y-101231766D01*
X165321300Y-101231766D01*
G37*
X165321300Y-101231766D02*
X164971766Y-101581300D01*
X164855634Y-101581300D01*
X165243467Y-101193467D01*
X165321300Y-101076982D01*
X165321300Y-101231766D01*
G36*
X162640389Y-99705000D02*
X162708410Y-100066499D01*
X162750108Y-100131300D01*
X161434369Y-100131300D01*
X161461250Y-100091959D01*
X161539611Y-99705000D01*
X161539611Y-99313700D01*
X162640389Y-99313700D01*
X162640389Y-99705000D01*
X162640389Y-99705000D01*
G37*
X162640389Y-99705000D02*
X162708410Y-100066499D01*
X162750108Y-100131300D01*
X161434369Y-100131300D01*
X161461250Y-100091959D01*
X161539611Y-99705000D01*
X161539611Y-99313700D01*
X162640389Y-99313700D01*
X162640389Y-99705000D01*
G36*
X106420389Y-100105417D02*
X106256959Y-99993750D01*
X105870000Y-99915389D01*
X105370000Y-99915389D01*
X105318700Y-99925042D01*
X105318700Y-99640172D01*
X105390000Y-99654611D01*
X105890000Y-99654611D01*
X106251499Y-99586590D01*
X106420389Y-99477912D01*
X106420389Y-100105417D01*
X106420389Y-100105417D01*
G37*
X106420389Y-100105417D02*
X106256959Y-99993750D01*
X105870000Y-99915389D01*
X105370000Y-99915389D01*
X105318700Y-99925042D01*
X105318700Y-99640172D01*
X105390000Y-99654611D01*
X105890000Y-99654611D01*
X106251499Y-99586590D01*
X106420389Y-99477912D01*
X106420389Y-100105417D01*
G36*
X127341300Y-95741505D02*
X127341300Y-96110000D01*
X127431023Y-96561069D01*
X127686533Y-96943467D01*
X127706533Y-96963467D01*
X128088931Y-97218977D01*
X128540000Y-97308700D01*
X130050000Y-97308700D01*
X130501069Y-97218977D01*
X130664066Y-97110066D01*
X130947381Y-97393876D01*
X131473768Y-97612451D01*
X131525562Y-97612496D01*
X132246533Y-98333467D01*
X132530115Y-98522951D01*
X132240707Y-98812359D01*
X131910000Y-98745389D01*
X130410000Y-98745389D01*
X130271121Y-98771521D01*
X129876232Y-98607549D01*
X129306269Y-98607052D01*
X128783355Y-98823116D01*
X128548694Y-98588045D01*
X127914729Y-98324800D01*
X127228283Y-98324201D01*
X127069845Y-98389666D01*
X127212451Y-98046232D01*
X127212948Y-97476269D01*
X126995292Y-96949501D01*
X126592619Y-96546124D01*
X126066232Y-96327549D01*
X125496269Y-96327052D01*
X124969501Y-96544708D01*
X124952880Y-96561300D01*
X124721681Y-96561300D01*
X124556959Y-96448750D01*
X124170000Y-96370389D01*
X123370000Y-96370389D01*
X123008501Y-96438410D01*
X123007878Y-96438811D01*
X122670000Y-96370389D01*
X121870000Y-96370389D01*
X121614787Y-96418411D01*
X121598977Y-96338931D01*
X121435781Y-96094691D01*
X121598589Y-96062306D01*
X122170000Y-95680501D01*
X122741411Y-96062306D01*
X123440000Y-96201264D01*
X124138589Y-96062306D01*
X124710000Y-95680501D01*
X125281411Y-96062306D01*
X125980000Y-96201264D01*
X126678589Y-96062306D01*
X127250000Y-95680501D01*
X127341300Y-95741505D01*
X127341300Y-95741505D01*
G37*
X127341300Y-95741505D02*
X127341300Y-96110000D01*
X127431023Y-96561069D01*
X127686533Y-96943467D01*
X127706533Y-96963467D01*
X128088931Y-97218977D01*
X128540000Y-97308700D01*
X130050000Y-97308700D01*
X130501069Y-97218977D01*
X130664066Y-97110066D01*
X130947381Y-97393876D01*
X131473768Y-97612451D01*
X131525562Y-97612496D01*
X132246533Y-98333467D01*
X132530115Y-98522951D01*
X132240707Y-98812359D01*
X131910000Y-98745389D01*
X130410000Y-98745389D01*
X130271121Y-98771521D01*
X129876232Y-98607549D01*
X129306269Y-98607052D01*
X128783355Y-98823116D01*
X128548694Y-98588045D01*
X127914729Y-98324800D01*
X127228283Y-98324201D01*
X127069845Y-98389666D01*
X127212451Y-98046232D01*
X127212948Y-97476269D01*
X126995292Y-96949501D01*
X126592619Y-96546124D01*
X126066232Y-96327549D01*
X125496269Y-96327052D01*
X124969501Y-96544708D01*
X124952880Y-96561300D01*
X124721681Y-96561300D01*
X124556959Y-96448750D01*
X124170000Y-96370389D01*
X123370000Y-96370389D01*
X123008501Y-96438410D01*
X123007878Y-96438811D01*
X122670000Y-96370389D01*
X121870000Y-96370389D01*
X121614787Y-96418411D01*
X121598977Y-96338931D01*
X121435781Y-96094691D01*
X121598589Y-96062306D01*
X122170000Y-95680501D01*
X122741411Y-96062306D01*
X123440000Y-96201264D01*
X124138589Y-96062306D01*
X124710000Y-95680501D01*
X125281411Y-96062306D01*
X125980000Y-96201264D01*
X126678589Y-96062306D01*
X127250000Y-95680501D01*
X127341300Y-95741505D01*
G36*
X109022543Y-98681300D02*
X108885416Y-98681300D01*
X108878977Y-98648931D01*
X108802255Y-98534108D01*
X109022543Y-98681300D01*
X109022543Y-98681300D01*
G37*
X109022543Y-98681300D02*
X108885416Y-98681300D01*
X108878977Y-98648931D01*
X108802255Y-98534108D01*
X109022543Y-98681300D01*
G36*
X141785000Y-97764611D02*
X142290690Y-97764611D01*
X142233673Y-97801300D01*
X141298233Y-97801300D01*
X141261544Y-97764611D01*
X141535000Y-97764611D01*
X141664589Y-97740227D01*
X141785000Y-97764611D01*
X141785000Y-97764611D01*
G37*
X141785000Y-97764611D02*
X142290690Y-97764611D01*
X142233673Y-97801300D01*
X141298233Y-97801300D01*
X141261544Y-97764611D01*
X141535000Y-97764611D01*
X141664589Y-97740227D01*
X141785000Y-97764611D01*
G36*
X142999014Y-97585389D02*
X142869310Y-97585389D01*
X142948284Y-97534571D01*
X142999014Y-97585389D01*
X142999014Y-97585389D01*
G37*
X142999014Y-97585389D02*
X142869310Y-97585389D01*
X142948284Y-97534571D01*
X142999014Y-97585389D01*
G36*
X112131306Y-95771955D02*
X112597522Y-95965544D01*
X112276533Y-96286533D01*
X112166439Y-96451300D01*
X110018233Y-96451300D01*
X109078562Y-95511628D01*
X109175104Y-95415254D01*
X109461306Y-95701955D01*
X110095271Y-95965200D01*
X110781717Y-95965799D01*
X111416141Y-95703661D01*
X111740201Y-95380166D01*
X112131306Y-95771955D01*
X112131306Y-95771955D01*
G37*
X112131306Y-95771955D02*
X112597522Y-95965544D01*
X112276533Y-96286533D01*
X112166439Y-96451300D01*
X110018233Y-96451300D01*
X109078562Y-95511628D01*
X109175104Y-95415254D01*
X109461306Y-95701955D01*
X110095271Y-95965200D01*
X110781717Y-95965799D01*
X111416141Y-95703661D01*
X111740201Y-95380166D01*
X112131306Y-95771955D01*
G36*
X165856533Y-94373467D02*
X166238931Y-94628977D01*
X166690000Y-94718700D01*
X166718319Y-94718700D01*
X166883041Y-94831250D01*
X166965156Y-94847879D01*
X166767549Y-95323768D01*
X166767078Y-95863561D01*
X166636069Y-95776023D01*
X166185000Y-95686300D01*
X166179611Y-95686300D01*
X166179611Y-95295000D01*
X166111590Y-94933501D01*
X165897945Y-94601487D01*
X165588700Y-94390189D01*
X165588700Y-94105634D01*
X165856533Y-94373467D01*
X165856533Y-94373467D01*
G37*
X165856533Y-94373467D02*
X166238931Y-94628977D01*
X166690000Y-94718700D01*
X166718319Y-94718700D01*
X166883041Y-94831250D01*
X166965156Y-94847879D01*
X166767549Y-95323768D01*
X166767078Y-95863561D01*
X166636069Y-95776023D01*
X166185000Y-95686300D01*
X166179611Y-95686300D01*
X166179611Y-95295000D01*
X166111590Y-94933501D01*
X165897945Y-94601487D01*
X165588700Y-94390189D01*
X165588700Y-94105634D01*
X165856533Y-94373467D01*
G36*
X92325680Y-87620001D02*
X92209090Y-87794490D01*
X92155506Y-88063876D01*
X92115500Y-88265000D01*
X92115500Y-92213472D01*
X92050389Y-92535000D01*
X92050389Y-94485000D01*
X92073776Y-94609290D01*
X92009625Y-94673441D01*
X91975500Y-94679862D01*
X91975500Y-87386018D01*
X92325680Y-87620001D01*
X92325680Y-87620001D01*
G37*
X92325680Y-87620001D02*
X92209090Y-87794490D01*
X92155506Y-88063876D01*
X92115500Y-88265000D01*
X92115500Y-92213472D01*
X92050389Y-92535000D01*
X92050389Y-94485000D01*
X92073776Y-94609290D01*
X92009625Y-94673441D01*
X91975500Y-94679862D01*
X91975500Y-87386018D01*
X92325680Y-87620001D01*
G36*
X154671783Y-93248835D02*
X154593750Y-93363041D01*
X154515389Y-93750000D01*
X154515389Y-94250000D01*
X154524870Y-94300389D01*
X153746744Y-94300389D01*
X153802451Y-94166232D01*
X153802948Y-93596269D01*
X153715493Y-93384611D01*
X153980000Y-93384611D01*
X154341499Y-93316590D01*
X154605901Y-93146452D01*
X154671783Y-93248835D01*
X154671783Y-93248835D01*
G37*
X154671783Y-93248835D02*
X154593750Y-93363041D01*
X154515389Y-93750000D01*
X154515389Y-94250000D01*
X154524870Y-94300389D01*
X153746744Y-94300389D01*
X153802451Y-94166232D01*
X153802948Y-93596269D01*
X153715493Y-93384611D01*
X153980000Y-93384611D01*
X154341499Y-93316590D01*
X154605901Y-93146452D01*
X154671783Y-93248835D01*
G36*
X136932100Y-92677191D02*
X136932100Y-93943207D01*
X136765292Y-93539501D01*
X136362619Y-93136124D01*
X136082901Y-93019975D01*
X136082948Y-92966269D01*
X135912156Y-92552920D01*
X135943731Y-92552948D01*
X136470499Y-92335292D01*
X136530402Y-92275493D01*
X136932100Y-92677191D01*
X136932100Y-92677191D01*
G37*
X136932100Y-92677191D02*
X136932100Y-93943207D01*
X136765292Y-93539501D01*
X136362619Y-93136124D01*
X136082901Y-93019975D01*
X136082948Y-92966269D01*
X135912156Y-92552920D01*
X135943731Y-92552948D01*
X136470499Y-92335292D01*
X136530402Y-92275493D01*
X136932100Y-92677191D01*
G36*
X119721300Y-92938495D02*
X119630000Y-92999499D01*
X119058589Y-92617694D01*
X118360000Y-92478736D01*
X117661411Y-92617694D01*
X117386218Y-92801573D01*
X117382945Y-92796487D01*
X117056959Y-92573750D01*
X116670000Y-92495389D01*
X114970000Y-92495389D01*
X114608501Y-92563410D01*
X114505451Y-92629721D01*
X114315292Y-92169501D01*
X113912619Y-91766124D01*
X113386232Y-91547549D01*
X112816269Y-91547052D01*
X112289501Y-91764708D01*
X111886124Y-92167381D01*
X111808133Y-92355203D01*
X111667597Y-92015079D01*
X111812451Y-91666232D01*
X111812919Y-91129500D01*
X118000000Y-91129500D01*
X118470510Y-91035910D01*
X118869388Y-90769388D01*
X119721300Y-89917476D01*
X119721300Y-92938495D01*
X119721300Y-92938495D01*
G37*
X119721300Y-92938495D02*
X119630000Y-92999499D01*
X119058589Y-92617694D01*
X118360000Y-92478736D01*
X117661411Y-92617694D01*
X117386218Y-92801573D01*
X117382945Y-92796487D01*
X117056959Y-92573750D01*
X116670000Y-92495389D01*
X114970000Y-92495389D01*
X114608501Y-92563410D01*
X114505451Y-92629721D01*
X114315292Y-92169501D01*
X113912619Y-91766124D01*
X113386232Y-91547549D01*
X112816269Y-91547052D01*
X112289501Y-91764708D01*
X111886124Y-92167381D01*
X111808133Y-92355203D01*
X111667597Y-92015079D01*
X111812451Y-91666232D01*
X111812919Y-91129500D01*
X118000000Y-91129500D01*
X118470510Y-91035910D01*
X118869388Y-90769388D01*
X119721300Y-89917476D01*
X119721300Y-92938495D01*
G36*
X109017171Y-92966799D02*
X108875231Y-92824611D01*
X109017295Y-92824611D01*
X109017171Y-92966799D01*
X109017171Y-92966799D01*
G37*
X109017171Y-92966799D02*
X108875231Y-92824611D01*
X109017295Y-92824611D01*
X109017171Y-92966799D01*
G36*
X165121300Y-92964366D02*
X164886545Y-92729611D01*
X165121300Y-92729611D01*
X165121300Y-92964366D01*
X165121300Y-92964366D01*
G37*
X165121300Y-92964366D02*
X164886545Y-92729611D01*
X165121300Y-92729611D01*
X165121300Y-92964366D01*
G36*
X142039773Y-92324589D02*
X142015389Y-92445000D01*
X142015389Y-92747461D01*
X141546269Y-92747052D01*
X141422998Y-92797986D01*
X141225292Y-92319501D01*
X141153816Y-92247900D01*
X142025343Y-92247900D01*
X142039773Y-92324589D01*
X142039773Y-92324589D01*
G37*
X142039773Y-92324589D02*
X142015389Y-92445000D01*
X142015389Y-92747461D01*
X141546269Y-92747052D01*
X141422998Y-92797986D01*
X141225292Y-92319501D01*
X141153816Y-92247900D01*
X142025343Y-92247900D01*
X142039773Y-92324589D01*
G36*
X150512799Y-92599733D02*
X150502197Y-92592489D01*
X150504240Y-92591174D01*
X150512799Y-92599733D01*
X150512799Y-92599733D01*
G37*
X150512799Y-92599733D02*
X150502197Y-92592489D01*
X150504240Y-92591174D01*
X150512799Y-92599733D01*
G36*
X103905612Y-91175612D02*
X103661876Y-91540389D01*
X103205000Y-91540389D01*
X102857703Y-91605738D01*
X102535000Y-91540389D01*
X101935000Y-91540389D01*
X101587703Y-91605738D01*
X101265000Y-91540389D01*
X100665000Y-91540389D01*
X100317703Y-91605738D01*
X99995000Y-91540389D01*
X99395000Y-91540389D01*
X99047703Y-91605738D01*
X98725000Y-91540389D01*
X98125000Y-91540389D01*
X97777703Y-91605738D01*
X97455000Y-91540389D01*
X96855000Y-91540389D01*
X96507703Y-91605738D01*
X96185000Y-91540389D01*
X95844500Y-91540389D01*
X95844500Y-91244276D01*
X95959276Y-91129500D01*
X103951724Y-91129500D01*
X103905612Y-91175612D01*
X103905612Y-91175612D01*
G37*
X103905612Y-91175612D02*
X103661876Y-91540389D01*
X103205000Y-91540389D01*
X102857703Y-91605738D01*
X102535000Y-91540389D01*
X101935000Y-91540389D01*
X101587703Y-91605738D01*
X101265000Y-91540389D01*
X100665000Y-91540389D01*
X100317703Y-91605738D01*
X99995000Y-91540389D01*
X99395000Y-91540389D01*
X99047703Y-91605738D01*
X98725000Y-91540389D01*
X98125000Y-91540389D01*
X97777703Y-91605738D01*
X97455000Y-91540389D01*
X96855000Y-91540389D01*
X96507703Y-91605738D01*
X96185000Y-91540389D01*
X95844500Y-91540389D01*
X95844500Y-91244276D01*
X95959276Y-91129500D01*
X103951724Y-91129500D01*
X103905612Y-91175612D01*
G36*
X138032100Y-90587009D02*
X137857992Y-90412900D01*
X138032100Y-90412900D01*
X138032100Y-90587009D01*
X138032100Y-90587009D01*
G37*
X138032100Y-90587009D02*
X137857992Y-90412900D01*
X138032100Y-90412900D01*
X138032100Y-90587009D01*
G36*
X139737381Y-87513876D02*
X140263768Y-87732451D01*
X140833731Y-87732948D01*
X140857059Y-87723309D01*
X140997381Y-87863876D01*
X141523768Y-88082451D01*
X142015389Y-88082880D01*
X142015389Y-88092247D01*
X141791269Y-88092052D01*
X141264501Y-88309708D01*
X140861124Y-88712381D01*
X140642549Y-89238768D01*
X140642052Y-89808731D01*
X140717818Y-89992100D01*
X140287900Y-89992100D01*
X140287900Y-89440000D01*
X140202044Y-89008371D01*
X139957546Y-88642454D01*
X139802546Y-88487454D01*
X139436629Y-88242956D01*
X139005000Y-88157100D01*
X138908740Y-88157100D01*
X139283876Y-87782619D01*
X139410074Y-87478700D01*
X139702266Y-87478700D01*
X139737381Y-87513876D01*
X139737381Y-87513876D01*
G37*
X139737381Y-87513876D02*
X140263768Y-87732451D01*
X140833731Y-87732948D01*
X140857059Y-87723309D01*
X140997381Y-87863876D01*
X141523768Y-88082451D01*
X142015389Y-88082880D01*
X142015389Y-88092247D01*
X141791269Y-88092052D01*
X141264501Y-88309708D01*
X140861124Y-88712381D01*
X140642549Y-89238768D01*
X140642052Y-89808731D01*
X140717818Y-89992100D01*
X140287900Y-89992100D01*
X140287900Y-89440000D01*
X140202044Y-89008371D01*
X139957546Y-88642454D01*
X139802546Y-88487454D01*
X139436629Y-88242956D01*
X139005000Y-88157100D01*
X138908740Y-88157100D01*
X139283876Y-87782619D01*
X139410074Y-87478700D01*
X139702266Y-87478700D01*
X139737381Y-87513876D01*
G36*
X134837381Y-89138876D02*
X134965559Y-89192100D01*
X134094657Y-89192100D01*
X134080227Y-89115411D01*
X134083611Y-89098700D01*
X134797275Y-89098700D01*
X134837381Y-89138876D01*
X134837381Y-89138876D01*
G37*
X134837381Y-89138876D02*
X134965559Y-89192100D01*
X134094657Y-89192100D01*
X134080227Y-89115411D01*
X134083611Y-89098700D01*
X134797275Y-89098700D01*
X134837381Y-89138876D01*
G36*
X101935000Y-86079611D02*
X102275500Y-86079611D01*
X102275500Y-86915000D01*
X102369090Y-87385510D01*
X102635612Y-87784388D01*
X103521724Y-88670500D01*
X95450000Y-88670500D01*
X94979490Y-88764090D01*
X94580612Y-89030612D01*
X94574500Y-89036724D01*
X94574500Y-88774276D01*
X95619276Y-87729500D01*
X95675008Y-87729500D01*
X96163768Y-87932451D01*
X96733731Y-87932948D01*
X97260499Y-87715292D01*
X97663876Y-87312619D01*
X97868184Y-86820592D01*
X98024385Y-86664390D01*
X98024388Y-86664388D01*
X98290910Y-86265509D01*
X98300286Y-86218371D01*
X98327888Y-86079611D01*
X98725000Y-86079611D01*
X99072297Y-86014262D01*
X99395000Y-86079611D01*
X99995000Y-86079611D01*
X100342297Y-86014262D01*
X100665000Y-86079611D01*
X101265000Y-86079611D01*
X101612297Y-86014262D01*
X101935000Y-86079611D01*
X101935000Y-86079611D01*
G37*
X101935000Y-86079611D02*
X102275500Y-86079611D01*
X102275500Y-86915000D01*
X102369090Y-87385510D01*
X102635612Y-87784388D01*
X103521724Y-88670500D01*
X95450000Y-88670500D01*
X94979490Y-88764090D01*
X94580612Y-89030612D01*
X94574500Y-89036724D01*
X94574500Y-88774276D01*
X95619276Y-87729500D01*
X95675008Y-87729500D01*
X96163768Y-87932451D01*
X96733731Y-87932948D01*
X97260499Y-87715292D01*
X97663876Y-87312619D01*
X97868184Y-86820592D01*
X98024385Y-86664390D01*
X98024388Y-86664388D01*
X98290910Y-86265509D01*
X98300286Y-86218371D01*
X98327888Y-86079611D01*
X98725000Y-86079611D01*
X99072297Y-86014262D01*
X99395000Y-86079611D01*
X99995000Y-86079611D01*
X100342297Y-86014262D01*
X100665000Y-86079611D01*
X101265000Y-86079611D01*
X101612297Y-86014262D01*
X101935000Y-86079611D01*
G36*
X123203041Y-87486250D02*
X123261300Y-87498048D01*
X123261300Y-87720000D01*
X123351023Y-88171069D01*
X123606533Y-88553467D01*
X124003455Y-88950389D01*
X123370000Y-88950389D01*
X123008501Y-89018410D01*
X123007878Y-89018811D01*
X122886621Y-88994256D01*
X122988977Y-88841069D01*
X122995157Y-88810000D01*
X123078701Y-88390000D01*
X123078700Y-88389995D01*
X123078700Y-87401291D01*
X123203041Y-87486250D01*
X123203041Y-87486250D01*
G37*
X123203041Y-87486250D02*
X123261300Y-87498048D01*
X123261300Y-87720000D01*
X123351023Y-88171069D01*
X123606533Y-88553467D01*
X124003455Y-88950389D01*
X123370000Y-88950389D01*
X123008501Y-89018410D01*
X123007878Y-89018811D01*
X122886621Y-88994256D01*
X122988977Y-88841069D01*
X122995157Y-88810000D01*
X123078701Y-88390000D01*
X123078700Y-88389995D01*
X123078700Y-87401291D01*
X123203041Y-87486250D01*
G36*
X117200000Y-88244611D02*
X117916613Y-88244611D01*
X117490724Y-88670500D01*
X116681087Y-88670500D01*
X116790499Y-88625292D01*
X117176594Y-88239871D01*
X117200000Y-88244611D01*
X117200000Y-88244611D01*
G37*
X117200000Y-88244611D02*
X117916613Y-88244611D01*
X117490724Y-88670500D01*
X116681087Y-88670500D01*
X116790499Y-88625292D01*
X117176594Y-88239871D01*
X117200000Y-88244611D01*
G36*
X110740612Y-85819388D02*
X111139490Y-86085910D01*
X111155389Y-86089072D01*
X111155389Y-86200000D01*
X111223410Y-86561499D01*
X111437055Y-86893513D01*
X111763041Y-87116250D01*
X112150000Y-87194611D01*
X114547487Y-87194611D01*
X114547052Y-87693731D01*
X114764708Y-88220499D01*
X115167381Y-88623876D01*
X115279664Y-88670500D01*
X111718222Y-88670500D01*
X111732451Y-88636232D01*
X111732948Y-88066269D01*
X111515292Y-87539501D01*
X111112619Y-87136124D01*
X110586232Y-86917549D01*
X110336696Y-86917331D01*
X110343513Y-86912945D01*
X110566250Y-86586959D01*
X110644611Y-86200000D01*
X110644611Y-85723387D01*
X110740612Y-85819388D01*
X110740612Y-85819388D01*
G37*
X110740612Y-85819388D02*
X111139490Y-86085910D01*
X111155389Y-86089072D01*
X111155389Y-86200000D01*
X111223410Y-86561499D01*
X111437055Y-86893513D01*
X111763041Y-87116250D01*
X112150000Y-87194611D01*
X114547487Y-87194611D01*
X114547052Y-87693731D01*
X114764708Y-88220499D01*
X115167381Y-88623876D01*
X115279664Y-88670500D01*
X111718222Y-88670500D01*
X111732451Y-88636232D01*
X111732948Y-88066269D01*
X111515292Y-87539501D01*
X111112619Y-87136124D01*
X110586232Y-86917549D01*
X110336696Y-86917331D01*
X110343513Y-86912945D01*
X110566250Y-86586959D01*
X110644611Y-86200000D01*
X110644611Y-85723387D01*
X110740612Y-85819388D01*
G36*
X171413768Y-86672451D02*
X171893102Y-86672869D01*
X171718750Y-86928041D01*
X171640389Y-87315000D01*
X171640389Y-87811753D01*
X171539611Y-87879091D01*
X171539611Y-87325000D01*
X171471590Y-86963501D01*
X171257945Y-86631487D01*
X171169377Y-86570971D01*
X171413768Y-86672451D01*
X171413768Y-86672451D01*
G37*
X171413768Y-86672451D02*
X171893102Y-86672869D01*
X171718750Y-86928041D01*
X171640389Y-87315000D01*
X171640389Y-87811753D01*
X171539611Y-87879091D01*
X171539611Y-87325000D01*
X171471590Y-86963501D01*
X171257945Y-86631487D01*
X171169377Y-86570971D01*
X171413768Y-86672451D01*
G36*
X126083423Y-87360357D02*
X125926124Y-87517381D01*
X125919725Y-87532791D01*
X125792678Y-87405744D01*
X125983513Y-87282945D01*
X125992645Y-87269579D01*
X126083423Y-87360357D01*
X126083423Y-87360357D01*
G37*
X126083423Y-87360357D02*
X125926124Y-87517381D01*
X125919725Y-87532791D01*
X125792678Y-87405744D01*
X125983513Y-87282945D01*
X125992645Y-87269579D01*
X126083423Y-87360357D01*
G36*
X106105389Y-83891419D02*
X106105389Y-86200000D01*
X106173410Y-86561499D01*
X106387055Y-86893513D01*
X106681827Y-87094922D01*
X106579916Y-87160500D01*
X105489276Y-87160500D01*
X104734500Y-86405724D01*
X104734500Y-86079611D01*
X105075000Y-86079611D01*
X105436499Y-86011590D01*
X105768513Y-85797945D01*
X105991250Y-85471959D01*
X106069611Y-85085000D01*
X106069611Y-83867513D01*
X106105389Y-83891419D01*
X106105389Y-83891419D01*
G37*
X106105389Y-83891419D02*
X106105389Y-86200000D01*
X106173410Y-86561499D01*
X106387055Y-86893513D01*
X106681827Y-87094922D01*
X106579916Y-87160500D01*
X105489276Y-87160500D01*
X104734500Y-86405724D01*
X104734500Y-86079611D01*
X105075000Y-86079611D01*
X105436499Y-86011590D01*
X105768513Y-85797945D01*
X105991250Y-85471959D01*
X106069611Y-85085000D01*
X106069611Y-83867513D01*
X106105389Y-83891419D01*
G36*
X168581300Y-75070000D02*
X168671023Y-75521069D01*
X168926533Y-75903467D01*
X169626531Y-76603464D01*
X169626533Y-76603467D01*
X170008931Y-76858977D01*
X170460000Y-76948700D01*
X173621300Y-76948700D01*
X173621300Y-77454521D01*
X173555389Y-77780000D01*
X173555389Y-78680000D01*
X173623410Y-79041499D01*
X173837055Y-79373513D01*
X174163041Y-79596250D01*
X174550000Y-79674611D01*
X175050000Y-79674611D01*
X175411499Y-79606590D01*
X175548835Y-79518217D01*
X175663041Y-79596250D01*
X176050000Y-79674611D01*
X176550000Y-79674611D01*
X176911499Y-79606590D01*
X177219029Y-79408700D01*
X177491766Y-79408700D01*
X177631300Y-79548234D01*
X177631300Y-86415566D01*
X177599078Y-86436300D01*
X176755000Y-86436300D01*
X176478700Y-86491259D01*
X176478700Y-85408234D01*
X177123464Y-84763469D01*
X177123467Y-84763467D01*
X177378977Y-84381069D01*
X177468700Y-83930000D01*
X177468700Y-81995479D01*
X177534611Y-81670000D01*
X177534611Y-80770000D01*
X177466590Y-80408501D01*
X177252945Y-80076487D01*
X176926959Y-79853750D01*
X176540000Y-79775389D01*
X176040000Y-79775389D01*
X175678501Y-79843410D01*
X175541165Y-79931783D01*
X175426959Y-79853750D01*
X175040000Y-79775389D01*
X174540000Y-79775389D01*
X174178501Y-79843410D01*
X173870971Y-80041300D01*
X168740000Y-80041300D01*
X168288931Y-80131023D01*
X167906533Y-80386533D01*
X167232744Y-81060322D01*
X167232948Y-80826269D01*
X167015292Y-80299501D01*
X166758985Y-80042745D01*
X166782451Y-79986232D01*
X166782948Y-79416269D01*
X166565292Y-78889501D01*
X166528700Y-78852845D01*
X166528700Y-78160172D01*
X166600000Y-78174611D01*
X167100000Y-78174611D01*
X167461499Y-78106590D01*
X167793513Y-77892945D01*
X168016250Y-77566959D01*
X168094611Y-77180000D01*
X168094611Y-76280000D01*
X168028700Y-75929715D01*
X168028700Y-75750000D01*
X167938977Y-75298931D01*
X167683467Y-74916533D01*
X167683464Y-74916531D01*
X167645879Y-74878945D01*
X167923467Y-74693467D01*
X168581300Y-74035634D01*
X168581300Y-75070000D01*
X168581300Y-75070000D01*
G37*
X168581300Y-75070000D02*
X168671023Y-75521069D01*
X168926533Y-75903467D01*
X169626531Y-76603464D01*
X169626533Y-76603467D01*
X170008931Y-76858977D01*
X170460000Y-76948700D01*
X173621300Y-76948700D01*
X173621300Y-77454521D01*
X173555389Y-77780000D01*
X173555389Y-78680000D01*
X173623410Y-79041499D01*
X173837055Y-79373513D01*
X174163041Y-79596250D01*
X174550000Y-79674611D01*
X175050000Y-79674611D01*
X175411499Y-79606590D01*
X175548835Y-79518217D01*
X175663041Y-79596250D01*
X176050000Y-79674611D01*
X176550000Y-79674611D01*
X176911499Y-79606590D01*
X177219029Y-79408700D01*
X177491766Y-79408700D01*
X177631300Y-79548234D01*
X177631300Y-86415566D01*
X177599078Y-86436300D01*
X176755000Y-86436300D01*
X176478700Y-86491259D01*
X176478700Y-85408234D01*
X177123464Y-84763469D01*
X177123467Y-84763467D01*
X177378977Y-84381069D01*
X177468700Y-83930000D01*
X177468700Y-81995479D01*
X177534611Y-81670000D01*
X177534611Y-80770000D01*
X177466590Y-80408501D01*
X177252945Y-80076487D01*
X176926959Y-79853750D01*
X176540000Y-79775389D01*
X176040000Y-79775389D01*
X175678501Y-79843410D01*
X175541165Y-79931783D01*
X175426959Y-79853750D01*
X175040000Y-79775389D01*
X174540000Y-79775389D01*
X174178501Y-79843410D01*
X173870971Y-80041300D01*
X168740000Y-80041300D01*
X168288931Y-80131023D01*
X167906533Y-80386533D01*
X167232744Y-81060322D01*
X167232948Y-80826269D01*
X167015292Y-80299501D01*
X166758985Y-80042745D01*
X166782451Y-79986232D01*
X166782948Y-79416269D01*
X166565292Y-78889501D01*
X166528700Y-78852845D01*
X166528700Y-78160172D01*
X166600000Y-78174611D01*
X167100000Y-78174611D01*
X167461499Y-78106590D01*
X167793513Y-77892945D01*
X168016250Y-77566959D01*
X168094611Y-77180000D01*
X168094611Y-76280000D01*
X168028700Y-75929715D01*
X168028700Y-75750000D01*
X167938977Y-75298931D01*
X167683467Y-74916533D01*
X167683464Y-74916531D01*
X167645879Y-74878945D01*
X167923467Y-74693467D01*
X168581300Y-74035634D01*
X168581300Y-75070000D01*
G36*
X156146575Y-86259641D02*
X155996545Y-86109611D01*
X156147041Y-86109611D01*
X156146575Y-86259641D01*
X156146575Y-86259641D01*
G37*
X156146575Y-86259641D02*
X155996545Y-86109611D01*
X156147041Y-86109611D01*
X156146575Y-86259641D01*
G36*
X115879491Y-84235910D02*
X116350000Y-84329500D01*
X116413690Y-84329500D01*
X116487055Y-84443513D01*
X116813041Y-84666250D01*
X117200000Y-84744611D01*
X118900000Y-84744611D01*
X119120500Y-84703121D01*
X119120500Y-85000041D01*
X118900000Y-84955389D01*
X117200000Y-84955389D01*
X116838501Y-85023410D01*
X116506487Y-85237055D01*
X116302794Y-85535169D01*
X115956533Y-85766533D01*
X115745971Y-85977095D01*
X115696269Y-85977052D01*
X115694611Y-85977737D01*
X115694611Y-84112377D01*
X115879491Y-84235910D01*
X115879491Y-84235910D01*
G37*
X115879491Y-84235910D02*
X116350000Y-84329500D01*
X116413690Y-84329500D01*
X116487055Y-84443513D01*
X116813041Y-84666250D01*
X117200000Y-84744611D01*
X118900000Y-84744611D01*
X119120500Y-84703121D01*
X119120500Y-85000041D01*
X118900000Y-84955389D01*
X117200000Y-84955389D01*
X116838501Y-85023410D01*
X116506487Y-85237055D01*
X116302794Y-85535169D01*
X115956533Y-85766533D01*
X115745971Y-85977095D01*
X115696269Y-85977052D01*
X115694611Y-85977737D01*
X115694611Y-84112377D01*
X115879491Y-84235910D01*
G36*
X145021300Y-85213709D02*
X145020906Y-85213440D01*
X145021300Y-85212492D01*
X145021300Y-85213709D01*
X145021300Y-85213709D01*
G37*
X145021300Y-85213709D02*
X145020906Y-85213440D01*
X145021300Y-85212492D01*
X145021300Y-85213709D01*
G36*
X174153041Y-82586250D02*
X174540000Y-82664611D01*
X175040000Y-82664611D01*
X175111300Y-82651195D01*
X175111300Y-83441767D01*
X174466533Y-84086533D01*
X174211023Y-84468931D01*
X174121300Y-84920000D01*
X174121300Y-85190662D01*
X173656232Y-84997549D01*
X173132912Y-84997093D01*
X173132948Y-84956269D01*
X172915292Y-84429501D01*
X172512619Y-84026124D01*
X171986232Y-83807549D01*
X171416269Y-83807052D01*
X171081940Y-83945194D01*
X170892945Y-83651487D01*
X170566959Y-83428750D01*
X170180000Y-83350389D01*
X169380000Y-83350389D01*
X169018501Y-83418410D01*
X169017878Y-83418811D01*
X168718700Y-83358226D01*
X168718700Y-82908234D01*
X169228234Y-82398700D01*
X173878553Y-82398700D01*
X174153041Y-82586250D01*
X174153041Y-82586250D01*
G37*
X174153041Y-82586250D02*
X174540000Y-82664611D01*
X175040000Y-82664611D01*
X175111300Y-82651195D01*
X175111300Y-83441767D01*
X174466533Y-84086533D01*
X174211023Y-84468931D01*
X174121300Y-84920000D01*
X174121300Y-85190662D01*
X173656232Y-84997549D01*
X173132912Y-84997093D01*
X173132948Y-84956269D01*
X172915292Y-84429501D01*
X172512619Y-84026124D01*
X171986232Y-83807549D01*
X171416269Y-83807052D01*
X171081940Y-83945194D01*
X170892945Y-83651487D01*
X170566959Y-83428750D01*
X170180000Y-83350389D01*
X169380000Y-83350389D01*
X169018501Y-83418410D01*
X169017878Y-83418811D01*
X168718700Y-83358226D01*
X168718700Y-82908234D01*
X169228234Y-82398700D01*
X173878553Y-82398700D01*
X174153041Y-82586250D01*
G36*
X144578931Y-81998977D02*
X144769870Y-82036957D01*
X144823410Y-82321499D01*
X144911783Y-82458835D01*
X144833750Y-82573041D01*
X144755389Y-82960000D01*
X144755389Y-83449196D01*
X144582619Y-83276124D01*
X144056232Y-83057549D01*
X143623930Y-83057172D01*
X143870499Y-82955292D01*
X144273876Y-82552619D01*
X144492451Y-82026232D01*
X144492525Y-81941242D01*
X144578931Y-81998977D01*
X144578931Y-81998977D01*
G37*
X144578931Y-81998977D02*
X144769870Y-82036957D01*
X144823410Y-82321499D01*
X144911783Y-82458835D01*
X144833750Y-82573041D01*
X144755389Y-82960000D01*
X144755389Y-83449196D01*
X144582619Y-83276124D01*
X144056232Y-83057549D01*
X143623930Y-83057172D01*
X143870499Y-82955292D01*
X144273876Y-82552619D01*
X144492451Y-82026232D01*
X144492525Y-81941242D01*
X144578931Y-81998977D01*
G36*
X143206070Y-83172828D02*
X143079297Y-83225209D01*
X143047945Y-83176487D01*
X143042381Y-83172685D01*
X143206070Y-83172828D01*
X143206070Y-83172828D01*
G37*
X143206070Y-83172828D02*
X143079297Y-83225209D01*
X143047945Y-83176487D01*
X143042381Y-83172685D01*
X143206070Y-83172828D01*
G36*
X109700500Y-81229276D02*
X109700500Y-82715615D01*
X109650000Y-82705389D01*
X109504829Y-82705389D01*
X109244388Y-82315612D01*
X108854388Y-81925612D01*
X108807873Y-81894531D01*
X108973513Y-81787945D01*
X109196250Y-81461959D01*
X109274611Y-81075000D01*
X109274611Y-80803387D01*
X109700500Y-81229276D01*
X109700500Y-81229276D01*
G37*
X109700500Y-81229276D02*
X109700500Y-82715615D01*
X109650000Y-82705389D01*
X109504829Y-82705389D01*
X109244388Y-82315612D01*
X108854388Y-81925612D01*
X108807873Y-81894531D01*
X108973513Y-81787945D01*
X109196250Y-81461959D01*
X109274611Y-81075000D01*
X109274611Y-80803387D01*
X109700500Y-81229276D01*
G36*
X102010612Y-80669388D02*
X102409490Y-80935910D01*
X102880000Y-81029500D01*
X104025389Y-81029500D01*
X104025389Y-81075000D01*
X104093410Y-81436499D01*
X104307055Y-81768513D01*
X104336084Y-81788348D01*
X104408595Y-82152884D01*
X104127703Y-82205738D01*
X103805000Y-82140389D01*
X103205000Y-82140389D01*
X102857703Y-82205738D01*
X102535000Y-82140389D01*
X101935000Y-82140389D01*
X101587703Y-82205738D01*
X101265000Y-82140389D01*
X100665000Y-82140389D01*
X100317703Y-82205738D01*
X99995000Y-82140389D01*
X99395000Y-82140389D01*
X99047703Y-82205738D01*
X98725000Y-82140389D01*
X98125000Y-82140389D01*
X97777703Y-82205738D01*
X97455000Y-82140389D01*
X97376545Y-82140389D01*
X100233467Y-79283467D01*
X100390169Y-79048945D01*
X102010612Y-80669388D01*
X102010612Y-80669388D01*
G37*
X102010612Y-80669388D02*
X102409490Y-80935910D01*
X102880000Y-81029500D01*
X104025389Y-81029500D01*
X104025389Y-81075000D01*
X104093410Y-81436499D01*
X104307055Y-81768513D01*
X104336084Y-81788348D01*
X104408595Y-82152884D01*
X104127703Y-82205738D01*
X103805000Y-82140389D01*
X103205000Y-82140389D01*
X102857703Y-82205738D01*
X102535000Y-82140389D01*
X101935000Y-82140389D01*
X101587703Y-82205738D01*
X101265000Y-82140389D01*
X100665000Y-82140389D01*
X100317703Y-82205738D01*
X99995000Y-82140389D01*
X99395000Y-82140389D01*
X99047703Y-82205738D01*
X98725000Y-82140389D01*
X98125000Y-82140389D01*
X97777703Y-82205738D01*
X97455000Y-82140389D01*
X97376545Y-82140389D01*
X100233467Y-79283467D01*
X100390169Y-79048945D01*
X102010612Y-80669388D01*
G36*
X155051300Y-81944366D02*
X154968467Y-81861533D01*
X154883464Y-81804736D01*
X154899611Y-81725000D01*
X154899611Y-81125000D01*
X154834262Y-80777703D01*
X154899611Y-80455000D01*
X154899611Y-80332866D01*
X154993731Y-80332948D01*
X155051300Y-80309161D01*
X155051300Y-81944366D01*
X155051300Y-81944366D01*
G37*
X155051300Y-81944366D02*
X154968467Y-81861533D01*
X154883464Y-81804736D01*
X154899611Y-81725000D01*
X154899611Y-81125000D01*
X154834262Y-80777703D01*
X154899611Y-80455000D01*
X154899611Y-80332866D01*
X154993731Y-80332948D01*
X155051300Y-80309161D01*
X155051300Y-81944366D01*
G36*
X116922671Y-81507572D02*
X116838501Y-81523410D01*
X116639950Y-81651174D01*
X116183387Y-81194611D01*
X116750000Y-81194611D01*
X116859892Y-81173933D01*
X116922671Y-81507572D01*
X116922671Y-81507572D01*
G37*
X116922671Y-81507572D02*
X116838501Y-81523410D01*
X116639950Y-81651174D01*
X116183387Y-81194611D01*
X116750000Y-81194611D01*
X116859892Y-81173933D01*
X116922671Y-81507572D01*
G36*
X127520612Y-79259388D02*
X127919491Y-79525910D01*
X128390000Y-79619500D01*
X128820083Y-79619500D01*
X128797549Y-79673768D01*
X128797052Y-80243731D01*
X129014708Y-80770499D01*
X129051300Y-80807155D01*
X129051300Y-81284366D01*
X126293467Y-78526533D01*
X126225460Y-78481092D01*
X126301264Y-78100000D01*
X126286376Y-78025152D01*
X127520612Y-79259388D01*
X127520612Y-79259388D01*
G37*
X127520612Y-79259388D02*
X127919491Y-79525910D01*
X128390000Y-79619500D01*
X128820083Y-79619500D01*
X128797549Y-79673768D01*
X128797052Y-80243731D01*
X129014708Y-80770499D01*
X129051300Y-80807155D01*
X129051300Y-81284366D01*
X126293467Y-78526533D01*
X126225460Y-78481092D01*
X126301264Y-78100000D01*
X126286376Y-78025152D01*
X127520612Y-79259388D01*
G36*
X133782524Y-81061300D02*
X132581447Y-81061300D01*
X132306959Y-80873750D01*
X131920000Y-80795389D01*
X131421066Y-80795389D01*
X131443876Y-80772619D01*
X131662451Y-80246232D01*
X131662565Y-80115582D01*
X131911717Y-80115799D01*
X132546141Y-79853661D01*
X132560526Y-79839302D01*
X133782524Y-81061300D01*
X133782524Y-81061300D01*
G37*
X133782524Y-81061300D02*
X132581447Y-81061300D01*
X132306959Y-80873750D01*
X131920000Y-80795389D01*
X131421066Y-80795389D01*
X131443876Y-80772619D01*
X131662451Y-80246232D01*
X131662565Y-80115582D01*
X131911717Y-80115799D01*
X132546141Y-79853661D01*
X132560526Y-79839302D01*
X133782524Y-81061300D01*
G36*
X141680021Y-80640340D02*
X141638700Y-80667950D01*
X141638700Y-80648234D01*
X141674727Y-80612207D01*
X141680021Y-80640340D01*
X141680021Y-80640340D01*
G37*
X141680021Y-80640340D02*
X141638700Y-80667950D01*
X141638700Y-80648234D01*
X141674727Y-80612207D01*
X141680021Y-80640340D01*
G36*
X94848734Y-79684332D02*
X94846500Y-79672458D01*
X94846500Y-79431215D01*
X94999190Y-79329190D01*
X95397669Y-78930711D01*
X95595082Y-78891443D01*
X95735341Y-78797725D01*
X94848734Y-79684332D01*
X94848734Y-79684332D01*
G37*
X94848734Y-79684332D02*
X94846500Y-79672458D01*
X94846500Y-79431215D01*
X94999190Y-79329190D01*
X95397669Y-78930711D01*
X95595082Y-78891443D01*
X95735341Y-78797725D01*
X94848734Y-79684332D01*
G36*
X147643410Y-79201499D02*
X147731783Y-79338835D01*
X147653750Y-79453041D01*
X147616454Y-79637214D01*
X147586590Y-79478501D01*
X147498217Y-79341165D01*
X147576250Y-79226959D01*
X147613546Y-79042786D01*
X147643410Y-79201499D01*
X147643410Y-79201499D01*
G37*
X147643410Y-79201499D02*
X147731783Y-79338835D01*
X147653750Y-79453041D01*
X147616454Y-79637214D01*
X147586590Y-79478501D01*
X147498217Y-79341165D01*
X147576250Y-79226959D01*
X147613546Y-79042786D01*
X147643410Y-79201499D01*
G36*
X139697549Y-75213768D02*
X139697052Y-75783731D01*
X139914708Y-76310499D01*
X140317381Y-76713876D01*
X140608364Y-76834703D01*
X138871542Y-78571524D01*
X138356232Y-78357549D01*
X138175529Y-78357391D01*
X138175799Y-78048283D01*
X137913661Y-77413859D01*
X137428694Y-76928045D01*
X136794729Y-76664800D01*
X136108283Y-76664201D01*
X135694110Y-76835334D01*
X134869500Y-76010724D01*
X134869500Y-75928922D01*
X134956250Y-75801959D01*
X135034611Y-75415000D01*
X135034611Y-75178700D01*
X139712111Y-75178700D01*
X139697549Y-75213768D01*
X139697549Y-75213768D01*
G37*
X139697549Y-75213768D02*
X139697052Y-75783731D01*
X139914708Y-76310499D01*
X140317381Y-76713876D01*
X140608364Y-76834703D01*
X138871542Y-78571524D01*
X138356232Y-78357549D01*
X138175529Y-78357391D01*
X138175799Y-78048283D01*
X137913661Y-77413859D01*
X137428694Y-76928045D01*
X136794729Y-76664800D01*
X136108283Y-76664201D01*
X135694110Y-76835334D01*
X134869500Y-76010724D01*
X134869500Y-75928922D01*
X134956250Y-75801959D01*
X135034611Y-75415000D01*
X135034611Y-75178700D01*
X139712111Y-75178700D01*
X139697549Y-75213768D01*
G36*
X102500000Y-74794611D02*
X104000000Y-74794611D01*
X104320500Y-74734305D01*
X104320500Y-77820817D01*
X104103750Y-78138041D01*
X104025389Y-78525000D01*
X104025389Y-78570500D01*
X103389276Y-78570500D01*
X102179500Y-77360724D01*
X102179500Y-74729708D01*
X102500000Y-74794611D01*
X102500000Y-74794611D01*
G37*
X102500000Y-74794611D02*
X104000000Y-74794611D01*
X104320500Y-74734305D01*
X104320500Y-77820817D01*
X104103750Y-78138041D01*
X104025389Y-78525000D01*
X104025389Y-78570500D01*
X103389276Y-78570500D01*
X102179500Y-77360724D01*
X102179500Y-74729708D01*
X102500000Y-74794611D01*
G36*
X117121300Y-77788553D02*
X116933750Y-78063041D01*
X116859916Y-78427647D01*
X116750000Y-78405389D01*
X116528700Y-78405389D01*
X116528700Y-77894611D01*
X116600000Y-77894611D01*
X116961499Y-77826590D01*
X117121300Y-77723761D01*
X117121300Y-77788553D01*
X117121300Y-77788553D01*
G37*
X117121300Y-77788553D02*
X116933750Y-78063041D01*
X116859916Y-78427647D01*
X116750000Y-78405389D01*
X116528700Y-78405389D01*
X116528700Y-77894611D01*
X116600000Y-77894611D01*
X116961499Y-77826590D01*
X117121300Y-77723761D01*
X117121300Y-77788553D01*
G36*
X164171300Y-78054366D02*
X164118366Y-78001432D01*
X164171300Y-77967370D01*
X164171300Y-78054366D01*
X164171300Y-78054366D01*
G37*
X164171300Y-78054366D02*
X164118366Y-78001432D01*
X164171300Y-77967370D01*
X164171300Y-78054366D01*
G36*
X113105389Y-76900000D02*
X113173410Y-77261499D01*
X113387055Y-77593513D01*
X113638604Y-77765389D01*
X113420000Y-77765389D01*
X113058501Y-77833410D01*
X112921165Y-77921783D01*
X112806959Y-77843750D01*
X112420000Y-77765389D01*
X111920000Y-77765389D01*
X111767386Y-77794105D01*
X111893513Y-77712945D01*
X112116250Y-77386959D01*
X112194611Y-77000000D01*
X112194611Y-76741665D01*
X112522546Y-76522546D01*
X113105389Y-75939703D01*
X113105389Y-76900000D01*
X113105389Y-76900000D01*
G37*
X113105389Y-76900000D02*
X113173410Y-77261499D01*
X113387055Y-77593513D01*
X113638604Y-77765389D01*
X113420000Y-77765389D01*
X113058501Y-77833410D01*
X112921165Y-77921783D01*
X112806959Y-77843750D01*
X112420000Y-77765389D01*
X111920000Y-77765389D01*
X111767386Y-77794105D01*
X111893513Y-77712945D01*
X112116250Y-77386959D01*
X112194611Y-77000000D01*
X112194611Y-76741665D01*
X112522546Y-76522546D01*
X113105389Y-75939703D01*
X113105389Y-76900000D01*
G36*
X153531300Y-77590389D02*
X152422587Y-77590389D01*
X152422948Y-77176269D01*
X152361974Y-77028700D01*
X153531300Y-77028700D01*
X153531300Y-77590389D01*
X153531300Y-77590389D01*
G37*
X153531300Y-77590389D02*
X152422587Y-77590389D01*
X152422948Y-77176269D01*
X152361974Y-77028700D01*
X153531300Y-77028700D01*
X153531300Y-77590389D01*
G36*
X107773410Y-77361499D02*
X107882088Y-77530389D01*
X107772500Y-77530389D01*
X107772500Y-77356663D01*
X107773410Y-77361499D01*
X107773410Y-77361499D01*
G37*
X107773410Y-77361499D02*
X107882088Y-77530389D01*
X107772500Y-77530389D01*
X107772500Y-77356663D01*
X107773410Y-77361499D01*
G36*
X131353041Y-76331250D02*
X131740000Y-76409611D01*
X132410500Y-76409611D01*
X132410500Y-76520000D01*
X132486531Y-76902233D01*
X131914729Y-76664800D01*
X131228283Y-76664201D01*
X130593859Y-76926339D01*
X130359289Y-77160500D01*
X129038276Y-77160500D01*
X129039388Y-77159388D01*
X129305910Y-76760509D01*
X129375708Y-76409611D01*
X130070000Y-76409611D01*
X130431499Y-76341590D01*
X130543530Y-76269500D01*
X131262667Y-76269500D01*
X131353041Y-76331250D01*
X131353041Y-76331250D01*
G37*
X131353041Y-76331250D02*
X131740000Y-76409611D01*
X132410500Y-76409611D01*
X132410500Y-76520000D01*
X132486531Y-76902233D01*
X131914729Y-76664800D01*
X131228283Y-76664201D01*
X130593859Y-76926339D01*
X130359289Y-77160500D01*
X129038276Y-77160500D01*
X129039388Y-77159388D01*
X129305910Y-76760509D01*
X129375708Y-76409611D01*
X130070000Y-76409611D01*
X130431499Y-76341590D01*
X130543530Y-76269500D01*
X131262667Y-76269500D01*
X131353041Y-76331250D01*
G36*
X157071300Y-75500000D02*
X157082959Y-75558613D01*
X156718931Y-75631023D01*
X156336533Y-75886533D01*
X155888700Y-76334366D01*
X155888700Y-76100000D01*
X155798977Y-75648931D01*
X155678551Y-75468700D01*
X157071300Y-75468700D01*
X157071300Y-75500000D01*
X157071300Y-75500000D01*
G37*
X157071300Y-75500000D02*
X157082959Y-75558613D01*
X156718931Y-75631023D01*
X156336533Y-75886533D01*
X155888700Y-76334366D01*
X155888700Y-76100000D01*
X155798977Y-75648931D01*
X155678551Y-75468700D01*
X157071300Y-75468700D01*
X157071300Y-75500000D01*
G36*
X118738041Y-75071250D02*
X119125000Y-75149611D01*
X120502282Y-75149611D01*
X120429491Y-75164090D01*
X120030612Y-75430612D01*
X120030610Y-75430615D01*
X119480612Y-75980612D01*
X119463172Y-76006713D01*
X119442619Y-75986124D01*
X118916232Y-75767549D01*
X118346269Y-75767052D01*
X117819501Y-75984708D01*
X117594611Y-76209206D01*
X117594611Y-75507900D01*
X117670000Y-75507900D01*
X118101629Y-75422044D01*
X118467546Y-75177546D01*
X118640493Y-75004599D01*
X118738041Y-75071250D01*
X118738041Y-75071250D01*
G37*
X118738041Y-75071250D02*
X119125000Y-75149611D01*
X120502282Y-75149611D01*
X120429491Y-75164090D01*
X120030612Y-75430612D01*
X120030610Y-75430615D01*
X119480612Y-75980612D01*
X119463172Y-76006713D01*
X119442619Y-75986124D01*
X118916232Y-75767549D01*
X118346269Y-75767052D01*
X117819501Y-75984708D01*
X117594611Y-76209206D01*
X117594611Y-75507900D01*
X117670000Y-75507900D01*
X118101629Y-75422044D01*
X118467546Y-75177546D01*
X118640493Y-75004599D01*
X118738041Y-75071250D01*
G36*
X108720500Y-66389276D02*
X108720500Y-68405389D01*
X108700000Y-68405389D01*
X108338501Y-68473410D01*
X108006487Y-68687055D01*
X107783750Y-69013041D01*
X107705389Y-69400000D01*
X107705389Y-71950000D01*
X107773410Y-72311499D01*
X107987055Y-72643513D01*
X108313041Y-72866250D01*
X108700000Y-72944611D01*
X111200000Y-72944611D01*
X111561499Y-72876590D01*
X111893513Y-72662945D01*
X112116250Y-72336959D01*
X112194611Y-71950000D01*
X112194611Y-71904500D01*
X113105389Y-71904500D01*
X113105389Y-73252100D01*
X113070000Y-73252100D01*
X112638371Y-73337956D01*
X112272454Y-73582454D01*
X111985565Y-73869343D01*
X111912945Y-73756487D01*
X111586959Y-73533750D01*
X111200000Y-73455389D01*
X108700000Y-73455389D01*
X108338501Y-73523410D01*
X108006487Y-73737055D01*
X107783750Y-74063041D01*
X107705389Y-74450000D01*
X107705389Y-74646292D01*
X107403092Y-74706423D01*
X107045415Y-74945415D01*
X106779500Y-75211330D01*
X106779500Y-74650658D01*
X106993513Y-74512945D01*
X107216250Y-74186959D01*
X107294611Y-73800000D01*
X107294611Y-71800000D01*
X107226590Y-71438501D01*
X107012945Y-71106487D01*
X106896500Y-71026923D01*
X106896500Y-70269142D01*
X106972451Y-70086232D01*
X106972948Y-69516269D01*
X106755292Y-68989501D01*
X106352619Y-68586124D01*
X105826232Y-68367549D01*
X105603553Y-68367355D01*
X105843513Y-68212945D01*
X106066250Y-67886959D01*
X106144611Y-67500000D01*
X106144611Y-65645496D01*
X106719463Y-65645998D01*
X107609476Y-65278252D01*
X108720500Y-66389276D01*
X108720500Y-66389276D01*
G37*
X108720500Y-66389276D02*
X108720500Y-68405389D01*
X108700000Y-68405389D01*
X108338501Y-68473410D01*
X108006487Y-68687055D01*
X107783750Y-69013041D01*
X107705389Y-69400000D01*
X107705389Y-71950000D01*
X107773410Y-72311499D01*
X107987055Y-72643513D01*
X108313041Y-72866250D01*
X108700000Y-72944611D01*
X111200000Y-72944611D01*
X111561499Y-72876590D01*
X111893513Y-72662945D01*
X112116250Y-72336959D01*
X112194611Y-71950000D01*
X112194611Y-71904500D01*
X113105389Y-71904500D01*
X113105389Y-73252100D01*
X113070000Y-73252100D01*
X112638371Y-73337956D01*
X112272454Y-73582454D01*
X111985565Y-73869343D01*
X111912945Y-73756487D01*
X111586959Y-73533750D01*
X111200000Y-73455389D01*
X108700000Y-73455389D01*
X108338501Y-73523410D01*
X108006487Y-73737055D01*
X107783750Y-74063041D01*
X107705389Y-74450000D01*
X107705389Y-74646292D01*
X107403092Y-74706423D01*
X107045415Y-74945415D01*
X106779500Y-75211330D01*
X106779500Y-74650658D01*
X106993513Y-74512945D01*
X107216250Y-74186959D01*
X107294611Y-73800000D01*
X107294611Y-71800000D01*
X107226590Y-71438501D01*
X107012945Y-71106487D01*
X106896500Y-71026923D01*
X106896500Y-70269142D01*
X106972451Y-70086232D01*
X106972948Y-69516269D01*
X106755292Y-68989501D01*
X106352619Y-68586124D01*
X105826232Y-68367549D01*
X105603553Y-68367355D01*
X105843513Y-68212945D01*
X106066250Y-67886959D01*
X106144611Y-67500000D01*
X106144611Y-65645496D01*
X106719463Y-65645998D01*
X107609476Y-65278252D01*
X108720500Y-66389276D01*
G36*
X122805389Y-66450000D02*
X122873410Y-66811499D01*
X123087055Y-67143513D01*
X123413041Y-67366250D01*
X123800000Y-67444611D01*
X125750000Y-67444611D01*
X126111499Y-67376590D01*
X126300335Y-67255078D01*
X126463041Y-67366250D01*
X126850000Y-67444611D01*
X126989149Y-67444611D01*
X126819501Y-67514708D01*
X126782845Y-67551300D01*
X124330005Y-67551300D01*
X124330000Y-67551299D01*
X123904636Y-67635910D01*
X123878931Y-67641023D01*
X123496533Y-67896533D01*
X123496531Y-67896536D01*
X122936533Y-68456533D01*
X122681023Y-68838931D01*
X122591300Y-69290000D01*
X122591300Y-71160000D01*
X122622159Y-71315137D01*
X122601300Y-71420000D01*
X122601300Y-74630000D01*
X122688921Y-75070500D01*
X121053733Y-75070500D01*
X121368513Y-74867945D01*
X121591250Y-74541959D01*
X121669611Y-74155000D01*
X121669611Y-73555000D01*
X121604262Y-73207703D01*
X121669611Y-72885000D01*
X121669611Y-72285000D01*
X121604262Y-71937703D01*
X121669611Y-71615000D01*
X121669611Y-71015000D01*
X121604262Y-70667703D01*
X121669611Y-70345000D01*
X121669611Y-69745000D01*
X121601590Y-69383501D01*
X121387945Y-69051487D01*
X121061959Y-68828750D01*
X120675000Y-68750389D01*
X119125000Y-68750389D01*
X118825517Y-68806741D01*
X118754500Y-68735724D01*
X118754500Y-67444611D01*
X118800000Y-67444611D01*
X119161499Y-67376590D01*
X119493513Y-67162945D01*
X119716250Y-66836959D01*
X119764845Y-66596991D01*
X120000000Y-66644611D01*
X120500000Y-66644611D01*
X120861499Y-66576590D01*
X120998835Y-66488217D01*
X121113041Y-66566250D01*
X121500000Y-66644611D01*
X122000000Y-66644611D01*
X122361499Y-66576590D01*
X122590084Y-66429500D01*
X122805389Y-66429500D01*
X122805389Y-66450000D01*
X122805389Y-66450000D01*
G37*
X122805389Y-66450000D02*
X122873410Y-66811499D01*
X123087055Y-67143513D01*
X123413041Y-67366250D01*
X123800000Y-67444611D01*
X125750000Y-67444611D01*
X126111499Y-67376590D01*
X126300335Y-67255078D01*
X126463041Y-67366250D01*
X126850000Y-67444611D01*
X126989149Y-67444611D01*
X126819501Y-67514708D01*
X126782845Y-67551300D01*
X124330005Y-67551300D01*
X124330000Y-67551299D01*
X123904636Y-67635910D01*
X123878931Y-67641023D01*
X123496533Y-67896533D01*
X123496531Y-67896536D01*
X122936533Y-68456533D01*
X122681023Y-68838931D01*
X122591300Y-69290000D01*
X122591300Y-71160000D01*
X122622159Y-71315137D01*
X122601300Y-71420000D01*
X122601300Y-74630000D01*
X122688921Y-75070500D01*
X121053733Y-75070500D01*
X121368513Y-74867945D01*
X121591250Y-74541959D01*
X121669611Y-74155000D01*
X121669611Y-73555000D01*
X121604262Y-73207703D01*
X121669611Y-72885000D01*
X121669611Y-72285000D01*
X121604262Y-71937703D01*
X121669611Y-71615000D01*
X121669611Y-71015000D01*
X121604262Y-70667703D01*
X121669611Y-70345000D01*
X121669611Y-69745000D01*
X121601590Y-69383501D01*
X121387945Y-69051487D01*
X121061959Y-68828750D01*
X120675000Y-68750389D01*
X119125000Y-68750389D01*
X118825517Y-68806741D01*
X118754500Y-68735724D01*
X118754500Y-67444611D01*
X118800000Y-67444611D01*
X119161499Y-67376590D01*
X119493513Y-67162945D01*
X119716250Y-66836959D01*
X119764845Y-66596991D01*
X120000000Y-66644611D01*
X120500000Y-66644611D01*
X120861499Y-66576590D01*
X120998835Y-66488217D01*
X121113041Y-66566250D01*
X121500000Y-66644611D01*
X122000000Y-66644611D01*
X122361499Y-66576590D01*
X122590084Y-66429500D01*
X122805389Y-66429500D01*
X122805389Y-66450000D01*
G36*
X177851300Y-73641300D02*
X177838270Y-73641300D01*
X177636959Y-73503750D01*
X177250000Y-73425389D01*
X176350000Y-73425389D01*
X176240108Y-73446067D01*
X176176590Y-73108501D01*
X175962945Y-72776487D01*
X175829555Y-72685346D01*
X175900000Y-72699611D01*
X176700000Y-72699611D01*
X177061499Y-72631590D01*
X177271480Y-72496471D01*
X177661069Y-72418977D01*
X177851300Y-72291869D01*
X177851300Y-73641300D01*
X177851300Y-73641300D01*
G37*
X177851300Y-73641300D02*
X177838270Y-73641300D01*
X177636959Y-73503750D01*
X177250000Y-73425389D01*
X176350000Y-73425389D01*
X176240108Y-73446067D01*
X176176590Y-73108501D01*
X175962945Y-72776487D01*
X175829555Y-72685346D01*
X175900000Y-72699611D01*
X176700000Y-72699611D01*
X177061499Y-72631590D01*
X177271480Y-72496471D01*
X177661069Y-72418977D01*
X177851300Y-72291869D01*
X177851300Y-73641300D01*
G36*
X146024366Y-73061300D02*
X145898700Y-73061300D01*
X145898700Y-72935634D01*
X146024366Y-73061300D01*
X146024366Y-73061300D01*
G37*
X146024366Y-73061300D02*
X145898700Y-73061300D01*
X145898700Y-72935634D01*
X146024366Y-73061300D01*
G36*
X117455612Y-70914388D02*
X117854491Y-71180910D01*
X118130389Y-71235789D01*
X118130389Y-71615000D01*
X118195738Y-71962297D01*
X118130389Y-72285000D01*
X118130389Y-72739952D01*
X117763371Y-72812956D01*
X117594611Y-72925718D01*
X117594611Y-71900000D01*
X117526590Y-71538501D01*
X117312945Y-71206487D01*
X116986959Y-70983750D01*
X116796295Y-70945140D01*
X116812451Y-70906232D01*
X116812948Y-70336269D01*
X116767500Y-70226276D01*
X117455612Y-70914388D01*
X117455612Y-70914388D01*
G37*
X117455612Y-70914388D02*
X117854491Y-71180910D01*
X118130389Y-71235789D01*
X118130389Y-71615000D01*
X118195738Y-71962297D01*
X118130389Y-72285000D01*
X118130389Y-72739952D01*
X117763371Y-72812956D01*
X117594611Y-72925718D01*
X117594611Y-71900000D01*
X117526590Y-71538501D01*
X117312945Y-71206487D01*
X116986959Y-70983750D01*
X116796295Y-70945140D01*
X116812451Y-70906232D01*
X116812948Y-70336269D01*
X116767500Y-70226276D01*
X117455612Y-70914388D01*
G36*
X173774214Y-72681300D02*
X173747132Y-72681300D01*
X173822803Y-72650033D01*
X173774214Y-72681300D01*
X173774214Y-72681300D01*
G37*
X173774214Y-72681300D02*
X173747132Y-72681300D01*
X173822803Y-72650033D01*
X173774214Y-72681300D01*
G36*
X159796533Y-72426533D02*
X159762860Y-72476928D01*
X159762902Y-72429165D01*
X159849852Y-72373214D01*
X159796533Y-72426533D01*
X159796533Y-72426533D01*
G37*
X159796533Y-72426533D02*
X159762860Y-72476928D01*
X159762902Y-72429165D01*
X159849852Y-72373214D01*
X159796533Y-72426533D01*
G36*
X160015549Y-72207517D02*
X160104113Y-72077900D01*
X160145166Y-72077900D01*
X160015549Y-72207517D01*
X160015549Y-72207517D01*
G37*
X160015549Y-72207517D02*
X160104113Y-72077900D01*
X160145166Y-72077900D01*
X160015549Y-72207517D01*
G36*
X131410000Y-69454611D02*
X132207837Y-69454611D01*
X132133750Y-69563041D01*
X132055389Y-69950000D01*
X132055389Y-72001300D01*
X131544611Y-72001300D01*
X131544611Y-69950000D01*
X131476590Y-69588501D01*
X131387503Y-69450055D01*
X131410000Y-69454611D01*
X131410000Y-69454611D01*
G37*
X131410000Y-69454611D02*
X132207837Y-69454611D01*
X132133750Y-69563041D01*
X132055389Y-69950000D01*
X132055389Y-72001300D01*
X131544611Y-72001300D01*
X131544611Y-69950000D01*
X131476590Y-69588501D01*
X131387503Y-69450055D01*
X131410000Y-69454611D01*
G36*
X100710810Y-70759190D02*
X100779951Y-70805389D01*
X100200000Y-70805389D01*
X99838501Y-70873410D01*
X99506487Y-71087055D01*
X99459127Y-71156369D01*
X98956232Y-70947549D01*
X98386269Y-70947052D01*
X98288700Y-70987367D01*
X98288700Y-70170000D01*
X98198977Y-69718931D01*
X98160216Y-69660921D01*
X98231250Y-69556959D01*
X98309611Y-69170000D01*
X98309611Y-68357991D01*
X100710810Y-70759190D01*
X100710810Y-70759190D01*
G37*
X100710810Y-70759190D02*
X100779951Y-70805389D01*
X100200000Y-70805389D01*
X99838501Y-70873410D01*
X99506487Y-71087055D01*
X99459127Y-71156369D01*
X98956232Y-70947549D01*
X98386269Y-70947052D01*
X98288700Y-70987367D01*
X98288700Y-70170000D01*
X98198977Y-69718931D01*
X98160216Y-69660921D01*
X98231250Y-69556959D01*
X98309611Y-69170000D01*
X98309611Y-68357991D01*
X100710810Y-70759190D01*
G36*
X145311300Y-70604366D02*
X144363467Y-69656533D01*
X144151066Y-69514611D01*
X145130000Y-69514611D01*
X145311300Y-69480497D01*
X145311300Y-70604366D01*
X145311300Y-70604366D01*
G37*
X145311300Y-70604366D02*
X144363467Y-69656533D01*
X144151066Y-69514611D01*
X145130000Y-69514611D01*
X145311300Y-69480497D01*
X145311300Y-70604366D01*
G36*
X188949500Y-70512925D02*
X188780501Y-70260000D01*
X188949500Y-70007075D01*
X188949500Y-70512925D01*
X188949500Y-70512925D01*
G37*
X188949500Y-70512925D02*
X188780501Y-70260000D01*
X188949500Y-70007075D01*
X188949500Y-70512925D01*
G36*
X92020573Y-68136542D02*
X92079491Y-68175910D01*
X92327368Y-68225216D01*
X92353500Y-68265827D01*
X92353500Y-69758119D01*
X92217120Y-69894500D01*
X92030706Y-69894500D01*
X91975500Y-69905481D01*
X91975500Y-68106426D01*
X92020573Y-68136542D01*
X92020573Y-68136542D01*
G37*
X92020573Y-68136542D02*
X92079491Y-68175910D01*
X92327368Y-68225216D01*
X92353500Y-68265827D01*
X92353500Y-69758119D01*
X92217120Y-69894500D01*
X92030706Y-69894500D01*
X91975500Y-69905481D01*
X91975500Y-68106426D01*
X92020573Y-68136542D01*
G36*
X169770738Y-68157297D02*
X169705389Y-68480000D01*
X169705389Y-69080000D01*
X169770738Y-69427297D01*
X169705389Y-69750000D01*
X169705389Y-69887130D01*
X169658700Y-69887089D01*
X169658700Y-68178234D01*
X169756311Y-68080623D01*
X169770738Y-68157297D01*
X169770738Y-68157297D01*
G37*
X169770738Y-68157297D02*
X169705389Y-68480000D01*
X169705389Y-69080000D01*
X169770738Y-69427297D01*
X169705389Y-69750000D01*
X169705389Y-69887130D01*
X169658700Y-69887089D01*
X169658700Y-68178234D01*
X169756311Y-68080623D01*
X169770738Y-68157297D01*
G36*
X153371411Y-64472306D02*
X153702129Y-64538090D01*
X153461023Y-64898931D01*
X153371300Y-65350000D01*
X153371300Y-66660000D01*
X153461023Y-67111069D01*
X153716533Y-67493467D01*
X154356533Y-68133467D01*
X154613833Y-68305389D01*
X153450000Y-68305389D01*
X153088501Y-68373410D01*
X152877433Y-68509228D01*
X152536232Y-68367549D01*
X151966269Y-68367052D01*
X151439501Y-68584708D01*
X151036124Y-68987381D01*
X150821028Y-69505389D01*
X150770000Y-69505389D01*
X150408501Y-69573410D01*
X150271165Y-69661783D01*
X150156959Y-69583750D01*
X149770000Y-69505389D01*
X149270000Y-69505389D01*
X149128700Y-69531977D01*
X149128700Y-67370000D01*
X149038977Y-66918931D01*
X148783467Y-66536533D01*
X147173467Y-64926533D01*
X146791069Y-64671023D01*
X146406919Y-64594611D01*
X147300000Y-64594611D01*
X147661499Y-64526590D01*
X147993513Y-64312945D01*
X148012131Y-64285697D01*
X148291411Y-64472306D01*
X148990000Y-64611264D01*
X149688589Y-64472306D01*
X150260000Y-64090501D01*
X150831411Y-64472306D01*
X151530000Y-64611264D01*
X152228589Y-64472306D01*
X152800000Y-64090501D01*
X153371411Y-64472306D01*
X153371411Y-64472306D01*
G37*
X153371411Y-64472306D02*
X153702129Y-64538090D01*
X153461023Y-64898931D01*
X153371300Y-65350000D01*
X153371300Y-66660000D01*
X153461023Y-67111069D01*
X153716533Y-67493467D01*
X154356533Y-68133467D01*
X154613833Y-68305389D01*
X153450000Y-68305389D01*
X153088501Y-68373410D01*
X152877433Y-68509228D01*
X152536232Y-68367549D01*
X151966269Y-68367052D01*
X151439501Y-68584708D01*
X151036124Y-68987381D01*
X150821028Y-69505389D01*
X150770000Y-69505389D01*
X150408501Y-69573410D01*
X150271165Y-69661783D01*
X150156959Y-69583750D01*
X149770000Y-69505389D01*
X149270000Y-69505389D01*
X149128700Y-69531977D01*
X149128700Y-67370000D01*
X149038977Y-66918931D01*
X148783467Y-66536533D01*
X147173467Y-64926533D01*
X146791069Y-64671023D01*
X146406919Y-64594611D01*
X147300000Y-64594611D01*
X147661499Y-64526590D01*
X147993513Y-64312945D01*
X148012131Y-64285697D01*
X148291411Y-64472306D01*
X148990000Y-64611264D01*
X149688589Y-64472306D01*
X150260000Y-64090501D01*
X150831411Y-64472306D01*
X151530000Y-64611264D01*
X152228589Y-64472306D01*
X152800000Y-64090501D01*
X153371411Y-64472306D01*
G36*
X131923750Y-61513041D02*
X131911952Y-61571300D01*
X125510000Y-61571300D01*
X125058931Y-61661023D01*
X124676533Y-61916533D01*
X123941533Y-62651533D01*
X123729659Y-62968625D01*
X123438501Y-63023410D01*
X123106487Y-63237055D01*
X122883750Y-63563041D01*
X122805389Y-63950000D01*
X122805389Y-63970500D01*
X122587099Y-63970500D01*
X122386959Y-63833750D01*
X122000000Y-63755389D01*
X121500000Y-63755389D01*
X121138501Y-63823410D01*
X121001165Y-63911783D01*
X120886959Y-63833750D01*
X120500000Y-63755389D01*
X120000000Y-63755389D01*
X119766268Y-63799369D01*
X119726590Y-63588501D01*
X119512945Y-63256487D01*
X119186959Y-63033750D01*
X118800000Y-62955389D01*
X116250000Y-62955389D01*
X115888501Y-63023410D01*
X115556487Y-63237055D01*
X115333750Y-63563041D01*
X115255389Y-63950000D01*
X115255389Y-66450000D01*
X115323410Y-66811499D01*
X115537055Y-67143513D01*
X115863041Y-67366250D01*
X116250000Y-67444611D01*
X116295500Y-67444611D01*
X116295500Y-69245000D01*
X116361126Y-69574926D01*
X116192619Y-69406124D01*
X115666232Y-69187549D01*
X115096269Y-69187052D01*
X114569501Y-69404708D01*
X114528638Y-69445500D01*
X112194611Y-69445500D01*
X112194611Y-69400000D01*
X112126590Y-69038501D01*
X111912945Y-68706487D01*
X111586959Y-68483750D01*
X111200000Y-68405389D01*
X111179500Y-68405389D01*
X111179500Y-67440460D01*
X111200000Y-67444611D01*
X113750000Y-67444611D01*
X114111499Y-67376590D01*
X114443513Y-67162945D01*
X114666250Y-66836959D01*
X114744611Y-66450000D01*
X114744611Y-63950000D01*
X114676590Y-63588501D01*
X114462945Y-63256487D01*
X114136959Y-63033750D01*
X113750000Y-62955389D01*
X111200000Y-62955389D01*
X110838501Y-63023410D01*
X110506487Y-63237055D01*
X110283750Y-63563041D01*
X110205389Y-63950000D01*
X110205389Y-64054960D01*
X110159490Y-64064090D01*
X109987672Y-64178896D01*
X109025111Y-63216335D01*
X109025998Y-62200537D01*
X108643780Y-61275500D01*
X132086055Y-61275500D01*
X131923750Y-61513041D01*
X131923750Y-61513041D01*
G37*
X131923750Y-61513041D02*
X131911952Y-61571300D01*
X125510000Y-61571300D01*
X125058931Y-61661023D01*
X124676533Y-61916533D01*
X123941533Y-62651533D01*
X123729659Y-62968625D01*
X123438501Y-63023410D01*
X123106487Y-63237055D01*
X122883750Y-63563041D01*
X122805389Y-63950000D01*
X122805389Y-63970500D01*
X122587099Y-63970500D01*
X122386959Y-63833750D01*
X122000000Y-63755389D01*
X121500000Y-63755389D01*
X121138501Y-63823410D01*
X121001165Y-63911783D01*
X120886959Y-63833750D01*
X120500000Y-63755389D01*
X120000000Y-63755389D01*
X119766268Y-63799369D01*
X119726590Y-63588501D01*
X119512945Y-63256487D01*
X119186959Y-63033750D01*
X118800000Y-62955389D01*
X116250000Y-62955389D01*
X115888501Y-63023410D01*
X115556487Y-63237055D01*
X115333750Y-63563041D01*
X115255389Y-63950000D01*
X115255389Y-66450000D01*
X115323410Y-66811499D01*
X115537055Y-67143513D01*
X115863041Y-67366250D01*
X116250000Y-67444611D01*
X116295500Y-67444611D01*
X116295500Y-69245000D01*
X116361126Y-69574926D01*
X116192619Y-69406124D01*
X115666232Y-69187549D01*
X115096269Y-69187052D01*
X114569501Y-69404708D01*
X114528638Y-69445500D01*
X112194611Y-69445500D01*
X112194611Y-69400000D01*
X112126590Y-69038501D01*
X111912945Y-68706487D01*
X111586959Y-68483750D01*
X111200000Y-68405389D01*
X111179500Y-68405389D01*
X111179500Y-67440460D01*
X111200000Y-67444611D01*
X113750000Y-67444611D01*
X114111499Y-67376590D01*
X114443513Y-67162945D01*
X114666250Y-66836959D01*
X114744611Y-66450000D01*
X114744611Y-63950000D01*
X114676590Y-63588501D01*
X114462945Y-63256487D01*
X114136959Y-63033750D01*
X113750000Y-62955389D01*
X111200000Y-62955389D01*
X110838501Y-63023410D01*
X110506487Y-63237055D01*
X110283750Y-63563041D01*
X110205389Y-63950000D01*
X110205389Y-64054960D01*
X110159490Y-64064090D01*
X109987672Y-64178896D01*
X109025111Y-63216335D01*
X109025998Y-62200537D01*
X108643780Y-61275500D01*
X132086055Y-61275500D01*
X131923750Y-61513041D01*
G36*
X139396615Y-68845389D02*
X139110000Y-68845389D01*
X138748501Y-68913410D01*
X138416487Y-69127055D01*
X138338499Y-69241194D01*
X137896232Y-69057549D01*
X137326269Y-69057052D01*
X136799501Y-69274708D01*
X136510386Y-69563319D01*
X136312945Y-69256487D01*
X136017490Y-69054611D01*
X136680000Y-69054611D01*
X137041499Y-68986590D01*
X137271327Y-68838700D01*
X139395357Y-68838700D01*
X139396615Y-68845389D01*
X139396615Y-68845389D01*
G37*
X139396615Y-68845389D02*
X139110000Y-68845389D01*
X138748501Y-68913410D01*
X138416487Y-69127055D01*
X138338499Y-69241194D01*
X137896232Y-69057549D01*
X137326269Y-69057052D01*
X136799501Y-69274708D01*
X136510386Y-69563319D01*
X136312945Y-69256487D01*
X136017490Y-69054611D01*
X136680000Y-69054611D01*
X137041499Y-68986590D01*
X137271327Y-68838700D01*
X139395357Y-68838700D01*
X139396615Y-68845389D01*
G36*
X142835389Y-68520000D02*
X142903410Y-68881499D01*
X143117055Y-69213513D01*
X143260171Y-69311300D01*
X142528999Y-69311300D01*
X142422945Y-69146487D01*
X142395432Y-69127688D01*
X142546250Y-68906959D01*
X142624611Y-68520000D01*
X142624611Y-66938700D01*
X142835389Y-66938700D01*
X142835389Y-68520000D01*
X142835389Y-68520000D01*
G37*
X142835389Y-68520000D02*
X142903410Y-68881499D01*
X143117055Y-69213513D01*
X143260171Y-69311300D01*
X142528999Y-69311300D01*
X142422945Y-69146487D01*
X142395432Y-69127688D01*
X142546250Y-68906959D01*
X142624611Y-68520000D01*
X142624611Y-66938700D01*
X142835389Y-66938700D01*
X142835389Y-68520000D01*
G36*
X188949500Y-67972925D02*
X188780501Y-67720000D01*
X188949500Y-67467075D01*
X188949500Y-67972925D01*
X188949500Y-67972925D01*
G37*
X188949500Y-67972925D02*
X188780501Y-67720000D01*
X188949500Y-67467075D01*
X188949500Y-67972925D01*
G36*
X129131300Y-67441766D02*
X129021766Y-67551300D01*
X128477734Y-67551300D01*
X128442619Y-67516124D01*
X128270397Y-67444611D01*
X128800000Y-67444611D01*
X129131300Y-67382272D01*
X129131300Y-67441766D01*
X129131300Y-67441766D01*
G37*
X129131300Y-67441766D02*
X129021766Y-67551300D01*
X128477734Y-67551300D01*
X128442619Y-67516124D01*
X128270397Y-67444611D01*
X128800000Y-67444611D01*
X129131300Y-67382272D01*
X129131300Y-67441766D01*
G36*
X100355389Y-65500000D02*
X100355389Y-66567009D01*
X99257991Y-65469611D01*
X99850000Y-65469611D01*
X100211499Y-65401590D01*
X100399863Y-65280381D01*
X100355389Y-65500000D01*
X100355389Y-65500000D01*
G37*
X100355389Y-65500000D02*
X100355389Y-66567009D01*
X99257991Y-65469611D01*
X99850000Y-65469611D01*
X100211499Y-65401590D01*
X100399863Y-65280381D01*
X100355389Y-65500000D01*
G36*
X135051300Y-64698553D02*
X134863750Y-64973041D01*
X134789916Y-65337647D01*
X134680000Y-65315389D01*
X133780000Y-65315389D01*
X133418501Y-65383410D01*
X133302790Y-65457868D01*
X133302948Y-65276269D01*
X133085292Y-64749501D01*
X133038700Y-64702828D01*
X133038700Y-64594611D01*
X134540000Y-64594611D01*
X134901499Y-64526590D01*
X135051300Y-64430196D01*
X135051300Y-64698553D01*
X135051300Y-64698553D01*
G37*
X135051300Y-64698553D02*
X134863750Y-64973041D01*
X134789916Y-65337647D01*
X134680000Y-65315389D01*
X133780000Y-65315389D01*
X133418501Y-65383410D01*
X133302790Y-65457868D01*
X133302948Y-65276269D01*
X133085292Y-64749501D01*
X133038700Y-64702828D01*
X133038700Y-64594611D01*
X134540000Y-64594611D01*
X134901499Y-64526590D01*
X135051300Y-64430196D01*
X135051300Y-64698553D01*
G36*
X170617348Y-64202319D02*
X170631023Y-64271069D01*
X170886533Y-64653467D01*
X171178455Y-64945389D01*
X170700000Y-64945389D01*
X170338501Y-65013410D01*
X170128525Y-65148526D01*
X169953467Y-64886533D01*
X169595542Y-64528608D01*
X169878589Y-64472306D01*
X170450000Y-64090501D01*
X170617348Y-64202319D01*
X170617348Y-64202319D01*
G37*
X170617348Y-64202319D02*
X170631023Y-64271069D01*
X170886533Y-64653467D01*
X171178455Y-64945389D01*
X170700000Y-64945389D01*
X170338501Y-65013410D01*
X170128525Y-65148526D01*
X169953467Y-64886533D01*
X169595542Y-64528608D01*
X169878589Y-64472306D01*
X170450000Y-64090501D01*
X170617348Y-64202319D01*
G36*
X165941411Y-64472306D02*
X166270914Y-64537848D01*
X166678455Y-64945389D01*
X165300000Y-64945389D01*
X165158877Y-64971943D01*
X164682359Y-64495425D01*
X164798589Y-64472306D01*
X165370000Y-64090501D01*
X165941411Y-64472306D01*
X165941411Y-64472306D01*
G37*
X165941411Y-64472306D02*
X166270914Y-64537848D01*
X166678455Y-64945389D01*
X165300000Y-64945389D01*
X165158877Y-64971943D01*
X164682359Y-64495425D01*
X164798589Y-64472306D01*
X165370000Y-64090501D01*
X165941411Y-64472306D01*
G36*
X138071411Y-64472306D02*
X138619361Y-64581300D01*
X137408700Y-64581300D01*
X137408700Y-64151505D01*
X137500000Y-64090501D01*
X138071411Y-64472306D01*
X138071411Y-64472306D01*
G37*
X138071411Y-64472306D02*
X138619361Y-64581300D01*
X137408700Y-64581300D01*
X137408700Y-64151505D01*
X137500000Y-64090501D01*
X138071411Y-64472306D01*
G36*
X140611411Y-64472306D02*
X141159361Y-64581300D01*
X138920639Y-64581300D01*
X139468589Y-64472306D01*
X140040000Y-64090501D01*
X140611411Y-64472306D01*
X140611411Y-64472306D01*
G37*
X140611411Y-64472306D02*
X141159361Y-64581300D01*
X138920639Y-64581300D01*
X139468589Y-64472306D01*
X140040000Y-64090501D01*
X140611411Y-64472306D01*
G36*
X144683750Y-61513041D02*
X144605389Y-61900000D01*
X144605389Y-63600000D01*
X144673410Y-63961499D01*
X144887055Y-64293513D01*
X145213041Y-64516250D01*
X145534268Y-64581300D01*
X141460639Y-64581300D01*
X142008589Y-64472306D01*
X142600823Y-64076587D01*
X142996542Y-63484353D01*
X143135500Y-62785764D01*
X143135500Y-62714236D01*
X142996542Y-62015647D01*
X142600823Y-61423413D01*
X142379456Y-61275500D01*
X144846055Y-61275500D01*
X144683750Y-61513041D01*
X144683750Y-61513041D01*
G37*
X144683750Y-61513041D02*
X144605389Y-61900000D01*
X144605389Y-63600000D01*
X144673410Y-63961499D01*
X144887055Y-64293513D01*
X145213041Y-64516250D01*
X145534268Y-64581300D01*
X141460639Y-64581300D01*
X142008589Y-64472306D01*
X142600823Y-64076587D01*
X142996542Y-63484353D01*
X143135500Y-62785764D01*
X143135500Y-62714236D01*
X142996542Y-62015647D01*
X142600823Y-61423413D01*
X142379456Y-61275500D01*
X144846055Y-61275500D01*
X144683750Y-61513041D01*
G36*
X130681300Y-64514366D02*
X130533467Y-64366533D01*
X130151069Y-64111023D01*
X129794611Y-64040119D01*
X129794611Y-63950000D01*
X129790603Y-63928700D01*
X130681300Y-63928700D01*
X130681300Y-64514366D01*
X130681300Y-64514366D01*
G37*
X130681300Y-64514366D02*
X130533467Y-64366533D01*
X130151069Y-64111023D01*
X129794611Y-64040119D01*
X129794611Y-63950000D01*
X129790603Y-63928700D01*
X130681300Y-63928700D01*
X130681300Y-64514366D01*
G36*
X157729177Y-61423413D02*
X157333458Y-62015647D01*
X157194500Y-62714236D01*
X157194500Y-62785764D01*
X157333458Y-63484353D01*
X157474468Y-63695389D01*
X157090000Y-63695389D01*
X156728501Y-63763410D01*
X156591165Y-63851783D01*
X156476959Y-63773750D01*
X156090000Y-63695389D01*
X155615532Y-63695389D01*
X155756542Y-63484353D01*
X155895500Y-62785764D01*
X155895500Y-62714236D01*
X155756542Y-62015647D01*
X155360823Y-61423413D01*
X155139456Y-61275500D01*
X157950544Y-61275500D01*
X157729177Y-61423413D01*
X157729177Y-61423413D01*
G37*
X157729177Y-61423413D02*
X157333458Y-62015647D01*
X157194500Y-62714236D01*
X157194500Y-62785764D01*
X157333458Y-63484353D01*
X157474468Y-63695389D01*
X157090000Y-63695389D01*
X156728501Y-63763410D01*
X156591165Y-63851783D01*
X156476959Y-63773750D01*
X156090000Y-63695389D01*
X155615532Y-63695389D01*
X155756542Y-63484353D01*
X155895500Y-62785764D01*
X155895500Y-62714236D01*
X155756542Y-62015647D01*
X155360823Y-61423413D01*
X155139456Y-61275500D01*
X157950544Y-61275500D01*
X157729177Y-61423413D01*
G36*
X103513437Y-61621300D02*
X101278234Y-61621300D01*
X100932434Y-61275500D01*
X103657025Y-61275500D01*
X103513437Y-61621300D01*
X103513437Y-61621300D01*
G37*
X103513437Y-61621300D02*
X101278234Y-61621300D01*
X100932434Y-61275500D01*
X103657025Y-61275500D01*
X103513437Y-61621300D01*
G36*
X178525159Y-61458574D02*
X178407354Y-61275500D01*
X178601178Y-61275500D01*
X178525159Y-61458574D01*
X178525159Y-61458574D01*
G37*
X178525159Y-61458574D02*
X178407354Y-61275500D01*
X178601178Y-61275500D01*
X178525159Y-61458574D01*
G36*
X150260000Y-61409499D02*
X150059456Y-61275500D01*
X150460544Y-61275500D01*
X150260000Y-61409499D01*
X150260000Y-61409499D01*
G37*
X150260000Y-61409499D02*
X150059456Y-61275500D01*
X150460544Y-61275500D01*
X150260000Y-61409499D01*
G36*
X152800000Y-61409499D02*
X152599456Y-61275500D01*
X153000544Y-61275500D01*
X152800000Y-61409499D01*
X152800000Y-61409499D01*
G37*
X152800000Y-61409499D02*
X152599456Y-61275500D01*
X153000544Y-61275500D01*
X152800000Y-61409499D01*
G36*
X160290000Y-61409499D02*
X160089456Y-61275500D01*
X160490544Y-61275500D01*
X160290000Y-61409499D01*
X160290000Y-61409499D01*
G37*
X160290000Y-61409499D02*
X160089456Y-61275500D01*
X160490544Y-61275500D01*
X160290000Y-61409499D01*
G36*
X162830000Y-61409499D02*
X162629456Y-61275500D01*
X163030544Y-61275500D01*
X162830000Y-61409499D01*
X162830000Y-61409499D01*
G37*
X162830000Y-61409499D02*
X162629456Y-61275500D01*
X163030544Y-61275500D01*
X162830000Y-61409499D01*
G36*
X165370000Y-61409499D02*
X165169456Y-61275500D01*
X165570544Y-61275500D01*
X165370000Y-61409499D01*
X165370000Y-61409499D01*
G37*
X165370000Y-61409499D02*
X165169456Y-61275500D01*
X165570544Y-61275500D01*
X165370000Y-61409499D01*
G36*
X167910000Y-61409499D02*
X167709456Y-61275500D01*
X168110544Y-61275500D01*
X167910000Y-61409499D01*
X167910000Y-61409499D01*
G37*
X167910000Y-61409499D02*
X167709456Y-61275500D01*
X168110544Y-61275500D01*
X167910000Y-61409499D01*
G36*
X170450000Y-61409499D02*
X170249456Y-61275500D01*
X170650544Y-61275500D01*
X170450000Y-61409499D01*
X170450000Y-61409499D01*
G37*
X170450000Y-61409499D02*
X170249456Y-61275500D01*
X170650544Y-61275500D01*
X170450000Y-61409499D01*
G36*
X172990000Y-61409499D02*
X172789456Y-61275500D01*
X173190544Y-61275500D01*
X172990000Y-61409499D01*
X172990000Y-61409499D01*
G37*
X172990000Y-61409499D02*
X172789456Y-61275500D01*
X173190544Y-61275500D01*
X172990000Y-61409499D01*
G36*
X140040000Y-61409499D02*
X139839456Y-61275500D01*
X140240544Y-61275500D01*
X140040000Y-61409499D01*
X140040000Y-61409499D01*
G37*
X140040000Y-61409499D02*
X139839456Y-61275500D01*
X140240544Y-61275500D01*
X140040000Y-61409499D01*
G36*
X137500000Y-61409499D02*
X137299456Y-61275500D01*
X137700544Y-61275500D01*
X137500000Y-61409499D01*
X137500000Y-61409499D01*
G37*
X137500000Y-61409499D02*
X137299456Y-61275500D01*
X137700544Y-61275500D01*
X137500000Y-61409499D01*
M02*
