G04 #@! TF.FileFunction,Soldermask,Bot*
%FSLAX46Y46*%
G04 Gerber Fmt 4.6, Leading zero omitted, Abs format (unit mm)*
G04 Created by KiCad (PCBNEW 4.0.7-e2-6376~58~ubuntu16.04.1) date Sat Apr 21 07:24:12 2018*
%MOMM*%
%LPD*%
G01*
G04 APERTURE LIST*
%ADD10C,0.100000*%
%ADD11C,3.600000*%
%ADD12C,1.800000*%
%ADD13O,4.500000X2.000000*%
%ADD14O,0.950000X1.250000*%
%ADD15O,1.550000X1.000000*%
%ADD16R,1.000000X2.000000*%
%ADD17R,1.700000X1.700000*%
%ADD18O,1.700000X1.700000*%
%ADD19R,1.500000X1.500000*%
G04 APERTURE END LIST*
D10*
D11*
X187420000Y-111010000D03*
D12*
X94440000Y-107600000D03*
X94440000Y-105100000D03*
X94440000Y-102600000D03*
D13*
X97740000Y-110100000D03*
X97740000Y-100100000D03*
D14*
X94980000Y-72360000D03*
X94980000Y-77360000D03*
D15*
X92280000Y-71360000D03*
X92280000Y-78360000D03*
D16*
X106440000Y-96770000D03*
X104440000Y-96770000D03*
X102440000Y-96770000D03*
X100440000Y-96770000D03*
X98440000Y-96770000D03*
X96440000Y-96770000D03*
X94440000Y-96770000D03*
X92440000Y-96770000D03*
X92440000Y-80770000D03*
X94440000Y-80770000D03*
X96440000Y-80770000D03*
X98440000Y-80770000D03*
X100440000Y-80770000D03*
X102440000Y-80770000D03*
X104440000Y-80770000D03*
X106440000Y-80770000D03*
D17*
X115820000Y-94340000D03*
D18*
X118360000Y-94340000D03*
X120900000Y-94340000D03*
X123440000Y-94340000D03*
X125980000Y-94340000D03*
X128520000Y-94340000D03*
D17*
X126390000Y-62850000D03*
D18*
X128930000Y-62850000D03*
X131470000Y-62850000D03*
X134010000Y-62850000D03*
D17*
X124440000Y-85720000D03*
D18*
X121900000Y-85720000D03*
X124440000Y-83180000D03*
X121900000Y-83180000D03*
X124440000Y-80640000D03*
X121900000Y-80640000D03*
X124440000Y-78100000D03*
X121900000Y-78100000D03*
D19*
X96960000Y-77760000D03*
X96970000Y-71590000D03*
X96960000Y-75700000D03*
X96990000Y-73650000D03*
D17*
X172220000Y-62780000D03*
D18*
X169680000Y-62780000D03*
X167140000Y-62780000D03*
X164600000Y-62780000D03*
X162060000Y-62780000D03*
X159520000Y-62780000D03*
D17*
X151900000Y-62780000D03*
D18*
X154440000Y-62780000D03*
D17*
X118880000Y-111040000D03*
D18*
X121420000Y-111040000D03*
X123960000Y-111040000D03*
X126500000Y-111040000D03*
X129040000Y-111040000D03*
X131580000Y-111040000D03*
X134120000Y-111040000D03*
D17*
X139110000Y-62780000D03*
D18*
X141650000Y-62780000D03*
X144190000Y-62780000D03*
X146730000Y-62780000D03*
D17*
X179840000Y-111040000D03*
D18*
X177300000Y-111040000D03*
X174760000Y-111040000D03*
X172220000Y-111040000D03*
D11*
X181090000Y-62780000D03*
X106150000Y-62770000D03*
X104880000Y-111020000D03*
D17*
X139200000Y-111040000D03*
D18*
X141740000Y-111040000D03*
X144280000Y-111040000D03*
X146820000Y-111040000D03*
X149360000Y-111040000D03*
X151900000Y-111040000D03*
X154440000Y-111040000D03*
X156980000Y-111040000D03*
X159520000Y-111040000D03*
X162060000Y-111040000D03*
X164600000Y-111040000D03*
X167140000Y-111040000D03*
D17*
X184890000Y-70410000D03*
D18*
X187430000Y-70410000D03*
X184890000Y-72950000D03*
X187430000Y-72950000D03*
X184890000Y-75490000D03*
X187430000Y-75490000D03*
X184890000Y-78030000D03*
X187430000Y-78030000D03*
X184890000Y-80570000D03*
X187430000Y-80570000D03*
X184890000Y-83110000D03*
X187430000Y-83110000D03*
X184890000Y-85650000D03*
X187430000Y-85650000D03*
X184890000Y-88190000D03*
X187430000Y-88190000D03*
X184890000Y-90730000D03*
X187430000Y-90730000D03*
X184890000Y-93270000D03*
X187430000Y-93270000D03*
X184890000Y-95810000D03*
X187430000Y-95810000D03*
X184890000Y-98350000D03*
X187430000Y-98350000D03*
X184890000Y-100890000D03*
X187430000Y-100890000D03*
X184890000Y-103430000D03*
X187430000Y-103430000D03*
M02*
