G04 #@! TF.FileFunction,Copper,L4,Bot,Signal*
%FSLAX46Y46*%
G04 Gerber Fmt 4.6, Leading zero omitted, Abs format (unit mm)*
G04 Created by KiCad (PCBNEW 4.0.7-e2-6376~58~ubuntu16.04.1) date Mon Jan 29 23:26:01 2018*
%MOMM*%
%LPD*%
G01*
G04 APERTURE LIST*
%ADD10C,0.100000*%
%ADD11O,0.950000X1.250000*%
%ADD12O,1.550000X1.000000*%
%ADD13C,1.800000*%
%ADD14O,4.500000X2.000000*%
%ADD15R,1.700000X1.700000*%
%ADD16O,1.700000X1.700000*%
%ADD17C,3.800000*%
%ADD18R,1.000000X2.000000*%
%ADD19R,1.500000X1.500000*%
%ADD20C,0.914400*%
%ADD21C,0.406400*%
%ADD22C,0.508000*%
%ADD23C,0.762000*%
%ADD24C,0.254000*%
%ADD25C,0.304800*%
%ADD26C,0.351000*%
G04 APERTURE END LIST*
D10*
D11*
X94980000Y-72360000D03*
X94980000Y-77360000D03*
D12*
X92280000Y-71360000D03*
X92280000Y-78360000D03*
D13*
X94440000Y-108520000D03*
X94440000Y-106020000D03*
X94440000Y-103520000D03*
D14*
X97740000Y-111020000D03*
X97740000Y-101020000D03*
D15*
X184910000Y-76000000D03*
D16*
X187450000Y-76000000D03*
X184910000Y-78540000D03*
X187450000Y-78540000D03*
X184910000Y-81080000D03*
X187450000Y-81080000D03*
X184910000Y-83620000D03*
X187450000Y-83620000D03*
X184910000Y-86160000D03*
X187450000Y-86160000D03*
X184910000Y-88700000D03*
X187450000Y-88700000D03*
X184910000Y-91240000D03*
X187450000Y-91240000D03*
D17*
X104880000Y-111020000D03*
X106150000Y-62770000D03*
X187420000Y-111010000D03*
D18*
X92060000Y-81270000D03*
X94060000Y-81270000D03*
X96060000Y-81270000D03*
X98060000Y-81270000D03*
X100060000Y-81270000D03*
X102060000Y-81270000D03*
X104060000Y-81270000D03*
X106060000Y-81270000D03*
X106060000Y-97270000D03*
X104060000Y-97270000D03*
X102060000Y-97270000D03*
X100060000Y-97270000D03*
X98060000Y-97270000D03*
X96060000Y-97270000D03*
X94060000Y-97270000D03*
X92060000Y-97270000D03*
D15*
X125370000Y-111070000D03*
D16*
X127910000Y-111070000D03*
X130450000Y-111070000D03*
D17*
X181090000Y-62780000D03*
D15*
X115820000Y-94340000D03*
D16*
X118360000Y-94340000D03*
X120900000Y-94340000D03*
X123440000Y-94340000D03*
X125980000Y-94340000D03*
X128520000Y-94340000D03*
D15*
X166470000Y-111060000D03*
D16*
X163930000Y-111060000D03*
X161390000Y-111060000D03*
X158850000Y-111060000D03*
X156310000Y-111060000D03*
X153770000Y-111060000D03*
X151230000Y-111060000D03*
X148690000Y-111060000D03*
D15*
X182070000Y-111040000D03*
D16*
X179530000Y-111040000D03*
X176990000Y-111040000D03*
X174450000Y-111040000D03*
X171910000Y-111040000D03*
D15*
X176800000Y-62750000D03*
D16*
X174260000Y-62750000D03*
X171720000Y-62750000D03*
X169180000Y-62750000D03*
X166640000Y-62750000D03*
X164100000Y-62750000D03*
X161560000Y-62750000D03*
X159020000Y-62750000D03*
D15*
X135820000Y-111070000D03*
D16*
X138360000Y-111070000D03*
X140900000Y-111070000D03*
X143440000Y-111070000D03*
D15*
X184900000Y-66450000D03*
D16*
X187440000Y-66450000D03*
X184900000Y-68990000D03*
X187440000Y-68990000D03*
X184900000Y-71530000D03*
X187440000Y-71530000D03*
D15*
X146450000Y-62750000D03*
D16*
X148990000Y-62750000D03*
X151530000Y-62750000D03*
X154070000Y-62750000D03*
D15*
X184910000Y-95750000D03*
D16*
X187450000Y-95750000D03*
X184910000Y-98290000D03*
X187450000Y-98290000D03*
X184910000Y-100830000D03*
X187450000Y-100830000D03*
X184910000Y-103370000D03*
X187450000Y-103370000D03*
D15*
X133690000Y-62750000D03*
D16*
X136230000Y-62750000D03*
X138770000Y-62750000D03*
X141310000Y-62750000D03*
D15*
X124440000Y-85720000D03*
D16*
X121900000Y-85720000D03*
X124440000Y-83180000D03*
X121900000Y-83180000D03*
X124440000Y-80640000D03*
X121900000Y-80640000D03*
X124440000Y-78100000D03*
X121900000Y-78100000D03*
D19*
X96990000Y-78350000D03*
X96970000Y-71360000D03*
X96950000Y-75940000D03*
X96990000Y-73650000D03*
D20*
X98670000Y-72380000D03*
X136710000Y-93300000D03*
X124330000Y-101530000D03*
X115970000Y-87040000D03*
X156910000Y-82700000D03*
X150740000Y-89920000D03*
X156230000Y-78410000D03*
X170370000Y-93540000D03*
X147760000Y-77420000D03*
X107140000Y-108690000D03*
X133020000Y-107660000D03*
X127630000Y-68730000D03*
X115380000Y-70620000D03*
X155310000Y-72590000D03*
X159010000Y-67910000D03*
X174350000Y-92650000D03*
X105540000Y-69800000D03*
X135050000Y-101580000D03*
X129590000Y-103850000D03*
X129590000Y-100040000D03*
X130230000Y-79960000D03*
X92500000Y-83450000D03*
X143600000Y-84760000D03*
X135660000Y-91120000D03*
X103220000Y-71210000D03*
X103250000Y-68090000D03*
X96450000Y-86500000D03*
X137610000Y-70490000D03*
X138300000Y-87420000D03*
X141630000Y-74640000D03*
X144640000Y-83590000D03*
X168200000Y-95610000D03*
X145600000Y-89800000D03*
X152890000Y-100890000D03*
X110450000Y-92820000D03*
X163700000Y-70050000D03*
X160190000Y-66250000D03*
X118730000Y-98020000D03*
X114970000Y-79230000D03*
X113100000Y-92980000D03*
X173290000Y-71320000D03*
X131870000Y-65560000D03*
X125780000Y-97760000D03*
X93370000Y-73650000D03*
X168200000Y-96860000D03*
X135270000Y-88530000D03*
X142990000Y-77130000D03*
X134060000Y-87080000D03*
X152250000Y-69800000D03*
X136280000Y-87110000D03*
X155600000Y-70600000D03*
X110380000Y-91380000D03*
X135550000Y-94350000D03*
X110300000Y-88350000D03*
X134650000Y-93250000D03*
X181100000Y-90140000D03*
X130575000Y-85775000D03*
X168170000Y-98150000D03*
X139070000Y-94010000D03*
X174410000Y-105450000D03*
X140010000Y-93130000D03*
X176960000Y-105340000D03*
X179530000Y-105240000D03*
X141830000Y-94180000D03*
X182060000Y-105280000D03*
X143880000Y-96440000D03*
X133040000Y-102580000D03*
X161550000Y-71640000D03*
X138650000Y-103850000D03*
X143720000Y-106210000D03*
X141980000Y-80180000D03*
X127140000Y-88330000D03*
X96400000Y-88410000D03*
X115810000Y-92520000D03*
X115920000Y-88390000D03*
X98710000Y-88400000D03*
X147950000Y-71070000D03*
X156050000Y-99410000D03*
X154720000Y-86870000D03*
X151300000Y-82730000D03*
X162170000Y-95860000D03*
X118630000Y-77200000D03*
X162210000Y-79690000D03*
X168120000Y-87620000D03*
X131760000Y-96180000D03*
X168150000Y-91410000D03*
X146200000Y-77420000D03*
X157890000Y-95500000D03*
X167620000Y-66240000D03*
X173060000Y-68780000D03*
X145130000Y-85220000D03*
X173370000Y-86430000D03*
X140550000Y-86300000D03*
X165350000Y-79700000D03*
X169900000Y-71320000D03*
X158330000Y-72660000D03*
X138530000Y-106380000D03*
X105390000Y-107200000D03*
X93400000Y-75940000D03*
X165800000Y-81110000D03*
X166470000Y-82680000D03*
X171700000Y-85240000D03*
X155450000Y-91280000D03*
X151290000Y-81430000D03*
X153170000Y-86850000D03*
X154710000Y-78900000D03*
X175100000Y-90150000D03*
X168170000Y-90160000D03*
X160190000Y-80170000D03*
X150660000Y-85140000D03*
X141810000Y-86650000D03*
X114380000Y-103100000D03*
X138570000Y-102580000D03*
X122130000Y-105380000D03*
X125200000Y-103150000D03*
X102350000Y-102070000D03*
X150990000Y-77460000D03*
X98470000Y-68990000D03*
X152370000Y-93880000D03*
X139900000Y-70440000D03*
X142075000Y-89525000D03*
X97390000Y-90980000D03*
X92200000Y-94570000D03*
D21*
X139450000Y-76500000D02*
X139500000Y-76500000D01*
X139500000Y-76500000D02*
X139450000Y-76500000D01*
X139450000Y-76500000D02*
X139500000Y-76500000D01*
X96990000Y-78350000D02*
X95260000Y-78350000D01*
X95260000Y-78350000D02*
X94980000Y-78070000D01*
X94980000Y-78070000D02*
X94980000Y-77360000D01*
X136710000Y-93300000D02*
X136710000Y-93290000D01*
D22*
X106060000Y-99350000D02*
X106060000Y-97270000D01*
X105530000Y-99880000D02*
X106060000Y-99350000D01*
X104630000Y-99880000D02*
X105530000Y-99880000D01*
D23*
X98660000Y-72370000D02*
X98670000Y-72380000D01*
D22*
X104960000Y-103520000D02*
X104960000Y-103510000D01*
X104960000Y-103510000D02*
X104050000Y-102600000D01*
X94440000Y-103520000D02*
X104960000Y-103520000D01*
X104960000Y-103520000D02*
X107140000Y-105700000D01*
X107140000Y-105700000D02*
X107140000Y-108690000D01*
X98660000Y-72370000D02*
X98670000Y-72380000D01*
D21*
X98670000Y-72380000D02*
X98660000Y-72370000D01*
D22*
X94440000Y-103520000D02*
X103130000Y-103520000D01*
X103130000Y-103520000D02*
X104050000Y-102600000D01*
X104050000Y-102600000D02*
X104060000Y-102590000D01*
X104060000Y-99310000D02*
X104630000Y-99880000D01*
X104060000Y-102590000D02*
X104060000Y-99240000D01*
X104060000Y-99240000D02*
X104060000Y-99310000D01*
X104060000Y-99240000D02*
X104060000Y-97270000D01*
D23*
X105540000Y-69800000D02*
X106860000Y-69800000D01*
X108190000Y-71130000D02*
X108190000Y-96000000D01*
X112230000Y-100040000D02*
X129590000Y-100040000D01*
X108190000Y-96000000D02*
X112230000Y-100040000D01*
X106860000Y-69800000D02*
X108190000Y-71130000D01*
X129590000Y-103850000D02*
X129590000Y-100040000D01*
X129590000Y-100040000D02*
X133510000Y-100040000D01*
X133510000Y-100040000D02*
X135050000Y-101580000D01*
X135660000Y-91120000D02*
X133520000Y-91120000D01*
X128920000Y-80910000D02*
X128920000Y-86520000D01*
X129870000Y-79960000D02*
X128920000Y-80910000D01*
X130230000Y-79960000D02*
X129870000Y-79960000D01*
X133520000Y-91120000D02*
X128920000Y-86520000D01*
X143600000Y-84760000D02*
X138800000Y-84760000D01*
X138800000Y-84760000D02*
X138300000Y-85260000D01*
X92500000Y-83450000D02*
X95550000Y-86500000D01*
X95550000Y-86500000D02*
X96450000Y-86500000D01*
D22*
X95550000Y-86500000D02*
X96450000Y-86500000D01*
D23*
X138300000Y-87420000D02*
X138300000Y-85260000D01*
X138300000Y-85260000D02*
X138300000Y-83790000D01*
X138300000Y-83790000D02*
X138300000Y-71180000D01*
X138300000Y-71180000D02*
X137610000Y-70490000D01*
X135660000Y-91120000D02*
X137700000Y-91120000D01*
X137700000Y-91120000D02*
X138300000Y-90520000D01*
X138300000Y-90520000D02*
X138300000Y-87420000D01*
X102060000Y-97270000D02*
X102060000Y-86500000D01*
X96060000Y-81270000D02*
X96060000Y-86110000D01*
X96060000Y-86110000D02*
X96450000Y-86500000D01*
D22*
X96060000Y-86110000D02*
X96450000Y-86500000D01*
X102110000Y-86490000D02*
X102110000Y-86500000D01*
X102070000Y-86490000D02*
X102110000Y-86490000D01*
X102060000Y-86500000D02*
X102070000Y-86490000D01*
D23*
X96450000Y-86500000D02*
X102110000Y-86500000D01*
X102110000Y-86500000D02*
X103620000Y-86500000D01*
X106060000Y-84060000D02*
X106060000Y-81270000D01*
X103620000Y-86500000D02*
X106060000Y-84060000D01*
X103220000Y-71210000D02*
X103240000Y-73670000D01*
X103240000Y-73670000D02*
X106060000Y-76490000D01*
X106060000Y-76490000D02*
X106060000Y-81270000D01*
X103250000Y-68090000D02*
X103240000Y-71190000D01*
X103240000Y-71190000D02*
X103220000Y-71210000D01*
D21*
X106060000Y-83030000D02*
X106060000Y-81270000D01*
D22*
X103240000Y-71190000D02*
X103220000Y-71210000D01*
D24*
X103220000Y-71210000D02*
X103240000Y-71190000D01*
D25*
X106060000Y-83030000D02*
X106060000Y-81270000D01*
D21*
X144640000Y-83590000D02*
X146000000Y-83590000D01*
X146000000Y-83590000D02*
X146610000Y-84200000D01*
X146610000Y-84200000D02*
X146610000Y-88790000D01*
X146610000Y-88790000D02*
X145600000Y-89800000D01*
D22*
X110450000Y-92820000D02*
X111130000Y-92820000D01*
X111130000Y-92820000D02*
X113270000Y-90680000D01*
X113270000Y-80930000D02*
X114970000Y-79230000D01*
X113270000Y-90680000D02*
X113270000Y-80930000D01*
D23*
X110450000Y-92820000D02*
X110450000Y-95450000D01*
X110450000Y-95450000D02*
X113020000Y-98020000D01*
X113020000Y-98020000D02*
X118730000Y-98020000D01*
D21*
X110450000Y-95450000D02*
X113020000Y-98020000D01*
X113020000Y-98020000D02*
X118730000Y-98020000D01*
D22*
X147075000Y-66685000D02*
X132255000Y-66685000D01*
X132255000Y-66685000D02*
X131870000Y-67070000D01*
X131870000Y-67090000D02*
X131870000Y-67070000D01*
X117270000Y-76090000D02*
X117270000Y-75670000D01*
X131870000Y-67090000D02*
X131870000Y-65560000D01*
X125200000Y-73760000D02*
X131870000Y-67090000D01*
X119180000Y-73760000D02*
X125200000Y-73760000D01*
X117270000Y-75670000D02*
X119180000Y-73760000D01*
D23*
X113100000Y-92980000D02*
X113100000Y-95250000D01*
X113100000Y-95250000D02*
X114220000Y-96370000D01*
X114220000Y-96370000D02*
X125260000Y-96370000D01*
X125260000Y-96370000D02*
X125780000Y-96890000D01*
X125780000Y-96890000D02*
X125780000Y-97760000D01*
D22*
X113100000Y-92980000D02*
X113220000Y-92980000D01*
X114600000Y-81830000D02*
X117270000Y-79160000D01*
X114600000Y-91600000D02*
X114600000Y-81830000D01*
X113220000Y-92980000D02*
X114600000Y-91600000D01*
X113100000Y-95250000D02*
X114220000Y-96370000D01*
X114220000Y-96370000D02*
X124870000Y-96370000D01*
X125780000Y-97280000D02*
X125780000Y-97760000D01*
X147075000Y-66685000D02*
X154570000Y-74180000D01*
X154570000Y-74180000D02*
X171430000Y-74180000D01*
X171430000Y-74180000D02*
X173290000Y-72320000D01*
X173290000Y-72320000D02*
X173290000Y-71320000D01*
X131870000Y-65560000D02*
X131870000Y-63350000D01*
X131870000Y-63350000D02*
X132470000Y-62750000D01*
X132470000Y-62750000D02*
X133690000Y-62750000D01*
X117270000Y-79160000D02*
X117270000Y-76090000D01*
X113100000Y-95250000D02*
X114220000Y-96370000D01*
X114220000Y-96370000D02*
X124870000Y-96370000D01*
X125780000Y-97280000D02*
X125780000Y-97760000D01*
D21*
X96990000Y-73650000D02*
X93370000Y-73650000D01*
D22*
X139070000Y-99060000D02*
X145085000Y-105075000D01*
X139070000Y-94010000D02*
X139070000Y-99060000D01*
X174035000Y-105075000D02*
X174410000Y-105450000D01*
X145085000Y-105075000D02*
X174035000Y-105075000D01*
X140010000Y-93160000D02*
X140510000Y-93660000D01*
X140510000Y-93660000D02*
X140510000Y-98860000D01*
X140510000Y-98860000D02*
X145701602Y-104051602D01*
X145701602Y-104051602D02*
X176651602Y-104051602D01*
X176651602Y-104051602D02*
X176960000Y-104360000D01*
X176960000Y-104360000D02*
X176960000Y-105340000D01*
X140010000Y-93130000D02*
X140010000Y-93160000D01*
X141830000Y-94180000D02*
X141830000Y-98240000D01*
X146630000Y-103040000D02*
X178920000Y-103040000D01*
X141830000Y-98240000D02*
X146630000Y-103040000D01*
X178920000Y-103040000D02*
X179530000Y-103650000D01*
X179530000Y-103650000D02*
X179530000Y-105240000D01*
X143880000Y-96440000D02*
X143880000Y-98500000D01*
X147420000Y-102040000D02*
X181580000Y-102040000D01*
X143880000Y-98500000D02*
X147420000Y-102040000D01*
X181580000Y-102040000D02*
X182060000Y-102520000D01*
X182060000Y-102520000D02*
X182060000Y-105280000D01*
X93350000Y-95060000D02*
X93350000Y-89590000D01*
X94530000Y-88410000D02*
X96400000Y-88410000D01*
X93350000Y-89590000D02*
X94530000Y-88410000D01*
X92060000Y-97270000D02*
X92060000Y-95800000D01*
X92620000Y-95790000D02*
X93350000Y-95060000D01*
X92060000Y-95800000D02*
X92070000Y-95790000D01*
X92070000Y-95790000D02*
X92620000Y-95790000D01*
X92060000Y-97270000D02*
X92060000Y-96350000D01*
X94060000Y-97270000D02*
X94060000Y-95810000D01*
X94060000Y-95810000D02*
X94430000Y-95440000D01*
X97420000Y-89690000D02*
X98710000Y-88400000D01*
X95320000Y-89690000D02*
X97420000Y-89690000D01*
X94430000Y-90580000D02*
X95320000Y-89690000D01*
X94430000Y-95440000D02*
X94430000Y-90580000D01*
X94050000Y-97280000D02*
X94060000Y-97270000D01*
X154720000Y-86870000D02*
X156860000Y-86870000D01*
X160210000Y-90220000D02*
X160210000Y-97790000D01*
X156860000Y-86870000D02*
X160210000Y-90220000D01*
X160210000Y-97790000D02*
X158590000Y-99410000D01*
X158590000Y-99410000D02*
X156050000Y-99410000D01*
X147950000Y-71070000D02*
X147950000Y-71080000D01*
X147950000Y-71080000D02*
X152970000Y-76100000D01*
X152970000Y-76100000D02*
X152970000Y-82180000D01*
X152970000Y-82180000D02*
X152420000Y-82730000D01*
X152420000Y-82730000D02*
X151300000Y-82730000D01*
D21*
X160210000Y-97790000D02*
X158590000Y-99410000D01*
X158590000Y-99410000D02*
X156050000Y-99410000D01*
D22*
X122760000Y-75860000D02*
X126150000Y-75860000D01*
X126150000Y-75860000D02*
X133245000Y-68765000D01*
X147335000Y-68765000D02*
X133245000Y-68765000D01*
X154650000Y-76080000D02*
X160490000Y-76080000D01*
X160490000Y-76080000D02*
X162210000Y-77800000D01*
X162210000Y-77800000D02*
X162210000Y-79690000D01*
X147335000Y-68765000D02*
X154650000Y-76080000D01*
X119970000Y-75860000D02*
X118630000Y-77200000D01*
X122760000Y-75860000D02*
X119970000Y-75860000D01*
X168120000Y-87620000D02*
X165430000Y-87620000D01*
X162180000Y-90870000D02*
X162170000Y-95860000D01*
X165430000Y-87620000D02*
X162180000Y-90870000D01*
X167620000Y-66240000D02*
X170520000Y-66240000D01*
X170520000Y-66240000D02*
X173060000Y-68780000D01*
D21*
X170520000Y-66240000D02*
X173060000Y-68780000D01*
D24*
X173060000Y-68780000D02*
X170520000Y-66240000D01*
D21*
X96950000Y-75940000D02*
X93400000Y-75940000D01*
D23*
X168170000Y-90160000D02*
X175090000Y-90160000D01*
X175090000Y-90160000D02*
X175100000Y-90150000D01*
D22*
X114380000Y-103100000D02*
X122370000Y-103100000D01*
X122370000Y-103100000D02*
X125830000Y-106560000D01*
X125830000Y-106560000D02*
X136170000Y-106560000D01*
X136170000Y-106560000D02*
X138360000Y-108750000D01*
X138360000Y-108750000D02*
X138360000Y-111070000D01*
D21*
X138360000Y-108750000D02*
X138360000Y-111070000D01*
X136170000Y-106560000D02*
X138360000Y-108750000D01*
D22*
X125200000Y-103150000D02*
X127240000Y-105190000D01*
X127240000Y-105190000D02*
X139970000Y-105190000D01*
X143440000Y-108660000D02*
X143440000Y-111070000D01*
X139970000Y-105190000D02*
X143440000Y-108660000D01*
X100060000Y-97270000D02*
X100060000Y-98700000D01*
X102350000Y-100990000D02*
X102350000Y-102070000D01*
X100060000Y-98700000D02*
X102350000Y-100990000D01*
D21*
X96970000Y-70490000D02*
X96970000Y-71360000D01*
X98470000Y-68990000D02*
X96970000Y-70490000D01*
X118360000Y-94340000D02*
X118360000Y-92980000D01*
X140865000Y-89525000D02*
X142075000Y-89525000D01*
X138220000Y-92170000D02*
X140865000Y-89525000D01*
X119170000Y-92170000D02*
X138220000Y-92170000D01*
X118360000Y-92980000D02*
X119170000Y-92170000D01*
D26*
G36*
X106933500Y-95684893D02*
X106695956Y-95586500D01*
X106309375Y-95586500D01*
X106138500Y-95757375D01*
X106138500Y-97191500D01*
X107072625Y-97191500D01*
X107243500Y-97020625D01*
X107243500Y-96801647D01*
X107301520Y-96888480D01*
X111341520Y-100928480D01*
X111749158Y-101200855D01*
X112230000Y-101296501D01*
X112230005Y-101296500D01*
X128333500Y-101296500D01*
X128333500Y-103400796D01*
X128257532Y-103583747D01*
X128257116Y-104060500D01*
X127707854Y-104060500D01*
X126532582Y-102885228D01*
X126330467Y-102396072D01*
X125955899Y-102020851D01*
X125466253Y-101817532D01*
X124936073Y-101817069D01*
X124446072Y-102019533D01*
X124070851Y-102394101D01*
X123867532Y-102883747D01*
X123867430Y-103000076D01*
X123168677Y-102301323D01*
X122802241Y-102056478D01*
X122370000Y-101970500D01*
X115135054Y-101970500D01*
X114646253Y-101767532D01*
X114116073Y-101767069D01*
X113626072Y-101969533D01*
X113250851Y-102344101D01*
X113047532Y-102833747D01*
X113047069Y-103363927D01*
X113249533Y-103853928D01*
X113624101Y-104229149D01*
X114113747Y-104432468D01*
X114643927Y-104432931D01*
X115133928Y-104230467D01*
X115134897Y-104229500D01*
X121424556Y-104229500D01*
X121376072Y-104249533D01*
X121000851Y-104624101D01*
X120797532Y-105113747D01*
X120797069Y-105643927D01*
X120999533Y-106133928D01*
X121374101Y-106509149D01*
X121863747Y-106712468D01*
X122393927Y-106712931D01*
X122883928Y-106510467D01*
X123259149Y-106135899D01*
X123420344Y-105747698D01*
X125031323Y-107358677D01*
X125397759Y-107603522D01*
X125830000Y-107689500D01*
X135702146Y-107689500D01*
X137230500Y-109217854D01*
X137230500Y-109755536D01*
X137195523Y-109778908D01*
X137057171Y-109640556D01*
X136805956Y-109536500D01*
X136069375Y-109536500D01*
X135898500Y-109707375D01*
X135898500Y-110991500D01*
X135918500Y-110991500D01*
X135918500Y-111148500D01*
X135898500Y-111148500D01*
X135898500Y-112432625D01*
X136069375Y-112603500D01*
X136805956Y-112603500D01*
X137057171Y-112499444D01*
X137195523Y-112361092D01*
X137634639Y-112654500D01*
X131175361Y-112654500D01*
X131670113Y-112323918D01*
X132044154Y-111764125D01*
X132132620Y-111319375D01*
X134286500Y-111319375D01*
X134286500Y-112055957D01*
X134390557Y-112307172D01*
X134582829Y-112499444D01*
X134834044Y-112603500D01*
X135570625Y-112603500D01*
X135741500Y-112432625D01*
X135741500Y-111148500D01*
X134457375Y-111148500D01*
X134286500Y-111319375D01*
X132132620Y-111319375D01*
X132175500Y-111103805D01*
X132175500Y-111036195D01*
X132044154Y-110375875D01*
X131849159Y-110084043D01*
X134286500Y-110084043D01*
X134286500Y-110820625D01*
X134457375Y-110991500D01*
X135741500Y-110991500D01*
X135741500Y-109707375D01*
X135570625Y-109536500D01*
X134834044Y-109536500D01*
X134582829Y-109640556D01*
X134390557Y-109832828D01*
X134286500Y-110084043D01*
X131849159Y-110084043D01*
X131670113Y-109816082D01*
X131110320Y-109442041D01*
X130450000Y-109310695D01*
X129789680Y-109442041D01*
X129229887Y-109816082D01*
X129180000Y-109890743D01*
X129130113Y-109816082D01*
X128570320Y-109442041D01*
X127910000Y-109310695D01*
X127249680Y-109442041D01*
X126907078Y-109670960D01*
X126859860Y-109597580D01*
X126567292Y-109397676D01*
X126220000Y-109327348D01*
X124520000Y-109327348D01*
X124195559Y-109388396D01*
X123897580Y-109580140D01*
X123697676Y-109872708D01*
X123627348Y-110220000D01*
X123627348Y-111920000D01*
X123688396Y-112244441D01*
X123880140Y-112542420D01*
X124044174Y-112654500D01*
X106772414Y-112654500D01*
X107056238Y-112504098D01*
X107458521Y-111558318D01*
X107468248Y-110530583D01*
X107083938Y-109577359D01*
X107056238Y-109535902D01*
X106676396Y-109334619D01*
X104991016Y-111020000D01*
X105005158Y-111034142D01*
X104894142Y-111145158D01*
X104880000Y-111131016D01*
X104865858Y-111145158D01*
X104754842Y-111034142D01*
X104768984Y-111020000D01*
X103083604Y-109334619D01*
X102703762Y-109535902D01*
X102301479Y-110481682D01*
X102291752Y-111509417D01*
X102676062Y-112462641D01*
X102703762Y-112504098D01*
X102987586Y-112654500D01*
X99915976Y-112654500D01*
X100377411Y-112346179D01*
X100783968Y-111737723D01*
X100926732Y-111020000D01*
X100783968Y-110302277D01*
X100377411Y-109693821D01*
X99768955Y-109287264D01*
X99448915Y-109223604D01*
X103194619Y-109223604D01*
X104880000Y-110908984D01*
X106565381Y-109223604D01*
X106364098Y-108843762D01*
X105633282Y-108532913D01*
X105653927Y-108532931D01*
X106143928Y-108330467D01*
X106519149Y-107955899D01*
X106722468Y-107466253D01*
X106722931Y-106936073D01*
X106520467Y-106446072D01*
X106145899Y-106070851D01*
X105656253Y-105867532D01*
X105126073Y-105867069D01*
X104636072Y-106069533D01*
X104260851Y-106444101D01*
X104057532Y-106933747D01*
X104057069Y-107463927D01*
X104259533Y-107953928D01*
X104634101Y-108329149D01*
X104892640Y-108436504D01*
X104390583Y-108431752D01*
X103437359Y-108816062D01*
X103395902Y-108843762D01*
X103194619Y-109223604D01*
X99448915Y-109223604D01*
X99051232Y-109144500D01*
X96428768Y-109144500D01*
X96073853Y-109215097D01*
X96215191Y-108874718D01*
X96215807Y-108168381D01*
X95946073Y-107515574D01*
X95700937Y-107270010D01*
X95944318Y-107027053D01*
X96215191Y-106374718D01*
X96215807Y-105668381D01*
X95946073Y-105015574D01*
X95584774Y-104653643D01*
X95634718Y-104603699D01*
X95514813Y-104483794D01*
X95790773Y-104404362D01*
X96026381Y-103820126D01*
X96020478Y-103190198D01*
X95850790Y-102780533D01*
X96428768Y-102895500D01*
X99051232Y-102895500D01*
X99768955Y-102752736D01*
X100377411Y-102346179D01*
X100783968Y-101737723D01*
X100902827Y-101140181D01*
X101178570Y-101415924D01*
X101017532Y-101803747D01*
X101017069Y-102333927D01*
X101219533Y-102823928D01*
X101594101Y-103199149D01*
X102083747Y-103402468D01*
X102613927Y-103402931D01*
X103103928Y-103200467D01*
X103479149Y-102825899D01*
X103682468Y-102336253D01*
X103682931Y-101806073D01*
X103480467Y-101316072D01*
X103479500Y-101315103D01*
X103479500Y-100990000D01*
X103393522Y-100557759D01*
X103148677Y-100191323D01*
X102512854Y-99555500D01*
X103800000Y-99555500D01*
X103863787Y-99543498D01*
X103922371Y-99505800D01*
X103961673Y-99448279D01*
X103975500Y-99380000D01*
X103975500Y-98788625D01*
X103981500Y-98782625D01*
X103981500Y-97348500D01*
X104138500Y-97348500D01*
X104138500Y-98782625D01*
X104309375Y-98953500D01*
X104695956Y-98953500D01*
X104947171Y-98849444D01*
X105060000Y-98736615D01*
X105172829Y-98849444D01*
X105424044Y-98953500D01*
X105810625Y-98953500D01*
X105981500Y-98782625D01*
X105981500Y-97348500D01*
X106138500Y-97348500D01*
X106138500Y-98782625D01*
X106309375Y-98953500D01*
X106695956Y-98953500D01*
X106947171Y-98849444D01*
X107139443Y-98657172D01*
X107243500Y-98405957D01*
X107243500Y-97519375D01*
X107072625Y-97348500D01*
X106138500Y-97348500D01*
X105981500Y-97348500D01*
X104138500Y-97348500D01*
X103981500Y-97348500D01*
X103975500Y-97348500D01*
X103975500Y-97191500D01*
X103981500Y-97191500D01*
X103981500Y-95757375D01*
X104138500Y-95757375D01*
X104138500Y-97191500D01*
X105981500Y-97191500D01*
X105981500Y-95757375D01*
X105810625Y-95586500D01*
X105424044Y-95586500D01*
X105172829Y-95690556D01*
X105060000Y-95803385D01*
X104947171Y-95690556D01*
X104695956Y-95586500D01*
X104309375Y-95586500D01*
X104138500Y-95757375D01*
X103981500Y-95757375D01*
X103975500Y-95751375D01*
X103975500Y-95540000D01*
X103963498Y-95476213D01*
X103925800Y-95417629D01*
X103868279Y-95378327D01*
X103800000Y-95364500D01*
X103316500Y-95364500D01*
X103316500Y-87756500D01*
X103620000Y-87756500D01*
X104100842Y-87660855D01*
X104508480Y-87388480D01*
X106933500Y-84963460D01*
X106933500Y-95684893D01*
X106933500Y-95684893D01*
G37*
X106933500Y-95684893D02*
X106695956Y-95586500D01*
X106309375Y-95586500D01*
X106138500Y-95757375D01*
X106138500Y-97191500D01*
X107072625Y-97191500D01*
X107243500Y-97020625D01*
X107243500Y-96801647D01*
X107301520Y-96888480D01*
X111341520Y-100928480D01*
X111749158Y-101200855D01*
X112230000Y-101296501D01*
X112230005Y-101296500D01*
X128333500Y-101296500D01*
X128333500Y-103400796D01*
X128257532Y-103583747D01*
X128257116Y-104060500D01*
X127707854Y-104060500D01*
X126532582Y-102885228D01*
X126330467Y-102396072D01*
X125955899Y-102020851D01*
X125466253Y-101817532D01*
X124936073Y-101817069D01*
X124446072Y-102019533D01*
X124070851Y-102394101D01*
X123867532Y-102883747D01*
X123867430Y-103000076D01*
X123168677Y-102301323D01*
X122802241Y-102056478D01*
X122370000Y-101970500D01*
X115135054Y-101970500D01*
X114646253Y-101767532D01*
X114116073Y-101767069D01*
X113626072Y-101969533D01*
X113250851Y-102344101D01*
X113047532Y-102833747D01*
X113047069Y-103363927D01*
X113249533Y-103853928D01*
X113624101Y-104229149D01*
X114113747Y-104432468D01*
X114643927Y-104432931D01*
X115133928Y-104230467D01*
X115134897Y-104229500D01*
X121424556Y-104229500D01*
X121376072Y-104249533D01*
X121000851Y-104624101D01*
X120797532Y-105113747D01*
X120797069Y-105643927D01*
X120999533Y-106133928D01*
X121374101Y-106509149D01*
X121863747Y-106712468D01*
X122393927Y-106712931D01*
X122883928Y-106510467D01*
X123259149Y-106135899D01*
X123420344Y-105747698D01*
X125031323Y-107358677D01*
X125397759Y-107603522D01*
X125830000Y-107689500D01*
X135702146Y-107689500D01*
X137230500Y-109217854D01*
X137230500Y-109755536D01*
X137195523Y-109778908D01*
X137057171Y-109640556D01*
X136805956Y-109536500D01*
X136069375Y-109536500D01*
X135898500Y-109707375D01*
X135898500Y-110991500D01*
X135918500Y-110991500D01*
X135918500Y-111148500D01*
X135898500Y-111148500D01*
X135898500Y-112432625D01*
X136069375Y-112603500D01*
X136805956Y-112603500D01*
X137057171Y-112499444D01*
X137195523Y-112361092D01*
X137634639Y-112654500D01*
X131175361Y-112654500D01*
X131670113Y-112323918D01*
X132044154Y-111764125D01*
X132132620Y-111319375D01*
X134286500Y-111319375D01*
X134286500Y-112055957D01*
X134390557Y-112307172D01*
X134582829Y-112499444D01*
X134834044Y-112603500D01*
X135570625Y-112603500D01*
X135741500Y-112432625D01*
X135741500Y-111148500D01*
X134457375Y-111148500D01*
X134286500Y-111319375D01*
X132132620Y-111319375D01*
X132175500Y-111103805D01*
X132175500Y-111036195D01*
X132044154Y-110375875D01*
X131849159Y-110084043D01*
X134286500Y-110084043D01*
X134286500Y-110820625D01*
X134457375Y-110991500D01*
X135741500Y-110991500D01*
X135741500Y-109707375D01*
X135570625Y-109536500D01*
X134834044Y-109536500D01*
X134582829Y-109640556D01*
X134390557Y-109832828D01*
X134286500Y-110084043D01*
X131849159Y-110084043D01*
X131670113Y-109816082D01*
X131110320Y-109442041D01*
X130450000Y-109310695D01*
X129789680Y-109442041D01*
X129229887Y-109816082D01*
X129180000Y-109890743D01*
X129130113Y-109816082D01*
X128570320Y-109442041D01*
X127910000Y-109310695D01*
X127249680Y-109442041D01*
X126907078Y-109670960D01*
X126859860Y-109597580D01*
X126567292Y-109397676D01*
X126220000Y-109327348D01*
X124520000Y-109327348D01*
X124195559Y-109388396D01*
X123897580Y-109580140D01*
X123697676Y-109872708D01*
X123627348Y-110220000D01*
X123627348Y-111920000D01*
X123688396Y-112244441D01*
X123880140Y-112542420D01*
X124044174Y-112654500D01*
X106772414Y-112654500D01*
X107056238Y-112504098D01*
X107458521Y-111558318D01*
X107468248Y-110530583D01*
X107083938Y-109577359D01*
X107056238Y-109535902D01*
X106676396Y-109334619D01*
X104991016Y-111020000D01*
X105005158Y-111034142D01*
X104894142Y-111145158D01*
X104880000Y-111131016D01*
X104865858Y-111145158D01*
X104754842Y-111034142D01*
X104768984Y-111020000D01*
X103083604Y-109334619D01*
X102703762Y-109535902D01*
X102301479Y-110481682D01*
X102291752Y-111509417D01*
X102676062Y-112462641D01*
X102703762Y-112504098D01*
X102987586Y-112654500D01*
X99915976Y-112654500D01*
X100377411Y-112346179D01*
X100783968Y-111737723D01*
X100926732Y-111020000D01*
X100783968Y-110302277D01*
X100377411Y-109693821D01*
X99768955Y-109287264D01*
X99448915Y-109223604D01*
X103194619Y-109223604D01*
X104880000Y-110908984D01*
X106565381Y-109223604D01*
X106364098Y-108843762D01*
X105633282Y-108532913D01*
X105653927Y-108532931D01*
X106143928Y-108330467D01*
X106519149Y-107955899D01*
X106722468Y-107466253D01*
X106722931Y-106936073D01*
X106520467Y-106446072D01*
X106145899Y-106070851D01*
X105656253Y-105867532D01*
X105126073Y-105867069D01*
X104636072Y-106069533D01*
X104260851Y-106444101D01*
X104057532Y-106933747D01*
X104057069Y-107463927D01*
X104259533Y-107953928D01*
X104634101Y-108329149D01*
X104892640Y-108436504D01*
X104390583Y-108431752D01*
X103437359Y-108816062D01*
X103395902Y-108843762D01*
X103194619Y-109223604D01*
X99448915Y-109223604D01*
X99051232Y-109144500D01*
X96428768Y-109144500D01*
X96073853Y-109215097D01*
X96215191Y-108874718D01*
X96215807Y-108168381D01*
X95946073Y-107515574D01*
X95700937Y-107270010D01*
X95944318Y-107027053D01*
X96215191Y-106374718D01*
X96215807Y-105668381D01*
X95946073Y-105015574D01*
X95584774Y-104653643D01*
X95634718Y-104603699D01*
X95514813Y-104483794D01*
X95790773Y-104404362D01*
X96026381Y-103820126D01*
X96020478Y-103190198D01*
X95850790Y-102780533D01*
X96428768Y-102895500D01*
X99051232Y-102895500D01*
X99768955Y-102752736D01*
X100377411Y-102346179D01*
X100783968Y-101737723D01*
X100902827Y-101140181D01*
X101178570Y-101415924D01*
X101017532Y-101803747D01*
X101017069Y-102333927D01*
X101219533Y-102823928D01*
X101594101Y-103199149D01*
X102083747Y-103402468D01*
X102613927Y-103402931D01*
X103103928Y-103200467D01*
X103479149Y-102825899D01*
X103682468Y-102336253D01*
X103682931Y-101806073D01*
X103480467Y-101316072D01*
X103479500Y-101315103D01*
X103479500Y-100990000D01*
X103393522Y-100557759D01*
X103148677Y-100191323D01*
X102512854Y-99555500D01*
X103800000Y-99555500D01*
X103863787Y-99543498D01*
X103922371Y-99505800D01*
X103961673Y-99448279D01*
X103975500Y-99380000D01*
X103975500Y-98788625D01*
X103981500Y-98782625D01*
X103981500Y-97348500D01*
X104138500Y-97348500D01*
X104138500Y-98782625D01*
X104309375Y-98953500D01*
X104695956Y-98953500D01*
X104947171Y-98849444D01*
X105060000Y-98736615D01*
X105172829Y-98849444D01*
X105424044Y-98953500D01*
X105810625Y-98953500D01*
X105981500Y-98782625D01*
X105981500Y-97348500D01*
X106138500Y-97348500D01*
X106138500Y-98782625D01*
X106309375Y-98953500D01*
X106695956Y-98953500D01*
X106947171Y-98849444D01*
X107139443Y-98657172D01*
X107243500Y-98405957D01*
X107243500Y-97519375D01*
X107072625Y-97348500D01*
X106138500Y-97348500D01*
X105981500Y-97348500D01*
X104138500Y-97348500D01*
X103981500Y-97348500D01*
X103975500Y-97348500D01*
X103975500Y-97191500D01*
X103981500Y-97191500D01*
X103981500Y-95757375D01*
X104138500Y-95757375D01*
X104138500Y-97191500D01*
X105981500Y-97191500D01*
X105981500Y-95757375D01*
X105810625Y-95586500D01*
X105424044Y-95586500D01*
X105172829Y-95690556D01*
X105060000Y-95803385D01*
X104947171Y-95690556D01*
X104695956Y-95586500D01*
X104309375Y-95586500D01*
X104138500Y-95757375D01*
X103981500Y-95757375D01*
X103975500Y-95751375D01*
X103975500Y-95540000D01*
X103963498Y-95476213D01*
X103925800Y-95417629D01*
X103868279Y-95378327D01*
X103800000Y-95364500D01*
X103316500Y-95364500D01*
X103316500Y-87756500D01*
X103620000Y-87756500D01*
X104100842Y-87660855D01*
X104508480Y-87388480D01*
X106933500Y-84963460D01*
X106933500Y-95684893D01*
G36*
X147825523Y-61458908D02*
X147687171Y-61320556D01*
X147435956Y-61216500D01*
X146699375Y-61216500D01*
X146528500Y-61387375D01*
X146528500Y-62671500D01*
X146548500Y-62671500D01*
X146548500Y-62828500D01*
X146528500Y-62828500D01*
X146528500Y-64112625D01*
X146699375Y-64283500D01*
X147435956Y-64283500D01*
X147687171Y-64179444D01*
X147825523Y-64041092D01*
X148329680Y-64377959D01*
X148990000Y-64509305D01*
X149650320Y-64377959D01*
X150210113Y-64003918D01*
X150260000Y-63929257D01*
X150309887Y-64003918D01*
X150869680Y-64377959D01*
X151530000Y-64509305D01*
X152190320Y-64377959D01*
X152750113Y-64003918D01*
X152800000Y-63929257D01*
X152849887Y-64003918D01*
X153409680Y-64377959D01*
X154070000Y-64509305D01*
X154730320Y-64377959D01*
X155290113Y-64003918D01*
X155664154Y-63444125D01*
X155739146Y-63067112D01*
X157519640Y-63067112D01*
X157755202Y-63617136D01*
X158183318Y-64035146D01*
X158702889Y-64250354D01*
X158941500Y-64110362D01*
X158941500Y-62828500D01*
X157659380Y-62828500D01*
X157519640Y-63067112D01*
X155739146Y-63067112D01*
X155795500Y-62783805D01*
X155795500Y-62716195D01*
X155739147Y-62432888D01*
X157519640Y-62432888D01*
X157659380Y-62671500D01*
X158941500Y-62671500D01*
X158941500Y-61389638D01*
X158702889Y-61249646D01*
X158183318Y-61464854D01*
X157755202Y-61882864D01*
X157519640Y-62432888D01*
X155739147Y-62432888D01*
X155664154Y-62055875D01*
X155290113Y-61496082D01*
X154840259Y-61195500D01*
X160789741Y-61195500D01*
X160339887Y-61496082D01*
X160161735Y-61762706D01*
X159856682Y-61464854D01*
X159337111Y-61249646D01*
X159098500Y-61389638D01*
X159098500Y-62671500D01*
X159118500Y-62671500D01*
X159118500Y-62828500D01*
X159098500Y-62828500D01*
X159098500Y-64110362D01*
X159337111Y-64250354D01*
X159856682Y-64035146D01*
X160161735Y-63737294D01*
X160339887Y-64003918D01*
X160899680Y-64377959D01*
X161560000Y-64509305D01*
X162220320Y-64377959D01*
X162780113Y-64003918D01*
X162958265Y-63737294D01*
X163263318Y-64035146D01*
X163782889Y-64250354D01*
X164021500Y-64110362D01*
X164021500Y-62828500D01*
X164001500Y-62828500D01*
X164001500Y-62671500D01*
X164021500Y-62671500D01*
X164021500Y-61389638D01*
X163782889Y-61249646D01*
X163263318Y-61464854D01*
X162958265Y-61762706D01*
X162780113Y-61496082D01*
X162330259Y-61195500D01*
X165869741Y-61195500D01*
X165419887Y-61496082D01*
X165241735Y-61762706D01*
X164936682Y-61464854D01*
X164417111Y-61249646D01*
X164178500Y-61389638D01*
X164178500Y-62671500D01*
X164198500Y-62671500D01*
X164198500Y-62828500D01*
X164178500Y-62828500D01*
X164178500Y-64110362D01*
X164417111Y-64250354D01*
X164936682Y-64035146D01*
X165241735Y-63737294D01*
X165419887Y-64003918D01*
X165979680Y-64377959D01*
X166640000Y-64509305D01*
X167300320Y-64377959D01*
X167860113Y-64003918D01*
X168038265Y-63737294D01*
X168343318Y-64035146D01*
X168862889Y-64250354D01*
X169101500Y-64110362D01*
X169101500Y-62828500D01*
X169081500Y-62828500D01*
X169081500Y-62671500D01*
X169101500Y-62671500D01*
X169101500Y-61389638D01*
X168862889Y-61249646D01*
X168343318Y-61464854D01*
X168038265Y-61762706D01*
X167860113Y-61496082D01*
X167410259Y-61195500D01*
X170949741Y-61195500D01*
X170499887Y-61496082D01*
X170321735Y-61762706D01*
X170016682Y-61464854D01*
X169497111Y-61249646D01*
X169258500Y-61389638D01*
X169258500Y-62671500D01*
X169278500Y-62671500D01*
X169278500Y-62828500D01*
X169258500Y-62828500D01*
X169258500Y-64110362D01*
X169497111Y-64250354D01*
X170016682Y-64035146D01*
X170321735Y-63737294D01*
X170499887Y-64003918D01*
X171059680Y-64377959D01*
X171720000Y-64509305D01*
X172380320Y-64377959D01*
X172940113Y-64003918D01*
X173118265Y-63737294D01*
X173423318Y-64035146D01*
X173942889Y-64250354D01*
X174181500Y-64110362D01*
X174181500Y-62828500D01*
X174161500Y-62828500D01*
X174161500Y-62671500D01*
X174181500Y-62671500D01*
X174181500Y-61389638D01*
X173942889Y-61249646D01*
X173423318Y-61464854D01*
X173118265Y-61762706D01*
X172940113Y-61496082D01*
X172490259Y-61195500D01*
X175428034Y-61195500D01*
X175327580Y-61260140D01*
X175151280Y-61518163D01*
X175096682Y-61464854D01*
X174577111Y-61249646D01*
X174338500Y-61389638D01*
X174338500Y-62671500D01*
X174358500Y-62671500D01*
X174358500Y-62828500D01*
X174338500Y-62828500D01*
X174338500Y-64110362D01*
X174577111Y-64250354D01*
X175096682Y-64035146D01*
X175153767Y-63979409D01*
X175310140Y-64222420D01*
X175602708Y-64422324D01*
X175950000Y-64492652D01*
X177650000Y-64492652D01*
X177974441Y-64431604D01*
X178272420Y-64239860D01*
X178472324Y-63947292D01*
X178542652Y-63600000D01*
X178542652Y-63370863D01*
X178886062Y-64222641D01*
X178913762Y-64264098D01*
X179293604Y-64465381D01*
X180978984Y-62780000D01*
X180964842Y-62765858D01*
X181075858Y-62654842D01*
X181090000Y-62668984D01*
X181104142Y-62654842D01*
X181215158Y-62765858D01*
X181201016Y-62780000D01*
X182886396Y-64465381D01*
X183266238Y-64264098D01*
X183668521Y-63318318D01*
X183678248Y-62290583D01*
X183293938Y-61337359D01*
X183266238Y-61295902D01*
X183076769Y-61195500D01*
X188066646Y-61195500D01*
X189044500Y-62173355D01*
X189044500Y-109098715D01*
X188904098Y-108833762D01*
X187958318Y-108431479D01*
X186930583Y-108421752D01*
X185977359Y-108806062D01*
X185935902Y-108833762D01*
X185734619Y-109213604D01*
X187420000Y-110898984D01*
X187434142Y-110884842D01*
X187545158Y-110995858D01*
X187531016Y-111010000D01*
X187545158Y-111024142D01*
X187434142Y-111135158D01*
X187420000Y-111121016D01*
X187405858Y-111135158D01*
X187294842Y-111024142D01*
X187308984Y-111010000D01*
X185623604Y-109324619D01*
X185243762Y-109525902D01*
X184841479Y-110471682D01*
X184831752Y-111499417D01*
X185216062Y-112452641D01*
X185243762Y-112494098D01*
X185546457Y-112654500D01*
X183348724Y-112654500D01*
X183542420Y-112529860D01*
X183742324Y-112237292D01*
X183812652Y-111890000D01*
X183812652Y-110190000D01*
X183751604Y-109865559D01*
X183559860Y-109567580D01*
X183267292Y-109367676D01*
X182920000Y-109297348D01*
X181220000Y-109297348D01*
X180895559Y-109358396D01*
X180597580Y-109550140D01*
X180534709Y-109642154D01*
X180190320Y-109412041D01*
X179530000Y-109280695D01*
X178869680Y-109412041D01*
X178309887Y-109786082D01*
X178260000Y-109860743D01*
X178210113Y-109786082D01*
X177650320Y-109412041D01*
X176990000Y-109280695D01*
X176329680Y-109412041D01*
X175769887Y-109786082D01*
X175720000Y-109860743D01*
X175670113Y-109786082D01*
X175110320Y-109412041D01*
X174450000Y-109280695D01*
X173789680Y-109412041D01*
X173229887Y-109786082D01*
X173051735Y-110052706D01*
X172746682Y-109754854D01*
X172227111Y-109539646D01*
X171988500Y-109679638D01*
X171988500Y-110961500D01*
X172008500Y-110961500D01*
X172008500Y-111118500D01*
X171988500Y-111118500D01*
X171988500Y-112400362D01*
X172227111Y-112540354D01*
X172746682Y-112325146D01*
X173051735Y-112027294D01*
X173229887Y-112293918D01*
X173769537Y-112654500D01*
X167779805Y-112654500D01*
X167942420Y-112549860D01*
X168142324Y-112257292D01*
X168212652Y-111910000D01*
X168212652Y-111357112D01*
X170409640Y-111357112D01*
X170645202Y-111907136D01*
X171073318Y-112325146D01*
X171592889Y-112540354D01*
X171831500Y-112400362D01*
X171831500Y-111118500D01*
X170549380Y-111118500D01*
X170409640Y-111357112D01*
X168212652Y-111357112D01*
X168212652Y-110722888D01*
X170409640Y-110722888D01*
X170549380Y-110961500D01*
X171831500Y-110961500D01*
X171831500Y-109679638D01*
X171592889Y-109539646D01*
X171073318Y-109754854D01*
X170645202Y-110172864D01*
X170409640Y-110722888D01*
X168212652Y-110722888D01*
X168212652Y-110210000D01*
X168151604Y-109885559D01*
X167959860Y-109587580D01*
X167667292Y-109387676D01*
X167320000Y-109317348D01*
X165620000Y-109317348D01*
X165295559Y-109378396D01*
X164997580Y-109570140D01*
X164821280Y-109828163D01*
X164766682Y-109774854D01*
X164247111Y-109559646D01*
X164008500Y-109699638D01*
X164008500Y-110981500D01*
X164028500Y-110981500D01*
X164028500Y-111138500D01*
X164008500Y-111138500D01*
X164008500Y-112420362D01*
X164247111Y-112560354D01*
X164766682Y-112345146D01*
X164823767Y-112289409D01*
X164980140Y-112532420D01*
X165158809Y-112654500D01*
X162100395Y-112654500D01*
X162610113Y-112313918D01*
X162788265Y-112047294D01*
X163093318Y-112345146D01*
X163612889Y-112560354D01*
X163851500Y-112420362D01*
X163851500Y-111138500D01*
X163831500Y-111138500D01*
X163831500Y-110981500D01*
X163851500Y-110981500D01*
X163851500Y-109699638D01*
X163612889Y-109559646D01*
X163093318Y-109774854D01*
X162788265Y-110072706D01*
X162610113Y-109806082D01*
X162050320Y-109432041D01*
X161390000Y-109300695D01*
X160729680Y-109432041D01*
X160169887Y-109806082D01*
X159991735Y-110072706D01*
X159686682Y-109774854D01*
X159167111Y-109559646D01*
X158928500Y-109699638D01*
X158928500Y-110981500D01*
X158948500Y-110981500D01*
X158948500Y-111138500D01*
X158928500Y-111138500D01*
X158928500Y-112420362D01*
X159167111Y-112560354D01*
X159686682Y-112345146D01*
X159991735Y-112047294D01*
X160169887Y-112313918D01*
X160679605Y-112654500D01*
X157020395Y-112654500D01*
X157530113Y-112313918D01*
X157708265Y-112047294D01*
X158013318Y-112345146D01*
X158532889Y-112560354D01*
X158771500Y-112420362D01*
X158771500Y-111138500D01*
X158751500Y-111138500D01*
X158751500Y-110981500D01*
X158771500Y-110981500D01*
X158771500Y-109699638D01*
X158532889Y-109559646D01*
X158013318Y-109774854D01*
X157708265Y-110072706D01*
X157530113Y-109806082D01*
X156970320Y-109432041D01*
X156310000Y-109300695D01*
X155649680Y-109432041D01*
X155089887Y-109806082D01*
X154911735Y-110072706D01*
X154606682Y-109774854D01*
X154087111Y-109559646D01*
X153848500Y-109699638D01*
X153848500Y-110981500D01*
X153868500Y-110981500D01*
X153868500Y-111138500D01*
X153848500Y-111138500D01*
X153848500Y-112420362D01*
X154087111Y-112560354D01*
X154606682Y-112345146D01*
X154911735Y-112047294D01*
X155089887Y-112313918D01*
X155599605Y-112654500D01*
X151940395Y-112654500D01*
X152450113Y-112313918D01*
X152628265Y-112047294D01*
X152933318Y-112345146D01*
X153452889Y-112560354D01*
X153691500Y-112420362D01*
X153691500Y-111138500D01*
X153671500Y-111138500D01*
X153671500Y-110981500D01*
X153691500Y-110981500D01*
X153691500Y-109699638D01*
X153452889Y-109559646D01*
X152933318Y-109774854D01*
X152628265Y-110072706D01*
X152450113Y-109806082D01*
X151890320Y-109432041D01*
X151230000Y-109300695D01*
X150569680Y-109432041D01*
X150009887Y-109806082D01*
X149831735Y-110072706D01*
X149526682Y-109774854D01*
X149007111Y-109559646D01*
X148768500Y-109699638D01*
X148768500Y-110981500D01*
X148788500Y-110981500D01*
X148788500Y-111138500D01*
X148768500Y-111138500D01*
X148768500Y-112420362D01*
X149007111Y-112560354D01*
X149526682Y-112345146D01*
X149831735Y-112047294D01*
X150009887Y-112313918D01*
X150519605Y-112654500D01*
X144165361Y-112654500D01*
X144660113Y-112323918D01*
X145034154Y-111764125D01*
X145111135Y-111377112D01*
X147189640Y-111377112D01*
X147425202Y-111927136D01*
X147853318Y-112345146D01*
X148372889Y-112560354D01*
X148611500Y-112420362D01*
X148611500Y-111138500D01*
X147329380Y-111138500D01*
X147189640Y-111377112D01*
X145111135Y-111377112D01*
X145165500Y-111103805D01*
X145165500Y-111036195D01*
X145107158Y-110742888D01*
X147189640Y-110742888D01*
X147329380Y-110981500D01*
X148611500Y-110981500D01*
X148611500Y-109699638D01*
X148372889Y-109559646D01*
X147853318Y-109774854D01*
X147425202Y-110192864D01*
X147189640Y-110742888D01*
X145107158Y-110742888D01*
X145034154Y-110375875D01*
X144660113Y-109816082D01*
X144569500Y-109755536D01*
X144569500Y-108660000D01*
X144483522Y-108227759D01*
X144238677Y-107861323D01*
X143920229Y-107542875D01*
X143983927Y-107542931D01*
X144473928Y-107340467D01*
X144849149Y-106965899D01*
X145052468Y-106476253D01*
X145052711Y-106198077D01*
X145085000Y-106204500D01*
X173280104Y-106204500D01*
X173654101Y-106579149D01*
X174143747Y-106782468D01*
X174673927Y-106782931D01*
X175163928Y-106580467D01*
X175539149Y-106205899D01*
X175707889Y-105799528D01*
X175829533Y-106093928D01*
X176204101Y-106469149D01*
X176693747Y-106672468D01*
X177223927Y-106672931D01*
X177713928Y-106470467D01*
X178089149Y-106095899D01*
X178265843Y-105670373D01*
X178399533Y-105993928D01*
X178774101Y-106369149D01*
X179263747Y-106572468D01*
X179793927Y-106572931D01*
X180283928Y-106370467D01*
X180659149Y-105995899D01*
X180786799Y-105688484D01*
X180929533Y-106033928D01*
X181304101Y-106409149D01*
X181793747Y-106612468D01*
X182323927Y-106612931D01*
X182813928Y-106410467D01*
X183189149Y-106035899D01*
X183392468Y-105546253D01*
X183392931Y-105016073D01*
X183190467Y-104526072D01*
X183189500Y-104525103D01*
X183189500Y-103565086D01*
X183282041Y-104030320D01*
X183656082Y-104590113D01*
X184215875Y-104964154D01*
X184876195Y-105095500D01*
X184943805Y-105095500D01*
X185604125Y-104964154D01*
X186163918Y-104590113D01*
X186316406Y-104361898D01*
X186582864Y-104634798D01*
X187132888Y-104870360D01*
X187371500Y-104730620D01*
X187371500Y-103448500D01*
X187528500Y-103448500D01*
X187528500Y-104730620D01*
X187767112Y-104870360D01*
X188317136Y-104634798D01*
X188735146Y-104206682D01*
X188950354Y-103687111D01*
X188810362Y-103448500D01*
X187528500Y-103448500D01*
X187371500Y-103448500D01*
X187351500Y-103448500D01*
X187351500Y-103291500D01*
X187371500Y-103291500D01*
X187371500Y-100908500D01*
X187528500Y-100908500D01*
X187528500Y-103291500D01*
X188810362Y-103291500D01*
X188950354Y-103052889D01*
X188735146Y-102533318D01*
X188317136Y-102105202D01*
X188304990Y-102100000D01*
X188317136Y-102094798D01*
X188735146Y-101666682D01*
X188950354Y-101147111D01*
X188810362Y-100908500D01*
X187528500Y-100908500D01*
X187371500Y-100908500D01*
X187351500Y-100908500D01*
X187351500Y-100751500D01*
X187371500Y-100751500D01*
X187371500Y-98368500D01*
X187528500Y-98368500D01*
X187528500Y-100751500D01*
X188810362Y-100751500D01*
X188950354Y-100512889D01*
X188735146Y-99993318D01*
X188317136Y-99565202D01*
X188304990Y-99560000D01*
X188317136Y-99554798D01*
X188735146Y-99126682D01*
X188950354Y-98607111D01*
X188810362Y-98368500D01*
X187528500Y-98368500D01*
X187371500Y-98368500D01*
X187351500Y-98368500D01*
X187351500Y-98211500D01*
X187371500Y-98211500D01*
X187371500Y-95828500D01*
X187528500Y-95828500D01*
X187528500Y-98211500D01*
X188810362Y-98211500D01*
X188950354Y-97972889D01*
X188735146Y-97453318D01*
X188317136Y-97025202D01*
X188304990Y-97020000D01*
X188317136Y-97014798D01*
X188735146Y-96586682D01*
X188950354Y-96067111D01*
X188810362Y-95828500D01*
X187528500Y-95828500D01*
X187371500Y-95828500D01*
X187351500Y-95828500D01*
X187351500Y-95671500D01*
X187371500Y-95671500D01*
X187371500Y-94389380D01*
X187528500Y-94389380D01*
X187528500Y-95671500D01*
X188810362Y-95671500D01*
X188950354Y-95432889D01*
X188735146Y-94913318D01*
X188317136Y-94485202D01*
X187767112Y-94249640D01*
X187528500Y-94389380D01*
X187371500Y-94389380D01*
X187132888Y-94249640D01*
X186582864Y-94485202D01*
X186553086Y-94515700D01*
X186399860Y-94277580D01*
X186107292Y-94077676D01*
X185760000Y-94007348D01*
X184060000Y-94007348D01*
X183735559Y-94068396D01*
X183437580Y-94260140D01*
X183237676Y-94552708D01*
X183167348Y-94900000D01*
X183167348Y-96600000D01*
X183228396Y-96924441D01*
X183420140Y-97222420D01*
X183512154Y-97285291D01*
X183282041Y-97629680D01*
X183150695Y-98290000D01*
X183282041Y-98950320D01*
X183656082Y-99510113D01*
X183730743Y-99560000D01*
X183656082Y-99609887D01*
X183282041Y-100169680D01*
X183150695Y-100830000D01*
X183282041Y-101490320D01*
X183656082Y-102050113D01*
X183730743Y-102100000D01*
X183656082Y-102149887D01*
X183282041Y-102709680D01*
X183189500Y-103174914D01*
X183189500Y-102520000D01*
X183103522Y-102087759D01*
X182858677Y-101721323D01*
X182378677Y-101241323D01*
X182012241Y-100996478D01*
X181580000Y-100910500D01*
X154222683Y-100910500D01*
X154222931Y-100626073D01*
X154020467Y-100136072D01*
X153645899Y-99760851D01*
X153156253Y-99557532D01*
X152626073Y-99557069D01*
X152136072Y-99759533D01*
X151760851Y-100134101D01*
X151557532Y-100623747D01*
X151557282Y-100910500D01*
X147887854Y-100910500D01*
X145009500Y-98032146D01*
X145009500Y-97195054D01*
X145212468Y-96706253D01*
X145212931Y-96176073D01*
X145010467Y-95686072D01*
X144635899Y-95310851D01*
X144146253Y-95107532D01*
X143616073Y-95107069D01*
X143126072Y-95309533D01*
X142959500Y-95475815D01*
X142959500Y-94935054D01*
X143162468Y-94446253D01*
X143162732Y-94143927D01*
X151037069Y-94143927D01*
X151239533Y-94633928D01*
X151614101Y-95009149D01*
X152103747Y-95212468D01*
X152633927Y-95212931D01*
X153123928Y-95010467D01*
X153499149Y-94635899D01*
X153702468Y-94146253D01*
X153702931Y-93616073D01*
X153500467Y-93126072D01*
X153125899Y-92750851D01*
X152636253Y-92547532D01*
X152106073Y-92547069D01*
X151616072Y-92749533D01*
X151240851Y-93124101D01*
X151037532Y-93613747D01*
X151037069Y-94143927D01*
X143162732Y-94143927D01*
X143162931Y-93916073D01*
X142960467Y-93426072D01*
X142585899Y-93050851D01*
X142096253Y-92847532D01*
X141566073Y-92847069D01*
X141356902Y-92933497D01*
X141342890Y-92912527D01*
X141342931Y-92866073D01*
X141140467Y-92376072D01*
X140765899Y-92000851D01*
X140276253Y-91797532D01*
X140118118Y-91797394D01*
X140371585Y-91543927D01*
X154117069Y-91543927D01*
X154319533Y-92033928D01*
X154694101Y-92409149D01*
X155183747Y-92612468D01*
X155713927Y-92612931D01*
X156203928Y-92410467D01*
X156579149Y-92035899D01*
X156782468Y-91546253D01*
X156782931Y-91016073D01*
X156580467Y-90526072D01*
X156205899Y-90150851D01*
X155716253Y-89947532D01*
X155186073Y-89947069D01*
X154696072Y-90149533D01*
X154320851Y-90524101D01*
X154117532Y-91013747D01*
X154117069Y-91543927D01*
X140371585Y-91543927D01*
X141290257Y-90625255D01*
X141319101Y-90654149D01*
X141808747Y-90857468D01*
X142338927Y-90857931D01*
X142828928Y-90655467D01*
X143204149Y-90280899D01*
X143407468Y-89791253D01*
X143407931Y-89261073D01*
X143205467Y-88771072D01*
X142830899Y-88395851D01*
X142341253Y-88192532D01*
X141811073Y-88192069D01*
X141321072Y-88394533D01*
X141269215Y-88446300D01*
X140865000Y-88446300D01*
X140452199Y-88528411D01*
X140116875Y-88752468D01*
X140102244Y-88762244D01*
X139556500Y-89307988D01*
X139556500Y-87869204D01*
X139632468Y-87686253D01*
X139632834Y-87267600D01*
X139794101Y-87429149D01*
X140283747Y-87632468D01*
X140813927Y-87632931D01*
X140880626Y-87605372D01*
X141054101Y-87779149D01*
X141543747Y-87982468D01*
X142073927Y-87982931D01*
X142563928Y-87780467D01*
X142939149Y-87405899D01*
X143142468Y-86916253D01*
X143142931Y-86386073D01*
X142990227Y-86016500D01*
X143150796Y-86016500D01*
X143333747Y-86092468D01*
X143863927Y-86092931D01*
X144044038Y-86018511D01*
X144374101Y-86349149D01*
X144863747Y-86552468D01*
X145393927Y-86552931D01*
X145531300Y-86496170D01*
X145531300Y-88343188D01*
X145407357Y-88467131D01*
X145336073Y-88467069D01*
X144846072Y-88669533D01*
X144470851Y-89044101D01*
X144267532Y-89533747D01*
X144267069Y-90063927D01*
X144469533Y-90553928D01*
X144844101Y-90929149D01*
X145333747Y-91132468D01*
X145863927Y-91132931D01*
X146353928Y-90930467D01*
X146729149Y-90555899D01*
X146932468Y-90066253D01*
X146932532Y-89992980D01*
X147372756Y-89552756D01*
X147394331Y-89520467D01*
X147606589Y-89202801D01*
X147688700Y-88790000D01*
X147688700Y-87113927D01*
X151837069Y-87113927D01*
X152039533Y-87603928D01*
X152414101Y-87979149D01*
X152903747Y-88182468D01*
X153433927Y-88182931D01*
X153923928Y-87980467D01*
X153934709Y-87969705D01*
X153964101Y-87999149D01*
X154453747Y-88202468D01*
X154983927Y-88202931D01*
X155473928Y-88000467D01*
X155474897Y-87999500D01*
X156392146Y-87999500D01*
X159080500Y-90687854D01*
X159080500Y-94891363D01*
X159020467Y-94746072D01*
X158645899Y-94370851D01*
X158156253Y-94167532D01*
X157626073Y-94167069D01*
X157136072Y-94369533D01*
X156760851Y-94744101D01*
X156557532Y-95233747D01*
X156557069Y-95763927D01*
X156759533Y-96253928D01*
X157134101Y-96629149D01*
X157623747Y-96832468D01*
X158153927Y-96832931D01*
X158643928Y-96630467D01*
X159019149Y-96255899D01*
X159080500Y-96108150D01*
X159080500Y-97322146D01*
X158122146Y-98280500D01*
X156805054Y-98280500D01*
X156316253Y-98077532D01*
X155786073Y-98077069D01*
X155296072Y-98279533D01*
X154920851Y-98654101D01*
X154717532Y-99143747D01*
X154717069Y-99673927D01*
X154919533Y-100163928D01*
X155294101Y-100539149D01*
X155783747Y-100742468D01*
X156313927Y-100742931D01*
X156803928Y-100540467D01*
X156804897Y-100539500D01*
X158590000Y-100539500D01*
X159022241Y-100453522D01*
X159388677Y-100208677D01*
X161008677Y-98588677D01*
X161125441Y-98413927D01*
X166837069Y-98413927D01*
X167039533Y-98903928D01*
X167414101Y-99279149D01*
X167903747Y-99482468D01*
X168433927Y-99482931D01*
X168923928Y-99280467D01*
X169299149Y-98905899D01*
X169502468Y-98416253D01*
X169502931Y-97886073D01*
X169360300Y-97540879D01*
X169532468Y-97126253D01*
X169532931Y-96596073D01*
X169383621Y-96234715D01*
X169532468Y-95876253D01*
X169532931Y-95346073D01*
X169330467Y-94856072D01*
X168955899Y-94480851D01*
X168466253Y-94277532D01*
X167936073Y-94277069D01*
X167446072Y-94479533D01*
X167070851Y-94854101D01*
X166867532Y-95343747D01*
X166867069Y-95873927D01*
X167016379Y-96235285D01*
X166867532Y-96593747D01*
X166867069Y-97123927D01*
X167009700Y-97469121D01*
X166837532Y-97883747D01*
X166837069Y-98413927D01*
X161125441Y-98413927D01*
X161253522Y-98222241D01*
X161339500Y-97790000D01*
X161339500Y-96914418D01*
X161414101Y-96989149D01*
X161903747Y-97192468D01*
X162433927Y-97192931D01*
X162923928Y-96990467D01*
X163299149Y-96615899D01*
X163502468Y-96126253D01*
X163502931Y-95596073D01*
X163301011Y-95107388D01*
X163308563Y-91338791D01*
X165897854Y-88749500D01*
X167364946Y-88749500D01*
X167728476Y-88900451D01*
X167416072Y-89029533D01*
X167040851Y-89404101D01*
X166837532Y-89893747D01*
X166837069Y-90423927D01*
X166976403Y-90761143D01*
X166817532Y-91143747D01*
X166817069Y-91673927D01*
X167019533Y-92163928D01*
X167394101Y-92539149D01*
X167883747Y-92742468D01*
X168413927Y-92742931D01*
X168903928Y-92540467D01*
X169279149Y-92165899D01*
X169482468Y-91676253D01*
X169482695Y-91416500D01*
X174674879Y-91416500D01*
X174833747Y-91482468D01*
X175363927Y-91482931D01*
X175853928Y-91280467D01*
X176229149Y-90905899D01*
X176432468Y-90416253D01*
X176432478Y-90403927D01*
X179767069Y-90403927D01*
X179969533Y-90893928D01*
X180344101Y-91269149D01*
X180833747Y-91472468D01*
X181363927Y-91472931D01*
X181853928Y-91270467D01*
X182229149Y-90895899D01*
X182432468Y-90406253D01*
X182432931Y-89876073D01*
X182230467Y-89386072D01*
X181855899Y-89010851D01*
X181366253Y-88807532D01*
X180836073Y-88807069D01*
X180346072Y-89009533D01*
X179970851Y-89384101D01*
X179767532Y-89873747D01*
X179767069Y-90403927D01*
X176432478Y-90403927D01*
X176432931Y-89886073D01*
X176230467Y-89396072D01*
X175855899Y-89020851D01*
X175366253Y-88817532D01*
X174836073Y-88817069D01*
X174626894Y-88903500D01*
X168619204Y-88903500D01*
X168561524Y-88879549D01*
X168873928Y-88750467D01*
X169249149Y-88375899D01*
X169452468Y-87886253D01*
X169452931Y-87356073D01*
X169250467Y-86866072D01*
X168875899Y-86490851D01*
X168386253Y-86287532D01*
X167856073Y-86287069D01*
X167366072Y-86489533D01*
X167365103Y-86490500D01*
X165430000Y-86490500D01*
X164997759Y-86576478D01*
X164631323Y-86821323D01*
X161381323Y-90071323D01*
X161326305Y-90153663D01*
X161253522Y-89787759D01*
X161008677Y-89421323D01*
X157658677Y-86071323D01*
X157292241Y-85826478D01*
X156860000Y-85740500D01*
X155475054Y-85740500D01*
X154986253Y-85537532D01*
X154456073Y-85537069D01*
X153966072Y-85739533D01*
X153955291Y-85750295D01*
X153925899Y-85720851D01*
X153436253Y-85517532D01*
X152906073Y-85517069D01*
X152416072Y-85719533D01*
X152040851Y-86094101D01*
X151837532Y-86583747D01*
X151837069Y-87113927D01*
X147688700Y-87113927D01*
X147688700Y-84200000D01*
X147606589Y-83787199D01*
X147372756Y-83437244D01*
X146762756Y-82827244D01*
X146617220Y-82730000D01*
X146412801Y-82593411D01*
X146000000Y-82511300D01*
X145446260Y-82511300D01*
X145395899Y-82460851D01*
X144906253Y-82257532D01*
X144376073Y-82257069D01*
X143886072Y-82459533D01*
X143510851Y-82834101D01*
X143307532Y-83323747D01*
X143307431Y-83438903D01*
X143151096Y-83503500D01*
X139556500Y-83503500D01*
X139556500Y-80443927D01*
X140647069Y-80443927D01*
X140849533Y-80933928D01*
X141224101Y-81309149D01*
X141713747Y-81512468D01*
X142243927Y-81512931D01*
X142733928Y-81310467D01*
X143109149Y-80935899D01*
X143312468Y-80446253D01*
X143312931Y-79916073D01*
X143110467Y-79426072D01*
X142735899Y-79050851D01*
X142246253Y-78847532D01*
X141716073Y-78847069D01*
X141226072Y-79049533D01*
X140850851Y-79424101D01*
X140647532Y-79913747D01*
X140647069Y-80443927D01*
X139556500Y-80443927D01*
X139556500Y-77567461D01*
X139912801Y-77496589D01*
X140066445Y-77393927D01*
X141657069Y-77393927D01*
X141859533Y-77883928D01*
X142234101Y-78259149D01*
X142723747Y-78462468D01*
X143253927Y-78462931D01*
X143743928Y-78260467D01*
X144119149Y-77885899D01*
X144203015Y-77683927D01*
X144867069Y-77683927D01*
X145069533Y-78173928D01*
X145444101Y-78549149D01*
X145933747Y-78752468D01*
X146463927Y-78752931D01*
X146953928Y-78550467D01*
X147329149Y-78175899D01*
X147532468Y-77686253D01*
X147532931Y-77156073D01*
X147330467Y-76666072D01*
X146955899Y-76290851D01*
X146466253Y-76087532D01*
X145936073Y-76087069D01*
X145446072Y-76289533D01*
X145070851Y-76664101D01*
X144867532Y-77153747D01*
X144867069Y-77683927D01*
X144203015Y-77683927D01*
X144322468Y-77396253D01*
X144322931Y-76866073D01*
X144120467Y-76376072D01*
X143745899Y-76000851D01*
X143256253Y-75797532D01*
X142726073Y-75797069D01*
X142236072Y-75999533D01*
X141860851Y-76374101D01*
X141657532Y-76863747D01*
X141657069Y-77393927D01*
X140066445Y-77393927D01*
X140262756Y-77262756D01*
X140496589Y-76912801D01*
X140578700Y-76500000D01*
X140496589Y-76087199D01*
X140262756Y-75737244D01*
X139912801Y-75503411D01*
X139556500Y-75432539D01*
X139556500Y-74903927D01*
X140297069Y-74903927D01*
X140499533Y-75393928D01*
X140874101Y-75769149D01*
X141363747Y-75972468D01*
X141893927Y-75972931D01*
X142383928Y-75770467D01*
X142759149Y-75395899D01*
X142962468Y-74906253D01*
X142962931Y-74376073D01*
X142760467Y-73886072D01*
X142385899Y-73510851D01*
X141896253Y-73307532D01*
X141366073Y-73307069D01*
X140876072Y-73509533D01*
X140500851Y-73884101D01*
X140297532Y-74373747D01*
X140297069Y-74903927D01*
X139556500Y-74903927D01*
X139556500Y-71740392D01*
X139633747Y-71772468D01*
X140163927Y-71772931D01*
X140653928Y-71570467D01*
X141029149Y-71195899D01*
X141232468Y-70706253D01*
X141232931Y-70176073D01*
X141116588Y-69894500D01*
X146867146Y-69894500D01*
X147054002Y-70081356D01*
X146820851Y-70314101D01*
X146617532Y-70803747D01*
X146617069Y-71333927D01*
X146819533Y-71823928D01*
X147194101Y-72199149D01*
X147668984Y-72396338D01*
X151502378Y-76229732D01*
X151256253Y-76127532D01*
X150726073Y-76127069D01*
X150236072Y-76329533D01*
X149860851Y-76704101D01*
X149657532Y-77193747D01*
X149657069Y-77723927D01*
X149859533Y-78213928D01*
X150234101Y-78589149D01*
X150723747Y-78792468D01*
X151253927Y-78792931D01*
X151743928Y-78590467D01*
X151840500Y-78494063D01*
X151840500Y-80215562D01*
X151556253Y-80097532D01*
X151026073Y-80097069D01*
X150536072Y-80299533D01*
X150160851Y-80674101D01*
X149957532Y-81163747D01*
X149957069Y-81693927D01*
X150121722Y-82092417D01*
X149967532Y-82463747D01*
X149967069Y-82993927D01*
X150169533Y-83483928D01*
X150492195Y-83807153D01*
X150396073Y-83807069D01*
X149906072Y-84009533D01*
X149530851Y-84384101D01*
X149327532Y-84873747D01*
X149327069Y-85403927D01*
X149529533Y-85893928D01*
X149904101Y-86269149D01*
X150393747Y-86472468D01*
X150923927Y-86472931D01*
X151413928Y-86270467D01*
X151789149Y-85895899D01*
X151951910Y-85503927D01*
X170367069Y-85503927D01*
X170569533Y-85993928D01*
X170944101Y-86369149D01*
X171433747Y-86572468D01*
X171963927Y-86572931D01*
X172037201Y-86542655D01*
X172037069Y-86693927D01*
X172239533Y-87183928D01*
X172614101Y-87559149D01*
X173103747Y-87762468D01*
X173633927Y-87762931D01*
X174123928Y-87560467D01*
X174499149Y-87185899D01*
X174702468Y-86696253D01*
X174702931Y-86166073D01*
X174500467Y-85676072D01*
X174125899Y-85300851D01*
X173636253Y-85097532D01*
X173106073Y-85097069D01*
X173032799Y-85127345D01*
X173032931Y-84976073D01*
X172830467Y-84486072D01*
X172455899Y-84110851D01*
X171966253Y-83907532D01*
X171436073Y-83907069D01*
X170946072Y-84109533D01*
X170570851Y-84484101D01*
X170367532Y-84973747D01*
X170367069Y-85503927D01*
X151951910Y-85503927D01*
X151992468Y-85406253D01*
X151992931Y-84876073D01*
X151790467Y-84386072D01*
X151467805Y-84062847D01*
X151563927Y-84062931D01*
X152053928Y-83860467D01*
X152054897Y-83859500D01*
X152420000Y-83859500D01*
X152852241Y-83773522D01*
X153218677Y-83528677D01*
X153768677Y-82978677D01*
X154013522Y-82612241D01*
X154099500Y-82180000D01*
X154099500Y-80089524D01*
X154443747Y-80232468D01*
X154973927Y-80232931D01*
X155463928Y-80030467D01*
X155839149Y-79655899D01*
X156042468Y-79166253D01*
X156042931Y-78636073D01*
X155840467Y-78146072D01*
X155465899Y-77770851D01*
X154976253Y-77567532D01*
X154446073Y-77567069D01*
X154099500Y-77710270D01*
X154099500Y-77044504D01*
X154217759Y-77123522D01*
X154650000Y-77209500D01*
X160022146Y-77209500D01*
X161080500Y-78267854D01*
X161080500Y-78934946D01*
X161009902Y-79104965D01*
X160945899Y-79040851D01*
X160456253Y-78837532D01*
X159926073Y-78837069D01*
X159436072Y-79039533D01*
X159060851Y-79414101D01*
X158857532Y-79903747D01*
X158857069Y-80433927D01*
X159059533Y-80923928D01*
X159434101Y-81299149D01*
X159923747Y-81502468D01*
X160453927Y-81502931D01*
X160943928Y-81300467D01*
X161319149Y-80925899D01*
X161390098Y-80755035D01*
X161454101Y-80819149D01*
X161943747Y-81022468D01*
X162473927Y-81022931D01*
X162963928Y-80820467D01*
X163339149Y-80445899D01*
X163539281Y-79963927D01*
X164017069Y-79963927D01*
X164219533Y-80453928D01*
X164508995Y-80743894D01*
X164467532Y-80843747D01*
X164467069Y-81373927D01*
X164669533Y-81863928D01*
X165044101Y-82239149D01*
X165185629Y-82297917D01*
X165137532Y-82413747D01*
X165137069Y-82943927D01*
X165339533Y-83433928D01*
X165714101Y-83809149D01*
X166203747Y-84012468D01*
X166733927Y-84012931D01*
X167223928Y-83810467D01*
X167599149Y-83435899D01*
X167802468Y-82946253D01*
X167802931Y-82416073D01*
X167600467Y-81926072D01*
X167225899Y-81550851D01*
X167084371Y-81492083D01*
X167132468Y-81376253D01*
X167132931Y-80846073D01*
X166930467Y-80356072D01*
X166641005Y-80066106D01*
X166682468Y-79966253D01*
X166682931Y-79436073D01*
X166480467Y-78946072D01*
X166105899Y-78570851D01*
X166031602Y-78540000D01*
X183150695Y-78540000D01*
X183282041Y-79200320D01*
X183656082Y-79760113D01*
X183730743Y-79810000D01*
X183656082Y-79859887D01*
X183282041Y-80419680D01*
X183150695Y-81080000D01*
X183282041Y-81740320D01*
X183656082Y-82300113D01*
X183730743Y-82350000D01*
X183656082Y-82399887D01*
X183282041Y-82959680D01*
X183150695Y-83620000D01*
X183282041Y-84280320D01*
X183656082Y-84840113D01*
X183730743Y-84890000D01*
X183656082Y-84939887D01*
X183282041Y-85499680D01*
X183150695Y-86160000D01*
X183282041Y-86820320D01*
X183656082Y-87380113D01*
X183730743Y-87430000D01*
X183656082Y-87479887D01*
X183282041Y-88039680D01*
X183150695Y-88700000D01*
X183282041Y-89360320D01*
X183656082Y-89920113D01*
X183730743Y-89970000D01*
X183656082Y-90019887D01*
X183282041Y-90579680D01*
X183150695Y-91240000D01*
X183282041Y-91900320D01*
X183656082Y-92460113D01*
X184215875Y-92834154D01*
X184876195Y-92965500D01*
X184943805Y-92965500D01*
X185604125Y-92834154D01*
X186163918Y-92460113D01*
X186316406Y-92231898D01*
X186582864Y-92504798D01*
X187132888Y-92740360D01*
X187371500Y-92600620D01*
X187371500Y-91318500D01*
X187528500Y-91318500D01*
X187528500Y-92600620D01*
X187767112Y-92740360D01*
X188317136Y-92504798D01*
X188735146Y-92076682D01*
X188950354Y-91557111D01*
X188810362Y-91318500D01*
X187528500Y-91318500D01*
X187371500Y-91318500D01*
X187351500Y-91318500D01*
X187351500Y-91161500D01*
X187371500Y-91161500D01*
X187371500Y-88778500D01*
X187528500Y-88778500D01*
X187528500Y-91161500D01*
X188810362Y-91161500D01*
X188950354Y-90922889D01*
X188735146Y-90403318D01*
X188317136Y-89975202D01*
X188304990Y-89970000D01*
X188317136Y-89964798D01*
X188735146Y-89536682D01*
X188950354Y-89017111D01*
X188810362Y-88778500D01*
X187528500Y-88778500D01*
X187371500Y-88778500D01*
X187351500Y-88778500D01*
X187351500Y-88621500D01*
X187371500Y-88621500D01*
X187371500Y-86238500D01*
X187528500Y-86238500D01*
X187528500Y-88621500D01*
X188810362Y-88621500D01*
X188950354Y-88382889D01*
X188735146Y-87863318D01*
X188317136Y-87435202D01*
X188304990Y-87430000D01*
X188317136Y-87424798D01*
X188735146Y-86996682D01*
X188950354Y-86477111D01*
X188810362Y-86238500D01*
X187528500Y-86238500D01*
X187371500Y-86238500D01*
X187351500Y-86238500D01*
X187351500Y-86081500D01*
X187371500Y-86081500D01*
X187371500Y-83698500D01*
X187528500Y-83698500D01*
X187528500Y-86081500D01*
X188810362Y-86081500D01*
X188950354Y-85842889D01*
X188735146Y-85323318D01*
X188317136Y-84895202D01*
X188304990Y-84890000D01*
X188317136Y-84884798D01*
X188735146Y-84456682D01*
X188950354Y-83937111D01*
X188810362Y-83698500D01*
X187528500Y-83698500D01*
X187371500Y-83698500D01*
X187351500Y-83698500D01*
X187351500Y-83541500D01*
X187371500Y-83541500D01*
X187371500Y-81158500D01*
X187528500Y-81158500D01*
X187528500Y-83541500D01*
X188810362Y-83541500D01*
X188950354Y-83302889D01*
X188735146Y-82783318D01*
X188317136Y-82355202D01*
X188304990Y-82350000D01*
X188317136Y-82344798D01*
X188735146Y-81916682D01*
X188950354Y-81397111D01*
X188810362Y-81158500D01*
X187528500Y-81158500D01*
X187371500Y-81158500D01*
X187351500Y-81158500D01*
X187351500Y-81001500D01*
X187371500Y-81001500D01*
X187371500Y-78618500D01*
X187528500Y-78618500D01*
X187528500Y-81001500D01*
X188810362Y-81001500D01*
X188950354Y-80762889D01*
X188735146Y-80243318D01*
X188317136Y-79815202D01*
X188304990Y-79810000D01*
X188317136Y-79804798D01*
X188735146Y-79376682D01*
X188950354Y-78857111D01*
X188810362Y-78618500D01*
X187528500Y-78618500D01*
X187371500Y-78618500D01*
X187351500Y-78618500D01*
X187351500Y-78461500D01*
X187371500Y-78461500D01*
X187371500Y-76078500D01*
X187528500Y-76078500D01*
X187528500Y-78461500D01*
X188810362Y-78461500D01*
X188950354Y-78222889D01*
X188735146Y-77703318D01*
X188317136Y-77275202D01*
X188304990Y-77270000D01*
X188317136Y-77264798D01*
X188735146Y-76836682D01*
X188950354Y-76317111D01*
X188810362Y-76078500D01*
X187528500Y-76078500D01*
X187371500Y-76078500D01*
X187351500Y-76078500D01*
X187351500Y-75921500D01*
X187371500Y-75921500D01*
X187371500Y-74639380D01*
X187528500Y-74639380D01*
X187528500Y-75921500D01*
X188810362Y-75921500D01*
X188950354Y-75682889D01*
X188735146Y-75163318D01*
X188317136Y-74735202D01*
X187767112Y-74499640D01*
X187528500Y-74639380D01*
X187371500Y-74639380D01*
X187132888Y-74499640D01*
X186582864Y-74735202D01*
X186553086Y-74765700D01*
X186399860Y-74527580D01*
X186107292Y-74327676D01*
X185760000Y-74257348D01*
X184060000Y-74257348D01*
X183735559Y-74318396D01*
X183437580Y-74510140D01*
X183237676Y-74802708D01*
X183167348Y-75150000D01*
X183167348Y-76850000D01*
X183228396Y-77174441D01*
X183420140Y-77472420D01*
X183512154Y-77535291D01*
X183282041Y-77879680D01*
X183150695Y-78540000D01*
X166031602Y-78540000D01*
X165616253Y-78367532D01*
X165086073Y-78367069D01*
X164596072Y-78569533D01*
X164220851Y-78944101D01*
X164017532Y-79433747D01*
X164017069Y-79963927D01*
X163539281Y-79963927D01*
X163542468Y-79956253D01*
X163542931Y-79426073D01*
X163340467Y-78936072D01*
X163339500Y-78935103D01*
X163339500Y-77800000D01*
X163253522Y-77367759D01*
X163008677Y-77001323D01*
X161316854Y-75309500D01*
X171430000Y-75309500D01*
X171862241Y-75223522D01*
X172228677Y-74978677D01*
X174088677Y-73118677D01*
X174333522Y-72752241D01*
X174419500Y-72320000D01*
X174419500Y-72075054D01*
X174622468Y-71586253D01*
X174622931Y-71056073D01*
X174420467Y-70566072D01*
X174045899Y-70190851D01*
X173591747Y-70002270D01*
X173813928Y-69910467D01*
X174189149Y-69535899D01*
X174392468Y-69046253D01*
X174392517Y-68990000D01*
X183140695Y-68990000D01*
X183272041Y-69650320D01*
X183646082Y-70210113D01*
X183720743Y-70260000D01*
X183646082Y-70309887D01*
X183272041Y-70869680D01*
X183140695Y-71530000D01*
X183272041Y-72190320D01*
X183646082Y-72750113D01*
X184205875Y-73124154D01*
X184866195Y-73255500D01*
X184933805Y-73255500D01*
X185594125Y-73124154D01*
X186153918Y-72750113D01*
X186306406Y-72521898D01*
X186572864Y-72794798D01*
X187122888Y-73030360D01*
X187361500Y-72890620D01*
X187361500Y-71608500D01*
X187518500Y-71608500D01*
X187518500Y-72890620D01*
X187757112Y-73030360D01*
X188307136Y-72794798D01*
X188725146Y-72366682D01*
X188940354Y-71847111D01*
X188800362Y-71608500D01*
X187518500Y-71608500D01*
X187361500Y-71608500D01*
X187341500Y-71608500D01*
X187341500Y-71451500D01*
X187361500Y-71451500D01*
X187361500Y-69068500D01*
X187518500Y-69068500D01*
X187518500Y-71451500D01*
X188800362Y-71451500D01*
X188940354Y-71212889D01*
X188725146Y-70693318D01*
X188307136Y-70265202D01*
X188294990Y-70260000D01*
X188307136Y-70254798D01*
X188725146Y-69826682D01*
X188940354Y-69307111D01*
X188800362Y-69068500D01*
X187518500Y-69068500D01*
X187361500Y-69068500D01*
X187341500Y-69068500D01*
X187341500Y-68911500D01*
X187361500Y-68911500D01*
X187361500Y-66528500D01*
X187518500Y-66528500D01*
X187518500Y-68911500D01*
X188800362Y-68911500D01*
X188940354Y-68672889D01*
X188725146Y-68153318D01*
X188307136Y-67725202D01*
X188294990Y-67720000D01*
X188307136Y-67714798D01*
X188725146Y-67286682D01*
X188940354Y-66767111D01*
X188800362Y-66528500D01*
X187518500Y-66528500D01*
X187361500Y-66528500D01*
X187341500Y-66528500D01*
X187341500Y-66371500D01*
X187361500Y-66371500D01*
X187361500Y-65089380D01*
X187518500Y-65089380D01*
X187518500Y-66371500D01*
X188800362Y-66371500D01*
X188940354Y-66132889D01*
X188725146Y-65613318D01*
X188307136Y-65185202D01*
X187757112Y-64949640D01*
X187518500Y-65089380D01*
X187361500Y-65089380D01*
X187122888Y-64949640D01*
X186572864Y-65185202D01*
X186543086Y-65215700D01*
X186389860Y-64977580D01*
X186097292Y-64777676D01*
X185750000Y-64707348D01*
X184050000Y-64707348D01*
X183725559Y-64768396D01*
X183427580Y-64960140D01*
X183227676Y-65252708D01*
X183157348Y-65600000D01*
X183157348Y-67300000D01*
X183218396Y-67624441D01*
X183410140Y-67922420D01*
X183502154Y-67985291D01*
X183272041Y-68329680D01*
X183140695Y-68990000D01*
X174392517Y-68990000D01*
X174392931Y-68516073D01*
X174190467Y-68026072D01*
X173815899Y-67650851D01*
X173326253Y-67447532D01*
X173324885Y-67447531D01*
X171318677Y-65441323D01*
X170952241Y-65196478D01*
X170520000Y-65110500D01*
X168375054Y-65110500D01*
X167886253Y-64907532D01*
X167356073Y-64907069D01*
X166866072Y-65109533D01*
X166490851Y-65484101D01*
X166287532Y-65973747D01*
X166287069Y-66503927D01*
X166489533Y-66993928D01*
X166864101Y-67369149D01*
X167353747Y-67572468D01*
X167883927Y-67572931D01*
X168373928Y-67370467D01*
X168374897Y-67369500D01*
X170052146Y-67369500D01*
X171727418Y-69044772D01*
X171929533Y-69533928D01*
X172304101Y-69909149D01*
X172758253Y-70097730D01*
X172536072Y-70189533D01*
X172160851Y-70564101D01*
X171957532Y-71053747D01*
X171957069Y-71583927D01*
X172094971Y-71917675D01*
X170962146Y-73050500D01*
X159610876Y-73050500D01*
X159662468Y-72926253D01*
X159662931Y-72396073D01*
X159460467Y-71906072D01*
X159458326Y-71903927D01*
X160217069Y-71903927D01*
X160419533Y-72393928D01*
X160794101Y-72769149D01*
X161283747Y-72972468D01*
X161813927Y-72972931D01*
X162303928Y-72770467D01*
X162679149Y-72395899D01*
X162882468Y-71906253D01*
X162882749Y-71583927D01*
X168567069Y-71583927D01*
X168769533Y-72073928D01*
X169144101Y-72449149D01*
X169633747Y-72652468D01*
X170163927Y-72652931D01*
X170653928Y-72450467D01*
X171029149Y-72075899D01*
X171232468Y-71586253D01*
X171232931Y-71056073D01*
X171030467Y-70566072D01*
X170655899Y-70190851D01*
X170166253Y-69987532D01*
X169636073Y-69987069D01*
X169146072Y-70189533D01*
X168770851Y-70564101D01*
X168567532Y-71053747D01*
X168567069Y-71583927D01*
X162882749Y-71583927D01*
X162882931Y-71376073D01*
X162700900Y-70935524D01*
X162944101Y-71179149D01*
X163433747Y-71382468D01*
X163963927Y-71382931D01*
X164453928Y-71180467D01*
X164829149Y-70805899D01*
X165032468Y-70316253D01*
X165032931Y-69786073D01*
X164830467Y-69296072D01*
X164455899Y-68920851D01*
X163966253Y-68717532D01*
X163436073Y-68717069D01*
X162946072Y-68919533D01*
X162570851Y-69294101D01*
X162367532Y-69783747D01*
X162367069Y-70313927D01*
X162549100Y-70754476D01*
X162305899Y-70510851D01*
X161816253Y-70307532D01*
X161286073Y-70307069D01*
X160796072Y-70509533D01*
X160420851Y-70884101D01*
X160217532Y-71373747D01*
X160217069Y-71903927D01*
X159458326Y-71903927D01*
X159085899Y-71530851D01*
X158596253Y-71327532D01*
X158066073Y-71327069D01*
X157576072Y-71529533D01*
X157200851Y-71904101D01*
X156997532Y-72393747D01*
X156997069Y-72923927D01*
X157049368Y-73050500D01*
X155037854Y-73050500D01*
X152942997Y-70955643D01*
X153003928Y-70930467D01*
X153070584Y-70863927D01*
X154267069Y-70863927D01*
X154469533Y-71353928D01*
X154844101Y-71729149D01*
X155333747Y-71932468D01*
X155863927Y-71932931D01*
X156353928Y-71730467D01*
X156729149Y-71355899D01*
X156932468Y-70866253D01*
X156932931Y-70336073D01*
X156730467Y-69846072D01*
X156355899Y-69470851D01*
X155866253Y-69267532D01*
X155336073Y-69267069D01*
X154846072Y-69469533D01*
X154470851Y-69844101D01*
X154267532Y-70333747D01*
X154267069Y-70863927D01*
X153070584Y-70863927D01*
X153379149Y-70555899D01*
X153582468Y-70066253D01*
X153582931Y-69536073D01*
X153380467Y-69046072D01*
X153005899Y-68670851D01*
X152516253Y-68467532D01*
X151986073Y-68467069D01*
X151496072Y-68669533D01*
X151120851Y-69044101D01*
X151094622Y-69107268D01*
X148501281Y-66513927D01*
X158857069Y-66513927D01*
X159059533Y-67003928D01*
X159434101Y-67379149D01*
X159923747Y-67582468D01*
X160453927Y-67582931D01*
X160943928Y-67380467D01*
X161319149Y-67005899D01*
X161522468Y-66516253D01*
X161522931Y-65986073D01*
X161320467Y-65496072D01*
X160945899Y-65120851D01*
X160456253Y-64917532D01*
X159926073Y-64917069D01*
X159436072Y-65119533D01*
X159060851Y-65494101D01*
X158857532Y-65983747D01*
X158857069Y-66513927D01*
X148501281Y-66513927D01*
X147873677Y-65886323D01*
X147507241Y-65641478D01*
X147075000Y-65555500D01*
X133202704Y-65555500D01*
X133202931Y-65296073D01*
X133000467Y-64806072D01*
X132999500Y-64805103D01*
X132999500Y-64576396D01*
X179404619Y-64576396D01*
X179605902Y-64956238D01*
X180551682Y-65358521D01*
X181579417Y-65368248D01*
X182532641Y-64983938D01*
X182574098Y-64956238D01*
X182775381Y-64576396D01*
X181090000Y-62891016D01*
X179404619Y-64576396D01*
X132999500Y-64576396D01*
X132999500Y-64492652D01*
X134540000Y-64492652D01*
X134864441Y-64431604D01*
X135162420Y-64239860D01*
X135225291Y-64147846D01*
X135569680Y-64377959D01*
X136230000Y-64509305D01*
X136890320Y-64377959D01*
X137450113Y-64003918D01*
X137500000Y-63929257D01*
X137549887Y-64003918D01*
X138109680Y-64377959D01*
X138770000Y-64509305D01*
X139430320Y-64377959D01*
X139990113Y-64003918D01*
X140040000Y-63929257D01*
X140089887Y-64003918D01*
X140649680Y-64377959D01*
X141310000Y-64509305D01*
X141970320Y-64377959D01*
X142530113Y-64003918D01*
X142904154Y-63444125D01*
X142992620Y-62999375D01*
X144916500Y-62999375D01*
X144916500Y-63735957D01*
X145020557Y-63987172D01*
X145212829Y-64179444D01*
X145464044Y-64283500D01*
X146200625Y-64283500D01*
X146371500Y-64112625D01*
X146371500Y-62828500D01*
X145087375Y-62828500D01*
X144916500Y-62999375D01*
X142992620Y-62999375D01*
X143035500Y-62783805D01*
X143035500Y-62716195D01*
X142904154Y-62055875D01*
X142709159Y-61764043D01*
X144916500Y-61764043D01*
X144916500Y-62500625D01*
X145087375Y-62671500D01*
X146371500Y-62671500D01*
X146371500Y-61387375D01*
X146200625Y-61216500D01*
X145464044Y-61216500D01*
X145212829Y-61320556D01*
X145020557Y-61512828D01*
X144916500Y-61764043D01*
X142709159Y-61764043D01*
X142530113Y-61496082D01*
X142080259Y-61195500D01*
X148219741Y-61195500D01*
X147825523Y-61458908D01*
X147825523Y-61458908D01*
G37*
X147825523Y-61458908D02*
X147687171Y-61320556D01*
X147435956Y-61216500D01*
X146699375Y-61216500D01*
X146528500Y-61387375D01*
X146528500Y-62671500D01*
X146548500Y-62671500D01*
X146548500Y-62828500D01*
X146528500Y-62828500D01*
X146528500Y-64112625D01*
X146699375Y-64283500D01*
X147435956Y-64283500D01*
X147687171Y-64179444D01*
X147825523Y-64041092D01*
X148329680Y-64377959D01*
X148990000Y-64509305D01*
X149650320Y-64377959D01*
X150210113Y-64003918D01*
X150260000Y-63929257D01*
X150309887Y-64003918D01*
X150869680Y-64377959D01*
X151530000Y-64509305D01*
X152190320Y-64377959D01*
X152750113Y-64003918D01*
X152800000Y-63929257D01*
X152849887Y-64003918D01*
X153409680Y-64377959D01*
X154070000Y-64509305D01*
X154730320Y-64377959D01*
X155290113Y-64003918D01*
X155664154Y-63444125D01*
X155739146Y-63067112D01*
X157519640Y-63067112D01*
X157755202Y-63617136D01*
X158183318Y-64035146D01*
X158702889Y-64250354D01*
X158941500Y-64110362D01*
X158941500Y-62828500D01*
X157659380Y-62828500D01*
X157519640Y-63067112D01*
X155739146Y-63067112D01*
X155795500Y-62783805D01*
X155795500Y-62716195D01*
X155739147Y-62432888D01*
X157519640Y-62432888D01*
X157659380Y-62671500D01*
X158941500Y-62671500D01*
X158941500Y-61389638D01*
X158702889Y-61249646D01*
X158183318Y-61464854D01*
X157755202Y-61882864D01*
X157519640Y-62432888D01*
X155739147Y-62432888D01*
X155664154Y-62055875D01*
X155290113Y-61496082D01*
X154840259Y-61195500D01*
X160789741Y-61195500D01*
X160339887Y-61496082D01*
X160161735Y-61762706D01*
X159856682Y-61464854D01*
X159337111Y-61249646D01*
X159098500Y-61389638D01*
X159098500Y-62671500D01*
X159118500Y-62671500D01*
X159118500Y-62828500D01*
X159098500Y-62828500D01*
X159098500Y-64110362D01*
X159337111Y-64250354D01*
X159856682Y-64035146D01*
X160161735Y-63737294D01*
X160339887Y-64003918D01*
X160899680Y-64377959D01*
X161560000Y-64509305D01*
X162220320Y-64377959D01*
X162780113Y-64003918D01*
X162958265Y-63737294D01*
X163263318Y-64035146D01*
X163782889Y-64250354D01*
X164021500Y-64110362D01*
X164021500Y-62828500D01*
X164001500Y-62828500D01*
X164001500Y-62671500D01*
X164021500Y-62671500D01*
X164021500Y-61389638D01*
X163782889Y-61249646D01*
X163263318Y-61464854D01*
X162958265Y-61762706D01*
X162780113Y-61496082D01*
X162330259Y-61195500D01*
X165869741Y-61195500D01*
X165419887Y-61496082D01*
X165241735Y-61762706D01*
X164936682Y-61464854D01*
X164417111Y-61249646D01*
X164178500Y-61389638D01*
X164178500Y-62671500D01*
X164198500Y-62671500D01*
X164198500Y-62828500D01*
X164178500Y-62828500D01*
X164178500Y-64110362D01*
X164417111Y-64250354D01*
X164936682Y-64035146D01*
X165241735Y-63737294D01*
X165419887Y-64003918D01*
X165979680Y-64377959D01*
X166640000Y-64509305D01*
X167300320Y-64377959D01*
X167860113Y-64003918D01*
X168038265Y-63737294D01*
X168343318Y-64035146D01*
X168862889Y-64250354D01*
X169101500Y-64110362D01*
X169101500Y-62828500D01*
X169081500Y-62828500D01*
X169081500Y-62671500D01*
X169101500Y-62671500D01*
X169101500Y-61389638D01*
X168862889Y-61249646D01*
X168343318Y-61464854D01*
X168038265Y-61762706D01*
X167860113Y-61496082D01*
X167410259Y-61195500D01*
X170949741Y-61195500D01*
X170499887Y-61496082D01*
X170321735Y-61762706D01*
X170016682Y-61464854D01*
X169497111Y-61249646D01*
X169258500Y-61389638D01*
X169258500Y-62671500D01*
X169278500Y-62671500D01*
X169278500Y-62828500D01*
X169258500Y-62828500D01*
X169258500Y-64110362D01*
X169497111Y-64250354D01*
X170016682Y-64035146D01*
X170321735Y-63737294D01*
X170499887Y-64003918D01*
X171059680Y-64377959D01*
X171720000Y-64509305D01*
X172380320Y-64377959D01*
X172940113Y-64003918D01*
X173118265Y-63737294D01*
X173423318Y-64035146D01*
X173942889Y-64250354D01*
X174181500Y-64110362D01*
X174181500Y-62828500D01*
X174161500Y-62828500D01*
X174161500Y-62671500D01*
X174181500Y-62671500D01*
X174181500Y-61389638D01*
X173942889Y-61249646D01*
X173423318Y-61464854D01*
X173118265Y-61762706D01*
X172940113Y-61496082D01*
X172490259Y-61195500D01*
X175428034Y-61195500D01*
X175327580Y-61260140D01*
X175151280Y-61518163D01*
X175096682Y-61464854D01*
X174577111Y-61249646D01*
X174338500Y-61389638D01*
X174338500Y-62671500D01*
X174358500Y-62671500D01*
X174358500Y-62828500D01*
X174338500Y-62828500D01*
X174338500Y-64110362D01*
X174577111Y-64250354D01*
X175096682Y-64035146D01*
X175153767Y-63979409D01*
X175310140Y-64222420D01*
X175602708Y-64422324D01*
X175950000Y-64492652D01*
X177650000Y-64492652D01*
X177974441Y-64431604D01*
X178272420Y-64239860D01*
X178472324Y-63947292D01*
X178542652Y-63600000D01*
X178542652Y-63370863D01*
X178886062Y-64222641D01*
X178913762Y-64264098D01*
X179293604Y-64465381D01*
X180978984Y-62780000D01*
X180964842Y-62765858D01*
X181075858Y-62654842D01*
X181090000Y-62668984D01*
X181104142Y-62654842D01*
X181215158Y-62765858D01*
X181201016Y-62780000D01*
X182886396Y-64465381D01*
X183266238Y-64264098D01*
X183668521Y-63318318D01*
X183678248Y-62290583D01*
X183293938Y-61337359D01*
X183266238Y-61295902D01*
X183076769Y-61195500D01*
X188066646Y-61195500D01*
X189044500Y-62173355D01*
X189044500Y-109098715D01*
X188904098Y-108833762D01*
X187958318Y-108431479D01*
X186930583Y-108421752D01*
X185977359Y-108806062D01*
X185935902Y-108833762D01*
X185734619Y-109213604D01*
X187420000Y-110898984D01*
X187434142Y-110884842D01*
X187545158Y-110995858D01*
X187531016Y-111010000D01*
X187545158Y-111024142D01*
X187434142Y-111135158D01*
X187420000Y-111121016D01*
X187405858Y-111135158D01*
X187294842Y-111024142D01*
X187308984Y-111010000D01*
X185623604Y-109324619D01*
X185243762Y-109525902D01*
X184841479Y-110471682D01*
X184831752Y-111499417D01*
X185216062Y-112452641D01*
X185243762Y-112494098D01*
X185546457Y-112654500D01*
X183348724Y-112654500D01*
X183542420Y-112529860D01*
X183742324Y-112237292D01*
X183812652Y-111890000D01*
X183812652Y-110190000D01*
X183751604Y-109865559D01*
X183559860Y-109567580D01*
X183267292Y-109367676D01*
X182920000Y-109297348D01*
X181220000Y-109297348D01*
X180895559Y-109358396D01*
X180597580Y-109550140D01*
X180534709Y-109642154D01*
X180190320Y-109412041D01*
X179530000Y-109280695D01*
X178869680Y-109412041D01*
X178309887Y-109786082D01*
X178260000Y-109860743D01*
X178210113Y-109786082D01*
X177650320Y-109412041D01*
X176990000Y-109280695D01*
X176329680Y-109412041D01*
X175769887Y-109786082D01*
X175720000Y-109860743D01*
X175670113Y-109786082D01*
X175110320Y-109412041D01*
X174450000Y-109280695D01*
X173789680Y-109412041D01*
X173229887Y-109786082D01*
X173051735Y-110052706D01*
X172746682Y-109754854D01*
X172227111Y-109539646D01*
X171988500Y-109679638D01*
X171988500Y-110961500D01*
X172008500Y-110961500D01*
X172008500Y-111118500D01*
X171988500Y-111118500D01*
X171988500Y-112400362D01*
X172227111Y-112540354D01*
X172746682Y-112325146D01*
X173051735Y-112027294D01*
X173229887Y-112293918D01*
X173769537Y-112654500D01*
X167779805Y-112654500D01*
X167942420Y-112549860D01*
X168142324Y-112257292D01*
X168212652Y-111910000D01*
X168212652Y-111357112D01*
X170409640Y-111357112D01*
X170645202Y-111907136D01*
X171073318Y-112325146D01*
X171592889Y-112540354D01*
X171831500Y-112400362D01*
X171831500Y-111118500D01*
X170549380Y-111118500D01*
X170409640Y-111357112D01*
X168212652Y-111357112D01*
X168212652Y-110722888D01*
X170409640Y-110722888D01*
X170549380Y-110961500D01*
X171831500Y-110961500D01*
X171831500Y-109679638D01*
X171592889Y-109539646D01*
X171073318Y-109754854D01*
X170645202Y-110172864D01*
X170409640Y-110722888D01*
X168212652Y-110722888D01*
X168212652Y-110210000D01*
X168151604Y-109885559D01*
X167959860Y-109587580D01*
X167667292Y-109387676D01*
X167320000Y-109317348D01*
X165620000Y-109317348D01*
X165295559Y-109378396D01*
X164997580Y-109570140D01*
X164821280Y-109828163D01*
X164766682Y-109774854D01*
X164247111Y-109559646D01*
X164008500Y-109699638D01*
X164008500Y-110981500D01*
X164028500Y-110981500D01*
X164028500Y-111138500D01*
X164008500Y-111138500D01*
X164008500Y-112420362D01*
X164247111Y-112560354D01*
X164766682Y-112345146D01*
X164823767Y-112289409D01*
X164980140Y-112532420D01*
X165158809Y-112654500D01*
X162100395Y-112654500D01*
X162610113Y-112313918D01*
X162788265Y-112047294D01*
X163093318Y-112345146D01*
X163612889Y-112560354D01*
X163851500Y-112420362D01*
X163851500Y-111138500D01*
X163831500Y-111138500D01*
X163831500Y-110981500D01*
X163851500Y-110981500D01*
X163851500Y-109699638D01*
X163612889Y-109559646D01*
X163093318Y-109774854D01*
X162788265Y-110072706D01*
X162610113Y-109806082D01*
X162050320Y-109432041D01*
X161390000Y-109300695D01*
X160729680Y-109432041D01*
X160169887Y-109806082D01*
X159991735Y-110072706D01*
X159686682Y-109774854D01*
X159167111Y-109559646D01*
X158928500Y-109699638D01*
X158928500Y-110981500D01*
X158948500Y-110981500D01*
X158948500Y-111138500D01*
X158928500Y-111138500D01*
X158928500Y-112420362D01*
X159167111Y-112560354D01*
X159686682Y-112345146D01*
X159991735Y-112047294D01*
X160169887Y-112313918D01*
X160679605Y-112654500D01*
X157020395Y-112654500D01*
X157530113Y-112313918D01*
X157708265Y-112047294D01*
X158013318Y-112345146D01*
X158532889Y-112560354D01*
X158771500Y-112420362D01*
X158771500Y-111138500D01*
X158751500Y-111138500D01*
X158751500Y-110981500D01*
X158771500Y-110981500D01*
X158771500Y-109699638D01*
X158532889Y-109559646D01*
X158013318Y-109774854D01*
X157708265Y-110072706D01*
X157530113Y-109806082D01*
X156970320Y-109432041D01*
X156310000Y-109300695D01*
X155649680Y-109432041D01*
X155089887Y-109806082D01*
X154911735Y-110072706D01*
X154606682Y-109774854D01*
X154087111Y-109559646D01*
X153848500Y-109699638D01*
X153848500Y-110981500D01*
X153868500Y-110981500D01*
X153868500Y-111138500D01*
X153848500Y-111138500D01*
X153848500Y-112420362D01*
X154087111Y-112560354D01*
X154606682Y-112345146D01*
X154911735Y-112047294D01*
X155089887Y-112313918D01*
X155599605Y-112654500D01*
X151940395Y-112654500D01*
X152450113Y-112313918D01*
X152628265Y-112047294D01*
X152933318Y-112345146D01*
X153452889Y-112560354D01*
X153691500Y-112420362D01*
X153691500Y-111138500D01*
X153671500Y-111138500D01*
X153671500Y-110981500D01*
X153691500Y-110981500D01*
X153691500Y-109699638D01*
X153452889Y-109559646D01*
X152933318Y-109774854D01*
X152628265Y-110072706D01*
X152450113Y-109806082D01*
X151890320Y-109432041D01*
X151230000Y-109300695D01*
X150569680Y-109432041D01*
X150009887Y-109806082D01*
X149831735Y-110072706D01*
X149526682Y-109774854D01*
X149007111Y-109559646D01*
X148768500Y-109699638D01*
X148768500Y-110981500D01*
X148788500Y-110981500D01*
X148788500Y-111138500D01*
X148768500Y-111138500D01*
X148768500Y-112420362D01*
X149007111Y-112560354D01*
X149526682Y-112345146D01*
X149831735Y-112047294D01*
X150009887Y-112313918D01*
X150519605Y-112654500D01*
X144165361Y-112654500D01*
X144660113Y-112323918D01*
X145034154Y-111764125D01*
X145111135Y-111377112D01*
X147189640Y-111377112D01*
X147425202Y-111927136D01*
X147853318Y-112345146D01*
X148372889Y-112560354D01*
X148611500Y-112420362D01*
X148611500Y-111138500D01*
X147329380Y-111138500D01*
X147189640Y-111377112D01*
X145111135Y-111377112D01*
X145165500Y-111103805D01*
X145165500Y-111036195D01*
X145107158Y-110742888D01*
X147189640Y-110742888D01*
X147329380Y-110981500D01*
X148611500Y-110981500D01*
X148611500Y-109699638D01*
X148372889Y-109559646D01*
X147853318Y-109774854D01*
X147425202Y-110192864D01*
X147189640Y-110742888D01*
X145107158Y-110742888D01*
X145034154Y-110375875D01*
X144660113Y-109816082D01*
X144569500Y-109755536D01*
X144569500Y-108660000D01*
X144483522Y-108227759D01*
X144238677Y-107861323D01*
X143920229Y-107542875D01*
X143983927Y-107542931D01*
X144473928Y-107340467D01*
X144849149Y-106965899D01*
X145052468Y-106476253D01*
X145052711Y-106198077D01*
X145085000Y-106204500D01*
X173280104Y-106204500D01*
X173654101Y-106579149D01*
X174143747Y-106782468D01*
X174673927Y-106782931D01*
X175163928Y-106580467D01*
X175539149Y-106205899D01*
X175707889Y-105799528D01*
X175829533Y-106093928D01*
X176204101Y-106469149D01*
X176693747Y-106672468D01*
X177223927Y-106672931D01*
X177713928Y-106470467D01*
X178089149Y-106095899D01*
X178265843Y-105670373D01*
X178399533Y-105993928D01*
X178774101Y-106369149D01*
X179263747Y-106572468D01*
X179793927Y-106572931D01*
X180283928Y-106370467D01*
X180659149Y-105995899D01*
X180786799Y-105688484D01*
X180929533Y-106033928D01*
X181304101Y-106409149D01*
X181793747Y-106612468D01*
X182323927Y-106612931D01*
X182813928Y-106410467D01*
X183189149Y-106035899D01*
X183392468Y-105546253D01*
X183392931Y-105016073D01*
X183190467Y-104526072D01*
X183189500Y-104525103D01*
X183189500Y-103565086D01*
X183282041Y-104030320D01*
X183656082Y-104590113D01*
X184215875Y-104964154D01*
X184876195Y-105095500D01*
X184943805Y-105095500D01*
X185604125Y-104964154D01*
X186163918Y-104590113D01*
X186316406Y-104361898D01*
X186582864Y-104634798D01*
X187132888Y-104870360D01*
X187371500Y-104730620D01*
X187371500Y-103448500D01*
X187528500Y-103448500D01*
X187528500Y-104730620D01*
X187767112Y-104870360D01*
X188317136Y-104634798D01*
X188735146Y-104206682D01*
X188950354Y-103687111D01*
X188810362Y-103448500D01*
X187528500Y-103448500D01*
X187371500Y-103448500D01*
X187351500Y-103448500D01*
X187351500Y-103291500D01*
X187371500Y-103291500D01*
X187371500Y-100908500D01*
X187528500Y-100908500D01*
X187528500Y-103291500D01*
X188810362Y-103291500D01*
X188950354Y-103052889D01*
X188735146Y-102533318D01*
X188317136Y-102105202D01*
X188304990Y-102100000D01*
X188317136Y-102094798D01*
X188735146Y-101666682D01*
X188950354Y-101147111D01*
X188810362Y-100908500D01*
X187528500Y-100908500D01*
X187371500Y-100908500D01*
X187351500Y-100908500D01*
X187351500Y-100751500D01*
X187371500Y-100751500D01*
X187371500Y-98368500D01*
X187528500Y-98368500D01*
X187528500Y-100751500D01*
X188810362Y-100751500D01*
X188950354Y-100512889D01*
X188735146Y-99993318D01*
X188317136Y-99565202D01*
X188304990Y-99560000D01*
X188317136Y-99554798D01*
X188735146Y-99126682D01*
X188950354Y-98607111D01*
X188810362Y-98368500D01*
X187528500Y-98368500D01*
X187371500Y-98368500D01*
X187351500Y-98368500D01*
X187351500Y-98211500D01*
X187371500Y-98211500D01*
X187371500Y-95828500D01*
X187528500Y-95828500D01*
X187528500Y-98211500D01*
X188810362Y-98211500D01*
X188950354Y-97972889D01*
X188735146Y-97453318D01*
X188317136Y-97025202D01*
X188304990Y-97020000D01*
X188317136Y-97014798D01*
X188735146Y-96586682D01*
X188950354Y-96067111D01*
X188810362Y-95828500D01*
X187528500Y-95828500D01*
X187371500Y-95828500D01*
X187351500Y-95828500D01*
X187351500Y-95671500D01*
X187371500Y-95671500D01*
X187371500Y-94389380D01*
X187528500Y-94389380D01*
X187528500Y-95671500D01*
X188810362Y-95671500D01*
X188950354Y-95432889D01*
X188735146Y-94913318D01*
X188317136Y-94485202D01*
X187767112Y-94249640D01*
X187528500Y-94389380D01*
X187371500Y-94389380D01*
X187132888Y-94249640D01*
X186582864Y-94485202D01*
X186553086Y-94515700D01*
X186399860Y-94277580D01*
X186107292Y-94077676D01*
X185760000Y-94007348D01*
X184060000Y-94007348D01*
X183735559Y-94068396D01*
X183437580Y-94260140D01*
X183237676Y-94552708D01*
X183167348Y-94900000D01*
X183167348Y-96600000D01*
X183228396Y-96924441D01*
X183420140Y-97222420D01*
X183512154Y-97285291D01*
X183282041Y-97629680D01*
X183150695Y-98290000D01*
X183282041Y-98950320D01*
X183656082Y-99510113D01*
X183730743Y-99560000D01*
X183656082Y-99609887D01*
X183282041Y-100169680D01*
X183150695Y-100830000D01*
X183282041Y-101490320D01*
X183656082Y-102050113D01*
X183730743Y-102100000D01*
X183656082Y-102149887D01*
X183282041Y-102709680D01*
X183189500Y-103174914D01*
X183189500Y-102520000D01*
X183103522Y-102087759D01*
X182858677Y-101721323D01*
X182378677Y-101241323D01*
X182012241Y-100996478D01*
X181580000Y-100910500D01*
X154222683Y-100910500D01*
X154222931Y-100626073D01*
X154020467Y-100136072D01*
X153645899Y-99760851D01*
X153156253Y-99557532D01*
X152626073Y-99557069D01*
X152136072Y-99759533D01*
X151760851Y-100134101D01*
X151557532Y-100623747D01*
X151557282Y-100910500D01*
X147887854Y-100910500D01*
X145009500Y-98032146D01*
X145009500Y-97195054D01*
X145212468Y-96706253D01*
X145212931Y-96176073D01*
X145010467Y-95686072D01*
X144635899Y-95310851D01*
X144146253Y-95107532D01*
X143616073Y-95107069D01*
X143126072Y-95309533D01*
X142959500Y-95475815D01*
X142959500Y-94935054D01*
X143162468Y-94446253D01*
X143162732Y-94143927D01*
X151037069Y-94143927D01*
X151239533Y-94633928D01*
X151614101Y-95009149D01*
X152103747Y-95212468D01*
X152633927Y-95212931D01*
X153123928Y-95010467D01*
X153499149Y-94635899D01*
X153702468Y-94146253D01*
X153702931Y-93616073D01*
X153500467Y-93126072D01*
X153125899Y-92750851D01*
X152636253Y-92547532D01*
X152106073Y-92547069D01*
X151616072Y-92749533D01*
X151240851Y-93124101D01*
X151037532Y-93613747D01*
X151037069Y-94143927D01*
X143162732Y-94143927D01*
X143162931Y-93916073D01*
X142960467Y-93426072D01*
X142585899Y-93050851D01*
X142096253Y-92847532D01*
X141566073Y-92847069D01*
X141356902Y-92933497D01*
X141342890Y-92912527D01*
X141342931Y-92866073D01*
X141140467Y-92376072D01*
X140765899Y-92000851D01*
X140276253Y-91797532D01*
X140118118Y-91797394D01*
X140371585Y-91543927D01*
X154117069Y-91543927D01*
X154319533Y-92033928D01*
X154694101Y-92409149D01*
X155183747Y-92612468D01*
X155713927Y-92612931D01*
X156203928Y-92410467D01*
X156579149Y-92035899D01*
X156782468Y-91546253D01*
X156782931Y-91016073D01*
X156580467Y-90526072D01*
X156205899Y-90150851D01*
X155716253Y-89947532D01*
X155186073Y-89947069D01*
X154696072Y-90149533D01*
X154320851Y-90524101D01*
X154117532Y-91013747D01*
X154117069Y-91543927D01*
X140371585Y-91543927D01*
X141290257Y-90625255D01*
X141319101Y-90654149D01*
X141808747Y-90857468D01*
X142338927Y-90857931D01*
X142828928Y-90655467D01*
X143204149Y-90280899D01*
X143407468Y-89791253D01*
X143407931Y-89261073D01*
X143205467Y-88771072D01*
X142830899Y-88395851D01*
X142341253Y-88192532D01*
X141811073Y-88192069D01*
X141321072Y-88394533D01*
X141269215Y-88446300D01*
X140865000Y-88446300D01*
X140452199Y-88528411D01*
X140116875Y-88752468D01*
X140102244Y-88762244D01*
X139556500Y-89307988D01*
X139556500Y-87869204D01*
X139632468Y-87686253D01*
X139632834Y-87267600D01*
X139794101Y-87429149D01*
X140283747Y-87632468D01*
X140813927Y-87632931D01*
X140880626Y-87605372D01*
X141054101Y-87779149D01*
X141543747Y-87982468D01*
X142073927Y-87982931D01*
X142563928Y-87780467D01*
X142939149Y-87405899D01*
X143142468Y-86916253D01*
X143142931Y-86386073D01*
X142990227Y-86016500D01*
X143150796Y-86016500D01*
X143333747Y-86092468D01*
X143863927Y-86092931D01*
X144044038Y-86018511D01*
X144374101Y-86349149D01*
X144863747Y-86552468D01*
X145393927Y-86552931D01*
X145531300Y-86496170D01*
X145531300Y-88343188D01*
X145407357Y-88467131D01*
X145336073Y-88467069D01*
X144846072Y-88669533D01*
X144470851Y-89044101D01*
X144267532Y-89533747D01*
X144267069Y-90063927D01*
X144469533Y-90553928D01*
X144844101Y-90929149D01*
X145333747Y-91132468D01*
X145863927Y-91132931D01*
X146353928Y-90930467D01*
X146729149Y-90555899D01*
X146932468Y-90066253D01*
X146932532Y-89992980D01*
X147372756Y-89552756D01*
X147394331Y-89520467D01*
X147606589Y-89202801D01*
X147688700Y-88790000D01*
X147688700Y-87113927D01*
X151837069Y-87113927D01*
X152039533Y-87603928D01*
X152414101Y-87979149D01*
X152903747Y-88182468D01*
X153433927Y-88182931D01*
X153923928Y-87980467D01*
X153934709Y-87969705D01*
X153964101Y-87999149D01*
X154453747Y-88202468D01*
X154983927Y-88202931D01*
X155473928Y-88000467D01*
X155474897Y-87999500D01*
X156392146Y-87999500D01*
X159080500Y-90687854D01*
X159080500Y-94891363D01*
X159020467Y-94746072D01*
X158645899Y-94370851D01*
X158156253Y-94167532D01*
X157626073Y-94167069D01*
X157136072Y-94369533D01*
X156760851Y-94744101D01*
X156557532Y-95233747D01*
X156557069Y-95763927D01*
X156759533Y-96253928D01*
X157134101Y-96629149D01*
X157623747Y-96832468D01*
X158153927Y-96832931D01*
X158643928Y-96630467D01*
X159019149Y-96255899D01*
X159080500Y-96108150D01*
X159080500Y-97322146D01*
X158122146Y-98280500D01*
X156805054Y-98280500D01*
X156316253Y-98077532D01*
X155786073Y-98077069D01*
X155296072Y-98279533D01*
X154920851Y-98654101D01*
X154717532Y-99143747D01*
X154717069Y-99673927D01*
X154919533Y-100163928D01*
X155294101Y-100539149D01*
X155783747Y-100742468D01*
X156313927Y-100742931D01*
X156803928Y-100540467D01*
X156804897Y-100539500D01*
X158590000Y-100539500D01*
X159022241Y-100453522D01*
X159388677Y-100208677D01*
X161008677Y-98588677D01*
X161125441Y-98413927D01*
X166837069Y-98413927D01*
X167039533Y-98903928D01*
X167414101Y-99279149D01*
X167903747Y-99482468D01*
X168433927Y-99482931D01*
X168923928Y-99280467D01*
X169299149Y-98905899D01*
X169502468Y-98416253D01*
X169502931Y-97886073D01*
X169360300Y-97540879D01*
X169532468Y-97126253D01*
X169532931Y-96596073D01*
X169383621Y-96234715D01*
X169532468Y-95876253D01*
X169532931Y-95346073D01*
X169330467Y-94856072D01*
X168955899Y-94480851D01*
X168466253Y-94277532D01*
X167936073Y-94277069D01*
X167446072Y-94479533D01*
X167070851Y-94854101D01*
X166867532Y-95343747D01*
X166867069Y-95873927D01*
X167016379Y-96235285D01*
X166867532Y-96593747D01*
X166867069Y-97123927D01*
X167009700Y-97469121D01*
X166837532Y-97883747D01*
X166837069Y-98413927D01*
X161125441Y-98413927D01*
X161253522Y-98222241D01*
X161339500Y-97790000D01*
X161339500Y-96914418D01*
X161414101Y-96989149D01*
X161903747Y-97192468D01*
X162433927Y-97192931D01*
X162923928Y-96990467D01*
X163299149Y-96615899D01*
X163502468Y-96126253D01*
X163502931Y-95596073D01*
X163301011Y-95107388D01*
X163308563Y-91338791D01*
X165897854Y-88749500D01*
X167364946Y-88749500D01*
X167728476Y-88900451D01*
X167416072Y-89029533D01*
X167040851Y-89404101D01*
X166837532Y-89893747D01*
X166837069Y-90423927D01*
X166976403Y-90761143D01*
X166817532Y-91143747D01*
X166817069Y-91673927D01*
X167019533Y-92163928D01*
X167394101Y-92539149D01*
X167883747Y-92742468D01*
X168413927Y-92742931D01*
X168903928Y-92540467D01*
X169279149Y-92165899D01*
X169482468Y-91676253D01*
X169482695Y-91416500D01*
X174674879Y-91416500D01*
X174833747Y-91482468D01*
X175363927Y-91482931D01*
X175853928Y-91280467D01*
X176229149Y-90905899D01*
X176432468Y-90416253D01*
X176432478Y-90403927D01*
X179767069Y-90403927D01*
X179969533Y-90893928D01*
X180344101Y-91269149D01*
X180833747Y-91472468D01*
X181363927Y-91472931D01*
X181853928Y-91270467D01*
X182229149Y-90895899D01*
X182432468Y-90406253D01*
X182432931Y-89876073D01*
X182230467Y-89386072D01*
X181855899Y-89010851D01*
X181366253Y-88807532D01*
X180836073Y-88807069D01*
X180346072Y-89009533D01*
X179970851Y-89384101D01*
X179767532Y-89873747D01*
X179767069Y-90403927D01*
X176432478Y-90403927D01*
X176432931Y-89886073D01*
X176230467Y-89396072D01*
X175855899Y-89020851D01*
X175366253Y-88817532D01*
X174836073Y-88817069D01*
X174626894Y-88903500D01*
X168619204Y-88903500D01*
X168561524Y-88879549D01*
X168873928Y-88750467D01*
X169249149Y-88375899D01*
X169452468Y-87886253D01*
X169452931Y-87356073D01*
X169250467Y-86866072D01*
X168875899Y-86490851D01*
X168386253Y-86287532D01*
X167856073Y-86287069D01*
X167366072Y-86489533D01*
X167365103Y-86490500D01*
X165430000Y-86490500D01*
X164997759Y-86576478D01*
X164631323Y-86821323D01*
X161381323Y-90071323D01*
X161326305Y-90153663D01*
X161253522Y-89787759D01*
X161008677Y-89421323D01*
X157658677Y-86071323D01*
X157292241Y-85826478D01*
X156860000Y-85740500D01*
X155475054Y-85740500D01*
X154986253Y-85537532D01*
X154456073Y-85537069D01*
X153966072Y-85739533D01*
X153955291Y-85750295D01*
X153925899Y-85720851D01*
X153436253Y-85517532D01*
X152906073Y-85517069D01*
X152416072Y-85719533D01*
X152040851Y-86094101D01*
X151837532Y-86583747D01*
X151837069Y-87113927D01*
X147688700Y-87113927D01*
X147688700Y-84200000D01*
X147606589Y-83787199D01*
X147372756Y-83437244D01*
X146762756Y-82827244D01*
X146617220Y-82730000D01*
X146412801Y-82593411D01*
X146000000Y-82511300D01*
X145446260Y-82511300D01*
X145395899Y-82460851D01*
X144906253Y-82257532D01*
X144376073Y-82257069D01*
X143886072Y-82459533D01*
X143510851Y-82834101D01*
X143307532Y-83323747D01*
X143307431Y-83438903D01*
X143151096Y-83503500D01*
X139556500Y-83503500D01*
X139556500Y-80443927D01*
X140647069Y-80443927D01*
X140849533Y-80933928D01*
X141224101Y-81309149D01*
X141713747Y-81512468D01*
X142243927Y-81512931D01*
X142733928Y-81310467D01*
X143109149Y-80935899D01*
X143312468Y-80446253D01*
X143312931Y-79916073D01*
X143110467Y-79426072D01*
X142735899Y-79050851D01*
X142246253Y-78847532D01*
X141716073Y-78847069D01*
X141226072Y-79049533D01*
X140850851Y-79424101D01*
X140647532Y-79913747D01*
X140647069Y-80443927D01*
X139556500Y-80443927D01*
X139556500Y-77567461D01*
X139912801Y-77496589D01*
X140066445Y-77393927D01*
X141657069Y-77393927D01*
X141859533Y-77883928D01*
X142234101Y-78259149D01*
X142723747Y-78462468D01*
X143253927Y-78462931D01*
X143743928Y-78260467D01*
X144119149Y-77885899D01*
X144203015Y-77683927D01*
X144867069Y-77683927D01*
X145069533Y-78173928D01*
X145444101Y-78549149D01*
X145933747Y-78752468D01*
X146463927Y-78752931D01*
X146953928Y-78550467D01*
X147329149Y-78175899D01*
X147532468Y-77686253D01*
X147532931Y-77156073D01*
X147330467Y-76666072D01*
X146955899Y-76290851D01*
X146466253Y-76087532D01*
X145936073Y-76087069D01*
X145446072Y-76289533D01*
X145070851Y-76664101D01*
X144867532Y-77153747D01*
X144867069Y-77683927D01*
X144203015Y-77683927D01*
X144322468Y-77396253D01*
X144322931Y-76866073D01*
X144120467Y-76376072D01*
X143745899Y-76000851D01*
X143256253Y-75797532D01*
X142726073Y-75797069D01*
X142236072Y-75999533D01*
X141860851Y-76374101D01*
X141657532Y-76863747D01*
X141657069Y-77393927D01*
X140066445Y-77393927D01*
X140262756Y-77262756D01*
X140496589Y-76912801D01*
X140578700Y-76500000D01*
X140496589Y-76087199D01*
X140262756Y-75737244D01*
X139912801Y-75503411D01*
X139556500Y-75432539D01*
X139556500Y-74903927D01*
X140297069Y-74903927D01*
X140499533Y-75393928D01*
X140874101Y-75769149D01*
X141363747Y-75972468D01*
X141893927Y-75972931D01*
X142383928Y-75770467D01*
X142759149Y-75395899D01*
X142962468Y-74906253D01*
X142962931Y-74376073D01*
X142760467Y-73886072D01*
X142385899Y-73510851D01*
X141896253Y-73307532D01*
X141366073Y-73307069D01*
X140876072Y-73509533D01*
X140500851Y-73884101D01*
X140297532Y-74373747D01*
X140297069Y-74903927D01*
X139556500Y-74903927D01*
X139556500Y-71740392D01*
X139633747Y-71772468D01*
X140163927Y-71772931D01*
X140653928Y-71570467D01*
X141029149Y-71195899D01*
X141232468Y-70706253D01*
X141232931Y-70176073D01*
X141116588Y-69894500D01*
X146867146Y-69894500D01*
X147054002Y-70081356D01*
X146820851Y-70314101D01*
X146617532Y-70803747D01*
X146617069Y-71333927D01*
X146819533Y-71823928D01*
X147194101Y-72199149D01*
X147668984Y-72396338D01*
X151502378Y-76229732D01*
X151256253Y-76127532D01*
X150726073Y-76127069D01*
X150236072Y-76329533D01*
X149860851Y-76704101D01*
X149657532Y-77193747D01*
X149657069Y-77723927D01*
X149859533Y-78213928D01*
X150234101Y-78589149D01*
X150723747Y-78792468D01*
X151253927Y-78792931D01*
X151743928Y-78590467D01*
X151840500Y-78494063D01*
X151840500Y-80215562D01*
X151556253Y-80097532D01*
X151026073Y-80097069D01*
X150536072Y-80299533D01*
X150160851Y-80674101D01*
X149957532Y-81163747D01*
X149957069Y-81693927D01*
X150121722Y-82092417D01*
X149967532Y-82463747D01*
X149967069Y-82993927D01*
X150169533Y-83483928D01*
X150492195Y-83807153D01*
X150396073Y-83807069D01*
X149906072Y-84009533D01*
X149530851Y-84384101D01*
X149327532Y-84873747D01*
X149327069Y-85403927D01*
X149529533Y-85893928D01*
X149904101Y-86269149D01*
X150393747Y-86472468D01*
X150923927Y-86472931D01*
X151413928Y-86270467D01*
X151789149Y-85895899D01*
X151951910Y-85503927D01*
X170367069Y-85503927D01*
X170569533Y-85993928D01*
X170944101Y-86369149D01*
X171433747Y-86572468D01*
X171963927Y-86572931D01*
X172037201Y-86542655D01*
X172037069Y-86693927D01*
X172239533Y-87183928D01*
X172614101Y-87559149D01*
X173103747Y-87762468D01*
X173633927Y-87762931D01*
X174123928Y-87560467D01*
X174499149Y-87185899D01*
X174702468Y-86696253D01*
X174702931Y-86166073D01*
X174500467Y-85676072D01*
X174125899Y-85300851D01*
X173636253Y-85097532D01*
X173106073Y-85097069D01*
X173032799Y-85127345D01*
X173032931Y-84976073D01*
X172830467Y-84486072D01*
X172455899Y-84110851D01*
X171966253Y-83907532D01*
X171436073Y-83907069D01*
X170946072Y-84109533D01*
X170570851Y-84484101D01*
X170367532Y-84973747D01*
X170367069Y-85503927D01*
X151951910Y-85503927D01*
X151992468Y-85406253D01*
X151992931Y-84876073D01*
X151790467Y-84386072D01*
X151467805Y-84062847D01*
X151563927Y-84062931D01*
X152053928Y-83860467D01*
X152054897Y-83859500D01*
X152420000Y-83859500D01*
X152852241Y-83773522D01*
X153218677Y-83528677D01*
X153768677Y-82978677D01*
X154013522Y-82612241D01*
X154099500Y-82180000D01*
X154099500Y-80089524D01*
X154443747Y-80232468D01*
X154973927Y-80232931D01*
X155463928Y-80030467D01*
X155839149Y-79655899D01*
X156042468Y-79166253D01*
X156042931Y-78636073D01*
X155840467Y-78146072D01*
X155465899Y-77770851D01*
X154976253Y-77567532D01*
X154446073Y-77567069D01*
X154099500Y-77710270D01*
X154099500Y-77044504D01*
X154217759Y-77123522D01*
X154650000Y-77209500D01*
X160022146Y-77209500D01*
X161080500Y-78267854D01*
X161080500Y-78934946D01*
X161009902Y-79104965D01*
X160945899Y-79040851D01*
X160456253Y-78837532D01*
X159926073Y-78837069D01*
X159436072Y-79039533D01*
X159060851Y-79414101D01*
X158857532Y-79903747D01*
X158857069Y-80433927D01*
X159059533Y-80923928D01*
X159434101Y-81299149D01*
X159923747Y-81502468D01*
X160453927Y-81502931D01*
X160943928Y-81300467D01*
X161319149Y-80925899D01*
X161390098Y-80755035D01*
X161454101Y-80819149D01*
X161943747Y-81022468D01*
X162473927Y-81022931D01*
X162963928Y-80820467D01*
X163339149Y-80445899D01*
X163539281Y-79963927D01*
X164017069Y-79963927D01*
X164219533Y-80453928D01*
X164508995Y-80743894D01*
X164467532Y-80843747D01*
X164467069Y-81373927D01*
X164669533Y-81863928D01*
X165044101Y-82239149D01*
X165185629Y-82297917D01*
X165137532Y-82413747D01*
X165137069Y-82943927D01*
X165339533Y-83433928D01*
X165714101Y-83809149D01*
X166203747Y-84012468D01*
X166733927Y-84012931D01*
X167223928Y-83810467D01*
X167599149Y-83435899D01*
X167802468Y-82946253D01*
X167802931Y-82416073D01*
X167600467Y-81926072D01*
X167225899Y-81550851D01*
X167084371Y-81492083D01*
X167132468Y-81376253D01*
X167132931Y-80846073D01*
X166930467Y-80356072D01*
X166641005Y-80066106D01*
X166682468Y-79966253D01*
X166682931Y-79436073D01*
X166480467Y-78946072D01*
X166105899Y-78570851D01*
X166031602Y-78540000D01*
X183150695Y-78540000D01*
X183282041Y-79200320D01*
X183656082Y-79760113D01*
X183730743Y-79810000D01*
X183656082Y-79859887D01*
X183282041Y-80419680D01*
X183150695Y-81080000D01*
X183282041Y-81740320D01*
X183656082Y-82300113D01*
X183730743Y-82350000D01*
X183656082Y-82399887D01*
X183282041Y-82959680D01*
X183150695Y-83620000D01*
X183282041Y-84280320D01*
X183656082Y-84840113D01*
X183730743Y-84890000D01*
X183656082Y-84939887D01*
X183282041Y-85499680D01*
X183150695Y-86160000D01*
X183282041Y-86820320D01*
X183656082Y-87380113D01*
X183730743Y-87430000D01*
X183656082Y-87479887D01*
X183282041Y-88039680D01*
X183150695Y-88700000D01*
X183282041Y-89360320D01*
X183656082Y-89920113D01*
X183730743Y-89970000D01*
X183656082Y-90019887D01*
X183282041Y-90579680D01*
X183150695Y-91240000D01*
X183282041Y-91900320D01*
X183656082Y-92460113D01*
X184215875Y-92834154D01*
X184876195Y-92965500D01*
X184943805Y-92965500D01*
X185604125Y-92834154D01*
X186163918Y-92460113D01*
X186316406Y-92231898D01*
X186582864Y-92504798D01*
X187132888Y-92740360D01*
X187371500Y-92600620D01*
X187371500Y-91318500D01*
X187528500Y-91318500D01*
X187528500Y-92600620D01*
X187767112Y-92740360D01*
X188317136Y-92504798D01*
X188735146Y-92076682D01*
X188950354Y-91557111D01*
X188810362Y-91318500D01*
X187528500Y-91318500D01*
X187371500Y-91318500D01*
X187351500Y-91318500D01*
X187351500Y-91161500D01*
X187371500Y-91161500D01*
X187371500Y-88778500D01*
X187528500Y-88778500D01*
X187528500Y-91161500D01*
X188810362Y-91161500D01*
X188950354Y-90922889D01*
X188735146Y-90403318D01*
X188317136Y-89975202D01*
X188304990Y-89970000D01*
X188317136Y-89964798D01*
X188735146Y-89536682D01*
X188950354Y-89017111D01*
X188810362Y-88778500D01*
X187528500Y-88778500D01*
X187371500Y-88778500D01*
X187351500Y-88778500D01*
X187351500Y-88621500D01*
X187371500Y-88621500D01*
X187371500Y-86238500D01*
X187528500Y-86238500D01*
X187528500Y-88621500D01*
X188810362Y-88621500D01*
X188950354Y-88382889D01*
X188735146Y-87863318D01*
X188317136Y-87435202D01*
X188304990Y-87430000D01*
X188317136Y-87424798D01*
X188735146Y-86996682D01*
X188950354Y-86477111D01*
X188810362Y-86238500D01*
X187528500Y-86238500D01*
X187371500Y-86238500D01*
X187351500Y-86238500D01*
X187351500Y-86081500D01*
X187371500Y-86081500D01*
X187371500Y-83698500D01*
X187528500Y-83698500D01*
X187528500Y-86081500D01*
X188810362Y-86081500D01*
X188950354Y-85842889D01*
X188735146Y-85323318D01*
X188317136Y-84895202D01*
X188304990Y-84890000D01*
X188317136Y-84884798D01*
X188735146Y-84456682D01*
X188950354Y-83937111D01*
X188810362Y-83698500D01*
X187528500Y-83698500D01*
X187371500Y-83698500D01*
X187351500Y-83698500D01*
X187351500Y-83541500D01*
X187371500Y-83541500D01*
X187371500Y-81158500D01*
X187528500Y-81158500D01*
X187528500Y-83541500D01*
X188810362Y-83541500D01*
X188950354Y-83302889D01*
X188735146Y-82783318D01*
X188317136Y-82355202D01*
X188304990Y-82350000D01*
X188317136Y-82344798D01*
X188735146Y-81916682D01*
X188950354Y-81397111D01*
X188810362Y-81158500D01*
X187528500Y-81158500D01*
X187371500Y-81158500D01*
X187351500Y-81158500D01*
X187351500Y-81001500D01*
X187371500Y-81001500D01*
X187371500Y-78618500D01*
X187528500Y-78618500D01*
X187528500Y-81001500D01*
X188810362Y-81001500D01*
X188950354Y-80762889D01*
X188735146Y-80243318D01*
X188317136Y-79815202D01*
X188304990Y-79810000D01*
X188317136Y-79804798D01*
X188735146Y-79376682D01*
X188950354Y-78857111D01*
X188810362Y-78618500D01*
X187528500Y-78618500D01*
X187371500Y-78618500D01*
X187351500Y-78618500D01*
X187351500Y-78461500D01*
X187371500Y-78461500D01*
X187371500Y-76078500D01*
X187528500Y-76078500D01*
X187528500Y-78461500D01*
X188810362Y-78461500D01*
X188950354Y-78222889D01*
X188735146Y-77703318D01*
X188317136Y-77275202D01*
X188304990Y-77270000D01*
X188317136Y-77264798D01*
X188735146Y-76836682D01*
X188950354Y-76317111D01*
X188810362Y-76078500D01*
X187528500Y-76078500D01*
X187371500Y-76078500D01*
X187351500Y-76078500D01*
X187351500Y-75921500D01*
X187371500Y-75921500D01*
X187371500Y-74639380D01*
X187528500Y-74639380D01*
X187528500Y-75921500D01*
X188810362Y-75921500D01*
X188950354Y-75682889D01*
X188735146Y-75163318D01*
X188317136Y-74735202D01*
X187767112Y-74499640D01*
X187528500Y-74639380D01*
X187371500Y-74639380D01*
X187132888Y-74499640D01*
X186582864Y-74735202D01*
X186553086Y-74765700D01*
X186399860Y-74527580D01*
X186107292Y-74327676D01*
X185760000Y-74257348D01*
X184060000Y-74257348D01*
X183735559Y-74318396D01*
X183437580Y-74510140D01*
X183237676Y-74802708D01*
X183167348Y-75150000D01*
X183167348Y-76850000D01*
X183228396Y-77174441D01*
X183420140Y-77472420D01*
X183512154Y-77535291D01*
X183282041Y-77879680D01*
X183150695Y-78540000D01*
X166031602Y-78540000D01*
X165616253Y-78367532D01*
X165086073Y-78367069D01*
X164596072Y-78569533D01*
X164220851Y-78944101D01*
X164017532Y-79433747D01*
X164017069Y-79963927D01*
X163539281Y-79963927D01*
X163542468Y-79956253D01*
X163542931Y-79426073D01*
X163340467Y-78936072D01*
X163339500Y-78935103D01*
X163339500Y-77800000D01*
X163253522Y-77367759D01*
X163008677Y-77001323D01*
X161316854Y-75309500D01*
X171430000Y-75309500D01*
X171862241Y-75223522D01*
X172228677Y-74978677D01*
X174088677Y-73118677D01*
X174333522Y-72752241D01*
X174419500Y-72320000D01*
X174419500Y-72075054D01*
X174622468Y-71586253D01*
X174622931Y-71056073D01*
X174420467Y-70566072D01*
X174045899Y-70190851D01*
X173591747Y-70002270D01*
X173813928Y-69910467D01*
X174189149Y-69535899D01*
X174392468Y-69046253D01*
X174392517Y-68990000D01*
X183140695Y-68990000D01*
X183272041Y-69650320D01*
X183646082Y-70210113D01*
X183720743Y-70260000D01*
X183646082Y-70309887D01*
X183272041Y-70869680D01*
X183140695Y-71530000D01*
X183272041Y-72190320D01*
X183646082Y-72750113D01*
X184205875Y-73124154D01*
X184866195Y-73255500D01*
X184933805Y-73255500D01*
X185594125Y-73124154D01*
X186153918Y-72750113D01*
X186306406Y-72521898D01*
X186572864Y-72794798D01*
X187122888Y-73030360D01*
X187361500Y-72890620D01*
X187361500Y-71608500D01*
X187518500Y-71608500D01*
X187518500Y-72890620D01*
X187757112Y-73030360D01*
X188307136Y-72794798D01*
X188725146Y-72366682D01*
X188940354Y-71847111D01*
X188800362Y-71608500D01*
X187518500Y-71608500D01*
X187361500Y-71608500D01*
X187341500Y-71608500D01*
X187341500Y-71451500D01*
X187361500Y-71451500D01*
X187361500Y-69068500D01*
X187518500Y-69068500D01*
X187518500Y-71451500D01*
X188800362Y-71451500D01*
X188940354Y-71212889D01*
X188725146Y-70693318D01*
X188307136Y-70265202D01*
X188294990Y-70260000D01*
X188307136Y-70254798D01*
X188725146Y-69826682D01*
X188940354Y-69307111D01*
X188800362Y-69068500D01*
X187518500Y-69068500D01*
X187361500Y-69068500D01*
X187341500Y-69068500D01*
X187341500Y-68911500D01*
X187361500Y-68911500D01*
X187361500Y-66528500D01*
X187518500Y-66528500D01*
X187518500Y-68911500D01*
X188800362Y-68911500D01*
X188940354Y-68672889D01*
X188725146Y-68153318D01*
X188307136Y-67725202D01*
X188294990Y-67720000D01*
X188307136Y-67714798D01*
X188725146Y-67286682D01*
X188940354Y-66767111D01*
X188800362Y-66528500D01*
X187518500Y-66528500D01*
X187361500Y-66528500D01*
X187341500Y-66528500D01*
X187341500Y-66371500D01*
X187361500Y-66371500D01*
X187361500Y-65089380D01*
X187518500Y-65089380D01*
X187518500Y-66371500D01*
X188800362Y-66371500D01*
X188940354Y-66132889D01*
X188725146Y-65613318D01*
X188307136Y-65185202D01*
X187757112Y-64949640D01*
X187518500Y-65089380D01*
X187361500Y-65089380D01*
X187122888Y-64949640D01*
X186572864Y-65185202D01*
X186543086Y-65215700D01*
X186389860Y-64977580D01*
X186097292Y-64777676D01*
X185750000Y-64707348D01*
X184050000Y-64707348D01*
X183725559Y-64768396D01*
X183427580Y-64960140D01*
X183227676Y-65252708D01*
X183157348Y-65600000D01*
X183157348Y-67300000D01*
X183218396Y-67624441D01*
X183410140Y-67922420D01*
X183502154Y-67985291D01*
X183272041Y-68329680D01*
X183140695Y-68990000D01*
X174392517Y-68990000D01*
X174392931Y-68516073D01*
X174190467Y-68026072D01*
X173815899Y-67650851D01*
X173326253Y-67447532D01*
X173324885Y-67447531D01*
X171318677Y-65441323D01*
X170952241Y-65196478D01*
X170520000Y-65110500D01*
X168375054Y-65110500D01*
X167886253Y-64907532D01*
X167356073Y-64907069D01*
X166866072Y-65109533D01*
X166490851Y-65484101D01*
X166287532Y-65973747D01*
X166287069Y-66503927D01*
X166489533Y-66993928D01*
X166864101Y-67369149D01*
X167353747Y-67572468D01*
X167883927Y-67572931D01*
X168373928Y-67370467D01*
X168374897Y-67369500D01*
X170052146Y-67369500D01*
X171727418Y-69044772D01*
X171929533Y-69533928D01*
X172304101Y-69909149D01*
X172758253Y-70097730D01*
X172536072Y-70189533D01*
X172160851Y-70564101D01*
X171957532Y-71053747D01*
X171957069Y-71583927D01*
X172094971Y-71917675D01*
X170962146Y-73050500D01*
X159610876Y-73050500D01*
X159662468Y-72926253D01*
X159662931Y-72396073D01*
X159460467Y-71906072D01*
X159458326Y-71903927D01*
X160217069Y-71903927D01*
X160419533Y-72393928D01*
X160794101Y-72769149D01*
X161283747Y-72972468D01*
X161813927Y-72972931D01*
X162303928Y-72770467D01*
X162679149Y-72395899D01*
X162882468Y-71906253D01*
X162882749Y-71583927D01*
X168567069Y-71583927D01*
X168769533Y-72073928D01*
X169144101Y-72449149D01*
X169633747Y-72652468D01*
X170163927Y-72652931D01*
X170653928Y-72450467D01*
X171029149Y-72075899D01*
X171232468Y-71586253D01*
X171232931Y-71056073D01*
X171030467Y-70566072D01*
X170655899Y-70190851D01*
X170166253Y-69987532D01*
X169636073Y-69987069D01*
X169146072Y-70189533D01*
X168770851Y-70564101D01*
X168567532Y-71053747D01*
X168567069Y-71583927D01*
X162882749Y-71583927D01*
X162882931Y-71376073D01*
X162700900Y-70935524D01*
X162944101Y-71179149D01*
X163433747Y-71382468D01*
X163963927Y-71382931D01*
X164453928Y-71180467D01*
X164829149Y-70805899D01*
X165032468Y-70316253D01*
X165032931Y-69786073D01*
X164830467Y-69296072D01*
X164455899Y-68920851D01*
X163966253Y-68717532D01*
X163436073Y-68717069D01*
X162946072Y-68919533D01*
X162570851Y-69294101D01*
X162367532Y-69783747D01*
X162367069Y-70313927D01*
X162549100Y-70754476D01*
X162305899Y-70510851D01*
X161816253Y-70307532D01*
X161286073Y-70307069D01*
X160796072Y-70509533D01*
X160420851Y-70884101D01*
X160217532Y-71373747D01*
X160217069Y-71903927D01*
X159458326Y-71903927D01*
X159085899Y-71530851D01*
X158596253Y-71327532D01*
X158066073Y-71327069D01*
X157576072Y-71529533D01*
X157200851Y-71904101D01*
X156997532Y-72393747D01*
X156997069Y-72923927D01*
X157049368Y-73050500D01*
X155037854Y-73050500D01*
X152942997Y-70955643D01*
X153003928Y-70930467D01*
X153070584Y-70863927D01*
X154267069Y-70863927D01*
X154469533Y-71353928D01*
X154844101Y-71729149D01*
X155333747Y-71932468D01*
X155863927Y-71932931D01*
X156353928Y-71730467D01*
X156729149Y-71355899D01*
X156932468Y-70866253D01*
X156932931Y-70336073D01*
X156730467Y-69846072D01*
X156355899Y-69470851D01*
X155866253Y-69267532D01*
X155336073Y-69267069D01*
X154846072Y-69469533D01*
X154470851Y-69844101D01*
X154267532Y-70333747D01*
X154267069Y-70863927D01*
X153070584Y-70863927D01*
X153379149Y-70555899D01*
X153582468Y-70066253D01*
X153582931Y-69536073D01*
X153380467Y-69046072D01*
X153005899Y-68670851D01*
X152516253Y-68467532D01*
X151986073Y-68467069D01*
X151496072Y-68669533D01*
X151120851Y-69044101D01*
X151094622Y-69107268D01*
X148501281Y-66513927D01*
X158857069Y-66513927D01*
X159059533Y-67003928D01*
X159434101Y-67379149D01*
X159923747Y-67582468D01*
X160453927Y-67582931D01*
X160943928Y-67380467D01*
X161319149Y-67005899D01*
X161522468Y-66516253D01*
X161522931Y-65986073D01*
X161320467Y-65496072D01*
X160945899Y-65120851D01*
X160456253Y-64917532D01*
X159926073Y-64917069D01*
X159436072Y-65119533D01*
X159060851Y-65494101D01*
X158857532Y-65983747D01*
X158857069Y-66513927D01*
X148501281Y-66513927D01*
X147873677Y-65886323D01*
X147507241Y-65641478D01*
X147075000Y-65555500D01*
X133202704Y-65555500D01*
X133202931Y-65296073D01*
X133000467Y-64806072D01*
X132999500Y-64805103D01*
X132999500Y-64576396D01*
X179404619Y-64576396D01*
X179605902Y-64956238D01*
X180551682Y-65358521D01*
X181579417Y-65368248D01*
X182532641Y-64983938D01*
X182574098Y-64956238D01*
X182775381Y-64576396D01*
X181090000Y-62891016D01*
X179404619Y-64576396D01*
X132999500Y-64576396D01*
X132999500Y-64492652D01*
X134540000Y-64492652D01*
X134864441Y-64431604D01*
X135162420Y-64239860D01*
X135225291Y-64147846D01*
X135569680Y-64377959D01*
X136230000Y-64509305D01*
X136890320Y-64377959D01*
X137450113Y-64003918D01*
X137500000Y-63929257D01*
X137549887Y-64003918D01*
X138109680Y-64377959D01*
X138770000Y-64509305D01*
X139430320Y-64377959D01*
X139990113Y-64003918D01*
X140040000Y-63929257D01*
X140089887Y-64003918D01*
X140649680Y-64377959D01*
X141310000Y-64509305D01*
X141970320Y-64377959D01*
X142530113Y-64003918D01*
X142904154Y-63444125D01*
X142992620Y-62999375D01*
X144916500Y-62999375D01*
X144916500Y-63735957D01*
X145020557Y-63987172D01*
X145212829Y-64179444D01*
X145464044Y-64283500D01*
X146200625Y-64283500D01*
X146371500Y-64112625D01*
X146371500Y-62828500D01*
X145087375Y-62828500D01*
X144916500Y-62999375D01*
X142992620Y-62999375D01*
X143035500Y-62783805D01*
X143035500Y-62716195D01*
X142904154Y-62055875D01*
X142709159Y-61764043D01*
X144916500Y-61764043D01*
X144916500Y-62500625D01*
X145087375Y-62671500D01*
X146371500Y-62671500D01*
X146371500Y-61387375D01*
X146200625Y-61216500D01*
X145464044Y-61216500D01*
X145212829Y-61320556D01*
X145020557Y-61512828D01*
X144916500Y-61764043D01*
X142709159Y-61764043D01*
X142530113Y-61496082D01*
X142080259Y-61195500D01*
X148219741Y-61195500D01*
X147825523Y-61458908D01*
G36*
X142310500Y-109127854D02*
X142310500Y-109755536D01*
X142219887Y-109816082D01*
X142041735Y-110082706D01*
X141736682Y-109784854D01*
X141217111Y-109569646D01*
X140978500Y-109709638D01*
X140978500Y-110991500D01*
X140998500Y-110991500D01*
X140998500Y-111148500D01*
X140978500Y-111148500D01*
X140978500Y-112430362D01*
X141217111Y-112570354D01*
X141736682Y-112355146D01*
X142041735Y-112057294D01*
X142219887Y-112323918D01*
X142714639Y-112654500D01*
X139085361Y-112654500D01*
X139580113Y-112323918D01*
X139758265Y-112057294D01*
X140063318Y-112355146D01*
X140582889Y-112570354D01*
X140821500Y-112430362D01*
X140821500Y-111148500D01*
X140801500Y-111148500D01*
X140801500Y-110991500D01*
X140821500Y-110991500D01*
X140821500Y-109709638D01*
X140582889Y-109569646D01*
X140063318Y-109784854D01*
X139758265Y-110082706D01*
X139580113Y-109816082D01*
X139489500Y-109755536D01*
X139489500Y-108750000D01*
X139403522Y-108317759D01*
X139158677Y-107951323D01*
X138883340Y-107675986D01*
X139283928Y-107510467D01*
X139659149Y-107135899D01*
X139852619Y-106669973D01*
X142310500Y-109127854D01*
X142310500Y-109127854D01*
G37*
X142310500Y-109127854D02*
X142310500Y-109755536D01*
X142219887Y-109816082D01*
X142041735Y-110082706D01*
X141736682Y-109784854D01*
X141217111Y-109569646D01*
X140978500Y-109709638D01*
X140978500Y-110991500D01*
X140998500Y-110991500D01*
X140998500Y-111148500D01*
X140978500Y-111148500D01*
X140978500Y-112430362D01*
X141217111Y-112570354D01*
X141736682Y-112355146D01*
X142041735Y-112057294D01*
X142219887Y-112323918D01*
X142714639Y-112654500D01*
X139085361Y-112654500D01*
X139580113Y-112323918D01*
X139758265Y-112057294D01*
X140063318Y-112355146D01*
X140582889Y-112570354D01*
X140821500Y-112430362D01*
X140821500Y-111148500D01*
X140801500Y-111148500D01*
X140801500Y-110991500D01*
X140821500Y-110991500D01*
X140821500Y-109709638D01*
X140582889Y-109569646D01*
X140063318Y-109784854D01*
X139758265Y-110082706D01*
X139580113Y-109816082D01*
X139489500Y-109755536D01*
X139489500Y-108750000D01*
X139403522Y-108317759D01*
X139158677Y-107951323D01*
X138883340Y-107675986D01*
X139283928Y-107510467D01*
X139659149Y-107135899D01*
X139852619Y-106669973D01*
X142310500Y-109127854D01*
G36*
X92804500Y-99380000D02*
X92816502Y-99443787D01*
X92854200Y-99502371D01*
X92911721Y-99541673D01*
X92980000Y-99555500D01*
X95309601Y-99555500D01*
X95102589Y-99693821D01*
X94696032Y-100302277D01*
X94553268Y-101020000D01*
X94696032Y-101737723D01*
X94858941Y-101981534D01*
X94740126Y-101933619D01*
X94110198Y-101939522D01*
X93555638Y-102169227D01*
X93476205Y-102445189D01*
X94440000Y-103408984D01*
X94454142Y-103394842D01*
X94565158Y-103505858D01*
X94551016Y-103520000D01*
X94565158Y-103534142D01*
X94454142Y-103645158D01*
X94440000Y-103631016D01*
X94425858Y-103645158D01*
X94314842Y-103534142D01*
X94328984Y-103520000D01*
X93365189Y-102556205D01*
X93089227Y-102635638D01*
X92853619Y-103219874D01*
X92859522Y-103849802D01*
X93089227Y-104404362D01*
X93365187Y-104483794D01*
X93245282Y-104603699D01*
X93295420Y-104653837D01*
X92935682Y-105012947D01*
X92664809Y-105665282D01*
X92664193Y-106371619D01*
X92933927Y-107024426D01*
X93179063Y-107269990D01*
X92935682Y-107512947D01*
X92664809Y-108165282D01*
X92664193Y-108871619D01*
X92933927Y-109524426D01*
X93432947Y-110024318D01*
X94085282Y-110295191D01*
X94700408Y-110295727D01*
X94696032Y-110302277D01*
X94553268Y-111020000D01*
X94696032Y-111737723D01*
X95102589Y-112346179D01*
X95564024Y-112654500D01*
X91865500Y-112654500D01*
X91865500Y-99162652D01*
X92560000Y-99162652D01*
X92804500Y-99116646D01*
X92804500Y-99380000D01*
X92804500Y-99380000D01*
G37*
X92804500Y-99380000D02*
X92816502Y-99443787D01*
X92854200Y-99502371D01*
X92911721Y-99541673D01*
X92980000Y-99555500D01*
X95309601Y-99555500D01*
X95102589Y-99693821D01*
X94696032Y-100302277D01*
X94553268Y-101020000D01*
X94696032Y-101737723D01*
X94858941Y-101981534D01*
X94740126Y-101933619D01*
X94110198Y-101939522D01*
X93555638Y-102169227D01*
X93476205Y-102445189D01*
X94440000Y-103408984D01*
X94454142Y-103394842D01*
X94565158Y-103505858D01*
X94551016Y-103520000D01*
X94565158Y-103534142D01*
X94454142Y-103645158D01*
X94440000Y-103631016D01*
X94425858Y-103645158D01*
X94314842Y-103534142D01*
X94328984Y-103520000D01*
X93365189Y-102556205D01*
X93089227Y-102635638D01*
X92853619Y-103219874D01*
X92859522Y-103849802D01*
X93089227Y-104404362D01*
X93365187Y-104483794D01*
X93245282Y-104603699D01*
X93295420Y-104653837D01*
X92935682Y-105012947D01*
X92664809Y-105665282D01*
X92664193Y-106371619D01*
X92933927Y-107024426D01*
X93179063Y-107269990D01*
X92935682Y-107512947D01*
X92664809Y-108165282D01*
X92664193Y-108871619D01*
X92933927Y-109524426D01*
X93432947Y-110024318D01*
X94085282Y-110295191D01*
X94700408Y-110295727D01*
X94696032Y-110302277D01*
X94553268Y-111020000D01*
X94696032Y-111737723D01*
X95102589Y-112346179D01*
X95564024Y-112654500D01*
X91865500Y-112654500D01*
X91865500Y-99162652D01*
X92560000Y-99162652D01*
X92804500Y-99116646D01*
X92804500Y-99380000D01*
G36*
X133317069Y-93513927D02*
X133519533Y-94003928D01*
X133894101Y-94379149D01*
X134217157Y-94513294D01*
X134217069Y-94613927D01*
X134419533Y-95103928D01*
X134794101Y-95479149D01*
X135283747Y-95682468D01*
X135813927Y-95682931D01*
X136303928Y-95480467D01*
X136679149Y-95105899D01*
X136882468Y-94616253D01*
X136882931Y-94086073D01*
X136680467Y-93596072D01*
X136333700Y-93248700D01*
X137946261Y-93248700D01*
X137940851Y-93254101D01*
X137737532Y-93743747D01*
X137737069Y-94273927D01*
X137939533Y-94763928D01*
X137940500Y-94764897D01*
X137940500Y-99060000D01*
X138026478Y-99492241D01*
X138271323Y-99858677D01*
X143338355Y-104925709D01*
X142966072Y-105079533D01*
X142590851Y-105454101D01*
X142387532Y-105943747D01*
X142387474Y-106010120D01*
X140768677Y-104391323D01*
X140402241Y-104146478D01*
X139982515Y-104062989D01*
X139982931Y-103586073D01*
X139789578Y-103118122D01*
X139902468Y-102846253D01*
X139902931Y-102316073D01*
X139700467Y-101826072D01*
X139325899Y-101450851D01*
X138836253Y-101247532D01*
X138306073Y-101247069D01*
X137816072Y-101449533D01*
X137440851Y-101824101D01*
X137237532Y-102313747D01*
X137237069Y-102843927D01*
X137430422Y-103311878D01*
X137317532Y-103583747D01*
X137317116Y-104060500D01*
X130922517Y-104060500D01*
X130922931Y-103586073D01*
X130846500Y-103401096D01*
X130846500Y-101296500D01*
X132656441Y-101296500D01*
X132286072Y-101449533D01*
X131910851Y-101824101D01*
X131707532Y-102313747D01*
X131707069Y-102843927D01*
X131909533Y-103333928D01*
X132284101Y-103709149D01*
X132773747Y-103912468D01*
X133303927Y-103912931D01*
X133793928Y-103710467D01*
X134169149Y-103335899D01*
X134372468Y-102846253D01*
X134372559Y-102741728D01*
X134783747Y-102912468D01*
X135313927Y-102912931D01*
X135803928Y-102710467D01*
X136179149Y-102335899D01*
X136382468Y-101846253D01*
X136382931Y-101316073D01*
X136180467Y-100826072D01*
X135805899Y-100450851D01*
X135621058Y-100374098D01*
X134398480Y-99151520D01*
X133990842Y-98879145D01*
X133510000Y-98783500D01*
X130039204Y-98783500D01*
X129856253Y-98707532D01*
X129326073Y-98707069D01*
X129141096Y-98783500D01*
X126641081Y-98783500D01*
X126909149Y-98515899D01*
X127112468Y-98026253D01*
X127112931Y-97496073D01*
X127036500Y-97311096D01*
X127036500Y-96890000D01*
X126947771Y-96443927D01*
X130427069Y-96443927D01*
X130629533Y-96933928D01*
X131004101Y-97309149D01*
X131493747Y-97512468D01*
X132023927Y-97512931D01*
X132513928Y-97310467D01*
X132889149Y-96935899D01*
X133092468Y-96446253D01*
X133092931Y-95916073D01*
X132890467Y-95426072D01*
X132515899Y-95050851D01*
X132026253Y-94847532D01*
X131496073Y-94847069D01*
X131006072Y-95049533D01*
X130630851Y-95424101D01*
X130427532Y-95913747D01*
X130427069Y-96443927D01*
X126947771Y-96443927D01*
X126940855Y-96409158D01*
X126668480Y-96001520D01*
X126635815Y-95968855D01*
X126640320Y-95967959D01*
X127200113Y-95593918D01*
X127250000Y-95519257D01*
X127299887Y-95593918D01*
X127859680Y-95967959D01*
X128520000Y-96099305D01*
X129180320Y-95967959D01*
X129740113Y-95593918D01*
X130114154Y-95034125D01*
X130245500Y-94373805D01*
X130245500Y-94306195D01*
X130114154Y-93645875D01*
X129848771Y-93248700D01*
X133317301Y-93248700D01*
X133317069Y-93513927D01*
X133317069Y-93513927D01*
G37*
X133317069Y-93513927D02*
X133519533Y-94003928D01*
X133894101Y-94379149D01*
X134217157Y-94513294D01*
X134217069Y-94613927D01*
X134419533Y-95103928D01*
X134794101Y-95479149D01*
X135283747Y-95682468D01*
X135813927Y-95682931D01*
X136303928Y-95480467D01*
X136679149Y-95105899D01*
X136882468Y-94616253D01*
X136882931Y-94086073D01*
X136680467Y-93596072D01*
X136333700Y-93248700D01*
X137946261Y-93248700D01*
X137940851Y-93254101D01*
X137737532Y-93743747D01*
X137737069Y-94273927D01*
X137939533Y-94763928D01*
X137940500Y-94764897D01*
X137940500Y-99060000D01*
X138026478Y-99492241D01*
X138271323Y-99858677D01*
X143338355Y-104925709D01*
X142966072Y-105079533D01*
X142590851Y-105454101D01*
X142387532Y-105943747D01*
X142387474Y-106010120D01*
X140768677Y-104391323D01*
X140402241Y-104146478D01*
X139982515Y-104062989D01*
X139982931Y-103586073D01*
X139789578Y-103118122D01*
X139902468Y-102846253D01*
X139902931Y-102316073D01*
X139700467Y-101826072D01*
X139325899Y-101450851D01*
X138836253Y-101247532D01*
X138306073Y-101247069D01*
X137816072Y-101449533D01*
X137440851Y-101824101D01*
X137237532Y-102313747D01*
X137237069Y-102843927D01*
X137430422Y-103311878D01*
X137317532Y-103583747D01*
X137317116Y-104060500D01*
X130922517Y-104060500D01*
X130922931Y-103586073D01*
X130846500Y-103401096D01*
X130846500Y-101296500D01*
X132656441Y-101296500D01*
X132286072Y-101449533D01*
X131910851Y-101824101D01*
X131707532Y-102313747D01*
X131707069Y-102843927D01*
X131909533Y-103333928D01*
X132284101Y-103709149D01*
X132773747Y-103912468D01*
X133303927Y-103912931D01*
X133793928Y-103710467D01*
X134169149Y-103335899D01*
X134372468Y-102846253D01*
X134372559Y-102741728D01*
X134783747Y-102912468D01*
X135313927Y-102912931D01*
X135803928Y-102710467D01*
X136179149Y-102335899D01*
X136382468Y-101846253D01*
X136382931Y-101316073D01*
X136180467Y-100826072D01*
X135805899Y-100450851D01*
X135621058Y-100374098D01*
X134398480Y-99151520D01*
X133990842Y-98879145D01*
X133510000Y-98783500D01*
X130039204Y-98783500D01*
X129856253Y-98707532D01*
X129326073Y-98707069D01*
X129141096Y-98783500D01*
X126641081Y-98783500D01*
X126909149Y-98515899D01*
X127112468Y-98026253D01*
X127112931Y-97496073D01*
X127036500Y-97311096D01*
X127036500Y-96890000D01*
X126947771Y-96443927D01*
X130427069Y-96443927D01*
X130629533Y-96933928D01*
X131004101Y-97309149D01*
X131493747Y-97512468D01*
X132023927Y-97512931D01*
X132513928Y-97310467D01*
X132889149Y-96935899D01*
X133092468Y-96446253D01*
X133092931Y-95916073D01*
X132890467Y-95426072D01*
X132515899Y-95050851D01*
X132026253Y-94847532D01*
X131496073Y-94847069D01*
X131006072Y-95049533D01*
X130630851Y-95424101D01*
X130427532Y-95913747D01*
X130427069Y-96443927D01*
X126947771Y-96443927D01*
X126940855Y-96409158D01*
X126668480Y-96001520D01*
X126635815Y-95968855D01*
X126640320Y-95967959D01*
X127200113Y-95593918D01*
X127250000Y-95519257D01*
X127299887Y-95593918D01*
X127859680Y-95967959D01*
X128520000Y-96099305D01*
X129180320Y-95967959D01*
X129740113Y-95593918D01*
X130114154Y-95034125D01*
X130245500Y-94373805D01*
X130245500Y-94306195D01*
X130114154Y-93645875D01*
X129848771Y-93248700D01*
X133317301Y-93248700D01*
X133317069Y-93513927D01*
G36*
X123518500Y-94261500D02*
X123538500Y-94261500D01*
X123538500Y-94418500D01*
X123518500Y-94418500D01*
X123518500Y-94438500D01*
X123361500Y-94438500D01*
X123361500Y-94418500D01*
X123341500Y-94418500D01*
X123341500Y-94261500D01*
X123361500Y-94261500D01*
X123361500Y-94241500D01*
X123518500Y-94241500D01*
X123518500Y-94261500D01*
X123518500Y-94261500D01*
G37*
X123518500Y-94261500D02*
X123538500Y-94261500D01*
X123538500Y-94418500D01*
X123518500Y-94418500D01*
X123518500Y-94438500D01*
X123361500Y-94438500D01*
X123361500Y-94418500D01*
X123341500Y-94418500D01*
X123341500Y-94261500D01*
X123361500Y-94261500D01*
X123361500Y-94241500D01*
X123518500Y-94241500D01*
X123518500Y-94261500D01*
G36*
X136277532Y-70223747D02*
X136277069Y-70753927D01*
X136479533Y-71243928D01*
X136854101Y-71619149D01*
X137038942Y-71695902D01*
X137043500Y-71700460D01*
X137043500Y-73554500D01*
X131010000Y-73554500D01*
X130946213Y-73566502D01*
X130887629Y-73604200D01*
X130848327Y-73661721D01*
X130834500Y-73730000D01*
X130834500Y-78767985D01*
X130496253Y-78627532D01*
X129966073Y-78627069D01*
X129698570Y-78737599D01*
X129389158Y-78799145D01*
X128981520Y-79071520D01*
X128031520Y-80021520D01*
X127759145Y-80429158D01*
X127663500Y-80910000D01*
X127663500Y-86520000D01*
X127759145Y-87000842D01*
X127891592Y-87199062D01*
X127406253Y-86997532D01*
X126876073Y-86997069D01*
X126386072Y-87199533D01*
X126010851Y-87574101D01*
X125807532Y-88063747D01*
X125807069Y-88593927D01*
X126009533Y-89083928D01*
X126384101Y-89459149D01*
X126873747Y-89662468D01*
X127403927Y-89662931D01*
X127893928Y-89460467D01*
X128269149Y-89085899D01*
X128472468Y-88596253D01*
X128472931Y-88066073D01*
X128320710Y-87697670D01*
X131714341Y-91091300D01*
X119170000Y-91091300D01*
X118757199Y-91173411D01*
X118442140Y-91383927D01*
X118407244Y-91407244D01*
X117597244Y-92217244D01*
X117363411Y-92567199D01*
X117304403Y-92863852D01*
X117142497Y-92753225D01*
X117142931Y-92256073D01*
X116940467Y-91766072D01*
X116565899Y-91390851D01*
X116076253Y-91187532D01*
X115729500Y-91187229D01*
X115729500Y-89722534D01*
X116183927Y-89722931D01*
X116673928Y-89520467D01*
X117049149Y-89145899D01*
X117252468Y-88656253D01*
X117252931Y-88126073D01*
X117050467Y-87636072D01*
X116675899Y-87260851D01*
X116186253Y-87057532D01*
X115729500Y-87057133D01*
X115729500Y-82297854D01*
X118068677Y-79958677D01*
X118313522Y-79592241D01*
X118399500Y-79160000D01*
X118399500Y-78532499D01*
X118893927Y-78532931D01*
X119383928Y-78330467D01*
X119759149Y-77955899D01*
X119962468Y-77466253D01*
X119962469Y-77464885D01*
X120437854Y-76989500D01*
X120572841Y-76989500D01*
X120272041Y-77439680D01*
X120140695Y-78100000D01*
X120272041Y-78760320D01*
X120646082Y-79320113D01*
X120720743Y-79370000D01*
X120646082Y-79419887D01*
X120272041Y-79979680D01*
X120140695Y-80640000D01*
X120272041Y-81300320D01*
X120646082Y-81860113D01*
X120720743Y-81910000D01*
X120646082Y-81959887D01*
X120272041Y-82519680D01*
X120140695Y-83180000D01*
X120272041Y-83840320D01*
X120646082Y-84400113D01*
X120720743Y-84450000D01*
X120646082Y-84499887D01*
X120272041Y-85059680D01*
X120140695Y-85720000D01*
X120272041Y-86380320D01*
X120646082Y-86940113D01*
X121205875Y-87314154D01*
X121866195Y-87445500D01*
X121933805Y-87445500D01*
X122594125Y-87314154D01*
X123057753Y-87004368D01*
X123202828Y-87149443D01*
X123454043Y-87253500D01*
X124190625Y-87253500D01*
X124361500Y-87082625D01*
X124361500Y-85798500D01*
X124518500Y-85798500D01*
X124518500Y-87082625D01*
X124689375Y-87253500D01*
X125425957Y-87253500D01*
X125677172Y-87149443D01*
X125869444Y-86957171D01*
X125973500Y-86705956D01*
X125973500Y-85969375D01*
X125802625Y-85798500D01*
X124518500Y-85798500D01*
X124361500Y-85798500D01*
X124341500Y-85798500D01*
X124341500Y-85641500D01*
X124361500Y-85641500D01*
X124361500Y-85621500D01*
X124518500Y-85621500D01*
X124518500Y-85641500D01*
X125802625Y-85641500D01*
X125973500Y-85470625D01*
X125973500Y-84734044D01*
X125869444Y-84482829D01*
X125731092Y-84344477D01*
X126067959Y-83840320D01*
X126199305Y-83180000D01*
X126067959Y-82519680D01*
X125693918Y-81959887D01*
X125619257Y-81910000D01*
X125693918Y-81860113D01*
X126067959Y-81300320D01*
X126199305Y-80640000D01*
X126067959Y-79979680D01*
X125693918Y-79419887D01*
X125619257Y-79370000D01*
X125693918Y-79320113D01*
X126067959Y-78760320D01*
X126199305Y-78100000D01*
X126067959Y-77439680D01*
X125767159Y-76989500D01*
X126150000Y-76989500D01*
X126582241Y-76903522D01*
X126948677Y-76658677D01*
X133712854Y-69894500D01*
X136414247Y-69894500D01*
X136277532Y-70223747D01*
X136277532Y-70223747D01*
G37*
X136277532Y-70223747D02*
X136277069Y-70753927D01*
X136479533Y-71243928D01*
X136854101Y-71619149D01*
X137038942Y-71695902D01*
X137043500Y-71700460D01*
X137043500Y-73554500D01*
X131010000Y-73554500D01*
X130946213Y-73566502D01*
X130887629Y-73604200D01*
X130848327Y-73661721D01*
X130834500Y-73730000D01*
X130834500Y-78767985D01*
X130496253Y-78627532D01*
X129966073Y-78627069D01*
X129698570Y-78737599D01*
X129389158Y-78799145D01*
X128981520Y-79071520D01*
X128031520Y-80021520D01*
X127759145Y-80429158D01*
X127663500Y-80910000D01*
X127663500Y-86520000D01*
X127759145Y-87000842D01*
X127891592Y-87199062D01*
X127406253Y-86997532D01*
X126876073Y-86997069D01*
X126386072Y-87199533D01*
X126010851Y-87574101D01*
X125807532Y-88063747D01*
X125807069Y-88593927D01*
X126009533Y-89083928D01*
X126384101Y-89459149D01*
X126873747Y-89662468D01*
X127403927Y-89662931D01*
X127893928Y-89460467D01*
X128269149Y-89085899D01*
X128472468Y-88596253D01*
X128472931Y-88066073D01*
X128320710Y-87697670D01*
X131714341Y-91091300D01*
X119170000Y-91091300D01*
X118757199Y-91173411D01*
X118442140Y-91383927D01*
X118407244Y-91407244D01*
X117597244Y-92217244D01*
X117363411Y-92567199D01*
X117304403Y-92863852D01*
X117142497Y-92753225D01*
X117142931Y-92256073D01*
X116940467Y-91766072D01*
X116565899Y-91390851D01*
X116076253Y-91187532D01*
X115729500Y-91187229D01*
X115729500Y-89722534D01*
X116183927Y-89722931D01*
X116673928Y-89520467D01*
X117049149Y-89145899D01*
X117252468Y-88656253D01*
X117252931Y-88126073D01*
X117050467Y-87636072D01*
X116675899Y-87260851D01*
X116186253Y-87057532D01*
X115729500Y-87057133D01*
X115729500Y-82297854D01*
X118068677Y-79958677D01*
X118313522Y-79592241D01*
X118399500Y-79160000D01*
X118399500Y-78532499D01*
X118893927Y-78532931D01*
X119383928Y-78330467D01*
X119759149Y-77955899D01*
X119962468Y-77466253D01*
X119962469Y-77464885D01*
X120437854Y-76989500D01*
X120572841Y-76989500D01*
X120272041Y-77439680D01*
X120140695Y-78100000D01*
X120272041Y-78760320D01*
X120646082Y-79320113D01*
X120720743Y-79370000D01*
X120646082Y-79419887D01*
X120272041Y-79979680D01*
X120140695Y-80640000D01*
X120272041Y-81300320D01*
X120646082Y-81860113D01*
X120720743Y-81910000D01*
X120646082Y-81959887D01*
X120272041Y-82519680D01*
X120140695Y-83180000D01*
X120272041Y-83840320D01*
X120646082Y-84400113D01*
X120720743Y-84450000D01*
X120646082Y-84499887D01*
X120272041Y-85059680D01*
X120140695Y-85720000D01*
X120272041Y-86380320D01*
X120646082Y-86940113D01*
X121205875Y-87314154D01*
X121866195Y-87445500D01*
X121933805Y-87445500D01*
X122594125Y-87314154D01*
X123057753Y-87004368D01*
X123202828Y-87149443D01*
X123454043Y-87253500D01*
X124190625Y-87253500D01*
X124361500Y-87082625D01*
X124361500Y-85798500D01*
X124518500Y-85798500D01*
X124518500Y-87082625D01*
X124689375Y-87253500D01*
X125425957Y-87253500D01*
X125677172Y-87149443D01*
X125869444Y-86957171D01*
X125973500Y-86705956D01*
X125973500Y-85969375D01*
X125802625Y-85798500D01*
X124518500Y-85798500D01*
X124361500Y-85798500D01*
X124341500Y-85798500D01*
X124341500Y-85641500D01*
X124361500Y-85641500D01*
X124361500Y-85621500D01*
X124518500Y-85621500D01*
X124518500Y-85641500D01*
X125802625Y-85641500D01*
X125973500Y-85470625D01*
X125973500Y-84734044D01*
X125869444Y-84482829D01*
X125731092Y-84344477D01*
X126067959Y-83840320D01*
X126199305Y-83180000D01*
X126067959Y-82519680D01*
X125693918Y-81959887D01*
X125619257Y-81910000D01*
X125693918Y-81860113D01*
X126067959Y-81300320D01*
X126199305Y-80640000D01*
X126067959Y-79979680D01*
X125693918Y-79419887D01*
X125619257Y-79370000D01*
X125693918Y-79320113D01*
X126067959Y-78760320D01*
X126199305Y-78100000D01*
X126067959Y-77439680D01*
X125767159Y-76989500D01*
X126150000Y-76989500D01*
X126582241Y-76903522D01*
X126948677Y-76658677D01*
X133712854Y-69894500D01*
X136414247Y-69894500D01*
X136277532Y-70223747D01*
G36*
X103973762Y-61285902D02*
X103571479Y-62231682D01*
X103561752Y-63259417D01*
X103946062Y-64212641D01*
X103973762Y-64254098D01*
X104353604Y-64455381D01*
X106038984Y-62770000D01*
X106024842Y-62755858D01*
X106135858Y-62644842D01*
X106150000Y-62658984D01*
X106164142Y-62644842D01*
X106275158Y-62755858D01*
X106261016Y-62770000D01*
X107946396Y-64455381D01*
X108326238Y-64254098D01*
X108728521Y-63308318D01*
X108738248Y-62280583D01*
X108353938Y-61327359D01*
X108326238Y-61285902D01*
X108155640Y-61195500D01*
X132318034Y-61195500D01*
X132217580Y-61260140D01*
X132017676Y-61552708D01*
X131978522Y-61746059D01*
X131671323Y-61951323D01*
X131071323Y-62551323D01*
X130826478Y-62917759D01*
X130740500Y-63350000D01*
X130740500Y-64804946D01*
X130537532Y-65293747D01*
X130537069Y-65823927D01*
X130739533Y-66313928D01*
X130740500Y-66314897D01*
X130740500Y-66622146D01*
X124732146Y-72630500D01*
X119180000Y-72630500D01*
X118747759Y-72716478D01*
X118381323Y-72961323D01*
X116471323Y-74871323D01*
X116226478Y-75237759D01*
X116140500Y-75670000D01*
X116140500Y-78572959D01*
X116100467Y-78476072D01*
X115725899Y-78100851D01*
X115236253Y-77897532D01*
X114706073Y-77897069D01*
X114216072Y-78099533D01*
X113840851Y-78474101D01*
X113637532Y-78963747D01*
X113637531Y-78965115D01*
X112471323Y-80131323D01*
X112226478Y-80497759D01*
X112140500Y-80930000D01*
X112140500Y-90212146D01*
X111573653Y-90778993D01*
X111510467Y-90626072D01*
X111135899Y-90250851D01*
X110646253Y-90047532D01*
X110116073Y-90047069D01*
X109626072Y-90249533D01*
X109446500Y-90428792D01*
X109446500Y-89381378D01*
X109544101Y-89479149D01*
X110033747Y-89682468D01*
X110563927Y-89682931D01*
X111053928Y-89480467D01*
X111429149Y-89105899D01*
X111632468Y-88616253D01*
X111632931Y-88086073D01*
X111430467Y-87596072D01*
X111055899Y-87220851D01*
X110566253Y-87017532D01*
X110036073Y-87017069D01*
X109546072Y-87219533D01*
X109446500Y-87318932D01*
X109446500Y-71130000D01*
X109350855Y-70649158D01*
X109078480Y-70241520D01*
X107748480Y-68911520D01*
X107340842Y-68639145D01*
X106860000Y-68543500D01*
X105989204Y-68543500D01*
X105806253Y-68467532D01*
X105276073Y-68467069D01*
X104786072Y-68669533D01*
X104503727Y-68951386D01*
X104505046Y-68542706D01*
X104582468Y-68356253D01*
X104582931Y-67826073D01*
X104380467Y-67336072D01*
X104005899Y-66960851D01*
X103516253Y-66757532D01*
X102986073Y-66757069D01*
X102496072Y-66959533D01*
X102120851Y-67334101D01*
X101917532Y-67823747D01*
X101917069Y-68353927D01*
X101992057Y-68535412D01*
X101985046Y-70708908D01*
X101887532Y-70943747D01*
X101887069Y-71473927D01*
X101967181Y-71667813D01*
X101983542Y-73680215D01*
X102032287Y-73915268D01*
X102079145Y-74150842D01*
X102082037Y-74155170D01*
X102083093Y-74160263D01*
X102218080Y-74358773D01*
X102351520Y-74558480D01*
X104803500Y-77010459D01*
X104803500Y-79426658D01*
X104560000Y-79377348D01*
X103560000Y-79377348D01*
X103235559Y-79438396D01*
X103059508Y-79551681D01*
X102907292Y-79447676D01*
X102560000Y-79377348D01*
X101560000Y-79377348D01*
X101235559Y-79438396D01*
X101059508Y-79551681D01*
X100907292Y-79447676D01*
X100560000Y-79377348D01*
X99560000Y-79377348D01*
X99235559Y-79438396D01*
X99059508Y-79551681D01*
X98907292Y-79447676D01*
X98560000Y-79377348D01*
X98364934Y-79377348D01*
X98423500Y-79235956D01*
X98423500Y-78599375D01*
X98252625Y-78428500D01*
X97068500Y-78428500D01*
X97068500Y-78448500D01*
X96911500Y-78448500D01*
X96911500Y-78428500D01*
X96891500Y-78428500D01*
X96891500Y-78271500D01*
X96911500Y-78271500D01*
X96911500Y-78251500D01*
X97068500Y-78251500D01*
X97068500Y-78271500D01*
X98252625Y-78271500D01*
X98423500Y-78100625D01*
X98423500Y-77464044D01*
X98350747Y-77288402D01*
X98522324Y-77037292D01*
X98592652Y-76690000D01*
X98592652Y-75190000D01*
X98531604Y-74865559D01*
X98507311Y-74827806D01*
X98562324Y-74747292D01*
X98632652Y-74400000D01*
X98632652Y-72900000D01*
X98571604Y-72575559D01*
X98518211Y-72492583D01*
X98542324Y-72457292D01*
X98612652Y-72110000D01*
X98612652Y-70610000D01*
X98575097Y-70410415D01*
X98662643Y-70322869D01*
X98733927Y-70322931D01*
X99223928Y-70120467D01*
X99599149Y-69745899D01*
X99802468Y-69256253D01*
X99802931Y-68726073D01*
X99600467Y-68236072D01*
X99225899Y-67860851D01*
X98736253Y-67657532D01*
X98206073Y-67657069D01*
X97716072Y-67859533D01*
X97340851Y-68234101D01*
X97137532Y-68723747D01*
X97137468Y-68797020D01*
X96216477Y-69718011D01*
X95895559Y-69778396D01*
X95597580Y-69970140D01*
X95397676Y-70262708D01*
X95327348Y-70610000D01*
X95327348Y-71101520D01*
X95320534Y-71097855D01*
X95238346Y-71080673D01*
X95058500Y-71225500D01*
X95058500Y-72281500D01*
X95078500Y-72281500D01*
X95078500Y-72438500D01*
X95058500Y-72438500D01*
X95058500Y-72458500D01*
X94901500Y-72458500D01*
X94901500Y-72438500D01*
X93989962Y-72438500D01*
X93972726Y-72457248D01*
X93636253Y-72317532D01*
X93218613Y-72317167D01*
X93447368Y-72141353D01*
X93471768Y-72099013D01*
X93822195Y-72099013D01*
X93989962Y-72281500D01*
X94901500Y-72281500D01*
X94901500Y-71225500D01*
X94721654Y-71080673D01*
X94639466Y-71097855D01*
X94239788Y-71312829D01*
X93952801Y-71664389D01*
X93822195Y-72099013D01*
X93471768Y-72099013D01*
X93678451Y-71740382D01*
X93709075Y-71622266D01*
X93564578Y-71438500D01*
X92358500Y-71438500D01*
X92358500Y-72543500D01*
X92592063Y-72543500D01*
X92240851Y-72894101D01*
X92037532Y-73383747D01*
X92037069Y-73913927D01*
X92239533Y-74403928D01*
X92614101Y-74779149D01*
X92666724Y-74801000D01*
X92646072Y-74809533D01*
X92270851Y-75184101D01*
X92067532Y-75673747D01*
X92067069Y-76203927D01*
X92269533Y-76693928D01*
X92644101Y-77069149D01*
X93133747Y-77272468D01*
X93663927Y-77272931D01*
X93894499Y-77177661D01*
X93989962Y-77281500D01*
X94901500Y-77281500D01*
X94901500Y-77261500D01*
X95058500Y-77261500D01*
X95058500Y-77281500D01*
X95078500Y-77281500D01*
X95078500Y-77438500D01*
X95058500Y-77438500D01*
X95058500Y-78494500D01*
X95238346Y-78639327D01*
X95320534Y-78622145D01*
X95680554Y-78428502D01*
X95727373Y-78428502D01*
X95556500Y-78599375D01*
X95556500Y-79235956D01*
X95615066Y-79377348D01*
X95560000Y-79377348D01*
X95235559Y-79438396D01*
X95059508Y-79551681D01*
X94907292Y-79447676D01*
X94560000Y-79377348D01*
X93560000Y-79377348D01*
X93235559Y-79438396D01*
X93059508Y-79551681D01*
X92930644Y-79463632D01*
X93080430Y-79423371D01*
X93447368Y-79141353D01*
X93678451Y-78740382D01*
X93709075Y-78622266D01*
X93564578Y-78438500D01*
X92358500Y-78438500D01*
X92358500Y-78458500D01*
X92201500Y-78458500D01*
X92201500Y-78438500D01*
X92181500Y-78438500D01*
X92181500Y-78281500D01*
X92201500Y-78281500D01*
X92201500Y-77176500D01*
X92358500Y-77176500D01*
X92358500Y-78281500D01*
X93564578Y-78281500D01*
X93709075Y-78097734D01*
X93678451Y-77979618D01*
X93471769Y-77620987D01*
X93822195Y-77620987D01*
X93952801Y-78055611D01*
X94239788Y-78407171D01*
X94639466Y-78622145D01*
X94721654Y-78639327D01*
X94901500Y-78494500D01*
X94901500Y-77438500D01*
X93989962Y-77438500D01*
X93822195Y-77620987D01*
X93471769Y-77620987D01*
X93447368Y-77578647D01*
X93080430Y-77296629D01*
X92633500Y-77176500D01*
X92358500Y-77176500D01*
X92201500Y-77176500D01*
X91926500Y-77176500D01*
X91865500Y-77192896D01*
X91865500Y-72527104D01*
X91926500Y-72543500D01*
X92201500Y-72543500D01*
X92201500Y-71438500D01*
X92181500Y-71438500D01*
X92181500Y-71281500D01*
X92201500Y-71281500D01*
X92201500Y-70176500D01*
X92358500Y-70176500D01*
X92358500Y-71281500D01*
X93564578Y-71281500D01*
X93709075Y-71097734D01*
X93678451Y-70979618D01*
X93447368Y-70578647D01*
X93080430Y-70296629D01*
X92633500Y-70176500D01*
X92358500Y-70176500D01*
X92201500Y-70176500D01*
X91926500Y-70176500D01*
X91865500Y-70192896D01*
X91865500Y-64566396D01*
X104464619Y-64566396D01*
X104665902Y-64946238D01*
X105611682Y-65348521D01*
X106639417Y-65358248D01*
X107592641Y-64973938D01*
X107634098Y-64946238D01*
X107835381Y-64566396D01*
X106150000Y-62881016D01*
X104464619Y-64566396D01*
X91865500Y-64566396D01*
X91865500Y-61195500D01*
X104144360Y-61195500D01*
X103973762Y-61285902D01*
X103973762Y-61285902D01*
G37*
X103973762Y-61285902D02*
X103571479Y-62231682D01*
X103561752Y-63259417D01*
X103946062Y-64212641D01*
X103973762Y-64254098D01*
X104353604Y-64455381D01*
X106038984Y-62770000D01*
X106024842Y-62755858D01*
X106135858Y-62644842D01*
X106150000Y-62658984D01*
X106164142Y-62644842D01*
X106275158Y-62755858D01*
X106261016Y-62770000D01*
X107946396Y-64455381D01*
X108326238Y-64254098D01*
X108728521Y-63308318D01*
X108738248Y-62280583D01*
X108353938Y-61327359D01*
X108326238Y-61285902D01*
X108155640Y-61195500D01*
X132318034Y-61195500D01*
X132217580Y-61260140D01*
X132017676Y-61552708D01*
X131978522Y-61746059D01*
X131671323Y-61951323D01*
X131071323Y-62551323D01*
X130826478Y-62917759D01*
X130740500Y-63350000D01*
X130740500Y-64804946D01*
X130537532Y-65293747D01*
X130537069Y-65823927D01*
X130739533Y-66313928D01*
X130740500Y-66314897D01*
X130740500Y-66622146D01*
X124732146Y-72630500D01*
X119180000Y-72630500D01*
X118747759Y-72716478D01*
X118381323Y-72961323D01*
X116471323Y-74871323D01*
X116226478Y-75237759D01*
X116140500Y-75670000D01*
X116140500Y-78572959D01*
X116100467Y-78476072D01*
X115725899Y-78100851D01*
X115236253Y-77897532D01*
X114706073Y-77897069D01*
X114216072Y-78099533D01*
X113840851Y-78474101D01*
X113637532Y-78963747D01*
X113637531Y-78965115D01*
X112471323Y-80131323D01*
X112226478Y-80497759D01*
X112140500Y-80930000D01*
X112140500Y-90212146D01*
X111573653Y-90778993D01*
X111510467Y-90626072D01*
X111135899Y-90250851D01*
X110646253Y-90047532D01*
X110116073Y-90047069D01*
X109626072Y-90249533D01*
X109446500Y-90428792D01*
X109446500Y-89381378D01*
X109544101Y-89479149D01*
X110033747Y-89682468D01*
X110563927Y-89682931D01*
X111053928Y-89480467D01*
X111429149Y-89105899D01*
X111632468Y-88616253D01*
X111632931Y-88086073D01*
X111430467Y-87596072D01*
X111055899Y-87220851D01*
X110566253Y-87017532D01*
X110036073Y-87017069D01*
X109546072Y-87219533D01*
X109446500Y-87318932D01*
X109446500Y-71130000D01*
X109350855Y-70649158D01*
X109078480Y-70241520D01*
X107748480Y-68911520D01*
X107340842Y-68639145D01*
X106860000Y-68543500D01*
X105989204Y-68543500D01*
X105806253Y-68467532D01*
X105276073Y-68467069D01*
X104786072Y-68669533D01*
X104503727Y-68951386D01*
X104505046Y-68542706D01*
X104582468Y-68356253D01*
X104582931Y-67826073D01*
X104380467Y-67336072D01*
X104005899Y-66960851D01*
X103516253Y-66757532D01*
X102986073Y-66757069D01*
X102496072Y-66959533D01*
X102120851Y-67334101D01*
X101917532Y-67823747D01*
X101917069Y-68353927D01*
X101992057Y-68535412D01*
X101985046Y-70708908D01*
X101887532Y-70943747D01*
X101887069Y-71473927D01*
X101967181Y-71667813D01*
X101983542Y-73680215D01*
X102032287Y-73915268D01*
X102079145Y-74150842D01*
X102082037Y-74155170D01*
X102083093Y-74160263D01*
X102218080Y-74358773D01*
X102351520Y-74558480D01*
X104803500Y-77010459D01*
X104803500Y-79426658D01*
X104560000Y-79377348D01*
X103560000Y-79377348D01*
X103235559Y-79438396D01*
X103059508Y-79551681D01*
X102907292Y-79447676D01*
X102560000Y-79377348D01*
X101560000Y-79377348D01*
X101235559Y-79438396D01*
X101059508Y-79551681D01*
X100907292Y-79447676D01*
X100560000Y-79377348D01*
X99560000Y-79377348D01*
X99235559Y-79438396D01*
X99059508Y-79551681D01*
X98907292Y-79447676D01*
X98560000Y-79377348D01*
X98364934Y-79377348D01*
X98423500Y-79235956D01*
X98423500Y-78599375D01*
X98252625Y-78428500D01*
X97068500Y-78428500D01*
X97068500Y-78448500D01*
X96911500Y-78448500D01*
X96911500Y-78428500D01*
X96891500Y-78428500D01*
X96891500Y-78271500D01*
X96911500Y-78271500D01*
X96911500Y-78251500D01*
X97068500Y-78251500D01*
X97068500Y-78271500D01*
X98252625Y-78271500D01*
X98423500Y-78100625D01*
X98423500Y-77464044D01*
X98350747Y-77288402D01*
X98522324Y-77037292D01*
X98592652Y-76690000D01*
X98592652Y-75190000D01*
X98531604Y-74865559D01*
X98507311Y-74827806D01*
X98562324Y-74747292D01*
X98632652Y-74400000D01*
X98632652Y-72900000D01*
X98571604Y-72575559D01*
X98518211Y-72492583D01*
X98542324Y-72457292D01*
X98612652Y-72110000D01*
X98612652Y-70610000D01*
X98575097Y-70410415D01*
X98662643Y-70322869D01*
X98733927Y-70322931D01*
X99223928Y-70120467D01*
X99599149Y-69745899D01*
X99802468Y-69256253D01*
X99802931Y-68726073D01*
X99600467Y-68236072D01*
X99225899Y-67860851D01*
X98736253Y-67657532D01*
X98206073Y-67657069D01*
X97716072Y-67859533D01*
X97340851Y-68234101D01*
X97137532Y-68723747D01*
X97137468Y-68797020D01*
X96216477Y-69718011D01*
X95895559Y-69778396D01*
X95597580Y-69970140D01*
X95397676Y-70262708D01*
X95327348Y-70610000D01*
X95327348Y-71101520D01*
X95320534Y-71097855D01*
X95238346Y-71080673D01*
X95058500Y-71225500D01*
X95058500Y-72281500D01*
X95078500Y-72281500D01*
X95078500Y-72438500D01*
X95058500Y-72438500D01*
X95058500Y-72458500D01*
X94901500Y-72458500D01*
X94901500Y-72438500D01*
X93989962Y-72438500D01*
X93972726Y-72457248D01*
X93636253Y-72317532D01*
X93218613Y-72317167D01*
X93447368Y-72141353D01*
X93471768Y-72099013D01*
X93822195Y-72099013D01*
X93989962Y-72281500D01*
X94901500Y-72281500D01*
X94901500Y-71225500D01*
X94721654Y-71080673D01*
X94639466Y-71097855D01*
X94239788Y-71312829D01*
X93952801Y-71664389D01*
X93822195Y-72099013D01*
X93471768Y-72099013D01*
X93678451Y-71740382D01*
X93709075Y-71622266D01*
X93564578Y-71438500D01*
X92358500Y-71438500D01*
X92358500Y-72543500D01*
X92592063Y-72543500D01*
X92240851Y-72894101D01*
X92037532Y-73383747D01*
X92037069Y-73913927D01*
X92239533Y-74403928D01*
X92614101Y-74779149D01*
X92666724Y-74801000D01*
X92646072Y-74809533D01*
X92270851Y-75184101D01*
X92067532Y-75673747D01*
X92067069Y-76203927D01*
X92269533Y-76693928D01*
X92644101Y-77069149D01*
X93133747Y-77272468D01*
X93663927Y-77272931D01*
X93894499Y-77177661D01*
X93989962Y-77281500D01*
X94901500Y-77281500D01*
X94901500Y-77261500D01*
X95058500Y-77261500D01*
X95058500Y-77281500D01*
X95078500Y-77281500D01*
X95078500Y-77438500D01*
X95058500Y-77438500D01*
X95058500Y-78494500D01*
X95238346Y-78639327D01*
X95320534Y-78622145D01*
X95680554Y-78428502D01*
X95727373Y-78428502D01*
X95556500Y-78599375D01*
X95556500Y-79235956D01*
X95615066Y-79377348D01*
X95560000Y-79377348D01*
X95235559Y-79438396D01*
X95059508Y-79551681D01*
X94907292Y-79447676D01*
X94560000Y-79377348D01*
X93560000Y-79377348D01*
X93235559Y-79438396D01*
X93059508Y-79551681D01*
X92930644Y-79463632D01*
X93080430Y-79423371D01*
X93447368Y-79141353D01*
X93678451Y-78740382D01*
X93709075Y-78622266D01*
X93564578Y-78438500D01*
X92358500Y-78438500D01*
X92358500Y-78458500D01*
X92201500Y-78458500D01*
X92201500Y-78438500D01*
X92181500Y-78438500D01*
X92181500Y-78281500D01*
X92201500Y-78281500D01*
X92201500Y-77176500D01*
X92358500Y-77176500D01*
X92358500Y-78281500D01*
X93564578Y-78281500D01*
X93709075Y-78097734D01*
X93678451Y-77979618D01*
X93471769Y-77620987D01*
X93822195Y-77620987D01*
X93952801Y-78055611D01*
X94239788Y-78407171D01*
X94639466Y-78622145D01*
X94721654Y-78639327D01*
X94901500Y-78494500D01*
X94901500Y-77438500D01*
X93989962Y-77438500D01*
X93822195Y-77620987D01*
X93471769Y-77620987D01*
X93447368Y-77578647D01*
X93080430Y-77296629D01*
X92633500Y-77176500D01*
X92358500Y-77176500D01*
X92201500Y-77176500D01*
X91926500Y-77176500D01*
X91865500Y-77192896D01*
X91865500Y-72527104D01*
X91926500Y-72543500D01*
X92201500Y-72543500D01*
X92201500Y-71438500D01*
X92181500Y-71438500D01*
X92181500Y-71281500D01*
X92201500Y-71281500D01*
X92201500Y-70176500D01*
X92358500Y-70176500D01*
X92358500Y-71281500D01*
X93564578Y-71281500D01*
X93709075Y-71097734D01*
X93678451Y-70979618D01*
X93447368Y-70578647D01*
X93080430Y-70296629D01*
X92633500Y-70176500D01*
X92358500Y-70176500D01*
X92201500Y-70176500D01*
X91926500Y-70176500D01*
X91865500Y-70192896D01*
X91865500Y-64566396D01*
X104464619Y-64566396D01*
X104665902Y-64946238D01*
X105611682Y-65348521D01*
X106639417Y-65358248D01*
X107592641Y-64973938D01*
X107634098Y-64946238D01*
X107835381Y-64566396D01*
X106150000Y-62881016D01*
X104464619Y-64566396D01*
X91865500Y-64566396D01*
X91865500Y-61195500D01*
X104144360Y-61195500D01*
X103973762Y-61285902D01*
M02*
