G04 #@! TF.FileFunction,Legend,Bot*
%FSLAX46Y46*%
G04 Gerber Fmt 4.6, Leading zero omitted, Abs format (unit mm)*
G04 Created by KiCad (PCBNEW 4.0.7-e2-6376~58~ubuntu16.04.1) date Mon Jan 29 23:26:01 2018*
%MOMM*%
%LPD*%
G01*
G04 APERTURE LIST*
%ADD10C,0.100000*%
G04 APERTURE END LIST*
D10*
X98379047Y-78670000D02*
X98331428Y-78693810D01*
X98260000Y-78693810D01*
X98188571Y-78670000D01*
X98140952Y-78622381D01*
X98117143Y-78574762D01*
X98093333Y-78479524D01*
X98093333Y-78408095D01*
X98117143Y-78312857D01*
X98140952Y-78265238D01*
X98188571Y-78217619D01*
X98260000Y-78193810D01*
X98307619Y-78193810D01*
X98379047Y-78217619D01*
X98402857Y-78241429D01*
X98402857Y-78408095D01*
X98307619Y-78408095D01*
X98617143Y-78193810D02*
X98617143Y-78693810D01*
X98902857Y-78193810D01*
X98902857Y-78693810D01*
X99140953Y-78193810D02*
X99140953Y-78693810D01*
X99260000Y-78693810D01*
X99331429Y-78670000D01*
X99379048Y-78622381D01*
X99402857Y-78574762D01*
X99426667Y-78479524D01*
X99426667Y-78408095D01*
X99402857Y-78312857D01*
X99379048Y-78265238D01*
X99331429Y-78217619D01*
X99260000Y-78193810D01*
X99140953Y-78193810D01*
X98109524Y-75763810D02*
X98109524Y-76263810D01*
X98228571Y-76263810D01*
X98300000Y-76240000D01*
X98347619Y-76192381D01*
X98371428Y-76144762D01*
X98395238Y-76049524D01*
X98395238Y-75978095D01*
X98371428Y-75882857D01*
X98347619Y-75835238D01*
X98300000Y-75787619D01*
X98228571Y-75763810D01*
X98109524Y-75763810D01*
X98609524Y-75954286D02*
X98990476Y-75954286D01*
X98800000Y-75763810D02*
X98800000Y-76144762D01*
X98149524Y-73553810D02*
X98149524Y-74053810D01*
X98268571Y-74053810D01*
X98340000Y-74030000D01*
X98387619Y-73982381D01*
X98411428Y-73934762D01*
X98435238Y-73839524D01*
X98435238Y-73768095D01*
X98411428Y-73672857D01*
X98387619Y-73625238D01*
X98340000Y-73577619D01*
X98268571Y-73553810D01*
X98149524Y-73553810D01*
X98649524Y-73744286D02*
X99030476Y-73744286D01*
X98028572Y-71673810D02*
X98195239Y-71173810D01*
X98361905Y-71673810D01*
X98528572Y-71173810D02*
X98528572Y-71673810D01*
X98528572Y-71483333D02*
X98576191Y-71507143D01*
X98671429Y-71507143D01*
X98719048Y-71483333D01*
X98742857Y-71459524D01*
X98766667Y-71411905D01*
X98766667Y-71269048D01*
X98742857Y-71221429D01*
X98719048Y-71197619D01*
X98671429Y-71173810D01*
X98576191Y-71173810D01*
X98528572Y-71197619D01*
X99195238Y-71507143D02*
X99195238Y-71173810D01*
X98980953Y-71507143D02*
X98980953Y-71245238D01*
X99004762Y-71197619D01*
X99052381Y-71173810D01*
X99123810Y-71173810D01*
X99171429Y-71197619D01*
X99195238Y-71221429D01*
X99409524Y-71197619D02*
X99457143Y-71173810D01*
X99552381Y-71173810D01*
X99600000Y-71197619D01*
X99623810Y-71245238D01*
X99623810Y-71269048D01*
X99600000Y-71316667D01*
X99552381Y-71340476D01*
X99480953Y-71340476D01*
X99433334Y-71364286D01*
X99409524Y-71411905D01*
X99409524Y-71435714D01*
X99433334Y-71483333D01*
X99480953Y-71507143D01*
X99552381Y-71507143D01*
X99600000Y-71483333D01*
X94798571Y-85984762D02*
X94798571Y-86318096D01*
X95322381Y-86460953D02*
X95322381Y-85984762D01*
X94322381Y-85984762D01*
X94322381Y-86460953D01*
X95274762Y-86841905D02*
X95322381Y-86984762D01*
X95322381Y-87222858D01*
X95274762Y-87318096D01*
X95227143Y-87365715D01*
X95131905Y-87413334D01*
X95036667Y-87413334D01*
X94941429Y-87365715D01*
X94893810Y-87318096D01*
X94846190Y-87222858D01*
X94798571Y-87032381D01*
X94750952Y-86937143D01*
X94703333Y-86889524D01*
X94608095Y-86841905D01*
X94512857Y-86841905D01*
X94417619Y-86889524D01*
X94370000Y-86937143D01*
X94322381Y-87032381D01*
X94322381Y-87270477D01*
X94370000Y-87413334D01*
X95322381Y-87841905D02*
X94322381Y-87841905D01*
X94322381Y-88222858D01*
X94370000Y-88318096D01*
X94417619Y-88365715D01*
X94512857Y-88413334D01*
X94655714Y-88413334D01*
X94750952Y-88365715D01*
X94798571Y-88318096D01*
X94846190Y-88222858D01*
X94846190Y-87841905D01*
X94750952Y-88984762D02*
X94703333Y-88889524D01*
X94655714Y-88841905D01*
X94560476Y-88794286D01*
X94512857Y-88794286D01*
X94417619Y-88841905D01*
X94370000Y-88889524D01*
X94322381Y-88984762D01*
X94322381Y-89175239D01*
X94370000Y-89270477D01*
X94417619Y-89318096D01*
X94512857Y-89365715D01*
X94560476Y-89365715D01*
X94655714Y-89318096D01*
X94703333Y-89270477D01*
X94750952Y-89175239D01*
X94750952Y-88984762D01*
X94798571Y-88889524D01*
X94846190Y-88841905D01*
X94941429Y-88794286D01*
X95131905Y-88794286D01*
X95227143Y-88841905D01*
X95274762Y-88889524D01*
X95322381Y-88984762D01*
X95322381Y-89175239D01*
X95274762Y-89270477D01*
X95227143Y-89318096D01*
X95131905Y-89365715D01*
X94941429Y-89365715D01*
X94846190Y-89318096D01*
X94798571Y-89270477D01*
X94750952Y-89175239D01*
X94417619Y-89746667D02*
X94370000Y-89794286D01*
X94322381Y-89889524D01*
X94322381Y-90127620D01*
X94370000Y-90222858D01*
X94417619Y-90270477D01*
X94512857Y-90318096D01*
X94608095Y-90318096D01*
X94750952Y-90270477D01*
X95322381Y-89699048D01*
X95322381Y-90318096D01*
X94322381Y-91175239D02*
X94322381Y-90984762D01*
X94370000Y-90889524D01*
X94417619Y-90841905D01*
X94560476Y-90746667D01*
X94750952Y-90699048D01*
X95131905Y-90699048D01*
X95227143Y-90746667D01*
X95274762Y-90794286D01*
X95322381Y-90889524D01*
X95322381Y-91080001D01*
X95274762Y-91175239D01*
X95227143Y-91222858D01*
X95131905Y-91270477D01*
X94893810Y-91270477D01*
X94798571Y-91222858D01*
X94750952Y-91175239D01*
X94703333Y-91080001D01*
X94703333Y-90889524D01*
X94750952Y-90794286D01*
X94798571Y-90746667D01*
X94893810Y-90699048D01*
X94322381Y-92127620D02*
X94322381Y-91937143D01*
X94370000Y-91841905D01*
X94417619Y-91794286D01*
X94560476Y-91699048D01*
X94750952Y-91651429D01*
X95131905Y-91651429D01*
X95227143Y-91699048D01*
X95274762Y-91746667D01*
X95322381Y-91841905D01*
X95322381Y-92032382D01*
X95274762Y-92127620D01*
X95227143Y-92175239D01*
X95131905Y-92222858D01*
X94893810Y-92222858D01*
X94798571Y-92175239D01*
X94750952Y-92127620D01*
X94703333Y-92032382D01*
X94703333Y-91841905D01*
X94750952Y-91746667D01*
X94798571Y-91699048D01*
X94893810Y-91651429D01*
X109593808Y-111274286D02*
X109593808Y-110607619D01*
X109403332Y-111655238D02*
X109212856Y-110940952D01*
X109708094Y-110940952D01*
X109898570Y-111274286D02*
X110203332Y-111274286D01*
X110012856Y-111607619D02*
X110012856Y-110750476D01*
X110050951Y-110655238D01*
X110127142Y-110607619D01*
X110203332Y-110607619D01*
X110469999Y-110607619D02*
X110469999Y-111607619D01*
X110812856Y-110607619D02*
X110812856Y-111131429D01*
X110774761Y-111226667D01*
X110698571Y-111274286D01*
X110584285Y-111274286D01*
X110508094Y-111226667D01*
X110469999Y-111179048D01*
X112260476Y-110607619D02*
X111993809Y-111083810D01*
X111803333Y-110607619D02*
X111803333Y-111607619D01*
X112108095Y-111607619D01*
X112184286Y-111560000D01*
X112222381Y-111512381D01*
X112260476Y-111417143D01*
X112260476Y-111274286D01*
X112222381Y-111179048D01*
X112184286Y-111131429D01*
X112108095Y-111083810D01*
X111803333Y-111083810D01*
X112908095Y-110655238D02*
X112831905Y-110607619D01*
X112679524Y-110607619D01*
X112603333Y-110655238D01*
X112565238Y-110750476D01*
X112565238Y-111131429D01*
X112603333Y-111226667D01*
X112679524Y-111274286D01*
X112831905Y-111274286D01*
X112908095Y-111226667D01*
X112946190Y-111131429D01*
X112946190Y-111036190D01*
X112565238Y-110940952D01*
X113212857Y-111274286D02*
X113403333Y-110607619D01*
X113593809Y-111274286D01*
X115003333Y-111083810D02*
X114965238Y-111131429D01*
X114889048Y-111179048D01*
X114812857Y-111179048D01*
X114736667Y-111131429D01*
X114698571Y-111083810D01*
X114660476Y-110988571D01*
X114660476Y-110893333D01*
X114698571Y-110798095D01*
X114736667Y-110750476D01*
X114812857Y-110702857D01*
X114889048Y-110702857D01*
X114965238Y-110750476D01*
X115003333Y-110798095D01*
X115003333Y-111179048D02*
X115003333Y-110798095D01*
X115041429Y-110750476D01*
X115079524Y-110750476D01*
X115155714Y-110798095D01*
X115193809Y-110893333D01*
X115193809Y-111131429D01*
X115117619Y-111274286D01*
X115003333Y-111369524D01*
X114850952Y-111417143D01*
X114698571Y-111369524D01*
X114584286Y-111274286D01*
X114508095Y-111131429D01*
X114470000Y-110940952D01*
X114508095Y-110750476D01*
X114584286Y-110607619D01*
X114698571Y-110512381D01*
X114850952Y-110464762D01*
X115003333Y-110512381D01*
X115117619Y-110607619D01*
X116108095Y-111512381D02*
X116146190Y-111560000D01*
X116222381Y-111607619D01*
X116412857Y-111607619D01*
X116489047Y-111560000D01*
X116527143Y-111512381D01*
X116565238Y-111417143D01*
X116565238Y-111321905D01*
X116527143Y-111179048D01*
X116070000Y-110607619D01*
X116565238Y-110607619D01*
X116946190Y-110607619D02*
X117098571Y-110607619D01*
X117174762Y-110655238D01*
X117212857Y-110702857D01*
X117289048Y-110845714D01*
X117327143Y-111036190D01*
X117327143Y-111417143D01*
X117289048Y-111512381D01*
X117250952Y-111560000D01*
X117174762Y-111607619D01*
X117022381Y-111607619D01*
X116946190Y-111560000D01*
X116908095Y-111512381D01*
X116870000Y-111417143D01*
X116870000Y-111179048D01*
X116908095Y-111083810D01*
X116946190Y-111036190D01*
X117022381Y-110988571D01*
X117174762Y-110988571D01*
X117250952Y-111036190D01*
X117289048Y-111083810D01*
X117327143Y-111179048D01*
X118508096Y-111607619D02*
X118508096Y-110893333D01*
X118470000Y-110750476D01*
X118393810Y-110655238D01*
X118279524Y-110607619D01*
X118203334Y-110607619D01*
X119231905Y-110607619D02*
X119231905Y-111131429D01*
X119193810Y-111226667D01*
X119117620Y-111274286D01*
X118965239Y-111274286D01*
X118889048Y-111226667D01*
X119231905Y-110655238D02*
X119155715Y-110607619D01*
X118965239Y-110607619D01*
X118889048Y-110655238D01*
X118850953Y-110750476D01*
X118850953Y-110845714D01*
X118889048Y-110940952D01*
X118965239Y-110988571D01*
X119155715Y-110988571D01*
X119231905Y-111036190D01*
X119612858Y-111274286D02*
X119612858Y-110607619D01*
X119612858Y-111179048D02*
X119650953Y-111226667D01*
X119727144Y-111274286D01*
X119841430Y-111274286D01*
X119917620Y-111226667D01*
X119955715Y-111131429D01*
X119955715Y-110607619D01*
X121365240Y-110607619D02*
X120908097Y-110607619D01*
X121136668Y-110607619D02*
X121136668Y-111607619D01*
X121060478Y-111464762D01*
X120984287Y-111369524D01*
X120908097Y-111321905D01*
X121822383Y-111179048D02*
X121746192Y-111226667D01*
X121708097Y-111274286D01*
X121670002Y-111369524D01*
X121670002Y-111417143D01*
X121708097Y-111512381D01*
X121746192Y-111560000D01*
X121822383Y-111607619D01*
X121974764Y-111607619D01*
X122050954Y-111560000D01*
X122089050Y-111512381D01*
X122127145Y-111417143D01*
X122127145Y-111369524D01*
X122089050Y-111274286D01*
X122050954Y-111226667D01*
X121974764Y-111179048D01*
X121822383Y-111179048D01*
X121746192Y-111131429D01*
X121708097Y-111083810D01*
X121670002Y-110988571D01*
X121670002Y-110798095D01*
X121708097Y-110702857D01*
X121746192Y-110655238D01*
X121822383Y-110607619D01*
X121974764Y-110607619D01*
X122050954Y-110655238D01*
X122089050Y-110702857D01*
X122127145Y-110798095D01*
X122127145Y-110988571D01*
X122089050Y-111083810D01*
X122050954Y-111131429D01*
X121974764Y-111179048D01*
X90940000Y-81150000D02*
X90940000Y-89270000D01*
X107180000Y-95270000D02*
X107180000Y-97390000D01*
X107180000Y-97390000D02*
X107010000Y-97390000D01*
X107180000Y-81150000D02*
X107180000Y-83270000D01*
X107180000Y-81150000D02*
X107010000Y-81150000D01*
X90940000Y-95270000D02*
X90940000Y-97390000D01*
X90940000Y-97390000D02*
X91110000Y-97390000D01*
X92661190Y-88425953D02*
X93065952Y-88425953D01*
X93113571Y-88449762D01*
X93137381Y-88473572D01*
X93161190Y-88521191D01*
X93161190Y-88616429D01*
X93137381Y-88664048D01*
X93113571Y-88687857D01*
X93065952Y-88711667D01*
X92661190Y-88711667D01*
X93161190Y-89211667D02*
X93161190Y-88925953D01*
X93161190Y-89068810D02*
X92661190Y-89068810D01*
X92732619Y-89021191D01*
X92780238Y-88973572D01*
X92804048Y-88925953D01*
X92661190Y-89664048D02*
X92661190Y-89425953D01*
X92899286Y-89402143D01*
X92875476Y-89425953D01*
X92851667Y-89473572D01*
X92851667Y-89592619D01*
X92875476Y-89640238D01*
X92899286Y-89664048D01*
X92946905Y-89687857D01*
X93065952Y-89687857D01*
X93113571Y-89664048D01*
X93137381Y-89640238D01*
X93161190Y-89592619D01*
X93161190Y-89473572D01*
X93137381Y-89425953D01*
X93113571Y-89402143D01*
M02*
