G04 #@! TF.FileFunction,Soldermask,Bot*
%FSLAX46Y46*%
G04 Gerber Fmt 4.6, Leading zero omitted, Abs format (unit mm)*
G04 Created by KiCad (PCBNEW 4.0.7-e2-6376~58~ubuntu16.04.1) date Fri Feb 23 10:11:40 2018*
%MOMM*%
%LPD*%
G01*
G04 APERTURE LIST*
%ADD10C,0.100000*%
%ADD11O,0.950000X1.250000*%
%ADD12O,1.550000X1.000000*%
%ADD13C,1.800000*%
%ADD14O,4.500000X2.000000*%
%ADD15R,1.700000X1.700000*%
%ADD16O,1.700000X1.700000*%
%ADD17C,3.800000*%
%ADD18R,1.000000X2.000000*%
%ADD19R,1.500000X1.500000*%
G04 APERTURE END LIST*
D10*
D11*
X94980000Y-72360000D03*
X94980000Y-77360000D03*
D12*
X92280000Y-71360000D03*
X92280000Y-78360000D03*
D13*
X94450000Y-107350000D03*
X94450000Y-104850000D03*
X94450000Y-102350000D03*
D14*
X97750000Y-109850000D03*
X97750000Y-99850000D03*
D15*
X184910000Y-76000000D03*
D16*
X187450000Y-76000000D03*
X184910000Y-78540000D03*
X187450000Y-78540000D03*
X184910000Y-81080000D03*
X187450000Y-81080000D03*
X184910000Y-83620000D03*
X187450000Y-83620000D03*
X184910000Y-86160000D03*
X187450000Y-86160000D03*
X184910000Y-88700000D03*
X187450000Y-88700000D03*
X184910000Y-91240000D03*
X187450000Y-91240000D03*
D17*
X104880000Y-111020000D03*
X106150000Y-62770000D03*
X187420000Y-111010000D03*
D18*
X106440000Y-96770000D03*
X104440000Y-96770000D03*
X102440000Y-96770000D03*
X100440000Y-96770000D03*
X98440000Y-96770000D03*
X96440000Y-96770000D03*
X94440000Y-96770000D03*
X92440000Y-96770000D03*
X92440000Y-80770000D03*
X94440000Y-80770000D03*
X96440000Y-80770000D03*
X98440000Y-80770000D03*
X100440000Y-80770000D03*
X102440000Y-80770000D03*
X104440000Y-80770000D03*
X106440000Y-80770000D03*
D15*
X125370000Y-111070000D03*
D16*
X127910000Y-111070000D03*
X130450000Y-111070000D03*
D17*
X181090000Y-62780000D03*
D15*
X115820000Y-94340000D03*
D16*
X118360000Y-94340000D03*
X120900000Y-94340000D03*
X123440000Y-94340000D03*
X125980000Y-94340000D03*
X128520000Y-94340000D03*
D15*
X166470000Y-111060000D03*
D16*
X163930000Y-111060000D03*
X161390000Y-111060000D03*
X158850000Y-111060000D03*
X156310000Y-111060000D03*
X153770000Y-111060000D03*
X151230000Y-111060000D03*
X148690000Y-111060000D03*
D15*
X182070000Y-111040000D03*
D16*
X179530000Y-111040000D03*
X176990000Y-111040000D03*
X174450000Y-111040000D03*
X171910000Y-111040000D03*
D15*
X176800000Y-62750000D03*
D16*
X174260000Y-62750000D03*
X171720000Y-62750000D03*
X169180000Y-62750000D03*
X166640000Y-62750000D03*
X164100000Y-62750000D03*
X161560000Y-62750000D03*
X159020000Y-62750000D03*
D15*
X135820000Y-111070000D03*
D16*
X138360000Y-111070000D03*
X140900000Y-111070000D03*
X143440000Y-111070000D03*
D15*
X184900000Y-66450000D03*
D16*
X187440000Y-66450000D03*
X184900000Y-68990000D03*
X187440000Y-68990000D03*
X184900000Y-71530000D03*
X187440000Y-71530000D03*
D15*
X146450000Y-62750000D03*
D16*
X148990000Y-62750000D03*
X151530000Y-62750000D03*
X154070000Y-62750000D03*
D15*
X184910000Y-95750000D03*
D16*
X187450000Y-95750000D03*
X184910000Y-98290000D03*
X187450000Y-98290000D03*
X184910000Y-100830000D03*
X187450000Y-100830000D03*
X184910000Y-103370000D03*
X187450000Y-103370000D03*
D15*
X133690000Y-62750000D03*
D16*
X136230000Y-62750000D03*
X138770000Y-62750000D03*
X141310000Y-62750000D03*
D15*
X124440000Y-85720000D03*
D16*
X121900000Y-85720000D03*
X124440000Y-83180000D03*
X121900000Y-83180000D03*
X124440000Y-80640000D03*
X121900000Y-80640000D03*
X124440000Y-78100000D03*
X121900000Y-78100000D03*
D19*
X96960000Y-77760000D03*
X96970000Y-71590000D03*
X96960000Y-75700000D03*
X96990000Y-73650000D03*
M02*
