G04 #@! TF.FileFunction,Copper,L1,Top,Signal*
%FSLAX46Y46*%
G04 Gerber Fmt 4.6, Leading zero omitted, Abs format (unit mm)*
G04 Created by KiCad (PCBNEW 4.0.7-e2-6376~58~ubuntu16.04.1) date Thu Apr 19 11:53:48 2018*
%MOMM*%
%LPD*%
G01*
G04 APERTURE LIST*
%ADD10C,0.100000*%
%ADD11C,1.800000*%
%ADD12O,4.500000X2.000000*%
%ADD13R,1.350000X0.400000*%
%ADD14O,0.950000X1.250000*%
%ADD15O,1.550000X1.000000*%
%ADD16R,1.700000X1.700000*%
%ADD17O,1.700000X1.700000*%
%ADD18R,0.500000X0.900000*%
%ADD19R,1.550000X0.600000*%
%ADD20R,0.600000X1.950000*%
%ADD21R,0.550000X1.500000*%
%ADD22R,1.500000X0.550000*%
%ADD23R,2.500000X2.550000*%
%ADD24R,2.550000X2.500000*%
%ADD25R,1.700000X1.300000*%
%ADD26R,2.030000X1.140000*%
%ADD27R,0.900000X0.800000*%
%ADD28R,1.500000X0.600000*%
%ADD29R,1.060000X0.650000*%
%ADD30R,3.800000X2.000000*%
%ADD31R,1.500000X2.000000*%
%ADD32R,1.400000X0.300000*%
%ADD33R,2.500000X1.950000*%
%ADD34R,1.950000X2.500000*%
%ADD35R,0.800000X0.750000*%
%ADD36R,0.750000X0.800000*%
%ADD37R,0.900000X0.500000*%
%ADD38C,1.500000*%
%ADD39R,2.000000X2.400000*%
%ADD40R,1.200000X1.200000*%
%ADD41C,3.800000*%
%ADD42C,0.914400*%
%ADD43C,0.406400*%
%ADD44C,0.508000*%
%ADD45C,0.762000*%
%ADD46C,0.304800*%
%ADD47C,0.254000*%
%ADD48C,0.351000*%
G04 APERTURE END LIST*
D10*
X106910001Y-90066190D02*
X106910001Y-89566190D01*
X107029048Y-89566190D01*
X107100477Y-89590000D01*
X107148096Y-89637619D01*
X107171905Y-89685238D01*
X107195715Y-89780476D01*
X107195715Y-89851905D01*
X107171905Y-89947143D01*
X107148096Y-89994762D01*
X107100477Y-90042381D01*
X107029048Y-90066190D01*
X106910001Y-90066190D01*
X107600477Y-90042381D02*
X107552858Y-90066190D01*
X107457620Y-90066190D01*
X107410001Y-90042381D01*
X107386191Y-89994762D01*
X107386191Y-89804286D01*
X107410001Y-89756667D01*
X107457620Y-89732857D01*
X107552858Y-89732857D01*
X107600477Y-89756667D01*
X107624286Y-89804286D01*
X107624286Y-89851905D01*
X107386191Y-89899524D01*
X107814762Y-90042381D02*
X107862381Y-90066190D01*
X107957619Y-90066190D01*
X108005238Y-90042381D01*
X108029048Y-89994762D01*
X108029048Y-89970952D01*
X108005238Y-89923333D01*
X107957619Y-89899524D01*
X107886191Y-89899524D01*
X107838572Y-89875714D01*
X107814762Y-89828095D01*
X107814762Y-89804286D01*
X107838572Y-89756667D01*
X107886191Y-89732857D01*
X107957619Y-89732857D01*
X108005238Y-89756667D01*
X108243334Y-90066190D02*
X108243334Y-89732857D01*
X108243334Y-89566190D02*
X108219524Y-89590000D01*
X108243334Y-89613810D01*
X108267143Y-89590000D01*
X108243334Y-89566190D01*
X108243334Y-89613810D01*
X108695714Y-89732857D02*
X108695714Y-90137619D01*
X108671905Y-90185238D01*
X108648095Y-90209048D01*
X108600476Y-90232857D01*
X108529048Y-90232857D01*
X108481429Y-90209048D01*
X108695714Y-90042381D02*
X108648095Y-90066190D01*
X108552857Y-90066190D01*
X108505238Y-90042381D01*
X108481429Y-90018571D01*
X108457619Y-89970952D01*
X108457619Y-89828095D01*
X108481429Y-89780476D01*
X108505238Y-89756667D01*
X108552857Y-89732857D01*
X108648095Y-89732857D01*
X108695714Y-89756667D01*
X108933810Y-89732857D02*
X108933810Y-90066190D01*
X108933810Y-89780476D02*
X108957619Y-89756667D01*
X109005238Y-89732857D01*
X109076667Y-89732857D01*
X109124286Y-89756667D01*
X109148095Y-89804286D01*
X109148095Y-90066190D01*
X109576667Y-90042381D02*
X109529048Y-90066190D01*
X109433810Y-90066190D01*
X109386191Y-90042381D01*
X109362381Y-89994762D01*
X109362381Y-89804286D01*
X109386191Y-89756667D01*
X109433810Y-89732857D01*
X109529048Y-89732857D01*
X109576667Y-89756667D01*
X109600476Y-89804286D01*
X109600476Y-89851905D01*
X109362381Y-89899524D01*
X110029047Y-90066190D02*
X110029047Y-89566190D01*
X110029047Y-90042381D02*
X109981428Y-90066190D01*
X109886190Y-90066190D01*
X109838571Y-90042381D01*
X109814762Y-90018571D01*
X109790952Y-89970952D01*
X109790952Y-89828095D01*
X109814762Y-89780476D01*
X109838571Y-89756667D01*
X109886190Y-89732857D01*
X109981428Y-89732857D01*
X110029047Y-89756667D01*
X110648095Y-90066190D02*
X110648095Y-89566190D01*
X110648095Y-89756667D02*
X110695714Y-89732857D01*
X110790952Y-89732857D01*
X110838571Y-89756667D01*
X110862380Y-89780476D01*
X110886190Y-89828095D01*
X110886190Y-89970952D01*
X110862380Y-90018571D01*
X110838571Y-90042381D01*
X110790952Y-90066190D01*
X110695714Y-90066190D01*
X110648095Y-90042381D01*
X111052857Y-89732857D02*
X111171904Y-90066190D01*
X111290952Y-89732857D02*
X111171904Y-90066190D01*
X111124285Y-90185238D01*
X111100476Y-90209048D01*
X111052857Y-90232857D01*
X111862380Y-90066190D02*
X111862380Y-89566190D01*
X112052856Y-89566190D01*
X112100475Y-89590000D01*
X112124284Y-89613810D01*
X112148094Y-89661429D01*
X112148094Y-89732857D01*
X112124284Y-89780476D01*
X112100475Y-89804286D01*
X112052856Y-89828095D01*
X111862380Y-89828095D01*
X112576665Y-90066190D02*
X112576665Y-89804286D01*
X112552856Y-89756667D01*
X112505237Y-89732857D01*
X112409999Y-89732857D01*
X112362380Y-89756667D01*
X112576665Y-90042381D02*
X112529046Y-90066190D01*
X112409999Y-90066190D01*
X112362380Y-90042381D01*
X112338570Y-89994762D01*
X112338570Y-89947143D01*
X112362380Y-89899524D01*
X112409999Y-89875714D01*
X112529046Y-89875714D01*
X112576665Y-89851905D01*
X113029046Y-90066190D02*
X113029046Y-89566190D01*
X113029046Y-90042381D02*
X112981427Y-90066190D01*
X112886189Y-90066190D01*
X112838570Y-90042381D01*
X112814761Y-90018571D01*
X112790951Y-89970952D01*
X112790951Y-89828095D01*
X112814761Y-89780476D01*
X112838570Y-89756667D01*
X112886189Y-89732857D01*
X112981427Y-89732857D01*
X113029046Y-89756667D01*
X113267142Y-90066190D02*
X113267142Y-89732857D01*
X113267142Y-89780476D02*
X113290951Y-89756667D01*
X113338570Y-89732857D01*
X113409999Y-89732857D01*
X113457618Y-89756667D01*
X113481427Y-89804286D01*
X113481427Y-90066190D01*
X113481427Y-89804286D02*
X113505237Y-89756667D01*
X113552856Y-89732857D01*
X113624284Y-89732857D01*
X113671904Y-89756667D01*
X113695713Y-89804286D01*
X113695713Y-90066190D01*
X114148094Y-90066190D02*
X114148094Y-89804286D01*
X114124285Y-89756667D01*
X114076666Y-89732857D01*
X113981428Y-89732857D01*
X113933809Y-89756667D01*
X114148094Y-90042381D02*
X114100475Y-90066190D01*
X113981428Y-90066190D01*
X113933809Y-90042381D01*
X113909999Y-89994762D01*
X113909999Y-89947143D01*
X113933809Y-89899524D01*
X113981428Y-89875714D01*
X114100475Y-89875714D01*
X114148094Y-89851905D01*
X114457618Y-90066190D02*
X114409999Y-90042381D01*
X114386190Y-89994762D01*
X114386190Y-89566190D01*
D11*
X94390000Y-108490000D03*
X94390000Y-105990000D03*
X94390000Y-103490000D03*
D12*
X97690000Y-110990000D03*
X97690000Y-100990000D03*
D13*
X94980000Y-73560000D03*
X94980000Y-74210000D03*
X94980000Y-74860000D03*
X94980000Y-75510000D03*
X94980000Y-76160000D03*
D14*
X94980000Y-72360000D03*
X94980000Y-77360000D03*
D15*
X92280000Y-71360000D03*
X92280000Y-78360000D03*
D16*
X184920000Y-78030000D03*
D17*
X187460000Y-78030000D03*
X184920000Y-80570000D03*
X187460000Y-80570000D03*
X184920000Y-83110000D03*
X187460000Y-83110000D03*
X184920000Y-85650000D03*
X187460000Y-85650000D03*
X184920000Y-88190000D03*
X187460000Y-88190000D03*
X184920000Y-90730000D03*
X187460000Y-90730000D03*
X184920000Y-93270000D03*
X187460000Y-93270000D03*
D18*
X112960000Y-107010000D03*
X111460000Y-107010000D03*
D19*
X154370000Y-95595000D03*
X154370000Y-96865000D03*
X154370000Y-98135000D03*
X154370000Y-99405000D03*
X159770000Y-99405000D03*
X159770000Y-98135000D03*
X159770000Y-96865000D03*
X159770000Y-95595000D03*
D20*
X93995000Y-93510000D03*
X95265000Y-93510000D03*
X96535000Y-93510000D03*
X97805000Y-93510000D03*
X99075000Y-93510000D03*
X100345000Y-93510000D03*
X101615000Y-93510000D03*
X102885000Y-93510000D03*
X104155000Y-93510000D03*
X105425000Y-93510000D03*
X105425000Y-84110000D03*
X104155000Y-84110000D03*
X102885000Y-84110000D03*
X101615000Y-84110000D03*
X100345000Y-84110000D03*
X99075000Y-84110000D03*
X97805000Y-84110000D03*
X96535000Y-84110000D03*
X95265000Y-84110000D03*
X93995000Y-84110000D03*
D21*
X134060000Y-96020000D03*
X134860000Y-96020000D03*
X135660000Y-96020000D03*
X136460000Y-96020000D03*
X137260000Y-96020000D03*
X138060000Y-96020000D03*
X138860000Y-96020000D03*
X139660000Y-96020000D03*
X140460000Y-96020000D03*
X141260000Y-96020000D03*
X142060000Y-96020000D03*
D22*
X143760000Y-94320000D03*
X143760000Y-93520000D03*
X143760000Y-92720000D03*
X143760000Y-91920000D03*
X143760000Y-91120000D03*
X143760000Y-90320000D03*
X143760000Y-89520000D03*
X143760000Y-88720000D03*
X143760000Y-87920000D03*
X143760000Y-87120000D03*
X143760000Y-86320000D03*
D21*
X142060000Y-84620000D03*
X141260000Y-84620000D03*
X140460000Y-84620000D03*
X139660000Y-84620000D03*
X138860000Y-84620000D03*
X138060000Y-84620000D03*
X137260000Y-84620000D03*
X136460000Y-84620000D03*
X135660000Y-84620000D03*
X134860000Y-84620000D03*
X134060000Y-84620000D03*
D22*
X132360000Y-86320000D03*
X132360000Y-87120000D03*
X132360000Y-87920000D03*
X132360000Y-88720000D03*
X132360000Y-89520000D03*
X132360000Y-90320000D03*
X132360000Y-91120000D03*
X132360000Y-91920000D03*
X132360000Y-92720000D03*
X132360000Y-93520000D03*
X132360000Y-94320000D03*
D23*
X109950000Y-75725000D03*
X109950000Y-70675000D03*
D24*
X113425000Y-84950000D03*
X108375000Y-84950000D03*
X134325000Y-71200000D03*
X129275000Y-71200000D03*
X112465000Y-66480000D03*
X117515000Y-66480000D03*
D25*
X118050000Y-86600000D03*
X118050000Y-83100000D03*
X142380000Y-67670000D03*
X142380000Y-71170000D03*
D26*
X96300000Y-68600000D03*
X96300000Y-66200000D03*
D27*
X174800000Y-73870000D03*
X174800000Y-75770000D03*
X176800000Y-74820000D03*
D28*
X131160000Y-100040000D03*
X131160000Y-101310000D03*
X131160000Y-102580000D03*
X131160000Y-103850000D03*
X131160000Y-105120000D03*
X131160000Y-106390000D03*
X131160000Y-107660000D03*
X136560000Y-107660000D03*
X136560000Y-106390000D03*
X136560000Y-105120000D03*
X136560000Y-103850000D03*
X136560000Y-102580000D03*
X136560000Y-101310000D03*
X136560000Y-100040000D03*
D29*
X105550000Y-78850000D03*
X105550000Y-79800000D03*
X105550000Y-80750000D03*
X107750000Y-80750000D03*
X107750000Y-78850000D03*
X107750000Y-79800000D03*
D19*
X125300000Y-73855000D03*
X125300000Y-72585000D03*
X125300000Y-71315000D03*
X125300000Y-70045000D03*
X119900000Y-70045000D03*
X119900000Y-71315000D03*
X119900000Y-72585000D03*
X119900000Y-73855000D03*
D30*
X103250000Y-66500000D03*
D31*
X103250000Y-72800000D03*
X105550000Y-72800000D03*
X100950000Y-72800000D03*
D28*
X166050000Y-66240000D03*
X166050000Y-67510000D03*
X166050000Y-68780000D03*
X166050000Y-70050000D03*
X166050000Y-71320000D03*
X166050000Y-72590000D03*
X166050000Y-73860000D03*
X171450000Y-73860000D03*
X171450000Y-72590000D03*
X171450000Y-71320000D03*
X171450000Y-70050000D03*
X171450000Y-68780000D03*
X171450000Y-67510000D03*
X171450000Y-66240000D03*
D19*
X164370000Y-87625000D03*
X164370000Y-88895000D03*
X164370000Y-90165000D03*
X164370000Y-91435000D03*
X169770000Y-91435000D03*
X169770000Y-90165000D03*
X169770000Y-88895000D03*
X169770000Y-87625000D03*
D32*
X154150000Y-69450000D03*
X154150000Y-69950000D03*
X154150000Y-70450000D03*
X154150000Y-70950000D03*
X154150000Y-71450000D03*
X158550000Y-71450000D03*
X158550000Y-70950000D03*
X158550000Y-70450000D03*
X158550000Y-69950000D03*
X158550000Y-69450000D03*
D19*
X173410000Y-87615000D03*
X173410000Y-88885000D03*
X173410000Y-90155000D03*
X173410000Y-91425000D03*
X178810000Y-91425000D03*
X178810000Y-90155000D03*
X178810000Y-88885000D03*
X178810000Y-87615000D03*
X164410000Y-95595000D03*
X164410000Y-96865000D03*
X164410000Y-98135000D03*
X164410000Y-99405000D03*
X169810000Y-99405000D03*
X169810000Y-98135000D03*
X169810000Y-96865000D03*
X169810000Y-95595000D03*
X122060000Y-103155000D03*
X122060000Y-101885000D03*
X122060000Y-100615000D03*
X122060000Y-99345000D03*
X116660000Y-99345000D03*
X116660000Y-100615000D03*
X116660000Y-101885000D03*
X116660000Y-103155000D03*
X153130000Y-78885000D03*
X153130000Y-80155000D03*
X153130000Y-81425000D03*
X153130000Y-82695000D03*
X158530000Y-82695000D03*
X158530000Y-81425000D03*
X158530000Y-80155000D03*
X158530000Y-78885000D03*
D27*
X118300000Y-80750000D03*
X118300000Y-78850000D03*
X116300000Y-79800000D03*
X136230000Y-67660000D03*
X136230000Y-65760000D03*
X134230000Y-66710000D03*
D33*
X115350000Y-75925000D03*
X115350000Y-72875000D03*
D34*
X127605000Y-66480000D03*
X124555000Y-66480000D03*
D16*
X115820000Y-94340000D03*
D17*
X118360000Y-94340000D03*
X120900000Y-94340000D03*
X123440000Y-94340000D03*
X125980000Y-94340000D03*
X128520000Y-94340000D03*
D16*
X167210000Y-111030000D03*
D17*
X164670000Y-111030000D03*
X162130000Y-111030000D03*
X159590000Y-111030000D03*
X157050000Y-111030000D03*
X154510000Y-111030000D03*
X151970000Y-111030000D03*
X149430000Y-111030000D03*
D16*
X139210000Y-111050000D03*
D17*
X141750000Y-111050000D03*
X144290000Y-111050000D03*
X146830000Y-111050000D03*
D16*
X184910000Y-70410000D03*
D17*
X187450000Y-70410000D03*
X184910000Y-72950000D03*
X187450000Y-72950000D03*
X184910000Y-75490000D03*
X187450000Y-75490000D03*
D16*
X126390000Y-62850000D03*
D17*
X128930000Y-62850000D03*
X131470000Y-62850000D03*
X134010000Y-62850000D03*
D16*
X184920000Y-95810000D03*
D17*
X187460000Y-95810000D03*
X184920000Y-98350000D03*
X187460000Y-98350000D03*
X184920000Y-100890000D03*
X187460000Y-100890000D03*
X184920000Y-103430000D03*
X187460000Y-103430000D03*
D35*
X94000000Y-81970000D03*
X92500000Y-81970000D03*
X92500000Y-80240000D03*
X94000000Y-80240000D03*
D36*
X125950000Y-89550000D03*
X125950000Y-91050000D03*
X92190000Y-86260000D03*
X92190000Y-87760000D03*
D35*
X100850000Y-107010000D03*
X102350000Y-107010000D03*
X105620000Y-104530000D03*
X104120000Y-104530000D03*
D36*
X131600000Y-76440000D03*
X131600000Y-74940000D03*
D35*
X125410000Y-107020000D03*
X123910000Y-107020000D03*
D36*
X135290000Y-76440000D03*
X135290000Y-74940000D03*
D35*
X138810000Y-81630000D03*
X137310000Y-81630000D03*
X140430000Y-98840000D03*
X141930000Y-98840000D03*
X148300000Y-88620000D03*
X149800000Y-88620000D03*
D36*
X96300000Y-64130000D03*
X96300000Y-62630000D03*
X98710000Y-62630000D03*
X98710000Y-64130000D03*
D35*
X167670000Y-93540000D03*
X169170000Y-93540000D03*
D36*
X160290000Y-89000000D03*
X160290000Y-87500000D03*
D35*
X156470000Y-67300000D03*
X157970000Y-67300000D03*
X165220000Y-85160000D03*
X163720000Y-85160000D03*
X169770000Y-85160000D03*
X168270000Y-85160000D03*
X163000000Y-67300000D03*
X161500000Y-67300000D03*
X154370000Y-101310000D03*
X155870000Y-101310000D03*
D36*
X151610000Y-96860000D03*
X151610000Y-95360000D03*
D35*
X111480000Y-101880000D03*
X112980000Y-101880000D03*
X161430000Y-93540000D03*
X159930000Y-93540000D03*
X176300000Y-71330000D03*
X174800000Y-71330000D03*
X119620000Y-107010000D03*
X121120000Y-107010000D03*
X155840000Y-85160000D03*
X157340000Y-85160000D03*
X116390000Y-97630000D03*
X114890000Y-97630000D03*
X116760000Y-107010000D03*
X115260000Y-107010000D03*
X159830000Y-76720000D03*
X158330000Y-76720000D03*
X123770000Y-97740000D03*
X122270000Y-97740000D03*
D36*
X175340000Y-95590000D03*
X175340000Y-94090000D03*
D35*
X107800000Y-107010000D03*
X109300000Y-107010000D03*
D36*
X151610000Y-101350000D03*
X151610000Y-99850000D03*
D35*
X163310000Y-76730000D03*
X161810000Y-76730000D03*
D37*
X139760000Y-76500000D03*
X139760000Y-75000000D03*
D18*
X131670000Y-84330000D03*
X130170000Y-84330000D03*
X131670000Y-82240000D03*
X130170000Y-82240000D03*
X113670000Y-79210000D03*
X112170000Y-79210000D03*
X112170000Y-81780000D03*
X113670000Y-81780000D03*
D37*
X172210000Y-108930000D03*
X172210000Y-107430000D03*
X174760000Y-108910000D03*
X174760000Y-107410000D03*
X177290000Y-108910000D03*
X177290000Y-107410000D03*
X179830000Y-108890000D03*
X179830000Y-107390000D03*
X143070000Y-80100000D03*
X143070000Y-78600000D03*
X132120000Y-67470000D03*
X132120000Y-65970000D03*
X143030000Y-75020000D03*
X143030000Y-76520000D03*
D18*
X121950000Y-66480000D03*
X120450000Y-66480000D03*
X148200000Y-85140000D03*
X149700000Y-85140000D03*
X112940000Y-104530000D03*
X111440000Y-104530000D03*
D37*
X146210000Y-78590000D03*
X146210000Y-80090000D03*
X146210000Y-76520000D03*
X146210000Y-75020000D03*
D18*
X156470000Y-65140000D03*
X157970000Y-65140000D03*
X161480000Y-65140000D03*
X162980000Y-65140000D03*
D37*
X162160000Y-87510000D03*
X162160000Y-89010000D03*
X173390000Y-94080000D03*
X173390000Y-95580000D03*
D18*
X176300000Y-85130000D03*
X174800000Y-85130000D03*
X161320000Y-85160000D03*
X159820000Y-85160000D03*
X176290000Y-68930000D03*
X174790000Y-68930000D03*
X176350000Y-66230000D03*
X174850000Y-66230000D03*
D37*
X149050000Y-69890000D03*
X149050000Y-71390000D03*
D18*
X149740000Y-96260000D03*
X148240000Y-96260000D03*
X149710000Y-101350000D03*
X148210000Y-101350000D03*
X148220000Y-98800000D03*
X149720000Y-98800000D03*
D37*
X146200000Y-83210000D03*
X146200000Y-81710000D03*
X148950000Y-83210000D03*
X148950000Y-81710000D03*
D18*
X152040000Y-85140000D03*
X153540000Y-85140000D03*
D37*
X155960000Y-92500000D03*
X155960000Y-94000000D03*
D18*
X158250000Y-74290000D03*
X159750000Y-74290000D03*
X176300000Y-78230000D03*
X174800000Y-78230000D03*
X161590000Y-74290000D03*
X163090000Y-74290000D03*
D37*
X149050000Y-76520000D03*
X149050000Y-75020000D03*
D18*
X165350000Y-76730000D03*
X166850000Y-76730000D03*
X109300000Y-109850000D03*
X107800000Y-109850000D03*
X109190000Y-101870000D03*
X107690000Y-101870000D03*
X107690000Y-104520000D03*
X109190000Y-104520000D03*
X100830000Y-104530000D03*
X102330000Y-104530000D03*
X112960000Y-109850000D03*
X111460000Y-109850000D03*
D37*
X149020000Y-78590000D03*
X149020000Y-80090000D03*
X161425000Y-82425000D03*
X161425000Y-80925000D03*
X163820000Y-82420000D03*
X163820000Y-80920000D03*
D18*
X148250000Y-93880000D03*
X149750000Y-93880000D03*
X149760000Y-91300000D03*
X148260000Y-91300000D03*
D37*
X93680000Y-64120000D03*
X93680000Y-62620000D03*
D18*
X109170000Y-88390000D03*
X107670000Y-88390000D03*
X109210000Y-91380000D03*
X107710000Y-91380000D03*
X113210000Y-88410000D03*
X111710000Y-88410000D03*
X113210000Y-91390000D03*
X111710000Y-91390000D03*
D16*
X124440000Y-85720000D03*
D17*
X121900000Y-85720000D03*
X124440000Y-83180000D03*
X121900000Y-83180000D03*
X124440000Y-80640000D03*
X121900000Y-80640000D03*
X124440000Y-78100000D03*
X121900000Y-78100000D03*
D37*
X92200000Y-89970000D03*
X92200000Y-91470000D03*
D38*
X113090000Y-94310000D03*
X110440000Y-94270000D03*
X127550000Y-100040000D03*
X107880000Y-94240000D03*
D36*
X92200000Y-98170000D03*
X92200000Y-96670000D03*
X101160000Y-98180000D03*
X101160000Y-96680000D03*
D39*
X94820000Y-97510000D03*
X98520000Y-97510000D03*
D37*
X143070000Y-83210000D03*
X143070000Y-81710000D03*
D40*
X153480000Y-92170000D03*
X153480000Y-89970000D03*
X93680000Y-66220000D03*
X93680000Y-68420000D03*
D39*
X131590000Y-79210000D03*
X135290000Y-79210000D03*
D41*
X104880000Y-111020000D03*
X181090000Y-62780000D03*
X106150000Y-62770000D03*
X187420000Y-111010000D03*
D16*
X172220000Y-62780000D03*
D17*
X169680000Y-62780000D03*
X167140000Y-62780000D03*
X164600000Y-62780000D03*
X162060000Y-62780000D03*
X159520000Y-62780000D03*
D16*
X151900000Y-62780000D03*
D17*
X154440000Y-62780000D03*
D16*
X118880000Y-111040000D03*
D17*
X121420000Y-111040000D03*
X123960000Y-111040000D03*
X126500000Y-111040000D03*
X129040000Y-111040000D03*
X131580000Y-111040000D03*
X134120000Y-111040000D03*
D16*
X139110000Y-62780000D03*
D17*
X141650000Y-62780000D03*
X144190000Y-62780000D03*
X146730000Y-62780000D03*
D16*
X179840000Y-111040000D03*
D17*
X177300000Y-111040000D03*
X174760000Y-111040000D03*
X172220000Y-111040000D03*
D42*
X109570000Y-82510000D03*
X162760000Y-100480000D03*
X127630000Y-68730000D03*
X136570000Y-93300000D03*
X127890000Y-76340000D03*
X136850000Y-74110000D03*
X98670000Y-72380000D03*
X115970000Y-87040000D03*
X156910000Y-82700000D03*
X150740000Y-89920000D03*
X156230000Y-78410000D03*
X170370000Y-93540000D03*
X147760000Y-77420000D03*
X107140000Y-108690000D03*
X115380000Y-70620000D03*
X155310000Y-72590000D03*
X159010000Y-67910000D03*
X174350000Y-92650000D03*
X105540000Y-69800000D03*
X135050000Y-101580000D03*
X129590000Y-103850000D03*
X129590000Y-100040000D03*
X92500000Y-83150000D03*
X128440000Y-80620000D03*
X135660000Y-91120000D03*
X96450000Y-86500000D03*
X137610000Y-70490000D03*
X138300000Y-87420000D03*
X143600000Y-84760000D03*
X103220000Y-71210000D03*
X103250000Y-68090000D03*
X144640000Y-83590000D03*
X141630000Y-74640000D03*
X168200000Y-95610000D03*
X145600000Y-89800000D03*
X152890000Y-100890000D03*
X114970000Y-79230000D03*
X160190000Y-66250000D03*
X163700000Y-70050000D03*
X110450000Y-92820000D03*
X118730000Y-98020000D03*
X122750000Y-64530000D03*
X113100000Y-92980000D03*
X173290000Y-71320000D03*
X125780000Y-97760000D03*
X93370000Y-73650000D03*
X168200000Y-96860000D03*
X135270000Y-88530000D03*
X143040000Y-77390000D03*
X134060000Y-87080000D03*
X152250000Y-69800000D03*
X135960000Y-87060000D03*
X155600000Y-70450000D03*
X110380000Y-91380000D03*
X135550000Y-94350000D03*
X134650000Y-93250000D03*
X110300000Y-88350000D03*
X130575000Y-85775000D03*
X181100000Y-90140000D03*
X168170000Y-98150000D03*
X139070000Y-94010000D03*
X172150000Y-105350000D03*
X140010000Y-93130000D03*
X174790000Y-105310000D03*
X177210000Y-105260000D03*
X141830000Y-94180000D03*
X179830000Y-105280000D03*
X143880000Y-96440000D03*
X128180000Y-102670000D03*
X161550000Y-71640000D03*
X179930000Y-66780000D03*
X138580000Y-103850000D03*
X143750000Y-106220000D03*
X141980000Y-80180000D03*
X127140000Y-88330000D03*
X104050000Y-89840000D03*
X115990000Y-92580000D03*
X103010000Y-88150000D03*
X115980000Y-88410000D03*
X109590000Y-81020000D03*
X118080000Y-73690000D03*
X109950000Y-73690000D03*
X145390000Y-68240000D03*
X156050000Y-99410000D03*
X154720000Y-87230000D03*
X119440000Y-76500000D03*
X162170000Y-95860000D03*
X162210000Y-79690000D03*
X168120000Y-87620000D03*
X131760000Y-96180000D03*
X168150000Y-91410000D03*
X146200000Y-77420000D03*
X157890000Y-95500000D03*
X167620000Y-66240000D03*
X173060000Y-68780000D03*
X145130000Y-85220000D03*
X173370000Y-86430000D03*
X140550000Y-86300000D03*
X165360000Y-80070000D03*
X169900000Y-71320000D03*
X158330000Y-72660000D03*
X138530000Y-106380000D03*
X104960000Y-107010000D03*
X93400000Y-75940000D03*
X167250000Y-80940000D03*
X172760000Y-82460000D03*
X171440000Y-86130000D03*
X155420000Y-91290000D03*
X151240000Y-82460000D03*
X154710000Y-78900000D03*
X152890000Y-87270000D03*
X175100000Y-90150000D03*
X168170000Y-90160000D03*
X160190000Y-80170000D03*
X150660000Y-85140000D03*
X141810000Y-86650000D03*
X114330000Y-103100000D03*
X138570000Y-102580000D03*
X122130000Y-105380000D03*
X125210000Y-103170000D03*
X102020000Y-89860000D03*
X151020000Y-77990000D03*
X98470000Y-68990000D03*
X152430000Y-93990000D03*
X139750000Y-70440000D03*
X140070000Y-87630000D03*
X142075000Y-89525000D03*
X92190000Y-93900000D03*
X97390000Y-90980000D03*
D43*
X101160000Y-98180000D02*
X105800000Y-98180000D01*
X105800000Y-98180000D02*
X107940000Y-96040000D01*
X101160000Y-98180000D02*
X101160000Y-102100000D01*
X99770000Y-103490000D02*
X94390000Y-103490000D01*
X101160000Y-102100000D02*
X99770000Y-103490000D01*
X92200000Y-98170000D02*
X92200000Y-101300000D01*
X92200000Y-101300000D02*
X94390000Y-103490000D01*
D44*
X149430000Y-111030000D02*
X149430000Y-111810000D01*
X149430000Y-111810000D02*
X150600000Y-112980000D01*
X154510000Y-111030000D02*
X154510000Y-111570000D01*
X154510000Y-111570000D02*
X155920000Y-112980000D01*
X159590000Y-111030000D02*
X159590000Y-111810000D01*
X159590000Y-111810000D02*
X160760000Y-112980000D01*
X164670000Y-111030000D02*
X164670000Y-111440000D01*
X164670000Y-111440000D02*
X166210000Y-112980000D01*
X144290000Y-111050000D02*
X144290000Y-111930000D01*
X144290000Y-111930000D02*
X145340000Y-112980000D01*
X139210000Y-111050000D02*
X139210000Y-112120000D01*
X139210000Y-112120000D02*
X140070000Y-112980000D01*
D43*
X176290000Y-68930000D02*
X176940000Y-68930000D01*
X177720000Y-64330000D02*
X179270000Y-62780000D01*
X177720000Y-68150000D02*
X177720000Y-64330000D01*
X176940000Y-68930000D02*
X177720000Y-68150000D01*
X179270000Y-62780000D02*
X181090000Y-62780000D01*
X123440000Y-94340000D02*
X123440000Y-94860000D01*
X123440000Y-94860000D02*
X122270000Y-96030000D01*
X122270000Y-96030000D02*
X122270000Y-97740000D01*
D44*
X129040000Y-111040000D02*
X129040000Y-111940000D01*
X130080000Y-112980000D02*
X140070000Y-112980000D01*
X140070000Y-112980000D02*
X142670000Y-112980000D01*
X129040000Y-111940000D02*
X130080000Y-112980000D01*
X142670000Y-112980000D02*
X145340000Y-112980000D01*
X145340000Y-112980000D02*
X147610000Y-112980000D01*
X147610000Y-112980000D02*
X150600000Y-112980000D01*
X150600000Y-112980000D02*
X152630000Y-112980000D01*
X152630000Y-112980000D02*
X155920000Y-112980000D01*
X155920000Y-112980000D02*
X157860000Y-112980000D01*
X157860000Y-112980000D02*
X160760000Y-112980000D01*
X160760000Y-112980000D02*
X162870000Y-112980000D01*
X162870000Y-112980000D02*
X166210000Y-112980000D01*
X166210000Y-112980000D02*
X167800000Y-112980000D01*
X167800000Y-112980000D02*
X172860000Y-112980000D01*
X185450000Y-112980000D02*
X187420000Y-111010000D01*
X172860000Y-112980000D02*
X185450000Y-112980000D01*
X169680000Y-61640000D02*
X169680000Y-61450000D01*
X179340000Y-61030000D02*
X181090000Y-62780000D01*
X170100000Y-61030000D02*
X179340000Y-61030000D01*
X169680000Y-61450000D02*
X170100000Y-61030000D01*
X159520000Y-62780000D02*
X159520000Y-61650000D01*
X163720000Y-61000000D02*
X164600000Y-61880000D01*
X160170000Y-61000000D02*
X163720000Y-61000000D01*
X159520000Y-61650000D02*
X160170000Y-61000000D01*
X164600000Y-62780000D02*
X164600000Y-61880000D01*
X169680000Y-61540000D02*
X169680000Y-61640000D01*
X169680000Y-61640000D02*
X169680000Y-62780000D01*
X164600000Y-61880000D02*
X165490000Y-60990000D01*
X165490000Y-60990000D02*
X169130000Y-60990000D01*
X169130000Y-60990000D02*
X169680000Y-61540000D01*
D45*
X112465000Y-66480000D02*
X110550000Y-66480000D01*
X110550000Y-66480000D02*
X109950000Y-65880000D01*
D44*
X127630000Y-68730000D02*
X127630000Y-66505000D01*
X127630000Y-66505000D02*
X127605000Y-66480000D01*
D45*
X115380000Y-70620000D02*
X115380000Y-72845000D01*
X115380000Y-72845000D02*
X115350000Y-72875000D01*
X115380000Y-70620000D02*
X110005000Y-70620000D01*
X110005000Y-70620000D02*
X109950000Y-70675000D01*
D43*
X107750000Y-80750000D02*
X107750000Y-81510000D01*
X109030000Y-81970000D02*
X109570000Y-82510000D01*
X108210000Y-81970000D02*
X109030000Y-81970000D01*
X107750000Y-81510000D02*
X108210000Y-81970000D01*
X149050000Y-71390000D02*
X149050000Y-72590000D01*
X149050000Y-72590000D02*
X149050000Y-72500000D01*
X149050000Y-72500000D02*
X149050000Y-72590000D01*
X162760000Y-101310000D02*
X162760000Y-100480000D01*
X157970000Y-67300000D02*
X158890000Y-67300000D01*
X159010000Y-67420000D02*
X159010000Y-67910000D01*
X158890000Y-67300000D02*
X159010000Y-67420000D01*
X157800000Y-93540000D02*
X157470000Y-93870000D01*
X157550000Y-93770000D02*
X157470000Y-93770000D01*
X157470000Y-93850000D02*
X157550000Y-93770000D01*
X157470000Y-93870000D02*
X157470000Y-93850000D01*
X159930000Y-93540000D02*
X157800000Y-93540000D01*
X157800000Y-93540000D02*
X157470000Y-93210000D01*
X142380000Y-71170000D02*
X142380000Y-72180000D01*
X142790000Y-72590000D02*
X147220000Y-72590000D01*
X142380000Y-72180000D02*
X142790000Y-72590000D01*
X123910000Y-107020000D02*
X123910000Y-108140000D01*
X124290000Y-108520000D02*
X125260000Y-108520000D01*
X123910000Y-108140000D02*
X124290000Y-108520000D01*
X123910000Y-107020000D02*
X123910000Y-105970000D01*
X125210000Y-104670000D02*
X126000000Y-104670000D01*
X123910000Y-105970000D02*
X125210000Y-104670000D01*
X126000000Y-104670000D02*
X126770000Y-103900000D01*
X128500000Y-108520000D02*
X129360000Y-107660000D01*
X131160000Y-107660000D02*
X129360000Y-107660000D01*
X125260000Y-108520000D02*
X128500000Y-108520000D01*
D45*
X106840000Y-62770000D02*
X109950000Y-65880000D01*
X109950000Y-65880000D02*
X109950000Y-70675000D01*
X106150000Y-62770000D02*
X106840000Y-62770000D01*
D43*
X157330000Y-84740000D02*
X157320000Y-87960000D01*
X159525000Y-90165000D02*
X164370000Y-90165000D01*
X157320000Y-87960000D02*
X159525000Y-90165000D01*
D46*
X138060000Y-93300000D02*
X136570000Y-93300000D01*
X138060000Y-92210000D02*
X138060000Y-92150000D01*
X138060000Y-92150000D02*
X139160000Y-91050000D01*
X138060000Y-96020000D02*
X138060000Y-93300000D01*
X138060000Y-93300000D02*
X138060000Y-92210000D01*
D43*
X164370000Y-90165000D02*
X165965000Y-90165000D01*
X168270000Y-85730000D02*
X168270000Y-85160000D01*
X166970000Y-87030000D02*
X168270000Y-85730000D01*
X166970000Y-89160000D02*
X166970000Y-87030000D01*
X165965000Y-90165000D02*
X166970000Y-89160000D01*
X157340000Y-85160000D02*
X157340000Y-83830000D01*
X157340000Y-83830000D02*
X157330000Y-83820000D01*
X131600000Y-74940000D02*
X129290000Y-74940000D01*
X129290000Y-74940000D02*
X128740000Y-75490000D01*
X136000000Y-74940000D02*
X136490000Y-74940000D01*
X136490000Y-74940000D02*
X136500000Y-74950000D01*
X135290000Y-74940000D02*
X136000000Y-74940000D01*
X136000000Y-74940000D02*
X136020000Y-74940000D01*
X136020000Y-74940000D02*
X136500000Y-74460000D01*
X131600000Y-74940000D02*
X135290000Y-74940000D01*
X128740000Y-75490000D02*
X127890000Y-76340000D01*
X136500000Y-74950000D02*
X136500000Y-74460000D01*
X137310000Y-76060000D02*
X137310000Y-75780000D01*
X136500000Y-74950000D02*
X136500000Y-74970000D01*
X136500000Y-74970000D02*
X137310000Y-75780000D01*
X137310000Y-76060000D02*
X137310000Y-81630000D01*
X136500000Y-74460000D02*
X136850000Y-74110000D01*
X128740000Y-75490000D02*
X124380000Y-75490000D01*
X124160000Y-75270000D02*
X123240000Y-74350000D01*
X123240000Y-74350000D02*
X123240000Y-71830000D01*
X124380000Y-75490000D02*
X124160000Y-75270000D01*
X123645000Y-71315000D02*
X123645000Y-71425000D01*
X123645000Y-71425000D02*
X123240000Y-71830000D01*
X123240000Y-71830000D02*
X123240000Y-70910000D01*
X147760000Y-77420000D02*
X147760000Y-78230000D01*
X148120000Y-78590000D02*
X149020000Y-78590000D01*
X147760000Y-78230000D02*
X148120000Y-78590000D01*
X146210000Y-75020000D02*
X147230000Y-75020000D01*
X147230000Y-75020000D02*
X147760000Y-75550000D01*
X147760000Y-75550000D02*
X147760000Y-77420000D01*
X147230000Y-75020000D02*
X147760000Y-75550000D01*
X120920000Y-97740000D02*
X120920000Y-97720000D01*
X120920000Y-97720000D02*
X120510000Y-97310000D01*
X122060000Y-100615000D02*
X123415000Y-100615000D01*
X123415000Y-100615000D02*
X124330000Y-101530000D01*
X92280000Y-70750000D02*
X92280000Y-61930000D01*
X97480000Y-61840000D02*
X97480000Y-62630000D01*
X97050000Y-61410000D02*
X97480000Y-61840000D01*
X92800000Y-61410000D02*
X97050000Y-61410000D01*
X92280000Y-61930000D02*
X92800000Y-61410000D01*
X98710000Y-62630000D02*
X106010000Y-62630000D01*
X106010000Y-62630000D02*
X106150000Y-62770000D01*
X96300000Y-62630000D02*
X97480000Y-62630000D01*
X97480000Y-62630000D02*
X98710000Y-62630000D01*
D44*
X93680000Y-68420000D02*
X93680000Y-69340000D01*
X92280000Y-70740000D02*
X92280000Y-70750000D01*
X92280000Y-70750000D02*
X92280000Y-71360000D01*
X93680000Y-69340000D02*
X92280000Y-70740000D01*
D43*
X153480000Y-89970000D02*
X155580000Y-89970000D01*
X155580000Y-89970000D02*
X157470000Y-91860000D01*
X149800000Y-88620000D02*
X151030000Y-88620000D01*
X152380000Y-89970000D02*
X153480000Y-89970000D01*
X151030000Y-88620000D02*
X152380000Y-89970000D01*
X92190000Y-86260000D02*
X93680000Y-86260000D01*
X93995000Y-85945000D02*
X93995000Y-84110000D01*
X93680000Y-86260000D02*
X93995000Y-85945000D01*
X147760000Y-75550000D02*
X147760000Y-77420000D01*
D44*
X98670000Y-72380000D02*
X99090000Y-72800000D01*
X99090000Y-72800000D02*
X100950000Y-72800000D01*
D43*
X137260000Y-84620000D02*
X137260000Y-81680000D01*
X137260000Y-81680000D02*
X137310000Y-81630000D01*
D46*
X136170000Y-90320000D02*
X132360000Y-90320000D01*
D43*
X125300000Y-71315000D02*
X123645000Y-71315000D01*
X123645000Y-71315000D02*
X123240000Y-70910000D01*
X123440000Y-68730000D02*
X127610000Y-68730000D01*
X127610000Y-68730000D02*
X127630000Y-68730000D01*
X123240000Y-70910000D02*
X123240000Y-68930000D01*
X123240000Y-68930000D02*
X123440000Y-68730000D01*
D44*
X113090000Y-97630000D02*
X109530000Y-97630000D01*
X109530000Y-97630000D02*
X107940000Y-96040000D01*
D43*
X113090000Y-97630000D02*
X113360000Y-97630000D01*
D44*
X107880000Y-95980000D02*
X107880000Y-94240000D01*
X107940000Y-96040000D02*
X107880000Y-95980000D01*
X93995000Y-84110000D02*
X93995000Y-81975000D01*
X93995000Y-81975000D02*
X94000000Y-81970000D01*
X94000000Y-80240000D02*
X94000000Y-81970000D01*
D43*
X94000000Y-78600000D02*
X94000000Y-78380000D01*
X94000000Y-78380000D02*
X93980000Y-78360000D01*
X94000000Y-80240000D02*
X94000000Y-78600000D01*
X94000000Y-78600000D02*
X94000000Y-78590000D01*
X94000000Y-78590000D02*
X93770000Y-78360000D01*
X93995000Y-81975000D02*
X94000000Y-81970000D01*
X107140000Y-108690000D02*
X107140000Y-108470000D01*
X107140000Y-108470000D02*
X107800000Y-107810000D01*
X107800000Y-107810000D02*
X107800000Y-107010000D01*
X107800000Y-107010000D02*
X106870000Y-107010000D01*
X106870000Y-107010000D02*
X105620000Y-105760000D01*
X105620000Y-105760000D02*
X105620000Y-104530000D01*
D44*
X115970000Y-87040000D02*
X115970000Y-86920000D01*
X115970000Y-86920000D02*
X116290000Y-86600000D01*
X116290000Y-86600000D02*
X118050000Y-86600000D01*
D43*
X92280000Y-71360000D02*
X93980000Y-71360000D01*
X93980000Y-71360000D02*
X94980000Y-72360000D01*
X92280000Y-78360000D02*
X93250000Y-78360000D01*
X93250000Y-78360000D02*
X93770000Y-78360000D01*
X93770000Y-78360000D02*
X93980000Y-78360000D01*
X93980000Y-78360000D02*
X94980000Y-77360000D01*
X94980000Y-77360000D02*
X95860000Y-77360000D01*
X96690000Y-76530000D02*
X96690000Y-75690000D01*
X95860000Y-77360000D02*
X96690000Y-76530000D01*
X94980000Y-75510000D02*
X96510000Y-75510000D01*
X96540000Y-76160000D02*
X94980000Y-76160000D01*
X96690000Y-76010000D02*
X96540000Y-76160000D01*
X96690000Y-75690000D02*
X96690000Y-76010000D01*
X96510000Y-75510000D02*
X96690000Y-75690000D01*
X125950000Y-89550000D02*
X125300000Y-89550000D01*
X124440000Y-88690000D02*
X124440000Y-85720000D01*
X125300000Y-89550000D02*
X124440000Y-88690000D01*
X125950000Y-89550000D02*
X126900000Y-89550000D01*
X127670000Y-90320000D02*
X132360000Y-90320000D01*
X126900000Y-89550000D02*
X127670000Y-90320000D01*
X138060000Y-96020000D02*
X138060000Y-97270000D01*
X139630000Y-98840000D02*
X140430000Y-98840000D01*
X138060000Y-97270000D02*
X139630000Y-98840000D01*
D46*
X137335000Y-89285000D02*
X139005000Y-89285000D01*
X139160000Y-89440000D02*
X139160000Y-91050000D01*
X139005000Y-89285000D02*
X139160000Y-89440000D01*
X137335000Y-89285000D02*
X137260000Y-89210000D01*
X139160000Y-91050000D02*
X139160000Y-91120000D01*
X143760000Y-91120000D02*
X139160000Y-91120000D01*
D43*
X156230000Y-78370000D02*
X156230000Y-82020000D01*
X156230000Y-82020000D02*
X156910000Y-82700000D01*
X173410000Y-91425000D02*
X173410000Y-92500000D01*
X173410000Y-92500000D02*
X173560000Y-92650000D01*
X173560000Y-92650000D02*
X174350000Y-92650000D01*
X157330000Y-84740000D02*
X157330000Y-83820000D01*
X157330000Y-83820000D02*
X156910000Y-83400000D01*
X156910000Y-83400000D02*
X156910000Y-82700000D01*
X143760000Y-91120000D02*
X145990000Y-91120000D01*
X145990000Y-91120000D02*
X147190000Y-89920000D01*
X147190000Y-89920000D02*
X150740000Y-89920000D01*
X116790000Y-86600000D02*
X118050000Y-86600000D01*
X106120000Y-62800000D02*
X106150000Y-62770000D01*
X150740000Y-89920000D02*
X149640000Y-89920000D01*
X149640000Y-89920000D02*
X149600000Y-89880000D01*
X149800000Y-88620000D02*
X149800000Y-89680000D01*
X149800000Y-89680000D02*
X149600000Y-89880000D01*
X156230000Y-78410000D02*
X156230000Y-78370000D01*
X156230000Y-78370000D02*
X156230000Y-77660000D01*
X156230000Y-77660000D02*
X157170000Y-76720000D01*
X157170000Y-76720000D02*
X158330000Y-76720000D01*
X156910000Y-82700000D02*
X158525000Y-82700000D01*
X158525000Y-82700000D02*
X158530000Y-82695000D01*
X122270000Y-97740000D02*
X120920000Y-97740000D01*
X120920000Y-97740000D02*
X120880000Y-97740000D01*
X120880000Y-97740000D02*
X120510000Y-98110000D01*
D46*
X163000000Y-67300000D02*
X163000000Y-68140000D01*
X162020000Y-69120000D02*
X160040000Y-69120000D01*
X163000000Y-68140000D02*
X162020000Y-69120000D01*
X158550000Y-69450000D02*
X159710000Y-69450000D01*
X159800000Y-67910000D02*
X159010000Y-67910000D01*
X160040000Y-68150000D02*
X159800000Y-67910000D01*
X160040000Y-69120000D02*
X160040000Y-68150000D01*
X159710000Y-69450000D02*
X160040000Y-69120000D01*
D43*
X176290000Y-68930000D02*
X176290000Y-71320000D01*
X176290000Y-71320000D02*
X176300000Y-71330000D01*
X157470000Y-91860000D02*
X157470000Y-93210000D01*
X157470000Y-93210000D02*
X157470000Y-93160000D01*
X157470000Y-93160000D02*
X157470000Y-93770000D01*
X145990000Y-91120000D02*
X147230000Y-89880000D01*
X147230000Y-89880000D02*
X149600000Y-89880000D01*
X107150000Y-108680000D02*
X107150000Y-109550000D01*
X107450000Y-109850000D02*
X107800000Y-109850000D01*
X107150000Y-109550000D02*
X107450000Y-109850000D01*
X155870000Y-101310000D02*
X162760000Y-101310000D01*
X162760000Y-101310000D02*
X163460000Y-101310000D01*
X164410000Y-100360000D02*
X164410000Y-99405000D01*
X163460000Y-101310000D02*
X164410000Y-100360000D01*
X151610000Y-99850000D02*
X152440000Y-99850000D01*
X152830000Y-99460000D02*
X152830000Y-98135000D01*
X152440000Y-99850000D02*
X152830000Y-99460000D01*
X152830000Y-98135000D02*
X154370000Y-98135000D01*
X154370000Y-98135000D02*
X156335000Y-98135000D01*
X156740000Y-101310000D02*
X155870000Y-101310000D01*
X157050000Y-101000000D02*
X156740000Y-101310000D01*
X157350000Y-84720000D02*
X157330000Y-84740000D01*
X169170000Y-93540000D02*
X170370000Y-93540000D01*
X174350000Y-92650000D02*
X175030000Y-92650000D01*
X175030000Y-92650000D02*
X175340000Y-92960000D01*
X175340000Y-92960000D02*
X175340000Y-94090000D01*
X147220000Y-72590000D02*
X149050000Y-72590000D01*
X149050000Y-72590000D02*
X150050000Y-72590000D01*
X120510000Y-96790000D02*
X120510000Y-97310000D01*
X113910000Y-96320000D02*
X120040000Y-96320000D01*
X113110000Y-97120000D02*
X113910000Y-96320000D01*
X113110000Y-97900000D02*
X113110000Y-97120000D01*
X120040000Y-96320000D02*
X120510000Y-96790000D01*
X120510000Y-97310000D02*
X120510000Y-98110000D01*
X120510000Y-98110000D02*
X120510000Y-100470000D01*
X120510000Y-100470000D02*
X120655000Y-100615000D01*
X120655000Y-100615000D02*
X122060000Y-100615000D01*
X114890000Y-97630000D02*
X113360000Y-97630000D01*
X113655000Y-99345000D02*
X116660000Y-99345000D01*
X113110000Y-98800000D02*
X113655000Y-99345000D01*
X113110000Y-97880000D02*
X113110000Y-97900000D01*
X113110000Y-97900000D02*
X113110000Y-98800000D01*
X113360000Y-97630000D02*
X113110000Y-97880000D01*
X173410000Y-91425000D02*
X173410000Y-91710000D01*
X150050000Y-72590000D02*
X155310000Y-72590000D01*
D44*
X115325000Y-70675000D02*
X115380000Y-70620000D01*
D43*
X107140000Y-108690000D02*
X107150000Y-108680000D01*
D44*
X100950000Y-72800000D02*
X100950000Y-77870000D01*
X102880000Y-79800000D02*
X105550000Y-79800000D01*
X100950000Y-77870000D02*
X102880000Y-79800000D01*
D43*
X124380000Y-101530000D02*
X125960000Y-101530000D01*
D46*
X124330000Y-101530000D02*
X124380000Y-101530000D01*
D43*
X126770000Y-102340000D02*
X126770000Y-103900000D01*
X125960000Y-101530000D02*
X126770000Y-102340000D01*
D44*
X115350000Y-70650000D02*
X115380000Y-70620000D01*
X115325000Y-70675000D02*
X115380000Y-70620000D01*
X106150000Y-62770000D02*
X106630000Y-62770000D01*
D43*
X105550000Y-79800000D02*
X102850000Y-79800000D01*
X102850000Y-79800000D02*
X100950000Y-77900000D01*
X100950000Y-77900000D02*
X100950000Y-72800000D01*
X115325000Y-70675000D02*
X115380000Y-70620000D01*
X115380000Y-70620000D02*
X115350000Y-70650000D01*
D47*
X118050000Y-86600000D02*
X116790000Y-86600000D01*
X100950000Y-77900000D02*
X102850000Y-79800000D01*
X105550000Y-79800000D02*
X106390000Y-79800000D01*
X106910000Y-80750000D02*
X107750000Y-80750000D01*
X106660000Y-80500000D02*
X106910000Y-80750000D01*
X106660000Y-80070000D02*
X106660000Y-80500000D01*
X106390000Y-79800000D02*
X106660000Y-80070000D01*
D46*
X138060000Y-92210000D02*
X136170000Y-90320000D01*
X137260000Y-84620000D02*
X137260000Y-89210000D01*
X137260000Y-89210000D02*
X137260000Y-89360000D01*
X137260000Y-89360000D02*
X136300000Y-90320000D01*
X136300000Y-90320000D02*
X136170000Y-90320000D01*
D47*
X154800000Y-98135000D02*
X154800000Y-98075000D01*
X154510000Y-98135000D02*
X154800000Y-98135000D01*
X154800000Y-98135000D02*
X155125000Y-98135000D01*
X164285000Y-99415000D02*
X164105000Y-99415000D01*
X173410000Y-91425000D02*
X173665000Y-91425000D01*
D43*
X157470000Y-93770000D02*
X157470000Y-94310000D01*
X157050000Y-94730000D02*
X157470000Y-94310000D01*
X157050000Y-98850000D02*
X157050000Y-94730000D01*
X157050000Y-98850000D02*
X157050000Y-101000000D01*
X156335000Y-98135000D02*
X157050000Y-98850000D01*
X125410000Y-107020000D02*
X127470000Y-107020000D01*
X129590000Y-104900000D02*
X129590000Y-103850000D01*
X127470000Y-107020000D02*
X129590000Y-104900000D01*
X96300000Y-66200000D02*
X96300000Y-64130000D01*
X93680000Y-62620000D02*
X94520000Y-62620000D01*
X94520000Y-62620000D02*
X94990000Y-63090000D01*
X94990000Y-63090000D02*
X94990000Y-63890000D01*
X94990000Y-63890000D02*
X95230000Y-64130000D01*
X95230000Y-64130000D02*
X96300000Y-64130000D01*
X127570000Y-100050000D02*
X129580000Y-100050000D01*
X129580000Y-100050000D02*
X129590000Y-100040000D01*
X135050000Y-101580000D02*
X135050000Y-104990000D01*
X135050000Y-104990000D02*
X135180000Y-105120000D01*
X135180000Y-105120000D02*
X136560000Y-105120000D01*
X129590000Y-100040000D02*
X131160000Y-100040000D01*
X136560000Y-101310000D02*
X135320000Y-101310000D01*
X135320000Y-101310000D02*
X135050000Y-101580000D01*
X135050000Y-101580000D02*
X135050000Y-100270000D01*
X135050000Y-100270000D02*
X135280000Y-100040000D01*
X135280000Y-100040000D02*
X136560000Y-100040000D01*
D45*
X96300000Y-66200000D02*
X98070000Y-66200000D01*
X101670000Y-69800000D02*
X105540000Y-69800000D01*
X98070000Y-66200000D02*
X101670000Y-69800000D01*
X105540000Y-69800000D02*
X105540000Y-72790000D01*
X105540000Y-72790000D02*
X105550000Y-72800000D01*
D43*
X129590000Y-103850000D02*
X131160000Y-103850000D01*
D44*
X105550000Y-78850000D02*
X105550000Y-72800000D01*
D43*
X139760000Y-76500000D02*
X138720000Y-76500000D01*
X138380000Y-71260000D02*
X137610000Y-70490000D01*
X138380000Y-76160000D02*
X138380000Y-71260000D01*
X138720000Y-76500000D02*
X138380000Y-76160000D01*
X98710000Y-64130000D02*
X102350000Y-64130000D01*
X93995000Y-90695000D02*
X93995000Y-88955000D01*
X93995000Y-88955000D02*
X95190000Y-87760000D01*
X92500000Y-81970000D02*
X92500000Y-83150000D01*
X130170000Y-82240000D02*
X129570000Y-82240000D01*
X128440000Y-81110000D02*
X128440000Y-80620000D01*
X129570000Y-82240000D02*
X128440000Y-81110000D01*
X103250000Y-65030000D02*
X103250000Y-66500000D01*
X102350000Y-64130000D02*
X103250000Y-65030000D01*
X143600000Y-84760000D02*
X143600000Y-84100000D01*
X143450000Y-83950000D02*
X143070000Y-83950000D01*
X143600000Y-84100000D02*
X143450000Y-83950000D01*
X143070000Y-83950000D02*
X143070000Y-83210000D01*
X92190000Y-87760000D02*
X95190000Y-87760000D01*
X95190000Y-87760000D02*
X96450000Y-86500000D01*
X92200000Y-89970000D02*
X93270000Y-89970000D01*
X93995000Y-90695000D02*
X93995000Y-93510000D01*
X93270000Y-89970000D02*
X93995000Y-90695000D01*
X92190000Y-87760000D02*
X92190000Y-89960000D01*
X92190000Y-89960000D02*
X92200000Y-89970000D01*
D44*
X96450000Y-86500000D02*
X97570000Y-86500000D01*
X97570000Y-86500000D02*
X97805000Y-86265000D01*
X97805000Y-86265000D02*
X97805000Y-84110000D01*
D43*
X138060000Y-84620000D02*
X138060000Y-87180000D01*
X138060000Y-87180000D02*
X138300000Y-87420000D01*
X138060000Y-84620000D02*
X138060000Y-83390000D01*
X138810000Y-82640000D02*
X138810000Y-81630000D01*
X138060000Y-83390000D02*
X138810000Y-82640000D01*
X138290000Y-87410000D02*
X138300000Y-87420000D01*
D46*
X138300000Y-87420000D02*
X138290000Y-87410000D01*
D44*
X92500000Y-80240000D02*
X92500000Y-81970000D01*
D43*
X125950000Y-91050000D02*
X121600000Y-91050000D01*
X120900000Y-91750000D02*
X120900000Y-94340000D01*
X121600000Y-91050000D02*
X120900000Y-91750000D01*
X132360000Y-91120000D02*
X126020000Y-91120000D01*
X126020000Y-91120000D02*
X125950000Y-91050000D01*
X132320000Y-91160000D02*
X132360000Y-91120000D01*
X130170000Y-84330000D02*
X130170000Y-82240000D01*
X120910000Y-94330000D02*
X120900000Y-94340000D01*
X132360000Y-91120000D02*
X135660000Y-91120000D01*
D45*
X103220000Y-71210000D02*
X103240000Y-72790000D01*
X103240000Y-72790000D02*
X103250000Y-72800000D01*
X103250000Y-68090000D02*
X103260000Y-66510000D01*
X103260000Y-66510000D02*
X103250000Y-66500000D01*
D44*
X103260000Y-66510000D02*
X103250000Y-66500000D01*
X103230000Y-71220000D02*
X103220000Y-71210000D01*
X103240000Y-68080000D02*
X103250000Y-68090000D01*
D47*
X103230000Y-71220000D02*
X103220000Y-71210000D01*
X103250000Y-68090000D02*
X103240000Y-68080000D01*
D46*
X120900000Y-93680000D02*
X120900000Y-94340000D01*
D47*
X138075000Y-84605000D02*
X138060000Y-84620000D01*
D43*
X143600000Y-84760000D02*
X143600000Y-84760000D01*
D44*
X107750000Y-78850000D02*
X109060000Y-78850000D01*
X111610000Y-84950000D02*
X113425000Y-84950000D01*
X110930000Y-84270000D02*
X111610000Y-84950000D01*
X110930000Y-80720000D02*
X110930000Y-84270000D01*
X109060000Y-78850000D02*
X110930000Y-80720000D01*
D43*
X156470000Y-65140000D02*
X156470000Y-67300000D01*
X156470000Y-69570000D02*
X156470000Y-67300000D01*
X143030000Y-75020000D02*
X143030000Y-73980000D01*
X154220000Y-73760000D02*
X154750000Y-74290000D01*
X143250000Y-73760000D02*
X154220000Y-73760000D01*
X143030000Y-73980000D02*
X143250000Y-73760000D01*
X141630000Y-74640000D02*
X141630000Y-74730000D01*
X141920000Y-75020000D02*
X143030000Y-75020000D01*
X141630000Y-74730000D02*
X141920000Y-75020000D01*
X143010000Y-81710000D02*
X144680000Y-81710000D01*
X144640000Y-83590000D02*
X144640000Y-81750000D01*
X144640000Y-81750000D02*
X144680000Y-81710000D01*
X144680000Y-81710000D02*
X146200000Y-81710000D01*
X154750000Y-74290000D02*
X156470000Y-74290000D01*
X146200000Y-81710000D02*
X148950000Y-81710000D01*
X156470000Y-74290000D02*
X156470000Y-69570000D01*
X143760000Y-90320000D02*
X145080000Y-90320000D01*
X145080000Y-90320000D02*
X145600000Y-89800000D01*
X146210000Y-80090000D02*
X146210000Y-80910000D01*
X146210000Y-80910000D02*
X146210000Y-81700000D01*
X146210000Y-81700000D02*
X146200000Y-81710000D01*
X156470000Y-69570000D02*
X156470000Y-69890000D01*
X176300000Y-78230000D02*
X177980000Y-78230000D01*
X178810000Y-79060000D02*
X178810000Y-87615000D01*
X177980000Y-78230000D02*
X178810000Y-79060000D01*
X158280000Y-75500000D02*
X166600000Y-75500000D01*
X158250000Y-75500000D02*
X158270000Y-75480000D01*
X158270000Y-75480000D02*
X158280000Y-75480000D01*
X158280000Y-75480000D02*
X158280000Y-75500000D01*
X158250000Y-74290000D02*
X158250000Y-75500000D01*
X166850000Y-75750000D02*
X166850000Y-76730000D01*
X166600000Y-75500000D02*
X166850000Y-75750000D01*
X145600000Y-89800000D02*
X145770000Y-89800000D01*
X145770000Y-89800000D02*
X146950000Y-88620000D01*
X146950000Y-88620000D02*
X148300000Y-88620000D01*
X151610000Y-101350000D02*
X152430000Y-101350000D01*
X152430000Y-101350000D02*
X152890000Y-100890000D01*
X149710000Y-101350000D02*
X151610000Y-101350000D01*
X168200000Y-95610000D02*
X169795000Y-95610000D01*
X169795000Y-95610000D02*
X169810000Y-95595000D01*
X175340000Y-95590000D02*
X173400000Y-95590000D01*
X173400000Y-95590000D02*
X173390000Y-95580000D01*
X169810000Y-95595000D02*
X173375000Y-95595000D01*
X173375000Y-95595000D02*
X173390000Y-95580000D01*
X169825000Y-95590000D02*
X169810000Y-95605000D01*
X173390000Y-95580000D02*
X175330000Y-95580000D01*
X175330000Y-95580000D02*
X175340000Y-95590000D01*
X175340000Y-95590000D02*
X176180000Y-95590000D01*
X176390000Y-95380000D02*
X176390000Y-87980000D01*
X176180000Y-95590000D02*
X176390000Y-95380000D01*
X176390000Y-87980000D02*
X176755000Y-87615000D01*
X176755000Y-87615000D02*
X178810000Y-87615000D01*
X145080000Y-90320000D02*
X145600000Y-89800000D01*
X148940000Y-81700000D02*
X148950000Y-81710000D01*
X146200000Y-81710000D02*
X146210000Y-80090000D01*
D46*
X154150000Y-69450000D02*
X156030000Y-69450000D01*
X156030000Y-69450000D02*
X156470000Y-69890000D01*
D43*
X156470000Y-74290000D02*
X158250000Y-74290000D01*
D47*
X145080000Y-90320000D02*
X145600000Y-89800000D01*
D43*
X125300000Y-70045000D02*
X126465000Y-70045000D01*
X127280000Y-71200000D02*
X129275000Y-71200000D01*
X126950000Y-70870000D02*
X127280000Y-71200000D01*
X126950000Y-70530000D02*
X126950000Y-70870000D01*
X126465000Y-70045000D02*
X126950000Y-70530000D01*
X114970000Y-79230000D02*
X115290000Y-79230000D01*
X115290000Y-79230000D02*
X115350000Y-79170000D01*
D44*
X114620000Y-79210000D02*
X115210000Y-79800000D01*
D43*
X160190000Y-66250000D02*
X160190000Y-66940000D01*
D44*
X115210000Y-79800000D02*
X115320000Y-79800000D01*
D43*
X160190000Y-66940000D02*
X160550000Y-67300000D01*
X110440000Y-92830000D02*
X110450000Y-92820000D01*
X118730000Y-98020000D02*
X118730000Y-102250000D01*
X118730000Y-102250000D02*
X117825000Y-103155000D01*
X118340000Y-97630000D02*
X118730000Y-98020000D01*
X110440000Y-94240000D02*
X110440000Y-92830000D01*
X115350000Y-79170000D02*
X115350000Y-75925000D01*
X112170000Y-81990000D02*
X112170000Y-81050000D01*
X113670000Y-80200000D02*
X113670000Y-79210000D01*
X113460000Y-80410000D02*
X113670000Y-80200000D01*
X112810000Y-80410000D02*
X113460000Y-80410000D01*
X112170000Y-81050000D02*
X112810000Y-80410000D01*
X160550000Y-67300000D02*
X161500000Y-67300000D01*
X163700000Y-70050000D02*
X166050000Y-70050000D01*
X117825000Y-103155000D02*
X116660000Y-103155000D01*
X116390000Y-97630000D02*
X118340000Y-97630000D01*
D44*
X113670000Y-79210000D02*
X114620000Y-79210000D01*
X115320000Y-79800000D02*
X116300000Y-79800000D01*
D43*
X124555000Y-66480000D02*
X124555000Y-64935000D01*
X124150000Y-64530000D02*
X122750000Y-64530000D01*
X124555000Y-64935000D02*
X124150000Y-64530000D01*
X124555000Y-66480000D02*
X124555000Y-65015000D01*
X130340000Y-65970000D02*
X132120000Y-65970000D01*
X128880000Y-64510000D02*
X130340000Y-65970000D01*
X125060000Y-64510000D02*
X128880000Y-64510000D01*
X124555000Y-65015000D02*
X125060000Y-64510000D01*
X134230000Y-66710000D02*
X134230000Y-66050000D01*
X134230000Y-66050000D02*
X134150000Y-65970000D01*
X134150000Y-65970000D02*
X132120000Y-65970000D01*
D44*
X121950000Y-66480000D02*
X124555000Y-66480000D01*
D43*
X113110000Y-94310000D02*
X113110000Y-92990000D01*
X113110000Y-92990000D02*
X113100000Y-92980000D01*
X171450000Y-70050000D02*
X173050000Y-70050000D01*
X173050000Y-70050000D02*
X173290000Y-70290000D01*
X173290000Y-70290000D02*
X173290000Y-71320000D01*
X123770000Y-97740000D02*
X125760000Y-97740000D01*
X125760000Y-97740000D02*
X125780000Y-97760000D01*
D44*
X122060000Y-99345000D02*
X125275000Y-99345000D01*
X125780000Y-98840000D02*
X125780000Y-97760000D01*
X125275000Y-99345000D02*
X125780000Y-98840000D01*
D43*
X173290000Y-71310000D02*
X174780000Y-71310000D01*
X174780000Y-71310000D02*
X174800000Y-71330000D01*
X174760000Y-71320000D02*
X174800000Y-71360000D01*
X173050000Y-70050000D02*
X173290000Y-70290000D01*
X173290000Y-70290000D02*
X173290000Y-71310000D01*
X173290000Y-71310000D02*
X173290000Y-71320000D01*
D46*
X93370000Y-73650000D02*
X93370000Y-74170000D01*
X93370000Y-74170000D02*
X93410000Y-74210000D01*
X93410000Y-74210000D02*
X94980000Y-74210000D01*
D43*
X96535000Y-84110000D02*
X96535000Y-82605000D01*
X99570000Y-79570000D02*
X99570000Y-78510000D01*
X96535000Y-82605000D02*
X99570000Y-79570000D01*
X94980000Y-74210000D02*
X98620000Y-74210000D01*
X99570000Y-75160000D02*
X99570000Y-78510000D01*
X98620000Y-74210000D02*
X99570000Y-75160000D01*
X121900000Y-83180000D02*
X123190000Y-84470000D01*
X128960000Y-88720000D02*
X132360000Y-88720000D01*
X126370000Y-86130000D02*
X128960000Y-88720000D01*
X126370000Y-84960000D02*
X126370000Y-86130000D01*
X125880000Y-84470000D02*
X126370000Y-84960000D01*
X123190000Y-84470000D02*
X125880000Y-84470000D01*
X132360000Y-87920000D02*
X133590000Y-87920000D01*
X134200000Y-88530000D02*
X135270000Y-88530000D01*
X133590000Y-87920000D02*
X134200000Y-88530000D01*
X168200000Y-96860000D02*
X169805000Y-96860000D01*
X135265000Y-88525000D02*
X135270000Y-88530000D01*
X124440000Y-80640000D02*
X125370000Y-80640000D01*
X125370000Y-80640000D02*
X127280000Y-82550000D01*
X127280000Y-82550000D02*
X127280000Y-85780000D01*
X127280000Y-85780000D02*
X129420000Y-87920000D01*
X129420000Y-87920000D02*
X132360000Y-87920000D01*
X169805000Y-96860000D02*
X169810000Y-96865000D01*
X169810000Y-96875000D02*
X176245000Y-96865000D01*
X177465000Y-88885000D02*
X178810000Y-88885000D01*
X177210000Y-89140000D02*
X177465000Y-88885000D01*
X177210000Y-95900000D02*
X177210000Y-89140000D01*
X176245000Y-96865000D02*
X177210000Y-95900000D01*
D47*
X135265000Y-88525000D02*
X135270000Y-88530000D01*
D43*
X143040000Y-77390000D02*
X141300000Y-77390000D01*
X141300000Y-77390000D02*
X139660000Y-79030000D01*
X139660000Y-84620000D02*
X139660000Y-79030000D01*
X143030000Y-76520000D02*
X143030000Y-77380000D01*
X143030000Y-77380000D02*
X143040000Y-77390000D01*
X134060000Y-84620000D02*
X134060000Y-87080000D01*
X131670000Y-84330000D02*
X132590000Y-84330000D01*
X132880000Y-84620000D02*
X134060000Y-84620000D01*
X132590000Y-84330000D02*
X132880000Y-84620000D01*
D46*
X154150000Y-69950000D02*
X152400000Y-69950000D01*
X152400000Y-69950000D02*
X152250000Y-69800000D01*
D47*
X152250000Y-69800000D02*
X152400000Y-69950000D01*
D43*
X134860000Y-84620000D02*
X134860000Y-85960000D01*
X134860000Y-85960000D02*
X135960000Y-87060000D01*
D46*
X154150000Y-70450000D02*
X155600000Y-70450000D01*
D43*
X131670000Y-82240000D02*
X133600000Y-82240000D01*
X134860000Y-83500000D02*
X134860000Y-84620000D01*
X133600000Y-82240000D02*
X134860000Y-83500000D01*
X110380000Y-91380000D02*
X111700000Y-91380000D01*
X111700000Y-91380000D02*
X111710000Y-91390000D01*
X109210000Y-91380000D02*
X110380000Y-91380000D01*
D44*
X132360000Y-94320000D02*
X135520000Y-94320000D01*
X135520000Y-94320000D02*
X135550000Y-94350000D01*
D47*
X135550000Y-94350000D02*
X135520000Y-94320000D01*
D43*
X110300000Y-88350000D02*
X109210000Y-88350000D01*
X109210000Y-88350000D02*
X109170000Y-88390000D01*
X111710000Y-88410000D02*
X110360000Y-88410000D01*
X110360000Y-88410000D02*
X110300000Y-88350000D01*
D44*
X132360000Y-93520000D02*
X134380000Y-93520000D01*
X134380000Y-93520000D02*
X134650000Y-93250000D01*
D47*
X134380000Y-93520000D02*
X134650000Y-93250000D01*
D43*
X130575000Y-85775000D02*
X131120000Y-86320000D01*
X131120000Y-86320000D02*
X132360000Y-86320000D01*
X181100000Y-90140000D02*
X181085000Y-90155000D01*
X181085000Y-90155000D02*
X178810000Y-90155000D01*
X168170000Y-98150000D02*
X169795000Y-98150000D01*
X169795000Y-98150000D02*
X169810000Y-98135000D01*
D44*
X172210000Y-107430000D02*
X172210000Y-105410000D01*
X172210000Y-105410000D02*
X172150000Y-105350000D01*
D43*
X172210000Y-105410000D02*
X172150000Y-105350000D01*
X139660000Y-94600000D02*
X139070000Y-94010000D01*
X139660000Y-94600000D02*
X139660000Y-96020000D01*
D44*
X174790000Y-105310000D02*
X174790000Y-107380000D01*
X174790000Y-107380000D02*
X174760000Y-107410000D01*
D43*
X174760000Y-105286452D02*
X174760000Y-107410000D01*
X174760000Y-105286452D02*
X174810000Y-105330000D01*
X174810000Y-105330000D02*
X174790000Y-105310000D01*
X140460000Y-93580000D02*
X140010000Y-93130000D01*
X140460000Y-93580000D02*
X140460000Y-96020000D01*
D44*
X177290000Y-107410000D02*
X177290000Y-105340000D01*
X177290000Y-105340000D02*
X177210000Y-105260000D01*
D43*
X141260000Y-96020000D02*
X141260000Y-94750000D01*
X141260000Y-94750000D02*
X141830000Y-94180000D01*
D44*
X177210000Y-107330000D02*
X177290000Y-107410000D01*
X177230000Y-107350000D02*
X177290000Y-107410000D01*
X179830000Y-107390000D02*
X179830000Y-105280000D01*
D43*
X142060000Y-96020000D02*
X143460000Y-96020000D01*
X143460000Y-96020000D02*
X143880000Y-96440000D01*
X121900000Y-80640000D02*
X121900000Y-80460000D01*
X121900000Y-80460000D02*
X123000000Y-79360000D01*
X123000000Y-79360000D02*
X125460000Y-79360000D01*
X125460000Y-79360000D02*
X128240000Y-82140000D01*
X128240000Y-82140000D02*
X128240000Y-85460000D01*
X128240000Y-85460000D02*
X129900000Y-87120000D01*
X129900000Y-87120000D02*
X132360000Y-87120000D01*
X171450000Y-73860000D02*
X174790000Y-73860000D01*
X174790000Y-73860000D02*
X174800000Y-73870000D01*
X171460000Y-73870000D02*
X171450000Y-73860000D01*
X166640000Y-63240000D02*
X166640000Y-62750000D01*
X167140000Y-62780000D02*
X167140000Y-64300000D01*
X169120000Y-65350000D02*
X169120000Y-67050000D01*
X168340000Y-64570000D02*
X169120000Y-65350000D01*
X167410000Y-64570000D02*
X168340000Y-64570000D01*
X167140000Y-64300000D02*
X167410000Y-64570000D01*
X167140000Y-62780000D02*
X167140000Y-63370000D01*
X168480000Y-67690000D02*
X169120000Y-67050000D01*
X167090000Y-73860000D02*
X168480000Y-72470000D01*
X166050000Y-73860000D02*
X167090000Y-73860000D01*
X168480000Y-72470000D02*
X168480000Y-67690000D01*
X163090000Y-74290000D02*
X164230000Y-74290000D01*
X164230000Y-74290000D02*
X164660000Y-73860000D01*
X164660000Y-73860000D02*
X166050000Y-73860000D01*
X166050000Y-73860000D02*
X164660000Y-73860000D01*
D47*
X166110000Y-73800000D02*
X166050000Y-73860000D01*
D43*
X172220000Y-62780000D02*
X172220000Y-64060000D01*
X173400000Y-65240000D02*
X173400000Y-66230000D01*
X172220000Y-64060000D02*
X173400000Y-65240000D01*
X174850000Y-66230000D02*
X173400000Y-66230000D01*
X173400000Y-66230000D02*
X171460000Y-66230000D01*
X171460000Y-66230000D02*
X171450000Y-66240000D01*
D44*
X157050000Y-111030000D02*
X157050000Y-109910000D01*
X157050000Y-109910000D02*
X156000000Y-108860000D01*
X131160000Y-106390000D02*
X132690000Y-106390000D01*
X135160000Y-108860000D02*
X156000000Y-108860000D01*
X132690000Y-106390000D02*
X135160000Y-108860000D01*
X128270000Y-102580000D02*
X131160000Y-102580000D01*
X128180000Y-102670000D02*
X128270000Y-102580000D01*
D46*
X158550000Y-70950000D02*
X160860000Y-70950000D01*
X160860000Y-70950000D02*
X161550000Y-71640000D01*
D43*
X171450000Y-72590000D02*
X169830000Y-72590000D01*
X169830000Y-72590000D02*
X169760000Y-72660000D01*
X170460000Y-75770000D02*
X174800000Y-75770000D01*
X169760000Y-75070000D02*
X170460000Y-75770000D01*
X169760000Y-72660000D02*
X169760000Y-75070000D01*
X174800000Y-75770000D02*
X174800000Y-78230000D01*
D44*
X179930000Y-66780000D02*
X179930000Y-73570000D01*
X179930000Y-73570000D02*
X178680000Y-74820000D01*
X178680000Y-74820000D02*
X176800000Y-74820000D01*
D43*
X176800000Y-74820000D02*
X178680000Y-74820000D01*
X178680000Y-74820000D02*
X179930000Y-73570000D01*
D44*
X167210000Y-111030000D02*
X167210000Y-108060000D01*
X167210000Y-108060000D02*
X165560000Y-106410000D01*
X136560000Y-107660000D02*
X141130000Y-107660000D01*
X145810000Y-106410000D02*
X165560000Y-106410000D01*
X145430000Y-106030000D02*
X145810000Y-106410000D01*
X145430000Y-105460000D02*
X145430000Y-106030000D01*
X144550000Y-104580000D02*
X145430000Y-105460000D01*
X143030000Y-104580000D02*
X144550000Y-104580000D01*
X142040000Y-105570000D02*
X143030000Y-104580000D01*
X142040000Y-106750000D02*
X142040000Y-105570000D01*
X141130000Y-107660000D02*
X142040000Y-106750000D01*
X162130000Y-111030000D02*
X162130000Y-108820000D01*
X162130000Y-108820000D02*
X161020000Y-107710000D01*
X138580000Y-103850000D02*
X136560000Y-103850000D01*
X145240000Y-107710000D02*
X143750000Y-106220000D01*
X161020000Y-107710000D02*
X145240000Y-107710000D01*
D43*
X143070000Y-80100000D02*
X142060000Y-80100000D01*
X142060000Y-80100000D02*
X141980000Y-80180000D01*
X141980000Y-80180000D02*
X141550000Y-80180000D01*
X141550000Y-80180000D02*
X141260000Y-80470000D01*
X141260000Y-80470000D02*
X141260000Y-84620000D01*
X127140000Y-88330000D02*
X128330000Y-89520000D01*
X128330000Y-89520000D02*
X132360000Y-89520000D01*
X174790000Y-67800000D02*
X174820000Y-67800000D01*
X174820000Y-67800000D02*
X175110000Y-67510000D01*
X176350000Y-66230000D02*
X176350000Y-67310000D01*
X176350000Y-67310000D02*
X176150000Y-67510000D01*
X176150000Y-67510000D02*
X175110000Y-67510000D01*
X175110000Y-67510000D02*
X174530000Y-67510000D01*
X174790000Y-68930000D02*
X174790000Y-67800000D01*
X174790000Y-67800000D02*
X174790000Y-67770000D01*
X174790000Y-67770000D02*
X174530000Y-67510000D01*
X171450000Y-67510000D02*
X174530000Y-67510000D01*
X147210000Y-101350000D02*
X147020000Y-101350000D01*
X147020000Y-101350000D02*
X146800000Y-101130000D01*
X148240000Y-96110000D02*
X147370000Y-96110000D01*
X146800000Y-96680000D02*
X146800000Y-101130000D01*
X147370000Y-96110000D02*
X146800000Y-96680000D01*
X148210000Y-101350000D02*
X147210000Y-101350000D01*
X147210000Y-101350000D02*
X147120000Y-101350000D01*
X147120000Y-101350000D02*
X146800000Y-101670000D01*
X146800000Y-101670000D02*
X146800000Y-102160000D01*
X165460000Y-102760000D02*
X166500000Y-101720000D01*
X147400000Y-102760000D02*
X165460000Y-102760000D01*
X146800000Y-102160000D02*
X147400000Y-102760000D01*
X164410000Y-96865000D02*
X166185000Y-96865000D01*
X166185000Y-96865000D02*
X166500000Y-97180000D01*
X166500000Y-97180000D02*
X166500000Y-101720000D01*
X146800000Y-101130000D02*
X146800000Y-101670000D01*
X165035000Y-96865000D02*
X164410000Y-96875000D01*
X113210000Y-91390000D02*
X114800000Y-91390000D01*
X114800000Y-91390000D02*
X115990000Y-92580000D01*
X113210000Y-88410000D02*
X115980000Y-88410000D01*
D44*
X105425000Y-93510000D02*
X105425000Y-91875000D01*
X105425000Y-91875000D02*
X105920000Y-91380000D01*
X105920000Y-91380000D02*
X107710000Y-91380000D01*
X104155000Y-84110000D02*
X104155000Y-86865000D01*
X105680000Y-88390000D02*
X107670000Y-88390000D01*
X104155000Y-86865000D02*
X105680000Y-88390000D01*
D45*
X109950000Y-73690000D02*
X109950000Y-75725000D01*
D43*
X109590000Y-80740000D02*
X109590000Y-81020000D01*
X108650000Y-79800000D02*
X109590000Y-80740000D01*
X107750000Y-79800000D02*
X108650000Y-79800000D01*
X119900000Y-73855000D02*
X118245000Y-73855000D01*
X118245000Y-73855000D02*
X118080000Y-73690000D01*
X109940000Y-75715000D02*
X109950000Y-75725000D01*
X109950000Y-73690000D02*
X109940000Y-73700000D01*
D44*
X109950000Y-75725000D02*
X109950000Y-77840000D01*
X111320000Y-79210000D02*
X112170000Y-79210000D01*
X109950000Y-77840000D02*
X111320000Y-79210000D01*
X106785000Y-82945000D02*
X108135000Y-82945000D01*
X108375000Y-83185000D02*
X108375000Y-84950000D01*
X108135000Y-82945000D02*
X108375000Y-83185000D01*
X105550000Y-80750000D02*
X105550000Y-81710000D01*
X105550000Y-81710000D02*
X106785000Y-82945000D01*
X108375000Y-84535000D02*
X108375000Y-84950000D01*
D43*
X138860000Y-96020000D02*
X138860000Y-97170000D01*
X141930000Y-97920000D02*
X141930000Y-98840000D01*
X141770000Y-97760000D02*
X141930000Y-97920000D01*
X139450000Y-97760000D02*
X141770000Y-97760000D01*
X138860000Y-97170000D02*
X139450000Y-97760000D01*
X129480000Y-73180000D02*
X131040000Y-73180000D01*
X131040000Y-73180000D02*
X131900000Y-72320000D01*
X134325000Y-71200000D02*
X133020000Y-71200000D01*
X133020000Y-71200000D02*
X131900000Y-72320000D01*
X125300000Y-72585000D02*
X126575000Y-72585000D01*
X126575000Y-72585000D02*
X127170000Y-73180000D01*
X127170000Y-73180000D02*
X129480000Y-73180000D01*
D44*
X119900000Y-70045000D02*
X118835000Y-70045000D01*
X117515000Y-68725000D02*
X117515000Y-66480000D01*
X118835000Y-70045000D02*
X117515000Y-68725000D01*
X120450000Y-66480000D02*
X117515000Y-66480000D01*
X136230000Y-65760000D02*
X144660000Y-65760000D01*
X145390000Y-66490000D02*
X145390000Y-68240000D01*
X144660000Y-65760000D02*
X145390000Y-66490000D01*
D43*
X155840000Y-85160000D02*
X154880000Y-85160000D01*
X154880000Y-85160000D02*
X154720000Y-85000000D01*
X154720000Y-87270000D02*
X155390000Y-87270000D01*
X155390000Y-87270000D02*
X159555000Y-91435000D01*
X153130000Y-82695000D02*
X154135000Y-82695000D01*
X154720000Y-83280000D02*
X154720000Y-84390000D01*
X154135000Y-82695000D02*
X154720000Y-83280000D01*
X154720000Y-84390000D02*
X154720000Y-85000000D01*
X154720000Y-85000000D02*
X154720000Y-87270000D01*
X154720000Y-87270000D02*
X154720000Y-87230000D01*
X159555000Y-91435000D02*
X164370000Y-91435000D01*
D47*
X156045000Y-99415000D02*
X156050000Y-99410000D01*
X156080000Y-99415121D02*
X156045000Y-99415000D01*
D43*
X156080000Y-99415121D02*
X154380121Y-99415121D01*
X154370000Y-99405000D02*
X154370000Y-101310000D01*
X154380121Y-99415121D02*
X154370000Y-99405000D01*
X164370000Y-91435000D02*
X165665000Y-91435000D01*
X165665000Y-91435000D02*
X166300000Y-92070000D01*
X166300000Y-92070000D02*
X166300000Y-93150000D01*
X166300000Y-93150000D02*
X166690000Y-93540000D01*
X166690000Y-93540000D02*
X167670000Y-93540000D01*
X153135000Y-82700000D02*
X153130000Y-82695000D01*
X160290000Y-87500000D02*
X161990000Y-87500000D01*
X161990000Y-87500000D02*
X162910000Y-87500000D01*
X162910000Y-87500000D02*
X163035000Y-87625000D01*
X163035000Y-87625000D02*
X164370000Y-87625000D01*
X174800000Y-85130000D02*
X173650000Y-85130000D01*
X172090000Y-83570000D02*
X167360000Y-83570000D01*
X173650000Y-85130000D02*
X172090000Y-83570000D01*
X166060000Y-86510000D02*
X166060000Y-86090000D01*
X166910000Y-85240000D02*
X166910000Y-84020000D01*
X166060000Y-86090000D02*
X166910000Y-85240000D01*
X167360000Y-83570000D02*
X166910000Y-84020000D01*
X164370000Y-87625000D02*
X165725000Y-87625000D01*
X165725000Y-87625000D02*
X166060000Y-87290000D01*
X166060000Y-87290000D02*
X166060000Y-86510000D01*
X164370000Y-88895000D02*
X163145000Y-88895000D01*
X163145000Y-88895000D02*
X163040000Y-89000000D01*
X163040000Y-89000000D02*
X161990000Y-89000000D01*
X160290000Y-89000000D02*
X161990000Y-89000000D01*
X160290000Y-89000000D02*
X159650000Y-89000000D01*
X159650000Y-89000000D02*
X158770000Y-88120000D01*
X158770000Y-88120000D02*
X158770000Y-85470000D01*
X158770000Y-85470000D02*
X159080000Y-85160000D01*
X159080000Y-85160000D02*
X159820000Y-85160000D01*
X118300000Y-78850000D02*
X118300000Y-77640000D01*
X118300000Y-77640000D02*
X119440000Y-76500000D01*
X159770000Y-95595000D02*
X161905000Y-95595000D01*
X161905000Y-95595000D02*
X162170000Y-95860000D01*
X162170000Y-95860000D02*
X162170000Y-94890000D01*
X161430000Y-93540000D02*
X162360000Y-93540000D01*
X162360000Y-93540000D02*
X162720000Y-93900000D01*
X162720000Y-93900000D02*
X162720000Y-94340000D01*
X162720000Y-94340000D02*
X162170000Y-94890000D01*
X169770000Y-85160000D02*
X169770000Y-87625000D01*
X169780000Y-87615000D02*
X169770000Y-87625000D01*
X159830000Y-78590000D02*
X159830000Y-78720000D01*
X159830000Y-78720000D02*
X159665000Y-78885000D01*
X159830000Y-76720000D02*
X159830000Y-78590000D01*
X159830000Y-78590000D02*
X160125000Y-78885000D01*
X158530000Y-78885000D02*
X159665000Y-78885000D01*
X159665000Y-78885000D02*
X160125000Y-78885000D01*
X160125000Y-78885000D02*
X161165000Y-78885000D01*
X161425000Y-79145000D02*
X162210000Y-79690000D01*
X161165000Y-78885000D02*
X161425000Y-79145000D01*
X162160000Y-95850000D02*
X162170000Y-95860000D01*
X162170000Y-95090000D02*
X162160000Y-95850000D01*
X168120000Y-87620000D02*
X169765000Y-87620000D01*
X169765000Y-87620000D02*
X169770000Y-87625000D01*
X162205000Y-79685000D02*
X162210000Y-79690000D01*
X168120000Y-87620000D02*
X168670000Y-87625000D01*
X168670000Y-87625000D02*
X168675000Y-87620000D01*
D47*
X168125000Y-87615000D02*
X168675000Y-87620000D01*
X168120000Y-87620000D02*
X168125000Y-87615000D01*
X162205000Y-79685000D02*
X162210000Y-79690000D01*
D43*
X149740000Y-96110000D02*
X149740000Y-97170000D01*
X148220000Y-97700000D02*
X148220000Y-98800000D01*
X148280000Y-97640000D02*
X148220000Y-97700000D01*
X149270000Y-97640000D02*
X148280000Y-97640000D01*
X149740000Y-97170000D02*
X149270000Y-97640000D01*
X149740000Y-96110000D02*
X150230000Y-96110000D01*
X150980000Y-95360000D02*
X151610000Y-95360000D01*
X150230000Y-96110000D02*
X150980000Y-95360000D01*
X151610000Y-95360000D02*
X152520000Y-95360000D01*
X152755000Y-95595000D02*
X154370000Y-95595000D01*
X152520000Y-95360000D02*
X152755000Y-95595000D01*
X151610000Y-95561602D02*
X151610000Y-95360000D01*
X154370000Y-96865000D02*
X155855000Y-96865000D01*
X155960000Y-96760000D02*
X155960000Y-94000000D01*
X155855000Y-96865000D02*
X155960000Y-96760000D01*
X149720000Y-98800000D02*
X151240000Y-98800000D01*
X151610000Y-98430000D02*
X151610000Y-96860000D01*
X151240000Y-98800000D02*
X151610000Y-98430000D01*
X151610000Y-96860000D02*
X154365000Y-96860000D01*
X154365000Y-96860000D02*
X154370000Y-96865000D01*
X131760000Y-96180000D02*
X133080000Y-97500000D01*
X133080000Y-97500000D02*
X133880000Y-97500000D01*
X133880000Y-97500000D02*
X134060000Y-97320000D01*
X134060000Y-97320000D02*
X134060000Y-96020000D01*
X131760000Y-96180000D02*
X133080000Y-97500000D01*
X133080000Y-97500000D02*
X133880000Y-97500000D01*
X133880000Y-97500000D02*
X134060000Y-97320000D01*
X146210000Y-76520000D02*
X146210000Y-77410000D01*
X146210000Y-77410000D02*
X146200000Y-77420000D01*
X168150000Y-91410000D02*
X169745000Y-91410000D01*
X146210000Y-77410000D02*
X146200000Y-77420000D01*
X146210000Y-77410000D02*
X146200000Y-77420000D01*
X159770000Y-99405000D02*
X158445000Y-99405000D01*
X158445000Y-99405000D02*
X157890000Y-98850000D01*
X157890000Y-98850000D02*
X157890000Y-95500000D01*
X157890000Y-98850000D02*
X158445000Y-99405000D01*
X169745000Y-91410000D02*
X169770000Y-91435000D01*
X146220000Y-77400000D02*
X146200000Y-77420000D01*
X146210000Y-78590000D02*
X146210000Y-77430000D01*
X146210000Y-77430000D02*
X146200000Y-77420000D01*
X146220000Y-77400000D02*
X146200000Y-77420000D01*
X146220000Y-77400000D02*
X146220000Y-78580000D01*
X146220000Y-78580000D02*
X146210000Y-78590000D01*
X146220000Y-77400000D02*
X146200000Y-77420000D01*
X157970000Y-65140000D02*
X161480000Y-65140000D01*
X161480000Y-65140000D02*
X161480000Y-66240000D01*
X164920000Y-67510000D02*
X166050000Y-67510000D01*
X163710000Y-66300000D02*
X164920000Y-67510000D01*
X161540000Y-66300000D02*
X163710000Y-66300000D01*
X161480000Y-66240000D02*
X161540000Y-66300000D01*
D46*
X161450000Y-65110000D02*
X161480000Y-65140000D01*
D43*
X162980000Y-65140000D02*
X163660000Y-65140000D01*
X164760000Y-66240000D02*
X166050000Y-66240000D01*
X163660000Y-65140000D02*
X164760000Y-66240000D01*
X171450000Y-68780000D02*
X173060000Y-68780000D01*
X166050000Y-66240000D02*
X167620000Y-66240000D01*
D46*
X149050000Y-69890000D02*
X150330000Y-69890000D01*
X151390000Y-70950000D02*
X154150000Y-70950000D01*
X150330000Y-69890000D02*
X151390000Y-70950000D01*
D43*
X160630000Y-74290000D02*
X160630000Y-73260000D01*
X161300000Y-72590000D02*
X166050000Y-72590000D01*
X160630000Y-73260000D02*
X161300000Y-72590000D01*
X159750000Y-74290000D02*
X160630000Y-74290000D01*
X160630000Y-74290000D02*
X161590000Y-74290000D01*
X131160000Y-101310000D02*
X132290000Y-101310000D01*
X134860000Y-97860000D02*
X134860000Y-96020000D01*
X132890000Y-99830000D02*
X134860000Y-97860000D01*
X132890000Y-100710000D02*
X132890000Y-99830000D01*
X132290000Y-101310000D02*
X132890000Y-100710000D01*
X134020000Y-103540000D02*
X134020000Y-100160000D01*
X134020000Y-100160000D02*
X134010000Y-100150000D01*
X134010000Y-100150000D02*
X135660000Y-98500000D01*
X131160000Y-105120000D02*
X132440000Y-105120000D01*
X132440000Y-105120000D02*
X134020000Y-103540000D01*
X135660000Y-98500000D02*
X135660000Y-96020000D01*
X144680000Y-86320000D02*
X145130000Y-85870000D01*
X145130000Y-85870000D02*
X145130000Y-85220000D01*
X143760000Y-86320000D02*
X144680000Y-86320000D01*
X173370000Y-86430000D02*
X173410000Y-86650000D01*
X173410000Y-86650000D02*
X173410000Y-87615000D01*
X143770000Y-86310000D02*
X143760000Y-86320000D01*
X143760000Y-88720000D02*
X145670000Y-88720000D01*
X145670000Y-88720000D02*
X147070000Y-87320000D01*
X152370000Y-88500000D02*
X155350000Y-88500000D01*
X155350000Y-88500000D02*
X159210000Y-92360000D01*
X147070000Y-87320000D02*
X151190000Y-87320000D01*
X151190000Y-87320000D02*
X152370000Y-88500000D01*
X159210000Y-92360000D02*
X162850000Y-92360000D01*
X162850000Y-92360000D02*
X164410000Y-93920000D01*
X164410000Y-93920000D02*
X164410000Y-95595000D01*
D47*
X143850000Y-88810000D02*
X143760000Y-88720000D01*
D43*
X148950000Y-83210000D02*
X149940000Y-83210000D01*
X152040000Y-84320000D02*
X152040000Y-85140000D01*
X151600000Y-83880000D02*
X152040000Y-84320000D01*
X150610000Y-83880000D02*
X151600000Y-83880000D01*
X149940000Y-83210000D02*
X150610000Y-83880000D01*
X143760000Y-87920000D02*
X145310000Y-87920000D01*
X152040000Y-86030000D02*
X152040000Y-85140000D01*
X151590000Y-86480000D02*
X152040000Y-86030000D01*
X146750000Y-86480000D02*
X151590000Y-86480000D01*
X145310000Y-87920000D02*
X146750000Y-86480000D01*
X158530000Y-81425000D02*
X159785000Y-81425000D01*
X160785000Y-82425000D02*
X161425000Y-82425000D01*
X159785000Y-81425000D02*
X160785000Y-82425000D01*
X161425000Y-82425000D02*
X163385000Y-82425000D01*
X163385000Y-82425000D02*
X163390000Y-82420000D01*
X138860000Y-84620000D02*
X138860000Y-86000000D01*
X139160000Y-86300000D02*
X140550000Y-86300000D01*
X138860000Y-86000000D02*
X139160000Y-86300000D01*
X165350000Y-76730000D02*
X165360000Y-80070000D01*
X163310000Y-76730000D02*
X165350000Y-76730000D01*
X134650000Y-79200000D02*
X134640000Y-79210000D01*
X136460000Y-84620000D02*
X136460000Y-82960000D01*
X135290000Y-81790000D02*
X135290000Y-79210000D01*
X136460000Y-82960000D02*
X135290000Y-81790000D01*
X135290000Y-76440000D02*
X135290000Y-79210000D01*
X134640000Y-78640000D02*
X134650000Y-78650000D01*
D46*
X136450000Y-84610000D02*
X136460000Y-84620000D01*
D43*
X143760000Y-87120000D02*
X144940000Y-87120000D01*
X146200000Y-85860000D02*
X146200000Y-85140000D01*
X144940000Y-87120000D02*
X146200000Y-85860000D01*
X148200000Y-85140000D02*
X146200000Y-85140000D01*
X146200000Y-83210000D02*
X146200000Y-85140000D01*
D46*
X158550000Y-69950000D02*
X162440000Y-69950000D01*
X163610000Y-68780000D02*
X166050000Y-68780000D01*
X162440000Y-69950000D02*
X163610000Y-68780000D01*
X158550000Y-70450000D02*
X162360000Y-70450000D01*
X163230000Y-71320000D02*
X166050000Y-71320000D01*
X162360000Y-70450000D02*
X163230000Y-71320000D01*
X158550000Y-71450000D02*
X157260000Y-71450000D01*
X157260000Y-71450000D02*
X157150000Y-71560000D01*
X157150000Y-72410000D02*
X157400000Y-72660000D01*
X157150000Y-71560000D02*
X157150000Y-72410000D01*
X157400000Y-72660000D02*
X158330000Y-72660000D01*
D47*
X169900000Y-71320000D02*
X171450000Y-71320000D01*
D43*
X94390000Y-108490000D02*
X97740000Y-108490000D01*
X99220000Y-107010000D02*
X100850000Y-107010000D01*
X97740000Y-108490000D02*
X99220000Y-107010000D01*
D44*
X100830000Y-106990000D02*
X100850000Y-107010000D01*
X100840000Y-107000000D02*
X100850000Y-107010000D01*
D43*
X104120000Y-104530000D02*
X104120000Y-103640000D01*
X104120000Y-103640000D02*
X105890000Y-101870000D01*
X107690000Y-101870000D02*
X105890000Y-101870000D01*
X107690000Y-101870000D02*
X107690000Y-104520000D01*
X102330000Y-104530000D02*
X104120000Y-104530000D01*
X109190000Y-101870000D02*
X111470000Y-101870000D01*
X111470000Y-101870000D02*
X111480000Y-101880000D01*
X111480000Y-101880000D02*
X111480000Y-101050000D01*
X111915000Y-100615000D02*
X116660000Y-100615000D01*
X111480000Y-101050000D02*
X111915000Y-100615000D01*
X109300000Y-107010000D02*
X111460000Y-107010000D01*
X110420000Y-106830000D02*
X110420000Y-107740000D01*
X110420000Y-107740000D02*
X111450000Y-108770000D01*
X110420000Y-104530000D02*
X110420000Y-106830000D01*
X110420000Y-106830000D02*
X110420000Y-106940000D01*
X110420000Y-106940000D02*
X110490000Y-107010000D01*
X110420000Y-104530000D02*
X111440000Y-104530000D01*
X111460000Y-109850000D02*
X111460000Y-109320000D01*
X111460000Y-109320000D02*
X111450000Y-109310000D01*
X111450000Y-109310000D02*
X111450000Y-108770000D01*
X111460000Y-107010000D02*
X110490000Y-107010000D01*
X104970000Y-107007841D02*
X102352159Y-107007841D01*
X102352159Y-107007841D02*
X102350000Y-107010000D01*
X104970000Y-107007841D02*
X104960000Y-107010000D01*
X137260000Y-96020000D02*
X137260000Y-97500000D01*
X137260000Y-97500000D02*
X139770000Y-100010000D01*
X136560000Y-106390000D02*
X138520000Y-106390000D01*
X138520000Y-106390000D02*
X138530000Y-106380000D01*
X138530000Y-106380000D02*
X138830000Y-106080000D01*
X138830000Y-106080000D02*
X138850000Y-106080000D01*
X138850000Y-106080000D02*
X139770000Y-105160000D01*
X139770000Y-105160000D02*
X139770000Y-100010000D01*
X137260000Y-97390000D02*
X137260000Y-96020000D01*
D47*
X138830000Y-106080000D02*
X138830000Y-106100000D01*
D46*
X137260000Y-96020000D02*
X137260000Y-97390000D01*
X138530000Y-106400000D02*
X136350000Y-106400000D01*
X138830000Y-106100000D02*
X138530000Y-106400000D01*
X94980000Y-74860000D02*
X93830000Y-74860000D01*
X93830000Y-74860000D02*
X93400000Y-75290000D01*
X93400000Y-75290000D02*
X93400000Y-75940000D01*
D43*
X98450000Y-75470000D02*
X98450000Y-75360000D01*
X98450000Y-75360000D02*
X97950000Y-74860000D01*
X98450000Y-79020000D02*
X98450000Y-75470000D01*
X95265000Y-84110000D02*
X95265000Y-82225000D01*
X98450000Y-79040000D02*
X98450000Y-79020000D01*
X95265000Y-82225000D02*
X98450000Y-79040000D01*
X94980000Y-74860000D02*
X97950000Y-74860000D01*
X132360000Y-92720000D02*
X128680000Y-92720000D01*
X128520000Y-92880000D02*
X128520000Y-94340000D01*
X128680000Y-92720000D02*
X128520000Y-92880000D01*
D46*
X132330000Y-92690000D02*
X132360000Y-92720000D01*
D43*
X163720000Y-85160000D02*
X163720000Y-84190000D01*
X166060000Y-80940000D02*
X167250000Y-80940000D01*
X165160000Y-81840000D02*
X166060000Y-80940000D01*
X165160000Y-82750000D02*
X165160000Y-81840000D01*
X163720000Y-84190000D02*
X165160000Y-82750000D01*
X161320000Y-85160000D02*
X162490000Y-85160000D01*
X162490000Y-85160000D02*
X163720000Y-85160000D01*
X165220000Y-85160000D02*
X165220000Y-84180000D01*
X172750000Y-82470000D02*
X172760000Y-82460000D01*
X166930000Y-82470000D02*
X172750000Y-82470000D01*
X165220000Y-84180000D02*
X166930000Y-82470000D01*
X155960000Y-92500000D02*
X155960000Y-91830000D01*
X155960000Y-91830000D02*
X155420000Y-91290000D01*
D44*
X153130000Y-81425000D02*
X152275000Y-81425000D01*
X152275000Y-81425000D02*
X151240000Y-82460000D01*
D43*
X151240000Y-81395254D02*
X151240000Y-82460000D01*
X151240000Y-81395254D02*
X151240000Y-81390000D01*
X149940000Y-80090000D02*
X149020000Y-80090000D01*
X151240000Y-81390000D02*
X149940000Y-80090000D01*
X151240000Y-81395254D02*
X151240000Y-81395254D01*
X153125000Y-81430000D02*
X153130000Y-81425000D01*
X153125000Y-81430000D02*
X153130000Y-81425000D01*
X153120000Y-81415000D02*
X153130000Y-81425000D01*
D47*
X153120000Y-81415000D02*
X153130000Y-81425000D01*
D43*
X173410000Y-88885000D02*
X174565000Y-88885000D01*
X176300000Y-86510000D02*
X176300000Y-85130000D01*
X175410000Y-87400000D02*
X176300000Y-86510000D01*
X175410000Y-88040000D02*
X175410000Y-87400000D01*
X174565000Y-88885000D02*
X175410000Y-88040000D01*
X173410000Y-88885000D02*
X172115000Y-88885000D01*
X172115000Y-88885000D02*
X171540000Y-89460000D01*
X173390000Y-94080000D02*
X172000000Y-94080000D01*
X172000000Y-94080000D02*
X171540000Y-93620000D01*
X171540000Y-93620000D02*
X171540000Y-89460000D01*
X173385000Y-88860000D02*
X173410000Y-88885000D01*
X153540000Y-85140000D02*
X153540000Y-86460000D01*
X152890000Y-87110000D02*
X152890000Y-87270000D01*
X153540000Y-86460000D02*
X152890000Y-87110000D01*
X153550000Y-85150000D02*
X153540000Y-85140000D01*
X149050000Y-75020000D02*
X152310000Y-75020000D01*
X152310000Y-75020000D02*
X154710000Y-77420000D01*
X154710000Y-77420000D02*
X154710000Y-78900000D01*
X154710000Y-77420000D02*
X154710000Y-78900000D01*
X153130000Y-78885000D02*
X154705000Y-78895000D01*
X154705000Y-78895000D02*
X154710000Y-78900000D01*
X153125000Y-78890000D02*
X153130000Y-78885000D01*
D47*
X154710000Y-78900000D02*
X154705000Y-78895000D01*
X153125000Y-78890000D02*
X153130000Y-78885000D01*
D43*
X168175000Y-89115000D02*
X168170000Y-89110000D01*
X168175000Y-90165000D02*
X168175000Y-89115000D01*
X168170000Y-90160000D02*
X168175000Y-90165000D01*
X173410000Y-90155000D02*
X175095000Y-90155000D01*
X175095000Y-90155000D02*
X175100000Y-90150000D01*
X169770000Y-88895000D02*
X168385000Y-88895000D01*
X168385000Y-88895000D02*
X168170000Y-89110000D01*
X168345000Y-90165000D02*
X169770000Y-90165000D01*
X168170000Y-89110000D02*
X168170000Y-89990000D01*
X168170000Y-89990000D02*
X168345000Y-90165000D01*
D47*
X175095000Y-90155000D02*
X175100000Y-90150000D01*
X173405000Y-90160000D02*
X173410000Y-90155000D01*
D43*
X145850000Y-94090000D02*
X145850000Y-102660000D01*
X169810000Y-102570000D02*
X169810000Y-99405000D01*
X168480000Y-103900000D02*
X169810000Y-102570000D01*
X147090000Y-103900000D02*
X168480000Y-103900000D01*
X145850000Y-102660000D02*
X147090000Y-103900000D01*
X143760000Y-93520000D02*
X145280000Y-93520000D01*
X145280000Y-93520000D02*
X145850000Y-94090000D01*
X178810000Y-91425000D02*
X178810000Y-95690000D01*
X178810000Y-95690000D02*
X169450000Y-105050000D01*
X144890000Y-95650000D02*
X144890000Y-103320000D01*
X143760000Y-95030000D02*
X144040000Y-95310000D01*
X144040000Y-95310000D02*
X144550000Y-95310000D01*
X144550000Y-95310000D02*
X144890000Y-95650000D01*
X143760000Y-94320000D02*
X143760000Y-95030000D01*
X144890000Y-103320000D02*
X146620000Y-105050000D01*
X146620000Y-105050000D02*
X169450000Y-105050000D01*
X149700000Y-85140000D02*
X150660000Y-85140000D01*
X160190000Y-80170000D02*
X160190000Y-80155000D01*
X160190000Y-80155000D02*
X160190000Y-80170000D01*
X160190000Y-80170000D02*
X160190000Y-80155000D01*
X161425000Y-80925000D02*
X161425000Y-80745000D01*
X161425000Y-80745000D02*
X160835000Y-80155000D01*
X160835000Y-80155000D02*
X160190000Y-80155000D01*
X160190000Y-80155000D02*
X158530000Y-80155000D01*
X132360000Y-91920000D02*
X126660000Y-91920000D01*
X125980000Y-92600000D02*
X125980000Y-94340000D01*
X126660000Y-91920000D02*
X125980000Y-92600000D01*
D46*
X142060000Y-84620000D02*
X142060000Y-86400000D01*
X142060000Y-86400000D02*
X141810000Y-86650000D01*
D43*
X112960000Y-109850000D02*
X116440000Y-109850000D01*
X119620000Y-108020000D02*
X119620000Y-107010000D01*
X118240000Y-109400000D02*
X119620000Y-108020000D01*
X116890000Y-109400000D02*
X118240000Y-109400000D01*
X116440000Y-109850000D02*
X116890000Y-109400000D01*
X109300000Y-109850000D02*
X109300000Y-110710000D01*
X112960000Y-110770000D02*
X112960000Y-109850000D01*
X112550000Y-111180000D02*
X112960000Y-110770000D01*
X109770000Y-111180000D02*
X112550000Y-111180000D01*
X109300000Y-110710000D02*
X109770000Y-111180000D01*
X116760000Y-107010000D02*
X116760000Y-105770000D01*
X116760000Y-105770000D02*
X118000000Y-104530000D01*
X112940000Y-104530000D02*
X116490000Y-104530000D01*
X116490000Y-104530000D02*
X117040000Y-104530000D01*
X117040000Y-104530000D02*
X118000000Y-104530000D01*
X118000000Y-104530000D02*
X120645000Y-101885000D01*
X120645000Y-101885000D02*
X122060000Y-101885000D01*
D44*
X114330000Y-103100000D02*
X114380000Y-103100000D01*
D43*
X109640000Y-103100000D02*
X114380000Y-103100000D01*
X114380000Y-103100000D02*
X114380000Y-101885000D01*
X109190000Y-104520000D02*
X109190000Y-103550000D01*
X109190000Y-103550000D02*
X109640000Y-103100000D01*
X112980000Y-101880000D02*
X114375000Y-101880000D01*
X114375000Y-101880000D02*
X114380000Y-101885000D01*
X114360000Y-101885000D02*
X116660000Y-101885000D01*
X114380000Y-101885000D02*
X114360000Y-101865000D01*
X114360000Y-101865000D02*
X114360000Y-101885000D01*
X121120000Y-107010000D02*
X121810000Y-107010000D01*
X122130000Y-106690000D02*
X122130000Y-105380000D01*
X121810000Y-107010000D02*
X122130000Y-106690000D01*
X136460000Y-96020000D02*
X136460000Y-97790000D01*
X136460000Y-97790000D02*
X138810000Y-100140000D01*
X138810000Y-102340000D02*
X138570000Y-102580000D01*
X138810000Y-100140000D02*
X138810000Y-102340000D01*
X136560000Y-102580000D02*
X138570000Y-102580000D01*
D44*
X122060000Y-103155000D02*
X125195000Y-103155000D01*
X125195000Y-103155000D02*
X125210000Y-103170000D01*
D43*
X114080000Y-107010000D02*
X114080000Y-108100000D01*
X120945000Y-103155000D02*
X122060000Y-103155000D01*
X118160000Y-105940000D02*
X120945000Y-103155000D01*
X118160000Y-107930000D02*
X118160000Y-105940000D01*
X117630000Y-108460000D02*
X118160000Y-107930000D01*
X114440000Y-108460000D02*
X117630000Y-108460000D01*
X114080000Y-108100000D02*
X114440000Y-108460000D01*
X112960000Y-107010000D02*
X114080000Y-107010000D01*
X114080000Y-107010000D02*
X115260000Y-107010000D01*
X161810000Y-76730000D02*
X161810000Y-77360000D01*
X163820000Y-79370000D02*
X163820000Y-80920000D01*
X161810000Y-77360000D02*
X163820000Y-79370000D01*
X143070000Y-78600000D02*
X141810000Y-78600000D01*
X141810000Y-78600000D02*
X140460000Y-79950000D01*
X140460000Y-79950000D02*
X140460000Y-84620000D01*
X143760000Y-92720000D02*
X146390000Y-92720000D01*
X147550000Y-93880000D02*
X148250000Y-93880000D01*
X146390000Y-92720000D02*
X147550000Y-93880000D01*
X161440000Y-97850000D02*
X161550000Y-97850000D01*
X161550000Y-97850000D02*
X161835000Y-98135000D01*
X164410000Y-98135000D02*
X161835000Y-98135000D01*
X161835000Y-98135000D02*
X159770000Y-98135000D01*
X159770000Y-96865000D02*
X161075000Y-96865000D01*
X161155000Y-98135000D02*
X159770000Y-98135000D01*
X161440000Y-97850000D02*
X161155000Y-98135000D01*
X161440000Y-97230000D02*
X161440000Y-97850000D01*
X161075000Y-96865000D02*
X161440000Y-97230000D01*
D47*
X160375000Y-98135000D02*
X160040000Y-98135000D01*
D43*
X143760000Y-91920000D02*
X146470000Y-91920000D01*
X147090000Y-91300000D02*
X148260000Y-91300000D01*
X146470000Y-91920000D02*
X147090000Y-91300000D01*
X143770000Y-91930000D02*
X143760000Y-91920000D01*
D47*
X143765000Y-91925000D02*
X143760000Y-91920000D01*
D43*
X149760000Y-91300000D02*
X150210000Y-91300000D01*
X151080000Y-92170000D02*
X153480000Y-92170000D01*
X150210000Y-91300000D02*
X151080000Y-92170000D01*
D44*
X93680000Y-66220000D02*
X93680000Y-64120000D01*
D43*
X153130000Y-80155000D02*
X151865000Y-80155000D01*
X150540000Y-76520000D02*
X149050000Y-76520000D01*
X151020000Y-77000000D02*
X150540000Y-76520000D01*
X151020000Y-79310000D02*
X151020000Y-77990000D01*
X151020000Y-77990000D02*
X151020000Y-77000000D01*
X151865000Y-80155000D02*
X151020000Y-79310000D01*
X153115000Y-80140000D02*
X153130000Y-80155000D01*
X96300000Y-68600000D02*
X98080000Y-68600000D01*
X98080000Y-68600000D02*
X98470000Y-68990000D01*
X94980000Y-73560000D02*
X96390000Y-73560000D01*
X96390000Y-73560000D02*
X97110000Y-72840000D01*
X97110000Y-70170000D02*
X96300000Y-69360000D01*
X97110000Y-72840000D02*
X97110000Y-70170000D01*
X96300000Y-69360000D02*
X96300000Y-68600000D01*
D44*
X113670000Y-81780000D02*
X115030000Y-81780000D01*
X116350000Y-83100000D02*
X118050000Y-83100000D01*
X115030000Y-81780000D02*
X116350000Y-83100000D01*
D43*
X118300000Y-80750000D02*
X118300000Y-82850000D01*
X118300000Y-82850000D02*
X118050000Y-83100000D01*
X142380000Y-67670000D02*
X136240000Y-67670000D01*
X136240000Y-67670000D02*
X136230000Y-67660000D01*
X132120000Y-67470000D02*
X132120000Y-68320000D01*
X138400000Y-68440000D02*
X138400000Y-67660000D01*
X137980000Y-68860000D02*
X138400000Y-68440000D01*
X132660000Y-68860000D02*
X137980000Y-68860000D01*
X132120000Y-68320000D02*
X132660000Y-68860000D01*
X136480000Y-67660000D02*
X138400000Y-67660000D01*
X138400000Y-67660000D02*
X140970000Y-67660000D01*
X140970000Y-67660000D02*
X140980000Y-67670000D01*
X149750000Y-93880000D02*
X152320000Y-93880000D01*
X152320000Y-93880000D02*
X152430000Y-93990000D01*
D44*
X142075000Y-89525000D02*
X141965000Y-89525000D01*
X141965000Y-89525000D02*
X140070000Y-87630000D01*
X143760000Y-89520000D02*
X142080000Y-89520000D01*
X142080000Y-89520000D02*
X142075000Y-89525000D01*
D43*
X139760000Y-75000000D02*
X139760000Y-70450000D01*
X139760000Y-70450000D02*
X139750000Y-70440000D01*
X143755000Y-89525000D02*
X143760000Y-89520000D01*
D47*
X142075000Y-89525000D02*
X142080000Y-89520000D01*
D43*
X179540000Y-111030000D02*
X179530000Y-111040000D01*
D44*
X179830000Y-108890000D02*
X179830000Y-111030000D01*
X179830000Y-111030000D02*
X179840000Y-111040000D01*
D43*
X179830000Y-111040000D02*
X179840000Y-111050000D01*
X177000000Y-111030000D02*
X176990000Y-111040000D01*
D44*
X177290000Y-108910000D02*
X177290000Y-111030000D01*
X177290000Y-111030000D02*
X177300000Y-111040000D01*
D43*
X177290000Y-111040000D02*
X177300000Y-111050000D01*
X174460000Y-111030000D02*
X174450000Y-111040000D01*
D44*
X174760000Y-108910000D02*
X174760000Y-111040000D01*
D43*
X174750000Y-111040000D02*
X174760000Y-111050000D01*
D44*
X172210000Y-108930000D02*
X172210000Y-111030000D01*
X172210000Y-111030000D02*
X172220000Y-111040000D01*
D43*
X172210000Y-111030000D02*
X172220000Y-111040000D01*
X92200000Y-91470000D02*
X92190000Y-93900000D01*
X97805000Y-91385000D02*
X97805000Y-93510000D01*
X97400000Y-90980000D02*
X97805000Y-91385000D01*
X97390000Y-90980000D02*
X97400000Y-90980000D01*
X95265000Y-93510000D02*
X95265000Y-95415000D01*
X94820000Y-95860000D02*
X94820000Y-97510000D01*
X95265000Y-95415000D02*
X94820000Y-95860000D01*
X92200000Y-96670000D02*
X92700000Y-96670000D01*
X93540000Y-97510000D02*
X94820000Y-97510000D01*
X92700000Y-96670000D02*
X93540000Y-97510000D01*
X130950000Y-78650000D02*
X130950000Y-79870000D01*
X135660000Y-84620000D02*
X135660000Y-83240000D01*
X131590000Y-80460000D02*
X131590000Y-79210000D01*
X132220000Y-81090000D02*
X131590000Y-80460000D01*
X133510000Y-81090000D02*
X132220000Y-81090000D01*
X135660000Y-83240000D02*
X133510000Y-81090000D01*
X131600000Y-76440000D02*
X131600000Y-79200000D01*
X131600000Y-79200000D02*
X131590000Y-79210000D01*
X98520000Y-97510000D02*
X98520000Y-96220000D01*
X96535000Y-95215000D02*
X96535000Y-93510000D01*
X96840000Y-95520000D02*
X96535000Y-95215000D01*
X97820000Y-95520000D02*
X96840000Y-95520000D01*
X98520000Y-96220000D02*
X97820000Y-95520000D01*
X98520000Y-97510000D02*
X99480000Y-97510000D01*
X99480000Y-97510000D02*
X100310000Y-96680000D01*
X100310000Y-96680000D02*
X101160000Y-96680000D01*
X94390000Y-105990000D02*
X97730000Y-105990000D01*
X99190000Y-104530000D02*
X100830000Y-104530000D01*
X97730000Y-105990000D02*
X99190000Y-104530000D01*
D48*
G36*
X125490408Y-112554500D02*
X124969592Y-112554500D01*
X125230000Y-112380501D01*
X125490408Y-112554500D01*
X125490408Y-112554500D01*
G37*
X125490408Y-112554500D02*
X124969592Y-112554500D01*
X125230000Y-112380501D01*
X125490408Y-112554500D01*
G36*
X122950408Y-112554500D02*
X122429592Y-112554500D01*
X122690000Y-112380501D01*
X122950408Y-112554500D01*
X122950408Y-112554500D01*
G37*
X122950408Y-112554500D02*
X122429592Y-112554500D01*
X122690000Y-112380501D01*
X122950408Y-112554500D01*
G36*
X117035389Y-111890000D02*
X117103410Y-112251499D01*
X117298386Y-112554500D01*
X107356365Y-112554500D01*
X107754999Y-111594482D01*
X107755261Y-111294611D01*
X108050000Y-111294611D01*
X108272303Y-111252782D01*
X108466533Y-111543467D01*
X108936531Y-112013464D01*
X108936533Y-112013467D01*
X109318931Y-112268977D01*
X109770000Y-112358700D01*
X112550000Y-112358700D01*
X113001069Y-112268977D01*
X113383467Y-112013467D01*
X113383468Y-112013466D01*
X113793464Y-111603469D01*
X113793467Y-111603467D01*
X114048977Y-111221069D01*
X114083005Y-111050000D01*
X114087242Y-111028700D01*
X116440000Y-111028700D01*
X116891069Y-110938977D01*
X117035389Y-110842546D01*
X117035389Y-111890000D01*
X117035389Y-111890000D01*
G37*
X117035389Y-111890000D02*
X117103410Y-112251499D01*
X117298386Y-112554500D01*
X107356365Y-112554500D01*
X107754999Y-111594482D01*
X107755261Y-111294611D01*
X108050000Y-111294611D01*
X108272303Y-111252782D01*
X108466533Y-111543467D01*
X108936531Y-112013464D01*
X108936533Y-112013467D01*
X109318931Y-112268977D01*
X109770000Y-112358700D01*
X112550000Y-112358700D01*
X113001069Y-112268977D01*
X113383467Y-112013467D01*
X113383468Y-112013466D01*
X113793464Y-111603469D01*
X113793467Y-111603467D01*
X114048977Y-111221069D01*
X114083005Y-111050000D01*
X114087242Y-111028700D01*
X116440000Y-111028700D01*
X116891069Y-110938977D01*
X117035389Y-110842546D01*
X117035389Y-111890000D01*
G36*
X104138576Y-108215055D02*
X103253288Y-108580849D01*
X102443691Y-109389034D01*
X102005001Y-110445518D01*
X102004002Y-111589463D01*
X102402748Y-112554500D01*
X100149233Y-112554500D01*
X100400080Y-112386889D01*
X100828315Y-111745991D01*
X100978691Y-110990000D01*
X100828315Y-110234009D01*
X100400080Y-109593111D01*
X99759182Y-109164876D01*
X99003191Y-109014500D01*
X98882434Y-109014500D01*
X99708234Y-108188700D01*
X99898319Y-108188700D01*
X100063041Y-108301250D01*
X100450000Y-108379611D01*
X101250000Y-108379611D01*
X101611499Y-108311590D01*
X101612122Y-108311189D01*
X101950000Y-108379611D01*
X102750000Y-108379611D01*
X103111499Y-108311590D01*
X103305831Y-108186541D01*
X104110111Y-108186541D01*
X104138576Y-108215055D01*
X104138576Y-108215055D01*
G37*
X104138576Y-108215055D02*
X103253288Y-108580849D01*
X102443691Y-109389034D01*
X102005001Y-110445518D01*
X102004002Y-111589463D01*
X102402748Y-112554500D01*
X100149233Y-112554500D01*
X100400080Y-112386889D01*
X100828315Y-111745991D01*
X100978691Y-110990000D01*
X100828315Y-110234009D01*
X100400080Y-109593111D01*
X99759182Y-109164876D01*
X99003191Y-109014500D01*
X98882434Y-109014500D01*
X99708234Y-108188700D01*
X99898319Y-108188700D01*
X100063041Y-108301250D01*
X100450000Y-108379611D01*
X101250000Y-108379611D01*
X101611499Y-108311590D01*
X101612122Y-108311189D01*
X101950000Y-108379611D01*
X102750000Y-108379611D01*
X103111499Y-108311590D01*
X103305831Y-108186541D01*
X104110111Y-108186541D01*
X104138576Y-108215055D01*
G36*
X92514681Y-103281615D02*
X92514175Y-103861423D01*
X92799102Y-104550997D01*
X92987643Y-104739867D01*
X92800956Y-104926228D01*
X92514826Y-105615303D01*
X92514175Y-106361423D01*
X92799102Y-107050997D01*
X92987643Y-107239867D01*
X92800956Y-107426228D01*
X92514826Y-108115303D01*
X92514175Y-108861423D01*
X92799102Y-109550997D01*
X93326228Y-110079044D01*
X94015303Y-110365174D01*
X94525506Y-110365619D01*
X94401309Y-110990000D01*
X94551685Y-111745991D01*
X94979920Y-112386889D01*
X95230767Y-112554500D01*
X91965500Y-112554500D01*
X91965500Y-102732434D01*
X92514681Y-103281615D01*
X92514681Y-103281615D01*
G37*
X92514681Y-103281615D02*
X92514175Y-103861423D01*
X92799102Y-104550997D01*
X92987643Y-104739867D01*
X92800956Y-104926228D01*
X92514826Y-105615303D01*
X92514175Y-106361423D01*
X92799102Y-107050997D01*
X92987643Y-107239867D01*
X92800956Y-107426228D01*
X92514826Y-108115303D01*
X92514175Y-108861423D01*
X92799102Y-109550997D01*
X93326228Y-110079044D01*
X94015303Y-110365174D01*
X94525506Y-110365619D01*
X94401309Y-110990000D01*
X94551685Y-111745991D01*
X94979920Y-112386889D01*
X95230767Y-112554500D01*
X91965500Y-112554500D01*
X91965500Y-102732434D01*
X92514681Y-103281615D01*
G36*
X127976018Y-112518158D02*
X128000301Y-112554500D01*
X127509592Y-112554500D01*
X127770000Y-112380501D01*
X127976018Y-112518158D01*
X127976018Y-112518158D01*
G37*
X127976018Y-112518158D02*
X128000301Y-112554500D01*
X127509592Y-112554500D01*
X127770000Y-112380501D01*
X127976018Y-112518158D01*
G36*
X188944500Y-62214776D02*
X188944500Y-69370476D01*
X188776587Y-69119177D01*
X188184353Y-68723458D01*
X187485764Y-68584500D01*
X187414236Y-68584500D01*
X186715647Y-68723458D01*
X186481558Y-68879872D01*
X186472945Y-68866487D01*
X186146959Y-68643750D01*
X185760000Y-68565389D01*
X184060000Y-68565389D01*
X183698501Y-68633410D01*
X183366487Y-68847055D01*
X183143750Y-69173041D01*
X183065389Y-69560000D01*
X183065389Y-71260000D01*
X183133410Y-71621499D01*
X183347055Y-71953513D01*
X183374303Y-71972131D01*
X183187694Y-72251411D01*
X183048736Y-72950000D01*
X183187694Y-73648589D01*
X183569499Y-74220000D01*
X183187694Y-74791411D01*
X183048736Y-75490000D01*
X183187694Y-76188589D01*
X183375108Y-76469073D01*
X183153750Y-76793041D01*
X183075389Y-77180000D01*
X183075389Y-78880000D01*
X183143410Y-79241499D01*
X183357055Y-79573513D01*
X183384303Y-79592131D01*
X183197694Y-79871411D01*
X183058736Y-80570000D01*
X183197694Y-81268589D01*
X183579499Y-81840000D01*
X183197694Y-82411411D01*
X183058736Y-83110000D01*
X183197694Y-83808589D01*
X183579499Y-84380000D01*
X183197694Y-84951411D01*
X183058736Y-85650000D01*
X183197694Y-86348589D01*
X183579499Y-86920000D01*
X183197694Y-87491411D01*
X183058736Y-88190000D01*
X183197694Y-88888589D01*
X183579499Y-89460000D01*
X183197694Y-90031411D01*
X183058736Y-90730000D01*
X183197694Y-91428589D01*
X183579499Y-92000000D01*
X183197694Y-92571411D01*
X183058736Y-93270000D01*
X183197694Y-93968589D01*
X183381573Y-94243782D01*
X183376487Y-94247055D01*
X183153750Y-94573041D01*
X183075389Y-94960000D01*
X183075389Y-96660000D01*
X183143410Y-97021499D01*
X183357055Y-97353513D01*
X183384303Y-97372131D01*
X183197694Y-97651411D01*
X183058736Y-98350000D01*
X183197694Y-99048589D01*
X183579499Y-99620000D01*
X183197694Y-100191411D01*
X183058736Y-100890000D01*
X183197694Y-101588589D01*
X183579499Y-102160000D01*
X183197694Y-102731411D01*
X183058736Y-103430000D01*
X183197694Y-104128589D01*
X183593413Y-104720823D01*
X184185647Y-105116542D01*
X184884236Y-105255500D01*
X184955764Y-105255500D01*
X185654353Y-105116542D01*
X186190000Y-104758633D01*
X186725647Y-105116542D01*
X187424236Y-105255500D01*
X187495764Y-105255500D01*
X188194353Y-105116542D01*
X188786587Y-104720823D01*
X188944500Y-104484490D01*
X188944500Y-108529483D01*
X187994482Y-108135001D01*
X186850537Y-108134002D01*
X185793288Y-108570849D01*
X184983691Y-109379034D01*
X184545001Y-110435518D01*
X184544002Y-111579463D01*
X184614673Y-111750500D01*
X181684611Y-111750500D01*
X181684611Y-110190000D01*
X181616590Y-109828501D01*
X181402945Y-109496487D01*
X181226794Y-109376128D01*
X181274611Y-109140000D01*
X181274611Y-108640000D01*
X181206590Y-108278501D01*
X181118217Y-108141165D01*
X181196250Y-108026959D01*
X181274611Y-107640000D01*
X181274611Y-107140000D01*
X181206590Y-106778501D01*
X181059500Y-106549916D01*
X181059500Y-106054992D01*
X181262451Y-105566232D01*
X181262948Y-104996269D01*
X181045292Y-104469501D01*
X180642619Y-104066124D01*
X180116232Y-103847549D01*
X179546269Y-103847052D01*
X179019501Y-104064708D01*
X178616124Y-104467381D01*
X178524176Y-104688818D01*
X178425292Y-104449501D01*
X178022619Y-104046124D01*
X177496232Y-103827549D01*
X176926269Y-103827052D01*
X176399501Y-104044708D01*
X175996124Y-104447381D01*
X175983533Y-104477704D01*
X175602619Y-104096124D01*
X175076232Y-103877549D01*
X174506269Y-103877052D01*
X173979501Y-104094708D01*
X173576124Y-104497381D01*
X173461724Y-104772886D01*
X173365292Y-104539501D01*
X172962619Y-104136124D01*
X172436232Y-103917549D01*
X172249548Y-103917386D01*
X179643467Y-96523467D01*
X179898977Y-96141069D01*
X179988700Y-95690000D01*
X179988700Y-92624434D01*
X180278513Y-92437945D01*
X180501250Y-92111959D01*
X180579611Y-91725000D01*
X180579611Y-91475221D01*
X180813768Y-91572451D01*
X181383731Y-91572948D01*
X181910499Y-91355292D01*
X182313876Y-90952619D01*
X182532451Y-90426232D01*
X182532948Y-89856269D01*
X182315292Y-89329501D01*
X181912619Y-88926124D01*
X181386232Y-88707549D01*
X180816269Y-88707052D01*
X180579611Y-88804837D01*
X180579611Y-88585000D01*
X180514262Y-88237703D01*
X180579611Y-87915000D01*
X180579611Y-87315000D01*
X180511590Y-86953501D01*
X180297945Y-86621487D01*
X179988700Y-86410189D01*
X179988700Y-79060000D01*
X179898977Y-78608931D01*
X179643467Y-78226533D01*
X178813467Y-77396533D01*
X178431069Y-77141023D01*
X177980000Y-77051300D01*
X177211447Y-77051300D01*
X176936959Y-76863750D01*
X176550000Y-76785389D01*
X176050000Y-76785389D01*
X176004294Y-76793989D01*
X176166250Y-76556959D01*
X176240084Y-76192353D01*
X176350000Y-76214611D01*
X177250000Y-76214611D01*
X177611499Y-76146590D01*
X177762381Y-76049500D01*
X178680000Y-76049500D01*
X179150510Y-75955910D01*
X179549388Y-75689388D01*
X180799388Y-74439388D01*
X181065910Y-74040510D01*
X181159500Y-73570000D01*
X181159500Y-67554992D01*
X181362451Y-67066232D01*
X181362948Y-66496269D01*
X181145292Y-65969501D01*
X180831614Y-65655275D01*
X181659463Y-65655998D01*
X182716712Y-65219151D01*
X183526309Y-64410966D01*
X183964999Y-63354482D01*
X183965998Y-62210537D01*
X183587912Y-61295500D01*
X188025224Y-61295500D01*
X188944500Y-62214776D01*
X188944500Y-62214776D01*
G37*
X188944500Y-62214776D02*
X188944500Y-69370476D01*
X188776587Y-69119177D01*
X188184353Y-68723458D01*
X187485764Y-68584500D01*
X187414236Y-68584500D01*
X186715647Y-68723458D01*
X186481558Y-68879872D01*
X186472945Y-68866487D01*
X186146959Y-68643750D01*
X185760000Y-68565389D01*
X184060000Y-68565389D01*
X183698501Y-68633410D01*
X183366487Y-68847055D01*
X183143750Y-69173041D01*
X183065389Y-69560000D01*
X183065389Y-71260000D01*
X183133410Y-71621499D01*
X183347055Y-71953513D01*
X183374303Y-71972131D01*
X183187694Y-72251411D01*
X183048736Y-72950000D01*
X183187694Y-73648589D01*
X183569499Y-74220000D01*
X183187694Y-74791411D01*
X183048736Y-75490000D01*
X183187694Y-76188589D01*
X183375108Y-76469073D01*
X183153750Y-76793041D01*
X183075389Y-77180000D01*
X183075389Y-78880000D01*
X183143410Y-79241499D01*
X183357055Y-79573513D01*
X183384303Y-79592131D01*
X183197694Y-79871411D01*
X183058736Y-80570000D01*
X183197694Y-81268589D01*
X183579499Y-81840000D01*
X183197694Y-82411411D01*
X183058736Y-83110000D01*
X183197694Y-83808589D01*
X183579499Y-84380000D01*
X183197694Y-84951411D01*
X183058736Y-85650000D01*
X183197694Y-86348589D01*
X183579499Y-86920000D01*
X183197694Y-87491411D01*
X183058736Y-88190000D01*
X183197694Y-88888589D01*
X183579499Y-89460000D01*
X183197694Y-90031411D01*
X183058736Y-90730000D01*
X183197694Y-91428589D01*
X183579499Y-92000000D01*
X183197694Y-92571411D01*
X183058736Y-93270000D01*
X183197694Y-93968589D01*
X183381573Y-94243782D01*
X183376487Y-94247055D01*
X183153750Y-94573041D01*
X183075389Y-94960000D01*
X183075389Y-96660000D01*
X183143410Y-97021499D01*
X183357055Y-97353513D01*
X183384303Y-97372131D01*
X183197694Y-97651411D01*
X183058736Y-98350000D01*
X183197694Y-99048589D01*
X183579499Y-99620000D01*
X183197694Y-100191411D01*
X183058736Y-100890000D01*
X183197694Y-101588589D01*
X183579499Y-102160000D01*
X183197694Y-102731411D01*
X183058736Y-103430000D01*
X183197694Y-104128589D01*
X183593413Y-104720823D01*
X184185647Y-105116542D01*
X184884236Y-105255500D01*
X184955764Y-105255500D01*
X185654353Y-105116542D01*
X186190000Y-104758633D01*
X186725647Y-105116542D01*
X187424236Y-105255500D01*
X187495764Y-105255500D01*
X188194353Y-105116542D01*
X188786587Y-104720823D01*
X188944500Y-104484490D01*
X188944500Y-108529483D01*
X187994482Y-108135001D01*
X186850537Y-108134002D01*
X185793288Y-108570849D01*
X184983691Y-109379034D01*
X184545001Y-110435518D01*
X184544002Y-111579463D01*
X184614673Y-111750500D01*
X181684611Y-111750500D01*
X181684611Y-110190000D01*
X181616590Y-109828501D01*
X181402945Y-109496487D01*
X181226794Y-109376128D01*
X181274611Y-109140000D01*
X181274611Y-108640000D01*
X181206590Y-108278501D01*
X181118217Y-108141165D01*
X181196250Y-108026959D01*
X181274611Y-107640000D01*
X181274611Y-107140000D01*
X181206590Y-106778501D01*
X181059500Y-106549916D01*
X181059500Y-106054992D01*
X181262451Y-105566232D01*
X181262948Y-104996269D01*
X181045292Y-104469501D01*
X180642619Y-104066124D01*
X180116232Y-103847549D01*
X179546269Y-103847052D01*
X179019501Y-104064708D01*
X178616124Y-104467381D01*
X178524176Y-104688818D01*
X178425292Y-104449501D01*
X178022619Y-104046124D01*
X177496232Y-103827549D01*
X176926269Y-103827052D01*
X176399501Y-104044708D01*
X175996124Y-104447381D01*
X175983533Y-104477704D01*
X175602619Y-104096124D01*
X175076232Y-103877549D01*
X174506269Y-103877052D01*
X173979501Y-104094708D01*
X173576124Y-104497381D01*
X173461724Y-104772886D01*
X173365292Y-104539501D01*
X172962619Y-104136124D01*
X172436232Y-103917549D01*
X172249548Y-103917386D01*
X179643467Y-96523467D01*
X179898977Y-96141069D01*
X179988700Y-95690000D01*
X179988700Y-92624434D01*
X180278513Y-92437945D01*
X180501250Y-92111959D01*
X180579611Y-91725000D01*
X180579611Y-91475221D01*
X180813768Y-91572451D01*
X181383731Y-91572948D01*
X181910499Y-91355292D01*
X182313876Y-90952619D01*
X182532451Y-90426232D01*
X182532948Y-89856269D01*
X182315292Y-89329501D01*
X181912619Y-88926124D01*
X181386232Y-88707549D01*
X180816269Y-88707052D01*
X180579611Y-88804837D01*
X180579611Y-88585000D01*
X180514262Y-88237703D01*
X180579611Y-87915000D01*
X180579611Y-87315000D01*
X180511590Y-86953501D01*
X180297945Y-86621487D01*
X179988700Y-86410189D01*
X179988700Y-79060000D01*
X179898977Y-78608931D01*
X179643467Y-78226533D01*
X178813467Y-77396533D01*
X178431069Y-77141023D01*
X177980000Y-77051300D01*
X177211447Y-77051300D01*
X176936959Y-76863750D01*
X176550000Y-76785389D01*
X176050000Y-76785389D01*
X176004294Y-76793989D01*
X176166250Y-76556959D01*
X176240084Y-76192353D01*
X176350000Y-76214611D01*
X177250000Y-76214611D01*
X177611499Y-76146590D01*
X177762381Y-76049500D01*
X178680000Y-76049500D01*
X179150510Y-75955910D01*
X179549388Y-75689388D01*
X180799388Y-74439388D01*
X181065910Y-74040510D01*
X181159500Y-73570000D01*
X181159500Y-67554992D01*
X181362451Y-67066232D01*
X181362948Y-66496269D01*
X181145292Y-65969501D01*
X180831614Y-65655275D01*
X181659463Y-65655998D01*
X182716712Y-65219151D01*
X183526309Y-64410966D01*
X183964999Y-63354482D01*
X183965998Y-62210537D01*
X183587912Y-61295500D01*
X188025224Y-61295500D01*
X188944500Y-62214776D01*
G36*
X170717052Y-105633731D02*
X170934708Y-106160499D01*
X170980500Y-106206371D01*
X170980500Y-106592901D01*
X170843750Y-106793041D01*
X170765389Y-107180000D01*
X170765389Y-107680000D01*
X170833410Y-108041499D01*
X170921783Y-108178835D01*
X170843750Y-108293041D01*
X170765389Y-108680000D01*
X170765389Y-109180000D01*
X170833410Y-109541499D01*
X170939566Y-109706471D01*
X170929177Y-109713413D01*
X170533458Y-110305647D01*
X170394500Y-111004236D01*
X170394500Y-111075764D01*
X170528713Y-111750500D01*
X169054611Y-111750500D01*
X169054611Y-110180000D01*
X168986590Y-109818501D01*
X168772945Y-109486487D01*
X168446959Y-109263750D01*
X168439500Y-109262240D01*
X168439500Y-108060000D01*
X168396429Y-107843467D01*
X168345910Y-107589490D01*
X168079388Y-107190612D01*
X167117476Y-106228700D01*
X169450000Y-106228700D01*
X169901069Y-106138977D01*
X170283467Y-105883467D01*
X170717212Y-105449722D01*
X170717052Y-105633731D01*
X170717052Y-105633731D01*
G37*
X170717052Y-105633731D02*
X170934708Y-106160499D01*
X170980500Y-106206371D01*
X170980500Y-106592901D01*
X170843750Y-106793041D01*
X170765389Y-107180000D01*
X170765389Y-107680000D01*
X170833410Y-108041499D01*
X170921783Y-108178835D01*
X170843750Y-108293041D01*
X170765389Y-108680000D01*
X170765389Y-109180000D01*
X170833410Y-109541499D01*
X170939566Y-109706471D01*
X170929177Y-109713413D01*
X170533458Y-110305647D01*
X170394500Y-111004236D01*
X170394500Y-111075764D01*
X170528713Y-111750500D01*
X169054611Y-111750500D01*
X169054611Y-110180000D01*
X168986590Y-109818501D01*
X168772945Y-109486487D01*
X168446959Y-109263750D01*
X168439500Y-109262240D01*
X168439500Y-108060000D01*
X168396429Y-107843467D01*
X168345910Y-107589490D01*
X168079388Y-107190612D01*
X167117476Y-106228700D01*
X169450000Y-106228700D01*
X169901069Y-106138977D01*
X170283467Y-105883467D01*
X170717212Y-105449722D01*
X170717052Y-105633731D01*
G36*
X137365389Y-110200000D02*
X137365389Y-111750500D01*
X135811287Y-111750500D01*
X135945500Y-111075764D01*
X135945500Y-111004236D01*
X135806542Y-110305647D01*
X135662117Y-110089500D01*
X137387766Y-110089500D01*
X137365389Y-110200000D01*
X137365389Y-110200000D01*
G37*
X137365389Y-110200000D02*
X137365389Y-111750500D01*
X135811287Y-111750500D01*
X135945500Y-111075764D01*
X135945500Y-111004236D01*
X135806542Y-110305647D01*
X135662117Y-110089500D01*
X137387766Y-110089500D01*
X137365389Y-110200000D01*
G36*
X133803013Y-109241789D02*
X133421411Y-109317694D01*
X132850000Y-109699499D01*
X132278589Y-109317694D01*
X131580000Y-109178736D01*
X130881411Y-109317694D01*
X130310000Y-109699499D01*
X129738589Y-109317694D01*
X129430519Y-109256415D01*
X129848234Y-108838700D01*
X129968085Y-108838700D01*
X130023041Y-108876250D01*
X130410000Y-108954611D01*
X131910000Y-108954611D01*
X132271499Y-108886590D01*
X132603513Y-108672945D01*
X132826250Y-108346959D01*
X132840048Y-108278823D01*
X133803013Y-109241789D01*
X133803013Y-109241789D01*
G37*
X133803013Y-109241789D02*
X133421411Y-109317694D01*
X132850000Y-109699499D01*
X132278589Y-109317694D01*
X131580000Y-109178736D01*
X130881411Y-109317694D01*
X130310000Y-109699499D01*
X129738589Y-109317694D01*
X129430519Y-109256415D01*
X129848234Y-108838700D01*
X129968085Y-108838700D01*
X130023041Y-108876250D01*
X130410000Y-108954611D01*
X131910000Y-108954611D01*
X132271499Y-108886590D01*
X132603513Y-108672945D01*
X132826250Y-108346959D01*
X132840048Y-108278823D01*
X133803013Y-109241789D01*
G36*
X173495560Y-109695785D02*
X173490000Y-109699499D01*
X173487040Y-109697522D01*
X173492003Y-109690258D01*
X173495560Y-109695785D01*
X173495560Y-109695785D01*
G37*
X173495560Y-109695785D02*
X173490000Y-109699499D01*
X173487040Y-109697522D01*
X173492003Y-109690258D01*
X173495560Y-109695785D01*
G36*
X122731300Y-107986327D02*
X122731300Y-108140000D01*
X122821023Y-108591069D01*
X123076533Y-108973467D01*
X123394322Y-109291256D01*
X123261411Y-109317694D01*
X122690000Y-109699499D01*
X122118589Y-109317694D01*
X121420000Y-109178736D01*
X120721411Y-109317694D01*
X120446218Y-109501573D01*
X120442945Y-109496487D01*
X120116959Y-109273750D01*
X120047292Y-109259642D01*
X120453467Y-108853467D01*
X120708977Y-108471069D01*
X120727169Y-108379611D01*
X121520000Y-108379611D01*
X121881499Y-108311590D01*
X122189914Y-108113131D01*
X122261069Y-108098977D01*
X122640604Y-107845380D01*
X122731300Y-107986327D01*
X122731300Y-107986327D01*
G37*
X122731300Y-107986327D02*
X122731300Y-108140000D01*
X122821023Y-108591069D01*
X123076533Y-108973467D01*
X123394322Y-109291256D01*
X123261411Y-109317694D01*
X122690000Y-109699499D01*
X122118589Y-109317694D01*
X121420000Y-109178736D01*
X120721411Y-109317694D01*
X120446218Y-109501573D01*
X120442945Y-109496487D01*
X120116959Y-109273750D01*
X120047292Y-109259642D01*
X120453467Y-108853467D01*
X120708977Y-108471069D01*
X120727169Y-108379611D01*
X121520000Y-108379611D01*
X121881499Y-108311590D01*
X122189914Y-108113131D01*
X122261069Y-108098977D01*
X122640604Y-107845380D01*
X122731300Y-107986327D01*
G36*
X125230000Y-109699499D02*
X125228803Y-109698700D01*
X125231197Y-109698700D01*
X125230000Y-109699499D01*
X125230000Y-109699499D01*
G37*
X125230000Y-109699499D02*
X125228803Y-109698700D01*
X125231197Y-109698700D01*
X125230000Y-109699499D01*
G36*
X127770000Y-109699499D02*
X127768803Y-109698700D01*
X127771197Y-109698700D01*
X127770000Y-109699499D01*
X127770000Y-109699499D01*
G37*
X127770000Y-109699499D02*
X127768803Y-109698700D01*
X127771197Y-109698700D01*
X127770000Y-109699499D01*
G36*
X176026404Y-109697097D02*
X176024524Y-109695840D01*
X176025076Y-109695032D01*
X176026404Y-109697097D01*
X176026404Y-109697097D01*
G37*
X176026404Y-109697097D02*
X176024524Y-109695840D01*
X176025076Y-109695032D01*
X176026404Y-109697097D01*
G36*
X160900500Y-109329276D02*
X160900500Y-109662438D01*
X160860000Y-109689499D01*
X160288589Y-109307694D01*
X159590000Y-109168736D01*
X158891411Y-109307694D01*
X158320000Y-109689499D01*
X158222709Y-109624492D01*
X158185910Y-109439490D01*
X157919388Y-109040612D01*
X157818276Y-108939500D01*
X160510724Y-108939500D01*
X160900500Y-109329276D01*
X160900500Y-109329276D01*
G37*
X160900500Y-109329276D02*
X160900500Y-109662438D01*
X160860000Y-109689499D01*
X160288589Y-109307694D01*
X159590000Y-109168736D01*
X158891411Y-109307694D01*
X158320000Y-109689499D01*
X158222709Y-109624492D01*
X158185910Y-109439490D01*
X157919388Y-109040612D01*
X157818276Y-108939500D01*
X160510724Y-108939500D01*
X160900500Y-109329276D01*
G36*
X165980500Y-108569276D02*
X165980500Y-109264993D01*
X165666487Y-109467055D01*
X165647869Y-109494303D01*
X165368589Y-109307694D01*
X164670000Y-109168736D01*
X163971411Y-109307694D01*
X163400000Y-109689499D01*
X163359500Y-109662438D01*
X163359500Y-108820000D01*
X163290559Y-108473410D01*
X163265910Y-108349490D01*
X162999388Y-107950612D01*
X162688276Y-107639500D01*
X165050724Y-107639500D01*
X165980500Y-108569276D01*
X165980500Y-108569276D01*
G37*
X165980500Y-108569276D02*
X165980500Y-109264993D01*
X165666487Y-109467055D01*
X165647869Y-109494303D01*
X165368589Y-109307694D01*
X164670000Y-109168736D01*
X163971411Y-109307694D01*
X163400000Y-109689499D01*
X163359500Y-109662438D01*
X163359500Y-108820000D01*
X163290559Y-108473410D01*
X163265910Y-108349490D01*
X162999388Y-107950612D01*
X162688276Y-107639500D01*
X165050724Y-107639500D01*
X165980500Y-108569276D01*
G36*
X108900000Y-108379611D02*
X109457003Y-108379611D01*
X109474227Y-108405389D01*
X109050000Y-108405389D01*
X108755522Y-108460799D01*
X108820524Y-108363517D01*
X108900000Y-108379611D01*
X108900000Y-108379611D01*
G37*
X108900000Y-108379611D02*
X109457003Y-108379611D01*
X109474227Y-108405389D01*
X109050000Y-108405389D01*
X108755522Y-108460799D01*
X108820524Y-108363517D01*
X108900000Y-108379611D01*
G36*
X112584006Y-108429097D02*
X112561724Y-108433289D01*
X112559920Y-108424219D01*
X112584006Y-108429097D01*
X112584006Y-108429097D01*
G37*
X112584006Y-108429097D02*
X112561724Y-108433289D01*
X112559920Y-108424219D01*
X112584006Y-108429097D01*
G36*
X105761979Y-108272685D02*
X105709020Y-108250694D01*
X105770499Y-108225292D01*
X105789560Y-108206265D01*
X105761979Y-108272685D01*
X105761979Y-108272685D01*
G37*
X105761979Y-108272685D02*
X105709020Y-108250694D01*
X105770499Y-108225292D01*
X105789560Y-108206265D01*
X105761979Y-108272685D01*
G36*
X143410904Y-107630500D02*
X142898276Y-107630500D01*
X142909388Y-107619388D01*
X143012501Y-107465069D01*
X143410904Y-107630500D01*
X143410904Y-107630500D01*
G37*
X143410904Y-107630500D02*
X142898276Y-107630500D01*
X142909388Y-107619388D01*
X143012501Y-107465069D01*
X143410904Y-107630500D01*
G36*
X97251766Y-107311300D02*
X95863400Y-107311300D01*
X95792357Y-107240133D01*
X95863915Y-107168700D01*
X97394366Y-107168700D01*
X97251766Y-107311300D01*
X97251766Y-107311300D01*
G37*
X97251766Y-107311300D02*
X95863400Y-107311300D01*
X95792357Y-107240133D01*
X95863915Y-107168700D01*
X97394366Y-107168700D01*
X97251766Y-107311300D01*
G36*
X133961023Y-105441069D02*
X134216533Y-105823467D01*
X134346533Y-105953467D01*
X134728931Y-106208977D01*
X134815389Y-106226175D01*
X134815389Y-106690000D01*
X134835464Y-106796688D01*
X133632855Y-105594079D01*
X133931962Y-105294971D01*
X133961023Y-105441069D01*
X133961023Y-105441069D01*
G37*
X133961023Y-105441069D02*
X134216533Y-105823467D01*
X134346533Y-105953467D01*
X134728931Y-106208977D01*
X134815389Y-106226175D01*
X134815389Y-106690000D01*
X134835464Y-106796688D01*
X133632855Y-105594079D01*
X133931962Y-105294971D01*
X133961023Y-105441069D01*
G36*
X173560500Y-106086113D02*
X173560500Y-106528995D01*
X173477997Y-106649742D01*
X173439500Y-106589916D01*
X173439500Y-105980496D01*
X173478276Y-105887114D01*
X173560500Y-106086113D01*
X173560500Y-106086113D01*
G37*
X173560500Y-106086113D02*
X173560500Y-106528995D01*
X173477997Y-106649742D01*
X173439500Y-106589916D01*
X173439500Y-105980496D01*
X173478276Y-105887114D01*
X173560500Y-106086113D01*
G36*
X176060500Y-106136406D02*
X176060500Y-106572901D01*
X176024924Y-106624968D01*
X176019500Y-106616538D01*
X176019500Y-106095334D01*
X176060500Y-106136406D01*
X176060500Y-106136406D01*
G37*
X176060500Y-106136406D02*
X176060500Y-106572901D01*
X176024924Y-106624968D01*
X176019500Y-106616538D01*
X176019500Y-106095334D01*
X176060500Y-106136406D01*
G36*
X178600500Y-106056113D02*
X178600500Y-106552901D01*
X178553147Y-106622205D01*
X178519500Y-106569916D01*
X178519500Y-105860078D01*
X178600500Y-106056113D01*
X178600500Y-106056113D01*
G37*
X178600500Y-106056113D02*
X178600500Y-106552901D01*
X178553147Y-106622205D01*
X178519500Y-106569916D01*
X178519500Y-105860078D01*
X178600500Y-106056113D01*
G36*
X140810500Y-106240724D02*
X140620724Y-106430500D01*
X140166433Y-106430500D01*
X140603464Y-105993469D01*
X140603467Y-105993467D01*
X140810500Y-105683620D01*
X140810500Y-106240724D01*
X140810500Y-106240724D01*
G37*
X140810500Y-106240724D02*
X140620724Y-106430500D01*
X140166433Y-106430500D01*
X140603464Y-105993469D01*
X140603467Y-105993467D01*
X140810500Y-105683620D01*
X140810500Y-106240724D01*
G36*
X128157079Y-104102681D02*
X128157052Y-104133731D01*
X128312682Y-104510384D01*
X126981766Y-105841300D01*
X126361681Y-105841300D01*
X126288519Y-105791310D01*
X126451069Y-105758977D01*
X126833467Y-105503467D01*
X127603464Y-104733469D01*
X127603467Y-104733467D01*
X127858977Y-104351069D01*
X127908428Y-104102464D01*
X128157079Y-104102681D01*
X128157079Y-104102681D01*
G37*
X128157079Y-104102681D02*
X128157052Y-104133731D01*
X128312682Y-104510384D01*
X126981766Y-105841300D01*
X126361681Y-105841300D01*
X126288519Y-105791310D01*
X126451069Y-105758977D01*
X126833467Y-105503467D01*
X127603464Y-104733469D01*
X127603467Y-104733467D01*
X127858977Y-104351069D01*
X127908428Y-104102464D01*
X128157079Y-104102681D01*
G36*
X114307524Y-105831300D02*
X113871447Y-105831300D01*
X113773018Y-105764046D01*
X113859029Y-105708700D01*
X114498050Y-105708700D01*
X114307524Y-105831300D01*
X114307524Y-105831300D01*
G37*
X114307524Y-105831300D02*
X113871447Y-105831300D01*
X113773018Y-105764046D01*
X113859029Y-105708700D01*
X114498050Y-105708700D01*
X114307524Y-105831300D01*
G36*
X100000760Y-105764870D02*
X99897524Y-105831300D01*
X99555634Y-105831300D01*
X99678234Y-105708700D01*
X99918553Y-105708700D01*
X100000760Y-105764870D01*
X100000760Y-105764870D01*
G37*
X100000760Y-105764870D02*
X99897524Y-105831300D01*
X99555634Y-105831300D01*
X99678234Y-105708700D01*
X99918553Y-105708700D01*
X100000760Y-105764870D01*
G36*
X103333041Y-105821250D02*
X103372008Y-105829141D01*
X103298521Y-105829141D01*
X103183739Y-105750713D01*
X103207464Y-105735447D01*
X103333041Y-105821250D01*
X103333041Y-105821250D01*
G37*
X103333041Y-105821250D02*
X103372008Y-105829141D01*
X103298521Y-105829141D01*
X103183739Y-105750713D01*
X103207464Y-105735447D01*
X103333041Y-105821250D01*
G36*
X120697549Y-105093768D02*
X120697069Y-105644704D01*
X120358501Y-105708410D01*
X120357878Y-105708811D01*
X120108603Y-105658331D01*
X120714863Y-105052071D01*
X120697549Y-105093768D01*
X120697549Y-105093768D01*
G37*
X120697549Y-105093768D02*
X120697069Y-105644704D01*
X120358501Y-105708410D01*
X120357878Y-105708811D01*
X120108603Y-105658331D01*
X120714863Y-105052071D01*
X120697549Y-105093768D01*
G36*
X143067381Y-97653876D02*
X143593768Y-97872451D01*
X143711300Y-97872553D01*
X143711300Y-103320000D01*
X143717367Y-103350500D01*
X143030000Y-103350500D01*
X142559491Y-103444090D01*
X142160612Y-103710612D01*
X142160610Y-103710615D01*
X141170612Y-104700612D01*
X140948700Y-105032726D01*
X140948700Y-100187276D01*
X141191499Y-100141590D01*
X141192122Y-100141189D01*
X141530000Y-100209611D01*
X142330000Y-100209611D01*
X142691499Y-100141590D01*
X143023513Y-99927945D01*
X143246250Y-99601959D01*
X143324611Y-99215000D01*
X143324611Y-98465000D01*
X143256590Y-98103501D01*
X143095362Y-97852945D01*
X143052874Y-97639344D01*
X143067381Y-97653876D01*
X143067381Y-97653876D01*
G37*
X143067381Y-97653876D02*
X143593768Y-97872451D01*
X143711300Y-97872553D01*
X143711300Y-103320000D01*
X143717367Y-103350500D01*
X143030000Y-103350500D01*
X142559491Y-103444090D01*
X142160612Y-103710612D01*
X142160610Y-103710615D01*
X141170612Y-104700612D01*
X140948700Y-105032726D01*
X140948700Y-100187276D01*
X141191499Y-100141590D01*
X141192122Y-100141189D01*
X141530000Y-100209611D01*
X142330000Y-100209611D01*
X142691499Y-100141590D01*
X143023513Y-99927945D01*
X143246250Y-99601959D01*
X143324611Y-99215000D01*
X143324611Y-98465000D01*
X143256590Y-98103501D01*
X143095362Y-97852945D01*
X143052874Y-97639344D01*
X143067381Y-97653876D01*
G36*
X97241766Y-104811300D02*
X95863400Y-104811300D01*
X95792357Y-104740133D01*
X95863915Y-104668700D01*
X97384366Y-104668700D01*
X97241766Y-104811300D01*
X97241766Y-104811300D01*
G37*
X97241766Y-104811300D02*
X95863400Y-104811300D01*
X95792357Y-104740133D01*
X95863915Y-104668700D01*
X97384366Y-104668700D01*
X97241766Y-104811300D01*
G36*
X123432502Y-104780564D02*
X123345292Y-104569501D01*
X123163843Y-104387735D01*
X123181034Y-104384500D01*
X123828566Y-104384500D01*
X123432502Y-104780564D01*
X123432502Y-104780564D01*
G37*
X123432502Y-104780564D02*
X123345292Y-104569501D01*
X123163843Y-104387735D01*
X123181034Y-104384500D01*
X123828566Y-104384500D01*
X123432502Y-104780564D01*
G36*
X106511300Y-103310043D02*
X106406959Y-103238750D01*
X106225026Y-103201908D01*
X106378234Y-103048700D01*
X106511300Y-103048700D01*
X106511300Y-103310043D01*
X106511300Y-103310043D01*
G37*
X106511300Y-103310043D02*
X106406959Y-103238750D01*
X106225026Y-103201908D01*
X106378234Y-103048700D01*
X106511300Y-103048700D01*
X106511300Y-103310043D01*
G36*
X108660610Y-98499385D02*
X108660612Y-98499388D01*
X108987706Y-98717945D01*
X109059491Y-98765910D01*
X109530000Y-98859501D01*
X109530005Y-98859500D01*
X111943135Y-98859500D01*
X112021023Y-99251069D01*
X112144790Y-99436300D01*
X111915000Y-99436300D01*
X111463931Y-99526023D01*
X111081533Y-99781533D01*
X110646533Y-100216533D01*
X110391023Y-100598931D01*
X110372650Y-100691300D01*
X110101447Y-100691300D01*
X109826959Y-100503750D01*
X109440000Y-100425389D01*
X108940000Y-100425389D01*
X108578501Y-100493410D01*
X108441165Y-100581783D01*
X108326959Y-100503750D01*
X107940000Y-100425389D01*
X107440000Y-100425389D01*
X107078501Y-100493410D01*
X106770971Y-100691300D01*
X105890000Y-100691300D01*
X105438931Y-100781023D01*
X105056533Y-101036533D01*
X103286533Y-102806533D01*
X103031023Y-103188931D01*
X103027767Y-103205299D01*
X102966959Y-103163750D01*
X102580000Y-103085389D01*
X102080000Y-103085389D01*
X101786277Y-103140657D01*
X101993467Y-102933467D01*
X102248977Y-102551069D01*
X102338700Y-102100000D01*
X102338700Y-99358700D01*
X105800000Y-99358700D01*
X106251069Y-99268977D01*
X106633467Y-99013467D01*
X107904079Y-97742855D01*
X108660610Y-98499385D01*
X108660610Y-98499385D01*
G37*
X108660610Y-98499385D02*
X108660612Y-98499388D01*
X108987706Y-98717945D01*
X109059491Y-98765910D01*
X109530000Y-98859501D01*
X109530005Y-98859500D01*
X111943135Y-98859500D01*
X112021023Y-99251069D01*
X112144790Y-99436300D01*
X111915000Y-99436300D01*
X111463931Y-99526023D01*
X111081533Y-99781533D01*
X110646533Y-100216533D01*
X110391023Y-100598931D01*
X110372650Y-100691300D01*
X110101447Y-100691300D01*
X109826959Y-100503750D01*
X109440000Y-100425389D01*
X108940000Y-100425389D01*
X108578501Y-100493410D01*
X108441165Y-100581783D01*
X108326959Y-100503750D01*
X107940000Y-100425389D01*
X107440000Y-100425389D01*
X107078501Y-100493410D01*
X106770971Y-100691300D01*
X105890000Y-100691300D01*
X105438931Y-100781023D01*
X105056533Y-101036533D01*
X103286533Y-102806533D01*
X103031023Y-103188931D01*
X103027767Y-103205299D01*
X102966959Y-103163750D01*
X102580000Y-103085389D01*
X102080000Y-103085389D01*
X101786277Y-103140657D01*
X101993467Y-102933467D01*
X102248977Y-102551069D01*
X102338700Y-102100000D01*
X102338700Y-99358700D01*
X105800000Y-99358700D01*
X106251069Y-99268977D01*
X106633467Y-99013467D01*
X107904079Y-97742855D01*
X108660610Y-98499385D01*
G36*
X167883768Y-99582451D02*
X168040389Y-99582588D01*
X168040389Y-99705000D01*
X168108410Y-100066499D01*
X168322055Y-100398513D01*
X168631300Y-100609811D01*
X168631300Y-102081766D01*
X167991766Y-102721300D01*
X167165634Y-102721300D01*
X167333467Y-102553467D01*
X167588977Y-102171069D01*
X167678700Y-101720000D01*
X167678700Y-99497299D01*
X167883768Y-99582451D01*
X167883768Y-99582451D01*
G37*
X167883768Y-99582451D02*
X168040389Y-99582588D01*
X168040389Y-99705000D01*
X168108410Y-100066499D01*
X168322055Y-100398513D01*
X168631300Y-100609811D01*
X168631300Y-102081766D01*
X167991766Y-102721300D01*
X167165634Y-102721300D01*
X167333467Y-102553467D01*
X167588977Y-102171069D01*
X167678700Y-101720000D01*
X167678700Y-99497299D01*
X167883768Y-99582451D01*
G36*
X188944500Y-102375510D02*
X188800501Y-102160000D01*
X188944500Y-101944490D01*
X188944500Y-102375510D01*
X188944500Y-102375510D01*
G37*
X188944500Y-102375510D02*
X188800501Y-102160000D01*
X188944500Y-101944490D01*
X188944500Y-102375510D01*
G36*
X170988700Y-101844366D02*
X170988700Y-100604434D01*
X171278513Y-100417945D01*
X171501250Y-100091959D01*
X171579611Y-99705000D01*
X171579611Y-99105000D01*
X171514262Y-98757703D01*
X171579611Y-98435000D01*
X171579611Y-98050952D01*
X174787099Y-98045967D01*
X170988700Y-101844366D01*
X170988700Y-101844366D01*
G37*
X170988700Y-101844366D02*
X170988700Y-100604434D01*
X171278513Y-100417945D01*
X171501250Y-100091959D01*
X171579611Y-99705000D01*
X171579611Y-99105000D01*
X171514262Y-98757703D01*
X171579611Y-98435000D01*
X171579611Y-98050952D01*
X174787099Y-98045967D01*
X170988700Y-101844366D01*
G36*
X93433041Y-99626250D02*
X93820000Y-99704611D01*
X94905418Y-99704611D01*
X94551685Y-100234009D01*
X94401309Y-100990000D01*
X94525553Y-101614617D01*
X94181251Y-101614317D01*
X93378700Y-100811766D01*
X93378700Y-99589120D01*
X93433041Y-99626250D01*
X93433041Y-99626250D01*
G37*
X93433041Y-99626250D02*
X93820000Y-99704611D01*
X94905418Y-99704611D01*
X94551685Y-100234009D01*
X94401309Y-100990000D01*
X94525553Y-101614617D01*
X94181251Y-101614317D01*
X93378700Y-100811766D01*
X93378700Y-99589120D01*
X93433041Y-99626250D01*
G36*
X165321300Y-101231766D02*
X164971766Y-101581300D01*
X164855634Y-101581300D01*
X165243467Y-101193467D01*
X165321300Y-101076982D01*
X165321300Y-101231766D01*
X165321300Y-101231766D01*
G37*
X165321300Y-101231766D02*
X164971766Y-101581300D01*
X164855634Y-101581300D01*
X165243467Y-101193467D01*
X165321300Y-101076982D01*
X165321300Y-101231766D01*
G36*
X128777381Y-101253876D02*
X129010077Y-101350500D01*
X128738248Y-101350500D01*
X128696807Y-101333292D01*
X128776873Y-101253367D01*
X128777381Y-101253876D01*
X128777381Y-101253876D01*
G37*
X128777381Y-101253876D02*
X129010077Y-101350500D01*
X128738248Y-101350500D01*
X128696807Y-101333292D01*
X128776873Y-101253367D01*
X128777381Y-101253876D01*
G36*
X188944500Y-99835510D02*
X188800501Y-99620000D01*
X188944500Y-99404490D01*
X188944500Y-99835510D01*
X188944500Y-99835510D01*
G37*
X188944500Y-99835510D02*
X188800501Y-99620000D01*
X188944500Y-99404490D01*
X188944500Y-99835510D01*
G36*
X161546124Y-99667381D02*
X161539611Y-99683066D01*
X161539611Y-99313700D01*
X161900423Y-99313700D01*
X161546124Y-99667381D01*
X161546124Y-99667381D01*
G37*
X161546124Y-99667381D02*
X161539611Y-99683066D01*
X161539611Y-99313700D01*
X161900423Y-99313700D01*
X161546124Y-99667381D01*
G36*
X130639773Y-93924589D02*
X130615389Y-94045000D01*
X130615389Y-94595000D01*
X130683410Y-94956499D01*
X130790700Y-95123232D01*
X130546124Y-95367381D01*
X130327549Y-95893768D01*
X130327052Y-96463731D01*
X130544708Y-96990499D01*
X130947381Y-97393876D01*
X131473768Y-97612451D01*
X131525562Y-97612496D01*
X132246533Y-98333467D01*
X132530115Y-98522951D01*
X132240707Y-98812359D01*
X131910000Y-98745389D01*
X130410000Y-98745389D01*
X130271121Y-98771521D01*
X129876232Y-98607549D01*
X129306269Y-98607052D01*
X128779501Y-98824708D01*
X128777210Y-98826995D01*
X128528694Y-98578045D01*
X127894729Y-98314800D01*
X127208283Y-98314201D01*
X127078999Y-98367620D01*
X127212451Y-98046232D01*
X127212948Y-97476269D01*
X126995292Y-96949501D01*
X126592619Y-96546124D01*
X126066232Y-96327549D01*
X125496269Y-96327052D01*
X124969501Y-96544708D01*
X124952880Y-96561300D01*
X124721681Y-96561300D01*
X124556959Y-96448750D01*
X124170000Y-96370389D01*
X123596545Y-96370389D01*
X123846535Y-96120399D01*
X124138589Y-96062306D01*
X124710000Y-95680501D01*
X125281411Y-96062306D01*
X125980000Y-96201264D01*
X126678589Y-96062306D01*
X127250000Y-95680501D01*
X127821411Y-96062306D01*
X128520000Y-96201264D01*
X129218589Y-96062306D01*
X129810823Y-95666587D01*
X130206542Y-95074353D01*
X130345500Y-94375764D01*
X130345500Y-94304236D01*
X130264834Y-93898700D01*
X130634902Y-93898700D01*
X130639773Y-93924589D01*
X130639773Y-93924589D01*
G37*
X130639773Y-93924589D02*
X130615389Y-94045000D01*
X130615389Y-94595000D01*
X130683410Y-94956499D01*
X130790700Y-95123232D01*
X130546124Y-95367381D01*
X130327549Y-95893768D01*
X130327052Y-96463731D01*
X130544708Y-96990499D01*
X130947381Y-97393876D01*
X131473768Y-97612451D01*
X131525562Y-97612496D01*
X132246533Y-98333467D01*
X132530115Y-98522951D01*
X132240707Y-98812359D01*
X131910000Y-98745389D01*
X130410000Y-98745389D01*
X130271121Y-98771521D01*
X129876232Y-98607549D01*
X129306269Y-98607052D01*
X128779501Y-98824708D01*
X128777210Y-98826995D01*
X128528694Y-98578045D01*
X127894729Y-98314800D01*
X127208283Y-98314201D01*
X127078999Y-98367620D01*
X127212451Y-98046232D01*
X127212948Y-97476269D01*
X126995292Y-96949501D01*
X126592619Y-96546124D01*
X126066232Y-96327549D01*
X125496269Y-96327052D01*
X124969501Y-96544708D01*
X124952880Y-96561300D01*
X124721681Y-96561300D01*
X124556959Y-96448750D01*
X124170000Y-96370389D01*
X123596545Y-96370389D01*
X123846535Y-96120399D01*
X124138589Y-96062306D01*
X124710000Y-95680501D01*
X125281411Y-96062306D01*
X125980000Y-96201264D01*
X126678589Y-96062306D01*
X127250000Y-95680501D01*
X127821411Y-96062306D01*
X128520000Y-96201264D01*
X129218589Y-96062306D01*
X129810823Y-95666587D01*
X130206542Y-95074353D01*
X130345500Y-94375764D01*
X130345500Y-94304236D01*
X130264834Y-93898700D01*
X130634902Y-93898700D01*
X130639773Y-93924589D01*
G36*
X188944500Y-97295510D02*
X188800501Y-97080000D01*
X188944500Y-96864490D01*
X188944500Y-97295510D01*
X188944500Y-97295510D01*
G37*
X188944500Y-97295510D02*
X188800501Y-97080000D01*
X188944500Y-96864490D01*
X188944500Y-97295510D01*
G36*
X106416339Y-95216141D02*
X106650500Y-95450711D01*
X106650500Y-95662566D01*
X105311766Y-97001300D01*
X102529611Y-97001300D01*
X102529611Y-96280000D01*
X102461590Y-95918501D01*
X102247945Y-95586487D01*
X102053411Y-95453567D01*
X102262297Y-95414262D01*
X102585000Y-95479611D01*
X103185000Y-95479611D01*
X103532297Y-95414262D01*
X103855000Y-95479611D01*
X104455000Y-95479611D01*
X104802297Y-95414262D01*
X105125000Y-95479611D01*
X105725000Y-95479611D01*
X106086499Y-95411590D01*
X106410856Y-95202872D01*
X106416339Y-95216141D01*
X106416339Y-95216141D01*
G37*
X106416339Y-95216141D02*
X106650500Y-95450711D01*
X106650500Y-95662566D01*
X105311766Y-97001300D01*
X102529611Y-97001300D01*
X102529611Y-96280000D01*
X102461590Y-95918501D01*
X102247945Y-95586487D01*
X102053411Y-95453567D01*
X102262297Y-95414262D01*
X102585000Y-95479611D01*
X103185000Y-95479611D01*
X103532297Y-95414262D01*
X103855000Y-95479611D01*
X104455000Y-95479611D01*
X104802297Y-95414262D01*
X105125000Y-95479611D01*
X105725000Y-95479611D01*
X106086499Y-95411590D01*
X106410856Y-95202872D01*
X106416339Y-95216141D01*
G36*
X112111306Y-95771955D02*
X112591653Y-95971413D01*
X112276533Y-96286533D01*
X112200383Y-96400500D01*
X110039275Y-96400500D01*
X109109500Y-95470724D01*
X109109500Y-95450744D01*
X109145105Y-95415201D01*
X109461306Y-95731955D01*
X110095271Y-95995200D01*
X110781717Y-95995799D01*
X111416141Y-95733661D01*
X111745183Y-95405193D01*
X112111306Y-95771955D01*
X112111306Y-95771955D01*
G37*
X112111306Y-95771955D02*
X112591653Y-95971413D01*
X112276533Y-96286533D01*
X112200383Y-96400500D01*
X110039275Y-96400500D01*
X109109500Y-95470724D01*
X109109500Y-95450744D01*
X109145105Y-95415201D01*
X109461306Y-95731955D01*
X110095271Y-95995200D01*
X110781717Y-95995799D01*
X111416141Y-95733661D01*
X111745183Y-95405193D01*
X112111306Y-95771955D01*
G36*
X165856533Y-94373467D02*
X166238931Y-94628977D01*
X166690000Y-94718700D01*
X166718319Y-94718700D01*
X166883041Y-94831250D01*
X166965156Y-94847879D01*
X166767549Y-95323768D01*
X166767078Y-95863561D01*
X166636069Y-95776023D01*
X166185000Y-95686300D01*
X166179611Y-95686300D01*
X166179611Y-95295000D01*
X166111590Y-94933501D01*
X165897945Y-94601487D01*
X165588700Y-94390189D01*
X165588700Y-94105634D01*
X165856533Y-94373467D01*
X165856533Y-94373467D01*
G37*
X165856533Y-94373467D02*
X166238931Y-94628977D01*
X166690000Y-94718700D01*
X166718319Y-94718700D01*
X166883041Y-94831250D01*
X166965156Y-94847879D01*
X166767549Y-95323768D01*
X166767078Y-95863561D01*
X166636069Y-95776023D01*
X166185000Y-95686300D01*
X166179611Y-95686300D01*
X166179611Y-95295000D01*
X166111590Y-94933501D01*
X165897945Y-94601487D01*
X165588700Y-94390189D01*
X165588700Y-94105634D01*
X165856533Y-94373467D01*
G36*
X100045000Y-95479611D02*
X100227379Y-95479611D01*
X100141626Y-95534792D01*
X100119749Y-95539143D01*
X100027406Y-95476048D01*
X100045000Y-95479611D01*
X100045000Y-95479611D01*
G37*
X100045000Y-95479611D02*
X100227379Y-95479611D01*
X100141626Y-95534792D01*
X100119749Y-95539143D01*
X100027406Y-95476048D01*
X100045000Y-95479611D01*
G36*
X92982055Y-95178513D02*
X93308041Y-95401250D01*
X93401397Y-95420155D01*
X93225140Y-95533574D01*
X92961959Y-95353750D01*
X92600525Y-95280558D01*
X92953792Y-95134591D01*
X92982055Y-95178513D01*
X92982055Y-95178513D01*
G37*
X92982055Y-95178513D02*
X93308041Y-95401250D01*
X93401397Y-95420155D01*
X93225140Y-95533574D01*
X92961959Y-95353750D01*
X92600525Y-95280558D01*
X92953792Y-95134591D01*
X92982055Y-95178513D01*
G36*
X147098931Y-94968977D02*
X147139756Y-94977098D01*
X147028700Y-94999188D01*
X147028700Y-94922050D01*
X147098931Y-94968977D01*
X147098931Y-94968977D01*
G37*
X147098931Y-94968977D02*
X147139756Y-94977098D01*
X147028700Y-94999188D01*
X147028700Y-94922050D01*
X147098931Y-94968977D01*
G36*
X188944500Y-94755510D02*
X188800501Y-94540000D01*
X188944500Y-94324490D01*
X188944500Y-94755510D01*
X188944500Y-94755510D01*
G37*
X188944500Y-94755510D02*
X188800501Y-94540000D01*
X188944500Y-94324490D01*
X188944500Y-94755510D01*
G36*
X154515389Y-93750000D02*
X154515389Y-94250000D01*
X154524870Y-94300389D01*
X153852420Y-94300389D01*
X153862451Y-94276232D01*
X153862897Y-93764611D01*
X154080000Y-93764611D01*
X154441499Y-93696590D01*
X154538896Y-93633917D01*
X154515389Y-93750000D01*
X154515389Y-93750000D01*
G37*
X154515389Y-93750000D02*
X154515389Y-94250000D01*
X154524870Y-94300389D01*
X153852420Y-94300389D01*
X153862451Y-94276232D01*
X153862897Y-93764611D01*
X154080000Y-93764611D01*
X154441499Y-93696590D01*
X154538896Y-93633917D01*
X154515389Y-93750000D01*
G36*
X120038736Y-78100000D02*
X120177694Y-78798589D01*
X120559499Y-79370000D01*
X120177694Y-79941411D01*
X120038736Y-80640000D01*
X120177694Y-81338589D01*
X120559499Y-81910000D01*
X120177694Y-82481411D01*
X120038736Y-83180000D01*
X120177694Y-83878589D01*
X120559499Y-84450000D01*
X120177694Y-85021411D01*
X120038736Y-85720000D01*
X120177694Y-86418589D01*
X120573413Y-87010823D01*
X121165647Y-87406542D01*
X121864236Y-87545500D01*
X121935764Y-87545500D01*
X122634353Y-87406542D01*
X122868442Y-87250128D01*
X122877055Y-87263513D01*
X123203041Y-87486250D01*
X123261300Y-87498048D01*
X123261300Y-88690000D01*
X123351023Y-89141069D01*
X123606533Y-89523467D01*
X123954366Y-89871300D01*
X121600000Y-89871300D01*
X121148931Y-89961023D01*
X120766533Y-90216533D01*
X120766531Y-90216536D01*
X120066533Y-90916533D01*
X119811023Y-91298931D01*
X119721300Y-91750000D01*
X119721300Y-92938495D01*
X119630000Y-92999499D01*
X119058589Y-92617694D01*
X118360000Y-92478736D01*
X117661411Y-92617694D01*
X117422529Y-92777311D01*
X117422948Y-92296269D01*
X117205292Y-91769501D01*
X116802619Y-91366124D01*
X116276232Y-91147549D01*
X116224438Y-91147504D01*
X115633467Y-90556533D01*
X115504547Y-90470391D01*
X115504547Y-89763880D01*
X115693768Y-89842451D01*
X116263731Y-89842948D01*
X116790499Y-89625292D01*
X117193876Y-89222619D01*
X117412451Y-88696232D01*
X117412845Y-88244611D01*
X118900000Y-88244611D01*
X119261499Y-88176590D01*
X119593513Y-87962945D01*
X119816250Y-87636959D01*
X119894611Y-87250000D01*
X119894611Y-85950000D01*
X119826590Y-85588501D01*
X119612945Y-85256487D01*
X119286959Y-85033750D01*
X118900000Y-84955389D01*
X117200000Y-84955389D01*
X116838501Y-85023410D01*
X116506487Y-85237055D01*
X116415308Y-85370500D01*
X116290000Y-85370500D01*
X115819490Y-85464090D01*
X115694611Y-85547532D01*
X115694611Y-84112377D01*
X115879491Y-84235910D01*
X116350000Y-84329500D01*
X116413690Y-84329500D01*
X116487055Y-84443513D01*
X116813041Y-84666250D01*
X117200000Y-84744611D01*
X118900000Y-84744611D01*
X119261499Y-84676590D01*
X119593513Y-84462945D01*
X119816250Y-84136959D01*
X119894611Y-83750000D01*
X119894611Y-82450000D01*
X119826590Y-82088501D01*
X119612945Y-81756487D01*
X119547027Y-81711447D01*
X119666250Y-81536959D01*
X119744611Y-81150000D01*
X119744611Y-80350000D01*
X119676590Y-79988501D01*
X119555078Y-79799665D01*
X119666250Y-79636959D01*
X119744611Y-79250000D01*
X119744611Y-78450000D01*
X119676590Y-78088501D01*
X119614666Y-77992268D01*
X119674029Y-77932905D01*
X119723731Y-77932948D01*
X120103149Y-77776176D01*
X120038736Y-78100000D01*
X120038736Y-78100000D01*
G37*
X120038736Y-78100000D02*
X120177694Y-78798589D01*
X120559499Y-79370000D01*
X120177694Y-79941411D01*
X120038736Y-80640000D01*
X120177694Y-81338589D01*
X120559499Y-81910000D01*
X120177694Y-82481411D01*
X120038736Y-83180000D01*
X120177694Y-83878589D01*
X120559499Y-84450000D01*
X120177694Y-85021411D01*
X120038736Y-85720000D01*
X120177694Y-86418589D01*
X120573413Y-87010823D01*
X121165647Y-87406542D01*
X121864236Y-87545500D01*
X121935764Y-87545500D01*
X122634353Y-87406542D01*
X122868442Y-87250128D01*
X122877055Y-87263513D01*
X123203041Y-87486250D01*
X123261300Y-87498048D01*
X123261300Y-88690000D01*
X123351023Y-89141069D01*
X123606533Y-89523467D01*
X123954366Y-89871300D01*
X121600000Y-89871300D01*
X121148931Y-89961023D01*
X120766533Y-90216533D01*
X120766531Y-90216536D01*
X120066533Y-90916533D01*
X119811023Y-91298931D01*
X119721300Y-91750000D01*
X119721300Y-92938495D01*
X119630000Y-92999499D01*
X119058589Y-92617694D01*
X118360000Y-92478736D01*
X117661411Y-92617694D01*
X117422529Y-92777311D01*
X117422948Y-92296269D01*
X117205292Y-91769501D01*
X116802619Y-91366124D01*
X116276232Y-91147549D01*
X116224438Y-91147504D01*
X115633467Y-90556533D01*
X115504547Y-90470391D01*
X115504547Y-89763880D01*
X115693768Y-89842451D01*
X116263731Y-89842948D01*
X116790499Y-89625292D01*
X117193876Y-89222619D01*
X117412451Y-88696232D01*
X117412845Y-88244611D01*
X118900000Y-88244611D01*
X119261499Y-88176590D01*
X119593513Y-87962945D01*
X119816250Y-87636959D01*
X119894611Y-87250000D01*
X119894611Y-85950000D01*
X119826590Y-85588501D01*
X119612945Y-85256487D01*
X119286959Y-85033750D01*
X118900000Y-84955389D01*
X117200000Y-84955389D01*
X116838501Y-85023410D01*
X116506487Y-85237055D01*
X116415308Y-85370500D01*
X116290000Y-85370500D01*
X115819490Y-85464090D01*
X115694611Y-85547532D01*
X115694611Y-84112377D01*
X115879491Y-84235910D01*
X116350000Y-84329500D01*
X116413690Y-84329500D01*
X116487055Y-84443513D01*
X116813041Y-84666250D01*
X117200000Y-84744611D01*
X118900000Y-84744611D01*
X119261499Y-84676590D01*
X119593513Y-84462945D01*
X119816250Y-84136959D01*
X119894611Y-83750000D01*
X119894611Y-82450000D01*
X119826590Y-82088501D01*
X119612945Y-81756487D01*
X119547027Y-81711447D01*
X119666250Y-81536959D01*
X119744611Y-81150000D01*
X119744611Y-80350000D01*
X119676590Y-79988501D01*
X119555078Y-79799665D01*
X119666250Y-79636959D01*
X119744611Y-79250000D01*
X119744611Y-78450000D01*
X119676590Y-78088501D01*
X119614666Y-77992268D01*
X119674029Y-77932905D01*
X119723731Y-77932948D01*
X120103149Y-77776176D01*
X120038736Y-78100000D01*
G36*
X124801300Y-92600000D02*
X124801300Y-92938495D01*
X124710000Y-92999499D01*
X124138589Y-92617694D01*
X123440000Y-92478736D01*
X122741411Y-92617694D01*
X122170000Y-92999499D01*
X122078700Y-92938495D01*
X122078700Y-92238234D01*
X122088233Y-92228700D01*
X124875156Y-92228700D01*
X124801300Y-92600000D01*
X124801300Y-92600000D01*
G37*
X124801300Y-92600000D02*
X124801300Y-92938495D01*
X124710000Y-92999499D01*
X124138589Y-92617694D01*
X123440000Y-92478736D01*
X122741411Y-92617694D01*
X122170000Y-92999499D01*
X122078700Y-92938495D01*
X122078700Y-92238234D01*
X122088233Y-92228700D01*
X124875156Y-92228700D01*
X124801300Y-92600000D01*
G36*
X165121300Y-92964366D02*
X164886545Y-92729611D01*
X165121300Y-92729611D01*
X165121300Y-92964366D01*
X165121300Y-92964366D01*
G37*
X165121300Y-92964366D02*
X164886545Y-92729611D01*
X165121300Y-92729611D01*
X165121300Y-92964366D01*
G36*
X107036728Y-92721439D02*
X106903859Y-92776339D01*
X106719611Y-92960266D01*
X106719611Y-92609500D01*
X106872901Y-92609500D01*
X107036728Y-92721439D01*
X107036728Y-92721439D01*
G37*
X107036728Y-92721439D02*
X106903859Y-92776339D01*
X106719611Y-92960266D01*
X106719611Y-92609500D01*
X106872901Y-92609500D01*
X107036728Y-92721439D01*
G36*
X108960000Y-92824611D02*
X109017295Y-92824611D01*
X109017198Y-92936825D01*
X108891289Y-92810697D01*
X108960000Y-92824611D01*
X108960000Y-92824611D01*
G37*
X108960000Y-92824611D02*
X109017295Y-92824611D01*
X109017198Y-92936825D01*
X108891289Y-92810697D01*
X108960000Y-92824611D01*
G36*
X142039773Y-92324589D02*
X142015389Y-92445000D01*
X142015389Y-92747461D01*
X141546269Y-92747052D01*
X141422998Y-92797986D01*
X141225292Y-92319501D01*
X141153816Y-92247900D01*
X142025343Y-92247900D01*
X142039773Y-92324589D01*
X142039773Y-92324589D01*
G37*
X142039773Y-92324589D02*
X142015389Y-92445000D01*
X142015389Y-92747461D01*
X141546269Y-92747052D01*
X141422998Y-92797986D01*
X141225292Y-92319501D01*
X141153816Y-92247900D01*
X142025343Y-92247900D01*
X142039773Y-92324589D01*
G36*
X188944500Y-92215510D02*
X188800501Y-92000000D01*
X188944500Y-91784490D01*
X188944500Y-92215510D01*
X188944500Y-92215510D01*
G37*
X188944500Y-92215510D02*
X188800501Y-92000000D01*
X188944500Y-91784490D01*
X188944500Y-92215510D01*
G36*
X102585000Y-86079611D02*
X102925500Y-86079611D01*
X102925500Y-86717226D01*
X102726269Y-86717052D01*
X102199501Y-86934708D01*
X101796124Y-87337381D01*
X101577549Y-87863768D01*
X101577052Y-88433731D01*
X101597913Y-88484219D01*
X101209501Y-88644708D01*
X100806124Y-89047381D01*
X100587549Y-89573768D01*
X100587052Y-90143731D01*
X100804708Y-90670499D01*
X101207381Y-91073876D01*
X101733768Y-91292451D01*
X102303731Y-91292948D01*
X102830499Y-91075292D01*
X103045003Y-90861162D01*
X103237381Y-91053876D01*
X103763768Y-91272451D01*
X104333731Y-91272948D01*
X104393479Y-91248261D01*
X104289090Y-91404490D01*
X104262058Y-91540389D01*
X103855000Y-91540389D01*
X103507703Y-91605738D01*
X103185000Y-91540389D01*
X102585000Y-91540389D01*
X102237703Y-91605738D01*
X101915000Y-91540389D01*
X101315000Y-91540389D01*
X100967703Y-91605738D01*
X100645000Y-91540389D01*
X100045000Y-91540389D01*
X99697703Y-91605738D01*
X99375000Y-91540389D01*
X98983700Y-91540389D01*
X98983700Y-91385000D01*
X98893977Y-90933931D01*
X98822834Y-90827457D01*
X98822948Y-90696269D01*
X98605292Y-90169501D01*
X98202619Y-89766124D01*
X97676232Y-89547549D01*
X97106269Y-89547052D01*
X96579501Y-89764708D01*
X96176124Y-90167381D01*
X95957549Y-90693768D01*
X95957052Y-91263731D01*
X96083169Y-91568958D01*
X95887703Y-91605738D01*
X95565000Y-91540389D01*
X95173700Y-91540389D01*
X95173700Y-89443234D01*
X96684029Y-87932905D01*
X96733731Y-87932948D01*
X97226113Y-87729500D01*
X97570000Y-87729500D01*
X98040510Y-87635910D01*
X98439388Y-87369388D01*
X98674388Y-87134388D01*
X98940910Y-86735510D01*
X99034500Y-86265000D01*
X99034500Y-86079611D01*
X99375000Y-86079611D01*
X99722297Y-86014262D01*
X100045000Y-86079611D01*
X100645000Y-86079611D01*
X100992297Y-86014262D01*
X101315000Y-86079611D01*
X101915000Y-86079611D01*
X102262297Y-86014262D01*
X102585000Y-86079611D01*
X102585000Y-86079611D01*
G37*
X102585000Y-86079611D02*
X102925500Y-86079611D01*
X102925500Y-86717226D01*
X102726269Y-86717052D01*
X102199501Y-86934708D01*
X101796124Y-87337381D01*
X101577549Y-87863768D01*
X101577052Y-88433731D01*
X101597913Y-88484219D01*
X101209501Y-88644708D01*
X100806124Y-89047381D01*
X100587549Y-89573768D01*
X100587052Y-90143731D01*
X100804708Y-90670499D01*
X101207381Y-91073876D01*
X101733768Y-91292451D01*
X102303731Y-91292948D01*
X102830499Y-91075292D01*
X103045003Y-90861162D01*
X103237381Y-91053876D01*
X103763768Y-91272451D01*
X104333731Y-91272948D01*
X104393479Y-91248261D01*
X104289090Y-91404490D01*
X104262058Y-91540389D01*
X103855000Y-91540389D01*
X103507703Y-91605738D01*
X103185000Y-91540389D01*
X102585000Y-91540389D01*
X102237703Y-91605738D01*
X101915000Y-91540389D01*
X101315000Y-91540389D01*
X100967703Y-91605738D01*
X100645000Y-91540389D01*
X100045000Y-91540389D01*
X99697703Y-91605738D01*
X99375000Y-91540389D01*
X98983700Y-91540389D01*
X98983700Y-91385000D01*
X98893977Y-90933931D01*
X98822834Y-90827457D01*
X98822948Y-90696269D01*
X98605292Y-90169501D01*
X98202619Y-89766124D01*
X97676232Y-89547549D01*
X97106269Y-89547052D01*
X96579501Y-89764708D01*
X96176124Y-90167381D01*
X95957549Y-90693768D01*
X95957052Y-91263731D01*
X96083169Y-91568958D01*
X95887703Y-91605738D01*
X95565000Y-91540389D01*
X95173700Y-91540389D01*
X95173700Y-89443234D01*
X96684029Y-87932905D01*
X96733731Y-87932948D01*
X97226113Y-87729500D01*
X97570000Y-87729500D01*
X98040510Y-87635910D01*
X98439388Y-87369388D01*
X98674388Y-87134388D01*
X98940910Y-86735510D01*
X99034500Y-86265000D01*
X99034500Y-86079611D01*
X99375000Y-86079611D01*
X99722297Y-86014262D01*
X100045000Y-86079611D01*
X100645000Y-86079611D01*
X100992297Y-86014262D01*
X101315000Y-86079611D01*
X101915000Y-86079611D01*
X102262297Y-86014262D01*
X102585000Y-86079611D01*
G36*
X151827645Y-90991300D02*
X151694743Y-90991300D01*
X151748032Y-90938104D01*
X151827645Y-90991300D01*
X151827645Y-90991300D01*
G37*
X151827645Y-90991300D02*
X151694743Y-90991300D01*
X151748032Y-90938104D01*
X151827645Y-90991300D01*
G36*
X138032100Y-90582808D02*
X138030000Y-90584908D01*
X137857992Y-90412900D01*
X138032100Y-90412900D01*
X138032100Y-90582808D01*
X138032100Y-90582808D01*
G37*
X138032100Y-90582808D02*
X138030000Y-90584908D01*
X137857992Y-90412900D01*
X138032100Y-90412900D01*
X138032100Y-90582808D01*
G36*
X105680000Y-89619501D02*
X105680005Y-89619500D01*
X105815453Y-89619500D01*
X105815453Y-90171295D01*
X105449491Y-90244090D01*
X105427376Y-90258867D01*
X105482451Y-90126232D01*
X105482927Y-89580300D01*
X105680000Y-89619501D01*
X105680000Y-89619501D01*
G37*
X105680000Y-89619501D02*
X105680005Y-89619500D01*
X105815453Y-89619500D01*
X105815453Y-90171295D01*
X105449491Y-90244090D01*
X105427376Y-90258867D01*
X105482451Y-90126232D01*
X105482927Y-89580300D01*
X105680000Y-89619501D01*
G36*
X140693324Y-89992100D02*
X140287900Y-89992100D01*
X140287900Y-89586676D01*
X140693324Y-89992100D01*
X140693324Y-89992100D01*
G37*
X140693324Y-89992100D02*
X140287900Y-89992100D01*
X140287900Y-89586676D01*
X140693324Y-89992100D01*
G36*
X188944500Y-89675510D02*
X188800501Y-89460000D01*
X188944500Y-89244490D01*
X188944500Y-89675510D01*
X188944500Y-89675510D01*
G37*
X188944500Y-89675510D02*
X188800501Y-89460000D01*
X188944500Y-89244490D01*
X188944500Y-89675510D01*
G36*
X126008357Y-87435291D02*
X125926124Y-87517381D01*
X125707549Y-88043768D01*
X125707452Y-88155389D01*
X125618700Y-88155389D01*
X125618700Y-87502762D01*
X125651499Y-87496590D01*
X125905933Y-87332867D01*
X126008357Y-87435291D01*
X126008357Y-87435291D01*
G37*
X126008357Y-87435291D02*
X125926124Y-87517381D01*
X125707549Y-88043768D01*
X125707452Y-88155389D01*
X125618700Y-88155389D01*
X125618700Y-87502762D01*
X125651499Y-87496590D01*
X125905933Y-87332867D01*
X126008357Y-87435291D01*
G36*
X171640389Y-87562875D02*
X171640389Y-87811753D01*
X171539611Y-87879091D01*
X171539611Y-87562787D01*
X171640389Y-87562875D01*
X171640389Y-87562875D01*
G37*
X171640389Y-87562875D02*
X171640389Y-87811753D01*
X171539611Y-87879091D01*
X171539611Y-87562787D01*
X171640389Y-87562875D01*
G36*
X114537133Y-87231300D02*
X114121447Y-87231300D01*
X114067751Y-87194611D01*
X114537165Y-87194611D01*
X114537133Y-87231300D01*
X114537133Y-87231300D01*
G37*
X114537133Y-87231300D02*
X114121447Y-87231300D01*
X114067751Y-87194611D01*
X114537165Y-87194611D01*
X114537133Y-87231300D01*
G36*
X106105389Y-86200000D02*
X106173410Y-86561499D01*
X106387055Y-86893513D01*
X106713041Y-87116250D01*
X106854246Y-87144845D01*
X106829916Y-87160500D01*
X106189276Y-87160500D01*
X105384500Y-86355724D01*
X105384500Y-86079611D01*
X105725000Y-86079611D01*
X106086499Y-86011590D01*
X106105389Y-85999435D01*
X106105389Y-86200000D01*
X106105389Y-86200000D01*
G37*
X106105389Y-86200000D02*
X106173410Y-86561499D01*
X106387055Y-86893513D01*
X106713041Y-87116250D01*
X106854246Y-87144845D01*
X106829916Y-87160500D01*
X106189276Y-87160500D01*
X105384500Y-86355724D01*
X105384500Y-86079611D01*
X105725000Y-86079611D01*
X106086499Y-86011590D01*
X106105389Y-85999435D01*
X106105389Y-86200000D01*
G36*
X188944500Y-87135510D02*
X188800501Y-86920000D01*
X188944500Y-86704490D01*
X188944500Y-87135510D01*
X188944500Y-87135510D01*
G37*
X188944500Y-87135510D02*
X188800501Y-86920000D01*
X188944500Y-86704490D01*
X188944500Y-87135510D01*
G36*
X110740612Y-85819388D02*
X111139490Y-86085910D01*
X111155389Y-86089072D01*
X111155389Y-86200000D01*
X111223410Y-86561499D01*
X111437055Y-86893513D01*
X111542249Y-86965389D01*
X111460000Y-86965389D01*
X111098501Y-87033410D01*
X111007021Y-87092276D01*
X110586232Y-86917549D01*
X110336696Y-86917331D01*
X110343513Y-86912945D01*
X110566250Y-86586959D01*
X110644611Y-86200000D01*
X110644611Y-85723387D01*
X110740612Y-85819388D01*
X110740612Y-85819388D01*
G37*
X110740612Y-85819388D02*
X111139490Y-86085910D01*
X111155389Y-86089072D01*
X111155389Y-86200000D01*
X111223410Y-86561499D01*
X111437055Y-86893513D01*
X111542249Y-86965389D01*
X111460000Y-86965389D01*
X111098501Y-87033410D01*
X111007021Y-87092276D01*
X110586232Y-86917549D01*
X110336696Y-86917331D01*
X110343513Y-86912945D01*
X110566250Y-86586959D01*
X110644611Y-86200000D01*
X110644611Y-85723387D01*
X110740612Y-85819388D01*
G36*
X168581300Y-75070000D02*
X168671023Y-75521069D01*
X168926533Y-75903467D01*
X169626531Y-76603464D01*
X169626533Y-76603467D01*
X170008931Y-76858977D01*
X170460000Y-76948700D01*
X173621300Y-76948700D01*
X173621300Y-77454521D01*
X173555389Y-77780000D01*
X173555389Y-78680000D01*
X173623410Y-79041499D01*
X173837055Y-79373513D01*
X174163041Y-79596250D01*
X174550000Y-79674611D01*
X175050000Y-79674611D01*
X175411499Y-79606590D01*
X175548835Y-79518217D01*
X175663041Y-79596250D01*
X176050000Y-79674611D01*
X176550000Y-79674611D01*
X176911499Y-79606590D01*
X177219029Y-79408700D01*
X177491766Y-79408700D01*
X177631300Y-79548234D01*
X177631300Y-86415566D01*
X177599078Y-86436300D01*
X177478700Y-86436300D01*
X177478700Y-85905479D01*
X177544611Y-85580000D01*
X177544611Y-84680000D01*
X177476590Y-84318501D01*
X177262945Y-83986487D01*
X176936959Y-83763750D01*
X176550000Y-83685389D01*
X176050000Y-83685389D01*
X175688501Y-83753410D01*
X175551165Y-83841783D01*
X175436959Y-83763750D01*
X175050000Y-83685389D01*
X174550000Y-83685389D01*
X174188501Y-83753410D01*
X174037506Y-83850572D01*
X173716490Y-83529556D01*
X173973876Y-83272619D01*
X174192451Y-82746232D01*
X174192948Y-82176269D01*
X173975292Y-81649501D01*
X173572619Y-81246124D01*
X173046232Y-81027549D01*
X172476269Y-81027052D01*
X171949501Y-81244708D01*
X171902828Y-81291300D01*
X168655432Y-81291300D01*
X168682451Y-81226232D01*
X168682948Y-80656269D01*
X168465292Y-80129501D01*
X168062619Y-79726124D01*
X167536232Y-79507549D01*
X166966269Y-79507052D01*
X166719678Y-79608941D01*
X166575292Y-79259501D01*
X166536162Y-79220302D01*
X166532990Y-78161041D01*
X166600000Y-78174611D01*
X167100000Y-78174611D01*
X167461499Y-78106590D01*
X167793513Y-77892945D01*
X168016250Y-77566959D01*
X168094611Y-77180000D01*
X168094611Y-76280000D01*
X168028700Y-75929715D01*
X168028700Y-75750000D01*
X167938977Y-75298931D01*
X167683467Y-74916533D01*
X167683464Y-74916531D01*
X167645879Y-74878945D01*
X167923467Y-74693467D01*
X168581300Y-74035634D01*
X168581300Y-75070000D01*
X168581300Y-75070000D01*
G37*
X168581300Y-75070000D02*
X168671023Y-75521069D01*
X168926533Y-75903467D01*
X169626531Y-76603464D01*
X169626533Y-76603467D01*
X170008931Y-76858977D01*
X170460000Y-76948700D01*
X173621300Y-76948700D01*
X173621300Y-77454521D01*
X173555389Y-77780000D01*
X173555389Y-78680000D01*
X173623410Y-79041499D01*
X173837055Y-79373513D01*
X174163041Y-79596250D01*
X174550000Y-79674611D01*
X175050000Y-79674611D01*
X175411499Y-79606590D01*
X175548835Y-79518217D01*
X175663041Y-79596250D01*
X176050000Y-79674611D01*
X176550000Y-79674611D01*
X176911499Y-79606590D01*
X177219029Y-79408700D01*
X177491766Y-79408700D01*
X177631300Y-79548234D01*
X177631300Y-86415566D01*
X177599078Y-86436300D01*
X177478700Y-86436300D01*
X177478700Y-85905479D01*
X177544611Y-85580000D01*
X177544611Y-84680000D01*
X177476590Y-84318501D01*
X177262945Y-83986487D01*
X176936959Y-83763750D01*
X176550000Y-83685389D01*
X176050000Y-83685389D01*
X175688501Y-83753410D01*
X175551165Y-83841783D01*
X175436959Y-83763750D01*
X175050000Y-83685389D01*
X174550000Y-83685389D01*
X174188501Y-83753410D01*
X174037506Y-83850572D01*
X173716490Y-83529556D01*
X173973876Y-83272619D01*
X174192451Y-82746232D01*
X174192948Y-82176269D01*
X173975292Y-81649501D01*
X173572619Y-81246124D01*
X173046232Y-81027549D01*
X172476269Y-81027052D01*
X171949501Y-81244708D01*
X171902828Y-81291300D01*
X168655432Y-81291300D01*
X168682451Y-81226232D01*
X168682948Y-80656269D01*
X168465292Y-80129501D01*
X168062619Y-79726124D01*
X167536232Y-79507549D01*
X166966269Y-79507052D01*
X166719678Y-79608941D01*
X166575292Y-79259501D01*
X166536162Y-79220302D01*
X166532990Y-78161041D01*
X166600000Y-78174611D01*
X167100000Y-78174611D01*
X167461499Y-78106590D01*
X167793513Y-77892945D01*
X168016250Y-77566959D01*
X168094611Y-77180000D01*
X168094611Y-76280000D01*
X168028700Y-75929715D01*
X168028700Y-75750000D01*
X167938977Y-75298931D01*
X167683467Y-74916533D01*
X167683464Y-74916531D01*
X167645879Y-74878945D01*
X167923467Y-74693467D01*
X168581300Y-74035634D01*
X168581300Y-75070000D01*
G36*
X92213768Y-84582451D02*
X92700389Y-84582875D01*
X92700389Y-84892806D01*
X92565000Y-84865389D01*
X91965500Y-84865389D01*
X91965500Y-84479361D01*
X92213768Y-84582451D01*
X92213768Y-84582451D01*
G37*
X92213768Y-84582451D02*
X92700389Y-84582875D01*
X92700389Y-84892806D01*
X92565000Y-84865389D01*
X91965500Y-84865389D01*
X91965500Y-84479361D01*
X92213768Y-84582451D01*
G36*
X188944500Y-84595510D02*
X188800501Y-84380000D01*
X188944500Y-84164490D01*
X188944500Y-84595510D01*
X188944500Y-84595510D01*
G37*
X188944500Y-84595510D02*
X188800501Y-84380000D01*
X188944500Y-84164490D01*
X188944500Y-84595510D01*
G36*
X158876487Y-83997055D02*
X158856935Y-84025670D01*
X158628931Y-84071023D01*
X158518700Y-84144677D01*
X158518700Y-83989611D01*
X158888055Y-83989611D01*
X158876487Y-83997055D01*
X158876487Y-83997055D01*
G37*
X158876487Y-83997055D02*
X158856935Y-84025670D01*
X158628931Y-84071023D01*
X158518700Y-84144677D01*
X158518700Y-83989611D01*
X158888055Y-83989611D01*
X158876487Y-83997055D01*
G36*
X160286224Y-83482100D02*
X160333931Y-83513977D01*
X160532861Y-83553547D01*
X160588041Y-83591250D01*
X160975000Y-83669611D01*
X161875000Y-83669611D01*
X162225285Y-83603700D01*
X162721381Y-83603700D01*
X162631023Y-83738931D01*
X162582813Y-83981300D01*
X162231447Y-83981300D01*
X161956959Y-83793750D01*
X161570000Y-83715389D01*
X161070000Y-83715389D01*
X160708501Y-83783410D01*
X160571165Y-83871783D01*
X160456959Y-83793750D01*
X160070000Y-83715389D01*
X159986945Y-83715389D01*
X159998513Y-83707945D01*
X160194639Y-83420905D01*
X160286224Y-83482100D01*
X160286224Y-83482100D01*
G37*
X160286224Y-83482100D02*
X160333931Y-83513977D01*
X160532861Y-83553547D01*
X160588041Y-83591250D01*
X160975000Y-83669611D01*
X161875000Y-83669611D01*
X162225285Y-83603700D01*
X162721381Y-83603700D01*
X162631023Y-83738931D01*
X162582813Y-83981300D01*
X162231447Y-83981300D01*
X161956959Y-83793750D01*
X161570000Y-83715389D01*
X161070000Y-83715389D01*
X160708501Y-83783410D01*
X160571165Y-83871783D01*
X160456959Y-83793750D01*
X160070000Y-83715389D01*
X159986945Y-83715389D01*
X159998513Y-83707945D01*
X160194639Y-83420905D01*
X160286224Y-83482100D01*
G36*
X102010612Y-80669388D02*
X102409490Y-80935910D01*
X102880000Y-81029500D01*
X104025389Y-81029500D01*
X104025389Y-81075000D01*
X104093410Y-81436499D01*
X104307055Y-81768513D01*
X104336084Y-81788348D01*
X104406109Y-82140389D01*
X103855000Y-82140389D01*
X103507703Y-82205738D01*
X103185000Y-82140389D01*
X102585000Y-82140389D01*
X102237703Y-82205738D01*
X101915000Y-82140389D01*
X101315000Y-82140389D01*
X100967703Y-82205738D01*
X100645000Y-82140389D01*
X100045000Y-82140389D01*
X99697703Y-82205738D01*
X99375000Y-82140389D01*
X98775000Y-82140389D01*
X98641408Y-82165526D01*
X100403467Y-80403467D01*
X100658977Y-80021069D01*
X100748700Y-79570000D01*
X100748700Y-79407476D01*
X102010612Y-80669388D01*
X102010612Y-80669388D01*
G37*
X102010612Y-80669388D02*
X102409490Y-80935910D01*
X102880000Y-81029500D01*
X104025389Y-81029500D01*
X104025389Y-81075000D01*
X104093410Y-81436499D01*
X104307055Y-81768513D01*
X104336084Y-81788348D01*
X104406109Y-82140389D01*
X103855000Y-82140389D01*
X103507703Y-82205738D01*
X103185000Y-82140389D01*
X102585000Y-82140389D01*
X102237703Y-82205738D01*
X101915000Y-82140389D01*
X101315000Y-82140389D01*
X100967703Y-82205738D01*
X100645000Y-82140389D01*
X100045000Y-82140389D01*
X99697703Y-82205738D01*
X99375000Y-82140389D01*
X98775000Y-82140389D01*
X98641408Y-82165526D01*
X100403467Y-80403467D01*
X100658977Y-80021069D01*
X100748700Y-79570000D01*
X100748700Y-79407476D01*
X102010612Y-80669388D01*
G36*
X188944500Y-82055510D02*
X188800501Y-81840000D01*
X188944500Y-81624490D01*
X188944500Y-82055510D01*
X188944500Y-82055510D01*
G37*
X188944500Y-82055510D02*
X188800501Y-81840000D01*
X188944500Y-81624490D01*
X188944500Y-82055510D01*
G36*
X155051300Y-81944366D02*
X154968467Y-81861533D01*
X154883464Y-81804736D01*
X154899611Y-81725000D01*
X154899611Y-81125000D01*
X154834262Y-80777703D01*
X154899611Y-80455000D01*
X154899611Y-80332866D01*
X154993731Y-80332948D01*
X155051300Y-80309161D01*
X155051300Y-81944366D01*
X155051300Y-81944366D01*
G37*
X155051300Y-81944366D02*
X154968467Y-81861533D01*
X154883464Y-81804736D01*
X154899611Y-81725000D01*
X154899611Y-81125000D01*
X154834262Y-80777703D01*
X154899611Y-80455000D01*
X154899611Y-80332866D01*
X154993731Y-80332948D01*
X155051300Y-80309161D01*
X155051300Y-81944366D01*
G36*
X116922671Y-81507572D02*
X116838501Y-81523410D01*
X116639950Y-81651174D01*
X116183387Y-81194611D01*
X116750000Y-81194611D01*
X116859892Y-81173933D01*
X116922671Y-81507572D01*
X116922671Y-81507572D01*
G37*
X116922671Y-81507572D02*
X116838501Y-81523410D01*
X116639950Y-81651174D01*
X116183387Y-81194611D01*
X116750000Y-81194611D01*
X116859892Y-81173933D01*
X116922671Y-81507572D01*
G36*
X144765389Y-75270000D02*
X144833410Y-75631499D01*
X144921783Y-75768835D01*
X144843750Y-75883041D01*
X144765389Y-76270000D01*
X144765389Y-76770000D01*
X144813166Y-77023911D01*
X144767549Y-77133768D01*
X144767052Y-77703731D01*
X144860148Y-77929041D01*
X144843750Y-77953041D01*
X144765389Y-78340000D01*
X144765389Y-78840000D01*
X144833410Y-79201499D01*
X144921783Y-79338835D01*
X144843750Y-79453041D01*
X144765389Y-79840000D01*
X144765389Y-80340000D01*
X144801385Y-80531300D01*
X144680005Y-80531300D01*
X144680000Y-80531299D01*
X144679995Y-80531300D01*
X144477897Y-80531300D01*
X144514611Y-80350000D01*
X144514611Y-79850000D01*
X144446590Y-79488501D01*
X144358217Y-79351165D01*
X144436250Y-79236959D01*
X144514611Y-78850000D01*
X144514611Y-78350000D01*
X144446590Y-77988501D01*
X144383498Y-77890454D01*
X144472451Y-77676232D01*
X144472948Y-77106269D01*
X144428365Y-76998370D01*
X144474611Y-76770000D01*
X144474611Y-76270000D01*
X144406590Y-75908501D01*
X144318217Y-75771165D01*
X144396250Y-75656959D01*
X144474611Y-75270000D01*
X144474611Y-74938700D01*
X144765389Y-74938700D01*
X144765389Y-75270000D01*
X144765389Y-75270000D01*
G37*
X144765389Y-75270000D02*
X144833410Y-75631499D01*
X144921783Y-75768835D01*
X144843750Y-75883041D01*
X144765389Y-76270000D01*
X144765389Y-76770000D01*
X144813166Y-77023911D01*
X144767549Y-77133768D01*
X144767052Y-77703731D01*
X144860148Y-77929041D01*
X144843750Y-77953041D01*
X144765389Y-78340000D01*
X144765389Y-78840000D01*
X144833410Y-79201499D01*
X144921783Y-79338835D01*
X144843750Y-79453041D01*
X144765389Y-79840000D01*
X144765389Y-80340000D01*
X144801385Y-80531300D01*
X144680005Y-80531300D01*
X144680000Y-80531299D01*
X144679995Y-80531300D01*
X144477897Y-80531300D01*
X144514611Y-80350000D01*
X144514611Y-79850000D01*
X144446590Y-79488501D01*
X144358217Y-79351165D01*
X144436250Y-79236959D01*
X144514611Y-78850000D01*
X144514611Y-78350000D01*
X144446590Y-77988501D01*
X144383498Y-77890454D01*
X144472451Y-77676232D01*
X144472948Y-77106269D01*
X144428365Y-76998370D01*
X144474611Y-76770000D01*
X144474611Y-76270000D01*
X144406590Y-75908501D01*
X144318217Y-75771165D01*
X144396250Y-75656959D01*
X144474611Y-75270000D01*
X144474611Y-74938700D01*
X144765389Y-74938700D01*
X144765389Y-75270000D01*
G36*
X97271300Y-78551766D02*
X95394611Y-80428455D01*
X95394611Y-79865000D01*
X95326590Y-79503501D01*
X95178700Y-79273673D01*
X95178700Y-78952332D01*
X95535082Y-78881443D01*
X96005658Y-78567014D01*
X96049803Y-78500946D01*
X96311069Y-78448977D01*
X96693467Y-78193467D01*
X97271300Y-77615634D01*
X97271300Y-78551766D01*
X97271300Y-78551766D01*
G37*
X97271300Y-78551766D02*
X95394611Y-80428455D01*
X95394611Y-79865000D01*
X95326590Y-79503501D01*
X95178700Y-79273673D01*
X95178700Y-78952332D01*
X95535082Y-78881443D01*
X96005658Y-78567014D01*
X96049803Y-78500946D01*
X96311069Y-78448977D01*
X96693467Y-78193467D01*
X97271300Y-77615634D01*
X97271300Y-78551766D01*
G36*
X129874500Y-77329234D02*
X129673750Y-77623041D01*
X129595389Y-78010000D01*
X129595389Y-79749493D01*
X129252619Y-79406124D01*
X128726232Y-79187549D01*
X128156269Y-79187052D01*
X127629501Y-79404708D01*
X127400372Y-79633438D01*
X126293467Y-78526533D01*
X126225460Y-78481092D01*
X126301264Y-78100000D01*
X126162306Y-77401411D01*
X125766587Y-76809177D01*
X125556349Y-76668700D01*
X126475633Y-76668700D01*
X126674708Y-77150499D01*
X127077381Y-77553876D01*
X127603768Y-77772451D01*
X128173731Y-77772948D01*
X128700499Y-77555292D01*
X129103876Y-77152619D01*
X129322451Y-76626232D01*
X129322496Y-76574437D01*
X129573464Y-76323469D01*
X129573467Y-76323467D01*
X129778234Y-76118700D01*
X129874500Y-76118700D01*
X129874500Y-77329234D01*
X129874500Y-77329234D01*
G37*
X129874500Y-77329234D02*
X129673750Y-77623041D01*
X129595389Y-78010000D01*
X129595389Y-79749493D01*
X129252619Y-79406124D01*
X128726232Y-79187549D01*
X128156269Y-79187052D01*
X127629501Y-79404708D01*
X127400372Y-79633438D01*
X126293467Y-78526533D01*
X126225460Y-78481092D01*
X126301264Y-78100000D01*
X126162306Y-77401411D01*
X125766587Y-76809177D01*
X125556349Y-76668700D01*
X126475633Y-76668700D01*
X126674708Y-77150499D01*
X127077381Y-77553876D01*
X127603768Y-77772451D01*
X128173731Y-77772948D01*
X128700499Y-77555292D01*
X129103876Y-77152619D01*
X129322451Y-76626232D01*
X129322496Y-76574437D01*
X129573464Y-76323469D01*
X129573467Y-76323467D01*
X129778234Y-76118700D01*
X129874500Y-76118700D01*
X129874500Y-77329234D01*
G36*
X188944500Y-79515510D02*
X188800501Y-79300000D01*
X188944500Y-79084490D01*
X188944500Y-79515510D01*
X188944500Y-79515510D01*
G37*
X188944500Y-79515510D02*
X188800501Y-79300000D01*
X188944500Y-79084490D01*
X188944500Y-79515510D01*
G36*
X138720000Y-77678701D02*
X138720005Y-77678700D01*
X138984521Y-77678700D01*
X139283767Y-77739299D01*
X138826533Y-78196533D01*
X138571023Y-78578931D01*
X138488700Y-78992798D01*
X138488700Y-77632692D01*
X138720000Y-77678701D01*
X138720000Y-77678701D01*
G37*
X138720000Y-77678701D02*
X138720005Y-77678700D01*
X138984521Y-77678700D01*
X139283767Y-77739299D01*
X138826533Y-78196533D01*
X138571023Y-78578931D01*
X138488700Y-78992798D01*
X138488700Y-77632692D01*
X138720000Y-77678701D01*
G36*
X102500000Y-74794611D02*
X104000000Y-74794611D01*
X104320500Y-74734305D01*
X104320500Y-77820817D01*
X104103750Y-78138041D01*
X104025389Y-78525000D01*
X104025389Y-78570500D01*
X103389276Y-78570500D01*
X102179500Y-77360724D01*
X102179500Y-74729708D01*
X102500000Y-74794611D01*
X102500000Y-74794611D01*
G37*
X102500000Y-74794611D02*
X104000000Y-74794611D01*
X104320500Y-74734305D01*
X104320500Y-77820817D01*
X104103750Y-78138041D01*
X104025389Y-78525000D01*
X104025389Y-78570500D01*
X103389276Y-78570500D01*
X102179500Y-77360724D01*
X102179500Y-74729708D01*
X102500000Y-74794611D01*
G36*
X117121300Y-77788553D02*
X116933750Y-78063041D01*
X116859916Y-78427647D01*
X116750000Y-78405389D01*
X116528700Y-78405389D01*
X116528700Y-77894611D01*
X116600000Y-77894611D01*
X116961499Y-77826590D01*
X117121300Y-77723761D01*
X117121300Y-77788553D01*
X117121300Y-77788553D01*
G37*
X117121300Y-77788553D02*
X116933750Y-78063041D01*
X116859916Y-78427647D01*
X116750000Y-78405389D01*
X116528700Y-78405389D01*
X116528700Y-77894611D01*
X116600000Y-77894611D01*
X116961499Y-77826590D01*
X117121300Y-77723761D01*
X117121300Y-77788553D01*
G36*
X164175271Y-78058337D02*
X164118366Y-78001432D01*
X164174992Y-77964994D01*
X164175271Y-78058337D01*
X164175271Y-78058337D01*
G37*
X164175271Y-78058337D02*
X164118366Y-78001432D01*
X164174992Y-77964994D01*
X164175271Y-78058337D01*
G36*
X113105389Y-73850000D02*
X113173410Y-74211499D01*
X113294922Y-74400335D01*
X113183750Y-74563041D01*
X113105389Y-74950000D01*
X113105389Y-76900000D01*
X113173410Y-77261499D01*
X113387055Y-77593513D01*
X113638604Y-77765389D01*
X113420000Y-77765389D01*
X113058501Y-77833410D01*
X112921165Y-77921783D01*
X112806959Y-77843750D01*
X112420000Y-77765389D01*
X111920000Y-77765389D01*
X111767386Y-77794105D01*
X111893513Y-77712945D01*
X112116250Y-77386959D01*
X112194611Y-77000000D01*
X112194611Y-74450000D01*
X112126590Y-74088501D01*
X111912945Y-73756487D01*
X111586959Y-73533750D01*
X111382873Y-73492422D01*
X111382948Y-73406269D01*
X111192195Y-72944611D01*
X111200000Y-72944611D01*
X111561499Y-72876590D01*
X111893513Y-72662945D01*
X112116250Y-72336959D01*
X112189245Y-71976500D01*
X113105389Y-71976500D01*
X113105389Y-73850000D01*
X113105389Y-73850000D01*
G37*
X113105389Y-73850000D02*
X113173410Y-74211499D01*
X113294922Y-74400335D01*
X113183750Y-74563041D01*
X113105389Y-74950000D01*
X113105389Y-76900000D01*
X113173410Y-77261499D01*
X113387055Y-77593513D01*
X113638604Y-77765389D01*
X113420000Y-77765389D01*
X113058501Y-77833410D01*
X112921165Y-77921783D01*
X112806959Y-77843750D01*
X112420000Y-77765389D01*
X111920000Y-77765389D01*
X111767386Y-77794105D01*
X111893513Y-77712945D01*
X112116250Y-77386959D01*
X112194611Y-77000000D01*
X112194611Y-74450000D01*
X112126590Y-74088501D01*
X111912945Y-73756487D01*
X111586959Y-73533750D01*
X111382873Y-73492422D01*
X111382948Y-73406269D01*
X111192195Y-72944611D01*
X111200000Y-72944611D01*
X111561499Y-72876590D01*
X111893513Y-72662945D01*
X112116250Y-72336959D01*
X112189245Y-71976500D01*
X113105389Y-71976500D01*
X113105389Y-73850000D01*
G36*
X108593500Y-66441880D02*
X108593500Y-68425428D01*
X108338501Y-68473410D01*
X108006487Y-68687055D01*
X107783750Y-69013041D01*
X107705389Y-69400000D01*
X107705389Y-71950000D01*
X107773410Y-72311499D01*
X107987055Y-72643513D01*
X108313041Y-72866250D01*
X108700000Y-72944611D01*
X108708208Y-72944611D01*
X108517549Y-73403768D01*
X108517474Y-73489734D01*
X108338501Y-73523410D01*
X108006487Y-73737055D01*
X107783750Y-74063041D01*
X107705389Y-74450000D01*
X107705389Y-77000000D01*
X107773410Y-77361499D01*
X107882088Y-77530389D01*
X107220000Y-77530389D01*
X106858501Y-77598410D01*
X106779500Y-77649246D01*
X106779500Y-74650658D01*
X106993513Y-74512945D01*
X107216250Y-74186959D01*
X107294611Y-73800000D01*
X107294611Y-71800000D01*
X107226590Y-71438501D01*
X107012945Y-71106487D01*
X106896500Y-71026923D01*
X106896500Y-70269142D01*
X106972451Y-70086232D01*
X106972948Y-69516269D01*
X106755292Y-68989501D01*
X106352619Y-68586124D01*
X105826232Y-68367549D01*
X105603553Y-68367355D01*
X105843513Y-68212945D01*
X106066250Y-67886959D01*
X106144611Y-67500000D01*
X106144611Y-65645496D01*
X106719463Y-65645998D01*
X107482385Y-65330765D01*
X108593500Y-66441880D01*
X108593500Y-66441880D01*
G37*
X108593500Y-66441880D02*
X108593500Y-68425428D01*
X108338501Y-68473410D01*
X108006487Y-68687055D01*
X107783750Y-69013041D01*
X107705389Y-69400000D01*
X107705389Y-71950000D01*
X107773410Y-72311499D01*
X107987055Y-72643513D01*
X108313041Y-72866250D01*
X108700000Y-72944611D01*
X108708208Y-72944611D01*
X108517549Y-73403768D01*
X108517474Y-73489734D01*
X108338501Y-73523410D01*
X108006487Y-73737055D01*
X107783750Y-74063041D01*
X107705389Y-74450000D01*
X107705389Y-77000000D01*
X107773410Y-77361499D01*
X107882088Y-77530389D01*
X107220000Y-77530389D01*
X106858501Y-77598410D01*
X106779500Y-77649246D01*
X106779500Y-74650658D01*
X106993513Y-74512945D01*
X107216250Y-74186959D01*
X107294611Y-73800000D01*
X107294611Y-71800000D01*
X107226590Y-71438501D01*
X107012945Y-71106487D01*
X106896500Y-71026923D01*
X106896500Y-70269142D01*
X106972451Y-70086232D01*
X106972948Y-69516269D01*
X106755292Y-68989501D01*
X106352619Y-68586124D01*
X105826232Y-68367549D01*
X105603553Y-68367355D01*
X105843513Y-68212945D01*
X106066250Y-67886959D01*
X106144611Y-67500000D01*
X106144611Y-65645496D01*
X106719463Y-65645998D01*
X107482385Y-65330765D01*
X108593500Y-66441880D01*
G36*
X153213456Y-77590389D02*
X152405067Y-77590389D01*
X152235292Y-77179501D01*
X152198700Y-77142845D01*
X152198700Y-77000005D01*
X152198701Y-77000000D01*
X152108977Y-76548931D01*
X152050424Y-76461300D01*
X151982075Y-76359009D01*
X153213456Y-77590389D01*
X153213456Y-77590389D01*
G37*
X153213456Y-77590389D02*
X152405067Y-77590389D01*
X152235292Y-77179501D01*
X152198700Y-77142845D01*
X152198700Y-77000005D01*
X152198701Y-77000000D01*
X152108977Y-76548931D01*
X152050424Y-76461300D01*
X151982075Y-76359009D01*
X153213456Y-77590389D01*
G36*
X188944500Y-76975510D02*
X188795501Y-76752517D01*
X188944500Y-76529524D01*
X188944500Y-76975510D01*
X188944500Y-76975510D01*
G37*
X188944500Y-76975510D02*
X188795501Y-76752517D01*
X188944500Y-76529524D01*
X188944500Y-76975510D01*
G36*
X92154708Y-74460499D02*
X92393472Y-74699680D01*
X92428731Y-74752449D01*
X92357956Y-74858371D01*
X92333763Y-74980000D01*
X92186124Y-75127381D01*
X91967549Y-75653768D01*
X91967052Y-76223731D01*
X92184708Y-76750499D01*
X92318475Y-76884500D01*
X91970706Y-76884500D01*
X91965500Y-76885536D01*
X91965500Y-74002580D01*
X92154708Y-74460499D01*
X92154708Y-74460499D01*
G37*
X92154708Y-74460499D02*
X92393472Y-74699680D01*
X92428731Y-74752449D01*
X92357956Y-74858371D01*
X92333763Y-74980000D01*
X92186124Y-75127381D01*
X91967549Y-75653768D01*
X91967052Y-76223731D01*
X92184708Y-76750499D01*
X92318475Y-76884500D01*
X91970706Y-76884500D01*
X91965500Y-76885536D01*
X91965500Y-74002580D01*
X92154708Y-74460499D01*
G36*
X121313041Y-67846250D02*
X121700000Y-67924611D01*
X122200000Y-67924611D01*
X122561499Y-67856590D01*
X122604056Y-67829205D01*
X122615586Y-67890484D01*
X122606533Y-67896533D01*
X122406533Y-68096533D01*
X122151023Y-68478931D01*
X122061300Y-68930000D01*
X122061300Y-74350000D01*
X122151023Y-74801069D01*
X122406533Y-75183467D01*
X123326531Y-76103464D01*
X123326533Y-76103467D01*
X123546533Y-76323467D01*
X123693431Y-76421621D01*
X123170000Y-76771367D01*
X122634353Y-76413458D01*
X121935764Y-76274500D01*
X121864236Y-76274500D01*
X121165647Y-76413458D01*
X120872605Y-76609263D01*
X120872948Y-76216269D01*
X120655292Y-75689501D01*
X120252619Y-75286124D01*
X119923859Y-75149611D01*
X120675000Y-75149611D01*
X121036499Y-75081590D01*
X121368513Y-74867945D01*
X121591250Y-74541959D01*
X121669611Y-74155000D01*
X121669611Y-73555000D01*
X121604262Y-73207703D01*
X121669611Y-72885000D01*
X121669611Y-72285000D01*
X121604262Y-71937703D01*
X121669611Y-71615000D01*
X121669611Y-71015000D01*
X121604262Y-70667703D01*
X121669611Y-70345000D01*
X121669611Y-69745000D01*
X121601590Y-69383501D01*
X121387945Y-69051487D01*
X121061959Y-68828750D01*
X120675000Y-68750389D01*
X119279165Y-68750389D01*
X119172106Y-68643330D01*
X119483513Y-68442945D01*
X119706250Y-68116959D01*
X119767387Y-67815056D01*
X119813041Y-67846250D01*
X120200000Y-67924611D01*
X120700000Y-67924611D01*
X121061499Y-67856590D01*
X121198835Y-67768217D01*
X121313041Y-67846250D01*
X121313041Y-67846250D01*
G37*
X121313041Y-67846250D02*
X121700000Y-67924611D01*
X122200000Y-67924611D01*
X122561499Y-67856590D01*
X122604056Y-67829205D01*
X122615586Y-67890484D01*
X122606533Y-67896533D01*
X122406533Y-68096533D01*
X122151023Y-68478931D01*
X122061300Y-68930000D01*
X122061300Y-74350000D01*
X122151023Y-74801069D01*
X122406533Y-75183467D01*
X123326531Y-76103464D01*
X123326533Y-76103467D01*
X123546533Y-76323467D01*
X123693431Y-76421621D01*
X123170000Y-76771367D01*
X122634353Y-76413458D01*
X121935764Y-76274500D01*
X121864236Y-76274500D01*
X121165647Y-76413458D01*
X120872605Y-76609263D01*
X120872948Y-76216269D01*
X120655292Y-75689501D01*
X120252619Y-75286124D01*
X119923859Y-75149611D01*
X120675000Y-75149611D01*
X121036499Y-75081590D01*
X121368513Y-74867945D01*
X121591250Y-74541959D01*
X121669611Y-74155000D01*
X121669611Y-73555000D01*
X121604262Y-73207703D01*
X121669611Y-72885000D01*
X121669611Y-72285000D01*
X121604262Y-71937703D01*
X121669611Y-71615000D01*
X121669611Y-71015000D01*
X121604262Y-70667703D01*
X121669611Y-70345000D01*
X121669611Y-69745000D01*
X121601590Y-69383501D01*
X121387945Y-69051487D01*
X121061959Y-68828750D01*
X120675000Y-68750389D01*
X119279165Y-68750389D01*
X119172106Y-68643330D01*
X119483513Y-68442945D01*
X119706250Y-68116959D01*
X119767387Y-67815056D01*
X119813041Y-67846250D01*
X120200000Y-67924611D01*
X120700000Y-67924611D01*
X121061499Y-67856590D01*
X121198835Y-67768217D01*
X121313041Y-67846250D01*
G36*
X118738041Y-75071250D02*
X119011894Y-75126707D01*
X118629501Y-75284708D01*
X118226124Y-75687381D01*
X118007549Y-76213768D01*
X118007504Y-76265563D01*
X117594611Y-76678455D01*
X117594611Y-75039754D01*
X117793768Y-75122451D01*
X118363731Y-75122948D01*
X118579728Y-75033700D01*
X118683085Y-75033700D01*
X118738041Y-75071250D01*
X118738041Y-75071250D01*
G37*
X118738041Y-75071250D02*
X119011894Y-75126707D01*
X118629501Y-75284708D01*
X118226124Y-75687381D01*
X118007549Y-76213768D01*
X118007504Y-76265563D01*
X117594611Y-76678455D01*
X117594611Y-75039754D01*
X117793768Y-75122451D01*
X118363731Y-75122948D01*
X118579728Y-75033700D01*
X118683085Y-75033700D01*
X118738041Y-75071250D01*
G36*
X154750000Y-75468700D02*
X157071300Y-75468700D01*
X157071300Y-75500000D01*
X157082959Y-75558613D01*
X156718931Y-75631023D01*
X156336533Y-75886533D01*
X155580744Y-76642322D01*
X155543467Y-76586533D01*
X155543464Y-76586531D01*
X154345093Y-75388159D01*
X154750000Y-75468700D01*
X154750000Y-75468700D01*
G37*
X154750000Y-75468700D02*
X157071300Y-75468700D01*
X157071300Y-75500000D01*
X157082959Y-75558613D01*
X156718931Y-75631023D01*
X156336533Y-75886533D01*
X155580744Y-76642322D01*
X155543467Y-76586533D01*
X155543464Y-76586531D01*
X154345093Y-75388159D01*
X154750000Y-75468700D01*
G36*
X141343768Y-76072451D02*
X141414358Y-76072513D01*
X141468931Y-76108977D01*
X141612225Y-76137480D01*
X141597276Y-76211300D01*
X141300000Y-76211300D01*
X141201033Y-76230986D01*
X141156577Y-75994723D01*
X141343768Y-76072451D01*
X141343768Y-76072451D01*
G37*
X141343768Y-76072451D02*
X141414358Y-76072513D01*
X141468931Y-76108977D01*
X141612225Y-76137480D01*
X141597276Y-76211300D01*
X141300000Y-76211300D01*
X141201033Y-76230986D01*
X141156577Y-75994723D01*
X141343768Y-76072451D01*
G36*
X188944500Y-74450476D02*
X188790501Y-74220000D01*
X188944500Y-73989524D01*
X188944500Y-74450476D01*
X188944500Y-74450476D01*
G37*
X188944500Y-74450476D02*
X188790501Y-74220000D01*
X188944500Y-73989524D01*
X188944500Y-74450476D01*
G36*
X132663041Y-73366250D02*
X133050000Y-73444611D01*
X135574989Y-73444611D01*
X135533142Y-73545389D01*
X134915000Y-73545389D01*
X134553501Y-73613410D01*
X134323673Y-73761300D01*
X132563270Y-73761300D01*
X132361959Y-73623750D01*
X132279818Y-73607116D01*
X132578469Y-73308465D01*
X132663041Y-73366250D01*
X132663041Y-73366250D01*
G37*
X132663041Y-73366250D02*
X133050000Y-73444611D01*
X135574989Y-73444611D01*
X135533142Y-73545389D01*
X134915000Y-73545389D01*
X134553501Y-73613410D01*
X134323673Y-73761300D01*
X132563270Y-73761300D01*
X132361959Y-73623750D01*
X132279818Y-73607116D01*
X132578469Y-73308465D01*
X132663041Y-73366250D01*
G36*
X178700500Y-73060724D02*
X178170724Y-73590500D01*
X177763922Y-73590500D01*
X177636959Y-73503750D01*
X177250000Y-73425389D01*
X176350000Y-73425389D01*
X176240108Y-73446067D01*
X176176590Y-73108501D01*
X175962945Y-72776487D01*
X175829555Y-72685346D01*
X175900000Y-72699611D01*
X176700000Y-72699611D01*
X177061499Y-72631590D01*
X177393513Y-72417945D01*
X177616250Y-72091959D01*
X177694611Y-71705000D01*
X177694611Y-70955000D01*
X177626590Y-70593501D01*
X177468700Y-70348133D01*
X177468700Y-69967106D01*
X177773467Y-69763467D01*
X178553464Y-68983469D01*
X178553467Y-68983467D01*
X178700500Y-68763416D01*
X178700500Y-73060724D01*
X178700500Y-73060724D01*
G37*
X178700500Y-73060724D02*
X178170724Y-73590500D01*
X177763922Y-73590500D01*
X177636959Y-73503750D01*
X177250000Y-73425389D01*
X176350000Y-73425389D01*
X176240108Y-73446067D01*
X176176590Y-73108501D01*
X175962945Y-72776487D01*
X175829555Y-72685346D01*
X175900000Y-72699611D01*
X176700000Y-72699611D01*
X177061499Y-72631590D01*
X177393513Y-72417945D01*
X177616250Y-72091959D01*
X177694611Y-71705000D01*
X177694611Y-70955000D01*
X177626590Y-70593501D01*
X177468700Y-70348133D01*
X177468700Y-69967106D01*
X177773467Y-69763467D01*
X178553464Y-68983469D01*
X178553467Y-68983467D01*
X178700500Y-68763416D01*
X178700500Y-73060724D01*
G36*
X141143041Y-72736250D02*
X141395457Y-72787365D01*
X141546533Y-73013467D01*
X141740462Y-73207396D01*
X141346269Y-73207052D01*
X140938700Y-73375456D01*
X140938700Y-72596630D01*
X141143041Y-72736250D01*
X141143041Y-72736250D01*
G37*
X141143041Y-72736250D02*
X141395457Y-72787365D01*
X141546533Y-73013467D01*
X141740462Y-73207396D01*
X141346269Y-73207052D01*
X140938700Y-73375456D01*
X140938700Y-72596630D01*
X141143041Y-72736250D01*
G36*
X91970706Y-72835500D02*
X92158008Y-72835500D01*
X92156124Y-72837381D01*
X91965500Y-73296455D01*
X91965500Y-72834464D01*
X91970706Y-72835500D01*
X91970706Y-72835500D01*
G37*
X91970706Y-72835500D02*
X92158008Y-72835500D01*
X92156124Y-72837381D01*
X91965500Y-73296455D01*
X91965500Y-72834464D01*
X91970706Y-72835500D01*
G36*
X136797381Y-71703876D02*
X137201300Y-71871598D01*
X137201300Y-72704568D01*
X137136232Y-72677549D01*
X136566269Y-72677052D01*
X136547021Y-72685005D01*
X136594611Y-72450000D01*
X136594611Y-71500751D01*
X136797381Y-71703876D01*
X136797381Y-71703876D01*
G37*
X136797381Y-71703876D02*
X137201300Y-71871598D01*
X137201300Y-72704568D01*
X137136232Y-72677549D01*
X136566269Y-72677052D01*
X136547021Y-72685005D01*
X136594611Y-72450000D01*
X136594611Y-71500751D01*
X136797381Y-71703876D01*
G36*
X173774214Y-72681300D02*
X173747132Y-72681300D01*
X173822803Y-72650033D01*
X173774214Y-72681300D01*
X173774214Y-72681300D01*
G37*
X173774214Y-72681300D02*
X173747132Y-72681300D01*
X173822803Y-72650033D01*
X173774214Y-72681300D01*
G36*
X159796533Y-72426533D02*
X159762860Y-72476928D01*
X159762902Y-72429165D01*
X159849852Y-72373214D01*
X159796533Y-72426533D01*
X159796533Y-72426533D01*
G37*
X159796533Y-72426533D02*
X159762860Y-72476928D01*
X159762902Y-72429165D01*
X159849852Y-72373214D01*
X159796533Y-72426533D01*
G36*
X124623750Y-61613041D02*
X124545389Y-62000000D01*
X124545389Y-63429948D01*
X124150000Y-63351300D01*
X123597734Y-63351300D01*
X123562619Y-63316124D01*
X123036232Y-63097549D01*
X122466269Y-63097052D01*
X121939501Y-63314708D01*
X121536124Y-63717381D01*
X121317549Y-64243768D01*
X121317052Y-64813731D01*
X121429658Y-65086258D01*
X121338501Y-65103410D01*
X121201165Y-65191783D01*
X121086959Y-65113750D01*
X120700000Y-65035389D01*
X120200000Y-65035389D01*
X119838501Y-65103410D01*
X119769184Y-65148014D01*
X119716590Y-64868501D01*
X119502945Y-64536487D01*
X119176959Y-64313750D01*
X118790000Y-64235389D01*
X116240000Y-64235389D01*
X115878501Y-64303410D01*
X115546487Y-64517055D01*
X115323750Y-64843041D01*
X115245389Y-65230000D01*
X115245389Y-67730000D01*
X115313410Y-68091499D01*
X115527055Y-68423513D01*
X115853041Y-68646250D01*
X116240000Y-68724611D01*
X116285500Y-68724611D01*
X116285500Y-68725000D01*
X116379090Y-69195510D01*
X116645612Y-69594388D01*
X117965612Y-70914388D01*
X118130389Y-71024488D01*
X118130389Y-71615000D01*
X118195738Y-71962297D01*
X118135989Y-72257348D01*
X117796269Y-72257052D01*
X117594611Y-72340375D01*
X117594611Y-71900000D01*
X117526590Y-71538501D01*
X117312945Y-71206487D01*
X116986959Y-70983750D01*
X116796295Y-70945140D01*
X116812451Y-70906232D01*
X116812948Y-70336269D01*
X116595292Y-69809501D01*
X116192619Y-69406124D01*
X115666232Y-69187549D01*
X115096269Y-69187052D01*
X114911251Y-69263500D01*
X112168927Y-69263500D01*
X112126590Y-69038501D01*
X111924607Y-68724611D01*
X113740000Y-68724611D01*
X114101499Y-68656590D01*
X114433513Y-68442945D01*
X114656250Y-68116959D01*
X114734611Y-67730000D01*
X114734611Y-65230000D01*
X114666590Y-64868501D01*
X114452945Y-64536487D01*
X114126959Y-64313750D01*
X113740000Y-64235389D01*
X111190000Y-64235389D01*
X110828501Y-64303410D01*
X110501932Y-64513552D01*
X109025268Y-63036888D01*
X109025998Y-62200537D01*
X108652044Y-61295500D01*
X124840717Y-61295500D01*
X124623750Y-61613041D01*
X124623750Y-61613041D01*
G37*
X124623750Y-61613041D02*
X124545389Y-62000000D01*
X124545389Y-63429948D01*
X124150000Y-63351300D01*
X123597734Y-63351300D01*
X123562619Y-63316124D01*
X123036232Y-63097549D01*
X122466269Y-63097052D01*
X121939501Y-63314708D01*
X121536124Y-63717381D01*
X121317549Y-64243768D01*
X121317052Y-64813731D01*
X121429658Y-65086258D01*
X121338501Y-65103410D01*
X121201165Y-65191783D01*
X121086959Y-65113750D01*
X120700000Y-65035389D01*
X120200000Y-65035389D01*
X119838501Y-65103410D01*
X119769184Y-65148014D01*
X119716590Y-64868501D01*
X119502945Y-64536487D01*
X119176959Y-64313750D01*
X118790000Y-64235389D01*
X116240000Y-64235389D01*
X115878501Y-64303410D01*
X115546487Y-64517055D01*
X115323750Y-64843041D01*
X115245389Y-65230000D01*
X115245389Y-67730000D01*
X115313410Y-68091499D01*
X115527055Y-68423513D01*
X115853041Y-68646250D01*
X116240000Y-68724611D01*
X116285500Y-68724611D01*
X116285500Y-68725000D01*
X116379090Y-69195510D01*
X116645612Y-69594388D01*
X117965612Y-70914388D01*
X118130389Y-71024488D01*
X118130389Y-71615000D01*
X118195738Y-71962297D01*
X118135989Y-72257348D01*
X117796269Y-72257052D01*
X117594611Y-72340375D01*
X117594611Y-71900000D01*
X117526590Y-71538501D01*
X117312945Y-71206487D01*
X116986959Y-70983750D01*
X116796295Y-70945140D01*
X116812451Y-70906232D01*
X116812948Y-70336269D01*
X116595292Y-69809501D01*
X116192619Y-69406124D01*
X115666232Y-69187549D01*
X115096269Y-69187052D01*
X114911251Y-69263500D01*
X112168927Y-69263500D01*
X112126590Y-69038501D01*
X111924607Y-68724611D01*
X113740000Y-68724611D01*
X114101499Y-68656590D01*
X114433513Y-68442945D01*
X114656250Y-68116959D01*
X114734611Y-67730000D01*
X114734611Y-65230000D01*
X114666590Y-64868501D01*
X114452945Y-64536487D01*
X114126959Y-64313750D01*
X113740000Y-64235389D01*
X111190000Y-64235389D01*
X110828501Y-64303410D01*
X110501932Y-64513552D01*
X109025268Y-63036888D01*
X109025998Y-62200537D01*
X108652044Y-61295500D01*
X124840717Y-61295500D01*
X124623750Y-61613041D01*
G36*
X160015549Y-72207517D02*
X160104113Y-72077900D01*
X160145166Y-72077900D01*
X160015549Y-72207517D01*
X160015549Y-72207517D01*
G37*
X160015549Y-72207517D02*
X160104113Y-72077900D01*
X160145166Y-72077900D01*
X160015549Y-72207517D01*
G36*
X188944500Y-71910476D02*
X188790501Y-71680000D01*
X188944500Y-71449524D01*
X188944500Y-71910476D01*
X188944500Y-71910476D01*
G37*
X188944500Y-71910476D02*
X188790501Y-71680000D01*
X188944500Y-71449524D01*
X188944500Y-71910476D01*
G36*
X150133750Y-61543041D02*
X150055389Y-61930000D01*
X150055389Y-63630000D01*
X150123410Y-63991499D01*
X150337055Y-64323513D01*
X150663041Y-64546250D01*
X151050000Y-64624611D01*
X152750000Y-64624611D01*
X153111499Y-64556590D01*
X153443513Y-64342945D01*
X153462131Y-64315697D01*
X153741411Y-64502306D01*
X154440000Y-64641264D01*
X155138589Y-64502306D01*
X155282928Y-64405861D01*
X155225389Y-64690000D01*
X155225389Y-65590000D01*
X155291300Y-65940285D01*
X155291300Y-66336730D01*
X155153750Y-66538041D01*
X155075389Y-66925000D01*
X155075389Y-67675000D01*
X155143410Y-68036499D01*
X155291300Y-68266327D01*
X155291300Y-68322100D01*
X154932522Y-68322100D01*
X154850000Y-68305389D01*
X153450000Y-68305389D01*
X153088501Y-68373410D01*
X152877433Y-68509228D01*
X152536232Y-68367549D01*
X151966269Y-68367052D01*
X151439501Y-68584708D01*
X151036124Y-68987381D01*
X151021826Y-69021814D01*
X150761629Y-68847956D01*
X150330000Y-68762100D01*
X149943086Y-68762100D01*
X149886959Y-68723750D01*
X149500000Y-68645389D01*
X148600000Y-68645389D01*
X148238501Y-68713410D01*
X147906487Y-68927055D01*
X147683750Y-69253041D01*
X147605389Y-69640000D01*
X147605389Y-70140000D01*
X147673410Y-70501499D01*
X147761783Y-70638835D01*
X147683750Y-70753041D01*
X147605389Y-71140000D01*
X147605389Y-71411300D01*
X144224611Y-71411300D01*
X144224611Y-70520000D01*
X144156590Y-70158501D01*
X143942945Y-69826487D01*
X143616959Y-69603750D01*
X143230000Y-69525389D01*
X141530000Y-69525389D01*
X141168501Y-69593410D01*
X140996193Y-69704287D01*
X140965292Y-69629501D01*
X140562619Y-69226124D01*
X140036232Y-69007549D01*
X139466269Y-69007052D01*
X139390584Y-69038324D01*
X139488977Y-68891069D01*
X139497405Y-68848700D01*
X140711001Y-68848700D01*
X140817055Y-69013513D01*
X141143041Y-69236250D01*
X141530000Y-69314611D01*
X143230000Y-69314611D01*
X143591499Y-69246590D01*
X143923513Y-69032945D01*
X144075528Y-68810464D01*
X144174708Y-69050499D01*
X144577381Y-69453876D01*
X145103768Y-69672451D01*
X145673731Y-69672948D01*
X146200499Y-69455292D01*
X146603876Y-69052619D01*
X146822451Y-68526232D01*
X146822948Y-67956269D01*
X146619500Y-67463887D01*
X146619500Y-66490000D01*
X146525910Y-66019491D01*
X146259388Y-65620612D01*
X145529388Y-64890612D01*
X145130510Y-64624090D01*
X144703424Y-64539138D01*
X144888589Y-64502306D01*
X145460000Y-64120501D01*
X146031411Y-64502306D01*
X146730000Y-64641264D01*
X147428589Y-64502306D01*
X148020823Y-64106587D01*
X148416542Y-63514353D01*
X148555500Y-62815764D01*
X148555500Y-62744236D01*
X148416542Y-62045647D01*
X148020823Y-61453413D01*
X147784490Y-61295500D01*
X150302888Y-61295500D01*
X150133750Y-61543041D01*
X150133750Y-61543041D01*
G37*
X150133750Y-61543041D02*
X150055389Y-61930000D01*
X150055389Y-63630000D01*
X150123410Y-63991499D01*
X150337055Y-64323513D01*
X150663041Y-64546250D01*
X151050000Y-64624611D01*
X152750000Y-64624611D01*
X153111499Y-64556590D01*
X153443513Y-64342945D01*
X153462131Y-64315697D01*
X153741411Y-64502306D01*
X154440000Y-64641264D01*
X155138589Y-64502306D01*
X155282928Y-64405861D01*
X155225389Y-64690000D01*
X155225389Y-65590000D01*
X155291300Y-65940285D01*
X155291300Y-66336730D01*
X155153750Y-66538041D01*
X155075389Y-66925000D01*
X155075389Y-67675000D01*
X155143410Y-68036499D01*
X155291300Y-68266327D01*
X155291300Y-68322100D01*
X154932522Y-68322100D01*
X154850000Y-68305389D01*
X153450000Y-68305389D01*
X153088501Y-68373410D01*
X152877433Y-68509228D01*
X152536232Y-68367549D01*
X151966269Y-68367052D01*
X151439501Y-68584708D01*
X151036124Y-68987381D01*
X151021826Y-69021814D01*
X150761629Y-68847956D01*
X150330000Y-68762100D01*
X149943086Y-68762100D01*
X149886959Y-68723750D01*
X149500000Y-68645389D01*
X148600000Y-68645389D01*
X148238501Y-68713410D01*
X147906487Y-68927055D01*
X147683750Y-69253041D01*
X147605389Y-69640000D01*
X147605389Y-70140000D01*
X147673410Y-70501499D01*
X147761783Y-70638835D01*
X147683750Y-70753041D01*
X147605389Y-71140000D01*
X147605389Y-71411300D01*
X144224611Y-71411300D01*
X144224611Y-70520000D01*
X144156590Y-70158501D01*
X143942945Y-69826487D01*
X143616959Y-69603750D01*
X143230000Y-69525389D01*
X141530000Y-69525389D01*
X141168501Y-69593410D01*
X140996193Y-69704287D01*
X140965292Y-69629501D01*
X140562619Y-69226124D01*
X140036232Y-69007549D01*
X139466269Y-69007052D01*
X139390584Y-69038324D01*
X139488977Y-68891069D01*
X139497405Y-68848700D01*
X140711001Y-68848700D01*
X140817055Y-69013513D01*
X141143041Y-69236250D01*
X141530000Y-69314611D01*
X143230000Y-69314611D01*
X143591499Y-69246590D01*
X143923513Y-69032945D01*
X144075528Y-68810464D01*
X144174708Y-69050499D01*
X144577381Y-69453876D01*
X145103768Y-69672451D01*
X145673731Y-69672948D01*
X146200499Y-69455292D01*
X146603876Y-69052619D01*
X146822451Y-68526232D01*
X146822948Y-67956269D01*
X146619500Y-67463887D01*
X146619500Y-66490000D01*
X146525910Y-66019491D01*
X146259388Y-65620612D01*
X145529388Y-64890612D01*
X145130510Y-64624090D01*
X144703424Y-64539138D01*
X144888589Y-64502306D01*
X145460000Y-64120501D01*
X146031411Y-64502306D01*
X146730000Y-64641264D01*
X147428589Y-64502306D01*
X148020823Y-64106587D01*
X148416542Y-63514353D01*
X148555500Y-62815764D01*
X148555500Y-62744236D01*
X148416542Y-62045647D01*
X148020823Y-61453413D01*
X147784490Y-61295500D01*
X150302888Y-61295500D01*
X150133750Y-61543041D01*
G36*
X100710810Y-70759190D02*
X100779951Y-70805389D01*
X100200000Y-70805389D01*
X99838501Y-70873410D01*
X99506487Y-71087055D01*
X99459127Y-71156369D01*
X98956232Y-70947549D01*
X98386269Y-70947052D01*
X98288700Y-70987367D01*
X98288700Y-70422542D01*
X98753731Y-70422948D01*
X99280499Y-70205292D01*
X99683876Y-69802619D01*
X99704521Y-69752901D01*
X100710810Y-70759190D01*
X100710810Y-70759190D01*
G37*
X100710810Y-70759190D02*
X100779951Y-70805389D01*
X100200000Y-70805389D01*
X99838501Y-70873410D01*
X99506487Y-71087055D01*
X99459127Y-71156369D01*
X98956232Y-70947549D01*
X98386269Y-70947052D01*
X98288700Y-70987367D01*
X98288700Y-70422542D01*
X98753731Y-70422948D01*
X99280499Y-70205292D01*
X99683876Y-69802619D01*
X99704521Y-69752901D01*
X100710810Y-70759190D01*
G36*
X94898041Y-70086250D02*
X95285000Y-70164611D01*
X95447252Y-70164611D01*
X95466533Y-70193467D01*
X95931300Y-70658234D01*
X95931300Y-71103302D01*
X95535082Y-70838557D01*
X95023788Y-70736854D01*
X94813467Y-70526533D01*
X94465049Y-70293727D01*
X94549388Y-70209388D01*
X94715160Y-69961293D01*
X94898041Y-70086250D01*
X94898041Y-70086250D01*
G37*
X94898041Y-70086250D02*
X95285000Y-70164611D01*
X95447252Y-70164611D01*
X95466533Y-70193467D01*
X95931300Y-70658234D01*
X95931300Y-71103302D01*
X95535082Y-70838557D01*
X95023788Y-70736854D01*
X94813467Y-70526533D01*
X94465049Y-70293727D01*
X94549388Y-70209388D01*
X94715160Y-69961293D01*
X94898041Y-70086250D01*
G36*
X129888931Y-67058977D02*
X130340000Y-67148700D01*
X130689828Y-67148700D01*
X130675389Y-67220000D01*
X130675389Y-67720000D01*
X130743410Y-68081499D01*
X130957055Y-68413513D01*
X130960348Y-68415763D01*
X131031023Y-68771069D01*
X131286533Y-69153467D01*
X131826533Y-69693467D01*
X132073871Y-69858733D01*
X132055389Y-69950000D01*
X132055389Y-70497677D01*
X131544611Y-71008455D01*
X131544611Y-69950000D01*
X131476590Y-69588501D01*
X131262945Y-69256487D01*
X130936959Y-69033750D01*
X130550000Y-68955389D01*
X129062504Y-68955389D01*
X129062833Y-68578514D01*
X129273513Y-68442945D01*
X129496250Y-68116959D01*
X129574611Y-67730000D01*
X129574611Y-66848955D01*
X129888931Y-67058977D01*
X129888931Y-67058977D01*
G37*
X129888931Y-67058977D02*
X130340000Y-67148700D01*
X130689828Y-67148700D01*
X130675389Y-67220000D01*
X130675389Y-67720000D01*
X130743410Y-68081499D01*
X130957055Y-68413513D01*
X130960348Y-68415763D01*
X131031023Y-68771069D01*
X131286533Y-69153467D01*
X131826533Y-69693467D01*
X132073871Y-69858733D01*
X132055389Y-69950000D01*
X132055389Y-70497677D01*
X131544611Y-71008455D01*
X131544611Y-69950000D01*
X131476590Y-69588501D01*
X131262945Y-69256487D01*
X130936959Y-69033750D01*
X130550000Y-68955389D01*
X129062504Y-68955389D01*
X129062833Y-68578514D01*
X129273513Y-68442945D01*
X129496250Y-68116959D01*
X129574611Y-67730000D01*
X129574611Y-66848955D01*
X129888931Y-67058977D01*
G36*
X169770738Y-68157297D02*
X169705389Y-68480000D01*
X169705389Y-69080000D01*
X169770738Y-69427297D01*
X169705389Y-69750000D01*
X169705389Y-69887130D01*
X169658700Y-69887089D01*
X169658700Y-68178234D01*
X169756311Y-68080623D01*
X169770738Y-68157297D01*
X169770738Y-68157297D01*
G37*
X169770738Y-68157297D02*
X169705389Y-68480000D01*
X169705389Y-69080000D01*
X169770738Y-69427297D01*
X169705389Y-69750000D01*
X169705389Y-69887130D01*
X169658700Y-69887089D01*
X169658700Y-68178234D01*
X169756311Y-68080623D01*
X169770738Y-68157297D01*
G36*
X100355389Y-65500000D02*
X100355389Y-66567009D01*
X99276885Y-65488505D01*
X99446499Y-65456590D01*
X99676327Y-65308700D01*
X100394128Y-65308700D01*
X100355389Y-65500000D01*
X100355389Y-65500000D01*
G37*
X100355389Y-65500000D02*
X100355389Y-66567009D01*
X99276885Y-65488505D01*
X99446499Y-65456590D01*
X99676327Y-65308700D01*
X100394128Y-65308700D01*
X100355389Y-65500000D01*
G36*
X179459034Y-65216309D02*
X179774167Y-65347164D01*
X179646269Y-65347052D01*
X179119501Y-65564708D01*
X178898700Y-65785124D01*
X178898700Y-64818234D01*
X178980248Y-64736686D01*
X179459034Y-65216309D01*
X179459034Y-65216309D01*
G37*
X179459034Y-65216309D02*
X179774167Y-65347164D01*
X179646269Y-65347052D01*
X179119501Y-65564708D01*
X178898700Y-65785124D01*
X178898700Y-64818234D01*
X178980248Y-64736686D01*
X179459034Y-65216309D01*
G36*
X170657055Y-64323513D02*
X170983041Y-64546250D01*
X171181365Y-64586412D01*
X171386533Y-64893467D01*
X171438455Y-64945389D01*
X170700000Y-64945389D01*
X170338501Y-65013410D01*
X170243862Y-65074308D01*
X170208977Y-64898931D01*
X170171939Y-64843500D01*
X169994950Y-64578617D01*
X170378589Y-64502306D01*
X170653782Y-64318427D01*
X170657055Y-64323513D01*
X170657055Y-64323513D01*
G37*
X170657055Y-64323513D02*
X170983041Y-64546250D01*
X171181365Y-64586412D01*
X171386533Y-64893467D01*
X171438455Y-64945389D01*
X170700000Y-64945389D01*
X170338501Y-65013410D01*
X170243862Y-65074308D01*
X170208977Y-64898931D01*
X170171939Y-64843500D01*
X169994950Y-64578617D01*
X170378589Y-64502306D01*
X170653782Y-64318427D01*
X170657055Y-64323513D01*
G36*
X137343750Y-61543041D02*
X137265389Y-61930000D01*
X137265389Y-63630000D01*
X137333410Y-63991499D01*
X137547055Y-64323513D01*
X137849990Y-64530500D01*
X137193922Y-64530500D01*
X137066959Y-64443750D01*
X136680000Y-64365389D01*
X135780000Y-64365389D01*
X135418501Y-64433410D01*
X135086487Y-64647055D01*
X134863750Y-64973041D01*
X134848856Y-65046589D01*
X134601069Y-64881023D01*
X134150000Y-64791300D01*
X132895479Y-64791300D01*
X132570000Y-64725389D01*
X131670000Y-64725389D01*
X131319715Y-64791300D01*
X130828234Y-64791300D01*
X130282679Y-64245745D01*
X130771411Y-64572306D01*
X131470000Y-64711264D01*
X132168589Y-64572306D01*
X132740000Y-64190501D01*
X133311411Y-64572306D01*
X134010000Y-64711264D01*
X134708589Y-64572306D01*
X135300823Y-64176587D01*
X135696542Y-63584353D01*
X135835500Y-62885764D01*
X135835500Y-62814236D01*
X135696542Y-62115647D01*
X135300823Y-61523413D01*
X134959728Y-61295500D01*
X137512888Y-61295500D01*
X137343750Y-61543041D01*
X137343750Y-61543041D01*
G37*
X137343750Y-61543041D02*
X137265389Y-61930000D01*
X137265389Y-63630000D01*
X137333410Y-63991499D01*
X137547055Y-64323513D01*
X137849990Y-64530500D01*
X137193922Y-64530500D01*
X137066959Y-64443750D01*
X136680000Y-64365389D01*
X135780000Y-64365389D01*
X135418501Y-64433410D01*
X135086487Y-64647055D01*
X134863750Y-64973041D01*
X134848856Y-65046589D01*
X134601069Y-64881023D01*
X134150000Y-64791300D01*
X132895479Y-64791300D01*
X132570000Y-64725389D01*
X131670000Y-64725389D01*
X131319715Y-64791300D01*
X130828234Y-64791300D01*
X130282679Y-64245745D01*
X130771411Y-64572306D01*
X131470000Y-64711264D01*
X132168589Y-64572306D01*
X132740000Y-64190501D01*
X133311411Y-64572306D01*
X134010000Y-64711264D01*
X134708589Y-64572306D01*
X135300823Y-64176587D01*
X135696542Y-63584353D01*
X135835500Y-62885764D01*
X135835500Y-62814236D01*
X135696542Y-62115647D01*
X135300823Y-61523413D01*
X134959728Y-61295500D01*
X137512888Y-61295500D01*
X137343750Y-61543041D01*
G36*
X165961300Y-64181505D02*
X165961300Y-64300000D01*
X166051023Y-64751069D01*
X166180863Y-64945389D01*
X165300000Y-64945389D01*
X165158877Y-64971943D01*
X164790338Y-64603404D01*
X165298589Y-64502306D01*
X165870000Y-64120501D01*
X165961300Y-64181505D01*
X165961300Y-64181505D01*
G37*
X165961300Y-64181505D02*
X165961300Y-64300000D01*
X166051023Y-64751069D01*
X166180863Y-64945389D01*
X165300000Y-64945389D01*
X165158877Y-64971943D01*
X164790338Y-64603404D01*
X165298589Y-64502306D01*
X165870000Y-64120501D01*
X165961300Y-64181505D01*
G36*
X176886533Y-63496533D02*
X176631023Y-63878931D01*
X176541300Y-64330000D01*
X176541300Y-64785389D01*
X176100000Y-64785389D01*
X175738501Y-64853410D01*
X175601165Y-64941783D01*
X175486959Y-64863750D01*
X175100000Y-64785389D01*
X174600000Y-64785389D01*
X174492303Y-64805654D01*
X174488977Y-64788931D01*
X174233467Y-64406533D01*
X173928465Y-64101531D01*
X173986250Y-64016959D01*
X174064611Y-63630000D01*
X174064611Y-62259500D01*
X178123566Y-62259500D01*
X176886533Y-63496533D01*
X176886533Y-63496533D01*
G37*
X176886533Y-63496533D02*
X176631023Y-63878931D01*
X176541300Y-64330000D01*
X176541300Y-64785389D01*
X176100000Y-64785389D01*
X175738501Y-64853410D01*
X175601165Y-64941783D01*
X175486959Y-64863750D01*
X175100000Y-64785389D01*
X174600000Y-64785389D01*
X174492303Y-64805654D01*
X174488977Y-64788931D01*
X174233467Y-64406533D01*
X173928465Y-64101531D01*
X173986250Y-64016959D01*
X174064611Y-63630000D01*
X174064611Y-62259500D01*
X178123566Y-62259500D01*
X176886533Y-63496533D01*
G36*
X140951411Y-64502306D02*
X141093152Y-64530500D01*
X140362044Y-64530500D01*
X140653513Y-64342945D01*
X140672131Y-64315697D01*
X140951411Y-64502306D01*
X140951411Y-64502306D01*
G37*
X140951411Y-64502306D02*
X141093152Y-64530500D01*
X140362044Y-64530500D01*
X140653513Y-64342945D01*
X140672131Y-64315697D01*
X140951411Y-64502306D01*
G36*
X143491411Y-64502306D02*
X143633152Y-64530500D01*
X142206848Y-64530500D01*
X142348589Y-64502306D01*
X142920000Y-64120501D01*
X143491411Y-64502306D01*
X143491411Y-64502306D01*
G37*
X143491411Y-64502306D02*
X143633152Y-64530500D01*
X142206848Y-64530500D01*
X142348589Y-64502306D01*
X142920000Y-64120501D01*
X143491411Y-64502306D01*
G36*
X158344997Y-61376024D02*
X158229177Y-61453413D01*
X157833458Y-62045647D01*
X157694500Y-62744236D01*
X157694500Y-62815764D01*
X157833458Y-63514353D01*
X157954423Y-63695389D01*
X157720000Y-63695389D01*
X157358501Y-63763410D01*
X157221165Y-63851783D01*
X157106959Y-63773750D01*
X156720000Y-63695389D01*
X156220000Y-63695389D01*
X155974742Y-63741538D01*
X156126542Y-63514353D01*
X156265500Y-62815764D01*
X156265500Y-62744236D01*
X156126542Y-62045647D01*
X155730823Y-61453413D01*
X155494490Y-61295500D01*
X158361014Y-61295500D01*
X158344997Y-61376024D01*
X158344997Y-61376024D01*
G37*
X158344997Y-61376024D02*
X158229177Y-61453413D01*
X157833458Y-62045647D01*
X157694500Y-62744236D01*
X157694500Y-62815764D01*
X157833458Y-63514353D01*
X157954423Y-63695389D01*
X157720000Y-63695389D01*
X157358501Y-63763410D01*
X157221165Y-63851783D01*
X157106959Y-63773750D01*
X156720000Y-63695389D01*
X156220000Y-63695389D01*
X155974742Y-63741538D01*
X156126542Y-63514353D01*
X156265500Y-62815764D01*
X156265500Y-62744236D01*
X156126542Y-62045647D01*
X155730823Y-61453413D01*
X155494490Y-61295500D01*
X158361014Y-61295500D01*
X158344997Y-61376024D01*
G36*
X130200000Y-61509499D02*
X129879728Y-61295500D01*
X130520272Y-61295500D01*
X130200000Y-61509499D01*
X130200000Y-61509499D01*
G37*
X130200000Y-61509499D02*
X129879728Y-61295500D01*
X130520272Y-61295500D01*
X130200000Y-61509499D01*
G36*
X132740000Y-61509499D02*
X132419728Y-61295500D01*
X133060272Y-61295500D01*
X132740000Y-61509499D01*
X132740000Y-61509499D01*
G37*
X132740000Y-61509499D02*
X132419728Y-61295500D01*
X133060272Y-61295500D01*
X132740000Y-61509499D01*
G36*
X103584027Y-61451300D02*
X99673270Y-61451300D01*
X99471959Y-61313750D01*
X99381838Y-61295500D01*
X103648721Y-61295500D01*
X103584027Y-61451300D01*
X103584027Y-61451300D01*
G37*
X103584027Y-61451300D02*
X99673270Y-61451300D01*
X99471959Y-61313750D01*
X99381838Y-61295500D01*
X103648721Y-61295500D01*
X103584027Y-61451300D01*
G36*
X142920000Y-61439499D02*
X142704490Y-61295500D01*
X143135510Y-61295500D01*
X142920000Y-61439499D01*
X142920000Y-61439499D01*
G37*
X142920000Y-61439499D02*
X142704490Y-61295500D01*
X143135510Y-61295500D01*
X142920000Y-61439499D01*
G36*
X145460000Y-61439499D02*
X145244490Y-61295500D01*
X145675510Y-61295500D01*
X145460000Y-61439499D01*
X145460000Y-61439499D01*
G37*
X145460000Y-61439499D02*
X145244490Y-61295500D01*
X145675510Y-61295500D01*
X145460000Y-61439499D01*
G36*
X127956218Y-61311573D02*
X127952945Y-61306487D01*
X127936865Y-61295500D01*
X127980272Y-61295500D01*
X127956218Y-61311573D01*
X127956218Y-61311573D01*
G37*
X127956218Y-61311573D02*
X127952945Y-61306487D01*
X127936865Y-61295500D01*
X127980272Y-61295500D01*
X127956218Y-61311573D01*
M02*
