G04 #@! TF.FileFunction,Copper,L2,Bot,Signal*
%FSLAX46Y46*%
G04 Gerber Fmt 4.6, Leading zero omitted, Abs format (unit mm)*
G04 Created by KiCad (PCBNEW 4.0.7-e1-6374~58~ubuntu14.04.1) date Sat Jan 27 06:03:06 2018*
%MOMM*%
%LPD*%
G01*
G04 APERTURE LIST*
%ADD10C,0.100000*%
%ADD11C,1.520000*%
%ADD12C,2.700000*%
%ADD13R,1.700000X1.700000*%
%ADD14O,1.700000X1.700000*%
%ADD15C,1.500000*%
%ADD16C,0.600000*%
%ADD17C,0.600000*%
%ADD18C,0.500000*%
%ADD19C,0.800000*%
%ADD20C,0.351000*%
G04 APERTURE END LIST*
D10*
D11*
X126070000Y-82290000D03*
X126070000Y-84830000D03*
X124070000Y-84830000D03*
X124070000Y-82290000D03*
D12*
X121370000Y-77560000D03*
X121370000Y-89560000D03*
D13*
X149730000Y-82950000D03*
D14*
X149730000Y-85490000D03*
D13*
X117120000Y-118800000D03*
D14*
X117120000Y-116260000D03*
X117120000Y-113720000D03*
X117120000Y-111180000D03*
X117120000Y-108640000D03*
D13*
X147790000Y-123520000D03*
D14*
X150330000Y-123520000D03*
D15*
X134250000Y-95020000D03*
X139130000Y-95020000D03*
X143450000Y-115860000D03*
X143450000Y-110980000D03*
D13*
X112700000Y-123570000D03*
D14*
X115240000Y-123570000D03*
D13*
X139870000Y-103380000D03*
D14*
X142410000Y-103380000D03*
X144950000Y-103380000D03*
D16*
X130680000Y-118070000D03*
X120430000Y-94400000D03*
X132570000Y-79920000D03*
X132830000Y-90480000D03*
X127110000Y-111160000D03*
X132190000Y-116250000D03*
X138900000Y-123570000D03*
D17*
X121370000Y-89560000D02*
X121370000Y-77560000D01*
D18*
X129950000Y-118800000D02*
X117120000Y-118800000D01*
X130680000Y-118070000D02*
X129950000Y-118800000D01*
D19*
X132830000Y-90480000D02*
X140320000Y-90480000D01*
X142410000Y-92570000D02*
X142410000Y-103380000D01*
X140320000Y-90480000D02*
X142410000Y-92570000D01*
X132570000Y-79920000D02*
X132870000Y-79920000D01*
X132830000Y-79960000D02*
X132830000Y-90480000D01*
X132870000Y-79920000D02*
X132830000Y-79960000D01*
X120430000Y-94400000D02*
X128910000Y-94400000D01*
X128910000Y-94400000D02*
X132830000Y-90480000D01*
X132190000Y-116250000D02*
X130070000Y-114130000D01*
X117120000Y-116260000D02*
X127940000Y-116260000D01*
X127940000Y-116260000D02*
X130070000Y-114130000D01*
X130070000Y-114130000D02*
X130070000Y-114120000D01*
X130070000Y-114120000D02*
X127110000Y-111160000D01*
D18*
X127940000Y-116260000D02*
X130070000Y-114130000D01*
X127110000Y-111170000D02*
X127110000Y-111160000D01*
X130070000Y-114130000D02*
X127110000Y-111170000D01*
D19*
X126070000Y-84830000D02*
X128000000Y-84830000D01*
X128000000Y-84830000D02*
X130490000Y-82340000D01*
X144950000Y-88770000D02*
X144950000Y-103380000D01*
X134450000Y-78270000D02*
X144950000Y-88770000D01*
X131320000Y-78270000D02*
X134450000Y-78270000D01*
X130490000Y-79100000D02*
X131320000Y-78270000D01*
X130490000Y-82340000D02*
X130490000Y-79100000D01*
D18*
X138900000Y-123570000D02*
X138900000Y-121770000D01*
X138330000Y-121200000D02*
X134880000Y-121200000D01*
X138900000Y-121770000D02*
X138330000Y-121200000D01*
X112700000Y-122090000D02*
X112700000Y-123570000D01*
X134880000Y-121200000D02*
X113590000Y-121200000D01*
X113590000Y-121200000D02*
X112700000Y-122090000D01*
D20*
G36*
X153599500Y-125589500D02*
X110720500Y-125589500D01*
X110720500Y-122720000D01*
X110753430Y-122720000D01*
X110753430Y-124420000D01*
X110828424Y-124818556D01*
X111063970Y-125184606D01*
X111423373Y-125430176D01*
X111850000Y-125516570D01*
X113550000Y-125516570D01*
X113948556Y-125441576D01*
X114272944Y-125232839D01*
X114503143Y-125386653D01*
X115240000Y-125533223D01*
X115976857Y-125386653D01*
X116601534Y-124969257D01*
X117018930Y-124344580D01*
X117165500Y-123607723D01*
X117165500Y-123532277D01*
X117018930Y-122795420D01*
X116838575Y-122525500D01*
X137574500Y-122525500D01*
X137574500Y-123175358D01*
X137524739Y-123295196D01*
X137524261Y-123842404D01*
X137733228Y-124348140D01*
X138119824Y-124735413D01*
X138625196Y-124945261D01*
X139172404Y-124945739D01*
X139678140Y-124736772D01*
X140065413Y-124350176D01*
X140275261Y-123844804D01*
X140275739Y-123297596D01*
X140225500Y-123176009D01*
X140225500Y-122670000D01*
X145843430Y-122670000D01*
X145843430Y-124370000D01*
X145918424Y-124768556D01*
X146153970Y-125134606D01*
X146513373Y-125380176D01*
X146940000Y-125466570D01*
X148640000Y-125466570D01*
X149038556Y-125391576D01*
X149362944Y-125182839D01*
X149593143Y-125336653D01*
X150330000Y-125483223D01*
X151066857Y-125336653D01*
X151691534Y-124919257D01*
X152108930Y-124294580D01*
X152255500Y-123557723D01*
X152255500Y-123482277D01*
X152108930Y-122745420D01*
X151691534Y-122120743D01*
X151066857Y-121703347D01*
X150330000Y-121556777D01*
X149593143Y-121703347D01*
X149359150Y-121859696D01*
X149066627Y-121659824D01*
X148640000Y-121573430D01*
X146940000Y-121573430D01*
X146541444Y-121648424D01*
X146175394Y-121883970D01*
X145929824Y-122243373D01*
X145843430Y-122670000D01*
X140225500Y-122670000D01*
X140225500Y-121770000D01*
X140124602Y-121262753D01*
X139837270Y-120832730D01*
X139267270Y-120262730D01*
X138837247Y-119975398D01*
X138330000Y-119874500D01*
X130681891Y-119874500D01*
X130887270Y-119737270D01*
X131338216Y-119286324D01*
X131458140Y-119236772D01*
X131845413Y-118850176D01*
X132055261Y-118344804D01*
X132055739Y-117797596D01*
X132011259Y-117689946D01*
X132190000Y-117725500D01*
X132754650Y-117613184D01*
X133233336Y-117293336D01*
X133553184Y-116814650D01*
X133665500Y-116250000D01*
X133659836Y-116221521D01*
X141624183Y-116221521D01*
X141901514Y-116892712D01*
X142414587Y-117406681D01*
X143085292Y-117685183D01*
X143811521Y-117685817D01*
X144482712Y-117408486D01*
X144996681Y-116895413D01*
X145275183Y-116224708D01*
X145275817Y-115498479D01*
X144998486Y-114827288D01*
X144485413Y-114313319D01*
X143814708Y-114034817D01*
X143088479Y-114034183D01*
X142417288Y-114311514D01*
X141903319Y-114824587D01*
X141624817Y-115495292D01*
X141624183Y-116221521D01*
X133659836Y-116221521D01*
X133553184Y-115685351D01*
X133233336Y-115206664D01*
X131133473Y-113106801D01*
X131113336Y-113076664D01*
X129378193Y-111341521D01*
X141624183Y-111341521D01*
X141901514Y-112012712D01*
X142414587Y-112526681D01*
X143085292Y-112805183D01*
X143811521Y-112805817D01*
X144482712Y-112528486D01*
X144996681Y-112015413D01*
X145275183Y-111344708D01*
X145275817Y-110618479D01*
X144998486Y-109947288D01*
X144485413Y-109433319D01*
X143814708Y-109154817D01*
X143088479Y-109154183D01*
X142417288Y-109431514D01*
X141903319Y-109944587D01*
X141624817Y-110615292D01*
X141624183Y-111341521D01*
X129378193Y-111341521D01*
X128153336Y-110116664D01*
X127674650Y-109796816D01*
X127110000Y-109684500D01*
X126545350Y-109796816D01*
X126066664Y-110116664D01*
X125746816Y-110595350D01*
X125634500Y-111160000D01*
X125746816Y-111724650D01*
X126066664Y-112203336D01*
X127988328Y-114125000D01*
X127328828Y-114784500D01*
X118717729Y-114784500D01*
X118936653Y-114456857D01*
X119083223Y-113720000D01*
X118936653Y-112983143D01*
X118580418Y-112450000D01*
X118936653Y-111916857D01*
X119083223Y-111180000D01*
X118936653Y-110443143D01*
X118580418Y-109910000D01*
X118936653Y-109376857D01*
X119083223Y-108640000D01*
X118936653Y-107903143D01*
X118519257Y-107278466D01*
X117894580Y-106861070D01*
X117157723Y-106714500D01*
X117082277Y-106714500D01*
X116345420Y-106861070D01*
X115720743Y-107278466D01*
X115303347Y-107903143D01*
X115156777Y-108640000D01*
X115303347Y-109376857D01*
X115659582Y-109910000D01*
X115303347Y-110443143D01*
X115156777Y-111180000D01*
X115303347Y-111916857D01*
X115659582Y-112450000D01*
X115303347Y-112983143D01*
X115156777Y-113720000D01*
X115303347Y-114456857D01*
X115659582Y-114990000D01*
X115303347Y-115523143D01*
X115156777Y-116260000D01*
X115303347Y-116996857D01*
X115459696Y-117230850D01*
X115259824Y-117523373D01*
X115173430Y-117950000D01*
X115173430Y-119650000D01*
X115215673Y-119874500D01*
X113590000Y-119874500D01*
X113082753Y-119975398D01*
X112652730Y-120262730D01*
X111762730Y-121152730D01*
X111475398Y-121582753D01*
X111452426Y-121698239D01*
X111451444Y-121698424D01*
X111085394Y-121933970D01*
X110839824Y-122293373D01*
X110753430Y-122720000D01*
X110720500Y-122720000D01*
X110720500Y-78040345D01*
X118944080Y-78040345D01*
X119312562Y-78932140D01*
X119994271Y-79615040D01*
X119994500Y-79615135D01*
X119994500Y-87505916D01*
X119314960Y-88184271D01*
X118944922Y-89075422D01*
X118944080Y-90040345D01*
X119312562Y-90932140D01*
X119994271Y-91615040D01*
X120885422Y-91985078D01*
X121850345Y-91985920D01*
X122742140Y-91617438D01*
X123425040Y-90935729D01*
X123795078Y-90044578D01*
X123795920Y-89079655D01*
X123427438Y-88187860D01*
X122745729Y-87504960D01*
X122745500Y-87504865D01*
X122745500Y-86101244D01*
X123028915Y-86385154D01*
X123703295Y-86665181D01*
X124433502Y-86665818D01*
X125070735Y-86402519D01*
X125703295Y-86665181D01*
X126433502Y-86665818D01*
X127108369Y-86386969D01*
X127189980Y-86305500D01*
X128000000Y-86305500D01*
X128564650Y-86193184D01*
X129043336Y-85873336D01*
X131354500Y-83562172D01*
X131354500Y-89868828D01*
X128298828Y-92924500D01*
X120430000Y-92924500D01*
X119865351Y-93036816D01*
X119386664Y-93356664D01*
X119066816Y-93835351D01*
X118954500Y-94400000D01*
X119066816Y-94964649D01*
X119386664Y-95443336D01*
X119865351Y-95763184D01*
X120430000Y-95875500D01*
X128910000Y-95875500D01*
X129474650Y-95763184D01*
X129953336Y-95443336D01*
X130015151Y-95381521D01*
X132424183Y-95381521D01*
X132701514Y-96052712D01*
X133214587Y-96566681D01*
X133885292Y-96845183D01*
X134611521Y-96845817D01*
X135282712Y-96568486D01*
X135796681Y-96055413D01*
X136075183Y-95384708D01*
X136075817Y-94658479D01*
X135798486Y-93987288D01*
X135285413Y-93473319D01*
X134614708Y-93194817D01*
X133888479Y-93194183D01*
X133217288Y-93471514D01*
X132703319Y-93984587D01*
X132424817Y-94655292D01*
X132424183Y-95381521D01*
X130015151Y-95381521D01*
X133441172Y-91955500D01*
X139708828Y-91955500D01*
X140934500Y-93181172D01*
X140934500Y-94606888D01*
X140678486Y-93987288D01*
X140165413Y-93473319D01*
X139494708Y-93194817D01*
X138768479Y-93194183D01*
X138097288Y-93471514D01*
X137583319Y-93984587D01*
X137304817Y-94655292D01*
X137304183Y-95381521D01*
X137581514Y-96052712D01*
X138094587Y-96566681D01*
X138765292Y-96845183D01*
X139491521Y-96845817D01*
X140162712Y-96568486D01*
X140676681Y-96055413D01*
X140934500Y-95434518D01*
X140934500Y-101476867D01*
X140720000Y-101433430D01*
X139020000Y-101433430D01*
X138621444Y-101508424D01*
X138255394Y-101743970D01*
X138009824Y-102103373D01*
X137923430Y-102530000D01*
X137923430Y-104230000D01*
X137998424Y-104628556D01*
X138233970Y-104994606D01*
X138593373Y-105240176D01*
X139020000Y-105326570D01*
X140720000Y-105326570D01*
X141118556Y-105251576D01*
X141442944Y-105042839D01*
X141673143Y-105196653D01*
X142410000Y-105343223D01*
X143146857Y-105196653D01*
X143680000Y-104840418D01*
X144213143Y-105196653D01*
X144950000Y-105343223D01*
X145686857Y-105196653D01*
X146311534Y-104779257D01*
X146728930Y-104154580D01*
X146875500Y-103417723D01*
X146875500Y-103342277D01*
X146728930Y-102605420D01*
X146425500Y-102151305D01*
X146425500Y-88770000D01*
X146313184Y-88205351D01*
X146313184Y-88205350D01*
X145993336Y-87726664D01*
X143756672Y-85490000D01*
X147766777Y-85490000D01*
X147913347Y-86226857D01*
X148330743Y-86851534D01*
X148955420Y-87268930D01*
X149692277Y-87415500D01*
X149767723Y-87415500D01*
X150504580Y-87268930D01*
X151129257Y-86851534D01*
X151546653Y-86226857D01*
X151693223Y-85490000D01*
X151546653Y-84753143D01*
X151390304Y-84519150D01*
X151590176Y-84226627D01*
X151676570Y-83800000D01*
X151676570Y-82100000D01*
X151601576Y-81701444D01*
X151366030Y-81335394D01*
X151006627Y-81089824D01*
X150580000Y-81003430D01*
X148880000Y-81003430D01*
X148481444Y-81078424D01*
X148115394Y-81313970D01*
X147869824Y-81673373D01*
X147783430Y-82100000D01*
X147783430Y-83800000D01*
X147858424Y-84198556D01*
X148067161Y-84522944D01*
X147913347Y-84753143D01*
X147766777Y-85490000D01*
X143756672Y-85490000D01*
X135493336Y-77226664D01*
X135014650Y-76906816D01*
X134450000Y-76794500D01*
X131320000Y-76794500D01*
X130755350Y-76906816D01*
X130276664Y-77226664D01*
X129446664Y-78056664D01*
X129126816Y-78535350D01*
X129047176Y-78935729D01*
X129014500Y-79100000D01*
X129014500Y-81728828D01*
X127776340Y-82966988D01*
X127905181Y-82656705D01*
X127905818Y-81926498D01*
X127626969Y-81251631D01*
X127111085Y-80734846D01*
X126436705Y-80454819D01*
X125706498Y-80454182D01*
X125069265Y-80717481D01*
X124436705Y-80454819D01*
X123706498Y-80454182D01*
X123031631Y-80733031D01*
X122745500Y-81018663D01*
X122745500Y-79614084D01*
X123425040Y-78935729D01*
X123795078Y-78044578D01*
X123795920Y-77079655D01*
X123427438Y-76187860D01*
X122745729Y-75504960D01*
X121854578Y-75134922D01*
X120889655Y-75134080D01*
X119997860Y-75502562D01*
X119314960Y-76184271D01*
X118944922Y-77075422D01*
X118944080Y-78040345D01*
X110720500Y-78040345D01*
X110720500Y-74010500D01*
X153599500Y-74010500D01*
X153599500Y-125589500D01*
X153599500Y-125589500D01*
G37*
X153599500Y-125589500D02*
X110720500Y-125589500D01*
X110720500Y-122720000D01*
X110753430Y-122720000D01*
X110753430Y-124420000D01*
X110828424Y-124818556D01*
X111063970Y-125184606D01*
X111423373Y-125430176D01*
X111850000Y-125516570D01*
X113550000Y-125516570D01*
X113948556Y-125441576D01*
X114272944Y-125232839D01*
X114503143Y-125386653D01*
X115240000Y-125533223D01*
X115976857Y-125386653D01*
X116601534Y-124969257D01*
X117018930Y-124344580D01*
X117165500Y-123607723D01*
X117165500Y-123532277D01*
X117018930Y-122795420D01*
X116838575Y-122525500D01*
X137574500Y-122525500D01*
X137574500Y-123175358D01*
X137524739Y-123295196D01*
X137524261Y-123842404D01*
X137733228Y-124348140D01*
X138119824Y-124735413D01*
X138625196Y-124945261D01*
X139172404Y-124945739D01*
X139678140Y-124736772D01*
X140065413Y-124350176D01*
X140275261Y-123844804D01*
X140275739Y-123297596D01*
X140225500Y-123176009D01*
X140225500Y-122670000D01*
X145843430Y-122670000D01*
X145843430Y-124370000D01*
X145918424Y-124768556D01*
X146153970Y-125134606D01*
X146513373Y-125380176D01*
X146940000Y-125466570D01*
X148640000Y-125466570D01*
X149038556Y-125391576D01*
X149362944Y-125182839D01*
X149593143Y-125336653D01*
X150330000Y-125483223D01*
X151066857Y-125336653D01*
X151691534Y-124919257D01*
X152108930Y-124294580D01*
X152255500Y-123557723D01*
X152255500Y-123482277D01*
X152108930Y-122745420D01*
X151691534Y-122120743D01*
X151066857Y-121703347D01*
X150330000Y-121556777D01*
X149593143Y-121703347D01*
X149359150Y-121859696D01*
X149066627Y-121659824D01*
X148640000Y-121573430D01*
X146940000Y-121573430D01*
X146541444Y-121648424D01*
X146175394Y-121883970D01*
X145929824Y-122243373D01*
X145843430Y-122670000D01*
X140225500Y-122670000D01*
X140225500Y-121770000D01*
X140124602Y-121262753D01*
X139837270Y-120832730D01*
X139267270Y-120262730D01*
X138837247Y-119975398D01*
X138330000Y-119874500D01*
X130681891Y-119874500D01*
X130887270Y-119737270D01*
X131338216Y-119286324D01*
X131458140Y-119236772D01*
X131845413Y-118850176D01*
X132055261Y-118344804D01*
X132055739Y-117797596D01*
X132011259Y-117689946D01*
X132190000Y-117725500D01*
X132754650Y-117613184D01*
X133233336Y-117293336D01*
X133553184Y-116814650D01*
X133665500Y-116250000D01*
X133659836Y-116221521D01*
X141624183Y-116221521D01*
X141901514Y-116892712D01*
X142414587Y-117406681D01*
X143085292Y-117685183D01*
X143811521Y-117685817D01*
X144482712Y-117408486D01*
X144996681Y-116895413D01*
X145275183Y-116224708D01*
X145275817Y-115498479D01*
X144998486Y-114827288D01*
X144485413Y-114313319D01*
X143814708Y-114034817D01*
X143088479Y-114034183D01*
X142417288Y-114311514D01*
X141903319Y-114824587D01*
X141624817Y-115495292D01*
X141624183Y-116221521D01*
X133659836Y-116221521D01*
X133553184Y-115685351D01*
X133233336Y-115206664D01*
X131133473Y-113106801D01*
X131113336Y-113076664D01*
X129378193Y-111341521D01*
X141624183Y-111341521D01*
X141901514Y-112012712D01*
X142414587Y-112526681D01*
X143085292Y-112805183D01*
X143811521Y-112805817D01*
X144482712Y-112528486D01*
X144996681Y-112015413D01*
X145275183Y-111344708D01*
X145275817Y-110618479D01*
X144998486Y-109947288D01*
X144485413Y-109433319D01*
X143814708Y-109154817D01*
X143088479Y-109154183D01*
X142417288Y-109431514D01*
X141903319Y-109944587D01*
X141624817Y-110615292D01*
X141624183Y-111341521D01*
X129378193Y-111341521D01*
X128153336Y-110116664D01*
X127674650Y-109796816D01*
X127110000Y-109684500D01*
X126545350Y-109796816D01*
X126066664Y-110116664D01*
X125746816Y-110595350D01*
X125634500Y-111160000D01*
X125746816Y-111724650D01*
X126066664Y-112203336D01*
X127988328Y-114125000D01*
X127328828Y-114784500D01*
X118717729Y-114784500D01*
X118936653Y-114456857D01*
X119083223Y-113720000D01*
X118936653Y-112983143D01*
X118580418Y-112450000D01*
X118936653Y-111916857D01*
X119083223Y-111180000D01*
X118936653Y-110443143D01*
X118580418Y-109910000D01*
X118936653Y-109376857D01*
X119083223Y-108640000D01*
X118936653Y-107903143D01*
X118519257Y-107278466D01*
X117894580Y-106861070D01*
X117157723Y-106714500D01*
X117082277Y-106714500D01*
X116345420Y-106861070D01*
X115720743Y-107278466D01*
X115303347Y-107903143D01*
X115156777Y-108640000D01*
X115303347Y-109376857D01*
X115659582Y-109910000D01*
X115303347Y-110443143D01*
X115156777Y-111180000D01*
X115303347Y-111916857D01*
X115659582Y-112450000D01*
X115303347Y-112983143D01*
X115156777Y-113720000D01*
X115303347Y-114456857D01*
X115659582Y-114990000D01*
X115303347Y-115523143D01*
X115156777Y-116260000D01*
X115303347Y-116996857D01*
X115459696Y-117230850D01*
X115259824Y-117523373D01*
X115173430Y-117950000D01*
X115173430Y-119650000D01*
X115215673Y-119874500D01*
X113590000Y-119874500D01*
X113082753Y-119975398D01*
X112652730Y-120262730D01*
X111762730Y-121152730D01*
X111475398Y-121582753D01*
X111452426Y-121698239D01*
X111451444Y-121698424D01*
X111085394Y-121933970D01*
X110839824Y-122293373D01*
X110753430Y-122720000D01*
X110720500Y-122720000D01*
X110720500Y-78040345D01*
X118944080Y-78040345D01*
X119312562Y-78932140D01*
X119994271Y-79615040D01*
X119994500Y-79615135D01*
X119994500Y-87505916D01*
X119314960Y-88184271D01*
X118944922Y-89075422D01*
X118944080Y-90040345D01*
X119312562Y-90932140D01*
X119994271Y-91615040D01*
X120885422Y-91985078D01*
X121850345Y-91985920D01*
X122742140Y-91617438D01*
X123425040Y-90935729D01*
X123795078Y-90044578D01*
X123795920Y-89079655D01*
X123427438Y-88187860D01*
X122745729Y-87504960D01*
X122745500Y-87504865D01*
X122745500Y-86101244D01*
X123028915Y-86385154D01*
X123703295Y-86665181D01*
X124433502Y-86665818D01*
X125070735Y-86402519D01*
X125703295Y-86665181D01*
X126433502Y-86665818D01*
X127108369Y-86386969D01*
X127189980Y-86305500D01*
X128000000Y-86305500D01*
X128564650Y-86193184D01*
X129043336Y-85873336D01*
X131354500Y-83562172D01*
X131354500Y-89868828D01*
X128298828Y-92924500D01*
X120430000Y-92924500D01*
X119865351Y-93036816D01*
X119386664Y-93356664D01*
X119066816Y-93835351D01*
X118954500Y-94400000D01*
X119066816Y-94964649D01*
X119386664Y-95443336D01*
X119865351Y-95763184D01*
X120430000Y-95875500D01*
X128910000Y-95875500D01*
X129474650Y-95763184D01*
X129953336Y-95443336D01*
X130015151Y-95381521D01*
X132424183Y-95381521D01*
X132701514Y-96052712D01*
X133214587Y-96566681D01*
X133885292Y-96845183D01*
X134611521Y-96845817D01*
X135282712Y-96568486D01*
X135796681Y-96055413D01*
X136075183Y-95384708D01*
X136075817Y-94658479D01*
X135798486Y-93987288D01*
X135285413Y-93473319D01*
X134614708Y-93194817D01*
X133888479Y-93194183D01*
X133217288Y-93471514D01*
X132703319Y-93984587D01*
X132424817Y-94655292D01*
X132424183Y-95381521D01*
X130015151Y-95381521D01*
X133441172Y-91955500D01*
X139708828Y-91955500D01*
X140934500Y-93181172D01*
X140934500Y-94606888D01*
X140678486Y-93987288D01*
X140165413Y-93473319D01*
X139494708Y-93194817D01*
X138768479Y-93194183D01*
X138097288Y-93471514D01*
X137583319Y-93984587D01*
X137304817Y-94655292D01*
X137304183Y-95381521D01*
X137581514Y-96052712D01*
X138094587Y-96566681D01*
X138765292Y-96845183D01*
X139491521Y-96845817D01*
X140162712Y-96568486D01*
X140676681Y-96055413D01*
X140934500Y-95434518D01*
X140934500Y-101476867D01*
X140720000Y-101433430D01*
X139020000Y-101433430D01*
X138621444Y-101508424D01*
X138255394Y-101743970D01*
X138009824Y-102103373D01*
X137923430Y-102530000D01*
X137923430Y-104230000D01*
X137998424Y-104628556D01*
X138233970Y-104994606D01*
X138593373Y-105240176D01*
X139020000Y-105326570D01*
X140720000Y-105326570D01*
X141118556Y-105251576D01*
X141442944Y-105042839D01*
X141673143Y-105196653D01*
X142410000Y-105343223D01*
X143146857Y-105196653D01*
X143680000Y-104840418D01*
X144213143Y-105196653D01*
X144950000Y-105343223D01*
X145686857Y-105196653D01*
X146311534Y-104779257D01*
X146728930Y-104154580D01*
X146875500Y-103417723D01*
X146875500Y-103342277D01*
X146728930Y-102605420D01*
X146425500Y-102151305D01*
X146425500Y-88770000D01*
X146313184Y-88205351D01*
X146313184Y-88205350D01*
X145993336Y-87726664D01*
X143756672Y-85490000D01*
X147766777Y-85490000D01*
X147913347Y-86226857D01*
X148330743Y-86851534D01*
X148955420Y-87268930D01*
X149692277Y-87415500D01*
X149767723Y-87415500D01*
X150504580Y-87268930D01*
X151129257Y-86851534D01*
X151546653Y-86226857D01*
X151693223Y-85490000D01*
X151546653Y-84753143D01*
X151390304Y-84519150D01*
X151590176Y-84226627D01*
X151676570Y-83800000D01*
X151676570Y-82100000D01*
X151601576Y-81701444D01*
X151366030Y-81335394D01*
X151006627Y-81089824D01*
X150580000Y-81003430D01*
X148880000Y-81003430D01*
X148481444Y-81078424D01*
X148115394Y-81313970D01*
X147869824Y-81673373D01*
X147783430Y-82100000D01*
X147783430Y-83800000D01*
X147858424Y-84198556D01*
X148067161Y-84522944D01*
X147913347Y-84753143D01*
X147766777Y-85490000D01*
X143756672Y-85490000D01*
X135493336Y-77226664D01*
X135014650Y-76906816D01*
X134450000Y-76794500D01*
X131320000Y-76794500D01*
X130755350Y-76906816D01*
X130276664Y-77226664D01*
X129446664Y-78056664D01*
X129126816Y-78535350D01*
X129047176Y-78935729D01*
X129014500Y-79100000D01*
X129014500Y-81728828D01*
X127776340Y-82966988D01*
X127905181Y-82656705D01*
X127905818Y-81926498D01*
X127626969Y-81251631D01*
X127111085Y-80734846D01*
X126436705Y-80454819D01*
X125706498Y-80454182D01*
X125069265Y-80717481D01*
X124436705Y-80454819D01*
X123706498Y-80454182D01*
X123031631Y-80733031D01*
X122745500Y-81018663D01*
X122745500Y-79614084D01*
X123425040Y-78935729D01*
X123795078Y-78044578D01*
X123795920Y-77079655D01*
X123427438Y-76187860D01*
X122745729Y-75504960D01*
X121854578Y-75134922D01*
X120889655Y-75134080D01*
X119997860Y-75502562D01*
X119314960Y-76184271D01*
X118944922Y-77075422D01*
X118944080Y-78040345D01*
X110720500Y-78040345D01*
X110720500Y-74010500D01*
X153599500Y-74010500D01*
X153599500Y-125589500D01*
G36*
X130547711Y-116694383D02*
X130407596Y-116694261D01*
X129901860Y-116903228D01*
X129514587Y-117289824D01*
X129464136Y-117411324D01*
X129400960Y-117474500D01*
X128727171Y-117474500D01*
X128983336Y-117303336D01*
X130070000Y-116216672D01*
X130547711Y-116694383D01*
X130547711Y-116694383D01*
G37*
X130547711Y-116694383D02*
X130407596Y-116694261D01*
X129901860Y-116903228D01*
X129514587Y-117289824D01*
X129464136Y-117411324D01*
X129400960Y-117474500D01*
X128727171Y-117474500D01*
X128983336Y-117303336D01*
X130070000Y-116216672D01*
X130547711Y-116694383D01*
G36*
X143474500Y-89381172D02*
X143474500Y-91558338D01*
X143453336Y-91526664D01*
X141363336Y-89436664D01*
X140884650Y-89116816D01*
X140320000Y-89004500D01*
X134305500Y-89004500D01*
X134305500Y-80212172D01*
X143474500Y-89381172D01*
X143474500Y-89381172D01*
G37*
X143474500Y-89381172D02*
X143474500Y-91558338D01*
X143453336Y-91526664D01*
X141363336Y-89436664D01*
X140884650Y-89116816D01*
X140320000Y-89004500D01*
X134305500Y-89004500D01*
X134305500Y-80212172D01*
X143474500Y-89381172D01*
M02*
