G04 #@! TF.FileFunction,Soldermask,Top*
%FSLAX46Y46*%
G04 Gerber Fmt 4.6, Leading zero omitted, Abs format (unit mm)*
G04 Created by KiCad (PCBNEW 4.0.7-e2-6376~58~ubuntu16.04.1) date Sun Dec 30 12:21:21 2018*
%MOMM*%
%LPD*%
G01*
G04 APERTURE LIST*
%ADD10C,0.100000*%
%ADD11R,1.550000X0.600000*%
%ADD12R,0.550000X1.500000*%
%ADD13R,1.500000X0.550000*%
%ADD14R,0.500000X0.900000*%
%ADD15R,0.600000X1.950000*%
%ADD16R,2.500000X2.550000*%
%ADD17R,2.550000X2.500000*%
%ADD18R,1.700000X1.300000*%
%ADD19R,2.030000X1.140000*%
%ADD20R,0.900000X0.800000*%
%ADD21R,1.500000X0.600000*%
%ADD22R,1.060000X0.650000*%
%ADD23R,3.800000X2.000000*%
%ADD24R,1.500000X2.000000*%
%ADD25R,1.400000X0.300000*%
%ADD26R,2.500000X1.950000*%
%ADD27R,1.950000X2.500000*%
%ADD28R,1.700000X1.700000*%
%ADD29O,1.700000X1.700000*%
%ADD30R,0.750000X0.800000*%
%ADD31R,0.800000X0.750000*%
%ADD32R,0.900000X0.500000*%
%ADD33C,1.500000*%
%ADD34R,2.000000X2.400000*%
%ADD35R,1.200000X1.200000*%
%ADD36C,5.600000*%
%ADD37C,1.000000*%
%ADD38R,1.800000X0.400000*%
%ADD39R,1.250000X1.050000*%
%ADD40R,1.900000X2.000000*%
G04 APERTURE END LIST*
D10*
D11*
X125300000Y-73855000D03*
X125300000Y-72585000D03*
X125300000Y-71315000D03*
X125300000Y-70045000D03*
X119900000Y-70045000D03*
X119900000Y-71315000D03*
X119900000Y-72585000D03*
X119900000Y-73855000D03*
D12*
X134060000Y-96020000D03*
X134860000Y-96020000D03*
X135660000Y-96020000D03*
X136460000Y-96020000D03*
X137260000Y-96020000D03*
X138060000Y-96020000D03*
X138860000Y-96020000D03*
X139660000Y-96020000D03*
X140460000Y-96020000D03*
X141260000Y-96020000D03*
X142060000Y-96020000D03*
D13*
X143760000Y-94320000D03*
X143760000Y-93520000D03*
X143760000Y-92720000D03*
X143760000Y-91920000D03*
X143760000Y-91120000D03*
X143760000Y-90320000D03*
X143760000Y-89520000D03*
X143760000Y-88720000D03*
X143760000Y-87920000D03*
X143760000Y-87120000D03*
X143760000Y-86320000D03*
D12*
X142060000Y-84620000D03*
X141260000Y-84620000D03*
X140460000Y-84620000D03*
X139660000Y-84620000D03*
X138860000Y-84620000D03*
X138060000Y-84620000D03*
X137260000Y-84620000D03*
X136460000Y-84620000D03*
X135660000Y-84620000D03*
X134860000Y-84620000D03*
X134060000Y-84620000D03*
D13*
X132360000Y-86320000D03*
X132360000Y-87120000D03*
X132360000Y-87920000D03*
X132360000Y-88720000D03*
X132360000Y-89520000D03*
X132360000Y-90320000D03*
X132360000Y-91120000D03*
X132360000Y-91920000D03*
X132360000Y-92720000D03*
X132360000Y-93520000D03*
X132360000Y-94320000D03*
D14*
X112980000Y-106550000D03*
X111480000Y-106550000D03*
D11*
X154370000Y-95595000D03*
X154370000Y-96865000D03*
X154370000Y-98135000D03*
X154370000Y-99405000D03*
X159770000Y-99405000D03*
X159770000Y-98135000D03*
X159770000Y-96865000D03*
X159770000Y-95595000D03*
D15*
X96245000Y-93510000D03*
X97515000Y-93510000D03*
X98785000Y-93510000D03*
X100055000Y-93510000D03*
X101325000Y-93510000D03*
X102595000Y-93510000D03*
X103865000Y-93510000D03*
X105135000Y-93510000D03*
X106405000Y-93510000D03*
X107675000Y-93510000D03*
X107675000Y-84110000D03*
X106405000Y-84110000D03*
X105135000Y-84110000D03*
X103865000Y-84110000D03*
X102595000Y-84110000D03*
X101325000Y-84110000D03*
X100055000Y-84110000D03*
X98785000Y-84110000D03*
X97515000Y-84110000D03*
X96245000Y-84110000D03*
D16*
X109950000Y-75725000D03*
X109950000Y-70675000D03*
D17*
X117595000Y-83090000D03*
X112545000Y-83090000D03*
X134325000Y-71200000D03*
X129275000Y-71200000D03*
X112465000Y-66480000D03*
X117515000Y-66480000D03*
D18*
X120890000Y-84580000D03*
X120890000Y-81080000D03*
X142380000Y-67670000D03*
X142380000Y-71170000D03*
D19*
X96300000Y-68600000D03*
X96300000Y-66200000D03*
D20*
X174800000Y-73870000D03*
X174800000Y-75770000D03*
X176800000Y-74820000D03*
D21*
X131160000Y-100040000D03*
X131160000Y-101310000D03*
X131160000Y-102580000D03*
X131160000Y-103850000D03*
X131160000Y-105120000D03*
X131160000Y-106390000D03*
X131160000Y-107660000D03*
X136560000Y-107660000D03*
X136560000Y-106390000D03*
X136560000Y-105120000D03*
X136560000Y-103850000D03*
X136560000Y-102580000D03*
X136560000Y-101310000D03*
X136560000Y-100040000D03*
D22*
X105550000Y-78850000D03*
X105550000Y-79800000D03*
X105550000Y-80750000D03*
X107750000Y-80750000D03*
X107750000Y-78850000D03*
X107750000Y-79800000D03*
D23*
X103230000Y-67750000D03*
D24*
X103230000Y-74050000D03*
X105530000Y-74050000D03*
X100930000Y-74050000D03*
D21*
X166050000Y-66240000D03*
X166050000Y-67510000D03*
X166050000Y-68780000D03*
X166050000Y-70050000D03*
X166050000Y-71320000D03*
X166050000Y-72590000D03*
X166050000Y-73860000D03*
X171450000Y-73860000D03*
X171450000Y-72590000D03*
X171450000Y-71320000D03*
X171450000Y-70050000D03*
X171450000Y-68780000D03*
X171450000Y-67510000D03*
X171450000Y-66240000D03*
D11*
X164370000Y-87625000D03*
X164370000Y-88895000D03*
X164370000Y-90165000D03*
X164370000Y-91435000D03*
X169770000Y-91435000D03*
X169770000Y-90165000D03*
X169770000Y-88895000D03*
X169770000Y-87625000D03*
D25*
X154150000Y-69450000D03*
X154150000Y-69950000D03*
X154150000Y-70450000D03*
X154150000Y-70950000D03*
X154150000Y-71450000D03*
X158550000Y-71450000D03*
X158550000Y-70950000D03*
X158550000Y-70450000D03*
X158550000Y-69950000D03*
X158550000Y-69450000D03*
D11*
X173410000Y-87615000D03*
X173410000Y-88885000D03*
X173410000Y-90155000D03*
X173410000Y-91425000D03*
X178810000Y-91425000D03*
X178810000Y-90155000D03*
X178810000Y-88885000D03*
X178810000Y-87615000D03*
X164410000Y-95595000D03*
X164410000Y-96865000D03*
X164410000Y-98135000D03*
X164410000Y-99405000D03*
X169810000Y-99405000D03*
X169810000Y-98135000D03*
X169810000Y-96865000D03*
X169810000Y-95595000D03*
X122060000Y-103155000D03*
X122060000Y-101885000D03*
X122060000Y-100615000D03*
X122060000Y-99345000D03*
X116660000Y-99345000D03*
X116660000Y-100615000D03*
X116660000Y-101885000D03*
X116660000Y-103155000D03*
X153130000Y-78885000D03*
X153130000Y-80155000D03*
X153130000Y-81425000D03*
X153130000Y-82695000D03*
X158530000Y-82695000D03*
X158530000Y-81425000D03*
X158530000Y-80155000D03*
X158530000Y-78885000D03*
D20*
X121260000Y-78380000D03*
X121260000Y-76480000D03*
X119260000Y-77430000D03*
X136230000Y-67660000D03*
X136230000Y-65760000D03*
X134230000Y-66710000D03*
D26*
X115350000Y-75925000D03*
X115350000Y-72875000D03*
D27*
X127605000Y-66480000D03*
X124555000Y-66480000D03*
D28*
X129030000Y-62790000D03*
D29*
X131570000Y-62790000D03*
X134110000Y-62790000D03*
X136650000Y-62790000D03*
D30*
X93690000Y-85930000D03*
X93690000Y-87430000D03*
X93680000Y-83840000D03*
X93680000Y-82340000D03*
X129130000Y-89610000D03*
X129130000Y-91110000D03*
X93700000Y-89710000D03*
X93700000Y-91210000D03*
D31*
X103330000Y-106550000D03*
X104830000Y-106550000D03*
X103290000Y-97760000D03*
X104790000Y-97760000D03*
D30*
X131600000Y-76440000D03*
X131600000Y-74940000D03*
D31*
X125430000Y-106550000D03*
X123930000Y-106550000D03*
D30*
X135290000Y-76440000D03*
X135290000Y-74940000D03*
D31*
X138810000Y-81630000D03*
X137310000Y-81630000D03*
D30*
X98660000Y-64130000D03*
X98660000Y-62630000D03*
D31*
X148300000Y-88620000D03*
X149800000Y-88620000D03*
D30*
X96300000Y-64130000D03*
X96300000Y-62630000D03*
D31*
X141920000Y-98840000D03*
X140420000Y-98840000D03*
X167670000Y-93540000D03*
X169170000Y-93540000D03*
D30*
X160290000Y-89000000D03*
X160290000Y-87500000D03*
D31*
X156470000Y-67300000D03*
X157970000Y-67300000D03*
X165220000Y-85160000D03*
X163720000Y-85160000D03*
X169770000Y-85160000D03*
X168270000Y-85160000D03*
X163000000Y-67300000D03*
X161500000Y-67300000D03*
X154370000Y-101310000D03*
X155870000Y-101310000D03*
D30*
X151610000Y-96860000D03*
X151610000Y-95360000D03*
D31*
X111480000Y-101400000D03*
X112980000Y-101400000D03*
X161430000Y-93540000D03*
X159930000Y-93540000D03*
X176300000Y-71330000D03*
X174800000Y-71330000D03*
X119630000Y-106550000D03*
X121130000Y-106550000D03*
X155840000Y-85160000D03*
X157340000Y-85160000D03*
X116390000Y-97630000D03*
X114890000Y-97630000D03*
X116780000Y-106550000D03*
X115280000Y-106550000D03*
X159830000Y-76720000D03*
X158330000Y-76720000D03*
X123770000Y-97740000D03*
X122270000Y-97740000D03*
D30*
X175340000Y-95590000D03*
X175340000Y-94090000D03*
D31*
X107430000Y-104000000D03*
X108930000Y-104000000D03*
D30*
X151610000Y-101350000D03*
X151610000Y-99850000D03*
D31*
X163310000Y-76730000D03*
X161810000Y-76730000D03*
D32*
X139760000Y-76500000D03*
X139760000Y-75000000D03*
D14*
X131670000Y-84330000D03*
X130170000Y-84330000D03*
X131670000Y-82240000D03*
X130170000Y-82240000D03*
X113670000Y-79210000D03*
X112170000Y-79210000D03*
X116480000Y-79220000D03*
X117980000Y-79220000D03*
D32*
X172210000Y-108930000D03*
X172210000Y-107430000D03*
X174760000Y-108910000D03*
X174760000Y-107410000D03*
X177290000Y-108910000D03*
X177290000Y-107410000D03*
X179830000Y-108890000D03*
X179830000Y-107390000D03*
X132120000Y-67470000D03*
X132120000Y-65970000D03*
X143030000Y-75020000D03*
X143030000Y-76520000D03*
D14*
X121950000Y-66480000D03*
X120450000Y-66480000D03*
X148200000Y-85140000D03*
X149700000Y-85140000D03*
X112980000Y-104000000D03*
X111480000Y-104000000D03*
D32*
X146210000Y-78590000D03*
X146210000Y-80090000D03*
X146210000Y-76520000D03*
X146210000Y-75020000D03*
D14*
X156470000Y-65140000D03*
X157970000Y-65140000D03*
X161480000Y-65140000D03*
X162980000Y-65140000D03*
D32*
X162160000Y-87510000D03*
X162160000Y-89010000D03*
X173390000Y-94080000D03*
X173390000Y-95580000D03*
D14*
X176300000Y-85130000D03*
X174800000Y-85130000D03*
X161320000Y-85160000D03*
X159820000Y-85160000D03*
X176290000Y-68930000D03*
X174790000Y-68930000D03*
X176350000Y-66230000D03*
X174850000Y-66230000D03*
D32*
X149050000Y-69890000D03*
X149050000Y-71390000D03*
D14*
X149740000Y-96260000D03*
X148240000Y-96260000D03*
X149710000Y-101350000D03*
X148210000Y-101350000D03*
X148220000Y-98800000D03*
X149720000Y-98800000D03*
D32*
X146200000Y-83210000D03*
X146200000Y-81710000D03*
X148950000Y-83210000D03*
X148950000Y-81710000D03*
D14*
X152040000Y-85140000D03*
X153540000Y-85140000D03*
D32*
X155960000Y-92500000D03*
X155960000Y-94000000D03*
D14*
X158250000Y-74290000D03*
X159750000Y-74290000D03*
X176300000Y-78230000D03*
X174800000Y-78230000D03*
X161590000Y-74290000D03*
X163090000Y-74290000D03*
D32*
X149050000Y-76520000D03*
X149050000Y-75020000D03*
D14*
X165350000Y-76730000D03*
X166850000Y-76730000D03*
X108930000Y-106550000D03*
X107430000Y-106550000D03*
X108910000Y-97760000D03*
X107410000Y-97760000D03*
X107430000Y-101400000D03*
X108930000Y-101400000D03*
X103330000Y-101400000D03*
X104830000Y-101400000D03*
X111480000Y-109300000D03*
X112980000Y-109300000D03*
D32*
X149020000Y-78590000D03*
X149020000Y-80090000D03*
X161425000Y-82425000D03*
X161425000Y-80925000D03*
X163820000Y-82420000D03*
X163820000Y-80920000D03*
D14*
X148250000Y-93880000D03*
X149750000Y-93880000D03*
X149760000Y-91300000D03*
X148260000Y-91300000D03*
D32*
X93680000Y-64120000D03*
X93680000Y-62620000D03*
D14*
X113680000Y-86840000D03*
X112180000Y-86840000D03*
X113660000Y-90460000D03*
X112160000Y-90460000D03*
X117980000Y-86830000D03*
X116480000Y-86830000D03*
X117980000Y-90460000D03*
X116480000Y-90460000D03*
D32*
X93680000Y-95020000D03*
X93680000Y-93520000D03*
D33*
X100050000Y-108970000D03*
X96740000Y-108970000D03*
X127550000Y-100040000D03*
X93260000Y-108990000D03*
D30*
X95075000Y-103625000D03*
X95075000Y-102125000D03*
X98775000Y-103625000D03*
X98775000Y-102125000D03*
D34*
X95080000Y-98840000D03*
X98780000Y-98840000D03*
D32*
X143070000Y-83210000D03*
X143070000Y-81710000D03*
D35*
X153480000Y-92170000D03*
X153480000Y-89970000D03*
X93680000Y-66220000D03*
X93680000Y-68420000D03*
D34*
X131590000Y-79210000D03*
X135290000Y-79210000D03*
D28*
X141740000Y-62780000D03*
D29*
X144280000Y-62780000D03*
X146820000Y-62780000D03*
X149360000Y-62780000D03*
D28*
X179840000Y-111040000D03*
D29*
X177300000Y-111040000D03*
X174760000Y-111040000D03*
X172220000Y-111040000D03*
D28*
X139200000Y-111040000D03*
D29*
X141740000Y-111040000D03*
X144280000Y-111040000D03*
X146820000Y-111040000D03*
X149360000Y-111040000D03*
X151900000Y-111040000D03*
X154440000Y-111040000D03*
X156980000Y-111040000D03*
X159520000Y-111040000D03*
X162060000Y-111040000D03*
X164600000Y-111040000D03*
X167140000Y-111040000D03*
D28*
X184890000Y-70410000D03*
D29*
X187430000Y-70410000D03*
X184890000Y-72950000D03*
X187430000Y-72950000D03*
X184890000Y-75490000D03*
X187430000Y-75490000D03*
X184890000Y-78030000D03*
X187430000Y-78030000D03*
X184890000Y-80570000D03*
X187430000Y-80570000D03*
X184890000Y-83110000D03*
X187430000Y-83110000D03*
X184890000Y-85650000D03*
X187430000Y-85650000D03*
X184890000Y-88190000D03*
X187430000Y-88190000D03*
X184890000Y-90730000D03*
X187430000Y-90730000D03*
X184890000Y-93270000D03*
X187430000Y-93270000D03*
X184890000Y-95810000D03*
X187430000Y-95810000D03*
X184890000Y-98350000D03*
X187430000Y-98350000D03*
X184890000Y-100890000D03*
X187430000Y-100890000D03*
X184890000Y-103430000D03*
X187430000Y-103430000D03*
D14*
X103330000Y-104000000D03*
X104830000Y-104000000D03*
D28*
X115820000Y-94340000D03*
D29*
X118360000Y-94340000D03*
X120900000Y-94340000D03*
X123440000Y-94340000D03*
X125980000Y-94340000D03*
X128520000Y-94340000D03*
D32*
X143070000Y-80090000D03*
X143070000Y-78590000D03*
D28*
X125170000Y-76950000D03*
D29*
X125170000Y-79490000D03*
X125170000Y-82030000D03*
X125170000Y-84570000D03*
X125170000Y-87110000D03*
X125170000Y-89650000D03*
D28*
X118880000Y-111090000D03*
D29*
X121420000Y-111090000D03*
X123960000Y-111090000D03*
X126500000Y-111090000D03*
X129040000Y-111090000D03*
X131580000Y-111090000D03*
X134120000Y-111090000D03*
D28*
X172220000Y-62770000D03*
D29*
X169680000Y-62770000D03*
X167140000Y-62770000D03*
X164600000Y-62770000D03*
X162060000Y-62770000D03*
X159520000Y-62770000D03*
X156980000Y-62770000D03*
X154440000Y-62770000D03*
D36*
X104880000Y-111020000D03*
X181090000Y-62780000D03*
X106150000Y-62770000D03*
X187420000Y-111010000D03*
D37*
X186750000Y-63540000D03*
X96970000Y-102490000D03*
X114670000Y-62270000D03*
D38*
X95600000Y-73550000D03*
X95600000Y-74200000D03*
X95600000Y-74850000D03*
X95600000Y-75500000D03*
X95600000Y-76150000D03*
D39*
X95700000Y-72425000D03*
X95700000Y-77275000D03*
D40*
X92700000Y-71293750D03*
X92700000Y-78406250D03*
M02*
