G04 #@! TF.FileFunction,Soldermask,Bot*
%FSLAX46Y46*%
G04 Gerber Fmt 4.6, Leading zero omitted, Abs format (unit mm)*
G04 Created by KiCad (PCBNEW 4.0.7-e2-6376~58~ubuntu16.04.1) date Sun Dec 30 12:21:21 2018*
%MOMM*%
%LPD*%
G01*
G04 APERTURE LIST*
%ADD10C,0.100000*%
%ADD11R,1.000000X2.000000*%
%ADD12R,1.700000X1.700000*%
%ADD13O,1.700000X1.700000*%
%ADD14R,1.500000X1.500000*%
%ADD15C,5.600000*%
%ADD16R,1.250000X1.050000*%
%ADD17R,1.900000X2.000000*%
G04 APERTURE END LIST*
D10*
D11*
X106440000Y-96770000D03*
X104440000Y-96770000D03*
X102440000Y-96770000D03*
X100440000Y-96770000D03*
X98440000Y-96770000D03*
X96440000Y-96770000D03*
X94440000Y-96770000D03*
X92440000Y-96770000D03*
X92440000Y-80770000D03*
X94440000Y-80770000D03*
X96440000Y-80770000D03*
X98440000Y-80770000D03*
X100440000Y-80770000D03*
X102440000Y-80770000D03*
X104440000Y-80770000D03*
X106440000Y-80770000D03*
D12*
X129030000Y-62790000D03*
D13*
X131570000Y-62790000D03*
X134110000Y-62790000D03*
X136650000Y-62790000D03*
D14*
X97600000Y-77750000D03*
X97600000Y-71600000D03*
X97600000Y-75700000D03*
X97600000Y-73650000D03*
D12*
X141740000Y-62780000D03*
D13*
X144280000Y-62780000D03*
X146820000Y-62780000D03*
X149360000Y-62780000D03*
D12*
X179840000Y-111040000D03*
D13*
X177300000Y-111040000D03*
X174760000Y-111040000D03*
X172220000Y-111040000D03*
D12*
X139200000Y-111040000D03*
D13*
X141740000Y-111040000D03*
X144280000Y-111040000D03*
X146820000Y-111040000D03*
X149360000Y-111040000D03*
X151900000Y-111040000D03*
X154440000Y-111040000D03*
X156980000Y-111040000D03*
X159520000Y-111040000D03*
X162060000Y-111040000D03*
X164600000Y-111040000D03*
X167140000Y-111040000D03*
D12*
X184890000Y-70410000D03*
D13*
X187430000Y-70410000D03*
X184890000Y-72950000D03*
X187430000Y-72950000D03*
X184890000Y-75490000D03*
X187430000Y-75490000D03*
X184890000Y-78030000D03*
X187430000Y-78030000D03*
X184890000Y-80570000D03*
X187430000Y-80570000D03*
X184890000Y-83110000D03*
X187430000Y-83110000D03*
X184890000Y-85650000D03*
X187430000Y-85650000D03*
X184890000Y-88190000D03*
X187430000Y-88190000D03*
X184890000Y-90730000D03*
X187430000Y-90730000D03*
X184890000Y-93270000D03*
X187430000Y-93270000D03*
X184890000Y-95810000D03*
X187430000Y-95810000D03*
X184890000Y-98350000D03*
X187430000Y-98350000D03*
X184890000Y-100890000D03*
X187430000Y-100890000D03*
X184890000Y-103430000D03*
X187430000Y-103430000D03*
D12*
X115820000Y-94340000D03*
D13*
X118360000Y-94340000D03*
X120900000Y-94340000D03*
X123440000Y-94340000D03*
X125980000Y-94340000D03*
X128520000Y-94340000D03*
D12*
X125170000Y-76950000D03*
D13*
X125170000Y-79490000D03*
X125170000Y-82030000D03*
X125170000Y-84570000D03*
X125170000Y-87110000D03*
X125170000Y-89650000D03*
D12*
X118880000Y-111090000D03*
D13*
X121420000Y-111090000D03*
X123960000Y-111090000D03*
X126500000Y-111090000D03*
X129040000Y-111090000D03*
X131580000Y-111090000D03*
X134120000Y-111090000D03*
D12*
X172220000Y-62770000D03*
D13*
X169680000Y-62770000D03*
X167140000Y-62770000D03*
X164600000Y-62770000D03*
X162060000Y-62770000D03*
X159520000Y-62770000D03*
X156980000Y-62770000D03*
X154440000Y-62770000D03*
D15*
X104880000Y-111020000D03*
X181090000Y-62780000D03*
X106150000Y-62770000D03*
X187420000Y-111010000D03*
D16*
X95700000Y-72425000D03*
X95700000Y-77275000D03*
D17*
X92700000Y-71293750D03*
X92700000Y-78406250D03*
M02*
