G04 #@! TF.FileFunction,Copper,L4,Bot,Signal*
%FSLAX46Y46*%
G04 Gerber Fmt 4.6, Leading zero omitted, Abs format (unit mm)*
G04 Created by KiCad (PCBNEW 4.0.7-e2-6376~58~ubuntu16.04.1) date Wed Aug 22 23:11:09 2018*
%MOMM*%
%LPD*%
G01*
G04 APERTURE LIST*
%ADD10C,0.100000*%
%ADD11C,3.600000*%
%ADD12O,0.950000X1.250000*%
%ADD13O,1.550000X1.000000*%
%ADD14R,1.000000X2.000000*%
%ADD15R,1.700000X1.700000*%
%ADD16O,1.700000X1.700000*%
%ADD17R,1.500000X1.500000*%
%ADD18C,0.914400*%
%ADD19C,0.406400*%
%ADD20C,0.508000*%
%ADD21C,0.762000*%
%ADD22C,0.254000*%
%ADD23C,0.351000*%
G04 APERTURE END LIST*
D10*
D11*
X187420000Y-111010000D03*
D12*
X94980000Y-72360000D03*
X94980000Y-77360000D03*
D13*
X92280000Y-71360000D03*
X92280000Y-78360000D03*
D14*
X106440000Y-96770000D03*
X104440000Y-96770000D03*
X102440000Y-96770000D03*
X100440000Y-96770000D03*
X98440000Y-96770000D03*
X96440000Y-96770000D03*
X94440000Y-96770000D03*
X92440000Y-96770000D03*
X92440000Y-80770000D03*
X94440000Y-80770000D03*
X96440000Y-80770000D03*
X98440000Y-80770000D03*
X100440000Y-80770000D03*
X102440000Y-80770000D03*
X104440000Y-80770000D03*
X106440000Y-80770000D03*
D15*
X129030000Y-62790000D03*
D16*
X131570000Y-62790000D03*
X134110000Y-62790000D03*
X136650000Y-62790000D03*
D17*
X96960000Y-77760000D03*
X96970000Y-71590000D03*
X96960000Y-75700000D03*
X96990000Y-73650000D03*
D15*
X141740000Y-62780000D03*
D16*
X144280000Y-62780000D03*
X146820000Y-62780000D03*
X149360000Y-62780000D03*
D15*
X179840000Y-111040000D03*
D16*
X177300000Y-111040000D03*
X174760000Y-111040000D03*
X172220000Y-111040000D03*
D11*
X181090000Y-62780000D03*
X106150000Y-62770000D03*
X104880000Y-111020000D03*
D15*
X139200000Y-111040000D03*
D16*
X141740000Y-111040000D03*
X144280000Y-111040000D03*
X146820000Y-111040000D03*
X149360000Y-111040000D03*
X151900000Y-111040000D03*
X154440000Y-111040000D03*
X156980000Y-111040000D03*
X159520000Y-111040000D03*
X162060000Y-111040000D03*
X164600000Y-111040000D03*
X167140000Y-111040000D03*
D15*
X184890000Y-70410000D03*
D16*
X187430000Y-70410000D03*
X184890000Y-72950000D03*
X187430000Y-72950000D03*
X184890000Y-75490000D03*
X187430000Y-75490000D03*
X184890000Y-78030000D03*
X187430000Y-78030000D03*
X184890000Y-80570000D03*
X187430000Y-80570000D03*
X184890000Y-83110000D03*
X187430000Y-83110000D03*
X184890000Y-85650000D03*
X187430000Y-85650000D03*
X184890000Y-88190000D03*
X187430000Y-88190000D03*
X184890000Y-90730000D03*
X187430000Y-90730000D03*
X184890000Y-93270000D03*
X187430000Y-93270000D03*
X184890000Y-95810000D03*
X187430000Y-95810000D03*
X184890000Y-98350000D03*
X187430000Y-98350000D03*
X184890000Y-100890000D03*
X187430000Y-100890000D03*
X184890000Y-103430000D03*
X187430000Y-103430000D03*
D15*
X115820000Y-94340000D03*
D16*
X118360000Y-94340000D03*
X120900000Y-94340000D03*
X123440000Y-94340000D03*
X125980000Y-94340000D03*
X128520000Y-94340000D03*
D15*
X125170000Y-76950000D03*
D16*
X125170000Y-79490000D03*
X125170000Y-82030000D03*
X125170000Y-84570000D03*
X125170000Y-87110000D03*
X125170000Y-89650000D03*
D15*
X118880000Y-111090000D03*
D16*
X121420000Y-111090000D03*
X123960000Y-111090000D03*
X126500000Y-111090000D03*
X129040000Y-111090000D03*
X131580000Y-111090000D03*
X134120000Y-111090000D03*
D15*
X172220000Y-62770000D03*
D16*
X169680000Y-62770000D03*
X167140000Y-62770000D03*
X164600000Y-62770000D03*
X162060000Y-62770000D03*
X159520000Y-62770000D03*
X156980000Y-62770000D03*
X154440000Y-62770000D03*
D18*
X109840000Y-81850000D03*
X94740000Y-107470000D03*
X127740000Y-74940000D03*
X103290000Y-99460000D03*
X162760000Y-100480000D03*
X127630000Y-68730000D03*
X136570000Y-93300000D03*
X136850000Y-74110000D03*
X98670000Y-72380000D03*
X156910000Y-82700000D03*
X150740000Y-89920000D03*
X156230000Y-78410000D03*
X170370000Y-93540000D03*
X147760000Y-77420000D03*
X115380000Y-70620000D03*
X155310000Y-72590000D03*
X159010000Y-67910000D03*
X174350000Y-92650000D03*
X105540000Y-69800000D03*
X135050000Y-101580000D03*
X129590000Y-103850000D03*
X129590000Y-100040000D03*
X97730000Y-91140000D03*
X137610000Y-70490000D03*
X138300000Y-87420000D03*
X143600000Y-84760000D03*
X135660000Y-91120000D03*
X128900000Y-76910000D03*
X92490000Y-83830000D03*
X96450000Y-86500000D03*
X103230000Y-71390000D03*
X103250000Y-68510000D03*
X144640000Y-83590000D03*
X141630000Y-74640000D03*
X168200000Y-95610000D03*
X145600000Y-89800000D03*
X152890000Y-100890000D03*
X98230000Y-107470000D03*
X114970000Y-79230000D03*
X160190000Y-66250000D03*
X163700000Y-70050000D03*
X119100000Y-99560000D03*
X101510000Y-107460000D03*
X173290000Y-71320000D03*
X122750000Y-64530000D03*
X125780000Y-97760000D03*
X93370000Y-73650000D03*
X168200000Y-96860000D03*
X135270000Y-88530000D03*
X152250000Y-69800000D03*
X134060000Y-87080000D03*
X135960000Y-87060000D03*
X155600000Y-70450000D03*
X130560000Y-86320000D03*
X181100000Y-90140000D03*
X168170000Y-98150000D03*
X139070000Y-94010000D03*
X172150000Y-105350000D03*
X140010000Y-93130000D03*
X174790000Y-105310000D03*
X177210000Y-105260000D03*
X141830000Y-94180000D03*
X179830000Y-105280000D03*
X143880000Y-96440000D03*
X161550000Y-71640000D03*
X179930000Y-66780000D03*
X119360000Y-90440000D03*
X104050000Y-89840000D03*
X119360000Y-86820000D03*
X103010000Y-88150000D03*
X109960000Y-80210000D03*
X118080000Y-73690000D03*
X109950000Y-73690000D03*
X145390000Y-68240000D03*
X156050000Y-99410000D03*
X154720000Y-87230000D03*
X122240000Y-75210000D03*
X162170000Y-95860000D03*
X162210000Y-79690000D03*
X168120000Y-87620000D03*
X168150000Y-91410000D03*
X146200000Y-77420000D03*
X157890000Y-95500000D03*
X167620000Y-66240000D03*
X173060000Y-68780000D03*
X145130000Y-85220000D03*
X173370000Y-86430000D03*
X140550000Y-86300000D03*
X165360000Y-80070000D03*
X169900000Y-71320000D03*
X158330000Y-72660000D03*
X138470000Y-106420000D03*
X106010000Y-107460000D03*
X93400000Y-75940000D03*
X167250000Y-80940000D03*
X172760000Y-82460000D03*
X171440000Y-86130000D03*
X155420000Y-91290000D03*
X151240000Y-82460000D03*
X154710000Y-78900000D03*
X152890000Y-87270000D03*
X175100000Y-90150000D03*
X168170000Y-90160000D03*
X160190000Y-80170000D03*
X150660000Y-85140000D03*
X114330000Y-103100000D03*
X138570000Y-102580000D03*
X122130000Y-105380000D03*
X125210000Y-103170000D03*
X151020000Y-77990000D03*
X98470000Y-68990000D03*
X152430000Y-93990000D03*
X139750000Y-70440000D03*
X140070000Y-87630000D03*
X138580000Y-103850000D03*
X143750000Y-106220000D03*
X128180000Y-102670000D03*
X180600000Y-97000000D03*
X180600000Y-99600000D03*
X143040000Y-77390000D03*
X141980000Y-80180000D03*
X134650000Y-93250000D03*
X114990000Y-86830000D03*
X135550000Y-94350000D03*
X114990000Y-90480000D03*
X102020000Y-89860000D03*
D19*
X94740000Y-107470000D02*
X94730000Y-107480000D01*
D20*
X129030000Y-62790000D02*
X129030000Y-64210000D01*
X141740000Y-64370000D02*
X141740000Y-62780000D01*
X140980000Y-65130000D02*
X141740000Y-64370000D01*
X129950000Y-65130000D02*
X140980000Y-65130000D01*
X129030000Y-64210000D02*
X129950000Y-65130000D01*
D19*
X103290000Y-99460000D02*
X103300000Y-99460000D01*
D20*
X185150000Y-108740000D02*
X187420000Y-111010000D01*
D21*
X94440000Y-79220000D02*
X94440000Y-77900000D01*
X94440000Y-77900000D02*
X94980000Y-77360000D01*
X94440000Y-80770000D02*
X94440000Y-79220000D01*
X93580000Y-78360000D02*
X92280000Y-78360000D01*
X94440000Y-79220000D02*
X93580000Y-78360000D01*
X92440000Y-80770000D02*
X92440000Y-78520000D01*
X92440000Y-78520000D02*
X92280000Y-78360000D01*
D19*
X94980000Y-77360000D02*
X94980000Y-77730000D01*
X94980000Y-77730000D02*
X95010000Y-77760000D01*
X95010000Y-77760000D02*
X96960000Y-77760000D01*
D21*
X104880000Y-111020000D02*
X104880000Y-110950000D01*
X98660000Y-72370000D02*
X98670000Y-72380000D01*
D20*
X98660000Y-72370000D02*
X98670000Y-72380000D01*
D19*
X98670000Y-72380000D02*
X98660000Y-72370000D01*
D20*
X164090000Y-108740000D02*
X185150000Y-108740000D01*
X149430000Y-111030000D02*
X149430000Y-109400000D01*
X149430000Y-109400000D02*
X150090000Y-108740000D01*
X150090000Y-108740000D02*
X153830000Y-108740000D01*
X153830000Y-108740000D02*
X154510000Y-109420000D01*
X155190000Y-108740000D02*
X154510000Y-109420000D01*
X158970000Y-108740000D02*
X155190000Y-108740000D01*
X154510000Y-109420000D02*
X154510000Y-111030000D01*
X159590000Y-109360000D02*
X158970000Y-108740000D01*
X159590000Y-111030000D02*
X159590000Y-109360000D01*
X160210000Y-108740000D02*
X159590000Y-109360000D01*
X164670000Y-111030000D02*
X164670000Y-109320000D01*
X164670000Y-109320000D02*
X164090000Y-108740000D01*
X164090000Y-108740000D02*
X160210000Y-108740000D01*
X164670000Y-109320000D02*
X164090000Y-108740000D01*
D21*
X129590000Y-100040000D02*
X129590000Y-100550000D01*
X113720000Y-101530000D02*
X112230000Y-100040000D01*
X128610000Y-101530000D02*
X113720000Y-101530000D01*
X129590000Y-100550000D02*
X128610000Y-101530000D01*
X105540000Y-69800000D02*
X106860000Y-69800000D01*
X108190000Y-71130000D02*
X108190000Y-96000000D01*
X108190000Y-96000000D02*
X112230000Y-100040000D01*
X106860000Y-69800000D02*
X108190000Y-71130000D01*
X129590000Y-103850000D02*
X129590000Y-100040000D01*
X129590000Y-100040000D02*
X133510000Y-100040000D01*
X133510000Y-100040000D02*
X135050000Y-101580000D01*
X103250000Y-68510000D02*
X103250000Y-71370000D01*
X103250000Y-71370000D02*
X103230000Y-71390000D01*
X103250000Y-68510000D02*
X103250000Y-68140000D01*
X130700000Y-60880000D02*
X131570000Y-61750000D01*
X121730000Y-60880000D02*
X130700000Y-60880000D01*
X115780000Y-66830000D02*
X121730000Y-60880000D01*
X104560000Y-66830000D02*
X115780000Y-66830000D01*
X103250000Y-68140000D02*
X104560000Y-66830000D01*
X131570000Y-61750000D02*
X131570000Y-62790000D01*
X138300000Y-71180000D02*
X137610000Y-70490000D01*
X138300000Y-83790000D02*
X138300000Y-71180000D01*
X138300000Y-85260000D02*
X138300000Y-83790000D01*
X138800000Y-84760000D02*
X138300000Y-85260000D01*
X138300000Y-87420000D02*
X138300000Y-85260000D01*
X138300000Y-90520000D02*
X138300000Y-87420000D01*
X143600000Y-84760000D02*
X138800000Y-84760000D01*
X137700000Y-91120000D02*
X138300000Y-90520000D01*
X128900000Y-89900000D02*
X130120000Y-91120000D01*
X135660000Y-91120000D02*
X130120000Y-91120000D01*
X130120000Y-91120000D02*
X128930000Y-92310000D01*
X128930000Y-92310000D02*
X119250000Y-92310000D01*
X119250000Y-92310000D02*
X118360000Y-93200000D01*
D20*
X119250000Y-92310000D02*
X118360000Y-93200000D01*
X130120000Y-91120000D02*
X128930000Y-92310000D01*
D21*
X135660000Y-91120000D02*
X137700000Y-91120000D01*
X128900000Y-76910000D02*
X128900000Y-89900000D01*
D20*
X131570000Y-62790000D02*
X131570000Y-61750000D01*
X144280000Y-61660000D02*
X144280000Y-62780000D01*
X131570000Y-61750000D02*
X132440000Y-60880000D01*
X132440000Y-60880000D02*
X143500000Y-60880000D01*
X143500000Y-60880000D02*
X144280000Y-61660000D01*
D21*
X118360000Y-93200000D02*
X118360000Y-94340000D01*
D20*
X118360000Y-93200000D02*
X118360000Y-94340000D01*
D21*
X96450000Y-86500000D02*
X94190000Y-86500000D01*
X94190000Y-86500000D02*
X92500000Y-84810000D01*
X92500000Y-84810000D02*
X92490000Y-83830000D01*
X95850000Y-86500000D02*
X96450000Y-86500000D01*
D19*
X95850000Y-86500000D02*
X96450000Y-86500000D01*
D21*
X96450000Y-86500000D02*
X96450000Y-86500000D01*
X102440000Y-96770000D02*
X102440000Y-92490000D01*
X102440000Y-92490000D02*
X96450000Y-86500000D01*
X92440000Y-96770000D02*
X92440000Y-95560000D01*
X92440000Y-95560000D02*
X94020000Y-93980000D01*
X94020000Y-93980000D02*
X94020000Y-88930000D01*
X94020000Y-88930000D02*
X96450000Y-86500000D01*
X96440000Y-80770000D02*
X96440000Y-86490000D01*
X96440000Y-86490000D02*
X96450000Y-86500000D01*
X103250000Y-71370000D02*
X103230000Y-71390000D01*
D20*
X103250000Y-71370000D02*
X103230000Y-71390000D01*
D22*
X103230000Y-71390000D02*
X103250000Y-71370000D01*
D21*
X144640000Y-83590000D02*
X146000000Y-83590000D01*
X146000000Y-83590000D02*
X146610000Y-84200000D01*
X146610000Y-84200000D02*
X146610000Y-88790000D01*
X146610000Y-88790000D02*
X145600000Y-89800000D01*
X114970000Y-79230000D02*
X114970000Y-81750000D01*
X114970000Y-81750000D02*
X111370000Y-85350000D01*
X112110000Y-96870000D02*
X111370000Y-96130000D01*
X111370000Y-96130000D02*
X111370000Y-85350000D01*
X119100000Y-99560000D02*
X114800000Y-99560000D01*
X114800000Y-99560000D02*
X113260000Y-98020000D01*
X113260000Y-98020000D02*
X112110000Y-96870000D01*
X116740000Y-79780000D02*
X116740000Y-82450000D01*
X113210000Y-85980000D02*
X113210000Y-86590000D01*
X116740000Y-82450000D02*
X113210000Y-85980000D01*
X113750000Y-95900000D02*
X113210000Y-95360000D01*
X115610000Y-97760000D02*
X114220000Y-96370000D01*
X114220000Y-96370000D02*
X113750000Y-95900000D01*
X125780000Y-97760000D02*
X115610000Y-97760000D01*
X113210000Y-95360000D02*
X113210000Y-86590000D01*
X122750000Y-64530000D02*
X122750000Y-65990000D01*
X122750000Y-65990000D02*
X127390000Y-70630000D01*
X127390000Y-70630000D02*
X128310000Y-70630000D01*
X173290000Y-73090000D02*
X173290000Y-71320000D01*
X172230000Y-74150000D02*
X173290000Y-73090000D01*
X153780000Y-74150000D02*
X172230000Y-74150000D01*
X146315000Y-66685000D02*
X153780000Y-74150000D01*
X132255000Y-66685000D02*
X146315000Y-66685000D01*
X128310000Y-70630000D02*
X132255000Y-66685000D01*
X116740000Y-72000000D02*
X122750000Y-65990000D01*
X116740000Y-79780000D02*
X116740000Y-72000000D01*
D19*
X96990000Y-73650000D02*
X93370000Y-73650000D01*
X146730000Y-62780000D02*
X146760000Y-62780000D01*
D20*
X172150000Y-105350000D02*
X145360000Y-105350000D01*
X145360000Y-105350000D02*
X145085000Y-105075000D01*
X139070000Y-94010000D02*
X139070000Y-99060000D01*
X139070000Y-99060000D02*
X145085000Y-105075000D01*
X174790000Y-105310000D02*
X174790000Y-104420000D01*
X174790000Y-104420000D02*
X174421602Y-104051602D01*
D19*
X174790000Y-104420000D02*
X174421602Y-104051602D01*
D20*
X140010000Y-93130000D02*
X140010000Y-93160000D01*
X145701602Y-104051602D02*
X174421602Y-104051602D01*
X140510000Y-98860000D02*
X145701602Y-104051602D01*
X140510000Y-93660000D02*
X140510000Y-98860000D01*
X140010000Y-93160000D02*
X140510000Y-93660000D01*
X177210000Y-105260000D02*
X177210000Y-104470000D01*
X146630000Y-103040000D02*
X175780000Y-103040000D01*
X141830000Y-98240000D02*
X146630000Y-103040000D01*
X141830000Y-94180000D02*
X141830000Y-98240000D01*
X177210000Y-104470000D02*
X175780000Y-103040000D01*
X176620000Y-102070000D02*
X176620000Y-102040000D01*
X179830000Y-105280000D02*
X176620000Y-102070000D01*
X143880000Y-96440000D02*
X143880000Y-98500000D01*
X147420000Y-102040000D02*
X176620000Y-102040000D01*
X143880000Y-98500000D02*
X147420000Y-102040000D01*
X156980000Y-62770000D02*
X156980000Y-63710000D01*
X156980000Y-63710000D02*
X158150000Y-64880000D01*
X158150000Y-64880000D02*
X178030000Y-64880000D01*
X178030000Y-64880000D02*
X179930000Y-66780000D01*
D19*
X179930000Y-66780000D02*
X178030000Y-64880000D01*
D21*
X106440000Y-87450000D02*
X104050000Y-89840000D01*
X106440000Y-87450000D02*
X106440000Y-80770000D01*
X104440000Y-86720000D02*
X103010000Y-88150000D01*
X104440000Y-86720000D02*
X104440000Y-80770000D01*
D20*
X154720000Y-82970000D02*
X154720000Y-87230000D01*
X152830000Y-81080000D02*
X154720000Y-82970000D01*
X152830000Y-75680000D02*
X152830000Y-81080000D01*
X145390000Y-68240000D02*
X152830000Y-75680000D01*
D21*
X156050000Y-99410000D02*
X156050000Y-93450000D01*
X157340000Y-89850000D02*
X154720000Y-87230000D01*
X157340000Y-92160000D02*
X157340000Y-89850000D01*
X156050000Y-93450000D02*
X157340000Y-92160000D01*
X162170000Y-95860000D02*
X162170000Y-90880000D01*
X162170000Y-90880000D02*
X165430000Y-87620000D01*
X165430000Y-87620000D02*
X168120000Y-87620000D01*
D20*
X168120000Y-87620000D02*
X165430000Y-87620000D01*
X167620000Y-66240000D02*
X170520000Y-66240000D01*
X170520000Y-66240000D02*
X173060000Y-68780000D01*
D19*
X96960000Y-75700000D02*
X93640000Y-75700000D01*
X93640000Y-75700000D02*
X93400000Y-75940000D01*
D21*
X168170000Y-90160000D02*
X175090000Y-90160000D01*
X175090000Y-90160000D02*
X175100000Y-90150000D01*
D20*
X141750000Y-111050000D02*
X141750000Y-109700000D01*
X114330000Y-104240000D02*
X114330000Y-103100000D01*
X118760000Y-108670000D02*
X114330000Y-104240000D01*
X140720000Y-108670000D02*
X118760000Y-108670000D01*
X141750000Y-109700000D02*
X140720000Y-108670000D01*
X146830000Y-111050000D02*
X146830000Y-109850000D01*
X146830000Y-109850000D02*
X145150000Y-108170000D01*
X143060000Y-108170000D02*
X145150000Y-108170000D01*
X140310000Y-105420000D02*
X143060000Y-108170000D01*
X127460000Y-105420000D02*
X140310000Y-105420000D01*
X125210000Y-103170000D02*
X127460000Y-105420000D01*
D19*
X96970000Y-71590000D02*
X96970000Y-70490000D01*
X96970000Y-70490000D02*
X98470000Y-68990000D01*
X96970000Y-70490000D02*
X96970000Y-71360000D01*
X98470000Y-68990000D02*
X96970000Y-70490000D01*
D20*
X140070000Y-87630000D02*
X140070000Y-90980000D01*
X115820000Y-96020000D02*
X115820000Y-94340000D01*
X116270000Y-96470000D02*
X115820000Y-96020000D01*
X135980000Y-96470000D02*
X116270000Y-96470000D01*
X137820000Y-94630000D02*
X135980000Y-96470000D01*
X137820000Y-93230000D02*
X137820000Y-94630000D01*
X140070000Y-90980000D02*
X137820000Y-93230000D01*
D19*
X182000000Y-98400000D02*
X184840000Y-98400000D01*
X180600000Y-97000000D02*
X182000000Y-98400000D01*
X184840000Y-98400000D02*
X184890000Y-98350000D01*
X181890000Y-100890000D02*
X184890000Y-100890000D01*
X180600000Y-99600000D02*
X181890000Y-100890000D01*
D21*
X98440000Y-80770000D02*
X98440000Y-86280000D01*
X98440000Y-86280000D02*
X102020000Y-89860000D01*
D23*
G36*
X129118500Y-111011500D02*
X129138500Y-111011500D01*
X129138500Y-111168500D01*
X129118500Y-111168500D01*
X129118500Y-112450362D01*
X129357111Y-112590354D01*
X129876682Y-112375146D01*
X130181735Y-112077294D01*
X130359887Y-112343918D01*
X130824707Y-112654500D01*
X127255293Y-112654500D01*
X127720113Y-112343918D01*
X127898265Y-112077294D01*
X128203318Y-112375146D01*
X128722889Y-112590354D01*
X128961500Y-112450362D01*
X128961500Y-111168500D01*
X128941500Y-111168500D01*
X128941500Y-111011500D01*
X128961500Y-111011500D01*
X128961500Y-110991500D01*
X129118500Y-110991500D01*
X129118500Y-111011500D01*
X129118500Y-111011500D01*
G37*
X129118500Y-111011500D02*
X129138500Y-111011500D01*
X129138500Y-111168500D01*
X129118500Y-111168500D01*
X129118500Y-112450362D01*
X129357111Y-112590354D01*
X129876682Y-112375146D01*
X130181735Y-112077294D01*
X130359887Y-112343918D01*
X130824707Y-112654500D01*
X127255293Y-112654500D01*
X127720113Y-112343918D01*
X127898265Y-112077294D01*
X128203318Y-112375146D01*
X128722889Y-112590354D01*
X128961500Y-112450362D01*
X128961500Y-111168500D01*
X128941500Y-111168500D01*
X128941500Y-111011500D01*
X128961500Y-111011500D01*
X128961500Y-110991500D01*
X129118500Y-110991500D01*
X129118500Y-111011500D01*
G36*
X189044500Y-62173355D02*
X189044500Y-109274481D01*
X189033245Y-109285736D01*
X188844141Y-108916287D01*
X187934506Y-108530667D01*
X186946541Y-108522502D01*
X186030656Y-108893036D01*
X185995859Y-108916287D01*
X185806754Y-109285738D01*
X187420000Y-110898984D01*
X187434142Y-110884842D01*
X187545158Y-110995858D01*
X187531016Y-111010000D01*
X187545158Y-111024142D01*
X187434142Y-111135158D01*
X187420000Y-111121016D01*
X187405858Y-111135158D01*
X187294842Y-111024142D01*
X187308984Y-111010000D01*
X185695738Y-109396754D01*
X185326287Y-109585859D01*
X184940667Y-110495494D01*
X184932502Y-111483459D01*
X185303036Y-112399344D01*
X185326287Y-112434141D01*
X185695736Y-112623245D01*
X185664481Y-112654500D01*
X181118724Y-112654500D01*
X181312420Y-112529860D01*
X181512324Y-112237292D01*
X181582652Y-111890000D01*
X181582652Y-110190000D01*
X181521604Y-109865559D01*
X181329860Y-109567580D01*
X181037292Y-109367676D01*
X180690000Y-109297348D01*
X178990000Y-109297348D01*
X178665559Y-109358396D01*
X178367580Y-109550140D01*
X178304709Y-109642154D01*
X177960320Y-109412041D01*
X177300000Y-109280695D01*
X176639680Y-109412041D01*
X176079887Y-109786082D01*
X176030000Y-109860743D01*
X175980113Y-109786082D01*
X175420320Y-109412041D01*
X174760000Y-109280695D01*
X174099680Y-109412041D01*
X173539887Y-109786082D01*
X173490000Y-109860743D01*
X173440113Y-109786082D01*
X172880320Y-109412041D01*
X172220000Y-109280695D01*
X171559680Y-109412041D01*
X170999887Y-109786082D01*
X170625846Y-110345875D01*
X170494500Y-111006195D01*
X170494500Y-111073805D01*
X170625846Y-111734125D01*
X170999887Y-112293918D01*
X171539537Y-112654500D01*
X167820463Y-112654500D01*
X168360113Y-112293918D01*
X168734154Y-111734125D01*
X168865500Y-111073805D01*
X168865500Y-111006195D01*
X168734154Y-110345875D01*
X168360113Y-109786082D01*
X167800320Y-109412041D01*
X167140000Y-109280695D01*
X166479680Y-109412041D01*
X165919887Y-109786082D01*
X165741735Y-110052706D01*
X165436682Y-109754854D01*
X164917111Y-109539646D01*
X164678500Y-109679638D01*
X164678500Y-110961500D01*
X164698500Y-110961500D01*
X164698500Y-111118500D01*
X164678500Y-111118500D01*
X164678500Y-112400362D01*
X164917111Y-112540354D01*
X165436682Y-112325146D01*
X165741735Y-112027294D01*
X165919887Y-112293918D01*
X166459537Y-112654500D01*
X162740463Y-112654500D01*
X163280113Y-112293918D01*
X163458265Y-112027294D01*
X163763318Y-112325146D01*
X164282889Y-112540354D01*
X164521500Y-112400362D01*
X164521500Y-111118500D01*
X164501500Y-111118500D01*
X164501500Y-110961500D01*
X164521500Y-110961500D01*
X164521500Y-109679638D01*
X164282889Y-109539646D01*
X163763318Y-109754854D01*
X163458265Y-110052706D01*
X163280113Y-109786082D01*
X162720320Y-109412041D01*
X162060000Y-109280695D01*
X161399680Y-109412041D01*
X160839887Y-109786082D01*
X160661735Y-110052706D01*
X160356682Y-109754854D01*
X159837111Y-109539646D01*
X159598500Y-109679638D01*
X159598500Y-110961500D01*
X159618500Y-110961500D01*
X159618500Y-111118500D01*
X159598500Y-111118500D01*
X159598500Y-112400362D01*
X159837111Y-112540354D01*
X160356682Y-112325146D01*
X160661735Y-112027294D01*
X160839887Y-112293918D01*
X161379537Y-112654500D01*
X157660463Y-112654500D01*
X158200113Y-112293918D01*
X158378265Y-112027294D01*
X158683318Y-112325146D01*
X159202889Y-112540354D01*
X159441500Y-112400362D01*
X159441500Y-111118500D01*
X159421500Y-111118500D01*
X159421500Y-110961500D01*
X159441500Y-110961500D01*
X159441500Y-109679638D01*
X159202889Y-109539646D01*
X158683318Y-109754854D01*
X158378265Y-110052706D01*
X158200113Y-109786082D01*
X157640320Y-109412041D01*
X156980000Y-109280695D01*
X156319680Y-109412041D01*
X155759887Y-109786082D01*
X155581735Y-110052706D01*
X155276682Y-109754854D01*
X154757111Y-109539646D01*
X154518500Y-109679638D01*
X154518500Y-110961500D01*
X154538500Y-110961500D01*
X154538500Y-111118500D01*
X154518500Y-111118500D01*
X154518500Y-112400362D01*
X154757111Y-112540354D01*
X155276682Y-112325146D01*
X155581735Y-112027294D01*
X155759887Y-112293918D01*
X156299537Y-112654500D01*
X152580463Y-112654500D01*
X153120113Y-112293918D01*
X153298265Y-112027294D01*
X153603318Y-112325146D01*
X154122889Y-112540354D01*
X154361500Y-112400362D01*
X154361500Y-111118500D01*
X154341500Y-111118500D01*
X154341500Y-110961500D01*
X154361500Y-110961500D01*
X154361500Y-109679638D01*
X154122889Y-109539646D01*
X153603318Y-109754854D01*
X153298265Y-110052706D01*
X153120113Y-109786082D01*
X152560320Y-109412041D01*
X151900000Y-109280695D01*
X151239680Y-109412041D01*
X150679887Y-109786082D01*
X150501735Y-110052706D01*
X150196682Y-109754854D01*
X149677111Y-109539646D01*
X149438500Y-109679638D01*
X149438500Y-110961500D01*
X149458500Y-110961500D01*
X149458500Y-111118500D01*
X149438500Y-111118500D01*
X149438500Y-112400362D01*
X149677111Y-112540354D01*
X150196682Y-112325146D01*
X150501735Y-112027294D01*
X150679887Y-112293918D01*
X151219537Y-112654500D01*
X147500463Y-112654500D01*
X148040113Y-112293918D01*
X148218265Y-112027294D01*
X148523318Y-112325146D01*
X149042889Y-112540354D01*
X149281500Y-112400362D01*
X149281500Y-111118500D01*
X149261500Y-111118500D01*
X149261500Y-110961500D01*
X149281500Y-110961500D01*
X149281500Y-109679638D01*
X149042889Y-109539646D01*
X148523318Y-109754854D01*
X148218265Y-110052706D01*
X148040113Y-109786082D01*
X147932481Y-109714165D01*
X147873522Y-109417759D01*
X147628677Y-109051323D01*
X145948677Y-107371323D01*
X145582241Y-107126478D01*
X145150000Y-107040500D01*
X144814435Y-107040500D01*
X144879149Y-106975899D01*
X145082468Y-106486253D01*
X145082522Y-106424306D01*
X145360000Y-106479500D01*
X171394946Y-106479500D01*
X171883747Y-106682468D01*
X172413927Y-106682931D01*
X172903928Y-106480467D01*
X173279149Y-106105899D01*
X173478503Y-105625802D01*
X173659533Y-106063928D01*
X174034101Y-106439149D01*
X174523747Y-106642468D01*
X175053927Y-106642931D01*
X175543928Y-106440467D01*
X175919149Y-106065899D01*
X176010303Y-105846377D01*
X176079533Y-106013928D01*
X176454101Y-106389149D01*
X176943747Y-106592468D01*
X177473927Y-106592931D01*
X177963928Y-106390467D01*
X178339149Y-106015899D01*
X178516052Y-105589870D01*
X178699533Y-106033928D01*
X179074101Y-106409149D01*
X179563747Y-106612468D01*
X180093927Y-106612931D01*
X180583928Y-106410467D01*
X180959149Y-106035899D01*
X181162468Y-105546253D01*
X181162931Y-105016073D01*
X180960467Y-104526072D01*
X180585899Y-104150851D01*
X180096253Y-103947532D01*
X180094885Y-103947531D01*
X177479087Y-101331733D01*
X177418677Y-101241323D01*
X177052241Y-100996478D01*
X176620000Y-100910500D01*
X154222683Y-100910500D01*
X154222931Y-100626073D01*
X154020467Y-100136072D01*
X153645899Y-99760851D01*
X153156253Y-99557532D01*
X152626073Y-99557069D01*
X152136072Y-99759533D01*
X151760851Y-100134101D01*
X151557532Y-100623747D01*
X151557282Y-100910500D01*
X147887854Y-100910500D01*
X145009500Y-98032146D01*
X145009500Y-97195054D01*
X145212468Y-96706253D01*
X145212931Y-96176073D01*
X145010467Y-95686072D01*
X144635899Y-95310851D01*
X144146253Y-95107532D01*
X143616073Y-95107069D01*
X143126072Y-95309533D01*
X142959500Y-95475815D01*
X142959500Y-94935054D01*
X143162468Y-94446253D01*
X143162635Y-94253927D01*
X151097069Y-94253927D01*
X151299533Y-94743928D01*
X151674101Y-95119149D01*
X152163747Y-95322468D01*
X152693927Y-95322931D01*
X153183928Y-95120467D01*
X153559149Y-94745899D01*
X153762468Y-94256253D01*
X153762931Y-93726073D01*
X153560467Y-93236072D01*
X153185899Y-92860851D01*
X152696253Y-92657532D01*
X152166073Y-92657069D01*
X151676072Y-92859533D01*
X151300851Y-93234101D01*
X151097532Y-93723747D01*
X151097069Y-94253927D01*
X143162635Y-94253927D01*
X143162931Y-93916073D01*
X142960467Y-93426072D01*
X142585899Y-93050851D01*
X142096253Y-92847532D01*
X141566073Y-92847069D01*
X141356902Y-92933497D01*
X141342890Y-92912527D01*
X141342931Y-92866073D01*
X141140467Y-92376072D01*
X140765899Y-92000851D01*
X140681534Y-91965820D01*
X140868677Y-91778677D01*
X141113522Y-91412241D01*
X141199500Y-90980000D01*
X141199500Y-88385054D01*
X141402468Y-87896253D01*
X141402931Y-87366073D01*
X141392857Y-87341693D01*
X141679149Y-87055899D01*
X141882468Y-86566253D01*
X141882931Y-86036073D01*
X141874844Y-86016500D01*
X143150796Y-86016500D01*
X143333747Y-86092468D01*
X143863927Y-86092931D01*
X144044038Y-86018511D01*
X144374101Y-86349149D01*
X144863747Y-86552468D01*
X145353500Y-86552896D01*
X145353500Y-88269541D01*
X145029156Y-88593884D01*
X144846072Y-88669533D01*
X144470851Y-89044101D01*
X144267532Y-89533747D01*
X144267069Y-90063927D01*
X144469533Y-90553928D01*
X144844101Y-90929149D01*
X145333747Y-91132468D01*
X145863927Y-91132931D01*
X146353928Y-90930467D01*
X146729149Y-90555899D01*
X146805902Y-90371058D01*
X147498477Y-89678482D01*
X147498480Y-89678480D01*
X147770855Y-89270842D01*
X147795475Y-89147069D01*
X147866501Y-88790000D01*
X147866500Y-88789995D01*
X147866500Y-85403927D01*
X149327069Y-85403927D01*
X149529533Y-85893928D01*
X149904101Y-86269149D01*
X150393747Y-86472468D01*
X150923927Y-86472931D01*
X151413928Y-86270467D01*
X151789149Y-85895899D01*
X151992468Y-85406253D01*
X151992931Y-84876073D01*
X151790467Y-84386072D01*
X151415899Y-84010851D01*
X150926253Y-83807532D01*
X150396073Y-83807069D01*
X149906072Y-84009533D01*
X149530851Y-84384101D01*
X149327532Y-84873747D01*
X149327069Y-85403927D01*
X147866500Y-85403927D01*
X147866500Y-84200000D01*
X147770855Y-83719158D01*
X147498480Y-83311520D01*
X147498477Y-83311518D01*
X146888480Y-82701520D01*
X146480842Y-82429145D01*
X146000000Y-82333500D01*
X145089204Y-82333500D01*
X144906253Y-82257532D01*
X144376073Y-82257069D01*
X143886072Y-82459533D01*
X143510851Y-82834101D01*
X143307532Y-83323747D01*
X143307431Y-83438903D01*
X143151096Y-83503500D01*
X139556500Y-83503500D01*
X139556500Y-80443927D01*
X140647069Y-80443927D01*
X140849533Y-80933928D01*
X141224101Y-81309149D01*
X141713747Y-81512468D01*
X142243927Y-81512931D01*
X142733928Y-81310467D01*
X143109149Y-80935899D01*
X143312468Y-80446253D01*
X143312931Y-79916073D01*
X143110467Y-79426072D01*
X142735899Y-79050851D01*
X142246253Y-78847532D01*
X141716073Y-78847069D01*
X141226072Y-79049533D01*
X140850851Y-79424101D01*
X140647532Y-79913747D01*
X140647069Y-80443927D01*
X139556500Y-80443927D01*
X139556500Y-77653927D01*
X141707069Y-77653927D01*
X141909533Y-78143928D01*
X142284101Y-78519149D01*
X142773747Y-78722468D01*
X143303927Y-78722931D01*
X143793928Y-78520467D01*
X144169149Y-78145899D01*
X144360976Y-77683927D01*
X144867069Y-77683927D01*
X145069533Y-78173928D01*
X145444101Y-78549149D01*
X145933747Y-78752468D01*
X146463927Y-78752931D01*
X146953928Y-78550467D01*
X147329149Y-78175899D01*
X147532468Y-77686253D01*
X147532931Y-77156073D01*
X147330467Y-76666072D01*
X146955899Y-76290851D01*
X146466253Y-76087532D01*
X145936073Y-76087069D01*
X145446072Y-76289533D01*
X145070851Y-76664101D01*
X144867532Y-77153747D01*
X144867069Y-77683927D01*
X144360976Y-77683927D01*
X144372468Y-77656253D01*
X144372931Y-77126073D01*
X144170467Y-76636072D01*
X143795899Y-76260851D01*
X143306253Y-76057532D01*
X142776073Y-76057069D01*
X142286072Y-76259533D01*
X141910851Y-76634101D01*
X141707532Y-77123747D01*
X141707069Y-77653927D01*
X139556500Y-77653927D01*
X139556500Y-74903927D01*
X140297069Y-74903927D01*
X140499533Y-75393928D01*
X140874101Y-75769149D01*
X141363747Y-75972468D01*
X141893927Y-75972931D01*
X142383928Y-75770467D01*
X142759149Y-75395899D01*
X142962468Y-74906253D01*
X142962931Y-74376073D01*
X142760467Y-73886072D01*
X142385899Y-73510851D01*
X141896253Y-73307532D01*
X141366073Y-73307069D01*
X140876072Y-73509533D01*
X140500851Y-73884101D01*
X140297532Y-74373747D01*
X140297069Y-74903927D01*
X139556500Y-74903927D01*
X139556500Y-71772532D01*
X140013927Y-71772931D01*
X140503928Y-71570467D01*
X140879149Y-71195899D01*
X141082468Y-70706253D01*
X141082931Y-70176073D01*
X140880467Y-69686072D01*
X140505899Y-69310851D01*
X140016253Y-69107532D01*
X139486073Y-69107069D01*
X138996072Y-69309533D01*
X138654778Y-69650233D01*
X138365899Y-69360851D01*
X137876253Y-69157532D01*
X137346073Y-69157069D01*
X136856072Y-69359533D01*
X136480851Y-69734101D01*
X136277532Y-70223747D01*
X136277069Y-70753927D01*
X136479533Y-71243928D01*
X136854101Y-71619149D01*
X137038942Y-71695902D01*
X137043500Y-71700460D01*
X137043500Y-74955306D01*
X136034097Y-73945903D01*
X135978279Y-73908327D01*
X135910000Y-73894500D01*
X130050000Y-73894500D01*
X129986213Y-73906502D01*
X129927629Y-73944200D01*
X129888327Y-74001721D01*
X129874500Y-74070000D01*
X129874500Y-75999833D01*
X129655899Y-75780851D01*
X129166253Y-75577532D01*
X128636073Y-75577069D01*
X128146072Y-75779533D01*
X127770851Y-76154101D01*
X127567532Y-76643747D01*
X127567069Y-77173927D01*
X127643500Y-77358904D01*
X127643500Y-89900000D01*
X127739145Y-90380842D01*
X128011520Y-90788480D01*
X128276540Y-91053500D01*
X126149459Y-91053500D01*
X126423918Y-90870113D01*
X126797959Y-90310320D01*
X126929305Y-89650000D01*
X126797959Y-88989680D01*
X126423918Y-88429887D01*
X126349257Y-88380000D01*
X126423918Y-88330113D01*
X126797959Y-87770320D01*
X126929305Y-87110000D01*
X126797959Y-86449680D01*
X126423918Y-85889887D01*
X126349257Y-85840000D01*
X126423918Y-85790113D01*
X126797959Y-85230320D01*
X126929305Y-84570000D01*
X126797959Y-83909680D01*
X126423918Y-83349887D01*
X126157294Y-83171735D01*
X126455146Y-82866682D01*
X126670354Y-82347111D01*
X126530362Y-82108500D01*
X125248500Y-82108500D01*
X125248500Y-82128500D01*
X125091500Y-82128500D01*
X125091500Y-82108500D01*
X123809638Y-82108500D01*
X123669646Y-82347111D01*
X123884854Y-82866682D01*
X124182706Y-83171735D01*
X123916082Y-83349887D01*
X123542041Y-83909680D01*
X123410695Y-84570000D01*
X123542041Y-85230320D01*
X123916082Y-85790113D01*
X123990743Y-85840000D01*
X123916082Y-85889887D01*
X123542041Y-86449680D01*
X123410695Y-87110000D01*
X123542041Y-87770320D01*
X123916082Y-88330113D01*
X123990743Y-88380000D01*
X123916082Y-88429887D01*
X123542041Y-88989680D01*
X123410695Y-89650000D01*
X123542041Y-90310320D01*
X123916082Y-90870113D01*
X124190541Y-91053500D01*
X120548278Y-91053500D01*
X120692468Y-90706253D01*
X120692931Y-90176073D01*
X120490467Y-89686072D01*
X120115899Y-89310851D01*
X119626253Y-89107532D01*
X119096073Y-89107069D01*
X118606072Y-89309533D01*
X118230851Y-89684101D01*
X118027532Y-90173747D01*
X118027069Y-90703927D01*
X118229533Y-91193928D01*
X118418633Y-91383358D01*
X118361520Y-91421520D01*
X117471520Y-92311520D01*
X117199145Y-92719158D01*
X117186402Y-92783224D01*
X117017292Y-92667676D01*
X116670000Y-92597348D01*
X114970000Y-92597348D01*
X114645559Y-92658396D01*
X114466500Y-92773617D01*
X114466500Y-91705650D01*
X114723747Y-91812468D01*
X115253927Y-91812931D01*
X115743928Y-91610467D01*
X116119149Y-91235899D01*
X116322468Y-90746253D01*
X116322931Y-90216073D01*
X116120467Y-89726072D01*
X115745899Y-89350851D01*
X115256253Y-89147532D01*
X114726073Y-89147069D01*
X114466500Y-89254322D01*
X114466500Y-88055650D01*
X114723747Y-88162468D01*
X115253927Y-88162931D01*
X115743928Y-87960467D01*
X116119149Y-87585899D01*
X116322468Y-87096253D01*
X116322478Y-87083927D01*
X118027069Y-87083927D01*
X118229533Y-87573928D01*
X118604101Y-87949149D01*
X119093747Y-88152468D01*
X119623927Y-88152931D01*
X120113928Y-87950467D01*
X120489149Y-87575899D01*
X120692468Y-87086253D01*
X120692931Y-86556073D01*
X120490467Y-86066072D01*
X120115899Y-85690851D01*
X119626253Y-85487532D01*
X119096073Y-85487069D01*
X118606072Y-85689533D01*
X118230851Y-86064101D01*
X118027532Y-86553747D01*
X118027069Y-87083927D01*
X116322478Y-87083927D01*
X116322931Y-86566073D01*
X116120467Y-86076072D01*
X115745899Y-85700851D01*
X115406882Y-85560078D01*
X117628480Y-83338480D01*
X117900855Y-82930842D01*
X117996501Y-82450000D01*
X117996500Y-82449995D01*
X117996500Y-79490000D01*
X123410695Y-79490000D01*
X123542041Y-80150320D01*
X123916082Y-80710113D01*
X124182706Y-80888265D01*
X123884854Y-81193318D01*
X123669646Y-81712889D01*
X123809638Y-81951500D01*
X125091500Y-81951500D01*
X125091500Y-81931500D01*
X125248500Y-81931500D01*
X125248500Y-81951500D01*
X126530362Y-81951500D01*
X126670354Y-81712889D01*
X126455146Y-81193318D01*
X126157294Y-80888265D01*
X126423918Y-80710113D01*
X126797959Y-80150320D01*
X126929305Y-79490000D01*
X126797959Y-78829680D01*
X126569040Y-78487078D01*
X126642420Y-78439860D01*
X126842324Y-78147292D01*
X126912652Y-77800000D01*
X126912652Y-76100000D01*
X126851604Y-75775559D01*
X126659860Y-75477580D01*
X126367292Y-75277676D01*
X126020000Y-75207348D01*
X124320000Y-75207348D01*
X123995559Y-75268396D01*
X123697580Y-75460140D01*
X123497676Y-75752708D01*
X123427348Y-76100000D01*
X123427348Y-77800000D01*
X123488396Y-78124441D01*
X123680140Y-78422420D01*
X123772154Y-78485291D01*
X123542041Y-78829680D01*
X123410695Y-79490000D01*
X117996500Y-79490000D01*
X117996500Y-75473927D01*
X120907069Y-75473927D01*
X121109533Y-75963928D01*
X121484101Y-76339149D01*
X121973747Y-76542468D01*
X122503927Y-76542931D01*
X122993928Y-76340467D01*
X123369149Y-75965899D01*
X123572468Y-75476253D01*
X123572931Y-74946073D01*
X123370467Y-74456072D01*
X122995899Y-74080851D01*
X122506253Y-73877532D01*
X121976073Y-73877069D01*
X121486072Y-74079533D01*
X121110851Y-74454101D01*
X120907532Y-74943747D01*
X120907069Y-75473927D01*
X117996500Y-75473927D01*
X117996500Y-75022628D01*
X118343927Y-75022931D01*
X118833928Y-74820467D01*
X119209149Y-74445899D01*
X119412468Y-73956253D01*
X119412931Y-73426073D01*
X119210467Y-72936072D01*
X118835899Y-72560851D01*
X118346253Y-72357532D01*
X118159591Y-72357369D01*
X122750000Y-67766960D01*
X126501520Y-71518480D01*
X126909158Y-71790855D01*
X127390000Y-71886501D01*
X127390005Y-71886500D01*
X128310000Y-71886500D01*
X128790842Y-71790855D01*
X129198480Y-71518480D01*
X132775459Y-67941500D01*
X144070922Y-67941500D01*
X144057532Y-67973747D01*
X144057069Y-68503927D01*
X144259533Y-68993928D01*
X144634101Y-69369149D01*
X145123747Y-69572468D01*
X145125115Y-69572469D01*
X151700500Y-76147854D01*
X151700500Y-76829543D01*
X151286253Y-76657532D01*
X150756073Y-76657069D01*
X150266072Y-76859533D01*
X149890851Y-77234101D01*
X149687532Y-77723747D01*
X149687069Y-78253927D01*
X149889533Y-78743928D01*
X150264101Y-79119149D01*
X150753747Y-79322468D01*
X151283927Y-79322931D01*
X151700500Y-79150807D01*
X151700500Y-81080000D01*
X151728294Y-81219732D01*
X151506253Y-81127532D01*
X150976073Y-81127069D01*
X150486072Y-81329533D01*
X150110851Y-81704101D01*
X149907532Y-82193747D01*
X149907069Y-82723927D01*
X150109533Y-83213928D01*
X150484101Y-83589149D01*
X150973747Y-83792468D01*
X151503927Y-83792931D01*
X151993928Y-83590467D01*
X152369149Y-83215899D01*
X152572468Y-82726253D01*
X152572735Y-82420089D01*
X153590500Y-83437854D01*
X153590500Y-86117847D01*
X153156253Y-85937532D01*
X152626073Y-85937069D01*
X152136072Y-86139533D01*
X151760851Y-86514101D01*
X151557532Y-87003747D01*
X151557069Y-87533927D01*
X151759533Y-88023928D01*
X152134101Y-88399149D01*
X152623747Y-88602468D01*
X153153927Y-88602931D01*
X153643928Y-88400467D01*
X153824952Y-88219758D01*
X153964101Y-88359149D01*
X154148942Y-88435902D01*
X155670559Y-89957518D01*
X155156073Y-89957069D01*
X154666072Y-90159533D01*
X154290851Y-90534101D01*
X154087532Y-91023747D01*
X154087069Y-91553927D01*
X154289533Y-92043928D01*
X154664101Y-92419149D01*
X155127953Y-92611757D01*
X154889145Y-92969158D01*
X154793500Y-93450000D01*
X154793500Y-98960796D01*
X154717532Y-99143747D01*
X154717069Y-99673927D01*
X154919533Y-100163928D01*
X155294101Y-100539149D01*
X155783747Y-100742468D01*
X156313927Y-100742931D01*
X156803928Y-100540467D01*
X157179149Y-100165899D01*
X157382468Y-99676253D01*
X157382931Y-99146073D01*
X157306500Y-98961096D01*
X157306500Y-98413927D01*
X166837069Y-98413927D01*
X167039533Y-98903928D01*
X167414101Y-99279149D01*
X167903747Y-99482468D01*
X168433927Y-99482931D01*
X168923928Y-99280467D01*
X169299149Y-98905899D01*
X169502468Y-98416253D01*
X169502931Y-97886073D01*
X169360300Y-97540879D01*
X169475300Y-97263927D01*
X179267069Y-97263927D01*
X179469533Y-97753928D01*
X179844101Y-98129149D01*
X180255964Y-98300169D01*
X179846072Y-98469533D01*
X179470851Y-98844101D01*
X179267532Y-99333747D01*
X179267069Y-99863927D01*
X179469533Y-100353928D01*
X179844101Y-100729149D01*
X180333747Y-100932468D01*
X180407020Y-100932532D01*
X181127244Y-101652756D01*
X181477199Y-101886589D01*
X181890000Y-101968700D01*
X183541593Y-101968700D01*
X183636082Y-102110113D01*
X183710743Y-102160000D01*
X183636082Y-102209887D01*
X183262041Y-102769680D01*
X183130695Y-103430000D01*
X183262041Y-104090320D01*
X183636082Y-104650113D01*
X184195875Y-105024154D01*
X184856195Y-105155500D01*
X184923805Y-105155500D01*
X185584125Y-105024154D01*
X186143918Y-104650113D01*
X186296406Y-104421898D01*
X186562864Y-104694798D01*
X187112888Y-104930360D01*
X187351500Y-104790620D01*
X187351500Y-103508500D01*
X187508500Y-103508500D01*
X187508500Y-104790620D01*
X187747112Y-104930360D01*
X188297136Y-104694798D01*
X188715146Y-104266682D01*
X188930354Y-103747111D01*
X188790362Y-103508500D01*
X187508500Y-103508500D01*
X187351500Y-103508500D01*
X187331500Y-103508500D01*
X187331500Y-103351500D01*
X187351500Y-103351500D01*
X187351500Y-100968500D01*
X187508500Y-100968500D01*
X187508500Y-103351500D01*
X188790362Y-103351500D01*
X188930354Y-103112889D01*
X188715146Y-102593318D01*
X188297136Y-102165202D01*
X188284990Y-102160000D01*
X188297136Y-102154798D01*
X188715146Y-101726682D01*
X188930354Y-101207111D01*
X188790362Y-100968500D01*
X187508500Y-100968500D01*
X187351500Y-100968500D01*
X187331500Y-100968500D01*
X187331500Y-100811500D01*
X187351500Y-100811500D01*
X187351500Y-98428500D01*
X187508500Y-98428500D01*
X187508500Y-100811500D01*
X188790362Y-100811500D01*
X188930354Y-100572889D01*
X188715146Y-100053318D01*
X188297136Y-99625202D01*
X188284990Y-99620000D01*
X188297136Y-99614798D01*
X188715146Y-99186682D01*
X188930354Y-98667111D01*
X188790362Y-98428500D01*
X187508500Y-98428500D01*
X187351500Y-98428500D01*
X187331500Y-98428500D01*
X187331500Y-98271500D01*
X187351500Y-98271500D01*
X187351500Y-95888500D01*
X187508500Y-95888500D01*
X187508500Y-98271500D01*
X188790362Y-98271500D01*
X188930354Y-98032889D01*
X188715146Y-97513318D01*
X188297136Y-97085202D01*
X188284990Y-97080000D01*
X188297136Y-97074798D01*
X188715146Y-96646682D01*
X188930354Y-96127111D01*
X188790362Y-95888500D01*
X187508500Y-95888500D01*
X187351500Y-95888500D01*
X187331500Y-95888500D01*
X187331500Y-95731500D01*
X187351500Y-95731500D01*
X187351500Y-93348500D01*
X187508500Y-93348500D01*
X187508500Y-95731500D01*
X188790362Y-95731500D01*
X188930354Y-95492889D01*
X188715146Y-94973318D01*
X188297136Y-94545202D01*
X188284990Y-94540000D01*
X188297136Y-94534798D01*
X188715146Y-94106682D01*
X188930354Y-93587111D01*
X188790362Y-93348500D01*
X187508500Y-93348500D01*
X187351500Y-93348500D01*
X187331500Y-93348500D01*
X187331500Y-93191500D01*
X187351500Y-93191500D01*
X187351500Y-90808500D01*
X187508500Y-90808500D01*
X187508500Y-93191500D01*
X188790362Y-93191500D01*
X188930354Y-92952889D01*
X188715146Y-92433318D01*
X188297136Y-92005202D01*
X188284990Y-92000000D01*
X188297136Y-91994798D01*
X188715146Y-91566682D01*
X188930354Y-91047111D01*
X188790362Y-90808500D01*
X187508500Y-90808500D01*
X187351500Y-90808500D01*
X187331500Y-90808500D01*
X187331500Y-90651500D01*
X187351500Y-90651500D01*
X187351500Y-88268500D01*
X187508500Y-88268500D01*
X187508500Y-90651500D01*
X188790362Y-90651500D01*
X188930354Y-90412889D01*
X188715146Y-89893318D01*
X188297136Y-89465202D01*
X188284990Y-89460000D01*
X188297136Y-89454798D01*
X188715146Y-89026682D01*
X188930354Y-88507111D01*
X188790362Y-88268500D01*
X187508500Y-88268500D01*
X187351500Y-88268500D01*
X187331500Y-88268500D01*
X187331500Y-88111500D01*
X187351500Y-88111500D01*
X187351500Y-85728500D01*
X187508500Y-85728500D01*
X187508500Y-88111500D01*
X188790362Y-88111500D01*
X188930354Y-87872889D01*
X188715146Y-87353318D01*
X188297136Y-86925202D01*
X188284990Y-86920000D01*
X188297136Y-86914798D01*
X188715146Y-86486682D01*
X188930354Y-85967111D01*
X188790362Y-85728500D01*
X187508500Y-85728500D01*
X187351500Y-85728500D01*
X187331500Y-85728500D01*
X187331500Y-85571500D01*
X187351500Y-85571500D01*
X187351500Y-83188500D01*
X187508500Y-83188500D01*
X187508500Y-85571500D01*
X188790362Y-85571500D01*
X188930354Y-85332889D01*
X188715146Y-84813318D01*
X188297136Y-84385202D01*
X188284990Y-84380000D01*
X188297136Y-84374798D01*
X188715146Y-83946682D01*
X188930354Y-83427111D01*
X188790362Y-83188500D01*
X187508500Y-83188500D01*
X187351500Y-83188500D01*
X187331500Y-83188500D01*
X187331500Y-83031500D01*
X187351500Y-83031500D01*
X187351500Y-80648500D01*
X187508500Y-80648500D01*
X187508500Y-83031500D01*
X188790362Y-83031500D01*
X188930354Y-82792889D01*
X188715146Y-82273318D01*
X188297136Y-81845202D01*
X188284990Y-81840000D01*
X188297136Y-81834798D01*
X188715146Y-81406682D01*
X188930354Y-80887111D01*
X188790362Y-80648500D01*
X187508500Y-80648500D01*
X187351500Y-80648500D01*
X187331500Y-80648500D01*
X187331500Y-80491500D01*
X187351500Y-80491500D01*
X187351500Y-78108500D01*
X187508500Y-78108500D01*
X187508500Y-80491500D01*
X188790362Y-80491500D01*
X188930354Y-80252889D01*
X188715146Y-79733318D01*
X188297136Y-79305202D01*
X188284990Y-79300000D01*
X188297136Y-79294798D01*
X188715146Y-78866682D01*
X188930354Y-78347111D01*
X188790362Y-78108500D01*
X187508500Y-78108500D01*
X187351500Y-78108500D01*
X187331500Y-78108500D01*
X187331500Y-77951500D01*
X187351500Y-77951500D01*
X187351500Y-75568500D01*
X187508500Y-75568500D01*
X187508500Y-77951500D01*
X188790362Y-77951500D01*
X188930354Y-77712889D01*
X188715146Y-77193318D01*
X188297136Y-76765202D01*
X188284990Y-76760000D01*
X188297136Y-76754798D01*
X188715146Y-76326682D01*
X188930354Y-75807111D01*
X188790362Y-75568500D01*
X187508500Y-75568500D01*
X187351500Y-75568500D01*
X187331500Y-75568500D01*
X187331500Y-75411500D01*
X187351500Y-75411500D01*
X187351500Y-73028500D01*
X187508500Y-73028500D01*
X187508500Y-75411500D01*
X188790362Y-75411500D01*
X188930354Y-75172889D01*
X188715146Y-74653318D01*
X188297136Y-74225202D01*
X188284990Y-74220000D01*
X188297136Y-74214798D01*
X188715146Y-73786682D01*
X188930354Y-73267111D01*
X188790362Y-73028500D01*
X187508500Y-73028500D01*
X187351500Y-73028500D01*
X187331500Y-73028500D01*
X187331500Y-72871500D01*
X187351500Y-72871500D01*
X187351500Y-70488500D01*
X187508500Y-70488500D01*
X187508500Y-72871500D01*
X188790362Y-72871500D01*
X188930354Y-72632889D01*
X188715146Y-72113318D01*
X188297136Y-71685202D01*
X188284990Y-71680000D01*
X188297136Y-71674798D01*
X188715146Y-71246682D01*
X188930354Y-70727111D01*
X188790362Y-70488500D01*
X187508500Y-70488500D01*
X187351500Y-70488500D01*
X187331500Y-70488500D01*
X187331500Y-70331500D01*
X187351500Y-70331500D01*
X187351500Y-69049380D01*
X187508500Y-69049380D01*
X187508500Y-70331500D01*
X188790362Y-70331500D01*
X188930354Y-70092889D01*
X188715146Y-69573318D01*
X188297136Y-69145202D01*
X187747112Y-68909640D01*
X187508500Y-69049380D01*
X187351500Y-69049380D01*
X187112888Y-68909640D01*
X186562864Y-69145202D01*
X186533086Y-69175700D01*
X186379860Y-68937580D01*
X186087292Y-68737676D01*
X185740000Y-68667348D01*
X184040000Y-68667348D01*
X183715559Y-68728396D01*
X183417580Y-68920140D01*
X183217676Y-69212708D01*
X183147348Y-69560000D01*
X183147348Y-71260000D01*
X183208396Y-71584441D01*
X183400140Y-71882420D01*
X183492154Y-71945291D01*
X183262041Y-72289680D01*
X183130695Y-72950000D01*
X183262041Y-73610320D01*
X183636082Y-74170113D01*
X183710743Y-74220000D01*
X183636082Y-74269887D01*
X183262041Y-74829680D01*
X183130695Y-75490000D01*
X183262041Y-76150320D01*
X183636082Y-76710113D01*
X183710743Y-76760000D01*
X183636082Y-76809887D01*
X183262041Y-77369680D01*
X183130695Y-78030000D01*
X183262041Y-78690320D01*
X183636082Y-79250113D01*
X183710743Y-79300000D01*
X183636082Y-79349887D01*
X183262041Y-79909680D01*
X183130695Y-80570000D01*
X183262041Y-81230320D01*
X183636082Y-81790113D01*
X183710743Y-81840000D01*
X183636082Y-81889887D01*
X183262041Y-82449680D01*
X183130695Y-83110000D01*
X183262041Y-83770320D01*
X183636082Y-84330113D01*
X183710743Y-84380000D01*
X183636082Y-84429887D01*
X183262041Y-84989680D01*
X183130695Y-85650000D01*
X183262041Y-86310320D01*
X183636082Y-86870113D01*
X183710743Y-86920000D01*
X183636082Y-86969887D01*
X183262041Y-87529680D01*
X183130695Y-88190000D01*
X183262041Y-88850320D01*
X183636082Y-89410113D01*
X183710743Y-89460000D01*
X183636082Y-89509887D01*
X183262041Y-90069680D01*
X183130695Y-90730000D01*
X183262041Y-91390320D01*
X183636082Y-91950113D01*
X183710743Y-92000000D01*
X183636082Y-92049887D01*
X183262041Y-92609680D01*
X183130695Y-93270000D01*
X183262041Y-93930320D01*
X183636082Y-94490113D01*
X183710743Y-94540000D01*
X183636082Y-94589887D01*
X183262041Y-95149680D01*
X183130695Y-95810000D01*
X183262041Y-96470320D01*
X183636082Y-97030113D01*
X183710743Y-97080000D01*
X183636082Y-97129887D01*
X183508184Y-97321300D01*
X182446812Y-97321300D01*
X181932869Y-96807357D01*
X181932931Y-96736073D01*
X181730467Y-96246072D01*
X181355899Y-95870851D01*
X180866253Y-95667532D01*
X180336073Y-95667069D01*
X179846072Y-95869533D01*
X179470851Y-96244101D01*
X179267532Y-96733747D01*
X179267069Y-97263927D01*
X169475300Y-97263927D01*
X169532468Y-97126253D01*
X169532931Y-96596073D01*
X169383621Y-96234715D01*
X169532468Y-95876253D01*
X169532931Y-95346073D01*
X169330467Y-94856072D01*
X168955899Y-94480851D01*
X168466253Y-94277532D01*
X167936073Y-94277069D01*
X167446072Y-94479533D01*
X167070851Y-94854101D01*
X166867532Y-95343747D01*
X166867069Y-95873927D01*
X167016379Y-96235285D01*
X166867532Y-96593747D01*
X166867069Y-97123927D01*
X167009700Y-97469121D01*
X166837532Y-97883747D01*
X166837069Y-98413927D01*
X157306500Y-98413927D01*
X157306500Y-96700735D01*
X157623747Y-96832468D01*
X158153927Y-96832931D01*
X158643928Y-96630467D01*
X159019149Y-96255899D01*
X159073948Y-96123927D01*
X160837069Y-96123927D01*
X161039533Y-96613928D01*
X161414101Y-96989149D01*
X161903747Y-97192468D01*
X162433927Y-97192931D01*
X162923928Y-96990467D01*
X163299149Y-96615899D01*
X163502468Y-96126253D01*
X163502931Y-95596073D01*
X163426500Y-95411096D01*
X163426500Y-91400460D01*
X165950460Y-88876500D01*
X167670796Y-88876500D01*
X167728476Y-88900451D01*
X167416072Y-89029533D01*
X167040851Y-89404101D01*
X166837532Y-89893747D01*
X166837069Y-90423927D01*
X166976403Y-90761143D01*
X166817532Y-91143747D01*
X166817069Y-91673927D01*
X167019533Y-92163928D01*
X167394101Y-92539149D01*
X167883747Y-92742468D01*
X168413927Y-92742931D01*
X168903928Y-92540467D01*
X169279149Y-92165899D01*
X169482468Y-91676253D01*
X169482695Y-91416500D01*
X174674879Y-91416500D01*
X174833747Y-91482468D01*
X175363927Y-91482931D01*
X175853928Y-91280467D01*
X176229149Y-90905899D01*
X176432468Y-90416253D01*
X176432478Y-90403927D01*
X179767069Y-90403927D01*
X179969533Y-90893928D01*
X180344101Y-91269149D01*
X180833747Y-91472468D01*
X181363927Y-91472931D01*
X181853928Y-91270467D01*
X182229149Y-90895899D01*
X182432468Y-90406253D01*
X182432931Y-89876073D01*
X182230467Y-89386072D01*
X181855899Y-89010851D01*
X181366253Y-88807532D01*
X180836073Y-88807069D01*
X180346072Y-89009533D01*
X179970851Y-89384101D01*
X179767532Y-89873747D01*
X179767069Y-90403927D01*
X176432478Y-90403927D01*
X176432931Y-89886073D01*
X176230467Y-89396072D01*
X175855899Y-89020851D01*
X175366253Y-88817532D01*
X174836073Y-88817069D01*
X174626894Y-88903500D01*
X168619204Y-88903500D01*
X168561524Y-88879549D01*
X168873928Y-88750467D01*
X169249149Y-88375899D01*
X169452468Y-87886253D01*
X169452931Y-87356073D01*
X169250467Y-86866072D01*
X168875899Y-86490851D01*
X168642481Y-86393927D01*
X170107069Y-86393927D01*
X170309533Y-86883928D01*
X170684101Y-87259149D01*
X171173747Y-87462468D01*
X171703927Y-87462931D01*
X172193928Y-87260467D01*
X172255040Y-87199462D01*
X172614101Y-87559149D01*
X173103747Y-87762468D01*
X173633927Y-87762931D01*
X174123928Y-87560467D01*
X174499149Y-87185899D01*
X174702468Y-86696253D01*
X174702931Y-86166073D01*
X174500467Y-85676072D01*
X174125899Y-85300851D01*
X173636253Y-85097532D01*
X173106073Y-85097069D01*
X172616072Y-85299533D01*
X172554960Y-85360538D01*
X172195899Y-85000851D01*
X171706253Y-84797532D01*
X171176073Y-84797069D01*
X170686072Y-84999533D01*
X170310851Y-85374101D01*
X170107532Y-85863747D01*
X170107069Y-86393927D01*
X168642481Y-86393927D01*
X168386253Y-86287532D01*
X167856073Y-86287069D01*
X167671096Y-86363500D01*
X165430000Y-86363500D01*
X164949158Y-86459145D01*
X164541520Y-86731520D01*
X161281520Y-89991520D01*
X161009145Y-90399158D01*
X160913500Y-90880000D01*
X160913500Y-95410796D01*
X160837532Y-95593747D01*
X160837069Y-96123927D01*
X159073948Y-96123927D01*
X159222468Y-95766253D01*
X159222931Y-95236073D01*
X159020467Y-94746072D01*
X158645899Y-94370851D01*
X158156253Y-94167532D01*
X157626073Y-94167069D01*
X157306500Y-94299114D01*
X157306500Y-93970460D01*
X158228477Y-93048482D01*
X158228480Y-93048480D01*
X158500855Y-92640842D01*
X158596500Y-92160000D01*
X158596500Y-89850005D01*
X158596501Y-89850000D01*
X158508198Y-89406072D01*
X158500855Y-89369158D01*
X158228480Y-88961520D01*
X158228477Y-88961518D01*
X155926116Y-86659156D01*
X155850467Y-86476072D01*
X155849500Y-86475103D01*
X155849500Y-82970000D01*
X155800554Y-82723927D01*
X171427069Y-82723927D01*
X171629533Y-83213928D01*
X172004101Y-83589149D01*
X172493747Y-83792468D01*
X173023927Y-83792931D01*
X173513928Y-83590467D01*
X173889149Y-83215899D01*
X174092468Y-82726253D01*
X174092931Y-82196073D01*
X173890467Y-81706072D01*
X173515899Y-81330851D01*
X173026253Y-81127532D01*
X172496073Y-81127069D01*
X172006072Y-81329533D01*
X171630851Y-81704101D01*
X171427532Y-82193747D01*
X171427069Y-82723927D01*
X155800554Y-82723927D01*
X155763522Y-82537759D01*
X155518677Y-82171323D01*
X153959500Y-80612146D01*
X153959500Y-80433927D01*
X158857069Y-80433927D01*
X159059533Y-80923928D01*
X159434101Y-81299149D01*
X159923747Y-81502468D01*
X160453927Y-81502931D01*
X160943928Y-81300467D01*
X161319149Y-80925899D01*
X161390098Y-80755035D01*
X161454101Y-80819149D01*
X161943747Y-81022468D01*
X162473927Y-81022931D01*
X162963928Y-80820467D01*
X163339149Y-80445899D01*
X163385643Y-80333927D01*
X164027069Y-80333927D01*
X164229533Y-80823928D01*
X164604101Y-81199149D01*
X165093747Y-81402468D01*
X165623927Y-81402931D01*
X165944556Y-81270450D01*
X166119533Y-81693928D01*
X166494101Y-82069149D01*
X166983747Y-82272468D01*
X167513927Y-82272931D01*
X168003928Y-82070467D01*
X168379149Y-81695899D01*
X168582468Y-81206253D01*
X168582931Y-80676073D01*
X168380467Y-80186072D01*
X168005899Y-79810851D01*
X167516253Y-79607532D01*
X166986073Y-79607069D01*
X166665444Y-79739550D01*
X166490467Y-79316072D01*
X166115899Y-78940851D01*
X165626253Y-78737532D01*
X165096073Y-78737069D01*
X164606072Y-78939533D01*
X164230851Y-79314101D01*
X164027532Y-79803747D01*
X164027069Y-80333927D01*
X163385643Y-80333927D01*
X163542468Y-79956253D01*
X163542931Y-79426073D01*
X163340467Y-78936072D01*
X162965899Y-78560851D01*
X162476253Y-78357532D01*
X161946073Y-78357069D01*
X161456072Y-78559533D01*
X161080851Y-78934101D01*
X161009902Y-79104965D01*
X160945899Y-79040851D01*
X160456253Y-78837532D01*
X159926073Y-78837069D01*
X159436072Y-79039533D01*
X159060851Y-79414101D01*
X158857532Y-79903747D01*
X158857069Y-80433927D01*
X153959500Y-80433927D01*
X153959500Y-80031391D01*
X154443747Y-80232468D01*
X154973927Y-80232931D01*
X155463928Y-80030467D01*
X155839149Y-79655899D01*
X156042468Y-79166253D01*
X156042931Y-78636073D01*
X155840467Y-78146072D01*
X155465899Y-77770851D01*
X154976253Y-77567532D01*
X154446073Y-77567069D01*
X153959500Y-77768117D01*
X153959500Y-75680000D01*
X153905098Y-75406500D01*
X172230000Y-75406500D01*
X172710842Y-75310855D01*
X173118480Y-75038480D01*
X173118481Y-75038479D01*
X174178477Y-73978482D01*
X174178480Y-73978480D01*
X174450855Y-73570842D01*
X174546500Y-73090000D01*
X174546500Y-71769204D01*
X174622468Y-71586253D01*
X174622931Y-71056073D01*
X174420467Y-70566072D01*
X174045899Y-70190851D01*
X173591747Y-70002270D01*
X173813928Y-69910467D01*
X174189149Y-69535899D01*
X174392468Y-69046253D01*
X174392931Y-68516073D01*
X174190467Y-68026072D01*
X173815899Y-67650851D01*
X173326253Y-67447532D01*
X173324885Y-67447531D01*
X171886854Y-66009500D01*
X177562146Y-66009500D01*
X178597418Y-67044772D01*
X178799533Y-67533928D01*
X179174101Y-67909149D01*
X179663747Y-68112468D01*
X180193927Y-68112931D01*
X180683928Y-67910467D01*
X181059149Y-67535899D01*
X181262468Y-67046253D01*
X181262931Y-66516073D01*
X181060467Y-66026072D01*
X180685899Y-65650851D01*
X180196253Y-65447532D01*
X180194885Y-65447531D01*
X179364186Y-64616832D01*
X179476755Y-64504264D01*
X179665859Y-64873713D01*
X180575494Y-65259333D01*
X181563459Y-65267498D01*
X182479344Y-64896964D01*
X182514141Y-64873713D01*
X182703246Y-64504262D01*
X181090000Y-62891016D01*
X181075858Y-62905158D01*
X180964842Y-62794142D01*
X180978984Y-62780000D01*
X180964842Y-62765858D01*
X181075858Y-62654842D01*
X181090000Y-62668984D01*
X181104142Y-62654842D01*
X181215158Y-62765858D01*
X181201016Y-62780000D01*
X182814262Y-64393246D01*
X183183713Y-64204141D01*
X183569333Y-63294506D01*
X183577498Y-62306541D01*
X183206964Y-61390656D01*
X183183713Y-61355859D01*
X182870423Y-61195500D01*
X188066646Y-61195500D01*
X189044500Y-62173355D01*
X189044500Y-62173355D01*
G37*
X189044500Y-62173355D02*
X189044500Y-109274481D01*
X189033245Y-109285736D01*
X188844141Y-108916287D01*
X187934506Y-108530667D01*
X186946541Y-108522502D01*
X186030656Y-108893036D01*
X185995859Y-108916287D01*
X185806754Y-109285738D01*
X187420000Y-110898984D01*
X187434142Y-110884842D01*
X187545158Y-110995858D01*
X187531016Y-111010000D01*
X187545158Y-111024142D01*
X187434142Y-111135158D01*
X187420000Y-111121016D01*
X187405858Y-111135158D01*
X187294842Y-111024142D01*
X187308984Y-111010000D01*
X185695738Y-109396754D01*
X185326287Y-109585859D01*
X184940667Y-110495494D01*
X184932502Y-111483459D01*
X185303036Y-112399344D01*
X185326287Y-112434141D01*
X185695736Y-112623245D01*
X185664481Y-112654500D01*
X181118724Y-112654500D01*
X181312420Y-112529860D01*
X181512324Y-112237292D01*
X181582652Y-111890000D01*
X181582652Y-110190000D01*
X181521604Y-109865559D01*
X181329860Y-109567580D01*
X181037292Y-109367676D01*
X180690000Y-109297348D01*
X178990000Y-109297348D01*
X178665559Y-109358396D01*
X178367580Y-109550140D01*
X178304709Y-109642154D01*
X177960320Y-109412041D01*
X177300000Y-109280695D01*
X176639680Y-109412041D01*
X176079887Y-109786082D01*
X176030000Y-109860743D01*
X175980113Y-109786082D01*
X175420320Y-109412041D01*
X174760000Y-109280695D01*
X174099680Y-109412041D01*
X173539887Y-109786082D01*
X173490000Y-109860743D01*
X173440113Y-109786082D01*
X172880320Y-109412041D01*
X172220000Y-109280695D01*
X171559680Y-109412041D01*
X170999887Y-109786082D01*
X170625846Y-110345875D01*
X170494500Y-111006195D01*
X170494500Y-111073805D01*
X170625846Y-111734125D01*
X170999887Y-112293918D01*
X171539537Y-112654500D01*
X167820463Y-112654500D01*
X168360113Y-112293918D01*
X168734154Y-111734125D01*
X168865500Y-111073805D01*
X168865500Y-111006195D01*
X168734154Y-110345875D01*
X168360113Y-109786082D01*
X167800320Y-109412041D01*
X167140000Y-109280695D01*
X166479680Y-109412041D01*
X165919887Y-109786082D01*
X165741735Y-110052706D01*
X165436682Y-109754854D01*
X164917111Y-109539646D01*
X164678500Y-109679638D01*
X164678500Y-110961500D01*
X164698500Y-110961500D01*
X164698500Y-111118500D01*
X164678500Y-111118500D01*
X164678500Y-112400362D01*
X164917111Y-112540354D01*
X165436682Y-112325146D01*
X165741735Y-112027294D01*
X165919887Y-112293918D01*
X166459537Y-112654500D01*
X162740463Y-112654500D01*
X163280113Y-112293918D01*
X163458265Y-112027294D01*
X163763318Y-112325146D01*
X164282889Y-112540354D01*
X164521500Y-112400362D01*
X164521500Y-111118500D01*
X164501500Y-111118500D01*
X164501500Y-110961500D01*
X164521500Y-110961500D01*
X164521500Y-109679638D01*
X164282889Y-109539646D01*
X163763318Y-109754854D01*
X163458265Y-110052706D01*
X163280113Y-109786082D01*
X162720320Y-109412041D01*
X162060000Y-109280695D01*
X161399680Y-109412041D01*
X160839887Y-109786082D01*
X160661735Y-110052706D01*
X160356682Y-109754854D01*
X159837111Y-109539646D01*
X159598500Y-109679638D01*
X159598500Y-110961500D01*
X159618500Y-110961500D01*
X159618500Y-111118500D01*
X159598500Y-111118500D01*
X159598500Y-112400362D01*
X159837111Y-112540354D01*
X160356682Y-112325146D01*
X160661735Y-112027294D01*
X160839887Y-112293918D01*
X161379537Y-112654500D01*
X157660463Y-112654500D01*
X158200113Y-112293918D01*
X158378265Y-112027294D01*
X158683318Y-112325146D01*
X159202889Y-112540354D01*
X159441500Y-112400362D01*
X159441500Y-111118500D01*
X159421500Y-111118500D01*
X159421500Y-110961500D01*
X159441500Y-110961500D01*
X159441500Y-109679638D01*
X159202889Y-109539646D01*
X158683318Y-109754854D01*
X158378265Y-110052706D01*
X158200113Y-109786082D01*
X157640320Y-109412041D01*
X156980000Y-109280695D01*
X156319680Y-109412041D01*
X155759887Y-109786082D01*
X155581735Y-110052706D01*
X155276682Y-109754854D01*
X154757111Y-109539646D01*
X154518500Y-109679638D01*
X154518500Y-110961500D01*
X154538500Y-110961500D01*
X154538500Y-111118500D01*
X154518500Y-111118500D01*
X154518500Y-112400362D01*
X154757111Y-112540354D01*
X155276682Y-112325146D01*
X155581735Y-112027294D01*
X155759887Y-112293918D01*
X156299537Y-112654500D01*
X152580463Y-112654500D01*
X153120113Y-112293918D01*
X153298265Y-112027294D01*
X153603318Y-112325146D01*
X154122889Y-112540354D01*
X154361500Y-112400362D01*
X154361500Y-111118500D01*
X154341500Y-111118500D01*
X154341500Y-110961500D01*
X154361500Y-110961500D01*
X154361500Y-109679638D01*
X154122889Y-109539646D01*
X153603318Y-109754854D01*
X153298265Y-110052706D01*
X153120113Y-109786082D01*
X152560320Y-109412041D01*
X151900000Y-109280695D01*
X151239680Y-109412041D01*
X150679887Y-109786082D01*
X150501735Y-110052706D01*
X150196682Y-109754854D01*
X149677111Y-109539646D01*
X149438500Y-109679638D01*
X149438500Y-110961500D01*
X149458500Y-110961500D01*
X149458500Y-111118500D01*
X149438500Y-111118500D01*
X149438500Y-112400362D01*
X149677111Y-112540354D01*
X150196682Y-112325146D01*
X150501735Y-112027294D01*
X150679887Y-112293918D01*
X151219537Y-112654500D01*
X147500463Y-112654500D01*
X148040113Y-112293918D01*
X148218265Y-112027294D01*
X148523318Y-112325146D01*
X149042889Y-112540354D01*
X149281500Y-112400362D01*
X149281500Y-111118500D01*
X149261500Y-111118500D01*
X149261500Y-110961500D01*
X149281500Y-110961500D01*
X149281500Y-109679638D01*
X149042889Y-109539646D01*
X148523318Y-109754854D01*
X148218265Y-110052706D01*
X148040113Y-109786082D01*
X147932481Y-109714165D01*
X147873522Y-109417759D01*
X147628677Y-109051323D01*
X145948677Y-107371323D01*
X145582241Y-107126478D01*
X145150000Y-107040500D01*
X144814435Y-107040500D01*
X144879149Y-106975899D01*
X145082468Y-106486253D01*
X145082522Y-106424306D01*
X145360000Y-106479500D01*
X171394946Y-106479500D01*
X171883747Y-106682468D01*
X172413927Y-106682931D01*
X172903928Y-106480467D01*
X173279149Y-106105899D01*
X173478503Y-105625802D01*
X173659533Y-106063928D01*
X174034101Y-106439149D01*
X174523747Y-106642468D01*
X175053927Y-106642931D01*
X175543928Y-106440467D01*
X175919149Y-106065899D01*
X176010303Y-105846377D01*
X176079533Y-106013928D01*
X176454101Y-106389149D01*
X176943747Y-106592468D01*
X177473927Y-106592931D01*
X177963928Y-106390467D01*
X178339149Y-106015899D01*
X178516052Y-105589870D01*
X178699533Y-106033928D01*
X179074101Y-106409149D01*
X179563747Y-106612468D01*
X180093927Y-106612931D01*
X180583928Y-106410467D01*
X180959149Y-106035899D01*
X181162468Y-105546253D01*
X181162931Y-105016073D01*
X180960467Y-104526072D01*
X180585899Y-104150851D01*
X180096253Y-103947532D01*
X180094885Y-103947531D01*
X177479087Y-101331733D01*
X177418677Y-101241323D01*
X177052241Y-100996478D01*
X176620000Y-100910500D01*
X154222683Y-100910500D01*
X154222931Y-100626073D01*
X154020467Y-100136072D01*
X153645899Y-99760851D01*
X153156253Y-99557532D01*
X152626073Y-99557069D01*
X152136072Y-99759533D01*
X151760851Y-100134101D01*
X151557532Y-100623747D01*
X151557282Y-100910500D01*
X147887854Y-100910500D01*
X145009500Y-98032146D01*
X145009500Y-97195054D01*
X145212468Y-96706253D01*
X145212931Y-96176073D01*
X145010467Y-95686072D01*
X144635899Y-95310851D01*
X144146253Y-95107532D01*
X143616073Y-95107069D01*
X143126072Y-95309533D01*
X142959500Y-95475815D01*
X142959500Y-94935054D01*
X143162468Y-94446253D01*
X143162635Y-94253927D01*
X151097069Y-94253927D01*
X151299533Y-94743928D01*
X151674101Y-95119149D01*
X152163747Y-95322468D01*
X152693927Y-95322931D01*
X153183928Y-95120467D01*
X153559149Y-94745899D01*
X153762468Y-94256253D01*
X153762931Y-93726073D01*
X153560467Y-93236072D01*
X153185899Y-92860851D01*
X152696253Y-92657532D01*
X152166073Y-92657069D01*
X151676072Y-92859533D01*
X151300851Y-93234101D01*
X151097532Y-93723747D01*
X151097069Y-94253927D01*
X143162635Y-94253927D01*
X143162931Y-93916073D01*
X142960467Y-93426072D01*
X142585899Y-93050851D01*
X142096253Y-92847532D01*
X141566073Y-92847069D01*
X141356902Y-92933497D01*
X141342890Y-92912527D01*
X141342931Y-92866073D01*
X141140467Y-92376072D01*
X140765899Y-92000851D01*
X140681534Y-91965820D01*
X140868677Y-91778677D01*
X141113522Y-91412241D01*
X141199500Y-90980000D01*
X141199500Y-88385054D01*
X141402468Y-87896253D01*
X141402931Y-87366073D01*
X141392857Y-87341693D01*
X141679149Y-87055899D01*
X141882468Y-86566253D01*
X141882931Y-86036073D01*
X141874844Y-86016500D01*
X143150796Y-86016500D01*
X143333747Y-86092468D01*
X143863927Y-86092931D01*
X144044038Y-86018511D01*
X144374101Y-86349149D01*
X144863747Y-86552468D01*
X145353500Y-86552896D01*
X145353500Y-88269541D01*
X145029156Y-88593884D01*
X144846072Y-88669533D01*
X144470851Y-89044101D01*
X144267532Y-89533747D01*
X144267069Y-90063927D01*
X144469533Y-90553928D01*
X144844101Y-90929149D01*
X145333747Y-91132468D01*
X145863927Y-91132931D01*
X146353928Y-90930467D01*
X146729149Y-90555899D01*
X146805902Y-90371058D01*
X147498477Y-89678482D01*
X147498480Y-89678480D01*
X147770855Y-89270842D01*
X147795475Y-89147069D01*
X147866501Y-88790000D01*
X147866500Y-88789995D01*
X147866500Y-85403927D01*
X149327069Y-85403927D01*
X149529533Y-85893928D01*
X149904101Y-86269149D01*
X150393747Y-86472468D01*
X150923927Y-86472931D01*
X151413928Y-86270467D01*
X151789149Y-85895899D01*
X151992468Y-85406253D01*
X151992931Y-84876073D01*
X151790467Y-84386072D01*
X151415899Y-84010851D01*
X150926253Y-83807532D01*
X150396073Y-83807069D01*
X149906072Y-84009533D01*
X149530851Y-84384101D01*
X149327532Y-84873747D01*
X149327069Y-85403927D01*
X147866500Y-85403927D01*
X147866500Y-84200000D01*
X147770855Y-83719158D01*
X147498480Y-83311520D01*
X147498477Y-83311518D01*
X146888480Y-82701520D01*
X146480842Y-82429145D01*
X146000000Y-82333500D01*
X145089204Y-82333500D01*
X144906253Y-82257532D01*
X144376073Y-82257069D01*
X143886072Y-82459533D01*
X143510851Y-82834101D01*
X143307532Y-83323747D01*
X143307431Y-83438903D01*
X143151096Y-83503500D01*
X139556500Y-83503500D01*
X139556500Y-80443927D01*
X140647069Y-80443927D01*
X140849533Y-80933928D01*
X141224101Y-81309149D01*
X141713747Y-81512468D01*
X142243927Y-81512931D01*
X142733928Y-81310467D01*
X143109149Y-80935899D01*
X143312468Y-80446253D01*
X143312931Y-79916073D01*
X143110467Y-79426072D01*
X142735899Y-79050851D01*
X142246253Y-78847532D01*
X141716073Y-78847069D01*
X141226072Y-79049533D01*
X140850851Y-79424101D01*
X140647532Y-79913747D01*
X140647069Y-80443927D01*
X139556500Y-80443927D01*
X139556500Y-77653927D01*
X141707069Y-77653927D01*
X141909533Y-78143928D01*
X142284101Y-78519149D01*
X142773747Y-78722468D01*
X143303927Y-78722931D01*
X143793928Y-78520467D01*
X144169149Y-78145899D01*
X144360976Y-77683927D01*
X144867069Y-77683927D01*
X145069533Y-78173928D01*
X145444101Y-78549149D01*
X145933747Y-78752468D01*
X146463927Y-78752931D01*
X146953928Y-78550467D01*
X147329149Y-78175899D01*
X147532468Y-77686253D01*
X147532931Y-77156073D01*
X147330467Y-76666072D01*
X146955899Y-76290851D01*
X146466253Y-76087532D01*
X145936073Y-76087069D01*
X145446072Y-76289533D01*
X145070851Y-76664101D01*
X144867532Y-77153747D01*
X144867069Y-77683927D01*
X144360976Y-77683927D01*
X144372468Y-77656253D01*
X144372931Y-77126073D01*
X144170467Y-76636072D01*
X143795899Y-76260851D01*
X143306253Y-76057532D01*
X142776073Y-76057069D01*
X142286072Y-76259533D01*
X141910851Y-76634101D01*
X141707532Y-77123747D01*
X141707069Y-77653927D01*
X139556500Y-77653927D01*
X139556500Y-74903927D01*
X140297069Y-74903927D01*
X140499533Y-75393928D01*
X140874101Y-75769149D01*
X141363747Y-75972468D01*
X141893927Y-75972931D01*
X142383928Y-75770467D01*
X142759149Y-75395899D01*
X142962468Y-74906253D01*
X142962931Y-74376073D01*
X142760467Y-73886072D01*
X142385899Y-73510851D01*
X141896253Y-73307532D01*
X141366073Y-73307069D01*
X140876072Y-73509533D01*
X140500851Y-73884101D01*
X140297532Y-74373747D01*
X140297069Y-74903927D01*
X139556500Y-74903927D01*
X139556500Y-71772532D01*
X140013927Y-71772931D01*
X140503928Y-71570467D01*
X140879149Y-71195899D01*
X141082468Y-70706253D01*
X141082931Y-70176073D01*
X140880467Y-69686072D01*
X140505899Y-69310851D01*
X140016253Y-69107532D01*
X139486073Y-69107069D01*
X138996072Y-69309533D01*
X138654778Y-69650233D01*
X138365899Y-69360851D01*
X137876253Y-69157532D01*
X137346073Y-69157069D01*
X136856072Y-69359533D01*
X136480851Y-69734101D01*
X136277532Y-70223747D01*
X136277069Y-70753927D01*
X136479533Y-71243928D01*
X136854101Y-71619149D01*
X137038942Y-71695902D01*
X137043500Y-71700460D01*
X137043500Y-74955306D01*
X136034097Y-73945903D01*
X135978279Y-73908327D01*
X135910000Y-73894500D01*
X130050000Y-73894500D01*
X129986213Y-73906502D01*
X129927629Y-73944200D01*
X129888327Y-74001721D01*
X129874500Y-74070000D01*
X129874500Y-75999833D01*
X129655899Y-75780851D01*
X129166253Y-75577532D01*
X128636073Y-75577069D01*
X128146072Y-75779533D01*
X127770851Y-76154101D01*
X127567532Y-76643747D01*
X127567069Y-77173927D01*
X127643500Y-77358904D01*
X127643500Y-89900000D01*
X127739145Y-90380842D01*
X128011520Y-90788480D01*
X128276540Y-91053500D01*
X126149459Y-91053500D01*
X126423918Y-90870113D01*
X126797959Y-90310320D01*
X126929305Y-89650000D01*
X126797959Y-88989680D01*
X126423918Y-88429887D01*
X126349257Y-88380000D01*
X126423918Y-88330113D01*
X126797959Y-87770320D01*
X126929305Y-87110000D01*
X126797959Y-86449680D01*
X126423918Y-85889887D01*
X126349257Y-85840000D01*
X126423918Y-85790113D01*
X126797959Y-85230320D01*
X126929305Y-84570000D01*
X126797959Y-83909680D01*
X126423918Y-83349887D01*
X126157294Y-83171735D01*
X126455146Y-82866682D01*
X126670354Y-82347111D01*
X126530362Y-82108500D01*
X125248500Y-82108500D01*
X125248500Y-82128500D01*
X125091500Y-82128500D01*
X125091500Y-82108500D01*
X123809638Y-82108500D01*
X123669646Y-82347111D01*
X123884854Y-82866682D01*
X124182706Y-83171735D01*
X123916082Y-83349887D01*
X123542041Y-83909680D01*
X123410695Y-84570000D01*
X123542041Y-85230320D01*
X123916082Y-85790113D01*
X123990743Y-85840000D01*
X123916082Y-85889887D01*
X123542041Y-86449680D01*
X123410695Y-87110000D01*
X123542041Y-87770320D01*
X123916082Y-88330113D01*
X123990743Y-88380000D01*
X123916082Y-88429887D01*
X123542041Y-88989680D01*
X123410695Y-89650000D01*
X123542041Y-90310320D01*
X123916082Y-90870113D01*
X124190541Y-91053500D01*
X120548278Y-91053500D01*
X120692468Y-90706253D01*
X120692931Y-90176073D01*
X120490467Y-89686072D01*
X120115899Y-89310851D01*
X119626253Y-89107532D01*
X119096073Y-89107069D01*
X118606072Y-89309533D01*
X118230851Y-89684101D01*
X118027532Y-90173747D01*
X118027069Y-90703927D01*
X118229533Y-91193928D01*
X118418633Y-91383358D01*
X118361520Y-91421520D01*
X117471520Y-92311520D01*
X117199145Y-92719158D01*
X117186402Y-92783224D01*
X117017292Y-92667676D01*
X116670000Y-92597348D01*
X114970000Y-92597348D01*
X114645559Y-92658396D01*
X114466500Y-92773617D01*
X114466500Y-91705650D01*
X114723747Y-91812468D01*
X115253927Y-91812931D01*
X115743928Y-91610467D01*
X116119149Y-91235899D01*
X116322468Y-90746253D01*
X116322931Y-90216073D01*
X116120467Y-89726072D01*
X115745899Y-89350851D01*
X115256253Y-89147532D01*
X114726073Y-89147069D01*
X114466500Y-89254322D01*
X114466500Y-88055650D01*
X114723747Y-88162468D01*
X115253927Y-88162931D01*
X115743928Y-87960467D01*
X116119149Y-87585899D01*
X116322468Y-87096253D01*
X116322478Y-87083927D01*
X118027069Y-87083927D01*
X118229533Y-87573928D01*
X118604101Y-87949149D01*
X119093747Y-88152468D01*
X119623927Y-88152931D01*
X120113928Y-87950467D01*
X120489149Y-87575899D01*
X120692468Y-87086253D01*
X120692931Y-86556073D01*
X120490467Y-86066072D01*
X120115899Y-85690851D01*
X119626253Y-85487532D01*
X119096073Y-85487069D01*
X118606072Y-85689533D01*
X118230851Y-86064101D01*
X118027532Y-86553747D01*
X118027069Y-87083927D01*
X116322478Y-87083927D01*
X116322931Y-86566073D01*
X116120467Y-86076072D01*
X115745899Y-85700851D01*
X115406882Y-85560078D01*
X117628480Y-83338480D01*
X117900855Y-82930842D01*
X117996501Y-82450000D01*
X117996500Y-82449995D01*
X117996500Y-79490000D01*
X123410695Y-79490000D01*
X123542041Y-80150320D01*
X123916082Y-80710113D01*
X124182706Y-80888265D01*
X123884854Y-81193318D01*
X123669646Y-81712889D01*
X123809638Y-81951500D01*
X125091500Y-81951500D01*
X125091500Y-81931500D01*
X125248500Y-81931500D01*
X125248500Y-81951500D01*
X126530362Y-81951500D01*
X126670354Y-81712889D01*
X126455146Y-81193318D01*
X126157294Y-80888265D01*
X126423918Y-80710113D01*
X126797959Y-80150320D01*
X126929305Y-79490000D01*
X126797959Y-78829680D01*
X126569040Y-78487078D01*
X126642420Y-78439860D01*
X126842324Y-78147292D01*
X126912652Y-77800000D01*
X126912652Y-76100000D01*
X126851604Y-75775559D01*
X126659860Y-75477580D01*
X126367292Y-75277676D01*
X126020000Y-75207348D01*
X124320000Y-75207348D01*
X123995559Y-75268396D01*
X123697580Y-75460140D01*
X123497676Y-75752708D01*
X123427348Y-76100000D01*
X123427348Y-77800000D01*
X123488396Y-78124441D01*
X123680140Y-78422420D01*
X123772154Y-78485291D01*
X123542041Y-78829680D01*
X123410695Y-79490000D01*
X117996500Y-79490000D01*
X117996500Y-75473927D01*
X120907069Y-75473927D01*
X121109533Y-75963928D01*
X121484101Y-76339149D01*
X121973747Y-76542468D01*
X122503927Y-76542931D01*
X122993928Y-76340467D01*
X123369149Y-75965899D01*
X123572468Y-75476253D01*
X123572931Y-74946073D01*
X123370467Y-74456072D01*
X122995899Y-74080851D01*
X122506253Y-73877532D01*
X121976073Y-73877069D01*
X121486072Y-74079533D01*
X121110851Y-74454101D01*
X120907532Y-74943747D01*
X120907069Y-75473927D01*
X117996500Y-75473927D01*
X117996500Y-75022628D01*
X118343927Y-75022931D01*
X118833928Y-74820467D01*
X119209149Y-74445899D01*
X119412468Y-73956253D01*
X119412931Y-73426073D01*
X119210467Y-72936072D01*
X118835899Y-72560851D01*
X118346253Y-72357532D01*
X118159591Y-72357369D01*
X122750000Y-67766960D01*
X126501520Y-71518480D01*
X126909158Y-71790855D01*
X127390000Y-71886501D01*
X127390005Y-71886500D01*
X128310000Y-71886500D01*
X128790842Y-71790855D01*
X129198480Y-71518480D01*
X132775459Y-67941500D01*
X144070922Y-67941500D01*
X144057532Y-67973747D01*
X144057069Y-68503927D01*
X144259533Y-68993928D01*
X144634101Y-69369149D01*
X145123747Y-69572468D01*
X145125115Y-69572469D01*
X151700500Y-76147854D01*
X151700500Y-76829543D01*
X151286253Y-76657532D01*
X150756073Y-76657069D01*
X150266072Y-76859533D01*
X149890851Y-77234101D01*
X149687532Y-77723747D01*
X149687069Y-78253927D01*
X149889533Y-78743928D01*
X150264101Y-79119149D01*
X150753747Y-79322468D01*
X151283927Y-79322931D01*
X151700500Y-79150807D01*
X151700500Y-81080000D01*
X151728294Y-81219732D01*
X151506253Y-81127532D01*
X150976073Y-81127069D01*
X150486072Y-81329533D01*
X150110851Y-81704101D01*
X149907532Y-82193747D01*
X149907069Y-82723927D01*
X150109533Y-83213928D01*
X150484101Y-83589149D01*
X150973747Y-83792468D01*
X151503927Y-83792931D01*
X151993928Y-83590467D01*
X152369149Y-83215899D01*
X152572468Y-82726253D01*
X152572735Y-82420089D01*
X153590500Y-83437854D01*
X153590500Y-86117847D01*
X153156253Y-85937532D01*
X152626073Y-85937069D01*
X152136072Y-86139533D01*
X151760851Y-86514101D01*
X151557532Y-87003747D01*
X151557069Y-87533927D01*
X151759533Y-88023928D01*
X152134101Y-88399149D01*
X152623747Y-88602468D01*
X153153927Y-88602931D01*
X153643928Y-88400467D01*
X153824952Y-88219758D01*
X153964101Y-88359149D01*
X154148942Y-88435902D01*
X155670559Y-89957518D01*
X155156073Y-89957069D01*
X154666072Y-90159533D01*
X154290851Y-90534101D01*
X154087532Y-91023747D01*
X154087069Y-91553927D01*
X154289533Y-92043928D01*
X154664101Y-92419149D01*
X155127953Y-92611757D01*
X154889145Y-92969158D01*
X154793500Y-93450000D01*
X154793500Y-98960796D01*
X154717532Y-99143747D01*
X154717069Y-99673927D01*
X154919533Y-100163928D01*
X155294101Y-100539149D01*
X155783747Y-100742468D01*
X156313927Y-100742931D01*
X156803928Y-100540467D01*
X157179149Y-100165899D01*
X157382468Y-99676253D01*
X157382931Y-99146073D01*
X157306500Y-98961096D01*
X157306500Y-98413927D01*
X166837069Y-98413927D01*
X167039533Y-98903928D01*
X167414101Y-99279149D01*
X167903747Y-99482468D01*
X168433927Y-99482931D01*
X168923928Y-99280467D01*
X169299149Y-98905899D01*
X169502468Y-98416253D01*
X169502931Y-97886073D01*
X169360300Y-97540879D01*
X169475300Y-97263927D01*
X179267069Y-97263927D01*
X179469533Y-97753928D01*
X179844101Y-98129149D01*
X180255964Y-98300169D01*
X179846072Y-98469533D01*
X179470851Y-98844101D01*
X179267532Y-99333747D01*
X179267069Y-99863927D01*
X179469533Y-100353928D01*
X179844101Y-100729149D01*
X180333747Y-100932468D01*
X180407020Y-100932532D01*
X181127244Y-101652756D01*
X181477199Y-101886589D01*
X181890000Y-101968700D01*
X183541593Y-101968700D01*
X183636082Y-102110113D01*
X183710743Y-102160000D01*
X183636082Y-102209887D01*
X183262041Y-102769680D01*
X183130695Y-103430000D01*
X183262041Y-104090320D01*
X183636082Y-104650113D01*
X184195875Y-105024154D01*
X184856195Y-105155500D01*
X184923805Y-105155500D01*
X185584125Y-105024154D01*
X186143918Y-104650113D01*
X186296406Y-104421898D01*
X186562864Y-104694798D01*
X187112888Y-104930360D01*
X187351500Y-104790620D01*
X187351500Y-103508500D01*
X187508500Y-103508500D01*
X187508500Y-104790620D01*
X187747112Y-104930360D01*
X188297136Y-104694798D01*
X188715146Y-104266682D01*
X188930354Y-103747111D01*
X188790362Y-103508500D01*
X187508500Y-103508500D01*
X187351500Y-103508500D01*
X187331500Y-103508500D01*
X187331500Y-103351500D01*
X187351500Y-103351500D01*
X187351500Y-100968500D01*
X187508500Y-100968500D01*
X187508500Y-103351500D01*
X188790362Y-103351500D01*
X188930354Y-103112889D01*
X188715146Y-102593318D01*
X188297136Y-102165202D01*
X188284990Y-102160000D01*
X188297136Y-102154798D01*
X188715146Y-101726682D01*
X188930354Y-101207111D01*
X188790362Y-100968500D01*
X187508500Y-100968500D01*
X187351500Y-100968500D01*
X187331500Y-100968500D01*
X187331500Y-100811500D01*
X187351500Y-100811500D01*
X187351500Y-98428500D01*
X187508500Y-98428500D01*
X187508500Y-100811500D01*
X188790362Y-100811500D01*
X188930354Y-100572889D01*
X188715146Y-100053318D01*
X188297136Y-99625202D01*
X188284990Y-99620000D01*
X188297136Y-99614798D01*
X188715146Y-99186682D01*
X188930354Y-98667111D01*
X188790362Y-98428500D01*
X187508500Y-98428500D01*
X187351500Y-98428500D01*
X187331500Y-98428500D01*
X187331500Y-98271500D01*
X187351500Y-98271500D01*
X187351500Y-95888500D01*
X187508500Y-95888500D01*
X187508500Y-98271500D01*
X188790362Y-98271500D01*
X188930354Y-98032889D01*
X188715146Y-97513318D01*
X188297136Y-97085202D01*
X188284990Y-97080000D01*
X188297136Y-97074798D01*
X188715146Y-96646682D01*
X188930354Y-96127111D01*
X188790362Y-95888500D01*
X187508500Y-95888500D01*
X187351500Y-95888500D01*
X187331500Y-95888500D01*
X187331500Y-95731500D01*
X187351500Y-95731500D01*
X187351500Y-93348500D01*
X187508500Y-93348500D01*
X187508500Y-95731500D01*
X188790362Y-95731500D01*
X188930354Y-95492889D01*
X188715146Y-94973318D01*
X188297136Y-94545202D01*
X188284990Y-94540000D01*
X188297136Y-94534798D01*
X188715146Y-94106682D01*
X188930354Y-93587111D01*
X188790362Y-93348500D01*
X187508500Y-93348500D01*
X187351500Y-93348500D01*
X187331500Y-93348500D01*
X187331500Y-93191500D01*
X187351500Y-93191500D01*
X187351500Y-90808500D01*
X187508500Y-90808500D01*
X187508500Y-93191500D01*
X188790362Y-93191500D01*
X188930354Y-92952889D01*
X188715146Y-92433318D01*
X188297136Y-92005202D01*
X188284990Y-92000000D01*
X188297136Y-91994798D01*
X188715146Y-91566682D01*
X188930354Y-91047111D01*
X188790362Y-90808500D01*
X187508500Y-90808500D01*
X187351500Y-90808500D01*
X187331500Y-90808500D01*
X187331500Y-90651500D01*
X187351500Y-90651500D01*
X187351500Y-88268500D01*
X187508500Y-88268500D01*
X187508500Y-90651500D01*
X188790362Y-90651500D01*
X188930354Y-90412889D01*
X188715146Y-89893318D01*
X188297136Y-89465202D01*
X188284990Y-89460000D01*
X188297136Y-89454798D01*
X188715146Y-89026682D01*
X188930354Y-88507111D01*
X188790362Y-88268500D01*
X187508500Y-88268500D01*
X187351500Y-88268500D01*
X187331500Y-88268500D01*
X187331500Y-88111500D01*
X187351500Y-88111500D01*
X187351500Y-85728500D01*
X187508500Y-85728500D01*
X187508500Y-88111500D01*
X188790362Y-88111500D01*
X188930354Y-87872889D01*
X188715146Y-87353318D01*
X188297136Y-86925202D01*
X188284990Y-86920000D01*
X188297136Y-86914798D01*
X188715146Y-86486682D01*
X188930354Y-85967111D01*
X188790362Y-85728500D01*
X187508500Y-85728500D01*
X187351500Y-85728500D01*
X187331500Y-85728500D01*
X187331500Y-85571500D01*
X187351500Y-85571500D01*
X187351500Y-83188500D01*
X187508500Y-83188500D01*
X187508500Y-85571500D01*
X188790362Y-85571500D01*
X188930354Y-85332889D01*
X188715146Y-84813318D01*
X188297136Y-84385202D01*
X188284990Y-84380000D01*
X188297136Y-84374798D01*
X188715146Y-83946682D01*
X188930354Y-83427111D01*
X188790362Y-83188500D01*
X187508500Y-83188500D01*
X187351500Y-83188500D01*
X187331500Y-83188500D01*
X187331500Y-83031500D01*
X187351500Y-83031500D01*
X187351500Y-80648500D01*
X187508500Y-80648500D01*
X187508500Y-83031500D01*
X188790362Y-83031500D01*
X188930354Y-82792889D01*
X188715146Y-82273318D01*
X188297136Y-81845202D01*
X188284990Y-81840000D01*
X188297136Y-81834798D01*
X188715146Y-81406682D01*
X188930354Y-80887111D01*
X188790362Y-80648500D01*
X187508500Y-80648500D01*
X187351500Y-80648500D01*
X187331500Y-80648500D01*
X187331500Y-80491500D01*
X187351500Y-80491500D01*
X187351500Y-78108500D01*
X187508500Y-78108500D01*
X187508500Y-80491500D01*
X188790362Y-80491500D01*
X188930354Y-80252889D01*
X188715146Y-79733318D01*
X188297136Y-79305202D01*
X188284990Y-79300000D01*
X188297136Y-79294798D01*
X188715146Y-78866682D01*
X188930354Y-78347111D01*
X188790362Y-78108500D01*
X187508500Y-78108500D01*
X187351500Y-78108500D01*
X187331500Y-78108500D01*
X187331500Y-77951500D01*
X187351500Y-77951500D01*
X187351500Y-75568500D01*
X187508500Y-75568500D01*
X187508500Y-77951500D01*
X188790362Y-77951500D01*
X188930354Y-77712889D01*
X188715146Y-77193318D01*
X188297136Y-76765202D01*
X188284990Y-76760000D01*
X188297136Y-76754798D01*
X188715146Y-76326682D01*
X188930354Y-75807111D01*
X188790362Y-75568500D01*
X187508500Y-75568500D01*
X187351500Y-75568500D01*
X187331500Y-75568500D01*
X187331500Y-75411500D01*
X187351500Y-75411500D01*
X187351500Y-73028500D01*
X187508500Y-73028500D01*
X187508500Y-75411500D01*
X188790362Y-75411500D01*
X188930354Y-75172889D01*
X188715146Y-74653318D01*
X188297136Y-74225202D01*
X188284990Y-74220000D01*
X188297136Y-74214798D01*
X188715146Y-73786682D01*
X188930354Y-73267111D01*
X188790362Y-73028500D01*
X187508500Y-73028500D01*
X187351500Y-73028500D01*
X187331500Y-73028500D01*
X187331500Y-72871500D01*
X187351500Y-72871500D01*
X187351500Y-70488500D01*
X187508500Y-70488500D01*
X187508500Y-72871500D01*
X188790362Y-72871500D01*
X188930354Y-72632889D01*
X188715146Y-72113318D01*
X188297136Y-71685202D01*
X188284990Y-71680000D01*
X188297136Y-71674798D01*
X188715146Y-71246682D01*
X188930354Y-70727111D01*
X188790362Y-70488500D01*
X187508500Y-70488500D01*
X187351500Y-70488500D01*
X187331500Y-70488500D01*
X187331500Y-70331500D01*
X187351500Y-70331500D01*
X187351500Y-69049380D01*
X187508500Y-69049380D01*
X187508500Y-70331500D01*
X188790362Y-70331500D01*
X188930354Y-70092889D01*
X188715146Y-69573318D01*
X188297136Y-69145202D01*
X187747112Y-68909640D01*
X187508500Y-69049380D01*
X187351500Y-69049380D01*
X187112888Y-68909640D01*
X186562864Y-69145202D01*
X186533086Y-69175700D01*
X186379860Y-68937580D01*
X186087292Y-68737676D01*
X185740000Y-68667348D01*
X184040000Y-68667348D01*
X183715559Y-68728396D01*
X183417580Y-68920140D01*
X183217676Y-69212708D01*
X183147348Y-69560000D01*
X183147348Y-71260000D01*
X183208396Y-71584441D01*
X183400140Y-71882420D01*
X183492154Y-71945291D01*
X183262041Y-72289680D01*
X183130695Y-72950000D01*
X183262041Y-73610320D01*
X183636082Y-74170113D01*
X183710743Y-74220000D01*
X183636082Y-74269887D01*
X183262041Y-74829680D01*
X183130695Y-75490000D01*
X183262041Y-76150320D01*
X183636082Y-76710113D01*
X183710743Y-76760000D01*
X183636082Y-76809887D01*
X183262041Y-77369680D01*
X183130695Y-78030000D01*
X183262041Y-78690320D01*
X183636082Y-79250113D01*
X183710743Y-79300000D01*
X183636082Y-79349887D01*
X183262041Y-79909680D01*
X183130695Y-80570000D01*
X183262041Y-81230320D01*
X183636082Y-81790113D01*
X183710743Y-81840000D01*
X183636082Y-81889887D01*
X183262041Y-82449680D01*
X183130695Y-83110000D01*
X183262041Y-83770320D01*
X183636082Y-84330113D01*
X183710743Y-84380000D01*
X183636082Y-84429887D01*
X183262041Y-84989680D01*
X183130695Y-85650000D01*
X183262041Y-86310320D01*
X183636082Y-86870113D01*
X183710743Y-86920000D01*
X183636082Y-86969887D01*
X183262041Y-87529680D01*
X183130695Y-88190000D01*
X183262041Y-88850320D01*
X183636082Y-89410113D01*
X183710743Y-89460000D01*
X183636082Y-89509887D01*
X183262041Y-90069680D01*
X183130695Y-90730000D01*
X183262041Y-91390320D01*
X183636082Y-91950113D01*
X183710743Y-92000000D01*
X183636082Y-92049887D01*
X183262041Y-92609680D01*
X183130695Y-93270000D01*
X183262041Y-93930320D01*
X183636082Y-94490113D01*
X183710743Y-94540000D01*
X183636082Y-94589887D01*
X183262041Y-95149680D01*
X183130695Y-95810000D01*
X183262041Y-96470320D01*
X183636082Y-97030113D01*
X183710743Y-97080000D01*
X183636082Y-97129887D01*
X183508184Y-97321300D01*
X182446812Y-97321300D01*
X181932869Y-96807357D01*
X181932931Y-96736073D01*
X181730467Y-96246072D01*
X181355899Y-95870851D01*
X180866253Y-95667532D01*
X180336073Y-95667069D01*
X179846072Y-95869533D01*
X179470851Y-96244101D01*
X179267532Y-96733747D01*
X179267069Y-97263927D01*
X169475300Y-97263927D01*
X169532468Y-97126253D01*
X169532931Y-96596073D01*
X169383621Y-96234715D01*
X169532468Y-95876253D01*
X169532931Y-95346073D01*
X169330467Y-94856072D01*
X168955899Y-94480851D01*
X168466253Y-94277532D01*
X167936073Y-94277069D01*
X167446072Y-94479533D01*
X167070851Y-94854101D01*
X166867532Y-95343747D01*
X166867069Y-95873927D01*
X167016379Y-96235285D01*
X166867532Y-96593747D01*
X166867069Y-97123927D01*
X167009700Y-97469121D01*
X166837532Y-97883747D01*
X166837069Y-98413927D01*
X157306500Y-98413927D01*
X157306500Y-96700735D01*
X157623747Y-96832468D01*
X158153927Y-96832931D01*
X158643928Y-96630467D01*
X159019149Y-96255899D01*
X159073948Y-96123927D01*
X160837069Y-96123927D01*
X161039533Y-96613928D01*
X161414101Y-96989149D01*
X161903747Y-97192468D01*
X162433927Y-97192931D01*
X162923928Y-96990467D01*
X163299149Y-96615899D01*
X163502468Y-96126253D01*
X163502931Y-95596073D01*
X163426500Y-95411096D01*
X163426500Y-91400460D01*
X165950460Y-88876500D01*
X167670796Y-88876500D01*
X167728476Y-88900451D01*
X167416072Y-89029533D01*
X167040851Y-89404101D01*
X166837532Y-89893747D01*
X166837069Y-90423927D01*
X166976403Y-90761143D01*
X166817532Y-91143747D01*
X166817069Y-91673927D01*
X167019533Y-92163928D01*
X167394101Y-92539149D01*
X167883747Y-92742468D01*
X168413927Y-92742931D01*
X168903928Y-92540467D01*
X169279149Y-92165899D01*
X169482468Y-91676253D01*
X169482695Y-91416500D01*
X174674879Y-91416500D01*
X174833747Y-91482468D01*
X175363927Y-91482931D01*
X175853928Y-91280467D01*
X176229149Y-90905899D01*
X176432468Y-90416253D01*
X176432478Y-90403927D01*
X179767069Y-90403927D01*
X179969533Y-90893928D01*
X180344101Y-91269149D01*
X180833747Y-91472468D01*
X181363927Y-91472931D01*
X181853928Y-91270467D01*
X182229149Y-90895899D01*
X182432468Y-90406253D01*
X182432931Y-89876073D01*
X182230467Y-89386072D01*
X181855899Y-89010851D01*
X181366253Y-88807532D01*
X180836073Y-88807069D01*
X180346072Y-89009533D01*
X179970851Y-89384101D01*
X179767532Y-89873747D01*
X179767069Y-90403927D01*
X176432478Y-90403927D01*
X176432931Y-89886073D01*
X176230467Y-89396072D01*
X175855899Y-89020851D01*
X175366253Y-88817532D01*
X174836073Y-88817069D01*
X174626894Y-88903500D01*
X168619204Y-88903500D01*
X168561524Y-88879549D01*
X168873928Y-88750467D01*
X169249149Y-88375899D01*
X169452468Y-87886253D01*
X169452931Y-87356073D01*
X169250467Y-86866072D01*
X168875899Y-86490851D01*
X168642481Y-86393927D01*
X170107069Y-86393927D01*
X170309533Y-86883928D01*
X170684101Y-87259149D01*
X171173747Y-87462468D01*
X171703927Y-87462931D01*
X172193928Y-87260467D01*
X172255040Y-87199462D01*
X172614101Y-87559149D01*
X173103747Y-87762468D01*
X173633927Y-87762931D01*
X174123928Y-87560467D01*
X174499149Y-87185899D01*
X174702468Y-86696253D01*
X174702931Y-86166073D01*
X174500467Y-85676072D01*
X174125899Y-85300851D01*
X173636253Y-85097532D01*
X173106073Y-85097069D01*
X172616072Y-85299533D01*
X172554960Y-85360538D01*
X172195899Y-85000851D01*
X171706253Y-84797532D01*
X171176073Y-84797069D01*
X170686072Y-84999533D01*
X170310851Y-85374101D01*
X170107532Y-85863747D01*
X170107069Y-86393927D01*
X168642481Y-86393927D01*
X168386253Y-86287532D01*
X167856073Y-86287069D01*
X167671096Y-86363500D01*
X165430000Y-86363500D01*
X164949158Y-86459145D01*
X164541520Y-86731520D01*
X161281520Y-89991520D01*
X161009145Y-90399158D01*
X160913500Y-90880000D01*
X160913500Y-95410796D01*
X160837532Y-95593747D01*
X160837069Y-96123927D01*
X159073948Y-96123927D01*
X159222468Y-95766253D01*
X159222931Y-95236073D01*
X159020467Y-94746072D01*
X158645899Y-94370851D01*
X158156253Y-94167532D01*
X157626073Y-94167069D01*
X157306500Y-94299114D01*
X157306500Y-93970460D01*
X158228477Y-93048482D01*
X158228480Y-93048480D01*
X158500855Y-92640842D01*
X158596500Y-92160000D01*
X158596500Y-89850005D01*
X158596501Y-89850000D01*
X158508198Y-89406072D01*
X158500855Y-89369158D01*
X158228480Y-88961520D01*
X158228477Y-88961518D01*
X155926116Y-86659156D01*
X155850467Y-86476072D01*
X155849500Y-86475103D01*
X155849500Y-82970000D01*
X155800554Y-82723927D01*
X171427069Y-82723927D01*
X171629533Y-83213928D01*
X172004101Y-83589149D01*
X172493747Y-83792468D01*
X173023927Y-83792931D01*
X173513928Y-83590467D01*
X173889149Y-83215899D01*
X174092468Y-82726253D01*
X174092931Y-82196073D01*
X173890467Y-81706072D01*
X173515899Y-81330851D01*
X173026253Y-81127532D01*
X172496073Y-81127069D01*
X172006072Y-81329533D01*
X171630851Y-81704101D01*
X171427532Y-82193747D01*
X171427069Y-82723927D01*
X155800554Y-82723927D01*
X155763522Y-82537759D01*
X155518677Y-82171323D01*
X153959500Y-80612146D01*
X153959500Y-80433927D01*
X158857069Y-80433927D01*
X159059533Y-80923928D01*
X159434101Y-81299149D01*
X159923747Y-81502468D01*
X160453927Y-81502931D01*
X160943928Y-81300467D01*
X161319149Y-80925899D01*
X161390098Y-80755035D01*
X161454101Y-80819149D01*
X161943747Y-81022468D01*
X162473927Y-81022931D01*
X162963928Y-80820467D01*
X163339149Y-80445899D01*
X163385643Y-80333927D01*
X164027069Y-80333927D01*
X164229533Y-80823928D01*
X164604101Y-81199149D01*
X165093747Y-81402468D01*
X165623927Y-81402931D01*
X165944556Y-81270450D01*
X166119533Y-81693928D01*
X166494101Y-82069149D01*
X166983747Y-82272468D01*
X167513927Y-82272931D01*
X168003928Y-82070467D01*
X168379149Y-81695899D01*
X168582468Y-81206253D01*
X168582931Y-80676073D01*
X168380467Y-80186072D01*
X168005899Y-79810851D01*
X167516253Y-79607532D01*
X166986073Y-79607069D01*
X166665444Y-79739550D01*
X166490467Y-79316072D01*
X166115899Y-78940851D01*
X165626253Y-78737532D01*
X165096073Y-78737069D01*
X164606072Y-78939533D01*
X164230851Y-79314101D01*
X164027532Y-79803747D01*
X164027069Y-80333927D01*
X163385643Y-80333927D01*
X163542468Y-79956253D01*
X163542931Y-79426073D01*
X163340467Y-78936072D01*
X162965899Y-78560851D01*
X162476253Y-78357532D01*
X161946073Y-78357069D01*
X161456072Y-78559533D01*
X161080851Y-78934101D01*
X161009902Y-79104965D01*
X160945899Y-79040851D01*
X160456253Y-78837532D01*
X159926073Y-78837069D01*
X159436072Y-79039533D01*
X159060851Y-79414101D01*
X158857532Y-79903747D01*
X158857069Y-80433927D01*
X153959500Y-80433927D01*
X153959500Y-80031391D01*
X154443747Y-80232468D01*
X154973927Y-80232931D01*
X155463928Y-80030467D01*
X155839149Y-79655899D01*
X156042468Y-79166253D01*
X156042931Y-78636073D01*
X155840467Y-78146072D01*
X155465899Y-77770851D01*
X154976253Y-77567532D01*
X154446073Y-77567069D01*
X153959500Y-77768117D01*
X153959500Y-75680000D01*
X153905098Y-75406500D01*
X172230000Y-75406500D01*
X172710842Y-75310855D01*
X173118480Y-75038480D01*
X173118481Y-75038479D01*
X174178477Y-73978482D01*
X174178480Y-73978480D01*
X174450855Y-73570842D01*
X174546500Y-73090000D01*
X174546500Y-71769204D01*
X174622468Y-71586253D01*
X174622931Y-71056073D01*
X174420467Y-70566072D01*
X174045899Y-70190851D01*
X173591747Y-70002270D01*
X173813928Y-69910467D01*
X174189149Y-69535899D01*
X174392468Y-69046253D01*
X174392931Y-68516073D01*
X174190467Y-68026072D01*
X173815899Y-67650851D01*
X173326253Y-67447532D01*
X173324885Y-67447531D01*
X171886854Y-66009500D01*
X177562146Y-66009500D01*
X178597418Y-67044772D01*
X178799533Y-67533928D01*
X179174101Y-67909149D01*
X179663747Y-68112468D01*
X180193927Y-68112931D01*
X180683928Y-67910467D01*
X181059149Y-67535899D01*
X181262468Y-67046253D01*
X181262931Y-66516073D01*
X181060467Y-66026072D01*
X180685899Y-65650851D01*
X180196253Y-65447532D01*
X180194885Y-65447531D01*
X179364186Y-64616832D01*
X179476755Y-64504264D01*
X179665859Y-64873713D01*
X180575494Y-65259333D01*
X181563459Y-65267498D01*
X182479344Y-64896964D01*
X182514141Y-64873713D01*
X182703246Y-64504262D01*
X181090000Y-62891016D01*
X181075858Y-62905158D01*
X180964842Y-62794142D01*
X180978984Y-62780000D01*
X180964842Y-62765858D01*
X181075858Y-62654842D01*
X181090000Y-62668984D01*
X181104142Y-62654842D01*
X181215158Y-62765858D01*
X181201016Y-62780000D01*
X182814262Y-64393246D01*
X183183713Y-64204141D01*
X183569333Y-63294506D01*
X183577498Y-62306541D01*
X183206964Y-61390656D01*
X183183713Y-61355859D01*
X182870423Y-61195500D01*
X188066646Y-61195500D01*
X189044500Y-62173355D01*
G36*
X137770557Y-109802828D02*
X137666500Y-110054043D01*
X137666500Y-110790625D01*
X137837375Y-110961500D01*
X139121500Y-110961500D01*
X139121500Y-110941500D01*
X139278500Y-110941500D01*
X139278500Y-110961500D01*
X139298500Y-110961500D01*
X139298500Y-111118500D01*
X139278500Y-111118500D01*
X139278500Y-112402625D01*
X139449375Y-112573500D01*
X140185956Y-112573500D01*
X140437171Y-112469444D01*
X140575523Y-112331092D01*
X141059537Y-112654500D01*
X134875293Y-112654500D01*
X135340113Y-112343918D01*
X135714154Y-111784125D01*
X135812566Y-111289375D01*
X137666500Y-111289375D01*
X137666500Y-112025957D01*
X137770557Y-112277172D01*
X137962829Y-112469444D01*
X138214044Y-112573500D01*
X138950625Y-112573500D01*
X139121500Y-112402625D01*
X139121500Y-111118500D01*
X137837375Y-111118500D01*
X137666500Y-111289375D01*
X135812566Y-111289375D01*
X135845500Y-111123805D01*
X135845500Y-111056195D01*
X135714154Y-110395875D01*
X135340113Y-109836082D01*
X135285364Y-109799500D01*
X137773885Y-109799500D01*
X137770557Y-109802828D01*
X137770557Y-109802828D01*
G37*
X137770557Y-109802828D02*
X137666500Y-110054043D01*
X137666500Y-110790625D01*
X137837375Y-110961500D01*
X139121500Y-110961500D01*
X139121500Y-110941500D01*
X139278500Y-110941500D01*
X139278500Y-110961500D01*
X139298500Y-110961500D01*
X139298500Y-111118500D01*
X139278500Y-111118500D01*
X139278500Y-112402625D01*
X139449375Y-112573500D01*
X140185956Y-112573500D01*
X140437171Y-112469444D01*
X140575523Y-112331092D01*
X141059537Y-112654500D01*
X134875293Y-112654500D01*
X135340113Y-112343918D01*
X135714154Y-111784125D01*
X135812566Y-111289375D01*
X137666500Y-111289375D01*
X137666500Y-112025957D01*
X137770557Y-112277172D01*
X137962829Y-112469444D01*
X138214044Y-112573500D01*
X138950625Y-112573500D01*
X139121500Y-112402625D01*
X139121500Y-111118500D01*
X137837375Y-111118500D01*
X137666500Y-111289375D01*
X135812566Y-111289375D01*
X135845500Y-111123805D01*
X135845500Y-111056195D01*
X135714154Y-110395875D01*
X135340113Y-109836082D01*
X135285364Y-109799500D01*
X137773885Y-109799500D01*
X137770557Y-109802828D01*
G36*
X112831520Y-102418480D02*
X113096458Y-102595506D01*
X112997532Y-102833747D01*
X112997069Y-103363927D01*
X113199533Y-103853928D01*
X113200500Y-103854897D01*
X113200500Y-104240000D01*
X113286478Y-104672241D01*
X113531323Y-105038677D01*
X117961323Y-109468677D01*
X118092759Y-109556500D01*
X117894044Y-109556500D01*
X117642829Y-109660556D01*
X117450557Y-109852828D01*
X117346500Y-110104043D01*
X117346500Y-110840625D01*
X117517375Y-111011500D01*
X118801500Y-111011500D01*
X118801500Y-110991500D01*
X118958500Y-110991500D01*
X118958500Y-111011500D01*
X118978500Y-111011500D01*
X118978500Y-111168500D01*
X118958500Y-111168500D01*
X118958500Y-112452625D01*
X119129375Y-112623500D01*
X119865956Y-112623500D01*
X120117171Y-112519444D01*
X120255523Y-112381092D01*
X120664707Y-112654500D01*
X106625519Y-112654500D01*
X106604264Y-112633245D01*
X106973713Y-112444141D01*
X107359333Y-111534506D01*
X107360945Y-111339375D01*
X117346500Y-111339375D01*
X117346500Y-112075957D01*
X117450557Y-112327172D01*
X117642829Y-112519444D01*
X117894044Y-112623500D01*
X118630625Y-112623500D01*
X118801500Y-112452625D01*
X118801500Y-111168500D01*
X117517375Y-111168500D01*
X117346500Y-111339375D01*
X107360945Y-111339375D01*
X107367498Y-110546541D01*
X106996964Y-109630656D01*
X106973713Y-109595859D01*
X106604262Y-109406754D01*
X104991016Y-111020000D01*
X105005158Y-111034142D01*
X104894142Y-111145158D01*
X104880000Y-111131016D01*
X104865858Y-111145158D01*
X104754842Y-111034142D01*
X104768984Y-111020000D01*
X103155738Y-109406754D01*
X102786287Y-109595859D01*
X102400667Y-110505494D01*
X102392502Y-111493459D01*
X102763036Y-112409344D01*
X102786287Y-112444141D01*
X103155736Y-112633245D01*
X103134481Y-112654500D01*
X91865500Y-112654500D01*
X91865500Y-109295738D01*
X103266754Y-109295738D01*
X104880000Y-110908984D01*
X106493246Y-109295738D01*
X106304141Y-108926287D01*
X105988982Y-108792682D01*
X106273927Y-108792931D01*
X106763928Y-108590467D01*
X107139149Y-108215899D01*
X107342468Y-107726253D01*
X107342931Y-107196073D01*
X107140467Y-106706072D01*
X106765899Y-106330851D01*
X106276253Y-106127532D01*
X105746073Y-106127069D01*
X105256072Y-106329533D01*
X104880851Y-106704101D01*
X104677532Y-107193747D01*
X104677069Y-107723927D01*
X104879533Y-108213928D01*
X105204133Y-108539094D01*
X104406541Y-108532502D01*
X103490656Y-108903036D01*
X103455859Y-108926287D01*
X103266754Y-109295738D01*
X91865500Y-109295738D01*
X91865500Y-107733927D01*
X96897069Y-107733927D01*
X97099533Y-108223928D01*
X97474101Y-108599149D01*
X97963747Y-108802468D01*
X98493927Y-108802931D01*
X98983928Y-108600467D01*
X99359149Y-108225899D01*
X99562468Y-107736253D01*
X99562478Y-107723927D01*
X100177069Y-107723927D01*
X100379533Y-108213928D01*
X100754101Y-108589149D01*
X101243747Y-108792468D01*
X101773927Y-108792931D01*
X102263928Y-108590467D01*
X102639149Y-108215899D01*
X102842468Y-107726253D01*
X102842931Y-107196073D01*
X102640467Y-106706072D01*
X102265899Y-106330851D01*
X101776253Y-106127532D01*
X101246073Y-106127069D01*
X100756072Y-106329533D01*
X100380851Y-106704101D01*
X100177532Y-107193747D01*
X100177069Y-107723927D01*
X99562478Y-107723927D01*
X99562931Y-107206073D01*
X99360467Y-106716072D01*
X98985899Y-106340851D01*
X98496253Y-106137532D01*
X97966073Y-106137069D01*
X97476072Y-106339533D01*
X97100851Y-106714101D01*
X96897532Y-107203747D01*
X96897069Y-107733927D01*
X91865500Y-107733927D01*
X91865500Y-98647565D01*
X91940000Y-98662652D01*
X92940000Y-98662652D01*
X93264441Y-98601604D01*
X93440492Y-98488319D01*
X93592708Y-98592324D01*
X93940000Y-98662652D01*
X94940000Y-98662652D01*
X95264441Y-98601604D01*
X95440492Y-98488319D01*
X95592708Y-98592324D01*
X95940000Y-98662652D01*
X96940000Y-98662652D01*
X97264441Y-98601604D01*
X97440492Y-98488319D01*
X97592708Y-98592324D01*
X97940000Y-98662652D01*
X98940000Y-98662652D01*
X99264441Y-98601604D01*
X99440492Y-98488319D01*
X99592708Y-98592324D01*
X99940000Y-98662652D01*
X100940000Y-98662652D01*
X101264441Y-98601604D01*
X101440492Y-98488319D01*
X101592708Y-98592324D01*
X101940000Y-98662652D01*
X102940000Y-98662652D01*
X103264441Y-98601604D01*
X103440492Y-98488319D01*
X103592708Y-98592324D01*
X103940000Y-98662652D01*
X104940000Y-98662652D01*
X105264441Y-98601604D01*
X105440492Y-98488319D01*
X105592708Y-98592324D01*
X105940000Y-98662652D01*
X106940000Y-98662652D01*
X107264441Y-98601604D01*
X107562420Y-98409860D01*
X107762324Y-98117292D01*
X107832652Y-97770000D01*
X107832652Y-97419612D01*
X112831520Y-102418480D01*
X112831520Y-102418480D01*
G37*
X112831520Y-102418480D02*
X113096458Y-102595506D01*
X112997532Y-102833747D01*
X112997069Y-103363927D01*
X113199533Y-103853928D01*
X113200500Y-103854897D01*
X113200500Y-104240000D01*
X113286478Y-104672241D01*
X113531323Y-105038677D01*
X117961323Y-109468677D01*
X118092759Y-109556500D01*
X117894044Y-109556500D01*
X117642829Y-109660556D01*
X117450557Y-109852828D01*
X117346500Y-110104043D01*
X117346500Y-110840625D01*
X117517375Y-111011500D01*
X118801500Y-111011500D01*
X118801500Y-110991500D01*
X118958500Y-110991500D01*
X118958500Y-111011500D01*
X118978500Y-111011500D01*
X118978500Y-111168500D01*
X118958500Y-111168500D01*
X118958500Y-112452625D01*
X119129375Y-112623500D01*
X119865956Y-112623500D01*
X120117171Y-112519444D01*
X120255523Y-112381092D01*
X120664707Y-112654500D01*
X106625519Y-112654500D01*
X106604264Y-112633245D01*
X106973713Y-112444141D01*
X107359333Y-111534506D01*
X107360945Y-111339375D01*
X117346500Y-111339375D01*
X117346500Y-112075957D01*
X117450557Y-112327172D01*
X117642829Y-112519444D01*
X117894044Y-112623500D01*
X118630625Y-112623500D01*
X118801500Y-112452625D01*
X118801500Y-111168500D01*
X117517375Y-111168500D01*
X117346500Y-111339375D01*
X107360945Y-111339375D01*
X107367498Y-110546541D01*
X106996964Y-109630656D01*
X106973713Y-109595859D01*
X106604262Y-109406754D01*
X104991016Y-111020000D01*
X105005158Y-111034142D01*
X104894142Y-111145158D01*
X104880000Y-111131016D01*
X104865858Y-111145158D01*
X104754842Y-111034142D01*
X104768984Y-111020000D01*
X103155738Y-109406754D01*
X102786287Y-109595859D01*
X102400667Y-110505494D01*
X102392502Y-111493459D01*
X102763036Y-112409344D01*
X102786287Y-112444141D01*
X103155736Y-112633245D01*
X103134481Y-112654500D01*
X91865500Y-112654500D01*
X91865500Y-109295738D01*
X103266754Y-109295738D01*
X104880000Y-110908984D01*
X106493246Y-109295738D01*
X106304141Y-108926287D01*
X105988982Y-108792682D01*
X106273927Y-108792931D01*
X106763928Y-108590467D01*
X107139149Y-108215899D01*
X107342468Y-107726253D01*
X107342931Y-107196073D01*
X107140467Y-106706072D01*
X106765899Y-106330851D01*
X106276253Y-106127532D01*
X105746073Y-106127069D01*
X105256072Y-106329533D01*
X104880851Y-106704101D01*
X104677532Y-107193747D01*
X104677069Y-107723927D01*
X104879533Y-108213928D01*
X105204133Y-108539094D01*
X104406541Y-108532502D01*
X103490656Y-108903036D01*
X103455859Y-108926287D01*
X103266754Y-109295738D01*
X91865500Y-109295738D01*
X91865500Y-107733927D01*
X96897069Y-107733927D01*
X97099533Y-108223928D01*
X97474101Y-108599149D01*
X97963747Y-108802468D01*
X98493927Y-108802931D01*
X98983928Y-108600467D01*
X99359149Y-108225899D01*
X99562468Y-107736253D01*
X99562478Y-107723927D01*
X100177069Y-107723927D01*
X100379533Y-108213928D01*
X100754101Y-108589149D01*
X101243747Y-108792468D01*
X101773927Y-108792931D01*
X102263928Y-108590467D01*
X102639149Y-108215899D01*
X102842468Y-107726253D01*
X102842931Y-107196073D01*
X102640467Y-106706072D01*
X102265899Y-106330851D01*
X101776253Y-106127532D01*
X101246073Y-106127069D01*
X100756072Y-106329533D01*
X100380851Y-106704101D01*
X100177532Y-107193747D01*
X100177069Y-107723927D01*
X99562478Y-107723927D01*
X99562931Y-107206073D01*
X99360467Y-106716072D01*
X98985899Y-106340851D01*
X98496253Y-106137532D01*
X97966073Y-106137069D01*
X97476072Y-106339533D01*
X97100851Y-106714101D01*
X96897532Y-107203747D01*
X96897069Y-107733927D01*
X91865500Y-107733927D01*
X91865500Y-98647565D01*
X91940000Y-98662652D01*
X92940000Y-98662652D01*
X93264441Y-98601604D01*
X93440492Y-98488319D01*
X93592708Y-98592324D01*
X93940000Y-98662652D01*
X94940000Y-98662652D01*
X95264441Y-98601604D01*
X95440492Y-98488319D01*
X95592708Y-98592324D01*
X95940000Y-98662652D01*
X96940000Y-98662652D01*
X97264441Y-98601604D01*
X97440492Y-98488319D01*
X97592708Y-98592324D01*
X97940000Y-98662652D01*
X98940000Y-98662652D01*
X99264441Y-98601604D01*
X99440492Y-98488319D01*
X99592708Y-98592324D01*
X99940000Y-98662652D01*
X100940000Y-98662652D01*
X101264441Y-98601604D01*
X101440492Y-98488319D01*
X101592708Y-98592324D01*
X101940000Y-98662652D01*
X102940000Y-98662652D01*
X103264441Y-98601604D01*
X103440492Y-98488319D01*
X103592708Y-98592324D01*
X103940000Y-98662652D01*
X104940000Y-98662652D01*
X105264441Y-98601604D01*
X105440492Y-98488319D01*
X105592708Y-98592324D01*
X105940000Y-98662652D01*
X106940000Y-98662652D01*
X107264441Y-98601604D01*
X107562420Y-98409860D01*
X107762324Y-98117292D01*
X107832652Y-97770000D01*
X107832652Y-97419612D01*
X112831520Y-102418480D01*
G36*
X143060000Y-109299500D02*
X144682146Y-109299500D01*
X145427189Y-110044543D01*
X145421735Y-110052706D01*
X145116682Y-109754854D01*
X144597111Y-109539646D01*
X144358500Y-109679638D01*
X144358500Y-110961500D01*
X144378500Y-110961500D01*
X144378500Y-111118500D01*
X144358500Y-111118500D01*
X144358500Y-112400362D01*
X144597111Y-112540354D01*
X145116682Y-112325146D01*
X145421735Y-112027294D01*
X145599887Y-112293918D01*
X146139537Y-112654500D01*
X142420463Y-112654500D01*
X142960113Y-112293918D01*
X143138265Y-112027294D01*
X143443318Y-112325146D01*
X143962889Y-112540354D01*
X144201500Y-112400362D01*
X144201500Y-111118500D01*
X144181500Y-111118500D01*
X144181500Y-110961500D01*
X144201500Y-110961500D01*
X144201500Y-109679638D01*
X143962889Y-109539646D01*
X143443318Y-109754854D01*
X143138265Y-110052706D01*
X142960113Y-109786082D01*
X142879500Y-109732218D01*
X142879500Y-109700000D01*
X142793522Y-109267759D01*
X142777135Y-109243235D01*
X143060000Y-109299500D01*
X143060000Y-109299500D01*
G37*
X143060000Y-109299500D02*
X144682146Y-109299500D01*
X145427189Y-110044543D01*
X145421735Y-110052706D01*
X145116682Y-109754854D01*
X144597111Y-109539646D01*
X144358500Y-109679638D01*
X144358500Y-110961500D01*
X144378500Y-110961500D01*
X144378500Y-111118500D01*
X144358500Y-111118500D01*
X144358500Y-112400362D01*
X144597111Y-112540354D01*
X145116682Y-112325146D01*
X145421735Y-112027294D01*
X145599887Y-112293918D01*
X146139537Y-112654500D01*
X142420463Y-112654500D01*
X142960113Y-112293918D01*
X143138265Y-112027294D01*
X143443318Y-112325146D01*
X143962889Y-112540354D01*
X144201500Y-112400362D01*
X144201500Y-111118500D01*
X144181500Y-111118500D01*
X144181500Y-110961500D01*
X144201500Y-110961500D01*
X144201500Y-109679638D01*
X143962889Y-109539646D01*
X143443318Y-109754854D01*
X143138265Y-110052706D01*
X142960113Y-109786082D01*
X142879500Y-109732218D01*
X142879500Y-109700000D01*
X142793522Y-109267759D01*
X142777135Y-109243235D01*
X143060000Y-109299500D01*
G36*
X155759887Y-61516082D02*
X155581735Y-61782706D01*
X155276682Y-61484854D01*
X154757111Y-61269646D01*
X154518500Y-61409638D01*
X154518500Y-62691500D01*
X154538500Y-62691500D01*
X154538500Y-62848500D01*
X154518500Y-62848500D01*
X154518500Y-64130362D01*
X154757111Y-64270354D01*
X155276682Y-64055146D01*
X155581735Y-63757294D01*
X155759887Y-64023918D01*
X155936403Y-64141862D01*
X155936478Y-64142241D01*
X156181323Y-64508677D01*
X157351323Y-65678677D01*
X157717759Y-65923522D01*
X158150000Y-66009500D01*
X158857510Y-66009500D01*
X158857069Y-66513927D01*
X159059533Y-67003928D01*
X159434101Y-67379149D01*
X159923747Y-67582468D01*
X160453927Y-67582931D01*
X160943928Y-67380467D01*
X161319149Y-67005899D01*
X161522468Y-66516253D01*
X161522911Y-66009500D01*
X166287501Y-66009500D01*
X166287069Y-66503927D01*
X166489533Y-66993928D01*
X166864101Y-67369149D01*
X167353747Y-67572468D01*
X167883927Y-67572931D01*
X168373928Y-67370467D01*
X168374897Y-67369500D01*
X170052146Y-67369500D01*
X171727418Y-69044772D01*
X171929533Y-69533928D01*
X172304101Y-69909149D01*
X172758253Y-70097730D01*
X172536072Y-70189533D01*
X172160851Y-70564101D01*
X171957532Y-71053747D01*
X171957069Y-71583927D01*
X172033500Y-71768904D01*
X172033500Y-72569541D01*
X171709540Y-72893500D01*
X162006165Y-72893500D01*
X162303928Y-72770467D01*
X162679149Y-72395899D01*
X162882468Y-71906253D01*
X162882749Y-71583927D01*
X168567069Y-71583927D01*
X168769533Y-72073928D01*
X169144101Y-72449149D01*
X169633747Y-72652468D01*
X170163927Y-72652931D01*
X170653928Y-72450467D01*
X171029149Y-72075899D01*
X171232468Y-71586253D01*
X171232931Y-71056073D01*
X171030467Y-70566072D01*
X170655899Y-70190851D01*
X170166253Y-69987532D01*
X169636073Y-69987069D01*
X169146072Y-70189533D01*
X168770851Y-70564101D01*
X168567532Y-71053747D01*
X168567069Y-71583927D01*
X162882749Y-71583927D01*
X162882931Y-71376073D01*
X162700900Y-70935524D01*
X162944101Y-71179149D01*
X163433747Y-71382468D01*
X163963927Y-71382931D01*
X164453928Y-71180467D01*
X164829149Y-70805899D01*
X165032468Y-70316253D01*
X165032931Y-69786073D01*
X164830467Y-69296072D01*
X164455899Y-68920851D01*
X163966253Y-68717532D01*
X163436073Y-68717069D01*
X162946072Y-68919533D01*
X162570851Y-69294101D01*
X162367532Y-69783747D01*
X162367069Y-70313927D01*
X162549100Y-70754476D01*
X162305899Y-70510851D01*
X161816253Y-70307532D01*
X161286073Y-70307069D01*
X160796072Y-70509533D01*
X160420851Y-70884101D01*
X160217532Y-71373747D01*
X160217069Y-71903927D01*
X160419533Y-72393928D01*
X160794101Y-72769149D01*
X161093571Y-72893500D01*
X159662497Y-72893500D01*
X159662931Y-72396073D01*
X159460467Y-71906072D01*
X159085899Y-71530851D01*
X158596253Y-71327532D01*
X158066073Y-71327069D01*
X157576072Y-71529533D01*
X157200851Y-71904101D01*
X156997532Y-72393747D01*
X156997096Y-72893500D01*
X154300459Y-72893500D01*
X152532299Y-71125340D01*
X153003928Y-70930467D01*
X153220845Y-70713927D01*
X154267069Y-70713927D01*
X154469533Y-71203928D01*
X154844101Y-71579149D01*
X155333747Y-71782468D01*
X155863927Y-71782931D01*
X156353928Y-71580467D01*
X156729149Y-71205899D01*
X156932468Y-70716253D01*
X156932931Y-70186073D01*
X156730467Y-69696072D01*
X156355899Y-69320851D01*
X155866253Y-69117532D01*
X155336073Y-69117069D01*
X154846072Y-69319533D01*
X154470851Y-69694101D01*
X154267532Y-70183747D01*
X154267069Y-70713927D01*
X153220845Y-70713927D01*
X153379149Y-70555899D01*
X153582468Y-70066253D01*
X153582931Y-69536073D01*
X153380467Y-69046072D01*
X153005899Y-68670851D01*
X152516253Y-68467532D01*
X151986073Y-68467069D01*
X151496072Y-68669533D01*
X151120851Y-69044101D01*
X150924332Y-69517372D01*
X147203480Y-65796520D01*
X146795842Y-65524145D01*
X146315000Y-65428500D01*
X132255005Y-65428500D01*
X132255000Y-65428499D01*
X131853935Y-65508276D01*
X131774158Y-65524145D01*
X131366520Y-65796520D01*
X131366518Y-65796523D01*
X127850000Y-69313040D01*
X124006500Y-65469540D01*
X124006500Y-64979204D01*
X124082468Y-64796253D01*
X124082931Y-64266073D01*
X123880467Y-63776072D01*
X123505899Y-63400851D01*
X123016253Y-63197532D01*
X122486073Y-63197069D01*
X121996072Y-63399533D01*
X121620851Y-63774101D01*
X121417532Y-64263747D01*
X121417069Y-64793927D01*
X121493500Y-64978904D01*
X121493500Y-65469541D01*
X115851520Y-71111520D01*
X115579145Y-71519158D01*
X115483500Y-72000000D01*
X115483500Y-78000198D01*
X115236253Y-77897532D01*
X114706073Y-77897069D01*
X114216072Y-78099533D01*
X113840851Y-78474101D01*
X113637532Y-78963747D01*
X113637069Y-79493927D01*
X113713500Y-79678904D01*
X113713500Y-81229540D01*
X110481520Y-84461520D01*
X110209145Y-84869158D01*
X110113500Y-85350000D01*
X110113500Y-96130000D01*
X110117607Y-96150647D01*
X109446500Y-95479540D01*
X109446500Y-81439802D01*
X109693747Y-81542468D01*
X110223927Y-81542931D01*
X110713928Y-81340467D01*
X111089149Y-80965899D01*
X111292468Y-80476253D01*
X111292931Y-79946073D01*
X111090467Y-79456072D01*
X110715899Y-79080851D01*
X110226253Y-78877532D01*
X109696073Y-78877069D01*
X109446500Y-78980190D01*
X109446500Y-74923954D01*
X109683747Y-75022468D01*
X110213927Y-75022931D01*
X110703928Y-74820467D01*
X111079149Y-74445899D01*
X111282468Y-73956253D01*
X111282931Y-73426073D01*
X111080467Y-72936072D01*
X110705899Y-72560851D01*
X110216253Y-72357532D01*
X109686073Y-72357069D01*
X109446500Y-72456058D01*
X109446500Y-71130000D01*
X109350855Y-70649158D01*
X109078480Y-70241520D01*
X107748480Y-68911520D01*
X107340842Y-68639145D01*
X106860000Y-68543500D01*
X105989204Y-68543500D01*
X105806253Y-68467532D01*
X105276073Y-68467069D01*
X104786072Y-68669533D01*
X104514007Y-68941124D01*
X104582468Y-68776253D01*
X104582636Y-68584324D01*
X105080460Y-68086500D01*
X115780000Y-68086500D01*
X116260842Y-67990855D01*
X116668480Y-67718480D01*
X121347584Y-63039375D01*
X127496500Y-63039375D01*
X127496500Y-63775957D01*
X127600557Y-64027172D01*
X127792829Y-64219444D01*
X128044044Y-64323500D01*
X128780625Y-64323500D01*
X128951500Y-64152625D01*
X128951500Y-62868500D01*
X127667375Y-62868500D01*
X127496500Y-63039375D01*
X121347584Y-63039375D01*
X122250459Y-62136500D01*
X127496500Y-62136500D01*
X127496500Y-62540625D01*
X127667375Y-62711500D01*
X128951500Y-62711500D01*
X128951500Y-62691500D01*
X129108500Y-62691500D01*
X129108500Y-62711500D01*
X129128500Y-62711500D01*
X129128500Y-62868500D01*
X129108500Y-62868500D01*
X129108500Y-64152625D01*
X129279375Y-64323500D01*
X130015956Y-64323500D01*
X130267171Y-64219444D01*
X130405523Y-64081092D01*
X130909680Y-64417959D01*
X131570000Y-64549305D01*
X132230320Y-64417959D01*
X132790113Y-64043918D01*
X132840000Y-63969257D01*
X132889887Y-64043918D01*
X133449680Y-64417959D01*
X134110000Y-64549305D01*
X134770320Y-64417959D01*
X135330113Y-64043918D01*
X135380000Y-63969257D01*
X135429887Y-64043918D01*
X135989680Y-64417959D01*
X136650000Y-64549305D01*
X137310320Y-64417959D01*
X137870113Y-64043918D01*
X138244154Y-63484125D01*
X138334609Y-63029375D01*
X140206500Y-63029375D01*
X140206500Y-63765957D01*
X140310557Y-64017172D01*
X140502829Y-64209444D01*
X140754044Y-64313500D01*
X141490625Y-64313500D01*
X141661500Y-64142625D01*
X141661500Y-62858500D01*
X140377375Y-62858500D01*
X140206500Y-63029375D01*
X138334609Y-63029375D01*
X138375500Y-62823805D01*
X138375500Y-62756195D01*
X138244154Y-62095875D01*
X138186440Y-62009500D01*
X140206500Y-62009500D01*
X140206500Y-62530625D01*
X140377375Y-62701500D01*
X141661500Y-62701500D01*
X141661500Y-62681500D01*
X141818500Y-62681500D01*
X141818500Y-62701500D01*
X141838500Y-62701500D01*
X141838500Y-62858500D01*
X141818500Y-62858500D01*
X141818500Y-64142625D01*
X141989375Y-64313500D01*
X142725956Y-64313500D01*
X142977171Y-64209444D01*
X143115523Y-64071092D01*
X143619680Y-64407959D01*
X144280000Y-64539305D01*
X144940320Y-64407959D01*
X145500113Y-64033918D01*
X145550000Y-63959257D01*
X145599887Y-64033918D01*
X146159680Y-64407959D01*
X146820000Y-64539305D01*
X147480320Y-64407959D01*
X148040113Y-64033918D01*
X148090000Y-63959257D01*
X148139887Y-64033918D01*
X148699680Y-64407959D01*
X149360000Y-64539305D01*
X150020320Y-64407959D01*
X150580113Y-64033918D01*
X150954154Y-63474125D01*
X151031135Y-63087112D01*
X152939640Y-63087112D01*
X153175202Y-63637136D01*
X153603318Y-64055146D01*
X154122889Y-64270354D01*
X154361500Y-64130362D01*
X154361500Y-62848500D01*
X153079380Y-62848500D01*
X152939640Y-63087112D01*
X151031135Y-63087112D01*
X151085500Y-62813805D01*
X151085500Y-62746195D01*
X151027158Y-62452888D01*
X152939640Y-62452888D01*
X153079380Y-62691500D01*
X154361500Y-62691500D01*
X154361500Y-61409638D01*
X154122889Y-61269646D01*
X153603318Y-61484854D01*
X153175202Y-61902864D01*
X152939640Y-62452888D01*
X151027158Y-62452888D01*
X150954154Y-62085875D01*
X150580113Y-61526082D01*
X150085361Y-61195500D01*
X156239673Y-61195500D01*
X155759887Y-61516082D01*
X155759887Y-61516082D01*
G37*
X155759887Y-61516082D02*
X155581735Y-61782706D01*
X155276682Y-61484854D01*
X154757111Y-61269646D01*
X154518500Y-61409638D01*
X154518500Y-62691500D01*
X154538500Y-62691500D01*
X154538500Y-62848500D01*
X154518500Y-62848500D01*
X154518500Y-64130362D01*
X154757111Y-64270354D01*
X155276682Y-64055146D01*
X155581735Y-63757294D01*
X155759887Y-64023918D01*
X155936403Y-64141862D01*
X155936478Y-64142241D01*
X156181323Y-64508677D01*
X157351323Y-65678677D01*
X157717759Y-65923522D01*
X158150000Y-66009500D01*
X158857510Y-66009500D01*
X158857069Y-66513927D01*
X159059533Y-67003928D01*
X159434101Y-67379149D01*
X159923747Y-67582468D01*
X160453927Y-67582931D01*
X160943928Y-67380467D01*
X161319149Y-67005899D01*
X161522468Y-66516253D01*
X161522911Y-66009500D01*
X166287501Y-66009500D01*
X166287069Y-66503927D01*
X166489533Y-66993928D01*
X166864101Y-67369149D01*
X167353747Y-67572468D01*
X167883927Y-67572931D01*
X168373928Y-67370467D01*
X168374897Y-67369500D01*
X170052146Y-67369500D01*
X171727418Y-69044772D01*
X171929533Y-69533928D01*
X172304101Y-69909149D01*
X172758253Y-70097730D01*
X172536072Y-70189533D01*
X172160851Y-70564101D01*
X171957532Y-71053747D01*
X171957069Y-71583927D01*
X172033500Y-71768904D01*
X172033500Y-72569541D01*
X171709540Y-72893500D01*
X162006165Y-72893500D01*
X162303928Y-72770467D01*
X162679149Y-72395899D01*
X162882468Y-71906253D01*
X162882749Y-71583927D01*
X168567069Y-71583927D01*
X168769533Y-72073928D01*
X169144101Y-72449149D01*
X169633747Y-72652468D01*
X170163927Y-72652931D01*
X170653928Y-72450467D01*
X171029149Y-72075899D01*
X171232468Y-71586253D01*
X171232931Y-71056073D01*
X171030467Y-70566072D01*
X170655899Y-70190851D01*
X170166253Y-69987532D01*
X169636073Y-69987069D01*
X169146072Y-70189533D01*
X168770851Y-70564101D01*
X168567532Y-71053747D01*
X168567069Y-71583927D01*
X162882749Y-71583927D01*
X162882931Y-71376073D01*
X162700900Y-70935524D01*
X162944101Y-71179149D01*
X163433747Y-71382468D01*
X163963927Y-71382931D01*
X164453928Y-71180467D01*
X164829149Y-70805899D01*
X165032468Y-70316253D01*
X165032931Y-69786073D01*
X164830467Y-69296072D01*
X164455899Y-68920851D01*
X163966253Y-68717532D01*
X163436073Y-68717069D01*
X162946072Y-68919533D01*
X162570851Y-69294101D01*
X162367532Y-69783747D01*
X162367069Y-70313927D01*
X162549100Y-70754476D01*
X162305899Y-70510851D01*
X161816253Y-70307532D01*
X161286073Y-70307069D01*
X160796072Y-70509533D01*
X160420851Y-70884101D01*
X160217532Y-71373747D01*
X160217069Y-71903927D01*
X160419533Y-72393928D01*
X160794101Y-72769149D01*
X161093571Y-72893500D01*
X159662497Y-72893500D01*
X159662931Y-72396073D01*
X159460467Y-71906072D01*
X159085899Y-71530851D01*
X158596253Y-71327532D01*
X158066073Y-71327069D01*
X157576072Y-71529533D01*
X157200851Y-71904101D01*
X156997532Y-72393747D01*
X156997096Y-72893500D01*
X154300459Y-72893500D01*
X152532299Y-71125340D01*
X153003928Y-70930467D01*
X153220845Y-70713927D01*
X154267069Y-70713927D01*
X154469533Y-71203928D01*
X154844101Y-71579149D01*
X155333747Y-71782468D01*
X155863927Y-71782931D01*
X156353928Y-71580467D01*
X156729149Y-71205899D01*
X156932468Y-70716253D01*
X156932931Y-70186073D01*
X156730467Y-69696072D01*
X156355899Y-69320851D01*
X155866253Y-69117532D01*
X155336073Y-69117069D01*
X154846072Y-69319533D01*
X154470851Y-69694101D01*
X154267532Y-70183747D01*
X154267069Y-70713927D01*
X153220845Y-70713927D01*
X153379149Y-70555899D01*
X153582468Y-70066253D01*
X153582931Y-69536073D01*
X153380467Y-69046072D01*
X153005899Y-68670851D01*
X152516253Y-68467532D01*
X151986073Y-68467069D01*
X151496072Y-68669533D01*
X151120851Y-69044101D01*
X150924332Y-69517372D01*
X147203480Y-65796520D01*
X146795842Y-65524145D01*
X146315000Y-65428500D01*
X132255005Y-65428500D01*
X132255000Y-65428499D01*
X131853935Y-65508276D01*
X131774158Y-65524145D01*
X131366520Y-65796520D01*
X131366518Y-65796523D01*
X127850000Y-69313040D01*
X124006500Y-65469540D01*
X124006500Y-64979204D01*
X124082468Y-64796253D01*
X124082931Y-64266073D01*
X123880467Y-63776072D01*
X123505899Y-63400851D01*
X123016253Y-63197532D01*
X122486073Y-63197069D01*
X121996072Y-63399533D01*
X121620851Y-63774101D01*
X121417532Y-64263747D01*
X121417069Y-64793927D01*
X121493500Y-64978904D01*
X121493500Y-65469541D01*
X115851520Y-71111520D01*
X115579145Y-71519158D01*
X115483500Y-72000000D01*
X115483500Y-78000198D01*
X115236253Y-77897532D01*
X114706073Y-77897069D01*
X114216072Y-78099533D01*
X113840851Y-78474101D01*
X113637532Y-78963747D01*
X113637069Y-79493927D01*
X113713500Y-79678904D01*
X113713500Y-81229540D01*
X110481520Y-84461520D01*
X110209145Y-84869158D01*
X110113500Y-85350000D01*
X110113500Y-96130000D01*
X110117607Y-96150647D01*
X109446500Y-95479540D01*
X109446500Y-81439802D01*
X109693747Y-81542468D01*
X110223927Y-81542931D01*
X110713928Y-81340467D01*
X111089149Y-80965899D01*
X111292468Y-80476253D01*
X111292931Y-79946073D01*
X111090467Y-79456072D01*
X110715899Y-79080851D01*
X110226253Y-78877532D01*
X109696073Y-78877069D01*
X109446500Y-78980190D01*
X109446500Y-74923954D01*
X109683747Y-75022468D01*
X110213927Y-75022931D01*
X110703928Y-74820467D01*
X111079149Y-74445899D01*
X111282468Y-73956253D01*
X111282931Y-73426073D01*
X111080467Y-72936072D01*
X110705899Y-72560851D01*
X110216253Y-72357532D01*
X109686073Y-72357069D01*
X109446500Y-72456058D01*
X109446500Y-71130000D01*
X109350855Y-70649158D01*
X109078480Y-70241520D01*
X107748480Y-68911520D01*
X107340842Y-68639145D01*
X106860000Y-68543500D01*
X105989204Y-68543500D01*
X105806253Y-68467532D01*
X105276073Y-68467069D01*
X104786072Y-68669533D01*
X104514007Y-68941124D01*
X104582468Y-68776253D01*
X104582636Y-68584324D01*
X105080460Y-68086500D01*
X115780000Y-68086500D01*
X116260842Y-67990855D01*
X116668480Y-67718480D01*
X121347584Y-63039375D01*
X127496500Y-63039375D01*
X127496500Y-63775957D01*
X127600557Y-64027172D01*
X127792829Y-64219444D01*
X128044044Y-64323500D01*
X128780625Y-64323500D01*
X128951500Y-64152625D01*
X128951500Y-62868500D01*
X127667375Y-62868500D01*
X127496500Y-63039375D01*
X121347584Y-63039375D01*
X122250459Y-62136500D01*
X127496500Y-62136500D01*
X127496500Y-62540625D01*
X127667375Y-62711500D01*
X128951500Y-62711500D01*
X128951500Y-62691500D01*
X129108500Y-62691500D01*
X129108500Y-62711500D01*
X129128500Y-62711500D01*
X129128500Y-62868500D01*
X129108500Y-62868500D01*
X129108500Y-64152625D01*
X129279375Y-64323500D01*
X130015956Y-64323500D01*
X130267171Y-64219444D01*
X130405523Y-64081092D01*
X130909680Y-64417959D01*
X131570000Y-64549305D01*
X132230320Y-64417959D01*
X132790113Y-64043918D01*
X132840000Y-63969257D01*
X132889887Y-64043918D01*
X133449680Y-64417959D01*
X134110000Y-64549305D01*
X134770320Y-64417959D01*
X135330113Y-64043918D01*
X135380000Y-63969257D01*
X135429887Y-64043918D01*
X135989680Y-64417959D01*
X136650000Y-64549305D01*
X137310320Y-64417959D01*
X137870113Y-64043918D01*
X138244154Y-63484125D01*
X138334609Y-63029375D01*
X140206500Y-63029375D01*
X140206500Y-63765957D01*
X140310557Y-64017172D01*
X140502829Y-64209444D01*
X140754044Y-64313500D01*
X141490625Y-64313500D01*
X141661500Y-64142625D01*
X141661500Y-62858500D01*
X140377375Y-62858500D01*
X140206500Y-63029375D01*
X138334609Y-63029375D01*
X138375500Y-62823805D01*
X138375500Y-62756195D01*
X138244154Y-62095875D01*
X138186440Y-62009500D01*
X140206500Y-62009500D01*
X140206500Y-62530625D01*
X140377375Y-62701500D01*
X141661500Y-62701500D01*
X141661500Y-62681500D01*
X141818500Y-62681500D01*
X141818500Y-62701500D01*
X141838500Y-62701500D01*
X141838500Y-62858500D01*
X141818500Y-62858500D01*
X141818500Y-64142625D01*
X141989375Y-64313500D01*
X142725956Y-64313500D01*
X142977171Y-64209444D01*
X143115523Y-64071092D01*
X143619680Y-64407959D01*
X144280000Y-64539305D01*
X144940320Y-64407959D01*
X145500113Y-64033918D01*
X145550000Y-63959257D01*
X145599887Y-64033918D01*
X146159680Y-64407959D01*
X146820000Y-64539305D01*
X147480320Y-64407959D01*
X148040113Y-64033918D01*
X148090000Y-63959257D01*
X148139887Y-64033918D01*
X148699680Y-64407959D01*
X149360000Y-64539305D01*
X150020320Y-64407959D01*
X150580113Y-64033918D01*
X150954154Y-63474125D01*
X151031135Y-63087112D01*
X152939640Y-63087112D01*
X153175202Y-63637136D01*
X153603318Y-64055146D01*
X154122889Y-64270354D01*
X154361500Y-64130362D01*
X154361500Y-62848500D01*
X153079380Y-62848500D01*
X152939640Y-63087112D01*
X151031135Y-63087112D01*
X151085500Y-62813805D01*
X151085500Y-62746195D01*
X151027158Y-62452888D01*
X152939640Y-62452888D01*
X153079380Y-62691500D01*
X154361500Y-62691500D01*
X154361500Y-61409638D01*
X154122889Y-61269646D01*
X153603318Y-61484854D01*
X153175202Y-61902864D01*
X152939640Y-62452888D01*
X151027158Y-62452888D01*
X150954154Y-62085875D01*
X150580113Y-61526082D01*
X150085361Y-61195500D01*
X156239673Y-61195500D01*
X155759887Y-61516082D01*
G36*
X120978500Y-94261500D02*
X120998500Y-94261500D01*
X120998500Y-94418500D01*
X120978500Y-94418500D01*
X120978500Y-94438500D01*
X120821500Y-94438500D01*
X120821500Y-94418500D01*
X120801500Y-94418500D01*
X120801500Y-94261500D01*
X120821500Y-94261500D01*
X120821500Y-94241500D01*
X120978500Y-94241500D01*
X120978500Y-94261500D01*
X120978500Y-94261500D01*
G37*
X120978500Y-94261500D02*
X120998500Y-94261500D01*
X120998500Y-94418500D01*
X120978500Y-94418500D01*
X120978500Y-94438500D01*
X120821500Y-94438500D01*
X120821500Y-94418500D01*
X120801500Y-94418500D01*
X120801500Y-94261500D01*
X120821500Y-94261500D01*
X120821500Y-94241500D01*
X120978500Y-94241500D01*
X120978500Y-94261500D01*
G36*
X137021323Y-92431323D02*
X136776478Y-92797759D01*
X136690500Y-93230000D01*
X136690500Y-93620354D01*
X136680467Y-93596072D01*
X136305899Y-93220851D01*
X135982843Y-93086706D01*
X135982931Y-92986073D01*
X135780467Y-92496072D01*
X135737238Y-92452768D01*
X135923927Y-92452931D01*
X136108904Y-92376500D01*
X137076146Y-92376500D01*
X137021323Y-92431323D01*
X137021323Y-92431323D01*
G37*
X137021323Y-92431323D02*
X136776478Y-92797759D01*
X136690500Y-93230000D01*
X136690500Y-93620354D01*
X136680467Y-93596072D01*
X136305899Y-93220851D01*
X135982843Y-93086706D01*
X135982931Y-92986073D01*
X135780467Y-92496072D01*
X135737238Y-92452768D01*
X135923927Y-92452931D01*
X136108904Y-92376500D01*
X137076146Y-92376500D01*
X137021323Y-92431323D01*
G36*
X104056287Y-61345859D02*
X103670667Y-62255494D01*
X103662502Y-63243459D01*
X104033036Y-64159344D01*
X104056287Y-64194141D01*
X104425738Y-64383246D01*
X106038984Y-62770000D01*
X106024842Y-62755858D01*
X106135858Y-62644842D01*
X106150000Y-62658984D01*
X106164142Y-62644842D01*
X106275158Y-62755858D01*
X106261016Y-62770000D01*
X107874262Y-64383246D01*
X108243713Y-64194141D01*
X108629333Y-63284506D01*
X108637498Y-62296541D01*
X108266964Y-61380656D01*
X108243713Y-61345859D01*
X107949959Y-61195500D01*
X119637541Y-61195500D01*
X115259540Y-65573500D01*
X104560005Y-65573500D01*
X104560000Y-65573499D01*
X104079158Y-65669145D01*
X103671520Y-65941520D01*
X102361520Y-67251520D01*
X102089145Y-67659158D01*
X102023741Y-67987968D01*
X101917532Y-68243747D01*
X101917069Y-68773927D01*
X101993500Y-68958904D01*
X101993500Y-70892631D01*
X101897532Y-71123747D01*
X101897069Y-71653927D01*
X102099533Y-72143928D01*
X102474101Y-72519149D01*
X102963747Y-72722468D01*
X103493927Y-72722931D01*
X103983928Y-72520467D01*
X104359149Y-72145899D01*
X104562468Y-71656253D01*
X104562931Y-71126073D01*
X104506500Y-70989499D01*
X104506500Y-70651064D01*
X104784101Y-70929149D01*
X105273747Y-71132468D01*
X105803927Y-71132931D01*
X105988904Y-71056500D01*
X106339540Y-71056500D01*
X106933500Y-71650460D01*
X106933500Y-78877348D01*
X105940000Y-78877348D01*
X105615559Y-78938396D01*
X105439508Y-79051681D01*
X105287292Y-78947676D01*
X104940000Y-78877348D01*
X103940000Y-78877348D01*
X103615559Y-78938396D01*
X103439508Y-79051681D01*
X103287292Y-78947676D01*
X102940000Y-78877348D01*
X101940000Y-78877348D01*
X101615559Y-78938396D01*
X101439508Y-79051681D01*
X101287292Y-78947676D01*
X100940000Y-78877348D01*
X99940000Y-78877348D01*
X99615559Y-78938396D01*
X99439508Y-79051681D01*
X99287292Y-78947676D01*
X98940000Y-78877348D01*
X98297655Y-78877348D01*
X98393500Y-78645956D01*
X98393500Y-78009375D01*
X98222625Y-77838500D01*
X97038500Y-77838500D01*
X97038500Y-77858500D01*
X96881500Y-77858500D01*
X96881500Y-77838500D01*
X96861500Y-77838500D01*
X96861500Y-77681500D01*
X96881500Y-77681500D01*
X96881500Y-77661500D01*
X97038500Y-77661500D01*
X97038500Y-77681500D01*
X98222625Y-77681500D01*
X98393500Y-77510625D01*
X98393500Y-77000467D01*
X98532324Y-76797292D01*
X98602652Y-76450000D01*
X98602652Y-74950000D01*
X98563457Y-74741697D01*
X98632652Y-74400000D01*
X98632652Y-72900000D01*
X98571604Y-72575559D01*
X98566543Y-72567694D01*
X98612652Y-72340000D01*
X98612652Y-70840000D01*
X98551604Y-70515559D01*
X98519635Y-70465877D01*
X98662643Y-70322869D01*
X98733927Y-70322931D01*
X99223928Y-70120467D01*
X99599149Y-69745899D01*
X99802468Y-69256253D01*
X99802931Y-68726073D01*
X99600467Y-68236072D01*
X99225899Y-67860851D01*
X98736253Y-67657532D01*
X98206073Y-67657069D01*
X97716072Y-67859533D01*
X97340851Y-68234101D01*
X97137532Y-68723747D01*
X97137468Y-68797020D01*
X96207244Y-69727244D01*
X96037191Y-69981746D01*
X95895559Y-70008396D01*
X95597580Y-70200140D01*
X95397676Y-70492708D01*
X95327348Y-70840000D01*
X95327348Y-71101520D01*
X95320534Y-71097855D01*
X95238346Y-71080673D01*
X95058500Y-71225500D01*
X95058500Y-72281500D01*
X95078500Y-72281500D01*
X95078500Y-72438500D01*
X95058500Y-72438500D01*
X95058500Y-72458500D01*
X94901500Y-72458500D01*
X94901500Y-72438500D01*
X93989962Y-72438500D01*
X93972726Y-72457248D01*
X93636253Y-72317532D01*
X93218613Y-72317167D01*
X93447368Y-72141353D01*
X93471768Y-72099013D01*
X93822195Y-72099013D01*
X93989962Y-72281500D01*
X94901500Y-72281500D01*
X94901500Y-71225500D01*
X94721654Y-71080673D01*
X94639466Y-71097855D01*
X94239788Y-71312829D01*
X93952801Y-71664389D01*
X93822195Y-72099013D01*
X93471768Y-72099013D01*
X93678451Y-71740382D01*
X93709075Y-71622266D01*
X93564578Y-71438500D01*
X92358500Y-71438500D01*
X92358500Y-72543500D01*
X92592063Y-72543500D01*
X92240851Y-72894101D01*
X92037532Y-73383747D01*
X92037069Y-73913927D01*
X92239533Y-74403928D01*
X92614101Y-74779149D01*
X92666724Y-74801000D01*
X92646072Y-74809533D01*
X92270851Y-75184101D01*
X92067532Y-75673747D01*
X92067069Y-76203927D01*
X92269533Y-76693928D01*
X92644101Y-77069149D01*
X93133747Y-77272468D01*
X93663927Y-77272931D01*
X93894499Y-77177661D01*
X93989962Y-77281500D01*
X94901500Y-77281500D01*
X94901500Y-77261500D01*
X95058500Y-77261500D01*
X95058500Y-77281500D01*
X95078500Y-77281500D01*
X95078500Y-77438500D01*
X95058500Y-77438500D01*
X95058500Y-78494500D01*
X95238346Y-78639327D01*
X95320534Y-78622145D01*
X95526500Y-78511362D01*
X95526500Y-78645956D01*
X95630556Y-78897171D01*
X95662877Y-78929492D01*
X95615559Y-78938396D01*
X95317580Y-79130140D01*
X95287521Y-79174133D01*
X95075956Y-79086500D01*
X94689375Y-79086500D01*
X94518500Y-79257375D01*
X94518500Y-80691500D01*
X94538500Y-80691500D01*
X94538500Y-80848500D01*
X94518500Y-80848500D01*
X94518500Y-82282625D01*
X94689375Y-82453500D01*
X95075956Y-82453500D01*
X95183500Y-82408954D01*
X95183500Y-85243500D01*
X94710460Y-85243500D01*
X93751201Y-84284241D01*
X93751038Y-84268275D01*
X93822468Y-84096253D01*
X93822931Y-83566073D01*
X93620467Y-83076072D01*
X93245899Y-82700851D01*
X92756253Y-82497532D01*
X92226073Y-82497069D01*
X91865500Y-82646055D01*
X91865500Y-82453500D01*
X92190625Y-82453500D01*
X92361500Y-82282625D01*
X92361500Y-80848500D01*
X92518500Y-80848500D01*
X92518500Y-82282625D01*
X92689375Y-82453500D01*
X93075956Y-82453500D01*
X93327171Y-82349444D01*
X93440000Y-82236615D01*
X93552829Y-82349444D01*
X93804044Y-82453500D01*
X94190625Y-82453500D01*
X94361500Y-82282625D01*
X94361500Y-80848500D01*
X92518500Y-80848500D01*
X92361500Y-80848500D01*
X92341500Y-80848500D01*
X92341500Y-80691500D01*
X92361500Y-80691500D01*
X92361500Y-80671500D01*
X92518500Y-80671500D01*
X92518500Y-80691500D01*
X94361500Y-80691500D01*
X94361500Y-79257375D01*
X94190625Y-79086500D01*
X93804044Y-79086500D01*
X93552829Y-79190556D01*
X93440000Y-79303385D01*
X93351584Y-79214969D01*
X93447368Y-79141353D01*
X93678451Y-78740382D01*
X93709075Y-78622266D01*
X93564578Y-78438500D01*
X92358500Y-78438500D01*
X92358500Y-78458500D01*
X92201500Y-78458500D01*
X92201500Y-78438500D01*
X92181500Y-78438500D01*
X92181500Y-78281500D01*
X92201500Y-78281500D01*
X92201500Y-77176500D01*
X92358500Y-77176500D01*
X92358500Y-78281500D01*
X93564578Y-78281500D01*
X93709075Y-78097734D01*
X93678451Y-77979618D01*
X93471769Y-77620987D01*
X93822195Y-77620987D01*
X93952801Y-78055611D01*
X94239788Y-78407171D01*
X94639466Y-78622145D01*
X94721654Y-78639327D01*
X94901500Y-78494500D01*
X94901500Y-77438500D01*
X93989962Y-77438500D01*
X93822195Y-77620987D01*
X93471769Y-77620987D01*
X93447368Y-77578647D01*
X93080430Y-77296629D01*
X92633500Y-77176500D01*
X92358500Y-77176500D01*
X92201500Y-77176500D01*
X91926500Y-77176500D01*
X91865500Y-77192896D01*
X91865500Y-72527104D01*
X91926500Y-72543500D01*
X92201500Y-72543500D01*
X92201500Y-71438500D01*
X92181500Y-71438500D01*
X92181500Y-71281500D01*
X92201500Y-71281500D01*
X92201500Y-70176500D01*
X92358500Y-70176500D01*
X92358500Y-71281500D01*
X93564578Y-71281500D01*
X93709075Y-71097734D01*
X93678451Y-70979618D01*
X93447368Y-70578647D01*
X93080430Y-70296629D01*
X92633500Y-70176500D01*
X92358500Y-70176500D01*
X92201500Y-70176500D01*
X91926500Y-70176500D01*
X91865500Y-70192896D01*
X91865500Y-64494262D01*
X104536754Y-64494262D01*
X104725859Y-64863713D01*
X105635494Y-65249333D01*
X106623459Y-65257498D01*
X107539344Y-64886964D01*
X107574141Y-64863713D01*
X107763246Y-64494262D01*
X106150000Y-62881016D01*
X104536754Y-64494262D01*
X91865500Y-64494262D01*
X91865500Y-61195500D01*
X104350041Y-61195500D01*
X104056287Y-61345859D01*
X104056287Y-61345859D01*
G37*
X104056287Y-61345859D02*
X103670667Y-62255494D01*
X103662502Y-63243459D01*
X104033036Y-64159344D01*
X104056287Y-64194141D01*
X104425738Y-64383246D01*
X106038984Y-62770000D01*
X106024842Y-62755858D01*
X106135858Y-62644842D01*
X106150000Y-62658984D01*
X106164142Y-62644842D01*
X106275158Y-62755858D01*
X106261016Y-62770000D01*
X107874262Y-64383246D01*
X108243713Y-64194141D01*
X108629333Y-63284506D01*
X108637498Y-62296541D01*
X108266964Y-61380656D01*
X108243713Y-61345859D01*
X107949959Y-61195500D01*
X119637541Y-61195500D01*
X115259540Y-65573500D01*
X104560005Y-65573500D01*
X104560000Y-65573499D01*
X104079158Y-65669145D01*
X103671520Y-65941520D01*
X102361520Y-67251520D01*
X102089145Y-67659158D01*
X102023741Y-67987968D01*
X101917532Y-68243747D01*
X101917069Y-68773927D01*
X101993500Y-68958904D01*
X101993500Y-70892631D01*
X101897532Y-71123747D01*
X101897069Y-71653927D01*
X102099533Y-72143928D01*
X102474101Y-72519149D01*
X102963747Y-72722468D01*
X103493927Y-72722931D01*
X103983928Y-72520467D01*
X104359149Y-72145899D01*
X104562468Y-71656253D01*
X104562931Y-71126073D01*
X104506500Y-70989499D01*
X104506500Y-70651064D01*
X104784101Y-70929149D01*
X105273747Y-71132468D01*
X105803927Y-71132931D01*
X105988904Y-71056500D01*
X106339540Y-71056500D01*
X106933500Y-71650460D01*
X106933500Y-78877348D01*
X105940000Y-78877348D01*
X105615559Y-78938396D01*
X105439508Y-79051681D01*
X105287292Y-78947676D01*
X104940000Y-78877348D01*
X103940000Y-78877348D01*
X103615559Y-78938396D01*
X103439508Y-79051681D01*
X103287292Y-78947676D01*
X102940000Y-78877348D01*
X101940000Y-78877348D01*
X101615559Y-78938396D01*
X101439508Y-79051681D01*
X101287292Y-78947676D01*
X100940000Y-78877348D01*
X99940000Y-78877348D01*
X99615559Y-78938396D01*
X99439508Y-79051681D01*
X99287292Y-78947676D01*
X98940000Y-78877348D01*
X98297655Y-78877348D01*
X98393500Y-78645956D01*
X98393500Y-78009375D01*
X98222625Y-77838500D01*
X97038500Y-77838500D01*
X97038500Y-77858500D01*
X96881500Y-77858500D01*
X96881500Y-77838500D01*
X96861500Y-77838500D01*
X96861500Y-77681500D01*
X96881500Y-77681500D01*
X96881500Y-77661500D01*
X97038500Y-77661500D01*
X97038500Y-77681500D01*
X98222625Y-77681500D01*
X98393500Y-77510625D01*
X98393500Y-77000467D01*
X98532324Y-76797292D01*
X98602652Y-76450000D01*
X98602652Y-74950000D01*
X98563457Y-74741697D01*
X98632652Y-74400000D01*
X98632652Y-72900000D01*
X98571604Y-72575559D01*
X98566543Y-72567694D01*
X98612652Y-72340000D01*
X98612652Y-70840000D01*
X98551604Y-70515559D01*
X98519635Y-70465877D01*
X98662643Y-70322869D01*
X98733927Y-70322931D01*
X99223928Y-70120467D01*
X99599149Y-69745899D01*
X99802468Y-69256253D01*
X99802931Y-68726073D01*
X99600467Y-68236072D01*
X99225899Y-67860851D01*
X98736253Y-67657532D01*
X98206073Y-67657069D01*
X97716072Y-67859533D01*
X97340851Y-68234101D01*
X97137532Y-68723747D01*
X97137468Y-68797020D01*
X96207244Y-69727244D01*
X96037191Y-69981746D01*
X95895559Y-70008396D01*
X95597580Y-70200140D01*
X95397676Y-70492708D01*
X95327348Y-70840000D01*
X95327348Y-71101520D01*
X95320534Y-71097855D01*
X95238346Y-71080673D01*
X95058500Y-71225500D01*
X95058500Y-72281500D01*
X95078500Y-72281500D01*
X95078500Y-72438500D01*
X95058500Y-72438500D01*
X95058500Y-72458500D01*
X94901500Y-72458500D01*
X94901500Y-72438500D01*
X93989962Y-72438500D01*
X93972726Y-72457248D01*
X93636253Y-72317532D01*
X93218613Y-72317167D01*
X93447368Y-72141353D01*
X93471768Y-72099013D01*
X93822195Y-72099013D01*
X93989962Y-72281500D01*
X94901500Y-72281500D01*
X94901500Y-71225500D01*
X94721654Y-71080673D01*
X94639466Y-71097855D01*
X94239788Y-71312829D01*
X93952801Y-71664389D01*
X93822195Y-72099013D01*
X93471768Y-72099013D01*
X93678451Y-71740382D01*
X93709075Y-71622266D01*
X93564578Y-71438500D01*
X92358500Y-71438500D01*
X92358500Y-72543500D01*
X92592063Y-72543500D01*
X92240851Y-72894101D01*
X92037532Y-73383747D01*
X92037069Y-73913927D01*
X92239533Y-74403928D01*
X92614101Y-74779149D01*
X92666724Y-74801000D01*
X92646072Y-74809533D01*
X92270851Y-75184101D01*
X92067532Y-75673747D01*
X92067069Y-76203927D01*
X92269533Y-76693928D01*
X92644101Y-77069149D01*
X93133747Y-77272468D01*
X93663927Y-77272931D01*
X93894499Y-77177661D01*
X93989962Y-77281500D01*
X94901500Y-77281500D01*
X94901500Y-77261500D01*
X95058500Y-77261500D01*
X95058500Y-77281500D01*
X95078500Y-77281500D01*
X95078500Y-77438500D01*
X95058500Y-77438500D01*
X95058500Y-78494500D01*
X95238346Y-78639327D01*
X95320534Y-78622145D01*
X95526500Y-78511362D01*
X95526500Y-78645956D01*
X95630556Y-78897171D01*
X95662877Y-78929492D01*
X95615559Y-78938396D01*
X95317580Y-79130140D01*
X95287521Y-79174133D01*
X95075956Y-79086500D01*
X94689375Y-79086500D01*
X94518500Y-79257375D01*
X94518500Y-80691500D01*
X94538500Y-80691500D01*
X94538500Y-80848500D01*
X94518500Y-80848500D01*
X94518500Y-82282625D01*
X94689375Y-82453500D01*
X95075956Y-82453500D01*
X95183500Y-82408954D01*
X95183500Y-85243500D01*
X94710460Y-85243500D01*
X93751201Y-84284241D01*
X93751038Y-84268275D01*
X93822468Y-84096253D01*
X93822931Y-83566073D01*
X93620467Y-83076072D01*
X93245899Y-82700851D01*
X92756253Y-82497532D01*
X92226073Y-82497069D01*
X91865500Y-82646055D01*
X91865500Y-82453500D01*
X92190625Y-82453500D01*
X92361500Y-82282625D01*
X92361500Y-80848500D01*
X92518500Y-80848500D01*
X92518500Y-82282625D01*
X92689375Y-82453500D01*
X93075956Y-82453500D01*
X93327171Y-82349444D01*
X93440000Y-82236615D01*
X93552829Y-82349444D01*
X93804044Y-82453500D01*
X94190625Y-82453500D01*
X94361500Y-82282625D01*
X94361500Y-80848500D01*
X92518500Y-80848500D01*
X92361500Y-80848500D01*
X92341500Y-80848500D01*
X92341500Y-80691500D01*
X92361500Y-80691500D01*
X92361500Y-80671500D01*
X92518500Y-80671500D01*
X92518500Y-80691500D01*
X94361500Y-80691500D01*
X94361500Y-79257375D01*
X94190625Y-79086500D01*
X93804044Y-79086500D01*
X93552829Y-79190556D01*
X93440000Y-79303385D01*
X93351584Y-79214969D01*
X93447368Y-79141353D01*
X93678451Y-78740382D01*
X93709075Y-78622266D01*
X93564578Y-78438500D01*
X92358500Y-78438500D01*
X92358500Y-78458500D01*
X92201500Y-78458500D01*
X92201500Y-78438500D01*
X92181500Y-78438500D01*
X92181500Y-78281500D01*
X92201500Y-78281500D01*
X92201500Y-77176500D01*
X92358500Y-77176500D01*
X92358500Y-78281500D01*
X93564578Y-78281500D01*
X93709075Y-78097734D01*
X93678451Y-77979618D01*
X93471769Y-77620987D01*
X93822195Y-77620987D01*
X93952801Y-78055611D01*
X94239788Y-78407171D01*
X94639466Y-78622145D01*
X94721654Y-78639327D01*
X94901500Y-78494500D01*
X94901500Y-77438500D01*
X93989962Y-77438500D01*
X93822195Y-77620987D01*
X93471769Y-77620987D01*
X93447368Y-77578647D01*
X93080430Y-77296629D01*
X92633500Y-77176500D01*
X92358500Y-77176500D01*
X92201500Y-77176500D01*
X91926500Y-77176500D01*
X91865500Y-77192896D01*
X91865500Y-72527104D01*
X91926500Y-72543500D01*
X92201500Y-72543500D01*
X92201500Y-71438500D01*
X92181500Y-71438500D01*
X92181500Y-71281500D01*
X92201500Y-71281500D01*
X92201500Y-70176500D01*
X92358500Y-70176500D01*
X92358500Y-71281500D01*
X93564578Y-71281500D01*
X93709075Y-71097734D01*
X93678451Y-70979618D01*
X93447368Y-70578647D01*
X93080430Y-70296629D01*
X92633500Y-70176500D01*
X92358500Y-70176500D01*
X92201500Y-70176500D01*
X91926500Y-70176500D01*
X91865500Y-70192896D01*
X91865500Y-64494262D01*
X104536754Y-64494262D01*
X104725859Y-64863713D01*
X105635494Y-65249333D01*
X106623459Y-65257498D01*
X107539344Y-64886964D01*
X107574141Y-64863713D01*
X107763246Y-64494262D01*
X106150000Y-62881016D01*
X104536754Y-64494262D01*
X91865500Y-64494262D01*
X91865500Y-61195500D01*
X104350041Y-61195500D01*
X104056287Y-61345859D01*
G36*
X165919887Y-61516082D02*
X165741735Y-61782706D01*
X165436682Y-61484854D01*
X164917111Y-61269646D01*
X164678500Y-61409638D01*
X164678500Y-62691500D01*
X164698500Y-62691500D01*
X164698500Y-62848500D01*
X164678500Y-62848500D01*
X164678500Y-62868500D01*
X164521500Y-62868500D01*
X164521500Y-62848500D01*
X164501500Y-62848500D01*
X164501500Y-62691500D01*
X164521500Y-62691500D01*
X164521500Y-61409638D01*
X164282889Y-61269646D01*
X163763318Y-61484854D01*
X163458265Y-61782706D01*
X163280113Y-61516082D01*
X162800327Y-61195500D01*
X166399673Y-61195500D01*
X165919887Y-61516082D01*
X165919887Y-61516082D01*
G37*
X165919887Y-61516082D02*
X165741735Y-61782706D01*
X165436682Y-61484854D01*
X164917111Y-61269646D01*
X164678500Y-61409638D01*
X164678500Y-62691500D01*
X164698500Y-62691500D01*
X164698500Y-62848500D01*
X164678500Y-62848500D01*
X164678500Y-62868500D01*
X164521500Y-62868500D01*
X164521500Y-62848500D01*
X164501500Y-62848500D01*
X164501500Y-62691500D01*
X164521500Y-62691500D01*
X164521500Y-61409638D01*
X164282889Y-61269646D01*
X163763318Y-61484854D01*
X163458265Y-61782706D01*
X163280113Y-61516082D01*
X162800327Y-61195500D01*
X166399673Y-61195500D01*
X165919887Y-61516082D01*
G36*
X170747580Y-61280140D02*
X170571280Y-61538163D01*
X170516682Y-61484854D01*
X169997111Y-61269646D01*
X169758500Y-61409638D01*
X169758500Y-62691500D01*
X169778500Y-62691500D01*
X169778500Y-62848500D01*
X169758500Y-62848500D01*
X169758500Y-62868500D01*
X169601500Y-62868500D01*
X169601500Y-62848500D01*
X169581500Y-62848500D01*
X169581500Y-62691500D01*
X169601500Y-62691500D01*
X169601500Y-61409638D01*
X169362889Y-61269646D01*
X168843318Y-61484854D01*
X168538265Y-61782706D01*
X168360113Y-61516082D01*
X167880327Y-61195500D01*
X170879114Y-61195500D01*
X170747580Y-61280140D01*
X170747580Y-61280140D01*
G37*
X170747580Y-61280140D02*
X170571280Y-61538163D01*
X170516682Y-61484854D01*
X169997111Y-61269646D01*
X169758500Y-61409638D01*
X169758500Y-62691500D01*
X169778500Y-62691500D01*
X169778500Y-62848500D01*
X169758500Y-62848500D01*
X169758500Y-62868500D01*
X169601500Y-62868500D01*
X169601500Y-62848500D01*
X169581500Y-62848500D01*
X169581500Y-62691500D01*
X169601500Y-62691500D01*
X169601500Y-61409638D01*
X169362889Y-61269646D01*
X168843318Y-61484854D01*
X168538265Y-61782706D01*
X168360113Y-61516082D01*
X167880327Y-61195500D01*
X170879114Y-61195500D01*
X170747580Y-61280140D01*
G36*
X160839887Y-61516082D02*
X160661735Y-61782706D01*
X160356682Y-61484854D01*
X159837111Y-61269646D01*
X159598500Y-61409638D01*
X159598500Y-62691500D01*
X159618500Y-62691500D01*
X159618500Y-62848500D01*
X159598500Y-62848500D01*
X159598500Y-62868500D01*
X159441500Y-62868500D01*
X159441500Y-62848500D01*
X159421500Y-62848500D01*
X159421500Y-62691500D01*
X159441500Y-62691500D01*
X159441500Y-61409638D01*
X159202889Y-61269646D01*
X158683318Y-61484854D01*
X158378265Y-61782706D01*
X158200113Y-61516082D01*
X157720327Y-61195500D01*
X161319673Y-61195500D01*
X160839887Y-61516082D01*
X160839887Y-61516082D01*
G37*
X160839887Y-61516082D02*
X160661735Y-61782706D01*
X160356682Y-61484854D01*
X159837111Y-61269646D01*
X159598500Y-61409638D01*
X159598500Y-62691500D01*
X159618500Y-62691500D01*
X159618500Y-62848500D01*
X159598500Y-62848500D01*
X159598500Y-62868500D01*
X159441500Y-62868500D01*
X159441500Y-62848500D01*
X159421500Y-62848500D01*
X159421500Y-62691500D01*
X159441500Y-62691500D01*
X159441500Y-61409638D01*
X159202889Y-61269646D01*
X158683318Y-61484854D01*
X158378265Y-61782706D01*
X158200113Y-61516082D01*
X157720327Y-61195500D01*
X161319673Y-61195500D01*
X160839887Y-61516082D01*
M02*
