%FSLAX45Y45*%
G04 Gerber Fmt 4.5, Leading zero omitted, Abs format (unit mm)*
G04 Created by KiCad (PCBNEW 4.0.7-e2-6376~58~ubuntu16.04.1) date Sun Dec 30 12:21:25 2018*
%MOMM*%
%LPD*%
G01*
G04 APERTURE LIST*
%ADD10C,0.127000*%
%ADD11C,0.100000*%
%ADD12C,0.200000*%
%ADD13C,0.300000*%
G04 APERTURE END LIST*
D10*
D11*
X9094000Y-6027000D02*
X9096000Y-6027000D01*
X9094000Y-11358000D02*
X9094000Y-6027000D01*
X18997000Y-11358000D02*
X9094000Y-11358000D01*
X18997000Y-11356000D02*
X18997000Y-11358000D01*
X18997000Y-11355000D02*
X18997000Y-11356000D01*
X18997000Y-11354000D02*
X18997000Y-11355000D01*
X18997000Y-11353000D02*
X18997000Y-11354000D01*
X18997000Y-6179000D02*
X18997000Y-11353000D01*
X18996000Y-6178000D02*
X18997000Y-6179000D01*
X18995000Y-6177000D02*
X18996000Y-6178000D01*
X18845000Y-6027000D02*
X18995000Y-6177000D01*
X18844000Y-6027000D02*
X18845000Y-6027000D01*
X18843000Y-6027000D02*
X18844000Y-6027000D01*
X18842000Y-6027000D02*
X18843000Y-6027000D01*
X9097000Y-6027000D02*
X18842000Y-6027000D01*
X9094000Y-11358000D02*
X9094000Y-11360000D01*
D12*
X9228680Y-8362680D02*
X9269320Y-8403320D01*
X9269320Y-8362680D02*
X9228680Y-8403320D01*
X9356680Y-7344680D02*
X9397320Y-7385320D01*
X9397320Y-7344680D02*
X9356680Y-7385320D01*
X9356680Y-7570680D02*
X9397320Y-7611320D01*
X9397320Y-7570680D02*
X9356680Y-7611320D01*
X9453680Y-10726680D02*
X9494320Y-10767320D01*
X9494320Y-10726680D02*
X9453680Y-10767320D01*
X9624680Y-8629680D02*
X9665320Y-8670320D01*
X9665320Y-8629680D02*
X9624680Y-8670320D01*
X9720680Y-7015680D02*
X9761320Y-7056320D01*
X9761320Y-7015680D02*
X9720680Y-7056320D01*
X9752680Y-9093680D02*
X9793320Y-9134320D01*
X9793320Y-9093680D02*
X9752680Y-9134320D01*
X9802680Y-10726680D02*
X9843320Y-10767320D01*
X9843320Y-10726680D02*
X9802680Y-10767320D01*
X9904680Y-7220680D02*
X9945320Y-7261320D01*
X9945320Y-7220680D02*
X9904680Y-7261320D01*
X10130680Y-10725680D02*
X10171320Y-10766320D01*
X10171320Y-10725680D02*
X10130680Y-10766320D01*
X10181680Y-8965680D02*
X10222320Y-9006320D01*
X10222320Y-8965680D02*
X10181680Y-9006320D01*
X10280680Y-8794680D02*
X10321320Y-8835320D01*
X10321320Y-8794680D02*
X10280680Y-8835320D01*
X10302680Y-7118680D02*
X10343320Y-7159320D01*
X10343320Y-7118680D02*
X10302680Y-7159320D01*
X10304680Y-6830680D02*
X10345320Y-6871320D01*
X10345320Y-6830680D02*
X10304680Y-6871320D01*
X10308680Y-9925680D02*
X10349320Y-9966320D01*
X10349320Y-9925680D02*
X10308680Y-9966320D01*
X10384680Y-8963680D02*
X10425320Y-9004320D01*
X10425320Y-8963680D02*
X10384680Y-9004320D01*
X10533680Y-6959680D02*
X10574320Y-7000320D01*
X10574320Y-6959680D02*
X10533680Y-7000320D01*
X10572680Y-10634680D02*
X10613320Y-10675320D01*
X10613320Y-10634680D02*
X10572680Y-10675320D01*
X10963680Y-8164680D02*
X11004320Y-8205320D01*
X11004320Y-8164680D02*
X10963680Y-8205320D01*
X10974680Y-7348680D02*
X11015320Y-7389320D01*
X11015320Y-7348680D02*
X10974680Y-7389320D01*
X10975680Y-8000680D02*
X11016320Y-8041320D01*
X11016320Y-8000680D02*
X10975680Y-8041320D01*
X11447680Y-10274680D02*
X11488320Y-10315320D01*
X11488320Y-10274680D02*
X11447680Y-10315320D01*
X11476680Y-7902680D02*
X11517320Y-7943320D01*
X11517320Y-7902680D02*
X11476680Y-7943320D01*
X11478680Y-8662680D02*
X11519320Y-8703320D01*
X11519320Y-8662680D02*
X11478680Y-8703320D01*
X11478680Y-9027680D02*
X11519320Y-9068320D01*
X11519320Y-9027680D02*
X11478680Y-9068320D01*
X11517680Y-7041680D02*
X11558320Y-7082320D01*
X11558320Y-7041680D02*
X11517680Y-7082320D01*
X11787680Y-7348680D02*
X11828320Y-7389320D01*
X11828320Y-7348680D02*
X11787680Y-7389320D01*
X11889680Y-9935680D02*
X11930320Y-9976320D01*
X11930320Y-9935680D02*
X11889680Y-9976320D01*
X11915680Y-8661680D02*
X11956320Y-8702320D01*
X11956320Y-8661680D02*
X11915680Y-8702320D01*
X11915680Y-9023680D02*
X11956320Y-9064320D01*
X11956320Y-9023680D02*
X11915680Y-9064320D01*
X12192680Y-10517680D02*
X12233320Y-10558320D01*
X12233320Y-10517680D02*
X12192680Y-10558320D01*
X12203680Y-7500680D02*
X12244320Y-7541320D01*
X12244320Y-7500680D02*
X12203680Y-7541320D01*
X12254680Y-6432680D02*
X12295320Y-6473320D01*
X12295320Y-6432680D02*
X12254680Y-6473320D01*
X12500680Y-10296680D02*
X12541320Y-10337320D01*
X12541320Y-10296680D02*
X12500680Y-10337320D01*
X12557680Y-9755680D02*
X12598320Y-9796320D01*
X12598320Y-9755680D02*
X12557680Y-9796320D01*
X12740680Y-6555680D02*
X12781320Y-6596320D01*
X12781320Y-6555680D02*
X12740680Y-6596320D01*
X12753680Y-7473680D02*
X12794320Y-7514320D01*
X12794320Y-7473680D02*
X12753680Y-7514320D01*
X12797680Y-10246680D02*
X12838320Y-10287320D01*
X12838320Y-10246680D02*
X12797680Y-10287320D01*
X12869680Y-7670680D02*
X12910320Y-7711320D01*
X12910320Y-7670680D02*
X12869680Y-7711320D01*
X12938680Y-9983680D02*
X12979320Y-10024320D01*
X12979320Y-9983680D02*
X12938680Y-10024320D01*
X12938680Y-10364680D02*
X12979320Y-10405320D01*
X12979320Y-10364680D02*
X12938680Y-10405320D01*
X13035680Y-8611680D02*
X13076320Y-8652320D01*
X13076320Y-8611680D02*
X13035680Y-8652320D01*
X13385680Y-8687680D02*
X13426320Y-8728320D01*
X13426320Y-8687680D02*
X13385680Y-8728320D01*
X13444680Y-9304680D02*
X13485320Y-9345320D01*
X13485320Y-9304680D02*
X13444680Y-9345320D01*
X13484680Y-10137680D02*
X13525320Y-10178320D01*
X13525320Y-10137680D02*
X13484680Y-10178320D01*
X13506680Y-8832680D02*
X13547320Y-8873320D01*
X13547320Y-8832680D02*
X13506680Y-8873320D01*
X13534680Y-9414680D02*
X13575320Y-9455320D01*
X13575320Y-9414680D02*
X13534680Y-9455320D01*
X13545680Y-9091680D02*
X13586320Y-9132320D01*
X13586320Y-9091680D02*
X13545680Y-9132320D01*
X13575680Y-8685680D02*
X13616320Y-8726320D01*
X13616320Y-8685680D02*
X13575680Y-8726320D01*
X13577680Y-10619680D02*
X13618320Y-10660320D01*
X13618320Y-10619680D02*
X13577680Y-10660320D01*
X13636680Y-9309680D02*
X13677320Y-9350320D01*
X13677320Y-9309680D02*
X13636680Y-9350320D01*
X13664680Y-7390680D02*
X13705320Y-7431320D01*
X13705320Y-7390680D02*
X13664680Y-7431320D01*
X13740680Y-7028680D02*
X13781320Y-7069320D01*
X13781320Y-7028680D02*
X13740680Y-7069320D01*
X13809680Y-8721680D02*
X13850320Y-8762320D01*
X13850320Y-8721680D02*
X13809680Y-8762320D01*
X13836680Y-10237680D02*
X13877320Y-10278320D01*
X13877320Y-10237680D02*
X13836680Y-10278320D01*
X13837680Y-10364680D02*
X13878320Y-10405320D01*
X13878320Y-10364680D02*
X13837680Y-10405320D01*
X13886680Y-9380680D02*
X13927320Y-9421320D01*
X13927320Y-9380680D02*
X13886680Y-9421320D01*
X13954680Y-7023680D02*
X13995320Y-7064320D01*
X13995320Y-7023680D02*
X13954680Y-7064320D01*
X13980680Y-9292680D02*
X14021320Y-9333320D01*
X14021320Y-9292680D02*
X13980680Y-9333320D01*
X13986680Y-8742680D02*
X14027320Y-8783320D01*
X14027320Y-8742680D02*
X13986680Y-8783320D01*
X14034680Y-8609680D02*
X14075320Y-8650320D01*
X14075320Y-8609680D02*
X14034680Y-8650320D01*
X14142680Y-7443680D02*
X14183320Y-7484320D01*
X14183320Y-7443680D02*
X14142680Y-7484320D01*
X14162680Y-9397680D02*
X14203320Y-9438320D01*
X14203320Y-9397680D02*
X14162680Y-9438320D01*
X14177680Y-7997680D02*
X14218320Y-8038320D01*
X14218320Y-7997680D02*
X14177680Y-8038320D01*
X14283680Y-7718680D02*
X14324320Y-7759320D01*
X14324320Y-7718680D02*
X14283680Y-7759320D01*
X14339680Y-8455680D02*
X14380320Y-8496320D01*
X14380320Y-8455680D02*
X14339680Y-8496320D01*
X14354680Y-10601680D02*
X14395320Y-10642320D01*
X14395320Y-10601680D02*
X14354680Y-10642320D01*
X14367680Y-9623680D02*
X14408320Y-9664320D01*
X14408320Y-9623680D02*
X14367680Y-9664320D01*
X14443680Y-8338680D02*
X14484320Y-8379320D01*
X14484320Y-8338680D02*
X14443680Y-8379320D01*
X14492680Y-8501680D02*
X14533320Y-8542320D01*
X14533320Y-8501680D02*
X14492680Y-8542320D01*
X14518680Y-6803680D02*
X14559320Y-6844320D01*
X14559320Y-6803680D02*
X14518680Y-6844320D01*
X14539680Y-8959680D02*
X14580320Y-9000320D01*
X14580320Y-8959680D02*
X14539680Y-9000320D01*
X14599680Y-7721680D02*
X14640320Y-7762320D01*
X14640320Y-7721680D02*
X14599680Y-7762320D01*
X14755680Y-7721680D02*
X14796320Y-7762320D01*
X14796320Y-7721680D02*
X14755680Y-7762320D01*
X15045680Y-8493680D02*
X15086320Y-8534320D01*
X15086320Y-8493680D02*
X15045680Y-8534320D01*
X15053680Y-8971680D02*
X15094320Y-9012320D01*
X15094320Y-8971680D02*
X15053680Y-9012320D01*
X15081680Y-7778680D02*
X15122320Y-7819320D01*
X15122320Y-7778680D02*
X15081680Y-7819320D01*
X15103680Y-8225680D02*
X15144320Y-8266320D01*
X15144320Y-8225680D02*
X15103680Y-8266320D01*
X15204680Y-6959680D02*
X15245320Y-7000320D01*
X15245320Y-6959680D02*
X15204680Y-7000320D01*
X15222680Y-9378680D02*
X15263320Y-9419320D01*
X15263320Y-9378680D02*
X15222680Y-9419320D01*
X15268680Y-8706680D02*
X15309320Y-8747320D01*
X15309320Y-8706680D02*
X15268680Y-8747320D01*
X15268680Y-10068680D02*
X15309320Y-10109320D01*
X15309320Y-10068680D02*
X15268680Y-10109320D01*
X15450680Y-7869680D02*
X15491320Y-7910320D01*
X15491320Y-7869680D02*
X15450680Y-7910320D01*
X15451680Y-8702680D02*
X15492320Y-8743320D01*
X15492320Y-8702680D02*
X15451680Y-8743320D01*
X15510680Y-7238680D02*
X15551320Y-7279320D01*
X15551320Y-7238680D02*
X15510680Y-7279320D01*
X15521680Y-9108680D02*
X15562320Y-9149320D01*
X15562320Y-9108680D02*
X15521680Y-9149320D01*
X15539680Y-7024680D02*
X15580320Y-7065320D01*
X15580320Y-7024680D02*
X15539680Y-7065320D01*
X15584680Y-9920680D02*
X15625320Y-9961320D01*
X15625320Y-9920680D02*
X15584680Y-9961320D01*
X15602680Y-7820680D02*
X15643320Y-7861320D01*
X15643320Y-7820680D02*
X15602680Y-7861320D01*
X15670680Y-8249680D02*
X15711320Y-8290320D01*
X15711320Y-8249680D02*
X15670680Y-8290320D01*
X15768680Y-9529680D02*
X15809320Y-9570320D01*
X15809320Y-9529680D02*
X15768680Y-9570320D01*
X15812680Y-7245680D02*
X15853320Y-7286320D01*
X15853320Y-7245680D02*
X15812680Y-7286320D01*
X15880680Y-6770680D02*
X15921320Y-6811320D01*
X15921320Y-6770680D02*
X15880680Y-6811320D01*
X15998680Y-6604680D02*
X16039320Y-6645320D01*
X16039320Y-6604680D02*
X15998680Y-6645320D01*
X15998680Y-7996680D02*
X16039320Y-8037320D01*
X16039320Y-7996680D02*
X15998680Y-8037320D01*
X16134680Y-7143680D02*
X16175320Y-7184320D01*
X16175320Y-7143680D02*
X16134680Y-7184320D01*
X16196680Y-9565680D02*
X16237320Y-9606320D01*
X16237320Y-9565680D02*
X16196680Y-9606320D01*
X16200680Y-7948680D02*
X16241320Y-7989320D01*
X16241320Y-7948680D02*
X16200680Y-7989320D01*
X16255680Y-10027680D02*
X16296320Y-10068320D01*
X16296320Y-10027680D02*
X16255680Y-10068320D01*
X16349680Y-6984680D02*
X16390320Y-7025320D01*
X16390320Y-6984680D02*
X16349680Y-7025320D01*
X16515680Y-7986680D02*
X16556320Y-8027320D01*
X16556320Y-7986680D02*
X16515680Y-8027320D01*
X16704680Y-8073680D02*
X16745320Y-8114320D01*
X16745320Y-8073680D02*
X16704680Y-8114320D01*
X16741680Y-6603680D02*
X16782320Y-6644320D01*
X16782320Y-6603680D02*
X16741680Y-6644320D01*
X16791680Y-8741680D02*
X16832320Y-8782320D01*
X16832320Y-8741680D02*
X16791680Y-8782320D01*
X16794680Y-9120680D02*
X16835320Y-9161320D01*
X16835320Y-9120680D02*
X16794680Y-9161320D01*
X16796680Y-8995680D02*
X16837320Y-9036320D01*
X16837320Y-8995680D02*
X16796680Y-9036320D01*
X16796680Y-9794680D02*
X16837320Y-9835320D01*
X16837320Y-9794680D02*
X16796680Y-9835320D01*
X16799680Y-9540680D02*
X16840320Y-9581320D01*
X16840320Y-9540680D02*
X16799680Y-9581320D01*
X16799680Y-9665680D02*
X16840320Y-9706320D01*
X16840320Y-9665680D02*
X16799680Y-9706320D01*
X16969680Y-7111680D02*
X17010320Y-7152320D01*
X17010320Y-7111680D02*
X16969680Y-7152320D01*
X17016680Y-9333680D02*
X17057320Y-9374320D01*
X17057320Y-9333680D02*
X17016680Y-9374320D01*
X17123680Y-8592680D02*
X17164320Y-8633320D01*
X17164320Y-8592680D02*
X17123680Y-8633320D01*
X17194680Y-10514680D02*
X17235320Y-10555320D01*
X17235320Y-10514680D02*
X17194680Y-10555320D01*
X17255680Y-8225680D02*
X17296320Y-8266320D01*
X17296320Y-8225680D02*
X17255680Y-8266320D01*
X17285680Y-6857680D02*
X17326320Y-6898320D01*
X17326320Y-6857680D02*
X17285680Y-6898320D01*
X17308680Y-7111680D02*
X17349320Y-7152320D01*
X17349320Y-7111680D02*
X17308680Y-7152320D01*
X17316680Y-8622680D02*
X17357320Y-8663320D01*
X17357320Y-8622680D02*
X17316680Y-8663320D01*
X17414680Y-9244680D02*
X17455320Y-9285320D01*
X17455320Y-9244680D02*
X17414680Y-9285320D01*
X17458680Y-10510680D02*
X17499320Y-10551320D01*
X17499320Y-10510680D02*
X17458680Y-10551320D01*
X17489680Y-8994680D02*
X17530320Y-9035320D01*
X17530320Y-8994680D02*
X17489680Y-9035320D01*
X17700680Y-10505680D02*
X17741320Y-10546320D01*
X17741320Y-10505680D02*
X17700680Y-10546320D01*
X17962680Y-10507680D02*
X18003320Y-10548320D01*
X18003320Y-10507680D02*
X17962680Y-10548320D01*
X17972680Y-6839680D02*
X18013320Y-6880320D01*
X18013320Y-6839680D02*
X17972680Y-6880320D01*
X18039680Y-9679680D02*
X18080320Y-9720320D01*
X18080320Y-9679680D02*
X18039680Y-9720320D01*
X18039680Y-9939680D02*
X18080320Y-9980320D01*
X18080320Y-9939680D02*
X18039680Y-9980320D01*
X18089680Y-8993680D02*
X18130320Y-9034320D01*
X18130320Y-8993680D02*
X18089680Y-9034320D01*
X9602500Y-7242500D02*
G75*
G03X9602500Y-7242500I-32500J0D01*
G01*
X9560000Y-7265000D02*
X9580000Y-7265000D01*
X9560000Y-7220000D02*
X9580000Y-7220000D01*
X9580000Y-7265000D02*
G75*
G03X9580000Y-7220000I0J22500D01*
G01*
X9560000Y-7220000D02*
G75*
G03X9560000Y-7265000I0J-22500D01*
G01*
X9602500Y-7727500D02*
G75*
G03X9602500Y-7727500I-32500J0D01*
G01*
X9560000Y-7750000D02*
X9580000Y-7750000D01*
X9560000Y-7705000D02*
X9580000Y-7705000D01*
X9580000Y-7750000D02*
G75*
G03X9580000Y-7705000I0J22500D01*
G01*
X9560000Y-7705000D02*
G75*
G03X9560000Y-7750000I0J-22500D01*
G01*
X9270000Y-7088125D02*
X9270000Y-7170625D01*
X9228750Y-7129375D02*
X9311250Y-7129375D01*
X9236250Y-7160625D02*
X9303750Y-7160625D01*
X9236250Y-7098125D02*
X9303750Y-7098125D01*
X9303750Y-7160625D02*
G75*
G03X9303750Y-7098125I0J31250D01*
G01*
X9236250Y-7098125D02*
G75*
G03X9236250Y-7160625I0J-31250D01*
G01*
X9270000Y-7799375D02*
X9270000Y-7881875D01*
X9228750Y-7840625D02*
X9311250Y-7840625D01*
X9236250Y-7871875D02*
X9303750Y-7871875D01*
X9236250Y-7809375D02*
X9303750Y-7809375D01*
X9303750Y-7871875D02*
G75*
G03X9303750Y-7809375I0J31250D01*
G01*
X9236250Y-7809375D02*
G75*
G03X9236250Y-7871875I0J-31250D01*
G01*
X11617356Y-9469356D02*
X11617356Y-9398644D01*
X11546644Y-9398644D01*
X11546644Y-9469356D01*
X11617356Y-9469356D01*
X11871356Y-9469356D02*
X11871356Y-9398644D01*
X11800644Y-9398644D01*
X11800644Y-9469356D01*
X11871356Y-9469356D01*
X11923356Y-11144356D02*
X11923356Y-11073644D01*
X11852644Y-11073644D01*
X11852644Y-11144356D01*
X11923356Y-11144356D01*
X12125356Y-9469356D02*
X12125356Y-9398644D01*
X12054644Y-9398644D01*
X12054644Y-9469356D01*
X12125356Y-9469356D01*
X12177356Y-11144356D02*
X12177356Y-11073644D01*
X12106644Y-11073644D01*
X12106644Y-11144356D01*
X12177356Y-11144356D01*
X12379356Y-9469356D02*
X12379356Y-9398644D01*
X12308644Y-9398644D01*
X12308644Y-9469356D01*
X12379356Y-9469356D01*
X12431356Y-11144356D02*
X12431356Y-11073644D01*
X12360644Y-11073644D01*
X12360644Y-11144356D01*
X12431356Y-11144356D01*
X12552356Y-7730356D02*
X12552356Y-7659644D01*
X12481644Y-7659644D01*
X12481644Y-7730356D01*
X12552356Y-7730356D01*
X12552356Y-7984356D02*
X12552356Y-7913644D01*
X12481644Y-7913644D01*
X12481644Y-7984356D01*
X12552356Y-7984356D01*
X12552356Y-8238356D02*
X12552356Y-8167644D01*
X12481644Y-8167644D01*
X12481644Y-8238356D01*
X12552356Y-8238356D01*
X12552356Y-8492356D02*
X12552356Y-8421644D01*
X12481644Y-8421644D01*
X12481644Y-8492356D01*
X12552356Y-8492356D01*
X12552356Y-8746356D02*
X12552356Y-8675644D01*
X12481644Y-8675644D01*
X12481644Y-8746356D01*
X12552356Y-8746356D01*
X12552356Y-9000356D02*
X12552356Y-8929644D01*
X12481644Y-8929644D01*
X12481644Y-9000356D01*
X12552356Y-9000356D01*
X12633356Y-9469356D02*
X12633356Y-9398644D01*
X12562644Y-9398644D01*
X12562644Y-9469356D01*
X12633356Y-9469356D01*
X12685356Y-11144356D02*
X12685356Y-11073644D01*
X12614644Y-11073644D01*
X12614644Y-11144356D01*
X12685356Y-11144356D01*
X12887356Y-9469356D02*
X12887356Y-9398644D01*
X12816644Y-9398644D01*
X12816644Y-9469356D01*
X12887356Y-9469356D01*
X12938356Y-6314356D02*
X12938356Y-6243644D01*
X12867644Y-6243644D01*
X12867644Y-6314356D01*
X12938356Y-6314356D01*
X12939356Y-11144356D02*
X12939356Y-11073644D01*
X12868644Y-11073644D01*
X12868644Y-11144356D01*
X12939356Y-11144356D01*
X13192356Y-6314356D02*
X13192356Y-6243644D01*
X13121644Y-6243644D01*
X13121644Y-6314356D01*
X13192356Y-6314356D01*
X13193356Y-11144356D02*
X13193356Y-11073644D01*
X13122644Y-11073644D01*
X13122644Y-11144356D01*
X13193356Y-11144356D01*
X13446356Y-6314356D02*
X13446356Y-6243644D01*
X13375644Y-6243644D01*
X13375644Y-6314356D01*
X13446356Y-6314356D01*
X13447356Y-11144356D02*
X13447356Y-11073644D01*
X13376644Y-11073644D01*
X13376644Y-11144356D01*
X13447356Y-11144356D01*
X13700356Y-6314356D02*
X13700356Y-6243644D01*
X13629644Y-6243644D01*
X13629644Y-6314356D01*
X13700356Y-6314356D01*
X13955356Y-11139356D02*
X13955356Y-11068644D01*
X13884644Y-11068644D01*
X13884644Y-11139356D01*
X13955356Y-11139356D01*
X14209356Y-6313356D02*
X14209356Y-6242644D01*
X14138644Y-6242644D01*
X14138644Y-6313356D01*
X14209356Y-6313356D01*
X14209356Y-11139356D02*
X14209356Y-11068644D01*
X14138644Y-11068644D01*
X14138644Y-11139356D01*
X14209356Y-11139356D01*
X14463356Y-6313356D02*
X14463356Y-6242644D01*
X14392644Y-6242644D01*
X14392644Y-6313356D01*
X14463356Y-6313356D01*
X14463356Y-11139356D02*
X14463356Y-11068644D01*
X14392644Y-11068644D01*
X14392644Y-11139356D01*
X14463356Y-11139356D01*
X14717356Y-6313356D02*
X14717356Y-6242644D01*
X14646644Y-6242644D01*
X14646644Y-6313356D01*
X14717356Y-6313356D01*
X14717356Y-11139356D02*
X14717356Y-11068644D01*
X14646644Y-11068644D01*
X14646644Y-11139356D01*
X14717356Y-11139356D01*
X14971356Y-6313356D02*
X14971356Y-6242644D01*
X14900644Y-6242644D01*
X14900644Y-6313356D01*
X14971356Y-6313356D01*
X14971356Y-11139356D02*
X14971356Y-11068644D01*
X14900644Y-11068644D01*
X14900644Y-11139356D01*
X14971356Y-11139356D01*
X15225356Y-11139356D02*
X15225356Y-11068644D01*
X15154644Y-11068644D01*
X15154644Y-11139356D01*
X15225356Y-11139356D01*
X15479356Y-6312356D02*
X15479356Y-6241644D01*
X15408644Y-6241644D01*
X15408644Y-6312356D01*
X15479356Y-6312356D01*
X15479356Y-11139356D02*
X15479356Y-11068644D01*
X15408644Y-11068644D01*
X15408644Y-11139356D01*
X15479356Y-11139356D01*
X15733356Y-6312356D02*
X15733356Y-6241644D01*
X15662644Y-6241644D01*
X15662644Y-6312356D01*
X15733356Y-6312356D01*
X15733356Y-11139356D02*
X15733356Y-11068644D01*
X15662644Y-11068644D01*
X15662644Y-11139356D01*
X15733356Y-11139356D01*
X15987356Y-6312356D02*
X15987356Y-6241644D01*
X15916644Y-6241644D01*
X15916644Y-6312356D01*
X15987356Y-6312356D01*
X15987356Y-11139356D02*
X15987356Y-11068644D01*
X15916644Y-11068644D01*
X15916644Y-11139356D01*
X15987356Y-11139356D01*
X16241356Y-6312356D02*
X16241356Y-6241644D01*
X16170644Y-6241644D01*
X16170644Y-6312356D01*
X16241356Y-6312356D01*
X16241356Y-11139356D02*
X16241356Y-11068644D01*
X16170644Y-11068644D01*
X16170644Y-11139356D01*
X16241356Y-11139356D01*
X16495356Y-6312356D02*
X16495356Y-6241644D01*
X16424644Y-6241644D01*
X16424644Y-6312356D01*
X16495356Y-6312356D01*
X16495356Y-11139356D02*
X16495356Y-11068644D01*
X16424644Y-11068644D01*
X16424644Y-11139356D01*
X16495356Y-11139356D01*
X16749356Y-6312356D02*
X16749356Y-6241644D01*
X16678644Y-6241644D01*
X16678644Y-6312356D01*
X16749356Y-6312356D01*
X16749356Y-11139356D02*
X16749356Y-11068644D01*
X16678644Y-11068644D01*
X16678644Y-11139356D01*
X16749356Y-11139356D01*
X17003356Y-6312356D02*
X17003356Y-6241644D01*
X16932644Y-6241644D01*
X16932644Y-6312356D01*
X17003356Y-6312356D01*
X17257356Y-6312356D02*
X17257356Y-6241644D01*
X17186644Y-6241644D01*
X17186644Y-6312356D01*
X17257356Y-6312356D01*
X17257356Y-11139356D02*
X17257356Y-11068644D01*
X17186644Y-11068644D01*
X17186644Y-11139356D01*
X17257356Y-11139356D01*
X17511356Y-11139356D02*
X17511356Y-11068644D01*
X17440644Y-11068644D01*
X17440644Y-11139356D01*
X17511356Y-11139356D01*
X17765356Y-11139356D02*
X17765356Y-11068644D01*
X17694644Y-11068644D01*
X17694644Y-11139356D01*
X17765356Y-11139356D01*
X18019356Y-11139356D02*
X18019356Y-11068644D01*
X17948644Y-11068644D01*
X17948644Y-11139356D01*
X18019356Y-11139356D01*
X18524356Y-7076356D02*
X18524356Y-7005644D01*
X18453644Y-7005644D01*
X18453644Y-7076356D01*
X18524356Y-7076356D01*
X18524356Y-7330356D02*
X18524356Y-7259644D01*
X18453644Y-7259644D01*
X18453644Y-7330356D01*
X18524356Y-7330356D01*
X18524356Y-7584356D02*
X18524356Y-7513644D01*
X18453644Y-7513644D01*
X18453644Y-7584356D01*
X18524356Y-7584356D01*
X18524356Y-7838356D02*
X18524356Y-7767644D01*
X18453644Y-7767644D01*
X18453644Y-7838356D01*
X18524356Y-7838356D01*
X18524356Y-8092356D02*
X18524356Y-8021644D01*
X18453644Y-8021644D01*
X18453644Y-8092356D01*
X18524356Y-8092356D01*
X18524356Y-8346356D02*
X18524356Y-8275644D01*
X18453644Y-8275644D01*
X18453644Y-8346356D01*
X18524356Y-8346356D01*
X18524356Y-8600356D02*
X18524356Y-8529644D01*
X18453644Y-8529644D01*
X18453644Y-8600356D01*
X18524356Y-8600356D01*
X18524356Y-8854356D02*
X18524356Y-8783644D01*
X18453644Y-8783644D01*
X18453644Y-8854356D01*
X18524356Y-8854356D01*
X18524356Y-9108356D02*
X18524356Y-9037644D01*
X18453644Y-9037644D01*
X18453644Y-9108356D01*
X18524356Y-9108356D01*
X18524356Y-9362356D02*
X18524356Y-9291644D01*
X18453644Y-9291644D01*
X18453644Y-9362356D01*
X18524356Y-9362356D01*
X18524356Y-9616356D02*
X18524356Y-9545644D01*
X18453644Y-9545644D01*
X18453644Y-9616356D01*
X18524356Y-9616356D01*
X18524356Y-9870356D02*
X18524356Y-9799644D01*
X18453644Y-9799644D01*
X18453644Y-9870356D01*
X18524356Y-9870356D01*
X18524356Y-10124356D02*
X18524356Y-10053644D01*
X18453644Y-10053644D01*
X18453644Y-10124356D01*
X18524356Y-10124356D01*
X18524356Y-10378356D02*
X18524356Y-10307644D01*
X18453644Y-10307644D01*
X18453644Y-10378356D01*
X18524356Y-10378356D01*
X18778356Y-7076356D02*
X18778356Y-7005644D01*
X18707644Y-7005644D01*
X18707644Y-7076356D01*
X18778356Y-7076356D01*
X18778356Y-7330356D02*
X18778356Y-7259644D01*
X18707644Y-7259644D01*
X18707644Y-7330356D01*
X18778356Y-7330356D01*
X18778356Y-7584356D02*
X18778356Y-7513644D01*
X18707644Y-7513644D01*
X18707644Y-7584356D01*
X18778356Y-7584356D01*
X18778356Y-7838356D02*
X18778356Y-7767644D01*
X18707644Y-7767644D01*
X18707644Y-7838356D01*
X18778356Y-7838356D01*
X18778356Y-8092356D02*
X18778356Y-8021644D01*
X18707644Y-8021644D01*
X18707644Y-8092356D01*
X18778356Y-8092356D01*
X18778356Y-8346356D02*
X18778356Y-8275644D01*
X18707644Y-8275644D01*
X18707644Y-8346356D01*
X18778356Y-8346356D01*
X18778356Y-8600356D02*
X18778356Y-8529644D01*
X18707644Y-8529644D01*
X18707644Y-8600356D01*
X18778356Y-8600356D01*
X18778356Y-8854356D02*
X18778356Y-8783644D01*
X18707644Y-8783644D01*
X18707644Y-8854356D01*
X18778356Y-8854356D01*
X18778356Y-9108356D02*
X18778356Y-9037644D01*
X18707644Y-9037644D01*
X18707644Y-9108356D01*
X18778356Y-9108356D01*
X18778356Y-9362356D02*
X18778356Y-9291644D01*
X18707644Y-9291644D01*
X18707644Y-9362356D01*
X18778356Y-9362356D01*
X18778356Y-9616356D02*
X18778356Y-9545644D01*
X18707644Y-9545644D01*
X18707644Y-9616356D01*
X18778356Y-9616356D01*
X18778356Y-9870356D02*
X18778356Y-9799644D01*
X18707644Y-9799644D01*
X18707644Y-9870356D01*
X18778356Y-9870356D01*
X18778356Y-10124356D02*
X18778356Y-10053644D01*
X18707644Y-10053644D01*
X18707644Y-10124356D01*
X18778356Y-10124356D01*
X18778356Y-10378356D02*
X18778356Y-10307644D01*
X18707644Y-10307644D01*
X18707644Y-10378356D01*
X18778356Y-10378356D01*
X10488000Y-11262000D02*
X10648000Y-11102000D01*
X10488000Y-10942000D01*
X10328000Y-11102000D01*
X10488000Y-11262000D01*
X10615000Y-6437000D02*
X10775000Y-6277000D01*
X10615000Y-6117000D01*
X10455000Y-6277000D01*
X10615000Y-6437000D01*
X18109000Y-6438000D02*
X18269000Y-6278000D01*
X18109000Y-6118000D01*
X17949000Y-6278000D01*
X18109000Y-6438000D01*
X18742000Y-11261000D02*
X18902000Y-11101000D01*
X18742000Y-10941000D01*
X18582000Y-11101000D01*
X18742000Y-11261000D01*
D13*
X9360429Y-11830714D02*
X9360429Y-11530714D01*
X9431857Y-11530714D01*
X9474714Y-11545000D01*
X9503286Y-11573571D01*
X9517571Y-11602143D01*
X9531857Y-11659286D01*
X9531857Y-11702143D01*
X9517571Y-11759286D01*
X9503286Y-11787857D01*
X9474714Y-11816429D01*
X9431857Y-11830714D01*
X9360429Y-11830714D01*
X9660429Y-11830714D02*
X9660429Y-11630714D01*
X9660429Y-11687857D02*
X9674714Y-11659286D01*
X9689000Y-11645000D01*
X9717571Y-11630714D01*
X9746143Y-11630714D01*
X9846143Y-11830714D02*
X9846143Y-11630714D01*
X9846143Y-11530714D02*
X9831857Y-11545000D01*
X9846143Y-11559286D01*
X9860429Y-11545000D01*
X9846143Y-11530714D01*
X9846143Y-11559286D01*
X10031857Y-11830714D02*
X10003286Y-11816429D01*
X9989000Y-11787857D01*
X9989000Y-11530714D01*
X10189000Y-11830714D02*
X10160429Y-11816429D01*
X10146143Y-11787857D01*
X10146143Y-11530714D01*
X10531857Y-11830714D02*
X10531857Y-11530714D01*
X10631857Y-11745000D01*
X10731857Y-11530714D01*
X10731857Y-11830714D01*
X11003286Y-11830714D02*
X11003286Y-11673571D01*
X10989000Y-11645000D01*
X10960429Y-11630714D01*
X10903286Y-11630714D01*
X10874714Y-11645000D01*
X11003286Y-11816429D02*
X10974714Y-11830714D01*
X10903286Y-11830714D01*
X10874714Y-11816429D01*
X10860429Y-11787857D01*
X10860429Y-11759286D01*
X10874714Y-11730714D01*
X10903286Y-11716429D01*
X10974714Y-11716429D01*
X11003286Y-11702143D01*
X11146143Y-11630714D02*
X11146143Y-11930714D01*
X11146143Y-11645000D02*
X11174714Y-11630714D01*
X11231857Y-11630714D01*
X11260428Y-11645000D01*
X11274714Y-11659286D01*
X11289000Y-11687857D01*
X11289000Y-11773571D01*
X11274714Y-11802143D01*
X11260428Y-11816429D01*
X11231857Y-11830714D01*
X11174714Y-11830714D01*
X11146143Y-11816429D01*
X11417571Y-11802143D02*
X11431857Y-11816429D01*
X11417571Y-11830714D01*
X11403286Y-11816429D01*
X11417571Y-11802143D01*
X11417571Y-11830714D01*
X11417571Y-11645000D02*
X11431857Y-11659286D01*
X11417571Y-11673571D01*
X11403286Y-11659286D01*
X11417571Y-11645000D01*
X11417571Y-11673571D01*
X9048360Y-12304680D02*
X9089000Y-12345320D01*
X9089000Y-12304680D02*
X9048360Y-12345320D01*
X9417571Y-12160714D02*
X9446143Y-12160714D01*
X9474714Y-12175000D01*
X9489000Y-12189286D01*
X9503286Y-12217857D01*
X9517571Y-12275000D01*
X9517571Y-12346429D01*
X9503286Y-12403571D01*
X9489000Y-12432143D01*
X9474714Y-12446429D01*
X9446143Y-12460714D01*
X9417571Y-12460714D01*
X9389000Y-12446429D01*
X9374714Y-12432143D01*
X9360429Y-12403571D01*
X9346143Y-12346429D01*
X9346143Y-12275000D01*
X9360429Y-12217857D01*
X9374714Y-12189286D01*
X9389000Y-12175000D01*
X9417571Y-12160714D01*
X9646143Y-12432143D02*
X9660429Y-12446429D01*
X9646143Y-12460714D01*
X9631857Y-12446429D01*
X9646143Y-12432143D01*
X9646143Y-12460714D01*
X9917571Y-12260714D02*
X9917571Y-12460714D01*
X9846143Y-12146429D02*
X9774714Y-12360714D01*
X9960428Y-12360714D01*
X10231857Y-12460714D02*
X10060429Y-12460714D01*
X10146143Y-12460714D02*
X10146143Y-12160714D01*
X10117571Y-12203571D01*
X10089000Y-12232143D01*
X10060429Y-12246429D01*
X10360429Y-12460714D02*
X10360429Y-12260714D01*
X10360429Y-12289286D02*
X10374714Y-12275000D01*
X10403286Y-12260714D01*
X10446143Y-12260714D01*
X10474714Y-12275000D01*
X10489000Y-12303571D01*
X10489000Y-12460714D01*
X10489000Y-12303571D02*
X10503286Y-12275000D01*
X10531857Y-12260714D01*
X10574714Y-12260714D01*
X10603286Y-12275000D01*
X10617571Y-12303571D01*
X10617571Y-12460714D01*
X10760429Y-12460714D02*
X10760429Y-12260714D01*
X10760429Y-12289286D02*
X10774714Y-12275000D01*
X10803286Y-12260714D01*
X10846143Y-12260714D01*
X10874714Y-12275000D01*
X10889000Y-12303571D01*
X10889000Y-12460714D01*
X10889000Y-12303571D02*
X10903286Y-12275000D01*
X10931857Y-12260714D01*
X10974714Y-12260714D01*
X11003286Y-12275000D01*
X11017571Y-12303571D01*
X11017571Y-12460714D01*
X11603286Y-12146429D02*
X11346143Y-12532143D01*
X11989000Y-12160714D02*
X12017571Y-12160714D01*
X12046143Y-12175000D01*
X12060428Y-12189286D01*
X12074714Y-12217857D01*
X12089000Y-12275000D01*
X12089000Y-12346429D01*
X12074714Y-12403571D01*
X12060428Y-12432143D01*
X12046143Y-12446429D01*
X12017571Y-12460714D01*
X11989000Y-12460714D01*
X11960428Y-12446429D01*
X11946143Y-12432143D01*
X11931857Y-12403571D01*
X11917571Y-12346429D01*
X11917571Y-12275000D01*
X11931857Y-12217857D01*
X11946143Y-12189286D01*
X11960428Y-12175000D01*
X11989000Y-12160714D01*
X12217571Y-12432143D02*
X12231857Y-12446429D01*
X12217571Y-12460714D01*
X12203286Y-12446429D01*
X12217571Y-12432143D01*
X12217571Y-12460714D01*
X12417571Y-12160714D02*
X12446143Y-12160714D01*
X12474714Y-12175000D01*
X12489000Y-12189286D01*
X12503285Y-12217857D01*
X12517571Y-12275000D01*
X12517571Y-12346429D01*
X12503285Y-12403571D01*
X12489000Y-12432143D01*
X12474714Y-12446429D01*
X12446143Y-12460714D01*
X12417571Y-12460714D01*
X12389000Y-12446429D01*
X12374714Y-12432143D01*
X12360428Y-12403571D01*
X12346143Y-12346429D01*
X12346143Y-12275000D01*
X12360428Y-12217857D01*
X12374714Y-12189286D01*
X12389000Y-12175000D01*
X12417571Y-12160714D01*
X12803285Y-12460714D02*
X12631857Y-12460714D01*
X12717571Y-12460714D02*
X12717571Y-12160714D01*
X12689000Y-12203571D01*
X12660428Y-12232143D01*
X12631857Y-12246429D01*
X13060428Y-12160714D02*
X13003285Y-12160714D01*
X12974714Y-12175000D01*
X12960428Y-12189286D01*
X12931857Y-12232143D01*
X12917571Y-12289286D01*
X12917571Y-12403571D01*
X12931857Y-12432143D01*
X12946143Y-12446429D01*
X12974714Y-12460714D01*
X13031857Y-12460714D01*
X13060428Y-12446429D01*
X13074714Y-12432143D01*
X13089000Y-12403571D01*
X13089000Y-12332143D01*
X13074714Y-12303571D01*
X13060428Y-12289286D01*
X13031857Y-12275000D01*
X12974714Y-12275000D01*
X12946143Y-12289286D01*
X12931857Y-12303571D01*
X12917571Y-12332143D01*
X13203286Y-12160714D02*
X13203286Y-12217857D01*
X13317571Y-12160714D02*
X13317571Y-12217857D01*
X13760428Y-12575000D02*
X13746143Y-12560714D01*
X13717571Y-12517857D01*
X13703285Y-12489286D01*
X13689000Y-12446429D01*
X13674714Y-12375000D01*
X13674714Y-12317857D01*
X13689000Y-12246429D01*
X13703285Y-12203571D01*
X13717571Y-12175000D01*
X13746143Y-12132143D01*
X13760428Y-12117857D01*
X14031857Y-12460714D02*
X13860428Y-12460714D01*
X13946143Y-12460714D02*
X13946143Y-12160714D01*
X13917571Y-12203571D01*
X13889000Y-12232143D01*
X13860428Y-12246429D01*
X14146143Y-12189286D02*
X14160428Y-12175000D01*
X14189000Y-12160714D01*
X14260428Y-12160714D01*
X14289000Y-12175000D01*
X14303285Y-12189286D01*
X14317571Y-12217857D01*
X14317571Y-12246429D01*
X14303285Y-12289286D01*
X14131857Y-12460714D01*
X14317571Y-12460714D01*
X14574714Y-12160714D02*
X14517571Y-12160714D01*
X14489000Y-12175000D01*
X14474714Y-12189286D01*
X14446143Y-12232143D01*
X14431857Y-12289286D01*
X14431857Y-12403571D01*
X14446143Y-12432143D01*
X14460428Y-12446429D01*
X14489000Y-12460714D01*
X14546143Y-12460714D01*
X14574714Y-12446429D01*
X14589000Y-12432143D01*
X14603285Y-12403571D01*
X14603285Y-12332143D01*
X14589000Y-12303571D01*
X14574714Y-12289286D01*
X14546143Y-12275000D01*
X14489000Y-12275000D01*
X14460428Y-12289286D01*
X14446143Y-12303571D01*
X14431857Y-12332143D01*
X14960428Y-12460714D02*
X14960428Y-12160714D01*
X15089000Y-12460714D02*
X15089000Y-12303571D01*
X15074714Y-12275000D01*
X15046143Y-12260714D01*
X15003285Y-12260714D01*
X14974714Y-12275000D01*
X14960428Y-12289286D01*
X15274714Y-12460714D02*
X15246143Y-12446429D01*
X15231857Y-12432143D01*
X15217571Y-12403571D01*
X15217571Y-12317857D01*
X15231857Y-12289286D01*
X15246143Y-12275000D01*
X15274714Y-12260714D01*
X15317571Y-12260714D01*
X15346143Y-12275000D01*
X15360428Y-12289286D01*
X15374714Y-12317857D01*
X15374714Y-12403571D01*
X15360428Y-12432143D01*
X15346143Y-12446429D01*
X15317571Y-12460714D01*
X15274714Y-12460714D01*
X15546143Y-12460714D02*
X15517571Y-12446429D01*
X15503286Y-12417857D01*
X15503286Y-12160714D01*
X15774714Y-12446429D02*
X15746143Y-12460714D01*
X15689000Y-12460714D01*
X15660428Y-12446429D01*
X15646143Y-12417857D01*
X15646143Y-12303571D01*
X15660428Y-12275000D01*
X15689000Y-12260714D01*
X15746143Y-12260714D01*
X15774714Y-12275000D01*
X15789000Y-12303571D01*
X15789000Y-12332143D01*
X15646143Y-12360714D01*
X15903286Y-12446429D02*
X15931857Y-12460714D01*
X15989000Y-12460714D01*
X16017571Y-12446429D01*
X16031857Y-12417857D01*
X16031857Y-12403571D01*
X16017571Y-12375000D01*
X15989000Y-12360714D01*
X15946143Y-12360714D01*
X15917571Y-12346429D01*
X15903286Y-12317857D01*
X15903286Y-12303571D01*
X15917571Y-12275000D01*
X15946143Y-12260714D01*
X15989000Y-12260714D01*
X16017571Y-12275000D01*
X16131857Y-12575000D02*
X16146143Y-12560714D01*
X16174714Y-12517857D01*
X16189000Y-12489286D01*
X16203286Y-12446429D01*
X16217571Y-12375000D01*
X16217571Y-12317857D01*
X16203286Y-12246429D01*
X16189000Y-12203571D01*
X16174714Y-12175000D01*
X16146143Y-12132143D01*
X16131857Y-12117857D01*
X9089000Y-12721000D02*
G75*
G03X9089000Y-12721000I-32500J0D01*
G01*
X9417571Y-12556714D02*
X9446143Y-12556714D01*
X9474714Y-12571000D01*
X9489000Y-12585286D01*
X9503286Y-12613857D01*
X9517571Y-12671000D01*
X9517571Y-12742429D01*
X9503286Y-12799571D01*
X9489000Y-12828143D01*
X9474714Y-12842429D01*
X9446143Y-12856714D01*
X9417571Y-12856714D01*
X9389000Y-12842429D01*
X9374714Y-12828143D01*
X9360429Y-12799571D01*
X9346143Y-12742429D01*
X9346143Y-12671000D01*
X9360429Y-12613857D01*
X9374714Y-12585286D01*
X9389000Y-12571000D01*
X9417571Y-12556714D01*
X9646143Y-12828143D02*
X9660429Y-12842429D01*
X9646143Y-12856714D01*
X9631857Y-12842429D01*
X9646143Y-12828143D01*
X9646143Y-12856714D01*
X9917571Y-12556714D02*
X9860428Y-12556714D01*
X9831857Y-12571000D01*
X9817571Y-12585286D01*
X9789000Y-12628143D01*
X9774714Y-12685286D01*
X9774714Y-12799571D01*
X9789000Y-12828143D01*
X9803286Y-12842429D01*
X9831857Y-12856714D01*
X9889000Y-12856714D01*
X9917571Y-12842429D01*
X9931857Y-12828143D01*
X9946143Y-12799571D01*
X9946143Y-12728143D01*
X9931857Y-12699571D01*
X9917571Y-12685286D01*
X9889000Y-12671000D01*
X9831857Y-12671000D01*
X9803286Y-12685286D01*
X9789000Y-12699571D01*
X9774714Y-12728143D01*
X10217571Y-12556714D02*
X10074714Y-12556714D01*
X10060429Y-12699571D01*
X10074714Y-12685286D01*
X10103286Y-12671000D01*
X10174714Y-12671000D01*
X10203286Y-12685286D01*
X10217571Y-12699571D01*
X10231857Y-12728143D01*
X10231857Y-12799571D01*
X10217571Y-12828143D01*
X10203286Y-12842429D01*
X10174714Y-12856714D01*
X10103286Y-12856714D01*
X10074714Y-12842429D01*
X10060429Y-12828143D01*
X10360429Y-12856714D02*
X10360429Y-12656714D01*
X10360429Y-12685286D02*
X10374714Y-12671000D01*
X10403286Y-12656714D01*
X10446143Y-12656714D01*
X10474714Y-12671000D01*
X10489000Y-12699571D01*
X10489000Y-12856714D01*
X10489000Y-12699571D02*
X10503286Y-12671000D01*
X10531857Y-12656714D01*
X10574714Y-12656714D01*
X10603286Y-12671000D01*
X10617571Y-12699571D01*
X10617571Y-12856714D01*
X10760429Y-12856714D02*
X10760429Y-12656714D01*
X10760429Y-12685286D02*
X10774714Y-12671000D01*
X10803286Y-12656714D01*
X10846143Y-12656714D01*
X10874714Y-12671000D01*
X10889000Y-12699571D01*
X10889000Y-12856714D01*
X10889000Y-12699571D02*
X10903286Y-12671000D01*
X10931857Y-12656714D01*
X10974714Y-12656714D01*
X11003286Y-12671000D01*
X11017571Y-12699571D01*
X11017571Y-12856714D01*
X11603286Y-12542429D02*
X11346143Y-12928143D01*
X11989000Y-12556714D02*
X12017571Y-12556714D01*
X12046143Y-12571000D01*
X12060428Y-12585286D01*
X12074714Y-12613857D01*
X12089000Y-12671000D01*
X12089000Y-12742429D01*
X12074714Y-12799571D01*
X12060428Y-12828143D01*
X12046143Y-12842429D01*
X12017571Y-12856714D01*
X11989000Y-12856714D01*
X11960428Y-12842429D01*
X11946143Y-12828143D01*
X11931857Y-12799571D01*
X11917571Y-12742429D01*
X11917571Y-12671000D01*
X11931857Y-12613857D01*
X11946143Y-12585286D01*
X11960428Y-12571000D01*
X11989000Y-12556714D01*
X12217571Y-12828143D02*
X12231857Y-12842429D01*
X12217571Y-12856714D01*
X12203286Y-12842429D01*
X12217571Y-12828143D01*
X12217571Y-12856714D01*
X12417571Y-12556714D02*
X12446143Y-12556714D01*
X12474714Y-12571000D01*
X12489000Y-12585286D01*
X12503285Y-12613857D01*
X12517571Y-12671000D01*
X12517571Y-12742429D01*
X12503285Y-12799571D01*
X12489000Y-12828143D01*
X12474714Y-12842429D01*
X12446143Y-12856714D01*
X12417571Y-12856714D01*
X12389000Y-12842429D01*
X12374714Y-12828143D01*
X12360428Y-12799571D01*
X12346143Y-12742429D01*
X12346143Y-12671000D01*
X12360428Y-12613857D01*
X12374714Y-12585286D01*
X12389000Y-12571000D01*
X12417571Y-12556714D01*
X12631857Y-12585286D02*
X12646143Y-12571000D01*
X12674714Y-12556714D01*
X12746143Y-12556714D01*
X12774714Y-12571000D01*
X12789000Y-12585286D01*
X12803285Y-12613857D01*
X12803285Y-12642429D01*
X12789000Y-12685286D01*
X12617571Y-12856714D01*
X12803285Y-12856714D01*
X13060428Y-12556714D02*
X13003285Y-12556714D01*
X12974714Y-12571000D01*
X12960428Y-12585286D01*
X12931857Y-12628143D01*
X12917571Y-12685286D01*
X12917571Y-12799571D01*
X12931857Y-12828143D01*
X12946143Y-12842429D01*
X12974714Y-12856714D01*
X13031857Y-12856714D01*
X13060428Y-12842429D01*
X13074714Y-12828143D01*
X13089000Y-12799571D01*
X13089000Y-12728143D01*
X13074714Y-12699571D01*
X13060428Y-12685286D01*
X13031857Y-12671000D01*
X12974714Y-12671000D01*
X12946143Y-12685286D01*
X12931857Y-12699571D01*
X12917571Y-12728143D01*
X13203286Y-12556714D02*
X13203286Y-12613857D01*
X13317571Y-12556714D02*
X13317571Y-12613857D01*
X13760428Y-12971000D02*
X13746143Y-12956714D01*
X13717571Y-12913857D01*
X13703285Y-12885286D01*
X13689000Y-12842429D01*
X13674714Y-12771000D01*
X13674714Y-12713857D01*
X13689000Y-12642429D01*
X13703285Y-12599571D01*
X13717571Y-12571000D01*
X13746143Y-12528143D01*
X13760428Y-12513857D01*
X13931857Y-12556714D02*
X13960428Y-12556714D01*
X13989000Y-12571000D01*
X14003285Y-12585286D01*
X14017571Y-12613857D01*
X14031857Y-12671000D01*
X14031857Y-12742429D01*
X14017571Y-12799571D01*
X14003285Y-12828143D01*
X13989000Y-12842429D01*
X13960428Y-12856714D01*
X13931857Y-12856714D01*
X13903285Y-12842429D01*
X13889000Y-12828143D01*
X13874714Y-12799571D01*
X13860428Y-12742429D01*
X13860428Y-12671000D01*
X13874714Y-12613857D01*
X13889000Y-12585286D01*
X13903285Y-12571000D01*
X13931857Y-12556714D01*
X14389000Y-12856714D02*
X14389000Y-12556714D01*
X14517571Y-12856714D02*
X14517571Y-12699571D01*
X14503285Y-12671000D01*
X14474714Y-12656714D01*
X14431857Y-12656714D01*
X14403285Y-12671000D01*
X14389000Y-12685286D01*
X14703285Y-12856714D02*
X14674714Y-12842429D01*
X14660428Y-12828143D01*
X14646143Y-12799571D01*
X14646143Y-12713857D01*
X14660428Y-12685286D01*
X14674714Y-12671000D01*
X14703285Y-12656714D01*
X14746143Y-12656714D01*
X14774714Y-12671000D01*
X14789000Y-12685286D01*
X14803285Y-12713857D01*
X14803285Y-12799571D01*
X14789000Y-12828143D01*
X14774714Y-12842429D01*
X14746143Y-12856714D01*
X14703285Y-12856714D01*
X14974714Y-12856714D02*
X14946143Y-12842429D01*
X14931857Y-12813857D01*
X14931857Y-12556714D01*
X15203286Y-12842429D02*
X15174714Y-12856714D01*
X15117571Y-12856714D01*
X15089000Y-12842429D01*
X15074714Y-12813857D01*
X15074714Y-12699571D01*
X15089000Y-12671000D01*
X15117571Y-12656714D01*
X15174714Y-12656714D01*
X15203286Y-12671000D01*
X15217571Y-12699571D01*
X15217571Y-12728143D01*
X15074714Y-12756714D01*
X15331857Y-12842429D02*
X15360428Y-12856714D01*
X15417571Y-12856714D01*
X15446143Y-12842429D01*
X15460428Y-12813857D01*
X15460428Y-12799571D01*
X15446143Y-12771000D01*
X15417571Y-12756714D01*
X15374714Y-12756714D01*
X15346143Y-12742429D01*
X15331857Y-12713857D01*
X15331857Y-12699571D01*
X15346143Y-12671000D01*
X15374714Y-12656714D01*
X15417571Y-12656714D01*
X15446143Y-12671000D01*
X15817571Y-12742429D02*
X16046143Y-12742429D01*
X15931857Y-12856714D02*
X15931857Y-12628143D01*
X16403286Y-12585286D02*
X16417571Y-12571000D01*
X16446143Y-12556714D01*
X16517571Y-12556714D01*
X16546143Y-12571000D01*
X16560428Y-12585286D01*
X16574714Y-12613857D01*
X16574714Y-12642429D01*
X16560428Y-12685286D01*
X16389000Y-12856714D01*
X16574714Y-12856714D01*
X16917571Y-12842429D02*
X16946143Y-12856714D01*
X17003286Y-12856714D01*
X17031857Y-12842429D01*
X17046143Y-12813857D01*
X17046143Y-12799571D01*
X17031857Y-12771000D01*
X17003286Y-12756714D01*
X16960428Y-12756714D01*
X16931857Y-12742429D01*
X16917571Y-12713857D01*
X16917571Y-12699571D01*
X16931857Y-12671000D01*
X16960428Y-12656714D01*
X17003286Y-12656714D01*
X17031857Y-12671000D01*
X17217571Y-12856714D02*
X17189000Y-12842429D01*
X17174714Y-12813857D01*
X17174714Y-12556714D01*
X17374714Y-12856714D02*
X17346143Y-12842429D01*
X17331857Y-12828143D01*
X17317571Y-12799571D01*
X17317571Y-12713857D01*
X17331857Y-12685286D01*
X17346143Y-12671000D01*
X17374714Y-12656714D01*
X17417571Y-12656714D01*
X17446143Y-12671000D01*
X17460428Y-12685286D01*
X17474714Y-12713857D01*
X17474714Y-12799571D01*
X17460428Y-12828143D01*
X17446143Y-12842429D01*
X17417571Y-12856714D01*
X17374714Y-12856714D01*
X17560428Y-12656714D02*
X17674714Y-12656714D01*
X17603286Y-12556714D02*
X17603286Y-12813857D01*
X17617571Y-12842429D01*
X17646143Y-12856714D01*
X17674714Y-12856714D01*
X17760429Y-12842429D02*
X17789000Y-12856714D01*
X17846143Y-12856714D01*
X17874714Y-12842429D01*
X17889000Y-12813857D01*
X17889000Y-12799571D01*
X17874714Y-12771000D01*
X17846143Y-12756714D01*
X17803286Y-12756714D01*
X17774714Y-12742429D01*
X17760429Y-12713857D01*
X17760429Y-12699571D01*
X17774714Y-12671000D01*
X17803286Y-12656714D01*
X17846143Y-12656714D01*
X17874714Y-12671000D01*
X17989000Y-12971000D02*
X18003286Y-12956714D01*
X18031857Y-12913857D01*
X18046143Y-12885286D01*
X18060428Y-12842429D01*
X18074714Y-12771000D01*
X18074714Y-12713857D01*
X18060428Y-12642429D01*
X18046143Y-12599571D01*
X18031857Y-12571000D01*
X18003286Y-12528143D01*
X17989000Y-12513857D01*
X9047750Y-13075750D02*
X9047750Y-13158250D01*
X9006500Y-13117000D02*
X9089000Y-13117000D01*
X9417571Y-12952714D02*
X9446143Y-12952714D01*
X9474714Y-12967000D01*
X9489000Y-12981286D01*
X9503286Y-13009857D01*
X9517571Y-13067000D01*
X9517571Y-13138429D01*
X9503286Y-13195571D01*
X9489000Y-13224143D01*
X9474714Y-13238429D01*
X9446143Y-13252714D01*
X9417571Y-13252714D01*
X9389000Y-13238429D01*
X9374714Y-13224143D01*
X9360429Y-13195571D01*
X9346143Y-13138429D01*
X9346143Y-13067000D01*
X9360429Y-13009857D01*
X9374714Y-12981286D01*
X9389000Y-12967000D01*
X9417571Y-12952714D01*
X9646143Y-13224143D02*
X9660429Y-13238429D01*
X9646143Y-13252714D01*
X9631857Y-13238429D01*
X9646143Y-13224143D01*
X9646143Y-13252714D01*
X9831857Y-13081286D02*
X9803286Y-13067000D01*
X9789000Y-13052714D01*
X9774714Y-13024143D01*
X9774714Y-13009857D01*
X9789000Y-12981286D01*
X9803286Y-12967000D01*
X9831857Y-12952714D01*
X9889000Y-12952714D01*
X9917571Y-12967000D01*
X9931857Y-12981286D01*
X9946143Y-13009857D01*
X9946143Y-13024143D01*
X9931857Y-13052714D01*
X9917571Y-13067000D01*
X9889000Y-13081286D01*
X9831857Y-13081286D01*
X9803286Y-13095571D01*
X9789000Y-13109857D01*
X9774714Y-13138429D01*
X9774714Y-13195571D01*
X9789000Y-13224143D01*
X9803286Y-13238429D01*
X9831857Y-13252714D01*
X9889000Y-13252714D01*
X9917571Y-13238429D01*
X9931857Y-13224143D01*
X9946143Y-13195571D01*
X9946143Y-13138429D01*
X9931857Y-13109857D01*
X9917571Y-13095571D01*
X9889000Y-13081286D01*
X10060429Y-12981286D02*
X10074714Y-12967000D01*
X10103286Y-12952714D01*
X10174714Y-12952714D01*
X10203286Y-12967000D01*
X10217571Y-12981286D01*
X10231857Y-13009857D01*
X10231857Y-13038429D01*
X10217571Y-13081286D01*
X10046143Y-13252714D01*
X10231857Y-13252714D01*
X10360429Y-13252714D02*
X10360429Y-13052714D01*
X10360429Y-13081286D02*
X10374714Y-13067000D01*
X10403286Y-13052714D01*
X10446143Y-13052714D01*
X10474714Y-13067000D01*
X10489000Y-13095571D01*
X10489000Y-13252714D01*
X10489000Y-13095571D02*
X10503286Y-13067000D01*
X10531857Y-13052714D01*
X10574714Y-13052714D01*
X10603286Y-13067000D01*
X10617571Y-13095571D01*
X10617571Y-13252714D01*
X10760429Y-13252714D02*
X10760429Y-13052714D01*
X10760429Y-13081286D02*
X10774714Y-13067000D01*
X10803286Y-13052714D01*
X10846143Y-13052714D01*
X10874714Y-13067000D01*
X10889000Y-13095571D01*
X10889000Y-13252714D01*
X10889000Y-13095571D02*
X10903286Y-13067000D01*
X10931857Y-13052714D01*
X10974714Y-13052714D01*
X11003286Y-13067000D01*
X11017571Y-13095571D01*
X11017571Y-13252714D01*
X11603286Y-12938429D02*
X11346143Y-13324143D01*
X11989000Y-12952714D02*
X12017571Y-12952714D01*
X12046143Y-12967000D01*
X12060428Y-12981286D01*
X12074714Y-13009857D01*
X12089000Y-13067000D01*
X12089000Y-13138429D01*
X12074714Y-13195571D01*
X12060428Y-13224143D01*
X12046143Y-13238429D01*
X12017571Y-13252714D01*
X11989000Y-13252714D01*
X11960428Y-13238429D01*
X11946143Y-13224143D01*
X11931857Y-13195571D01*
X11917571Y-13138429D01*
X11917571Y-13067000D01*
X11931857Y-13009857D01*
X11946143Y-12981286D01*
X11960428Y-12967000D01*
X11989000Y-12952714D01*
X12217571Y-13224143D02*
X12231857Y-13238429D01*
X12217571Y-13252714D01*
X12203286Y-13238429D01*
X12217571Y-13224143D01*
X12217571Y-13252714D01*
X12417571Y-12952714D02*
X12446143Y-12952714D01*
X12474714Y-12967000D01*
X12489000Y-12981286D01*
X12503285Y-13009857D01*
X12517571Y-13067000D01*
X12517571Y-13138429D01*
X12503285Y-13195571D01*
X12489000Y-13224143D01*
X12474714Y-13238429D01*
X12446143Y-13252714D01*
X12417571Y-13252714D01*
X12389000Y-13238429D01*
X12374714Y-13224143D01*
X12360428Y-13195571D01*
X12346143Y-13138429D01*
X12346143Y-13067000D01*
X12360428Y-13009857D01*
X12374714Y-12981286D01*
X12389000Y-12967000D01*
X12417571Y-12952714D01*
X12617571Y-12952714D02*
X12803285Y-12952714D01*
X12703285Y-13067000D01*
X12746143Y-13067000D01*
X12774714Y-13081286D01*
X12789000Y-13095571D01*
X12803285Y-13124143D01*
X12803285Y-13195571D01*
X12789000Y-13224143D01*
X12774714Y-13238429D01*
X12746143Y-13252714D01*
X12660428Y-13252714D01*
X12631857Y-13238429D01*
X12617571Y-13224143D01*
X12917571Y-12981286D02*
X12931857Y-12967000D01*
X12960428Y-12952714D01*
X13031857Y-12952714D01*
X13060428Y-12967000D01*
X13074714Y-12981286D01*
X13089000Y-13009857D01*
X13089000Y-13038429D01*
X13074714Y-13081286D01*
X12903285Y-13252714D01*
X13089000Y-13252714D01*
X13203286Y-12952714D02*
X13203286Y-13009857D01*
X13317571Y-12952714D02*
X13317571Y-13009857D01*
X13760428Y-13367000D02*
X13746143Y-13352714D01*
X13717571Y-13309857D01*
X13703285Y-13281286D01*
X13689000Y-13238429D01*
X13674714Y-13167000D01*
X13674714Y-13109857D01*
X13689000Y-13038429D01*
X13703285Y-12995571D01*
X13717571Y-12967000D01*
X13746143Y-12924143D01*
X13760428Y-12909857D01*
X13931857Y-12952714D02*
X13960428Y-12952714D01*
X13989000Y-12967000D01*
X14003285Y-12981286D01*
X14017571Y-13009857D01*
X14031857Y-13067000D01*
X14031857Y-13138429D01*
X14017571Y-13195571D01*
X14003285Y-13224143D01*
X13989000Y-13238429D01*
X13960428Y-13252714D01*
X13931857Y-13252714D01*
X13903285Y-13238429D01*
X13889000Y-13224143D01*
X13874714Y-13195571D01*
X13860428Y-13138429D01*
X13860428Y-13067000D01*
X13874714Y-13009857D01*
X13889000Y-12981286D01*
X13903285Y-12967000D01*
X13931857Y-12952714D01*
X14389000Y-13252714D02*
X14389000Y-12952714D01*
X14517571Y-13252714D02*
X14517571Y-13095571D01*
X14503285Y-13067000D01*
X14474714Y-13052714D01*
X14431857Y-13052714D01*
X14403285Y-13067000D01*
X14389000Y-13081286D01*
X14703285Y-13252714D02*
X14674714Y-13238429D01*
X14660428Y-13224143D01*
X14646143Y-13195571D01*
X14646143Y-13109857D01*
X14660428Y-13081286D01*
X14674714Y-13067000D01*
X14703285Y-13052714D01*
X14746143Y-13052714D01*
X14774714Y-13067000D01*
X14789000Y-13081286D01*
X14803285Y-13109857D01*
X14803285Y-13195571D01*
X14789000Y-13224143D01*
X14774714Y-13238429D01*
X14746143Y-13252714D01*
X14703285Y-13252714D01*
X14974714Y-13252714D02*
X14946143Y-13238429D01*
X14931857Y-13209857D01*
X14931857Y-12952714D01*
X15203286Y-13238429D02*
X15174714Y-13252714D01*
X15117571Y-13252714D01*
X15089000Y-13238429D01*
X15074714Y-13209857D01*
X15074714Y-13095571D01*
X15089000Y-13067000D01*
X15117571Y-13052714D01*
X15174714Y-13052714D01*
X15203286Y-13067000D01*
X15217571Y-13095571D01*
X15217571Y-13124143D01*
X15074714Y-13152714D01*
X15331857Y-13238429D02*
X15360428Y-13252714D01*
X15417571Y-13252714D01*
X15446143Y-13238429D01*
X15460428Y-13209857D01*
X15460428Y-13195571D01*
X15446143Y-13167000D01*
X15417571Y-13152714D01*
X15374714Y-13152714D01*
X15346143Y-13138429D01*
X15331857Y-13109857D01*
X15331857Y-13095571D01*
X15346143Y-13067000D01*
X15374714Y-13052714D01*
X15417571Y-13052714D01*
X15446143Y-13067000D01*
X15817571Y-13138429D02*
X16046143Y-13138429D01*
X15931857Y-13252714D02*
X15931857Y-13024143D01*
X16403286Y-12981286D02*
X16417571Y-12967000D01*
X16446143Y-12952714D01*
X16517571Y-12952714D01*
X16546143Y-12967000D01*
X16560428Y-12981286D01*
X16574714Y-13009857D01*
X16574714Y-13038429D01*
X16560428Y-13081286D01*
X16389000Y-13252714D01*
X16574714Y-13252714D01*
X16917571Y-13238429D02*
X16946143Y-13252714D01*
X17003286Y-13252714D01*
X17031857Y-13238429D01*
X17046143Y-13209857D01*
X17046143Y-13195571D01*
X17031857Y-13167000D01*
X17003286Y-13152714D01*
X16960428Y-13152714D01*
X16931857Y-13138429D01*
X16917571Y-13109857D01*
X16917571Y-13095571D01*
X16931857Y-13067000D01*
X16960428Y-13052714D01*
X17003286Y-13052714D01*
X17031857Y-13067000D01*
X17217571Y-13252714D02*
X17189000Y-13238429D01*
X17174714Y-13209857D01*
X17174714Y-12952714D01*
X17374714Y-13252714D02*
X17346143Y-13238429D01*
X17331857Y-13224143D01*
X17317571Y-13195571D01*
X17317571Y-13109857D01*
X17331857Y-13081286D01*
X17346143Y-13067000D01*
X17374714Y-13052714D01*
X17417571Y-13052714D01*
X17446143Y-13067000D01*
X17460428Y-13081286D01*
X17474714Y-13109857D01*
X17474714Y-13195571D01*
X17460428Y-13224143D01*
X17446143Y-13238429D01*
X17417571Y-13252714D01*
X17374714Y-13252714D01*
X17560428Y-13052714D02*
X17674714Y-13052714D01*
X17603286Y-12952714D02*
X17603286Y-13209857D01*
X17617571Y-13238429D01*
X17646143Y-13252714D01*
X17674714Y-13252714D01*
X17760429Y-13238429D02*
X17789000Y-13252714D01*
X17846143Y-13252714D01*
X17874714Y-13238429D01*
X17889000Y-13209857D01*
X17889000Y-13195571D01*
X17874714Y-13167000D01*
X17846143Y-13152714D01*
X17803286Y-13152714D01*
X17774714Y-13138429D01*
X17760429Y-13109857D01*
X17760429Y-13095571D01*
X17774714Y-13067000D01*
X17803286Y-13052714D01*
X17846143Y-13052714D01*
X17874714Y-13067000D01*
X17989000Y-13367000D02*
X18003286Y-13352714D01*
X18031857Y-13309857D01*
X18046143Y-13281286D01*
X18060428Y-13238429D01*
X18074714Y-13167000D01*
X18074714Y-13109857D01*
X18060428Y-13038429D01*
X18046143Y-12995571D01*
X18031857Y-12967000D01*
X18003286Y-12924143D01*
X17989000Y-12909857D01*
X9074356Y-13548356D02*
X9074356Y-13477644D01*
X9003644Y-13477644D01*
X9003644Y-13548356D01*
X9074356Y-13548356D01*
X9517571Y-13648714D02*
X9346143Y-13648714D01*
X9431857Y-13648714D02*
X9431857Y-13348714D01*
X9403286Y-13391571D01*
X9374714Y-13420143D01*
X9346143Y-13434429D01*
X9646143Y-13620143D02*
X9660429Y-13634429D01*
X9646143Y-13648714D01*
X9631857Y-13634429D01*
X9646143Y-13620143D01*
X9646143Y-13648714D01*
X9846143Y-13348714D02*
X9874714Y-13348714D01*
X9903286Y-13363000D01*
X9917571Y-13377286D01*
X9931857Y-13405857D01*
X9946143Y-13463000D01*
X9946143Y-13534429D01*
X9931857Y-13591571D01*
X9917571Y-13620143D01*
X9903286Y-13634429D01*
X9874714Y-13648714D01*
X9846143Y-13648714D01*
X9817571Y-13634429D01*
X9803286Y-13620143D01*
X9789000Y-13591571D01*
X9774714Y-13534429D01*
X9774714Y-13463000D01*
X9789000Y-13405857D01*
X9803286Y-13377286D01*
X9817571Y-13363000D01*
X9846143Y-13348714D01*
X10131857Y-13348714D02*
X10160429Y-13348714D01*
X10189000Y-13363000D01*
X10203286Y-13377286D01*
X10217571Y-13405857D01*
X10231857Y-13463000D01*
X10231857Y-13534429D01*
X10217571Y-13591571D01*
X10203286Y-13620143D01*
X10189000Y-13634429D01*
X10160429Y-13648714D01*
X10131857Y-13648714D01*
X10103286Y-13634429D01*
X10089000Y-13620143D01*
X10074714Y-13591571D01*
X10060429Y-13534429D01*
X10060429Y-13463000D01*
X10074714Y-13405857D01*
X10089000Y-13377286D01*
X10103286Y-13363000D01*
X10131857Y-13348714D01*
X10360429Y-13648714D02*
X10360429Y-13448714D01*
X10360429Y-13477286D02*
X10374714Y-13463000D01*
X10403286Y-13448714D01*
X10446143Y-13448714D01*
X10474714Y-13463000D01*
X10489000Y-13491571D01*
X10489000Y-13648714D01*
X10489000Y-13491571D02*
X10503286Y-13463000D01*
X10531857Y-13448714D01*
X10574714Y-13448714D01*
X10603286Y-13463000D01*
X10617571Y-13491571D01*
X10617571Y-13648714D01*
X10760429Y-13648714D02*
X10760429Y-13448714D01*
X10760429Y-13477286D02*
X10774714Y-13463000D01*
X10803286Y-13448714D01*
X10846143Y-13448714D01*
X10874714Y-13463000D01*
X10889000Y-13491571D01*
X10889000Y-13648714D01*
X10889000Y-13491571D02*
X10903286Y-13463000D01*
X10931857Y-13448714D01*
X10974714Y-13448714D01*
X11003286Y-13463000D01*
X11017571Y-13491571D01*
X11017571Y-13648714D01*
X11603286Y-13334429D02*
X11346143Y-13720143D01*
X11989000Y-13348714D02*
X12017571Y-13348714D01*
X12046143Y-13363000D01*
X12060428Y-13377286D01*
X12074714Y-13405857D01*
X12089000Y-13463000D01*
X12089000Y-13534429D01*
X12074714Y-13591571D01*
X12060428Y-13620143D01*
X12046143Y-13634429D01*
X12017571Y-13648714D01*
X11989000Y-13648714D01*
X11960428Y-13634429D01*
X11946143Y-13620143D01*
X11931857Y-13591571D01*
X11917571Y-13534429D01*
X11917571Y-13463000D01*
X11931857Y-13405857D01*
X11946143Y-13377286D01*
X11960428Y-13363000D01*
X11989000Y-13348714D01*
X12217571Y-13620143D02*
X12231857Y-13634429D01*
X12217571Y-13648714D01*
X12203286Y-13634429D01*
X12217571Y-13620143D01*
X12217571Y-13648714D01*
X12417571Y-13348714D02*
X12446143Y-13348714D01*
X12474714Y-13363000D01*
X12489000Y-13377286D01*
X12503285Y-13405857D01*
X12517571Y-13463000D01*
X12517571Y-13534429D01*
X12503285Y-13591571D01*
X12489000Y-13620143D01*
X12474714Y-13634429D01*
X12446143Y-13648714D01*
X12417571Y-13648714D01*
X12389000Y-13634429D01*
X12374714Y-13620143D01*
X12360428Y-13591571D01*
X12346143Y-13534429D01*
X12346143Y-13463000D01*
X12360428Y-13405857D01*
X12374714Y-13377286D01*
X12389000Y-13363000D01*
X12417571Y-13348714D01*
X12617571Y-13348714D02*
X12803285Y-13348714D01*
X12703285Y-13463000D01*
X12746143Y-13463000D01*
X12774714Y-13477286D01*
X12789000Y-13491571D01*
X12803285Y-13520143D01*
X12803285Y-13591571D01*
X12789000Y-13620143D01*
X12774714Y-13634429D01*
X12746143Y-13648714D01*
X12660428Y-13648714D01*
X12631857Y-13634429D01*
X12617571Y-13620143D01*
X12946143Y-13648714D02*
X13003285Y-13648714D01*
X13031857Y-13634429D01*
X13046143Y-13620143D01*
X13074714Y-13577286D01*
X13089000Y-13520143D01*
X13089000Y-13405857D01*
X13074714Y-13377286D01*
X13060428Y-13363000D01*
X13031857Y-13348714D01*
X12974714Y-13348714D01*
X12946143Y-13363000D01*
X12931857Y-13377286D01*
X12917571Y-13405857D01*
X12917571Y-13477286D01*
X12931857Y-13505857D01*
X12946143Y-13520143D01*
X12974714Y-13534429D01*
X13031857Y-13534429D01*
X13060428Y-13520143D01*
X13074714Y-13505857D01*
X13089000Y-13477286D01*
X13203286Y-13348714D02*
X13203286Y-13405857D01*
X13317571Y-13348714D02*
X13317571Y-13405857D01*
X13760428Y-13763000D02*
X13746143Y-13748714D01*
X13717571Y-13705857D01*
X13703285Y-13677286D01*
X13689000Y-13634429D01*
X13674714Y-13563000D01*
X13674714Y-13505857D01*
X13689000Y-13434429D01*
X13703285Y-13391571D01*
X13717571Y-13363000D01*
X13746143Y-13320143D01*
X13760428Y-13305857D01*
X13846143Y-13348714D02*
X14046143Y-13348714D01*
X13917571Y-13648714D01*
X14174714Y-13648714D02*
X14231857Y-13648714D01*
X14260428Y-13634429D01*
X14274714Y-13620143D01*
X14303285Y-13577286D01*
X14317571Y-13520143D01*
X14317571Y-13405857D01*
X14303285Y-13377286D01*
X14289000Y-13363000D01*
X14260428Y-13348714D01*
X14203285Y-13348714D01*
X14174714Y-13363000D01*
X14160428Y-13377286D01*
X14146143Y-13405857D01*
X14146143Y-13477286D01*
X14160428Y-13505857D01*
X14174714Y-13520143D01*
X14203285Y-13534429D01*
X14260428Y-13534429D01*
X14289000Y-13520143D01*
X14303285Y-13505857D01*
X14317571Y-13477286D01*
X14674714Y-13648714D02*
X14674714Y-13348714D01*
X14803285Y-13648714D02*
X14803285Y-13491571D01*
X14789000Y-13463000D01*
X14760428Y-13448714D01*
X14717571Y-13448714D01*
X14689000Y-13463000D01*
X14674714Y-13477286D01*
X14989000Y-13648714D02*
X14960428Y-13634429D01*
X14946143Y-13620143D01*
X14931857Y-13591571D01*
X14931857Y-13505857D01*
X14946143Y-13477286D01*
X14960428Y-13463000D01*
X14989000Y-13448714D01*
X15031857Y-13448714D01*
X15060428Y-13463000D01*
X15074714Y-13477286D01*
X15089000Y-13505857D01*
X15089000Y-13591571D01*
X15074714Y-13620143D01*
X15060428Y-13634429D01*
X15031857Y-13648714D01*
X14989000Y-13648714D01*
X15260428Y-13648714D02*
X15231857Y-13634429D01*
X15217571Y-13605857D01*
X15217571Y-13348714D01*
X15489000Y-13634429D02*
X15460428Y-13648714D01*
X15403286Y-13648714D01*
X15374714Y-13634429D01*
X15360428Y-13605857D01*
X15360428Y-13491571D01*
X15374714Y-13463000D01*
X15403286Y-13448714D01*
X15460428Y-13448714D01*
X15489000Y-13463000D01*
X15503286Y-13491571D01*
X15503286Y-13520143D01*
X15360428Y-13548714D01*
X15617571Y-13634429D02*
X15646143Y-13648714D01*
X15703286Y-13648714D01*
X15731857Y-13634429D01*
X15746143Y-13605857D01*
X15746143Y-13591571D01*
X15731857Y-13563000D01*
X15703286Y-13548714D01*
X15660428Y-13548714D01*
X15631857Y-13534429D01*
X15617571Y-13505857D01*
X15617571Y-13491571D01*
X15631857Y-13463000D01*
X15660428Y-13448714D01*
X15703286Y-13448714D01*
X15731857Y-13463000D01*
X15846143Y-13763000D02*
X15860428Y-13748714D01*
X15889000Y-13705857D01*
X15903286Y-13677286D01*
X15917571Y-13634429D01*
X15931857Y-13563000D01*
X15931857Y-13505857D01*
X15917571Y-13434429D01*
X15903286Y-13391571D01*
X15889000Y-13363000D01*
X15860428Y-13320143D01*
X15846143Y-13305857D01*
X8929000Y-14069000D02*
X9089000Y-13909000D01*
X8929000Y-13749000D01*
X8769000Y-13909000D01*
X8929000Y-14069000D01*
X9331857Y-13744714D02*
X9517571Y-13744714D01*
X9417571Y-13859000D01*
X9460429Y-13859000D01*
X9489000Y-13873286D01*
X9503286Y-13887571D01*
X9517571Y-13916143D01*
X9517571Y-13987571D01*
X9503286Y-14016143D01*
X9489000Y-14030429D01*
X9460429Y-14044714D01*
X9374714Y-14044714D01*
X9346143Y-14030429D01*
X9331857Y-14016143D01*
X9646143Y-14016143D02*
X9660429Y-14030429D01*
X9646143Y-14044714D01*
X9631857Y-14030429D01*
X9646143Y-14016143D01*
X9646143Y-14044714D01*
X9774714Y-13773286D02*
X9789000Y-13759000D01*
X9817571Y-13744714D01*
X9889000Y-13744714D01*
X9917571Y-13759000D01*
X9931857Y-13773286D01*
X9946143Y-13801857D01*
X9946143Y-13830429D01*
X9931857Y-13873286D01*
X9760428Y-14044714D01*
X9946143Y-14044714D01*
X10131857Y-13744714D02*
X10160429Y-13744714D01*
X10189000Y-13759000D01*
X10203286Y-13773286D01*
X10217571Y-13801857D01*
X10231857Y-13859000D01*
X10231857Y-13930429D01*
X10217571Y-13987571D01*
X10203286Y-14016143D01*
X10189000Y-14030429D01*
X10160429Y-14044714D01*
X10131857Y-14044714D01*
X10103286Y-14030429D01*
X10089000Y-14016143D01*
X10074714Y-13987571D01*
X10060429Y-13930429D01*
X10060429Y-13859000D01*
X10074714Y-13801857D01*
X10089000Y-13773286D01*
X10103286Y-13759000D01*
X10131857Y-13744714D01*
X10360429Y-14044714D02*
X10360429Y-13844714D01*
X10360429Y-13873286D02*
X10374714Y-13859000D01*
X10403286Y-13844714D01*
X10446143Y-13844714D01*
X10474714Y-13859000D01*
X10489000Y-13887571D01*
X10489000Y-14044714D01*
X10489000Y-13887571D02*
X10503286Y-13859000D01*
X10531857Y-13844714D01*
X10574714Y-13844714D01*
X10603286Y-13859000D01*
X10617571Y-13887571D01*
X10617571Y-14044714D01*
X10760429Y-14044714D02*
X10760429Y-13844714D01*
X10760429Y-13873286D02*
X10774714Y-13859000D01*
X10803286Y-13844714D01*
X10846143Y-13844714D01*
X10874714Y-13859000D01*
X10889000Y-13887571D01*
X10889000Y-14044714D01*
X10889000Y-13887571D02*
X10903286Y-13859000D01*
X10931857Y-13844714D01*
X10974714Y-13844714D01*
X11003286Y-13859000D01*
X11017571Y-13887571D01*
X11017571Y-14044714D01*
X11603286Y-13730429D02*
X11346143Y-14116143D01*
X11989000Y-13744714D02*
X12017571Y-13744714D01*
X12046143Y-13759000D01*
X12060428Y-13773286D01*
X12074714Y-13801857D01*
X12089000Y-13859000D01*
X12089000Y-13930429D01*
X12074714Y-13987571D01*
X12060428Y-14016143D01*
X12046143Y-14030429D01*
X12017571Y-14044714D01*
X11989000Y-14044714D01*
X11960428Y-14030429D01*
X11946143Y-14016143D01*
X11931857Y-13987571D01*
X11917571Y-13930429D01*
X11917571Y-13859000D01*
X11931857Y-13801857D01*
X11946143Y-13773286D01*
X11960428Y-13759000D01*
X11989000Y-13744714D01*
X12217571Y-14016143D02*
X12231857Y-14030429D01*
X12217571Y-14044714D01*
X12203286Y-14030429D01*
X12217571Y-14016143D01*
X12217571Y-14044714D01*
X12517571Y-14044714D02*
X12346143Y-14044714D01*
X12431857Y-14044714D02*
X12431857Y-13744714D01*
X12403285Y-13787571D01*
X12374714Y-13816143D01*
X12346143Y-13830429D01*
X12631857Y-13773286D02*
X12646143Y-13759000D01*
X12674714Y-13744714D01*
X12746143Y-13744714D01*
X12774714Y-13759000D01*
X12789000Y-13773286D01*
X12803285Y-13801857D01*
X12803285Y-13830429D01*
X12789000Y-13873286D01*
X12617571Y-14044714D01*
X12803285Y-14044714D01*
X13060428Y-13744714D02*
X13003285Y-13744714D01*
X12974714Y-13759000D01*
X12960428Y-13773286D01*
X12931857Y-13816143D01*
X12917571Y-13873286D01*
X12917571Y-13987571D01*
X12931857Y-14016143D01*
X12946143Y-14030429D01*
X12974714Y-14044714D01*
X13031857Y-14044714D01*
X13060428Y-14030429D01*
X13074714Y-14016143D01*
X13089000Y-13987571D01*
X13089000Y-13916143D01*
X13074714Y-13887571D01*
X13060428Y-13873286D01*
X13031857Y-13859000D01*
X12974714Y-13859000D01*
X12946143Y-13873286D01*
X12931857Y-13887571D01*
X12917571Y-13916143D01*
X13203286Y-13744714D02*
X13203286Y-13801857D01*
X13317571Y-13744714D02*
X13317571Y-13801857D01*
X13760428Y-14159000D02*
X13746143Y-14144714D01*
X13717571Y-14101857D01*
X13703285Y-14073286D01*
X13689000Y-14030429D01*
X13674714Y-13959000D01*
X13674714Y-13901857D01*
X13689000Y-13830429D01*
X13703285Y-13787571D01*
X13717571Y-13759000D01*
X13746143Y-13716143D01*
X13760428Y-13701857D01*
X14003285Y-13844714D02*
X14003285Y-14044714D01*
X13931857Y-13730429D02*
X13860428Y-13944714D01*
X14046143Y-13944714D01*
X14389000Y-14044714D02*
X14389000Y-13744714D01*
X14517571Y-14044714D02*
X14517571Y-13887571D01*
X14503285Y-13859000D01*
X14474714Y-13844714D01*
X14431857Y-13844714D01*
X14403285Y-13859000D01*
X14389000Y-13873286D01*
X14703285Y-14044714D02*
X14674714Y-14030429D01*
X14660428Y-14016143D01*
X14646143Y-13987571D01*
X14646143Y-13901857D01*
X14660428Y-13873286D01*
X14674714Y-13859000D01*
X14703285Y-13844714D01*
X14746143Y-13844714D01*
X14774714Y-13859000D01*
X14789000Y-13873286D01*
X14803285Y-13901857D01*
X14803285Y-13987571D01*
X14789000Y-14016143D01*
X14774714Y-14030429D01*
X14746143Y-14044714D01*
X14703285Y-14044714D01*
X14974714Y-14044714D02*
X14946143Y-14030429D01*
X14931857Y-14001857D01*
X14931857Y-13744714D01*
X15203286Y-14030429D02*
X15174714Y-14044714D01*
X15117571Y-14044714D01*
X15089000Y-14030429D01*
X15074714Y-14001857D01*
X15074714Y-13887571D01*
X15089000Y-13859000D01*
X15117571Y-13844714D01*
X15174714Y-13844714D01*
X15203286Y-13859000D01*
X15217571Y-13887571D01*
X15217571Y-13916143D01*
X15074714Y-13944714D01*
X15331857Y-14030429D02*
X15360428Y-14044714D01*
X15417571Y-14044714D01*
X15446143Y-14030429D01*
X15460428Y-14001857D01*
X15460428Y-13987571D01*
X15446143Y-13959000D01*
X15417571Y-13944714D01*
X15374714Y-13944714D01*
X15346143Y-13930429D01*
X15331857Y-13901857D01*
X15331857Y-13887571D01*
X15346143Y-13859000D01*
X15374714Y-13844714D01*
X15417571Y-13844714D01*
X15446143Y-13859000D01*
X15560428Y-14159000D02*
X15574714Y-14144714D01*
X15603286Y-14101857D01*
X15617571Y-14073286D01*
X15631857Y-14030429D01*
X15646143Y-13959000D01*
X15646143Y-13901857D01*
X15631857Y-13830429D01*
X15617571Y-13787571D01*
X15603286Y-13759000D01*
X15574714Y-13716143D01*
X15560428Y-13701857D01*
M02*
