G04 #@! TF.FileFunction,Copper,L4,Bot,Signal*
%FSLAX46Y46*%
G04 Gerber Fmt 4.6, Leading zero omitted, Abs format (unit mm)*
G04 Created by KiCad (PCBNEW 4.0.7-e2-6376~58~ubuntu16.04.1) date Sat Dec 16 23:26:04 2017*
%MOMM*%
%LPD*%
G01*
G04 APERTURE LIST*
%ADD10C,0.100000*%
%ADD11R,1.300000X0.700000*%
%ADD12R,1.700000X1.700000*%
%ADD13O,1.700000X1.700000*%
%ADD14R,1.524000X1.524000*%
%ADD15C,1.524000*%
%ADD16R,1.250000X1.000000*%
%ADD17R,1.000000X1.250000*%
%ADD18R,1.300000X1.700000*%
%ADD19R,1.140000X2.030000*%
%ADD20R,0.700000X1.300000*%
%ADD21C,3.800000*%
%ADD22C,1.500000*%
%ADD23R,1.060000X0.650000*%
%ADD24R,0.600000X1.550000*%
%ADD25R,1.000000X2.000000*%
%ADD26C,1.800000*%
%ADD27C,4.600000*%
%ADD28O,0.950000X1.250000*%
%ADD29O,1.550000X1.000000*%
%ADD30R,0.900000X0.800000*%
%ADD31R,1.950000X2.500000*%
%ADD32C,0.914400*%
%ADD33C,0.304800*%
%ADD34C,0.254000*%
%ADD35C,0.406400*%
%ADD36C,0.351000*%
G04 APERTURE END LIST*
D10*
D11*
X149100000Y-119325000D03*
X149100000Y-117425000D03*
X151625000Y-119325000D03*
X151625000Y-117425000D03*
X170830000Y-113180000D03*
X170830000Y-115080000D03*
D12*
X165824400Y-73651000D03*
D13*
X168364400Y-73651000D03*
X170904400Y-73651000D03*
X173444400Y-73651000D03*
X175984400Y-73651000D03*
X178524400Y-73651000D03*
D11*
X159650000Y-93350000D03*
X159650000Y-95250000D03*
D14*
X139625000Y-93575000D03*
D15*
X137085000Y-93575000D03*
X139625000Y-91035000D03*
X137085000Y-91035000D03*
X139625000Y-88495000D03*
X137085000Y-88495000D03*
X139625000Y-85955000D03*
X137085000Y-85955000D03*
D16*
X125525000Y-77975000D03*
X125525000Y-75975000D03*
X130075000Y-78400000D03*
X130075000Y-80400000D03*
X171325000Y-92950000D03*
X171325000Y-94950000D03*
X127775000Y-78725000D03*
X127775000Y-76725000D03*
D17*
X127500000Y-116500000D03*
X125500000Y-116500000D03*
D16*
X121325000Y-110900000D03*
X121325000Y-112900000D03*
D17*
X148150000Y-104100000D03*
X146150000Y-104100000D03*
D16*
X173975000Y-95000000D03*
X173975000Y-93000000D03*
X159225000Y-106850000D03*
X159225000Y-108850000D03*
D17*
X169075000Y-78875000D03*
X167075000Y-78875000D03*
D16*
X137700000Y-78875000D03*
X137700000Y-76875000D03*
D17*
X178390000Y-101300000D03*
X176390000Y-101300000D03*
D16*
X140225000Y-72975000D03*
X140225000Y-74975000D03*
D17*
X152150000Y-82100000D03*
X154150000Y-82100000D03*
X173850000Y-110500000D03*
X175850000Y-110500000D03*
X178620000Y-93420000D03*
X176620000Y-93420000D03*
X172625000Y-83375000D03*
X170625000Y-83375000D03*
X174875000Y-119325000D03*
X176875000Y-119325000D03*
D16*
X182560000Y-98850000D03*
X182560000Y-96850000D03*
X163350000Y-116400000D03*
X163350000Y-118400000D03*
D17*
X143800000Y-108600000D03*
X145800000Y-108600000D03*
X168550000Y-76725000D03*
X166550000Y-76725000D03*
X177950000Y-108400000D03*
X175950000Y-108400000D03*
D16*
X178850000Y-118400000D03*
X178850000Y-116400000D03*
X180300000Y-98850000D03*
X180300000Y-96850000D03*
X178850000Y-114700000D03*
X178850000Y-112700000D03*
D17*
X178350000Y-98960000D03*
X176350000Y-98960000D03*
X178390000Y-103610000D03*
X176390000Y-103610000D03*
X176650000Y-78650000D03*
X174650000Y-78650000D03*
D18*
X130350000Y-117400000D03*
X133850000Y-117400000D03*
D19*
X122650000Y-72750000D03*
X120250000Y-72750000D03*
D20*
X152950000Y-98200000D03*
X151050000Y-98200000D03*
D21*
X130289800Y-121936400D03*
X129019800Y-73651000D03*
X181089800Y-106671000D03*
D12*
X160769800Y-121911000D03*
D13*
X163309800Y-121911000D03*
X165849800Y-121911000D03*
X168389800Y-121911000D03*
X170929800Y-121911000D03*
X173469800Y-121911000D03*
X176009800Y-121911000D03*
X178549800Y-121911000D03*
D12*
X156700000Y-121975000D03*
D13*
X154160000Y-121975000D03*
X151620000Y-121975000D03*
X149080000Y-121975000D03*
X146540000Y-121975000D03*
X144000000Y-121975000D03*
X141460000Y-121975000D03*
X138920000Y-121975000D03*
X136380000Y-121975000D03*
X133840000Y-121975000D03*
D12*
X142989800Y-73651000D03*
D13*
X145529800Y-73651000D03*
X148069800Y-73651000D03*
X150609800Y-73651000D03*
X153149800Y-73651000D03*
X155689800Y-73651000D03*
X158229800Y-73651000D03*
X160769800Y-73651000D03*
D11*
X154150000Y-86050000D03*
X154150000Y-87950000D03*
X140000000Y-76975000D03*
X140000000Y-78875000D03*
X150300000Y-94625000D03*
X150300000Y-96525000D03*
X132350000Y-113050000D03*
X132350000Y-111150000D03*
D20*
X176400000Y-105900000D03*
X174500000Y-105900000D03*
D11*
X154175000Y-119350000D03*
X154175000Y-117450000D03*
X156700000Y-119325000D03*
X156700000Y-117425000D03*
D20*
X155275000Y-92450000D03*
X157175000Y-92450000D03*
X126400000Y-119550000D03*
X124500000Y-119550000D03*
X151850000Y-92525000D03*
X149950000Y-92525000D03*
X125550000Y-113150000D03*
X127450000Y-113150000D03*
X175800000Y-87950000D03*
X177700000Y-87950000D03*
X150660000Y-111480000D03*
X148760000Y-111480000D03*
X172870000Y-98960000D03*
X174770000Y-98960000D03*
D11*
X173350000Y-101350000D03*
X173350000Y-103250000D03*
D20*
X167000000Y-114100000D03*
X168900000Y-114100000D03*
X168000000Y-111500000D03*
X169900000Y-111500000D03*
D11*
X135325000Y-78800000D03*
X135325000Y-76900000D03*
D20*
X180300000Y-110800000D03*
X178400000Y-110800000D03*
D11*
X169320000Y-92870000D03*
X169320000Y-90970000D03*
X166900000Y-92875000D03*
X166900000Y-90975000D03*
X137700000Y-72975000D03*
X137700000Y-74875000D03*
D20*
X167700000Y-118100000D03*
X169600000Y-118100000D03*
D11*
X168850000Y-96775000D03*
X168850000Y-94875000D03*
X172650000Y-85300000D03*
X172650000Y-87200000D03*
X170375000Y-89100000D03*
X170375000Y-87200000D03*
D20*
X172825000Y-79975000D03*
X170925000Y-79975000D03*
D11*
X162150000Y-90950000D03*
X162150000Y-92850000D03*
D20*
X178350000Y-82875000D03*
X180250000Y-82875000D03*
D11*
X170925000Y-76225000D03*
X170925000Y-78125000D03*
D20*
X166300000Y-109000000D03*
X164400000Y-109000000D03*
D11*
X158725000Y-112700000D03*
X158725000Y-114600000D03*
D20*
X163475000Y-111550000D03*
X161575000Y-111550000D03*
D11*
X181600000Y-76300000D03*
X181600000Y-78200000D03*
D20*
X174225000Y-76375000D03*
X176125000Y-76375000D03*
X148840000Y-108520000D03*
X150740000Y-108520000D03*
D11*
X173150000Y-114050000D03*
X173150000Y-115950000D03*
X172650000Y-117550000D03*
X172650000Y-119450000D03*
D20*
X117575000Y-109125000D03*
X119475000Y-109125000D03*
X144750000Y-111600000D03*
X146650000Y-111600000D03*
X162200000Y-76475000D03*
X160300000Y-76475000D03*
X175800000Y-85475000D03*
X177700000Y-85475000D03*
D11*
X176300000Y-83575000D03*
X176300000Y-81675000D03*
X146550000Y-117400000D03*
X146550000Y-119300000D03*
X159350000Y-102950000D03*
X159350000Y-101050000D03*
X121900000Y-81300000D03*
X121900000Y-79400000D03*
D20*
X126400000Y-104700000D03*
X128300000Y-104700000D03*
D11*
X131950000Y-104500000D03*
X131950000Y-102600000D03*
X124150000Y-103500000D03*
X124150000Y-105400000D03*
X121800000Y-103500000D03*
X121800000Y-105400000D03*
D22*
X120950000Y-75100000D03*
X132850000Y-78400000D03*
D23*
X132550000Y-90450000D03*
X132550000Y-89500000D03*
X132550000Y-88550000D03*
X134750000Y-88550000D03*
X134750000Y-90450000D03*
X134750000Y-89500000D03*
D24*
X166180000Y-103325000D03*
X164910000Y-103325000D03*
X163640000Y-103325000D03*
X162370000Y-103325000D03*
X162370000Y-97925000D03*
X163640000Y-97925000D03*
X164910000Y-97925000D03*
X166180000Y-97925000D03*
D25*
X116450000Y-84300000D03*
X118450000Y-84300000D03*
X120450000Y-84300000D03*
X122450000Y-84300000D03*
X124450000Y-84300000D03*
X126450000Y-84300000D03*
X128450000Y-84300000D03*
X130450000Y-84300000D03*
X130450000Y-100300000D03*
X128450000Y-100300000D03*
X126450000Y-100300000D03*
X124450000Y-100300000D03*
X122450000Y-100300000D03*
X120450000Y-100300000D03*
X118450000Y-100300000D03*
X116450000Y-100300000D03*
D26*
X114364000Y-111671000D03*
X114364000Y-109171000D03*
X114364000Y-106671000D03*
D27*
X117664000Y-114171000D03*
X117664000Y-104171000D03*
D22*
X142600000Y-117350000D03*
X125500000Y-72750000D03*
X124200000Y-122100000D03*
D12*
X164900000Y-83825000D03*
D13*
X164900000Y-86365000D03*
X164900000Y-88905000D03*
D22*
X126650000Y-122100000D03*
X178250000Y-96650000D03*
D12*
X135450000Y-105275000D03*
D13*
X137990000Y-105275000D03*
X140530000Y-105275000D03*
X143070000Y-105275000D03*
D28*
X119050000Y-76250000D03*
X119050000Y-81250000D03*
D29*
X116350000Y-75250000D03*
X116350000Y-82250000D03*
D30*
X119450000Y-118950000D03*
X119450000Y-120850000D03*
X117450000Y-119900000D03*
D12*
X126750000Y-107700000D03*
D13*
X124210000Y-107700000D03*
X121670000Y-107700000D03*
D22*
X146250000Y-86700000D03*
X151130000Y-86700000D03*
D12*
X142750000Y-77000000D03*
D13*
X145290000Y-77000000D03*
D12*
X145300000Y-79650000D03*
D13*
X142760000Y-79650000D03*
D12*
X159350000Y-85600000D03*
D13*
X159350000Y-88140000D03*
D12*
X156700000Y-85600000D03*
D13*
X156700000Y-88140000D03*
D17*
X151330000Y-106150000D03*
X149330000Y-106150000D03*
D31*
X139875000Y-117350000D03*
X136825000Y-117350000D03*
D32*
X133125000Y-95475000D03*
X121400000Y-114850000D03*
X160450000Y-106950000D03*
X155900000Y-106920000D03*
X179620000Y-101270000D03*
X182450000Y-95220000D03*
X149550000Y-81700000D03*
X149650000Y-100875000D03*
X138000000Y-119425000D03*
X180325000Y-114650000D03*
X129525000Y-88000000D03*
X161250000Y-103325000D03*
X160050000Y-99300000D03*
X172050000Y-112500000D03*
X172250000Y-106900000D03*
X174425000Y-87025000D03*
X175700000Y-89450000D03*
X169275000Y-81675000D03*
X174475000Y-84075000D03*
X135050000Y-74300000D03*
X127950000Y-89900000D03*
X135250000Y-93200000D03*
X146150000Y-106100000D03*
X127925000Y-80675000D03*
X145725000Y-113525000D03*
X139800000Y-112250000D03*
X173500000Y-90550000D03*
X160250000Y-98100000D03*
X151150000Y-79600000D03*
X143250000Y-99025000D03*
X148875000Y-98975000D03*
X139150000Y-80925000D03*
X120500000Y-90900000D03*
X134250000Y-92000000D03*
X152920000Y-99500000D03*
X175550000Y-102000000D03*
X179150000Y-77800000D03*
X167422000Y-94058000D03*
X167930000Y-89740000D03*
X161326000Y-93042000D03*
X147150000Y-97200000D03*
X154750000Y-98200000D03*
X168250000Y-99300000D03*
X166175000Y-99300000D03*
X137350000Y-96700000D03*
X154150000Y-79800000D03*
X148950000Y-85000000D03*
X170800000Y-104450000D03*
X173550000Y-109100000D03*
X166152000Y-112092000D03*
X174775000Y-117200000D03*
X135250000Y-113700000D03*
X142600000Y-119325000D03*
X160750000Y-119450000D03*
X121650000Y-122050000D03*
X177100000Y-113400000D03*
X166050000Y-115650000D03*
X159150000Y-97425000D03*
X164900000Y-99325000D03*
X161650000Y-80200000D03*
X152550000Y-85200000D03*
X152800000Y-90725000D03*
X147250000Y-95500000D03*
X169950000Y-99900000D03*
X168750000Y-100700000D03*
X148550000Y-94600000D03*
X130150000Y-105200000D03*
X143525000Y-102225000D03*
X147550000Y-101500000D03*
X163650000Y-99325000D03*
X149100000Y-116225000D03*
X151650000Y-116200000D03*
X154175000Y-116150000D03*
X155950000Y-115400000D03*
X161575000Y-109925000D03*
X162250000Y-113275000D03*
X170650000Y-118800000D03*
X169600000Y-105525000D03*
X160950000Y-115500000D03*
X161950000Y-85300000D03*
X164750000Y-77825000D03*
X154150000Y-90100000D03*
X166350000Y-119100000D03*
X171850000Y-96600000D03*
X171590000Y-87680000D03*
X121750000Y-102550000D03*
X117800000Y-92000000D03*
X124100000Y-102500000D03*
X121050000Y-94100000D03*
X130600000Y-102500000D03*
X128350000Y-102900000D03*
X126750000Y-91550000D03*
X135750000Y-100500000D03*
X135750000Y-89500000D03*
X133025000Y-108100000D03*
X132550000Y-84300000D03*
X152510000Y-101840000D03*
X141050000Y-99500000D03*
X159150000Y-80400000D03*
X150250000Y-85300000D03*
X129450000Y-113200000D03*
X131800000Y-96925000D03*
X121000000Y-120550000D03*
X167075000Y-80150000D03*
X174450000Y-81625000D03*
X174425000Y-89375000D03*
X163650000Y-73050000D03*
X136400000Y-80000000D03*
X133100000Y-71900000D03*
X149350000Y-75500000D03*
X132000000Y-73650000D03*
X176950000Y-89500000D03*
X179500000Y-86875000D03*
X179475000Y-94900000D03*
X164350000Y-81200000D03*
X155650000Y-81600000D03*
X172500000Y-81550000D03*
X170875000Y-81625000D03*
X172840000Y-97540000D03*
X168150000Y-109900000D03*
X169850000Y-109900000D03*
X168184000Y-102440000D03*
X163550000Y-110000000D03*
X135750000Y-109800000D03*
X147250000Y-107225000D03*
X139350000Y-113550000D03*
X148050000Y-109950000D03*
X166175000Y-94225000D03*
X161400000Y-94225000D03*
X167075000Y-103300000D03*
X158125000Y-90800000D03*
X154850000Y-94975000D03*
X178300000Y-82350000D03*
X175750000Y-86550000D03*
X172600000Y-89275000D03*
X160025000Y-91950000D03*
X158125000Y-95025000D03*
X125450000Y-114800000D03*
X174788000Y-115902000D03*
X157516000Y-111330000D03*
X151674000Y-109806000D03*
X124850000Y-111200000D03*
X174750000Y-114500000D03*
X181850000Y-109500000D03*
X148750000Y-113100000D03*
X171232000Y-109298000D03*
X144775000Y-114825000D03*
X165850000Y-92800000D03*
X179600000Y-80125000D03*
X176350000Y-96300000D03*
X169200000Y-93900000D03*
X161500000Y-97925000D03*
X177100000Y-85450000D03*
X152075000Y-94750000D03*
X120450000Y-92800000D03*
X155738000Y-112092000D03*
X180375000Y-116300000D03*
X141725000Y-111000000D03*
X180376000Y-112346000D03*
X178750000Y-119500000D03*
X153350000Y-94050000D03*
X154240000Y-101940000D03*
X163530000Y-104910000D03*
X170530000Y-97540000D03*
X167870000Y-88090000D03*
X167870000Y-83900000D03*
X159150000Y-100200000D03*
X126350000Y-102600000D03*
X159350000Y-103800000D03*
X124100000Y-81350000D03*
X123700000Y-76525000D03*
X174650000Y-106900000D03*
X120850000Y-118950000D03*
X132150000Y-119450000D03*
D33*
X163350000Y-118400000D02*
X163350000Y-118500000D01*
X163350000Y-118500000D02*
X165050000Y-120200000D01*
X165050000Y-120200000D02*
X170550000Y-120200000D01*
X170550000Y-120200000D02*
X170929800Y-120579800D01*
X170929800Y-120579800D02*
X170929800Y-121911000D01*
D34*
X163350000Y-118500000D02*
X165050000Y-120200000D01*
X165050000Y-120200000D02*
X170550000Y-120200000D01*
X170550000Y-120200000D02*
X170929800Y-120579800D01*
X170929800Y-120579800D02*
X170929800Y-121911000D01*
D33*
X132550000Y-89500000D02*
X133450000Y-89500000D01*
X134100000Y-88550000D02*
X134750000Y-88550000D01*
X133750000Y-88900000D02*
X134100000Y-88550000D01*
X133750000Y-89200000D02*
X133750000Y-88900000D01*
X133450000Y-89500000D02*
X133750000Y-89200000D01*
X150609800Y-73651000D02*
X150609800Y-74259800D01*
X150609800Y-74259800D02*
X152850000Y-76500000D01*
X152850000Y-80400000D02*
X152150000Y-81100000D01*
X152850000Y-76500000D02*
X152850000Y-80400000D01*
X148150000Y-104100000D02*
X148150000Y-104700000D01*
X148150000Y-104700000D02*
X149500000Y-106050000D01*
X149550000Y-99870000D02*
X149550000Y-106000000D01*
X149550000Y-106000000D02*
X149500000Y-106050000D01*
X125525000Y-75975000D02*
X125525000Y-72775000D01*
X125525000Y-72775000D02*
X125500000Y-72750000D01*
X149550000Y-81700000D02*
X151950000Y-81700000D01*
X151950000Y-81700000D02*
X152150000Y-81900000D01*
X129525000Y-88000000D02*
X129525000Y-88975000D01*
X130050000Y-89500000D02*
X132550000Y-89500000D01*
X129525000Y-88975000D02*
X130050000Y-89500000D01*
X178850000Y-114700000D02*
X180275000Y-114700000D01*
X180275000Y-114700000D02*
X180325000Y-114650000D01*
X175850000Y-110500000D02*
X176350000Y-110500000D01*
X177950000Y-108900000D02*
X177950000Y-108400000D01*
X176350000Y-110500000D02*
X177950000Y-108900000D01*
X170830000Y-113180000D02*
X171370000Y-113180000D01*
X171370000Y-113180000D02*
X172050000Y-112500000D01*
X177950000Y-108400000D02*
X179360800Y-108400000D01*
X179360800Y-108400000D02*
X181089800Y-106671000D01*
X173350000Y-103250000D02*
X173350000Y-103300000D01*
X173350000Y-103300000D02*
X172250000Y-104400000D01*
X172250000Y-104400000D02*
X172250000Y-106900000D01*
X152150000Y-81900000D02*
X152150000Y-81100000D01*
X121325000Y-114775000D02*
X121325000Y-112900000D01*
X121400000Y-114850000D02*
X121325000Y-114775000D01*
X173975000Y-95000000D02*
X177440000Y-95000000D01*
X177440000Y-95000000D02*
X178620000Y-93820000D01*
X178620000Y-93820000D02*
X178620000Y-93420000D01*
X168850000Y-94875000D02*
X171250000Y-94875000D01*
X171250000Y-94875000D02*
X171325000Y-94950000D01*
X173975000Y-95000000D02*
X171375000Y-95000000D01*
X171375000Y-95000000D02*
X171325000Y-94950000D01*
X150740000Y-108520000D02*
X154300000Y-108520000D01*
X155900000Y-106920000D02*
X154300000Y-108520000D01*
X177950000Y-108400000D02*
X178440800Y-108400000D01*
X178390000Y-103610000D02*
X178390000Y-103971200D01*
X178390000Y-103971200D02*
X181089800Y-106671000D01*
X178390000Y-101300000D02*
X178390000Y-103610000D01*
X178620000Y-93420000D02*
X180650000Y-93420000D01*
X180650000Y-93420000D02*
X182450000Y-95220000D01*
X179590000Y-101300000D02*
X178390000Y-101300000D01*
X179620000Y-101270000D02*
X179590000Y-101300000D01*
X178350000Y-98960000D02*
X180190000Y-98960000D01*
X180190000Y-98960000D02*
X180300000Y-98850000D01*
X180300000Y-98850000D02*
X182560000Y-98850000D01*
X178350000Y-98960000D02*
X178350000Y-101260000D01*
X178350000Y-101260000D02*
X178390000Y-101300000D01*
X149550000Y-99870000D02*
X149625000Y-100900000D01*
X149625000Y-100900000D02*
X149650000Y-100875000D01*
X148200000Y-104150000D02*
X148150000Y-104100000D01*
X136975000Y-118400000D02*
X136975000Y-117350000D01*
X138000000Y-119425000D02*
X136975000Y-118400000D01*
X133850000Y-117400000D02*
X136925000Y-117400000D01*
X136925000Y-117400000D02*
X136975000Y-117350000D01*
X133850000Y-117400000D02*
X133850000Y-121965000D01*
X133850000Y-121965000D02*
X133840000Y-121975000D01*
X160769800Y-73651000D02*
X160876000Y-73651000D01*
X160876000Y-73651000D02*
X162200000Y-74975000D01*
X162200000Y-74975000D02*
X162200000Y-76475000D01*
X172250000Y-106900000D02*
X160450000Y-106950000D01*
X160450000Y-106950000D02*
X159325000Y-106950000D01*
X159325000Y-106950000D02*
X159225000Y-106850000D01*
X159225000Y-106850000D02*
X160375000Y-106850000D01*
X162370000Y-104855000D02*
X162370000Y-103325000D01*
X160375000Y-106850000D02*
X162370000Y-104855000D01*
X168364400Y-73651000D02*
X168364400Y-76714400D01*
X169075000Y-77425000D02*
X169075000Y-78875000D01*
X168364400Y-76714400D02*
X169075000Y-77425000D01*
X169275000Y-81675000D02*
X169275000Y-79075000D01*
X169275000Y-79075000D02*
X169075000Y-78875000D01*
X133125000Y-95475000D02*
X133125000Y-95500000D01*
X133125000Y-95500000D02*
X133125000Y-95475000D01*
X133125000Y-95475000D02*
X133125000Y-95500000D01*
X127775000Y-76725000D02*
X127775000Y-74895800D01*
X127775000Y-74895800D02*
X129019800Y-73651000D01*
X127775000Y-76725000D02*
X128400000Y-76725000D01*
X128400000Y-76725000D02*
X130075000Y-78400000D01*
X125525000Y-75975000D02*
X127025000Y-75975000D01*
X127025000Y-75975000D02*
X127775000Y-76725000D01*
X130075000Y-78400000D02*
X130075000Y-74706200D01*
X130075000Y-74706200D02*
X129019800Y-73651000D01*
X130450000Y-100300000D02*
X130575000Y-96800000D01*
X139625000Y-94525000D02*
X139625000Y-93575000D01*
X138650000Y-95500000D02*
X139625000Y-94525000D01*
X131875000Y-95500000D02*
X133125000Y-95500000D01*
X133125000Y-95500000D02*
X138650000Y-95500000D01*
X130575000Y-96800000D02*
X131875000Y-95500000D01*
X128450000Y-100300000D02*
X130450000Y-100300000D01*
X161250000Y-103325000D02*
X162370000Y-103325000D01*
D35*
X121900000Y-79400000D02*
X121900000Y-76950000D01*
X120950000Y-75100000D02*
X120950000Y-76000000D01*
X120950000Y-76000000D02*
X125625000Y-80675000D01*
X125625000Y-80675000D02*
X127925000Y-80675000D01*
X120950000Y-75100000D02*
X120250000Y-74400000D01*
X120250000Y-74400000D02*
X120250000Y-72750000D01*
D33*
X121950000Y-76950000D02*
X121950000Y-77000000D01*
X121900000Y-76950000D02*
X121950000Y-76950000D01*
X125625000Y-80675000D02*
X127925000Y-80675000D01*
X120950000Y-76000000D02*
X121950000Y-77000000D01*
X121950000Y-77000000D02*
X125625000Y-80675000D01*
X120250000Y-72750000D02*
X120250000Y-74400000D01*
X128500000Y-90450000D02*
X127950000Y-89900000D01*
X132550000Y-90450000D02*
X128500000Y-90450000D01*
X132550000Y-90450000D02*
X132550000Y-92300000D01*
X133450000Y-93200000D02*
X135250000Y-93200000D01*
X132550000Y-92300000D02*
X133450000Y-93200000D01*
X146150000Y-104100000D02*
X146150000Y-104450000D01*
X146150000Y-104450000D02*
X146150000Y-106100000D01*
X120950000Y-75100000D02*
X120375000Y-75075000D01*
X121350000Y-74700000D02*
X120950000Y-75100000D01*
X173975000Y-91025000D02*
X173500000Y-90550000D01*
X173975000Y-93000000D02*
X173975000Y-91025000D01*
X130075000Y-80400000D02*
X132450000Y-80400000D01*
X132850000Y-80000000D02*
X132850000Y-78400000D01*
X132450000Y-80400000D02*
X132850000Y-80000000D01*
X130075000Y-80400000D02*
X134350000Y-80400000D01*
X138475000Y-81600000D02*
X139150000Y-80925000D01*
X135550000Y-81600000D02*
X138475000Y-81600000D01*
X134350000Y-80400000D02*
X135550000Y-81600000D01*
X130075000Y-80400000D02*
X130075000Y-80825000D01*
X130075000Y-80825000D02*
X130450000Y-81200000D01*
X130450000Y-81200000D02*
X130450000Y-84300000D01*
X142760000Y-79650000D02*
X142760000Y-80360000D01*
X142760000Y-80360000D02*
X143800000Y-81400000D01*
X149600000Y-79600000D02*
X151150000Y-79600000D01*
X147800000Y-81400000D02*
X149600000Y-79600000D01*
X143800000Y-81400000D02*
X147800000Y-81400000D01*
X142760000Y-79650000D02*
X140775000Y-79650000D01*
X140775000Y-79650000D02*
X140000000Y-78875000D01*
X120450000Y-84300000D02*
X120450000Y-85400000D01*
X130450000Y-85600000D02*
X130450000Y-84300000D01*
X129400000Y-86650000D02*
X130450000Y-85600000D01*
X121700000Y-86650000D02*
X129400000Y-86650000D01*
X120450000Y-85400000D02*
X121700000Y-86650000D01*
X148825000Y-99025000D02*
X143250000Y-99025000D01*
X148875000Y-98975000D02*
X148825000Y-99025000D01*
X173975000Y-93000000D02*
X171375000Y-93000000D01*
X171375000Y-93000000D02*
X171325000Y-92950000D01*
X140000000Y-78875000D02*
X140000000Y-80075000D01*
X140000000Y-80075000D02*
X139150000Y-80925000D01*
X150300000Y-96525000D02*
X150300000Y-97450000D01*
X150300000Y-97450000D02*
X151050000Y-98200000D01*
X151050000Y-98200000D02*
X149650000Y-98200000D01*
X149650000Y-98200000D02*
X148875000Y-98975000D01*
X126450000Y-100300000D02*
X126575000Y-97425000D01*
X120600000Y-91450000D02*
X120500000Y-90900000D01*
X126575000Y-97425000D02*
X120600000Y-91450000D01*
X130450000Y-84300000D02*
X130450000Y-85200000D01*
X120450000Y-85300000D02*
X120450000Y-84300000D01*
X127775000Y-78725000D02*
X127775000Y-78900000D01*
X127775000Y-78900000D02*
X129275000Y-80400000D01*
X129275000Y-80400000D02*
X130075000Y-80400000D01*
X125525000Y-77975000D02*
X125525000Y-78375000D01*
X125525000Y-78375000D02*
X125875000Y-78725000D01*
X125875000Y-78725000D02*
X127775000Y-78725000D01*
X126450000Y-100300000D02*
X126575000Y-96650000D01*
X128950000Y-94275000D02*
X137085000Y-94275000D01*
X126575000Y-96650000D02*
X128950000Y-94275000D01*
X130450000Y-84300000D02*
X130450000Y-83400000D01*
X120450000Y-90850000D02*
X120425000Y-85275000D01*
X120500000Y-90900000D02*
X120450000Y-90850000D01*
X154150000Y-86050000D02*
X154150000Y-85850000D01*
X154150000Y-85850000D02*
X154710000Y-85600000D01*
X154710000Y-85600000D02*
X156610000Y-85600000D01*
X134750000Y-91500000D02*
X134750000Y-90450000D01*
X134250000Y-92000000D02*
X134750000Y-91500000D01*
X159650000Y-95250000D02*
X159650000Y-95400000D01*
X159650000Y-95400000D02*
X160250000Y-96000000D01*
X162750000Y-93450000D02*
X162150000Y-92850000D01*
X162750000Y-95300000D02*
X162750000Y-93450000D01*
X162050000Y-96000000D02*
X162750000Y-95300000D01*
X160250000Y-96000000D02*
X162050000Y-96000000D01*
X152950000Y-98200000D02*
X152950000Y-97900000D01*
X152950000Y-97900000D02*
X154450000Y-96400000D01*
X158825000Y-96400000D02*
X159650000Y-95575000D01*
X154450000Y-96400000D02*
X158825000Y-96400000D01*
X159650000Y-95575000D02*
X159650000Y-95250000D01*
X152950000Y-99470000D02*
X152950000Y-98200000D01*
X152920000Y-99500000D02*
X152950000Y-99470000D01*
D34*
X167000000Y-114100000D02*
X166775000Y-114100000D01*
X166775000Y-114100000D02*
X166850000Y-114200000D01*
X166850000Y-114200000D02*
X161025000Y-114200000D01*
X161025000Y-114200000D02*
X159525000Y-112700000D01*
X159525000Y-112700000D02*
X158725000Y-112700000D01*
X166825000Y-113925000D02*
X167000000Y-114100000D01*
D33*
X175550000Y-102000000D02*
X175550000Y-101400000D01*
X175650000Y-101300000D02*
X176390000Y-101300000D01*
X175550000Y-101400000D02*
X175650000Y-101300000D01*
X176390000Y-103610000D02*
X175660000Y-103610000D01*
X175550000Y-103500000D02*
X175550000Y-102000000D01*
X175660000Y-103610000D02*
X175550000Y-103500000D01*
X176390000Y-104060000D02*
X176390000Y-103610000D01*
X166300000Y-107800000D02*
X165950000Y-107800000D01*
X166300000Y-109000000D02*
X166300000Y-107800000D01*
X176125000Y-76375000D02*
X177725000Y-76375000D01*
X177725000Y-76375000D02*
X179150000Y-77800000D01*
X166180000Y-97925000D02*
X166180000Y-96570000D01*
X166180000Y-96570000D02*
X167422000Y-95328000D01*
X167422000Y-95328000D02*
X167422000Y-94058000D01*
X169320000Y-90970000D02*
X169160000Y-90970000D01*
X169160000Y-90970000D02*
X167930000Y-89740000D01*
X161326000Y-93042000D02*
X162150000Y-93018000D01*
X162150000Y-93018000D02*
X162150000Y-92850000D01*
X170375000Y-89100000D02*
X170375000Y-89275000D01*
X170375000Y-89275000D02*
X169320000Y-90330000D01*
X169320000Y-90330000D02*
X169320000Y-90970000D01*
X159225000Y-108850000D02*
X160630000Y-108850000D01*
X161680000Y-107800000D02*
X165950000Y-107800000D01*
X160630000Y-108850000D02*
X161680000Y-107800000D01*
X176390000Y-101300000D02*
X176390000Y-103610000D01*
X176350000Y-98960000D02*
X176350000Y-101260000D01*
X176350000Y-101260000D02*
X176390000Y-101300000D01*
X174770000Y-98960000D02*
X176350000Y-98960000D01*
X149950000Y-92525000D02*
X147800000Y-92525000D01*
X146025000Y-96050000D02*
X147150000Y-97200000D01*
X146025000Y-94300000D02*
X146025000Y-96050000D01*
X147800000Y-92525000D02*
X146025000Y-94300000D01*
X158725000Y-112700000D02*
X159525000Y-112700000D01*
X159525000Y-112700000D02*
X161025000Y-114200000D01*
X162150000Y-92850000D02*
X162500000Y-92850000D01*
X159225000Y-108850000D02*
X159225000Y-110475000D01*
X159225000Y-110475000D02*
X158725000Y-110975000D01*
X154750000Y-98200000D02*
X157750000Y-98200000D01*
X158725000Y-110975000D02*
X158725000Y-112700000D01*
X157800000Y-110050000D02*
X158725000Y-110975000D01*
X157800000Y-98250000D02*
X157800000Y-110050000D01*
X157750000Y-98200000D02*
X157800000Y-98250000D01*
X153725000Y-98200000D02*
X154750000Y-98200000D01*
X153725000Y-98200000D02*
X152950000Y-98200000D01*
X166180000Y-99295000D02*
X166180000Y-97925000D01*
X166175000Y-99300000D02*
X166180000Y-99295000D01*
X176400000Y-105900000D02*
X176400000Y-106850000D01*
X175950000Y-107300000D02*
X175950000Y-108400000D01*
X176400000Y-106850000D02*
X175950000Y-107300000D01*
X175950000Y-108100000D02*
X175950000Y-108400000D01*
X173850000Y-110500000D02*
X173850000Y-109800000D01*
X175250000Y-108400000D02*
X175950000Y-108400000D01*
X173850000Y-109800000D02*
X175250000Y-108400000D01*
X134600000Y-113050000D02*
X135250000Y-113700000D01*
X132350000Y-113050000D02*
X134600000Y-113050000D01*
X173550000Y-109100000D02*
X174150000Y-109100000D01*
X173850000Y-109400000D02*
X173850000Y-110500000D01*
X174150000Y-109100000D02*
X173850000Y-109400000D01*
X173850000Y-110500000D02*
X173594000Y-110500000D01*
X142600000Y-119325000D02*
X142600000Y-117350000D01*
X139725000Y-117350000D02*
X142600000Y-117350000D01*
D34*
X160750000Y-119450000D02*
X160750000Y-117900000D01*
X162250000Y-116400000D02*
X163350000Y-116400000D01*
X160750000Y-117900000D02*
X162250000Y-116400000D01*
X163350000Y-116400000D02*
X165300000Y-116400000D01*
X165300000Y-116400000D02*
X166050000Y-115650000D01*
D33*
X122425000Y-115775000D02*
X122425000Y-121275000D01*
X122425000Y-121275000D02*
X121650000Y-122050000D01*
X117450000Y-119900000D02*
X117450000Y-118200000D01*
X121000000Y-117200000D02*
X121650000Y-116550000D01*
X118450000Y-117200000D02*
X121000000Y-117200000D01*
X117450000Y-118200000D02*
X118450000Y-117200000D01*
X178850000Y-112700000D02*
X177800000Y-112700000D01*
X177800000Y-112700000D02*
X177100000Y-113400000D01*
X125550000Y-113150000D02*
X125050000Y-113150000D01*
X125050000Y-113150000D02*
X122425000Y-115775000D01*
X122425000Y-115775000D02*
X121650000Y-116550000D01*
X121700000Y-122100000D02*
X124200000Y-122100000D01*
X121650000Y-122050000D02*
X121700000Y-122100000D01*
X124200000Y-122100000D02*
X124200000Y-119600000D01*
X124475000Y-119325000D02*
X124500000Y-119550000D01*
X124200000Y-119600000D02*
X124475000Y-119325000D01*
X124400000Y-119450000D02*
X124500000Y-119550000D01*
X159150000Y-88140000D02*
X158780000Y-88140000D01*
X158780000Y-88140000D02*
X157520000Y-86880000D01*
X155880000Y-86880000D02*
X154500000Y-87950000D01*
X157520000Y-86880000D02*
X155880000Y-86880000D01*
X154500000Y-87950000D02*
X154150000Y-87950000D01*
X164900000Y-88905000D02*
X164900000Y-97915000D01*
X164900000Y-97915000D02*
X164910000Y-97925000D01*
X164910000Y-99315000D02*
X164910000Y-97925000D01*
X164900000Y-99325000D02*
X164910000Y-99315000D01*
X151850000Y-92525000D02*
X151850000Y-91675000D01*
X151850000Y-91675000D02*
X152800000Y-90725000D01*
X140000000Y-76975000D02*
X142725000Y-76975000D01*
X142725000Y-76975000D02*
X142750000Y-77000000D01*
X150300000Y-94625000D02*
X149000000Y-94625000D01*
X149000000Y-94625000D02*
X148550000Y-94600000D01*
X130150000Y-105200000D02*
X131250000Y-105200000D01*
X131250000Y-105200000D02*
X131950000Y-104500000D01*
X121800000Y-105400000D02*
X121800000Y-107450000D01*
X121800000Y-107450000D02*
X121650000Y-107600000D01*
X121600000Y-107550000D02*
X121650000Y-107600000D01*
X124210000Y-107700000D02*
X124210000Y-105460000D01*
X124210000Y-105460000D02*
X124150000Y-105400000D01*
X124200000Y-107590000D02*
X124190000Y-107600000D01*
X124150000Y-105400000D02*
X125950000Y-105400000D01*
X125950000Y-105400000D02*
X126400000Y-104700000D01*
X124150000Y-105400000D02*
X124150000Y-105675000D01*
X124150000Y-105675000D02*
X124775000Y-105400000D01*
X162850000Y-89825000D02*
X163075000Y-89825000D01*
X163640000Y-96510000D02*
X163640000Y-97925000D01*
X163950000Y-96200000D02*
X163640000Y-96510000D01*
X163950000Y-90700000D02*
X163950000Y-96200000D01*
X163075000Y-89825000D02*
X163950000Y-90700000D01*
X155650000Y-89850000D02*
X155650000Y-89800000D01*
X154900000Y-89050000D02*
X155650000Y-89800000D01*
X155675000Y-89825000D02*
X155650000Y-89850000D01*
X162825000Y-89825000D02*
X162850000Y-89825000D01*
X162850000Y-89825000D02*
X162850000Y-89825000D01*
X162850000Y-89825000D02*
X155675000Y-89825000D01*
X139625000Y-85955000D02*
X143945000Y-85955000D01*
X143945000Y-85955000D02*
X144625000Y-85275000D01*
X144625000Y-85275000D02*
X147600000Y-85275000D01*
X147600000Y-85275000D02*
X151375000Y-89050000D01*
X151375000Y-89050000D02*
X154900000Y-89050000D01*
X164035000Y-86365000D02*
X164900000Y-86365000D01*
X162825000Y-87575000D02*
X164035000Y-86365000D01*
X162825000Y-89825000D02*
X162825000Y-87575000D01*
X163640000Y-97925000D02*
X163640000Y-99315000D01*
X163640000Y-99315000D02*
X163650000Y-99325000D01*
X149100000Y-116225000D02*
X149100000Y-117425000D01*
X151625000Y-117425000D02*
X151650000Y-116200000D01*
X154175000Y-116150000D02*
X154175000Y-117450000D01*
X156700000Y-117425000D02*
X156700000Y-116150000D01*
X156700000Y-116150000D02*
X155950000Y-115400000D01*
X164900000Y-83825000D02*
X137075000Y-83825000D01*
X135310000Y-86720000D02*
X137085000Y-88495000D01*
X135310000Y-85590000D02*
X135310000Y-86720000D01*
X137075000Y-83825000D02*
X135310000Y-85590000D01*
X161575000Y-111550000D02*
X161575000Y-109925000D01*
X169600000Y-118100000D02*
X169950000Y-118100000D01*
X169950000Y-118100000D02*
X170650000Y-118800000D01*
X160050000Y-114600000D02*
X158725000Y-114600000D01*
X160950000Y-115500000D02*
X160050000Y-114600000D01*
X155275000Y-92450000D02*
X155275000Y-91225000D01*
X155275000Y-91225000D02*
X154150000Y-90100000D01*
X167700000Y-118100000D02*
X167700000Y-117450000D01*
X167700000Y-117450000D02*
X168850000Y-116300000D01*
X170830000Y-115620000D02*
X170830000Y-115080000D01*
X170150000Y-116300000D02*
X170830000Y-115620000D01*
X168850000Y-116300000D02*
X170150000Y-116300000D01*
X166350000Y-119100000D02*
X167350000Y-118100000D01*
X167350000Y-118100000D02*
X167700000Y-118100000D01*
X164910000Y-103325000D02*
X164910000Y-103990000D01*
X164910000Y-103990000D02*
X165870000Y-104950000D01*
X165870000Y-104950000D02*
X168250000Y-104950000D01*
X168250000Y-104950000D02*
X171640000Y-101560000D01*
X171640000Y-101560000D02*
X171700000Y-96750000D01*
X171700000Y-96750000D02*
X171850000Y-96600000D01*
X171590000Y-87680000D02*
X172070000Y-87200000D01*
X172070000Y-87200000D02*
X172650000Y-87200000D01*
X170375000Y-87200000D02*
X172650000Y-87200000D01*
X116450000Y-100300000D02*
X116450000Y-93350000D01*
X121800000Y-102600000D02*
X121800000Y-103500000D01*
X121750000Y-102550000D02*
X121800000Y-102600000D01*
X116450000Y-93350000D02*
X117800000Y-92000000D01*
X116450000Y-100300000D02*
X116475000Y-100800000D01*
X124150000Y-103500000D02*
X124150000Y-102550000D01*
X124150000Y-102550000D02*
X124100000Y-102500000D01*
X118575000Y-96575000D02*
X121050000Y-94100000D01*
X118450000Y-100300000D02*
X118575000Y-96575000D01*
X130700000Y-102600000D02*
X131950000Y-102600000D01*
X130600000Y-102500000D02*
X130700000Y-102600000D01*
X131825000Y-102600000D02*
X131950000Y-102600000D01*
X128300000Y-104700000D02*
X128350000Y-102900000D01*
X128300000Y-104700000D02*
X128300000Y-104050000D01*
X128300000Y-104700000D02*
X128300000Y-104650000D01*
X134750000Y-89500000D02*
X135750000Y-89500000D01*
X132350000Y-111150000D02*
X132350000Y-108775000D01*
X132350000Y-108775000D02*
X133025000Y-108100000D01*
X132550000Y-88550000D02*
X132550000Y-84300000D01*
X151330000Y-106150000D02*
X151330000Y-103020000D01*
X151330000Y-103020000D02*
X152510000Y-101840000D01*
X131475000Y-107400000D02*
X131450000Y-107400000D01*
X129450000Y-109400000D02*
X129450000Y-113200000D01*
X131450000Y-107400000D02*
X129450000Y-109400000D01*
X131475000Y-107400000D02*
X131475000Y-107375000D01*
X131475000Y-107375000D02*
X133425000Y-105425000D01*
X127450000Y-113150000D02*
X129400000Y-113150000D01*
X129400000Y-113150000D02*
X129450000Y-113200000D01*
X133425000Y-98550000D02*
X133425000Y-105425000D01*
X131800000Y-96925000D02*
X133425000Y-98550000D01*
X119450000Y-120850000D02*
X120700000Y-120850000D01*
X120700000Y-120850000D02*
X121000000Y-120550000D01*
X119450000Y-120850000D02*
X119450000Y-122800000D01*
X125100000Y-123650000D02*
X126650000Y-122100000D01*
X120300000Y-123650000D02*
X125100000Y-123650000D01*
X119450000Y-122800000D02*
X120300000Y-123650000D01*
X176620000Y-93420000D02*
X176620000Y-91330000D01*
X176620000Y-91330000D02*
X176180000Y-90890000D01*
X176180000Y-90890000D02*
X174900000Y-90890000D01*
X174900000Y-90890000D02*
X174425000Y-90415000D01*
X174425000Y-90415000D02*
X174425000Y-89375000D01*
X166550000Y-76725000D02*
X166550000Y-78350000D01*
X166550000Y-78350000D02*
X167075000Y-78875000D01*
X167075000Y-78875000D02*
X167075000Y-80150000D01*
X166900000Y-90975000D02*
X166900000Y-81900000D01*
X163650000Y-74750000D02*
X163650000Y-73050000D01*
X163700000Y-74800000D02*
X163650000Y-74750000D01*
X163700000Y-78700000D02*
X163700000Y-74800000D01*
X166900000Y-81900000D02*
X163700000Y-78700000D01*
X136600000Y-79800000D02*
X136600000Y-78875000D01*
X136400000Y-80000000D02*
X136600000Y-79800000D01*
X137700000Y-78875000D02*
X136600000Y-78875000D01*
X136600000Y-78875000D02*
X135400000Y-78875000D01*
X135400000Y-78875000D02*
X135325000Y-78800000D01*
X135325000Y-76900000D02*
X135250000Y-76900000D01*
X135250000Y-76900000D02*
X132000000Y-73650000D01*
X137700000Y-74875000D02*
X137700000Y-76875000D01*
X135325000Y-76900000D02*
X137675000Y-76900000D01*
X137675000Y-76900000D02*
X137700000Y-76875000D01*
X179450000Y-94875000D02*
X179325000Y-94875000D01*
X179325000Y-94875000D02*
X178250000Y-95950000D01*
X178250000Y-95950000D02*
X178250000Y-96650000D01*
X154150000Y-82100000D02*
X155150000Y-82100000D01*
X180300000Y-96850000D02*
X180300000Y-95725000D01*
X180300000Y-95725000D02*
X179450000Y-94875000D01*
X179450000Y-94875000D02*
X179475000Y-94900000D01*
X180300000Y-96850000D02*
X182560000Y-96850000D01*
X155150000Y-82100000D02*
X155650000Y-81600000D01*
X172625000Y-83375000D02*
X172625000Y-85275000D01*
X172625000Y-85275000D02*
X172650000Y-85300000D01*
X172625000Y-83375000D02*
X172625000Y-81675000D01*
X172625000Y-81675000D02*
X172500000Y-81550000D01*
X172500000Y-81550000D02*
X172825000Y-81225000D01*
X172825000Y-81225000D02*
X172825000Y-79975000D01*
X170625000Y-83375000D02*
X170625000Y-81875000D01*
X170625000Y-81875000D02*
X170875000Y-81625000D01*
X170925000Y-79975000D02*
X170925000Y-81575000D01*
X170925000Y-81575000D02*
X170875000Y-81625000D01*
X170925000Y-79975000D02*
X170925000Y-78125000D01*
X173350000Y-101350000D02*
X173350000Y-101000000D01*
X173350000Y-101000000D02*
X172870000Y-100520000D01*
X172870000Y-100520000D02*
X172870000Y-98960000D01*
X173350000Y-101350000D02*
X172940000Y-101350000D01*
X172870000Y-97570000D02*
X172870000Y-98960000D01*
X172840000Y-97540000D02*
X172870000Y-97570000D01*
X168900000Y-114100000D02*
X169125000Y-113575000D01*
X168000000Y-112450000D02*
X168000000Y-111500000D01*
X169125000Y-113575000D02*
X168000000Y-112450000D01*
X168150000Y-109900000D02*
X168150000Y-111350000D01*
X168150000Y-111350000D02*
X168000000Y-111500000D01*
X169850000Y-109900000D02*
X169850000Y-111450000D01*
X169850000Y-111450000D02*
X169900000Y-111500000D01*
X169850000Y-111450000D02*
X169900000Y-111500000D01*
X168850000Y-96775000D02*
X168850000Y-96948000D01*
X168850000Y-96948000D02*
X167422000Y-98376000D01*
X167422000Y-98376000D02*
X167422000Y-101678000D01*
X167422000Y-101678000D02*
X168184000Y-102440000D01*
X163550000Y-110000000D02*
X163550000Y-111475000D01*
X163550000Y-111475000D02*
X163475000Y-111550000D01*
X164400000Y-109000000D02*
X163950000Y-109000000D01*
X163950000Y-109000000D02*
X163550000Y-109400000D01*
X163550000Y-109400000D02*
X163550000Y-110000000D01*
X167050000Y-103325000D02*
X166180000Y-103325000D01*
X167075000Y-103300000D02*
X167050000Y-103325000D01*
X158125000Y-90800000D02*
X162000000Y-90800000D01*
X162000000Y-90800000D02*
X162150000Y-90950000D01*
X178300000Y-82350000D02*
X178350000Y-82400000D01*
X178350000Y-82400000D02*
X178350000Y-82875000D01*
X175800000Y-86500000D02*
X175800000Y-85475000D01*
X175750000Y-86550000D02*
X175800000Y-86500000D01*
X176300000Y-83575000D02*
X176300000Y-83600000D01*
X176300000Y-83600000D02*
X175800000Y-84100000D01*
X175800000Y-84100000D02*
X175800000Y-85475000D01*
X174225000Y-76375000D02*
X174225000Y-78225000D01*
X174225000Y-78225000D02*
X174650000Y-78650000D01*
X173444400Y-73651000D02*
X173444400Y-75594400D01*
X173444400Y-75594400D02*
X174225000Y-76375000D01*
X158225000Y-95000000D02*
X158225000Y-93625000D01*
X158500000Y-93350000D02*
X159650000Y-93350000D01*
X158225000Y-93625000D02*
X158500000Y-93350000D01*
X160025000Y-91950000D02*
X160025000Y-92975000D01*
X173925000Y-87950000D02*
X172600000Y-89275000D01*
X175800000Y-87950000D02*
X173925000Y-87950000D01*
X160025000Y-92975000D02*
X159650000Y-93350000D01*
X158225000Y-94925000D02*
X158225000Y-95000000D01*
X158125000Y-95025000D02*
X158225000Y-94925000D01*
X125500000Y-116500000D02*
X125500000Y-114850000D01*
X125500000Y-114850000D02*
X125450000Y-114800000D01*
X173150000Y-115950000D02*
X174740000Y-115950000D01*
X174740000Y-115950000D02*
X174788000Y-115902000D01*
X173150000Y-115950000D02*
X173150000Y-117050000D01*
X173150000Y-117050000D02*
X172650000Y-117550000D01*
X124550000Y-110900000D02*
X124850000Y-111200000D01*
X121325000Y-110900000D02*
X124550000Y-110900000D01*
X121325000Y-110900000D02*
X121250000Y-110900000D01*
X121250000Y-110900000D02*
X119475000Y-109125000D01*
X173150000Y-114050000D02*
X174300000Y-114050000D01*
X174300000Y-114050000D02*
X174750000Y-114500000D01*
X174750000Y-114500000D02*
X175550000Y-114500000D01*
X175550000Y-114500000D02*
X176875000Y-115825000D01*
X176875000Y-115825000D02*
X176875000Y-119325000D01*
X178400000Y-110800000D02*
X178400000Y-110550000D01*
X178400000Y-110550000D02*
X179650000Y-109300000D01*
X181650000Y-109300000D02*
X181850000Y-109500000D01*
X179650000Y-109300000D02*
X181650000Y-109300000D01*
X178400000Y-110800000D02*
X178400000Y-110350000D01*
X171232000Y-109298000D02*
X171232000Y-109982000D01*
X173412000Y-112162000D02*
X176750000Y-112162000D01*
X171232000Y-109982000D02*
X173412000Y-112162000D01*
X178400000Y-110800000D02*
X178344000Y-110568000D01*
X148760000Y-112212000D02*
X148760000Y-111480000D01*
X148750000Y-113100000D02*
X148760000Y-112212000D01*
X178344000Y-110568000D02*
X176750000Y-112162000D01*
X178400000Y-110800000D02*
X178400000Y-110480000D01*
X146650000Y-111600000D02*
X148640000Y-111600000D01*
X148640000Y-111600000D02*
X148760000Y-111480000D01*
X127500000Y-116500000D02*
X127500000Y-116450000D01*
X127500000Y-116450000D02*
X129125000Y-114825000D01*
X129125000Y-114825000D02*
X144775000Y-114825000D01*
X137700000Y-72975000D02*
X140225000Y-72975000D01*
X140225000Y-72975000D02*
X140225000Y-72675000D01*
X140225000Y-72675000D02*
X141225000Y-71675000D01*
X141225000Y-71675000D02*
X147000000Y-71675000D01*
X147000000Y-71675000D02*
X148069800Y-72744800D01*
X148069800Y-72744800D02*
X148069800Y-73651000D01*
X140225000Y-74975000D02*
X141665800Y-74975000D01*
X141665800Y-74975000D02*
X142989800Y-73651000D01*
X170925000Y-76225000D02*
X170725000Y-76225000D01*
X170725000Y-76225000D02*
X169650000Y-75150000D01*
X169650000Y-75150000D02*
X169650000Y-72800000D01*
X169650000Y-72800000D02*
X168525000Y-71675000D01*
X168525000Y-71675000D02*
X154075000Y-71675000D01*
X154075000Y-71675000D02*
X153149800Y-72600200D01*
X153149800Y-72600200D02*
X153149800Y-73651000D01*
X158229800Y-73651000D02*
X158229800Y-74404800D01*
X158229800Y-74404800D02*
X160300000Y-76475000D01*
X165925000Y-92875000D02*
X166900000Y-92875000D01*
X165850000Y-92800000D02*
X165925000Y-92875000D01*
X169320000Y-92870000D02*
X166905000Y-92870000D01*
X166905000Y-92870000D02*
X166900000Y-92875000D01*
X166747000Y-92875000D02*
X166900000Y-92875000D01*
X180250000Y-82875000D02*
X180250000Y-80775000D01*
X180250000Y-80775000D02*
X179600000Y-80125000D01*
X181600000Y-78200000D02*
X181600000Y-81525000D01*
X181600000Y-81525000D02*
X180250000Y-82875000D01*
X161500000Y-97925000D02*
X162370000Y-97925000D01*
X177700000Y-85475000D02*
X177125000Y-85475000D01*
X177125000Y-85475000D02*
X177100000Y-85450000D01*
X177700000Y-85475000D02*
X177700000Y-87950000D01*
X145800000Y-108600000D02*
X148760000Y-108600000D01*
X148760000Y-108600000D02*
X148840000Y-108520000D01*
X145800000Y-108600000D02*
X145800000Y-109550000D01*
X144750000Y-110600000D02*
X144750000Y-111600000D01*
X145800000Y-109550000D02*
X144750000Y-110600000D01*
X178850000Y-116400000D02*
X180275000Y-116400000D01*
X180275000Y-116400000D02*
X180375000Y-116300000D01*
X150660000Y-111480000D02*
X155126000Y-111480000D01*
X155126000Y-111480000D02*
X155738000Y-112092000D01*
X172650000Y-119450000D02*
X172650000Y-120100000D01*
X173469800Y-120919800D02*
X173469800Y-121911000D01*
X172650000Y-120100000D02*
X173469800Y-120919800D01*
X172650000Y-119450000D02*
X174750000Y-119450000D01*
X174750000Y-119450000D02*
X174875000Y-119325000D01*
X172725000Y-119375000D02*
X172650000Y-119450000D01*
X143800000Y-108600000D02*
X143600000Y-108600000D01*
X143600000Y-108600000D02*
X141725000Y-110475000D01*
X141725000Y-110475000D02*
X141725000Y-111000000D01*
X178850000Y-118400000D02*
X178850000Y-119400000D01*
X178850000Y-119400000D02*
X178750000Y-119500000D01*
X180300000Y-110800000D02*
X180300000Y-111120000D01*
X180300000Y-111120000D02*
X180376000Y-111584000D01*
X180376000Y-111584000D02*
X180376000Y-112346000D01*
X176650000Y-78650000D02*
X176650000Y-81325000D01*
X176650000Y-81325000D02*
X176300000Y-81675000D01*
X157175000Y-93350000D02*
X157175000Y-92450000D01*
X153350000Y-94050000D02*
X153375000Y-94025000D01*
X153375000Y-94025000D02*
X156500000Y-94025000D01*
X156500000Y-94025000D02*
X157175000Y-93350000D01*
X156950000Y-102800000D02*
X155100000Y-102800000D01*
X155100000Y-102800000D02*
X154240000Y-101940000D01*
X156700000Y-110300000D02*
X156700000Y-110100000D01*
X156950000Y-109850000D02*
X156950000Y-102800000D01*
X156700000Y-110100000D02*
X156950000Y-109850000D01*
X146550000Y-117400000D02*
X146550000Y-116675000D01*
X156700000Y-112975000D02*
X156700000Y-110300000D01*
X154875000Y-114800000D02*
X156700000Y-112975000D01*
X148425000Y-114800000D02*
X154875000Y-114800000D01*
X146550000Y-116675000D02*
X148425000Y-114800000D01*
X146550000Y-119300000D02*
X146550000Y-121965000D01*
X146550000Y-121965000D02*
X146540000Y-121975000D01*
X163640000Y-104800000D02*
X163640000Y-103325000D01*
X163530000Y-104910000D02*
X163640000Y-104800000D01*
X159350000Y-100400000D02*
X159350000Y-101050000D01*
X159150000Y-100200000D02*
X159350000Y-100400000D01*
X159350000Y-101050000D02*
X159350000Y-100900000D01*
X124450000Y-100300000D02*
X124450000Y-101100000D01*
X124450000Y-101100000D02*
X125950000Y-102600000D01*
X125950000Y-102600000D02*
X126350000Y-102600000D01*
X124450000Y-100300000D02*
X124475000Y-100450000D01*
X159350000Y-102950000D02*
X159350000Y-103800000D01*
X124050000Y-81300000D02*
X121900000Y-81300000D01*
X124100000Y-81350000D02*
X124050000Y-81300000D01*
X178524400Y-73651000D02*
X178951000Y-73651000D01*
X178951000Y-73651000D02*
X181600000Y-76300000D01*
D35*
X122650000Y-72750000D02*
X122650000Y-72950000D01*
X122650000Y-72950000D02*
X123700000Y-74000000D01*
X123700000Y-74000000D02*
X123700000Y-76525000D01*
D33*
X122775000Y-73075000D02*
X122650000Y-72750000D01*
X123700000Y-74000000D02*
X122775000Y-73075000D01*
X123700000Y-76525000D02*
X123700000Y-74000000D01*
X117575000Y-109125000D02*
X114410000Y-109125000D01*
X114410000Y-109125000D02*
X114364000Y-109171000D01*
X156700000Y-119325000D02*
X156700000Y-121975000D01*
X154175000Y-119350000D02*
X154175000Y-121960000D01*
X154175000Y-121960000D02*
X154160000Y-121975000D01*
X151625000Y-119325000D02*
X151625000Y-121970000D01*
X151625000Y-121970000D02*
X151620000Y-121975000D01*
X149100000Y-119325000D02*
X149100000Y-121955000D01*
X149100000Y-121955000D02*
X149080000Y-121975000D01*
X174500000Y-105900000D02*
X174500000Y-106750000D01*
X174500000Y-106750000D02*
X174650000Y-106900000D01*
X174700000Y-106150000D02*
X174700000Y-106300000D01*
X120850000Y-118950000D02*
X119450000Y-118950000D01*
X130350000Y-117400000D02*
X130350000Y-118600000D01*
X131500000Y-118800000D02*
X132150000Y-119450000D01*
X130550000Y-118800000D02*
X131500000Y-118800000D01*
X130350000Y-118600000D02*
X130550000Y-118800000D01*
X126400000Y-119550000D02*
X127800000Y-119550000D01*
X127800000Y-119550000D02*
X129950000Y-117400000D01*
X129950000Y-117400000D02*
X130350000Y-117400000D01*
X130350000Y-117400000D02*
X130350000Y-117650000D01*
D36*
G36*
X157470952Y-113637585D02*
X157486073Y-113647917D01*
X157298700Y-113922146D01*
X157232308Y-114250000D01*
X157232308Y-114950000D01*
X157289939Y-115256283D01*
X157470952Y-115537585D01*
X157747146Y-115726300D01*
X158075000Y-115792692D01*
X159375000Y-115792692D01*
X159666092Y-115737919D01*
X159666078Y-115754223D01*
X159861098Y-116226208D01*
X160221893Y-116587633D01*
X160569553Y-116731995D01*
X160075774Y-117225774D01*
X159869081Y-117535111D01*
X159796500Y-117900000D01*
X159796500Y-118587994D01*
X159662367Y-118721893D01*
X159466523Y-119193536D01*
X159466078Y-119704223D01*
X159661098Y-120176208D01*
X159737388Y-120252631D01*
X159613517Y-120275939D01*
X159332215Y-120456952D01*
X159143500Y-120733146D01*
X159077108Y-121061000D01*
X159077108Y-122761000D01*
X159134739Y-123067283D01*
X159315752Y-123348585D01*
X159591946Y-123537300D01*
X159919800Y-123603692D01*
X161619800Y-123603692D01*
X161926083Y-123546061D01*
X162207385Y-123365048D01*
X162291939Y-123241299D01*
X162668231Y-123492729D01*
X163309800Y-123620345D01*
X163951369Y-123492729D01*
X164495265Y-123129310D01*
X164579800Y-123002794D01*
X164664335Y-123129310D01*
X165208231Y-123492729D01*
X165849800Y-123620345D01*
X166491369Y-123492729D01*
X167035265Y-123129310D01*
X167119800Y-123002794D01*
X167204335Y-123129310D01*
X167748231Y-123492729D01*
X168389800Y-123620345D01*
X169031369Y-123492729D01*
X169575265Y-123129310D01*
X169752698Y-122863762D01*
X170093118Y-123196146D01*
X170612689Y-123411354D01*
X170851300Y-123271362D01*
X170851300Y-121989500D01*
X170831300Y-121989500D01*
X170831300Y-121832500D01*
X170851300Y-121832500D01*
X170851300Y-120550638D01*
X170612689Y-120410646D01*
X170093118Y-120625854D01*
X169752698Y-120958238D01*
X169575265Y-120692690D01*
X169031369Y-120329271D01*
X168389800Y-120201655D01*
X167748231Y-120329271D01*
X167204335Y-120692690D01*
X167119800Y-120819206D01*
X167035265Y-120692690D01*
X166573120Y-120383895D01*
X166604223Y-120383922D01*
X167076208Y-120188902D01*
X167437633Y-119828107D01*
X167535386Y-119592692D01*
X168050000Y-119592692D01*
X168356283Y-119535061D01*
X168637585Y-119354048D01*
X168647917Y-119338927D01*
X168922146Y-119526300D01*
X169250000Y-119592692D01*
X169627466Y-119592692D01*
X169921893Y-119887633D01*
X170393536Y-120083477D01*
X170904223Y-120083922D01*
X171188620Y-119966412D01*
X171214939Y-120106283D01*
X171395952Y-120387585D01*
X171672146Y-120576300D01*
X171835691Y-120609419D01*
X171957813Y-120792187D01*
X172113696Y-120948070D01*
X172106902Y-120958238D01*
X171766482Y-120625854D01*
X171246911Y-120410646D01*
X171008300Y-120550638D01*
X171008300Y-121832500D01*
X171028300Y-121832500D01*
X171028300Y-121989500D01*
X171008300Y-121989500D01*
X171008300Y-123271362D01*
X171246911Y-123411354D01*
X171766482Y-123196146D01*
X172106902Y-122863762D01*
X172284335Y-123129310D01*
X172828231Y-123492729D01*
X173469800Y-123620345D01*
X174111369Y-123492729D01*
X174655265Y-123129310D01*
X174832698Y-122863762D01*
X175173118Y-123196146D01*
X175692689Y-123411354D01*
X175931300Y-123271362D01*
X175931300Y-121989500D01*
X175911300Y-121989500D01*
X175911300Y-121832500D01*
X175931300Y-121832500D01*
X175931300Y-121812500D01*
X176088300Y-121812500D01*
X176088300Y-121832500D01*
X176108300Y-121832500D01*
X176108300Y-121989500D01*
X176088300Y-121989500D01*
X176088300Y-123271362D01*
X176326911Y-123411354D01*
X176846482Y-123196146D01*
X177186902Y-122863762D01*
X177364335Y-123129310D01*
X177908231Y-123492729D01*
X178549800Y-123620345D01*
X179191369Y-123492729D01*
X179735265Y-123129310D01*
X180098684Y-122585414D01*
X180226300Y-121943845D01*
X180226300Y-121878155D01*
X180098684Y-121236586D01*
X179735265Y-120692690D01*
X179517799Y-120547384D01*
X179837633Y-120228107D01*
X180033477Y-119756464D01*
X180033681Y-119522647D01*
X180062585Y-119504048D01*
X180251300Y-119227854D01*
X180317692Y-118900000D01*
X180317692Y-117900000D01*
X180260061Y-117593717D01*
X180253547Y-117583595D01*
X180323500Y-117583656D01*
X180323500Y-122586942D01*
X179186942Y-123723500D01*
X132187918Y-123723500D01*
X132086198Y-123621780D01*
X132466038Y-123420498D01*
X132671888Y-122936539D01*
X133003318Y-123260146D01*
X133522889Y-123475354D01*
X133761500Y-123335362D01*
X133761500Y-122053500D01*
X133741500Y-122053500D01*
X133741500Y-121896500D01*
X133761500Y-121896500D01*
X133761500Y-120614638D01*
X133522889Y-120474646D01*
X133003318Y-120689854D01*
X132694402Y-120991477D01*
X132563955Y-120667922D01*
X132876208Y-120538902D01*
X133237633Y-120178107D01*
X133433477Y-119706464D01*
X133433922Y-119195777D01*
X133325551Y-118933500D01*
X133600625Y-118933500D01*
X133771500Y-118762625D01*
X133771500Y-117478500D01*
X133928500Y-117478500D01*
X133928500Y-118762625D01*
X134099375Y-118933500D01*
X134635957Y-118933500D01*
X134887172Y-118829443D01*
X135079444Y-118637171D01*
X135166500Y-118426998D01*
X135166500Y-118735956D01*
X135270556Y-118987171D01*
X135462828Y-119179443D01*
X135714043Y-119283500D01*
X136575625Y-119283500D01*
X136746500Y-119112625D01*
X136746500Y-117428500D01*
X135337375Y-117428500D01*
X135166500Y-117599375D01*
X135166500Y-117632375D01*
X135012625Y-117478500D01*
X133928500Y-117478500D01*
X133771500Y-117478500D01*
X132687375Y-117478500D01*
X132516500Y-117649375D01*
X132516500Y-118212214D01*
X132406464Y-118166523D01*
X132250761Y-118166387D01*
X132192187Y-118107813D01*
X131874609Y-117895614D01*
X131842692Y-117889265D01*
X131842692Y-116550000D01*
X131817111Y-116414044D01*
X132516500Y-116414044D01*
X132516500Y-117150625D01*
X132687375Y-117321500D01*
X133771500Y-117321500D01*
X133771500Y-116037375D01*
X133600625Y-115866500D01*
X133064043Y-115866500D01*
X132812828Y-115970557D01*
X132620556Y-116162829D01*
X132516500Y-116414044D01*
X131817111Y-116414044D01*
X131785061Y-116243717D01*
X131604048Y-115962415D01*
X131372053Y-115803900D01*
X135232833Y-115803900D01*
X135166500Y-115964044D01*
X135166500Y-116373002D01*
X135079444Y-116162829D01*
X134887172Y-115970557D01*
X134635957Y-115866500D01*
X134099375Y-115866500D01*
X133928500Y-116037375D01*
X133928500Y-117321500D01*
X135012625Y-117321500D01*
X135183500Y-117150625D01*
X135183500Y-117117625D01*
X135337375Y-117271500D01*
X136746500Y-117271500D01*
X136746500Y-117251500D01*
X136903500Y-117251500D01*
X136903500Y-117271500D01*
X136923500Y-117271500D01*
X136923500Y-117428500D01*
X136903500Y-117428500D01*
X136903500Y-119112625D01*
X137074375Y-119283500D01*
X137935957Y-119283500D01*
X138187172Y-119179443D01*
X138250173Y-119116442D01*
X138295952Y-119187585D01*
X138572146Y-119376300D01*
X138900000Y-119442692D01*
X140850000Y-119442692D01*
X141156283Y-119385061D01*
X141316337Y-119282069D01*
X141316078Y-119579223D01*
X141511098Y-120051208D01*
X141790871Y-120331469D01*
X141460000Y-120265655D01*
X140818431Y-120393271D01*
X140274535Y-120756690D01*
X140190000Y-120883206D01*
X140105465Y-120756690D01*
X139561569Y-120393271D01*
X138920000Y-120265655D01*
X138278431Y-120393271D01*
X137734535Y-120756690D01*
X137650000Y-120883206D01*
X137565465Y-120756690D01*
X137021569Y-120393271D01*
X136380000Y-120265655D01*
X135738431Y-120393271D01*
X135194535Y-120756690D01*
X135017102Y-121022238D01*
X134676682Y-120689854D01*
X134157111Y-120474646D01*
X133918500Y-120614638D01*
X133918500Y-121896500D01*
X133938500Y-121896500D01*
X133938500Y-122053500D01*
X133918500Y-122053500D01*
X133918500Y-123335362D01*
X134157111Y-123475354D01*
X134676682Y-123260146D01*
X135017102Y-122927762D01*
X135194535Y-123193310D01*
X135738431Y-123556729D01*
X136380000Y-123684345D01*
X137021569Y-123556729D01*
X137565465Y-123193310D01*
X137650000Y-123066794D01*
X137734535Y-123193310D01*
X138278431Y-123556729D01*
X138920000Y-123684345D01*
X139561569Y-123556729D01*
X140105465Y-123193310D01*
X140190000Y-123066794D01*
X140274535Y-123193310D01*
X140818431Y-123556729D01*
X141460000Y-123684345D01*
X142101569Y-123556729D01*
X142645465Y-123193310D01*
X142730000Y-123066794D01*
X142814535Y-123193310D01*
X143358431Y-123556729D01*
X144000000Y-123684345D01*
X144641569Y-123556729D01*
X145185465Y-123193310D01*
X145270000Y-123066794D01*
X145354535Y-123193310D01*
X145898431Y-123556729D01*
X146540000Y-123684345D01*
X147181569Y-123556729D01*
X147725465Y-123193310D01*
X147810000Y-123066794D01*
X147894535Y-123193310D01*
X148438431Y-123556729D01*
X149080000Y-123684345D01*
X149721569Y-123556729D01*
X150265465Y-123193310D01*
X150350000Y-123066794D01*
X150434535Y-123193310D01*
X150978431Y-123556729D01*
X151620000Y-123684345D01*
X152261569Y-123556729D01*
X152805465Y-123193310D01*
X152890000Y-123066794D01*
X152974535Y-123193310D01*
X153518431Y-123556729D01*
X154160000Y-123684345D01*
X154801569Y-123556729D01*
X155177200Y-123305741D01*
X155245952Y-123412585D01*
X155522146Y-123601300D01*
X155850000Y-123667692D01*
X157550000Y-123667692D01*
X157856283Y-123610061D01*
X158137585Y-123429048D01*
X158326300Y-123152854D01*
X158392692Y-122825000D01*
X158392692Y-121125000D01*
X158335061Y-120818717D01*
X158154048Y-120537415D01*
X157877854Y-120348700D01*
X157840955Y-120341228D01*
X157937585Y-120279048D01*
X158126300Y-120002854D01*
X158192692Y-119675000D01*
X158192692Y-118975000D01*
X158135061Y-118668717D01*
X157954048Y-118387415D01*
X157938927Y-118377083D01*
X158126300Y-118102854D01*
X158192692Y-117775000D01*
X158192692Y-117075000D01*
X158135061Y-116768717D01*
X157954048Y-116487415D01*
X157678900Y-116299415D01*
X157678900Y-116150000D01*
X157604386Y-115775391D01*
X157392187Y-115457813D01*
X157233788Y-115299414D01*
X157233922Y-115145777D01*
X157038902Y-114673792D01*
X156712527Y-114346847D01*
X157392187Y-113667187D01*
X157442015Y-113592615D01*
X157470952Y-113637585D01*
X157470952Y-113637585D01*
G37*
X157470952Y-113637585D02*
X157486073Y-113647917D01*
X157298700Y-113922146D01*
X157232308Y-114250000D01*
X157232308Y-114950000D01*
X157289939Y-115256283D01*
X157470952Y-115537585D01*
X157747146Y-115726300D01*
X158075000Y-115792692D01*
X159375000Y-115792692D01*
X159666092Y-115737919D01*
X159666078Y-115754223D01*
X159861098Y-116226208D01*
X160221893Y-116587633D01*
X160569553Y-116731995D01*
X160075774Y-117225774D01*
X159869081Y-117535111D01*
X159796500Y-117900000D01*
X159796500Y-118587994D01*
X159662367Y-118721893D01*
X159466523Y-119193536D01*
X159466078Y-119704223D01*
X159661098Y-120176208D01*
X159737388Y-120252631D01*
X159613517Y-120275939D01*
X159332215Y-120456952D01*
X159143500Y-120733146D01*
X159077108Y-121061000D01*
X159077108Y-122761000D01*
X159134739Y-123067283D01*
X159315752Y-123348585D01*
X159591946Y-123537300D01*
X159919800Y-123603692D01*
X161619800Y-123603692D01*
X161926083Y-123546061D01*
X162207385Y-123365048D01*
X162291939Y-123241299D01*
X162668231Y-123492729D01*
X163309800Y-123620345D01*
X163951369Y-123492729D01*
X164495265Y-123129310D01*
X164579800Y-123002794D01*
X164664335Y-123129310D01*
X165208231Y-123492729D01*
X165849800Y-123620345D01*
X166491369Y-123492729D01*
X167035265Y-123129310D01*
X167119800Y-123002794D01*
X167204335Y-123129310D01*
X167748231Y-123492729D01*
X168389800Y-123620345D01*
X169031369Y-123492729D01*
X169575265Y-123129310D01*
X169752698Y-122863762D01*
X170093118Y-123196146D01*
X170612689Y-123411354D01*
X170851300Y-123271362D01*
X170851300Y-121989500D01*
X170831300Y-121989500D01*
X170831300Y-121832500D01*
X170851300Y-121832500D01*
X170851300Y-120550638D01*
X170612689Y-120410646D01*
X170093118Y-120625854D01*
X169752698Y-120958238D01*
X169575265Y-120692690D01*
X169031369Y-120329271D01*
X168389800Y-120201655D01*
X167748231Y-120329271D01*
X167204335Y-120692690D01*
X167119800Y-120819206D01*
X167035265Y-120692690D01*
X166573120Y-120383895D01*
X166604223Y-120383922D01*
X167076208Y-120188902D01*
X167437633Y-119828107D01*
X167535386Y-119592692D01*
X168050000Y-119592692D01*
X168356283Y-119535061D01*
X168637585Y-119354048D01*
X168647917Y-119338927D01*
X168922146Y-119526300D01*
X169250000Y-119592692D01*
X169627466Y-119592692D01*
X169921893Y-119887633D01*
X170393536Y-120083477D01*
X170904223Y-120083922D01*
X171188620Y-119966412D01*
X171214939Y-120106283D01*
X171395952Y-120387585D01*
X171672146Y-120576300D01*
X171835691Y-120609419D01*
X171957813Y-120792187D01*
X172113696Y-120948070D01*
X172106902Y-120958238D01*
X171766482Y-120625854D01*
X171246911Y-120410646D01*
X171008300Y-120550638D01*
X171008300Y-121832500D01*
X171028300Y-121832500D01*
X171028300Y-121989500D01*
X171008300Y-121989500D01*
X171008300Y-123271362D01*
X171246911Y-123411354D01*
X171766482Y-123196146D01*
X172106902Y-122863762D01*
X172284335Y-123129310D01*
X172828231Y-123492729D01*
X173469800Y-123620345D01*
X174111369Y-123492729D01*
X174655265Y-123129310D01*
X174832698Y-122863762D01*
X175173118Y-123196146D01*
X175692689Y-123411354D01*
X175931300Y-123271362D01*
X175931300Y-121989500D01*
X175911300Y-121989500D01*
X175911300Y-121832500D01*
X175931300Y-121832500D01*
X175931300Y-121812500D01*
X176088300Y-121812500D01*
X176088300Y-121832500D01*
X176108300Y-121832500D01*
X176108300Y-121989500D01*
X176088300Y-121989500D01*
X176088300Y-123271362D01*
X176326911Y-123411354D01*
X176846482Y-123196146D01*
X177186902Y-122863762D01*
X177364335Y-123129310D01*
X177908231Y-123492729D01*
X178549800Y-123620345D01*
X179191369Y-123492729D01*
X179735265Y-123129310D01*
X180098684Y-122585414D01*
X180226300Y-121943845D01*
X180226300Y-121878155D01*
X180098684Y-121236586D01*
X179735265Y-120692690D01*
X179517799Y-120547384D01*
X179837633Y-120228107D01*
X180033477Y-119756464D01*
X180033681Y-119522647D01*
X180062585Y-119504048D01*
X180251300Y-119227854D01*
X180317692Y-118900000D01*
X180317692Y-117900000D01*
X180260061Y-117593717D01*
X180253547Y-117583595D01*
X180323500Y-117583656D01*
X180323500Y-122586942D01*
X179186942Y-123723500D01*
X132187918Y-123723500D01*
X132086198Y-123621780D01*
X132466038Y-123420498D01*
X132671888Y-122936539D01*
X133003318Y-123260146D01*
X133522889Y-123475354D01*
X133761500Y-123335362D01*
X133761500Y-122053500D01*
X133741500Y-122053500D01*
X133741500Y-121896500D01*
X133761500Y-121896500D01*
X133761500Y-120614638D01*
X133522889Y-120474646D01*
X133003318Y-120689854D01*
X132694402Y-120991477D01*
X132563955Y-120667922D01*
X132876208Y-120538902D01*
X133237633Y-120178107D01*
X133433477Y-119706464D01*
X133433922Y-119195777D01*
X133325551Y-118933500D01*
X133600625Y-118933500D01*
X133771500Y-118762625D01*
X133771500Y-117478500D01*
X133928500Y-117478500D01*
X133928500Y-118762625D01*
X134099375Y-118933500D01*
X134635957Y-118933500D01*
X134887172Y-118829443D01*
X135079444Y-118637171D01*
X135166500Y-118426998D01*
X135166500Y-118735956D01*
X135270556Y-118987171D01*
X135462828Y-119179443D01*
X135714043Y-119283500D01*
X136575625Y-119283500D01*
X136746500Y-119112625D01*
X136746500Y-117428500D01*
X135337375Y-117428500D01*
X135166500Y-117599375D01*
X135166500Y-117632375D01*
X135012625Y-117478500D01*
X133928500Y-117478500D01*
X133771500Y-117478500D01*
X132687375Y-117478500D01*
X132516500Y-117649375D01*
X132516500Y-118212214D01*
X132406464Y-118166523D01*
X132250761Y-118166387D01*
X132192187Y-118107813D01*
X131874609Y-117895614D01*
X131842692Y-117889265D01*
X131842692Y-116550000D01*
X131817111Y-116414044D01*
X132516500Y-116414044D01*
X132516500Y-117150625D01*
X132687375Y-117321500D01*
X133771500Y-117321500D01*
X133771500Y-116037375D01*
X133600625Y-115866500D01*
X133064043Y-115866500D01*
X132812828Y-115970557D01*
X132620556Y-116162829D01*
X132516500Y-116414044D01*
X131817111Y-116414044D01*
X131785061Y-116243717D01*
X131604048Y-115962415D01*
X131372053Y-115803900D01*
X135232833Y-115803900D01*
X135166500Y-115964044D01*
X135166500Y-116373002D01*
X135079444Y-116162829D01*
X134887172Y-115970557D01*
X134635957Y-115866500D01*
X134099375Y-115866500D01*
X133928500Y-116037375D01*
X133928500Y-117321500D01*
X135012625Y-117321500D01*
X135183500Y-117150625D01*
X135183500Y-117117625D01*
X135337375Y-117271500D01*
X136746500Y-117271500D01*
X136746500Y-117251500D01*
X136903500Y-117251500D01*
X136903500Y-117271500D01*
X136923500Y-117271500D01*
X136923500Y-117428500D01*
X136903500Y-117428500D01*
X136903500Y-119112625D01*
X137074375Y-119283500D01*
X137935957Y-119283500D01*
X138187172Y-119179443D01*
X138250173Y-119116442D01*
X138295952Y-119187585D01*
X138572146Y-119376300D01*
X138900000Y-119442692D01*
X140850000Y-119442692D01*
X141156283Y-119385061D01*
X141316337Y-119282069D01*
X141316078Y-119579223D01*
X141511098Y-120051208D01*
X141790871Y-120331469D01*
X141460000Y-120265655D01*
X140818431Y-120393271D01*
X140274535Y-120756690D01*
X140190000Y-120883206D01*
X140105465Y-120756690D01*
X139561569Y-120393271D01*
X138920000Y-120265655D01*
X138278431Y-120393271D01*
X137734535Y-120756690D01*
X137650000Y-120883206D01*
X137565465Y-120756690D01*
X137021569Y-120393271D01*
X136380000Y-120265655D01*
X135738431Y-120393271D01*
X135194535Y-120756690D01*
X135017102Y-121022238D01*
X134676682Y-120689854D01*
X134157111Y-120474646D01*
X133918500Y-120614638D01*
X133918500Y-121896500D01*
X133938500Y-121896500D01*
X133938500Y-122053500D01*
X133918500Y-122053500D01*
X133918500Y-123335362D01*
X134157111Y-123475354D01*
X134676682Y-123260146D01*
X135017102Y-122927762D01*
X135194535Y-123193310D01*
X135738431Y-123556729D01*
X136380000Y-123684345D01*
X137021569Y-123556729D01*
X137565465Y-123193310D01*
X137650000Y-123066794D01*
X137734535Y-123193310D01*
X138278431Y-123556729D01*
X138920000Y-123684345D01*
X139561569Y-123556729D01*
X140105465Y-123193310D01*
X140190000Y-123066794D01*
X140274535Y-123193310D01*
X140818431Y-123556729D01*
X141460000Y-123684345D01*
X142101569Y-123556729D01*
X142645465Y-123193310D01*
X142730000Y-123066794D01*
X142814535Y-123193310D01*
X143358431Y-123556729D01*
X144000000Y-123684345D01*
X144641569Y-123556729D01*
X145185465Y-123193310D01*
X145270000Y-123066794D01*
X145354535Y-123193310D01*
X145898431Y-123556729D01*
X146540000Y-123684345D01*
X147181569Y-123556729D01*
X147725465Y-123193310D01*
X147810000Y-123066794D01*
X147894535Y-123193310D01*
X148438431Y-123556729D01*
X149080000Y-123684345D01*
X149721569Y-123556729D01*
X150265465Y-123193310D01*
X150350000Y-123066794D01*
X150434535Y-123193310D01*
X150978431Y-123556729D01*
X151620000Y-123684345D01*
X152261569Y-123556729D01*
X152805465Y-123193310D01*
X152890000Y-123066794D01*
X152974535Y-123193310D01*
X153518431Y-123556729D01*
X154160000Y-123684345D01*
X154801569Y-123556729D01*
X155177200Y-123305741D01*
X155245952Y-123412585D01*
X155522146Y-123601300D01*
X155850000Y-123667692D01*
X157550000Y-123667692D01*
X157856283Y-123610061D01*
X158137585Y-123429048D01*
X158326300Y-123152854D01*
X158392692Y-122825000D01*
X158392692Y-121125000D01*
X158335061Y-120818717D01*
X158154048Y-120537415D01*
X157877854Y-120348700D01*
X157840955Y-120341228D01*
X157937585Y-120279048D01*
X158126300Y-120002854D01*
X158192692Y-119675000D01*
X158192692Y-118975000D01*
X158135061Y-118668717D01*
X157954048Y-118387415D01*
X157938927Y-118377083D01*
X158126300Y-118102854D01*
X158192692Y-117775000D01*
X158192692Y-117075000D01*
X158135061Y-116768717D01*
X157954048Y-116487415D01*
X157678900Y-116299415D01*
X157678900Y-116150000D01*
X157604386Y-115775391D01*
X157392187Y-115457813D01*
X157233788Y-115299414D01*
X157233922Y-115145777D01*
X157038902Y-114673792D01*
X156712527Y-114346847D01*
X157392187Y-113667187D01*
X157442015Y-113592615D01*
X157470952Y-113637585D01*
G36*
X130414958Y-121922258D02*
X130400816Y-121936400D01*
X130414958Y-121950542D01*
X130303942Y-122061558D01*
X130289800Y-122047416D01*
X130275658Y-122061558D01*
X130164642Y-121950542D01*
X130178784Y-121936400D01*
X130164642Y-121922258D01*
X130275658Y-121811242D01*
X130289800Y-121825384D01*
X130303942Y-121811242D01*
X130414958Y-121922258D01*
X130414958Y-121922258D01*
G37*
X130414958Y-121922258D02*
X130400816Y-121936400D01*
X130414958Y-121950542D01*
X130303942Y-122061558D01*
X130289800Y-122047416D01*
X130275658Y-122061558D01*
X130164642Y-121950542D01*
X130178784Y-121936400D01*
X130164642Y-121922258D01*
X130275658Y-121811242D01*
X130289800Y-121825384D01*
X130303942Y-121811242D01*
X130414958Y-121922258D01*
G36*
X168222146Y-115526300D02*
X168266395Y-115535261D01*
X168157813Y-115607813D01*
X167113891Y-116651735D01*
X167043717Y-116664939D01*
X166762415Y-116845952D01*
X166573700Y-117122146D01*
X166507308Y-117450000D01*
X166507308Y-117558318D01*
X166249414Y-117816212D01*
X166095777Y-117816078D01*
X165623792Y-118011098D01*
X165262367Y-118371893D01*
X165066523Y-118843536D01*
X165066078Y-119354223D01*
X165261098Y-119826208D01*
X165621893Y-120187633D01*
X165718540Y-120227764D01*
X165208231Y-120329271D01*
X164664335Y-120692690D01*
X164579800Y-120819206D01*
X164495265Y-120692690D01*
X163951369Y-120329271D01*
X163309800Y-120201655D01*
X162668231Y-120329271D01*
X162292600Y-120580259D01*
X162223848Y-120473415D01*
X161947654Y-120284700D01*
X161767417Y-120248201D01*
X161837633Y-120178107D01*
X162033477Y-119706464D01*
X162033922Y-119195777D01*
X161838902Y-118723792D01*
X161764615Y-118649375D01*
X162041500Y-118649375D01*
X162041500Y-119035957D01*
X162145557Y-119287172D01*
X162337829Y-119479444D01*
X162589044Y-119583500D01*
X163100625Y-119583500D01*
X163271500Y-119412625D01*
X163271500Y-118478500D01*
X163428500Y-118478500D01*
X163428500Y-119412625D01*
X163599375Y-119583500D01*
X164110956Y-119583500D01*
X164362171Y-119479444D01*
X164554443Y-119287172D01*
X164658500Y-119035957D01*
X164658500Y-118649375D01*
X164487625Y-118478500D01*
X163428500Y-118478500D01*
X163271500Y-118478500D01*
X162212375Y-118478500D01*
X162041500Y-118649375D01*
X161764615Y-118649375D01*
X161703500Y-118588154D01*
X161703500Y-118294952D01*
X162041500Y-117956952D01*
X162041500Y-118150625D01*
X162212375Y-118321500D01*
X163271500Y-118321500D01*
X163271500Y-118301500D01*
X163428500Y-118301500D01*
X163428500Y-118321500D01*
X164487625Y-118321500D01*
X164658500Y-118150625D01*
X164658500Y-117764043D01*
X164554443Y-117512828D01*
X164552289Y-117510674D01*
X164562585Y-117504048D01*
X164665450Y-117353500D01*
X165300000Y-117353500D01*
X165664889Y-117280919D01*
X165974226Y-117074226D01*
X166114695Y-116933757D01*
X166304223Y-116933922D01*
X166776208Y-116738902D01*
X167137633Y-116378107D01*
X167333477Y-115906464D01*
X167333750Y-115592692D01*
X167350000Y-115592692D01*
X167656283Y-115535061D01*
X167937585Y-115354048D01*
X167947917Y-115338927D01*
X168222146Y-115526300D01*
X168222146Y-115526300D01*
G37*
X168222146Y-115526300D02*
X168266395Y-115535261D01*
X168157813Y-115607813D01*
X167113891Y-116651735D01*
X167043717Y-116664939D01*
X166762415Y-116845952D01*
X166573700Y-117122146D01*
X166507308Y-117450000D01*
X166507308Y-117558318D01*
X166249414Y-117816212D01*
X166095777Y-117816078D01*
X165623792Y-118011098D01*
X165262367Y-118371893D01*
X165066523Y-118843536D01*
X165066078Y-119354223D01*
X165261098Y-119826208D01*
X165621893Y-120187633D01*
X165718540Y-120227764D01*
X165208231Y-120329271D01*
X164664335Y-120692690D01*
X164579800Y-120819206D01*
X164495265Y-120692690D01*
X163951369Y-120329271D01*
X163309800Y-120201655D01*
X162668231Y-120329271D01*
X162292600Y-120580259D01*
X162223848Y-120473415D01*
X161947654Y-120284700D01*
X161767417Y-120248201D01*
X161837633Y-120178107D01*
X162033477Y-119706464D01*
X162033922Y-119195777D01*
X161838902Y-118723792D01*
X161764615Y-118649375D01*
X162041500Y-118649375D01*
X162041500Y-119035957D01*
X162145557Y-119287172D01*
X162337829Y-119479444D01*
X162589044Y-119583500D01*
X163100625Y-119583500D01*
X163271500Y-119412625D01*
X163271500Y-118478500D01*
X163428500Y-118478500D01*
X163428500Y-119412625D01*
X163599375Y-119583500D01*
X164110956Y-119583500D01*
X164362171Y-119479444D01*
X164554443Y-119287172D01*
X164658500Y-119035957D01*
X164658500Y-118649375D01*
X164487625Y-118478500D01*
X163428500Y-118478500D01*
X163271500Y-118478500D01*
X162212375Y-118478500D01*
X162041500Y-118649375D01*
X161764615Y-118649375D01*
X161703500Y-118588154D01*
X161703500Y-118294952D01*
X162041500Y-117956952D01*
X162041500Y-118150625D01*
X162212375Y-118321500D01*
X163271500Y-118321500D01*
X163271500Y-118301500D01*
X163428500Y-118301500D01*
X163428500Y-118321500D01*
X164487625Y-118321500D01*
X164658500Y-118150625D01*
X164658500Y-117764043D01*
X164554443Y-117512828D01*
X164552289Y-117510674D01*
X164562585Y-117504048D01*
X164665450Y-117353500D01*
X165300000Y-117353500D01*
X165664889Y-117280919D01*
X165974226Y-117074226D01*
X166114695Y-116933757D01*
X166304223Y-116933922D01*
X166776208Y-116738902D01*
X167137633Y-116378107D01*
X167333477Y-115906464D01*
X167333750Y-115592692D01*
X167350000Y-115592692D01*
X167656283Y-115535061D01*
X167937585Y-115354048D01*
X167947917Y-115338927D01*
X168222146Y-115526300D01*
G36*
X123761098Y-111926208D02*
X124121893Y-112287633D01*
X124378718Y-112394276D01*
X124367109Y-112451602D01*
X124357813Y-112457813D01*
X121732813Y-115082813D01*
X121732811Y-115082816D01*
X120957813Y-115857813D01*
X120594526Y-116221100D01*
X120035721Y-116221100D01*
X120312972Y-115944332D01*
X120789956Y-114795628D01*
X120790578Y-114083500D01*
X121075625Y-114083500D01*
X121246500Y-113912625D01*
X121246500Y-112978500D01*
X121403500Y-112978500D01*
X121403500Y-113912625D01*
X121574375Y-114083500D01*
X122085956Y-114083500D01*
X122337171Y-113979444D01*
X122529443Y-113787172D01*
X122633500Y-113535957D01*
X122633500Y-113149375D01*
X122462625Y-112978500D01*
X121403500Y-112978500D01*
X121246500Y-112978500D01*
X121226500Y-112978500D01*
X121226500Y-112821500D01*
X121246500Y-112821500D01*
X121246500Y-112801500D01*
X121403500Y-112801500D01*
X121403500Y-112821500D01*
X122462625Y-112821500D01*
X122633500Y-112650625D01*
X122633500Y-112264043D01*
X122529443Y-112012828D01*
X122527289Y-112010674D01*
X122537585Y-112004048D01*
X122623095Y-111878900D01*
X123741551Y-111878900D01*
X123761098Y-111926208D01*
X123761098Y-111926208D01*
G37*
X123761098Y-111926208D02*
X124121893Y-112287633D01*
X124378718Y-112394276D01*
X124367109Y-112451602D01*
X124357813Y-112457813D01*
X121732813Y-115082813D01*
X121732811Y-115082816D01*
X120957813Y-115857813D01*
X120594526Y-116221100D01*
X120035721Y-116221100D01*
X120312972Y-115944332D01*
X120789956Y-114795628D01*
X120790578Y-114083500D01*
X121075625Y-114083500D01*
X121246500Y-113912625D01*
X121246500Y-112978500D01*
X121403500Y-112978500D01*
X121403500Y-113912625D01*
X121574375Y-114083500D01*
X122085956Y-114083500D01*
X122337171Y-113979444D01*
X122529443Y-113787172D01*
X122633500Y-113535957D01*
X122633500Y-113149375D01*
X122462625Y-112978500D01*
X121403500Y-112978500D01*
X121246500Y-112978500D01*
X121226500Y-112978500D01*
X121226500Y-112821500D01*
X121246500Y-112821500D01*
X121246500Y-112801500D01*
X121403500Y-112801500D01*
X121403500Y-112821500D01*
X122462625Y-112821500D01*
X122633500Y-112650625D01*
X122633500Y-112264043D01*
X122529443Y-112012828D01*
X122527289Y-112010674D01*
X122537585Y-112004048D01*
X122623095Y-111878900D01*
X123741551Y-111878900D01*
X123761098Y-111926208D01*
G36*
X180323500Y-113629655D02*
X180323500Y-115016255D01*
X180158500Y-115016111D01*
X180158500Y-114949375D01*
X179987625Y-114778500D01*
X178928500Y-114778500D01*
X178928500Y-114798500D01*
X178771500Y-114798500D01*
X178771500Y-114778500D01*
X177712375Y-114778500D01*
X177541500Y-114949375D01*
X177541500Y-115107126D01*
X177118090Y-114683716D01*
X177354223Y-114683922D01*
X177651829Y-114560954D01*
X177712375Y-114621500D01*
X178771500Y-114621500D01*
X178771500Y-114601500D01*
X178928500Y-114601500D01*
X178928500Y-114621500D01*
X179987625Y-114621500D01*
X180158500Y-114450625D01*
X180158500Y-114064043D01*
X180054443Y-113812828D01*
X180052289Y-113810674D01*
X180062585Y-113804048D01*
X180181827Y-113629531D01*
X180323500Y-113629655D01*
X180323500Y-113629655D01*
G37*
X180323500Y-113629655D02*
X180323500Y-115016255D01*
X180158500Y-115016111D01*
X180158500Y-114949375D01*
X179987625Y-114778500D01*
X178928500Y-114778500D01*
X178928500Y-114798500D01*
X178771500Y-114798500D01*
X178771500Y-114778500D01*
X177712375Y-114778500D01*
X177541500Y-114949375D01*
X177541500Y-115107126D01*
X177118090Y-114683716D01*
X177354223Y-114683922D01*
X177651829Y-114560954D01*
X177712375Y-114621500D01*
X178771500Y-114621500D01*
X178771500Y-114601500D01*
X178928500Y-114601500D01*
X178928500Y-114621500D01*
X179987625Y-114621500D01*
X180158500Y-114450625D01*
X180158500Y-114064043D01*
X180054443Y-113812828D01*
X180052289Y-113810674D01*
X180062585Y-113804048D01*
X180181827Y-113629531D01*
X180323500Y-113629655D01*
G36*
X114536958Y-104790171D02*
X114658643Y-105084670D01*
X114034198Y-105090522D01*
X113479638Y-105320227D01*
X113400205Y-105596189D01*
X114364000Y-106559984D01*
X114378142Y-106545842D01*
X114489158Y-106656858D01*
X114475016Y-106671000D01*
X115438811Y-107634795D01*
X115714773Y-107555362D01*
X115950381Y-106971126D01*
X115949192Y-106844273D01*
X117039372Y-107296956D01*
X118283171Y-107298042D01*
X119432706Y-106823063D01*
X120312972Y-105944332D01*
X120334238Y-105893119D01*
X120364939Y-106056283D01*
X120545952Y-106337585D01*
X120622217Y-106389694D01*
X120484535Y-106481690D01*
X120121116Y-107025586D01*
X119993639Y-107666458D01*
X119825000Y-107632308D01*
X119125000Y-107632308D01*
X118818717Y-107689939D01*
X118537415Y-107870952D01*
X118527083Y-107886073D01*
X118252854Y-107698700D01*
X117925000Y-107632308D01*
X117225000Y-107632308D01*
X116918717Y-107689939D01*
X116637415Y-107870952D01*
X116449415Y-108146100D01*
X115780399Y-108146100D01*
X115343261Y-107708198D01*
X115252491Y-107670507D01*
X114364000Y-106782016D01*
X113476303Y-107669713D01*
X113387294Y-107706491D01*
X112901198Y-108191739D01*
X112637800Y-108826071D01*
X112637201Y-109512915D01*
X112899491Y-110147706D01*
X113172359Y-110421051D01*
X112901198Y-110691739D01*
X112637800Y-111326071D01*
X112637201Y-112012915D01*
X112899491Y-112647706D01*
X113384739Y-113133802D01*
X114019071Y-113397200D01*
X114599775Y-113397706D01*
X114538044Y-113546372D01*
X114537496Y-114173500D01*
X111726500Y-114173500D01*
X111726500Y-106370874D01*
X112777619Y-106370874D01*
X112783522Y-107000802D01*
X113013227Y-107555362D01*
X113289189Y-107634795D01*
X114252984Y-106671000D01*
X113289189Y-105707205D01*
X113013227Y-105786638D01*
X112777619Y-106370874D01*
X111726500Y-106370874D01*
X111726500Y-104226500D01*
X114537450Y-104226500D01*
X114536958Y-104790171D01*
X114536958Y-104790171D01*
G37*
X114536958Y-104790171D02*
X114658643Y-105084670D01*
X114034198Y-105090522D01*
X113479638Y-105320227D01*
X113400205Y-105596189D01*
X114364000Y-106559984D01*
X114378142Y-106545842D01*
X114489158Y-106656858D01*
X114475016Y-106671000D01*
X115438811Y-107634795D01*
X115714773Y-107555362D01*
X115950381Y-106971126D01*
X115949192Y-106844273D01*
X117039372Y-107296956D01*
X118283171Y-107298042D01*
X119432706Y-106823063D01*
X120312972Y-105944332D01*
X120334238Y-105893119D01*
X120364939Y-106056283D01*
X120545952Y-106337585D01*
X120622217Y-106389694D01*
X120484535Y-106481690D01*
X120121116Y-107025586D01*
X119993639Y-107666458D01*
X119825000Y-107632308D01*
X119125000Y-107632308D01*
X118818717Y-107689939D01*
X118537415Y-107870952D01*
X118527083Y-107886073D01*
X118252854Y-107698700D01*
X117925000Y-107632308D01*
X117225000Y-107632308D01*
X116918717Y-107689939D01*
X116637415Y-107870952D01*
X116449415Y-108146100D01*
X115780399Y-108146100D01*
X115343261Y-107708198D01*
X115252491Y-107670507D01*
X114364000Y-106782016D01*
X113476303Y-107669713D01*
X113387294Y-107706491D01*
X112901198Y-108191739D01*
X112637800Y-108826071D01*
X112637201Y-109512915D01*
X112899491Y-110147706D01*
X113172359Y-110421051D01*
X112901198Y-110691739D01*
X112637800Y-111326071D01*
X112637201Y-112012915D01*
X112899491Y-112647706D01*
X113384739Y-113133802D01*
X114019071Y-113397200D01*
X114599775Y-113397706D01*
X114538044Y-113546372D01*
X114537496Y-114173500D01*
X111726500Y-114173500D01*
X111726500Y-106370874D01*
X112777619Y-106370874D01*
X112783522Y-107000802D01*
X113013227Y-107555362D01*
X113289189Y-107634795D01*
X114252984Y-106671000D01*
X113289189Y-105707205D01*
X113013227Y-105786638D01*
X112777619Y-106370874D01*
X111726500Y-106370874D01*
X111726500Y-104226500D01*
X114537450Y-104226500D01*
X114536958Y-104790171D01*
G36*
X144673227Y-87012209D02*
X144912729Y-87591849D01*
X145355819Y-88035712D01*
X145935039Y-88276225D01*
X146562209Y-88276773D01*
X147141849Y-88037271D01*
X147585712Y-87594181D01*
X147826225Y-87014961D01*
X147826338Y-86885712D01*
X150682813Y-89742187D01*
X151000391Y-89954386D01*
X151375000Y-90028900D01*
X151699076Y-90028900D01*
X151516523Y-90468536D01*
X151516387Y-90624239D01*
X151157813Y-90982813D01*
X151005162Y-91211271D01*
X150912415Y-91270952D01*
X150902083Y-91286073D01*
X150627854Y-91098700D01*
X150300000Y-91032308D01*
X149600000Y-91032308D01*
X149293717Y-91089939D01*
X149012415Y-91270952D01*
X148824415Y-91546100D01*
X147800000Y-91546100D01*
X147425391Y-91620614D01*
X147107813Y-91832813D01*
X145332813Y-93607813D01*
X145120614Y-93925391D01*
X145046100Y-94300000D01*
X145046100Y-96050000D01*
X145082323Y-96232107D01*
X145116552Y-96414649D01*
X145119546Y-96419237D01*
X145120614Y-96424609D01*
X145223781Y-96579009D01*
X145325249Y-96734539D01*
X145866223Y-97287535D01*
X145866078Y-97454223D01*
X146061098Y-97926208D01*
X146180781Y-98046100D01*
X144086650Y-98046100D01*
X143978107Y-97937367D01*
X143506464Y-97741523D01*
X142995777Y-97741078D01*
X142523792Y-97936098D01*
X142162367Y-98296893D01*
X142015621Y-98650296D01*
X141778107Y-98412367D01*
X141306464Y-98216523D01*
X140795777Y-98216078D01*
X140323792Y-98411098D01*
X139962367Y-98771893D01*
X139766523Y-99243536D01*
X139766078Y-99754223D01*
X139961098Y-100226208D01*
X140321893Y-100587633D01*
X140793536Y-100783477D01*
X141304223Y-100783922D01*
X141776208Y-100588902D01*
X142137633Y-100228107D01*
X142284379Y-99874704D01*
X142521893Y-100112633D01*
X142993536Y-100308477D01*
X143504223Y-100308922D01*
X143976208Y-100113902D01*
X144086402Y-100003900D01*
X148088262Y-100003900D01*
X148146893Y-100062633D01*
X148618536Y-100258477D01*
X149129223Y-100258922D01*
X149601208Y-100063902D01*
X149962633Y-99703107D01*
X150081934Y-99415800D01*
X150095952Y-99437585D01*
X150372146Y-99626300D01*
X150700000Y-99692692D01*
X151400000Y-99692692D01*
X151636170Y-99648254D01*
X151636078Y-99754223D01*
X151831098Y-100226208D01*
X152188247Y-100583981D01*
X151783792Y-100751098D01*
X151422367Y-101111893D01*
X151226523Y-101583536D01*
X151226387Y-101739239D01*
X150637813Y-102327813D01*
X150425614Y-102645391D01*
X150351100Y-103020000D01*
X150351100Y-104851015D01*
X150242415Y-104920952D01*
X150222181Y-104950566D01*
X150217172Y-104945557D01*
X149965957Y-104841500D01*
X149579375Y-104841500D01*
X149408502Y-105012373D01*
X149408502Y-104841500D01*
X149333500Y-104841500D01*
X149333500Y-104349375D01*
X149162625Y-104178500D01*
X148228500Y-104178500D01*
X148228500Y-104198500D01*
X148071500Y-104198500D01*
X148071500Y-104178500D01*
X148051500Y-104178500D01*
X148051500Y-104021500D01*
X148071500Y-104021500D01*
X148071500Y-102962375D01*
X148228500Y-102962375D01*
X148228500Y-104021500D01*
X149162625Y-104021500D01*
X149333500Y-103850625D01*
X149333500Y-103339044D01*
X149229444Y-103087829D01*
X149037172Y-102895557D01*
X148785957Y-102791500D01*
X148399375Y-102791500D01*
X148228500Y-102962375D01*
X148071500Y-102962375D01*
X147900625Y-102791500D01*
X147514043Y-102791500D01*
X147262828Y-102895557D01*
X147260674Y-102897711D01*
X147254048Y-102887415D01*
X146977854Y-102698700D01*
X146650000Y-102632308D01*
X145650000Y-102632308D01*
X145343717Y-102689939D01*
X145062415Y-102870952D01*
X144873700Y-103147146D01*
X144807308Y-103475000D01*
X144807308Y-104725000D01*
X144864939Y-105031283D01*
X145045952Y-105312585D01*
X145090967Y-105343343D01*
X145062367Y-105371893D01*
X144866523Y-105843536D01*
X144866078Y-106354223D01*
X145061098Y-106826208D01*
X145366664Y-107132308D01*
X145300000Y-107132308D01*
X144993717Y-107189939D01*
X144798696Y-107315431D01*
X144627854Y-107198700D01*
X144300000Y-107132308D01*
X143300000Y-107132308D01*
X142993717Y-107189939D01*
X142712415Y-107370952D01*
X142523700Y-107647146D01*
X142457308Y-107975000D01*
X142457308Y-108358318D01*
X141032813Y-109782813D01*
X140843541Y-110066078D01*
X140637367Y-110271893D01*
X140441523Y-110743536D01*
X140441189Y-111126276D01*
X140056464Y-110966523D01*
X139545777Y-110966078D01*
X139073792Y-111161098D01*
X138712367Y-111521893D01*
X138516523Y-111993536D01*
X138516078Y-112504223D01*
X138534917Y-112549818D01*
X138262367Y-112821893D01*
X138066523Y-113293536D01*
X138066078Y-113804223D01*
X138083381Y-113846100D01*
X136533573Y-113846100D01*
X136533922Y-113445777D01*
X136338902Y-112973792D01*
X135978107Y-112612367D01*
X135506464Y-112416523D01*
X135350761Y-112416387D01*
X135292187Y-112357813D01*
X134974609Y-112145614D01*
X134600000Y-112071100D01*
X133610097Y-112071100D01*
X133776300Y-111827854D01*
X133842692Y-111500000D01*
X133842692Y-110800000D01*
X133785061Y-110493717D01*
X133604048Y-110212415D01*
X133372526Y-110054223D01*
X134466078Y-110054223D01*
X134661098Y-110526208D01*
X135021893Y-110887633D01*
X135493536Y-111083477D01*
X136004223Y-111083922D01*
X136476208Y-110888902D01*
X136837633Y-110528107D01*
X137033477Y-110056464D01*
X137033922Y-109545777D01*
X136838902Y-109073792D01*
X136478107Y-108712367D01*
X136006464Y-108516523D01*
X135495777Y-108516078D01*
X135023792Y-108711098D01*
X134662367Y-109071893D01*
X134466523Y-109543536D01*
X134466078Y-110054223D01*
X133372526Y-110054223D01*
X133328900Y-110024415D01*
X133328900Y-109363396D01*
X133751208Y-109188902D01*
X134112633Y-108828107D01*
X134308477Y-108356464D01*
X134308922Y-107845777D01*
X134113902Y-107373792D01*
X133753107Y-107012367D01*
X133377834Y-106856540D01*
X133813063Y-106421311D01*
X133814939Y-106431283D01*
X133995952Y-106712585D01*
X134272146Y-106901300D01*
X134600000Y-106967692D01*
X136300000Y-106967692D01*
X136606283Y-106910061D01*
X136887585Y-106729048D01*
X136972139Y-106605299D01*
X137348431Y-106856729D01*
X137990000Y-106984345D01*
X138631569Y-106856729D01*
X139175465Y-106493310D01*
X139260000Y-106366794D01*
X139344535Y-106493310D01*
X139888431Y-106856729D01*
X140530000Y-106984345D01*
X141171569Y-106856729D01*
X141715465Y-106493310D01*
X141800000Y-106366794D01*
X141884535Y-106493310D01*
X142428431Y-106856729D01*
X143070000Y-106984345D01*
X143711569Y-106856729D01*
X144255465Y-106493310D01*
X144618884Y-105949414D01*
X144746500Y-105307845D01*
X144746500Y-105242155D01*
X144618884Y-104600586D01*
X144255465Y-104056690D01*
X143711569Y-103693271D01*
X143070000Y-103565655D01*
X142428431Y-103693271D01*
X141884535Y-104056690D01*
X141800000Y-104183206D01*
X141715465Y-104056690D01*
X141171569Y-103693271D01*
X140530000Y-103565655D01*
X139888431Y-103693271D01*
X139344535Y-104056690D01*
X139260000Y-104183206D01*
X139175465Y-104056690D01*
X138631569Y-103693271D01*
X137990000Y-103565655D01*
X137348431Y-103693271D01*
X136972800Y-103944259D01*
X136904048Y-103837415D01*
X136627854Y-103648700D01*
X136300000Y-103582308D01*
X134600000Y-103582308D01*
X134403900Y-103619207D01*
X134403900Y-102479223D01*
X142241078Y-102479223D01*
X142436098Y-102951208D01*
X142796893Y-103312633D01*
X143268536Y-103508477D01*
X143779223Y-103508922D01*
X144251208Y-103313902D01*
X144612633Y-102953107D01*
X144808477Y-102481464D01*
X144808922Y-101970777D01*
X144719444Y-101754223D01*
X146266078Y-101754223D01*
X146461098Y-102226208D01*
X146821893Y-102587633D01*
X147293536Y-102783477D01*
X147804223Y-102783922D01*
X148276208Y-102588902D01*
X148637633Y-102228107D01*
X148833477Y-101756464D01*
X148833922Y-101245777D01*
X148638902Y-100773792D01*
X148278107Y-100412367D01*
X147806464Y-100216523D01*
X147295777Y-100216078D01*
X146823792Y-100411098D01*
X146462367Y-100771893D01*
X146266523Y-101243536D01*
X146266078Y-101754223D01*
X144719444Y-101754223D01*
X144613902Y-101498792D01*
X144253107Y-101137367D01*
X143781464Y-100941523D01*
X143270777Y-100941078D01*
X142798792Y-101136098D01*
X142437367Y-101496893D01*
X142241523Y-101968536D01*
X142241078Y-102479223D01*
X134403900Y-102479223D01*
X134403900Y-100754223D01*
X134466078Y-100754223D01*
X134661098Y-101226208D01*
X135021893Y-101587633D01*
X135493536Y-101783477D01*
X136004223Y-101783922D01*
X136476208Y-101588902D01*
X136837633Y-101228107D01*
X137033477Y-100756464D01*
X137033922Y-100245777D01*
X136838902Y-99773792D01*
X136478107Y-99412367D01*
X136006464Y-99216523D01*
X135495777Y-99216078D01*
X135023792Y-99411098D01*
X134662367Y-99771893D01*
X134466523Y-100243536D01*
X134466078Y-100754223D01*
X134403900Y-100754223D01*
X134403900Y-98550000D01*
X134329386Y-98175391D01*
X134117187Y-97857813D01*
X133213597Y-96954223D01*
X136066078Y-96954223D01*
X136261098Y-97426208D01*
X136621893Y-97787633D01*
X137093536Y-97983477D01*
X137604223Y-97983922D01*
X138076208Y-97788902D01*
X138437633Y-97428107D01*
X138633477Y-96956464D01*
X138633922Y-96445777D01*
X138438902Y-95973792D01*
X138078107Y-95612367D01*
X137606464Y-95416523D01*
X137095777Y-95416078D01*
X136623792Y-95611098D01*
X136262367Y-95971893D01*
X136066523Y-96443536D01*
X136066078Y-96954223D01*
X133213597Y-96954223D01*
X133083788Y-96824414D01*
X133083922Y-96670777D01*
X132888902Y-96198792D01*
X132528107Y-95837367D01*
X132056464Y-95641523D01*
X131545777Y-95641078D01*
X131073792Y-95836098D01*
X130712367Y-96196893D01*
X130516523Y-96668536D01*
X130516078Y-97179223D01*
X130711098Y-97651208D01*
X131071893Y-98012633D01*
X131543536Y-98208477D01*
X131699239Y-98208613D01*
X132446100Y-98955474D01*
X132446100Y-101407308D01*
X131633500Y-101407308D01*
X131633500Y-100549375D01*
X131462625Y-100378500D01*
X130528500Y-100378500D01*
X130528500Y-100398500D01*
X130371500Y-100398500D01*
X130371500Y-100378500D01*
X128528500Y-100378500D01*
X128528500Y-100398500D01*
X128371500Y-100398500D01*
X128371500Y-100378500D01*
X128351500Y-100378500D01*
X128351500Y-100221500D01*
X128371500Y-100221500D01*
X128371500Y-98787375D01*
X128528500Y-98787375D01*
X128528500Y-100221500D01*
X130371500Y-100221500D01*
X130371500Y-98787375D01*
X130528500Y-98787375D01*
X130528500Y-100221500D01*
X131462625Y-100221500D01*
X131633500Y-100050625D01*
X131633500Y-99164043D01*
X131529443Y-98912828D01*
X131337171Y-98720556D01*
X131085956Y-98616500D01*
X130699375Y-98616500D01*
X130528500Y-98787375D01*
X130371500Y-98787375D01*
X130200625Y-98616500D01*
X129814044Y-98616500D01*
X129562829Y-98720556D01*
X129450000Y-98833385D01*
X129337171Y-98720556D01*
X129085956Y-98616500D01*
X128699375Y-98616500D01*
X128528500Y-98787375D01*
X128371500Y-98787375D01*
X128200625Y-98616500D01*
X127814044Y-98616500D01*
X127562829Y-98720556D01*
X127560674Y-98722711D01*
X127554048Y-98712415D01*
X127500443Y-98675788D01*
X127552976Y-97467521D01*
X127549687Y-97446179D01*
X127553900Y-97425000D01*
X127531746Y-97313626D01*
X127540115Y-97069259D01*
X129355474Y-95253900D01*
X137085000Y-95253900D01*
X137459609Y-95179386D01*
X137618092Y-95073491D01*
X137983638Y-94922450D01*
X138253925Y-94652635D01*
X138283556Y-94724171D01*
X138475828Y-94916443D01*
X138727043Y-95020500D01*
X139375625Y-95020500D01*
X139546500Y-94849625D01*
X139546500Y-93653500D01*
X139703500Y-93653500D01*
X139703500Y-94849625D01*
X139874375Y-95020500D01*
X140522957Y-95020500D01*
X140774172Y-94916443D01*
X140966444Y-94724171D01*
X141070500Y-94472956D01*
X141070500Y-93824375D01*
X140899625Y-93653500D01*
X139703500Y-93653500D01*
X139546500Y-93653500D01*
X139526500Y-93653500D01*
X139526500Y-93496500D01*
X139546500Y-93496500D01*
X139546500Y-93476500D01*
X139703500Y-93476500D01*
X139703500Y-93496500D01*
X140899625Y-93496500D01*
X141070500Y-93325625D01*
X141070500Y-92677044D01*
X140966444Y-92425829D01*
X140774172Y-92233557D01*
X140702522Y-92203878D01*
X140970880Y-91935988D01*
X141213224Y-91352358D01*
X141213776Y-90720414D01*
X140972450Y-90136362D01*
X140601480Y-89764744D01*
X140970880Y-89395988D01*
X141213224Y-88812358D01*
X141213776Y-88180414D01*
X140972450Y-87596362D01*
X140601480Y-87224744D01*
X140892832Y-86933900D01*
X143945000Y-86933900D01*
X144319609Y-86859386D01*
X144637187Y-86647187D01*
X144673578Y-86610796D01*
X144673227Y-87012209D01*
X144673227Y-87012209D01*
G37*
X144673227Y-87012209D02*
X144912729Y-87591849D01*
X145355819Y-88035712D01*
X145935039Y-88276225D01*
X146562209Y-88276773D01*
X147141849Y-88037271D01*
X147585712Y-87594181D01*
X147826225Y-87014961D01*
X147826338Y-86885712D01*
X150682813Y-89742187D01*
X151000391Y-89954386D01*
X151375000Y-90028900D01*
X151699076Y-90028900D01*
X151516523Y-90468536D01*
X151516387Y-90624239D01*
X151157813Y-90982813D01*
X151005162Y-91211271D01*
X150912415Y-91270952D01*
X150902083Y-91286073D01*
X150627854Y-91098700D01*
X150300000Y-91032308D01*
X149600000Y-91032308D01*
X149293717Y-91089939D01*
X149012415Y-91270952D01*
X148824415Y-91546100D01*
X147800000Y-91546100D01*
X147425391Y-91620614D01*
X147107813Y-91832813D01*
X145332813Y-93607813D01*
X145120614Y-93925391D01*
X145046100Y-94300000D01*
X145046100Y-96050000D01*
X145082323Y-96232107D01*
X145116552Y-96414649D01*
X145119546Y-96419237D01*
X145120614Y-96424609D01*
X145223781Y-96579009D01*
X145325249Y-96734539D01*
X145866223Y-97287535D01*
X145866078Y-97454223D01*
X146061098Y-97926208D01*
X146180781Y-98046100D01*
X144086650Y-98046100D01*
X143978107Y-97937367D01*
X143506464Y-97741523D01*
X142995777Y-97741078D01*
X142523792Y-97936098D01*
X142162367Y-98296893D01*
X142015621Y-98650296D01*
X141778107Y-98412367D01*
X141306464Y-98216523D01*
X140795777Y-98216078D01*
X140323792Y-98411098D01*
X139962367Y-98771893D01*
X139766523Y-99243536D01*
X139766078Y-99754223D01*
X139961098Y-100226208D01*
X140321893Y-100587633D01*
X140793536Y-100783477D01*
X141304223Y-100783922D01*
X141776208Y-100588902D01*
X142137633Y-100228107D01*
X142284379Y-99874704D01*
X142521893Y-100112633D01*
X142993536Y-100308477D01*
X143504223Y-100308922D01*
X143976208Y-100113902D01*
X144086402Y-100003900D01*
X148088262Y-100003900D01*
X148146893Y-100062633D01*
X148618536Y-100258477D01*
X149129223Y-100258922D01*
X149601208Y-100063902D01*
X149962633Y-99703107D01*
X150081934Y-99415800D01*
X150095952Y-99437585D01*
X150372146Y-99626300D01*
X150700000Y-99692692D01*
X151400000Y-99692692D01*
X151636170Y-99648254D01*
X151636078Y-99754223D01*
X151831098Y-100226208D01*
X152188247Y-100583981D01*
X151783792Y-100751098D01*
X151422367Y-101111893D01*
X151226523Y-101583536D01*
X151226387Y-101739239D01*
X150637813Y-102327813D01*
X150425614Y-102645391D01*
X150351100Y-103020000D01*
X150351100Y-104851015D01*
X150242415Y-104920952D01*
X150222181Y-104950566D01*
X150217172Y-104945557D01*
X149965957Y-104841500D01*
X149579375Y-104841500D01*
X149408502Y-105012373D01*
X149408502Y-104841500D01*
X149333500Y-104841500D01*
X149333500Y-104349375D01*
X149162625Y-104178500D01*
X148228500Y-104178500D01*
X148228500Y-104198500D01*
X148071500Y-104198500D01*
X148071500Y-104178500D01*
X148051500Y-104178500D01*
X148051500Y-104021500D01*
X148071500Y-104021500D01*
X148071500Y-102962375D01*
X148228500Y-102962375D01*
X148228500Y-104021500D01*
X149162625Y-104021500D01*
X149333500Y-103850625D01*
X149333500Y-103339044D01*
X149229444Y-103087829D01*
X149037172Y-102895557D01*
X148785957Y-102791500D01*
X148399375Y-102791500D01*
X148228500Y-102962375D01*
X148071500Y-102962375D01*
X147900625Y-102791500D01*
X147514043Y-102791500D01*
X147262828Y-102895557D01*
X147260674Y-102897711D01*
X147254048Y-102887415D01*
X146977854Y-102698700D01*
X146650000Y-102632308D01*
X145650000Y-102632308D01*
X145343717Y-102689939D01*
X145062415Y-102870952D01*
X144873700Y-103147146D01*
X144807308Y-103475000D01*
X144807308Y-104725000D01*
X144864939Y-105031283D01*
X145045952Y-105312585D01*
X145090967Y-105343343D01*
X145062367Y-105371893D01*
X144866523Y-105843536D01*
X144866078Y-106354223D01*
X145061098Y-106826208D01*
X145366664Y-107132308D01*
X145300000Y-107132308D01*
X144993717Y-107189939D01*
X144798696Y-107315431D01*
X144627854Y-107198700D01*
X144300000Y-107132308D01*
X143300000Y-107132308D01*
X142993717Y-107189939D01*
X142712415Y-107370952D01*
X142523700Y-107647146D01*
X142457308Y-107975000D01*
X142457308Y-108358318D01*
X141032813Y-109782813D01*
X140843541Y-110066078D01*
X140637367Y-110271893D01*
X140441523Y-110743536D01*
X140441189Y-111126276D01*
X140056464Y-110966523D01*
X139545777Y-110966078D01*
X139073792Y-111161098D01*
X138712367Y-111521893D01*
X138516523Y-111993536D01*
X138516078Y-112504223D01*
X138534917Y-112549818D01*
X138262367Y-112821893D01*
X138066523Y-113293536D01*
X138066078Y-113804223D01*
X138083381Y-113846100D01*
X136533573Y-113846100D01*
X136533922Y-113445777D01*
X136338902Y-112973792D01*
X135978107Y-112612367D01*
X135506464Y-112416523D01*
X135350761Y-112416387D01*
X135292187Y-112357813D01*
X134974609Y-112145614D01*
X134600000Y-112071100D01*
X133610097Y-112071100D01*
X133776300Y-111827854D01*
X133842692Y-111500000D01*
X133842692Y-110800000D01*
X133785061Y-110493717D01*
X133604048Y-110212415D01*
X133372526Y-110054223D01*
X134466078Y-110054223D01*
X134661098Y-110526208D01*
X135021893Y-110887633D01*
X135493536Y-111083477D01*
X136004223Y-111083922D01*
X136476208Y-110888902D01*
X136837633Y-110528107D01*
X137033477Y-110056464D01*
X137033922Y-109545777D01*
X136838902Y-109073792D01*
X136478107Y-108712367D01*
X136006464Y-108516523D01*
X135495777Y-108516078D01*
X135023792Y-108711098D01*
X134662367Y-109071893D01*
X134466523Y-109543536D01*
X134466078Y-110054223D01*
X133372526Y-110054223D01*
X133328900Y-110024415D01*
X133328900Y-109363396D01*
X133751208Y-109188902D01*
X134112633Y-108828107D01*
X134308477Y-108356464D01*
X134308922Y-107845777D01*
X134113902Y-107373792D01*
X133753107Y-107012367D01*
X133377834Y-106856540D01*
X133813063Y-106421311D01*
X133814939Y-106431283D01*
X133995952Y-106712585D01*
X134272146Y-106901300D01*
X134600000Y-106967692D01*
X136300000Y-106967692D01*
X136606283Y-106910061D01*
X136887585Y-106729048D01*
X136972139Y-106605299D01*
X137348431Y-106856729D01*
X137990000Y-106984345D01*
X138631569Y-106856729D01*
X139175465Y-106493310D01*
X139260000Y-106366794D01*
X139344535Y-106493310D01*
X139888431Y-106856729D01*
X140530000Y-106984345D01*
X141171569Y-106856729D01*
X141715465Y-106493310D01*
X141800000Y-106366794D01*
X141884535Y-106493310D01*
X142428431Y-106856729D01*
X143070000Y-106984345D01*
X143711569Y-106856729D01*
X144255465Y-106493310D01*
X144618884Y-105949414D01*
X144746500Y-105307845D01*
X144746500Y-105242155D01*
X144618884Y-104600586D01*
X144255465Y-104056690D01*
X143711569Y-103693271D01*
X143070000Y-103565655D01*
X142428431Y-103693271D01*
X141884535Y-104056690D01*
X141800000Y-104183206D01*
X141715465Y-104056690D01*
X141171569Y-103693271D01*
X140530000Y-103565655D01*
X139888431Y-103693271D01*
X139344535Y-104056690D01*
X139260000Y-104183206D01*
X139175465Y-104056690D01*
X138631569Y-103693271D01*
X137990000Y-103565655D01*
X137348431Y-103693271D01*
X136972800Y-103944259D01*
X136904048Y-103837415D01*
X136627854Y-103648700D01*
X136300000Y-103582308D01*
X134600000Y-103582308D01*
X134403900Y-103619207D01*
X134403900Y-102479223D01*
X142241078Y-102479223D01*
X142436098Y-102951208D01*
X142796893Y-103312633D01*
X143268536Y-103508477D01*
X143779223Y-103508922D01*
X144251208Y-103313902D01*
X144612633Y-102953107D01*
X144808477Y-102481464D01*
X144808922Y-101970777D01*
X144719444Y-101754223D01*
X146266078Y-101754223D01*
X146461098Y-102226208D01*
X146821893Y-102587633D01*
X147293536Y-102783477D01*
X147804223Y-102783922D01*
X148276208Y-102588902D01*
X148637633Y-102228107D01*
X148833477Y-101756464D01*
X148833922Y-101245777D01*
X148638902Y-100773792D01*
X148278107Y-100412367D01*
X147806464Y-100216523D01*
X147295777Y-100216078D01*
X146823792Y-100411098D01*
X146462367Y-100771893D01*
X146266523Y-101243536D01*
X146266078Y-101754223D01*
X144719444Y-101754223D01*
X144613902Y-101498792D01*
X144253107Y-101137367D01*
X143781464Y-100941523D01*
X143270777Y-100941078D01*
X142798792Y-101136098D01*
X142437367Y-101496893D01*
X142241523Y-101968536D01*
X142241078Y-102479223D01*
X134403900Y-102479223D01*
X134403900Y-100754223D01*
X134466078Y-100754223D01*
X134661098Y-101226208D01*
X135021893Y-101587633D01*
X135493536Y-101783477D01*
X136004223Y-101783922D01*
X136476208Y-101588902D01*
X136837633Y-101228107D01*
X137033477Y-100756464D01*
X137033922Y-100245777D01*
X136838902Y-99773792D01*
X136478107Y-99412367D01*
X136006464Y-99216523D01*
X135495777Y-99216078D01*
X135023792Y-99411098D01*
X134662367Y-99771893D01*
X134466523Y-100243536D01*
X134466078Y-100754223D01*
X134403900Y-100754223D01*
X134403900Y-98550000D01*
X134329386Y-98175391D01*
X134117187Y-97857813D01*
X133213597Y-96954223D01*
X136066078Y-96954223D01*
X136261098Y-97426208D01*
X136621893Y-97787633D01*
X137093536Y-97983477D01*
X137604223Y-97983922D01*
X138076208Y-97788902D01*
X138437633Y-97428107D01*
X138633477Y-96956464D01*
X138633922Y-96445777D01*
X138438902Y-95973792D01*
X138078107Y-95612367D01*
X137606464Y-95416523D01*
X137095777Y-95416078D01*
X136623792Y-95611098D01*
X136262367Y-95971893D01*
X136066523Y-96443536D01*
X136066078Y-96954223D01*
X133213597Y-96954223D01*
X133083788Y-96824414D01*
X133083922Y-96670777D01*
X132888902Y-96198792D01*
X132528107Y-95837367D01*
X132056464Y-95641523D01*
X131545777Y-95641078D01*
X131073792Y-95836098D01*
X130712367Y-96196893D01*
X130516523Y-96668536D01*
X130516078Y-97179223D01*
X130711098Y-97651208D01*
X131071893Y-98012633D01*
X131543536Y-98208477D01*
X131699239Y-98208613D01*
X132446100Y-98955474D01*
X132446100Y-101407308D01*
X131633500Y-101407308D01*
X131633500Y-100549375D01*
X131462625Y-100378500D01*
X130528500Y-100378500D01*
X130528500Y-100398500D01*
X130371500Y-100398500D01*
X130371500Y-100378500D01*
X128528500Y-100378500D01*
X128528500Y-100398500D01*
X128371500Y-100398500D01*
X128371500Y-100378500D01*
X128351500Y-100378500D01*
X128351500Y-100221500D01*
X128371500Y-100221500D01*
X128371500Y-98787375D01*
X128528500Y-98787375D01*
X128528500Y-100221500D01*
X130371500Y-100221500D01*
X130371500Y-98787375D01*
X130528500Y-98787375D01*
X130528500Y-100221500D01*
X131462625Y-100221500D01*
X131633500Y-100050625D01*
X131633500Y-99164043D01*
X131529443Y-98912828D01*
X131337171Y-98720556D01*
X131085956Y-98616500D01*
X130699375Y-98616500D01*
X130528500Y-98787375D01*
X130371500Y-98787375D01*
X130200625Y-98616500D01*
X129814044Y-98616500D01*
X129562829Y-98720556D01*
X129450000Y-98833385D01*
X129337171Y-98720556D01*
X129085956Y-98616500D01*
X128699375Y-98616500D01*
X128528500Y-98787375D01*
X128371500Y-98787375D01*
X128200625Y-98616500D01*
X127814044Y-98616500D01*
X127562829Y-98720556D01*
X127560674Y-98722711D01*
X127554048Y-98712415D01*
X127500443Y-98675788D01*
X127552976Y-97467521D01*
X127549687Y-97446179D01*
X127553900Y-97425000D01*
X127531746Y-97313626D01*
X127540115Y-97069259D01*
X129355474Y-95253900D01*
X137085000Y-95253900D01*
X137459609Y-95179386D01*
X137618092Y-95073491D01*
X137983638Y-94922450D01*
X138253925Y-94652635D01*
X138283556Y-94724171D01*
X138475828Y-94916443D01*
X138727043Y-95020500D01*
X139375625Y-95020500D01*
X139546500Y-94849625D01*
X139546500Y-93653500D01*
X139703500Y-93653500D01*
X139703500Y-94849625D01*
X139874375Y-95020500D01*
X140522957Y-95020500D01*
X140774172Y-94916443D01*
X140966444Y-94724171D01*
X141070500Y-94472956D01*
X141070500Y-93824375D01*
X140899625Y-93653500D01*
X139703500Y-93653500D01*
X139546500Y-93653500D01*
X139526500Y-93653500D01*
X139526500Y-93496500D01*
X139546500Y-93496500D01*
X139546500Y-93476500D01*
X139703500Y-93476500D01*
X139703500Y-93496500D01*
X140899625Y-93496500D01*
X141070500Y-93325625D01*
X141070500Y-92677044D01*
X140966444Y-92425829D01*
X140774172Y-92233557D01*
X140702522Y-92203878D01*
X140970880Y-91935988D01*
X141213224Y-91352358D01*
X141213776Y-90720414D01*
X140972450Y-90136362D01*
X140601480Y-89764744D01*
X140970880Y-89395988D01*
X141213224Y-88812358D01*
X141213776Y-88180414D01*
X140972450Y-87596362D01*
X140601480Y-87224744D01*
X140892832Y-86933900D01*
X143945000Y-86933900D01*
X144319609Y-86859386D01*
X144637187Y-86647187D01*
X144673578Y-86610796D01*
X144673227Y-87012209D01*
G36*
X170908500Y-113101500D02*
X170928500Y-113101500D01*
X170928500Y-113258500D01*
X170908500Y-113258500D01*
X170908500Y-113278500D01*
X170751500Y-113278500D01*
X170751500Y-113258500D01*
X170731500Y-113258500D01*
X170731500Y-113101500D01*
X170751500Y-113101500D01*
X170751500Y-113081500D01*
X170908500Y-113081500D01*
X170908500Y-113101500D01*
X170908500Y-113101500D01*
G37*
X170908500Y-113101500D02*
X170928500Y-113101500D01*
X170928500Y-113258500D01*
X170908500Y-113258500D01*
X170908500Y-113278500D01*
X170751500Y-113278500D01*
X170751500Y-113258500D01*
X170731500Y-113258500D01*
X170731500Y-113101500D01*
X170751500Y-113101500D01*
X170751500Y-113081500D01*
X170908500Y-113081500D01*
X170908500Y-113101500D01*
G36*
X153511893Y-103027633D02*
X153983536Y-103223477D01*
X154139239Y-103223613D01*
X154407813Y-103492187D01*
X154725391Y-103704386D01*
X155100000Y-103778900D01*
X155971100Y-103778900D01*
X155971100Y-109462758D01*
X155795614Y-109725391D01*
X155721100Y-110100000D01*
X155721100Y-110722941D01*
X155500609Y-110575614D01*
X155126000Y-110501100D01*
X152775339Y-110501100D01*
X152957477Y-110062464D01*
X152957922Y-109551777D01*
X152762902Y-109079792D01*
X152402107Y-108718367D01*
X151930464Y-108522523D01*
X151419777Y-108522078D01*
X151234821Y-108598500D01*
X150818500Y-108598500D01*
X150818500Y-108618500D01*
X150661500Y-108618500D01*
X150661500Y-108598500D01*
X150641500Y-108598500D01*
X150641500Y-108441500D01*
X150661500Y-108441500D01*
X150661500Y-108421500D01*
X150818500Y-108421500D01*
X150818500Y-108441500D01*
X151602625Y-108441500D01*
X151773500Y-108270625D01*
X151773500Y-107734044D01*
X151725306Y-107617692D01*
X151830000Y-107617692D01*
X152136283Y-107560061D01*
X152417585Y-107379048D01*
X152606300Y-107102854D01*
X152672692Y-106775000D01*
X152672692Y-105525000D01*
X152615061Y-105218717D01*
X152434048Y-104937415D01*
X152308900Y-104851905D01*
X152308900Y-103425474D01*
X152610586Y-103123788D01*
X152764223Y-103123922D01*
X153236208Y-102928902D01*
X153324926Y-102840339D01*
X153511893Y-103027633D01*
X153511893Y-103027633D01*
G37*
X153511893Y-103027633D02*
X153983536Y-103223477D01*
X154139239Y-103223613D01*
X154407813Y-103492187D01*
X154725391Y-103704386D01*
X155100000Y-103778900D01*
X155971100Y-103778900D01*
X155971100Y-109462758D01*
X155795614Y-109725391D01*
X155721100Y-110100000D01*
X155721100Y-110722941D01*
X155500609Y-110575614D01*
X155126000Y-110501100D01*
X152775339Y-110501100D01*
X152957477Y-110062464D01*
X152957922Y-109551777D01*
X152762902Y-109079792D01*
X152402107Y-108718367D01*
X151930464Y-108522523D01*
X151419777Y-108522078D01*
X151234821Y-108598500D01*
X150818500Y-108598500D01*
X150818500Y-108618500D01*
X150661500Y-108618500D01*
X150661500Y-108598500D01*
X150641500Y-108598500D01*
X150641500Y-108441500D01*
X150661500Y-108441500D01*
X150661500Y-108421500D01*
X150818500Y-108421500D01*
X150818500Y-108441500D01*
X151602625Y-108441500D01*
X151773500Y-108270625D01*
X151773500Y-107734044D01*
X151725306Y-107617692D01*
X151830000Y-107617692D01*
X152136283Y-107560061D01*
X152417585Y-107379048D01*
X152606300Y-107102854D01*
X152672692Y-106775000D01*
X152672692Y-105525000D01*
X152615061Y-105218717D01*
X152434048Y-104937415D01*
X152308900Y-104851905D01*
X152308900Y-103425474D01*
X152610586Y-103123788D01*
X152764223Y-103123922D01*
X153236208Y-102928902D01*
X153324926Y-102840339D01*
X153511893Y-103027633D01*
G36*
X175928500Y-110421500D02*
X175948500Y-110421500D01*
X175948500Y-110578500D01*
X175928500Y-110578500D01*
X175928500Y-110598500D01*
X175771500Y-110598500D01*
X175771500Y-110578500D01*
X175751500Y-110578500D01*
X175751500Y-110421500D01*
X175771500Y-110421500D01*
X175771500Y-110401500D01*
X175928500Y-110401500D01*
X175928500Y-110421500D01*
X175928500Y-110421500D01*
G37*
X175928500Y-110421500D02*
X175948500Y-110421500D01*
X175948500Y-110578500D01*
X175928500Y-110578500D01*
X175928500Y-110598500D01*
X175771500Y-110598500D01*
X175771500Y-110578500D01*
X175751500Y-110578500D01*
X175751500Y-110421500D01*
X175771500Y-110421500D01*
X175771500Y-110401500D01*
X175928500Y-110401500D01*
X175928500Y-110421500D01*
G36*
X161243536Y-99208477D02*
X161415144Y-99208627D01*
X161465952Y-99287585D01*
X161742146Y-99476300D01*
X162070000Y-99542692D01*
X162366110Y-99542692D01*
X162366078Y-99579223D01*
X162561098Y-100051208D01*
X162921893Y-100412633D01*
X163393536Y-100608477D01*
X163904223Y-100608922D01*
X164275330Y-100455584D01*
X164643536Y-100608477D01*
X165154223Y-100608922D01*
X165568038Y-100437937D01*
X165918536Y-100583477D01*
X166429223Y-100583922D01*
X166443100Y-100578188D01*
X166443100Y-101678000D01*
X166448930Y-101707308D01*
X165880000Y-101707308D01*
X165573717Y-101764939D01*
X165548644Y-101781073D01*
X165537854Y-101773700D01*
X165210000Y-101707308D01*
X164610000Y-101707308D01*
X164303717Y-101764939D01*
X164278644Y-101781073D01*
X164267854Y-101773700D01*
X163940000Y-101707308D01*
X163340000Y-101707308D01*
X163033717Y-101764939D01*
X162848501Y-101884122D01*
X162805956Y-101866500D01*
X162619375Y-101866500D01*
X162448500Y-102037375D01*
X162448500Y-103246500D01*
X162468500Y-103246500D01*
X162468500Y-103403500D01*
X162448500Y-103403500D01*
X162448500Y-103423500D01*
X162291500Y-103423500D01*
X162291500Y-103403500D01*
X161557375Y-103403500D01*
X161386500Y-103574375D01*
X161386500Y-104235957D01*
X161490557Y-104487172D01*
X161682829Y-104679444D01*
X161934044Y-104783500D01*
X162120625Y-104783500D01*
X162246519Y-104657606D01*
X162246078Y-105164223D01*
X162441098Y-105636208D01*
X162801893Y-105997633D01*
X163273536Y-106193477D01*
X163784223Y-106193922D01*
X164256208Y-105998902D01*
X164617633Y-105638107D01*
X164780796Y-105245170D01*
X165177813Y-105642187D01*
X165495391Y-105854386D01*
X165870000Y-105928900D01*
X168250000Y-105928900D01*
X168368208Y-105905387D01*
X168511098Y-106251208D01*
X168871893Y-106612633D01*
X169343536Y-106808477D01*
X169854223Y-106808922D01*
X170326208Y-106613902D01*
X170687633Y-106253107D01*
X170883477Y-105781464D01*
X170883519Y-105733773D01*
X171054223Y-105733922D01*
X171526208Y-105538902D01*
X171887633Y-105178107D01*
X172083477Y-104706464D01*
X172083922Y-104195777D01*
X171888902Y-103723792D01*
X171664877Y-103499375D01*
X172016500Y-103499375D01*
X172016500Y-103735957D01*
X172120557Y-103987172D01*
X172312829Y-104179444D01*
X172564044Y-104283500D01*
X173100625Y-104283500D01*
X173271500Y-104112625D01*
X173271500Y-103328500D01*
X172187375Y-103328500D01*
X172016500Y-103499375D01*
X171664877Y-103499375D01*
X171528107Y-103362367D01*
X171311818Y-103272556D01*
X172215266Y-102369108D01*
X172244382Y-102389003D01*
X172120557Y-102512828D01*
X172016500Y-102764043D01*
X172016500Y-103000625D01*
X172187375Y-103171500D01*
X173271500Y-103171500D01*
X173271500Y-103151500D01*
X173428500Y-103151500D01*
X173428500Y-103171500D01*
X173448500Y-103171500D01*
X173448500Y-103328500D01*
X173428500Y-103328500D01*
X173428500Y-104112625D01*
X173599375Y-104283500D01*
X174135956Y-104283500D01*
X174387171Y-104179444D01*
X174579443Y-103987172D01*
X174639273Y-103842730D01*
X174645614Y-103874609D01*
X174857813Y-104192187D01*
X174967811Y-104302184D01*
X174967813Y-104302187D01*
X175073200Y-104372604D01*
X175088830Y-104455672D01*
X174850000Y-104407308D01*
X174150000Y-104407308D01*
X173843717Y-104464939D01*
X173562415Y-104645952D01*
X173373700Y-104922146D01*
X173307308Y-105250000D01*
X173307308Y-106550000D01*
X173364939Y-106856283D01*
X173366336Y-106858454D01*
X173366078Y-107154223D01*
X173561098Y-107626208D01*
X173751033Y-107816475D01*
X173295777Y-107816078D01*
X172823792Y-108011098D01*
X172462367Y-108371893D01*
X172350059Y-108642359D01*
X172320902Y-108571792D01*
X171960107Y-108210367D01*
X171488464Y-108014523D01*
X170977777Y-108014078D01*
X170505792Y-108209098D01*
X170144367Y-108569893D01*
X170122278Y-108623089D01*
X170106464Y-108616523D01*
X169595777Y-108616078D01*
X169123792Y-108811098D01*
X169000101Y-108934574D01*
X168878107Y-108812367D01*
X168406464Y-108616523D01*
X167895777Y-108616078D01*
X167492692Y-108782629D01*
X167492692Y-108350000D01*
X167435061Y-108043717D01*
X167278900Y-107801036D01*
X167278900Y-107800000D01*
X167204386Y-107425391D01*
X166992187Y-107107813D01*
X166674609Y-106895614D01*
X166300000Y-106821100D01*
X161680000Y-106821100D01*
X161305391Y-106895614D01*
X160987813Y-107107813D01*
X160479640Y-107615986D01*
X160533500Y-107485957D01*
X160533500Y-107099375D01*
X160362625Y-106928500D01*
X159303500Y-106928500D01*
X159303500Y-106948500D01*
X159146500Y-106948500D01*
X159146500Y-106928500D01*
X159126500Y-106928500D01*
X159126500Y-106771500D01*
X159146500Y-106771500D01*
X159146500Y-105837375D01*
X159303500Y-105837375D01*
X159303500Y-106771500D01*
X160362625Y-106771500D01*
X160533500Y-106600625D01*
X160533500Y-106214043D01*
X160429443Y-105962828D01*
X160237171Y-105770556D01*
X159985956Y-105666500D01*
X159474375Y-105666500D01*
X159303500Y-105837375D01*
X159146500Y-105837375D01*
X158975625Y-105666500D01*
X158778900Y-105666500D01*
X158778900Y-104952828D01*
X159093536Y-105083477D01*
X159604223Y-105083922D01*
X160076208Y-104888902D01*
X160437633Y-104528107D01*
X160633477Y-104056464D01*
X160633669Y-103836602D01*
X160776300Y-103627854D01*
X160842692Y-103300000D01*
X160842692Y-102600000D01*
X160807702Y-102414043D01*
X161386500Y-102414043D01*
X161386500Y-103075625D01*
X161557375Y-103246500D01*
X162291500Y-103246500D01*
X162291500Y-102037375D01*
X162120625Y-101866500D01*
X161934044Y-101866500D01*
X161682829Y-101970556D01*
X161490557Y-102162828D01*
X161386500Y-102414043D01*
X160807702Y-102414043D01*
X160785061Y-102293717D01*
X160604048Y-102012415D01*
X160588927Y-102002083D01*
X160776300Y-101727854D01*
X160842692Y-101400000D01*
X160842692Y-100700000D01*
X160785061Y-100393717D01*
X160604048Y-100112415D01*
X160433878Y-99996143D01*
X160433922Y-99945777D01*
X160238902Y-99473792D01*
X160148880Y-99383612D01*
X160504223Y-99383922D01*
X160976208Y-99188902D01*
X161040891Y-99124331D01*
X161243536Y-99208477D01*
X161243536Y-99208477D01*
G37*
X161243536Y-99208477D02*
X161415144Y-99208627D01*
X161465952Y-99287585D01*
X161742146Y-99476300D01*
X162070000Y-99542692D01*
X162366110Y-99542692D01*
X162366078Y-99579223D01*
X162561098Y-100051208D01*
X162921893Y-100412633D01*
X163393536Y-100608477D01*
X163904223Y-100608922D01*
X164275330Y-100455584D01*
X164643536Y-100608477D01*
X165154223Y-100608922D01*
X165568038Y-100437937D01*
X165918536Y-100583477D01*
X166429223Y-100583922D01*
X166443100Y-100578188D01*
X166443100Y-101678000D01*
X166448930Y-101707308D01*
X165880000Y-101707308D01*
X165573717Y-101764939D01*
X165548644Y-101781073D01*
X165537854Y-101773700D01*
X165210000Y-101707308D01*
X164610000Y-101707308D01*
X164303717Y-101764939D01*
X164278644Y-101781073D01*
X164267854Y-101773700D01*
X163940000Y-101707308D01*
X163340000Y-101707308D01*
X163033717Y-101764939D01*
X162848501Y-101884122D01*
X162805956Y-101866500D01*
X162619375Y-101866500D01*
X162448500Y-102037375D01*
X162448500Y-103246500D01*
X162468500Y-103246500D01*
X162468500Y-103403500D01*
X162448500Y-103403500D01*
X162448500Y-103423500D01*
X162291500Y-103423500D01*
X162291500Y-103403500D01*
X161557375Y-103403500D01*
X161386500Y-103574375D01*
X161386500Y-104235957D01*
X161490557Y-104487172D01*
X161682829Y-104679444D01*
X161934044Y-104783500D01*
X162120625Y-104783500D01*
X162246519Y-104657606D01*
X162246078Y-105164223D01*
X162441098Y-105636208D01*
X162801893Y-105997633D01*
X163273536Y-106193477D01*
X163784223Y-106193922D01*
X164256208Y-105998902D01*
X164617633Y-105638107D01*
X164780796Y-105245170D01*
X165177813Y-105642187D01*
X165495391Y-105854386D01*
X165870000Y-105928900D01*
X168250000Y-105928900D01*
X168368208Y-105905387D01*
X168511098Y-106251208D01*
X168871893Y-106612633D01*
X169343536Y-106808477D01*
X169854223Y-106808922D01*
X170326208Y-106613902D01*
X170687633Y-106253107D01*
X170883477Y-105781464D01*
X170883519Y-105733773D01*
X171054223Y-105733922D01*
X171526208Y-105538902D01*
X171887633Y-105178107D01*
X172083477Y-104706464D01*
X172083922Y-104195777D01*
X171888902Y-103723792D01*
X171664877Y-103499375D01*
X172016500Y-103499375D01*
X172016500Y-103735957D01*
X172120557Y-103987172D01*
X172312829Y-104179444D01*
X172564044Y-104283500D01*
X173100625Y-104283500D01*
X173271500Y-104112625D01*
X173271500Y-103328500D01*
X172187375Y-103328500D01*
X172016500Y-103499375D01*
X171664877Y-103499375D01*
X171528107Y-103362367D01*
X171311818Y-103272556D01*
X172215266Y-102369108D01*
X172244382Y-102389003D01*
X172120557Y-102512828D01*
X172016500Y-102764043D01*
X172016500Y-103000625D01*
X172187375Y-103171500D01*
X173271500Y-103171500D01*
X173271500Y-103151500D01*
X173428500Y-103151500D01*
X173428500Y-103171500D01*
X173448500Y-103171500D01*
X173448500Y-103328500D01*
X173428500Y-103328500D01*
X173428500Y-104112625D01*
X173599375Y-104283500D01*
X174135956Y-104283500D01*
X174387171Y-104179444D01*
X174579443Y-103987172D01*
X174639273Y-103842730D01*
X174645614Y-103874609D01*
X174857813Y-104192187D01*
X174967811Y-104302184D01*
X174967813Y-104302187D01*
X175073200Y-104372604D01*
X175088830Y-104455672D01*
X174850000Y-104407308D01*
X174150000Y-104407308D01*
X173843717Y-104464939D01*
X173562415Y-104645952D01*
X173373700Y-104922146D01*
X173307308Y-105250000D01*
X173307308Y-106550000D01*
X173364939Y-106856283D01*
X173366336Y-106858454D01*
X173366078Y-107154223D01*
X173561098Y-107626208D01*
X173751033Y-107816475D01*
X173295777Y-107816078D01*
X172823792Y-108011098D01*
X172462367Y-108371893D01*
X172350059Y-108642359D01*
X172320902Y-108571792D01*
X171960107Y-108210367D01*
X171488464Y-108014523D01*
X170977777Y-108014078D01*
X170505792Y-108209098D01*
X170144367Y-108569893D01*
X170122278Y-108623089D01*
X170106464Y-108616523D01*
X169595777Y-108616078D01*
X169123792Y-108811098D01*
X169000101Y-108934574D01*
X168878107Y-108812367D01*
X168406464Y-108616523D01*
X167895777Y-108616078D01*
X167492692Y-108782629D01*
X167492692Y-108350000D01*
X167435061Y-108043717D01*
X167278900Y-107801036D01*
X167278900Y-107800000D01*
X167204386Y-107425391D01*
X166992187Y-107107813D01*
X166674609Y-106895614D01*
X166300000Y-106821100D01*
X161680000Y-106821100D01*
X161305391Y-106895614D01*
X160987813Y-107107813D01*
X160479640Y-107615986D01*
X160533500Y-107485957D01*
X160533500Y-107099375D01*
X160362625Y-106928500D01*
X159303500Y-106928500D01*
X159303500Y-106948500D01*
X159146500Y-106948500D01*
X159146500Y-106928500D01*
X159126500Y-106928500D01*
X159126500Y-106771500D01*
X159146500Y-106771500D01*
X159146500Y-105837375D01*
X159303500Y-105837375D01*
X159303500Y-106771500D01*
X160362625Y-106771500D01*
X160533500Y-106600625D01*
X160533500Y-106214043D01*
X160429443Y-105962828D01*
X160237171Y-105770556D01*
X159985956Y-105666500D01*
X159474375Y-105666500D01*
X159303500Y-105837375D01*
X159146500Y-105837375D01*
X158975625Y-105666500D01*
X158778900Y-105666500D01*
X158778900Y-104952828D01*
X159093536Y-105083477D01*
X159604223Y-105083922D01*
X160076208Y-104888902D01*
X160437633Y-104528107D01*
X160633477Y-104056464D01*
X160633669Y-103836602D01*
X160776300Y-103627854D01*
X160842692Y-103300000D01*
X160842692Y-102600000D01*
X160807702Y-102414043D01*
X161386500Y-102414043D01*
X161386500Y-103075625D01*
X161557375Y-103246500D01*
X162291500Y-103246500D01*
X162291500Y-102037375D01*
X162120625Y-101866500D01*
X161934044Y-101866500D01*
X161682829Y-101970556D01*
X161490557Y-102162828D01*
X161386500Y-102414043D01*
X160807702Y-102414043D01*
X160785061Y-102293717D01*
X160604048Y-102012415D01*
X160588927Y-102002083D01*
X160776300Y-101727854D01*
X160842692Y-101400000D01*
X160842692Y-100700000D01*
X160785061Y-100393717D01*
X160604048Y-100112415D01*
X160433878Y-99996143D01*
X160433922Y-99945777D01*
X160238902Y-99473792D01*
X160148880Y-99383612D01*
X160504223Y-99383922D01*
X160976208Y-99188902D01*
X161040891Y-99124331D01*
X161243536Y-99208477D01*
G36*
X180378500Y-98771500D02*
X182481500Y-98771500D01*
X182481500Y-98751500D01*
X182638500Y-98751500D01*
X182638500Y-98771500D01*
X182658500Y-98771500D01*
X182658500Y-98928500D01*
X182638500Y-98928500D01*
X182638500Y-99862625D01*
X182809375Y-100033500D01*
X182873500Y-100033500D01*
X182873500Y-104776282D01*
X182775180Y-104874602D01*
X182573898Y-104494762D01*
X181628118Y-104092479D01*
X180600383Y-104082752D01*
X179647159Y-104467062D01*
X179605702Y-104494762D01*
X179404420Y-104874602D01*
X179310717Y-104780899D01*
X179469444Y-104622171D01*
X179573500Y-104370956D01*
X179573500Y-103859375D01*
X179402625Y-103688500D01*
X178468500Y-103688500D01*
X178468500Y-104747625D01*
X178639375Y-104918500D01*
X179025957Y-104918500D01*
X179189848Y-104850614D01*
X179174122Y-104866340D01*
X179293402Y-104985620D01*
X178913562Y-105186902D01*
X178511279Y-106132682D01*
X178502204Y-107091500D01*
X178199375Y-107091500D01*
X178028500Y-107262375D01*
X178028500Y-108321500D01*
X178962625Y-108321500D01*
X179054397Y-108229728D01*
X179293402Y-108356380D01*
X179211432Y-108438350D01*
X179038215Y-108554090D01*
X178962625Y-108478500D01*
X178028500Y-108478500D01*
X178028500Y-108498500D01*
X177871500Y-108498500D01*
X177871500Y-108478500D01*
X177851500Y-108478500D01*
X177851500Y-108321500D01*
X177871500Y-108321500D01*
X177871500Y-107262375D01*
X177700625Y-107091500D01*
X177380322Y-107091500D01*
X177526300Y-106877854D01*
X177592692Y-106550000D01*
X177592692Y-105250000D01*
X177535061Y-104943717D01*
X177470600Y-104843542D01*
X177477585Y-104839048D01*
X177497819Y-104809434D01*
X177502828Y-104814443D01*
X177754043Y-104918500D01*
X178140625Y-104918500D01*
X178311500Y-104747625D01*
X178311500Y-103688500D01*
X178291500Y-103688500D01*
X178291500Y-103531500D01*
X178311500Y-103531500D01*
X178311500Y-102472375D01*
X178294125Y-102455000D01*
X178311500Y-102437625D01*
X178311500Y-101378500D01*
X178468500Y-101378500D01*
X178468500Y-102437625D01*
X178485875Y-102455000D01*
X178468500Y-102472375D01*
X178468500Y-103531500D01*
X179402625Y-103531500D01*
X179573500Y-103360625D01*
X179573500Y-102849044D01*
X179469444Y-102597829D01*
X179326615Y-102455000D01*
X179469444Y-102312171D01*
X179573500Y-102060956D01*
X179573500Y-101549375D01*
X179402625Y-101378500D01*
X178468500Y-101378500D01*
X178311500Y-101378500D01*
X178291500Y-101378500D01*
X178291500Y-101221500D01*
X178311500Y-101221500D01*
X178311500Y-100162375D01*
X178259125Y-100110000D01*
X178271500Y-100097625D01*
X178271500Y-99038500D01*
X178251500Y-99038500D01*
X178251500Y-98881500D01*
X178271500Y-98881500D01*
X178271500Y-98861500D01*
X178428500Y-98861500D01*
X178428500Y-98881500D01*
X178448500Y-98881500D01*
X178448500Y-99038500D01*
X178428500Y-99038500D01*
X178428500Y-100097625D01*
X178480875Y-100150000D01*
X178468500Y-100162375D01*
X178468500Y-101221500D01*
X179402625Y-101221500D01*
X179573500Y-101050625D01*
X179573500Y-100539044D01*
X179469444Y-100287829D01*
X179291615Y-100110000D01*
X179418179Y-99983436D01*
X179539044Y-100033500D01*
X180050625Y-100033500D01*
X180221500Y-99862625D01*
X180221500Y-98928500D01*
X180378500Y-98928500D01*
X180378500Y-99862625D01*
X180549375Y-100033500D01*
X181060956Y-100033500D01*
X181312171Y-99929444D01*
X181430000Y-99811615D01*
X181547829Y-99929444D01*
X181799044Y-100033500D01*
X182310625Y-100033500D01*
X182481500Y-99862625D01*
X182481500Y-98928500D01*
X180378500Y-98928500D01*
X180221500Y-98928500D01*
X180201500Y-98928500D01*
X180201500Y-98771500D01*
X180221500Y-98771500D01*
X180221500Y-98751500D01*
X180378500Y-98751500D01*
X180378500Y-98771500D01*
X180378500Y-98771500D01*
G37*
X180378500Y-98771500D02*
X182481500Y-98771500D01*
X182481500Y-98751500D01*
X182638500Y-98751500D01*
X182638500Y-98771500D01*
X182658500Y-98771500D01*
X182658500Y-98928500D01*
X182638500Y-98928500D01*
X182638500Y-99862625D01*
X182809375Y-100033500D01*
X182873500Y-100033500D01*
X182873500Y-104776282D01*
X182775180Y-104874602D01*
X182573898Y-104494762D01*
X181628118Y-104092479D01*
X180600383Y-104082752D01*
X179647159Y-104467062D01*
X179605702Y-104494762D01*
X179404420Y-104874602D01*
X179310717Y-104780899D01*
X179469444Y-104622171D01*
X179573500Y-104370956D01*
X179573500Y-103859375D01*
X179402625Y-103688500D01*
X178468500Y-103688500D01*
X178468500Y-104747625D01*
X178639375Y-104918500D01*
X179025957Y-104918500D01*
X179189848Y-104850614D01*
X179174122Y-104866340D01*
X179293402Y-104985620D01*
X178913562Y-105186902D01*
X178511279Y-106132682D01*
X178502204Y-107091500D01*
X178199375Y-107091500D01*
X178028500Y-107262375D01*
X178028500Y-108321500D01*
X178962625Y-108321500D01*
X179054397Y-108229728D01*
X179293402Y-108356380D01*
X179211432Y-108438350D01*
X179038215Y-108554090D01*
X178962625Y-108478500D01*
X178028500Y-108478500D01*
X178028500Y-108498500D01*
X177871500Y-108498500D01*
X177871500Y-108478500D01*
X177851500Y-108478500D01*
X177851500Y-108321500D01*
X177871500Y-108321500D01*
X177871500Y-107262375D01*
X177700625Y-107091500D01*
X177380322Y-107091500D01*
X177526300Y-106877854D01*
X177592692Y-106550000D01*
X177592692Y-105250000D01*
X177535061Y-104943717D01*
X177470600Y-104843542D01*
X177477585Y-104839048D01*
X177497819Y-104809434D01*
X177502828Y-104814443D01*
X177754043Y-104918500D01*
X178140625Y-104918500D01*
X178311500Y-104747625D01*
X178311500Y-103688500D01*
X178291500Y-103688500D01*
X178291500Y-103531500D01*
X178311500Y-103531500D01*
X178311500Y-102472375D01*
X178294125Y-102455000D01*
X178311500Y-102437625D01*
X178311500Y-101378500D01*
X178468500Y-101378500D01*
X178468500Y-102437625D01*
X178485875Y-102455000D01*
X178468500Y-102472375D01*
X178468500Y-103531500D01*
X179402625Y-103531500D01*
X179573500Y-103360625D01*
X179573500Y-102849044D01*
X179469444Y-102597829D01*
X179326615Y-102455000D01*
X179469444Y-102312171D01*
X179573500Y-102060956D01*
X179573500Y-101549375D01*
X179402625Y-101378500D01*
X178468500Y-101378500D01*
X178311500Y-101378500D01*
X178291500Y-101378500D01*
X178291500Y-101221500D01*
X178311500Y-101221500D01*
X178311500Y-100162375D01*
X178259125Y-100110000D01*
X178271500Y-100097625D01*
X178271500Y-99038500D01*
X178251500Y-99038500D01*
X178251500Y-98881500D01*
X178271500Y-98881500D01*
X178271500Y-98861500D01*
X178428500Y-98861500D01*
X178428500Y-98881500D01*
X178448500Y-98881500D01*
X178448500Y-99038500D01*
X178428500Y-99038500D01*
X178428500Y-100097625D01*
X178480875Y-100150000D01*
X178468500Y-100162375D01*
X178468500Y-101221500D01*
X179402625Y-101221500D01*
X179573500Y-101050625D01*
X179573500Y-100539044D01*
X179469444Y-100287829D01*
X179291615Y-100110000D01*
X179418179Y-99983436D01*
X179539044Y-100033500D01*
X180050625Y-100033500D01*
X180221500Y-99862625D01*
X180221500Y-98928500D01*
X180378500Y-98928500D01*
X180378500Y-99862625D01*
X180549375Y-100033500D01*
X181060956Y-100033500D01*
X181312171Y-99929444D01*
X181430000Y-99811615D01*
X181547829Y-99929444D01*
X181799044Y-100033500D01*
X182310625Y-100033500D01*
X182481500Y-99862625D01*
X182481500Y-98928500D01*
X180378500Y-98928500D01*
X180221500Y-98928500D01*
X180201500Y-98928500D01*
X180201500Y-98771500D01*
X180221500Y-98771500D01*
X180221500Y-98751500D01*
X180378500Y-98751500D01*
X180378500Y-98771500D01*
G36*
X181214958Y-106656858D02*
X181200816Y-106671000D01*
X181214958Y-106685142D01*
X181103942Y-106796158D01*
X181089800Y-106782016D01*
X181075658Y-106796158D01*
X180964642Y-106685142D01*
X180978784Y-106671000D01*
X180964642Y-106656858D01*
X181075658Y-106545842D01*
X181089800Y-106559984D01*
X181103942Y-106545842D01*
X181214958Y-106656858D01*
X181214958Y-106656858D01*
G37*
X181214958Y-106656858D02*
X181200816Y-106671000D01*
X181214958Y-106685142D01*
X181103942Y-106796158D01*
X181089800Y-106782016D01*
X181075658Y-106796158D01*
X180964642Y-106685142D01*
X180978784Y-106671000D01*
X180964642Y-106656858D01*
X181075658Y-106545842D01*
X181089800Y-106559984D01*
X181103942Y-106545842D01*
X181214958Y-106656858D01*
G36*
X148071498Y-105408500D02*
X148146500Y-105408500D01*
X148146500Y-105900625D01*
X148317375Y-106071500D01*
X149251500Y-106071500D01*
X149251500Y-106051500D01*
X149408500Y-106051500D01*
X149408500Y-106071500D01*
X149428500Y-106071500D01*
X149428500Y-106228500D01*
X149408500Y-106228500D01*
X149408500Y-106248500D01*
X149251500Y-106248500D01*
X149251500Y-106228500D01*
X148317375Y-106228500D01*
X148193120Y-106352755D01*
X147978107Y-106137367D01*
X147506464Y-105941523D01*
X147433839Y-105941460D01*
X147433922Y-105845777D01*
X147238902Y-105373792D01*
X147211191Y-105346032D01*
X147237585Y-105329048D01*
X147257819Y-105299434D01*
X147262828Y-105304443D01*
X147514043Y-105408500D01*
X147900625Y-105408500D01*
X148071498Y-105237627D01*
X148071498Y-105408500D01*
X148071498Y-105408500D01*
G37*
X148071498Y-105408500D02*
X148146500Y-105408500D01*
X148146500Y-105900625D01*
X148317375Y-106071500D01*
X149251500Y-106071500D01*
X149251500Y-106051500D01*
X149408500Y-106051500D01*
X149408500Y-106071500D01*
X149428500Y-106071500D01*
X149428500Y-106228500D01*
X149408500Y-106228500D01*
X149408500Y-106248500D01*
X149251500Y-106248500D01*
X149251500Y-106228500D01*
X148317375Y-106228500D01*
X148193120Y-106352755D01*
X147978107Y-106137367D01*
X147506464Y-105941523D01*
X147433839Y-105941460D01*
X147433922Y-105845777D01*
X147238902Y-105373792D01*
X147211191Y-105346032D01*
X147237585Y-105329048D01*
X147257819Y-105299434D01*
X147262828Y-105304443D01*
X147514043Y-105408500D01*
X147900625Y-105408500D01*
X148071498Y-105237627D01*
X148071498Y-105408500D01*
G36*
X175277308Y-94045000D02*
X175334939Y-94351283D01*
X175515952Y-94632585D01*
X175792146Y-94821300D01*
X176120000Y-94887692D01*
X177120000Y-94887692D01*
X177426283Y-94830061D01*
X177707585Y-94649048D01*
X177727819Y-94619434D01*
X177732828Y-94624443D01*
X177984043Y-94728500D01*
X178087126Y-94728500D01*
X177604817Y-95210809D01*
X177358151Y-95312729D01*
X177268066Y-95402657D01*
X177078107Y-95212367D01*
X176606464Y-95016523D01*
X176095777Y-95016078D01*
X175623792Y-95211098D01*
X175283500Y-95550797D01*
X175283500Y-95249375D01*
X175112625Y-95078500D01*
X174053500Y-95078500D01*
X174053500Y-96012625D01*
X174224375Y-96183500D01*
X174735956Y-96183500D01*
X174987171Y-96079444D01*
X175097372Y-95969243D01*
X175066523Y-96043536D01*
X175066078Y-96554223D01*
X175261098Y-97026208D01*
X175621893Y-97387633D01*
X175873977Y-97492308D01*
X175850000Y-97492308D01*
X175543717Y-97549939D01*
X175506588Y-97573831D01*
X175447854Y-97533700D01*
X175120000Y-97467308D01*
X174420000Y-97467308D01*
X174123715Y-97523058D01*
X174123922Y-97285777D01*
X173928902Y-96813792D01*
X173568107Y-96452367D01*
X173097163Y-96256813D01*
X173036481Y-96109951D01*
X173214044Y-96183500D01*
X173725625Y-96183500D01*
X173896500Y-96012625D01*
X173896500Y-95078500D01*
X172837375Y-95078500D01*
X172666500Y-95249375D01*
X172666500Y-95600914D01*
X172633500Y-95567857D01*
X172633500Y-95199375D01*
X172462625Y-95028500D01*
X171403500Y-95028500D01*
X171403500Y-95048500D01*
X171246500Y-95048500D01*
X171246500Y-95028500D01*
X170187375Y-95028500D01*
X170137500Y-95078375D01*
X170012625Y-94953500D01*
X169961672Y-94953500D01*
X170115658Y-94799783D01*
X170187375Y-94871500D01*
X171246500Y-94871500D01*
X171246500Y-94851500D01*
X171403500Y-94851500D01*
X171403500Y-94871500D01*
X172462625Y-94871500D01*
X172633500Y-94700625D01*
X172633500Y-94314043D01*
X172529443Y-94062828D01*
X172527289Y-94060674D01*
X172537585Y-94054048D01*
X172588931Y-93978900D01*
X172676015Y-93978900D01*
X172745952Y-94087585D01*
X172775566Y-94107819D01*
X172770557Y-94112828D01*
X172666500Y-94364043D01*
X172666500Y-94750625D01*
X172837375Y-94921500D01*
X173896500Y-94921500D01*
X173896500Y-94901500D01*
X174053500Y-94901500D01*
X174053500Y-94921500D01*
X175112625Y-94921500D01*
X175283500Y-94750625D01*
X175283500Y-94364043D01*
X175179443Y-94112828D01*
X175177289Y-94110674D01*
X175187585Y-94104048D01*
X175277308Y-93972734D01*
X175277308Y-94045000D01*
X175277308Y-94045000D01*
G37*
X175277308Y-94045000D02*
X175334939Y-94351283D01*
X175515952Y-94632585D01*
X175792146Y-94821300D01*
X176120000Y-94887692D01*
X177120000Y-94887692D01*
X177426283Y-94830061D01*
X177707585Y-94649048D01*
X177727819Y-94619434D01*
X177732828Y-94624443D01*
X177984043Y-94728500D01*
X178087126Y-94728500D01*
X177604817Y-95210809D01*
X177358151Y-95312729D01*
X177268066Y-95402657D01*
X177078107Y-95212367D01*
X176606464Y-95016523D01*
X176095777Y-95016078D01*
X175623792Y-95211098D01*
X175283500Y-95550797D01*
X175283500Y-95249375D01*
X175112625Y-95078500D01*
X174053500Y-95078500D01*
X174053500Y-96012625D01*
X174224375Y-96183500D01*
X174735956Y-96183500D01*
X174987171Y-96079444D01*
X175097372Y-95969243D01*
X175066523Y-96043536D01*
X175066078Y-96554223D01*
X175261098Y-97026208D01*
X175621893Y-97387633D01*
X175873977Y-97492308D01*
X175850000Y-97492308D01*
X175543717Y-97549939D01*
X175506588Y-97573831D01*
X175447854Y-97533700D01*
X175120000Y-97467308D01*
X174420000Y-97467308D01*
X174123715Y-97523058D01*
X174123922Y-97285777D01*
X173928902Y-96813792D01*
X173568107Y-96452367D01*
X173097163Y-96256813D01*
X173036481Y-96109951D01*
X173214044Y-96183500D01*
X173725625Y-96183500D01*
X173896500Y-96012625D01*
X173896500Y-95078500D01*
X172837375Y-95078500D01*
X172666500Y-95249375D01*
X172666500Y-95600914D01*
X172633500Y-95567857D01*
X172633500Y-95199375D01*
X172462625Y-95028500D01*
X171403500Y-95028500D01*
X171403500Y-95048500D01*
X171246500Y-95048500D01*
X171246500Y-95028500D01*
X170187375Y-95028500D01*
X170137500Y-95078375D01*
X170012625Y-94953500D01*
X169961672Y-94953500D01*
X170115658Y-94799783D01*
X170187375Y-94871500D01*
X171246500Y-94871500D01*
X171246500Y-94851500D01*
X171403500Y-94851500D01*
X171403500Y-94871500D01*
X172462625Y-94871500D01*
X172633500Y-94700625D01*
X172633500Y-94314043D01*
X172529443Y-94062828D01*
X172527289Y-94060674D01*
X172537585Y-94054048D01*
X172588931Y-93978900D01*
X172676015Y-93978900D01*
X172745952Y-94087585D01*
X172775566Y-94107819D01*
X172770557Y-94112828D01*
X172666500Y-94364043D01*
X172666500Y-94750625D01*
X172837375Y-94921500D01*
X173896500Y-94921500D01*
X173896500Y-94901500D01*
X174053500Y-94901500D01*
X174053500Y-94921500D01*
X175112625Y-94921500D01*
X175283500Y-94750625D01*
X175283500Y-94364043D01*
X175179443Y-94112828D01*
X175177289Y-94110674D01*
X175187585Y-94104048D01*
X175277308Y-93972734D01*
X175277308Y-94045000D01*
G36*
X182873500Y-95507308D02*
X181935000Y-95507308D01*
X181628717Y-95564939D01*
X181428546Y-95693745D01*
X181252854Y-95573700D01*
X181248635Y-95572846D01*
X181204386Y-95350391D01*
X181170716Y-95300000D01*
X180992187Y-95032813D01*
X180992184Y-95032811D01*
X180758788Y-94799415D01*
X180758922Y-94645777D01*
X180563902Y-94173792D01*
X180203107Y-93812367D01*
X179764270Y-93630145D01*
X179632625Y-93498500D01*
X178698500Y-93498500D01*
X178698500Y-93518500D01*
X178541500Y-93518500D01*
X178541500Y-93498500D01*
X178521500Y-93498500D01*
X178521500Y-93341500D01*
X178541500Y-93341500D01*
X178541500Y-92282375D01*
X178698500Y-92282375D01*
X178698500Y-93341500D01*
X179632625Y-93341500D01*
X179803500Y-93170625D01*
X179803500Y-92659044D01*
X179699444Y-92407829D01*
X179507172Y-92215557D01*
X179255957Y-92111500D01*
X178869375Y-92111500D01*
X178698500Y-92282375D01*
X178541500Y-92282375D01*
X178370625Y-92111500D01*
X177984043Y-92111500D01*
X177732828Y-92215557D01*
X177730674Y-92217711D01*
X177724048Y-92207415D01*
X177598900Y-92121905D01*
X177598900Y-91330000D01*
X177524386Y-90955391D01*
X177365334Y-90717353D01*
X177676208Y-90588902D01*
X178037633Y-90228107D01*
X178233477Y-89756464D01*
X178233781Y-89408111D01*
X178356283Y-89385061D01*
X178637585Y-89204048D01*
X178826300Y-88927854D01*
X178892692Y-88600000D01*
X178892692Y-88012793D01*
X179243536Y-88158477D01*
X179754223Y-88158922D01*
X180226208Y-87963902D01*
X180587633Y-87603107D01*
X180783477Y-87131464D01*
X180783922Y-86620777D01*
X180588902Y-86148792D01*
X180228107Y-85787367D01*
X179756464Y-85591523D01*
X179245777Y-85591078D01*
X178892692Y-85736970D01*
X178892692Y-84825000D01*
X178835061Y-84518717D01*
X178733788Y-84361334D01*
X179006283Y-84310061D01*
X179287585Y-84129048D01*
X179297917Y-84113927D01*
X179572146Y-84301300D01*
X179900000Y-84367692D01*
X180600000Y-84367692D01*
X180906283Y-84310061D01*
X181187585Y-84129048D01*
X181376300Y-83852854D01*
X181442692Y-83525000D01*
X181442692Y-83066682D01*
X182292187Y-82217187D01*
X182504386Y-81899609D01*
X182578900Y-81525000D01*
X182578900Y-79320507D01*
X182837585Y-79154048D01*
X182873500Y-79101485D01*
X182873500Y-95507308D01*
X182873500Y-95507308D01*
G37*
X182873500Y-95507308D02*
X181935000Y-95507308D01*
X181628717Y-95564939D01*
X181428546Y-95693745D01*
X181252854Y-95573700D01*
X181248635Y-95572846D01*
X181204386Y-95350391D01*
X181170716Y-95300000D01*
X180992187Y-95032813D01*
X180992184Y-95032811D01*
X180758788Y-94799415D01*
X180758922Y-94645777D01*
X180563902Y-94173792D01*
X180203107Y-93812367D01*
X179764270Y-93630145D01*
X179632625Y-93498500D01*
X178698500Y-93498500D01*
X178698500Y-93518500D01*
X178541500Y-93518500D01*
X178541500Y-93498500D01*
X178521500Y-93498500D01*
X178521500Y-93341500D01*
X178541500Y-93341500D01*
X178541500Y-92282375D01*
X178698500Y-92282375D01*
X178698500Y-93341500D01*
X179632625Y-93341500D01*
X179803500Y-93170625D01*
X179803500Y-92659044D01*
X179699444Y-92407829D01*
X179507172Y-92215557D01*
X179255957Y-92111500D01*
X178869375Y-92111500D01*
X178698500Y-92282375D01*
X178541500Y-92282375D01*
X178370625Y-92111500D01*
X177984043Y-92111500D01*
X177732828Y-92215557D01*
X177730674Y-92217711D01*
X177724048Y-92207415D01*
X177598900Y-92121905D01*
X177598900Y-91330000D01*
X177524386Y-90955391D01*
X177365334Y-90717353D01*
X177676208Y-90588902D01*
X178037633Y-90228107D01*
X178233477Y-89756464D01*
X178233781Y-89408111D01*
X178356283Y-89385061D01*
X178637585Y-89204048D01*
X178826300Y-88927854D01*
X178892692Y-88600000D01*
X178892692Y-88012793D01*
X179243536Y-88158477D01*
X179754223Y-88158922D01*
X180226208Y-87963902D01*
X180587633Y-87603107D01*
X180783477Y-87131464D01*
X180783922Y-86620777D01*
X180588902Y-86148792D01*
X180228107Y-85787367D01*
X179756464Y-85591523D01*
X179245777Y-85591078D01*
X178892692Y-85736970D01*
X178892692Y-84825000D01*
X178835061Y-84518717D01*
X178733788Y-84361334D01*
X179006283Y-84310061D01*
X179287585Y-84129048D01*
X179297917Y-84113927D01*
X179572146Y-84301300D01*
X179900000Y-84367692D01*
X180600000Y-84367692D01*
X180906283Y-84310061D01*
X181187585Y-84129048D01*
X181376300Y-83852854D01*
X181442692Y-83525000D01*
X181442692Y-83066682D01*
X182292187Y-82217187D01*
X182504386Y-81899609D01*
X182578900Y-81525000D01*
X182578900Y-79320507D01*
X182837585Y-79154048D01*
X182873500Y-79101485D01*
X182873500Y-95507308D01*
G36*
X131571100Y-87531711D02*
X131432415Y-87620952D01*
X131243700Y-87897146D01*
X131177308Y-88225000D01*
X131177308Y-88875000D01*
X131234939Y-89181283D01*
X131389513Y-89421498D01*
X131336500Y-89421498D01*
X131336500Y-89471100D01*
X129161747Y-89471100D01*
X129038902Y-89173792D01*
X128678107Y-88812367D01*
X128206464Y-88616523D01*
X127695777Y-88616078D01*
X127223792Y-88811098D01*
X126862367Y-89171893D01*
X126666523Y-89643536D01*
X126666078Y-90154223D01*
X126712373Y-90266267D01*
X126495777Y-90266078D01*
X126023792Y-90461098D01*
X125662367Y-90821893D01*
X125466523Y-91293536D01*
X125466078Y-91804223D01*
X125661098Y-92276208D01*
X126021893Y-92637633D01*
X126493536Y-92833477D01*
X127004223Y-92833922D01*
X127476208Y-92638902D01*
X127837633Y-92278107D01*
X128033477Y-91806464D01*
X128033922Y-91295777D01*
X128032490Y-91292312D01*
X128125391Y-91354386D01*
X128500000Y-91428900D01*
X131513007Y-91428900D01*
X131571100Y-91468593D01*
X131571100Y-92300000D01*
X131645614Y-92674609D01*
X131857813Y-92992187D01*
X132161726Y-93296100D01*
X128950000Y-93296100D01*
X128575391Y-93370614D01*
X128257813Y-93582813D01*
X126187500Y-95653126D01*
X121756296Y-91221922D01*
X121783477Y-91156464D01*
X121783922Y-90645777D01*
X121588902Y-90173792D01*
X121425142Y-90009746D01*
X121414210Y-87572053D01*
X121700000Y-87628900D01*
X129400000Y-87628900D01*
X129774609Y-87554386D01*
X130092187Y-87342187D01*
X131142187Y-86292187D01*
X131298914Y-86057629D01*
X131537585Y-85904048D01*
X131571100Y-85854997D01*
X131571100Y-87531711D01*
X131571100Y-87531711D01*
G37*
X131571100Y-87531711D02*
X131432415Y-87620952D01*
X131243700Y-87897146D01*
X131177308Y-88225000D01*
X131177308Y-88875000D01*
X131234939Y-89181283D01*
X131389513Y-89421498D01*
X131336500Y-89421498D01*
X131336500Y-89471100D01*
X129161747Y-89471100D01*
X129038902Y-89173792D01*
X128678107Y-88812367D01*
X128206464Y-88616523D01*
X127695777Y-88616078D01*
X127223792Y-88811098D01*
X126862367Y-89171893D01*
X126666523Y-89643536D01*
X126666078Y-90154223D01*
X126712373Y-90266267D01*
X126495777Y-90266078D01*
X126023792Y-90461098D01*
X125662367Y-90821893D01*
X125466523Y-91293536D01*
X125466078Y-91804223D01*
X125661098Y-92276208D01*
X126021893Y-92637633D01*
X126493536Y-92833477D01*
X127004223Y-92833922D01*
X127476208Y-92638902D01*
X127837633Y-92278107D01*
X128033477Y-91806464D01*
X128033922Y-91295777D01*
X128032490Y-91292312D01*
X128125391Y-91354386D01*
X128500000Y-91428900D01*
X131513007Y-91428900D01*
X131571100Y-91468593D01*
X131571100Y-92300000D01*
X131645614Y-92674609D01*
X131857813Y-92992187D01*
X132161726Y-93296100D01*
X128950000Y-93296100D01*
X128575391Y-93370614D01*
X128257813Y-93582813D01*
X126187500Y-95653126D01*
X121756296Y-91221922D01*
X121783477Y-91156464D01*
X121783922Y-90645777D01*
X121588902Y-90173792D01*
X121425142Y-90009746D01*
X121414210Y-87572053D01*
X121700000Y-87628900D01*
X129400000Y-87628900D01*
X129774609Y-87554386D01*
X130092187Y-87342187D01*
X131142187Y-86292187D01*
X131298914Y-86057629D01*
X131537585Y-85904048D01*
X131571100Y-85854997D01*
X131571100Y-87531711D01*
G36*
X152457613Y-71908013D02*
X152245414Y-72225591D01*
X152240989Y-72247836D01*
X151964335Y-72432690D01*
X151786902Y-72698238D01*
X151446482Y-72365854D01*
X150926911Y-72150646D01*
X150688300Y-72290638D01*
X150688300Y-73572500D01*
X150708300Y-73572500D01*
X150708300Y-73729500D01*
X150688300Y-73729500D01*
X150688300Y-75011362D01*
X150926911Y-75151354D01*
X151446482Y-74936146D01*
X151786902Y-74603762D01*
X151964335Y-74869310D01*
X152508231Y-75232729D01*
X153149800Y-75360345D01*
X153791369Y-75232729D01*
X154335265Y-74869310D01*
X154512698Y-74603762D01*
X154853118Y-74936146D01*
X155372689Y-75151354D01*
X155611300Y-75011362D01*
X155611300Y-73729500D01*
X155591300Y-73729500D01*
X155591300Y-73572500D01*
X155611300Y-73572500D01*
X155611300Y-73552500D01*
X155768300Y-73552500D01*
X155768300Y-73572500D01*
X155788300Y-73572500D01*
X155788300Y-73729500D01*
X155768300Y-73729500D01*
X155768300Y-75011362D01*
X156006911Y-75151354D01*
X156526482Y-74936146D01*
X156866902Y-74603762D01*
X157044335Y-74869310D01*
X157588231Y-75232729D01*
X157694492Y-75253866D01*
X159107308Y-76666682D01*
X159107308Y-77125000D01*
X159164939Y-77431283D01*
X159345952Y-77712585D01*
X159622146Y-77901300D01*
X159950000Y-77967692D01*
X160650000Y-77967692D01*
X160956283Y-77910061D01*
X161237585Y-77729048D01*
X161339003Y-77580618D01*
X161462828Y-77704443D01*
X161714043Y-77808500D01*
X161950625Y-77808500D01*
X162121500Y-77637625D01*
X162121500Y-76553500D01*
X162101500Y-76553500D01*
X162101500Y-76396500D01*
X162121500Y-76396500D01*
X162121500Y-75312375D01*
X161950625Y-75141500D01*
X161714043Y-75141500D01*
X161462828Y-75245557D01*
X161338981Y-75369404D01*
X161254048Y-75237415D01*
X161112550Y-75140734D01*
X161606482Y-74936146D01*
X162034598Y-74518136D01*
X162270160Y-73968112D01*
X162130420Y-73729500D01*
X160848300Y-73729500D01*
X160848300Y-73749500D01*
X160691300Y-73749500D01*
X160691300Y-73729500D01*
X160671300Y-73729500D01*
X160671300Y-73572500D01*
X160691300Y-73572500D01*
X160691300Y-73552500D01*
X160848300Y-73552500D01*
X160848300Y-73572500D01*
X162130420Y-73572500D01*
X162270160Y-73333888D01*
X162034598Y-72783864D01*
X161901492Y-72653900D01*
X162424505Y-72653900D01*
X162366523Y-72793536D01*
X162366078Y-73304223D01*
X162561098Y-73776208D01*
X162671100Y-73886402D01*
X162671100Y-74750000D01*
X162721100Y-75001368D01*
X162721100Y-75156057D01*
X162685957Y-75141500D01*
X162449375Y-75141500D01*
X162278500Y-75312375D01*
X162278500Y-76396500D01*
X162298500Y-76396500D01*
X162298500Y-76553500D01*
X162278500Y-76553500D01*
X162278500Y-77637625D01*
X162449375Y-77808500D01*
X162685957Y-77808500D01*
X162721100Y-77793943D01*
X162721100Y-78700000D01*
X162795614Y-79074609D01*
X163007813Y-79392187D01*
X163696629Y-80081003D01*
X163623792Y-80111098D01*
X163262367Y-80471893D01*
X163066523Y-80943536D01*
X163066078Y-81454223D01*
X163261098Y-81926208D01*
X163610161Y-82275880D01*
X163462415Y-82370952D01*
X163273700Y-82647146D01*
X163233411Y-82846100D01*
X155995759Y-82846100D01*
X156376208Y-82688902D01*
X156737633Y-82328107D01*
X156933477Y-81856464D01*
X156933922Y-81345777D01*
X156738902Y-80873792D01*
X156519716Y-80654223D01*
X157866078Y-80654223D01*
X158061098Y-81126208D01*
X158421893Y-81487633D01*
X158893536Y-81683477D01*
X159404223Y-81683922D01*
X159876208Y-81488902D01*
X160237633Y-81128107D01*
X160433477Y-80656464D01*
X160433511Y-80617424D01*
X160561098Y-80926208D01*
X160921893Y-81287633D01*
X161393536Y-81483477D01*
X161904223Y-81483922D01*
X162376208Y-81288902D01*
X162737633Y-80928107D01*
X162933477Y-80456464D01*
X162933922Y-79945777D01*
X162738902Y-79473792D01*
X162378107Y-79112367D01*
X161906464Y-78916523D01*
X161395777Y-78916078D01*
X160923792Y-79111098D01*
X160562367Y-79471893D01*
X160366523Y-79943536D01*
X160366489Y-79982576D01*
X160238902Y-79673792D01*
X159878107Y-79312367D01*
X159406464Y-79116523D01*
X158895777Y-79116078D01*
X158423792Y-79311098D01*
X158062367Y-79671893D01*
X157866523Y-80143536D01*
X157866078Y-80654223D01*
X156519716Y-80654223D01*
X156378107Y-80512367D01*
X155906464Y-80316523D01*
X155395777Y-80316078D01*
X155311157Y-80351042D01*
X155433477Y-80056464D01*
X155433922Y-79545777D01*
X155238902Y-79073792D01*
X154878107Y-78712367D01*
X154406464Y-78516523D01*
X153895777Y-78516078D01*
X153423792Y-78711098D01*
X153062367Y-79071893D01*
X152866523Y-79543536D01*
X152866078Y-80054223D01*
X153061098Y-80526208D01*
X153271155Y-80736632D01*
X153062415Y-80870952D01*
X153042181Y-80900566D01*
X153037172Y-80895557D01*
X152785957Y-80791500D01*
X152399375Y-80791500D01*
X152228500Y-80962375D01*
X152228500Y-82021500D01*
X152248500Y-82021500D01*
X152248500Y-82178500D01*
X152228500Y-82178500D01*
X152228500Y-82198500D01*
X152071500Y-82198500D01*
X152071500Y-82178500D01*
X151137375Y-82178500D01*
X150966500Y-82349375D01*
X150966500Y-82846100D01*
X137075000Y-82846100D01*
X136700391Y-82920614D01*
X136382813Y-83132813D01*
X134617813Y-84897813D01*
X134405614Y-85215391D01*
X134331100Y-85590000D01*
X134331100Y-86720000D01*
X134405614Y-87094609D01*
X134617813Y-87412187D01*
X134747126Y-87541500D01*
X134671498Y-87541500D01*
X134671498Y-87712373D01*
X134500625Y-87541500D01*
X134084043Y-87541500D01*
X133832828Y-87645557D01*
X133745489Y-87732896D01*
X133684048Y-87637415D01*
X133528900Y-87531407D01*
X133528900Y-85136650D01*
X133637633Y-85028107D01*
X133833477Y-84556464D01*
X133833922Y-84045777D01*
X133638902Y-83573792D01*
X133278107Y-83212367D01*
X132806464Y-83016523D01*
X132295777Y-83016078D01*
X131823792Y-83211098D01*
X131783527Y-83251293D01*
X131735061Y-82993717D01*
X131554048Y-82712415D01*
X131428900Y-82626905D01*
X131428900Y-81378900D01*
X133944526Y-81378900D01*
X134857813Y-82292187D01*
X135175391Y-82504386D01*
X135550000Y-82578900D01*
X138475000Y-82578900D01*
X138849609Y-82504386D01*
X139167187Y-82292187D01*
X139250586Y-82208788D01*
X139404223Y-82208922D01*
X139876208Y-82013902D01*
X140237633Y-81653107D01*
X140433477Y-81181464D01*
X140433613Y-81025761D01*
X140692184Y-80767189D01*
X140692187Y-80767187D01*
X140784587Y-80628900D01*
X141414567Y-80628900D01*
X141574535Y-80868310D01*
X142118431Y-81231729D01*
X142279367Y-81263741D01*
X143107813Y-82092187D01*
X143425391Y-82304386D01*
X143800000Y-82378900D01*
X147800000Y-82378900D01*
X148174609Y-82304386D01*
X148492187Y-82092187D01*
X150005474Y-80578900D01*
X150313350Y-80578900D01*
X150421893Y-80687633D01*
X150893536Y-80883477D01*
X151291155Y-80883823D01*
X151262828Y-80895557D01*
X151070556Y-81087829D01*
X150966500Y-81339044D01*
X150966500Y-81850625D01*
X151137375Y-82021500D01*
X152071500Y-82021500D01*
X152071500Y-80962375D01*
X151900625Y-80791500D01*
X151627902Y-80791500D01*
X151876208Y-80688902D01*
X152237633Y-80328107D01*
X152433477Y-79856464D01*
X152433922Y-79345777D01*
X152238902Y-78873792D01*
X151878107Y-78512367D01*
X151406464Y-78316523D01*
X150895777Y-78316078D01*
X150423792Y-78511098D01*
X150313598Y-78621100D01*
X149600000Y-78621100D01*
X149225391Y-78695614D01*
X148907813Y-78907813D01*
X147394526Y-80421100D01*
X146833500Y-80421100D01*
X146833500Y-79899375D01*
X146662625Y-79728500D01*
X145378500Y-79728500D01*
X145378500Y-79748500D01*
X145221500Y-79748500D01*
X145221500Y-79728500D01*
X145201500Y-79728500D01*
X145201500Y-79571500D01*
X145221500Y-79571500D01*
X145221500Y-79551500D01*
X145378500Y-79551500D01*
X145378500Y-79571500D01*
X146662625Y-79571500D01*
X146833500Y-79400625D01*
X146833500Y-78664043D01*
X146729443Y-78412828D01*
X146537171Y-78220556D01*
X146487666Y-78200050D01*
X146838884Y-77674414D01*
X146966500Y-77032845D01*
X146966500Y-76967155D01*
X146838884Y-76325586D01*
X146475465Y-75781690D01*
X145931569Y-75418271D01*
X145290000Y-75290655D01*
X144648431Y-75418271D01*
X144272800Y-75669259D01*
X144204048Y-75562415D01*
X143927854Y-75373700D01*
X143779670Y-75343692D01*
X143839800Y-75343692D01*
X144146083Y-75286061D01*
X144427385Y-75105048D01*
X144602947Y-74848104D01*
X144693118Y-74936146D01*
X145212689Y-75151354D01*
X145451300Y-75011362D01*
X145451300Y-73729500D01*
X145431300Y-73729500D01*
X145431300Y-73572500D01*
X145451300Y-73572500D01*
X145451300Y-73552500D01*
X145608300Y-73552500D01*
X145608300Y-73572500D01*
X145628300Y-73572500D01*
X145628300Y-73729500D01*
X145608300Y-73729500D01*
X145608300Y-75011362D01*
X145846911Y-75151354D01*
X146366482Y-74936146D01*
X146706902Y-74603762D01*
X146884335Y-74869310D01*
X147428231Y-75232729D01*
X148066422Y-75359673D01*
X148066078Y-75754223D01*
X148261098Y-76226208D01*
X148621893Y-76587633D01*
X149093536Y-76783477D01*
X149604223Y-76783922D01*
X150076208Y-76588902D01*
X150437633Y-76228107D01*
X150633477Y-75756464D01*
X150633922Y-75245777D01*
X150531300Y-74997413D01*
X150531300Y-73729500D01*
X150511300Y-73729500D01*
X150511300Y-73572500D01*
X150531300Y-73572500D01*
X150531300Y-72290638D01*
X150292689Y-72150646D01*
X149773118Y-72365854D01*
X149432698Y-72698238D01*
X149255265Y-72432690D01*
X148822922Y-72143808D01*
X148761987Y-72052613D01*
X148585874Y-71876500D01*
X152489126Y-71876500D01*
X152457613Y-71908013D01*
X152457613Y-71908013D01*
G37*
X152457613Y-71908013D02*
X152245414Y-72225591D01*
X152240989Y-72247836D01*
X151964335Y-72432690D01*
X151786902Y-72698238D01*
X151446482Y-72365854D01*
X150926911Y-72150646D01*
X150688300Y-72290638D01*
X150688300Y-73572500D01*
X150708300Y-73572500D01*
X150708300Y-73729500D01*
X150688300Y-73729500D01*
X150688300Y-75011362D01*
X150926911Y-75151354D01*
X151446482Y-74936146D01*
X151786902Y-74603762D01*
X151964335Y-74869310D01*
X152508231Y-75232729D01*
X153149800Y-75360345D01*
X153791369Y-75232729D01*
X154335265Y-74869310D01*
X154512698Y-74603762D01*
X154853118Y-74936146D01*
X155372689Y-75151354D01*
X155611300Y-75011362D01*
X155611300Y-73729500D01*
X155591300Y-73729500D01*
X155591300Y-73572500D01*
X155611300Y-73572500D01*
X155611300Y-73552500D01*
X155768300Y-73552500D01*
X155768300Y-73572500D01*
X155788300Y-73572500D01*
X155788300Y-73729500D01*
X155768300Y-73729500D01*
X155768300Y-75011362D01*
X156006911Y-75151354D01*
X156526482Y-74936146D01*
X156866902Y-74603762D01*
X157044335Y-74869310D01*
X157588231Y-75232729D01*
X157694492Y-75253866D01*
X159107308Y-76666682D01*
X159107308Y-77125000D01*
X159164939Y-77431283D01*
X159345952Y-77712585D01*
X159622146Y-77901300D01*
X159950000Y-77967692D01*
X160650000Y-77967692D01*
X160956283Y-77910061D01*
X161237585Y-77729048D01*
X161339003Y-77580618D01*
X161462828Y-77704443D01*
X161714043Y-77808500D01*
X161950625Y-77808500D01*
X162121500Y-77637625D01*
X162121500Y-76553500D01*
X162101500Y-76553500D01*
X162101500Y-76396500D01*
X162121500Y-76396500D01*
X162121500Y-75312375D01*
X161950625Y-75141500D01*
X161714043Y-75141500D01*
X161462828Y-75245557D01*
X161338981Y-75369404D01*
X161254048Y-75237415D01*
X161112550Y-75140734D01*
X161606482Y-74936146D01*
X162034598Y-74518136D01*
X162270160Y-73968112D01*
X162130420Y-73729500D01*
X160848300Y-73729500D01*
X160848300Y-73749500D01*
X160691300Y-73749500D01*
X160691300Y-73729500D01*
X160671300Y-73729500D01*
X160671300Y-73572500D01*
X160691300Y-73572500D01*
X160691300Y-73552500D01*
X160848300Y-73552500D01*
X160848300Y-73572500D01*
X162130420Y-73572500D01*
X162270160Y-73333888D01*
X162034598Y-72783864D01*
X161901492Y-72653900D01*
X162424505Y-72653900D01*
X162366523Y-72793536D01*
X162366078Y-73304223D01*
X162561098Y-73776208D01*
X162671100Y-73886402D01*
X162671100Y-74750000D01*
X162721100Y-75001368D01*
X162721100Y-75156057D01*
X162685957Y-75141500D01*
X162449375Y-75141500D01*
X162278500Y-75312375D01*
X162278500Y-76396500D01*
X162298500Y-76396500D01*
X162298500Y-76553500D01*
X162278500Y-76553500D01*
X162278500Y-77637625D01*
X162449375Y-77808500D01*
X162685957Y-77808500D01*
X162721100Y-77793943D01*
X162721100Y-78700000D01*
X162795614Y-79074609D01*
X163007813Y-79392187D01*
X163696629Y-80081003D01*
X163623792Y-80111098D01*
X163262367Y-80471893D01*
X163066523Y-80943536D01*
X163066078Y-81454223D01*
X163261098Y-81926208D01*
X163610161Y-82275880D01*
X163462415Y-82370952D01*
X163273700Y-82647146D01*
X163233411Y-82846100D01*
X155995759Y-82846100D01*
X156376208Y-82688902D01*
X156737633Y-82328107D01*
X156933477Y-81856464D01*
X156933922Y-81345777D01*
X156738902Y-80873792D01*
X156519716Y-80654223D01*
X157866078Y-80654223D01*
X158061098Y-81126208D01*
X158421893Y-81487633D01*
X158893536Y-81683477D01*
X159404223Y-81683922D01*
X159876208Y-81488902D01*
X160237633Y-81128107D01*
X160433477Y-80656464D01*
X160433511Y-80617424D01*
X160561098Y-80926208D01*
X160921893Y-81287633D01*
X161393536Y-81483477D01*
X161904223Y-81483922D01*
X162376208Y-81288902D01*
X162737633Y-80928107D01*
X162933477Y-80456464D01*
X162933922Y-79945777D01*
X162738902Y-79473792D01*
X162378107Y-79112367D01*
X161906464Y-78916523D01*
X161395777Y-78916078D01*
X160923792Y-79111098D01*
X160562367Y-79471893D01*
X160366523Y-79943536D01*
X160366489Y-79982576D01*
X160238902Y-79673792D01*
X159878107Y-79312367D01*
X159406464Y-79116523D01*
X158895777Y-79116078D01*
X158423792Y-79311098D01*
X158062367Y-79671893D01*
X157866523Y-80143536D01*
X157866078Y-80654223D01*
X156519716Y-80654223D01*
X156378107Y-80512367D01*
X155906464Y-80316523D01*
X155395777Y-80316078D01*
X155311157Y-80351042D01*
X155433477Y-80056464D01*
X155433922Y-79545777D01*
X155238902Y-79073792D01*
X154878107Y-78712367D01*
X154406464Y-78516523D01*
X153895777Y-78516078D01*
X153423792Y-78711098D01*
X153062367Y-79071893D01*
X152866523Y-79543536D01*
X152866078Y-80054223D01*
X153061098Y-80526208D01*
X153271155Y-80736632D01*
X153062415Y-80870952D01*
X153042181Y-80900566D01*
X153037172Y-80895557D01*
X152785957Y-80791500D01*
X152399375Y-80791500D01*
X152228500Y-80962375D01*
X152228500Y-82021500D01*
X152248500Y-82021500D01*
X152248500Y-82178500D01*
X152228500Y-82178500D01*
X152228500Y-82198500D01*
X152071500Y-82198500D01*
X152071500Y-82178500D01*
X151137375Y-82178500D01*
X150966500Y-82349375D01*
X150966500Y-82846100D01*
X137075000Y-82846100D01*
X136700391Y-82920614D01*
X136382813Y-83132813D01*
X134617813Y-84897813D01*
X134405614Y-85215391D01*
X134331100Y-85590000D01*
X134331100Y-86720000D01*
X134405614Y-87094609D01*
X134617813Y-87412187D01*
X134747126Y-87541500D01*
X134671498Y-87541500D01*
X134671498Y-87712373D01*
X134500625Y-87541500D01*
X134084043Y-87541500D01*
X133832828Y-87645557D01*
X133745489Y-87732896D01*
X133684048Y-87637415D01*
X133528900Y-87531407D01*
X133528900Y-85136650D01*
X133637633Y-85028107D01*
X133833477Y-84556464D01*
X133833922Y-84045777D01*
X133638902Y-83573792D01*
X133278107Y-83212367D01*
X132806464Y-83016523D01*
X132295777Y-83016078D01*
X131823792Y-83211098D01*
X131783527Y-83251293D01*
X131735061Y-82993717D01*
X131554048Y-82712415D01*
X131428900Y-82626905D01*
X131428900Y-81378900D01*
X133944526Y-81378900D01*
X134857813Y-82292187D01*
X135175391Y-82504386D01*
X135550000Y-82578900D01*
X138475000Y-82578900D01*
X138849609Y-82504386D01*
X139167187Y-82292187D01*
X139250586Y-82208788D01*
X139404223Y-82208922D01*
X139876208Y-82013902D01*
X140237633Y-81653107D01*
X140433477Y-81181464D01*
X140433613Y-81025761D01*
X140692184Y-80767189D01*
X140692187Y-80767187D01*
X140784587Y-80628900D01*
X141414567Y-80628900D01*
X141574535Y-80868310D01*
X142118431Y-81231729D01*
X142279367Y-81263741D01*
X143107813Y-82092187D01*
X143425391Y-82304386D01*
X143800000Y-82378900D01*
X147800000Y-82378900D01*
X148174609Y-82304386D01*
X148492187Y-82092187D01*
X150005474Y-80578900D01*
X150313350Y-80578900D01*
X150421893Y-80687633D01*
X150893536Y-80883477D01*
X151291155Y-80883823D01*
X151262828Y-80895557D01*
X151070556Y-81087829D01*
X150966500Y-81339044D01*
X150966500Y-81850625D01*
X151137375Y-82021500D01*
X152071500Y-82021500D01*
X152071500Y-80962375D01*
X151900625Y-80791500D01*
X151627902Y-80791500D01*
X151876208Y-80688902D01*
X152237633Y-80328107D01*
X152433477Y-79856464D01*
X152433922Y-79345777D01*
X152238902Y-78873792D01*
X151878107Y-78512367D01*
X151406464Y-78316523D01*
X150895777Y-78316078D01*
X150423792Y-78511098D01*
X150313598Y-78621100D01*
X149600000Y-78621100D01*
X149225391Y-78695614D01*
X148907813Y-78907813D01*
X147394526Y-80421100D01*
X146833500Y-80421100D01*
X146833500Y-79899375D01*
X146662625Y-79728500D01*
X145378500Y-79728500D01*
X145378500Y-79748500D01*
X145221500Y-79748500D01*
X145221500Y-79728500D01*
X145201500Y-79728500D01*
X145201500Y-79571500D01*
X145221500Y-79571500D01*
X145221500Y-79551500D01*
X145378500Y-79551500D01*
X145378500Y-79571500D01*
X146662625Y-79571500D01*
X146833500Y-79400625D01*
X146833500Y-78664043D01*
X146729443Y-78412828D01*
X146537171Y-78220556D01*
X146487666Y-78200050D01*
X146838884Y-77674414D01*
X146966500Y-77032845D01*
X146966500Y-76967155D01*
X146838884Y-76325586D01*
X146475465Y-75781690D01*
X145931569Y-75418271D01*
X145290000Y-75290655D01*
X144648431Y-75418271D01*
X144272800Y-75669259D01*
X144204048Y-75562415D01*
X143927854Y-75373700D01*
X143779670Y-75343692D01*
X143839800Y-75343692D01*
X144146083Y-75286061D01*
X144427385Y-75105048D01*
X144602947Y-74848104D01*
X144693118Y-74936146D01*
X145212689Y-75151354D01*
X145451300Y-75011362D01*
X145451300Y-73729500D01*
X145431300Y-73729500D01*
X145431300Y-73572500D01*
X145451300Y-73572500D01*
X145451300Y-73552500D01*
X145608300Y-73552500D01*
X145608300Y-73572500D01*
X145628300Y-73572500D01*
X145628300Y-73729500D01*
X145608300Y-73729500D01*
X145608300Y-75011362D01*
X145846911Y-75151354D01*
X146366482Y-74936146D01*
X146706902Y-74603762D01*
X146884335Y-74869310D01*
X147428231Y-75232729D01*
X148066422Y-75359673D01*
X148066078Y-75754223D01*
X148261098Y-76226208D01*
X148621893Y-76587633D01*
X149093536Y-76783477D01*
X149604223Y-76783922D01*
X150076208Y-76588902D01*
X150437633Y-76228107D01*
X150633477Y-75756464D01*
X150633922Y-75245777D01*
X150531300Y-74997413D01*
X150531300Y-73729500D01*
X150511300Y-73729500D01*
X150511300Y-73572500D01*
X150531300Y-73572500D01*
X150531300Y-72290638D01*
X150292689Y-72150646D01*
X149773118Y-72365854D01*
X149432698Y-72698238D01*
X149255265Y-72432690D01*
X148822922Y-72143808D01*
X148761987Y-72052613D01*
X148585874Y-71876500D01*
X152489126Y-71876500D01*
X152457613Y-71908013D01*
G36*
X169153500Y-78796500D02*
X169173500Y-78796500D01*
X169173500Y-78953500D01*
X169153500Y-78953500D01*
X169153500Y-80012625D01*
X169324375Y-80183500D01*
X169710957Y-80183500D01*
X169732308Y-80174656D01*
X169732308Y-80625000D01*
X169784684Y-80903355D01*
X169591523Y-81368536D01*
X169591078Y-81879223D01*
X169646100Y-82012387D01*
X169646100Y-82076015D01*
X169537415Y-82145952D01*
X169348700Y-82422146D01*
X169282308Y-82750000D01*
X169282308Y-84000000D01*
X169339939Y-84306283D01*
X169520952Y-84587585D01*
X169797146Y-84776300D01*
X170125000Y-84842692D01*
X171125000Y-84842692D01*
X171181179Y-84832121D01*
X171157308Y-84950000D01*
X171157308Y-85650000D01*
X171214939Y-85956283D01*
X171281151Y-86059180D01*
X171025000Y-86007308D01*
X169725000Y-86007308D01*
X169418717Y-86064939D01*
X169137415Y-86245952D01*
X168948700Y-86522146D01*
X168882308Y-86850000D01*
X168882308Y-87287064D01*
X168598107Y-87002367D01*
X168126464Y-86806523D01*
X167878900Y-86806307D01*
X167878900Y-85183708D01*
X168124223Y-85183922D01*
X168596208Y-84988902D01*
X168957633Y-84628107D01*
X169153477Y-84156464D01*
X169153922Y-83645777D01*
X168958902Y-83173792D01*
X168598107Y-82812367D01*
X168126464Y-82616523D01*
X167878900Y-82616307D01*
X167878900Y-81900000D01*
X167804386Y-81525391D01*
X167653688Y-81299856D01*
X167801208Y-81238902D01*
X168162633Y-80878107D01*
X168358477Y-80406464D01*
X168358700Y-80150221D01*
X168439043Y-80183500D01*
X168825625Y-80183500D01*
X168996500Y-80012625D01*
X168996500Y-78953500D01*
X168976500Y-78953500D01*
X168976500Y-78796500D01*
X168996500Y-78796500D01*
X168996500Y-78776500D01*
X169153500Y-78776500D01*
X169153500Y-78796500D01*
X169153500Y-78796500D01*
G37*
X169153500Y-78796500D02*
X169173500Y-78796500D01*
X169173500Y-78953500D01*
X169153500Y-78953500D01*
X169153500Y-80012625D01*
X169324375Y-80183500D01*
X169710957Y-80183500D01*
X169732308Y-80174656D01*
X169732308Y-80625000D01*
X169784684Y-80903355D01*
X169591523Y-81368536D01*
X169591078Y-81879223D01*
X169646100Y-82012387D01*
X169646100Y-82076015D01*
X169537415Y-82145952D01*
X169348700Y-82422146D01*
X169282308Y-82750000D01*
X169282308Y-84000000D01*
X169339939Y-84306283D01*
X169520952Y-84587585D01*
X169797146Y-84776300D01*
X170125000Y-84842692D01*
X171125000Y-84842692D01*
X171181179Y-84832121D01*
X171157308Y-84950000D01*
X171157308Y-85650000D01*
X171214939Y-85956283D01*
X171281151Y-86059180D01*
X171025000Y-86007308D01*
X169725000Y-86007308D01*
X169418717Y-86064939D01*
X169137415Y-86245952D01*
X168948700Y-86522146D01*
X168882308Y-86850000D01*
X168882308Y-87287064D01*
X168598107Y-87002367D01*
X168126464Y-86806523D01*
X167878900Y-86806307D01*
X167878900Y-85183708D01*
X168124223Y-85183922D01*
X168596208Y-84988902D01*
X168957633Y-84628107D01*
X169153477Y-84156464D01*
X169153922Y-83645777D01*
X168958902Y-83173792D01*
X168598107Y-82812367D01*
X168126464Y-82616523D01*
X167878900Y-82616307D01*
X167878900Y-81900000D01*
X167804386Y-81525391D01*
X167653688Y-81299856D01*
X167801208Y-81238902D01*
X168162633Y-80878107D01*
X168358477Y-80406464D01*
X168358700Y-80150221D01*
X168439043Y-80183500D01*
X168825625Y-80183500D01*
X168996500Y-80012625D01*
X168996500Y-78953500D01*
X168976500Y-78953500D01*
X168976500Y-78796500D01*
X168996500Y-78796500D01*
X168996500Y-78776500D01*
X169153500Y-78776500D01*
X169153500Y-78796500D01*
G36*
X174193536Y-82908477D02*
X174704223Y-82908922D01*
X174929158Y-82815981D01*
X174873700Y-82897146D01*
X174807308Y-83225000D01*
X174807308Y-83925000D01*
X174830934Y-84050561D01*
X174821100Y-84100000D01*
X174821100Y-84281419D01*
X174673700Y-84497146D01*
X174607308Y-84825000D01*
X174607308Y-85954489D01*
X174466523Y-86293536D01*
X174466078Y-86804223D01*
X174535030Y-86971100D01*
X174142692Y-86971100D01*
X174142692Y-86850000D01*
X174085061Y-86543717D01*
X173904048Y-86262415D01*
X173888927Y-86252083D01*
X174076300Y-85977854D01*
X174142692Y-85650000D01*
X174142692Y-84950000D01*
X174085061Y-84643717D01*
X173904048Y-84362415D01*
X173886076Y-84350135D01*
X173901300Y-84327854D01*
X173967692Y-84000000D01*
X173967692Y-82814698D01*
X174193536Y-82908477D01*
X174193536Y-82908477D01*
G37*
X174193536Y-82908477D02*
X174704223Y-82908922D01*
X174929158Y-82815981D01*
X174873700Y-82897146D01*
X174807308Y-83225000D01*
X174807308Y-83925000D01*
X174830934Y-84050561D01*
X174821100Y-84100000D01*
X174821100Y-84281419D01*
X174673700Y-84497146D01*
X174607308Y-84825000D01*
X174607308Y-85954489D01*
X174466523Y-86293536D01*
X174466078Y-86804223D01*
X174535030Y-86971100D01*
X174142692Y-86971100D01*
X174142692Y-86850000D01*
X174085061Y-86543717D01*
X173904048Y-86262415D01*
X173888927Y-86252083D01*
X174076300Y-85977854D01*
X174142692Y-85650000D01*
X174142692Y-84950000D01*
X174085061Y-84643717D01*
X173904048Y-84362415D01*
X173886076Y-84350135D01*
X173901300Y-84327854D01*
X173967692Y-84000000D01*
X173967692Y-82814698D01*
X174193536Y-82908477D01*
G36*
X159428500Y-85521500D02*
X159448500Y-85521500D01*
X159448500Y-85678500D01*
X159428500Y-85678500D01*
X159428500Y-85698500D01*
X159271500Y-85698500D01*
X159271500Y-85678500D01*
X159251500Y-85678500D01*
X159251500Y-85521500D01*
X159271500Y-85521500D01*
X159271500Y-85501500D01*
X159428500Y-85501500D01*
X159428500Y-85521500D01*
X159428500Y-85521500D01*
G37*
X159428500Y-85521500D02*
X159448500Y-85521500D01*
X159448500Y-85678500D01*
X159428500Y-85678500D01*
X159428500Y-85698500D01*
X159271500Y-85698500D01*
X159271500Y-85678500D01*
X159251500Y-85678500D01*
X159251500Y-85521500D01*
X159271500Y-85521500D01*
X159271500Y-85501500D01*
X159428500Y-85501500D01*
X159428500Y-85521500D01*
G36*
X118837308Y-73765000D02*
X118894939Y-74071283D01*
X119075952Y-74352585D01*
X119232089Y-74459269D01*
X119298681Y-74794049D01*
X119373669Y-74906277D01*
X119373601Y-74984315D01*
X119308346Y-74970673D01*
X119128500Y-75115500D01*
X119128500Y-76171500D01*
X119148500Y-76171500D01*
X119148500Y-76328500D01*
X119128500Y-76328500D01*
X119128500Y-77384500D01*
X119308346Y-77529327D01*
X119390534Y-77512145D01*
X119790212Y-77297171D01*
X120077199Y-76945611D01*
X120167170Y-76646211D01*
X120221892Y-76728108D01*
X120870300Y-77376516D01*
X120870300Y-78312182D01*
X120662415Y-78445952D01*
X120473700Y-78722146D01*
X120407308Y-79050000D01*
X120407308Y-79750000D01*
X120464939Y-80056283D01*
X120645952Y-80337585D01*
X120661073Y-80347917D01*
X120473700Y-80622146D01*
X120407308Y-80950000D01*
X120407308Y-81650000D01*
X120464939Y-81956283D01*
X120645952Y-82237585D01*
X120922146Y-82426300D01*
X121250000Y-82492692D01*
X121761950Y-82492692D01*
X121643717Y-82514939D01*
X121448696Y-82640431D01*
X121277854Y-82523700D01*
X120950000Y-82457308D01*
X119950000Y-82457308D01*
X119643717Y-82514939D01*
X119448696Y-82640431D01*
X119277854Y-82523700D01*
X119128502Y-82493456D01*
X119128502Y-82384502D01*
X119308346Y-82529327D01*
X119390534Y-82512145D01*
X119790212Y-82297171D01*
X120077199Y-81945611D01*
X120207805Y-81510987D01*
X120040038Y-81328500D01*
X119128500Y-81328500D01*
X119128500Y-81348500D01*
X118971500Y-81348500D01*
X118971500Y-81328500D01*
X118059962Y-81328500D01*
X117892195Y-81510987D01*
X118022801Y-81945611D01*
X118309788Y-82297171D01*
X118607513Y-82457308D01*
X117950000Y-82457308D01*
X117763460Y-82492408D01*
X117634578Y-82328500D01*
X116428500Y-82328500D01*
X116428500Y-82348500D01*
X116271500Y-82348500D01*
X116271500Y-82328500D01*
X116251500Y-82328500D01*
X116251500Y-82171500D01*
X116271500Y-82171500D01*
X116271500Y-81066500D01*
X116428500Y-81066500D01*
X116428500Y-82171500D01*
X117634578Y-82171500D01*
X117779075Y-81987734D01*
X117748451Y-81869618D01*
X117517368Y-81468647D01*
X117150430Y-81186629D01*
X116703500Y-81066500D01*
X116428500Y-81066500D01*
X116271500Y-81066500D01*
X115996500Y-81066500D01*
X115776500Y-81125633D01*
X115776500Y-80989013D01*
X117892195Y-80989013D01*
X118059962Y-81171500D01*
X118971500Y-81171500D01*
X118971500Y-80115500D01*
X119128500Y-80115500D01*
X119128500Y-81171500D01*
X120040038Y-81171500D01*
X120207805Y-80989013D01*
X120077199Y-80554389D01*
X119790212Y-80202829D01*
X119390534Y-79987855D01*
X119308346Y-79970673D01*
X119128500Y-80115500D01*
X118971500Y-80115500D01*
X118791654Y-79970673D01*
X118709466Y-79987855D01*
X118309788Y-80202829D01*
X118022801Y-80554389D01*
X117892195Y-80989013D01*
X115776500Y-80989013D01*
X115776500Y-76510987D01*
X117892195Y-76510987D01*
X118022801Y-76945611D01*
X118309788Y-77297171D01*
X118709466Y-77512145D01*
X118791654Y-77529327D01*
X118971500Y-77384500D01*
X118971500Y-76328500D01*
X118059962Y-76328500D01*
X117892195Y-76510987D01*
X115776500Y-76510987D01*
X115776500Y-76374367D01*
X115996500Y-76433500D01*
X116271500Y-76433500D01*
X116271500Y-75328500D01*
X116428500Y-75328500D01*
X116428500Y-76433500D01*
X116703500Y-76433500D01*
X117150430Y-76313371D01*
X117517368Y-76031353D01*
X117541768Y-75989013D01*
X117892195Y-75989013D01*
X118059962Y-76171500D01*
X118971500Y-76171500D01*
X118971500Y-75115500D01*
X118791654Y-74970673D01*
X118709466Y-74987855D01*
X118309788Y-75202829D01*
X118022801Y-75554389D01*
X117892195Y-75989013D01*
X117541768Y-75989013D01*
X117748451Y-75630382D01*
X117779075Y-75512266D01*
X117634578Y-75328500D01*
X116428500Y-75328500D01*
X116271500Y-75328500D01*
X116251500Y-75328500D01*
X116251500Y-75171500D01*
X116271500Y-75171500D01*
X116271500Y-74066500D01*
X116428500Y-74066500D01*
X116428500Y-75171500D01*
X117634578Y-75171500D01*
X117779075Y-74987734D01*
X117748451Y-74869618D01*
X117517368Y-74468647D01*
X117150430Y-74186629D01*
X116703500Y-74066500D01*
X116428500Y-74066500D01*
X116271500Y-74066500D01*
X115996500Y-74066500D01*
X115776500Y-74125633D01*
X115776500Y-71876500D01*
X118837308Y-71876500D01*
X118837308Y-73765000D01*
X118837308Y-73765000D01*
G37*
X118837308Y-73765000D02*
X118894939Y-74071283D01*
X119075952Y-74352585D01*
X119232089Y-74459269D01*
X119298681Y-74794049D01*
X119373669Y-74906277D01*
X119373601Y-74984315D01*
X119308346Y-74970673D01*
X119128500Y-75115500D01*
X119128500Y-76171500D01*
X119148500Y-76171500D01*
X119148500Y-76328500D01*
X119128500Y-76328500D01*
X119128500Y-77384500D01*
X119308346Y-77529327D01*
X119390534Y-77512145D01*
X119790212Y-77297171D01*
X120077199Y-76945611D01*
X120167170Y-76646211D01*
X120221892Y-76728108D01*
X120870300Y-77376516D01*
X120870300Y-78312182D01*
X120662415Y-78445952D01*
X120473700Y-78722146D01*
X120407308Y-79050000D01*
X120407308Y-79750000D01*
X120464939Y-80056283D01*
X120645952Y-80337585D01*
X120661073Y-80347917D01*
X120473700Y-80622146D01*
X120407308Y-80950000D01*
X120407308Y-81650000D01*
X120464939Y-81956283D01*
X120645952Y-82237585D01*
X120922146Y-82426300D01*
X121250000Y-82492692D01*
X121761950Y-82492692D01*
X121643717Y-82514939D01*
X121448696Y-82640431D01*
X121277854Y-82523700D01*
X120950000Y-82457308D01*
X119950000Y-82457308D01*
X119643717Y-82514939D01*
X119448696Y-82640431D01*
X119277854Y-82523700D01*
X119128502Y-82493456D01*
X119128502Y-82384502D01*
X119308346Y-82529327D01*
X119390534Y-82512145D01*
X119790212Y-82297171D01*
X120077199Y-81945611D01*
X120207805Y-81510987D01*
X120040038Y-81328500D01*
X119128500Y-81328500D01*
X119128500Y-81348500D01*
X118971500Y-81348500D01*
X118971500Y-81328500D01*
X118059962Y-81328500D01*
X117892195Y-81510987D01*
X118022801Y-81945611D01*
X118309788Y-82297171D01*
X118607513Y-82457308D01*
X117950000Y-82457308D01*
X117763460Y-82492408D01*
X117634578Y-82328500D01*
X116428500Y-82328500D01*
X116428500Y-82348500D01*
X116271500Y-82348500D01*
X116271500Y-82328500D01*
X116251500Y-82328500D01*
X116251500Y-82171500D01*
X116271500Y-82171500D01*
X116271500Y-81066500D01*
X116428500Y-81066500D01*
X116428500Y-82171500D01*
X117634578Y-82171500D01*
X117779075Y-81987734D01*
X117748451Y-81869618D01*
X117517368Y-81468647D01*
X117150430Y-81186629D01*
X116703500Y-81066500D01*
X116428500Y-81066500D01*
X116271500Y-81066500D01*
X115996500Y-81066500D01*
X115776500Y-81125633D01*
X115776500Y-80989013D01*
X117892195Y-80989013D01*
X118059962Y-81171500D01*
X118971500Y-81171500D01*
X118971500Y-80115500D01*
X119128500Y-80115500D01*
X119128500Y-81171500D01*
X120040038Y-81171500D01*
X120207805Y-80989013D01*
X120077199Y-80554389D01*
X119790212Y-80202829D01*
X119390534Y-79987855D01*
X119308346Y-79970673D01*
X119128500Y-80115500D01*
X118971500Y-80115500D01*
X118791654Y-79970673D01*
X118709466Y-79987855D01*
X118309788Y-80202829D01*
X118022801Y-80554389D01*
X117892195Y-80989013D01*
X115776500Y-80989013D01*
X115776500Y-76510987D01*
X117892195Y-76510987D01*
X118022801Y-76945611D01*
X118309788Y-77297171D01*
X118709466Y-77512145D01*
X118791654Y-77529327D01*
X118971500Y-77384500D01*
X118971500Y-76328500D01*
X118059962Y-76328500D01*
X117892195Y-76510987D01*
X115776500Y-76510987D01*
X115776500Y-76374367D01*
X115996500Y-76433500D01*
X116271500Y-76433500D01*
X116271500Y-75328500D01*
X116428500Y-75328500D01*
X116428500Y-76433500D01*
X116703500Y-76433500D01*
X117150430Y-76313371D01*
X117517368Y-76031353D01*
X117541768Y-75989013D01*
X117892195Y-75989013D01*
X118059962Y-76171500D01*
X118971500Y-76171500D01*
X118971500Y-75115500D01*
X118791654Y-74970673D01*
X118709466Y-74987855D01*
X118309788Y-75202829D01*
X118022801Y-75554389D01*
X117892195Y-75989013D01*
X117541768Y-75989013D01*
X117748451Y-75630382D01*
X117779075Y-75512266D01*
X117634578Y-75328500D01*
X116428500Y-75328500D01*
X116271500Y-75328500D01*
X116251500Y-75328500D01*
X116251500Y-75171500D01*
X116271500Y-75171500D01*
X116271500Y-74066500D01*
X116428500Y-74066500D01*
X116428500Y-75171500D01*
X117634578Y-75171500D01*
X117779075Y-74987734D01*
X117748451Y-74869618D01*
X117517368Y-74468647D01*
X117150430Y-74186629D01*
X116703500Y-74066500D01*
X116428500Y-74066500D01*
X116271500Y-74066500D01*
X115996500Y-74066500D01*
X115776500Y-74125633D01*
X115776500Y-71876500D01*
X118837308Y-71876500D01*
X118837308Y-73765000D01*
G36*
X129144958Y-73636858D02*
X129130816Y-73651000D01*
X130816196Y-75336381D01*
X131196038Y-75135098D01*
X131351107Y-74770526D01*
X131743536Y-74933477D01*
X131899239Y-74933613D01*
X133832308Y-76866682D01*
X133832308Y-77152569D01*
X133744181Y-77064288D01*
X133164961Y-76823775D01*
X132537791Y-76823227D01*
X131958151Y-77062729D01*
X131514288Y-77505819D01*
X131383500Y-77820792D01*
X131383500Y-77764043D01*
X131279443Y-77512828D01*
X131087171Y-77320556D01*
X130835956Y-77216500D01*
X130324375Y-77216500D01*
X130153500Y-77387375D01*
X130153500Y-78321500D01*
X130173500Y-78321500D01*
X130173500Y-78478500D01*
X130153500Y-78478500D01*
X130153500Y-78498500D01*
X129996500Y-78498500D01*
X129996500Y-78478500D01*
X129976500Y-78478500D01*
X129976500Y-78321500D01*
X129996500Y-78321500D01*
X129996500Y-77387375D01*
X129825625Y-77216500D01*
X129314044Y-77216500D01*
X129083500Y-77311994D01*
X129083500Y-76974375D01*
X128912625Y-76803500D01*
X127853500Y-76803500D01*
X127853500Y-76823500D01*
X127696500Y-76823500D01*
X127696500Y-76803500D01*
X127676500Y-76803500D01*
X127676500Y-76646500D01*
X127696500Y-76646500D01*
X127696500Y-76626500D01*
X127853500Y-76626500D01*
X127853500Y-76646500D01*
X128912625Y-76646500D01*
X129083500Y-76475625D01*
X129083500Y-76235219D01*
X129509217Y-76239248D01*
X130462441Y-75854938D01*
X130503898Y-75827238D01*
X130705181Y-75447396D01*
X129019800Y-73762016D01*
X127334419Y-75447396D01*
X127384286Y-75541500D01*
X127014044Y-75541500D01*
X126833500Y-75616283D01*
X126833500Y-75339043D01*
X126729443Y-75087828D01*
X126537171Y-74895556D01*
X126285956Y-74791500D01*
X125774375Y-74791500D01*
X125603500Y-74962375D01*
X125603500Y-75896500D01*
X125623500Y-75896500D01*
X125623500Y-76053500D01*
X125603500Y-76053500D01*
X125603500Y-76073500D01*
X125446500Y-76073500D01*
X125446500Y-76053500D01*
X125426500Y-76053500D01*
X125426500Y-75896500D01*
X125446500Y-75896500D01*
X125446500Y-74962375D01*
X125275625Y-74791500D01*
X124764044Y-74791500D01*
X124729700Y-74805726D01*
X124729700Y-74000000D01*
X124726770Y-73985272D01*
X125235624Y-74187475D01*
X125805846Y-74179225D01*
X126294349Y-73976880D01*
X126355472Y-73716490D01*
X126434813Y-73795831D01*
X126431552Y-74140417D01*
X126815862Y-75093641D01*
X126843562Y-75135098D01*
X127223404Y-75336381D01*
X128908784Y-73651000D01*
X128894642Y-73636858D01*
X129005658Y-73525842D01*
X129019800Y-73539984D01*
X129033942Y-73525842D01*
X129144958Y-73636858D01*
X129144958Y-73636858D01*
G37*
X129144958Y-73636858D02*
X129130816Y-73651000D01*
X130816196Y-75336381D01*
X131196038Y-75135098D01*
X131351107Y-74770526D01*
X131743536Y-74933477D01*
X131899239Y-74933613D01*
X133832308Y-76866682D01*
X133832308Y-77152569D01*
X133744181Y-77064288D01*
X133164961Y-76823775D01*
X132537791Y-76823227D01*
X131958151Y-77062729D01*
X131514288Y-77505819D01*
X131383500Y-77820792D01*
X131383500Y-77764043D01*
X131279443Y-77512828D01*
X131087171Y-77320556D01*
X130835956Y-77216500D01*
X130324375Y-77216500D01*
X130153500Y-77387375D01*
X130153500Y-78321500D01*
X130173500Y-78321500D01*
X130173500Y-78478500D01*
X130153500Y-78478500D01*
X130153500Y-78498500D01*
X129996500Y-78498500D01*
X129996500Y-78478500D01*
X129976500Y-78478500D01*
X129976500Y-78321500D01*
X129996500Y-78321500D01*
X129996500Y-77387375D01*
X129825625Y-77216500D01*
X129314044Y-77216500D01*
X129083500Y-77311994D01*
X129083500Y-76974375D01*
X128912625Y-76803500D01*
X127853500Y-76803500D01*
X127853500Y-76823500D01*
X127696500Y-76823500D01*
X127696500Y-76803500D01*
X127676500Y-76803500D01*
X127676500Y-76646500D01*
X127696500Y-76646500D01*
X127696500Y-76626500D01*
X127853500Y-76626500D01*
X127853500Y-76646500D01*
X128912625Y-76646500D01*
X129083500Y-76475625D01*
X129083500Y-76235219D01*
X129509217Y-76239248D01*
X130462441Y-75854938D01*
X130503898Y-75827238D01*
X130705181Y-75447396D01*
X129019800Y-73762016D01*
X127334419Y-75447396D01*
X127384286Y-75541500D01*
X127014044Y-75541500D01*
X126833500Y-75616283D01*
X126833500Y-75339043D01*
X126729443Y-75087828D01*
X126537171Y-74895556D01*
X126285956Y-74791500D01*
X125774375Y-74791500D01*
X125603500Y-74962375D01*
X125603500Y-75896500D01*
X125623500Y-75896500D01*
X125623500Y-76053500D01*
X125603500Y-76053500D01*
X125603500Y-76073500D01*
X125446500Y-76073500D01*
X125446500Y-76053500D01*
X125426500Y-76053500D01*
X125426500Y-75896500D01*
X125446500Y-75896500D01*
X125446500Y-74962375D01*
X125275625Y-74791500D01*
X124764044Y-74791500D01*
X124729700Y-74805726D01*
X124729700Y-74000000D01*
X124726770Y-73985272D01*
X125235624Y-74187475D01*
X125805846Y-74179225D01*
X126294349Y-73976880D01*
X126355472Y-73716490D01*
X126434813Y-73795831D01*
X126431552Y-74140417D01*
X126815862Y-75093641D01*
X126843562Y-75135098D01*
X127223404Y-75336381D01*
X128908784Y-73651000D01*
X128894642Y-73636858D01*
X129005658Y-73525842D01*
X129019800Y-73539984D01*
X129033942Y-73525842D01*
X129144958Y-73636858D01*
G36*
X168442900Y-73572500D02*
X168462900Y-73572500D01*
X168462900Y-73729500D01*
X168442900Y-73729500D01*
X168442900Y-75011362D01*
X168671100Y-75145246D01*
X168671100Y-75150000D01*
X168736597Y-75479278D01*
X168628500Y-75587375D01*
X168628500Y-76646500D01*
X168648500Y-76646500D01*
X168648500Y-76803500D01*
X168628500Y-76803500D01*
X168628500Y-76823500D01*
X168471500Y-76823500D01*
X168471500Y-76803500D01*
X168451500Y-76803500D01*
X168451500Y-76646500D01*
X168471500Y-76646500D01*
X168471500Y-75587375D01*
X168300625Y-75416500D01*
X167914043Y-75416500D01*
X167662828Y-75520557D01*
X167660674Y-75522711D01*
X167654048Y-75512415D01*
X167377854Y-75323700D01*
X167050000Y-75257308D01*
X167025366Y-75257308D01*
X167261985Y-75105048D01*
X167437547Y-74848104D01*
X167527718Y-74936146D01*
X168047289Y-75151354D01*
X168285900Y-75011362D01*
X168285900Y-73729500D01*
X168265900Y-73729500D01*
X168265900Y-73572500D01*
X168285900Y-73572500D01*
X168285900Y-73552500D01*
X168442900Y-73552500D01*
X168442900Y-73572500D01*
X168442900Y-73572500D01*
G37*
X168442900Y-73572500D02*
X168462900Y-73572500D01*
X168462900Y-73729500D01*
X168442900Y-73729500D01*
X168442900Y-75011362D01*
X168671100Y-75145246D01*
X168671100Y-75150000D01*
X168736597Y-75479278D01*
X168628500Y-75587375D01*
X168628500Y-76646500D01*
X168648500Y-76646500D01*
X168648500Y-76803500D01*
X168628500Y-76803500D01*
X168628500Y-76823500D01*
X168471500Y-76823500D01*
X168471500Y-76803500D01*
X168451500Y-76803500D01*
X168451500Y-76646500D01*
X168471500Y-76646500D01*
X168471500Y-75587375D01*
X168300625Y-75416500D01*
X167914043Y-75416500D01*
X167662828Y-75520557D01*
X167660674Y-75522711D01*
X167654048Y-75512415D01*
X167377854Y-75323700D01*
X167050000Y-75257308D01*
X167025366Y-75257308D01*
X167261985Y-75105048D01*
X167437547Y-74848104D01*
X167527718Y-74936146D01*
X168047289Y-75151354D01*
X168285900Y-75011362D01*
X168285900Y-73729500D01*
X168265900Y-73729500D01*
X168265900Y-73572500D01*
X168285900Y-73572500D01*
X168285900Y-73552500D01*
X168442900Y-73552500D01*
X168442900Y-73572500D01*
G36*
X136462415Y-72020952D02*
X136273700Y-72297146D01*
X136207308Y-72625000D01*
X136207308Y-73325000D01*
X136264939Y-73631283D01*
X136445952Y-73912585D01*
X136461073Y-73922917D01*
X136273700Y-74197146D01*
X136207308Y-74525000D01*
X136207308Y-75225000D01*
X136264939Y-75531283D01*
X136445952Y-75812585D01*
X136454826Y-75818648D01*
X136427395Y-75858795D01*
X136302854Y-75773700D01*
X135975000Y-75707308D01*
X135441682Y-75707308D01*
X133283788Y-73549414D01*
X133283922Y-73395777D01*
X133196329Y-73183784D01*
X133354223Y-73183922D01*
X133826208Y-72988902D01*
X134187633Y-72628107D01*
X134383477Y-72156464D01*
X134383721Y-71876500D01*
X136686900Y-71876500D01*
X136462415Y-72020952D01*
X136462415Y-72020952D01*
G37*
X136462415Y-72020952D02*
X136273700Y-72297146D01*
X136207308Y-72625000D01*
X136207308Y-73325000D01*
X136264939Y-73631283D01*
X136445952Y-73912585D01*
X136461073Y-73922917D01*
X136273700Y-74197146D01*
X136207308Y-74525000D01*
X136207308Y-75225000D01*
X136264939Y-75531283D01*
X136445952Y-75812585D01*
X136454826Y-75818648D01*
X136427395Y-75858795D01*
X136302854Y-75773700D01*
X135975000Y-75707308D01*
X135441682Y-75707308D01*
X133283788Y-73549414D01*
X133283922Y-73395777D01*
X133196329Y-73183784D01*
X133354223Y-73183922D01*
X133826208Y-72988902D01*
X134187633Y-72628107D01*
X134383477Y-72156464D01*
X134383721Y-71876500D01*
X136686900Y-71876500D01*
X136462415Y-72020952D01*
G36*
X180323500Y-73639126D02*
X180175665Y-73491291D01*
X180073284Y-72976586D01*
X179709865Y-72432690D01*
X179165969Y-72069271D01*
X178524400Y-71941655D01*
X177882831Y-72069271D01*
X177338935Y-72432690D01*
X177161502Y-72698238D01*
X176821082Y-72365854D01*
X176301511Y-72150646D01*
X176062900Y-72290638D01*
X176062900Y-73572500D01*
X176082900Y-73572500D01*
X176082900Y-73729500D01*
X176062900Y-73729500D01*
X176062900Y-73749500D01*
X175905900Y-73749500D01*
X175905900Y-73729500D01*
X175885900Y-73729500D01*
X175885900Y-73572500D01*
X175905900Y-73572500D01*
X175905900Y-72290638D01*
X175667289Y-72150646D01*
X175147718Y-72365854D01*
X174807298Y-72698238D01*
X174629865Y-72432690D01*
X174085969Y-72069271D01*
X173444400Y-71941655D01*
X172802831Y-72069271D01*
X172258935Y-72432690D01*
X172174400Y-72559206D01*
X172089865Y-72432690D01*
X171545969Y-72069271D01*
X170904400Y-71941655D01*
X170296874Y-72062500D01*
X170110874Y-71876500D01*
X180323500Y-71876500D01*
X180323500Y-73639126D01*
X180323500Y-73639126D01*
G37*
X180323500Y-73639126D02*
X180175665Y-73491291D01*
X180073284Y-72976586D01*
X179709865Y-72432690D01*
X179165969Y-72069271D01*
X178524400Y-71941655D01*
X177882831Y-72069271D01*
X177338935Y-72432690D01*
X177161502Y-72698238D01*
X176821082Y-72365854D01*
X176301511Y-72150646D01*
X176062900Y-72290638D01*
X176062900Y-73572500D01*
X176082900Y-73572500D01*
X176082900Y-73729500D01*
X176062900Y-73729500D01*
X176062900Y-73749500D01*
X175905900Y-73749500D01*
X175905900Y-73729500D01*
X175885900Y-73729500D01*
X175885900Y-73572500D01*
X175905900Y-73572500D01*
X175905900Y-72290638D01*
X175667289Y-72150646D01*
X175147718Y-72365854D01*
X174807298Y-72698238D01*
X174629865Y-72432690D01*
X174085969Y-72069271D01*
X173444400Y-71941655D01*
X172802831Y-72069271D01*
X172258935Y-72432690D01*
X172174400Y-72559206D01*
X172089865Y-72432690D01*
X171545969Y-72069271D01*
X170904400Y-71941655D01*
X170296874Y-72062500D01*
X170110874Y-71876500D01*
X180323500Y-71876500D01*
X180323500Y-73639126D01*
G36*
X125625158Y-72735858D02*
X125611016Y-72750000D01*
X125625158Y-72764142D01*
X125514142Y-72875158D01*
X125500000Y-72861016D01*
X125485858Y-72875158D01*
X125374842Y-72764142D01*
X125388984Y-72750000D01*
X125374842Y-72735858D01*
X125485858Y-72624842D01*
X125500000Y-72638984D01*
X125514142Y-72624842D01*
X125625158Y-72735858D01*
X125625158Y-72735858D01*
G37*
X125625158Y-72735858D02*
X125611016Y-72750000D01*
X125625158Y-72764142D01*
X125514142Y-72875158D01*
X125500000Y-72861016D01*
X125485858Y-72875158D01*
X125374842Y-72764142D01*
X125388984Y-72750000D01*
X125374842Y-72735858D01*
X125485858Y-72624842D01*
X125500000Y-72638984D01*
X125514142Y-72624842D01*
X125625158Y-72735858D01*
M02*
