G04 #@! TF.FileFunction,Copper,L3,Inr,Signal*
%FSLAX46Y46*%
G04 Gerber Fmt 4.6, Leading zero omitted, Abs format (unit mm)*
G04 Created by KiCad (PCBNEW 4.0.7-e2-6376~58~ubuntu16.04.1) date Sat Dec 16 23:26:04 2017*
%MOMM*%
%LPD*%
G01*
G04 APERTURE LIST*
%ADD10C,0.100000*%
%ADD11R,1.700000X1.700000*%
%ADD12O,1.700000X1.700000*%
%ADD13R,1.524000X1.524000*%
%ADD14C,1.524000*%
%ADD15C,3.800000*%
%ADD16C,1.800000*%
%ADD17C,4.600000*%
%ADD18O,0.950000X1.250000*%
%ADD19O,1.550000X1.000000*%
%ADD20C,1.500000*%
%ADD21C,0.914400*%
%ADD22C,0.304800*%
G04 APERTURE END LIST*
D10*
D11*
X165824400Y-73651000D03*
D12*
X168364400Y-73651000D03*
X170904400Y-73651000D03*
X173444400Y-73651000D03*
X175984400Y-73651000D03*
X178524400Y-73651000D03*
D13*
X139625000Y-93575000D03*
D14*
X137085000Y-93575000D03*
X139625000Y-91035000D03*
X137085000Y-91035000D03*
X139625000Y-88495000D03*
X137085000Y-88495000D03*
X139625000Y-85955000D03*
X137085000Y-85955000D03*
D15*
X130289800Y-121936400D03*
X129019800Y-73651000D03*
X181089800Y-106671000D03*
D11*
X160769800Y-121911000D03*
D12*
X163309800Y-121911000D03*
X165849800Y-121911000D03*
X168389800Y-121911000D03*
X170929800Y-121911000D03*
X173469800Y-121911000D03*
X176009800Y-121911000D03*
X178549800Y-121911000D03*
D11*
X156700000Y-121975000D03*
D12*
X154160000Y-121975000D03*
X151620000Y-121975000D03*
X149080000Y-121975000D03*
X146540000Y-121975000D03*
X144000000Y-121975000D03*
X141460000Y-121975000D03*
X138920000Y-121975000D03*
X136380000Y-121975000D03*
X133840000Y-121975000D03*
D11*
X142989800Y-73651000D03*
D12*
X145529800Y-73651000D03*
X148069800Y-73651000D03*
X150609800Y-73651000D03*
X153149800Y-73651000D03*
X155689800Y-73651000D03*
X158229800Y-73651000D03*
X160769800Y-73651000D03*
D16*
X114364000Y-111671000D03*
X114364000Y-109171000D03*
X114364000Y-106671000D03*
D17*
X117664000Y-114171000D03*
X117664000Y-104171000D03*
D11*
X164900000Y-83825000D03*
D12*
X164900000Y-86365000D03*
X164900000Y-88905000D03*
D11*
X135450000Y-105275000D03*
D12*
X137990000Y-105275000D03*
X140530000Y-105275000D03*
X143070000Y-105275000D03*
D18*
X119050000Y-76250000D03*
X119050000Y-81250000D03*
D19*
X116350000Y-75250000D03*
X116350000Y-82250000D03*
D11*
X126750000Y-107700000D03*
D12*
X124210000Y-107700000D03*
X121670000Y-107700000D03*
D20*
X146250000Y-86700000D03*
X151130000Y-86700000D03*
D11*
X142750000Y-77000000D03*
D12*
X145290000Y-77000000D03*
D11*
X145300000Y-79650000D03*
D12*
X142760000Y-79650000D03*
D11*
X159350000Y-85600000D03*
D12*
X159350000Y-88140000D03*
D11*
X156700000Y-85600000D03*
D12*
X156700000Y-88140000D03*
D21*
X133125000Y-95475000D03*
X121400000Y-114850000D03*
X160450000Y-106950000D03*
X155900000Y-106920000D03*
X179620000Y-101270000D03*
X182450000Y-95220000D03*
X149550000Y-81700000D03*
X149650000Y-100875000D03*
X138000000Y-119425000D03*
X180325000Y-114650000D03*
X129525000Y-88000000D03*
X161250000Y-103325000D03*
X160050000Y-99300000D03*
X172050000Y-112500000D03*
X172250000Y-106900000D03*
X174425000Y-87025000D03*
X175700000Y-89450000D03*
X169275000Y-81675000D03*
X174475000Y-84075000D03*
X135050000Y-74300000D03*
X127950000Y-89900000D03*
X135250000Y-93200000D03*
X146150000Y-106100000D03*
X127925000Y-80675000D03*
X145725000Y-113525000D03*
X139800000Y-112250000D03*
X173500000Y-90550000D03*
X160250000Y-98100000D03*
X151150000Y-79600000D03*
X143250000Y-99025000D03*
X148875000Y-98975000D03*
X139150000Y-80925000D03*
X120500000Y-90900000D03*
X134250000Y-92000000D03*
X152920000Y-99500000D03*
X175550000Y-102000000D03*
X179150000Y-77800000D03*
X167422000Y-94058000D03*
X167930000Y-89740000D03*
X161326000Y-93042000D03*
X147150000Y-97200000D03*
X154750000Y-98200000D03*
X168250000Y-99300000D03*
X166175000Y-99300000D03*
X137350000Y-96700000D03*
X154150000Y-79800000D03*
X148950000Y-85000000D03*
X170800000Y-104450000D03*
X173550000Y-109100000D03*
X166152000Y-112092000D03*
X174775000Y-117200000D03*
X135250000Y-113700000D03*
X142600000Y-119325000D03*
X160750000Y-119450000D03*
X121650000Y-122050000D03*
X177100000Y-113400000D03*
X166050000Y-115650000D03*
X159150000Y-97425000D03*
X164900000Y-99325000D03*
X161650000Y-80200000D03*
X152550000Y-85200000D03*
X152800000Y-90725000D03*
X147250000Y-95500000D03*
X169950000Y-99900000D03*
X168750000Y-100700000D03*
X148550000Y-94600000D03*
X130150000Y-105200000D03*
X143525000Y-102225000D03*
X147550000Y-101500000D03*
X163650000Y-99325000D03*
X149100000Y-116225000D03*
X151650000Y-116200000D03*
X154175000Y-116150000D03*
X155950000Y-115400000D03*
X161575000Y-109925000D03*
X162250000Y-113275000D03*
X170650000Y-118800000D03*
X169600000Y-105525000D03*
X160950000Y-115500000D03*
X161950000Y-85300000D03*
X164750000Y-77825000D03*
X154150000Y-90100000D03*
X166350000Y-119100000D03*
X171850000Y-96600000D03*
X171590000Y-87680000D03*
X121750000Y-102550000D03*
X117800000Y-92000000D03*
X124100000Y-102500000D03*
X121050000Y-94100000D03*
X130600000Y-102500000D03*
X128350000Y-102900000D03*
X126750000Y-91550000D03*
X135750000Y-100500000D03*
X135750000Y-89500000D03*
X133025000Y-108100000D03*
X132550000Y-84300000D03*
X152510000Y-101840000D03*
X141050000Y-99500000D03*
X159150000Y-80400000D03*
X150250000Y-85300000D03*
X129450000Y-113200000D03*
X131800000Y-96925000D03*
X121000000Y-120550000D03*
X167075000Y-80150000D03*
X174450000Y-81625000D03*
X174425000Y-89375000D03*
X163650000Y-73050000D03*
X136400000Y-80000000D03*
X133100000Y-71900000D03*
X149350000Y-75500000D03*
X132000000Y-73650000D03*
X176950000Y-89500000D03*
X179500000Y-86875000D03*
X179475000Y-94900000D03*
X164350000Y-81200000D03*
X155650000Y-81600000D03*
X172500000Y-81550000D03*
X170875000Y-81625000D03*
X172840000Y-97540000D03*
X168150000Y-109900000D03*
X169850000Y-109900000D03*
X168184000Y-102440000D03*
X163550000Y-110000000D03*
X135750000Y-109800000D03*
X147250000Y-107225000D03*
X139350000Y-113550000D03*
X148050000Y-109950000D03*
X166175000Y-94225000D03*
X161400000Y-94225000D03*
X167075000Y-103300000D03*
X158125000Y-90800000D03*
X154850000Y-94975000D03*
X178300000Y-82350000D03*
X175750000Y-86550000D03*
X172600000Y-89275000D03*
X160025000Y-91950000D03*
X158125000Y-95025000D03*
X125450000Y-114800000D03*
X174788000Y-115902000D03*
X157516000Y-111330000D03*
X151674000Y-109806000D03*
X124850000Y-111200000D03*
X174750000Y-114500000D03*
X181850000Y-109500000D03*
X148750000Y-113100000D03*
X171232000Y-109298000D03*
X144775000Y-114825000D03*
X165850000Y-92800000D03*
X179600000Y-80125000D03*
X176350000Y-96300000D03*
X169200000Y-93900000D03*
X161500000Y-97925000D03*
X177100000Y-85450000D03*
X152075000Y-94750000D03*
X120450000Y-92800000D03*
X155738000Y-112092000D03*
X180375000Y-116300000D03*
X141725000Y-111000000D03*
X180376000Y-112346000D03*
X178750000Y-119500000D03*
X153350000Y-94050000D03*
X154240000Y-101940000D03*
X163530000Y-104910000D03*
X170530000Y-97540000D03*
X167870000Y-88090000D03*
X167870000Y-83900000D03*
X159150000Y-100200000D03*
X126350000Y-102600000D03*
X159350000Y-103800000D03*
X124100000Y-81350000D03*
X123700000Y-76525000D03*
X174650000Y-106900000D03*
X120850000Y-118950000D03*
X132150000Y-119450000D03*
D22*
X172250000Y-106900000D02*
X172850000Y-106900000D01*
X173950000Y-108000000D02*
X179760800Y-108000000D01*
X172850000Y-106900000D02*
X173950000Y-108000000D01*
X179760800Y-108000000D02*
X181089800Y-106671000D01*
X172250000Y-106900000D02*
X172250000Y-112300000D01*
X172250000Y-112300000D02*
X172050000Y-112500000D01*
X180460800Y-107300000D02*
X181089800Y-106671000D01*
X161250000Y-101150000D02*
X161250000Y-103325000D01*
X160050000Y-99300000D02*
X161250000Y-101150000D01*
X168364400Y-73651000D02*
X168524000Y-73651000D01*
X168524000Y-73651000D02*
X170475000Y-71700000D01*
X174033400Y-71700000D02*
X175984400Y-73651000D01*
X170475000Y-71700000D02*
X174033400Y-71700000D01*
X160769800Y-73651000D02*
X161249000Y-73651000D01*
X161249000Y-73651000D02*
X163125000Y-71775000D01*
X166488400Y-71775000D02*
X168364400Y-73651000D01*
X163125000Y-71775000D02*
X166488400Y-71775000D01*
X155689800Y-73651000D02*
X155689800Y-73210200D01*
X155689800Y-73210200D02*
X157175000Y-71725000D01*
X158843800Y-71725000D02*
X160769800Y-73651000D01*
X157175000Y-71725000D02*
X158843800Y-71725000D01*
X150609800Y-73651000D02*
X150609800Y-73490200D01*
X150609800Y-73490200D02*
X152350000Y-71750000D01*
X153788800Y-71750000D02*
X155689800Y-73651000D01*
X152350000Y-71750000D02*
X153788800Y-71750000D01*
X145529800Y-73651000D02*
X145599000Y-73651000D01*
X145599000Y-73651000D02*
X147550000Y-71700000D01*
X147550000Y-71700000D02*
X148658800Y-71700000D01*
X148658800Y-71700000D02*
X150609800Y-73651000D01*
X180835800Y-106925000D02*
X181089800Y-106671000D01*
X174425000Y-88175000D02*
X174425000Y-87025000D01*
X175700000Y-89450000D02*
X174425000Y-88175000D01*
X170650000Y-83050000D02*
X169275000Y-81675000D01*
X173450000Y-83050000D02*
X170650000Y-83050000D01*
X174475000Y-84075000D02*
X173450000Y-83050000D01*
X127950000Y-89900000D02*
X127950000Y-96000000D01*
X135450000Y-103500000D02*
X135450000Y-105275000D01*
X127950000Y-96000000D02*
X135450000Y-103500000D01*
X127950000Y-80850000D02*
X127950000Y-89900000D01*
X127925000Y-80675000D02*
X127775000Y-80675000D01*
X127775000Y-80675000D02*
X127950000Y-80850000D01*
X173500000Y-90550000D02*
X173550000Y-90500000D01*
X173550000Y-90500000D02*
X173550000Y-87800000D01*
X173550000Y-87800000D02*
X172450000Y-86700000D01*
X172450000Y-86700000D02*
X171350000Y-86700000D01*
X171350000Y-86700000D02*
X170250000Y-87800000D01*
X170250000Y-87800000D02*
X170250000Y-94700000D01*
X170250000Y-94700000D02*
X169250000Y-95700000D01*
X169250000Y-95700000D02*
X162350000Y-95700000D01*
X162350000Y-95700000D02*
X160250000Y-98100000D01*
X161350000Y-93042000D02*
X163608000Y-93042000D01*
X166910000Y-89740000D02*
X167930000Y-89740000D01*
X163608000Y-93042000D02*
X166910000Y-89740000D01*
X179150000Y-77800000D02*
X176900000Y-80050000D01*
X176900000Y-80050000D02*
X176900000Y-83300000D01*
X176900000Y-83300000D02*
X174150000Y-86050000D01*
X174150000Y-86050000D02*
X171050000Y-86050000D01*
X171050000Y-86050000D02*
X169150000Y-87950000D01*
X169150000Y-87950000D02*
X169150000Y-88520000D01*
X169150000Y-88520000D02*
X167930000Y-89740000D01*
X167422000Y-94058000D02*
X168184000Y-93296000D01*
X168184000Y-93296000D02*
X168184000Y-89994000D01*
X168184000Y-89994000D02*
X167930000Y-89740000D01*
X161350000Y-93042000D02*
X161326000Y-93042000D01*
X140350000Y-96700000D02*
X137350000Y-96700000D01*
X142150000Y-94900000D02*
X140350000Y-96700000D01*
X142150000Y-93100000D02*
X142150000Y-94900000D01*
X148150000Y-87100000D02*
X142150000Y-93100000D01*
X148150000Y-85800000D02*
X148150000Y-87100000D01*
X148950000Y-85000000D02*
X148150000Y-85800000D01*
X173550000Y-109100000D02*
X174150000Y-109100000D01*
X175804000Y-110754000D02*
X175804000Y-113108000D01*
X174150000Y-109100000D02*
X175804000Y-110754000D01*
X175804000Y-116171000D02*
X174775000Y-117200000D01*
X175804000Y-113108000D02*
X175804000Y-116171000D01*
X121650000Y-122050000D02*
X121700000Y-122050000D01*
X121700000Y-122050000D02*
X125650000Y-118100000D01*
X125650000Y-118100000D02*
X159400000Y-118100000D01*
X159400000Y-118100000D02*
X160750000Y-119450000D01*
X159150000Y-97425000D02*
X159150000Y-88140000D01*
X146650000Y-83400000D02*
X161150000Y-83400000D01*
X161150000Y-83400000D02*
X162250000Y-82300000D01*
X164900000Y-88905000D02*
X165615000Y-88905000D01*
X165615000Y-88905000D02*
X166770000Y-87750000D01*
X166770000Y-87750000D02*
X166770000Y-82870000D01*
X166770000Y-82870000D02*
X166200000Y-82300000D01*
X166200000Y-82300000D02*
X162250000Y-82300000D01*
X141555000Y-88495000D02*
X139625000Y-88495000D01*
X146650000Y-83400000D02*
X141555000Y-88495000D01*
X171850000Y-96600000D02*
X171650000Y-96400000D01*
X171650000Y-96400000D02*
X171590000Y-87680000D01*
X119350000Y-100150000D02*
X121750000Y-102550000D01*
X119350000Y-93550000D02*
X119350000Y-100150000D01*
X117800000Y-92000000D02*
X119350000Y-93550000D01*
X124100000Y-102500000D02*
X124100000Y-97150000D01*
X124100000Y-97150000D02*
X121050000Y-94100000D01*
X124100000Y-102500000D02*
X124100000Y-102500000D01*
X128350000Y-102900000D02*
X128350000Y-100850000D01*
X128350000Y-100850000D02*
X128350000Y-100900000D01*
X128350000Y-100900000D02*
X128350000Y-100850000D01*
X126750000Y-99250000D02*
X126750000Y-91550000D01*
X128350000Y-100850000D02*
X126750000Y-99250000D01*
X135750000Y-95700000D02*
X135750000Y-100500000D01*
X133050000Y-93000000D02*
X135750000Y-95700000D01*
X133050000Y-91200000D02*
X133050000Y-93000000D01*
X134050000Y-90200000D02*
X133050000Y-91200000D01*
X135050000Y-90200000D02*
X134050000Y-90200000D01*
X135750000Y-89500000D02*
X135050000Y-90200000D01*
X149250000Y-86400000D02*
X149250000Y-86300000D01*
X149250000Y-86400000D02*
X149250000Y-87900000D01*
X149250000Y-87900000D02*
X143350000Y-93800000D01*
X143350000Y-93800000D02*
X143350000Y-96700000D01*
X143350000Y-96700000D02*
X141050000Y-99000000D01*
X141050000Y-99000000D02*
X141050000Y-99500000D01*
X149250000Y-86300000D02*
X150250000Y-85300000D01*
X174425000Y-90425000D02*
X174425000Y-89375000D01*
X175000000Y-91000000D02*
X174425000Y-90425000D01*
X175000000Y-92400000D02*
X175000000Y-91000000D01*
X174250000Y-93150000D02*
X175000000Y-92400000D01*
X174250000Y-103050000D02*
X174250000Y-93150000D01*
X170500000Y-106800000D02*
X174250000Y-103050000D01*
X168100000Y-106800000D02*
X170500000Y-106800000D01*
X167900000Y-106600000D02*
X168100000Y-106800000D01*
X163350000Y-106600000D02*
X167900000Y-106600000D01*
X161800000Y-105050000D02*
X163350000Y-106600000D01*
X155750000Y-105050000D02*
X161800000Y-105050000D01*
X154250000Y-106550000D02*
X155750000Y-105050000D01*
X154250000Y-109250000D02*
X154250000Y-106550000D01*
X152100000Y-111400000D02*
X154250000Y-109250000D01*
X148500000Y-111400000D02*
X152100000Y-111400000D01*
X147200000Y-112700000D02*
X148500000Y-111400000D01*
X147200000Y-114500000D02*
X147200000Y-112700000D01*
X145300000Y-116400000D02*
X147200000Y-114500000D01*
X125150000Y-116400000D02*
X145300000Y-116400000D01*
X121000000Y-120550000D02*
X125150000Y-116400000D01*
X133200000Y-76800000D02*
X136400000Y-80000000D01*
X133200000Y-72000000D02*
X133200000Y-76800000D01*
X133100000Y-71900000D02*
X133200000Y-72000000D01*
X156250000Y-77900000D02*
X160300000Y-77900000D01*
X153850000Y-75500000D02*
X156250000Y-77900000D01*
X149350000Y-75500000D02*
X153850000Y-75500000D01*
X179200000Y-89500000D02*
X176950000Y-89500000D01*
X181600000Y-87100000D02*
X179200000Y-89500000D01*
X181600000Y-78100000D02*
X181600000Y-87100000D01*
X179350000Y-75850000D02*
X181600000Y-78100000D01*
X175150000Y-75850000D02*
X179350000Y-75850000D01*
X172100000Y-78900000D02*
X175150000Y-75850000D01*
X161300000Y-78900000D02*
X172100000Y-78900000D01*
X160300000Y-77900000D02*
X161300000Y-78900000D01*
X161150000Y-81200000D02*
X164350000Y-81200000D01*
X155650000Y-81600000D02*
X157150000Y-81600000D01*
X157150000Y-81600000D02*
X157750000Y-82200000D01*
X157750000Y-82200000D02*
X160150000Y-82200000D01*
X160150000Y-82200000D02*
X161150000Y-81200000D01*
X144450000Y-113550000D02*
X139350000Y-113550000D01*
X148050000Y-109950000D02*
X144450000Y-113550000D01*
X161400000Y-94225000D02*
X166175000Y-94225000D01*
X158125000Y-91700000D02*
X158125000Y-90800000D01*
X154850000Y-94975000D02*
X158125000Y-91700000D01*
X114364000Y-111671000D02*
X114379000Y-111671000D01*
X114379000Y-111671000D02*
X115050000Y-111000000D01*
X125450000Y-113800000D02*
X125450000Y-114800000D01*
X122650000Y-111000000D02*
X125450000Y-113800000D01*
X115050000Y-111000000D02*
X122650000Y-111000000D01*
X114985000Y-111050000D02*
X114364000Y-111671000D01*
X124850000Y-111200000D02*
X124850000Y-111100000D01*
X173264000Y-114378000D02*
X174788000Y-115902000D01*
X166752000Y-114378000D02*
X173264000Y-114378000D01*
X163958000Y-111584000D02*
X166752000Y-114378000D01*
X157770000Y-111584000D02*
X163958000Y-111584000D01*
X157516000Y-111330000D02*
X157770000Y-111584000D01*
X150404000Y-108536000D02*
X151674000Y-109806000D01*
X141006000Y-108536000D02*
X150404000Y-108536000D01*
X138642000Y-110900000D02*
X141006000Y-108536000D01*
X124850000Y-111100000D02*
X125050000Y-110900000D01*
X125050000Y-110900000D02*
X138642000Y-110900000D01*
X151928000Y-113108000D02*
X148750000Y-113100000D01*
X157262000Y-107774000D02*
X151928000Y-113108000D01*
X169708000Y-107774000D02*
X157262000Y-107774000D01*
X171232000Y-109298000D02*
X169708000Y-107774000D01*
X161750000Y-118104000D02*
X161754000Y-118104000D01*
X176516000Y-120300000D02*
X176782000Y-120566000D01*
X163950000Y-120300000D02*
X176516000Y-120300000D01*
X161754000Y-118104000D02*
X163950000Y-120300000D01*
X155738000Y-112092000D02*
X161750000Y-118104000D01*
X176782000Y-120566000D02*
X179606000Y-120566000D01*
X179606000Y-120566000D02*
X180375000Y-119797000D01*
X180375000Y-119797000D02*
X180375000Y-116300000D01*
X180350000Y-112372000D02*
X179878000Y-112372000D01*
X178750000Y-113500000D02*
X178750000Y-119500000D01*
X179878000Y-112372000D02*
X178750000Y-113500000D01*
X180376000Y-112346000D02*
X180350000Y-112372000D01*
X168040000Y-104910000D02*
X163530000Y-104910000D01*
X171750000Y-101200000D02*
X168040000Y-104910000D01*
X171750000Y-98760000D02*
X171750000Y-101200000D01*
X170530000Y-97540000D02*
X171750000Y-98760000D01*
X126750000Y-103000000D02*
X126750000Y-107700000D01*
X126350000Y-102600000D02*
X126750000Y-103000000D01*
M02*
