  0
SECTION
  2
HEADER
  9
$ANGBASE
  50
0.0
  9
$ANGDIR
  70
1
  9
$MEASUREMENT
  70
0
  0
ENDSEC
  0
SECTION
  2
TABLES
  0
TABLE
  2
LTYPE
  70
4
  0
LTYPE
  5
40F
  2
CONTINUOUS
  70
0
  3
Solid line
  72
65
  73
0
  40
0.0
  0
LTYPE
  5
410
  2
DASHDOT
 70
0
  3
Dash Dot ____ _ ____ _
 72
65
 73
4
 40
2.0
 49
1.25
 49
-0.25
 49
0.25
 49
-0.25
  0
LTYPE
  5
411
  2
DASHED
 70
0
  3
Dashed __ __ __ __ __
 72
65
 73
2
 40
0.75
 49
0.5
 49
-0.25
  0
LTYPE
  5
43B
  2
DOTTED
 70
0
  3
Dotted .  .  .  .
 72
65
 73
2
 40
0.2
 49
0.0
 49
-0.2
  0
ENDTAB
  0
TABLE
  2
STYLE
  70
4
  0
STYLE
  2
KICAD
  70
0
  40
0
  41
1
  42
1
  50
0
  71
0
  3
isocp.shx
  0
STYLE
  2
KICADB
  70
0
  40
0
  41
1
  42
1
  50
0
  71
0
  3
isocp.shx
  0
STYLE
  2
KICADI
  70
0
  40
0
  41
1
  42
1
  50
15
  71
0
  3
isocp.shx
  0
STYLE
  2
KICADBI
  70
0
  40
0
  41
1
  42
1
  50
15
  71
0
  3
isocp.shx
  0
ENDTAB
  0
TABLE
  2
LAYER
  70
1
  0
LAYER
  2
BLACK
  70
0
  62
7
  6
CONTINUOUS
  0
ENDTAB
  0
ENDSEC
  0
SECTION
  2
ENTITIES
0
LINE
8
BLACK
6
CONTINUOUS
10
5.23584
20
-3.11313
11
5.23722
21
-3.10978
0
LINE
8
BLACK
6
CONTINUOUS
10
5.23722
20
-3.10978
11
5.23924
21
-3.10677
0
LINE
8
BLACK
6
CONTINUOUS
10
5.23924
20
-3.10677
11
5.2418
21
-3.1042
0
LINE
8
BLACK
6
CONTINUOUS
10
5.2418
20
-3.1042
11
5.24482
21
-3.10218
0
LINE
8
BLACK
6
CONTINUOUS
10
5.24482
20
-3.10218
11
5.24817
21
-3.1008
0
LINE
8
BLACK
6
CONTINUOUS
10
5.24817
20
-3.1008
11
5.25173
21
-3.10009
0
LINE
8
BLACK
6
CONTINUOUS
10
5.25173
20
-3.10009
11
5.25536
21
-3.10009
0
LINE
8
BLACK
6
CONTINUOUS
10
5.25536
20
-3.10009
11
5.25891
21
-3.1008
0
LINE
8
BLACK
6
CONTINUOUS
10
5.25891
20
-3.1008
11
5.26227
21
-3.10218
0
LINE
8
BLACK
6
CONTINUOUS
10
5.26227
20
-3.10218
11
5.26528
21
-3.1042
0
LINE
8
BLACK
6
CONTINUOUS
10
5.26528
20
-3.1042
11
5.26785
21
-3.10677
0
LINE
8
BLACK
6
CONTINUOUS
10
5.26785
20
-3.10677
11
5.26986
21
-3.10978
0
LINE
8
BLACK
6
CONTINUOUS
10
5.26986
20
-3.10978
11
5.27125
21
-3.11313
0
LINE
8
BLACK
6
CONTINUOUS
10
5.27125
20
-3.11313
11
5.27196
21
-3.11669
0
LINE
8
BLACK
6
CONTINUOUS
10
5.27196
20
-3.11669
11
5.27196
21
-3.12032
0
LINE
8
BLACK
6
CONTINUOUS
10
5.27196
20
-3.12032
11
5.27125
21
-3.12388
0
LINE
8
BLACK
6
CONTINUOUS
10
5.27125
20
-3.12388
11
5.26986
21
-3.12723
0
LINE
8
BLACK
6
CONTINUOUS
10
5.26986
20
-3.12723
11
5.26785
21
-3.13024
0
LINE
8
BLACK
6
CONTINUOUS
10
5.26785
20
-3.13024
11
5.26528
21
-3.13281
0
LINE
8
BLACK
6
CONTINUOUS
10
5.26528
20
-3.13281
11
5.26227
21
-3.13482
0
LINE
8
BLACK
6
CONTINUOUS
10
5.26227
20
-3.13482
11
5.25891
21
-3.13621
0
LINE
8
BLACK
6
CONTINUOUS
10
5.25891
20
-3.13621
11
5.25536
21
-3.13692
0
LINE
8
BLACK
6
CONTINUOUS
10
5.25536
20
-3.13692
11
5.25173
21
-3.13692
0
LINE
8
BLACK
6
CONTINUOUS
10
5.25173
20
-3.13692
11
5.24817
21
-3.13621
0
LINE
8
BLACK
6
CONTINUOUS
10
5.24817
20
-3.13621
11
5.24482
21
-3.13482
0
LINE
8
BLACK
6
CONTINUOUS
10
5.24482
20
-3.13482
11
5.2418
21
-3.13281
0
LINE
8
BLACK
6
CONTINUOUS
10
5.2418
20
-3.13281
11
5.23924
21
-3.13024
0
LINE
8
BLACK
6
CONTINUOUS
10
5.23924
20
-3.13024
11
5.23722
21
-3.12723
0
LINE
8
BLACK
6
CONTINUOUS
10
5.23722
20
-3.12723
11
5.23584
21
-3.12388
0
LINE
8
BLACK
6
CONTINUOUS
10
5.23584
20
-3.12388
11
5.23513
21
-3.12032
0
LINE
8
BLACK
6
CONTINUOUS
10
5.23513
20
-3.12032
11
5.23513
21
-3.11669
0
LINE
8
BLACK
6
CONTINUOUS
10
5.23513
20
-3.11669
11
5.23584
21
-3.11313
  0
ENDSEC
  0
EOF
