  0
SECTION
  2
HEADER
  9
$ANGBASE
  50
0.0
  9
$ANGDIR
  70
1
  9
$MEASUREMENT
  70
0
  0
ENDSEC
  0
SECTION
  2
TABLES
  0
TABLE
  2
LTYPE
  70
4
  0
LTYPE
  5
40F
  2
CONTINUOUS
  70
0
  3
Solid line
  72
65
  73
0
  40
0.0
  0
LTYPE
  5
410
  2
DASHDOT
 70
0
  3
Dash Dot ____ _ ____ _
 72
65
 73
4
 40
2.0
 49
1.25
 49
-0.25
 49
0.25
 49
-0.25
  0
LTYPE
  5
411
  2
DASHED
 70
0
  3
Dashed __ __ __ __ __
 72
65
 73
2
 40
0.75
 49
0.5
 49
-0.25
  0
LTYPE
  5
43B
  2
DOTTED
 70
0
  3
Dotted .  .  .  .
 72
65
 73
2
 40
0.2
 49
0.0
 49
-0.2
  0
ENDTAB
  0
TABLE
  2
STYLE
  70
4
  0
STYLE
  2
KICAD
  70
0
  40
0
  41
1
  42
1
  50
0
  71
0
  3
isocp.shx
  0
STYLE
  2
KICADB
  70
0
  40
0
  41
1
  42
1
  50
0
  71
0
  3
isocp.shx
  0
STYLE
  2
KICADI
  70
0
  40
0
  41
1
  42
1
  50
15
  71
0
  3
isocp.shx
  0
STYLE
  2
KICADBI
  70
0
  40
0
  41
1
  42
1
  50
15
  71
0
  3
isocp.shx
  0
ENDTAB
  0
TABLE
  2
LAYER
  70
1
  0
LAYER
  2
BLACK
  70
0
  62
7
  6
CONTINUOUS
  0
ENDTAB
  0
ENDSEC
  0
SECTION
  2
ENTITIES
0
LINE
8
BLACK
6
CONTINUOUS
10
7.41939
20
-2.37087
11
7.41939
21
-2.37087
0
LINE
8
BLACK
6
CONTINUOUS
10
7.41939
20
-2.37087
11
7.41968
21
-2.37089
0
LINE
8
BLACK
6
CONTINUOUS
10
7.41968
20
-2.37089
11
7.42005
21
-2.37101
0
LINE
8
BLACK
6
CONTINUOUS
10
7.42005
20
-2.37101
11
7.42039
21
-2.37119
0
LINE
8
BLACK
6
CONTINUOUS
10
7.42039
20
-2.37119
11
7.42069
21
-2.37144
0
LINE
8
BLACK
6
CONTINUOUS
10
7.42069
20
-2.37144
11
7.42075
21
-2.37151
0
LINE
8
BLACK
6
CONTINUOUS
10
7.42075
20
-2.37151
11
7.48046
21
-2.43122
0
LINE
8
BLACK
6
CONTINUOUS
10
7.48046
20
-2.43122
11
7.48053
21
-2.43128
0
LINE
8
BLACK
6
CONTINUOUS
10
7.48053
20
-2.43128
11
7.48059
21
-2.43135
0
LINE
8
BLACK
6
CONTINUOUS
10
7.48059
20
-2.43135
11
7.48078
21
-2.43158
0
LINE
8
BLACK
6
CONTINUOUS
10
7.48078
20
-2.43158
11
7.48078
21
-2.43158
0
LINE
8
BLACK
6
CONTINUOUS
10
7.48078
20
-2.43158
11
7.48096
21
-2.43192
0
LINE
8
BLACK
6
CONTINUOUS
10
7.48096
20
-2.43192
11
7.48107
21
-2.43229
0
LINE
8
BLACK
6
CONTINUOUS
10
7.48107
20
-2.43229
11
7.4811
21
-2.43258
0
LINE
8
BLACK
6
CONTINUOUS
10
7.4811
20
-2.43258
11
7.48111
21
-2.43268
0
LINE
8
BLACK
6
CONTINUOUS
10
7.48111
20
-2.43268
11
7.4811
21
-2.43277
0
LINE
8
BLACK
6
CONTINUOUS
10
7.4811
20
-2.43277
11
7.4811
21
-4.47156
0
LINE
8
BLACK
6
CONTINUOUS
10
7.4811
20
-4.47156
11
7.48111
21
-4.47165
0
LINE
8
BLACK
6
CONTINUOUS
10
7.48111
20
-4.47165
11
7.4811
21
-4.47175
0
LINE
8
BLACK
6
CONTINUOUS
10
7.4811
20
-4.47175
11
7.4811
21
-4.47175
0
LINE
8
BLACK
6
CONTINUOUS
10
7.4811
20
-4.47175
11
7.48107
21
-4.47204
0
LINE
8
BLACK
6
CONTINUOUS
10
7.48107
20
-4.47204
11
7.48096
21
-4.47241
0
LINE
8
BLACK
6
CONTINUOUS
10
7.48096
20
-4.47241
11
7.48078
21
-4.47275
0
LINE
8
BLACK
6
CONTINUOUS
10
7.48078
20
-4.47275
11
7.48053
21
-4.47305
0
LINE
8
BLACK
6
CONTINUOUS
10
7.48053
20
-4.47305
11
7.48023
21
-4.4733
0
LINE
8
BLACK
6
CONTINUOUS
10
7.48023
20
-4.4733
11
7.47989
21
-4.47348
0
LINE
8
BLACK
6
CONTINUOUS
10
7.47989
20
-4.47348
11
7.47952
21
-4.47359
0
LINE
8
BLACK
6
CONTINUOUS
10
7.47952
20
-4.47359
11
7.47913
21
-4.47363
0
LINE
8
BLACK
6
CONTINUOUS
10
7.47913
20
-4.47363
11
7.47904
21
-4.47362
0
LINE
8
BLACK
6
CONTINUOUS
10
7.47904
20
-4.47362
11
3.58041
21
-4.47362
0
LINE
8
BLACK
6
CONTINUOUS
10
3.58041
20
-4.47362
11
3.58031
21
-4.47363
0
LINE
8
BLACK
6
CONTINUOUS
10
3.58031
20
-4.47363
11
3.57993
21
-4.47359
0
LINE
8
BLACK
6
CONTINUOUS
10
3.57993
20
-4.47359
11
3.57956
21
-4.47348
0
LINE
8
BLACK
6
CONTINUOUS
10
3.57956
20
-4.47348
11
3.57922
21
-4.4733
0
LINE
8
BLACK
6
CONTINUOUS
10
3.57922
20
-4.4733
11
3.57892
21
-4.47305
0
LINE
8
BLACK
6
CONTINUOUS
10
3.57892
20
-4.47305
11
3.57867
21
-4.47275
0
LINE
8
BLACK
6
CONTINUOUS
10
3.57867
20
-4.47275
11
3.57849
21
-4.47241
0
LINE
8
BLACK
6
CONTINUOUS
10
3.57849
20
-4.47241
11
3.57837
21
-4.47204
0
LINE
8
BLACK
6
CONTINUOUS
10
3.57837
20
-4.47204
11
3.57834
21
-4.47165
0
LINE
8
BLACK
6
CONTINUOUS
10
3.57834
20
-4.47165
11
3.57835
21
-4.47156
0
LINE
8
BLACK
6
CONTINUOUS
10
3.57835
20
-4.47156
11
3.57835
21
-2.37293
0
LINE
8
BLACK
6
CONTINUOUS
10
3.57835
20
-2.37293
11
3.57834
21
-2.37283
0
LINE
8
BLACK
6
CONTINUOUS
10
3.57834
20
-2.37283
11
3.57837
21
-2.37245
0
LINE
8
BLACK
6
CONTINUOUS
10
3.57837
20
-2.37245
11
3.57849
21
-2.37208
0
LINE
8
BLACK
6
CONTINUOUS
10
3.57849
20
-2.37208
11
3.57867
21
-2.37174
0
LINE
8
BLACK
6
CONTINUOUS
10
3.57867
20
-2.37174
11
3.57892
21
-2.37144
0
LINE
8
BLACK
6
CONTINUOUS
10
3.57892
20
-2.37144
11
3.57922
21
-2.37119
0
LINE
8
BLACK
6
CONTINUOUS
10
3.57922
20
-2.37119
11
3.57956
21
-2.37101
0
LINE
8
BLACK
6
CONTINUOUS
10
3.57956
20
-2.37101
11
3.57993
21
-2.37089
0
LINE
8
BLACK
6
CONTINUOUS
10
3.57993
20
-2.37089
11
3.58022
21
-2.37087
0
LINE
8
BLACK
6
CONTINUOUS
10
3.58022
20
-2.37087
11
3.58031
21
-2.37086
0
LINE
8
BLACK
6
CONTINUOUS
10
3.58031
20
-2.37086
11
3.58041
21
-2.37087
0
LINE
8
BLACK
6
CONTINUOUS
10
3.58041
20
-2.37087
11
7.4192
21
-2.37087
0
LINE
8
BLACK
6
CONTINUOUS
10
7.4192
20
-2.37087
11
7.41929
21
-2.37086
0
LINE
8
BLACK
6
CONTINUOUS
10
7.41929
20
-2.37086
11
7.41939
21
-2.37087
0
LINE
8
BLACK
6
CONTINUOUS
10
3.58228
20
-2.3748
11
3.58228
21
-4.46969
0
LINE
8
BLACK
6
CONTINUOUS
10
3.58228
20
-4.46969
11
7.47717
21
-4.46969
0
LINE
8
BLACK
6
CONTINUOUS
10
7.47717
20
-4.46969
11
7.47717
21
-2.43349
0
LINE
8
BLACK
6
CONTINUOUS
10
7.47717
20
-2.43349
11
7.41848
21
-2.3748
0
LINE
8
BLACK
6
CONTINUOUS
10
7.41848
20
-2.3748
11
3.58228
21
-2.3748
  0
ENDSEC
  0
EOF
