  0
SECTION
  2
HEADER
  9
$ANGBASE
  50
0.0
  9
$ANGDIR
  70
1
  9
$MEASUREMENT
  70
0
  0
ENDSEC
  0
SECTION
  2
TABLES
  0
TABLE
  2
LTYPE
  70
4
  0
LTYPE
  5
40F
  2
CONTINUOUS
  70
0
  3
Solid line
  72
65
  73
0
  40
0.0
  0
LTYPE
  5
410
  2
DASHDOT
 70
0
  3
Dash Dot ____ _ ____ _
 72
65
 73
4
 40
2.0
 49
1.25
 49
-0.25
 49
0.25
 49
-0.25
  0
LTYPE
  5
411
  2
DASHED
 70
0
  3
Dashed __ __ __ __ __
 72
65
 73
2
 40
0.75
 49
0.5
 49
-0.25
  0
LTYPE
  5
43B
  2
DOTTED
 70
0
  3
Dotted .  .  .  .
 72
65
 73
2
 40
0.2
 49
0.0
 49
-0.2
  0
ENDTAB
  0
TABLE
  2
STYLE
  70
4
  0
STYLE
  2
KICAD
  70
0
  40
0
  41
1
  42
1
  50
0
  71
0
  3
isocp.shx
  0
STYLE
  2
KICADB
  70
0
  40
0
  41
1
  42
1
  50
0
  71
0
  3
isocp.shx
  0
STYLE
  2
KICADI
  70
0
  40
0
  41
1
  42
1
  50
15
  71
0
  3
isocp.shx
  0
STYLE
  2
KICADBI
  70
0
  40
0
  41
1
  42
1
  50
15
  71
0
  3
isocp.shx
  0
ENDTAB
  0
TABLE
  2
LAYER
  70
1
  0
LAYER
  2
BLACK
  70
0
  62
7
  6
CONTINUOUS
  0
ENDTAB
  0
ENDSEC
  0
SECTION
  2
ENTITIES
0
LINE
8
BLACK
6
CONTINUOUS
10
3.58031
20
-4.47165
11
3.58031
21
-2.37283
0
LINE
8
BLACK
6
CONTINUOUS
10
7.47913
20
-4.47165
11
3.58031
21
-4.47165
0
LINE
8
BLACK
6
CONTINUOUS
10
7.47913
20
-2.43268
11
7.47913
21
-4.47165
0
LINE
8
BLACK
6
CONTINUOUS
10
7.41929
20
-2.37283
11
7.47913
21
-2.43268
0
LINE
8
BLACK
6
CONTINUOUS
10
3.58031
20
-2.37283
11
7.41929
21
-2.37283
0
LINE
8
BLACK
6
CONTINUOUS
10
3.62999
20
-3.34141
11
3.64599
21
-3.35741
0
LINE
8
BLACK
6
CONTINUOUS
10
3.64599
20
-3.34141
11
3.62999
21
-3.35741
0
LINE
8
BLACK
6
CONTINUOUS
10
3.63609
20
-4.35099
11
3.65209
21
-4.36699
0
LINE
8
BLACK
6
CONTINUOUS
10
3.65209
20
-4.35099
11
3.63609
21
-4.36699
0
LINE
8
BLACK
6
CONTINUOUS
10
3.70209
20
-4.23299
11
3.71809
21
-4.24899
0
LINE
8
BLACK
6
CONTINUOUS
10
3.71809
20
-4.23299
11
3.70209
21
-4.24899
0
LINE
8
BLACK
6
CONTINUOUS
10
3.78595
20
-3.22389
11
3.80195
21
-3.23989
0
LINE
8
BLACK
6
CONTINUOUS
10
3.80195
20
-3.22389
11
3.78595
21
-3.23989
0
LINE
8
BLACK
6
CONTINUOUS
10
3.82109
20
-3.66499
11
3.83709
21
-3.68099
0
LINE
8
BLACK
6
CONTINUOUS
10
3.83709
20
-3.66499
11
3.82109
21
-3.68099
0
LINE
8
BLACK
6
CONTINUOUS
10
3.82409
20
-4.23099
11
3.84009
21
-4.24699
0
LINE
8
BLACK
6
CONTINUOUS
10
3.84009
20
-4.23099
11
3.82409
21
-4.24699
0
LINE
8
BLACK
6
CONTINUOUS
10
3.82468
20
-2.44554
11
3.84068
21
-2.46154
0
LINE
8
BLACK
6
CONTINUOUS
10
3.84068
20
-2.44554
11
3.82468
21
-2.46154
0
LINE
8
BLACK
6
CONTINUOUS
10
3.82468
20
-2.48255
11
3.84068
21
-2.49855
0
LINE
8
BLACK
6
CONTINUOUS
10
3.84068
20
-2.48255
11
3.82468
21
-2.49855
0
LINE
8
BLACK
6
CONTINUOUS
10
3.82468
20
-2.51917
11
3.84068
21
-2.53517
0
LINE
8
BLACK
6
CONTINUOUS
10
3.84068
20
-2.51917
11
3.82468
21
-2.53517
0
LINE
8
BLACK
6
CONTINUOUS
10
3.83452
20
-2.8109
11
3.85052
21
-2.8269
0
LINE
8
BLACK
6
CONTINUOUS
10
3.85052
20
-2.8109
11
3.83452
21
-2.8269
0
LINE
8
BLACK
6
CONTINUOUS
10
3.83452
20
-2.98216
11
3.85052
21
-2.99816
0
LINE
8
BLACK
6
CONTINUOUS
10
3.85052
20
-2.98216
11
3.83452
21
-2.99816
0
LINE
8
BLACK
6
CONTINUOUS
10
3.83797
20
-2.89554
11
3.85397
21
-2.91154
0
LINE
8
BLACK
6
CONTINUOUS
10
3.85397
20
-2.89554
11
3.83797
21
-2.91154
0
LINE
8
BLACK
6
CONTINUOUS
10
3.88309
20
-3.43599
11
3.89909
21
-3.45199
0
LINE
8
BLACK
6
CONTINUOUS
10
3.89909
20
-3.43599
11
3.88309
21
-3.45199
0
LINE
8
BLACK
6
CONTINUOUS
10
3.88964
20
-2.59515
11
3.90564
21
-2.61115
0
LINE
8
BLACK
6
CONTINUOUS
10
3.90564
20
-2.59515
11
3.88964
21
-2.61115
0
LINE
8
BLACK
6
CONTINUOUS
10
3.90302
20
-3.06877
11
3.91902
21
-3.08477
0
LINE
8
BLACK
6
CONTINUOUS
10
3.91902
20
-3.06877
11
3.90302
21
-3.08477
0
LINE
8
BLACK
6
CONTINUOUS
10
3.93019
20
-2.84239
11
3.94619
21
-2.85839
0
LINE
8
BLACK
6
CONTINUOUS
10
3.94619
20
-2.84239
11
3.93019
21
-2.85839
0
LINE
8
BLACK
6
CONTINUOUS
10
3.97586
20
-3.06877
11
3.99186
21
-3.08477
0
LINE
8
BLACK
6
CONTINUOUS
10
3.99186
20
-3.06877
11
3.97586
21
-3.08477
0
LINE
8
BLACK
6
CONTINUOUS
10
4.01562
20
-3.54003
11
4.03162
21
-3.55603
0
LINE
8
BLACK
6
CONTINUOUS
10
4.03162
20
-3.54003
11
4.01562
21
-3.55603
0
LINE
8
BLACK
6
CONTINUOUS
10
4.02009
20
-3.92899
11
4.03609
21
-3.94499
0
LINE
8
BLACK
6
CONTINUOUS
10
4.03609
20
-3.92899
11
4.02009
21
-3.94499
0
LINE
8
BLACK
6
CONTINUOUS
10
4.02389
20
-2.80972
11
4.03989
21
-2.82572
0
LINE
8
BLACK
6
CONTINUOUS
10
4.03989
20
-2.80972
11
4.02389
21
-2.82572
0
LINE
8
BLACK
6
CONTINUOUS
10
4.03413
20
-3.06877
11
4.05013
21
-3.08477
0
LINE
8
BLACK
6
CONTINUOUS
10
4.05013
20
-3.06877
11
4.03413
21
-3.08477
0
LINE
8
BLACK
6
CONTINUOUS
10
4.03747
20
-3.34141
11
4.05347
21
-3.35741
0
LINE
8
BLACK
6
CONTINUOUS
10
4.05347
20
-3.34141
11
4.03747
21
-3.35741
0
LINE
8
BLACK
6
CONTINUOUS
10
4.09161
20
-2.93946
11
4.10761
21
-2.95546
0
LINE
8
BLACK
6
CONTINUOUS
10
4.10761
20
-2.93946
11
4.09161
21
-2.95546
0
LINE
8
BLACK
6
CONTINUOUS
10
4.1046
20
-3.27231
11
4.1206
21
-3.28831
0
LINE
8
BLACK
6
CONTINUOUS
10
4.1206
20
-3.27231
11
4.1046
21
-3.28831
0
LINE
8
BLACK
6
CONTINUOUS
10
4.11011
20
-2.76326
11
4.12611
21
-2.77926
0
LINE
8
BLACK
6
CONTINUOUS
10
4.12611
20
-2.76326
11
4.11011
21
-2.77926
0
LINE
8
BLACK
6
CONTINUOUS
10
4.11287
20
-3.06877
11
4.12887
21
-3.08477
0
LINE
8
BLACK
6
CONTINUOUS
10
4.12887
20
-3.06877
11
4.11287
21
-3.08477
0
LINE
8
BLACK
6
CONTINUOUS
10
4.1294
20
-3.58924
11
4.1454
21
-3.60524
0
LINE
8
BLACK
6
CONTINUOUS
10
4.1454
20
-3.58924
11
4.1294
21
-3.60524
0
LINE
8
BLACK
6
CONTINUOUS
10
4.1294
20
-3.63255
11
4.1454
21
-3.64855
0
LINE
8
BLACK
6
CONTINUOUS
10
4.1454
20
-3.63255
11
4.1294
21
-3.64855
0
LINE
8
BLACK
6
CONTINUOUS
10
4.1294
20
-3.67625
11
4.1454
21
-3.69225
0
LINE
8
BLACK
6
CONTINUOUS
10
4.1454
20
-3.67625
11
4.1294
21
-3.69225
0
LINE
8
BLACK
6
CONTINUOUS
10
4.18806
20
-2.84279
11
4.20406
21
-2.85879
0
LINE
8
BLACK
6
CONTINUOUS
10
4.20406
20
-2.84279
11
4.18806
21
-2.85879
0
LINE
8
BLACK
6
CONTINUOUS
10
4.18885
20
-2.62192
11
4.20485
21
-2.63792
0
LINE
8
BLACK
6
CONTINUOUS
10
4.20485
20
-2.62192
11
4.18885
21
-2.63792
0
LINE
8
BLACK
6
CONTINUOUS
10
4.21995
20
-2.89554
11
4.23595
21
-2.91154
0
LINE
8
BLACK
6
CONTINUOUS
10
4.23595
20
-2.89554
11
4.21995
21
-2.91154
0
LINE
8
BLACK
6
CONTINUOUS
10
4.21995
20
-2.98216
11
4.23595
21
-2.99816
0
LINE
8
BLACK
6
CONTINUOUS
10
4.23595
20
-2.98216
11
4.21995
21
-2.99816
0
LINE
8
BLACK
6
CONTINUOUS
10
4.31129
20
-3.41877
11
4.32729
21
-3.43477
0
LINE
8
BLACK
6
CONTINUOUS
10
4.32729
20
-3.41877
11
4.31129
21
-3.43477
0
LINE
8
BLACK
6
CONTINUOUS
10
4.31129
20
-3.47035
11
4.32729
21
-3.48635
0
LINE
8
BLACK
6
CONTINUOUS
10
4.32729
20
-3.47035
11
4.31129
21
-3.48635
0
LINE
8
BLACK
6
CONTINUOUS
10
4.31129
20
-3.52113
11
4.32729
21
-3.53713
0
LINE
8
BLACK
6
CONTINUOUS
10
4.32729
20
-3.52113
11
4.31129
21
-3.53713
0
LINE
8
BLACK
6
CONTINUOUS
10
4.35342
20
-2.9733
11
4.36942
21
-2.9893
0
LINE
8
BLACK
6
CONTINUOUS
10
4.36942
20
-2.9733
11
4.35342
21
-2.9893
0
LINE
8
BLACK
6
CONTINUOUS
10
4.41976
20
-2.60932
11
4.43576
21
-2.62532
0
LINE
8
BLACK
6
CONTINUOUS
10
4.43576
20
-2.60932
11
4.41976
21
-2.62532
0
LINE
8
BLACK
6
CONTINUOUS
10
4.46109
20
-4.21699
11
4.47709
21
-4.23299
0
LINE
8
BLACK
6
CONTINUOUS
10
4.47709
20
-4.21699
11
4.46109
21
-4.23299
0
LINE
8
BLACK
6
CONTINUOUS
10
4.50386
20
-4.00322
11
4.51986
21
-4.01922
0
LINE
8
BLACK
6
CONTINUOUS
10
4.51986
20
-4.00322
11
4.50386
21
-4.01922
0
LINE
8
BLACK
6
CONTINUOUS
10
4.50735
20
-3.52113
11
4.52335
21
-3.53713
0
LINE
8
BLACK
6
CONTINUOUS
10
4.52335
20
-3.52113
11
4.50735
21
-3.53713
0
LINE
8
BLACK
6
CONTINUOUS
10
4.50735
20
-3.58452
11
4.52335
21
-3.60052
0
LINE
8
BLACK
6
CONTINUOUS
10
4.52335
20
-3.58452
11
4.50735
21
-3.60052
0
LINE
8
BLACK
6
CONTINUOUS
10
4.50775
20
-3.1109
11
4.52375
21
-3.1269
0
LINE
8
BLACK
6
CONTINUOUS
10
4.52375
20
-3.1109
11
4.50775
21
-3.1269
0
LINE
8
BLACK
6
CONTINUOUS
10
4.50775
20
-3.35224
11
4.52375
21
-3.36824
0
LINE
8
BLACK
6
CONTINUOUS
10
4.52375
20
-3.35224
11
4.50775
21
-3.36824
0
LINE
8
BLACK
6
CONTINUOUS
10
4.50814
20
-3.41877
11
4.52414
21
-3.43477
0
LINE
8
BLACK
6
CONTINUOUS
10
4.52414
20
-3.41877
11
4.50814
21
-3.43477
0
LINE
8
BLACK
6
CONTINUOUS
10
4.55109
20
-4.23199
11
4.56709
21
-4.24799
0
LINE
8
BLACK
6
CONTINUOUS
10
4.56709
20
-4.23199
11
4.55109
21
-4.24799
0
LINE
8
BLACK
6
CONTINUOUS
10
4.64082
20
-2.89318
11
4.65682
21
-2.90918
0
LINE
8
BLACK
6
CONTINUOUS
10
4.65682
20
-2.89318
11
4.64082
21
-2.90918
0
LINE
8
BLACK
6
CONTINUOUS
10
4.65909
20
-3.45399
11
4.67509
21
-3.46999
0
LINE
8
BLACK
6
CONTINUOUS
10
4.67509
20
-3.45399
11
4.65909
21
-3.46999
0
LINE
8
BLACK
6
CONTINUOUS
10
4.68098
20
-3.91169
11
4.69698
21
-3.92769
0
LINE
8
BLACK
6
CONTINUOUS
10
4.69698
20
-3.91169
11
4.68098
21
-3.92769
0
LINE
8
BLACK
6
CONTINUOUS
10
4.8046
20
-2.95302
11
4.8206
21
-2.96902
0
LINE
8
BLACK
6
CONTINUOUS
10
4.8206
20
-2.95302
11
4.8046
21
-2.96902
0
LINE
8
BLACK
6
CONTINUOUS
10
4.82468
20
-2.53255
11
4.84068
21
-2.54855
0
LINE
8
BLACK
6
CONTINUOUS
10
4.84068
20
-2.53255
11
4.82468
21
-2.54855
0
LINE
8
BLACK
6
CONTINUOUS
10
4.86109
20
-4.05299
11
4.87709
21
-4.06899
0
LINE
8
BLACK
6
CONTINUOUS
10
4.87709
20
-4.05299
11
4.86109
21
-4.06899
0
LINE
8
BLACK
6
CONTINUOUS
10
4.86602
20
-3.88123
11
4.88202
21
-3.89723
0
LINE
8
BLACK
6
CONTINUOUS
10
4.88202
20
-3.88123
11
4.86602
21
-3.89723
0
LINE
8
BLACK
6
CONTINUOUS
10
4.87212
20
-3.98905
11
4.88812
21
-4.00505
0
LINE
8
BLACK
6
CONTINUOUS
10
4.88812
20
-3.98905
11
4.87212
21
-4.00505
0
LINE
8
BLACK
6
CONTINUOUS
10
4.92209
20
-3.83399
11
4.93809
21
-3.84999
0
LINE
8
BLACK
6
CONTINUOUS
10
4.93809
20
-3.83399
11
4.92209
21
-3.84999
0
LINE
8
BLACK
6
CONTINUOUS
10
4.96909
20
-4.07699
11
4.98509
21
-4.09299
0
LINE
8
BLACK
6
CONTINUOUS
10
4.98509
20
-4.07699
11
4.96909
21
-4.09299
0
LINE
8
BLACK
6
CONTINUOUS
10
5.04043
20
-3.45657
11
5.05643
21
-3.47257
0
LINE
8
BLACK
6
CONTINUOUS
10
5.05643
20
-3.45657
11
5.04043
21
-3.47257
0
LINE
8
BLACK
6
CONTINUOUS
10
5.08767
20
-3.3857
11
5.10367
21
-3.4017
0
LINE
8
BLACK
6
CONTINUOUS
10
5.10367
20
-3.3857
11
5.08767
21
-3.4017
0
LINE
8
BLACK
6
CONTINUOUS
10
5.08767
20
-3.43688
11
5.10367
21
-3.45288
0
LINE
8
BLACK
6
CONTINUOUS
10
5.10367
20
-3.43688
11
5.08767
21
-3.45288
0
LINE
8
BLACK
6
CONTINUOUS
10
5.08767
20
-3.43688
11
5.10367
21
-3.45288
0
LINE
8
BLACK
6
CONTINUOUS
10
5.10367
20
-3.43688
11
5.08767
21
-3.45288
0
LINE
8
BLACK
6
CONTINUOUS
10
5.12271
20
-4.08058
11
5.13871
21
-4.09658
0
LINE
8
BLACK
6
CONTINUOUS
10
5.13871
20
-4.08058
11
5.12271
21
-4.09658
0
LINE
8
BLACK
6
CONTINUOUS
10
5.1231
20
-3.93058
11
5.1391
21
-3.94658
0
LINE
8
BLACK
6
CONTINUOUS
10
5.1391
20
-3.93058
11
5.1231
21
-3.94658
0
LINE
8
BLACK
6
CONTINUOUS
10
5.13098
20
-3.36995
11
5.14698
21
-3.38595
0
LINE
8
BLACK
6
CONTINUOUS
10
5.14698
20
-3.36995
11
5.13098
21
-3.38595
0
LINE
8
BLACK
6
CONTINUOUS
10
5.13098
20
-3.36995
11
5.14698
21
-3.38595
0
LINE
8
BLACK
6
CONTINUOUS
10
5.14698
20
-3.36995
11
5.13098
21
-3.38595
0
LINE
8
BLACK
6
CONTINUOUS
10
5.21917
20
-3.27192
11
5.23517
21
-3.28792
0
LINE
8
BLACK
6
CONTINUOUS
10
5.23517
20
-3.27192
11
5.21917
21
-3.28792
0
LINE
8
BLACK
6
CONTINUOUS
10
5.22209
20
-4.03099
11
5.23809
21
-4.04699
0
LINE
8
BLACK
6
CONTINUOUS
10
5.23809
20
-4.03099
11
5.22209
21
-4.04699
0
LINE
8
BLACK
6
CONTINUOUS
10
5.26995
20
-3.42035
11
5.28595
21
-3.43635
0
LINE
8
BLACK
6
CONTINUOUS
10
5.28595
20
-3.42035
11
5.26995
21
-3.43635
0
LINE
8
BLACK
6
CONTINUOUS
10
5.29318
20
-3.66326
11
5.30918
21
-3.67926
0
LINE
8
BLACK
6
CONTINUOUS
10
5.30918
20
-3.66326
11
5.29318
21
-3.67926
0
LINE
8
BLACK
6
CONTINUOUS
10
5.30893
20
-3.99121
11
5.32493
21
-4.00721
0
LINE
8
BLACK
6
CONTINUOUS
10
5.32493
20
-3.99121
11
5.30893
21
-4.00721
0
LINE
8
BLACK
6
CONTINUOUS
10
5.31602
20
-3.48216
11
5.33202
21
-3.49816
0
LINE
8
BLACK
6
CONTINUOUS
10
5.33202
20
-3.48216
11
5.31602
21
-3.49816
0
LINE
8
BLACK
6
CONTINUOUS
10
5.32861
20
-3.70657
11
5.34461
21
-3.72257
0
LINE
8
BLACK
6
CONTINUOUS
10
5.34461
20
-3.70657
11
5.32861
21
-3.72257
0
LINE
8
BLACK
6
CONTINUOUS
10
5.34121
20
-3.5794
11
5.35721
21
-3.5954
0
LINE
8
BLACK
6
CONTINUOUS
10
5.35721
20
-3.5794
11
5.34121
21
-3.5954
0
LINE
8
BLACK
6
CONTINUOUS
10
5.34476
20
-3.41956
11
5.36076
21
-3.43556
0
LINE
8
BLACK
6
CONTINUOUS
10
5.36076
20
-3.41956
11
5.34476
21
-3.43556
0
LINE
8
BLACK
6
CONTINUOUS
10
5.34554
20
-4.18098
11
5.36154
21
-4.19698
0
LINE
8
BLACK
6
CONTINUOUS
10
5.36154
20
-4.18098
11
5.34554
21
-4.19698
0
LINE
8
BLACK
6
CONTINUOUS
10
5.36877
20
-3.66523
11
5.38477
21
-3.68123
0
LINE
8
BLACK
6
CONTINUOUS
10
5.38477
20
-3.66523
11
5.36877
21
-3.68123
0
LINE
8
BLACK
6
CONTINUOUS
10
5.3798
20
-2.90972
11
5.3958
21
-2.92572
0
LINE
8
BLACK
6
CONTINUOUS
10
5.3958
20
-2.90972
11
5.3798
21
-2.92572
0
LINE
8
BLACK
6
CONTINUOUS
10
5.41444
20
-4.13058
11
5.43044
21
-4.14658
0
LINE
8
BLACK
6
CONTINUOUS
10
5.43044
20
-4.13058
11
5.41444
21
-4.14658
0
LINE
8
BLACK
6
CONTINUOUS
10
5.42468
20
-2.79987
11
5.44068
21
-2.81587
0
LINE
8
BLACK
6
CONTINUOUS
10
5.44068
20
-2.79987
11
5.42468
21
-2.81587
0
LINE
8
BLACK
6
CONTINUOUS
10
5.43688
20
-3.43373
11
5.45288
21
-3.44973
0
LINE
8
BLACK
6
CONTINUOUS
10
5.45288
20
-3.43373
11
5.43688
21
-3.44973
0
LINE
8
BLACK
6
CONTINUOUS
10
5.44751
20
-4.03058
11
5.46351
21
-4.04658
0
LINE
8
BLACK
6
CONTINUOUS
10
5.46351
20
-4.03058
11
5.44751
21
-4.04658
0
LINE
8
BLACK
6
CONTINUOUS
10
5.44791
20
-4.08058
11
5.46391
21
-4.09658
0
LINE
8
BLACK
6
CONTINUOUS
10
5.46391
20
-4.08058
11
5.44791
21
-4.09658
0
LINE
8
BLACK
6
CONTINUOUS
10
5.44869
20
-4.23058
11
5.46469
21
-4.24658
0
LINE
8
BLACK
6
CONTINUOUS
10
5.46469
20
-4.23058
11
5.44869
21
-4.24658
0
LINE
8
BLACK
6
CONTINUOUS
10
5.4672
20
-3.69318
11
5.4832
21
-3.70918
0
LINE
8
BLACK
6
CONTINUOUS
10
5.4832
20
-3.69318
11
5.4672
21
-3.70918
0
LINE
8
BLACK
6
CONTINUOUS
10
5.49397
20
-2.76523
11
5.50997
21
-2.78123
0
LINE
8
BLACK
6
CONTINUOUS
10
5.50997
20
-2.76523
11
5.49397
21
-2.78123
0
LINE
8
BLACK
6
CONTINUOUS
10
5.5042
20
-3.65854
11
5.5202
21
-3.67454
0
LINE
8
BLACK
6
CONTINUOUS
10
5.5202
20
-3.65854
11
5.5042
21
-3.67454
0
LINE
8
BLACK
6
CONTINUOUS
10
5.50657
20
-3.442
11
5.52257
21
-3.458
0
LINE
8
BLACK
6
CONTINUOUS
10
5.52257
20
-3.442
11
5.50657
21
-3.458
0
LINE
8
BLACK
6
CONTINUOUS
10
5.52546
20
-3.38964
11
5.54146
21
-3.40564
0
LINE
8
BLACK
6
CONTINUOUS
10
5.54146
20
-3.38964
11
5.52546
21
-3.40564
0
LINE
8
BLACK
6
CONTINUOUS
10
5.52783
20
-2.98491
11
5.54383
21
-3.00091
0
LINE
8
BLACK
6
CONTINUOUS
10
5.54383
20
-2.98491
11
5.52783
21
-3.00091
0
LINE
8
BLACK
6
CONTINUOUS
10
5.55184
20
-3.6235
11
5.56784
21
-3.6395
0
LINE
8
BLACK
6
CONTINUOUS
10
5.56784
20
-3.6235
11
5.55184
21
-3.6395
0
LINE
8
BLACK
6
CONTINUOUS
10
5.55342
20
-3.57861
11
5.56942
21
-3.59461
0
LINE
8
BLACK
6
CONTINUOUS
10
5.56942
20
-3.57861
11
5.55342
21
-3.59461
0
LINE
8
BLACK
6
CONTINUOUS
10
5.56798
20
-2.93058
11
5.58398
21
-2.94658
0
LINE
8
BLACK
6
CONTINUOUS
10
5.58398
20
-2.93058
11
5.56798
21
-2.94658
0
LINE
8
BLACK
6
CONTINUOUS
10
5.57586
20
-3.69987
11
5.59186
21
-3.71587
0
LINE
8
BLACK
6
CONTINUOUS
10
5.59186
20
-3.69987
11
5.57586
21
-3.71587
0
LINE
8
BLACK
6
CONTINUOUS
10
5.58176
20
-3.14869
11
5.59776
21
-3.16469
0
LINE
8
BLACK
6
CONTINUOUS
10
5.59776
20
-3.14869
11
5.58176
21
-3.16469
0
LINE
8
BLACK
6
CONTINUOUS
10
5.6231
20
-4.16641
11
5.6391
21
-4.18241
0
LINE
8
BLACK
6
CONTINUOUS
10
5.6391
20
-4.16641
11
5.6231
21
-4.18241
0
LINE
8
BLACK
6
CONTINUOUS
10
5.6235
20
-3.03885
11
5.6395
21
-3.05485
0
LINE
8
BLACK
6
CONTINUOUS
10
5.6395
20
-3.03885
11
5.6235
21
-3.05485
0
LINE
8
BLACK
6
CONTINUOUS
10
5.62468
20
-3.19161
11
5.64068
21
-3.20761
0
LINE
8
BLACK
6
CONTINUOUS
10
5.64068
20
-3.19161
11
5.62468
21
-3.20761
0
LINE
8
BLACK
6
CONTINUOUS
10
5.65657
20
-3.78885
11
5.67257
21
-3.80485
0
LINE
8
BLACK
6
CONTINUOUS
10
5.67257
20
-3.78885
11
5.65657
21
-3.80485
0
LINE
8
BLACK
6
CONTINUOUS
10
5.68649
20
-3.28294
11
5.70249
21
-3.29894
0
LINE
8
BLACK
6
CONTINUOUS
10
5.70249
20
-3.28294
11
5.68649
21
-3.29894
0
LINE
8
BLACK
6
CONTINUOUS
10
5.692
20
-4.16523
11
5.708
21
-4.18123
0
LINE
8
BLACK
6
CONTINUOUS
10
5.708
20
-4.16523
11
5.692
21
-4.18123
0
LINE
8
BLACK
6
CONTINUOUS
10
5.70578
20
-3.34712
11
5.72178
21
-3.36312
0
LINE
8
BLACK
6
CONTINUOUS
10
5.72178
20
-3.34712
11
5.70578
21
-3.36312
0
LINE
8
BLACK
6
CONTINUOUS
10
5.71602
20
-2.69791
11
5.73202
21
-2.71391
0
LINE
8
BLACK
6
CONTINUOUS
10
5.73202
20
-2.69791
11
5.71602
21
-2.71391
0
LINE
8
BLACK
6
CONTINUOUS
10
5.72428
20
-3.52743
11
5.74028
21
-3.54343
0
LINE
8
BLACK
6
CONTINUOUS
10
5.74028
20
-3.52743
11
5.72428
21
-3.54343
0
LINE
8
BLACK
6
CONTINUOUS
10
5.74791
20
-3.04003
11
5.76391
21
-3.05603
0
LINE
8
BLACK
6
CONTINUOUS
10
5.76391
20
-3.04003
11
5.74791
21
-3.05603
0
LINE
8
BLACK
6
CONTINUOUS
10
5.76759
20
-4.16483
11
5.78359
21
-4.18083
0
LINE
8
BLACK
6
CONTINUOUS
10
5.78359
20
-4.16483
11
5.76759
21
-4.18083
0
LINE
8
BLACK
6
CONTINUOUS
10
5.80932
20
-3.04003
11
5.82532
21
-3.05603
0
LINE
8
BLACK
6
CONTINUOUS
10
5.82532
20
-3.04003
11
5.80932
21
-3.05603
0
LINE
8
BLACK
6
CONTINUOUS
10
5.84239
20
-4.16405
11
5.85839
21
-4.18005
0
LINE
8
BLACK
6
CONTINUOUS
10
5.85839
20
-4.16405
11
5.84239
21
-4.18005
0
LINE
8
BLACK
6
CONTINUOUS
10
5.90814
20
-3.68806
11
5.92414
21
-3.70406
0
LINE
8
BLACK
6
CONTINUOUS
10
5.92414
20
-3.68806
11
5.90814
21
-3.70406
0
LINE
8
BLACK
6
CONTINUOUS
10
5.91523
20
-2.69357
11
5.93123
21
-2.70957
0
LINE
8
BLACK
6
CONTINUOUS
10
5.93123
20
-2.69357
11
5.91523
21
-2.70957
0
LINE
8
BLACK
6
CONTINUOUS
10
5.9235
20
-3.34397
11
5.9395
21
-3.35997
0
LINE
8
BLACK
6
CONTINUOUS
10
5.9395
20
-3.34397
11
5.9235
21
-3.35997
0
LINE
8
BLACK
6
CONTINUOUS
10
5.92665
20
-3.53216
11
5.94265
21
-3.54816
0
LINE
8
BLACK
6
CONTINUOUS
10
5.94265
20
-3.53216
11
5.92665
21
-3.54816
0
LINE
8
BLACK
6
CONTINUOUS
10
5.93767
20
-3.06247
11
5.95367
21
-3.07847
0
LINE
8
BLACK
6
CONTINUOUS
10
5.95367
20
-3.06247
11
5.93767
21
-3.07847
0
LINE
8
BLACK
6
CONTINUOUS
10
5.94633
20
-3.23846
11
5.96233
21
-3.25446
0
LINE
8
BLACK
6
CONTINUOUS
10
5.96233
20
-3.23846
11
5.94633
21
-3.25446
0
LINE
8
BLACK
6
CONTINUOUS
10
5.96129
20
-4.14869
11
5.97729
21
-4.16469
0
LINE
8
BLACK
6
CONTINUOUS
10
5.97729
20
-4.14869
11
5.96129
21
-4.16469
0
LINE
8
BLACK
6
CONTINUOUS
10
5.98609
20
-2.74003
11
6.00209
21
-2.75603
0
LINE
8
BLACK
6
CONTINUOUS
10
6.00209
20
-2.74003
11
5.98609
21
-2.75603
0
LINE
8
BLACK
6
CONTINUOUS
10
6.01129
20
-3.42783
11
6.02729
21
-3.44383
0
LINE
8
BLACK
6
CONTINUOUS
10
6.02729
20
-3.42783
11
6.01129
21
-3.44383
0
LINE
8
BLACK
6
CONTINUOUS
10
6.01129
20
-3.96405
11
6.02729
21
-3.98005
0
LINE
8
BLACK
6
CONTINUOUS
10
6.02729
20
-3.96405
11
6.01129
21
-3.98005
0
LINE
8
BLACK
6
CONTINUOUS
10
6.01169
20
-4.14751
11
6.02769
21
-4.16351
0
LINE
8
BLACK
6
CONTINUOUS
10
6.02769
20
-4.14751
11
6.01169
21
-4.16351
0
LINE
8
BLACK
6
CONTINUOUS
10
6.08294
20
-3.0983
11
6.09894
21
-3.1143
0
LINE
8
BLACK
6
CONTINUOUS
10
6.09894
20
-3.0983
11
6.08294
21
-3.1143
0
LINE
8
BLACK
6
CONTINUOUS
10
6.08334
20
-3.42625
11
6.09934
21
-3.44225
0
LINE
8
BLACK
6
CONTINUOUS
10
6.09934
20
-3.42625
11
6.08334
21
-3.44225
0
LINE
8
BLACK
6
CONTINUOUS
10
6.10657
20
-2.84987
11
6.12257
21
-2.86587
0
LINE
8
BLACK
6
CONTINUOUS
10
6.12257
20
-2.84987
11
6.10657
21
-2.86587
0
LINE
8
BLACK
6
CONTINUOUS
10
6.1109
20
-3.58609
11
6.1269
21
-3.60209
0
LINE
8
BLACK
6
CONTINUOUS
10
6.1269
20
-3.58609
11
6.1109
21
-3.60209
0
LINE
8
BLACK
6
CONTINUOUS
10
6.11798
20
-2.76562
11
6.13398
21
-2.78162
0
LINE
8
BLACK
6
CONTINUOUS
10
6.13398
20
-2.76562
11
6.11798
21
-2.78162
0
LINE
8
BLACK
6
CONTINUOUS
10
6.1357
20
-3.89161
11
6.1517
21
-3.90761
0
LINE
8
BLACK
6
CONTINUOUS
10
6.1517
20
-3.89161
11
6.1357
21
-3.90761
0
LINE
8
BLACK
6
CONTINUOUS
10
6.15224
20
-3.09712
11
6.16824
21
-3.11312
0
LINE
8
BLACK
6
CONTINUOUS
10
6.16824
20
-3.09712
11
6.15224
21
-3.11312
0
LINE
8
BLACK
6
CONTINUOUS
10
6.16011
20
-4.15539
11
6.17611
21
-4.17139
0
LINE
8
BLACK
6
CONTINUOUS
10
6.17611
20
-4.15539
11
6.16011
21
-4.17139
0
LINE
8
BLACK
6
CONTINUOUS
10
6.16956
20
-3.24791
11
6.18556
21
-3.26391
0
LINE
8
BLACK
6
CONTINUOUS
10
6.18556
20
-3.24791
11
6.16956
21
-3.26391
0
LINE
8
BLACK
6
CONTINUOUS
10
6.20814
20
-3.75184
11
6.22414
21
-3.76784
0
LINE
8
BLACK
6
CONTINUOUS
10
6.22414
20
-3.75184
11
6.20814
21
-3.76784
0
LINE
8
BLACK
6
CONTINUOUS
10
6.22546
20
-2.85263
11
6.24146
21
-2.86863
0
LINE
8
BLACK
6
CONTINUOUS
10
6.24146
20
-2.85263
11
6.22546
21
-2.86863
0
LINE
8
BLACK
6
CONTINUOUS
10
6.29869
20
-2.60027
11
6.31469
21
-2.61627
0
LINE
8
BLACK
6
CONTINUOUS
10
6.31469
20
-2.60027
11
6.29869
21
-2.61627
0
LINE
8
BLACK
6
CONTINUOUS
10
6.29869
20
-3.1483
11
6.31469
21
-3.1643
0
LINE
8
BLACK
6
CONTINUOUS
10
6.31469
20
-3.1483
11
6.29869
21
-3.1643
0
LINE
8
BLACK
6
CONTINUOUS
10
6.31641
20
-2.69476
11
6.33241
21
-2.71076
0
LINE
8
BLACK
6
CONTINUOUS
10
6.33241
20
-2.69476
11
6.31641
21
-2.71076
0
LINE
8
BLACK
6
CONTINUOUS
10
6.34357
20
-2.80696
11
6.35957
21
-2.82296
0
LINE
8
BLACK
6
CONTINUOUS
10
6.35957
20
-2.80696
11
6.34357
21
-2.82296
0
LINE
8
BLACK
6
CONTINUOUS
10
6.34377
20
-3.74062
11
6.35977
21
-3.75662
0
LINE
8
BLACK
6
CONTINUOUS
10
6.35977
20
-3.74062
11
6.34377
21
-3.75662
0
LINE
8
BLACK
6
CONTINUOUS
10
6.37822
20
-3.1294
11
6.39422
21
-3.1454
0
LINE
8
BLACK
6
CONTINUOUS
10
6.39422
20
-3.1294
11
6.37822
21
-3.1454
0
LINE
8
BLACK
6
CONTINUOUS
10
6.39987
20
-3.94791
11
6.41587
21
-3.96391
0
LINE
8
BLACK
6
CONTINUOUS
10
6.41587
20
-3.94791
11
6.39987
21
-3.96391
0
LINE
8
BLACK
6
CONTINUOUS
10
6.43688
20
-2.74987
11
6.45288
21
-2.76587
0
LINE
8
BLACK
6
CONTINUOUS
10
6.45288
20
-2.74987
11
6.43688
21
-2.76587
0
LINE
8
BLACK
6
CONTINUOUS
10
6.50224
20
-3.14436
11
6.51824
21
-3.16036
0
LINE
8
BLACK
6
CONTINUOUS
10
6.51824
20
-3.14436
11
6.50224
21
-3.16036
0
LINE
8
BLACK
6
CONTINUOUS
10
6.54672
20
-3.89121
11
6.56272
21
-3.90721
0
LINE
8
BLACK
6
CONTINUOUS
10
6.56272
20
-3.89121
11
6.54672
21
-3.90721
0
LINE
8
BLACK
6
CONTINUOUS
10
6.55381
20
-4.17783
11
6.56981
21
-4.19383
0
LINE
8
BLACK
6
CONTINUOUS
10
6.56981
20
-4.17783
11
6.55381
21
-4.19383
0
LINE
8
BLACK
6
CONTINUOUS
10
6.5542
20
-4.21641
11
6.5702
21
-4.23241
0
LINE
8
BLACK
6
CONTINUOUS
10
6.5702
20
-4.21641
11
6.5542
21
-4.23241
0
LINE
8
BLACK
6
CONTINUOUS
10
6.5542
20
-4.25499
11
6.5702
21
-4.27099
0
LINE
8
BLACK
6
CONTINUOUS
10
6.5702
20
-4.25499
11
6.5542
21
-4.27099
0
LINE
8
BLACK
6
CONTINUOUS
10
6.58649
20
-3.19318
11
6.60249
21
-3.20918
0
LINE
8
BLACK
6
CONTINUOUS
10
6.60249
20
-3.19318
11
6.58649
21
-3.20918
0
LINE
8
BLACK
6
CONTINUOUS
10
6.59121
20
-2.59987
11
6.60721
21
-2.61587
0
LINE
8
BLACK
6
CONTINUOUS
10
6.60721
20
-2.59987
11
6.59121
21
-2.61587
0
LINE
8
BLACK
6
CONTINUOUS
10
6.6109
20
-3.44161
11
6.6269
21
-3.45761
0
LINE
8
BLACK
6
CONTINUOUS
10
6.6269
20
-3.44161
11
6.6109
21
-3.45761
0
LINE
8
BLACK
6
CONTINUOUS
10
6.61208
20
-3.59082
11
6.62808
21
-3.60682
0
LINE
8
BLACK
6
CONTINUOUS
10
6.62808
20
-3.59082
11
6.61208
21
-3.60682
0
LINE
8
BLACK
6
CONTINUOUS
10
6.61287
20
-3.54161
11
6.62887
21
-3.55761
0
LINE
8
BLACK
6
CONTINUOUS
10
6.62887
20
-3.54161
11
6.61287
21
-3.55761
0
LINE
8
BLACK
6
CONTINUOUS
10
6.62507
20
-3.89161
11
6.64107
21
-3.90761
0
LINE
8
BLACK
6
CONTINUOUS
10
6.64107
20
-3.89161
11
6.62507
21
-3.90761
0
LINE
8
BLACK
6
CONTINUOUS
10
6.62625
20
-3.842
11
6.64225
21
-3.858
0
LINE
8
BLACK
6
CONTINUOUS
10
6.64225
20
-3.842
11
6.62625
21
-3.858
0
LINE
8
BLACK
6
CONTINUOUS
10
6.62661
20
-3.79234
11
6.64261
21
-3.80834
0
LINE
8
BLACK
6
CONTINUOUS
10
6.64261
20
-3.79234
11
6.62661
21
-3.80834
0
LINE
8
BLACK
6
CONTINUOUS
10
6.62665
20
-3.74239
11
6.64265
21
-3.75839
0
LINE
8
BLACK
6
CONTINUOUS
10
6.64265
20
-3.74239
11
6.62665
21
-3.75839
0
LINE
8
BLACK
6
CONTINUOUS
10
6.70381
20
-3.6668
11
6.71981
21
-3.6828
0
LINE
8
BLACK
6
CONTINUOUS
10
6.71981
20
-3.6668
11
6.70381
21
-3.6828
0
LINE
8
BLACK
6
CONTINUOUS
10
6.70617
20
-2.79987
11
6.72217
21
-2.81587
0
LINE
8
BLACK
6
CONTINUOUS
10
6.72217
20
-2.79987
11
6.70617
21
-2.81587
0
LINE
8
BLACK
6
CONTINUOUS
10
6.75302
20
-3.43924
11
6.76902
21
-3.45524
0
LINE
8
BLACK
6
CONTINUOUS
10
6.76902
20
-3.43924
11
6.75302
21
-3.45524
0
LINE
8
BLACK
6
CONTINUOUS
10
6.78924
20
-2.69987
11
6.80524
21
-2.71587
0
LINE
8
BLACK
6
CONTINUOUS
10
6.80524
20
-2.69987
11
6.78924
21
-2.71587
0
LINE
8
BLACK
6
CONTINUOUS
10
6.78924
20
-2.74987
11
6.80524
21
-2.76587
0
LINE
8
BLACK
6
CONTINUOUS
10
6.80524
20
-2.74987
11
6.78924
21
-2.76587
0
LINE
8
BLACK
6
CONTINUOUS
10
6.79357
20
-3.23846
11
6.80957
21
-3.25446
0
LINE
8
BLACK
6
CONTINUOUS
10
6.80957
20
-3.23846
11
6.79357
21
-3.25446
0
LINE
8
BLACK
6
CONTINUOUS
10
6.79909
20
-3.95027
11
6.81509
21
-3.96627
0
LINE
8
BLACK
6
CONTINUOUS
10
6.81509
20
-3.95027
11
6.79909
21
-3.96627
0
LINE
8
BLACK
6
CONTINUOUS
10
6.80381
20
-4.36208
11
6.81981
21
-4.37808
0
LINE
8
BLACK
6
CONTINUOUS
10
6.81981
20
-4.36208
11
6.80381
21
-4.37808
0
LINE
8
BLACK
6
CONTINUOUS
10
6.81877
20
-3.44003
11
6.83477
21
-3.45603
0
LINE
8
BLACK
6
CONTINUOUS
10
6.83477
20
-3.44003
11
6.81877
21
-3.45603
0
LINE
8
BLACK
6
CONTINUOUS
10
6.81877
20
-3.54003
11
6.83477
21
-3.55603
0
LINE
8
BLACK
6
CONTINUOUS
10
6.83477
20
-3.54003
11
6.81877
21
-3.55603
0
LINE
8
BLACK
6
CONTINUOUS
10
6.81877
20
-3.59043
11
6.83477
21
-3.60643
0
LINE
8
BLACK
6
CONTINUOUS
10
6.83477
20
-3.59043
11
6.81877
21
-3.60643
0
LINE
8
BLACK
6
CONTINUOUS
10
6.85381
20
-4.07743
11
6.86981
21
-4.09343
0
LINE
8
BLACK
6
CONTINUOUS
10
6.86981
20
-4.07743
11
6.85381
21
-4.09343
0
LINE
8
BLACK
6
CONTINUOUS
10
6.8546
20
-4.36208
11
6.8706
21
-4.37808
0
LINE
8
BLACK
6
CONTINUOUS
10
6.8706
20
-4.36208
11
6.8546
21
-4.37808
0
LINE
8
BLACK
6
CONTINUOUS
10
6.90145
20
-4.36326
11
6.91745
21
-4.37926
0
LINE
8
BLACK
6
CONTINUOUS
10
6.91745
20
-4.36326
11
6.90145
21
-4.37926
0
LINE
8
BLACK
6
CONTINUOUS
10
6.94476
20
-3.86798
11
6.96076
21
-3.88398
0
LINE
8
BLACK
6
CONTINUOUS
10
6.96076
20
-3.86798
11
6.94476
21
-3.88398
0
LINE
8
BLACK
6
CONTINUOUS
10
7.02704
20
-3.49003
11
7.04304
21
-3.50603
0
LINE
8
BLACK
6
CONTINUOUS
10
7.04304
20
-3.49003
11
7.02704
21
-3.50603
0
LINE
8
BLACK
6
CONTINUOUS
10
7.02704
20
-3.54043
11
7.04304
21
-3.55643
0
LINE
8
BLACK
6
CONTINUOUS
10
7.04304
20
-3.54043
11
7.02704
21
-3.55643
0
LINE
8
BLACK
6
CONTINUOUS
10
7.03058
20
-3.59082
11
7.04658
21
-3.60682
0
LINE
8
BLACK
6
CONTINUOUS
10
7.04658
20
-3.59082
11
7.03058
21
-3.60682
0
LINE
8
BLACK
6
CONTINUOUS
10
7.07783
20
-2.70539
11
7.09383
21
-2.72139
0
LINE
8
BLACK
6
CONTINUOUS
10
7.09383
20
-2.70539
11
7.07783
21
-2.72139
0
LINE
8
BLACK
6
CONTINUOUS
10
7.08649
20
-3.86798
11
7.10249
21
-3.88398
0
LINE
8
BLACK
6
CONTINUOUS
10
7.10249
20
-3.86798
11
7.08649
21
-3.88398
0
LINE
8
BLACK
6
CONTINUOUS
10
7.08649
20
-3.76562
11
7.10249
21
-3.78162
0
LINE
8
BLACK
6
CONTINUOUS
10
7.10249
20
-3.76562
11
7.08649
21
-3.78162
0
LINE
8
BLACK
6
CONTINUOUS
10
7.15184
20
-4.17783
11
7.16784
21
-4.19383
0
LINE
8
BLACK
6
CONTINUOUS
10
7.16784
20
-4.17783
11
7.15184
21
-4.19383
0
LINE
8
BLACK
6
CONTINUOUS
10
7.15224
20
-4.25499
11
7.16824
21
-4.27099
0
LINE
8
BLACK
6
CONTINUOUS
10
7.16824
20
-4.25499
11
7.15224
21
-4.27099
0
LINE
8
BLACK
6
CONTINUOUS
10
7.15263
20
-4.21641
11
7.16863
21
-4.23241
0
LINE
8
BLACK
6
CONTINUOUS
10
7.16863
20
-4.21641
11
7.15263
21
-4.23241
0
CIRCLE
8
BLACK
10
3.76772
20
-2.85138
40
0.0127953
0
LINE
8
BLACK
6
CONTINUOUS
10
3.76378
20
-2.86417
11
3.77165
21
-2.86417
0
LINE
8
BLACK
6
CONTINUOUS
10
3.76378
20
-2.83858
11
3.77165
21
-2.83858
0
ARC
8
BLACK
10
3.77165
20
-2.85138
40
0.0127953
50
270
51
450
0
ARC
8
BLACK
10
3.76378
20
-2.85138
40
0.0127953
50
90
51
270
0
CIRCLE
8
BLACK
10
3.76772
20
-3.04232
40
0.0127953
0
LINE
8
BLACK
6
CONTINUOUS
10
3.76378
20
-3.05512
11
3.77165
21
-3.05512
0
LINE
8
BLACK
6
CONTINUOUS
10
3.76378
20
-3.02953
11
3.77165
21
-3.02953
0
ARC
8
BLACK
10
3.77165
20
-3.04232
40
0.0127953
50
270
51
450
0
ARC
8
BLACK
10
3.76378
20
-3.04232
40
0.0127953
50
90
51
270
0
LINE
8
BLACK
6
CONTINUOUS
10
3.64961
20
-2.7906
11
3.64961
21
-2.82308
0
LINE
8
BLACK
6
CONTINUOUS
10
3.63337
20
-2.80684
11
3.66585
21
-2.80684
0
LINE
8
BLACK
6
CONTINUOUS
10
3.63632
20
-2.82308
11
3.66289
21
-2.82308
0
LINE
8
BLACK
6
CONTINUOUS
10
3.63632
20
-2.7906
11
3.66289
21
-2.7906
0
ARC
8
BLACK
10
3.66289
20
-2.80684
40
0.0162402
50
270
51
450
0
ARC
8
BLACK
10
3.63632
20
-2.80684
40
0.0162402
50
90
51
270
0
LINE
8
BLACK
6
CONTINUOUS
10
3.64961
20
-3.07062
11
3.64961
21
-3.1031
0
LINE
8
BLACK
6
CONTINUOUS
10
3.63337
20
-3.08686
11
3.66585
21
-3.08686
0
LINE
8
BLACK
6
CONTINUOUS
10
3.63632
20
-3.1031
11
3.66289
21
-3.1031
0
LINE
8
BLACK
6
CONTINUOUS
10
3.63632
20
-3.07062
11
3.66289
21
-3.07062
0
ARC
8
BLACK
10
3.66289
20
-3.08686
40
0.0162402
50
270
51
450
0
ARC
8
BLACK
10
3.63632
20
-3.08686
40
0.0162402
50
90
51
270
0
LINE
8
BLACK
6
CONTINUOUS
10
4.54423
20
-4.38754
11
4.54423
21
-4.3597
0
LINE
8
BLACK
6
CONTINUOUS
10
4.54423
20
-4.3597
11
4.5164
21
-4.3597
0
LINE
8
BLACK
6
CONTINUOUS
10
4.5164
20
-4.3597
11
4.5164
21
-4.38754
0
LINE
8
BLACK
6
CONTINUOUS
10
4.5164
20
-4.38754
11
4.54423
21
-4.38754
0
LINE
8
BLACK
6
CONTINUOUS
10
4.64423
20
-4.38754
11
4.64423
21
-4.3597
0
LINE
8
BLACK
6
CONTINUOUS
10
4.64423
20
-4.3597
11
4.6164
21
-4.3597
0
LINE
8
BLACK
6
CONTINUOUS
10
4.6164
20
-4.3597
11
4.6164
21
-4.38754
0
LINE
8
BLACK
6
CONTINUOUS
10
4.6164
20
-4.38754
11
4.64423
21
-4.38754
0
LINE
8
BLACK
6
CONTINUOUS
10
4.74423
20
-4.38754
11
4.74423
21
-4.3597
0
LINE
8
BLACK
6
CONTINUOUS
10
4.74423
20
-4.3597
11
4.7164
21
-4.3597
0
LINE
8
BLACK
6
CONTINUOUS
10
4.7164
20
-4.3597
11
4.7164
21
-4.38754
0
LINE
8
BLACK
6
CONTINUOUS
10
4.7164
20
-4.38754
11
4.74423
21
-4.38754
0
LINE
8
BLACK
6
CONTINUOUS
10
4.84423
20
-4.38754
11
4.84423
21
-4.3597
0
LINE
8
BLACK
6
CONTINUOUS
10
4.84423
20
-4.3597
11
4.8164
21
-4.3597
0
LINE
8
BLACK
6
CONTINUOUS
10
4.8164
20
-4.3597
11
4.8164
21
-4.38754
0
LINE
8
BLACK
6
CONTINUOUS
10
4.8164
20
-4.38754
11
4.84423
21
-4.38754
0
LINE
8
BLACK
6
CONTINUOUS
10
4.94423
20
-4.38754
11
4.94423
21
-4.3597
0
LINE
8
BLACK
6
CONTINUOUS
10
4.94423
20
-4.3597
11
4.9164
21
-4.3597
0
LINE
8
BLACK
6
CONTINUOUS
10
4.9164
20
-4.3597
11
4.9164
21
-4.38754
0
LINE
8
BLACK
6
CONTINUOUS
10
4.9164
20
-4.38754
11
4.94423
21
-4.38754
0
LINE
8
BLACK
6
CONTINUOUS
10
5.04423
20
-4.38754
11
5.04423
21
-4.3597
0
LINE
8
BLACK
6
CONTINUOUS
10
5.04423
20
-4.3597
11
5.0164
21
-4.3597
0
LINE
8
BLACK
6
CONTINUOUS
10
5.0164
20
-4.3597
11
5.0164
21
-4.38754
0
LINE
8
BLACK
6
CONTINUOUS
10
5.0164
20
-4.38754
11
5.04423
21
-4.38754
0
LINE
8
BLACK
6
CONTINUOUS
10
5.14423
20
-4.38754
11
5.14423
21
-4.3597
0
LINE
8
BLACK
6
CONTINUOUS
10
5.14423
20
-4.3597
11
5.1164
21
-4.3597
0
LINE
8
BLACK
6
CONTINUOUS
10
5.1164
20
-4.3597
11
5.1164
21
-4.38754
0
LINE
8
BLACK
6
CONTINUOUS
10
5.1164
20
-4.38754
11
5.14423
21
-4.38754
0
LINE
8
BLACK
6
CONTINUOUS
10
4.94101
20
-3.04191
11
4.94101
21
-3.01407
0
LINE
8
BLACK
6
CONTINUOUS
10
4.94101
20
-3.01407
11
4.91317
21
-3.01407
0
LINE
8
BLACK
6
CONTINUOUS
10
4.91317
20
-3.01407
11
4.91317
21
-3.04191
0
LINE
8
BLACK
6
CONTINUOUS
10
4.91317
20
-3.04191
11
4.94101
21
-3.04191
0
LINE
8
BLACK
6
CONTINUOUS
10
4.94101
20
-3.14191
11
4.94101
21
-3.11407
0
LINE
8
BLACK
6
CONTINUOUS
10
4.94101
20
-3.11407
11
4.91317
21
-3.11407
0
LINE
8
BLACK
6
CONTINUOUS
10
4.91317
20
-3.11407
11
4.91317
21
-3.14191
0
LINE
8
BLACK
6
CONTINUOUS
10
4.91317
20
-3.14191
11
4.94101
21
-3.14191
0
LINE
8
BLACK
6
CONTINUOUS
10
4.94101
20
-3.24191
11
4.94101
21
-3.21407
0
LINE
8
BLACK
6
CONTINUOUS
10
4.94101
20
-3.21407
11
4.91317
21
-3.21407
0
LINE
8
BLACK
6
CONTINUOUS
10
4.91317
20
-3.21407
11
4.91317
21
-3.24191
0
LINE
8
BLACK
6
CONTINUOUS
10
4.91317
20
-3.24191
11
4.94101
21
-3.24191
0
LINE
8
BLACK
6
CONTINUOUS
10
4.94101
20
-3.34191
11
4.94101
21
-3.31407
0
LINE
8
BLACK
6
CONTINUOUS
10
4.94101
20
-3.31407
11
4.91317
21
-3.31407
0
LINE
8
BLACK
6
CONTINUOUS
10
4.91317
20
-3.31407
11
4.91317
21
-3.34191
0
LINE
8
BLACK
6
CONTINUOUS
10
4.91317
20
-3.34191
11
4.94101
21
-3.34191
0
LINE
8
BLACK
6
CONTINUOUS
10
4.94101
20
-3.44191
11
4.94101
21
-3.41407
0
LINE
8
BLACK
6
CONTINUOUS
10
4.94101
20
-3.41407
11
4.91317
21
-3.41407
0
LINE
8
BLACK
6
CONTINUOUS
10
4.91317
20
-3.41407
11
4.91317
21
-3.44191
0
LINE
8
BLACK
6
CONTINUOUS
10
4.91317
20
-3.44191
11
4.94101
21
-3.44191
0
LINE
8
BLACK
6
CONTINUOUS
10
4.94101
20
-3.54191
11
4.94101
21
-3.51407
0
LINE
8
BLACK
6
CONTINUOUS
10
4.94101
20
-3.51407
11
4.91317
21
-3.51407
0
LINE
8
BLACK
6
CONTINUOUS
10
4.91317
20
-3.51407
11
4.91317
21
-3.54191
0
LINE
8
BLACK
6
CONTINUOUS
10
4.91317
20
-3.54191
11
4.94101
21
-3.54191
0
LINE
8
BLACK
6
CONTINUOUS
10
3.74301
20
-4.03091
11
3.74301
21
-4.00307
0
LINE
8
BLACK
6
CONTINUOUS
10
3.74301
20
-4.00307
11
3.71517
21
-4.00307
0
LINE
8
BLACK
6
CONTINUOUS
10
3.71517
20
-4.00307
11
3.71517
21
-4.03091
0
LINE
8
BLACK
6
CONTINUOUS
10
3.71517
20
-4.03091
11
3.74301
21
-4.03091
0
LINE
8
BLACK
6
CONTINUOUS
10
3.74301
20
-4.13091
11
3.74301
21
-4.10307
0
LINE
8
BLACK
6
CONTINUOUS
10
3.74301
20
-4.10307
11
3.71517
21
-4.10307
0
LINE
8
BLACK
6
CONTINUOUS
10
3.71517
20
-4.10307
11
3.71517
21
-4.13091
0
LINE
8
BLACK
6
CONTINUOUS
10
3.71517
20
-4.13091
11
3.74301
21
-4.13091
0
LINE
8
BLACK
6
CONTINUOUS
10
3.84301
20
-4.03091
11
3.84301
21
-4.00307
0
LINE
8
BLACK
6
CONTINUOUS
10
3.84301
20
-4.00307
11
3.81517
21
-4.00307
0
LINE
8
BLACK
6
CONTINUOUS
10
3.81517
20
-4.00307
11
3.81517
21
-4.03091
0
LINE
8
BLACK
6
CONTINUOUS
10
3.81517
20
-4.03091
11
3.84301
21
-4.03091
0
LINE
8
BLACK
6
CONTINUOUS
10
3.84301
20
-4.13091
11
3.84301
21
-4.10307
0
LINE
8
BLACK
6
CONTINUOUS
10
3.84301
20
-4.10307
11
3.81517
21
-4.10307
0
LINE
8
BLACK
6
CONTINUOUS
10
3.81517
20
-4.10307
11
3.81517
21
-4.13091
0
LINE
8
BLACK
6
CONTINUOUS
10
3.81517
20
-4.13091
11
3.84301
21
-4.13091
0
LINE
8
BLACK
6
CONTINUOUS
10
3.94301
20
-4.03091
11
3.94301
21
-4.00307
0
LINE
8
BLACK
6
CONTINUOUS
10
3.94301
20
-4.00307
11
3.91517
21
-4.00307
0
LINE
8
BLACK
6
CONTINUOUS
10
3.91517
20
-4.00307
11
3.91517
21
-4.03091
0
LINE
8
BLACK
6
CONTINUOUS
10
3.91517
20
-4.03091
11
3.94301
21
-4.03091
0
LINE
8
BLACK
6
CONTINUOUS
10
3.94301
20
-4.13091
11
3.94301
21
-4.10307
0
LINE
8
BLACK
6
CONTINUOUS
10
3.94301
20
-4.10307
11
3.91517
21
-4.10307
0
LINE
8
BLACK
6
CONTINUOUS
10
3.91517
20
-4.10307
11
3.91517
21
-4.13091
0
LINE
8
BLACK
6
CONTINUOUS
10
3.91517
20
-4.13091
11
3.94301
21
-4.13091
0
LINE
8
BLACK
6
CONTINUOUS
10
4.04301
20
-4.03091
11
4.04301
21
-4.00307
0
LINE
8
BLACK
6
CONTINUOUS
10
4.04301
20
-4.00307
11
4.01517
21
-4.00307
0
LINE
8
BLACK
6
CONTINUOUS
10
4.01517
20
-4.00307
11
4.01517
21
-4.03091
0
LINE
8
BLACK
6
CONTINUOUS
10
4.01517
20
-4.03091
11
4.04301
21
-4.03091
0
LINE
8
BLACK
6
CONTINUOUS
10
4.04301
20
-4.13091
11
4.04301
21
-4.10307
0
LINE
8
BLACK
6
CONTINUOUS
10
4.04301
20
-4.10307
11
4.01517
21
-4.10307
0
LINE
8
BLACK
6
CONTINUOUS
10
4.01517
20
-4.10307
11
4.01517
21
-4.13091
0
LINE
8
BLACK
6
CONTINUOUS
10
4.01517
20
-4.13091
11
4.04301
21
-4.13091
0
LINE
8
BLACK
6
CONTINUOUS
10
7.29305
20
-2.78597
11
7.29305
21
-2.75813
0
LINE
8
BLACK
6
CONTINUOUS
10
7.29305
20
-2.75813
11
7.26521
21
-2.75813
0
LINE
8
BLACK
6
CONTINUOUS
10
7.26521
20
-2.75813
11
7.26521
21
-2.78597
0
LINE
8
BLACK
6
CONTINUOUS
10
7.26521
20
-2.78597
11
7.29305
21
-2.78597
0
LINE
8
BLACK
6
CONTINUOUS
10
7.29305
20
-2.88597
11
7.29305
21
-2.85813
0
LINE
8
BLACK
6
CONTINUOUS
10
7.29305
20
-2.85813
11
7.26521
21
-2.85813
0
LINE
8
BLACK
6
CONTINUOUS
10
7.26521
20
-2.85813
11
7.26521
21
-2.88597
0
LINE
8
BLACK
6
CONTINUOUS
10
7.26521
20
-2.88597
11
7.29305
21
-2.88597
0
LINE
8
BLACK
6
CONTINUOUS
10
7.29305
20
-2.98597
11
7.29305
21
-2.95813
0
LINE
8
BLACK
6
CONTINUOUS
10
7.29305
20
-2.95813
11
7.26521
21
-2.95813
0
LINE
8
BLACK
6
CONTINUOUS
10
7.26521
20
-2.95813
11
7.26521
21
-2.98597
0
LINE
8
BLACK
6
CONTINUOUS
10
7.26521
20
-2.98597
11
7.29305
21
-2.98597
0
LINE
8
BLACK
6
CONTINUOUS
10
7.29305
20
-3.08597
11
7.29305
21
-3.05813
0
LINE
8
BLACK
6
CONTINUOUS
10
7.29305
20
-3.05813
11
7.26521
21
-3.05813
0
LINE
8
BLACK
6
CONTINUOUS
10
7.26521
20
-3.05813
11
7.26521
21
-3.08597
0
LINE
8
BLACK
6
CONTINUOUS
10
7.26521
20
-3.08597
11
7.29305
21
-3.08597
0
LINE
8
BLACK
6
CONTINUOUS
10
7.29305
20
-3.18597
11
7.29305
21
-3.15813
0
LINE
8
BLACK
6
CONTINUOUS
10
7.29305
20
-3.15813
11
7.26521
21
-3.15813
0
LINE
8
BLACK
6
CONTINUOUS
10
7.26521
20
-3.15813
11
7.26521
21
-3.18597
0
LINE
8
BLACK
6
CONTINUOUS
10
7.26521
20
-3.18597
11
7.29305
21
-3.18597
0
LINE
8
BLACK
6
CONTINUOUS
10
7.29305
20
-3.28597
11
7.29305
21
-3.25813
0
LINE
8
BLACK
6
CONTINUOUS
10
7.29305
20
-3.25813
11
7.26521
21
-3.25813
0
LINE
8
BLACK
6
CONTINUOUS
10
7.26521
20
-3.25813
11
7.26521
21
-3.28597
0
LINE
8
BLACK
6
CONTINUOUS
10
7.26521
20
-3.28597
11
7.29305
21
-3.28597
0
LINE
8
BLACK
6
CONTINUOUS
10
7.29305
20
-3.38597
11
7.29305
21
-3.35813
0
LINE
8
BLACK
6
CONTINUOUS
10
7.29305
20
-3.35813
11
7.26521
21
-3.35813
0
LINE
8
BLACK
6
CONTINUOUS
10
7.26521
20
-3.35813
11
7.26521
21
-3.38597
0
LINE
8
BLACK
6
CONTINUOUS
10
7.26521
20
-3.38597
11
7.29305
21
-3.38597
0
LINE
8
BLACK
6
CONTINUOUS
10
7.29305
20
-3.48597
11
7.29305
21
-3.45813
0
LINE
8
BLACK
6
CONTINUOUS
10
7.29305
20
-3.45813
11
7.26521
21
-3.45813
0
LINE
8
BLACK
6
CONTINUOUS
10
7.26521
20
-3.45813
11
7.26521
21
-3.48597
0
LINE
8
BLACK
6
CONTINUOUS
10
7.26521
20
-3.48597
11
7.29305
21
-3.48597
0
LINE
8
BLACK
6
CONTINUOUS
10
7.29305
20
-3.58597
11
7.29305
21
-3.55813
0
LINE
8
BLACK
6
CONTINUOUS
10
7.29305
20
-3.55813
11
7.26521
21
-3.55813
0
LINE
8
BLACK
6
CONTINUOUS
10
7.26521
20
-3.55813
11
7.26521
21
-3.58597
0
LINE
8
BLACK
6
CONTINUOUS
10
7.26521
20
-3.58597
11
7.29305
21
-3.58597
0
LINE
8
BLACK
6
CONTINUOUS
10
7.29305
20
-3.68597
11
7.29305
21
-3.65813
0
LINE
8
BLACK
6
CONTINUOUS
10
7.29305
20
-3.65813
11
7.26521
21
-3.65813
0
LINE
8
BLACK
6
CONTINUOUS
10
7.26521
20
-3.65813
11
7.26521
21
-3.68597
0
LINE
8
BLACK
6
CONTINUOUS
10
7.26521
20
-3.68597
11
7.29305
21
-3.68597
0
LINE
8
BLACK
6
CONTINUOUS
10
7.29305
20
-3.78597
11
7.29305
21
-3.75813
0
LINE
8
BLACK
6
CONTINUOUS
10
7.29305
20
-3.75813
11
7.26521
21
-3.75813
0
LINE
8
BLACK
6
CONTINUOUS
10
7.26521
20
-3.75813
11
7.26521
21
-3.78597
0
LINE
8
BLACK
6
CONTINUOUS
10
7.26521
20
-3.78597
11
7.29305
21
-3.78597
0
LINE
8
BLACK
6
CONTINUOUS
10
7.29305
20
-3.88597
11
7.29305
21
-3.85813
0
LINE
8
BLACK
6
CONTINUOUS
10
7.29305
20
-3.85813
11
7.26521
21
-3.85813
0
LINE
8
BLACK
6
CONTINUOUS
10
7.26521
20
-3.85813
11
7.26521
21
-3.88597
0
LINE
8
BLACK
6
CONTINUOUS
10
7.26521
20
-3.88597
11
7.29305
21
-3.88597
0
LINE
8
BLACK
6
CONTINUOUS
10
7.29305
20
-3.98597
11
7.29305
21
-3.95813
0
LINE
8
BLACK
6
CONTINUOUS
10
7.29305
20
-3.95813
11
7.26521
21
-3.95813
0
LINE
8
BLACK
6
CONTINUOUS
10
7.26521
20
-3.95813
11
7.26521
21
-3.98597
0
LINE
8
BLACK
6
CONTINUOUS
10
7.26521
20
-3.98597
11
7.29305
21
-3.98597
0
LINE
8
BLACK
6
CONTINUOUS
10
7.29305
20
-4.08597
11
7.29305
21
-4.05813
0
LINE
8
BLACK
6
CONTINUOUS
10
7.29305
20
-4.05813
11
7.26521
21
-4.05813
0
LINE
8
BLACK
6
CONTINUOUS
10
7.26521
20
-4.05813
11
7.26521
21
-4.08597
0
LINE
8
BLACK
6
CONTINUOUS
10
7.26521
20
-4.08597
11
7.29305
21
-4.08597
0
LINE
8
BLACK
6
CONTINUOUS
10
7.39305
20
-2.78597
11
7.39305
21
-2.75813
0
LINE
8
BLACK
6
CONTINUOUS
10
7.39305
20
-2.75813
11
7.36521
21
-2.75813
0
LINE
8
BLACK
6
CONTINUOUS
10
7.36521
20
-2.75813
11
7.36521
21
-2.78597
0
LINE
8
BLACK
6
CONTINUOUS
10
7.36521
20
-2.78597
11
7.39305
21
-2.78597
0
LINE
8
BLACK
6
CONTINUOUS
10
7.39305
20
-2.88597
11
7.39305
21
-2.85813
0
LINE
8
BLACK
6
CONTINUOUS
10
7.39305
20
-2.85813
11
7.36521
21
-2.85813
0
LINE
8
BLACK
6
CONTINUOUS
10
7.36521
20
-2.85813
11
7.36521
21
-2.88597
0
LINE
8
BLACK
6
CONTINUOUS
10
7.36521
20
-2.88597
11
7.39305
21
-2.88597
0
LINE
8
BLACK
6
CONTINUOUS
10
7.39305
20
-2.98597
11
7.39305
21
-2.95813
0
LINE
8
BLACK
6
CONTINUOUS
10
7.39305
20
-2.95813
11
7.36521
21
-2.95813
0
LINE
8
BLACK
6
CONTINUOUS
10
7.36521
20
-2.95813
11
7.36521
21
-2.98597
0
LINE
8
BLACK
6
CONTINUOUS
10
7.36521
20
-2.98597
11
7.39305
21
-2.98597
0
LINE
8
BLACK
6
CONTINUOUS
10
7.39305
20
-3.08597
11
7.39305
21
-3.05813
0
LINE
8
BLACK
6
CONTINUOUS
10
7.39305
20
-3.05813
11
7.36521
21
-3.05813
0
LINE
8
BLACK
6
CONTINUOUS
10
7.36521
20
-3.05813
11
7.36521
21
-3.08597
0
LINE
8
BLACK
6
CONTINUOUS
10
7.36521
20
-3.08597
11
7.39305
21
-3.08597
0
LINE
8
BLACK
6
CONTINUOUS
10
7.39305
20
-3.18597
11
7.39305
21
-3.15813
0
LINE
8
BLACK
6
CONTINUOUS
10
7.39305
20
-3.15813
11
7.36521
21
-3.15813
0
LINE
8
BLACK
6
CONTINUOUS
10
7.36521
20
-3.15813
11
7.36521
21
-3.18597
0
LINE
8
BLACK
6
CONTINUOUS
10
7.36521
20
-3.18597
11
7.39305
21
-3.18597
0
LINE
8
BLACK
6
CONTINUOUS
10
7.39305
20
-3.28597
11
7.39305
21
-3.25813
0
LINE
8
BLACK
6
CONTINUOUS
10
7.39305
20
-3.25813
11
7.36521
21
-3.25813
0
LINE
8
BLACK
6
CONTINUOUS
10
7.36521
20
-3.25813
11
7.36521
21
-3.28597
0
LINE
8
BLACK
6
CONTINUOUS
10
7.36521
20
-3.28597
11
7.39305
21
-3.28597
0
LINE
8
BLACK
6
CONTINUOUS
10
7.39305
20
-3.38597
11
7.39305
21
-3.35813
0
LINE
8
BLACK
6
CONTINUOUS
10
7.39305
20
-3.35813
11
7.36521
21
-3.35813
0
LINE
8
BLACK
6
CONTINUOUS
10
7.36521
20
-3.35813
11
7.36521
21
-3.38597
0
LINE
8
BLACK
6
CONTINUOUS
10
7.36521
20
-3.38597
11
7.39305
21
-3.38597
0
LINE
8
BLACK
6
CONTINUOUS
10
7.39305
20
-3.48597
11
7.39305
21
-3.45813
0
LINE
8
BLACK
6
CONTINUOUS
10
7.39305
20
-3.45813
11
7.36521
21
-3.45813
0
LINE
8
BLACK
6
CONTINUOUS
10
7.36521
20
-3.45813
11
7.36521
21
-3.48597
0
LINE
8
BLACK
6
CONTINUOUS
10
7.36521
20
-3.48597
11
7.39305
21
-3.48597
0
LINE
8
BLACK
6
CONTINUOUS
10
7.39305
20
-3.58597
11
7.39305
21
-3.55813
0
LINE
8
BLACK
6
CONTINUOUS
10
7.39305
20
-3.55813
11
7.36521
21
-3.55813
0
LINE
8
BLACK
6
CONTINUOUS
10
7.36521
20
-3.55813
11
7.36521
21
-3.58597
0
LINE
8
BLACK
6
CONTINUOUS
10
7.36521
20
-3.58597
11
7.39305
21
-3.58597
0
LINE
8
BLACK
6
CONTINUOUS
10
7.39305
20
-3.68597
11
7.39305
21
-3.65813
0
LINE
8
BLACK
6
CONTINUOUS
10
7.39305
20
-3.65813
11
7.36521
21
-3.65813
0
LINE
8
BLACK
6
CONTINUOUS
10
7.36521
20
-3.65813
11
7.36521
21
-3.68597
0
LINE
8
BLACK
6
CONTINUOUS
10
7.36521
20
-3.68597
11
7.39305
21
-3.68597
0
LINE
8
BLACK
6
CONTINUOUS
10
7.39305
20
-3.78597
11
7.39305
21
-3.75813
0
LINE
8
BLACK
6
CONTINUOUS
10
7.39305
20
-3.75813
11
7.36521
21
-3.75813
0
LINE
8
BLACK
6
CONTINUOUS
10
7.36521
20
-3.75813
11
7.36521
21
-3.78597
0
LINE
8
BLACK
6
CONTINUOUS
10
7.36521
20
-3.78597
11
7.39305
21
-3.78597
0
LINE
8
BLACK
6
CONTINUOUS
10
7.39305
20
-3.88597
11
7.39305
21
-3.85813
0
LINE
8
BLACK
6
CONTINUOUS
10
7.39305
20
-3.85813
11
7.36521
21
-3.85813
0
LINE
8
BLACK
6
CONTINUOUS
10
7.36521
20
-3.85813
11
7.36521
21
-3.88597
0
LINE
8
BLACK
6
CONTINUOUS
10
7.36521
20
-3.88597
11
7.39305
21
-3.88597
0
LINE
8
BLACK
6
CONTINUOUS
10
7.39305
20
-3.98597
11
7.39305
21
-3.95813
0
LINE
8
BLACK
6
CONTINUOUS
10
7.39305
20
-3.95813
11
7.36521
21
-3.95813
0
LINE
8
BLACK
6
CONTINUOUS
10
7.36521
20
-3.95813
11
7.36521
21
-3.98597
0
LINE
8
BLACK
6
CONTINUOUS
10
7.36521
20
-3.98597
11
7.39305
21
-3.98597
0
LINE
8
BLACK
6
CONTINUOUS
10
7.39305
20
-4.08597
11
7.39305
21
-4.05813
0
LINE
8
BLACK
6
CONTINUOUS
10
7.39305
20
-4.05813
11
7.36521
21
-4.05813
0
LINE
8
BLACK
6
CONTINUOUS
10
7.36521
20
-4.05813
11
7.36521
21
-4.08597
0
LINE
8
BLACK
6
CONTINUOUS
10
7.36521
20
-4.08597
11
7.39305
21
-4.08597
0
LINE
8
BLACK
6
CONTINUOUS
10
5.18833
20
-2.48439
11
5.18833
21
-2.45655
0
LINE
8
BLACK
6
CONTINUOUS
10
5.18833
20
-2.45655
11
5.16049
21
-2.45655
0
LINE
8
BLACK
6
CONTINUOUS
10
5.16049
20
-2.45655
11
5.16049
21
-2.48439
0
LINE
8
BLACK
6
CONTINUOUS
10
5.16049
20
-2.48439
11
5.18833
21
-2.48439
0
LINE
8
BLACK
6
CONTINUOUS
10
5.28833
20
-2.48439
11
5.28833
21
-2.45655
0
LINE
8
BLACK
6
CONTINUOUS
10
5.28833
20
-2.45655
11
5.26049
21
-2.45655
0
LINE
8
BLACK
6
CONTINUOUS
10
5.26049
20
-2.45655
11
5.26049
21
-2.48439
0
LINE
8
BLACK
6
CONTINUOUS
10
5.26049
20
-2.48439
11
5.28833
21
-2.48439
0
LINE
8
BLACK
6
CONTINUOUS
10
5.38833
20
-2.48439
11
5.38833
21
-2.45655
0
LINE
8
BLACK
6
CONTINUOUS
10
5.38833
20
-2.45655
11
5.36049
21
-2.45655
0
LINE
8
BLACK
6
CONTINUOUS
10
5.36049
20
-2.45655
11
5.36049
21
-2.48439
0
LINE
8
BLACK
6
CONTINUOUS
10
5.36049
20
-2.48439
11
5.38833
21
-2.48439
0
LINE
8
BLACK
6
CONTINUOUS
10
5.48833
20
-2.48439
11
5.48833
21
-2.45655
0
LINE
8
BLACK
6
CONTINUOUS
10
5.48833
20
-2.45655
11
5.46049
21
-2.45655
0
LINE
8
BLACK
6
CONTINUOUS
10
5.46049
20
-2.45655
11
5.46049
21
-2.48439
0
LINE
8
BLACK
6
CONTINUOUS
10
5.46049
20
-2.48439
11
5.48833
21
-2.48439
0
LINE
8
BLACK
6
CONTINUOUS
10
5.34463
20
-4.38754
11
5.34463
21
-4.3597
0
LINE
8
BLACK
6
CONTINUOUS
10
5.34463
20
-4.3597
11
5.31679
21
-4.3597
0
LINE
8
BLACK
6
CONTINUOUS
10
5.31679
20
-4.3597
11
5.31679
21
-4.38754
0
LINE
8
BLACK
6
CONTINUOUS
10
5.31679
20
-4.38754
11
5.34463
21
-4.38754
0
LINE
8
BLACK
6
CONTINUOUS
10
5.44463
20
-4.38754
11
5.44463
21
-4.3597
0
LINE
8
BLACK
6
CONTINUOUS
10
5.44463
20
-4.3597
11
5.41679
21
-4.3597
0
LINE
8
BLACK
6
CONTINUOUS
10
5.41679
20
-4.3597
11
5.41679
21
-4.38754
0
LINE
8
BLACK
6
CONTINUOUS
10
5.41679
20
-4.38754
11
5.44463
21
-4.38754
0
LINE
8
BLACK
6
CONTINUOUS
10
5.54463
20
-4.38754
11
5.54463
21
-4.3597
0
LINE
8
BLACK
6
CONTINUOUS
10
5.54463
20
-4.3597
11
5.51679
21
-4.3597
0
LINE
8
BLACK
6
CONTINUOUS
10
5.51679
20
-4.3597
11
5.51679
21
-4.38754
0
LINE
8
BLACK
6
CONTINUOUS
10
5.51679
20
-4.38754
11
5.54463
21
-4.38754
0
LINE
8
BLACK
6
CONTINUOUS
10
5.64463
20
-4.38754
11
5.64463
21
-4.3597
0
LINE
8
BLACK
6
CONTINUOUS
10
5.64463
20
-4.3597
11
5.61679
21
-4.3597
0
LINE
8
BLACK
6
CONTINUOUS
10
5.61679
20
-4.3597
11
5.61679
21
-4.38754
0
LINE
8
BLACK
6
CONTINUOUS
10
5.61679
20
-4.38754
11
5.64463
21
-4.38754
0
LINE
8
BLACK
6
CONTINUOUS
10
5.74463
20
-4.38754
11
5.74463
21
-4.3597
0
LINE
8
BLACK
6
CONTINUOUS
10
5.74463
20
-4.3597
11
5.71679
21
-4.3597
0
LINE
8
BLACK
6
CONTINUOUS
10
5.71679
20
-4.3597
11
5.71679
21
-4.38754
0
LINE
8
BLACK
6
CONTINUOUS
10
5.71679
20
-4.38754
11
5.74463
21
-4.38754
0
LINE
8
BLACK
6
CONTINUOUS
10
5.84463
20
-4.38754
11
5.84463
21
-4.3597
0
LINE
8
BLACK
6
CONTINUOUS
10
5.84463
20
-4.3597
11
5.81679
21
-4.3597
0
LINE
8
BLACK
6
CONTINUOUS
10
5.81679
20
-4.3597
11
5.81679
21
-4.38754
0
LINE
8
BLACK
6
CONTINUOUS
10
5.81679
20
-4.38754
11
5.84463
21
-4.38754
0
LINE
8
BLACK
6
CONTINUOUS
10
5.94463
20
-4.38754
11
5.94463
21
-4.3597
0
LINE
8
BLACK
6
CONTINUOUS
10
5.94463
20
-4.3597
11
5.91679
21
-4.3597
0
LINE
8
BLACK
6
CONTINUOUS
10
5.91679
20
-4.3597
11
5.91679
21
-4.38754
0
LINE
8
BLACK
6
CONTINUOUS
10
5.91679
20
-4.38754
11
5.94463
21
-4.38754
0
LINE
8
BLACK
6
CONTINUOUS
10
6.04463
20
-4.38754
11
6.04463
21
-4.3597
0
LINE
8
BLACK
6
CONTINUOUS
10
6.04463
20
-4.3597
11
6.01679
21
-4.3597
0
LINE
8
BLACK
6
CONTINUOUS
10
6.01679
20
-4.3597
11
6.01679
21
-4.38754
0
LINE
8
BLACK
6
CONTINUOUS
10
6.01679
20
-4.38754
11
6.04463
21
-4.38754
0
LINE
8
BLACK
6
CONTINUOUS
10
6.14463
20
-4.38754
11
6.14463
21
-4.3597
0
LINE
8
BLACK
6
CONTINUOUS
10
6.14463
20
-4.3597
11
6.11679
21
-4.3597
0
LINE
8
BLACK
6
CONTINUOUS
10
6.11679
20
-4.3597
11
6.11679
21
-4.38754
0
LINE
8
BLACK
6
CONTINUOUS
10
6.11679
20
-4.38754
11
6.14463
21
-4.38754
0
LINE
8
BLACK
6
CONTINUOUS
10
6.24463
20
-4.38754
11
6.24463
21
-4.3597
0
LINE
8
BLACK
6
CONTINUOUS
10
6.24463
20
-4.3597
11
6.21679
21
-4.3597
0
LINE
8
BLACK
6
CONTINUOUS
10
6.21679
20
-4.3597
11
6.21679
21
-4.38754
0
LINE
8
BLACK
6
CONTINUOUS
10
6.21679
20
-4.38754
11
6.24463
21
-4.38754
0
LINE
8
BLACK
6
CONTINUOUS
10
6.34463
20
-4.38754
11
6.34463
21
-4.3597
0
LINE
8
BLACK
6
CONTINUOUS
10
6.34463
20
-4.3597
11
6.31679
21
-4.3597
0
LINE
8
BLACK
6
CONTINUOUS
10
6.31679
20
-4.3597
11
6.31679
21
-4.38754
0
LINE
8
BLACK
6
CONTINUOUS
10
6.31679
20
-4.38754
11
6.34463
21
-4.38754
0
LINE
8
BLACK
6
CONTINUOUS
10
6.44463
20
-4.38754
11
6.44463
21
-4.3597
0
LINE
8
BLACK
6
CONTINUOUS
10
6.44463
20
-4.3597
11
6.41679
21
-4.3597
0
LINE
8
BLACK
6
CONTINUOUS
10
6.41679
20
-4.3597
11
6.41679
21
-4.38754
0
LINE
8
BLACK
6
CONTINUOUS
10
6.41679
20
-4.38754
11
6.44463
21
-4.38754
0
LINE
8
BLACK
6
CONTINUOUS
10
6.16786
20
-2.48439
11
6.16786
21
-2.45655
0
LINE
8
BLACK
6
CONTINUOUS
10
6.16786
20
-2.45655
11
6.14002
21
-2.45655
0
LINE
8
BLACK
6
CONTINUOUS
10
6.14002
20
-2.45655
11
6.14002
21
-2.48439
0
LINE
8
BLACK
6
CONTINUOUS
10
6.14002
20
-2.48439
11
6.16786
21
-2.48439
0
LINE
8
BLACK
6
CONTINUOUS
10
6.26786
20
-2.48439
11
6.26786
21
-2.45655
0
LINE
8
BLACK
6
CONTINUOUS
10
6.26786
20
-2.45655
11
6.24002
21
-2.45655
0
LINE
8
BLACK
6
CONTINUOUS
10
6.24002
20
-2.45655
11
6.24002
21
-2.48439
0
LINE
8
BLACK
6
CONTINUOUS
10
6.24002
20
-2.48439
11
6.26786
21
-2.48439
0
LINE
8
BLACK
6
CONTINUOUS
10
6.36786
20
-2.48439
11
6.36786
21
-2.45655
0
LINE
8
BLACK
6
CONTINUOUS
10
6.36786
20
-2.45655
11
6.34002
21
-2.45655
0
LINE
8
BLACK
6
CONTINUOUS
10
6.34002
20
-2.45655
11
6.34002
21
-2.48439
0
LINE
8
BLACK
6
CONTINUOUS
10
6.34002
20
-2.48439
11
6.36786
21
-2.48439
0
LINE
8
BLACK
6
CONTINUOUS
10
6.46786
20
-2.48439
11
6.46786
21
-2.45655
0
LINE
8
BLACK
6
CONTINUOUS
10
6.46786
20
-2.45655
11
6.44002
21
-2.45655
0
LINE
8
BLACK
6
CONTINUOUS
10
6.44002
20
-2.45655
11
6.44002
21
-2.48439
0
LINE
8
BLACK
6
CONTINUOUS
10
6.44002
20
-2.48439
11
6.46786
21
-2.48439
0
LINE
8
BLACK
6
CONTINUOUS
10
6.56786
20
-2.48439
11
6.56786
21
-2.45655
0
LINE
8
BLACK
6
CONTINUOUS
10
6.56786
20
-2.45655
11
6.54002
21
-2.45655
0
LINE
8
BLACK
6
CONTINUOUS
10
6.54002
20
-2.45655
11
6.54002
21
-2.48439
0
LINE
8
BLACK
6
CONTINUOUS
10
6.54002
20
-2.48439
11
6.56786
21
-2.48439
0
LINE
8
BLACK
6
CONTINUOUS
10
6.66786
20
-2.48439
11
6.66786
21
-2.45655
0
LINE
8
BLACK
6
CONTINUOUS
10
6.66786
20
-2.45655
11
6.64002
21
-2.45655
0
LINE
8
BLACK
6
CONTINUOUS
10
6.64002
20
-2.45655
11
6.64002
21
-2.48439
0
LINE
8
BLACK
6
CONTINUOUS
10
6.64002
20
-2.48439
11
6.66786
21
-2.48439
0
LINE
8
BLACK
6
CONTINUOUS
10
6.76786
20
-2.48439
11
6.76786
21
-2.45655
0
LINE
8
BLACK
6
CONTINUOUS
10
6.76786
20
-2.45655
11
6.74002
21
-2.45655
0
LINE
8
BLACK
6
CONTINUOUS
10
6.74002
20
-2.45655
11
6.74002
21
-2.48439
0
LINE
8
BLACK
6
CONTINUOUS
10
6.74002
20
-2.48439
11
6.76786
21
-2.48439
0
LINE
8
BLACK
6
CONTINUOUS
10
6.86786
20
-2.48439
11
6.86786
21
-2.45655
0
LINE
8
BLACK
6
CONTINUOUS
10
6.86786
20
-2.45655
11
6.84002
21
-2.45655
0
LINE
8
BLACK
6
CONTINUOUS
10
6.84002
20
-2.45655
11
6.84002
21
-2.48439
0
LINE
8
BLACK
6
CONTINUOUS
10
6.84002
20
-2.48439
11
6.86786
21
-2.48439
0
LINE
8
BLACK
6
CONTINUOUS
10
4.49935
20
-2.48439
11
4.49935
21
-2.45655
0
LINE
8
BLACK
6
CONTINUOUS
10
4.49935
20
-2.45655
11
4.47151
21
-2.45655
0
LINE
8
BLACK
6
CONTINUOUS
10
4.47151
20
-2.45655
11
4.47151
21
-2.48439
0
LINE
8
BLACK
6
CONTINUOUS
10
4.47151
20
-2.48439
11
4.49935
21
-2.48439
0
LINE
8
BLACK
6
CONTINUOUS
10
4.59935
20
-2.48439
11
4.59935
21
-2.45655
0
LINE
8
BLACK
6
CONTINUOUS
10
4.59935
20
-2.45655
11
4.57151
21
-2.45655
0
LINE
8
BLACK
6
CONTINUOUS
10
4.57151
20
-2.45655
11
4.57151
21
-2.48439
0
LINE
8
BLACK
6
CONTINUOUS
10
4.57151
20
-2.48439
11
4.59935
21
-2.48439
0
LINE
8
BLACK
6
CONTINUOUS
10
4.69935
20
-2.48439
11
4.69935
21
-2.45655
0
LINE
8
BLACK
6
CONTINUOUS
10
4.69935
20
-2.45655
11
4.67151
21
-2.45655
0
LINE
8
BLACK
6
CONTINUOUS
10
4.67151
20
-2.45655
11
4.67151
21
-2.48439
0
LINE
8
BLACK
6
CONTINUOUS
10
4.67151
20
-2.48439
11
4.69935
21
-2.48439
0
LINE
8
BLACK
6
CONTINUOUS
10
4.79935
20
-2.48439
11
4.79935
21
-2.45655
0
LINE
8
BLACK
6
CONTINUOUS
10
4.79935
20
-2.45655
11
4.77151
21
-2.45655
0
LINE
8
BLACK
6
CONTINUOUS
10
4.77151
20
-2.45655
11
4.77151
21
-2.48439
0
LINE
8
BLACK
6
CONTINUOUS
10
4.77151
20
-2.48439
11
4.79935
21
-2.48439
0
LINE
8
BLACK
6
CONTINUOUS
10
4.89935
20
-2.48439
11
4.89935
21
-2.45655
0
LINE
8
BLACK
6
CONTINUOUS
10
4.89935
20
-2.45655
11
4.87151
21
-2.45655
0
LINE
8
BLACK
6
CONTINUOUS
10
4.87151
20
-2.45655
11
4.87151
21
-2.48439
0
LINE
8
BLACK
6
CONTINUOUS
10
4.87151
20
-2.48439
11
4.89935
21
-2.48439
0
LINE
8
BLACK
6
CONTINUOUS
10
4.99935
20
-2.48439
11
4.99935
21
-2.45655
0
LINE
8
BLACK
6
CONTINUOUS
10
4.99935
20
-2.45655
11
4.97151
21
-2.45655
0
LINE
8
BLACK
6
CONTINUOUS
10
4.97151
20
-2.45655
11
4.97151
21
-2.48439
0
LINE
8
BLACK
6
CONTINUOUS
10
4.97151
20
-2.48439
11
4.99935
21
-2.48439
0
LINE
8
BLACK
6
CONTINUOUS
10
5.67731
20
-2.48439
11
5.67731
21
-2.45655
0
LINE
8
BLACK
6
CONTINUOUS
10
5.67731
20
-2.45655
11
5.64947
21
-2.45655
0
LINE
8
BLACK
6
CONTINUOUS
10
5.64947
20
-2.45655
11
5.64947
21
-2.48439
0
LINE
8
BLACK
6
CONTINUOUS
10
5.64947
20
-2.48439
11
5.67731
21
-2.48439
0
LINE
8
BLACK
6
CONTINUOUS
10
5.77731
20
-2.48439
11
5.77731
21
-2.45655
0
LINE
8
BLACK
6
CONTINUOUS
10
5.77731
20
-2.45655
11
5.74947
21
-2.45655
0
LINE
8
BLACK
6
CONTINUOUS
10
5.74947
20
-2.45655
11
5.74947
21
-2.48439
0
LINE
8
BLACK
6
CONTINUOUS
10
5.74947
20
-2.48439
11
5.77731
21
-2.48439
0
LINE
8
BLACK
6
CONTINUOUS
10
5.87731
20
-2.48439
11
5.87731
21
-2.45655
0
LINE
8
BLACK
6
CONTINUOUS
10
5.87731
20
-2.45655
11
5.84947
21
-2.45655
0
LINE
8
BLACK
6
CONTINUOUS
10
5.84947
20
-2.45655
11
5.84947
21
-2.48439
0
LINE
8
BLACK
6
CONTINUOUS
10
5.84947
20
-2.48439
11
5.87731
21
-2.48439
0
LINE
8
BLACK
6
CONTINUOUS
10
5.97731
20
-2.48439
11
5.97731
21
-2.45655
0
LINE
8
BLACK
6
CONTINUOUS
10
5.97731
20
-2.45655
11
5.94947
21
-2.45655
0
LINE
8
BLACK
6
CONTINUOUS
10
5.94947
20
-2.45655
11
5.94947
21
-2.48439
0
LINE
8
BLACK
6
CONTINUOUS
10
5.94947
20
-2.48439
11
5.97731
21
-2.48439
0
LINE
8
BLACK
6
CONTINUOUS
10
4.57376
20
-3.72809
11
4.57376
21
-3.70025
0
LINE
8
BLACK
6
CONTINUOUS
10
4.57376
20
-3.70025
11
4.54592
21
-3.70025
0
LINE
8
BLACK
6
CONTINUOUS
10
4.54592
20
-3.70025
11
4.54592
21
-3.72809
0
LINE
8
BLACK
6
CONTINUOUS
10
4.54592
20
-3.72809
11
4.57376
21
-3.72809
0
LINE
8
BLACK
6
CONTINUOUS
10
4.67376
20
-3.72809
11
4.67376
21
-3.70025
0
LINE
8
BLACK
6
CONTINUOUS
10
4.67376
20
-3.70025
11
4.64592
21
-3.70025
0
LINE
8
BLACK
6
CONTINUOUS
10
4.64592
20
-3.70025
11
4.64592
21
-3.72809
0
LINE
8
BLACK
6
CONTINUOUS
10
4.64592
20
-3.72809
11
4.67376
21
-3.72809
0
LINE
8
BLACK
6
CONTINUOUS
10
4.77376
20
-3.72809
11
4.77376
21
-3.70025
0
LINE
8
BLACK
6
CONTINUOUS
10
4.77376
20
-3.70025
11
4.74592
21
-3.70025
0
LINE
8
BLACK
6
CONTINUOUS
10
4.74592
20
-3.70025
11
4.74592
21
-3.72809
0
LINE
8
BLACK
6
CONTINUOUS
10
4.74592
20
-3.72809
11
4.77376
21
-3.72809
0
LINE
8
BLACK
6
CONTINUOUS
10
4.87376
20
-3.72809
11
4.87376
21
-3.70025
0
LINE
8
BLACK
6
CONTINUOUS
10
4.87376
20
-3.70025
11
4.84592
21
-3.70025
0
LINE
8
BLACK
6
CONTINUOUS
10
4.84592
20
-3.70025
11
4.84592
21
-3.72809
0
LINE
8
BLACK
6
CONTINUOUS
10
4.84592
20
-3.72809
11
4.87376
21
-3.72809
0
LINE
8
BLACK
6
CONTINUOUS
10
4.97376
20
-3.72809
11
4.97376
21
-3.70025
0
LINE
8
BLACK
6
CONTINUOUS
10
4.97376
20
-3.70025
11
4.94592
21
-3.70025
0
LINE
8
BLACK
6
CONTINUOUS
10
4.94592
20
-3.70025
11
4.94592
21
-3.72809
0
LINE
8
BLACK
6
CONTINUOUS
10
4.94592
20
-3.72809
11
4.97376
21
-3.72809
0
LINE
8
BLACK
6
CONTINUOUS
10
5.07376
20
-3.72809
11
5.07376
21
-3.70025
0
LINE
8
BLACK
6
CONTINUOUS
10
5.07376
20
-3.70025
11
5.04592
21
-3.70025
0
LINE
8
BLACK
6
CONTINUOUS
10
5.04592
20
-3.70025
11
5.04592
21
-3.72809
0
LINE
8
BLACK
6
CONTINUOUS
10
5.04592
20
-3.72809
11
5.07376
21
-3.72809
0
LINE
8
BLACK
6
CONTINUOUS
10
7.37874
20
-4.43346
11
7.44173
21
-4.37047
0
LINE
8
BLACK
6
CONTINUOUS
10
7.44173
20
-4.37047
11
7.37874
21
-4.30748
0
LINE
8
BLACK
6
CONTINUOUS
10
7.37874
20
-4.30748
11
7.31575
21
-4.37047
0
LINE
8
BLACK
6
CONTINUOUS
10
7.31575
20
-4.37047
11
7.37874
21
-4.43346
0
LINE
8
BLACK
6
CONTINUOUS
10
4.17913
20
-2.53425
11
4.24213
21
-2.47126
0
LINE
8
BLACK
6
CONTINUOUS
10
4.24213
20
-2.47126
11
4.17913
21
-2.40827
0
LINE
8
BLACK
6
CONTINUOUS
10
4.17913
20
-2.40827
11
4.11614
21
-2.47126
0
LINE
8
BLACK
6
CONTINUOUS
10
4.11614
20
-2.47126
11
4.17913
21
-2.53425
0
LINE
8
BLACK
6
CONTINUOUS
10
7.12953
20
-2.53465
11
7.19252
21
-2.47165
0
LINE
8
BLACK
6
CONTINUOUS
10
7.19252
20
-2.47165
11
7.12953
21
-2.40866
0
LINE
8
BLACK
6
CONTINUOUS
10
7.12953
20
-2.40866
11
7.06654
21
-2.47165
0
LINE
8
BLACK
6
CONTINUOUS
10
7.06654
20
-2.47165
11
7.12953
21
-2.53465
0
LINE
8
BLACK
6
CONTINUOUS
10
4.12913
20
-4.43386
11
4.19213
21
-4.37087
0
LINE
8
BLACK
6
CONTINUOUS
10
4.19213
20
-4.37087
11
4.12913
21
-4.30787
0
LINE
8
BLACK
6
CONTINUOUS
10
4.12913
20
-4.30787
11
4.06614
21
-4.37087
0
LINE
8
BLACK
6
CONTINUOUS
10
4.06614
20
-4.37087
11
4.12913
21
-4.43386
0
LINE
8
BLACK
6
CONTINUOUS
10
3.69111
20
-4.65697
11
3.69111
21
-4.53886
0
LINE
8
BLACK
6
CONTINUOUS
10
3.69111
20
-4.53886
11
3.71924
21
-4.53886
0
LINE
8
BLACK
6
CONTINUOUS
10
3.71924
20
-4.53886
11
3.73611
21
-4.54449
0
LINE
8
BLACK
6
CONTINUOUS
10
3.73611
20
-4.54449
11
3.74736
21
-4.55574
0
LINE
8
BLACK
6
CONTINUOUS
10
3.74736
20
-4.55574
11
3.75298
21
-4.56699
0
LINE
8
BLACK
6
CONTINUOUS
10
3.75298
20
-4.56699
11
3.75861
21
-4.58948
0
LINE
8
BLACK
6
CONTINUOUS
10
3.75861
20
-4.58948
11
3.75861
21
-4.60636
0
LINE
8
BLACK
6
CONTINUOUS
10
3.75861
20
-4.60636
11
3.75298
21
-4.62885
0
LINE
8
BLACK
6
CONTINUOUS
10
3.75298
20
-4.62885
11
3.74736
21
-4.6401
0
LINE
8
BLACK
6
CONTINUOUS
10
3.74736
20
-4.6401
11
3.73611
21
-4.65135
0
LINE
8
BLACK
6
CONTINUOUS
10
3.73611
20
-4.65135
11
3.71924
21
-4.65697
0
LINE
8
BLACK
6
CONTINUOUS
10
3.71924
20
-4.65697
11
3.69111
21
-4.65697
0
LINE
8
BLACK
6
CONTINUOUS
10
3.80922
20
-4.65697
11
3.80922
21
-4.57823
0
LINE
8
BLACK
6
CONTINUOUS
10
3.80922
20
-4.60073
11
3.81485
21
-4.58948
0
LINE
8
BLACK
6
CONTINUOUS
10
3.81485
20
-4.58948
11
3.82047
21
-4.58386
0
LINE
8
BLACK
6
CONTINUOUS
10
3.82047
20
-4.58386
11
3.83172
21
-4.57823
0
LINE
8
BLACK
6
CONTINUOUS
10
3.83172
20
-4.57823
11
3.84297
21
-4.57823
0
LINE
8
BLACK
6
CONTINUOUS
10
3.88234
20
-4.65697
11
3.88234
21
-4.57823
0
LINE
8
BLACK
6
CONTINUOUS
10
3.88234
20
-4.53886
11
3.87672
21
-4.54449
0
LINE
8
BLACK
6
CONTINUOUS
10
3.87672
20
-4.54449
11
3.88234
21
-4.55011
0
LINE
8
BLACK
6
CONTINUOUS
10
3.88234
20
-4.55011
11
3.88796
21
-4.54449
0
LINE
8
BLACK
6
CONTINUOUS
10
3.88796
20
-4.54449
11
3.88234
21
-4.53886
0
LINE
8
BLACK
6
CONTINUOUS
10
3.88234
20
-4.53886
11
3.88234
21
-4.55011
0
LINE
8
BLACK
6
CONTINUOUS
10
3.95546
20
-4.65697
11
3.94421
21
-4.65135
0
LINE
8
BLACK
6
CONTINUOUS
10
3.94421
20
-4.65135
11
3.93858
21
-4.6401
0
LINE
8
BLACK
6
CONTINUOUS
10
3.93858
20
-4.6401
11
3.93858
21
-4.53886
0
LINE
8
BLACK
6
CONTINUOUS
10
4.01732
20
-4.65697
11
4.00607
21
-4.65135
0
LINE
8
BLACK
6
CONTINUOUS
10
4.00607
20
-4.65135
11
4.00045
21
-4.6401
0
LINE
8
BLACK
6
CONTINUOUS
10
4.00045
20
-4.6401
11
4.00045
21
-4.53886
0
LINE
8
BLACK
6
CONTINUOUS
10
4.15231
20
-4.65697
11
4.15231
21
-4.53886
0
LINE
8
BLACK
6
CONTINUOUS
10
4.15231
20
-4.53886
11
4.19168
21
-4.62323
0
LINE
8
BLACK
6
CONTINUOUS
10
4.19168
20
-4.62323
11
4.23105
21
-4.53886
0
LINE
8
BLACK
6
CONTINUOUS
10
4.23105
20
-4.53886
11
4.23105
21
-4.65697
0
LINE
8
BLACK
6
CONTINUOUS
10
4.33791
20
-4.65697
11
4.33791
21
-4.59511
0
LINE
8
BLACK
6
CONTINUOUS
10
4.33791
20
-4.59511
11
4.33228
21
-4.58386
0
LINE
8
BLACK
6
CONTINUOUS
10
4.33228
20
-4.58386
11
4.32103
21
-4.57823
0
LINE
8
BLACK
6
CONTINUOUS
10
4.32103
20
-4.57823
11
4.29854
21
-4.57823
0
LINE
8
BLACK
6
CONTINUOUS
10
4.29854
20
-4.57823
11
4.28729
21
-4.58386
0
LINE
8
BLACK
6
CONTINUOUS
10
4.33791
20
-4.65135
11
4.32666
21
-4.65697
0
LINE
8
BLACK
6
CONTINUOUS
10
4.32666
20
-4.65697
11
4.29854
21
-4.65697
0
LINE
8
BLACK
6
CONTINUOUS
10
4.29854
20
-4.65697
11
4.28729
21
-4.65135
0
LINE
8
BLACK
6
CONTINUOUS
10
4.28729
20
-4.65135
11
4.28166
21
-4.6401
0
LINE
8
BLACK
6
CONTINUOUS
10
4.28166
20
-4.6401
11
4.28166
21
-4.62885
0
LINE
8
BLACK
6
CONTINUOUS
10
4.28166
20
-4.62885
11
4.28729
21
-4.6176
0
LINE
8
BLACK
6
CONTINUOUS
10
4.28729
20
-4.6176
11
4.29854
21
-4.61198
0
LINE
8
BLACK
6
CONTINUOUS
10
4.29854
20
-4.61198
11
4.32666
21
-4.61198
0
LINE
8
BLACK
6
CONTINUOUS
10
4.32666
20
-4.61198
11
4.33791
21
-4.60636
0
LINE
8
BLACK
6
CONTINUOUS
10
4.39415
20
-4.57823
11
4.39415
21
-4.69634
0
LINE
8
BLACK
6
CONTINUOUS
10
4.39415
20
-4.58386
11
4.4054
21
-4.57823
0
LINE
8
BLACK
6
CONTINUOUS
10
4.4054
20
-4.57823
11
4.4279
21
-4.57823
0
LINE
8
BLACK
6
CONTINUOUS
10
4.4279
20
-4.57823
11
4.43915
21
-4.58386
0
LINE
8
BLACK
6
CONTINUOUS
10
4.43915
20
-4.58386
11
4.44477
21
-4.58948
0
LINE
8
BLACK
6
CONTINUOUS
10
4.44477
20
-4.58948
11
4.45039
21
-4.60073
0
LINE
8
BLACK
6
CONTINUOUS
10
4.45039
20
-4.60073
11
4.45039
21
-4.63448
0
LINE
8
BLACK
6
CONTINUOUS
10
4.45039
20
-4.63448
11
4.44477
21
-4.64573
0
LINE
8
BLACK
6
CONTINUOUS
10
4.44477
20
-4.64573
11
4.43915
21
-4.65135
0
LINE
8
BLACK
6
CONTINUOUS
10
4.43915
20
-4.65135
11
4.4279
21
-4.65697
0
LINE
8
BLACK
6
CONTINUOUS
10
4.4279
20
-4.65697
11
4.4054
21
-4.65697
0
LINE
8
BLACK
6
CONTINUOUS
10
4.4054
20
-4.65697
11
4.39415
21
-4.65135
0
LINE
8
BLACK
6
CONTINUOUS
10
4.50101
20
-4.64573
11
4.50664
21
-4.65135
0
LINE
8
BLACK
6
CONTINUOUS
10
4.50664
20
-4.65135
11
4.50101
21
-4.65697
0
LINE
8
BLACK
6
CONTINUOUS
10
4.50101
20
-4.65697
11
4.49539
21
-4.65135
0
LINE
8
BLACK
6
CONTINUOUS
10
4.49539
20
-4.65135
11
4.50101
21
-4.64573
0
LINE
8
BLACK
6
CONTINUOUS
10
4.50101
20
-4.64573
11
4.50101
21
-4.65697
0
LINE
8
BLACK
6
CONTINUOUS
10
4.50101
20
-4.58386
11
4.50664
21
-4.58948
0
LINE
8
BLACK
6
CONTINUOUS
10
4.50664
20
-4.58948
11
4.50101
21
-4.59511
0
LINE
8
BLACK
6
CONTINUOUS
10
4.50101
20
-4.59511
11
4.49539
21
-4.58948
0
LINE
8
BLACK
6
CONTINUOUS
10
4.49539
20
-4.58948
11
4.50101
21
-4.58386
0
LINE
8
BLACK
6
CONTINUOUS
10
4.50101
20
-4.58386
11
4.50101
21
-4.59511
0
LINE
8
BLACK
6
CONTINUOUS
10
3.56235
20
-4.84357
11
3.57835
21
-4.85957
0
LINE
8
BLACK
6
CONTINUOUS
10
3.57835
20
-4.84357
11
3.56235
21
-4.85957
0
LINE
8
BLACK
6
CONTINUOUS
10
3.71361
20
-4.7869
11
3.72486
21
-4.7869
0
LINE
8
BLACK
6
CONTINUOUS
10
3.72486
20
-4.7869
11
3.73611
21
-4.79252
0
LINE
8
BLACK
6
CONTINUOUS
10
3.73611
20
-4.79252
11
3.74173
21
-4.79814
0
LINE
8
BLACK
6
CONTINUOUS
10
3.74173
20
-4.79814
11
3.74736
21
-4.80939
0
LINE
8
BLACK
6
CONTINUOUS
10
3.74736
20
-4.80939
11
3.75298
21
-4.83189
0
LINE
8
BLACK
6
CONTINUOUS
10
3.75298
20
-4.83189
11
3.75298
21
-4.86001
0
LINE
8
BLACK
6
CONTINUOUS
10
3.75298
20
-4.86001
11
3.74736
21
-4.88251
0
LINE
8
BLACK
6
CONTINUOUS
10
3.74736
20
-4.88251
11
3.74173
21
-4.89376
0
LINE
8
BLACK
6
CONTINUOUS
10
3.74173
20
-4.89376
11
3.73611
21
-4.89938
0
LINE
8
BLACK
6
CONTINUOUS
10
3.73611
20
-4.89938
11
3.72486
21
-4.90501
0
LINE
8
BLACK
6
CONTINUOUS
10
3.72486
20
-4.90501
11
3.71361
21
-4.90501
0
LINE
8
BLACK
6
CONTINUOUS
10
3.71361
20
-4.90501
11
3.70236
21
-4.89938
0
LINE
8
BLACK
6
CONTINUOUS
10
3.70236
20
-4.89938
11
3.69674
21
-4.89376
0
LINE
8
BLACK
6
CONTINUOUS
10
3.69674
20
-4.89376
11
3.69111
21
-4.88251
0
LINE
8
BLACK
6
CONTINUOUS
10
3.69111
20
-4.88251
11
3.68549
21
-4.86001
0
LINE
8
BLACK
6
CONTINUOUS
10
3.68549
20
-4.86001
11
3.68549
21
-4.83189
0
LINE
8
BLACK
6
CONTINUOUS
10
3.68549
20
-4.83189
11
3.69111
21
-4.80939
0
LINE
8
BLACK
6
CONTINUOUS
10
3.69111
20
-4.80939
11
3.69674
21
-4.79814
0
LINE
8
BLACK
6
CONTINUOUS
10
3.69674
20
-4.79814
11
3.70236
21
-4.79252
0
LINE
8
BLACK
6
CONTINUOUS
10
3.70236
20
-4.79252
11
3.71361
21
-4.7869
0
LINE
8
BLACK
6
CONTINUOUS
10
3.8036
20
-4.89376
11
3.80922
21
-4.89938
0
LINE
8
BLACK
6
CONTINUOUS
10
3.80922
20
-4.89938
11
3.8036
21
-4.90501
0
LINE
8
BLACK
6
CONTINUOUS
10
3.8036
20
-4.90501
11
3.79798
21
-4.89938
0
LINE
8
BLACK
6
CONTINUOUS
10
3.79798
20
-4.89938
11
3.8036
21
-4.89376
0
LINE
8
BLACK
6
CONTINUOUS
10
3.8036
20
-4.89376
11
3.8036
21
-4.90501
0
LINE
8
BLACK
6
CONTINUOUS
10
3.91046
20
-4.82627
11
3.91046
21
-4.90501
0
LINE
8
BLACK
6
CONTINUOUS
10
3.88234
20
-4.78127
11
3.85422
21
-4.86564
0
LINE
8
BLACK
6
CONTINUOUS
10
3.85422
20
-4.86564
11
3.92733
21
-4.86564
0
LINE
8
BLACK
6
CONTINUOUS
10
4.0342
20
-4.90501
11
3.9667
21
-4.90501
0
LINE
8
BLACK
6
CONTINUOUS
10
4.00045
20
-4.90501
11
4.00045
21
-4.7869
0
LINE
8
BLACK
6
CONTINUOUS
10
4.00045
20
-4.7869
11
3.9892
21
-4.80377
0
LINE
8
BLACK
6
CONTINUOUS
10
3.9892
20
-4.80377
11
3.97795
21
-4.81502
0
LINE
8
BLACK
6
CONTINUOUS
10
3.97795
20
-4.81502
11
3.9667
21
-4.82064
0
LINE
8
BLACK
6
CONTINUOUS
10
4.08481
20
-4.90501
11
4.08481
21
-4.82627
0
LINE
8
BLACK
6
CONTINUOUS
10
4.08481
20
-4.83751
11
4.09044
21
-4.83189
0
LINE
8
BLACK
6
CONTINUOUS
10
4.09044
20
-4.83189
11
4.10169
21
-4.82627
0
LINE
8
BLACK
6
CONTINUOUS
10
4.10169
20
-4.82627
11
4.11856
21
-4.82627
0
LINE
8
BLACK
6
CONTINUOUS
10
4.11856
20
-4.82627
11
4.12981
21
-4.83189
0
LINE
8
BLACK
6
CONTINUOUS
10
4.12981
20
-4.83189
11
4.13543
21
-4.84314
0
LINE
8
BLACK
6
CONTINUOUS
10
4.13543
20
-4.84314
11
4.13543
21
-4.90501
0
LINE
8
BLACK
6
CONTINUOUS
10
4.13543
20
-4.84314
11
4.14106
21
-4.83189
0
LINE
8
BLACK
6
CONTINUOUS
10
4.14106
20
-4.83189
11
4.15231
21
-4.82627
0
LINE
8
BLACK
6
CONTINUOUS
10
4.15231
20
-4.82627
11
4.16918
21
-4.82627
0
LINE
8
BLACK
6
CONTINUOUS
10
4.16918
20
-4.82627
11
4.18043
21
-4.83189
0
LINE
8
BLACK
6
CONTINUOUS
10
4.18043
20
-4.83189
11
4.18605
21
-4.84314
0
LINE
8
BLACK
6
CONTINUOUS
10
4.18605
20
-4.84314
11
4.18605
21
-4.90501
0
LINE
8
BLACK
6
CONTINUOUS
10
4.24229
20
-4.90501
11
4.24229
21
-4.82627
0
LINE
8
BLACK
6
CONTINUOUS
10
4.24229
20
-4.83751
11
4.24792
21
-4.83189
0
LINE
8
BLACK
6
CONTINUOUS
10
4.24792
20
-4.83189
11
4.25917
21
-4.82627
0
LINE
8
BLACK
6
CONTINUOUS
10
4.25917
20
-4.82627
11
4.27604
21
-4.82627
0
LINE
8
BLACK
6
CONTINUOUS
10
4.27604
20
-4.82627
11
4.28729
21
-4.83189
0
LINE
8
BLACK
6
CONTINUOUS
10
4.28729
20
-4.83189
11
4.29291
21
-4.84314
0
LINE
8
BLACK
6
CONTINUOUS
10
4.29291
20
-4.84314
11
4.29291
21
-4.90501
0
LINE
8
BLACK
6
CONTINUOUS
10
4.29291
20
-4.84314
11
4.29854
21
-4.83189
0
LINE
8
BLACK
6
CONTINUOUS
10
4.29854
20
-4.83189
11
4.30979
21
-4.82627
0
LINE
8
BLACK
6
CONTINUOUS
10
4.30979
20
-4.82627
11
4.32666
21
-4.82627
0
LINE
8
BLACK
6
CONTINUOUS
10
4.32666
20
-4.82627
11
4.33791
21
-4.83189
0
LINE
8
BLACK
6
CONTINUOUS
10
4.33791
20
-4.83189
11
4.34353
21
-4.84314
0
LINE
8
BLACK
6
CONTINUOUS
10
4.34353
20
-4.84314
11
4.34353
21
-4.90501
0
LINE
8
BLACK
6
CONTINUOUS
10
4.57413
20
-4.78127
11
4.47289
21
-4.93313
0
LINE
8
BLACK
6
CONTINUOUS
10
4.72598
20
-4.7869
11
4.73723
21
-4.7869
0
LINE
8
BLACK
6
CONTINUOUS
10
4.73723
20
-4.7869
11
4.74848
21
-4.79252
0
LINE
8
BLACK
6
CONTINUOUS
10
4.74848
20
-4.79252
11
4.75411
21
-4.79814
0
LINE
8
BLACK
6
CONTINUOUS
10
4.75411
20
-4.79814
11
4.75973
21
-4.80939
0
LINE
8
BLACK
6
CONTINUOUS
10
4.75973
20
-4.80939
11
4.76535
21
-4.83189
0
LINE
8
BLACK
6
CONTINUOUS
10
4.76535
20
-4.83189
11
4.76535
21
-4.86001
0
LINE
8
BLACK
6
CONTINUOUS
10
4.76535
20
-4.86001
11
4.75973
21
-4.88251
0
LINE
8
BLACK
6
CONTINUOUS
10
4.75973
20
-4.88251
11
4.75411
21
-4.89376
0
LINE
8
BLACK
6
CONTINUOUS
10
4.75411
20
-4.89376
11
4.74848
21
-4.89938
0
LINE
8
BLACK
6
CONTINUOUS
10
4.74848
20
-4.89938
11
4.73723
21
-4.90501
0
LINE
8
BLACK
6
CONTINUOUS
10
4.73723
20
-4.90501
11
4.72598
21
-4.90501
0
LINE
8
BLACK
6
CONTINUOUS
10
4.72598
20
-4.90501
11
4.71474
21
-4.89938
0
LINE
8
BLACK
6
CONTINUOUS
10
4.71474
20
-4.89938
11
4.70911
21
-4.89376
0
LINE
8
BLACK
6
CONTINUOUS
10
4.70911
20
-4.89376
11
4.70349
21
-4.88251
0
LINE
8
BLACK
6
CONTINUOUS
10
4.70349
20
-4.88251
11
4.69786
21
-4.86001
0
LINE
8
BLACK
6
CONTINUOUS
10
4.69786
20
-4.86001
11
4.69786
21
-4.83189
0
LINE
8
BLACK
6
CONTINUOUS
10
4.69786
20
-4.83189
11
4.70349
21
-4.80939
0
LINE
8
BLACK
6
CONTINUOUS
10
4.70349
20
-4.80939
11
4.70911
21
-4.79814
0
LINE
8
BLACK
6
CONTINUOUS
10
4.70911
20
-4.79814
11
4.71474
21
-4.79252
0
LINE
8
BLACK
6
CONTINUOUS
10
4.71474
20
-4.79252
11
4.72598
21
-4.7869
0
LINE
8
BLACK
6
CONTINUOUS
10
4.81597
20
-4.89376
11
4.8216
21
-4.89938
0
LINE
8
BLACK
6
CONTINUOUS
10
4.8216
20
-4.89938
11
4.81597
21
-4.90501
0
LINE
8
BLACK
6
CONTINUOUS
10
4.81597
20
-4.90501
11
4.81035
21
-4.89938
0
LINE
8
BLACK
6
CONTINUOUS
10
4.81035
20
-4.89938
11
4.81597
21
-4.89376
0
LINE
8
BLACK
6
CONTINUOUS
10
4.81597
20
-4.89376
11
4.81597
21
-4.90501
0
LINE
8
BLACK
6
CONTINUOUS
10
4.89471
20
-4.7869
11
4.90596
21
-4.7869
0
LINE
8
BLACK
6
CONTINUOUS
10
4.90596
20
-4.7869
11
4.91721
21
-4.79252
0
LINE
8
BLACK
6
CONTINUOUS
10
4.91721
20
-4.79252
11
4.92283
21
-4.79814
0
LINE
8
BLACK
6
CONTINUOUS
10
4.92283
20
-4.79814
11
4.92846
21
-4.80939
0
LINE
8
BLACK
6
CONTINUOUS
10
4.92846
20
-4.80939
11
4.93408
21
-4.83189
0
LINE
8
BLACK
6
CONTINUOUS
10
4.93408
20
-4.83189
11
4.93408
21
-4.86001
0
LINE
8
BLACK
6
CONTINUOUS
10
4.93408
20
-4.86001
11
4.92846
21
-4.88251
0
LINE
8
BLACK
6
CONTINUOUS
10
4.92846
20
-4.88251
11
4.92283
21
-4.89376
0
LINE
8
BLACK
6
CONTINUOUS
10
4.92283
20
-4.89376
11
4.91721
21
-4.89938
0
LINE
8
BLACK
6
CONTINUOUS
10
4.91721
20
-4.89938
11
4.90596
21
-4.90501
0
LINE
8
BLACK
6
CONTINUOUS
10
4.90596
20
-4.90501
11
4.89471
21
-4.90501
0
LINE
8
BLACK
6
CONTINUOUS
10
4.89471
20
-4.90501
11
4.88346
21
-4.89938
0
LINE
8
BLACK
6
CONTINUOUS
10
4.88346
20
-4.89938
11
4.87784
21
-4.89376
0
LINE
8
BLACK
6
CONTINUOUS
10
4.87784
20
-4.89376
11
4.87222
21
-4.88251
0
LINE
8
BLACK
6
CONTINUOUS
10
4.87222
20
-4.88251
11
4.86659
21
-4.86001
0
LINE
8
BLACK
6
CONTINUOUS
10
4.86659
20
-4.86001
11
4.86659
21
-4.83189
0
LINE
8
BLACK
6
CONTINUOUS
10
4.86659
20
-4.83189
11
4.87222
21
-4.80939
0
LINE
8
BLACK
6
CONTINUOUS
10
4.87222
20
-4.80939
11
4.87784
21
-4.79814
0
LINE
8
BLACK
6
CONTINUOUS
10
4.87784
20
-4.79814
11
4.88346
21
-4.79252
0
LINE
8
BLACK
6
CONTINUOUS
10
4.88346
20
-4.79252
11
4.89471
21
-4.7869
0
LINE
8
BLACK
6
CONTINUOUS
10
5.04657
20
-4.90501
11
4.97908
21
-4.90501
0
LINE
8
BLACK
6
CONTINUOUS
10
5.01282
20
-4.90501
11
5.01282
21
-4.7869
0
LINE
8
BLACK
6
CONTINUOUS
10
5.01282
20
-4.7869
11
5.00157
21
-4.80377
0
LINE
8
BLACK
6
CONTINUOUS
10
5.00157
20
-4.80377
11
4.99033
21
-4.81502
0
LINE
8
BLACK
6
CONTINUOUS
10
4.99033
20
-4.81502
11
4.97908
21
-4.82064
0
LINE
8
BLACK
6
CONTINUOUS
10
5.14781
20
-4.7869
11
5.12531
21
-4.7869
0
LINE
8
BLACK
6
CONTINUOUS
10
5.12531
20
-4.7869
11
5.11406
21
-4.79252
0
LINE
8
BLACK
6
CONTINUOUS
10
5.11406
20
-4.79252
11
5.10844
21
-4.79814
0
LINE
8
BLACK
6
CONTINUOUS
10
5.10844
20
-4.79814
11
5.09719
21
-4.81502
0
LINE
8
BLACK
6
CONTINUOUS
10
5.09719
20
-4.81502
11
5.09156
21
-4.83751
0
LINE
8
BLACK
6
CONTINUOUS
10
5.09156
20
-4.83751
11
5.09156
21
-4.88251
0
LINE
8
BLACK
6
CONTINUOUS
10
5.09156
20
-4.88251
11
5.09719
21
-4.89376
0
LINE
8
BLACK
6
CONTINUOUS
10
5.09719
20
-4.89376
11
5.10281
21
-4.89938
0
LINE
8
BLACK
6
CONTINUOUS
10
5.10281
20
-4.89938
11
5.11406
21
-4.90501
0
LINE
8
BLACK
6
CONTINUOUS
10
5.11406
20
-4.90501
11
5.13656
21
-4.90501
0
LINE
8
BLACK
6
CONTINUOUS
10
5.13656
20
-4.90501
11
5.14781
21
-4.89938
0
LINE
8
BLACK
6
CONTINUOUS
10
5.14781
20
-4.89938
11
5.15343
21
-4.89376
0
LINE
8
BLACK
6
CONTINUOUS
10
5.15343
20
-4.89376
11
5.15906
21
-4.88251
0
LINE
8
BLACK
6
CONTINUOUS
10
5.15906
20
-4.88251
11
5.15906
21
-4.85439
0
LINE
8
BLACK
6
CONTINUOUS
10
5.15906
20
-4.85439
11
5.15343
21
-4.84314
0
LINE
8
BLACK
6
CONTINUOUS
10
5.15343
20
-4.84314
11
5.14781
21
-4.83751
0
LINE
8
BLACK
6
CONTINUOUS
10
5.14781
20
-4.83751
11
5.13656
21
-4.83189
0
LINE
8
BLACK
6
CONTINUOUS
10
5.13656
20
-4.83189
11
5.11406
21
-4.83189
0
LINE
8
BLACK
6
CONTINUOUS
10
5.11406
20
-4.83189
11
5.10281
21
-4.83751
0
LINE
8
BLACK
6
CONTINUOUS
10
5.10281
20
-4.83751
11
5.09719
21
-4.84314
0
LINE
8
BLACK
6
CONTINUOUS
10
5.09719
20
-4.84314
11
5.09156
21
-4.85439
0
LINE
8
BLACK
6
CONTINUOUS
10
5.20405
20
-4.7869
11
5.20405
21
-4.80939
0
LINE
8
BLACK
6
CONTINUOUS
10
5.24904
20
-4.7869
11
5.24904
21
-4.80939
0
LINE
8
BLACK
6
CONTINUOUS
10
5.4234
20
-4.95
11
5.41777
21
-4.94438
0
LINE
8
BLACK
6
CONTINUOUS
10
5.41777
20
-4.94438
11
5.40652
21
-4.9275
0
LINE
8
BLACK
6
CONTINUOUS
10
5.40652
20
-4.9275
11
5.4009
21
-4.91625
0
LINE
8
BLACK
6
CONTINUOUS
10
5.4009
20
-4.91625
11
5.39528
21
-4.89938
0
LINE
8
BLACK
6
CONTINUOUS
10
5.39528
20
-4.89938
11
5.38965
21
-4.87126
0
LINE
8
BLACK
6
CONTINUOUS
10
5.38965
20
-4.87126
11
5.38965
21
-4.84876
0
LINE
8
BLACK
6
CONTINUOUS
10
5.38965
20
-4.84876
11
5.39528
21
-4.82064
0
LINE
8
BLACK
6
CONTINUOUS
10
5.39528
20
-4.82064
11
5.4009
21
-4.80377
0
LINE
8
BLACK
6
CONTINUOUS
10
5.4009
20
-4.80377
11
5.40652
21
-4.79252
0
LINE
8
BLACK
6
CONTINUOUS
10
5.40652
20
-4.79252
11
5.41777
21
-4.77565
0
LINE
8
BLACK
6
CONTINUOUS
10
5.41777
20
-4.77565
11
5.4234
21
-4.77002
0
LINE
8
BLACK
6
CONTINUOUS
10
5.53026
20
-4.90501
11
5.46277
21
-4.90501
0
LINE
8
BLACK
6
CONTINUOUS
10
5.49651
20
-4.90501
11
5.49651
21
-4.7869
0
LINE
8
BLACK
6
CONTINUOUS
10
5.49651
20
-4.7869
11
5.48526
21
-4.80377
0
LINE
8
BLACK
6
CONTINUOUS
10
5.48526
20
-4.80377
11
5.47402
21
-4.81502
0
LINE
8
BLACK
6
CONTINUOUS
10
5.47402
20
-4.81502
11
5.46277
21
-4.82064
0
LINE
8
BLACK
6
CONTINUOUS
10
5.56963
20
-4.7869
11
5.64837
21
-4.7869
0
LINE
8
BLACK
6
CONTINUOUS
10
5.64837
20
-4.7869
11
5.59775
21
-4.90501
0
LINE
8
BLACK
6
CONTINUOUS
10
5.74398
20
-4.82627
11
5.74398
21
-4.90501
0
LINE
8
BLACK
6
CONTINUOUS
10
5.71586
20
-4.78127
11
5.68774
21
-4.86564
0
LINE
8
BLACK
6
CONTINUOUS
10
5.68774
20
-4.86564
11
5.76085
21
-4.86564
0
LINE
8
BLACK
6
CONTINUOUS
10
5.89584
20
-4.90501
11
5.89584
21
-4.7869
0
LINE
8
BLACK
6
CONTINUOUS
10
5.94646
20
-4.90501
11
5.94646
21
-4.84314
0
LINE
8
BLACK
6
CONTINUOUS
10
5.94646
20
-4.84314
11
5.94083
21
-4.83189
0
LINE
8
BLACK
6
CONTINUOUS
10
5.94083
20
-4.83189
11
5.92958
21
-4.82627
0
LINE
8
BLACK
6
CONTINUOUS
10
5.92958
20
-4.82627
11
5.91271
21
-4.82627
0
LINE
8
BLACK
6
CONTINUOUS
10
5.91271
20
-4.82627
11
5.90146
21
-4.83189
0
LINE
8
BLACK
6
CONTINUOUS
10
5.90146
20
-4.83189
11
5.89584
21
-4.83751
0
LINE
8
BLACK
6
CONTINUOUS
10
6.01957
20
-4.90501
11
6.00832
21
-4.89938
0
LINE
8
BLACK
6
CONTINUOUS
10
6.00832
20
-4.89938
11
6.0027
21
-4.89376
0
LINE
8
BLACK
6
CONTINUOUS
10
6.0027
20
-4.89376
11
5.99708
21
-4.88251
0
LINE
8
BLACK
6
CONTINUOUS
10
5.99708
20
-4.88251
11
5.99708
21
-4.84876
0
LINE
8
BLACK
6
CONTINUOUS
10
5.99708
20
-4.84876
11
6.0027
21
-4.83751
0
LINE
8
BLACK
6
CONTINUOUS
10
6.0027
20
-4.83751
11
6.00832
21
-4.83189
0
LINE
8
BLACK
6
CONTINUOUS
10
6.00832
20
-4.83189
11
6.01957
21
-4.82627
0
LINE
8
BLACK
6
CONTINUOUS
10
6.01957
20
-4.82627
11
6.03645
21
-4.82627
0
LINE
8
BLACK
6
CONTINUOUS
10
6.03645
20
-4.82627
11
6.04769
21
-4.83189
0
LINE
8
BLACK
6
CONTINUOUS
10
6.04769
20
-4.83189
11
6.05332
21
-4.83751
0
LINE
8
BLACK
6
CONTINUOUS
10
6.05332
20
-4.83751
11
6.05894
21
-4.84876
0
LINE
8
BLACK
6
CONTINUOUS
10
6.05894
20
-4.84876
11
6.05894
21
-4.88251
0
LINE
8
BLACK
6
CONTINUOUS
10
6.05894
20
-4.88251
11
6.05332
21
-4.89376
0
LINE
8
BLACK
6
CONTINUOUS
10
6.05332
20
-4.89376
11
6.04769
21
-4.89938
0
LINE
8
BLACK
6
CONTINUOUS
10
6.04769
20
-4.89938
11
6.03645
21
-4.90501
0
LINE
8
BLACK
6
CONTINUOUS
10
6.03645
20
-4.90501
11
6.01957
21
-4.90501
0
LINE
8
BLACK
6
CONTINUOUS
10
6.12643
20
-4.90501
11
6.11519
21
-4.89938
0
LINE
8
BLACK
6
CONTINUOUS
10
6.11519
20
-4.89938
11
6.10956
21
-4.88813
0
LINE
8
BLACK
6
CONTINUOUS
10
6.10956
20
-4.88813
11
6.10956
21
-4.7869
0
LINE
8
BLACK
6
CONTINUOUS
10
6.21642
20
-4.89938
11
6.20517
21
-4.90501
0
LINE
8
BLACK
6
CONTINUOUS
10
6.20517
20
-4.90501
11
6.18268
21
-4.90501
0
LINE
8
BLACK
6
CONTINUOUS
10
6.18268
20
-4.90501
11
6.17143
21
-4.89938
0
LINE
8
BLACK
6
CONTINUOUS
10
6.17143
20
-4.89938
11
6.1658
21
-4.88813
0
LINE
8
BLACK
6
CONTINUOUS
10
6.1658
20
-4.88813
11
6.1658
21
-4.84314
0
LINE
8
BLACK
6
CONTINUOUS
10
6.1658
20
-4.84314
11
6.17143
21
-4.83189
0
LINE
8
BLACK
6
CONTINUOUS
10
6.17143
20
-4.83189
11
6.18268
21
-4.82627
0
LINE
8
BLACK
6
CONTINUOUS
10
6.18268
20
-4.82627
11
6.20517
21
-4.82627
0
LINE
8
BLACK
6
CONTINUOUS
10
6.20517
20
-4.82627
11
6.21642
21
-4.83189
0
LINE
8
BLACK
6
CONTINUOUS
10
6.21642
20
-4.83189
11
6.22205
21
-4.84314
0
LINE
8
BLACK
6
CONTINUOUS
10
6.22205
20
-4.84314
11
6.22205
21
-4.85439
0
LINE
8
BLACK
6
CONTINUOUS
10
6.22205
20
-4.85439
11
6.1658
21
-4.86564
0
LINE
8
BLACK
6
CONTINUOUS
10
6.26704
20
-4.89938
11
6.27829
21
-4.90501
0
LINE
8
BLACK
6
CONTINUOUS
10
6.27829
20
-4.90501
11
6.30079
21
-4.90501
0
LINE
8
BLACK
6
CONTINUOUS
10
6.30079
20
-4.90501
11
6.31204
21
-4.89938
0
LINE
8
BLACK
6
CONTINUOUS
10
6.31204
20
-4.89938
11
6.31766
21
-4.88813
0
LINE
8
BLACK
6
CONTINUOUS
10
6.31766
20
-4.88813
11
6.31766
21
-4.88251
0
LINE
8
BLACK
6
CONTINUOUS
10
6.31766
20
-4.88251
11
6.31204
21
-4.87126
0
LINE
8
BLACK
6
CONTINUOUS
10
6.31204
20
-4.87126
11
6.30079
21
-4.86564
0
LINE
8
BLACK
6
CONTINUOUS
10
6.30079
20
-4.86564
11
6.28391
21
-4.86564
0
LINE
8
BLACK
6
CONTINUOUS
10
6.28391
20
-4.86564
11
6.27267
21
-4.86001
0
LINE
8
BLACK
6
CONTINUOUS
10
6.27267
20
-4.86001
11
6.26704
21
-4.84876
0
LINE
8
BLACK
6
CONTINUOUS
10
6.26704
20
-4.84876
11
6.26704
21
-4.84314
0
LINE
8
BLACK
6
CONTINUOUS
10
6.26704
20
-4.84314
11
6.27267
21
-4.83189
0
LINE
8
BLACK
6
CONTINUOUS
10
6.27267
20
-4.83189
11
6.28391
21
-4.82627
0
LINE
8
BLACK
6
CONTINUOUS
10
6.28391
20
-4.82627
11
6.30079
21
-4.82627
0
LINE
8
BLACK
6
CONTINUOUS
10
6.30079
20
-4.82627
11
6.31204
21
-4.83189
0
LINE
8
BLACK
6
CONTINUOUS
10
6.35703
20
-4.95
11
6.36265
21
-4.94438
0
LINE
8
BLACK
6
CONTINUOUS
10
6.36265
20
-4.94438
11
6.3739
21
-4.9275
0
LINE
8
BLACK
6
CONTINUOUS
10
6.3739
20
-4.9275
11
6.37953
21
-4.91625
0
LINE
8
BLACK
6
CONTINUOUS
10
6.37953
20
-4.91625
11
6.38515
21
-4.89938
0
LINE
8
BLACK
6
CONTINUOUS
10
6.38515
20
-4.89938
11
6.39078
21
-4.87126
0
LINE
8
BLACK
6
CONTINUOUS
10
6.39078
20
-4.87126
11
6.39078
21
-4.84876
0
LINE
8
BLACK
6
CONTINUOUS
10
6.39078
20
-4.84876
11
6.38515
21
-4.82064
0
LINE
8
BLACK
6
CONTINUOUS
10
6.38515
20
-4.82064
11
6.37953
21
-4.80377
0
LINE
8
BLACK
6
CONTINUOUS
10
6.37953
20
-4.80377
11
6.3739
21
-4.79252
0
LINE
8
BLACK
6
CONTINUOUS
10
6.3739
20
-4.79252
11
6.36265
21
-4.77565
0
LINE
8
BLACK
6
CONTINUOUS
10
6.36265
20
-4.77565
11
6.35703
21
-4.77002
0
CIRCLE
8
BLACK
10
3.56555
20
-5.00748
40
0.0127953
0
LINE
8
BLACK
6
CONTINUOUS
10
3.71361
20
-4.9428
11
3.72486
21
-4.9428
0
LINE
8
BLACK
6
CONTINUOUS
10
3.72486
20
-4.9428
11
3.73611
21
-4.94843
0
LINE
8
BLACK
6
CONTINUOUS
10
3.73611
20
-4.94843
11
3.74173
21
-4.95405
0
LINE
8
BLACK
6
CONTINUOUS
10
3.74173
20
-4.95405
11
3.74736
21
-4.9653
0
LINE
8
BLACK
6
CONTINUOUS
10
3.74736
20
-4.9653
11
3.75298
21
-4.9878
0
LINE
8
BLACK
6
CONTINUOUS
10
3.75298
20
-4.9878
11
3.75298
21
-5.01592
0
LINE
8
BLACK
6
CONTINUOUS
10
3.75298
20
-5.01592
11
3.74736
21
-5.03841
0
LINE
8
BLACK
6
CONTINUOUS
10
3.74736
20
-5.03841
11
3.74173
21
-5.04966
0
LINE
8
BLACK
6
CONTINUOUS
10
3.74173
20
-5.04966
11
3.73611
21
-5.05529
0
LINE
8
BLACK
6
CONTINUOUS
10
3.73611
20
-5.05529
11
3.72486
21
-5.06091
0
LINE
8
BLACK
6
CONTINUOUS
10
3.72486
20
-5.06091
11
3.71361
21
-5.06091
0
LINE
8
BLACK
6
CONTINUOUS
10
3.71361
20
-5.06091
11
3.70236
21
-5.05529
0
LINE
8
BLACK
6
CONTINUOUS
10
3.70236
20
-5.05529
11
3.69674
21
-5.04966
0
LINE
8
BLACK
6
CONTINUOUS
10
3.69674
20
-5.04966
11
3.69111
21
-5.03841
0
LINE
8
BLACK
6
CONTINUOUS
10
3.69111
20
-5.03841
11
3.68549
21
-5.01592
0
LINE
8
BLACK
6
CONTINUOUS
10
3.68549
20
-5.01592
11
3.68549
21
-4.9878
0
LINE
8
BLACK
6
CONTINUOUS
10
3.68549
20
-4.9878
11
3.69111
21
-4.9653
0
LINE
8
BLACK
6
CONTINUOUS
10
3.69111
20
-4.9653
11
3.69674
21
-4.95405
0
LINE
8
BLACK
6
CONTINUOUS
10
3.69674
20
-4.95405
11
3.70236
21
-4.94843
0
LINE
8
BLACK
6
CONTINUOUS
10
3.70236
20
-4.94843
11
3.71361
21
-4.9428
0
LINE
8
BLACK
6
CONTINUOUS
10
3.8036
20
-5.04966
11
3.80922
21
-5.05529
0
LINE
8
BLACK
6
CONTINUOUS
10
3.80922
20
-5.05529
11
3.8036
21
-5.06091
0
LINE
8
BLACK
6
CONTINUOUS
10
3.8036
20
-5.06091
11
3.79798
21
-5.05529
0
LINE
8
BLACK
6
CONTINUOUS
10
3.79798
20
-5.05529
11
3.8036
21
-5.04966
0
LINE
8
BLACK
6
CONTINUOUS
10
3.8036
20
-5.04966
11
3.8036
21
-5.06091
0
LINE
8
BLACK
6
CONTINUOUS
10
3.91046
20
-4.9428
11
3.88796
21
-4.9428
0
LINE
8
BLACK
6
CONTINUOUS
10
3.88796
20
-4.9428
11
3.87672
21
-4.94843
0
LINE
8
BLACK
6
CONTINUOUS
10
3.87672
20
-4.94843
11
3.87109
21
-4.95405
0
LINE
8
BLACK
6
CONTINUOUS
10
3.87109
20
-4.95405
11
3.85984
21
-4.97092
0
LINE
8
BLACK
6
CONTINUOUS
10
3.85984
20
-4.97092
11
3.85422
21
-4.99342
0
LINE
8
BLACK
6
CONTINUOUS
10
3.85422
20
-4.99342
11
3.85422
21
-5.03841
0
LINE
8
BLACK
6
CONTINUOUS
10
3.85422
20
-5.03841
11
3.85984
21
-5.04966
0
LINE
8
BLACK
6
CONTINUOUS
10
3.85984
20
-5.04966
11
3.86547
21
-5.05529
0
LINE
8
BLACK
6
CONTINUOUS
10
3.86547
20
-5.05529
11
3.87672
21
-5.06091
0
LINE
8
BLACK
6
CONTINUOUS
10
3.87672
20
-5.06091
11
3.89921
21
-5.06091
0
LINE
8
BLACK
6
CONTINUOUS
10
3.89921
20
-5.06091
11
3.91046
21
-5.05529
0
LINE
8
BLACK
6
CONTINUOUS
10
3.91046
20
-5.05529
11
3.91609
21
-5.04966
0
LINE
8
BLACK
6
CONTINUOUS
10
3.91609
20
-5.04966
11
3.92171
21
-5.03841
0
LINE
8
BLACK
6
CONTINUOUS
10
3.92171
20
-5.03841
11
3.92171
21
-5.01029
0
LINE
8
BLACK
6
CONTINUOUS
10
3.92171
20
-5.01029
11
3.91609
21
-4.99904
0
LINE
8
BLACK
6
CONTINUOUS
10
3.91609
20
-4.99904
11
3.91046
21
-4.99342
0
LINE
8
BLACK
6
CONTINUOUS
10
3.91046
20
-4.99342
11
3.89921
21
-4.9878
0
LINE
8
BLACK
6
CONTINUOUS
10
3.89921
20
-4.9878
11
3.87672
21
-4.9878
0
LINE
8
BLACK
6
CONTINUOUS
10
3.87672
20
-4.9878
11
3.86547
21
-4.99342
0
LINE
8
BLACK
6
CONTINUOUS
10
3.86547
20
-4.99342
11
3.85984
21
-4.99904
0
LINE
8
BLACK
6
CONTINUOUS
10
3.85984
20
-4.99904
11
3.85422
21
-5.01029
0
LINE
8
BLACK
6
CONTINUOUS
10
4.02857
20
-4.9428
11
3.97233
21
-4.9428
0
LINE
8
BLACK
6
CONTINUOUS
10
3.97233
20
-4.9428
11
3.9667
21
-4.99904
0
LINE
8
BLACK
6
CONTINUOUS
10
3.9667
20
-4.99904
11
3.97233
21
-4.99342
0
LINE
8
BLACK
6
CONTINUOUS
10
3.97233
20
-4.99342
11
3.98358
21
-4.9878
0
LINE
8
BLACK
6
CONTINUOUS
10
3.98358
20
-4.9878
11
4.0117
21
-4.9878
0
LINE
8
BLACK
6
CONTINUOUS
10
4.0117
20
-4.9878
11
4.02295
21
-4.99342
0
LINE
8
BLACK
6
CONTINUOUS
10
4.02295
20
-4.99342
11
4.02857
21
-4.99904
0
LINE
8
BLACK
6
CONTINUOUS
10
4.02857
20
-4.99904
11
4.0342
21
-5.01029
0
LINE
8
BLACK
6
CONTINUOUS
10
4.0342
20
-5.01029
11
4.0342
21
-5.03841
0
LINE
8
BLACK
6
CONTINUOUS
10
4.0342
20
-5.03841
11
4.02857
21
-5.04966
0
LINE
8
BLACK
6
CONTINUOUS
10
4.02857
20
-5.04966
11
4.02295
21
-5.05529
0
LINE
8
BLACK
6
CONTINUOUS
10
4.02295
20
-5.05529
11
4.0117
21
-5.06091
0
LINE
8
BLACK
6
CONTINUOUS
10
4.0117
20
-5.06091
11
3.98358
21
-5.06091
0
LINE
8
BLACK
6
CONTINUOUS
10
3.98358
20
-5.06091
11
3.97233
21
-5.05529
0
LINE
8
BLACK
6
CONTINUOUS
10
3.97233
20
-5.05529
11
3.9667
21
-5.04966
0
LINE
8
BLACK
6
CONTINUOUS
10
4.08481
20
-5.06091
11
4.08481
21
-4.98217
0
LINE
8
BLACK
6
CONTINUOUS
10
4.08481
20
-4.99342
11
4.09044
21
-4.9878
0
LINE
8
BLACK
6
CONTINUOUS
10
4.09044
20
-4.9878
11
4.10169
21
-4.98217
0
LINE
8
BLACK
6
CONTINUOUS
10
4.10169
20
-4.98217
11
4.11856
21
-4.98217
0
LINE
8
BLACK
6
CONTINUOUS
10
4.11856
20
-4.98217
11
4.12981
21
-4.9878
0
LINE
8
BLACK
6
CONTINUOUS
10
4.12981
20
-4.9878
11
4.13543
21
-4.99904
0
LINE
8
BLACK
6
CONTINUOUS
10
4.13543
20
-4.99904
11
4.13543
21
-5.06091
0
LINE
8
BLACK
6
CONTINUOUS
10
4.13543
20
-4.99904
11
4.14106
21
-4.9878
0
LINE
8
BLACK
6
CONTINUOUS
10
4.14106
20
-4.9878
11
4.15231
21
-4.98217
0
LINE
8
BLACK
6
CONTINUOUS
10
4.15231
20
-4.98217
11
4.16918
21
-4.98217
0
LINE
8
BLACK
6
CONTINUOUS
10
4.16918
20
-4.98217
11
4.18043
21
-4.9878
0
LINE
8
BLACK
6
CONTINUOUS
10
4.18043
20
-4.9878
11
4.18605
21
-4.99904
0
LINE
8
BLACK
6
CONTINUOUS
10
4.18605
20
-4.99904
11
4.18605
21
-5.06091
0
LINE
8
BLACK
6
CONTINUOUS
10
4.24229
20
-5.06091
11
4.24229
21
-4.98217
0
LINE
8
BLACK
6
CONTINUOUS
10
4.24229
20
-4.99342
11
4.24792
21
-4.9878
0
LINE
8
BLACK
6
CONTINUOUS
10
4.24792
20
-4.9878
11
4.25917
21
-4.98217
0
LINE
8
BLACK
6
CONTINUOUS
10
4.25917
20
-4.98217
11
4.27604
21
-4.98217
0
LINE
8
BLACK
6
CONTINUOUS
10
4.27604
20
-4.98217
11
4.28729
21
-4.9878
0
LINE
8
BLACK
6
CONTINUOUS
10
4.28729
20
-4.9878
11
4.29291
21
-4.99904
0
LINE
8
BLACK
6
CONTINUOUS
10
4.29291
20
-4.99904
11
4.29291
21
-5.06091
0
LINE
8
BLACK
6
CONTINUOUS
10
4.29291
20
-4.99904
11
4.29854
21
-4.9878
0
LINE
8
BLACK
6
CONTINUOUS
10
4.29854
20
-4.9878
11
4.30979
21
-4.98217
0
LINE
8
BLACK
6
CONTINUOUS
10
4.30979
20
-4.98217
11
4.32666
21
-4.98217
0
LINE
8
BLACK
6
CONTINUOUS
10
4.32666
20
-4.98217
11
4.33791
21
-4.9878
0
LINE
8
BLACK
6
CONTINUOUS
10
4.33791
20
-4.9878
11
4.34353
21
-4.99904
0
LINE
8
BLACK
6
CONTINUOUS
10
4.34353
20
-4.99904
11
4.34353
21
-5.06091
0
LINE
8
BLACK
6
CONTINUOUS
10
4.57413
20
-4.93718
11
4.47289
21
-5.08903
0
LINE
8
BLACK
6
CONTINUOUS
10
4.72598
20
-4.9428
11
4.73723
21
-4.9428
0
LINE
8
BLACK
6
CONTINUOUS
10
4.73723
20
-4.9428
11
4.74848
21
-4.94843
0
LINE
8
BLACK
6
CONTINUOUS
10
4.74848
20
-4.94843
11
4.75411
21
-4.95405
0
LINE
8
BLACK
6
CONTINUOUS
10
4.75411
20
-4.95405
11
4.75973
21
-4.9653
0
LINE
8
BLACK
6
CONTINUOUS
10
4.75973
20
-4.9653
11
4.76535
21
-4.9878
0
LINE
8
BLACK
6
CONTINUOUS
10
4.76535
20
-4.9878
11
4.76535
21
-5.01592
0
LINE
8
BLACK
6
CONTINUOUS
10
4.76535
20
-5.01592
11
4.75973
21
-5.03841
0
LINE
8
BLACK
6
CONTINUOUS
10
4.75973
20
-5.03841
11
4.75411
21
-5.04966
0
LINE
8
BLACK
6
CONTINUOUS
10
4.75411
20
-5.04966
11
4.74848
21
-5.05529
0
LINE
8
BLACK
6
CONTINUOUS
10
4.74848
20
-5.05529
11
4.73723
21
-5.06091
0
LINE
8
BLACK
6
CONTINUOUS
10
4.73723
20
-5.06091
11
4.72598
21
-5.06091
0
LINE
8
BLACK
6
CONTINUOUS
10
4.72598
20
-5.06091
11
4.71474
21
-5.05529
0
LINE
8
BLACK
6
CONTINUOUS
10
4.71474
20
-5.05529
11
4.70911
21
-5.04966
0
LINE
8
BLACK
6
CONTINUOUS
10
4.70911
20
-5.04966
11
4.70349
21
-5.03841
0
LINE
8
BLACK
6
CONTINUOUS
10
4.70349
20
-5.03841
11
4.69786
21
-5.01592
0
LINE
8
BLACK
6
CONTINUOUS
10
4.69786
20
-5.01592
11
4.69786
21
-4.9878
0
LINE
8
BLACK
6
CONTINUOUS
10
4.69786
20
-4.9878
11
4.70349
21
-4.9653
0
LINE
8
BLACK
6
CONTINUOUS
10
4.70349
20
-4.9653
11
4.70911
21
-4.95405
0
LINE
8
BLACK
6
CONTINUOUS
10
4.70911
20
-4.95405
11
4.71474
21
-4.94843
0
LINE
8
BLACK
6
CONTINUOUS
10
4.71474
20
-4.94843
11
4.72598
21
-4.9428
0
LINE
8
BLACK
6
CONTINUOUS
10
4.81597
20
-5.04966
11
4.8216
21
-5.05529
0
LINE
8
BLACK
6
CONTINUOUS
10
4.8216
20
-5.05529
11
4.81597
21
-5.06091
0
LINE
8
BLACK
6
CONTINUOUS
10
4.81597
20
-5.06091
11
4.81035
21
-5.05529
0
LINE
8
BLACK
6
CONTINUOUS
10
4.81035
20
-5.05529
11
4.81597
21
-5.04966
0
LINE
8
BLACK
6
CONTINUOUS
10
4.81597
20
-5.04966
11
4.81597
21
-5.06091
0
LINE
8
BLACK
6
CONTINUOUS
10
4.89471
20
-4.9428
11
4.90596
21
-4.9428
0
LINE
8
BLACK
6
CONTINUOUS
10
4.90596
20
-4.9428
11
4.91721
21
-4.94843
0
LINE
8
BLACK
6
CONTINUOUS
10
4.91721
20
-4.94843
11
4.92283
21
-4.95405
0
LINE
8
BLACK
6
CONTINUOUS
10
4.92283
20
-4.95405
11
4.92846
21
-4.9653
0
LINE
8
BLACK
6
CONTINUOUS
10
4.92846
20
-4.9653
11
4.93408
21
-4.9878
0
LINE
8
BLACK
6
CONTINUOUS
10
4.93408
20
-4.9878
11
4.93408
21
-5.01592
0
LINE
8
BLACK
6
CONTINUOUS
10
4.93408
20
-5.01592
11
4.92846
21
-5.03841
0
LINE
8
BLACK
6
CONTINUOUS
10
4.92846
20
-5.03841
11
4.92283
21
-5.04966
0
LINE
8
BLACK
6
CONTINUOUS
10
4.92283
20
-5.04966
11
4.91721
21
-5.05529
0
LINE
8
BLACK
6
CONTINUOUS
10
4.91721
20
-5.05529
11
4.90596
21
-5.06091
0
LINE
8
BLACK
6
CONTINUOUS
10
4.90596
20
-5.06091
11
4.89471
21
-5.06091
0
LINE
8
BLACK
6
CONTINUOUS
10
4.89471
20
-5.06091
11
4.88346
21
-5.05529
0
LINE
8
BLACK
6
CONTINUOUS
10
4.88346
20
-5.05529
11
4.87784
21
-5.04966
0
LINE
8
BLACK
6
CONTINUOUS
10
4.87784
20
-5.04966
11
4.87222
21
-5.03841
0
LINE
8
BLACK
6
CONTINUOUS
10
4.87222
20
-5.03841
11
4.86659
21
-5.01592
0
LINE
8
BLACK
6
CONTINUOUS
10
4.86659
20
-5.01592
11
4.86659
21
-4.9878
0
LINE
8
BLACK
6
CONTINUOUS
10
4.86659
20
-4.9878
11
4.87222
21
-4.9653
0
LINE
8
BLACK
6
CONTINUOUS
10
4.87222
20
-4.9653
11
4.87784
21
-4.95405
0
LINE
8
BLACK
6
CONTINUOUS
10
4.87784
20
-4.95405
11
4.88346
21
-4.94843
0
LINE
8
BLACK
6
CONTINUOUS
10
4.88346
20
-4.94843
11
4.89471
21
-4.9428
0
LINE
8
BLACK
6
CONTINUOUS
10
4.97908
20
-4.95405
11
4.9847
21
-4.94843
0
LINE
8
BLACK
6
CONTINUOUS
10
4.9847
20
-4.94843
11
4.99595
21
-4.9428
0
LINE
8
BLACK
6
CONTINUOUS
10
4.99595
20
-4.9428
11
5.02407
21
-4.9428
0
LINE
8
BLACK
6
CONTINUOUS
10
5.02407
20
-4.9428
11
5.03532
21
-4.94843
0
LINE
8
BLACK
6
CONTINUOUS
10
5.03532
20
-4.94843
11
5.04094
21
-4.95405
0
LINE
8
BLACK
6
CONTINUOUS
10
5.04094
20
-4.95405
11
5.04657
21
-4.9653
0
LINE
8
BLACK
6
CONTINUOUS
10
5.04657
20
-4.9653
11
5.04657
21
-4.97655
0
LINE
8
BLACK
6
CONTINUOUS
10
5.04657
20
-4.97655
11
5.04094
21
-4.99342
0
LINE
8
BLACK
6
CONTINUOUS
10
5.04094
20
-4.99342
11
4.97345
21
-5.06091
0
LINE
8
BLACK
6
CONTINUOUS
10
4.97345
20
-5.06091
11
5.04657
21
-5.06091
0
LINE
8
BLACK
6
CONTINUOUS
10
5.14781
20
-4.9428
11
5.12531
21
-4.9428
0
LINE
8
BLACK
6
CONTINUOUS
10
5.12531
20
-4.9428
11
5.11406
21
-4.94843
0
LINE
8
BLACK
6
CONTINUOUS
10
5.11406
20
-4.94843
11
5.10844
21
-4.95405
0
LINE
8
BLACK
6
CONTINUOUS
10
5.10844
20
-4.95405
11
5.09719
21
-4.97092
0
LINE
8
BLACK
6
CONTINUOUS
10
5.09719
20
-4.97092
11
5.09156
21
-4.99342
0
LINE
8
BLACK
6
CONTINUOUS
10
5.09156
20
-4.99342
11
5.09156
21
-5.03841
0
LINE
8
BLACK
6
CONTINUOUS
10
5.09156
20
-5.03841
11
5.09719
21
-5.04966
0
LINE
8
BLACK
6
CONTINUOUS
10
5.09719
20
-5.04966
11
5.10281
21
-5.05529
0
LINE
8
BLACK
6
CONTINUOUS
10
5.10281
20
-5.05529
11
5.11406
21
-5.06091
0
LINE
8
BLACK
6
CONTINUOUS
10
5.11406
20
-5.06091
11
5.13656
21
-5.06091
0
LINE
8
BLACK
6
CONTINUOUS
10
5.13656
20
-5.06091
11
5.14781
21
-5.05529
0
LINE
8
BLACK
6
CONTINUOUS
10
5.14781
20
-5.05529
11
5.15343
21
-5.04966
0
LINE
8
BLACK
6
CONTINUOUS
10
5.15343
20
-5.04966
11
5.15906
21
-5.03841
0
LINE
8
BLACK
6
CONTINUOUS
10
5.15906
20
-5.03841
11
5.15906
21
-5.01029
0
LINE
8
BLACK
6
CONTINUOUS
10
5.15906
20
-5.01029
11
5.15343
21
-4.99904
0
LINE
8
BLACK
6
CONTINUOUS
10
5.15343
20
-4.99904
11
5.14781
21
-4.99342
0
LINE
8
BLACK
6
CONTINUOUS
10
5.14781
20
-4.99342
11
5.13656
21
-4.9878
0
LINE
8
BLACK
6
CONTINUOUS
10
5.13656
20
-4.9878
11
5.11406
21
-4.9878
0
LINE
8
BLACK
6
CONTINUOUS
10
5.11406
20
-4.9878
11
5.10281
21
-4.99342
0
LINE
8
BLACK
6
CONTINUOUS
10
5.10281
20
-4.99342
11
5.09719
21
-4.99904
0
LINE
8
BLACK
6
CONTINUOUS
10
5.09719
20
-4.99904
11
5.09156
21
-5.01029
0
LINE
8
BLACK
6
CONTINUOUS
10
5.20405
20
-4.9428
11
5.20405
21
-4.9653
0
LINE
8
BLACK
6
CONTINUOUS
10
5.24904
20
-4.9428
11
5.24904
21
-4.9653
0
LINE
8
BLACK
6
CONTINUOUS
10
5.4234
20
-5.10591
11
5.41777
21
-5.10028
0
LINE
8
BLACK
6
CONTINUOUS
10
5.41777
20
-5.10028
11
5.40652
21
-5.08341
0
LINE
8
BLACK
6
CONTINUOUS
10
5.40652
20
-5.08341
11
5.4009
21
-5.07216
0
LINE
8
BLACK
6
CONTINUOUS
10
5.4009
20
-5.07216
11
5.39528
21
-5.05529
0
LINE
8
BLACK
6
CONTINUOUS
10
5.39528
20
-5.05529
11
5.38965
21
-5.02717
0
LINE
8
BLACK
6
CONTINUOUS
10
5.38965
20
-5.02717
11
5.38965
21
-5.00467
0
LINE
8
BLACK
6
CONTINUOUS
10
5.38965
20
-5.00467
11
5.39528
21
-4.97655
0
LINE
8
BLACK
6
CONTINUOUS
10
5.39528
20
-4.97655
11
5.4009
21
-4.95967
0
LINE
8
BLACK
6
CONTINUOUS
10
5.4009
20
-4.95967
11
5.40652
21
-4.94843
0
LINE
8
BLACK
6
CONTINUOUS
10
5.40652
20
-4.94843
11
5.41777
21
-4.93155
0
LINE
8
BLACK
6
CONTINUOUS
10
5.41777
20
-4.93155
11
5.4234
21
-4.92593
0
LINE
8
BLACK
6
CONTINUOUS
10
5.49089
20
-4.9428
11
5.50214
21
-4.9428
0
LINE
8
BLACK
6
CONTINUOUS
10
5.50214
20
-4.9428
11
5.51339
21
-4.94843
0
LINE
8
BLACK
6
CONTINUOUS
10
5.51339
20
-4.94843
11
5.51901
21
-4.95405
0
LINE
8
BLACK
6
CONTINUOUS
10
5.51901
20
-4.95405
11
5.52463
21
-4.9653
0
LINE
8
BLACK
6
CONTINUOUS
10
5.52463
20
-4.9653
11
5.53026
21
-4.9878
0
LINE
8
BLACK
6
CONTINUOUS
10
5.53026
20
-4.9878
11
5.53026
21
-5.01592
0
LINE
8
BLACK
6
CONTINUOUS
10
5.53026
20
-5.01592
11
5.52463
21
-5.03841
0
LINE
8
BLACK
6
CONTINUOUS
10
5.52463
20
-5.03841
11
5.51901
21
-5.04966
0
LINE
8
BLACK
6
CONTINUOUS
10
5.51901
20
-5.04966
11
5.51339
21
-5.05529
0
LINE
8
BLACK
6
CONTINUOUS
10
5.51339
20
-5.05529
11
5.50214
21
-5.06091
0
LINE
8
BLACK
6
CONTINUOUS
10
5.50214
20
-5.06091
11
5.49089
21
-5.06091
0
LINE
8
BLACK
6
CONTINUOUS
10
5.49089
20
-5.06091
11
5.47964
21
-5.05529
0
LINE
8
BLACK
6
CONTINUOUS
10
5.47964
20
-5.05529
11
5.47402
21
-5.04966
0
LINE
8
BLACK
6
CONTINUOUS
10
5.47402
20
-5.04966
11
5.46839
21
-5.03841
0
LINE
8
BLACK
6
CONTINUOUS
10
5.46839
20
-5.03841
11
5.46277
21
-5.01592
0
LINE
8
BLACK
6
CONTINUOUS
10
5.46277
20
-5.01592
11
5.46277
21
-4.9878
0
LINE
8
BLACK
6
CONTINUOUS
10
5.46277
20
-4.9878
11
5.46839
21
-4.9653
0
LINE
8
BLACK
6
CONTINUOUS
10
5.46839
20
-4.9653
11
5.47402
21
-4.95405
0
LINE
8
BLACK
6
CONTINUOUS
10
5.47402
20
-4.95405
11
5.47964
21
-4.94843
0
LINE
8
BLACK
6
CONTINUOUS
10
5.47964
20
-4.94843
11
5.49089
21
-4.9428
0
LINE
8
BLACK
6
CONTINUOUS
10
5.67087
20
-5.06091
11
5.67087
21
-4.9428
0
LINE
8
BLACK
6
CONTINUOUS
10
5.72148
20
-5.06091
11
5.72148
21
-4.99904
0
LINE
8
BLACK
6
CONTINUOUS
10
5.72148
20
-4.99904
11
5.71586
21
-4.9878
0
LINE
8
BLACK
6
CONTINUOUS
10
5.71586
20
-4.9878
11
5.70461
21
-4.98217
0
LINE
8
BLACK
6
CONTINUOUS
10
5.70461
20
-4.98217
11
5.68774
21
-4.98217
0
LINE
8
BLACK
6
CONTINUOUS
10
5.68774
20
-4.98217
11
5.67649
21
-4.9878
0
LINE
8
BLACK
6
CONTINUOUS
10
5.67649
20
-4.9878
11
5.67087
21
-4.99342
0
LINE
8
BLACK
6
CONTINUOUS
10
5.7946
20
-5.06091
11
5.78335
21
-5.05529
0
LINE
8
BLACK
6
CONTINUOUS
10
5.78335
20
-5.05529
11
5.77773
21
-5.04966
0
LINE
8
BLACK
6
CONTINUOUS
10
5.77773
20
-5.04966
11
5.7721
21
-5.03841
0
LINE
8
BLACK
6
CONTINUOUS
10
5.7721
20
-5.03841
11
5.7721
21
-5.00467
0
LINE
8
BLACK
6
CONTINUOUS
10
5.7721
20
-5.00467
11
5.77773
21
-4.99342
0
LINE
8
BLACK
6
CONTINUOUS
10
5.77773
20
-4.99342
11
5.78335
21
-4.9878
0
LINE
8
BLACK
6
CONTINUOUS
10
5.78335
20
-4.9878
11
5.7946
21
-4.98217
0
LINE
8
BLACK
6
CONTINUOUS
10
5.7946
20
-4.98217
11
5.81147
21
-4.98217
0
LINE
8
BLACK
6
CONTINUOUS
10
5.81147
20
-4.98217
11
5.82272
21
-4.9878
0
LINE
8
BLACK
6
CONTINUOUS
10
5.82272
20
-4.9878
11
5.82835
21
-4.99342
0
LINE
8
BLACK
6
CONTINUOUS
10
5.82835
20
-4.99342
11
5.83397
21
-5.00467
0
LINE
8
BLACK
6
CONTINUOUS
10
5.83397
20
-5.00467
11
5.83397
21
-5.03841
0
LINE
8
BLACK
6
CONTINUOUS
10
5.83397
20
-5.03841
11
5.82835
21
-5.04966
0
LINE
8
BLACK
6
CONTINUOUS
10
5.82835
20
-5.04966
11
5.82272
21
-5.05529
0
LINE
8
BLACK
6
CONTINUOUS
10
5.82272
20
-5.05529
11
5.81147
21
-5.06091
0
LINE
8
BLACK
6
CONTINUOUS
10
5.81147
20
-5.06091
11
5.7946
21
-5.06091
0
LINE
8
BLACK
6
CONTINUOUS
10
5.90146
20
-5.06091
11
5.89021
21
-5.05529
0
LINE
8
BLACK
6
CONTINUOUS
10
5.89021
20
-5.05529
11
5.88459
21
-5.04404
0
LINE
8
BLACK
6
CONTINUOUS
10
5.88459
20
-5.04404
11
5.88459
21
-4.9428
0
LINE
8
BLACK
6
CONTINUOUS
10
5.99145
20
-5.05529
11
5.9802
21
-5.06091
0
LINE
8
BLACK
6
CONTINUOUS
10
5.9802
20
-5.06091
11
5.95771
21
-5.06091
0
LINE
8
BLACK
6
CONTINUOUS
10
5.95771
20
-5.06091
11
5.94646
21
-5.05529
0
LINE
8
BLACK
6
CONTINUOUS
10
5.94646
20
-5.05529
11
5.94083
21
-5.04404
0
LINE
8
BLACK
6
CONTINUOUS
10
5.94083
20
-5.04404
11
5.94083
21
-4.99904
0
LINE
8
BLACK
6
CONTINUOUS
10
5.94083
20
-4.99904
11
5.94646
21
-4.9878
0
LINE
8
BLACK
6
CONTINUOUS
10
5.94646
20
-4.9878
11
5.95771
21
-4.98217
0
LINE
8
BLACK
6
CONTINUOUS
10
5.95771
20
-4.98217
11
5.9802
21
-4.98217
0
LINE
8
BLACK
6
CONTINUOUS
10
5.9802
20
-4.98217
11
5.99145
21
-4.9878
0
LINE
8
BLACK
6
CONTINUOUS
10
5.99145
20
-4.9878
11
5.99708
21
-4.99904
0
LINE
8
BLACK
6
CONTINUOUS
10
5.99708
20
-4.99904
11
5.99708
21
-5.01029
0
LINE
8
BLACK
6
CONTINUOUS
10
5.99708
20
-5.01029
11
5.94083
21
-5.02154
0
LINE
8
BLACK
6
CONTINUOUS
10
6.04207
20
-5.05529
11
6.05332
21
-5.06091
0
LINE
8
BLACK
6
CONTINUOUS
10
6.05332
20
-5.06091
11
6.07582
21
-5.06091
0
LINE
8
BLACK
6
CONTINUOUS
10
6.07582
20
-5.06091
11
6.08706
21
-5.05529
0
LINE
8
BLACK
6
CONTINUOUS
10
6.08706
20
-5.05529
11
6.09269
21
-5.04404
0
LINE
8
BLACK
6
CONTINUOUS
10
6.09269
20
-5.04404
11
6.09269
21
-5.03841
0
LINE
8
BLACK
6
CONTINUOUS
10
6.09269
20
-5.03841
11
6.08706
21
-5.02717
0
LINE
8
BLACK
6
CONTINUOUS
10
6.08706
20
-5.02717
11
6.07582
21
-5.02154
0
LINE
8
BLACK
6
CONTINUOUS
10
6.07582
20
-5.02154
11
6.05894
21
-5.02154
0
LINE
8
BLACK
6
CONTINUOUS
10
6.05894
20
-5.02154
11
6.04769
21
-5.01592
0
LINE
8
BLACK
6
CONTINUOUS
10
6.04769
20
-5.01592
11
6.04207
21
-5.00467
0
LINE
8
BLACK
6
CONTINUOUS
10
6.04207
20
-5.00467
11
6.04207
21
-4.99904
0
LINE
8
BLACK
6
CONTINUOUS
10
6.04207
20
-4.99904
11
6.04769
21
-4.9878
0
LINE
8
BLACK
6
CONTINUOUS
10
6.04769
20
-4.9878
11
6.05894
21
-4.98217
0
LINE
8
BLACK
6
CONTINUOUS
10
6.05894
20
-4.98217
11
6.07582
21
-4.98217
0
LINE
8
BLACK
6
CONTINUOUS
10
6.07582
20
-4.98217
11
6.08706
21
-4.9878
0
LINE
8
BLACK
6
CONTINUOUS
10
6.2333
20
-5.01592
11
6.32328
21
-5.01592
0
LINE
8
BLACK
6
CONTINUOUS
10
6.27829
20
-5.06091
11
6.27829
21
-4.97092
0
LINE
8
BLACK
6
CONTINUOUS
10
6.46389
20
-4.95405
11
6.46952
21
-4.94843
0
LINE
8
BLACK
6
CONTINUOUS
10
6.46952
20
-4.94843
11
6.48076
21
-4.9428
0
LINE
8
BLACK
6
CONTINUOUS
10
6.48076
20
-4.9428
11
6.50889
21
-4.9428
0
LINE
8
BLACK
6
CONTINUOUS
10
6.50889
20
-4.9428
11
6.52013
21
-4.94843
0
LINE
8
BLACK
6
CONTINUOUS
10
6.52013
20
-4.94843
11
6.52576
21
-4.95405
0
LINE
8
BLACK
6
CONTINUOUS
10
6.52576
20
-4.95405
11
6.53138
21
-4.9653
0
LINE
8
BLACK
6
CONTINUOUS
10
6.53138
20
-4.9653
11
6.53138
21
-4.97655
0
LINE
8
BLACK
6
CONTINUOUS
10
6.53138
20
-4.97655
11
6.52576
21
-4.99342
0
LINE
8
BLACK
6
CONTINUOUS
10
6.52576
20
-4.99342
11
6.45827
21
-5.06091
0
LINE
8
BLACK
6
CONTINUOUS
10
6.45827
20
-5.06091
11
6.53138
21
-5.06091
0
LINE
8
BLACK
6
CONTINUOUS
10
6.66637
20
-5.05529
11
6.67762
21
-5.06091
0
LINE
8
BLACK
6
CONTINUOUS
10
6.67762
20
-5.06091
11
6.70011
21
-5.06091
0
LINE
8
BLACK
6
CONTINUOUS
10
6.70011
20
-5.06091
11
6.71136
21
-5.05529
0
LINE
8
BLACK
6
CONTINUOUS
10
6.71136
20
-5.05529
11
6.71699
21
-5.04404
0
LINE
8
BLACK
6
CONTINUOUS
10
6.71699
20
-5.04404
11
6.71699
21
-5.03841
0
LINE
8
BLACK
6
CONTINUOUS
10
6.71699
20
-5.03841
11
6.71136
21
-5.02717
0
LINE
8
BLACK
6
CONTINUOUS
10
6.71136
20
-5.02717
11
6.70011
21
-5.02154
0
LINE
8
BLACK
6
CONTINUOUS
10
6.70011
20
-5.02154
11
6.68324
21
-5.02154
0
LINE
8
BLACK
6
CONTINUOUS
10
6.68324
20
-5.02154
11
6.67199
21
-5.01592
0
LINE
8
BLACK
6
CONTINUOUS
10
6.67199
20
-5.01592
11
6.66637
21
-5.00467
0
LINE
8
BLACK
6
CONTINUOUS
10
6.66637
20
-5.00467
11
6.66637
21
-4.99904
0
LINE
8
BLACK
6
CONTINUOUS
10
6.66637
20
-4.99904
11
6.67199
21
-4.9878
0
LINE
8
BLACK
6
CONTINUOUS
10
6.67199
20
-4.9878
11
6.68324
21
-4.98217
0
LINE
8
BLACK
6
CONTINUOUS
10
6.68324
20
-4.98217
11
6.70011
21
-4.98217
0
LINE
8
BLACK
6
CONTINUOUS
10
6.70011
20
-4.98217
11
6.71136
21
-4.9878
0
LINE
8
BLACK
6
CONTINUOUS
10
6.78448
20
-5.06091
11
6.77323
21
-5.05529
0
LINE
8
BLACK
6
CONTINUOUS
10
6.77323
20
-5.05529
11
6.7676
21
-5.04404
0
LINE
8
BLACK
6
CONTINUOUS
10
6.7676
20
-5.04404
11
6.7676
21
-4.9428
0
LINE
8
BLACK
6
CONTINUOUS
10
6.84634
20
-5.06091
11
6.8351
21
-5.05529
0
LINE
8
BLACK
6
CONTINUOUS
10
6.8351
20
-5.05529
11
6.82947
21
-5.04966
0
LINE
8
BLACK
6
CONTINUOUS
10
6.82947
20
-5.04966
11
6.82385
21
-5.03841
0
LINE
8
BLACK
6
CONTINUOUS
10
6.82385
20
-5.03841
11
6.82385
21
-5.00467
0
LINE
8
BLACK
6
CONTINUOUS
10
6.82385
20
-5.00467
11
6.82947
21
-4.99342
0
LINE
8
BLACK
6
CONTINUOUS
10
6.82947
20
-4.99342
11
6.8351
21
-4.9878
0
LINE
8
BLACK
6
CONTINUOUS
10
6.8351
20
-4.9878
11
6.84634
21
-4.98217
0
LINE
8
BLACK
6
CONTINUOUS
10
6.84634
20
-4.98217
11
6.86322
21
-4.98217
0
LINE
8
BLACK
6
CONTINUOUS
10
6.86322
20
-4.98217
11
6.87447
21
-4.9878
0
LINE
8
BLACK
6
CONTINUOUS
10
6.87447
20
-4.9878
11
6.88009
21
-4.99342
0
LINE
8
BLACK
6
CONTINUOUS
10
6.88009
20
-4.99342
11
6.88571
21
-5.00467
0
LINE
8
BLACK
6
CONTINUOUS
10
6.88571
20
-5.00467
11
6.88571
21
-5.03841
0
LINE
8
BLACK
6
CONTINUOUS
10
6.88571
20
-5.03841
11
6.88009
21
-5.04966
0
LINE
8
BLACK
6
CONTINUOUS
10
6.88009
20
-5.04966
11
6.87447
21
-5.05529
0
LINE
8
BLACK
6
CONTINUOUS
10
6.87447
20
-5.05529
11
6.86322
21
-5.06091
0
LINE
8
BLACK
6
CONTINUOUS
10
6.86322
20
-5.06091
11
6.84634
21
-5.06091
0
LINE
8
BLACK
6
CONTINUOUS
10
6.91946
20
-4.98217
11
6.96445
21
-4.98217
0
LINE
8
BLACK
6
CONTINUOUS
10
6.93633
20
-4.9428
11
6.93633
21
-5.04404
0
LINE
8
BLACK
6
CONTINUOUS
10
6.93633
20
-5.04404
11
6.94196
21
-5.05529
0
LINE
8
BLACK
6
CONTINUOUS
10
6.94196
20
-5.05529
11
6.95321
21
-5.06091
0
LINE
8
BLACK
6
CONTINUOUS
10
6.95321
20
-5.06091
11
6.96445
21
-5.06091
0
LINE
8
BLACK
6
CONTINUOUS
10
6.9982
20
-5.05529
11
7.00945
21
-5.06091
0
LINE
8
BLACK
6
CONTINUOUS
10
7.00945
20
-5.06091
11
7.03195
21
-5.06091
0
LINE
8
BLACK
6
CONTINUOUS
10
7.03195
20
-5.06091
11
7.04319
21
-5.05529
0
LINE
8
BLACK
6
CONTINUOUS
10
7.04319
20
-5.05529
11
7.04882
21
-5.04404
0
LINE
8
BLACK
6
CONTINUOUS
10
7.04882
20
-5.04404
11
7.04882
21
-5.03841
0
LINE
8
BLACK
6
CONTINUOUS
10
7.04882
20
-5.03841
11
7.04319
21
-5.02717
0
LINE
8
BLACK
6
CONTINUOUS
10
7.04319
20
-5.02717
11
7.03195
21
-5.02154
0
LINE
8
BLACK
6
CONTINUOUS
10
7.03195
20
-5.02154
11
7.01507
21
-5.02154
0
LINE
8
BLACK
6
CONTINUOUS
10
7.01507
20
-5.02154
11
7.00382
21
-5.01592
0
LINE
8
BLACK
6
CONTINUOUS
10
7.00382
20
-5.01592
11
6.9982
21
-5.00467
0
LINE
8
BLACK
6
CONTINUOUS
10
6.9982
20
-5.00467
11
6.9982
21
-4.99904
0
LINE
8
BLACK
6
CONTINUOUS
10
6.9982
20
-4.99904
11
7.00382
21
-4.9878
0
LINE
8
BLACK
6
CONTINUOUS
10
7.00382
20
-4.9878
11
7.01507
21
-4.98217
0
LINE
8
BLACK
6
CONTINUOUS
10
7.01507
20
-4.98217
11
7.03195
21
-4.98217
0
LINE
8
BLACK
6
CONTINUOUS
10
7.03195
20
-4.98217
11
7.04319
21
-4.9878
0
LINE
8
BLACK
6
CONTINUOUS
10
7.08819
20
-5.10591
11
7.09381
21
-5.10028
0
LINE
8
BLACK
6
CONTINUOUS
10
7.09381
20
-5.10028
11
7.10506
21
-5.08341
0
LINE
8
BLACK
6
CONTINUOUS
10
7.10506
20
-5.08341
11
7.11069
21
-5.07216
0
LINE
8
BLACK
6
CONTINUOUS
10
7.11069
20
-5.07216
11
7.11631
21
-5.05529
0
LINE
8
BLACK
6
CONTINUOUS
10
7.11631
20
-5.05529
11
7.12193
21
-5.02717
0
LINE
8
BLACK
6
CONTINUOUS
10
7.12193
20
-5.02717
11
7.12193
21
-5.00467
0
LINE
8
BLACK
6
CONTINUOUS
10
7.12193
20
-5.00467
11
7.11631
21
-4.97655
0
LINE
8
BLACK
6
CONTINUOUS
10
7.11631
20
-4.97655
11
7.11069
21
-4.95967
0
LINE
8
BLACK
6
CONTINUOUS
10
7.11069
20
-4.95967
11
7.10506
21
-4.94843
0
LINE
8
BLACK
6
CONTINUOUS
10
7.10506
20
-4.94843
11
7.09381
21
-4.93155
0
LINE
8
BLACK
6
CONTINUOUS
10
7.09381
20
-4.93155
11
7.08819
21
-4.92593
0
LINE
8
BLACK
6
CONTINUOUS
10
3.56211
20
-5.14715
11
3.56211
21
-5.17963
0
LINE
8
BLACK
6
CONTINUOUS
10
3.54587
20
-5.16339
11
3.57835
21
-5.16339
0
LINE
8
BLACK
6
CONTINUOUS
10
3.71361
20
-5.09871
11
3.72486
21
-5.09871
0
LINE
8
BLACK
6
CONTINUOUS
10
3.72486
20
-5.09871
11
3.73611
21
-5.10433
0
LINE
8
BLACK
6
CONTINUOUS
10
3.73611
20
-5.10433
11
3.74173
21
-5.10996
0
LINE
8
BLACK
6
CONTINUOUS
10
3.74173
20
-5.10996
11
3.74736
21
-5.1212
0
LINE
8
BLACK
6
CONTINUOUS
10
3.74736
20
-5.1212
11
3.75298
21
-5.1437
0
LINE
8
BLACK
6
CONTINUOUS
10
3.75298
20
-5.1437
11
3.75298
21
-5.17182
0
LINE
8
BLACK
6
CONTINUOUS
10
3.75298
20
-5.17182
11
3.74736
21
-5.19432
0
LINE
8
BLACK
6
CONTINUOUS
10
3.74736
20
-5.19432
11
3.74173
21
-5.20557
0
LINE
8
BLACK
6
CONTINUOUS
10
3.74173
20
-5.20557
11
3.73611
21
-5.21119
0
LINE
8
BLACK
6
CONTINUOUS
10
3.73611
20
-5.21119
11
3.72486
21
-5.21682
0
LINE
8
BLACK
6
CONTINUOUS
10
3.72486
20
-5.21682
11
3.71361
21
-5.21682
0
LINE
8
BLACK
6
CONTINUOUS
10
3.71361
20
-5.21682
11
3.70236
21
-5.21119
0
LINE
8
BLACK
6
CONTINUOUS
10
3.70236
20
-5.21119
11
3.69674
21
-5.20557
0
LINE
8
BLACK
6
CONTINUOUS
10
3.69674
20
-5.20557
11
3.69111
21
-5.19432
0
LINE
8
BLACK
6
CONTINUOUS
10
3.69111
20
-5.19432
11
3.68549
21
-5.17182
0
LINE
8
BLACK
6
CONTINUOUS
10
3.68549
20
-5.17182
11
3.68549
21
-5.1437
0
LINE
8
BLACK
6
CONTINUOUS
10
3.68549
20
-5.1437
11
3.69111
21
-5.1212
0
LINE
8
BLACK
6
CONTINUOUS
10
3.69111
20
-5.1212
11
3.69674
21
-5.10996
0
LINE
8
BLACK
6
CONTINUOUS
10
3.69674
20
-5.10996
11
3.70236
21
-5.10433
0
LINE
8
BLACK
6
CONTINUOUS
10
3.70236
20
-5.10433
11
3.71361
21
-5.09871
0
LINE
8
BLACK
6
CONTINUOUS
10
3.8036
20
-5.20557
11
3.80922
21
-5.21119
0
LINE
8
BLACK
6
CONTINUOUS
10
3.80922
20
-5.21119
11
3.8036
21
-5.21682
0
LINE
8
BLACK
6
CONTINUOUS
10
3.8036
20
-5.21682
11
3.79798
21
-5.21119
0
LINE
8
BLACK
6
CONTINUOUS
10
3.79798
20
-5.21119
11
3.8036
21
-5.20557
0
LINE
8
BLACK
6
CONTINUOUS
10
3.8036
20
-5.20557
11
3.8036
21
-5.21682
0
LINE
8
BLACK
6
CONTINUOUS
10
3.87672
20
-5.14933
11
3.86547
21
-5.1437
0
LINE
8
BLACK
6
CONTINUOUS
10
3.86547
20
-5.1437
11
3.85984
21
-5.13808
0
LINE
8
BLACK
6
CONTINUOUS
10
3.85984
20
-5.13808
11
3.85422
21
-5.12683
0
LINE
8
BLACK
6
CONTINUOUS
10
3.85422
20
-5.12683
11
3.85422
21
-5.1212
0
LINE
8
BLACK
6
CONTINUOUS
10
3.85422
20
-5.1212
11
3.85984
21
-5.10996
0
LINE
8
BLACK
6
CONTINUOUS
10
3.85984
20
-5.10996
11
3.86547
21
-5.10433
0
LINE
8
BLACK
6
CONTINUOUS
10
3.86547
20
-5.10433
11
3.87672
21
-5.09871
0
LINE
8
BLACK
6
CONTINUOUS
10
3.87672
20
-5.09871
11
3.89921
21
-5.09871
0
LINE
8
BLACK
6
CONTINUOUS
10
3.89921
20
-5.09871
11
3.91046
21
-5.10433
0
LINE
8
BLACK
6
CONTINUOUS
10
3.91046
20
-5.10433
11
3.91609
21
-5.10996
0
LINE
8
BLACK
6
CONTINUOUS
10
3.91609
20
-5.10996
11
3.92171
21
-5.1212
0
LINE
8
BLACK
6
CONTINUOUS
10
3.92171
20
-5.1212
11
3.92171
21
-5.12683
0
LINE
8
BLACK
6
CONTINUOUS
10
3.92171
20
-5.12683
11
3.91609
21
-5.13808
0
LINE
8
BLACK
6
CONTINUOUS
10
3.91609
20
-5.13808
11
3.91046
21
-5.1437
0
LINE
8
BLACK
6
CONTINUOUS
10
3.91046
20
-5.1437
11
3.89921
21
-5.14933
0
LINE
8
BLACK
6
CONTINUOUS
10
3.89921
20
-5.14933
11
3.87672
21
-5.14933
0
LINE
8
BLACK
6
CONTINUOUS
10
3.87672
20
-5.14933
11
3.86547
21
-5.15495
0
LINE
8
BLACK
6
CONTINUOUS
10
3.86547
20
-5.15495
11
3.85984
21
-5.16057
0
LINE
8
BLACK
6
CONTINUOUS
10
3.85984
20
-5.16057
11
3.85422
21
-5.17182
0
LINE
8
BLACK
6
CONTINUOUS
10
3.85422
20
-5.17182
11
3.85422
21
-5.19432
0
LINE
8
BLACK
6
CONTINUOUS
10
3.85422
20
-5.19432
11
3.85984
21
-5.20557
0
LINE
8
BLACK
6
CONTINUOUS
10
3.85984
20
-5.20557
11
3.86547
21
-5.21119
0
LINE
8
BLACK
6
CONTINUOUS
10
3.86547
20
-5.21119
11
3.87672
21
-5.21682
0
LINE
8
BLACK
6
CONTINUOUS
10
3.87672
20
-5.21682
11
3.89921
21
-5.21682
0
LINE
8
BLACK
6
CONTINUOUS
10
3.89921
20
-5.21682
11
3.91046
21
-5.21119
0
LINE
8
BLACK
6
CONTINUOUS
10
3.91046
20
-5.21119
11
3.91609
21
-5.20557
0
LINE
8
BLACK
6
CONTINUOUS
10
3.91609
20
-5.20557
11
3.92171
21
-5.19432
0
LINE
8
BLACK
6
CONTINUOUS
10
3.92171
20
-5.19432
11
3.92171
21
-5.17182
0
LINE
8
BLACK
6
CONTINUOUS
10
3.92171
20
-5.17182
11
3.91609
21
-5.16057
0
LINE
8
BLACK
6
CONTINUOUS
10
3.91609
20
-5.16057
11
3.91046
21
-5.15495
0
LINE
8
BLACK
6
CONTINUOUS
10
3.91046
20
-5.15495
11
3.89921
21
-5.14933
0
LINE
8
BLACK
6
CONTINUOUS
10
3.9667
20
-5.10996
11
3.97233
21
-5.10433
0
LINE
8
BLACK
6
CONTINUOUS
10
3.97233
20
-5.10433
11
3.98358
21
-5.09871
0
LINE
8
BLACK
6
CONTINUOUS
10
3.98358
20
-5.09871
11
4.0117
21
-5.09871
0
LINE
8
BLACK
6
CONTINUOUS
10
4.0117
20
-5.09871
11
4.02295
21
-5.10433
0
LINE
8
BLACK
6
CONTINUOUS
10
4.02295
20
-5.10433
11
4.02857
21
-5.10996
0
LINE
8
BLACK
6
CONTINUOUS
10
4.02857
20
-5.10996
11
4.0342
21
-5.1212
0
LINE
8
BLACK
6
CONTINUOUS
10
4.0342
20
-5.1212
11
4.0342
21
-5.13245
0
LINE
8
BLACK
6
CONTINUOUS
10
4.0342
20
-5.13245
11
4.02857
21
-5.14933
0
LINE
8
BLACK
6
CONTINUOUS
10
4.02857
20
-5.14933
11
3.96108
21
-5.21682
0
LINE
8
BLACK
6
CONTINUOUS
10
3.96108
20
-5.21682
11
4.0342
21
-5.21682
0
LINE
8
BLACK
6
CONTINUOUS
10
4.08481
20
-5.21682
11
4.08481
21
-5.13808
0
LINE
8
BLACK
6
CONTINUOUS
10
4.08481
20
-5.14933
11
4.09044
21
-5.1437
0
LINE
8
BLACK
6
CONTINUOUS
10
4.09044
20
-5.1437
11
4.10169
21
-5.13808
0
LINE
8
BLACK
6
CONTINUOUS
10
4.10169
20
-5.13808
11
4.11856
21
-5.13808
0
LINE
8
BLACK
6
CONTINUOUS
10
4.11856
20
-5.13808
11
4.12981
21
-5.1437
0
LINE
8
BLACK
6
CONTINUOUS
10
4.12981
20
-5.1437
11
4.13543
21
-5.15495
0
LINE
8
BLACK
6
CONTINUOUS
10
4.13543
20
-5.15495
11
4.13543
21
-5.21682
0
LINE
8
BLACK
6
CONTINUOUS
10
4.13543
20
-5.15495
11
4.14106
21
-5.1437
0
LINE
8
BLACK
6
CONTINUOUS
10
4.14106
20
-5.1437
11
4.15231
21
-5.13808
0
LINE
8
BLACK
6
CONTINUOUS
10
4.15231
20
-5.13808
11
4.16918
21
-5.13808
0
LINE
8
BLACK
6
CONTINUOUS
10
4.16918
20
-5.13808
11
4.18043
21
-5.1437
0
LINE
8
BLACK
6
CONTINUOUS
10
4.18043
20
-5.1437
11
4.18605
21
-5.15495
0
LINE
8
BLACK
6
CONTINUOUS
10
4.18605
20
-5.15495
11
4.18605
21
-5.21682
0
LINE
8
BLACK
6
CONTINUOUS
10
4.24229
20
-5.21682
11
4.24229
21
-5.13808
0
LINE
8
BLACK
6
CONTINUOUS
10
4.24229
20
-5.14933
11
4.24792
21
-5.1437
0
LINE
8
BLACK
6
CONTINUOUS
10
4.24792
20
-5.1437
11
4.25917
21
-5.13808
0
LINE
8
BLACK
6
CONTINUOUS
10
4.25917
20
-5.13808
11
4.27604
21
-5.13808
0
LINE
8
BLACK
6
CONTINUOUS
10
4.27604
20
-5.13808
11
4.28729
21
-5.1437
0
LINE
8
BLACK
6
CONTINUOUS
10
4.28729
20
-5.1437
11
4.29291
21
-5.15495
0
LINE
8
BLACK
6
CONTINUOUS
10
4.29291
20
-5.15495
11
4.29291
21
-5.21682
0
LINE
8
BLACK
6
CONTINUOUS
10
4.29291
20
-5.15495
11
4.29854
21
-5.1437
0
LINE
8
BLACK
6
CONTINUOUS
10
4.29854
20
-5.1437
11
4.30979
21
-5.13808
0
LINE
8
BLACK
6
CONTINUOUS
10
4.30979
20
-5.13808
11
4.32666
21
-5.13808
0
LINE
8
BLACK
6
CONTINUOUS
10
4.32666
20
-5.13808
11
4.33791
21
-5.1437
0
LINE
8
BLACK
6
CONTINUOUS
10
4.33791
20
-5.1437
11
4.34353
21
-5.15495
0
LINE
8
BLACK
6
CONTINUOUS
10
4.34353
20
-5.15495
11
4.34353
21
-5.21682
0
LINE
8
BLACK
6
CONTINUOUS
10
4.57413
20
-5.09308
11
4.47289
21
-5.24494
0
LINE
8
BLACK
6
CONTINUOUS
10
4.72598
20
-5.09871
11
4.73723
21
-5.09871
0
LINE
8
BLACK
6
CONTINUOUS
10
4.73723
20
-5.09871
11
4.74848
21
-5.10433
0
LINE
8
BLACK
6
CONTINUOUS
10
4.74848
20
-5.10433
11
4.75411
21
-5.10996
0
LINE
8
BLACK
6
CONTINUOUS
10
4.75411
20
-5.10996
11
4.75973
21
-5.1212
0
LINE
8
BLACK
6
CONTINUOUS
10
4.75973
20
-5.1212
11
4.76535
21
-5.1437
0
LINE
8
BLACK
6
CONTINUOUS
10
4.76535
20
-5.1437
11
4.76535
21
-5.17182
0
LINE
8
BLACK
6
CONTINUOUS
10
4.76535
20
-5.17182
11
4.75973
21
-5.19432
0
LINE
8
BLACK
6
CONTINUOUS
10
4.75973
20
-5.19432
11
4.75411
21
-5.20557
0
LINE
8
BLACK
6
CONTINUOUS
10
4.75411
20
-5.20557
11
4.74848
21
-5.21119
0
LINE
8
BLACK
6
CONTINUOUS
10
4.74848
20
-5.21119
11
4.73723
21
-5.21682
0
LINE
8
BLACK
6
CONTINUOUS
10
4.73723
20
-5.21682
11
4.72598
21
-5.21682
0
LINE
8
BLACK
6
CONTINUOUS
10
4.72598
20
-5.21682
11
4.71474
21
-5.21119
0
LINE
8
BLACK
6
CONTINUOUS
10
4.71474
20
-5.21119
11
4.70911
21
-5.20557
0
LINE
8
BLACK
6
CONTINUOUS
10
4.70911
20
-5.20557
11
4.70349
21
-5.19432
0
LINE
8
BLACK
6
CONTINUOUS
10
4.70349
20
-5.19432
11
4.69786
21
-5.17182
0
LINE
8
BLACK
6
CONTINUOUS
10
4.69786
20
-5.17182
11
4.69786
21
-5.1437
0
LINE
8
BLACK
6
CONTINUOUS
10
4.69786
20
-5.1437
11
4.70349
21
-5.1212
0
LINE
8
BLACK
6
CONTINUOUS
10
4.70349
20
-5.1212
11
4.70911
21
-5.10996
0
LINE
8
BLACK
6
CONTINUOUS
10
4.70911
20
-5.10996
11
4.71474
21
-5.10433
0
LINE
8
BLACK
6
CONTINUOUS
10
4.71474
20
-5.10433
11
4.72598
21
-5.09871
0
LINE
8
BLACK
6
CONTINUOUS
10
4.81597
20
-5.20557
11
4.8216
21
-5.21119
0
LINE
8
BLACK
6
CONTINUOUS
10
4.8216
20
-5.21119
11
4.81597
21
-5.21682
0
LINE
8
BLACK
6
CONTINUOUS
10
4.81597
20
-5.21682
11
4.81035
21
-5.21119
0
LINE
8
BLACK
6
CONTINUOUS
10
4.81035
20
-5.21119
11
4.81597
21
-5.20557
0
LINE
8
BLACK
6
CONTINUOUS
10
4.81597
20
-5.20557
11
4.81597
21
-5.21682
0
LINE
8
BLACK
6
CONTINUOUS
10
4.89471
20
-5.09871
11
4.90596
21
-5.09871
0
LINE
8
BLACK
6
CONTINUOUS
10
4.90596
20
-5.09871
11
4.91721
21
-5.10433
0
LINE
8
BLACK
6
CONTINUOUS
10
4.91721
20
-5.10433
11
4.92283
21
-5.10996
0
LINE
8
BLACK
6
CONTINUOUS
10
4.92283
20
-5.10996
11
4.92846
21
-5.1212
0
LINE
8
BLACK
6
CONTINUOUS
10
4.92846
20
-5.1212
11
4.93408
21
-5.1437
0
LINE
8
BLACK
6
CONTINUOUS
10
4.93408
20
-5.1437
11
4.93408
21
-5.17182
0
LINE
8
BLACK
6
CONTINUOUS
10
4.93408
20
-5.17182
11
4.92846
21
-5.19432
0
LINE
8
BLACK
6
CONTINUOUS
10
4.92846
20
-5.19432
11
4.92283
21
-5.20557
0
LINE
8
BLACK
6
CONTINUOUS
10
4.92283
20
-5.20557
11
4.91721
21
-5.21119
0
LINE
8
BLACK
6
CONTINUOUS
10
4.91721
20
-5.21119
11
4.90596
21
-5.21682
0
LINE
8
BLACK
6
CONTINUOUS
10
4.90596
20
-5.21682
11
4.89471
21
-5.21682
0
LINE
8
BLACK
6
CONTINUOUS
10
4.89471
20
-5.21682
11
4.88346
21
-5.21119
0
LINE
8
BLACK
6
CONTINUOUS
10
4.88346
20
-5.21119
11
4.87784
21
-5.20557
0
LINE
8
BLACK
6
CONTINUOUS
10
4.87784
20
-5.20557
11
4.87222
21
-5.19432
0
LINE
8
BLACK
6
CONTINUOUS
10
4.87222
20
-5.19432
11
4.86659
21
-5.17182
0
LINE
8
BLACK
6
CONTINUOUS
10
4.86659
20
-5.17182
11
4.86659
21
-5.1437
0
LINE
8
BLACK
6
CONTINUOUS
10
4.86659
20
-5.1437
11
4.87222
21
-5.1212
0
LINE
8
BLACK
6
CONTINUOUS
10
4.87222
20
-5.1212
11
4.87784
21
-5.10996
0
LINE
8
BLACK
6
CONTINUOUS
10
4.87784
20
-5.10996
11
4.88346
21
-5.10433
0
LINE
8
BLACK
6
CONTINUOUS
10
4.88346
20
-5.10433
11
4.89471
21
-5.09871
0
LINE
8
BLACK
6
CONTINUOUS
10
4.97345
20
-5.09871
11
5.04657
21
-5.09871
0
LINE
8
BLACK
6
CONTINUOUS
10
5.04657
20
-5.09871
11
5.0072
21
-5.1437
0
LINE
8
BLACK
6
CONTINUOUS
10
5.0072
20
-5.1437
11
5.02407
21
-5.1437
0
LINE
8
BLACK
6
CONTINUOUS
10
5.02407
20
-5.1437
11
5.03532
21
-5.14933
0
LINE
8
BLACK
6
CONTINUOUS
10
5.03532
20
-5.14933
11
5.04094
21
-5.15495
0
LINE
8
BLACK
6
CONTINUOUS
10
5.04094
20
-5.15495
11
5.04657
21
-5.1662
0
LINE
8
BLACK
6
CONTINUOUS
10
5.04657
20
-5.1662
11
5.04657
21
-5.19432
0
LINE
8
BLACK
6
CONTINUOUS
10
5.04657
20
-5.19432
11
5.04094
21
-5.20557
0
LINE
8
BLACK
6
CONTINUOUS
10
5.04094
20
-5.20557
11
5.03532
21
-5.21119
0
LINE
8
BLACK
6
CONTINUOUS
10
5.03532
20
-5.21119
11
5.02407
21
-5.21682
0
LINE
8
BLACK
6
CONTINUOUS
10
5.02407
20
-5.21682
11
4.99033
21
-5.21682
0
LINE
8
BLACK
6
CONTINUOUS
10
4.99033
20
-5.21682
11
4.97908
21
-5.21119
0
LINE
8
BLACK
6
CONTINUOUS
10
4.97908
20
-5.21119
11
4.97345
21
-5.20557
0
LINE
8
BLACK
6
CONTINUOUS
10
5.09156
20
-5.10996
11
5.09719
21
-5.10433
0
LINE
8
BLACK
6
CONTINUOUS
10
5.09719
20
-5.10433
11
5.10844
21
-5.09871
0
LINE
8
BLACK
6
CONTINUOUS
10
5.10844
20
-5.09871
11
5.13656
21
-5.09871
0
LINE
8
BLACK
6
CONTINUOUS
10
5.13656
20
-5.09871
11
5.14781
21
-5.10433
0
LINE
8
BLACK
6
CONTINUOUS
10
5.14781
20
-5.10433
11
5.15343
21
-5.10996
0
LINE
8
BLACK
6
CONTINUOUS
10
5.15343
20
-5.10996
11
5.15906
21
-5.1212
0
LINE
8
BLACK
6
CONTINUOUS
10
5.15906
20
-5.1212
11
5.15906
21
-5.13245
0
LINE
8
BLACK
6
CONTINUOUS
10
5.15906
20
-5.13245
11
5.15343
21
-5.14933
0
LINE
8
BLACK
6
CONTINUOUS
10
5.15343
20
-5.14933
11
5.08594
21
-5.21682
0
LINE
8
BLACK
6
CONTINUOUS
10
5.08594
20
-5.21682
11
5.15906
21
-5.21682
0
LINE
8
BLACK
6
CONTINUOUS
10
5.20405
20
-5.09871
11
5.20405
21
-5.1212
0
LINE
8
BLACK
6
CONTINUOUS
10
5.24904
20
-5.09871
11
5.24904
21
-5.1212
0
LINE
8
BLACK
6
CONTINUOUS
10
5.4234
20
-5.26181
11
5.41777
21
-5.25619
0
LINE
8
BLACK
6
CONTINUOUS
10
5.41777
20
-5.25619
11
5.40652
21
-5.23931
0
LINE
8
BLACK
6
CONTINUOUS
10
5.40652
20
-5.23931
11
5.4009
21
-5.22807
0
LINE
8
BLACK
6
CONTINUOUS
10
5.4009
20
-5.22807
11
5.39528
21
-5.21119
0
LINE
8
BLACK
6
CONTINUOUS
10
5.39528
20
-5.21119
11
5.38965
21
-5.18307
0
LINE
8
BLACK
6
CONTINUOUS
10
5.38965
20
-5.18307
11
5.38965
21
-5.16057
0
LINE
8
BLACK
6
CONTINUOUS
10
5.38965
20
-5.16057
11
5.39528
21
-5.13245
0
LINE
8
BLACK
6
CONTINUOUS
10
5.39528
20
-5.13245
11
5.4009
21
-5.11558
0
LINE
8
BLACK
6
CONTINUOUS
10
5.4009
20
-5.11558
11
5.40652
21
-5.10433
0
LINE
8
BLACK
6
CONTINUOUS
10
5.40652
20
-5.10433
11
5.41777
21
-5.08746
0
LINE
8
BLACK
6
CONTINUOUS
10
5.41777
20
-5.08746
11
5.4234
21
-5.08183
0
LINE
8
BLACK
6
CONTINUOUS
10
5.49089
20
-5.09871
11
5.50214
21
-5.09871
0
LINE
8
BLACK
6
CONTINUOUS
10
5.50214
20
-5.09871
11
5.51339
21
-5.10433
0
LINE
8
BLACK
6
CONTINUOUS
10
5.51339
20
-5.10433
11
5.51901
21
-5.10996
0
LINE
8
BLACK
6
CONTINUOUS
10
5.51901
20
-5.10996
11
5.52463
21
-5.1212
0
LINE
8
BLACK
6
CONTINUOUS
10
5.52463
20
-5.1212
11
5.53026
21
-5.1437
0
LINE
8
BLACK
6
CONTINUOUS
10
5.53026
20
-5.1437
11
5.53026
21
-5.17182
0
LINE
8
BLACK
6
CONTINUOUS
10
5.53026
20
-5.17182
11
5.52463
21
-5.19432
0
LINE
8
BLACK
6
CONTINUOUS
10
5.52463
20
-5.19432
11
5.51901
21
-5.20557
0
LINE
8
BLACK
6
CONTINUOUS
10
5.51901
20
-5.20557
11
5.51339
21
-5.21119
0
LINE
8
BLACK
6
CONTINUOUS
10
5.51339
20
-5.21119
11
5.50214
21
-5.21682
0
LINE
8
BLACK
6
CONTINUOUS
10
5.50214
20
-5.21682
11
5.49089
21
-5.21682
0
LINE
8
BLACK
6
CONTINUOUS
10
5.49089
20
-5.21682
11
5.47964
21
-5.21119
0
LINE
8
BLACK
6
CONTINUOUS
10
5.47964
20
-5.21119
11
5.47402
21
-5.20557
0
LINE
8
BLACK
6
CONTINUOUS
10
5.47402
20
-5.20557
11
5.46839
21
-5.19432
0
LINE
8
BLACK
6
CONTINUOUS
10
5.46839
20
-5.19432
11
5.46277
21
-5.17182
0
LINE
8
BLACK
6
CONTINUOUS
10
5.46277
20
-5.17182
11
5.46277
21
-5.1437
0
LINE
8
BLACK
6
CONTINUOUS
10
5.46277
20
-5.1437
11
5.46839
21
-5.1212
0
LINE
8
BLACK
6
CONTINUOUS
10
5.46839
20
-5.1212
11
5.47402
21
-5.10996
0
LINE
8
BLACK
6
CONTINUOUS
10
5.47402
20
-5.10996
11
5.47964
21
-5.10433
0
LINE
8
BLACK
6
CONTINUOUS
10
5.47964
20
-5.10433
11
5.49089
21
-5.09871
0
LINE
8
BLACK
6
CONTINUOUS
10
5.67087
20
-5.21682
11
5.67087
21
-5.09871
0
LINE
8
BLACK
6
CONTINUOUS
10
5.72148
20
-5.21682
11
5.72148
21
-5.15495
0
LINE
8
BLACK
6
CONTINUOUS
10
5.72148
20
-5.15495
11
5.71586
21
-5.1437
0
LINE
8
BLACK
6
CONTINUOUS
10
5.71586
20
-5.1437
11
5.70461
21
-5.13808
0
LINE
8
BLACK
6
CONTINUOUS
10
5.70461
20
-5.13808
11
5.68774
21
-5.13808
0
LINE
8
BLACK
6
CONTINUOUS
10
5.68774
20
-5.13808
11
5.67649
21
-5.1437
0
LINE
8
BLACK
6
CONTINUOUS
10
5.67649
20
-5.1437
11
5.67087
21
-5.14933
0
LINE
8
BLACK
6
CONTINUOUS
10
5.7946
20
-5.21682
11
5.78335
21
-5.21119
0
LINE
8
BLACK
6
CONTINUOUS
10
5.78335
20
-5.21119
11
5.77773
21
-5.20557
0
LINE
8
BLACK
6
CONTINUOUS
10
5.77773
20
-5.20557
11
5.7721
21
-5.19432
0
LINE
8
BLACK
6
CONTINUOUS
10
5.7721
20
-5.19432
11
5.7721
21
-5.16057
0
LINE
8
BLACK
6
CONTINUOUS
10
5.7721
20
-5.16057
11
5.77773
21
-5.14933
0
LINE
8
BLACK
6
CONTINUOUS
10
5.77773
20
-5.14933
11
5.78335
21
-5.1437
0
LINE
8
BLACK
6
CONTINUOUS
10
5.78335
20
-5.1437
11
5.7946
21
-5.13808
0
LINE
8
BLACK
6
CONTINUOUS
10
5.7946
20
-5.13808
11
5.81147
21
-5.13808
0
LINE
8
BLACK
6
CONTINUOUS
10
5.81147
20
-5.13808
11
5.82272
21
-5.1437
0
LINE
8
BLACK
6
CONTINUOUS
10
5.82272
20
-5.1437
11
5.82835
21
-5.14933
0
LINE
8
BLACK
6
CONTINUOUS
10
5.82835
20
-5.14933
11
5.83397
21
-5.16057
0
LINE
8
BLACK
6
CONTINUOUS
10
5.83397
20
-5.16057
11
5.83397
21
-5.19432
0
LINE
8
BLACK
6
CONTINUOUS
10
5.83397
20
-5.19432
11
5.82835
21
-5.20557
0
LINE
8
BLACK
6
CONTINUOUS
10
5.82835
20
-5.20557
11
5.82272
21
-5.21119
0
LINE
8
BLACK
6
CONTINUOUS
10
5.82272
20
-5.21119
11
5.81147
21
-5.21682
0
LINE
8
BLACK
6
CONTINUOUS
10
5.81147
20
-5.21682
11
5.7946
21
-5.21682
0
LINE
8
BLACK
6
CONTINUOUS
10
5.90146
20
-5.21682
11
5.89021
21
-5.21119
0
LINE
8
BLACK
6
CONTINUOUS
10
5.89021
20
-5.21119
11
5.88459
21
-5.19994
0
LINE
8
BLACK
6
CONTINUOUS
10
5.88459
20
-5.19994
11
5.88459
21
-5.09871
0
LINE
8
BLACK
6
CONTINUOUS
10
5.99145
20
-5.21119
11
5.9802
21
-5.21682
0
LINE
8
BLACK
6
CONTINUOUS
10
5.9802
20
-5.21682
11
5.95771
21
-5.21682
0
LINE
8
BLACK
6
CONTINUOUS
10
5.95771
20
-5.21682
11
5.94646
21
-5.21119
0
LINE
8
BLACK
6
CONTINUOUS
10
5.94646
20
-5.21119
11
5.94083
21
-5.19994
0
LINE
8
BLACK
6
CONTINUOUS
10
5.94083
20
-5.19994
11
5.94083
21
-5.15495
0
LINE
8
BLACK
6
CONTINUOUS
10
5.94083
20
-5.15495
11
5.94646
21
-5.1437
0
LINE
8
BLACK
6
CONTINUOUS
10
5.94646
20
-5.1437
11
5.95771
21
-5.13808
0
LINE
8
BLACK
6
CONTINUOUS
10
5.95771
20
-5.13808
11
5.9802
21
-5.13808
0
LINE
8
BLACK
6
CONTINUOUS
10
5.9802
20
-5.13808
11
5.99145
21
-5.1437
0
LINE
8
BLACK
6
CONTINUOUS
10
5.99145
20
-5.1437
11
5.99708
21
-5.15495
0
LINE
8
BLACK
6
CONTINUOUS
10
5.99708
20
-5.15495
11
5.99708
21
-5.1662
0
LINE
8
BLACK
6
CONTINUOUS
10
5.99708
20
-5.1662
11
5.94083
21
-5.17745
0
LINE
8
BLACK
6
CONTINUOUS
10
6.04207
20
-5.21119
11
6.05332
21
-5.21682
0
LINE
8
BLACK
6
CONTINUOUS
10
6.05332
20
-5.21682
11
6.07582
21
-5.21682
0
LINE
8
BLACK
6
CONTINUOUS
10
6.07582
20
-5.21682
11
6.08706
21
-5.21119
0
LINE
8
BLACK
6
CONTINUOUS
10
6.08706
20
-5.21119
11
6.09269
21
-5.19994
0
LINE
8
BLACK
6
CONTINUOUS
10
6.09269
20
-5.19994
11
6.09269
21
-5.19432
0
LINE
8
BLACK
6
CONTINUOUS
10
6.09269
20
-5.19432
11
6.08706
21
-5.18307
0
LINE
8
BLACK
6
CONTINUOUS
10
6.08706
20
-5.18307
11
6.07582
21
-5.17745
0
LINE
8
BLACK
6
CONTINUOUS
10
6.07582
20
-5.17745
11
6.05894
21
-5.17745
0
LINE
8
BLACK
6
CONTINUOUS
10
6.05894
20
-5.17745
11
6.04769
21
-5.17182
0
LINE
8
BLACK
6
CONTINUOUS
10
6.04769
20
-5.17182
11
6.04207
21
-5.16057
0
LINE
8
BLACK
6
CONTINUOUS
10
6.04207
20
-5.16057
11
6.04207
21
-5.15495
0
LINE
8
BLACK
6
CONTINUOUS
10
6.04207
20
-5.15495
11
6.04769
21
-5.1437
0
LINE
8
BLACK
6
CONTINUOUS
10
6.04769
20
-5.1437
11
6.05894
21
-5.13808
0
LINE
8
BLACK
6
CONTINUOUS
10
6.05894
20
-5.13808
11
6.07582
21
-5.13808
0
LINE
8
BLACK
6
CONTINUOUS
10
6.07582
20
-5.13808
11
6.08706
21
-5.1437
0
LINE
8
BLACK
6
CONTINUOUS
10
6.2333
20
-5.17182
11
6.32328
21
-5.17182
0
LINE
8
BLACK
6
CONTINUOUS
10
6.27829
20
-5.21682
11
6.27829
21
-5.12683
0
LINE
8
BLACK
6
CONTINUOUS
10
6.46389
20
-5.10996
11
6.46952
21
-5.10433
0
LINE
8
BLACK
6
CONTINUOUS
10
6.46952
20
-5.10433
11
6.48076
21
-5.09871
0
LINE
8
BLACK
6
CONTINUOUS
10
6.48076
20
-5.09871
11
6.50889
21
-5.09871
0
LINE
8
BLACK
6
CONTINUOUS
10
6.50889
20
-5.09871
11
6.52013
21
-5.10433
0
LINE
8
BLACK
6
CONTINUOUS
10
6.52013
20
-5.10433
11
6.52576
21
-5.10996
0
LINE
8
BLACK
6
CONTINUOUS
10
6.52576
20
-5.10996
11
6.53138
21
-5.1212
0
LINE
8
BLACK
6
CONTINUOUS
10
6.53138
20
-5.1212
11
6.53138
21
-5.13245
0
LINE
8
BLACK
6
CONTINUOUS
10
6.53138
20
-5.13245
11
6.52576
21
-5.14933
0
LINE
8
BLACK
6
CONTINUOUS
10
6.52576
20
-5.14933
11
6.45827
21
-5.21682
0
LINE
8
BLACK
6
CONTINUOUS
10
6.45827
20
-5.21682
11
6.53138
21
-5.21682
0
LINE
8
BLACK
6
CONTINUOUS
10
6.66637
20
-5.21119
11
6.67762
21
-5.21682
0
LINE
8
BLACK
6
CONTINUOUS
10
6.67762
20
-5.21682
11
6.70011
21
-5.21682
0
LINE
8
BLACK
6
CONTINUOUS
10
6.70011
20
-5.21682
11
6.71136
21
-5.21119
0
LINE
8
BLACK
6
CONTINUOUS
10
6.71136
20
-5.21119
11
6.71699
21
-5.19994
0
LINE
8
BLACK
6
CONTINUOUS
10
6.71699
20
-5.19994
11
6.71699
21
-5.19432
0
LINE
8
BLACK
6
CONTINUOUS
10
6.71699
20
-5.19432
11
6.71136
21
-5.18307
0
LINE
8
BLACK
6
CONTINUOUS
10
6.71136
20
-5.18307
11
6.70011
21
-5.17745
0
LINE
8
BLACK
6
CONTINUOUS
10
6.70011
20
-5.17745
11
6.68324
21
-5.17745
0
LINE
8
BLACK
6
CONTINUOUS
10
6.68324
20
-5.17745
11
6.67199
21
-5.17182
0
LINE
8
BLACK
6
CONTINUOUS
10
6.67199
20
-5.17182
11
6.66637
21
-5.16057
0
LINE
8
BLACK
6
CONTINUOUS
10
6.66637
20
-5.16057
11
6.66637
21
-5.15495
0
LINE
8
BLACK
6
CONTINUOUS
10
6.66637
20
-5.15495
11
6.67199
21
-5.1437
0
LINE
8
BLACK
6
CONTINUOUS
10
6.67199
20
-5.1437
11
6.68324
21
-5.13808
0
LINE
8
BLACK
6
CONTINUOUS
10
6.68324
20
-5.13808
11
6.70011
21
-5.13808
0
LINE
8
BLACK
6
CONTINUOUS
10
6.70011
20
-5.13808
11
6.71136
21
-5.1437
0
LINE
8
BLACK
6
CONTINUOUS
10
6.78448
20
-5.21682
11
6.77323
21
-5.21119
0
LINE
8
BLACK
6
CONTINUOUS
10
6.77323
20
-5.21119
11
6.7676
21
-5.19994
0
LINE
8
BLACK
6
CONTINUOUS
10
6.7676
20
-5.19994
11
6.7676
21
-5.09871
0
LINE
8
BLACK
6
CONTINUOUS
10
6.84634
20
-5.21682
11
6.8351
21
-5.21119
0
LINE
8
BLACK
6
CONTINUOUS
10
6.8351
20
-5.21119
11
6.82947
21
-5.20557
0
LINE
8
BLACK
6
CONTINUOUS
10
6.82947
20
-5.20557
11
6.82385
21
-5.19432
0
LINE
8
BLACK
6
CONTINUOUS
10
6.82385
20
-5.19432
11
6.82385
21
-5.16057
0
LINE
8
BLACK
6
CONTINUOUS
10
6.82385
20
-5.16057
11
6.82947
21
-5.14933
0
LINE
8
BLACK
6
CONTINUOUS
10
6.82947
20
-5.14933
11
6.8351
21
-5.1437
0
LINE
8
BLACK
6
CONTINUOUS
10
6.8351
20
-5.1437
11
6.84634
21
-5.13808
0
LINE
8
BLACK
6
CONTINUOUS
10
6.84634
20
-5.13808
11
6.86322
21
-5.13808
0
LINE
8
BLACK
6
CONTINUOUS
10
6.86322
20
-5.13808
11
6.87447
21
-5.1437
0
LINE
8
BLACK
6
CONTINUOUS
10
6.87447
20
-5.1437
11
6.88009
21
-5.14933
0
LINE
8
BLACK
6
CONTINUOUS
10
6.88009
20
-5.14933
11
6.88571
21
-5.16057
0
LINE
8
BLACK
6
CONTINUOUS
10
6.88571
20
-5.16057
11
6.88571
21
-5.19432
0
LINE
8
BLACK
6
CONTINUOUS
10
6.88571
20
-5.19432
11
6.88009
21
-5.20557
0
LINE
8
BLACK
6
CONTINUOUS
10
6.88009
20
-5.20557
11
6.87447
21
-5.21119
0
LINE
8
BLACK
6
CONTINUOUS
10
6.87447
20
-5.21119
11
6.86322
21
-5.21682
0
LINE
8
BLACK
6
CONTINUOUS
10
6.86322
20
-5.21682
11
6.84634
21
-5.21682
0
LINE
8
BLACK
6
CONTINUOUS
10
6.91946
20
-5.13808
11
6.96445
21
-5.13808
0
LINE
8
BLACK
6
CONTINUOUS
10
6.93633
20
-5.09871
11
6.93633
21
-5.19994
0
LINE
8
BLACK
6
CONTINUOUS
10
6.93633
20
-5.19994
11
6.94196
21
-5.21119
0
LINE
8
BLACK
6
CONTINUOUS
10
6.94196
20
-5.21119
11
6.95321
21
-5.21682
0
LINE
8
BLACK
6
CONTINUOUS
10
6.95321
20
-5.21682
11
6.96445
21
-5.21682
0
LINE
8
BLACK
6
CONTINUOUS
10
6.9982
20
-5.21119
11
7.00945
21
-5.21682
0
LINE
8
BLACK
6
CONTINUOUS
10
7.00945
20
-5.21682
11
7.03195
21
-5.21682
0
LINE
8
BLACK
6
CONTINUOUS
10
7.03195
20
-5.21682
11
7.04319
21
-5.21119
0
LINE
8
BLACK
6
CONTINUOUS
10
7.04319
20
-5.21119
11
7.04882
21
-5.19994
0
LINE
8
BLACK
6
CONTINUOUS
10
7.04882
20
-5.19994
11
7.04882
21
-5.19432
0
LINE
8
BLACK
6
CONTINUOUS
10
7.04882
20
-5.19432
11
7.04319
21
-5.18307
0
LINE
8
BLACK
6
CONTINUOUS
10
7.04319
20
-5.18307
11
7.03195
21
-5.17745
0
LINE
8
BLACK
6
CONTINUOUS
10
7.03195
20
-5.17745
11
7.01507
21
-5.17745
0
LINE
8
BLACK
6
CONTINUOUS
10
7.01507
20
-5.17745
11
7.00382
21
-5.17182
0
LINE
8
BLACK
6
CONTINUOUS
10
7.00382
20
-5.17182
11
6.9982
21
-5.16057
0
LINE
8
BLACK
6
CONTINUOUS
10
6.9982
20
-5.16057
11
6.9982
21
-5.15495
0
LINE
8
BLACK
6
CONTINUOUS
10
6.9982
20
-5.15495
11
7.00382
21
-5.1437
0
LINE
8
BLACK
6
CONTINUOUS
10
7.00382
20
-5.1437
11
7.01507
21
-5.13808
0
LINE
8
BLACK
6
CONTINUOUS
10
7.01507
20
-5.13808
11
7.03195
21
-5.13808
0
LINE
8
BLACK
6
CONTINUOUS
10
7.03195
20
-5.13808
11
7.04319
21
-5.1437
0
LINE
8
BLACK
6
CONTINUOUS
10
7.08819
20
-5.26181
11
7.09381
21
-5.25619
0
LINE
8
BLACK
6
CONTINUOUS
10
7.09381
20
-5.25619
11
7.10506
21
-5.23931
0
LINE
8
BLACK
6
CONTINUOUS
10
7.10506
20
-5.23931
11
7.11069
21
-5.22807
0
LINE
8
BLACK
6
CONTINUOUS
10
7.11069
20
-5.22807
11
7.11631
21
-5.21119
0
LINE
8
BLACK
6
CONTINUOUS
10
7.11631
20
-5.21119
11
7.12193
21
-5.18307
0
LINE
8
BLACK
6
CONTINUOUS
10
7.12193
20
-5.18307
11
7.12193
21
-5.16057
0
LINE
8
BLACK
6
CONTINUOUS
10
7.12193
20
-5.16057
11
7.11631
21
-5.13245
0
LINE
8
BLACK
6
CONTINUOUS
10
7.11631
20
-5.13245
11
7.11069
21
-5.11558
0
LINE
8
BLACK
6
CONTINUOUS
10
7.11069
20
-5.11558
11
7.10506
21
-5.10433
0
LINE
8
BLACK
6
CONTINUOUS
10
7.10506
20
-5.10433
11
7.09381
21
-5.08746
0
LINE
8
BLACK
6
CONTINUOUS
10
7.09381
20
-5.08746
11
7.08819
21
-5.08183
0
LINE
8
BLACK
6
CONTINUOUS
10
3.57258
20
-5.33321
11
3.57258
21
-5.30537
0
LINE
8
BLACK
6
CONTINUOUS
10
3.57258
20
-5.30537
11
3.54474
21
-5.30537
0
LINE
8
BLACK
6
CONTINUOUS
10
3.54474
20
-5.30537
11
3.54474
21
-5.33321
0
LINE
8
BLACK
6
CONTINUOUS
10
3.54474
20
-5.33321
11
3.57258
21
-5.33321
0
LINE
8
BLACK
6
CONTINUOUS
10
3.75298
20
-5.37272
11
3.68549
21
-5.37272
0
LINE
8
BLACK
6
CONTINUOUS
10
3.71924
20
-5.37272
11
3.71924
21
-5.25461
0
LINE
8
BLACK
6
CONTINUOUS
10
3.71924
20
-5.25461
11
3.70799
21
-5.27148
0
LINE
8
BLACK
6
CONTINUOUS
10
3.70799
20
-5.27148
11
3.69674
21
-5.28273
0
LINE
8
BLACK
6
CONTINUOUS
10
3.69674
20
-5.28273
11
3.68549
21
-5.28836
0
LINE
8
BLACK
6
CONTINUOUS
10
3.8036
20
-5.36147
11
3.80922
21
-5.3671
0
LINE
8
BLACK
6
CONTINUOUS
10
3.80922
20
-5.3671
11
3.8036
21
-5.37272
0
LINE
8
BLACK
6
CONTINUOUS
10
3.8036
20
-5.37272
11
3.79798
21
-5.3671
0
LINE
8
BLACK
6
CONTINUOUS
10
3.79798
20
-5.3671
11
3.8036
21
-5.36147
0
LINE
8
BLACK
6
CONTINUOUS
10
3.8036
20
-5.36147
11
3.8036
21
-5.37272
0
LINE
8
BLACK
6
CONTINUOUS
10
3.88234
20
-5.25461
11
3.89359
21
-5.25461
0
LINE
8
BLACK
6
CONTINUOUS
10
3.89359
20
-5.25461
11
3.90484
21
-5.26024
0
LINE
8
BLACK
6
CONTINUOUS
10
3.90484
20
-5.26024
11
3.91046
21
-5.26586
0
LINE
8
BLACK
6
CONTINUOUS
10
3.91046
20
-5.26586
11
3.91609
21
-5.27711
0
LINE
8
BLACK
6
CONTINUOUS
10
3.91609
20
-5.27711
11
3.92171
21
-5.29961
0
LINE
8
BLACK
6
CONTINUOUS
10
3.92171
20
-5.29961
11
3.92171
21
-5.32773
0
LINE
8
BLACK
6
CONTINUOUS
10
3.92171
20
-5.32773
11
3.91609
21
-5.35023
0
LINE
8
BLACK
6
CONTINUOUS
10
3.91609
20
-5.35023
11
3.91046
21
-5.36147
0
LINE
8
BLACK
6
CONTINUOUS
10
3.91046
20
-5.36147
11
3.90484
21
-5.3671
0
LINE
8
BLACK
6
CONTINUOUS
10
3.90484
20
-5.3671
11
3.89359
21
-5.37272
0
LINE
8
BLACK
6
CONTINUOUS
10
3.89359
20
-5.37272
11
3.88234
21
-5.37272
0
LINE
8
BLACK
6
CONTINUOUS
10
3.88234
20
-5.37272
11
3.87109
21
-5.3671
0
LINE
8
BLACK
6
CONTINUOUS
10
3.87109
20
-5.3671
11
3.86547
21
-5.36147
0
LINE
8
BLACK
6
CONTINUOUS
10
3.86547
20
-5.36147
11
3.85984
21
-5.35023
0
LINE
8
BLACK
6
CONTINUOUS
10
3.85984
20
-5.35023
11
3.85422
21
-5.32773
0
LINE
8
BLACK
6
CONTINUOUS
10
3.85422
20
-5.32773
11
3.85422
21
-5.29961
0
LINE
8
BLACK
6
CONTINUOUS
10
3.85422
20
-5.29961
11
3.85984
21
-5.27711
0
LINE
8
BLACK
6
CONTINUOUS
10
3.85984
20
-5.27711
11
3.86547
21
-5.26586
0
LINE
8
BLACK
6
CONTINUOUS
10
3.86547
20
-5.26586
11
3.87109
21
-5.26024
0
LINE
8
BLACK
6
CONTINUOUS
10
3.87109
20
-5.26024
11
3.88234
21
-5.25461
0
LINE
8
BLACK
6
CONTINUOUS
10
3.99483
20
-5.25461
11
4.00607
21
-5.25461
0
LINE
8
BLACK
6
CONTINUOUS
10
4.00607
20
-5.25461
11
4.01732
21
-5.26024
0
LINE
8
BLACK
6
CONTINUOUS
10
4.01732
20
-5.26024
11
4.02295
21
-5.26586
0
LINE
8
BLACK
6
CONTINUOUS
10
4.02295
20
-5.26586
11
4.02857
21
-5.27711
0
LINE
8
BLACK
6
CONTINUOUS
10
4.02857
20
-5.27711
11
4.0342
21
-5.29961
0
LINE
8
BLACK
6
CONTINUOUS
10
4.0342
20
-5.29961
11
4.0342
21
-5.32773
0
LINE
8
BLACK
6
CONTINUOUS
10
4.0342
20
-5.32773
11
4.02857
21
-5.35023
0
LINE
8
BLACK
6
CONTINUOUS
10
4.02857
20
-5.35023
11
4.02295
21
-5.36147
0
LINE
8
BLACK
6
CONTINUOUS
10
4.02295
20
-5.36147
11
4.01732
21
-5.3671
0
LINE
8
BLACK
6
CONTINUOUS
10
4.01732
20
-5.3671
11
4.00607
21
-5.37272
0
LINE
8
BLACK
6
CONTINUOUS
10
4.00607
20
-5.37272
11
3.99483
21
-5.37272
0
LINE
8
BLACK
6
CONTINUOUS
10
3.99483
20
-5.37272
11
3.98358
21
-5.3671
0
LINE
8
BLACK
6
CONTINUOUS
10
3.98358
20
-5.3671
11
3.97795
21
-5.36147
0
LINE
8
BLACK
6
CONTINUOUS
10
3.97795
20
-5.36147
11
3.97233
21
-5.35023
0
LINE
8
BLACK
6
CONTINUOUS
10
3.97233
20
-5.35023
11
3.9667
21
-5.32773
0
LINE
8
BLACK
6
CONTINUOUS
10
3.9667
20
-5.32773
11
3.9667
21
-5.29961
0
LINE
8
BLACK
6
CONTINUOUS
10
3.9667
20
-5.29961
11
3.97233
21
-5.27711
0
LINE
8
BLACK
6
CONTINUOUS
10
3.97233
20
-5.27711
11
3.97795
21
-5.26586
0
LINE
8
BLACK
6
CONTINUOUS
10
3.97795
20
-5.26586
11
3.98358
21
-5.26024
0
LINE
8
BLACK
6
CONTINUOUS
10
3.98358
20
-5.26024
11
3.99483
21
-5.25461
0
LINE
8
BLACK
6
CONTINUOUS
10
4.08481
20
-5.37272
11
4.08481
21
-5.29398
0
LINE
8
BLACK
6
CONTINUOUS
10
4.08481
20
-5.30523
11
4.09044
21
-5.29961
0
LINE
8
BLACK
6
CONTINUOUS
10
4.09044
20
-5.29961
11
4.10169
21
-5.29398
0
LINE
8
BLACK
6
CONTINUOUS
10
4.10169
20
-5.29398
11
4.11856
21
-5.29398
0
LINE
8
BLACK
6
CONTINUOUS
10
4.11856
20
-5.29398
11
4.12981
21
-5.29961
0
LINE
8
BLACK
6
CONTINUOUS
10
4.12981
20
-5.29961
11
4.13543
21
-5.31085
0
LINE
8
BLACK
6
CONTINUOUS
10
4.13543
20
-5.31085
11
4.13543
21
-5.37272
0
LINE
8
BLACK
6
CONTINUOUS
10
4.13543
20
-5.31085
11
4.14106
21
-5.29961
0
LINE
8
BLACK
6
CONTINUOUS
10
4.14106
20
-5.29961
11
4.15231
21
-5.29398
0
LINE
8
BLACK
6
CONTINUOUS
10
4.15231
20
-5.29398
11
4.16918
21
-5.29398
0
LINE
8
BLACK
6
CONTINUOUS
10
4.16918
20
-5.29398
11
4.18043
21
-5.29961
0
LINE
8
BLACK
6
CONTINUOUS
10
4.18043
20
-5.29961
11
4.18605
21
-5.31085
0
LINE
8
BLACK
6
CONTINUOUS
10
4.18605
20
-5.31085
11
4.18605
21
-5.37272
0
LINE
8
BLACK
6
CONTINUOUS
10
4.24229
20
-5.37272
11
4.24229
21
-5.29398
0
LINE
8
BLACK
6
CONTINUOUS
10
4.24229
20
-5.30523
11
4.24792
21
-5.29961
0
LINE
8
BLACK
6
CONTINUOUS
10
4.24792
20
-5.29961
11
4.25917
21
-5.29398
0
LINE
8
BLACK
6
CONTINUOUS
10
4.25917
20
-5.29398
11
4.27604
21
-5.29398
0
LINE
8
BLACK
6
CONTINUOUS
10
4.27604
20
-5.29398
11
4.28729
21
-5.29961
0
LINE
8
BLACK
6
CONTINUOUS
10
4.28729
20
-5.29961
11
4.29291
21
-5.31085
0
LINE
8
BLACK
6
CONTINUOUS
10
4.29291
20
-5.31085
11
4.29291
21
-5.37272
0
LINE
8
BLACK
6
CONTINUOUS
10
4.29291
20
-5.31085
11
4.29854
21
-5.29961
0
LINE
8
BLACK
6
CONTINUOUS
10
4.29854
20
-5.29961
11
4.30979
21
-5.29398
0
LINE
8
BLACK
6
CONTINUOUS
10
4.30979
20
-5.29398
11
4.32666
21
-5.29398
0
LINE
8
BLACK
6
CONTINUOUS
10
4.32666
20
-5.29398
11
4.33791
21
-5.29961
0
LINE
8
BLACK
6
CONTINUOUS
10
4.33791
20
-5.29961
11
4.34353
21
-5.31085
0
LINE
8
BLACK
6
CONTINUOUS
10
4.34353
20
-5.31085
11
4.34353
21
-5.37272
0
LINE
8
BLACK
6
CONTINUOUS
10
4.57413
20
-5.24899
11
4.47289
21
-5.40084
0
LINE
8
BLACK
6
CONTINUOUS
10
4.72598
20
-5.25461
11
4.73723
21
-5.25461
0
LINE
8
BLACK
6
CONTINUOUS
10
4.73723
20
-5.25461
11
4.74848
21
-5.26024
0
LINE
8
BLACK
6
CONTINUOUS
10
4.74848
20
-5.26024
11
4.75411
21
-5.26586
0
LINE
8
BLACK
6
CONTINUOUS
10
4.75411
20
-5.26586
11
4.75973
21
-5.27711
0
LINE
8
BLACK
6
CONTINUOUS
10
4.75973
20
-5.27711
11
4.76535
21
-5.29961
0
LINE
8
BLACK
6
CONTINUOUS
10
4.76535
20
-5.29961
11
4.76535
21
-5.32773
0
LINE
8
BLACK
6
CONTINUOUS
10
4.76535
20
-5.32773
11
4.75973
21
-5.35023
0
LINE
8
BLACK
6
CONTINUOUS
10
4.75973
20
-5.35023
11
4.75411
21
-5.36147
0
LINE
8
BLACK
6
CONTINUOUS
10
4.75411
20
-5.36147
11
4.74848
21
-5.3671
0
LINE
8
BLACK
6
CONTINUOUS
10
4.74848
20
-5.3671
11
4.73723
21
-5.37272
0
LINE
8
BLACK
6
CONTINUOUS
10
4.73723
20
-5.37272
11
4.72598
21
-5.37272
0
LINE
8
BLACK
6
CONTINUOUS
10
4.72598
20
-5.37272
11
4.71474
21
-5.3671
0
LINE
8
BLACK
6
CONTINUOUS
10
4.71474
20
-5.3671
11
4.70911
21
-5.36147
0
LINE
8
BLACK
6
CONTINUOUS
10
4.70911
20
-5.36147
11
4.70349
21
-5.35023
0
LINE
8
BLACK
6
CONTINUOUS
10
4.70349
20
-5.35023
11
4.69786
21
-5.32773
0
LINE
8
BLACK
6
CONTINUOUS
10
4.69786
20
-5.32773
11
4.69786
21
-5.29961
0
LINE
8
BLACK
6
CONTINUOUS
10
4.69786
20
-5.29961
11
4.70349
21
-5.27711
0
LINE
8
BLACK
6
CONTINUOUS
10
4.70349
20
-5.27711
11
4.70911
21
-5.26586
0
LINE
8
BLACK
6
CONTINUOUS
10
4.70911
20
-5.26586
11
4.71474
21
-5.26024
0
LINE
8
BLACK
6
CONTINUOUS
10
4.71474
20
-5.26024
11
4.72598
21
-5.25461
0
LINE
8
BLACK
6
CONTINUOUS
10
4.81597
20
-5.36147
11
4.8216
21
-5.3671
0
LINE
8
BLACK
6
CONTINUOUS
10
4.8216
20
-5.3671
11
4.81597
21
-5.37272
0
LINE
8
BLACK
6
CONTINUOUS
10
4.81597
20
-5.37272
11
4.81035
21
-5.3671
0
LINE
8
BLACK
6
CONTINUOUS
10
4.81035
20
-5.3671
11
4.81597
21
-5.36147
0
LINE
8
BLACK
6
CONTINUOUS
10
4.81597
20
-5.36147
11
4.81597
21
-5.37272
0
LINE
8
BLACK
6
CONTINUOUS
10
4.89471
20
-5.25461
11
4.90596
21
-5.25461
0
LINE
8
BLACK
6
CONTINUOUS
10
4.90596
20
-5.25461
11
4.91721
21
-5.26024
0
LINE
8
BLACK
6
CONTINUOUS
10
4.91721
20
-5.26024
11
4.92283
21
-5.26586
0
LINE
8
BLACK
6
CONTINUOUS
10
4.92283
20
-5.26586
11
4.92846
21
-5.27711
0
LINE
8
BLACK
6
CONTINUOUS
10
4.92846
20
-5.27711
11
4.93408
21
-5.29961
0
LINE
8
BLACK
6
CONTINUOUS
10
4.93408
20
-5.29961
11
4.93408
21
-5.32773
0
LINE
8
BLACK
6
CONTINUOUS
10
4.93408
20
-5.32773
11
4.92846
21
-5.35023
0
LINE
8
BLACK
6
CONTINUOUS
10
4.92846
20
-5.35023
11
4.92283
21
-5.36147
0
LINE
8
BLACK
6
CONTINUOUS
10
4.92283
20
-5.36147
11
4.91721
21
-5.3671
0
LINE
8
BLACK
6
CONTINUOUS
10
4.91721
20
-5.3671
11
4.90596
21
-5.37272
0
LINE
8
BLACK
6
CONTINUOUS
10
4.90596
20
-5.37272
11
4.89471
21
-5.37272
0
LINE
8
BLACK
6
CONTINUOUS
10
4.89471
20
-5.37272
11
4.88346
21
-5.3671
0
LINE
8
BLACK
6
CONTINUOUS
10
4.88346
20
-5.3671
11
4.87784
21
-5.36147
0
LINE
8
BLACK
6
CONTINUOUS
10
4.87784
20
-5.36147
11
4.87222
21
-5.35023
0
LINE
8
BLACK
6
CONTINUOUS
10
4.87222
20
-5.35023
11
4.86659
21
-5.32773
0
LINE
8
BLACK
6
CONTINUOUS
10
4.86659
20
-5.32773
11
4.86659
21
-5.29961
0
LINE
8
BLACK
6
CONTINUOUS
10
4.86659
20
-5.29961
11
4.87222
21
-5.27711
0
LINE
8
BLACK
6
CONTINUOUS
10
4.87222
20
-5.27711
11
4.87784
21
-5.26586
0
LINE
8
BLACK
6
CONTINUOUS
10
4.87784
20
-5.26586
11
4.88346
21
-5.26024
0
LINE
8
BLACK
6
CONTINUOUS
10
4.88346
20
-5.26024
11
4.89471
21
-5.25461
0
LINE
8
BLACK
6
CONTINUOUS
10
4.97345
20
-5.25461
11
5.04657
21
-5.25461
0
LINE
8
BLACK
6
CONTINUOUS
10
5.04657
20
-5.25461
11
5.0072
21
-5.29961
0
LINE
8
BLACK
6
CONTINUOUS
10
5.0072
20
-5.29961
11
5.02407
21
-5.29961
0
LINE
8
BLACK
6
CONTINUOUS
10
5.02407
20
-5.29961
11
5.03532
21
-5.30523
0
LINE
8
BLACK
6
CONTINUOUS
10
5.03532
20
-5.30523
11
5.04094
21
-5.31085
0
LINE
8
BLACK
6
CONTINUOUS
10
5.04094
20
-5.31085
11
5.04657
21
-5.3221
0
LINE
8
BLACK
6
CONTINUOUS
10
5.04657
20
-5.3221
11
5.04657
21
-5.35023
0
LINE
8
BLACK
6
CONTINUOUS
10
5.04657
20
-5.35023
11
5.04094
21
-5.36147
0
LINE
8
BLACK
6
CONTINUOUS
10
5.04094
20
-5.36147
11
5.03532
21
-5.3671
0
LINE
8
BLACK
6
CONTINUOUS
10
5.03532
20
-5.3671
11
5.02407
21
-5.37272
0
LINE
8
BLACK
6
CONTINUOUS
10
5.02407
20
-5.37272
11
4.99033
21
-5.37272
0
LINE
8
BLACK
6
CONTINUOUS
10
4.99033
20
-5.37272
11
4.97908
21
-5.3671
0
LINE
8
BLACK
6
CONTINUOUS
10
4.97908
20
-5.3671
11
4.97345
21
-5.36147
0
LINE
8
BLACK
6
CONTINUOUS
10
5.10281
20
-5.37272
11
5.12531
21
-5.37272
0
LINE
8
BLACK
6
CONTINUOUS
10
5.12531
20
-5.37272
11
5.13656
21
-5.3671
0
LINE
8
BLACK
6
CONTINUOUS
10
5.13656
20
-5.3671
11
5.14218
21
-5.36147
0
LINE
8
BLACK
6
CONTINUOUS
10
5.14218
20
-5.36147
11
5.15343
21
-5.3446
0
LINE
8
BLACK
6
CONTINUOUS
10
5.15343
20
-5.3446
11
5.15906
21
-5.3221
0
LINE
8
BLACK
6
CONTINUOUS
10
5.15906
20
-5.3221
11
5.15906
21
-5.27711
0
LINE
8
BLACK
6
CONTINUOUS
10
5.15906
20
-5.27711
11
5.15343
21
-5.26586
0
LINE
8
BLACK
6
CONTINUOUS
10
5.15343
20
-5.26586
11
5.14781
21
-5.26024
0
LINE
8
BLACK
6
CONTINUOUS
10
5.14781
20
-5.26024
11
5.13656
21
-5.25461
0
LINE
8
BLACK
6
CONTINUOUS
10
5.13656
20
-5.25461
11
5.11406
21
-5.25461
0
LINE
8
BLACK
6
CONTINUOUS
10
5.11406
20
-5.25461
11
5.10281
21
-5.26024
0
LINE
8
BLACK
6
CONTINUOUS
10
5.10281
20
-5.26024
11
5.09719
21
-5.26586
0
LINE
8
BLACK
6
CONTINUOUS
10
5.09719
20
-5.26586
11
5.09156
21
-5.27711
0
LINE
8
BLACK
6
CONTINUOUS
10
5.09156
20
-5.27711
11
5.09156
21
-5.30523
0
LINE
8
BLACK
6
CONTINUOUS
10
5.09156
20
-5.30523
11
5.09719
21
-5.31648
0
LINE
8
BLACK
6
CONTINUOUS
10
5.09719
20
-5.31648
11
5.10281
21
-5.3221
0
LINE
8
BLACK
6
CONTINUOUS
10
5.10281
20
-5.3221
11
5.11406
21
-5.32773
0
LINE
8
BLACK
6
CONTINUOUS
10
5.11406
20
-5.32773
11
5.13656
21
-5.32773
0
LINE
8
BLACK
6
CONTINUOUS
10
5.13656
20
-5.32773
11
5.14781
21
-5.3221
0
LINE
8
BLACK
6
CONTINUOUS
10
5.14781
20
-5.3221
11
5.15343
21
-5.31648
0
LINE
8
BLACK
6
CONTINUOUS
10
5.15343
20
-5.31648
11
5.15906
21
-5.30523
0
LINE
8
BLACK
6
CONTINUOUS
10
5.20405
20
-5.25461
11
5.20405
21
-5.27711
0
LINE
8
BLACK
6
CONTINUOUS
10
5.24904
20
-5.25461
11
5.24904
21
-5.27711
0
LINE
8
BLACK
6
CONTINUOUS
10
5.4234
20
-5.41772
11
5.41777
21
-5.41209
0
LINE
8
BLACK
6
CONTINUOUS
10
5.41777
20
-5.41209
11
5.40652
21
-5.39522
0
LINE
8
BLACK
6
CONTINUOUS
10
5.40652
20
-5.39522
11
5.4009
21
-5.38397
0
LINE
8
BLACK
6
CONTINUOUS
10
5.4009
20
-5.38397
11
5.39528
21
-5.3671
0
LINE
8
BLACK
6
CONTINUOUS
10
5.39528
20
-5.3671
11
5.38965
21
-5.33898
0
LINE
8
BLACK
6
CONTINUOUS
10
5.38965
20
-5.33898
11
5.38965
21
-5.31648
0
LINE
8
BLACK
6
CONTINUOUS
10
5.38965
20
-5.31648
11
5.39528
21
-5.28836
0
LINE
8
BLACK
6
CONTINUOUS
10
5.39528
20
-5.28836
11
5.4009
21
-5.27148
0
LINE
8
BLACK
6
CONTINUOUS
10
5.4009
20
-5.27148
11
5.40652
21
-5.26024
0
LINE
8
BLACK
6
CONTINUOUS
10
5.40652
20
-5.26024
11
5.41777
21
-5.24336
0
LINE
8
BLACK
6
CONTINUOUS
10
5.41777
20
-5.24336
11
5.4234
21
-5.23774
0
LINE
8
BLACK
6
CONTINUOUS
10
5.48526
20
-5.30523
11
5.47402
21
-5.29961
0
LINE
8
BLACK
6
CONTINUOUS
10
5.47402
20
-5.29961
11
5.46839
21
-5.29398
0
LINE
8
BLACK
6
CONTINUOUS
10
5.46839
20
-5.29398
11
5.46277
21
-5.28273
0
LINE
8
BLACK
6
CONTINUOUS
10
5.46277
20
-5.28273
11
5.46277
21
-5.27711
0
LINE
8
BLACK
6
CONTINUOUS
10
5.46277
20
-5.27711
11
5.46839
21
-5.26586
0
LINE
8
BLACK
6
CONTINUOUS
10
5.46839
20
-5.26586
11
5.47402
21
-5.26024
0
LINE
8
BLACK
6
CONTINUOUS
10
5.47402
20
-5.26024
11
5.48526
21
-5.25461
0
LINE
8
BLACK
6
CONTINUOUS
10
5.48526
20
-5.25461
11
5.50776
21
-5.25461
0
LINE
8
BLACK
6
CONTINUOUS
10
5.50776
20
-5.25461
11
5.51901
21
-5.26024
0
LINE
8
BLACK
6
CONTINUOUS
10
5.51901
20
-5.26024
11
5.52463
21
-5.26586
0
LINE
8
BLACK
6
CONTINUOUS
10
5.52463
20
-5.26586
11
5.53026
21
-5.27711
0
LINE
8
BLACK
6
CONTINUOUS
10
5.53026
20
-5.27711
11
5.53026
21
-5.28273
0
LINE
8
BLACK
6
CONTINUOUS
10
5.53026
20
-5.28273
11
5.52463
21
-5.29398
0
LINE
8
BLACK
6
CONTINUOUS
10
5.52463
20
-5.29398
11
5.51901
21
-5.29961
0
LINE
8
BLACK
6
CONTINUOUS
10
5.51901
20
-5.29961
11
5.50776
21
-5.30523
0
LINE
8
BLACK
6
CONTINUOUS
10
5.50776
20
-5.30523
11
5.48526
21
-5.30523
0
LINE
8
BLACK
6
CONTINUOUS
10
5.48526
20
-5.30523
11
5.47402
21
-5.31085
0
LINE
8
BLACK
6
CONTINUOUS
10
5.47402
20
-5.31085
11
5.46839
21
-5.31648
0
LINE
8
BLACK
6
CONTINUOUS
10
5.46839
20
-5.31648
11
5.46277
21
-5.32773
0
LINE
8
BLACK
6
CONTINUOUS
10
5.46277
20
-5.32773
11
5.46277
21
-5.35023
0
LINE
8
BLACK
6
CONTINUOUS
10
5.46277
20
-5.35023
11
5.46839
21
-5.36147
0
LINE
8
BLACK
6
CONTINUOUS
10
5.46839
20
-5.36147
11
5.47402
21
-5.3671
0
LINE
8
BLACK
6
CONTINUOUS
10
5.47402
20
-5.3671
11
5.48526
21
-5.37272
0
LINE
8
BLACK
6
CONTINUOUS
10
5.48526
20
-5.37272
11
5.50776
21
-5.37272
0
LINE
8
BLACK
6
CONTINUOUS
10
5.50776
20
-5.37272
11
5.51901
21
-5.3671
0
LINE
8
BLACK
6
CONTINUOUS
10
5.51901
20
-5.3671
11
5.52463
21
-5.36147
0
LINE
8
BLACK
6
CONTINUOUS
10
5.52463
20
-5.36147
11
5.53026
21
-5.35023
0
LINE
8
BLACK
6
CONTINUOUS
10
5.53026
20
-5.35023
11
5.53026
21
-5.32773
0
LINE
8
BLACK
6
CONTINUOUS
10
5.53026
20
-5.32773
11
5.52463
21
-5.31648
0
LINE
8
BLACK
6
CONTINUOUS
10
5.52463
20
-5.31648
11
5.51901
21
-5.31085
0
LINE
8
BLACK
6
CONTINUOUS
10
5.51901
20
-5.31085
11
5.50776
21
-5.30523
0
LINE
8
BLACK
6
CONTINUOUS
10
5.5865
20
-5.37272
11
5.609
21
-5.37272
0
LINE
8
BLACK
6
CONTINUOUS
10
5.609
20
-5.37272
11
5.62025
21
-5.3671
0
LINE
8
BLACK
6
CONTINUOUS
10
5.62025
20
-5.3671
11
5.62587
21
-5.36147
0
LINE
8
BLACK
6
CONTINUOUS
10
5.62587
20
-5.36147
11
5.63712
21
-5.3446
0
LINE
8
BLACK
6
CONTINUOUS
10
5.63712
20
-5.3446
11
5.64274
21
-5.3221
0
LINE
8
BLACK
6
CONTINUOUS
10
5.64274
20
-5.3221
11
5.64274
21
-5.27711
0
LINE
8
BLACK
6
CONTINUOUS
10
5.64274
20
-5.27711
11
5.63712
21
-5.26586
0
LINE
8
BLACK
6
CONTINUOUS
10
5.63712
20
-5.26586
11
5.6315
21
-5.26024
0
LINE
8
BLACK
6
CONTINUOUS
10
5.6315
20
-5.26024
11
5.62025
21
-5.25461
0
LINE
8
BLACK
6
CONTINUOUS
10
5.62025
20
-5.25461
11
5.59775
21
-5.25461
0
LINE
8
BLACK
6
CONTINUOUS
10
5.59775
20
-5.25461
11
5.5865
21
-5.26024
0
LINE
8
BLACK
6
CONTINUOUS
10
5.5865
20
-5.26024
11
5.58088
21
-5.26586
0
LINE
8
BLACK
6
CONTINUOUS
10
5.58088
20
-5.26586
11
5.57525
21
-5.27711
0
LINE
8
BLACK
6
CONTINUOUS
10
5.57525
20
-5.27711
11
5.57525
21
-5.30523
0
LINE
8
BLACK
6
CONTINUOUS
10
5.57525
20
-5.30523
11
5.58088
21
-5.31648
0
LINE
8
BLACK
6
CONTINUOUS
10
5.58088
20
-5.31648
11
5.5865
21
-5.3221
0
LINE
8
BLACK
6
CONTINUOUS
10
5.5865
20
-5.3221
11
5.59775
21
-5.32773
0
LINE
8
BLACK
6
CONTINUOUS
10
5.59775
20
-5.32773
11
5.62025
21
-5.32773
0
LINE
8
BLACK
6
CONTINUOUS
10
5.62025
20
-5.32773
11
5.6315
21
-5.3221
0
LINE
8
BLACK
6
CONTINUOUS
10
5.6315
20
-5.3221
11
5.63712
21
-5.31648
0
LINE
8
BLACK
6
CONTINUOUS
10
5.63712
20
-5.31648
11
5.64274
21
-5.30523
0
LINE
8
BLACK
6
CONTINUOUS
10
5.78335
20
-5.37272
11
5.78335
21
-5.25461
0
LINE
8
BLACK
6
CONTINUOUS
10
5.83397
20
-5.37272
11
5.83397
21
-5.31085
0
LINE
8
BLACK
6
CONTINUOUS
10
5.83397
20
-5.31085
11
5.82835
21
-5.29961
0
LINE
8
BLACK
6
CONTINUOUS
10
5.82835
20
-5.29961
11
5.8171
21
-5.29398
0
LINE
8
BLACK
6
CONTINUOUS
10
5.8171
20
-5.29398
11
5.80022
21
-5.29398
0
LINE
8
BLACK
6
CONTINUOUS
10
5.80022
20
-5.29398
11
5.78898
21
-5.29961
0
LINE
8
BLACK
6
CONTINUOUS
10
5.78898
20
-5.29961
11
5.78335
21
-5.30523
0
LINE
8
BLACK
6
CONTINUOUS
10
5.90709
20
-5.37272
11
5.89584
21
-5.3671
0
LINE
8
BLACK
6
CONTINUOUS
10
5.89584
20
-5.3671
11
5.89021
21
-5.36147
0
LINE
8
BLACK
6
CONTINUOUS
10
5.89021
20
-5.36147
11
5.88459
21
-5.35023
0
LINE
8
BLACK
6
CONTINUOUS
10
5.88459
20
-5.35023
11
5.88459
21
-5.31648
0
LINE
8
BLACK
6
CONTINUOUS
10
5.88459
20
-5.31648
11
5.89021
21
-5.30523
0
LINE
8
BLACK
6
CONTINUOUS
10
5.89021
20
-5.30523
11
5.89584
21
-5.29961
0
LINE
8
BLACK
6
CONTINUOUS
10
5.89584
20
-5.29961
11
5.90709
21
-5.29398
0
LINE
8
BLACK
6
CONTINUOUS
10
5.90709
20
-5.29398
11
5.92396
21
-5.29398
0
LINE
8
BLACK
6
CONTINUOUS
10
5.92396
20
-5.29398
11
5.93521
21
-5.29961
0
LINE
8
BLACK
6
CONTINUOUS
10
5.93521
20
-5.29961
11
5.94083
21
-5.30523
0
LINE
8
BLACK
6
CONTINUOUS
10
5.94083
20
-5.30523
11
5.94646
21
-5.31648
0
LINE
8
BLACK
6
CONTINUOUS
10
5.94646
20
-5.31648
11
5.94646
21
-5.35023
0
LINE
8
BLACK
6
CONTINUOUS
10
5.94646
20
-5.35023
11
5.94083
21
-5.36147
0
LINE
8
BLACK
6
CONTINUOUS
10
5.94083
20
-5.36147
11
5.93521
21
-5.3671
0
LINE
8
BLACK
6
CONTINUOUS
10
5.93521
20
-5.3671
11
5.92396
21
-5.37272
0
LINE
8
BLACK
6
CONTINUOUS
10
5.92396
20
-5.37272
11
5.90709
21
-5.37272
0
LINE
8
BLACK
6
CONTINUOUS
10
6.01395
20
-5.37272
11
6.0027
21
-5.3671
0
LINE
8
BLACK
6
CONTINUOUS
10
6.0027
20
-5.3671
11
5.99708
21
-5.35585
0
LINE
8
BLACK
6
CONTINUOUS
10
5.99708
20
-5.35585
11
5.99708
21
-5.25461
0
LINE
8
BLACK
6
CONTINUOUS
10
6.10394
20
-5.3671
11
6.09269
21
-5.37272
0
LINE
8
BLACK
6
CONTINUOUS
10
6.09269
20
-5.37272
11
6.07019
21
-5.37272
0
LINE
8
BLACK
6
CONTINUOUS
10
6.07019
20
-5.37272
11
6.05894
21
-5.3671
0
LINE
8
BLACK
6
CONTINUOUS
10
6.05894
20
-5.3671
11
6.05332
21
-5.35585
0
LINE
8
BLACK
6
CONTINUOUS
10
6.05332
20
-5.35585
11
6.05332
21
-5.31085
0
LINE
8
BLACK
6
CONTINUOUS
10
6.05332
20
-5.31085
11
6.05894
21
-5.29961
0
LINE
8
BLACK
6
CONTINUOUS
10
6.05894
20
-5.29961
11
6.07019
21
-5.29398
0
LINE
8
BLACK
6
CONTINUOUS
10
6.07019
20
-5.29398
11
6.09269
21
-5.29398
0
LINE
8
BLACK
6
CONTINUOUS
10
6.09269
20
-5.29398
11
6.10394
21
-5.29961
0
LINE
8
BLACK
6
CONTINUOUS
10
6.10394
20
-5.29961
11
6.10956
21
-5.31085
0
LINE
8
BLACK
6
CONTINUOUS
10
6.10956
20
-5.31085
11
6.10956
21
-5.3221
0
LINE
8
BLACK
6
CONTINUOUS
10
6.10956
20
-5.3221
11
6.05332
21
-5.33335
0
LINE
8
BLACK
6
CONTINUOUS
10
6.15456
20
-5.3671
11
6.1658
21
-5.37272
0
LINE
8
BLACK
6
CONTINUOUS
10
6.1658
20
-5.37272
11
6.1883
21
-5.37272
0
LINE
8
BLACK
6
CONTINUOUS
10
6.1883
20
-5.37272
11
6.19955
21
-5.3671
0
LINE
8
BLACK
6
CONTINUOUS
10
6.19955
20
-5.3671
11
6.20517
21
-5.35585
0
LINE
8
BLACK
6
CONTINUOUS
10
6.20517
20
-5.35585
11
6.20517
21
-5.35023
0
LINE
8
BLACK
6
CONTINUOUS
10
6.20517
20
-5.35023
11
6.19955
21
-5.33898
0
LINE
8
BLACK
6
CONTINUOUS
10
6.19955
20
-5.33898
11
6.1883
21
-5.33335
0
LINE
8
BLACK
6
CONTINUOUS
10
6.1883
20
-5.33335
11
6.17143
21
-5.33335
0
LINE
8
BLACK
6
CONTINUOUS
10
6.17143
20
-5.33335
11
6.16018
21
-5.32773
0
LINE
8
BLACK
6
CONTINUOUS
10
6.16018
20
-5.32773
11
6.15456
21
-5.31648
0
LINE
8
BLACK
6
CONTINUOUS
10
6.15456
20
-5.31648
11
6.15456
21
-5.31085
0
LINE
8
BLACK
6
CONTINUOUS
10
6.15456
20
-5.31085
11
6.16018
21
-5.29961
0
LINE
8
BLACK
6
CONTINUOUS
10
6.16018
20
-5.29961
11
6.17143
21
-5.29398
0
LINE
8
BLACK
6
CONTINUOUS
10
6.17143
20
-5.29398
11
6.1883
21
-5.29398
0
LINE
8
BLACK
6
CONTINUOUS
10
6.1883
20
-5.29398
11
6.19955
21
-5.29961
0
LINE
8
BLACK
6
CONTINUOUS
10
6.24454
20
-5.41772
11
6.25017
21
-5.41209
0
LINE
8
BLACK
6
CONTINUOUS
10
6.25017
20
-5.41209
11
6.26142
21
-5.39522
0
LINE
8
BLACK
6
CONTINUOUS
10
6.26142
20
-5.39522
11
6.26704
21
-5.38397
0
LINE
8
BLACK
6
CONTINUOUS
10
6.26704
20
-5.38397
11
6.27267
21
-5.3671
0
LINE
8
BLACK
6
CONTINUOUS
10
6.27267
20
-5.3671
11
6.27829
21
-5.33898
0
LINE
8
BLACK
6
CONTINUOUS
10
6.27829
20
-5.33898
11
6.27829
21
-5.31648
0
LINE
8
BLACK
6
CONTINUOUS
10
6.27829
20
-5.31648
11
6.27267
21
-5.28836
0
LINE
8
BLACK
6
CONTINUOUS
10
6.27267
20
-5.28836
11
6.26704
21
-5.27148
0
LINE
8
BLACK
6
CONTINUOUS
10
6.26704
20
-5.27148
11
6.26142
21
-5.26024
0
LINE
8
BLACK
6
CONTINUOUS
10
6.26142
20
-5.26024
11
6.25017
21
-5.24336
0
LINE
8
BLACK
6
CONTINUOUS
10
6.25017
20
-5.24336
11
6.24454
21
-5.23774
0
LINE
8
BLACK
6
CONTINUOUS
10
3.51535
20
-5.53819
11
3.57835
21
-5.4752
0
LINE
8
BLACK
6
CONTINUOUS
10
3.57835
20
-5.4752
11
3.51535
21
-5.4122
0
LINE
8
BLACK
6
CONTINUOUS
10
3.51535
20
-5.4122
11
3.45236
21
-5.4752
0
LINE
8
BLACK
6
CONTINUOUS
10
3.45236
20
-5.4752
11
3.51535
21
-5.53819
0
LINE
8
BLACK
6
CONTINUOUS
10
3.67986
20
-5.41052
11
3.75298
21
-5.41052
0
LINE
8
BLACK
6
CONTINUOUS
10
3.75298
20
-5.41052
11
3.71361
21
-5.45551
0
LINE
8
BLACK
6
CONTINUOUS
10
3.71361
20
-5.45551
11
3.73048
21
-5.45551
0
LINE
8
BLACK
6
CONTINUOUS
10
3.73048
20
-5.45551
11
3.74173
21
-5.46114
0
LINE
8
BLACK
6
CONTINUOUS
10
3.74173
20
-5.46114
11
3.74736
21
-5.46676
0
LINE
8
BLACK
6
CONTINUOUS
10
3.74736
20
-5.46676
11
3.75298
21
-5.47801
0
LINE
8
BLACK
6
CONTINUOUS
10
3.75298
20
-5.47801
11
3.75298
21
-5.50613
0
LINE
8
BLACK
6
CONTINUOUS
10
3.75298
20
-5.50613
11
3.74736
21
-5.51738
0
LINE
8
BLACK
6
CONTINUOUS
10
3.74736
20
-5.51738
11
3.74173
21
-5.523
0
LINE
8
BLACK
6
CONTINUOUS
10
3.74173
20
-5.523
11
3.73048
21
-5.52863
0
LINE
8
BLACK
6
CONTINUOUS
10
3.73048
20
-5.52863
11
3.69674
21
-5.52863
0
LINE
8
BLACK
6
CONTINUOUS
10
3.69674
20
-5.52863
11
3.68549
21
-5.523
0
LINE
8
BLACK
6
CONTINUOUS
10
3.68549
20
-5.523
11
3.67986
21
-5.51738
0
LINE
8
BLACK
6
CONTINUOUS
10
3.8036
20
-5.51738
11
3.80922
21
-5.523
0
LINE
8
BLACK
6
CONTINUOUS
10
3.80922
20
-5.523
11
3.8036
21
-5.52863
0
LINE
8
BLACK
6
CONTINUOUS
10
3.8036
20
-5.52863
11
3.79798
21
-5.523
0
LINE
8
BLACK
6
CONTINUOUS
10
3.79798
20
-5.523
11
3.8036
21
-5.51738
0
LINE
8
BLACK
6
CONTINUOUS
10
3.8036
20
-5.51738
11
3.8036
21
-5.52863
0
LINE
8
BLACK
6
CONTINUOUS
10
3.85422
20
-5.42177
11
3.85984
21
-5.41614
0
LINE
8
BLACK
6
CONTINUOUS
10
3.85984
20
-5.41614
11
3.87109
21
-5.41052
0
LINE
8
BLACK
6
CONTINUOUS
10
3.87109
20
-5.41052
11
3.89921
21
-5.41052
0
LINE
8
BLACK
6
CONTINUOUS
10
3.89921
20
-5.41052
11
3.91046
21
-5.41614
0
LINE
8
BLACK
6
CONTINUOUS
10
3.91046
20
-5.41614
11
3.91609
21
-5.42177
0
LINE
8
BLACK
6
CONTINUOUS
10
3.91609
20
-5.42177
11
3.92171
21
-5.43301
0
LINE
8
BLACK
6
CONTINUOUS
10
3.92171
20
-5.43301
11
3.92171
21
-5.44426
0
LINE
8
BLACK
6
CONTINUOUS
10
3.92171
20
-5.44426
11
3.91609
21
-5.46114
0
LINE
8
BLACK
6
CONTINUOUS
10
3.91609
20
-5.46114
11
3.84859
21
-5.52863
0
LINE
8
BLACK
6
CONTINUOUS
10
3.84859
20
-5.52863
11
3.92171
21
-5.52863
0
LINE
8
BLACK
6
CONTINUOUS
10
3.99483
20
-5.41052
11
4.00607
21
-5.41052
0
LINE
8
BLACK
6
CONTINUOUS
10
4.00607
20
-5.41052
11
4.01732
21
-5.41614
0
LINE
8
BLACK
6
CONTINUOUS
10
4.01732
20
-5.41614
11
4.02295
21
-5.42177
0
LINE
8
BLACK
6
CONTINUOUS
10
4.02295
20
-5.42177
11
4.02857
21
-5.43301
0
LINE
8
BLACK
6
CONTINUOUS
10
4.02857
20
-5.43301
11
4.0342
21
-5.45551
0
LINE
8
BLACK
6
CONTINUOUS
10
4.0342
20
-5.45551
11
4.0342
21
-5.48363
0
LINE
8
BLACK
6
CONTINUOUS
10
4.0342
20
-5.48363
11
4.02857
21
-5.50613
0
LINE
8
BLACK
6
CONTINUOUS
10
4.02857
20
-5.50613
11
4.02295
21
-5.51738
0
LINE
8
BLACK
6
CONTINUOUS
10
4.02295
20
-5.51738
11
4.01732
21
-5.523
0
LINE
8
BLACK
6
CONTINUOUS
10
4.01732
20
-5.523
11
4.00607
21
-5.52863
0
LINE
8
BLACK
6
CONTINUOUS
10
4.00607
20
-5.52863
11
3.99483
21
-5.52863
0
LINE
8
BLACK
6
CONTINUOUS
10
3.99483
20
-5.52863
11
3.98358
21
-5.523
0
LINE
8
BLACK
6
CONTINUOUS
10
3.98358
20
-5.523
11
3.97795
21
-5.51738
0
LINE
8
BLACK
6
CONTINUOUS
10
3.97795
20
-5.51738
11
3.97233
21
-5.50613
0
LINE
8
BLACK
6
CONTINUOUS
10
3.97233
20
-5.50613
11
3.9667
21
-5.48363
0
LINE
8
BLACK
6
CONTINUOUS
10
3.9667
20
-5.48363
11
3.9667
21
-5.45551
0
LINE
8
BLACK
6
CONTINUOUS
10
3.9667
20
-5.45551
11
3.97233
21
-5.43301
0
LINE
8
BLACK
6
CONTINUOUS
10
3.97233
20
-5.43301
11
3.97795
21
-5.42177
0
LINE
8
BLACK
6
CONTINUOUS
10
3.97795
20
-5.42177
11
3.98358
21
-5.41614
0
LINE
8
BLACK
6
CONTINUOUS
10
3.98358
20
-5.41614
11
3.99483
21
-5.41052
0
LINE
8
BLACK
6
CONTINUOUS
10
4.08481
20
-5.52863
11
4.08481
21
-5.44989
0
LINE
8
BLACK
6
CONTINUOUS
10
4.08481
20
-5.46114
11
4.09044
21
-5.45551
0
LINE
8
BLACK
6
CONTINUOUS
10
4.09044
20
-5.45551
11
4.10169
21
-5.44989
0
LINE
8
BLACK
6
CONTINUOUS
10
4.10169
20
-5.44989
11
4.11856
21
-5.44989
0
LINE
8
BLACK
6
CONTINUOUS
10
4.11856
20
-5.44989
11
4.12981
21
-5.45551
0
LINE
8
BLACK
6
CONTINUOUS
10
4.12981
20
-5.45551
11
4.13543
21
-5.46676
0
LINE
8
BLACK
6
CONTINUOUS
10
4.13543
20
-5.46676
11
4.13543
21
-5.52863
0
LINE
8
BLACK
6
CONTINUOUS
10
4.13543
20
-5.46676
11
4.14106
21
-5.45551
0
LINE
8
BLACK
6
CONTINUOUS
10
4.14106
20
-5.45551
11
4.15231
21
-5.44989
0
LINE
8
BLACK
6
CONTINUOUS
10
4.15231
20
-5.44989
11
4.16918
21
-5.44989
0
LINE
8
BLACK
6
CONTINUOUS
10
4.16918
20
-5.44989
11
4.18043
21
-5.45551
0
LINE
8
BLACK
6
CONTINUOUS
10
4.18043
20
-5.45551
11
4.18605
21
-5.46676
0
LINE
8
BLACK
6
CONTINUOUS
10
4.18605
20
-5.46676
11
4.18605
21
-5.52863
0
LINE
8
BLACK
6
CONTINUOUS
10
4.24229
20
-5.52863
11
4.24229
21
-5.44989
0
LINE
8
BLACK
6
CONTINUOUS
10
4.24229
20
-5.46114
11
4.24792
21
-5.45551
0
LINE
8
BLACK
6
CONTINUOUS
10
4.24792
20
-5.45551
11
4.25917
21
-5.44989
0
LINE
8
BLACK
6
CONTINUOUS
10
4.25917
20
-5.44989
11
4.27604
21
-5.44989
0
LINE
8
BLACK
6
CONTINUOUS
10
4.27604
20
-5.44989
11
4.28729
21
-5.45551
0
LINE
8
BLACK
6
CONTINUOUS
10
4.28729
20
-5.45551
11
4.29291
21
-5.46676
0
LINE
8
BLACK
6
CONTINUOUS
10
4.29291
20
-5.46676
11
4.29291
21
-5.52863
0
LINE
8
BLACK
6
CONTINUOUS
10
4.29291
20
-5.46676
11
4.29854
21
-5.45551
0
LINE
8
BLACK
6
CONTINUOUS
10
4.29854
20
-5.45551
11
4.30979
21
-5.44989
0
LINE
8
BLACK
6
CONTINUOUS
10
4.30979
20
-5.44989
11
4.32666
21
-5.44989
0
LINE
8
BLACK
6
CONTINUOUS
10
4.32666
20
-5.44989
11
4.33791
21
-5.45551
0
LINE
8
BLACK
6
CONTINUOUS
10
4.33791
20
-5.45551
11
4.34353
21
-5.46676
0
LINE
8
BLACK
6
CONTINUOUS
10
4.34353
20
-5.46676
11
4.34353
21
-5.52863
0
LINE
8
BLACK
6
CONTINUOUS
10
4.57413
20
-5.40489
11
4.47289
21
-5.55675
0
LINE
8
BLACK
6
CONTINUOUS
10
4.72598
20
-5.41052
11
4.73723
21
-5.41052
0
LINE
8
BLACK
6
CONTINUOUS
10
4.73723
20
-5.41052
11
4.74848
21
-5.41614
0
LINE
8
BLACK
6
CONTINUOUS
10
4.74848
20
-5.41614
11
4.75411
21
-5.42177
0
LINE
8
BLACK
6
CONTINUOUS
10
4.75411
20
-5.42177
11
4.75973
21
-5.43301
0
LINE
8
BLACK
6
CONTINUOUS
10
4.75973
20
-5.43301
11
4.76535
21
-5.45551
0
LINE
8
BLACK
6
CONTINUOUS
10
4.76535
20
-5.45551
11
4.76535
21
-5.48363
0
LINE
8
BLACK
6
CONTINUOUS
10
4.76535
20
-5.48363
11
4.75973
21
-5.50613
0
LINE
8
BLACK
6
CONTINUOUS
10
4.75973
20
-5.50613
11
4.75411
21
-5.51738
0
LINE
8
BLACK
6
CONTINUOUS
10
4.75411
20
-5.51738
11
4.74848
21
-5.523
0
LINE
8
BLACK
6
CONTINUOUS
10
4.74848
20
-5.523
11
4.73723
21
-5.52863
0
LINE
8
BLACK
6
CONTINUOUS
10
4.73723
20
-5.52863
11
4.72598
21
-5.52863
0
LINE
8
BLACK
6
CONTINUOUS
10
4.72598
20
-5.52863
11
4.71474
21
-5.523
0
LINE
8
BLACK
6
CONTINUOUS
10
4.71474
20
-5.523
11
4.70911
21
-5.51738
0
LINE
8
BLACK
6
CONTINUOUS
10
4.70911
20
-5.51738
11
4.70349
21
-5.50613
0
LINE
8
BLACK
6
CONTINUOUS
10
4.70349
20
-5.50613
11
4.69786
21
-5.48363
0
LINE
8
BLACK
6
CONTINUOUS
10
4.69786
20
-5.48363
11
4.69786
21
-5.45551
0
LINE
8
BLACK
6
CONTINUOUS
10
4.69786
20
-5.45551
11
4.70349
21
-5.43301
0
LINE
8
BLACK
6
CONTINUOUS
10
4.70349
20
-5.43301
11
4.70911
21
-5.42177
0
LINE
8
BLACK
6
CONTINUOUS
10
4.70911
20
-5.42177
11
4.71474
21
-5.41614
0
LINE
8
BLACK
6
CONTINUOUS
10
4.71474
20
-5.41614
11
4.72598
21
-5.41052
0
LINE
8
BLACK
6
CONTINUOUS
10
4.81597
20
-5.51738
11
4.8216
21
-5.523
0
LINE
8
BLACK
6
CONTINUOUS
10
4.8216
20
-5.523
11
4.81597
21
-5.52863
0
LINE
8
BLACK
6
CONTINUOUS
10
4.81597
20
-5.52863
11
4.81035
21
-5.523
0
LINE
8
BLACK
6
CONTINUOUS
10
4.81035
20
-5.523
11
4.81597
21
-5.51738
0
LINE
8
BLACK
6
CONTINUOUS
10
4.81597
20
-5.51738
11
4.81597
21
-5.52863
0
LINE
8
BLACK
6
CONTINUOUS
10
4.93408
20
-5.52863
11
4.86659
21
-5.52863
0
LINE
8
BLACK
6
CONTINUOUS
10
4.90034
20
-5.52863
11
4.90034
21
-5.41052
0
LINE
8
BLACK
6
CONTINUOUS
10
4.90034
20
-5.41052
11
4.88909
21
-5.42739
0
LINE
8
BLACK
6
CONTINUOUS
10
4.88909
20
-5.42739
11
4.87784
21
-5.43864
0
LINE
8
BLACK
6
CONTINUOUS
10
4.87784
20
-5.43864
11
4.86659
21
-5.44426
0
LINE
8
BLACK
6
CONTINUOUS
10
4.97908
20
-5.42177
11
4.9847
21
-5.41614
0
LINE
8
BLACK
6
CONTINUOUS
10
4.9847
20
-5.41614
11
4.99595
21
-5.41052
0
LINE
8
BLACK
6
CONTINUOUS
10
4.99595
20
-5.41052
11
5.02407
21
-5.41052
0
LINE
8
BLACK
6
CONTINUOUS
10
5.02407
20
-5.41052
11
5.03532
21
-5.41614
0
LINE
8
BLACK
6
CONTINUOUS
10
5.03532
20
-5.41614
11
5.04094
21
-5.42177
0
LINE
8
BLACK
6
CONTINUOUS
10
5.04094
20
-5.42177
11
5.04657
21
-5.43301
0
LINE
8
BLACK
6
CONTINUOUS
10
5.04657
20
-5.43301
11
5.04657
21
-5.44426
0
LINE
8
BLACK
6
CONTINUOUS
10
5.04657
20
-5.44426
11
5.04094
21
-5.46114
0
LINE
8
BLACK
6
CONTINUOUS
10
5.04094
20
-5.46114
11
4.97345
21
-5.52863
0
LINE
8
BLACK
6
CONTINUOUS
10
4.97345
20
-5.52863
11
5.04657
21
-5.52863
0
LINE
8
BLACK
6
CONTINUOUS
10
5.14781
20
-5.41052
11
5.12531
21
-5.41052
0
LINE
8
BLACK
6
CONTINUOUS
10
5.12531
20
-5.41052
11
5.11406
21
-5.41614
0
LINE
8
BLACK
6
CONTINUOUS
10
5.11406
20
-5.41614
11
5.10844
21
-5.42177
0
LINE
8
BLACK
6
CONTINUOUS
10
5.10844
20
-5.42177
11
5.09719
21
-5.43864
0
LINE
8
BLACK
6
CONTINUOUS
10
5.09719
20
-5.43864
11
5.09156
21
-5.46114
0
LINE
8
BLACK
6
CONTINUOUS
10
5.09156
20
-5.46114
11
5.09156
21
-5.50613
0
LINE
8
BLACK
6
CONTINUOUS
10
5.09156
20
-5.50613
11
5.09719
21
-5.51738
0
LINE
8
BLACK
6
CONTINUOUS
10
5.09719
20
-5.51738
11
5.10281
21
-5.523
0
LINE
8
BLACK
6
CONTINUOUS
10
5.10281
20
-5.523
11
5.11406
21
-5.52863
0
LINE
8
BLACK
6
CONTINUOUS
10
5.11406
20
-5.52863
11
5.13656
21
-5.52863
0
LINE
8
BLACK
6
CONTINUOUS
10
5.13656
20
-5.52863
11
5.14781
21
-5.523
0
LINE
8
BLACK
6
CONTINUOUS
10
5.14781
20
-5.523
11
5.15343
21
-5.51738
0
LINE
8
BLACK
6
CONTINUOUS
10
5.15343
20
-5.51738
11
5.15906
21
-5.50613
0
LINE
8
BLACK
6
CONTINUOUS
10
5.15906
20
-5.50613
11
5.15906
21
-5.47801
0
LINE
8
BLACK
6
CONTINUOUS
10
5.15906
20
-5.47801
11
5.15343
21
-5.46676
0
LINE
8
BLACK
6
CONTINUOUS
10
5.15343
20
-5.46676
11
5.14781
21
-5.46114
0
LINE
8
BLACK
6
CONTINUOUS
10
5.14781
20
-5.46114
11
5.13656
21
-5.45551
0
LINE
8
BLACK
6
CONTINUOUS
10
5.13656
20
-5.45551
11
5.11406
21
-5.45551
0
LINE
8
BLACK
6
CONTINUOUS
10
5.11406
20
-5.45551
11
5.10281
21
-5.46114
0
LINE
8
BLACK
6
CONTINUOUS
10
5.10281
20
-5.46114
11
5.09719
21
-5.46676
0
LINE
8
BLACK
6
CONTINUOUS
10
5.09719
20
-5.46676
11
5.09156
21
-5.47801
0
LINE
8
BLACK
6
CONTINUOUS
10
5.20405
20
-5.41052
11
5.20405
21
-5.43301
0
LINE
8
BLACK
6
CONTINUOUS
10
5.24904
20
-5.41052
11
5.24904
21
-5.43301
0
LINE
8
BLACK
6
CONTINUOUS
10
5.4234
20
-5.57362
11
5.41777
21
-5.568
0
LINE
8
BLACK
6
CONTINUOUS
10
5.41777
20
-5.568
11
5.40652
21
-5.55112
0
LINE
8
BLACK
6
CONTINUOUS
10
5.40652
20
-5.55112
11
5.4009
21
-5.53988
0
LINE
8
BLACK
6
CONTINUOUS
10
5.4009
20
-5.53988
11
5.39528
21
-5.523
0
LINE
8
BLACK
6
CONTINUOUS
10
5.39528
20
-5.523
11
5.38965
21
-5.49488
0
LINE
8
BLACK
6
CONTINUOUS
10
5.38965
20
-5.49488
11
5.38965
21
-5.47238
0
LINE
8
BLACK
6
CONTINUOUS
10
5.38965
20
-5.47238
11
5.39528
21
-5.44426
0
LINE
8
BLACK
6
CONTINUOUS
10
5.39528
20
-5.44426
11
5.4009
21
-5.42739
0
LINE
8
BLACK
6
CONTINUOUS
10
5.4009
20
-5.42739
11
5.40652
21
-5.41614
0
LINE
8
BLACK
6
CONTINUOUS
10
5.40652
20
-5.41614
11
5.41777
21
-5.39927
0
LINE
8
BLACK
6
CONTINUOUS
10
5.41777
20
-5.39927
11
5.4234
21
-5.39364
0
LINE
8
BLACK
6
CONTINUOUS
10
5.51901
20
-5.44989
11
5.51901
21
-5.52863
0
LINE
8
BLACK
6
CONTINUOUS
10
5.49089
20
-5.40489
11
5.46277
21
-5.48926
0
LINE
8
BLACK
6
CONTINUOUS
10
5.46277
20
-5.48926
11
5.53588
21
-5.48926
0
LINE
8
BLACK
6
CONTINUOUS
10
5.67087
20
-5.52863
11
5.67087
21
-5.41052
0
LINE
8
BLACK
6
CONTINUOUS
10
5.72148
20
-5.52863
11
5.72148
21
-5.46676
0
LINE
8
BLACK
6
CONTINUOUS
10
5.72148
20
-5.46676
11
5.71586
21
-5.45551
0
LINE
8
BLACK
6
CONTINUOUS
10
5.71586
20
-5.45551
11
5.70461
21
-5.44989
0
LINE
8
BLACK
6
CONTINUOUS
10
5.70461
20
-5.44989
11
5.68774
21
-5.44989
0
LINE
8
BLACK
6
CONTINUOUS
10
5.68774
20
-5.44989
11
5.67649
21
-5.45551
0
LINE
8
BLACK
6
CONTINUOUS
10
5.67649
20
-5.45551
11
5.67087
21
-5.46114
0
LINE
8
BLACK
6
CONTINUOUS
10
5.7946
20
-5.52863
11
5.78335
21
-5.523
0
LINE
8
BLACK
6
CONTINUOUS
10
5.78335
20
-5.523
11
5.77773
21
-5.51738
0
LINE
8
BLACK
6
CONTINUOUS
10
5.77773
20
-5.51738
11
5.7721
21
-5.50613
0
LINE
8
BLACK
6
CONTINUOUS
10
5.7721
20
-5.50613
11
5.7721
21
-5.47238
0
LINE
8
BLACK
6
CONTINUOUS
10
5.7721
20
-5.47238
11
5.77773
21
-5.46114
0
LINE
8
BLACK
6
CONTINUOUS
10
5.77773
20
-5.46114
11
5.78335
21
-5.45551
0
LINE
8
BLACK
6
CONTINUOUS
10
5.78335
20
-5.45551
11
5.7946
21
-5.44989
0
LINE
8
BLACK
6
CONTINUOUS
10
5.7946
20
-5.44989
11
5.81147
21
-5.44989
0
LINE
8
BLACK
6
CONTINUOUS
10
5.81147
20
-5.44989
11
5.82272
21
-5.45551
0
LINE
8
BLACK
6
CONTINUOUS
10
5.82272
20
-5.45551
11
5.82835
21
-5.46114
0
LINE
8
BLACK
6
CONTINUOUS
10
5.82835
20
-5.46114
11
5.83397
21
-5.47238
0
LINE
8
BLACK
6
CONTINUOUS
10
5.83397
20
-5.47238
11
5.83397
21
-5.50613
0
LINE
8
BLACK
6
CONTINUOUS
10
5.83397
20
-5.50613
11
5.82835
21
-5.51738
0
LINE
8
BLACK
6
CONTINUOUS
10
5.82835
20
-5.51738
11
5.82272
21
-5.523
0
LINE
8
BLACK
6
CONTINUOUS
10
5.82272
20
-5.523
11
5.81147
21
-5.52863
0
LINE
8
BLACK
6
CONTINUOUS
10
5.81147
20
-5.52863
11
5.7946
21
-5.52863
0
LINE
8
BLACK
6
CONTINUOUS
10
5.90146
20
-5.52863
11
5.89021
21
-5.523
0
LINE
8
BLACK
6
CONTINUOUS
10
5.89021
20
-5.523
11
5.88459
21
-5.51175
0
LINE
8
BLACK
6
CONTINUOUS
10
5.88459
20
-5.51175
11
5.88459
21
-5.41052
0
LINE
8
BLACK
6
CONTINUOUS
10
5.99145
20
-5.523
11
5.9802
21
-5.52863
0
LINE
8
BLACK
6
CONTINUOUS
10
5.9802
20
-5.52863
11
5.95771
21
-5.52863
0
LINE
8
BLACK
6
CONTINUOUS
10
5.95771
20
-5.52863
11
5.94646
21
-5.523
0
LINE
8
BLACK
6
CONTINUOUS
10
5.94646
20
-5.523
11
5.94083
21
-5.51175
0
LINE
8
BLACK
6
CONTINUOUS
10
5.94083
20
-5.51175
11
5.94083
21
-5.46676
0
LINE
8
BLACK
6
CONTINUOUS
10
5.94083
20
-5.46676
11
5.94646
21
-5.45551
0
LINE
8
BLACK
6
CONTINUOUS
10
5.94646
20
-5.45551
11
5.95771
21
-5.44989
0
LINE
8
BLACK
6
CONTINUOUS
10
5.95771
20
-5.44989
11
5.9802
21
-5.44989
0
LINE
8
BLACK
6
CONTINUOUS
10
5.9802
20
-5.44989
11
5.99145
21
-5.45551
0
LINE
8
BLACK
6
CONTINUOUS
10
5.99145
20
-5.45551
11
5.99708
21
-5.46676
0
LINE
8
BLACK
6
CONTINUOUS
10
5.99708
20
-5.46676
11
5.99708
21
-5.47801
0
LINE
8
BLACK
6
CONTINUOUS
10
5.99708
20
-5.47801
11
5.94083
21
-5.48926
0
LINE
8
BLACK
6
CONTINUOUS
10
6.04207
20
-5.523
11
6.05332
21
-5.52863
0
LINE
8
BLACK
6
CONTINUOUS
10
6.05332
20
-5.52863
11
6.07582
21
-5.52863
0
LINE
8
BLACK
6
CONTINUOUS
10
6.07582
20
-5.52863
11
6.08706
21
-5.523
0
LINE
8
BLACK
6
CONTINUOUS
10
6.08706
20
-5.523
11
6.09269
21
-5.51175
0
LINE
8
BLACK
6
CONTINUOUS
10
6.09269
20
-5.51175
11
6.09269
21
-5.50613
0
LINE
8
BLACK
6
CONTINUOUS
10
6.09269
20
-5.50613
11
6.08706
21
-5.49488
0
LINE
8
BLACK
6
CONTINUOUS
10
6.08706
20
-5.49488
11
6.07582
21
-5.48926
0
LINE
8
BLACK
6
CONTINUOUS
10
6.07582
20
-5.48926
11
6.05894
21
-5.48926
0
LINE
8
BLACK
6
CONTINUOUS
10
6.05894
20
-5.48926
11
6.04769
21
-5.48363
0
LINE
8
BLACK
6
CONTINUOUS
10
6.04769
20
-5.48363
11
6.04207
21
-5.47238
0
LINE
8
BLACK
6
CONTINUOUS
10
6.04207
20
-5.47238
11
6.04207
21
-5.46676
0
LINE
8
BLACK
6
CONTINUOUS
10
6.04207
20
-5.46676
11
6.04769
21
-5.45551
0
LINE
8
BLACK
6
CONTINUOUS
10
6.04769
20
-5.45551
11
6.05894
21
-5.44989
0
LINE
8
BLACK
6
CONTINUOUS
10
6.05894
20
-5.44989
11
6.07582
21
-5.44989
0
LINE
8
BLACK
6
CONTINUOUS
10
6.07582
20
-5.44989
11
6.08706
21
-5.45551
0
LINE
8
BLACK
6
CONTINUOUS
10
6.13206
20
-5.57362
11
6.13768
21
-5.568
0
LINE
8
BLACK
6
CONTINUOUS
10
6.13768
20
-5.568
11
6.14893
21
-5.55112
0
LINE
8
BLACK
6
CONTINUOUS
10
6.14893
20
-5.55112
11
6.15456
21
-5.53988
0
LINE
8
BLACK
6
CONTINUOUS
10
6.15456
20
-5.53988
11
6.16018
21
-5.523
0
LINE
8
BLACK
6
CONTINUOUS
10
6.16018
20
-5.523
11
6.1658
21
-5.49488
0
LINE
8
BLACK
6
CONTINUOUS
10
6.1658
20
-5.49488
11
6.1658
21
-5.47238
0
LINE
8
BLACK
6
CONTINUOUS
10
6.1658
20
-5.47238
11
6.16018
21
-5.44426
0
LINE
8
BLACK
6
CONTINUOUS
10
6.16018
20
-5.44426
11
6.15456
21
-5.42739
0
LINE
8
BLACK
6
CONTINUOUS
10
6.15456
20
-5.42739
11
6.14893
21
-5.41614
0
LINE
8
BLACK
6
CONTINUOUS
10
6.14893
20
-5.41614
11
6.13768
21
-5.39927
0
LINE
8
BLACK
6
CONTINUOUS
10
6.13768
20
-5.39927
11
6.13206
21
-5.39364
  0
ENDSEC
  0
EOF
