M48
;DRILL file {KiCad 5.0.2-bee76a0~70~ubuntu16.04.1} date Fri 12 Apr 2019 22:24:20 +0530
;FORMAT={-:-/ absolute / metric / decimal}
FMAT,2
METRIC,TZ
T1C0.406
T2C0.650
T3C0.825
T4C1.000
T5C3.200
%
G90
G05
T1
X93.09Y-110.57
X96.366Y-82.09
X96.366Y-93.164
X96.53Y-110.57
X97.35Y-62.32
X97.35Y-63.26
X97.35Y-64.19
X97.6Y-71.6
X97.6Y-75.95
X97.688Y-73.75
X98.44Y-89.12
X99.34Y-77.98
X100.03Y-72.4
X100.09Y-110.57
X101.02Y-66.68
X101.19Y-77.99
X102.41Y-71.57
X102.49Y-90.68
X102.67Y-77.974
X102.755Y-85.075
X103.84Y-101.4
X104.13Y-74.866
X104.35Y-70.39
X104.46Y-83.32
X104.71Y-77.974
X105.09Y-91.37
X105.09Y-92.47
X105.09Y-93.58
X106.58Y-72.41
X106.6Y-66.8
X106.62Y-105.48
X107.39Y-73.75
X107.39Y-75.95
X109.71Y-86.33
X109.71Y-88.07
X109.71Y-90.48
X109.95Y-70.675
X109.95Y-73.69
X112.465Y-66.48
X114.68Y-102.95
X114.97Y-79.23
X114.97Y-85.
X114.98Y-87.04
X114.99Y-90.48
X114.99Y-91.97
X118.08Y-73.69
X119.1Y-99.56
X122.13Y-105.38
X122.24Y-75.21
X122.75Y-64.53
X123.955Y-101.525
X124.95Y-98.775
X125.21Y-103.17
X126.64Y-97.75
X128.18Y-102.67
X128.23Y-88.
X129.43Y-86.2
X129.43Y-87.5
X129.43Y-87.5
X130.32Y-103.85
X130.33Y-100.04
X130.53Y-85.8
X130.53Y-85.8
X132.77Y-83.31
X134.06Y-87.08
X134.65Y-93.25
X135.05Y-101.58
X135.23Y-88.65
X135.55Y-94.35
X135.87Y-91.12
X135.96Y-87.06
X135.98Y-106.4
X136.57Y-93.3
X136.85Y-74.11
X137.73Y-105.12
X137.99Y-71.32
X138.3Y-87.42
X138.57Y-102.58
X138.58Y-103.85
X138.6Y-107.66
X139.07Y-94.01
X139.75Y-70.44
X140.01Y-93.13
X140.07Y-87.63
X140.55Y-86.3
X140.61Y-76.02
X141.22Y-92.24
X141.26Y-91.1
X141.63Y-74.64
X141.83Y-94.18
X141.98Y-80.18
X143.04Y-77.39
X143.07Y-81.27
X143.75Y-106.22
X143.88Y-96.44
X144.64Y-83.59
X145.13Y-85.22
X145.39Y-68.24
X145.6Y-89.8
X145.72Y-106.2
X146.2Y-77.42
X147.76Y-77.42
X148.04Y-106.2
X149.38Y-106.14
X150.27Y-93.88
X150.45Y-68.62
X150.66Y-85.14
X150.74Y-89.92
X151.02Y-77.99
X151.24Y-82.46
X151.57Y-105.75
X152.25Y-69.8
X152.89Y-87.27
X152.89Y-100.89
X152.9Y-105.55
X154.71Y-78.9
X154.72Y-87.23
X155.31Y-72.59
X155.42Y-91.29
X155.6Y-70.45
X156.05Y-99.41
X156.23Y-78.41
X156.67Y-105.75
X156.91Y-82.7
X157.89Y-95.5
X158.33Y-72.66
X160.19Y-66.25
X160.19Y-80.17
X160.64Y-68.65
X161.33Y-71.5
X161.335Y-95.215
X162.21Y-79.69
X162.76Y-100.48
X163.7Y-70.05
X165.36Y-80.07
X166.49Y-99.04
X166.67Y-106.32
X166.68Y-107.3
X166.68Y-108.28
X167.25Y-80.94
X167.62Y-66.24
X168.12Y-87.62
X168.15Y-91.41
X168.17Y-90.16
X168.48Y-99.05
X168.51Y-97.79
X168.519Y-96.529
X168.52Y-95.26
X170.37Y-93.54
X170.54Y-71.32
X171.44Y-86.13
X172.76Y-82.46
X172.9Y-100.54
X173.02Y-111.
X173.06Y-68.78
X173.29Y-71.32
X173.36Y-91.42
X173.37Y-86.43
X174.1Y-90.09
X174.29Y-103.77
X174.31Y-111.
X175.5Y-111.03
X176.05Y-98.36
X178.65Y-93.25
X179.59Y-68.94
X179.79Y-95.86
X179.79Y-98.38
X180.16Y-93.34
X181.86Y-106.32
X181.87Y-108.28
X181.88Y-107.3
T4
X115.82Y-94.34
X118.36Y-94.34
X120.9Y-94.34
X123.44Y-94.34
X125.98Y-94.34
X128.52Y-94.34
X156.31Y-62.75
X158.85Y-62.75
X161.39Y-62.75
X163.93Y-62.75
X166.47Y-62.75
X169.01Y-62.75
X171.55Y-62.75
X174.09Y-62.75
X131.43Y-62.75
X133.97Y-62.75
X136.51Y-62.75
X139.05Y-62.75
X184.89Y-70.41
X184.89Y-72.95
X184.89Y-75.49
X184.89Y-78.03
X184.89Y-80.57
X184.89Y-83.11
X184.89Y-85.65
X184.89Y-88.19
X184.89Y-90.73
X184.89Y-93.27
X184.89Y-95.81
X184.89Y-98.35
X184.89Y-100.89
X184.89Y-103.43
X187.43Y-70.41
X187.43Y-72.95
X187.43Y-75.49
X187.43Y-78.03
X187.43Y-80.57
X187.43Y-83.11
X187.43Y-85.65
X187.43Y-88.19
X187.43Y-90.73
X187.43Y-93.27
X187.43Y-95.81
X187.43Y-98.35
X187.43Y-100.89
X187.43Y-103.43
X143.85Y-62.75
X146.39Y-62.75
X148.93Y-62.75
X151.47Y-62.75
X125.17Y-76.95
X125.17Y-79.49
X125.17Y-82.03
X125.17Y-84.57
X125.17Y-87.11
X125.17Y-89.65
X115.07Y-111.09
X117.61Y-111.09
X120.15Y-111.09
X122.69Y-111.09
X125.23Y-111.09
X127.77Y-111.09
X130.31Y-111.09
X135.4Y-111.09
X137.94Y-111.09
X140.48Y-111.09
X143.02Y-111.09
X145.56Y-111.09
X148.1Y-111.09
X150.64Y-111.09
X153.18Y-111.09
X155.72Y-111.09
X158.26Y-111.09
X160.8Y-111.09
X163.34Y-111.09
X113.93Y-62.75
X116.47Y-62.75
X119.01Y-62.75
X121.55Y-62.75
X124.09Y-62.75
X126.63Y-62.75
T5
X104.88Y-111.02
X187.42Y-111.01
X181.09Y-62.78
X106.15Y-62.77
T2
X95.6Y-72.425G85X95.8Y-72.425
G05
X95.6Y-77.275G85X95.8Y-77.275
G05
T3
X92.362Y-71.294G85X93.037Y-71.294
G05
X92.362Y-78.406G85X93.037Y-78.406
G05
T0
M30
