  0
SECTION
  2
HEADER
  9
$ANGBASE
  50
0.0
  9
$ANGDIR
  70
  1
  9
$MEASUREMENT
  70
0
  0
ENDSEC
  0
SECTION
  2
TABLES
  0
TABLE
  2
LTYPE
  70
4
  0
LTYPE
  5
40F
  2
CONTINUOUS
  70
0
  3
Solid line
  72
65
  73
0
  40
0.0
  0
LTYPE
  5
410
  2
DASHDOT
 70
0
  3
Dash Dot ____ _ ____ _
 72
65
 73
4
 40
2.0
 49
1.25
 49
-0.25
 49
0.25
 49
-0.25
  0
LTYPE
  5
411
  2
DASHED
 70
0
  3
Dashed __ __ __ __ __
 72
65
 73
2
 40
0.75
 49
0.5
 49
-0.25
  0
LTYPE
  5
43B
  2
DOTTED
 70
0
  3
Dotted .  .  .  .
 72
65
 73
2
 40
0.2
 49
0.0
 49
-0.2
  0
ENDTAB
  0
TABLE
  2
STYLE
  70
4
  0
STYLE
  2
KICAD
  70
0
  40
0
  41
1
  42
1
  50
0
  71
0
  3
isocp.shx
  0
STYLE
  2
KICADB
  70
0
  40
0
  41
1
  42
1
  50
0
  71
0
  3
isocp.shx
  0
STYLE
  2
KICADI
  70
0
  40
0
  41
1
  42
1
  50
15
  71
0
  3
isocp.shx
  0
STYLE
  2
KICADBI
  70
0
  40
0
  41
1
  42
1
  50
15
  71
0
  3
isocp.shx
  0
ENDTAB
  0
TABLE
  2
LAYER
  70
30
  0
LAYER
  2
BLACK
  70
0
  62
7
  6
CONTINUOUS
  0
LAYER
  2
GRAY1
  70
0
  62
251
  6
CONTINUOUS
  0
LAYER
  2
GRAY2
  70
0
  62
8
  6
CONTINUOUS
  0
LAYER
  2
GRAY3
  70
0
  62
9
  6
CONTINUOUS
  0
LAYER
  2
WHITE
  70
0
  62
7
  6
CONTINUOUS
  0
LAYER
  2
LYELLOW
  70
0
  62
51
  6
CONTINUOUS
  0
LAYER
  2
BLUE1
  70
0
  62
178
  6
CONTINUOUS
  0
LAYER
  2
GREEN1
  70
0
  62
98
  6
CONTINUOUS
  0
LAYER
  2
CYAN1
  70
0
  62
138
  6
CONTINUOUS
  0
LAYER
  2
RED1
  70
0
  62
18
  6
CONTINUOUS
  0
LAYER
  2
MAGENTA1
  70
0
  62
228
  6
CONTINUOUS
  0
LAYER
  2
BROWN1
  70
0
  62
58
  6
CONTINUOUS
  0
LAYER
  2
BLUE2
  70
0
  62
5
  6
CONTINUOUS
  0
LAYER
  2
GREEN2
  70
0
  62
3
  6
CONTINUOUS
  0
LAYER
  2
CYAN2
  70
0
  62
4
  6
CONTINUOUS
  0
LAYER
  2
RED2
  70
0
  62
1
  6
CONTINUOUS
  0
LAYER
  2
MAGENTA2
  70
0
  62
6
  6
CONTINUOUS
  0
LAYER
  2
BROWN2
  70
0
  62
54
  6
CONTINUOUS
  0
LAYER
  2
BLUE3
  70
0
  62
171
  6
CONTINUOUS
  0
LAYER
  2
GREEN3
  70
0
  62
91
  6
CONTINUOUS
  0
LAYER
  2
CYAN3
  70
0
  62
131
  6
CONTINUOUS
  0
LAYER
  2
RED3
  70
0
  62
11
  6
CONTINUOUS
  0
LAYER
  2
MAGENTA3
  70
0
  62
221
  6
CONTINUOUS
  0
LAYER
  2
YELLOW3
  70
0
  62
2
  6
CONTINUOUS
  0
LAYER
  2
BLUE4
  70
0
  62
5
  6
CONTINUOUS
  0
LAYER
  2
GREEN4
  70
0
  62
3
  6
CONTINUOUS
  0
LAYER
  2
CYAN4
  70
0
  62
4
  6
CONTINUOUS
  0
LAYER
  2
RED4
  70
0
  62
1
  6
CONTINUOUS
  0
LAYER
  2
MAGENTA4
  70
0
  62
6
  6
CONTINUOUS
  0
LAYER
  2
YELLOW4
  70
0
  62
2
  6
CONTINUOUS
  0
ENDTAB
  0
ENDSEC
  0
SECTION
  2
ENTITIES
0
LINE
8
BLACK
6
CONTINUOUS
10
90.94
20
-60.27
11
90.96
21
-60.27
0
LINE
8
BLACK
6
CONTINUOUS
10
90.94
20
-113.58
11
90.94
21
-60.27
0
LINE
8
BLACK
6
CONTINUOUS
10
189.97
20
-113.58
11
90.94
21
-113.58
0
LINE
8
BLACK
6
CONTINUOUS
10
189.97
20
-113.56
11
189.97
21
-113.58
0
LINE
8
BLACK
6
CONTINUOUS
10
189.97
20
-113.55
11
189.97
21
-113.56
0
LINE
8
BLACK
6
CONTINUOUS
10
189.97
20
-113.54
11
189.97
21
-113.55
0
LINE
8
BLACK
6
CONTINUOUS
10
189.97
20
-113.53
11
189.97
21
-113.54
0
LINE
8
BLACK
6
CONTINUOUS
10
189.97
20
-61.79
11
189.97
21
-113.53
0
LINE
8
BLACK
6
CONTINUOUS
10
189.96
20
-61.78
11
189.97
21
-61.79
0
LINE
8
BLACK
6
CONTINUOUS
10
189.95
20
-61.77
11
189.96
21
-61.78
0
LINE
8
BLACK
6
CONTINUOUS
10
188.45
20
-60.27
11
189.95
21
-61.77
0
LINE
8
BLACK
6
CONTINUOUS
10
188.44
20
-60.27
11
188.45
21
-60.27
0
LINE
8
BLACK
6
CONTINUOUS
10
188.43
20
-60.27
11
188.44
21
-60.27
0
LINE
8
BLACK
6
CONTINUOUS
10
188.42
20
-60.27
11
188.43
21
-60.27
0
LINE
8
BLACK
6
CONTINUOUS
10
90.97
20
-60.27
11
188.42
21
-60.27
0
LINE
8
BLACK
6
CONTINUOUS
10
90.94
20
-113.58
11
90.94
21
-113.6
0
LINE
8
BLACK
6
CONTINUOUS
10
92.8868
20
-110.367
11
93.2932
21
-110.773
0
LINE
8
BLACK
6
CONTINUOUS
10
93.2932
20
-110.367
11
92.8868
21
-110.773
0
LINE
8
BLACK
6
CONTINUOUS
10
96.163
20
-81.8868
11
96.5694
21
-82.2932
0
LINE
8
BLACK
6
CONTINUOUS
10
96.5694
20
-81.8868
11
96.163
21
-82.2932
0
LINE
8
BLACK
6
CONTINUOUS
10
96.163
20
-92.9606
11
96.5694
21
-93.367
0
LINE
8
BLACK
6
CONTINUOUS
10
96.5694
20
-92.9606
11
96.163
21
-93.367
0
LINE
8
BLACK
6
CONTINUOUS
10
96.3268
20
-110.367
11
96.7332
21
-110.773
0
LINE
8
BLACK
6
CONTINUOUS
10
96.7332
20
-110.367
11
96.3268
21
-110.773
0
LINE
8
BLACK
6
CONTINUOUS
10
97.1468
20
-62.1168
11
97.5532
21
-62.5232
0
LINE
8
BLACK
6
CONTINUOUS
10
97.5532
20
-62.1168
11
97.1468
21
-62.5232
0
LINE
8
BLACK
6
CONTINUOUS
10
97.1468
20
-63.0568
11
97.5532
21
-63.4632
0
LINE
8
BLACK
6
CONTINUOUS
10
97.5532
20
-63.0568
11
97.1468
21
-63.4632
0
LINE
8
BLACK
6
CONTINUOUS
10
97.1468
20
-63.9868
11
97.5532
21
-64.3932
0
LINE
8
BLACK
6
CONTINUOUS
10
97.5532
20
-63.9868
11
97.1468
21
-64.3932
0
LINE
8
BLACK
6
CONTINUOUS
10
97.3968
20
-71.3968
11
97.8032
21
-71.8032
0
LINE
8
BLACK
6
CONTINUOUS
10
97.8032
20
-71.3968
11
97.3968
21
-71.8032
0
LINE
8
BLACK
6
CONTINUOUS
10
97.3968
20
-75.7468
11
97.8032
21
-76.1532
0
LINE
8
BLACK
6
CONTINUOUS
10
97.8032
20
-75.7468
11
97.3968
21
-76.1532
0
LINE
8
BLACK
6
CONTINUOUS
10
97.4843
20
-73.5468
11
97.8907
21
-73.9532
0
LINE
8
BLACK
6
CONTINUOUS
10
97.8907
20
-73.5468
11
97.4843
21
-73.9532
0
LINE
8
BLACK
6
CONTINUOUS
10
98.2368
20
-88.9168
11
98.6432
21
-89.3232
0
LINE
8
BLACK
6
CONTINUOUS
10
98.6432
20
-88.9168
11
98.2368
21
-89.3232
0
LINE
8
BLACK
6
CONTINUOUS
10
99.1368
20
-77.7768
11
99.5432
21
-78.1832
0
LINE
8
BLACK
6
CONTINUOUS
10
99.5432
20
-77.7768
11
99.1368
21
-78.1832
0
LINE
8
BLACK
6
CONTINUOUS
10
99.8268
20
-72.1968
11
100.233
21
-72.6032
0
LINE
8
BLACK
6
CONTINUOUS
10
100.233
20
-72.1968
11
99.8268
21
-72.6032
0
LINE
8
BLACK
6
CONTINUOUS
10
99.8868
20
-110.367
11
100.293
21
-110.773
0
LINE
8
BLACK
6
CONTINUOUS
10
100.293
20
-110.367
11
99.8868
21
-110.773
0
LINE
8
BLACK
6
CONTINUOUS
10
100.817
20
-66.4768
11
101.223
21
-66.8832
0
LINE
8
BLACK
6
CONTINUOUS
10
101.223
20
-66.4768
11
100.817
21
-66.8832
0
LINE
8
BLACK
6
CONTINUOUS
10
100.987
20
-77.7868
11
101.393
21
-78.1932
0
LINE
8
BLACK
6
CONTINUOUS
10
101.393
20
-77.7868
11
100.987
21
-78.1932
0
LINE
8
BLACK
6
CONTINUOUS
10
102.207
20
-71.3668
11
102.613
21
-71.7732
0
LINE
8
BLACK
6
CONTINUOUS
10
102.613
20
-71.3668
11
102.207
21
-71.7732
0
LINE
8
BLACK
6
CONTINUOUS
10
102.287
20
-90.4768
11
102.693
21
-90.8832
0
LINE
8
BLACK
6
CONTINUOUS
10
102.693
20
-90.4768
11
102.287
21
-90.8832
0
LINE
8
BLACK
6
CONTINUOUS
10
102.467
20
-77.7712
11
102.873
21
-78.1776
0
LINE
8
BLACK
6
CONTINUOUS
10
102.873
20
-77.7712
11
102.467
21
-78.1776
0
LINE
8
BLACK
6
CONTINUOUS
10
102.552
20
-84.8718
11
102.958
21
-85.2782
0
LINE
8
BLACK
6
CONTINUOUS
10
102.958
20
-84.8718
11
102.552
21
-85.2782
0
LINE
8
BLACK
6
CONTINUOUS
10
103.637
20
-101.197
11
104.043
21
-101.603
0
LINE
8
BLACK
6
CONTINUOUS
10
104.043
20
-101.197
11
103.637
21
-101.603
0
LINE
8
BLACK
6
CONTINUOUS
10
103.927
20
-74.6624
11
104.333
21
-75.0688
0
LINE
8
BLACK
6
CONTINUOUS
10
104.333
20
-74.6624
11
103.927
21
-75.0688
0
LINE
8
BLACK
6
CONTINUOUS
10
104.147
20
-70.1868
11
104.553
21
-70.5932
0
LINE
8
BLACK
6
CONTINUOUS
10
104.553
20
-70.1868
11
104.147
21
-70.5932
0
LINE
8
BLACK
6
CONTINUOUS
10
104.257
20
-83.1168
11
104.663
21
-83.5232
0
LINE
8
BLACK
6
CONTINUOUS
10
104.663
20
-83.1168
11
104.257
21
-83.5232
0
LINE
8
BLACK
6
CONTINUOUS
10
104.507
20
-77.7712
11
104.913
21
-78.1776
0
LINE
8
BLACK
6
CONTINUOUS
10
104.913
20
-77.7712
11
104.507
21
-78.1776
0
LINE
8
BLACK
6
CONTINUOUS
10
104.887
20
-91.1668
11
105.293
21
-91.5732
0
LINE
8
BLACK
6
CONTINUOUS
10
105.293
20
-91.1668
11
104.887
21
-91.5732
0
LINE
8
BLACK
6
CONTINUOUS
10
104.887
20
-92.2668
11
105.293
21
-92.6732
0
LINE
8
BLACK
6
CONTINUOUS
10
105.293
20
-92.2668
11
104.887
21
-92.6732
0
LINE
8
BLACK
6
CONTINUOUS
10
104.887
20
-93.3768
11
105.293
21
-93.7832
0
LINE
8
BLACK
6
CONTINUOUS
10
105.293
20
-93.3768
11
104.887
21
-93.7832
0
LINE
8
BLACK
6
CONTINUOUS
10
106.377
20
-72.2068
11
106.783
21
-72.6132
0
LINE
8
BLACK
6
CONTINUOUS
10
106.783
20
-72.2068
11
106.377
21
-72.6132
0
LINE
8
BLACK
6
CONTINUOUS
10
106.397
20
-66.5968
11
106.803
21
-67.0032
0
LINE
8
BLACK
6
CONTINUOUS
10
106.803
20
-66.5968
11
106.397
21
-67.0032
0
LINE
8
BLACK
6
CONTINUOUS
10
106.417
20
-105.277
11
106.823
21
-105.683
0
LINE
8
BLACK
6
CONTINUOUS
10
106.823
20
-105.277
11
106.417
21
-105.683
0
LINE
8
BLACK
6
CONTINUOUS
10
107.187
20
-73.5468
11
107.593
21
-73.9532
0
LINE
8
BLACK
6
CONTINUOUS
10
107.593
20
-73.5468
11
107.187
21
-73.9532
0
LINE
8
BLACK
6
CONTINUOUS
10
107.187
20
-75.7468
11
107.593
21
-76.1532
0
LINE
8
BLACK
6
CONTINUOUS
10
107.593
20
-75.7468
11
107.187
21
-76.1532
0
LINE
8
BLACK
6
CONTINUOUS
10
109.507
20
-86.1268
11
109.913
21
-86.5332
0
LINE
8
BLACK
6
CONTINUOUS
10
109.913
20
-86.1268
11
109.507
21
-86.5332
0
LINE
8
BLACK
6
CONTINUOUS
10
109.507
20
-87.8668
11
109.913
21
-88.2732
0
LINE
8
BLACK
6
CONTINUOUS
10
109.913
20
-87.8668
11
109.507
21
-88.2732
0
LINE
8
BLACK
6
CONTINUOUS
10
109.507
20
-90.2768
11
109.913
21
-90.6832
0
LINE
8
BLACK
6
CONTINUOUS
10
109.913
20
-90.2768
11
109.507
21
-90.6832
0
LINE
8
BLACK
6
CONTINUOUS
10
109.747
20
-70.4718
11
110.153
21
-70.8782
0
LINE
8
BLACK
6
CONTINUOUS
10
110.153
20
-70.4718
11
109.747
21
-70.8782
0
LINE
8
BLACK
6
CONTINUOUS
10
109.747
20
-73.4868
11
110.153
21
-73.8932
0
LINE
8
BLACK
6
CONTINUOUS
10
110.153
20
-73.4868
11
109.747
21
-73.8932
0
LINE
8
BLACK
6
CONTINUOUS
10
112.262
20
-66.2768
11
112.668
21
-66.6832
0
LINE
8
BLACK
6
CONTINUOUS
10
112.668
20
-66.2768
11
112.262
21
-66.6832
0
LINE
8
BLACK
6
CONTINUOUS
10
114.477
20
-102.747
11
114.883
21
-103.153
0
LINE
8
BLACK
6
CONTINUOUS
10
114.883
20
-102.747
11
114.477
21
-103.153
0
LINE
8
BLACK
6
CONTINUOUS
10
114.767
20
-79.0268
11
115.173
21
-79.4332
0
LINE
8
BLACK
6
CONTINUOUS
10
115.173
20
-79.0268
11
114.767
21
-79.4332
0
LINE
8
BLACK
6
CONTINUOUS
10
114.767
20
-84.7968
11
115.173
21
-85.2032
0
LINE
8
BLACK
6
CONTINUOUS
10
115.173
20
-84.7968
11
114.767
21
-85.2032
0
LINE
8
BLACK
6
CONTINUOUS
10
114.777
20
-86.8368
11
115.183
21
-87.2432
0
LINE
8
BLACK
6
CONTINUOUS
10
115.183
20
-86.8368
11
114.777
21
-87.2432
0
LINE
8
BLACK
6
CONTINUOUS
10
114.787
20
-90.2768
11
115.193
21
-90.6832
0
LINE
8
BLACK
6
CONTINUOUS
10
115.193
20
-90.2768
11
114.787
21
-90.6832
0
LINE
8
BLACK
6
CONTINUOUS
10
114.787
20
-91.7668
11
115.193
21
-92.1732
0
LINE
8
BLACK
6
CONTINUOUS
10
115.193
20
-91.7668
11
114.787
21
-92.1732
0
LINE
8
BLACK
6
CONTINUOUS
10
117.877
20
-73.4868
11
118.283
21
-73.8932
0
LINE
8
BLACK
6
CONTINUOUS
10
118.283
20
-73.4868
11
117.877
21
-73.8932
0
LINE
8
BLACK
6
CONTINUOUS
10
118.897
20
-99.3568
11
119.303
21
-99.7632
0
LINE
8
BLACK
6
CONTINUOUS
10
119.303
20
-99.3568
11
118.897
21
-99.7632
0
LINE
8
BLACK
6
CONTINUOUS
10
121.927
20
-105.177
11
122.333
21
-105.583
0
LINE
8
BLACK
6
CONTINUOUS
10
122.333
20
-105.177
11
121.927
21
-105.583
0
LINE
8
BLACK
6
CONTINUOUS
10
122.037
20
-75.0068
11
122.443
21
-75.4132
0
LINE
8
BLACK
6
CONTINUOUS
10
122.443
20
-75.0068
11
122.037
21
-75.4132
0
LINE
8
BLACK
6
CONTINUOUS
10
122.547
20
-64.3268
11
122.953
21
-64.7332
0
LINE
8
BLACK
6
CONTINUOUS
10
122.953
20
-64.3268
11
122.547
21
-64.7332
0
LINE
8
BLACK
6
CONTINUOUS
10
123.752
20
-101.322
11
124.158
21
-101.728
0
LINE
8
BLACK
6
CONTINUOUS
10
124.158
20
-101.322
11
123.752
21
-101.728
0
LINE
8
BLACK
6
CONTINUOUS
10
124.747
20
-98.5718
11
125.153
21
-98.9782
0
LINE
8
BLACK
6
CONTINUOUS
10
125.153
20
-98.5718
11
124.747
21
-98.9782
0
LINE
8
BLACK
6
CONTINUOUS
10
125.007
20
-102.967
11
125.413
21
-103.373
0
LINE
8
BLACK
6
CONTINUOUS
10
125.413
20
-102.967
11
125.007
21
-103.373
0
LINE
8
BLACK
6
CONTINUOUS
10
126.437
20
-97.5468
11
126.843
21
-97.9532
0
LINE
8
BLACK
6
CONTINUOUS
10
126.843
20
-97.5468
11
126.437
21
-97.9532
0
LINE
8
BLACK
6
CONTINUOUS
10
127.977
20
-102.467
11
128.383
21
-102.873
0
LINE
8
BLACK
6
CONTINUOUS
10
128.383
20
-102.467
11
127.977
21
-102.873
0
LINE
8
BLACK
6
CONTINUOUS
10
128.027
20
-87.7968
11
128.433
21
-88.2032
0
LINE
8
BLACK
6
CONTINUOUS
10
128.433
20
-87.7968
11
128.027
21
-88.2032
0
LINE
8
BLACK
6
CONTINUOUS
10
129.227
20
-85.9968
11
129.633
21
-86.4032
0
LINE
8
BLACK
6
CONTINUOUS
10
129.633
20
-85.9968
11
129.227
21
-86.4032
0
LINE
8
BLACK
6
CONTINUOUS
10
129.227
20
-87.2968
11
129.633
21
-87.7032
0
LINE
8
BLACK
6
CONTINUOUS
10
129.633
20
-87.2968
11
129.227
21
-87.7032
0
LINE
8
BLACK
6
CONTINUOUS
10
129.227
20
-87.2968
11
129.633
21
-87.7032
0
LINE
8
BLACK
6
CONTINUOUS
10
129.633
20
-87.2968
11
129.227
21
-87.7032
0
LINE
8
BLACK
6
CONTINUOUS
10
130.117
20
-103.647
11
130.523
21
-104.053
0
LINE
8
BLACK
6
CONTINUOUS
10
130.523
20
-103.647
11
130.117
21
-104.053
0
LINE
8
BLACK
6
CONTINUOUS
10
130.127
20
-99.8368
11
130.533
21
-100.243
0
LINE
8
BLACK
6
CONTINUOUS
10
130.533
20
-99.8368
11
130.127
21
-100.243
0
LINE
8
BLACK
6
CONTINUOUS
10
130.327
20
-85.5968
11
130.733
21
-86.0032
0
LINE
8
BLACK
6
CONTINUOUS
10
130.733
20
-85.5968
11
130.327
21
-86.0032
0
LINE
8
BLACK
6
CONTINUOUS
10
130.327
20
-85.5968
11
130.733
21
-86.0032
0
LINE
8
BLACK
6
CONTINUOUS
10
130.733
20
-85.5968
11
130.327
21
-86.0032
0
LINE
8
BLACK
6
CONTINUOUS
10
132.567
20
-83.1068
11
132.973
21
-83.5132
0
LINE
8
BLACK
6
CONTINUOUS
10
132.973
20
-83.1068
11
132.567
21
-83.5132
0
LINE
8
BLACK
6
CONTINUOUS
10
133.857
20
-86.8768
11
134.263
21
-87.2832
0
LINE
8
BLACK
6
CONTINUOUS
10
134.263
20
-86.8768
11
133.857
21
-87.2832
0
LINE
8
BLACK
6
CONTINUOUS
10
134.447
20
-93.0468
11
134.853
21
-93.4532
0
LINE
8
BLACK
6
CONTINUOUS
10
134.853
20
-93.0468
11
134.447
21
-93.4532
0
LINE
8
BLACK
6
CONTINUOUS
10
134.847
20
-101.377
11
135.253
21
-101.783
0
LINE
8
BLACK
6
CONTINUOUS
10
135.253
20
-101.377
11
134.847
21
-101.783
0
LINE
8
BLACK
6
CONTINUOUS
10
135.027
20
-88.4468
11
135.433
21
-88.8532
0
LINE
8
BLACK
6
CONTINUOUS
10
135.433
20
-88.4468
11
135.027
21
-88.8532
0
LINE
8
BLACK
6
CONTINUOUS
10
135.347
20
-94.1468
11
135.753
21
-94.5532
0
LINE
8
BLACK
6
CONTINUOUS
10
135.753
20
-94.1468
11
135.347
21
-94.5532
0
LINE
8
BLACK
6
CONTINUOUS
10
135.667
20
-90.9168
11
136.073
21
-91.3232
0
LINE
8
BLACK
6
CONTINUOUS
10
136.073
20
-90.9168
11
135.667
21
-91.3232
0
LINE
8
BLACK
6
CONTINUOUS
10
135.757
20
-86.8568
11
136.163
21
-87.2632
0
LINE
8
BLACK
6
CONTINUOUS
10
136.163
20
-86.8568
11
135.757
21
-87.2632
0
LINE
8
BLACK
6
CONTINUOUS
10
135.777
20
-106.197
11
136.183
21
-106.603
0
LINE
8
BLACK
6
CONTINUOUS
10
136.183
20
-106.197
11
135.777
21
-106.603
0
LINE
8
BLACK
6
CONTINUOUS
10
136.367
20
-93.0968
11
136.773
21
-93.5032
0
LINE
8
BLACK
6
CONTINUOUS
10
136.773
20
-93.0968
11
136.367
21
-93.5032
0
LINE
8
BLACK
6
CONTINUOUS
10
136.647
20
-73.9068
11
137.053
21
-74.3132
0
LINE
8
BLACK
6
CONTINUOUS
10
137.053
20
-73.9068
11
136.647
21
-74.3132
0
LINE
8
BLACK
6
CONTINUOUS
10
137.527
20
-104.917
11
137.933
21
-105.323
0
LINE
8
BLACK
6
CONTINUOUS
10
137.933
20
-104.917
11
137.527
21
-105.323
0
LINE
8
BLACK
6
CONTINUOUS
10
137.787
20
-71.1168
11
138.193
21
-71.5232
0
LINE
8
BLACK
6
CONTINUOUS
10
138.193
20
-71.1168
11
137.787
21
-71.5232
0
LINE
8
BLACK
6
CONTINUOUS
10
138.097
20
-87.2168
11
138.503
21
-87.6232
0
LINE
8
BLACK
6
CONTINUOUS
10
138.503
20
-87.2168
11
138.097
21
-87.6232
0
LINE
8
BLACK
6
CONTINUOUS
10
138.367
20
-102.377
11
138.773
21
-102.783
0
LINE
8
BLACK
6
CONTINUOUS
10
138.773
20
-102.377
11
138.367
21
-102.783
0
LINE
8
BLACK
6
CONTINUOUS
10
138.377
20
-103.647
11
138.783
21
-104.053
0
LINE
8
BLACK
6
CONTINUOUS
10
138.783
20
-103.647
11
138.377
21
-104.053
0
LINE
8
BLACK
6
CONTINUOUS
10
138.397
20
-107.457
11
138.803
21
-107.863
0
LINE
8
BLACK
6
CONTINUOUS
10
138.803
20
-107.457
11
138.397
21
-107.863
0
LINE
8
BLACK
6
CONTINUOUS
10
138.867
20
-93.8068
11
139.273
21
-94.2132
0
LINE
8
BLACK
6
CONTINUOUS
10
139.273
20
-93.8068
11
138.867
21
-94.2132
0
LINE
8
BLACK
6
CONTINUOUS
10
139.547
20
-70.2368
11
139.953
21
-70.6432
0
LINE
8
BLACK
6
CONTINUOUS
10
139.953
20
-70.2368
11
139.547
21
-70.6432
0
LINE
8
BLACK
6
CONTINUOUS
10
139.807
20
-92.9268
11
140.213
21
-93.3332
0
LINE
8
BLACK
6
CONTINUOUS
10
140.213
20
-92.9268
11
139.807
21
-93.3332
0
LINE
8
BLACK
6
CONTINUOUS
10
139.867
20
-87.4268
11
140.273
21
-87.8332
0
LINE
8
BLACK
6
CONTINUOUS
10
140.273
20
-87.4268
11
139.867
21
-87.8332
0
LINE
8
BLACK
6
CONTINUOUS
10
140.347
20
-86.0968
11
140.753
21
-86.5032
0
LINE
8
BLACK
6
CONTINUOUS
10
140.753
20
-86.0968
11
140.347
21
-86.5032
0
LINE
8
BLACK
6
CONTINUOUS
10
140.407
20
-75.8168
11
140.813
21
-76.2232
0
LINE
8
BLACK
6
CONTINUOUS
10
140.813
20
-75.8168
11
140.407
21
-76.2232
0
LINE
8
BLACK
6
CONTINUOUS
10
141.017
20
-92.0368
11
141.423
21
-92.4432
0
LINE
8
BLACK
6
CONTINUOUS
10
141.423
20
-92.0368
11
141.017
21
-92.4432
0
LINE
8
BLACK
6
CONTINUOUS
10
141.057
20
-90.8968
11
141.463
21
-91.3032
0
LINE
8
BLACK
6
CONTINUOUS
10
141.463
20
-90.8968
11
141.057
21
-91.3032
0
LINE
8
BLACK
6
CONTINUOUS
10
141.427
20
-74.4368
11
141.833
21
-74.8432
0
LINE
8
BLACK
6
CONTINUOUS
10
141.833
20
-74.4368
11
141.427
21
-74.8432
0
LINE
8
BLACK
6
CONTINUOUS
10
141.627
20
-93.9768
11
142.033
21
-94.3832
0
LINE
8
BLACK
6
CONTINUOUS
10
142.033
20
-93.9768
11
141.627
21
-94.3832
0
LINE
8
BLACK
6
CONTINUOUS
10
141.777
20
-79.9768
11
142.183
21
-80.3832
0
LINE
8
BLACK
6
CONTINUOUS
10
142.183
20
-79.9768
11
141.777
21
-80.3832
0
LINE
8
BLACK
6
CONTINUOUS
10
142.837
20
-77.1868
11
143.243
21
-77.5932
0
LINE
8
BLACK
6
CONTINUOUS
10
143.243
20
-77.1868
11
142.837
21
-77.5932
0
LINE
8
BLACK
6
CONTINUOUS
10
142.867
20
-81.0668
11
143.273
21
-81.4732
0
LINE
8
BLACK
6
CONTINUOUS
10
143.273
20
-81.0668
11
142.867
21
-81.4732
0
LINE
8
BLACK
6
CONTINUOUS
10
143.547
20
-106.017
11
143.953
21
-106.423
0
LINE
8
BLACK
6
CONTINUOUS
10
143.953
20
-106.017
11
143.547
21
-106.423
0
LINE
8
BLACK
6
CONTINUOUS
10
143.677
20
-96.2368
11
144.083
21
-96.6432
0
LINE
8
BLACK
6
CONTINUOUS
10
144.083
20
-96.2368
11
143.677
21
-96.6432
0
LINE
8
BLACK
6
CONTINUOUS
10
144.437
20
-83.3868
11
144.843
21
-83.7932
0
LINE
8
BLACK
6
CONTINUOUS
10
144.843
20
-83.3868
11
144.437
21
-83.7932
0
LINE
8
BLACK
6
CONTINUOUS
10
144.927
20
-85.0168
11
145.333
21
-85.4232
0
LINE
8
BLACK
6
CONTINUOUS
10
145.333
20
-85.0168
11
144.927
21
-85.4232
0
LINE
8
BLACK
6
CONTINUOUS
10
145.187
20
-68.0368
11
145.593
21
-68.4432
0
LINE
8
BLACK
6
CONTINUOUS
10
145.593
20
-68.0368
11
145.187
21
-68.4432
0
LINE
8
BLACK
6
CONTINUOUS
10
145.397
20
-89.5968
11
145.803
21
-90.0032
0
LINE
8
BLACK
6
CONTINUOUS
10
145.803
20
-89.5968
11
145.397
21
-90.0032
0
LINE
8
BLACK
6
CONTINUOUS
10
145.517
20
-105.997
11
145.923
21
-106.403
0
LINE
8
BLACK
6
CONTINUOUS
10
145.923
20
-105.997
11
145.517
21
-106.403
0
LINE
8
BLACK
6
CONTINUOUS
10
145.997
20
-77.2168
11
146.403
21
-77.6232
0
LINE
8
BLACK
6
CONTINUOUS
10
146.403
20
-77.2168
11
145.997
21
-77.6232
0
LINE
8
BLACK
6
CONTINUOUS
10
147.557
20
-77.2168
11
147.963
21
-77.6232
0
LINE
8
BLACK
6
CONTINUOUS
10
147.963
20
-77.2168
11
147.557
21
-77.6232
0
LINE
8
BLACK
6
CONTINUOUS
10
147.837
20
-105.997
11
148.243
21
-106.403
0
LINE
8
BLACK
6
CONTINUOUS
10
148.243
20
-105.997
11
147.837
21
-106.403
0
LINE
8
BLACK
6
CONTINUOUS
10
149.177
20
-105.937
11
149.583
21
-106.343
0
LINE
8
BLACK
6
CONTINUOUS
10
149.583
20
-105.937
11
149.177
21
-106.343
0
LINE
8
BLACK
6
CONTINUOUS
10
150.067
20
-93.6768
11
150.473
21
-94.0832
0
LINE
8
BLACK
6
CONTINUOUS
10
150.473
20
-93.6768
11
150.067
21
-94.0832
0
LINE
8
BLACK
6
CONTINUOUS
10
150.247
20
-68.4168
11
150.653
21
-68.8232
0
LINE
8
BLACK
6
CONTINUOUS
10
150.653
20
-68.4168
11
150.247
21
-68.8232
0
LINE
8
BLACK
6
CONTINUOUS
10
150.457
20
-84.9368
11
150.863
21
-85.3432
0
LINE
8
BLACK
6
CONTINUOUS
10
150.863
20
-84.9368
11
150.457
21
-85.3432
0
LINE
8
BLACK
6
CONTINUOUS
10
150.537
20
-89.7168
11
150.943
21
-90.1232
0
LINE
8
BLACK
6
CONTINUOUS
10
150.943
20
-89.7168
11
150.537
21
-90.1232
0
LINE
8
BLACK
6
CONTINUOUS
10
150.817
20
-77.7868
11
151.223
21
-78.1932
0
LINE
8
BLACK
6
CONTINUOUS
10
151.223
20
-77.7868
11
150.817
21
-78.1932
0
LINE
8
BLACK
6
CONTINUOUS
10
151.037
20
-82.2568
11
151.443
21
-82.6632
0
LINE
8
BLACK
6
CONTINUOUS
10
151.443
20
-82.2568
11
151.037
21
-82.6632
0
LINE
8
BLACK
6
CONTINUOUS
10
151.367
20
-105.547
11
151.773
21
-105.953
0
LINE
8
BLACK
6
CONTINUOUS
10
151.773
20
-105.547
11
151.367
21
-105.953
0
LINE
8
BLACK
6
CONTINUOUS
10
152.047
20
-69.5968
11
152.453
21
-70.0032
0
LINE
8
BLACK
6
CONTINUOUS
10
152.453
20
-69.5968
11
152.047
21
-70.0032
0
LINE
8
BLACK
6
CONTINUOUS
10
152.687
20
-87.0668
11
153.093
21
-87.4732
0
LINE
8
BLACK
6
CONTINUOUS
10
153.093
20
-87.0668
11
152.687
21
-87.4732
0
LINE
8
BLACK
6
CONTINUOUS
10
152.687
20
-100.687
11
153.093
21
-101.093
0
LINE
8
BLACK
6
CONTINUOUS
10
153.093
20
-100.687
11
152.687
21
-101.093
0
LINE
8
BLACK
6
CONTINUOUS
10
152.697
20
-105.347
11
153.103
21
-105.753
0
LINE
8
BLACK
6
CONTINUOUS
10
153.103
20
-105.347
11
152.697
21
-105.753
0
LINE
8
BLACK
6
CONTINUOUS
10
154.507
20
-78.6968
11
154.913
21
-79.1032
0
LINE
8
BLACK
6
CONTINUOUS
10
154.913
20
-78.6968
11
154.507
21
-79.1032
0
LINE
8
BLACK
6
CONTINUOUS
10
154.517
20
-87.0268
11
154.923
21
-87.4332
0
LINE
8
BLACK
6
CONTINUOUS
10
154.923
20
-87.0268
11
154.517
21
-87.4332
0
LINE
8
BLACK
6
CONTINUOUS
10
155.107
20
-72.3868
11
155.513
21
-72.7932
0
LINE
8
BLACK
6
CONTINUOUS
10
155.513
20
-72.3868
11
155.107
21
-72.7932
0
LINE
8
BLACK
6
CONTINUOUS
10
155.217
20
-91.0868
11
155.623
21
-91.4932
0
LINE
8
BLACK
6
CONTINUOUS
10
155.623
20
-91.0868
11
155.217
21
-91.4932
0
LINE
8
BLACK
6
CONTINUOUS
10
155.397
20
-70.2468
11
155.803
21
-70.6532
0
LINE
8
BLACK
6
CONTINUOUS
10
155.803
20
-70.2468
11
155.397
21
-70.6532
0
LINE
8
BLACK
6
CONTINUOUS
10
155.847
20
-99.2068
11
156.253
21
-99.6132
0
LINE
8
BLACK
6
CONTINUOUS
10
156.253
20
-99.2068
11
155.847
21
-99.6132
0
LINE
8
BLACK
6
CONTINUOUS
10
156.027
20
-78.2068
11
156.433
21
-78.6132
0
LINE
8
BLACK
6
CONTINUOUS
10
156.433
20
-78.2068
11
156.027
21
-78.6132
0
LINE
8
BLACK
6
CONTINUOUS
10
156.467
20
-105.547
11
156.873
21
-105.953
0
LINE
8
BLACK
6
CONTINUOUS
10
156.873
20
-105.547
11
156.467
21
-105.953
0
LINE
8
BLACK
6
CONTINUOUS
10
156.707
20
-82.4968
11
157.113
21
-82.9032
0
LINE
8
BLACK
6
CONTINUOUS
10
157.113
20
-82.4968
11
156.707
21
-82.9032
0
LINE
8
BLACK
6
CONTINUOUS
10
157.687
20
-95.2968
11
158.093
21
-95.7032
0
LINE
8
BLACK
6
CONTINUOUS
10
158.093
20
-95.2968
11
157.687
21
-95.7032
0
LINE
8
BLACK
6
CONTINUOUS
10
158.127
20
-72.4568
11
158.533
21
-72.8632
0
LINE
8
BLACK
6
CONTINUOUS
10
158.533
20
-72.4568
11
158.127
21
-72.8632
0
LINE
8
BLACK
6
CONTINUOUS
10
159.987
20
-66.0468
11
160.393
21
-66.4532
0
LINE
8
BLACK
6
CONTINUOUS
10
160.393
20
-66.0468
11
159.987
21
-66.4532
0
LINE
8
BLACK
6
CONTINUOUS
10
159.987
20
-79.9668
11
160.393
21
-80.3732
0
LINE
8
BLACK
6
CONTINUOUS
10
160.393
20
-79.9668
11
159.987
21
-80.3732
0
LINE
8
BLACK
6
CONTINUOUS
10
160.437
20
-68.4468
11
160.843
21
-68.8532
0
LINE
8
BLACK
6
CONTINUOUS
10
160.843
20
-68.4468
11
160.437
21
-68.8532
0
LINE
8
BLACK
6
CONTINUOUS
10
161.127
20
-71.2968
11
161.533
21
-71.7032
0
LINE
8
BLACK
6
CONTINUOUS
10
161.533
20
-71.2968
11
161.127
21
-71.7032
0
LINE
8
BLACK
6
CONTINUOUS
10
161.132
20
-95.0118
11
161.538
21
-95.4182
0
LINE
8
BLACK
6
CONTINUOUS
10
161.538
20
-95.0118
11
161.132
21
-95.4182
0
LINE
8
BLACK
6
CONTINUOUS
10
162.007
20
-79.4868
11
162.413
21
-79.8932
0
LINE
8
BLACK
6
CONTINUOUS
10
162.413
20
-79.4868
11
162.007
21
-79.8932
0
LINE
8
BLACK
6
CONTINUOUS
10
162.557
20
-100.277
11
162.963
21
-100.683
0
LINE
8
BLACK
6
CONTINUOUS
10
162.963
20
-100.277
11
162.557
21
-100.683
0
LINE
8
BLACK
6
CONTINUOUS
10
163.497
20
-69.8468
11
163.903
21
-70.2532
0
LINE
8
BLACK
6
CONTINUOUS
10
163.903
20
-69.8468
11
163.497
21
-70.2532
0
LINE
8
BLACK
6
CONTINUOUS
10
165.157
20
-79.8668
11
165.563
21
-80.2732
0
LINE
8
BLACK
6
CONTINUOUS
10
165.563
20
-79.8668
11
165.157
21
-80.2732
0
LINE
8
BLACK
6
CONTINUOUS
10
166.287
20
-98.8368
11
166.693
21
-99.2432
0
LINE
8
BLACK
6
CONTINUOUS
10
166.693
20
-98.8368
11
166.287
21
-99.2432
0
LINE
8
BLACK
6
CONTINUOUS
10
166.467
20
-106.117
11
166.873
21
-106.523
0
LINE
8
BLACK
6
CONTINUOUS
10
166.873
20
-106.117
11
166.467
21
-106.523
0
LINE
8
BLACK
6
CONTINUOUS
10
166.477
20
-107.097
11
166.883
21
-107.503
0
LINE
8
BLACK
6
CONTINUOUS
10
166.883
20
-107.097
11
166.477
21
-107.503
0
LINE
8
BLACK
6
CONTINUOUS
10
166.477
20
-108.077
11
166.883
21
-108.483
0
LINE
8
BLACK
6
CONTINUOUS
10
166.883
20
-108.077
11
166.477
21
-108.483
0
LINE
8
BLACK
6
CONTINUOUS
10
167.047
20
-80.7368
11
167.453
21
-81.1432
0
LINE
8
BLACK
6
CONTINUOUS
10
167.453
20
-80.7368
11
167.047
21
-81.1432
0
LINE
8
BLACK
6
CONTINUOUS
10
167.417
20
-66.0368
11
167.823
21
-66.4432
0
LINE
8
BLACK
6
CONTINUOUS
10
167.823
20
-66.0368
11
167.417
21
-66.4432
0
LINE
8
BLACK
6
CONTINUOUS
10
167.917
20
-87.4168
11
168.323
21
-87.8232
0
LINE
8
BLACK
6
CONTINUOUS
10
168.323
20
-87.4168
11
167.917
21
-87.8232
0
LINE
8
BLACK
6
CONTINUOUS
10
167.947
20
-91.2068
11
168.353
21
-91.6132
0
LINE
8
BLACK
6
CONTINUOUS
10
168.353
20
-91.2068
11
167.947
21
-91.6132
0
LINE
8
BLACK
6
CONTINUOUS
10
167.967
20
-89.9568
11
168.373
21
-90.3632
0
LINE
8
BLACK
6
CONTINUOUS
10
168.373
20
-89.9568
11
167.967
21
-90.3632
0
LINE
8
BLACK
6
CONTINUOUS
10
168.277
20
-98.8468
11
168.683
21
-99.2532
0
LINE
8
BLACK
6
CONTINUOUS
10
168.683
20
-98.8468
11
168.277
21
-99.2532
0
LINE
8
BLACK
6
CONTINUOUS
10
168.307
20
-97.5868
11
168.713
21
-97.9932
0
LINE
8
BLACK
6
CONTINUOUS
10
168.713
20
-97.5868
11
168.307
21
-97.9932
0
LINE
8
BLACK
6
CONTINUOUS
10
168.316
20
-96.3254
11
168.722
21
-96.7318
0
LINE
8
BLACK
6
CONTINUOUS
10
168.722
20
-96.3254
11
168.316
21
-96.7318
0
LINE
8
BLACK
6
CONTINUOUS
10
168.317
20
-95.0568
11
168.723
21
-95.4632
0
LINE
8
BLACK
6
CONTINUOUS
10
168.723
20
-95.0568
11
168.317
21
-95.4632
0
LINE
8
BLACK
6
CONTINUOUS
10
170.167
20
-93.3368
11
170.573
21
-93.7432
0
LINE
8
BLACK
6
CONTINUOUS
10
170.573
20
-93.3368
11
170.167
21
-93.7432
0
LINE
8
BLACK
6
CONTINUOUS
10
170.337
20
-71.1168
11
170.743
21
-71.5232
0
LINE
8
BLACK
6
CONTINUOUS
10
170.743
20
-71.1168
11
170.337
21
-71.5232
0
LINE
8
BLACK
6
CONTINUOUS
10
171.237
20
-85.9268
11
171.643
21
-86.3332
0
LINE
8
BLACK
6
CONTINUOUS
10
171.643
20
-85.9268
11
171.237
21
-86.3332
0
LINE
8
BLACK
6
CONTINUOUS
10
172.557
20
-82.2568
11
172.963
21
-82.6632
0
LINE
8
BLACK
6
CONTINUOUS
10
172.963
20
-82.2568
11
172.557
21
-82.6632
0
LINE
8
BLACK
6
CONTINUOUS
10
172.697
20
-100.337
11
173.103
21
-100.743
0
LINE
8
BLACK
6
CONTINUOUS
10
173.103
20
-100.337
11
172.697
21
-100.743
0
LINE
8
BLACK
6
CONTINUOUS
10
172.817
20
-110.797
11
173.223
21
-111.203
0
LINE
8
BLACK
6
CONTINUOUS
10
173.223
20
-110.797
11
172.817
21
-111.203
0
LINE
8
BLACK
6
CONTINUOUS
10
172.857
20
-68.5768
11
173.263
21
-68.9832
0
LINE
8
BLACK
6
CONTINUOUS
10
173.263
20
-68.5768
11
172.857
21
-68.9832
0
LINE
8
BLACK
6
CONTINUOUS
10
173.087
20
-71.1168
11
173.493
21
-71.5232
0
LINE
8
BLACK
6
CONTINUOUS
10
173.493
20
-71.1168
11
173.087
21
-71.5232
0
LINE
8
BLACK
6
CONTINUOUS
10
173.157
20
-91.2168
11
173.563
21
-91.6232
0
LINE
8
BLACK
6
CONTINUOUS
10
173.563
20
-91.2168
11
173.157
21
-91.6232
0
LINE
8
BLACK
6
CONTINUOUS
10
173.167
20
-86.2268
11
173.573
21
-86.6332
0
LINE
8
BLACK
6
CONTINUOUS
10
173.573
20
-86.2268
11
173.167
21
-86.6332
0
LINE
8
BLACK
6
CONTINUOUS
10
173.897
20
-89.8868
11
174.303
21
-90.2932
0
LINE
8
BLACK
6
CONTINUOUS
10
174.303
20
-89.8868
11
173.897
21
-90.2932
0
LINE
8
BLACK
6
CONTINUOUS
10
174.087
20
-103.567
11
174.493
21
-103.973
0
LINE
8
BLACK
6
CONTINUOUS
10
174.493
20
-103.567
11
174.087
21
-103.973
0
LINE
8
BLACK
6
CONTINUOUS
10
174.107
20
-110.797
11
174.513
21
-111.203
0
LINE
8
BLACK
6
CONTINUOUS
10
174.513
20
-110.797
11
174.107
21
-111.203
0
LINE
8
BLACK
6
CONTINUOUS
10
175.297
20
-110.827
11
175.703
21
-111.233
0
LINE
8
BLACK
6
CONTINUOUS
10
175.703
20
-110.827
11
175.297
21
-111.233
0
LINE
8
BLACK
6
CONTINUOUS
10
175.847
20
-98.1568
11
176.253
21
-98.5632
0
LINE
8
BLACK
6
CONTINUOUS
10
176.253
20
-98.1568
11
175.847
21
-98.5632
0
LINE
8
BLACK
6
CONTINUOUS
10
178.447
20
-93.0468
11
178.853
21
-93.4532
0
LINE
8
BLACK
6
CONTINUOUS
10
178.853
20
-93.0468
11
178.447
21
-93.4532
0
LINE
8
BLACK
6
CONTINUOUS
10
179.387
20
-68.7368
11
179.793
21
-69.1432
0
LINE
8
BLACK
6
CONTINUOUS
10
179.793
20
-68.7368
11
179.387
21
-69.1432
0
LINE
8
BLACK
6
CONTINUOUS
10
179.587
20
-95.6568
11
179.993
21
-96.0632
0
LINE
8
BLACK
6
CONTINUOUS
10
179.993
20
-95.6568
11
179.587
21
-96.0632
0
LINE
8
BLACK
6
CONTINUOUS
10
179.587
20
-98.1768
11
179.993
21
-98.5832
0
LINE
8
BLACK
6
CONTINUOUS
10
179.993
20
-98.1768
11
179.587
21
-98.5832
0
LINE
8
BLACK
6
CONTINUOUS
10
179.957
20
-93.1368
11
180.363
21
-93.5432
0
LINE
8
BLACK
6
CONTINUOUS
10
180.363
20
-93.1368
11
179.957
21
-93.5432
0
LINE
8
BLACK
6
CONTINUOUS
10
181.657
20
-106.117
11
182.063
21
-106.523
0
LINE
8
BLACK
6
CONTINUOUS
10
182.063
20
-106.117
11
181.657
21
-106.523
0
LINE
8
BLACK
6
CONTINUOUS
10
181.667
20
-108.077
11
182.073
21
-108.483
0
LINE
8
BLACK
6
CONTINUOUS
10
182.073
20
-108.077
11
181.667
21
-108.483
0
LINE
8
BLACK
6
CONTINUOUS
10
181.677
20
-107.097
11
182.083
21
-107.503
0
LINE
8
BLACK
6
CONTINUOUS
10
182.083
20
-107.097
11
181.677
21
-107.503
0
CIRCLE
8
BLACK
10
95.7
20
-72.425
40
0.325
0
LINE
8
BLACK
6
CONTINUOUS
10
95.6
20
-72.75
11
95.8
21
-72.75
0
LINE
8
BLACK
6
CONTINUOUS
10
95.6
20
-72.1
11
95.8
21
-72.1
0
ARC
8
BLACK
10
95.8
20
-72.425
40
0.325
50
270
51
450
0
ARC
8
BLACK
10
95.6
20
-72.425
40
0.325
50
90
51
270
0
CIRCLE
8
BLACK
10
95.7
20
-77.275
40
0.325
0
LINE
8
BLACK
6
CONTINUOUS
10
95.6
20
-77.6
11
95.8
21
-77.6
0
LINE
8
BLACK
6
CONTINUOUS
10
95.6
20
-76.95
11
95.8
21
-76.95
0
ARC
8
BLACK
10
95.8
20
-77.275
40
0.325
50
270
51
450
0
ARC
8
BLACK
10
95.6
20
-77.275
40
0.325
50
90
51
270
0
LINE
8
BLACK
6
CONTINUOUS
10
92.7
20
-70.8812
11
92.7
21
-71.7062
0
LINE
8
BLACK
6
CONTINUOUS
10
92.2875
20
-71.2938
11
93.1125
21
-71.2938
0
LINE
8
BLACK
6
CONTINUOUS
10
92.3625
20
-71.7062
11
93.0375
21
-71.7062
0
LINE
8
BLACK
6
CONTINUOUS
10
92.3625
20
-70.8812
11
93.0375
21
-70.8812
0
ARC
8
BLACK
10
93.0375
20
-71.2938
40
0.4125
50
270
51
450
0
ARC
8
BLACK
10
92.3625
20
-71.2938
40
0.4125
50
90
51
270
0
LINE
8
BLACK
6
CONTINUOUS
10
92.7
20
-77.9937
11
92.7
21
-78.8187
0
LINE
8
BLACK
6
CONTINUOUS
10
92.2875
20
-78.4062
11
93.1125
21
-78.4062
0
LINE
8
BLACK
6
CONTINUOUS
10
92.3625
20
-78.8187
11
93.0375
21
-78.8187
0
LINE
8
BLACK
6
CONTINUOUS
10
92.3625
20
-77.9937
11
93.0375
21
-77.9937
0
ARC
8
BLACK
10
93.0375
20
-78.4062
40
0.4125
50
270
51
450
0
ARC
8
BLACK
10
92.3625
20
-78.4062
40
0.4125
50
90
51
270
0
LINE
8
BLACK
6
CONTINUOUS
10
116.174
20
-94.6936
11
116.174
21
-93.9864
0
LINE
8
BLACK
6
CONTINUOUS
10
116.174
20
-93.9864
11
115.466
21
-93.9864
0
LINE
8
BLACK
6
CONTINUOUS
10
115.466
20
-93.9864
11
115.466
21
-94.6936
0
LINE
8
BLACK
6
CONTINUOUS
10
115.466
20
-94.6936
11
116.174
21
-94.6936
0
LINE
8
BLACK
6
CONTINUOUS
10
118.714
20
-94.6936
11
118.714
21
-93.9864
0
LINE
8
BLACK
6
CONTINUOUS
10
118.714
20
-93.9864
11
118.006
21
-93.9864
0
LINE
8
BLACK
6
CONTINUOUS
10
118.006
20
-93.9864
11
118.006
21
-94.6936
0
LINE
8
BLACK
6
CONTINUOUS
10
118.006
20
-94.6936
11
118.714
21
-94.6936
0
LINE
8
BLACK
6
CONTINUOUS
10
121.254
20
-94.6936
11
121.254
21
-93.9864
0
LINE
8
BLACK
6
CONTINUOUS
10
121.254
20
-93.9864
11
120.546
21
-93.9864
0
LINE
8
BLACK
6
CONTINUOUS
10
120.546
20
-93.9864
11
120.546
21
-94.6936
0
LINE
8
BLACK
6
CONTINUOUS
10
120.546
20
-94.6936
11
121.254
21
-94.6936
0
LINE
8
BLACK
6
CONTINUOUS
10
123.794
20
-94.6936
11
123.794
21
-93.9864
0
LINE
8
BLACK
6
CONTINUOUS
10
123.794
20
-93.9864
11
123.086
21
-93.9864
0
LINE
8
BLACK
6
CONTINUOUS
10
123.086
20
-93.9864
11
123.086
21
-94.6936
0
LINE
8
BLACK
6
CONTINUOUS
10
123.086
20
-94.6936
11
123.794
21
-94.6936
0
LINE
8
BLACK
6
CONTINUOUS
10
126.334
20
-94.6936
11
126.334
21
-93.9864
0
LINE
8
BLACK
6
CONTINUOUS
10
126.334
20
-93.9864
11
125.626
21
-93.9864
0
LINE
8
BLACK
6
CONTINUOUS
10
125.626
20
-93.9864
11
125.626
21
-94.6936
0
LINE
8
BLACK
6
CONTINUOUS
10
125.626
20
-94.6936
11
126.334
21
-94.6936
0
LINE
8
BLACK
6
CONTINUOUS
10
128.874
20
-94.6936
11
128.874
21
-93.9864
0
LINE
8
BLACK
6
CONTINUOUS
10
128.874
20
-93.9864
11
128.166
21
-93.9864
0
LINE
8
BLACK
6
CONTINUOUS
10
128.166
20
-93.9864
11
128.166
21
-94.6936
0
LINE
8
BLACK
6
CONTINUOUS
10
128.166
20
-94.6936
11
128.874
21
-94.6936
0
LINE
8
BLACK
6
CONTINUOUS
10
156.664
20
-63.1036
11
156.664
21
-62.3964
0
LINE
8
BLACK
6
CONTINUOUS
10
156.664
20
-62.3964
11
155.956
21
-62.3964
0
LINE
8
BLACK
6
CONTINUOUS
10
155.956
20
-62.3964
11
155.956
21
-63.1036
0
LINE
8
BLACK
6
CONTINUOUS
10
155.956
20
-63.1036
11
156.664
21
-63.1036
0
LINE
8
BLACK
6
CONTINUOUS
10
159.204
20
-63.1036
11
159.204
21
-62.3964
0
LINE
8
BLACK
6
CONTINUOUS
10
159.204
20
-62.3964
11
158.496
21
-62.3964
0
LINE
8
BLACK
6
CONTINUOUS
10
158.496
20
-62.3964
11
158.496
21
-63.1036
0
LINE
8
BLACK
6
CONTINUOUS
10
158.496
20
-63.1036
11
159.204
21
-63.1036
0
LINE
8
BLACK
6
CONTINUOUS
10
161.744
20
-63.1036
11
161.744
21
-62.3964
0
LINE
8
BLACK
6
CONTINUOUS
10
161.744
20
-62.3964
11
161.036
21
-62.3964
0
LINE
8
BLACK
6
CONTINUOUS
10
161.036
20
-62.3964
11
161.036
21
-63.1036
0
LINE
8
BLACK
6
CONTINUOUS
10
161.036
20
-63.1036
11
161.744
21
-63.1036
0
LINE
8
BLACK
6
CONTINUOUS
10
164.284
20
-63.1036
11
164.284
21
-62.3964
0
LINE
8
BLACK
6
CONTINUOUS
10
164.284
20
-62.3964
11
163.576
21
-62.3964
0
LINE
8
BLACK
6
CONTINUOUS
10
163.576
20
-62.3964
11
163.576
21
-63.1036
0
LINE
8
BLACK
6
CONTINUOUS
10
163.576
20
-63.1036
11
164.284
21
-63.1036
0
LINE
8
BLACK
6
CONTINUOUS
10
166.824
20
-63.1036
11
166.824
21
-62.3964
0
LINE
8
BLACK
6
CONTINUOUS
10
166.824
20
-62.3964
11
166.116
21
-62.3964
0
LINE
8
BLACK
6
CONTINUOUS
10
166.116
20
-62.3964
11
166.116
21
-63.1036
0
LINE
8
BLACK
6
CONTINUOUS
10
166.116
20
-63.1036
11
166.824
21
-63.1036
0
LINE
8
BLACK
6
CONTINUOUS
10
169.364
20
-63.1036
11
169.364
21
-62.3964
0
LINE
8
BLACK
6
CONTINUOUS
10
169.364
20
-62.3964
11
168.656
21
-62.3964
0
LINE
8
BLACK
6
CONTINUOUS
10
168.656
20
-62.3964
11
168.656
21
-63.1036
0
LINE
8
BLACK
6
CONTINUOUS
10
168.656
20
-63.1036
11
169.364
21
-63.1036
0
LINE
8
BLACK
6
CONTINUOUS
10
171.904
20
-63.1036
11
171.904
21
-62.3964
0
LINE
8
BLACK
6
CONTINUOUS
10
171.904
20
-62.3964
11
171.196
21
-62.3964
0
LINE
8
BLACK
6
CONTINUOUS
10
171.196
20
-62.3964
11
171.196
21
-63.1036
0
LINE
8
BLACK
6
CONTINUOUS
10
171.196
20
-63.1036
11
171.904
21
-63.1036
0
LINE
8
BLACK
6
CONTINUOUS
10
174.444
20
-63.1036
11
174.444
21
-62.3964
0
LINE
8
BLACK
6
CONTINUOUS
10
174.444
20
-62.3964
11
173.736
21
-62.3964
0
LINE
8
BLACK
6
CONTINUOUS
10
173.736
20
-62.3964
11
173.736
21
-63.1036
0
LINE
8
BLACK
6
CONTINUOUS
10
173.736
20
-63.1036
11
174.444
21
-63.1036
0
LINE
8
BLACK
6
CONTINUOUS
10
131.784
20
-63.1036
11
131.784
21
-62.3964
0
LINE
8
BLACK
6
CONTINUOUS
10
131.784
20
-62.3964
11
131.076
21
-62.3964
0
LINE
8
BLACK
6
CONTINUOUS
10
131.076
20
-62.3964
11
131.076
21
-63.1036
0
LINE
8
BLACK
6
CONTINUOUS
10
131.076
20
-63.1036
11
131.784
21
-63.1036
0
LINE
8
BLACK
6
CONTINUOUS
10
134.324
20
-63.1036
11
134.324
21
-62.3964
0
LINE
8
BLACK
6
CONTINUOUS
10
134.324
20
-62.3964
11
133.616
21
-62.3964
0
LINE
8
BLACK
6
CONTINUOUS
10
133.616
20
-62.3964
11
133.616
21
-63.1036
0
LINE
8
BLACK
6
CONTINUOUS
10
133.616
20
-63.1036
11
134.324
21
-63.1036
0
LINE
8
BLACK
6
CONTINUOUS
10
136.864
20
-63.1036
11
136.864
21
-62.3964
0
LINE
8
BLACK
6
CONTINUOUS
10
136.864
20
-62.3964
11
136.156
21
-62.3964
0
LINE
8
BLACK
6
CONTINUOUS
10
136.156
20
-62.3964
11
136.156
21
-63.1036
0
LINE
8
BLACK
6
CONTINUOUS
10
136.156
20
-63.1036
11
136.864
21
-63.1036
0
LINE
8
BLACK
6
CONTINUOUS
10
139.404
20
-63.1036
11
139.404
21
-62.3964
0
LINE
8
BLACK
6
CONTINUOUS
10
139.404
20
-62.3964
11
138.696
21
-62.3964
0
LINE
8
BLACK
6
CONTINUOUS
10
138.696
20
-62.3964
11
138.696
21
-63.1036
0
LINE
8
BLACK
6
CONTINUOUS
10
138.696
20
-63.1036
11
139.404
21
-63.1036
0
LINE
8
BLACK
6
CONTINUOUS
10
185.244
20
-70.7636
11
185.244
21
-70.0564
0
LINE
8
BLACK
6
CONTINUOUS
10
185.244
20
-70.0564
11
184.536
21
-70.0564
0
LINE
8
BLACK
6
CONTINUOUS
10
184.536
20
-70.0564
11
184.536
21
-70.7636
0
LINE
8
BLACK
6
CONTINUOUS
10
184.536
20
-70.7636
11
185.244
21
-70.7636
0
LINE
8
BLACK
6
CONTINUOUS
10
185.244
20
-73.3036
11
185.244
21
-72.5964
0
LINE
8
BLACK
6
CONTINUOUS
10
185.244
20
-72.5964
11
184.536
21
-72.5964
0
LINE
8
BLACK
6
CONTINUOUS
10
184.536
20
-72.5964
11
184.536
21
-73.3036
0
LINE
8
BLACK
6
CONTINUOUS
10
184.536
20
-73.3036
11
185.244
21
-73.3036
0
LINE
8
BLACK
6
CONTINUOUS
10
185.244
20
-75.8436
11
185.244
21
-75.1364
0
LINE
8
BLACK
6
CONTINUOUS
10
185.244
20
-75.1364
11
184.536
21
-75.1364
0
LINE
8
BLACK
6
CONTINUOUS
10
184.536
20
-75.1364
11
184.536
21
-75.8436
0
LINE
8
BLACK
6
CONTINUOUS
10
184.536
20
-75.8436
11
185.244
21
-75.8436
0
LINE
8
BLACK
6
CONTINUOUS
10
185.244
20
-78.3836
11
185.244
21
-77.6764
0
LINE
8
BLACK
6
CONTINUOUS
10
185.244
20
-77.6764
11
184.536
21
-77.6764
0
LINE
8
BLACK
6
CONTINUOUS
10
184.536
20
-77.6764
11
184.536
21
-78.3836
0
LINE
8
BLACK
6
CONTINUOUS
10
184.536
20
-78.3836
11
185.244
21
-78.3836
0
LINE
8
BLACK
6
CONTINUOUS
10
185.244
20
-80.9236
11
185.244
21
-80.2164
0
LINE
8
BLACK
6
CONTINUOUS
10
185.244
20
-80.2164
11
184.536
21
-80.2164
0
LINE
8
BLACK
6
CONTINUOUS
10
184.536
20
-80.2164
11
184.536
21
-80.9236
0
LINE
8
BLACK
6
CONTINUOUS
10
184.536
20
-80.9236
11
185.244
21
-80.9236
0
LINE
8
BLACK
6
CONTINUOUS
10
185.244
20
-83.4636
11
185.244
21
-82.7564
0
LINE
8
BLACK
6
CONTINUOUS
10
185.244
20
-82.7564
11
184.536
21
-82.7564
0
LINE
8
BLACK
6
CONTINUOUS
10
184.536
20
-82.7564
11
184.536
21
-83.4636
0
LINE
8
BLACK
6
CONTINUOUS
10
184.536
20
-83.4636
11
185.244
21
-83.4636
0
LINE
8
BLACK
6
CONTINUOUS
10
185.244
20
-86.0036
11
185.244
21
-85.2964
0
LINE
8
BLACK
6
CONTINUOUS
10
185.244
20
-85.2964
11
184.536
21
-85.2964
0
LINE
8
BLACK
6
CONTINUOUS
10
184.536
20
-85.2964
11
184.536
21
-86.0036
0
LINE
8
BLACK
6
CONTINUOUS
10
184.536
20
-86.0036
11
185.244
21
-86.0036
0
LINE
8
BLACK
6
CONTINUOUS
10
185.244
20
-88.5436
11
185.244
21
-87.8364
0
LINE
8
BLACK
6
CONTINUOUS
10
185.244
20
-87.8364
11
184.536
21
-87.8364
0
LINE
8
BLACK
6
CONTINUOUS
10
184.536
20
-87.8364
11
184.536
21
-88.5436
0
LINE
8
BLACK
6
CONTINUOUS
10
184.536
20
-88.5436
11
185.244
21
-88.5436
0
LINE
8
BLACK
6
CONTINUOUS
10
185.244
20
-91.0836
11
185.244
21
-90.3764
0
LINE
8
BLACK
6
CONTINUOUS
10
185.244
20
-90.3764
11
184.536
21
-90.3764
0
LINE
8
BLACK
6
CONTINUOUS
10
184.536
20
-90.3764
11
184.536
21
-91.0836
0
LINE
8
BLACK
6
CONTINUOUS
10
184.536
20
-91.0836
11
185.244
21
-91.0836
0
LINE
8
BLACK
6
CONTINUOUS
10
185.244
20
-93.6236
11
185.244
21
-92.9164
0
LINE
8
BLACK
6
CONTINUOUS
10
185.244
20
-92.9164
11
184.536
21
-92.9164
0
LINE
8
BLACK
6
CONTINUOUS
10
184.536
20
-92.9164
11
184.536
21
-93.6236
0
LINE
8
BLACK
6
CONTINUOUS
10
184.536
20
-93.6236
11
185.244
21
-93.6236
0
LINE
8
BLACK
6
CONTINUOUS
10
185.244
20
-96.1636
11
185.244
21
-95.4564
0
LINE
8
BLACK
6
CONTINUOUS
10
185.244
20
-95.4564
11
184.536
21
-95.4564
0
LINE
8
BLACK
6
CONTINUOUS
10
184.536
20
-95.4564
11
184.536
21
-96.1636
0
LINE
8
BLACK
6
CONTINUOUS
10
184.536
20
-96.1636
11
185.244
21
-96.1636
0
LINE
8
BLACK
6
CONTINUOUS
10
185.244
20
-98.7036
11
185.244
21
-97.9964
0
LINE
8
BLACK
6
CONTINUOUS
10
185.244
20
-97.9964
11
184.536
21
-97.9964
0
LINE
8
BLACK
6
CONTINUOUS
10
184.536
20
-97.9964
11
184.536
21
-98.7036
0
LINE
8
BLACK
6
CONTINUOUS
10
184.536
20
-98.7036
11
185.244
21
-98.7036
0
LINE
8
BLACK
6
CONTINUOUS
10
185.244
20
-101.244
11
185.244
21
-100.536
0
LINE
8
BLACK
6
CONTINUOUS
10
185.244
20
-100.536
11
184.536
21
-100.536
0
LINE
8
BLACK
6
CONTINUOUS
10
184.536
20
-100.536
11
184.536
21
-101.244
0
LINE
8
BLACK
6
CONTINUOUS
10
184.536
20
-101.244
11
185.244
21
-101.244
0
LINE
8
BLACK
6
CONTINUOUS
10
185.244
20
-103.784
11
185.244
21
-103.076
0
LINE
8
BLACK
6
CONTINUOUS
10
185.244
20
-103.076
11
184.536
21
-103.076
0
LINE
8
BLACK
6
CONTINUOUS
10
184.536
20
-103.076
11
184.536
21
-103.784
0
LINE
8
BLACK
6
CONTINUOUS
10
184.536
20
-103.784
11
185.244
21
-103.784
0
LINE
8
BLACK
6
CONTINUOUS
10
187.784
20
-70.7636
11
187.784
21
-70.0564
0
LINE
8
BLACK
6
CONTINUOUS
10
187.784
20
-70.0564
11
187.076
21
-70.0564
0
LINE
8
BLACK
6
CONTINUOUS
10
187.076
20
-70.0564
11
187.076
21
-70.7636
0
LINE
8
BLACK
6
CONTINUOUS
10
187.076
20
-70.7636
11
187.784
21
-70.7636
0
LINE
8
BLACK
6
CONTINUOUS
10
187.784
20
-73.3036
11
187.784
21
-72.5964
0
LINE
8
BLACK
6
CONTINUOUS
10
187.784
20
-72.5964
11
187.076
21
-72.5964
0
LINE
8
BLACK
6
CONTINUOUS
10
187.076
20
-72.5964
11
187.076
21
-73.3036
0
LINE
8
BLACK
6
CONTINUOUS
10
187.076
20
-73.3036
11
187.784
21
-73.3036
0
LINE
8
BLACK
6
CONTINUOUS
10
187.784
20
-75.8436
11
187.784
21
-75.1364
0
LINE
8
BLACK
6
CONTINUOUS
10
187.784
20
-75.1364
11
187.076
21
-75.1364
0
LINE
8
BLACK
6
CONTINUOUS
10
187.076
20
-75.1364
11
187.076
21
-75.8436
0
LINE
8
BLACK
6
CONTINUOUS
10
187.076
20
-75.8436
11
187.784
21
-75.8436
0
LINE
8
BLACK
6
CONTINUOUS
10
187.784
20
-78.3836
11
187.784
21
-77.6764
0
LINE
8
BLACK
6
CONTINUOUS
10
187.784
20
-77.6764
11
187.076
21
-77.6764
0
LINE
8
BLACK
6
CONTINUOUS
10
187.076
20
-77.6764
11
187.076
21
-78.3836
0
LINE
8
BLACK
6
CONTINUOUS
10
187.076
20
-78.3836
11
187.784
21
-78.3836
0
LINE
8
BLACK
6
CONTINUOUS
10
187.784
20
-80.9236
11
187.784
21
-80.2164
0
LINE
8
BLACK
6
CONTINUOUS
10
187.784
20
-80.2164
11
187.076
21
-80.2164
0
LINE
8
BLACK
6
CONTINUOUS
10
187.076
20
-80.2164
11
187.076
21
-80.9236
0
LINE
8
BLACK
6
CONTINUOUS
10
187.076
20
-80.9236
11
187.784
21
-80.9236
0
LINE
8
BLACK
6
CONTINUOUS
10
187.784
20
-83.4636
11
187.784
21
-82.7564
0
LINE
8
BLACK
6
CONTINUOUS
10
187.784
20
-82.7564
11
187.076
21
-82.7564
0
LINE
8
BLACK
6
CONTINUOUS
10
187.076
20
-82.7564
11
187.076
21
-83.4636
0
LINE
8
BLACK
6
CONTINUOUS
10
187.076
20
-83.4636
11
187.784
21
-83.4636
0
LINE
8
BLACK
6
CONTINUOUS
10
187.784
20
-86.0036
11
187.784
21
-85.2964
0
LINE
8
BLACK
6
CONTINUOUS
10
187.784
20
-85.2964
11
187.076
21
-85.2964
0
LINE
8
BLACK
6
CONTINUOUS
10
187.076
20
-85.2964
11
187.076
21
-86.0036
0
LINE
8
BLACK
6
CONTINUOUS
10
187.076
20
-86.0036
11
187.784
21
-86.0036
0
LINE
8
BLACK
6
CONTINUOUS
10
187.784
20
-88.5436
11
187.784
21
-87.8364
0
LINE
8
BLACK
6
CONTINUOUS
10
187.784
20
-87.8364
11
187.076
21
-87.8364
0
LINE
8
BLACK
6
CONTINUOUS
10
187.076
20
-87.8364
11
187.076
21
-88.5436
0
LINE
8
BLACK
6
CONTINUOUS
10
187.076
20
-88.5436
11
187.784
21
-88.5436
0
LINE
8
BLACK
6
CONTINUOUS
10
187.784
20
-91.0836
11
187.784
21
-90.3764
0
LINE
8
BLACK
6
CONTINUOUS
10
187.784
20
-90.3764
11
187.076
21
-90.3764
0
LINE
8
BLACK
6
CONTINUOUS
10
187.076
20
-90.3764
11
187.076
21
-91.0836
0
LINE
8
BLACK
6
CONTINUOUS
10
187.076
20
-91.0836
11
187.784
21
-91.0836
0
LINE
8
BLACK
6
CONTINUOUS
10
187.784
20
-93.6236
11
187.784
21
-92.9164
0
LINE
8
BLACK
6
CONTINUOUS
10
187.784
20
-92.9164
11
187.076
21
-92.9164
0
LINE
8
BLACK
6
CONTINUOUS
10
187.076
20
-92.9164
11
187.076
21
-93.6236
0
LINE
8
BLACK
6
CONTINUOUS
10
187.076
20
-93.6236
11
187.784
21
-93.6236
0
LINE
8
BLACK
6
CONTINUOUS
10
187.784
20
-96.1636
11
187.784
21
-95.4564
0
LINE
8
BLACK
6
CONTINUOUS
10
187.784
20
-95.4564
11
187.076
21
-95.4564
0
LINE
8
BLACK
6
CONTINUOUS
10
187.076
20
-95.4564
11
187.076
21
-96.1636
0
LINE
8
BLACK
6
CONTINUOUS
10
187.076
20
-96.1636
11
187.784
21
-96.1636
0
LINE
8
BLACK
6
CONTINUOUS
10
187.784
20
-98.7036
11
187.784
21
-97.9964
0
LINE
8
BLACK
6
CONTINUOUS
10
187.784
20
-97.9964
11
187.076
21
-97.9964
0
LINE
8
BLACK
6
CONTINUOUS
10
187.076
20
-97.9964
11
187.076
21
-98.7036
0
LINE
8
BLACK
6
CONTINUOUS
10
187.076
20
-98.7036
11
187.784
21
-98.7036
0
LINE
8
BLACK
6
CONTINUOUS
10
187.784
20
-101.244
11
187.784
21
-100.536
0
LINE
8
BLACK
6
CONTINUOUS
10
187.784
20
-100.536
11
187.076
21
-100.536
0
LINE
8
BLACK
6
CONTINUOUS
10
187.076
20
-100.536
11
187.076
21
-101.244
0
LINE
8
BLACK
6
CONTINUOUS
10
187.076
20
-101.244
11
187.784
21
-101.244
0
LINE
8
BLACK
6
CONTINUOUS
10
187.784
20
-103.784
11
187.784
21
-103.076
0
LINE
8
BLACK
6
CONTINUOUS
10
187.784
20
-103.076
11
187.076
21
-103.076
0
LINE
8
BLACK
6
CONTINUOUS
10
187.076
20
-103.076
11
187.076
21
-103.784
0
LINE
8
BLACK
6
CONTINUOUS
10
187.076
20
-103.784
11
187.784
21
-103.784
0
LINE
8
BLACK
6
CONTINUOUS
10
144.204
20
-63.1036
11
144.204
21
-62.3964
0
LINE
8
BLACK
6
CONTINUOUS
10
144.204
20
-62.3964
11
143.496
21
-62.3964
0
LINE
8
BLACK
6
CONTINUOUS
10
143.496
20
-62.3964
11
143.496
21
-63.1036
0
LINE
8
BLACK
6
CONTINUOUS
10
143.496
20
-63.1036
11
144.204
21
-63.1036
0
LINE
8
BLACK
6
CONTINUOUS
10
146.744
20
-63.1036
11
146.744
21
-62.3964
0
LINE
8
BLACK
6
CONTINUOUS
10
146.744
20
-62.3964
11
146.036
21
-62.3964
0
LINE
8
BLACK
6
CONTINUOUS
10
146.036
20
-62.3964
11
146.036
21
-63.1036
0
LINE
8
BLACK
6
CONTINUOUS
10
146.036
20
-63.1036
11
146.744
21
-63.1036
0
LINE
8
BLACK
6
CONTINUOUS
10
149.284
20
-63.1036
11
149.284
21
-62.3964
0
LINE
8
BLACK
6
CONTINUOUS
10
149.284
20
-62.3964
11
148.576
21
-62.3964
0
LINE
8
BLACK
6
CONTINUOUS
10
148.576
20
-62.3964
11
148.576
21
-63.1036
0
LINE
8
BLACK
6
CONTINUOUS
10
148.576
20
-63.1036
11
149.284
21
-63.1036
0
LINE
8
BLACK
6
CONTINUOUS
10
151.824
20
-63.1036
11
151.824
21
-62.3964
0
LINE
8
BLACK
6
CONTINUOUS
10
151.824
20
-62.3964
11
151.116
21
-62.3964
0
LINE
8
BLACK
6
CONTINUOUS
10
151.116
20
-62.3964
11
151.116
21
-63.1036
0
LINE
8
BLACK
6
CONTINUOUS
10
151.116
20
-63.1036
11
151.824
21
-63.1036
0
LINE
8
BLACK
6
CONTINUOUS
10
125.524
20
-77.3036
11
125.524
21
-76.5964
0
LINE
8
BLACK
6
CONTINUOUS
10
125.524
20
-76.5964
11
124.816
21
-76.5964
0
LINE
8
BLACK
6
CONTINUOUS
10
124.816
20
-76.5964
11
124.816
21
-77.3036
0
LINE
8
BLACK
6
CONTINUOUS
10
124.816
20
-77.3036
11
125.524
21
-77.3036
0
LINE
8
BLACK
6
CONTINUOUS
10
125.524
20
-79.8436
11
125.524
21
-79.1364
0
LINE
8
BLACK
6
CONTINUOUS
10
125.524
20
-79.1364
11
124.816
21
-79.1364
0
LINE
8
BLACK
6
CONTINUOUS
10
124.816
20
-79.1364
11
124.816
21
-79.8436
0
LINE
8
BLACK
6
CONTINUOUS
10
124.816
20
-79.8436
11
125.524
21
-79.8436
0
LINE
8
BLACK
6
CONTINUOUS
10
125.524
20
-82.3836
11
125.524
21
-81.6764
0
LINE
8
BLACK
6
CONTINUOUS
10
125.524
20
-81.6764
11
124.816
21
-81.6764
0
LINE
8
BLACK
6
CONTINUOUS
10
124.816
20
-81.6764
11
124.816
21
-82.3836
0
LINE
8
BLACK
6
CONTINUOUS
10
124.816
20
-82.3836
11
125.524
21
-82.3836
0
LINE
8
BLACK
6
CONTINUOUS
10
125.524
20
-84.9236
11
125.524
21
-84.2164
0
LINE
8
BLACK
6
CONTINUOUS
10
125.524
20
-84.2164
11
124.816
21
-84.2164
0
LINE
8
BLACK
6
CONTINUOUS
10
124.816
20
-84.2164
11
124.816
21
-84.9236
0
LINE
8
BLACK
6
CONTINUOUS
10
124.816
20
-84.9236
11
125.524
21
-84.9236
0
LINE
8
BLACK
6
CONTINUOUS
10
125.524
20
-87.4636
11
125.524
21
-86.7564
0
LINE
8
BLACK
6
CONTINUOUS
10
125.524
20
-86.7564
11
124.816
21
-86.7564
0
LINE
8
BLACK
6
CONTINUOUS
10
124.816
20
-86.7564
11
124.816
21
-87.4636
0
LINE
8
BLACK
6
CONTINUOUS
10
124.816
20
-87.4636
11
125.524
21
-87.4636
0
LINE
8
BLACK
6
CONTINUOUS
10
125.524
20
-90.0036
11
125.524
21
-89.2964
0
LINE
8
BLACK
6
CONTINUOUS
10
125.524
20
-89.2964
11
124.816
21
-89.2964
0
LINE
8
BLACK
6
CONTINUOUS
10
124.816
20
-89.2964
11
124.816
21
-90.0036
0
LINE
8
BLACK
6
CONTINUOUS
10
124.816
20
-90.0036
11
125.524
21
-90.0036
0
LINE
8
BLACK
6
CONTINUOUS
10
115.424
20
-111.444
11
115.424
21
-110.736
0
LINE
8
BLACK
6
CONTINUOUS
10
115.424
20
-110.736
11
114.716
21
-110.736
0
LINE
8
BLACK
6
CONTINUOUS
10
114.716
20
-110.736
11
114.716
21
-111.444
0
LINE
8
BLACK
6
CONTINUOUS
10
114.716
20
-111.444
11
115.424
21
-111.444
0
LINE
8
BLACK
6
CONTINUOUS
10
117.964
20
-111.444
11
117.964
21
-110.736
0
LINE
8
BLACK
6
CONTINUOUS
10
117.964
20
-110.736
11
117.256
21
-110.736
0
LINE
8
BLACK
6
CONTINUOUS
10
117.256
20
-110.736
11
117.256
21
-111.444
0
LINE
8
BLACK
6
CONTINUOUS
10
117.256
20
-111.444
11
117.964
21
-111.444
0
LINE
8
BLACK
6
CONTINUOUS
10
120.504
20
-111.444
11
120.504
21
-110.736
0
LINE
8
BLACK
6
CONTINUOUS
10
120.504
20
-110.736
11
119.796
21
-110.736
0
LINE
8
BLACK
6
CONTINUOUS
10
119.796
20
-110.736
11
119.796
21
-111.444
0
LINE
8
BLACK
6
CONTINUOUS
10
119.796
20
-111.444
11
120.504
21
-111.444
0
LINE
8
BLACK
6
CONTINUOUS
10
123.044
20
-111.444
11
123.044
21
-110.736
0
LINE
8
BLACK
6
CONTINUOUS
10
123.044
20
-110.736
11
122.336
21
-110.736
0
LINE
8
BLACK
6
CONTINUOUS
10
122.336
20
-110.736
11
122.336
21
-111.444
0
LINE
8
BLACK
6
CONTINUOUS
10
122.336
20
-111.444
11
123.044
21
-111.444
0
LINE
8
BLACK
6
CONTINUOUS
10
125.584
20
-111.444
11
125.584
21
-110.736
0
LINE
8
BLACK
6
CONTINUOUS
10
125.584
20
-110.736
11
124.876
21
-110.736
0
LINE
8
BLACK
6
CONTINUOUS
10
124.876
20
-110.736
11
124.876
21
-111.444
0
LINE
8
BLACK
6
CONTINUOUS
10
124.876
20
-111.444
11
125.584
21
-111.444
0
LINE
8
BLACK
6
CONTINUOUS
10
128.124
20
-111.444
11
128.124
21
-110.736
0
LINE
8
BLACK
6
CONTINUOUS
10
128.124
20
-110.736
11
127.416
21
-110.736
0
LINE
8
BLACK
6
CONTINUOUS
10
127.416
20
-110.736
11
127.416
21
-111.444
0
LINE
8
BLACK
6
CONTINUOUS
10
127.416
20
-111.444
11
128.124
21
-111.444
0
LINE
8
BLACK
6
CONTINUOUS
10
130.664
20
-111.444
11
130.664
21
-110.736
0
LINE
8
BLACK
6
CONTINUOUS
10
130.664
20
-110.736
11
129.956
21
-110.736
0
LINE
8
BLACK
6
CONTINUOUS
10
129.956
20
-110.736
11
129.956
21
-111.444
0
LINE
8
BLACK
6
CONTINUOUS
10
129.956
20
-111.444
11
130.664
21
-111.444
0
LINE
8
BLACK
6
CONTINUOUS
10
135.754
20
-111.444
11
135.754
21
-110.736
0
LINE
8
BLACK
6
CONTINUOUS
10
135.754
20
-110.736
11
135.046
21
-110.736
0
LINE
8
BLACK
6
CONTINUOUS
10
135.046
20
-110.736
11
135.046
21
-111.444
0
LINE
8
BLACK
6
CONTINUOUS
10
135.046
20
-111.444
11
135.754
21
-111.444
0
LINE
8
BLACK
6
CONTINUOUS
10
138.294
20
-111.444
11
138.294
21
-110.736
0
LINE
8
BLACK
6
CONTINUOUS
10
138.294
20
-110.736
11
137.586
21
-110.736
0
LINE
8
BLACK
6
CONTINUOUS
10
137.586
20
-110.736
11
137.586
21
-111.444
0
LINE
8
BLACK
6
CONTINUOUS
10
137.586
20
-111.444
11
138.294
21
-111.444
0
LINE
8
BLACK
6
CONTINUOUS
10
140.834
20
-111.444
11
140.834
21
-110.736
0
LINE
8
BLACK
6
CONTINUOUS
10
140.834
20
-110.736
11
140.126
21
-110.736
0
LINE
8
BLACK
6
CONTINUOUS
10
140.126
20
-110.736
11
140.126
21
-111.444
0
LINE
8
BLACK
6
CONTINUOUS
10
140.126
20
-111.444
11
140.834
21
-111.444
0
LINE
8
BLACK
6
CONTINUOUS
10
143.374
20
-111.444
11
143.374
21
-110.736
0
LINE
8
BLACK
6
CONTINUOUS
10
143.374
20
-110.736
11
142.666
21
-110.736
0
LINE
8
BLACK
6
CONTINUOUS
10
142.666
20
-110.736
11
142.666
21
-111.444
0
LINE
8
BLACK
6
CONTINUOUS
10
142.666
20
-111.444
11
143.374
21
-111.444
0
LINE
8
BLACK
6
CONTINUOUS
10
145.914
20
-111.444
11
145.914
21
-110.736
0
LINE
8
BLACK
6
CONTINUOUS
10
145.914
20
-110.736
11
145.206
21
-110.736
0
LINE
8
BLACK
6
CONTINUOUS
10
145.206
20
-110.736
11
145.206
21
-111.444
0
LINE
8
BLACK
6
CONTINUOUS
10
145.206
20
-111.444
11
145.914
21
-111.444
0
LINE
8
BLACK
6
CONTINUOUS
10
148.454
20
-111.444
11
148.454
21
-110.736
0
LINE
8
BLACK
6
CONTINUOUS
10
148.454
20
-110.736
11
147.746
21
-110.736
0
LINE
8
BLACK
6
CONTINUOUS
10
147.746
20
-110.736
11
147.746
21
-111.444
0
LINE
8
BLACK
6
CONTINUOUS
10
147.746
20
-111.444
11
148.454
21
-111.444
0
LINE
8
BLACK
6
CONTINUOUS
10
150.994
20
-111.444
11
150.994
21
-110.736
0
LINE
8
BLACK
6
CONTINUOUS
10
150.994
20
-110.736
11
150.286
21
-110.736
0
LINE
8
BLACK
6
CONTINUOUS
10
150.286
20
-110.736
11
150.286
21
-111.444
0
LINE
8
BLACK
6
CONTINUOUS
10
150.286
20
-111.444
11
150.994
21
-111.444
0
LINE
8
BLACK
6
CONTINUOUS
10
153.534
20
-111.444
11
153.534
21
-110.736
0
LINE
8
BLACK
6
CONTINUOUS
10
153.534
20
-110.736
11
152.826
21
-110.736
0
LINE
8
BLACK
6
CONTINUOUS
10
152.826
20
-110.736
11
152.826
21
-111.444
0
LINE
8
BLACK
6
CONTINUOUS
10
152.826
20
-111.444
11
153.534
21
-111.444
0
LINE
8
BLACK
6
CONTINUOUS
10
156.074
20
-111.444
11
156.074
21
-110.736
0
LINE
8
BLACK
6
CONTINUOUS
10
156.074
20
-110.736
11
155.366
21
-110.736
0
LINE
8
BLACK
6
CONTINUOUS
10
155.366
20
-110.736
11
155.366
21
-111.444
0
LINE
8
BLACK
6
CONTINUOUS
10
155.366
20
-111.444
11
156.074
21
-111.444
0
LINE
8
BLACK
6
CONTINUOUS
10
158.614
20
-111.444
11
158.614
21
-110.736
0
LINE
8
BLACK
6
CONTINUOUS
10
158.614
20
-110.736
11
157.906
21
-110.736
0
LINE
8
BLACK
6
CONTINUOUS
10
157.906
20
-110.736
11
157.906
21
-111.444
0
LINE
8
BLACK
6
CONTINUOUS
10
157.906
20
-111.444
11
158.614
21
-111.444
0
LINE
8
BLACK
6
CONTINUOUS
10
161.154
20
-111.444
11
161.154
21
-110.736
0
LINE
8
BLACK
6
CONTINUOUS
10
161.154
20
-110.736
11
160.446
21
-110.736
0
LINE
8
BLACK
6
CONTINUOUS
10
160.446
20
-110.736
11
160.446
21
-111.444
0
LINE
8
BLACK
6
CONTINUOUS
10
160.446
20
-111.444
11
161.154
21
-111.444
0
LINE
8
BLACK
6
CONTINUOUS
10
163.694
20
-111.444
11
163.694
21
-110.736
0
LINE
8
BLACK
6
CONTINUOUS
10
163.694
20
-110.736
11
162.986
21
-110.736
0
LINE
8
BLACK
6
CONTINUOUS
10
162.986
20
-110.736
11
162.986
21
-111.444
0
LINE
8
BLACK
6
CONTINUOUS
10
162.986
20
-111.444
11
163.694
21
-111.444
0
LINE
8
BLACK
6
CONTINUOUS
10
114.284
20
-63.1036
11
114.284
21
-62.3964
0
LINE
8
BLACK
6
CONTINUOUS
10
114.284
20
-62.3964
11
113.576
21
-62.3964
0
LINE
8
BLACK
6
CONTINUOUS
10
113.576
20
-62.3964
11
113.576
21
-63.1036
0
LINE
8
BLACK
6
CONTINUOUS
10
113.576
20
-63.1036
11
114.284
21
-63.1036
0
LINE
8
BLACK
6
CONTINUOUS
10
116.824
20
-63.1036
11
116.824
21
-62.3964
0
LINE
8
BLACK
6
CONTINUOUS
10
116.824
20
-62.3964
11
116.116
21
-62.3964
0
LINE
8
BLACK
6
CONTINUOUS
10
116.116
20
-62.3964
11
116.116
21
-63.1036
0
LINE
8
BLACK
6
CONTINUOUS
10
116.116
20
-63.1036
11
116.824
21
-63.1036
0
LINE
8
BLACK
6
CONTINUOUS
10
119.364
20
-63.1036
11
119.364
21
-62.3964
0
LINE
8
BLACK
6
CONTINUOUS
10
119.364
20
-62.3964
11
118.656
21
-62.3964
0
LINE
8
BLACK
6
CONTINUOUS
10
118.656
20
-62.3964
11
118.656
21
-63.1036
0
LINE
8
BLACK
6
CONTINUOUS
10
118.656
20
-63.1036
11
119.364
21
-63.1036
0
LINE
8
BLACK
6
CONTINUOUS
10
121.904
20
-63.1036
11
121.904
21
-62.3964
0
LINE
8
BLACK
6
CONTINUOUS
10
121.904
20
-62.3964
11
121.196
21
-62.3964
0
LINE
8
BLACK
6
CONTINUOUS
10
121.196
20
-62.3964
11
121.196
21
-63.1036
0
LINE
8
BLACK
6
CONTINUOUS
10
121.196
20
-63.1036
11
121.904
21
-63.1036
0
LINE
8
BLACK
6
CONTINUOUS
10
124.444
20
-63.1036
11
124.444
21
-62.3964
0
LINE
8
BLACK
6
CONTINUOUS
10
124.444
20
-62.3964
11
123.736
21
-62.3964
0
LINE
8
BLACK
6
CONTINUOUS
10
123.736
20
-62.3964
11
123.736
21
-63.1036
0
LINE
8
BLACK
6
CONTINUOUS
10
123.736
20
-63.1036
11
124.444
21
-63.1036
0
LINE
8
BLACK
6
CONTINUOUS
10
126.984
20
-63.1036
11
126.984
21
-62.3964
0
LINE
8
BLACK
6
CONTINUOUS
10
126.984
20
-62.3964
11
126.276
21
-62.3964
0
LINE
8
BLACK
6
CONTINUOUS
10
126.276
20
-62.3964
11
126.276
21
-63.1036
0
LINE
8
BLACK
6
CONTINUOUS
10
126.276
20
-63.1036
11
126.984
21
-63.1036
0
LINE
8
BLACK
6
CONTINUOUS
10
104.88
20
-112.62
11
106.48
21
-111.02
0
LINE
8
BLACK
6
CONTINUOUS
10
106.48
20
-111.02
11
104.88
21
-109.42
0
LINE
8
BLACK
6
CONTINUOUS
10
104.88
20
-109.42
11
103.28
21
-111.02
0
LINE
8
BLACK
6
CONTINUOUS
10
103.28
20
-111.02
11
104.88
21
-112.62
0
LINE
8
BLACK
6
CONTINUOUS
10
187.42
20
-112.61
11
189.02
21
-111.01
0
LINE
8
BLACK
6
CONTINUOUS
10
189.02
20
-111.01
11
187.42
21
-109.41
0
LINE
8
BLACK
6
CONTINUOUS
10
187.42
20
-109.41
11
185.82
21
-111.01
0
LINE
8
BLACK
6
CONTINUOUS
10
185.82
20
-111.01
11
187.42
21
-112.61
0
LINE
8
BLACK
6
CONTINUOUS
10
181.09
20
-64.38
11
182.69
21
-62.78
0
LINE
8
BLACK
6
CONTINUOUS
10
182.69
20
-62.78
11
181.09
21
-61.18
0
LINE
8
BLACK
6
CONTINUOUS
10
181.09
20
-61.18
11
179.49
21
-62.78
0
LINE
8
BLACK
6
CONTINUOUS
10
179.49
20
-62.78
11
181.09
21
-64.38
0
LINE
8
BLACK
6
CONTINUOUS
10
106.15
20
-64.37
11
107.75
21
-62.77
0
LINE
8
BLACK
6
CONTINUOUS
10
107.75
20
-62.77
11
106.15
21
-61.17
0
LINE
8
BLACK
6
CONTINUOUS
10
106.15
20
-61.17
11
104.55
21
-62.77
0
LINE
8
BLACK
6
CONTINUOUS
10
104.55
20
-62.77
11
106.15
21
-64.37
0
LINE
8
BLACK
6
CONTINUOUS
10
93.7543
20
-118.307
11
93.7543
21
-115.307
0
LINE
8
BLACK
6
CONTINUOUS
10
93.7543
20
-115.307
11
94.4686
21
-115.307
0
LINE
8
BLACK
6
CONTINUOUS
10
94.4686
20
-115.307
11
94.8971
21
-115.45
0
LINE
8
BLACK
6
CONTINUOUS
10
94.8971
20
-115.45
11
95.1829
21
-115.736
0
LINE
8
BLACK
6
CONTINUOUS
10
95.1829
20
-115.736
11
95.3257
21
-116.021
0
LINE
8
BLACK
6
CONTINUOUS
10
95.3257
20
-116.021
11
95.4686
21
-116.593
0
LINE
8
BLACK
6
CONTINUOUS
10
95.4686
20
-116.593
11
95.4686
21
-117.021
0
LINE
8
BLACK
6
CONTINUOUS
10
95.4686
20
-117.021
11
95.3257
21
-117.593
0
LINE
8
BLACK
6
CONTINUOUS
10
95.3257
20
-117.593
11
95.1829
21
-117.879
0
LINE
8
BLACK
6
CONTINUOUS
10
95.1829
20
-117.879
11
94.8971
21
-118.164
0
LINE
8
BLACK
6
CONTINUOUS
10
94.8971
20
-118.164
11
94.4686
21
-118.307
0
LINE
8
BLACK
6
CONTINUOUS
10
94.4686
20
-118.307
11
93.7543
21
-118.307
0
LINE
8
BLACK
6
CONTINUOUS
10
96.7543
20
-118.307
11
96.7543
21
-116.307
0
LINE
8
BLACK
6
CONTINUOUS
10
96.7543
20
-116.879
11
96.8971
21
-116.593
0
LINE
8
BLACK
6
CONTINUOUS
10
96.8971
20
-116.593
11
97.04
21
-116.45
0
LINE
8
BLACK
6
CONTINUOUS
10
97.04
20
-116.45
11
97.3257
21
-116.307
0
LINE
8
BLACK
6
CONTINUOUS
10
97.3257
20
-116.307
11
97.6114
21
-116.307
0
LINE
8
BLACK
6
CONTINUOUS
10
98.6114
20
-118.307
11
98.6114
21
-116.307
0
LINE
8
BLACK
6
CONTINUOUS
10
98.6114
20
-115.307
11
98.4686
21
-115.45
0
LINE
8
BLACK
6
CONTINUOUS
10
98.4686
20
-115.45
11
98.6114
21
-115.593
0
LINE
8
BLACK
6
CONTINUOUS
10
98.6114
20
-115.593
11
98.7543
21
-115.45
0
LINE
8
BLACK
6
CONTINUOUS
10
98.7543
20
-115.45
11
98.6114
21
-115.307
0
LINE
8
BLACK
6
CONTINUOUS
10
98.6114
20
-115.307
11
98.6114
21
-115.593
0
LINE
8
BLACK
6
CONTINUOUS
10
100.469
20
-118.307
11
100.183
21
-118.164
0
LINE
8
BLACK
6
CONTINUOUS
10
100.183
20
-118.164
11
100.04
21
-117.879
0
LINE
8
BLACK
6
CONTINUOUS
10
100.04
20
-117.879
11
100.04
21
-115.307
0
LINE
8
BLACK
6
CONTINUOUS
10
102.04
20
-118.307
11
101.754
21
-118.164
0
LINE
8
BLACK
6
CONTINUOUS
10
101.754
20
-118.164
11
101.611
21
-117.879
0
LINE
8
BLACK
6
CONTINUOUS
10
101.611
20
-117.879
11
101.611
21
-115.307
0
LINE
8
BLACK
6
CONTINUOUS
10
105.469
20
-118.307
11
105.469
21
-115.307
0
LINE
8
BLACK
6
CONTINUOUS
10
105.469
20
-115.307
11
106.469
21
-117.45
0
LINE
8
BLACK
6
CONTINUOUS
10
106.469
20
-117.45
11
107.469
21
-115.307
0
LINE
8
BLACK
6
CONTINUOUS
10
107.469
20
-115.307
11
107.469
21
-118.307
0
LINE
8
BLACK
6
CONTINUOUS
10
110.183
20
-118.307
11
110.183
21
-116.736
0
LINE
8
BLACK
6
CONTINUOUS
10
110.183
20
-116.736
11
110.04
21
-116.45
0
LINE
8
BLACK
6
CONTINUOUS
10
110.04
20
-116.45
11
109.754
21
-116.307
0
LINE
8
BLACK
6
CONTINUOUS
10
109.754
20
-116.307
11
109.183
21
-116.307
0
LINE
8
BLACK
6
CONTINUOUS
10
109.183
20
-116.307
11
108.897
21
-116.45
0
LINE
8
BLACK
6
CONTINUOUS
10
110.183
20
-118.164
11
109.897
21
-118.307
0
LINE
8
BLACK
6
CONTINUOUS
10
109.897
20
-118.307
11
109.183
21
-118.307
0
LINE
8
BLACK
6
CONTINUOUS
10
109.183
20
-118.307
11
108.897
21
-118.164
0
LINE
8
BLACK
6
CONTINUOUS
10
108.897
20
-118.164
11
108.754
21
-117.879
0
LINE
8
BLACK
6
CONTINUOUS
10
108.754
20
-117.879
11
108.754
21
-117.593
0
LINE
8
BLACK
6
CONTINUOUS
10
108.754
20
-117.593
11
108.897
21
-117.307
0
LINE
8
BLACK
6
CONTINUOUS
10
108.897
20
-117.307
11
109.183
21
-117.164
0
LINE
8
BLACK
6
CONTINUOUS
10
109.183
20
-117.164
11
109.897
21
-117.164
0
LINE
8
BLACK
6
CONTINUOUS
10
109.897
20
-117.164
11
110.183
21
-117.021
0
LINE
8
BLACK
6
CONTINUOUS
10
111.611
20
-116.307
11
111.611
21
-119.307
0
LINE
8
BLACK
6
CONTINUOUS
10
111.611
20
-116.45
11
111.897
21
-116.307
0
LINE
8
BLACK
6
CONTINUOUS
10
111.897
20
-116.307
11
112.469
21
-116.307
0
LINE
8
BLACK
6
CONTINUOUS
10
112.469
20
-116.307
11
112.754
21
-116.45
0
LINE
8
BLACK
6
CONTINUOUS
10
112.754
20
-116.45
11
112.897
21
-116.593
0
LINE
8
BLACK
6
CONTINUOUS
10
112.897
20
-116.593
11
113.04
21
-116.879
0
LINE
8
BLACK
6
CONTINUOUS
10
113.04
20
-116.879
11
113.04
21
-117.736
0
LINE
8
BLACK
6
CONTINUOUS
10
113.04
20
-117.736
11
112.897
21
-118.021
0
LINE
8
BLACK
6
CONTINUOUS
10
112.897
20
-118.021
11
112.754
21
-118.164
0
LINE
8
BLACK
6
CONTINUOUS
10
112.754
20
-118.164
11
112.469
21
-118.307
0
LINE
8
BLACK
6
CONTINUOUS
10
112.469
20
-118.307
11
111.897
21
-118.307
0
LINE
8
BLACK
6
CONTINUOUS
10
111.897
20
-118.307
11
111.611
21
-118.164
0
LINE
8
BLACK
6
CONTINUOUS
10
114.326
20
-118.021
11
114.469
21
-118.164
0
LINE
8
BLACK
6
CONTINUOUS
10
114.469
20
-118.164
11
114.326
21
-118.307
0
LINE
8
BLACK
6
CONTINUOUS
10
114.326
20
-118.307
11
114.183
21
-118.164
0
LINE
8
BLACK
6
CONTINUOUS
10
114.183
20
-118.164
11
114.326
21
-118.021
0
LINE
8
BLACK
6
CONTINUOUS
10
114.326
20
-118.021
11
114.326
21
-118.307
0
LINE
8
BLACK
6
CONTINUOUS
10
114.326
20
-116.45
11
114.469
21
-116.593
0
LINE
8
BLACK
6
CONTINUOUS
10
114.469
20
-116.593
11
114.326
21
-116.736
0
LINE
8
BLACK
6
CONTINUOUS
10
114.326
20
-116.736
11
114.183
21
-116.593
0
LINE
8
BLACK
6
CONTINUOUS
10
114.183
20
-116.593
11
114.326
21
-116.45
0
LINE
8
BLACK
6
CONTINUOUS
10
114.326
20
-116.45
11
114.326
21
-116.736
0
LINE
8
BLACK
6
CONTINUOUS
10
90.4836
20
-123.047
11
90.89
21
-123.453
0
LINE
8
BLACK
6
CONTINUOUS
10
90.89
20
-123.047
11
90.4836
21
-123.453
0
LINE
8
BLACK
6
CONTINUOUS
10
94.3257
20
-121.607
11
94.6114
21
-121.607
0
LINE
8
BLACK
6
CONTINUOUS
10
94.6114
20
-121.607
11
94.8971
21
-121.75
0
LINE
8
BLACK
6
CONTINUOUS
10
94.8971
20
-121.75
11
95.04
21
-121.893
0
LINE
8
BLACK
6
CONTINUOUS
10
95.04
20
-121.893
11
95.1829
21
-122.179
0
LINE
8
BLACK
6
CONTINUOUS
10
95.1829
20
-122.179
11
95.3257
21
-122.75
0
LINE
8
BLACK
6
CONTINUOUS
10
95.3257
20
-122.75
11
95.3257
21
-123.464
0
LINE
8
BLACK
6
CONTINUOUS
10
95.3257
20
-123.464
11
95.1829
21
-124.036
0
LINE
8
BLACK
6
CONTINUOUS
10
95.1829
20
-124.036
11
95.04
21
-124.321
0
LINE
8
BLACK
6
CONTINUOUS
10
95.04
20
-124.321
11
94.8971
21
-124.464
0
LINE
8
BLACK
6
CONTINUOUS
10
94.8971
20
-124.464
11
94.6114
21
-124.607
0
LINE
8
BLACK
6
CONTINUOUS
10
94.6114
20
-124.607
11
94.3257
21
-124.607
0
LINE
8
BLACK
6
CONTINUOUS
10
94.3257
20
-124.607
11
94.04
21
-124.464
0
LINE
8
BLACK
6
CONTINUOUS
10
94.04
20
-124.464
11
93.8971
21
-124.321
0
LINE
8
BLACK
6
CONTINUOUS
10
93.8971
20
-124.321
11
93.7543
21
-124.036
0
LINE
8
BLACK
6
CONTINUOUS
10
93.7543
20
-124.036
11
93.6114
21
-123.464
0
LINE
8
BLACK
6
CONTINUOUS
10
93.6114
20
-123.464
11
93.6114
21
-122.75
0
LINE
8
BLACK
6
CONTINUOUS
10
93.6114
20
-122.75
11
93.7543
21
-122.179
0
LINE
8
BLACK
6
CONTINUOUS
10
93.7543
20
-122.179
11
93.8971
21
-121.893
0
LINE
8
BLACK
6
CONTINUOUS
10
93.8971
20
-121.893
11
94.04
21
-121.75
0
LINE
8
BLACK
6
CONTINUOUS
10
94.04
20
-121.75
11
94.3257
21
-121.607
0
LINE
8
BLACK
6
CONTINUOUS
10
96.6114
20
-124.321
11
96.7543
21
-124.464
0
LINE
8
BLACK
6
CONTINUOUS
10
96.7543
20
-124.464
11
96.6114
21
-124.607
0
LINE
8
BLACK
6
CONTINUOUS
10
96.6114
20
-124.607
11
96.4686
21
-124.464
0
LINE
8
BLACK
6
CONTINUOUS
10
96.4686
20
-124.464
11
96.6114
21
-124.321
0
LINE
8
BLACK
6
CONTINUOUS
10
96.6114
20
-124.321
11
96.6114
21
-124.607
0
LINE
8
BLACK
6
CONTINUOUS
10
99.3257
20
-122.607
11
99.3257
21
-124.607
0
LINE
8
BLACK
6
CONTINUOUS
10
98.6114
20
-121.464
11
97.8971
21
-123.607
0
LINE
8
BLACK
6
CONTINUOUS
10
97.8971
20
-123.607
11
99.7543
21
-123.607
0
LINE
8
BLACK
6
CONTINUOUS
10
102.469
20
-124.607
11
100.754
21
-124.607
0
LINE
8
BLACK
6
CONTINUOUS
10
101.611
20
-124.607
11
101.611
21
-121.607
0
LINE
8
BLACK
6
CONTINUOUS
10
101.611
20
-121.607
11
101.326
21
-122.036
0
LINE
8
BLACK
6
CONTINUOUS
10
101.326
20
-122.036
11
101.04
21
-122.321
0
LINE
8
BLACK
6
CONTINUOUS
10
101.04
20
-122.321
11
100.754
21
-122.464
0
LINE
8
BLACK
6
CONTINUOUS
10
103.754
20
-124.607
11
103.754
21
-122.607
0
LINE
8
BLACK
6
CONTINUOUS
10
103.754
20
-122.893
11
103.897
21
-122.75
0
LINE
8
BLACK
6
CONTINUOUS
10
103.897
20
-122.75
11
104.183
21
-122.607
0
LINE
8
BLACK
6
CONTINUOUS
10
104.183
20
-122.607
11
104.611
21
-122.607
0
LINE
8
BLACK
6
CONTINUOUS
10
104.611
20
-122.607
11
104.897
21
-122.75
0
LINE
8
BLACK
6
CONTINUOUS
10
104.897
20
-122.75
11
105.04
21
-123.036
0
LINE
8
BLACK
6
CONTINUOUS
10
105.04
20
-123.036
11
105.04
21
-124.607
0
LINE
8
BLACK
6
CONTINUOUS
10
105.04
20
-123.036
11
105.183
21
-122.75
0
LINE
8
BLACK
6
CONTINUOUS
10
105.183
20
-122.75
11
105.469
21
-122.607
0
LINE
8
BLACK
6
CONTINUOUS
10
105.469
20
-122.607
11
105.897
21
-122.607
0
LINE
8
BLACK
6
CONTINUOUS
10
105.897
20
-122.607
11
106.183
21
-122.75
0
LINE
8
BLACK
6
CONTINUOUS
10
106.183
20
-122.75
11
106.326
21
-123.036
0
LINE
8
BLACK
6
CONTINUOUS
10
106.326
20
-123.036
11
106.326
21
-124.607
0
LINE
8
BLACK
6
CONTINUOUS
10
107.754
20
-124.607
11
107.754
21
-122.607
0
LINE
8
BLACK
6
CONTINUOUS
10
107.754
20
-122.893
11
107.897
21
-122.75
0
LINE
8
BLACK
6
CONTINUOUS
10
107.897
20
-122.75
11
108.183
21
-122.607
0
LINE
8
BLACK
6
CONTINUOUS
10
108.183
20
-122.607
11
108.611
21
-122.607
0
LINE
8
BLACK
6
CONTINUOUS
10
108.611
20
-122.607
11
108.897
21
-122.75
0
LINE
8
BLACK
6
CONTINUOUS
10
108.897
20
-122.75
11
109.04
21
-123.036
0
LINE
8
BLACK
6
CONTINUOUS
10
109.04
20
-123.036
11
109.04
21
-124.607
0
LINE
8
BLACK
6
CONTINUOUS
10
109.04
20
-123.036
11
109.183
21
-122.75
0
LINE
8
BLACK
6
CONTINUOUS
10
109.183
20
-122.75
11
109.469
21
-122.607
0
LINE
8
BLACK
6
CONTINUOUS
10
109.469
20
-122.607
11
109.897
21
-122.607
0
LINE
8
BLACK
6
CONTINUOUS
10
109.897
20
-122.607
11
110.183
21
-122.75
0
LINE
8
BLACK
6
CONTINUOUS
10
110.183
20
-122.75
11
110.326
21
-123.036
0
LINE
8
BLACK
6
CONTINUOUS
10
110.326
20
-123.036
11
110.326
21
-124.607
0
LINE
8
BLACK
6
CONTINUOUS
10
116.183
20
-121.464
11
113.611
21
-125.321
0
LINE
8
BLACK
6
CONTINUOUS
10
120.04
20
-121.607
11
120.326
21
-121.607
0
LINE
8
BLACK
6
CONTINUOUS
10
120.326
20
-121.607
11
120.611
21
-121.75
0
LINE
8
BLACK
6
CONTINUOUS
10
120.611
20
-121.75
11
120.754
21
-121.893
0
LINE
8
BLACK
6
CONTINUOUS
10
120.754
20
-121.893
11
120.897
21
-122.179
0
LINE
8
BLACK
6
CONTINUOUS
10
120.897
20
-122.179
11
121.04
21
-122.75
0
LINE
8
BLACK
6
CONTINUOUS
10
121.04
20
-122.75
11
121.04
21
-123.464
0
LINE
8
BLACK
6
CONTINUOUS
10
121.04
20
-123.464
11
120.897
21
-124.036
0
LINE
8
BLACK
6
CONTINUOUS
10
120.897
20
-124.036
11
120.754
21
-124.321
0
LINE
8
BLACK
6
CONTINUOUS
10
120.754
20
-124.321
11
120.611
21
-124.464
0
LINE
8
BLACK
6
CONTINUOUS
10
120.611
20
-124.464
11
120.326
21
-124.607
0
LINE
8
BLACK
6
CONTINUOUS
10
120.326
20
-124.607
11
120.04
21
-124.607
0
LINE
8
BLACK
6
CONTINUOUS
10
120.04
20
-124.607
11
119.754
21
-124.464
0
LINE
8
BLACK
6
CONTINUOUS
10
119.754
20
-124.464
11
119.611
21
-124.321
0
LINE
8
BLACK
6
CONTINUOUS
10
119.611
20
-124.321
11
119.469
21
-124.036
0
LINE
8
BLACK
6
CONTINUOUS
10
119.469
20
-124.036
11
119.326
21
-123.464
0
LINE
8
BLACK
6
CONTINUOUS
10
119.326
20
-123.464
11
119.326
21
-122.75
0
LINE
8
BLACK
6
CONTINUOUS
10
119.326
20
-122.75
11
119.469
21
-122.179
0
LINE
8
BLACK
6
CONTINUOUS
10
119.469
20
-122.179
11
119.611
21
-121.893
0
LINE
8
BLACK
6
CONTINUOUS
10
119.611
20
-121.893
11
119.754
21
-121.75
0
LINE
8
BLACK
6
CONTINUOUS
10
119.754
20
-121.75
11
120.04
21
-121.607
0
LINE
8
BLACK
6
CONTINUOUS
10
122.326
20
-124.321
11
122.469
21
-124.464
0
LINE
8
BLACK
6
CONTINUOUS
10
122.469
20
-124.464
11
122.326
21
-124.607
0
LINE
8
BLACK
6
CONTINUOUS
10
122.326
20
-124.607
11
122.183
21
-124.464
0
LINE
8
BLACK
6
CONTINUOUS
10
122.183
20
-124.464
11
122.326
21
-124.321
0
LINE
8
BLACK
6
CONTINUOUS
10
122.326
20
-124.321
11
122.326
21
-124.607
0
LINE
8
BLACK
6
CONTINUOUS
10
124.326
20
-121.607
11
124.611
21
-121.607
0
LINE
8
BLACK
6
CONTINUOUS
10
124.611
20
-121.607
11
124.897
21
-121.75
0
LINE
8
BLACK
6
CONTINUOUS
10
124.897
20
-121.75
11
125.04
21
-121.893
0
LINE
8
BLACK
6
CONTINUOUS
10
125.04
20
-121.893
11
125.183
21
-122.179
0
LINE
8
BLACK
6
CONTINUOUS
10
125.183
20
-122.179
11
125.326
21
-122.75
0
LINE
8
BLACK
6
CONTINUOUS
10
125.326
20
-122.75
11
125.326
21
-123.464
0
LINE
8
BLACK
6
CONTINUOUS
10
125.326
20
-123.464
11
125.183
21
-124.036
0
LINE
8
BLACK
6
CONTINUOUS
10
125.183
20
-124.036
11
125.04
21
-124.321
0
LINE
8
BLACK
6
CONTINUOUS
10
125.04
20
-124.321
11
124.897
21
-124.464
0
LINE
8
BLACK
6
CONTINUOUS
10
124.897
20
-124.464
11
124.611
21
-124.607
0
LINE
8
BLACK
6
CONTINUOUS
10
124.611
20
-124.607
11
124.326
21
-124.607
0
LINE
8
BLACK
6
CONTINUOUS
10
124.326
20
-124.607
11
124.04
21
-124.464
0
LINE
8
BLACK
6
CONTINUOUS
10
124.04
20
-124.464
11
123.897
21
-124.321
0
LINE
8
BLACK
6
CONTINUOUS
10
123.897
20
-124.321
11
123.754
21
-124.036
0
LINE
8
BLACK
6
CONTINUOUS
10
123.754
20
-124.036
11
123.611
21
-123.464
0
LINE
8
BLACK
6
CONTINUOUS
10
123.611
20
-123.464
11
123.611
21
-122.75
0
LINE
8
BLACK
6
CONTINUOUS
10
123.611
20
-122.75
11
123.754
21
-122.179
0
LINE
8
BLACK
6
CONTINUOUS
10
123.754
20
-122.179
11
123.897
21
-121.893
0
LINE
8
BLACK
6
CONTINUOUS
10
123.897
20
-121.893
11
124.04
21
-121.75
0
LINE
8
BLACK
6
CONTINUOUS
10
124.04
20
-121.75
11
124.326
21
-121.607
0
LINE
8
BLACK
6
CONTINUOUS
10
128.183
20
-124.607
11
126.469
21
-124.607
0
LINE
8
BLACK
6
CONTINUOUS
10
127.326
20
-124.607
11
127.326
21
-121.607
0
LINE
8
BLACK
6
CONTINUOUS
10
127.326
20
-121.607
11
127.04
21
-122.036
0
LINE
8
BLACK
6
CONTINUOUS
10
127.04
20
-122.036
11
126.754
21
-122.321
0
LINE
8
BLACK
6
CONTINUOUS
10
126.754
20
-122.321
11
126.469
21
-122.464
0
LINE
8
BLACK
6
CONTINUOUS
10
130.754
20
-121.607
11
130.183
21
-121.607
0
LINE
8
BLACK
6
CONTINUOUS
10
130.183
20
-121.607
11
129.897
21
-121.75
0
LINE
8
BLACK
6
CONTINUOUS
10
129.897
20
-121.75
11
129.754
21
-121.893
0
LINE
8
BLACK
6
CONTINUOUS
10
129.754
20
-121.893
11
129.469
21
-122.321
0
LINE
8
BLACK
6
CONTINUOUS
10
129.469
20
-122.321
11
129.326
21
-122.893
0
LINE
8
BLACK
6
CONTINUOUS
10
129.326
20
-122.893
11
129.326
21
-124.036
0
LINE
8
BLACK
6
CONTINUOUS
10
129.326
20
-124.036
11
129.469
21
-124.321
0
LINE
8
BLACK
6
CONTINUOUS
10
129.469
20
-124.321
11
129.611
21
-124.464
0
LINE
8
BLACK
6
CONTINUOUS
10
129.611
20
-124.464
11
129.897
21
-124.607
0
LINE
8
BLACK
6
CONTINUOUS
10
129.897
20
-124.607
11
130.469
21
-124.607
0
LINE
8
BLACK
6
CONTINUOUS
10
130.469
20
-124.607
11
130.754
21
-124.464
0
LINE
8
BLACK
6
CONTINUOUS
10
130.754
20
-124.464
11
130.897
21
-124.321
0
LINE
8
BLACK
6
CONTINUOUS
10
130.897
20
-124.321
11
131.04
21
-124.036
0
LINE
8
BLACK
6
CONTINUOUS
10
131.04
20
-124.036
11
131.04
21
-123.321
0
LINE
8
BLACK
6
CONTINUOUS
10
131.04
20
-123.321
11
130.897
21
-123.036
0
LINE
8
BLACK
6
CONTINUOUS
10
130.897
20
-123.036
11
130.754
21
-122.893
0
LINE
8
BLACK
6
CONTINUOUS
10
130.754
20
-122.893
11
130.469
21
-122.75
0
LINE
8
BLACK
6
CONTINUOUS
10
130.469
20
-122.75
11
129.897
21
-122.75
0
LINE
8
BLACK
6
CONTINUOUS
10
129.897
20
-122.75
11
129.611
21
-122.893
0
LINE
8
BLACK
6
CONTINUOUS
10
129.611
20
-122.893
11
129.469
21
-123.036
0
LINE
8
BLACK
6
CONTINUOUS
10
129.469
20
-123.036
11
129.326
21
-123.321
0
LINE
8
BLACK
6
CONTINUOUS
10
132.183
20
-121.607
11
132.183
21
-122.179
0
LINE
8
BLACK
6
CONTINUOUS
10
133.326
20
-121.607
11
133.326
21
-122.179
0
LINE
8
BLACK
6
CONTINUOUS
10
137.754
20
-125.75
11
137.611
21
-125.607
0
LINE
8
BLACK
6
CONTINUOUS
10
137.611
20
-125.607
11
137.326
21
-125.179
0
LINE
8
BLACK
6
CONTINUOUS
10
137.326
20
-125.179
11
137.183
21
-124.893
0
LINE
8
BLACK
6
CONTINUOUS
10
137.183
20
-124.893
11
137.04
21
-124.464
0
LINE
8
BLACK
6
CONTINUOUS
10
137.04
20
-124.464
11
136.897
21
-123.75
0
LINE
8
BLACK
6
CONTINUOUS
10
136.897
20
-123.75
11
136.897
21
-123.179
0
LINE
8
BLACK
6
CONTINUOUS
10
136.897
20
-123.179
11
137.04
21
-122.464
0
LINE
8
BLACK
6
CONTINUOUS
10
137.04
20
-122.464
11
137.183
21
-122.036
0
LINE
8
BLACK
6
CONTINUOUS
10
137.183
20
-122.036
11
137.326
21
-121.75
0
LINE
8
BLACK
6
CONTINUOUS
10
137.326
20
-121.75
11
137.611
21
-121.321
0
LINE
8
BLACK
6
CONTINUOUS
10
137.611
20
-121.321
11
137.754
21
-121.179
0
LINE
8
BLACK
6
CONTINUOUS
10
140.469
20
-124.607
11
138.754
21
-124.607
0
LINE
8
BLACK
6
CONTINUOUS
10
139.611
20
-124.607
11
139.611
21
-121.607
0
LINE
8
BLACK
6
CONTINUOUS
10
139.611
20
-121.607
11
139.326
21
-122.036
0
LINE
8
BLACK
6
CONTINUOUS
10
139.326
20
-122.036
11
139.04
21
-122.321
0
LINE
8
BLACK
6
CONTINUOUS
10
139.04
20
-122.321
11
138.754
21
-122.464
0
LINE
8
BLACK
6
CONTINUOUS
10
141.469
20
-121.607
11
143.469
21
-121.607
0
LINE
8
BLACK
6
CONTINUOUS
10
143.469
20
-121.607
11
142.183
21
-124.607
0
LINE
8
BLACK
6
CONTINUOUS
10
146.183
20
-124.607
11
144.469
21
-124.607
0
LINE
8
BLACK
6
CONTINUOUS
10
145.326
20
-124.607
11
145.326
21
-121.607
0
LINE
8
BLACK
6
CONTINUOUS
10
145.326
20
-121.607
11
145.04
21
-122.036
0
LINE
8
BLACK
6
CONTINUOUS
10
145.04
20
-122.036
11
144.754
21
-122.321
0
LINE
8
BLACK
6
CONTINUOUS
10
144.754
20
-122.321
11
144.469
21
-122.464
0
LINE
8
BLACK
6
CONTINUOUS
10
149.754
20
-124.607
11
149.754
21
-121.607
0
LINE
8
BLACK
6
CONTINUOUS
10
151.04
20
-124.607
11
151.04
21
-123.036
0
LINE
8
BLACK
6
CONTINUOUS
10
151.04
20
-123.036
11
150.897
21
-122.75
0
LINE
8
BLACK
6
CONTINUOUS
10
150.897
20
-122.75
11
150.611
21
-122.607
0
LINE
8
BLACK
6
CONTINUOUS
10
150.611
20
-122.607
11
150.183
21
-122.607
0
LINE
8
BLACK
6
CONTINUOUS
10
150.183
20
-122.607
11
149.897
21
-122.75
0
LINE
8
BLACK
6
CONTINUOUS
10
149.897
20
-122.75
11
149.754
21
-122.893
0
LINE
8
BLACK
6
CONTINUOUS
10
152.897
20
-124.607
11
152.611
21
-124.464
0
LINE
8
BLACK
6
CONTINUOUS
10
152.611
20
-124.464
11
152.469
21
-124.321
0
LINE
8
BLACK
6
CONTINUOUS
10
152.469
20
-124.321
11
152.326
21
-124.036
0
LINE
8
BLACK
6
CONTINUOUS
10
152.326
20
-124.036
11
152.326
21
-123.179
0
LINE
8
BLACK
6
CONTINUOUS
10
152.326
20
-123.179
11
152.469
21
-122.893
0
LINE
8
BLACK
6
CONTINUOUS
10
152.469
20
-122.893
11
152.611
21
-122.75
0
LINE
8
BLACK
6
CONTINUOUS
10
152.611
20
-122.75
11
152.897
21
-122.607
0
LINE
8
BLACK
6
CONTINUOUS
10
152.897
20
-122.607
11
153.326
21
-122.607
0
LINE
8
BLACK
6
CONTINUOUS
10
153.326
20
-122.607
11
153.611
21
-122.75
0
LINE
8
BLACK
6
CONTINUOUS
10
153.611
20
-122.75
11
153.754
21
-122.893
0
LINE
8
BLACK
6
CONTINUOUS
10
153.754
20
-122.893
11
153.897
21
-123.179
0
LINE
8
BLACK
6
CONTINUOUS
10
153.897
20
-123.179
11
153.897
21
-124.036
0
LINE
8
BLACK
6
CONTINUOUS
10
153.897
20
-124.036
11
153.754
21
-124.321
0
LINE
8
BLACK
6
CONTINUOUS
10
153.754
20
-124.321
11
153.611
21
-124.464
0
LINE
8
BLACK
6
CONTINUOUS
10
153.611
20
-124.464
11
153.326
21
-124.607
0
LINE
8
BLACK
6
CONTINUOUS
10
153.326
20
-124.607
11
152.897
21
-124.607
0
LINE
8
BLACK
6
CONTINUOUS
10
155.611
20
-124.607
11
155.326
21
-124.464
0
LINE
8
BLACK
6
CONTINUOUS
10
155.326
20
-124.464
11
155.183
21
-124.179
0
LINE
8
BLACK
6
CONTINUOUS
10
155.183
20
-124.179
11
155.183
21
-121.607
0
LINE
8
BLACK
6
CONTINUOUS
10
157.897
20
-124.464
11
157.611
21
-124.607
0
LINE
8
BLACK
6
CONTINUOUS
10
157.611
20
-124.607
11
157.04
21
-124.607
0
LINE
8
BLACK
6
CONTINUOUS
10
157.04
20
-124.607
11
156.754
21
-124.464
0
LINE
8
BLACK
6
CONTINUOUS
10
156.754
20
-124.464
11
156.611
21
-124.179
0
LINE
8
BLACK
6
CONTINUOUS
10
156.611
20
-124.179
11
156.611
21
-123.036
0
LINE
8
BLACK
6
CONTINUOUS
10
156.611
20
-123.036
11
156.754
21
-122.75
0
LINE
8
BLACK
6
CONTINUOUS
10
156.754
20
-122.75
11
157.04
21
-122.607
0
LINE
8
BLACK
6
CONTINUOUS
10
157.04
20
-122.607
11
157.611
21
-122.607
0
LINE
8
BLACK
6
CONTINUOUS
10
157.611
20
-122.607
11
157.897
21
-122.75
0
LINE
8
BLACK
6
CONTINUOUS
10
157.897
20
-122.75
11
158.04
21
-123.036
0
LINE
8
BLACK
6
CONTINUOUS
10
158.04
20
-123.036
11
158.04
21
-123.321
0
LINE
8
BLACK
6
CONTINUOUS
10
158.04
20
-123.321
11
156.611
21
-123.607
0
LINE
8
BLACK
6
CONTINUOUS
10
159.183
20
-124.464
11
159.469
21
-124.607
0
LINE
8
BLACK
6
CONTINUOUS
10
159.469
20
-124.607
11
160.04
21
-124.607
0
LINE
8
BLACK
6
CONTINUOUS
10
160.04
20
-124.607
11
160.326
21
-124.464
0
LINE
8
BLACK
6
CONTINUOUS
10
160.326
20
-124.464
11
160.469
21
-124.179
0
LINE
8
BLACK
6
CONTINUOUS
10
160.469
20
-124.179
11
160.469
21
-124.036
0
LINE
8
BLACK
6
CONTINUOUS
10
160.469
20
-124.036
11
160.326
21
-123.75
0
LINE
8
BLACK
6
CONTINUOUS
10
160.326
20
-123.75
11
160.04
21
-123.607
0
LINE
8
BLACK
6
CONTINUOUS
10
160.04
20
-123.607
11
159.611
21
-123.607
0
LINE
8
BLACK
6
CONTINUOUS
10
159.611
20
-123.607
11
159.326
21
-123.464
0
LINE
8
BLACK
6
CONTINUOUS
10
159.326
20
-123.464
11
159.183
21
-123.179
0
LINE
8
BLACK
6
CONTINUOUS
10
159.183
20
-123.179
11
159.183
21
-123.036
0
LINE
8
BLACK
6
CONTINUOUS
10
159.183
20
-123.036
11
159.326
21
-122.75
0
LINE
8
BLACK
6
CONTINUOUS
10
159.326
20
-122.75
11
159.611
21
-122.607
0
LINE
8
BLACK
6
CONTINUOUS
10
159.611
20
-122.607
11
160.04
21
-122.607
0
LINE
8
BLACK
6
CONTINUOUS
10
160.04
20
-122.607
11
160.326
21
-122.75
0
LINE
8
BLACK
6
CONTINUOUS
10
161.469
20
-125.75
11
161.611
21
-125.607
0
LINE
8
BLACK
6
CONTINUOUS
10
161.611
20
-125.607
11
161.897
21
-125.179
0
LINE
8
BLACK
6
CONTINUOUS
10
161.897
20
-125.179
11
162.04
21
-124.893
0
LINE
8
BLACK
6
CONTINUOUS
10
162.04
20
-124.893
11
162.183
21
-124.464
0
LINE
8
BLACK
6
CONTINUOUS
10
162.183
20
-124.464
11
162.326
21
-123.75
0
LINE
8
BLACK
6
CONTINUOUS
10
162.326
20
-123.75
11
162.326
21
-123.179
0
LINE
8
BLACK
6
CONTINUOUS
10
162.326
20
-123.179
11
162.183
21
-122.464
0
LINE
8
BLACK
6
CONTINUOUS
10
162.183
20
-122.464
11
162.04
21
-122.036
0
LINE
8
BLACK
6
CONTINUOUS
10
162.04
20
-122.036
11
161.897
21
-121.75
0
LINE
8
BLACK
6
CONTINUOUS
10
161.897
20
-121.75
11
161.611
21
-121.321
0
LINE
8
BLACK
6
CONTINUOUS
10
161.611
20
-121.321
11
161.469
21
-121.179
0
CIRCLE
8
BLACK
10
90.565
20
-127.21
40
0.325
0
LINE
8
BLACK
6
CONTINUOUS
10
94.3257
20
-125.567
11
94.6114
21
-125.567
0
LINE
8
BLACK
6
CONTINUOUS
10
94.6114
20
-125.567
11
94.8971
21
-125.71
0
LINE
8
BLACK
6
CONTINUOUS
10
94.8971
20
-125.71
11
95.04
21
-125.853
0
LINE
8
BLACK
6
CONTINUOUS
10
95.04
20
-125.853
11
95.1829
21
-126.139
0
LINE
8
BLACK
6
CONTINUOUS
10
95.1829
20
-126.139
11
95.3257
21
-126.71
0
LINE
8
BLACK
6
CONTINUOUS
10
95.3257
20
-126.71
11
95.3257
21
-127.424
0
LINE
8
BLACK
6
CONTINUOUS
10
95.3257
20
-127.424
11
95.1829
21
-127.996
0
LINE
8
BLACK
6
CONTINUOUS
10
95.1829
20
-127.996
11
95.04
21
-128.281
0
LINE
8
BLACK
6
CONTINUOUS
10
95.04
20
-128.281
11
94.8971
21
-128.424
0
LINE
8
BLACK
6
CONTINUOUS
10
94.8971
20
-128.424
11
94.6114
21
-128.567
0
LINE
8
BLACK
6
CONTINUOUS
10
94.6114
20
-128.567
11
94.3257
21
-128.567
0
LINE
8
BLACK
6
CONTINUOUS
10
94.3257
20
-128.567
11
94.04
21
-128.424
0
LINE
8
BLACK
6
CONTINUOUS
10
94.04
20
-128.424
11
93.8971
21
-128.281
0
LINE
8
BLACK
6
CONTINUOUS
10
93.8971
20
-128.281
11
93.7543
21
-127.996
0
LINE
8
BLACK
6
CONTINUOUS
10
93.7543
20
-127.996
11
93.6114
21
-127.424
0
LINE
8
BLACK
6
CONTINUOUS
10
93.6114
20
-127.424
11
93.6114
21
-126.71
0
LINE
8
BLACK
6
CONTINUOUS
10
93.6114
20
-126.71
11
93.7543
21
-126.139
0
LINE
8
BLACK
6
CONTINUOUS
10
93.7543
20
-126.139
11
93.8971
21
-125.853
0
LINE
8
BLACK
6
CONTINUOUS
10
93.8971
20
-125.853
11
94.04
21
-125.71
0
LINE
8
BLACK
6
CONTINUOUS
10
94.04
20
-125.71
11
94.3257
21
-125.567
0
LINE
8
BLACK
6
CONTINUOUS
10
96.6114
20
-128.281
11
96.7543
21
-128.424
0
LINE
8
BLACK
6
CONTINUOUS
10
96.7543
20
-128.424
11
96.6114
21
-128.567
0
LINE
8
BLACK
6
CONTINUOUS
10
96.6114
20
-128.567
11
96.4686
21
-128.424
0
LINE
8
BLACK
6
CONTINUOUS
10
96.4686
20
-128.424
11
96.6114
21
-128.281
0
LINE
8
BLACK
6
CONTINUOUS
10
96.6114
20
-128.281
11
96.6114
21
-128.567
0
LINE
8
BLACK
6
CONTINUOUS
10
99.3257
20
-125.567
11
98.7543
21
-125.567
0
LINE
8
BLACK
6
CONTINUOUS
10
98.7543
20
-125.567
11
98.4686
21
-125.71
0
LINE
8
BLACK
6
CONTINUOUS
10
98.4686
20
-125.71
11
98.3257
21
-125.853
0
LINE
8
BLACK
6
CONTINUOUS
10
98.3257
20
-125.853
11
98.04
21
-126.281
0
LINE
8
BLACK
6
CONTINUOUS
10
98.04
20
-126.281
11
97.8971
21
-126.853
0
LINE
8
BLACK
6
CONTINUOUS
10
97.8971
20
-126.853
11
97.8971
21
-127.996
0
LINE
8
BLACK
6
CONTINUOUS
10
97.8971
20
-127.996
11
98.04
21
-128.281
0
LINE
8
BLACK
6
CONTINUOUS
10
98.04
20
-128.281
11
98.1829
21
-128.424
0
LINE
8
BLACK
6
CONTINUOUS
10
98.1829
20
-128.424
11
98.4686
21
-128.567
0
LINE
8
BLACK
6
CONTINUOUS
10
98.4686
20
-128.567
11
99.04
21
-128.567
0
LINE
8
BLACK
6
CONTINUOUS
10
99.04
20
-128.567
11
99.3257
21
-128.424
0
LINE
8
BLACK
6
CONTINUOUS
10
99.3257
20
-128.424
11
99.4686
21
-128.281
0
LINE
8
BLACK
6
CONTINUOUS
10
99.4686
20
-128.281
11
99.6114
21
-127.996
0
LINE
8
BLACK
6
CONTINUOUS
10
99.6114
20
-127.996
11
99.6114
21
-127.281
0
LINE
8
BLACK
6
CONTINUOUS
10
99.6114
20
-127.281
11
99.4686
21
-126.996
0
LINE
8
BLACK
6
CONTINUOUS
10
99.4686
20
-126.996
11
99.3257
21
-126.853
0
LINE
8
BLACK
6
CONTINUOUS
10
99.3257
20
-126.853
11
99.04
21
-126.71
0
LINE
8
BLACK
6
CONTINUOUS
10
99.04
20
-126.71
11
98.4686
21
-126.71
0
LINE
8
BLACK
6
CONTINUOUS
10
98.4686
20
-126.71
11
98.1829
21
-126.853
0
LINE
8
BLACK
6
CONTINUOUS
10
98.1829
20
-126.853
11
98.04
21
-126.996
0
LINE
8
BLACK
6
CONTINUOUS
10
98.04
20
-126.996
11
97.8971
21
-127.281
0
LINE
8
BLACK
6
CONTINUOUS
10
102.326
20
-125.567
11
100.897
21
-125.567
0
LINE
8
BLACK
6
CONTINUOUS
10
100.897
20
-125.567
11
100.754
21
-126.996
0
LINE
8
BLACK
6
CONTINUOUS
10
100.754
20
-126.996
11
100.897
21
-126.853
0
LINE
8
BLACK
6
CONTINUOUS
10
100.897
20
-126.853
11
101.183
21
-126.71
0
LINE
8
BLACK
6
CONTINUOUS
10
101.183
20
-126.71
11
101.897
21
-126.71
0
LINE
8
BLACK
6
CONTINUOUS
10
101.897
20
-126.71
11
102.183
21
-126.853
0
LINE
8
BLACK
6
CONTINUOUS
10
102.183
20
-126.853
11
102.326
21
-126.996
0
LINE
8
BLACK
6
CONTINUOUS
10
102.326
20
-126.996
11
102.469
21
-127.281
0
LINE
8
BLACK
6
CONTINUOUS
10
102.469
20
-127.281
11
102.469
21
-127.996
0
LINE
8
BLACK
6
CONTINUOUS
10
102.469
20
-127.996
11
102.326
21
-128.281
0
LINE
8
BLACK
6
CONTINUOUS
10
102.326
20
-128.281
11
102.183
21
-128.424
0
LINE
8
BLACK
6
CONTINUOUS
10
102.183
20
-128.424
11
101.897
21
-128.567
0
LINE
8
BLACK
6
CONTINUOUS
10
101.897
20
-128.567
11
101.183
21
-128.567
0
LINE
8
BLACK
6
CONTINUOUS
10
101.183
20
-128.567
11
100.897
21
-128.424
0
LINE
8
BLACK
6
CONTINUOUS
10
100.897
20
-128.424
11
100.754
21
-128.281
0
LINE
8
BLACK
6
CONTINUOUS
10
103.754
20
-128.567
11
103.754
21
-126.567
0
LINE
8
BLACK
6
CONTINUOUS
10
103.754
20
-126.853
11
103.897
21
-126.71
0
LINE
8
BLACK
6
CONTINUOUS
10
103.897
20
-126.71
11
104.183
21
-126.567
0
LINE
8
BLACK
6
CONTINUOUS
10
104.183
20
-126.567
11
104.611
21
-126.567
0
LINE
8
BLACK
6
CONTINUOUS
10
104.611
20
-126.567
11
104.897
21
-126.71
0
LINE
8
BLACK
6
CONTINUOUS
10
104.897
20
-126.71
11
105.04
21
-126.996
0
LINE
8
BLACK
6
CONTINUOUS
10
105.04
20
-126.996
11
105.04
21
-128.567
0
LINE
8
BLACK
6
CONTINUOUS
10
105.04
20
-126.996
11
105.183
21
-126.71
0
LINE
8
BLACK
6
CONTINUOUS
10
105.183
20
-126.71
11
105.469
21
-126.567
0
LINE
8
BLACK
6
CONTINUOUS
10
105.469
20
-126.567
11
105.897
21
-126.567
0
LINE
8
BLACK
6
CONTINUOUS
10
105.897
20
-126.567
11
106.183
21
-126.71
0
LINE
8
BLACK
6
CONTINUOUS
10
106.183
20
-126.71
11
106.326
21
-126.996
0
LINE
8
BLACK
6
CONTINUOUS
10
106.326
20
-126.996
11
106.326
21
-128.567
0
LINE
8
BLACK
6
CONTINUOUS
10
107.754
20
-128.567
11
107.754
21
-126.567
0
LINE
8
BLACK
6
CONTINUOUS
10
107.754
20
-126.853
11
107.897
21
-126.71
0
LINE
8
BLACK
6
CONTINUOUS
10
107.897
20
-126.71
11
108.183
21
-126.567
0
LINE
8
BLACK
6
CONTINUOUS
10
108.183
20
-126.567
11
108.611
21
-126.567
0
LINE
8
BLACK
6
CONTINUOUS
10
108.611
20
-126.567
11
108.897
21
-126.71
0
LINE
8
BLACK
6
CONTINUOUS
10
108.897
20
-126.71
11
109.04
21
-126.996
0
LINE
8
BLACK
6
CONTINUOUS
10
109.04
20
-126.996
11
109.04
21
-128.567
0
LINE
8
BLACK
6
CONTINUOUS
10
109.04
20
-126.996
11
109.183
21
-126.71
0
LINE
8
BLACK
6
CONTINUOUS
10
109.183
20
-126.71
11
109.469
21
-126.567
0
LINE
8
BLACK
6
CONTINUOUS
10
109.469
20
-126.567
11
109.897
21
-126.567
0
LINE
8
BLACK
6
CONTINUOUS
10
109.897
20
-126.567
11
110.183
21
-126.71
0
LINE
8
BLACK
6
CONTINUOUS
10
110.183
20
-126.71
11
110.326
21
-126.996
0
LINE
8
BLACK
6
CONTINUOUS
10
110.326
20
-126.996
11
110.326
21
-128.567
0
LINE
8
BLACK
6
CONTINUOUS
10
116.183
20
-125.424
11
113.611
21
-129.281
0
LINE
8
BLACK
6
CONTINUOUS
10
120.04
20
-125.567
11
120.326
21
-125.567
0
LINE
8
BLACK
6
CONTINUOUS
10
120.326
20
-125.567
11
120.611
21
-125.71
0
LINE
8
BLACK
6
CONTINUOUS
10
120.611
20
-125.71
11
120.754
21
-125.853
0
LINE
8
BLACK
6
CONTINUOUS
10
120.754
20
-125.853
11
120.897
21
-126.139
0
LINE
8
BLACK
6
CONTINUOUS
10
120.897
20
-126.139
11
121.04
21
-126.71
0
LINE
8
BLACK
6
CONTINUOUS
10
121.04
20
-126.71
11
121.04
21
-127.424
0
LINE
8
BLACK
6
CONTINUOUS
10
121.04
20
-127.424
11
120.897
21
-127.996
0
LINE
8
BLACK
6
CONTINUOUS
10
120.897
20
-127.996
11
120.754
21
-128.281
0
LINE
8
BLACK
6
CONTINUOUS
10
120.754
20
-128.281
11
120.611
21
-128.424
0
LINE
8
BLACK
6
CONTINUOUS
10
120.611
20
-128.424
11
120.326
21
-128.567
0
LINE
8
BLACK
6
CONTINUOUS
10
120.326
20
-128.567
11
120.04
21
-128.567
0
LINE
8
BLACK
6
CONTINUOUS
10
120.04
20
-128.567
11
119.754
21
-128.424
0
LINE
8
BLACK
6
CONTINUOUS
10
119.754
20
-128.424
11
119.611
21
-128.281
0
LINE
8
BLACK
6
CONTINUOUS
10
119.611
20
-128.281
11
119.469
21
-127.996
0
LINE
8
BLACK
6
CONTINUOUS
10
119.469
20
-127.996
11
119.326
21
-127.424
0
LINE
8
BLACK
6
CONTINUOUS
10
119.326
20
-127.424
11
119.326
21
-126.71
0
LINE
8
BLACK
6
CONTINUOUS
10
119.326
20
-126.71
11
119.469
21
-126.139
0
LINE
8
BLACK
6
CONTINUOUS
10
119.469
20
-126.139
11
119.611
21
-125.853
0
LINE
8
BLACK
6
CONTINUOUS
10
119.611
20
-125.853
11
119.754
21
-125.71
0
LINE
8
BLACK
6
CONTINUOUS
10
119.754
20
-125.71
11
120.04
21
-125.567
0
LINE
8
BLACK
6
CONTINUOUS
10
122.326
20
-128.281
11
122.469
21
-128.424
0
LINE
8
BLACK
6
CONTINUOUS
10
122.469
20
-128.424
11
122.326
21
-128.567
0
LINE
8
BLACK
6
CONTINUOUS
10
122.326
20
-128.567
11
122.183
21
-128.424
0
LINE
8
BLACK
6
CONTINUOUS
10
122.183
20
-128.424
11
122.326
21
-128.281
0
LINE
8
BLACK
6
CONTINUOUS
10
122.326
20
-128.281
11
122.326
21
-128.567
0
LINE
8
BLACK
6
CONTINUOUS
10
124.326
20
-125.567
11
124.611
21
-125.567
0
LINE
8
BLACK
6
CONTINUOUS
10
124.611
20
-125.567
11
124.897
21
-125.71
0
LINE
8
BLACK
6
CONTINUOUS
10
124.897
20
-125.71
11
125.04
21
-125.853
0
LINE
8
BLACK
6
CONTINUOUS
10
125.04
20
-125.853
11
125.183
21
-126.139
0
LINE
8
BLACK
6
CONTINUOUS
10
125.183
20
-126.139
11
125.326
21
-126.71
0
LINE
8
BLACK
6
CONTINUOUS
10
125.326
20
-126.71
11
125.326
21
-127.424
0
LINE
8
BLACK
6
CONTINUOUS
10
125.326
20
-127.424
11
125.183
21
-127.996
0
LINE
8
BLACK
6
CONTINUOUS
10
125.183
20
-127.996
11
125.04
21
-128.281
0
LINE
8
BLACK
6
CONTINUOUS
10
125.04
20
-128.281
11
124.897
21
-128.424
0
LINE
8
BLACK
6
CONTINUOUS
10
124.897
20
-128.424
11
124.611
21
-128.567
0
LINE
8
BLACK
6
CONTINUOUS
10
124.611
20
-128.567
11
124.326
21
-128.567
0
LINE
8
BLACK
6
CONTINUOUS
10
124.326
20
-128.567
11
124.04
21
-128.424
0
LINE
8
BLACK
6
CONTINUOUS
10
124.04
20
-128.424
11
123.897
21
-128.281
0
LINE
8
BLACK
6
CONTINUOUS
10
123.897
20
-128.281
11
123.754
21
-127.996
0
LINE
8
BLACK
6
CONTINUOUS
10
123.754
20
-127.996
11
123.611
21
-127.424
0
LINE
8
BLACK
6
CONTINUOUS
10
123.611
20
-127.424
11
123.611
21
-126.71
0
LINE
8
BLACK
6
CONTINUOUS
10
123.611
20
-126.71
11
123.754
21
-126.139
0
LINE
8
BLACK
6
CONTINUOUS
10
123.754
20
-126.139
11
123.897
21
-125.853
0
LINE
8
BLACK
6
CONTINUOUS
10
123.897
20
-125.853
11
124.04
21
-125.71
0
LINE
8
BLACK
6
CONTINUOUS
10
124.04
20
-125.71
11
124.326
21
-125.567
0
LINE
8
BLACK
6
CONTINUOUS
10
126.469
20
-125.853
11
126.611
21
-125.71
0
LINE
8
BLACK
6
CONTINUOUS
10
126.611
20
-125.71
11
126.897
21
-125.567
0
LINE
8
BLACK
6
CONTINUOUS
10
126.897
20
-125.567
11
127.611
21
-125.567
0
LINE
8
BLACK
6
CONTINUOUS
10
127.611
20
-125.567
11
127.897
21
-125.71
0
LINE
8
BLACK
6
CONTINUOUS
10
127.897
20
-125.71
11
128.04
21
-125.853
0
LINE
8
BLACK
6
CONTINUOUS
10
128.04
20
-125.853
11
128.183
21
-126.139
0
LINE
8
BLACK
6
CONTINUOUS
10
128.183
20
-126.139
11
128.183
21
-126.424
0
LINE
8
BLACK
6
CONTINUOUS
10
128.183
20
-126.424
11
128.04
21
-126.853
0
LINE
8
BLACK
6
CONTINUOUS
10
128.04
20
-126.853
11
126.326
21
-128.567
0
LINE
8
BLACK
6
CONTINUOUS
10
126.326
20
-128.567
11
128.183
21
-128.567
0
LINE
8
BLACK
6
CONTINUOUS
10
130.754
20
-125.567
11
130.183
21
-125.567
0
LINE
8
BLACK
6
CONTINUOUS
10
130.183
20
-125.567
11
129.897
21
-125.71
0
LINE
8
BLACK
6
CONTINUOUS
10
129.897
20
-125.71
11
129.754
21
-125.853
0
LINE
8
BLACK
6
CONTINUOUS
10
129.754
20
-125.853
11
129.469
21
-126.281
0
LINE
8
BLACK
6
CONTINUOUS
10
129.469
20
-126.281
11
129.326
21
-126.853
0
LINE
8
BLACK
6
CONTINUOUS
10
129.326
20
-126.853
11
129.326
21
-127.996
0
LINE
8
BLACK
6
CONTINUOUS
10
129.326
20
-127.996
11
129.469
21
-128.281
0
LINE
8
BLACK
6
CONTINUOUS
10
129.469
20
-128.281
11
129.611
21
-128.424
0
LINE
8
BLACK
6
CONTINUOUS
10
129.611
20
-128.424
11
129.897
21
-128.567
0
LINE
8
BLACK
6
CONTINUOUS
10
129.897
20
-128.567
11
130.469
21
-128.567
0
LINE
8
BLACK
6
CONTINUOUS
10
130.469
20
-128.567
11
130.754
21
-128.424
0
LINE
8
BLACK
6
CONTINUOUS
10
130.754
20
-128.424
11
130.897
21
-128.281
0
LINE
8
BLACK
6
CONTINUOUS
10
130.897
20
-128.281
11
131.04
21
-127.996
0
LINE
8
BLACK
6
CONTINUOUS
10
131.04
20
-127.996
11
131.04
21
-127.281
0
LINE
8
BLACK
6
CONTINUOUS
10
131.04
20
-127.281
11
130.897
21
-126.996
0
LINE
8
BLACK
6
CONTINUOUS
10
130.897
20
-126.996
11
130.754
21
-126.853
0
LINE
8
BLACK
6
CONTINUOUS
10
130.754
20
-126.853
11
130.469
21
-126.71
0
LINE
8
BLACK
6
CONTINUOUS
10
130.469
20
-126.71
11
129.897
21
-126.71
0
LINE
8
BLACK
6
CONTINUOUS
10
129.897
20
-126.71
11
129.611
21
-126.853
0
LINE
8
BLACK
6
CONTINUOUS
10
129.611
20
-126.853
11
129.469
21
-126.996
0
LINE
8
BLACK
6
CONTINUOUS
10
129.469
20
-126.996
11
129.326
21
-127.281
0
LINE
8
BLACK
6
CONTINUOUS
10
132.183
20
-125.567
11
132.183
21
-126.139
0
LINE
8
BLACK
6
CONTINUOUS
10
133.326
20
-125.567
11
133.326
21
-126.139
0
LINE
8
BLACK
6
CONTINUOUS
10
137.754
20
-129.71
11
137.611
21
-129.567
0
LINE
8
BLACK
6
CONTINUOUS
10
137.611
20
-129.567
11
137.326
21
-129.139
0
LINE
8
BLACK
6
CONTINUOUS
10
137.326
20
-129.139
11
137.183
21
-128.853
0
LINE
8
BLACK
6
CONTINUOUS
10
137.183
20
-128.853
11
137.04
21
-128.424
0
LINE
8
BLACK
6
CONTINUOUS
10
137.04
20
-128.424
11
136.897
21
-127.71
0
LINE
8
BLACK
6
CONTINUOUS
10
136.897
20
-127.71
11
136.897
21
-127.139
0
LINE
8
BLACK
6
CONTINUOUS
10
136.897
20
-127.139
11
137.04
21
-126.424
0
LINE
8
BLACK
6
CONTINUOUS
10
137.04
20
-126.424
11
137.183
21
-125.996
0
LINE
8
BLACK
6
CONTINUOUS
10
137.183
20
-125.996
11
137.326
21
-125.71
0
LINE
8
BLACK
6
CONTINUOUS
10
137.326
20
-125.71
11
137.611
21
-125.281
0
LINE
8
BLACK
6
CONTINUOUS
10
137.611
20
-125.281
11
137.754
21
-125.139
0
LINE
8
BLACK
6
CONTINUOUS
10
139.469
20
-125.567
11
139.754
21
-125.567
0
LINE
8
BLACK
6
CONTINUOUS
10
139.754
20
-125.567
11
140.04
21
-125.71
0
LINE
8
BLACK
6
CONTINUOUS
10
140.04
20
-125.71
11
140.183
21
-125.853
0
LINE
8
BLACK
6
CONTINUOUS
10
140.183
20
-125.853
11
140.326
21
-126.139
0
LINE
8
BLACK
6
CONTINUOUS
10
140.326
20
-126.139
11
140.469
21
-126.71
0
LINE
8
BLACK
6
CONTINUOUS
10
140.469
20
-126.71
11
140.469
21
-127.424
0
LINE
8
BLACK
6
CONTINUOUS
10
140.469
20
-127.424
11
140.326
21
-127.996
0
LINE
8
BLACK
6
CONTINUOUS
10
140.326
20
-127.996
11
140.183
21
-128.281
0
LINE
8
BLACK
6
CONTINUOUS
10
140.183
20
-128.281
11
140.04
21
-128.424
0
LINE
8
BLACK
6
CONTINUOUS
10
140.04
20
-128.424
11
139.754
21
-128.567
0
LINE
8
BLACK
6
CONTINUOUS
10
139.754
20
-128.567
11
139.469
21
-128.567
0
LINE
8
BLACK
6
CONTINUOUS
10
139.469
20
-128.567
11
139.183
21
-128.424
0
LINE
8
BLACK
6
CONTINUOUS
10
139.183
20
-128.424
11
139.04
21
-128.281
0
LINE
8
BLACK
6
CONTINUOUS
10
139.04
20
-128.281
11
138.897
21
-127.996
0
LINE
8
BLACK
6
CONTINUOUS
10
138.897
20
-127.996
11
138.754
21
-127.424
0
LINE
8
BLACK
6
CONTINUOUS
10
138.754
20
-127.424
11
138.754
21
-126.71
0
LINE
8
BLACK
6
CONTINUOUS
10
138.754
20
-126.71
11
138.897
21
-126.139
0
LINE
8
BLACK
6
CONTINUOUS
10
138.897
20
-126.139
11
139.04
21
-125.853
0
LINE
8
BLACK
6
CONTINUOUS
10
139.04
20
-125.853
11
139.183
21
-125.71
0
LINE
8
BLACK
6
CONTINUOUS
10
139.183
20
-125.71
11
139.469
21
-125.567
0
LINE
8
BLACK
6
CONTINUOUS
10
144.04
20
-128.567
11
144.04
21
-125.567
0
LINE
8
BLACK
6
CONTINUOUS
10
145.326
20
-128.567
11
145.326
21
-126.996
0
LINE
8
BLACK
6
CONTINUOUS
10
145.326
20
-126.996
11
145.183
21
-126.71
0
LINE
8
BLACK
6
CONTINUOUS
10
145.183
20
-126.71
11
144.897
21
-126.567
0
LINE
8
BLACK
6
CONTINUOUS
10
144.897
20
-126.567
11
144.469
21
-126.567
0
LINE
8
BLACK
6
CONTINUOUS
10
144.469
20
-126.567
11
144.183
21
-126.71
0
LINE
8
BLACK
6
CONTINUOUS
10
144.183
20
-126.71
11
144.04
21
-126.853
0
LINE
8
BLACK
6
CONTINUOUS
10
147.183
20
-128.567
11
146.897
21
-128.424
0
LINE
8
BLACK
6
CONTINUOUS
10
146.897
20
-128.424
11
146.754
21
-128.281
0
LINE
8
BLACK
6
CONTINUOUS
10
146.754
20
-128.281
11
146.611
21
-127.996
0
LINE
8
BLACK
6
CONTINUOUS
10
146.611
20
-127.996
11
146.611
21
-127.139
0
LINE
8
BLACK
6
CONTINUOUS
10
146.611
20
-127.139
11
146.754
21
-126.853
0
LINE
8
BLACK
6
CONTINUOUS
10
146.754
20
-126.853
11
146.897
21
-126.71
0
LINE
8
BLACK
6
CONTINUOUS
10
146.897
20
-126.71
11
147.183
21
-126.567
0
LINE
8
BLACK
6
CONTINUOUS
10
147.183
20
-126.567
11
147.611
21
-126.567
0
LINE
8
BLACK
6
CONTINUOUS
10
147.611
20
-126.567
11
147.897
21
-126.71
0
LINE
8
BLACK
6
CONTINUOUS
10
147.897
20
-126.71
11
148.04
21
-126.853
0
LINE
8
BLACK
6
CONTINUOUS
10
148.04
20
-126.853
11
148.183
21
-127.139
0
LINE
8
BLACK
6
CONTINUOUS
10
148.183
20
-127.139
11
148.183
21
-127.996
0
LINE
8
BLACK
6
CONTINUOUS
10
148.183
20
-127.996
11
148.04
21
-128.281
0
LINE
8
BLACK
6
CONTINUOUS
10
148.04
20
-128.281
11
147.897
21
-128.424
0
LINE
8
BLACK
6
CONTINUOUS
10
147.897
20
-128.424
11
147.611
21
-128.567
0
LINE
8
BLACK
6
CONTINUOUS
10
147.611
20
-128.567
11
147.183
21
-128.567
0
LINE
8
BLACK
6
CONTINUOUS
10
149.897
20
-128.567
11
149.611
21
-128.424
0
LINE
8
BLACK
6
CONTINUOUS
10
149.611
20
-128.424
11
149.469
21
-128.139
0
LINE
8
BLACK
6
CONTINUOUS
10
149.469
20
-128.139
11
149.469
21
-125.567
0
LINE
8
BLACK
6
CONTINUOUS
10
152.183
20
-128.424
11
151.897
21
-128.567
0
LINE
8
BLACK
6
CONTINUOUS
10
151.897
20
-128.567
11
151.326
21
-128.567
0
LINE
8
BLACK
6
CONTINUOUS
10
151.326
20
-128.567
11
151.04
21
-128.424
0
LINE
8
BLACK
6
CONTINUOUS
10
151.04
20
-128.424
11
150.897
21
-128.139
0
LINE
8
BLACK
6
CONTINUOUS
10
150.897
20
-128.139
11
150.897
21
-126.996
0
LINE
8
BLACK
6
CONTINUOUS
10
150.897
20
-126.996
11
151.04
21
-126.71
0
LINE
8
BLACK
6
CONTINUOUS
10
151.04
20
-126.71
11
151.326
21
-126.567
0
LINE
8
BLACK
6
CONTINUOUS
10
151.326
20
-126.567
11
151.897
21
-126.567
0
LINE
8
BLACK
6
CONTINUOUS
10
151.897
20
-126.567
11
152.183
21
-126.71
0
LINE
8
BLACK
6
CONTINUOUS
10
152.183
20
-126.71
11
152.326
21
-126.996
0
LINE
8
BLACK
6
CONTINUOUS
10
152.326
20
-126.996
11
152.326
21
-127.281
0
LINE
8
BLACK
6
CONTINUOUS
10
152.326
20
-127.281
11
150.897
21
-127.567
0
LINE
8
BLACK
6
CONTINUOUS
10
153.469
20
-128.424
11
153.754
21
-128.567
0
LINE
8
BLACK
6
CONTINUOUS
10
153.754
20
-128.567
11
154.326
21
-128.567
0
LINE
8
BLACK
6
CONTINUOUS
10
154.326
20
-128.567
11
154.611
21
-128.424
0
LINE
8
BLACK
6
CONTINUOUS
10
154.611
20
-128.424
11
154.754
21
-128.139
0
LINE
8
BLACK
6
CONTINUOUS
10
154.754
20
-128.139
11
154.754
21
-127.996
0
LINE
8
BLACK
6
CONTINUOUS
10
154.754
20
-127.996
11
154.611
21
-127.71
0
LINE
8
BLACK
6
CONTINUOUS
10
154.611
20
-127.71
11
154.326
21
-127.567
0
LINE
8
BLACK
6
CONTINUOUS
10
154.326
20
-127.567
11
153.897
21
-127.567
0
LINE
8
BLACK
6
CONTINUOUS
10
153.897
20
-127.567
11
153.611
21
-127.424
0
LINE
8
BLACK
6
CONTINUOUS
10
153.611
20
-127.424
11
153.469
21
-127.139
0
LINE
8
BLACK
6
CONTINUOUS
10
153.469
20
-127.139
11
153.469
21
-126.996
0
LINE
8
BLACK
6
CONTINUOUS
10
153.469
20
-126.996
11
153.611
21
-126.71
0
LINE
8
BLACK
6
CONTINUOUS
10
153.611
20
-126.71
11
153.897
21
-126.567
0
LINE
8
BLACK
6
CONTINUOUS
10
153.897
20
-126.567
11
154.326
21
-126.567
0
LINE
8
BLACK
6
CONTINUOUS
10
154.326
20
-126.567
11
154.611
21
-126.71
0
LINE
8
BLACK
6
CONTINUOUS
10
158.326
20
-127.424
11
160.611
21
-127.424
0
LINE
8
BLACK
6
CONTINUOUS
10
159.469
20
-128.567
11
159.469
21
-126.281
0
LINE
8
BLACK
6
CONTINUOUS
10
164.183
20
-125.853
11
164.326
21
-125.71
0
LINE
8
BLACK
6
CONTINUOUS
10
164.326
20
-125.71
11
164.611
21
-125.567
0
LINE
8
BLACK
6
CONTINUOUS
10
164.611
20
-125.567
11
165.326
21
-125.567
0
LINE
8
BLACK
6
CONTINUOUS
10
165.326
20
-125.567
11
165.611
21
-125.71
0
LINE
8
BLACK
6
CONTINUOUS
10
165.611
20
-125.71
11
165.754
21
-125.853
0
LINE
8
BLACK
6
CONTINUOUS
10
165.754
20
-125.853
11
165.897
21
-126.139
0
LINE
8
BLACK
6
CONTINUOUS
10
165.897
20
-126.139
11
165.897
21
-126.424
0
LINE
8
BLACK
6
CONTINUOUS
10
165.897
20
-126.424
11
165.754
21
-126.853
0
LINE
8
BLACK
6
CONTINUOUS
10
165.754
20
-126.853
11
164.04
21
-128.567
0
LINE
8
BLACK
6
CONTINUOUS
10
164.04
20
-128.567
11
165.897
21
-128.567
0
LINE
8
BLACK
6
CONTINUOUS
10
169.326
20
-128.424
11
169.611
21
-128.567
0
LINE
8
BLACK
6
CONTINUOUS
10
169.611
20
-128.567
11
170.183
21
-128.567
0
LINE
8
BLACK
6
CONTINUOUS
10
170.183
20
-128.567
11
170.469
21
-128.424
0
LINE
8
BLACK
6
CONTINUOUS
10
170.469
20
-128.424
11
170.611
21
-128.139
0
LINE
8
BLACK
6
CONTINUOUS
10
170.611
20
-128.139
11
170.611
21
-127.996
0
LINE
8
BLACK
6
CONTINUOUS
10
170.611
20
-127.996
11
170.469
21
-127.71
0
LINE
8
BLACK
6
CONTINUOUS
10
170.469
20
-127.71
11
170.183
21
-127.567
0
LINE
8
BLACK
6
CONTINUOUS
10
170.183
20
-127.567
11
169.754
21
-127.567
0
LINE
8
BLACK
6
CONTINUOUS
10
169.754
20
-127.567
11
169.469
21
-127.424
0
LINE
8
BLACK
6
CONTINUOUS
10
169.469
20
-127.424
11
169.326
21
-127.139
0
LINE
8
BLACK
6
CONTINUOUS
10
169.326
20
-127.139
11
169.326
21
-126.996
0
LINE
8
BLACK
6
CONTINUOUS
10
169.326
20
-126.996
11
169.469
21
-126.71
0
LINE
8
BLACK
6
CONTINUOUS
10
169.469
20
-126.71
11
169.754
21
-126.567
0
LINE
8
BLACK
6
CONTINUOUS
10
169.754
20
-126.567
11
170.183
21
-126.567
0
LINE
8
BLACK
6
CONTINUOUS
10
170.183
20
-126.567
11
170.469
21
-126.71
0
LINE
8
BLACK
6
CONTINUOUS
10
172.326
20
-128.567
11
172.04
21
-128.424
0
LINE
8
BLACK
6
CONTINUOUS
10
172.04
20
-128.424
11
171.897
21
-128.139
0
LINE
8
BLACK
6
CONTINUOUS
10
171.897
20
-128.139
11
171.897
21
-125.567
0
LINE
8
BLACK
6
CONTINUOUS
10
173.897
20
-128.567
11
173.611
21
-128.424
0
LINE
8
BLACK
6
CONTINUOUS
10
173.611
20
-128.424
11
173.469
21
-128.281
0
LINE
8
BLACK
6
CONTINUOUS
10
173.469
20
-128.281
11
173.326
21
-127.996
0
LINE
8
BLACK
6
CONTINUOUS
10
173.326
20
-127.996
11
173.326
21
-127.139
0
LINE
8
BLACK
6
CONTINUOUS
10
173.326
20
-127.139
11
173.469
21
-126.853
0
LINE
8
BLACK
6
CONTINUOUS
10
173.469
20
-126.853
11
173.611
21
-126.71
0
LINE
8
BLACK
6
CONTINUOUS
10
173.611
20
-126.71
11
173.897
21
-126.567
0
LINE
8
BLACK
6
CONTINUOUS
10
173.897
20
-126.567
11
174.326
21
-126.567
0
LINE
8
BLACK
6
CONTINUOUS
10
174.326
20
-126.567
11
174.611
21
-126.71
0
LINE
8
BLACK
6
CONTINUOUS
10
174.611
20
-126.71
11
174.754
21
-126.853
0
LINE
8
BLACK
6
CONTINUOUS
10
174.754
20
-126.853
11
174.897
21
-127.139
0
LINE
8
BLACK
6
CONTINUOUS
10
174.897
20
-127.139
11
174.897
21
-127.996
0
LINE
8
BLACK
6
CONTINUOUS
10
174.897
20
-127.996
11
174.754
21
-128.281
0
LINE
8
BLACK
6
CONTINUOUS
10
174.754
20
-128.281
11
174.611
21
-128.424
0
LINE
8
BLACK
6
CONTINUOUS
10
174.611
20
-128.424
11
174.326
21
-128.567
0
LINE
8
BLACK
6
CONTINUOUS
10
174.326
20
-128.567
11
173.897
21
-128.567
0
LINE
8
BLACK
6
CONTINUOUS
10
175.754
20
-126.567
11
176.897
21
-126.567
0
LINE
8
BLACK
6
CONTINUOUS
10
176.183
20
-125.567
11
176.183
21
-128.139
0
LINE
8
BLACK
6
CONTINUOUS
10
176.183
20
-128.139
11
176.326
21
-128.424
0
LINE
8
BLACK
6
CONTINUOUS
10
176.326
20
-128.424
11
176.611
21
-128.567
0
LINE
8
BLACK
6
CONTINUOUS
10
176.611
20
-128.567
11
176.897
21
-128.567
0
LINE
8
BLACK
6
CONTINUOUS
10
177.754
20
-128.424
11
178.04
21
-128.567
0
LINE
8
BLACK
6
CONTINUOUS
10
178.04
20
-128.567
11
178.611
21
-128.567
0
LINE
8
BLACK
6
CONTINUOUS
10
178.611
20
-128.567
11
178.897
21
-128.424
0
LINE
8
BLACK
6
CONTINUOUS
10
178.897
20
-128.424
11
179.04
21
-128.139
0
LINE
8
BLACK
6
CONTINUOUS
10
179.04
20
-128.139
11
179.04
21
-127.996
0
LINE
8
BLACK
6
CONTINUOUS
10
179.04
20
-127.996
11
178.897
21
-127.71
0
LINE
8
BLACK
6
CONTINUOUS
10
178.897
20
-127.71
11
178.611
21
-127.567
0
LINE
8
BLACK
6
CONTINUOUS
10
178.611
20
-127.567
11
178.183
21
-127.567
0
LINE
8
BLACK
6
CONTINUOUS
10
178.183
20
-127.567
11
177.897
21
-127.424
0
LINE
8
BLACK
6
CONTINUOUS
10
177.897
20
-127.424
11
177.754
21
-127.139
0
LINE
8
BLACK
6
CONTINUOUS
10
177.754
20
-127.139
11
177.754
21
-126.996
0
LINE
8
BLACK
6
CONTINUOUS
10
177.754
20
-126.996
11
177.897
21
-126.71
0
LINE
8
BLACK
6
CONTINUOUS
10
177.897
20
-126.71
11
178.183
21
-126.567
0
LINE
8
BLACK
6
CONTINUOUS
10
178.183
20
-126.567
11
178.611
21
-126.567
0
LINE
8
BLACK
6
CONTINUOUS
10
178.611
20
-126.567
11
178.897
21
-126.71
0
LINE
8
BLACK
6
CONTINUOUS
10
180.04
20
-129.71
11
180.183
21
-129.567
0
LINE
8
BLACK
6
CONTINUOUS
10
180.183
20
-129.567
11
180.469
21
-129.139
0
LINE
8
BLACK
6
CONTINUOUS
10
180.469
20
-129.139
11
180.611
21
-128.853
0
LINE
8
BLACK
6
CONTINUOUS
10
180.611
20
-128.853
11
180.754
21
-128.424
0
LINE
8
BLACK
6
CONTINUOUS
10
180.754
20
-128.424
11
180.897
21
-127.71
0
LINE
8
BLACK
6
CONTINUOUS
10
180.897
20
-127.71
11
180.897
21
-127.139
0
LINE
8
BLACK
6
CONTINUOUS
10
180.897
20
-127.139
11
180.754
21
-126.424
0
LINE
8
BLACK
6
CONTINUOUS
10
180.754
20
-126.424
11
180.611
21
-125.996
0
LINE
8
BLACK
6
CONTINUOUS
10
180.611
20
-125.996
11
180.469
21
-125.71
0
LINE
8
BLACK
6
CONTINUOUS
10
180.469
20
-125.71
11
180.183
21
-125.281
0
LINE
8
BLACK
6
CONTINUOUS
10
180.183
20
-125.281
11
180.04
21
-125.139
0
LINE
8
BLACK
6
CONTINUOUS
10
90.4775
20
-130.758
11
90.4775
21
-131.583
0
LINE
8
BLACK
6
CONTINUOUS
10
90.065
20
-131.17
11
90.89
21
-131.17
0
LINE
8
BLACK
6
CONTINUOUS
10
94.3257
20
-129.527
11
94.6114
21
-129.527
0
LINE
8
BLACK
6
CONTINUOUS
10
94.6114
20
-129.527
11
94.8971
21
-129.67
0
LINE
8
BLACK
6
CONTINUOUS
10
94.8971
20
-129.67
11
95.04
21
-129.813
0
LINE
8
BLACK
6
CONTINUOUS
10
95.04
20
-129.813
11
95.1829
21
-130.099
0
LINE
8
BLACK
6
CONTINUOUS
10
95.1829
20
-130.099
11
95.3257
21
-130.67
0
LINE
8
BLACK
6
CONTINUOUS
10
95.3257
20
-130.67
11
95.3257
21
-131.384
0
LINE
8
BLACK
6
CONTINUOUS
10
95.3257
20
-131.384
11
95.1829
21
-131.956
0
LINE
8
BLACK
6
CONTINUOUS
10
95.1829
20
-131.956
11
95.04
21
-132.241
0
LINE
8
BLACK
6
CONTINUOUS
10
95.04
20
-132.241
11
94.8971
21
-132.384
0
LINE
8
BLACK
6
CONTINUOUS
10
94.8971
20
-132.384
11
94.6114
21
-132.527
0
LINE
8
BLACK
6
CONTINUOUS
10
94.6114
20
-132.527
11
94.3257
21
-132.527
0
LINE
8
BLACK
6
CONTINUOUS
10
94.3257
20
-132.527
11
94.04
21
-132.384
0
LINE
8
BLACK
6
CONTINUOUS
10
94.04
20
-132.384
11
93.8971
21
-132.241
0
LINE
8
BLACK
6
CONTINUOUS
10
93.8971
20
-132.241
11
93.7543
21
-131.956
0
LINE
8
BLACK
6
CONTINUOUS
10
93.7543
20
-131.956
11
93.6114
21
-131.384
0
LINE
8
BLACK
6
CONTINUOUS
10
93.6114
20
-131.384
11
93.6114
21
-130.67
0
LINE
8
BLACK
6
CONTINUOUS
10
93.6114
20
-130.67
11
93.7543
21
-130.099
0
LINE
8
BLACK
6
CONTINUOUS
10
93.7543
20
-130.099
11
93.8971
21
-129.813
0
LINE
8
BLACK
6
CONTINUOUS
10
93.8971
20
-129.813
11
94.04
21
-129.67
0
LINE
8
BLACK
6
CONTINUOUS
10
94.04
20
-129.67
11
94.3257
21
-129.527
0
LINE
8
BLACK
6
CONTINUOUS
10
96.6114
20
-132.241
11
96.7543
21
-132.384
0
LINE
8
BLACK
6
CONTINUOUS
10
96.7543
20
-132.384
11
96.6114
21
-132.527
0
LINE
8
BLACK
6
CONTINUOUS
10
96.6114
20
-132.527
11
96.4686
21
-132.384
0
LINE
8
BLACK
6
CONTINUOUS
10
96.4686
20
-132.384
11
96.6114
21
-132.241
0
LINE
8
BLACK
6
CONTINUOUS
10
96.6114
20
-132.241
11
96.6114
21
-132.527
0
LINE
8
BLACK
6
CONTINUOUS
10
98.4686
20
-130.813
11
98.1829
21
-130.67
0
LINE
8
BLACK
6
CONTINUOUS
10
98.1829
20
-130.67
11
98.04
21
-130.527
0
LINE
8
BLACK
6
CONTINUOUS
10
98.04
20
-130.527
11
97.8971
21
-130.241
0
LINE
8
BLACK
6
CONTINUOUS
10
97.8971
20
-130.241
11
97.8971
21
-130.099
0
LINE
8
BLACK
6
CONTINUOUS
10
97.8971
20
-130.099
11
98.04
21
-129.813
0
LINE
8
BLACK
6
CONTINUOUS
10
98.04
20
-129.813
11
98.1829
21
-129.67
0
LINE
8
BLACK
6
CONTINUOUS
10
98.1829
20
-129.67
11
98.4686
21
-129.527
0
LINE
8
BLACK
6
CONTINUOUS
10
98.4686
20
-129.527
11
99.04
21
-129.527
0
LINE
8
BLACK
6
CONTINUOUS
10
99.04
20
-129.527
11
99.3257
21
-129.67
0
LINE
8
BLACK
6
CONTINUOUS
10
99.3257
20
-129.67
11
99.4686
21
-129.813
0
LINE
8
BLACK
6
CONTINUOUS
10
99.4686
20
-129.813
11
99.6114
21
-130.099
0
LINE
8
BLACK
6
CONTINUOUS
10
99.6114
20
-130.099
11
99.6114
21
-130.241
0
LINE
8
BLACK
6
CONTINUOUS
10
99.6114
20
-130.241
11
99.4686
21
-130.527
0
LINE
8
BLACK
6
CONTINUOUS
10
99.4686
20
-130.527
11
99.3257
21
-130.67
0
LINE
8
BLACK
6
CONTINUOUS
10
99.3257
20
-130.67
11
99.04
21
-130.813
0
LINE
8
BLACK
6
CONTINUOUS
10
99.04
20
-130.813
11
98.4686
21
-130.813
0
LINE
8
BLACK
6
CONTINUOUS
10
98.4686
20
-130.813
11
98.1829
21
-130.956
0
LINE
8
BLACK
6
CONTINUOUS
10
98.1829
20
-130.956
11
98.04
21
-131.099
0
LINE
8
BLACK
6
CONTINUOUS
10
98.04
20
-131.099
11
97.8971
21
-131.384
0
LINE
8
BLACK
6
CONTINUOUS
10
97.8971
20
-131.384
11
97.8971
21
-131.956
0
LINE
8
BLACK
6
CONTINUOUS
10
97.8971
20
-131.956
11
98.04
21
-132.241
0
LINE
8
BLACK
6
CONTINUOUS
10
98.04
20
-132.241
11
98.1829
21
-132.384
0
LINE
8
BLACK
6
CONTINUOUS
10
98.1829
20
-132.384
11
98.4686
21
-132.527
0
LINE
8
BLACK
6
CONTINUOUS
10
98.4686
20
-132.527
11
99.04
21
-132.527
0
LINE
8
BLACK
6
CONTINUOUS
10
99.04
20
-132.527
11
99.3257
21
-132.384
0
LINE
8
BLACK
6
CONTINUOUS
10
99.3257
20
-132.384
11
99.4686
21
-132.241
0
LINE
8
BLACK
6
CONTINUOUS
10
99.4686
20
-132.241
11
99.6114
21
-131.956
0
LINE
8
BLACK
6
CONTINUOUS
10
99.6114
20
-131.956
11
99.6114
21
-131.384
0
LINE
8
BLACK
6
CONTINUOUS
10
99.6114
20
-131.384
11
99.4686
21
-131.099
0
LINE
8
BLACK
6
CONTINUOUS
10
99.4686
20
-131.099
11
99.3257
21
-130.956
0
LINE
8
BLACK
6
CONTINUOUS
10
99.3257
20
-130.956
11
99.04
21
-130.813
0
LINE
8
BLACK
6
CONTINUOUS
10
100.754
20
-129.813
11
100.897
21
-129.67
0
LINE
8
BLACK
6
CONTINUOUS
10
100.897
20
-129.67
11
101.183
21
-129.527
0
LINE
8
BLACK
6
CONTINUOUS
10
101.183
20
-129.527
11
101.897
21
-129.527
0
LINE
8
BLACK
6
CONTINUOUS
10
101.897
20
-129.527
11
102.183
21
-129.67
0
LINE
8
BLACK
6
CONTINUOUS
10
102.183
20
-129.67
11
102.326
21
-129.813
0
LINE
8
BLACK
6
CONTINUOUS
10
102.326
20
-129.813
11
102.469
21
-130.099
0
LINE
8
BLACK
6
CONTINUOUS
10
102.469
20
-130.099
11
102.469
21
-130.384
0
LINE
8
BLACK
6
CONTINUOUS
10
102.469
20
-130.384
11
102.326
21
-130.813
0
LINE
8
BLACK
6
CONTINUOUS
10
102.326
20
-130.813
11
100.611
21
-132.527
0
LINE
8
BLACK
6
CONTINUOUS
10
100.611
20
-132.527
11
102.469
21
-132.527
0
LINE
8
BLACK
6
CONTINUOUS
10
103.754
20
-132.527
11
103.754
21
-130.527
0
LINE
8
BLACK
6
CONTINUOUS
10
103.754
20
-130.813
11
103.897
21
-130.67
0
LINE
8
BLACK
6
CONTINUOUS
10
103.897
20
-130.67
11
104.183
21
-130.527
0
LINE
8
BLACK
6
CONTINUOUS
10
104.183
20
-130.527
11
104.611
21
-130.527
0
LINE
8
BLACK
6
CONTINUOUS
10
104.611
20
-130.527
11
104.897
21
-130.67
0
LINE
8
BLACK
6
CONTINUOUS
10
104.897
20
-130.67
11
105.04
21
-130.956
0
LINE
8
BLACK
6
CONTINUOUS
10
105.04
20
-130.956
11
105.04
21
-132.527
0
LINE
8
BLACK
6
CONTINUOUS
10
105.04
20
-130.956
11
105.183
21
-130.67
0
LINE
8
BLACK
6
CONTINUOUS
10
105.183
20
-130.67
11
105.469
21
-130.527
0
LINE
8
BLACK
6
CONTINUOUS
10
105.469
20
-130.527
11
105.897
21
-130.527
0
LINE
8
BLACK
6
CONTINUOUS
10
105.897
20
-130.527
11
106.183
21
-130.67
0
LINE
8
BLACK
6
CONTINUOUS
10
106.183
20
-130.67
11
106.326
21
-130.956
0
LINE
8
BLACK
6
CONTINUOUS
10
106.326
20
-130.956
11
106.326
21
-132.527
0
LINE
8
BLACK
6
CONTINUOUS
10
107.754
20
-132.527
11
107.754
21
-130.527
0
LINE
8
BLACK
6
CONTINUOUS
10
107.754
20
-130.813
11
107.897
21
-130.67
0
LINE
8
BLACK
6
CONTINUOUS
10
107.897
20
-130.67
11
108.183
21
-130.527
0
LINE
8
BLACK
6
CONTINUOUS
10
108.183
20
-130.527
11
108.611
21
-130.527
0
LINE
8
BLACK
6
CONTINUOUS
10
108.611
20
-130.527
11
108.897
21
-130.67
0
LINE
8
BLACK
6
CONTINUOUS
10
108.897
20
-130.67
11
109.04
21
-130.956
0
LINE
8
BLACK
6
CONTINUOUS
10
109.04
20
-130.956
11
109.04
21
-132.527
0
LINE
8
BLACK
6
CONTINUOUS
10
109.04
20
-130.956
11
109.183
21
-130.67
0
LINE
8
BLACK
6
CONTINUOUS
10
109.183
20
-130.67
11
109.469
21
-130.527
0
LINE
8
BLACK
6
CONTINUOUS
10
109.469
20
-130.527
11
109.897
21
-130.527
0
LINE
8
BLACK
6
CONTINUOUS
10
109.897
20
-130.527
11
110.183
21
-130.67
0
LINE
8
BLACK
6
CONTINUOUS
10
110.183
20
-130.67
11
110.326
21
-130.956
0
LINE
8
BLACK
6
CONTINUOUS
10
110.326
20
-130.956
11
110.326
21
-132.527
0
LINE
8
BLACK
6
CONTINUOUS
10
116.183
20
-129.384
11
113.611
21
-133.241
0
LINE
8
BLACK
6
CONTINUOUS
10
120.04
20
-129.527
11
120.326
21
-129.527
0
LINE
8
BLACK
6
CONTINUOUS
10
120.326
20
-129.527
11
120.611
21
-129.67
0
LINE
8
BLACK
6
CONTINUOUS
10
120.611
20
-129.67
11
120.754
21
-129.813
0
LINE
8
BLACK
6
CONTINUOUS
10
120.754
20
-129.813
11
120.897
21
-130.099
0
LINE
8
BLACK
6
CONTINUOUS
10
120.897
20
-130.099
11
121.04
21
-130.67
0
LINE
8
BLACK
6
CONTINUOUS
10
121.04
20
-130.67
11
121.04
21
-131.384
0
LINE
8
BLACK
6
CONTINUOUS
10
121.04
20
-131.384
11
120.897
21
-131.956
0
LINE
8
BLACK
6
CONTINUOUS
10
120.897
20
-131.956
11
120.754
21
-132.241
0
LINE
8
BLACK
6
CONTINUOUS
10
120.754
20
-132.241
11
120.611
21
-132.384
0
LINE
8
BLACK
6
CONTINUOUS
10
120.611
20
-132.384
11
120.326
21
-132.527
0
LINE
8
BLACK
6
CONTINUOUS
10
120.326
20
-132.527
11
120.04
21
-132.527
0
LINE
8
BLACK
6
CONTINUOUS
10
120.04
20
-132.527
11
119.754
21
-132.384
0
LINE
8
BLACK
6
CONTINUOUS
10
119.754
20
-132.384
11
119.611
21
-132.241
0
LINE
8
BLACK
6
CONTINUOUS
10
119.611
20
-132.241
11
119.469
21
-131.956
0
LINE
8
BLACK
6
CONTINUOUS
10
119.469
20
-131.956
11
119.326
21
-131.384
0
LINE
8
BLACK
6
CONTINUOUS
10
119.326
20
-131.384
11
119.326
21
-130.67
0
LINE
8
BLACK
6
CONTINUOUS
10
119.326
20
-130.67
11
119.469
21
-130.099
0
LINE
8
BLACK
6
CONTINUOUS
10
119.469
20
-130.099
11
119.611
21
-129.813
0
LINE
8
BLACK
6
CONTINUOUS
10
119.611
20
-129.813
11
119.754
21
-129.67
0
LINE
8
BLACK
6
CONTINUOUS
10
119.754
20
-129.67
11
120.04
21
-129.527
0
LINE
8
BLACK
6
CONTINUOUS
10
122.326
20
-132.241
11
122.469
21
-132.384
0
LINE
8
BLACK
6
CONTINUOUS
10
122.469
20
-132.384
11
122.326
21
-132.527
0
LINE
8
BLACK
6
CONTINUOUS
10
122.326
20
-132.527
11
122.183
21
-132.384
0
LINE
8
BLACK
6
CONTINUOUS
10
122.183
20
-132.384
11
122.326
21
-132.241
0
LINE
8
BLACK
6
CONTINUOUS
10
122.326
20
-132.241
11
122.326
21
-132.527
0
LINE
8
BLACK
6
CONTINUOUS
10
124.326
20
-129.527
11
124.611
21
-129.527
0
LINE
8
BLACK
6
CONTINUOUS
10
124.611
20
-129.527
11
124.897
21
-129.67
0
LINE
8
BLACK
6
CONTINUOUS
10
124.897
20
-129.67
11
125.04
21
-129.813
0
LINE
8
BLACK
6
CONTINUOUS
10
125.04
20
-129.813
11
125.183
21
-130.099
0
LINE
8
BLACK
6
CONTINUOUS
10
125.183
20
-130.099
11
125.326
21
-130.67
0
LINE
8
BLACK
6
CONTINUOUS
10
125.326
20
-130.67
11
125.326
21
-131.384
0
LINE
8
BLACK
6
CONTINUOUS
10
125.326
20
-131.384
11
125.183
21
-131.956
0
LINE
8
BLACK
6
CONTINUOUS
10
125.183
20
-131.956
11
125.04
21
-132.241
0
LINE
8
BLACK
6
CONTINUOUS
10
125.04
20
-132.241
11
124.897
21
-132.384
0
LINE
8
BLACK
6
CONTINUOUS
10
124.897
20
-132.384
11
124.611
21
-132.527
0
LINE
8
BLACK
6
CONTINUOUS
10
124.611
20
-132.527
11
124.326
21
-132.527
0
LINE
8
BLACK
6
CONTINUOUS
10
124.326
20
-132.527
11
124.04
21
-132.384
0
LINE
8
BLACK
6
CONTINUOUS
10
124.04
20
-132.384
11
123.897
21
-132.241
0
LINE
8
BLACK
6
CONTINUOUS
10
123.897
20
-132.241
11
123.754
21
-131.956
0
LINE
8
BLACK
6
CONTINUOUS
10
123.754
20
-131.956
11
123.611
21
-131.384
0
LINE
8
BLACK
6
CONTINUOUS
10
123.611
20
-131.384
11
123.611
21
-130.67
0
LINE
8
BLACK
6
CONTINUOUS
10
123.611
20
-130.67
11
123.754
21
-130.099
0
LINE
8
BLACK
6
CONTINUOUS
10
123.754
20
-130.099
11
123.897
21
-129.813
0
LINE
8
BLACK
6
CONTINUOUS
10
123.897
20
-129.813
11
124.04
21
-129.67
0
LINE
8
BLACK
6
CONTINUOUS
10
124.04
20
-129.67
11
124.326
21
-129.527
0
LINE
8
BLACK
6
CONTINUOUS
10
126.326
20
-129.527
11
128.183
21
-129.527
0
LINE
8
BLACK
6
CONTINUOUS
10
128.183
20
-129.527
11
127.183
21
-130.67
0
LINE
8
BLACK
6
CONTINUOUS
10
127.183
20
-130.67
11
127.611
21
-130.67
0
LINE
8
BLACK
6
CONTINUOUS
10
127.611
20
-130.67
11
127.897
21
-130.813
0
LINE
8
BLACK
6
CONTINUOUS
10
127.897
20
-130.813
11
128.04
21
-130.956
0
LINE
8
BLACK
6
CONTINUOUS
10
128.04
20
-130.956
11
128.183
21
-131.241
0
LINE
8
BLACK
6
CONTINUOUS
10
128.183
20
-131.241
11
128.183
21
-131.956
0
LINE
8
BLACK
6
CONTINUOUS
10
128.183
20
-131.956
11
128.04
21
-132.241
0
LINE
8
BLACK
6
CONTINUOUS
10
128.04
20
-132.241
11
127.897
21
-132.384
0
LINE
8
BLACK
6
CONTINUOUS
10
127.897
20
-132.384
11
127.611
21
-132.527
0
LINE
8
BLACK
6
CONTINUOUS
10
127.611
20
-132.527
11
126.754
21
-132.527
0
LINE
8
BLACK
6
CONTINUOUS
10
126.754
20
-132.527
11
126.469
21
-132.384
0
LINE
8
BLACK
6
CONTINUOUS
10
126.469
20
-132.384
11
126.326
21
-132.241
0
LINE
8
BLACK
6
CONTINUOUS
10
129.326
20
-129.813
11
129.469
21
-129.67
0
LINE
8
BLACK
6
CONTINUOUS
10
129.469
20
-129.67
11
129.754
21
-129.527
0
LINE
8
BLACK
6
CONTINUOUS
10
129.754
20
-129.527
11
130.469
21
-129.527
0
LINE
8
BLACK
6
CONTINUOUS
10
130.469
20
-129.527
11
130.754
21
-129.67
0
LINE
8
BLACK
6
CONTINUOUS
10
130.754
20
-129.67
11
130.897
21
-129.813
0
LINE
8
BLACK
6
CONTINUOUS
10
130.897
20
-129.813
11
131.04
21
-130.099
0
LINE
8
BLACK
6
CONTINUOUS
10
131.04
20
-130.099
11
131.04
21
-130.384
0
LINE
8
BLACK
6
CONTINUOUS
10
131.04
20
-130.384
11
130.897
21
-130.813
0
LINE
8
BLACK
6
CONTINUOUS
10
130.897
20
-130.813
11
129.183
21
-132.527
0
LINE
8
BLACK
6
CONTINUOUS
10
129.183
20
-132.527
11
131.04
21
-132.527
0
LINE
8
BLACK
6
CONTINUOUS
10
132.183
20
-129.527
11
132.183
21
-130.099
0
LINE
8
BLACK
6
CONTINUOUS
10
133.326
20
-129.527
11
133.326
21
-130.099
0
LINE
8
BLACK
6
CONTINUOUS
10
137.754
20
-133.67
11
137.611
21
-133.527
0
LINE
8
BLACK
6
CONTINUOUS
10
137.611
20
-133.527
11
137.326
21
-133.099
0
LINE
8
BLACK
6
CONTINUOUS
10
137.326
20
-133.099
11
137.183
21
-132.813
0
LINE
8
BLACK
6
CONTINUOUS
10
137.183
20
-132.813
11
137.04
21
-132.384
0
LINE
8
BLACK
6
CONTINUOUS
10
137.04
20
-132.384
11
136.897
21
-131.67
0
LINE
8
BLACK
6
CONTINUOUS
10
136.897
20
-131.67
11
136.897
21
-131.099
0
LINE
8
BLACK
6
CONTINUOUS
10
136.897
20
-131.099
11
137.04
21
-130.384
0
LINE
8
BLACK
6
CONTINUOUS
10
137.04
20
-130.384
11
137.183
21
-129.956
0
LINE
8
BLACK
6
CONTINUOUS
10
137.183
20
-129.956
11
137.326
21
-129.67
0
LINE
8
BLACK
6
CONTINUOUS
10
137.326
20
-129.67
11
137.611
21
-129.241
0
LINE
8
BLACK
6
CONTINUOUS
10
137.611
20
-129.241
11
137.754
21
-129.099
0
LINE
8
BLACK
6
CONTINUOUS
10
139.469
20
-129.527
11
139.754
21
-129.527
0
LINE
8
BLACK
6
CONTINUOUS
10
139.754
20
-129.527
11
140.04
21
-129.67
0
LINE
8
BLACK
6
CONTINUOUS
10
140.04
20
-129.67
11
140.183
21
-129.813
0
LINE
8
BLACK
6
CONTINUOUS
10
140.183
20
-129.813
11
140.326
21
-130.099
0
LINE
8
BLACK
6
CONTINUOUS
10
140.326
20
-130.099
11
140.469
21
-130.67
0
LINE
8
BLACK
6
CONTINUOUS
10
140.469
20
-130.67
11
140.469
21
-131.384
0
LINE
8
BLACK
6
CONTINUOUS
10
140.469
20
-131.384
11
140.326
21
-131.956
0
LINE
8
BLACK
6
CONTINUOUS
10
140.326
20
-131.956
11
140.183
21
-132.241
0
LINE
8
BLACK
6
CONTINUOUS
10
140.183
20
-132.241
11
140.04
21
-132.384
0
LINE
8
BLACK
6
CONTINUOUS
10
140.04
20
-132.384
11
139.754
21
-132.527
0
LINE
8
BLACK
6
CONTINUOUS
10
139.754
20
-132.527
11
139.469
21
-132.527
0
LINE
8
BLACK
6
CONTINUOUS
10
139.469
20
-132.527
11
139.183
21
-132.384
0
LINE
8
BLACK
6
CONTINUOUS
10
139.183
20
-132.384
11
139.04
21
-132.241
0
LINE
8
BLACK
6
CONTINUOUS
10
139.04
20
-132.241
11
138.897
21
-131.956
0
LINE
8
BLACK
6
CONTINUOUS
10
138.897
20
-131.956
11
138.754
21
-131.384
0
LINE
8
BLACK
6
CONTINUOUS
10
138.754
20
-131.384
11
138.754
21
-130.67
0
LINE
8
BLACK
6
CONTINUOUS
10
138.754
20
-130.67
11
138.897
21
-130.099
0
LINE
8
BLACK
6
CONTINUOUS
10
138.897
20
-130.099
11
139.04
21
-129.813
0
LINE
8
BLACK
6
CONTINUOUS
10
139.04
20
-129.813
11
139.183
21
-129.67
0
LINE
8
BLACK
6
CONTINUOUS
10
139.183
20
-129.67
11
139.469
21
-129.527
0
LINE
8
BLACK
6
CONTINUOUS
10
144.04
20
-132.527
11
144.04
21
-129.527
0
LINE
8
BLACK
6
CONTINUOUS
10
145.326
20
-132.527
11
145.326
21
-130.956
0
LINE
8
BLACK
6
CONTINUOUS
10
145.326
20
-130.956
11
145.183
21
-130.67
0
LINE
8
BLACK
6
CONTINUOUS
10
145.183
20
-130.67
11
144.897
21
-130.527
0
LINE
8
BLACK
6
CONTINUOUS
10
144.897
20
-130.527
11
144.469
21
-130.527
0
LINE
8
BLACK
6
CONTINUOUS
10
144.469
20
-130.527
11
144.183
21
-130.67
0
LINE
8
BLACK
6
CONTINUOUS
10
144.183
20
-130.67
11
144.04
21
-130.813
0
LINE
8
BLACK
6
CONTINUOUS
10
147.183
20
-132.527
11
146.897
21
-132.384
0
LINE
8
BLACK
6
CONTINUOUS
10
146.897
20
-132.384
11
146.754
21
-132.241
0
LINE
8
BLACK
6
CONTINUOUS
10
146.754
20
-132.241
11
146.611
21
-131.956
0
LINE
8
BLACK
6
CONTINUOUS
10
146.611
20
-131.956
11
146.611
21
-131.099
0
LINE
8
BLACK
6
CONTINUOUS
10
146.611
20
-131.099
11
146.754
21
-130.813
0
LINE
8
BLACK
6
CONTINUOUS
10
146.754
20
-130.813
11
146.897
21
-130.67
0
LINE
8
BLACK
6
CONTINUOUS
10
146.897
20
-130.67
11
147.183
21
-130.527
0
LINE
8
BLACK
6
CONTINUOUS
10
147.183
20
-130.527
11
147.611
21
-130.527
0
LINE
8
BLACK
6
CONTINUOUS
10
147.611
20
-130.527
11
147.897
21
-130.67
0
LINE
8
BLACK
6
CONTINUOUS
10
147.897
20
-130.67
11
148.04
21
-130.813
0
LINE
8
BLACK
6
CONTINUOUS
10
148.04
20
-130.813
11
148.183
21
-131.099
0
LINE
8
BLACK
6
CONTINUOUS
10
148.183
20
-131.099
11
148.183
21
-131.956
0
LINE
8
BLACK
6
CONTINUOUS
10
148.183
20
-131.956
11
148.04
21
-132.241
0
LINE
8
BLACK
6
CONTINUOUS
10
148.04
20
-132.241
11
147.897
21
-132.384
0
LINE
8
BLACK
6
CONTINUOUS
10
147.897
20
-132.384
11
147.611
21
-132.527
0
LINE
8
BLACK
6
CONTINUOUS
10
147.611
20
-132.527
11
147.183
21
-132.527
0
LINE
8
BLACK
6
CONTINUOUS
10
149.897
20
-132.527
11
149.611
21
-132.384
0
LINE
8
BLACK
6
CONTINUOUS
10
149.611
20
-132.384
11
149.469
21
-132.099
0
LINE
8
BLACK
6
CONTINUOUS
10
149.469
20
-132.099
11
149.469
21
-129.527
0
LINE
8
BLACK
6
CONTINUOUS
10
152.183
20
-132.384
11
151.897
21
-132.527
0
LINE
8
BLACK
6
CONTINUOUS
10
151.897
20
-132.527
11
151.326
21
-132.527
0
LINE
8
BLACK
6
CONTINUOUS
10
151.326
20
-132.527
11
151.04
21
-132.384
0
LINE
8
BLACK
6
CONTINUOUS
10
151.04
20
-132.384
11
150.897
21
-132.099
0
LINE
8
BLACK
6
CONTINUOUS
10
150.897
20
-132.099
11
150.897
21
-130.956
0
LINE
8
BLACK
6
CONTINUOUS
10
150.897
20
-130.956
11
151.04
21
-130.67
0
LINE
8
BLACK
6
CONTINUOUS
10
151.04
20
-130.67
11
151.326
21
-130.527
0
LINE
8
BLACK
6
CONTINUOUS
10
151.326
20
-130.527
11
151.897
21
-130.527
0
LINE
8
BLACK
6
CONTINUOUS
10
151.897
20
-130.527
11
152.183
21
-130.67
0
LINE
8
BLACK
6
CONTINUOUS
10
152.183
20
-130.67
11
152.326
21
-130.956
0
LINE
8
BLACK
6
CONTINUOUS
10
152.326
20
-130.956
11
152.326
21
-131.241
0
LINE
8
BLACK
6
CONTINUOUS
10
152.326
20
-131.241
11
150.897
21
-131.527
0
LINE
8
BLACK
6
CONTINUOUS
10
153.469
20
-132.384
11
153.754
21
-132.527
0
LINE
8
BLACK
6
CONTINUOUS
10
153.754
20
-132.527
11
154.326
21
-132.527
0
LINE
8
BLACK
6
CONTINUOUS
10
154.326
20
-132.527
11
154.611
21
-132.384
0
LINE
8
BLACK
6
CONTINUOUS
10
154.611
20
-132.384
11
154.754
21
-132.099
0
LINE
8
BLACK
6
CONTINUOUS
10
154.754
20
-132.099
11
154.754
21
-131.956
0
LINE
8
BLACK
6
CONTINUOUS
10
154.754
20
-131.956
11
154.611
21
-131.67
0
LINE
8
BLACK
6
CONTINUOUS
10
154.611
20
-131.67
11
154.326
21
-131.527
0
LINE
8
BLACK
6
CONTINUOUS
10
154.326
20
-131.527
11
153.897
21
-131.527
0
LINE
8
BLACK
6
CONTINUOUS
10
153.897
20
-131.527
11
153.611
21
-131.384
0
LINE
8
BLACK
6
CONTINUOUS
10
153.611
20
-131.384
11
153.469
21
-131.099
0
LINE
8
BLACK
6
CONTINUOUS
10
153.469
20
-131.099
11
153.469
21
-130.956
0
LINE
8
BLACK
6
CONTINUOUS
10
153.469
20
-130.956
11
153.611
21
-130.67
0
LINE
8
BLACK
6
CONTINUOUS
10
153.611
20
-130.67
11
153.897
21
-130.527
0
LINE
8
BLACK
6
CONTINUOUS
10
153.897
20
-130.527
11
154.326
21
-130.527
0
LINE
8
BLACK
6
CONTINUOUS
10
154.326
20
-130.527
11
154.611
21
-130.67
0
LINE
8
BLACK
6
CONTINUOUS
10
158.326
20
-131.384
11
160.611
21
-131.384
0
LINE
8
BLACK
6
CONTINUOUS
10
159.469
20
-132.527
11
159.469
21
-130.241
0
LINE
8
BLACK
6
CONTINUOUS
10
164.183
20
-129.813
11
164.326
21
-129.67
0
LINE
8
BLACK
6
CONTINUOUS
10
164.326
20
-129.67
11
164.611
21
-129.527
0
LINE
8
BLACK
6
CONTINUOUS
10
164.611
20
-129.527
11
165.326
21
-129.527
0
LINE
8
BLACK
6
CONTINUOUS
10
165.326
20
-129.527
11
165.611
21
-129.67
0
LINE
8
BLACK
6
CONTINUOUS
10
165.611
20
-129.67
11
165.754
21
-129.813
0
LINE
8
BLACK
6
CONTINUOUS
10
165.754
20
-129.813
11
165.897
21
-130.099
0
LINE
8
BLACK
6
CONTINUOUS
10
165.897
20
-130.099
11
165.897
21
-130.384
0
LINE
8
BLACK
6
CONTINUOUS
10
165.897
20
-130.384
11
165.754
21
-130.813
0
LINE
8
BLACK
6
CONTINUOUS
10
165.754
20
-130.813
11
164.04
21
-132.527
0
LINE
8
BLACK
6
CONTINUOUS
10
164.04
20
-132.527
11
165.897
21
-132.527
0
LINE
8
BLACK
6
CONTINUOUS
10
169.326
20
-132.384
11
169.611
21
-132.527
0
LINE
8
BLACK
6
CONTINUOUS
10
169.611
20
-132.527
11
170.183
21
-132.527
0
LINE
8
BLACK
6
CONTINUOUS
10
170.183
20
-132.527
11
170.469
21
-132.384
0
LINE
8
BLACK
6
CONTINUOUS
10
170.469
20
-132.384
11
170.611
21
-132.099
0
LINE
8
BLACK
6
CONTINUOUS
10
170.611
20
-132.099
11
170.611
21
-131.956
0
LINE
8
BLACK
6
CONTINUOUS
10
170.611
20
-131.956
11
170.469
21
-131.67
0
LINE
8
BLACK
6
CONTINUOUS
10
170.469
20
-131.67
11
170.183
21
-131.527
0
LINE
8
BLACK
6
CONTINUOUS
10
170.183
20
-131.527
11
169.754
21
-131.527
0
LINE
8
BLACK
6
CONTINUOUS
10
169.754
20
-131.527
11
169.469
21
-131.384
0
LINE
8
BLACK
6
CONTINUOUS
10
169.469
20
-131.384
11
169.326
21
-131.099
0
LINE
8
BLACK
6
CONTINUOUS
10
169.326
20
-131.099
11
169.326
21
-130.956
0
LINE
8
BLACK
6
CONTINUOUS
10
169.326
20
-130.956
11
169.469
21
-130.67
0
LINE
8
BLACK
6
CONTINUOUS
10
169.469
20
-130.67
11
169.754
21
-130.527
0
LINE
8
BLACK
6
CONTINUOUS
10
169.754
20
-130.527
11
170.183
21
-130.527
0
LINE
8
BLACK
6
CONTINUOUS
10
170.183
20
-130.527
11
170.469
21
-130.67
0
LINE
8
BLACK
6
CONTINUOUS
10
172.326
20
-132.527
11
172.04
21
-132.384
0
LINE
8
BLACK
6
CONTINUOUS
10
172.04
20
-132.384
11
171.897
21
-132.099
0
LINE
8
BLACK
6
CONTINUOUS
10
171.897
20
-132.099
11
171.897
21
-129.527
0
LINE
8
BLACK
6
CONTINUOUS
10
173.897
20
-132.527
11
173.611
21
-132.384
0
LINE
8
BLACK
6
CONTINUOUS
10
173.611
20
-132.384
11
173.469
21
-132.241
0
LINE
8
BLACK
6
CONTINUOUS
10
173.469
20
-132.241
11
173.326
21
-131.956
0
LINE
8
BLACK
6
CONTINUOUS
10
173.326
20
-131.956
11
173.326
21
-131.099
0
LINE
8
BLACK
6
CONTINUOUS
10
173.326
20
-131.099
11
173.469
21
-130.813
0
LINE
8
BLACK
6
CONTINUOUS
10
173.469
20
-130.813
11
173.611
21
-130.67
0
LINE
8
BLACK
6
CONTINUOUS
10
173.611
20
-130.67
11
173.897
21
-130.527
0
LINE
8
BLACK
6
CONTINUOUS
10
173.897
20
-130.527
11
174.326
21
-130.527
0
LINE
8
BLACK
6
CONTINUOUS
10
174.326
20
-130.527
11
174.611
21
-130.67
0
LINE
8
BLACK
6
CONTINUOUS
10
174.611
20
-130.67
11
174.754
21
-130.813
0
LINE
8
BLACK
6
CONTINUOUS
10
174.754
20
-130.813
11
174.897
21
-131.099
0
LINE
8
BLACK
6
CONTINUOUS
10
174.897
20
-131.099
11
174.897
21
-131.956
0
LINE
8
BLACK
6
CONTINUOUS
10
174.897
20
-131.956
11
174.754
21
-132.241
0
LINE
8
BLACK
6
CONTINUOUS
10
174.754
20
-132.241
11
174.611
21
-132.384
0
LINE
8
BLACK
6
CONTINUOUS
10
174.611
20
-132.384
11
174.326
21
-132.527
0
LINE
8
BLACK
6
CONTINUOUS
10
174.326
20
-132.527
11
173.897
21
-132.527
0
LINE
8
BLACK
6
CONTINUOUS
10
175.754
20
-130.527
11
176.897
21
-130.527
0
LINE
8
BLACK
6
CONTINUOUS
10
176.183
20
-129.527
11
176.183
21
-132.099
0
LINE
8
BLACK
6
CONTINUOUS
10
176.183
20
-132.099
11
176.326
21
-132.384
0
LINE
8
BLACK
6
CONTINUOUS
10
176.326
20
-132.384
11
176.611
21
-132.527
0
LINE
8
BLACK
6
CONTINUOUS
10
176.611
20
-132.527
11
176.897
21
-132.527
0
LINE
8
BLACK
6
CONTINUOUS
10
177.754
20
-132.384
11
178.04
21
-132.527
0
LINE
8
BLACK
6
CONTINUOUS
10
178.04
20
-132.527
11
178.611
21
-132.527
0
LINE
8
BLACK
6
CONTINUOUS
10
178.611
20
-132.527
11
178.897
21
-132.384
0
LINE
8
BLACK
6
CONTINUOUS
10
178.897
20
-132.384
11
179.04
21
-132.099
0
LINE
8
BLACK
6
CONTINUOUS
10
179.04
20
-132.099
11
179.04
21
-131.956
0
LINE
8
BLACK
6
CONTINUOUS
10
179.04
20
-131.956
11
178.897
21
-131.67
0
LINE
8
BLACK
6
CONTINUOUS
10
178.897
20
-131.67
11
178.611
21
-131.527
0
LINE
8
BLACK
6
CONTINUOUS
10
178.611
20
-131.527
11
178.183
21
-131.527
0
LINE
8
BLACK
6
CONTINUOUS
10
178.183
20
-131.527
11
177.897
21
-131.384
0
LINE
8
BLACK
6
CONTINUOUS
10
177.897
20
-131.384
11
177.754
21
-131.099
0
LINE
8
BLACK
6
CONTINUOUS
10
177.754
20
-131.099
11
177.754
21
-130.956
0
LINE
8
BLACK
6
CONTINUOUS
10
177.754
20
-130.956
11
177.897
21
-130.67
0
LINE
8
BLACK
6
CONTINUOUS
10
177.897
20
-130.67
11
178.183
21
-130.527
0
LINE
8
BLACK
6
CONTINUOUS
10
178.183
20
-130.527
11
178.611
21
-130.527
0
LINE
8
BLACK
6
CONTINUOUS
10
178.611
20
-130.527
11
178.897
21
-130.67
0
LINE
8
BLACK
6
CONTINUOUS
10
180.04
20
-133.67
11
180.183
21
-133.527
0
LINE
8
BLACK
6
CONTINUOUS
10
180.183
20
-133.527
11
180.469
21
-133.099
0
LINE
8
BLACK
6
CONTINUOUS
10
180.469
20
-133.099
11
180.611
21
-132.813
0
LINE
8
BLACK
6
CONTINUOUS
10
180.611
20
-132.813
11
180.754
21
-132.384
0
LINE
8
BLACK
6
CONTINUOUS
10
180.754
20
-132.384
11
180.897
21
-131.67
0
LINE
8
BLACK
6
CONTINUOUS
10
180.897
20
-131.67
11
180.897
21
-131.099
0
LINE
8
BLACK
6
CONTINUOUS
10
180.897
20
-131.099
11
180.754
21
-130.384
0
LINE
8
BLACK
6
CONTINUOUS
10
180.754
20
-130.384
11
180.611
21
-129.956
0
LINE
8
BLACK
6
CONTINUOUS
10
180.611
20
-129.956
11
180.469
21
-129.67
0
LINE
8
BLACK
6
CONTINUOUS
10
180.469
20
-129.67
11
180.183
21
-129.241
0
LINE
8
BLACK
6
CONTINUOUS
10
180.183
20
-129.241
11
180.04
21
-129.099
0
LINE
8
BLACK
6
CONTINUOUS
10
90.7436
20
-135.484
11
90.7436
21
-134.776
0
LINE
8
BLACK
6
CONTINUOUS
10
90.7436
20
-134.776
11
90.0364
21
-134.776
0
LINE
8
BLACK
6
CONTINUOUS
10
90.0364
20
-134.776
11
90.0364
21
-135.484
0
LINE
8
BLACK
6
CONTINUOUS
10
90.0364
20
-135.484
11
90.7436
21
-135.484
0
LINE
8
BLACK
6
CONTINUOUS
10
95.3257
20
-136.487
11
93.6114
21
-136.487
0
LINE
8
BLACK
6
CONTINUOUS
10
94.4686
20
-136.487
11
94.4686
21
-133.487
0
LINE
8
BLACK
6
CONTINUOUS
10
94.4686
20
-133.487
11
94.1829
21
-133.916
0
LINE
8
BLACK
6
CONTINUOUS
10
94.1829
20
-133.916
11
93.8971
21
-134.201
0
LINE
8
BLACK
6
CONTINUOUS
10
93.8971
20
-134.201
11
93.6114
21
-134.344
0
LINE
8
BLACK
6
CONTINUOUS
10
96.6114
20
-136.201
11
96.7543
21
-136.344
0
LINE
8
BLACK
6
CONTINUOUS
10
96.7543
20
-136.344
11
96.6114
21
-136.487
0
LINE
8
BLACK
6
CONTINUOUS
10
96.6114
20
-136.487
11
96.4686
21
-136.344
0
LINE
8
BLACK
6
CONTINUOUS
10
96.4686
20
-136.344
11
96.6114
21
-136.201
0
LINE
8
BLACK
6
CONTINUOUS
10
96.6114
20
-136.201
11
96.6114
21
-136.487
0
LINE
8
BLACK
6
CONTINUOUS
10
98.6114
20
-133.487
11
98.8971
21
-133.487
0
LINE
8
BLACK
6
CONTINUOUS
10
98.8971
20
-133.487
11
99.1829
21
-133.63
0
LINE
8
BLACK
6
CONTINUOUS
10
99.1829
20
-133.63
11
99.3257
21
-133.773
0
LINE
8
BLACK
6
CONTINUOUS
10
99.3257
20
-133.773
11
99.4686
21
-134.059
0
LINE
8
BLACK
6
CONTINUOUS
10
99.4686
20
-134.059
11
99.6114
21
-134.63
0
LINE
8
BLACK
6
CONTINUOUS
10
99.6114
20
-134.63
11
99.6114
21
-135.344
0
LINE
8
BLACK
6
CONTINUOUS
10
99.6114
20
-135.344
11
99.4686
21
-135.916
0
LINE
8
BLACK
6
CONTINUOUS
10
99.4686
20
-135.916
11
99.3257
21
-136.201
0
LINE
8
BLACK
6
CONTINUOUS
10
99.3257
20
-136.201
11
99.1829
21
-136.344
0
LINE
8
BLACK
6
CONTINUOUS
10
99.1829
20
-136.344
11
98.8971
21
-136.487
0
LINE
8
BLACK
6
CONTINUOUS
10
98.8971
20
-136.487
11
98.6114
21
-136.487
0
LINE
8
BLACK
6
CONTINUOUS
10
98.6114
20
-136.487
11
98.3257
21
-136.344
0
LINE
8
BLACK
6
CONTINUOUS
10
98.3257
20
-136.344
11
98.1829
21
-136.201
0
LINE
8
BLACK
6
CONTINUOUS
10
98.1829
20
-136.201
11
98.04
21
-135.916
0
LINE
8
BLACK
6
CONTINUOUS
10
98.04
20
-135.916
11
97.8971
21
-135.344
0
LINE
8
BLACK
6
CONTINUOUS
10
97.8971
20
-135.344
11
97.8971
21
-134.63
0
LINE
8
BLACK
6
CONTINUOUS
10
97.8971
20
-134.63
11
98.04
21
-134.059
0
LINE
8
BLACK
6
CONTINUOUS
10
98.04
20
-134.059
11
98.1829
21
-133.773
0
LINE
8
BLACK
6
CONTINUOUS
10
98.1829
20
-133.773
11
98.3257
21
-133.63
0
LINE
8
BLACK
6
CONTINUOUS
10
98.3257
20
-133.63
11
98.6114
21
-133.487
0
LINE
8
BLACK
6
CONTINUOUS
10
101.469
20
-133.487
11
101.754
21
-133.487
0
LINE
8
BLACK
6
CONTINUOUS
10
101.754
20
-133.487
11
102.04
21
-133.63
0
LINE
8
BLACK
6
CONTINUOUS
10
102.04
20
-133.63
11
102.183
21
-133.773
0
LINE
8
BLACK
6
CONTINUOUS
10
102.183
20
-133.773
11
102.326
21
-134.059
0
LINE
8
BLACK
6
CONTINUOUS
10
102.326
20
-134.059
11
102.469
21
-134.63
0
LINE
8
BLACK
6
CONTINUOUS
10
102.469
20
-134.63
11
102.469
21
-135.344
0
LINE
8
BLACK
6
CONTINUOUS
10
102.469
20
-135.344
11
102.326
21
-135.916
0
LINE
8
BLACK
6
CONTINUOUS
10
102.326
20
-135.916
11
102.183
21
-136.201
0
LINE
8
BLACK
6
CONTINUOUS
10
102.183
20
-136.201
11
102.04
21
-136.344
0
LINE
8
BLACK
6
CONTINUOUS
10
102.04
20
-136.344
11
101.754
21
-136.487
0
LINE
8
BLACK
6
CONTINUOUS
10
101.754
20
-136.487
11
101.469
21
-136.487
0
LINE
8
BLACK
6
CONTINUOUS
10
101.469
20
-136.487
11
101.183
21
-136.344
0
LINE
8
BLACK
6
CONTINUOUS
10
101.183
20
-136.344
11
101.04
21
-136.201
0
LINE
8
BLACK
6
CONTINUOUS
10
101.04
20
-136.201
11
100.897
21
-135.916
0
LINE
8
BLACK
6
CONTINUOUS
10
100.897
20
-135.916
11
100.754
21
-135.344
0
LINE
8
BLACK
6
CONTINUOUS
10
100.754
20
-135.344
11
100.754
21
-134.63
0
LINE
8
BLACK
6
CONTINUOUS
10
100.754
20
-134.63
11
100.897
21
-134.059
0
LINE
8
BLACK
6
CONTINUOUS
10
100.897
20
-134.059
11
101.04
21
-133.773
0
LINE
8
BLACK
6
CONTINUOUS
10
101.04
20
-133.773
11
101.183
21
-133.63
0
LINE
8
BLACK
6
CONTINUOUS
10
101.183
20
-133.63
11
101.469
21
-133.487
0
LINE
8
BLACK
6
CONTINUOUS
10
103.754
20
-136.487
11
103.754
21
-134.487
0
LINE
8
BLACK
6
CONTINUOUS
10
103.754
20
-134.773
11
103.897
21
-134.63
0
LINE
8
BLACK
6
CONTINUOUS
10
103.897
20
-134.63
11
104.183
21
-134.487
0
LINE
8
BLACK
6
CONTINUOUS
10
104.183
20
-134.487
11
104.611
21
-134.487
0
LINE
8
BLACK
6
CONTINUOUS
10
104.611
20
-134.487
11
104.897
21
-134.63
0
LINE
8
BLACK
6
CONTINUOUS
10
104.897
20
-134.63
11
105.04
21
-134.916
0
LINE
8
BLACK
6
CONTINUOUS
10
105.04
20
-134.916
11
105.04
21
-136.487
0
LINE
8
BLACK
6
CONTINUOUS
10
105.04
20
-134.916
11
105.183
21
-134.63
0
LINE
8
BLACK
6
CONTINUOUS
10
105.183
20
-134.63
11
105.469
21
-134.487
0
LINE
8
BLACK
6
CONTINUOUS
10
105.469
20
-134.487
11
105.897
21
-134.487
0
LINE
8
BLACK
6
CONTINUOUS
10
105.897
20
-134.487
11
106.183
21
-134.63
0
LINE
8
BLACK
6
CONTINUOUS
10
106.183
20
-134.63
11
106.326
21
-134.916
0
LINE
8
BLACK
6
CONTINUOUS
10
106.326
20
-134.916
11
106.326
21
-136.487
0
LINE
8
BLACK
6
CONTINUOUS
10
107.754
20
-136.487
11
107.754
21
-134.487
0
LINE
8
BLACK
6
CONTINUOUS
10
107.754
20
-134.773
11
107.897
21
-134.63
0
LINE
8
BLACK
6
CONTINUOUS
10
107.897
20
-134.63
11
108.183
21
-134.487
0
LINE
8
BLACK
6
CONTINUOUS
10
108.183
20
-134.487
11
108.611
21
-134.487
0
LINE
8
BLACK
6
CONTINUOUS
10
108.611
20
-134.487
11
108.897
21
-134.63
0
LINE
8
BLACK
6
CONTINUOUS
10
108.897
20
-134.63
11
109.04
21
-134.916
0
LINE
8
BLACK
6
CONTINUOUS
10
109.04
20
-134.916
11
109.04
21
-136.487
0
LINE
8
BLACK
6
CONTINUOUS
10
109.04
20
-134.916
11
109.183
21
-134.63
0
LINE
8
BLACK
6
CONTINUOUS
10
109.183
20
-134.63
11
109.469
21
-134.487
0
LINE
8
BLACK
6
CONTINUOUS
10
109.469
20
-134.487
11
109.897
21
-134.487
0
LINE
8
BLACK
6
CONTINUOUS
10
109.897
20
-134.487
11
110.183
21
-134.63
0
LINE
8
BLACK
6
CONTINUOUS
10
110.183
20
-134.63
11
110.326
21
-134.916
0
LINE
8
BLACK
6
CONTINUOUS
10
110.326
20
-134.916
11
110.326
21
-136.487
0
LINE
8
BLACK
6
CONTINUOUS
10
116.183
20
-133.344
11
113.611
21
-137.201
0
LINE
8
BLACK
6
CONTINUOUS
10
120.04
20
-133.487
11
120.326
21
-133.487
0
LINE
8
BLACK
6
CONTINUOUS
10
120.326
20
-133.487
11
120.611
21
-133.63
0
LINE
8
BLACK
6
CONTINUOUS
10
120.611
20
-133.63
11
120.754
21
-133.773
0
LINE
8
BLACK
6
CONTINUOUS
10
120.754
20
-133.773
11
120.897
21
-134.059
0
LINE
8
BLACK
6
CONTINUOUS
10
120.897
20
-134.059
11
121.04
21
-134.63
0
LINE
8
BLACK
6
CONTINUOUS
10
121.04
20
-134.63
11
121.04
21
-135.344
0
LINE
8
BLACK
6
CONTINUOUS
10
121.04
20
-135.344
11
120.897
21
-135.916
0
LINE
8
BLACK
6
CONTINUOUS
10
120.897
20
-135.916
11
120.754
21
-136.201
0
LINE
8
BLACK
6
CONTINUOUS
10
120.754
20
-136.201
11
120.611
21
-136.344
0
LINE
8
BLACK
6
CONTINUOUS
10
120.611
20
-136.344
11
120.326
21
-136.487
0
LINE
8
BLACK
6
CONTINUOUS
10
120.326
20
-136.487
11
120.04
21
-136.487
0
LINE
8
BLACK
6
CONTINUOUS
10
120.04
20
-136.487
11
119.754
21
-136.344
0
LINE
8
BLACK
6
CONTINUOUS
10
119.754
20
-136.344
11
119.611
21
-136.201
0
LINE
8
BLACK
6
CONTINUOUS
10
119.611
20
-136.201
11
119.469
21
-135.916
0
LINE
8
BLACK
6
CONTINUOUS
10
119.469
20
-135.916
11
119.326
21
-135.344
0
LINE
8
BLACK
6
CONTINUOUS
10
119.326
20
-135.344
11
119.326
21
-134.63
0
LINE
8
BLACK
6
CONTINUOUS
10
119.326
20
-134.63
11
119.469
21
-134.059
0
LINE
8
BLACK
6
CONTINUOUS
10
119.469
20
-134.059
11
119.611
21
-133.773
0
LINE
8
BLACK
6
CONTINUOUS
10
119.611
20
-133.773
11
119.754
21
-133.63
0
LINE
8
BLACK
6
CONTINUOUS
10
119.754
20
-133.63
11
120.04
21
-133.487
0
LINE
8
BLACK
6
CONTINUOUS
10
122.326
20
-136.201
11
122.469
21
-136.344
0
LINE
8
BLACK
6
CONTINUOUS
10
122.469
20
-136.344
11
122.326
21
-136.487
0
LINE
8
BLACK
6
CONTINUOUS
10
122.326
20
-136.487
11
122.183
21
-136.344
0
LINE
8
BLACK
6
CONTINUOUS
10
122.183
20
-136.344
11
122.326
21
-136.201
0
LINE
8
BLACK
6
CONTINUOUS
10
122.326
20
-136.201
11
122.326
21
-136.487
0
LINE
8
BLACK
6
CONTINUOUS
10
124.326
20
-133.487
11
124.611
21
-133.487
0
LINE
8
BLACK
6
CONTINUOUS
10
124.611
20
-133.487
11
124.897
21
-133.63
0
LINE
8
BLACK
6
CONTINUOUS
10
124.897
20
-133.63
11
125.04
21
-133.773
0
LINE
8
BLACK
6
CONTINUOUS
10
125.04
20
-133.773
11
125.183
21
-134.059
0
LINE
8
BLACK
6
CONTINUOUS
10
125.183
20
-134.059
11
125.326
21
-134.63
0
LINE
8
BLACK
6
CONTINUOUS
10
125.326
20
-134.63
11
125.326
21
-135.344
0
LINE
8
BLACK
6
CONTINUOUS
10
125.326
20
-135.344
11
125.183
21
-135.916
0
LINE
8
BLACK
6
CONTINUOUS
10
125.183
20
-135.916
11
125.04
21
-136.201
0
LINE
8
BLACK
6
CONTINUOUS
10
125.04
20
-136.201
11
124.897
21
-136.344
0
LINE
8
BLACK
6
CONTINUOUS
10
124.897
20
-136.344
11
124.611
21
-136.487
0
LINE
8
BLACK
6
CONTINUOUS
10
124.611
20
-136.487
11
124.326
21
-136.487
0
LINE
8
BLACK
6
CONTINUOUS
10
124.326
20
-136.487
11
124.04
21
-136.344
0
LINE
8
BLACK
6
CONTINUOUS
10
124.04
20
-136.344
11
123.897
21
-136.201
0
LINE
8
BLACK
6
CONTINUOUS
10
123.897
20
-136.201
11
123.754
21
-135.916
0
LINE
8
BLACK
6
CONTINUOUS
10
123.754
20
-135.916
11
123.611
21
-135.344
0
LINE
8
BLACK
6
CONTINUOUS
10
123.611
20
-135.344
11
123.611
21
-134.63
0
LINE
8
BLACK
6
CONTINUOUS
10
123.611
20
-134.63
11
123.754
21
-134.059
0
LINE
8
BLACK
6
CONTINUOUS
10
123.754
20
-134.059
11
123.897
21
-133.773
0
LINE
8
BLACK
6
CONTINUOUS
10
123.897
20
-133.773
11
124.04
21
-133.63
0
LINE
8
BLACK
6
CONTINUOUS
10
124.04
20
-133.63
11
124.326
21
-133.487
0
LINE
8
BLACK
6
CONTINUOUS
10
126.326
20
-133.487
11
128.183
21
-133.487
0
LINE
8
BLACK
6
CONTINUOUS
10
128.183
20
-133.487
11
127.183
21
-134.63
0
LINE
8
BLACK
6
CONTINUOUS
10
127.183
20
-134.63
11
127.611
21
-134.63
0
LINE
8
BLACK
6
CONTINUOUS
10
127.611
20
-134.63
11
127.897
21
-134.773
0
LINE
8
BLACK
6
CONTINUOUS
10
127.897
20
-134.773
11
128.04
21
-134.916
0
LINE
8
BLACK
6
CONTINUOUS
10
128.04
20
-134.916
11
128.183
21
-135.201
0
LINE
8
BLACK
6
CONTINUOUS
10
128.183
20
-135.201
11
128.183
21
-135.916
0
LINE
8
BLACK
6
CONTINUOUS
10
128.183
20
-135.916
11
128.04
21
-136.201
0
LINE
8
BLACK
6
CONTINUOUS
10
128.04
20
-136.201
11
127.897
21
-136.344
0
LINE
8
BLACK
6
CONTINUOUS
10
127.897
20
-136.344
11
127.611
21
-136.487
0
LINE
8
BLACK
6
CONTINUOUS
10
127.611
20
-136.487
11
126.754
21
-136.487
0
LINE
8
BLACK
6
CONTINUOUS
10
126.754
20
-136.487
11
126.469
21
-136.344
0
LINE
8
BLACK
6
CONTINUOUS
10
126.469
20
-136.344
11
126.326
21
-136.201
0
LINE
8
BLACK
6
CONTINUOUS
10
129.611
20
-136.487
11
130.183
21
-136.487
0
LINE
8
BLACK
6
CONTINUOUS
10
130.183
20
-136.487
11
130.469
21
-136.344
0
LINE
8
BLACK
6
CONTINUOUS
10
130.469
20
-136.344
11
130.611
21
-136.201
0
LINE
8
BLACK
6
CONTINUOUS
10
130.611
20
-136.201
11
130.897
21
-135.773
0
LINE
8
BLACK
6
CONTINUOUS
10
130.897
20
-135.773
11
131.04
21
-135.201
0
LINE
8
BLACK
6
CONTINUOUS
10
131.04
20
-135.201
11
131.04
21
-134.059
0
LINE
8
BLACK
6
CONTINUOUS
10
131.04
20
-134.059
11
130.897
21
-133.773
0
LINE
8
BLACK
6
CONTINUOUS
10
130.897
20
-133.773
11
130.754
21
-133.63
0
LINE
8
BLACK
6
CONTINUOUS
10
130.754
20
-133.63
11
130.469
21
-133.487
0
LINE
8
BLACK
6
CONTINUOUS
10
130.469
20
-133.487
11
129.897
21
-133.487
0
LINE
8
BLACK
6
CONTINUOUS
10
129.897
20
-133.487
11
129.611
21
-133.63
0
LINE
8
BLACK
6
CONTINUOUS
10
129.611
20
-133.63
11
129.469
21
-133.773
0
LINE
8
BLACK
6
CONTINUOUS
10
129.469
20
-133.773
11
129.326
21
-134.059
0
LINE
8
BLACK
6
CONTINUOUS
10
129.326
20
-134.059
11
129.326
21
-134.773
0
LINE
8
BLACK
6
CONTINUOUS
10
129.326
20
-134.773
11
129.469
21
-135.059
0
LINE
8
BLACK
6
CONTINUOUS
10
129.469
20
-135.059
11
129.611
21
-135.201
0
LINE
8
BLACK
6
CONTINUOUS
10
129.611
20
-135.201
11
129.897
21
-135.344
0
LINE
8
BLACK
6
CONTINUOUS
10
129.897
20
-135.344
11
130.469
21
-135.344
0
LINE
8
BLACK
6
CONTINUOUS
10
130.469
20
-135.344
11
130.754
21
-135.201
0
LINE
8
BLACK
6
CONTINUOUS
10
130.754
20
-135.201
11
130.897
21
-135.059
0
LINE
8
BLACK
6
CONTINUOUS
10
130.897
20
-135.059
11
131.04
21
-134.773
0
LINE
8
BLACK
6
CONTINUOUS
10
132.183
20
-133.487
11
132.183
21
-134.059
0
LINE
8
BLACK
6
CONTINUOUS
10
133.326
20
-133.487
11
133.326
21
-134.059
0
LINE
8
BLACK
6
CONTINUOUS
10
137.754
20
-137.63
11
137.611
21
-137.487
0
LINE
8
BLACK
6
CONTINUOUS
10
137.611
20
-137.487
11
137.326
21
-137.059
0
LINE
8
BLACK
6
CONTINUOUS
10
137.326
20
-137.059
11
137.183
21
-136.773
0
LINE
8
BLACK
6
CONTINUOUS
10
137.183
20
-136.773
11
137.04
21
-136.344
0
LINE
8
BLACK
6
CONTINUOUS
10
137.04
20
-136.344
11
136.897
21
-135.63
0
LINE
8
BLACK
6
CONTINUOUS
10
136.897
20
-135.63
11
136.897
21
-135.059
0
LINE
8
BLACK
6
CONTINUOUS
10
136.897
20
-135.059
11
137.04
21
-134.344
0
LINE
8
BLACK
6
CONTINUOUS
10
137.04
20
-134.344
11
137.183
21
-133.916
0
LINE
8
BLACK
6
CONTINUOUS
10
137.183
20
-133.916
11
137.326
21
-133.63
0
LINE
8
BLACK
6
CONTINUOUS
10
137.326
20
-133.63
11
137.611
21
-133.201
0
LINE
8
BLACK
6
CONTINUOUS
10
137.611
20
-133.201
11
137.754
21
-133.059
0
LINE
8
BLACK
6
CONTINUOUS
10
139.326
20
-134.773
11
139.04
21
-134.63
0
LINE
8
BLACK
6
CONTINUOUS
10
139.04
20
-134.63
11
138.897
21
-134.487
0
LINE
8
BLACK
6
CONTINUOUS
10
138.897
20
-134.487
11
138.754
21
-134.201
0
LINE
8
BLACK
6
CONTINUOUS
10
138.754
20
-134.201
11
138.754
21
-134.059
0
LINE
8
BLACK
6
CONTINUOUS
10
138.754
20
-134.059
11
138.897
21
-133.773
0
LINE
8
BLACK
6
CONTINUOUS
10
138.897
20
-133.773
11
139.04
21
-133.63
0
LINE
8
BLACK
6
CONTINUOUS
10
139.04
20
-133.63
11
139.326
21
-133.487
0
LINE
8
BLACK
6
CONTINUOUS
10
139.326
20
-133.487
11
139.897
21
-133.487
0
LINE
8
BLACK
6
CONTINUOUS
10
139.897
20
-133.487
11
140.183
21
-133.63
0
LINE
8
BLACK
6
CONTINUOUS
10
140.183
20
-133.63
11
140.326
21
-133.773
0
LINE
8
BLACK
6
CONTINUOUS
10
140.326
20
-133.773
11
140.469
21
-134.059
0
LINE
8
BLACK
6
CONTINUOUS
10
140.469
20
-134.059
11
140.469
21
-134.201
0
LINE
8
BLACK
6
CONTINUOUS
10
140.469
20
-134.201
11
140.326
21
-134.487
0
LINE
8
BLACK
6
CONTINUOUS
10
140.326
20
-134.487
11
140.183
21
-134.63
0
LINE
8
BLACK
6
CONTINUOUS
10
140.183
20
-134.63
11
139.897
21
-134.773
0
LINE
8
BLACK
6
CONTINUOUS
10
139.897
20
-134.773
11
139.326
21
-134.773
0
LINE
8
BLACK
6
CONTINUOUS
10
139.326
20
-134.773
11
139.04
21
-134.916
0
LINE
8
BLACK
6
CONTINUOUS
10
139.04
20
-134.916
11
138.897
21
-135.059
0
LINE
8
BLACK
6
CONTINUOUS
10
138.897
20
-135.059
11
138.754
21
-135.344
0
LINE
8
BLACK
6
CONTINUOUS
10
138.754
20
-135.344
11
138.754
21
-135.916
0
LINE
8
BLACK
6
CONTINUOUS
10
138.754
20
-135.916
11
138.897
21
-136.201
0
LINE
8
BLACK
6
CONTINUOUS
10
138.897
20
-136.201
11
139.04
21
-136.344
0
LINE
8
BLACK
6
CONTINUOUS
10
139.04
20
-136.344
11
139.326
21
-136.487
0
LINE
8
BLACK
6
CONTINUOUS
10
139.326
20
-136.487
11
139.897
21
-136.487
0
LINE
8
BLACK
6
CONTINUOUS
10
139.897
20
-136.487
11
140.183
21
-136.344
0
LINE
8
BLACK
6
CONTINUOUS
10
140.183
20
-136.344
11
140.326
21
-136.201
0
LINE
8
BLACK
6
CONTINUOUS
10
140.326
20
-136.201
11
140.469
21
-135.916
0
LINE
8
BLACK
6
CONTINUOUS
10
140.469
20
-135.916
11
140.469
21
-135.344
0
LINE
8
BLACK
6
CONTINUOUS
10
140.469
20
-135.344
11
140.326
21
-135.059
0
LINE
8
BLACK
6
CONTINUOUS
10
140.326
20
-135.059
11
140.183
21
-134.916
0
LINE
8
BLACK
6
CONTINUOUS
10
140.183
20
-134.916
11
139.897
21
-134.773
0
LINE
8
BLACK
6
CONTINUOUS
10
143.326
20
-136.487
11
141.611
21
-136.487
0
LINE
8
BLACK
6
CONTINUOUS
10
142.469
20
-136.487
11
142.469
21
-133.487
0
LINE
8
BLACK
6
CONTINUOUS
10
142.469
20
-133.487
11
142.183
21
-133.916
0
LINE
8
BLACK
6
CONTINUOUS
10
142.183
20
-133.916
11
141.897
21
-134.201
0
LINE
8
BLACK
6
CONTINUOUS
10
141.897
20
-134.201
11
141.611
21
-134.344
0
LINE
8
BLACK
6
CONTINUOUS
10
146.897
20
-136.487
11
146.897
21
-133.487
0
LINE
8
BLACK
6
CONTINUOUS
10
148.183
20
-136.487
11
148.183
21
-134.916
0
LINE
8
BLACK
6
CONTINUOUS
10
148.183
20
-134.916
11
148.04
21
-134.63
0
LINE
8
BLACK
6
CONTINUOUS
10
148.04
20
-134.63
11
147.754
21
-134.487
0
LINE
8
BLACK
6
CONTINUOUS
10
147.754
20
-134.487
11
147.326
21
-134.487
0
LINE
8
BLACK
6
CONTINUOUS
10
147.326
20
-134.487
11
147.04
21
-134.63
0
LINE
8
BLACK
6
CONTINUOUS
10
147.04
20
-134.63
11
146.897
21
-134.773
0
LINE
8
BLACK
6
CONTINUOUS
10
150.04
20
-136.487
11
149.754
21
-136.344
0
LINE
8
BLACK
6
CONTINUOUS
10
149.754
20
-136.344
11
149.611
21
-136.201
0
LINE
8
BLACK
6
CONTINUOUS
10
149.611
20
-136.201
11
149.469
21
-135.916
0
LINE
8
BLACK
6
CONTINUOUS
10
149.469
20
-135.916
11
149.469
21
-135.059
0
LINE
8
BLACK
6
CONTINUOUS
10
149.469
20
-135.059
11
149.611
21
-134.773
0
LINE
8
BLACK
6
CONTINUOUS
10
149.611
20
-134.773
11
149.754
21
-134.63
0
LINE
8
BLACK
6
CONTINUOUS
10
149.754
20
-134.63
11
150.04
21
-134.487
0
LINE
8
BLACK
6
CONTINUOUS
10
150.04
20
-134.487
11
150.469
21
-134.487
0
LINE
8
BLACK
6
CONTINUOUS
10
150.469
20
-134.487
11
150.754
21
-134.63
0
LINE
8
BLACK
6
CONTINUOUS
10
150.754
20
-134.63
11
150.897
21
-134.773
0
LINE
8
BLACK
6
CONTINUOUS
10
150.897
20
-134.773
11
151.04
21
-135.059
0
LINE
8
BLACK
6
CONTINUOUS
10
151.04
20
-135.059
11
151.04
21
-135.916
0
LINE
8
BLACK
6
CONTINUOUS
10
151.04
20
-135.916
11
150.897
21
-136.201
0
LINE
8
BLACK
6
CONTINUOUS
10
150.897
20
-136.201
11
150.754
21
-136.344
0
LINE
8
BLACK
6
CONTINUOUS
10
150.754
20
-136.344
11
150.469
21
-136.487
0
LINE
8
BLACK
6
CONTINUOUS
10
150.469
20
-136.487
11
150.04
21
-136.487
0
LINE
8
BLACK
6
CONTINUOUS
10
152.754
20
-136.487
11
152.469
21
-136.344
0
LINE
8
BLACK
6
CONTINUOUS
10
152.469
20
-136.344
11
152.326
21
-136.059
0
LINE
8
BLACK
6
CONTINUOUS
10
152.326
20
-136.059
11
152.326
21
-133.487
0
LINE
8
BLACK
6
CONTINUOUS
10
155.04
20
-136.344
11
154.754
21
-136.487
0
LINE
8
BLACK
6
CONTINUOUS
10
154.754
20
-136.487
11
154.183
21
-136.487
0
LINE
8
BLACK
6
CONTINUOUS
10
154.183
20
-136.487
11
153.897
21
-136.344
0
LINE
8
BLACK
6
CONTINUOUS
10
153.897
20
-136.344
11
153.754
21
-136.059
0
LINE
8
BLACK
6
CONTINUOUS
10
153.754
20
-136.059
11
153.754
21
-134.916
0
LINE
8
BLACK
6
CONTINUOUS
10
153.754
20
-134.916
11
153.897
21
-134.63
0
LINE
8
BLACK
6
CONTINUOUS
10
153.897
20
-134.63
11
154.183
21
-134.487
0
LINE
8
BLACK
6
CONTINUOUS
10
154.183
20
-134.487
11
154.754
21
-134.487
0
LINE
8
BLACK
6
CONTINUOUS
10
154.754
20
-134.487
11
155.04
21
-134.63
0
LINE
8
BLACK
6
CONTINUOUS
10
155.04
20
-134.63
11
155.183
21
-134.916
0
LINE
8
BLACK
6
CONTINUOUS
10
155.183
20
-134.916
11
155.183
21
-135.201
0
LINE
8
BLACK
6
CONTINUOUS
10
155.183
20
-135.201
11
153.754
21
-135.487
0
LINE
8
BLACK
6
CONTINUOUS
10
156.326
20
-136.344
11
156.611
21
-136.487
0
LINE
8
BLACK
6
CONTINUOUS
10
156.611
20
-136.487
11
157.183
21
-136.487
0
LINE
8
BLACK
6
CONTINUOUS
10
157.183
20
-136.487
11
157.469
21
-136.344
0
LINE
8
BLACK
6
CONTINUOUS
10
157.469
20
-136.344
11
157.611
21
-136.059
0
LINE
8
BLACK
6
CONTINUOUS
10
157.611
20
-136.059
11
157.611
21
-135.916
0
LINE
8
BLACK
6
CONTINUOUS
10
157.611
20
-135.916
11
157.469
21
-135.63
0
LINE
8
BLACK
6
CONTINUOUS
10
157.469
20
-135.63
11
157.183
21
-135.487
0
LINE
8
BLACK
6
CONTINUOUS
10
157.183
20
-135.487
11
156.754
21
-135.487
0
LINE
8
BLACK
6
CONTINUOUS
10
156.754
20
-135.487
11
156.469
21
-135.344
0
LINE
8
BLACK
6
CONTINUOUS
10
156.469
20
-135.344
11
156.326
21
-135.059
0
LINE
8
BLACK
6
CONTINUOUS
10
156.326
20
-135.059
11
156.326
21
-134.916
0
LINE
8
BLACK
6
CONTINUOUS
10
156.326
20
-134.916
11
156.469
21
-134.63
0
LINE
8
BLACK
6
CONTINUOUS
10
156.469
20
-134.63
11
156.754
21
-134.487
0
LINE
8
BLACK
6
CONTINUOUS
10
156.754
20
-134.487
11
157.183
21
-134.487
0
LINE
8
BLACK
6
CONTINUOUS
10
157.183
20
-134.487
11
157.469
21
-134.63
0
LINE
8
BLACK
6
CONTINUOUS
10
158.611
20
-137.63
11
158.754
21
-137.487
0
LINE
8
BLACK
6
CONTINUOUS
10
158.754
20
-137.487
11
159.04
21
-137.059
0
LINE
8
BLACK
6
CONTINUOUS
10
159.04
20
-137.059
11
159.183
21
-136.773
0
LINE
8
BLACK
6
CONTINUOUS
10
159.183
20
-136.773
11
159.326
21
-136.344
0
LINE
8
BLACK
6
CONTINUOUS
10
159.326
20
-136.344
11
159.469
21
-135.63
0
LINE
8
BLACK
6
CONTINUOUS
10
159.469
20
-135.63
11
159.469
21
-135.059
0
LINE
8
BLACK
6
CONTINUOUS
10
159.469
20
-135.059
11
159.326
21
-134.344
0
LINE
8
BLACK
6
CONTINUOUS
10
159.326
20
-134.344
11
159.183
21
-133.916
0
LINE
8
BLACK
6
CONTINUOUS
10
159.183
20
-133.916
11
159.04
21
-133.63
0
LINE
8
BLACK
6
CONTINUOUS
10
159.04
20
-133.63
11
158.754
21
-133.201
0
LINE
8
BLACK
6
CONTINUOUS
10
158.754
20
-133.201
11
158.611
21
-133.059
0
LINE
8
BLACK
6
CONTINUOUS
10
89.29
20
-140.69
11
90.89
21
-139.09
0
LINE
8
BLACK
6
CONTINUOUS
10
90.89
20
-139.09
11
89.29
21
-137.49
0
LINE
8
BLACK
6
CONTINUOUS
10
89.29
20
-137.49
11
87.69
21
-139.09
0
LINE
8
BLACK
6
CONTINUOUS
10
87.69
20
-139.09
11
89.29
21
-140.69
0
LINE
8
BLACK
6
CONTINUOUS
10
93.4686
20
-137.447
11
95.3257
21
-137.447
0
LINE
8
BLACK
6
CONTINUOUS
10
95.3257
20
-137.447
11
94.3257
21
-138.59
0
LINE
8
BLACK
6
CONTINUOUS
10
94.3257
20
-138.59
11
94.7543
21
-138.59
0
LINE
8
BLACK
6
CONTINUOUS
10
94.7543
20
-138.59
11
95.04
21
-138.733
0
LINE
8
BLACK
6
CONTINUOUS
10
95.04
20
-138.733
11
95.1829
21
-138.876
0
LINE
8
BLACK
6
CONTINUOUS
10
95.1829
20
-138.876
11
95.3257
21
-139.161
0
LINE
8
BLACK
6
CONTINUOUS
10
95.3257
20
-139.161
11
95.3257
21
-139.876
0
LINE
8
BLACK
6
CONTINUOUS
10
95.3257
20
-139.876
11
95.1829
21
-140.161
0
LINE
8
BLACK
6
CONTINUOUS
10
95.1829
20
-140.161
11
95.04
21
-140.304
0
LINE
8
BLACK
6
CONTINUOUS
10
95.04
20
-140.304
11
94.7543
21
-140.447
0
LINE
8
BLACK
6
CONTINUOUS
10
94.7543
20
-140.447
11
93.8971
21
-140.447
0
LINE
8
BLACK
6
CONTINUOUS
10
93.8971
20
-140.447
11
93.6114
21
-140.304
0
LINE
8
BLACK
6
CONTINUOUS
10
93.6114
20
-140.304
11
93.4686
21
-140.161
0
LINE
8
BLACK
6
CONTINUOUS
10
96.6114
20
-140.161
11
96.7543
21
-140.304
0
LINE
8
BLACK
6
CONTINUOUS
10
96.7543
20
-140.304
11
96.6114
21
-140.447
0
LINE
8
BLACK
6
CONTINUOUS
10
96.6114
20
-140.447
11
96.4686
21
-140.304
0
LINE
8
BLACK
6
CONTINUOUS
10
96.4686
20
-140.304
11
96.6114
21
-140.161
0
LINE
8
BLACK
6
CONTINUOUS
10
96.6114
20
-140.161
11
96.6114
21
-140.447
0
LINE
8
BLACK
6
CONTINUOUS
10
97.8971
20
-137.733
11
98.04
21
-137.59
0
LINE
8
BLACK
6
CONTINUOUS
10
98.04
20
-137.59
11
98.3257
21
-137.447
0
LINE
8
BLACK
6
CONTINUOUS
10
98.3257
20
-137.447
11
99.04
21
-137.447
0
LINE
8
BLACK
6
CONTINUOUS
10
99.04
20
-137.447
11
99.3257
21
-137.59
0
LINE
8
BLACK
6
CONTINUOUS
10
99.3257
20
-137.59
11
99.4686
21
-137.733
0
LINE
8
BLACK
6
CONTINUOUS
10
99.4686
20
-137.733
11
99.6114
21
-138.019
0
LINE
8
BLACK
6
CONTINUOUS
10
99.6114
20
-138.019
11
99.6114
21
-138.304
0
LINE
8
BLACK
6
CONTINUOUS
10
99.6114
20
-138.304
11
99.4686
21
-138.733
0
LINE
8
BLACK
6
CONTINUOUS
10
99.4686
20
-138.733
11
97.7543
21
-140.447
0
LINE
8
BLACK
6
CONTINUOUS
10
97.7543
20
-140.447
11
99.6114
21
-140.447
0
LINE
8
BLACK
6
CONTINUOUS
10
101.469
20
-137.447
11
101.754
21
-137.447
0
LINE
8
BLACK
6
CONTINUOUS
10
101.754
20
-137.447
11
102.04
21
-137.59
0
LINE
8
BLACK
6
CONTINUOUS
10
102.04
20
-137.59
11
102.183
21
-137.733
0
LINE
8
BLACK
6
CONTINUOUS
10
102.183
20
-137.733
11
102.326
21
-138.019
0
LINE
8
BLACK
6
CONTINUOUS
10
102.326
20
-138.019
11
102.469
21
-138.59
0
LINE
8
BLACK
6
CONTINUOUS
10
102.469
20
-138.59
11
102.469
21
-139.304
0
LINE
8
BLACK
6
CONTINUOUS
10
102.469
20
-139.304
11
102.326
21
-139.876
0
LINE
8
BLACK
6
CONTINUOUS
10
102.326
20
-139.876
11
102.183
21
-140.161
0
LINE
8
BLACK
6
CONTINUOUS
10
102.183
20
-140.161
11
102.04
21
-140.304
0
LINE
8
BLACK
6
CONTINUOUS
10
102.04
20
-140.304
11
101.754
21
-140.447
0
LINE
8
BLACK
6
CONTINUOUS
10
101.754
20
-140.447
11
101.469
21
-140.447
0
LINE
8
BLACK
6
CONTINUOUS
10
101.469
20
-140.447
11
101.183
21
-140.304
0
LINE
8
BLACK
6
CONTINUOUS
10
101.183
20
-140.304
11
101.04
21
-140.161
0
LINE
8
BLACK
6
CONTINUOUS
10
101.04
20
-140.161
11
100.897
21
-139.876
0
LINE
8
BLACK
6
CONTINUOUS
10
100.897
20
-139.876
11
100.754
21
-139.304
0
LINE
8
BLACK
6
CONTINUOUS
10
100.754
20
-139.304
11
100.754
21
-138.59
0
LINE
8
BLACK
6
CONTINUOUS
10
100.754
20
-138.59
11
100.897
21
-138.019
0
LINE
8
BLACK
6
CONTINUOUS
10
100.897
20
-138.019
11
101.04
21
-137.733
0
LINE
8
BLACK
6
CONTINUOUS
10
101.04
20
-137.733
11
101.183
21
-137.59
0
LINE
8
BLACK
6
CONTINUOUS
10
101.183
20
-137.59
11
101.469
21
-137.447
0
LINE
8
BLACK
6
CONTINUOUS
10
103.754
20
-140.447
11
103.754
21
-138.447
0
LINE
8
BLACK
6
CONTINUOUS
10
103.754
20
-138.733
11
103.897
21
-138.59
0
LINE
8
BLACK
6
CONTINUOUS
10
103.897
20
-138.59
11
104.183
21
-138.447
0
LINE
8
BLACK
6
CONTINUOUS
10
104.183
20
-138.447
11
104.611
21
-138.447
0
LINE
8
BLACK
6
CONTINUOUS
10
104.611
20
-138.447
11
104.897
21
-138.59
0
LINE
8
BLACK
6
CONTINUOUS
10
104.897
20
-138.59
11
105.04
21
-138.876
0
LINE
8
BLACK
6
CONTINUOUS
10
105.04
20
-138.876
11
105.04
21
-140.447
0
LINE
8
BLACK
6
CONTINUOUS
10
105.04
20
-138.876
11
105.183
21
-138.59
0
LINE
8
BLACK
6
CONTINUOUS
10
105.183
20
-138.59
11
105.469
21
-138.447
0
LINE
8
BLACK
6
CONTINUOUS
10
105.469
20
-138.447
11
105.897
21
-138.447
0
LINE
8
BLACK
6
CONTINUOUS
10
105.897
20
-138.447
11
106.183
21
-138.59
0
LINE
8
BLACK
6
CONTINUOUS
10
106.183
20
-138.59
11
106.326
21
-138.876
0
LINE
8
BLACK
6
CONTINUOUS
10
106.326
20
-138.876
11
106.326
21
-140.447
0
LINE
8
BLACK
6
CONTINUOUS
10
107.754
20
-140.447
11
107.754
21
-138.447
0
LINE
8
BLACK
6
CONTINUOUS
10
107.754
20
-138.733
11
107.897
21
-138.59
0
LINE
8
BLACK
6
CONTINUOUS
10
107.897
20
-138.59
11
108.183
21
-138.447
0
LINE
8
BLACK
6
CONTINUOUS
10
108.183
20
-138.447
11
108.611
21
-138.447
0
LINE
8
BLACK
6
CONTINUOUS
10
108.611
20
-138.447
11
108.897
21
-138.59
0
LINE
8
BLACK
6
CONTINUOUS
10
108.897
20
-138.59
11
109.04
21
-138.876
0
LINE
8
BLACK
6
CONTINUOUS
10
109.04
20
-138.876
11
109.04
21
-140.447
0
LINE
8
BLACK
6
CONTINUOUS
10
109.04
20
-138.876
11
109.183
21
-138.59
0
LINE
8
BLACK
6
CONTINUOUS
10
109.183
20
-138.59
11
109.469
21
-138.447
0
LINE
8
BLACK
6
CONTINUOUS
10
109.469
20
-138.447
11
109.897
21
-138.447
0
LINE
8
BLACK
6
CONTINUOUS
10
109.897
20
-138.447
11
110.183
21
-138.59
0
LINE
8
BLACK
6
CONTINUOUS
10
110.183
20
-138.59
11
110.326
21
-138.876
0
LINE
8
BLACK
6
CONTINUOUS
10
110.326
20
-138.876
11
110.326
21
-140.447
0
LINE
8
BLACK
6
CONTINUOUS
10
116.183
20
-137.304
11
113.611
21
-141.161
0
LINE
8
BLACK
6
CONTINUOUS
10
120.04
20
-137.447
11
120.326
21
-137.447
0
LINE
8
BLACK
6
CONTINUOUS
10
120.326
20
-137.447
11
120.611
21
-137.59
0
LINE
8
BLACK
6
CONTINUOUS
10
120.611
20
-137.59
11
120.754
21
-137.733
0
LINE
8
BLACK
6
CONTINUOUS
10
120.754
20
-137.733
11
120.897
21
-138.019
0
LINE
8
BLACK
6
CONTINUOUS
10
120.897
20
-138.019
11
121.04
21
-138.59
0
LINE
8
BLACK
6
CONTINUOUS
10
121.04
20
-138.59
11
121.04
21
-139.304
0
LINE
8
BLACK
6
CONTINUOUS
10
121.04
20
-139.304
11
120.897
21
-139.876
0
LINE
8
BLACK
6
CONTINUOUS
10
120.897
20
-139.876
11
120.754
21
-140.161
0
LINE
8
BLACK
6
CONTINUOUS
10
120.754
20
-140.161
11
120.611
21
-140.304
0
LINE
8
BLACK
6
CONTINUOUS
10
120.611
20
-140.304
11
120.326
21
-140.447
0
LINE
8
BLACK
6
CONTINUOUS
10
120.326
20
-140.447
11
120.04
21
-140.447
0
LINE
8
BLACK
6
CONTINUOUS
10
120.04
20
-140.447
11
119.754
21
-140.304
0
LINE
8
BLACK
6
CONTINUOUS
10
119.754
20
-140.304
11
119.611
21
-140.161
0
LINE
8
BLACK
6
CONTINUOUS
10
119.611
20
-140.161
11
119.469
21
-139.876
0
LINE
8
BLACK
6
CONTINUOUS
10
119.469
20
-139.876
11
119.326
21
-139.304
0
LINE
8
BLACK
6
CONTINUOUS
10
119.326
20
-139.304
11
119.326
21
-138.59
0
LINE
8
BLACK
6
CONTINUOUS
10
119.326
20
-138.59
11
119.469
21
-138.019
0
LINE
8
BLACK
6
CONTINUOUS
10
119.469
20
-138.019
11
119.611
21
-137.733
0
LINE
8
BLACK
6
CONTINUOUS
10
119.611
20
-137.733
11
119.754
21
-137.59
0
LINE
8
BLACK
6
CONTINUOUS
10
119.754
20
-137.59
11
120.04
21
-137.447
0
LINE
8
BLACK
6
CONTINUOUS
10
122.326
20
-140.161
11
122.469
21
-140.304
0
LINE
8
BLACK
6
CONTINUOUS
10
122.469
20
-140.304
11
122.326
21
-140.447
0
LINE
8
BLACK
6
CONTINUOUS
10
122.326
20
-140.447
11
122.183
21
-140.304
0
LINE
8
BLACK
6
CONTINUOUS
10
122.183
20
-140.304
11
122.326
21
-140.161
0
LINE
8
BLACK
6
CONTINUOUS
10
122.326
20
-140.161
11
122.326
21
-140.447
0
LINE
8
BLACK
6
CONTINUOUS
10
125.326
20
-140.447
11
123.611
21
-140.447
0
LINE
8
BLACK
6
CONTINUOUS
10
124.469
20
-140.447
11
124.469
21
-137.447
0
LINE
8
BLACK
6
CONTINUOUS
10
124.469
20
-137.447
11
124.183
21
-137.876
0
LINE
8
BLACK
6
CONTINUOUS
10
124.183
20
-137.876
11
123.897
21
-138.161
0
LINE
8
BLACK
6
CONTINUOUS
10
123.897
20
-138.161
11
123.611
21
-138.304
0
LINE
8
BLACK
6
CONTINUOUS
10
126.469
20
-137.733
11
126.611
21
-137.59
0
LINE
8
BLACK
6
CONTINUOUS
10
126.611
20
-137.59
11
126.897
21
-137.447
0
LINE
8
BLACK
6
CONTINUOUS
10
126.897
20
-137.447
11
127.611
21
-137.447
0
LINE
8
BLACK
6
CONTINUOUS
10
127.611
20
-137.447
11
127.897
21
-137.59
0
LINE
8
BLACK
6
CONTINUOUS
10
127.897
20
-137.59
11
128.04
21
-137.733
0
LINE
8
BLACK
6
CONTINUOUS
10
128.04
20
-137.733
11
128.183
21
-138.019
0
LINE
8
BLACK
6
CONTINUOUS
10
128.183
20
-138.019
11
128.183
21
-138.304
0
LINE
8
BLACK
6
CONTINUOUS
10
128.183
20
-138.304
11
128.04
21
-138.733
0
LINE
8
BLACK
6
CONTINUOUS
10
128.04
20
-138.733
11
126.326
21
-140.447
0
LINE
8
BLACK
6
CONTINUOUS
10
126.326
20
-140.447
11
128.183
21
-140.447
0
LINE
8
BLACK
6
CONTINUOUS
10
130.754
20
-137.447
11
130.183
21
-137.447
0
LINE
8
BLACK
6
CONTINUOUS
10
130.183
20
-137.447
11
129.897
21
-137.59
0
LINE
8
BLACK
6
CONTINUOUS
10
129.897
20
-137.59
11
129.754
21
-137.733
0
LINE
8
BLACK
6
CONTINUOUS
10
129.754
20
-137.733
11
129.469
21
-138.161
0
LINE
8
BLACK
6
CONTINUOUS
10
129.469
20
-138.161
11
129.326
21
-138.733
0
LINE
8
BLACK
6
CONTINUOUS
10
129.326
20
-138.733
11
129.326
21
-139.876
0
LINE
8
BLACK
6
CONTINUOUS
10
129.326
20
-139.876
11
129.469
21
-140.161
0
LINE
8
BLACK
6
CONTINUOUS
10
129.469
20
-140.161
11
129.611
21
-140.304
0
LINE
8
BLACK
6
CONTINUOUS
10
129.611
20
-140.304
11
129.897
21
-140.447
0
LINE
8
BLACK
6
CONTINUOUS
10
129.897
20
-140.447
11
130.469
21
-140.447
0
LINE
8
BLACK
6
CONTINUOUS
10
130.469
20
-140.447
11
130.754
21
-140.304
0
LINE
8
BLACK
6
CONTINUOUS
10
130.754
20
-140.304
11
130.897
21
-140.161
0
LINE
8
BLACK
6
CONTINUOUS
10
130.897
20
-140.161
11
131.04
21
-139.876
0
LINE
8
BLACK
6
CONTINUOUS
10
131.04
20
-139.876
11
131.04
21
-139.161
0
LINE
8
BLACK
6
CONTINUOUS
10
131.04
20
-139.161
11
130.897
21
-138.876
0
LINE
8
BLACK
6
CONTINUOUS
10
130.897
20
-138.876
11
130.754
21
-138.733
0
LINE
8
BLACK
6
CONTINUOUS
10
130.754
20
-138.733
11
130.469
21
-138.59
0
LINE
8
BLACK
6
CONTINUOUS
10
130.469
20
-138.59
11
129.897
21
-138.59
0
LINE
8
BLACK
6
CONTINUOUS
10
129.897
20
-138.59
11
129.611
21
-138.733
0
LINE
8
BLACK
6
CONTINUOUS
10
129.611
20
-138.733
11
129.469
21
-138.876
0
LINE
8
BLACK
6
CONTINUOUS
10
129.469
20
-138.876
11
129.326
21
-139.161
0
LINE
8
BLACK
6
CONTINUOUS
10
132.183
20
-137.447
11
132.183
21
-138.019
0
LINE
8
BLACK
6
CONTINUOUS
10
133.326
20
-137.447
11
133.326
21
-138.019
0
LINE
8
BLACK
6
CONTINUOUS
10
137.754
20
-141.59
11
137.611
21
-141.447
0
LINE
8
BLACK
6
CONTINUOUS
10
137.611
20
-141.447
11
137.326
21
-141.019
0
LINE
8
BLACK
6
CONTINUOUS
10
137.326
20
-141.019
11
137.183
21
-140.733
0
LINE
8
BLACK
6
CONTINUOUS
10
137.183
20
-140.733
11
137.04
21
-140.304
0
LINE
8
BLACK
6
CONTINUOUS
10
137.04
20
-140.304
11
136.897
21
-139.59
0
LINE
8
BLACK
6
CONTINUOUS
10
136.897
20
-139.59
11
136.897
21
-139.019
0
LINE
8
BLACK
6
CONTINUOUS
10
136.897
20
-139.019
11
137.04
21
-138.304
0
LINE
8
BLACK
6
CONTINUOUS
10
137.04
20
-138.304
11
137.183
21
-137.876
0
LINE
8
BLACK
6
CONTINUOUS
10
137.183
20
-137.876
11
137.326
21
-137.59
0
LINE
8
BLACK
6
CONTINUOUS
10
137.326
20
-137.59
11
137.611
21
-137.161
0
LINE
8
BLACK
6
CONTINUOUS
10
137.611
20
-137.161
11
137.754
21
-137.019
0
LINE
8
BLACK
6
CONTINUOUS
10
140.183
20
-138.447
11
140.183
21
-140.447
0
LINE
8
BLACK
6
CONTINUOUS
10
139.469
20
-137.304
11
138.754
21
-139.447
0
LINE
8
BLACK
6
CONTINUOUS
10
138.754
20
-139.447
11
140.611
21
-139.447
0
LINE
8
BLACK
6
CONTINUOUS
10
144.04
20
-140.447
11
144.04
21
-137.447
0
LINE
8
BLACK
6
CONTINUOUS
10
145.326
20
-140.447
11
145.326
21
-138.876
0
LINE
8
BLACK
6
CONTINUOUS
10
145.326
20
-138.876
11
145.183
21
-138.59
0
LINE
8
BLACK
6
CONTINUOUS
10
145.183
20
-138.59
11
144.897
21
-138.447
0
LINE
8
BLACK
6
CONTINUOUS
10
144.897
20
-138.447
11
144.469
21
-138.447
0
LINE
8
BLACK
6
CONTINUOUS
10
144.469
20
-138.447
11
144.183
21
-138.59
0
LINE
8
BLACK
6
CONTINUOUS
10
144.183
20
-138.59
11
144.04
21
-138.733
0
LINE
8
BLACK
6
CONTINUOUS
10
147.183
20
-140.447
11
146.897
21
-140.304
0
LINE
8
BLACK
6
CONTINUOUS
10
146.897
20
-140.304
11
146.754
21
-140.161
0
LINE
8
BLACK
6
CONTINUOUS
10
146.754
20
-140.161
11
146.611
21
-139.876
0
LINE
8
BLACK
6
CONTINUOUS
10
146.611
20
-139.876
11
146.611
21
-139.019
0
LINE
8
BLACK
6
CONTINUOUS
10
146.611
20
-139.019
11
146.754
21
-138.733
0
LINE
8
BLACK
6
CONTINUOUS
10
146.754
20
-138.733
11
146.897
21
-138.59
0
LINE
8
BLACK
6
CONTINUOUS
10
146.897
20
-138.59
11
147.183
21
-138.447
0
LINE
8
BLACK
6
CONTINUOUS
10
147.183
20
-138.447
11
147.611
21
-138.447
0
LINE
8
BLACK
6
CONTINUOUS
10
147.611
20
-138.447
11
147.897
21
-138.59
0
LINE
8
BLACK
6
CONTINUOUS
10
147.897
20
-138.59
11
148.04
21
-138.733
0
LINE
8
BLACK
6
CONTINUOUS
10
148.04
20
-138.733
11
148.183
21
-139.019
0
LINE
8
BLACK
6
CONTINUOUS
10
148.183
20
-139.019
11
148.183
21
-139.876
0
LINE
8
BLACK
6
CONTINUOUS
10
148.183
20
-139.876
11
148.04
21
-140.161
0
LINE
8
BLACK
6
CONTINUOUS
10
148.04
20
-140.161
11
147.897
21
-140.304
0
LINE
8
BLACK
6
CONTINUOUS
10
147.897
20
-140.304
11
147.611
21
-140.447
0
LINE
8
BLACK
6
CONTINUOUS
10
147.611
20
-140.447
11
147.183
21
-140.447
0
LINE
8
BLACK
6
CONTINUOUS
10
149.897
20
-140.447
11
149.611
21
-140.304
0
LINE
8
BLACK
6
CONTINUOUS
10
149.611
20
-140.304
11
149.469
21
-140.019
0
LINE
8
BLACK
6
CONTINUOUS
10
149.469
20
-140.019
11
149.469
21
-137.447
0
LINE
8
BLACK
6
CONTINUOUS
10
152.183
20
-140.304
11
151.897
21
-140.447
0
LINE
8
BLACK
6
CONTINUOUS
10
151.897
20
-140.447
11
151.326
21
-140.447
0
LINE
8
BLACK
6
CONTINUOUS
10
151.326
20
-140.447
11
151.04
21
-140.304
0
LINE
8
BLACK
6
CONTINUOUS
10
151.04
20
-140.304
11
150.897
21
-140.019
0
LINE
8
BLACK
6
CONTINUOUS
10
150.897
20
-140.019
11
150.897
21
-138.876
0
LINE
8
BLACK
6
CONTINUOUS
10
150.897
20
-138.876
11
151.04
21
-138.59
0
LINE
8
BLACK
6
CONTINUOUS
10
151.04
20
-138.59
11
151.326
21
-138.447
0
LINE
8
BLACK
6
CONTINUOUS
10
151.326
20
-138.447
11
151.897
21
-138.447
0
LINE
8
BLACK
6
CONTINUOUS
10
151.897
20
-138.447
11
152.183
21
-138.59
0
LINE
8
BLACK
6
CONTINUOUS
10
152.183
20
-138.59
11
152.326
21
-138.876
0
LINE
8
BLACK
6
CONTINUOUS
10
152.326
20
-138.876
11
152.326
21
-139.161
0
LINE
8
BLACK
6
CONTINUOUS
10
152.326
20
-139.161
11
150.897
21
-139.447
0
LINE
8
BLACK
6
CONTINUOUS
10
153.469
20
-140.304
11
153.754
21
-140.447
0
LINE
8
BLACK
6
CONTINUOUS
10
153.754
20
-140.447
11
154.326
21
-140.447
0
LINE
8
BLACK
6
CONTINUOUS
10
154.326
20
-140.447
11
154.611
21
-140.304
0
LINE
8
BLACK
6
CONTINUOUS
10
154.611
20
-140.304
11
154.754
21
-140.019
0
LINE
8
BLACK
6
CONTINUOUS
10
154.754
20
-140.019
11
154.754
21
-139.876
0
LINE
8
BLACK
6
CONTINUOUS
10
154.754
20
-139.876
11
154.611
21
-139.59
0
LINE
8
BLACK
6
CONTINUOUS
10
154.611
20
-139.59
11
154.326
21
-139.447
0
LINE
8
BLACK
6
CONTINUOUS
10
154.326
20
-139.447
11
153.897
21
-139.447
0
LINE
8
BLACK
6
CONTINUOUS
10
153.897
20
-139.447
11
153.611
21
-139.304
0
LINE
8
BLACK
6
CONTINUOUS
10
153.611
20
-139.304
11
153.469
21
-139.019
0
LINE
8
BLACK
6
CONTINUOUS
10
153.469
20
-139.019
11
153.469
21
-138.876
0
LINE
8
BLACK
6
CONTINUOUS
10
153.469
20
-138.876
11
153.611
21
-138.59
0
LINE
8
BLACK
6
CONTINUOUS
10
153.611
20
-138.59
11
153.897
21
-138.447
0
LINE
8
BLACK
6
CONTINUOUS
10
153.897
20
-138.447
11
154.326
21
-138.447
0
LINE
8
BLACK
6
CONTINUOUS
10
154.326
20
-138.447
11
154.611
21
-138.59
0
LINE
8
BLACK
6
CONTINUOUS
10
155.754
20
-141.59
11
155.897
21
-141.447
0
LINE
8
BLACK
6
CONTINUOUS
10
155.897
20
-141.447
11
156.183
21
-141.019
0
LINE
8
BLACK
6
CONTINUOUS
10
156.183
20
-141.019
11
156.326
21
-140.733
0
LINE
8
BLACK
6
CONTINUOUS
10
156.326
20
-140.733
11
156.469
21
-140.304
0
LINE
8
BLACK
6
CONTINUOUS
10
156.469
20
-140.304
11
156.611
21
-139.59
0
LINE
8
BLACK
6
CONTINUOUS
10
156.611
20
-139.59
11
156.611
21
-139.019
0
LINE
8
BLACK
6
CONTINUOUS
10
156.611
20
-139.019
11
156.469
21
-138.304
0
LINE
8
BLACK
6
CONTINUOUS
10
156.469
20
-138.304
11
156.326
21
-137.876
0
LINE
8
BLACK
6
CONTINUOUS
10
156.326
20
-137.876
11
156.183
21
-137.59
0
LINE
8
BLACK
6
CONTINUOUS
10
156.183
20
-137.59
11
155.897
21
-137.161
0
LINE
8
BLACK
6
CONTINUOUS
10
155.897
20
-137.161
11
155.754
21
-137.019
  0
ENDSEC
  0
EOF
