  0
SECTION
  2
HEADER
  9
$ANGBASE
  50
0.0
  9
$ANGDIR
  70
1
  9
$MEASUREMENT
  70
0
  0
ENDSEC
  0
SECTION
  2
TABLES
  0
TABLE
  2
LTYPE
  70
4
  0
LTYPE
  5
40F
  2
CONTINUOUS
  70
0
  3
Solid line
  72
65
  73
0
  40
0.0
  0
LTYPE
  5
410
  2
DASHDOT
 70
0
  3
Dash Dot ____ _ ____ _
 72
65
 73
4
 40
2.0
 49
1.25
 49
-0.25
 49
0.25
 49
-0.25
  0
LTYPE
  5
411
  2
DASHED
 70
0
  3
Dashed __ __ __ __ __
 72
65
 73
2
 40
0.75
 49
0.5
 49
-0.25
  0
LTYPE
  5
43B
  2
DOTTED
 70
0
  3
Dotted .  .  .  .
 72
65
 73
2
 40
0.2
 49
0.0
 49
-0.2
  0
ENDTAB
  0
TABLE
  2
STYLE
  70
4
  0
STYLE
  2
KICAD
  70
0
  40
0
  41
1
  42
1
  50
0
  71
0
  3
isocp.shx
  0
STYLE
  2
KICADB
  70
0
  40
0
  41
1
  42
1
  50
0
  71
0
  3
isocp.shx
  0
STYLE
  2
KICADI
  70
0
  40
0
  41
1
  42
1
  50
15
  71
0
  3
isocp.shx
  0
STYLE
  2
KICADBI
  70
0
  40
0
  41
1
  42
1
  50
15
  71
0
  3
isocp.shx
  0
ENDTAB
  0
TABLE
  2
LAYER
  70
1
  0
LAYER
  2
BLACK
  70
0
  62
7
  6
CONTINUOUS
  0
ENDTAB
  0
ENDSEC
  0
SECTION
  2
ENTITIES
0
LINE
8
BLACK
6
CONTINUOUS
10
6.91998
20
-4.03134
11
6.95653
21
-4.04647
0
LINE
8
BLACK
6
CONTINUOUS
10
6.95653
20
-4.04647
11
6.98941
21
-4.06845
0
LINE
8
BLACK
6
CONTINUOUS
10
6.98941
20
-4.06845
11
7.01738
21
-4.09641
0
LINE
8
BLACK
6
CONTINUOUS
10
7.01738
20
-4.09641
11
7.03935
21
-4.1293
0
LINE
8
BLACK
6
CONTINUOUS
10
7.03935
20
-4.1293
11
7.05449
21
-4.16584
0
LINE
8
BLACK
6
CONTINUOUS
10
7.05449
20
-4.16584
11
7.0622
21
-4.20463
0
LINE
8
BLACK
6
CONTINUOUS
10
7.0622
20
-4.20463
11
7.0622
21
-4.24419
0
LINE
8
BLACK
6
CONTINUOUS
10
7.0622
20
-4.24419
11
7.05449
21
-4.28298
0
LINE
8
BLACK
6
CONTINUOUS
10
7.05449
20
-4.28298
11
7.03935
21
-4.31952
0
LINE
8
BLACK
6
CONTINUOUS
10
7.03935
20
-4.31952
11
7.01738
21
-4.3524
0
LINE
8
BLACK
6
CONTINUOUS
10
7.01738
20
-4.3524
11
6.98941
21
-4.38037
0
LINE
8
BLACK
6
CONTINUOUS
10
6.98941
20
-4.38037
11
6.95653
21
-4.40234
0
LINE
8
BLACK
6
CONTINUOUS
10
6.95653
20
-4.40234
11
6.91998
21
-4.41748
0
LINE
8
BLACK
6
CONTINUOUS
10
6.91998
20
-4.41748
11
6.88119
21
-4.4252
0
LINE
8
BLACK
6
CONTINUOUS
10
6.88119
20
-4.4252
11
6.84164
21
-4.4252
0
LINE
8
BLACK
6
CONTINUOUS
10
6.84164
20
-4.4252
11
6.80285
21
-4.41748
0
LINE
8
BLACK
6
CONTINUOUS
10
6.80285
20
-4.41748
11
6.76631
21
-4.40234
0
LINE
8
BLACK
6
CONTINUOUS
10
6.76631
20
-4.40234
11
6.73342
21
-4.38037
0
LINE
8
BLACK
6
CONTINUOUS
10
6.73342
20
-4.38037
11
6.70546
21
-4.3524
0
LINE
8
BLACK
6
CONTINUOUS
10
6.70546
20
-4.3524
11
6.68348
21
-4.31952
0
LINE
8
BLACK
6
CONTINUOUS
10
6.68348
20
-4.31952
11
6.66835
21
-4.28298
0
LINE
8
BLACK
6
CONTINUOUS
10
6.66835
20
-4.28298
11
6.66063
21
-4.24419
0
LINE
8
BLACK
6
CONTINUOUS
10
6.66063
20
-4.24419
11
6.66063
21
-4.20463
0
LINE
8
BLACK
6
CONTINUOUS
10
6.66063
20
-4.20463
11
6.66835
21
-4.16584
0
LINE
8
BLACK
6
CONTINUOUS
10
6.66835
20
-4.16584
11
6.68348
21
-4.1293
0
LINE
8
BLACK
6
CONTINUOUS
10
6.68348
20
-4.1293
11
6.70546
21
-4.09641
0
LINE
8
BLACK
6
CONTINUOUS
10
6.70546
20
-4.09641
11
6.73342
21
-4.06845
0
LINE
8
BLACK
6
CONTINUOUS
10
6.73342
20
-4.06845
11
6.76631
21
-4.04647
0
LINE
8
BLACK
6
CONTINUOUS
10
6.76631
20
-4.04647
11
6.80285
21
-4.03134
0
LINE
8
BLACK
6
CONTINUOUS
10
6.80285
20
-4.03134
11
6.84164
21
-4.02362
0
LINE
8
BLACK
6
CONTINUOUS
10
6.84164
20
-4.02362
11
6.88119
21
-4.02362
0
LINE
8
BLACK
6
CONTINUOUS
10
6.88119
20
-4.02362
11
6.91998
21
-4.03134
0
LINE
8
BLACK
6
CONTINUOUS
10
3.87883
20
-4.41128
11
3.84734
21
-4.41128
0
LINE
8
BLACK
6
CONTINUOUS
10
3.84734
20
-4.41128
11
3.84734
21
-4.38176
0
LINE
8
BLACK
6
CONTINUOUS
10
3.84734
20
-4.38176
11
3.87883
21
-4.38176
0
LINE
8
BLACK
6
CONTINUOUS
10
3.87883
20
-4.38176
11
3.87883
21
-4.41128
0
LINE
8
BLACK
6
CONTINUOUS
10
3.9748
20
-4.40636
11
3.93937
21
-4.40636
0
LINE
8
BLACK
6
CONTINUOUS
10
3.93937
20
-4.40636
11
3.93937
21
-4.38668
0
LINE
8
BLACK
6
CONTINUOUS
10
3.93937
20
-4.38668
11
3.9748
21
-4.38668
0
LINE
8
BLACK
6
CONTINUOUS
10
3.9748
20
-4.38668
11
3.9748
21
-4.40636
0
LINE
8
BLACK
6
CONTINUOUS
10
3.79573
20
-4.39246
11
3.7603
21
-4.39246
0
LINE
8
BLACK
6
CONTINUOUS
10
3.7603
20
-4.39246
11
3.7603
21
-4.32553
0
LINE
8
BLACK
6
CONTINUOUS
10
3.7603
20
-4.32553
11
3.79573
21
-4.32553
0
LINE
8
BLACK
6
CONTINUOUS
10
3.79573
20
-4.32553
11
3.79573
21
-4.39246
0
LINE
8
BLACK
6
CONTINUOUS
10
3.66187
20
-4.39246
11
3.62644
21
-4.39246
0
LINE
8
BLACK
6
CONTINUOUS
10
3.62644
20
-4.39246
11
3.62644
21
-4.32553
0
LINE
8
BLACK
6
CONTINUOUS
10
3.62644
20
-4.32553
11
3.66187
21
-4.32553
0
LINE
8
BLACK
6
CONTINUOUS
10
3.66187
20
-4.32553
11
3.66187
21
-4.39246
0
LINE
8
BLACK
6
CONTINUOUS
10
3.87883
20
-4.35223
11
3.84734
21
-4.35223
0
LINE
8
BLACK
6
CONTINUOUS
10
3.84734
20
-4.35223
11
3.84734
21
-4.3227
0
LINE
8
BLACK
6
CONTINUOUS
10
3.84734
20
-4.3227
11
3.87883
21
-4.3227
0
LINE
8
BLACK
6
CONTINUOUS
10
3.87883
20
-4.3227
11
3.87883
21
-4.35223
0
LINE
8
BLACK
6
CONTINUOUS
10
3.9748
20
-4.34731
11
3.93937
21
-4.34731
0
LINE
8
BLACK
6
CONTINUOUS
10
3.93937
20
-4.34731
11
3.93937
21
-4.32762
0
LINE
8
BLACK
6
CONTINUOUS
10
3.93937
20
-4.32762
11
3.9748
21
-4.32762
0
LINE
8
BLACK
6
CONTINUOUS
10
3.9748
20
-4.32762
11
3.9748
21
-4.34731
0
LINE
8
BLACK
6
CONTINUOUS
10
6.61142
20
-4.34449
11
6.51299
21
-4.30512
0
LINE
8
BLACK
6
CONTINUOUS
10
6.51299
20
-4.30512
11
6.51299
21
-4.1437
0
LINE
8
BLACK
6
CONTINUOUS
10
6.51299
20
-4.1437
11
6.61142
21
-4.10433
0
LINE
8
BLACK
6
CONTINUOUS
10
6.61142
20
-4.10433
11
6.61142
21
-4.34449
0
LINE
8
BLACK
6
CONTINUOUS
10
7.20984
20
-4.1437
11
7.20984
21
-4.30512
0
LINE
8
BLACK
6
CONTINUOUS
10
7.20984
20
-4.30512
11
7.11142
21
-4.34449
0
LINE
8
BLACK
6
CONTINUOUS
10
7.11142
20
-4.34449
11
7.11142
21
-4.10433
0
LINE
8
BLACK
6
CONTINUOUS
10
7.11142
20
-4.10433
11
7.20984
21
-4.1437
0
LINE
8
BLACK
6
CONTINUOUS
10
3.9748
20
-4.27736
11
3.93937
21
-4.27736
0
LINE
8
BLACK
6
CONTINUOUS
10
3.93937
20
-4.27736
11
3.93937
21
-4.25768
0
LINE
8
BLACK
6
CONTINUOUS
10
3.93937
20
-4.25768
11
3.9748
21
-4.25768
0
LINE
8
BLACK
6
CONTINUOUS
10
3.9748
20
-4.25768
11
3.9748
21
-4.27736
0
LINE
8
BLACK
6
CONTINUOUS
10
6.44291
20
-4.2685
11
6.37205
21
-4.2685
0
LINE
8
BLACK
6
CONTINUOUS
10
6.37205
20
-4.2685
11
6.37205
21
-4.22913
0
LINE
8
BLACK
6
CONTINUOUS
10
6.37205
20
-4.22913
11
6.44291
21
-4.22913
0
LINE
8
BLACK
6
CONTINUOUS
10
6.44291
20
-4.22913
11
6.44291
21
-4.2685
0
LINE
8
BLACK
6
CONTINUOUS
10
5.19331
20
-4.25039
11
5.13425
21
-4.25039
0
LINE
8
BLACK
6
CONTINUOUS
10
5.13425
20
-4.25039
11
5.13425
21
-4.22677
0
LINE
8
BLACK
6
CONTINUOUS
10
5.13425
20
-4.22677
11
5.19331
21
-4.22677
0
LINE
8
BLACK
6
CONTINUOUS
10
5.19331
20
-4.22677
11
5.19331
21
-4.25039
0
LINE
8
BLACK
6
CONTINUOUS
10
5.40591
20
-4.25039
11
5.34685
21
-4.25039
0
LINE
8
BLACK
6
CONTINUOUS
10
5.34685
20
-4.25039
11
5.34685
21
-4.22677
0
LINE
8
BLACK
6
CONTINUOUS
10
5.34685
20
-4.22677
11
5.40591
21
-4.22677
0
LINE
8
BLACK
6
CONTINUOUS
10
5.40591
20
-4.22677
11
5.40591
21
-4.25039
0
LINE
8
BLACK
6
CONTINUOUS
10
3.9748
20
-4.21831
11
3.93937
21
-4.21831
0
LINE
8
BLACK
6
CONTINUOUS
10
3.93937
20
-4.21831
11
3.93937
21
-4.19862
0
LINE
8
BLACK
6
CONTINUOUS
10
3.93937
20
-4.19862
11
3.9748
21
-4.19862
0
LINE
8
BLACK
6
CONTINUOUS
10
3.9748
20
-4.19862
11
3.9748
21
-4.21831
0
LINE
8
BLACK
6
CONTINUOUS
10
4.53109
20
-4.21457
11
4.50157
21
-4.21457
0
LINE
8
BLACK
6
CONTINUOUS
10
4.50157
20
-4.21457
11
4.50157
21
-4.18308
0
LINE
8
BLACK
6
CONTINUOUS
10
4.50157
20
-4.18308
11
4.53109
21
-4.18308
0
LINE
8
BLACK
6
CONTINUOUS
10
4.53109
20
-4.18308
11
4.53109
21
-4.21457
0
LINE
8
BLACK
6
CONTINUOUS
10
4.71535
20
-4.21457
11
4.68582
21
-4.21457
0
LINE
8
BLACK
6
CONTINUOUS
10
4.68582
20
-4.21457
11
4.68582
21
-4.18308
0
LINE
8
BLACK
6
CONTINUOUS
10
4.68582
20
-4.18308
11
4.71535
21
-4.18308
0
LINE
8
BLACK
6
CONTINUOUS
10
4.71535
20
-4.18308
11
4.71535
21
-4.21457
0
LINE
8
BLACK
6
CONTINUOUS
10
4.8996
20
-4.21457
11
4.87007
21
-4.21457
0
LINE
8
BLACK
6
CONTINUOUS
10
4.87007
20
-4.21457
11
4.87007
21
-4.18308
0
LINE
8
BLACK
6
CONTINUOUS
10
4.87007
20
-4.18308
11
4.8996
21
-4.18308
0
LINE
8
BLACK
6
CONTINUOUS
10
4.8996
20
-4.18308
11
4.8996
21
-4.21457
0
LINE
8
BLACK
6
CONTINUOUS
10
6.32067
20
-4.21122
11
6.25965
21
-4.21122
0
LINE
8
BLACK
6
CONTINUOUS
10
6.25965
20
-4.21122
11
6.25965
21
-4.1876
0
LINE
8
BLACK
6
CONTINUOUS
10
6.25965
20
-4.1876
11
6.32067
21
-4.1876
0
LINE
8
BLACK
6
CONTINUOUS
10
6.32067
20
-4.1876
11
6.32067
21
-4.21122
0
LINE
8
BLACK
6
CONTINUOUS
10
6.10807
20
-4.21122
11
6.04705
21
-4.21122
0
LINE
8
BLACK
6
CONTINUOUS
10
6.04705
20
-4.21122
11
6.04705
21
-4.1876
0
LINE
8
BLACK
6
CONTINUOUS
10
6.04705
20
-4.1876
11
6.10807
21
-4.1876
0
LINE
8
BLACK
6
CONTINUOUS
10
6.10807
20
-4.1876
11
6.10807
21
-4.21122
0
LINE
8
BLACK
6
CONTINUOUS
10
4.81043
20
-4.20867
11
4.77499
21
-4.20867
0
LINE
8
BLACK
6
CONTINUOUS
10
4.77499
20
-4.20867
11
4.77499
21
-4.18898
0
LINE
8
BLACK
6
CONTINUOUS
10
4.77499
20
-4.18898
11
4.81043
21
-4.18898
0
LINE
8
BLACK
6
CONTINUOUS
10
4.81043
20
-4.18898
11
4.81043
21
-4.20867
0
LINE
8
BLACK
6
CONTINUOUS
10
4.62617
20
-4.20867
11
4.59074
21
-4.20867
0
LINE
8
BLACK
6
CONTINUOUS
10
4.59074
20
-4.20867
11
4.59074
21
-4.18898
0
LINE
8
BLACK
6
CONTINUOUS
10
4.59074
20
-4.18898
11
4.62617
21
-4.18898
0
LINE
8
BLACK
6
CONTINUOUS
10
4.62617
20
-4.18898
11
4.62617
21
-4.20867
0
LINE
8
BLACK
6
CONTINUOUS
10
5.0868
20
-4.20867
11
5.05137
21
-4.20867
0
LINE
8
BLACK
6
CONTINUOUS
10
5.05137
20
-4.20867
11
5.05137
21
-4.18898
0
LINE
8
BLACK
6
CONTINUOUS
10
5.05137
20
-4.18898
11
5.0868
21
-4.18898
0
LINE
8
BLACK
6
CONTINUOUS
10
5.0868
20
-4.18898
11
5.0868
21
-4.20867
0
LINE
8
BLACK
6
CONTINUOUS
10
4.25767
20
-4.20867
11
4.22224
21
-4.20867
0
LINE
8
BLACK
6
CONTINUOUS
10
4.22224
20
-4.20867
11
4.22224
21
-4.18898
0
LINE
8
BLACK
6
CONTINUOUS
10
4.22224
20
-4.18898
11
4.25767
21
-4.18898
0
LINE
8
BLACK
6
CONTINUOUS
10
4.25767
20
-4.18898
11
4.25767
21
-4.20867
0
LINE
8
BLACK
6
CONTINUOUS
10
4.99468
20
-4.20867
11
4.95924
21
-4.20867
0
LINE
8
BLACK
6
CONTINUOUS
10
4.95924
20
-4.20867
11
4.95924
21
-4.18898
0
LINE
8
BLACK
6
CONTINUOUS
10
4.95924
20
-4.18898
11
4.99468
21
-4.18898
0
LINE
8
BLACK
6
CONTINUOUS
10
4.99468
20
-4.18898
11
4.99468
21
-4.20867
0
LINE
8
BLACK
6
CONTINUOUS
10
4.44192
20
-4.20867
11
4.40649
21
-4.20867
0
LINE
8
BLACK
6
CONTINUOUS
10
4.40649
20
-4.20867
11
4.40649
21
-4.18898
0
LINE
8
BLACK
6
CONTINUOUS
10
4.40649
20
-4.18898
11
4.44192
21
-4.18898
0
LINE
8
BLACK
6
CONTINUOUS
10
4.44192
20
-4.18898
11
4.44192
21
-4.20867
0
LINE
8
BLACK
6
CONTINUOUS
10
4.3498
20
-4.20867
11
4.31436
21
-4.20867
0
LINE
8
BLACK
6
CONTINUOUS
10
4.31436
20
-4.20867
11
4.31436
21
-4.18898
0
LINE
8
BLACK
6
CONTINUOUS
10
4.31436
20
-4.18898
11
4.3498
21
-4.18898
0
LINE
8
BLACK
6
CONTINUOUS
10
4.3498
20
-4.18898
11
4.3498
21
-4.20867
0
LINE
8
BLACK
6
CONTINUOUS
10
5.40591
20
-4.20039
11
5.34685
21
-4.20039
0
LINE
8
BLACK
6
CONTINUOUS
10
5.34685
20
-4.20039
11
5.34685
21
-4.17677
0
LINE
8
BLACK
6
CONTINUOUS
10
5.34685
20
-4.17677
11
5.40591
21
-4.17677
0
LINE
8
BLACK
6
CONTINUOUS
10
5.40591
20
-4.17677
11
5.40591
21
-4.20039
0
LINE
8
BLACK
6
CONTINUOUS
10
5.19331
20
-4.20039
11
5.13425
21
-4.20039
0
LINE
8
BLACK
6
CONTINUOUS
10
5.13425
20
-4.20039
11
5.13425
21
-4.17677
0
LINE
8
BLACK
6
CONTINUOUS
10
5.13425
20
-4.17677
11
5.19331
21
-4.17677
0
LINE
8
BLACK
6
CONTINUOUS
10
5.19331
20
-4.17677
11
5.19331
21
-4.20039
0
LINE
8
BLACK
6
CONTINUOUS
10
6.44291
20
-4.17008
11
6.37205
21
-4.17008
0
LINE
8
BLACK
6
CONTINUOUS
10
6.37205
20
-4.17008
11
6.37205
21
-4.13071
0
LINE
8
BLACK
6
CONTINUOUS
10
6.37205
20
-4.13071
11
6.44291
21
-4.13071
0
LINE
8
BLACK
6
CONTINUOUS
10
6.44291
20
-4.13071
11
6.44291
21
-4.17008
0
LINE
8
BLACK
6
CONTINUOUS
10
6.10807
20
-4.16122
11
6.04705
21
-4.16122
0
LINE
8
BLACK
6
CONTINUOUS
10
6.04705
20
-4.16122
11
6.04705
21
-4.1376
0
LINE
8
BLACK
6
CONTINUOUS
10
6.04705
20
-4.1376
11
6.10807
21
-4.1376
0
LINE
8
BLACK
6
CONTINUOUS
10
6.10807
20
-4.1376
11
6.10807
21
-4.16122
0
LINE
8
BLACK
6
CONTINUOUS
10
6.32067
20
-4.16122
11
6.25965
21
-4.16122
0
LINE
8
BLACK
6
CONTINUOUS
10
6.25965
20
-4.16122
11
6.25965
21
-4.1376
0
LINE
8
BLACK
6
CONTINUOUS
10
6.25965
20
-4.1376
11
6.32067
21
-4.1376
0
LINE
8
BLACK
6
CONTINUOUS
10
6.32067
20
-4.1376
11
6.32067
21
-4.16122
0
LINE
8
BLACK
6
CONTINUOUS
10
4.53109
20
-4.15552
11
4.50157
21
-4.15552
0
LINE
8
BLACK
6
CONTINUOUS
10
4.50157
20
-4.15552
11
4.50157
21
-4.12402
0
LINE
8
BLACK
6
CONTINUOUS
10
4.50157
20
-4.12402
11
4.53109
21
-4.12402
0
LINE
8
BLACK
6
CONTINUOUS
10
4.53109
20
-4.12402
11
4.53109
21
-4.15552
0
LINE
8
BLACK
6
CONTINUOUS
10
4.71535
20
-4.15552
11
4.68582
21
-4.15552
0
LINE
8
BLACK
6
CONTINUOUS
10
4.68582
20
-4.15552
11
4.68582
21
-4.12402
0
LINE
8
BLACK
6
CONTINUOUS
10
4.68582
20
-4.12402
11
4.71535
21
-4.12402
0
LINE
8
BLACK
6
CONTINUOUS
10
4.71535
20
-4.12402
11
4.71535
21
-4.15552
0
LINE
8
BLACK
6
CONTINUOUS
10
4.8996
20
-4.15552
11
4.87007
21
-4.15552
0
LINE
8
BLACK
6
CONTINUOUS
10
4.87007
20
-4.15552
11
4.87007
21
-4.12402
0
LINE
8
BLACK
6
CONTINUOUS
10
4.87007
20
-4.12402
11
4.8996
21
-4.12402
0
LINE
8
BLACK
6
CONTINUOUS
10
4.8996
20
-4.12402
11
4.8996
21
-4.15552
0
LINE
8
BLACK
6
CONTINUOUS
10
5.19331
20
-4.15039
11
5.13425
21
-4.15039
0
LINE
8
BLACK
6
CONTINUOUS
10
5.13425
20
-4.15039
11
5.13425
21
-4.12677
0
LINE
8
BLACK
6
CONTINUOUS
10
5.13425
20
-4.12677
11
5.19331
21
-4.12677
0
LINE
8
BLACK
6
CONTINUOUS
10
5.19331
20
-4.12677
11
5.19331
21
-4.15039
0
LINE
8
BLACK
6
CONTINUOUS
10
5.40591
20
-4.15039
11
5.34685
21
-4.15039
0
LINE
8
BLACK
6
CONTINUOUS
10
5.34685
20
-4.15039
11
5.34685
21
-4.12677
0
LINE
8
BLACK
6
CONTINUOUS
10
5.34685
20
-4.12677
11
5.40591
21
-4.12677
0
LINE
8
BLACK
6
CONTINUOUS
10
5.40591
20
-4.12677
11
5.40591
21
-4.15039
0
LINE
8
BLACK
6
CONTINUOUS
10
4.3498
20
-4.14961
11
4.31436
21
-4.14961
0
LINE
8
BLACK
6
CONTINUOUS
10
4.31436
20
-4.14961
11
4.31436
21
-4.12993
0
LINE
8
BLACK
6
CONTINUOUS
10
4.31436
20
-4.12993
11
4.3498
21
-4.12993
0
LINE
8
BLACK
6
CONTINUOUS
10
4.3498
20
-4.12993
11
4.3498
21
-4.14961
0
LINE
8
BLACK
6
CONTINUOUS
10
4.81043
20
-4.14961
11
4.77499
21
-4.14961
0
LINE
8
BLACK
6
CONTINUOUS
10
4.77499
20
-4.14961
11
4.77499
21
-4.12993
0
LINE
8
BLACK
6
CONTINUOUS
10
4.77499
20
-4.12993
11
4.81043
21
-4.12993
0
LINE
8
BLACK
6
CONTINUOUS
10
4.81043
20
-4.12993
11
4.81043
21
-4.14961
0
LINE
8
BLACK
6
CONTINUOUS
10
4.62617
20
-4.14961
11
4.59074
21
-4.14961
0
LINE
8
BLACK
6
CONTINUOUS
10
4.59074
20
-4.14961
11
4.59074
21
-4.12993
0
LINE
8
BLACK
6
CONTINUOUS
10
4.59074
20
-4.12993
11
4.62617
21
-4.12993
0
LINE
8
BLACK
6
CONTINUOUS
10
4.62617
20
-4.12993
11
4.62617
21
-4.14961
0
LINE
8
BLACK
6
CONTINUOUS
10
5.0868
20
-4.14961
11
5.05137
21
-4.14961
0
LINE
8
BLACK
6
CONTINUOUS
10
5.05137
20
-4.14961
11
5.05137
21
-4.12993
0
LINE
8
BLACK
6
CONTINUOUS
10
5.05137
20
-4.12993
11
5.0868
21
-4.12993
0
LINE
8
BLACK
6
CONTINUOUS
10
5.0868
20
-4.12993
11
5.0868
21
-4.14961
0
LINE
8
BLACK
6
CONTINUOUS
10
4.25767
20
-4.14961
11
4.22224
21
-4.14961
0
LINE
8
BLACK
6
CONTINUOUS
10
4.22224
20
-4.14961
11
4.22224
21
-4.12993
0
LINE
8
BLACK
6
CONTINUOUS
10
4.22224
20
-4.12993
11
4.25767
21
-4.12993
0
LINE
8
BLACK
6
CONTINUOUS
10
4.25767
20
-4.12993
11
4.25767
21
-4.14961
0
LINE
8
BLACK
6
CONTINUOUS
10
4.99468
20
-4.14961
11
4.95924
21
-4.14961
0
LINE
8
BLACK
6
CONTINUOUS
10
4.95924
20
-4.14961
11
4.95924
21
-4.12993
0
LINE
8
BLACK
6
CONTINUOUS
10
4.95924
20
-4.12993
11
4.99468
21
-4.12993
0
LINE
8
BLACK
6
CONTINUOUS
10
4.99468
20
-4.12993
11
4.99468
21
-4.14961
0
LINE
8
BLACK
6
CONTINUOUS
10
4.44192
20
-4.14961
11
4.40649
21
-4.14961
0
LINE
8
BLACK
6
CONTINUOUS
10
4.40649
20
-4.14961
11
4.40649
21
-4.12993
0
LINE
8
BLACK
6
CONTINUOUS
10
4.40649
20
-4.12993
11
4.44192
21
-4.12993
0
LINE
8
BLACK
6
CONTINUOUS
10
4.44192
20
-4.12993
11
4.44192
21
-4.14961
0
LINE
8
BLACK
6
CONTINUOUS
10
6.10807
20
-4.11122
11
6.04705
21
-4.11122
0
LINE
8
BLACK
6
CONTINUOUS
10
6.04705
20
-4.11122
11
6.04705
21
-4.0876
0
LINE
8
BLACK
6
CONTINUOUS
10
6.04705
20
-4.0876
11
6.10807
21
-4.0876
0
LINE
8
BLACK
6
CONTINUOUS
10
6.10807
20
-4.0876
11
6.10807
21
-4.11122
0
LINE
8
BLACK
6
CONTINUOUS
10
6.32067
20
-4.11122
11
6.25965
21
-4.11122
0
LINE
8
BLACK
6
CONTINUOUS
10
6.25965
20
-4.11122
11
6.25965
21
-4.0876
0
LINE
8
BLACK
6
CONTINUOUS
10
6.25965
20
-4.0876
11
6.32067
21
-4.0876
0
LINE
8
BLACK
6
CONTINUOUS
10
6.32067
20
-4.0876
11
6.32067
21
-4.11122
0
LINE
8
BLACK
6
CONTINUOUS
10
5.19331
20
-4.10039
11
5.13425
21
-4.10039
0
LINE
8
BLACK
6
CONTINUOUS
10
5.13425
20
-4.10039
11
5.13425
21
-4.07677
0
LINE
8
BLACK
6
CONTINUOUS
10
5.13425
20
-4.07677
11
5.19331
21
-4.07677
0
LINE
8
BLACK
6
CONTINUOUS
10
5.19331
20
-4.07677
11
5.19331
21
-4.10039
0
LINE
8
BLACK
6
CONTINUOUS
10
5.40591
20
-4.10039
11
5.34685
21
-4.10039
0
LINE
8
BLACK
6
CONTINUOUS
10
5.34685
20
-4.10039
11
5.34685
21
-4.07677
0
LINE
8
BLACK
6
CONTINUOUS
10
5.34685
20
-4.07677
11
5.40591
21
-4.07677
0
LINE
8
BLACK
6
CONTINUOUS
10
5.40591
20
-4.07677
11
5.40591
21
-4.10039
0
LINE
8
BLACK
6
CONTINUOUS
10
4.83602
20
-4.07303
11
4.775
21
-4.07303
0
LINE
8
BLACK
6
CONTINUOUS
10
4.775
20
-4.07303
11
4.775
21
-4.04941
0
LINE
8
BLACK
6
CONTINUOUS
10
4.775
20
-4.04941
11
4.83602
21
-4.04941
0
LINE
8
BLACK
6
CONTINUOUS
10
4.83602
20
-4.04941
11
4.83602
21
-4.07303
0
LINE
8
BLACK
6
CONTINUOUS
10
4.62343
20
-4.07303
11
4.5624
21
-4.07303
0
LINE
8
BLACK
6
CONTINUOUS
10
4.5624
20
-4.07303
11
4.5624
21
-4.04941
0
LINE
8
BLACK
6
CONTINUOUS
10
4.5624
20
-4.04941
11
4.62343
21
-4.04941
0
LINE
8
BLACK
6
CONTINUOUS
10
4.62343
20
-4.04941
11
4.62343
21
-4.07303
0
LINE
8
BLACK
6
CONTINUOUS
10
6.10807
20
-4.06122
11
6.04705
21
-4.06122
0
LINE
8
BLACK
6
CONTINUOUS
10
6.04705
20
-4.06122
11
6.04705
21
-4.0376
0
LINE
8
BLACK
6
CONTINUOUS
10
6.04705
20
-4.0376
11
6.10807
21
-4.0376
0
LINE
8
BLACK
6
CONTINUOUS
10
6.10807
20
-4.0376
11
6.10807
21
-4.06122
0
LINE
8
BLACK
6
CONTINUOUS
10
6.32067
20
-4.06122
11
6.25965
21
-4.06122
0
LINE
8
BLACK
6
CONTINUOUS
10
6.25965
20
-4.06122
11
6.25965
21
-4.0376
0
LINE
8
BLACK
6
CONTINUOUS
10
6.25965
20
-4.0376
11
6.32067
21
-4.0376
0
LINE
8
BLACK
6
CONTINUOUS
10
6.32067
20
-4.0376
11
6.32067
21
-4.06122
0
LINE
8
BLACK
6
CONTINUOUS
10
4.99172
20
-4.06027
11
4.9622
21
-4.06027
0
LINE
8
BLACK
6
CONTINUOUS
10
4.9622
20
-4.06027
11
4.9622
21
-4.02877
0
LINE
8
BLACK
6
CONTINUOUS
10
4.9622
20
-4.02877
11
4.99172
21
-4.02877
0
LINE
8
BLACK
6
CONTINUOUS
10
4.99172
20
-4.02877
11
4.99172
21
-4.06027
0
LINE
8
BLACK
6
CONTINUOUS
10
5.08385
20
-4.06027
11
5.05432
21
-4.06027
0
LINE
8
BLACK
6
CONTINUOUS
10
5.05432
20
-4.06027
11
5.05432
21
-4.02877
0
LINE
8
BLACK
6
CONTINUOUS
10
5.05432
20
-4.02877
11
5.08385
21
-4.02877
0
LINE
8
BLACK
6
CONTINUOUS
10
5.08385
20
-4.02877
11
5.08385
21
-4.06027
0
LINE
8
BLACK
6
CONTINUOUS
10
4.43897
20
-4.06027
11
4.40944
21
-4.06027
0
LINE
8
BLACK
6
CONTINUOUS
10
4.40944
20
-4.06027
11
4.40944
21
-4.02877
0
LINE
8
BLACK
6
CONTINUOUS
10
4.40944
20
-4.02877
11
4.43897
21
-4.02877
0
LINE
8
BLACK
6
CONTINUOUS
10
4.43897
20
-4.02877
11
4.43897
21
-4.06027
0
LINE
8
BLACK
6
CONTINUOUS
10
4.25472
20
-4.05927
11
4.22519
21
-4.05927
0
LINE
8
BLACK
6
CONTINUOUS
10
4.22519
20
-4.05927
11
4.22519
21
-4.02777
0
LINE
8
BLACK
6
CONTINUOUS
10
4.22519
20
-4.02777
11
4.25472
21
-4.02777
0
LINE
8
BLACK
6
CONTINUOUS
10
4.25472
20
-4.02777
11
4.25472
21
-4.05927
0
LINE
8
BLACK
6
CONTINUOUS
10
4.3498
20
-4.05436
11
4.31436
21
-4.05436
0
LINE
8
BLACK
6
CONTINUOUS
10
4.31436
20
-4.05436
11
4.31436
21
-4.03468
0
LINE
8
BLACK
6
CONTINUOUS
10
4.31436
20
-4.03468
11
4.3498
21
-4.03468
0
LINE
8
BLACK
6
CONTINUOUS
10
4.3498
20
-4.03468
11
4.3498
21
-4.05436
0
LINE
8
BLACK
6
CONTINUOUS
10
5.40591
20
-4.05039
11
5.34685
21
-4.05039
0
LINE
8
BLACK
6
CONTINUOUS
10
5.34685
20
-4.05039
11
5.34685
21
-4.02677
0
LINE
8
BLACK
6
CONTINUOUS
10
5.34685
20
-4.02677
11
5.40591
21
-4.02677
0
LINE
8
BLACK
6
CONTINUOUS
10
5.40591
20
-4.02677
11
5.40591
21
-4.05039
0
LINE
8
BLACK
6
CONTINUOUS
10
5.19331
20
-4.05039
11
5.13425
21
-4.05039
0
LINE
8
BLACK
6
CONTINUOUS
10
5.13425
20
-4.05039
11
5.13425
21
-4.02677
0
LINE
8
BLACK
6
CONTINUOUS
10
5.13425
20
-4.02677
11
5.19331
21
-4.02677
0
LINE
8
BLACK
6
CONTINUOUS
10
5.19331
20
-4.02677
11
5.19331
21
-4.05039
0
LINE
8
BLACK
6
CONTINUOUS
10
4.62343
20
-4.02303
11
4.5624
21
-4.02303
0
LINE
8
BLACK
6
CONTINUOUS
10
4.5624
20
-4.02303
11
4.5624
21
-3.99941
0
LINE
8
BLACK
6
CONTINUOUS
10
4.5624
20
-3.99941
11
4.62343
21
-3.99941
0
LINE
8
BLACK
6
CONTINUOUS
10
4.62343
20
-3.99941
11
4.62343
21
-4.02303
0
LINE
8
BLACK
6
CONTINUOUS
10
4.83602
20
-4.02303
11
4.775
21
-4.02303
0
LINE
8
BLACK
6
CONTINUOUS
10
4.775
20
-4.02303
11
4.775
21
-3.99941
0
LINE
8
BLACK
6
CONTINUOUS
10
4.775
20
-3.99941
11
4.83602
21
-3.99941
0
LINE
8
BLACK
6
CONTINUOUS
10
4.83602
20
-3.99941
11
4.83602
21
-4.02303
0
LINE
8
BLACK
6
CONTINUOUS
10
5.90394
20
-4.0185
11
5.88425
21
-4.0185
0
LINE
8
BLACK
6
CONTINUOUS
10
5.88425
20
-4.0185
11
5.88425
21
-3.98307
0
LINE
8
BLACK
6
CONTINUOUS
10
5.88425
20
-3.98307
11
5.90394
21
-3.98307
0
LINE
8
BLACK
6
CONTINUOUS
10
5.90394
20
-3.98307
11
5.90394
21
-4.0185
0
LINE
8
BLACK
6
CONTINUOUS
10
5.84488
20
-4.0185
11
5.8252
21
-4.0185
0
LINE
8
BLACK
6
CONTINUOUS
10
5.8252
20
-4.0185
11
5.8252
21
-3.98307
0
LINE
8
BLACK
6
CONTINUOUS
10
5.8252
20
-3.98307
11
5.84488
21
-3.98307
0
LINE
8
BLACK
6
CONTINUOUS
10
5.84488
20
-3.98307
11
5.84488
21
-4.0185
0
LINE
8
BLACK
6
CONTINUOUS
10
4.99172
20
-4.00121
11
4.9622
21
-4.00121
0
LINE
8
BLACK
6
CONTINUOUS
10
4.9622
20
-4.00121
11
4.9622
21
-3.96972
0
LINE
8
BLACK
6
CONTINUOUS
10
4.9622
20
-3.96972
11
4.99172
21
-3.96972
0
LINE
8
BLACK
6
CONTINUOUS
10
4.99172
20
-3.96972
11
4.99172
21
-4.00121
0
LINE
8
BLACK
6
CONTINUOUS
10
4.43897
20
-4.00121
11
4.40944
21
-4.00121
0
LINE
8
BLACK
6
CONTINUOUS
10
4.40944
20
-4.00121
11
4.40944
21
-3.96972
0
LINE
8
BLACK
6
CONTINUOUS
10
4.40944
20
-3.96972
11
4.43897
21
-3.96972
0
LINE
8
BLACK
6
CONTINUOUS
10
4.43897
20
-3.96972
11
4.43897
21
-4.00121
0
LINE
8
BLACK
6
CONTINUOUS
10
5.08385
20
-4.00121
11
5.05432
21
-4.00121
0
LINE
8
BLACK
6
CONTINUOUS
10
5.05432
20
-4.00121
11
5.05432
21
-3.96972
0
LINE
8
BLACK
6
CONTINUOUS
10
5.05432
20
-3.96972
11
5.08385
21
-3.96972
0
LINE
8
BLACK
6
CONTINUOUS
10
5.08385
20
-3.96972
11
5.08385
21
-4.00121
0
LINE
8
BLACK
6
CONTINUOUS
10
5.40591
20
-4.00039
11
5.34685
21
-4.00039
0
LINE
8
BLACK
6
CONTINUOUS
10
5.34685
20
-4.00039
11
5.34685
21
-3.97677
0
LINE
8
BLACK
6
CONTINUOUS
10
5.34685
20
-3.97677
11
5.40591
21
-3.97677
0
LINE
8
BLACK
6
CONTINUOUS
10
5.40591
20
-3.97677
11
5.40591
21
-4.00039
0
LINE
8
BLACK
6
CONTINUOUS
10
5.19331
20
-4.00039
11
5.13425
21
-4.00039
0
LINE
8
BLACK
6
CONTINUOUS
10
5.13425
20
-4.00039
11
5.13425
21
-3.97677
0
LINE
8
BLACK
6
CONTINUOUS
10
5.13425
20
-3.97677
11
5.19331
21
-3.97677
0
LINE
8
BLACK
6
CONTINUOUS
10
5.19331
20
-3.97677
11
5.19331
21
-4.00039
0
LINE
8
BLACK
6
CONTINUOUS
10
4.25472
20
-4.00021
11
4.22519
21
-4.00021
0
LINE
8
BLACK
6
CONTINUOUS
10
4.22519
20
-4.00021
11
4.22519
21
-3.96872
0
LINE
8
BLACK
6
CONTINUOUS
10
4.22519
20
-3.96872
11
4.25472
21
-3.96872
0
LINE
8
BLACK
6
CONTINUOUS
10
4.25472
20
-3.96872
11
4.25472
21
-4.00021
0
LINE
8
BLACK
6
CONTINUOUS
10
4.3498
20
-3.99531
11
4.31436
21
-3.99531
0
LINE
8
BLACK
6
CONTINUOUS
10
4.31436
20
-3.99531
11
4.31436
21
-3.97562
0
LINE
8
BLACK
6
CONTINUOUS
10
4.31436
20
-3.97562
11
4.3498
21
-3.97562
0
LINE
8
BLACK
6
CONTINUOUS
10
4.3498
20
-3.97562
11
4.3498
21
-3.99531
0
LINE
8
BLACK
6
CONTINUOUS
10
6.15197
20
-3.99232
11
6.12047
21
-3.99232
0
LINE
8
BLACK
6
CONTINUOUS
10
6.12047
20
-3.99232
11
6.12047
21
-3.9628
0
LINE
8
BLACK
6
CONTINUOUS
10
6.12047
20
-3.9628
11
6.15197
21
-3.9628
0
LINE
8
BLACK
6
CONTINUOUS
10
6.15197
20
-3.9628
11
6.15197
21
-3.99232
0
LINE
8
BLACK
6
CONTINUOUS
10
6.09291
20
-3.99232
11
6.06142
21
-3.99232
0
LINE
8
BLACK
6
CONTINUOUS
10
6.06142
20
-3.99232
11
6.06142
21
-3.9628
0
LINE
8
BLACK
6
CONTINUOUS
10
6.06142
20
-3.9628
11
6.09291
21
-3.9628
0
LINE
8
BLACK
6
CONTINUOUS
10
6.09291
20
-3.9628
11
6.09291
21
-3.99232
0
LINE
8
BLACK
6
CONTINUOUS
10
5.98366
20
-3.98976
11
5.95413
21
-3.98976
0
LINE
8
BLACK
6
CONTINUOUS
10
5.95413
20
-3.98976
11
5.95413
21
-3.95827
0
LINE
8
BLACK
6
CONTINUOUS
10
5.95413
20
-3.95827
11
5.98366
21
-3.95827
0
LINE
8
BLACK
6
CONTINUOUS
10
5.98366
20
-3.95827
11
5.98366
21
-3.98976
0
LINE
8
BLACK
6
CONTINUOUS
10
4.83602
20
-3.97303
11
4.775
21
-3.97303
0
LINE
8
BLACK
6
CONTINUOUS
10
4.775
20
-3.97303
11
4.775
21
-3.94941
0
LINE
8
BLACK
6
CONTINUOUS
10
4.775
20
-3.94941
11
4.83602
21
-3.94941
0
LINE
8
BLACK
6
CONTINUOUS
10
4.83602
20
-3.94941
11
4.83602
21
-3.97303
0
LINE
8
BLACK
6
CONTINUOUS
10
4.62343
20
-3.97303
11
4.5624
21
-3.97303
0
LINE
8
BLACK
6
CONTINUOUS
10
4.5624
20
-3.97303
11
4.5624
21
-3.94941
0
LINE
8
BLACK
6
CONTINUOUS
10
4.5624
20
-3.94941
11
4.62343
21
-3.94941
0
LINE
8
BLACK
6
CONTINUOUS
10
4.62343
20
-3.94941
11
4.62343
21
-3.97303
0
LINE
8
BLACK
6
CONTINUOUS
10
5.40591
20
-3.95039
11
5.34685
21
-3.95039
0
LINE
8
BLACK
6
CONTINUOUS
10
5.34685
20
-3.95039
11
5.34685
21
-3.92677
0
LINE
8
BLACK
6
CONTINUOUS
10
5.34685
20
-3.92677
11
5.40591
21
-3.92677
0
LINE
8
BLACK
6
CONTINUOUS
10
5.40591
20
-3.92677
11
5.40591
21
-3.95039
0
LINE
8
BLACK
6
CONTINUOUS
10
5.19331
20
-3.95039
11
5.13425
21
-3.95039
0
LINE
8
BLACK
6
CONTINUOUS
10
5.13425
20
-3.95039
11
5.13425
21
-3.92677
0
LINE
8
BLACK
6
CONTINUOUS
10
5.13425
20
-3.92677
11
5.19331
21
-3.92677
0
LINE
8
BLACK
6
CONTINUOUS
10
5.19331
20
-3.92677
11
5.19331
21
-3.95039
0
LINE
8
BLACK
6
CONTINUOUS
10
5.98366
20
-3.93071
11
5.95413
21
-3.93071
0
LINE
8
BLACK
6
CONTINUOUS
10
5.95413
20
-3.93071
11
5.95413
21
-3.89921
0
LINE
8
BLACK
6
CONTINUOUS
10
5.95413
20
-3.89921
11
5.98366
21
-3.89921
0
LINE
8
BLACK
6
CONTINUOUS
10
5.98366
20
-3.89921
11
5.98366
21
-3.93071
0
LINE
8
BLACK
6
CONTINUOUS
10
4.62343
20
-3.92303
11
4.5624
21
-3.92303
0
LINE
8
BLACK
6
CONTINUOUS
10
4.5624
20
-3.92303
11
4.5624
21
-3.89941
0
LINE
8
BLACK
6
CONTINUOUS
10
4.5624
20
-3.89941
11
4.62343
21
-3.89941
0
LINE
8
BLACK
6
CONTINUOUS
10
4.62343
20
-3.89941
11
4.62343
21
-3.92303
0
LINE
8
BLACK
6
CONTINUOUS
10
4.83602
20
-3.92303
11
4.775
21
-3.92303
0
LINE
8
BLACK
6
CONTINUOUS
10
4.775
20
-3.92303
11
4.775
21
-3.89941
0
LINE
8
BLACK
6
CONTINUOUS
10
4.775
20
-3.89941
11
4.83602
21
-3.89941
0
LINE
8
BLACK
6
CONTINUOUS
10
4.83602
20
-3.89941
11
4.83602
21
-3.92303
0
LINE
8
BLACK
6
CONTINUOUS
10
5.84567
20
-3.91614
11
5.82598
21
-3.91614
0
LINE
8
BLACK
6
CONTINUOUS
10
5.82598
20
-3.91614
11
5.82598
21
-3.88071
0
LINE
8
BLACK
6
CONTINUOUS
10
5.82598
20
-3.88071
11
5.84567
21
-3.88071
0
LINE
8
BLACK
6
CONTINUOUS
10
5.84567
20
-3.88071
11
5.84567
21
-3.91614
0
LINE
8
BLACK
6
CONTINUOUS
10
5.90472
20
-3.91614
11
5.88504
21
-3.91614
0
LINE
8
BLACK
6
CONTINUOUS
10
5.88504
20
-3.91614
11
5.88504
21
-3.88071
0
LINE
8
BLACK
6
CONTINUOUS
10
5.88504
20
-3.88071
11
5.90472
21
-3.88071
0
LINE
8
BLACK
6
CONTINUOUS
10
5.90472
20
-3.88071
11
5.90472
21
-3.91614
0
LINE
8
BLACK
6
CONTINUOUS
10
6.71476
20
-3.91201
11
6.65374
21
-3.91201
0
LINE
8
BLACK
6
CONTINUOUS
10
6.65374
20
-3.91201
11
6.65374
21
-3.88839
0
LINE
8
BLACK
6
CONTINUOUS
10
6.65374
20
-3.88839
11
6.71476
21
-3.88839
0
LINE
8
BLACK
6
CONTINUOUS
10
6.71476
20
-3.88839
11
6.71476
21
-3.91201
0
LINE
8
BLACK
6
CONTINUOUS
10
6.50217
20
-3.91201
11
6.44114
21
-3.91201
0
LINE
8
BLACK
6
CONTINUOUS
10
6.44114
20
-3.91201
11
6.44114
21
-3.88839
0
LINE
8
BLACK
6
CONTINUOUS
10
6.44114
20
-3.88839
11
6.50217
21
-3.88839
0
LINE
8
BLACK
6
CONTINUOUS
10
6.50217
20
-3.88839
11
6.50217
21
-3.91201
0
LINE
8
BLACK
6
CONTINUOUS
10
6.31988
20
-3.91043
11
6.25886
21
-3.91043
0
LINE
8
BLACK
6
CONTINUOUS
10
6.25886
20
-3.91043
11
6.25886
21
-3.88681
0
LINE
8
BLACK
6
CONTINUOUS
10
6.25886
20
-3.88681
11
6.31988
21
-3.88681
0
LINE
8
BLACK
6
CONTINUOUS
10
6.31988
20
-3.88681
11
6.31988
21
-3.91043
0
LINE
8
BLACK
6
CONTINUOUS
10
6.10728
20
-3.91043
11
6.04626
21
-3.91043
0
LINE
8
BLACK
6
CONTINUOUS
10
6.04626
20
-3.91043
11
6.04626
21
-3.88681
0
LINE
8
BLACK
6
CONTINUOUS
10
6.04626
20
-3.88681
11
6.10728
21
-3.88681
0
LINE
8
BLACK
6
CONTINUOUS
10
6.10728
20
-3.88681
11
6.10728
21
-3.91043
0
LINE
8
BLACK
6
CONTINUOUS
10
3.65768
20
-3.9065
11
3.58287
21
-3.9065
0
LINE
8
BLACK
6
CONTINUOUS
10
3.58287
20
-3.9065
11
3.58287
21
-3.85531
0
LINE
8
BLACK
6
CONTINUOUS
10
3.58287
20
-3.85531
11
3.65768
21
-3.85531
0
LINE
8
BLACK
6
CONTINUOUS
10
3.65768
20
-3.85531
11
3.65768
21
-3.9065
0
LINE
8
BLACK
6
CONTINUOUS
10
5.60315
20
-3.9061
11
5.57165
21
-3.9061
0
LINE
8
BLACK
6
CONTINUOUS
10
5.57165
20
-3.9061
11
5.57165
21
-3.87657
0
LINE
8
BLACK
6
CONTINUOUS
10
5.57165
20
-3.87657
11
5.60315
21
-3.87657
0
LINE
8
BLACK
6
CONTINUOUS
10
5.60315
20
-3.87657
11
5.60315
21
-3.9061
0
LINE
8
BLACK
6
CONTINUOUS
10
5.54409
20
-3.9061
11
5.5126
21
-3.9061
0
LINE
8
BLACK
6
CONTINUOUS
10
5.5126
20
-3.9061
11
5.5126
21
-3.87657
0
LINE
8
BLACK
6
CONTINUOUS
10
5.5126
20
-3.87657
11
5.54409
21
-3.87657
0
LINE
8
BLACK
6
CONTINUOUS
10
5.54409
20
-3.87657
11
5.54409
21
-3.9061
0
LINE
8
BLACK
6
CONTINUOUS
10
6.82087
20
-3.8937
11
6.80118
21
-3.8937
0
LINE
8
BLACK
6
CONTINUOUS
10
6.80118
20
-3.8937
11
6.80118
21
-3.85827
0
LINE
8
BLACK
6
CONTINUOUS
10
6.80118
20
-3.85827
11
6.82087
21
-3.85827
0
LINE
8
BLACK
6
CONTINUOUS
10
6.82087
20
-3.85827
11
6.82087
21
-3.8937
0
LINE
8
BLACK
6
CONTINUOUS
10
7.02165
20
-3.8937
11
7.00197
21
-3.8937
0
LINE
8
BLACK
6
CONTINUOUS
10
7.00197
20
-3.8937
11
7.00197
21
-3.85827
0
LINE
8
BLACK
6
CONTINUOUS
10
7.00197
20
-3.85827
11
7.02165
21
-3.85827
0
LINE
8
BLACK
6
CONTINUOUS
10
7.02165
20
-3.85827
11
7.02165
21
-3.8937
0
LINE
8
BLACK
6
CONTINUOUS
10
6.9626
20
-3.8937
11
6.94291
21
-3.8937
0
LINE
8
BLACK
6
CONTINUOUS
10
6.94291
20
-3.8937
11
6.94291
21
-3.85827
0
LINE
8
BLACK
6
CONTINUOUS
10
6.94291
20
-3.85827
11
6.9626
21
-3.85827
0
LINE
8
BLACK
6
CONTINUOUS
10
6.9626
20
-3.85827
11
6.9626
21
-3.8937
0
LINE
8
BLACK
6
CONTINUOUS
10
7.16339
20
-3.8937
11
7.1437
21
-3.8937
0
LINE
8
BLACK
6
CONTINUOUS
10
7.1437
20
-3.8937
11
7.1437
21
-3.85827
0
LINE
8
BLACK
6
CONTINUOUS
10
7.1437
20
-3.85827
11
7.16339
21
-3.85827
0
LINE
8
BLACK
6
CONTINUOUS
10
7.16339
20
-3.85827
11
7.16339
21
-3.8937
0
LINE
8
BLACK
6
CONTINUOUS
10
7.10433
20
-3.8937
11
7.08465
21
-3.8937
0
LINE
8
BLACK
6
CONTINUOUS
10
7.08465
20
-3.8937
11
7.08465
21
-3.85827
0
LINE
8
BLACK
6
CONTINUOUS
10
7.08465
20
-3.85827
11
7.10433
21
-3.85827
0
LINE
8
BLACK
6
CONTINUOUS
10
7.10433
20
-3.85827
11
7.10433
21
-3.8937
0
LINE
8
BLACK
6
CONTINUOUS
10
6.87992
20
-3.8937
11
6.86024
21
-3.8937
0
LINE
8
BLACK
6
CONTINUOUS
10
6.86024
20
-3.8937
11
6.86024
21
-3.85827
0
LINE
8
BLACK
6
CONTINUOUS
10
6.86024
20
-3.85827
11
6.87992
21
-3.85827
0
LINE
8
BLACK
6
CONTINUOUS
10
6.87992
20
-3.85827
11
6.87992
21
-3.8937
0
LINE
8
BLACK
6
CONTINUOUS
10
6.71476
20
-3.86201
11
6.65374
21
-3.86201
0
LINE
8
BLACK
6
CONTINUOUS
10
6.65374
20
-3.86201
11
6.65374
21
-3.83839
0
LINE
8
BLACK
6
CONTINUOUS
10
6.65374
20
-3.83839
11
6.71476
21
-3.83839
0
LINE
8
BLACK
6
CONTINUOUS
10
6.71476
20
-3.83839
11
6.71476
21
-3.86201
0
LINE
8
BLACK
6
CONTINUOUS
10
6.50217
20
-3.86201
11
6.44114
21
-3.86201
0
LINE
8
BLACK
6
CONTINUOUS
10
6.44114
20
-3.86201
11
6.44114
21
-3.83839
0
LINE
8
BLACK
6
CONTINUOUS
10
6.44114
20
-3.83839
11
6.50217
21
-3.83839
0
LINE
8
BLACK
6
CONTINUOUS
10
6.50217
20
-3.83839
11
6.50217
21
-3.86201
0
LINE
8
BLACK
6
CONTINUOUS
10
6.31988
20
-3.86043
11
6.25886
21
-3.86043
0
LINE
8
BLACK
6
CONTINUOUS
10
6.25886
20
-3.86043
11
6.25886
21
-3.83681
0
LINE
8
BLACK
6
CONTINUOUS
10
6.25886
20
-3.83681
11
6.31988
21
-3.83681
0
LINE
8
BLACK
6
CONTINUOUS
10
6.31988
20
-3.83681
11
6.31988
21
-3.86043
0
LINE
8
BLACK
6
CONTINUOUS
10
6.10728
20
-3.86043
11
6.04626
21
-3.86043
0
LINE
8
BLACK
6
CONTINUOUS
10
6.04626
20
-3.86043
11
6.04626
21
-3.83681
0
LINE
8
BLACK
6
CONTINUOUS
10
6.04626
20
-3.83681
11
6.10728
21
-3.83681
0
LINE
8
BLACK
6
CONTINUOUS
10
6.10728
20
-3.83681
11
6.10728
21
-3.86043
0
LINE
8
BLACK
6
CONTINUOUS
10
4.6063
20
-3.85925
11
4.5748
21
-3.85925
0
LINE
8
BLACK
6
CONTINUOUS
10
4.5748
20
-3.85925
11
4.5748
21
-3.82972
0
LINE
8
BLACK
6
CONTINUOUS
10
4.5748
20
-3.82972
11
4.6063
21
-3.82972
0
LINE
8
BLACK
6
CONTINUOUS
10
4.6063
20
-3.82972
11
4.6063
21
-3.85925
0
LINE
8
BLACK
6
CONTINUOUS
10
4.54724
20
-3.85925
11
4.51575
21
-3.85925
0
LINE
8
BLACK
6
CONTINUOUS
10
4.51575
20
-3.85925
11
4.51575
21
-3.82972
0
LINE
8
BLACK
6
CONTINUOUS
10
4.51575
20
-3.82972
11
4.54724
21
-3.82972
0
LINE
8
BLACK
6
CONTINUOUS
10
4.54724
20
-3.82972
11
4.54724
21
-3.85925
0
LINE
8
BLACK
6
CONTINUOUS
10
4.88976
20
-3.85925
11
4.85827
21
-3.85925
0
LINE
8
BLACK
6
CONTINUOUS
10
4.85827
20
-3.85925
11
4.85827
21
-3.82972
0
LINE
8
BLACK
6
CONTINUOUS
10
4.85827
20
-3.82972
11
4.88976
21
-3.82972
0
LINE
8
BLACK
6
CONTINUOUS
10
4.88976
20
-3.82972
11
4.88976
21
-3.85925
0
LINE
8
BLACK
6
CONTINUOUS
10
4.83071
20
-3.85925
11
4.79921
21
-3.85925
0
LINE
8
BLACK
6
CONTINUOUS
10
4.79921
20
-3.85925
11
4.79921
21
-3.82972
0
LINE
8
BLACK
6
CONTINUOUS
10
4.79921
20
-3.82972
11
4.83071
21
-3.82972
0
LINE
8
BLACK
6
CONTINUOUS
10
4.83071
20
-3.82972
11
4.83071
21
-3.85925
0
LINE
8
BLACK
6
CONTINUOUS
10
5.98327
20
-3.82205
11
5.95374
21
-3.82205
0
LINE
8
BLACK
6
CONTINUOUS
10
5.95374
20
-3.82205
11
5.95374
21
-3.79055
0
LINE
8
BLACK
6
CONTINUOUS
10
5.95374
20
-3.79055
11
5.98327
21
-3.79055
0
LINE
8
BLACK
6
CONTINUOUS
10
5.98327
20
-3.79055
11
5.98327
21
-3.82205
0
LINE
8
BLACK
6
CONTINUOUS
10
5.84567
20
-3.81378
11
5.82598
21
-3.81378
0
LINE
8
BLACK
6
CONTINUOUS
10
5.82598
20
-3.81378
11
5.82598
21
-3.77835
0
LINE
8
BLACK
6
CONTINUOUS
10
5.82598
20
-3.77835
11
5.84567
21
-3.77835
0
LINE
8
BLACK
6
CONTINUOUS
10
5.84567
20
-3.77835
11
5.84567
21
-3.81378
0
LINE
8
BLACK
6
CONTINUOUS
10
5.90472
20
-3.81378
11
5.88504
21
-3.81378
0
LINE
8
BLACK
6
CONTINUOUS
10
5.88504
20
-3.81378
11
5.88504
21
-3.77835
0
LINE
8
BLACK
6
CONTINUOUS
10
5.88504
20
-3.77835
11
5.90472
21
-3.77835
0
LINE
8
BLACK
6
CONTINUOUS
10
5.90472
20
-3.77835
11
5.90472
21
-3.81378
0
LINE
8
BLACK
6
CONTINUOUS
10
6.50217
20
-3.81201
11
6.44114
21
-3.81201
0
LINE
8
BLACK
6
CONTINUOUS
10
6.44114
20
-3.81201
11
6.44114
21
-3.78839
0
LINE
8
BLACK
6
CONTINUOUS
10
6.44114
20
-3.78839
11
6.50217
21
-3.78839
0
LINE
8
BLACK
6
CONTINUOUS
10
6.50217
20
-3.78839
11
6.50217
21
-3.81201
0
LINE
8
BLACK
6
CONTINUOUS
10
6.71476
20
-3.81201
11
6.65374
21
-3.81201
0
LINE
8
BLACK
6
CONTINUOUS
10
6.65374
20
-3.81201
11
6.65374
21
-3.78839
0
LINE
8
BLACK
6
CONTINUOUS
10
6.65374
20
-3.78839
11
6.71476
21
-3.78839
0
LINE
8
BLACK
6
CONTINUOUS
10
6.71476
20
-3.78839
11
6.71476
21
-3.81201
0
LINE
8
BLACK
6
CONTINUOUS
10
6.10728
20
-3.81043
11
6.04626
21
-3.81043
0
LINE
8
BLACK
6
CONTINUOUS
10
6.04626
20
-3.81043
11
6.04626
21
-3.78681
0
LINE
8
BLACK
6
CONTINUOUS
10
6.04626
20
-3.78681
11
6.10728
21
-3.78681
0
LINE
8
BLACK
6
CONTINUOUS
10
6.10728
20
-3.78681
11
6.10728
21
-3.81043
0
LINE
8
BLACK
6
CONTINUOUS
10
6.31988
20
-3.81043
11
6.25886
21
-3.81043
0
LINE
8
BLACK
6
CONTINUOUS
10
6.25886
20
-3.81043
11
6.25886
21
-3.78681
0
LINE
8
BLACK
6
CONTINUOUS
10
6.25886
20
-3.78681
11
6.31988
21
-3.78681
0
LINE
8
BLACK
6
CONTINUOUS
10
6.31988
20
-3.78681
11
6.31988
21
-3.81043
0
LINE
8
BLACK
6
CONTINUOUS
10
5.28878
20
-3.80984
11
5.26713
21
-3.80984
0
LINE
8
BLACK
6
CONTINUOUS
10
5.26713
20
-3.80984
11
5.26713
21
-3.75079
0
LINE
8
BLACK
6
CONTINUOUS
10
5.26713
20
-3.75079
11
5.28878
21
-3.75079
0
LINE
8
BLACK
6
CONTINUOUS
10
5.28878
20
-3.75079
11
5.28878
21
-3.80984
0
LINE
8
BLACK
6
CONTINUOUS
10
5.32028
20
-3.80984
11
5.29862
21
-3.80984
0
LINE
8
BLACK
6
CONTINUOUS
10
5.29862
20
-3.80984
11
5.29862
21
-3.75079
0
LINE
8
BLACK
6
CONTINUOUS
10
5.29862
20
-3.75079
11
5.32028
21
-3.75079
0
LINE
8
BLACK
6
CONTINUOUS
10
5.32028
20
-3.75079
11
5.32028
21
-3.80984
0
LINE
8
BLACK
6
CONTINUOUS
10
5.41476
20
-3.80984
11
5.39311
21
-3.80984
0
LINE
8
BLACK
6
CONTINUOUS
10
5.39311
20
-3.80984
11
5.39311
21
-3.75079
0
LINE
8
BLACK
6
CONTINUOUS
10
5.39311
20
-3.75079
11
5.41476
21
-3.75079
0
LINE
8
BLACK
6
CONTINUOUS
10
5.41476
20
-3.75079
11
5.41476
21
-3.80984
0
LINE
8
BLACK
6
CONTINUOUS
10
5.47776
20
-3.80984
11
5.4561
21
-3.80984
0
LINE
8
BLACK
6
CONTINUOUS
10
5.4561
20
-3.80984
11
5.4561
21
-3.75079
0
LINE
8
BLACK
6
CONTINUOUS
10
5.4561
20
-3.75079
11
5.47776
21
-3.75079
0
LINE
8
BLACK
6
CONTINUOUS
10
5.47776
20
-3.75079
11
5.47776
21
-3.80984
0
LINE
8
BLACK
6
CONTINUOUS
10
5.57224
20
-3.80984
11
5.55059
21
-3.80984
0
LINE
8
BLACK
6
CONTINUOUS
10
5.55059
20
-3.80984
11
5.55059
21
-3.75079
0
LINE
8
BLACK
6
CONTINUOUS
10
5.55059
20
-3.75079
11
5.57224
21
-3.75079
0
LINE
8
BLACK
6
CONTINUOUS
10
5.57224
20
-3.75079
11
5.57224
21
-3.80984
0
LINE
8
BLACK
6
CONTINUOUS
10
5.54075
20
-3.80984
11
5.51909
21
-3.80984
0
LINE
8
BLACK
6
CONTINUOUS
10
5.51909
20
-3.80984
11
5.51909
21
-3.75079
0
LINE
8
BLACK
6
CONTINUOUS
10
5.51909
20
-3.75079
11
5.54075
21
-3.75079
0
LINE
8
BLACK
6
CONTINUOUS
10
5.54075
20
-3.75079
11
5.54075
21
-3.80984
0
LINE
8
BLACK
6
CONTINUOUS
10
5.50925
20
-3.80984
11
5.4876
21
-3.80984
0
LINE
8
BLACK
6
CONTINUOUS
10
5.4876
20
-3.80984
11
5.4876
21
-3.75079
0
LINE
8
BLACK
6
CONTINUOUS
10
5.4876
20
-3.75079
11
5.50925
21
-3.75079
0
LINE
8
BLACK
6
CONTINUOUS
10
5.50925
20
-3.75079
11
5.50925
21
-3.80984
0
LINE
8
BLACK
6
CONTINUOUS
10
5.60374
20
-3.80984
11
5.58209
21
-3.80984
0
LINE
8
BLACK
6
CONTINUOUS
10
5.58209
20
-3.80984
11
5.58209
21
-3.75079
0
LINE
8
BLACK
6
CONTINUOUS
10
5.58209
20
-3.75079
11
5.60374
21
-3.75079
0
LINE
8
BLACK
6
CONTINUOUS
10
5.60374
20
-3.75079
11
5.60374
21
-3.80984
0
LINE
8
BLACK
6
CONTINUOUS
10
5.44626
20
-3.80984
11
5.42461
21
-3.80984
0
LINE
8
BLACK
6
CONTINUOUS
10
5.42461
20
-3.80984
11
5.42461
21
-3.75079
0
LINE
8
BLACK
6
CONTINUOUS
10
5.42461
20
-3.75079
11
5.44626
21
-3.75079
0
LINE
8
BLACK
6
CONTINUOUS
10
5.44626
20
-3.75079
11
5.44626
21
-3.80984
0
LINE
8
BLACK
6
CONTINUOUS
10
5.35177
20
-3.80984
11
5.33012
21
-3.80984
0
LINE
8
BLACK
6
CONTINUOUS
10
5.33012
20
-3.80984
11
5.33012
21
-3.75079
0
LINE
8
BLACK
6
CONTINUOUS
10
5.33012
20
-3.75079
11
5.35177
21
-3.75079
0
LINE
8
BLACK
6
CONTINUOUS
10
5.35177
20
-3.75079
11
5.35177
21
-3.80984
0
LINE
8
BLACK
6
CONTINUOUS
10
5.38327
20
-3.80984
11
5.36161
21
-3.80984
0
LINE
8
BLACK
6
CONTINUOUS
10
5.36161
20
-3.80984
11
5.36161
21
-3.75079
0
LINE
8
BLACK
6
CONTINUOUS
10
5.36161
20
-3.75079
11
5.38327
21
-3.75079
0
LINE
8
BLACK
6
CONTINUOUS
10
5.38327
20
-3.75079
11
5.38327
21
-3.80984
0
LINE
8
BLACK
6
CONTINUOUS
10
4.23839
20
-3.80807
11
4.19114
21
-3.80807
0
LINE
8
BLACK
6
CONTINUOUS
10
4.19114
20
-3.80807
11
4.19114
21
-3.7687
0
LINE
8
BLACK
6
CONTINUOUS
10
4.19114
20
-3.7687
11
4.23839
21
-3.7687
0
LINE
8
BLACK
6
CONTINUOUS
10
4.23839
20
-3.7687
11
4.23839
21
-3.80807
0
LINE
8
BLACK
6
CONTINUOUS
10
6.82087
20
-3.79134
11
6.80118
21
-3.79134
0
LINE
8
BLACK
6
CONTINUOUS
10
6.80118
20
-3.79134
11
6.80118
21
-3.75591
0
LINE
8
BLACK
6
CONTINUOUS
10
6.80118
20
-3.75591
11
6.82087
21
-3.75591
0
LINE
8
BLACK
6
CONTINUOUS
10
6.82087
20
-3.75591
11
6.82087
21
-3.79134
0
LINE
8
BLACK
6
CONTINUOUS
10
6.87992
20
-3.79134
11
6.86024
21
-3.79134
0
LINE
8
BLACK
6
CONTINUOUS
10
6.86024
20
-3.79134
11
6.86024
21
-3.75591
0
LINE
8
BLACK
6
CONTINUOUS
10
6.86024
20
-3.75591
11
6.87992
21
-3.75591
0
LINE
8
BLACK
6
CONTINUOUS
10
6.87992
20
-3.75591
11
6.87992
21
-3.79134
0
LINE
8
BLACK
6
CONTINUOUS
10
7.10433
20
-3.79134
11
7.08465
21
-3.79134
0
LINE
8
BLACK
6
CONTINUOUS
10
7.08465
20
-3.79134
11
7.08465
21
-3.75591
0
LINE
8
BLACK
6
CONTINUOUS
10
7.08465
20
-3.75591
11
7.10433
21
-3.75591
0
LINE
8
BLACK
6
CONTINUOUS
10
7.10433
20
-3.75591
11
7.10433
21
-3.79134
0
LINE
8
BLACK
6
CONTINUOUS
10
7.16339
20
-3.79134
11
7.1437
21
-3.79134
0
LINE
8
BLACK
6
CONTINUOUS
10
7.1437
20
-3.79134
11
7.1437
21
-3.75591
0
LINE
8
BLACK
6
CONTINUOUS
10
7.1437
20
-3.75591
11
7.16339
21
-3.75591
0
LINE
8
BLACK
6
CONTINUOUS
10
7.16339
20
-3.75591
11
7.16339
21
-3.79134
0
LINE
8
BLACK
6
CONTINUOUS
10
7.02756
20
-3.78839
11
6.99606
21
-3.78839
0
LINE
8
BLACK
6
CONTINUOUS
10
6.99606
20
-3.78839
11
6.99606
21
-3.75886
0
LINE
8
BLACK
6
CONTINUOUS
10
6.99606
20
-3.75886
11
7.02756
21
-3.75886
0
LINE
8
BLACK
6
CONTINUOUS
10
7.02756
20
-3.75886
11
7.02756
21
-3.78839
0
LINE
8
BLACK
6
CONTINUOUS
10
6.9685
20
-3.78839
11
6.93701
21
-3.78839
0
LINE
8
BLACK
6
CONTINUOUS
10
6.93701
20
-3.78839
11
6.93701
21
-3.75886
0
LINE
8
BLACK
6
CONTINUOUS
10
6.93701
20
-3.75886
11
6.9685
21
-3.75886
0
LINE
8
BLACK
6
CONTINUOUS
10
6.9685
20
-3.75886
11
6.9685
21
-3.78839
0
LINE
8
BLACK
6
CONTINUOUS
10
5.98327
20
-3.76299
11
5.95374
21
-3.76299
0
LINE
8
BLACK
6
CONTINUOUS
10
5.95374
20
-3.76299
11
5.95374
21
-3.7315
0
LINE
8
BLACK
6
CONTINUOUS
10
5.95374
20
-3.7315
11
5.98327
21
-3.7315
0
LINE
8
BLACK
6
CONTINUOUS
10
5.98327
20
-3.7315
11
5.98327
21
-3.76299
0
LINE
8
BLACK
6
CONTINUOUS
10
6.50217
20
-3.76201
11
6.44114
21
-3.76201
0
LINE
8
BLACK
6
CONTINUOUS
10
6.44114
20
-3.76201
11
6.44114
21
-3.73839
0
LINE
8
BLACK
6
CONTINUOUS
10
6.44114
20
-3.73839
11
6.50217
21
-3.73839
0
LINE
8
BLACK
6
CONTINUOUS
10
6.50217
20
-3.73839
11
6.50217
21
-3.76201
0
LINE
8
BLACK
6
CONTINUOUS
10
6.71476
20
-3.76201
11
6.65374
21
-3.76201
0
LINE
8
BLACK
6
CONTINUOUS
10
6.65374
20
-3.76201
11
6.65374
21
-3.73839
0
LINE
8
BLACK
6
CONTINUOUS
10
6.65374
20
-3.73839
11
6.71476
21
-3.73839
0
LINE
8
BLACK
6
CONTINUOUS
10
6.71476
20
-3.73839
11
6.71476
21
-3.76201
0
LINE
8
BLACK
6
CONTINUOUS
10
6.10728
20
-3.76043
11
6.04626
21
-3.76043
0
LINE
8
BLACK
6
CONTINUOUS
10
6.04626
20
-3.76043
11
6.04626
21
-3.73681
0
LINE
8
BLACK
6
CONTINUOUS
10
6.04626
20
-3.73681
11
6.10728
21
-3.73681
0
LINE
8
BLACK
6
CONTINUOUS
10
6.10728
20
-3.73681
11
6.10728
21
-3.76043
0
LINE
8
BLACK
6
CONTINUOUS
10
6.31988
20
-3.76043
11
6.25886
21
-3.76043
0
LINE
8
BLACK
6
CONTINUOUS
10
6.25886
20
-3.76043
11
6.25886
21
-3.73681
0
LINE
8
BLACK
6
CONTINUOUS
10
6.25886
20
-3.73681
11
6.31988
21
-3.73681
0
LINE
8
BLACK
6
CONTINUOUS
10
6.31988
20
-3.73681
11
6.31988
21
-3.76043
0
LINE
8
BLACK
6
CONTINUOUS
10
4.23839
20
-3.74114
11
4.19114
21
-3.74114
0
LINE
8
BLACK
6
CONTINUOUS
10
4.19114
20
-3.74114
11
4.19114
21
-3.71358
0
LINE
8
BLACK
6
CONTINUOUS
10
4.19114
20
-3.71358
11
4.23839
21
-3.71358
0
LINE
8
BLACK
6
CONTINUOUS
10
4.23839
20
-3.71358
11
4.23839
21
-3.74114
0
LINE
8
BLACK
6
CONTINUOUS
10
5.68937
20
-3.72421
11
5.63031
21
-3.72421
0
LINE
8
BLACK
6
CONTINUOUS
10
5.63031
20
-3.72421
11
5.63031
21
-3.70256
0
LINE
8
BLACK
6
CONTINUOUS
10
5.63031
20
-3.70256
11
5.68937
21
-3.70256
0
LINE
8
BLACK
6
CONTINUOUS
10
5.68937
20
-3.70256
11
5.68937
21
-3.72421
0
LINE
8
BLACK
6
CONTINUOUS
10
5.24055
20
-3.72421
11
5.1815
21
-3.72421
0
LINE
8
BLACK
6
CONTINUOUS
10
5.1815
20
-3.72421
11
5.1815
21
-3.70256
0
LINE
8
BLACK
6
CONTINUOUS
10
5.1815
20
-3.70256
11
5.24055
21
-3.70256
0
LINE
8
BLACK
6
CONTINUOUS
10
5.24055
20
-3.70256
11
5.24055
21
-3.72421
0
LINE
8
BLACK
6
CONTINUOUS
10
5.84685
20
-3.71142
11
5.82717
21
-3.71142
0
LINE
8
BLACK
6
CONTINUOUS
10
5.82717
20
-3.71142
11
5.82717
21
-3.67598
0
LINE
8
BLACK
6
CONTINUOUS
10
5.82717
20
-3.67598
11
5.84685
21
-3.67598
0
LINE
8
BLACK
6
CONTINUOUS
10
5.84685
20
-3.67598
11
5.84685
21
-3.71142
0
LINE
8
BLACK
6
CONTINUOUS
10
5.90591
20
-3.71142
11
5.88622
21
-3.71142
0
LINE
8
BLACK
6
CONTINUOUS
10
5.88622
20
-3.71142
11
5.88622
21
-3.67598
0
LINE
8
BLACK
6
CONTINUOUS
10
5.88622
20
-3.67598
11
5.90591
21
-3.67598
0
LINE
8
BLACK
6
CONTINUOUS
10
5.90591
20
-3.67598
11
5.90591
21
-3.71142
0
LINE
8
BLACK
6
CONTINUOUS
10
4.23839
20
-3.69783
11
4.19114
21
-3.69783
0
LINE
8
BLACK
6
CONTINUOUS
10
4.19114
20
-3.69783
11
4.19114
21
-3.67028
0
LINE
8
BLACK
6
CONTINUOUS
10
4.19114
20
-3.67028
11
4.23839
21
-3.67028
0
LINE
8
BLACK
6
CONTINUOUS
10
4.23839
20
-3.67028
11
4.23839
21
-3.69783
0
LINE
8
BLACK
6
CONTINUOUS
10
5.68937
20
-3.69272
11
5.63031
21
-3.69272
0
LINE
8
BLACK
6
CONTINUOUS
10
5.63031
20
-3.69272
11
5.63031
21
-3.67106
0
LINE
8
BLACK
6
CONTINUOUS
10
5.63031
20
-3.67106
11
5.68937
21
-3.67106
0
LINE
8
BLACK
6
CONTINUOUS
10
5.68937
20
-3.67106
11
5.68937
21
-3.69272
0
LINE
8
BLACK
6
CONTINUOUS
10
5.24055
20
-3.69272
11
5.1815
21
-3.69272
0
LINE
8
BLACK
6
CONTINUOUS
10
5.1815
20
-3.69272
11
5.1815
21
-3.67106
0
LINE
8
BLACK
6
CONTINUOUS
10
5.1815
20
-3.67106
11
5.24055
21
-3.67106
0
LINE
8
BLACK
6
CONTINUOUS
10
5.24055
20
-3.67106
11
5.24055
21
-3.69272
0
LINE
8
BLACK
6
CONTINUOUS
10
6.15787
20
-3.69173
11
6.12244
21
-3.69173
0
LINE
8
BLACK
6
CONTINUOUS
10
6.12244
20
-3.69173
11
6.12244
21
-3.67205
0
LINE
8
BLACK
6
CONTINUOUS
10
6.12244
20
-3.67205
11
6.15787
21
-3.67205
0
LINE
8
BLACK
6
CONTINUOUS
10
6.15787
20
-3.67205
11
6.15787
21
-3.69173
0
LINE
8
BLACK
6
CONTINUOUS
10
6.67559
20
-3.68957
11
6.64409
21
-3.68957
0
LINE
8
BLACK
6
CONTINUOUS
10
6.64409
20
-3.68957
11
6.64409
21
-3.66004
0
LINE
8
BLACK
6
CONTINUOUS
10
6.64409
20
-3.66004
11
6.67559
21
-3.66004
0
LINE
8
BLACK
6
CONTINUOUS
10
6.67559
20
-3.66004
11
6.67559
21
-3.68957
0
LINE
8
BLACK
6
CONTINUOUS
10
6.61654
20
-3.68957
11
6.58504
21
-3.68957
0
LINE
8
BLACK
6
CONTINUOUS
10
6.58504
20
-3.68957
11
6.58504
21
-3.66004
0
LINE
8
BLACK
6
CONTINUOUS
10
6.58504
20
-3.66004
11
6.61654
21
-3.66004
0
LINE
8
BLACK
6
CONTINUOUS
10
6.61654
20
-3.66004
11
6.61654
21
-3.68957
0
LINE
8
BLACK
6
CONTINUOUS
10
6.31181
20
-3.68957
11
6.28031
21
-3.68957
0
LINE
8
BLACK
6
CONTINUOUS
10
6.28031
20
-3.68957
11
6.28031
21
-3.66004
0
LINE
8
BLACK
6
CONTINUOUS
10
6.28031
20
-3.66004
11
6.31181
21
-3.66004
0
LINE
8
BLACK
6
CONTINUOUS
10
6.31181
20
-3.66004
11
6.31181
21
-3.68957
0
LINE
8
BLACK
6
CONTINUOUS
10
6.37087
20
-3.68957
11
6.33937
21
-3.68957
0
LINE
8
BLACK
6
CONTINUOUS
10
6.33937
20
-3.68957
11
6.33937
21
-3.66004
0
LINE
8
BLACK
6
CONTINUOUS
10
6.33937
20
-3.66004
11
6.37087
21
-3.66004
0
LINE
8
BLACK
6
CONTINUOUS
10
6.37087
20
-3.66004
11
6.37087
21
-3.68957
0
LINE
8
BLACK
6
CONTINUOUS
10
5.24055
20
-3.66122
11
5.1815
21
-3.66122
0
LINE
8
BLACK
6
CONTINUOUS
10
5.1815
20
-3.66122
11
5.1815
21
-3.63957
0
LINE
8
BLACK
6
CONTINUOUS
10
5.1815
20
-3.63957
11
5.24055
21
-3.63957
0
LINE
8
BLACK
6
CONTINUOUS
10
5.24055
20
-3.63957
11
5.24055
21
-3.66122
0
LINE
8
BLACK
6
CONTINUOUS
10
5.68937
20
-3.66122
11
5.63031
21
-3.66122
0
LINE
8
BLACK
6
CONTINUOUS
10
5.63031
20
-3.66122
11
5.63031
21
-3.63957
0
LINE
8
BLACK
6
CONTINUOUS
10
5.63031
20
-3.63957
11
5.68937
21
-3.63957
0
LINE
8
BLACK
6
CONTINUOUS
10
5.68937
20
-3.63957
11
5.68937
21
-3.66122
0
LINE
8
BLACK
6
CONTINUOUS
10
4.23839
20
-3.65453
11
4.19114
21
-3.65453
0
LINE
8
BLACK
6
CONTINUOUS
10
4.19114
20
-3.65453
11
4.19114
21
-3.62697
0
LINE
8
BLACK
6
CONTINUOUS
10
4.19114
20
-3.62697
11
4.23839
21
-3.62697
0
LINE
8
BLACK
6
CONTINUOUS
10
4.23839
20
-3.62697
11
4.23839
21
-3.65453
0
LINE
8
BLACK
6
CONTINUOUS
10
6.06614
20
-3.63622
11
6.0189
21
-3.63622
0
LINE
8
BLACK
6
CONTINUOUS
10
6.0189
20
-3.63622
11
6.0189
21
-3.58898
0
LINE
8
BLACK
6
CONTINUOUS
10
6.0189
20
-3.58898
11
6.06614
21
-3.58898
0
LINE
8
BLACK
6
CONTINUOUS
10
6.06614
20
-3.58898
11
6.06614
21
-3.63622
0
LINE
8
BLACK
6
CONTINUOUS
10
6.15787
20
-3.63268
11
6.12244
21
-3.63268
0
LINE
8
BLACK
6
CONTINUOUS
10
6.12244
20
-3.63268
11
6.12244
21
-3.61299
0
LINE
8
BLACK
6
CONTINUOUS
10
6.12244
20
-3.61299
11
6.15787
21
-3.61299
0
LINE
8
BLACK
6
CONTINUOUS
10
6.15787
20
-3.61299
11
6.15787
21
-3.63268
0
LINE
8
BLACK
6
CONTINUOUS
10
5.68937
20
-3.62972
11
5.63031
21
-3.62972
0
LINE
8
BLACK
6
CONTINUOUS
10
5.63031
20
-3.62972
11
5.63031
21
-3.60807
0
LINE
8
BLACK
6
CONTINUOUS
10
5.63031
20
-3.60807
11
5.68937
21
-3.60807
0
LINE
8
BLACK
6
CONTINUOUS
10
5.68937
20
-3.60807
11
5.68937
21
-3.62972
0
LINE
8
BLACK
6
CONTINUOUS
10
5.24055
20
-3.62972
11
5.1815
21
-3.62972
0
LINE
8
BLACK
6
CONTINUOUS
10
5.1815
20
-3.62972
11
5.1815
21
-3.60807
0
LINE
8
BLACK
6
CONTINUOUS
10
5.1815
20
-3.60807
11
5.24055
21
-3.60807
0
LINE
8
BLACK
6
CONTINUOUS
10
5.24055
20
-3.60807
11
5.24055
21
-3.62972
0
LINE
8
BLACK
6
CONTINUOUS
10
6.50177
20
-3.61161
11
6.44075
21
-3.61161
0
LINE
8
BLACK
6
CONTINUOUS
10
6.44075
20
-3.61161
11
6.44075
21
-3.58799
0
LINE
8
BLACK
6
CONTINUOUS
10
6.44075
20
-3.58799
11
6.50177
21
-3.58799
0
LINE
8
BLACK
6
CONTINUOUS
10
6.50177
20
-3.58799
11
6.50177
21
-3.61161
0
LINE
8
BLACK
6
CONTINUOUS
10
6.71437
20
-3.61161
11
6.65335
21
-3.61161
0
LINE
8
BLACK
6
CONTINUOUS
10
6.65335
20
-3.61161
11
6.65335
21
-3.58799
0
LINE
8
BLACK
6
CONTINUOUS
10
6.65335
20
-3.58799
11
6.71437
21
-3.58799
0
LINE
8
BLACK
6
CONTINUOUS
10
6.71437
20
-3.58799
11
6.71437
21
-3.61161
0
LINE
8
BLACK
6
CONTINUOUS
10
4.23839
20
-3.61122
11
4.19114
21
-3.61122
0
LINE
8
BLACK
6
CONTINUOUS
10
4.19114
20
-3.61122
11
4.19114
21
-3.58366
0
LINE
8
BLACK
6
CONTINUOUS
10
4.19114
20
-3.58366
11
4.23839
21
-3.58366
0
LINE
8
BLACK
6
CONTINUOUS
10
4.23839
20
-3.58366
11
4.23839
21
-3.61122
0
LINE
8
BLACK
6
CONTINUOUS
10
7.11831
20
-3.60965
11
7.05728
21
-3.60965
0
LINE
8
BLACK
6
CONTINUOUS
10
7.05728
20
-3.60965
11
7.05728
21
-3.58602
0
LINE
8
BLACK
6
CONTINUOUS
10
7.05728
20
-3.58602
11
7.11831
21
-3.58602
0
LINE
8
BLACK
6
CONTINUOUS
10
7.11831
20
-3.58602
11
7.11831
21
-3.60965
0
LINE
8
BLACK
6
CONTINUOUS
10
6.90571
20
-3.60965
11
6.84469
21
-3.60965
0
LINE
8
BLACK
6
CONTINUOUS
10
6.84469
20
-3.60965
11
6.84469
21
-3.58602
0
LINE
8
BLACK
6
CONTINUOUS
10
6.84469
20
-3.58602
11
6.90571
21
-3.58602
0
LINE
8
BLACK
6
CONTINUOUS
10
6.90571
20
-3.58602
11
6.90571
21
-3.60965
0
LINE
8
BLACK
6
CONTINUOUS
10
5.84685
20
-3.60906
11
5.82717
21
-3.60906
0
LINE
8
BLACK
6
CONTINUOUS
10
5.82717
20
-3.60906
11
5.82717
21
-3.57362
0
LINE
8
BLACK
6
CONTINUOUS
10
5.82717
20
-3.57362
11
5.84685
21
-3.57362
0
LINE
8
BLACK
6
CONTINUOUS
10
5.84685
20
-3.57362
11
5.84685
21
-3.60906
0
LINE
8
BLACK
6
CONTINUOUS
10
5.90591
20
-3.60906
11
5.88622
21
-3.60906
0
LINE
8
BLACK
6
CONTINUOUS
10
5.88622
20
-3.60906
11
5.88622
21
-3.57362
0
LINE
8
BLACK
6
CONTINUOUS
10
5.88622
20
-3.57362
11
5.90591
21
-3.57362
0
LINE
8
BLACK
6
CONTINUOUS
10
5.90591
20
-3.57362
11
5.90591
21
-3.60906
0
LINE
8
BLACK
6
CONTINUOUS
10
5.09862
20
-3.60276
11
5.06909
21
-3.60276
0
LINE
8
BLACK
6
CONTINUOUS
10
5.06909
20
-3.60276
11
5.06909
21
-3.57126
0
LINE
8
BLACK
6
CONTINUOUS
10
5.06909
20
-3.57126
11
5.09862
21
-3.57126
0
LINE
8
BLACK
6
CONTINUOUS
10
5.09862
20
-3.57126
11
5.09862
21
-3.60276
0
LINE
8
BLACK
6
CONTINUOUS
10
5.68937
20
-3.59823
11
5.63031
21
-3.59823
0
LINE
8
BLACK
6
CONTINUOUS
10
5.63031
20
-3.59823
11
5.63031
21
-3.57657
0
LINE
8
BLACK
6
CONTINUOUS
10
5.63031
20
-3.57657
11
5.68937
21
-3.57657
0
LINE
8
BLACK
6
CONTINUOUS
10
5.68937
20
-3.57657
11
5.68937
21
-3.59823
0
LINE
8
BLACK
6
CONTINUOUS
10
5.24055
20
-3.59823
11
5.1815
21
-3.59823
0
LINE
8
BLACK
6
CONTINUOUS
10
5.1815
20
-3.59823
11
5.1815
21
-3.57657
0
LINE
8
BLACK
6
CONTINUOUS
10
5.1815
20
-3.57657
11
5.24055
21
-3.57657
0
LINE
8
BLACK
6
CONTINUOUS
10
5.24055
20
-3.57657
11
5.24055
21
-3.59823
0
LINE
8
BLACK
6
CONTINUOUS
10
4.23839
20
-3.56791
11
4.19114
21
-3.56791
0
LINE
8
BLACK
6
CONTINUOUS
10
4.19114
20
-3.56791
11
4.19114
21
-3.54035
0
LINE
8
BLACK
6
CONTINUOUS
10
4.19114
20
-3.54035
11
4.23839
21
-3.54035
0
LINE
8
BLACK
6
CONTINUOUS
10
4.23839
20
-3.54035
11
4.23839
21
-3.56791
0
LINE
8
BLACK
6
CONTINUOUS
10
5.68937
20
-3.56673
11
5.63031
21
-3.56673
0
LINE
8
BLACK
6
CONTINUOUS
10
5.63031
20
-3.56673
11
5.63031
21
-3.54508
0
LINE
8
BLACK
6
CONTINUOUS
10
5.63031
20
-3.54508
11
5.68937
21
-3.54508
0
LINE
8
BLACK
6
CONTINUOUS
10
5.68937
20
-3.54508
11
5.68937
21
-3.56673
0
LINE
8
BLACK
6
CONTINUOUS
10
5.24055
20
-3.56673
11
5.1815
21
-3.56673
0
LINE
8
BLACK
6
CONTINUOUS
10
5.1815
20
-3.56673
11
5.1815
21
-3.54508
0
LINE
8
BLACK
6
CONTINUOUS
10
5.1815
20
-3.54508
11
5.24055
21
-3.54508
0
LINE
8
BLACK
6
CONTINUOUS
10
5.24055
20
-3.54508
11
5.24055
21
-3.56673
0
LINE
8
BLACK
6
CONTINUOUS
10
6.50177
20
-3.56161
11
6.44075
21
-3.56161
0
LINE
8
BLACK
6
CONTINUOUS
10
6.44075
20
-3.56161
11
6.44075
21
-3.53799
0
LINE
8
BLACK
6
CONTINUOUS
10
6.44075
20
-3.53799
11
6.50177
21
-3.53799
0
LINE
8
BLACK
6
CONTINUOUS
10
6.50177
20
-3.53799
11
6.50177
21
-3.56161
0
LINE
8
BLACK
6
CONTINUOUS
10
6.71437
20
-3.56161
11
6.65335
21
-3.56161
0
LINE
8
BLACK
6
CONTINUOUS
10
6.65335
20
-3.56161
11
6.65335
21
-3.53799
0
LINE
8
BLACK
6
CONTINUOUS
10
6.65335
20
-3.53799
11
6.71437
21
-3.53799
0
LINE
8
BLACK
6
CONTINUOUS
10
6.71437
20
-3.53799
11
6.71437
21
-3.56161
0
LINE
8
BLACK
6
CONTINUOUS
10
6.90571
20
-3.55965
11
6.84469
21
-3.55965
0
LINE
8
BLACK
6
CONTINUOUS
10
6.84469
20
-3.55965
11
6.84469
21
-3.53602
0
LINE
8
BLACK
6
CONTINUOUS
10
6.84469
20
-3.53602
11
6.90571
21
-3.53602
0
LINE
8
BLACK
6
CONTINUOUS
10
6.90571
20
-3.53602
11
6.90571
21
-3.55965
0
LINE
8
BLACK
6
CONTINUOUS
10
7.11831
20
-3.55965
11
7.05728
21
-3.55965
0
LINE
8
BLACK
6
CONTINUOUS
10
7.05728
20
-3.55965
11
7.05728
21
-3.53602
0
LINE
8
BLACK
6
CONTINUOUS
10
7.05728
20
-3.53602
11
7.11831
21
-3.53602
0
LINE
8
BLACK
6
CONTINUOUS
10
7.11831
20
-3.53602
11
7.11831
21
-3.55965
0
LINE
8
BLACK
6
CONTINUOUS
10
6.06614
20
-3.54961
11
6.0189
21
-3.54961
0
LINE
8
BLACK
6
CONTINUOUS
10
6.0189
20
-3.54961
11
6.0189
21
-3.50236
0
LINE
8
BLACK
6
CONTINUOUS
10
6.0189
20
-3.50236
11
6.06614
21
-3.50236
0
LINE
8
BLACK
6
CONTINUOUS
10
6.06614
20
-3.50236
11
6.06614
21
-3.54961
0
LINE
8
BLACK
6
CONTINUOUS
10
4.48425
20
-3.54685
11
4.46457
21
-3.54685
0
LINE
8
BLACK
6
CONTINUOUS
10
4.46457
20
-3.54685
11
4.46457
21
-3.51142
0
LINE
8
BLACK
6
CONTINUOUS
10
4.46457
20
-3.51142
11
4.48425
21
-3.51142
0
LINE
8
BLACK
6
CONTINUOUS
10
4.48425
20
-3.51142
11
4.48425
21
-3.54685
0
LINE
8
BLACK
6
CONTINUOUS
10
4.4252
20
-3.54685
11
4.40551
21
-3.54685
0
LINE
8
BLACK
6
CONTINUOUS
10
4.40551
20
-3.54685
11
4.40551
21
-3.51142
0
LINE
8
BLACK
6
CONTINUOUS
10
4.40551
20
-3.51142
11
4.4252
21
-3.51142
0
LINE
8
BLACK
6
CONTINUOUS
10
4.4252
20
-3.51142
11
4.4252
21
-3.54685
0
LINE
8
BLACK
6
CONTINUOUS
10
4.62598
20
-3.54685
11
4.6063
21
-3.54685
0
LINE
8
BLACK
6
CONTINUOUS
10
4.6063
20
-3.54685
11
4.6063
21
-3.51142
0
LINE
8
BLACK
6
CONTINUOUS
10
4.6063
20
-3.51142
11
4.62598
21
-3.51142
0
LINE
8
BLACK
6
CONTINUOUS
10
4.62598
20
-3.51142
11
4.62598
21
-3.54685
0
LINE
8
BLACK
6
CONTINUOUS
10
4.56693
20
-3.54685
11
4.54724
21
-3.54685
0
LINE
8
BLACK
6
CONTINUOUS
10
4.54724
20
-3.54685
11
4.54724
21
-3.51142
0
LINE
8
BLACK
6
CONTINUOUS
10
4.54724
20
-3.51142
11
4.56693
21
-3.51142
0
LINE
8
BLACK
6
CONTINUOUS
10
4.56693
20
-3.51142
11
4.56693
21
-3.54685
0
LINE
8
BLACK
6
CONTINUOUS
10
5.09862
20
-3.5437
11
5.06909
21
-3.5437
0
LINE
8
BLACK
6
CONTINUOUS
10
5.06909
20
-3.5437
11
5.06909
21
-3.5122
0
LINE
8
BLACK
6
CONTINUOUS
10
5.06909
20
-3.5122
11
5.09862
21
-3.5122
0
LINE
8
BLACK
6
CONTINUOUS
10
5.09862
20
-3.5122
11
5.09862
21
-3.5437
0
LINE
8
BLACK
6
CONTINUOUS
10
5.24055
20
-3.53524
11
5.1815
21
-3.53524
0
LINE
8
BLACK
6
CONTINUOUS
10
5.1815
20
-3.53524
11
5.1815
21
-3.51358
0
LINE
8
BLACK
6
CONTINUOUS
10
5.1815
20
-3.51358
11
5.24055
21
-3.51358
0
LINE
8
BLACK
6
CONTINUOUS
10
5.24055
20
-3.51358
11
5.24055
21
-3.53524
0
LINE
8
BLACK
6
CONTINUOUS
10
5.68937
20
-3.53524
11
5.63031
21
-3.53524
0
LINE
8
BLACK
6
CONTINUOUS
10
5.63031
20
-3.53524
11
5.63031
21
-3.51358
0
LINE
8
BLACK
6
CONTINUOUS
10
5.63031
20
-3.51358
11
5.68937
21
-3.51358
0
LINE
8
BLACK
6
CONTINUOUS
10
5.68937
20
-3.51358
11
5.68937
21
-3.53524
0
LINE
8
BLACK
6
CONTINUOUS
10
4.23839
20
-3.52461
11
4.19114
21
-3.52461
0
LINE
8
BLACK
6
CONTINUOUS
10
4.19114
20
-3.52461
11
4.19114
21
-3.49705
0
LINE
8
BLACK
6
CONTINUOUS
10
4.19114
20
-3.49705
11
4.23839
21
-3.49705
0
LINE
8
BLACK
6
CONTINUOUS
10
4.23839
20
-3.49705
11
4.23839
21
-3.52461
0
LINE
8
BLACK
6
CONTINUOUS
10
6.3128
20
-3.51969
11
6.28327
21
-3.51969
0
LINE
8
BLACK
6
CONTINUOUS
10
6.28327
20
-3.51969
11
6.28327
21
-3.48819
0
LINE
8
BLACK
6
CONTINUOUS
10
6.28327
20
-3.48819
11
6.3128
21
-3.48819
0
LINE
8
BLACK
6
CONTINUOUS
10
6.3128
20
-3.48819
11
6.3128
21
-3.51969
0
LINE
8
BLACK
6
CONTINUOUS
10
6.40197
20
-3.51417
11
6.36654
21
-3.51417
0
LINE
8
BLACK
6
CONTINUOUS
10
6.36654
20
-3.51417
11
6.36654
21
-3.49449
0
LINE
8
BLACK
6
CONTINUOUS
10
6.36654
20
-3.49449
11
6.40197
21
-3.49449
0
LINE
8
BLACK
6
CONTINUOUS
10
6.40197
20
-3.49449
11
6.40197
21
-3.51417
0
LINE
8
BLACK
6
CONTINUOUS
10
6.71437
20
-3.51161
11
6.65335
21
-3.51161
0
LINE
8
BLACK
6
CONTINUOUS
10
6.65335
20
-3.51161
11
6.65335
21
-3.48799
0
LINE
8
BLACK
6
CONTINUOUS
10
6.65335
20
-3.48799
11
6.71437
21
-3.48799
0
LINE
8
BLACK
6
CONTINUOUS
10
6.71437
20
-3.48799
11
6.71437
21
-3.51161
0
LINE
8
BLACK
6
CONTINUOUS
10
6.50177
20
-3.51161
11
6.44075
21
-3.51161
0
LINE
8
BLACK
6
CONTINUOUS
10
6.44075
20
-3.51161
11
6.44075
21
-3.48799
0
LINE
8
BLACK
6
CONTINUOUS
10
6.44075
20
-3.48799
11
6.50177
21
-3.48799
0
LINE
8
BLACK
6
CONTINUOUS
10
6.50177
20
-3.48799
11
6.50177
21
-3.51161
0
LINE
8
BLACK
6
CONTINUOUS
10
6.90571
20
-3.50965
11
6.84469
21
-3.50965
0
LINE
8
BLACK
6
CONTINUOUS
10
6.84469
20
-3.50965
11
6.84469
21
-3.48602
0
LINE
8
BLACK
6
CONTINUOUS
10
6.84469
20
-3.48602
11
6.90571
21
-3.48602
0
LINE
8
BLACK
6
CONTINUOUS
10
6.90571
20
-3.48602
11
6.90571
21
-3.50965
0
LINE
8
BLACK
6
CONTINUOUS
10
7.11831
20
-3.50965
11
7.05728
21
-3.50965
0
LINE
8
BLACK
6
CONTINUOUS
10
7.05728
20
-3.50965
11
7.05728
21
-3.48602
0
LINE
8
BLACK
6
CONTINUOUS
10
7.05728
20
-3.48602
11
7.11831
21
-3.48602
0
LINE
8
BLACK
6
CONTINUOUS
10
7.11831
20
-3.48602
11
7.11831
21
-3.50965
0
LINE
8
BLACK
6
CONTINUOUS
10
5.85433
20
-3.50374
11
5.82283
21
-3.50374
0
LINE
8
BLACK
6
CONTINUOUS
10
5.82283
20
-3.50374
11
5.82283
21
-3.47421
0
LINE
8
BLACK
6
CONTINUOUS
10
5.82283
20
-3.47421
11
5.85433
21
-3.47421
0
LINE
8
BLACK
6
CONTINUOUS
10
5.85433
20
-3.47421
11
5.85433
21
-3.50374
0
LINE
8
BLACK
6
CONTINUOUS
10
5.91339
20
-3.50374
11
5.88189
21
-3.50374
0
LINE
8
BLACK
6
CONTINUOUS
10
5.88189
20
-3.50374
11
5.88189
21
-3.47421
0
LINE
8
BLACK
6
CONTINUOUS
10
5.88189
20
-3.47421
11
5.91339
21
-3.47421
0
LINE
8
BLACK
6
CONTINUOUS
10
5.91339
20
-3.47421
11
5.91339
21
-3.50374
0
LINE
8
BLACK
6
CONTINUOUS
10
5.24055
20
-3.50374
11
5.1815
21
-3.50374
0
LINE
8
BLACK
6
CONTINUOUS
10
5.1815
20
-3.50374
11
5.1815
21
-3.48209
0
LINE
8
BLACK
6
CONTINUOUS
10
5.1815
20
-3.48209
11
5.24055
21
-3.48209
0
LINE
8
BLACK
6
CONTINUOUS
10
5.24055
20
-3.48209
11
5.24055
21
-3.50374
0
LINE
8
BLACK
6
CONTINUOUS
10
5.68937
20
-3.50374
11
5.63031
21
-3.50374
0
LINE
8
BLACK
6
CONTINUOUS
10
5.63031
20
-3.50374
11
5.63031
21
-3.48209
0
LINE
8
BLACK
6
CONTINUOUS
10
5.63031
20
-3.48209
11
5.68937
21
-3.48209
0
LINE
8
BLACK
6
CONTINUOUS
10
5.68937
20
-3.48209
11
5.68937
21
-3.50374
0
LINE
8
BLACK
6
CONTINUOUS
10
4.23839
20
-3.4813
11
4.19114
21
-3.4813
0
LINE
8
BLACK
6
CONTINUOUS
10
4.19114
20
-3.4813
11
4.19114
21
-3.45374
0
LINE
8
BLACK
6
CONTINUOUS
10
4.19114
20
-3.45374
11
4.23839
21
-3.45374
0
LINE
8
BLACK
6
CONTINUOUS
10
4.23839
20
-3.45374
11
4.23839
21
-3.4813
0
LINE
8
BLACK
6
CONTINUOUS
10
5.68937
20
-3.47224
11
5.63031
21
-3.47224
0
LINE
8
BLACK
6
CONTINUOUS
10
5.63031
20
-3.47224
11
5.63031
21
-3.45059
0
LINE
8
BLACK
6
CONTINUOUS
10
5.63031
20
-3.45059
11
5.68937
21
-3.45059
0
LINE
8
BLACK
6
CONTINUOUS
10
5.68937
20
-3.45059
11
5.68937
21
-3.47224
0
LINE
8
BLACK
6
CONTINUOUS
10
5.24055
20
-3.47224
11
5.1815
21
-3.47224
0
LINE
8
BLACK
6
CONTINUOUS
10
5.1815
20
-3.47224
11
5.1815
21
-3.45059
0
LINE
8
BLACK
6
CONTINUOUS
10
5.1815
20
-3.45059
11
5.24055
21
-3.45059
0
LINE
8
BLACK
6
CONTINUOUS
10
5.24055
20
-3.45059
11
5.24055
21
-3.47224
0
LINE
8
BLACK
6
CONTINUOUS
10
6.50177
20
-3.46161
11
6.44075
21
-3.46161
0
LINE
8
BLACK
6
CONTINUOUS
10
6.44075
20
-3.46161
11
6.44075
21
-3.43799
0
LINE
8
BLACK
6
CONTINUOUS
10
6.44075
20
-3.43799
11
6.50177
21
-3.43799
0
LINE
8
BLACK
6
CONTINUOUS
10
6.50177
20
-3.43799
11
6.50177
21
-3.46161
0
LINE
8
BLACK
6
CONTINUOUS
10
6.71437
20
-3.46161
11
6.65335
21
-3.46161
0
LINE
8
BLACK
6
CONTINUOUS
10
6.65335
20
-3.46161
11
6.65335
21
-3.43799
0
LINE
8
BLACK
6
CONTINUOUS
10
6.65335
20
-3.43799
11
6.71437
21
-3.43799
0
LINE
8
BLACK
6
CONTINUOUS
10
6.71437
20
-3.43799
11
6.71437
21
-3.46161
0
LINE
8
BLACK
6
CONTINUOUS
10
6.3128
20
-3.46063
11
6.28327
21
-3.46063
0
LINE
8
BLACK
6
CONTINUOUS
10
6.28327
20
-3.46063
11
6.28327
21
-3.42913
0
LINE
8
BLACK
6
CONTINUOUS
10
6.28327
20
-3.42913
11
6.3128
21
-3.42913
0
LINE
8
BLACK
6
CONTINUOUS
10
6.3128
20
-3.42913
11
6.3128
21
-3.46063
0
LINE
8
BLACK
6
CONTINUOUS
10
7.11831
20
-3.45965
11
7.05728
21
-3.45965
0
LINE
8
BLACK
6
CONTINUOUS
10
7.05728
20
-3.45965
11
7.05728
21
-3.43602
0
LINE
8
BLACK
6
CONTINUOUS
10
7.05728
20
-3.43602
11
7.11831
21
-3.43602
0
LINE
8
BLACK
6
CONTINUOUS
10
7.11831
20
-3.43602
11
7.11831
21
-3.45965
0
LINE
8
BLACK
6
CONTINUOUS
10
6.90571
20
-3.45965
11
6.84469
21
-3.45965
0
LINE
8
BLACK
6
CONTINUOUS
10
6.84469
20
-3.45965
11
6.84469
21
-3.43602
0
LINE
8
BLACK
6
CONTINUOUS
10
6.84469
20
-3.43602
11
6.90571
21
-3.43602
0
LINE
8
BLACK
6
CONTINUOUS
10
6.90571
20
-3.43602
11
6.90571
21
-3.45965
0
LINE
8
BLACK
6
CONTINUOUS
10
6.40197
20
-3.45512
11
6.36654
21
-3.45512
0
LINE
8
BLACK
6
CONTINUOUS
10
6.36654
20
-3.45512
11
6.36654
21
-3.43543
0
LINE
8
BLACK
6
CONTINUOUS
10
6.36654
20
-3.43543
11
6.40197
21
-3.43543
0
LINE
8
BLACK
6
CONTINUOUS
10
6.40197
20
-3.43543
11
6.40197
21
-3.45512
0
LINE
8
BLACK
6
CONTINUOUS
10
4.48425
20
-3.44449
11
4.46457
21
-3.44449
0
LINE
8
BLACK
6
CONTINUOUS
10
4.46457
20
-3.44449
11
4.46457
21
-3.40906
0
LINE
8
BLACK
6
CONTINUOUS
10
4.46457
20
-3.40906
11
4.48425
21
-3.40906
0
LINE
8
BLACK
6
CONTINUOUS
10
4.48425
20
-3.40906
11
4.48425
21
-3.44449
0
LINE
8
BLACK
6
CONTINUOUS
10
4.4252
20
-3.44449
11
4.40551
21
-3.44449
0
LINE
8
BLACK
6
CONTINUOUS
10
4.40551
20
-3.44449
11
4.40551
21
-3.40906
0
LINE
8
BLACK
6
CONTINUOUS
10
4.40551
20
-3.40906
11
4.4252
21
-3.40906
0
LINE
8
BLACK
6
CONTINUOUS
10
4.4252
20
-3.40906
11
4.4252
21
-3.44449
0
LINE
8
BLACK
6
CONTINUOUS
10
4.62598
20
-3.44449
11
4.6063
21
-3.44449
0
LINE
8
BLACK
6
CONTINUOUS
10
4.6063
20
-3.44449
11
4.6063
21
-3.40906
0
LINE
8
BLACK
6
CONTINUOUS
10
4.6063
20
-3.40906
11
4.62598
21
-3.40906
0
LINE
8
BLACK
6
CONTINUOUS
10
4.62598
20
-3.40906
11
4.62598
21
-3.44449
0
LINE
8
BLACK
6
CONTINUOUS
10
4.56693
20
-3.44449
11
4.54724
21
-3.44449
0
LINE
8
BLACK
6
CONTINUOUS
10
4.54724
20
-3.44449
11
4.54724
21
-3.40906
0
LINE
8
BLACK
6
CONTINUOUS
10
4.54724
20
-3.40906
11
4.56693
21
-3.40906
0
LINE
8
BLACK
6
CONTINUOUS
10
4.56693
20
-3.40906
11
4.56693
21
-3.44449
0
LINE
8
BLACK
6
CONTINUOUS
10
5.68937
20
-3.44075
11
5.63031
21
-3.44075
0
LINE
8
BLACK
6
CONTINUOUS
10
5.63031
20
-3.44075
11
5.63031
21
-3.41909
0
LINE
8
BLACK
6
CONTINUOUS
10
5.63031
20
-3.41909
11
5.68937
21
-3.41909
0
LINE
8
BLACK
6
CONTINUOUS
10
5.68937
20
-3.41909
11
5.68937
21
-3.44075
0
LINE
8
BLACK
6
CONTINUOUS
10
5.24055
20
-3.44075
11
5.1815
21
-3.44075
0
LINE
8
BLACK
6
CONTINUOUS
10
5.1815
20
-3.44075
11
5.1815
21
-3.41909
0
LINE
8
BLACK
6
CONTINUOUS
10
5.1815
20
-3.41909
11
5.24055
21
-3.41909
0
LINE
8
BLACK
6
CONTINUOUS
10
5.24055
20
-3.41909
11
5.24055
21
-3.44075
0
LINE
8
BLACK
6
CONTINUOUS
10
4.23839
20
-3.43799
11
4.19114
21
-3.43799
0
LINE
8
BLACK
6
CONTINUOUS
10
4.19114
20
-3.43799
11
4.19114
21
-3.41043
0
LINE
8
BLACK
6
CONTINUOUS
10
4.19114
20
-3.41043
11
4.23839
21
-3.41043
0
LINE
8
BLACK
6
CONTINUOUS
10
4.23839
20
-3.41043
11
4.23839
21
-3.43799
0
LINE
8
BLACK
6
CONTINUOUS
10
5.24055
20
-3.40925
11
5.1815
21
-3.40925
0
LINE
8
BLACK
6
CONTINUOUS
10
5.1815
20
-3.40925
11
5.1815
21
-3.3876
0
LINE
8
BLACK
6
CONTINUOUS
10
5.1815
20
-3.3876
11
5.24055
21
-3.3876
0
LINE
8
BLACK
6
CONTINUOUS
10
5.24055
20
-3.3876
11
5.24055
21
-3.40925
0
LINE
8
BLACK
6
CONTINUOUS
10
5.68937
20
-3.40925
11
5.63031
21
-3.40925
0
LINE
8
BLACK
6
CONTINUOUS
10
5.63031
20
-3.40925
11
5.63031
21
-3.3876
0
LINE
8
BLACK
6
CONTINUOUS
10
5.63031
20
-3.3876
11
5.68937
21
-3.3876
0
LINE
8
BLACK
6
CONTINUOUS
10
5.68937
20
-3.3876
11
5.68937
21
-3.40925
0
LINE
8
BLACK
6
CONTINUOUS
10
4.23839
20
-3.40059
11
4.19114
21
-3.40059
0
LINE
8
BLACK
6
CONTINUOUS
10
4.19114
20
-3.40059
11
4.19114
21
-3.37303
0
LINE
8
BLACK
6
CONTINUOUS
10
4.19114
20
-3.37303
11
4.23839
21
-3.37303
0
LINE
8
BLACK
6
CONTINUOUS
10
4.23839
20
-3.37303
11
4.23839
21
-3.40059
0
LINE
8
BLACK
6
CONTINUOUS
10
5.99567
20
-3.36969
11
5.97598
21
-3.36969
0
LINE
8
BLACK
6
CONTINUOUS
10
5.97598
20
-3.36969
11
5.97598
21
-3.33425
0
LINE
8
BLACK
6
CONTINUOUS
10
5.97598
20
-3.33425
11
5.99567
21
-3.33425
0
LINE
8
BLACK
6
CONTINUOUS
10
5.99567
20
-3.33425
11
5.99567
21
-3.36969
0
LINE
8
BLACK
6
CONTINUOUS
10
6.36102
20
-3.36969
11
6.34134
21
-3.36969
0
LINE
8
BLACK
6
CONTINUOUS
10
6.34134
20
-3.36969
11
6.34134
21
-3.33425
0
LINE
8
BLACK
6
CONTINUOUS
10
6.34134
20
-3.33425
11
6.36102
21
-3.33425
0
LINE
8
BLACK
6
CONTINUOUS
10
6.36102
20
-3.33425
11
6.36102
21
-3.36969
0
LINE
8
BLACK
6
CONTINUOUS
10
6.30197
20
-3.36969
11
6.28228
21
-3.36969
0
LINE
8
BLACK
6
CONTINUOUS
10
6.28228
20
-3.36969
11
6.28228
21
-3.33425
0
LINE
8
BLACK
6
CONTINUOUS
10
6.28228
20
-3.33425
11
6.30197
21
-3.33425
0
LINE
8
BLACK
6
CONTINUOUS
10
6.30197
20
-3.33425
11
6.30197
21
-3.36969
0
LINE
8
BLACK
6
CONTINUOUS
10
6.89173
20
-3.36969
11
6.87205
21
-3.36969
0
LINE
8
BLACK
6
CONTINUOUS
10
6.87205
20
-3.36969
11
6.87205
21
-3.33425
0
LINE
8
BLACK
6
CONTINUOUS
10
6.87205
20
-3.33425
11
6.89173
21
-3.33425
0
LINE
8
BLACK
6
CONTINUOUS
10
6.89173
20
-3.33425
11
6.89173
21
-3.36969
0
LINE
8
BLACK
6
CONTINUOUS
10
6.95079
20
-3.36969
11
6.9311
21
-3.36969
0
LINE
8
BLACK
6
CONTINUOUS
10
6.9311
20
-3.36969
11
6.9311
21
-3.33425
0
LINE
8
BLACK
6
CONTINUOUS
10
6.9311
20
-3.33425
11
6.95079
21
-3.33425
0
LINE
8
BLACK
6
CONTINUOUS
10
6.95079
20
-3.33425
11
6.95079
21
-3.36969
0
LINE
8
BLACK
6
CONTINUOUS
10
5.90354
20
-3.36969
11
5.88386
21
-3.36969
0
LINE
8
BLACK
6
CONTINUOUS
10
5.88386
20
-3.36969
11
5.88386
21
-3.33425
0
LINE
8
BLACK
6
CONTINUOUS
10
5.88386
20
-3.33425
11
5.90354
21
-3.33425
0
LINE
8
BLACK
6
CONTINUOUS
10
5.90354
20
-3.33425
11
5.90354
21
-3.36969
0
LINE
8
BLACK
6
CONTINUOUS
10
5.84449
20
-3.36969
11
5.8248
21
-3.36969
0
LINE
8
BLACK
6
CONTINUOUS
10
5.8248
20
-3.36969
11
5.8248
21
-3.33425
0
LINE
8
BLACK
6
CONTINUOUS
10
5.8248
20
-3.33425
11
5.84449
21
-3.33425
0
LINE
8
BLACK
6
CONTINUOUS
10
5.84449
20
-3.33425
11
5.84449
21
-3.36969
0
LINE
8
BLACK
6
CONTINUOUS
10
6.05472
20
-3.36969
11
6.03504
21
-3.36969
0
LINE
8
BLACK
6
CONTINUOUS
10
6.03504
20
-3.36969
11
6.03504
21
-3.33425
0
LINE
8
BLACK
6
CONTINUOUS
10
6.03504
20
-3.33425
11
6.05472
21
-3.33425
0
LINE
8
BLACK
6
CONTINUOUS
10
6.05472
20
-3.33425
11
6.05472
21
-3.36969
0
LINE
8
BLACK
6
CONTINUOUS
10
3.69311
20
-3.36909
11
3.58287
21
-3.36909
0
LINE
8
BLACK
6
CONTINUOUS
10
3.58287
20
-3.36909
11
3.58287
21
-3.32972
0
LINE
8
BLACK
6
CONTINUOUS
10
3.58287
20
-3.32972
11
3.69311
21
-3.32972
0
LINE
8
BLACK
6
CONTINUOUS
10
3.69311
20
-3.32972
11
3.69311
21
-3.36909
0
LINE
8
BLACK
6
CONTINUOUS
10
3.81713
20
-3.36909
11
3.78563
21
-3.36909
0
LINE
8
BLACK
6
CONTINUOUS
10
3.78563
20
-3.36909
11
3.78563
21
-3.32972
0
LINE
8
BLACK
6
CONTINUOUS
10
3.78563
20
-3.32972
11
3.81713
21
-3.32972
0
LINE
8
BLACK
6
CONTINUOUS
10
3.81713
20
-3.32972
11
3.81713
21
-3.36909
0
LINE
8
BLACK
6
CONTINUOUS
10
4.06909
20
-3.36909
11
4.02185
21
-3.36909
0
LINE
8
BLACK
6
CONTINUOUS
10
4.02185
20
-3.36909
11
4.02185
21
-3.32972
0
LINE
8
BLACK
6
CONTINUOUS
10
4.02185
20
-3.32972
11
4.06909
21
-3.32972
0
LINE
8
BLACK
6
CONTINUOUS
10
4.06909
20
-3.32972
11
4.06909
21
-3.36909
0
LINE
8
BLACK
6
CONTINUOUS
10
6.46142
20
-3.36673
11
6.42992
21
-3.36673
0
LINE
8
BLACK
6
CONTINUOUS
10
6.42992
20
-3.36673
11
6.42992
21
-3.3372
0
LINE
8
BLACK
6
CONTINUOUS
10
6.42992
20
-3.3372
11
6.46142
21
-3.3372
0
LINE
8
BLACK
6
CONTINUOUS
10
6.46142
20
-3.3372
11
6.46142
21
-3.36673
0
LINE
8
BLACK
6
CONTINUOUS
10
6.52047
20
-3.36673
11
6.48898
21
-3.36673
0
LINE
8
BLACK
6
CONTINUOUS
10
6.48898
20
-3.36673
11
6.48898
21
-3.3372
0
LINE
8
BLACK
6
CONTINUOUS
10
6.48898
20
-3.3372
11
6.52047
21
-3.3372
0
LINE
8
BLACK
6
CONTINUOUS
10
6.52047
20
-3.3372
11
6.52047
21
-3.36673
0
LINE
8
BLACK
6
CONTINUOUS
10
6.69961
20
-3.36673
11
6.66811
21
-3.36673
0
LINE
8
BLACK
6
CONTINUOUS
10
6.66811
20
-3.36673
11
6.66811
21
-3.3372
0
LINE
8
BLACK
6
CONTINUOUS
10
6.66811
20
-3.3372
11
6.69961
21
-3.3372
0
LINE
8
BLACK
6
CONTINUOUS
10
6.69961
20
-3.3372
11
6.69961
21
-3.36673
0
LINE
8
BLACK
6
CONTINUOUS
10
6.64055
20
-3.36673
11
6.60906
21
-3.36673
0
LINE
8
BLACK
6
CONTINUOUS
10
6.60906
20
-3.36673
11
6.60906
21
-3.3372
0
LINE
8
BLACK
6
CONTINUOUS
10
6.60906
20
-3.3372
11
6.64055
21
-3.3372
0
LINE
8
BLACK
6
CONTINUOUS
10
6.64055
20
-3.3372
11
6.64055
21
-3.36673
0
LINE
8
BLACK
6
CONTINUOUS
10
6.15118
20
-3.36673
11
6.11969
21
-3.36673
0
LINE
8
BLACK
6
CONTINUOUS
10
6.11969
20
-3.36673
11
6.11969
21
-3.3372
0
LINE
8
BLACK
6
CONTINUOUS
10
6.11969
20
-3.3372
11
6.15118
21
-3.3372
0
LINE
8
BLACK
6
CONTINUOUS
10
6.15118
20
-3.3372
11
6.15118
21
-3.36673
0
LINE
8
BLACK
6
CONTINUOUS
10
6.21024
20
-3.36673
11
6.17874
21
-3.36673
0
LINE
8
BLACK
6
CONTINUOUS
10
6.17874
20
-3.36673
11
6.17874
21
-3.3372
0
LINE
8
BLACK
6
CONTINUOUS
10
6.17874
20
-3.3372
11
6.21024
21
-3.3372
0
LINE
8
BLACK
6
CONTINUOUS
10
6.21024
20
-3.3372
11
6.21024
21
-3.36673
0
LINE
8
BLACK
6
CONTINUOUS
10
5.44626
20
-3.36102
11
5.42461
21
-3.36102
0
LINE
8
BLACK
6
CONTINUOUS
10
5.42461
20
-3.36102
11
5.42461
21
-3.30197
0
LINE
8
BLACK
6
CONTINUOUS
10
5.42461
20
-3.30197
11
5.44626
21
-3.30197
0
LINE
8
BLACK
6
CONTINUOUS
10
5.44626
20
-3.30197
11
5.44626
21
-3.36102
0
LINE
8
BLACK
6
CONTINUOUS
10
5.60374
20
-3.36102
11
5.58209
21
-3.36102
0
LINE
8
BLACK
6
CONTINUOUS
10
5.58209
20
-3.36102
11
5.58209
21
-3.30197
0
LINE
8
BLACK
6
CONTINUOUS
10
5.58209
20
-3.30197
11
5.60374
21
-3.30197
0
LINE
8
BLACK
6
CONTINUOUS
10
5.60374
20
-3.30197
11
5.60374
21
-3.36102
0
LINE
8
BLACK
6
CONTINUOUS
10
5.57224
20
-3.36102
11
5.55059
21
-3.36102
0
LINE
8
BLACK
6
CONTINUOUS
10
5.55059
20
-3.36102
11
5.55059
21
-3.30197
0
LINE
8
BLACK
6
CONTINUOUS
10
5.55059
20
-3.30197
11
5.57224
21
-3.30197
0
LINE
8
BLACK
6
CONTINUOUS
10
5.57224
20
-3.30197
11
5.57224
21
-3.36102
0
LINE
8
BLACK
6
CONTINUOUS
10
5.54075
20
-3.36102
11
5.51909
21
-3.36102
0
LINE
8
BLACK
6
CONTINUOUS
10
5.51909
20
-3.36102
11
5.51909
21
-3.30197
0
LINE
8
BLACK
6
CONTINUOUS
10
5.51909
20
-3.30197
11
5.54075
21
-3.30197
0
LINE
8
BLACK
6
CONTINUOUS
10
5.54075
20
-3.30197
11
5.54075
21
-3.36102
0
LINE
8
BLACK
6
CONTINUOUS
10
5.50925
20
-3.36102
11
5.4876
21
-3.36102
0
LINE
8
BLACK
6
CONTINUOUS
10
5.4876
20
-3.36102
11
5.4876
21
-3.30197
0
LINE
8
BLACK
6
CONTINUOUS
10
5.4876
20
-3.30197
11
5.50925
21
-3.30197
0
LINE
8
BLACK
6
CONTINUOUS
10
5.50925
20
-3.30197
11
5.50925
21
-3.36102
0
LINE
8
BLACK
6
CONTINUOUS
10
5.47776
20
-3.36102
11
5.4561
21
-3.36102
0
LINE
8
BLACK
6
CONTINUOUS
10
5.4561
20
-3.36102
11
5.4561
21
-3.30197
0
LINE
8
BLACK
6
CONTINUOUS
10
5.4561
20
-3.30197
11
5.47776
21
-3.30197
0
LINE
8
BLACK
6
CONTINUOUS
10
5.47776
20
-3.30197
11
5.47776
21
-3.36102
0
LINE
8
BLACK
6
CONTINUOUS
10
5.41476
20
-3.36102
11
5.39311
21
-3.36102
0
LINE
8
BLACK
6
CONTINUOUS
10
5.39311
20
-3.36102
11
5.39311
21
-3.30197
0
LINE
8
BLACK
6
CONTINUOUS
10
5.39311
20
-3.30197
11
5.41476
21
-3.30197
0
LINE
8
BLACK
6
CONTINUOUS
10
5.41476
20
-3.30197
11
5.41476
21
-3.36102
0
LINE
8
BLACK
6
CONTINUOUS
10
5.38327
20
-3.36102
11
5.36161
21
-3.36102
0
LINE
8
BLACK
6
CONTINUOUS
10
5.36161
20
-3.36102
11
5.36161
21
-3.30197
0
LINE
8
BLACK
6
CONTINUOUS
10
5.36161
20
-3.30197
11
5.38327
21
-3.30197
0
LINE
8
BLACK
6
CONTINUOUS
10
5.38327
20
-3.30197
11
5.38327
21
-3.36102
0
LINE
8
BLACK
6
CONTINUOUS
10
5.28878
20
-3.36102
11
5.26713
21
-3.36102
0
LINE
8
BLACK
6
CONTINUOUS
10
5.26713
20
-3.36102
11
5.26713
21
-3.30197
0
LINE
8
BLACK
6
CONTINUOUS
10
5.26713
20
-3.30197
11
5.28878
21
-3.30197
0
LINE
8
BLACK
6
CONTINUOUS
10
5.28878
20
-3.30197
11
5.28878
21
-3.36102
0
LINE
8
BLACK
6
CONTINUOUS
10
5.35177
20
-3.36102
11
5.33012
21
-3.36102
0
LINE
8
BLACK
6
CONTINUOUS
10
5.33012
20
-3.36102
11
5.33012
21
-3.30197
0
LINE
8
BLACK
6
CONTINUOUS
10
5.33012
20
-3.30197
11
5.35177
21
-3.30197
0
LINE
8
BLACK
6
CONTINUOUS
10
5.35177
20
-3.30197
11
5.35177
21
-3.36102
0
LINE
8
BLACK
6
CONTINUOUS
10
5.32028
20
-3.36102
11
5.29862
21
-3.36102
0
LINE
8
BLACK
6
CONTINUOUS
10
5.29862
20
-3.36102
11
5.29862
21
-3.30197
0
LINE
8
BLACK
6
CONTINUOUS
10
5.29862
20
-3.30197
11
5.32028
21
-3.30197
0
LINE
8
BLACK
6
CONTINUOUS
10
5.32028
20
-3.30197
11
5.32028
21
-3.36102
0
LINE
8
BLACK
6
CONTINUOUS
10
4.79291
20
-3.35551
11
4.72598
21
-3.35551
0
LINE
8
BLACK
6
CONTINUOUS
10
4.72598
20
-3.35551
11
4.72598
21
-3.30433
0
LINE
8
BLACK
6
CONTINUOUS
10
4.72598
20
-3.30433
11
4.79291
21
-3.30433
0
LINE
8
BLACK
6
CONTINUOUS
10
4.79291
20
-3.30433
11
4.79291
21
-3.35551
0
LINE
8
BLACK
6
CONTINUOUS
10
5.13465
20
-3.3378
11
5.11496
21
-3.3378
0
LINE
8
BLACK
6
CONTINUOUS
10
5.11496
20
-3.3378
11
5.11496
21
-3.30236
0
LINE
8
BLACK
6
CONTINUOUS
10
5.11496
20
-3.30236
11
5.13465
21
-3.30236
0
LINE
8
BLACK
6
CONTINUOUS
10
5.13465
20
-3.30236
11
5.13465
21
-3.3378
0
LINE
8
BLACK
6
CONTINUOUS
10
5.1937
20
-3.3378
11
5.17402
21
-3.3378
0
LINE
8
BLACK
6
CONTINUOUS
10
5.17402
20
-3.3378
11
5.17402
21
-3.30236
0
LINE
8
BLACK
6
CONTINUOUS
10
5.17402
20
-3.30236
11
5.1937
21
-3.30236
0
LINE
8
BLACK
6
CONTINUOUS
10
5.1937
20
-3.30236
11
5.1937
21
-3.3378
0
LINE
8
BLACK
6
CONTINUOUS
10
5.65039
20
-3.28583
11
5.61496
21
-3.28583
0
LINE
8
BLACK
6
CONTINUOUS
10
5.61496
20
-3.28583
11
5.61496
21
-3.26614
0
LINE
8
BLACK
6
CONTINUOUS
10
5.61496
20
-3.26614
11
5.65039
21
-3.26614
0
LINE
8
BLACK
6
CONTINUOUS
10
5.65039
20
-3.26614
11
5.65039
21
-3.28583
0
LINE
8
BLACK
6
CONTINUOUS
10
5.77362
20
-3.28583
11
5.73819
21
-3.28583
0
LINE
8
BLACK
6
CONTINUOUS
10
5.73819
20
-3.28583
11
5.73819
21
-3.26614
0
LINE
8
BLACK
6
CONTINUOUS
10
5.73819
20
-3.26614
11
5.77362
21
-3.26614
0
LINE
8
BLACK
6
CONTINUOUS
10
5.77362
20
-3.26614
11
5.77362
21
-3.28583
0
LINE
8
BLACK
6
CONTINUOUS
10
5.88189
20
-3.28583
11
5.84646
21
-3.28583
0
LINE
8
BLACK
6
CONTINUOUS
10
5.84646
20
-3.28583
11
5.84646
21
-3.26614
0
LINE
8
BLACK
6
CONTINUOUS
10
5.84646
20
-3.26614
11
5.88189
21
-3.26614
0
LINE
8
BLACK
6
CONTINUOUS
10
5.88189
20
-3.26614
11
5.88189
21
-3.28583
0
LINE
8
BLACK
6
CONTINUOUS
10
6.27185
20
-3.26752
11
6.21083
21
-3.26752
0
LINE
8
BLACK
6
CONTINUOUS
10
6.21083
20
-3.26752
11
6.21083
21
-3.2439
0
LINE
8
BLACK
6
CONTINUOUS
10
6.21083
20
-3.2439
11
6.27185
21
-3.2439
0
LINE
8
BLACK
6
CONTINUOUS
10
6.27185
20
-3.2439
11
6.27185
21
-3.26752
0
LINE
8
BLACK
6
CONTINUOUS
10
6.05925
20
-3.26752
11
5.99823
21
-3.26752
0
LINE
8
BLACK
6
CONTINUOUS
10
5.99823
20
-3.26752
11
5.99823
21
-3.2439
0
LINE
8
BLACK
6
CONTINUOUS
10
5.99823
20
-3.2439
11
6.05925
21
-3.2439
0
LINE
8
BLACK
6
CONTINUOUS
10
6.05925
20
-3.2439
11
6.05925
21
-3.26752
0
LINE
8
BLACK
6
CONTINUOUS
10
6.89173
20
-3.26732
11
6.87205
21
-3.26732
0
LINE
8
BLACK
6
CONTINUOUS
10
6.87205
20
-3.26732
11
6.87205
21
-3.23189
0
LINE
8
BLACK
6
CONTINUOUS
10
6.87205
20
-3.23189
11
6.89173
21
-3.23189
0
LINE
8
BLACK
6
CONTINUOUS
10
6.89173
20
-3.23189
11
6.89173
21
-3.26732
0
LINE
8
BLACK
6
CONTINUOUS
10
6.95079
20
-3.26732
11
6.9311
21
-3.26732
0
LINE
8
BLACK
6
CONTINUOUS
10
6.9311
20
-3.26732
11
6.9311
21
-3.23189
0
LINE
8
BLACK
6
CONTINUOUS
10
6.9311
20
-3.23189
11
6.95079
21
-3.23189
0
LINE
8
BLACK
6
CONTINUOUS
10
6.95079
20
-3.23189
11
6.95079
21
-3.26732
0
LINE
8
BLACK
6
CONTINUOUS
10
3.98031
20
-3.26516
11
3.93858
21
-3.26516
0
LINE
8
BLACK
6
CONTINUOUS
10
3.93858
20
-3.26516
11
3.93858
21
-3.23957
0
LINE
8
BLACK
6
CONTINUOUS
10
3.93858
20
-3.23957
11
3.98031
21
-3.23957
0
LINE
8
BLACK
6
CONTINUOUS
10
3.98031
20
-3.23957
11
3.98031
21
-3.26516
0
LINE
8
BLACK
6
CONTINUOUS
10
3.8937
20
-3.26516
11
3.85197
21
-3.26516
0
LINE
8
BLACK
6
CONTINUOUS
10
3.85197
20
-3.26516
11
3.85197
21
-3.23957
0
LINE
8
BLACK
6
CONTINUOUS
10
3.85197
20
-3.23957
11
3.8937
21
-3.23957
0
LINE
8
BLACK
6
CONTINUOUS
10
3.8937
20
-3.23957
11
3.8937
21
-3.26516
0
LINE
8
BLACK
6
CONTINUOUS
10
5.1937
20
-3.25551
11
5.17402
21
-3.25551
0
LINE
8
BLACK
6
CONTINUOUS
10
5.17402
20
-3.25551
11
5.17402
21
-3.22008
0
LINE
8
BLACK
6
CONTINUOUS
10
5.17402
20
-3.22008
11
5.1937
21
-3.22008
0
LINE
8
BLACK
6
CONTINUOUS
10
5.1937
20
-3.22008
11
5.1937
21
-3.25551
0
LINE
8
BLACK
6
CONTINUOUS
10
5.13465
20
-3.25551
11
5.11496
21
-3.25551
0
LINE
8
BLACK
6
CONTINUOUS
10
5.11496
20
-3.25551
11
5.11496
21
-3.22008
0
LINE
8
BLACK
6
CONTINUOUS
10
5.11496
20
-3.22008
11
5.13465
21
-3.22008
0
LINE
8
BLACK
6
CONTINUOUS
10
5.13465
20
-3.22008
11
5.13465
21
-3.25551
0
LINE
8
BLACK
6
CONTINUOUS
10
6.37303
20
-3.25492
11
6.3376
21
-3.25492
0
LINE
8
BLACK
6
CONTINUOUS
10
6.3376
20
-3.25492
11
6.3376
21
-3.23524
0
LINE
8
BLACK
6
CONTINUOUS
10
6.3376
20
-3.23524
11
6.37303
21
-3.23524
0
LINE
8
BLACK
6
CONTINUOUS
10
6.37303
20
-3.23524
11
6.37303
21
-3.25492
0
LINE
8
BLACK
6
CONTINUOUS
10
6.46732
20
-3.25472
11
6.43189
21
-3.25472
0
LINE
8
BLACK
6
CONTINUOUS
10
6.43189
20
-3.25472
11
6.43189
21
-3.23504
0
LINE
8
BLACK
6
CONTINUOUS
10
6.43189
20
-3.23504
11
6.46732
21
-3.23504
0
LINE
8
BLACK
6
CONTINUOUS
10
6.46732
20
-3.23504
11
6.46732
21
-3.25472
0
LINE
8
BLACK
6
CONTINUOUS
10
3.65394
20
-3.24776
11
3.62244
21
-3.24776
0
LINE
8
BLACK
6
CONTINUOUS
10
3.62244
20
-3.24776
11
3.62244
21
-3.21823
0
LINE
8
BLACK
6
CONTINUOUS
10
3.62244
20
-3.21823
11
3.65394
21
-3.21823
0
LINE
8
BLACK
6
CONTINUOUS
10
3.65394
20
-3.21823
11
3.65394
21
-3.24776
0
LINE
8
BLACK
6
CONTINUOUS
10
3.71299
20
-3.24776
11
3.6815
21
-3.24776
0
LINE
8
BLACK
6
CONTINUOUS
10
3.6815
20
-3.24776
11
3.6815
21
-3.21823
0
LINE
8
BLACK
6
CONTINUOUS
10
3.6815
20
-3.21823
11
3.71299
21
-3.21823
0
LINE
8
BLACK
6
CONTINUOUS
10
3.71299
20
-3.21823
11
3.71299
21
-3.24776
0
LINE
8
BLACK
6
CONTINUOUS
10
4.33858
20
-3.23465
11
4.23819
21
-3.23465
0
LINE
8
BLACK
6
CONTINUOUS
10
4.23819
20
-3.23465
11
4.23819
21
-3.13622
0
LINE
8
BLACK
6
CONTINUOUS
10
4.23819
20
-3.13622
11
4.33858
21
-3.13622
0
LINE
8
BLACK
6
CONTINUOUS
10
4.33858
20
-3.13622
11
4.33858
21
-3.23465
0
LINE
8
BLACK
6
CONTINUOUS
10
4.13976
20
-3.23465
11
4.03937
21
-3.23465
0
LINE
8
BLACK
6
CONTINUOUS
10
4.03937
20
-3.23465
11
4.03937
21
-3.13622
0
LINE
8
BLACK
6
CONTINUOUS
10
4.03937
20
-3.13622
11
4.13976
21
-3.13622
0
LINE
8
BLACK
6
CONTINUOUS
10
4.13976
20
-3.13622
11
4.13976
21
-3.23465
0
LINE
8
BLACK
6
CONTINUOUS
10
5.48071
20
-3.22854
11
5.44921
21
-3.22854
0
LINE
8
BLACK
6
CONTINUOUS
10
5.44921
20
-3.22854
11
5.44921
21
-3.19902
0
LINE
8
BLACK
6
CONTINUOUS
10
5.44921
20
-3.19902
11
5.48071
21
-3.19902
0
LINE
8
BLACK
6
CONTINUOUS
10
5.48071
20
-3.19902
11
5.48071
21
-3.22854
0
LINE
8
BLACK
6
CONTINUOUS
10
5.42165
20
-3.22854
11
5.39016
21
-3.22854
0
LINE
8
BLACK
6
CONTINUOUS
10
5.39016
20
-3.22854
11
5.39016
21
-3.19902
0
LINE
8
BLACK
6
CONTINUOUS
10
5.39016
20
-3.19902
11
5.42165
21
-3.19902
0
LINE
8
BLACK
6
CONTINUOUS
10
5.42165
20
-3.19902
11
5.42165
21
-3.22854
0
LINE
8
BLACK
6
CONTINUOUS
10
3.8937
20
-3.22776
11
3.85197
21
-3.22776
0
LINE
8
BLACK
6
CONTINUOUS
10
3.85197
20
-3.22776
11
3.85197
21
-3.20217
0
LINE
8
BLACK
6
CONTINUOUS
10
3.85197
20
-3.20217
11
3.8937
21
-3.20217
0
LINE
8
BLACK
6
CONTINUOUS
10
3.8937
20
-3.20217
11
3.8937
21
-3.22776
0
LINE
8
BLACK
6
CONTINUOUS
10
3.98031
20
-3.22776
11
3.93858
21
-3.22776
0
LINE
8
BLACK
6
CONTINUOUS
10
3.93858
20
-3.22776
11
3.93858
21
-3.20217
0
LINE
8
BLACK
6
CONTINUOUS
10
3.93858
20
-3.20217
11
3.98031
21
-3.20217
0
LINE
8
BLACK
6
CONTINUOUS
10
3.98031
20
-3.20217
11
3.98031
21
-3.22776
0
LINE
8
BLACK
6
CONTINUOUS
10
5.77362
20
-3.22677
11
5.73819
21
-3.22677
0
LINE
8
BLACK
6
CONTINUOUS
10
5.73819
20
-3.22677
11
5.73819
21
-3.20709
0
LINE
8
BLACK
6
CONTINUOUS
10
5.73819
20
-3.20709
11
5.77362
21
-3.20709
0
LINE
8
BLACK
6
CONTINUOUS
10
5.77362
20
-3.20709
11
5.77362
21
-3.22677
0
LINE
8
BLACK
6
CONTINUOUS
10
5.65039
20
-3.22677
11
5.61496
21
-3.22677
0
LINE
8
BLACK
6
CONTINUOUS
10
5.61496
20
-3.22677
11
5.61496
21
-3.20709
0
LINE
8
BLACK
6
CONTINUOUS
10
5.61496
20
-3.20709
11
5.65039
21
-3.20709
0
LINE
8
BLACK
6
CONTINUOUS
10
5.65039
20
-3.20709
11
5.65039
21
-3.22677
0
LINE
8
BLACK
6
CONTINUOUS
10
5.88189
20
-3.22677
11
5.84646
21
-3.22677
0
LINE
8
BLACK
6
CONTINUOUS
10
5.84646
20
-3.22677
11
5.84646
21
-3.20709
0
LINE
8
BLACK
6
CONTINUOUS
10
5.84646
20
-3.20709
11
5.88189
21
-3.20709
0
LINE
8
BLACK
6
CONTINUOUS
10
5.88189
20
-3.20709
11
5.88189
21
-3.22677
0
LINE
8
BLACK
6
CONTINUOUS
10
4.79291
20
-3.21772
11
4.72598
21
-3.21772
0
LINE
8
BLACK
6
CONTINUOUS
10
4.72598
20
-3.21772
11
4.72598
21
-3.16654
0
LINE
8
BLACK
6
CONTINUOUS
10
4.72598
20
-3.16654
11
4.79291
21
-3.16654
0
LINE
8
BLACK
6
CONTINUOUS
10
4.79291
20
-3.16654
11
4.79291
21
-3.21772
0
LINE
8
BLACK
6
CONTINUOUS
10
6.27185
20
-3.21752
11
6.21083
21
-3.21752
0
LINE
8
BLACK
6
CONTINUOUS
10
6.21083
20
-3.21752
11
6.21083
21
-3.1939
0
LINE
8
BLACK
6
CONTINUOUS
10
6.21083
20
-3.1939
11
6.27185
21
-3.1939
0
LINE
8
BLACK
6
CONTINUOUS
10
6.27185
20
-3.1939
11
6.27185
21
-3.21752
0
LINE
8
BLACK
6
CONTINUOUS
10
6.05925
20
-3.21752
11
5.99823
21
-3.21752
0
LINE
8
BLACK
6
CONTINUOUS
10
5.99823
20
-3.21752
11
5.99823
21
-3.1939
0
LINE
8
BLACK
6
CONTINUOUS
10
5.99823
20
-3.1939
11
6.05925
21
-3.1939
0
LINE
8
BLACK
6
CONTINUOUS
10
6.05925
20
-3.1939
11
6.05925
21
-3.21752
0
LINE
8
BLACK
6
CONTINUOUS
10
6.37303
20
-3.19587
11
6.3376
21
-3.19587
0
LINE
8
BLACK
6
CONTINUOUS
10
6.3376
20
-3.19587
11
6.3376
21
-3.17618
0
LINE
8
BLACK
6
CONTINUOUS
10
6.3376
20
-3.17618
11
6.37303
21
-3.17618
0
LINE
8
BLACK
6
CONTINUOUS
10
6.37303
20
-3.17618
11
6.37303
21
-3.19587
0
LINE
8
BLACK
6
CONTINUOUS
10
6.46732
20
-3.19567
11
6.43189
21
-3.19567
0
LINE
8
BLACK
6
CONTINUOUS
10
6.43189
20
-3.19567
11
6.43189
21
-3.17598
0
LINE
8
BLACK
6
CONTINUOUS
10
6.43189
20
-3.17598
11
6.46732
21
-3.17598
0
LINE
8
BLACK
6
CONTINUOUS
10
6.46732
20
-3.17598
11
6.46732
21
-3.19567
0
LINE
8
BLACK
6
CONTINUOUS
10
3.8937
20
-3.19035
11
3.85197
21
-3.19035
0
LINE
8
BLACK
6
CONTINUOUS
10
3.85197
20
-3.19035
11
3.85197
21
-3.16476
0
LINE
8
BLACK
6
CONTINUOUS
10
3.85197
20
-3.16476
11
3.8937
21
-3.16476
0
LINE
8
BLACK
6
CONTINUOUS
10
3.8937
20
-3.16476
11
3.8937
21
-3.19035
0
LINE
8
BLACK
6
CONTINUOUS
10
3.98031
20
-3.19035
11
3.93858
21
-3.19035
0
LINE
8
BLACK
6
CONTINUOUS
10
3.93858
20
-3.19035
11
3.93858
21
-3.16476
0
LINE
8
BLACK
6
CONTINUOUS
10
3.93858
20
-3.16476
11
3.98031
21
-3.16476
0
LINE
8
BLACK
6
CONTINUOUS
10
3.98031
20
-3.16476
11
3.98031
21
-3.19035
0
LINE
8
BLACK
6
CONTINUOUS
10
6.27185
20
-3.16752
11
6.21083
21
-3.16752
0
LINE
8
BLACK
6
CONTINUOUS
10
6.21083
20
-3.16752
11
6.21083
21
-3.1439
0
LINE
8
BLACK
6
CONTINUOUS
10
6.21083
20
-3.1439
11
6.27185
21
-3.1439
0
LINE
8
BLACK
6
CONTINUOUS
10
6.27185
20
-3.1439
11
6.27185
21
-3.16752
0
LINE
8
BLACK
6
CONTINUOUS
10
6.05925
20
-3.16752
11
5.99823
21
-3.16752
0
LINE
8
BLACK
6
CONTINUOUS
10
5.99823
20
-3.16752
11
5.99823
21
-3.1439
0
LINE
8
BLACK
6
CONTINUOUS
10
5.99823
20
-3.1439
11
6.05925
21
-3.1439
0
LINE
8
BLACK
6
CONTINUOUS
10
6.05925
20
-3.1439
11
6.05925
21
-3.16752
0
LINE
8
BLACK
6
CONTINUOUS
10
5.22008
20
-3.16575
11
5.14134
21
-3.16575
0
LINE
8
BLACK
6
CONTINUOUS
10
5.14134
20
-3.16575
11
5.14134
21
-3.07126
0
LINE
8
BLACK
6
CONTINUOUS
10
5.14134
20
-3.07126
11
5.22008
21
-3.07126
0
LINE
8
BLACK
6
CONTINUOUS
10
5.22008
20
-3.07126
11
5.22008
21
-3.16575
0
LINE
8
BLACK
6
CONTINUOUS
10
5.36575
20
-3.16575
11
5.28701
21
-3.16575
0
LINE
8
BLACK
6
CONTINUOUS
10
5.28701
20
-3.16575
11
5.28701
21
-3.07126
0
LINE
8
BLACK
6
CONTINUOUS
10
5.28701
20
-3.07126
11
5.36575
21
-3.07126
0
LINE
8
BLACK
6
CONTINUOUS
10
5.36575
20
-3.07126
11
5.36575
21
-3.16575
0
LINE
8
BLACK
6
CONTINUOUS
10
5.65039
20
-3.16299
11
5.61496
21
-3.16299
0
LINE
8
BLACK
6
CONTINUOUS
10
5.61496
20
-3.16299
11
5.61496
21
-3.14331
0
LINE
8
BLACK
6
CONTINUOUS
10
5.61496
20
-3.14331
11
5.65039
21
-3.14331
0
LINE
8
BLACK
6
CONTINUOUS
10
5.65039
20
-3.14331
11
5.65039
21
-3.16299
0
LINE
8
BLACK
6
CONTINUOUS
10
5.77402
20
-3.16299
11
5.73858
21
-3.16299
0
LINE
8
BLACK
6
CONTINUOUS
10
5.73858
20
-3.16299
11
5.73858
21
-3.14331
0
LINE
8
BLACK
6
CONTINUOUS
10
5.73858
20
-3.14331
11
5.77402
21
-3.14331
0
LINE
8
BLACK
6
CONTINUOUS
10
5.77402
20
-3.14331
11
5.77402
21
-3.16299
0
LINE
8
BLACK
6
CONTINUOUS
10
5.88465
20
-3.16299
11
5.84921
21
-3.16299
0
LINE
8
BLACK
6
CONTINUOUS
10
5.84921
20
-3.16299
11
5.84921
21
-3.14331
0
LINE
8
BLACK
6
CONTINUOUS
10
5.84921
20
-3.14331
11
5.88465
21
-3.14331
0
LINE
8
BLACK
6
CONTINUOUS
10
5.88465
20
-3.14331
11
5.88465
21
-3.16299
0
LINE
8
BLACK
6
CONTINUOUS
10
4.62598
20
-3.13661
11
4.6063
21
-3.13661
0
LINE
8
BLACK
6
CONTINUOUS
10
4.6063
20
-3.13661
11
4.6063
21
-3.10118
0
LINE
8
BLACK
6
CONTINUOUS
10
4.6063
20
-3.10118
11
4.62598
21
-3.10118
0
LINE
8
BLACK
6
CONTINUOUS
10
4.62598
20
-3.10118
11
4.62598
21
-3.13661
0
LINE
8
BLACK
6
CONTINUOUS
10
4.56693
20
-3.13661
11
4.54724
21
-3.13661
0
LINE
8
BLACK
6
CONTINUOUS
10
4.54724
20
-3.13661
11
4.54724
21
-3.10118
0
LINE
8
BLACK
6
CONTINUOUS
10
4.54724
20
-3.10118
11
4.56693
21
-3.10118
0
LINE
8
BLACK
6
CONTINUOUS
10
4.56693
20
-3.10118
11
4.56693
21
-3.13661
0
LINE
8
BLACK
6
CONTINUOUS
10
4.4252
20
-3.13622
11
4.40551
21
-3.13622
0
LINE
8
BLACK
6
CONTINUOUS
10
4.40551
20
-3.13622
11
4.40551
21
-3.10079
0
LINE
8
BLACK
6
CONTINUOUS
10
4.40551
20
-3.10079
11
4.4252
21
-3.10079
0
LINE
8
BLACK
6
CONTINUOUS
10
4.4252
20
-3.10079
11
4.4252
21
-3.13622
0
LINE
8
BLACK
6
CONTINUOUS
10
4.48425
20
-3.13622
11
4.46457
21
-3.13622
0
LINE
8
BLACK
6
CONTINUOUS
10
4.46457
20
-3.13622
11
4.46457
21
-3.10079
0
LINE
8
BLACK
6
CONTINUOUS
10
4.46457
20
-3.10079
11
4.48425
21
-3.10079
0
LINE
8
BLACK
6
CONTINUOUS
10
4.48425
20
-3.10079
11
4.48425
21
-3.13622
0
LINE
8
BLACK
6
CONTINUOUS
10
6.27185
20
-3.11752
11
6.21083
21
-3.11752
0
LINE
8
BLACK
6
CONTINUOUS
10
6.21083
20
-3.11752
11
6.21083
21
-3.0939
0
LINE
8
BLACK
6
CONTINUOUS
10
6.21083
20
-3.0939
11
6.27185
21
-3.0939
0
LINE
8
BLACK
6
CONTINUOUS
10
6.27185
20
-3.0939
11
6.27185
21
-3.11752
0
LINE
8
BLACK
6
CONTINUOUS
10
6.05925
20
-3.11752
11
5.99823
21
-3.11752
0
LINE
8
BLACK
6
CONTINUOUS
10
5.99823
20
-3.11752
11
5.99823
21
-3.0939
0
LINE
8
BLACK
6
CONTINUOUS
10
5.99823
20
-3.0939
11
6.05925
21
-3.0939
0
LINE
8
BLACK
6
CONTINUOUS
10
6.05925
20
-3.0939
11
6.05925
21
-3.11752
0
LINE
8
BLACK
6
CONTINUOUS
10
5.77402
20
-3.10394
11
5.73858
21
-3.10394
0
LINE
8
BLACK
6
CONTINUOUS
10
5.73858
20
-3.10394
11
5.73858
21
-3.08425
0
LINE
8
BLACK
6
CONTINUOUS
10
5.73858
20
-3.08425
11
5.77402
21
-3.08425
0
LINE
8
BLACK
6
CONTINUOUS
10
5.77402
20
-3.08425
11
5.77402
21
-3.10394
0
LINE
8
BLACK
6
CONTINUOUS
10
5.88465
20
-3.10394
11
5.84921
21
-3.10394
0
LINE
8
BLACK
6
CONTINUOUS
10
5.84921
20
-3.10394
11
5.84921
21
-3.08425
0
LINE
8
BLACK
6
CONTINUOUS
10
5.84921
20
-3.08425
11
5.88465
21
-3.08425
0
LINE
8
BLACK
6
CONTINUOUS
10
5.88465
20
-3.08425
11
5.88465
21
-3.10394
0
LINE
8
BLACK
6
CONTINUOUS
10
5.65039
20
-3.10394
11
5.61496
21
-3.10394
0
LINE
8
BLACK
6
CONTINUOUS
10
5.61496
20
-3.10394
11
5.61496
21
-3.08425
0
LINE
8
BLACK
6
CONTINUOUS
10
5.61496
20
-3.08425
11
5.65039
21
-3.08425
0
LINE
8
BLACK
6
CONTINUOUS
10
5.65039
20
-3.08425
11
5.65039
21
-3.10394
0
LINE
8
BLACK
6
CONTINUOUS
10
4.79173
20
-3.10157
11
4.7563
21
-3.10157
0
LINE
8
BLACK
6
CONTINUOUS
10
4.7563
20
-3.10157
11
4.7563
21
-3.07008
0
LINE
8
BLACK
6
CONTINUOUS
10
4.7563
20
-3.07008
11
4.79173
21
-3.07008
0
LINE
8
BLACK
6
CONTINUOUS
10
4.79173
20
-3.07008
11
4.79173
21
-3.10157
0
LINE
8
BLACK
6
CONTINUOUS
10
4.71299
20
-3.06417
11
4.67756
21
-3.06417
0
LINE
8
BLACK
6
CONTINUOUS
10
4.67756
20
-3.06417
11
4.67756
21
-3.03268
0
LINE
8
BLACK
6
CONTINUOUS
10
4.67756
20
-3.03268
11
4.71299
21
-3.03268
0
LINE
8
BLACK
6
CONTINUOUS
10
4.71299
20
-3.03268
11
4.71299
21
-3.06417
0
LINE
8
BLACK
6
CONTINUOUS
10
4.0563
20
-3.04035
11
4.04449
21
-3.04035
0
LINE
8
BLACK
6
CONTINUOUS
10
4.04449
20
-3.04035
11
4.04449
21
-3.00689
0
LINE
8
BLACK
6
CONTINUOUS
10
4.04449
20
-3.00689
11
4.0563
21
-3.00689
0
LINE
8
BLACK
6
CONTINUOUS
10
4.0563
20
-3.00689
11
4.0563
21
-3.04035
0
LINE
8
BLACK
6
CONTINUOUS
10
4.07598
20
-3.04035
11
4.06417
21
-3.04035
0
LINE
8
BLACK
6
CONTINUOUS
10
4.06417
20
-3.04035
11
4.06417
21
-3.00689
0
LINE
8
BLACK
6
CONTINUOUS
10
4.06417
20
-3.00689
11
4.07598
21
-3.00689
0
LINE
8
BLACK
6
CONTINUOUS
10
4.07598
20
-3.00689
11
4.07598
21
-3.04035
0
LINE
8
BLACK
6
CONTINUOUS
10
4.09567
20
-3.04035
11
4.08386
21
-3.04035
0
LINE
8
BLACK
6
CONTINUOUS
10
4.08386
20
-3.04035
11
4.08386
21
-3.00689
0
LINE
8
BLACK
6
CONTINUOUS
10
4.08386
20
-3.00689
11
4.09567
21
-3.00689
0
LINE
8
BLACK
6
CONTINUOUS
10
4.09567
20
-3.00689
11
4.09567
21
-3.04035
0
LINE
8
BLACK
6
CONTINUOUS
10
4.11535
20
-3.04035
11
4.10354
21
-3.04035
0
LINE
8
BLACK
6
CONTINUOUS
10
4.10354
20
-3.04035
11
4.10354
21
-3.00689
0
LINE
8
BLACK
6
CONTINUOUS
10
4.10354
20
-3.00689
11
4.11535
21
-3.00689
0
LINE
8
BLACK
6
CONTINUOUS
10
4.11535
20
-3.00689
11
4.11535
21
-3.04035
0
LINE
8
BLACK
6
CONTINUOUS
10
4.13504
20
-3.04035
11
4.12323
21
-3.04035
0
LINE
8
BLACK
6
CONTINUOUS
10
4.12323
20
-3.04035
11
4.12323
21
-3.00689
0
LINE
8
BLACK
6
CONTINUOUS
10
4.12323
20
-3.00689
11
4.13504
21
-3.00689
0
LINE
8
BLACK
6
CONTINUOUS
10
4.13504
20
-3.00689
11
4.13504
21
-3.04035
0
LINE
8
BLACK
6
CONTINUOUS
10
4.15472
20
-3.04035
11
4.14291
21
-3.04035
0
LINE
8
BLACK
6
CONTINUOUS
10
4.14291
20
-3.04035
11
4.14291
21
-3.00689
0
LINE
8
BLACK
6
CONTINUOUS
10
4.14291
20
-3.00689
11
4.15472
21
-3.00689
0
LINE
8
BLACK
6
CONTINUOUS
10
4.15472
20
-3.00689
11
4.15472
21
-3.04035
0
LINE
8
BLACK
6
CONTINUOUS
10
6.57874
20
-3.03858
11
6.55906
21
-3.03858
0
LINE
8
BLACK
6
CONTINUOUS
10
6.55906
20
-3.03858
11
6.55906
21
-3.00315
0
LINE
8
BLACK
6
CONTINUOUS
10
6.55906
20
-3.00315
11
6.57874
21
-3.00315
0
LINE
8
BLACK
6
CONTINUOUS
10
6.57874
20
-3.00315
11
6.57874
21
-3.03858
0
LINE
8
BLACK
6
CONTINUOUS
10
6.51969
20
-3.03858
11
6.5
21
-3.03858
0
LINE
8
BLACK
6
CONTINUOUS
10
6.5
20
-3.03858
11
6.5
21
-3.00315
0
LINE
8
BLACK
6
CONTINUOUS
10
6.5
20
-3.00315
11
6.51969
21
-3.00315
0
LINE
8
BLACK
6
CONTINUOUS
10
6.51969
20
-3.00315
11
6.51969
21
-3.03858
0
LINE
8
BLACK
6
CONTINUOUS
10
6.37402
20
-3.03563
11
6.34252
21
-3.03563
0
LINE
8
BLACK
6
CONTINUOUS
10
6.34252
20
-3.03563
11
6.34252
21
-3.0061
0
LINE
8
BLACK
6
CONTINUOUS
10
6.34252
20
-3.0061
11
6.37402
21
-3.0061
0
LINE
8
BLACK
6
CONTINUOUS
10
6.37402
20
-3.0061
11
6.37402
21
-3.03563
0
LINE
8
BLACK
6
CONTINUOUS
10
6.43307
20
-3.03563
11
6.40157
21
-3.03563
0
LINE
8
BLACK
6
CONTINUOUS
10
6.40157
20
-3.03563
11
6.40157
21
-3.0061
0
LINE
8
BLACK
6
CONTINUOUS
10
6.40157
20
-3.0061
11
6.43307
21
-3.0061
0
LINE
8
BLACK
6
CONTINUOUS
10
6.43307
20
-3.0061
11
6.43307
21
-3.03563
0
LINE
8
BLACK
6
CONTINUOUS
10
6.23504
20
-3.03524
11
6.20354
21
-3.03524
0
LINE
8
BLACK
6
CONTINUOUS
10
6.20354
20
-3.03524
11
6.20354
21
-3.00571
0
LINE
8
BLACK
6
CONTINUOUS
10
6.20354
20
-3.00571
11
6.23504
21
-3.00571
0
LINE
8
BLACK
6
CONTINUOUS
10
6.23504
20
-3.00571
11
6.23504
21
-3.03524
0
LINE
8
BLACK
6
CONTINUOUS
10
6.17598
20
-3.03524
11
6.14449
21
-3.03524
0
LINE
8
BLACK
6
CONTINUOUS
10
6.14449
20
-3.03524
11
6.14449
21
-3.00571
0
LINE
8
BLACK
6
CONTINUOUS
10
6.14449
20
-3.00571
11
6.17598
21
-3.00571
0
LINE
8
BLACK
6
CONTINUOUS
10
6.17598
20
-3.00571
11
6.17598
21
-3.03524
0
LINE
8
BLACK
6
CONTINUOUS
10
4.41063
20
-3.0315
11
4.3122
21
-3.0315
0
LINE
8
BLACK
6
CONTINUOUS
10
4.3122
20
-3.0315
11
4.3122
21
-2.9311
0
LINE
8
BLACK
6
CONTINUOUS
10
4.3122
20
-2.9311
11
4.41063
21
-2.9311
0
LINE
8
BLACK
6
CONTINUOUS
10
4.41063
20
-2.9311
11
4.41063
21
-3.0315
0
LINE
8
BLACK
6
CONTINUOUS
10
4.59055
20
-3.02756
11
4.49213
21
-3.02756
0
LINE
8
BLACK
6
CONTINUOUS
10
4.49213
20
-3.02756
11
4.49213
21
-2.95079
0
LINE
8
BLACK
6
CONTINUOUS
10
4.49213
20
-2.95079
11
4.59055
21
-2.95079
0
LINE
8
BLACK
6
CONTINUOUS
10
4.59055
20
-2.95079
11
4.59055
21
-3.02756
0
LINE
8
BLACK
6
CONTINUOUS
10
4.79173
20
-3.02677
11
4.7563
21
-3.02677
0
LINE
8
BLACK
6
CONTINUOUS
10
4.7563
20
-3.02677
11
4.7563
21
-2.99528
0
LINE
8
BLACK
6
CONTINUOUS
10
4.7563
20
-2.99528
11
4.79173
21
-2.99528
0
LINE
8
BLACK
6
CONTINUOUS
10
4.79173
20
-2.99528
11
4.79173
21
-3.02677
0
LINE
8
BLACK
6
CONTINUOUS
10
5.34114
20
-3.0252
11
5.31161
21
-3.0252
0
LINE
8
BLACK
6
CONTINUOUS
10
5.31161
20
-3.0252
11
5.31161
21
-2.9937
0
LINE
8
BLACK
6
CONTINUOUS
10
5.31161
20
-2.9937
11
5.34114
21
-2.9937
0
LINE
8
BLACK
6
CONTINUOUS
10
5.34114
20
-2.9937
11
5.34114
21
-3.0252
0
LINE
8
BLACK
6
CONTINUOUS
10
5.19587
20
-3.0252
11
5.16634
21
-3.0252
0
LINE
8
BLACK
6
CONTINUOUS
10
5.16634
20
-3.0252
11
5.16634
21
-2.9937
0
LINE
8
BLACK
6
CONTINUOUS
10
5.16634
20
-2.9937
11
5.19587
21
-2.9937
0
LINE
8
BLACK
6
CONTINUOUS
10
5.19587
20
-2.9937
11
5.19587
21
-3.0252
0
LINE
8
BLACK
6
CONTINUOUS
10
5.64882
20
-3.02244
11
5.61339
21
-3.02244
0
LINE
8
BLACK
6
CONTINUOUS
10
5.61339
20
-3.02244
11
5.61339
21
-3.00276
0
LINE
8
BLACK
6
CONTINUOUS
10
5.61339
20
-3.00276
11
5.64882
21
-3.00276
0
LINE
8
BLACK
6
CONTINUOUS
10
5.64882
20
-3.00276
11
5.64882
21
-3.02244
0
LINE
8
BLACK
6
CONTINUOUS
10
5.77402
20
-3.02244
11
5.73858
21
-3.02244
0
LINE
8
BLACK
6
CONTINUOUS
10
5.73858
20
-3.02244
11
5.73858
21
-3.00276
0
LINE
8
BLACK
6
CONTINUOUS
10
5.73858
20
-3.00276
11
5.77402
21
-3.00276
0
LINE
8
BLACK
6
CONTINUOUS
10
5.77402
20
-3.00276
11
5.77402
21
-3.02244
0
LINE
8
BLACK
6
CONTINUOUS
10
5.88583
20
-3.02244
11
5.85039
21
-3.02244
0
LINE
8
BLACK
6
CONTINUOUS
10
5.85039
20
-3.02244
11
5.85039
21
-3.00276
0
LINE
8
BLACK
6
CONTINUOUS
10
5.85039
20
-3.00276
11
5.88583
21
-3.00276
0
LINE
8
BLACK
6
CONTINUOUS
10
5.88583
20
-3.00276
11
5.88583
21
-3.02244
0
LINE
8
BLACK
6
CONTINUOUS
10
5.52008
20
-3.02165
11
5.48465
21
-3.02165
0
LINE
8
BLACK
6
CONTINUOUS
10
5.48465
20
-3.02165
11
5.48465
21
-3.00197
0
LINE
8
BLACK
6
CONTINUOUS
10
5.48465
20
-3.00197
11
5.52008
21
-3.00197
0
LINE
8
BLACK
6
CONTINUOUS
10
5.52008
20
-3.00197
11
5.52008
21
-3.02165
0
LINE
8
BLACK
6
CONTINUOUS
10
3.88976
20
-3.01772
11
3.85039
21
-3.01772
0
LINE
8
BLACK
6
CONTINUOUS
10
3.85039
20
-3.01772
11
3.85039
21
-2.9626
0
LINE
8
BLACK
6
CONTINUOUS
10
3.85039
20
-2.9626
11
3.88976
21
-2.9626
0
LINE
8
BLACK
6
CONTINUOUS
10
3.88976
20
-2.9626
11
3.88976
21
-3.01772
0
LINE
8
BLACK
6
CONTINUOUS
10
3.96457
20
-3.01772
11
3.9252
21
-3.01772
0
LINE
8
BLACK
6
CONTINUOUS
10
3.9252
20
-3.01772
11
3.9252
21
-2.9626
0
LINE
8
BLACK
6
CONTINUOUS
10
3.9252
20
-2.9626
11
3.96457
21
-2.9626
0
LINE
8
BLACK
6
CONTINUOUS
10
3.96457
20
-2.9626
11
3.96457
21
-3.01772
0
LINE
8
BLACK
6
CONTINUOUS
10
3.79921
20
-3.00591
11
3.72835
21
-3.00591
0
LINE
8
BLACK
6
CONTINUOUS
10
3.72835
20
-3.00591
11
3.72835
21
-2.99016
0
LINE
8
BLACK
6
CONTINUOUS
10
3.72835
20
-2.99016
11
3.79921
21
-2.99016
0
LINE
8
BLACK
6
CONTINUOUS
10
3.79921
20
-2.99016
11
3.79921
21
-3.00591
0
LINE
8
BLACK
6
CONTINUOUS
10
4.19311
20
-3.00197
11
4.15965
21
-3.00197
0
LINE
8
BLACK
6
CONTINUOUS
10
4.15965
20
-3.00197
11
4.15965
21
-2.99016
0
LINE
8
BLACK
6
CONTINUOUS
10
4.15965
20
-2.99016
11
4.19311
21
-2.99016
0
LINE
8
BLACK
6
CONTINUOUS
10
4.19311
20
-2.99016
11
4.19311
21
-3.00197
0
LINE
8
BLACK
6
CONTINUOUS
10
4.03957
20
-3.00197
11
4.0061
21
-3.00197
0
LINE
8
BLACK
6
CONTINUOUS
10
4.0061
20
-3.00197
11
4.0061
21
-2.99016
0
LINE
8
BLACK
6
CONTINUOUS
10
4.0061
20
-2.99016
11
4.03957
21
-2.99016
0
LINE
8
BLACK
6
CONTINUOUS
10
4.03957
20
-2.99016
11
4.03957
21
-3.00197
0
LINE
8
BLACK
6
CONTINUOUS
10
6.89016
20
-2.99843
11
6.85472
21
-2.99843
0
LINE
8
BLACK
6
CONTINUOUS
10
6.85472
20
-2.99843
11
6.85472
21
-2.96693
0
LINE
8
BLACK
6
CONTINUOUS
10
6.85472
20
-2.96693
11
6.89016
21
-2.96693
0
LINE
8
BLACK
6
CONTINUOUS
10
6.89016
20
-2.96693
11
6.89016
21
-2.99843
0
LINE
8
BLACK
6
CONTINUOUS
10
4.03957
20
-2.98228
11
4.0061
21
-2.98228
0
LINE
8
BLACK
6
CONTINUOUS
10
4.0061
20
-2.98228
11
4.0061
21
-2.97047
0
LINE
8
BLACK
6
CONTINUOUS
10
4.0061
20
-2.97047
11
4.03957
21
-2.97047
0
LINE
8
BLACK
6
CONTINUOUS
10
4.03957
20
-2.97047
11
4.03957
21
-2.98228
0
LINE
8
BLACK
6
CONTINUOUS
10
4.13504
20
-2.98228
11
4.06417
21
-2.98228
0
LINE
8
BLACK
6
CONTINUOUS
10
4.06417
20
-2.98228
11
4.06417
21
-2.91142
0
LINE
8
BLACK
6
CONTINUOUS
10
4.06417
20
-2.91142
11
4.13504
21
-2.91142
0
LINE
8
BLACK
6
CONTINUOUS
10
4.13504
20
-2.91142
11
4.13504
21
-2.98228
0
LINE
8
BLACK
6
CONTINUOUS
10
4.19311
20
-2.98228
11
4.15965
21
-2.98228
0
LINE
8
BLACK
6
CONTINUOUS
10
4.15965
20
-2.98228
11
4.15965
21
-2.97047
0
LINE
8
BLACK
6
CONTINUOUS
10
4.15965
20
-2.97047
11
4.19311
21
-2.97047
0
LINE
8
BLACK
6
CONTINUOUS
10
4.19311
20
-2.97047
11
4.19311
21
-2.98228
0
LINE
8
BLACK
6
CONTINUOUS
10
3.79921
20
-2.98031
11
3.72835
21
-2.98031
0
LINE
8
BLACK
6
CONTINUOUS
10
3.72835
20
-2.98031
11
3.72835
21
-2.96457
0
LINE
8
BLACK
6
CONTINUOUS
10
3.72835
20
-2.96457
11
3.79921
21
-2.96457
0
LINE
8
BLACK
6
CONTINUOUS
10
3.79921
20
-2.96457
11
3.79921
21
-2.98031
0
LINE
8
BLACK
6
CONTINUOUS
10
5.19587
20
-2.96614
11
5.16634
21
-2.96614
0
LINE
8
BLACK
6
CONTINUOUS
10
5.16634
20
-2.96614
11
5.16634
21
-2.93465
0
LINE
8
BLACK
6
CONTINUOUS
10
5.16634
20
-2.93465
11
5.19587
21
-2.93465
0
LINE
8
BLACK
6
CONTINUOUS
10
5.19587
20
-2.93465
11
5.19587
21
-2.96614
0
LINE
8
BLACK
6
CONTINUOUS
10
5.34114
20
-2.96614
11
5.31161
21
-2.96614
0
LINE
8
BLACK
6
CONTINUOUS
10
5.31161
20
-2.96614
11
5.31161
21
-2.93465
0
LINE
8
BLACK
6
CONTINUOUS
10
5.31161
20
-2.93465
11
5.34114
21
-2.93465
0
LINE
8
BLACK
6
CONTINUOUS
10
5.34114
20
-2.93465
11
5.34114
21
-2.96614
0
LINE
8
BLACK
6
CONTINUOUS
10
5.77402
20
-2.96339
11
5.73858
21
-2.96339
0
LINE
8
BLACK
6
CONTINUOUS
10
5.73858
20
-2.96339
11
5.73858
21
-2.9437
0
LINE
8
BLACK
6
CONTINUOUS
10
5.73858
20
-2.9437
11
5.77402
21
-2.9437
0
LINE
8
BLACK
6
CONTINUOUS
10
5.77402
20
-2.9437
11
5.77402
21
-2.96339
0
LINE
8
BLACK
6
CONTINUOUS
10
5.88583
20
-2.96339
11
5.85039
21
-2.96339
0
LINE
8
BLACK
6
CONTINUOUS
10
5.85039
20
-2.96339
11
5.85039
21
-2.9437
0
LINE
8
BLACK
6
CONTINUOUS
10
5.85039
20
-2.9437
11
5.88583
21
-2.9437
0
LINE
8
BLACK
6
CONTINUOUS
10
5.88583
20
-2.9437
11
5.88583
21
-2.96339
0
LINE
8
BLACK
6
CONTINUOUS
10
5.64882
20
-2.96339
11
5.61339
21
-2.96339
0
LINE
8
BLACK
6
CONTINUOUS
10
5.61339
20
-2.96339
11
5.61339
21
-2.9437
0
LINE
8
BLACK
6
CONTINUOUS
10
5.61339
20
-2.9437
11
5.64882
21
-2.9437
0
LINE
8
BLACK
6
CONTINUOUS
10
5.64882
20
-2.9437
11
5.64882
21
-2.96339
0
LINE
8
BLACK
6
CONTINUOUS
10
4.19311
20
-2.9626
11
4.15965
21
-2.9626
0
LINE
8
BLACK
6
CONTINUOUS
10
4.15965
20
-2.9626
11
4.15965
21
-2.95079
0
LINE
8
BLACK
6
CONTINUOUS
10
4.15965
20
-2.95079
11
4.19311
21
-2.95079
0
LINE
8
BLACK
6
CONTINUOUS
10
4.19311
20
-2.95079
11
4.19311
21
-2.9626
0
LINE
8
BLACK
6
CONTINUOUS
10
4.03957
20
-2.9626
11
4.0061
21
-2.9626
0
LINE
8
BLACK
6
CONTINUOUS
10
4.0061
20
-2.9626
11
4.0061
21
-2.95079
0
LINE
8
BLACK
6
CONTINUOUS
10
4.0061
20
-2.95079
11
4.03957
21
-2.95079
0
LINE
8
BLACK
6
CONTINUOUS
10
4.03957
20
-2.95079
11
4.03957
21
-2.9626
0
LINE
8
BLACK
6
CONTINUOUS
10
5.52008
20
-2.9626
11
5.48465
21
-2.9626
0
LINE
8
BLACK
6
CONTINUOUS
10
5.48465
20
-2.9626
11
5.48465
21
-2.94291
0
LINE
8
BLACK
6
CONTINUOUS
10
5.48465
20
-2.94291
11
5.52008
21
-2.94291
0
LINE
8
BLACK
6
CONTINUOUS
10
5.52008
20
-2.94291
11
5.52008
21
-2.9626
0
LINE
8
BLACK
6
CONTINUOUS
10
6.9689
20
-2.96102
11
6.93346
21
-2.96102
0
LINE
8
BLACK
6
CONTINUOUS
10
6.93346
20
-2.96102
11
6.93346
21
-2.92953
0
LINE
8
BLACK
6
CONTINUOUS
10
6.93346
20
-2.92953
11
6.9689
21
-2.92953
0
LINE
8
BLACK
6
CONTINUOUS
10
6.9689
20
-2.92953
11
6.9689
21
-2.96102
0
LINE
8
BLACK
6
CONTINUOUS
10
3.79921
20
-2.95472
11
3.72835
21
-2.95472
0
LINE
8
BLACK
6
CONTINUOUS
10
3.72835
20
-2.95472
11
3.72835
21
-2.93898
0
LINE
8
BLACK
6
CONTINUOUS
10
3.72835
20
-2.93898
11
3.79921
21
-2.93898
0
LINE
8
BLACK
6
CONTINUOUS
10
3.79921
20
-2.93898
11
3.79921
21
-2.95472
0
LINE
8
BLACK
6
CONTINUOUS
10
4.03957
20
-2.94291
11
4.0061
21
-2.94291
0
LINE
8
BLACK
6
CONTINUOUS
10
4.0061
20
-2.94291
11
4.0061
21
-2.9311
0
LINE
8
BLACK
6
CONTINUOUS
10
4.0061
20
-2.9311
11
4.03957
21
-2.9311
0
LINE
8
BLACK
6
CONTINUOUS
10
4.03957
20
-2.9311
11
4.03957
21
-2.94291
0
LINE
8
BLACK
6
CONTINUOUS
10
4.19311
20
-2.94291
11
4.15965
21
-2.94291
0
LINE
8
BLACK
6
CONTINUOUS
10
4.15965
20
-2.94291
11
4.15965
21
-2.9311
0
LINE
8
BLACK
6
CONTINUOUS
10
4.15965
20
-2.9311
11
4.19311
21
-2.9311
0
LINE
8
BLACK
6
CONTINUOUS
10
4.19311
20
-2.9311
11
4.19311
21
-2.94291
0
LINE
8
BLACK
6
CONTINUOUS
10
6.42717
20
-2.94252
11
6.40748
21
-2.94252
0
LINE
8
BLACK
6
CONTINUOUS
10
6.40748
20
-2.94252
11
6.40748
21
-2.90709
0
LINE
8
BLACK
6
CONTINUOUS
10
6.40748
20
-2.90709
11
6.42717
21
-2.90709
0
LINE
8
BLACK
6
CONTINUOUS
10
6.42717
20
-2.90709
11
6.42717
21
-2.94252
0
LINE
8
BLACK
6
CONTINUOUS
10
6.36811
20
-2.94252
11
6.34843
21
-2.94252
0
LINE
8
BLACK
6
CONTINUOUS
10
6.34843
20
-2.94252
11
6.34843
21
-2.90709
0
LINE
8
BLACK
6
CONTINUOUS
10
6.34843
20
-2.90709
11
6.36811
21
-2.90709
0
LINE
8
BLACK
6
CONTINUOUS
10
6.36811
20
-2.90709
11
6.36811
21
-2.94252
0
LINE
8
BLACK
6
CONTINUOUS
10
6.22913
20
-2.94252
11
6.20945
21
-2.94252
0
LINE
8
BLACK
6
CONTINUOUS
10
6.20945
20
-2.94252
11
6.20945
21
-2.90709
0
LINE
8
BLACK
6
CONTINUOUS
10
6.20945
20
-2.90709
11
6.22913
21
-2.90709
0
LINE
8
BLACK
6
CONTINUOUS
10
6.22913
20
-2.90709
11
6.22913
21
-2.94252
0
LINE
8
BLACK
6
CONTINUOUS
10
6.17008
20
-2.94252
11
6.15039
21
-2.94252
0
LINE
8
BLACK
6
CONTINUOUS
10
6.15039
20
-2.94252
11
6.15039
21
-2.90709
0
LINE
8
BLACK
6
CONTINUOUS
10
6.15039
20
-2.90709
11
6.17008
21
-2.90709
0
LINE
8
BLACK
6
CONTINUOUS
10
6.17008
20
-2.90709
11
6.17008
21
-2.94252
0
LINE
8
BLACK
6
CONTINUOUS
10
3.88976
20
-2.9311
11
3.85039
21
-2.9311
0
LINE
8
BLACK
6
CONTINUOUS
10
3.85039
20
-2.9311
11
3.85039
21
-2.87598
0
LINE
8
BLACK
6
CONTINUOUS
10
3.85039
20
-2.87598
11
3.88976
21
-2.87598
0
LINE
8
BLACK
6
CONTINUOUS
10
3.88976
20
-2.87598
11
3.88976
21
-2.9311
0
LINE
8
BLACK
6
CONTINUOUS
10
3.96142
20
-2.9311
11
3.91417
21
-2.9311
0
LINE
8
BLACK
6
CONTINUOUS
10
3.91417
20
-2.9311
11
3.91417
21
-2.87598
0
LINE
8
BLACK
6
CONTINUOUS
10
3.91417
20
-2.87598
11
3.96142
21
-2.87598
0
LINE
8
BLACK
6
CONTINUOUS
10
3.96142
20
-2.87598
11
3.96142
21
-2.9311
0
LINE
8
BLACK
6
CONTINUOUS
10
3.79921
20
-2.92913
11
3.72835
21
-2.92913
0
LINE
8
BLACK
6
CONTINUOUS
10
3.72835
20
-2.92913
11
3.72835
21
-2.91339
0
LINE
8
BLACK
6
CONTINUOUS
10
3.72835
20
-2.91339
11
3.79921
21
-2.91339
0
LINE
8
BLACK
6
CONTINUOUS
10
3.79921
20
-2.91339
11
3.79921
21
-2.92913
0
LINE
8
BLACK
6
CONTINUOUS
10
6.89016
20
-2.92362
11
6.85472
21
-2.92362
0
LINE
8
BLACK
6
CONTINUOUS
10
6.85472
20
-2.92362
11
6.85472
21
-2.89213
0
LINE
8
BLACK
6
CONTINUOUS
10
6.85472
20
-2.89213
11
6.89016
21
-2.89213
0
LINE
8
BLACK
6
CONTINUOUS
10
6.89016
20
-2.89213
11
6.89016
21
-2.92362
0
LINE
8
BLACK
6
CONTINUOUS
10
4.19311
20
-2.92323
11
4.15965
21
-2.92323
0
LINE
8
BLACK
6
CONTINUOUS
10
4.15965
20
-2.92323
11
4.15965
21
-2.91142
0
LINE
8
BLACK
6
CONTINUOUS
10
4.15965
20
-2.91142
11
4.19311
21
-2.91142
0
LINE
8
BLACK
6
CONTINUOUS
10
4.19311
20
-2.91142
11
4.19311
21
-2.92323
0
LINE
8
BLACK
6
CONTINUOUS
10
4.03957
20
-2.92323
11
4.0061
21
-2.92323
0
LINE
8
BLACK
6
CONTINUOUS
10
4.0061
20
-2.92323
11
4.0061
21
-2.91142
0
LINE
8
BLACK
6
CONTINUOUS
10
4.0061
20
-2.91142
11
4.03957
21
-2.91142
0
LINE
8
BLACK
6
CONTINUOUS
10
4.03957
20
-2.91142
11
4.03957
21
-2.92323
0
LINE
8
BLACK
6
CONTINUOUS
10
6.77953
20
-2.91969
11
6.72047
21
-2.91969
0
LINE
8
BLACK
6
CONTINUOUS
10
6.72047
20
-2.91969
11
6.72047
21
-2.89606
0
LINE
8
BLACK
6
CONTINUOUS
10
6.72047
20
-2.89606
11
6.77953
21
-2.89606
0
LINE
8
BLACK
6
CONTINUOUS
10
6.77953
20
-2.89606
11
6.77953
21
-2.91969
0
LINE
8
BLACK
6
CONTINUOUS
10
6.56693
20
-2.91969
11
6.50787
21
-2.91969
0
LINE
8
BLACK
6
CONTINUOUS
10
6.50787
20
-2.91969
11
6.50787
21
-2.89606
0
LINE
8
BLACK
6
CONTINUOUS
10
6.50787
20
-2.89606
11
6.56693
21
-2.89606
0
LINE
8
BLACK
6
CONTINUOUS
10
6.56693
20
-2.89606
11
6.56693
21
-2.91969
0
LINE
8
BLACK
6
CONTINUOUS
10
4.75098
20
-2.91949
11
4.68996
21
-2.91949
0
LINE
8
BLACK
6
CONTINUOUS
10
4.68996
20
-2.91949
11
4.68996
21
-2.89587
0
LINE
8
BLACK
6
CONTINUOUS
10
4.68996
20
-2.89587
11
4.75098
21
-2.89587
0
LINE
8
BLACK
6
CONTINUOUS
10
4.75098
20
-2.89587
11
4.75098
21
-2.91949
0
LINE
8
BLACK
6
CONTINUOUS
10
4.96358
20
-2.91949
11
4.90256
21
-2.91949
0
LINE
8
BLACK
6
CONTINUOUS
10
4.90256
20
-2.91949
11
4.90256
21
-2.89587
0
LINE
8
BLACK
6
CONTINUOUS
10
4.90256
20
-2.89587
11
4.96358
21
-2.89587
0
LINE
8
BLACK
6
CONTINUOUS
10
4.96358
20
-2.89587
11
4.96358
21
-2.91949
0
LINE
8
BLACK
6
CONTINUOUS
10
4.59055
20
-2.90748
11
4.49213
21
-2.90748
0
LINE
8
BLACK
6
CONTINUOUS
10
4.49213
20
-2.90748
11
4.49213
21
-2.83071
0
LINE
8
BLACK
6
CONTINUOUS
10
4.49213
20
-2.83071
11
4.59055
21
-2.83071
0
LINE
8
BLACK
6
CONTINUOUS
10
4.59055
20
-2.83071
11
4.59055
21
-2.90748
0
LINE
8
BLACK
6
CONTINUOUS
10
3.79921
20
-2.90354
11
3.72835
21
-2.90354
0
LINE
8
BLACK
6
CONTINUOUS
10
3.72835
20
-2.90354
11
3.72835
21
-2.8878
0
LINE
8
BLACK
6
CONTINUOUS
10
3.72835
20
-2.8878
11
3.79921
21
-2.8878
0
LINE
8
BLACK
6
CONTINUOUS
10
3.79921
20
-2.8878
11
3.79921
21
-2.90354
0
LINE
8
BLACK
6
CONTINUOUS
10
4.03957
20
-2.90354
11
4.0061
21
-2.90354
0
LINE
8
BLACK
6
CONTINUOUS
10
4.0061
20
-2.90354
11
4.0061
21
-2.89173
0
LINE
8
BLACK
6
CONTINUOUS
10
4.0061
20
-2.89173
11
4.03957
21
-2.89173
0
LINE
8
BLACK
6
CONTINUOUS
10
4.03957
20
-2.89173
11
4.03957
21
-2.90354
0
LINE
8
BLACK
6
CONTINUOUS
10
4.19311
20
-2.90354
11
4.15965
21
-2.90354
0
LINE
8
BLACK
6
CONTINUOUS
10
4.15965
20
-2.90354
11
4.15965
21
-2.89173
0
LINE
8
BLACK
6
CONTINUOUS
10
4.15965
20
-2.89173
11
4.19311
21
-2.89173
0
LINE
8
BLACK
6
CONTINUOUS
10
4.19311
20
-2.89173
11
4.19311
21
-2.90354
0
LINE
8
BLACK
6
CONTINUOUS
10
4.13504
20
-2.88681
11
4.12323
21
-2.88681
0
LINE
8
BLACK
6
CONTINUOUS
10
4.12323
20
-2.88681
11
4.12323
21
-2.85335
0
LINE
8
BLACK
6
CONTINUOUS
10
4.12323
20
-2.85335
11
4.13504
21
-2.85335
0
LINE
8
BLACK
6
CONTINUOUS
10
4.13504
20
-2.85335
11
4.13504
21
-2.88681
0
LINE
8
BLACK
6
CONTINUOUS
10
4.09567
20
-2.88681
11
4.08386
21
-2.88681
0
LINE
8
BLACK
6
CONTINUOUS
10
4.08386
20
-2.88681
11
4.08386
21
-2.85335
0
LINE
8
BLACK
6
CONTINUOUS
10
4.08386
20
-2.85335
11
4.09567
21
-2.85335
0
LINE
8
BLACK
6
CONTINUOUS
10
4.09567
20
-2.85335
11
4.09567
21
-2.88681
0
LINE
8
BLACK
6
CONTINUOUS
10
4.15472
20
-2.88681
11
4.14291
21
-2.88681
0
LINE
8
BLACK
6
CONTINUOUS
10
4.14291
20
-2.88681
11
4.14291
21
-2.85335
0
LINE
8
BLACK
6
CONTINUOUS
10
4.14291
20
-2.85335
11
4.15472
21
-2.85335
0
LINE
8
BLACK
6
CONTINUOUS
10
4.15472
20
-2.85335
11
4.15472
21
-2.88681
0
LINE
8
BLACK
6
CONTINUOUS
10
4.11535
20
-2.88681
11
4.10354
21
-2.88681
0
LINE
8
BLACK
6
CONTINUOUS
10
4.10354
20
-2.88681
11
4.10354
21
-2.85335
0
LINE
8
BLACK
6
CONTINUOUS
10
4.10354
20
-2.85335
11
4.11535
21
-2.85335
0
LINE
8
BLACK
6
CONTINUOUS
10
4.11535
20
-2.85335
11
4.11535
21
-2.88681
0
LINE
8
BLACK
6
CONTINUOUS
10
4.0563
20
-2.88681
11
4.04449
21
-2.88681
0
LINE
8
BLACK
6
CONTINUOUS
10
4.04449
20
-2.88681
11
4.04449
21
-2.85335
0
LINE
8
BLACK
6
CONTINUOUS
10
4.04449
20
-2.85335
11
4.0563
21
-2.85335
0
LINE
8
BLACK
6
CONTINUOUS
10
4.0563
20
-2.85335
11
4.0563
21
-2.88681
0
LINE
8
BLACK
6
CONTINUOUS
10
4.07598
20
-2.88681
11
4.06417
21
-2.88681
0
LINE
8
BLACK
6
CONTINUOUS
10
4.06417
20
-2.88681
11
4.06417
21
-2.85335
0
LINE
8
BLACK
6
CONTINUOUS
10
4.06417
20
-2.85335
11
4.07598
21
-2.85335
0
LINE
8
BLACK
6
CONTINUOUS
10
4.07598
20
-2.85335
11
4.07598
21
-2.88681
0
LINE
8
BLACK
6
CONTINUOUS
10
6.77953
20
-2.86969
11
6.72047
21
-2.86969
0
LINE
8
BLACK
6
CONTINUOUS
10
6.72047
20
-2.86969
11
6.72047
21
-2.84606
0
LINE
8
BLACK
6
CONTINUOUS
10
6.72047
20
-2.84606
11
6.77953
21
-2.84606
0
LINE
8
BLACK
6
CONTINUOUS
10
6.77953
20
-2.84606
11
6.77953
21
-2.86969
0
LINE
8
BLACK
6
CONTINUOUS
10
6.56693
20
-2.86969
11
6.50787
21
-2.86969
0
LINE
8
BLACK
6
CONTINUOUS
10
6.50787
20
-2.86969
11
6.50787
21
-2.84606
0
LINE
8
BLACK
6
CONTINUOUS
10
6.50787
20
-2.84606
11
6.56693
21
-2.84606
0
LINE
8
BLACK
6
CONTINUOUS
10
6.56693
20
-2.84606
11
6.56693
21
-2.86969
0
LINE
8
BLACK
6
CONTINUOUS
10
4.75098
20
-2.86949
11
4.68996
21
-2.86949
0
LINE
8
BLACK
6
CONTINUOUS
10
4.68996
20
-2.86949
11
4.68996
21
-2.84587
0
LINE
8
BLACK
6
CONTINUOUS
10
4.68996
20
-2.84587
11
4.75098
21
-2.84587
0
LINE
8
BLACK
6
CONTINUOUS
10
4.75098
20
-2.84587
11
4.75098
21
-2.86949
0
LINE
8
BLACK
6
CONTINUOUS
10
4.96358
20
-2.86949
11
4.90256
21
-2.86949
0
LINE
8
BLACK
6
CONTINUOUS
10
4.90256
20
-2.86949
11
4.90256
21
-2.84587
0
LINE
8
BLACK
6
CONTINUOUS
10
4.90256
20
-2.84587
11
4.96358
21
-2.84587
0
LINE
8
BLACK
6
CONTINUOUS
10
4.96358
20
-2.84587
11
4.96358
21
-2.86949
0
LINE
8
BLACK
6
CONTINUOUS
10
5.13976
20
-2.85236
11
5.03937
21
-2.85236
0
LINE
8
BLACK
6
CONTINUOUS
10
5.03937
20
-2.85236
11
5.03937
21
-2.75394
0
LINE
8
BLACK
6
CONTINUOUS
10
5.03937
20
-2.75394
11
5.13976
21
-2.75394
0
LINE
8
BLACK
6
CONTINUOUS
10
5.13976
20
-2.75394
11
5.13976
21
-2.85236
0
LINE
8
BLACK
6
CONTINUOUS
10
5.33858
20
-2.85236
11
5.23819
21
-2.85236
0
LINE
8
BLACK
6
CONTINUOUS
10
5.23819
20
-2.85236
11
5.23819
21
-2.75394
0
LINE
8
BLACK
6
CONTINUOUS
10
5.23819
20
-2.75394
11
5.33858
21
-2.75394
0
LINE
8
BLACK
6
CONTINUOUS
10
5.33858
20
-2.75394
11
5.33858
21
-2.85236
0
LINE
8
BLACK
6
CONTINUOUS
10
4.41063
20
-2.83268
11
4.3122
21
-2.83268
0
LINE
8
BLACK
6
CONTINUOUS
10
4.3122
20
-2.83268
11
4.3122
21
-2.73228
0
LINE
8
BLACK
6
CONTINUOUS
10
4.3122
20
-2.73228
11
4.41063
21
-2.73228
0
LINE
8
BLACK
6
CONTINUOUS
10
4.41063
20
-2.73228
11
4.41063
21
-2.83268
0
LINE
8
BLACK
6
CONTINUOUS
10
5.88583
20
-2.82047
11
5.85039
21
-2.82047
0
LINE
8
BLACK
6
CONTINUOUS
10
5.85039
20
-2.82047
11
5.85039
21
-2.80079
0
LINE
8
BLACK
6
CONTINUOUS
10
5.85039
20
-2.80079
11
5.88583
21
-2.80079
0
LINE
8
BLACK
6
CONTINUOUS
10
5.88583
20
-2.80079
11
5.88583
21
-2.82047
0
LINE
8
BLACK
6
CONTINUOUS
10
6.56693
20
-2.81969
11
6.50787
21
-2.81969
0
LINE
8
BLACK
6
CONTINUOUS
10
6.50787
20
-2.81969
11
6.50787
21
-2.79606
0
LINE
8
BLACK
6
CONTINUOUS
10
6.50787
20
-2.79606
11
6.56693
21
-2.79606
0
LINE
8
BLACK
6
CONTINUOUS
10
6.56693
20
-2.79606
11
6.56693
21
-2.81969
0
LINE
8
BLACK
6
CONTINUOUS
10
6.77953
20
-2.81969
11
6.72047
21
-2.81969
0
LINE
8
BLACK
6
CONTINUOUS
10
6.72047
20
-2.81969
11
6.72047
21
-2.79606
0
LINE
8
BLACK
6
CONTINUOUS
10
6.72047
20
-2.79606
11
6.77953
21
-2.79606
0
LINE
8
BLACK
6
CONTINUOUS
10
6.77953
20
-2.79606
11
6.77953
21
-2.81969
0
LINE
8
BLACK
6
CONTINUOUS
10
4.75098
20
-2.81949
11
4.68996
21
-2.81949
0
LINE
8
BLACK
6
CONTINUOUS
10
4.68996
20
-2.81949
11
4.68996
21
-2.79587
0
LINE
8
BLACK
6
CONTINUOUS
10
4.68996
20
-2.79587
11
4.75098
21
-2.79587
0
LINE
8
BLACK
6
CONTINUOUS
10
4.75098
20
-2.79587
11
4.75098
21
-2.81949
0
LINE
8
BLACK
6
CONTINUOUS
10
4.96358
20
-2.81949
11
4.90256
21
-2.81949
0
LINE
8
BLACK
6
CONTINUOUS
10
4.90256
20
-2.81949
11
4.90256
21
-2.79587
0
LINE
8
BLACK
6
CONTINUOUS
10
4.90256
20
-2.79587
11
4.96358
21
-2.79587
0
LINE
8
BLACK
6
CONTINUOUS
10
4.96358
20
-2.79587
11
4.96358
21
-2.81949
0
LINE
8
BLACK
6
CONTINUOUS
10
6.09646
20
-2.8189
11
6.04134
21
-2.8189
0
LINE
8
BLACK
6
CONTINUOUS
10
6.04134
20
-2.8189
11
6.04134
21
-2.80709
0
LINE
8
BLACK
6
CONTINUOUS
10
6.04134
20
-2.80709
11
6.09646
21
-2.80709
0
LINE
8
BLACK
6
CONTINUOUS
10
6.09646
20
-2.80709
11
6.09646
21
-2.8189
0
LINE
8
BLACK
6
CONTINUOUS
10
6.26969
20
-2.8189
11
6.21457
21
-2.8189
0
LINE
8
BLACK
6
CONTINUOUS
10
6.21457
20
-2.8189
11
6.21457
21
-2.80709
0
LINE
8
BLACK
6
CONTINUOUS
10
6.21457
20
-2.80709
11
6.26969
21
-2.80709
0
LINE
8
BLACK
6
CONTINUOUS
10
6.26969
20
-2.80709
11
6.26969
21
-2.8189
0
LINE
8
BLACK
6
CONTINUOUS
10
6.26969
20
-2.79921
11
6.21457
21
-2.79921
0
LINE
8
BLACK
6
CONTINUOUS
10
6.21457
20
-2.79921
11
6.21457
21
-2.7874
0
LINE
8
BLACK
6
CONTINUOUS
10
6.21457
20
-2.7874
11
6.26969
21
-2.7874
0
LINE
8
BLACK
6
CONTINUOUS
10
6.26969
20
-2.7874
11
6.26969
21
-2.79921
0
LINE
8
BLACK
6
CONTINUOUS
10
6.09646
20
-2.79921
11
6.04134
21
-2.79921
0
LINE
8
BLACK
6
CONTINUOUS
10
6.04134
20
-2.79921
11
6.04134
21
-2.7874
0
LINE
8
BLACK
6
CONTINUOUS
10
6.04134
20
-2.7874
11
6.09646
21
-2.7874
0
LINE
8
BLACK
6
CONTINUOUS
10
6.09646
20
-2.7874
11
6.09646
21
-2.79921
0
LINE
8
BLACK
6
CONTINUOUS
10
4.23524
20
-2.7874
11
4.20571
21
-2.7874
0
LINE
8
BLACK
6
CONTINUOUS
10
4.20571
20
-2.7874
11
4.20571
21
-2.75591
0
LINE
8
BLACK
6
CONTINUOUS
10
4.20571
20
-2.75591
11
4.23524
21
-2.75591
0
LINE
8
BLACK
6
CONTINUOUS
10
4.23524
20
-2.75591
11
4.23524
21
-2.7874
0
LINE
8
BLACK
6
CONTINUOUS
10
4.13287
20
-2.78701
11
4.10335
21
-2.78701
0
LINE
8
BLACK
6
CONTINUOUS
10
4.10335
20
-2.78701
11
4.10335
21
-2.75551
0
LINE
8
BLACK
6
CONTINUOUS
10
4.10335
20
-2.75551
11
4.13287
21
-2.75551
0
LINE
8
BLACK
6
CONTINUOUS
10
4.13287
20
-2.75551
11
4.13287
21
-2.78701
0
LINE
8
BLACK
6
CONTINUOUS
10
6.89764
20
-2.78445
11
6.86614
21
-2.78445
0
LINE
8
BLACK
6
CONTINUOUS
10
6.86614
20
-2.78445
11
6.86614
21
-2.75492
0
LINE
8
BLACK
6
CONTINUOUS
10
6.86614
20
-2.75492
11
6.89764
21
-2.75492
0
LINE
8
BLACK
6
CONTINUOUS
10
6.89764
20
-2.75492
11
6.89764
21
-2.78445
0
LINE
8
BLACK
6
CONTINUOUS
10
6.95669
20
-2.78445
11
6.9252
21
-2.78445
0
LINE
8
BLACK
6
CONTINUOUS
10
6.9252
20
-2.78445
11
6.9252
21
-2.75492
0
LINE
8
BLACK
6
CONTINUOUS
10
6.9252
20
-2.75492
11
6.95669
21
-2.75492
0
LINE
8
BLACK
6
CONTINUOUS
10
6.95669
20
-2.75492
11
6.95669
21
-2.78445
0
LINE
8
BLACK
6
CONTINUOUS
10
4.03346
20
-2.7811
11
3.99803
21
-2.7811
0
LINE
8
BLACK
6
CONTINUOUS
10
3.99803
20
-2.7811
11
3.99803
21
-2.76142
0
LINE
8
BLACK
6
CONTINUOUS
10
3.99803
20
-2.76142
11
4.03346
21
-2.76142
0
LINE
8
BLACK
6
CONTINUOUS
10
4.03346
20
-2.76142
11
4.03346
21
-2.7811
0
LINE
8
BLACK
6
CONTINUOUS
10
6.09646
20
-2.77953
11
6.04134
21
-2.77953
0
LINE
8
BLACK
6
CONTINUOUS
10
6.04134
20
-2.77953
11
6.04134
21
-2.76772
0
LINE
8
BLACK
6
CONTINUOUS
10
6.04134
20
-2.76772
11
6.09646
21
-2.76772
0
LINE
8
BLACK
6
CONTINUOUS
10
6.09646
20
-2.76772
11
6.09646
21
-2.77953
0
LINE
8
BLACK
6
CONTINUOUS
10
6.26969
20
-2.77953
11
6.21457
21
-2.77953
0
LINE
8
BLACK
6
CONTINUOUS
10
6.21457
20
-2.77953
11
6.21457
21
-2.76772
0
LINE
8
BLACK
6
CONTINUOUS
10
6.21457
20
-2.76772
11
6.26969
21
-2.76772
0
LINE
8
BLACK
6
CONTINUOUS
10
6.26969
20
-2.76772
11
6.26969
21
-2.77953
0
LINE
8
BLACK
6
CONTINUOUS
10
6.77953
20
-2.76969
11
6.72047
21
-2.76969
0
LINE
8
BLACK
6
CONTINUOUS
10
6.72047
20
-2.76969
11
6.72047
21
-2.74606
0
LINE
8
BLACK
6
CONTINUOUS
10
6.72047
20
-2.74606
11
6.77953
21
-2.74606
0
LINE
8
BLACK
6
CONTINUOUS
10
6.77953
20
-2.74606
11
6.77953
21
-2.76969
0
LINE
8
BLACK
6
CONTINUOUS
10
6.56693
20
-2.76969
11
6.50787
21
-2.76969
0
LINE
8
BLACK
6
CONTINUOUS
10
6.50787
20
-2.76969
11
6.50787
21
-2.74606
0
LINE
8
BLACK
6
CONTINUOUS
10
6.50787
20
-2.74606
11
6.56693
21
-2.74606
0
LINE
8
BLACK
6
CONTINUOUS
10
6.56693
20
-2.74606
11
6.56693
21
-2.76969
0
LINE
8
BLACK
6
CONTINUOUS
10
4.96358
20
-2.76949
11
4.90256
21
-2.76949
0
LINE
8
BLACK
6
CONTINUOUS
10
4.90256
20
-2.76949
11
4.90256
21
-2.74587
0
LINE
8
BLACK
6
CONTINUOUS
10
4.90256
20
-2.74587
11
4.96358
21
-2.74587
0
LINE
8
BLACK
6
CONTINUOUS
10
4.96358
20
-2.74587
11
4.96358
21
-2.76949
0
LINE
8
BLACK
6
CONTINUOUS
10
4.75098
20
-2.76949
11
4.68996
21
-2.76949
0
LINE
8
BLACK
6
CONTINUOUS
10
4.68996
20
-2.76949
11
4.68996
21
-2.74587
0
LINE
8
BLACK
6
CONTINUOUS
10
4.68996
20
-2.74587
11
4.75098
21
-2.74587
0
LINE
8
BLACK
6
CONTINUOUS
10
4.75098
20
-2.74587
11
4.75098
21
-2.76949
0
LINE
8
BLACK
6
CONTINUOUS
10
5.88583
20
-2.76142
11
5.85039
21
-2.76142
0
LINE
8
BLACK
6
CONTINUOUS
10
5.85039
20
-2.76142
11
5.85039
21
-2.74173
0
LINE
8
BLACK
6
CONTINUOUS
10
5.85039
20
-2.74173
11
5.88583
21
-2.74173
0
LINE
8
BLACK
6
CONTINUOUS
10
5.88583
20
-2.74173
11
5.88583
21
-2.76142
0
LINE
8
BLACK
6
CONTINUOUS
10
6.09646
20
-2.75984
11
6.04134
21
-2.75984
0
LINE
8
BLACK
6
CONTINUOUS
10
6.04134
20
-2.75984
11
6.04134
21
-2.74803
0
LINE
8
BLACK
6
CONTINUOUS
10
6.04134
20
-2.74803
11
6.09646
21
-2.74803
0
LINE
8
BLACK
6
CONTINUOUS
10
6.09646
20
-2.74803
11
6.09646
21
-2.75984
0
LINE
8
BLACK
6
CONTINUOUS
10
6.26969
20
-2.75984
11
6.21457
21
-2.75984
0
LINE
8
BLACK
6
CONTINUOUS
10
6.21457
20
-2.75984
11
6.21457
21
-2.74803
0
LINE
8
BLACK
6
CONTINUOUS
10
6.21457
20
-2.74803
11
6.26969
21
-2.74803
0
LINE
8
BLACK
6
CONTINUOUS
10
6.26969
20
-2.74803
11
6.26969
21
-2.75984
0
LINE
8
BLACK
6
CONTINUOUS
10
6.09646
20
-2.74016
11
6.04134
21
-2.74016
0
LINE
8
BLACK
6
CONTINUOUS
10
6.04134
20
-2.74016
11
6.04134
21
-2.72835
0
LINE
8
BLACK
6
CONTINUOUS
10
6.04134
20
-2.72835
11
6.09646
21
-2.72835
0
LINE
8
BLACK
6
CONTINUOUS
10
6.09646
20
-2.72835
11
6.09646
21
-2.74016
0
LINE
8
BLACK
6
CONTINUOUS
10
6.26969
20
-2.74016
11
6.21457
21
-2.74016
0
LINE
8
BLACK
6
CONTINUOUS
10
6.21457
20
-2.74016
11
6.21457
21
-2.72835
0
LINE
8
BLACK
6
CONTINUOUS
10
6.21457
20
-2.72835
11
6.26969
21
-2.72835
0
LINE
8
BLACK
6
CONTINUOUS
10
6.26969
20
-2.72835
11
6.26969
21
-2.74016
0
LINE
8
BLACK
6
CONTINUOUS
10
4.23524
20
-2.72835
11
4.20571
21
-2.72835
0
LINE
8
BLACK
6
CONTINUOUS
10
4.20571
20
-2.72835
11
4.20571
21
-2.69685
0
LINE
8
BLACK
6
CONTINUOUS
10
4.20571
20
-2.69685
11
4.23524
21
-2.69685
0
LINE
8
BLACK
6
CONTINUOUS
10
4.23524
20
-2.69685
11
4.23524
21
-2.72835
0
LINE
8
BLACK
6
CONTINUOUS
10
4.13287
20
-2.72795
11
4.10335
21
-2.72795
0
LINE
8
BLACK
6
CONTINUOUS
10
4.10335
20
-2.72795
11
4.10335
21
-2.69646
0
LINE
8
BLACK
6
CONTINUOUS
10
4.10335
20
-2.69646
11
4.13287
21
-2.69646
0
LINE
8
BLACK
6
CONTINUOUS
10
4.13287
20
-2.69646
11
4.13287
21
-2.72795
0
LINE
8
BLACK
6
CONTINUOUS
10
4.03346
20
-2.72205
11
3.99803
21
-2.72205
0
LINE
8
BLACK
6
CONTINUOUS
10
3.99803
20
-2.72205
11
3.99803
21
-2.70236
0
LINE
8
BLACK
6
CONTINUOUS
10
3.99803
20
-2.70236
11
4.03346
21
-2.70236
0
LINE
8
BLACK
6
CONTINUOUS
10
4.03346
20
-2.70236
11
4.03346
21
-2.72205
0
LINE
8
BLACK
6
CONTINUOUS
10
3.9376
20
-2.72008
11
3.85768
21
-2.72008
0
LINE
8
BLACK
6
CONTINUOUS
10
3.85768
20
-2.72008
11
3.85768
21
-2.6752
0
LINE
8
BLACK
6
CONTINUOUS
10
3.85768
20
-2.6752
11
3.9376
21
-2.6752
0
LINE
8
BLACK
6
CONTINUOUS
10
3.9376
20
-2.6752
11
3.9376
21
-2.72008
0
LINE
8
BLACK
6
CONTINUOUS
10
6.56693
20
-2.71969
11
6.50787
21
-2.71969
0
LINE
8
BLACK
6
CONTINUOUS
10
6.50787
20
-2.71969
11
6.50787
21
-2.69606
0
LINE
8
BLACK
6
CONTINUOUS
10
6.50787
20
-2.69606
11
6.56693
21
-2.69606
0
LINE
8
BLACK
6
CONTINUOUS
10
6.56693
20
-2.69606
11
6.56693
21
-2.71969
0
LINE
8
BLACK
6
CONTINUOUS
10
6.77953
20
-2.71969
11
6.72047
21
-2.71969
0
LINE
8
BLACK
6
CONTINUOUS
10
6.72047
20
-2.71969
11
6.72047
21
-2.69606
0
LINE
8
BLACK
6
CONTINUOUS
10
6.72047
20
-2.69606
11
6.77953
21
-2.69606
0
LINE
8
BLACK
6
CONTINUOUS
10
6.77953
20
-2.69606
11
6.77953
21
-2.71969
0
LINE
8
BLACK
6
CONTINUOUS
10
3.71063
20
-2.71654
11
3.66339
21
-2.71654
0
LINE
8
BLACK
6
CONTINUOUS
10
3.66339
20
-2.71654
11
3.66339
21
-2.66929
0
LINE
8
BLACK
6
CONTINUOUS
10
3.66339
20
-2.66929
11
3.71063
21
-2.66929
0
LINE
8
BLACK
6
CONTINUOUS
10
3.71063
20
-2.66929
11
3.71063
21
-2.71654
0
LINE
8
BLACK
6
CONTINUOUS
10
3.80276
20
-2.68976
11
3.76732
21
-2.68976
0
LINE
8
BLACK
6
CONTINUOUS
10
3.76732
20
-2.68976
11
3.76732
21
-2.67008
0
LINE
8
BLACK
6
CONTINUOUS
10
3.76732
20
-2.67008
11
3.80276
21
-2.67008
0
LINE
8
BLACK
6
CONTINUOUS
10
3.80276
20
-2.67008
11
3.80276
21
-2.68976
0
LINE
8
BLACK
6
CONTINUOUS
10
6.89134
20
-2.68504
11
6.87165
21
-2.68504
0
LINE
8
BLACK
6
CONTINUOUS
10
6.87165
20
-2.68504
11
6.87165
21
-2.64961
0
LINE
8
BLACK
6
CONTINUOUS
10
6.87165
20
-2.64961
11
6.89134
21
-2.64961
0
LINE
8
BLACK
6
CONTINUOUS
10
6.89134
20
-2.64961
11
6.89134
21
-2.68504
0
LINE
8
BLACK
6
CONTINUOUS
10
6.95039
20
-2.68504
11
6.93071
21
-2.68504
0
LINE
8
BLACK
6
CONTINUOUS
10
6.93071
20
-2.68504
11
6.93071
21
-2.64961
0
LINE
8
BLACK
6
CONTINUOUS
10
6.93071
20
-2.64961
11
6.95039
21
-2.64961
0
LINE
8
BLACK
6
CONTINUOUS
10
6.95039
20
-2.64961
11
6.95039
21
-2.68504
0
LINE
8
BLACK
6
CONTINUOUS
10
5.39094
20
-2.67047
11
5.35551
21
-2.67047
0
LINE
8
BLACK
6
CONTINUOUS
10
5.35551
20
-2.67047
11
5.35551
21
-2.63898
0
LINE
8
BLACK
6
CONTINUOUS
10
5.35551
20
-2.63898
11
5.39094
21
-2.63898
0
LINE
8
BLACK
6
CONTINUOUS
10
5.39094
20
-2.63898
11
5.39094
21
-2.67047
0
LINE
8
BLACK
6
CONTINUOUS
10
6.56693
20
-2.66969
11
6.50787
21
-2.66969
0
LINE
8
BLACK
6
CONTINUOUS
10
6.50787
20
-2.66969
11
6.50787
21
-2.64606
0
LINE
8
BLACK
6
CONTINUOUS
10
6.50787
20
-2.64606
11
6.56693
21
-2.64606
0
LINE
8
BLACK
6
CONTINUOUS
10
6.56693
20
-2.64606
11
6.56693
21
-2.66969
0
LINE
8
BLACK
6
CONTINUOUS
10
6.77953
20
-2.66969
11
6.72047
21
-2.66969
0
LINE
8
BLACK
6
CONTINUOUS
10
6.72047
20
-2.66969
11
6.72047
21
-2.64606
0
LINE
8
BLACK
6
CONTINUOUS
10
6.72047
20
-2.64606
11
6.77953
21
-2.64606
0
LINE
8
BLACK
6
CONTINUOUS
10
6.77953
20
-2.64606
11
6.77953
21
-2.66969
0
LINE
8
BLACK
6
CONTINUOUS
10
6.37402
20
-2.66831
11
6.34252
21
-2.66831
0
LINE
8
BLACK
6
CONTINUOUS
10
6.34252
20
-2.66831
11
6.34252
21
-2.63878
0
LINE
8
BLACK
6
CONTINUOUS
10
6.34252
20
-2.63878
11
6.37402
21
-2.63878
0
LINE
8
BLACK
6
CONTINUOUS
10
6.37402
20
-2.63878
11
6.37402
21
-2.66831
0
LINE
8
BLACK
6
CONTINUOUS
10
6.23504
20
-2.66831
11
6.20354
21
-2.66831
0
LINE
8
BLACK
6
CONTINUOUS
10
6.20354
20
-2.66831
11
6.20354
21
-2.63878
0
LINE
8
BLACK
6
CONTINUOUS
10
6.20354
20
-2.63878
11
6.23504
21
-2.63878
0
LINE
8
BLACK
6
CONTINUOUS
10
6.23504
20
-2.63878
11
6.23504
21
-2.66831
0
LINE
8
BLACK
6
CONTINUOUS
10
6.43307
20
-2.66831
11
6.40157
21
-2.66831
0
LINE
8
BLACK
6
CONTINUOUS
10
6.40157
20
-2.66831
11
6.40157
21
-2.63878
0
LINE
8
BLACK
6
CONTINUOUS
10
6.40157
20
-2.63878
11
6.43307
21
-2.63878
0
LINE
8
BLACK
6
CONTINUOUS
10
6.43307
20
-2.63878
11
6.43307
21
-2.66831
0
LINE
8
BLACK
6
CONTINUOUS
10
6.17598
20
-2.66831
11
6.14449
21
-2.66831
0
LINE
8
BLACK
6
CONTINUOUS
10
6.14449
20
-2.66831
11
6.14449
21
-2.63878
0
LINE
8
BLACK
6
CONTINUOUS
10
6.14449
20
-2.63878
11
6.17598
21
-2.63878
0
LINE
8
BLACK
6
CONTINUOUS
10
6.17598
20
-2.63878
11
6.17598
21
-2.66831
0
LINE
8
BLACK
6
CONTINUOUS
10
4.94213
20
-2.66654
11
4.86535
21
-2.66654
0
LINE
8
BLACK
6
CONTINUOUS
10
4.86535
20
-2.66654
11
4.86535
21
-2.56811
0
LINE
8
BLACK
6
CONTINUOUS
10
4.86535
20
-2.56811
11
4.94213
21
-2.56811
0
LINE
8
BLACK
6
CONTINUOUS
10
4.94213
20
-2.56811
11
4.94213
21
-2.66654
0
LINE
8
BLACK
6
CONTINUOUS
10
4.67677
20
-2.66654
11
4.57638
21
-2.66654
0
LINE
8
BLACK
6
CONTINUOUS
10
4.57638
20
-2.66654
11
4.57638
21
-2.56811
0
LINE
8
BLACK
6
CONTINUOUS
10
4.57638
20
-2.56811
11
4.67677
21
-2.56811
0
LINE
8
BLACK
6
CONTINUOUS
10
4.67677
20
-2.56811
11
4.67677
21
-2.66654
0
LINE
8
BLACK
6
CONTINUOUS
10
4.47795
20
-2.66654
11
4.37756
21
-2.66654
0
LINE
8
BLACK
6
CONTINUOUS
10
4.37756
20
-2.66654
11
4.37756
21
-2.56811
0
LINE
8
BLACK
6
CONTINUOUS
10
4.37756
20
-2.56811
11
4.47795
21
-2.56811
0
LINE
8
BLACK
6
CONTINUOUS
10
4.47795
20
-2.56811
11
4.47795
21
-2.66654
0
LINE
8
BLACK
6
CONTINUOUS
10
5.0622
20
-2.66654
11
4.98543
21
-2.66654
0
LINE
8
BLACK
6
CONTINUOUS
10
4.98543
20
-2.66654
11
4.98543
21
-2.56811
0
LINE
8
BLACK
6
CONTINUOUS
10
4.98543
20
-2.56811
11
5.0622
21
-2.56811
0
LINE
8
BLACK
6
CONTINUOUS
10
5.0622
20
-2.56811
11
5.0622
21
-2.66654
0
LINE
8
BLACK
6
CONTINUOUS
10
5.18898
20
-2.65669
11
5.15354
21
-2.65669
0
LINE
8
BLACK
6
CONTINUOUS
10
5.15354
20
-2.65669
11
5.15354
21
-2.63701
0
LINE
8
BLACK
6
CONTINUOUS
10
5.15354
20
-2.63701
11
5.18898
21
-2.63701
0
LINE
8
BLACK
6
CONTINUOUS
10
5.18898
20
-2.63701
11
5.18898
21
-2.65669
0
LINE
8
BLACK
6
CONTINUOUS
10
5.63898
20
-2.65079
11
5.5878
21
-2.65079
0
LINE
8
BLACK
6
CONTINUOUS
10
5.5878
20
-2.65079
11
5.5878
21
-2.58386
0
LINE
8
BLACK
6
CONTINUOUS
10
5.5878
20
-2.58386
11
5.63898
21
-2.58386
0
LINE
8
BLACK
6
CONTINUOUS
10
5.63898
20
-2.58386
11
5.63898
21
-2.65079
0
LINE
8
BLACK
6
CONTINUOUS
10
5.50118
20
-2.65079
11
5.45
21
-2.65079
0
LINE
8
BLACK
6
CONTINUOUS
10
5.45
20
-2.65079
11
5.45
21
-2.58386
0
LINE
8
BLACK
6
CONTINUOUS
10
5.45
20
-2.58386
11
5.50118
21
-2.58386
0
LINE
8
BLACK
6
CONTINUOUS
10
5.50118
20
-2.58386
11
5.50118
21
-2.65079
0
LINE
8
BLACK
6
CONTINUOUS
10
4.75197
20
-2.63504
11
4.73228
21
-2.63504
0
LINE
8
BLACK
6
CONTINUOUS
10
4.73228
20
-2.63504
11
4.73228
21
-2.59961
0
LINE
8
BLACK
6
CONTINUOUS
10
4.73228
20
-2.59961
11
4.75197
21
-2.59961
0
LINE
8
BLACK
6
CONTINUOUS
10
4.75197
20
-2.59961
11
4.75197
21
-2.63504
0
LINE
8
BLACK
6
CONTINUOUS
10
4.81102
20
-2.63504
11
4.79134
21
-2.63504
0
LINE
8
BLACK
6
CONTINUOUS
10
4.79134
20
-2.63504
11
4.79134
21
-2.59961
0
LINE
8
BLACK
6
CONTINUOUS
10
4.79134
20
-2.59961
11
4.81102
21
-2.59961
0
LINE
8
BLACK
6
CONTINUOUS
10
4.81102
20
-2.59961
11
4.81102
21
-2.63504
0
LINE
8
BLACK
6
CONTINUOUS
10
5.3122
20
-2.63307
11
5.27677
21
-2.63307
0
LINE
8
BLACK
6
CONTINUOUS
10
5.27677
20
-2.63307
11
5.27677
21
-2.60157
0
LINE
8
BLACK
6
CONTINUOUS
10
5.27677
20
-2.60157
11
5.3122
21
-2.60157
0
LINE
8
BLACK
6
CONTINUOUS
10
5.3122
20
-2.60157
11
5.3122
21
-2.63307
0
LINE
8
BLACK
6
CONTINUOUS
10
3.80276
20
-2.63071
11
3.76732
21
-2.63071
0
LINE
8
BLACK
6
CONTINUOUS
10
3.76732
20
-2.63071
11
3.76732
21
-2.61102
0
LINE
8
BLACK
6
CONTINUOUS
10
3.76732
20
-2.61102
11
3.80276
21
-2.61102
0
LINE
8
BLACK
6
CONTINUOUS
10
3.80276
20
-2.61102
11
3.80276
21
-2.63071
0
LINE
8
BLACK
6
CONTINUOUS
10
3.71063
20
-2.62992
11
3.66339
21
-2.62992
0
LINE
8
BLACK
6
CONTINUOUS
10
3.66339
20
-2.62992
11
3.66339
21
-2.58268
0
LINE
8
BLACK
6
CONTINUOUS
10
3.66339
20
-2.58268
11
3.71063
21
-2.58268
0
LINE
8
BLACK
6
CONTINUOUS
10
3.71063
20
-2.58268
11
3.71063
21
-2.62992
0
LINE
8
BLACK
6
CONTINUOUS
10
3.9376
20
-2.62559
11
3.85768
21
-2.62559
0
LINE
8
BLACK
6
CONTINUOUS
10
3.85768
20
-2.62559
11
3.85768
21
-2.58071
0
LINE
8
BLACK
6
CONTINUOUS
10
3.85768
20
-2.58071
11
3.9376
21
-2.58071
0
LINE
8
BLACK
6
CONTINUOUS
10
3.9376
20
-2.58071
11
3.9376
21
-2.62559
0
LINE
8
BLACK
6
CONTINUOUS
10
6.77953
20
-2.61969
11
6.72047
21
-2.61969
0
LINE
8
BLACK
6
CONTINUOUS
10
6.72047
20
-2.61969
11
6.72047
21
-2.59606
0
LINE
8
BLACK
6
CONTINUOUS
10
6.72047
20
-2.59606
11
6.77953
21
-2.59606
0
LINE
8
BLACK
6
CONTINUOUS
10
6.77953
20
-2.59606
11
6.77953
21
-2.61969
0
LINE
8
BLACK
6
CONTINUOUS
10
6.56693
20
-2.61969
11
6.50787
21
-2.61969
0
LINE
8
BLACK
6
CONTINUOUS
10
6.50787
20
-2.61969
11
6.50787
21
-2.59606
0
LINE
8
BLACK
6
CONTINUOUS
10
6.50787
20
-2.59606
11
6.56693
21
-2.59606
0
LINE
8
BLACK
6
CONTINUOUS
10
6.56693
20
-2.59606
11
6.56693
21
-2.61969
0
LINE
8
BLACK
6
CONTINUOUS
10
5.18898
20
-2.59764
11
5.15354
21
-2.59764
0
LINE
8
BLACK
6
CONTINUOUS
10
5.15354
20
-2.59764
11
5.15354
21
-2.57795
0
LINE
8
BLACK
6
CONTINUOUS
10
5.15354
20
-2.57795
11
5.18898
21
-2.57795
0
LINE
8
BLACK
6
CONTINUOUS
10
5.18898
20
-2.57795
11
5.18898
21
-2.59764
0
LINE
8
BLACK
6
CONTINUOUS
10
5.39094
20
-2.59567
11
5.35551
21
-2.59567
0
LINE
8
BLACK
6
CONTINUOUS
10
5.35551
20
-2.59567
11
5.35551
21
-2.56417
0
LINE
8
BLACK
6
CONTINUOUS
10
5.35551
20
-2.56417
11
5.39094
21
-2.56417
0
LINE
8
BLACK
6
CONTINUOUS
10
5.39094
20
-2.56417
11
5.39094
21
-2.59567
0
LINE
8
BLACK
6
CONTINUOUS
10
6.22913
20
-2.58268
11
6.20945
21
-2.58268
0
LINE
8
BLACK
6
CONTINUOUS
10
6.20945
20
-2.58268
11
6.20945
21
-2.54724
0
LINE
8
BLACK
6
CONTINUOUS
10
6.20945
20
-2.54724
11
6.22913
21
-2.54724
0
LINE
8
BLACK
6
CONTINUOUS
10
6.22913
20
-2.54724
11
6.22913
21
-2.58268
0
LINE
8
BLACK
6
CONTINUOUS
10
6.8937
20
-2.58268
11
6.87402
21
-2.58268
0
LINE
8
BLACK
6
CONTINUOUS
10
6.87402
20
-2.58268
11
6.87402
21
-2.54724
0
LINE
8
BLACK
6
CONTINUOUS
10
6.87402
20
-2.54724
11
6.8937
21
-2.54724
0
LINE
8
BLACK
6
CONTINUOUS
10
6.8937
20
-2.54724
11
6.8937
21
-2.58268
0
LINE
8
BLACK
6
CONTINUOUS
10
6.95276
20
-2.58268
11
6.93307
21
-2.58268
0
LINE
8
BLACK
6
CONTINUOUS
10
6.93307
20
-2.58268
11
6.93307
21
-2.54724
0
LINE
8
BLACK
6
CONTINUOUS
10
6.93307
20
-2.54724
11
6.95276
21
-2.54724
0
LINE
8
BLACK
6
CONTINUOUS
10
6.95276
20
-2.54724
11
6.95276
21
-2.58268
0
LINE
8
BLACK
6
CONTINUOUS
10
6.42638
20
-2.58268
11
6.40669
21
-2.58268
0
LINE
8
BLACK
6
CONTINUOUS
10
6.40669
20
-2.58268
11
6.40669
21
-2.54724
0
LINE
8
BLACK
6
CONTINUOUS
10
6.40669
20
-2.54724
11
6.42638
21
-2.54724
0
LINE
8
BLACK
6
CONTINUOUS
10
6.42638
20
-2.54724
11
6.42638
21
-2.58268
0
LINE
8
BLACK
6
CONTINUOUS
10
6.36732
20
-2.58268
11
6.34764
21
-2.58268
0
LINE
8
BLACK
6
CONTINUOUS
10
6.34764
20
-2.58268
11
6.34764
21
-2.54724
0
LINE
8
BLACK
6
CONTINUOUS
10
6.34764
20
-2.54724
11
6.36732
21
-2.54724
0
LINE
8
BLACK
6
CONTINUOUS
10
6.36732
20
-2.54724
11
6.36732
21
-2.58268
0
LINE
8
BLACK
6
CONTINUOUS
10
6.17008
20
-2.58268
11
6.15039
21
-2.58268
0
LINE
8
BLACK
6
CONTINUOUS
10
6.15039
20
-2.58268
11
6.15039
21
-2.54724
0
LINE
8
BLACK
6
CONTINUOUS
10
6.15039
20
-2.54724
11
6.17008
21
-2.54724
0
LINE
8
BLACK
6
CONTINUOUS
10
6.17008
20
-2.54724
11
6.17008
21
-2.58268
0
LINE
8
BLACK
6
CONTINUOUS
10
3.79232
20
-2.53681
11
3.76752
21
-2.53681
0
LINE
8
BLACK
6
CONTINUOUS
10
3.76752
20
-2.53681
11
3.76752
21
-2.51909
0
LINE
8
BLACK
6
CONTINUOUS
10
3.76752
20
-2.51909
11
3.79232
21
-2.51909
0
LINE
8
BLACK
6
CONTINUOUS
10
3.79232
20
-2.51909
11
3.79232
21
-2.53681
0
LINE
8
BLACK
6
CONTINUOUS
10
3.89783
20
-2.53681
11
3.87303
21
-2.53681
0
LINE
8
BLACK
6
CONTINUOUS
10
3.87303
20
-2.53681
11
3.87303
21
-2.51909
0
LINE
8
BLACK
6
CONTINUOUS
10
3.87303
20
-2.51909
11
3.89783
21
-2.51909
0
LINE
8
BLACK
6
CONTINUOUS
10
3.89783
20
-2.51909
11
3.89783
21
-2.53681
0
LINE
8
BLACK
6
CONTINUOUS
10
3.70177
20
-2.52795
11
3.67224
21
-2.52795
0
LINE
8
BLACK
6
CONTINUOUS
10
3.67224
20
-2.52795
11
3.67224
21
-2.49646
0
LINE
8
BLACK
6
CONTINUOUS
10
3.67224
20
-2.49646
11
3.70177
21
-2.49646
0
LINE
8
BLACK
6
CONTINUOUS
10
3.70177
20
-2.49646
11
3.70177
21
-2.52795
0
LINE
8
BLACK
6
CONTINUOUS
10
3.99114
20
-2.52795
11
3.96161
21
-2.52795
0
LINE
8
BLACK
6
CONTINUOUS
10
3.96161
20
-2.52795
11
3.96161
21
-2.49646
0
LINE
8
BLACK
6
CONTINUOUS
10
3.96161
20
-2.49646
11
3.99114
21
-2.49646
0
LINE
8
BLACK
6
CONTINUOUS
10
3.99114
20
-2.49646
11
3.99114
21
-2.52795
0
LINE
8
BLACK
6
CONTINUOUS
10
3.84449
20
-2.52008
11
3.82087
21
-2.52008
0
LINE
8
BLACK
6
CONTINUOUS
10
3.82087
20
-2.52008
11
3.82087
21
-2.46102
0
LINE
8
BLACK
6
CONTINUOUS
10
3.82087
20
-2.46102
11
3.84449
21
-2.46102
0
LINE
8
BLACK
6
CONTINUOUS
10
3.84449
20
-2.46102
11
3.84449
21
-2.52008
0
LINE
8
BLACK
6
CONTINUOUS
10
3.79232
20
-2.49941
11
3.76752
21
-2.49941
0
LINE
8
BLACK
6
CONTINUOUS
10
3.76752
20
-2.49941
11
3.76752
21
-2.48169
0
LINE
8
BLACK
6
CONTINUOUS
10
3.76752
20
-2.48169
11
3.79232
21
-2.48169
0
LINE
8
BLACK
6
CONTINUOUS
10
3.79232
20
-2.48169
11
3.79232
21
-2.49941
0
LINE
8
BLACK
6
CONTINUOUS
10
3.89783
20
-2.49941
11
3.87303
21
-2.49941
0
LINE
8
BLACK
6
CONTINUOUS
10
3.87303
20
-2.49941
11
3.87303
21
-2.48169
0
LINE
8
BLACK
6
CONTINUOUS
10
3.87303
20
-2.48169
11
3.89783
21
-2.48169
0
LINE
8
BLACK
6
CONTINUOUS
10
3.89783
20
-2.48169
11
3.89783
21
-2.49941
0
LINE
8
BLACK
6
CONTINUOUS
10
3.70177
20
-2.4689
11
3.67224
21
-2.4689
0
LINE
8
BLACK
6
CONTINUOUS
10
3.67224
20
-2.4689
11
3.67224
21
-2.4374
0
LINE
8
BLACK
6
CONTINUOUS
10
3.67224
20
-2.4374
11
3.70177
21
-2.4374
0
LINE
8
BLACK
6
CONTINUOUS
10
3.70177
20
-2.4374
11
3.70177
21
-2.4689
0
LINE
8
BLACK
6
CONTINUOUS
10
3.99114
20
-2.4689
11
3.96161
21
-2.4689
0
LINE
8
BLACK
6
CONTINUOUS
10
3.96161
20
-2.4689
11
3.96161
21
-2.4374
0
LINE
8
BLACK
6
CONTINUOUS
10
3.96161
20
-2.4374
11
3.99114
21
-2.4374
0
LINE
8
BLACK
6
CONTINUOUS
10
3.99114
20
-2.4374
11
3.99114
21
-2.4689
0
LINE
8
BLACK
6
CONTINUOUS
10
3.89783
20
-2.46201
11
3.87303
21
-2.46201
0
LINE
8
BLACK
6
CONTINUOUS
10
3.87303
20
-2.46201
11
3.87303
21
-2.44429
0
LINE
8
BLACK
6
CONTINUOUS
10
3.87303
20
-2.44429
11
3.89783
21
-2.44429
0
LINE
8
BLACK
6
CONTINUOUS
10
3.89783
20
-2.44429
11
3.89783
21
-2.46201
0
LINE
8
BLACK
6
CONTINUOUS
10
3.79232
20
-2.46201
11
3.76752
21
-2.46201
0
LINE
8
BLACK
6
CONTINUOUS
10
3.76752
20
-2.46201
11
3.76752
21
-2.44429
0
LINE
8
BLACK
6
CONTINUOUS
10
3.76752
20
-2.44429
11
3.79232
21
-2.44429
0
LINE
8
BLACK
6
CONTINUOUS
10
3.79232
20
-2.44429
11
3.79232
21
-2.46201
  0
ENDSEC
  0
EOF
