  0
SECTION
  2
HEADER
  9
$ANGBASE
  50
0.0
  9
$ANGDIR
  70
  1
  9
$MEASUREMENT
  70
0
  0
ENDSEC
  0
SECTION
  2
TABLES
  0
TABLE
  2
LTYPE
  70
4
  0
LTYPE
  5
40F
  2
CONTINUOUS
  70
0
  3
Solid line
  72
65
  73
0
  40
0.0
  0
LTYPE
  5
410
  2
DASHDOT
 70
0
  3
Dash Dot ____ _ ____ _
 72
65
 73
4
 40
2.0
 49
1.25
 49
-0.25
 49
0.25
 49
-0.25
  0
LTYPE
  5
411
  2
DASHED
 70
0
  3
Dashed __ __ __ __ __
 72
65
 73
2
 40
0.75
 49
0.5
 49
-0.25
  0
LTYPE
  5
43B
  2
DOTTED
 70
0
  3
Dotted .  .  .  .
 72
65
 73
2
 40
0.2
 49
0.0
 49
-0.2
  0
ENDTAB
  0
TABLE
  2
STYLE
  70
4
  0
STYLE
  2
KICAD
  70
0
  40
0
  41
1
  42
1
  50
0
  71
0
  3
isocp.shx
  0
STYLE
  2
KICADB
  70
0
  40
0
  41
1
  42
1
  50
0
  71
0
  3
isocp.shx
  0
STYLE
  2
KICADI
  70
0
  40
0
  41
1
  42
1
  50
15
  71
0
  3
isocp.shx
  0
STYLE
  2
KICADBI
  70
0
  40
0
  41
1
  42
1
  50
15
  71
0
  3
isocp.shx
  0
ENDTAB
  0
TABLE
  2
LAYER
  70
30
  0
LAYER
  2
BLACK
  70
0
  62
7
  6
CONTINUOUS
  0
LAYER
  2
GRAY1
  70
0
  62
251
  6
CONTINUOUS
  0
LAYER
  2
GRAY2
  70
0
  62
8
  6
CONTINUOUS
  0
LAYER
  2
GRAY3
  70
0
  62
9
  6
CONTINUOUS
  0
LAYER
  2
WHITE
  70
0
  62
7
  6
CONTINUOUS
  0
LAYER
  2
LYELLOW
  70
0
  62
51
  6
CONTINUOUS
  0
LAYER
  2
BLUE1
  70
0
  62
178
  6
CONTINUOUS
  0
LAYER
  2
GREEN1
  70
0
  62
98
  6
CONTINUOUS
  0
LAYER
  2
CYAN1
  70
0
  62
138
  6
CONTINUOUS
  0
LAYER
  2
RED1
  70
0
  62
18
  6
CONTINUOUS
  0
LAYER
  2
MAGENTA1
  70
0
  62
228
  6
CONTINUOUS
  0
LAYER
  2
BROWN1
  70
0
  62
58
  6
CONTINUOUS
  0
LAYER
  2
BLUE2
  70
0
  62
5
  6
CONTINUOUS
  0
LAYER
  2
GREEN2
  70
0
  62
3
  6
CONTINUOUS
  0
LAYER
  2
CYAN2
  70
0
  62
4
  6
CONTINUOUS
  0
LAYER
  2
RED2
  70
0
  62
1
  6
CONTINUOUS
  0
LAYER
  2
MAGENTA2
  70
0
  62
6
  6
CONTINUOUS
  0
LAYER
  2
BROWN2
  70
0
  62
54
  6
CONTINUOUS
  0
LAYER
  2
BLUE3
  70
0
  62
171
  6
CONTINUOUS
  0
LAYER
  2
GREEN3
  70
0
  62
91
  6
CONTINUOUS
  0
LAYER
  2
CYAN3
  70
0
  62
131
  6
CONTINUOUS
  0
LAYER
  2
RED3
  70
0
  62
11
  6
CONTINUOUS
  0
LAYER
  2
MAGENTA3
  70
0
  62
221
  6
CONTINUOUS
  0
LAYER
  2
YELLOW3
  70
0
  62
2
  6
CONTINUOUS
  0
LAYER
  2
BLUE4
  70
0
  62
5
  6
CONTINUOUS
  0
LAYER
  2
GREEN4
  70
0
  62
3
  6
CONTINUOUS
  0
LAYER
  2
CYAN4
  70
0
  62
4
  6
CONTINUOUS
  0
LAYER
  2
RED4
  70
0
  62
1
  6
CONTINUOUS
  0
LAYER
  2
MAGENTA4
  70
0
  62
6
  6
CONTINUOUS
  0
LAYER
  2
YELLOW4
  70
0
  62
2
  6
CONTINUOUS
  0
ENDTAB
  0
ENDSEC
  0
SECTION
  2
ENTITIES
0
LINE
8
BLACK
6
CONTINUOUS
10
176.051
20
-102.434
11
177.609
21
-103.333
0
LINE
8
BLACK
6
CONTINUOUS
10
177.609
20
-103.333
11
178.765
21
-104.711
0
LINE
8
BLACK
6
CONTINUOUS
10
178.765
20
-104.711
11
179.38
21
-106.401
0
LINE
8
BLACK
6
CONTINUOUS
10
179.38
20
-106.401
11
179.38
21
-108.199
0
LINE
8
BLACK
6
CONTINUOUS
10
179.38
20
-108.199
11
178.765
21
-109.889
0
LINE
8
BLACK
6
CONTINUOUS
10
178.765
20
-109.889
11
177.609
21
-111.267
0
LINE
8
BLACK
6
CONTINUOUS
10
177.609
20
-111.267
11
176.051
21
-112.166
0
LINE
8
BLACK
6
CONTINUOUS
10
176.051
20
-112.166
11
174.28
21
-112.479
0
LINE
8
BLACK
6
CONTINUOUS
10
174.28
20
-112.479
11
172.509
21
-112.166
0
LINE
8
BLACK
6
CONTINUOUS
10
172.509
20
-112.166
11
170.951
21
-111.267
0
LINE
8
BLACK
6
CONTINUOUS
10
170.951
20
-111.267
11
169.795
21
-109.889
0
LINE
8
BLACK
6
CONTINUOUS
10
169.795
20
-109.889
11
169.18
21
-108.199
0
LINE
8
BLACK
6
CONTINUOUS
10
169.18
20
-108.199
11
169.18
21
-106.401
0
LINE
8
BLACK
6
CONTINUOUS
10
169.18
20
-106.401
11
169.795
21
-104.711
0
LINE
8
BLACK
6
CONTINUOUS
10
169.795
20
-104.711
11
170.951
21
-103.333
0
LINE
8
BLACK
6
CONTINUOUS
10
170.951
20
-103.333
11
172.509
21
-102.434
0
LINE
8
BLACK
6
CONTINUOUS
10
172.509
20
-102.434
11
174.28
21
-102.121
0
LINE
8
BLACK
6
CONTINUOUS
10
174.28
20
-102.121
11
176.051
21
-102.434
0
LINE
8
BLACK
6
CONTINUOUS
10
167.93
20
-109.85
11
165.43
21
-109.85
0
LINE
8
BLACK
6
CONTINUOUS
10
165.43
20
-109.85
11
165.43
21
-104.75
0
LINE
8
BLACK
6
CONTINUOUS
10
165.43
20
-104.75
11
167.93
21
-104.75
0
LINE
8
BLACK
6
CONTINUOUS
10
167.93
20
-104.75
11
167.93
21
-109.85
0
LINE
8
BLACK
6
CONTINUOUS
10
183.13
20
-109.85
11
180.63
21
-109.85
0
LINE
8
BLACK
6
CONTINUOUS
10
180.63
20
-109.85
11
180.63
21
-104.75
0
LINE
8
BLACK
6
CONTINUOUS
10
180.63
20
-104.75
11
183.13
21
-104.75
0
LINE
8
BLACK
6
CONTINUOUS
10
183.13
20
-104.75
11
183.13
21
-109.85
0
LINE
8
BLACK
6
CONTINUOUS
10
113.23
20
-109.62
11
112.73
21
-109.62
0
LINE
8
BLACK
6
CONTINUOUS
10
112.73
20
-109.62
11
112.73
21
-108.72
0
LINE
8
BLACK
6
CONTINUOUS
10
112.73
20
-108.72
11
113.23
21
-108.72
0
LINE
8
BLACK
6
CONTINUOUS
10
113.23
20
-108.72
11
113.23
21
-109.62
0
LINE
8
BLACK
6
CONTINUOUS
10
111.73
20
-109.62
11
111.23
21
-109.62
0
LINE
8
BLACK
6
CONTINUOUS
10
111.23
20
-109.62
11
111.23
21
-108.72
0
LINE
8
BLACK
6
CONTINUOUS
10
111.23
20
-108.72
11
111.73
21
-108.72
0
LINE
8
BLACK
6
CONTINUOUS
10
111.73
20
-108.72
11
111.73
21
-109.62
0
LINE
8
BLACK
6
CONTINUOUS
10
163.35
20
-108.55
11
161.55
21
-108.55
0
LINE
8
BLACK
6
CONTINUOUS
10
161.55
20
-108.55
11
161.55
21
-107.55
0
LINE
8
BLACK
6
CONTINUOUS
10
161.55
20
-107.55
11
163.35
21
-107.55
0
LINE
8
BLACK
6
CONTINUOUS
10
163.35
20
-107.55
11
163.35
21
-108.55
0
LINE
8
BLACK
6
CONTINUOUS
10
131.91
20
-107.96
11
130.41
21
-107.96
0
LINE
8
BLACK
6
CONTINUOUS
10
130.41
20
-107.96
11
130.41
21
-107.36
0
LINE
8
BLACK
6
CONTINUOUS
10
130.41
20
-107.36
11
131.91
21
-107.36
0
LINE
8
BLACK
6
CONTINUOUS
10
131.91
20
-107.36
11
131.91
21
-107.96
0
LINE
8
BLACK
6
CONTINUOUS
10
137.31
20
-107.96
11
135.81
21
-107.96
0
LINE
8
BLACK
6
CONTINUOUS
10
135.81
20
-107.96
11
135.81
21
-107.36
0
LINE
8
BLACK
6
CONTINUOUS
10
135.81
20
-107.36
11
137.31
21
-107.36
0
LINE
8
BLACK
6
CONTINUOUS
10
137.31
20
-107.36
11
137.31
21
-107.96
0
LINE
8
BLACK
6
CONTINUOUS
10
94.8
20
-107.3
11
93.1
21
-107.3
0
LINE
8
BLACK
6
CONTINUOUS
10
93.1
20
-107.3
11
93.1
21
-106.4
0
LINE
8
BLACK
6
CONTINUOUS
10
93.1
20
-106.4
11
94.8
21
-106.4
0
LINE
8
BLACK
6
CONTINUOUS
10
94.8
20
-106.4
11
94.8
21
-107.3
0
LINE
8
BLACK
6
CONTINUOUS
10
113.23
20
-107
11
112.73
21
-107
0
LINE
8
BLACK
6
CONTINUOUS
10
112.73
20
-107
11
112.73
21
-106.1
0
LINE
8
BLACK
6
CONTINUOUS
10
112.73
20
-106.1
11
113.23
21
-106.1
0
LINE
8
BLACK
6
CONTINUOUS
10
113.23
20
-106.1
11
113.23
21
-107
0
LINE
8
BLACK
6
CONTINUOUS
10
111.73
20
-107
11
111.23
21
-107
0
LINE
8
BLACK
6
CONTINUOUS
10
111.23
20
-107
11
111.23
21
-106.1
0
LINE
8
BLACK
6
CONTINUOUS
10
111.23
20
-106.1
11
111.73
21
-106.1
0
LINE
8
BLACK
6
CONTINUOUS
10
111.73
20
-106.1
11
111.73
21
-107
0
LINE
8
BLACK
6
CONTINUOUS
10
117.13
20
-107
11
116.63
21
-107
0
LINE
8
BLACK
6
CONTINUOUS
10
116.63
20
-107
11
116.63
21
-106.1
0
LINE
8
BLACK
6
CONTINUOUS
10
116.63
20
-106.1
11
117.13
21
-106.1
0
LINE
8
BLACK
6
CONTINUOUS
10
117.13
20
-106.1
11
117.13
21
-107
0
LINE
8
BLACK
6
CONTINUOUS
10
115.63
20
-107
11
115.13
21
-107
0
LINE
8
BLACK
6
CONTINUOUS
10
115.13
20
-107
11
115.13
21
-106.1
0
LINE
8
BLACK
6
CONTINUOUS
10
115.13
20
-106.1
11
115.63
21
-106.1
0
LINE
8
BLACK
6
CONTINUOUS
10
115.63
20
-106.1
11
115.63
21
-107
0
LINE
8
BLACK
6
CONTINUOUS
10
99.06
20
-106.98
11
98.56
21
-106.98
0
LINE
8
BLACK
6
CONTINUOUS
10
98.56
20
-106.98
11
98.56
21
-106.08
0
LINE
8
BLACK
6
CONTINUOUS
10
98.56
20
-106.08
11
99.06
21
-106.08
0
LINE
8
BLACK
6
CONTINUOUS
10
99.06
20
-106.08
11
99.06
21
-106.98
0
LINE
8
BLACK
6
CONTINUOUS
10
97.56
20
-106.98
11
97.06
21
-106.98
0
LINE
8
BLACK
6
CONTINUOUS
10
97.06
20
-106.98
11
97.06
21
-106.08
0
LINE
8
BLACK
6
CONTINUOUS
10
97.06
20
-106.08
11
97.56
21
-106.08
0
LINE
8
BLACK
6
CONTINUOUS
10
97.56
20
-106.08
11
97.56
21
-106.98
0
LINE
8
BLACK
6
CONTINUOUS
10
121.53
20
-106.925
11
120.73
21
-106.925
0
LINE
8
BLACK
6
CONTINUOUS
10
120.73
20
-106.925
11
120.73
21
-106.175
0
LINE
8
BLACK
6
CONTINUOUS
10
120.73
20
-106.175
11
121.53
21
-106.175
0
LINE
8
BLACK
6
CONTINUOUS
10
121.53
20
-106.175
11
121.53
21
-106.925
0
LINE
8
BLACK
6
CONTINUOUS
10
125.83
20
-106.925
11
125.03
21
-106.925
0
LINE
8
BLACK
6
CONTINUOUS
10
125.03
20
-106.925
11
125.03
21
-106.175
0
LINE
8
BLACK
6
CONTINUOUS
10
125.03
20
-106.175
11
125.83
21
-106.175
0
LINE
8
BLACK
6
CONTINUOUS
10
125.83
20
-106.175
11
125.83
21
-106.925
0
LINE
8
BLACK
6
CONTINUOUS
10
124.33
20
-106.925
11
123.53
21
-106.925
0
LINE
8
BLACK
6
CONTINUOUS
10
123.53
20
-106.925
11
123.53
21
-106.175
0
LINE
8
BLACK
6
CONTINUOUS
10
123.53
20
-106.175
11
124.33
21
-106.175
0
LINE
8
BLACK
6
CONTINUOUS
10
124.33
20
-106.175
11
124.33
21
-106.925
0
LINE
8
BLACK
6
CONTINUOUS
10
108.4
20
-106.925
11
107.6
21
-106.925
0
LINE
8
BLACK
6
CONTINUOUS
10
107.6
20
-106.925
11
107.6
21
-106.175
0
LINE
8
BLACK
6
CONTINUOUS
10
107.6
20
-106.175
11
108.4
21
-106.175
0
LINE
8
BLACK
6
CONTINUOUS
10
108.4
20
-106.175
11
108.4
21
-106.925
0
LINE
8
BLACK
6
CONTINUOUS
10
109.9
20
-106.925
11
109.1
21
-106.925
0
LINE
8
BLACK
6
CONTINUOUS
10
109.1
20
-106.925
11
109.1
21
-106.175
0
LINE
8
BLACK
6
CONTINUOUS
10
109.1
20
-106.175
11
109.9
21
-106.175
0
LINE
8
BLACK
6
CONTINUOUS
10
109.9
20
-106.175
11
109.9
21
-106.925
0
LINE
8
BLACK
6
CONTINUOUS
10
120.03
20
-106.925
11
119.23
21
-106.925
0
LINE
8
BLACK
6
CONTINUOUS
10
119.23
20
-106.925
11
119.23
21
-106.175
0
LINE
8
BLACK
6
CONTINUOUS
10
119.23
20
-106.175
11
120.03
21
-106.175
0
LINE
8
BLACK
6
CONTINUOUS
10
120.03
20
-106.175
11
120.03
21
-106.925
0
LINE
8
BLACK
6
CONTINUOUS
10
101.39
20
-106.915
11
100.59
21
-106.915
0
LINE
8
BLACK
6
CONTINUOUS
10
100.59
20
-106.915
11
100.59
21
-106.165
0
LINE
8
BLACK
6
CONTINUOUS
10
100.59
20
-106.165
11
101.39
21
-106.165
0
LINE
8
BLACK
6
CONTINUOUS
10
101.39
20
-106.165
11
101.39
21
-106.915
0
LINE
8
BLACK
6
CONTINUOUS
10
102.89
20
-106.915
11
102.09
21
-106.915
0
LINE
8
BLACK
6
CONTINUOUS
10
102.09
20
-106.915
11
102.09
21
-106.165
0
LINE
8
BLACK
6
CONTINUOUS
10
102.09
20
-106.165
11
102.89
21
-106.165
0
LINE
8
BLACK
6
CONTINUOUS
10
102.89
20
-106.165
11
102.89
21
-106.915
0
LINE
8
BLACK
6
CONTINUOUS
10
131.91
20
-106.69
11
130.41
21
-106.69
0
LINE
8
BLACK
6
CONTINUOUS
10
130.41
20
-106.69
11
130.41
21
-106.09
0
LINE
8
BLACK
6
CONTINUOUS
10
130.41
20
-106.09
11
131.91
21
-106.09
0
LINE
8
BLACK
6
CONTINUOUS
10
131.91
20
-106.09
11
131.91
21
-106.69
0
LINE
8
BLACK
6
CONTINUOUS
10
137.31
20
-106.69
11
135.81
21
-106.69
0
LINE
8
BLACK
6
CONTINUOUS
10
135.81
20
-106.69
11
135.81
21
-106.09
0
LINE
8
BLACK
6
CONTINUOUS
10
135.81
20
-106.09
11
137.31
21
-106.09
0
LINE
8
BLACK
6
CONTINUOUS
10
137.31
20
-106.09
11
137.31
21
-106.69
0
LINE
8
BLACK
6
CONTINUOUS
10
155.145
20
-106.615
11
153.595
21
-106.615
0
LINE
8
BLACK
6
CONTINUOUS
10
153.595
20
-106.615
11
153.595
21
-106.015
0
LINE
8
BLACK
6
CONTINUOUS
10
153.595
20
-106.015
11
155.145
21
-106.015
0
LINE
8
BLACK
6
CONTINUOUS
10
155.145
20
-106.015
11
155.145
21
-106.615
0
LINE
8
BLACK
6
CONTINUOUS
10
160.545
20
-106.615
11
158.995
21
-106.615
0
LINE
8
BLACK
6
CONTINUOUS
10
158.995
20
-106.615
11
158.995
21
-106.015
0
LINE
8
BLACK
6
CONTINUOUS
10
158.995
20
-106.015
11
160.545
21
-106.015
0
LINE
8
BLACK
6
CONTINUOUS
10
160.545
20
-106.015
11
160.545
21
-106.615
0
LINE
8
BLACK
6
CONTINUOUS
10
163.35
20
-106.05
11
161.55
21
-106.05
0
LINE
8
BLACK
6
CONTINUOUS
10
161.55
20
-106.05
11
161.55
21
-105.05
0
LINE
8
BLACK
6
CONTINUOUS
10
161.55
20
-105.05
11
163.35
21
-105.05
0
LINE
8
BLACK
6
CONTINUOUS
10
163.35
20
-105.05
11
163.35
21
-106.05
0
LINE
8
BLACK
6
CONTINUOUS
10
131.91
20
-105.42
11
130.41
21
-105.42
0
LINE
8
BLACK
6
CONTINUOUS
10
130.41
20
-105.42
11
130.41
21
-104.82
0
LINE
8
BLACK
6
CONTINUOUS
10
130.41
20
-104.82
11
131.91
21
-104.82
0
LINE
8
BLACK
6
CONTINUOUS
10
131.91
20
-104.82
11
131.91
21
-105.42
0
LINE
8
BLACK
6
CONTINUOUS
10
137.31
20
-105.42
11
135.81
21
-105.42
0
LINE
8
BLACK
6
CONTINUOUS
10
135.81
20
-105.42
11
135.81
21
-104.82
0
LINE
8
BLACK
6
CONTINUOUS
10
135.81
20
-104.82
11
137.31
21
-104.82
0
LINE
8
BLACK
6
CONTINUOUS
10
137.31
20
-104.82
11
137.31
21
-105.42
0
LINE
8
BLACK
6
CONTINUOUS
10
155.145
20
-105.345
11
153.595
21
-105.345
0
LINE
8
BLACK
6
CONTINUOUS
10
153.595
20
-105.345
11
153.595
21
-104.745
0
LINE
8
BLACK
6
CONTINUOUS
10
153.595
20
-104.745
11
155.145
21
-104.745
0
LINE
8
BLACK
6
CONTINUOUS
10
155.145
20
-104.745
11
155.145
21
-105.345
0
LINE
8
BLACK
6
CONTINUOUS
10
160.545
20
-105.345
11
158.995
21
-105.345
0
LINE
8
BLACK
6
CONTINUOUS
10
158.995
20
-105.345
11
158.995
21
-104.745
0
LINE
8
BLACK
6
CONTINUOUS
10
158.995
20
-104.745
11
160.545
21
-104.745
0
LINE
8
BLACK
6
CONTINUOUS
10
160.545
20
-104.745
11
160.545
21
-105.345
0
LINE
8
BLACK
6
CONTINUOUS
10
101.24
20
-104.46
11
100.74
21
-104.46
0
LINE
8
BLACK
6
CONTINUOUS
10
100.74
20
-104.46
11
100.74
21
-103.56
0
LINE
8
BLACK
6
CONTINUOUS
10
100.74
20
-103.56
11
101.24
21
-103.56
0
LINE
8
BLACK
6
CONTINUOUS
10
101.24
20
-103.56
11
101.24
21
-104.46
0
LINE
8
BLACK
6
CONTINUOUS
10
104.73
20
-104.46
11
104.23
21
-104.46
0
LINE
8
BLACK
6
CONTINUOUS
10
104.23
20
-104.46
11
104.23
21
-103.56
0
LINE
8
BLACK
6
CONTINUOUS
10
104.23
20
-103.56
11
104.73
21
-103.56
0
LINE
8
BLACK
6
CONTINUOUS
10
104.73
20
-103.56
11
104.73
21
-104.46
0
LINE
8
BLACK
6
CONTINUOUS
10
106.23
20
-104.46
11
105.73
21
-104.46
0
LINE
8
BLACK
6
CONTINUOUS
10
105.73
20
-104.46
11
105.73
21
-103.56
0
LINE
8
BLACK
6
CONTINUOUS
10
105.73
20
-103.56
11
106.23
21
-103.56
0
LINE
8
BLACK
6
CONTINUOUS
10
106.23
20
-103.56
11
106.23
21
-104.46
0
LINE
8
BLACK
6
CONTINUOUS
10
102.74
20
-104.46
11
102.24
21
-104.46
0
LINE
8
BLACK
6
CONTINUOUS
10
102.24
20
-104.46
11
102.24
21
-103.56
0
LINE
8
BLACK
6
CONTINUOUS
10
102.24
20
-103.56
11
102.74
21
-103.56
0
LINE
8
BLACK
6
CONTINUOUS
10
102.74
20
-103.56
11
102.74
21
-104.46
0
LINE
8
BLACK
6
CONTINUOUS
10
109.75
20
-104.45
11
109.25
21
-104.45
0
LINE
8
BLACK
6
CONTINUOUS
10
109.25
20
-104.45
11
109.25
21
-103.55
0
LINE
8
BLACK
6
CONTINUOUS
10
109.25
20
-103.55
11
109.75
21
-103.55
0
LINE
8
BLACK
6
CONTINUOUS
10
109.75
20
-103.55
11
109.75
21
-104.45
0
LINE
8
BLACK
6
CONTINUOUS
10
108.25
20
-104.45
11
107.75
21
-104.45
0
LINE
8
BLACK
6
CONTINUOUS
10
107.75
20
-104.45
11
107.75
21
-103.55
0
LINE
8
BLACK
6
CONTINUOUS
10
107.75
20
-103.55
11
108.25
21
-103.55
0
LINE
8
BLACK
6
CONTINUOUS
10
108.25
20
-103.55
11
108.25
21
-104.45
0
LINE
8
BLACK
6
CONTINUOUS
10
111.9
20
-104.385
11
111.1
21
-104.385
0
LINE
8
BLACK
6
CONTINUOUS
10
111.1
20
-104.385
11
111.1
21
-103.635
0
LINE
8
BLACK
6
CONTINUOUS
10
111.1
20
-103.635
11
111.9
21
-103.635
0
LINE
8
BLACK
6
CONTINUOUS
10
111.9
20
-103.635
11
111.9
21
-104.385
0
LINE
8
BLACK
6
CONTINUOUS
10
113.4
20
-104.385
11
112.6
21
-104.385
0
LINE
8
BLACK
6
CONTINUOUS
10
112.6
20
-104.385
11
112.6
21
-103.635
0
LINE
8
BLACK
6
CONTINUOUS
10
112.6
20
-103.635
11
113.4
21
-103.635
0
LINE
8
BLACK
6
CONTINUOUS
10
113.4
20
-103.635
11
113.4
21
-104.385
0
LINE
8
BLACK
6
CONTINUOUS
10
99.21
20
-104.355
11
98.41
21
-104.355
0
LINE
8
BLACK
6
CONTINUOUS
10
98.41
20
-104.355
11
98.41
21
-103.605
0
LINE
8
BLACK
6
CONTINUOUS
10
98.41
20
-103.605
11
99.21
21
-103.605
0
LINE
8
BLACK
6
CONTINUOUS
10
99.21
20
-103.605
11
99.21
21
-104.355
0
LINE
8
BLACK
6
CONTINUOUS
10
97.71
20
-104.355
11
96.91
21
-104.355
0
LINE
8
BLACK
6
CONTINUOUS
10
96.91
20
-104.355
11
96.91
21
-103.605
0
LINE
8
BLACK
6
CONTINUOUS
10
96.91
20
-103.605
11
97.71
21
-103.605
0
LINE
8
BLACK
6
CONTINUOUS
10
97.71
20
-103.605
11
97.71
21
-104.355
0
LINE
8
BLACK
6
CONTINUOUS
10
131.91
20
-104.15
11
130.41
21
-104.15
0
LINE
8
BLACK
6
CONTINUOUS
10
130.41
20
-104.15
11
130.41
21
-103.55
0
LINE
8
BLACK
6
CONTINUOUS
10
130.41
20
-103.55
11
131.91
21
-103.55
0
LINE
8
BLACK
6
CONTINUOUS
10
131.91
20
-103.55
11
131.91
21
-104.15
0
LINE
8
BLACK
6
CONTINUOUS
10
137.31
20
-104.15
11
135.81
21
-104.15
0
LINE
8
BLACK
6
CONTINUOUS
10
135.81
20
-104.15
11
135.81
21
-103.55
0
LINE
8
BLACK
6
CONTINUOUS
10
135.81
20
-103.55
11
137.31
21
-103.55
0
LINE
8
BLACK
6
CONTINUOUS
10
137.31
20
-103.55
11
137.31
21
-104.15
0
LINE
8
BLACK
6
CONTINUOUS
10
155.145
20
-104.075
11
153.595
21
-104.075
0
LINE
8
BLACK
6
CONTINUOUS
10
153.595
20
-104.075
11
153.595
21
-103.475
0
LINE
8
BLACK
6
CONTINUOUS
10
153.595
20
-103.475
11
155.145
21
-103.475
0
LINE
8
BLACK
6
CONTINUOUS
10
155.145
20
-103.475
11
155.145
21
-104.075
0
LINE
8
BLACK
6
CONTINUOUS
10
160.545
20
-104.075
11
158.995
21
-104.075
0
LINE
8
BLACK
6
CONTINUOUS
10
158.995
20
-104.075
11
158.995
21
-103.475
0
LINE
8
BLACK
6
CONTINUOUS
10
158.995
20
-103.475
11
160.545
21
-103.475
0
LINE
8
BLACK
6
CONTINUOUS
10
160.545
20
-103.475
11
160.545
21
-104.075
0
LINE
8
BLACK
6
CONTINUOUS
10
94.8
20
-103.9
11
93.1
21
-103.9
0
LINE
8
BLACK
6
CONTINUOUS
10
93.1
20
-103.9
11
93.1
21
-103
0
LINE
8
BLACK
6
CONTINUOUS
10
93.1
20
-103
11
94.8
21
-103
0
LINE
8
BLACK
6
CONTINUOUS
10
94.8
20
-103
11
94.8
21
-103.9
0
LINE
8
BLACK
6
CONTINUOUS
10
117.435
20
-103.455
11
115.885
21
-103.455
0
LINE
8
BLACK
6
CONTINUOUS
10
115.885
20
-103.455
11
115.885
21
-102.855
0
LINE
8
BLACK
6
CONTINUOUS
10
115.885
20
-102.855
11
117.435
21
-102.855
0
LINE
8
BLACK
6
CONTINUOUS
10
117.435
20
-102.855
11
117.435
21
-103.455
0
LINE
8
BLACK
6
CONTINUOUS
10
122.835
20
-103.455
11
121.285
21
-103.455
0
LINE
8
BLACK
6
CONTINUOUS
10
121.285
20
-103.455
11
121.285
21
-102.855
0
LINE
8
BLACK
6
CONTINUOUS
10
121.285
20
-102.855
11
122.835
21
-102.855
0
LINE
8
BLACK
6
CONTINUOUS
10
122.835
20
-102.855
11
122.835
21
-103.455
0
LINE
8
BLACK
6
CONTINUOUS
10
131.91
20
-102.88
11
130.41
21
-102.88
0
LINE
8
BLACK
6
CONTINUOUS
10
130.41
20
-102.88
11
130.41
21
-102.28
0
LINE
8
BLACK
6
CONTINUOUS
10
130.41
20
-102.28
11
131.91
21
-102.28
0
LINE
8
BLACK
6
CONTINUOUS
10
131.91
20
-102.28
11
131.91
21
-102.88
0
LINE
8
BLACK
6
CONTINUOUS
10
137.31
20
-102.88
11
135.81
21
-102.88
0
LINE
8
BLACK
6
CONTINUOUS
10
135.81
20
-102.88
11
135.81
21
-102.28
0
LINE
8
BLACK
6
CONTINUOUS
10
135.81
20
-102.28
11
137.31
21
-102.28
0
LINE
8
BLACK
6
CONTINUOUS
10
137.31
20
-102.28
11
137.31
21
-102.88
0
LINE
8
BLACK
6
CONTINUOUS
10
155.145
20
-102.805
11
153.595
21
-102.805
0
LINE
8
BLACK
6
CONTINUOUS
10
153.595
20
-102.805
11
153.595
21
-102.205
0
LINE
8
BLACK
6
CONTINUOUS
10
153.595
20
-102.205
11
155.145
21
-102.205
0
LINE
8
BLACK
6
CONTINUOUS
10
155.145
20
-102.205
11
155.145
21
-102.805
0
LINE
8
BLACK
6
CONTINUOUS
10
160.545
20
-102.805
11
158.995
21
-102.805
0
LINE
8
BLACK
6
CONTINUOUS
10
158.995
20
-102.805
11
158.995
21
-102.205
0
LINE
8
BLACK
6
CONTINUOUS
10
158.995
20
-102.205
11
160.545
21
-102.205
0
LINE
8
BLACK
6
CONTINUOUS
10
160.545
20
-102.205
11
160.545
21
-102.805
0
LINE
8
BLACK
6
CONTINUOUS
10
117.435
20
-102.185
11
115.885
21
-102.185
0
LINE
8
BLACK
6
CONTINUOUS
10
115.885
20
-102.185
11
115.885
21
-101.585
0
LINE
8
BLACK
6
CONTINUOUS
10
115.885
20
-101.585
11
117.435
21
-101.585
0
LINE
8
BLACK
6
CONTINUOUS
10
117.435
20
-101.585
11
117.435
21
-102.185
0
LINE
8
BLACK
6
CONTINUOUS
10
122.835
20
-102.185
11
121.285
21
-102.185
0
LINE
8
BLACK
6
CONTINUOUS
10
121.285
20
-102.185
11
121.285
21
-101.585
0
LINE
8
BLACK
6
CONTINUOUS
10
121.285
20
-101.585
11
122.835
21
-101.585
0
LINE
8
BLACK
6
CONTINUOUS
10
122.835
20
-101.585
11
122.835
21
-102.185
0
LINE
8
BLACK
6
CONTINUOUS
10
106.23
20
-101.85
11
105.73
21
-101.85
0
LINE
8
BLACK
6
CONTINUOUS
10
105.73
20
-101.85
11
105.73
21
-100.95
0
LINE
8
BLACK
6
CONTINUOUS
10
105.73
20
-100.95
11
106.23
21
-100.95
0
LINE
8
BLACK
6
CONTINUOUS
10
106.23
20
-100.95
11
106.23
21
-101.85
0
LINE
8
BLACK
6
CONTINUOUS
10
101.24
20
-101.85
11
100.74
21
-101.85
0
LINE
8
BLACK
6
CONTINUOUS
10
100.74
20
-101.85
11
100.74
21
-100.95
0
LINE
8
BLACK
6
CONTINUOUS
10
100.74
20
-100.95
11
101.24
21
-100.95
0
LINE
8
BLACK
6
CONTINUOUS
10
101.24
20
-100.95
11
101.24
21
-101.85
0
LINE
8
BLACK
6
CONTINUOUS
10
108.25
20
-101.85
11
107.75
21
-101.85
0
LINE
8
BLACK
6
CONTINUOUS
10
107.75
20
-101.85
11
107.75
21
-100.95
0
LINE
8
BLACK
6
CONTINUOUS
10
107.75
20
-100.95
11
108.25
21
-100.95
0
LINE
8
BLACK
6
CONTINUOUS
10
108.25
20
-100.95
11
108.25
21
-101.85
0
LINE
8
BLACK
6
CONTINUOUS
10
109.75
20
-101.85
11
109.25
21
-101.85
0
LINE
8
BLACK
6
CONTINUOUS
10
109.25
20
-101.85
11
109.25
21
-100.95
0
LINE
8
BLACK
6
CONTINUOUS
10
109.25
20
-100.95
11
109.75
21
-100.95
0
LINE
8
BLACK
6
CONTINUOUS
10
109.75
20
-100.95
11
109.75
21
-101.85
0
LINE
8
BLACK
6
CONTINUOUS
10
104.73
20
-101.85
11
104.23
21
-101.85
0
LINE
8
BLACK
6
CONTINUOUS
10
104.23
20
-101.85
11
104.23
21
-100.95
0
LINE
8
BLACK
6
CONTINUOUS
10
104.23
20
-100.95
11
104.73
21
-100.95
0
LINE
8
BLACK
6
CONTINUOUS
10
104.73
20
-100.95
11
104.73
21
-101.85
0
LINE
8
BLACK
6
CONTINUOUS
10
102.74
20
-101.85
11
102.24
21
-101.85
0
LINE
8
BLACK
6
CONTINUOUS
10
102.24
20
-101.85
11
102.24
21
-100.95
0
LINE
8
BLACK
6
CONTINUOUS
10
102.24
20
-100.95
11
102.74
21
-100.95
0
LINE
8
BLACK
6
CONTINUOUS
10
102.74
20
-100.95
11
102.74
21
-101.85
0
LINE
8
BLACK
6
CONTINUOUS
10
111.88
20
-101.775
11
111.08
21
-101.775
0
LINE
8
BLACK
6
CONTINUOUS
10
111.08
20
-101.775
11
111.08
21
-101.025
0
LINE
8
BLACK
6
CONTINUOUS
10
111.08
20
-101.025
11
111.88
21
-101.025
0
LINE
8
BLACK
6
CONTINUOUS
10
111.88
20
-101.025
11
111.88
21
-101.775
0
LINE
8
BLACK
6
CONTINUOUS
10
113.38
20
-101.775
11
112.58
21
-101.775
0
LINE
8
BLACK
6
CONTINUOUS
10
112.58
20
-101.775
11
112.58
21
-101.025
0
LINE
8
BLACK
6
CONTINUOUS
10
112.58
20
-101.025
11
113.38
21
-101.025
0
LINE
8
BLACK
6
CONTINUOUS
10
113.38
20
-101.025
11
113.38
21
-101.775
0
LINE
8
BLACK
6
CONTINUOUS
10
97.71
20
-101.755
11
96.91
21
-101.755
0
LINE
8
BLACK
6
CONTINUOUS
10
96.91
20
-101.755
11
96.91
21
-101.005
0
LINE
8
BLACK
6
CONTINUOUS
10
96.91
20
-101.005
11
97.71
21
-101.005
0
LINE
8
BLACK
6
CONTINUOUS
10
97.71
20
-101.005
11
97.71
21
-101.755
0
LINE
8
BLACK
6
CONTINUOUS
10
99.21
20
-101.755
11
98.41
21
-101.755
0
LINE
8
BLACK
6
CONTINUOUS
10
98.41
20
-101.755
11
98.41
21
-101.005
0
LINE
8
BLACK
6
CONTINUOUS
10
98.41
20
-101.005
11
99.21
21
-101.005
0
LINE
8
BLACK
6
CONTINUOUS
10
99.21
20
-101.005
11
99.21
21
-101.755
0
LINE
8
BLACK
6
CONTINUOUS
10
131.91
20
-101.61
11
130.41
21
-101.61
0
LINE
8
BLACK
6
CONTINUOUS
10
130.41
20
-101.61
11
130.41
21
-101.01
0
LINE
8
BLACK
6
CONTINUOUS
10
130.41
20
-101.01
11
131.91
21
-101.01
0
LINE
8
BLACK
6
CONTINUOUS
10
131.91
20
-101.01
11
131.91
21
-101.61
0
LINE
8
BLACK
6
CONTINUOUS
10
137.31
20
-101.61
11
135.81
21
-101.61
0
LINE
8
BLACK
6
CONTINUOUS
10
135.81
20
-101.61
11
135.81
21
-101.01
0
LINE
8
BLACK
6
CONTINUOUS
10
135.81
20
-101.01
11
137.31
21
-101.01
0
LINE
8
BLACK
6
CONTINUOUS
10
137.31
20
-101.01
11
137.31
21
-101.61
0
LINE
8
BLACK
6
CONTINUOUS
10
151.985
20
-101.34
11
151.235
21
-101.34
0
LINE
8
BLACK
6
CONTINUOUS
10
151.235
20
-101.34
11
151.235
21
-100.54
0
LINE
8
BLACK
6
CONTINUOUS
10
151.235
20
-100.54
11
151.985
21
-100.54
0
LINE
8
BLACK
6
CONTINUOUS
10
151.985
20
-100.54
11
151.985
21
-101.34
0
LINE
8
BLACK
6
CONTINUOUS
10
156.27
20
-101.265
11
155.47
21
-101.265
0
LINE
8
BLACK
6
CONTINUOUS
10
155.47
20
-101.265
11
155.47
21
-100.515
0
LINE
8
BLACK
6
CONTINUOUS
10
155.47
20
-100.515
11
156.27
21
-100.515
0
LINE
8
BLACK
6
CONTINUOUS
10
156.27
20
-100.515
11
156.27
21
-101.265
0
LINE
8
BLACK
6
CONTINUOUS
10
154.77
20
-101.265
11
153.97
21
-101.265
0
LINE
8
BLACK
6
CONTINUOUS
10
153.97
20
-101.265
11
153.97
21
-100.515
0
LINE
8
BLACK
6
CONTINUOUS
10
153.97
20
-100.515
11
154.77
21
-100.515
0
LINE
8
BLACK
6
CONTINUOUS
10
154.77
20
-100.515
11
154.77
21
-101.265
0
LINE
8
BLACK
6
CONTINUOUS
10
148.46
20
-101.21
11
147.96
21
-101.21
0
LINE
8
BLACK
6
CONTINUOUS
10
147.96
20
-101.21
11
147.96
21
-100.31
0
LINE
8
BLACK
6
CONTINUOUS
10
147.96
20
-100.31
11
148.46
21
-100.31
0
LINE
8
BLACK
6
CONTINUOUS
10
148.46
20
-100.31
11
148.46
21
-101.21
0
LINE
8
BLACK
6
CONTINUOUS
10
149.96
20
-101.21
11
149.46
21
-101.21
0
LINE
8
BLACK
6
CONTINUOUS
10
149.46
20
-101.21
11
149.46
21
-100.31
0
LINE
8
BLACK
6
CONTINUOUS
10
149.46
20
-100.31
11
149.96
21
-100.31
0
LINE
8
BLACK
6
CONTINUOUS
10
149.96
20
-100.31
11
149.96
21
-101.21
0
LINE
8
BLACK
6
CONTINUOUS
10
122.835
20
-100.915
11
121.285
21
-100.915
0
LINE
8
BLACK
6
CONTINUOUS
10
121.285
20
-100.915
11
121.285
21
-100.315
0
LINE
8
BLACK
6
CONTINUOUS
10
121.285
20
-100.315
11
122.835
21
-100.315
0
LINE
8
BLACK
6
CONTINUOUS
10
122.835
20
-100.315
11
122.835
21
-100.915
0
LINE
8
BLACK
6
CONTINUOUS
10
117.435
20
-100.915
11
115.885
21
-100.915
0
LINE
8
BLACK
6
CONTINUOUS
10
115.885
20
-100.915
11
115.885
21
-100.315
0
LINE
8
BLACK
6
CONTINUOUS
10
115.885
20
-100.315
11
117.435
21
-100.315
0
LINE
8
BLACK
6
CONTINUOUS
10
117.435
20
-100.315
11
117.435
21
-100.915
0
LINE
8
BLACK
6
CONTINUOUS
10
137.31
20
-100.34
11
135.81
21
-100.34
0
LINE
8
BLACK
6
CONTINUOUS
10
135.81
20
-100.34
11
135.81
21
-99.74
0
LINE
8
BLACK
6
CONTINUOUS
10
135.81
20
-99.74
11
137.31
21
-99.74
0
LINE
8
BLACK
6
CONTINUOUS
10
137.31
20
-99.74
11
137.31
21
-100.34
0
LINE
8
BLACK
6
CONTINUOUS
10
131.91
20
-100.34
11
130.41
21
-100.34
0
LINE
8
BLACK
6
CONTINUOUS
10
130.41
20
-100.34
11
130.41
21
-99.74
0
LINE
8
BLACK
6
CONTINUOUS
10
130.41
20
-99.74
11
131.91
21
-99.74
0
LINE
8
BLACK
6
CONTINUOUS
10
131.91
20
-99.74
11
131.91
21
-100.34
0
LINE
8
BLACK
6
CONTINUOUS
10
151.985
20
-99.84
11
151.235
21
-99.84
0
LINE
8
BLACK
6
CONTINUOUS
10
151.235
20
-99.84
11
151.235
21
-99.04
0
LINE
8
BLACK
6
CONTINUOUS
10
151.235
20
-99.04
11
151.985
21
-99.04
0
LINE
8
BLACK
6
CONTINUOUS
10
151.985
20
-99.04
11
151.985
21
-99.84
0
LINE
8
BLACK
6
CONTINUOUS
10
117.435
20
-99.645
11
115.885
21
-99.645
0
LINE
8
BLACK
6
CONTINUOUS
10
115.885
20
-99.645
11
115.885
21
-99.045
0
LINE
8
BLACK
6
CONTINUOUS
10
115.885
20
-99.045
11
117.435
21
-99.045
0
LINE
8
BLACK
6
CONTINUOUS
10
117.435
20
-99.045
11
117.435
21
-99.645
0
LINE
8
BLACK
6
CONTINUOUS
10
122.835
20
-99.645
11
121.285
21
-99.645
0
LINE
8
BLACK
6
CONTINUOUS
10
121.285
20
-99.645
11
121.285
21
-99.045
0
LINE
8
BLACK
6
CONTINUOUS
10
121.285
20
-99.045
11
122.835
21
-99.045
0
LINE
8
BLACK
6
CONTINUOUS
10
122.835
20
-99.045
11
122.835
21
-99.645
0
LINE
8
BLACK
6
CONTINUOUS
10
170.555
20
-99.365
11
169.005
21
-99.365
0
LINE
8
BLACK
6
CONTINUOUS
10
169.005
20
-99.365
11
169.005
21
-98.765
0
LINE
8
BLACK
6
CONTINUOUS
10
169.005
20
-98.765
11
170.555
21
-98.765
0
LINE
8
BLACK
6
CONTINUOUS
10
170.555
20
-98.765
11
170.555
21
-99.365
0
LINE
8
BLACK
6
CONTINUOUS
10
165.155
20
-99.365
11
163.605
21
-99.365
0
LINE
8
BLACK
6
CONTINUOUS
10
163.605
20
-99.365
11
163.605
21
-98.765
0
LINE
8
BLACK
6
CONTINUOUS
10
163.605
20
-98.765
11
165.155
21
-98.765
0
LINE
8
BLACK
6
CONTINUOUS
10
165.155
20
-98.765
11
165.155
21
-99.365
0
LINE
8
BLACK
6
CONTINUOUS
10
160.525
20
-99.325
11
158.975
21
-99.325
0
LINE
8
BLACK
6
CONTINUOUS
10
158.975
20
-99.325
11
158.975
21
-98.725
0
LINE
8
BLACK
6
CONTINUOUS
10
158.975
20
-98.725
11
160.525
21
-98.725
0
LINE
8
BLACK
6
CONTINUOUS
10
160.525
20
-98.725
11
160.525
21
-99.325
0
LINE
8
BLACK
6
CONTINUOUS
10
155.125
20
-99.325
11
153.575
21
-99.325
0
LINE
8
BLACK
6
CONTINUOUS
10
153.575
20
-99.325
11
153.575
21
-98.725
0
LINE
8
BLACK
6
CONTINUOUS
10
153.575
20
-98.725
11
155.125
21
-98.725
0
LINE
8
BLACK
6
CONTINUOUS
10
155.125
20
-98.725
11
155.125
21
-99.325
0
LINE
8
BLACK
6
CONTINUOUS
10
92.905
20
-99.225
11
91.005
21
-99.225
0
LINE
8
BLACK
6
CONTINUOUS
10
91.005
20
-99.225
11
91.005
21
-97.925
0
LINE
8
BLACK
6
CONTINUOUS
10
91.005
20
-97.925
11
92.905
21
-97.925
0
LINE
8
BLACK
6
CONTINUOUS
10
92.905
20
-97.925
11
92.905
21
-99.225
0
LINE
8
BLACK
6
CONTINUOUS
10
142.32
20
-99.215
11
141.52
21
-99.215
0
LINE
8
BLACK
6
CONTINUOUS
10
141.52
20
-99.215
11
141.52
21
-98.465
0
LINE
8
BLACK
6
CONTINUOUS
10
141.52
20
-98.465
11
142.32
21
-98.465
0
LINE
8
BLACK
6
CONTINUOUS
10
142.32
20
-98.465
11
142.32
21
-99.215
0
LINE
8
BLACK
6
CONTINUOUS
10
140.82
20
-99.215
11
140.02
21
-99.215
0
LINE
8
BLACK
6
CONTINUOUS
10
140.02
20
-99.215
11
140.02
21
-98.465
0
LINE
8
BLACK
6
CONTINUOUS
10
140.02
20
-98.465
11
140.82
21
-98.465
0
LINE
8
BLACK
6
CONTINUOUS
10
140.82
20
-98.465
11
140.82
21
-99.215
0
LINE
8
BLACK
6
CONTINUOUS
10
180.55
20
-98.83
11
180.05
21
-98.83
0
LINE
8
BLACK
6
CONTINUOUS
10
180.05
20
-98.83
11
180.05
21
-97.93
0
LINE
8
BLACK
6
CONTINUOUS
10
180.05
20
-97.93
11
180.55
21
-97.93
0
LINE
8
BLACK
6
CONTINUOUS
10
180.55
20
-97.93
11
180.55
21
-98.83
0
LINE
8
BLACK
6
CONTINUOUS
10
182.05
20
-98.83
11
181.55
21
-98.83
0
LINE
8
BLACK
6
CONTINUOUS
10
181.55
20
-98.83
11
181.55
21
-97.93
0
LINE
8
BLACK
6
CONTINUOUS
10
181.55
20
-97.93
11
182.05
21
-97.93
0
LINE
8
BLACK
6
CONTINUOUS
10
182.05
20
-97.93
11
182.05
21
-98.83
0
LINE
8
BLACK
6
CONTINUOUS
10
173.15
20
-98.83
11
172.65
21
-98.83
0
LINE
8
BLACK
6
CONTINUOUS
10
172.65
20
-98.83
11
172.65
21
-97.93
0
LINE
8
BLACK
6
CONTINUOUS
10
172.65
20
-97.93
11
173.15
21
-97.93
0
LINE
8
BLACK
6
CONTINUOUS
10
173.15
20
-97.93
11
173.15
21
-98.83
0
LINE
8
BLACK
6
CONTINUOUS
10
174.65
20
-98.83
11
174.15
21
-98.83
0
LINE
8
BLACK
6
CONTINUOUS
10
174.15
20
-98.83
11
174.15
21
-97.93
0
LINE
8
BLACK
6
CONTINUOUS
10
174.15
20
-97.93
11
174.65
21
-97.93
0
LINE
8
BLACK
6
CONTINUOUS
10
174.65
20
-97.93
11
174.65
21
-98.83
0
LINE
8
BLACK
6
CONTINUOUS
10
176.81
20
-98.81
11
176.31
21
-98.81
0
LINE
8
BLACK
6
CONTINUOUS
10
176.31
20
-98.81
11
176.31
21
-97.91
0
LINE
8
BLACK
6
CONTINUOUS
10
176.31
20
-97.91
11
176.81
21
-97.91
0
LINE
8
BLACK
6
CONTINUOUS
10
176.81
20
-97.91
11
176.81
21
-98.81
0
LINE
8
BLACK
6
CONTINUOUS
10
178.31
20
-98.81
11
177.81
21
-98.81
0
LINE
8
BLACK
6
CONTINUOUS
10
177.81
20
-98.81
11
177.81
21
-97.91
0
LINE
8
BLACK
6
CONTINUOUS
10
177.81
20
-97.91
11
178.31
21
-97.91
0
LINE
8
BLACK
6
CONTINUOUS
10
178.31
20
-97.91
11
178.31
21
-98.81
0
LINE
8
BLACK
6
CONTINUOUS
10
149.98
20
-98.8
11
149.48
21
-98.8
0
LINE
8
BLACK
6
CONTINUOUS
10
149.48
20
-98.8
11
149.48
21
-97.9
0
LINE
8
BLACK
6
CONTINUOUS
10
149.48
20
-97.9
11
149.98
21
-97.9
0
LINE
8
BLACK
6
CONTINUOUS
10
149.98
20
-97.9
11
149.98
21
-98.8
0
LINE
8
BLACK
6
CONTINUOUS
10
148.48
20
-98.8
11
147.98
21
-98.8
0
LINE
8
BLACK
6
CONTINUOUS
10
147.98
20
-98.8
11
147.98
21
-97.9
0
LINE
8
BLACK
6
CONTINUOUS
10
147.98
20
-97.9
11
148.48
21
-97.9
0
LINE
8
BLACK
6
CONTINUOUS
10
148.48
20
-97.9
11
148.48
21
-98.8
0
LINE
8
BLACK
6
CONTINUOUS
10
122.67
20
-98.115
11
121.87
21
-98.115
0
LINE
8
BLACK
6
CONTINUOUS
10
121.87
20
-98.115
11
121.87
21
-97.365
0
LINE
8
BLACK
6
CONTINUOUS
10
121.87
20
-97.365
11
122.67
21
-97.365
0
LINE
8
BLACK
6
CONTINUOUS
10
122.67
20
-97.365
11
122.67
21
-98.115
0
LINE
8
BLACK
6
CONTINUOUS
10
124.17
20
-98.115
11
123.37
21
-98.115
0
LINE
8
BLACK
6
CONTINUOUS
10
123.37
20
-98.115
11
123.37
21
-97.365
0
LINE
8
BLACK
6
CONTINUOUS
10
123.37
20
-97.365
11
124.17
21
-97.365
0
LINE
8
BLACK
6
CONTINUOUS
10
124.17
20
-97.365
11
124.17
21
-98.115
0
LINE
8
BLACK
6
CONTINUOUS
10
165.155
20
-98.095
11
163.605
21
-98.095
0
LINE
8
BLACK
6
CONTINUOUS
10
163.605
20
-98.095
11
163.605
21
-97.495
0
LINE
8
BLACK
6
CONTINUOUS
10
163.605
20
-97.495
11
165.155
21
-97.495
0
LINE
8
BLACK
6
CONTINUOUS
10
165.155
20
-97.495
11
165.155
21
-98.095
0
LINE
8
BLACK
6
CONTINUOUS
10
170.555
20
-98.095
11
169.005
21
-98.095
0
LINE
8
BLACK
6
CONTINUOUS
10
169.005
20
-98.095
11
169.005
21
-97.495
0
LINE
8
BLACK
6
CONTINUOUS
10
169.005
20
-97.495
11
170.555
21
-97.495
0
LINE
8
BLACK
6
CONTINUOUS
10
170.555
20
-97.495
11
170.555
21
-98.095
0
LINE
8
BLACK
6
CONTINUOUS
10
155.125
20
-98.055
11
153.575
21
-98.055
0
LINE
8
BLACK
6
CONTINUOUS
10
153.575
20
-98.055
11
153.575
21
-97.455
0
LINE
8
BLACK
6
CONTINUOUS
10
153.575
20
-97.455
11
155.125
21
-97.455
0
LINE
8
BLACK
6
CONTINUOUS
10
155.125
20
-97.455
11
155.125
21
-98.055
0
LINE
8
BLACK
6
CONTINUOUS
10
160.525
20
-98.055
11
158.975
21
-98.055
0
LINE
8
BLACK
6
CONTINUOUS
10
158.975
20
-98.055
11
158.975
21
-97.455
0
LINE
8
BLACK
6
CONTINUOUS
10
158.975
20
-97.455
11
160.525
21
-97.455
0
LINE
8
BLACK
6
CONTINUOUS
10
160.525
20
-97.455
11
160.525
21
-98.055
0
LINE
8
BLACK
6
CONTINUOUS
10
115.29
20
-98.005
11
114.49
21
-98.005
0
LINE
8
BLACK
6
CONTINUOUS
10
114.49
20
-98.005
11
114.49
21
-97.255
0
LINE
8
BLACK
6
CONTINUOUS
10
114.49
20
-97.255
11
115.29
21
-97.255
0
LINE
8
BLACK
6
CONTINUOUS
10
115.29
20
-97.255
11
115.29
21
-98.005
0
LINE
8
BLACK
6
CONTINUOUS
10
116.79
20
-98.005
11
115.99
21
-98.005
0
LINE
8
BLACK
6
CONTINUOUS
10
115.99
20
-98.005
11
115.99
21
-97.255
0
LINE
8
BLACK
6
CONTINUOUS
10
115.99
20
-97.255
11
116.79
21
-97.255
0
LINE
8
BLACK
6
CONTINUOUS
10
116.79
20
-97.255
11
116.79
21
-98.005
0
LINE
8
BLACK
6
CONTINUOUS
10
151.975
20
-97.08
11
151.225
21
-97.08
0
LINE
8
BLACK
6
CONTINUOUS
10
151.225
20
-97.08
11
151.225
21
-96.28
0
LINE
8
BLACK
6
CONTINUOUS
10
151.225
20
-96.28
11
151.975
21
-96.28
0
LINE
8
BLACK
6
CONTINUOUS
10
151.975
20
-96.28
11
151.975
21
-97.08
0
LINE
8
BLACK
6
CONTINUOUS
10
165.155
20
-96.825
11
163.605
21
-96.825
0
LINE
8
BLACK
6
CONTINUOUS
10
163.605
20
-96.825
11
163.605
21
-96.225
0
LINE
8
BLACK
6
CONTINUOUS
10
163.605
20
-96.225
11
165.155
21
-96.225
0
LINE
8
BLACK
6
CONTINUOUS
10
165.155
20
-96.225
11
165.155
21
-96.825
0
LINE
8
BLACK
6
CONTINUOUS
10
170.555
20
-96.825
11
169.005
21
-96.825
0
LINE
8
BLACK
6
CONTINUOUS
10
169.005
20
-96.825
11
169.005
21
-96.225
0
LINE
8
BLACK
6
CONTINUOUS
10
169.005
20
-96.225
11
170.555
21
-96.225
0
LINE
8
BLACK
6
CONTINUOUS
10
170.555
20
-96.225
11
170.555
21
-96.825
0
LINE
8
BLACK
6
CONTINUOUS
10
155.125
20
-96.785
11
153.575
21
-96.785
0
LINE
8
BLACK
6
CONTINUOUS
10
153.575
20
-96.785
11
153.575
21
-96.185
0
LINE
8
BLACK
6
CONTINUOUS
10
153.575
20
-96.185
11
155.125
21
-96.185
0
LINE
8
BLACK
6
CONTINUOUS
10
155.125
20
-96.185
11
155.125
21
-96.785
0
LINE
8
BLACK
6
CONTINUOUS
10
160.525
20
-96.785
11
158.975
21
-96.785
0
LINE
8
BLACK
6
CONTINUOUS
10
158.975
20
-96.785
11
158.975
21
-96.185
0
LINE
8
BLACK
6
CONTINUOUS
10
158.975
20
-96.185
11
160.525
21
-96.185
0
LINE
8
BLACK
6
CONTINUOUS
10
160.525
20
-96.185
11
160.525
21
-96.785
0
LINE
8
BLACK
6
CONTINUOUS
10
139.135
20
-96.77
11
138.585
21
-96.77
0
LINE
8
BLACK
6
CONTINUOUS
10
138.585
20
-96.77
11
138.585
21
-95.27
0
LINE
8
BLACK
6
CONTINUOUS
10
138.585
20
-95.27
11
139.135
21
-95.27
0
LINE
8
BLACK
6
CONTINUOUS
10
139.135
20
-95.27
11
139.135
21
-96.77
0
LINE
8
BLACK
6
CONTINUOUS
10
134.335
20
-96.77
11
133.785
21
-96.77
0
LINE
8
BLACK
6
CONTINUOUS
10
133.785
20
-96.77
11
133.785
21
-95.27
0
LINE
8
BLACK
6
CONTINUOUS
10
133.785
20
-95.27
11
134.335
21
-95.27
0
LINE
8
BLACK
6
CONTINUOUS
10
134.335
20
-95.27
11
134.335
21
-96.77
0
LINE
8
BLACK
6
CONTINUOUS
10
135.135
20
-96.77
11
134.585
21
-96.77
0
LINE
8
BLACK
6
CONTINUOUS
10
134.585
20
-96.77
11
134.585
21
-95.27
0
LINE
8
BLACK
6
CONTINUOUS
10
134.585
20
-95.27
11
135.135
21
-95.27
0
LINE
8
BLACK
6
CONTINUOUS
10
135.135
20
-95.27
11
135.135
21
-96.77
0
LINE
8
BLACK
6
CONTINUOUS
10
135.935
20
-96.77
11
135.385
21
-96.77
0
LINE
8
BLACK
6
CONTINUOUS
10
135.385
20
-96.77
11
135.385
21
-95.27
0
LINE
8
BLACK
6
CONTINUOUS
10
135.385
20
-95.27
11
135.935
21
-95.27
0
LINE
8
BLACK
6
CONTINUOUS
10
135.935
20
-95.27
11
135.935
21
-96.77
0
LINE
8
BLACK
6
CONTINUOUS
10
136.735
20
-96.77
11
136.185
21
-96.77
0
LINE
8
BLACK
6
CONTINUOUS
10
136.185
20
-96.77
11
136.185
21
-95.27
0
LINE
8
BLACK
6
CONTINUOUS
10
136.185
20
-95.27
11
136.735
21
-95.27
0
LINE
8
BLACK
6
CONTINUOUS
10
136.735
20
-95.27
11
136.735
21
-96.77
0
LINE
8
BLACK
6
CONTINUOUS
10
137.535
20
-96.77
11
136.985
21
-96.77
0
LINE
8
BLACK
6
CONTINUOUS
10
136.985
20
-96.77
11
136.985
21
-95.27
0
LINE
8
BLACK
6
CONTINUOUS
10
136.985
20
-95.27
11
137.535
21
-95.27
0
LINE
8
BLACK
6
CONTINUOUS
10
137.535
20
-95.27
11
137.535
21
-96.77
0
LINE
8
BLACK
6
CONTINUOUS
10
138.335
20
-96.77
11
137.785
21
-96.77
0
LINE
8
BLACK
6
CONTINUOUS
10
137.785
20
-96.77
11
137.785
21
-95.27
0
LINE
8
BLACK
6
CONTINUOUS
10
137.785
20
-95.27
11
138.335
21
-95.27
0
LINE
8
BLACK
6
CONTINUOUS
10
138.335
20
-95.27
11
138.335
21
-96.77
0
LINE
8
BLACK
6
CONTINUOUS
10
139.935
20
-96.77
11
139.385
21
-96.77
0
LINE
8
BLACK
6
CONTINUOUS
10
139.385
20
-96.77
11
139.385
21
-95.27
0
LINE
8
BLACK
6
CONTINUOUS
10
139.385
20
-95.27
11
139.935
21
-95.27
0
LINE
8
BLACK
6
CONTINUOUS
10
139.935
20
-95.27
11
139.935
21
-96.77
0
LINE
8
BLACK
6
CONTINUOUS
10
140.735
20
-96.77
11
140.185
21
-96.77
0
LINE
8
BLACK
6
CONTINUOUS
10
140.185
20
-96.77
11
140.185
21
-95.27
0
LINE
8
BLACK
6
CONTINUOUS
10
140.185
20
-95.27
11
140.735
21
-95.27
0
LINE
8
BLACK
6
CONTINUOUS
10
140.735
20
-95.27
11
140.735
21
-96.77
0
LINE
8
BLACK
6
CONTINUOUS
10
141.535
20
-96.77
11
140.985
21
-96.77
0
LINE
8
BLACK
6
CONTINUOUS
10
140.985
20
-96.77
11
140.985
21
-95.27
0
LINE
8
BLACK
6
CONTINUOUS
10
140.985
20
-95.27
11
141.535
21
-95.27
0
LINE
8
BLACK
6
CONTINUOUS
10
141.535
20
-95.27
11
141.535
21
-96.77
0
LINE
8
BLACK
6
CONTINUOUS
10
142.335
20
-96.77
11
141.785
21
-96.77
0
LINE
8
BLACK
6
CONTINUOUS
10
141.785
20
-96.77
11
141.785
21
-95.27
0
LINE
8
BLACK
6
CONTINUOUS
10
141.785
20
-95.27
11
142.335
21
-95.27
0
LINE
8
BLACK
6
CONTINUOUS
10
142.335
20
-95.27
11
142.335
21
-96.77
0
LINE
8
BLACK
6
CONTINUOUS
10
107.655
20
-96.725
11
106.455
21
-96.725
0
LINE
8
BLACK
6
CONTINUOUS
10
106.455
20
-96.725
11
106.455
21
-95.725
0
LINE
8
BLACK
6
CONTINUOUS
10
106.455
20
-95.725
11
107.655
21
-95.725
0
LINE
8
BLACK
6
CONTINUOUS
10
107.655
20
-95.725
11
107.655
21
-96.725
0
LINE
8
BLACK
6
CONTINUOUS
10
148.48
20
-96.4
11
147.98
21
-96.4
0
LINE
8
BLACK
6
CONTINUOUS
10
147.98
20
-96.4
11
147.98
21
-95.5
0
LINE
8
BLACK
6
CONTINUOUS
10
147.98
20
-95.5
11
148.48
21
-95.5
0
LINE
8
BLACK
6
CONTINUOUS
10
148.48
20
-95.5
11
148.48
21
-96.4
0
LINE
8
BLACK
6
CONTINUOUS
10
149.98
20
-96.4
11
149.48
21
-96.4
0
LINE
8
BLACK
6
CONTINUOUS
10
149.48
20
-96.4
11
149.48
21
-95.5
0
LINE
8
BLACK
6
CONTINUOUS
10
149.48
20
-95.5
11
149.98
21
-95.5
0
LINE
8
BLACK
6
CONTINUOUS
10
149.98
20
-95.5
11
149.98
21
-96.4
0
LINE
8
BLACK
6
CONTINUOUS
10
182.05
20
-96.3
11
181.55
21
-96.3
0
LINE
8
BLACK
6
CONTINUOUS
10
181.55
20
-96.3
11
181.55
21
-95.4
0
LINE
8
BLACK
6
CONTINUOUS
10
181.55
20
-95.4
11
182.05
21
-95.4
0
LINE
8
BLACK
6
CONTINUOUS
10
182.05
20
-95.4
11
182.05
21
-96.3
0
LINE
8
BLACK
6
CONTINUOUS
10
180.55
20
-96.3
11
180.05
21
-96.3
0
LINE
8
BLACK
6
CONTINUOUS
10
180.05
20
-96.3
11
180.05
21
-95.4
0
LINE
8
BLACK
6
CONTINUOUS
10
180.05
20
-95.4
11
180.55
21
-95.4
0
LINE
8
BLACK
6
CONTINUOUS
10
180.55
20
-95.4
11
180.55
21
-96.3
0
LINE
8
BLACK
6
CONTINUOUS
10
175.715
20
-95.99
11
174.965
21
-95.99
0
LINE
8
BLACK
6
CONTINUOUS
10
174.965
20
-95.99
11
174.965
21
-95.19
0
LINE
8
BLACK
6
CONTINUOUS
10
174.965
20
-95.19
11
175.715
21
-95.19
0
LINE
8
BLACK
6
CONTINUOUS
10
175.715
20
-95.19
11
175.715
21
-95.99
0
LINE
8
BLACK
6
CONTINUOUS
10
173.84
20
-95.83
11
172.94
21
-95.83
0
LINE
8
BLACK
6
CONTINUOUS
10
172.94
20
-95.83
11
172.94
21
-95.33
0
LINE
8
BLACK
6
CONTINUOUS
10
172.94
20
-95.33
11
173.84
21
-95.33
0
LINE
8
BLACK
6
CONTINUOUS
10
173.84
20
-95.33
11
173.84
21
-95.83
0
LINE
8
BLACK
6
CONTINUOUS
10
151.975
20
-95.58
11
151.225
21
-95.58
0
LINE
8
BLACK
6
CONTINUOUS
10
151.225
20
-95.58
11
151.225
21
-94.78
0
LINE
8
BLACK
6
CONTINUOUS
10
151.225
20
-94.78
11
151.975
21
-94.78
0
LINE
8
BLACK
6
CONTINUOUS
10
151.975
20
-94.78
11
151.975
21
-95.58
0
LINE
8
BLACK
6
CONTINUOUS
10
165.155
20
-95.555
11
163.605
21
-95.555
0
LINE
8
BLACK
6
CONTINUOUS
10
163.605
20
-95.555
11
163.605
21
-94.955
0
LINE
8
BLACK
6
CONTINUOUS
10
163.605
20
-94.955
11
165.155
21
-94.955
0
LINE
8
BLACK
6
CONTINUOUS
10
165.155
20
-94.955
11
165.155
21
-95.555
0
LINE
8
BLACK
6
CONTINUOUS
10
170.555
20
-95.555
11
169.005
21
-95.555
0
LINE
8
BLACK
6
CONTINUOUS
10
169.005
20
-95.555
11
169.005
21
-94.955
0
LINE
8
BLACK
6
CONTINUOUS
10
169.005
20
-94.955
11
170.555
21
-94.955
0
LINE
8
BLACK
6
CONTINUOUS
10
170.555
20
-94.955
11
170.555
21
-95.555
0
LINE
8
BLACK
6
CONTINUOUS
10
160.525
20
-95.515
11
158.975
21
-95.515
0
LINE
8
BLACK
6
CONTINUOUS
10
158.975
20
-95.515
11
158.975
21
-94.915
0
LINE
8
BLACK
6
CONTINUOUS
10
158.975
20
-94.915
11
160.525
21
-94.915
0
LINE
8
BLACK
6
CONTINUOUS
10
160.525
20
-94.915
11
160.525
21
-95.515
0
LINE
8
BLACK
6
CONTINUOUS
10
155.125
20
-95.515
11
153.575
21
-95.515
0
LINE
8
BLACK
6
CONTINUOUS
10
153.575
20
-95.515
11
153.575
21
-94.915
0
LINE
8
BLACK
6
CONTINUOUS
10
153.575
20
-94.915
11
155.125
21
-94.915
0
LINE
8
BLACK
6
CONTINUOUS
10
155.125
20
-94.915
11
155.125
21
-95.515
0
LINE
8
BLACK
6
CONTINUOUS
10
107.655
20
-95.025
11
106.455
21
-95.025
0
LINE
8
BLACK
6
CONTINUOUS
10
106.455
20
-95.025
11
106.455
21
-94.325
0
LINE
8
BLACK
6
CONTINUOUS
10
106.455
20
-94.325
11
107.655
21
-94.325
0
LINE
8
BLACK
6
CONTINUOUS
10
107.655
20
-94.325
11
107.655
21
-95.025
0
LINE
8
BLACK
6
CONTINUOUS
10
144.51
20
-94.595
11
143.01
21
-94.595
0
LINE
8
BLACK
6
CONTINUOUS
10
143.01
20
-94.595
11
143.01
21
-94.045
0
LINE
8
BLACK
6
CONTINUOUS
10
143.01
20
-94.045
11
144.51
21
-94.045
0
LINE
8
BLACK
6
CONTINUOUS
10
144.51
20
-94.045
11
144.51
21
-94.595
0
LINE
8
BLACK
6
CONTINUOUS
10
133.11
20
-94.595
11
131.61
21
-94.595
0
LINE
8
BLACK
6
CONTINUOUS
10
131.61
20
-94.595
11
131.61
21
-94.045
0
LINE
8
BLACK
6
CONTINUOUS
10
131.61
20
-94.045
11
133.11
21
-94.045
0
LINE
8
BLACK
6
CONTINUOUS
10
133.11
20
-94.045
11
133.11
21
-94.595
0
LINE
8
BLACK
6
CONTINUOUS
10
175.715
20
-94.49
11
174.965
21
-94.49
0
LINE
8
BLACK
6
CONTINUOUS
10
174.965
20
-94.49
11
174.965
21
-93.69
0
LINE
8
BLACK
6
CONTINUOUS
10
174.965
20
-93.69
11
175.715
21
-93.69
0
LINE
8
BLACK
6
CONTINUOUS
10
175.715
20
-93.69
11
175.715
21
-94.49
0
LINE
8
BLACK
6
CONTINUOUS
10
173.84
20
-94.33
11
172.94
21
-94.33
0
LINE
8
BLACK
6
CONTINUOUS
10
172.94
20
-94.33
11
172.94
21
-93.83
0
LINE
8
BLACK
6
CONTINUOUS
10
172.94
20
-93.83
11
173.84
21
-93.83
0
LINE
8
BLACK
6
CONTINUOUS
10
173.84
20
-93.83
11
173.84
21
-94.33
0
LINE
8
BLACK
6
CONTINUOUS
10
150.01
20
-94.11
11
149.51
21
-94.11
0
LINE
8
BLACK
6
CONTINUOUS
10
149.51
20
-94.11
11
149.51
21
-93.21
0
LINE
8
BLACK
6
CONTINUOUS
10
149.51
20
-93.21
11
150.01
21
-93.21
0
LINE
8
BLACK
6
CONTINUOUS
10
150.01
20
-93.21
11
150.01
21
-94.11
0
LINE
8
BLACK
6
CONTINUOUS
10
148.51
20
-94.11
11
148.01
21
-94.11
0
LINE
8
BLACK
6
CONTINUOUS
10
148.01
20
-94.11
11
148.01
21
-93.21
0
LINE
8
BLACK
6
CONTINUOUS
10
148.01
20
-93.21
11
148.51
21
-93.21
0
LINE
8
BLACK
6
CONTINUOUS
10
148.51
20
-93.21
11
148.51
21
-94.11
0
LINE
8
BLACK
6
CONTINUOUS
10
107.655
20
-93.925
11
106.455
21
-93.925
0
LINE
8
BLACK
6
CONTINUOUS
10
106.455
20
-93.925
11
106.455
21
-93.225
0
LINE
8
BLACK
6
CONTINUOUS
10
106.455
20
-93.225
11
107.655
21
-93.225
0
LINE
8
BLACK
6
CONTINUOUS
10
107.655
20
-93.225
11
107.655
21
-93.925
0
LINE
8
BLACK
6
CONTINUOUS
10
133.11
20
-93.795
11
131.61
21
-93.795
0
LINE
8
BLACK
6
CONTINUOUS
10
131.61
20
-93.795
11
131.61
21
-93.245
0
LINE
8
BLACK
6
CONTINUOUS
10
131.61
20
-93.245
11
133.11
21
-93.245
0
LINE
8
BLACK
6
CONTINUOUS
10
133.11
20
-93.245
11
133.11
21
-93.795
0
LINE
8
BLACK
6
CONTINUOUS
10
144.51
20
-93.795
11
143.01
21
-93.795
0
LINE
8
BLACK
6
CONTINUOUS
10
143.01
20
-93.795
11
143.01
21
-93.245
0
LINE
8
BLACK
6
CONTINUOUS
10
143.01
20
-93.245
11
144.51
21
-93.245
0
LINE
8
BLACK
6
CONTINUOUS
10
144.51
20
-93.245
11
144.51
21
-93.795
0
LINE
8
BLACK
6
CONTINUOUS
10
156.41
20
-93.77
11
155.51
21
-93.77
0
LINE
8
BLACK
6
CONTINUOUS
10
155.51
20
-93.77
11
155.51
21
-93.27
0
LINE
8
BLACK
6
CONTINUOUS
10
155.51
20
-93.27
11
156.41
21
-93.27
0
LINE
8
BLACK
6
CONTINUOUS
10
156.41
20
-93.27
11
156.41
21
-93.77
0
LINE
8
BLACK
6
CONTINUOUS
10
168.06
20
-93.735
11
167.26
21
-93.735
0
LINE
8
BLACK
6
CONTINUOUS
10
167.26
20
-93.735
11
167.26
21
-92.985
0
LINE
8
BLACK
6
CONTINUOUS
10
167.26
20
-92.985
11
168.06
21
-92.985
0
LINE
8
BLACK
6
CONTINUOUS
10
168.06
20
-92.985
11
168.06
21
-93.735
0
LINE
8
BLACK
6
CONTINUOUS
10
160.32
20
-93.735
11
159.52
21
-93.735
0
LINE
8
BLACK
6
CONTINUOUS
10
159.52
20
-93.735
11
159.52
21
-92.985
0
LINE
8
BLACK
6
CONTINUOUS
10
159.52
20
-92.985
11
160.32
21
-92.985
0
LINE
8
BLACK
6
CONTINUOUS
10
160.32
20
-92.985
11
160.32
21
-93.735
0
LINE
8
BLACK
6
CONTINUOUS
10
169.56
20
-93.735
11
168.76
21
-93.735
0
LINE
8
BLACK
6
CONTINUOUS
10
168.76
20
-93.735
11
168.76
21
-92.985
0
LINE
8
BLACK
6
CONTINUOUS
10
168.76
20
-92.985
11
169.56
21
-92.985
0
LINE
8
BLACK
6
CONTINUOUS
10
169.56
20
-92.985
11
169.56
21
-93.735
0
LINE
8
BLACK
6
CONTINUOUS
10
161.82
20
-93.735
11
161.02
21
-93.735
0
LINE
8
BLACK
6
CONTINUOUS
10
161.02
20
-93.735
11
161.02
21
-92.985
0
LINE
8
BLACK
6
CONTINUOUS
10
161.02
20
-92.985
11
161.82
21
-92.985
0
LINE
8
BLACK
6
CONTINUOUS
10
161.82
20
-92.985
11
161.82
21
-93.735
0
LINE
8
BLACK
6
CONTINUOUS
10
133.11
20
-92.995
11
131.61
21
-92.995
0
LINE
8
BLACK
6
CONTINUOUS
10
131.61
20
-92.995
11
131.61
21
-92.445
0
LINE
8
BLACK
6
CONTINUOUS
10
131.61
20
-92.445
11
133.11
21
-92.445
0
LINE
8
BLACK
6
CONTINUOUS
10
133.11
20
-92.445
11
133.11
21
-92.995
0
LINE
8
BLACK
6
CONTINUOUS
10
144.51
20
-92.995
11
143.01
21
-92.995
0
LINE
8
BLACK
6
CONTINUOUS
10
143.01
20
-92.995
11
143.01
21
-92.445
0
LINE
8
BLACK
6
CONTINUOUS
10
143.01
20
-92.445
11
144.51
21
-92.445
0
LINE
8
BLACK
6
CONTINUOUS
10
144.51
20
-92.445
11
144.51
21
-92.995
0
LINE
8
BLACK
6
CONTINUOUS
10
107.655
20
-92.825
11
106.455
21
-92.825
0
LINE
8
BLACK
6
CONTINUOUS
10
106.455
20
-92.825
11
106.455
21
-92.125
0
LINE
8
BLACK
6
CONTINUOUS
10
106.455
20
-92.125
11
107.655
21
-92.125
0
LINE
8
BLACK
6
CONTINUOUS
10
107.655
20
-92.125
11
107.655
21
-92.825
0
LINE
8
BLACK
6
CONTINUOUS
10
154.08
20
-92.36
11
152.88
21
-92.36
0
LINE
8
BLACK
6
CONTINUOUS
10
152.88
20
-92.36
11
152.88
21
-91.16
0
LINE
8
BLACK
6
CONTINUOUS
10
152.88
20
-91.16
11
154.08
21
-91.16
0
LINE
8
BLACK
6
CONTINUOUS
10
154.08
20
-91.16
11
154.08
21
-92.36
0
LINE
8
BLACK
6
CONTINUOUS
10
156.41
20
-92.27
11
155.51
21
-92.27
0
LINE
8
BLACK
6
CONTINUOUS
10
155.51
20
-92.27
11
155.51
21
-91.77
0
LINE
8
BLACK
6
CONTINUOUS
10
155.51
20
-91.77
11
156.41
21
-91.77
0
LINE
8
BLACK
6
CONTINUOUS
10
156.41
20
-91.77
11
156.41
21
-92.27
0
LINE
8
BLACK
6
CONTINUOUS
10
144.51
20
-92.195
11
143.01
21
-92.195
0
LINE
8
BLACK
6
CONTINUOUS
10
143.01
20
-92.195
11
143.01
21
-91.645
0
LINE
8
BLACK
6
CONTINUOUS
10
143.01
20
-91.645
11
144.51
21
-91.645
0
LINE
8
BLACK
6
CONTINUOUS
10
144.51
20
-91.645
11
144.51
21
-92.195
0
LINE
8
BLACK
6
CONTINUOUS
10
133.11
20
-92.195
11
131.61
21
-92.195
0
LINE
8
BLACK
6
CONTINUOUS
10
131.61
20
-92.195
11
131.61
21
-91.645
0
LINE
8
BLACK
6
CONTINUOUS
10
131.61
20
-91.645
11
133.11
21
-91.645
0
LINE
8
BLACK
6
CONTINUOUS
10
133.11
20
-91.645
11
133.11
21
-92.195
0
LINE
8
BLACK
6
CONTINUOUS
10
150.01
20
-91.75
11
149.51
21
-91.75
0
LINE
8
BLACK
6
CONTINUOUS
10
149.51
20
-91.75
11
149.51
21
-90.85
0
LINE
8
BLACK
6
CONTINUOUS
10
149.51
20
-90.85
11
150.01
21
-90.85
0
LINE
8
BLACK
6
CONTINUOUS
10
150.01
20
-90.85
11
150.01
21
-91.75
0
LINE
8
BLACK
6
CONTINUOUS
10
148.51
20
-91.75
11
148.01
21
-91.75
0
LINE
8
BLACK
6
CONTINUOUS
10
148.01
20
-91.75
11
148.01
21
-90.85
0
LINE
8
BLACK
6
CONTINUOUS
10
148.01
20
-90.85
11
148.51
21
-90.85
0
LINE
8
BLACK
6
CONTINUOUS
10
148.51
20
-90.85
11
148.51
21
-91.75
0
LINE
8
BLACK
6
CONTINUOUS
10
170.545
20
-91.735
11
168.995
21
-91.735
0
LINE
8
BLACK
6
CONTINUOUS
10
168.995
20
-91.735
11
168.995
21
-91.135
0
LINE
8
BLACK
6
CONTINUOUS
10
168.995
20
-91.135
11
170.545
21
-91.135
0
LINE
8
BLACK
6
CONTINUOUS
10
170.545
20
-91.135
11
170.545
21
-91.735
0
LINE
8
BLACK
6
CONTINUOUS
10
165.145
20
-91.735
11
163.595
21
-91.735
0
LINE
8
BLACK
6
CONTINUOUS
10
163.595
20
-91.735
11
163.595
21
-91.135
0
LINE
8
BLACK
6
CONTINUOUS
10
163.595
20
-91.135
11
165.145
21
-91.135
0
LINE
8
BLACK
6
CONTINUOUS
10
165.145
20
-91.135
11
165.145
21
-91.735
0
LINE
8
BLACK
6
CONTINUOUS
10
107.655
20
-91.725
11
106.455
21
-91.725
0
LINE
8
BLACK
6
CONTINUOUS
10
106.455
20
-91.725
11
106.455
21
-91.025
0
LINE
8
BLACK
6
CONTINUOUS
10
106.455
20
-91.025
11
107.655
21
-91.025
0
LINE
8
BLACK
6
CONTINUOUS
10
107.655
20
-91.025
11
107.655
21
-91.725
0
LINE
8
BLACK
6
CONTINUOUS
10
175.405
20
-91.685
11
173.855
21
-91.685
0
LINE
8
BLACK
6
CONTINUOUS
10
173.855
20
-91.685
11
173.855
21
-91.085
0
LINE
8
BLACK
6
CONTINUOUS
10
173.855
20
-91.085
11
175.405
21
-91.085
0
LINE
8
BLACK
6
CONTINUOUS
10
175.405
20
-91.085
11
175.405
21
-91.685
0
LINE
8
BLACK
6
CONTINUOUS
10
180.805
20
-91.685
11
179.255
21
-91.685
0
LINE
8
BLACK
6
CONTINUOUS
10
179.255
20
-91.685
11
179.255
21
-91.085
0
LINE
8
BLACK
6
CONTINUOUS
10
179.255
20
-91.085
11
180.805
21
-91.085
0
LINE
8
BLACK
6
CONTINUOUS
10
180.805
20
-91.085
11
180.805
21
-91.685
0
LINE
8
BLACK
6
CONTINUOUS
10
129.505
20
-91.51
11
128.755
21
-91.51
0
LINE
8
BLACK
6
CONTINUOUS
10
128.755
20
-91.51
11
128.755
21
-90.71
0
LINE
8
BLACK
6
CONTINUOUS
10
128.755
20
-90.71
11
129.505
21
-90.71
0
LINE
8
BLACK
6
CONTINUOUS
10
129.505
20
-90.71
11
129.505
21
-91.51
0
LINE
8
BLACK
6
CONTINUOUS
10
133.11
20
-91.395
11
131.61
21
-91.395
0
LINE
8
BLACK
6
CONTINUOUS
10
131.61
20
-91.395
11
131.61
21
-90.845
0
LINE
8
BLACK
6
CONTINUOUS
10
131.61
20
-90.845
11
133.11
21
-90.845
0
LINE
8
BLACK
6
CONTINUOUS
10
133.11
20
-90.845
11
133.11
21
-91.395
0
LINE
8
BLACK
6
CONTINUOUS
10
144.51
20
-91.395
11
143.01
21
-91.395
0
LINE
8
BLACK
6
CONTINUOUS
10
143.01
20
-91.395
11
143.01
21
-90.845
0
LINE
8
BLACK
6
CONTINUOUS
10
143.01
20
-90.845
11
144.51
21
-90.845
0
LINE
8
BLACK
6
CONTINUOUS
10
144.51
20
-90.845
11
144.51
21
-91.395
0
LINE
8
BLACK
6
CONTINUOUS
10
118.24
20
-90.92
11
117.74
21
-90.92
0
LINE
8
BLACK
6
CONTINUOUS
10
117.74
20
-90.92
11
117.74
21
-90.02
0
LINE
8
BLACK
6
CONTINUOUS
10
117.74
20
-90.02
11
118.24
21
-90.02
0
LINE
8
BLACK
6
CONTINUOUS
10
118.24
20
-90.02
11
118.24
21
-90.92
0
LINE
8
BLACK
6
CONTINUOUS
10
116.74
20
-90.92
11
116.24
21
-90.92
0
LINE
8
BLACK
6
CONTINUOUS
10
116.24
20
-90.92
11
116.24
21
-90.02
0
LINE
8
BLACK
6
CONTINUOUS
10
116.24
20
-90.02
11
116.74
21
-90.02
0
LINE
8
BLACK
6
CONTINUOUS
10
116.74
20
-90.02
11
116.74
21
-90.92
0
LINE
8
BLACK
6
CONTINUOUS
10
113.91
20
-90.91
11
113.41
21
-90.91
0
LINE
8
BLACK
6
CONTINUOUS
10
113.41
20
-90.91
11
113.41
21
-90.01
0
LINE
8
BLACK
6
CONTINUOUS
10
113.41
20
-90.01
11
113.91
21
-90.01
0
LINE
8
BLACK
6
CONTINUOUS
10
113.91
20
-90.01
11
113.91
21
-90.91
0
LINE
8
BLACK
6
CONTINUOUS
10
112.41
20
-90.91
11
111.91
21
-90.91
0
LINE
8
BLACK
6
CONTINUOUS
10
111.91
20
-90.91
11
111.91
21
-90.01
0
LINE
8
BLACK
6
CONTINUOUS
10
111.91
20
-90.01
11
112.41
21
-90.01
0
LINE
8
BLACK
6
CONTINUOUS
10
112.41
20
-90.01
11
112.41
21
-90.91
0
LINE
8
BLACK
6
CONTINUOUS
10
107.655
20
-90.625
11
106.455
21
-90.625
0
LINE
8
BLACK
6
CONTINUOUS
10
106.455
20
-90.625
11
106.455
21
-89.925
0
LINE
8
BLACK
6
CONTINUOUS
10
106.455
20
-89.925
11
107.655
21
-89.925
0
LINE
8
BLACK
6
CONTINUOUS
10
107.655
20
-89.925
11
107.655
21
-90.625
0
LINE
8
BLACK
6
CONTINUOUS
10
133.11
20
-90.595
11
131.61
21
-90.595
0
LINE
8
BLACK
6
CONTINUOUS
10
131.61
20
-90.595
11
131.61
21
-90.045
0
LINE
8
BLACK
6
CONTINUOUS
10
131.61
20
-90.045
11
133.11
21
-90.045
0
LINE
8
BLACK
6
CONTINUOUS
10
133.11
20
-90.045
11
133.11
21
-90.595
0
LINE
8
BLACK
6
CONTINUOUS
10
144.51
20
-90.595
11
143.01
21
-90.595
0
LINE
8
BLACK
6
CONTINUOUS
10
143.01
20
-90.595
11
143.01
21
-90.045
0
LINE
8
BLACK
6
CONTINUOUS
10
143.01
20
-90.045
11
144.51
21
-90.045
0
LINE
8
BLACK
6
CONTINUOUS
10
144.51
20
-90.045
11
144.51
21
-90.595
0
LINE
8
BLACK
6
CONTINUOUS
10
170.545
20
-90.465
11
168.995
21
-90.465
0
LINE
8
BLACK
6
CONTINUOUS
10
168.995
20
-90.465
11
168.995
21
-89.865
0
LINE
8
BLACK
6
CONTINUOUS
10
168.995
20
-89.865
11
170.545
21
-89.865
0
LINE
8
BLACK
6
CONTINUOUS
10
170.545
20
-89.865
11
170.545
21
-90.465
0
LINE
8
BLACK
6
CONTINUOUS
10
165.145
20
-90.465
11
163.595
21
-90.465
0
LINE
8
BLACK
6
CONTINUOUS
10
163.595
20
-90.465
11
163.595
21
-89.865
0
LINE
8
BLACK
6
CONTINUOUS
10
163.595
20
-89.865
11
165.145
21
-89.865
0
LINE
8
BLACK
6
CONTINUOUS
10
165.145
20
-89.865
11
165.145
21
-90.465
0
LINE
8
BLACK
6
CONTINUOUS
10
175.405
20
-90.415
11
173.855
21
-90.415
0
LINE
8
BLACK
6
CONTINUOUS
10
173.855
20
-90.415
11
173.855
21
-89.815
0
LINE
8
BLACK
6
CONTINUOUS
10
173.855
20
-89.815
11
175.405
21
-89.815
0
LINE
8
BLACK
6
CONTINUOUS
10
175.405
20
-89.815
11
175.405
21
-90.415
0
LINE
8
BLACK
6
CONTINUOUS
10
180.805
20
-90.415
11
179.255
21
-90.415
0
LINE
8
BLACK
6
CONTINUOUS
10
179.255
20
-90.415
11
179.255
21
-89.815
0
LINE
8
BLACK
6
CONTINUOUS
10
179.255
20
-89.815
11
180.805
21
-89.815
0
LINE
8
BLACK
6
CONTINUOUS
10
180.805
20
-89.815
11
180.805
21
-90.415
0
LINE
8
BLACK
6
CONTINUOUS
10
154.08
20
-90.16
11
152.88
21
-90.16
0
LINE
8
BLACK
6
CONTINUOUS
10
152.88
20
-90.16
11
152.88
21
-88.96
0
LINE
8
BLACK
6
CONTINUOUS
10
152.88
20
-88.96
11
154.08
21
-88.96
0
LINE
8
BLACK
6
CONTINUOUS
10
154.08
20
-88.96
11
154.08
21
-90.16
0
LINE
8
BLACK
6
CONTINUOUS
10
129.505
20
-90.01
11
128.755
21
-90.01
0
LINE
8
BLACK
6
CONTINUOUS
10
128.755
20
-90.01
11
128.755
21
-89.21
0
LINE
8
BLACK
6
CONTINUOUS
10
128.755
20
-89.21
11
129.505
21
-89.21
0
LINE
8
BLACK
6
CONTINUOUS
10
129.505
20
-89.21
11
129.505
21
-90.01
0
LINE
8
BLACK
6
CONTINUOUS
10
144.51
20
-89.795
11
143.01
21
-89.795
0
LINE
8
BLACK
6
CONTINUOUS
10
143.01
20
-89.795
11
143.01
21
-89.245
0
LINE
8
BLACK
6
CONTINUOUS
10
143.01
20
-89.245
11
144.51
21
-89.245
0
LINE
8
BLACK
6
CONTINUOUS
10
144.51
20
-89.245
11
144.51
21
-89.795
0
LINE
8
BLACK
6
CONTINUOUS
10
133.11
20
-89.795
11
131.61
21
-89.795
0
LINE
8
BLACK
6
CONTINUOUS
10
131.61
20
-89.795
11
131.61
21
-89.245
0
LINE
8
BLACK
6
CONTINUOUS
10
131.61
20
-89.245
11
133.11
21
-89.245
0
LINE
8
BLACK
6
CONTINUOUS
10
133.11
20
-89.245
11
133.11
21
-89.795
0
LINE
8
BLACK
6
CONTINUOUS
10
107.655
20
-89.525
11
106.455
21
-89.525
0
LINE
8
BLACK
6
CONTINUOUS
10
106.455
20
-89.525
11
106.455
21
-88.825
0
LINE
8
BLACK
6
CONTINUOUS
10
106.455
20
-88.825
11
107.655
21
-88.825
0
LINE
8
BLACK
6
CONTINUOUS
10
107.655
20
-88.825
11
107.655
21
-89.525
0
LINE
8
BLACK
6
CONTINUOUS
10
160.665
20
-89.4
11
159.915
21
-89.4
0
LINE
8
BLACK
6
CONTINUOUS
10
159.915
20
-89.4
11
159.915
21
-88.6
0
LINE
8
BLACK
6
CONTINUOUS
10
159.915
20
-88.6
11
160.665
21
-88.6
0
LINE
8
BLACK
6
CONTINUOUS
10
160.665
20
-88.6
11
160.665
21
-89.4
0
LINE
8
BLACK
6
CONTINUOUS
10
162.61
20
-89.26
11
161.71
21
-89.26
0
LINE
8
BLACK
6
CONTINUOUS
10
161.71
20
-89.26
11
161.71
21
-88.76
0
LINE
8
BLACK
6
CONTINUOUS
10
161.71
20
-88.76
11
162.61
21
-88.76
0
LINE
8
BLACK
6
CONTINUOUS
10
162.61
20
-88.76
11
162.61
21
-89.26
0
LINE
8
BLACK
6
CONTINUOUS
10
170.545
20
-89.195
11
168.995
21
-89.195
0
LINE
8
BLACK
6
CONTINUOUS
10
168.995
20
-89.195
11
168.995
21
-88.595
0
LINE
8
BLACK
6
CONTINUOUS
10
168.995
20
-88.595
11
170.545
21
-88.595
0
LINE
8
BLACK
6
CONTINUOUS
10
170.545
20
-88.595
11
170.545
21
-89.195
0
LINE
8
BLACK
6
CONTINUOUS
10
165.145
20
-89.195
11
163.595
21
-89.195
0
LINE
8
BLACK
6
CONTINUOUS
10
163.595
20
-89.195
11
163.595
21
-88.595
0
LINE
8
BLACK
6
CONTINUOUS
10
163.595
20
-88.595
11
165.145
21
-88.595
0
LINE
8
BLACK
6
CONTINUOUS
10
165.145
20
-88.595
11
165.145
21
-89.195
0
LINE
8
BLACK
6
CONTINUOUS
10
175.405
20
-89.145
11
173.855
21
-89.145
0
LINE
8
BLACK
6
CONTINUOUS
10
173.855
20
-89.145
11
173.855
21
-88.545
0
LINE
8
BLACK
6
CONTINUOUS
10
173.855
20
-88.545
11
175.405
21
-88.545
0
LINE
8
BLACK
6
CONTINUOUS
10
175.405
20
-88.545
11
175.405
21
-89.145
0
LINE
8
BLACK
6
CONTINUOUS
10
180.805
20
-89.145
11
179.255
21
-89.145
0
LINE
8
BLACK
6
CONTINUOUS
10
179.255
20
-89.145
11
179.255
21
-88.545
0
LINE
8
BLACK
6
CONTINUOUS
10
179.255
20
-88.545
11
180.805
21
-88.545
0
LINE
8
BLACK
6
CONTINUOUS
10
180.805
20
-88.545
11
180.805
21
-89.145
0
LINE
8
BLACK
6
CONTINUOUS
10
150.2
20
-88.995
11
149.4
21
-88.995
0
LINE
8
BLACK
6
CONTINUOUS
10
149.4
20
-88.995
11
149.4
21
-88.245
0
LINE
8
BLACK
6
CONTINUOUS
10
149.4
20
-88.245
11
150.2
21
-88.245
0
LINE
8
BLACK
6
CONTINUOUS
10
150.2
20
-88.245
11
150.2
21
-88.995
0
LINE
8
BLACK
6
CONTINUOUS
10
133.11
20
-88.995
11
131.61
21
-88.995
0
LINE
8
BLACK
6
CONTINUOUS
10
131.61
20
-88.995
11
131.61
21
-88.445
0
LINE
8
BLACK
6
CONTINUOUS
10
131.61
20
-88.445
11
133.11
21
-88.445
0
LINE
8
BLACK
6
CONTINUOUS
10
133.11
20
-88.445
11
133.11
21
-88.995
0
LINE
8
BLACK
6
CONTINUOUS
10
144.51
20
-88.995
11
143.01
21
-88.995
0
LINE
8
BLACK
6
CONTINUOUS
10
143.01
20
-88.995
11
143.01
21
-88.445
0
LINE
8
BLACK
6
CONTINUOUS
10
143.01
20
-88.445
11
144.51
21
-88.445
0
LINE
8
BLACK
6
CONTINUOUS
10
144.51
20
-88.445
11
144.51
21
-88.995
0
LINE
8
BLACK
6
CONTINUOUS
10
148.7
20
-88.995
11
147.9
21
-88.995
0
LINE
8
BLACK
6
CONTINUOUS
10
147.9
20
-88.995
11
147.9
21
-88.245
0
LINE
8
BLACK
6
CONTINUOUS
10
147.9
20
-88.245
11
148.7
21
-88.245
0
LINE
8
BLACK
6
CONTINUOUS
10
148.7
20
-88.245
11
148.7
21
-88.995
0
LINE
8
BLACK
6
CONTINUOUS
10
107.655
20
-88.425
11
106.455
21
-88.425
0
LINE
8
BLACK
6
CONTINUOUS
10
106.455
20
-88.425
11
106.455
21
-87.725
0
LINE
8
BLACK
6
CONTINUOUS
10
106.455
20
-87.725
11
107.655
21
-87.725
0
LINE
8
BLACK
6
CONTINUOUS
10
107.655
20
-87.725
11
107.655
21
-88.425
0
LINE
8
BLACK
6
CONTINUOUS
10
144.51
20
-88.195
11
143.01
21
-88.195
0
LINE
8
BLACK
6
CONTINUOUS
10
143.01
20
-88.195
11
143.01
21
-87.645
0
LINE
8
BLACK
6
CONTINUOUS
10
143.01
20
-87.645
11
144.51
21
-87.645
0
LINE
8
BLACK
6
CONTINUOUS
10
144.51
20
-87.645
11
144.51
21
-88.195
0
LINE
8
BLACK
6
CONTINUOUS
10
133.11
20
-88.195
11
131.61
21
-88.195
0
LINE
8
BLACK
6
CONTINUOUS
10
131.61
20
-88.195
11
131.61
21
-87.645
0
LINE
8
BLACK
6
CONTINUOUS
10
131.61
20
-87.645
11
133.11
21
-87.645
0
LINE
8
BLACK
6
CONTINUOUS
10
133.11
20
-87.645
11
133.11
21
-88.195
0
LINE
8
BLACK
6
CONTINUOUS
10
165.145
20
-87.925
11
163.595
21
-87.925
0
LINE
8
BLACK
6
CONTINUOUS
10
163.595
20
-87.925
11
163.595
21
-87.325
0
LINE
8
BLACK
6
CONTINUOUS
10
163.595
20
-87.325
11
165.145
21
-87.325
0
LINE
8
BLACK
6
CONTINUOUS
10
165.145
20
-87.325
11
165.145
21
-87.925
0
LINE
8
BLACK
6
CONTINUOUS
10
170.545
20
-87.925
11
168.995
21
-87.925
0
LINE
8
BLACK
6
CONTINUOUS
10
168.995
20
-87.925
11
168.995
21
-87.325
0
LINE
8
BLACK
6
CONTINUOUS
10
168.995
20
-87.325
11
170.545
21
-87.325
0
LINE
8
BLACK
6
CONTINUOUS
10
170.545
20
-87.325
11
170.545
21
-87.925
0
LINE
8
BLACK
6
CONTINUOUS
10
160.665
20
-87.9
11
159.915
21
-87.9
0
LINE
8
BLACK
6
CONTINUOUS
10
159.915
20
-87.9
11
159.915
21
-87.1
0
LINE
8
BLACK
6
CONTINUOUS
10
159.915
20
-87.1
11
160.665
21
-87.1
0
LINE
8
BLACK
6
CONTINUOUS
10
160.665
20
-87.1
11
160.665
21
-87.9
0
LINE
8
BLACK
6
CONTINUOUS
10
175.405
20
-87.875
11
173.855
21
-87.875
0
LINE
8
BLACK
6
CONTINUOUS
10
173.855
20
-87.875
11
173.855
21
-87.275
0
LINE
8
BLACK
6
CONTINUOUS
10
173.855
20
-87.275
11
175.405
21
-87.275
0
LINE
8
BLACK
6
CONTINUOUS
10
175.405
20
-87.275
11
175.405
21
-87.875
0
LINE
8
BLACK
6
CONTINUOUS
10
180.805
20
-87.875
11
179.255
21
-87.875
0
LINE
8
BLACK
6
CONTINUOUS
10
179.255
20
-87.875
11
179.255
21
-87.275
0
LINE
8
BLACK
6
CONTINUOUS
10
179.255
20
-87.275
11
180.805
21
-87.275
0
LINE
8
BLACK
6
CONTINUOUS
10
180.805
20
-87.275
11
180.805
21
-87.875
0
LINE
8
BLACK
6
CONTINUOUS
10
162.61
20
-87.76
11
161.71
21
-87.76
0
LINE
8
BLACK
6
CONTINUOUS
10
161.71
20
-87.76
11
161.71
21
-87.26
0
LINE
8
BLACK
6
CONTINUOUS
10
161.71
20
-87.26
11
162.61
21
-87.26
0
LINE
8
BLACK
6
CONTINUOUS
10
162.61
20
-87.26
11
162.61
21
-87.76
0
LINE
8
BLACK
6
CONTINUOUS
10
116.72
20
-87.49
11
116.22
21
-87.49
0
LINE
8
BLACK
6
CONTINUOUS
10
116.22
20
-87.49
11
116.22
21
-86.59
0
LINE
8
BLACK
6
CONTINUOUS
10
116.22
20
-86.59
11
116.72
21
-86.59
0
LINE
8
BLACK
6
CONTINUOUS
10
116.72
20
-86.59
11
116.72
21
-87.49
0
LINE
8
BLACK
6
CONTINUOUS
10
118.22
20
-87.49
11
117.72
21
-87.49
0
LINE
8
BLACK
6
CONTINUOUS
10
117.72
20
-87.49
11
117.72
21
-86.59
0
LINE
8
BLACK
6
CONTINUOUS
10
117.72
20
-86.59
11
118.22
21
-86.59
0
LINE
8
BLACK
6
CONTINUOUS
10
118.22
20
-86.59
11
118.22
21
-87.49
0
LINE
8
BLACK
6
CONTINUOUS
10
112.42
20
-87.49
11
111.92
21
-87.49
0
LINE
8
BLACK
6
CONTINUOUS
10
111.92
20
-87.49
11
111.92
21
-86.59
0
LINE
8
BLACK
6
CONTINUOUS
10
111.92
20
-86.59
11
112.42
21
-86.59
0
LINE
8
BLACK
6
CONTINUOUS
10
112.42
20
-86.59
11
112.42
21
-87.49
0
LINE
8
BLACK
6
CONTINUOUS
10
113.92
20
-87.49
11
113.42
21
-87.49
0
LINE
8
BLACK
6
CONTINUOUS
10
113.42
20
-87.49
11
113.42
21
-86.59
0
LINE
8
BLACK
6
CONTINUOUS
10
113.42
20
-86.59
11
113.92
21
-86.59
0
LINE
8
BLACK
6
CONTINUOUS
10
113.92
20
-86.59
11
113.92
21
-87.49
0
LINE
8
BLACK
6
CONTINUOUS
10
144.51
20
-87.395
11
143.01
21
-87.395
0
LINE
8
BLACK
6
CONTINUOUS
10
143.01
20
-87.395
11
143.01
21
-86.845
0
LINE
8
BLACK
6
CONTINUOUS
10
143.01
20
-86.845
11
144.51
21
-86.845
0
LINE
8
BLACK
6
CONTINUOUS
10
144.51
20
-86.845
11
144.51
21
-87.395
0
LINE
8
BLACK
6
CONTINUOUS
10
133.11
20
-87.395
11
131.61
21
-87.395
0
LINE
8
BLACK
6
CONTINUOUS
10
131.61
20
-87.395
11
131.61
21
-86.845
0
LINE
8
BLACK
6
CONTINUOUS
10
131.61
20
-86.845
11
133.11
21
-86.845
0
LINE
8
BLACK
6
CONTINUOUS
10
133.11
20
-86.845
11
133.11
21
-87.395
0
LINE
8
BLACK
6
CONTINUOUS
10
107.655
20
-87.325
11
106.455
21
-87.325
0
LINE
8
BLACK
6
CONTINUOUS
10
106.455
20
-87.325
11
106.455
21
-86.625
0
LINE
8
BLACK
6
CONTINUOUS
10
106.455
20
-86.625
11
107.655
21
-86.625
0
LINE
8
BLACK
6
CONTINUOUS
10
107.655
20
-86.625
11
107.655
21
-87.325
0
LINE
8
BLACK
6
CONTINUOUS
10
144.51
20
-86.595
11
143.01
21
-86.595
0
LINE
8
BLACK
6
CONTINUOUS
10
143.01
20
-86.595
11
143.01
21
-86.045
0
LINE
8
BLACK
6
CONTINUOUS
10
143.01
20
-86.045
11
144.51
21
-86.045
0
LINE
8
BLACK
6
CONTINUOUS
10
144.51
20
-86.045
11
144.51
21
-86.595
0
LINE
8
BLACK
6
CONTINUOUS
10
133.11
20
-86.595
11
131.61
21
-86.595
0
LINE
8
BLACK
6
CONTINUOUS
10
131.61
20
-86.595
11
131.61
21
-86.045
0
LINE
8
BLACK
6
CONTINUOUS
10
131.61
20
-86.045
11
133.11
21
-86.045
0
LINE
8
BLACK
6
CONTINUOUS
10
133.11
20
-86.045
11
133.11
21
-86.595
0
LINE
8
BLACK
6
CONTINUOUS
10
107.655
20
-86.375
11
106.455
21
-86.375
0
LINE
8
BLACK
6
CONTINUOUS
10
106.455
20
-86.375
11
106.455
21
-85.675
0
LINE
8
BLACK
6
CONTINUOUS
10
106.455
20
-85.675
11
107.655
21
-85.675
0
LINE
8
BLACK
6
CONTINUOUS
10
107.655
20
-85.675
11
107.655
21
-86.375
0
LINE
8
BLACK
6
CONTINUOUS
10
160.07
20
-85.61
11
159.57
21
-85.61
0
LINE
8
BLACK
6
CONTINUOUS
10
159.57
20
-85.61
11
159.57
21
-84.71
0
LINE
8
BLACK
6
CONTINUOUS
10
159.57
20
-84.71
11
160.07
21
-84.71
0
LINE
8
BLACK
6
CONTINUOUS
10
160.07
20
-84.71
11
160.07
21
-85.61
0
LINE
8
BLACK
6
CONTINUOUS
10
161.57
20
-85.61
11
161.07
21
-85.61
0
LINE
8
BLACK
6
CONTINUOUS
10
161.07
20
-85.61
11
161.07
21
-84.71
0
LINE
8
BLACK
6
CONTINUOUS
10
161.07
20
-84.71
11
161.57
21
-84.71
0
LINE
8
BLACK
6
CONTINUOUS
10
161.57
20
-84.71
11
161.57
21
-85.61
0
LINE
8
BLACK
6
CONTINUOUS
10
152.29
20
-85.59
11
151.79
21
-85.59
0
LINE
8
BLACK
6
CONTINUOUS
10
151.79
20
-85.59
11
151.79
21
-84.69
0
LINE
8
BLACK
6
CONTINUOUS
10
151.79
20
-84.69
11
152.29
21
-84.69
0
LINE
8
BLACK
6
CONTINUOUS
10
152.29
20
-84.69
11
152.29
21
-85.59
0
LINE
8
BLACK
6
CONTINUOUS
10
149.95
20
-85.59
11
149.45
21
-85.59
0
LINE
8
BLACK
6
CONTINUOUS
10
149.45
20
-85.59
11
149.45
21
-84.69
0
LINE
8
BLACK
6
CONTINUOUS
10
149.45
20
-84.69
11
149.95
21
-84.69
0
LINE
8
BLACK
6
CONTINUOUS
10
149.95
20
-84.69
11
149.95
21
-85.59
0
LINE
8
BLACK
6
CONTINUOUS
10
148.45
20
-85.59
11
147.95
21
-85.59
0
LINE
8
BLACK
6
CONTINUOUS
10
147.95
20
-85.59
11
147.95
21
-84.69
0
LINE
8
BLACK
6
CONTINUOUS
10
147.95
20
-84.69
11
148.45
21
-84.69
0
LINE
8
BLACK
6
CONTINUOUS
10
148.45
20
-84.69
11
148.45
21
-85.59
0
LINE
8
BLACK
6
CONTINUOUS
10
153.79
20
-85.59
11
153.29
21
-85.59
0
LINE
8
BLACK
6
CONTINUOUS
10
153.29
20
-85.59
11
153.29
21
-84.69
0
LINE
8
BLACK
6
CONTINUOUS
10
153.29
20
-84.69
11
153.79
21
-84.69
0
LINE
8
BLACK
6
CONTINUOUS
10
153.79
20
-84.69
11
153.79
21
-85.59
0
LINE
8
BLACK
6
CONTINUOUS
10
103.355
20
-85.575
11
102.155
21
-85.575
0
LINE
8
BLACK
6
CONTINUOUS
10
102.155
20
-85.575
11
102.155
21
-84.575
0
LINE
8
BLACK
6
CONTINUOUS
10
102.155
20
-84.575
11
103.355
21
-84.575
0
LINE
8
BLACK
6
CONTINUOUS
10
103.355
20
-84.575
11
103.355
21
-85.575
0
LINE
8
BLACK
6
CONTINUOUS
10
96.955
20
-85.575
11
96.155
21
-85.575
0
LINE
8
BLACK
6
CONTINUOUS
10
96.155
20
-85.575
11
96.155
21
-84.575
0
LINE
8
BLACK
6
CONTINUOUS
10
96.155
20
-84.575
11
96.955
21
-84.575
0
LINE
8
BLACK
6
CONTINUOUS
10
96.955
20
-84.575
11
96.955
21
-85.575
0
LINE
8
BLACK
6
CONTINUOUS
10
93.805
20
-85.575
11
91.005
21
-85.575
0
LINE
8
BLACK
6
CONTINUOUS
10
91.005
20
-85.575
11
91.005
21
-84.575
0
LINE
8
BLACK
6
CONTINUOUS
10
91.005
20
-84.575
11
93.805
21
-84.575
0
LINE
8
BLACK
6
CONTINUOUS
10
93.805
20
-84.575
11
93.805
21
-85.575
0
LINE
8
BLACK
6
CONTINUOUS
10
156.24
20
-85.535
11
155.44
21
-85.535
0
LINE
8
BLACK
6
CONTINUOUS
10
155.44
20
-85.535
11
155.44
21
-84.785
0
LINE
8
BLACK
6
CONTINUOUS
10
155.44
20
-84.785
11
156.24
21
-84.785
0
LINE
8
BLACK
6
CONTINUOUS
10
156.24
20
-84.785
11
156.24
21
-85.535
0
LINE
8
BLACK
6
CONTINUOUS
10
157.74
20
-85.535
11
156.94
21
-85.535
0
LINE
8
BLACK
6
CONTINUOUS
10
156.94
20
-85.535
11
156.94
21
-84.785
0
LINE
8
BLACK
6
CONTINUOUS
10
156.94
20
-84.785
11
157.74
21
-84.785
0
LINE
8
BLACK
6
CONTINUOUS
10
157.74
20
-84.785
11
157.74
21
-85.535
0
LINE
8
BLACK
6
CONTINUOUS
10
168.67
20
-85.535
11
167.87
21
-85.535
0
LINE
8
BLACK
6
CONTINUOUS
10
167.87
20
-85.535
11
167.87
21
-84.785
0
LINE
8
BLACK
6
CONTINUOUS
10
167.87
20
-84.785
11
168.67
21
-84.785
0
LINE
8
BLACK
6
CONTINUOUS
10
168.67
20
-84.785
11
168.67
21
-85.535
0
LINE
8
BLACK
6
CONTINUOUS
10
170.17
20
-85.535
11
169.37
21
-85.535
0
LINE
8
BLACK
6
CONTINUOUS
10
169.37
20
-85.535
11
169.37
21
-84.785
0
LINE
8
BLACK
6
CONTINUOUS
10
169.37
20
-84.785
11
170.17
21
-84.785
0
LINE
8
BLACK
6
CONTINUOUS
10
170.17
20
-84.785
11
170.17
21
-85.535
0
LINE
8
BLACK
6
CONTINUOUS
10
164.12
20
-85.535
11
163.32
21
-85.535
0
LINE
8
BLACK
6
CONTINUOUS
10
163.32
20
-85.535
11
163.32
21
-84.785
0
LINE
8
BLACK
6
CONTINUOUS
10
163.32
20
-84.785
11
164.12
21
-84.785
0
LINE
8
BLACK
6
CONTINUOUS
10
164.12
20
-84.785
11
164.12
21
-85.535
0
LINE
8
BLACK
6
CONTINUOUS
10
165.62
20
-85.535
11
164.82
21
-85.535
0
LINE
8
BLACK
6
CONTINUOUS
10
164.82
20
-85.535
11
164.82
21
-84.785
0
LINE
8
BLACK
6
CONTINUOUS
10
164.82
20
-84.785
11
165.62
21
-84.785
0
LINE
8
BLACK
6
CONTINUOUS
10
165.62
20
-84.785
11
165.62
21
-85.535
0
LINE
8
BLACK
6
CONTINUOUS
10
135.935
20
-85.37
11
135.385
21
-85.37
0
LINE
8
BLACK
6
CONTINUOUS
10
135.385
20
-85.37
11
135.385
21
-83.87
0
LINE
8
BLACK
6
CONTINUOUS
10
135.385
20
-83.87
11
135.935
21
-83.87
0
LINE
8
BLACK
6
CONTINUOUS
10
135.935
20
-83.87
11
135.935
21
-85.37
0
LINE
8
BLACK
6
CONTINUOUS
10
134.335
20
-85.37
11
133.785
21
-85.37
0
LINE
8
BLACK
6
CONTINUOUS
10
133.785
20
-85.37
11
133.785
21
-83.87
0
LINE
8
BLACK
6
CONTINUOUS
10
133.785
20
-83.87
11
134.335
21
-83.87
0
LINE
8
BLACK
6
CONTINUOUS
10
134.335
20
-83.87
11
134.335
21
-85.37
0
LINE
8
BLACK
6
CONTINUOUS
10
135.135
20
-85.37
11
134.585
21
-85.37
0
LINE
8
BLACK
6
CONTINUOUS
10
134.585
20
-85.37
11
134.585
21
-83.87
0
LINE
8
BLACK
6
CONTINUOUS
10
134.585
20
-83.87
11
135.135
21
-83.87
0
LINE
8
BLACK
6
CONTINUOUS
10
135.135
20
-83.87
11
135.135
21
-85.37
0
LINE
8
BLACK
6
CONTINUOUS
10
142.335
20
-85.37
11
141.785
21
-85.37
0
LINE
8
BLACK
6
CONTINUOUS
10
141.785
20
-85.37
11
141.785
21
-83.87
0
LINE
8
BLACK
6
CONTINUOUS
10
141.785
20
-83.87
11
142.335
21
-83.87
0
LINE
8
BLACK
6
CONTINUOUS
10
142.335
20
-83.87
11
142.335
21
-85.37
0
LINE
8
BLACK
6
CONTINUOUS
10
140.735
20
-85.37
11
140.185
21
-85.37
0
LINE
8
BLACK
6
CONTINUOUS
10
140.185
20
-85.37
11
140.185
21
-83.87
0
LINE
8
BLACK
6
CONTINUOUS
10
140.185
20
-83.87
11
140.735
21
-83.87
0
LINE
8
BLACK
6
CONTINUOUS
10
140.735
20
-83.87
11
140.735
21
-85.37
0
LINE
8
BLACK
6
CONTINUOUS
10
136.735
20
-85.37
11
136.185
21
-85.37
0
LINE
8
BLACK
6
CONTINUOUS
10
136.185
20
-85.37
11
136.185
21
-83.87
0
LINE
8
BLACK
6
CONTINUOUS
10
136.185
20
-83.87
11
136.735
21
-83.87
0
LINE
8
BLACK
6
CONTINUOUS
10
136.735
20
-83.87
11
136.735
21
-85.37
0
LINE
8
BLACK
6
CONTINUOUS
10
137.535
20
-85.37
11
136.985
21
-85.37
0
LINE
8
BLACK
6
CONTINUOUS
10
136.985
20
-85.37
11
136.985
21
-83.87
0
LINE
8
BLACK
6
CONTINUOUS
10
136.985
20
-83.87
11
137.535
21
-83.87
0
LINE
8
BLACK
6
CONTINUOUS
10
137.535
20
-83.87
11
137.535
21
-85.37
0
LINE
8
BLACK
6
CONTINUOUS
10
138.335
20
-85.37
11
137.785
21
-85.37
0
LINE
8
BLACK
6
CONTINUOUS
10
137.785
20
-85.37
11
137.785
21
-83.87
0
LINE
8
BLACK
6
CONTINUOUS
10
137.785
20
-83.87
11
138.335
21
-83.87
0
LINE
8
BLACK
6
CONTINUOUS
10
138.335
20
-83.87
11
138.335
21
-85.37
0
LINE
8
BLACK
6
CONTINUOUS
10
141.535
20
-85.37
11
140.985
21
-85.37
0
LINE
8
BLACK
6
CONTINUOUS
10
140.985
20
-85.37
11
140.985
21
-83.87
0
LINE
8
BLACK
6
CONTINUOUS
10
140.985
20
-83.87
11
141.535
21
-83.87
0
LINE
8
BLACK
6
CONTINUOUS
10
141.535
20
-83.87
11
141.535
21
-85.37
0
LINE
8
BLACK
6
CONTINUOUS
10
139.135
20
-85.37
11
138.585
21
-85.37
0
LINE
8
BLACK
6
CONTINUOUS
10
138.585
20
-85.37
11
138.585
21
-83.87
0
LINE
8
BLACK
6
CONTINUOUS
10
138.585
20
-83.87
11
139.135
21
-83.87
0
LINE
8
BLACK
6
CONTINUOUS
10
139.135
20
-83.87
11
139.135
21
-85.37
0
LINE
8
BLACK
6
CONTINUOUS
10
139.935
20
-85.37
11
139.385
21
-85.37
0
LINE
8
BLACK
6
CONTINUOUS
10
139.385
20
-85.37
11
139.385
21
-83.87
0
LINE
8
BLACK
6
CONTINUOUS
10
139.385
20
-83.87
11
139.935
21
-83.87
0
LINE
8
BLACK
6
CONTINUOUS
10
139.935
20
-83.87
11
139.935
21
-85.37
0
LINE
8
BLACK
6
CONTINUOUS
10
121.74
20
-85.23
11
120.04
21
-85.23
0
LINE
8
BLACK
6
CONTINUOUS
10
120.04
20
-85.23
11
120.04
21
-83.93
0
LINE
8
BLACK
6
CONTINUOUS
10
120.04
20
-83.93
11
121.74
21
-83.93
0
LINE
8
BLACK
6
CONTINUOUS
10
121.74
20
-83.93
11
121.74
21
-85.23
0
LINE
8
BLACK
6
CONTINUOUS
10
130.42
20
-84.78
11
129.92
21
-84.78
0
LINE
8
BLACK
6
CONTINUOUS
10
129.92
20
-84.78
11
129.92
21
-83.88
0
LINE
8
BLACK
6
CONTINUOUS
10
129.92
20
-83.88
11
130.42
21
-83.88
0
LINE
8
BLACK
6
CONTINUOUS
10
130.42
20
-83.88
11
130.42
21
-84.78
0
LINE
8
BLACK
6
CONTINUOUS
10
131.92
20
-84.78
11
131.42
21
-84.78
0
LINE
8
BLACK
6
CONTINUOUS
10
131.42
20
-84.78
11
131.42
21
-83.88
0
LINE
8
BLACK
6
CONTINUOUS
10
131.42
20
-83.88
11
131.92
21
-83.88
0
LINE
8
BLACK
6
CONTINUOUS
10
131.92
20
-83.88
11
131.92
21
-84.78
0
LINE
8
BLACK
6
CONTINUOUS
10
175.04
20
-84.13
11
174.54
21
-84.13
0
LINE
8
BLACK
6
CONTINUOUS
10
174.54
20
-84.13
11
174.54
21
-83.23
0
LINE
8
BLACK
6
CONTINUOUS
10
174.54
20
-83.23
11
175.04
21
-83.23
0
LINE
8
BLACK
6
CONTINUOUS
10
175.04
20
-83.23
11
175.04
21
-84.13
0
LINE
8
BLACK
6
CONTINUOUS
10
176.54
20
-84.13
11
176.04
21
-84.13
0
LINE
8
BLACK
6
CONTINUOUS
10
176.04
20
-84.13
11
176.04
21
-83.23
0
LINE
8
BLACK
6
CONTINUOUS
10
176.04
20
-83.23
11
176.54
21
-83.23
0
LINE
8
BLACK
6
CONTINUOUS
10
176.54
20
-83.23
11
176.54
21
-84.13
0
LINE
8
BLACK
6
CONTINUOUS
10
146.65
20
-83.46
11
145.75
21
-83.46
0
LINE
8
BLACK
6
CONTINUOUS
10
145.75
20
-83.46
11
145.75
21
-82.96
0
LINE
8
BLACK
6
CONTINUOUS
10
145.75
20
-82.96
11
146.65
21
-82.96
0
LINE
8
BLACK
6
CONTINUOUS
10
146.65
20
-82.96
11
146.65
21
-83.46
0
LINE
8
BLACK
6
CONTINUOUS
10
143.52
20
-83.46
11
142.62
21
-83.46
0
LINE
8
BLACK
6
CONTINUOUS
10
142.62
20
-83.46
11
142.62
21
-82.96
0
LINE
8
BLACK
6
CONTINUOUS
10
142.62
20
-82.96
11
143.52
21
-82.96
0
LINE
8
BLACK
6
CONTINUOUS
10
143.52
20
-82.96
11
143.52
21
-83.46
0
LINE
8
BLACK
6
CONTINUOUS
10
149.4
20
-83.46
11
148.5
21
-83.46
0
LINE
8
BLACK
6
CONTINUOUS
10
148.5
20
-83.46
11
148.5
21
-82.96
0
LINE
8
BLACK
6
CONTINUOUS
10
148.5
20
-82.96
11
149.4
21
-82.96
0
LINE
8
BLACK
6
CONTINUOUS
10
149.4
20
-82.96
11
149.4
21
-83.46
0
LINE
8
BLACK
6
CONTINUOUS
10
159.305
20
-82.995
11
157.755
21
-82.995
0
LINE
8
BLACK
6
CONTINUOUS
10
157.755
20
-82.995
11
157.755
21
-82.395
0
LINE
8
BLACK
6
CONTINUOUS
10
157.755
20
-82.395
11
159.305
21
-82.395
0
LINE
8
BLACK
6
CONTINUOUS
10
159.305
20
-82.395
11
159.305
21
-82.995
0
LINE
8
BLACK
6
CONTINUOUS
10
153.905
20
-82.995
11
152.355
21
-82.995
0
LINE
8
BLACK
6
CONTINUOUS
10
152.355
20
-82.995
11
152.355
21
-82.395
0
LINE
8
BLACK
6
CONTINUOUS
10
152.355
20
-82.395
11
153.905
21
-82.395
0
LINE
8
BLACK
6
CONTINUOUS
10
153.905
20
-82.395
11
153.905
21
-82.995
0
LINE
8
BLACK
6
CONTINUOUS
10
101.1
20
-82.935
11
100.04
21
-82.935
0
LINE
8
BLACK
6
CONTINUOUS
10
100.04
20
-82.935
11
100.04
21
-82.285
0
LINE
8
BLACK
6
CONTINUOUS
10
100.04
20
-82.285
11
101.1
21
-82.285
0
LINE
8
BLACK
6
CONTINUOUS
10
101.1
20
-82.285
11
101.1
21
-82.935
0
LINE
8
BLACK
6
CONTINUOUS
10
98.9
20
-82.935
11
97.84
21
-82.935
0
LINE
8
BLACK
6
CONTINUOUS
10
97.84
20
-82.935
11
97.84
21
-82.285
0
LINE
8
BLACK
6
CONTINUOUS
10
97.84
20
-82.285
11
98.9
21
-82.285
0
LINE
8
BLACK
6
CONTINUOUS
10
98.9
20
-82.285
11
98.9
21
-82.935
0
LINE
8
BLACK
6
CONTINUOUS
10
131.92
20
-82.69
11
131.42
21
-82.69
0
LINE
8
BLACK
6
CONTINUOUS
10
131.42
20
-82.69
11
131.42
21
-81.79
0
LINE
8
BLACK
6
CONTINUOUS
10
131.42
20
-81.79
11
131.92
21
-81.79
0
LINE
8
BLACK
6
CONTINUOUS
10
131.92
20
-81.79
11
131.92
21
-82.69
0
LINE
8
BLACK
6
CONTINUOUS
10
130.42
20
-82.69
11
129.92
21
-82.69
0
LINE
8
BLACK
6
CONTINUOUS
10
129.92
20
-82.69
11
129.92
21
-81.79
0
LINE
8
BLACK
6
CONTINUOUS
10
129.92
20
-81.79
11
130.42
21
-81.79
0
LINE
8
BLACK
6
CONTINUOUS
10
130.42
20
-81.79
11
130.42
21
-82.69
0
LINE
8
BLACK
6
CONTINUOUS
10
161.875
20
-82.675
11
160.975
21
-82.675
0
LINE
8
BLACK
6
CONTINUOUS
10
160.975
20
-82.675
11
160.975
21
-82.175
0
LINE
8
BLACK
6
CONTINUOUS
10
160.975
20
-82.175
11
161.875
21
-82.175
0
LINE
8
BLACK
6
CONTINUOUS
10
161.875
20
-82.175
11
161.875
21
-82.675
0
LINE
8
BLACK
6
CONTINUOUS
10
164.27
20
-82.67
11
163.37
21
-82.67
0
LINE
8
BLACK
6
CONTINUOUS
10
163.37
20
-82.67
11
163.37
21
-82.17
0
LINE
8
BLACK
6
CONTINUOUS
10
163.37
20
-82.17
11
164.27
21
-82.17
0
LINE
8
BLACK
6
CONTINUOUS
10
164.27
20
-82.17
11
164.27
21
-82.67
0
LINE
8
BLACK
6
CONTINUOUS
10
94.31
20
-82.475
11
93.51
21
-82.475
0
LINE
8
BLACK
6
CONTINUOUS
10
93.51
20
-82.475
11
93.51
21
-81.725
0
LINE
8
BLACK
6
CONTINUOUS
10
93.51
20
-81.725
11
94.31
21
-81.725
0
LINE
8
BLACK
6
CONTINUOUS
10
94.31
20
-81.725
11
94.31
21
-82.475
0
LINE
8
BLACK
6
CONTINUOUS
10
92.81
20
-82.475
11
92.01
21
-82.475
0
LINE
8
BLACK
6
CONTINUOUS
10
92.01
20
-82.475
11
92.01
21
-81.725
0
LINE
8
BLACK
6
CONTINUOUS
10
92.01
20
-81.725
11
92.81
21
-81.725
0
LINE
8
BLACK
6
CONTINUOUS
10
92.81
20
-81.725
11
92.81
21
-82.475
0
LINE
8
BLACK
6
CONTINUOUS
10
110.2
20
-82.16
11
107.65
21
-82.16
0
LINE
8
BLACK
6
CONTINUOUS
10
107.65
20
-82.16
11
107.65
21
-79.66
0
LINE
8
BLACK
6
CONTINUOUS
10
107.65
20
-79.66
11
110.2
21
-79.66
0
LINE
8
BLACK
6
CONTINUOUS
10
110.2
20
-79.66
11
110.2
21
-82.16
0
LINE
8
BLACK
6
CONTINUOUS
10
105.15
20
-82.16
11
102.6
21
-82.16
0
LINE
8
BLACK
6
CONTINUOUS
10
102.6
20
-82.16
11
102.6
21
-79.66
0
LINE
8
BLACK
6
CONTINUOUS
10
102.6
20
-79.66
11
105.15
21
-79.66
0
LINE
8
BLACK
6
CONTINUOUS
10
105.15
20
-79.66
11
105.15
21
-82.16
0
LINE
8
BLACK
6
CONTINUOUS
10
137.71
20
-82.005
11
136.91
21
-82.005
0
LINE
8
BLACK
6
CONTINUOUS
10
136.91
20
-82.005
11
136.91
21
-81.255
0
LINE
8
BLACK
6
CONTINUOUS
10
136.91
20
-81.255
11
137.71
21
-81.255
0
LINE
8
BLACK
6
CONTINUOUS
10
137.71
20
-81.255
11
137.71
21
-82.005
0
LINE
8
BLACK
6
CONTINUOUS
10
139.21
20
-82.005
11
138.41
21
-82.005
0
LINE
8
BLACK
6
CONTINUOUS
10
138.41
20
-82.005
11
138.41
21
-81.255
0
LINE
8
BLACK
6
CONTINUOUS
10
138.41
20
-81.255
11
139.21
21
-81.255
0
LINE
8
BLACK
6
CONTINUOUS
10
139.21
20
-81.255
11
139.21
21
-82.005
0
LINE
8
BLACK
6
CONTINUOUS
10
101.1
20
-81.985
11
100.04
21
-81.985
0
LINE
8
BLACK
6
CONTINUOUS
10
100.04
20
-81.985
11
100.04
21
-81.335
0
LINE
8
BLACK
6
CONTINUOUS
10
100.04
20
-81.335
11
101.1
21
-81.335
0
LINE
8
BLACK
6
CONTINUOUS
10
101.1
20
-81.335
11
101.1
21
-81.985
0
LINE
8
BLACK
6
CONTINUOUS
10
98.9
20
-81.985
11
97.84
21
-81.985
0
LINE
8
BLACK
6
CONTINUOUS
10
97.84
20
-81.985
11
97.84
21
-81.335
0
LINE
8
BLACK
6
CONTINUOUS
10
97.84
20
-81.335
11
98.9
21
-81.335
0
LINE
8
BLACK
6
CONTINUOUS
10
98.9
20
-81.335
11
98.9
21
-81.985
0
LINE
8
BLACK
6
CONTINUOUS
10
146.65
20
-81.96
11
145.75
21
-81.96
0
LINE
8
BLACK
6
CONTINUOUS
10
145.75
20
-81.96
11
145.75
21
-81.46
0
LINE
8
BLACK
6
CONTINUOUS
10
145.75
20
-81.46
11
146.65
21
-81.46
0
LINE
8
BLACK
6
CONTINUOUS
10
146.65
20
-81.46
11
146.65
21
-81.96
0
LINE
8
BLACK
6
CONTINUOUS
10
149.4
20
-81.96
11
148.5
21
-81.96
0
LINE
8
BLACK
6
CONTINUOUS
10
148.5
20
-81.96
11
148.5
21
-81.46
0
LINE
8
BLACK
6
CONTINUOUS
10
148.5
20
-81.46
11
149.4
21
-81.46
0
LINE
8
BLACK
6
CONTINUOUS
10
149.4
20
-81.46
11
149.4
21
-81.96
0
LINE
8
BLACK
6
CONTINUOUS
10
143.52
20
-81.96
11
142.62
21
-81.96
0
LINE
8
BLACK
6
CONTINUOUS
10
142.62
20
-81.96
11
142.62
21
-81.46
0
LINE
8
BLACK
6
CONTINUOUS
10
142.62
20
-81.46
11
143.52
21
-81.46
0
LINE
8
BLACK
6
CONTINUOUS
10
143.52
20
-81.46
11
143.52
21
-81.96
0
LINE
8
BLACK
6
CONTINUOUS
10
121.74
20
-81.73
11
120.04
21
-81.73
0
LINE
8
BLACK
6
CONTINUOUS
10
120.04
20
-81.73
11
120.04
21
-80.43
0
LINE
8
BLACK
6
CONTINUOUS
10
120.04
20
-80.43
11
121.74
21
-80.43
0
LINE
8
BLACK
6
CONTINUOUS
10
121.74
20
-80.43
11
121.74
21
-81.73
0
LINE
8
BLACK
6
CONTINUOUS
10
153.905
20
-81.725
11
152.355
21
-81.725
0
LINE
8
BLACK
6
CONTINUOUS
10
152.355
20
-81.725
11
152.355
21
-81.125
0
LINE
8
BLACK
6
CONTINUOUS
10
152.355
20
-81.125
11
153.905
21
-81.125
0
LINE
8
BLACK
6
CONTINUOUS
10
153.905
20
-81.125
11
153.905
21
-81.725
0
LINE
8
BLACK
6
CONTINUOUS
10
159.305
20
-81.725
11
157.755
21
-81.725
0
LINE
8
BLACK
6
CONTINUOUS
10
157.755
20
-81.725
11
157.755
21
-81.125
0
LINE
8
BLACK
6
CONTINUOUS
10
157.755
20
-81.125
11
159.305
21
-81.125
0
LINE
8
BLACK
6
CONTINUOUS
10
159.305
20
-81.125
11
159.305
21
-81.725
0
LINE
8
BLACK
6
CONTINUOUS
10
176.54
20
-81.63
11
176.04
21
-81.63
0
LINE
8
BLACK
6
CONTINUOUS
10
176.04
20
-81.63
11
176.04
21
-80.73
0
LINE
8
BLACK
6
CONTINUOUS
10
176.04
20
-80.73
11
176.54
21
-80.73
0
LINE
8
BLACK
6
CONTINUOUS
10
176.54
20
-80.73
11
176.54
21
-81.63
0
LINE
8
BLACK
6
CONTINUOUS
10
175.04
20
-81.63
11
174.54
21
-81.63
0
LINE
8
BLACK
6
CONTINUOUS
10
174.54
20
-81.63
11
174.54
21
-80.73
0
LINE
8
BLACK
6
CONTINUOUS
10
174.54
20
-80.73
11
175.04
21
-80.73
0
LINE
8
BLACK
6
CONTINUOUS
10
175.04
20
-80.73
11
175.04
21
-81.63
0
LINE
8
BLACK
6
CONTINUOUS
10
161.875
20
-81.175
11
160.975
21
-81.175
0
LINE
8
BLACK
6
CONTINUOUS
10
160.975
20
-81.175
11
160.975
21
-80.675
0
LINE
8
BLACK
6
CONTINUOUS
10
160.975
20
-80.675
11
161.875
21
-80.675
0
LINE
8
BLACK
6
CONTINUOUS
10
161.875
20
-80.675
11
161.875
21
-81.175
0
LINE
8
BLACK
6
CONTINUOUS
10
164.27
20
-81.17
11
163.37
21
-81.17
0
LINE
8
BLACK
6
CONTINUOUS
10
163.37
20
-81.17
11
163.37
21
-80.67
0
LINE
8
BLACK
6
CONTINUOUS
10
163.37
20
-80.67
11
164.27
21
-80.67
0
LINE
8
BLACK
6
CONTINUOUS
10
164.27
20
-80.67
11
164.27
21
-81.17
0
LINE
8
BLACK
6
CONTINUOUS
10
98.9
20
-81.035
11
97.84
21
-81.035
0
LINE
8
BLACK
6
CONTINUOUS
10
97.84
20
-81.035
11
97.84
21
-80.385
0
LINE
8
BLACK
6
CONTINUOUS
10
97.84
20
-80.385
11
98.9
21
-80.385
0
LINE
8
BLACK
6
CONTINUOUS
10
98.9
20
-80.385
11
98.9
21
-81.035
0
LINE
8
BLACK
6
CONTINUOUS
10
101.1
20
-81.035
11
100.04
21
-81.035
0
LINE
8
BLACK
6
CONTINUOUS
10
100.04
20
-81.035
11
100.04
21
-80.385
0
LINE
8
BLACK
6
CONTINUOUS
10
100.04
20
-80.385
11
101.1
21
-80.385
0
LINE
8
BLACK
6
CONTINUOUS
10
101.1
20
-80.385
11
101.1
21
-81.035
0
LINE
8
BLACK
6
CONTINUOUS
10
153.905
20
-80.455
11
152.355
21
-80.455
0
LINE
8
BLACK
6
CONTINUOUS
10
152.355
20
-80.455
11
152.355
21
-79.855
0
LINE
8
BLACK
6
CONTINUOUS
10
152.355
20
-79.855
11
153.905
21
-79.855
0
LINE
8
BLACK
6
CONTINUOUS
10
153.905
20
-79.855
11
153.905
21
-80.455
0
LINE
8
BLACK
6
CONTINUOUS
10
159.305
20
-80.455
11
157.755
21
-80.455
0
LINE
8
BLACK
6
CONTINUOUS
10
157.755
20
-80.455
11
157.755
21
-79.855
0
LINE
8
BLACK
6
CONTINUOUS
10
157.755
20
-79.855
11
159.305
21
-79.855
0
LINE
8
BLACK
6
CONTINUOUS
10
159.305
20
-79.855
11
159.305
21
-80.455
0
LINE
8
BLACK
6
CONTINUOUS
10
132.59
20
-80.41
11
130.59
21
-80.41
0
LINE
8
BLACK
6
CONTINUOUS
10
130.59
20
-80.41
11
130.59
21
-78.01
0
LINE
8
BLACK
6
CONTINUOUS
10
130.59
20
-78.01
11
132.59
21
-78.01
0
LINE
8
BLACK
6
CONTINUOUS
10
132.59
20
-78.01
11
132.59
21
-80.41
0
LINE
8
BLACK
6
CONTINUOUS
10
136.29
20
-80.41
11
134.29
21
-80.41
0
LINE
8
BLACK
6
CONTINUOUS
10
134.29
20
-80.41
11
134.29
21
-78.01
0
LINE
8
BLACK
6
CONTINUOUS
10
134.29
20
-78.01
11
136.29
21
-78.01
0
LINE
8
BLACK
6
CONTINUOUS
10
136.29
20
-78.01
11
136.29
21
-80.41
0
LINE
8
BLACK
6
CONTINUOUS
10
149.47
20
-80.34
11
148.57
21
-80.34
0
LINE
8
BLACK
6
CONTINUOUS
10
148.57
20
-80.34
11
148.57
21
-79.84
0
LINE
8
BLACK
6
CONTINUOUS
10
148.57
20
-79.84
11
149.47
21
-79.84
0
LINE
8
BLACK
6
CONTINUOUS
10
149.47
20
-79.84
11
149.47
21
-80.34
0
LINE
8
BLACK
6
CONTINUOUS
10
146.66
20
-80.34
11
145.76
21
-80.34
0
LINE
8
BLACK
6
CONTINUOUS
10
145.76
20
-80.34
11
145.76
21
-79.84
0
LINE
8
BLACK
6
CONTINUOUS
10
145.76
20
-79.84
11
146.66
21
-79.84
0
LINE
8
BLACK
6
CONTINUOUS
10
146.66
20
-79.84
11
146.66
21
-80.34
0
LINE
8
BLACK
6
CONTINUOUS
10
143.52
20
-80.34
11
142.62
21
-80.34
0
LINE
8
BLACK
6
CONTINUOUS
10
142.62
20
-80.34
11
142.62
21
-79.84
0
LINE
8
BLACK
6
CONTINUOUS
10
142.62
20
-79.84
11
143.52
21
-79.84
0
LINE
8
BLACK
6
CONTINUOUS
10
143.52
20
-79.84
11
143.52
21
-80.34
0
LINE
8
BLACK
6
CONTINUOUS
10
116.73
20
-79.67
11
116.23
21
-79.67
0
LINE
8
BLACK
6
CONTINUOUS
10
116.23
20
-79.67
11
116.23
21
-78.77
0
LINE
8
BLACK
6
CONTINUOUS
10
116.23
20
-78.77
11
116.73
21
-78.77
0
LINE
8
BLACK
6
CONTINUOUS
10
116.73
20
-78.77
11
116.73
21
-79.67
0
LINE
8
BLACK
6
CONTINUOUS
10
118.23
20
-79.67
11
117.73
21
-79.67
0
LINE
8
BLACK
6
CONTINUOUS
10
117.73
20
-79.67
11
117.73
21
-78.77
0
LINE
8
BLACK
6
CONTINUOUS
10
117.73
20
-78.77
11
118.23
21
-78.77
0
LINE
8
BLACK
6
CONTINUOUS
10
118.23
20
-78.77
11
118.23
21
-79.67
0
LINE
8
BLACK
6
CONTINUOUS
10
113.92
20
-79.66
11
113.42
21
-79.66
0
LINE
8
BLACK
6
CONTINUOUS
10
113.42
20
-79.66
11
113.42
21
-78.76
0
LINE
8
BLACK
6
CONTINUOUS
10
113.42
20
-78.76
11
113.92
21
-78.76
0
LINE
8
BLACK
6
CONTINUOUS
10
113.92
20
-78.76
11
113.92
21
-79.66
0
LINE
8
BLACK
6
CONTINUOUS
10
112.42
20
-79.66
11
111.92
21
-79.66
0
LINE
8
BLACK
6
CONTINUOUS
10
111.92
20
-79.66
11
111.92
21
-78.76
0
LINE
8
BLACK
6
CONTINUOUS
10
111.92
20
-78.76
11
112.42
21
-78.76
0
LINE
8
BLACK
6
CONTINUOUS
10
112.42
20
-78.76
11
112.42
21
-79.66
0
LINE
8
BLACK
6
CONTINUOUS
10
159.305
20
-79.185
11
157.755
21
-79.185
0
LINE
8
BLACK
6
CONTINUOUS
10
157.755
20
-79.185
11
157.755
21
-78.585
0
LINE
8
BLACK
6
CONTINUOUS
10
157.755
20
-78.585
11
159.305
21
-78.585
0
LINE
8
BLACK
6
CONTINUOUS
10
159.305
20
-78.585
11
159.305
21
-79.185
0
LINE
8
BLACK
6
CONTINUOUS
10
153.905
20
-79.185
11
152.355
21
-79.185
0
LINE
8
BLACK
6
CONTINUOUS
10
152.355
20
-79.185
11
152.355
21
-78.585
0
LINE
8
BLACK
6
CONTINUOUS
10
152.355
20
-78.585
11
153.905
21
-78.585
0
LINE
8
BLACK
6
CONTINUOUS
10
153.905
20
-78.585
11
153.905
21
-79.185
0
LINE
8
BLACK
6
CONTINUOUS
10
146.66
20
-78.84
11
145.76
21
-78.84
0
LINE
8
BLACK
6
CONTINUOUS
10
145.76
20
-78.84
11
145.76
21
-78.34
0
LINE
8
BLACK
6
CONTINUOUS
10
145.76
20
-78.34
11
146.66
21
-78.34
0
LINE
8
BLACK
6
CONTINUOUS
10
146.66
20
-78.34
11
146.66
21
-78.84
0
LINE
8
BLACK
6
CONTINUOUS
10
149.47
20
-78.84
11
148.57
21
-78.84
0
LINE
8
BLACK
6
CONTINUOUS
10
148.57
20
-78.84
11
148.57
21
-78.34
0
LINE
8
BLACK
6
CONTINUOUS
10
148.57
20
-78.34
11
149.47
21
-78.34
0
LINE
8
BLACK
6
CONTINUOUS
10
149.47
20
-78.34
11
149.47
21
-78.84
0
LINE
8
BLACK
6
CONTINUOUS
10
143.52
20
-78.84
11
142.62
21
-78.84
0
LINE
8
BLACK
6
CONTINUOUS
10
142.62
20
-78.84
11
142.62
21
-78.34
0
LINE
8
BLACK
6
CONTINUOUS
10
142.62
20
-78.34
11
143.52
21
-78.34
0
LINE
8
BLACK
6
CONTINUOUS
10
143.52
20
-78.34
11
143.52
21
-78.84
0
LINE
8
BLACK
6
CONTINUOUS
10
121.71
20
-78.78
11
120.81
21
-78.78
0
LINE
8
BLACK
6
CONTINUOUS
10
120.81
20
-78.78
11
120.81
21
-77.98
0
LINE
8
BLACK
6
CONTINUOUS
10
120.81
20
-77.98
11
121.71
21
-77.98
0
LINE
8
BLACK
6
CONTINUOUS
10
121.71
20
-77.98
11
121.71
21
-78.78
0
LINE
8
BLACK
6
CONTINUOUS
10
175.22
20
-78.19
11
174.32
21
-78.19
0
LINE
8
BLACK
6
CONTINUOUS
10
174.32
20
-78.19
11
174.32
21
-77.39
0
LINE
8
BLACK
6
CONTINUOUS
10
174.32
20
-77.39
11
175.22
21
-77.39
0
LINE
8
BLACK
6
CONTINUOUS
10
175.22
20
-77.39
11
175.22
21
-78.19
0
LINE
8
BLACK
6
CONTINUOUS
10
119.71
20
-77.83
11
118.81
21
-77.83
0
LINE
8
BLACK
6
CONTINUOUS
10
118.81
20
-77.83
11
118.81
21
-77.03
0
LINE
8
BLACK
6
CONTINUOUS
10
118.81
20
-77.03
11
119.71
21
-77.03
0
LINE
8
BLACK
6
CONTINUOUS
10
119.71
20
-77.03
11
119.71
21
-77.83
0
LINE
8
BLACK
6
CONTINUOUS
10
177.22
20
-77.24
11
176.32
21
-77.24
0
LINE
8
BLACK
6
CONTINUOUS
10
176.32
20
-77.24
11
176.32
21
-76.44
0
LINE
8
BLACK
6
CONTINUOUS
10
176.32
20
-76.44
11
177.22
21
-76.44
0
LINE
8
BLACK
6
CONTINUOUS
10
177.22
20
-76.44
11
177.22
21
-77.24
0
LINE
8
BLACK
6
CONTINUOUS
10
105.03
20
-77.225
11
104.73
21
-77.225
0
LINE
8
BLACK
6
CONTINUOUS
10
104.73
20
-77.225
11
104.73
21
-76.375
0
LINE
8
BLACK
6
CONTINUOUS
10
104.73
20
-76.375
11
105.03
21
-76.375
0
LINE
8
BLACK
6
CONTINUOUS
10
105.03
20
-76.375
11
105.03
21
-77.225
0
LINE
8
BLACK
6
CONTINUOUS
10
104.53
20
-77.225
11
104.23
21
-77.225
0
LINE
8
BLACK
6
CONTINUOUS
10
104.23
20
-77.225
11
104.23
21
-76.375
0
LINE
8
BLACK
6
CONTINUOUS
10
104.23
20
-76.375
11
104.53
21
-76.375
0
LINE
8
BLACK
6
CONTINUOUS
10
104.53
20
-76.375
11
104.53
21
-77.225
0
LINE
8
BLACK
6
CONTINUOUS
10
103.53
20
-77.225
11
103.23
21
-77.225
0
LINE
8
BLACK
6
CONTINUOUS
10
103.23
20
-77.225
11
103.23
21
-76.375
0
LINE
8
BLACK
6
CONTINUOUS
10
103.23
20
-76.375
11
103.53
21
-76.375
0
LINE
8
BLACK
6
CONTINUOUS
10
103.53
20
-76.375
11
103.53
21
-77.225
0
LINE
8
BLACK
6
CONTINUOUS
10
104.03
20
-77.225
11
103.73
21
-77.225
0
LINE
8
BLACK
6
CONTINUOUS
10
103.73
20
-77.225
11
103.73
21
-76.375
0
LINE
8
BLACK
6
CONTINUOUS
10
103.73
20
-76.375
11
104.03
21
-76.375
0
LINE
8
BLACK
6
CONTINUOUS
10
104.03
20
-76.375
11
104.03
21
-77.225
0
LINE
8
BLACK
6
CONTINUOUS
10
103.03
20
-77.225
11
102.73
21
-77.225
0
LINE
8
BLACK
6
CONTINUOUS
10
102.73
20
-77.225
11
102.73
21
-76.375
0
LINE
8
BLACK
6
CONTINUOUS
10
102.73
20
-76.375
11
103.03
21
-76.375
0
LINE
8
BLACK
6
CONTINUOUS
10
103.03
20
-76.375
11
103.03
21
-77.225
0
LINE
8
BLACK
6
CONTINUOUS
10
105.53
20
-77.225
11
105.23
21
-77.225
0
LINE
8
BLACK
6
CONTINUOUS
10
105.23
20
-77.225
11
105.23
21
-76.375
0
LINE
8
BLACK
6
CONTINUOUS
10
105.23
20
-76.375
11
105.53
21
-76.375
0
LINE
8
BLACK
6
CONTINUOUS
10
105.53
20
-76.375
11
105.53
21
-77.225
0
LINE
8
BLACK
6
CONTINUOUS
10
165.6
20
-77.18
11
165.1
21
-77.18
0
LINE
8
BLACK
6
CONTINUOUS
10
165.1
20
-77.18
11
165.1
21
-76.28
0
LINE
8
BLACK
6
CONTINUOUS
10
165.1
20
-76.28
11
165.6
21
-76.28
0
LINE
8
BLACK
6
CONTINUOUS
10
165.6
20
-76.28
11
165.6
21
-77.18
0
LINE
8
BLACK
6
CONTINUOUS
10
167.1
20
-77.18
11
166.6
21
-77.18
0
LINE
8
BLACK
6
CONTINUOUS
10
166.6
20
-77.18
11
166.6
21
-76.28
0
LINE
8
BLACK
6
CONTINUOUS
10
166.6
20
-76.28
11
167.1
21
-76.28
0
LINE
8
BLACK
6
CONTINUOUS
10
167.1
20
-76.28
11
167.1
21
-77.18
0
LINE
8
BLACK
6
CONTINUOUS
10
162.21
20
-77.105
11
161.41
21
-77.105
0
LINE
8
BLACK
6
CONTINUOUS
10
161.41
20
-77.105
11
161.41
21
-76.355
0
LINE
8
BLACK
6
CONTINUOUS
10
161.41
20
-76.355
11
162.21
21
-76.355
0
LINE
8
BLACK
6
CONTINUOUS
10
162.21
20
-76.355
11
162.21
21
-77.105
0
LINE
8
BLACK
6
CONTINUOUS
10
163.71
20
-77.105
11
162.91
21
-77.105
0
LINE
8
BLACK
6
CONTINUOUS
10
162.91
20
-77.105
11
162.91
21
-76.355
0
LINE
8
BLACK
6
CONTINUOUS
10
162.91
20
-76.355
11
163.71
21
-76.355
0
LINE
8
BLACK
6
CONTINUOUS
10
163.71
20
-76.355
11
163.71
21
-77.105
0
LINE
8
BLACK
6
CONTINUOUS
10
158.73
20
-77.095
11
157.93
21
-77.095
0
LINE
8
BLACK
6
CONTINUOUS
10
157.93
20
-77.095
11
157.93
21
-76.345
0
LINE
8
BLACK
6
CONTINUOUS
10
157.93
20
-76.345
11
158.73
21
-76.345
0
LINE
8
BLACK
6
CONTINUOUS
10
158.73
20
-76.345
11
158.73
21
-77.095
0
LINE
8
BLACK
6
CONTINUOUS
10
160.23
20
-77.095
11
159.43
21
-77.095
0
LINE
8
BLACK
6
CONTINUOUS
10
159.43
20
-77.095
11
159.43
21
-76.345
0
LINE
8
BLACK
6
CONTINUOUS
10
159.43
20
-76.345
11
160.23
21
-76.345
0
LINE
8
BLACK
6
CONTINUOUS
10
160.23
20
-76.345
11
160.23
21
-77.095
0
LINE
8
BLACK
6
CONTINUOUS
10
111.2
20
-77
11
108.7
21
-77
0
LINE
8
BLACK
6
CONTINUOUS
10
108.7
20
-77
11
108.7
21
-74.45
0
LINE
8
BLACK
6
CONTINUOUS
10
108.7
20
-74.45
11
111.2
21
-74.45
0
LINE
8
BLACK
6
CONTINUOUS
10
111.2
20
-74.45
11
111.2
21
-77
0
LINE
8
BLACK
6
CONTINUOUS
10
116.6
20
-76.9
11
114.1
21
-76.9
0
LINE
8
BLACK
6
CONTINUOUS
10
114.1
20
-76.9
11
114.1
21
-74.95
0
LINE
8
BLACK
6
CONTINUOUS
10
114.1
20
-74.95
11
116.6
21
-74.95
0
LINE
8
BLACK
6
CONTINUOUS
10
116.6
20
-74.95
11
116.6
21
-76.9
0
LINE
8
BLACK
6
CONTINUOUS
10
121.71
20
-76.88
11
120.81
21
-76.88
0
LINE
8
BLACK
6
CONTINUOUS
10
120.81
20
-76.88
11
120.81
21
-76.08
0
LINE
8
BLACK
6
CONTINUOUS
10
120.81
20
-76.08
11
121.71
21
-76.08
0
LINE
8
BLACK
6
CONTINUOUS
10
121.71
20
-76.08
11
121.71
21
-76.88
0
LINE
8
BLACK
6
CONTINUOUS
10
131.975
20
-76.84
11
131.225
21
-76.84
0
LINE
8
BLACK
6
CONTINUOUS
10
131.225
20
-76.84
11
131.225
21
-76.04
0
LINE
8
BLACK
6
CONTINUOUS
10
131.225
20
-76.04
11
131.975
21
-76.04
0
LINE
8
BLACK
6
CONTINUOUS
10
131.975
20
-76.04
11
131.975
21
-76.84
0
LINE
8
BLACK
6
CONTINUOUS
10
135.665
20
-76.84
11
134.915
21
-76.84
0
LINE
8
BLACK
6
CONTINUOUS
10
134.915
20
-76.84
11
134.915
21
-76.04
0
LINE
8
BLACK
6
CONTINUOUS
10
134.915
20
-76.04
11
135.665
21
-76.04
0
LINE
8
BLACK
6
CONTINUOUS
10
135.665
20
-76.04
11
135.665
21
-76.84
0
LINE
8
BLACK
6
CONTINUOUS
10
146.66
20
-76.77
11
145.76
21
-76.77
0
LINE
8
BLACK
6
CONTINUOUS
10
145.76
20
-76.77
11
145.76
21
-76.27
0
LINE
8
BLACK
6
CONTINUOUS
10
145.76
20
-76.27
11
146.66
21
-76.27
0
LINE
8
BLACK
6
CONTINUOUS
10
146.66
20
-76.27
11
146.66
21
-76.77
0
LINE
8
BLACK
6
CONTINUOUS
10
143.48
20
-76.77
11
142.58
21
-76.77
0
LINE
8
BLACK
6
CONTINUOUS
10
142.58
20
-76.77
11
142.58
21
-76.27
0
LINE
8
BLACK
6
CONTINUOUS
10
142.58
20
-76.27
11
143.48
21
-76.27
0
LINE
8
BLACK
6
CONTINUOUS
10
143.48
20
-76.27
11
143.48
21
-76.77
0
LINE
8
BLACK
6
CONTINUOUS
10
149.5
20
-76.77
11
148.6
21
-76.77
0
LINE
8
BLACK
6
CONTINUOUS
10
148.6
20
-76.77
11
148.6
21
-76.27
0
LINE
8
BLACK
6
CONTINUOUS
10
148.6
20
-76.27
11
149.5
21
-76.27
0
LINE
8
BLACK
6
CONTINUOUS
10
149.5
20
-76.27
11
149.5
21
-76.77
0
LINE
8
BLACK
6
CONTINUOUS
10
140.21
20
-76.75
11
139.31
21
-76.75
0
LINE
8
BLACK
6
CONTINUOUS
10
139.31
20
-76.75
11
139.31
21
-76.25
0
LINE
8
BLACK
6
CONTINUOUS
10
139.31
20
-76.25
11
140.21
21
-76.25
0
LINE
8
BLACK
6
CONTINUOUS
10
140.21
20
-76.25
11
140.21
21
-76.75
0
LINE
8
BLACK
6
CONTINUOUS
10
100.7
20
-76.65
11
99.7
21
-76.65
0
LINE
8
BLACK
6
CONTINUOUS
10
99.7
20
-76.65
11
99.7
21
-75.25
0
LINE
8
BLACK
6
CONTINUOUS
10
99.7
20
-75.25
11
100.7
21
-75.25
0
LINE
8
BLACK
6
CONTINUOUS
10
100.7
20
-75.25
11
100.7
21
-76.65
0
LINE
8
BLACK
6
CONTINUOUS
10
98.8
20
-76.65
11
97.8
21
-76.65
0
LINE
8
BLACK
6
CONTINUOUS
10
97.8
20
-76.65
11
97.8
21
-75.25
0
LINE
8
BLACK
6
CONTINUOUS
10
97.8
20
-75.25
11
98.8
21
-75.25
0
LINE
8
BLACK
6
CONTINUOUS
10
98.8
20
-75.25
11
98.8
21
-76.65
0
LINE
8
BLACK
6
CONTINUOUS
10
96.5
20
-76.35
11
94.7
21
-76.35
0
LINE
8
BLACK
6
CONTINUOUS
10
94.7
20
-76.35
11
94.7
21
-75.95
0
LINE
8
BLACK
6
CONTINUOUS
10
94.7
20
-75.95
11
96.5
21
-75.95
0
LINE
8
BLACK
6
CONTINUOUS
10
96.5
20
-75.95
11
96.5
21
-76.35
0
LINE
8
BLACK
6
CONTINUOUS
10
175.22
20
-76.29
11
174.32
21
-76.29
0
LINE
8
BLACK
6
CONTINUOUS
10
174.32
20
-76.29
11
174.32
21
-75.49
0
LINE
8
BLACK
6
CONTINUOUS
10
174.32
20
-75.49
11
175.22
21
-75.49
0
LINE
8
BLACK
6
CONTINUOUS
10
175.22
20
-75.49
11
175.22
21
-76.29
0
LINE
8
BLACK
6
CONTINUOUS
10
102.605
20
-76.25
11
101.755
21
-76.25
0
LINE
8
BLACK
6
CONTINUOUS
10
101.755
20
-76.25
11
101.755
21
-75.95
0
LINE
8
BLACK
6
CONTINUOUS
10
101.755
20
-75.95
11
102.605
21
-75.95
0
LINE
8
BLACK
6
CONTINUOUS
10
102.605
20
-75.95
11
102.605
21
-76.25
0
LINE
8
BLACK
6
CONTINUOUS
10
106.505
20
-76.25
11
105.655
21
-76.25
0
LINE
8
BLACK
6
CONTINUOUS
10
105.655
20
-76.25
11
105.655
21
-75.95
0
LINE
8
BLACK
6
CONTINUOUS
10
105.655
20
-75.95
11
106.505
21
-75.95
0
LINE
8
BLACK
6
CONTINUOUS
10
106.505
20
-75.95
11
106.505
21
-76.25
0
LINE
8
BLACK
6
CONTINUOUS
10
105.03
20
-75.75
11
103.23
21
-75.75
0
LINE
8
BLACK
6
CONTINUOUS
10
103.23
20
-75.75
11
103.23
21
-73.95
0
LINE
8
BLACK
6
CONTINUOUS
10
103.23
20
-73.95
11
105.03
21
-73.95
0
LINE
8
BLACK
6
CONTINUOUS
10
105.03
20
-73.95
11
105.03
21
-75.75
0
LINE
8
BLACK
6
CONTINUOUS
10
102.605
20
-75.75
11
101.755
21
-75.75
0
LINE
8
BLACK
6
CONTINUOUS
10
101.755
20
-75.75
11
101.755
21
-75.45
0
LINE
8
BLACK
6
CONTINUOUS
10
101.755
20
-75.45
11
102.605
21
-75.45
0
LINE
8
BLACK
6
CONTINUOUS
10
102.605
20
-75.45
11
102.605
21
-75.75
0
LINE
8
BLACK
6
CONTINUOUS
10
106.505
20
-75.75
11
105.655
21
-75.75
0
LINE
8
BLACK
6
CONTINUOUS
10
105.655
20
-75.75
11
105.655
21
-75.45
0
LINE
8
BLACK
6
CONTINUOUS
10
105.655
20
-75.45
11
106.505
21
-75.45
0
LINE
8
BLACK
6
CONTINUOUS
10
106.505
20
-75.45
11
106.505
21
-75.75
0
LINE
8
BLACK
6
CONTINUOUS
10
96.5
20
-75.7
11
94.7
21
-75.7
0
LINE
8
BLACK
6
CONTINUOUS
10
94.7
20
-75.7
11
94.7
21
-75.3
0
LINE
8
BLACK
6
CONTINUOUS
10
94.7
20
-75.3
11
96.5
21
-75.3
0
LINE
8
BLACK
6
CONTINUOUS
10
96.5
20
-75.3
11
96.5
21
-75.7
0
LINE
8
BLACK
6
CONTINUOUS
10
135.665
20
-75.34
11
134.915
21
-75.34
0
LINE
8
BLACK
6
CONTINUOUS
10
134.915
20
-75.34
11
134.915
21
-74.54
0
LINE
8
BLACK
6
CONTINUOUS
10
134.915
20
-74.54
11
135.665
21
-74.54
0
LINE
8
BLACK
6
CONTINUOUS
10
135.665
20
-74.54
11
135.665
21
-75.34
0
LINE
8
BLACK
6
CONTINUOUS
10
131.975
20
-75.34
11
131.225
21
-75.34
0
LINE
8
BLACK
6
CONTINUOUS
10
131.225
20
-75.34
11
131.225
21
-74.54
0
LINE
8
BLACK
6
CONTINUOUS
10
131.225
20
-74.54
11
131.975
21
-74.54
0
LINE
8
BLACK
6
CONTINUOUS
10
131.975
20
-74.54
11
131.975
21
-75.34
0
LINE
8
BLACK
6
CONTINUOUS
10
146.66
20
-75.27
11
145.76
21
-75.27
0
LINE
8
BLACK
6
CONTINUOUS
10
145.76
20
-75.27
11
145.76
21
-74.77
0
LINE
8
BLACK
6
CONTINUOUS
10
145.76
20
-74.77
11
146.66
21
-74.77
0
LINE
8
BLACK
6
CONTINUOUS
10
146.66
20
-74.77
11
146.66
21
-75.27
0
LINE
8
BLACK
6
CONTINUOUS
10
149.5
20
-75.27
11
148.6
21
-75.27
0
LINE
8
BLACK
6
CONTINUOUS
10
148.6
20
-75.27
11
148.6
21
-74.77
0
LINE
8
BLACK
6
CONTINUOUS
10
148.6
20
-74.77
11
149.5
21
-74.77
0
LINE
8
BLACK
6
CONTINUOUS
10
149.5
20
-74.77
11
149.5
21
-75.27
0
LINE
8
BLACK
6
CONTINUOUS
10
143.48
20
-75.27
11
142.58
21
-75.27
0
LINE
8
BLACK
6
CONTINUOUS
10
142.58
20
-75.27
11
142.58
21
-74.77
0
LINE
8
BLACK
6
CONTINUOUS
10
142.58
20
-74.77
11
143.48
21
-74.77
0
LINE
8
BLACK
6
CONTINUOUS
10
143.48
20
-74.77
11
143.48
21
-75.27
0
LINE
8
BLACK
6
CONTINUOUS
10
106.505
20
-75.25
11
105.655
21
-75.25
0
LINE
8
BLACK
6
CONTINUOUS
10
105.655
20
-75.25
11
105.655
21
-74.95
0
LINE
8
BLACK
6
CONTINUOUS
10
105.655
20
-74.95
11
106.505
21
-74.95
0
LINE
8
BLACK
6
CONTINUOUS
10
106.505
20
-74.95
11
106.505
21
-75.25
0
LINE
8
BLACK
6
CONTINUOUS
10
140.21
20
-75.25
11
139.31
21
-75.25
0
LINE
8
BLACK
6
CONTINUOUS
10
139.31
20
-75.25
11
139.31
21
-74.75
0
LINE
8
BLACK
6
CONTINUOUS
10
139.31
20
-74.75
11
140.21
21
-74.75
0
LINE
8
BLACK
6
CONTINUOUS
10
140.21
20
-74.75
11
140.21
21
-75.25
0
LINE
8
BLACK
6
CONTINUOUS
10
102.605
20
-75.25
11
101.755
21
-75.25
0
LINE
8
BLACK
6
CONTINUOUS
10
101.755
20
-75.25
11
101.755
21
-74.95
0
LINE
8
BLACK
6
CONTINUOUS
10
101.755
20
-74.95
11
102.605
21
-74.95
0
LINE
8
BLACK
6
CONTINUOUS
10
102.605
20
-74.95
11
102.605
21
-75.25
0
LINE
8
BLACK
6
CONTINUOUS
10
96.5
20
-75.05
11
94.7
21
-75.05
0
LINE
8
BLACK
6
CONTINUOUS
10
94.7
20
-75.05
11
94.7
21
-74.65
0
LINE
8
BLACK
6
CONTINUOUS
10
94.7
20
-74.65
11
96.5
21
-74.65
0
LINE
8
BLACK
6
CONTINUOUS
10
96.5
20
-74.65
11
96.5
21
-75.05
0
LINE
8
BLACK
6
CONTINUOUS
10
106.505
20
-74.75
11
105.655
21
-74.75
0
LINE
8
BLACK
6
CONTINUOUS
10
105.655
20
-74.75
11
105.655
21
-74.45
0
LINE
8
BLACK
6
CONTINUOUS
10
105.655
20
-74.45
11
106.505
21
-74.45
0
LINE
8
BLACK
6
CONTINUOUS
10
106.505
20
-74.45
11
106.505
21
-74.75
0
LINE
8
BLACK
6
CONTINUOUS
10
102.605
20
-74.75
11
101.755
21
-74.75
0
LINE
8
BLACK
6
CONTINUOUS
10
101.755
20
-74.75
11
101.755
21
-74.45
0
LINE
8
BLACK
6
CONTINUOUS
10
101.755
20
-74.45
11
102.605
21
-74.45
0
LINE
8
BLACK
6
CONTINUOUS
10
102.605
20
-74.45
11
102.605
21
-74.75
0
LINE
8
BLACK
6
CONTINUOUS
10
163.34
20
-74.74
11
162.84
21
-74.74
0
LINE
8
BLACK
6
CONTINUOUS
10
162.84
20
-74.74
11
162.84
21
-73.84
0
LINE
8
BLACK
6
CONTINUOUS
10
162.84
20
-73.84
11
163.34
21
-73.84
0
LINE
8
BLACK
6
CONTINUOUS
10
163.34
20
-73.84
11
163.34
21
-74.74
0
LINE
8
BLACK
6
CONTINUOUS
10
161.84
20
-74.74
11
161.34
21
-74.74
0
LINE
8
BLACK
6
CONTINUOUS
10
161.34
20
-74.74
11
161.34
21
-73.84
0
LINE
8
BLACK
6
CONTINUOUS
10
161.34
20
-73.84
11
161.84
21
-73.84
0
LINE
8
BLACK
6
CONTINUOUS
10
161.84
20
-73.84
11
161.84
21
-74.74
0
LINE
8
BLACK
6
CONTINUOUS
10
160
20
-74.74
11
159.5
21
-74.74
0
LINE
8
BLACK
6
CONTINUOUS
10
159.5
20
-74.74
11
159.5
21
-73.84
0
LINE
8
BLACK
6
CONTINUOUS
10
159.5
20
-73.84
11
160
21
-73.84
0
LINE
8
BLACK
6
CONTINUOUS
10
160
20
-73.84
11
160
21
-74.74
0
LINE
8
BLACK
6
CONTINUOUS
10
158.5
20
-74.74
11
158
21
-74.74
0
LINE
8
BLACK
6
CONTINUOUS
10
158
20
-74.74
11
158
21
-73.84
0
LINE
8
BLACK
6
CONTINUOUS
10
158
20
-73.84
11
158.5
21
-73.84
0
LINE
8
BLACK
6
CONTINUOUS
10
158.5
20
-73.84
11
158.5
21
-74.74
0
LINE
8
BLACK
6
CONTINUOUS
10
98.8
20
-74.45
11
97.8
21
-74.45
0
LINE
8
BLACK
6
CONTINUOUS
10
97.8
20
-74.45
11
97.8
21
-73.05
0
LINE
8
BLACK
6
CONTINUOUS
10
97.8
20
-73.05
11
98.8
21
-73.05
0
LINE
8
BLACK
6
CONTINUOUS
10
98.8
20
-73.05
11
98.8
21
-74.45
0
LINE
8
BLACK
6
CONTINUOUS
10
100.62
20
-74.45
11
99.42
21
-74.45
0
LINE
8
BLACK
6
CONTINUOUS
10
99.42
20
-74.45
11
99.42
21
-73.05
0
LINE
8
BLACK
6
CONTINUOUS
10
99.42
20
-73.05
11
100.62
21
-73.05
0
LINE
8
BLACK
6
CONTINUOUS
10
100.62
20
-73.05
11
100.62
21
-74.45
0
LINE
8
BLACK
6
CONTINUOUS
10
96.5
20
-74.4
11
94.7
21
-74.4
0
LINE
8
BLACK
6
CONTINUOUS
10
94.7
20
-74.4
11
94.7
21
-74
0
LINE
8
BLACK
6
CONTINUOUS
10
94.7
20
-74
11
96.5
21
-74
0
LINE
8
BLACK
6
CONTINUOUS
10
96.5
20
-74
11
96.5
21
-74.4
0
LINE
8
BLACK
6
CONTINUOUS
10
106.505
20
-74.25
11
105.655
21
-74.25
0
LINE
8
BLACK
6
CONTINUOUS
10
105.655
20
-74.25
11
105.655
21
-73.95
0
LINE
8
BLACK
6
CONTINUOUS
10
105.655
20
-73.95
11
106.505
21
-73.95
0
LINE
8
BLACK
6
CONTINUOUS
10
106.505
20
-73.95
11
106.505
21
-74.25
0
LINE
8
BLACK
6
CONTINUOUS
10
102.605
20
-74.25
11
101.755
21
-74.25
0
LINE
8
BLACK
6
CONTINUOUS
10
101.755
20
-74.25
11
101.755
21
-73.95
0
LINE
8
BLACK
6
CONTINUOUS
10
101.755
20
-73.95
11
102.605
21
-73.95
0
LINE
8
BLACK
6
CONTINUOUS
10
102.605
20
-73.95
11
102.605
21
-74.25
0
LINE
8
BLACK
6
CONTINUOUS
10
172.2
20
-74.16
11
170.7
21
-74.16
0
LINE
8
BLACK
6
CONTINUOUS
10
170.7
20
-74.16
11
170.7
21
-73.56
0
LINE
8
BLACK
6
CONTINUOUS
10
170.7
20
-73.56
11
172.2
21
-73.56
0
LINE
8
BLACK
6
CONTINUOUS
10
172.2
20
-73.56
11
172.2
21
-74.16
0
LINE
8
BLACK
6
CONTINUOUS
10
166.8
20
-74.16
11
165.3
21
-74.16
0
LINE
8
BLACK
6
CONTINUOUS
10
165.3
20
-74.16
11
165.3
21
-73.56
0
LINE
8
BLACK
6
CONTINUOUS
10
165.3
20
-73.56
11
166.8
21
-73.56
0
LINE
8
BLACK
6
CONTINUOUS
10
166.8
20
-73.56
11
166.8
21
-74.16
0
LINE
8
BLACK
6
CONTINUOUS
10
120.675
20
-74.155
11
119.125
21
-74.155
0
LINE
8
BLACK
6
CONTINUOUS
10
119.125
20
-74.155
11
119.125
21
-73.555
0
LINE
8
BLACK
6
CONTINUOUS
10
119.125
20
-73.555
11
120.675
21
-73.555
0
LINE
8
BLACK
6
CONTINUOUS
10
120.675
20
-73.555
11
120.675
21
-74.155
0
LINE
8
BLACK
6
CONTINUOUS
10
126.075
20
-74.155
11
124.525
21
-74.155
0
LINE
8
BLACK
6
CONTINUOUS
10
124.525
20
-74.155
11
124.525
21
-73.555
0
LINE
8
BLACK
6
CONTINUOUS
10
124.525
20
-73.555
11
126.075
21
-73.555
0
LINE
8
BLACK
6
CONTINUOUS
10
126.075
20
-73.555
11
126.075
21
-74.155
0
LINE
8
BLACK
6
CONTINUOUS
10
116.6
20
-73.85
11
114.1
21
-73.85
0
LINE
8
BLACK
6
CONTINUOUS
10
114.1
20
-73.85
11
114.1
21
-71.9
0
LINE
8
BLACK
6
CONTINUOUS
10
114.1
20
-71.9
11
116.6
21
-71.9
0
LINE
8
BLACK
6
CONTINUOUS
10
116.6
20
-71.9
11
116.6
21
-73.85
0
LINE
8
BLACK
6
CONTINUOUS
10
96.5
20
-73.75
11
94.7
21
-73.75
0
LINE
8
BLACK
6
CONTINUOUS
10
94.7
20
-73.75
11
94.7
21
-73.35
0
LINE
8
BLACK
6
CONTINUOUS
10
94.7
20
-73.35
11
96.5
21
-73.35
0
LINE
8
BLACK
6
CONTINUOUS
10
96.5
20
-73.35
11
96.5
21
-73.75
0
LINE
8
BLACK
6
CONTINUOUS
10
106.505
20
-73.75
11
105.655
21
-73.75
0
LINE
8
BLACK
6
CONTINUOUS
10
105.655
20
-73.75
11
105.655
21
-73.45
0
LINE
8
BLACK
6
CONTINUOUS
10
105.655
20
-73.45
11
106.505
21
-73.45
0
LINE
8
BLACK
6
CONTINUOUS
10
106.505
20
-73.45
11
106.505
21
-73.75
0
LINE
8
BLACK
6
CONTINUOUS
10
102.605
20
-73.75
11
101.755
21
-73.75
0
LINE
8
BLACK
6
CONTINUOUS
10
101.755
20
-73.75
11
101.755
21
-73.45
0
LINE
8
BLACK
6
CONTINUOUS
10
101.755
20
-73.45
11
102.605
21
-73.45
0
LINE
8
BLACK
6
CONTINUOUS
10
102.605
20
-73.45
11
102.605
21
-73.75
0
LINE
8
BLACK
6
CONTINUOUS
10
103.03
20
-73.325
11
102.73
21
-73.325
0
LINE
8
BLACK
6
CONTINUOUS
10
102.73
20
-73.325
11
102.73
21
-72.475
0
LINE
8
BLACK
6
CONTINUOUS
10
102.73
20
-72.475
11
103.03
21
-72.475
0
LINE
8
BLACK
6
CONTINUOUS
10
103.03
20
-72.475
11
103.03
21
-73.325
0
LINE
8
BLACK
6
CONTINUOUS
10
103.53
20
-73.325
11
103.23
21
-73.325
0
LINE
8
BLACK
6
CONTINUOUS
10
103.23
20
-73.325
11
103.23
21
-72.475
0
LINE
8
BLACK
6
CONTINUOUS
10
103.23
20
-72.475
11
103.53
21
-72.475
0
LINE
8
BLACK
6
CONTINUOUS
10
103.53
20
-72.475
11
103.53
21
-73.325
0
LINE
8
BLACK
6
CONTINUOUS
10
104.03
20
-73.325
11
103.73
21
-73.325
0
LINE
8
BLACK
6
CONTINUOUS
10
103.73
20
-73.325
11
103.73
21
-72.475
0
LINE
8
BLACK
6
CONTINUOUS
10
103.73
20
-72.475
11
104.03
21
-72.475
0
LINE
8
BLACK
6
CONTINUOUS
10
104.03
20
-72.475
11
104.03
21
-73.325
0
LINE
8
BLACK
6
CONTINUOUS
10
105.53
20
-73.325
11
105.23
21
-73.325
0
LINE
8
BLACK
6
CONTINUOUS
10
105.23
20
-73.325
11
105.23
21
-72.475
0
LINE
8
BLACK
6
CONTINUOUS
10
105.23
20
-72.475
11
105.53
21
-72.475
0
LINE
8
BLACK
6
CONTINUOUS
10
105.53
20
-72.475
11
105.53
21
-73.325
0
LINE
8
BLACK
6
CONTINUOUS
10
105.03
20
-73.325
11
104.73
21
-73.325
0
LINE
8
BLACK
6
CONTINUOUS
10
104.73
20
-73.325
11
104.73
21
-72.475
0
LINE
8
BLACK
6
CONTINUOUS
10
104.73
20
-72.475
11
105.03
21
-72.475
0
LINE
8
BLACK
6
CONTINUOUS
10
105.03
20
-72.475
11
105.03
21
-73.325
0
LINE
8
BLACK
6
CONTINUOUS
10
104.53
20
-73.325
11
104.23
21
-73.325
0
LINE
8
BLACK
6
CONTINUOUS
10
104.23
20
-73.325
11
104.23
21
-72.475
0
LINE
8
BLACK
6
CONTINUOUS
10
104.23
20
-72.475
11
104.53
21
-72.475
0
LINE
8
BLACK
6
CONTINUOUS
10
104.53
20
-72.475
11
104.53
21
-73.325
0
LINE
8
BLACK
6
CONTINUOUS
10
172.2
20
-72.89
11
170.7
21
-72.89
0
LINE
8
BLACK
6
CONTINUOUS
10
170.7
20
-72.89
11
170.7
21
-72.29
0
LINE
8
BLACK
6
CONTINUOUS
10
170.7
20
-72.29
11
172.2
21
-72.29
0
LINE
8
BLACK
6
CONTINUOUS
10
172.2
20
-72.29
11
172.2
21
-72.89
0
LINE
8
BLACK
6
CONTINUOUS
10
166.8
20
-72.89
11
165.3
21
-72.89
0
LINE
8
BLACK
6
CONTINUOUS
10
165.3
20
-72.89
11
165.3
21
-72.29
0
LINE
8
BLACK
6
CONTINUOUS
10
165.3
20
-72.29
11
166.8
21
-72.29
0
LINE
8
BLACK
6
CONTINUOUS
10
166.8
20
-72.29
11
166.8
21
-72.89
0
LINE
8
BLACK
6
CONTINUOUS
10
120.675
20
-72.885
11
119.125
21
-72.885
0
LINE
8
BLACK
6
CONTINUOUS
10
119.125
20
-72.885
11
119.125
21
-72.285
0
LINE
8
BLACK
6
CONTINUOUS
10
119.125
20
-72.285
11
120.675
21
-72.285
0
LINE
8
BLACK
6
CONTINUOUS
10
120.675
20
-72.285
11
120.675
21
-72.885
0
LINE
8
BLACK
6
CONTINUOUS
10
126.075
20
-72.885
11
124.525
21
-72.885
0
LINE
8
BLACK
6
CONTINUOUS
10
124.525
20
-72.885
11
124.525
21
-72.285
0
LINE
8
BLACK
6
CONTINUOUS
10
124.525
20
-72.285
11
126.075
21
-72.285
0
LINE
8
BLACK
6
CONTINUOUS
10
126.075
20
-72.285
11
126.075
21
-72.885
0
LINE
8
BLACK
6
CONTINUOUS
10
135.6
20
-72.45
11
133.05
21
-72.45
0
LINE
8
BLACK
6
CONTINUOUS
10
133.05
20
-72.45
11
133.05
21
-69.95
0
LINE
8
BLACK
6
CONTINUOUS
10
133.05
20
-69.95
11
135.6
21
-69.95
0
LINE
8
BLACK
6
CONTINUOUS
10
135.6
20
-69.95
11
135.6
21
-72.45
0
LINE
8
BLACK
6
CONTINUOUS
10
130.55
20
-72.45
11
128
21
-72.45
0
LINE
8
BLACK
6
CONTINUOUS
10
128
20
-72.45
11
128
21
-69.95
0
LINE
8
BLACK
6
CONTINUOUS
10
128
20
-69.95
11
130.55
21
-69.95
0
LINE
8
BLACK
6
CONTINUOUS
10
130.55
20
-69.95
11
130.55
21
-72.45
0
LINE
8
BLACK
6
CONTINUOUS
10
111.2
20
-71.95
11
108.7
21
-71.95
0
LINE
8
BLACK
6
CONTINUOUS
10
108.7
20
-71.95
11
108.7
21
-69.4
0
LINE
8
BLACK
6
CONTINUOUS
10
108.7
20
-69.4
11
111.2
21
-69.4
0
LINE
8
BLACK
6
CONTINUOUS
10
111.2
20
-69.4
11
111.2
21
-71.95
0
LINE
8
BLACK
6
CONTINUOUS
10
175.2
20
-71.705
11
174.4
21
-71.705
0
LINE
8
BLACK
6
CONTINUOUS
10
174.4
20
-71.705
11
174.4
21
-70.955
0
LINE
8
BLACK
6
CONTINUOUS
10
174.4
20
-70.955
11
175.2
21
-70.955
0
LINE
8
BLACK
6
CONTINUOUS
10
175.2
20
-70.955
11
175.2
21
-71.705
0
LINE
8
BLACK
6
CONTINUOUS
10
176.7
20
-71.705
11
175.9
21
-71.705
0
LINE
8
BLACK
6
CONTINUOUS
10
175.9
20
-71.705
11
175.9
21
-70.955
0
LINE
8
BLACK
6
CONTINUOUS
10
175.9
20
-70.955
11
176.7
21
-70.955
0
LINE
8
BLACK
6
CONTINUOUS
10
176.7
20
-70.955
11
176.7
21
-71.705
0
LINE
8
BLACK
6
CONTINUOUS
10
149.5
20
-71.64
11
148.6
21
-71.64
0
LINE
8
BLACK
6
CONTINUOUS
10
148.6
20
-71.64
11
148.6
21
-71.14
0
LINE
8
BLACK
6
CONTINUOUS
10
148.6
20
-71.14
11
149.5
21
-71.14
0
LINE
8
BLACK
6
CONTINUOUS
10
149.5
20
-71.14
11
149.5
21
-71.64
0
LINE
8
BLACK
6
CONTINUOUS
10
172.2
20
-71.62
11
170.7
21
-71.62
0
LINE
8
BLACK
6
CONTINUOUS
10
170.7
20
-71.62
11
170.7
21
-71.02
0
LINE
8
BLACK
6
CONTINUOUS
10
170.7
20
-71.02
11
172.2
21
-71.02
0
LINE
8
BLACK
6
CONTINUOUS
10
172.2
20
-71.02
11
172.2
21
-71.62
0
LINE
8
BLACK
6
CONTINUOUS
10
166.8
20
-71.62
11
165.3
21
-71.62
0
LINE
8
BLACK
6
CONTINUOUS
10
165.3
20
-71.62
11
165.3
21
-71.02
0
LINE
8
BLACK
6
CONTINUOUS
10
165.3
20
-71.02
11
166.8
21
-71.02
0
LINE
8
BLACK
6
CONTINUOUS
10
166.8
20
-71.02
11
166.8
21
-71.62
0
LINE
8
BLACK
6
CONTINUOUS
10
126.075
20
-71.615
11
124.525
21
-71.615
0
LINE
8
BLACK
6
CONTINUOUS
10
124.525
20
-71.615
11
124.525
21
-71.015
0
LINE
8
BLACK
6
CONTINUOUS
10
124.525
20
-71.015
11
126.075
21
-71.015
0
LINE
8
BLACK
6
CONTINUOUS
10
126.075
20
-71.015
11
126.075
21
-71.615
0
LINE
8
BLACK
6
CONTINUOUS
10
120.675
20
-71.615
11
119.125
21
-71.615
0
LINE
8
BLACK
6
CONTINUOUS
10
119.125
20
-71.615
11
119.125
21
-71.015
0
LINE
8
BLACK
6
CONTINUOUS
10
119.125
20
-71.015
11
120.675
21
-71.015
0
LINE
8
BLACK
6
CONTINUOUS
10
120.675
20
-71.015
11
120.675
21
-71.615
0
LINE
8
BLACK
6
CONTINUOUS
10
159.25
20
-71.6
11
157.85
21
-71.6
0
LINE
8
BLACK
6
CONTINUOUS
10
157.85
20
-71.6
11
157.85
21
-71.3
0
LINE
8
BLACK
6
CONTINUOUS
10
157.85
20
-71.3
11
159.25
21
-71.3
0
LINE
8
BLACK
6
CONTINUOUS
10
159.25
20
-71.3
11
159.25
21
-71.6
0
LINE
8
BLACK
6
CONTINUOUS
10
154.85
20
-71.6
11
153.45
21
-71.6
0
LINE
8
BLACK
6
CONTINUOUS
10
153.45
20
-71.6
11
153.45
21
-71.3
0
LINE
8
BLACK
6
CONTINUOUS
10
153.45
20
-71.3
11
154.85
21
-71.3
0
LINE
8
BLACK
6
CONTINUOUS
10
154.85
20
-71.3
11
154.85
21
-71.6
0
LINE
8
BLACK
6
CONTINUOUS
10
154.85
20
-71.1
11
153.45
21
-71.1
0
LINE
8
BLACK
6
CONTINUOUS
10
153.45
20
-71.1
11
153.45
21
-70.8
0
LINE
8
BLACK
6
CONTINUOUS
10
153.45
20
-70.8
11
154.85
21
-70.8
0
LINE
8
BLACK
6
CONTINUOUS
10
154.85
20
-70.8
11
154.85
21
-71.1
0
LINE
8
BLACK
6
CONTINUOUS
10
159.25
20
-71.1
11
157.85
21
-71.1
0
LINE
8
BLACK
6
CONTINUOUS
10
157.85
20
-71.1
11
157.85
21
-70.8
0
LINE
8
BLACK
6
CONTINUOUS
10
157.85
20
-70.8
11
159.25
21
-70.8
0
LINE
8
BLACK
6
CONTINUOUS
10
159.25
20
-70.8
11
159.25
21
-71.1
0
LINE
8
BLACK
6
CONTINUOUS
10
106.955
20
-70.79
11
106.205
21
-70.79
0
LINE
8
BLACK
6
CONTINUOUS
10
106.205
20
-70.79
11
106.205
21
-69.99
0
LINE
8
BLACK
6
CONTINUOUS
10
106.205
20
-69.99
11
106.955
21
-69.99
0
LINE
8
BLACK
6
CONTINUOUS
10
106.955
20
-69.99
11
106.955
21
-70.79
0
LINE
8
BLACK
6
CONTINUOUS
10
104.725
20
-70.79
11
103.975
21
-70.79
0
LINE
8
BLACK
6
CONTINUOUS
10
103.975
20
-70.79
11
103.975
21
-69.99
0
LINE
8
BLACK
6
CONTINUOUS
10
103.975
20
-69.99
11
104.725
21
-69.99
0
LINE
8
BLACK
6
CONTINUOUS
10
104.725
20
-69.99
11
104.725
21
-70.79
0
LINE
8
BLACK
6
CONTINUOUS
10
102.42
20
-70.64
11
101.52
21
-70.64
0
LINE
8
BLACK
6
CONTINUOUS
10
101.52
20
-70.64
11
101.52
21
-70.14
0
LINE
8
BLACK
6
CONTINUOUS
10
101.52
20
-70.14
11
102.42
21
-70.14
0
LINE
8
BLACK
6
CONTINUOUS
10
102.42
20
-70.14
11
102.42
21
-70.64
0
LINE
8
BLACK
6
CONTINUOUS
10
154.85
20
-70.6
11
153.45
21
-70.6
0
LINE
8
BLACK
6
CONTINUOUS
10
153.45
20
-70.6
11
153.45
21
-70.3
0
LINE
8
BLACK
6
CONTINUOUS
10
153.45
20
-70.3
11
154.85
21
-70.3
0
LINE
8
BLACK
6
CONTINUOUS
10
154.85
20
-70.3
11
154.85
21
-70.6
0
LINE
8
BLACK
6
CONTINUOUS
10
159.25
20
-70.6
11
157.85
21
-70.6
0
LINE
8
BLACK
6
CONTINUOUS
10
157.85
20
-70.6
11
157.85
21
-70.3
0
LINE
8
BLACK
6
CONTINUOUS
10
157.85
20
-70.3
11
159.25
21
-70.3
0
LINE
8
BLACK
6
CONTINUOUS
10
159.25
20
-70.3
11
159.25
21
-70.6
0
LINE
8
BLACK
6
CONTINUOUS
10
166.8
20
-70.35
11
165.3
21
-70.35
0
LINE
8
BLACK
6
CONTINUOUS
10
165.3
20
-70.35
11
165.3
21
-69.75
0
LINE
8
BLACK
6
CONTINUOUS
10
165.3
20
-69.75
11
166.8
21
-69.75
0
LINE
8
BLACK
6
CONTINUOUS
10
166.8
20
-69.75
11
166.8
21
-70.35
0
LINE
8
BLACK
6
CONTINUOUS
10
172.2
20
-70.35
11
170.7
21
-70.35
0
LINE
8
BLACK
6
CONTINUOUS
10
170.7
20
-70.35
11
170.7
21
-69.75
0
LINE
8
BLACK
6
CONTINUOUS
10
170.7
20
-69.75
11
172.2
21
-69.75
0
LINE
8
BLACK
6
CONTINUOUS
10
172.2
20
-69.75
11
172.2
21
-70.35
0
LINE
8
BLACK
6
CONTINUOUS
10
120.675
20
-70.345
11
119.125
21
-70.345
0
LINE
8
BLACK
6
CONTINUOUS
10
119.125
20
-70.345
11
119.125
21
-69.745
0
LINE
8
BLACK
6
CONTINUOUS
10
119.125
20
-69.745
11
120.675
21
-69.745
0
LINE
8
BLACK
6
CONTINUOUS
10
120.675
20
-69.745
11
120.675
21
-70.345
0
LINE
8
BLACK
6
CONTINUOUS
10
126.075
20
-70.345
11
124.525
21
-70.345
0
LINE
8
BLACK
6
CONTINUOUS
10
124.525
20
-70.345
11
124.525
21
-69.745
0
LINE
8
BLACK
6
CONTINUOUS
10
124.525
20
-69.745
11
126.075
21
-69.745
0
LINE
8
BLACK
6
CONTINUOUS
10
126.075
20
-69.745
11
126.075
21
-70.345
0
LINE
8
BLACK
6
CONTINUOUS
10
149.5
20
-70.14
11
148.6
21
-70.14
0
LINE
8
BLACK
6
CONTINUOUS
10
148.6
20
-70.14
11
148.6
21
-69.64
0
LINE
8
BLACK
6
CONTINUOUS
10
148.6
20
-69.64
11
149.5
21
-69.64
0
LINE
8
BLACK
6
CONTINUOUS
10
149.5
20
-69.64
11
149.5
21
-70.14
0
LINE
8
BLACK
6
CONTINUOUS
10
154.85
20
-70.1
11
153.45
21
-70.1
0
LINE
8
BLACK
6
CONTINUOUS
10
153.45
20
-70.1
11
153.45
21
-69.8
0
LINE
8
BLACK
6
CONTINUOUS
10
153.45
20
-69.8
11
154.85
21
-69.8
0
LINE
8
BLACK
6
CONTINUOUS
10
154.85
20
-69.8
11
154.85
21
-70.1
0
LINE
8
BLACK
6
CONTINUOUS
10
159.25
20
-70.1
11
157.85
21
-70.1
0
LINE
8
BLACK
6
CONTINUOUS
10
157.85
20
-70.1
11
157.85
21
-69.8
0
LINE
8
BLACK
6
CONTINUOUS
10
157.85
20
-69.8
11
159.25
21
-69.8
0
LINE
8
BLACK
6
CONTINUOUS
10
159.25
20
-69.8
11
159.25
21
-70.1
0
LINE
8
BLACK
6
CONTINUOUS
10
154.85
20
-69.6
11
153.45
21
-69.6
0
LINE
8
BLACK
6
CONTINUOUS
10
153.45
20
-69.6
11
153.45
21
-69.3
0
LINE
8
BLACK
6
CONTINUOUS
10
153.45
20
-69.3
11
154.85
21
-69.3
0
LINE
8
BLACK
6
CONTINUOUS
10
154.85
20
-69.3
11
154.85
21
-69.6
0
LINE
8
BLACK
6
CONTINUOUS
10
159.25
20
-69.6
11
157.85
21
-69.6
0
LINE
8
BLACK
6
CONTINUOUS
10
157.85
20
-69.6
11
157.85
21
-69.3
0
LINE
8
BLACK
6
CONTINUOUS
10
157.85
20
-69.3
11
159.25
21
-69.3
0
LINE
8
BLACK
6
CONTINUOUS
10
159.25
20
-69.3
11
159.25
21
-69.6
0
LINE
8
BLACK
6
CONTINUOUS
10
175.04
20
-69.38
11
174.54
21
-69.38
0
LINE
8
BLACK
6
CONTINUOUS
10
174.54
20
-69.38
11
174.54
21
-68.48
0
LINE
8
BLACK
6
CONTINUOUS
10
174.54
20
-68.48
11
175.04
21
-68.48
0
LINE
8
BLACK
6
CONTINUOUS
10
175.04
20
-68.48
11
175.04
21
-69.38
0
LINE
8
BLACK
6
CONTINUOUS
10
176.54
20
-69.38
11
176.04
21
-69.38
0
LINE
8
BLACK
6
CONTINUOUS
10
176.04
20
-69.38
11
176.04
21
-68.48
0
LINE
8
BLACK
6
CONTINUOUS
10
176.04
20
-68.48
11
176.54
21
-68.48
0
LINE
8
BLACK
6
CONTINUOUS
10
176.54
20
-68.48
11
176.54
21
-69.38
0
LINE
8
BLACK
6
CONTINUOUS
10
104.725
20
-69.29
11
103.975
21
-69.29
0
LINE
8
BLACK
6
CONTINUOUS
10
103.975
20
-69.29
11
103.975
21
-68.49
0
LINE
8
BLACK
6
CONTINUOUS
10
103.975
20
-68.49
11
104.725
21
-68.49
0
LINE
8
BLACK
6
CONTINUOUS
10
104.725
20
-68.49
11
104.725
21
-69.29
0
LINE
8
BLACK
6
CONTINUOUS
10
106.955
20
-69.29
11
106.205
21
-69.29
0
LINE
8
BLACK
6
CONTINUOUS
10
106.205
20
-69.29
11
106.205
21
-68.49
0
LINE
8
BLACK
6
CONTINUOUS
10
106.205
20
-68.49
11
106.955
21
-68.49
0
LINE
8
BLACK
6
CONTINUOUS
10
106.955
20
-68.49
11
106.955
21
-69.29
0
LINE
8
BLACK
6
CONTINUOUS
10
102.42
20
-69.14
11
101.52
21
-69.14
0
LINE
8
BLACK
6
CONTINUOUS
10
101.52
20
-69.14
11
101.52
21
-68.64
0
LINE
8
BLACK
6
CONTINUOUS
10
101.52
20
-68.64
11
102.42
21
-68.64
0
LINE
8
BLACK
6
CONTINUOUS
10
102.42
20
-68.64
11
102.42
21
-69.14
0
LINE
8
BLACK
6
CONTINUOUS
10
100.015
20
-69.09
11
97.985
21
-69.09
0
LINE
8
BLACK
6
CONTINUOUS
10
97.985
20
-69.09
11
97.985
21
-67.95
0
LINE
8
BLACK
6
CONTINUOUS
10
97.985
20
-67.95
11
100.015
21
-67.95
0
LINE
8
BLACK
6
CONTINUOUS
10
100.015
20
-67.95
11
100.015
21
-69.09
0
LINE
8
BLACK
6
CONTINUOUS
10
172.2
20
-69.08
11
170.7
21
-69.08
0
LINE
8
BLACK
6
CONTINUOUS
10
170.7
20
-69.08
11
170.7
21
-68.48
0
LINE
8
BLACK
6
CONTINUOUS
10
170.7
20
-68.48
11
172.2
21
-68.48
0
LINE
8
BLACK
6
CONTINUOUS
10
172.2
20
-68.48
11
172.2
21
-69.08
0
LINE
8
BLACK
6
CONTINUOUS
10
166.8
20
-69.08
11
165.3
21
-69.08
0
LINE
8
BLACK
6
CONTINUOUS
10
165.3
20
-69.08
11
165.3
21
-68.48
0
LINE
8
BLACK
6
CONTINUOUS
10
165.3
20
-68.48
11
166.8
21
-68.48
0
LINE
8
BLACK
6
CONTINUOUS
10
166.8
20
-68.48
11
166.8
21
-69.08
0
LINE
8
BLACK
6
CONTINUOUS
10
94.28
20
-69.02
11
93.08
21
-69.02
0
LINE
8
BLACK
6
CONTINUOUS
10
93.08
20
-69.02
11
93.08
21
-67.82
0
LINE
8
BLACK
6
CONTINUOUS
10
93.08
20
-67.82
11
94.28
21
-67.82
0
LINE
8
BLACK
6
CONTINUOUS
10
94.28
20
-67.82
11
94.28
21
-69.02
0
LINE
8
BLACK
6
CONTINUOUS
10
139.34
20
-68.52
11
138.04
21
-68.52
0
LINE
8
BLACK
6
CONTINUOUS
10
138.04
20
-68.52
11
138.04
21
-66.82
0
LINE
8
BLACK
6
CONTINUOUS
10
138.04
20
-66.82
11
139.34
21
-66.82
0
LINE
8
BLACK
6
CONTINUOUS
10
139.34
20
-66.82
11
139.34
21
-68.52
0
LINE
8
BLACK
6
CONTINUOUS
10
142.84
20
-68.52
11
141.54
21
-68.52
0
LINE
8
BLACK
6
CONTINUOUS
10
141.54
20
-68.52
11
141.54
21
-66.82
0
LINE
8
BLACK
6
CONTINUOUS
10
141.54
20
-66.82
11
142.84
21
-66.82
0
LINE
8
BLACK
6
CONTINUOUS
10
142.84
20
-66.82
11
142.84
21
-68.52
0
LINE
8
BLACK
6
CONTINUOUS
10
96.59
20
-68.32
11
95.69
21
-68.32
0
LINE
8
BLACK
6
CONTINUOUS
10
95.69
20
-68.32
11
95.69
21
-67.82
0
LINE
8
BLACK
6
CONTINUOUS
10
95.69
20
-67.82
11
96.59
21
-67.82
0
LINE
8
BLACK
6
CONTINUOUS
10
96.59
20
-67.82
11
96.59
21
-68.32
0
LINE
8
BLACK
6
CONTINUOUS
10
136.68
20
-68.06
11
135.78
21
-68.06
0
LINE
8
BLACK
6
CONTINUOUS
10
135.78
20
-68.06
11
135.78
21
-67.26
0
LINE
8
BLACK
6
CONTINUOUS
10
135.78
20
-67.26
11
136.68
21
-67.26
0
LINE
8
BLACK
6
CONTINUOUS
10
136.68
20
-67.26
11
136.68
21
-68.06
0
LINE
8
BLACK
6
CONTINUOUS
10
166.8
20
-67.81
11
165.3
21
-67.81
0
LINE
8
BLACK
6
CONTINUOUS
10
165.3
20
-67.81
11
165.3
21
-67.21
0
LINE
8
BLACK
6
CONTINUOUS
10
165.3
20
-67.21
11
166.8
21
-67.21
0
LINE
8
BLACK
6
CONTINUOUS
10
166.8
20
-67.21
11
166.8
21
-67.81
0
LINE
8
BLACK
6
CONTINUOUS
10
172.2
20
-67.81
11
170.7
21
-67.81
0
LINE
8
BLACK
6
CONTINUOUS
10
170.7
20
-67.81
11
170.7
21
-67.21
0
LINE
8
BLACK
6
CONTINUOUS
10
170.7
20
-67.21
11
172.2
21
-67.21
0
LINE
8
BLACK
6
CONTINUOUS
10
172.2
20
-67.21
11
172.2
21
-67.81
0
LINE
8
BLACK
6
CONTINUOUS
10
125.53
20
-67.73
11
123.58
21
-67.73
0
LINE
8
BLACK
6
CONTINUOUS
10
123.58
20
-67.73
11
123.58
21
-65.23
0
LINE
8
BLACK
6
CONTINUOUS
10
123.58
20
-65.23
11
125.53
21
-65.23
0
LINE
8
BLACK
6
CONTINUOUS
10
125.53
20
-65.23
11
125.53
21
-67.73
0
LINE
8
BLACK
6
CONTINUOUS
10
118.79
20
-67.73
11
116.24
21
-67.73
0
LINE
8
BLACK
6
CONTINUOUS
10
116.24
20
-67.73
11
116.24
21
-65.23
0
LINE
8
BLACK
6
CONTINUOUS
10
116.24
20
-65.23
11
118.79
21
-65.23
0
LINE
8
BLACK
6
CONTINUOUS
10
118.79
20
-65.23
11
118.79
21
-67.73
0
LINE
8
BLACK
6
CONTINUOUS
10
113.74
20
-67.73
11
111.19
21
-67.73
0
LINE
8
BLACK
6
CONTINUOUS
10
111.19
20
-67.73
11
111.19
21
-65.23
0
LINE
8
BLACK
6
CONTINUOUS
10
111.19
20
-65.23
11
113.74
21
-65.23
0
LINE
8
BLACK
6
CONTINUOUS
10
113.74
20
-65.23
11
113.74
21
-67.73
0
LINE
8
BLACK
6
CONTINUOUS
10
128.58
20
-67.73
11
126.63
21
-67.73
0
LINE
8
BLACK
6
CONTINUOUS
10
126.63
20
-67.73
11
126.63
21
-65.23
0
LINE
8
BLACK
6
CONTINUOUS
10
126.63
20
-65.23
11
128.58
21
-65.23
0
LINE
8
BLACK
6
CONTINUOUS
10
128.58
20
-65.23
11
128.58
21
-67.73
0
LINE
8
BLACK
6
CONTINUOUS
10
158.37
20
-67.675
11
157.57
21
-67.675
0
LINE
8
BLACK
6
CONTINUOUS
10
157.57
20
-67.675
11
157.57
21
-66.925
0
LINE
8
BLACK
6
CONTINUOUS
10
157.57
20
-66.925
11
158.37
21
-66.925
0
LINE
8
BLACK
6
CONTINUOUS
10
158.37
20
-66.925
11
158.37
21
-67.675
0
LINE
8
BLACK
6
CONTINUOUS
10
163.4
20
-67.675
11
162.6
21
-67.675
0
LINE
8
BLACK
6
CONTINUOUS
10
162.6
20
-67.675
11
162.6
21
-66.925
0
LINE
8
BLACK
6
CONTINUOUS
10
162.6
20
-66.925
11
163.4
21
-66.925
0
LINE
8
BLACK
6
CONTINUOUS
10
163.4
20
-66.925
11
163.4
21
-67.675
0
LINE
8
BLACK
6
CONTINUOUS
10
156.87
20
-67.675
11
156.07
21
-67.675
0
LINE
8
BLACK
6
CONTINUOUS
10
156.07
20
-67.675
11
156.07
21
-66.925
0
LINE
8
BLACK
6
CONTINUOUS
10
156.07
20
-66.925
11
156.87
21
-66.925
0
LINE
8
BLACK
6
CONTINUOUS
10
156.87
20
-66.925
11
156.87
21
-67.675
0
LINE
8
BLACK
6
CONTINUOUS
10
161.9
20
-67.675
11
161.1
21
-67.675
0
LINE
8
BLACK
6
CONTINUOUS
10
161.1
20
-67.675
11
161.1
21
-66.925
0
LINE
8
BLACK
6
CONTINUOUS
10
161.1
20
-66.925
11
161.9
21
-66.925
0
LINE
8
BLACK
6
CONTINUOUS
10
161.9
20
-66.925
11
161.9
21
-67.675
0
LINE
8
BLACK
6
CONTINUOUS
10
131.97
20
-67.66
11
131.07
21
-67.66
0
LINE
8
BLACK
6
CONTINUOUS
10
131.07
20
-67.66
11
131.07
21
-67.16
0
LINE
8
BLACK
6
CONTINUOUS
10
131.07
20
-67.16
11
131.97
21
-67.16
0
LINE
8
BLACK
6
CONTINUOUS
10
131.97
20
-67.16
11
131.97
21
-67.66
0
LINE
8
BLACK
6
CONTINUOUS
10
134.68
20
-67.11
11
133.78
21
-67.11
0
LINE
8
BLACK
6
CONTINUOUS
10
133.78
20
-67.11
11
133.78
21
-66.31
0
LINE
8
BLACK
6
CONTINUOUS
10
133.78
20
-66.31
11
134.68
21
-66.31
0
LINE
8
BLACK
6
CONTINUOUS
10
134.68
20
-66.31
11
134.68
21
-67.11
0
LINE
8
BLACK
6
CONTINUOUS
10
122.2
20
-66.93
11
121.7
21
-66.93
0
LINE
8
BLACK
6
CONTINUOUS
10
121.7
20
-66.93
11
121.7
21
-66.03
0
LINE
8
BLACK
6
CONTINUOUS
10
121.7
20
-66.03
11
122.2
21
-66.03
0
LINE
8
BLACK
6
CONTINUOUS
10
122.2
20
-66.03
11
122.2
21
-66.93
0
LINE
8
BLACK
6
CONTINUOUS
10
120.7
20
-66.93
11
120.2
21
-66.93
0
LINE
8
BLACK
6
CONTINUOUS
10
120.2
20
-66.93
11
120.2
21
-66.03
0
LINE
8
BLACK
6
CONTINUOUS
10
120.2
20
-66.03
11
120.7
21
-66.03
0
LINE
8
BLACK
6
CONTINUOUS
10
120.7
20
-66.03
11
120.7
21
-66.93
0
LINE
8
BLACK
6
CONTINUOUS
10
94.28
20
-66.82
11
93.08
21
-66.82
0
LINE
8
BLACK
6
CONTINUOUS
10
93.08
20
-66.82
11
93.08
21
-65.62
0
LINE
8
BLACK
6
CONTINUOUS
10
93.08
20
-65.62
11
94.28
21
-65.62
0
LINE
8
BLACK
6
CONTINUOUS
10
94.28
20
-65.62
11
94.28
21
-66.82
0
LINE
8
BLACK
6
CONTINUOUS
10
96.59
20
-66.82
11
95.69
21
-66.82
0
LINE
8
BLACK
6
CONTINUOUS
10
95.69
20
-66.82
11
95.69
21
-66.32
0
LINE
8
BLACK
6
CONTINUOUS
10
95.69
20
-66.32
11
96.59
21
-66.32
0
LINE
8
BLACK
6
CONTINUOUS
10
96.59
20
-66.32
11
96.59
21
-66.82
0
LINE
8
BLACK
6
CONTINUOUS
10
100.015
20
-66.69
11
97.985
21
-66.69
0
LINE
8
BLACK
6
CONTINUOUS
10
97.985
20
-66.69
11
97.985
21
-65.55
0
LINE
8
BLACK
6
CONTINUOUS
10
97.985
20
-65.55
11
100.015
21
-65.55
0
LINE
8
BLACK
6
CONTINUOUS
10
100.015
20
-65.55
11
100.015
21
-66.69
0
LINE
8
BLACK
6
CONTINUOUS
10
175.1
20
-66.68
11
174.6
21
-66.68
0
LINE
8
BLACK
6
CONTINUOUS
10
174.6
20
-66.68
11
174.6
21
-65.78
0
LINE
8
BLACK
6
CONTINUOUS
10
174.6
20
-65.78
11
175.1
21
-65.78
0
LINE
8
BLACK
6
CONTINUOUS
10
175.1
20
-65.78
11
175.1
21
-66.68
0
LINE
8
BLACK
6
CONTINUOUS
10
176.6
20
-66.68
11
176.1
21
-66.68
0
LINE
8
BLACK
6
CONTINUOUS
10
176.1
20
-66.68
11
176.1
21
-65.78
0
LINE
8
BLACK
6
CONTINUOUS
10
176.1
20
-65.78
11
176.6
21
-65.78
0
LINE
8
BLACK
6
CONTINUOUS
10
176.6
20
-65.78
11
176.6
21
-66.68
0
LINE
8
BLACK
6
CONTINUOUS
10
166.8
20
-66.54
11
165.3
21
-66.54
0
LINE
8
BLACK
6
CONTINUOUS
10
165.3
20
-66.54
11
165.3
21
-65.94
0
LINE
8
BLACK
6
CONTINUOUS
10
165.3
20
-65.94
11
166.8
21
-65.94
0
LINE
8
BLACK
6
CONTINUOUS
10
166.8
20
-65.94
11
166.8
21
-66.54
0
LINE
8
BLACK
6
CONTINUOUS
10
172.2
20
-66.54
11
170.7
21
-66.54
0
LINE
8
BLACK
6
CONTINUOUS
10
170.7
20
-66.54
11
170.7
21
-65.94
0
LINE
8
BLACK
6
CONTINUOUS
10
170.7
20
-65.94
11
172.2
21
-65.94
0
LINE
8
BLACK
6
CONTINUOUS
10
172.2
20
-65.94
11
172.2
21
-66.54
0
LINE
8
BLACK
6
CONTINUOUS
10
136.68
20
-66.16
11
135.78
21
-66.16
0
LINE
8
BLACK
6
CONTINUOUS
10
135.78
20
-66.16
11
135.78
21
-65.36
0
LINE
8
BLACK
6
CONTINUOUS
10
135.78
20
-65.36
11
136.68
21
-65.36
0
LINE
8
BLACK
6
CONTINUOUS
10
136.68
20
-65.36
11
136.68
21
-66.16
0
LINE
8
BLACK
6
CONTINUOUS
10
131.97
20
-66.16
11
131.07
21
-66.16
0
LINE
8
BLACK
6
CONTINUOUS
10
131.07
20
-66.16
11
131.07
21
-65.66
0
LINE
8
BLACK
6
CONTINUOUS
10
131.07
20
-65.66
11
131.97
21
-65.66
0
LINE
8
BLACK
6
CONTINUOUS
10
131.97
20
-65.66
11
131.97
21
-66.16
0
LINE
8
BLACK
6
CONTINUOUS
10
156.72
20
-65.59
11
156.22
21
-65.59
0
LINE
8
BLACK
6
CONTINUOUS
10
156.22
20
-65.59
11
156.22
21
-64.69
0
LINE
8
BLACK
6
CONTINUOUS
10
156.22
20
-64.69
11
156.72
21
-64.69
0
LINE
8
BLACK
6
CONTINUOUS
10
156.72
20
-64.69
11
156.72
21
-65.59
0
LINE
8
BLACK
6
CONTINUOUS
10
163.23
20
-65.59
11
162.73
21
-65.59
0
LINE
8
BLACK
6
CONTINUOUS
10
162.73
20
-65.59
11
162.73
21
-64.69
0
LINE
8
BLACK
6
CONTINUOUS
10
162.73
20
-64.69
11
163.23
21
-64.69
0
LINE
8
BLACK
6
CONTINUOUS
10
163.23
20
-64.69
11
163.23
21
-65.59
0
LINE
8
BLACK
6
CONTINUOUS
10
161.73
20
-65.59
11
161.23
21
-65.59
0
LINE
8
BLACK
6
CONTINUOUS
10
161.23
20
-65.59
11
161.23
21
-64.69
0
LINE
8
BLACK
6
CONTINUOUS
10
161.23
20
-64.69
11
161.73
21
-64.69
0
LINE
8
BLACK
6
CONTINUOUS
10
161.73
20
-64.69
11
161.73
21
-65.59
0
LINE
8
BLACK
6
CONTINUOUS
10
158.22
20
-65.59
11
157.72
21
-65.59
0
LINE
8
BLACK
6
CONTINUOUS
10
157.72
20
-65.59
11
157.72
21
-64.69
0
LINE
8
BLACK
6
CONTINUOUS
10
157.72
20
-64.69
11
158.22
21
-64.69
0
LINE
8
BLACK
6
CONTINUOUS
10
158.22
20
-64.69
11
158.22
21
-65.59
0
LINE
8
BLACK
6
CONTINUOUS
10
94.075
20
-64.61
11
93.325
21
-64.61
0
LINE
8
BLACK
6
CONTINUOUS
10
93.325
20
-64.61
11
93.325
21
-63.81
0
LINE
8
BLACK
6
CONTINUOUS
10
93.325
20
-63.81
11
94.075
21
-63.81
0
LINE
8
BLACK
6
CONTINUOUS
10
94.075
20
-63.81
11
94.075
21
-64.61
0
LINE
8
BLACK
6
CONTINUOUS
10
101.375
20
-64.61
11
100.625
21
-64.61
0
LINE
8
BLACK
6
CONTINUOUS
10
100.625
20
-64.61
11
100.625
21
-63.81
0
LINE
8
BLACK
6
CONTINUOUS
10
100.625
20
-63.81
11
101.375
21
-63.81
0
LINE
8
BLACK
6
CONTINUOUS
10
101.375
20
-63.81
11
101.375
21
-64.61
0
LINE
8
BLACK
6
CONTINUOUS
10
99.005
20
-64.435
11
98.375
21
-64.435
0
LINE
8
BLACK
6
CONTINUOUS
10
98.375
20
-64.435
11
98.375
21
-63.985
0
LINE
8
BLACK
6
CONTINUOUS
10
98.375
20
-63.985
11
99.005
21
-63.985
0
LINE
8
BLACK
6
CONTINUOUS
10
99.005
20
-63.985
11
99.005
21
-64.435
0
LINE
8
BLACK
6
CONTINUOUS
10
96.325
20
-64.435
11
95.695
21
-64.435
0
LINE
8
BLACK
6
CONTINUOUS
10
95.695
20
-64.435
11
95.695
21
-63.985
0
LINE
8
BLACK
6
CONTINUOUS
10
95.695
20
-63.985
11
96.325
21
-63.985
0
LINE
8
BLACK
6
CONTINUOUS
10
96.325
20
-63.985
11
96.325
21
-64.435
0
LINE
8
BLACK
6
CONTINUOUS
10
97.65
20
-64.01
11
97.05
21
-64.01
0
LINE
8
BLACK
6
CONTINUOUS
10
97.05
20
-64.01
11
97.05
21
-62.51
0
LINE
8
BLACK
6
CONTINUOUS
10
97.05
20
-62.51
11
97.65
21
-62.51
0
LINE
8
BLACK
6
CONTINUOUS
10
97.65
20
-62.51
11
97.65
21
-64.01
0
LINE
8
BLACK
6
CONTINUOUS
10
99.005
20
-63.485
11
98.375
21
-63.485
0
LINE
8
BLACK
6
CONTINUOUS
10
98.375
20
-63.485
11
98.375
21
-63.035
0
LINE
8
BLACK
6
CONTINUOUS
10
98.375
20
-63.035
11
99.005
21
-63.035
0
LINE
8
BLACK
6
CONTINUOUS
10
99.005
20
-63.035
11
99.005
21
-63.485
0
LINE
8
BLACK
6
CONTINUOUS
10
96.325
20
-63.485
11
95.695
21
-63.485
0
LINE
8
BLACK
6
CONTINUOUS
10
95.695
20
-63.485
11
95.695
21
-63.035
0
LINE
8
BLACK
6
CONTINUOUS
10
95.695
20
-63.035
11
96.325
21
-63.035
0
LINE
8
BLACK
6
CONTINUOUS
10
96.325
20
-63.035
11
96.325
21
-63.485
0
LINE
8
BLACK
6
CONTINUOUS
10
94.075
20
-63.11
11
93.325
21
-63.11
0
LINE
8
BLACK
6
CONTINUOUS
10
93.325
20
-63.11
11
93.325
21
-62.31
0
LINE
8
BLACK
6
CONTINUOUS
10
93.325
20
-62.31
11
94.075
21
-62.31
0
LINE
8
BLACK
6
CONTINUOUS
10
94.075
20
-62.31
11
94.075
21
-63.11
0
LINE
8
BLACK
6
CONTINUOUS
10
101.375
20
-63.11
11
100.625
21
-63.11
0
LINE
8
BLACK
6
CONTINUOUS
10
100.625
20
-63.11
11
100.625
21
-62.31
0
LINE
8
BLACK
6
CONTINUOUS
10
100.625
20
-62.31
11
101.375
21
-62.31
0
LINE
8
BLACK
6
CONTINUOUS
10
101.375
20
-62.31
11
101.375
21
-63.11
0
LINE
8
BLACK
6
CONTINUOUS
10
99.005
20
-62.535
11
98.375
21
-62.535
0
LINE
8
BLACK
6
CONTINUOUS
10
98.375
20
-62.535
11
98.375
21
-62.085
0
LINE
8
BLACK
6
CONTINUOUS
10
98.375
20
-62.085
11
99.005
21
-62.085
0
LINE
8
BLACK
6
CONTINUOUS
10
99.005
20
-62.085
11
99.005
21
-62.535
0
LINE
8
BLACK
6
CONTINUOUS
10
96.325
20
-62.535
11
95.695
21
-62.535
0
LINE
8
BLACK
6
CONTINUOUS
10
95.695
20
-62.535
11
95.695
21
-62.085
0
LINE
8
BLACK
6
CONTINUOUS
10
95.695
20
-62.085
11
96.325
21
-62.085
0
LINE
8
BLACK
6
CONTINUOUS
10
96.325
20
-62.085
11
96.325
21
-62.535
  0
ENDSEC
  0
EOF
