<?xml version="1.0" standalone="no"?>
 <!DOCTYPE svg PUBLIC "-//W3C//DTD SVG 1.1//EN" 
 "http://www.w3.org/Graphics/SVG/1.1/DTD/svg11.dtd"> 
<svg xmlns="http://www.w3.org/2000/svg" version="1.1" 
    width="29.7002cm" height="21.0007cm" viewBox="0 0 116930 82680 ">
<title>SVG Picture created as PSLab-drl_map.svg date 2019/04/12 22:24:48 </title>
  <desc>Picture generated by PCBNEW </desc>
<g style="fill:#000000; fill-opacity:1;stroke:#000000; stroke-opacity:1;
stroke-linecap:round; stroke-linejoin:round; "
 transform="translate(0 0) scale(1 1)">
</g>
<g style="fill:#000000; fill-opacity:0.0; 
stroke:#000000; stroke-width:-0.000393701; stroke-opacity:1; 
stroke-linecap:round; stroke-linejoin:round;">
</g>
<g style="fill:#000000; fill-opacity:0.0; 
stroke:#000000; stroke-width:39.3701; stroke-opacity:1; 
stroke-linecap:round; stroke-linejoin:round;">
<path d="M35803 23728
L35811 23728
" />
<path d="M35803 44716
L35803 23728
" />
<path d="M74791 44716
L35803 44716
" />
<path d="M74791 44708
L74791 44716
" />
<path d="M74791 44704
L74791 44708
" />
<path d="M74791 44700
L74791 44704
" />
<path d="M74791 44696
L74791 44700
" />
<path d="M74791 24326
L74791 44696
" />
<path d="M74787 24322
L74791 24326
" />
<path d="M74783 24318
L74787 24322
" />
<path d="M74192 23728
L74783 24318
" />
<path d="M74188 23728
L74192 23728
" />
<path d="M74185 23728
L74188 23728
" />
<path d="M74181 23728
L74185 23728
" />
<path d="M35814 23728
L74181 23728
" />
<path d="M35803 44716
L35803 44724
" />
</g>
<g style="fill:#000000; fill-opacity:0.0; 
stroke:#000000; stroke-width:78.7402; stroke-opacity:1; 
stroke-linecap:round; stroke-linejoin:round;">
<path d="M36569 43451
L36729 43611
" />
<path d="M36729 43451
L36569 43611
" />
<path d="M37859 32238
L38019 32398
" />
<path d="M38019 32238
L37859 32398
" />
<path d="M37859 36598
L38019 36758
" />
<path d="M38019 36598
L37859 36758
" />
<path d="M37923 43451
L38083 43611
" />
<path d="M38083 43451
L37923 43611
" />
<path d="M38246 24455
L38406 24615
" />
<path d="M38406 24455
L38246 24615
" />
<path d="M38246 24825
L38406 24985
" />
<path d="M38406 24825
L38246 24985
" />
<path d="M38246 25191
L38406 25351
" />
<path d="M38406 25191
L38246 25351
" />
<path d="M38345 28108
L38505 28268
" />
<path d="M38505 28108
L38345 28268
" />
<path d="M38345 29821
L38505 29981
" />
<path d="M38505 29821
L38345 29981
" />
<path d="M38379 28955
L38539 29115
" />
<path d="M38539 28955
L38379 29115
" />
<path d="M38675 35006
L38835 35166
" />
<path d="M38835 35006
L38675 35166
" />
<path d="M39030 30620
L39190 30780
" />
<path d="M39190 30620
L39030 30780
" />
<path d="M39301 28423
L39461 28583
" />
<path d="M39461 28423
L39301 28583
" />
<path d="M39325 43451
L39485 43611
" />
<path d="M39485 43451
L39325 43611
" />
<path d="M39691 26171
L39851 26331
" />
<path d="M39851 26171
L39691 26331
" />
<path d="M39758 30624
L39918 30784
" />
<path d="M39918 30624
L39758 30784
" />
<path d="M40238 28097
L40398 28257
" />
<path d="M40398 28097
L40238 28257
" />
<path d="M40270 35620
L40430 35780
" />
<path d="M40430 35620
L40270 35780
" />
<path d="M40341 30618
L40501 30778
" />
<path d="M40501 30618
L40341 30778
" />
<path d="M40374 33414
L40534 33574
" />
<path d="M40534 33414
L40374 33574
" />
<path d="M40801 39841
L40961 40001
" />
<path d="M40961 39841
L40801 40001
" />
<path d="M40916 29394
L41076 29554
" />
<path d="M41076 29394
L40916 29554
" />
<path d="M41002 27632
L41162 27792
" />
<path d="M41162 27632
L41002 27792
" />
<path d="M41045 32723
L41205 32883
" />
<path d="M41205 32723
L41045 32883
" />
<path d="M41144 30618
L41304 30778
" />
<path d="M41304 30618
L41144 30778
" />
<path d="M41294 35892
L41454 36052
" />
<path d="M41454 35892
L41294 36052
" />
<path d="M41294 36325
L41454 36485
" />
<path d="M41454 36325
L41294 36485
" />
<path d="M41294 36762
L41454 36922
" />
<path d="M41454 36762
L41294 36922
" />
<path d="M41880 28427
L42040 28587
" />
<path d="M42040 28427
L41880 28587
" />
<path d="M41888 26219
L42048 26379
" />
<path d="M42048 26219
L41888 26379
" />
<path d="M41896 41447
L42056 41607
" />
<path d="M42056 41447
L41896 41607
" />
<path d="M42199 28955
L42359 29115
" />
<path d="M42359 28955
L42199 29115
" />
<path d="M42199 29821
L42359 29981
" />
<path d="M42359 29821
L42199 29981
" />
<path d="M43112 33908
L43272 34068
" />
<path d="M43272 33908
L43112 34068
" />
<path d="M43112 34593
L43272 34753
" />
<path d="M43272 34593
L43112 34753
" />
<path d="M43112 35542
L43272 35702
" />
<path d="M43272 35542
L43112 35702
" />
<path d="M43207 27744
L43367 27904
" />
<path d="M43367 27744
L43207 27904
" />
<path d="M43207 28931
L43367 29091
" />
<path d="M43367 28931
L43207 29091
" />
<path d="M44197 26093
L44357 26253
" />
<path d="M44357 26093
L44197 26253
" />
<path d="M45069 40451
L45229 40611
" />
<path d="M45229 40451
L45069 40611
" />
<path d="M45183 31112
L45343 31272
" />
<path d="M45343 31112
L45183 31272
" />
<path d="M45183 33384
L45343 33544
" />
<path d="M45343 33384
L45183 33544
" />
<path d="M45187 34187
L45347 34347
" />
<path d="M45347 34187
L45187 34347
" />
<path d="M45191 35542
L45351 35702
" />
<path d="M45351 35542
L45191 35702
" />
<path d="M45191 36128
L45351 36288
" />
<path d="M45351 36128
L45191 36288
" />
<path d="M46408 28931
L46568 29091
" />
<path d="M46568 28931
L46408 29091
" />
<path d="M46809 39116
L46969 39276
" />
<path d="M46969 39116
L46809 39276
" />
<path d="M48002 41408
L48162 41568
" />
<path d="M48162 41408
L48002 41568
" />
<path d="M48045 29530
L48205 29690
" />
<path d="M48205 29530
L48045 29690
" />
<path d="M48246 25325
L48406 25485
" />
<path d="M48406 25325
L48246 25485
" />
<path d="M48721 39890
L48881 40050
" />
<path d="M48881 39890
L48721 40050
" />
<path d="M49112 38807
L49272 38967
" />
<path d="M49272 38807
L49112 38967
" />
<path d="M49215 40538
L49375 40698
" />
<path d="M49375 40538
L49215 40698
" />
<path d="M49778 38404
L49938 38564
" />
<path d="M49938 38404
L49778 38564
" />
<path d="M50384 40341
L50544 40501
" />
<path d="M50544 40341
L50384 40501
" />
<path d="M50404 34565
L50564 34725
" />
<path d="M50564 34565
L50404 34725
" />
<path d="M50876 33857
L51036 34017
" />
<path d="M51036 33857
L50876 34017
" />
<path d="M50876 34368
L51036 34528
" />
<path d="M51036 34368
L50876 34528
" />
<path d="M50876 34368
L51036 34528
" />
<path d="M51036 34368
L50876 34528
" />
<path d="M51227 40805
L51387 40965
" />
<path d="M51387 40805
L51227 40965
" />
<path d="M51231 39305
L51391 39465
" />
<path d="M51391 39305
L51231 39465
" />
<path d="M51309 33699
L51469 33859
" />
<path d="M51469 33699
L51309 33859
" />
<path d="M51309 33699
L51469 33859
" />
<path d="M51469 33699
L51309 33859
" />
<path d="M52191 32719
L52351 32879
" />
<path d="M52351 32719
L52191 32879
" />
<path d="M52699 34203
L52859 34363
" />
<path d="M52859 34203
L52699 34363
" />
<path d="M52931 36632
L53091 36792
" />
<path d="M53091 36632
L52931 36792
" />
<path d="M53089 39912
L53249 40072
" />
<path d="M53249 39912
L53089 40072
" />
<path d="M53160 34821
L53320 34981
" />
<path d="M53320 34821
L53160 34981
" />
<path d="M53286 37065
L53446 37225
" />
<path d="M53446 37065
L53286 37225
" />
<path d="M53412 35794
L53572 35954
" />
<path d="M53572 35794
L53412 35954
" />
<path d="M53447 34195
L53607 34355
" />
<path d="M53607 34195
L53447 34355
" />
<path d="M53455 41809
L53615 41969
" />
<path d="M53615 41809
L53455 41969
" />
<path d="M53687 36652
L53847 36812
" />
<path d="M53847 36652
L53687 36812
" />
<path d="M53797 29097
L53957 29257
" />
<path d="M53957 29097
L53797 29257
" />
<path d="M54144 41305
L54304 41465
" />
<path d="M54304 41305
L54144 41465
" />
<path d="M54246 27998
L54406 28158
" />
<path d="M54406 27998
L54246 28158
" />
<path d="M54368 34337
L54528 34497
" />
<path d="M54528 34337
L54368 34497
" />
<path d="M54475 40305
L54635 40465
" />
<path d="M54635 40305
L54475 40465
" />
<path d="M54479 40805
L54639 40965
" />
<path d="M54639 40805
L54479 40965
" />
<path d="M54486 42305
L54646 42465
" />
<path d="M54646 42305
L54486 42465
" />
<path d="M54671 36931
L54831 37091
" />
<path d="M54831 36931
L54671 37091
" />
<path d="M54939 27652
L55099 27812
" />
<path d="M55099 27652
L54939 27812
" />
<path d="M55042 36585
L55202 36745
" />
<path d="M55202 36585
L55042 36745
" />
<path d="M55065 34420
L55225 34580
" />
<path d="M55225 34420
L55065 34580
" />
<path d="M55254 33896
L55414 34056
" />
<path d="M55414 33896
L55254 34056
" />
<path d="M55278 29849
L55438 30009
" />
<path d="M55438 29849
L55278 30009
" />
<path d="M55518 36234
L55678 36394
" />
<path d="M55678 36234
L55518 36394
" />
<path d="M55534 35786
L55694 35946
" />
<path d="M55694 35786
L55534 35946
" />
<path d="M55679 29305
L55839 29465
" />
<path d="M55839 29305
L55679 29465
" />
<path d="M55758 36998
L55918 37158
" />
<path d="M55918 36998
L55758 37158
" />
<path d="M55817 31486
L55977 31646
" />
<path d="M55977 31486
L55817 31646
" />
<path d="M56234 30388
L56394 30548
" />
<path d="M56394 30388
L56234 30548
" />
<path d="M56246 31916
L56406 32076
" />
<path d="M56406 31916
L56246 32076
" />
<path d="M56514 41738
L56674 41898
" />
<path d="M56674 41738
L56514 41898
" />
<path d="M56565 37888
L56725 38048
" />
<path d="M56725 37888
L56565 38048
" />
<path d="M56864 32829
L57024 32989
" />
<path d="M57024 32829
L56864 32989
" />
<path d="M57057 33471
L57217 33631
" />
<path d="M57217 33471
L57057 33631
" />
<path d="M57160 26786
L57320 26946
" />
<path d="M57320 26786
L57160 26946
" />
<path d="M57242 35274
L57402 35434
" />
<path d="M57402 35274
L57242 35434
" />
<path d="M57290 41731
L57450 41891
" />
<path d="M57450 41731
L57290 41891
" />
<path d="M57479 30400
L57639 30560
" />
<path d="M57639 30400
L57479 30560
" />
<path d="M58093 30400
L58253 30560
" />
<path d="M58253 30400
L58093 30560
" />
<path d="M58203 41731
L58363 41891
" />
<path d="M58363 41731
L58203 41891
" />
<path d="M58731 41707
L58891 41867
" />
<path d="M58891 41707
L58731 41867
" />
<path d="M59081 36880
L59241 37040
" />
<path d="M59241 36880
L59081 37040
" />
<path d="M59152 26935
L59312 27095
" />
<path d="M59312 26935
L59152 27095
" />
<path d="M59234 33439
L59394 33599
" />
<path d="M59394 33439
L59234 33599
" />
<path d="M59266 35321
L59426 35481
" />
<path d="M59426 35321
L59266 35481
" />
<path d="M59376 30624
L59536 30784
" />
<path d="M59536 30624
L59376 30784
" />
<path d="M59463 32384
L59623 32544
" />
<path d="M59623 32384
L59463 32544
" />
<path d="M59593 41553
L59753 41713
" />
<path d="M59753 41553
L59593 41713
" />
<path d="M59860 27400
L60020 27560
" />
<path d="M60020 27400
L59860 27560
" />
<path d="M60112 34278
L60272 34438
" />
<path d="M60272 34278
L60112 34438
" />
<path d="M60112 39640
L60272 39800
" />
<path d="M60272 39640
L60112 39800
" />
<path d="M60116 41475
L60276 41635
" />
<path d="M60276 41475
L60116 41635
" />
<path d="M60829 30982
L60989 31142
" />
<path d="M60989 30982
L60829 31142
" />
<path d="M60833 34262
L60993 34422
" />
<path d="M60993 34262
L60833 34422
" />
<path d="M61065 28498
L61225 28658
" />
<path d="M61225 28498
L61065 28658
" />
<path d="M61108 35860
L61268 36020
" />
<path d="M61268 35860
L61108 36020
" />
<path d="M61179 27656
L61339 27816
" />
<path d="M61339 27656
L61179 27816
" />
<path d="M61357 39057
L61517 39217
" />
<path d="M61517 39057
L61357 39217
" />
<path d="M61427 30790
L61587 30950
" />
<path d="M61587 30790
L61427 30950
" />
<path d="M61601 41553
L61761 41713
" />
<path d="M61761 41553
L61601 41713
" />
<path d="M61695 32479
L61855 32639
" />
<path d="M61855 32479
L61695 32639
" />
<path d="M62081 37518
L62241 37678
" />
<path d="M62241 37518
L62081 37678
" />
<path d="M62254 28526
L62414 28686
" />
<path d="M62414 28526
L62254 28686
" />
<path d="M62986 26002
L63146 26162
" />
<path d="M63146 26002
L62986 26162
" />
<path d="M62986 31482
L63146 31642
" />
<path d="M63146 31482
L62986 31642
" />
<path d="M63164 26947
L63324 27107
" />
<path d="M63324 26947
L63164 27107
" />
<path d="M63435 28069
L63595 28229
" />
<path d="M63595 28069
L63435 28229
" />
<path d="M63437 37406
L63597 37566
" />
<path d="M63597 37406
L63437 37566
" />
<path d="M63782 31294
L63942 31454
" />
<path d="M63942 31294
L63782 31454
" />
<path d="M63998 39479
L64158 39639
" />
<path d="M64158 39479
L63998 39639
" />
<path d="M64368 27498
L64528 27658
" />
<path d="M64528 27498
L64368 27658
" />
<path d="M65022 31443
L65182 31603
" />
<path d="M65182 31443
L65022 31603
" />
<path d="M65467 38912
L65627 39072
" />
<path d="M65627 38912
L65467 39072
" />
<path d="M65538 41778
L65698 41938
" />
<path d="M65698 41778
L65538 41938
" />
<path d="M65542 42164
L65702 42324
" />
<path d="M65702 42164
L65542 42324
" />
<path d="M65542 42549
L65702 42709
" />
<path d="M65702 42549
L65542 42709
" />
<path d="M65766 31786
L65926 31946
" />
<path d="M65926 31786
L65766 31946
" />
<path d="M65912 25998
L66072 26158
" />
<path d="M66072 25998
L65912 26158
" />
<path d="M66108 34416
L66268 34576
" />
<path d="M66268 34416
L66108 34576
" />
<path d="M66120 35908
L66280 36068
" />
<path d="M66280 35908
L66120 36068
" />
<path d="M66128 35416
L66288 35576
" />
<path d="M66288 35416
L66128 35576
" />
<path d="M66250 38916
L66410 39076
" />
<path d="M66410 38916
L66250 39076
" />
<path d="M66262 38420
L66422 38580
" />
<path d="M66422 38420
L66262 38580
" />
<path d="M66266 37923
L66426 38083
" />
<path d="M66426 37923
L66266 38083
" />
<path d="M66266 37423
L66426 37583
" />
<path d="M66426 37423
L66266 37583
" />
<path d="M66994 36746
L67154 36906
" />
<path d="M67154 36746
L66994 36906
" />
<path d="M67061 27998
L67221 28158
" />
<path d="M67221 27998
L67061 28158
" />
<path d="M67416 33829
L67576 33989
" />
<path d="M67576 33829
L67416 33989
" />
<path d="M67935 32384
L68095 32544
" />
<path d="M68095 32384
L67935 32544
" />
<path d="M67990 39502
L68150 39662
" />
<path d="M68150 39502
L67990 39662
" />
<path d="M68038 43620
L68198 43780
" />
<path d="M68198 43620
L68038 43780
" />
<path d="M68053 26998
L68213 27158
" />
<path d="M68213 26998
L68053 27158
" />
<path d="M68144 27998
L68304 28158
" />
<path d="M68304 27998
L68144 28158
" />
<path d="M68171 35912
L68331 36072
" />
<path d="M68331 35912
L68171 36072
" />
<path d="M68175 33947
L68335 34107
" />
<path d="M68335 33947
L68175 34107
" />
<path d="M68463 35388
L68623 35548
" />
<path d="M68623 35388
L68463 35548
" />
<path d="M68538 40774
L68698 40934
" />
<path d="M68698 40774
L68538 40934
" />
<path d="M68545 43620
L68705 43780
" />
<path d="M68705 43620
L68545 43780
" />
<path d="M69014 43632
L69174 43792
" />
<path d="M69174 43632
L69014 43792
" />
<path d="M69231 38644
L69391 38804
" />
<path d="M69391 38644
L69231 38804
" />
<path d="M70254 36632
L70414 36792
" />
<path d="M70414 36632
L70254 36792
" />
<path d="M70624 27061
L70784 27221
" />
<path d="M70784 27061
L70624 27221
" />
<path d="M70703 37660
L70863 37820
" />
<path d="M70863 37660
L70703 37820
" />
<path d="M70703 38652
L70863 38812
" />
<path d="M70863 38652
L70703 38812
" />
<path d="M70849 36668
L71009 36828
" />
<path d="M71009 36668
L70849 36828
" />
<path d="M71518 41778
L71678 41938
" />
<path d="M71678 41778
L71518 41938
" />
<path d="M71522 42549
L71682 42709
" />
<path d="M71682 42549
L71522 42709
" />
<path d="M71526 42164
L71686 42324
" />
<path d="M71686 42164
L71526 42324
" />
<circle cx="37677.2" cy="28513.8" r="127.953" /> 
<path d="M37637 28602
L37716 28602
" />
<path d="M37637 28425
L37716 28425
" />
<path d="M37716.5 28602.4 A88.5827 88.5827 0.0 0 0 37716.5 28425.2 " />
<path d="M37637.8 28425.2 A88.5827 88.5827 0.0 0 0 37637.8 28602.4 " />
<circle cx="37677.2" cy="30423.2" r="127.953" /> 
<path d="M37637 30511
L37716 30511
" />
<path d="M37637 30334
L37716 30334
" />
<path d="M37716.5 30511.8 A88.5827 88.5827 0.0 0 0 37716.5 30334.6 " />
<path d="M37637.8 30334.6 A88.5827 88.5827 0.0 0 0 37637.8 30511.8 " />
<path d="M36496 27906
L36496 28230
" />
<path d="M36333 28068
L36658 28068
" />
<path d="M36363 28191
L36628 28191
" />
<path d="M36363 27945
L36628 27945
" />
<path d="M36628.9 28191.4 A123.031 123.031 0.0 0 0 36628.9 27945.4 " />
<path d="M36363.2 27945.4 A123.031 123.031 0.0 0 0 36363.2 28191.4 " />
<path d="M36496 30706
L36496 31031
" />
<path d="M36333 30868
L36658 30868
" />
<path d="M36363 30991
L36628 30991
" />
<path d="M36363 30745
L36628 30745
" />
<path d="M36628.9 30991.6 A123.031 123.031 0.0 0 0 36628.9 30745.6 " />
<path d="M36363.2 30745.6 A123.031 123.031 0.0 0 0 36363.2 30991.6 " />
<polyline fill="none;"
points="45737,37280
45737,37002
45459,37002
45459,37280
45737,37280
" /> 
<polyline fill="none;"
points="46737,37280
46737,37002
46459,37002
46459,37280
46737,37280
" /> 
<polyline fill="none;"
points="47737,37280
47737,37002
47459,37002
47459,37280
47737,37280
" /> 
<polyline fill="none;"
points="48737,37280
48737,37002
48459,37002
48459,37280
48737,37280
" /> 
<polyline fill="none;"
points="49737,37280
49737,37002
49459,37002
49459,37280
49737,37280
" /> 
<polyline fill="none;"
points="50737,37280
50737,37002
50459,37002
50459,37280
50737,37280
" /> 
<polyline fill="none;"
points="61678,24843
61678,24565
61400,24565
61400,24843
61678,24843
" /> 
<polyline fill="none;"
points="62678,24843
62678,24565
62400,24565
62400,24843
62678,24843
" /> 
<polyline fill="none;"
points="63678,24843
63678,24565
63400,24565
63400,24843
63678,24843
" /> 
<polyline fill="none;"
points="64678,24843
64678,24565
64400,24565
64400,24843
64678,24843
" /> 
<polyline fill="none;"
points="65678,24843
65678,24565
65400,24565
65400,24843
65678,24843
" /> 
<polyline fill="none;"
points="66678,24843
66678,24565
66400,24565
66400,24843
66678,24843
" /> 
<polyline fill="none;"
points="67678,24843
67678,24565
67400,24565
67400,24843
67678,24843
" /> 
<polyline fill="none;"
points="68678,24843
68678,24565
68400,24565
68400,24843
68678,24843
" /> 
<polyline fill="none;"
points="51883,24843
51883,24565
51604,24565
51604,24843
51883,24843
" /> 
<polyline fill="none;"
points="52883,24843
52883,24565
52604,24565
52604,24843
52883,24843
" /> 
<polyline fill="none;"
points="53883,24843
53883,24565
53604,24565
53604,24843
53883,24843
" /> 
<polyline fill="none;"
points="54883,24843
54883,24565
54604,24565
54604,24843
54883,24843
" /> 
<polyline fill="none;"
points="72930,27859
72930,27581
72652,27581
72652,27859
72930,27859
" /> 
<polyline fill="none;"
points="72930,28859
72930,28581
72652,28581
72652,28859
72930,28859
" /> 
<polyline fill="none;"
points="72930,29859
72930,29581
72652,29581
72652,29859
72930,29859
" /> 
<polyline fill="none;"
points="72930,30859
72930,30581
72652,30581
72652,30859
72930,30859
" /> 
<polyline fill="none;"
points="72930,31859
72930,31581
72652,31581
72652,31859
72930,31859
" /> 
<polyline fill="none;"
points="72930,32859
72930,32581
72652,32581
72652,32859
72930,32859
" /> 
<polyline fill="none;"
points="72930,33859
72930,33581
72652,33581
72652,33859
72930,33859
" /> 
<polyline fill="none;"
points="72930,34859
72930,34581
72652,34581
72652,34859
72930,34859
" /> 
<polyline fill="none;"
points="72930,35859
72930,35581
72652,35581
72652,35859
72930,35859
" /> 
<polyline fill="none;"
points="72930,36859
72930,36581
72652,36581
72652,36859
72930,36859
" /> 
<polyline fill="none;"
points="72930,37859
72930,37581
72652,37581
72652,37859
72930,37859
" /> 
<polyline fill="none;"
points="72930,38859
72930,38581
72652,38581
72652,38859
72930,38859
" /> 
<polyline fill="none;"
points="72930,39859
72930,39581
72652,39581
72652,39859
72930,39859
" /> 
<polyline fill="none;"
points="72930,40859
72930,40581
72652,40581
72652,40859
72930,40859
" /> 
<polyline fill="none;"
points="73930,27859
73930,27581
73652,27581
73652,27859
73930,27859
" /> 
<polyline fill="none;"
points="73930,28859
73930,28581
73652,28581
73652,28859
73930,28859
" /> 
<polyline fill="none;"
points="73930,29859
73930,29581
73652,29581
73652,29859
73930,29859
" /> 
<polyline fill="none;"
points="73930,30859
73930,30581
73652,30581
73652,30859
73930,30859
" /> 
<polyline fill="none;"
points="73930,31859
73930,31581
73652,31581
73652,31859
73930,31859
" /> 
<polyline fill="none;"
points="73930,32859
73930,32581
73652,32581
73652,32859
73930,32859
" /> 
<polyline fill="none;"
points="73930,33859
73930,33581
73652,33581
73652,33859
73930,33859
" /> 
<polyline fill="none;"
points="73930,34859
73930,34581
73652,34581
73652,34859
73930,34859
" /> 
<polyline fill="none;"
points="73930,35859
73930,35581
73652,35581
73652,35859
73930,35859
" /> 
<polyline fill="none;"
points="73930,36859
73930,36581
73652,36581
73652,36859
73930,36859
" /> 
<polyline fill="none;"
points="73930,37859
73930,37581
73652,37581
73652,37859
73930,37859
" /> 
<polyline fill="none;"
points="73930,38859
73930,38581
73652,38581
73652,38859
73930,38859
" /> 
<polyline fill="none;"
points="73930,39859
73930,39581
73652,39581
73652,39859
73930,39859
" /> 
<polyline fill="none;"
points="73930,40859
73930,40581
73652,40581
73652,40859
73930,40859
" /> 
<polyline fill="none;"
points="56773,24843
56773,24565
56494,24565
56494,24843
56773,24843
" /> 
<polyline fill="none;"
points="57773,24843
57773,24565
57494,24565
57494,24843
57773,24843
" /> 
<polyline fill="none;"
points="58773,24843
58773,24565
58494,24565
58494,24843
58773,24843
" /> 
<polyline fill="none;"
points="59773,24843
59773,24565
59494,24565
59494,24843
59773,24843
" /> 
<polyline fill="none;"
points="49418,30434
49418,30156
49140,30156
49140,30434
49418,30434
" /> 
<polyline fill="none;"
points="49418,31434
49418,31156
49140,31156
49140,31434
49418,31434
" /> 
<polyline fill="none;"
points="49418,32434
49418,32156
49140,32156
49140,32434
49418,32434
" /> 
<polyline fill="none;"
points="49418,33434
49418,33156
49140,33156
49140,33434
49418,33434
" /> 
<polyline fill="none;"
points="49418,34434
49418,34156
49140,34156
49140,34434
49418,34434
" /> 
<polyline fill="none;"
points="49418,35434
49418,35156
49140,35156
49140,35434
49418,35434
" /> 
<polyline fill="none;"
points="45442,43875
45442,43597
45163,43597
45163,43875
45442,43875
" /> 
<polyline fill="none;"
points="46442,43875
46442,43597
46163,43597
46163,43875
46442,43875
" /> 
<polyline fill="none;"
points="47442,43875
47442,43597
47163,43597
47163,43875
47442,43875
" /> 
<polyline fill="none;"
points="48442,43875
48442,43597
48163,43597
48163,43875
48442,43875
" /> 
<polyline fill="none;"
points="49442,43875
49442,43597
49163,43597
49163,43875
49442,43875
" /> 
<polyline fill="none;"
points="50442,43875
50442,43597
50163,43597
50163,43875
50442,43875
" /> 
<polyline fill="none;"
points="51442,43875
51442,43597
51163,43597
51163,43875
51442,43875
" /> 
<polyline fill="none;"
points="53446,43875
53446,43597
53167,43597
53167,43875
53446,43875
" /> 
<polyline fill="none;"
points="54446,43875
54446,43597
54167,43597
54167,43875
54446,43875
" /> 
<polyline fill="none;"
points="55446,43875
55446,43597
55167,43597
55167,43875
55446,43875
" /> 
<polyline fill="none;"
points="56446,43875
56446,43597
56167,43597
56167,43875
56446,43875
" /> 
<polyline fill="none;"
points="57446,43875
57446,43597
57167,43597
57167,43875
57446,43875
" /> 
<polyline fill="none;"
points="58446,43875
58446,43597
58167,43597
58167,43875
58446,43875
" /> 
<polyline fill="none;"
points="59446,43875
59446,43597
59167,43597
59167,43875
59446,43875
" /> 
<polyline fill="none;"
points="60446,43875
60446,43597
60167,43597
60167,43875
60446,43875
" /> 
<polyline fill="none;"
points="61446,43875
61446,43597
61167,43597
61167,43875
61446,43875
" /> 
<polyline fill="none;"
points="62446,43875
62446,43597
62167,43597
62167,43875
62446,43875
" /> 
<polyline fill="none;"
points="63446,43875
63446,43597
63167,43597
63167,43875
63446,43875
" /> 
<polyline fill="none;"
points="64446,43875
64446,43597
64167,43597
64167,43875
64446,43875
" /> 
<polyline fill="none;"
points="44993,24843
44993,24565
44715,24565
44715,24843
44993,24843
" /> 
<polyline fill="none;"
points="45993,24843
45993,24565
45715,24565
45715,24843
45993,24843
" /> 
<polyline fill="none;"
points="46993,24843
46993,24565
46715,24565
46715,24843
46993,24843
" /> 
<polyline fill="none;"
points="47993,24843
47993,24565
47715,24565
47715,24843
47993,24843
" /> 
<polyline fill="none;"
points="48993,24843
48993,24565
48715,24565
48715,24843
48993,24843
" /> 
<polyline fill="none;"
points="49993,24843
49993,24565
49715,24565
49715,24843
49993,24843
" /> 
<polyline fill="none;"
points="41291,44338
41921,43708
41291,43078
40661,43708
41291,44338
" /> 
<polyline fill="none;"
points="73787,44334
74417,43704
73787,43074
73157,43704
73787,44334
" /> 
<polyline fill="none;"
points="71295,25346
71925,24716
71295,24086
70665,24716
71295,25346
" /> 
<polyline fill="none;"
points="41791,25342
42421,24712
41791,24082
41161,24712
41791,25342
" /> 
</g>
<g style="fill:#000000; fill-opacity:0.0; 
stroke:#000000; stroke-width:118.11; stroke-opacity:1; 
stroke-linecap:round; stroke-linejoin:round;">
<path d="M36911 46577
L36911 45396
L37192 45396
L37361 45452
L37473 45565
L37529 45677
L37586 45902
L37586 46071
L37529 46296
L37473 46408
L37361 46521
L37192 46577
L36911 46577
" />
<path d="M38092 46577
L38092 45790
" />
<path d="M38092 46015
L38148 45902
L38204 45846
L38317 45790
L38429 45790
" />
<path d="M38823 46577
L38823 45790
" />
<path d="M38823 45396
L38767 45452
L38823 45508
L38879 45452
L38823 45396
L38823 45508
" />
<path d="M39554 46577
L39442 46521
L39385 46408
L39385 45396
" />
<path d="M40173 46577
L40060 46521
L40004 46408
L40004 45396
" />
<path d="M41523 46577
L41523 45396
L41916 46240
L42310 45396
L42310 46577
" />
<path d="M43379 46577
L43379 45958
L43322 45846
L43210 45790
L42985 45790
L42872 45846
" />
<path d="M43379 46521
L43266 46577
L42985 46577
L42872 46521
L42816 46408
L42816 46296
L42872 46183
L42985 46127
L43266 46127
L43379 46071
" />
<path d="M43941 45790
L43941 46971
" />
<path d="M43941 45846
L44053 45790
L44278 45790
L44391 45846
L44447 45902
L44503 46015
L44503 46352
L44447 46465
L44391 46521
L44278 46577
L44053 46577
L43941 46521
" />
<path d="M45010 46465
L45066 46521
L45010 46577
L44953 46521
L45010 46465
L45010 46577
" />
<path d="M45010 45846
L45066 45902
L45010 45958
L44953 45902
L45010 45846
L45010 45958
" />
<path d="M35623 48443
L35783 48603
" />
<path d="M35783 48443
L35623 48603
" />
<path d="M37136 47876
L37248 47876
L37361 47933
L37417 47989
L37473 48101
L37529 48326
L37529 48607
L37473 48832
L37417 48945
L37361 49001
L37248 49057
L37136 49057
L37023 49001
L36967 48945
L36911 48832
L36854 48607
L36854 48326
L36911 48101
L36967 47989
L37023 47933
L37136 47876
" />
<path d="M38035 48945
L38092 49001
L38035 49057
L37979 49001
L38035 48945
L38035 49057
" />
<path d="M39104 48270
L39104 49057
" />
<path d="M38823 47820
L38542 48664
L39273 48664
" />
<path d="M40341 49057
L39667 49057
" />
<path d="M40004 49057
L40004 47876
L39892 48045
L39779 48158
L39667 48214
" />
<path d="M40848 49057
L40848 48270
" />
<path d="M40848 48383
L40904 48326
L41016 48270
L41185 48270
L41298 48326
L41354 48439
L41354 49057
" />
<path d="M41354 48439
L41410 48326
L41523 48270
L41691 48270
L41804 48326
L41860 48439
L41860 49057
" />
<path d="M42422 49057
L42422 48270
" />
<path d="M42422 48383
L42479 48326
L42591 48270
L42760 48270
L42872 48326
L42929 48439
L42929 49057
" />
<path d="M42929 48439
L42985 48326
L43097 48270
L43266 48270
L43379 48326
L43435 48439
L43435 49057
" />
<path d="M45741 47820
L44728 49339
" />
<path d="M47259 47876
L47372 47876
L47484 47933
L47541 47989
L47597 48101
L47653 48326
L47653 48607
L47597 48832
L47541 48945
L47484 49001
L47372 49057
L47259 49057
L47147 49001
L47091 48945
L47034 48832
L46978 48607
L46978 48326
L47034 48101
L47091 47989
L47147 47933
L47259 47876
" />
<path d="M48159 48945
L48215 49001
L48159 49057
L48103 49001
L48159 48945
L48159 49057
" />
<path d="M48947 47876
L49059 47876
L49172 47933
L49228 47989
L49284 48101
L49340 48326
L49340 48607
L49284 48832
L49228 48945
L49172 49001
L49059 49057
L48947 49057
L48834 49001
L48778 48945
L48722 48832
L48665 48607
L48665 48326
L48722 48101
L48778 47989
L48834 47933
L48947 47876
" />
<path d="M50465 49057
L49790 49057
" />
<path d="M50128 49057
L50128 47876
L50015 48045
L49903 48158
L49790 48214
" />
<path d="M51478 47876
L51253 47876
L51140 47933
L51084 47989
L50971 48158
L50915 48383
L50915 48832
L50971 48945
L51028 49001
L51140 49057
L51365 49057
L51478 49001
L51534 48945
L51590 48832
L51590 48551
L51534 48439
L51478 48383
L51365 48326
L51140 48326
L51028 48383
L50971 48439
L50915 48551
" />
<path d="M52040 47876
L52040 48101
" />
<path d="M52490 47876
L52490 48101
" />
<path d="M54233 49507
L54177 49451
L54065 49282
L54008 49170
L53952 49001
L53896 48720
L53896 48495
L53952 48214
L54008 48045
L54065 47933
L54177 47764
L54233 47708
" />
<path d="M55302 49057
L54627 49057
" />
<path d="M54965 49057
L54965 47876
L54852 48045
L54740 48158
L54627 48214
" />
<path d="M55696 47876
L56483 47876
L55977 49057
" />
<path d="M57552 49057
L56877 49057
" />
<path d="M57214 49057
L57214 47876
L57102 48045
L56989 48158
L56877 48214
" />
<path d="M58958 49057
L58958 47876
" />
<path d="M59464 49057
L59464 48439
L59408 48326
L59295 48270
L59127 48270
L59014 48326
L58958 48383
" />
<path d="M60195 49057
L60083 49001
L60026 48945
L59970 48832
L59970 48495
L60026 48383
L60083 48326
L60195 48270
L60364 48270
L60476 48326
L60533 48383
L60589 48495
L60589 48832
L60533 48945
L60476 49001
L60364 49057
L60195 49057
" />
<path d="M61264 49057
L61151 49001
L61095 48889
L61095 47876
" />
<path d="M62164 49001
L62051 49057
L61826 49057
L61714 49001
L61658 48889
L61658 48439
L61714 48326
L61826 48270
L62051 48270
L62164 48326
L62220 48439
L62220 48551
L61658 48664
" />
<path d="M62670 49001
L62782 49057
L63007 49057
L63120 49001
L63176 48889
L63176 48832
L63120 48720
L63007 48664
L62839 48664
L62726 48607
L62670 48495
L62670 48439
L62726 48326
L62839 48270
L63007 48270
L63120 48326
" />
<path d="M63570 49507
L63626 49451
L63739 49282
L63795 49170
L63851 49001
L63907 48720
L63907 48495
L63851 48214
L63795 48045
L63739 47933
L63626 47764
L63570 47708
" />
<circle cx="35655.5" cy="50082.7" r="127.953" /> 
<path d="M37136 49435
L37248 49435
L37361 49492
L37417 49548
L37473 49660
L37529 49885
L37529 50167
L37473 50392
L37417 50504
L37361 50560
L37248 50616
L37136 50616
L37023 50560
L36967 50504
L36911 50392
L36854 50167
L36854 49885
L36911 49660
L36967 49548
L37023 49492
L37136 49435
" />
<path d="M38035 50504
L38092 50560
L38035 50616
L37979 50560
L38035 50504
L38035 50616
" />
<path d="M39104 49435
L38879 49435
L38767 49492
L38710 49548
L38598 49717
L38542 49942
L38542 50392
L38598 50504
L38654 50560
L38767 50616
L38992 50616
L39104 50560
L39160 50504
L39217 50392
L39217 50110
L39160 49998
L39104 49942
L38992 49885
L38767 49885
L38654 49942
L38598 49998
L38542 50110
" />
<path d="M40285 49435
L39723 49435
L39667 49998
L39723 49942
L39835 49885
L40116 49885
L40229 49942
L40285 49998
L40341 50110
L40341 50392
L40285 50504
L40229 50560
L40116 50616
L39835 50616
L39723 50560
L39667 50504
" />
<path d="M40848 50616
L40848 49829
" />
<path d="M40848 49942
L40904 49885
L41016 49829
L41185 49829
L41298 49885
L41354 49998
L41354 50616
" />
<path d="M41354 49998
L41410 49885
L41523 49829
L41691 49829
L41804 49885
L41860 49998
L41860 50616
" />
<path d="M42422 50616
L42422 49829
" />
<path d="M42422 49942
L42479 49885
L42591 49829
L42760 49829
L42872 49885
L42929 49998
L42929 50616
" />
<path d="M42929 49998
L42985 49885
L43097 49829
L43266 49829
L43379 49885
L43435 49998
L43435 50616
" />
<path d="M45741 49379
L44728 50898
" />
<path d="M47259 49435
L47372 49435
L47484 49492
L47541 49548
L47597 49660
L47653 49885
L47653 50167
L47597 50392
L47541 50504
L47484 50560
L47372 50616
L47259 50616
L47147 50560
L47091 50504
L47034 50392
L46978 50167
L46978 49885
L47034 49660
L47091 49548
L47147 49492
L47259 49435
" />
<path d="M48159 50504
L48215 50560
L48159 50616
L48103 50560
L48159 50504
L48159 50616
" />
<path d="M48947 49435
L49059 49435
L49172 49492
L49228 49548
L49284 49660
L49340 49885
L49340 50167
L49284 50392
L49228 50504
L49172 50560
L49059 50616
L48947 50616
L48834 50560
L48778 50504
L48722 50392
L48665 50167
L48665 49885
L48722 49660
L48778 49548
L48834 49492
L48947 49435
" />
<path d="M49790 49548
L49847 49492
L49959 49435
L50240 49435
L50353 49492
L50409 49548
L50465 49660
L50465 49773
L50409 49942
L49734 50616
L50465 50616
" />
<path d="M51478 49435
L51253 49435
L51140 49492
L51084 49548
L50971 49717
L50915 49942
L50915 50392
L50971 50504
L51028 50560
L51140 50616
L51365 50616
L51478 50560
L51534 50504
L51590 50392
L51590 50110
L51534 49998
L51478 49942
L51365 49885
L51140 49885
L51028 49942
L50971 49998
L50915 50110
" />
<path d="M52040 49435
L52040 49660
" />
<path d="M52490 49435
L52490 49660
" />
<path d="M54233 51066
L54177 51010
L54065 50841
L54008 50729
L53952 50560
L53896 50279
L53896 50054
L53952 49773
L54008 49604
L54065 49492
L54177 49323
L54233 49267
" />
<path d="M54908 49435
L55021 49435
L55133 49492
L55190 49548
L55246 49660
L55302 49885
L55302 50167
L55246 50392
L55190 50504
L55133 50560
L55021 50616
L54908 50616
L54796 50560
L54740 50504
L54683 50392
L54627 50167
L54627 49885
L54683 49660
L54740 49548
L54796 49492
L54908 49435
" />
<path d="M56708 50616
L56708 49435
" />
<path d="M57214 50616
L57214 49998
L57158 49885
L57046 49829
L56877 49829
L56764 49885
L56708 49942
" />
<path d="M57946 50616
L57833 50560
L57777 50504
L57721 50392
L57721 50054
L57777 49942
L57833 49885
L57946 49829
L58114 49829
L58227 49885
L58283 49942
L58339 50054
L58339 50392
L58283 50504
L58227 50560
L58114 50616
L57946 50616
" />
<path d="M59014 50616
L58902 50560
L58845 50448
L58845 49435
" />
<path d="M59914 50560
L59802 50616
L59577 50616
L59464 50560
L59408 50448
L59408 49998
L59464 49885
L59577 49829
L59802 49829
L59914 49885
L59970 49998
L59970 50110
L59408 50223
" />
<path d="M60420 50560
L60533 50616
L60758 50616
L60870 50560
L60926 50448
L60926 50392
L60870 50279
L60758 50223
L60589 50223
L60476 50167
L60420 50054
L60420 49998
L60476 49885
L60589 49829
L60758 49829
L60870 49885
" />
<path d="M62332 50167
L63232 50167
" />
<path d="M62782 50616
L62782 49717
" />
<path d="M64638 49548
L64695 49492
L64807 49435
L65088 49435
L65201 49492
L65257 49548
L65313 49660
L65313 49773
L65257 49942
L64582 50616
L65313 50616
" />
<path d="M66663 50560
L66776 50616
L67001 50616
L67113 50560
L67169 50448
L67169 50392
L67113 50279
L67001 50223
L66832 50223
L66719 50167
L66663 50054
L66663 49998
L66719 49885
L66832 49829
L67001 49829
L67113 49885
" />
<path d="M67844 50616
L67732 50560
L67676 50448
L67676 49435
" />
<path d="M68463 50616
L68350 50560
L68294 50504
L68238 50392
L68238 50054
L68294 49942
L68350 49885
L68463 49829
L68632 49829
L68744 49885
L68800 49942
L68857 50054
L68857 50392
L68800 50504
L68744 50560
L68632 50616
L68463 50616
" />
<path d="M69194 49829
L69644 49829
" />
<path d="M69363 49435
L69363 50448
L69419 50560
L69532 50616
L69644 50616
" />
<path d="M69982 50560
L70094 50616
L70319 50616
L70431 50560
L70488 50448
L70488 50392
L70431 50279
L70319 50223
L70150 50223
L70038 50167
L69982 50054
L69982 49998
L70038 49885
L70150 49829
L70319 49829
L70431 49885
" />
<path d="M70881 51066
L70938 51010
L71050 50841
L71106 50729
L71163 50560
L71219 50279
L71219 50054
L71163 49773
L71106 49604
L71050 49492
L70938 49323
L70881 49267
" />
<path d="M35621 51479
L35621 51804
" />
<path d="M35458 51641
L35783 51641
" />
<path d="M37136 50994
L37248 50994
L37361 51051
L37417 51107
L37473 51219
L37529 51444
L37529 51726
L37473 51951
L37417 52063
L37361 52119
L37248 52176
L37136 52176
L37023 52119
L36967 52063
L36911 51951
L36854 51726
L36854 51444
L36911 51219
L36967 51107
L37023 51051
L37136 50994
" />
<path d="M38035 52063
L38092 52119
L38035 52176
L37979 52119
L38035 52063
L38035 52176
" />
<path d="M38767 51501
L38654 51444
L38598 51388
L38542 51276
L38542 51219
L38598 51107
L38654 51051
L38767 50994
L38992 50994
L39104 51051
L39160 51107
L39217 51219
L39217 51276
L39160 51388
L39104 51444
L38992 51501
L38767 51501
L38654 51557
L38598 51613
L38542 51726
L38542 51951
L38598 52063
L38654 52119
L38767 52176
L38992 52176
L39104 52119
L39160 52063
L39217 51951
L39217 51726
L39160 51613
L39104 51557
L38992 51501
" />
<path d="M39667 51107
L39723 51051
L39835 50994
L40116 50994
L40229 51051
L40285 51107
L40341 51219
L40341 51332
L40285 51501
L39610 52176
L40341 52176
" />
<path d="M40848 52176
L40848 51388
" />
<path d="M40848 51501
L40904 51444
L41016 51388
L41185 51388
L41298 51444
L41354 51557
L41354 52176
" />
<path d="M41354 51557
L41410 51444
L41523 51388
L41691 51388
L41804 51444
L41860 51557
L41860 52176
" />
<path d="M42422 52176
L42422 51388
" />
<path d="M42422 51501
L42479 51444
L42591 51388
L42760 51388
L42872 51444
L42929 51557
L42929 52176
" />
<path d="M42929 51557
L42985 51444
L43097 51388
L43266 51388
L43379 51444
L43435 51557
L43435 52176
" />
<path d="M45741 50938
L44728 52457
" />
<path d="M47259 50994
L47372 50994
L47484 51051
L47541 51107
L47597 51219
L47653 51444
L47653 51726
L47597 51951
L47541 52063
L47484 52119
L47372 52176
L47259 52176
L47147 52119
L47091 52063
L47034 51951
L46978 51726
L46978 51444
L47034 51219
L47091 51107
L47147 51051
L47259 50994
" />
<path d="M48159 52063
L48215 52119
L48159 52176
L48103 52119
L48159 52063
L48159 52176
" />
<path d="M48947 50994
L49059 50994
L49172 51051
L49228 51107
L49284 51219
L49340 51444
L49340 51726
L49284 51951
L49228 52063
L49172 52119
L49059 52176
L48947 52176
L48834 52119
L48778 52063
L48722 51951
L48665 51726
L48665 51444
L48722 51219
L48778 51107
L48834 51051
L48947 50994
" />
<path d="M49734 50994
L50465 50994
L50071 51444
L50240 51444
L50353 51501
L50409 51557
L50465 51669
L50465 51951
L50409 52063
L50353 52119
L50240 52176
L49903 52176
L49790 52119
L49734 52063
" />
<path d="M50915 51107
L50971 51051
L51084 50994
L51365 50994
L51478 51051
L51534 51107
L51590 51219
L51590 51332
L51534 51501
L50859 52176
L51590 52176
" />
<path d="M52040 50994
L52040 51219
" />
<path d="M52490 50994
L52490 51219
" />
<path d="M54233 52625
L54177 52569
L54065 52401
L54008 52288
L53952 52119
L53896 51838
L53896 51613
L53952 51332
L54008 51163
L54065 51051
L54177 50882
L54233 50826
" />
<path d="M54908 50994
L55021 50994
L55133 51051
L55190 51107
L55246 51219
L55302 51444
L55302 51726
L55246 51951
L55190 52063
L55133 52119
L55021 52176
L54908 52176
L54796 52119
L54740 52063
L54683 51951
L54627 51726
L54627 51444
L54683 51219
L54740 51107
L54796 51051
L54908 50994
" />
<path d="M56708 52176
L56708 50994
" />
<path d="M57214 52176
L57214 51557
L57158 51444
L57046 51388
L56877 51388
L56764 51444
L56708 51501
" />
<path d="M57946 52176
L57833 52119
L57777 52063
L57721 51951
L57721 51613
L57777 51501
L57833 51444
L57946 51388
L58114 51388
L58227 51444
L58283 51501
L58339 51613
L58339 51951
L58283 52063
L58227 52119
L58114 52176
L57946 52176
" />
<path d="M59014 52176
L58902 52119
L58845 52007
L58845 50994
" />
<path d="M59914 52119
L59802 52176
L59577 52176
L59464 52119
L59408 52007
L59408 51557
L59464 51444
L59577 51388
L59802 51388
L59914 51444
L59970 51557
L59970 51669
L59408 51782
" />
<path d="M60420 52119
L60533 52176
L60758 52176
L60870 52119
L60926 52007
L60926 51951
L60870 51838
L60758 51782
L60589 51782
L60476 51726
L60420 51613
L60420 51557
L60476 51444
L60589 51388
L60758 51388
L60870 51444
" />
<path d="M62332 51726
L63232 51726
" />
<path d="M62782 52176
L62782 51276
" />
<path d="M64638 51107
L64695 51051
L64807 50994
L65088 50994
L65201 51051
L65257 51107
L65313 51219
L65313 51332
L65257 51501
L64582 52176
L65313 52176
" />
<path d="M66663 52119
L66776 52176
L67001 52176
L67113 52119
L67169 52007
L67169 51951
L67113 51838
L67001 51782
L66832 51782
L66719 51726
L66663 51613
L66663 51557
L66719 51444
L66832 51388
L67001 51388
L67113 51444
" />
<path d="M67844 52176
L67732 52119
L67676 52007
L67676 50994
" />
<path d="M68463 52176
L68350 52119
L68294 52063
L68238 51951
L68238 51613
L68294 51501
L68350 51444
L68463 51388
L68632 51388
L68744 51444
L68800 51501
L68857 51613
L68857 51951
L68800 52063
L68744 52119
L68632 52176
L68463 52176
" />
<path d="M69194 51388
L69644 51388
" />
<path d="M69363 50994
L69363 52007
L69419 52119
L69532 52176
L69644 52176
" />
<path d="M69982 52119
L70094 52176
L70319 52176
L70431 52119
L70488 52007
L70488 51951
L70431 51838
L70319 51782
L70150 51782
L70038 51726
L69982 51613
L69982 51557
L70038 51444
L70150 51388
L70319 51388
L70431 51444
" />
<path d="M70881 52625
L70938 52569
L71050 52401
L71106 52288
L71163 52119
L71219 51838
L71219 51613
L71163 51332
L71106 51163
L71050 51051
L70938 50882
L70881 50826
" />
<polyline fill="none;"
points="35725,53339
35725,53061
35447,53061
35447,53339
35725,53339
" /> 
<path d="M37529 53735
L36854 53735
" />
<path d="M37192 53735
L37192 52553
L37079 52722
L36967 52835
L36854 52891
" />
<path d="M38035 53622
L38092 53678
L38035 53735
L37979 53678
L38035 53622
L38035 53735
" />
<path d="M38823 52553
L38935 52553
L39048 52610
L39104 52666
L39160 52778
L39217 53003
L39217 53285
L39160 53510
L39104 53622
L39048 53678
L38935 53735
L38823 53735
L38710 53678
L38654 53622
L38598 53510
L38542 53285
L38542 53003
L38598 52778
L38654 52666
L38710 52610
L38823 52553
" />
<path d="M39948 52553
L40060 52553
L40173 52610
L40229 52666
L40285 52778
L40341 53003
L40341 53285
L40285 53510
L40229 53622
L40173 53678
L40060 53735
L39948 53735
L39835 53678
L39779 53622
L39723 53510
L39667 53285
L39667 53003
L39723 52778
L39779 52666
L39835 52610
L39948 52553
" />
<path d="M40848 53735
L40848 52947
" />
<path d="M40848 53060
L40904 53003
L41016 52947
L41185 52947
L41298 53003
L41354 53116
L41354 53735
" />
<path d="M41354 53116
L41410 53003
L41523 52947
L41691 52947
L41804 53003
L41860 53116
L41860 53735
" />
<path d="M42422 53735
L42422 52947
" />
<path d="M42422 53060
L42479 53003
L42591 52947
L42760 52947
L42872 53003
L42929 53116
L42929 53735
" />
<path d="M42929 53116
L42985 53003
L43097 52947
L43266 52947
L43379 53003
L43435 53116
L43435 53735
" />
<path d="M45741 52497
L44728 54016
" />
<path d="M47259 52553
L47372 52553
L47484 52610
L47541 52666
L47597 52778
L47653 53003
L47653 53285
L47597 53510
L47541 53622
L47484 53678
L47372 53735
L47259 53735
L47147 53678
L47091 53622
L47034 53510
L46978 53285
L46978 53003
L47034 52778
L47091 52666
L47147 52610
L47259 52553
" />
<path d="M48159 53622
L48215 53678
L48159 53735
L48103 53678
L48159 53622
L48159 53735
" />
<path d="M48947 52553
L49059 52553
L49172 52610
L49228 52666
L49284 52778
L49340 53003
L49340 53285
L49284 53510
L49228 53622
L49172 53678
L49059 53735
L48947 53735
L48834 53678
L48778 53622
L48722 53510
L48665 53285
L48665 53003
L48722 52778
L48778 52666
L48834 52610
L48947 52553
" />
<path d="M49734 52553
L50465 52553
L50071 53003
L50240 53003
L50353 53060
L50409 53116
L50465 53228
L50465 53510
L50409 53622
L50353 53678
L50240 53735
L49903 53735
L49790 53678
L49734 53622
" />
<path d="M51028 53735
L51253 53735
L51365 53678
L51421 53622
L51534 53453
L51590 53228
L51590 52778
L51534 52666
L51478 52610
L51365 52553
L51140 52553
L51028 52610
L50971 52666
L50915 52778
L50915 53060
L50971 53172
L51028 53228
L51140 53285
L51365 53285
L51478 53228
L51534 53172
L51590 53060
" />
<path d="M52040 52553
L52040 52778
" />
<path d="M52490 52553
L52490 52778
" />
<path d="M54233 54185
L54177 54128
L54065 53960
L54008 53847
L53952 53678
L53896 53397
L53896 53172
L53952 52891
L54008 52722
L54065 52610
L54177 52441
L54233 52385
" />
<path d="M54852 53060
L54740 53003
L54683 52947
L54627 52835
L54627 52778
L54683 52666
L54740 52610
L54852 52553
L55077 52553
L55190 52610
L55246 52666
L55302 52778
L55302 52835
L55246 52947
L55190 53003
L55077 53060
L54852 53060
L54740 53116
L54683 53172
L54627 53285
L54627 53510
L54683 53622
L54740 53678
L54852 53735
L55077 53735
L55190 53678
L55246 53622
L55302 53510
L55302 53285
L55246 53172
L55190 53116
L55077 53060
" />
<path d="M56427 53735
L55752 53735
" />
<path d="M56089 53735
L56089 52553
L55977 52722
L55865 52835
L55752 52891
" />
<path d="M57833 53735
L57833 52553
" />
<path d="M58339 53735
L58339 53116
L58283 53003
L58170 52947
L58002 52947
L57889 53003
L57833 53060
" />
<path d="M59070 53735
L58958 53678
L58902 53622
L58845 53510
L58845 53172
L58902 53060
L58958 53003
L59070 52947
L59239 52947
L59352 53003
L59408 53060
L59464 53172
L59464 53510
L59408 53622
L59352 53678
L59239 53735
L59070 53735
" />
<path d="M60139 53735
L60026 53678
L59970 53566
L59970 52553
" />
<path d="M61039 53678
L60926 53735
L60701 53735
L60589 53678
L60533 53566
L60533 53116
L60589 53003
L60701 52947
L60926 52947
L61039 53003
L61095 53116
L61095 53228
L60533 53341
" />
<path d="M61545 53678
L61658 53735
L61883 53735
L61995 53678
L62051 53566
L62051 53510
L61995 53397
L61883 53341
L61714 53341
L61601 53285
L61545 53172
L61545 53116
L61601 53003
L61714 52947
L61883 52947
L61995 53003
" />
<path d="M62445 54185
L62501 54128
L62614 53960
L62670 53847
L62726 53678
L62782 53397
L62782 53172
L62726 52891
L62670 52722
L62614 52610
L62501 52441
L62445 52385
" />
<polyline fill="none;"
points="35153,55389
35783,54759
35153,54129
34523,54759
35153,55389
" /> 
<path d="M36798 54113
L37529 54113
L37136 54562
L37304 54562
L37417 54619
L37473 54675
L37529 54787
L37529 55069
L37473 55181
L37417 55237
L37304 55294
L36967 55294
L36854 55237
L36798 55181
" />
<path d="M38035 55181
L38092 55237
L38035 55294
L37979 55237
L38035 55181
L38035 55294
" />
<path d="M38542 54225
L38598 54169
L38710 54113
L38992 54113
L39104 54169
L39160 54225
L39217 54338
L39217 54450
L39160 54619
L38485 55294
L39217 55294
" />
<path d="M39948 54113
L40060 54113
L40173 54169
L40229 54225
L40285 54338
L40341 54562
L40341 54844
L40285 55069
L40229 55181
L40173 55237
L40060 55294
L39948 55294
L39835 55237
L39779 55181
L39723 55069
L39667 54844
L39667 54562
L39723 54338
L39779 54225
L39835 54169
L39948 54113
" />
<path d="M40848 55294
L40848 54506
" />
<path d="M40848 54619
L40904 54562
L41016 54506
L41185 54506
L41298 54562
L41354 54675
L41354 55294
" />
<path d="M41354 54675
L41410 54562
L41523 54506
L41691 54506
L41804 54562
L41860 54675
L41860 55294
" />
<path d="M42422 55294
L42422 54506
" />
<path d="M42422 54619
L42479 54562
L42591 54506
L42760 54506
L42872 54562
L42929 54675
L42929 55294
" />
<path d="M42929 54675
L42985 54562
L43097 54506
L43266 54506
L43379 54562
L43435 54675
L43435 55294
" />
<path d="M45741 54056
L44728 55575
" />
<path d="M47259 54113
L47372 54113
L47484 54169
L47541 54225
L47597 54338
L47653 54562
L47653 54844
L47597 55069
L47541 55181
L47484 55237
L47372 55294
L47259 55294
L47147 55237
L47091 55181
L47034 55069
L46978 54844
L46978 54562
L47034 54338
L47091 54225
L47147 54169
L47259 54113
" />
<path d="M48159 55181
L48215 55237
L48159 55294
L48103 55237
L48159 55181
L48159 55294
" />
<path d="M49340 55294
L48665 55294
" />
<path d="M49003 55294
L49003 54113
L48890 54281
L48778 54394
L48665 54450
" />
<path d="M49790 54225
L49847 54169
L49959 54113
L50240 54113
L50353 54169
L50409 54225
L50465 54338
L50465 54450
L50409 54619
L49734 55294
L50465 55294
" />
<path d="M51478 54113
L51253 54113
L51140 54169
L51084 54225
L50971 54394
L50915 54619
L50915 55069
L50971 55181
L51028 55237
L51140 55294
L51365 55294
L51478 55237
L51534 55181
L51590 55069
L51590 54787
L51534 54675
L51478 54619
L51365 54562
L51140 54562
L51028 54619
L50971 54675
L50915 54787
" />
<path d="M52040 54113
L52040 54338
" />
<path d="M52490 54113
L52490 54338
" />
<path d="M54233 55744
L54177 55687
L54065 55519
L54008 55406
L53952 55237
L53896 54956
L53896 54731
L53952 54450
L54008 54281
L54065 54169
L54177 54000
L54233 53944
" />
<path d="M55190 54506
L55190 55294
" />
<path d="M54908 54056
L54627 54900
L55358 54900
" />
<path d="M56708 55294
L56708 54113
" />
<path d="M57214 55294
L57214 54675
L57158 54562
L57046 54506
L56877 54506
L56764 54562
L56708 54619
" />
<path d="M57946 55294
L57833 55237
L57777 55181
L57721 55069
L57721 54731
L57777 54619
L57833 54562
L57946 54506
L58114 54506
L58227 54562
L58283 54619
L58339 54731
L58339 55069
L58283 55181
L58227 55237
L58114 55294
L57946 55294
" />
<path d="M59014 55294
L58902 55237
L58845 55125
L58845 54113
" />
<path d="M59914 55237
L59802 55294
L59577 55294
L59464 55237
L59408 55125
L59408 54675
L59464 54562
L59577 54506
L59802 54506
L59914 54562
L59970 54675
L59970 54787
L59408 54900
" />
<path d="M60420 55237
L60533 55294
L60758 55294
L60870 55237
L60926 55125
L60926 55069
L60870 54956
L60758 54900
L60589 54900
L60476 54844
L60420 54731
L60420 54675
L60476 54562
L60589 54506
L60758 54506
L60870 54562
" />
<path d="M61320 55744
L61376 55687
L61489 55519
L61545 55406
L61601 55237
L61658 54956
L61658 54731
L61601 54450
L61545 54281
L61489 54169
L61376 54000
L61320 53944
" />
</g> 
</svg>
