<?xml version="1.0" standalone="no"?>
 <!DOCTYPE svg PUBLIC "-//W3C//DTD SVG 1.1//EN" 
 "http://www.w3.org/Graphics/SVG/1.1/DTD/svg11.dtd"> 
<svg
  xmlns:svg="http://www.w3.org/2000/svg"
  xmlns="http://www.w3.org/2000/svg"
  xmlns:xlink="http://www.w3.org/1999/xlink"
  version="1.1"
  width="29.700220cm" height="21.000720cm" viewBox="0 0 116930 82680">
<title>SVG Picture created as PSLab-drl_map.svg date 2020/05/18 15:45:36 </title>
  <desc>Picture generated by PCBNEW </desc>
<g style="fill:#000000; fill-opacity:1;stroke:#000000; stroke-opacity:1;
stroke-linecap:round; stroke-linejoin:round;"
 transform="translate(0 0) scale(1 1)">
</g>
<g style="fill:#000000; fill-opacity:0.0; 
stroke:#000000; stroke-width:-0.000393701; stroke-opacity:1; 
stroke-linecap:round; stroke-linejoin:round;">
</g>
<g style="fill:#000000; fill-opacity:0.0; 
stroke:#000000; stroke-width:39.3701; stroke-opacity:1; 
stroke-linecap:round; stroke-linejoin:round;">
<path d="M35803 44716
L35803 23728
" />
<path d="M74791 44716
L35803 44716
" />
<path d="M74791 24326
L74791 44716
" />
<path d="M74192 23728
L74791 24326
" />
<path d="M35803 23728
L74192 23728
" />
</g>
<g style="fill:#000000; fill-opacity:0.0; 
stroke:#000000; stroke-width:78.7402; stroke-opacity:1; 
stroke-linecap:round; stroke-linejoin:round;">
<path d="M36299 33414
L36459 33574
" />
<path d="M36459 33414
L36299 33574
" />
<path d="M36360 43509
L36520 43669
" />
<path d="M36520 43509
L36360 43669
" />
<path d="M37020 42329
L37180 42489
" />
<path d="M37180 42329
L37020 42489
" />
<path d="M37859 32238
L38019 32398
" />
<path d="M38019 32238
L37859 32398
" />
<path d="M38210 36649
L38370 36809
" />
<path d="M38370 36649
L38210 36809
" />
<path d="M38240 42309
L38400 42469
" />
<path d="M38400 42309
L38240 42469
" />
<path d="M38246 24455
L38406 24615
" />
<path d="M38406 24455
L38246 24615
" />
<path d="M38246 24825
L38406 24985
" />
<path d="M38406 24825
L38246 24985
" />
<path d="M38246 25191
L38406 25351
" />
<path d="M38406 25191
L38246 25351
" />
<path d="M38345 28108
L38505 28268
" />
<path d="M38505 28108
L38345 28268
" />
<path d="M38345 29821
L38505 29981
" />
<path d="M38505 29821
L38345 29981
" />
<path d="M38379 28955
L38539 29115
" />
<path d="M38539 28955
L38379 29115
" />
<path d="M38830 34359
L38990 34519
" />
<path d="M38990 34359
L38830 34519
" />
<path d="M38896 25951
L39056 26111
" />
<path d="M39056 25951
L38896 26111
" />
<path d="M39030 30687
L39190 30847
" />
<path d="M39190 30687
L39030 30847
" />
<path d="M39301 28423
L39461 28583
" />
<path d="M39461 28423
L39301 28583
" />
<path d="M39758 30687
L39918 30847
" />
<path d="M39918 30687
L39758 30847
" />
<path d="M40156 35400
L40316 35560
" />
<path d="M40316 35400
L40156 35560
" />
<path d="M40200 39289
L40360 39449
" />
<path d="M40360 39289
L40200 39449
" />
<path d="M40238 28097
L40398 28257
" />
<path d="M40398 28097
L40238 28257
" />
<path d="M40341 30687
L40501 30847
" />
<path d="M40501 30687
L40341 30847
" />
<path d="M40374 33414
L40534 33574
" />
<path d="M40534 33414
L40374 33574
" />
<path d="M40916 29394
L41076 29554
" />
<path d="M41076 29394
L40916 29554
" />
<path d="M41045 32723
L41205 32883
" />
<path d="M41205 32723
L41045 32883
" />
<path d="M41101 27632
L41261 27792
" />
<path d="M41261 27632
L41101 27792
" />
<path d="M41128 30687
L41288 30847
" />
<path d="M41288 30687
L41128 30847
" />
<path d="M41294 35892
L41454 36052
" />
<path d="M41454 35892
L41294 36052
" />
<path d="M41294 36325
L41454 36485
" />
<path d="M41454 36325
L41294 36485
" />
<path d="M41294 36762
L41454 36922
" />
<path d="M41454 36762
L41294 36922
" />
<path d="M41880 28427
L42040 28587
" />
<path d="M42040 28427
L41880 28587
" />
<path d="M41888 26219
L42048 26379
" />
<path d="M42048 26219
L41888 26379
" />
<path d="M42199 28955
L42359 29115
" />
<path d="M42359 28955
L42199 29115
" />
<path d="M42199 29821
L42359 29981
" />
<path d="M42359 29821
L42199 29981
" />
<path d="M43112 34187
L43272 34347
" />
<path d="M43272 34187
L43112 34347
" />
<path d="M43112 34703
L43272 34863
" />
<path d="M43272 34703
L43112 34863
" />
<path d="M43112 35211
L43272 35371
" />
<path d="M43272 35211
L43112 35371
" />
<path d="M43534 29732
L43694 29892
" />
<path d="M43694 29732
L43534 29892
" />
<path d="M44197 26093
L44357 26253
" />
<path d="M44357 26093
L44197 26253
" />
<path d="M44610 42169
L44770 42329
" />
<path d="M44770 42169
L44610 42329
" />
<path d="M45038 40032
L45198 40192
" />
<path d="M45198 40032
L45038 40192
" />
<path d="M45073 35211
L45233 35371
" />
<path d="M45233 35211
L45073 35371
" />
<path d="M45073 35845
L45233 36005
" />
<path d="M45233 35845
L45073 36005
" />
<path d="M45077 31108
L45237 31268
" />
<path d="M45237 31108
L45077 31268
" />
<path d="M45077 33522
L45237 33682
" />
<path d="M45237 33522
L45077 33682
" />
<path d="M45081 34187
L45241 34347
" />
<path d="M45241 34187
L45081 34347
" />
<path d="M45510 42319
L45670 42479
" />
<path d="M45670 42319
L45510 42479
" />
<path d="M46408 28931
L46568 29091
" />
<path d="M46568 28931
L46408 29091
" />
<path d="M46590 34539
L46750 34699
" />
<path d="M46750 34539
L46590 34699
" />
<path d="M46809 39116
L46969 39276
" />
<path d="M46969 39116
L46809 39276
" />
<path d="M48045 29530
L48205 29690
" />
<path d="M48205 29530
L48045 29690
" />
<path d="M48246 25325
L48406 25485
" />
<path d="M48406 25325
L48246 25485
" />
<path d="M48610 40529
L48770 40689
" />
<path d="M48770 40529
L48610 40689
" />
<path d="M48660 38812
L48820 38972
" />
<path d="M48820 38812
L48660 38972
" />
<path d="M48721 39890
L48881 40050
" />
<path d="M48881 39890
L48721 40050
" />
<path d="M49220 38339
L49380 38499
" />
<path d="M49380 38339
L49220 38499
" />
<path d="M49690 40769
L49850 40929
" />
<path d="M49850 40769
L49690 40929
" />
<path d="M50404 34565
L50564 34725
" />
<path d="M50564 34565
L50404 34725
" />
<path d="M50876 33857
L51036 34017
" />
<path d="M51036 33857
L50876 34017
" />
<path d="M50876 34368
L51036 34528
" />
<path d="M51036 34368
L50876 34528
" />
<path d="M50876 34368
L51036 34528
" />
<path d="M51036 34368
L50876 34528
" />
<path d="M51227 40805
L51387 40965
" />
<path d="M51387 40805
L51227 40965
" />
<path d="M51231 39305
L51391 39465
" />
<path d="M51391 39305
L51231 39465
" />
<path d="M51309 33699
L51469 33859
" />
<path d="M51469 33699
L51309 33859
" />
<path d="M51309 33699
L51469 33859
" />
<path d="M51469 33699
L51309 33859
" />
<path d="M52191 32719
L52351 32879
" />
<path d="M52351 32719
L52191 32879
" />
<path d="M52220 40309
L52380 40469
" />
<path d="M52380 40309
L52220 40469
" />
<path d="M52699 34203
L52859 34363
" />
<path d="M52859 34203
L52699 34363
" />
<path d="M52931 36632
L53091 36792
" />
<path d="M53091 36632
L52931 36792
" />
<path d="M53089 39912
L53249 40072
" />
<path d="M53249 39912
L53089 40072
" />
<path d="M53160 34821
L53320 34981
" />
<path d="M53320 34821
L53160 34981
" />
<path d="M53286 37065
L53446 37225
" />
<path d="M53446 37065
L53286 37225
" />
<path d="M53412 35794
L53572 35954
" />
<path d="M53572 35794
L53412 35954
" />
<path d="M53447 34195
L53607 34355
" />
<path d="M53607 34195
L53447 34355
" />
<path d="M53455 41809
L53615 41969
" />
<path d="M53615 41809
L53455 41969
" />
<path d="M53687 36652
L53847 36812
" />
<path d="M53847 36652
L53687 36812
" />
<path d="M53797 29097
L53957 29257
" />
<path d="M53957 29097
L53797 29257
" />
<path d="M54144 41305
L54304 41465
" />
<path d="M54304 41305
L54144 41465
" />
<path d="M54246 27998
L54406 28158
" />
<path d="M54406 27998
L54246 28158
" />
<path d="M54368 34337
L54528 34497
" />
<path d="M54528 34337
L54368 34497
" />
<path d="M54475 40305
L54635 40465
" />
<path d="M54635 40305
L54475 40465
" />
<path d="M54479 40805
L54639 40965
" />
<path d="M54639 40805
L54479 40965
" />
<path d="M54486 42305
L54646 42465
" />
<path d="M54646 42305
L54486 42465
" />
<path d="M54671 36931
L54831 37091
" />
<path d="M54831 36931
L54671 37091
" />
<path d="M54939 27652
L55099 27812
" />
<path d="M55099 27652
L54939 27812
" />
<path d="M55042 36585
L55202 36745
" />
<path d="M55202 36585
L55042 36745
" />
<path d="M55065 34420
L55225 34580
" />
<path d="M55225 34420
L55065 34580
" />
<path d="M55254 33896
L55414 34056
" />
<path d="M55414 33896
L55254 34056
" />
<path d="M55278 29849
L55438 30009
" />
<path d="M55438 29849
L55278 30009
" />
<path d="M55518 36234
L55678 36394
" />
<path d="M55678 36234
L55518 36394
" />
<path d="M55534 35786
L55694 35946
" />
<path d="M55694 35786
L55534 35946
" />
<path d="M55679 29305
L55839 29465
" />
<path d="M55839 29305
L55679 29465
" />
<path d="M55758 36998
L55918 37158
" />
<path d="M55918 36998
L55758 37158
" />
<path d="M55817 31486
L55977 31646
" />
<path d="M55977 31486
L55817 31646
" />
<path d="M56231 41664
L56391 41824
" />
<path d="M56391 41664
L56231 41824
" />
<path d="M56234 30388
L56394 30548
" />
<path d="M56394 30388
L56234 30548
" />
<path d="M56246 31916
L56406 32076
" />
<path d="M56406 31916
L56246 32076
" />
<path d="M56565 37888
L56725 38048
" />
<path d="M56725 37888
L56565 38048
" />
<path d="M56864 32829
L57024 32989
" />
<path d="M57024 32829
L56864 32989
" />
<path d="M56920 41652
L57080 41812
" />
<path d="M57080 41652
L56920 41812
" />
<path d="M57057 33471
L57217 33631
" />
<path d="M57217 33471
L57057 33631
" />
<path d="M57160 26979
L57320 27139
" />
<path d="M57320 26979
L57160 27139
" />
<path d="M57242 35274
L57402 35434
" />
<path d="M57402 35274
L57242 35434
" />
<path d="M57479 30400
L57639 30560
" />
<path d="M57639 30400
L57479 30560
" />
<path d="M57675 41648
L57835 41808
" />
<path d="M57835 41648
L57675 41808
" />
<path d="M58093 30400
L58253 30560
" />
<path d="M58253 30400
L58093 30560
" />
<path d="M58423 41640
L58583 41800
" />
<path d="M58583 41640
L58423 41800
" />
<path d="M59081 36880
L59241 37040
" />
<path d="M59241 36880
L59081 37040
" />
<path d="M59152 26935
L59312 27095
" />
<path d="M59312 26935
L59152 27095
" />
<path d="M59234 33439
L59394 33599
" />
<path d="M59394 33439
L59234 33599
" />
<path d="M59266 35321
L59426 35481
" />
<path d="M59426 35321
L59266 35481
" />
<path d="M59376 30624
L59536 30784
" />
<path d="M59536 30624
L59376 30784
" />
<path d="M59463 32384
L59623 32544
" />
<path d="M59623 32384
L59463 32544
" />
<path d="M59612 41486
L59772 41646
" />
<path d="M59772 41486
L59612 41646
" />
<path d="M59860 27400
L60020 27560
" />
<path d="M60020 27400
L59860 27560
" />
<path d="M60112 34278
L60272 34438
" />
<path d="M60272 34278
L60112 34438
" />
<path d="M60112 39640
L60272 39800
" />
<path d="M60272 39640
L60112 39800
" />
<path d="M60116 41475
L60276 41635
" />
<path d="M60276 41475
L60116 41635
" />
<path d="M60829 30982
L60989 31142
" />
<path d="M60989 30982
L60829 31142
" />
<path d="M60833 34262
L60993 34422
" />
<path d="M60993 34262
L60833 34422
" />
<path d="M61065 28498
L61225 28658
" />
<path d="M61225 28498
L61065 28658
" />
<path d="M61108 35860
L61268 36020
" />
<path d="M61268 35860
L61108 36020
" />
<path d="M61179 27656
L61339 27816
" />
<path d="M61339 27656
L61179 27816
" />
<path d="M61357 38916
L61517 39076
" />
<path d="M61517 38916
L61357 39076
" />
<path d="M61522 30971
L61682 31131
" />
<path d="M61682 30971
L61522 31131
" />
<path d="M61601 41553
L61761 41713
" />
<path d="M61761 41553
L61601 41713
" />
<path d="M61695 32479
L61855 32639
" />
<path d="M61855 32479
L61695 32639
" />
<path d="M62081 37518
L62241 37678
" />
<path d="M62241 37518
L62081 37678
" />
<path d="M62254 28526
L62414 28686
" />
<path d="M62414 28526
L62254 28686
" />
<path d="M62986 26002
L63146 26162
" />
<path d="M63146 26002
L62986 26162
" />
<path d="M62986 31482
L63146 31642
" />
<path d="M63146 31482
L62986 31642
" />
<path d="M63164 26947
L63324 27107
" />
<path d="M63324 26947
L63164 27107
" />
<path d="M63435 28069
L63595 28229
" />
<path d="M63595 28069
L63435 28229
" />
<path d="M63437 37406
L63597 37566
" />
<path d="M63597 37406
L63437 37566
" />
<path d="M63782 31294
L63942 31454
" />
<path d="M63942 31294
L63782 31454
" />
<path d="M63998 39479
L64158 39639
" />
<path d="M64158 39479
L63998 39639
" />
<path d="M64368 27498
L64528 27658
" />
<path d="M64528 27498
L64368 27658
" />
<path d="M65022 31443
L65182 31603
" />
<path d="M65182 31443
L65022 31603
" />
<path d="M65467 38912
L65627 39072
" />
<path d="M65627 38912
L65467 39072
" />
<path d="M65538 41778
L65698 41938
" />
<path d="M65698 41778
L65538 41938
" />
<path d="M65542 42164
L65702 42324
" />
<path d="M65702 42164
L65542 42324
" />
<path d="M65542 42549
L65702 42709
" />
<path d="M65702 42549
L65542 42709
" />
<path d="M65864 31931
L66024 32091
" />
<path d="M66024 31931
L65864 32091
" />
<path d="M65912 25998
L66072 26158
" />
<path d="M66072 25998
L65912 26158
" />
<path d="M66108 34416
L66268 34576
" />
<path d="M66268 34416
L66108 34576
" />
<path d="M66120 35908
L66280 36068
" />
<path d="M66280 35908
L66120 36068
" />
<path d="M66128 35416
L66288 35576
" />
<path d="M66288 35416
L66128 35576
" />
<path d="M66250 38916
L66410 39076
" />
<path d="M66410 38916
L66250 39076
" />
<path d="M66262 38420
L66422 38580
" />
<path d="M66422 38420
L66262 38580
" />
<path d="M66266 37923
L66426 38083
" />
<path d="M66426 37923
L66266 38083
" />
<path d="M66266 37423
L66426 37583
" />
<path d="M66426 37423
L66266 37583
" />
<path d="M67038 36668
L67198 36828
" />
<path d="M67198 36668
L67038 36828
" />
<path d="M67061 27998
L67221 28158
" />
<path d="M67221 27998
L67061 28158
" />
<path d="M67530 34392
L67690 34552
" />
<path d="M67690 34392
L67530 34552
" />
<path d="M67892 26998
L68052 27158
" />
<path d="M68052 26998
L67892 27158
" />
<path d="M67892 27498
L68052 27658
" />
<path d="M68052 27498
L67892 27658
" />
<path d="M67935 32384
L68095 32544
" />
<path d="M68095 32384
L67935 32544
" />
<path d="M67990 39502
L68150 39662
" />
<path d="M68150 39502
L67990 39662
" />
<path d="M68038 43620
L68198 43780
" />
<path d="M68198 43620
L68038 43780
" />
<path d="M68187 34400
L68347 34560
" />
<path d="M68347 34400
L68187 34560
" />
<path d="M68187 35400
L68347 35560
" />
<path d="M68347 35400
L68187 35560
" />
<path d="M68187 35904
L68347 36064
" />
<path d="M68347 35904
L68187 36064
" />
<path d="M68538 40774
L68698 40934
" />
<path d="M68698 40774
L68538 40934
" />
<path d="M68545 43620
L68705 43780
" />
<path d="M68705 43620
L68545 43780
" />
<path d="M69014 43632
L69174 43792
" />
<path d="M69174 43632
L69014 43792
" />
<path d="M69447 38679
L69607 38839
" />
<path d="M69607 38679
L69447 38839
" />
<path d="M70270 34900
L70430 35060
" />
<path d="M70430 34900
L70270 35060
" />
<path d="M70270 35404
L70430 35564
" />
<path d="M70430 35404
L70270 35564
" />
<path d="M70305 35908
L70465 36068
" />
<path d="M70465 35908
L70305 36068
" />
<path d="M70778 27053
L70938 27213
" />
<path d="M70938 27053
L70778 27213
" />
<path d="M70864 38679
L71024 38839
" />
<path d="M71024 38679
L70864 38839
" />
<path d="M70864 37656
L71024 37816
" />
<path d="M71024 37656
L70864 37816
" />
<path d="M71518 41778
L71678 41938
" />
<path d="M71678 41778
L71518 41938
" />
<path d="M71522 42549
L71682 42709
" />
<path d="M71682 42549
L71522 42709
" />
<path d="M71526 42164
L71686 42324
" />
<path d="M71686 42164
L71526 42324
" />
<circle cx="37677.2" cy="28513.8" r="127.953" /> 
<path d="M37637 28602
L37716 28602
" />
<path d="M37637 28425
L37716 28425
" />
<path d="M37716.5 28602.4 A88.5827 88.5827 0.0 0 0 37716.5 28425.2" />
<path d="M37637.8 28425.2 A88.5827 88.5827 0.0 0 0 37637.8 28602.4" />
<circle cx="37677.2" cy="30423.2" r="127.953" /> 
<path d="M37637 30511
L37716 30511
" />
<path d="M37637 30334
L37716 30334
" />
<path d="M37716.5 30511.8 A88.5827 88.5827 0.0 0 0 37716.5 30334.6" />
<path d="M37637.8 30334.6 A88.5827 88.5827 0.0 0 0 37637.8 30511.8" />
<path d="M36496 27906
L36496 28230
" />
<path d="M36333 28068
L36658 28068
" />
<path d="M36363 28191
L36628 28191
" />
<path d="M36363 27945
L36628 27945
" />
<path d="M36628.9 28191.4 A123.031 123.031 0.0 0 0 36628.9 27945.4" />
<path d="M36363.2 27945.4 A123.031 123.031 0.0 0 0 36363.2 28191.4" />
<path d="M36496 30706
L36496 31031
" />
<path d="M36333 30868
L36658 30868
" />
<path d="M36363 30991
L36628 30991
" />
<path d="M36363 30745
L36628 30745
" />
<path d="M36628.9 30991.6 A123.031 123.031 0.0 0 0 36628.9 30745.6" />
<path d="M36363.2 30745.6 A123.031 123.031 0.0 0 0 36363.2 30991.6" />
<path style="fill:#000000; fill-opacity:0.0; 
stroke:#000000; stroke-width:78.7402; stroke-opacity:1; 
stroke-linecap:round; stroke-linejoin:round;fill:none"
d="M 45442.3,43875.4
45442.3,43597
45164,43597
45164,43875.4
Z" /> 
<path style="fill:#000000; fill-opacity:0.0; 
stroke:#000000; stroke-width:78.7402; stroke-opacity:1; 
stroke-linecap:round; stroke-linejoin:round;fill:none"
d="M 46442.3,43875.4
46442.3,43597
46164,43597
46164,43875.4
Z" /> 
<path style="fill:#000000; fill-opacity:0.0; 
stroke:#000000; stroke-width:78.7402; stroke-opacity:1; 
stroke-linecap:round; stroke-linejoin:round;fill:none"
d="M 47442.3,43875.4
47442.3,43597
47164,43597
47164,43875.4
Z" /> 
<path style="fill:#000000; fill-opacity:0.0; 
stroke:#000000; stroke-width:78.7402; stroke-opacity:1; 
stroke-linecap:round; stroke-linejoin:round;fill:none"
d="M 48442.3,43875.4
48442.3,43597
48164,43597
48164,43875.4
Z" /> 
<path style="fill:#000000; fill-opacity:0.0; 
stroke:#000000; stroke-width:78.7402; stroke-opacity:1; 
stroke-linecap:round; stroke-linejoin:round;fill:none"
d="M 49442.3,43875.4
49442.3,43597
49164,43597
49164,43875.4
Z" /> 
<path style="fill:#000000; fill-opacity:0.0; 
stroke:#000000; stroke-width:78.7402; stroke-opacity:1; 
stroke-linecap:round; stroke-linejoin:round;fill:none"
d="M 50442.3,43875.4
50442.3,43597
50164,43597
50164,43875.4
Z" /> 
<path style="fill:#000000; fill-opacity:0.0; 
stroke:#000000; stroke-width:78.7402; stroke-opacity:1; 
stroke-linecap:round; stroke-linejoin:round;fill:none"
d="M 51442.3,43875.4
51442.3,43597
51164,43597
51164,43875.4
Z" /> 
<path style="fill:#000000; fill-opacity:0.0; 
stroke:#000000; stroke-width:78.7402; stroke-opacity:1; 
stroke-linecap:round; stroke-linejoin:round;fill:none"
d="M 49410.1,30419.1
49410.1,30140.7
49131.7,30140.7
49131.7,30419.1
Z" /> 
<path style="fill:#000000; fill-opacity:0.0; 
stroke:#000000; stroke-width:78.7402; stroke-opacity:1; 
stroke-linecap:round; stroke-linejoin:round;fill:none"
d="M 49410.1,31419.1
49410.1,31140.7
49131.7,31140.7
49131.7,31419.1
Z" /> 
<path style="fill:#000000; fill-opacity:0.0; 
stroke:#000000; stroke-width:78.7402; stroke-opacity:1; 
stroke-linecap:round; stroke-linejoin:round;fill:none"
d="M 49410.1,32419.1
49410.1,32140.7
49131.7,32140.7
49131.7,32419.1
Z" /> 
<path style="fill:#000000; fill-opacity:0.0; 
stroke:#000000; stroke-width:78.7402; stroke-opacity:1; 
stroke-linecap:round; stroke-linejoin:round;fill:none"
d="M 49410.1,33419.1
49410.1,33140.7
49131.7,33140.7
49131.7,33419.1
Z" /> 
<path style="fill:#000000; fill-opacity:0.0; 
stroke:#000000; stroke-width:78.7402; stroke-opacity:1; 
stroke-linecap:round; stroke-linejoin:round;fill:none"
d="M 49410.1,34419.1
49410.1,34140.7
49131.7,34140.7
49131.7,34419.1
Z" /> 
<path style="fill:#000000; fill-opacity:0.0; 
stroke:#000000; stroke-width:78.7402; stroke-opacity:1; 
stroke-linecap:round; stroke-linejoin:round;fill:none"
d="M 49410.1,35419.1
49410.1,35140.7
49131.7,35140.7
49131.7,35419.1
Z" /> 
<path style="fill:#000000; fill-opacity:0.0; 
stroke:#000000; stroke-width:78.7402; stroke-opacity:1; 
stroke-linecap:round; stroke-linejoin:round;fill:none"
d="M 37430.1,40309.1
37430.1,40030.7
37151.7,40030.7
37151.7,40309.1
Z" /> 
<path style="fill:#000000; fill-opacity:0.0; 
stroke:#000000; stroke-width:78.7402; stroke-opacity:1; 
stroke-linecap:round; stroke-linejoin:round;fill:none"
d="M 37430.1,41309.1
37430.1,41030.7
37151.7,41030.7
37151.7,41309.1
Z" /> 
<path style="fill:#000000; fill-opacity:0.0; 
stroke:#000000; stroke-width:78.7402; stroke-opacity:1; 
stroke-linecap:round; stroke-linejoin:round;fill:none"
d="M 38430.1,40309.1
38430.1,40030.7
38151.7,40030.7
38151.7,40309.1
Z" /> 
<path style="fill:#000000; fill-opacity:0.0; 
stroke:#000000; stroke-width:78.7402; stroke-opacity:1; 
stroke-linecap:round; stroke-linejoin:round;fill:none"
d="M 38430.1,41309.1
38430.1,41030.7
38151.7,41030.7
38151.7,41309.1
Z" /> 
<path style="fill:#000000; fill-opacity:0.0; 
stroke:#000000; stroke-width:78.7402; stroke-opacity:1; 
stroke-linecap:round; stroke-linejoin:round;fill:none"
d="M 39430.1,40309.1
39430.1,40030.7
39151.7,40030.7
39151.7,40309.1
Z" /> 
<path style="fill:#000000; fill-opacity:0.0; 
stroke:#000000; stroke-width:78.7402; stroke-opacity:1; 
stroke-linecap:round; stroke-linejoin:round;fill:none"
d="M 39430.1,41309.1
39430.1,41030.7
39151.7,41030.7
39151.7,41309.1
Z" /> 
<path style="fill:#000000; fill-opacity:0.0; 
stroke:#000000; stroke-width:78.7402; stroke-opacity:1; 
stroke-linecap:round; stroke-linejoin:round;fill:none"
d="M 40430.1,40309.1
40430.1,40030.7
40151.7,40030.7
40151.7,40309.1
Z" /> 
<path style="fill:#000000; fill-opacity:0.0; 
stroke:#000000; stroke-width:78.7402; stroke-opacity:1; 
stroke-linecap:round; stroke-linejoin:round;fill:none"
d="M 40430.1,41309.1
40430.1,41030.7
40151.7,41030.7
40151.7,41309.1
Z" /> 
<path style="fill:#000000; fill-opacity:0.0; 
stroke:#000000; stroke-width:78.7402; stroke-opacity:1; 
stroke-linecap:round; stroke-linejoin:round;fill:none"
d="M 72930.5,27859.7
72930.5,27581.3
72652.1,27581.3
72652.1,27859.7
Z" /> 
<path style="fill:#000000; fill-opacity:0.0; 
stroke:#000000; stroke-width:78.7402; stroke-opacity:1; 
stroke-linecap:round; stroke-linejoin:round;fill:none"
d="M 72930.5,28859.7
72930.5,28581.3
72652.1,28581.3
72652.1,28859.7
Z" /> 
<path style="fill:#000000; fill-opacity:0.0; 
stroke:#000000; stroke-width:78.7402; stroke-opacity:1; 
stroke-linecap:round; stroke-linejoin:round;fill:none"
d="M 72930.5,29859.7
72930.5,29581.3
72652.1,29581.3
72652.1,29859.7
Z" /> 
<path style="fill:#000000; fill-opacity:0.0; 
stroke:#000000; stroke-width:78.7402; stroke-opacity:1; 
stroke-linecap:round; stroke-linejoin:round;fill:none"
d="M 72930.5,30859.7
72930.5,30581.3
72652.1,30581.3
72652.1,30859.7
Z" /> 
<path style="fill:#000000; fill-opacity:0.0; 
stroke:#000000; stroke-width:78.7402; stroke-opacity:1; 
stroke-linecap:round; stroke-linejoin:round;fill:none"
d="M 72930.5,31859.7
72930.5,31581.3
72652.1,31581.3
72652.1,31859.7
Z" /> 
<path style="fill:#000000; fill-opacity:0.0; 
stroke:#000000; stroke-width:78.7402; stroke-opacity:1; 
stroke-linecap:round; stroke-linejoin:round;fill:none"
d="M 72930.5,32859.7
72930.5,32581.3
72652.1,32581.3
72652.1,32859.7
Z" /> 
<path style="fill:#000000; fill-opacity:0.0; 
stroke:#000000; stroke-width:78.7402; stroke-opacity:1; 
stroke-linecap:round; stroke-linejoin:round;fill:none"
d="M 72930.5,33859.7
72930.5,33581.3
72652.1,33581.3
72652.1,33859.7
Z" /> 
<path style="fill:#000000; fill-opacity:0.0; 
stroke:#000000; stroke-width:78.7402; stroke-opacity:1; 
stroke-linecap:round; stroke-linejoin:round;fill:none"
d="M 72930.5,34859.7
72930.5,34581.3
72652.1,34581.3
72652.1,34859.7
Z" /> 
<path style="fill:#000000; fill-opacity:0.0; 
stroke:#000000; stroke-width:78.7402; stroke-opacity:1; 
stroke-linecap:round; stroke-linejoin:round;fill:none"
d="M 72930.5,35859.7
72930.5,35581.3
72652.1,35581.3
72652.1,35859.7
Z" /> 
<path style="fill:#000000; fill-opacity:0.0; 
stroke:#000000; stroke-width:78.7402; stroke-opacity:1; 
stroke-linecap:round; stroke-linejoin:round;fill:none"
d="M 72930.5,36859.7
72930.5,36581.3
72652.1,36581.3
72652.1,36859.7
Z" /> 
<path style="fill:#000000; fill-opacity:0.0; 
stroke:#000000; stroke-width:78.7402; stroke-opacity:1; 
stroke-linecap:round; stroke-linejoin:round;fill:none"
d="M 72930.5,37859.7
72930.5,37581.3
72652.1,37581.3
72652.1,37859.7
Z" /> 
<path style="fill:#000000; fill-opacity:0.0; 
stroke:#000000; stroke-width:78.7402; stroke-opacity:1; 
stroke-linecap:round; stroke-linejoin:round;fill:none"
d="M 72930.5,38859.7
72930.5,38581.3
72652.1,38581.3
72652.1,38859.7
Z" /> 
<path style="fill:#000000; fill-opacity:0.0; 
stroke:#000000; stroke-width:78.7402; stroke-opacity:1; 
stroke-linecap:round; stroke-linejoin:round;fill:none"
d="M 72930.5,39859.7
72930.5,39581.3
72652.1,39581.3
72652.1,39859.7
Z" /> 
<path style="fill:#000000; fill-opacity:0.0; 
stroke:#000000; stroke-width:78.7402; stroke-opacity:1; 
stroke-linecap:round; stroke-linejoin:round;fill:none"
d="M 72930.5,40859.7
72930.5,40581.3
72652.1,40581.3
72652.1,40859.7
Z" /> 
<path style="fill:#000000; fill-opacity:0.0; 
stroke:#000000; stroke-width:78.7402; stroke-opacity:1; 
stroke-linecap:round; stroke-linejoin:round;fill:none"
d="M 73930.5,27859.7
73930.5,27581.3
73652.1,27581.3
73652.1,27859.7
Z" /> 
<path style="fill:#000000; fill-opacity:0.0; 
stroke:#000000; stroke-width:78.7402; stroke-opacity:1; 
stroke-linecap:round; stroke-linejoin:round;fill:none"
d="M 73930.5,28859.7
73930.5,28581.3
73652.1,28581.3
73652.1,28859.7
Z" /> 
<path style="fill:#000000; fill-opacity:0.0; 
stroke:#000000; stroke-width:78.7402; stroke-opacity:1; 
stroke-linecap:round; stroke-linejoin:round;fill:none"
d="M 73930.5,29859.7
73930.5,29581.3
73652.1,29581.3
73652.1,29859.7
Z" /> 
<path style="fill:#000000; fill-opacity:0.0; 
stroke:#000000; stroke-width:78.7402; stroke-opacity:1; 
stroke-linecap:round; stroke-linejoin:round;fill:none"
d="M 73930.5,30859.7
73930.5,30581.3
73652.1,30581.3
73652.1,30859.7
Z" /> 
<path style="fill:#000000; fill-opacity:0.0; 
stroke:#000000; stroke-width:78.7402; stroke-opacity:1; 
stroke-linecap:round; stroke-linejoin:round;fill:none"
d="M 73930.5,31859.7
73930.5,31581.3
73652.1,31581.3
73652.1,31859.7
Z" /> 
<path style="fill:#000000; fill-opacity:0.0; 
stroke:#000000; stroke-width:78.7402; stroke-opacity:1; 
stroke-linecap:round; stroke-linejoin:round;fill:none"
d="M 73930.5,32859.7
73930.5,32581.3
73652.1,32581.3
73652.1,32859.7
Z" /> 
<path style="fill:#000000; fill-opacity:0.0; 
stroke:#000000; stroke-width:78.7402; stroke-opacity:1; 
stroke-linecap:round; stroke-linejoin:round;fill:none"
d="M 73930.5,33859.7
73930.5,33581.3
73652.1,33581.3
73652.1,33859.7
Z" /> 
<path style="fill:#000000; fill-opacity:0.0; 
stroke:#000000; stroke-width:78.7402; stroke-opacity:1; 
stroke-linecap:round; stroke-linejoin:round;fill:none"
d="M 73930.5,34859.7
73930.5,34581.3
73652.1,34581.3
73652.1,34859.7
Z" /> 
<path style="fill:#000000; fill-opacity:0.0; 
stroke:#000000; stroke-width:78.7402; stroke-opacity:1; 
stroke-linecap:round; stroke-linejoin:round;fill:none"
d="M 73930.5,35859.7
73930.5,35581.3
73652.1,35581.3
73652.1,35859.7
Z" /> 
<path style="fill:#000000; fill-opacity:0.0; 
stroke:#000000; stroke-width:78.7402; stroke-opacity:1; 
stroke-linecap:round; stroke-linejoin:round;fill:none"
d="M 73930.5,36859.7
73930.5,36581.3
73652.1,36581.3
73652.1,36859.7
Z" /> 
<path style="fill:#000000; fill-opacity:0.0; 
stroke:#000000; stroke-width:78.7402; stroke-opacity:1; 
stroke-linecap:round; stroke-linejoin:round;fill:none"
d="M 73930.5,37859.7
73930.5,37581.3
73652.1,37581.3
73652.1,37859.7
Z" /> 
<path style="fill:#000000; fill-opacity:0.0; 
stroke:#000000; stroke-width:78.7402; stroke-opacity:1; 
stroke-linecap:round; stroke-linejoin:round;fill:none"
d="M 73930.5,38859.7
73930.5,38581.3
73652.1,38581.3
73652.1,38859.7
Z" /> 
<path style="fill:#000000; fill-opacity:0.0; 
stroke:#000000; stroke-width:78.7402; stroke-opacity:1; 
stroke-linecap:round; stroke-linejoin:round;fill:none"
d="M 73930.5,39859.7
73930.5,39581.3
73652.1,39581.3
73652.1,39859.7
Z" /> 
<path style="fill:#000000; fill-opacity:0.0; 
stroke:#000000; stroke-width:78.7402; stroke-opacity:1; 
stroke-linecap:round; stroke-linejoin:round;fill:none"
d="M 73930.5,40859.7
73930.5,40581.3
73652.1,40581.3
73652.1,40859.7
Z" /> 
<path style="fill:#000000; fill-opacity:0.0; 
stroke:#000000; stroke-width:78.7402; stroke-opacity:1; 
stroke-linecap:round; stroke-linejoin:round;fill:none"
d="M 51883.3,24843.9
51883.3,24565.5
51604.9,24565.5
51604.9,24843.9
Z" /> 
<path style="fill:#000000; fill-opacity:0.0; 
stroke:#000000; stroke-width:78.7402; stroke-opacity:1; 
stroke-linecap:round; stroke-linejoin:round;fill:none"
d="M 52883.3,24843.9
52883.3,24565.5
52604.9,24565.5
52604.9,24843.9
Z" /> 
<path style="fill:#000000; fill-opacity:0.0; 
stroke:#000000; stroke-width:78.7402; stroke-opacity:1; 
stroke-linecap:round; stroke-linejoin:round;fill:none"
d="M 53883.3,24843.9
53883.3,24565.5
53604.9,24565.5
53604.9,24843.9
Z" /> 
<path style="fill:#000000; fill-opacity:0.0; 
stroke:#000000; stroke-width:78.7402; stroke-opacity:1; 
stroke-linecap:round; stroke-linejoin:round;fill:none"
d="M 54883.3,24843.9
54883.3,24565.5
54604.9,24565.5
54604.9,24843.9
Z" /> 
<path style="fill:#000000; fill-opacity:0.0; 
stroke:#000000; stroke-width:78.7402; stroke-opacity:1; 
stroke-linecap:round; stroke-linejoin:round;fill:none"
d="M 53446.3,43875.4
53446.3,43597
53167.9,43597
53167.9,43875.4
Z" /> 
<path style="fill:#000000; fill-opacity:0.0; 
stroke:#000000; stroke-width:78.7402; stroke-opacity:1; 
stroke-linecap:round; stroke-linejoin:round;fill:none"
d="M 54446.3,43875.4
54446.3,43597
54167.9,43597
54167.9,43875.4
Z" /> 
<path style="fill:#000000; fill-opacity:0.0; 
stroke:#000000; stroke-width:78.7402; stroke-opacity:1; 
stroke-linecap:round; stroke-linejoin:round;fill:none"
d="M 55446.3,43875.4
55446.3,43597
55167.9,43597
55167.9,43875.4
Z" /> 
<path style="fill:#000000; fill-opacity:0.0; 
stroke:#000000; stroke-width:78.7402; stroke-opacity:1; 
stroke-linecap:round; stroke-linejoin:round;fill:none"
d="M 56446.3,43875.4
56446.3,43597
56167.9,43597
56167.9,43875.4
Z" /> 
<path style="fill:#000000; fill-opacity:0.0; 
stroke:#000000; stroke-width:78.7402; stroke-opacity:1; 
stroke-linecap:round; stroke-linejoin:round;fill:none"
d="M 57446.3,43875.4
57446.3,43597
57167.9,43597
57167.9,43875.4
Z" /> 
<path style="fill:#000000; fill-opacity:0.0; 
stroke:#000000; stroke-width:78.7402; stroke-opacity:1; 
stroke-linecap:round; stroke-linejoin:round;fill:none"
d="M 58446.3,43875.4
58446.3,43597
58167.9,43597
58167.9,43875.4
Z" /> 
<path style="fill:#000000; fill-opacity:0.0; 
stroke:#000000; stroke-width:78.7402; stroke-opacity:1; 
stroke-linecap:round; stroke-linejoin:round;fill:none"
d="M 59446.3,43875.4
59446.3,43597
59167.9,43597
59167.9,43875.4
Z" /> 
<path style="fill:#000000; fill-opacity:0.0; 
stroke:#000000; stroke-width:78.7402; stroke-opacity:1; 
stroke-linecap:round; stroke-linejoin:round;fill:none"
d="M 60446.3,43875.4
60446.3,43597
60167.9,43597
60167.9,43875.4
Z" /> 
<path style="fill:#000000; fill-opacity:0.0; 
stroke:#000000; stroke-width:78.7402; stroke-opacity:1; 
stroke-linecap:round; stroke-linejoin:round;fill:none"
d="M 61446.3,43875.4
61446.3,43597
61167.9,43597
61167.9,43875.4
Z" /> 
<path style="fill:#000000; fill-opacity:0.0; 
stroke:#000000; stroke-width:78.7402; stroke-opacity:1; 
stroke-linecap:round; stroke-linejoin:round;fill:none"
d="M 62446.3,43875.4
62446.3,43597
62167.9,43597
62167.9,43875.4
Z" /> 
<path style="fill:#000000; fill-opacity:0.0; 
stroke:#000000; stroke-width:78.7402; stroke-opacity:1; 
stroke-linecap:round; stroke-linejoin:round;fill:none"
d="M 63446.3,43875.4
63446.3,43597
63167.9,43597
63167.9,43875.4
Z" /> 
<path style="fill:#000000; fill-opacity:0.0; 
stroke:#000000; stroke-width:78.7402; stroke-opacity:1; 
stroke-linecap:round; stroke-linejoin:round;fill:none"
d="M 64446.3,43875.4
64446.3,43597
64167.9,43597
64167.9,43875.4
Z" /> 
<path style="fill:#000000; fill-opacity:0.0; 
stroke:#000000; stroke-width:78.7402; stroke-opacity:1; 
stroke-linecap:round; stroke-linejoin:round;fill:none"
d="M 61678.6,24843.9
61678.6,24565.5
61400.2,24565.5
61400.2,24843.9
Z" /> 
<path style="fill:#000000; fill-opacity:0.0; 
stroke:#000000; stroke-width:78.7402; stroke-opacity:1; 
stroke-linecap:round; stroke-linejoin:round;fill:none"
d="M 62678.6,24843.9
62678.6,24565.5
62400.2,24565.5
62400.2,24843.9
Z" /> 
<path style="fill:#000000; fill-opacity:0.0; 
stroke:#000000; stroke-width:78.7402; stroke-opacity:1; 
stroke-linecap:round; stroke-linejoin:round;fill:none"
d="M 63678.6,24843.9
63678.6,24565.5
63400.2,24565.5
63400.2,24843.9
Z" /> 
<path style="fill:#000000; fill-opacity:0.0; 
stroke:#000000; stroke-width:78.7402; stroke-opacity:1; 
stroke-linecap:round; stroke-linejoin:round;fill:none"
d="M 64678.6,24843.9
64678.6,24565.5
64400.2,24565.5
64400.2,24843.9
Z" /> 
<path style="fill:#000000; fill-opacity:0.0; 
stroke:#000000; stroke-width:78.7402; stroke-opacity:1; 
stroke-linecap:round; stroke-linejoin:round;fill:none"
d="M 65678.6,24843.9
65678.6,24565.5
65400.2,24565.5
65400.2,24843.9
Z" /> 
<path style="fill:#000000; fill-opacity:0.0; 
stroke:#000000; stroke-width:78.7402; stroke-opacity:1; 
stroke-linecap:round; stroke-linejoin:round;fill:none"
d="M 66678.6,24843.9
66678.6,24565.5
66400.2,24565.5
66400.2,24843.9
Z" /> 
<path style="fill:#000000; fill-opacity:0.0; 
stroke:#000000; stroke-width:78.7402; stroke-opacity:1; 
stroke-linecap:round; stroke-linejoin:round;fill:none"
d="M 67678.6,24843.9
67678.6,24565.5
67400.2,24565.5
67400.2,24843.9
Z" /> 
<path style="fill:#000000; fill-opacity:0.0; 
stroke:#000000; stroke-width:78.7402; stroke-opacity:1; 
stroke-linecap:round; stroke-linejoin:round;fill:none"
d="M 68678.6,24843.9
68678.6,24565.5
68400.2,24565.5
68400.2,24843.9
Z" /> 
<path style="fill:#000000; fill-opacity:0.0; 
stroke:#000000; stroke-width:78.7402; stroke-opacity:1; 
stroke-linecap:round; stroke-linejoin:round;fill:none"
d="M 44993.5,24843.9
44993.5,24565.5
44715.1,24565.5
44715.1,24843.9
Z" /> 
<path style="fill:#000000; fill-opacity:0.0; 
stroke:#000000; stroke-width:78.7402; stroke-opacity:1; 
stroke-linecap:round; stroke-linejoin:round;fill:none"
d="M 45993.5,24843.9
45993.5,24565.5
45715.1,24565.5
45715.1,24843.9
Z" /> 
<path style="fill:#000000; fill-opacity:0.0; 
stroke:#000000; stroke-width:78.7402; stroke-opacity:1; 
stroke-linecap:round; stroke-linejoin:round;fill:none"
d="M 46993.5,24843.9
46993.5,24565.5
46715.1,24565.5
46715.1,24843.9
Z" /> 
<path style="fill:#000000; fill-opacity:0.0; 
stroke:#000000; stroke-width:78.7402; stroke-opacity:1; 
stroke-linecap:round; stroke-linejoin:round;fill:none"
d="M 47993.5,24843.9
47993.5,24565.5
47715.1,24565.5
47715.1,24843.9
Z" /> 
<path style="fill:#000000; fill-opacity:0.0; 
stroke:#000000; stroke-width:78.7402; stroke-opacity:1; 
stroke-linecap:round; stroke-linejoin:round;fill:none"
d="M 48993.5,24843.9
48993.5,24565.5
48715.1,24565.5
48715.1,24843.9
Z" /> 
<path style="fill:#000000; fill-opacity:0.0; 
stroke:#000000; stroke-width:78.7402; stroke-opacity:1; 
stroke-linecap:round; stroke-linejoin:round;fill:none"
d="M 49993.5,24843.9
49993.5,24565.5
49715.1,24565.5
49715.1,24843.9
Z" /> 
<path style="fill:#000000; fill-opacity:0.0; 
stroke:#000000; stroke-width:78.7402; stroke-opacity:1; 
stroke-linecap:round; stroke-linejoin:round;fill:none"
d="M 56773.1,24843.9
56773.1,24565.5
56494.7,24565.5
56494.7,24843.9
Z" /> 
<path style="fill:#000000; fill-opacity:0.0; 
stroke:#000000; stroke-width:78.7402; stroke-opacity:1; 
stroke-linecap:round; stroke-linejoin:round;fill:none"
d="M 57773.1,24843.9
57773.1,24565.5
57494.7,24565.5
57494.7,24843.9
Z" /> 
<path style="fill:#000000; fill-opacity:0.0; 
stroke:#000000; stroke-width:78.7402; stroke-opacity:1; 
stroke-linecap:round; stroke-linejoin:round;fill:none"
d="M 58773.1,24843.9
58773.1,24565.5
58494.7,24565.5
58494.7,24843.9
Z" /> 
<path style="fill:#000000; fill-opacity:0.0; 
stroke:#000000; stroke-width:78.7402; stroke-opacity:1; 
stroke-linecap:round; stroke-linejoin:round;fill:none"
d="M 59773.1,24843.9
59773.1,24565.5
59494.7,24565.5
59494.7,24843.9
Z" /> 
<path style="fill:#000000; fill-opacity:0.0; 
stroke:#000000; stroke-width:78.7402; stroke-opacity:1; 
stroke-linecap:round; stroke-linejoin:round;fill:none"
d="M 45737.6,37280.9
45737.6,37002.5
45459.2,37002.5
45459.2,37280.9
Z" /> 
<path style="fill:#000000; fill-opacity:0.0; 
stroke:#000000; stroke-width:78.7402; stroke-opacity:1; 
stroke-linecap:round; stroke-linejoin:round;fill:none"
d="M 46737.6,37280.9
46737.6,37002.5
46459.2,37002.5
46459.2,37280.9
Z" /> 
<path style="fill:#000000; fill-opacity:0.0; 
stroke:#000000; stroke-width:78.7402; stroke-opacity:1; 
stroke-linecap:round; stroke-linejoin:round;fill:none"
d="M 47737.6,37280.9
47737.6,37002.5
47459.2,37002.5
47459.2,37280.9
Z" /> 
<path style="fill:#000000; fill-opacity:0.0; 
stroke:#000000; stroke-width:78.7402; stroke-opacity:1; 
stroke-linecap:round; stroke-linejoin:round;fill:none"
d="M 48737.6,37280.9
48737.6,37002.5
48459.2,37002.5
48459.2,37280.9
Z" /> 
<path style="fill:#000000; fill-opacity:0.0; 
stroke:#000000; stroke-width:78.7402; stroke-opacity:1; 
stroke-linecap:round; stroke-linejoin:round;fill:none"
d="M 49737.6,37280.9
49737.6,37002.5
49459.2,37002.5
49459.2,37280.9
Z" /> 
<path style="fill:#000000; fill-opacity:0.0; 
stroke:#000000; stroke-width:78.7402; stroke-opacity:1; 
stroke-linecap:round; stroke-linejoin:round;fill:none"
d="M 50737.6,37280.9
50737.6,37002.5
50459.2,37002.5
50459.2,37280.9
Z" /> 
<path style="fill:#000000; fill-opacity:0.0; 
stroke:#000000; stroke-width:78.7402; stroke-opacity:1; 
stroke-linecap:round; stroke-linejoin:round;fill:none"
d="M 73787.4,44334.6
74417.3,43704.7
73787.4,43074.8
73157.5,43704.7
Z" /> 
<path style="fill:#000000; fill-opacity:0.0; 
stroke:#000000; stroke-width:78.7402; stroke-opacity:1; 
stroke-linecap:round; stroke-linejoin:round;fill:none"
d="M 41791.3,25342.5
42421.3,24712.6
41791.3,24082.7
41161.4,24712.6
Z" /> 
<path style="fill:#000000; fill-opacity:0.0; 
stroke:#000000; stroke-width:78.7402; stroke-opacity:1; 
stroke-linecap:round; stroke-linejoin:round;fill:none"
d="M 71295.3,25346.5
71925.2,24716.5
71295.3,24086.6
70665.4,24716.5
Z" /> 
<path style="fill:#000000; fill-opacity:0.0; 
stroke:#000000; stroke-width:78.7402; stroke-opacity:1; 
stroke-linecap:round; stroke-linejoin:round;fill:none"
d="M 41291.3,44338.6
41921.3,43708.7
41291.3,43078.7
40661.4,43708.7
Z" /> 
</g>
<g style="fill:#000000; fill-opacity:0.0; 
stroke:#000000; stroke-width:118.11; stroke-opacity:1; 
stroke-linecap:round; stroke-linejoin:round;">
<text x="36570.9" y="46626"
textLength="8763.78" font-size="1574.8" lengthAdjust="spacingAndGlyphs"
text-anchor="start" opacity="0">Drill Map:</text>
<path d="M36911 46569
L36911 45388
L37192 45388
L37361 45444
L37473 45557
L37529 45669
L37586 45894
L37586 46063
L37529 46288
L37473 46401
L37361 46513
L37192 46569
L36911 46569
" />
<path d="M38092 46569
L38092 45782
" />
<path d="M38092 46007
L38148 45894
L38204 45838
L38317 45782
L38429 45782
" />
<path d="M38823 46569
L38823 45782
" />
<path d="M38823 45388
L38767 45444
L38823 45501
L38879 45444
L38823 45388
L38823 45501
" />
<path d="M39554 46569
L39442 46513
L39385 46401
L39385 45388
" />
<path d="M40173 46569
L40060 46513
L40004 46401
L40004 45388
" />
<path d="M41523 46569
L41523 45388
L41916 46232
L42310 45388
L42310 46569
" />
<path d="M43379 46569
L43379 45951
L43322 45838
L43210 45782
L42985 45782
L42872 45838
" />
<path d="M43379 46513
L43266 46569
L42985 46569
L42872 46513
L42816 46401
L42816 46288
L42872 46176
L42985 46119
L43266 46119
L43379 46063
" />
<path d="M43941 45782
L43941 46963
" />
<path d="M43941 45838
L44053 45782
L44278 45782
L44391 45838
L44447 45894
L44503 46007
L44503 46344
L44447 46457
L44391 46513
L44278 46569
L44053 46569
L43941 46513
" />
<path d="M45010 46457
L45066 46513
L45010 46569
L44953 46513
L45010 46457
L45010 46569
" />
<path d="M45010 45838
L45066 45894
L45010 45951
L44953 45894
L45010 45838
L45010 45951
" />
<path d="M35623 48435
L35783 48595
" />
<path d="M35783 48435
L35623 48595
" />
<text x="36570.9" y="49106.3"
textLength="27677.2" font-size="1574.8" lengthAdjust="spacingAndGlyphs"
text-anchor="start" opacity="0">0.41mm / 0.016" (174 holes)</text>
<path d="M37136 47868
L37248 47868
L37361 47925
L37417 47981
L37473 48093
L37529 48318
L37529 48600
L37473 48825
L37417 48937
L37361 48993
L37248 49050
L37136 49050
L37023 48993
L36967 48937
L36911 48825
L36854 48600
L36854 48318
L36911 48093
L36967 47981
L37023 47925
L37136 47868
" />
<path d="M38035 48937
L38092 48993
L38035 49050
L37979 48993
L38035 48937
L38035 49050
" />
<path d="M39104 48262
L39104 49050
" />
<path d="M38823 47812
L38542 48656
L39273 48656
" />
<path d="M40341 49050
L39667 49050
" />
<path d="M40004 49050
L40004 47868
L39892 48037
L39779 48150
L39667 48206
" />
<path d="M40848 49050
L40848 48262
" />
<path d="M40848 48375
L40904 48318
L41016 48262
L41185 48262
L41298 48318
L41354 48431
L41354 49050
" />
<path d="M41354 48431
L41410 48318
L41523 48262
L41691 48262
L41804 48318
L41860 48431
L41860 49050
" />
<path d="M42422 49050
L42422 48262
" />
<path d="M42422 48375
L42479 48318
L42591 48262
L42760 48262
L42872 48318
L42929 48431
L42929 49050
" />
<path d="M42929 48431
L42985 48318
L43097 48262
L43266 48262
L43379 48318
L43435 48431
L43435 49050
" />
<path d="M45741 47812
L44728 49331
" />
<path d="M47259 47868
L47372 47868
L47484 47925
L47541 47981
L47597 48093
L47653 48318
L47653 48600
L47597 48825
L47541 48937
L47484 48993
L47372 49050
L47259 49050
L47147 48993
L47091 48937
L47034 48825
L46978 48600
L46978 48318
L47034 48093
L47091 47981
L47147 47925
L47259 47868
" />
<path d="M48159 48937
L48215 48993
L48159 49050
L48103 48993
L48159 48937
L48159 49050
" />
<path d="M48947 47868
L49059 47868
L49172 47925
L49228 47981
L49284 48093
L49340 48318
L49340 48600
L49284 48825
L49228 48937
L49172 48993
L49059 49050
L48947 49050
L48834 48993
L48778 48937
L48722 48825
L48665 48600
L48665 48318
L48722 48093
L48778 47981
L48834 47925
L48947 47868
" />
<path d="M50465 49050
L49790 49050
" />
<path d="M50128 49050
L50128 47868
L50015 48037
L49903 48150
L49790 48206
" />
<path d="M51478 47868
L51253 47868
L51140 47925
L51084 47981
L50971 48150
L50915 48375
L50915 48825
L50971 48937
L51028 48993
L51140 49050
L51365 49050
L51478 48993
L51534 48937
L51590 48825
L51590 48543
L51534 48431
L51478 48375
L51365 48318
L51140 48318
L51028 48375
L50971 48431
L50915 48543
" />
<path d="M52040 47868
L52040 48093
" />
<path d="M52490 47868
L52490 48093
" />
<path d="M54233 49500
L54177 49443
L54065 49275
L54008 49162
L53952 48993
L53896 48712
L53896 48487
L53952 48206
L54008 48037
L54065 47925
L54177 47756
L54233 47700
" />
<path d="M55302 49050
L54627 49050
" />
<path d="M54965 49050
L54965 47868
L54852 48037
L54740 48150
L54627 48206
" />
<path d="M55696 47868
L56483 47868
L55977 49050
" />
<path d="M57439 48262
L57439 49050
" />
<path d="M57158 47812
L56877 48656
L57608 48656
" />
<path d="M58958 49050
L58958 47868
" />
<path d="M59464 49050
L59464 48431
L59408 48318
L59295 48262
L59127 48262
L59014 48318
L58958 48375
" />
<path d="M60195 49050
L60083 48993
L60026 48937
L59970 48825
L59970 48487
L60026 48375
L60083 48318
L60195 48262
L60364 48262
L60476 48318
L60533 48375
L60589 48487
L60589 48825
L60533 48937
L60476 48993
L60364 49050
L60195 49050
" />
<path d="M61264 49050
L61151 48993
L61095 48881
L61095 47868
" />
<path d="M62164 48993
L62051 49050
L61826 49050
L61714 48993
L61658 48881
L61658 48431
L61714 48318
L61826 48262
L62051 48262
L62164 48318
L62220 48431
L62220 48543
L61658 48656
" />
<path d="M62670 48993
L62782 49050
L63007 49050
L63120 48993
L63176 48881
L63176 48825
L63120 48712
L63007 48656
L62839 48656
L62726 48600
L62670 48487
L62670 48431
L62726 48318
L62839 48262
L63007 48262
L63120 48318
" />
<path d="M63570 49500
L63626 49443
L63739 49275
L63795 49162
L63851 48993
L63907 48712
L63907 48487
L63851 48206
L63795 48037
L63739 47925
L63626 47756
L63570 47700
" />
<circle cx="35655.5" cy="50074.8" r="127.953" /> 
<text x="36570.9" y="50665.4"
textLength="34988.8" font-size="1574.8" lengthAdjust="spacingAndGlyphs"
text-anchor="start" opacity="0">0.65mm / 0.026" (0 holes + 2 slots)</text>
<path d="M37136 49428
L37248 49428
L37361 49484
L37417 49540
L37473 49652
L37529 49877
L37529 50159
L37473 50384
L37417 50496
L37361 50552
L37248 50609
L37136 50609
L37023 50552
L36967 50496
L36911 50384
L36854 50159
L36854 49877
L36911 49652
L36967 49540
L37023 49484
L37136 49428
" />
<path d="M38035 50496
L38092 50552
L38035 50609
L37979 50552
L38035 50496
L38035 50609
" />
<path d="M39104 49428
L38879 49428
L38767 49484
L38710 49540
L38598 49709
L38542 49934
L38542 50384
L38598 50496
L38654 50552
L38767 50609
L38992 50609
L39104 50552
L39160 50496
L39217 50384
L39217 50102
L39160 49990
L39104 49934
L38992 49877
L38767 49877
L38654 49934
L38598 49990
L38542 50102
" />
<path d="M40285 49428
L39723 49428
L39667 49990
L39723 49934
L39835 49877
L40116 49877
L40229 49934
L40285 49990
L40341 50102
L40341 50384
L40285 50496
L40229 50552
L40116 50609
L39835 50609
L39723 50552
L39667 50496
" />
<path d="M40848 50609
L40848 49821
" />
<path d="M40848 49934
L40904 49877
L41016 49821
L41185 49821
L41298 49877
L41354 49990
L41354 50609
" />
<path d="M41354 49990
L41410 49877
L41523 49821
L41691 49821
L41804 49877
L41860 49990
L41860 50609
" />
<path d="M42422 50609
L42422 49821
" />
<path d="M42422 49934
L42479 49877
L42591 49821
L42760 49821
L42872 49877
L42929 49990
L42929 50609
" />
<path d="M42929 49990
L42985 49877
L43097 49821
L43266 49821
L43379 49877
L43435 49990
L43435 50609
" />
<path d="M45741 49371
L44728 50890
" />
<path d="M47259 49428
L47372 49428
L47484 49484
L47541 49540
L47597 49652
L47653 49877
L47653 50159
L47597 50384
L47541 50496
L47484 50552
L47372 50609
L47259 50609
L47147 50552
L47091 50496
L47034 50384
L46978 50159
L46978 49877
L47034 49652
L47091 49540
L47147 49484
L47259 49428
" />
<path d="M48159 50496
L48215 50552
L48159 50609
L48103 50552
L48159 50496
L48159 50609
" />
<path d="M48947 49428
L49059 49428
L49172 49484
L49228 49540
L49284 49652
L49340 49877
L49340 50159
L49284 50384
L49228 50496
L49172 50552
L49059 50609
L48947 50609
L48834 50552
L48778 50496
L48722 50384
L48665 50159
L48665 49877
L48722 49652
L48778 49540
L48834 49484
L48947 49428
" />
<path d="M49790 49540
L49847 49484
L49959 49428
L50240 49428
L50353 49484
L50409 49540
L50465 49652
L50465 49765
L50409 49934
L49734 50609
L50465 50609
" />
<path d="M51478 49428
L51253 49428
L51140 49484
L51084 49540
L50971 49709
L50915 49934
L50915 50384
L50971 50496
L51028 50552
L51140 50609
L51365 50609
L51478 50552
L51534 50496
L51590 50384
L51590 50102
L51534 49990
L51478 49934
L51365 49877
L51140 49877
L51028 49934
L50971 49990
L50915 50102
" />
<path d="M52040 49428
L52040 49652
" />
<path d="M52490 49428
L52490 49652
" />
<path d="M54233 51059
L54177 51002
L54065 50834
L54008 50721
L53952 50552
L53896 50271
L53896 50046
L53952 49765
L54008 49596
L54065 49484
L54177 49315
L54233 49259
" />
<path d="M54908 49428
L55021 49428
L55133 49484
L55190 49540
L55246 49652
L55302 49877
L55302 50159
L55246 50384
L55190 50496
L55133 50552
L55021 50609
L54908 50609
L54796 50552
L54740 50496
L54683 50384
L54627 50159
L54627 49877
L54683 49652
L54740 49540
L54796 49484
L54908 49428
" />
<path d="M56708 50609
L56708 49428
" />
<path d="M57214 50609
L57214 49990
L57158 49877
L57046 49821
L56877 49821
L56764 49877
L56708 49934
" />
<path d="M57946 50609
L57833 50552
L57777 50496
L57721 50384
L57721 50046
L57777 49934
L57833 49877
L57946 49821
L58114 49821
L58227 49877
L58283 49934
L58339 50046
L58339 50384
L58283 50496
L58227 50552
L58114 50609
L57946 50609
" />
<path d="M59014 50609
L58902 50552
L58845 50440
L58845 49428
" />
<path d="M59914 50552
L59802 50609
L59577 50609
L59464 50552
L59408 50440
L59408 49990
L59464 49877
L59577 49821
L59802 49821
L59914 49877
L59970 49990
L59970 50102
L59408 50215
" />
<path d="M60420 50552
L60533 50609
L60758 50609
L60870 50552
L60926 50440
L60926 50384
L60870 50271
L60758 50215
L60589 50215
L60476 50159
L60420 50046
L60420 49990
L60476 49877
L60589 49821
L60758 49821
L60870 49877
" />
<path d="M62332 50159
L63232 50159
" />
<path d="M62782 50609
L62782 49709
" />
<path d="M64638 49540
L64695 49484
L64807 49428
L65088 49428
L65201 49484
L65257 49540
L65313 49652
L65313 49765
L65257 49934
L64582 50609
L65313 50609
" />
<path d="M66663 50552
L66776 50609
L67001 50609
L67113 50552
L67169 50440
L67169 50384
L67113 50271
L67001 50215
L66832 50215
L66719 50159
L66663 50046
L66663 49990
L66719 49877
L66832 49821
L67001 49821
L67113 49877
" />
<path d="M67844 50609
L67732 50552
L67676 50440
L67676 49428
" />
<path d="M68463 50609
L68350 50552
L68294 50496
L68238 50384
L68238 50046
L68294 49934
L68350 49877
L68463 49821
L68632 49821
L68744 49877
L68800 49934
L68857 50046
L68857 50384
L68800 50496
L68744 50552
L68632 50609
L68463 50609
" />
<path d="M69194 49821
L69644 49821
" />
<path d="M69363 49428
L69363 50440
L69419 50552
L69532 50609
L69644 50609
" />
<path d="M69982 50552
L70094 50609
L70319 50609
L70431 50552
L70488 50440
L70488 50384
L70431 50271
L70319 50215
L70150 50215
L70038 50159
L69982 50046
L69982 49990
L70038 49877
L70150 49821
L70319 49821
L70431 49877
" />
<path d="M70881 51059
L70938 51002
L71050 50834
L71106 50721
L71163 50552
L71219 50271
L71219 50046
L71163 49765
L71106 49596
L71050 49484
L70938 49315
L70881 49259
" />
<path d="M35621 51471
L35621 51796
" />
<path d="M35458 51633
L35783 51633
" />
<text x="36570.9" y="52224.4"
textLength="34988.8" font-size="1574.8" lengthAdjust="spacingAndGlyphs"
text-anchor="start" opacity="0">0.82mm / 0.032" (0 holes + 2 slots)</text>
<path d="M37136 50987
L37248 50987
L37361 51043
L37417 51099
L37473 51212
L37529 51437
L37529 51718
L37473 51943
L37417 52055
L37361 52111
L37248 52168
L37136 52168
L37023 52111
L36967 52055
L36911 51943
L36854 51718
L36854 51437
L36911 51212
L36967 51099
L37023 51043
L37136 50987
" />
<path d="M38035 52055
L38092 52111
L38035 52168
L37979 52111
L38035 52055
L38035 52168
" />
<path d="M38767 51493
L38654 51437
L38598 51380
L38542 51268
L38542 51212
L38598 51099
L38654 51043
L38767 50987
L38992 50987
L39104 51043
L39160 51099
L39217 51212
L39217 51268
L39160 51380
L39104 51437
L38992 51493
L38767 51493
L38654 51549
L38598 51605
L38542 51718
L38542 51943
L38598 52055
L38654 52111
L38767 52168
L38992 52168
L39104 52111
L39160 52055
L39217 51943
L39217 51718
L39160 51605
L39104 51549
L38992 51493
" />
<path d="M39667 51099
L39723 51043
L39835 50987
L40116 50987
L40229 51043
L40285 51099
L40341 51212
L40341 51324
L40285 51493
L39610 52168
L40341 52168
" />
<path d="M40848 52168
L40848 51380
" />
<path d="M40848 51493
L40904 51437
L41016 51380
L41185 51380
L41298 51437
L41354 51549
L41354 52168
" />
<path d="M41354 51549
L41410 51437
L41523 51380
L41691 51380
L41804 51437
L41860 51549
L41860 52168
" />
<path d="M42422 52168
L42422 51380
" />
<path d="M42422 51493
L42479 51437
L42591 51380
L42760 51380
L42872 51437
L42929 51549
L42929 52168
" />
<path d="M42929 51549
L42985 51437
L43097 51380
L43266 51380
L43379 51437
L43435 51549
L43435 52168
" />
<path d="M45741 50930
L44728 52449
" />
<path d="M47259 50987
L47372 50987
L47484 51043
L47541 51099
L47597 51212
L47653 51437
L47653 51718
L47597 51943
L47541 52055
L47484 52111
L47372 52168
L47259 52168
L47147 52111
L47091 52055
L47034 51943
L46978 51718
L46978 51437
L47034 51212
L47091 51099
L47147 51043
L47259 50987
" />
<path d="M48159 52055
L48215 52111
L48159 52168
L48103 52111
L48159 52055
L48159 52168
" />
<path d="M48947 50987
L49059 50987
L49172 51043
L49228 51099
L49284 51212
L49340 51437
L49340 51718
L49284 51943
L49228 52055
L49172 52111
L49059 52168
L48947 52168
L48834 52111
L48778 52055
L48722 51943
L48665 51718
L48665 51437
L48722 51212
L48778 51099
L48834 51043
L48947 50987
" />
<path d="M49734 50987
L50465 50987
L50071 51437
L50240 51437
L50353 51493
L50409 51549
L50465 51661
L50465 51943
L50409 52055
L50353 52111
L50240 52168
L49903 52168
L49790 52111
L49734 52055
" />
<path d="M50915 51099
L50971 51043
L51084 50987
L51365 50987
L51478 51043
L51534 51099
L51590 51212
L51590 51324
L51534 51493
L50859 52168
L51590 52168
" />
<path d="M52040 50987
L52040 51212
" />
<path d="M52490 50987
L52490 51212
" />
<path d="M54233 52618
L54177 52561
L54065 52393
L54008 52280
L53952 52111
L53896 51830
L53896 51605
L53952 51324
L54008 51155
L54065 51043
L54177 50874
L54233 50818
" />
<path d="M54908 50987
L55021 50987
L55133 51043
L55190 51099
L55246 51212
L55302 51437
L55302 51718
L55246 51943
L55190 52055
L55133 52111
L55021 52168
L54908 52168
L54796 52111
L54740 52055
L54683 51943
L54627 51718
L54627 51437
L54683 51212
L54740 51099
L54796 51043
L54908 50987
" />
<path d="M56708 52168
L56708 50987
" />
<path d="M57214 52168
L57214 51549
L57158 51437
L57046 51380
L56877 51380
L56764 51437
L56708 51493
" />
<path d="M57946 52168
L57833 52111
L57777 52055
L57721 51943
L57721 51605
L57777 51493
L57833 51437
L57946 51380
L58114 51380
L58227 51437
L58283 51493
L58339 51605
L58339 51943
L58283 52055
L58227 52111
L58114 52168
L57946 52168
" />
<path d="M59014 52168
L58902 52111
L58845 51999
L58845 50987
" />
<path d="M59914 52111
L59802 52168
L59577 52168
L59464 52111
L59408 51999
L59408 51549
L59464 51437
L59577 51380
L59802 51380
L59914 51437
L59970 51549
L59970 51661
L59408 51774
" />
<path d="M60420 52111
L60533 52168
L60758 52168
L60870 52111
L60926 51999
L60926 51943
L60870 51830
L60758 51774
L60589 51774
L60476 51718
L60420 51605
L60420 51549
L60476 51437
L60589 51380
L60758 51380
L60870 51437
" />
<path d="M62332 51718
L63232 51718
" />
<path d="M62782 52168
L62782 51268
" />
<path d="M64638 51099
L64695 51043
L64807 50987
L65088 50987
L65201 51043
L65257 51099
L65313 51212
L65313 51324
L65257 51493
L64582 52168
L65313 52168
" />
<path d="M66663 52111
L66776 52168
L67001 52168
L67113 52111
L67169 51999
L67169 51943
L67113 51830
L67001 51774
L66832 51774
L66719 51718
L66663 51605
L66663 51549
L66719 51437
L66832 51380
L67001 51380
L67113 51437
" />
<path d="M67844 52168
L67732 52111
L67676 51999
L67676 50987
" />
<path d="M68463 52168
L68350 52111
L68294 52055
L68238 51943
L68238 51605
L68294 51493
L68350 51437
L68463 51380
L68632 51380
L68744 51437
L68800 51493
L68857 51605
L68857 51943
L68800 52055
L68744 52111
L68632 52168
L68463 52168
" />
<path d="M69194 51380
L69644 51380
" />
<path d="M69363 50987
L69363 51999
L69419 52111
L69532 52168
L69644 52168
" />
<path d="M69982 52111
L70094 52168
L70319 52168
L70431 52111
L70488 51999
L70488 51943
L70431 51830
L70319 51774
L70150 51774
L70038 51718
L69982 51605
L69982 51549
L70038 51437
L70150 51380
L70319 51380
L70431 51437
" />
<path d="M70881 52618
L70938 52561
L71050 52393
L71106 52280
L71163 52111
L71219 51830
L71219 51605
L71163 51324
L71106 51155
L71050 51043
L70938 50874
L70881 50818
" />
<path style="fill:#000000; fill-opacity:0.0; 
stroke:#000000; stroke-width:118.11; stroke-opacity:1; 
stroke-linecap:round; stroke-linejoin:round;fill:none"
d="M 35725.8,53332.1
35725.8,53053.7
35447.4,53053.7
35447.4,53332.1
Z" /> 
<text x="36570.9" y="53783.5"
textLength="26552.3" font-size="1574.8" lengthAdjust="spacingAndGlyphs"
text-anchor="start" opacity="0">1.00mm / 0.039" (89 holes)</text>
<path d="M37529 53727
L36854 53727
" />
<path d="M37192 53727
L37192 52546
L37079 52714
L36967 52827
L36854 52883
" />
<path d="M38035 53614
L38092 53670
L38035 53727
L37979 53670
L38035 53614
L38035 53727
" />
<path d="M38823 52546
L38935 52546
L39048 52602
L39104 52658
L39160 52771
L39217 52996
L39217 53277
L39160 53502
L39104 53614
L39048 53670
L38935 53727
L38823 53727
L38710 53670
L38654 53614
L38598 53502
L38542 53277
L38542 52996
L38598 52771
L38654 52658
L38710 52602
L38823 52546
" />
<path d="M39948 52546
L40060 52546
L40173 52602
L40229 52658
L40285 52771
L40341 52996
L40341 53277
L40285 53502
L40229 53614
L40173 53670
L40060 53727
L39948 53727
L39835 53670
L39779 53614
L39723 53502
L39667 53277
L39667 52996
L39723 52771
L39779 52658
L39835 52602
L39948 52546
" />
<path d="M40848 53727
L40848 52939
" />
<path d="M40848 53052
L40904 52996
L41016 52939
L41185 52939
L41298 52996
L41354 53108
L41354 53727
" />
<path d="M41354 53108
L41410 52996
L41523 52939
L41691 52939
L41804 52996
L41860 53108
L41860 53727
" />
<path d="M42422 53727
L42422 52939
" />
<path d="M42422 53052
L42479 52996
L42591 52939
L42760 52939
L42872 52996
L42929 53108
L42929 53727
" />
<path d="M42929 53108
L42985 52996
L43097 52939
L43266 52939
L43379 52996
L43435 53108
L43435 53727
" />
<path d="M45741 52489
L44728 54008
" />
<path d="M47259 52546
L47372 52546
L47484 52602
L47541 52658
L47597 52771
L47653 52996
L47653 53277
L47597 53502
L47541 53614
L47484 53670
L47372 53727
L47259 53727
L47147 53670
L47091 53614
L47034 53502
L46978 53277
L46978 52996
L47034 52771
L47091 52658
L47147 52602
L47259 52546
" />
<path d="M48159 53614
L48215 53670
L48159 53727
L48103 53670
L48159 53614
L48159 53727
" />
<path d="M48947 52546
L49059 52546
L49172 52602
L49228 52658
L49284 52771
L49340 52996
L49340 53277
L49284 53502
L49228 53614
L49172 53670
L49059 53727
L48947 53727
L48834 53670
L48778 53614
L48722 53502
L48665 53277
L48665 52996
L48722 52771
L48778 52658
L48834 52602
L48947 52546
" />
<path d="M49734 52546
L50465 52546
L50071 52996
L50240 52996
L50353 53052
L50409 53108
L50465 53221
L50465 53502
L50409 53614
L50353 53670
L50240 53727
L49903 53727
L49790 53670
L49734 53614
" />
<path d="M51028 53727
L51253 53727
L51365 53670
L51421 53614
L51534 53446
L51590 53221
L51590 52771
L51534 52658
L51478 52602
L51365 52546
L51140 52546
L51028 52602
L50971 52658
L50915 52771
L50915 53052
L50971 53164
L51028 53221
L51140 53277
L51365 53277
L51478 53221
L51534 53164
L51590 53052
" />
<path d="M52040 52546
L52040 52771
" />
<path d="M52490 52546
L52490 52771
" />
<path d="M54233 54177
L54177 54120
L54065 53952
L54008 53839
L53952 53670
L53896 53389
L53896 53164
L53952 52883
L54008 52714
L54065 52602
L54177 52433
L54233 52377
" />
<path d="M54852 53052
L54740 52996
L54683 52939
L54627 52827
L54627 52771
L54683 52658
L54740 52602
L54852 52546
L55077 52546
L55190 52602
L55246 52658
L55302 52771
L55302 52827
L55246 52939
L55190 52996
L55077 53052
L54852 53052
L54740 53108
L54683 53164
L54627 53277
L54627 53502
L54683 53614
L54740 53670
L54852 53727
L55077 53727
L55190 53670
L55246 53614
L55302 53502
L55302 53277
L55246 53164
L55190 53108
L55077 53052
" />
<path d="M55865 53727
L56089 53727
L56202 53670
L56258 53614
L56371 53446
L56427 53221
L56427 52771
L56371 52658
L56314 52602
L56202 52546
L55977 52546
L55865 52602
L55808 52658
L55752 52771
L55752 53052
L55808 53164
L55865 53221
L55977 53277
L56202 53277
L56314 53221
L56371 53164
L56427 53052
" />
<path d="M57833 53727
L57833 52546
" />
<path d="M58339 53727
L58339 53108
L58283 52996
L58170 52939
L58002 52939
L57889 52996
L57833 53052
" />
<path d="M59070 53727
L58958 53670
L58902 53614
L58845 53502
L58845 53164
L58902 53052
L58958 52996
L59070 52939
L59239 52939
L59352 52996
L59408 53052
L59464 53164
L59464 53502
L59408 53614
L59352 53670
L59239 53727
L59070 53727
" />
<path d="M60139 53727
L60026 53670
L59970 53558
L59970 52546
" />
<path d="M61039 53670
L60926 53727
L60701 53727
L60589 53670
L60533 53558
L60533 53108
L60589 52996
L60701 52939
L60926 52939
L61039 52996
L61095 53108
L61095 53221
L60533 53333
" />
<path d="M61545 53670
L61658 53727
L61883 53727
L61995 53670
L62051 53558
L62051 53502
L61995 53389
L61883 53333
L61714 53333
L61601 53277
L61545 53164
L61545 53108
L61601 52996
L61714 52939
L61883 52939
L61995 52996
" />
<path d="M62445 54177
L62501 54120
L62614 53952
L62670 53839
L62726 53670
L62782 53389
L62782 53164
L62726 52883
L62670 52714
L62614 52602
L62501 52433
L62445 52377
" />
<path style="fill:#000000; fill-opacity:0.0; 
stroke:#000000; stroke-width:118.11; stroke-opacity:1; 
stroke-linecap:round; stroke-linejoin:round;fill:none"
d="M 35153.5,55381.9
35783.5,54752
35153.5,54122
34523.6,54752
Z" /> 
<text x="36570.9" y="55342.5"
textLength="25427.4" font-size="1574.8" lengthAdjust="spacingAndGlyphs"
text-anchor="start" opacity="0">3.20mm / 0.126" (4 holes)</text>
<path d="M36798 54105
L37529 54105
L37136 54555
L37304 54555
L37417 54611
L37473 54667
L37529 54780
L37529 55061
L37473 55173
L37417 55230
L37304 55286
L36967 55286
L36854 55230
L36798 55173
" />
<path d="M38035 55173
L38092 55230
L38035 55286
L37979 55230
L38035 55173
L38035 55286
" />
<path d="M38542 54217
L38598 54161
L38710 54105
L38992 54105
L39104 54161
L39160 54217
L39217 54330
L39217 54442
L39160 54611
L38485 55286
L39217 55286
" />
<path d="M39948 54105
L40060 54105
L40173 54161
L40229 54217
L40285 54330
L40341 54555
L40341 54836
L40285 55061
L40229 55173
L40173 55230
L40060 55286
L39948 55286
L39835 55230
L39779 55173
L39723 55061
L39667 54836
L39667 54555
L39723 54330
L39779 54217
L39835 54161
L39948 54105
" />
<path d="M40848 55286
L40848 54498
" />
<path d="M40848 54611
L40904 54555
L41016 54498
L41185 54498
L41298 54555
L41354 54667
L41354 55286
" />
<path d="M41354 54667
L41410 54555
L41523 54498
L41691 54498
L41804 54555
L41860 54667
L41860 55286
" />
<path d="M42422 55286
L42422 54498
" />
<path d="M42422 54611
L42479 54555
L42591 54498
L42760 54498
L42872 54555
L42929 54667
L42929 55286
" />
<path d="M42929 54667
L42985 54555
L43097 54498
L43266 54498
L43379 54555
L43435 54667
L43435 55286
" />
<path d="M45741 54048
L44728 55567
" />
<path d="M47259 54105
L47372 54105
L47484 54161
L47541 54217
L47597 54330
L47653 54555
L47653 54836
L47597 55061
L47541 55173
L47484 55230
L47372 55286
L47259 55286
L47147 55230
L47091 55173
L47034 55061
L46978 54836
L46978 54555
L47034 54330
L47091 54217
L47147 54161
L47259 54105
" />
<path d="M48159 55173
L48215 55230
L48159 55286
L48103 55230
L48159 55173
L48159 55286
" />
<path d="M49340 55286
L48665 55286
" />
<path d="M49003 55286
L49003 54105
L48890 54273
L48778 54386
L48665 54442
" />
<path d="M49790 54217
L49847 54161
L49959 54105
L50240 54105
L50353 54161
L50409 54217
L50465 54330
L50465 54442
L50409 54611
L49734 55286
L50465 55286
" />
<path d="M51478 54105
L51253 54105
L51140 54161
L51084 54217
L50971 54386
L50915 54611
L50915 55061
L50971 55173
L51028 55230
L51140 55286
L51365 55286
L51478 55230
L51534 55173
L51590 55061
L51590 54780
L51534 54667
L51478 54611
L51365 54555
L51140 54555
L51028 54611
L50971 54667
L50915 54780
" />
<path d="M52040 54105
L52040 54330
" />
<path d="M52490 54105
L52490 54330
" />
<path d="M54233 55736
L54177 55679
L54065 55511
L54008 55398
L53952 55230
L53896 54948
L53896 54723
L53952 54442
L54008 54273
L54065 54161
L54177 53992
L54233 53936
" />
<path d="M55190 54498
L55190 55286
" />
<path d="M54908 54048
L54627 54892
L55358 54892
" />
<path d="M56708 55286
L56708 54105
" />
<path d="M57214 55286
L57214 54667
L57158 54555
L57046 54498
L56877 54498
L56764 54555
L56708 54611
" />
<path d="M57946 55286
L57833 55230
L57777 55173
L57721 55061
L57721 54723
L57777 54611
L57833 54555
L57946 54498
L58114 54498
L58227 54555
L58283 54611
L58339 54723
L58339 55061
L58283 55173
L58227 55230
L58114 55286
L57946 55286
" />
<path d="M59014 55286
L58902 55230
L58845 55117
L58845 54105
" />
<path d="M59914 55230
L59802 55286
L59577 55286
L59464 55230
L59408 55117
L59408 54667
L59464 54555
L59577 54498
L59802 54498
L59914 54555
L59970 54667
L59970 54780
L59408 54892
" />
<path d="M60420 55230
L60533 55286
L60758 55286
L60870 55230
L60926 55117
L60926 55061
L60870 54948
L60758 54892
L60589 54892
L60476 54836
L60420 54723
L60420 54667
L60476 54555
L60589 54498
L60758 54498
L60870 54555
" />
<path d="M61320 55736
L61376 55679
L61489 55511
L61545 55398
L61601 55230
L61658 54948
L61658 54723
L61601 54442
L61545 54273
L61489 54161
L61376 53992
L61320 53936
" />
</g> 
</svg>
