<?xml version="1.0" standalone="no"?>
 <!DOCTYPE svg PUBLIC "-//W3C//DTD SVG 1.1//EN" 
 "http://www.w3.org/Graphics/SVG/1.1/DTD/svg11.dtd"> 
<svg xmlns="http://www.w3.org/2000/svg" version="1.1" 
    width="29.7002cm" height="21.0007cm" viewBox="0 0 116930 82680 ">
<title>SVG Picture created as PSLab-F.Mask.svg date 2019/04/16 07:25:02 </title>
  <desc>Picture generated by PCBNEW </desc>
<g style="fill:#000000; fill-opacity:1;stroke:#000000; stroke-opacity:1;
stroke-linecap:round; stroke-linejoin:round; "
 transform="translate(0 0) scale(1 1)">
</g>
<g style="fill:#000000; fill-opacity:0.0; 
stroke:#000000; stroke-width:-0.000393701; stroke-opacity:1; 
stroke-linecap:round; stroke-linejoin:round;">
</g>
<g style="fill:#000000; fill-opacity:1.0; 
stroke:#000000; stroke-width:0; stroke-opacity:1; 
stroke-linecap:round; stroke-linejoin:round;">
<polyline style="fill-rule:evenodd;"
points="41506,42627
41612,42648
41695,42683
41813,42731
41994,42852
42147,43005
42268,43186
42271,43195
42351,43387
42362,43445
42385,43560
42393,43600
42393,43817
42351,44030
42346,44042
42268,44230
42147,44411
41994,44564
41813,44685
41695,44734
41612,44768
41506,44789
41399,44811
41182,44811
41076,44789
40969,44768
40886,44734
40769,44685
40588,44564
40435,44411
40314,44230
40236,44042
40231,44030
40188,43817
40188,43600
40196,43560
40219,43445
40231,43387
40310,43195
40314,43186
40435,43005
40588,42852
40769,42731
40886,42683
40969,42648
41076,42627
41182,42606
41399,42606
41506,42627
" /> 
<polyline style="fill-rule:evenodd;"
points="73915,42606
74108,42644
74192,42679
74309,42727
74490,42848
74643,43002
74764,43182
74791,43247
74847,43383
74852,43406
74889,43596
74889,43813
74880,43859
74847,44026
74840,44042
74764,44226
74643,44407
74490,44560
74309,44681
74192,44730
74108,44764
74089,44768
73895,44807
73678,44807
73485,44768
73465,44764
73382,44730
73265,44681
73084,44560
72931,44407
72810,44226
72734,44042
72727,44026
72694,43859
72685,43813
72685,43596
72722,43406
72727,43383
72783,43247
72810,43182
72931,43002
73084,42848
73265,42727
73382,42679
73465,42644
73659,42606
73678,42602
73895,42602
73915,42606
" /> 
<polyline style="fill-rule:evenodd;"
points="69199,40313
69350,40375
69565,40464
69849,40654
69894,40684
70173,40964
70173,40964
70393,41293
70427,41375
70544,41658
70622,42046
70622,42441
70544,42829
70471,43005
70393,43195
70190,43498
70173,43524
69894,43803
69894,43803
69565,44023
69413,44086
69199,44174
68811,44251
68416,44251
68028,44174
67814,44086
67663,44023
67334,43803
67334,43803
67054,43524
67037,43498
66834,43195
66756,43005
66683,42829
66606,42441
66606,42046
66683,41658
66800,41375
66834,41293
67054,40964
67054,40964
67334,40684
67378,40654
67663,40464
67877,40375
68028,40313
68416,40236
68811,40236
69199,40313
" /> 
<polyline style="fill-rule:evenodd;"
points="43248,43728
43268,43736
43284,43742
43311,43760
43316,43764
43343,43791
43343,43791
43365,43824
43380,43859
43387,43897
43387,43936
43380,43974
43365,44010
43344,44042
43343,44042
43316,44070
43316,44070
43284,44091
43248,44106
43210,44114
43171,44114
43133,44106
43097,44091
43065,44070
43065,44070
43038,44042
43037,44042
43016,44010
43001,43974
42994,43936
42994,43897
43001,43859
43016,43824
43038,43791
43038,43791
43065,43764
43070,43760
43097,43742
43113,43736
43133,43728
43171,43720
43210,43720
43248,43728
" /> 
<polyline style="fill-rule:evenodd;"
points="63372,43406
63435,43425
63493,43456
63544,43498
63586,43549
63617,43607
63636,43670
63643,43736
63636,43801
63617,43864
63586,43923
63544,43973
63493,44015
63435,44046
63372,44066
63323,44070
63290,44070
63241,44066
63178,44046
63120,44015
63069,43973
63027,43923
62996,43864
62977,43801
62970,43736
62977,43670
62996,43607
63027,43549
63069,43498
63120,43456
63178,43425
63241,43406
63290,43401
63323,43401
63372,43406
" /> 
<polyline style="fill-rule:evenodd;"
points="62372,43406
62435,43425
62493,43456
62544,43498
62586,43549
62617,43607
62636,43670
62643,43736
62636,43801
62617,43864
62586,43923
62544,43973
62493,44015
62435,44046
62372,44066
62323,44070
62290,44070
62241,44066
62178,44046
62120,44015
62069,43973
62027,43923
61996,43864
61977,43801
61970,43736
61977,43670
61996,43607
62027,43549
62069,43498
62120,43456
62178,43425
62241,43406
62290,43401
62323,43401
62372,43406
" /> 
<polyline style="fill-rule:evenodd;"
points="51368,43406
51431,43425
51489,43456
51540,43498
51582,43549
51613,43607
51632,43670
51639,43736
51632,43801
51613,43864
51582,43923
51540,43973
51489,44015
51431,44046
51368,44066
51319,44070
51286,44070
51237,44066
51174,44046
51116,44015
51065,43973
51023,43923
50992,43864
50973,43801
50966,43736
50973,43670
50992,43607
51023,43549
51065,43498
51116,43456
51174,43425
51237,43406
51286,43401
51319,43401
51368,43406
" /> 
<polyline style="fill-rule:evenodd;"
points="50368,43406
50431,43425
50489,43456
50540,43498
50582,43549
50613,43607
50632,43670
50639,43736
50632,43801
50613,43864
50582,43923
50540,43973
50489,44015
50431,44046
50368,44066
50319,44070
50286,44070
50237,44066
50174,44046
50116,44015
50065,43973
50023,43923
49992,43864
49973,43801
49966,43736
49973,43670
49992,43607
50023,43549
50065,43498
50116,43456
50174,43425
50237,43406
50286,43401
50319,43401
50368,43406
" /> 
<polyline style="fill-rule:evenodd;"
points="49368,43406
49431,43425
49489,43456
49540,43498
49582,43549
49613,43607
49632,43670
49639,43736
49632,43801
49613,43864
49582,43923
49540,43973
49489,44015
49431,44046
49368,44066
49319,44070
49286,44070
49237,44066
49174,44046
49116,44015
49065,43973
49023,43923
48992,43864
48973,43801
48966,43736
48973,43670
48992,43607
49023,43549
49065,43498
49116,43456
49174,43425
49237,43406
49286,43401
49319,43401
49368,43406
" /> 
<polyline style="fill-rule:evenodd;"
points="48368,43406
48431,43425
48489,43456
48540,43498
48582,43549
48613,43607
48632,43670
48639,43736
48632,43801
48613,43864
48582,43923
48540,43973
48489,44015
48431,44046
48368,44066
48319,44070
48286,44070
48237,44066
48174,44046
48116,44015
48065,43973
48023,43923
47992,43864
47973,43801
47966,43736
47973,43670
47992,43607
48023,43549
48065,43498
48116,43456
48174,43425
48237,43406
48286,43401
48319,43401
48368,43406
" /> 
<polyline style="fill-rule:evenodd;"
points="47368,43406
47431,43425
47489,43456
47540,43498
47582,43549
47613,43607
47632,43670
47639,43736
47632,43801
47613,43864
47582,43923
47540,43973
47489,44015
47431,44046
47368,44066
47319,44070
47286,44070
47237,44066
47174,44046
47116,44015
47065,43973
47023,43923
46992,43864
46973,43801
46966,43736
46973,43670
46992,43607
47023,43549
47065,43498
47116,43456
47174,43425
47237,43406
47286,43401
47319,43401
47368,43406
" /> 
<polyline style="fill-rule:evenodd;"
points="46368,43406
46431,43425
46489,43456
46540,43498
46582,43549
46613,43607
46632,43670
46639,43736
46632,43801
46613,43864
46582,43923
46540,43973
46489,44015
46431,44046
46368,44066
46319,44070
46286,44070
46237,44066
46174,44046
46116,44015
46065,43973
46023,43923
45992,43864
45973,43801
45966,43736
45973,43670
45992,43607
46023,43549
46065,43498
46116,43456
46174,43425
46237,43406
46286,43401
46319,43401
46368,43406
" /> 
<polyline style="fill-rule:evenodd;"
points="45637,44070
44968,44070
44968,43401
45637,43401
45637,44070
" /> 
<polyline style="fill-rule:evenodd;"
points="64372,43406
64435,43425
64493,43456
64544,43498
64586,43549
64617,43607
64636,43670
64643,43736
64636,43801
64617,43864
64586,43923
64544,43973
64493,44015
64435,44046
64372,44066
64323,44070
64290,44070
64241,44066
64178,44046
64120,44015
64069,43973
64027,43923
63996,43864
63977,43801
63970,43736
63977,43670
63996,43607
64027,43549
64069,43498
64120,43456
64178,43425
64241,43406
64290,43401
64323,43401
64372,43406
" /> 
<polyline style="fill-rule:evenodd;"
points="60372,43406
60435,43425
60493,43456
60544,43498
60586,43549
60617,43607
60636,43670
60643,43736
60636,43801
60617,43864
60586,43923
60544,43973
60493,44015
60435,44046
60372,44066
60323,44070
60290,44070
60241,44066
60178,44046
60120,44015
60069,43973
60027,43923
59996,43864
59977,43801
59970,43736
59977,43670
59996,43607
60027,43549
60069,43498
60120,43456
60178,43425
60241,43406
60290,43401
60323,43401
60372,43406
" /> 
<polyline style="fill-rule:evenodd;"
points="61372,43406
61435,43425
61493,43456
61544,43498
61586,43549
61617,43607
61636,43670
61643,43736
61636,43801
61617,43864
61586,43923
61544,43973
61493,44015
61435,44046
61372,44066
61323,44070
61290,44070
61241,44066
61178,44046
61120,44015
61069,43973
61027,43923
60996,43864
60977,43801
60970,43736
60977,43670
60996,43607
61027,43549
61069,43498
61120,43456
61178,43425
61241,43406
61290,43401
61323,43401
61372,43406
" /> 
<polyline style="fill-rule:evenodd;"
points="53641,44070
52972,44070
52972,43401
53641,43401
53641,44070
" /> 
<polyline style="fill-rule:evenodd;"
points="54372,43406
54435,43425
54493,43456
54544,43498
54586,43549
54617,43607
54636,43670
54643,43736
54636,43801
54617,43864
54586,43923
54544,43973
54493,44015
54435,44046
54372,44066
54323,44070
54290,44070
54241,44066
54178,44046
54120,44015
54069,43973
54027,43923
53996,43864
53977,43801
53970,43736
53977,43670
53996,43607
54027,43549
54069,43498
54120,43456
54178,43425
54241,43406
54290,43401
54323,43401
54372,43406
" /> 
<polyline style="fill-rule:evenodd;"
points="55372,43406
55435,43425
55493,43456
55544,43498
55586,43549
55617,43607
55636,43670
55643,43736
55636,43801
55617,43864
55586,43923
55544,43973
55493,44015
55435,44046
55372,44066
55323,44070
55290,44070
55241,44066
55178,44046
55120,44015
55069,43973
55027,43923
54996,43864
54977,43801
54970,43736
54977,43670
54996,43607
55027,43549
55069,43498
55120,43456
55178,43425
55241,43406
55290,43401
55323,43401
55372,43406
" /> 
<polyline style="fill-rule:evenodd;"
points="57372,43406
57435,43425
57493,43456
57544,43498
57586,43549
57617,43607
57636,43670
57643,43736
57636,43801
57617,43864
57586,43923
57544,43973
57493,44015
57435,44046
57372,44066
57323,44070
57290,44070
57241,44066
57178,44046
57120,44015
57069,43973
57027,43923
56996,43864
56977,43801
56970,43736
56977,43670
56996,43607
57027,43549
57069,43498
57120,43456
57178,43425
57241,43406
57290,43401
57323,43401
57372,43406
" /> 
<polyline style="fill-rule:evenodd;"
points="58372,43406
58435,43425
58493,43456
58544,43498
58586,43549
58617,43607
58636,43670
58643,43736
58636,43801
58617,43864
58586,43923
58544,43973
58493,44015
58435,44046
58372,44066
58323,44070
58290,44070
58241,44066
58178,44046
58120,44015
58069,43973
58027,43923
57996,43864
57977,43801
57970,43736
57977,43670
57996,43607
58027,43549
58069,43498
58120,43456
58178,43425
58241,43406
58290,43401
58323,43401
58372,43406
" /> 
<polyline style="fill-rule:evenodd;"
points="59372,43406
59435,43425
59493,43456
59544,43498
59586,43549
59617,43607
59636,43670
59643,43736
59636,43801
59617,43864
59586,43923
59544,43973
59493,44015
59435,44046
59372,44066
59323,44070
59290,44070
59241,44066
59178,44046
59120,44015
59069,43973
59027,43923
58996,43864
58977,43801
58970,43736
58977,43670
58996,43607
59027,43549
59069,43498
59120,43456
59178,43425
59241,43406
59290,43401
59323,43401
59372,43406
" /> 
<polyline style="fill-rule:evenodd;"
points="56372,43406
56435,43425
56493,43456
56544,43498
56586,43549
56617,43607
56636,43670
56643,43736
56636,43801
56617,43864
56586,43923
56544,43973
56493,44015
56435,44046
56372,44066
56323,44070
56290,44070
56241,44066
56178,44046
56120,44015
56069,43973
56027,43923
55996,43864
55977,43801
55970,43736
55977,43670
55996,43607
56027,43549
56069,43498
56120,43456
56178,43425
56241,43406
56290,43401
56323,43401
56372,43406
" /> 
<polyline style="fill-rule:evenodd;"
points="39463,43241
39491,43247
39513,43256
39545,43269
39593,43302
39634,43343
39667,43391
39680,43423
39689,43445
39700,43502
39700,43560
39691,43607
39689,43617
39667,43671
39634,43719
39593,43760
39545,43793
39519,43803
39491,43815
39482,43817
39434,43826
39376,43826
39328,43817
39319,43815
39291,43803
39265,43793
39217,43760
39176,43719
39143,43671
39121,43617
39119,43607
39110,43560
39110,43502
39121,43445
39130,43423
39143,43391
39176,43343
39217,43302
39265,43269
39297,43256
39319,43247
39347,43241
39376,43236
39434,43236
39463,43241
" /> 
<polyline style="fill-rule:evenodd;"
points="38061,43241
38090,43247
38112,43256
38143,43269
38192,43302
38233,43343
38265,43391
38278,43423
38287,43445
38299,43502
38299,43560
38289,43607
38287,43617
38265,43671
38233,43719
38192,43760
38143,43793
38118,43803
38090,43815
38080,43817
38033,43826
37974,43826
37926,43817
37917,43815
37889,43803
37864,43793
37815,43760
37774,43719
37742,43671
37720,43617
37718,43607
37708,43560
37708,43502
37720,43445
37729,43423
37742,43391
37774,43343
37815,43302
37864,43269
37895,43256
37917,43247
37946,43241
37974,43236
38033,43236
38061,43241
" /> 
<polyline style="fill-rule:evenodd;"
points="36707,43241
36735,43247
36757,43256
36789,43269
36837,43302
36878,43343
36911,43391
36924,43423
36933,43445
36944,43502
36944,43560
36935,43607
36933,43617
36911,43671
36878,43719
36837,43760
36789,43793
36764,43803
36735,43815
36726,43817
36678,43826
36620,43826
36572,43817
36563,43815
36535,43803
36509,43793
36461,43760
36420,43719
36387,43671
36365,43617
36363,43607
36354,43560
36354,43502
36365,43445
36374,43423
36387,43391
36420,43343
36461,43302
36509,43269
36541,43256
36563,43247
36592,43241
36620,43236
36678,43236
36707,43241
" /> 
<polyline style="fill-rule:evenodd;"
points="72098,41437
72098,43051
71114,43444
71114,41043
72098,41437
" /> 
<polyline style="fill-rule:evenodd;"
points="66114,43444
65129,43051
65129,41437
66114,41043
66114,43444
" /> 
<polyline style="fill-rule:evenodd;"
points="44586,43169
44389,43169
44389,42814
44586,42814
44586,43169
" /> 
<polyline style="fill-rule:evenodd;"
points="43996,43169
43799,43169
43799,42814
43996,42814
43996,43169
" /> 
<polyline style="fill-rule:evenodd;"
points="64429,42685
63720,42685
63720,42291
64429,42291
64429,42685
" /> 
<polyline style="fill-rule:evenodd;"
points="51933,42503
51342,42503
51342,42267
51933,42267
51933,42503
" /> 
<polyline style="fill-rule:evenodd;"
points="54059,42503
53468,42503
53468,42267
54059,42267
54059,42503
" /> 
<polyline style="fill-rule:evenodd;"
points="73002,41808
73031,41820
73038,41823
73069,41844
73070,41845
73097,41872
73119,41904
73134,41940
73141,41978
73141,42017
73134,42055
73119,42091
73097,42123
73070,42150
73070,42150
73038,42172
73002,42187
72964,42194
72925,42194
72887,42187
72851,42172
72819,42150
72819,42150
72791,42123
72770,42091
72755,42055
72748,42017
72748,41978
72755,41940
72770,41904
72791,41872
72819,41845
72819,41844
72851,41823
72858,41820
72887,41808
72925,41801
72964,41801
73002,41808
" /> 
<polyline style="fill-rule:evenodd;"
points="38917,42145
38720,42145
38720,41791
38917,41791
38917,42145
" /> 
<polyline style="fill-rule:evenodd;"
points="38326,42145
38129,42145
38129,41791
38326,41791
38326,42145
" /> 
<polyline style="fill-rule:evenodd;"
points="45413,42145
45216,42145
45216,41791
45413,41791
45413,42145
" /> 
<polyline style="fill-rule:evenodd;"
points="44586,42145
44389,42145
44389,41791
44586,41791
44586,42145
" /> 
<polyline style="fill-rule:evenodd;"
points="46003,42145
45807,42145
45807,41791
46003,41791
46003,42145
" /> 
<polyline style="fill-rule:evenodd;"
points="43996,42145
43799,42145
43799,41791
43996,41791
43996,42145
" /> 
<polyline style="fill-rule:evenodd;"
points="43228,42116
42913,42116
42913,41820
43228,41820
43228,42116
" /> 
<polyline style="fill-rule:evenodd;"
points="39803,42116
39488,42116
39488,41820
39803,41820
39803,42116
" /> 
<polyline style="fill-rule:evenodd;"
points="40393,42116
40078,42116
40078,41820
40393,41820
40393,42116
" /> 
<polyline style="fill-rule:evenodd;"
points="48897,42116
48582,42116
48582,41820
48897,41820
48897,42116
" /> 
<polyline style="fill-rule:evenodd;"
points="48307,42116
47992,42116
47992,41820
48307,41820
48307,42116
" /> 
<polyline style="fill-rule:evenodd;"
points="46889,42116
46574,42116
46574,41820
46889,41820
46889,42116
" /> 
<polyline style="fill-rule:evenodd;"
points="47480,42116
47165,42116
47165,41820
47480,41820
47480,42116
" /> 
<polyline style="fill-rule:evenodd;"
points="42637,42116
42322,42116
42322,41820
42637,41820
42637,42116
" /> 
<polyline style="fill-rule:evenodd;"
points="63206,42112
62596,42112
62596,41875
63206,41875
63206,42112
" /> 
<polyline style="fill-rule:evenodd;"
points="61080,42112
60470,42112
60470,41875
61080,41875
61080,42112
" /> 
<polyline style="fill-rule:evenodd;"
points="54059,42003
53468,42003
53468,41767
54059,41767
54059,42003
" /> 
<polyline style="fill-rule:evenodd;"
points="51933,42003
51342,42003
51342,41767
51933,41767
51933,42003
" /> 
<polyline style="fill-rule:evenodd;"
points="37322,41791
36653,41791
36653,41437
37322,41437
37322,41791
" /> 
<polyline style="fill-rule:evenodd;"
points="64429,41700
63720,41700
63720,41307
64429,41307
64429,41700
" /> 
<polyline style="fill-rule:evenodd;"
points="63206,41612
62596,41612
62596,41375
63206,41375
63206,41612
" /> 
<polyline style="fill-rule:evenodd;"
points="61080,41612
60470,41612
60470,41375
61080,41375
61080,41612
" /> 
<polyline style="fill-rule:evenodd;"
points="51933,41503
51342,41503
51342,41267
51933,41267
51933,41503
" /> 
<polyline style="fill-rule:evenodd;"
points="54059,41503
53468,41503
53468,41267
54059,41267
54059,41503
" /> 
<polyline style="fill-rule:evenodd;"
points="39744,41122
39547,41122
39547,40767
39744,40767
39744,41122
" /> 
<polyline style="fill-rule:evenodd;"
points="41161,41122
40964,41122
40964,40767
41161,40767
41161,41122
" /> 
<polyline style="fill-rule:evenodd;"
points="42578,41122
42381,41122
42381,40767
42578,40767
42578,41122
" /> 
<polyline style="fill-rule:evenodd;"
points="43169,41122
42972,41122
42972,40767
43169,40767
43169,41122
" /> 
<polyline style="fill-rule:evenodd;"
points="41751,41122
41555,41122
41555,40767
41751,40767
41751,41122
" /> 
<polyline style="fill-rule:evenodd;"
points="40334,41122
40137,41122
40137,40767
40334,40767
40334,41122
" /> 
<polyline style="fill-rule:evenodd;"
points="63206,41112
62596,41112
62596,40875
63206,40875
63206,41112
" /> 
<polyline style="fill-rule:evenodd;"
points="61080,41112
60470,41112
60470,40875
61080,40875
61080,41112
" /> 
<polyline style="fill-rule:evenodd;"
points="44055,41092
43740,41092
43740,40797
44055,40797
44055,41092
" /> 
<polyline style="fill-rule:evenodd;"
points="38385,41092
38070,41092
38070,40797
38385,40797
38385,41092
" /> 
<polyline style="fill-rule:evenodd;"
points="44645,41092
44330,41092
44330,40797
44645,40797
44645,41092
" /> 
<polyline style="fill-rule:evenodd;"
points="38976,41092
38661,41092
38661,40797
38976,40797
38976,41092
" /> 
<polyline style="fill-rule:evenodd;"
points="73856,40390
73920,40409
73978,40440
74029,40482
74070,40533
74102,40591
74121,40654
74127,40720
74121,40786
74102,40849
74070,40907
74029,40958
73978,41000
73920,41031
73856,41050
73807,41055
73774,41055
73725,41050
73662,41031
73604,41000
73553,40958
73511,40907
73480,40849
73461,40786
73455,40720
73461,40654
73480,40591
73511,40533
73553,40482
73604,40440
73662,40409
73725,40390
73774,40385
73807,40385
73856,40390
" /> 
<polyline style="fill-rule:evenodd;"
points="72856,40390
72920,40409
72978,40440
73029,40482
73070,40533
73102,40591
73121,40654
73127,40720
73121,40786
73102,40849
73070,40907
73029,40958
72978,41000
72920,41031
72856,41050
72807,41055
72774,41055
72725,41050
72662,41031
72604,41000
72553,40958
72511,40907
72480,40849
72461,40786
72455,40720
72461,40654
72480,40591
72511,40533
72553,40482
72604,40440
72662,40409
72725,40390
72774,40385
72807,40385
72856,40390
" /> 
<polyline style="fill-rule:evenodd;"
points="51933,41003
51342,41003
51342,40767
51933,40767
51933,41003
" /> 
<polyline style="fill-rule:evenodd;"
points="54059,41003
53468,41003
53468,40767
54059,40767
54059,41003
" /> 
<polyline style="fill-rule:evenodd;"
points="48360,40730
47750,40730
47750,40494
48360,40494
48360,40730
" /> 
<polyline style="fill-rule:evenodd;"
points="46234,40730
45624,40730
45624,40494
46234,40494
46234,40730
" /> 
<polyline style="fill-rule:evenodd;"
points="63206,40612
62596,40612
62596,40375
63206,40375
63206,40612
" /> 
<polyline style="fill-rule:evenodd;"
points="61080,40612
60470,40612
60470,40375
61080,40375
61080,40612
" /> 
<polyline style="fill-rule:evenodd;"
points="54059,40503
53468,40503
53468,40267
54059,40267
54059,40503
" /> 
<polyline style="fill-rule:evenodd;"
points="51933,40503
51342,40503
51342,40267
51933,40267
51933,40503
" /> 
<polyline style="fill-rule:evenodd;"
points="37322,40452
36653,40452
36653,40098
37322,40098
37322,40452
" /> 
<polyline style="fill-rule:evenodd;"
points="48360,40230
47750,40230
47750,39994
48360,39994
48360,40230
" /> 
<polyline style="fill-rule:evenodd;"
points="46234,40230
45624,40230
45624,39994
46234,39994
46234,40230
" /> 
<polyline style="fill-rule:evenodd;"
points="58448,40185
58251,40185
58251,39830
58448,39830
58448,40185
" /> 
<polyline style="fill-rule:evenodd;"
points="59039,40185
58842,40185
58842,39830
59039,39830
59039,40185
" /> 
<polyline style="fill-rule:evenodd;"
points="42578,40098
42381,40098
42381,39744
42578,39744
42578,40098
" /> 
<polyline style="fill-rule:evenodd;"
points="40334,40098
40137,40098
40137,39744
40334,39744
40334,40098
" /> 
<polyline style="fill-rule:evenodd;"
points="41751,40098
41555,40098
41555,39744
41751,39744
41751,40098
" /> 
<polyline style="fill-rule:evenodd;"
points="43169,40098
42972,40098
42972,39744
43169,39744
43169,40098
" /> 
<polyline style="fill-rule:evenodd;"
points="39744,40098
39547,40098
39547,39744
39744,39744
39744,40098
" /> 
<polyline style="fill-rule:evenodd;"
points="41161,40098
40964,40098
40964,39744
41161,39744
41161,40098
" /> 
<polyline style="fill-rule:evenodd;"
points="38385,40068
38070,40068
38070,39773
38385,39773
38385,40068
" /> 
<polyline style="fill-rule:evenodd;"
points="38976,40068
38661,40068
38661,39773
38976,39773
38976,40068
" /> 
<polyline style="fill-rule:evenodd;"
points="44055,40068
43740,40068
43740,39773
44055,39773
44055,40068
" /> 
<polyline style="fill-rule:evenodd;"
points="44645,40068
44330,40068
44330,39773
44645,39773
44645,40068
" /> 
<polyline style="fill-rule:evenodd;"
points="73856,39390
73920,39409
73978,39440
74029,39482
74070,39533
74102,39591
74121,39654
74127,39720
74121,39786
74102,39849
74070,39907
74029,39958
73978,40000
73920,40031
73856,40050
73807,40055
73774,40055
73725,40050
73662,40031
73604,40000
73553,39958
73511,39907
73480,39849
73461,39786
73455,39720
73461,39654
73480,39591
73511,39533
73553,39482
73604,39440
73662,39409
73725,39390
73774,39385
73807,39385
73856,39390
" /> 
<polyline style="fill-rule:evenodd;"
points="72856,39390
72920,39409
72978,39440
73029,39482
73070,39533
73102,39591
73121,39654
73127,39720
73121,39786
73102,39849
73070,39907
73029,39958
72978,40000
72920,40031
72856,40050
72807,40055
72774,40055
72725,40050
72662,40031
72604,40000
72553,39958
72511,39907
72480,39849
72461,39786
72455,39720
72461,39654
72480,39591
72511,39533
72553,39482
72604,39440
72662,39409
72725,39390
72774,39385
72807,39385
72856,39390
" /> 
<polyline style="fill-rule:evenodd;"
points="51933,40003
51342,40003
51342,39767
51933,39767
51933,40003
" /> 
<polyline style="fill-rule:evenodd;"
points="54059,40003
53468,40003
53468,39767
54059,39767
54059,40003
" /> 
<polyline style="fill-rule:evenodd;"
points="60929,39923
60614,39923
60614,39627
60929,39627
60929,39923
" /> 
<polyline style="fill-rule:evenodd;"
points="61519,39923
61204,39923
61204,39627
61519,39627
61519,39923
" /> 
<polyline style="fill-rule:evenodd;"
points="59836,39897
59541,39897
59541,39582
59836,39582
59836,39897
" /> 
<polyline style="fill-rule:evenodd;"
points="48360,39730
47750,39730
47750,39494
48360,39494
48360,39730
" /> 
<polyline style="fill-rule:evenodd;"
points="46234,39730
45624,39730
45624,39494
46234,39494
46234,39730
" /> 
<polyline style="fill-rule:evenodd;"
points="50431,39100
50460,39105
50482,39115
50513,39128
50562,39160
50603,39201
50635,39249
50657,39303
50669,39360
50669,39418
50664,39440
50657,39475
50655,39482
50635,39529
50603,39577
50562,39619
50513,39651
50482,39664
50460,39673
50431,39679
50403,39685
50344,39685
50316,39679
50287,39673
50265,39664
50234,39651
50185,39619
50144,39577
50112,39529
50092,39482
50090,39475
50083,39440
50078,39418
50078,39360
50090,39303
50112,39249
50144,39201
50185,39160
50234,39128
50265,39115
50287,39105
50316,39100
50344,39094
50403,39094
50431,39100
" /> 
<polyline style="fill-rule:evenodd;"
points="51933,39503
51342,39503
51342,39267
51933,39267
51933,39503
" /> 
<polyline style="fill-rule:evenodd;"
points="54059,39503
53468,39503
53468,39267
54059,39267
54059,39503
" /> 
<polyline style="fill-rule:evenodd;"
points="59836,39307
59541,39307
59541,38992
59836,38992
59836,39307
" /> 
<polyline style="fill-rule:evenodd;"
points="48360,39230
47750,39230
47750,38994
48360,38994
48360,39230
" /> 
<polyline style="fill-rule:evenodd;"
points="46234,39230
45624,39230
45624,38994
46234,38994
46234,39230
" /> 
<polyline style="fill-rule:evenodd;"
points="59047,39161
58850,39161
58850,38807
59047,38807
59047,39161
" /> 
<polyline style="fill-rule:evenodd;"
points="58456,39161
58259,39161
58259,38807
58456,38807
58456,39161
" /> 
<polyline style="fill-rule:evenodd;"
points="67147,39120
66537,39120
66537,38883
67147,38883
67147,39120
" /> 
<polyline style="fill-rule:evenodd;"
points="65021,39120
64411,39120
64411,38883
65021,38883
65021,39120
" /> 
<polyline style="fill-rule:evenodd;"
points="63198,39104
62588,39104
62588,38868
63198,38868
63198,39104
" /> 
<polyline style="fill-rule:evenodd;"
points="61072,39104
60462,39104
60462,38868
61072,38868
61072,39104
" /> 
<polyline style="fill-rule:evenodd;"
points="36576,39064
35828,39064
35828,38553
36576,38553
36576,39064
" /> 
<polyline style="fill-rule:evenodd;"
points="56031,39061
55716,39061
55716,38765
56031,38765
56031,39061
" /> 
<polyline style="fill-rule:evenodd;"
points="55440,39061
55125,39061
55125,38765
55440,38765
55440,39061
" /> 
<polyline style="fill-rule:evenodd;"
points="72856,38390
72920,38409
72978,38440
73029,38482
73070,38533
73102,38591
73121,38654
73127,38720
73121,38786
73102,38849
73070,38907
73029,38958
72978,39000
72920,39031
72856,39050
72807,39055
72774,39055
72725,39050
72662,39031
72604,39000
72553,38958
72511,38907
72480,38849
72461,38786
72455,38720
72461,38654
72480,38591
72511,38533
72553,38482
72604,38440
72662,38409
72725,38390
72774,38385
72807,38385
72856,38390
" /> 
<polyline style="fill-rule:evenodd;"
points="73856,38390
73920,38409
73978,38440
74029,38482
74070,38533
74102,38591
74121,38654
74127,38720
74121,38786
74102,38849
74070,38907
74029,38958
73978,39000
73920,39031
73856,39050
73807,39055
73774,39055
73725,39050
73662,39031
73604,39000
73553,38958
73511,38907
73480,38849
73461,38786
73455,38720
73461,38654
73480,38591
73511,38533
73553,38482
73604,38440
73662,38409
73725,38390
73774,38385
73807,38385
73856,38390
" /> 
<polyline style="fill-rule:evenodd;"
points="68799,38937
68602,38937
68602,38582
68799,38582
68799,38937
" /> 
<polyline style="fill-rule:evenodd;"
points="68208,38937
68011,38937
68011,38582
68208,38582
68208,38937
" /> 
<polyline style="fill-rule:evenodd;"
points="70216,38937
70019,38937
70019,38582
70216,38582
70216,38937
" /> 
<polyline style="fill-rule:evenodd;"
points="69625,38937
69429,38937
69429,38582
69625,38582
69625,38937
" /> 
<polyline style="fill-rule:evenodd;"
points="71633,38937
71437,38937
71437,38582
71633,38582
71633,38937
" /> 
<polyline style="fill-rule:evenodd;"
points="71043,38937
70846,38937
70846,38582
71043,38582
71043,38937
" /> 
<polyline style="fill-rule:evenodd;"
points="67147,38620
66537,38620
66537,38383
67147,38383
67147,38620
" /> 
<polyline style="fill-rule:evenodd;"
points="65021,38620
64411,38620
64411,38383
65021,38383
65021,38620
" /> 
<polyline style="fill-rule:evenodd;"
points="63198,38604
62588,38604
62588,38368
63198,38368
63198,38604
" /> 
<polyline style="fill-rule:evenodd;"
points="61072,38604
60462,38604
60462,38368
61072,38368
61072,38604
" /> 
<polyline style="fill-rule:evenodd;"
points="48307,38592
47992,38592
47992,38297
48307,38297
48307,38592
" /> 
<polyline style="fill-rule:evenodd;"
points="48897,38592
48582,38592
48582,38297
48897,38297
48897,38592
" /> 
<polyline style="fill-rule:evenodd;"
points="46062,38592
45748,38592
45748,38297
46062,38297
46062,38592
" /> 
<polyline style="fill-rule:evenodd;"
points="45472,38592
45157,38592
45157,38297
45472,38297
45472,38592
" /> 
<polyline style="fill-rule:evenodd;"
points="59832,38220
59537,38220
59537,37905
59832,37905
59832,38220
" /> 
<polyline style="fill-rule:evenodd;"
points="59047,38137
58850,38137
58850,37783
59047,37783
59047,38137
" /> 
<polyline style="fill-rule:evenodd;"
points="58456,38137
58259,38137
58259,37783
58456,37783
58456,38137
" /> 
<polyline style="fill-rule:evenodd;"
points="67147,38120
66537,38120
66537,37883
67147,37883
67147,38120
" /> 
<polyline style="fill-rule:evenodd;"
points="65021,38120
64411,38120
64411,37883
65021,37883
65021,38120
" /> 
<polyline style="fill-rule:evenodd;"
points="61072,38104
60462,38104
60462,37868
61072,37868
61072,38104
" /> 
<polyline style="fill-rule:evenodd;"
points="63198,38104
62588,38104
62588,37868
63198,37868
63198,38104
" /> 
<polyline style="fill-rule:evenodd;"
points="56037,38098
52671,38098
52671,37507
56037,37507
56037,38098
" /> 
<polyline style="fill-rule:evenodd;"
points="42383,38080
41911,38080
41911,37687
42383,37687
42383,38080
" /> 
<polyline style="fill-rule:evenodd;"
points="72856,37390
72920,37409
72978,37440
73029,37482
73070,37533
73102,37591
73121,37654
73127,37720
73121,37786
73102,37849
73070,37907
73029,37958
72978,38000
72920,38031
72856,38050
72807,38055
72774,38055
72725,38050
72662,38031
72604,38000
72553,37958
72511,37907
72480,37849
72461,37786
72455,37720
72461,37654
72480,37591
72511,37533
72553,37482
72604,37440
72662,37409
72725,37390
72774,37385
72807,37385
72856,37390
" /> 
<polyline style="fill-rule:evenodd;"
points="73856,37390
73920,37409
73978,37440
74029,37482
74070,37533
74102,37591
74121,37654
74127,37720
74121,37786
74102,37849
74070,37907
74029,37958
73978,38000
73920,38031
73856,38050
73807,38055
73774,38055
73725,38050
73662,38031
73604,38000
73553,37958
73511,37907
73480,37849
73461,37786
73455,37720
73461,37654
73480,37591
73511,37533
73553,37482
73604,37440
73662,37409
73725,37390
73774,37385
73807,37385
73856,37390
" /> 
<polyline style="fill-rule:evenodd;"
points="71043,37913
70846,37913
70846,37559
71043,37559
71043,37913
" /> 
<polyline style="fill-rule:evenodd;"
points="71633,37913
71437,37913
71437,37559
71633,37559
71633,37913
" /> 
<polyline style="fill-rule:evenodd;"
points="68208,37913
68011,37913
68011,37559
68208,37559
68208,37913
" /> 
<polyline style="fill-rule:evenodd;"
points="68799,37913
68602,37913
68602,37559
68799,37559
68799,37913
" /> 
<polyline style="fill-rule:evenodd;"
points="70275,37883
69960,37883
69960,37588
70275,37588
70275,37883
" /> 
<polyline style="fill-rule:evenodd;"
points="69685,37883
69370,37883
69370,37588
69685,37588
69685,37883
" /> 
<polyline style="fill-rule:evenodd;"
points="59832,37629
59537,37629
59537,37314
59832,37314
59832,37629
" /> 
<polyline style="fill-rule:evenodd;"
points="67147,37620
66537,37620
66537,37383
67147,37383
67147,37620
" /> 
<polyline style="fill-rule:evenodd;"
points="65021,37620
64411,37620
64411,37383
65021,37383
65021,37620
" /> 
<polyline style="fill-rule:evenodd;"
points="61072,37604
60462,37604
60462,37368
61072,37368
61072,37604
" /> 
<polyline style="fill-rule:evenodd;"
points="63198,37604
62588,37604
62588,37368
63198,37368
63198,37604
" /> 
<polyline style="fill-rule:evenodd;"
points="47664,36811
47727,36831
47785,36862
47836,36903
47878,36954
47909,37013
47928,37076
47934,37141
47928,37207
47909,37270
47878,37328
47836,37379
47785,37421
47727,37452
47664,37471
47614,37476
47581,37476
47532,37471
47469,37452
47411,37421
47360,37379
47318,37328
47287,37270
47268,37207
47262,37141
47268,37076
47287,37013
47318,36954
47360,36903
47411,36862
47469,36831
47532,36811
47581,36807
47614,36807
47664,36811
" /> 
<polyline style="fill-rule:evenodd;"
points="45933,37476
45263,37476
45263,36807
45933,36807
45933,37476
" /> 
<polyline style="fill-rule:evenodd;"
points="46664,36811
46727,36831
46785,36862
46836,36903
46878,36954
46909,37013
46928,37076
46934,37141
46928,37207
46909,37270
46878,37328
46836,37379
46785,37421
46727,37452
46664,37471
46614,37476
46581,37476
46532,37471
46469,37452
46411,37421
46360,37379
46318,37328
46287,37270
46268,37207
46262,37141
46268,37076
46287,37013
46318,36954
46360,36903
46411,36862
46469,36831
46532,36811
46581,36807
46614,36807
46664,36811
" /> 
<polyline style="fill-rule:evenodd;"
points="48664,36811
48727,36831
48785,36862
48836,36903
48878,36954
48909,37013
48928,37076
48934,37141
48928,37207
48909,37270
48878,37328
48836,37379
48785,37421
48727,37452
48664,37471
48614,37476
48581,37476
48532,37471
48469,37452
48411,37421
48360,37379
48318,37328
48287,37270
48268,37207
48262,37141
48268,37076
48287,37013
48318,36954
48360,36903
48411,36862
48469,36831
48532,36811
48581,36807
48614,36807
48664,36811
" /> 
<polyline style="fill-rule:evenodd;"
points="49664,36811
49727,36831
49785,36862
49836,36903
49878,36954
49909,37013
49928,37076
49934,37141
49928,37207
49909,37270
49878,37328
49836,37379
49785,37421
49727,37452
49664,37471
49614,37476
49581,37476
49532,37471
49469,37452
49411,37421
49360,37379
49318,37328
49287,37270
49268,37207
49262,37141
49268,37076
49287,37013
49318,36954
49360,36903
49411,36862
49469,36831
49532,36811
49581,36807
49614,36807
49664,36811
" /> 
<polyline style="fill-rule:evenodd;"
points="42383,37411
41911,37411
41911,37135
42383,37135
42383,37411
" /> 
<polyline style="fill-rule:evenodd;"
points="50644,36908
50689,36922
50730,36944
50766,36973
50795,37009
50817,37050
50831,37095
50835,37141
50831,37188
50817,37232
50795,37273
50766,37309
50730,37339
50689,37361
50644,37374
50610,37377
50586,37377
50552,37374
50507,37361
50466,37339
50430,37309
50401,37273
50379,37232
50365,37188
50361,37141
50365,37095
50379,37050
50401,37009
50430,36973
50466,36944
50507,36922
50552,36908
50586,36905
50610,36905
50644,36908
" /> 
<polyline style="fill-rule:evenodd;"
points="52405,37242
51814,37242
51814,33875
52405,33875
52405,37242
" /> 
<polyline style="fill-rule:evenodd;"
points="56893,37242
56303,37242
56303,33875
56893,33875
56893,37242
" /> 
<polyline style="fill-rule:evenodd;"
points="58468,37114
58271,37114
58271,36759
58468,36759
58468,37114
" /> 
<polyline style="fill-rule:evenodd;"
points="59059,37114
58862,37114
58862,36759
59059,36759
59059,37114
" /> 
<polyline style="fill-rule:evenodd;"
points="73856,36390
73920,36409
73978,36440
74029,36482
74070,36533
74102,36591
74121,36654
74127,36720
74121,36786
74102,36849
74070,36907
74029,36958
73978,37000
73920,37031
73856,37050
73807,37055
73774,37055
73725,37050
73662,37031
73604,37000
73553,36958
73511,36907
73480,36849
73461,36786
73455,36720
73461,36654
73480,36591
73511,36533
73553,36482
73604,36440
73662,36409
73725,36390
73774,36385
73807,36385
73856,36390
" /> 
<polyline style="fill-rule:evenodd;"
points="72856,36390
72920,36409
72978,36440
73029,36482
73070,36533
73102,36591
73121,36654
73127,36720
73121,36786
73102,36849
73070,36907
73029,36958
72978,37000
72920,37031
72856,37050
72807,37055
72774,37055
72725,37050
72662,37031
72604,37000
72553,36958
72511,36907
72480,36849
72461,36786
72455,36720
72461,36654
72480,36591
72511,36533
72553,36482
72604,36440
72662,36409
72725,36390
72774,36385
72807,36385
72856,36390
" /> 
<polyline style="fill-rule:evenodd;"
points="42383,36978
41911,36978
41911,36702
42383,36702
42383,36978
" /> 
<polyline style="fill-rule:evenodd;"
points="61578,36917
61224,36917
61224,36720
61578,36720
61578,36917
" /> 
<polyline style="fill-rule:evenodd;"
points="63118,36895
62803,36895
62803,36600
63118,36600
63118,36895
" /> 
<polyline style="fill-rule:evenodd;"
points="63708,36895
63393,36895
63393,36600
63708,36600
63708,36895
" /> 
<polyline style="fill-rule:evenodd;"
points="66165,36895
65850,36895
65850,36600
66165,36600
66165,36895
" /> 
<polyline style="fill-rule:evenodd;"
points="66755,36895
66440,36895
66440,36600
66755,36600
66755,36895
" /> 
<polyline style="fill-rule:evenodd;"
points="42383,36545
41911,36545
41911,36269
42383,36269
42383,36545
" /> 
<polyline style="fill-rule:evenodd;"
points="60661,36362
60188,36362
60188,35889
60661,35889
60661,36362
" /> 
<polyline style="fill-rule:evenodd;"
points="61578,36326
61224,36326
61224,36129
61578,36129
61578,36326
" /> 
<polyline style="fill-rule:evenodd;"
points="65017,36116
64407,36116
64407,35879
65017,35879
65017,36116
" /> 
<polyline style="fill-rule:evenodd;"
points="67143,36116
66533,36116
66533,35879
67143,35879
67143,36116
" /> 
<polyline style="fill-rule:evenodd;"
points="42383,36112
41911,36112
41911,35836
42383,35836
42383,36112
" /> 
<polyline style="fill-rule:evenodd;"
points="69057,36096
68446,36096
68446,35860
69057,35860
69057,36096
" /> 
<polyline style="fill-rule:evenodd;"
points="71183,36096
70572,36096
70572,35860
71183,35860
71183,36096
" /> 
<polyline style="fill-rule:evenodd;"
points="58468,36090
58271,36090
58271,35736
58468,35736
58468,36090
" /> 
<polyline style="fill-rule:evenodd;"
points="59059,36090
58862,36090
58862,35736
59059,35736
59059,36090
" /> 
<polyline style="fill-rule:evenodd;"
points="73856,35390
73920,35409
73978,35440
74029,35482
74070,35533
74102,35591
74121,35654
74127,35720
74121,35786
74102,35849
74070,35907
74029,35958
73978,36000
73920,36031
73856,36050
73807,36055
73774,36055
73725,36050
73662,36031
73604,36000
73553,35958
73511,35907
73480,35849
73461,35786
73455,35720
73461,35654
73480,35591
73511,35533
73553,35482
73604,35440
73662,35409
73725,35390
73774,35385
73807,35385
73856,35390
" /> 
<polyline style="fill-rule:evenodd;"
points="72856,35390
72920,35409
72978,35440
73029,35482
73070,35533
73102,35591
73121,35654
73127,35720
73121,35786
73102,35849
73070,35907
73029,35958
72978,36000
72920,36031
72856,36050
72807,36055
72774,36055
72725,36050
72662,36031
72604,36000
72553,35958
72511,35907
72480,35849
72461,35786
72455,35720
72461,35654
72480,35591
72511,35533
72553,35482
72604,35440
72662,35409
72725,35390
72774,35385
72807,35385
72856,35390
" /> 
<polyline style="fill-rule:evenodd;"
points="50986,36027
50690,36027
50690,35712
50986,35712
50986,36027
" /> 
<polyline style="fill-rule:evenodd;"
points="42383,35679
41911,35679
41911,35403
42383,35403
42383,35679
" /> 
<polyline style="fill-rule:evenodd;"
points="49345,34965
49408,34984
49466,35015
49517,35057
49559,35108
49590,35166
49609,35229
49615,35295
49609,35360
49590,35423
49559,35482
49517,35533
49466,35574
49408,35605
49345,35625
49295,35629
49263,35629
49213,35625
49150,35605
49092,35574
49041,35533
48999,35482
48968,35423
48949,35360
48943,35295
48949,35229
48968,35166
48999,35108
49041,35057
49092,35015
49150,34984
49213,34965
49263,34960
49295,34960
49345,34965
" /> 
<polyline style="fill-rule:evenodd;"
points="65017,35616
64407,35616
64407,35379
65017,35379
65017,35616
" /> 
<polyline style="fill-rule:evenodd;"
points="67143,35616
66533,35616
66533,35379
67143,35379
67143,35616
" /> 
<polyline style="fill-rule:evenodd;"
points="71183,35596
70572,35596
70572,35360
71183,35360
71183,35596
" /> 
<polyline style="fill-rule:evenodd;"
points="69057,35596
68446,35596
68446,35360
69057,35360
69057,35596
" /> 
<polyline style="fill-rule:evenodd;"
points="60661,35496
60188,35496
60188,35023
60661,35023
60661,35496
" /> 
<polyline style="fill-rule:evenodd;"
points="46259,35468
46062,35468
46062,35114
46259,35114
46259,35468
" /> 
<polyline style="fill-rule:evenodd;"
points="44251,35468
44055,35468
44055,35114
44251,35114
44251,35468
" /> 
<polyline style="fill-rule:evenodd;"
points="44842,35468
44645,35468
44645,35114
44842,35114
44842,35468
" /> 
<polyline style="fill-rule:evenodd;"
points="45669,35468
45472,35468
45472,35114
45669,35114
45669,35468
" /> 
<polyline style="fill-rule:evenodd;"
points="50986,35437
50690,35437
50690,35122
50986,35122
50986,35437
" /> 
<polyline style="fill-rule:evenodd;"
points="42383,35246
41911,35246
41911,34970
42383,34970
42383,35246
" /> 
<polyline style="fill-rule:evenodd;"
points="63127,35196
62832,35196
62832,34881
63127,34881
63127,35196
" /> 
<polyline style="fill-rule:evenodd;"
points="64019,35141
63665,35141
63665,34944
64019,34944
64019,35141
" /> 
<polyline style="fill-rule:evenodd;"
points="65017,35116
64407,35116
64407,34879
65017,34879
65017,35116
" /> 
<polyline style="fill-rule:evenodd;"
points="67143,35116
66533,35116
66533,34879
67143,34879
67143,35116
" /> 
<polyline style="fill-rule:evenodd;"
points="71183,35096
70572,35096
70572,34860
71183,34860
71183,35096
" /> 
<polyline style="fill-rule:evenodd;"
points="69057,35096
68446,35096
68446,34860
69057,34860
69057,35096
" /> 
<polyline style="fill-rule:evenodd;"
points="73856,34390
73920,34409
73978,34440
74029,34482
74070,34533
74102,34591
74121,34654
74127,34720
74121,34786
74102,34849
74070,34907
74029,34958
73978,35000
73920,35031
73856,35050
73807,35055
73774,35055
73725,35050
73662,35031
73604,35000
73553,34958
73511,34907
73480,34849
73461,34786
73455,34720
73461,34654
73480,34591
73511,34533
73553,34482
73604,34440
73662,34409
73725,34390
73774,34385
73807,34385
73856,34390
" /> 
<polyline style="fill-rule:evenodd;"
points="72856,34390
72920,34409
72978,34440
73029,34482
73070,34533
73102,34591
73121,34654
73127,34720
73121,34786
73102,34849
73070,34907
73029,34958
72978,35000
72920,35031
72856,35050
72807,35055
72774,35055
72725,35050
72662,35031
72604,35000
72553,34958
72511,34907
72480,34849
72461,34786
72455,34720
72461,34654
72480,34591
72511,34533
72553,34482
72604,34440
72662,34409
72725,34390
72774,34385
72807,34385
72856,34390
" /> 
<polyline style="fill-rule:evenodd;"
points="58543,35037
58228,35037
58228,34742
58543,34742
58543,35037
" /> 
<polyline style="fill-rule:evenodd;"
points="59133,35037
58818,35037
58818,34742
59133,34742
59133,35037
" /> 
<polyline style="fill-rule:evenodd;"
points="42383,34812
41911,34812
41911,34537
42383,34537
42383,34812
" /> 
<polyline style="fill-rule:evenodd;"
points="49345,33965
49408,33984
49466,34015
49517,34057
49559,34108
49590,34166
49609,34229
49615,34295
49609,34360
49590,34423
49559,34482
49517,34533
49466,34574
49408,34605
49345,34625
49295,34629
49263,34629
49213,34625
49150,34605
49092,34574
49041,34533
48999,34482
48968,34423
48949,34360
48943,34295
48949,34229
48968,34166
48999,34108
49041,34057
49092,34015
49150,33984
49213,33965
49263,33960
49295,33960
49345,33965
" /> 
<polyline style="fill-rule:evenodd;"
points="67143,34616
66533,34616
66533,34379
67143,34379
67143,34616
" /> 
<polyline style="fill-rule:evenodd;"
points="65017,34616
64407,34616
64407,34379
65017,34379
65017,34616
" /> 
<polyline style="fill-rule:evenodd;"
points="63127,34606
62832,34606
62832,34291
63127,34291
63127,34606
" /> 
<polyline style="fill-rule:evenodd;"
points="69057,34596
68446,34596
68446,34360
69057,34360
69057,34596
" /> 
<polyline style="fill-rule:evenodd;"
points="71183,34596
70572,34596
70572,34360
71183,34360
71183,34596
" /> 
<polyline style="fill-rule:evenodd;"
points="64019,34551
63665,34551
63665,34354
64019,34354
64019,34551
" /> 
<polyline style="fill-rule:evenodd;"
points="44842,34444
44645,34444
44645,34090
44842,34090
44842,34444
" /> 
<polyline style="fill-rule:evenodd;"
points="46259,34444
46062,34444
46062,34090
46259,34090
46259,34444
" /> 
<polyline style="fill-rule:evenodd;"
points="44251,34444
44055,34444
44055,34090
44251,34090
44251,34444
" /> 
<polyline style="fill-rule:evenodd;"
points="45669,34444
45472,34444
45472,34090
45669,34090
45669,34444
" /> 
<polyline style="fill-rule:evenodd;"
points="42383,34379
41911,34379
41911,33730
42383,33730
42383,34379
" /> 
<polyline style="fill-rule:evenodd;"
points="72856,33390
72920,33409
72978,33440
73029,33482
73070,33533
73102,33591
73121,33654
73127,33720
73121,33786
73102,33849
73070,33907
73029,33958
72978,34000
72920,34031
72856,34050
72807,34055
72774,34055
72725,34050
72662,34031
72604,34000
72553,33958
72511,33907
72480,33849
72461,33786
72455,33720
72461,33654
72480,33591
72511,33533
72553,33482
72604,33440
72662,33409
72725,33390
72774,33385
72807,33385
72856,33390
" /> 
<polyline style="fill-rule:evenodd;"
points="73856,33390
73920,33409
73978,33440
74029,33482
74070,33533
74102,33591
74121,33654
74127,33720
74121,33786
74102,33849
74070,33907
74029,33958
73978,34000
73920,34031
73856,34050
73807,34055
73774,34055
73725,34050
73662,34031
73604,34000
73553,33958
73511,33907
73480,33849
73461,33786
73455,33720
73461,33654
73480,33591
73511,33533
73553,33482
73604,33440
73662,33409
73725,33390
73774,33385
73807,33385
73856,33390
" /> 
<polyline style="fill-rule:evenodd;"
points="68917,33696
68720,33696
68720,33342
68917,33342
68917,33696
" /> 
<polyline style="fill-rule:evenodd;"
points="63610,33696
63413,33696
63413,33342
63610,33342
63610,33696
" /> 
<polyline style="fill-rule:evenodd;"
points="69507,33696
69311,33696
69311,33342
69507,33342
69507,33696
" /> 
<polyline style="fill-rule:evenodd;"
points="63019,33696
62822,33696
62822,33342
63019,33342
63019,33696
" /> 
<polyline style="fill-rule:evenodd;"
points="58444,33696
58248,33696
58248,33342
58444,33342
58444,33696
" /> 
<polyline style="fill-rule:evenodd;"
points="59035,33696
58838,33696
58838,33342
59035,33342
59035,33696
" /> 
<polyline style="fill-rule:evenodd;"
points="60547,33696
60350,33696
60350,33342
60547,33342
60547,33696
" /> 
<polyline style="fill-rule:evenodd;"
points="59956,33696
59759,33696
59759,33342
59956,33342
59956,33696
" /> 
<polyline style="fill-rule:evenodd;"
points="40690,33690
40218,33690
40218,33297
40690,33297
40690,33690
" /> 
<polyline style="fill-rule:evenodd;"
points="36931,33690
35828,33690
35828,33297
36931,33297
36931,33690
" /> 
<polyline style="fill-rule:evenodd;"
points="38171,33690
37856,33690
37856,33297
38171,33297
38171,33690
" /> 
<polyline style="fill-rule:evenodd;"
points="61511,33667
61196,33667
61196,33372
61511,33372
61511,33667
" /> 
<polyline style="fill-rule:evenodd;"
points="66996,33667
66681,33667
66681,33372
66996,33372
66996,33667
" /> 
<polyline style="fill-rule:evenodd;"
points="66405,33667
66090,33667
66090,33372
66405,33372
66405,33667
" /> 
<polyline style="fill-rule:evenodd;"
points="64614,33667
64299,33667
64299,33372
64614,33372
64614,33667
" /> 
<polyline style="fill-rule:evenodd;"
points="62102,33667
61787,33667
61787,33372
62102,33372
62102,33667
" /> 
<polyline style="fill-rule:evenodd;"
points="65204,33667
64889,33667
64889,33372
65204,33372
65204,33667
" /> 
<polyline style="fill-rule:evenodd;"
points="49345,32965
49408,32984
49466,33015
49517,33057
49559,33108
49590,33166
49609,33229
49615,33295
49609,33360
49590,33423
49559,33482
49517,33533
49466,33574
49408,33605
49345,33625
49295,33629
49263,33629
49213,33625
49150,33605
49092,33574
49041,33533
48999,33482
48968,33423
48949,33360
48943,33295
48949,33229
48968,33166
48999,33108
49041,33057
49092,33015
49150,32984
49213,32965
49263,32960
49295,32960
49345,32965
" /> 
<polyline style="fill-rule:evenodd;"
points="56037,33610
52671,33610
52671,33019
56037,33019
56037,33610
" /> 
<polyline style="fill-rule:evenodd;"
points="47929,33555
47259,33555
47259,33043
47929,33043
47929,33555
" /> 
<polyline style="fill-rule:evenodd;"
points="51937,33377
51740,33377
51740,33023
51937,33023
51937,33377
" /> 
<polyline style="fill-rule:evenodd;"
points="51346,33377
51149,33377
51149,33023
51346,33023
51346,33377
" /> 
<polyline style="fill-rule:evenodd;"
points="72856,32390
72920,32409
72978,32440
73029,32482
73070,32533
73102,32591
73121,32654
73127,32720
73121,32786
73102,32849
73070,32907
73029,32958
72978,33000
72920,33031
72856,33050
72807,33055
72774,33055
72725,33050
72662,33031
72604,33000
72553,32958
72511,32907
72480,32849
72461,32786
72455,32720
72461,32654
72480,32591
72511,32533
72553,32482
72604,32440
72662,32409
72725,32390
72774,32385
72807,32385
72856,32390
" /> 
<polyline style="fill-rule:evenodd;"
points="73856,32390
73920,32409
73978,32440
74029,32482
74070,32533
74102,32591
74121,32654
74127,32720
74121,32786
74102,32849
74070,32907
74029,32958
73978,33000
73920,33031
73856,33050
73807,33055
73774,33055
73725,33050
73662,33031
73604,33000
73553,32958
73511,32907
73480,32849
73461,32786
73455,32720
73461,32654
73480,32591
73511,32533
73553,32482
73604,32440
73662,32409
73725,32390
73774,32385
73807,32385
73856,32390
" /> 
<polyline style="fill-rule:evenodd;"
points="58818,32858
58464,32858
58464,32661
58818,32661
58818,32858
" /> 
<polyline style="fill-rule:evenodd;"
points="57736,32858
57381,32858
57381,32661
57736,32661
57736,32858
" /> 
<polyline style="fill-rule:evenodd;"
points="56503,32858
56149,32858
56149,32661
56503,32661
56503,32858
" /> 
<polyline style="fill-rule:evenodd;"
points="60592,32675
59982,32675
59982,32438
60592,32438
60592,32675
" /> 
<polyline style="fill-rule:evenodd;"
points="62718,32675
62108,32675
62108,32438
62718,32438
62718,32675
" /> 
<polyline style="fill-rule:evenodd;"
points="68917,32673
68720,32673
68720,32318
68917,32318
68917,32673
" /> 
<polyline style="fill-rule:evenodd;"
points="69507,32673
69311,32673
69311,32318
69507,32318
69507,32673
" /> 
<polyline style="fill-rule:evenodd;"
points="38937,32651
38519,32651
38519,32395
38937,32395
38937,32651
" /> 
<polyline style="fill-rule:evenodd;"
points="39803,32651
39385,32651
39385,32395
39803,32395
39803,32651
" /> 
<polyline style="fill-rule:evenodd;"
points="49345,31965
49408,31984
49466,32015
49517,32057
49559,32108
49590,32166
49609,32229
49615,32295
49609,32360
49590,32423
49559,32482
49517,32533
49466,32574
49408,32605
49345,32625
49295,32629
49263,32629
49213,32625
49150,32605
49092,32574
49041,32533
48999,32482
48968,32423
48949,32360
48943,32295
48949,32229
48968,32166
48999,32108
49041,32057
49092,32015
49150,31984
49213,31965
49263,31960
49295,31960
49345,31965
" /> 
<polyline style="fill-rule:evenodd;"
points="51937,32555
51740,32555
51740,32200
51937,32200
51937,32555
" /> 
<polyline style="fill-rule:evenodd;"
points="51346,32555
51149,32555
51149,32200
51346,32200
51346,32555
" /> 
<polyline style="fill-rule:evenodd;"
points="63730,32549
63375,32549
63375,32352
63730,32352
63730,32549
" /> 
<polyline style="fill-rule:evenodd;"
points="64673,32547
64318,32547
64318,32350
64673,32350
64673,32547
" /> 
<polyline style="fill-rule:evenodd;"
points="37129,32470
36814,32470
36814,32175
37129,32175
37129,32470
" /> 
<polyline style="fill-rule:evenodd;"
points="36539,32470
36224,32470
36224,32175
36539,32175
36539,32470
" /> 
<polyline style="fill-rule:evenodd;"
points="43385,32346
42381,32346
42381,31362
43385,31362
43385,32346
" /> 
<polyline style="fill-rule:evenodd;"
points="41397,32346
40393,32346
40393,31362
41397,31362
41397,32346
" /> 
<polyline style="fill-rule:evenodd;"
points="54216,32285
53901,32285
53901,31990
54216,31990
54216,32285
" /> 
<polyline style="fill-rule:evenodd;"
points="54807,32285
54492,32285
54492,31990
54807,31990
54807,32285
" /> 
<polyline style="fill-rule:evenodd;"
points="38937,32277
38519,32277
38519,32021
38937,32021
38937,32277
" /> 
<polyline style="fill-rule:evenodd;"
points="39803,32277
39385,32277
39385,32021
39803,32021
39803,32277
" /> 
<polyline style="fill-rule:evenodd;"
points="56503,32267
56149,32267
56149,32070
56503,32070
56503,32267
" /> 
<polyline style="fill-rule:evenodd;"
points="58818,32267
58464,32267
58464,32070
58818,32070
58818,32267
" /> 
<polyline style="fill-rule:evenodd;"
points="57736,32267
57381,32267
57381,32070
57736,32070
57736,32267
" /> 
<polyline style="fill-rule:evenodd;"
points="47929,32177
47259,32177
47259,31665
47929,31665
47929,32177
" /> 
<polyline style="fill-rule:evenodd;"
points="60592,32175
59982,32175
59982,31938
60592,31938
60592,32175
" /> 
<polyline style="fill-rule:evenodd;"
points="62718,32175
62108,32175
62108,31938
62718,31938
62718,32175
" /> 
<polyline style="fill-rule:evenodd;"
points="73856,31390
73920,31409
73978,31440
74029,31482
74070,31533
74102,31591
74121,31654
74127,31720
74121,31786
74102,31849
74070,31907
74029,31958
73978,32000
73920,32031
73856,32050
73807,32055
73774,32055
73725,32050
73662,32031
73604,32000
73553,31958
73511,31907
73480,31849
73461,31786
73455,31720
73461,31654
73480,31591
73511,31533
73553,31482
73604,31440
73662,31409
73725,31390
73774,31385
73807,31385
73856,31390
" /> 
<polyline style="fill-rule:evenodd;"
points="72856,31390
72920,31409
72978,31440
73029,31482
73070,31533
73102,31591
73121,31654
73127,31720
73121,31786
73102,31849
73070,31907
73029,31958
72978,32000
72920,32031
72856,32050
72807,32055
72774,32055
72725,32050
72662,32031
72604,32000
72553,31958
72511,31907
72480,31849
72461,31786
72455,31720
72461,31654
72480,31591
72511,31533
72553,31482
72604,31440
72662,31409
72725,31390
72774,31385
72807,31385
72856,31390
" /> 
<polyline style="fill-rule:evenodd;"
points="63730,31958
63375,31958
63375,31761
63730,31761
63730,31958
" /> 
<polyline style="fill-rule:evenodd;"
points="64673,31956
64318,31956
64318,31759
64673,31759
64673,31956
" /> 
<polyline style="fill-rule:evenodd;"
points="38937,31903
38519,31903
38519,31647
38937,31647
38937,31903
" /> 
<polyline style="fill-rule:evenodd;"
points="39803,31903
39385,31903
39385,31647
39803,31647
39803,31903
" /> 
<polyline style="fill-rule:evenodd;"
points="60592,31675
59982,31675
59982,31438
60592,31438
60592,31675
" /> 
<polyline style="fill-rule:evenodd;"
points="62718,31675
62108,31675
62108,31438
62718,31438
62718,31675
" /> 
<polyline style="fill-rule:evenodd;"
points="53657,31657
52870,31657
52870,30712
53657,30712
53657,31657
" /> 
<polyline style="fill-rule:evenodd;"
points="52200,31657
51413,31657
51413,30712
52200,30712
52200,31657
" /> 
<polyline style="fill-rule:evenodd;"
points="49345,30965
49408,30984
49466,31015
49517,31057
49559,31108
49590,31166
49609,31229
49615,31295
49609,31360
49590,31423
49559,31482
49517,31533
49466,31574
49408,31605
49345,31625
49295,31629
49263,31629
49213,31625
49150,31605
49092,31574
49041,31533
48999,31482
48968,31423
48949,31360
48943,31295
48949,31229
48968,31166
48999,31108
49041,31057
49092,31015
49150,30984
49213,30965
49263,30960
49295,30960
49345,30965
" /> 
<polyline style="fill-rule:evenodd;"
points="58846,31629
58492,31629
58492,31433
58846,31433
58846,31629
" /> 
<polyline style="fill-rule:evenodd;"
points="57740,31629
57385,31629
57385,31433
57740,31433
57740,31629
" /> 
<polyline style="fill-rule:evenodd;"
points="56503,31629
56149,31629
56149,31433
56503,31433
56503,31629
" /> 
<polyline style="fill-rule:evenodd;"
points="45669,31366
45472,31366
45472,31011
45669,31011
45669,31366
" /> 
<polyline style="fill-rule:evenodd;"
points="46259,31366
46062,31366
46062,31011
46259,31011
46259,31366
" /> 
<polyline style="fill-rule:evenodd;"
points="44251,31362
44055,31362
44055,31007
44251,31007
44251,31362
" /> 
<polyline style="fill-rule:evenodd;"
points="44842,31362
44645,31362
44645,31007
44842,31007
44842,31362
" /> 
<polyline style="fill-rule:evenodd;"
points="36870,31262
36122,31262
36122,30474
36870,30474
36870,31262
" /> 
<polyline style="fill-rule:evenodd;"
points="62718,31175
62108,31175
62108,30938
62718,30938
62718,31175
" /> 
<polyline style="fill-rule:evenodd;"
points="60592,31175
59982,31175
59982,30938
60592,30938
60592,31175
" /> 
<polyline style="fill-rule:evenodd;"
points="73856,30390
73920,30409
73978,30440
74029,30482
74070,30533
74102,30591
74121,30654
74127,30720
74121,30786
74102,30849
74070,30907
74029,30958
73978,31000
73920,31031
73856,31050
73807,31055
73774,31055
73725,31050
73662,31031
73604,31000
73553,30958
73511,30907
73480,30849
73461,30786
73455,30720
73461,30654
73480,30591
73511,30533
73553,30482
73604,30440
73662,30409
73725,30390
73774,30385
73807,30385
73856,30390
" /> 
<polyline style="fill-rule:evenodd;"
points="72856,30390
72920,30409
72978,30440
73029,30482
73070,30533
73102,30591
73121,30654
73127,30720
73121,30786
73102,30849
73070,30907
73029,30958
72978,31000
72920,31031
72856,31050
72807,31055
72774,31055
72725,31050
72662,31031
72604,31000
72553,30958
72511,30907
72480,30849
72461,30786
72455,30720
72461,30654
72480,30591
72511,30533
72553,30482
72604,30440
72662,30409
72725,30390
72774,30385
72807,30385
72856,30390
" /> 
<polyline style="fill-rule:evenodd;"
points="58846,31039
58492,31039
58492,30842
58846,30842
58846,31039
" /> 
<polyline style="fill-rule:evenodd;"
points="56503,31039
56149,31039
56149,30842
56503,30842
56503,31039
" /> 
<polyline style="fill-rule:evenodd;"
points="57740,31039
57385,31039
57385,30842
57740,30842
57740,31039
" /> 
<polyline style="fill-rule:evenodd;"
points="47917,31015
47562,31015
47562,30700
47917,30700
47917,31015
" /> 
<polyline style="fill-rule:evenodd;"
points="47129,30641
46775,30641
46775,30326
47129,30326
47129,30641
" /> 
<polyline style="fill-rule:evenodd;"
points="37923,30629
37431,30629
37431,30216
37923,30216
37923,30629
" /> 
<polyline style="fill-rule:evenodd;"
points="49614,30629
48944,30629
48944,29960
49614,29960
49614,30629
" /> 
<polyline style="fill-rule:evenodd;"
points="41547,30403
40444,30403
40444,30068
41547,30068
41547,30403
" /> 
<polyline style="fill-rule:evenodd;"
points="65787,30385
65590,30385
65590,30031
65787,30031
65787,30385
" /> 
<polyline style="fill-rule:evenodd;"
points="65196,30385
65000,30385
65000,30031
65196,30031
65196,30385
" /> 
<polyline style="fill-rule:evenodd;"
points="63740,30356
63425,30356
63425,30061
63740,30061
63740,30356
" /> 
<polyline style="fill-rule:evenodd;"
points="64330,30356
64015,30356
64015,30061
64330,30061
64330,30356
" /> 
<polyline style="fill-rule:evenodd;"
points="62350,30352
62035,30352
62035,30057
62350,30057
62350,30352
" /> 
<polyline style="fill-rule:evenodd;"
points="61759,30352
61444,30352
61444,30057
61759,30057
61759,30352
" /> 
<polyline style="fill-rule:evenodd;"
points="44106,30314
43122,30314
43122,29311
44106,29311
44106,30314
" /> 
<polyline style="fill-rule:evenodd;"
points="45905,30275
44921,30275
44921,29507
45905,29507
45905,30275
" /> 
<polyline style="fill-rule:evenodd;"
points="47917,30267
47562,30267
47562,29952
47917,29952
47917,30267
" /> 
<polyline style="fill-rule:evenodd;"
points="53411,30251
53116,30251
53116,29937
53411,29937
53411,30251
" /> 
<polyline style="fill-rule:evenodd;"
points="51958,30251
51663,30251
51663,29937
51958,29937
51958,30251
" /> 
<polyline style="fill-rule:evenodd;"
points="56488,30224
56133,30224
56133,30027
56488,30027
56488,30224
" /> 
<polyline style="fill-rule:evenodd;"
points="57740,30224
57385,30224
57385,30027
57740,30027
57740,30224
" /> 
<polyline style="fill-rule:evenodd;"
points="58858,30224
58503,30224
58503,30027
58858,30027
58858,30224
" /> 
<polyline style="fill-rule:evenodd;"
points="55200,30216
54846,30216
54846,30019
55200,30019
55200,30216
" /> 
<polyline style="fill-rule:evenodd;"
points="38897,30177
38503,30177
38503,29625
38897,29625
38897,30177
" /> 
<polyline style="fill-rule:evenodd;"
points="39645,30177
39251,30177
39251,29625
39645,29625
39645,30177
" /> 
<polyline style="fill-rule:evenodd;"
points="37992,30059
37283,30059
37283,28877
37992,28877
37992,30059
" /> 
<polyline style="fill-rule:evenodd;"
points="72856,29390
72920,29409
72978,29440
73029,29482
73070,29533
73102,29591
73121,29654
73127,29720
73121,29786
73102,29849
73070,29907
73029,29958
72978,30000
72920,30031
72856,30050
72807,30055
72774,30055
72725,30050
72662,30031
72604,30000
72553,29958
72511,29907
72480,29849
72461,29786
72455,29720
72461,29654
72480,29591
72511,29533
72553,29482
72604,29440
72662,29409
72725,29390
72774,29385
72807,29385
72856,29390
" /> 
<polyline style="fill-rule:evenodd;"
points="73856,29390
73920,29409
73978,29440
74029,29482
74070,29533
74102,29591
74121,29654
74127,29720
74121,29786
74102,29849
74070,29907
74029,29958
73978,30000
73920,30031
73856,30050
73807,30055
73774,30055
73725,30050
73662,30031
73604,30000
73553,29958
73511,29907
73480,29849
73461,29786
73455,29720
73461,29654
73480,29591
73511,29533
73553,29482
73604,29440
73662,29409
73725,29390
73774,29385
73807,29385
73856,29390
" /> 
<polyline style="fill-rule:evenodd;"
points="41931,30019
41596,30019
41596,28917
41931,28917
41931,30019
" /> 
<polyline style="fill-rule:evenodd;"
points="40395,30019
40061,30019
40061,28917
40395,28917
40395,30019
" /> 
<polyline style="fill-rule:evenodd;"
points="68901,29984
68547,29984
68547,29669
68901,29669
68901,29984
" /> 
<polyline style="fill-rule:evenodd;"
points="41350,29822
40641,29822
40641,29114
41350,29114
41350,29822
" /> 
<polyline style="fill-rule:evenodd;"
points="53411,29661
53116,29661
53116,29346
53411,29346
53411,29661
" /> 
<polyline style="fill-rule:evenodd;"
points="51958,29661
51663,29661
51663,29346
51958,29346
51958,29661
" /> 
<polyline style="fill-rule:evenodd;"
points="57740,29633
57385,29633
57385,29437
57740,29437
57740,29633
" /> 
<polyline style="fill-rule:evenodd;"
points="56488,29633
56133,29633
56133,29437
56488,29437
56488,29633
" /> 
<polyline style="fill-rule:evenodd;"
points="58858,29633
58503,29633
58503,29437
58858,29437
58858,29633
" /> 
<polyline style="fill-rule:evenodd;"
points="55200,29625
54846,29625
54846,29429
55200,29429
55200,29625
" /> 
<polyline style="fill-rule:evenodd;"
points="69688,29610
69334,29610
69334,29295
69688,29295
69688,29610
" /> 
<polyline style="fill-rule:evenodd;"
points="61700,29425
61503,29425
61503,29070
61700,29070
61700,29425
" /> 
<polyline style="fill-rule:evenodd;"
points="63681,29425
63484,29425
63484,29070
63681,29070
63681,29425
" /> 
<polyline style="fill-rule:evenodd;"
points="64271,29425
64074,29425
64074,29070
64271,29070
64271,29425
" /> 
<polyline style="fill-rule:evenodd;"
points="62291,29425
62094,29425
62094,29070
62291,29070
62291,29425
" /> 
<polyline style="fill-rule:evenodd;"
points="39614,29311
39141,29311
39141,28759
39614,28759
39614,29311
" /> 
<polyline style="fill-rule:evenodd;"
points="38897,29311
38503,29311
38503,28759
38897,28759
38897,29311
" /> 
<polyline style="fill-rule:evenodd;"
points="68901,29236
68547,29236
68547,28921
68901,28921
68901,29236
" /> 
<polyline style="fill-rule:evenodd;"
points="65669,29196
65078,29196
65078,28960
65669,28960
65669,29196
" /> 
<polyline style="fill-rule:evenodd;"
points="67795,29196
67204,29196
67204,28960
67795,28960
67795,29196
" /> 
<polyline style="fill-rule:evenodd;"
points="47509,29194
46899,29194
46899,28958
47509,28958
47509,29194
" /> 
<polyline style="fill-rule:evenodd;"
points="49635,29194
49025,29194
49025,28958
49635,28958
49635,29194
" /> 
<polyline style="fill-rule:evenodd;"
points="45905,29074
44921,29074
44921,28307
45905,28307
45905,29074
" /> 
<polyline style="fill-rule:evenodd;"
points="73856,28390
73920,28409
73978,28440
74029,28482
74070,28533
74102,28591
74121,28654
74127,28720
74121,28786
74102,28849
74070,28907
74029,28958
73978,29000
73920,29031
73856,29050
73807,29055
73774,29055
73725,29050
73662,29031
73604,29000
73553,28958
73511,28907
73480,28849
73461,28786
73455,28720
73461,28654
73480,28591
73511,28533
73553,28482
73604,28440
73662,28409
73725,28390
73774,28385
73807,28385
73856,28390
" /> 
<polyline style="fill-rule:evenodd;"
points="72856,28390
72920,28409
72978,28440
73029,28482
73070,28533
73102,28591
73121,28654
73127,28720
73121,28786
73102,28849
73070,28907
73029,28958
72978,29000
72920,29031
72856,29050
72807,29055
72774,29055
72725,29050
72662,29031
72604,29000
72553,28958
72511,28907
72480,28849
72461,28786
72455,28720
72461,28654
72480,28591
72511,28533
72553,28482
72604,28440
72662,28409
72725,28390
72774,28385
72807,28385
72856,28390
" /> 
<polyline style="fill-rule:evenodd;"
points="41547,28868
40444,28868
40444,28533
41547,28533
41547,28868
" /> 
<polyline style="fill-rule:evenodd;"
points="37923,28720
37431,28720
37431,28307
37923,28307
37923,28720
" /> 
<polyline style="fill-rule:evenodd;"
points="67795,28696
67204,28696
67204,28460
67795,28460
67795,28696
" /> 
<polyline style="fill-rule:evenodd;"
points="65669,28696
65078,28696
65078,28460
65669,28460
65669,28696
" /> 
<polyline style="fill-rule:evenodd;"
points="49635,28694
49025,28694
49025,28458
49635,28458
49635,28694
" /> 
<polyline style="fill-rule:evenodd;"
points="47509,28694
46899,28694
46899,28458
47509,28458
47509,28694
" /> 
<polyline style="fill-rule:evenodd;"
points="53385,28523
52381,28523
52381,27539
53385,27539
53385,28523
" /> 
<polyline style="fill-rule:evenodd;"
points="51397,28523
50393,28523
50393,27539
51397,27539
51397,28523
" /> 
<polyline style="fill-rule:evenodd;"
points="36870,28462
36122,28462
36122,27674
36870,27674
36870,28462
" /> 
<polyline style="fill-rule:evenodd;"
points="44106,28326
43122,28326
43122,27322
44106,27322
44106,28326
" /> 
<polyline style="fill-rule:evenodd;"
points="58858,28204
58503,28204
58503,28007
58858,28007
58858,28204
" /> 
<polyline style="fill-rule:evenodd;"
points="67795,28196
67204,28196
67204,27960
67795,27960
67795,28196
" /> 
<polyline style="fill-rule:evenodd;"
points="65669,28196
65078,28196
65078,27960
65669,27960
65669,28196
" /> 
<polyline style="fill-rule:evenodd;"
points="47509,28194
46899,28194
46899,27958
47509,27958
47509,28194
" /> 
<polyline style="fill-rule:evenodd;"
points="49635,28194
49025,28194
49025,27958
49635,27958
49635,28194
" /> 
<polyline style="fill-rule:evenodd;"
points="62696,28188
62145,28188
62145,27283
62696,27283
62696,28188
" /> 
<polyline style="fill-rule:evenodd;"
points="60964,28188
60413,28188
60413,27283
60964,27283
60964,28188
" /> 
<polyline style="fill-rule:evenodd;"
points="73856,27390
73920,27409
73978,27440
74029,27482
74070,27533
74102,27591
74121,27654
74127,27720
74121,27786
74102,27849
74070,27907
74029,27958
73978,28000
73920,28031
73856,28050
73807,28055
73774,28055
73725,28050
73662,28031
73604,28000
73553,27958
73511,27907
73480,27849
73461,27786
73455,27720
73461,27654
73480,27591
73511,27533
73553,27482
73604,27440
73662,27409
73725,27390
73774,27385
73807,27385
73856,27390
" /> 
<polyline style="fill-rule:evenodd;"
points="73125,28055
72456,28055
72456,27385
73125,27385
73125,28055
" /> 
<polyline style="fill-rule:evenodd;"
points="42352,27874
42057,27874
42057,27559
42352,27559
42352,27874
" /> 
<polyline style="fill-rule:evenodd;"
points="41328,27870
41033,27870
41033,27555
41328,27555
41328,27870
" /> 
<polyline style="fill-rule:evenodd;"
points="68976,27844
68661,27844
68661,27549
68976,27549
68976,27844
" /> 
<polyline style="fill-rule:evenodd;"
points="69566,27844
69251,27844
69251,27549
69566,27549
69566,27844
" /> 
<polyline style="fill-rule:evenodd;"
points="40334,27811
39980,27811
39980,27614
40334,27614
40334,27811
" /> 
<polyline style="fill-rule:evenodd;"
points="65669,27696
65078,27696
65078,27460
65669,27460
65669,27696
" /> 
<polyline style="fill-rule:evenodd;"
points="67795,27696
67204,27696
67204,27460
67795,27460
67795,27696
" /> 
<polyline style="fill-rule:evenodd;"
points="49635,27694
49025,27694
49025,27458
49635,27458
49635,27694
" /> 
<polyline style="fill-rule:evenodd;"
points="47509,27694
46899,27694
46899,27458
47509,27458
47509,27694
" /> 
<polyline style="fill-rule:evenodd;"
points="58858,27614
58503,27614
58503,27417
58858,27417
58858,27614
" /> 
<polyline style="fill-rule:evenodd;"
points="42352,27283
42057,27283
42057,26968
42352,26968
42352,27283
" /> 
<polyline style="fill-rule:evenodd;"
points="41328,27279
41033,27279
41033,26964
41328,26964
41328,27279
" /> 
<polyline style="fill-rule:evenodd;"
points="40334,27220
39980,27220
39980,27023
40334,27023
40334,27220
" /> 
<polyline style="fill-rule:evenodd;"
points="39375,27200
38576,27200
38576,26751
39375,26751
39375,27200
" /> 
<polyline style="fill-rule:evenodd;"
points="67795,27196
67204,27196
67204,26960
67795,26960
67795,27196
" /> 
<polyline style="fill-rule:evenodd;"
points="65669,27196
65078,27196
65078,26960
65669,26960
65669,27196
" /> 
<polyline style="fill-rule:evenodd;"
points="37106,27165
36633,27165
36633,26692
37106,26692
37106,27165
" /> 
<polyline style="fill-rule:evenodd;"
points="38027,26897
37673,26897
37673,26700
38027,26700
38027,26897
" /> 
<polyline style="fill-rule:evenodd;"
points="69503,26850
69307,26850
69307,26496
69503,26496
69503,26850
" /> 
<polyline style="fill-rule:evenodd;"
points="68913,26850
68716,26850
68716,26496
68913,26496
68913,26850
" /> 
<polyline style="fill-rule:evenodd;"
points="53909,26704
53555,26704
53555,26389
53909,26389
53909,26704
" /> 
<polyline style="fill-rule:evenodd;"
points="67795,26696
67204,26696
67204,26460
67795,26460
67795,26696
" /> 
<polyline style="fill-rule:evenodd;"
points="65669,26696
65078,26696
65078,26460
65669,26460
65669,26696
" /> 
<polyline style="fill-rule:evenodd;"
points="62350,26683
62035,26683
62035,26387
62350,26387
62350,26683
" /> 
<polyline style="fill-rule:evenodd;"
points="64330,26683
64015,26683
64015,26387
64330,26387
64330,26683
" /> 
<polyline style="fill-rule:evenodd;"
points="63740,26683
63425,26683
63425,26387
63740,26387
63740,26683
" /> 
<polyline style="fill-rule:evenodd;"
points="61759,26683
61444,26683
61444,26387
61759,26387
61759,26683
" /> 
<polyline style="fill-rule:evenodd;"
points="46767,26665
45763,26665
45763,25681
46767,25681
46767,26665
" /> 
<polyline style="fill-rule:evenodd;"
points="44779,26665
43775,26665
43775,25681
44779,25681
44779,26665
" /> 
<polyline style="fill-rule:evenodd;"
points="49421,26665
48653,26665
48653,25681
49421,25681
49421,26665
" /> 
<polyline style="fill-rule:evenodd;"
points="50622,26665
49854,26665
49854,25681
50622,25681
50622,26665
" /> 
<polyline style="fill-rule:evenodd;"
points="51889,26566
51535,26566
51535,26370
51889,26370
51889,26566
" /> 
<polyline style="fill-rule:evenodd;"
points="55011,26507
54500,26507
54500,25838
55011,25838
55011,26507
" /> 
<polyline style="fill-rule:evenodd;"
points="56389,26507
55877,26507
55877,25838
56389,25838
56389,26507
" /> 
<polyline style="fill-rule:evenodd;"
points="58616,25883
58645,25889
58667,25898
58698,25911
58747,25943
58788,25985
58820,26033
58833,26064
58841,26083
58842,26087
58854,26144
58854,26202
58842,26259
58820,26313
58788,26361
58747,26402
58698,26434
58667,26447
58645,26457
58616,26462
58588,26468
58529,26468
58501,26462
58472,26457
58450,26447
58419,26434
58370,26402
58329,26361
58297,26313
58275,26259
58263,26202
58263,26144
58275,26087
58276,26083
58284,26064
58297,26033
58329,25985
58370,25943
58419,25911
58450,25898
58472,25889
58501,25883
58529,25877
58588,25877
58616,25883
" /> 
<polyline style="fill-rule:evenodd;"
points="57297,25883
57326,25889
57348,25898
57380,25911
57428,25943
57469,25985
57501,26033
57514,26064
57522,26083
57524,26087
57535,26144
57535,26202
57524,26259
57501,26313
57469,26361
57428,26402
57380,26434
57348,26447
57326,26457
57297,26462
57269,26468
57211,26468
57182,26462
57154,26457
57131,26447
57100,26434
57051,26402
57010,26361
56978,26313
56956,26259
56944,26202
56944,26144
56956,26087
56957,26083
56965,26064
56978,26033
57010,25985
57051,25943
57100,25911
57131,25898
57154,25889
57182,25883
57211,25877
57269,25877
57297,25883
" /> 
<polyline style="fill-rule:evenodd;"
points="59974,25879
60003,25885
60025,25894
60057,25907
60105,25939
60146,25981
60178,26029
60180,26033
60201,26083
60212,26140
60212,26198
60201,26255
60192,26277
60178,26309
60146,26357
60105,26398
60057,26430
60025,26444
60003,26453
59974,26458
59946,26464
59888,26464
59859,26458
59831,26453
59808,26444
59777,26430
59729,26398
59687,26357
59655,26309
59642,26277
59633,26255
59622,26198
59622,26140
59633,26083
59654,26033
59655,26029
59687,25981
59729,25939
59777,25907
59808,25894
59831,25885
59859,25879
59888,25874
59946,25874
59974,25879
" /> 
<polyline style="fill-rule:evenodd;"
points="47519,26350
47322,26350
47322,25996
47519,25996
47519,26350
" /> 
<polyline style="fill-rule:evenodd;"
points="48110,26350
47913,26350
47913,25996
48110,25996
48110,26350
" /> 
<polyline style="fill-rule:evenodd;"
points="53122,26330
52767,26330
52767,26015
53122,26015
53122,26330
" /> 
<polyline style="fill-rule:evenodd;"
points="38027,26307
37673,26307
37673,26110
38027,26110
38027,26307
" /> 
<polyline style="fill-rule:evenodd;"
points="37106,26299
36633,26299
36633,25826
37106,25826
37106,26299
" /> 
<polyline style="fill-rule:evenodd;"
points="39375,26255
38576,26255
38576,25807
39375,25807
39375,26255
" /> 
<polyline style="fill-rule:evenodd;"
points="65669,26196
65078,26196
65078,25960
65669,25960
65669,26196
" /> 
<polyline style="fill-rule:evenodd;"
points="67795,26196
67204,26196
67204,25960
67795,25960
67795,26196
" /> 
<polyline style="fill-rule:evenodd;"
points="51889,25976
51535,25976
51535,25779
51889,25779
51889,25976
" /> 
<polyline style="fill-rule:evenodd;"
points="53909,25956
53555,25956
53555,25641
53909,25641
53909,25956
" /> 
<polyline style="fill-rule:evenodd;"
points="69527,25826
69330,25826
69330,25472
69527,25472
69527,25826
" /> 
<polyline style="fill-rule:evenodd;"
points="61700,25826
61503,25826
61503,25472
61700,25472
61700,25826
" /> 
<polyline style="fill-rule:evenodd;"
points="62291,25826
62094,25826
62094,25472
62291,25472
62291,25826
" /> 
<polyline style="fill-rule:evenodd;"
points="63673,25826
63476,25826
63476,25472
63673,25472
63673,25826
" /> 
<polyline style="fill-rule:evenodd;"
points="64263,25826
64066,25826
64066,25472
64263,25472
64263,25826
" /> 
<polyline style="fill-rule:evenodd;"
points="68937,25826
68740,25826
68740,25472
68937,25472
68937,25826
" /> 
<polyline style="fill-rule:evenodd;"
points="71510,23635
71616,23656
71699,23690
71817,23739
71997,23860
72151,24013
72272,24194
72320,24311
72355,24394
72369,24466
72391,24576
72397,24607
72397,24825
72355,25038
72340,25073
72272,25238
72151,25419
71997,25572
71817,25693
71699,25742
71616,25776
71510,25797
71403,25818
71186,25818
71080,25797
70973,25776
70890,25742
70773,25693
70592,25572
70439,25419
70318,25238
70249,25073
70235,25038
70192,24825
70192,24607
70199,24576
70220,24466
70235,24394
70269,24311
70318,24194
70439,24013
70592,23860
70773,23739
70890,23690
70973,23656
71080,23635
71186,23614
71403,23614
71510,23635
" /> 
<polyline style="fill-rule:evenodd;"
points="41919,23614
42112,23652
42195,23687
42313,23735
42494,23856
42647,24009
42768,24190
42769,24194
42844,24374
42851,24391
42893,24604
42893,24821
42885,24862
42851,25034
42849,25039
42768,25234
42647,25415
42494,25568
42313,25689
42195,25738
42112,25772
42093,25776
41899,25814
41682,25814
41489,25776
41469,25772
41386,25738
41269,25689
41088,25568
40935,25415
40814,25234
40733,25039
40731,25034
40697,24862
40688,24821
40688,24604
40731,24391
40738,24374
40812,24194
40814,24190
40935,24009
41088,23856
41269,23735
41386,23687
41469,23652
41662,23614
41682,23610
41899,23610
41919,23614
" /> 
<polyline style="fill-rule:evenodd;"
points="38523,25397
38129,25397
38129,24413
38523,24413
38523,25397
" /> 
<polyline style="fill-rule:evenodd;"
points="38978,25368
38730,25368
38730,25190
38978,25190
38978,25368
" /> 
<polyline style="fill-rule:evenodd;"
points="37923,25368
37675,25368
37675,25190
37923,25190
37923,25368
" /> 
<polyline style="fill-rule:evenodd;"
points="39911,25279
39616,25279
39616,24964
39911,24964
39911,25279
" /> 
<polyline style="fill-rule:evenodd;"
points="37017,25279
36722,25279
36722,24964
37017,24964
37017,25279
" /> 
<polyline style="fill-rule:evenodd;"
points="73581,24826
73616,24841
73648,24862
73649,24862
73676,24890
73676,24890
73698,24922
73712,24958
73720,24996
73720,25035
73719,25038
73712,25073
73698,25108
73676,25141
73649,25168
73649,25168
73616,25190
73581,25205
73543,25212
73504,25212
73466,25205
73430,25190
73398,25168
73398,25168
73370,25141
73349,25108
73334,25073
73327,25038
73326,25035
73326,24996
73334,24958
73349,24922
73370,24890
73370,24890
73398,24862
73398,24862
73430,24841
73466,24826
73504,24818
73543,24818
73581,24826
" /> 
<polyline style="fill-rule:evenodd;"
points="46919,24374
46983,24394
47041,24425
47092,24466
47133,24517
47164,24576
47184,24639
47190,24704
47184,24770
47164,24833
47133,24891
47092,24942
47041,24984
46983,25015
46919,25034
46870,25039
46837,25039
46788,25034
46725,25015
46667,24984
46616,24942
46574,24891
46543,24833
46524,24770
46518,24704
46524,24639
46543,24576
46574,24517
46616,24466
46667,24425
46725,24394
46788,24374
46837,24370
46870,24370
46919,24374
" /> 
<polyline style="fill-rule:evenodd;"
points="50188,25039
49519,25039
49519,24370
50188,24370
50188,25039
" /> 
<polyline style="fill-rule:evenodd;"
points="64604,24374
64668,24394
64726,24425
64777,24466
64818,24517
64850,24576
64869,24639
64875,24704
64869,24770
64850,24833
64818,24891
64777,24942
64726,24984
64668,25015
64604,25034
64555,25039
64522,25039
64473,25034
64410,25015
64352,24984
64301,24942
64259,24891
64228,24833
64209,24770
64203,24704
64209,24639
64228,24576
64259,24517
64301,24466
64352,24425
64410,24394
64473,24374
64522,24370
64555,24370
64604,24374
" /> 
<polyline style="fill-rule:evenodd;"
points="62604,24374
62668,24394
62726,24425
62777,24466
62818,24517
62850,24576
62869,24639
62875,24704
62869,24770
62850,24833
62818,24891
62777,24942
62726,24984
62668,25015
62604,25034
62555,25039
62522,25039
62473,25034
62410,25015
62352,24984
62301,24942
62259,24891
62228,24833
62209,24770
62203,24704
62209,24639
62228,24576
62259,24517
62301,24466
62352,24425
62410,24394
62473,24374
62522,24370
62555,24370
62604,24374
" /> 
<polyline style="fill-rule:evenodd;"
points="61604,24374
61668,24394
61726,24425
61777,24466
61818,24517
61850,24576
61869,24639
61875,24704
61869,24770
61850,24833
61818,24891
61777,24942
61726,24984
61668,25015
61604,25034
61555,25039
61522,25039
61473,25034
61410,25015
61352,24984
61301,24942
61259,24891
61228,24833
61209,24770
61203,24704
61209,24639
61228,24576
61259,24517
61301,24466
61352,24425
61410,24394
61473,24374
61522,24370
61555,24370
61604,24374
" /> 
<polyline style="fill-rule:evenodd;"
points="68874,25039
68204,25039
68204,24370
68874,24370
68874,25039
" /> 
<polyline style="fill-rule:evenodd;"
points="66604,24374
66668,24394
66726,24425
66777,24466
66818,24517
66850,24576
66869,24639
66875,24704
66869,24770
66850,24833
66818,24891
66777,24942
66726,24984
66668,25015
66604,25034
66555,25039
66522,25039
66473,25034
66410,25015
66352,24984
66301,24942
66259,24891
66228,24833
66209,24770
66203,24704
66209,24639
66228,24576
66259,24517
66301,24466
66352,24425
66410,24394
66473,24374
66522,24370
66555,24370
66604,24374
" /> 
<polyline style="fill-rule:evenodd;"
points="67604,24374
67668,24394
67726,24425
67777,24466
67818,24517
67850,24576
67869,24639
67875,24704
67869,24770
67850,24833
67818,24891
67777,24942
67726,24984
67668,25015
67604,25034
67555,25039
67522,25039
67473,25034
67410,25015
67352,24984
67301,24942
67259,24891
67228,24833
67209,24770
67203,24704
67209,24639
67228,24576
67259,24517
67301,24466
67352,24425
67410,24394
67473,24374
67522,24370
67555,24370
67604,24374
" /> 
<polyline style="fill-rule:evenodd;"
points="48919,24374
48983,24394
49041,24425
49092,24466
49133,24517
49164,24576
49184,24639
49190,24704
49184,24770
49164,24833
49133,24891
49092,24942
49041,24984
48983,25015
48919,25034
48870,25039
48837,25039
48788,25034
48725,25015
48667,24984
48616,24942
48574,24891
48543,24833
48524,24770
48518,24704
48524,24639
48543,24576
48574,24517
48616,24466
48667,24425
48725,24394
48788,24374
48837,24370
48870,24370
48919,24374
" /> 
<polyline style="fill-rule:evenodd;"
points="65604,24374
65668,24394
65726,24425
65777,24466
65818,24517
65850,24576
65869,24639
65875,24704
65869,24770
65850,24833
65818,24891
65777,24942
65726,24984
65668,25015
65604,25034
65555,25039
65522,25039
65473,25034
65410,25015
65352,24984
65301,24942
65259,24891
65228,24833
65209,24770
65203,24704
65209,24639
65228,24576
65259,24517
65301,24466
65352,24425
65410,24394
65473,24374
65522,24370
65555,24370
65604,24374
" /> 
<polyline style="fill-rule:evenodd;"
points="54809,24374
54872,24394
54930,24425
54981,24466
55023,24517
55054,24576
55073,24639
55080,24704
55073,24770
55054,24833
55023,24891
54981,24942
54930,24984
54872,25015
54809,25034
54760,25039
54727,25039
54678,25034
54615,25015
54557,24984
54506,24942
54464,24891
54433,24833
54414,24770
54407,24704
54414,24639
54433,24576
54464,24517
54506,24466
54557,24425
54615,24394
54678,24374
54727,24370
54760,24370
54809,24374
" /> 
<polyline style="fill-rule:evenodd;"
points="52809,24374
52872,24394
52930,24425
52981,24466
53023,24517
53054,24576
53073,24639
53080,24704
53073,24770
53054,24833
53023,24891
52981,24942
52930,24984
52872,25015
52809,25034
52760,25039
52727,25039
52678,25034
52615,25015
52557,24984
52506,24942
52464,24891
52433,24833
52414,24770
52407,24704
52414,24639
52433,24576
52464,24517
52506,24466
52557,24425
52615,24394
52678,24374
52727,24370
52760,24370
52809,24374
" /> 
<polyline style="fill-rule:evenodd;"
points="47919,24374
47983,24394
48041,24425
48092,24466
48133,24517
48164,24576
48184,24639
48190,24704
48184,24770
48164,24833
48133,24891
48092,24942
48041,24984
47983,25015
47919,25034
47870,25039
47837,25039
47788,25034
47725,25015
47667,24984
47616,24942
47574,24891
47543,24833
47524,24770
47518,24704
47524,24639
47543,24576
47574,24517
47616,24466
47667,24425
47725,24394
47788,24374
47837,24370
47870,24370
47919,24374
" /> 
<polyline style="fill-rule:evenodd;"
points="45919,24374
45983,24394
46041,24425
46092,24466
46133,24517
46164,24576
46184,24639
46190,24704
46184,24770
46164,24833
46133,24891
46092,24942
46041,24984
45983,25015
45919,25034
45870,25039
45837,25039
45788,25034
45725,25015
45667,24984
45616,24942
45574,24891
45543,24833
45524,24770
45518,24704
45524,24639
45543,24576
45574,24517
45616,24466
45667,24425
45725,24394
45788,24374
45837,24370
45870,24370
45919,24374
" /> 
<polyline style="fill-rule:evenodd;"
points="44919,24374
44983,24394
45041,24425
45092,24466
45133,24517
45164,24576
45184,24639
45190,24704
45184,24770
45164,24833
45133,24891
45092,24942
45041,24984
44983,25015
44919,25034
44870,25039
44837,25039
44788,25034
44725,25015
44667,24984
44616,24942
44574,24891
44543,24833
44524,24770
44518,24704
44524,24639
44543,24576
44574,24517
44616,24466
44667,24425
44725,24394
44788,24374
44837,24370
44870,24370
44919,24374
" /> 
<polyline style="fill-rule:evenodd;"
points="63604,24374
63668,24394
63726,24425
63777,24466
63818,24517
63850,24576
63869,24639
63875,24704
63869,24770
63850,24833
63818,24891
63777,24942
63726,24984
63668,25015
63604,25034
63555,25039
63522,25039
63473,25034
63410,25015
63352,24984
63301,24942
63259,24891
63228,24833
63209,24770
63203,24704
63209,24639
63228,24576
63259,24517
63301,24466
63352,24425
63410,24394
63473,24374
63522,24370
63555,24370
63604,24374
" /> 
<polyline style="fill-rule:evenodd;"
points="59699,24374
59762,24394
59820,24425
59871,24466
59913,24517
59944,24576
59963,24639
59970,24704
59963,24770
59944,24833
59913,24891
59871,24942
59820,24984
59762,25015
59699,25034
59650,25039
59617,25039
59568,25034
59505,25015
59447,24984
59396,24942
59354,24891
59323,24833
59304,24770
59297,24704
59304,24639
59323,24576
59354,24517
59396,24466
59447,24425
59505,24394
59568,24374
59617,24370
59650,24370
59699,24374
" /> 
<polyline style="fill-rule:evenodd;"
points="58699,24374
58762,24394
58820,24425
58871,24466
58913,24517
58944,24576
58963,24639
58970,24704
58963,24770
58944,24833
58913,24891
58871,24942
58820,24984
58762,25015
58699,25034
58650,25039
58617,25039
58568,25034
58505,25015
58447,24984
58396,24942
58354,24891
58323,24833
58304,24770
58297,24704
58304,24639
58323,24576
58354,24517
58396,24466
58447,24425
58505,24394
58568,24374
58617,24370
58650,24370
58699,24374
" /> 
<polyline style="fill-rule:evenodd;"
points="57699,24374
57762,24394
57820,24425
57871,24466
57913,24517
57944,24576
57963,24639
57970,24704
57963,24770
57944,24833
57913,24891
57871,24942
57820,24984
57762,25015
57699,25034
57650,25039
57617,25039
57568,25034
57505,25015
57447,24984
57396,24942
57354,24891
57323,24833
57304,24770
57297,24704
57304,24639
57323,24576
57354,24517
57396,24466
57447,24425
57505,24394
57568,24374
57617,24370
57650,24370
57699,24374
" /> 
<polyline style="fill-rule:evenodd;"
points="56968,25039
56299,25039
56299,24370
56968,24370
56968,25039
" /> 
<polyline style="fill-rule:evenodd;"
points="52078,25039
51409,25039
51409,24370
52078,24370
52078,25039
" /> 
<polyline style="fill-rule:evenodd;"
points="53809,24374
53872,24394
53930,24425
53981,24466
54023,24517
54054,24576
54073,24639
54080,24704
54073,24770
54054,24833
54023,24891
53981,24942
53930,24984
53872,25015
53809,25034
53760,25039
53727,25039
53678,25034
53615,25015
53557,24984
53506,24942
53464,24891
53433,24833
53414,24770
53407,24704
53414,24639
53433,24576
53464,24517
53506,24466
53557,24425
53615,24394
53678,24374
53727,24370
53760,24370
53809,24374
" /> 
<polyline style="fill-rule:evenodd;"
points="37923,24994
37675,24994
37675,24816
37923,24816
37923,24994
" /> 
<polyline style="fill-rule:evenodd;"
points="38978,24994
38730,24994
38730,24816
38978,24816
38978,24994
" /> 
<polyline style="fill-rule:evenodd;"
points="39911,24688
39616,24688
39616,24374
39911,24374
39911,24688
" /> 
<polyline style="fill-rule:evenodd;"
points="37017,24688
36722,24688
36722,24374
37017,24374
37017,24688
" /> 
<polyline style="fill-rule:evenodd;"
points="38978,24620
38730,24620
38730,24442
38978,24442
38978,24620
" /> 
<polyline style="fill-rule:evenodd;"
points="37923,24620
37675,24620
37675,24442
37923,24442
37923,24620
" /> 
</g> 
</svg>
