<?xml version="1.0" standalone="no"?>
 <!DOCTYPE svg PUBLIC "-//W3C//DTD SVG 1.1//EN" 
 "http://www.w3.org/Graphics/SVG/1.1/DTD/svg11.dtd"> 
<svg xmlns="http://www.w3.org/2000/svg" version="1.1" 
    width="29.7002cm" height="21.0007cm" viewBox="0 0 116930 82680 ">
<title>SVG Picture created as PSLab-B_Mask.svg date 2020/05/16 12:16:07 </title>
  <desc>Picture generated by PCBNEW </desc>
<g style="fill:#000000; fill-opacity:1;stroke:#000000; stroke-opacity:1;
stroke-linecap:round; stroke-linejoin:round; "
 transform="translate(0 0) scale(1 1)">
</g>
<g style="fill:#000000; fill-opacity:0.0; 
stroke:#000000; stroke-width:-0.000393701; stroke-opacity:1; 
stroke-linecap:round; stroke-linejoin:round;">
</g>
<g style="fill:#000000; fill-opacity:1.0; 
stroke:#000000; stroke-width:0; stroke-opacity:1; 
stroke-linecap:round; stroke-linejoin:round;">
<path style="fill:#000000; fill-opacity:1.0; 
stroke:#000000; stroke-width:0; stroke-opacity:1; 
stroke-linecap:round; stroke-linejoin:round;fill-rule:evenodd;"
d="M 41506.4,42627.5
41612.9,42648.7
41696,42683.1
41813.5,42731.8
41813.5,42731.8
41994.1,42852.4
42147.6,43005.9
42228.2,43126.6
42268.2,43186.5
42316.9,43304
42351.3,43387.1
42393.7,43600.1
42393.7,43817.2
42351.3,44030.2
42339.8,44058
42268.2,44230.8
42268.2,44230.8
42147.6,44411.4
41994.1,44564.9
41873.4,44645.5
41813.5,44685.6
41696,44734.2
41612.9,44768.7
41506.4,44789.8
41399.9,44811
41182.8,44811
41076.3,44789.8
40969.8,44768.7
40886.7,44734.2
40769.2,44685.6
40709.3,44645.5
40588.6,44564.9
40435.1,44411.4
40314.4,44230.8
40314.4,44230.8
40242.9,44058
40231.3,44030.2
40189,43817.2
40189,43600.1
40231.3,43387.1
40265.8,43304
40314.4,43186.5
40354.5,43126.6
40435.1,43005.9
40588.6,42852.4
40769.2,42731.8
40769.2,42731.8
40886.7,42683.1
40969.8,42648.7
41076.3,42627.5
41182.8,42606.3
41399.9,42606.3
Z" /> 
<path style="fill:#000000; fill-opacity:1.0; 
stroke:#000000; stroke-width:0; stroke-opacity:1; 
stroke-linecap:round; stroke-linejoin:round;fill-rule:evenodd;"
d="M 73915.8,42606.3
74108.9,42644.7
74192,42679.1
74309.6,42727.8
74369.5,42767.9
74490.1,42848.5
74643.7,43002
74646.3,43005.9
74764.3,43182.6
74765.9,43186.5
74847.4,43383.2
74858.6,43439.7
74886.1,43577.7
74889.8,43596.2
74889.8,43813.3
74847.4,44026.3
74834.3,44058
74764.3,44226.9
74724.3,44286.8
74643.7,44407.4
74490.1,44561
74369.5,44641.6
74309.6,44681.6
74192,44730.3
74108.9,44764.7
74089.2,44768.7
73896,44807.1
73678.8,44807.1
73485.6,44768.7
73465.9,44764.7
73382.8,44730.3
73265.2,44681.6
73205.3,44641.6
73084.7,44561
72931.1,44407.4
72850.5,44286.8
72810.5,44226.9
72740.5,44058
72727.4,44026.3
72685,43813.3
72685,43596.2
72688.7,43577.7
72716.2,43439.7
72727.4,43383.2
72808.9,43186.5
72810.5,43182.6
72928.5,43005.9
72931.1,43002
73084.7,42848.5
73205.3,42767.9
73265.2,42727.8
73382.8,42679.1
73465.9,42644.7
73659,42606.3
73678.8,42602.4
73896,42602.4
Z" /> 
<path style="fill:#000000; fill-opacity:1.0; 
stroke:#000000; stroke-width:0; stroke-opacity:1; 
stroke-linecap:round; stroke-linejoin:round;fill-rule:evenodd;"
d="M 63404.7,43414.4
63465.6,43439.7
63465.6,43439.7
63520.4,43476.3
63567,43522.9
63603.6,43577.7
63603.6,43577.7
63628.9,43638.6
63641.7,43703.3
63641.7,43769.2
63628.9,43833.8
63603.6,43894.7
63603.6,43894.7
63567,43949.5
63520.4,43996.2
63465.6,44032.8
63465.6,44032.8
63465.6,44032.8
63404.7,44058
63340,44070.9
63274.1,44070.9
63209.5,44058
63148.6,44032.8
63148.6,44032.8
63148.6,44032.8
63093.8,43996.2
63047.2,43949.5
63010.5,43894.7
63010.5,43894.7
62985.3,43833.8
62972.4,43769.2
62972.4,43703.3
62985.3,43638.6
63010.5,43577.7
63010.5,43577.7
63047.2,43522.9
63093.8,43476.3
63148.6,43439.7
63148.6,43439.7
63209.5,43414.4
63274.1,43401.6
63340,43401.6
Z" /> 
<path style="fill:#000000; fill-opacity:1.0; 
stroke:#000000; stroke-width:0; stroke-opacity:1; 
stroke-linecap:round; stroke-linejoin:round;fill-rule:evenodd;"
d="M 45637.8,44070.9
44968.5,44070.9
44968.5,43401.6
45637.8,43401.6
Z" /> 
<path style="fill:#000000; fill-opacity:1.0; 
stroke:#000000; stroke-width:0; stroke-opacity:1; 
stroke-linecap:round; stroke-linejoin:round;fill-rule:evenodd;"
d="M 57404.7,43414.4
57465.6,43439.7
57465.6,43439.7
57520.4,43476.3
57567,43522.9
57603.6,43577.7
57603.6,43577.7
57628.9,43638.6
57641.7,43703.3
57641.7,43769.2
57628.9,43833.8
57603.6,43894.7
57603.6,43894.7
57567,43949.5
57520.4,43996.2
57465.6,44032.8
57465.6,44032.8
57465.6,44032.8
57404.7,44058
57340,44070.9
57274.1,44070.9
57209.5,44058
57148.6,44032.8
57148.6,44032.8
57148.6,44032.8
57093.8,43996.2
57047.2,43949.5
57010.5,43894.7
57010.5,43894.7
56985.3,43833.8
56972.4,43769.2
56972.4,43703.3
56985.3,43638.6
57010.5,43577.7
57010.5,43577.7
57047.2,43522.9
57093.8,43476.3
57148.6,43439.7
57148.6,43439.7
57209.5,43414.4
57274.1,43401.6
57340,43401.6
Z" /> 
<path style="fill:#000000; fill-opacity:1.0; 
stroke:#000000; stroke-width:0; stroke-opacity:1; 
stroke-linecap:round; stroke-linejoin:round;fill-rule:evenodd;"
d="M 58404.7,43414.4
58465.6,43439.7
58465.6,43439.7
58520.4,43476.3
58567,43522.9
58603.6,43577.7
58603.6,43577.7
58628.9,43638.6
58641.7,43703.3
58641.7,43769.2
58628.9,43833.8
58603.6,43894.7
58603.6,43894.7
58567,43949.5
58520.4,43996.2
58465.6,44032.8
58465.6,44032.8
58465.6,44032.8
58404.7,44058
58340,44070.9
58274.1,44070.9
58209.5,44058
58148.6,44032.8
58148.6,44032.8
58148.6,44032.8
58093.8,43996.2
58047.2,43949.5
58010.5,43894.7
58010.5,43894.7
57985.3,43833.8
57972.4,43769.2
57972.4,43703.3
57985.3,43638.6
58010.5,43577.7
58010.5,43577.7
58047.2,43522.9
58093.8,43476.3
58148.6,43439.7
58148.6,43439.7
58209.5,43414.4
58274.1,43401.6
58340,43401.6
Z" /> 
<path style="fill:#000000; fill-opacity:1.0; 
stroke:#000000; stroke-width:0; stroke-opacity:1; 
stroke-linecap:round; stroke-linejoin:round;fill-rule:evenodd;"
d="M 59404.7,43414.4
59465.6,43439.7
59465.6,43439.7
59520.4,43476.3
59567,43522.9
59603.6,43577.7
59603.6,43577.7
59628.9,43638.6
59641.7,43703.3
59641.7,43769.2
59628.9,43833.8
59603.6,43894.7
59603.6,43894.7
59567,43949.5
59520.4,43996.2
59465.6,44032.8
59465.6,44032.8
59465.6,44032.8
59404.7,44058
59340,44070.9
59274.1,44070.9
59209.5,44058
59148.6,44032.8
59148.6,44032.8
59148.6,44032.8
59093.8,43996.2
59047.2,43949.5
59010.5,43894.7
59010.5,43894.7
58985.3,43833.8
58972.4,43769.2
58972.4,43703.3
58985.3,43638.6
59010.5,43577.7
59010.5,43577.7
59047.2,43522.9
59093.8,43476.3
59148.6,43439.7
59148.6,43439.7
59209.5,43414.4
59274.1,43401.6
59340,43401.6
Z" /> 
<path style="fill:#000000; fill-opacity:1.0; 
stroke:#000000; stroke-width:0; stroke-opacity:1; 
stroke-linecap:round; stroke-linejoin:round;fill-rule:evenodd;"
d="M 60404.7,43414.4
60465.6,43439.7
60465.6,43439.7
60520.4,43476.3
60567,43522.9
60603.6,43577.7
60603.6,43577.7
60628.9,43638.6
60641.7,43703.3
60641.7,43769.2
60628.9,43833.8
60603.6,43894.7
60603.6,43894.7
60567,43949.5
60520.4,43996.2
60465.6,44032.8
60465.6,44032.8
60465.6,44032.8
60404.7,44058
60340,44070.9
60274.1,44070.9
60209.5,44058
60148.6,44032.8
60148.6,44032.8
60148.6,44032.8
60093.8,43996.2
60047.2,43949.5
60010.5,43894.7
60010.5,43894.7
59985.3,43833.8
59972.4,43769.2
59972.4,43703.3
59985.3,43638.6
60010.5,43577.7
60010.5,43577.7
60047.2,43522.9
60093.8,43476.3
60148.6,43439.7
60148.6,43439.7
60209.5,43414.4
60274.1,43401.6
60340,43401.6
Z" /> 
<path style="fill:#000000; fill-opacity:1.0; 
stroke:#000000; stroke-width:0; stroke-opacity:1; 
stroke-linecap:round; stroke-linejoin:round;fill-rule:evenodd;"
d="M 61404.7,43414.4
61465.6,43439.7
61465.6,43439.7
61520.4,43476.3
61567,43522.9
61603.6,43577.7
61603.6,43577.7
61628.9,43638.6
61641.7,43703.3
61641.7,43769.2
61628.9,43833.8
61603.6,43894.7
61603.6,43894.7
61567,43949.5
61520.4,43996.2
61465.6,44032.8
61465.6,44032.8
61465.6,44032.8
61404.7,44058
61340,44070.9
61274.1,44070.9
61209.5,44058
61148.6,44032.8
61148.6,44032.8
61148.6,44032.8
61093.8,43996.2
61047.2,43949.5
61010.5,43894.7
61010.5,43894.7
60985.3,43833.8
60972.4,43769.2
60972.4,43703.3
60985.3,43638.6
61010.5,43577.7
61010.5,43577.7
61047.2,43522.9
61093.8,43476.3
61148.6,43439.7
61148.6,43439.7
61209.5,43414.4
61274.1,43401.6
61340,43401.6
Z" /> 
<path style="fill:#000000; fill-opacity:1.0; 
stroke:#000000; stroke-width:0; stroke-opacity:1; 
stroke-linecap:round; stroke-linejoin:round;fill-rule:evenodd;"
d="M 62404.7,43414.4
62465.6,43439.7
62465.6,43439.7
62520.4,43476.3
62567,43522.9
62603.6,43577.7
62603.6,43577.7
62628.9,43638.6
62641.7,43703.3
62641.7,43769.2
62628.9,43833.8
62603.6,43894.7
62603.6,43894.7
62567,43949.5
62520.4,43996.2
62465.6,44032.8
62465.6,44032.8
62465.6,44032.8
62404.7,44058
62340,44070.9
62274.1,44070.9
62209.5,44058
62148.6,44032.8
62148.6,44032.8
62148.6,44032.8
62093.8,43996.2
62047.2,43949.5
62010.5,43894.7
62010.5,43894.7
61985.3,43833.8
61972.4,43769.2
61972.4,43703.3
61985.3,43638.6
62010.5,43577.7
62010.5,43577.7
62047.2,43522.9
62093.8,43476.3
62148.6,43439.7
62148.6,43439.7
62209.5,43414.4
62274.1,43401.6
62340,43401.6
Z" /> 
<path style="fill:#000000; fill-opacity:1.0; 
stroke:#000000; stroke-width:0; stroke-opacity:1; 
stroke-linecap:round; stroke-linejoin:round;fill-rule:evenodd;"
d="M 64404.7,43414.4
64465.6,43439.7
64465.6,43439.7
64520.4,43476.3
64567,43522.9
64603.6,43577.7
64603.6,43577.7
64628.9,43638.6
64641.7,43703.3
64641.7,43769.2
64628.9,43833.8
64603.6,43894.7
64603.6,43894.7
64567,43949.5
64520.4,43996.2
64465.6,44032.8
64465.6,44032.8
64465.6,44032.8
64404.7,44058
64340,44070.9
64274.1,44070.9
64209.5,44058
64148.6,44032.8
64148.6,44032.8
64148.6,44032.8
64093.8,43996.2
64047.2,43949.5
64010.5,43894.7
64010.5,43894.7
63985.3,43833.8
63972.4,43769.2
63972.4,43703.3
63985.3,43638.6
64010.5,43577.7
64010.5,43577.7
64047.2,43522.9
64093.8,43476.3
64148.6,43439.7
64148.6,43439.7
64209.5,43414.4
64274.1,43401.6
64340,43401.6
Z" /> 
<path style="fill:#000000; fill-opacity:1.0; 
stroke:#000000; stroke-width:0; stroke-opacity:1; 
stroke-linecap:round; stroke-linejoin:round;fill-rule:evenodd;"
d="M 56404.7,43414.4
56465.6,43439.7
56465.6,43439.7
56520.4,43476.3
56567,43522.9
56603.6,43577.7
56603.6,43577.7
56628.9,43638.6
56641.7,43703.3
56641.7,43769.2
56628.9,43833.8
56603.6,43894.7
56603.6,43894.7
56567,43949.5
56520.4,43996.2
56465.6,44032.8
56465.6,44032.8
56465.6,44032.8
56404.7,44058
56340,44070.9
56274.1,44070.9
56209.5,44058
56148.6,44032.8
56148.6,44032.8
56148.6,44032.8
56093.8,43996.2
56047.2,43949.5
56010.5,43894.7
56010.5,43894.7
55985.3,43833.8
55972.4,43769.2
55972.4,43703.3
55985.3,43638.6
56010.5,43577.7
56010.5,43577.7
56047.2,43522.9
56093.8,43476.3
56148.6,43439.7
56148.6,43439.7
56209.5,43414.4
56274.1,43401.6
56340,43401.6
Z" /> 
<path style="fill:#000000; fill-opacity:1.0; 
stroke:#000000; stroke-width:0; stroke-opacity:1; 
stroke-linecap:round; stroke-linejoin:round;fill-rule:evenodd;"
d="M 46400.8,43414.4
46461.7,43439.7
46461.7,43439.7
46516.5,43476.3
46563.1,43522.9
46599.7,43577.7
46599.7,43577.7
46624.9,43638.6
46637.8,43703.3
46637.8,43769.2
46624.9,43833.8
46599.7,43894.7
46599.7,43894.7
46563.1,43949.5
46516.5,43996.2
46461.7,44032.8
46461.7,44032.8
46461.7,44032.8
46400.8,44058
46336.1,44070.9
46270.2,44070.9
46205.5,44058
46144.6,44032.8
46144.6,44032.8
46144.6,44032.8
46089.8,43996.2
46043.2,43949.5
46006.6,43894.7
46006.6,43894.7
45981.4,43833.8
45968.5,43769.2
45968.5,43703.3
45981.4,43638.6
46006.6,43577.7
46006.6,43577.7
46043.2,43522.9
46089.8,43476.3
46144.6,43439.7
46144.6,43439.7
46205.5,43414.4
46270.2,43401.6
46336.1,43401.6
Z" /> 
<path style="fill:#000000; fill-opacity:1.0; 
stroke:#000000; stroke-width:0; stroke-opacity:1; 
stroke-linecap:round; stroke-linejoin:round;fill-rule:evenodd;"
d="M 47400.8,43414.4
47461.7,43439.7
47461.7,43439.7
47516.5,43476.3
47563.1,43522.9
47599.7,43577.7
47599.7,43577.7
47624.9,43638.6
47637.8,43703.3
47637.8,43769.2
47624.9,43833.8
47599.7,43894.7
47599.7,43894.7
47563.1,43949.5
47516.5,43996.2
47461.7,44032.8
47461.7,44032.8
47461.7,44032.8
47400.8,44058
47336.1,44070.9
47270.2,44070.9
47205.5,44058
47144.6,44032.8
47144.6,44032.8
47144.6,44032.8
47089.8,43996.2
47043.2,43949.5
47006.6,43894.7
47006.6,43894.7
46981.4,43833.8
46968.5,43769.2
46968.5,43703.3
46981.4,43638.6
47006.6,43577.7
47006.6,43577.7
47043.2,43522.9
47089.8,43476.3
47144.6,43439.7
47144.6,43439.7
47205.5,43414.4
47270.2,43401.6
47336.1,43401.6
Z" /> 
<path style="fill:#000000; fill-opacity:1.0; 
stroke:#000000; stroke-width:0; stroke-opacity:1; 
stroke-linecap:round; stroke-linejoin:round;fill-rule:evenodd;"
d="M 48400.8,43414.4
48461.7,43439.7
48461.7,43439.7
48516.5,43476.3
48563.1,43522.9
48599.7,43577.7
48599.7,43577.7
48624.9,43638.6
48637.8,43703.3
48637.8,43769.2
48624.9,43833.8
48599.7,43894.7
48599.7,43894.7
48563.1,43949.5
48516.5,43996.2
48461.7,44032.8
48461.7,44032.8
48461.7,44032.8
48400.8,44058
48336.1,44070.9
48270.2,44070.9
48205.5,44058
48144.6,44032.8
48144.6,44032.8
48144.6,44032.8
48089.8,43996.2
48043.2,43949.5
48006.6,43894.7
48006.6,43894.7
47981.4,43833.8
47968.5,43769.2
47968.5,43703.3
47981.4,43638.6
48006.6,43577.7
48006.6,43577.7
48043.2,43522.9
48089.8,43476.3
48144.6,43439.7
48144.6,43439.7
48205.5,43414.4
48270.2,43401.6
48336.1,43401.6
Z" /> 
<path style="fill:#000000; fill-opacity:1.0; 
stroke:#000000; stroke-width:0; stroke-opacity:1; 
stroke-linecap:round; stroke-linejoin:round;fill-rule:evenodd;"
d="M 49400.8,43414.4
49461.7,43439.7
49461.7,43439.7
49516.5,43476.3
49563.1,43522.9
49599.7,43577.7
49599.7,43577.7
49624.9,43638.6
49637.8,43703.3
49637.8,43769.2
49624.9,43833.8
49599.7,43894.7
49599.7,43894.7
49563.1,43949.5
49516.5,43996.2
49461.7,44032.8
49461.7,44032.8
49461.7,44032.8
49400.8,44058
49336.1,44070.9
49270.2,44070.9
49205.5,44058
49144.6,44032.8
49144.6,44032.8
49144.6,44032.8
49089.8,43996.2
49043.2,43949.5
49006.6,43894.7
49006.6,43894.7
48981.4,43833.8
48968.5,43769.2
48968.5,43703.3
48981.4,43638.6
49006.6,43577.7
49006.6,43577.7
49043.2,43522.9
49089.8,43476.3
49144.6,43439.7
49144.6,43439.7
49205.5,43414.4
49270.2,43401.6
49336.1,43401.6
Z" /> 
<path style="fill:#000000; fill-opacity:1.0; 
stroke:#000000; stroke-width:0; stroke-opacity:1; 
stroke-linecap:round; stroke-linejoin:round;fill-rule:evenodd;"
d="M 50400.8,43414.4
50461.7,43439.7
50461.7,43439.7
50516.5,43476.3
50563.1,43522.9
50599.7,43577.7
50599.7,43577.7
50624.9,43638.6
50637.8,43703.3
50637.8,43769.2
50624.9,43833.8
50599.7,43894.7
50599.7,43894.7
50563.1,43949.5
50516.5,43996.2
50461.7,44032.8
50461.7,44032.8
50461.7,44032.8
50400.8,44058
50336.1,44070.9
50270.2,44070.9
50205.5,44058
50144.6,44032.8
50144.6,44032.8
50144.6,44032.8
50089.8,43996.2
50043.2,43949.5
50006.6,43894.7
50006.6,43894.7
49981.4,43833.8
49968.5,43769.2
49968.5,43703.3
49981.4,43638.6
50006.6,43577.7
50006.6,43577.7
50043.2,43522.9
50089.8,43476.3
50144.6,43439.7
50144.6,43439.7
50205.5,43414.4
50270.2,43401.6
50336.1,43401.6
Z" /> 
<path style="fill:#000000; fill-opacity:1.0; 
stroke:#000000; stroke-width:0; stroke-opacity:1; 
stroke-linecap:round; stroke-linejoin:round;fill-rule:evenodd;"
d="M 51400.8,43414.4
51461.7,43439.7
51461.7,43439.7
51516.5,43476.3
51563.1,43522.9
51599.7,43577.7
51599.7,43577.7
51624.9,43638.6
51637.8,43703.3
51637.8,43769.2
51624.9,43833.8
51599.7,43894.7
51599.7,43894.7
51563.1,43949.5
51516.5,43996.2
51461.7,44032.8
51461.7,44032.8
51461.7,44032.8
51400.8,44058
51336.1,44070.9
51270.2,44070.9
51205.5,44058
51144.6,44032.8
51144.6,44032.8
51144.6,44032.8
51089.8,43996.2
51043.2,43949.5
51006.6,43894.7
51006.6,43894.7
50981.4,43833.8
50968.5,43769.2
50968.5,43703.3
50981.4,43638.6
51006.6,43577.7
51006.6,43577.7
51043.2,43522.9
51089.8,43476.3
51144.6,43439.7
51144.6,43439.7
51205.5,43414.4
51270.2,43401.6
51336.1,43401.6
Z" /> 
<path style="fill:#000000; fill-opacity:1.0; 
stroke:#000000; stroke-width:0; stroke-opacity:1; 
stroke-linecap:round; stroke-linejoin:round;fill-rule:evenodd;"
d="M 55404.7,43414.4
55465.6,43439.7
55465.6,43439.7
55520.4,43476.3
55567,43522.9
55603.6,43577.7
55603.6,43577.7
55628.9,43638.6
55641.7,43703.3
55641.7,43769.2
55628.9,43833.8
55603.6,43894.7
55603.6,43894.7
55567,43949.5
55520.4,43996.2
55465.6,44032.8
55465.6,44032.8
55465.6,44032.8
55404.7,44058
55340,44070.9
55274.1,44070.9
55209.5,44058
55148.6,44032.8
55148.6,44032.8
55148.6,44032.8
55093.8,43996.2
55047.2,43949.5
55010.5,43894.7
55010.5,43894.7
54985.3,43833.8
54972.4,43769.2
54972.4,43703.3
54985.3,43638.6
55010.5,43577.7
55010.5,43577.7
55047.2,43522.9
55093.8,43476.3
55148.6,43439.7
55148.6,43439.7
55209.5,43414.4
55274.1,43401.6
55340,43401.6
Z" /> 
<path style="fill:#000000; fill-opacity:1.0; 
stroke:#000000; stroke-width:0; stroke-opacity:1; 
stroke-linecap:round; stroke-linejoin:round;fill-rule:evenodd;"
d="M 54404.7,43414.4
54465.6,43439.7
54465.6,43439.7
54520.4,43476.3
54567,43522.9
54603.6,43577.7
54603.6,43577.7
54628.9,43638.6
54641.7,43703.3
54641.7,43769.2
54628.9,43833.8
54603.6,43894.7
54603.6,43894.7
54567,43949.5
54520.4,43996.2
54465.6,44032.8
54465.6,44032.8
54465.6,44032.8
54404.7,44058
54340,44070.9
54274.1,44070.9
54209.5,44058
54148.6,44032.8
54148.6,44032.8
54148.6,44032.8
54093.8,43996.2
54047.2,43949.5
54010.5,43894.7
54010.5,43894.7
53985.3,43833.8
53972.4,43769.2
53972.4,43703.3
53985.3,43638.6
54010.5,43577.7
54010.5,43577.7
54047.2,43522.9
54093.8,43476.3
54148.6,43439.7
54148.6,43439.7
54209.5,43414.4
54274.1,43401.6
54340,43401.6
Z" /> 
<path style="fill:#000000; fill-opacity:1.0; 
stroke:#000000; stroke-width:0; stroke-opacity:1; 
stroke-linecap:round; stroke-linejoin:round;fill-rule:evenodd;"
d="M 53641.7,44070.9
52972.4,44070.9
52972.4,43401.6
53641.7,43401.6
Z" /> 
<path style="fill:#000000; fill-opacity:1.0; 
stroke:#000000; stroke-width:0; stroke-opacity:1; 
stroke-linecap:round; stroke-linejoin:round;fill-rule:evenodd;"
d="M 37625.5,41504.6
36956.2,41504.6
36956.2,40835.3
37625.5,40835.3
Z" /> 
<path style="fill:#000000; fill-opacity:1.0; 
stroke:#000000; stroke-width:0; stroke-opacity:1; 
stroke-linecap:round; stroke-linejoin:round;fill-rule:evenodd;"
d="M 40388.5,40848.1
40449.4,40873.4
40449.4,40873.4
40504.2,40910
40550.8,40956.6
40587.4,41011.4
40587.4,41011.4
40612.7,41072.3
40625.5,41137
40625.5,41202.9
40612.7,41267.5
40587.4,41328.4
40587.4,41328.4
40550.8,41383.2
40504.2,41429.9
40449.4,41466.5
40449.4,41466.5
40449.4,41466.5
40388.5,41491.7
40323.8,41504.6
40257.9,41504.6
40193.3,41491.7
40132.4,41466.5
40132.4,41466.5
40132.4,41466.5
40077.5,41429.9
40030.9,41383.2
39994.3,41328.4
39994.3,41328.4
39969.1,41267.5
39956.2,41202.9
39956.2,41137
39969.1,41072.3
39994.3,41011.4
39994.3,41011.4
40030.9,40956.6
40077.5,40910
40132.4,40873.4
40132.4,40873.4
40193.3,40848.1
40257.9,40835.3
40323.8,40835.3
Z" /> 
<path style="fill:#000000; fill-opacity:1.0; 
stroke:#000000; stroke-width:0; stroke-opacity:1; 
stroke-linecap:round; stroke-linejoin:round;fill-rule:evenodd;"
d="M 38388.5,40848.1
38449.4,40873.4
38449.4,40873.4
38504.2,40910
38550.8,40956.6
38587.4,41011.4
38587.4,41011.4
38612.7,41072.3
38625.5,41137
38625.5,41202.9
38612.7,41267.5
38587.4,41328.4
38587.4,41328.4
38550.8,41383.2
38504.2,41429.9
38449.4,41466.5
38449.4,41466.5
38449.4,41466.5
38388.5,41491.7
38323.8,41504.6
38257.9,41504.6
38193.3,41491.7
38132.4,41466.5
38132.4,41466.5
38132.4,41466.5
38077.5,41429.9
38030.9,41383.2
37994.3,41328.4
37994.3,41328.4
37969.1,41267.5
37956.2,41202.9
37956.2,41137
37969.1,41072.3
37994.3,41011.4
37994.3,41011.4
38030.9,40956.6
38077.5,40910
38132.4,40873.4
38132.4,40873.4
38193.3,40848.1
38257.9,40835.3
38323.8,40835.3
Z" /> 
<path style="fill:#000000; fill-opacity:1.0; 
stroke:#000000; stroke-width:0; stroke-opacity:1; 
stroke-linecap:round; stroke-linejoin:round;fill-rule:evenodd;"
d="M 39388.5,40848.1
39449.4,40873.4
39449.4,40873.4
39504.2,40910
39550.8,40956.6
39587.4,41011.4
39587.4,41011.4
39612.7,41072.3
39625.5,41137
39625.5,41202.9
39612.7,41267.5
39587.4,41328.4
39587.4,41328.4
39550.8,41383.2
39504.2,41429.9
39449.4,41466.5
39449.4,41466.5
39449.4,41466.5
39388.5,41491.7
39323.8,41504.6
39257.9,41504.6
39193.3,41491.7
39132.4,41466.5
39132.4,41466.5
39132.4,41466.5
39077.5,41429.9
39030.9,41383.2
38994.3,41328.4
38994.3,41328.4
38969.1,41267.5
38956.2,41202.9
38956.2,41137
38969.1,41072.3
38994.3,41011.4
38994.3,41011.4
39030.9,40956.6
39077.5,40910
39132.4,40873.4
39132.4,40873.4
39193.3,40848.1
39257.9,40835.3
39323.8,40835.3
Z" /> 
<path style="fill:#000000; fill-opacity:1.0; 
stroke:#000000; stroke-width:0; stroke-opacity:1; 
stroke-linecap:round; stroke-linejoin:round;fill-rule:evenodd;"
d="M 36610.9,41352.8
36110.9,41352.8
36110.9,40970.9
36610.9,40970.9
Z" /> 
<path style="fill:#000000; fill-opacity:1.0; 
stroke:#000000; stroke-width:0; stroke-opacity:1; 
stroke-linecap:round; stroke-linejoin:round;fill-rule:evenodd;"
d="M 73889,40398.7
73949.9,40423.9
73949.9,40423.9
74004.7,40460.5
74051.3,40507.1
74087.9,40562
74087.9,40562
74113.1,40622.9
74126,40687.5
74126,40753.4
74113.1,40818.1
74087.9,40879
74087.9,40879
74051.3,40933.8
74004.7,40980.4
73949.9,41017
73949.9,41017
73949.9,41017
73889,41042.3
73824.3,41055.1
73758.4,41055.1
73693.7,41042.3
73632.8,41017
73632.8,41017
73632.8,41017
73578,40980.4
73531.4,40933.8
73494.8,40879
73494.8,40879
73469.6,40818.1
73456.7,40753.4
73456.7,40687.5
73469.6,40622.9
73494.8,40562
73494.8,40562
73531.4,40507.1
73578,40460.5
73632.8,40423.9
73632.8,40423.9
73693.7,40398.7
73758.4,40385.8
73824.3,40385.8
Z" /> 
<path style="fill:#000000; fill-opacity:1.0; 
stroke:#000000; stroke-width:0; stroke-opacity:1; 
stroke-linecap:round; stroke-linejoin:round;fill-rule:evenodd;"
d="M 72889,40398.7
72949.9,40423.9
72949.9,40423.9
73004.7,40460.5
73051.3,40507.1
73087.9,40562
73087.9,40562
73113.1,40622.9
73126,40687.5
73126,40753.4
73113.1,40818.1
73087.9,40879
73087.9,40879
73051.3,40933.8
73004.7,40980.4
72949.9,41017
72949.9,41017
72949.9,41017
72889,41042.3
72824.3,41055.1
72758.4,41055.1
72693.7,41042.3
72632.8,41017
72632.8,41017
72632.8,41017
72578,40980.4
72531.4,40933.8
72494.8,40879
72494.8,40879
72469.6,40818.1
72456.7,40753.4
72456.7,40687.5
72469.6,40622.9
72494.8,40562
72494.8,40562
72531.4,40507.1
72578,40460.5
72632.8,40423.9
72632.8,40423.9
72693.7,40398.7
72758.4,40385.8
72824.3,40385.8
Z" /> 
<path style="fill:#000000; fill-opacity:1.0; 
stroke:#000000; stroke-width:0; stroke-opacity:1; 
stroke-linecap:round; stroke-linejoin:round;fill-rule:evenodd;"
d="M 36610.9,40848.9
36110.9,40848.9
36110.9,40467
36610.9,40467
Z" /> 
<path style="fill:#000000; fill-opacity:1.0; 
stroke:#000000; stroke-width:0; stroke-opacity:1; 
stroke-linecap:round; stroke-linejoin:round;fill-rule:evenodd;"
d="M 38388.5,39848.1
38449.4,39873.4
38449.4,39873.4
38504.2,39910
38550.8,39956.6
38587.4,40011.4
38587.4,40011.4
38612.7,40072.3
38625.5,40137
38625.5,40202.9
38612.7,40267.5
38587.4,40328.4
38587.4,40328.4
38550.8,40383.2
38504.2,40429.9
38449.4,40466.5
38449.4,40466.5
38449.4,40466.5
38388.5,40491.7
38323.8,40504.6
38257.9,40504.6
38193.3,40491.7
38132.4,40466.5
38132.4,40466.5
38132.4,40466.5
38077.5,40429.9
38030.9,40383.2
37994.3,40328.4
37994.3,40328.4
37969.1,40267.5
37956.2,40202.9
37956.2,40137
37969.1,40072.3
37994.3,40011.4
37994.3,40011.4
38030.9,39956.6
38077.5,39910
38132.4,39873.4
38132.4,39873.4
38193.3,39848.1
38257.9,39835.3
38323.8,39835.3
Z" /> 
<path style="fill:#000000; fill-opacity:1.0; 
stroke:#000000; stroke-width:0; stroke-opacity:1; 
stroke-linecap:round; stroke-linejoin:round;fill-rule:evenodd;"
d="M 39388.5,39848.1
39449.4,39873.4
39449.4,39873.4
39504.2,39910
39550.8,39956.6
39587.4,40011.4
39587.4,40011.4
39612.7,40072.3
39625.5,40137
39625.5,40202.9
39612.7,40267.5
39587.4,40328.4
39587.4,40328.4
39550.8,40383.2
39504.2,40429.9
39449.4,40466.5
39449.4,40466.5
39449.4,40466.5
39388.5,40491.7
39323.8,40504.6
39257.9,40504.6
39193.3,40491.7
39132.4,40466.5
39132.4,40466.5
39132.4,40466.5
39077.5,40429.9
39030.9,40383.2
38994.3,40328.4
38994.3,40328.4
38969.1,40267.5
38956.2,40202.9
38956.2,40137
38969.1,40072.3
38994.3,40011.4
38994.3,40011.4
39030.9,39956.6
39077.5,39910
39132.4,39873.4
39132.4,39873.4
39193.3,39848.1
39257.9,39835.3
39323.8,39835.3
Z" /> 
<path style="fill:#000000; fill-opacity:1.0; 
stroke:#000000; stroke-width:0; stroke-opacity:1; 
stroke-linecap:round; stroke-linejoin:round;fill-rule:evenodd;"
d="M 37388.5,39848.1
37449.4,39873.4
37449.4,39873.4
37504.2,39910
37550.8,39956.6
37587.4,40011.4
37587.4,40011.4
37612.7,40072.3
37625.5,40137
37625.5,40202.9
37612.7,40267.5
37587.4,40328.4
37587.4,40328.4
37550.8,40383.2
37504.2,40429.9
37449.4,40466.5
37449.4,40466.5
37449.4,40466.5
37388.5,40491.7
37323.8,40504.6
37257.9,40504.6
37193.3,40491.7
37132.4,40466.5
37132.4,40466.5
37132.4,40466.5
37077.5,40429.9
37030.9,40383.2
36994.3,40328.4
36994.3,40328.4
36969.1,40267.5
36956.2,40202.9
36956.2,40137
36969.1,40072.3
36994.3,40011.4
36994.3,40011.4
37030.9,39956.6
37077.5,39910
37132.4,39873.4
37132.4,39873.4
37193.3,39848.1
37257.9,39835.3
37323.8,39835.3
Z" /> 
<path style="fill:#000000; fill-opacity:1.0; 
stroke:#000000; stroke-width:0; stroke-opacity:1; 
stroke-linecap:round; stroke-linejoin:round;fill-rule:evenodd;"
d="M 40388.5,39848.1
40449.4,39873.4
40449.4,39873.4
40504.2,39910
40550.8,39956.6
40587.4,40011.4
40587.4,40011.4
40612.7,40072.3
40625.5,40137
40625.5,40202.9
40612.7,40267.5
40587.4,40328.4
40587.4,40328.4
40550.8,40383.2
40504.2,40429.9
40449.4,40466.5
40449.4,40466.5
40449.4,40466.5
40388.5,40491.7
40323.8,40504.6
40257.9,40504.6
40193.3,40491.7
40132.4,40466.5
40132.4,40466.5
40132.4,40466.5
40077.5,40429.9
40030.9,40383.2
39994.3,40328.4
39994.3,40328.4
39969.1,40267.5
39956.2,40202.9
39956.2,40137
39969.1,40072.3
39994.3,40011.4
39994.3,40011.4
40030.9,39956.6
40077.5,39910
40132.4,39873.4
40132.4,39873.4
40193.3,39848.1
40257.9,39835.3
40323.8,39835.3
Z" /> 
<path style="fill:#000000; fill-opacity:1.0; 
stroke:#000000; stroke-width:0; stroke-opacity:1; 
stroke-linecap:round; stroke-linejoin:round;fill-rule:evenodd;"
d="M 72889,39398.7
72949.9,39423.9
72949.9,39423.9
73004.7,39460.5
73051.3,39507.1
73087.9,39562
73087.9,39562
73113.1,39622.9
73126,39687.5
73126,39753.4
73113.1,39818.1
73087.9,39879
73087.9,39879
73051.3,39933.8
73004.7,39980.4
72949.9,40017
72949.9,40017
72949.9,40017
72889,40042.3
72824.3,40055.1
72758.4,40055.1
72693.7,40042.3
72632.8,40017
72632.8,40017
72632.8,40017
72578,39980.4
72531.4,39933.8
72494.8,39879
72494.8,39879
72469.6,39818.1
72456.7,39753.4
72456.7,39687.5
72469.6,39622.9
72494.8,39562
72494.8,39562
72531.4,39507.1
72578,39460.5
72632.8,39423.9
72632.8,39423.9
72693.7,39398.7
72758.4,39385.8
72824.3,39385.8
Z" /> 
<path style="fill:#000000; fill-opacity:1.0; 
stroke:#000000; stroke-width:0; stroke-opacity:1; 
stroke-linecap:round; stroke-linejoin:round;fill-rule:evenodd;"
d="M 73889,39398.7
73949.9,39423.9
73949.9,39423.9
74004.7,39460.5
74051.3,39507.1
74087.9,39562
74087.9,39562
74113.1,39622.9
74126,39687.5
74126,39753.4
74113.1,39818.1
74087.9,39879
74087.9,39879
74051.3,39933.8
74004.7,39980.4
73949.9,40017
73949.9,40017
73949.9,40017
73889,40042.3
73824.3,40055.1
73758.4,40055.1
73693.7,40042.3
73632.8,40017
73632.8,40017
73632.8,40017
73578,39980.4
73531.4,39933.8
73494.8,39879
73494.8,39879
73469.6,39818.1
73456.7,39753.4
73456.7,39687.5
73469.6,39622.9
73494.8,39562
73494.8,39562
73531.4,39507.1
73578,39460.5
73632.8,39423.9
73632.8,39423.9
73693.7,39398.7
73758.4,39385.8
73824.3,39385.8
Z" /> 
<path style="fill:#000000; fill-opacity:1.0; 
stroke:#000000; stroke-width:0; stroke-opacity:1; 
stroke-linecap:round; stroke-linejoin:round;fill-rule:evenodd;"
d="M 73889,38398.7
73949.9,38423.9
73949.9,38423.9
74004.7,38460.5
74051.3,38507.1
74087.9,38562
74087.9,38562
74113.1,38622.9
74126,38687.5
74126,38753.4
74113.1,38818.1
74087.9,38879
74087.9,38879
74051.3,38933.8
74004.7,38980.4
73949.9,39017
73949.9,39017
73949.9,39017
73889,39042.3
73824.3,39055.1
73758.4,39055.1
73693.7,39042.3
73632.8,39017
73632.8,39017
73632.8,39017
73578,38980.4
73531.4,38933.8
73494.8,38879
73494.8,38879
73469.6,38818.1
73456.7,38753.4
73456.7,38687.5
73469.6,38622.9
73494.8,38562
73494.8,38562
73531.4,38507.1
73578,38460.5
73632.8,38423.9
73632.8,38423.9
73693.7,38398.7
73758.4,38385.8
73824.3,38385.8
Z" /> 
<path style="fill:#000000; fill-opacity:1.0; 
stroke:#000000; stroke-width:0; stroke-opacity:1; 
stroke-linecap:round; stroke-linejoin:round;fill-rule:evenodd;"
d="M 72889,38398.7
72949.9,38423.9
72949.9,38423.9
73004.7,38460.5
73051.3,38507.1
73087.9,38562
73087.9,38562
73113.1,38622.9
73126,38687.5
73126,38753.4
73113.1,38818.1
73087.9,38879
73087.9,38879
73051.3,38933.8
73004.7,38980.4
72949.9,39017
72949.9,39017
72949.9,39017
72889,39042.3
72824.3,39055.1
72758.4,39055.1
72693.7,39042.3
72632.8,39017
72632.8,39017
72632.8,39017
72578,38980.4
72531.4,38933.8
72494.8,38879
72494.8,38879
72469.6,38818.1
72456.7,38753.4
72456.7,38687.5
72469.6,38622.9
72494.8,38562
72494.8,38562
72531.4,38507.1
72578,38460.5
72632.8,38423.9
72632.8,38423.9
72693.7,38398.7
72758.4,38385.8
72824.3,38385.8
Z" /> 
<path style="fill:#000000; fill-opacity:1.0; 
stroke:#000000; stroke-width:0; stroke-opacity:1; 
stroke-linecap:round; stroke-linejoin:round;fill-rule:evenodd;"
d="M 73889,37398.7
73949.9,37423.9
73949.9,37423.9
74004.7,37460.5
74051.3,37507.1
74087.9,37562
74087.9,37562
74113.1,37622.9
74126,37687.5
74126,37753.4
74113.1,37818.1
74087.9,37879
74087.9,37879
74051.3,37933.8
74004.7,37980.4
73949.9,38017
73949.9,38017
73949.9,38017
73889,38042.3
73824.3,38055.1
73758.4,38055.1
73693.7,38042.3
73632.8,38017
73632.8,38017
73632.8,38017
73578,37980.4
73531.4,37933.8
73494.8,37879
73494.8,37879
73469.6,37818.1
73456.7,37753.4
73456.7,37687.5
73469.6,37622.9
73494.8,37562
73494.8,37562
73531.4,37507.1
73578,37460.5
73632.8,37423.9
73632.8,37423.9
73693.7,37398.7
73758.4,37385.8
73824.3,37385.8
Z" /> 
<path style="fill:#000000; fill-opacity:1.0; 
stroke:#000000; stroke-width:0; stroke-opacity:1; 
stroke-linecap:round; stroke-linejoin:round;fill-rule:evenodd;"
d="M 72889,37398.7
72949.9,37423.9
72949.9,37423.9
73004.7,37460.5
73051.3,37507.1
73087.9,37562
73087.9,37562
73113.1,37622.9
73126,37687.5
73126,37753.4
73113.1,37818.1
73087.9,37879
73087.9,37879
73051.3,37933.8
73004.7,37980.4
72949.9,38017
72949.9,38017
72949.9,38017
72889,38042.3
72824.3,38055.1
72758.4,38055.1
72693.7,38042.3
72632.8,38017
72632.8,38017
72632.8,38017
72578,37980.4
72531.4,37933.8
72494.8,37879
72494.8,37879
72469.6,37818.1
72456.7,37753.4
72456.7,37687.5
72469.6,37622.9
72494.8,37562
72494.8,37562
72531.4,37507.1
72578,37460.5
72632.8,37423.9
72632.8,37423.9
72693.7,37398.7
72758.4,37385.8
72824.3,37385.8
Z" /> 
<path style="fill:#000000; fill-opacity:1.0; 
stroke:#000000; stroke-width:0; stroke-opacity:1; 
stroke-linecap:round; stroke-linejoin:round;fill-rule:evenodd;"
d="M 47696,36819.9
47756.9,36845.2
47756.9,36845.2
47811.7,36881.8
47858.4,36928.4
47893.1,36980.4
47895,36983.2
47920.2,37044.1
47933.1,37108.8
47933.1,37174.7
47920.2,37239.3
47914.3,37253.6
47895,37300.2
47858.4,37355.1
47811.7,37401.7
47756.9,37438.3
47756.9,37438.3
47756.9,37438.3
47696,37463.5
47631.4,37476.4
47565.5,37476.4
47500.8,37463.5
47439.9,37438.3
47439.9,37438.3
47439.9,37438.3
47385.1,37401.7
47338.5,37355.1
47301.9,37300.2
47282.6,37253.6
47276.6,37239.3
47263.8,37174.7
47263.8,37108.8
47276.6,37044.1
47301.9,36983.2
47303.7,36980.4
47338.5,36928.4
47385.1,36881.8
47439.9,36845.2
47439.9,36845.2
47500.8,36819.9
47565.5,36807.1
47631.4,36807.1
Z" /> 
<path style="fill:#000000; fill-opacity:1.0; 
stroke:#000000; stroke-width:0; stroke-opacity:1; 
stroke-linecap:round; stroke-linejoin:round;fill-rule:evenodd;"
d="M 45933.1,37476.4
45263.8,37476.4
45263.8,36807.1
45933.1,36807.1
Z" /> 
<path style="fill:#000000; fill-opacity:1.0; 
stroke:#000000; stroke-width:0; stroke-opacity:1; 
stroke-linecap:round; stroke-linejoin:round;fill-rule:evenodd;"
d="M 49696,36819.9
49756.9,36845.2
49756.9,36845.2
49811.7,36881.8
49858.4,36928.4
49893.1,36980.4
49895,36983.2
49920.2,37044.1
49933.1,37108.8
49933.1,37174.7
49920.2,37239.3
49914.3,37253.6
49895,37300.2
49858.4,37355.1
49811.7,37401.7
49756.9,37438.3
49756.9,37438.3
49756.9,37438.3
49696,37463.5
49631.4,37476.4
49565.5,37476.4
49500.8,37463.5
49439.9,37438.3
49439.9,37438.3
49439.9,37438.3
49385.1,37401.7
49338.5,37355.1
49301.9,37300.2
49282.6,37253.6
49276.6,37239.3
49263.8,37174.7
49263.8,37108.8
49276.6,37044.1
49301.9,36983.2
49303.7,36980.4
49338.5,36928.4
49385.1,36881.8
49439.9,36845.2
49439.9,36845.2
49500.8,36819.9
49565.5,36807.1
49631.4,36807.1
Z" /> 
<path style="fill:#000000; fill-opacity:1.0; 
stroke:#000000; stroke-width:0; stroke-opacity:1; 
stroke-linecap:round; stroke-linejoin:round;fill-rule:evenodd;"
d="M 48696,36819.9
48756.9,36845.2
48756.9,36845.2
48811.7,36881.8
48858.4,36928.4
48893.1,36980.4
48895,36983.2
48920.2,37044.1
48933.1,37108.8
48933.1,37174.7
48920.2,37239.3
48914.3,37253.6
48895,37300.2
48858.4,37355.1
48811.7,37401.7
48756.9,37438.3
48756.9,37438.3
48756.9,37438.3
48696,37463.5
48631.4,37476.4
48565.5,37476.4
48500.8,37463.5
48439.9,37438.3
48439.9,37438.3
48439.9,37438.3
48385.1,37401.7
48338.5,37355.1
48301.9,37300.2
48282.6,37253.6
48276.6,37239.3
48263.8,37174.7
48263.8,37108.8
48276.6,37044.1
48301.9,36983.2
48303.7,36980.4
48338.5,36928.4
48385.1,36881.8
48439.9,36845.2
48439.9,36845.2
48500.8,36819.9
48565.5,36807.1
48631.4,36807.1
Z" /> 
<path style="fill:#000000; fill-opacity:1.0; 
stroke:#000000; stroke-width:0; stroke-opacity:1; 
stroke-linecap:round; stroke-linejoin:round;fill-rule:evenodd;"
d="M 46696,36819.9
46756.9,36845.2
46756.9,36845.2
46811.7,36881.8
46858.4,36928.4
46893.1,36980.4
46895,36983.2
46920.2,37044.1
46933.1,37108.8
46933.1,37174.7
46920.2,37239.3
46914.3,37253.6
46895,37300.2
46858.4,37355.1
46811.7,37401.7
46756.9,37438.3
46756.9,37438.3
46756.9,37438.3
46696,37463.5
46631.4,37476.4
46565.5,37476.4
46500.8,37463.5
46439.9,37438.3
46439.9,37438.3
46439.9,37438.3
46385.1,37401.7
46338.5,37355.1
46301.9,37300.2
46282.6,37253.6
46276.6,37239.3
46263.8,37174.7
46263.8,37108.8
46276.6,37044.1
46301.9,36983.2
46303.7,36980.4
46338.5,36928.4
46385.1,36881.8
46439.9,36845.2
46439.9,36845.2
46500.8,36819.9
46565.5,36807.1
46631.4,36807.1
Z" /> 
<path style="fill:#000000; fill-opacity:1.0; 
stroke:#000000; stroke-width:0; stroke-opacity:1; 
stroke-linecap:round; stroke-linejoin:round;fill-rule:evenodd;"
d="M 50667.3,36914.6
50710.3,36932.4
50749,36958.2
50781.9,36991.2
50807.8,37029.8
50825.6,37072.8
50834.6,37118.5
50834.6,37165
50825.6,37210.6
50807.8,37253.6
50781.9,37292.3
50749,37325.2
50710.3,37351.1
50667.3,37368.9
50621.7,37378
50575.2,37378
50529.5,37368.9
50486.5,37351.1
50447.8,37325.2
50414.9,37292.3
50389.1,37253.6
50371.3,37210.6
50362.2,37165
50362.2,37118.5
50371.3,37072.8
50389.1,37029.8
50414.9,36991.2
50447.8,36958.2
50486.5,36932.4
50529.5,36914.6
50575.2,36905.5
50621.7,36905.5
Z" /> 
<path style="fill:#000000; fill-opacity:1.0; 
stroke:#000000; stroke-width:0; stroke-opacity:1; 
stroke-linecap:round; stroke-linejoin:round;fill-rule:evenodd;"
d="M 72889,36398.7
72949.9,36423.9
72949.9,36423.9
73004.7,36460.5
73051.3,36507.1
73087.9,36562
73087.9,36562
73113.1,36622.9
73126,36687.5
73126,36753.4
73113.1,36818.1
73087.9,36879
73087.9,36879
73051.3,36933.8
73004.7,36980.4
72949.9,37017
72949.9,37017
72949.9,37017
72889,37042.3
72824.3,37055.1
72758.4,37055.1
72693.7,37042.3
72632.8,37017
72632.8,37017
72632.8,37017
72578,36980.4
72531.4,36933.8
72494.8,36879
72494.8,36879
72469.6,36818.1
72456.7,36753.4
72456.7,36687.5
72469.6,36622.9
72494.8,36562
72494.8,36562
72531.4,36507.1
72578,36460.5
72632.8,36423.9
72632.8,36423.9
72693.7,36398.7
72758.4,36385.8
72824.3,36385.8
Z" /> 
<path style="fill:#000000; fill-opacity:1.0; 
stroke:#000000; stroke-width:0; stroke-opacity:1; 
stroke-linecap:round; stroke-linejoin:round;fill-rule:evenodd;"
d="M 73889,36398.7
73949.9,36423.9
73949.9,36423.9
74004.7,36460.5
74051.3,36507.1
74087.9,36562
74087.9,36562
74113.1,36622.9
74126,36687.5
74126,36753.4
74113.1,36818.1
74087.9,36879
74087.9,36879
74051.3,36933.8
74004.7,36980.4
73949.9,37017
73949.9,37017
73949.9,37017
73889,37042.3
73824.3,37055.1
73758.4,37055.1
73693.7,37042.3
73632.8,37017
73632.8,37017
73632.8,37017
73578,36980.4
73531.4,36933.8
73494.8,36879
73494.8,36879
73469.6,36818.1
73456.7,36753.4
73456.7,36687.5
73469.6,36622.9
73494.8,36562
73494.8,36562
73531.4,36507.1
73578,36460.5
73632.8,36423.9
73632.8,36423.9
73693.7,36398.7
73758.4,36385.8
73824.3,36385.8
Z" /> 
<path style="fill:#000000; fill-opacity:1.0; 
stroke:#000000; stroke-width:0; stroke-opacity:1; 
stroke-linecap:round; stroke-linejoin:round;fill-rule:evenodd;"
d="M 72889,35398.7
72949.9,35423.9
72949.9,35423.9
73004.7,35460.5
73051.3,35507.1
73087.9,35562
73087.9,35562
73113.1,35622.9
73126,35687.5
73126,35753.4
73113.1,35818.1
73087.9,35879
73087.9,35879
73051.3,35933.8
73004.7,35980.4
72949.9,36017
72949.9,36017
72949.9,36017
72889,36042.3
72824.3,36055.1
72758.4,36055.1
72693.7,36042.3
72632.8,36017
72632.8,36017
72632.8,36017
72578,35980.4
72531.4,35933.8
72494.8,35879
72494.8,35879
72469.6,35818.1
72456.7,35753.4
72456.7,35687.5
72469.6,35622.9
72494.8,35562
72494.8,35562
72531.4,35507.1
72578,35460.5
72632.8,35423.9
72632.8,35423.9
72693.7,35398.7
72758.4,35385.8
72824.3,35385.8
Z" /> 
<path style="fill:#000000; fill-opacity:1.0; 
stroke:#000000; stroke-width:0; stroke-opacity:1; 
stroke-linecap:round; stroke-linejoin:round;fill-rule:evenodd;"
d="M 73889,35398.7
73949.9,35423.9
73949.9,35423.9
74004.7,35460.5
74051.3,35507.1
74087.9,35562
74087.9,35562
74113.1,35622.9
74126,35687.5
74126,35753.4
74113.1,35818.1
74087.9,35879
74087.9,35879
74051.3,35933.8
74004.7,35980.4
73949.9,36017
73949.9,36017
73949.9,36017
73889,36042.3
73824.3,36055.1
73758.4,36055.1
73693.7,36042.3
73632.8,36017
73632.8,36017
73632.8,36017
73578,35980.4
73531.4,35933.8
73494.8,35879
73494.8,35879
73469.6,35818.1
73456.7,35753.4
73456.7,35687.5
73469.6,35622.9
73494.8,35562
73494.8,35562
73531.4,35507.1
73578,35460.5
73632.8,35423.9
73632.8,35423.9
73693.7,35398.7
73758.4,35385.8
73824.3,35385.8
Z" /> 
<path style="fill:#000000; fill-opacity:1.0; 
stroke:#000000; stroke-width:0; stroke-opacity:1; 
stroke-linecap:round; stroke-linejoin:round;fill-rule:evenodd;"
d="M 49605.5,35614.6
48936.2,35614.6
48936.2,34945.3
49605.5,34945.3
Z" /> 
<path style="fill:#000000; fill-opacity:1.0; 
stroke:#000000; stroke-width:0; stroke-opacity:1; 
stroke-linecap:round; stroke-linejoin:round;fill-rule:evenodd;"
d="M 73889,34398.7
73949.9,34423.9
73949.9,34423.9
74004.7,34460.5
74051.3,34507.1
74073.1,34539.9
74087.9,34562
74113.1,34622.9
74126,34687.5
74126,34753.4
74113.1,34818.1
74087.9,34879
74087.9,34879
74051.3,34933.8
74004.7,34980.4
73949.9,35017
73949.9,35017
73949.9,35017
73889,35042.3
73824.3,35055.1
73758.4,35055.1
73693.7,35042.3
73632.8,35017
73632.8,35017
73632.8,35017
73578,34980.4
73531.4,34933.8
73494.8,34879
73494.8,34879
73469.6,34818.1
73456.7,34753.4
73456.7,34687.5
73469.6,34622.9
73494.8,34562
73509.5,34539.9
73531.4,34507.1
73578,34460.5
73632.8,34423.9
73632.8,34423.9
73693.7,34398.7
73758.4,34385.8
73824.3,34385.8
Z" /> 
<path style="fill:#000000; fill-opacity:1.0; 
stroke:#000000; stroke-width:0; stroke-opacity:1; 
stroke-linecap:round; stroke-linejoin:round;fill-rule:evenodd;"
d="M 72889,34398.7
72949.9,34423.9
72949.9,34423.9
73004.7,34460.5
73051.3,34507.1
73073.1,34539.9
73087.9,34562
73113.1,34622.9
73126,34687.5
73126,34753.4
73113.1,34818.1
73087.9,34879
73087.9,34879
73051.3,34933.8
73004.7,34980.4
72949.9,35017
72949.9,35017
72949.9,35017
72889,35042.3
72824.3,35055.1
72758.4,35055.1
72693.7,35042.3
72632.8,35017
72632.8,35017
72632.8,35017
72578,34980.4
72531.4,34933.8
72494.8,34879
72494.8,34879
72469.6,34818.1
72456.7,34753.4
72456.7,34687.5
72469.6,34622.9
72494.8,34562
72509.5,34539.9
72531.4,34507.1
72578,34460.5
72632.8,34423.9
72632.8,34423.9
72693.7,34398.7
72758.4,34385.8
72824.3,34385.8
Z" /> 
<path style="fill:#000000; fill-opacity:1.0; 
stroke:#000000; stroke-width:0; stroke-opacity:1; 
stroke-linecap:round; stroke-linejoin:round;fill-rule:evenodd;"
d="M 49368.5,33958.1
49422.2,33980.4
49429.4,33983.4
49484.2,34020
49530.8,34066.6
49567.4,34121.4
49567.4,34121.4
49592.7,34182.3
49605.5,34247
49605.5,34312.9
49592.7,34377.5
49589.2,34385.8
49567.4,34438.4
49530.8,34493.2
49484.2,34539.9
49429.4,34576.5
49429.4,34576.5
49429.4,34576.5
49368.5,34601.7
49303.8,34614.6
49237.9,34614.6
49173.3,34601.7
49112.4,34576.5
49112.4,34576.5
49112.4,34576.5
49057.5,34539.9
49010.9,34493.2
48974.3,34438.4
48952.5,34385.8
48949.1,34377.5
48936.2,34312.9
48936.2,34247
48949.1,34182.3
48974.3,34121.4
48974.3,34121.4
49010.9,34066.6
49057.5,34020
49112.4,33983.4
49119.5,33980.4
49173.3,33958.1
49237.9,33945.3
49303.8,33945.3
Z" /> 
<path style="fill:#000000; fill-opacity:1.0; 
stroke:#000000; stroke-width:0; stroke-opacity:1; 
stroke-linecap:round; stroke-linejoin:round;fill-rule:evenodd;"
d="M 72889,33398.7
72949.9,33423.9
72949.9,33423.9
73004.7,33460.5
73051.3,33507.1
73073.1,33539.9
73087.9,33562
73113.1,33622.9
73126,33687.5
73126,33753.4
73113.1,33818.1
73087.9,33879
73087.9,33879
73051.3,33933.8
73004.7,33980.4
72949.9,34017
72949.9,34017
72949.9,34017
72889,34042.3
72824.3,34055.1
72758.4,34055.1
72693.7,34042.3
72632.8,34017
72632.8,34017
72632.8,34017
72578,33980.4
72531.4,33933.8
72494.8,33879
72494.8,33879
72469.6,33818.1
72456.7,33753.4
72456.7,33687.5
72469.6,33622.9
72494.8,33562
72509.5,33539.9
72531.4,33507.1
72578,33460.5
72632.8,33423.9
72632.8,33423.9
72693.7,33398.7
72758.4,33385.8
72824.3,33385.8
Z" /> 
<path style="fill:#000000; fill-opacity:1.0; 
stroke:#000000; stroke-width:0; stroke-opacity:1; 
stroke-linecap:round; stroke-linejoin:round;fill-rule:evenodd;"
d="M 73889,33398.7
73949.9,33423.9
73949.9,33423.9
74004.7,33460.5
74051.3,33507.1
74073.1,33539.9
74087.9,33562
74113.1,33622.9
74126,33687.5
74126,33753.4
74113.1,33818.1
74087.9,33879
74087.9,33879
74051.3,33933.8
74004.7,33980.4
73949.9,34017
73949.9,34017
73949.9,34017
73889,34042.3
73824.3,34055.1
73758.4,34055.1
73693.7,34042.3
73632.8,34017
73632.8,34017
73632.8,34017
73578,33980.4
73531.4,33933.8
73494.8,33879
73494.8,33879
73469.6,33818.1
73456.7,33753.4
73456.7,33687.5
73469.6,33622.9
73494.8,33562
73509.5,33539.9
73531.4,33507.1
73578,33460.5
73632.8,33423.9
73632.8,33423.9
73693.7,33398.7
73758.4,33385.8
73824.3,33385.8
Z" /> 
<path style="fill:#000000; fill-opacity:1.0; 
stroke:#000000; stroke-width:0; stroke-opacity:1; 
stroke-linecap:round; stroke-linejoin:round;fill-rule:evenodd;"
d="M 49368.5,32958.1
49422.2,32980.4
49429.4,32983.4
49484.2,33020
49530.8,33066.6
49567.4,33121.4
49567.4,33121.4
49592.7,33182.3
49605.5,33247
49605.5,33312.9
49592.7,33377.5
49589.2,33385.8
49567.4,33438.4
49530.8,33493.2
49484.2,33539.9
49429.4,33576.5
49429.4,33576.5
49429.4,33576.5
49368.5,33601.7
49303.8,33614.6
49237.9,33614.6
49173.3,33601.7
49112.4,33576.5
49112.4,33576.5
49112.4,33576.5
49057.5,33539.9
49010.9,33493.2
48974.3,33438.4
48952.5,33385.8
48949.1,33377.5
48936.2,33312.9
48936.2,33247
48949.1,33182.3
48974.3,33121.4
48974.3,33121.4
49010.9,33066.6
49057.5,33020
49112.4,32983.4
49119.5,32980.4
49173.3,32958.1
49237.9,32945.3
49303.8,32945.3
Z" /> 
<path style="fill:#000000; fill-opacity:1.0; 
stroke:#000000; stroke-width:0; stroke-opacity:1; 
stroke-linecap:round; stroke-linejoin:round;fill-rule:evenodd;"
d="M 73889,32398.7
73949.9,32423.9
73949.9,32423.9
74004.7,32460.5
74051.3,32507.1
74073.1,32539.9
74087.9,32562
74113.1,32622.9
74126,32687.5
74126,32753.4
74113.1,32818.1
74087.9,32879
74087.9,32879
74051.3,32933.8
74004.7,32980.4
73949.9,33017
73949.9,33017
73949.9,33017
73889,33042.3
73824.3,33055.1
73758.4,33055.1
73693.7,33042.3
73632.8,33017
73632.8,33017
73632.8,33017
73578,32980.4
73531.4,32933.8
73494.8,32879
73494.8,32879
73469.6,32818.1
73456.7,32753.4
73456.7,32687.5
73469.6,32622.9
73494.8,32562
73509.5,32539.9
73531.4,32507.1
73578,32460.5
73632.8,32423.9
73632.8,32423.9
73693.7,32398.7
73758.4,32385.8
73824.3,32385.8
Z" /> 
<path style="fill:#000000; fill-opacity:1.0; 
stroke:#000000; stroke-width:0; stroke-opacity:1; 
stroke-linecap:round; stroke-linejoin:round;fill-rule:evenodd;"
d="M 72889,32398.7
72949.9,32423.9
72949.9,32423.9
73004.7,32460.5
73051.3,32507.1
73073.1,32539.9
73087.9,32562
73113.1,32622.9
73126,32687.5
73126,32753.4
73113.1,32818.1
73087.9,32879
73087.9,32879
73051.3,32933.8
73004.7,32980.4
72949.9,33017
72949.9,33017
72949.9,33017
72889,33042.3
72824.3,33055.1
72758.4,33055.1
72693.7,33042.3
72632.8,33017
72632.8,33017
72632.8,33017
72578,32980.4
72531.4,32933.8
72494.8,32879
72494.8,32879
72469.6,32818.1
72456.7,32753.4
72456.7,32687.5
72469.6,32622.9
72494.8,32562
72509.5,32539.9
72531.4,32507.1
72578,32460.5
72632.8,32423.9
72632.8,32423.9
72693.7,32398.7
72758.4,32385.8
72824.3,32385.8
Z" /> 
<path style="fill:#000000; fill-opacity:1.0; 
stroke:#000000; stroke-width:0; stroke-opacity:1; 
stroke-linecap:round; stroke-linejoin:round;fill-rule:evenodd;"
d="M 49368.5,31958.1
49422.2,31980.4
49429.4,31983.4
49484.2,32020
49530.8,32066.6
49567.4,32121.4
49567.4,32121.4
49592.7,32182.3
49605.5,32247
49605.5,32312.9
49592.7,32377.5
49589.2,32385.8
49567.4,32438.4
49530.8,32493.2
49484.2,32539.9
49429.4,32576.5
49429.4,32576.5
49429.4,32576.5
49368.5,32601.7
49303.8,32614.6
49237.9,32614.6
49173.3,32601.7
49112.4,32576.5
49112.4,32576.5
49112.4,32576.5
49057.5,32539.9
49010.9,32493.2
48974.3,32438.4
48952.5,32385.8
48949.1,32377.5
48936.2,32312.9
48936.2,32247
48949.1,32182.3
48974.3,32121.4
48974.3,32121.4
49010.9,32066.6
49057.5,32020
49112.4,31983.4
49119.5,31980.4
49173.3,31958.1
49237.9,31945.3
49303.8,31945.3
Z" /> 
<path style="fill:#000000; fill-opacity:1.0; 
stroke:#000000; stroke-width:0; stroke-opacity:1; 
stroke-linecap:round; stroke-linejoin:round;fill-rule:evenodd;"
d="M 72889,31398.7
72949.9,31423.9
72949.9,31423.9
73004.7,31460.5
73051.3,31507.1
73073.1,31539.9
73087.9,31562
73113.1,31622.9
73126,31687.5
73126,31753.4
73113.1,31818.1
73087.9,31879
73087.9,31879
73051.3,31933.8
73004.7,31980.4
72949.9,32017
72949.9,32017
72949.9,32017
72889,32042.3
72824.3,32055.1
72758.4,32055.1
72693.7,32042.3
72632.8,32017
72632.8,32017
72632.8,32017
72578,31980.4
72531.4,31933.8
72494.8,31879
72494.8,31879
72469.6,31818.1
72456.7,31753.4
72456.7,31687.5
72469.6,31622.9
72494.8,31562
72509.5,31539.9
72531.4,31507.1
72578,31460.5
72632.8,31423.9
72632.8,31423.9
72693.7,31398.7
72758.4,31385.8
72824.3,31385.8
Z" /> 
<path style="fill:#000000; fill-opacity:1.0; 
stroke:#000000; stroke-width:0; stroke-opacity:1; 
stroke-linecap:round; stroke-linejoin:round;fill-rule:evenodd;"
d="M 73889,31398.7
73949.9,31423.9
73949.9,31423.9
74004.7,31460.5
74051.3,31507.1
74073.1,31539.9
74087.9,31562
74113.1,31622.9
74126,31687.5
74126,31753.4
74113.1,31818.1
74087.9,31879
74087.9,31879
74051.3,31933.8
74004.7,31980.4
73949.9,32017
73949.9,32017
73949.9,32017
73889,32042.3
73824.3,32055.1
73758.4,32055.1
73693.7,32042.3
73632.8,32017
73632.8,32017
73632.8,32017
73578,31980.4
73531.4,31933.8
73494.8,31879
73494.8,31879
73469.6,31818.1
73456.7,31753.4
73456.7,31687.5
73469.6,31622.9
73494.8,31562
73509.5,31539.9
73531.4,31507.1
73578,31460.5
73632.8,31423.9
73632.8,31423.9
73693.7,31398.7
73758.4,31385.8
73824.3,31385.8
Z" /> 
<path style="fill:#000000; fill-opacity:1.0; 
stroke:#000000; stroke-width:0; stroke-opacity:1; 
stroke-linecap:round; stroke-linejoin:round;fill-rule:evenodd;"
d="M 49368.5,30958.1
49422.2,30980.4
49429.4,30983.4
49484.2,31020
49530.8,31066.6
49567.4,31121.4
49567.4,31121.4
49592.7,31182.3
49605.5,31247
49605.5,31312.9
49592.7,31377.5
49589.2,31385.8
49567.4,31438.4
49530.8,31493.2
49484.2,31539.9
49429.4,31576.5
49429.4,31576.5
49429.4,31576.5
49368.5,31601.7
49303.8,31614.6
49237.9,31614.6
49173.3,31601.7
49112.4,31576.5
49112.4,31576.5
49112.4,31576.5
49057.5,31539.9
49010.9,31493.2
48974.3,31438.4
48952.5,31385.8
48949.1,31377.5
48936.2,31312.9
48936.2,31247
48949.1,31182.3
48974.3,31121.4
48974.3,31121.4
49010.9,31066.6
49057.5,31020
49112.4,30983.4
49119.5,30980.4
49173.3,30958.1
49237.9,30945.3
49303.8,30945.3
Z" /> 
<path style="fill:#000000; fill-opacity:1.0; 
stroke:#000000; stroke-width:0; stroke-opacity:1; 
stroke-linecap:round; stroke-linejoin:round;fill-rule:evenodd;"
d="M 36870.1,31262.3
36122,31262.3
36122,30474.9
36870.1,30474.9
Z" /> 
<path style="fill:#000000; fill-opacity:1.0; 
stroke:#000000; stroke-width:0; stroke-opacity:1; 
stroke-linecap:round; stroke-linejoin:round;fill-rule:evenodd;"
d="M 38728.3,31082.7
38137.8,31082.7
38137.8,30492.1
38728.3,30492.1
Z" /> 
<path style="fill:#000000; fill-opacity:1.0; 
stroke:#000000; stroke-width:0; stroke-opacity:1; 
stroke-linecap:round; stroke-linejoin:round;fill-rule:evenodd;"
d="M 73889,30398.7
73949.9,30423.9
73949.9,30423.9
74004.7,30460.5
74051.3,30507.1
74073.1,30539.9
74087.9,30562
74113.1,30622.9
74126,30687.5
74126,30753.4
74113.1,30818.1
74087.9,30879
74087.9,30879
74051.3,30933.8
74004.7,30980.4
73949.9,31017
73949.9,31017
73949.9,31017
73889,31042.3
73824.3,31055.1
73758.4,31055.1
73693.7,31042.3
73632.8,31017
73632.8,31017
73632.8,31017
73578,30980.4
73531.4,30933.8
73494.8,30879
73494.8,30879
73469.6,30818.1
73456.7,30753.4
73456.7,30687.5
73469.6,30622.9
73494.8,30562
73509.5,30539.9
73531.4,30507.1
73578,30460.5
73632.8,30423.9
73632.8,30423.9
73693.7,30398.7
73758.4,30385.8
73824.3,30385.8
Z" /> 
<path style="fill:#000000; fill-opacity:1.0; 
stroke:#000000; stroke-width:0; stroke-opacity:1; 
stroke-linecap:round; stroke-linejoin:round;fill-rule:evenodd;"
d="M 72889,30398.7
72949.9,30423.9
72949.9,30423.9
73004.7,30460.5
73051.3,30507.1
73073.1,30539.9
73087.9,30562
73113.1,30622.9
73126,30687.5
73126,30753.4
73113.1,30818.1
73087.9,30879
73087.9,30879
73051.3,30933.8
73004.7,30980.4
72949.9,31017
72949.9,31017
72949.9,31017
72889,31042.3
72824.3,31055.1
72758.4,31055.1
72693.7,31042.3
72632.8,31017
72632.8,31017
72632.8,31017
72578,30980.4
72531.4,30933.8
72494.8,30879
72494.8,30879
72469.6,30818.1
72456.7,30753.4
72456.7,30687.5
72469.6,30622.9
72494.8,30562
72509.5,30539.9
72531.4,30507.1
72578,30460.5
72632.8,30423.9
72632.8,30423.9
72693.7,30398.7
72758.4,30385.8
72824.3,30385.8
Z" /> 
<path style="fill:#000000; fill-opacity:1.0; 
stroke:#000000; stroke-width:0; stroke-opacity:1; 
stroke-linecap:round; stroke-linejoin:round;fill-rule:evenodd;"
d="M 37923.2,30629.9
37431.1,30629.9
37431.1,30216.5
37923.2,30216.5
Z" /> 
<path style="fill:#000000; fill-opacity:1.0; 
stroke:#000000; stroke-width:0; stroke-opacity:1; 
stroke-linecap:round; stroke-linejoin:round;fill-rule:evenodd;"
d="M 49368.5,29958.1
49422.2,29980.4
49429.4,29983.4
49484.2,30020
49530.8,30066.6
49567.4,30121.4
49567.4,30121.4
49592.7,30182.3
49605.5,30247
49605.5,30312.9
49592.7,30377.5
49589.2,30385.8
49567.4,30438.4
49530.8,30493.2
49484.2,30539.9
49429.4,30576.5
49429.4,30576.5
49429.4,30576.5
49368.5,30601.7
49303.8,30614.6
49237.9,30614.6
49173.3,30601.7
49112.4,30576.5
49112.4,30576.5
49112.4,30576.5
49057.5,30539.9
49010.9,30493.2
48974.3,30438.4
48952.5,30385.8
48949.1,30377.5
48936.2,30312.9
48936.2,30247
48949.1,30182.3
48974.3,30121.4
48974.3,30121.4
49010.9,30066.6
49057.5,30020
49112.4,29983.4
49119.5,29980.4
49173.3,29958.1
49237.9,29945.3
49303.8,29945.3
Z" /> 
<path style="fill:#000000; fill-opacity:1.0; 
stroke:#000000; stroke-width:0; stroke-opacity:1; 
stroke-linecap:round; stroke-linejoin:round;fill-rule:evenodd;"
d="M 38720.5,30196.9
38129.9,30196.9
38129.9,29606.3
38720.5,29606.3
Z" /> 
<path style="fill:#000000; fill-opacity:1.0; 
stroke:#000000; stroke-width:0; stroke-opacity:1; 
stroke-linecap:round; stroke-linejoin:round;fill-rule:evenodd;"
d="M 73889,29398.7
73949.9,29423.9
73949.9,29423.9
74004.7,29460.5
74051.3,29507.1
74087.9,29562
74087.9,29562
74113.1,29622.9
74126,29687.5
74126,29753.4
74113.1,29818.1
74087.9,29879
74087.9,29879
74051.3,29933.8
74004.7,29980.4
73949.9,30017
73949.9,30017
73949.9,30017
73889,30042.3
73824.3,30055.1
73758.4,30055.1
73693.7,30042.3
73632.8,30017
73632.8,30017
73632.8,30017
73578,29980.4
73531.4,29933.8
73494.8,29879
73494.8,29879
73469.6,29818.1
73456.7,29753.4
73456.7,29687.5
73469.6,29622.9
73494.8,29562
73494.8,29562
73531.4,29507.1
73578,29460.5
73632.8,29423.9
73632.8,29423.9
73693.7,29398.7
73758.4,29385.8
73824.3,29385.8
Z" /> 
<path style="fill:#000000; fill-opacity:1.0; 
stroke:#000000; stroke-width:0; stroke-opacity:1; 
stroke-linecap:round; stroke-linejoin:round;fill-rule:evenodd;"
d="M 72889,29398.7
72949.9,29423.9
72949.9,29423.9
73004.7,29460.5
73051.3,29507.1
73087.9,29562
73087.9,29562
73113.1,29622.9
73126,29687.5
73126,29753.4
73113.1,29818.1
73087.9,29879
73087.9,29879
73051.3,29933.8
73004.7,29980.4
72949.9,30017
72949.9,30017
72949.9,30017
72889,30042.3
72824.3,30055.1
72758.4,30055.1
72693.7,30042.3
72632.8,30017
72632.8,30017
72632.8,30017
72578,29980.4
72531.4,29933.8
72494.8,29879
72494.8,29879
72469.6,29818.1
72456.7,29753.4
72456.7,29687.5
72469.6,29622.9
72494.8,29562
72494.8,29562
72531.4,29507.1
72578,29460.5
72632.8,29423.9
72632.8,29423.9
72693.7,29398.7
72758.4,29385.8
72824.3,29385.8
Z" /> 
<path style="fill:#000000; fill-opacity:1.0; 
stroke:#000000; stroke-width:0; stroke-opacity:1; 
stroke-linecap:round; stroke-linejoin:round;fill-rule:evenodd;"
d="M 38720.5,29330.7
38129.9,29330.7
38129.9,28740.2
38720.5,28740.2
Z" /> 
<path style="fill:#000000; fill-opacity:1.0; 
stroke:#000000; stroke-width:0; stroke-opacity:1; 
stroke-linecap:round; stroke-linejoin:round;fill-rule:evenodd;"
d="M 73889,28398.7
73949.9,28423.9
73949.9,28423.9
74004.7,28460.5
74051.3,28507.1
74087.9,28562
74087.9,28562
74113.1,28622.9
74126,28687.5
74126,28753.4
74113.1,28818.1
74087.9,28879
74087.9,28879
74051.3,28933.8
74004.7,28980.4
73949.9,29017
73949.9,29017
73949.9,29017
73889,29042.3
73824.3,29055.1
73758.4,29055.1
73693.7,29042.3
73632.8,29017
73632.8,29017
73632.8,29017
73578,28980.4
73531.4,28933.8
73494.8,28879
73494.8,28879
73469.6,28818.1
73456.7,28753.4
73456.7,28687.5
73469.6,28622.9
73494.8,28562
73494.8,28562
73531.4,28507.1
73578,28460.5
73632.8,28423.9
73632.8,28423.9
73693.7,28398.7
73758.4,28385.8
73824.3,28385.8
Z" /> 
<path style="fill:#000000; fill-opacity:1.0; 
stroke:#000000; stroke-width:0; stroke-opacity:1; 
stroke-linecap:round; stroke-linejoin:round;fill-rule:evenodd;"
d="M 72889,28398.7
72949.9,28423.9
72949.9,28423.9
73004.7,28460.5
73051.3,28507.1
73087.9,28562
73087.9,28562
73113.1,28622.9
73126,28687.5
73126,28753.4
73113.1,28818.1
73087.9,28879
73087.9,28879
73051.3,28933.8
73004.7,28980.4
72949.9,29017
72949.9,29017
72949.9,29017
72889,29042.3
72824.3,29055.1
72758.4,29055.1
72693.7,29042.3
72632.8,29017
72632.8,29017
72632.8,29017
72578,28980.4
72531.4,28933.8
72494.8,28879
72494.8,28879
72469.6,28818.1
72456.7,28753.4
72456.7,28687.5
72469.6,28622.9
72494.8,28562
72494.8,28562
72531.4,28507.1
72578,28460.5
72632.8,28423.9
72632.8,28423.9
72693.7,28398.7
72758.4,28385.8
72824.3,28385.8
Z" /> 
<path style="fill:#000000; fill-opacity:1.0; 
stroke:#000000; stroke-width:0; stroke-opacity:1; 
stroke-linecap:round; stroke-linejoin:round;fill-rule:evenodd;"
d="M 37923.2,28720.5
37431.1,28720.5
37431.1,28307.1
37923.2,28307.1
Z" /> 
<path style="fill:#000000; fill-opacity:1.0; 
stroke:#000000; stroke-width:0; stroke-opacity:1; 
stroke-linecap:round; stroke-linejoin:round;fill-rule:evenodd;"
d="M 38724.4,28464.6
38133.9,28464.6
38133.9,27874
38724.4,27874
Z" /> 
<path style="fill:#000000; fill-opacity:1.0; 
stroke:#000000; stroke-width:0; stroke-opacity:1; 
stroke-linecap:round; stroke-linejoin:round;fill-rule:evenodd;"
d="M 36870.1,28462.1
36122,28462.1
36122,27674.7
36870.1,27674.7
Z" /> 
<path style="fill:#000000; fill-opacity:1.0; 
stroke:#000000; stroke-width:0; stroke-opacity:1; 
stroke-linecap:round; stroke-linejoin:round;fill-rule:evenodd;"
d="M 73126,28055.1
72456.7,28055.1
72456.7,27385.8
73126,27385.8
Z" /> 
<path style="fill:#000000; fill-opacity:1.0; 
stroke:#000000; stroke-width:0; stroke-opacity:1; 
stroke-linecap:round; stroke-linejoin:round;fill-rule:evenodd;"
d="M 73889,27398.7
73949.9,27423.9
73949.9,27423.9
74004.7,27460.5
74051.3,27507.1
74087.9,27562
74087.9,27562
74113.1,27622.9
74126,27687.5
74126,27753.4
74113.1,27818.1
74090,27874
74087.9,27879
74051.3,27933.8
74004.7,27980.4
73949.9,28017
73949.9,28017
73949.9,28017
73889,28042.3
73824.3,28055.1
73758.4,28055.1
73693.7,28042.3
73632.8,28017
73632.8,28017
73632.8,28017
73578,27980.4
73531.4,27933.8
73494.8,27879
73492.7,27874
73469.6,27818.1
73456.7,27753.4
73456.7,27687.5
73469.6,27622.9
73494.8,27562
73494.8,27562
73531.4,27507.1
73578,27460.5
73632.8,27423.9
73632.8,27423.9
73693.7,27398.7
73758.4,27385.8
73824.3,27385.8
Z" /> 
<path style="fill:#000000; fill-opacity:1.0; 
stroke:#000000; stroke-width:0; stroke-opacity:1; 
stroke-linecap:round; stroke-linejoin:round;fill-rule:evenodd;"
d="M 40572.8,27730.3
40072.8,27730.3
40072.8,27348.4
40572.8,27348.4
Z" /> 
<path style="fill:#000000; fill-opacity:1.0; 
stroke:#000000; stroke-width:0; stroke-opacity:1; 
stroke-linecap:round; stroke-linejoin:round;fill-rule:evenodd;"
d="M 40572.8,27226.4
40072.8,27226.4
40072.8,26844.5
40572.8,26844.5
Z" /> 
<path style="fill:#000000; fill-opacity:1.0; 
stroke:#000000; stroke-width:0; stroke-opacity:1; 
stroke-linecap:round; stroke-linejoin:round;fill-rule:evenodd;"
d="M 71510.3,23635.4
71616.8,23656.5
71699.9,23691
71817.4,23739.6
71817.4,23739.6
71998,23860.3
72151.5,24013.8
72232.1,24134.5
72272.2,24194.4
72320.9,24311.9
72355.3,24395
72365.2,24444.8
72397.6,24608
72397.6,24825.1
72379.2,24918
72355.3,25038.1
72320.9,25121.2
72272.2,25238.7
72272.2,25238.7
72151.5,25419.3
71998,25572.8
71877.4,25653.4
71817.4,25693.4
71699.9,25742.1
71616.8,25776.5
71510.3,25797.7
71403.8,25818.9
71186.7,25818.9
71080.2,25797.7
70973.7,25776.5
70890.6,25742.1
70773.1,25693.4
70713.2,25653.4
70592.6,25572.8
70439,25419.3
70318.4,25238.7
70318.4,25238.7
70269.7,25121.2
70235.3,25038.1
70211.4,24918
70192.9,24825.1
70192.9,24608
70225.4,24444.8
70235.3,24395
70269.7,24311.9
70318.4,24194.4
70358.4,24134.5
70439,24013.8
70592.6,23860.3
70773.1,23739.6
70773.1,23739.6
70890.6,23691
70973.7,23656.5
71080.2,23635.4
71186.7,23614.2
71403.8,23614.2
Z" /> 
<path style="fill:#000000; fill-opacity:1.0; 
stroke:#000000; stroke-width:0; stroke-opacity:1; 
stroke-linecap:round; stroke-linejoin:round;fill-rule:evenodd;"
d="M 41919.7,23614.2
42112.9,23652.6
42196,23687
42313.5,23735.7
42373.4,23775.7
42494.1,23856.3
42647.6,24009.9
42650.2,24013.8
42768.2,24190.4
42769.9,24194.4
42851.3,24391.1
42893.7,24604
42893.7,24821.2
42851.3,25034.1
42849.2,25039.4
42768.2,25234.8
42728.2,25294.7
42647.6,25415.3
42494.1,25568.9
42373.4,25649.5
42313.5,25689.5
42196,25738.2
42112.9,25772.6
42093.1,25776.5
41899.9,25815
41682.8,25815
41489.6,25776.5
41469.8,25772.6
41386.7,25738.2
41269.2,25689.5
41209.3,25649.5
41088.6,25568.9
40935.1,25415.3
40854.5,25294.7
40814.4,25234.8
40733.5,25039.4
40731.3,25034.1
40689,24821.2
40689,24604
40731.3,24391.1
40812.8,24194.4
40814.4,24190.4
40932.4,24013.8
40935.1,24009.9
41088.6,23856.3
41209.3,23775.7
41269.2,23735.7
41386.7,23687
41469.8,23652.6
41663,23614.2
41682.8,23610.2
41899.9,23610.2
Z" /> 
<path style="fill:#000000; fill-opacity:1.0; 
stroke:#000000; stroke-width:0; stroke-opacity:1; 
stroke-linecap:round; stroke-linejoin:round;fill-rule:evenodd;"
d="M 68874,25039.4
68204.7,25039.4
68204.7,24370.1
68874,24370.1
Z" /> 
<path style="fill:#000000; fill-opacity:1.0; 
stroke:#000000; stroke-width:0; stroke-opacity:1; 
stroke-linecap:round; stroke-linejoin:round;fill-rule:evenodd;"
d="M 67637,24382.9
67697.9,24408.2
67697.9,24408.2
67752.7,24444.8
67799.3,24491.4
67835.9,24546.2
67835.9,24546.2
67861.2,24607.1
67874,24671.8
67874,24737.7
67861.2,24802.3
67835.9,24863.2
67835.9,24863.2
67799.3,24918
67752.7,24964.7
67697.9,25001.3
67697.9,25001.3
67697.9,25001.3
67637,25026.5
67572.3,25039.4
67506.4,25039.4
67441.8,25026.5
67380.9,25001.3
67380.9,25001.3
67380.9,25001.3
67326,24964.7
67279.4,24918
67242.8,24863.2
67242.8,24863.2
67217.6,24802.3
67204.7,24737.7
67204.7,24671.8
67217.6,24607.1
67242.8,24546.2
67242.8,24546.2
67279.4,24491.4
67326,24444.8
67380.9,24408.2
67380.9,24408.2
67441.8,24382.9
67506.4,24370.1
67572.3,24370.1
Z" /> 
<path style="fill:#000000; fill-opacity:1.0; 
stroke:#000000; stroke-width:0; stroke-opacity:1; 
stroke-linecap:round; stroke-linejoin:round;fill-rule:evenodd;"
d="M 66637,24382.9
66697.9,24408.2
66697.9,24408.2
66752.7,24444.8
66799.3,24491.4
66835.9,24546.2
66835.9,24546.2
66861.2,24607.1
66874,24671.8
66874,24737.7
66861.2,24802.3
66835.9,24863.2
66835.9,24863.2
66799.3,24918
66752.7,24964.7
66697.9,25001.3
66697.9,25001.3
66697.9,25001.3
66637,25026.5
66572.3,25039.4
66506.4,25039.4
66441.8,25026.5
66380.9,25001.3
66380.9,25001.3
66380.9,25001.3
66326,24964.7
66279.4,24918
66242.8,24863.2
66242.8,24863.2
66217.6,24802.3
66204.7,24737.7
66204.7,24671.8
66217.6,24607.1
66242.8,24546.2
66242.8,24546.2
66279.4,24491.4
66326,24444.8
66380.9,24408.2
66380.9,24408.2
66441.8,24382.9
66506.4,24370.1
66572.3,24370.1
Z" /> 
<path style="fill:#000000; fill-opacity:1.0; 
stroke:#000000; stroke-width:0; stroke-opacity:1; 
stroke-linecap:round; stroke-linejoin:round;fill-rule:evenodd;"
d="M 65637,24382.9
65697.9,24408.2
65697.9,24408.2
65752.7,24444.8
65799.3,24491.4
65835.9,24546.2
65835.9,24546.2
65861.2,24607.1
65874,24671.8
65874,24737.7
65861.2,24802.3
65835.9,24863.2
65835.9,24863.2
65799.3,24918
65752.7,24964.7
65697.9,25001.3
65697.9,25001.3
65697.9,25001.3
65637,25026.5
65572.3,25039.4
65506.4,25039.4
65441.8,25026.5
65380.9,25001.3
65380.9,25001.3
65380.9,25001.3
65326,24964.7
65279.4,24918
65242.8,24863.2
65242.8,24863.2
65217.6,24802.3
65204.7,24737.7
65204.7,24671.8
65217.6,24607.1
65242.8,24546.2
65242.8,24546.2
65279.4,24491.4
65326,24444.8
65380.9,24408.2
65380.9,24408.2
65441.8,24382.9
65506.4,24370.1
65572.3,24370.1
Z" /> 
<path style="fill:#000000; fill-opacity:1.0; 
stroke:#000000; stroke-width:0; stroke-opacity:1; 
stroke-linecap:round; stroke-linejoin:round;fill-rule:evenodd;"
d="M 64637,24382.9
64697.9,24408.2
64697.9,24408.2
64752.7,24444.8
64799.3,24491.4
64835.9,24546.2
64835.9,24546.2
64861.2,24607.1
64874,24671.8
64874,24737.7
64861.2,24802.3
64835.9,24863.2
64835.9,24863.2
64799.3,24918
64752.7,24964.7
64697.9,25001.3
64697.9,25001.3
64697.9,25001.3
64637,25026.5
64572.3,25039.4
64506.4,25039.4
64441.8,25026.5
64380.9,25001.3
64380.9,25001.3
64380.9,25001.3
64326,24964.7
64279.4,24918
64242.8,24863.2
64242.8,24863.2
64217.6,24802.3
64204.7,24737.7
64204.7,24671.8
64217.6,24607.1
64242.8,24546.2
64242.8,24546.2
64279.4,24491.4
64326,24444.8
64380.9,24408.2
64380.9,24408.2
64441.8,24382.9
64506.4,24370.1
64572.3,24370.1
Z" /> 
<path style="fill:#000000; fill-opacity:1.0; 
stroke:#000000; stroke-width:0; stroke-opacity:1; 
stroke-linecap:round; stroke-linejoin:round;fill-rule:evenodd;"
d="M 63637,24382.9
63697.9,24408.2
63697.9,24408.2
63752.7,24444.8
63799.3,24491.4
63835.9,24546.2
63835.9,24546.2
63861.2,24607.1
63874,24671.8
63874,24737.7
63861.2,24802.3
63835.9,24863.2
63835.9,24863.2
63799.3,24918
63752.7,24964.7
63697.9,25001.3
63697.9,25001.3
63697.9,25001.3
63637,25026.5
63572.3,25039.4
63506.4,25039.4
63441.8,25026.5
63380.9,25001.3
63380.9,25001.3
63380.9,25001.3
63326,24964.7
63279.4,24918
63242.8,24863.2
63242.8,24863.2
63217.6,24802.3
63204.7,24737.7
63204.7,24671.8
63217.6,24607.1
63242.8,24546.2
63242.8,24546.2
63279.4,24491.4
63326,24444.8
63380.9,24408.2
63380.9,24408.2
63441.8,24382.9
63506.4,24370.1
63572.3,24370.1
Z" /> 
<path style="fill:#000000; fill-opacity:1.0; 
stroke:#000000; stroke-width:0; stroke-opacity:1; 
stroke-linecap:round; stroke-linejoin:round;fill-rule:evenodd;"
d="M 62637,24382.9
62697.9,24408.2
62697.9,24408.2
62752.7,24444.8
62799.3,24491.4
62835.9,24546.2
62835.9,24546.2
62861.2,24607.1
62874,24671.8
62874,24737.7
62861.2,24802.3
62835.9,24863.2
62835.9,24863.2
62799.3,24918
62752.7,24964.7
62697.9,25001.3
62697.9,25001.3
62697.9,25001.3
62637,25026.5
62572.3,25039.4
62506.4,25039.4
62441.8,25026.5
62380.9,25001.3
62380.9,25001.3
62380.9,25001.3
62326,24964.7
62279.4,24918
62242.8,24863.2
62242.8,24863.2
62217.6,24802.3
62204.7,24737.7
62204.7,24671.8
62217.6,24607.1
62242.8,24546.2
62242.8,24546.2
62279.4,24491.4
62326,24444.8
62380.9,24408.2
62380.9,24408.2
62441.8,24382.9
62506.4,24370.1
62572.3,24370.1
Z" /> 
<path style="fill:#000000; fill-opacity:1.0; 
stroke:#000000; stroke-width:0; stroke-opacity:1; 
stroke-linecap:round; stroke-linejoin:round;fill-rule:evenodd;"
d="M 61637,24382.9
61697.9,24408.2
61697.9,24408.2
61752.7,24444.8
61799.3,24491.4
61835.9,24546.2
61835.9,24546.2
61861.2,24607.1
61874,24671.8
61874,24737.7
61861.2,24802.3
61835.9,24863.2
61835.9,24863.2
61799.3,24918
61752.7,24964.7
61697.9,25001.3
61697.9,25001.3
61697.9,25001.3
61637,25026.5
61572.3,25039.4
61506.4,25039.4
61441.8,25026.5
61380.9,25001.3
61380.9,25001.3
61380.9,25001.3
61326,24964.7
61279.4,24918
61242.8,24863.2
61242.8,24863.2
61217.6,24802.3
61204.7,24737.7
61204.7,24671.8
61217.6,24607.1
61242.8,24546.2
61242.8,24546.2
61279.4,24491.4
61326,24444.8
61380.9,24408.2
61380.9,24408.2
61441.8,24382.9
61506.4,24370.1
61572.3,24370.1
Z" /> 
<path style="fill:#000000; fill-opacity:1.0; 
stroke:#000000; stroke-width:0; stroke-opacity:1; 
stroke-linecap:round; stroke-linejoin:round;fill-rule:evenodd;"
d="M 52841.7,24382.9
52902.6,24408.2
52902.6,24408.2
52957.4,24444.8
53004,24491.4
53040.7,24546.2
53040.7,24546.2
53065.9,24607.1
53078.7,24671.8
53078.7,24737.7
53065.9,24802.3
53040.7,24863.2
53040.7,24863.2
53004,24918
52957.4,24964.7
52902.6,25001.3
52902.6,25001.3
52902.6,25001.3
52841.7,25026.5
52777.1,25039.4
52711.1,25039.4
52646.5,25026.5
52585.6,25001.3
52585.6,25001.3
52585.6,25001.3
52530.8,24964.7
52484.2,24918
52447.5,24863.2
52447.5,24863.2
52422.3,24802.3
52409.4,24737.7
52409.4,24671.8
52422.3,24607.1
52447.5,24546.2
52447.5,24546.2
52484.2,24491.4
52530.8,24444.8
52585.6,24408.2
52585.6,24408.2
52646.5,24382.9
52711.1,24370.1
52777.1,24370.1
Z" /> 
<path style="fill:#000000; fill-opacity:1.0; 
stroke:#000000; stroke-width:0; stroke-opacity:1; 
stroke-linecap:round; stroke-linejoin:round;fill-rule:evenodd;"
d="M 54841.7,24382.9
54902.6,24408.2
54902.6,24408.2
54957.4,24444.8
55004,24491.4
55040.7,24546.2
55040.7,24546.2
55065.9,24607.1
55078.7,24671.8
55078.7,24737.7
55065.9,24802.3
55040.7,24863.2
55040.7,24863.2
55004,24918
54957.4,24964.7
54902.6,25001.3
54902.6,25001.3
54902.6,25001.3
54841.7,25026.5
54777.1,25039.4
54711.1,25039.4
54646.5,25026.5
54585.6,25001.3
54585.6,25001.3
54585.6,25001.3
54530.8,24964.7
54484.2,24918
54447.5,24863.2
54447.5,24863.2
54422.3,24802.3
54409.4,24737.7
54409.4,24671.8
54422.3,24607.1
54447.5,24546.2
54447.5,24546.2
54484.2,24491.4
54530.8,24444.8
54585.6,24408.2
54585.6,24408.2
54646.5,24382.9
54711.1,24370.1
54777.1,24370.1
Z" /> 
<path style="fill:#000000; fill-opacity:1.0; 
stroke:#000000; stroke-width:0; stroke-opacity:1; 
stroke-linecap:round; stroke-linejoin:round;fill-rule:evenodd;"
d="M 56968.5,25039.4
56299.2,25039.4
56299.2,24370.1
56968.5,24370.1
Z" /> 
<path style="fill:#000000; fill-opacity:1.0; 
stroke:#000000; stroke-width:0; stroke-opacity:1; 
stroke-linecap:round; stroke-linejoin:round;fill-rule:evenodd;"
d="M 57731.5,24382.9
57792.4,24408.2
57792.4,24408.2
57847.2,24444.8
57893.8,24491.4
57930.4,24546.2
57930.4,24546.2
57955.6,24607.1
57968.5,24671.8
57968.5,24737.7
57955.6,24802.3
57930.4,24863.2
57930.4,24863.2
57893.8,24918
57847.2,24964.7
57792.4,25001.3
57792.4,25001.3
57792.4,25001.3
57731.5,25026.5
57666.8,25039.4
57600.9,25039.4
57536.2,25026.5
57475.3,25001.3
57475.3,25001.3
57475.3,25001.3
57420.5,24964.7
57373.9,24918
57337.3,24863.2
57337.3,24863.2
57312.1,24802.3
57299.2,24737.7
57299.2,24671.8
57312.1,24607.1
57337.3,24546.2
57337.3,24546.2
57373.9,24491.4
57420.5,24444.8
57475.3,24408.2
57475.3,24408.2
57536.2,24382.9
57600.9,24370.1
57666.8,24370.1
Z" /> 
<path style="fill:#000000; fill-opacity:1.0; 
stroke:#000000; stroke-width:0; stroke-opacity:1; 
stroke-linecap:round; stroke-linejoin:round;fill-rule:evenodd;"
d="M 58731.5,24382.9
58792.4,24408.2
58792.4,24408.2
58847.2,24444.8
58893.8,24491.4
58930.4,24546.2
58930.4,24546.2
58955.6,24607.1
58968.5,24671.8
58968.5,24737.7
58955.6,24802.3
58930.4,24863.2
58930.4,24863.2
58893.8,24918
58847.2,24964.7
58792.4,25001.3
58792.4,25001.3
58792.4,25001.3
58731.5,25026.5
58666.8,25039.4
58600.9,25039.4
58536.2,25026.5
58475.3,25001.3
58475.3,25001.3
58475.3,25001.3
58420.5,24964.7
58373.9,24918
58337.3,24863.2
58337.3,24863.2
58312.1,24802.3
58299.2,24737.7
58299.2,24671.8
58312.1,24607.1
58337.3,24546.2
58337.3,24546.2
58373.9,24491.4
58420.5,24444.8
58475.3,24408.2
58475.3,24408.2
58536.2,24382.9
58600.9,24370.1
58666.8,24370.1
Z" /> 
<path style="fill:#000000; fill-opacity:1.0; 
stroke:#000000; stroke-width:0; stroke-opacity:1; 
stroke-linecap:round; stroke-linejoin:round;fill-rule:evenodd;"
d="M 59731.5,24382.9
59792.4,24408.2
59792.4,24408.2
59847.2,24444.8
59893.8,24491.4
59930.4,24546.2
59930.4,24546.2
59955.6,24607.1
59968.5,24671.8
59968.5,24737.7
59955.6,24802.3
59930.4,24863.2
59930.4,24863.2
59893.8,24918
59847.2,24964.7
59792.4,25001.3
59792.4,25001.3
59792.4,25001.3
59731.5,25026.5
59666.8,25039.4
59600.9,25039.4
59536.2,25026.5
59475.3,25001.3
59475.3,25001.3
59475.3,25001.3
59420.5,24964.7
59373.9,24918
59337.3,24863.2
59337.3,24863.2
59312.1,24802.3
59299.2,24737.7
59299.2,24671.8
59312.1,24607.1
59337.3,24546.2
59337.3,24546.2
59373.9,24491.4
59420.5,24444.8
59475.3,24408.2
59475.3,24408.2
59536.2,24382.9
59600.9,24370.1
59666.8,24370.1
Z" /> 
<path style="fill:#000000; fill-opacity:1.0; 
stroke:#000000; stroke-width:0; stroke-opacity:1; 
stroke-linecap:round; stroke-linejoin:round;fill-rule:evenodd;"
d="M 52078.7,25039.4
51409.4,25039.4
51409.4,24370.1
52078.7,24370.1
Z" /> 
<path style="fill:#000000; fill-opacity:1.0; 
stroke:#000000; stroke-width:0; stroke-opacity:1; 
stroke-linecap:round; stroke-linejoin:round;fill-rule:evenodd;"
d="M 46951.9,24382.9
47012.8,24408.2
47012.8,24408.2
47067.7,24444.8
47114.3,24491.4
47150.9,24546.2
47150.9,24546.2
47176.1,24607.1
47189,24671.8
47189,24737.7
47176.1,24802.3
47150.9,24863.2
47150.9,24863.2
47114.3,24918
47067.7,24964.7
47012.8,25001.3
47012.8,25001.3
47012.8,25001.3
46951.9,25026.5
46887.3,25039.4
46821.4,25039.4
46756.7,25026.5
46695.8,25001.3
46695.8,25001.3
46695.8,25001.3
46641,24964.7
46594.4,24918
46557.8,24863.2
46557.8,24863.2
46532.5,24802.3
46519.7,24737.7
46519.7,24671.8
46532.5,24607.1
46557.8,24546.2
46557.8,24546.2
46594.4,24491.4
46641,24444.8
46695.8,24408.2
46695.8,24408.2
46756.7,24382.9
46821.4,24370.1
46887.3,24370.1
Z" /> 
<path style="fill:#000000; fill-opacity:1.0; 
stroke:#000000; stroke-width:0; stroke-opacity:1; 
stroke-linecap:round; stroke-linejoin:round;fill-rule:evenodd;"
d="M 45951.9,24382.9
46012.8,24408.2
46012.8,24408.2
46067.7,24444.8
46114.3,24491.4
46150.9,24546.2
46150.9,24546.2
46176.1,24607.1
46189,24671.8
46189,24737.7
46176.1,24802.3
46150.9,24863.2
46150.9,24863.2
46114.3,24918
46067.7,24964.7
46012.8,25001.3
46012.8,25001.3
46012.8,25001.3
45951.9,25026.5
45887.3,25039.4
45821.4,25039.4
45756.7,25026.5
45695.8,25001.3
45695.8,25001.3
45695.8,25001.3
45641,24964.7
45594.4,24918
45557.8,24863.2
45557.8,24863.2
45532.5,24802.3
45519.7,24737.7
45519.7,24671.8
45532.5,24607.1
45557.8,24546.2
45557.8,24546.2
45594.4,24491.4
45641,24444.8
45695.8,24408.2
45695.8,24408.2
45756.7,24382.9
45821.4,24370.1
45887.3,24370.1
Z" /> 
<path style="fill:#000000; fill-opacity:1.0; 
stroke:#000000; stroke-width:0; stroke-opacity:1; 
stroke-linecap:round; stroke-linejoin:round;fill-rule:evenodd;"
d="M 44951.9,24382.9
45012.8,24408.2
45012.8,24408.2
45067.7,24444.8
45114.3,24491.4
45150.9,24546.2
45150.9,24546.2
45176.1,24607.1
45189,24671.8
45189,24737.7
45176.1,24802.3
45150.9,24863.2
45150.9,24863.2
45114.3,24918
45067.7,24964.7
45012.8,25001.3
45012.8,25001.3
45012.8,25001.3
44951.9,25026.5
44887.3,25039.4
44821.4,25039.4
44756.7,25026.5
44695.8,25001.3
44695.8,25001.3
44695.8,25001.3
44641,24964.7
44594.4,24918
44557.8,24863.2
44557.8,24863.2
44532.5,24802.3
44519.7,24737.7
44519.7,24671.8
44532.5,24607.1
44557.8,24546.2
44557.8,24546.2
44594.4,24491.4
44641,24444.8
44695.8,24408.2
44695.8,24408.2
44756.7,24382.9
44821.4,24370.1
44887.3,24370.1
Z" /> 
<path style="fill:#000000; fill-opacity:1.0; 
stroke:#000000; stroke-width:0; stroke-opacity:1; 
stroke-linecap:round; stroke-linejoin:round;fill-rule:evenodd;"
d="M 48951.9,24382.9
49012.8,24408.2
49012.8,24408.2
49067.7,24444.8
49114.3,24491.4
49150.9,24546.2
49150.9,24546.2
49176.1,24607.1
49189,24671.8
49189,24737.7
49176.1,24802.3
49150.9,24863.2
49150.9,24863.2
49114.3,24918
49067.7,24964.7
49012.8,25001.3
49012.8,25001.3
49012.8,25001.3
48951.9,25026.5
48887.3,25039.4
48821.4,25039.4
48756.7,25026.5
48695.8,25001.3
48695.8,25001.3
48695.8,25001.3
48641,24964.7
48594.4,24918
48557.8,24863.2
48557.8,24863.2
48532.5,24802.3
48519.7,24737.7
48519.7,24671.8
48532.5,24607.1
48557.8,24546.2
48557.8,24546.2
48594.4,24491.4
48641,24444.8
48695.8,24408.2
48695.8,24408.2
48756.7,24382.9
48821.4,24370.1
48887.3,24370.1
Z" /> 
<path style="fill:#000000; fill-opacity:1.0; 
stroke:#000000; stroke-width:0; stroke-opacity:1; 
stroke-linecap:round; stroke-linejoin:round;fill-rule:evenodd;"
d="M 50189,25039.4
49519.7,25039.4
49519.7,24370.1
50189,24370.1
Z" /> 
<path style="fill:#000000; fill-opacity:1.0; 
stroke:#000000; stroke-width:0; stroke-opacity:1; 
stroke-linecap:round; stroke-linejoin:round;fill-rule:evenodd;"
d="M 47951.9,24382.9
48012.8,24408.2
48012.8,24408.2
48067.7,24444.8
48114.3,24491.4
48150.9,24546.2
48150.9,24546.2
48176.1,24607.1
48189,24671.8
48189,24737.7
48176.1,24802.3
48150.9,24863.2
48150.9,24863.2
48114.3,24918
48067.7,24964.7
48012.8,25001.3
48012.8,25001.3
48012.8,25001.3
47951.9,25026.5
47887.3,25039.4
47821.4,25039.4
47756.7,25026.5
47695.8,25001.3
47695.8,25001.3
47695.8,25001.3
47641,24964.7
47594.4,24918
47557.8,24863.2
47557.8,24863.2
47532.5,24802.3
47519.7,24737.7
47519.7,24671.8
47532.5,24607.1
47557.8,24546.2
47557.8,24546.2
47594.4,24491.4
47641,24444.8
47695.8,24408.2
47695.8,24408.2
47756.7,24382.9
47821.4,24370.1
47887.3,24370.1
Z" /> 
<path style="fill:#000000; fill-opacity:1.0; 
stroke:#000000; stroke-width:0; stroke-opacity:1; 
stroke-linecap:round; stroke-linejoin:round;fill-rule:evenodd;"
d="M 53841.7,24382.9
53902.6,24408.2
53902.6,24408.2
53957.4,24444.8
54004,24491.4
54040.7,24546.2
54040.7,24546.2
54065.9,24607.1
54078.7,24671.8
54078.7,24737.7
54065.9,24802.3
54040.7,24863.2
54040.7,24863.2
54004,24918
53957.4,24964.7
53902.6,25001.3
53902.6,25001.3
53902.6,25001.3
53841.7,25026.5
53777.1,25039.4
53711.1,25039.4
53646.5,25026.5
53585.6,25001.3
53585.6,25001.3
53585.6,25001.3
53530.8,24964.7
53484.2,24918
53447.5,24863.2
53447.5,24863.2
53422.3,24802.3
53409.4,24737.7
53409.4,24671.8
53422.3,24607.1
53447.5,24546.2
53447.5,24546.2
53484.2,24491.4
53530.8,24444.8
53585.6,24408.2
53585.6,24408.2
53646.5,24382.9
53711.1,24370.1
53777.1,24370.1
Z" /> 
</g> 
</svg>
