<?xml version="1.0" standalone="no"?>
 <!DOCTYPE svg PUBLIC "-//W3C//DTD SVG 1.1//EN" 
 "http://www.w3.org/Graphics/SVG/1.1/DTD/svg11.dtd"> 
<svg xmlns="http://www.w3.org/2000/svg" version="1.1" 
    width="29.7002cm" height="21.0007cm" viewBox="0 0 116930 82680 ">
<title>SVG Picture created as PSLab-B.Mask.svg date 2019/03/31 06:37:16 </title>
  <desc>Picture generated by PCBNEW </desc>
<g style="fill:#000000; fill-opacity:1;stroke:#000000; stroke-opacity:1;
stroke-linecap:round; stroke-linejoin:round; "
 transform="translate(0 0) scale(1 1)">
</g>
<g style="fill:#000000; fill-opacity:0.0; 
stroke:#000000; stroke-width:-0.000393701; stroke-opacity:1; 
stroke-linecap:round; stroke-linejoin:round;">
</g>
<g style="fill:#000000; fill-opacity:1.0; 
stroke:#000000; stroke-width:0; stroke-opacity:1; 
stroke-linecap:round; stroke-linejoin:round;">
<polyline style="fill-rule:evenodd;"
points="41506,42627
41612,42648
41695,42683
41813,42731
41994,42852
42147,43005
42268,43186
42316,43304
42351,43387
42358,43425
42393,43600
42393,43817
42376,43903
42351,44030
42336,44066
42268,44230
42147,44411
41994,44564
41813,44685
41695,44734
41612,44768
41506,44789
41399,44811
41182,44811
41076,44789
40969,44768
40886,44734
40769,44685
40588,44564
40435,44411
40314,44230
40246,44066
40231,44030
40206,43903
40188,43817
40188,43600
40223,43425
40231,43387
40265,43304
40314,43186
40435,43005
40588,42852
40769,42731
40886,42683
40969,42648
41076,42627
41182,42606
41399,42606
41506,42627
" /> 
<polyline style="fill-rule:evenodd;"
points="73915,42606
74108,42644
74192,42679
74309,42727
74490,42848
74643,43002
74764,43182
74765,43186
74847,43383
74858,43436
74889,43596
74889,43813
74879,43864
74847,44026
74830,44066
74764,44226
74643,44407
74490,44560
74309,44681
74192,44730
74108,44764
74089,44768
73895,44807
73678,44807
73485,44768
73465,44764
73382,44730
73265,44681
73084,44560
72931,44407
72810,44226
72743,44066
72727,44026
72695,43864
72685,43813
72685,43596
72716,43436
72727,43383
72808,43186
72810,43182
72931,43002
73084,42848
73265,42727
73382,42679
73465,42644
73659,42606
73678,42602
73895,42602
73915,42606
" /> 
<polyline style="fill-rule:evenodd;"
points="47137,44070
46468,44070
46468,43401
47137,43401
47137,44070
" /> 
<polyline style="fill-rule:evenodd;"
points="49868,43406
49931,43425
49989,43456
50040,43498
50082,43549
50113,43607
50132,43670
50139,43736
50132,43801
50113,43864
50082,43923
50040,43973
49989,44015
49931,44046
49868,44066
49819,44070
49786,44070
49737,44066
49674,44046
49616,44015
49565,43973
49523,43923
49492,43864
49473,43801
49466,43736
49473,43670
49492,43607
49523,43549
49565,43498
49616,43456
49674,43425
49737,43406
49786,43401
49819,43401
49868,43406
" /> 
<polyline style="fill-rule:evenodd;"
points="52868,43406
52931,43425
52989,43456
53040,43498
53082,43549
53113,43607
53132,43670
53139,43736
53132,43801
53113,43864
53082,43923
53040,43973
52989,44015
52931,44046
52868,44066
52819,44070
52786,44070
52737,44066
52674,44046
52616,44015
52565,43973
52523,43923
52492,43864
52473,43801
52466,43736
52473,43670
52492,43607
52523,43549
52565,43498
52616,43456
52674,43425
52737,43406
52786,43401
52819,43401
52868,43406
" /> 
<polyline style="fill-rule:evenodd;"
points="51868,43406
51931,43425
51989,43456
52040,43498
52082,43549
52113,43607
52132,43670
52139,43736
52132,43801
52113,43864
52082,43923
52040,43973
51989,44015
51931,44046
51868,44066
51819,44070
51786,44070
51737,44066
51674,44046
51616,44015
51565,43973
51523,43923
51492,43864
51473,43801
51466,43736
51473,43670
51492,43607
51523,43549
51565,43498
51616,43456
51674,43425
51737,43406
51786,43401
51819,43401
51868,43406
" /> 
<polyline style="fill-rule:evenodd;"
points="48868,43406
48931,43425
48989,43456
49040,43498
49082,43549
49113,43607
49132,43670
49139,43736
49132,43801
49113,43864
49082,43923
49040,43973
48989,44015
48931,44046
48868,44066
48819,44070
48786,44070
48737,44066
48674,44046
48616,44015
48565,43973
48523,43923
48492,43864
48473,43801
48466,43736
48473,43670
48492,43607
48523,43549
48565,43498
48616,43456
48674,43425
48737,43406
48786,43401
48819,43401
48868,43406
" /> 
<polyline style="fill-rule:evenodd;"
points="47868,43406
47931,43425
47989,43456
48040,43498
48082,43549
48113,43607
48132,43670
48139,43736
48132,43801
48113,43864
48082,43923
48040,43973
47989,44015
47931,44046
47868,44066
47819,44070
47786,44070
47737,44066
47674,44046
47616,44015
47565,43973
47523,43923
47492,43864
47473,43801
47466,43736
47473,43670
47492,43607
47523,43549
47565,43498
47616,43456
47674,43425
47737,43406
47786,43401
47819,43401
47868,43406
" /> 
<polyline style="fill-rule:evenodd;"
points="50868,43406
50931,43425
50989,43456
51040,43498
51082,43549
51113,43607
51132,43670
51139,43736
51132,43801
51113,43864
51082,43923
51040,43973
50989,44015
50931,44046
50868,44066
50819,44070
50786,44070
50737,44066
50674,44046
50616,44015
50565,43973
50523,43923
50492,43864
50473,43801
50466,43736
50473,43670
50492,43607
50523,43549
50565,43498
50616,43456
50674,43425
50737,43406
50786,43401
50819,43401
50868,43406
" /> 
<polyline style="fill-rule:evenodd;"
points="60868,43386
60931,43405
60989,43436
61040,43478
61082,43529
61113,43587
61132,43650
61139,43716
61132,43782
61113,43845
61082,43903
61040,43954
60989,43996
60931,44027
60868,44046
60819,44051
60786,44051
60737,44046
60674,44027
60616,43996
60565,43954
60523,43903
60492,43845
60473,43782
60466,43716
60473,43650
60492,43587
60523,43529
60565,43478
60616,43436
60674,43405
60737,43386
60786,43381
60819,43381
60868,43386
" /> 
<polyline style="fill-rule:evenodd;"
points="55137,44051
54468,44051
54468,43381
55137,43381
55137,44051
" /> 
<polyline style="fill-rule:evenodd;"
points="56868,43386
56931,43405
56989,43436
57040,43478
57082,43529
57113,43587
57132,43650
57139,43716
57132,43782
57113,43845
57082,43903
57040,43954
56989,43996
56931,44027
56868,44046
56819,44051
56786,44051
56737,44046
56674,44027
56616,43996
56565,43954
56523,43903
56492,43845
56473,43782
56466,43716
56473,43650
56492,43587
56523,43529
56565,43478
56616,43436
56674,43405
56737,43386
56786,43381
56819,43381
56868,43386
" /> 
<polyline style="fill-rule:evenodd;"
points="55868,43386
55931,43405
55989,43436
56040,43478
56082,43529
56113,43587
56132,43650
56139,43716
56132,43782
56113,43845
56082,43903
56040,43954
55989,43996
55931,44027
55868,44046
55819,44051
55786,44051
55737,44046
55674,44027
55616,43996
55565,43954
55523,43903
55492,43845
55473,43782
55466,43716
55473,43650
55492,43587
55523,43529
55565,43478
55616,43436
55674,43405
55737,43386
55786,43381
55819,43381
55868,43386
" /> 
<polyline style="fill-rule:evenodd;"
points="63868,43386
63931,43405
63989,43436
64040,43478
64082,43529
64113,43587
64132,43650
64139,43716
64132,43782
64113,43845
64082,43903
64040,43954
63989,43996
63931,44027
63868,44046
63819,44051
63786,44051
63737,44046
63674,44027
63616,43996
63565,43954
63523,43903
63492,43845
63473,43782
63466,43716
63473,43650
63492,43587
63523,43529
63565,43478
63616,43436
63674,43405
63737,43386
63786,43381
63819,43381
63868,43386
" /> 
<polyline style="fill-rule:evenodd;"
points="62868,43386
62931,43405
62989,43436
63040,43478
63082,43529
63113,43587
63132,43650
63139,43716
63132,43782
63113,43845
63082,43903
63040,43954
62989,43996
62931,44027
62868,44046
62819,44051
62786,44051
62737,44046
62674,44027
62616,43996
62565,43954
62523,43903
62492,43845
62473,43782
62466,43716
62473,43650
62492,43587
62523,43529
62565,43478
62616,43436
62674,43405
62737,43386
62786,43381
62819,43381
62868,43386
" /> 
<polyline style="fill-rule:evenodd;"
points="61868,43386
61931,43405
61989,43436
62040,43478
62082,43529
62113,43587
62132,43650
62139,43716
62132,43782
62113,43845
62082,43903
62040,43954
61989,43996
61931,44027
61868,44046
61819,44051
61786,44051
61737,44046
61674,44027
61616,43996
61565,43954
61523,43903
61492,43845
61473,43782
61466,43716
61473,43650
61492,43587
61523,43529
61565,43478
61616,43436
61674,43405
61737,43386
61786,43381
61819,43381
61868,43386
" /> 
<polyline style="fill-rule:evenodd;"
points="64868,43386
64931,43405
64989,43436
65040,43478
65082,43529
65113,43587
65132,43650
65139,43716
65132,43782
65113,43845
65082,43903
65040,43954
64989,43996
64931,44027
64868,44046
64819,44051
64786,44051
64737,44046
64674,44027
64616,43996
64565,43954
64523,43903
64492,43845
64473,43782
64466,43716
64473,43650
64492,43587
64523,43529
64565,43478
64616,43436
64674,43405
64737,43386
64786,43381
64819,43381
64868,43386
" /> 
<polyline style="fill-rule:evenodd;"
points="71137,44051
70468,44051
70468,43381
71137,43381
71137,44051
" /> 
<polyline style="fill-rule:evenodd;"
points="69868,43386
69931,43405
69989,43436
70040,43478
70082,43529
70113,43587
70132,43650
70139,43716
70132,43782
70113,43845
70082,43903
70040,43954
69989,43996
69931,44027
69868,44046
69819,44051
69786,44051
69737,44046
69674,44027
69616,43996
69565,43954
69523,43903
69492,43845
69473,43782
69466,43716
69473,43650
69492,43587
69523,43529
69565,43478
69616,43436
69674,43405
69737,43386
69786,43381
69819,43381
69868,43386
" /> 
<polyline style="fill-rule:evenodd;"
points="68868,43386
68931,43405
68989,43436
69040,43478
69082,43529
69113,43587
69132,43650
69139,43716
69132,43782
69113,43845
69082,43903
69040,43954
68989,43996
68931,44027
68868,44046
68819,44051
68786,44051
68737,44046
68674,44027
68616,43996
68565,43954
68523,43903
68492,43845
68473,43782
68466,43716
68473,43650
68492,43587
68523,43529
68565,43478
68616,43436
68674,43405
68737,43386
68786,43381
68819,43381
68868,43386
" /> 
<polyline style="fill-rule:evenodd;"
points="67868,43386
67931,43405
67989,43436
68040,43478
68082,43529
68113,43587
68132,43650
68139,43716
68132,43782
68113,43845
68082,43903
68040,43954
67989,43996
67931,44027
67868,44046
67819,44051
67786,44051
67737,44046
67674,44027
67616,43996
67565,43954
67523,43903
67492,43845
67473,43782
67466,43716
67473,43650
67492,43587
67523,43529
67565,43478
67616,43436
67674,43405
67737,43386
67786,43381
67819,43381
67868,43386
" /> 
<polyline style="fill-rule:evenodd;"
points="65868,43386
65931,43405
65989,43436
66040,43478
66082,43529
66113,43587
66132,43650
66139,43716
66132,43782
66113,43845
66082,43903
66040,43954
65989,43996
65931,44027
65868,44046
65819,44051
65786,44051
65737,44046
65674,44027
65616,43996
65565,43954
65523,43903
65492,43845
65473,43782
65466,43716
65473,43650
65492,43587
65523,43529
65565,43478
65616,43436
65674,43405
65737,43386
65786,43381
65819,43381
65868,43386
" /> 
<polyline style="fill-rule:evenodd;"
points="59868,43386
59931,43405
59989,43436
60040,43478
60082,43529
60113,43587
60132,43650
60139,43716
60132,43782
60113,43845
60082,43903
60040,43954
59989,43996
59931,44027
59868,44046
59819,44051
59786,44051
59737,44046
59674,44027
59616,43996
59565,43954
59523,43903
59492,43845
59473,43782
59466,43716
59473,43650
59492,43587
59523,43529
59565,43478
59616,43436
59674,43405
59737,43386
59786,43381
59819,43381
59868,43386
" /> 
<polyline style="fill-rule:evenodd;"
points="57868,43386
57931,43405
57989,43436
58040,43478
58082,43529
58113,43587
58132,43650
58139,43716
58132,43782
58113,43845
58082,43903
58040,43954
57989,43996
57931,44027
57868,44046
57819,44051
57786,44051
57737,44046
57674,44027
57616,43996
57565,43954
57523,43903
57492,43845
57473,43782
57466,43716
57473,43650
57492,43587
57523,43529
57565,43478
57616,43436
57674,43405
57737,43386
57786,43381
57819,43381
57868,43386
" /> 
<polyline style="fill-rule:evenodd;"
points="58868,43386
58931,43405
58989,43436
59040,43478
59082,43529
59113,43587
59132,43650
59139,43716
59132,43782
59113,43845
59082,43903
59040,43954
58989,43996
58931,44027
58868,44046
58819,44051
58786,44051
58737,44046
58674,44027
58616,43996
58565,43954
58523,43903
58492,43845
58473,43782
58466,43716
58473,43650
58492,43587
58523,43529
58565,43478
58616,43436
58674,43405
58737,43386
58786,43381
58819,43381
58868,43386
" /> 
<polyline style="fill-rule:evenodd;"
points="73856,40390
73920,40409
73978,40440
74029,40482
74070,40533
74102,40591
74121,40654
74127,40720
74121,40786
74102,40849
74070,40907
74029,40958
73978,41000
73920,41031
73856,41050
73807,41055
73774,41055
73725,41050
73662,41031
73604,41000
73553,40958
73511,40907
73480,40849
73461,40786
73455,40720
73461,40654
73480,40591
73511,40533
73553,40482
73604,40440
73662,40409
73725,40390
73774,40385
73807,40385
73856,40390
" /> 
<polyline style="fill-rule:evenodd;"
points="72856,40390
72920,40409
72978,40440
73029,40482
73070,40533
73102,40591
73121,40654
73127,40720
73121,40786
73102,40849
73070,40907
73029,40958
72978,41000
72920,41031
72856,41050
72807,41055
72774,41055
72725,41050
72662,41031
72604,41000
72553,40958
72511,40907
72480,40849
72461,40786
72455,40720
72461,40654
72480,40591
72511,40533
72553,40482
72604,40440
72662,40409
72725,40390
72774,40385
72807,40385
72856,40390
" /> 
<polyline style="fill-rule:evenodd;"
points="72856,39390
72920,39409
72978,39440
73029,39482
73070,39533
73102,39591
73121,39654
73127,39720
73121,39786
73102,39849
73070,39907
73029,39958
72978,40000
72920,40031
72856,40050
72807,40055
72774,40055
72725,40050
72662,40031
72604,40000
72553,39958
72511,39907
72480,39849
72461,39786
72455,39720
72461,39654
72480,39591
72511,39533
72553,39482
72604,39440
72662,39409
72725,39390
72774,39385
72807,39385
72856,39390
" /> 
<polyline style="fill-rule:evenodd;"
points="73856,39390
73920,39409
73978,39440
74029,39482
74070,39533
74102,39591
74121,39654
74127,39720
74121,39786
74102,39849
74070,39907
74029,39958
73978,40000
73920,40031
73856,40050
73807,40055
73774,40055
73725,40050
73662,40031
73604,40000
73553,39958
73511,39907
73480,39849
73461,39786
73455,39720
73461,39654
73480,39591
73511,39533
73553,39482
73604,39440
73662,39409
73725,39390
73774,39385
73807,39385
73856,39390
" /> 
<polyline style="fill-rule:evenodd;"
points="42159,39734
41659,39734
41659,39352
42159,39352
42159,39734
" /> 
<polyline style="fill-rule:evenodd;"
points="42159,39230
41659,39230
41659,38848
42159,38848
42159,39230
" /> 
<polyline style="fill-rule:evenodd;"
points="72856,38390
72920,38409
72978,38440
73029,38482
73070,38533
73102,38591
73121,38654
73127,38720
73121,38786
73102,38849
73070,38907
73029,38958
72978,39000
72920,39031
72856,39050
72807,39055
72774,39055
72725,39050
72662,39031
72604,39000
72553,38958
72511,38907
72480,38849
72461,38786
72455,38720
72461,38654
72480,38591
72511,38533
72553,38482
72604,38440
72662,38409
72725,38390
72774,38385
72807,38385
72856,38390
" /> 
<polyline style="fill-rule:evenodd;"
points="73856,38390
73920,38409
73978,38440
74029,38482
74070,38533
74102,38591
74121,38654
74127,38720
74121,38786
74102,38849
74070,38907
74029,38958
73978,39000
73920,39031
73856,39050
73807,39055
73774,39055
73725,39050
73662,39031
73604,39000
73553,38958
73511,38907
73480,38849
73461,38786
73455,38720
73461,38654
73480,38591
73511,38533
73553,38482
73604,38440
73662,38409
73725,38390
73774,38385
73807,38385
73856,38390
" /> 
<polyline style="fill-rule:evenodd;"
points="36590,38492
36196,38492
36196,37704
36590,37704
36590,38492
" /> 
<polyline style="fill-rule:evenodd;"
points="37377,38492
36984,38492
36984,37704
37377,37704
37377,38492
" /> 
<polyline style="fill-rule:evenodd;"
points="38165,38492
37771,38492
37771,37704
38165,37704
38165,38492
" /> 
<polyline style="fill-rule:evenodd;"
points="38952,38492
38559,38492
38559,37704
38952,37704
38952,38492
" /> 
<polyline style="fill-rule:evenodd;"
points="39740,38492
39346,38492
39346,37704
39740,37704
39740,38492
" /> 
<polyline style="fill-rule:evenodd;"
points="40527,38492
40133,38492
40133,37704
40527,37704
40527,38492
" /> 
<polyline style="fill-rule:evenodd;"
points="41314,38492
40921,38492
40921,37704
41314,37704
41314,38492
" /> 
<polyline style="fill-rule:evenodd;"
points="42102,38492
41708,38492
41708,37704
42102,37704
42102,38492
" /> 
<polyline style="fill-rule:evenodd;"
points="73856,37390
73920,37409
73978,37440
74029,37482
74070,37533
74102,37591
74121,37654
74127,37720
74121,37786
74102,37849
74070,37907
74029,37958
73978,38000
73920,38031
73856,38050
73807,38055
73774,38055
73725,38050
73662,38031
73604,38000
73553,37958
73511,37907
73480,37849
73461,37786
73455,37720
73461,37654
73480,37591
73511,37533
73553,37482
73604,37440
73662,37409
73725,37390
73774,37385
73807,37385
73856,37390
" /> 
<polyline style="fill-rule:evenodd;"
points="72856,37390
72920,37409
72978,37440
73029,37482
73070,37533
73102,37591
73121,37654
73127,37720
73121,37786
73102,37849
73070,37907
73029,37958
72978,38000
72920,38031
72856,38050
72807,38055
72774,38055
72725,38050
72662,38031
72604,38000
72553,37958
72511,37907
72480,37849
72461,37786
72455,37720
72461,37654
72480,37591
72511,37533
72553,37482
72604,37440
72662,37409
72725,37390
72774,37385
72807,37385
72856,37390
" /> 
<polyline style="fill-rule:evenodd;"
points="46664,36811
46727,36831
46785,36862
46836,36903
46878,36954
46909,37013
46928,37076
46934,37141
46928,37207
46909,37270
46878,37328
46836,37379
46785,37421
46727,37452
46664,37471
46614,37476
46581,37476
46532,37471
46469,37452
46411,37421
46360,37379
46318,37328
46287,37270
46268,37207
46262,37141
46268,37076
46287,37013
46318,36954
46360,36903
46411,36862
46469,36831
46532,36811
46581,36807
46614,36807
46664,36811
" /> 
<polyline style="fill-rule:evenodd;"
points="45933,37476
45263,37476
45263,36807
45933,36807
45933,37476
" /> 
<polyline style="fill-rule:evenodd;"
points="47664,36811
47727,36831
47785,36862
47836,36903
47878,36954
47909,37013
47928,37076
47934,37141
47928,37207
47909,37270
47878,37328
47836,37379
47785,37421
47727,37452
47664,37471
47614,37476
47581,37476
47532,37471
47469,37452
47411,37421
47360,37379
47318,37328
47287,37270
47268,37207
47262,37141
47268,37076
47287,37013
47318,36954
47360,36903
47411,36862
47469,36831
47532,36811
47581,36807
47614,36807
47664,36811
" /> 
<polyline style="fill-rule:evenodd;"
points="48664,36811
48727,36831
48785,36862
48836,36903
48878,36954
48909,37013
48928,37076
48934,37141
48928,37207
48909,37270
48878,37328
48836,37379
48785,37421
48727,37452
48664,37471
48614,37476
48581,37476
48532,37471
48469,37452
48411,37421
48360,37379
48318,37328
48287,37270
48268,37207
48262,37141
48268,37076
48287,37013
48318,36954
48360,36903
48411,36862
48469,36831
48532,36811
48581,36807
48614,36807
48664,36811
" /> 
<polyline style="fill-rule:evenodd;"
points="49664,36811
49727,36831
49785,36862
49836,36903
49878,36954
49909,37013
49928,37076
49934,37141
49928,37207
49909,37270
49878,37328
49836,37379
49785,37421
49727,37452
49664,37471
49614,37476
49581,37476
49532,37471
49469,37452
49411,37421
49360,37379
49318,37328
49287,37270
49268,37207
49262,37141
49268,37076
49287,37013
49318,36954
49360,36903
49411,36862
49469,36831
49532,36811
49581,36807
49614,36807
49664,36811
" /> 
<polyline style="fill-rule:evenodd;"
points="50644,36908
50689,36922
50730,36944
50766,36973
50795,37009
50817,37050
50831,37095
50835,37141
50831,37188
50817,37232
50795,37273
50766,37309
50730,37339
50689,37361
50644,37374
50610,37377
50586,37377
50552,37374
50507,37361
50466,37339
50430,37309
50401,37273
50379,37232
50365,37188
50361,37141
50365,37095
50379,37050
50401,37009
50430,36973
50466,36944
50507,36922
50552,36908
50586,36905
50610,36905
50644,36908
" /> 
<polyline style="fill-rule:evenodd;"
points="73856,36390
73920,36409
73978,36440
74029,36482
74070,36533
74102,36591
74121,36654
74127,36720
74121,36786
74102,36849
74070,36907
74029,36958
73978,37000
73920,37031
73856,37050
73807,37055
73774,37055
73725,37050
73662,37031
73604,37000
73553,36958
73511,36907
73480,36849
73461,36786
73455,36720
73461,36654
73480,36591
73511,36533
73553,36482
73604,36440
73662,36409
73725,36390
73774,36385
73807,36385
73856,36390
" /> 
<polyline style="fill-rule:evenodd;"
points="72856,36390
72920,36409
72978,36440
73029,36482
73070,36533
73102,36591
73121,36654
73127,36720
73121,36786
73102,36849
73070,36907
73029,36958
72978,37000
72920,37031
72856,37050
72807,37055
72774,37055
72725,37050
72662,37031
72604,37000
72553,36958
72511,36907
72480,36849
72461,36786
72455,36720
72461,36654
72480,36591
72511,36533
72553,36482
72604,36440
72662,36409
72725,36390
72774,36385
72807,36385
72856,36390
" /> 
<polyline style="fill-rule:evenodd;"
points="73856,35390
73920,35409
73978,35440
74029,35482
74070,35533
74102,35591
74121,35654
74127,35720
74121,35786
74102,35849
74070,35907
74029,35958
73978,36000
73920,36031
73856,36050
73807,36055
73774,36055
73725,36050
73662,36031
73604,36000
73553,35958
73511,35907
73480,35849
73461,35786
73455,35720
73461,35654
73480,35591
73511,35533
73553,35482
73604,35440
73662,35409
73725,35390
73774,35385
73807,35385
73856,35390
" /> 
<polyline style="fill-rule:evenodd;"
points="72856,35390
72920,35409
72978,35440
73029,35482
73070,35533
73102,35591
73121,35654
73127,35720
73121,35786
73102,35849
73070,35907
73029,35958
72978,36000
72920,36031
72856,36050
72807,36055
72774,36055
72725,36050
72662,36031
72604,36000
72553,35958
72511,35907
72480,35849
72461,35786
72455,35720
72461,35654
72480,35591
72511,35533
72553,35482
72604,35440
72662,35409
72725,35390
72774,35385
72807,35385
72856,35390
" /> 
<polyline style="fill-rule:evenodd;"
points="49345,34965
49408,34984
49466,35015
49517,35057
49559,35108
49590,35166
49609,35229
49615,35295
49609,35360
49590,35423
49559,35482
49517,35533
49466,35574
49408,35605
49345,35625
49295,35629
49263,35629
49213,35625
49150,35605
49092,35574
49041,35533
48999,35482
48968,35423
48949,35360
48943,35295
48949,35229
48968,35166
48999,35108
49041,35057
49092,35015
49150,34984
49213,34965
49263,34960
49295,34960
49345,34965
" /> 
<polyline style="fill-rule:evenodd;"
points="73856,34390
73920,34409
73978,34440
74029,34482
74070,34533
74102,34591
74121,34654
74127,34720
74121,34786
74102,34849
74070,34907
74029,34958
73978,35000
73920,35031
73856,35050
73807,35055
73774,35055
73725,35050
73662,35031
73604,35000
73553,34958
73511,34907
73480,34849
73461,34786
73455,34720
73461,34654
73480,34591
73511,34533
73553,34482
73604,34440
73662,34409
73725,34390
73774,34385
73807,34385
73856,34390
" /> 
<polyline style="fill-rule:evenodd;"
points="72856,34390
72920,34409
72978,34440
73029,34482
73070,34533
73102,34591
73121,34654
73127,34720
73121,34786
73102,34849
73070,34907
73029,34958
72978,35000
72920,35031
72856,35050
72807,35055
72774,35055
72725,35050
72662,35031
72604,35000
72553,34958
72511,34907
72480,34849
72461,34786
72455,34720
72461,34654
72480,34591
72511,34533
72553,34482
72604,34440
72662,34409
72725,34390
72774,34385
72807,34385
72856,34390
" /> 
<polyline style="fill-rule:evenodd;"
points="49345,33965
49408,33984
49466,34015
49517,34057
49559,34108
49590,34166
49609,34229
49615,34295
49609,34360
49590,34423
49559,34482
49517,34533
49466,34574
49408,34605
49345,34625
49295,34629
49263,34629
49213,34625
49150,34605
49092,34574
49041,34533
48999,34482
48968,34423
48949,34360
48943,34295
48949,34229
48968,34166
48999,34108
49041,34057
49092,34015
49150,33984
49213,33965
49263,33960
49295,33960
49345,33965
" /> 
<polyline style="fill-rule:evenodd;"
points="73856,33390
73920,33409
73978,33440
74029,33482
74070,33533
74102,33591
74121,33654
74127,33720
74121,33786
74102,33849
74070,33907
74029,33958
73978,34000
73920,34031
73856,34050
73807,34055
73774,34055
73725,34050
73662,34031
73604,34000
73553,33958
73511,33907
73480,33849
73461,33786
73455,33720
73461,33654
73480,33591
73511,33533
73553,33482
73604,33440
73662,33409
73725,33390
73774,33385
73807,33385
73856,33390
" /> 
<polyline style="fill-rule:evenodd;"
points="72856,33390
72920,33409
72978,33440
73029,33482
73070,33533
73102,33591
73121,33654
73127,33720
73121,33786
73102,33849
73070,33907
73029,33958
72978,34000
72920,34031
72856,34050
72807,34055
72774,34055
72725,34050
72662,34031
72604,34000
72553,33958
72511,33907
72480,33849
72461,33786
72455,33720
72461,33654
72480,33591
72511,33533
72553,33482
72604,33440
72662,33409
72725,33390
72774,33385
72807,33385
72856,33390
" /> 
<polyline style="fill-rule:evenodd;"
points="49345,32965
49408,32984
49466,33015
49517,33057
49559,33108
49590,33166
49609,33229
49615,33295
49609,33360
49590,33423
49559,33482
49517,33533
49466,33574
49408,33605
49345,33625
49295,33629
49263,33629
49213,33625
49150,33605
49092,33574
49041,33533
48999,33482
48968,33423
48949,33360
48943,33295
48949,33229
48968,33166
48999,33108
49041,33057
49092,33015
49150,32984
49213,32965
49263,32960
49295,32960
49345,32965
" /> 
<polyline style="fill-rule:evenodd;"
points="73856,32390
73920,32409
73978,32440
74029,32482
74070,32533
74102,32591
74121,32654
74127,32720
74121,32786
74102,32849
74070,32907
74029,32958
73978,33000
73920,33031
73856,33050
73807,33055
73774,33055
73725,33050
73662,33031
73604,33000
73553,32958
73511,32907
73480,32849
73461,32786
73455,32720
73461,32654
73480,32591
73511,32533
73553,32482
73604,32440
73662,32409
73725,32390
73774,32385
73807,32385
73856,32390
" /> 
<polyline style="fill-rule:evenodd;"
points="72856,32390
72920,32409
72978,32440
73029,32482
73070,32533
73102,32591
73121,32654
73127,32720
73121,32786
73102,32849
73070,32907
73029,32958
72978,33000
72920,33031
72856,33050
72807,33055
72774,33055
72725,33050
72662,33031
72604,33000
72553,32958
72511,32907
72480,32849
72461,32786
72455,32720
72461,32654
72480,32591
72511,32533
72553,32482
72604,32440
72662,32409
72725,32390
72774,32385
72807,32385
72856,32390
" /> 
<polyline style="fill-rule:evenodd;"
points="49345,31965
49408,31984
49466,32015
49517,32057
49559,32108
49590,32166
49609,32229
49615,32295
49609,32360
49590,32423
49559,32482
49517,32533
49466,32574
49408,32605
49345,32625
49295,32629
49263,32629
49213,32625
49150,32605
49092,32574
49041,32533
48999,32482
48968,32423
48949,32360
48943,32295
48949,32229
48968,32166
48999,32108
49041,32057
49092,32015
49150,31984
49213,31965
49263,31960
49295,31960
49345,31965
" /> 
<polyline style="fill-rule:evenodd;"
points="38952,32192
38559,32192
38559,31405
38952,31405
38952,32192
" /> 
<polyline style="fill-rule:evenodd;"
points="42102,32192
41708,32192
41708,31405
42102,31405
42102,32192
" /> 
<polyline style="fill-rule:evenodd;"
points="41314,32192
40921,32192
40921,31405
41314,31405
41314,32192
" /> 
<polyline style="fill-rule:evenodd;"
points="40527,32192
40133,32192
40133,31405
40527,31405
40527,32192
" /> 
<polyline style="fill-rule:evenodd;"
points="36590,32192
36196,32192
36196,31405
36590,31405
36590,32192
" /> 
<polyline style="fill-rule:evenodd;"
points="37377,32192
36984,32192
36984,31405
37377,31405
37377,32192
" /> 
<polyline style="fill-rule:evenodd;"
points="38165,32192
37771,32192
37771,31405
38165,31405
38165,32192
" /> 
<polyline style="fill-rule:evenodd;"
points="39740,32192
39346,32192
39346,31405
39740,31405
39740,32192
" /> 
<polyline style="fill-rule:evenodd;"
points="73856,31390
73920,31409
73978,31440
74029,31482
74070,31533
74102,31591
74121,31654
74127,31720
74121,31786
74102,31849
74070,31907
74029,31958
73978,32000
73920,32031
73856,32050
73807,32055
73774,32055
73725,32050
73662,32031
73604,32000
73553,31958
73511,31907
73480,31849
73461,31786
73455,31720
73461,31654
73480,31591
73511,31533
73553,31482
73604,31440
73662,31409
73725,31390
73774,31385
73807,31385
73856,31390
" /> 
<polyline style="fill-rule:evenodd;"
points="72856,31390
72920,31409
72978,31440
73029,31482
73070,31533
73102,31591
73121,31654
73127,31720
73121,31786
73102,31849
73070,31907
73029,31958
72978,32000
72920,32031
72856,32050
72807,32055
72774,32055
72725,32050
72662,32031
72604,32000
72553,31958
72511,31907
72480,31849
72461,31786
72455,31720
72461,31654
72480,31591
72511,31533
72553,31482
72604,31440
72662,31409
72725,31390
72774,31385
72807,31385
72856,31390
" /> 
<polyline style="fill-rule:evenodd;"
points="49345,30965
49408,30984
49466,31015
49517,31057
49559,31108
49590,31166
49609,31229
49615,31295
49609,31360
49590,31423
49559,31482
49517,31533
49466,31574
49408,31605
49345,31625
49295,31629
49263,31629
49213,31625
49150,31605
49092,31574
49041,31533
48999,31482
48968,31423
48949,31360
48943,31295
48949,31229
48968,31166
48999,31108
49041,31057
49092,31015
49150,30984
49213,30965
49263,30960
49295,30960
49345,30965
" /> 
<polyline style="fill-rule:evenodd;"
points="36870,31262
36122,31262
36122,30474
36870,30474
36870,31262
" /> 
<polyline style="fill-rule:evenodd;"
points="38728,31082
38137,31082
38137,30492
38728,30492
38728,31082
" /> 
<polyline style="fill-rule:evenodd;"
points="73856,30390
73920,30409
73978,30440
74029,30482
74070,30533
74102,30591
74121,30654
74127,30720
74121,30786
74102,30849
74070,30907
74029,30958
73978,31000
73920,31031
73856,31050
73807,31055
73774,31055
73725,31050
73662,31031
73604,31000
73553,30958
73511,30907
73480,30849
73461,30786
73455,30720
73461,30654
73480,30591
73511,30533
73553,30482
73604,30440
73662,30409
73725,30390
73774,30385
73807,30385
73856,30390
" /> 
<polyline style="fill-rule:evenodd;"
points="72856,30390
72920,30409
72978,30440
73029,30482
73070,30533
73102,30591
73121,30654
73127,30720
73121,30786
73102,30849
73070,30907
73029,30958
72978,31000
72920,31031
72856,31050
72807,31055
72774,31055
72725,31050
72662,31031
72604,31000
72553,30958
72511,30907
72480,30849
72461,30786
72455,30720
72461,30654
72480,30591
72511,30533
72553,30482
72604,30440
72662,30409
72725,30390
72774,30385
72807,30385
72856,30390
" /> 
<polyline style="fill-rule:evenodd;"
points="37923,30629
37431,30629
37431,30216
37923,30216
37923,30629
" /> 
<polyline style="fill-rule:evenodd;"
points="49614,30629
48944,30629
48944,29960
49614,29960
49614,30629
" /> 
<polyline style="fill-rule:evenodd;"
points="38720,30196
38129,30196
38129,29606
38720,29606
38720,30196
" /> 
<polyline style="fill-rule:evenodd;"
points="72856,29390
72920,29409
72978,29440
73029,29482
73070,29533
73102,29591
73121,29654
73127,29720
73121,29786
73102,29849
73070,29907
73029,29958
72978,30000
72920,30031
72856,30050
72807,30055
72774,30055
72725,30050
72662,30031
72604,30000
72553,29958
72511,29907
72480,29849
72461,29786
72455,29720
72461,29654
72480,29591
72511,29533
72553,29482
72604,29440
72662,29409
72725,29390
72774,29385
72807,29385
72856,29390
" /> 
<polyline style="fill-rule:evenodd;"
points="73856,29390
73920,29409
73978,29440
74029,29482
74070,29533
74102,29591
74121,29654
74127,29720
74121,29786
74102,29849
74070,29907
74029,29958
73978,30000
73920,30031
73856,30050
73807,30055
73774,30055
73725,30050
73662,30031
73604,30000
73553,29958
73511,29907
73480,29849
73461,29786
73455,29720
73461,29654
73480,29591
73511,29533
73553,29482
73604,29440
73662,29409
73725,29390
73774,29385
73807,29385
73856,29390
" /> 
<polyline style="fill-rule:evenodd;"
points="38720,29330
38129,29330
38129,28740
38720,28740
38720,29330
" /> 
<polyline style="fill-rule:evenodd;"
points="73856,28390
73920,28409
73978,28440
74029,28482
74070,28533
74102,28591
74121,28654
74127,28720
74121,28786
74102,28849
74070,28907
74029,28958
73978,29000
73920,29031
73856,29050
73807,29055
73774,29055
73725,29050
73662,29031
73604,29000
73553,28958
73511,28907
73480,28849
73461,28786
73455,28720
73461,28654
73480,28591
73511,28533
73553,28482
73604,28440
73662,28409
73725,28390
73774,28385
73807,28385
73856,28390
" /> 
<polyline style="fill-rule:evenodd;"
points="72856,28390
72920,28409
72978,28440
73029,28482
73070,28533
73102,28591
73121,28654
73127,28720
73121,28786
73102,28849
73070,28907
73029,28958
72978,29000
72920,29031
72856,29050
72807,29055
72774,29055
72725,29050
72662,29031
72604,29000
72553,28958
72511,28907
72480,28849
72461,28786
72455,28720
72461,28654
72480,28591
72511,28533
72553,28482
72604,28440
72662,28409
72725,28390
72774,28385
72807,28385
72856,28390
" /> 
<polyline style="fill-rule:evenodd;"
points="37923,28720
37431,28720
37431,28307
37923,28307
37923,28720
" /> 
<polyline style="fill-rule:evenodd;"
points="38724,28464
38133,28464
38133,27874
38724,27874
38724,28464
" /> 
<polyline style="fill-rule:evenodd;"
points="36870,28462
36122,28462
36122,27674
36870,27674
36870,28462
" /> 
<polyline style="fill-rule:evenodd;"
points="73856,27390
73920,27409
73978,27440
74029,27482
74070,27533
74102,27591
74121,27654
74127,27720
74121,27786
74102,27849
74070,27907
74029,27958
73978,28000
73920,28031
73856,28050
73807,28055
73774,28055
73725,28050
73662,28031
73604,28000
73553,27958
73511,27907
73480,27849
73461,27786
73455,27720
73461,27654
73480,27591
73511,27533
73553,27482
73604,27440
73662,27409
73725,27390
73774,27385
73807,27385
73856,27390
" /> 
<polyline style="fill-rule:evenodd;"
points="73125,28055
72456,28055
72456,27385
73125,27385
73125,28055
" /> 
<polyline style="fill-rule:evenodd;"
points="40572,27730
40072,27730
40072,27348
40572,27348
40572,27730
" /> 
<polyline style="fill-rule:evenodd;"
points="40572,27226
40072,27226
40072,26844
40572,26844
40572,27226
" /> 
<polyline style="fill-rule:evenodd;"
points="71510,23635
71616,23656
71699,23690
71817,23739
71997,23860
72151,24013
72272,24194
72320,24311
72354,24394
72355,24394
72391,24576
72397,24607
72397,24825
72355,25038
72320,25121
72272,25238
72151,25419
71997,25572
71817,25693
71699,25742
71616,25776
71510,25797
71403,25818
71186,25818
71080,25797
70973,25776
70890,25742
70773,25693
70592,25572
70439,25419
70318,25238
70269,25121
70235,25038
70192,24825
70192,24607
70199,24576
70235,24394
70235,24394
70269,24311
70318,24194
70439,24013
70592,23860
70773,23739
70890,23690
70973,23656
71080,23635
71186,23614
71403,23614
71510,23635
" /> 
<polyline style="fill-rule:evenodd;"
points="41919,23614
42112,23652
42195,23687
42313,23735
42494,23856
42647,24009
42768,24190
42769,24194
42844,24374
42851,24391
42876,24517
42893,24604
42893,24821
42851,25034
42849,25039
42768,25234
42647,25415
42494,25568
42313,25689
42195,25738
42112,25772
42093,25776
41899,25814
41682,25814
41489,25776
41469,25772
41386,25738
41269,25689
41088,25568
40935,25415
40814,25234
40733,25039
40731,25034
40688,24821
40688,24604
40706,24517
40731,24391
40738,24374
40812,24194
40814,24190
40935,24009
41088,23856
41269,23735
41386,23687
41469,23652
41662,23614
41682,23610
41899,23610
41919,23614
" /> 
<polyline style="fill-rule:evenodd;"
points="50188,25039
49519,25039
49519,24370
50188,24370
50188,25039
" /> 
<polyline style="fill-rule:evenodd;"
points="59699,24374
59762,24394
59820,24425
59871,24466
59913,24517
59944,24576
59963,24639
59970,24704
59963,24770
59944,24833
59913,24891
59871,24942
59820,24984
59762,25015
59699,25034
59650,25039
59617,25039
59568,25034
59505,25015
59447,24984
59396,24942
59354,24891
59323,24833
59304,24770
59297,24704
59304,24639
59323,24576
59354,24517
59396,24466
59447,24425
59505,24394
59568,24374
59617,24370
59650,24370
59699,24374
" /> 
<polyline style="fill-rule:evenodd;"
points="48919,24374
48983,24394
49041,24425
49092,24466
49133,24517
49164,24576
49184,24639
49190,24704
49184,24770
49164,24833
49133,24891
49092,24942
49041,24984
48983,25015
48919,25034
48870,25039
48837,25039
48788,25034
48725,25015
48667,24984
48616,24942
48574,24891
48543,24833
48524,24770
48518,24704
48524,24639
48543,24576
48574,24517
48616,24466
48667,24425
48725,24394
48788,24374
48837,24370
48870,24370
48919,24374
" /> 
<polyline style="fill-rule:evenodd;"
points="47919,24374
47983,24394
48041,24425
48092,24466
48133,24517
48164,24576
48184,24639
48190,24704
48184,24770
48164,24833
48133,24891
48092,24942
48041,24984
47983,25015
47919,25034
47870,25039
47837,25039
47788,25034
47725,25015
47667,24984
47616,24942
47574,24891
47543,24833
47524,24770
47518,24704
47524,24639
47543,24576
47574,24517
47616,24466
47667,24425
47725,24394
47788,24374
47837,24370
47870,24370
47919,24374
" /> 
<polyline style="fill-rule:evenodd;"
points="52809,24374
52872,24394
52930,24425
52981,24466
53023,24517
53054,24576
53073,24639
53080,24704
53073,24770
53054,24833
53023,24891
52981,24942
52930,24984
52872,25015
52809,25034
52760,25039
52727,25039
52678,25034
52615,25015
52557,24984
52506,24942
52464,24891
52433,24833
52414,24770
52407,24704
52414,24639
52433,24576
52464,24517
52506,24466
52557,24425
52615,24394
52678,24374
52727,24370
52760,24370
52809,24374
" /> 
<polyline style="fill-rule:evenodd;"
points="58699,24374
58762,24394
58820,24425
58871,24466
58913,24517
58944,24576
58963,24639
58970,24704
58963,24770
58944,24833
58913,24891
58871,24942
58820,24984
58762,25015
58699,25034
58650,25039
58617,25039
58568,25034
58505,25015
58447,24984
58396,24942
58354,24891
58323,24833
58304,24770
58297,24704
58304,24639
58323,24576
58354,24517
58396,24466
58447,24425
58505,24394
58568,24374
58617,24370
58650,24370
58699,24374
" /> 
<polyline style="fill-rule:evenodd;"
points="57699,24374
57762,24394
57820,24425
57871,24466
57913,24517
57944,24576
57963,24639
57970,24704
57963,24770
57944,24833
57913,24891
57871,24942
57820,24984
57762,25015
57699,25034
57650,25039
57617,25039
57568,25034
57505,25015
57447,24984
57396,24942
57354,24891
57323,24833
57304,24770
57297,24704
57304,24639
57323,24576
57354,24517
57396,24466
57447,24425
57505,24394
57568,24374
57617,24370
57650,24370
57699,24374
" /> 
<polyline style="fill-rule:evenodd;"
points="56968,25039
56299,25039
56299,24370
56968,24370
56968,25039
" /> 
<polyline style="fill-rule:evenodd;"
points="54809,24374
54872,24394
54930,24425
54981,24466
55023,24517
55054,24576
55073,24639
55080,24704
55073,24770
55054,24833
55023,24891
54981,24942
54930,24984
54872,25015
54809,25034
54760,25039
54727,25039
54678,25034
54615,25015
54557,24984
54506,24942
54464,24891
54433,24833
54414,24770
54407,24704
54414,24639
54433,24576
54464,24517
54506,24466
54557,24425
54615,24394
54678,24374
54727,24370
54760,24370
54809,24374
" /> 
<polyline style="fill-rule:evenodd;"
points="53809,24374
53872,24394
53930,24425
53981,24466
54023,24517
54054,24576
54073,24639
54080,24704
54073,24770
54054,24833
54023,24891
53981,24942
53930,24984
53872,25015
53809,25034
53760,25039
53727,25039
53678,25034
53615,25015
53557,24984
53506,24942
53464,24891
53433,24833
53414,24770
53407,24704
53414,24639
53433,24576
53464,24517
53506,24466
53557,24425
53615,24394
53678,24374
53727,24370
53760,24370
53809,24374
" /> 
<polyline style="fill-rule:evenodd;"
points="52078,25039
51409,25039
51409,24370
52078,24370
52078,25039
" /> 
<polyline style="fill-rule:evenodd;"
points="45919,24374
45983,24394
46041,24425
46092,24466
46133,24517
46164,24576
46184,24639
46190,24704
46184,24770
46164,24833
46133,24891
46092,24942
46041,24984
45983,25015
45919,25034
45870,25039
45837,25039
45788,25034
45725,25015
45667,24984
45616,24942
45574,24891
45543,24833
45524,24770
45518,24704
45524,24639
45543,24576
45574,24517
45616,24466
45667,24425
45725,24394
45788,24374
45837,24370
45870,24370
45919,24374
" /> 
<polyline style="fill-rule:evenodd;"
points="61604,24374
61668,24394
61726,24425
61777,24466
61818,24517
61850,24576
61869,24639
61875,24704
61869,24770
61850,24833
61818,24891
61777,24942
61726,24984
61668,25015
61604,25034
61555,25039
61522,25039
61473,25034
61410,25015
61352,24984
61301,24942
61259,24891
61228,24833
61209,24770
61203,24704
61209,24639
61228,24576
61259,24517
61301,24466
61352,24425
61410,24394
61473,24374
61522,24370
61555,24370
61604,24374
" /> 
<polyline style="fill-rule:evenodd;"
points="62604,24374
62668,24394
62726,24425
62777,24466
62818,24517
62850,24576
62869,24639
62875,24704
62869,24770
62850,24833
62818,24891
62777,24942
62726,24984
62668,25015
62604,25034
62555,25039
62522,25039
62473,25034
62410,25015
62352,24984
62301,24942
62259,24891
62228,24833
62209,24770
62203,24704
62209,24639
62228,24576
62259,24517
62301,24466
62352,24425
62410,24394
62473,24374
62522,24370
62555,24370
62604,24374
" /> 
<polyline style="fill-rule:evenodd;"
points="63604,24374
63668,24394
63726,24425
63777,24466
63818,24517
63850,24576
63869,24639
63875,24704
63869,24770
63850,24833
63818,24891
63777,24942
63726,24984
63668,25015
63604,25034
63555,25039
63522,25039
63473,25034
63410,25015
63352,24984
63301,24942
63259,24891
63228,24833
63209,24770
63203,24704
63209,24639
63228,24576
63259,24517
63301,24466
63352,24425
63410,24394
63473,24374
63522,24370
63555,24370
63604,24374
" /> 
<polyline style="fill-rule:evenodd;"
points="64604,24374
64668,24394
64726,24425
64777,24466
64818,24517
64850,24576
64869,24639
64875,24704
64869,24770
64850,24833
64818,24891
64777,24942
64726,24984
64668,25015
64604,25034
64555,25039
64522,25039
64473,25034
64410,25015
64352,24984
64301,24942
64259,24891
64228,24833
64209,24770
64203,24704
64209,24639
64228,24576
64259,24517
64301,24466
64352,24425
64410,24394
64473,24374
64522,24370
64555,24370
64604,24374
" /> 
<polyline style="fill-rule:evenodd;"
points="65604,24374
65668,24394
65726,24425
65777,24466
65818,24517
65850,24576
65869,24639
65875,24704
65869,24770
65850,24833
65818,24891
65777,24942
65726,24984
65668,25015
65604,25034
65555,25039
65522,25039
65473,25034
65410,25015
65352,24984
65301,24942
65259,24891
65228,24833
65209,24770
65203,24704
65209,24639
65228,24576
65259,24517
65301,24466
65352,24425
65410,24394
65473,24374
65522,24370
65555,24370
65604,24374
" /> 
<polyline style="fill-rule:evenodd;"
points="46919,24374
46983,24394
47041,24425
47092,24466
47133,24517
47164,24576
47184,24639
47190,24704
47184,24770
47164,24833
47133,24891
47092,24942
47041,24984
46983,25015
46919,25034
46870,25039
46837,25039
46788,25034
46725,25015
46667,24984
46616,24942
46574,24891
46543,24833
46524,24770
46518,24704
46524,24639
46543,24576
46574,24517
46616,24466
46667,24425
46725,24394
46788,24374
46837,24370
46870,24370
46919,24374
" /> 
<polyline style="fill-rule:evenodd;"
points="67604,24374
67668,24394
67726,24425
67777,24466
67818,24517
67850,24576
67869,24639
67875,24704
67869,24770
67850,24833
67818,24891
67777,24942
67726,24984
67668,25015
67604,25034
67555,25039
67522,25039
67473,25034
67410,25015
67352,24984
67301,24942
67259,24891
67228,24833
67209,24770
67203,24704
67209,24639
67228,24576
67259,24517
67301,24466
67352,24425
67410,24394
67473,24374
67522,24370
67555,24370
67604,24374
" /> 
<polyline style="fill-rule:evenodd;"
points="44919,24374
44983,24394
45041,24425
45092,24466
45133,24517
45164,24576
45184,24639
45190,24704
45184,24770
45164,24833
45133,24891
45092,24942
45041,24984
44983,25015
44919,25034
44870,25039
44837,25039
44788,25034
44725,25015
44667,24984
44616,24942
44574,24891
44543,24833
44524,24770
44518,24704
44524,24639
44543,24576
44574,24517
44616,24466
44667,24425
44725,24394
44788,24374
44837,24370
44870,24370
44919,24374
" /> 
<polyline style="fill-rule:evenodd;"
points="68874,25039
68204,25039
68204,24370
68874,24370
68874,25039
" /> 
<polyline style="fill-rule:evenodd;"
points="66604,24374
66668,24394
66726,24425
66777,24466
66818,24517
66850,24576
66869,24639
66875,24704
66869,24770
66850,24833
66818,24891
66777,24942
66726,24984
66668,25015
66604,25034
66555,25039
66522,25039
66473,25034
66410,25015
66352,24984
66301,24942
66259,24891
66228,24833
66209,24770
66203,24704
66209,24639
66228,24576
66259,24517
66301,24466
66352,24425
66410,24394
66473,24374
66522,24370
66555,24370
66604,24374
" /> 
</g> 
</svg>
