<?xml version="1.0" standalone="no"?>
 <!DOCTYPE svg PUBLIC "-//W3C//DTD SVG 1.1//EN" 
 "http://www.w3.org/Graphics/SVG/1.1/DTD/svg11.dtd"> 
<svg
  xmlns:svg="http://www.w3.org/2000/svg"
  xmlns="http://www.w3.org/2000/svg"
  xmlns:xlink="http://www.w3.org/1999/xlink"
  version="1.1"
  width="29.700220cm" height="21.000720cm" viewBox="0 0 116930 82680">
<title>SVG Picture created as PSLab-B_Mask.svg date 2020/06/23 13:53:18 </title>
  <desc>Picture generated by PCBNEW </desc>
<g style="fill:#000000; fill-opacity:1;stroke:#000000; stroke-opacity:1;
stroke-linecap:round; stroke-linejoin:round;"
 transform="translate(0 0) scale(1 1)">
</g>
<g style="fill:#000000; fill-opacity:0.0; 
stroke:#000000; stroke-width:-0.000393701; stroke-opacity:1; 
stroke-linecap:round; stroke-linejoin:round;">
</g>
<g style="fill:#000000; fill-opacity:1.0; 
stroke:#000000; stroke-width:0; stroke-opacity:1; 
stroke-linecap:round; stroke-linejoin:round;">
<path style="fill:#000000; fill-opacity:1.0; 
stroke:#000000; stroke-width:0; stroke-opacity:1; 
stroke-linecap:round; stroke-linejoin:round;fill-rule:evenodd;"
d="M 41506.4,42627.5
41612.9,42648.7
41696,42683.1
41813.5,42731.8
41813.5,42731.8
41994.1,42852.4
42147.6,43005.9
42167,43034.9
42268.2,43186.5
42316.9,43304
42349.7,43383.2
42351.3,43387.1
42393.7,43600.1
42393.7,43817.2
42386.2,43855.1
42351.3,44030.2
42324,44096.3
42268.2,44230.8
42268.2,44230.8
42147.6,44411.4
41994.1,44564.9
41873.4,44645.5
41813.5,44685.6
41696,44734.2
41612.9,44768.7
41506.4,44789.8
41399.9,44811
41182.8,44811
41076.3,44789.8
40969.8,44768.7
40886.7,44734.2
40769.2,44685.6
40709.3,44645.5
40588.6,44564.9
40435.1,44411.4
40314.4,44230.8
40314.4,44230.8
40258.7,44096.3
40231.3,44030.2
40196.5,43855.1
40189,43817.2
40189,43600.1
40231.3,43387.1
40233,43383.2
40265.8,43304
40314.4,43186.5
40415.7,43034.9
40435.1,43005.9
40588.6,42852.4
40769.2,42731.8
40769.2,42731.8
40886.7,42683.1
40969.8,42648.7
41076.3,42627.5
41182.8,42606.3
41399.9,42606.3
Z" /> 
<path style="fill:#000000; fill-opacity:1.0; 
stroke:#000000; stroke-width:0; stroke-opacity:1; 
stroke-linecap:round; stroke-linejoin:round;fill-rule:evenodd;"
d="M 73915.8,42606.3
74108.9,42644.7
74192,42679.1
74309.6,42727.8
74331.9,42742.8
74490.1,42848.5
74643.7,43002
74651.8,43014.1
74764.3,43182.6
74765.9,43186.5
74847.4,43383.2
74852.4,43408.1
74889.8,43596.2
74889.8,43813.3
74881.5,43855.1
74847.4,44026.3
74836.9,44051.7
74764.3,44226.9
74752.3,44244.8
74643.7,44407.4
74490.1,44561
74369.5,44641.6
74309.6,44681.6
74192,44730.3
74108.9,44764.7
74089.2,44768.7
73896,44807.1
73678.8,44807.1
73485.6,44768.7
73465.9,44764.7
73382.8,44730.3
73265.2,44681.6
73205.3,44641.6
73084.7,44561
72931.1,44407.4
72822.5,44244.8
72810.5,44226.9
72737.9,44051.7
72727.4,44026.3
72693.3,43855.1
72685,43813.3
72685,43596.2
72722.4,43408.1
72727.4,43383.2
72808.9,43186.5
72810.5,43182.6
72923,43014.1
72931.1,43002
73084.7,42848.5
73242.9,42742.8
73265.2,42727.8
73382.8,42679.1
73465.9,42644.7
73659,42606.3
73678.8,42602.4
73896,42602.4
Z" /> 
<path style="fill:#000000; fill-opacity:1.0; 
stroke:#000000; stroke-width:0; stroke-opacity:1; 
stroke-linecap:round; stroke-linejoin:round;fill-rule:evenodd;"
d="M 37051.3,43804.1
37101.4,43824.9
37123.8,43839.9
37146.5,43855.1
37184.9,43893.5
37184.9,43893.5
37215.1,43938.6
37235.9,43988.7
37246.5,44042
37246.5,44096.3
37235.9,44149.5
37215.1,44199.7
37215.1,44199.7
37184.9,44244.8
37146.5,44283.2
37123.8,44298.4
37101.4,44313.4
37051.3,44334.1
36998,44344.7
36943.7,44344.7
36890.5,44334.1
36840.3,44313.4
36817.9,44298.4
36795.2,44283.2
36756.8,44244.8
36726.6,44199.7
36726.6,44199.7
36705.9,44149.5
36695.3,44096.3
36695.3,44042
36705.9,43988.7
36726.6,43938.6
36756.8,43893.5
36756.8,43893.5
36795.2,43855.1
36817.9,43839.9
36840.3,43824.9
36890.5,43804.1
36943.7,43793.5
36998,43793.5
Z" /> 
<path style="fill:#000000; fill-opacity:1.0; 
stroke:#000000; stroke-width:0; stroke-opacity:1; 
stroke-linecap:round; stroke-linejoin:round;fill-rule:evenodd;"
d="M 39019.8,43804.1
39069.9,43824.9
39092.3,43839.9
39115,43855.1
39153.4,43893.5
39153.4,43893.5
39183.6,43938.6
39204.4,43988.7
39215,44042
39215,44096.3
39204.4,44149.5
39183.6,44199.7
39183.6,44199.7
39153.4,44244.8
39115,44283.2
39092.3,44298.4
39069.9,44313.4
39019.8,44334.1
38966.5,44344.7
38912.2,44344.7
38859,44334.1
38808.8,44313.4
38786.4,44298.4
38763.7,44283.2
38725.3,44244.8
38695.1,44199.7
38695.1,44199.7
38674.4,44149.5
38663.8,44096.3
38663.8,44042
38674.4,43988.7
38695.1,43938.6
38725.3,43893.5
38725.3,43893.5
38763.7,43855.1
38786.4,43839.9
38808.8,43824.9
38859,43804.1
38912.2,43793.5
38966.5,43793.5
Z" /> 
<path style="fill:#000000; fill-opacity:1.0; 
stroke:#000000; stroke-width:0; stroke-opacity:1; 
stroke-linecap:round; stroke-linejoin:round;fill-rule:evenodd;"
d="M 38035.5,43804.1
38085.7,43824.9
38108.1,43839.9
38130.8,43855.1
38169.2,43893.5
38169.2,43893.5
38199.3,43938.6
38220.1,43988.7
38230.7,44042
38230.7,44096.3
38220.1,44149.5
38199.3,44199.7
38199.3,44199.7
38169.2,44244.8
38130.8,44283.2
38108.1,44298.4
38085.7,44313.4
38035.5,44334.1
37982.3,44344.7
37928,44344.7
37874.7,44334.1
37824.6,44313.4
37802.2,44298.4
37779.4,44283.2
37741.1,44244.8
37710.9,44199.7
37710.9,44199.7
37690.1,44149.5
37679.5,44096.3
37679.5,44042
37690.1,43988.7
37710.9,43938.6
37741.1,43893.5
37741.1,43893.5
37779.4,43855.1
37802.2,43839.9
37824.6,43824.9
37874.7,43804.1
37928,43793.5
37982.3,43793.5
Z" /> 
<path style="fill:#000000; fill-opacity:1.0; 
stroke:#000000; stroke-width:0; stroke-opacity:1; 
stroke-linecap:round; stroke-linejoin:round;fill-rule:evenodd;"
d="M 49168.5,43408.1
49229.4,43433.4
49229.4,43433.4
49284.2,43470
49330.8,43516.6
49367.4,43571.4
49367.4,43571.4
49392.7,43632.3
49405.5,43697
49405.5,43762.9
49392.7,43827.5
49381.2,43855.1
49367.4,43888.4
49330.8,43943.2
49284.2,43989.9
49229.4,44026.5
49229.4,44026.5
49229.4,44026.5
49168.5,44051.7
49103.8,44064.6
49037.9,44064.6
48973.3,44051.7
48912.4,44026.5
48912.4,44026.5
48912.4,44026.5
48857.5,43989.9
48810.9,43943.2
48774.3,43888.4
48760.5,43855.1
48749.1,43827.5
48736.2,43762.9
48736.2,43697
48749.1,43632.3
48774.3,43571.4
48774.3,43571.4
48810.9,43516.6
48857.5,43470
48912.4,43433.4
48912.4,43433.4
48973.3,43408.1
49037.9,43395.3
49103.8,43395.3
Z" /> 
<path style="fill:#000000; fill-opacity:1.0; 
stroke:#000000; stroke-width:0; stroke-opacity:1; 
stroke-linecap:round; stroke-linejoin:round;fill-rule:evenodd;"
d="M 55688.5,43408.1
55749.4,43433.4
55749.4,43433.4
55804.2,43470
55850.8,43516.6
55887.4,43571.4
55887.4,43571.4
55912.7,43632.3
55925.5,43697
55925.5,43762.9
55912.7,43827.5
55901.2,43855.1
55887.4,43888.4
55850.8,43943.2
55804.2,43989.9
55749.4,44026.5
55749.4,44026.5
55749.4,44026.5
55688.5,44051.7
55623.8,44064.6
55557.9,44064.6
55493.3,44051.7
55432.4,44026.5
55432.4,44026.5
55432.4,44026.5
55377.5,43989.9
55330.9,43943.2
55294.3,43888.4
55280.5,43855.1
55269.1,43827.5
55256.2,43762.9
55256.2,43697
55269.1,43632.3
55294.3,43571.4
55294.3,43571.4
55330.9,43516.6
55377.5,43470
55432.4,43433.4
55432.4,43433.4
55493.3,43408.1
55557.9,43395.3
55623.8,43395.3
Z" /> 
<path style="fill:#000000; fill-opacity:1.0; 
stroke:#000000; stroke-width:0; stroke-opacity:1; 
stroke-linecap:round; stroke-linejoin:round;fill-rule:evenodd;"
d="M 54688.5,43408.1
54749.4,43433.4
54749.4,43433.4
54804.2,43470
54850.8,43516.6
54887.4,43571.4
54887.4,43571.4
54912.7,43632.3
54925.5,43697
54925.5,43762.9
54912.7,43827.5
54901.2,43855.1
54887.4,43888.4
54850.8,43943.2
54804.2,43989.9
54749.4,44026.5
54749.4,44026.5
54749.4,44026.5
54688.5,44051.7
54623.8,44064.6
54557.9,44064.6
54493.3,44051.7
54432.4,44026.5
54432.4,44026.5
54432.4,44026.5
54377.5,43989.9
54330.9,43943.2
54294.3,43888.4
54280.5,43855.1
54269.1,43827.5
54256.2,43762.9
54256.2,43697
54269.1,43632.3
54294.3,43571.4
54294.3,43571.4
54330.9,43516.6
54377.5,43470
54432.4,43433.4
54432.4,43433.4
54493.3,43408.1
54557.9,43395.3
54623.8,43395.3
Z" /> 
<path style="fill:#000000; fill-opacity:1.0; 
stroke:#000000; stroke-width:0; stroke-opacity:1; 
stroke-linecap:round; stroke-linejoin:round;fill-rule:evenodd;"
d="M 53688.5,43408.1
53749.4,43433.4
53749.4,43433.4
53804.2,43470
53850.8,43516.6
53887.4,43571.4
53887.4,43571.4
53912.7,43632.3
53925.5,43697
53925.5,43762.9
53912.7,43827.5
53901.2,43855.1
53887.4,43888.4
53850.8,43943.2
53804.2,43989.9
53749.4,44026.5
53749.4,44026.5
53749.4,44026.5
53688.5,44051.7
53623.8,44064.6
53557.9,44064.6
53493.3,44051.7
53432.4,44026.5
53432.4,44026.5
53432.4,44026.5
53377.5,43989.9
53330.9,43943.2
53294.3,43888.4
53280.5,43855.1
53269.1,43827.5
53256.2,43762.9
53256.2,43697
53269.1,43632.3
53294.3,43571.4
53294.3,43571.4
53330.9,43516.6
53377.5,43470
53432.4,43433.4
53432.4,43433.4
53493.3,43408.1
53557.9,43395.3
53623.8,43395.3
Z" /> 
<path style="fill:#000000; fill-opacity:1.0; 
stroke:#000000; stroke-width:0; stroke-opacity:1; 
stroke-linecap:round; stroke-linejoin:round;fill-rule:evenodd;"
d="M 52925.5,44064.6
52256.2,44064.6
52256.2,43395.3
52925.5,43395.3
Z" /> 
<path style="fill:#000000; fill-opacity:1.0; 
stroke:#000000; stroke-width:0; stroke-opacity:1; 
stroke-linecap:round; stroke-linejoin:round;fill-rule:evenodd;"
d="M 48168.5,43408.1
48229.4,43433.4
48229.4,43433.4
48284.2,43470
48330.8,43516.6
48367.4,43571.4
48367.4,43571.4
48392.7,43632.3
48405.5,43697
48405.5,43762.9
48392.7,43827.5
48381.2,43855.1
48367.4,43888.4
48330.8,43943.2
48284.2,43989.9
48229.4,44026.5
48229.4,44026.5
48229.4,44026.5
48168.5,44051.7
48103.8,44064.6
48037.9,44064.6
47973.3,44051.7
47912.4,44026.5
47912.4,44026.5
47912.4,44026.5
47857.5,43989.9
47810.9,43943.2
47774.3,43888.4
47760.5,43855.1
47749.1,43827.5
47736.2,43762.9
47736.2,43697
47749.1,43632.3
47774.3,43571.4
47774.3,43571.4
47810.9,43516.6
47857.5,43470
47912.4,43433.4
47912.4,43433.4
47973.3,43408.1
48037.9,43395.3
48103.8,43395.3
Z" /> 
<path style="fill:#000000; fill-opacity:1.0; 
stroke:#000000; stroke-width:0; stroke-opacity:1; 
stroke-linecap:round; stroke-linejoin:round;fill-rule:evenodd;"
d="M 47405.5,44064.6
46736.2,44064.6
46736.2,43395.3
47405.5,43395.3
Z" /> 
<path style="fill:#000000; fill-opacity:1.0; 
stroke:#000000; stroke-width:0; stroke-opacity:1; 
stroke-linecap:round; stroke-linejoin:round;fill-rule:evenodd;"
d="M 65668.5,43408.1
65729.4,43433.4
65729.4,43433.4
65784.2,43470
65830.8,43516.6
65867.4,43571.4
65867.4,43571.4
65892.7,43632.3
65905.5,43697
65905.5,43762.9
65892.7,43827.5
65881.2,43855.1
65867.4,43888.4
65830.8,43943.2
65784.2,43989.9
65729.4,44026.5
65729.4,44026.5
65729.4,44026.5
65668.5,44051.7
65603.8,44064.6
65537.9,44064.6
65473.3,44051.7
65412.4,44026.5
65412.4,44026.5
65412.4,44026.5
65357.5,43989.9
65310.9,43943.2
65274.3,43888.4
65260.5,43855.1
65249.1,43827.5
65236.2,43762.9
65236.2,43697
65249.1,43632.3
65274.3,43571.4
65274.3,43571.4
65310.9,43516.6
65357.5,43470
65412.4,43433.4
65412.4,43433.4
65473.3,43408.1
65537.9,43395.3
65603.8,43395.3
Z" /> 
<path style="fill:#000000; fill-opacity:1.0; 
stroke:#000000; stroke-width:0; stroke-opacity:1; 
stroke-linecap:round; stroke-linejoin:round;fill-rule:evenodd;"
d="M 63668.5,43408.1
63729.4,43433.4
63729.4,43433.4
63784.2,43470
63830.8,43516.6
63867.4,43571.4
63867.4,43571.4
63892.7,43632.3
63905.5,43697
63905.5,43762.9
63892.7,43827.5
63881.2,43855.1
63867.4,43888.4
63830.8,43943.2
63784.2,43989.9
63729.4,44026.5
63729.4,44026.5
63729.4,44026.5
63668.5,44051.7
63603.8,44064.6
63537.9,44064.6
63473.3,44051.7
63412.4,44026.5
63412.4,44026.5
63412.4,44026.5
63357.5,43989.9
63310.9,43943.2
63274.3,43888.4
63260.5,43855.1
63249.1,43827.5
63236.2,43762.9
63236.2,43697
63249.1,43632.3
63274.3,43571.4
63274.3,43571.4
63310.9,43516.6
63357.5,43470
63412.4,43433.4
63412.4,43433.4
63473.3,43408.1
63537.9,43395.3
63603.8,43395.3
Z" /> 
<path style="fill:#000000; fill-opacity:1.0; 
stroke:#000000; stroke-width:0; stroke-opacity:1; 
stroke-linecap:round; stroke-linejoin:round;fill-rule:evenodd;"
d="M 62668.5,43408.1
62729.4,43433.4
62729.4,43433.4
62784.2,43470
62830.8,43516.6
62867.4,43571.4
62867.4,43571.4
62892.7,43632.3
62905.5,43697
62905.5,43762.9
62892.7,43827.5
62881.2,43855.1
62867.4,43888.4
62830.8,43943.2
62784.2,43989.9
62729.4,44026.5
62729.4,44026.5
62729.4,44026.5
62668.5,44051.7
62603.8,44064.6
62537.9,44064.6
62473.3,44051.7
62412.4,44026.5
62412.4,44026.5
62412.4,44026.5
62357.5,43989.9
62310.9,43943.2
62274.3,43888.4
62260.5,43855.1
62249.1,43827.5
62236.2,43762.9
62236.2,43697
62249.1,43632.3
62274.3,43571.4
62274.3,43571.4
62310.9,43516.6
62357.5,43470
62412.4,43433.4
62412.4,43433.4
62473.3,43408.1
62537.9,43395.3
62603.8,43395.3
Z" /> 
<path style="fill:#000000; fill-opacity:1.0; 
stroke:#000000; stroke-width:0; stroke-opacity:1; 
stroke-linecap:round; stroke-linejoin:round;fill-rule:evenodd;"
d="M 56688.5,43408.1
56749.4,43433.4
56749.4,43433.4
56804.2,43470
56850.8,43516.6
56887.4,43571.4
56887.4,43571.4
56912.7,43632.3
56925.5,43697
56925.5,43762.9
56912.7,43827.5
56901.2,43855.1
56887.4,43888.4
56850.8,43943.2
56804.2,43989.9
56749.4,44026.5
56749.4,44026.5
56749.4,44026.5
56688.5,44051.7
56623.8,44064.6
56557.9,44064.6
56493.3,44051.7
56432.4,44026.5
56432.4,44026.5
56432.4,44026.5
56377.5,43989.9
56330.9,43943.2
56294.3,43888.4
56280.5,43855.1
56269.1,43827.5
56256.2,43762.9
56256.2,43697
56269.1,43632.3
56294.3,43571.4
56294.3,43571.4
56330.9,43516.6
56377.5,43470
56432.4,43433.4
56432.4,43433.4
56493.3,43408.1
56557.9,43395.3
56623.8,43395.3
Z" /> 
<path style="fill:#000000; fill-opacity:1.0; 
stroke:#000000; stroke-width:0; stroke-opacity:1; 
stroke-linecap:round; stroke-linejoin:round;fill-rule:evenodd;"
d="M 61668.5,43408.1
61729.4,43433.4
61729.4,43433.4
61784.2,43470
61830.8,43516.6
61867.4,43571.4
61867.4,43571.4
61892.7,43632.3
61905.5,43697
61905.5,43762.9
61892.7,43827.5
61881.2,43855.1
61867.4,43888.4
61830.8,43943.2
61784.2,43989.9
61729.4,44026.5
61729.4,44026.5
61729.4,44026.5
61668.5,44051.7
61603.8,44064.6
61537.9,44064.6
61473.3,44051.7
61412.4,44026.5
61412.4,44026.5
61412.4,44026.5
61357.5,43989.9
61310.9,43943.2
61274.3,43888.4
61260.5,43855.1
61249.1,43827.5
61236.2,43762.9
61236.2,43697
61249.1,43632.3
61274.3,43571.4
61274.3,43571.4
61310.9,43516.6
61357.5,43470
61412.4,43433.4
61412.4,43433.4
61473.3,43408.1
61537.9,43395.3
61603.8,43395.3
Z" /> 
<path style="fill:#000000; fill-opacity:1.0; 
stroke:#000000; stroke-width:0; stroke-opacity:1; 
stroke-linecap:round; stroke-linejoin:round;fill-rule:evenodd;"
d="M 60668.5,43408.1
60729.4,43433.4
60729.4,43433.4
60784.2,43470
60830.8,43516.6
60867.4,43571.4
60867.4,43571.4
60892.7,43632.3
60905.5,43697
60905.5,43762.9
60892.7,43827.5
60881.2,43855.1
60867.4,43888.4
60830.8,43943.2
60784.2,43989.9
60729.4,44026.5
60729.4,44026.5
60729.4,44026.5
60668.5,44051.7
60603.8,44064.6
60537.9,44064.6
60473.3,44051.7
60412.4,44026.5
60412.4,44026.5
60412.4,44026.5
60357.5,43989.9
60310.9,43943.2
60274.3,43888.4
60260.5,43855.1
60249.1,43827.5
60236.2,43762.9
60236.2,43697
60249.1,43632.3
60274.3,43571.4
60274.3,43571.4
60310.9,43516.6
60357.5,43470
60412.4,43433.4
60412.4,43433.4
60473.3,43408.1
60537.9,43395.3
60603.8,43395.3
Z" /> 
<path style="fill:#000000; fill-opacity:1.0; 
stroke:#000000; stroke-width:0; stroke-opacity:1; 
stroke-linecap:round; stroke-linejoin:round;fill-rule:evenodd;"
d="M 59668.5,43408.1
59729.4,43433.4
59729.4,43433.4
59784.2,43470
59830.8,43516.6
59867.4,43571.4
59867.4,43571.4
59892.7,43632.3
59905.5,43697
59905.5,43762.9
59892.7,43827.5
59881.2,43855.1
59867.4,43888.4
59830.8,43943.2
59784.2,43989.9
59729.4,44026.5
59729.4,44026.5
59729.4,44026.5
59668.5,44051.7
59603.8,44064.6
59537.9,44064.6
59473.3,44051.7
59412.4,44026.5
59412.4,44026.5
59412.4,44026.5
59357.5,43989.9
59310.9,43943.2
59274.3,43888.4
59260.5,43855.1
59249.1,43827.5
59236.2,43762.9
59236.2,43697
59249.1,43632.3
59274.3,43571.4
59274.3,43571.4
59310.9,43516.6
59357.5,43470
59412.4,43433.4
59412.4,43433.4
59473.3,43408.1
59537.9,43395.3
59603.8,43395.3
Z" /> 
<path style="fill:#000000; fill-opacity:1.0; 
stroke:#000000; stroke-width:0; stroke-opacity:1; 
stroke-linecap:round; stroke-linejoin:round;fill-rule:evenodd;"
d="M 58905.5,44064.6
58236.2,44064.6
58236.2,43395.3
58905.5,43395.3
Z" /> 
<path style="fill:#000000; fill-opacity:1.0; 
stroke:#000000; stroke-width:0; stroke-opacity:1; 
stroke-linecap:round; stroke-linejoin:round;fill-rule:evenodd;"
d="M 64668.5,43408.1
64729.4,43433.4
64729.4,43433.4
64784.2,43470
64830.8,43516.6
64867.4,43571.4
64867.4,43571.4
64892.7,43632.3
64905.5,43697
64905.5,43762.9
64892.7,43827.5
64881.2,43855.1
64867.4,43888.4
64830.8,43943.2
64784.2,43989.9
64729.4,44026.5
64729.4,44026.5
64729.4,44026.5
64668.5,44051.7
64603.8,44064.6
64537.9,44064.6
64473.3,44051.7
64412.4,44026.5
64412.4,44026.5
64412.4,44026.5
64357.5,43989.9
64310.9,43943.2
64274.3,43888.4
64260.5,43855.1
64249.1,43827.5
64236.2,43762.9
64236.2,43697
64249.1,43632.3
64274.3,43571.4
64274.3,43571.4
64310.9,43516.6
64357.5,43470
64412.4,43433.4
64412.4,43433.4
64473.3,43408.1
64537.9,43395.3
64603.8,43395.3
Z" /> 
<path style="fill:#000000; fill-opacity:1.0; 
stroke:#000000; stroke-width:0; stroke-opacity:1; 
stroke-linecap:round; stroke-linejoin:round;fill-rule:evenodd;"
d="M 37246.5,43045.5
36695.3,43045.5
36695.3,42494.3
37246.5,42494.3
Z" /> 
<path style="fill:#000000; fill-opacity:1.0; 
stroke:#000000; stroke-width:0; stroke-opacity:1; 
stroke-linecap:round; stroke-linejoin:round;fill-rule:evenodd;"
d="M 39019.8,42504.9
39069.9,42525.7
39069.9,42525.7
39115,42555.9
39153.4,42594.2
39153.4,42594.2
39183.6,42639.4
39204.4,42689.5
39215,42742.8
39215,42797.1
39204.4,42850.3
39183.6,42900.5
39183.6,42900.5
39153.4,42945.6
39115,42984
39092.3,42999.2
39069.9,43014.1
39019.8,43034.9
38966.5,43045.5
38912.2,43045.5
38859,43034.9
38808.8,43014.1
38786.4,42999.2
38763.7,42984
38725.3,42945.6
38695.1,42900.5
38695.1,42900.5
38674.4,42850.3
38663.8,42797.1
38663.8,42742.8
38674.4,42689.5
38695.1,42639.4
38725.3,42594.2
38725.3,42594.2
38763.7,42555.9
38808.8,42525.7
38808.8,42525.7
38859,42504.9
38912.2,42494.3
38966.5,42494.3
Z" /> 
<path style="fill:#000000; fill-opacity:1.0; 
stroke:#000000; stroke-width:0; stroke-opacity:1; 
stroke-linecap:round; stroke-linejoin:round;fill-rule:evenodd;"
d="M 38035.5,42504.9
38085.7,42525.7
38085.7,42525.7
38130.8,42555.9
38169.2,42594.2
38169.2,42594.2
38199.3,42639.4
38220.1,42689.5
38230.7,42742.8
38230.7,42797.1
38220.1,42850.3
38199.3,42900.5
38199.3,42900.5
38169.2,42945.6
38130.8,42984
38108.1,42999.2
38085.7,43014.1
38035.5,43034.9
37982.3,43045.5
37928,43045.5
37874.7,43034.9
37824.6,43014.1
37802.2,42999.2
37779.4,42984
37741.1,42945.6
37710.9,42900.5
37710.9,42900.5
37690.1,42850.3
37679.5,42797.1
37679.5,42742.8
37690.1,42689.5
37710.9,42639.4
37741.1,42594.2
37741.1,42594.2
37779.4,42555.9
37824.6,42525.7
37824.6,42525.7
37874.7,42504.9
37928,42494.3
37982.3,42494.3
Z" /> 
<path style="fill:#000000; fill-opacity:1.0; 
stroke:#000000; stroke-width:0; stroke-opacity:1; 
stroke-linecap:round; stroke-linejoin:round;fill-rule:evenodd;"
d="M 37625.5,41504.6
36956.2,41504.6
36956.2,40835.3
37625.5,40835.3
Z" /> 
<path style="fill:#000000; fill-opacity:1.0; 
stroke:#000000; stroke-width:0; stroke-opacity:1; 
stroke-linecap:round; stroke-linejoin:round;fill-rule:evenodd;"
d="M 38388.5,40848.1
38449.4,40873.4
38449.4,40873.4
38504.2,40910
38550.8,40956.6
38587.4,41011.4
38587.4,41011.4
38612.7,41072.3
38625.5,41137
38625.5,41202.9
38612.7,41267.5
38587.4,41328.4
38587.4,41328.4
38550.8,41383.2
38504.2,41429.9
38449.4,41466.5
38449.4,41466.5
38449.4,41466.5
38388.5,41491.7
38323.8,41504.6
38257.9,41504.6
38193.3,41491.7
38132.4,41466.5
38132.4,41466.5
38132.4,41466.5
38077.5,41429.9
38030.9,41383.2
37994.3,41328.4
37994.3,41328.4
37969.1,41267.5
37956.2,41202.9
37956.2,41137
37969.1,41072.3
37994.3,41011.4
37994.3,41011.4
38030.9,40956.6
38077.5,40910
38132.4,40873.4
38132.4,40873.4
38193.3,40848.1
38257.9,40835.3
38323.8,40835.3
Z" /> 
<path style="fill:#000000; fill-opacity:1.0; 
stroke:#000000; stroke-width:0; stroke-opacity:1; 
stroke-linecap:round; stroke-linejoin:round;fill-rule:evenodd;"
d="M 39388.5,40848.1
39449.4,40873.4
39449.4,40873.4
39504.2,40910
39550.8,40956.6
39587.4,41011.4
39587.4,41011.4
39612.7,41072.3
39625.5,41137
39625.5,41202.9
39612.7,41267.5
39587.4,41328.4
39587.4,41328.4
39550.8,41383.2
39504.2,41429.9
39449.4,41466.5
39449.4,41466.5
39449.4,41466.5
39388.5,41491.7
39323.8,41504.6
39257.9,41504.6
39193.3,41491.7
39132.4,41466.5
39132.4,41466.5
39132.4,41466.5
39077.5,41429.9
39030.9,41383.2
38994.3,41328.4
38994.3,41328.4
38969.1,41267.5
38956.2,41202.9
38956.2,41137
38969.1,41072.3
38994.3,41011.4
38994.3,41011.4
39030.9,40956.6
39077.5,40910
39132.4,40873.4
39132.4,40873.4
39193.3,40848.1
39257.9,40835.3
39323.8,40835.3
Z" /> 
<path style="fill:#000000; fill-opacity:1.0; 
stroke:#000000; stroke-width:0; stroke-opacity:1; 
stroke-linecap:round; stroke-linejoin:round;fill-rule:evenodd;"
d="M 40388.5,40848.1
40449.4,40873.4
40449.4,40873.4
40504.2,40910
40550.8,40956.6
40587.4,41011.4
40587.4,41011.4
40612.7,41072.3
40625.5,41137
40625.5,41202.9
40612.7,41267.5
40587.4,41328.4
40587.4,41328.4
40550.8,41383.2
40504.2,41429.9
40449.4,41466.5
40449.4,41466.5
40449.4,41466.5
40388.5,41491.7
40323.8,41504.6
40257.9,41504.6
40193.3,41491.7
40132.4,41466.5
40132.4,41466.5
40132.4,41466.5
40077.5,41429.9
40030.9,41383.2
39994.3,41328.4
39994.3,41328.4
39969.1,41267.5
39956.2,41202.9
39956.2,41137
39969.1,41072.3
39994.3,41011.4
39994.3,41011.4
40030.9,40956.6
40077.5,40910
40132.4,40873.4
40132.4,40873.4
40193.3,40848.1
40257.9,40835.3
40323.8,40835.3
Z" /> 
<path style="fill:#000000; fill-opacity:1.0; 
stroke:#000000; stroke-width:0; stroke-opacity:1; 
stroke-linecap:round; stroke-linejoin:round;fill-rule:evenodd;"
d="M 60967.7,40946.8
60574,40946.8
60574,40553.1
60967.7,40553.1
Z" /> 
<path style="fill:#000000; fill-opacity:1.0; 
stroke:#000000; stroke-width:0; stroke-opacity:1; 
stroke-linecap:round; stroke-linejoin:round;fill-rule:evenodd;"
d="M 37388.5,39848.1
37449.4,39873.4
37449.4,39873.4
37504.2,39910
37550.8,39956.6
37561.3,39972.3
37587.4,40011.4
37612.7,40072.3
37625.5,40137
37625.5,40202.9
37612.7,40267.5
37587.4,40328.4
37587.4,40328.4
37550.8,40383.2
37504.2,40429.9
37449.4,40466.5
37449.4,40466.5
37449.4,40466.5
37388.5,40491.7
37323.8,40504.6
37257.9,40504.6
37193.3,40491.7
37132.4,40466.5
37132.4,40466.5
37132.4,40466.5
37077.5,40429.9
37030.9,40383.2
36994.3,40328.4
36994.3,40328.4
36969.1,40267.5
36956.2,40202.9
36956.2,40137
36969.1,40072.3
36994.3,40011.4
37020.4,39972.3
37030.9,39956.6
37077.5,39910
37132.4,39873.4
37132.4,39873.4
37193.3,39848.1
37257.9,39835.3
37323.8,39835.3
Z" /> 
<path style="fill:#000000; fill-opacity:1.0; 
stroke:#000000; stroke-width:0; stroke-opacity:1; 
stroke-linecap:round; stroke-linejoin:round;fill-rule:evenodd;"
d="M 40388.5,39848.1
40449.4,39873.4
40449.4,39873.4
40504.2,39910
40550.8,39956.6
40561.3,39972.3
40587.4,40011.4
40612.7,40072.3
40625.5,40137
40625.5,40202.9
40612.7,40267.5
40587.4,40328.4
40587.4,40328.4
40550.8,40383.2
40504.2,40429.9
40449.4,40466.5
40449.4,40466.5
40449.4,40466.5
40388.5,40491.7
40323.8,40504.6
40257.9,40504.6
40193.3,40491.7
40132.4,40466.5
40132.4,40466.5
40132.4,40466.5
40077.5,40429.9
40030.9,40383.2
39994.3,40328.4
39994.3,40328.4
39969.1,40267.5
39956.2,40202.9
39956.2,40137
39969.1,40072.3
39994.3,40011.4
40020.4,39972.3
40030.9,39956.6
40077.5,39910
40132.4,39873.4
40132.4,39873.4
40193.3,39848.1
40257.9,39835.3
40323.8,39835.3
Z" /> 
<path style="fill:#000000; fill-opacity:1.0; 
stroke:#000000; stroke-width:0; stroke-opacity:1; 
stroke-linecap:round; stroke-linejoin:round;fill-rule:evenodd;"
d="M 38388.5,39848.1
38449.4,39873.4
38449.4,39873.4
38504.2,39910
38550.8,39956.6
38561.3,39972.3
38587.4,40011.4
38612.7,40072.3
38625.5,40137
38625.5,40202.9
38612.7,40267.5
38587.4,40328.4
38587.4,40328.4
38550.8,40383.2
38504.2,40429.9
38449.4,40466.5
38449.4,40466.5
38449.4,40466.5
38388.5,40491.7
38323.8,40504.6
38257.9,40504.6
38193.3,40491.7
38132.4,40466.5
38132.4,40466.5
38132.4,40466.5
38077.5,40429.9
38030.9,40383.2
37994.3,40328.4
37994.3,40328.4
37969.1,40267.5
37956.2,40202.9
37956.2,40137
37969.1,40072.3
37994.3,40011.4
38020.4,39972.3
38030.9,39956.6
38077.5,39910
38132.4,39873.4
38132.4,39873.4
38193.3,39848.1
38257.9,39835.3
38323.8,39835.3
Z" /> 
<path style="fill:#000000; fill-opacity:1.0; 
stroke:#000000; stroke-width:0; stroke-opacity:1; 
stroke-linecap:round; stroke-linejoin:round;fill-rule:evenodd;"
d="M 39388.5,39848.1
39449.4,39873.4
39449.4,39873.4
39504.2,39910
39550.8,39956.6
39561.3,39972.3
39587.4,40011.4
39612.7,40072.3
39625.5,40137
39625.5,40202.9
39612.7,40267.5
39587.4,40328.4
39587.4,40328.4
39550.8,40383.2
39504.2,40429.9
39449.4,40466.5
39449.4,40466.5
39449.4,40466.5
39388.5,40491.7
39323.8,40504.6
39257.9,40504.6
39193.3,40491.7
39132.4,40466.5
39132.4,40466.5
39132.4,40466.5
39077.5,40429.9
39030.9,40383.2
38994.3,40328.4
38994.3,40328.4
38969.1,40267.5
38956.2,40202.9
38956.2,40137
38969.1,40072.3
38994.3,40011.4
39020.4,39972.3
39030.9,39956.6
39077.5,39910
39132.4,39873.4
39132.4,39873.4
39193.3,39848.1
39257.9,39835.3
39323.8,39835.3
Z" /> 
<path style="fill:#000000; fill-opacity:1.0; 
stroke:#000000; stroke-width:0; stroke-opacity:1; 
stroke-linecap:round; stroke-linejoin:round;fill-rule:evenodd;"
d="M 73828.5,39748.1
73889.4,39773.4
73889.4,39773.4
73944.2,39810
73990.8,39856.6
74027.4,39911.4
74027.4,39911.4
74052.7,39972.3
74065.5,40037
74065.5,40102.9
74052.7,40167.5
74027.4,40228.4
74027.4,40228.4
73990.8,40283.2
73944.2,40329.9
73889.4,40366.5
73889.4,40366.5
73889.4,40366.5
73828.5,40391.7
73763.8,40404.6
73697.9,40404.6
73633.3,40391.7
73572.4,40366.5
73572.4,40366.5
73572.4,40366.5
73517.5,40329.9
73470.9,40283.2
73434.3,40228.4
73434.3,40228.4
73409.1,40167.5
73396.2,40102.9
73396.2,40037
73409.1,39972.3
73434.3,39911.4
73434.3,39911.4
73470.9,39856.6
73517.5,39810
73572.4,39773.4
73572.4,39773.4
73633.3,39748.1
73697.9,39735.3
73763.8,39735.3
Z" /> 
<path style="fill:#000000; fill-opacity:1.0; 
stroke:#000000; stroke-width:0; stroke-opacity:1; 
stroke-linecap:round; stroke-linejoin:round;fill-rule:evenodd;"
d="M 72828.5,39748.1
72889.4,39773.4
72889.4,39773.4
72944.2,39810
72990.8,39856.6
73027.4,39911.4
73027.4,39911.4
73052.7,39972.3
73065.5,40037
73065.5,40102.9
73052.7,40167.5
73027.4,40228.4
73027.4,40228.4
72990.8,40283.2
72944.2,40329.9
72889.4,40366.5
72889.4,40366.5
72889.4,40366.5
72828.5,40391.7
72763.8,40404.6
72697.9,40404.6
72633.3,40391.7
72572.4,40366.5
72572.4,40366.5
72572.4,40366.5
72517.5,40329.9
72470.9,40283.2
72434.3,40228.4
72434.3,40228.4
72409.1,40167.5
72396.2,40102.9
72396.2,40037
72409.1,39972.3
72434.3,39911.4
72434.3,39911.4
72470.9,39856.6
72517.5,39810
72572.4,39773.4
72572.4,39773.4
72633.3,39748.1
72697.9,39735.3
72763.8,39735.3
Z" /> 
<path style="fill:#000000; fill-opacity:1.0; 
stroke:#000000; stroke-width:0; stroke-opacity:1; 
stroke-linecap:round; stroke-linejoin:round;fill-rule:evenodd;"
d="M 72828.5,38748.1
72889.4,38773.4
72889.4,38773.4
72944.2,38810
72990.8,38856.6
73027.4,38911.4
73027.4,38911.4
73052.7,38972.3
73065.5,39037
73065.5,39102.9
73052.7,39167.5
73027.4,39228.4
73027.4,39228.4
72990.8,39283.2
72944.2,39329.9
72889.4,39366.5
72889.4,39366.5
72889.4,39366.5
72828.5,39391.7
72763.8,39404.6
72697.9,39404.6
72633.3,39391.7
72572.4,39366.5
72572.4,39366.5
72572.4,39366.5
72517.5,39329.9
72470.9,39283.2
72434.3,39228.4
72434.3,39228.4
72409.1,39167.5
72396.2,39102.9
72396.2,39037
72409.1,38972.3
72434.3,38911.4
72434.3,38911.4
72470.9,38856.6
72517.5,38810
72572.4,38773.4
72572.4,38773.4
72633.3,38748.1
72697.9,38735.3
72763.8,38735.3
Z" /> 
<path style="fill:#000000; fill-opacity:1.0; 
stroke:#000000; stroke-width:0; stroke-opacity:1; 
stroke-linecap:round; stroke-linejoin:round;fill-rule:evenodd;"
d="M 73828.5,38748.1
73889.4,38773.4
73889.4,38773.4
73944.2,38810
73990.8,38856.6
74027.4,38911.4
74027.4,38911.4
74052.7,38972.3
74065.5,39037
74065.5,39102.9
74052.7,39167.5
74027.4,39228.4
74027.4,39228.4
73990.8,39283.2
73944.2,39329.9
73889.4,39366.5
73889.4,39366.5
73889.4,39366.5
73828.5,39391.7
73763.8,39404.6
73697.9,39404.6
73633.3,39391.7
73572.4,39366.5
73572.4,39366.5
73572.4,39366.5
73517.5,39329.9
73470.9,39283.2
73434.3,39228.4
73434.3,39228.4
73409.1,39167.5
73396.2,39102.9
73396.2,39037
73409.1,38972.3
73434.3,38911.4
73434.3,38911.4
73470.9,38856.6
73517.5,38810
73572.4,38773.4
73572.4,38773.4
73633.3,38748.1
73697.9,38735.3
73763.8,38735.3
Z" /> 
<path style="fill:#000000; fill-opacity:1.0; 
stroke:#000000; stroke-width:0; stroke-opacity:1; 
stroke-linecap:round; stroke-linejoin:round;fill-rule:evenodd;"
d="M 73828.5,37748.1
73889.4,37773.4
73889.4,37773.4
73944.2,37810
73990.8,37856.6
74027.4,37911.4
74027.4,37911.4
74052.7,37972.3
74065.5,38037
74065.5,38102.9
74052.7,38167.5
74027.4,38228.4
74027.4,38228.4
73990.8,38283.2
73944.2,38329.9
73889.4,38366.5
73889.4,38366.5
73889.4,38366.5
73828.5,38391.7
73763.8,38404.6
73697.9,38404.6
73633.3,38391.7
73572.4,38366.5
73572.4,38366.5
73572.4,38366.5
73517.5,38329.9
73470.9,38283.2
73434.3,38228.4
73434.3,38228.4
73409.1,38167.5
73396.2,38102.9
73396.2,38037
73409.1,37972.3
73434.3,37911.4
73434.3,37911.4
73470.9,37856.6
73517.5,37810
73572.4,37773.4
73572.4,37773.4
73633.3,37748.1
73697.9,37735.3
73763.8,37735.3
Z" /> 
<path style="fill:#000000; fill-opacity:1.0; 
stroke:#000000; stroke-width:0; stroke-opacity:1; 
stroke-linecap:round; stroke-linejoin:round;fill-rule:evenodd;"
d="M 72828.5,37748.1
72889.4,37773.4
72889.4,37773.4
72944.2,37810
72990.8,37856.6
73027.4,37911.4
73027.4,37911.4
73052.7,37972.3
73065.5,38037
73065.5,38102.9
73052.7,38167.5
73027.4,38228.4
73027.4,38228.4
72990.8,38283.2
72944.2,38329.9
72889.4,38366.5
72889.4,38366.5
72889.4,38366.5
72828.5,38391.7
72763.8,38404.6
72697.9,38404.6
72633.3,38391.7
72572.4,38366.5
72572.4,38366.5
72572.4,38366.5
72517.5,38329.9
72470.9,38283.2
72434.3,38228.4
72434.3,38228.4
72409.1,38167.5
72396.2,38102.9
72396.2,38037
72409.1,37972.3
72434.3,37911.4
72434.3,37911.4
72470.9,37856.6
72517.5,37810
72572.4,37773.4
72572.4,37773.4
72633.3,37748.1
72697.9,37735.3
72763.8,37735.3
Z" /> 
<path style="fill:#000000; fill-opacity:1.0; 
stroke:#000000; stroke-width:0; stroke-opacity:1; 
stroke-linecap:round; stroke-linejoin:round;fill-rule:evenodd;"
d="M 48408.5,36818.1
48469.4,36843.4
48469.4,36843.4
48524.2,36880
48570.8,36926.6
48601.3,36972.3
48607.4,36981.4
48632.7,37042.3
48645.5,37107
48645.5,37172.9
48632.7,37237.5
48607.4,37298.4
48607.4,37298.4
48570.8,37353.2
48524.2,37399.9
48469.4,37436.5
48469.4,37436.5
48469.4,37436.5
48408.5,37461.7
48343.8,37474.6
48277.9,37474.6
48213.3,37461.7
48152.4,37436.5
48152.4,37436.5
48152.4,37436.5
48097.5,37399.9
48050.9,37353.2
48014.3,37298.4
48014.3,37298.4
47989.1,37237.5
47976.2,37172.9
47976.2,37107
47989.1,37042.3
48014.3,36981.4
48020.4,36972.3
48050.9,36926.6
48097.5,36880
48152.4,36843.4
48152.4,36843.4
48213.3,36818.1
48277.9,36805.3
48343.8,36805.3
Z" /> 
<path style="fill:#000000; fill-opacity:1.0; 
stroke:#000000; stroke-width:0; stroke-opacity:1; 
stroke-linecap:round; stroke-linejoin:round;fill-rule:evenodd;"
d="M 46645.5,37474.6
45976.2,37474.6
45976.2,36805.3
46645.5,36805.3
Z" /> 
<path style="fill:#000000; fill-opacity:1.0; 
stroke:#000000; stroke-width:0; stroke-opacity:1; 
stroke-linecap:round; stroke-linejoin:round;fill-rule:evenodd;"
d="M 49408.5,36818.1
49469.4,36843.4
49469.4,36843.4
49524.2,36880
49570.8,36926.6
49601.3,36972.3
49607.4,36981.4
49632.7,37042.3
49645.5,37107
49645.5,37172.9
49632.7,37237.5
49607.4,37298.4
49607.4,37298.4
49570.8,37353.2
49524.2,37399.9
49469.4,37436.5
49469.4,37436.5
49469.4,37436.5
49408.5,37461.7
49343.8,37474.6
49277.9,37474.6
49213.3,37461.7
49152.4,37436.5
49152.4,37436.5
49152.4,37436.5
49097.5,37399.9
49050.9,37353.2
49014.3,37298.4
49014.3,37298.4
48989.1,37237.5
48976.2,37172.9
48976.2,37107
48989.1,37042.3
49014.3,36981.4
49020.4,36972.3
49050.9,36926.6
49097.5,36880
49152.4,36843.4
49152.4,36843.4
49213.3,36818.1
49277.9,36805.3
49343.8,36805.3
Z" /> 
<path style="fill:#000000; fill-opacity:1.0; 
stroke:#000000; stroke-width:0; stroke-opacity:1; 
stroke-linecap:round; stroke-linejoin:round;fill-rule:evenodd;"
d="M 50408.5,36818.1
50469.4,36843.4
50469.4,36843.4
50524.2,36880
50570.8,36926.6
50601.3,36972.3
50607.4,36981.4
50632.7,37042.3
50645.5,37107
50645.5,37172.9
50632.7,37237.5
50607.4,37298.4
50607.4,37298.4
50570.8,37353.2
50524.2,37399.9
50469.4,37436.5
50469.4,37436.5
50469.4,37436.5
50408.5,37461.7
50343.8,37474.6
50277.9,37474.6
50213.3,37461.7
50152.4,37436.5
50152.4,37436.5
50152.4,37436.5
50097.5,37399.9
50050.9,37353.2
50014.3,37298.4
50014.3,37298.4
49989.1,37237.5
49976.2,37172.9
49976.2,37107
49989.1,37042.3
50014.3,36981.4
50020.4,36972.3
50050.9,36926.6
50097.5,36880
50152.4,36843.4
50152.4,36843.4
50213.3,36818.1
50277.9,36805.3
50343.8,36805.3
Z" /> 
<path style="fill:#000000; fill-opacity:1.0; 
stroke:#000000; stroke-width:0; stroke-opacity:1; 
stroke-linecap:round; stroke-linejoin:round;fill-rule:evenodd;"
d="M 47408.5,36818.1
47469.4,36843.4
47469.4,36843.4
47524.2,36880
47570.8,36926.6
47601.3,36972.3
47607.4,36981.4
47632.7,37042.3
47645.5,37107
47645.5,37172.9
47632.7,37237.5
47607.4,37298.4
47607.4,37298.4
47570.8,37353.2
47524.2,37399.9
47469.4,37436.5
47469.4,37436.5
47469.4,37436.5
47408.5,37461.7
47343.8,37474.6
47277.9,37474.6
47213.3,37461.7
47152.4,37436.5
47152.4,37436.5
47152.4,37436.5
47097.5,37399.9
47050.9,37353.2
47014.3,37298.4
47014.3,37298.4
46989.1,37237.5
46976.2,37172.9
46976.2,37107
46989.1,37042.3
47014.3,36981.4
47020.4,36972.3
47050.9,36926.6
47097.5,36880
47152.4,36843.4
47152.4,36843.4
47213.3,36818.1
47277.9,36805.3
47343.8,36805.3
Z" /> 
<path style="fill:#000000; fill-opacity:1.0; 
stroke:#000000; stroke-width:0; stroke-opacity:1; 
stroke-linecap:round; stroke-linejoin:round;fill-rule:evenodd;"
d="M 72828.5,36748.1
72889.4,36773.4
72889.4,36773.4
72944.2,36810
72990.8,36856.6
73027.4,36911.4
73027.4,36911.4
73052.7,36972.3
73065.5,37037
73065.5,37102.9
73052.7,37167.5
73050.4,37172.9
73027.4,37228.4
72990.8,37283.2
72944.2,37329.9
72889.4,37366.5
72889.4,37366.5
72889.4,37366.5
72828.5,37391.7
72763.8,37404.6
72697.9,37404.6
72633.3,37391.7
72572.4,37366.5
72572.4,37366.5
72572.4,37366.5
72517.5,37329.9
72470.9,37283.2
72434.3,37228.4
72411.3,37172.9
72409.1,37167.5
72396.2,37102.9
72396.2,37037
72409.1,36972.3
72434.3,36911.4
72434.3,36911.4
72470.9,36856.6
72517.5,36810
72572.4,36773.4
72572.4,36773.4
72633.3,36748.1
72697.9,36735.3
72763.8,36735.3
Z" /> 
<path style="fill:#000000; fill-opacity:1.0; 
stroke:#000000; stroke-width:0; stroke-opacity:1; 
stroke-linecap:round; stroke-linejoin:round;fill-rule:evenodd;"
d="M 73828.5,36748.1
73889.4,36773.4
73889.4,36773.4
73944.2,36810
73990.8,36856.6
74027.4,36911.4
74027.4,36911.4
74052.7,36972.3
74065.5,37037
74065.5,37102.9
74052.7,37167.5
74050.4,37172.9
74027.4,37228.4
73990.8,37283.2
73944.2,37329.9
73889.4,37366.5
73889.4,37366.5
73889.4,37366.5
73828.5,37391.7
73763.8,37404.6
73697.9,37404.6
73633.3,37391.7
73572.4,37366.5
73572.4,37366.5
73572.4,37366.5
73517.5,37329.9
73470.9,37283.2
73434.3,37228.4
73411.3,37172.9
73409.1,37167.5
73396.2,37102.9
73396.2,37037
73409.1,36972.3
73434.3,36911.4
73434.3,36911.4
73470.9,36856.6
73517.5,36810
73572.4,36773.4
73572.4,36773.4
73633.3,36748.1
73697.9,36735.3
73763.8,36735.3
Z" /> 
<path style="fill:#000000; fill-opacity:1.0; 
stroke:#000000; stroke-width:0; stroke-opacity:1; 
stroke-linecap:round; stroke-linejoin:round;fill-rule:evenodd;"
d="M 72828.5,35748.1
72889.4,35773.4
72889.4,35773.4
72944.2,35810
72990.8,35856.6
73027.4,35911.4
73027.4,35911.4
73052.7,35972.3
73065.5,36037
73065.5,36102.9
73052.7,36167.5
73027.4,36228.4
73027.4,36228.4
72990.8,36283.2
72944.2,36329.9
72889.4,36366.5
72889.4,36366.5
72889.4,36366.5
72828.5,36391.7
72763.8,36404.6
72697.9,36404.6
72633.3,36391.7
72572.4,36366.5
72572.4,36366.5
72572.4,36366.5
72517.5,36329.9
72470.9,36283.2
72434.3,36228.4
72434.3,36228.4
72409.1,36167.5
72396.2,36102.9
72396.2,36037
72409.1,35972.3
72434.3,35911.4
72434.3,35911.4
72470.9,35856.6
72517.5,35810
72572.4,35773.4
72572.4,35773.4
72633.3,35748.1
72697.9,35735.3
72763.8,35735.3
Z" /> 
<path style="fill:#000000; fill-opacity:1.0; 
stroke:#000000; stroke-width:0; stroke-opacity:1; 
stroke-linecap:round; stroke-linejoin:round;fill-rule:evenodd;"
d="M 73828.5,35748.1
73889.4,35773.4
73889.4,35773.4
73944.2,35810
73990.8,35856.6
74027.4,35911.4
74027.4,35911.4
74052.7,35972.3
74065.5,36037
74065.5,36102.9
74052.7,36167.5
74027.4,36228.4
74027.4,36228.4
73990.8,36283.2
73944.2,36329.9
73889.4,36366.5
73889.4,36366.5
73889.4,36366.5
73828.5,36391.7
73763.8,36404.6
73697.9,36404.6
73633.3,36391.7
73572.4,36366.5
73572.4,36366.5
73572.4,36366.5
73517.5,36329.9
73470.9,36283.2
73434.3,36228.4
73434.3,36228.4
73409.1,36167.5
73396.2,36102.9
73396.2,36037
73409.1,35972.3
73434.3,35911.4
73434.3,35911.4
73470.9,35856.6
73517.5,35810
73572.4,35773.4
73572.4,35773.4
73633.3,35748.1
73697.9,35735.3
73763.8,35735.3
Z" /> 
<path style="fill:#000000; fill-opacity:1.0; 
stroke:#000000; stroke-width:0; stroke-opacity:1; 
stroke-linecap:round; stroke-linejoin:round;fill-rule:evenodd;"
d="M 49605.5,35614.6
48936.2,35614.6
48936.2,34945.3
49605.5,34945.3
Z" /> 
<path style="fill:#000000; fill-opacity:1.0; 
stroke:#000000; stroke-width:0; stroke-opacity:1; 
stroke-linecap:round; stroke-linejoin:round;fill-rule:evenodd;"
d="M 73828.5,34748.1
73889.4,34773.4
73889.4,34773.4
73944.2,34810
73990.8,34856.6
74027.4,34911.4
74027.4,34911.4
74052.7,34972.3
74065.5,35037
74065.5,35102.9
74052.7,35167.5
74027.4,35228.4
74027.4,35228.4
73990.8,35283.2
73944.2,35329.9
73889.4,35366.5
73889.4,35366.5
73889.4,35366.5
73828.5,35391.7
73763.8,35404.6
73697.9,35404.6
73633.3,35391.7
73572.4,35366.5
73572.4,35366.5
73572.4,35366.5
73517.5,35329.9
73470.9,35283.2
73434.3,35228.4
73434.3,35228.4
73409.1,35167.5
73396.2,35102.9
73396.2,35037
73409.1,34972.3
73434.3,34911.4
73434.3,34911.4
73470.9,34856.6
73517.5,34810
73572.4,34773.4
73572.4,34773.4
73633.3,34748.1
73697.9,34735.3
73763.8,34735.3
Z" /> 
<path style="fill:#000000; fill-opacity:1.0; 
stroke:#000000; stroke-width:0; stroke-opacity:1; 
stroke-linecap:round; stroke-linejoin:round;fill-rule:evenodd;"
d="M 72828.5,34748.1
72889.4,34773.4
72889.4,34773.4
72944.2,34810
72990.8,34856.6
73027.4,34911.4
73027.4,34911.4
73052.7,34972.3
73065.5,35037
73065.5,35102.9
73052.7,35167.5
73027.4,35228.4
73027.4,35228.4
72990.8,35283.2
72944.2,35329.9
72889.4,35366.5
72889.4,35366.5
72889.4,35366.5
72828.5,35391.7
72763.8,35404.6
72697.9,35404.6
72633.3,35391.7
72572.4,35366.5
72572.4,35366.5
72572.4,35366.5
72517.5,35329.9
72470.9,35283.2
72434.3,35228.4
72434.3,35228.4
72409.1,35167.5
72396.2,35102.9
72396.2,35037
72409.1,34972.3
72434.3,34911.4
72434.3,34911.4
72470.9,34856.6
72517.5,34810
72572.4,34773.4
72572.4,34773.4
72633.3,34748.1
72697.9,34735.3
72763.8,34735.3
Z" /> 
<path style="fill:#000000; fill-opacity:1.0; 
stroke:#000000; stroke-width:0; stroke-opacity:1; 
stroke-linecap:round; stroke-linejoin:round;fill-rule:evenodd;"
d="M 49368.5,33958.1
49429.4,33983.4
49429.4,33983.4
49484.2,34020
49530.8,34066.6
49555,34102.9
49567.4,34121.4
49592.7,34182.3
49605.5,34247
49605.5,34312.9
49592.7,34377.5
49567.4,34438.4
49567.4,34438.4
49530.8,34493.2
49484.2,34539.9
49429.4,34576.5
49429.4,34576.5
49429.4,34576.5
49368.5,34601.7
49303.8,34614.6
49237.9,34614.6
49173.3,34601.7
49112.4,34576.5
49112.4,34576.5
49112.4,34576.5
49057.5,34539.9
49010.9,34493.2
48974.3,34438.4
48974.3,34438.4
48949.1,34377.5
48936.2,34312.9
48936.2,34247
48949.1,34182.3
48974.3,34121.4
48986.7,34102.9
49010.9,34066.6
49057.5,34020
49112.4,33983.4
49112.4,33983.4
49173.3,33958.1
49237.9,33945.3
49303.8,33945.3
Z" /> 
<path style="fill:#000000; fill-opacity:1.0; 
stroke:#000000; stroke-width:0; stroke-opacity:1; 
stroke-linecap:round; stroke-linejoin:round;fill-rule:evenodd;"
d="M 73828.5,33748.1
73889.4,33773.4
73889.4,33773.4
73944.2,33810
73990.8,33856.6
74027.4,33911.4
74027.4,33911.4
74052.7,33972.3
74065.5,34037
74065.5,34102.9
74052.7,34167.5
74046.5,34182.3
74027.4,34228.4
73990.8,34283.2
73944.2,34329.9
73889.4,34366.5
73889.4,34366.5
73889.4,34366.5
73828.5,34391.7
73763.8,34404.6
73697.9,34404.6
73633.3,34391.7
73572.4,34366.5
73572.4,34366.5
73572.4,34366.5
73517.5,34329.9
73470.9,34283.2
73434.3,34228.4
73415.2,34182.3
73409.1,34167.5
73396.2,34102.9
73396.2,34037
73409.1,33972.3
73434.3,33911.4
73434.3,33911.4
73470.9,33856.6
73517.5,33810
73572.4,33773.4
73572.4,33773.4
73633.3,33748.1
73697.9,33735.3
73763.8,33735.3
Z" /> 
<path style="fill:#000000; fill-opacity:1.0; 
stroke:#000000; stroke-width:0; stroke-opacity:1; 
stroke-linecap:round; stroke-linejoin:round;fill-rule:evenodd;"
d="M 72828.5,33748.1
72889.4,33773.4
72889.4,33773.4
72944.2,33810
72990.8,33856.6
73027.4,33911.4
73027.4,33911.4
73052.7,33972.3
73065.5,34037
73065.5,34102.9
73052.7,34167.5
73046.5,34182.3
73027.4,34228.4
72990.8,34283.2
72944.2,34329.9
72889.4,34366.5
72889.4,34366.5
72889.4,34366.5
72828.5,34391.7
72763.8,34404.6
72697.9,34404.6
72633.3,34391.7
72572.4,34366.5
72572.4,34366.5
72572.4,34366.5
72517.5,34329.9
72470.9,34283.2
72434.3,34228.4
72415.2,34182.3
72409.1,34167.5
72396.2,34102.9
72396.2,34037
72409.1,33972.3
72434.3,33911.4
72434.3,33911.4
72470.9,33856.6
72517.5,33810
72572.4,33773.4
72572.4,33773.4
72633.3,33748.1
72697.9,33735.3
72763.8,33735.3
Z" /> 
<path style="fill:#000000; fill-opacity:1.0; 
stroke:#000000; stroke-width:0; stroke-opacity:1; 
stroke-linecap:round; stroke-linejoin:round;fill-rule:evenodd;"
d="M 49368.5,32958.1
49429.4,32983.4
49429.4,32983.4
49484.2,33020
49530.8,33066.6
49555,33102.9
49567.4,33121.4
49592.7,33182.3
49605.5,33247
49605.5,33312.9
49592.7,33377.5
49567.4,33438.4
49567.4,33438.4
49530.8,33493.2
49484.2,33539.9
49429.4,33576.5
49429.4,33576.5
49429.4,33576.5
49368.5,33601.7
49303.8,33614.6
49237.9,33614.6
49173.3,33601.7
49112.4,33576.5
49112.4,33576.5
49112.4,33576.5
49057.5,33539.9
49010.9,33493.2
48974.3,33438.4
48974.3,33438.4
48949.1,33377.5
48936.2,33312.9
48936.2,33247
48949.1,33182.3
48974.3,33121.4
48986.7,33102.9
49010.9,33066.6
49057.5,33020
49112.4,32983.4
49112.4,32983.4
49173.3,32958.1
49237.9,32945.3
49303.8,32945.3
Z" /> 
<path style="fill:#000000; fill-opacity:1.0; 
stroke:#000000; stroke-width:0; stroke-opacity:1; 
stroke-linecap:round; stroke-linejoin:round;fill-rule:evenodd;"
d="M 73828.5,32748.1
73889.4,32773.4
73889.4,32773.4
73944.2,32810
73990.8,32856.6
74027.4,32911.4
74027.4,32911.4
74052.7,32972.3
74065.5,33037
74065.5,33102.9
74052.7,33167.5
74046.5,33182.3
74027.4,33228.4
73990.8,33283.2
73944.2,33329.9
73889.4,33366.5
73889.4,33366.5
73889.4,33366.5
73828.5,33391.7
73763.8,33404.6
73697.9,33404.6
73633.3,33391.7
73572.4,33366.5
73572.4,33366.5
73572.4,33366.5
73517.5,33329.9
73470.9,33283.2
73434.3,33228.4
73415.2,33182.3
73409.1,33167.5
73396.2,33102.9
73396.2,33037
73409.1,32972.3
73434.3,32911.4
73434.3,32911.4
73470.9,32856.6
73517.5,32810
73572.4,32773.4
73572.4,32773.4
73633.3,32748.1
73697.9,32735.3
73763.8,32735.3
Z" /> 
<path style="fill:#000000; fill-opacity:1.0; 
stroke:#000000; stroke-width:0; stroke-opacity:1; 
stroke-linecap:round; stroke-linejoin:round;fill-rule:evenodd;"
d="M 72828.5,32748.1
72889.4,32773.4
72889.4,32773.4
72944.2,32810
72990.8,32856.6
73027.4,32911.4
73027.4,32911.4
73052.7,32972.3
73065.5,33037
73065.5,33102.9
73052.7,33167.5
73046.5,33182.3
73027.4,33228.4
72990.8,33283.2
72944.2,33329.9
72889.4,33366.5
72889.4,33366.5
72889.4,33366.5
72828.5,33391.7
72763.8,33404.6
72697.9,33404.6
72633.3,33391.7
72572.4,33366.5
72572.4,33366.5
72572.4,33366.5
72517.5,33329.9
72470.9,33283.2
72434.3,33228.4
72415.2,33182.3
72409.1,33167.5
72396.2,33102.9
72396.2,33037
72409.1,32972.3
72434.3,32911.4
72434.3,32911.4
72470.9,32856.6
72517.5,32810
72572.4,32773.4
72572.4,32773.4
72633.3,32748.1
72697.9,32735.3
72763.8,32735.3
Z" /> 
<path style="fill:#000000; fill-opacity:1.0; 
stroke:#000000; stroke-width:0; stroke-opacity:1; 
stroke-linecap:round; stroke-linejoin:round;fill-rule:evenodd;"
d="M 49368.5,31958.1
49429.4,31983.4
49429.4,31983.4
49484.2,32020
49530.8,32066.6
49555,32102.9
49567.4,32121.4
49592.7,32182.3
49605.5,32247
49605.5,32312.9
49592.7,32377.5
49567.4,32438.4
49567.4,32438.4
49530.8,32493.2
49484.2,32539.9
49429.4,32576.5
49429.4,32576.5
49429.4,32576.5
49368.5,32601.7
49303.8,32614.6
49237.9,32614.6
49173.3,32601.7
49112.4,32576.5
49112.4,32576.5
49112.4,32576.5
49057.5,32539.9
49010.9,32493.2
48974.3,32438.4
48974.3,32438.4
48949.1,32377.5
48936.2,32312.9
48936.2,32247
48949.1,32182.3
48974.3,32121.4
48986.7,32102.9
49010.9,32066.6
49057.5,32020
49112.4,31983.4
49112.4,31983.4
49173.3,31958.1
49237.9,31945.3
49303.8,31945.3
Z" /> 
<path style="fill:#000000; fill-opacity:1.0; 
stroke:#000000; stroke-width:0; stroke-opacity:1; 
stroke-linecap:round; stroke-linejoin:round;fill-rule:evenodd;"
d="M 72828.5,31748.1
72889.4,31773.4
72889.4,31773.4
72944.2,31810
72990.8,31856.6
73027.4,31911.4
73027.4,31911.4
73052.7,31972.3
73065.5,32037
73065.5,32102.9
73052.7,32167.5
73046.5,32182.3
73027.4,32228.4
72990.8,32283.2
72944.2,32329.9
72889.4,32366.5
72889.4,32366.5
72889.4,32366.5
72828.5,32391.7
72763.8,32404.6
72697.9,32404.6
72633.3,32391.7
72572.4,32366.5
72572.4,32366.5
72572.4,32366.5
72517.5,32329.9
72470.9,32283.2
72434.3,32228.4
72415.2,32182.3
72409.1,32167.5
72396.2,32102.9
72396.2,32037
72409.1,31972.3
72434.3,31911.4
72434.3,31911.4
72470.9,31856.6
72517.5,31810
72572.4,31773.4
72572.4,31773.4
72633.3,31748.1
72697.9,31735.3
72763.8,31735.3
Z" /> 
<path style="fill:#000000; fill-opacity:1.0; 
stroke:#000000; stroke-width:0; stroke-opacity:1; 
stroke-linecap:round; stroke-linejoin:round;fill-rule:evenodd;"
d="M 73828.5,31748.1
73889.4,31773.4
73889.4,31773.4
73944.2,31810
73990.8,31856.6
74027.4,31911.4
74027.4,31911.4
74052.7,31972.3
74065.5,32037
74065.5,32102.9
74052.7,32167.5
74046.5,32182.3
74027.4,32228.4
73990.8,32283.2
73944.2,32329.9
73889.4,32366.5
73889.4,32366.5
73889.4,32366.5
73828.5,32391.7
73763.8,32404.6
73697.9,32404.6
73633.3,32391.7
73572.4,32366.5
73572.4,32366.5
73572.4,32366.5
73517.5,32329.9
73470.9,32283.2
73434.3,32228.4
73415.2,32182.3
73409.1,32167.5
73396.2,32102.9
73396.2,32037
73409.1,31972.3
73434.3,31911.4
73434.3,31911.4
73470.9,31856.6
73517.5,31810
73572.4,31773.4
73572.4,31773.4
73633.3,31748.1
73697.9,31735.3
73763.8,31735.3
Z" /> 
<path style="fill:#000000; fill-opacity:1.0; 
stroke:#000000; stroke-width:0; stroke-opacity:1; 
stroke-linecap:round; stroke-linejoin:round;fill-rule:evenodd;"
d="M 49368.5,30958.1
49429.4,30983.4
49429.4,30983.4
49484.2,31020
49530.8,31066.6
49555,31102.9
49567.4,31121.4
49592.7,31182.3
49605.5,31247
49605.5,31312.9
49592.7,31377.5
49567.4,31438.4
49567.4,31438.4
49530.8,31493.2
49484.2,31539.9
49429.4,31576.5
49429.4,31576.5
49429.4,31576.5
49368.5,31601.7
49303.8,31614.6
49237.9,31614.6
49173.3,31601.7
49112.4,31576.5
49112.4,31576.5
49112.4,31576.5
49057.5,31539.9
49010.9,31493.2
48974.3,31438.4
48974.3,31438.4
48949.1,31377.5
48936.2,31312.9
48936.2,31247
48949.1,31182.3
48974.3,31121.4
48986.7,31102.9
49010.9,31066.6
49057.5,31020
49112.4,30983.4
49112.4,30983.4
49173.3,30958.1
49237.9,30945.3
49303.8,30945.3
Z" /> 
<path style="fill:#000000; fill-opacity:1.0; 
stroke:#000000; stroke-width:0; stroke-opacity:1; 
stroke-linecap:round; stroke-linejoin:round;fill-rule:evenodd;"
d="M 72828.5,30748.1
72889.4,30773.4
72889.4,30773.4
72944.2,30810
72990.8,30856.6
73027.4,30911.4
73027.4,30911.4
73052.7,30972.3
73065.5,31037
73065.5,31102.9
73052.7,31167.5
73035.4,31209.3
73027.4,31228.4
72990.8,31283.2
72944.2,31329.9
72889.4,31366.5
72889.4,31366.5
72889.4,31366.5
72828.5,31391.7
72763.8,31404.6
72697.9,31404.6
72633.3,31391.7
72572.4,31366.5
72572.4,31366.5
72572.4,31366.5
72517.5,31329.9
72470.9,31283.2
72434.3,31228.4
72426.4,31209.3
72409.1,31167.5
72396.2,31102.9
72396.2,31037
72409.1,30972.3
72434.3,30911.4
72434.3,30911.4
72470.9,30856.6
72517.5,30810
72572.4,30773.4
72572.4,30773.4
72633.3,30748.1
72697.9,30735.3
72763.8,30735.3
Z" /> 
<path style="fill:#000000; fill-opacity:1.0; 
stroke:#000000; stroke-width:0; stroke-opacity:1; 
stroke-linecap:round; stroke-linejoin:round;fill-rule:evenodd;"
d="M 73828.5,30748.1
73889.4,30773.4
73889.4,30773.4
73944.2,30810
73990.8,30856.6
74027.4,30911.4
74027.4,30911.4
74052.7,30972.3
74065.5,31037
74065.5,31102.9
74052.7,31167.5
74035.4,31209.3
74027.4,31228.4
73990.8,31283.2
73944.2,31329.9
73889.4,31366.5
73889.4,31366.5
73889.4,31366.5
73828.5,31391.7
73763.8,31404.6
73697.9,31404.6
73633.3,31391.7
73572.4,31366.5
73572.4,31366.5
73572.4,31366.5
73517.5,31329.9
73470.9,31283.2
73434.3,31228.4
73426.4,31209.3
73409.1,31167.5
73396.2,31102.9
73396.2,31037
73409.1,30972.3
73434.3,30911.4
73434.3,30911.4
73470.9,30856.6
73517.5,30810
73572.4,30773.4
73572.4,30773.4
73633.3,30748.1
73697.9,30735.3
73763.8,30735.3
Z" /> 
<path style="fill:#000000; fill-opacity:1.0; 
stroke:#000000; stroke-width:0; stroke-opacity:1; 
stroke-linecap:round; stroke-linejoin:round;fill-rule:evenodd;"
d="M 36284.3,30976.7
36321.4,30988
36355.6,31006.2
36385.6,31030.8
36410.2,31060.8
36428.5,31095
36439.8,31132.1
36443.6,31170.7
36439.8,31209.3
36428.5,31246.4
36410.2,31280.6
36385.6,31310.6
36355.6,31335.2
36321.4,31353.5
36284.3,31364.7
36255.4,31367.6
35999.9,31367.6
35970.9,31364.7
35933.8,31353.5
35899.6,31335.2
35869.7,31310.6
35845.1,31280.6
35826.8,31246.4
35815.5,31209.3
35811.7,31170.7
35815.5,31132.1
35826.8,31095
35845.1,31060.8
35869.7,31030.8
35899.6,31006.2
35933.8,30988
35970.9,30976.7
35999.9,30973.9
36255.4,30973.9
Z" /> 
<path style="fill:#000000; fill-opacity:1.0; 
stroke:#000000; stroke-width:0; stroke-opacity:1; 
stroke-linecap:round; stroke-linejoin:round;fill-rule:evenodd;"
d="M 38028.4,30976.7
38065.5,30988
38099.7,31006.2
38129.7,31030.8
38154.3,31060.8
38172.6,31095
38183.8,31132.1
38187.6,31170.7
38183.8,31209.3
38172.6,31246.4
38154.3,31280.6
38129.7,31310.6
38099.7,31335.2
38065.5,31353.5
38028.4,31364.7
37999.5,31367.6
37547.1,31367.6
37518.2,31364.7
37481.1,31353.5
37446.9,31335.2
37416.9,31310.6
37392.3,31280.6
37374,31246.4
37362.8,31209.3
37359,31170.7
37362.8,31132.1
37374,31095
37392.3,31060.8
37416.9,31030.8
37446.9,31006.2
37481.1,30988
37518.2,30976.7
37547.1,30973.9
37999.5,30973.9
Z" /> 
<path style="fill:#000000; fill-opacity:1.0; 
stroke:#000000; stroke-width:0; stroke-opacity:1; 
stroke-linecap:round; stroke-linejoin:round;fill-rule:evenodd;"
d="M 38947.7,30984.3
38554,30984.3
38554,30590.6
38947.7,30590.6
Z" /> 
<path style="fill:#000000; fill-opacity:1.0; 
stroke:#000000; stroke-width:0; stroke-opacity:1; 
stroke-linecap:round; stroke-linejoin:round;fill-rule:evenodd;"
d="M 37613.8,30484.7
37637.1,30494.3
37658,30508.3
37675.8,30526.2
37689.8,30547.1
37699.5,30570.4
37704.4,30595.1
37704.4,30620.3
37699.5,30645
37689.8,30668.3
37675.8,30689.3
37658,30707.1
37637.1,30721.1
37613.8,30730.8
37589.1,30735.7
37563.9,30735.7
37539.1,30730.8
37515.8,30721.1
37494.9,30707.1
37477.1,30689.3
37463.1,30668.3
37453.4,30645
37448.5,30620.3
37448.5,30595.1
37453.4,30570.4
37463.1,30547.1
37477.1,30526.2
37494.9,30508.3
37515.8,30494.3
37539.1,30484.7
37563.9,30479.8
37589.1,30479.8
Z" /> 
<path style="fill:#000000; fill-opacity:1.0; 
stroke:#000000; stroke-width:0; stroke-opacity:1; 
stroke-linecap:round; stroke-linejoin:round;fill-rule:evenodd;"
d="M 49368.5,29958.1
49429.4,29983.4
49429.4,29983.4
49484.2,30020
49530.8,30066.6
49555,30102.9
49567.4,30121.4
49592.7,30182.3
49605.5,30247
49605.5,30312.9
49592.7,30377.5
49567.4,30438.4
49567.4,30438.4
49530.8,30493.2
49484.2,30539.9
49429.4,30576.5
49429.4,30576.5
49429.4,30576.5
49368.5,30601.7
49303.8,30614.6
49237.9,30614.6
49173.3,30601.7
49112.4,30576.5
49112.4,30576.5
49112.4,30576.5
49057.5,30539.9
49010.9,30493.2
48974.3,30438.4
48974.3,30438.4
48949.1,30377.5
48936.2,30312.9
48936.2,30247
48949.1,30182.3
48974.3,30121.4
48986.7,30102.9
49010.9,30066.6
49057.5,30020
49112.4,29983.4
49112.4,29983.4
49173.3,29958.1
49237.9,29945.3
49303.8,29945.3
Z" /> 
<path style="fill:#000000; fill-opacity:1.0; 
stroke:#000000; stroke-width:0; stroke-opacity:1; 
stroke-linecap:round; stroke-linejoin:round;fill-rule:evenodd;"
d="M 72828.5,29748.1
72889.4,29773.4
72889.4,29773.4
72944.2,29810
72990.8,29856.6
73027.4,29911.4
73027.4,29911.4
73052.7,29972.3
73065.5,30037
73065.5,30102.9
73052.7,30167.5
73046.5,30182.3
73027.4,30228.4
72990.8,30283.2
72944.2,30329.9
72889.4,30366.5
72889.4,30366.5
72889.4,30366.5
72828.5,30391.7
72763.8,30404.6
72697.9,30404.6
72633.3,30391.7
72572.4,30366.5
72572.4,30366.5
72572.4,30366.5
72517.5,30329.9
72470.9,30283.2
72434.3,30228.4
72415.2,30182.3
72409.1,30167.5
72396.2,30102.9
72396.2,30037
72409.1,29972.3
72434.3,29911.4
72434.3,29911.4
72470.9,29856.6
72517.5,29810
72572.4,29773.4
72572.4,29773.4
72633.3,29748.1
72697.9,29735.3
72763.8,29735.3
Z" /> 
<path style="fill:#000000; fill-opacity:1.0; 
stroke:#000000; stroke-width:0; stroke-opacity:1; 
stroke-linecap:round; stroke-linejoin:round;fill-rule:evenodd;"
d="M 73828.5,29748.1
73889.4,29773.4
73889.4,29773.4
73944.2,29810
73990.8,29856.6
74027.4,29911.4
74027.4,29911.4
74052.7,29972.3
74065.5,30037
74065.5,30102.9
74052.7,30167.5
74046.5,30182.3
74027.4,30228.4
73990.8,30283.2
73944.2,30329.9
73889.4,30366.5
73889.4,30366.5
73889.4,30366.5
73828.5,30391.7
73763.8,30404.6
73697.9,30404.6
73633.3,30391.7
73572.4,30366.5
73572.4,30366.5
73572.4,30366.5
73517.5,30329.9
73470.9,30283.2
73434.3,30228.4
73415.2,30182.3
73409.1,30167.5
73396.2,30102.9
73396.2,30037
73409.1,29972.3
73434.3,29911.4
73434.3,29911.4
73470.9,29856.6
73517.5,29810
73572.4,29773.4
73572.4,29773.4
73633.3,29748.1
73697.9,29735.3
73763.8,29735.3
Z" /> 
<path style="fill:#000000; fill-opacity:1.0; 
stroke:#000000; stroke-width:0; stroke-opacity:1; 
stroke-linecap:round; stroke-linejoin:round;fill-rule:evenodd;"
d="M 38947.7,30106.8
38554,30106.8
38554,29713.1
38947.7,29713.1
Z" /> 
<path style="fill:#000000; fill-opacity:1.0; 
stroke:#000000; stroke-width:0; stroke-opacity:1; 
stroke-linecap:round; stroke-linejoin:round;fill-rule:evenodd;"
d="M 64627.7,29886.8
64234,29886.8
64234,29493.1
64627.7,29493.1
Z" /> 
<path style="fill:#000000; fill-opacity:1.0; 
stroke:#000000; stroke-width:0; stroke-opacity:1; 
stroke-linecap:round; stroke-linejoin:round;fill-rule:evenodd;"
d="M 72828.5,28748.1
72889.4,28773.4
72889.4,28773.4
72944.2,28810
72990.8,28856.6
73027.4,28911.4
73027.4,28911.4
73052.7,28972.3
73065.5,29037
73065.5,29102.9
73052.7,29167.5
73027.4,29228.4
73027.4,29228.4
72990.8,29283.2
72944.2,29329.9
72889.4,29366.5
72889.4,29366.5
72889.4,29366.5
72828.5,29391.7
72763.8,29404.6
72697.9,29404.6
72633.3,29391.7
72572.4,29366.5
72572.4,29366.5
72572.4,29366.5
72517.5,29329.9
72470.9,29283.2
72434.3,29228.4
72434.3,29228.4
72409.1,29167.5
72396.2,29102.9
72396.2,29037
72409.1,28972.3
72434.3,28911.4
72434.3,28911.4
72470.9,28856.6
72517.5,28810
72572.4,28773.4
72572.4,28773.4
72633.3,28748.1
72697.9,28735.3
72763.8,28735.3
Z" /> 
<path style="fill:#000000; fill-opacity:1.0; 
stroke:#000000; stroke-width:0; stroke-opacity:1; 
stroke-linecap:round; stroke-linejoin:round;fill-rule:evenodd;"
d="M 73828.5,28748.1
73889.4,28773.4
73889.4,28773.4
73944.2,28810
73990.8,28856.6
74027.4,28911.4
74027.4,28911.4
74052.7,28972.3
74065.5,29037
74065.5,29102.9
74052.7,29167.5
74027.4,29228.4
74027.4,29228.4
73990.8,29283.2
73944.2,29329.9
73889.4,29366.5
73889.4,29366.5
73889.4,29366.5
73828.5,29391.7
73763.8,29404.6
73697.9,29404.6
73633.3,29391.7
73572.4,29366.5
73572.4,29366.5
73572.4,29366.5
73517.5,29329.9
73470.9,29283.2
73434.3,29228.4
73434.3,29228.4
73409.1,29167.5
73396.2,29102.9
73396.2,29037
73409.1,28972.3
73434.3,28911.4
73434.3,28911.4
73470.9,28856.6
73517.5,28810
73572.4,28773.4
73572.4,28773.4
73633.3,28748.1
73697.9,28735.3
73763.8,28735.3
Z" /> 
<path style="fill:#000000; fill-opacity:1.0; 
stroke:#000000; stroke-width:0; stroke-opacity:1; 
stroke-linecap:round; stroke-linejoin:round;fill-rule:evenodd;"
d="M 38967.7,29232.3
38574,29232.3
38574,28838.6
38967.7,28838.6
Z" /> 
<path style="fill:#000000; fill-opacity:1.0; 
stroke:#000000; stroke-width:0; stroke-opacity:1; 
stroke-linecap:round; stroke-linejoin:round;fill-rule:evenodd;"
d="M 64637.7,28696.8
64244,28696.8
64244,28303.1
64637.7,28303.1
Z" /> 
<path style="fill:#000000; fill-opacity:1.0; 
stroke:#000000; stroke-width:0; stroke-opacity:1; 
stroke-linecap:round; stroke-linejoin:round;fill-rule:evenodd;"
d="M 37613.8,28209.1
37637.1,28218.7
37658,28232.7
37675.8,28250.6
37689.8,28271.5
37699.5,28294.8
37704.4,28319.5
37704.4,28344.7
37699.5,28369.4
37689.8,28392.7
37675.8,28413.7
37658,28431.5
37637.1,28445.5
37613.8,28455.2
37589.1,28460.1
37563.9,28460.1
37539.1,28455.2
37515.8,28445.5
37494.9,28431.5
37477.1,28413.7
37463.1,28392.7
37453.4,28369.4
37448.5,28344.7
37448.5,28319.5
37453.4,28294.8
37463.1,28271.5
37477.1,28250.6
37494.9,28232.7
37515.8,28218.7
37539.1,28209.1
37563.9,28204.2
37589.1,28204.2
Z" /> 
<path style="fill:#000000; fill-opacity:1.0; 
stroke:#000000; stroke-width:0; stroke-opacity:1; 
stroke-linecap:round; stroke-linejoin:round;fill-rule:evenodd;"
d="M 72828.5,27748.1
72889.4,27773.4
72889.4,27773.4
72944.2,27810
72990.8,27856.6
73025.8,27909
73027.4,27911.4
73052.7,27972.3
73065.5,28037
73065.5,28102.9
73052.7,28167.5
73027.4,28228.4
73027.4,28228.4
72990.8,28283.2
72944.2,28329.9
72889.4,28366.5
72889.4,28366.5
72889.4,28366.5
72828.5,28391.7
72763.8,28404.6
72697.9,28404.6
72633.3,28391.7
72572.4,28366.5
72572.4,28366.5
72572.4,28366.5
72517.5,28329.9
72470.9,28283.2
72434.3,28228.4
72434.3,28228.4
72409.1,28167.5
72396.2,28102.9
72396.2,28037
72409.1,27972.3
72434.3,27911.4
72435.9,27909
72470.9,27856.6
72517.5,27810
72572.4,27773.4
72572.4,27773.4
72633.3,27748.1
72697.9,27735.3
72763.8,27735.3
Z" /> 
<path style="fill:#000000; fill-opacity:1.0; 
stroke:#000000; stroke-width:0; stroke-opacity:1; 
stroke-linecap:round; stroke-linejoin:round;fill-rule:evenodd;"
d="M 73828.5,27748.1
73889.4,27773.4
73889.4,27773.4
73944.2,27810
73990.8,27856.6
74025.8,27909
74027.4,27911.4
74052.7,27972.3
74065.5,28037
74065.5,28102.9
74052.7,28167.5
74027.4,28228.4
74027.4,28228.4
73990.8,28283.2
73944.2,28329.9
73889.4,28366.5
73889.4,28366.5
73889.4,28366.5
73828.5,28391.7
73763.8,28404.6
73697.9,28404.6
73633.3,28391.7
73572.4,28366.5
73572.4,28366.5
73572.4,28366.5
73517.5,28329.9
73470.9,28283.2
73434.3,28228.4
73434.3,28228.4
73409.1,28167.5
73396.2,28102.9
73396.2,28037
73409.1,27972.3
73434.3,27911.4
73435.9,27909
73470.9,27856.6
73517.5,27810
73572.4,27773.4
73572.4,27773.4
73633.3,27748.1
73697.9,27735.3
73763.8,27735.3
Z" /> 
<path style="fill:#000000; fill-opacity:1.0; 
stroke:#000000; stroke-width:0; stroke-opacity:1; 
stroke-linecap:round; stroke-linejoin:round;fill-rule:evenodd;"
d="M 38957.7,28356.8
38564,28356.8
38564,27963.1
38957.7,27963.1
Z" /> 
<path style="fill:#000000; fill-opacity:1.0; 
stroke:#000000; stroke-width:0; stroke-opacity:1; 
stroke-linecap:round; stroke-linejoin:round;fill-rule:evenodd;"
d="M 36284.3,27575.1
36321.4,27586.4
36355.6,27604.7
36385.6,27629.3
36410.2,27659.2
36428.5,27693.4
36439.8,27730.5
36443.6,27769.1
36439.8,27807.7
36428.5,27844.8
36410.2,27879
36385.6,27909
36355.6,27933.6
36321.4,27951.9
36284.3,27963.1
36255.4,27966
35999.9,27966
35970.9,27963.1
35933.8,27951.9
35899.6,27933.6
35869.7,27909
35845.1,27879
35826.8,27844.8
35815.5,27807.7
35811.7,27769.1
35815.5,27730.5
35826.8,27693.4
35845.1,27659.2
35869.7,27629.3
35899.6,27604.7
35933.8,27586.4
35970.9,27575.1
35999.9,27572.3
36255.4,27572.3
Z" /> 
<path style="fill:#000000; fill-opacity:1.0; 
stroke:#000000; stroke-width:0; stroke-opacity:1; 
stroke-linecap:round; stroke-linejoin:round;fill-rule:evenodd;"
d="M 38028.4,27575.1
38065.5,27586.4
38099.7,27604.7
38129.7,27629.3
38154.3,27659.2
38172.6,27693.4
38183.8,27730.5
38187.6,27769.1
38183.8,27807.7
38172.6,27844.8
38154.3,27879
38129.7,27909
38099.7,27933.6
38065.5,27951.9
38028.4,27963.1
37999.5,27966
37547.1,27966
37518.2,27963.1
37481.1,27951.9
37446.9,27933.6
37416.9,27909
37392.3,27879
37374,27844.8
37362.8,27807.7
37359,27769.1
37362.8,27730.5
37374,27693.4
37392.3,27659.2
37416.9,27629.3
37446.9,27604.7
37481.1,27586.4
37518.2,27575.1
37547.1,27572.3
37999.5,27572.3
Z" /> 
<path style="fill:#000000; fill-opacity:1.0; 
stroke:#000000; stroke-width:0; stroke-opacity:1; 
stroke-linecap:round; stroke-linejoin:round;fill-rule:evenodd;"
d="M 73828.5,26748.1
73889.4,26773.4
73889.4,26773.4
73944.2,26810
73990.8,26856.6
73995.8,26864
74027.4,26911.4
74052.7,26972.3
74065.5,27037
74065.5,27102.9
74052.7,27167.5
74028.7,27225.4
74027.4,27228.4
73990.8,27283.2
73944.2,27329.9
73889.4,27366.5
73889.4,27366.5
73889.4,27366.5
73828.5,27391.7
73763.8,27404.6
73697.9,27404.6
73633.3,27391.7
73572.4,27366.5
73572.4,27366.5
73572.4,27366.5
73517.5,27329.9
73470.9,27283.2
73434.3,27228.4
73433.1,27225.4
73409.1,27167.5
73396.2,27102.9
73396.2,27037
73409.1,26972.3
73434.3,26911.4
73466,26864
73470.9,26856.6
73517.5,26810
73572.4,26773.4
73572.4,26773.4
73633.3,26748.1
73697.9,26735.3
73763.8,26735.3
Z" /> 
<path style="fill:#000000; fill-opacity:1.0; 
stroke:#000000; stroke-width:0; stroke-opacity:1; 
stroke-linecap:round; stroke-linejoin:round;fill-rule:evenodd;"
d="M 73065.5,27404.6
72396.2,27404.6
72396.2,26735.3
73065.5,26735.3
Z" /> 
<path style="fill:#000000; fill-opacity:1.0; 
stroke:#000000; stroke-width:0; stroke-opacity:1; 
stroke-linecap:round; stroke-linejoin:round;fill-rule:evenodd;"
d="M 40148.4,26734.4
40196.7,26754.4
40240.3,26783.5
40277.3,26820.5
40306.4,26864
40326.4,26912.4
40336.6,26963.7
40336.6,27016.1
40326.4,27067.4
40306.4,27115.8
40277.3,27159.3
40240.3,27196.3
40196.7,27225.4
40148.4,27245.5
40097,27255.7
40044.7,27255.7
39993.4,27245.5
39945,27225.4
39901.5,27196.3
39864.4,27159.3
39835.4,27115.8
39815.3,27067.4
39805.1,27016.1
39805.1,26963.7
39815.3,26912.4
39835.4,26864
39864.4,26820.5
39901.5,26783.5
39945,26754.4
39993.4,26734.4
40044.7,26724.2
40097,26724.2
Z" /> 
<path style="fill:#000000; fill-opacity:1.0; 
stroke:#000000; stroke-width:0; stroke-opacity:1; 
stroke-linecap:round; stroke-linejoin:round;fill-rule:evenodd;"
d="M 40249.4,25939.1
40269.7,25945.2
40288.4,25955.2
40304.7,25968.7
40318.2,25985
40328.2,26003.7
40334.3,26024
40336.6,26047.5
40336.6,26357.6
40334.3,26381.1
40328.2,26401.3
40318.2,26420
40304.7,26436.4
40288.4,26449.8
40269.7,26459.8
40249.4,26466
40225.9,26468.3
39915.8,26468.3
39892.3,26466
39872,26459.8
39853.4,26449.8
39837,26436.4
39823.6,26420
39813.6,26401.3
39807.4,26381.1
39805.1,26357.6
39805.1,26047.5
39807.4,26024
39813.6,26003.7
39823.6,25985
39837,25968.7
39853.4,25955.2
39872,25945.2
39892.3,25939.1
39915.8,25936.8
40225.9,25936.8
Z" /> 
<path style="fill:#000000; fill-opacity:1.0; 
stroke:#000000; stroke-width:0; stroke-opacity:1; 
stroke-linecap:round; stroke-linejoin:round;fill-rule:evenodd;"
d="M 71510.3,23635.4
71616.8,23656.5
71699.9,23691
71817.4,23739.6
71817.4,23739.6
71998,23860.3
72151.5,24013.8
72232.1,24134.5
72272.2,24194.4
72320.9,24311.9
72355.3,24395
72365.2,24444.8
72397.6,24608
72397.6,24825.1
72379.2,24918
72355.3,25038.1
72320.9,25121.2
72272.2,25238.7
72272.2,25238.7
72151.5,25419.3
71998,25572.8
71877.4,25653.4
71817.4,25693.4
71699.9,25742.1
71616.8,25776.5
71510.3,25797.7
71403.8,25818.9
71186.7,25818.9
71080.2,25797.7
70973.7,25776.5
70890.6,25742.1
70773.1,25693.4
70713.2,25653.4
70592.6,25572.8
70439,25419.3
70318.4,25238.7
70318.4,25238.7
70269.7,25121.2
70235.3,25038.1
70211.4,24918
70192.9,24825.1
70192.9,24608
70225.4,24444.8
70235.3,24395
70269.7,24311.9
70318.4,24194.4
70358.4,24134.5
70439,24013.8
70592.6,23860.3
70773.1,23739.6
70773.1,23739.6
70890.6,23691
70973.7,23656.5
71080.2,23635.4
71186.7,23614.2
71403.8,23614.2
Z" /> 
<path style="fill:#000000; fill-opacity:1.0; 
stroke:#000000; stroke-width:0; stroke-opacity:1; 
stroke-linecap:round; stroke-linejoin:round;fill-rule:evenodd;"
d="M 41919.7,23614.2
42112.9,23652.6
42196,23687
42313.5,23735.7
42373.4,23775.7
42494.1,23856.3
42647.6,24009.9
42650.2,24013.8
42768.2,24190.4
42769.9,24194.4
42851.3,24391.1
42893.7,24604
42893.7,24821.2
42851.3,25034.1
42849.2,25039.4
42768.2,25234.8
42728.2,25294.7
42647.6,25415.3
42494.1,25568.9
42373.4,25649.5
42313.5,25689.5
42196,25738.2
42112.9,25772.6
42093.1,25776.5
41899.9,25815
41682.8,25815
41489.6,25776.5
41469.8,25772.6
41386.7,25738.2
41269.2,25689.5
41209.3,25649.5
41088.6,25568.9
40935.1,25415.3
40854.5,25294.7
40814.4,25234.8
40733.5,25039.4
40731.3,25034.1
40689,24821.2
40689,24604
40731.3,24391.1
40812.8,24194.4
40814.4,24190.4
40932.4,24013.8
40935.1,24009.9
41088.6,23856.3
41209.3,23775.7
41269.2,23735.7
41386.7,23687
41469.8,23652.6
41663,23614.2
41682.8,23610.2
41899.9,23610.2
Z" /> 
<path style="fill:#000000; fill-opacity:1.0; 
stroke:#000000; stroke-width:0; stroke-opacity:1; 
stroke-linecap:round; stroke-linejoin:round;fill-rule:evenodd;"
d="M 67637,24382.9
67697.9,24408.2
67697.9,24408.2
67752.7,24444.8
67799.3,24491.4
67835.9,24546.2
67835.9,24546.2
67861.2,24607.1
67874,24671.8
67874,24737.7
67861.2,24802.3
67835.9,24863.2
67835.9,24863.2
67799.3,24918
67752.7,24964.7
67697.9,25001.3
67697.9,25001.3
67697.9,25001.3
67637,25026.5
67572.3,25039.4
67506.4,25039.4
67441.8,25026.5
67380.9,25001.3
67380.9,25001.3
67380.9,25001.3
67326,24964.7
67279.4,24918
67242.8,24863.2
67242.8,24863.2
67217.6,24802.3
67204.7,24737.7
67204.7,24671.8
67217.6,24607.1
67242.8,24546.2
67242.8,24546.2
67279.4,24491.4
67326,24444.8
67380.9,24408.2
67380.9,24408.2
67441.8,24382.9
67506.4,24370.1
67572.3,24370.1
Z" /> 
<path style="fill:#000000; fill-opacity:1.0; 
stroke:#000000; stroke-width:0; stroke-opacity:1; 
stroke-linecap:round; stroke-linejoin:round;fill-rule:evenodd;"
d="M 44951.9,24382.9
45012.8,24408.2
45012.8,24408.2
45067.7,24444.8
45114.3,24491.4
45150.9,24546.2
45150.9,24546.2
45176.1,24607.1
45189,24671.8
45189,24737.7
45176.1,24802.3
45150.9,24863.2
45150.9,24863.2
45114.3,24918
45067.7,24964.7
45012.8,25001.3
45012.8,25001.3
45012.8,25001.3
44951.9,25026.5
44887.3,25039.4
44821.4,25039.4
44756.7,25026.5
44695.8,25001.3
44695.8,25001.3
44695.8,25001.3
44641,24964.7
44594.4,24918
44557.8,24863.2
44557.8,24863.2
44532.5,24802.3
44519.7,24737.7
44519.7,24671.8
44532.5,24607.1
44557.8,24546.2
44557.8,24546.2
44594.4,24491.4
44641,24444.8
44695.8,24408.2
44695.8,24408.2
44756.7,24382.9
44821.4,24370.1
44887.3,24370.1
Z" /> 
<path style="fill:#000000; fill-opacity:1.0; 
stroke:#000000; stroke-width:0; stroke-opacity:1; 
stroke-linecap:round; stroke-linejoin:round;fill-rule:evenodd;"
d="M 63637,24382.9
63697.9,24408.2
63697.9,24408.2
63752.7,24444.8
63799.3,24491.4
63835.9,24546.2
63835.9,24546.2
63861.2,24607.1
63874,24671.8
63874,24737.7
63861.2,24802.3
63835.9,24863.2
63835.9,24863.2
63799.3,24918
63752.7,24964.7
63697.9,25001.3
63697.9,25001.3
63697.9,25001.3
63637,25026.5
63572.3,25039.4
63506.4,25039.4
63441.8,25026.5
63380.9,25001.3
63380.9,25001.3
63380.9,25001.3
63326,24964.7
63279.4,24918
63242.8,24863.2
63242.8,24863.2
63217.6,24802.3
63204.7,24737.7
63204.7,24671.8
63217.6,24607.1
63242.8,24546.2
63242.8,24546.2
63279.4,24491.4
63326,24444.8
63380.9,24408.2
63380.9,24408.2
63441.8,24382.9
63506.4,24370.1
63572.3,24370.1
Z" /> 
<path style="fill:#000000; fill-opacity:1.0; 
stroke:#000000; stroke-width:0; stroke-opacity:1; 
stroke-linecap:round; stroke-linejoin:round;fill-rule:evenodd;"
d="M 62637,24382.9
62697.9,24408.2
62697.9,24408.2
62752.7,24444.8
62799.3,24491.4
62835.9,24546.2
62835.9,24546.2
62861.2,24607.1
62874,24671.8
62874,24737.7
62861.2,24802.3
62835.9,24863.2
62835.9,24863.2
62799.3,24918
62752.7,24964.7
62697.9,25001.3
62697.9,25001.3
62697.9,25001.3
62637,25026.5
62572.3,25039.4
62506.4,25039.4
62441.8,25026.5
62380.9,25001.3
62380.9,25001.3
62380.9,25001.3
62326,24964.7
62279.4,24918
62242.8,24863.2
62242.8,24863.2
62217.6,24802.3
62204.7,24737.7
62204.7,24671.8
62217.6,24607.1
62242.8,24546.2
62242.8,24546.2
62279.4,24491.4
62326,24444.8
62380.9,24408.2
62380.9,24408.2
62441.8,24382.9
62506.4,24370.1
62572.3,24370.1
Z" /> 
<path style="fill:#000000; fill-opacity:1.0; 
stroke:#000000; stroke-width:0; stroke-opacity:1; 
stroke-linecap:round; stroke-linejoin:round;fill-rule:evenodd;"
d="M 61637,24382.9
61697.9,24408.2
61697.9,24408.2
61752.7,24444.8
61799.3,24491.4
61835.9,24546.2
61835.9,24546.2
61861.2,24607.1
61874,24671.8
61874,24737.7
61861.2,24802.3
61835.9,24863.2
61835.9,24863.2
61799.3,24918
61752.7,24964.7
61697.9,25001.3
61697.9,25001.3
61697.9,25001.3
61637,25026.5
61572.3,25039.4
61506.4,25039.4
61441.8,25026.5
61380.9,25001.3
61380.9,25001.3
61380.9,25001.3
61326,24964.7
61279.4,24918
61242.8,24863.2
61242.8,24863.2
61217.6,24802.3
61204.7,24737.7
61204.7,24671.8
61217.6,24607.1
61242.8,24546.2
61242.8,24546.2
61279.4,24491.4
61326,24444.8
61380.9,24408.2
61380.9,24408.2
61441.8,24382.9
61506.4,24370.1
61572.3,24370.1
Z" /> 
<path style="fill:#000000; fill-opacity:1.0; 
stroke:#000000; stroke-width:0; stroke-opacity:1; 
stroke-linecap:round; stroke-linejoin:round;fill-rule:evenodd;"
d="M 56968.5,25039.4
56299.2,25039.4
56299.2,24370.1
56968.5,24370.1
Z" /> 
<path style="fill:#000000; fill-opacity:1.0; 
stroke:#000000; stroke-width:0; stroke-opacity:1; 
stroke-linecap:round; stroke-linejoin:round;fill-rule:evenodd;"
d="M 58731.5,24382.9
58792.4,24408.2
58792.4,24408.2
58847.2,24444.8
58893.8,24491.4
58930.4,24546.2
58930.4,24546.2
58955.6,24607.1
58968.5,24671.8
58968.5,24737.7
58955.6,24802.3
58930.4,24863.2
58930.4,24863.2
58893.8,24918
58847.2,24964.7
58792.4,25001.3
58792.4,25001.3
58792.4,25001.3
58731.5,25026.5
58666.8,25039.4
58600.9,25039.4
58536.2,25026.5
58475.3,25001.3
58475.3,25001.3
58475.3,25001.3
58420.5,24964.7
58373.9,24918
58337.3,24863.2
58337.3,24863.2
58312.1,24802.3
58299.2,24737.7
58299.2,24671.8
58312.1,24607.1
58337.3,24546.2
58337.3,24546.2
58373.9,24491.4
58420.5,24444.8
58475.3,24408.2
58475.3,24408.2
58536.2,24382.9
58600.9,24370.1
58666.8,24370.1
Z" /> 
<path style="fill:#000000; fill-opacity:1.0; 
stroke:#000000; stroke-width:0; stroke-opacity:1; 
stroke-linecap:round; stroke-linejoin:round;fill-rule:evenodd;"
d="M 59731.5,24382.9
59792.4,24408.2
59792.4,24408.2
59847.2,24444.8
59893.8,24491.4
59930.4,24546.2
59930.4,24546.2
59955.6,24607.1
59968.5,24671.8
59968.5,24737.7
59955.6,24802.3
59930.4,24863.2
59930.4,24863.2
59893.8,24918
59847.2,24964.7
59792.4,25001.3
59792.4,25001.3
59792.4,25001.3
59731.5,25026.5
59666.8,25039.4
59600.9,25039.4
59536.2,25026.5
59475.3,25001.3
59475.3,25001.3
59475.3,25001.3
59420.5,24964.7
59373.9,24918
59337.3,24863.2
59337.3,24863.2
59312.1,24802.3
59299.2,24737.7
59299.2,24671.8
59312.1,24607.1
59337.3,24546.2
59337.3,24546.2
59373.9,24491.4
59420.5,24444.8
59475.3,24408.2
59475.3,24408.2
59536.2,24382.9
59600.9,24370.1
59666.8,24370.1
Z" /> 
<path style="fill:#000000; fill-opacity:1.0; 
stroke:#000000; stroke-width:0; stroke-opacity:1; 
stroke-linecap:round; stroke-linejoin:round;fill-rule:evenodd;"
d="M 65637,24382.9
65697.9,24408.2
65697.9,24408.2
65752.7,24444.8
65799.3,24491.4
65835.9,24546.2
65835.9,24546.2
65861.2,24607.1
65874,24671.8
65874,24737.7
65861.2,24802.3
65835.9,24863.2
65835.9,24863.2
65799.3,24918
65752.7,24964.7
65697.9,25001.3
65697.9,25001.3
65697.9,25001.3
65637,25026.5
65572.3,25039.4
65506.4,25039.4
65441.8,25026.5
65380.9,25001.3
65380.9,25001.3
65380.9,25001.3
65326,24964.7
65279.4,24918
65242.8,24863.2
65242.8,24863.2
65217.6,24802.3
65204.7,24737.7
65204.7,24671.8
65217.6,24607.1
65242.8,24546.2
65242.8,24546.2
65279.4,24491.4
65326,24444.8
65380.9,24408.2
65380.9,24408.2
65441.8,24382.9
65506.4,24370.1
65572.3,24370.1
Z" /> 
<path style="fill:#000000; fill-opacity:1.0; 
stroke:#000000; stroke-width:0; stroke-opacity:1; 
stroke-linecap:round; stroke-linejoin:round;fill-rule:evenodd;"
d="M 66637,24382.9
66697.9,24408.2
66697.9,24408.2
66752.7,24444.8
66799.3,24491.4
66835.9,24546.2
66835.9,24546.2
66861.2,24607.1
66874,24671.8
66874,24737.7
66861.2,24802.3
66835.9,24863.2
66835.9,24863.2
66799.3,24918
66752.7,24964.7
66697.9,25001.3
66697.9,25001.3
66697.9,25001.3
66637,25026.5
66572.3,25039.4
66506.4,25039.4
66441.8,25026.5
66380.9,25001.3
66380.9,25001.3
66380.9,25001.3
66326,24964.7
66279.4,24918
66242.8,24863.2
66242.8,24863.2
66217.6,24802.3
66204.7,24737.7
66204.7,24671.8
66217.6,24607.1
66242.8,24546.2
66242.8,24546.2
66279.4,24491.4
66326,24444.8
66380.9,24408.2
66380.9,24408.2
66441.8,24382.9
66506.4,24370.1
66572.3,24370.1
Z" /> 
<path style="fill:#000000; fill-opacity:1.0; 
stroke:#000000; stroke-width:0; stroke-opacity:1; 
stroke-linecap:round; stroke-linejoin:round;fill-rule:evenodd;"
d="M 50189,25039.4
49519.7,25039.4
49519.7,24370.1
50189,24370.1
Z" /> 
<path style="fill:#000000; fill-opacity:1.0; 
stroke:#000000; stroke-width:0; stroke-opacity:1; 
stroke-linecap:round; stroke-linejoin:round;fill-rule:evenodd;"
d="M 52078.7,25039.4
51409.4,25039.4
51409.4,24370.1
52078.7,24370.1
Z" /> 
<path style="fill:#000000; fill-opacity:1.0; 
stroke:#000000; stroke-width:0; stroke-opacity:1; 
stroke-linecap:round; stroke-linejoin:round;fill-rule:evenodd;"
d="M 52841.7,24382.9
52902.6,24408.2
52902.6,24408.2
52957.4,24444.8
53004,24491.4
53040.7,24546.2
53040.7,24546.2
53065.9,24607.1
53078.7,24671.8
53078.7,24737.7
53065.9,24802.3
53040.7,24863.2
53040.7,24863.2
53004,24918
52957.4,24964.7
52902.6,25001.3
52902.6,25001.3
52902.6,25001.3
52841.7,25026.5
52777.1,25039.4
52711.1,25039.4
52646.5,25026.5
52585.6,25001.3
52585.6,25001.3
52585.6,25001.3
52530.8,24964.7
52484.2,24918
52447.5,24863.2
52447.5,24863.2
52422.3,24802.3
52409.4,24737.7
52409.4,24671.8
52422.3,24607.1
52447.5,24546.2
52447.5,24546.2
52484.2,24491.4
52530.8,24444.8
52585.6,24408.2
52585.6,24408.2
52646.5,24382.9
52711.1,24370.1
52777.1,24370.1
Z" /> 
<path style="fill:#000000; fill-opacity:1.0; 
stroke:#000000; stroke-width:0; stroke-opacity:1; 
stroke-linecap:round; stroke-linejoin:round;fill-rule:evenodd;"
d="M 53841.7,24382.9
53902.6,24408.2
53902.6,24408.2
53957.4,24444.8
54004,24491.4
54040.7,24546.2
54040.7,24546.2
54065.9,24607.1
54078.7,24671.8
54078.7,24737.7
54065.9,24802.3
54040.7,24863.2
54040.7,24863.2
54004,24918
53957.4,24964.7
53902.6,25001.3
53902.6,25001.3
53902.6,25001.3
53841.7,25026.5
53777.1,25039.4
53711.1,25039.4
53646.5,25026.5
53585.6,25001.3
53585.6,25001.3
53585.6,25001.3
53530.8,24964.7
53484.2,24918
53447.5,24863.2
53447.5,24863.2
53422.3,24802.3
53409.4,24737.7
53409.4,24671.8
53422.3,24607.1
53447.5,24546.2
53447.5,24546.2
53484.2,24491.4
53530.8,24444.8
53585.6,24408.2
53585.6,24408.2
53646.5,24382.9
53711.1,24370.1
53777.1,24370.1
Z" /> 
<path style="fill:#000000; fill-opacity:1.0; 
stroke:#000000; stroke-width:0; stroke-opacity:1; 
stroke-linecap:round; stroke-linejoin:round;fill-rule:evenodd;"
d="M 54841.7,24382.9
54902.6,24408.2
54902.6,24408.2
54957.4,24444.8
55004,24491.4
55040.7,24546.2
55040.7,24546.2
55065.9,24607.1
55078.7,24671.8
55078.7,24737.7
55065.9,24802.3
55040.7,24863.2
55040.7,24863.2
55004,24918
54957.4,24964.7
54902.6,25001.3
54902.6,25001.3
54902.6,25001.3
54841.7,25026.5
54777.1,25039.4
54711.1,25039.4
54646.5,25026.5
54585.6,25001.3
54585.6,25001.3
54585.6,25001.3
54530.8,24964.7
54484.2,24918
54447.5,24863.2
54447.5,24863.2
54422.3,24802.3
54409.4,24737.7
54409.4,24671.8
54422.3,24607.1
54447.5,24546.2
54447.5,24546.2
54484.2,24491.4
54530.8,24444.8
54585.6,24408.2
54585.6,24408.2
54646.5,24382.9
54711.1,24370.1
54777.1,24370.1
Z" /> 
<path style="fill:#000000; fill-opacity:1.0; 
stroke:#000000; stroke-width:0; stroke-opacity:1; 
stroke-linecap:round; stroke-linejoin:round;fill-rule:evenodd;"
d="M 57731.5,24382.9
57792.4,24408.2
57792.4,24408.2
57847.2,24444.8
57893.8,24491.4
57930.4,24546.2
57930.4,24546.2
57955.6,24607.1
57968.5,24671.8
57968.5,24737.7
57955.6,24802.3
57930.4,24863.2
57930.4,24863.2
57893.8,24918
57847.2,24964.7
57792.4,25001.3
57792.4,25001.3
57792.4,25001.3
57731.5,25026.5
57666.8,25039.4
57600.9,25039.4
57536.2,25026.5
57475.3,25001.3
57475.3,25001.3
57475.3,25001.3
57420.5,24964.7
57373.9,24918
57337.3,24863.2
57337.3,24863.2
57312.1,24802.3
57299.2,24737.7
57299.2,24671.8
57312.1,24607.1
57337.3,24546.2
57337.3,24546.2
57373.9,24491.4
57420.5,24444.8
57475.3,24408.2
57475.3,24408.2
57536.2,24382.9
57600.9,24370.1
57666.8,24370.1
Z" /> 
<path style="fill:#000000; fill-opacity:1.0; 
stroke:#000000; stroke-width:0; stroke-opacity:1; 
stroke-linecap:round; stroke-linejoin:round;fill-rule:evenodd;"
d="M 68874,25039.4
68204.7,25039.4
68204.7,24370.1
68874,24370.1
Z" /> 
<path style="fill:#000000; fill-opacity:1.0; 
stroke:#000000; stroke-width:0; stroke-opacity:1; 
stroke-linecap:round; stroke-linejoin:round;fill-rule:evenodd;"
d="M 48951.9,24382.9
49012.8,24408.2
49012.8,24408.2
49067.7,24444.8
49114.3,24491.4
49150.9,24546.2
49150.9,24546.2
49176.1,24607.1
49189,24671.8
49189,24737.7
49176.1,24802.3
49150.9,24863.2
49150.9,24863.2
49114.3,24918
49067.7,24964.7
49012.8,25001.3
49012.8,25001.3
49012.8,25001.3
48951.9,25026.5
48887.3,25039.4
48821.4,25039.4
48756.7,25026.5
48695.8,25001.3
48695.8,25001.3
48695.8,25001.3
48641,24964.7
48594.4,24918
48557.8,24863.2
48557.8,24863.2
48532.5,24802.3
48519.7,24737.7
48519.7,24671.8
48532.5,24607.1
48557.8,24546.2
48557.8,24546.2
48594.4,24491.4
48641,24444.8
48695.8,24408.2
48695.8,24408.2
48756.7,24382.9
48821.4,24370.1
48887.3,24370.1
Z" /> 
<path style="fill:#000000; fill-opacity:1.0; 
stroke:#000000; stroke-width:0; stroke-opacity:1; 
stroke-linecap:round; stroke-linejoin:round;fill-rule:evenodd;"
d="M 47951.9,24382.9
48012.8,24408.2
48012.8,24408.2
48067.7,24444.8
48114.3,24491.4
48150.9,24546.2
48150.9,24546.2
48176.1,24607.1
48189,24671.8
48189,24737.7
48176.1,24802.3
48150.9,24863.2
48150.9,24863.2
48114.3,24918
48067.7,24964.7
48012.8,25001.3
48012.8,25001.3
48012.8,25001.3
47951.9,25026.5
47887.3,25039.4
47821.4,25039.4
47756.7,25026.5
47695.8,25001.3
47695.8,25001.3
47695.8,25001.3
47641,24964.7
47594.4,24918
47557.8,24863.2
47557.8,24863.2
47532.5,24802.3
47519.7,24737.7
47519.7,24671.8
47532.5,24607.1
47557.8,24546.2
47557.8,24546.2
47594.4,24491.4
47641,24444.8
47695.8,24408.2
47695.8,24408.2
47756.7,24382.9
47821.4,24370.1
47887.3,24370.1
Z" /> 
<path style="fill:#000000; fill-opacity:1.0; 
stroke:#000000; stroke-width:0; stroke-opacity:1; 
stroke-linecap:round; stroke-linejoin:round;fill-rule:evenodd;"
d="M 45951.9,24382.9
46012.8,24408.2
46012.8,24408.2
46067.7,24444.8
46114.3,24491.4
46150.9,24546.2
46150.9,24546.2
46176.1,24607.1
46189,24671.8
46189,24737.7
46176.1,24802.3
46150.9,24863.2
46150.9,24863.2
46114.3,24918
46067.7,24964.7
46012.8,25001.3
46012.8,25001.3
46012.8,25001.3
45951.9,25026.5
45887.3,25039.4
45821.4,25039.4
45756.7,25026.5
45695.8,25001.3
45695.8,25001.3
45695.8,25001.3
45641,24964.7
45594.4,24918
45557.8,24863.2
45557.8,24863.2
45532.5,24802.3
45519.7,24737.7
45519.7,24671.8
45532.5,24607.1
45557.8,24546.2
45557.8,24546.2
45594.4,24491.4
45641,24444.8
45695.8,24408.2
45695.8,24408.2
45756.7,24382.9
45821.4,24370.1
45887.3,24370.1
Z" /> 
<path style="fill:#000000; fill-opacity:1.0; 
stroke:#000000; stroke-width:0; stroke-opacity:1; 
stroke-linecap:round; stroke-linejoin:round;fill-rule:evenodd;"
d="M 46951.9,24382.9
47012.8,24408.2
47012.8,24408.2
47067.7,24444.8
47114.3,24491.4
47150.9,24546.2
47150.9,24546.2
47176.1,24607.1
47189,24671.8
47189,24737.7
47176.1,24802.3
47150.9,24863.2
47150.9,24863.2
47114.3,24918
47067.7,24964.7
47012.8,25001.3
47012.8,25001.3
47012.8,25001.3
46951.9,25026.5
46887.3,25039.4
46821.4,25039.4
46756.7,25026.5
46695.8,25001.3
46695.8,25001.3
46695.8,25001.3
46641,24964.7
46594.4,24918
46557.8,24863.2
46557.8,24863.2
46532.5,24802.3
46519.7,24737.7
46519.7,24671.8
46532.5,24607.1
46557.8,24546.2
46557.8,24546.2
46594.4,24491.4
46641,24444.8
46695.8,24408.2
46695.8,24408.2
46756.7,24382.9
46821.4,24370.1
46887.3,24370.1
Z" /> 
<path style="fill:#000000; fill-opacity:1.0; 
stroke:#000000; stroke-width:0; stroke-opacity:1; 
stroke-linecap:round; stroke-linejoin:round;fill-rule:evenodd;"
d="M 64637,24382.9
64697.9,24408.2
64697.9,24408.2
64752.7,24444.8
64799.3,24491.4
64835.9,24546.2
64835.9,24546.2
64861.2,24607.1
64874,24671.8
64874,24737.7
64861.2,24802.3
64835.9,24863.2
64835.9,24863.2
64799.3,24918
64752.7,24964.7
64697.9,25001.3
64697.9,25001.3
64697.9,25001.3
64637,25026.5
64572.3,25039.4
64506.4,25039.4
64441.8,25026.5
64380.9,25001.3
64380.9,25001.3
64380.9,25001.3
64326,24964.7
64279.4,24918
64242.8,24863.2
64242.8,24863.2
64217.6,24802.3
64204.7,24737.7
64204.7,24671.8
64217.6,24607.1
64242.8,24546.2
64242.8,24546.2
64279.4,24491.4
64326,24444.8
64380.9,24408.2
64380.9,24408.2
64441.8,24382.9
64506.4,24370.1
64572.3,24370.1
Z" /> 
</g> 
</svg>
