<?xml version="1.0" standalone="no"?>
 <!DOCTYPE svg PUBLIC "-//W3C//DTD SVG 1.1//EN" 
 "http://www.w3.org/Graphics/SVG/1.1/DTD/svg11.dtd"> 
<svg xmlns="http://www.w3.org/2000/svg" version="1.1" 
    width="29.7002cm" height="21.0007cm" viewBox="0 0 116930 82680 ">
<title>SVG Picture created as PSLab-F.Paste.svg date 2019/04/16 07:25:02 </title>
  <desc>Picture generated by PCBNEW </desc>
<g style="fill:#000000; fill-opacity:1;stroke:#000000; stroke-opacity:1;
stroke-linecap:round; stroke-linejoin:round; "
 transform="translate(0 0) scale(1 1)">
</g>
<g style="fill:#000000; fill-opacity:0.0; 
stroke:#000000; stroke-width:-0.000393701; stroke-opacity:1; 
stroke-linecap:round; stroke-linejoin:round;">
</g>
<g style="fill:#000000; fill-opacity:0.0; 
stroke:#000000; stroke-width:0; stroke-opacity:1; 
stroke-linecap:round; stroke-linejoin:round;">
</g>
<g style="fill:#000000; fill-opacity:1.0; 
stroke:#000000; stroke-width:0; stroke-opacity:1; 
stroke-linecap:round; stroke-linejoin:round;">
<polyline style="fill-rule:evenodd;"
points="65129,43051
65129,41437
66114,41043
66114,43444
65129,43051
" /> 
<polyline style="fill-rule:evenodd;"
points="71114,43444
71114,41043
72098,41437
72098,43051
71114,43444
" /> 
<circle cx="68614.2" cy="42244.1" r="2007.87" /> 
</g>
<g style="fill:#000000; fill-opacity:1.0; 
stroke:#000000; stroke-width:39.3701; stroke-opacity:1; 
stroke-linecap:round; stroke-linejoin:round;">
</g>
<g style="fill:#000000; fill-opacity:1.0; 
stroke:#000000; stroke-width:0; stroke-opacity:1; 
stroke-linecap:round; stroke-linejoin:round;">
<polyline style="fill-rule:evenodd;"
points="38444,24610
38444,25200
38208,25200
38208,24610
38444,24610
" /> 
<polyline style="fill-rule:evenodd;"
points="37923,25190
37923,25368
37675,25368
37675,25190
37923,25190
" /> 
<polyline style="fill-rule:evenodd;"
points="37923,24816
37923,24994
37675,24994
37675,24816
37923,24816
" /> 
<polyline style="fill-rule:evenodd;"
points="37923,24442
37923,24620
37675,24620
37675,24442
37923,24442
" /> 
<polyline style="fill-rule:evenodd;"
points="38978,24442
38978,24620
38730,24620
38730,24442
38978,24442
" /> 
<polyline style="fill-rule:evenodd;"
points="38978,24816
38978,24994
38730,24994
38730,24816
38978,24816
" /> 
<polyline style="fill-rule:evenodd;"
points="38978,25190
38978,25368
38730,25368
38730,25190
38978,25190
" /> 
<polyline style="fill-rule:evenodd;"
points="41931,29901
41931,30019
41596,30019
41596,29901
41931,29901
" /> 
<polyline style="fill-rule:evenodd;"
points="41931,29704
41931,29822
41596,29822
41596,29704
41931,29704
" /> 
<polyline style="fill-rule:evenodd;"
points="41931,29507
41931,29625
41596,29625
41596,29507
41931,29507
" /> 
<polyline style="fill-rule:evenodd;"
points="41931,29311
41931,29429
41596,29429
41596,29311
41931,29311
" /> 
<polyline style="fill-rule:evenodd;"
points="41931,29114
41931,29232
41596,29232
41596,29114
41931,29114
" /> 
<polyline style="fill-rule:evenodd;"
points="41931,28917
41931,29035
41596,29035
41596,28917
41931,28917
" /> 
<polyline style="fill-rule:evenodd;"
points="41429,28533
41547,28533
41547,28868
41429,28868
41429,28533
" /> 
<polyline style="fill-rule:evenodd;"
points="41232,28533
41350,28533
41350,28868
41232,28868
41232,28533
" /> 
<polyline style="fill-rule:evenodd;"
points="41035,28533
41153,28533
41153,28868
41035,28868
41035,28533
" /> 
<polyline style="fill-rule:evenodd;"
points="40838,28533
40956,28533
40956,28868
40838,28868
40838,28533
" /> 
<polyline style="fill-rule:evenodd;"
points="40641,28533
40759,28533
40759,28868
40641,28868
40641,28533
" /> 
<polyline style="fill-rule:evenodd;"
points="40444,28533
40562,28533
40562,28868
40444,28868
40444,28533
" /> 
<polyline style="fill-rule:evenodd;"
points="40395,28917
40395,29035
40061,29035
40061,28917
40395,28917
" /> 
<polyline style="fill-rule:evenodd;"
points="40395,29114
40395,29232
40061,29232
40061,29114
40395,29114
" /> 
<polyline style="fill-rule:evenodd;"
points="40395,29311
40395,29429
40061,29429
40061,29311
40395,29311
" /> 
<polyline style="fill-rule:evenodd;"
points="40395,29507
40395,29625
40061,29625
40061,29507
40395,29507
" /> 
<polyline style="fill-rule:evenodd;"
points="40395,29704
40395,29822
40061,29822
40061,29704
40395,29704
" /> 
<polyline style="fill-rule:evenodd;"
points="40395,29901
40395,30019
40061,30019
40061,29901
40395,29901
" /> 
<polyline style="fill-rule:evenodd;"
points="40444,30068
40562,30068
40562,30403
40444,30403
40444,30068
" /> 
<polyline style="fill-rule:evenodd;"
points="40641,30068
40759,30068
40759,30403
40641,30403
40641,30068
" /> 
<polyline style="fill-rule:evenodd;"
points="40838,30068
40956,30068
40956,30403
40838,30403
40838,30068
" /> 
<polyline style="fill-rule:evenodd;"
points="41035,30068
41153,30068
41153,30403
41035,30403
41035,30068
" /> 
<polyline style="fill-rule:evenodd;"
points="41232,30068
41350,30068
41350,30403
41232,30403
41232,30068
" /> 
<polyline style="fill-rule:evenodd;"
points="41429,30068
41547,30068
41547,30403
41429,30403
41429,30068
" /> 
<polyline style="fill-rule:evenodd;"
points="41350,29114
41350,29822
40641,29822
40641,29114
41350,29114
" /> 
<polyline style="fill-rule:evenodd;"
points="38519,31903
38519,31647
38937,31647
38937,31903
38519,31903
" /> 
<polyline style="fill-rule:evenodd;"
points="38519,32277
38519,32021
38937,32021
38937,32277
38519,32277
" /> 
<polyline style="fill-rule:evenodd;"
points="38519,32651
38519,32395
38937,32395
38937,32651
38519,32651
" /> 
<polyline style="fill-rule:evenodd;"
points="39385,32651
39385,32395
39803,32395
39803,32651
39385,32651
" /> 
<polyline style="fill-rule:evenodd;"
points="39385,31903
39385,31647
39803,31647
39803,31903
39385,31903
" /> 
<polyline style="fill-rule:evenodd;"
points="39385,32277
39385,32021
39803,32021
39803,32277
39385,32277
" /> 
<polyline style="fill-rule:evenodd;"
points="49635,28958
49635,29194
49025,29194
49025,28958
49635,28958
" /> 
<polyline style="fill-rule:evenodd;"
points="49635,28458
49635,28694
49025,28694
49025,28458
49635,28458
" /> 
<polyline style="fill-rule:evenodd;"
points="49635,27958
49635,28194
49025,28194
49025,27958
49635,27958
" /> 
<polyline style="fill-rule:evenodd;"
points="49635,27458
49635,27694
49025,27694
49025,27458
49635,27458
" /> 
<polyline style="fill-rule:evenodd;"
points="47509,27458
47509,27694
46899,27694
46899,27458
47509,27458
" /> 
<polyline style="fill-rule:evenodd;"
points="47509,27958
47509,28194
46899,28194
46899,27958
47509,27958
" /> 
<polyline style="fill-rule:evenodd;"
points="47509,28458
47509,28694
46899,28694
46899,28458
47509,28458
" /> 
<polyline style="fill-rule:evenodd;"
points="47509,28958
47509,29194
46899,29194
46899,28958
47509,28958
" /> 
<polyline style="fill-rule:evenodd;"
points="52887,38098
52671,38098
52671,37507
52887,37507
52887,38098
" /> 
<polyline style="fill-rule:evenodd;"
points="53202,38098
52986,38098
52986,37507
53202,37507
53202,38098
" /> 
<polyline style="fill-rule:evenodd;"
points="53517,38098
53301,38098
53301,37507
53517,37507
53517,38098
" /> 
<polyline style="fill-rule:evenodd;"
points="53832,38098
53616,38098
53616,37507
53832,37507
53832,38098
" /> 
<polyline style="fill-rule:evenodd;"
points="54147,38098
53931,38098
53931,37507
54147,37507
54147,38098
" /> 
<polyline style="fill-rule:evenodd;"
points="54462,38098
54246,38098
54246,37507
54462,37507
54462,38098
" /> 
<polyline style="fill-rule:evenodd;"
points="54777,38098
54561,38098
54561,37507
54777,37507
54777,38098
" /> 
<polyline style="fill-rule:evenodd;"
points="55092,38098
54875,38098
54875,37507
55092,37507
55092,38098
" /> 
<polyline style="fill-rule:evenodd;"
points="55407,38098
55190,38098
55190,37507
55407,37507
55407,38098
" /> 
<polyline style="fill-rule:evenodd;"
points="55722,38098
55505,38098
55505,37507
55722,37507
55722,38098
" /> 
<polyline style="fill-rule:evenodd;"
points="56037,38098
55820,38098
55820,37507
56037,37507
56037,38098
" /> 
<polyline style="fill-rule:evenodd;"
points="56893,37025
56893,37242
56303,37242
56303,37025
56893,37025
" /> 
<polyline style="fill-rule:evenodd;"
points="56893,36710
56893,36927
56303,36927
56303,36710
56893,36710
" /> 
<polyline style="fill-rule:evenodd;"
points="56893,36395
56893,36612
56303,36612
56303,36395
56893,36395
" /> 
<polyline style="fill-rule:evenodd;"
points="56893,36080
56893,36297
56303,36297
56303,36080
56893,36080
" /> 
<polyline style="fill-rule:evenodd;"
points="56893,35765
56893,35982
56303,35982
56303,35765
56893,35765
" /> 
<polyline style="fill-rule:evenodd;"
points="56893,35450
56893,35667
56303,35667
56303,35450
56893,35450
" /> 
<polyline style="fill-rule:evenodd;"
points="56893,35135
56893,35352
56303,35352
56303,35135
56893,35135
" /> 
<polyline style="fill-rule:evenodd;"
points="56893,34820
56893,35037
56303,35037
56303,34820
56893,34820
" /> 
<polyline style="fill-rule:evenodd;"
points="56893,34505
56893,34722
56303,34722
56303,34505
56893,34505
" /> 
<polyline style="fill-rule:evenodd;"
points="56893,34190
56893,34407
56303,34407
56303,34190
56893,34190
" /> 
<polyline style="fill-rule:evenodd;"
points="56893,33875
56893,34092
56303,34092
56303,33875
56893,33875
" /> 
<polyline style="fill-rule:evenodd;"
points="56037,33610
55820,33610
55820,33019
56037,33019
56037,33610
" /> 
<polyline style="fill-rule:evenodd;"
points="55722,33610
55505,33610
55505,33019
55722,33019
55722,33610
" /> 
<polyline style="fill-rule:evenodd;"
points="55407,33610
55190,33610
55190,33019
55407,33019
55407,33610
" /> 
<polyline style="fill-rule:evenodd;"
points="55092,33610
54875,33610
54875,33019
55092,33019
55092,33610
" /> 
<polyline style="fill-rule:evenodd;"
points="54777,33610
54561,33610
54561,33019
54777,33019
54777,33610
" /> 
<polyline style="fill-rule:evenodd;"
points="54462,33610
54246,33610
54246,33019
54462,33019
54462,33610
" /> 
<polyline style="fill-rule:evenodd;"
points="54147,33610
53931,33610
53931,33019
54147,33019
54147,33610
" /> 
<polyline style="fill-rule:evenodd;"
points="53832,33610
53616,33610
53616,33019
53832,33019
53832,33610
" /> 
<polyline style="fill-rule:evenodd;"
points="53517,33610
53301,33610
53301,33019
53517,33019
53517,33610
" /> 
<polyline style="fill-rule:evenodd;"
points="53202,33610
52986,33610
52986,33019
53202,33019
53202,33610
" /> 
<polyline style="fill-rule:evenodd;"
points="52887,33610
52671,33610
52671,33019
52887,33019
52887,33610
" /> 
<polyline style="fill-rule:evenodd;"
points="52405,33875
52405,34092
51814,34092
51814,33875
52405,33875
" /> 
<polyline style="fill-rule:evenodd;"
points="52405,34190
52405,34407
51814,34407
51814,34190
52405,34190
" /> 
<polyline style="fill-rule:evenodd;"
points="52405,34505
52405,34722
51814,34722
51814,34505
52405,34505
" /> 
<polyline style="fill-rule:evenodd;"
points="52405,34820
52405,35037
51814,35037
51814,34820
52405,34820
" /> 
<polyline style="fill-rule:evenodd;"
points="52405,35135
52405,35352
51814,35352
51814,35135
52405,35135
" /> 
<polyline style="fill-rule:evenodd;"
points="52405,35450
52405,35667
51814,35667
51814,35450
52405,35450
" /> 
<polyline style="fill-rule:evenodd;"
points="52405,35765
52405,35982
51814,35982
51814,35765
52405,35765
" /> 
<polyline style="fill-rule:evenodd;"
points="52405,36080
52405,36297
51814,36297
51814,36080
52405,36080
" /> 
<polyline style="fill-rule:evenodd;"
points="52405,36395
52405,36612
51814,36612
51814,36395
52405,36395
" /> 
<polyline style="fill-rule:evenodd;"
points="52405,36710
52405,36927
51814,36927
51814,36710
52405,36710
" /> 
<polyline style="fill-rule:evenodd;"
points="52405,37025
52405,37242
51814,37242
51814,37025
52405,37025
" /> 
<polyline style="fill-rule:evenodd;"
points="44586,41791
44586,42145
44389,42145
44389,41791
44586,41791
" /> 
<polyline style="fill-rule:evenodd;"
points="43996,41791
43996,42145
43799,42145
43799,41791
43996,41791
" /> 
<polyline style="fill-rule:evenodd;"
points="60462,37604
60462,37368
61072,37368
61072,37604
60462,37604
" /> 
<polyline style="fill-rule:evenodd;"
points="60462,38104
60462,37868
61072,37868
61072,38104
60462,38104
" /> 
<polyline style="fill-rule:evenodd;"
points="60462,38604
60462,38368
61072,38368
61072,38604
60462,38604
" /> 
<polyline style="fill-rule:evenodd;"
points="60462,39104
60462,38868
61072,38868
61072,39104
60462,39104
" /> 
<polyline style="fill-rule:evenodd;"
points="62588,39104
62588,38868
63198,38868
63198,39104
62588,39104
" /> 
<polyline style="fill-rule:evenodd;"
points="62588,38604
62588,38368
63198,38368
63198,38604
62588,38604
" /> 
<polyline style="fill-rule:evenodd;"
points="62588,38104
62588,37868
63198,37868
63198,38104
62588,38104
" /> 
<polyline style="fill-rule:evenodd;"
points="62588,37604
62588,37368
63198,37368
63198,37604
62588,37604
" /> 
<polyline style="fill-rule:evenodd;"
points="44106,30314
43122,30314
43122,29311
44106,29311
44106,30314
" /> 
<polyline style="fill-rule:evenodd;"
points="44106,28326
43122,28326
43122,27322
44106,27322
44106,28326
" /> 
<polyline style="fill-rule:evenodd;"
points="43385,31362
43385,32346
42381,32346
42381,31362
43385,31362
" /> 
<polyline style="fill-rule:evenodd;"
points="41397,31362
41397,32346
40393,32346
40393,31362
41397,31362
" /> 
<polyline style="fill-rule:evenodd;"
points="53385,27539
53385,28523
52381,28523
52381,27539
53385,27539
" /> 
<polyline style="fill-rule:evenodd;"
points="51397,27539
51397,28523
50393,28523
50393,27539
51397,27539
" /> 
<polyline style="fill-rule:evenodd;"
points="43775,26665
43775,25681
44779,25681
44779,26665
43775,26665
" /> 
<polyline style="fill-rule:evenodd;"
points="45763,26665
45763,25681
46767,25681
46767,26665
45763,26665
" /> 
<polyline style="fill-rule:evenodd;"
points="47929,33555
47259,33555
47259,33043
47929,33043
47929,33555
" /> 
<polyline style="fill-rule:evenodd;"
points="47929,32177
47259,32177
47259,31665
47929,31665
47929,32177
" /> 
<polyline style="fill-rule:evenodd;"
points="54500,26507
54500,25838
55011,25838
55011,26507
54500,26507
" /> 
<polyline style="fill-rule:evenodd;"
points="55877,26507
55877,25838
56389,25838
56389,26507
55877,26507
" /> 
<polyline style="fill-rule:evenodd;"
points="39375,26751
39375,27200
38576,27200
38576,26751
39375,26751
" /> 
<polyline style="fill-rule:evenodd;"
points="39375,25807
39375,26255
38576,26255
38576,25807
39375,25807
" /> 
<polyline style="fill-rule:evenodd;"
points="68547,29236
68547,28921
68901,28921
68901,29236
68547,29236
" /> 
<polyline style="fill-rule:evenodd;"
points="68547,29984
68547,29669
68901,29669
68901,29984
68547,29984
" /> 
<polyline style="fill-rule:evenodd;"
points="69334,29610
69334,29295
69688,29295
69688,29610
69334,29610
" /> 
<polyline style="fill-rule:evenodd;"
points="51342,39503
51342,39267
51933,39267
51933,39503
51342,39503
" /> 
<polyline style="fill-rule:evenodd;"
points="51342,40003
51342,39767
51933,39767
51933,40003
51342,40003
" /> 
<polyline style="fill-rule:evenodd;"
points="51342,40503
51342,40267
51933,40267
51933,40503
51342,40503
" /> 
<polyline style="fill-rule:evenodd;"
points="51342,41003
51342,40767
51933,40767
51933,41003
51342,41003
" /> 
<polyline style="fill-rule:evenodd;"
points="51342,41503
51342,41267
51933,41267
51933,41503
51342,41503
" /> 
<polyline style="fill-rule:evenodd;"
points="51342,42003
51342,41767
51933,41767
51933,42003
51342,42003
" /> 
<polyline style="fill-rule:evenodd;"
points="51342,42503
51342,42267
51933,42267
51933,42503
51342,42503
" /> 
<polyline style="fill-rule:evenodd;"
points="53468,42503
53468,42267
54059,42267
54059,42503
53468,42503
" /> 
<polyline style="fill-rule:evenodd;"
points="53468,42003
53468,41767
54059,41767
54059,42003
53468,42003
" /> 
<polyline style="fill-rule:evenodd;"
points="53468,41503
53468,41267
54059,41267
54059,41503
53468,41503
" /> 
<polyline style="fill-rule:evenodd;"
points="53468,41003
53468,40767
54059,40767
54059,41003
53468,41003
" /> 
<polyline style="fill-rule:evenodd;"
points="53468,40503
53468,40267
54059,40267
54059,40503
53468,40503
" /> 
<polyline style="fill-rule:evenodd;"
points="53468,40003
53468,39767
54059,39767
54059,40003
53468,40003
" /> 
<polyline style="fill-rule:evenodd;"
points="53468,39503
53468,39267
54059,39267
54059,39503
53468,39503
" /> 
<polyline style="fill-rule:evenodd;"
points="65078,26196
65078,25960
65669,25960
65669,26196
65078,26196
" /> 
<polyline style="fill-rule:evenodd;"
points="65078,26696
65078,26460
65669,26460
65669,26696
65078,26696
" /> 
<polyline style="fill-rule:evenodd;"
points="65078,27196
65078,26960
65669,26960
65669,27196
65078,27196
" /> 
<polyline style="fill-rule:evenodd;"
points="65078,27696
65078,27460
65669,27460
65669,27696
65078,27696
" /> 
<polyline style="fill-rule:evenodd;"
points="65078,28196
65078,27960
65669,27960
65669,28196
65078,28196
" /> 
<polyline style="fill-rule:evenodd;"
points="65078,28696
65078,28460
65669,28460
65669,28696
65078,28696
" /> 
<polyline style="fill-rule:evenodd;"
points="65078,29196
65078,28960
65669,28960
65669,29196
65078,29196
" /> 
<polyline style="fill-rule:evenodd;"
points="67204,29196
67204,28960
67795,28960
67795,29196
67204,29196
" /> 
<polyline style="fill-rule:evenodd;"
points="67204,28696
67204,28460
67795,28460
67795,28696
67204,28696
" /> 
<polyline style="fill-rule:evenodd;"
points="67204,28196
67204,27960
67795,27960
67795,28196
67204,28196
" /> 
<polyline style="fill-rule:evenodd;"
points="67204,27696
67204,27460
67795,27460
67795,27696
67204,27696
" /> 
<polyline style="fill-rule:evenodd;"
points="67204,27196
67204,26960
67795,26960
67795,27196
67204,27196
" /> 
<polyline style="fill-rule:evenodd;"
points="67204,26696
67204,26460
67795,26460
67795,26696
67204,26696
" /> 
<polyline style="fill-rule:evenodd;"
points="67204,26196
67204,25960
67795,25960
67795,26196
67204,26196
" /> 
<polyline style="fill-rule:evenodd;"
points="64407,34616
64407,34379
65017,34379
65017,34616
64407,34616
" /> 
<polyline style="fill-rule:evenodd;"
points="64407,35116
64407,34879
65017,34879
65017,35116
64407,35116
" /> 
<polyline style="fill-rule:evenodd;"
points="64407,35616
64407,35379
65017,35379
65017,35616
64407,35616
" /> 
<polyline style="fill-rule:evenodd;"
points="64407,36116
64407,35879
65017,35879
65017,36116
64407,36116
" /> 
<polyline style="fill-rule:evenodd;"
points="66533,36116
66533,35879
67143,35879
67143,36116
66533,36116
" /> 
<polyline style="fill-rule:evenodd;"
points="66533,35616
66533,35379
67143,35379
67143,35616
66533,35616
" /> 
<polyline style="fill-rule:evenodd;"
points="66533,35116
66533,34879
67143,34879
67143,35116
66533,35116
" /> 
<polyline style="fill-rule:evenodd;"
points="66533,34616
66533,34379
67143,34379
67143,34616
66533,34616
" /> 
<polyline style="fill-rule:evenodd;"
points="60413,27401
60413,27283
60964,27283
60964,27401
60413,27401
" /> 
<polyline style="fill-rule:evenodd;"
points="60413,27598
60413,27480
60964,27480
60964,27598
60413,27598
" /> 
<polyline style="fill-rule:evenodd;"
points="60413,27795
60413,27677
60964,27677
60964,27795
60413,27795
" /> 
<polyline style="fill-rule:evenodd;"
points="60413,27992
60413,27874
60964,27874
60964,27992
60413,27992
" /> 
<polyline style="fill-rule:evenodd;"
points="60413,28188
60413,28070
60964,28070
60964,28188
60413,28188
" /> 
<polyline style="fill-rule:evenodd;"
points="62145,28188
62145,28070
62696,28070
62696,28188
62145,28188
" /> 
<polyline style="fill-rule:evenodd;"
points="62145,27992
62145,27874
62696,27874
62696,27992
62145,27992
" /> 
<polyline style="fill-rule:evenodd;"
points="62145,27795
62145,27677
62696,27677
62696,27795
62145,27795
" /> 
<polyline style="fill-rule:evenodd;"
points="62145,27598
62145,27480
62696,27480
62696,27598
62145,27598
" /> 
<polyline style="fill-rule:evenodd;"
points="62145,27401
62145,27283
62696,27283
62696,27401
62145,27401
" /> 
<polyline style="fill-rule:evenodd;"
points="68446,34596
68446,34360
69057,34360
69057,34596
68446,34596
" /> 
<polyline style="fill-rule:evenodd;"
points="68446,35096
68446,34860
69057,34860
69057,35096
68446,35096
" /> 
<polyline style="fill-rule:evenodd;"
points="68446,35596
68446,35360
69057,35360
69057,35596
68446,35596
" /> 
<polyline style="fill-rule:evenodd;"
points="68446,36096
68446,35860
69057,35860
69057,36096
68446,36096
" /> 
<polyline style="fill-rule:evenodd;"
points="70572,36096
70572,35860
71183,35860
71183,36096
70572,36096
" /> 
<polyline style="fill-rule:evenodd;"
points="70572,35596
70572,35360
71183,35360
71183,35596
70572,35596
" /> 
<polyline style="fill-rule:evenodd;"
points="70572,35096
70572,34860
71183,34860
71183,35096
70572,35096
" /> 
<polyline style="fill-rule:evenodd;"
points="70572,34596
70572,34360
71183,34360
71183,34596
70572,34596
" /> 
<polyline style="fill-rule:evenodd;"
points="64411,37620
64411,37383
65021,37383
65021,37620
64411,37620
" /> 
<polyline style="fill-rule:evenodd;"
points="64411,38120
64411,37883
65021,37883
65021,38120
64411,38120
" /> 
<polyline style="fill-rule:evenodd;"
points="64411,38620
64411,38383
65021,38383
65021,38620
64411,38620
" /> 
<polyline style="fill-rule:evenodd;"
points="64411,39120
64411,38883
65021,38883
65021,39120
64411,39120
" /> 
<polyline style="fill-rule:evenodd;"
points="66537,39120
66537,38883
67147,38883
67147,39120
66537,39120
" /> 
<polyline style="fill-rule:evenodd;"
points="66537,38620
66537,38383
67147,38383
67147,38620
66537,38620
" /> 
<polyline style="fill-rule:evenodd;"
points="66537,38120
66537,37883
67147,37883
67147,38120
66537,38120
" /> 
<polyline style="fill-rule:evenodd;"
points="66537,37620
66537,37383
67147,37383
67147,37620
66537,37620
" /> 
<polyline style="fill-rule:evenodd;"
points="48360,40494
48360,40730
47750,40730
47750,40494
48360,40494
" /> 
<polyline style="fill-rule:evenodd;"
points="48360,39994
48360,40230
47750,40230
47750,39994
48360,39994
" /> 
<polyline style="fill-rule:evenodd;"
points="48360,39494
48360,39730
47750,39730
47750,39494
48360,39494
" /> 
<polyline style="fill-rule:evenodd;"
points="48360,38994
48360,39230
47750,39230
47750,38994
48360,38994
" /> 
<polyline style="fill-rule:evenodd;"
points="46234,38994
46234,39230
45624,39230
45624,38994
46234,38994
" /> 
<polyline style="fill-rule:evenodd;"
points="46234,39494
46234,39730
45624,39730
45624,39494
46234,39494
" /> 
<polyline style="fill-rule:evenodd;"
points="46234,39994
46234,40230
45624,40230
45624,39994
46234,39994
" /> 
<polyline style="fill-rule:evenodd;"
points="46234,40494
46234,40730
45624,40730
45624,40494
46234,40494
" /> 
<polyline style="fill-rule:evenodd;"
points="59982,31175
59982,30938
60592,30938
60592,31175
59982,31175
" /> 
<polyline style="fill-rule:evenodd;"
points="59982,31675
59982,31438
60592,31438
60592,31675
59982,31675
" /> 
<polyline style="fill-rule:evenodd;"
points="59982,32175
59982,31938
60592,31938
60592,32175
59982,32175
" /> 
<polyline style="fill-rule:evenodd;"
points="59982,32675
59982,32438
60592,32438
60592,32675
59982,32675
" /> 
<polyline style="fill-rule:evenodd;"
points="62108,32675
62108,32438
62718,32438
62718,32675
62108,32675
" /> 
<polyline style="fill-rule:evenodd;"
points="62108,32175
62108,31938
62718,31938
62718,32175
62108,32175
" /> 
<polyline style="fill-rule:evenodd;"
points="62108,31675
62108,31438
62718,31438
62718,31675
62108,31675
" /> 
<polyline style="fill-rule:evenodd;"
points="62108,31175
62108,30938
62718,30938
62718,31175
62108,31175
" /> 
<polyline style="fill-rule:evenodd;"
points="47917,30700
47917,31015
47562,31015
47562,30700
47917,30700
" /> 
<polyline style="fill-rule:evenodd;"
points="47917,29952
47917,30267
47562,30267
47562,29952
47917,29952
" /> 
<polyline style="fill-rule:evenodd;"
points="47129,30326
47129,30641
46775,30641
46775,30326
47129,30326
" /> 
<polyline style="fill-rule:evenodd;"
points="53909,26389
53909,26704
53555,26704
53555,26389
53909,26389
" /> 
<polyline style="fill-rule:evenodd;"
points="53909,25641
53909,25956
53555,25956
53555,25641
53909,25641
" /> 
<polyline style="fill-rule:evenodd;"
points="53122,26015
53122,26330
52767,26330
52767,26015
53122,26015
" /> 
<polyline style="fill-rule:evenodd;"
points="45905,30275
44921,30275
44921,29507
45905,29507
45905,30275
" /> 
<polyline style="fill-rule:evenodd;"
points="45905,29074
44921,29074
44921,28307
45905,28307
45905,29074
" /> 
<polyline style="fill-rule:evenodd;"
points="50622,25681
50622,26665
49854,26665
49854,25681
50622,25681
" /> 
<polyline style="fill-rule:evenodd;"
points="49421,25681
49421,26665
48653,26665
48653,25681
49421,25681
" /> 
<polyline style="fill-rule:evenodd;"
points="36814,32470
36814,32175
37129,32175
37129,32470
36814,32470
" /> 
<polyline style="fill-rule:evenodd;"
points="36224,32470
36224,32175
36539,32175
36539,32470
36224,32470
" /> 
<polyline style="fill-rule:evenodd;"
points="50986,35437
50690,35437
50690,35122
50986,35122
50986,35437
" /> 
<polyline style="fill-rule:evenodd;"
points="50986,36027
50690,36027
50690,35712
50986,35712
50986,36027
" /> 
<polyline style="fill-rule:evenodd;"
points="39803,41820
39803,42116
39488,42116
39488,41820
39803,41820
" /> 
<polyline style="fill-rule:evenodd;"
points="40393,41820
40393,42116
40078,42116
40078,41820
40393,41820
" /> 
<polyline style="fill-rule:evenodd;"
points="38385,40797
38385,41092
38070,41092
38070,40797
38385,40797
" /> 
<polyline style="fill-rule:evenodd;"
points="38976,40797
38976,41092
38661,41092
38661,40797
38976,40797
" /> 
<polyline style="fill-rule:evenodd;"
points="51663,29937
51958,29937
51958,30251
51663,30251
51663,29937
" /> 
<polyline style="fill-rule:evenodd;"
points="51663,29346
51958,29346
51958,29661
51663,29661
51663,29346
" /> 
<polyline style="fill-rule:evenodd;"
points="48582,42116
48582,41820
48897,41820
48897,42116
48582,42116
" /> 
<polyline style="fill-rule:evenodd;"
points="47992,42116
47992,41820
48307,41820
48307,42116
47992,42116
" /> 
<polyline style="fill-rule:evenodd;"
points="53116,29937
53411,29937
53411,30251
53116,30251
53116,29937
" /> 
<polyline style="fill-rule:evenodd;"
points="53116,29346
53411,29346
53411,29661
53116,29661
53116,29346
" /> 
<polyline style="fill-rule:evenodd;"
points="54492,32285
54492,31990
54807,31990
54807,32285
54492,32285
" /> 
<polyline style="fill-rule:evenodd;"
points="53901,32285
53901,31990
54216,31990
54216,32285
53901,32285
" /> 
<polyline style="fill-rule:evenodd;"
points="39616,24964
39911,24964
39911,25279
39616,25279
39616,24964
" /> 
<polyline style="fill-rule:evenodd;"
points="39616,24374
39911,24374
39911,24688
39616,24688
39616,24374
" /> 
<polyline style="fill-rule:evenodd;"
points="58543,34742
58543,35037
58228,35037
58228,34742
58543,34742
" /> 
<polyline style="fill-rule:evenodd;"
points="59133,34742
59133,35037
58818,35037
58818,34742
59133,34742
" /> 
<polyline style="fill-rule:evenodd;"
points="36722,24964
37017,24964
37017,25279
36722,25279
36722,24964
" /> 
<polyline style="fill-rule:evenodd;"
points="36722,24374
37017,24374
37017,24688
36722,24688
36722,24374
" /> 
<polyline style="fill-rule:evenodd;"
points="55716,39061
55716,38765
56031,38765
56031,39061
55716,39061
" /> 
<polyline style="fill-rule:evenodd;"
points="55125,39061
55125,38765
55440,38765
55440,39061
55125,39061
" /> 
<polyline style="fill-rule:evenodd;"
points="66165,36600
66165,36895
65850,36895
65850,36600
66165,36600
" /> 
<polyline style="fill-rule:evenodd;"
points="66755,36600
66755,36895
66440,36895
66440,36600
66755,36600
" /> 
<polyline style="fill-rule:evenodd;"
points="62832,34881
63127,34881
63127,35196
62832,35196
62832,34881
" /> 
<polyline style="fill-rule:evenodd;"
points="62832,34291
63127,34291
63127,34606
62832,34606
62832,34291
" /> 
<polyline style="fill-rule:evenodd;"
points="61759,26387
61759,26683
61444,26683
61444,26387
61759,26387
" /> 
<polyline style="fill-rule:evenodd;"
points="62350,26387
62350,26683
62035,26683
62035,26387
62350,26387
" /> 
<polyline style="fill-rule:evenodd;"
points="64889,33667
64889,33372
65204,33372
65204,33667
64889,33667
" /> 
<polyline style="fill-rule:evenodd;"
points="64299,33667
64299,33372
64614,33372
64614,33667
64299,33667
" /> 
<polyline style="fill-rule:evenodd;"
points="66681,33667
66681,33372
66996,33372
66996,33667
66681,33667
" /> 
<polyline style="fill-rule:evenodd;"
points="66090,33667
66090,33372
66405,33372
66405,33667
66090,33667
" /> 
<polyline style="fill-rule:evenodd;"
points="64015,26683
64015,26387
64330,26387
64330,26683
64015,26683
" /> 
<polyline style="fill-rule:evenodd;"
points="63425,26683
63425,26387
63740,26387
63740,26683
63425,26683
" /> 
<polyline style="fill-rule:evenodd;"
points="60929,39627
60929,39923
60614,39923
60614,39627
60929,39627
" /> 
<polyline style="fill-rule:evenodd;"
points="61519,39627
61519,39923
61204,39923
61204,39627
61519,39627
" /> 
<polyline style="fill-rule:evenodd;"
points="59537,37905
59832,37905
59832,38220
59537,38220
59537,37905
" /> 
<polyline style="fill-rule:evenodd;"
points="59537,37314
59832,37314
59832,37629
59537,37629
59537,37314
" /> 
<polyline style="fill-rule:evenodd;"
points="44055,39773
44055,40068
43740,40068
43740,39773
44055,39773
" /> 
<polyline style="fill-rule:evenodd;"
points="44645,39773
44645,40068
44330,40068
44330,39773
44645,39773
" /> 
<polyline style="fill-rule:evenodd;"
points="63393,36895
63393,36600
63708,36600
63708,36895
63393,36895
" /> 
<polyline style="fill-rule:evenodd;"
points="62803,36895
62803,36600
63118,36600
63118,36895
62803,36895
" /> 
<polyline style="fill-rule:evenodd;"
points="69251,27844
69251,27549
69566,27549
69566,27844
69251,27844
" /> 
<polyline style="fill-rule:evenodd;"
points="68661,27844
68661,27549
68976,27549
68976,27844
68661,27844
" /> 
<polyline style="fill-rule:evenodd;"
points="46889,41820
46889,42116
46574,42116
46574,41820
46889,41820
" /> 
<polyline style="fill-rule:evenodd;"
points="47480,41820
47480,42116
47165,42116
47165,41820
47480,41820
" /> 
<polyline style="fill-rule:evenodd;"
points="61511,33372
61511,33667
61196,33667
61196,33372
61511,33372
" /> 
<polyline style="fill-rule:evenodd;"
points="62102,33372
62102,33667
61787,33667
61787,33372
62102,33372
" /> 
<polyline style="fill-rule:evenodd;"
points="45748,38592
45748,38297
46062,38297
46062,38592
45748,38592
" /> 
<polyline style="fill-rule:evenodd;"
points="45157,38592
45157,38297
45472,38297
45472,38592
45157,38592
" /> 
<polyline style="fill-rule:evenodd;"
points="44330,41092
44330,40797
44645,40797
44645,41092
44330,41092
" /> 
<polyline style="fill-rule:evenodd;"
points="43740,41092
43740,40797
44055,40797
44055,41092
43740,41092
" /> 
<polyline style="fill-rule:evenodd;"
points="62035,30352
62035,30057
62350,30057
62350,30352
62035,30352
" /> 
<polyline style="fill-rule:evenodd;"
points="61444,30352
61444,30057
61759,30057
61759,30352
61444,30352
" /> 
<polyline style="fill-rule:evenodd;"
points="48582,38592
48582,38297
48897,38297
48897,38592
48582,38592
" /> 
<polyline style="fill-rule:evenodd;"
points="47992,38592
47992,38297
48307,38297
48307,38592
47992,38592
" /> 
<polyline style="fill-rule:evenodd;"
points="69960,37883
69960,37588
70275,37588
70275,37883
69960,37883
" /> 
<polyline style="fill-rule:evenodd;"
points="69370,37883
69370,37588
69685,37588
69685,37883
69370,37883
" /> 
<polyline style="fill-rule:evenodd;"
points="42913,42116
42913,41820
43228,41820
43228,42116
42913,42116
" /> 
<polyline style="fill-rule:evenodd;"
points="42322,42116
42322,41820
42637,41820
42637,42116
42322,42116
" /> 
<polyline style="fill-rule:evenodd;"
points="59541,39582
59836,39582
59836,39897
59541,39897
59541,39582
" /> 
<polyline style="fill-rule:evenodd;"
points="59541,38992
59836,38992
59836,39307
59541,39307
59541,38992
" /> 
<polyline style="fill-rule:evenodd;"
points="64015,30356
64015,30061
64330,30061
64330,30356
64015,30356
" /> 
<polyline style="fill-rule:evenodd;"
points="63425,30356
63425,30061
63740,30061
63740,30356
63425,30356
" /> 
<polyline style="fill-rule:evenodd;"
points="55200,30216
54846,30216
54846,30019
55200,30019
55200,30216
" /> 
<polyline style="fill-rule:evenodd;"
points="55200,29625
54846,29625
54846,29429
55200,29429
55200,29625
" /> 
<polyline style="fill-rule:evenodd;"
points="51937,33023
51937,33377
51740,33377
51740,33023
51937,33023
" /> 
<polyline style="fill-rule:evenodd;"
points="51346,33023
51346,33377
51149,33377
51149,33023
51346,33023
" /> 
<polyline style="fill-rule:evenodd;"
points="51937,32200
51937,32555
51740,32555
51740,32200
51937,32200
" /> 
<polyline style="fill-rule:evenodd;"
points="51346,32200
51346,32555
51149,32555
51149,32200
51346,32200
" /> 
<polyline style="fill-rule:evenodd;"
points="44842,31007
44842,31362
44645,31362
44645,31007
44842,31007
" /> 
<polyline style="fill-rule:evenodd;"
points="44251,31007
44251,31362
44055,31362
44055,31007
44251,31007
" /> 
<polyline style="fill-rule:evenodd;"
points="45472,31366
45472,31011
45669,31011
45669,31366
45472,31366
" /> 
<polyline style="fill-rule:evenodd;"
points="46062,31366
46062,31011
46259,31011
46259,31366
46062,31366
" /> 
<polyline style="fill-rule:evenodd;"
points="68799,38582
68799,38937
68602,38937
68602,38582
68799,38582
" /> 
<polyline style="fill-rule:evenodd;"
points="68208,38582
68208,38937
68011,38937
68011,38582
68208,38582
" /> 
<polyline style="fill-rule:evenodd;"
points="70216,38582
70216,38937
70019,38937
70019,38582
70216,38582
" /> 
<polyline style="fill-rule:evenodd;"
points="69625,38582
69625,38937
69429,38937
69429,38582
69625,38582
" /> 
<polyline style="fill-rule:evenodd;"
points="71633,38582
71633,38937
71437,38937
71437,38582
71633,38582
" /> 
<polyline style="fill-rule:evenodd;"
points="71043,38582
71043,38937
70846,38937
70846,38582
71043,38582
" /> 
<polyline style="fill-rule:evenodd;"
points="71633,37559
71633,37913
71437,37913
71437,37559
71633,37559
" /> 
<polyline style="fill-rule:evenodd;"
points="71043,37559
71043,37913
70846,37913
70846,37559
71043,37559
" /> 
<polyline style="fill-rule:evenodd;"
points="51889,26566
51535,26566
51535,26370
51889,26370
51889,26566
" /> 
<polyline style="fill-rule:evenodd;"
points="51889,25976
51535,25976
51535,25779
51889,25779
51889,25976
" /> 
<polyline style="fill-rule:evenodd;"
points="56133,29437
56488,29437
56488,29633
56133,29633
56133,29437
" /> 
<polyline style="fill-rule:evenodd;"
points="56133,30027
56488,30027
56488,30224
56133,30224
56133,30027
" /> 
<polyline style="fill-rule:evenodd;"
points="48110,25996
48110,26350
47913,26350
47913,25996
48110,25996
" /> 
<polyline style="fill-rule:evenodd;"
points="47519,25996
47519,26350
47322,26350
47322,25996
47519,25996
" /> 
<polyline style="fill-rule:evenodd;"
points="58248,33696
58248,33342
58444,33342
58444,33696
58248,33696
" /> 
<polyline style="fill-rule:evenodd;"
points="58838,33696
58838,33342
59035,33342
59035,33696
58838,33696
" /> 
<polyline style="fill-rule:evenodd;"
points="43169,40767
43169,41122
42972,41122
42972,40767
43169,40767
" /> 
<polyline style="fill-rule:evenodd;"
points="42578,40767
42578,41122
42381,41122
42381,40767
42578,40767
" /> 
<polyline style="fill-rule:evenodd;"
points="57385,30842
57740,30842
57740,31039
57385,31039
57385,30842
" /> 
<polyline style="fill-rule:evenodd;"
points="57385,31433
57740,31433
57740,31629
57385,31629
57385,31433
" /> 
<polyline style="fill-rule:evenodd;"
points="57740,30224
57385,30224
57385,30027
57740,30027
57740,30224
" /> 
<polyline style="fill-rule:evenodd;"
points="57740,29633
57385,29633
57385,29437
57740,29437
57740,29633
" /> 
<polyline style="fill-rule:evenodd;"
points="61503,25826
61503,25472
61700,25472
61700,25826
61503,25826
" /> 
<polyline style="fill-rule:evenodd;"
points="62094,25826
62094,25472
62291,25472
62291,25826
62094,25826
" /> 
<polyline style="fill-rule:evenodd;"
points="63476,25826
63476,25472
63673,25472
63673,25826
63476,25826
" /> 
<polyline style="fill-rule:evenodd;"
points="64066,25826
64066,25472
64263,25472
64263,25826
64066,25826
" /> 
<polyline style="fill-rule:evenodd;"
points="63665,34354
64019,34354
64019,34551
63665,34551
63665,34354
" /> 
<polyline style="fill-rule:evenodd;"
points="63665,34944
64019,34944
64019,35141
63665,35141
63665,34944
" /> 
<polyline style="fill-rule:evenodd;"
points="68799,37559
68799,37913
68602,37913
68602,37559
68799,37559
" /> 
<polyline style="fill-rule:evenodd;"
points="68208,37559
68208,37913
68011,37913
68011,37559
68208,37559
" /> 
<polyline style="fill-rule:evenodd;"
points="69507,33342
69507,33696
69311,33696
69311,33342
69507,33342
" /> 
<polyline style="fill-rule:evenodd;"
points="68917,33342
68917,33696
68720,33696
68720,33342
68917,33342
" /> 
<polyline style="fill-rule:evenodd;"
points="63610,33342
63610,33696
63413,33696
63413,33342
63610,33342
" /> 
<polyline style="fill-rule:evenodd;"
points="63019,33342
63019,33696
62822,33696
62822,33342
63019,33342
" /> 
<polyline style="fill-rule:evenodd;"
points="68913,26496
68913,26850
68716,26850
68716,26496
68913,26496
" /> 
<polyline style="fill-rule:evenodd;"
points="69503,26496
69503,26850
69307,26850
69307,26496
69503,26496
" /> 
<polyline style="fill-rule:evenodd;"
points="69527,25472
69527,25826
69330,25826
69330,25472
69527,25472
" /> 
<polyline style="fill-rule:evenodd;"
points="68937,25472
68937,25826
68740,25826
68740,25472
68937,25472
" /> 
<polyline style="fill-rule:evenodd;"
points="58503,27417
58858,27417
58858,27614
58503,27614
58503,27417
" /> 
<polyline style="fill-rule:evenodd;"
points="58503,28007
58858,28007
58858,28204
58503,28204
58503,28007
" /> 
<polyline style="fill-rule:evenodd;"
points="59047,37783
59047,38137
58850,38137
58850,37783
59047,37783
" /> 
<polyline style="fill-rule:evenodd;"
points="58456,37783
58456,38137
58259,38137
58259,37783
58456,37783
" /> 
<polyline style="fill-rule:evenodd;"
points="59039,39830
59039,40185
58842,40185
58842,39830
59039,39830
" /> 
<polyline style="fill-rule:evenodd;"
points="58448,39830
58448,40185
58251,40185
58251,39830
58448,39830
" /> 
<polyline style="fill-rule:evenodd;"
points="58259,39161
58259,38807
58456,38807
58456,39161
58259,39161
" /> 
<polyline style="fill-rule:evenodd;"
points="58850,39161
58850,38807
59047,38807
59047,39161
58850,39161
" /> 
<polyline style="fill-rule:evenodd;"
points="57736,32858
57381,32858
57381,32661
57736,32661
57736,32858
" /> 
<polyline style="fill-rule:evenodd;"
points="57736,32267
57381,32267
57381,32070
57736,32070
57736,32267
" /> 
<polyline style="fill-rule:evenodd;"
points="58818,32858
58464,32858
58464,32661
58818,32661
58818,32858
" /> 
<polyline style="fill-rule:evenodd;"
points="58818,32267
58464,32267
58464,32070
58818,32070
58818,32267
" /> 
<polyline style="fill-rule:evenodd;"
points="59759,33696
59759,33342
59956,33342
59956,33696
59759,33696
" /> 
<polyline style="fill-rule:evenodd;"
points="60350,33696
60350,33342
60547,33342
60547,33696
60350,33696
" /> 
<polyline style="fill-rule:evenodd;"
points="61224,36129
61578,36129
61578,36326
61224,36326
61224,36129
" /> 
<polyline style="fill-rule:evenodd;"
points="61224,36720
61578,36720
61578,36917
61224,36917
61224,36720
" /> 
<polyline style="fill-rule:evenodd;"
points="61503,29425
61503,29070
61700,29070
61700,29425
61503,29425
" /> 
<polyline style="fill-rule:evenodd;"
points="62094,29425
62094,29070
62291,29070
62291,29425
62094,29425
" /> 
<polyline style="fill-rule:evenodd;"
points="69507,32318
69507,32673
69311,32673
69311,32318
69507,32318
" /> 
<polyline style="fill-rule:evenodd;"
points="68917,32318
68917,32673
68720,32673
68720,32318
68917,32318
" /> 
<polyline style="fill-rule:evenodd;"
points="63484,29425
63484,29070
63681,29070
63681,29425
63484,29425
" /> 
<polyline style="fill-rule:evenodd;"
points="64074,29425
64074,29070
64271,29070
64271,29425
64074,29425
" /> 
<polyline style="fill-rule:evenodd;"
points="58858,30224
58503,30224
58503,30027
58858,30027
58858,30224
" /> 
<polyline style="fill-rule:evenodd;"
points="58858,29633
58503,29633
58503,29437
58858,29437
58858,29633
" /> 
<polyline style="fill-rule:evenodd;"
points="65000,30385
65000,30031
65196,30031
65196,30385
65000,30385
" /> 
<polyline style="fill-rule:evenodd;"
points="65590,30385
65590,30031
65787,30031
65787,30385
65590,30385
" /> 
<polyline style="fill-rule:evenodd;"
points="44586,42814
44586,43169
44389,43169
44389,42814
44586,42814
" /> 
<polyline style="fill-rule:evenodd;"
points="43996,42814
43996,43169
43799,43169
43799,42814
43996,42814
" /> 
<polyline style="fill-rule:evenodd;"
points="43169,39744
43169,40098
42972,40098
42972,39744
43169,39744
" /> 
<polyline style="fill-rule:evenodd;"
points="42578,39744
42578,40098
42381,40098
42381,39744
42578,39744
" /> 
<polyline style="fill-rule:evenodd;"
points="40964,41122
40964,40767
41161,40767
41161,41122
40964,41122
" /> 
<polyline style="fill-rule:evenodd;"
points="41555,41122
41555,40767
41751,40767
41751,41122
41555,41122
" /> 
<polyline style="fill-rule:evenodd;"
points="39547,41122
39547,40767
39744,40767
39744,41122
39547,41122
" /> 
<polyline style="fill-rule:evenodd;"
points="40137,41122
40137,40767
40334,40767
40334,41122
40137,41122
" /> 
<polyline style="fill-rule:evenodd;"
points="46003,41791
46003,42145
45807,42145
45807,41791
46003,41791
" /> 
<polyline style="fill-rule:evenodd;"
points="45413,41791
45413,42145
45216,42145
45216,41791
45413,41791
" /> 
<polyline style="fill-rule:evenodd;"
points="58492,30842
58846,30842
58846,31039
58492,31039
58492,30842
" /> 
<polyline style="fill-rule:evenodd;"
points="58492,31433
58846,31433
58846,31629
58492,31629
58492,31433
" /> 
<polyline style="fill-rule:evenodd;"
points="63730,32549
63375,32549
63375,32352
63730,32352
63730,32549
" /> 
<polyline style="fill-rule:evenodd;"
points="63730,31958
63375,31958
63375,31761
63730,31761
63730,31958
" /> 
<polyline style="fill-rule:evenodd;"
points="64673,32547
64318,32547
64318,32350
64673,32350
64673,32547
" /> 
<polyline style="fill-rule:evenodd;"
points="64673,31956
64318,31956
64318,31759
64673,31759
64673,31956
" /> 
<polyline style="fill-rule:evenodd;"
points="58271,37114
58271,36759
58468,36759
58468,37114
58271,37114
" /> 
<polyline style="fill-rule:evenodd;"
points="58862,37114
58862,36759
59059,36759
59059,37114
58862,37114
" /> 
<polyline style="fill-rule:evenodd;"
points="59059,35736
59059,36090
58862,36090
58862,35736
59059,35736
" /> 
<polyline style="fill-rule:evenodd;"
points="58468,35736
58468,36090
58271,36090
58271,35736
58468,35736
" /> 
<polyline style="fill-rule:evenodd;"
points="37673,26110
38027,26110
38027,26307
37673,26307
37673,26110
" /> 
<polyline style="fill-rule:evenodd;"
points="37673,26700
38027,26700
38027,26897
37673,26897
37673,26700
" /> 
<polyline style="fill-rule:evenodd;"
points="44842,34090
44842,34444
44645,34444
44645,34090
44842,34090
" /> 
<polyline style="fill-rule:evenodd;"
points="44251,34090
44251,34444
44055,34444
44055,34090
44251,34090
" /> 
<polyline style="fill-rule:evenodd;"
points="44842,35114
44842,35468
44645,35468
44645,35114
44842,35114
" /> 
<polyline style="fill-rule:evenodd;"
points="44251,35114
44251,35468
44055,35468
44055,35114
44251,35114
" /> 
<polyline style="fill-rule:evenodd;"
points="46259,34090
46259,34444
46062,34444
46062,34090
46259,34090
" /> 
<polyline style="fill-rule:evenodd;"
points="45669,34090
45669,34444
45472,34444
45472,34090
45669,34090
" /> 
<polyline style="fill-rule:evenodd;"
points="46259,35114
46259,35468
46062,35468
46062,35114
46259,35114
" /> 
<polyline style="fill-rule:evenodd;"
points="45669,35114
45669,35468
45472,35468
45472,35114
45669,35114
" /> 
<polyline style="fill-rule:evenodd;"
points="56503,32858
56149,32858
56149,32661
56503,32661
56503,32858
" /> 
<polyline style="fill-rule:evenodd;"
points="56503,32267
56149,32267
56149,32070
56503,32070
56503,32267
" /> 
<polyline style="fill-rule:evenodd;"
points="60661,36362
60188,36362
60188,35889
60661,35889
60661,36362
" /> 
<polyline style="fill-rule:evenodd;"
points="60661,35496
60188,35496
60188,35023
60661,35023
60661,35496
" /> 
<polyline style="fill-rule:evenodd;"
points="36633,25826
37106,25826
37106,26299
36633,26299
36633,25826
" /> 
<polyline style="fill-rule:evenodd;"
points="36633,26692
37106,26692
37106,27165
36633,27165
36633,26692
" /> 
<polyline style="fill-rule:evenodd;"
points="51413,31657
51413,30712
52200,30712
52200,31657
51413,31657
" /> 
<polyline style="fill-rule:evenodd;"
points="52870,31657
52870,30712
53657,30712
53657,31657
52870,31657
" /> 
<polyline style="fill-rule:evenodd;"
points="38917,41791
38917,42145
38720,42145
38720,41791
38917,41791
" /> 
<polyline style="fill-rule:evenodd;"
points="38326,41791
38326,42145
38129,42145
38129,41791
38326,41791
" /> 
<polyline style="fill-rule:evenodd;"
points="56503,31629
56149,31629
56149,31433
56503,31433
56503,31629
" /> 
<polyline style="fill-rule:evenodd;"
points="56503,31039
56149,31039
56149,30842
56503,30842
56503,31039
" /> 
<polyline style="fill-rule:evenodd;"
points="37283,30059
37283,29901
37992,29901
37992,30059
37283,30059
" /> 
<polyline style="fill-rule:evenodd;"
points="37283,29803
37283,29645
37992,29645
37992,29803
37283,29803
" /> 
<polyline style="fill-rule:evenodd;"
points="37283,29547
37283,29389
37992,29389
37992,29547
37283,29547
" /> 
<polyline style="fill-rule:evenodd;"
points="37283,29291
37283,29133
37992,29133
37992,29291
37283,29291
" /> 
<polyline style="fill-rule:evenodd;"
points="37283,29035
37283,28877
37992,28877
37992,29035
37283,29035
" /> 
<polyline style="fill-rule:evenodd;"
points="42352,27283
42057,27283
42057,26968
42352,26968
42352,27283
" /> 
<polyline style="fill-rule:evenodd;"
points="42352,27874
42057,27874
42057,27559
42352,27559
42352,27874
" /> 
<polyline style="fill-rule:evenodd;"
points="41328,27279
41033,27279
41033,26964
41328,26964
41328,27279
" /> 
<polyline style="fill-rule:evenodd;"
points="41328,27870
41033,27870
41033,27555
41328,27555
41328,27870
" /> 
<polyline style="fill-rule:evenodd;"
points="40334,27811
39980,27811
39980,27614
40334,27614
40334,27811
" /> 
<polyline style="fill-rule:evenodd;"
points="40334,27220
39980,27220
39980,27023
40334,27023
40334,27220
" /> 
<polyline style="fill-rule:evenodd;"
points="39614,28759
39614,29311
39141,29311
39141,28759
39614,28759
" /> 
<polyline style="fill-rule:evenodd;"
points="38897,28759
38897,29311
38503,29311
38503,28759
38897,28759
" /> 
<polyline style="fill-rule:evenodd;"
points="38897,29625
38897,30177
38503,30177
38503,29625
38897,29625
" /> 
<polyline style="fill-rule:evenodd;"
points="39645,29625
39645,30177
39251,30177
39251,29625
39645,29625
" /> 
<polyline style="fill-rule:evenodd;"
points="35828,38553
36576,38553
36576,39064
35828,39064
35828,38553
" /> 
<polyline style="fill-rule:evenodd;"
points="35828,33297
36931,33297
36931,33690
35828,33690
35828,33297
" /> 
<polyline style="fill-rule:evenodd;"
points="37856,33297
38171,33297
38171,33690
37856,33690
37856,33297
" /> 
<polyline style="fill-rule:evenodd;"
points="40218,33297
40690,33297
40690,33690
40218,33690
40218,33297
" /> 
<polyline style="fill-rule:evenodd;"
points="41911,37687
42383,37687
42383,38080
41911,38080
41911,37687
" /> 
<polyline style="fill-rule:evenodd;"
points="41911,34537
42383,34537
42383,34812
41911,34812
41911,34537
" /> 
<polyline style="fill-rule:evenodd;"
points="41911,34970
42383,34970
42383,35246
41911,35246
41911,34970
" /> 
<polyline style="fill-rule:evenodd;"
points="41911,35403
42383,35403
42383,35679
41911,35679
41911,35403
" /> 
<polyline style="fill-rule:evenodd;"
points="41911,35836
42383,35836
42383,36112
41911,36112
41911,35836
" /> 
<polyline style="fill-rule:evenodd;"
points="41911,36269
42383,36269
42383,36545
41911,36545
41911,36269
" /> 
<polyline style="fill-rule:evenodd;"
points="41911,36702
42383,36702
42383,36978
41911,36978
41911,36702
" /> 
<polyline style="fill-rule:evenodd;"
points="41911,37135
42383,37135
42383,37411
41911,37411
41911,37135
" /> 
<polyline style="fill-rule:evenodd;"
points="41911,34104
42383,34104
42383,34379
41911,34379
41911,34104
" /> 
<polyline style="fill-rule:evenodd;"
points="41911,33730
42383,33730
42383,34005
41911,34005
41911,33730
" /> 
<polyline style="fill-rule:evenodd;"
points="40964,40098
40964,39744
41161,39744
41161,40098
40964,40098
" /> 
<polyline style="fill-rule:evenodd;"
points="41555,40098
41555,39744
41751,39744
41751,40098
41555,40098
" /> 
<polyline style="fill-rule:evenodd;"
points="38661,40068
38661,39773
38976,39773
38976,40068
38661,40068
" /> 
<polyline style="fill-rule:evenodd;"
points="38070,40068
38070,39773
38385,39773
38385,40068
38070,40068
" /> 
<polyline style="fill-rule:evenodd;"
points="40334,39744
40334,40098
40137,40098
40137,39744
40334,39744
" /> 
<polyline style="fill-rule:evenodd;"
points="39744,39744
39744,40098
39547,40098
39547,39744
39744,39744
" /> 
<polyline style="fill-rule:evenodd;"
points="37322,41791
36653,41791
36653,41437
37322,41437
37322,41791
" /> 
<polyline style="fill-rule:evenodd;"
points="37322,40452
36653,40452
36653,40098
37322,40098
37322,40452
" /> 
<polyline style="fill-rule:evenodd;"
points="63206,41875
63206,42112
62596,42112
62596,41875
63206,41875
" /> 
<polyline style="fill-rule:evenodd;"
points="63206,41375
63206,41612
62596,41612
62596,41375
63206,41375
" /> 
<polyline style="fill-rule:evenodd;"
points="63206,40875
63206,41112
62596,41112
62596,40875
63206,40875
" /> 
<polyline style="fill-rule:evenodd;"
points="63206,40375
63206,40612
62596,40612
62596,40375
63206,40375
" /> 
<polyline style="fill-rule:evenodd;"
points="61080,40375
61080,40612
60470,40612
60470,40375
61080,40375
" /> 
<polyline style="fill-rule:evenodd;"
points="61080,40875
61080,41112
60470,41112
60470,40875
61080,40875
" /> 
<polyline style="fill-rule:evenodd;"
points="61080,41375
61080,41612
60470,41612
60470,41375
61080,41375
" /> 
<polyline style="fill-rule:evenodd;"
points="61080,41875
61080,42112
60470,42112
60470,41875
61080,41875
" /> 
<polyline style="fill-rule:evenodd;"
points="63720,42291
64429,42291
64429,42685
63720,42685
63720,42291
" /> 
<polyline style="fill-rule:evenodd;"
points="63720,41307
64429,41307
64429,41700
63720,41700
63720,41307
" /> 
</g> 
</svg>
