<?xml version="1.0" standalone="no"?>
 <!DOCTYPE svg PUBLIC "-//W3C//DTD SVG 1.1//EN" 
 "http://www.w3.org/Graphics/SVG/1.1/DTD/svg11.dtd"> 
<svg xmlns="http://www.w3.org/2000/svg" version="1.1" 
    width="29.7002cm" height="21.0007cm" viewBox="0 0 116930 82680 ">
<title>SVG Picture created as PSLab-B.Paste.svg date 2018/12/30 12:21:37 </title>
  <desc>Picture generated by PCBNEW </desc>
<g style="fill:#000000; fill-opacity:1;stroke:#000000; stroke-opacity:1;
stroke-linecap:round; stroke-linejoin:round; "
 transform="translate(0 0) scale(1 1)">
</g>
<g style="fill:#000000; fill-opacity:0.0; 
stroke:#000000; stroke-width:-0.000393701; stroke-opacity:1; 
stroke-linecap:round; stroke-linejoin:round;">
</g>
<g style="fill:#000000; fill-opacity:0.0; 
stroke:#000000; stroke-width:0; stroke-opacity:1; 
stroke-linecap:round; stroke-linejoin:round;">
</g>
<g style="fill:#000000; fill-opacity:1.0; 
stroke:#000000; stroke-width:0; stroke-opacity:1; 
stroke-linecap:round; stroke-linejoin:round;">
<polyline style="fill-rule:evenodd;"
points="42102,38492
41708,38492
41708,37704
42102,37704
42102,38492
" /> 
<polyline style="fill-rule:evenodd;"
points="41314,38492
40921,38492
40921,37704
41314,37704
41314,38492
" /> 
<polyline style="fill-rule:evenodd;"
points="40527,38492
40133,38492
40133,37704
40527,37704
40527,38492
" /> 
<polyline style="fill-rule:evenodd;"
points="39740,38492
39346,38492
39346,37704
39740,37704
39740,38492
" /> 
<polyline style="fill-rule:evenodd;"
points="38952,38492
38559,38492
38559,37704
38952,37704
38952,38492
" /> 
<polyline style="fill-rule:evenodd;"
points="38165,38492
37771,38492
37771,37704
38165,37704
38165,38492
" /> 
<polyline style="fill-rule:evenodd;"
points="37377,38492
36984,38492
36984,37704
37377,37704
37377,38492
" /> 
<polyline style="fill-rule:evenodd;"
points="36590,38492
36196,38492
36196,37704
36590,37704
36590,38492
" /> 
<polyline style="fill-rule:evenodd;"
points="36590,32192
36196,32192
36196,31405
36590,31405
36590,32192
" /> 
<polyline style="fill-rule:evenodd;"
points="37377,32192
36984,32192
36984,31405
37377,31405
37377,32192
" /> 
<polyline style="fill-rule:evenodd;"
points="38165,32192
37771,32192
37771,31405
38165,31405
38165,32192
" /> 
<polyline style="fill-rule:evenodd;"
points="38952,32192
38559,32192
38559,31405
38952,31405
38952,32192
" /> 
<polyline style="fill-rule:evenodd;"
points="39740,32192
39346,32192
39346,31405
39740,31405
39740,32192
" /> 
<polyline style="fill-rule:evenodd;"
points="40527,32192
40133,32192
40133,31405
40527,31405
40527,32192
" /> 
<polyline style="fill-rule:evenodd;"
points="41314,32192
40921,32192
40921,31405
41314,31405
41314,32192
" /> 
<polyline style="fill-rule:evenodd;"
points="42102,32192
41708,32192
41708,31405
42102,31405
42102,32192
" /> 
</g> 
</svg>
