<?xml version="1.0" standalone="no"?>
 <!DOCTYPE svg PUBLIC "-//W3C//DTD SVG 1.1//EN" 
 "http://www.w3.org/Graphics/SVG/1.1/DTD/svg11.dtd"> 
<svg xmlns="http://www.w3.org/2000/svg" version="1.1" 
    width="29.7002cm" height="21.0007cm" viewBox="0 0 116930 82680 ">
<title>SVG Picture created as PSLab-drl_map.svg date 2018/12/30 12:21:41 </title>
  <desc>Picture generated by PCBNEW </desc>
<g style="fill:#000000; fill-opacity:1;stroke:#000000; stroke-opacity:1;
stroke-linecap:round; stroke-linejoin:round; "
 transform="translate(0 0) scale(1 1)">
</g>
<g style="fill:#000000; fill-opacity:0.0; 
stroke:#000000; stroke-width:-0.000393701; stroke-opacity:1; 
stroke-linecap:round; stroke-linejoin:round;">
</g>
<g style="fill:#000000; fill-opacity:0.0; 
stroke:#000000; stroke-width:39.3701; stroke-opacity:1; 
stroke-linecap:round; stroke-linejoin:round;">
<path d="M35803 23728
L35811 23728
" />
<path d="M35803 44716
L35803 23728
" />
<path d="M74791 44716
L35803 44716
" />
<path d="M74791 44708
L74791 44716
" />
<path d="M74791 44704
L74791 44708
" />
<path d="M74791 44700
L74791 44704
" />
<path d="M74791 44696
L74791 44700
" />
<path d="M74791 24326
L74791 44696
" />
<path d="M74787 24322
L74791 24326
" />
<path d="M74783 24318
L74787 24322
" />
<path d="M74192 23728
L74783 24318
" />
<path d="M74188 23728
L74192 23728
" />
<path d="M74185 23728
L74188 23728
" />
<path d="M74181 23728
L74185 23728
" />
<path d="M35814 23728
L74181 23728
" />
<path d="M35803 44716
L35803 44724
" />
</g>
<g style="fill:#000000; fill-opacity:0.0; 
stroke:#000000; stroke-width:78.7402; stroke-opacity:1; 
stroke-linecap:round; stroke-linejoin:round;">
<path d="M36333 32923
L36493 33083
" />
<path d="M36493 32923
L36333 33083
" />
<path d="M36837 28916
L36997 29076
" />
<path d="M36997 28916
L36837 29076
" />
<path d="M36837 29805
L36997 29965
" />
<path d="M36997 29805
L36837 29965
" />
<path d="M37219 42231
L37379 42391
" />
<path d="M37379 42231
L37219 42391
" />
<path d="M37892 33975
L38052 34135
" />
<path d="M38052 33975
L37892 34135
" />
<path d="M38270 27620
L38430 27780
" />
<path d="M38430 27620
L38270 27780
" />
<path d="M38396 35801
L38556 35961
" />
<path d="M38556 35801
L38396 35961
" />
<path d="M38593 42231
L38753 42391
" />
<path d="M38753 42231
L38593 42391
" />
<path d="M38994 28427
L39154 28587
" />
<path d="M39154 28427
L38994 28587
" />
<path d="M39884 42227
L40044 42387
" />
<path d="M40044 42227
L39884 42387
" />
<path d="M40085 35297
L40245 35457
" />
<path d="M40245 35297
L40085 35457
" />
<path d="M40475 34624
L40635 34784
" />
<path d="M40635 34624
L40475 34784
" />
<path d="M40561 28026
L40721 28186
" />
<path d="M40721 28026
L40561 28186
" />
<path d="M40569 26892
L40729 27052
" />
<path d="M40729 26892
L40569 27052
" />
<path d="M40585 39077
L40745 39237
" />
<path d="M40745 39077
L40585 39237
" />
<path d="M40884 35290
L41044 35450
" />
<path d="M41044 35290
L40884 35450
" />
<path d="M41471 27400
L41631 27560
" />
<path d="M41631 27400
L41471 27560
" />
<path d="M41624 41868
L41784 42028
" />
<path d="M41784 41868
L41624 42028
" />
<path d="M43164 32144
L43324 32304
" />
<path d="M43324 32144
L43164 32304
" />
<path d="M43207 28931
L43367 29091
" />
<path d="M43367 28931
L43207 29091
" />
<path d="M43211 31498
L43371 31658
" />
<path d="M43371 31498
L43211 31658
" />
<path d="M45069 40451
L45229 40611
" />
<path d="M45229 40451
L45069 40611
" />
<path d="M45183 31112
L45343 31272
" />
<path d="M45343 31112
L45183 31272
" />
<path d="M45191 34105
L45351 34265
" />
<path d="M45351 34105
L45191 34265
" />
<path d="M45191 35542
L45351 35702
" />
<path d="M45351 35542
L45191 35702
" />
<path d="M45345 27723
L45505 27883
" />
<path d="M45505 27723
L45345 27883
" />
<path d="M46408 28931
L46568 29091
" />
<path d="M46568 28931
L46408 29091
" />
<path d="M46809 39116
L46969 39276
" />
<path d="M46969 39116
L46809 39276
" />
<path d="M46912 34101
L47072 34261
" />
<path d="M47072 34101
L46912 34261
" />
<path d="M46912 35526
L47072 35686
" />
<path d="M47072 35526
L46912 35686
" />
<path d="M48002 41408
L48162 41568
" />
<path d="M48162 41408
L48002 41568
" />
<path d="M48045 29530
L48205 29690
" />
<path d="M48205 29530
L48045 29690
" />
<path d="M48246 25325
L48406 25485
" />
<path d="M48406 25325
L48246 25485
" />
<path d="M49215 40538
L49375 40698
" />
<path d="M49375 40538
L49215 40698
" />
<path d="M49439 38408
L49599 38568
" />
<path d="M49599 38408
L49439 38568
" />
<path d="M50160 25809
L50320 25969
" />
<path d="M50320 25809
L50160 25969
" />
<path d="M50211 29423
L50371 29583
" />
<path d="M50371 29423
L50211 29583
" />
<path d="M50384 40341
L50544 40501
" />
<path d="M50544 40341
L50384 40501
" />
<path d="M50668 30199
L50828 30359
" />
<path d="M50828 30199
L50668 30359
" />
<path d="M50939 39305
L51099 39465
" />
<path d="M51099 39305
L50939 39465
" />
<path d="M50939 40805
L51099 40965
" />
<path d="M51099 40805
L50939 40965
" />
<path d="M51321 33904
L51481 34064
" />
<path d="M51481 33904
L51321 34064
" />
<path d="M52699 34203
L52859 34363
" />
<path d="M52859 34203
L52699 34363
" />
<path d="M52931 36632
L53091 36792
" />
<path d="M53091 36632
L52931 36792
" />
<path d="M53089 39912
L53249 40072
" />
<path d="M53249 39912
L53089 40072
" />
<path d="M53175 34774
L53335 34934
" />
<path d="M53335 34774
L53175 34934
" />
<path d="M53286 37065
L53446 37225
" />
<path d="M53446 37065
L53286 37225
" />
<path d="M53329 35794
L53489 35954
" />
<path d="M53489 35794
L53329 35954
" />
<path d="M53447 34195
L53607 34355
" />
<path d="M53607 34195
L53447 34355
" />
<path d="M53455 41809
L53615 41969
" />
<path d="M53615 41809
L53455 41969
" />
<path d="M53687 36652
L53847 36812
" />
<path d="M53847 36652
L53687 36812
" />
<path d="M53797 29097
L53957 29257
" />
<path d="M53957 29097
L53797 29257
" />
<path d="M54097 27671
L54257 27831
" />
<path d="M54257 27671
L54097 27831
" />
<path d="M54368 34337
L54528 34497
" />
<path d="M54528 34337
L54368 34497
" />
<path d="M54475 40305
L54635 40465
" />
<path d="M54635 40305
L54475 40465
" />
<path d="M54479 40805
L54639 40965
" />
<path d="M54639 40805
L54479 40965
" />
<path d="M54671 36931
L54831 37091
" />
<path d="M54831 36931
L54671 37091
" />
<path d="M54939 27652
L55099 27812
" />
<path d="M55099 27652
L54939 27812
" />
<path d="M55042 36585
L55202 36745
" />
<path d="M55202 36585
L55042 36745
" />
<path d="M55065 34420
L55225 34580
" />
<path d="M55225 34420
L55065 34580
" />
<path d="M55254 33896
L55414 34056
" />
<path d="M55414 33896
L55254 34056
" />
<path d="M55679 29305
L55839 29465
" />
<path d="M55839 29305
L55679 29465
" />
<path d="M55758 36998
L55918 37158
" />
<path d="M55918 36998
L55758 37158
" />
<path d="M55817 31486
L55977 31646
" />
<path d="M55977 31486
L55817 31646
" />
<path d="M56234 30388
L56394 30548
" />
<path d="M56394 30388
L56234 30548
" />
<path d="M56455 33290
L56615 33450
" />
<path d="M56615 33290
L56455 33450
" />
<path d="M56514 41738
L56674 41898
" />
<path d="M56674 41738
L56514 41898
" />
<path d="M56565 37888
L56725 38048
" />
<path d="M56725 37888
L56565 38048
" />
<path d="M56864 32829
L57024 32989
" />
<path d="M57024 32829
L56864 32989
" />
<path d="M57057 33471
L57217 33631
" />
<path d="M57217 33471
L57057 33631
" />
<path d="M57160 26786
L57320 26946
" />
<path d="M57320 26786
L57160 26946
" />
<path d="M57242 35274
L57402 35434
" />
<path d="M57402 35274
L57242 35434
" />
<path d="M57479 30400
L57639 30560
" />
<path d="M57639 30400
L57479 30560
" />
<path d="M58093 30400
L58253 30560
" />
<path d="M58253 30400
L58093 30560
" />
<path d="M59234 33439
L59394 33599
" />
<path d="M59394 33439
L59234 33599
" />
<path d="M59266 35321
L59426 35481
" />
<path d="M59426 35321
L59266 35481
" />
<path d="M59376 30624
L59536 30784
" />
<path d="M59536 30624
L59376 30784
" />
<path d="M59463 32384
L59623 32544
" />
<path d="M59623 32384
L59463 32544
" />
<path d="M59860 27400
L60020 27560
" />
<path d="M60020 27400
L59860 27560
" />
<path d="M59931 36923
L60091 37083
" />
<path d="M60091 36923
L59931 37083
" />
<path d="M60112 34278
L60272 34438
" />
<path d="M60272 34278
L60112 34438
" />
<path d="M60112 39640
L60272 39800
" />
<path d="M60272 39640
L60112 39800
" />
<path d="M60829 30982
L60989 31142
" />
<path d="M60989 30982
L60829 31142
" />
<path d="M60833 34262
L60993 34422
" />
<path d="M60993 34262
L60833 34422
" />
<path d="M61065 28498
L61225 28658
" />
<path d="M61225 28498
L61065 28658
" />
<path d="M61108 35860
L61268 36020
" />
<path d="M61268 35860
L61108 36020
" />
<path d="M61179 27656
L61339 27816
" />
<path d="M61339 27656
L61179 27816
" />
<path d="M61357 39057
L61517 39217
" />
<path d="M61517 39057
L61357 39217
" />
<path d="M61427 30790
L61587 30950
" />
<path d="M61587 30790
L61427 30950
" />
<path d="M61695 32479
L61855 32639
" />
<path d="M61855 32479
L61695 32639
" />
<path d="M62081 37518
L62241 37678
" />
<path d="M62241 37518
L62081 37678
" />
<path d="M62254 28526
L62414 28686
" />
<path d="M62414 28526
L62254 28686
" />
<path d="M62522 26656
L62682 26816
" />
<path d="M62682 26656
L62522 26816
" />
<path d="M62986 26002
L63146 26162
" />
<path d="M63146 26002
L62986 26162
" />
<path d="M62986 31482
L63146 31642
" />
<path d="M63146 31482
L62986 31642
" />
<path d="M63522 28124
L63682 28284
" />
<path d="M63682 28124
L63522 28284
" />
<path d="M63766 37660
L63926 37820
" />
<path d="M63926 37660
L63766 37820
" />
<path d="M63782 31294
L63942 31454
" />
<path d="M63942 31294
L63782 31454
" />
<path d="M63998 39479
L64158 39639
" />
<path d="M64158 39479
L63998 39639
" />
<path d="M64368 27498
L64528 27658
" />
<path d="M64528 27498
L64368 27658
" />
<path d="M65022 31443
L65182 31603
" />
<path d="M65182 31443
L65022 31603
" />
<path d="M65766 31786
L65926 31946
" />
<path d="M65926 31786
L65766 31946
" />
<path d="M65912 25998
L66072 26158
" />
<path d="M66072 25998
L65912 26158
" />
<path d="M66108 34416
L66268 34576
" />
<path d="M66268 34416
L66108 34576
" />
<path d="M66120 35908
L66280 36068
" />
<path d="M66280 35908
L66120 36068
" />
<path d="M66128 35416
L66288 35576
" />
<path d="M66288 35416
L66128 35576
" />
<path d="M66128 38561
L66288 38721
" />
<path d="M66288 38561
L66128 38721
" />
<path d="M66140 37561
L66300 37721
" />
<path d="M66300 37561
L66140 37721
" />
<path d="M66140 38053
L66300 38213
" />
<path d="M66300 38053
L66140 38213
" />
<path d="M66809 27998
L66969 28158
" />
<path d="M66969 27998
L66809 28158
" />
<path d="M66994 36746
L67154 36906
" />
<path d="M67154 36746
L66994 36906
" />
<path d="M67416 33829
L67576 33989
" />
<path d="M67576 33829
L67416 33989
" />
<path d="M67695 41396
L67855 41556
" />
<path d="M67855 41396
L67695 41556
" />
<path d="M67935 32384
L68095 32544
" />
<path d="M68095 32384
L67935 32544
" />
<path d="M68053 26998
L68213 27158
" />
<path d="M68213 26998
L68053 27158
" />
<path d="M68144 27998
L68304 28158
" />
<path d="M68304 27998
L68144 28158
" />
<path d="M68175 33947
L68335 34107
" />
<path d="M68335 33947
L68175 34107
" />
<path d="M68561 36396
L68721 36556
" />
<path d="M68721 36396
L68561 36556
" />
<path d="M68734 41380
L68894 41540
" />
<path d="M68894 41380
L68734 41540
" />
<path d="M68857 35412
L69017 35572
" />
<path d="M69017 35412
L68857 35572
" />
<path d="M69687 41360
L69847 41520
" />
<path d="M69847 41360
L69687 41520
" />
<path d="M70719 41368
L70879 41528
" />
<path d="M70879 41368
L70719 41528
" />
<path d="M70758 26927
L70918 27087
" />
<path d="M70918 26927
L70758 27087
" />
<path d="M71022 38108
L71182 38268
" />
<path d="M71182 38108
L71022 38268
" />
<path d="M71022 39132
L71182 39292
" />
<path d="M71182 39132
L71022 39292
" />
<path d="M71219 35408
L71379 35568
" />
<path d="M71379 35408
L71219 35568
" />
<circle cx="37677.2" cy="28513.8" r="127.953" /> 
<path d="M37637 28602
L37716 28602
" />
<path d="M37637 28425
L37716 28425
" />
<path d="M37716.5 28602.4 A88.5827 88.5827 0.0 0 0 37716.5 28425.2 " />
<path d="M37637.8 28425.2 A88.5827 88.5827 0.0 0 0 37637.8 28602.4 " />
<circle cx="37677.2" cy="30423.2" r="127.953" /> 
<path d="M37637 30511
L37716 30511
" />
<path d="M37637 30334
L37716 30334
" />
<path d="M37716.5 30511.8 A88.5827 88.5827 0.0 0 0 37716.5 30334.6 " />
<path d="M37637.8 30334.6 A88.5827 88.5827 0.0 0 0 37637.8 30511.8 " />
<path d="M36496 27906
L36496 28230
" />
<path d="M36333 28068
L36658 28068
" />
<path d="M36363 28191
L36628 28191
" />
<path d="M36363 27945
L36628 27945
" />
<path d="M36628.9 28191.4 A123.031 123.031 0.0 0 0 36628.9 27945.4 " />
<path d="M36363.2 27945.4 A123.031 123.031 0.0 0 0 36363.2 28191.4 " />
<path d="M36496 30706
L36496 31031
" />
<path d="M36333 30868
L36658 30868
" />
<path d="M36363 30991
L36628 30991
" />
<path d="M36363 30745
L36628 30745
" />
<path d="M36628.9 30991.6 A123.031 123.031 0.0 0 0 36628.9 30745.6 " />
<path d="M36363.2 30745.6 A123.031 123.031 0.0 0 0 36363.2 30991.6 " />
<polyline fill="none;"
points="45737,37280
45737,37002
45459,37002
45459,37280
45737,37280
" /> 
<polyline fill="none;"
points="46737,37280
46737,37002
46459,37002
46459,37280
46737,37280
" /> 
<polyline fill="none;"
points="46942,43875
46942,43597
46663,43597
46663,43875
46942,43875
" /> 
<polyline fill="none;"
points="47737,37280
47737,37002
47459,37002
47459,37280
47737,37280
" /> 
<polyline fill="none;"
points="47942,43875
47942,43597
47663,43597
47663,43875
47942,43875
" /> 
<polyline fill="none;"
points="48737,37280
48737,37002
48459,37002
48459,37280
48737,37280
" /> 
<polyline fill="none;"
points="48942,43875
48942,43597
48663,43597
48663,43875
48942,43875
" /> 
<polyline fill="none;"
points="49418,30434
49418,30156
49140,30156
49140,30434
49418,30434
" /> 
<polyline fill="none;"
points="49418,31434
49418,31156
49140,31156
49140,31434
49418,31434
" /> 
<polyline fill="none;"
points="49418,32434
49418,32156
49140,32156
49140,32434
49418,32434
" /> 
<polyline fill="none;"
points="49418,33434
49418,33156
49140,33156
49140,33434
49418,33434
" /> 
<polyline fill="none;"
points="49418,34434
49418,34156
49140,34156
49140,34434
49418,34434
" /> 
<polyline fill="none;"
points="49418,35434
49418,35156
49140,35156
49140,35434
49418,35434
" /> 
<polyline fill="none;"
points="49737,37280
49737,37002
49459,37002
49459,37280
49737,37280
" /> 
<polyline fill="none;"
points="49942,43875
49942,43597
49663,43597
49663,43875
49942,43875
" /> 
<polyline fill="none;"
points="50737,37280
50737,37002
50459,37002
50459,37280
50737,37280
" /> 
<polyline fill="none;"
points="50938,24859
50938,24581
50660,24581
50660,24859
50938,24859
" /> 
<polyline fill="none;"
points="50942,43875
50942,43597
50663,43597
50663,43875
50942,43875
" /> 
<polyline fill="none;"
points="51938,24859
51938,24581
51660,24581
51660,24859
51938,24859
" /> 
<polyline fill="none;"
points="51942,43875
51942,43597
51663,43597
51663,43875
51942,43875
" /> 
<polyline fill="none;"
points="52938,24859
52938,24581
52660,24581
52660,24859
52938,24859
" /> 
<polyline fill="none;"
points="52942,43875
52942,43597
52663,43597
52663,43875
52942,43875
" /> 
<polyline fill="none;"
points="53938,24859
53938,24581
53660,24581
53660,24859
53938,24859
" /> 
<polyline fill="none;"
points="54942,43855
54942,43577
54663,43577
54663,43855
54942,43855
" /> 
<polyline fill="none;"
points="55942,24855
55942,24577
55663,24577
55663,24855
55942,24855
" /> 
<polyline fill="none;"
points="55942,43855
55942,43577
55663,43577
55663,43855
55942,43855
" /> 
<polyline fill="none;"
points="56942,24855
56942,24577
56663,24577
56663,24855
56942,24855
" /> 
<polyline fill="none;"
points="56942,43855
56942,43577
56663,43577
56663,43855
56942,43855
" /> 
<polyline fill="none;"
points="57942,24855
57942,24577
57663,24577
57663,24855
57942,24855
" /> 
<polyline fill="none;"
points="57942,43855
57942,43577
57663,43577
57663,43855
57942,43855
" /> 
<polyline fill="none;"
points="58942,24855
58942,24577
58663,24577
58663,24855
58942,24855
" /> 
<polyline fill="none;"
points="58942,43855
58942,43577
58663,43577
58663,43855
58942,43855
" /> 
<polyline fill="none;"
points="59942,43855
59942,43577
59663,43577
59663,43855
59942,43855
" /> 
<polyline fill="none;"
points="60942,24851
60942,24573
60663,24573
60663,24851
60942,24851
" /> 
<polyline fill="none;"
points="60942,43855
60942,43577
60663,43577
60663,43855
60942,43855
" /> 
<polyline fill="none;"
points="61942,24851
61942,24573
61663,24573
61663,24851
61942,24851
" /> 
<polyline fill="none;"
points="61942,43855
61942,43577
61663,43577
61663,43855
61942,43855
" /> 
<polyline fill="none;"
points="62942,24851
62942,24573
62663,24573
62663,24851
62942,24851
" /> 
<polyline fill="none;"
points="62942,43855
62942,43577
62663,43577
62663,43855
62942,43855
" /> 
<polyline fill="none;"
points="63942,24851
63942,24573
63663,24573
63663,24851
63942,24851
" /> 
<polyline fill="none;"
points="63942,43855
63942,43577
63663,43577
63663,43855
63942,43855
" /> 
<polyline fill="none;"
points="64942,24851
64942,24573
64663,24573
64663,24851
64942,24851
" /> 
<polyline fill="none;"
points="64942,43855
64942,43577
64663,43577
64663,43855
64942,43855
" /> 
<polyline fill="none;"
points="65942,24851
65942,24573
65663,24573
65663,24851
65942,24851
" /> 
<polyline fill="none;"
points="65942,43855
65942,43577
65663,43577
65663,43855
65942,43855
" /> 
<polyline fill="none;"
points="66942,24851
66942,24573
66663,24573
66663,24851
66942,24851
" /> 
<polyline fill="none;"
points="67942,24851
67942,24573
67663,24573
67663,24851
67942,24851
" /> 
<polyline fill="none;"
points="67942,43855
67942,43577
67663,43577
67663,43855
67942,43855
" /> 
<polyline fill="none;"
points="68942,43855
68942,43577
68663,43577
68663,43855
68942,43855
" /> 
<polyline fill="none;"
points="69942,43855
69942,43577
69663,43577
69663,43855
69942,43855
" /> 
<polyline fill="none;"
points="70942,43855
70942,43577
70663,43577
70663,43855
70942,43855
" /> 
<polyline fill="none;"
points="72930,27859
72930,27581
72652,27581
72652,27859
72930,27859
" /> 
<polyline fill="none;"
points="72930,28859
72930,28581
72652,28581
72652,28859
72930,28859
" /> 
<polyline fill="none;"
points="72930,29859
72930,29581
72652,29581
72652,29859
72930,29859
" /> 
<polyline fill="none;"
points="72930,30859
72930,30581
72652,30581
72652,30859
72930,30859
" /> 
<polyline fill="none;"
points="72930,31859
72930,31581
72652,31581
72652,31859
72930,31859
" /> 
<polyline fill="none;"
points="72930,32859
72930,32581
72652,32581
72652,32859
72930,32859
" /> 
<polyline fill="none;"
points="72930,33859
72930,33581
72652,33581
72652,33859
72930,33859
" /> 
<polyline fill="none;"
points="72930,34859
72930,34581
72652,34581
72652,34859
72930,34859
" /> 
<polyline fill="none;"
points="72930,35859
72930,35581
72652,35581
72652,35859
72930,35859
" /> 
<polyline fill="none;"
points="72930,36859
72930,36581
72652,36581
72652,36859
72930,36859
" /> 
<polyline fill="none;"
points="72930,37859
72930,37581
72652,37581
72652,37859
72930,37859
" /> 
<polyline fill="none;"
points="72930,38859
72930,38581
72652,38581
72652,38859
72930,38859
" /> 
<polyline fill="none;"
points="72930,39859
72930,39581
72652,39581
72652,39859
72930,39859
" /> 
<polyline fill="none;"
points="72930,40859
72930,40581
72652,40581
72652,40859
72930,40859
" /> 
<polyline fill="none;"
points="73930,27859
73930,27581
73652,27581
73652,27859
73930,27859
" /> 
<polyline fill="none;"
points="73930,28859
73930,28581
73652,28581
73652,28859
73930,28859
" /> 
<polyline fill="none;"
points="73930,29859
73930,29581
73652,29581
73652,29859
73930,29859
" /> 
<polyline fill="none;"
points="73930,30859
73930,30581
73652,30581
73652,30859
73930,30859
" /> 
<polyline fill="none;"
points="73930,31859
73930,31581
73652,31581
73652,31859
73930,31859
" /> 
<polyline fill="none;"
points="73930,32859
73930,32581
73652,32581
73652,32859
73930,32859
" /> 
<polyline fill="none;"
points="73930,33859
73930,33581
73652,33581
73652,33859
73930,33859
" /> 
<polyline fill="none;"
points="73930,34859
73930,34581
73652,34581
73652,34859
73930,34859
" /> 
<polyline fill="none;"
points="73930,35859
73930,35581
73652,35581
73652,35859
73930,35859
" /> 
<polyline fill="none;"
points="73930,36859
73930,36581
73652,36581
73652,36859
73930,36859
" /> 
<polyline fill="none;"
points="73930,37859
73930,37581
73652,37581
73652,37859
73930,37859
" /> 
<polyline fill="none;"
points="73930,38859
73930,38581
73652,38581
73652,38859
73930,38859
" /> 
<polyline fill="none;"
points="73930,39859
73930,39581
73652,39581
73652,39859
73930,39859
" /> 
<polyline fill="none;"
points="73930,40859
73930,40581
73652,40581
73652,40859
73930,40859
" /> 
<polyline fill="none;"
points="41291,44338
41921,43708
41291,43078
40661,43708
41291,44338
" /> 
<polyline fill="none;"
points="41791,25342
42421,24712
41791,24082
41161,24712
41791,25342
" /> 
<polyline fill="none;"
points="71295,25346
71925,24716
71295,24086
70665,24716
71295,25346
" /> 
<polyline fill="none;"
points="73787,44334
74417,43704
73787,43074
73157,43704
73787,44334
" /> 
</g>
<g style="fill:#000000; fill-opacity:0.0; 
stroke:#000000; stroke-width:118.11; stroke-opacity:1; 
stroke-linecap:round; stroke-linejoin:round;">
<path d="M36852 46577
L36852 45396
L37133 45396
L37302 45452
L37414 45565
L37470 45677
L37526 45902
L37526 46071
L37470 46296
L37414 46408
L37302 46521
L37133 46577
L36852 46577
" />
<path d="M38033 46577
L38033 45790
" />
<path d="M38033 46015
L38089 45902
L38145 45846
L38258 45790
L38370 45790
" />
<path d="M38764 46577
L38764 45790
" />
<path d="M38764 45396
L38708 45452
L38764 45508
L38820 45452
L38764 45396
L38764 45508
" />
<path d="M39495 46577
L39383 46521
L39326 46408
L39326 45396
" />
<path d="M40114 46577
L40001 46521
L39945 46408
L39945 45396
" />
<path d="M41464 46577
L41464 45396
L41857 46240
L42251 45396
L42251 46577
" />
<path d="M43320 46577
L43320 45958
L43263 45846
L43151 45790
L42926 45790
L42813 45846
" />
<path d="M43320 46521
L43207 46577
L42926 46577
L42813 46521
L42757 46408
L42757 46296
L42813 46183
L42926 46127
L43207 46127
L43320 46071
" />
<path d="M43882 45790
L43882 46971
" />
<path d="M43882 45846
L43994 45790
L44219 45790
L44332 45846
L44388 45902
L44444 46015
L44444 46352
L44388 46465
L44332 46521
L44219 46577
L43994 46577
L43882 46521
" />
<path d="M44951 46465
L45007 46521
L44951 46577
L44894 46521
L44951 46465
L44951 46577
" />
<path d="M44951 45846
L45007 45902
L44951 45958
L44894 45902
L44951 45846
L44951 45958
" />
<path d="M35623 48443
L35783 48603
" />
<path d="M35783 48443
L35623 48603
" />
<path d="M37077 47876
L37189 47876
L37302 47933
L37358 47989
L37414 48101
L37470 48326
L37470 48607
L37414 48832
L37358 48945
L37302 49001
L37189 49057
L37077 49057
L36964 49001
L36908 48945
L36852 48832
L36795 48607
L36795 48326
L36852 48101
L36908 47989
L36964 47933
L37077 47876
" />
<path d="M37976 48945
L38033 49001
L37976 49057
L37920 49001
L37976 48945
L37976 49057
" />
<path d="M39045 48270
L39045 49057
" />
<path d="M38764 47820
L38483 48664
L39214 48664
" />
<path d="M40282 49057
L39607 49057
" />
<path d="M39945 49057
L39945 47876
L39832 48045
L39720 48158
L39607 48214
" />
<path d="M40789 49057
L40789 48270
" />
<path d="M40789 48383
L40845 48326
L40957 48270
L41126 48270
L41239 48326
L41295 48439
L41295 49057
" />
<path d="M41295 48439
L41351 48326
L41464 48270
L41632 48270
L41745 48326
L41801 48439
L41801 49057
" />
<path d="M42363 49057
L42363 48270
" />
<path d="M42363 48383
L42420 48326
L42532 48270
L42701 48270
L42813 48326
L42870 48439
L42870 49057
" />
<path d="M42870 48439
L42926 48326
L43038 48270
L43207 48270
L43320 48326
L43376 48439
L43376 49057
" />
<path d="M45682 47820
L44669 49339
" />
<path d="M47200 47876
L47313 47876
L47425 47933
L47482 47989
L47538 48101
L47594 48326
L47594 48607
L47538 48832
L47482 48945
L47425 49001
L47313 49057
L47200 49057
L47088 49001
L47032 48945
L46975 48832
L46919 48607
L46919 48326
L46975 48101
L47032 47989
L47088 47933
L47200 47876
" />
<path d="M48100 48945
L48156 49001
L48100 49057
L48044 49001
L48100 48945
L48100 49057
" />
<path d="M48888 47876
L49000 47876
L49113 47933
L49169 47989
L49225 48101
L49281 48326
L49281 48607
L49225 48832
L49169 48945
L49113 49001
L49000 49057
L48888 49057
L48775 49001
L48719 48945
L48663 48832
L48606 48607
L48606 48326
L48663 48101
L48719 47989
L48775 47933
L48888 47876
" />
<path d="M50406 49057
L49731 49057
" />
<path d="M50069 49057
L50069 47876
L49956 48045
L49844 48158
L49731 48214
" />
<path d="M51419 47876
L51194 47876
L51081 47933
L51025 47989
L50912 48158
L50856 48383
L50856 48832
L50912 48945
L50969 49001
L51081 49057
L51306 49057
L51419 49001
L51475 48945
L51531 48832
L51531 48551
L51475 48439
L51419 48383
L51306 48326
L51081 48326
L50969 48383
L50912 48439
L50856 48551
" />
<path d="M51981 47876
L51981 48101
" />
<path d="M52431 47876
L52431 48101
" />
<path d="M54174 49507
L54118 49451
L54006 49282
L53949 49170
L53893 49001
L53837 48720
L53837 48495
L53893 48214
L53949 48045
L54006 47933
L54118 47764
L54174 47708
" />
<path d="M55243 49057
L54568 49057
" />
<path d="M54906 49057
L54906 47876
L54793 48045
L54681 48158
L54568 48214
" />
<path d="M55693 47989
L55749 47933
L55862 47876
L56143 47876
L56255 47933
L56312 47989
L56368 48101
L56368 48214
L56312 48383
L55637 49057
L56368 49057
" />
<path d="M57380 47876
L57155 47876
L57043 47933
L56987 47989
L56874 48158
L56818 48383
L56818 48832
L56874 48945
L56930 49001
L57043 49057
L57268 49057
L57380 49001
L57437 48945
L57493 48832
L57493 48551
L57437 48439
L57380 48383
L57268 48326
L57043 48326
L56930 48383
L56874 48439
L56818 48551
" />
<path d="M58899 49057
L58899 47876
" />
<path d="M59405 49057
L59405 48439
L59349 48326
L59236 48270
L59068 48270
L58955 48326
L58899 48383
" />
<path d="M60136 49057
L60024 49001
L59967 48945
L59911 48832
L59911 48495
L59967 48383
L60024 48326
L60136 48270
L60305 48270
L60417 48326
L60474 48383
L60530 48495
L60530 48832
L60474 48945
L60417 49001
L60305 49057
L60136 49057
" />
<path d="M61205 49057
L61092 49001
L61036 48889
L61036 47876
" />
<path d="M62105 49001
L61992 49057
L61767 49057
L61655 49001
L61598 48889
L61598 48439
L61655 48326
L61767 48270
L61992 48270
L62105 48326
L62161 48439
L62161 48551
L61598 48664
" />
<path d="M62611 49001
L62723 49057
L62948 49057
L63061 49001
L63117 48889
L63117 48832
L63061 48720
L62948 48664
L62780 48664
L62667 48607
L62611 48495
L62611 48439
L62667 48326
L62780 48270
L62948 48270
L63061 48326
" />
<path d="M63511 49507
L63567 49451
L63679 49282
L63736 49170
L63792 49001
L63848 48720
L63848 48495
L63792 48214
L63736 48045
L63679 47933
L63567 47764
L63511 47708
" />
<circle cx="35655.5" cy="50082.7" r="127.953" /> 
<path d="M37077 49435
L37189 49435
L37302 49492
L37358 49548
L37414 49660
L37470 49885
L37470 50167
L37414 50392
L37358 50504
L37302 50560
L37189 50616
L37077 50616
L36964 50560
L36908 50504
L36852 50392
L36795 50167
L36795 49885
L36852 49660
L36908 49548
L36964 49492
L37077 49435
" />
<path d="M37976 50504
L38033 50560
L37976 50616
L37920 50560
L37976 50504
L37976 50616
" />
<path d="M39045 49435
L38820 49435
L38708 49492
L38651 49548
L38539 49717
L38483 49942
L38483 50392
L38539 50504
L38595 50560
L38708 50616
L38933 50616
L39045 50560
L39101 50504
L39158 50392
L39158 50110
L39101 49998
L39045 49942
L38933 49885
L38708 49885
L38595 49942
L38539 49998
L38483 50110
" />
<path d="M40226 49435
L39664 49435
L39607 49998
L39664 49942
L39776 49885
L40057 49885
L40170 49942
L40226 49998
L40282 50110
L40282 50392
L40226 50504
L40170 50560
L40057 50616
L39776 50616
L39664 50560
L39607 50504
" />
<path d="M40789 50616
L40789 49829
" />
<path d="M40789 49942
L40845 49885
L40957 49829
L41126 49829
L41239 49885
L41295 49998
L41295 50616
" />
<path d="M41295 49998
L41351 49885
L41464 49829
L41632 49829
L41745 49885
L41801 49998
L41801 50616
" />
<path d="M42363 50616
L42363 49829
" />
<path d="M42363 49942
L42420 49885
L42532 49829
L42701 49829
L42813 49885
L42870 49998
L42870 50616
" />
<path d="M42870 49998
L42926 49885
L43038 49829
L43207 49829
L43320 49885
L43376 49998
L43376 50616
" />
<path d="M45682 49379
L44669 50898
" />
<path d="M47200 49435
L47313 49435
L47425 49492
L47482 49548
L47538 49660
L47594 49885
L47594 50167
L47538 50392
L47482 50504
L47425 50560
L47313 50616
L47200 50616
L47088 50560
L47032 50504
L46975 50392
L46919 50167
L46919 49885
L46975 49660
L47032 49548
L47088 49492
L47200 49435
" />
<path d="M48100 50504
L48156 50560
L48100 50616
L48044 50560
L48100 50504
L48100 50616
" />
<path d="M48888 49435
L49000 49435
L49113 49492
L49169 49548
L49225 49660
L49281 49885
L49281 50167
L49225 50392
L49169 50504
L49113 50560
L49000 50616
L48888 50616
L48775 50560
L48719 50504
L48663 50392
L48606 50167
L48606 49885
L48663 49660
L48719 49548
L48775 49492
L48888 49435
" />
<path d="M49731 49548
L49787 49492
L49900 49435
L50181 49435
L50294 49492
L50350 49548
L50406 49660
L50406 49773
L50350 49942
L49675 50616
L50406 50616
" />
<path d="M51419 49435
L51194 49435
L51081 49492
L51025 49548
L50912 49717
L50856 49942
L50856 50392
L50912 50504
L50969 50560
L51081 50616
L51306 50616
L51419 50560
L51475 50504
L51531 50392
L51531 50110
L51475 49998
L51419 49942
L51306 49885
L51081 49885
L50969 49942
L50912 49998
L50856 50110
" />
<path d="M51981 49435
L51981 49660
" />
<path d="M52431 49435
L52431 49660
" />
<path d="M54174 51066
L54118 51010
L54006 50841
L53949 50729
L53893 50560
L53837 50279
L53837 50054
L53893 49773
L53949 49604
L54006 49492
L54118 49323
L54174 49267
" />
<path d="M54849 49435
L54962 49435
L55074 49492
L55131 49548
L55187 49660
L55243 49885
L55243 50167
L55187 50392
L55131 50504
L55074 50560
L54962 50616
L54849 50616
L54737 50560
L54681 50504
L54624 50392
L54568 50167
L54568 49885
L54624 49660
L54681 49548
L54737 49492
L54849 49435
" />
<path d="M56649 50616
L56649 49435
" />
<path d="M57155 50616
L57155 49998
L57099 49885
L56987 49829
L56818 49829
L56705 49885
L56649 49942
" />
<path d="M57886 50616
L57774 50560
L57718 50504
L57661 50392
L57661 50054
L57718 49942
L57774 49885
L57886 49829
L58055 49829
L58168 49885
L58224 49942
L58280 50054
L58280 50392
L58224 50504
L58168 50560
L58055 50616
L57886 50616
" />
<path d="M58955 50616
L58843 50560
L58786 50448
L58786 49435
" />
<path d="M59855 50560
L59742 50616
L59517 50616
L59405 50560
L59349 50448
L59349 49998
L59405 49885
L59517 49829
L59742 49829
L59855 49885
L59911 49998
L59911 50110
L59349 50223
" />
<path d="M60361 50560
L60474 50616
L60699 50616
L60811 50560
L60867 50448
L60867 50392
L60811 50279
L60699 50223
L60530 50223
L60417 50167
L60361 50054
L60361 49998
L60417 49885
L60530 49829
L60699 49829
L60811 49885
" />
<path d="M62273 50167
L63173 50167
" />
<path d="M62723 50616
L62723 49717
" />
<path d="M64579 49548
L64636 49492
L64748 49435
L65029 49435
L65142 49492
L65198 49548
L65254 49660
L65254 49773
L65198 49942
L64523 50616
L65254 50616
" />
<path d="M66604 50560
L66717 50616
L66942 50616
L67054 50560
L67110 50448
L67110 50392
L67054 50279
L66942 50223
L66773 50223
L66660 50167
L66604 50054
L66604 49998
L66660 49885
L66773 49829
L66942 49829
L67054 49885
" />
<path d="M67785 50616
L67673 50560
L67616 50448
L67616 49435
" />
<path d="M68404 50616
L68291 50560
L68235 50504
L68179 50392
L68179 50054
L68235 49942
L68291 49885
L68404 49829
L68573 49829
L68685 49885
L68741 49942
L68798 50054
L68798 50392
L68741 50504
L68685 50560
L68573 50616
L68404 50616
" />
<path d="M69135 49829
L69585 49829
" />
<path d="M69304 49435
L69304 50448
L69360 50560
L69473 50616
L69585 50616
" />
<path d="M69922 50560
L70035 50616
L70260 50616
L70372 50560
L70429 50448
L70429 50392
L70372 50279
L70260 50223
L70091 50223
L69979 50167
L69922 50054
L69922 49998
L69979 49885
L70091 49829
L70260 49829
L70372 49885
" />
<path d="M70822 51066
L70879 51010
L70991 50841
L71047 50729
L71104 50560
L71160 50279
L71160 50054
L71104 49773
L71047 49604
L70991 49492
L70879 49323
L70822 49267
" />
<path d="M35621 51479
L35621 51804
" />
<path d="M35458 51641
L35783 51641
" />
<path d="M37077 50994
L37189 50994
L37302 51051
L37358 51107
L37414 51219
L37470 51444
L37470 51726
L37414 51951
L37358 52063
L37302 52119
L37189 52176
L37077 52176
L36964 52119
L36908 52063
L36852 51951
L36795 51726
L36795 51444
L36852 51219
L36908 51107
L36964 51051
L37077 50994
" />
<path d="M37976 52063
L38033 52119
L37976 52176
L37920 52119
L37976 52063
L37976 52176
" />
<path d="M38708 51501
L38595 51444
L38539 51388
L38483 51276
L38483 51219
L38539 51107
L38595 51051
L38708 50994
L38933 50994
L39045 51051
L39101 51107
L39158 51219
L39158 51276
L39101 51388
L39045 51444
L38933 51501
L38708 51501
L38595 51557
L38539 51613
L38483 51726
L38483 51951
L38539 52063
L38595 52119
L38708 52176
L38933 52176
L39045 52119
L39101 52063
L39158 51951
L39158 51726
L39101 51613
L39045 51557
L38933 51501
" />
<path d="M39607 51107
L39664 51051
L39776 50994
L40057 50994
L40170 51051
L40226 51107
L40282 51219
L40282 51332
L40226 51501
L39551 52176
L40282 52176
" />
<path d="M40789 52176
L40789 51388
" />
<path d="M40789 51501
L40845 51444
L40957 51388
L41126 51388
L41239 51444
L41295 51557
L41295 52176
" />
<path d="M41295 51557
L41351 51444
L41464 51388
L41632 51388
L41745 51444
L41801 51557
L41801 52176
" />
<path d="M42363 52176
L42363 51388
" />
<path d="M42363 51501
L42420 51444
L42532 51388
L42701 51388
L42813 51444
L42870 51557
L42870 52176
" />
<path d="M42870 51557
L42926 51444
L43038 51388
L43207 51388
L43320 51444
L43376 51557
L43376 52176
" />
<path d="M45682 50938
L44669 52457
" />
<path d="M47200 50994
L47313 50994
L47425 51051
L47482 51107
L47538 51219
L47594 51444
L47594 51726
L47538 51951
L47482 52063
L47425 52119
L47313 52176
L47200 52176
L47088 52119
L47032 52063
L46975 51951
L46919 51726
L46919 51444
L46975 51219
L47032 51107
L47088 51051
L47200 50994
" />
<path d="M48100 52063
L48156 52119
L48100 52176
L48044 52119
L48100 52063
L48100 52176
" />
<path d="M48888 50994
L49000 50994
L49113 51051
L49169 51107
L49225 51219
L49281 51444
L49281 51726
L49225 51951
L49169 52063
L49113 52119
L49000 52176
L48888 52176
L48775 52119
L48719 52063
L48663 51951
L48606 51726
L48606 51444
L48663 51219
L48719 51107
L48775 51051
L48888 50994
" />
<path d="M49675 50994
L50406 50994
L50012 51444
L50181 51444
L50294 51501
L50350 51557
L50406 51669
L50406 51951
L50350 52063
L50294 52119
L50181 52176
L49844 52176
L49731 52119
L49675 52063
" />
<path d="M50856 51107
L50912 51051
L51025 50994
L51306 50994
L51419 51051
L51475 51107
L51531 51219
L51531 51332
L51475 51501
L50800 52176
L51531 52176
" />
<path d="M51981 50994
L51981 51219
" />
<path d="M52431 50994
L52431 51219
" />
<path d="M54174 52625
L54118 52569
L54006 52401
L53949 52288
L53893 52119
L53837 51838
L53837 51613
L53893 51332
L53949 51163
L54006 51051
L54118 50882
L54174 50826
" />
<path d="M54849 50994
L54962 50994
L55074 51051
L55131 51107
L55187 51219
L55243 51444
L55243 51726
L55187 51951
L55131 52063
L55074 52119
L54962 52176
L54849 52176
L54737 52119
L54681 52063
L54624 51951
L54568 51726
L54568 51444
L54624 51219
L54681 51107
L54737 51051
L54849 50994
" />
<path d="M56649 52176
L56649 50994
" />
<path d="M57155 52176
L57155 51557
L57099 51444
L56987 51388
L56818 51388
L56705 51444
L56649 51501
" />
<path d="M57886 52176
L57774 52119
L57718 52063
L57661 51951
L57661 51613
L57718 51501
L57774 51444
L57886 51388
L58055 51388
L58168 51444
L58224 51501
L58280 51613
L58280 51951
L58224 52063
L58168 52119
L58055 52176
L57886 52176
" />
<path d="M58955 52176
L58843 52119
L58786 52007
L58786 50994
" />
<path d="M59855 52119
L59742 52176
L59517 52176
L59405 52119
L59349 52007
L59349 51557
L59405 51444
L59517 51388
L59742 51388
L59855 51444
L59911 51557
L59911 51669
L59349 51782
" />
<path d="M60361 52119
L60474 52176
L60699 52176
L60811 52119
L60867 52007
L60867 51951
L60811 51838
L60699 51782
L60530 51782
L60417 51726
L60361 51613
L60361 51557
L60417 51444
L60530 51388
L60699 51388
L60811 51444
" />
<path d="M62273 51726
L63173 51726
" />
<path d="M62723 52176
L62723 51276
" />
<path d="M64579 51107
L64636 51051
L64748 50994
L65029 50994
L65142 51051
L65198 51107
L65254 51219
L65254 51332
L65198 51501
L64523 52176
L65254 52176
" />
<path d="M66604 52119
L66717 52176
L66942 52176
L67054 52119
L67110 52007
L67110 51951
L67054 51838
L66942 51782
L66773 51782
L66660 51726
L66604 51613
L66604 51557
L66660 51444
L66773 51388
L66942 51388
L67054 51444
" />
<path d="M67785 52176
L67673 52119
L67616 52007
L67616 50994
" />
<path d="M68404 52176
L68291 52119
L68235 52063
L68179 51951
L68179 51613
L68235 51501
L68291 51444
L68404 51388
L68573 51388
L68685 51444
L68741 51501
L68798 51613
L68798 51951
L68741 52063
L68685 52119
L68573 52176
L68404 52176
" />
<path d="M69135 51388
L69585 51388
" />
<path d="M69304 50994
L69304 52007
L69360 52119
L69473 52176
L69585 52176
" />
<path d="M69922 52119
L70035 52176
L70260 52176
L70372 52119
L70429 52007
L70429 51951
L70372 51838
L70260 51782
L70091 51782
L69979 51726
L69922 51613
L69922 51557
L69979 51444
L70091 51388
L70260 51388
L70372 51444
" />
<path d="M70822 52625
L70879 52569
L70991 52401
L71047 52288
L71104 52119
L71160 51838
L71160 51613
L71104 51332
L71047 51163
L70991 51051
L70879 50882
L70822 50826
" />
<polyline fill="none;"
points="35725,53339
35725,53061
35447,53061
35447,53339
35725,53339
" /> 
<path d="M37470 53735
L36795 53735
" />
<path d="M37133 53735
L37133 52553
L37020 52722
L36908 52835
L36795 52891
" />
<path d="M37976 53622
L38033 53678
L37976 53735
L37920 53678
L37976 53622
L37976 53735
" />
<path d="M38764 52553
L38876 52553
L38989 52610
L39045 52666
L39101 52778
L39158 53003
L39158 53285
L39101 53510
L39045 53622
L38989 53678
L38876 53735
L38764 53735
L38651 53678
L38595 53622
L38539 53510
L38483 53285
L38483 53003
L38539 52778
L38595 52666
L38651 52610
L38764 52553
" />
<path d="M39889 52553
L40001 52553
L40114 52610
L40170 52666
L40226 52778
L40282 53003
L40282 53285
L40226 53510
L40170 53622
L40114 53678
L40001 53735
L39889 53735
L39776 53678
L39720 53622
L39664 53510
L39607 53285
L39607 53003
L39664 52778
L39720 52666
L39776 52610
L39889 52553
" />
<path d="M40789 53735
L40789 52947
" />
<path d="M40789 53060
L40845 53003
L40957 52947
L41126 52947
L41239 53003
L41295 53116
L41295 53735
" />
<path d="M41295 53116
L41351 53003
L41464 52947
L41632 52947
L41745 53003
L41801 53116
L41801 53735
" />
<path d="M42363 53735
L42363 52947
" />
<path d="M42363 53060
L42420 53003
L42532 52947
L42701 52947
L42813 53003
L42870 53116
L42870 53735
" />
<path d="M42870 53116
L42926 53003
L43038 52947
L43207 52947
L43320 53003
L43376 53116
L43376 53735
" />
<path d="M45682 52497
L44669 54016
" />
<path d="M47200 52553
L47313 52553
L47425 52610
L47482 52666
L47538 52778
L47594 53003
L47594 53285
L47538 53510
L47482 53622
L47425 53678
L47313 53735
L47200 53735
L47088 53678
L47032 53622
L46975 53510
L46919 53285
L46919 53003
L46975 52778
L47032 52666
L47088 52610
L47200 52553
" />
<path d="M48100 53622
L48156 53678
L48100 53735
L48044 53678
L48100 53622
L48100 53735
" />
<path d="M48888 52553
L49000 52553
L49113 52610
L49169 52666
L49225 52778
L49281 53003
L49281 53285
L49225 53510
L49169 53622
L49113 53678
L49000 53735
L48888 53735
L48775 53678
L48719 53622
L48663 53510
L48606 53285
L48606 53003
L48663 52778
L48719 52666
L48775 52610
L48888 52553
" />
<path d="M49675 52553
L50406 52553
L50012 53003
L50181 53003
L50294 53060
L50350 53116
L50406 53228
L50406 53510
L50350 53622
L50294 53678
L50181 53735
L49844 53735
L49731 53678
L49675 53622
" />
<path d="M50969 53735
L51194 53735
L51306 53678
L51362 53622
L51475 53453
L51531 53228
L51531 52778
L51475 52666
L51419 52610
L51306 52553
L51081 52553
L50969 52610
L50912 52666
L50856 52778
L50856 53060
L50912 53172
L50969 53228
L51081 53285
L51306 53285
L51419 53228
L51475 53172
L51531 53060
" />
<path d="M51981 52553
L51981 52778
" />
<path d="M52431 52553
L52431 52778
" />
<path d="M54174 54185
L54118 54128
L54006 53960
L53949 53847
L53893 53678
L53837 53397
L53837 53172
L53893 52891
L53949 52722
L54006 52610
L54118 52441
L54174 52385
" />
<path d="M54512 52553
L55299 52553
L54793 53735
" />
<path d="M55805 53735
L56030 53735
L56143 53678
L56199 53622
L56312 53453
L56368 53228
L56368 52778
L56312 52666
L56255 52610
L56143 52553
L55918 52553
L55805 52610
L55749 52666
L55693 52778
L55693 53060
L55749 53172
L55805 53228
L55918 53285
L56143 53285
L56255 53228
L56312 53172
L56368 53060
" />
<path d="M57774 53735
L57774 52553
" />
<path d="M58280 53735
L58280 53116
L58224 53003
L58111 52947
L57943 52947
L57830 53003
L57774 53060
" />
<path d="M59011 53735
L58899 53678
L58843 53622
L58786 53510
L58786 53172
L58843 53060
L58899 53003
L59011 52947
L59180 52947
L59293 53003
L59349 53060
L59405 53172
L59405 53510
L59349 53622
L59293 53678
L59180 53735
L59011 53735
" />
<path d="M60080 53735
L59967 53678
L59911 53566
L59911 52553
" />
<path d="M60980 53678
L60867 53735
L60642 53735
L60530 53678
L60474 53566
L60474 53116
L60530 53003
L60642 52947
L60867 52947
L60980 53003
L61036 53116
L61036 53228
L60474 53341
" />
<path d="M61486 53678
L61598 53735
L61823 53735
L61936 53678
L61992 53566
L61992 53510
L61936 53397
L61823 53341
L61655 53341
L61542 53285
L61486 53172
L61486 53116
L61542 53003
L61655 52947
L61823 52947
L61936 53003
" />
<path d="M62386 54185
L62442 54128
L62555 53960
L62611 53847
L62667 53678
L62723 53397
L62723 53172
L62667 52891
L62611 52722
L62555 52610
L62442 52441
L62386 52385
" />
<polyline fill="none;"
points="35153,55389
35783,54759
35153,54129
34523,54759
35153,55389
" /> 
<path d="M36739 54113
L37470 54113
L37077 54562
L37245 54562
L37358 54619
L37414 54675
L37470 54787
L37470 55069
L37414 55181
L37358 55237
L37245 55294
L36908 55294
L36795 55237
L36739 55181
" />
<path d="M37976 55181
L38033 55237
L37976 55294
L37920 55237
L37976 55181
L37976 55294
" />
<path d="M38483 54225
L38539 54169
L38651 54113
L38933 54113
L39045 54169
L39101 54225
L39158 54338
L39158 54450
L39101 54619
L38426 55294
L39158 55294
" />
<path d="M39889 54113
L40001 54113
L40114 54169
L40170 54225
L40226 54338
L40282 54562
L40282 54844
L40226 55069
L40170 55181
L40114 55237
L40001 55294
L39889 55294
L39776 55237
L39720 55181
L39664 55069
L39607 54844
L39607 54562
L39664 54338
L39720 54225
L39776 54169
L39889 54113
" />
<path d="M40789 55294
L40789 54506
" />
<path d="M40789 54619
L40845 54562
L40957 54506
L41126 54506
L41239 54562
L41295 54675
L41295 55294
" />
<path d="M41295 54675
L41351 54562
L41464 54506
L41632 54506
L41745 54562
L41801 54675
L41801 55294
" />
<path d="M42363 55294
L42363 54506
" />
<path d="M42363 54619
L42420 54562
L42532 54506
L42701 54506
L42813 54562
L42870 54675
L42870 55294
" />
<path d="M42870 54675
L42926 54562
L43038 54506
L43207 54506
L43320 54562
L43376 54675
L43376 55294
" />
<path d="M45682 54056
L44669 55575
" />
<path d="M47200 54113
L47313 54113
L47425 54169
L47482 54225
L47538 54338
L47594 54562
L47594 54844
L47538 55069
L47482 55181
L47425 55237
L47313 55294
L47200 55294
L47088 55237
L47032 55181
L46975 55069
L46919 54844
L46919 54562
L46975 54338
L47032 54225
L47088 54169
L47200 54113
" />
<path d="M48100 55181
L48156 55237
L48100 55294
L48044 55237
L48100 55181
L48100 55294
" />
<path d="M49281 55294
L48606 55294
" />
<path d="M48944 55294
L48944 54113
L48831 54281
L48719 54394
L48606 54450
" />
<path d="M49731 54225
L49787 54169
L49900 54113
L50181 54113
L50294 54169
L50350 54225
L50406 54338
L50406 54450
L50350 54619
L49675 55294
L50406 55294
" />
<path d="M51419 54113
L51194 54113
L51081 54169
L51025 54225
L50912 54394
L50856 54619
L50856 55069
L50912 55181
L50969 55237
L51081 55294
L51306 55294
L51419 55237
L51475 55181
L51531 55069
L51531 54787
L51475 54675
L51419 54619
L51306 54562
L51081 54562
L50969 54619
L50912 54675
L50856 54787
" />
<path d="M51981 54113
L51981 54338
" />
<path d="M52431 54113
L52431 54338
" />
<path d="M54174 55744
L54118 55687
L54006 55519
L53949 55406
L53893 55237
L53837 54956
L53837 54731
L53893 54450
L53949 54281
L54006 54169
L54118 54000
L54174 53944
" />
<path d="M55131 54506
L55131 55294
" />
<path d="M54849 54056
L54568 54900
L55299 54900
" />
<path d="M56649 55294
L56649 54113
" />
<path d="M57155 55294
L57155 54675
L57099 54562
L56987 54506
L56818 54506
L56705 54562
L56649 54619
" />
<path d="M57886 55294
L57774 55237
L57718 55181
L57661 55069
L57661 54731
L57718 54619
L57774 54562
L57886 54506
L58055 54506
L58168 54562
L58224 54619
L58280 54731
L58280 55069
L58224 55181
L58168 55237
L58055 55294
L57886 55294
" />
<path d="M58955 55294
L58843 55237
L58786 55125
L58786 54113
" />
<path d="M59855 55237
L59742 55294
L59517 55294
L59405 55237
L59349 55125
L59349 54675
L59405 54562
L59517 54506
L59742 54506
L59855 54562
L59911 54675
L59911 54787
L59349 54900
" />
<path d="M60361 55237
L60474 55294
L60699 55294
L60811 55237
L60867 55125
L60867 55069
L60811 54956
L60699 54900
L60530 54900
L60417 54844
L60361 54731
L60361 54675
L60417 54562
L60530 54506
L60699 54506
L60811 54562
" />
<path d="M61261 55744
L61317 55687
L61430 55519
L61486 55406
L61542 55237
L61598 54956
L61598 54731
L61542 54450
L61486 54281
L61430 54169
L61317 54000
L61261 53944
" />
</g> 
</svg>
