M48
;DRILL file {KiCad 4.0.7-e2-6376~58~ubuntu16.04.1} date Sun Dec 30 12:21:40 2018
;FORMAT={-:-/ absolute / metric / decimal}
FMAT,2
METRIC,TZ
T1C0.406
T2C0.650
T3C0.825
T4C1.000
T5C3.200
%
G90
G05
M71
T1
X92.49Y-83.83
X93.77Y-73.65
X93.77Y-75.91
X94.74Y-107.47
X96.45Y-86.5
X97.41Y-70.36
X97.73Y-91.14
X98.23Y-107.47
X99.25Y-72.41
X101.51Y-107.46
X102.02Y-89.86
X103.01Y-88.15
X103.23Y-71.39
X103.25Y-68.51
X103.29Y-99.46
X104.05Y-89.84
X105.54Y-69.8
X105.93Y-106.55
X109.84Y-81.85
X109.95Y-73.69
X109.96Y-80.21
X114.68Y-102.95
X114.97Y-79.23
X114.99Y-86.83
X114.99Y-90.48
X115.38Y-70.62
X118.08Y-73.69
X119.1Y-99.56
X119.36Y-86.82
X119.36Y-90.44
X122.13Y-105.38
X122.24Y-75.21
X122.75Y-64.53
X125.21Y-103.17
X125.78Y-97.76
X127.61Y-65.76
X127.74Y-74.94
X128.18Y-102.67
X128.9Y-76.91
X129.59Y-100.04
X129.59Y-103.85
X130.56Y-86.32
X134.06Y-87.08
X134.65Y-93.25
X135.05Y-101.58
X135.27Y-88.53
X135.55Y-94.35
X135.66Y-91.12
X135.96Y-87.06
X135.98Y-106.4
X136.57Y-93.3
X136.85Y-74.11
X137.61Y-70.49
X138.3Y-87.42
X138.57Y-102.58
X138.58Y-103.85
X139.07Y-94.01
X139.75Y-70.44
X140.01Y-93.13
X140.07Y-87.63
X140.55Y-86.3
X141.63Y-74.64
X141.83Y-94.18
X141.98Y-80.18
X143.04Y-77.39
X143.6Y-84.76
X143.75Y-106.22
X143.88Y-96.44
X144.64Y-83.59
X145.13Y-85.22
X145.39Y-68.24
X145.6Y-89.8
X146.2Y-77.42
X147.76Y-77.42
X150.66Y-85.14
X150.74Y-89.92
X151.02Y-77.99
X151.24Y-82.46
X152.25Y-69.8
X152.43Y-93.99
X152.89Y-87.27
X152.89Y-100.89
X154.71Y-78.9
X154.72Y-87.23
X155.31Y-72.59
X155.42Y-91.29
X155.6Y-70.45
X156.05Y-99.41
X156.23Y-78.41
X156.91Y-82.7
X157.89Y-95.5
X158.33Y-72.66
X159.01Y-67.91
X160.19Y-66.25
X160.19Y-80.17
X161.55Y-71.64
X162.17Y-95.86
X162.21Y-79.69
X162.76Y-100.48
X163.7Y-70.05
X165.36Y-80.07
X167.25Y-80.94
X167.62Y-66.24
X168.12Y-87.62
X168.15Y-91.41
X168.17Y-90.16
X168.17Y-98.15
X168.2Y-95.61
X168.2Y-96.86
X169.9Y-71.32
X170.37Y-93.54
X171.44Y-86.13
X172.15Y-105.35
X172.76Y-82.46
X173.06Y-68.78
X173.29Y-71.32
X173.37Y-86.43
X174.35Y-92.65
X174.79Y-105.31
X175.1Y-90.15
X177.21Y-105.26
X179.83Y-105.28
X179.93Y-68.6
X180.6Y-97.
X180.6Y-99.6
X181.1Y-90.14
T4
X115.82Y-94.34
X118.36Y-94.34
X118.88Y-111.09
X120.9Y-94.34
X121.42Y-111.09
X123.44Y-94.34
X123.96Y-111.09
X125.17Y-76.95
X125.17Y-79.49
X125.17Y-82.03
X125.17Y-84.57
X125.17Y-87.11
X125.17Y-89.65
X125.98Y-94.34
X126.5Y-111.09
X128.52Y-94.34
X129.03Y-62.79
X129.04Y-111.09
X131.57Y-62.79
X131.58Y-111.09
X134.11Y-62.79
X134.12Y-111.09
X136.65Y-62.79
X139.2Y-111.04
X141.74Y-62.78
X141.74Y-111.04
X144.28Y-62.78
X144.28Y-111.04
X146.82Y-62.78
X146.82Y-111.04
X149.36Y-62.78
X149.36Y-111.04
X151.9Y-111.04
X154.44Y-62.77
X154.44Y-111.04
X156.98Y-62.77
X156.98Y-111.04
X159.52Y-62.77
X159.52Y-111.04
X162.06Y-62.77
X162.06Y-111.04
X164.6Y-62.77
X164.6Y-111.04
X167.14Y-62.77
X167.14Y-111.04
X169.68Y-62.77
X172.22Y-62.77
X172.22Y-111.04
X174.76Y-111.04
X177.3Y-111.04
X179.84Y-111.04
X184.89Y-70.41
X184.89Y-72.95
X184.89Y-75.49
X184.89Y-78.03
X184.89Y-80.57
X184.89Y-83.11
X184.89Y-85.65
X184.89Y-88.19
X184.89Y-90.73
X184.89Y-93.27
X184.89Y-95.81
X184.89Y-98.35
X184.89Y-100.89
X184.89Y-103.43
X187.43Y-70.41
X187.43Y-72.95
X187.43Y-75.49
X187.43Y-78.03
X187.43Y-80.57
X187.43Y-83.11
X187.43Y-85.65
X187.43Y-88.19
X187.43Y-90.73
X187.43Y-93.27
X187.43Y-95.81
X187.43Y-98.35
X187.43Y-100.89
X187.43Y-103.43
T5
X104.88Y-111.02
X106.15Y-62.77
X181.09Y-62.78
X187.42Y-111.01
T2
X95.6Y-72.425G85X95.8Y-72.425
G05
X95.6Y-77.275G85X95.8Y-77.275
G05
T3
X92.362Y-71.294G85X93.037Y-71.294
G05
X92.362Y-78.406G85X93.037Y-78.406
G05
T0
M30
