<?xml version="1.0" standalone="no"?>
 <!DOCTYPE svg PUBLIC "-//W3C//DTD SVG 1.1//EN" 
 "http://www.w3.org/Graphics/SVG/1.1/DTD/svg11.dtd"> 
<svg xmlns="http://www.w3.org/2000/svg" version="1.1" 
    width="29.7002cm" height="21.0007cm" viewBox="0 0 116930 82680 ">
<title>SVG Picture created as PSLab-B.Mask.svg date 2018/12/30 12:21:37 </title>
  <desc>Picture generated by PCBNEW </desc>
<g style="fill:#000000; fill-opacity:1;stroke:#000000; stroke-opacity:1;
stroke-linecap:round; stroke-linejoin:round; "
 transform="translate(0 0) scale(1 1)">
</g>
<g style="fill:#000000; fill-opacity:0.0; 
stroke:#000000; stroke-width:-0.000393701; stroke-opacity:1; 
stroke-linecap:round; stroke-linejoin:round;">
</g>
<g style="fill:#000000; fill-opacity:0.0; 
stroke:#000000; stroke-width:0; stroke-opacity:1; 
stroke-linecap:round; stroke-linejoin:round;">
</g>
<g style="fill:#000000; fill-opacity:1.0; 
stroke:#000000; stroke-width:0; stroke-opacity:1; 
stroke-linecap:round; stroke-linejoin:round;">
<polyline style="fill-rule:evenodd;"
points="42102,38492
41708,38492
41708,37704
42102,37704
42102,38492
" /> 
<polyline style="fill-rule:evenodd;"
points="41314,38492
40921,38492
40921,37704
41314,37704
41314,38492
" /> 
<polyline style="fill-rule:evenodd;"
points="40527,38492
40133,38492
40133,37704
40527,37704
40527,38492
" /> 
<polyline style="fill-rule:evenodd;"
points="39740,38492
39346,38492
39346,37704
39740,37704
39740,38492
" /> 
<polyline style="fill-rule:evenodd;"
points="38952,38492
38559,38492
38559,37704
38952,37704
38952,38492
" /> 
<polyline style="fill-rule:evenodd;"
points="38165,38492
37771,38492
37771,37704
38165,37704
38165,38492
" /> 
<polyline style="fill-rule:evenodd;"
points="37377,38492
36984,38492
36984,37704
37377,37704
37377,38492
" /> 
<polyline style="fill-rule:evenodd;"
points="36590,38492
36196,38492
36196,37704
36590,37704
36590,38492
" /> 
<polyline style="fill-rule:evenodd;"
points="36590,32192
36196,32192
36196,31405
36590,31405
36590,32192
" /> 
<polyline style="fill-rule:evenodd;"
points="37377,32192
36984,32192
36984,31405
37377,31405
37377,32192
" /> 
<polyline style="fill-rule:evenodd;"
points="38165,32192
37771,32192
37771,31405
38165,31405
38165,32192
" /> 
<polyline style="fill-rule:evenodd;"
points="38952,32192
38559,32192
38559,31405
38952,31405
38952,32192
" /> 
<polyline style="fill-rule:evenodd;"
points="39740,32192
39346,32192
39346,31405
39740,31405
39740,32192
" /> 
<polyline style="fill-rule:evenodd;"
points="40527,32192
40133,32192
40133,31405
40527,31405
40527,32192
" /> 
<polyline style="fill-rule:evenodd;"
points="41314,32192
40921,32192
40921,31405
41314,31405
41314,32192
" /> 
<polyline style="fill-rule:evenodd;"
points="42102,32192
41708,32192
41708,31405
42102,31405
42102,32192
" /> 
<polyline style="fill-rule:evenodd;"
points="51133,25055
50464,25055
50464,24385
51133,24385
51133,25055
" /> 
</g>
<g style="fill:#000000; fill-opacity:1.0; 
stroke:#000000; stroke-width:669.291; stroke-opacity:1; 
stroke-linecap:round; stroke-linejoin:round;">
</g>
<g style="fill:#000000; fill-opacity:0.0; 
stroke:#000000; stroke-width:669.291; stroke-opacity:1; 
stroke-linecap:round; stroke-linejoin:round;">
<path d="M51799 24720
L51799 24720
" />
<path d="M52799 24720
L52799 24720
" />
<path d="M53799 24720
L53799 24720
" />
</g>
<g style="fill:#000000; fill-opacity:0.0; 
stroke:#000000; stroke-width:0; stroke-opacity:1; 
stroke-linecap:round; stroke-linejoin:round;">
</g>
<g style="fill:#000000; fill-opacity:1.0; 
stroke:#000000; stroke-width:0; stroke-opacity:1; 
stroke-linecap:round; stroke-linejoin:round;">
<polyline style="fill-rule:evenodd;"
points="38129,30905
38129,30314
38720,30314
38720,30905
38129,30905
" /> 
<polyline style="fill-rule:evenodd;"
points="38129,28484
38129,27893
38720,27893
38720,28484
38129,28484
" /> 
<polyline style="fill-rule:evenodd;"
points="38129,30098
38129,29507
38720,29507
38720,30098
38129,30098
" /> 
<polyline style="fill-rule:evenodd;"
points="38129,29291
38129,28700
38720,28700
38720,29291
38129,29291
" /> 
<polyline style="fill-rule:evenodd;"
points="56137,25051
55468,25051
55468,24381
56137,24381
56137,25051
" /> 
</g>
<g style="fill:#000000; fill-opacity:1.0; 
stroke:#000000; stroke-width:669.291; stroke-opacity:1; 
stroke-linecap:round; stroke-linejoin:round;">
</g>
<g style="fill:#000000; fill-opacity:0.0; 
stroke:#000000; stroke-width:669.291; stroke-opacity:1; 
stroke-linecap:round; stroke-linejoin:round;">
<path d="M56803 24716
L56803 24716
" />
<path d="M57803 24716
L57803 24716
" />
<path d="M58803 24716
L58803 24716
" />
</g>
<g style="fill:#000000; fill-opacity:0.0; 
stroke:#000000; stroke-width:0; stroke-opacity:1; 
stroke-linecap:round; stroke-linejoin:round;">
</g>
<g style="fill:#000000; fill-opacity:1.0; 
stroke:#000000; stroke-width:0; stroke-opacity:1; 
stroke-linecap:round; stroke-linejoin:round;">
<polyline style="fill-rule:evenodd;"
points="70468,43381
71137,43381
71137,44051
70468,44051
70468,43381
" /> 
</g>
<g style="fill:#000000; fill-opacity:1.0; 
stroke:#000000; stroke-width:669.291; stroke-opacity:1; 
stroke-linecap:round; stroke-linejoin:round;">
</g>
<g style="fill:#000000; fill-opacity:0.0; 
stroke:#000000; stroke-width:669.291; stroke-opacity:1; 
stroke-linecap:round; stroke-linejoin:round;">
<path d="M69803 43716
L69803 43716
" />
<path d="M68803 43716
L68803 43716
" />
<path d="M67803 43716
L67803 43716
" />
</g>
<g style="fill:#000000; fill-opacity:0.0; 
stroke:#000000; stroke-width:0; stroke-opacity:1; 
stroke-linecap:round; stroke-linejoin:round;">
</g>
<g style="fill:#000000; fill-opacity:1.0; 
stroke:#000000; stroke-width:0; stroke-opacity:1; 
stroke-linecap:round; stroke-linejoin:round;">
<polyline style="fill-rule:evenodd;"
points="55137,44051
54468,44051
54468,43381
55137,43381
55137,44051
" /> 
</g>
<g style="fill:#000000; fill-opacity:1.0; 
stroke:#000000; stroke-width:669.291; stroke-opacity:1; 
stroke-linecap:round; stroke-linejoin:round;">
</g>
<g style="fill:#000000; fill-opacity:0.0; 
stroke:#000000; stroke-width:669.291; stroke-opacity:1; 
stroke-linecap:round; stroke-linejoin:round;">
<path d="M55803 43716
L55803 43716
" />
<path d="M56803 43716
L56803 43716
" />
<path d="M57803 43716
L57803 43716
" />
<path d="M58803 43716
L58803 43716
" />
<path d="M59803 43716
L59803 43716
" />
<path d="M60803 43716
L60803 43716
" />
<path d="M61803 43716
L61803 43716
" />
<path d="M62803 43716
L62803 43716
" />
<path d="M63803 43716
L63803 43716
" />
<path d="M64803 43716
L64803 43716
" />
<path d="M65803 43716
L65803 43716
" />
</g>
<g style="fill:#000000; fill-opacity:0.0; 
stroke:#000000; stroke-width:0; stroke-opacity:1; 
stroke-linecap:round; stroke-linejoin:round;">
</g>
<g style="fill:#000000; fill-opacity:1.0; 
stroke:#000000; stroke-width:0; stroke-opacity:1; 
stroke-linecap:round; stroke-linejoin:round;">
<polyline style="fill-rule:evenodd;"
points="72456,28055
72456,27385
73125,27385
73125,28055
72456,28055
" /> 
</g>
<g style="fill:#000000; fill-opacity:1.0; 
stroke:#000000; stroke-width:669.291; stroke-opacity:1; 
stroke-linecap:round; stroke-linejoin:round;">
</g>
<g style="fill:#000000; fill-opacity:0.0; 
stroke:#000000; stroke-width:669.291; stroke-opacity:1; 
stroke-linecap:round; stroke-linejoin:round;">
<path d="M73791 27720
L73791 27720
" />
<path d="M72791 28720
L72791 28720
" />
<path d="M73791 28720
L73791 28720
" />
<path d="M72791 29720
L72791 29720
" />
<path d="M73791 29720
L73791 29720
" />
<path d="M72791 30720
L72791 30720
" />
<path d="M73791 30720
L73791 30720
" />
<path d="M72791 31720
L72791 31720
" />
<path d="M73791 31720
L73791 31720
" />
<path d="M72791 32720
L72791 32720
" />
<path d="M73791 32720
L73791 32720
" />
<path d="M72791 33720
L72791 33720
" />
<path d="M73791 33720
L73791 33720
" />
<path d="M72791 34720
L72791 34720
" />
<path d="M73791 34720
L73791 34720
" />
<path d="M72791 35720
L72791 35720
" />
<path d="M73791 35720
L73791 35720
" />
<path d="M72791 36720
L72791 36720
" />
<path d="M73791 36720
L73791 36720
" />
<path d="M72791 37720
L72791 37720
" />
<path d="M73791 37720
L73791 37720
" />
<path d="M72791 38720
L72791 38720
" />
<path d="M73791 38720
L73791 38720
" />
<path d="M72791 39720
L72791 39720
" />
<path d="M73791 39720
L73791 39720
" />
<path d="M72791 40720
L72791 40720
" />
<path d="M73791 40720
L73791 40720
" />
</g>
<g style="fill:#000000; fill-opacity:0.0; 
stroke:#000000; stroke-width:0; stroke-opacity:1; 
stroke-linecap:round; stroke-linejoin:round;">
</g>
<g style="fill:#000000; fill-opacity:1.0; 
stroke:#000000; stroke-width:0; stroke-opacity:1; 
stroke-linecap:round; stroke-linejoin:round;">
<polyline style="fill-rule:evenodd;"
points="45933,37476
45263,37476
45263,36807
45933,36807
45933,37476
" /> 
</g>
<g style="fill:#000000; fill-opacity:1.0; 
stroke:#000000; stroke-width:669.291; stroke-opacity:1; 
stroke-linecap:round; stroke-linejoin:round;">
</g>
<g style="fill:#000000; fill-opacity:0.0; 
stroke:#000000; stroke-width:669.291; stroke-opacity:1; 
stroke-linecap:round; stroke-linejoin:round;">
<path d="M46598 37141
L46598 37141
" />
<path d="M47598 37141
L47598 37141
" />
<path d="M48598 37141
L48598 37141
" />
<path d="M49598 37141
L49598 37141
" />
<path d="M50598 37141
L50598 37141
" />
</g>
<g style="fill:#000000; fill-opacity:0.0; 
stroke:#000000; stroke-width:0; stroke-opacity:1; 
stroke-linecap:round; stroke-linejoin:round;">
</g>
<g style="fill:#000000; fill-opacity:1.0; 
stroke:#000000; stroke-width:0; stroke-opacity:1; 
stroke-linecap:round; stroke-linejoin:round;">
<polyline style="fill-rule:evenodd;"
points="48944,30629
48944,29960
49614,29960
49614,30629
48944,30629
" /> 
</g>
<g style="fill:#000000; fill-opacity:1.0; 
stroke:#000000; stroke-width:669.291; stroke-opacity:1; 
stroke-linecap:round; stroke-linejoin:round;">
</g>
<g style="fill:#000000; fill-opacity:0.0; 
stroke:#000000; stroke-width:669.291; stroke-opacity:1; 
stroke-linecap:round; stroke-linejoin:round;">
<path d="M49279 31295
L49279 31295
" />
<path d="M49279 32295
L49279 32295
" />
<path d="M49279 33295
L49279 33295
" />
<path d="M49279 34295
L49279 34295
" />
<path d="M49279 35295
L49279 35295
" />
</g>
<g style="fill:#000000; fill-opacity:0.0; 
stroke:#000000; stroke-width:0; stroke-opacity:1; 
stroke-linecap:round; stroke-linejoin:round;">
</g>
<g style="fill:#000000; fill-opacity:1.0; 
stroke:#000000; stroke-width:0; stroke-opacity:1; 
stroke-linecap:round; stroke-linejoin:round;">
<polyline style="fill-rule:evenodd;"
points="47137,44070
46468,44070
46468,43401
47137,43401
47137,44070
" /> 
</g>
<g style="fill:#000000; fill-opacity:1.0; 
stroke:#000000; stroke-width:669.291; stroke-opacity:1; 
stroke-linecap:round; stroke-linejoin:round;">
</g>
<g style="fill:#000000; fill-opacity:0.0; 
stroke:#000000; stroke-width:669.291; stroke-opacity:1; 
stroke-linecap:round; stroke-linejoin:round;">
<path d="M47803 43736
L47803 43736
" />
<path d="M48803 43736
L48803 43736
" />
<path d="M49803 43736
L49803 43736
" />
<path d="M50803 43736
L50803 43736
" />
<path d="M51803 43736
L51803 43736
" />
<path d="M52803 43736
L52803 43736
" />
</g>
<g style="fill:#000000; fill-opacity:0.0; 
stroke:#000000; stroke-width:0; stroke-opacity:1; 
stroke-linecap:round; stroke-linejoin:round;">
</g>
<g style="fill:#000000; fill-opacity:1.0; 
stroke:#000000; stroke-width:0; stroke-opacity:1; 
stroke-linecap:round; stroke-linejoin:round;">
<polyline style="fill-rule:evenodd;"
points="67468,24377
68137,24377
68137,25047
67468,25047
67468,24377
" /> 
</g>
<g style="fill:#000000; fill-opacity:1.0; 
stroke:#000000; stroke-width:669.291; stroke-opacity:1; 
stroke-linecap:round; stroke-linejoin:round;">
</g>
<g style="fill:#000000; fill-opacity:0.0; 
stroke:#000000; stroke-width:669.291; stroke-opacity:1; 
stroke-linecap:round; stroke-linejoin:round;">
<path d="M66803 24712
L66803 24712
" />
<path d="M65803 24712
L65803 24712
" />
<path d="M64803 24712
L64803 24712
" />
<path d="M63803 24712
L63803 24712
" />
<path d="M62803 24712
L62803 24712
" />
<path d="M61803 24712
L61803 24712
" />
<path d="M60803 24712
L60803 24712
" />
</g>
<g style="fill:#000000; fill-opacity:1.0; 
stroke:#000000; stroke-width:0; stroke-opacity:1; 
stroke-linecap:round; stroke-linejoin:round;">
<circle cx="41291.3" cy="43708.7" r="1102.36" /> 
</g>
<g style="fill:#000000; fill-opacity:1.0; 
stroke:#000000; stroke-width:39.3701; stroke-opacity:1; 
stroke-linecap:round; stroke-linejoin:round;">
</g>
<g style="fill:#000000; fill-opacity:1.0; 
stroke:#000000; stroke-width:0; stroke-opacity:1; 
stroke-linecap:round; stroke-linejoin:round;">
<circle cx="71295.3" cy="24716.5" r="1102.36" /> 
</g>
<g style="fill:#000000; fill-opacity:1.0; 
stroke:#000000; stroke-width:39.3701; stroke-opacity:1; 
stroke-linecap:round; stroke-linejoin:round;">
</g>
<g style="fill:#000000; fill-opacity:1.0; 
stroke:#000000; stroke-width:0; stroke-opacity:1; 
stroke-linecap:round; stroke-linejoin:round;">
<circle cx="41791.3" cy="24712.6" r="1102.36" /> 
</g>
<g style="fill:#000000; fill-opacity:1.0; 
stroke:#000000; stroke-width:39.3701; stroke-opacity:1; 
stroke-linecap:round; stroke-linejoin:round;">
</g>
<g style="fill:#000000; fill-opacity:1.0; 
stroke:#000000; stroke-width:0; stroke-opacity:1; 
stroke-linecap:round; stroke-linejoin:round;">
<circle cx="73787.4" cy="43704.7" r="1102.36" /> 
</g>
<g style="fill:#000000; fill-opacity:1.0; 
stroke:#000000; stroke-width:39.3701; stroke-opacity:1; 
stroke-linecap:round; stroke-linejoin:round;">
</g>
<g style="fill:#000000; fill-opacity:1.0; 
stroke:#000000; stroke-width:0; stroke-opacity:1; 
stroke-linecap:round; stroke-linejoin:round;">
<polyline style="fill-rule:evenodd;"
points="37431,28720
37431,28307
37923,28307
37923,28720
37431,28720
" /> 
<polyline style="fill-rule:evenodd;"
points="37431,30629
37431,30216
37923,30216
37923,30629
37431,30629
" /> 
<polyline style="fill-rule:evenodd;"
points="36122,28462
36122,27674
36870,27674
36870,28462
36122,28462
" /> 
<polyline style="fill-rule:evenodd;"
points="36122,31262
36122,30474
36870,30474
36870,31262
36122,31262
" /> 
</g> 
</svg>
