<?xml version="1.0" standalone="no"?>
 <!DOCTYPE svg PUBLIC "-//W3C//DTD SVG 1.1//EN" 
 "http://www.w3.org/Graphics/SVG/1.1/DTD/svg11.dtd"> 
<svg xmlns="http://www.w3.org/2000/svg" version="1.1" 
    width="29.7002cm" height="21.0007cm" viewBox="0 0 116930 82680 ">
<title>SVG Picture created as PSLab-F.Paste.svg date 2019/03/24 22:42:33 </title>
  <desc>Picture generated by PCBNEW </desc>
<g style="fill:#000000; fill-opacity:1;stroke:#000000; stroke-opacity:1;
stroke-linecap:round; stroke-linejoin:round; "
 transform="translate(0 0) scale(1 1)">
</g>
<g style="fill:#000000; fill-opacity:0.0; 
stroke:#000000; stroke-width:-0.000393701; stroke-opacity:1; 
stroke-linecap:round; stroke-linejoin:round;">
</g>
<g style="fill:#000000; fill-opacity:0.0; 
stroke:#000000; stroke-width:0; stroke-opacity:1; 
stroke-linecap:round; stroke-linejoin:round;">
</g>
<g style="fill:#000000; fill-opacity:1.0; 
stroke:#000000; stroke-width:0; stroke-opacity:1; 
stroke-linecap:round; stroke-linejoin:round;">
<polyline style="fill-rule:evenodd;"
points="38444,24610
38444,25200
38208,25200
38208,24610
38444,24610
" /> 
<polyline style="fill-rule:evenodd;"
points="37923,25190
37923,25368
37675,25368
37675,25190
37923,25190
" /> 
<polyline style="fill-rule:evenodd;"
points="37923,24816
37923,24994
37675,24994
37675,24816
37923,24816
" /> 
<polyline style="fill-rule:evenodd;"
points="37923,24442
37923,24620
37675,24620
37675,24442
37923,24442
" /> 
<polyline style="fill-rule:evenodd;"
points="38978,24442
38978,24620
38730,24620
38730,24442
38978,24442
" /> 
<polyline style="fill-rule:evenodd;"
points="38978,24816
38978,24994
38730,24994
38730,24816
38978,24816
" /> 
<polyline style="fill-rule:evenodd;"
points="38978,25190
38978,25368
38730,25368
38730,25190
38978,25190
" /> 
<polyline style="fill-rule:evenodd;"
points="41931,29901
41931,30019
41596,30019
41596,29901
41931,29901
" /> 
<polyline style="fill-rule:evenodd;"
points="41931,29704
41931,29822
41596,29822
41596,29704
41931,29704
" /> 
<polyline style="fill-rule:evenodd;"
points="41931,29507
41931,29625
41596,29625
41596,29507
41931,29507
" /> 
<polyline style="fill-rule:evenodd;"
points="41931,29311
41931,29429
41596,29429
41596,29311
41931,29311
" /> 
<polyline style="fill-rule:evenodd;"
points="41931,29114
41931,29232
41596,29232
41596,29114
41931,29114
" /> 
<polyline style="fill-rule:evenodd;"
points="41931,28917
41931,29035
41596,29035
41596,28917
41931,28917
" /> 
<polyline style="fill-rule:evenodd;"
points="41429,28533
41547,28533
41547,28868
41429,28868
41429,28533
" /> 
<polyline style="fill-rule:evenodd;"
points="41232,28533
41350,28533
41350,28868
41232,28868
41232,28533
" /> 
<polyline style="fill-rule:evenodd;"
points="41035,28533
41153,28533
41153,28868
41035,28868
41035,28533
" /> 
<polyline style="fill-rule:evenodd;"
points="40838,28533
40956,28533
40956,28868
40838,28868
40838,28533
" /> 
<polyline style="fill-rule:evenodd;"
points="40641,28533
40759,28533
40759,28868
40641,28868
40641,28533
" /> 
<polyline style="fill-rule:evenodd;"
points="40444,28533
40562,28533
40562,28868
40444,28868
40444,28533
" /> 
<polyline style="fill-rule:evenodd;"
points="40395,28917
40395,29035
40061,29035
40061,28917
40395,28917
" /> 
<polyline style="fill-rule:evenodd;"
points="40395,29114
40395,29232
40061,29232
40061,29114
40395,29114
" /> 
<polyline style="fill-rule:evenodd;"
points="40395,29311
40395,29429
40061,29429
40061,29311
40395,29311
" /> 
<polyline style="fill-rule:evenodd;"
points="40395,29507
40395,29625
40061,29625
40061,29507
40395,29507
" /> 
<polyline style="fill-rule:evenodd;"
points="40395,29704
40395,29822
40061,29822
40061,29704
40395,29704
" /> 
<polyline style="fill-rule:evenodd;"
points="40395,29901
40395,30019
40061,30019
40061,29901
40395,29901
" /> 
<polyline style="fill-rule:evenodd;"
points="40444,30068
40562,30068
40562,30403
40444,30403
40444,30068
" /> 
<polyline style="fill-rule:evenodd;"
points="40641,30068
40759,30068
40759,30403
40641,30403
40641,30068
" /> 
<polyline style="fill-rule:evenodd;"
points="40838,30068
40956,30068
40956,30403
40838,30403
40838,30068
" /> 
<polyline style="fill-rule:evenodd;"
points="41035,30068
41153,30068
41153,30403
41035,30403
41035,30068
" /> 
<polyline style="fill-rule:evenodd;"
points="41232,30068
41350,30068
41350,30403
41232,30403
41232,30068
" /> 
<polyline style="fill-rule:evenodd;"
points="41429,30068
41547,30068
41547,30403
41429,30403
41429,30068
" /> 
<polyline style="fill-rule:evenodd;"
points="41350,29114
41350,29822
40641,29822
40641,29114
41350,29114
" /> 
<polyline style="fill-rule:evenodd;"
points="38519,31903
38519,31647
38937,31647
38937,31903
38519,31903
" /> 
<polyline style="fill-rule:evenodd;"
points="38519,32277
38519,32021
38937,32021
38937,32277
38519,32277
" /> 
<polyline style="fill-rule:evenodd;"
points="38519,32651
38519,32395
38937,32395
38937,32651
38519,32651
" /> 
<polyline style="fill-rule:evenodd;"
points="39385,32651
39385,32395
39803,32395
39803,32651
39385,32651
" /> 
<polyline style="fill-rule:evenodd;"
points="39385,31903
39385,31647
39803,31647
39803,31903
39385,31903
" /> 
<polyline style="fill-rule:evenodd;"
points="39385,32277
39385,32021
39803,32021
39803,32277
39385,32277
" /> 
<polyline style="fill-rule:evenodd;"
points="49635,28958
49635,29194
49025,29194
49025,28958
49635,28958
" /> 
<polyline style="fill-rule:evenodd;"
points="49635,28458
49635,28694
49025,28694
49025,28458
49635,28458
" /> 
<polyline style="fill-rule:evenodd;"
points="49635,27958
49635,28194
49025,28194
49025,27958
49635,27958
" /> 
<polyline style="fill-rule:evenodd;"
points="49635,27458
49635,27694
49025,27694
49025,27458
49635,27458
" /> 
<polyline style="fill-rule:evenodd;"
points="47509,27458
47509,27694
46899,27694
46899,27458
47509,27458
" /> 
<polyline style="fill-rule:evenodd;"
points="47509,27958
47509,28194
46899,28194
46899,27958
47509,27958
" /> 
<polyline style="fill-rule:evenodd;"
points="47509,28458
47509,28694
46899,28694
46899,28458
47509,28458
" /> 
<polyline style="fill-rule:evenodd;"
points="47509,28958
47509,29194
46899,29194
46899,28958
47509,28958
" /> 
<polyline style="fill-rule:evenodd;"
points="52887,38098
52671,38098
52671,37507
52887,37507
52887,38098
" /> 
<polyline style="fill-rule:evenodd;"
points="53202,38098
52986,38098
52986,37507
53202,37507
53202,38098
" /> 
<polyline style="fill-rule:evenodd;"
points="53517,38098
53301,38098
53301,37507
53517,37507
53517,38098
" /> 
<polyline style="fill-rule:evenodd;"
points="53832,38098
53616,38098
53616,37507
53832,37507
53832,38098
" /> 
<polyline style="fill-rule:evenodd;"
points="54147,38098
53931,38098
53931,37507
54147,37507
54147,38098
" /> 
<polyline style="fill-rule:evenodd;"
points="54462,38098
54246,38098
54246,37507
54462,37507
54462,38098
" /> 
<polyline style="fill-rule:evenodd;"
points="54777,38098
54561,38098
54561,37507
54777,37507
54777,38098
" /> 
<polyline style="fill-rule:evenodd;"
points="55092,38098
54875,38098
54875,37507
55092,37507
55092,38098
" /> 
<polyline style="fill-rule:evenodd;"
points="55407,38098
55190,38098
55190,37507
55407,37507
55407,38098
" /> 
<polyline style="fill-rule:evenodd;"
points="55722,38098
55505,38098
55505,37507
55722,37507
55722,38098
" /> 
<polyline style="fill-rule:evenodd;"
points="56037,38098
55820,38098
55820,37507
56037,37507
56037,38098
" /> 
<polyline style="fill-rule:evenodd;"
points="56893,37025
56893,37242
56303,37242
56303,37025
56893,37025
" /> 
<polyline style="fill-rule:evenodd;"
points="56893,36710
56893,36927
56303,36927
56303,36710
56893,36710
" /> 
<polyline style="fill-rule:evenodd;"
points="56893,36395
56893,36612
56303,36612
56303,36395
56893,36395
" /> 
<polyline style="fill-rule:evenodd;"
points="56893,36080
56893,36297
56303,36297
56303,36080
56893,36080
" /> 
<polyline style="fill-rule:evenodd;"
points="56893,35765
56893,35982
56303,35982
56303,35765
56893,35765
" /> 
<polyline style="fill-rule:evenodd;"
points="56893,35450
56893,35667
56303,35667
56303,35450
56893,35450
" /> 
<polyline style="fill-rule:evenodd;"
points="56893,35135
56893,35352
56303,35352
56303,35135
56893,35135
" /> 
<polyline style="fill-rule:evenodd;"
points="56893,34820
56893,35037
56303,35037
56303,34820
56893,34820
" /> 
<polyline style="fill-rule:evenodd;"
points="56893,34505
56893,34722
56303,34722
56303,34505
56893,34505
" /> 
<polyline style="fill-rule:evenodd;"
points="56893,34190
56893,34407
56303,34407
56303,34190
56893,34190
" /> 
<polyline style="fill-rule:evenodd;"
points="56893,33875
56893,34092
56303,34092
56303,33875
56893,33875
" /> 
<polyline style="fill-rule:evenodd;"
points="56037,33610
55820,33610
55820,33019
56037,33019
56037,33610
" /> 
<polyline style="fill-rule:evenodd;"
points="55722,33610
55505,33610
55505,33019
55722,33019
55722,33610
" /> 
<polyline style="fill-rule:evenodd;"
points="55407,33610
55190,33610
55190,33019
55407,33019
55407,33610
" /> 
<polyline style="fill-rule:evenodd;"
points="55092,33610
54875,33610
54875,33019
55092,33019
55092,33610
" /> 
<polyline style="fill-rule:evenodd;"
points="54777,33610
54561,33610
54561,33019
54777,33019
54777,33610
" /> 
<polyline style="fill-rule:evenodd;"
points="54462,33610
54246,33610
54246,33019
54462,33019
54462,33610
" /> 
<polyline style="fill-rule:evenodd;"
points="54147,33610
53931,33610
53931,33019
54147,33019
54147,33610
" /> 
<polyline style="fill-rule:evenodd;"
points="53832,33610
53616,33610
53616,33019
53832,33019
53832,33610
" /> 
<polyline style="fill-rule:evenodd;"
points="53517,33610
53301,33610
53301,33019
53517,33019
53517,33610
" /> 
<polyline style="fill-rule:evenodd;"
points="53202,33610
52986,33610
52986,33019
53202,33019
53202,33610
" /> 
<polyline style="fill-rule:evenodd;"
points="52887,33610
52671,33610
52671,33019
52887,33019
52887,33610
" /> 
<polyline style="fill-rule:evenodd;"
points="52405,33875
52405,34092
51814,34092
51814,33875
52405,33875
" /> 
<polyline style="fill-rule:evenodd;"
points="52405,34190
52405,34407
51814,34407
51814,34190
52405,34190
" /> 
<polyline style="fill-rule:evenodd;"
points="52405,34505
52405,34722
51814,34722
51814,34505
52405,34505
" /> 
<polyline style="fill-rule:evenodd;"
points="52405,34820
52405,35037
51814,35037
51814,34820
52405,34820
" /> 
<polyline style="fill-rule:evenodd;"
points="52405,35135
52405,35352
51814,35352
51814,35135
52405,35135
" /> 
<polyline style="fill-rule:evenodd;"
points="52405,35450
52405,35667
51814,35667
51814,35450
52405,35450
" /> 
<polyline style="fill-rule:evenodd;"
points="52405,35765
52405,35982
51814,35982
51814,35765
52405,35765
" /> 
<polyline style="fill-rule:evenodd;"
points="52405,36080
52405,36297
51814,36297
51814,36080
52405,36080
" /> 
<polyline style="fill-rule:evenodd;"
points="52405,36395
52405,36612
51814,36612
51814,36395
52405,36395
" /> 
<polyline style="fill-rule:evenodd;"
points="52405,36710
52405,36927
51814,36927
51814,36710
52405,36710
" /> 
<polyline style="fill-rule:evenodd;"
points="52405,37025
52405,37242
51814,37242
51814,37025
52405,37025
" /> 
<polyline style="fill-rule:evenodd;"
points="44578,41771
44578,42125
44381,42125
44381,41771
44578,41771
" /> 
<polyline style="fill-rule:evenodd;"
points="43988,41771
43988,42125
43791,42125
43791,41771
43988,41771
" /> 
<polyline style="fill-rule:evenodd;"
points="60470,37753
60470,37517
61080,37517
61080,37753
60470,37753
" /> 
<polyline style="fill-rule:evenodd;"
points="60470,38253
60470,38017
61080,38017
61080,38253
60470,38253
" /> 
<polyline style="fill-rule:evenodd;"
points="60470,38753
60470,38517
61080,38517
61080,38753
60470,38753
" /> 
<polyline style="fill-rule:evenodd;"
points="60470,39253
60470,39017
61080,39017
61080,39253
60470,39253
" /> 
<polyline style="fill-rule:evenodd;"
points="62596,39253
62596,39017
63206,39017
63206,39253
62596,39253
" /> 
<polyline style="fill-rule:evenodd;"
points="62596,38753
62596,38517
63206,38517
63206,38753
62596,38753
" /> 
<polyline style="fill-rule:evenodd;"
points="62596,38253
62596,38017
63206,38017
63206,38253
62596,38253
" /> 
<polyline style="fill-rule:evenodd;"
points="62596,37753
62596,37517
63206,37517
63206,37753
62596,37753
" /> 
<polyline style="fill-rule:evenodd;"
points="43779,30314
42795,30314
42795,29311
43779,29311
43779,30314
" /> 
<polyline style="fill-rule:evenodd;"
points="43779,28326
42795,28326
42795,27322
43779,27322
43779,28326
" /> 
<polyline style="fill-rule:evenodd;"
points="43385,31362
43385,32346
42381,32346
42381,31362
43385,31362
" /> 
<polyline style="fill-rule:evenodd;"
points="41397,31362
41397,32346
40393,32346
40393,31362
41397,31362
" /> 
<polyline style="fill-rule:evenodd;"
points="53385,27539
53385,28523
52381,28523
52381,27539
53385,27539
" /> 
<polyline style="fill-rule:evenodd;"
points="51397,27539
51397,28523
50393,28523
50393,27539
51397,27539
" /> 
<polyline style="fill-rule:evenodd;"
points="43775,26665
43775,25681
44779,25681
44779,26665
43775,26665
" /> 
<polyline style="fill-rule:evenodd;"
points="45763,26665
45763,25681
46767,25681
46767,26665
45763,26665
" /> 
<polyline style="fill-rule:evenodd;"
points="47929,33555
47259,33555
47259,33043
47929,33043
47929,33555
" /> 
<polyline style="fill-rule:evenodd;"
points="47929,32177
47259,32177
47259,31665
47929,31665
47929,32177
" /> 
<polyline style="fill-rule:evenodd;"
points="55720,26385
56389,26385
56389,26897
55720,26897
55720,26385
" /> 
<polyline style="fill-rule:evenodd;"
points="55720,27763
56389,27763
56389,28275
55720,28275
55720,27763
" /> 
<polyline style="fill-rule:evenodd;"
points="39375,26751
39375,27200
38576,27200
38576,26751
39375,26751
" /> 
<polyline style="fill-rule:evenodd;"
points="39375,25807
39375,26255
38576,26255
38576,25807
39375,25807
" /> 
<polyline style="fill-rule:evenodd;"
points="68641,29240
68641,28925
68996,28925
68996,29240
68641,29240
" /> 
<polyline style="fill-rule:evenodd;"
points="68641,29988
68641,29673
68996,29673
68996,29988
68641,29988
" /> 
<polyline style="fill-rule:evenodd;"
points="69429,29614
69429,29299
69783,29299
69783,29614
69429,29614
" /> 
<polyline style="fill-rule:evenodd;"
points="51342,39503
51342,39267
51933,39267
51933,39503
51342,39503
" /> 
<polyline style="fill-rule:evenodd;"
points="51342,40003
51342,39767
51933,39767
51933,40003
51342,40003
" /> 
<polyline style="fill-rule:evenodd;"
points="51342,40503
51342,40267
51933,40267
51933,40503
51342,40503
" /> 
<polyline style="fill-rule:evenodd;"
points="51342,41003
51342,40767
51933,40767
51933,41003
51342,41003
" /> 
<polyline style="fill-rule:evenodd;"
points="51342,41503
51342,41267
51933,41267
51933,41503
51342,41503
" /> 
<polyline style="fill-rule:evenodd;"
points="51342,42003
51342,41767
51933,41767
51933,42003
51342,42003
" /> 
<polyline style="fill-rule:evenodd;"
points="51342,42503
51342,42267
51933,42267
51933,42503
51342,42503
" /> 
<polyline style="fill-rule:evenodd;"
points="53468,42503
53468,42267
54059,42267
54059,42503
53468,42503
" /> 
<polyline style="fill-rule:evenodd;"
points="53468,42003
53468,41767
54059,41767
54059,42003
53468,42003
" /> 
<polyline style="fill-rule:evenodd;"
points="53468,41503
53468,41267
54059,41267
54059,41503
53468,41503
" /> 
<polyline style="fill-rule:evenodd;"
points="53468,41003
53468,40767
54059,40767
54059,41003
53468,41003
" /> 
<polyline style="fill-rule:evenodd;"
points="53468,40503
53468,40267
54059,40267
54059,40503
53468,40503
" /> 
<polyline style="fill-rule:evenodd;"
points="53468,40003
53468,39767
54059,39767
54059,40003
53468,40003
" /> 
<polyline style="fill-rule:evenodd;"
points="53468,39503
53468,39267
54059,39267
54059,39503
53468,39503
" /> 
<polyline style="fill-rule:evenodd;"
points="65078,26196
65078,25960
65669,25960
65669,26196
65078,26196
" /> 
<polyline style="fill-rule:evenodd;"
points="65078,26696
65078,26460
65669,26460
65669,26696
65078,26696
" /> 
<polyline style="fill-rule:evenodd;"
points="65078,27196
65078,26960
65669,26960
65669,27196
65078,27196
" /> 
<polyline style="fill-rule:evenodd;"
points="65078,27696
65078,27460
65669,27460
65669,27696
65078,27696
" /> 
<polyline style="fill-rule:evenodd;"
points="65078,28196
65078,27960
65669,27960
65669,28196
65078,28196
" /> 
<polyline style="fill-rule:evenodd;"
points="65078,28696
65078,28460
65669,28460
65669,28696
65078,28696
" /> 
<polyline style="fill-rule:evenodd;"
points="65078,29196
65078,28960
65669,28960
65669,29196
65078,29196
" /> 
<polyline style="fill-rule:evenodd;"
points="67204,29196
67204,28960
67795,28960
67795,29196
67204,29196
" /> 
<polyline style="fill-rule:evenodd;"
points="67204,28696
67204,28460
67795,28460
67795,28696
67204,28696
" /> 
<polyline style="fill-rule:evenodd;"
points="67204,28196
67204,27960
67795,27960
67795,28196
67204,28196
" /> 
<polyline style="fill-rule:evenodd;"
points="67204,27696
67204,27460
67795,27460
67795,27696
67204,27696
" /> 
<polyline style="fill-rule:evenodd;"
points="67204,27196
67204,26960
67795,26960
67795,27196
67204,27196
" /> 
<polyline style="fill-rule:evenodd;"
points="67204,26696
67204,26460
67795,26460
67795,26696
67204,26696
" /> 
<polyline style="fill-rule:evenodd;"
points="67204,26196
67204,25960
67795,25960
67795,26196
67204,26196
" /> 
<polyline style="fill-rule:evenodd;"
points="64407,34616
64407,34379
65017,34379
65017,34616
64407,34616
" /> 
<polyline style="fill-rule:evenodd;"
points="64407,35116
64407,34879
65017,34879
65017,35116
64407,35116
" /> 
<polyline style="fill-rule:evenodd;"
points="64407,35616
64407,35379
65017,35379
65017,35616
64407,35616
" /> 
<polyline style="fill-rule:evenodd;"
points="64407,36116
64407,35879
65017,35879
65017,36116
64407,36116
" /> 
<polyline style="fill-rule:evenodd;"
points="66533,36116
66533,35879
67143,35879
67143,36116
66533,36116
" /> 
<polyline style="fill-rule:evenodd;"
points="66533,35616
66533,35379
67143,35379
67143,35616
66533,35616
" /> 
<polyline style="fill-rule:evenodd;"
points="66533,35116
66533,34879
67143,34879
67143,35116
66533,35116
" /> 
<polyline style="fill-rule:evenodd;"
points="66533,34616
66533,34379
67143,34379
67143,34616
66533,34616
" /> 
<polyline style="fill-rule:evenodd;"
points="60413,27401
60413,27283
60964,27283
60964,27401
60413,27401
" /> 
<polyline style="fill-rule:evenodd;"
points="60413,27598
60413,27480
60964,27480
60964,27598
60413,27598
" /> 
<polyline style="fill-rule:evenodd;"
points="60413,27795
60413,27677
60964,27677
60964,27795
60413,27795
" /> 
<polyline style="fill-rule:evenodd;"
points="60413,27992
60413,27874
60964,27874
60964,27992
60413,27992
" /> 
<polyline style="fill-rule:evenodd;"
points="60413,28188
60413,28070
60964,28070
60964,28188
60413,28188
" /> 
<polyline style="fill-rule:evenodd;"
points="62145,28188
62145,28070
62696,28070
62696,28188
62145,28188
" /> 
<polyline style="fill-rule:evenodd;"
points="62145,27992
62145,27874
62696,27874
62696,27992
62145,27992
" /> 
<polyline style="fill-rule:evenodd;"
points="62145,27795
62145,27677
62696,27677
62696,27795
62145,27795
" /> 
<polyline style="fill-rule:evenodd;"
points="62145,27598
62145,27480
62696,27480
62696,27598
62145,27598
" /> 
<polyline style="fill-rule:evenodd;"
points="62145,27401
62145,27283
62696,27283
62696,27401
62145,27401
" /> 
<polyline style="fill-rule:evenodd;"
points="67966,34612
67966,34375
68576,34375
68576,34612
67966,34612
" /> 
<polyline style="fill-rule:evenodd;"
points="67966,35112
67966,34875
68576,34875
68576,35112
67966,35112
" /> 
<polyline style="fill-rule:evenodd;"
points="67966,35612
67966,35375
68576,35375
68576,35612
67966,35612
" /> 
<polyline style="fill-rule:evenodd;"
points="67966,36112
67966,35875
68576,35875
68576,36112
67966,36112
" /> 
<polyline style="fill-rule:evenodd;"
points="70092,36112
70092,35875
70702,35875
70702,36112
70092,36112
" /> 
<polyline style="fill-rule:evenodd;"
points="70092,35612
70092,35375
70702,35375
70702,35612
70092,35612
" /> 
<polyline style="fill-rule:evenodd;"
points="70092,35112
70092,34875
70702,34875
70702,35112
70092,35112
" /> 
<polyline style="fill-rule:evenodd;"
points="70092,34612
70092,34375
70702,34375
70702,34612
70092,34612
" /> 
<polyline style="fill-rule:evenodd;"
points="64423,37753
64423,37517
65033,37517
65033,37753
64423,37753
" /> 
<polyline style="fill-rule:evenodd;"
points="64423,38253
64423,38017
65033,38017
65033,38253
64423,38253
" /> 
<polyline style="fill-rule:evenodd;"
points="64423,38753
64423,38517
65033,38517
65033,38753
64423,38753
" /> 
<polyline style="fill-rule:evenodd;"
points="64423,39253
64423,39017
65033,39017
65033,39253
64423,39253
" /> 
<polyline style="fill-rule:evenodd;"
points="66549,39253
66549,39017
67159,39017
67159,39253
66549,39253
" /> 
<polyline style="fill-rule:evenodd;"
points="66549,38753
66549,38517
67159,38517
67159,38753
66549,38753
" /> 
<polyline style="fill-rule:evenodd;"
points="66549,38253
66549,38017
67159,38017
67159,38253
66549,38253
" /> 
<polyline style="fill-rule:evenodd;"
points="66549,37753
66549,37517
67159,37517
67159,37753
66549,37753
" /> 
<polyline style="fill-rule:evenodd;"
points="48360,40494
48360,40730
47750,40730
47750,40494
48360,40494
" /> 
<polyline style="fill-rule:evenodd;"
points="48360,39994
48360,40230
47750,40230
47750,39994
48360,39994
" /> 
<polyline style="fill-rule:evenodd;"
points="48360,39494
48360,39730
47750,39730
47750,39494
48360,39494
" /> 
<polyline style="fill-rule:evenodd;"
points="48360,38994
48360,39230
47750,39230
47750,38994
48360,38994
" /> 
<polyline style="fill-rule:evenodd;"
points="46234,38994
46234,39230
45624,39230
45624,38994
46234,38994
" /> 
<polyline style="fill-rule:evenodd;"
points="46234,39494
46234,39730
45624,39730
45624,39494
46234,39494
" /> 
<polyline style="fill-rule:evenodd;"
points="46234,39994
46234,40230
45624,40230
45624,39994
46234,39994
" /> 
<polyline style="fill-rule:evenodd;"
points="46234,40494
46234,40730
45624,40730
45624,40494
46234,40494
" /> 
<polyline style="fill-rule:evenodd;"
points="59982,31175
59982,30938
60592,30938
60592,31175
59982,31175
" /> 
<polyline style="fill-rule:evenodd;"
points="59982,31675
59982,31438
60592,31438
60592,31675
59982,31675
" /> 
<polyline style="fill-rule:evenodd;"
points="59982,32175
59982,31938
60592,31938
60592,32175
59982,32175
" /> 
<polyline style="fill-rule:evenodd;"
points="59982,32675
59982,32438
60592,32438
60592,32675
59982,32675
" /> 
<polyline style="fill-rule:evenodd;"
points="62108,32675
62108,32438
62718,32438
62718,32675
62108,32675
" /> 
<polyline style="fill-rule:evenodd;"
points="62108,32175
62108,31938
62718,31938
62718,32175
62108,32175
" /> 
<polyline style="fill-rule:evenodd;"
points="62108,31675
62108,31438
62718,31438
62718,31675
62108,31675
" /> 
<polyline style="fill-rule:evenodd;"
points="62108,31175
62108,30938
62718,30938
62718,31175
62108,31175
" /> 
<polyline style="fill-rule:evenodd;"
points="47917,30700
47917,31015
47562,31015
47562,30700
47917,30700
" /> 
<polyline style="fill-rule:evenodd;"
points="47917,29952
47917,30267
47562,30267
47562,29952
47917,29952
" /> 
<polyline style="fill-rule:evenodd;"
points="47129,30326
47129,30641
46775,30641
46775,30326
47129,30326
" /> 
<polyline style="fill-rule:evenodd;"
points="53811,26480
53811,26795
53456,26795
53456,26480
53811,26480
" /> 
<polyline style="fill-rule:evenodd;"
points="53811,25732
53811,26047
53456,26047
53456,25732
53811,25732
" /> 
<polyline style="fill-rule:evenodd;"
points="53023,26106
53023,26421
52669,26421
52669,26106
53023,26106
" /> 
<polyline style="fill-rule:evenodd;"
points="45905,30275
44921,30275
44921,29507
45905,29507
45905,30275
" /> 
<polyline style="fill-rule:evenodd;"
points="45905,29074
44921,29074
44921,28307
45905,28307
45905,29074
" /> 
<polyline style="fill-rule:evenodd;"
points="50622,25681
50622,26665
49854,26665
49854,25681
50622,25681
" /> 
<polyline style="fill-rule:evenodd;"
points="49421,25681
49421,26665
48653,26665
48653,25681
49421,25681
" /> 
<polyline style="fill-rule:evenodd;"
points="36814,32470
36814,32175
37129,32175
37129,32470
36814,32470
" /> 
<polyline style="fill-rule:evenodd;"
points="36224,32470
36224,32175
36539,32175
36539,32470
36224,32470
" /> 
<polyline style="fill-rule:evenodd;"
points="50986,35437
50690,35437
50690,35122
50986,35122
50986,35437
" /> 
<polyline style="fill-rule:evenodd;"
points="50986,36027
50690,36027
50690,35712
50986,35712
50986,36027
" /> 
<polyline style="fill-rule:evenodd;"
points="41283,41797
41283,42092
40968,42092
40968,41797
41283,41797
" /> 
<polyline style="fill-rule:evenodd;"
points="41874,41797
41874,42092
41559,42092
41559,41797
41874,41797
" /> 
<polyline style="fill-rule:evenodd;"
points="39917,40797
39917,41092
39602,41092
39602,40797
39917,40797
" /> 
<polyline style="fill-rule:evenodd;"
points="40507,40797
40507,41092
40192,41092
40192,40797
40507,40797
" /> 
<polyline style="fill-rule:evenodd;"
points="51663,29937
51958,29937
51958,30251
51663,30251
51663,29937
" /> 
<polyline style="fill-rule:evenodd;"
points="51663,29346
51958,29346
51958,29661
51663,29661
51663,29346
" /> 
<polyline style="fill-rule:evenodd;"
points="49224,42096
49224,41801
49539,41801
49539,42096
49224,42096
" /> 
<polyline style="fill-rule:evenodd;"
points="48633,42096
48633,41801
48948,41801
48948,42096
48633,42096
" /> 
<polyline style="fill-rule:evenodd;"
points="53116,29937
53411,29937
53411,30251
53116,30251
53116,29937
" /> 
<polyline style="fill-rule:evenodd;"
points="53116,29346
53411,29346
53411,29661
53116,29661
53116,29346
" /> 
<polyline style="fill-rule:evenodd;"
points="54492,32285
54492,31990
54807,31990
54807,32285
54492,32285
" /> 
<polyline style="fill-rule:evenodd;"
points="53901,32285
53901,31990
54216,31990
54216,32285
53901,32285
" /> 
<polyline style="fill-rule:evenodd;"
points="39616,25122
39911,25122
39911,25437
39616,25437
39616,25122
" /> 
<polyline style="fill-rule:evenodd;"
points="39616,24531
39911,24531
39911,24846
39616,24846
39616,24531
" /> 
<polyline style="fill-rule:evenodd;"
points="58543,34742
58543,35037
58228,35037
58228,34742
58543,34742
" /> 
<polyline style="fill-rule:evenodd;"
points="59133,34742
59133,35037
58818,35037
58818,34742
59133,34742
" /> 
<polyline style="fill-rule:evenodd;"
points="36742,25122
37037,25122
37037,25437
36742,25437
36742,25122
" /> 
<polyline style="fill-rule:evenodd;"
points="36742,24531
37037,24531
37037,24846
36742,24846
36742,24531
" /> 
<polyline style="fill-rule:evenodd;"
points="55716,39061
55716,38765
56031,38765
56031,39061
55716,39061
" /> 
<polyline style="fill-rule:evenodd;"
points="55125,39061
55125,38765
55440,38765
55440,39061
55125,39061
" /> 
<polyline style="fill-rule:evenodd;"
points="66169,36679
66169,36974
65854,36974
65854,36679
66169,36679
" /> 
<polyline style="fill-rule:evenodd;"
points="66759,36679
66759,36974
66444,36974
66444,36679
66759,36679
" /> 
<polyline style="fill-rule:evenodd;"
points="62958,34881
63253,34881
63253,35196
62958,35196
62958,34881
" /> 
<polyline style="fill-rule:evenodd;"
points="62958,34291
63253,34291
63253,34606
62958,34606
62958,34291
" /> 
<polyline style="fill-rule:evenodd;"
points="61759,26348
61759,26643
61444,26643
61444,26348
61759,26348
" /> 
<polyline style="fill-rule:evenodd;"
points="62350,26348
62350,26643
62035,26643
62035,26348
62350,26348
" /> 
<polyline style="fill-rule:evenodd;"
points="64889,33675
64889,33379
65204,33379
65204,33675
64889,33675
" /> 
<polyline style="fill-rule:evenodd;"
points="64299,33675
64299,33379
64614,33379
64614,33675
64299,33675
" /> 
<polyline style="fill-rule:evenodd;"
points="66681,33675
66681,33379
66996,33379
66996,33675
66681,33675
" /> 
<polyline style="fill-rule:evenodd;"
points="66090,33675
66090,33379
66405,33379
66405,33675
66090,33675
" /> 
<polyline style="fill-rule:evenodd;"
points="64015,26643
64015,26348
64330,26348
64330,26643
64015,26643
" /> 
<polyline style="fill-rule:evenodd;"
points="63425,26643
63425,26348
63740,26348
63740,26643
63425,26643
" /> 
<polyline style="fill-rule:evenodd;"
points="60933,39738
60933,40033
60618,40033
60618,39738
60933,39738
" /> 
<polyline style="fill-rule:evenodd;"
points="61523,39738
61523,40033
61208,40033
61208,39738
61523,39738
" /> 
<polyline style="fill-rule:evenodd;"
points="59541,37976
59836,37976
59836,38291
59541,38291
59541,37976
" /> 
<polyline style="fill-rule:evenodd;"
points="59541,37385
59836,37385
59836,37700
59541,37700
59541,37385
" /> 
<polyline style="fill-rule:evenodd;"
points="44047,39773
44047,40068
43732,40068
43732,39773
44047,39773
" /> 
<polyline style="fill-rule:evenodd;"
points="44637,39773
44637,40068
44322,40068
44322,39773
44637,39773
" /> 
<polyline style="fill-rule:evenodd;"
points="63397,36974
63397,36679
63712,36679
63712,36974
63397,36974
" /> 
<polyline style="fill-rule:evenodd;"
points="62807,36974
62807,36679
63122,36679
63122,36974
62807,36974
" /> 
<polyline style="fill-rule:evenodd;"
points="69251,28230
69251,27935
69566,27935
69566,28230
69251,28230
" /> 
<polyline style="fill-rule:evenodd;"
points="68661,28230
68661,27935
68976,27935
68976,28230
68661,28230
" /> 
<polyline style="fill-rule:evenodd;"
points="47255,41801
47255,42096
46940,42096
46940,41801
47255,41801
" /> 
<polyline style="fill-rule:evenodd;"
points="47846,41801
47846,42096
47531,42096
47531,41801
47846,41801
" /> 
<polyline style="fill-rule:evenodd;"
points="61511,33379
61511,33675
61196,33675
61196,33379
61511,33379
" /> 
<polyline style="fill-rule:evenodd;"
points="62102,33379
62102,33675
61787,33675
61787,33379
62102,33379
" /> 
<polyline style="fill-rule:evenodd;"
points="45665,38584
45665,38289
45980,38289
45980,38584
45665,38584
" /> 
<polyline style="fill-rule:evenodd;"
points="45074,38584
45074,38289
45389,38289
45389,38584
45074,38584
" /> 
<polyline style="fill-rule:evenodd;"
points="45818,42096
45818,41801
46133,41801
46133,42096
45818,42096
" /> 
<polyline style="fill-rule:evenodd;"
points="45228,42096
45228,41801
45543,41801
45543,42096
45228,42096
" /> 
<polyline style="fill-rule:evenodd;"
points="62767,30352
62767,30057
63082,30057
63082,30352
62767,30352
" /> 
<polyline style="fill-rule:evenodd;"
points="62177,30352
62177,30057
62492,30057
62492,30352
62177,30352
" /> 
<polyline style="fill-rule:evenodd;"
points="48570,38627
48570,38332
48885,38332
48885,38627
48570,38627
" /> 
<polyline style="fill-rule:evenodd;"
points="47980,38627
47980,38332
48295,38332
48295,38627
47980,38627
" /> 
<polyline style="fill-rule:evenodd;"
points="68883,37476
69179,37476
69179,37791
68883,37791
68883,37476
" /> 
<polyline style="fill-rule:evenodd;"
points="68883,36885
69179,36885
69179,37200
68883,37200
68883,36885
" /> 
<polyline style="fill-rule:evenodd;"
points="42952,42096
42952,41801
43267,41801
43267,42096
42952,42096
" /> 
<polyline style="fill-rule:evenodd;"
points="42362,42096
42362,41801
42677,41801
42677,42096
42362,42096
" /> 
<polyline style="fill-rule:evenodd;"
points="59541,39744
59836,39744
59836,40059
59541,40059
59541,39744
" /> 
<polyline style="fill-rule:evenodd;"
points="59541,39153
59836,39153
59836,39468
59541,39468
59541,39153
" /> 
<polyline style="fill-rule:evenodd;"
points="64137,30356
64137,30061
64452,30061
64452,30356
64137,30356
" /> 
<polyline style="fill-rule:evenodd;"
points="63547,30356
63547,30061
63862,30061
63862,30356
63547,30356
" /> 
<polyline style="fill-rule:evenodd;"
points="55200,30216
54846,30216
54846,30019
55200,30019
55200,30216
" /> 
<polyline style="fill-rule:evenodd;"
points="55200,29625
54846,29625
54846,29429
55200,29429
55200,29625
" /> 
<polyline style="fill-rule:evenodd;"
points="51937,33023
51937,33377
51740,33377
51740,33023
51937,33023
" /> 
<polyline style="fill-rule:evenodd;"
points="51346,33023
51346,33377
51149,33377
51149,33023
51346,33023
" /> 
<polyline style="fill-rule:evenodd;"
points="51937,32200
51937,32555
51740,32555
51740,32200
51937,32200
" /> 
<polyline style="fill-rule:evenodd;"
points="51346,32200
51346,32555
51149,32555
51149,32200
51346,32200
" /> 
<polyline style="fill-rule:evenodd;"
points="44850,31007
44850,31362
44653,31362
44653,31007
44850,31007
" /> 
<polyline style="fill-rule:evenodd;"
points="44259,31007
44259,31362
44062,31362
44062,31007
44259,31007
" /> 
<polyline style="fill-rule:evenodd;"
points="45759,31366
45759,31011
45956,31011
45956,31366
45759,31366
" /> 
<polyline style="fill-rule:evenodd;"
points="46350,31366
46350,31011
46547,31011
46547,31366
46350,31366
" /> 
<polyline style="fill-rule:evenodd;"
points="67976,42984
67622,42984
67622,42787
67976,42787
67976,42984
" /> 
<polyline style="fill-rule:evenodd;"
points="67976,42393
67622,42393
67622,42196
67976,42196
67976,42393
" /> 
<polyline style="fill-rule:evenodd;"
points="68980,42976
68625,42976
68625,42779
68980,42779
68980,42976
" /> 
<polyline style="fill-rule:evenodd;"
points="68980,42385
68625,42385
68625,42188
68980,42188
68980,42385
" /> 
<polyline style="fill-rule:evenodd;"
points="69976,42976
69622,42976
69622,42779
69976,42779
69976,42976
" /> 
<polyline style="fill-rule:evenodd;"
points="69976,42385
69622,42385
69622,42188
69976,42188
69976,42385
" /> 
<polyline style="fill-rule:evenodd;"
points="70976,42968
70622,42968
70622,42771
70976,42771
70976,42968
" /> 
<polyline style="fill-rule:evenodd;"
points="70976,42377
70622,42377
70622,42181
70976,42181
70976,42377
" /> 
<polyline style="fill-rule:evenodd;"
points="52192,26661
51838,26661
51838,26464
52192,26464
52192,26661
" /> 
<polyline style="fill-rule:evenodd;"
points="52192,26070
51838,26070
51838,25874
52192,25874
52192,26070
" /> 
<polyline style="fill-rule:evenodd;"
points="56133,29437
56488,29437
56488,29633
56133,29633
56133,29437
" /> 
<polyline style="fill-rule:evenodd;"
points="56133,30027
56488,30027
56488,30224
56133,30224
56133,30027
" /> 
<polyline style="fill-rule:evenodd;"
points="48110,25996
48110,26350
47913,26350
47913,25996
48110,25996
" /> 
<polyline style="fill-rule:evenodd;"
points="47519,25996
47519,26350
47322,26350
47322,25996
47519,25996
" /> 
<polyline style="fill-rule:evenodd;"
points="58248,33696
58248,33342
58444,33342
58444,33696
58248,33696
" /> 
<polyline style="fill-rule:evenodd;"
points="58838,33696
58838,33342
59035,33342
59035,33696
58838,33696
" /> 
<polyline style="fill-rule:evenodd;"
points="44578,40767
44578,41122
44381,41122
44381,40767
44578,40767
" /> 
<polyline style="fill-rule:evenodd;"
points="43988,40767
43988,41122
43791,41122
43791,40767
43988,40767
" /> 
<polyline style="fill-rule:evenodd;"
points="57385,30842
57740,30842
57740,31039
57385,31039
57385,30842
" /> 
<polyline style="fill-rule:evenodd;"
points="57385,31433
57740,31433
57740,31629
57385,31629
57385,31433
" /> 
<polyline style="fill-rule:evenodd;"
points="57740,30224
57385,30224
57385,30027
57740,30027
57740,30224
" /> 
<polyline style="fill-rule:evenodd;"
points="57740,29633
57385,29633
57385,29437
57740,29437
57740,29633
" /> 
<polyline style="fill-rule:evenodd;"
points="61503,25822
61503,25468
61700,25468
61700,25822
61503,25822
" /> 
<polyline style="fill-rule:evenodd;"
points="62094,25822
62094,25468
62291,25468
62291,25822
62094,25822
" /> 
<polyline style="fill-rule:evenodd;"
points="63476,25822
63476,25468
63673,25468
63673,25822
63476,25822
" /> 
<polyline style="fill-rule:evenodd;"
points="64066,25822
64066,25468
64263,25468
64263,25822
64066,25822
" /> 
<polyline style="fill-rule:evenodd;"
points="63665,34354
64019,34354
64019,34551
63665,34551
63665,34354
" /> 
<polyline style="fill-rule:evenodd;"
points="63665,34944
64019,34944
64019,35141
63665,35141
63665,34944
" /> 
<polyline style="fill-rule:evenodd;"
points="68086,36940
68440,36940
68440,37137
68086,37137
68086,36940
" /> 
<polyline style="fill-rule:evenodd;"
points="68086,37531
68440,37531
68440,37728
68086,37728
68086,37531
" /> 
<polyline style="fill-rule:evenodd;"
points="69507,33338
69507,33692
69311,33692
69311,33338
69507,33338
" /> 
<polyline style="fill-rule:evenodd;"
points="68917,33338
68917,33692
68720,33692
68720,33338
68917,33338
" /> 
<polyline style="fill-rule:evenodd;"
points="63610,33350
63610,33704
63413,33704
63413,33350
63610,33350
" /> 
<polyline style="fill-rule:evenodd;"
points="63019,33350
63019,33704
62822,33704
62822,33350
63019,33350
" /> 
<polyline style="fill-rule:evenodd;"
points="69503,26960
69503,27314
69307,27314
69307,26960
69503,26960
" /> 
<polyline style="fill-rule:evenodd;"
points="68913,26960
68913,27314
68716,27314
68716,26960
68913,26960
" /> 
<polyline style="fill-rule:evenodd;"
points="69527,25897
69527,26251
69330,26251
69330,25897
69527,25897
" /> 
<polyline style="fill-rule:evenodd;"
points="68937,25897
68937,26251
68740,26251
68740,25897
68937,25897
" /> 
<polyline style="fill-rule:evenodd;"
points="58503,27417
58858,27417
58858,27614
58503,27614
58503,27417
" /> 
<polyline style="fill-rule:evenodd;"
points="58503,28007
58858,28007
58858,28204
58503,28204
58503,28007
" /> 
<polyline style="fill-rule:evenodd;"
points="59051,37720
59051,38074
58854,38074
58854,37720
59051,37720
" /> 
<polyline style="fill-rule:evenodd;"
points="58460,37720
58460,38074
58263,38074
58263,37720
58460,37720
" /> 
<polyline style="fill-rule:evenodd;"
points="59039,39724
59039,40078
58842,40078
58842,39724
59039,39724
" /> 
<polyline style="fill-rule:evenodd;"
points="58448,39724
58448,40078
58251,40078
58251,39724
58448,39724
" /> 
<polyline style="fill-rule:evenodd;"
points="58255,39074
58255,38720
58452,38720
58452,39074
58255,39074
" /> 
<polyline style="fill-rule:evenodd;"
points="58846,39074
58846,38720
59043,38720
59043,39074
58846,39074
" /> 
<polyline style="fill-rule:evenodd;"
points="57736,32858
57381,32858
57381,32661
57736,32661
57736,32858
" /> 
<polyline style="fill-rule:evenodd;"
points="57736,32267
57381,32267
57381,32070
57736,32070
57736,32267
" /> 
<polyline style="fill-rule:evenodd;"
points="58818,32858
58464,32858
58464,32661
58818,32661
58818,32858
" /> 
<polyline style="fill-rule:evenodd;"
points="58818,32267
58464,32267
58464,32070
58818,32070
58818,32267
" /> 
<polyline style="fill-rule:evenodd;"
points="59759,33696
59759,33342
59956,33342
59956,33696
59759,33696
" /> 
<polyline style="fill-rule:evenodd;"
points="60350,33696
60350,33342
60547,33342
60547,33696
60350,33696
" /> 
<polyline style="fill-rule:evenodd;"
points="61224,36318
61578,36318
61578,36515
61224,36515
61224,36318
" /> 
<polyline style="fill-rule:evenodd;"
points="61224,36909
61578,36909
61578,37106
61224,37106
61224,36909
" /> 
<polyline style="fill-rule:evenodd;"
points="62204,29425
62204,29070
62401,29070
62401,29425
62204,29425
" /> 
<polyline style="fill-rule:evenodd;"
points="62795,29425
62795,29070
62992,29070
62992,29425
62795,29425
" /> 
<polyline style="fill-rule:evenodd;"
points="69507,30622
69507,30976
69311,30976
69311,30622
69507,30622
" /> 
<polyline style="fill-rule:evenodd;"
points="68917,30622
68917,30976
68720,30976
68720,30622
68917,30622
" /> 
<polyline style="fill-rule:evenodd;"
points="63519,29425
63519,29070
63716,29070
63716,29425
63519,29425
" /> 
<polyline style="fill-rule:evenodd;"
points="64110,29425
64110,29070
64307,29070
64307,29425
64110,29425
" /> 
<polyline style="fill-rule:evenodd;"
points="58858,30224
58503,30224
58503,30027
58858,30027
58858,30224
" /> 
<polyline style="fill-rule:evenodd;"
points="58858,29633
58503,29633
58503,29437
58858,29437
58858,29633
" /> 
<polyline style="fill-rule:evenodd;"
points="65000,30385
65000,30031
65196,30031
65196,30385
65000,30385
" /> 
<polyline style="fill-rule:evenodd;"
points="65590,30385
65590,30031
65787,30031
65787,30385
65590,30385
" /> 
<polyline style="fill-rule:evenodd;"
points="44578,42803
44578,43157
44381,43157
44381,42803
44578,42803
" /> 
<polyline style="fill-rule:evenodd;"
points="43988,42803
43988,43157
43791,43157
43791,42803
43988,42803
" /> 
<polyline style="fill-rule:evenodd;"
points="43208,39744
43208,40098
43011,40098
43011,39744
43208,39744
" /> 
<polyline style="fill-rule:evenodd;"
points="42618,39744
42618,40098
42421,40098
42421,39744
42618,39744
" /> 
<polyline style="fill-rule:evenodd;"
points="42417,41125
42417,40771
42614,40771
42614,41125
42417,41125
" /> 
<polyline style="fill-rule:evenodd;"
points="43007,41125
43007,40771
43204,40771
43204,41125
43007,41125
" /> 
<polyline style="fill-rule:evenodd;"
points="41031,41125
41031,40771
41228,40771
41228,41125
41031,41125
" /> 
<polyline style="fill-rule:evenodd;"
points="41622,41125
41622,40771
41818,40771
41818,41125
41622,41125
" /> 
<polyline style="fill-rule:evenodd;"
points="46070,42799
46070,43153
45874,43153
45874,42799
46070,42799
" /> 
<polyline style="fill-rule:evenodd;"
points="45480,42799
45480,43153
45283,43153
45283,42799
45480,42799
" /> 
<polyline style="fill-rule:evenodd;"
points="58492,30842
58846,30842
58846,31039
58492,31039
58492,30842
" /> 
<polyline style="fill-rule:evenodd;"
points="58492,31433
58846,31433
58846,31629
58492,31629
58492,31433
" /> 
<polyline style="fill-rule:evenodd;"
points="63730,32549
63375,32549
63375,32352
63730,32352
63730,32549
" /> 
<polyline style="fill-rule:evenodd;"
points="63730,31958
63375,31958
63375,31761
63730,31761
63730,31958
" /> 
<polyline style="fill-rule:evenodd;"
points="64673,32547
64318,32547
64318,32350
64673,32350
64673,32547
" /> 
<polyline style="fill-rule:evenodd;"
points="64673,31956
64318,31956
64318,31759
64673,31759
64673,31956
" /> 
<polyline style="fill-rule:evenodd;"
points="58267,37137
58267,36783
58464,36783
58464,37137
58267,37137
" /> 
<polyline style="fill-rule:evenodd;"
points="58858,37137
58858,36783
59055,36783
59055,37137
58858,37137
" /> 
<polyline style="fill-rule:evenodd;"
points="59059,35767
59059,36122
58862,36122
58862,35767
59059,35767
" /> 
<polyline style="fill-rule:evenodd;"
points="58468,35767
58468,36122
58271,36122
58271,35767
58468,35767
" /> 
<polyline style="fill-rule:evenodd;"
points="37673,26110
38027,26110
38027,26307
37673,26307
37673,26110
" /> 
<polyline style="fill-rule:evenodd;"
points="37673,26700
38027,26700
38027,26897
37673,26897
37673,26700
" /> 
<polyline style="fill-rule:evenodd;"
points="44850,34090
44850,34444
44653,34444
44653,34090
44850,34090
" /> 
<polyline style="fill-rule:evenodd;"
points="44259,34090
44259,34444
44062,34444
44062,34090
44259,34090
" /> 
<polyline style="fill-rule:evenodd;"
points="44846,35437
44846,35791
44649,35791
44649,35437
44846,35437
" /> 
<polyline style="fill-rule:evenodd;"
points="44255,35437
44255,35791
44059,35791
44059,35437
44255,35437
" /> 
<polyline style="fill-rule:evenodd;"
points="46543,34090
46543,34444
46346,34444
46346,34090
46543,34090
" /> 
<polyline style="fill-rule:evenodd;"
points="45952,34090
45952,34444
45755,34444
45755,34090
45952,34090
" /> 
<polyline style="fill-rule:evenodd;"
points="46551,35440
46551,35795
46354,35795
46354,35440
46551,35440
" /> 
<polyline style="fill-rule:evenodd;"
points="45960,35440
45960,35795
45763,35795
45763,35440
45960,35440
" /> 
<polyline style="fill-rule:evenodd;"
points="56503,32858
56149,32858
56149,32661
56503,32661
56503,32858
" /> 
<polyline style="fill-rule:evenodd;"
points="56503,32267
56149,32267
56149,32070
56503,32070
56503,32267
" /> 
<polyline style="fill-rule:evenodd;"
points="60661,36523
60188,36523
60188,36051
60661,36051
60661,36523
" /> 
<polyline style="fill-rule:evenodd;"
points="60661,35657
60188,35657
60188,35185
60661,35185
60661,35657
" /> 
<polyline style="fill-rule:evenodd;"
points="36645,25834
37118,25834
37118,26307
36645,26307
36645,25834
" /> 
<polyline style="fill-rule:evenodd;"
points="36645,26700
37118,26700
37118,27173
36645,27173
36645,26700
" /> 
<polyline style="fill-rule:evenodd;"
points="51413,31657
51413,30712
52200,30712
52200,31657
51413,31657
" /> 
<polyline style="fill-rule:evenodd;"
points="52870,31657
52870,30712
53657,30712
53657,31657
52870,31657
" /> 
<polyline style="fill-rule:evenodd;"
points="40448,41751
40448,42106
40251,42106
40251,41751
40448,41751
" /> 
<polyline style="fill-rule:evenodd;"
points="39858,41751
39858,42106
39661,42106
39661,41751
39858,41751
" /> 
<polyline style="fill-rule:evenodd;"
points="56503,31629
56149,31629
56149,31433
56503,31433
56503,31629
" /> 
<polyline style="fill-rule:evenodd;"
points="56503,31039
56149,31039
56149,30842
56503,30842
56503,31039
" /> 
<polyline style="fill-rule:evenodd;"
points="37283,30059
37283,29901
37992,29901
37992,30059
37283,30059
" /> 
<polyline style="fill-rule:evenodd;"
points="37283,29803
37283,29645
37992,29645
37992,29803
37283,29803
" /> 
<polyline style="fill-rule:evenodd;"
points="37283,29547
37283,29389
37992,29389
37992,29547
37283,29547
" /> 
<polyline style="fill-rule:evenodd;"
points="37283,29291
37283,29133
37992,29133
37992,29291
37283,29291
" /> 
<polyline style="fill-rule:evenodd;"
points="37283,29035
37283,28877
37992,28877
37992,29035
37283,29035
" /> 
<polyline style="fill-rule:evenodd;"
points="42108,27279
41812,27279
41812,26964
42108,26964
42108,27279
" /> 
<polyline style="fill-rule:evenodd;"
points="42108,27870
41812,27870
41812,27555
42108,27555
42108,27870
" /> 
<polyline style="fill-rule:evenodd;"
points="41230,27279
40935,27279
40935,26964
41230,26964
41230,27279
" /> 
<polyline style="fill-rule:evenodd;"
points="41230,27870
40935,27870
40935,27555
41230,27555
41230,27870
" /> 
<polyline style="fill-rule:evenodd;"
points="40322,27811
39968,27811
39968,27614
40322,27614
40322,27811
" /> 
<polyline style="fill-rule:evenodd;"
points="40322,27220
39968,27220
39968,27023
40322,27023
40322,27220
" /> 
<polyline style="fill-rule:evenodd;"
points="39614,28759
39614,29311
39141,29311
39141,28759
39614,28759
" /> 
<polyline style="fill-rule:evenodd;"
points="38897,28759
38897,29311
38503,29311
38503,28759
38897,28759
" /> 
<polyline style="fill-rule:evenodd;"
points="38897,29625
38897,30177
38503,30177
38503,29625
38897,29625
" /> 
<polyline style="fill-rule:evenodd;"
points="39645,29625
39645,30177
39251,30177
39251,29625
39645,29625
" /> 
<polyline style="fill-rule:evenodd;"
points="38555,39350
38988,39350
38988,40059
38555,40059
38555,39350
" /> 
<polyline style="fill-rule:evenodd;"
points="38555,41791
38988,41791
38988,42500
38555,42500
38555,41791
" /> 
<polyline style="fill-rule:evenodd;"
points="37098,39350
37531,39350
37531,40059
37098,40059
37098,39350
" /> 
<polyline style="fill-rule:evenodd;"
points="37098,41791
37531,41791
37531,42500
37098,42500
37098,41791
" /> 
<polyline style="fill-rule:evenodd;"
points="35828,38553
36576,38553
36576,39064
35828,39064
35828,38553
" /> 
<polyline style="fill-rule:evenodd;"
points="35828,33297
36931,33297
36931,33690
35828,33690
35828,33297
" /> 
<polyline style="fill-rule:evenodd;"
points="37856,33297
38171,33297
38171,33690
37856,33690
37856,33297
" /> 
<polyline style="fill-rule:evenodd;"
points="40218,33297
40690,33297
40690,33690
40218,33690
40218,33297
" /> 
<polyline style="fill-rule:evenodd;"
points="41911,37687
42383,37687
42383,38080
41911,38080
41911,37687
" /> 
<polyline style="fill-rule:evenodd;"
points="41911,34537
42383,34537
42383,34812
41911,34812
41911,34537
" /> 
<polyline style="fill-rule:evenodd;"
points="41911,34970
42383,34970
42383,35246
41911,35246
41911,34970
" /> 
<polyline style="fill-rule:evenodd;"
points="41911,35403
42383,35403
42383,35679
41911,35679
41911,35403
" /> 
<polyline style="fill-rule:evenodd;"
points="41911,35836
42383,35836
42383,36112
41911,36112
41911,35836
" /> 
<polyline style="fill-rule:evenodd;"
points="41911,36269
42383,36269
42383,36545
41911,36545
41911,36269
" /> 
<polyline style="fill-rule:evenodd;"
points="41911,36702
42383,36702
42383,36978
41911,36978
41911,36702
" /> 
<polyline style="fill-rule:evenodd;"
points="41911,37135
42383,37135
42383,37411
41911,37411
41911,37135
" /> 
<polyline style="fill-rule:evenodd;"
points="41911,34104
42383,34104
42383,34379
41911,34379
41911,34104
" /> 
<polyline style="fill-rule:evenodd;"
points="41911,33730
42383,33730
42383,34005
41911,34005
41911,33730
" /> 
<polyline style="fill-rule:evenodd;"
points="41035,40098
41035,39744
41232,39744
41232,40098
41035,40098
" /> 
<polyline style="fill-rule:evenodd;"
points="41625,40098
41625,39744
41822,39744
41822,40098
41625,40098
" /> 
<polyline style="fill-rule:evenodd;"
points="36281,41082
36576,41082
36576,41397
36281,41397
36281,41082
" /> 
<polyline style="fill-rule:evenodd;"
points="36281,40492
36576,40492
36576,40807
36281,40807
36281,40492
" /> 
<polyline style="fill-rule:evenodd;"
points="40448,39744
40448,40098
40251,40098
40251,39744
40448,39744
" /> 
<polyline style="fill-rule:evenodd;"
points="39858,39744
39858,40098
39661,40098
39661,39744
39858,39744
" /> 
</g> 
</svg>
