<?xml version="1.0" standalone="no"?>
 <!DOCTYPE svg PUBLIC "-//W3C//DTD SVG 1.1//EN" 
 "http://www.w3.org/Graphics/SVG/1.1/DTD/svg11.dtd"> 
<svg xmlns="http://www.w3.org/2000/svg" version="1.1" 
    width="29.7002cm" height="21.0007cm" viewBox="0 0 116930 82680 ">
<title>SVG Picture created as PSLab-Edge.Cuts.svg date 2018/12/30 12:21:37 </title>
  <desc>Picture generated by PCBNEW </desc>
<g style="fill:#000000; fill-opacity:1;stroke:#000000; stroke-opacity:1;
stroke-linecap:round; stroke-linejoin:round; "
 transform="translate(0 0) scale(1 1)">
</g>
<g style="fill:#000000; fill-opacity:0.0; 
stroke:#000000; stroke-width:-0.000393701; stroke-opacity:1; 
stroke-linecap:round; stroke-linejoin:round;">
</g>
<g style="fill:#000000; fill-opacity:0.0; 
stroke:#000000; stroke-width:39.3701; stroke-opacity:1; 
stroke-linecap:round; stroke-linejoin:round;">
<path d="M35803 23728
L35811 23728
" />
<path d="M35803 44716
L35803 23728
" />
<path d="M74791 44716
L35803 44716
" />
<path d="M74791 44708
L74791 44716
" />
<path d="M74791 44704
L74791 44708
" />
<path d="M74791 44700
L74791 44704
" />
<path d="M74791 44696
L74791 44700
" />
<path d="M74791 24326
L74791 44696
" />
<path d="M74787 24322
L74791 24326
" />
<path d="M74783 24318
L74787 24322
" />
<path d="M74192 23728
L74783 24318
" />
<path d="M74188 23728
L74192 23728
" />
<path d="M74185 23728
L74188 23728
" />
<path d="M74181 23728
L74185 23728
" />
<path d="M35814 23728
L74181 23728
" />
<path d="M35803 44716
L35803 44724
" />
<circle cx="35803.1" cy="44716.5" r="656.168" /> 
<path d="M34818 44716
L36787 44716
" />
<path d="M35803 43732
L35803 45700
" />
</g> 
</svg>
