  0
SECTION
  2
HEADER
  9
$ANGBASE
  50
0.0
  9
$ANGDIR
  70
  1
  9
$MEASUREMENT
  70
0
  0
ENDSEC
  0
SECTION
  2
TABLES
  0
TABLE
  2
LTYPE
  70
1
  0
LTYPE
  2
CONTINUOUS
  70
0
  3
Solid line
  72
65
  73
0
  40
0.0
  0
ENDTAB
  0
TABLE
  2
STYLE
  70
4
  0
STYLE
  2
KICAD
  70
0
  40
0
  41
1
  42
1
  50
0
  71
0
  3
isocp.shx
  0
STYLE
  2
KICADB
  70
0
  40
0
  41
1
  42
1
  50
0
  71
0
  3
isocp.shx
  0
STYLE
  2
KICADI
  70
0
  40
0
  41
1
  42
1
  50
15
  71
0
  3
isocp.shx
  0
STYLE
  2
KICADBI
  70
0
  40
0
  41
1
  42
1
  50
15
  71
0
  3
isocp.shx
  0
ENDTAB
  0
TABLE
  2
LAYER
  70
30
  0
LAYER
  2
BLACK
  70
0
  62
7
  6
CONTINUOUS
  0
LAYER
  2
GRAY1
  70
0
  62
251
  6
CONTINUOUS
  0
LAYER
  2
GRAY2
  70
0
  62
8
  6
CONTINUOUS
  0
LAYER
  2
GRAY3
  70
0
  62
9
  6
CONTINUOUS
  0
LAYER
  2
WHITE
  70
0
  62
7
  6
CONTINUOUS
  0
LAYER
  2
LYELLOW
  70
0
  62
51
  6
CONTINUOUS
  0
LAYER
  2
BLUE1
  70
0
  62
178
  6
CONTINUOUS
  0
LAYER
  2
GREEN1
  70
0
  62
98
  6
CONTINUOUS
  0
LAYER
  2
CYAN1
  70
0
  62
138
  6
CONTINUOUS
  0
LAYER
  2
RED1
  70
0
  62
18
  6
CONTINUOUS
  0
LAYER
  2
MAGENTA1
  70
0
  62
228
  6
CONTINUOUS
  0
LAYER
  2
BROWN1
  70
0
  62
58
  6
CONTINUOUS
  0
LAYER
  2
BLUE2
  70
0
  62
5
  6
CONTINUOUS
  0
LAYER
  2
GREEN2
  70
0
  62
3
  6
CONTINUOUS
  0
LAYER
  2
CYAN2
  70
0
  62
4
  6
CONTINUOUS
  0
LAYER
  2
RED2
  70
0
  62
1
  6
CONTINUOUS
  0
LAYER
  2
MAGENTA2
  70
0
  62
6
  6
CONTINUOUS
  0
LAYER
  2
BROWN2
  70
0
  62
54
  6
CONTINUOUS
  0
LAYER
  2
BLUE3
  70
0
  62
171
  6
CONTINUOUS
  0
LAYER
  2
GREEN3
  70
0
  62
91
  6
CONTINUOUS
  0
LAYER
  2
CYAN3
  70
0
  62
131
  6
CONTINUOUS
  0
LAYER
  2
RED3
  70
0
  62
11
  6
CONTINUOUS
  0
LAYER
  2
MAGENTA3
  70
0
  62
221
  6
CONTINUOUS
  0
LAYER
  2
YELLOW3
  70
0
  62
2
  6
CONTINUOUS
  0
LAYER
  2
BLUE4
  70
0
  62
5
  6
CONTINUOUS
  0
LAYER
  2
GREEN4
  70
0
  62
3
  6
CONTINUOUS
  0
LAYER
  2
CYAN4
  70
0
  62
4
  6
CONTINUOUS
  0
LAYER
  2
RED4
  70
0
  62
1
  6
CONTINUOUS
  0
LAYER
  2
MAGENTA4
  70
0
  62
6
  6
CONTINUOUS
  0
LAYER
  2
YELLOW4
  70
0
  62
2
  6
CONTINUOUS
  0
ENDTAB
  0
ENDSEC
  0
SECTION
  2
ENTITIES
0
LINE
8
Black
10
188.44
20
-60.22
11
188.45
21
-60.22
0
LINE
8
Black
10
188.45
20
-60.22
11
188.452
21
-60.2204
0
LINE
8
Black
10
188.452
20
-60.2204
11
188.454
21
-60.2202
0
LINE
8
Black
10
188.454
20
-60.2202
11
188.461
21
-60.2219
0
LINE
8
Black
10
188.461
20
-60.2219
11
188.467
21
-60.223
0
LINE
8
Black
10
188.467
20
-60.223
11
188.469
21
-60.2241
0
LINE
8
Black
10
188.469
20
-60.2241
11
188.471
21
-60.2247
0
LINE
8
Black
10
188.471
20
-60.2247
11
188.476
21
-60.2284
0
LINE
8
Black
10
188.476
20
-60.2284
11
188.482
21
-60.2317
0
LINE
8
Black
10
188.482
20
-60.2317
11
188.484
21
-60.2334
0
LINE
8
Black
10
188.484
20
-60.2334
11
188.485
21
-60.2346
0
LINE
8
Black
10
188.485
20
-60.2346
11
189.985
21
-61.7346
0
LINE
8
Black
10
189.985
20
-61.7346
11
189.985
21
-61.7346
0
LINE
8
Black
10
189.985
20
-61.7346
11
189.995
21
-61.7446
0
LINE
8
Black
10
189.995
20
-61.7446
11
190.005
21
-61.7546
0
LINE
8
Black
10
190.005
20
-61.7546
11
190.007
21
-61.7564
0
LINE
8
Black
10
190.007
20
-61.7564
11
190.008
21
-61.7579
0
LINE
8
Black
10
190.008
20
-61.7579
11
190.012
21
-61.7635
0
LINE
8
Black
10
190.012
20
-61.7635
11
190.015
21
-61.7689
0
LINE
8
Black
10
190.015
20
-61.7689
11
190.016
21
-61.771
0
LINE
8
Black
10
190.016
20
-61.771
11
190.017
21
-61.7729
0
LINE
8
Black
10
190.017
20
-61.7729
11
190.018
21
-61.7793
0
LINE
8
Black
10
190.018
20
-61.7793
11
190.02
21
-61.7856
0
LINE
8
Black
10
190.02
20
-61.7856
11
190.02
21
-61.7878
0
LINE
8
Black
10
190.02
20
-61.7878
11
190.02
21
-61.79
0
LINE
8
Black
10
190.02
20
-61.79
11
190.02
21
-113.53
0
LINE
8
Black
10
190.02
20
-113.53
11
190.02
21
-113.54
0
LINE
8
Black
10
190.02
20
-113.54
11
190.02
21
-113.55
0
LINE
8
Black
10
190.02
20
-113.55
11
190.02
21
-113.56
0
LINE
8
Black
10
190.02
20
-113.56
11
190.02
21
-113.58
0
LINE
8
Black
10
190.02
20
-113.58
11
190.019
21
-113.584
0
LINE
8
Black
10
190.019
20
-113.584
11
190.019
21
-113.589
0
LINE
8
Black
10
190.019
20
-113.589
11
190.018
21
-113.593
0
LINE
8
Black
10
190.018
20
-113.593
11
190.017
21
-113.597
0
LINE
8
Black
10
190.017
20
-113.597
11
190.015
21
-113.601
0
LINE
8
Black
10
190.015
20
-113.601
11
190.013
21
-113.605
0
LINE
8
Black
10
190.013
20
-113.605
11
190.01
21
-113.608
0
LINE
8
Black
10
190.01
20
-113.608
11
190.008
21
-113.612
0
LINE
8
Black
10
190.008
20
-113.612
11
190.005
21
-113.615
0
LINE
8
Black
10
190.005
20
-113.615
11
190.002
21
-113.618
0
LINE
8
Black
10
190.002
20
-113.618
11
189.998
21
-113.62
0
LINE
8
Black
10
189.998
20
-113.62
11
189.995
21
-113.623
0
LINE
8
Black
10
189.995
20
-113.623
11
189.991
21
-113.625
0
LINE
8
Black
10
189.991
20
-113.625
11
189.987
21
-113.627
0
LINE
8
Black
10
189.987
20
-113.627
11
189.983
21
-113.628
0
LINE
8
Black
10
189.983
20
-113.628
11
189.979
21
-113.629
0
LINE
8
Black
10
189.979
20
-113.629
11
189.974
21
-113.629
0
LINE
8
Black
10
189.974
20
-113.629
11
189.97
21
-113.63
0
LINE
8
Black
10
189.97
20
-113.63
11
90.9795
21
-113.63
0
LINE
8
Black
10
90.9795
20
-113.63
11
90.9783
21
-113.632
0
LINE
8
Black
10
90.9783
20
-113.632
11
90.965
21
-113.643
0
LINE
8
Black
10
90.965
20
-113.643
11
90.9487
21
-113.649
0
LINE
8
Black
10
90.9487
20
-113.649
11
90.9313
21
-113.649
0
LINE
8
Black
10
90.9313
20
-113.649
11
90.915
21
-113.643
0
LINE
8
Black
10
90.915
20
-113.643
11
90.9017
21
-113.632
0
LINE
8
Black
10
90.9017
20
-113.632
11
90.893
21
-113.617
0
LINE
8
Black
10
90.893
20
-113.617
11
90.89
21
-113.6
0
LINE
8
Black
10
90.89
20
-113.6
11
90.89
21
-113.58
0
LINE
8
Black
10
90.89
20
-113.58
11
90.89
21
-60.27
0
LINE
8
Black
10
90.89
20
-60.27
11
90.8908
21
-60.2657
0
LINE
8
Black
10
90.8908
20
-60.2657
11
90.8908
21
-60.2613
0
LINE
8
Black
10
90.8908
20
-60.2613
11
90.8923
21
-60.2572
0
LINE
8
Black
10
90.8923
20
-60.2572
11
90.893
21
-60.2529
0
LINE
8
Black
10
90.893
20
-60.2529
11
90.8952
21
-60.2491
0
LINE
8
Black
10
90.8952
20
-60.2491
11
90.8967
21
-60.245
0
LINE
8
Black
10
90.8967
20
-60.245
11
90.8995
21
-60.2416
0
LINE
8
Black
10
90.8995
20
-60.2416
11
90.9017
21
-60.2379
0
LINE
8
Black
10
90.9017
20
-60.2379
11
90.905
21
-60.235
0
LINE
8
Black
10
90.905
20
-60.235
11
90.9079
21
-60.2317
0
LINE
8
Black
10
90.9079
20
-60.2317
11
90.9116
21
-60.2295
0
LINE
8
Black
10
90.9116
20
-60.2295
11
90.915
21
-60.2267
0
LINE
8
Black
10
90.915
20
-60.2267
11
90.9191
21
-60.2252
0
LINE
8
Black
10
90.9191
20
-60.2252
11
90.9229
21
-60.223
0
LINE
8
Black
10
90.9229
20
-60.223
11
90.9272
21
-60.2223
0
LINE
8
Black
10
90.9272
20
-60.2223
11
90.9313
21
-60.2208
0
LINE
8
Black
10
90.9313
20
-60.2208
11
90.9357
21
-60.2208
0
LINE
8
Black
10
90.9357
20
-60.2208
11
90.94
21
-60.22
0
LINE
8
Black
10
90.94
20
-60.22
11
90.96
21
-60.22
0
LINE
8
Black
10
90.96
20
-60.22
11
90.965
21
-60.2209
0
LINE
8
Black
10
90.965
20
-60.2209
11
90.97
21
-60.22
0
LINE
8
Black
10
90.97
20
-60.22
11
188.42
21
-60.22
0
LINE
8
Black
10
188.42
20
-60.22
11
188.43
21
-60.22
0
LINE
8
Black
10
188.43
20
-60.22
11
188.44
21
-60.22
0
LINE
8
Black
10
90.99
20
-113.53
11
189.92
21
-113.53
0
LINE
8
Black
10
189.92
20
-113.53
11
189.92
21
-61.8107
0
LINE
8
Black
10
189.92
20
-61.8107
11
189.915
21
-61.8054
0
LINE
8
Black
10
189.915
20
-61.8054
11
189.915
21
-61.8054
0
LINE
8
Black
10
189.915
20
-61.8054
11
188.429
21
-60.32
0
LINE
8
Black
10
188.429
20
-60.32
11
188.42
21
-60.32
0
LINE
8
Black
10
188.42
20
-60.32
11
90.99
21
-60.32
0
LINE
8
Black
10
90.99
20
-60.32
11
90.99
21
-113.53
  0
ENDSEC
  0
EOF
