G04 #@! TF.GenerationSoftware,KiCad,Pcbnew,5.1.6-c6e7f7d~87~ubuntu18.04.1*
G04 #@! TF.CreationDate,2020-10-20T16:36:31+03:00*
G04 #@! TF.ProjectId,PSLab,50534c61-622e-46b6-9963-61645f706362,v6.1*
G04 #@! TF.SameCoordinates,Original*
G04 #@! TF.FileFunction,Paste,Top*
G04 #@! TF.FilePolarity,Positive*
%FSLAX46Y46*%
G04 Gerber Fmt 4.6, Leading zero omitted, Abs format (unit mm)*
G04 Created by KiCad (PCBNEW 5.1.6-c6e7f7d~87~ubuntu18.04.1) date 2020-10-20 16:36:31*
%MOMM*%
%LPD*%
G01*
G04 APERTURE LIST*
%ADD10C,0.100000*%
%ADD11C,10.200000*%
%ADD12R,0.630000X0.450000*%
%ADD13R,0.750000X1.500000*%
%ADD14R,0.850000X0.300000*%
%ADD15R,0.300000X0.850000*%
%ADD16R,1.800000X1.800000*%
%ADD17R,1.060000X0.650000*%
%ADD18R,1.550000X0.600000*%
%ADD19R,0.550000X1.500000*%
%ADD20R,1.500000X0.550000*%
%ADD21R,2.500000X2.550000*%
%ADD22R,2.550000X2.500000*%
%ADD23R,0.900000X0.800000*%
%ADD24R,1.500000X0.600000*%
%ADD25R,1.400000X0.300000*%
%ADD26R,2.500000X1.950000*%
%ADD27R,1.950000X2.500000*%
%ADD28R,2.000000X2.400000*%
%ADD29R,1.200000X1.400000*%
%ADD30R,1.000000X1.400000*%
%ADD31R,1.900000X1.300000*%
%ADD32R,2.800000X1.000000*%
%ADD33R,0.800000X1.000000*%
%ADD34R,1.200000X1.000000*%
%ADD35R,1.200000X0.700000*%
%ADD36R,1.800000X1.000000*%
%ADD37R,1.150000X0.300000*%
%ADD38R,1.700000X1.300000*%
%ADD39R,1.300000X1.700000*%
%ADD40R,1.700000X0.900000*%
%ADD41R,1.500000X1.000000*%
G04 APERTURE END LIST*
D10*
G36*
X166330000Y-108860000D02*
G01*
X166330000Y-104760000D01*
X168830000Y-103760000D01*
X168830000Y-109860000D01*
X166330000Y-108860000D01*
G37*
G36*
X181530000Y-109860000D02*
G01*
X181530000Y-103760000D01*
X184030000Y-104760000D01*
X184030000Y-108860000D01*
X181530000Y-109860000D01*
G37*
D11*
X175180000Y-106810000D03*
D12*
X111620000Y-109970000D03*
X111620000Y-110920000D03*
X111620000Y-111870000D03*
X114300000Y-111870000D03*
X114300000Y-110920000D03*
X114300000Y-109970000D03*
G36*
G01*
X149360000Y-91476250D02*
X149360000Y-90963750D01*
G75*
G02*
X149578750Y-90745000I218750J0D01*
G01*
X150016250Y-90745000D01*
G75*
G02*
X150235000Y-90963750I0J-218750D01*
G01*
X150235000Y-91476250D01*
G75*
G02*
X150016250Y-91695000I-218750J0D01*
G01*
X149578750Y-91695000D01*
G75*
G02*
X149360000Y-91476250I0J218750D01*
G01*
G37*
G36*
G01*
X147785000Y-91476250D02*
X147785000Y-90963750D01*
G75*
G02*
X148003750Y-90745000I218750J0D01*
G01*
X148441250Y-90745000D01*
G75*
G02*
X148660000Y-90963750I0J-218750D01*
G01*
X148660000Y-91476250D01*
G75*
G02*
X148441250Y-91695000I-218750J0D01*
G01*
X148003750Y-91695000D01*
G75*
G02*
X147785000Y-91476250I0J218750D01*
G01*
G37*
G36*
G01*
X111416250Y-101610000D02*
X110903750Y-101610000D01*
G75*
G02*
X110685000Y-101391250I0J218750D01*
G01*
X110685000Y-100953750D01*
G75*
G02*
X110903750Y-100735000I218750J0D01*
G01*
X111416250Y-100735000D01*
G75*
G02*
X111635000Y-100953750I0J-218750D01*
G01*
X111635000Y-101391250D01*
G75*
G02*
X111416250Y-101610000I-218750J0D01*
G01*
G37*
G36*
G01*
X111416250Y-103185000D02*
X110903750Y-103185000D01*
G75*
G02*
X110685000Y-102966250I0J218750D01*
G01*
X110685000Y-102528750D01*
G75*
G02*
X110903750Y-102310000I218750J0D01*
G01*
X111416250Y-102310000D01*
G75*
G02*
X111635000Y-102528750I0J-218750D01*
G01*
X111635000Y-102966250D01*
G75*
G02*
X111416250Y-103185000I-218750J0D01*
G01*
G37*
G36*
G01*
X119216250Y-105650000D02*
X118703750Y-105650000D01*
G75*
G02*
X118485000Y-105431250I0J218750D01*
G01*
X118485000Y-104993750D01*
G75*
G02*
X118703750Y-104775000I218750J0D01*
G01*
X119216250Y-104775000D01*
G75*
G02*
X119435000Y-104993750I0J-218750D01*
G01*
X119435000Y-105431250D01*
G75*
G02*
X119216250Y-105650000I-218750J0D01*
G01*
G37*
G36*
G01*
X119216250Y-107225000D02*
X118703750Y-107225000D01*
G75*
G02*
X118485000Y-107006250I0J218750D01*
G01*
X118485000Y-106568750D01*
G75*
G02*
X118703750Y-106350000I218750J0D01*
G01*
X119216250Y-106350000D01*
G75*
G02*
X119435000Y-106568750I0J-218750D01*
G01*
X119435000Y-107006250D01*
G75*
G02*
X119216250Y-107225000I-218750J0D01*
G01*
G37*
G36*
G01*
X140016250Y-75400000D02*
X139503750Y-75400000D01*
G75*
G02*
X139285000Y-75181250I0J218750D01*
G01*
X139285000Y-74743750D01*
G75*
G02*
X139503750Y-74525000I218750J0D01*
G01*
X140016250Y-74525000D01*
G75*
G02*
X140235000Y-74743750I0J-218750D01*
G01*
X140235000Y-75181250D01*
G75*
G02*
X140016250Y-75400000I-218750J0D01*
G01*
G37*
G36*
G01*
X140016250Y-76975000D02*
X139503750Y-76975000D01*
G75*
G02*
X139285000Y-76756250I0J218750D01*
G01*
X139285000Y-76318750D01*
G75*
G02*
X139503750Y-76100000I218750J0D01*
G01*
X140016250Y-76100000D01*
G75*
G02*
X140235000Y-76318750I0J-218750D01*
G01*
X140235000Y-76756250D01*
G75*
G02*
X140016250Y-76975000I-218750J0D01*
G01*
G37*
G36*
G01*
X130020000Y-84586250D02*
X130020000Y-84073750D01*
G75*
G02*
X130238750Y-83855000I218750J0D01*
G01*
X130676250Y-83855000D01*
G75*
G02*
X130895000Y-84073750I0J-218750D01*
G01*
X130895000Y-84586250D01*
G75*
G02*
X130676250Y-84805000I-218750J0D01*
G01*
X130238750Y-84805000D01*
G75*
G02*
X130020000Y-84586250I0J218750D01*
G01*
G37*
G36*
G01*
X128445000Y-84586250D02*
X128445000Y-84073750D01*
G75*
G02*
X128663750Y-83855000I218750J0D01*
G01*
X129101250Y-83855000D01*
G75*
G02*
X129320000Y-84073750I0J-218750D01*
G01*
X129320000Y-84586250D01*
G75*
G02*
X129101250Y-84805000I-218750J0D01*
G01*
X128663750Y-84805000D01*
G75*
G02*
X128445000Y-84586250I0J218750D01*
G01*
G37*
G36*
G01*
X130020000Y-82496250D02*
X130020000Y-81983750D01*
G75*
G02*
X130238750Y-81765000I218750J0D01*
G01*
X130676250Y-81765000D01*
G75*
G02*
X130895000Y-81983750I0J-218750D01*
G01*
X130895000Y-82496250D01*
G75*
G02*
X130676250Y-82715000I-218750J0D01*
G01*
X130238750Y-82715000D01*
G75*
G02*
X130020000Y-82496250I0J218750D01*
G01*
G37*
G36*
G01*
X128445000Y-82496250D02*
X128445000Y-81983750D01*
G75*
G02*
X128663750Y-81765000I218750J0D01*
G01*
X129101250Y-81765000D01*
G75*
G02*
X129320000Y-81983750I0J-218750D01*
G01*
X129320000Y-82496250D01*
G75*
G02*
X129101250Y-82715000I-218750J0D01*
G01*
X128663750Y-82715000D01*
G75*
G02*
X128445000Y-82496250I0J218750D01*
G01*
G37*
G36*
G01*
X113250000Y-79256250D02*
X113250000Y-78743750D01*
G75*
G02*
X113468750Y-78525000I218750J0D01*
G01*
X113906250Y-78525000D01*
G75*
G02*
X114125000Y-78743750I0J-218750D01*
G01*
X114125000Y-79256250D01*
G75*
G02*
X113906250Y-79475000I-218750J0D01*
G01*
X113468750Y-79475000D01*
G75*
G02*
X113250000Y-79256250I0J218750D01*
G01*
G37*
G36*
G01*
X111675000Y-79256250D02*
X111675000Y-78743750D01*
G75*
G02*
X111893750Y-78525000I218750J0D01*
G01*
X112331250Y-78525000D01*
G75*
G02*
X112550000Y-78743750I0J-218750D01*
G01*
X112550000Y-79256250D01*
G75*
G02*
X112331250Y-79475000I-218750J0D01*
G01*
X111893750Y-79475000D01*
G75*
G02*
X111675000Y-79256250I0J218750D01*
G01*
G37*
G36*
G01*
X115275000Y-79256250D02*
X115275000Y-78743750D01*
G75*
G02*
X115493750Y-78525000I218750J0D01*
G01*
X115931250Y-78525000D01*
G75*
G02*
X116150000Y-78743750I0J-218750D01*
G01*
X116150000Y-79256250D01*
G75*
G02*
X115931250Y-79475000I-218750J0D01*
G01*
X115493750Y-79475000D01*
G75*
G02*
X115275000Y-79256250I0J218750D01*
G01*
G37*
G36*
G01*
X116850000Y-79256250D02*
X116850000Y-78743750D01*
G75*
G02*
X117068750Y-78525000I218750J0D01*
G01*
X117506250Y-78525000D01*
G75*
G02*
X117725000Y-78743750I0J-218750D01*
G01*
X117725000Y-79256250D01*
G75*
G02*
X117506250Y-79475000I-218750J0D01*
G01*
X117068750Y-79475000D01*
G75*
G02*
X116850000Y-79256250I0J218750D01*
G01*
G37*
G36*
G01*
X175900000Y-98836250D02*
X175900000Y-98323750D01*
G75*
G02*
X176118750Y-98105000I218750J0D01*
G01*
X176556250Y-98105000D01*
G75*
G02*
X176775000Y-98323750I0J-218750D01*
G01*
X176775000Y-98836250D01*
G75*
G02*
X176556250Y-99055000I-218750J0D01*
G01*
X176118750Y-99055000D01*
G75*
G02*
X175900000Y-98836250I0J218750D01*
G01*
G37*
G36*
G01*
X174325000Y-98836250D02*
X174325000Y-98323750D01*
G75*
G02*
X174543750Y-98105000I218750J0D01*
G01*
X174981250Y-98105000D01*
G75*
G02*
X175200000Y-98323750I0J-218750D01*
G01*
X175200000Y-98836250D01*
G75*
G02*
X174981250Y-99055000I-218750J0D01*
G01*
X174543750Y-99055000D01*
G75*
G02*
X174325000Y-98836250I0J218750D01*
G01*
G37*
G36*
G01*
X180060000Y-98836250D02*
X180060000Y-98323750D01*
G75*
G02*
X180278750Y-98105000I218750J0D01*
G01*
X180716250Y-98105000D01*
G75*
G02*
X180935000Y-98323750I0J-218750D01*
G01*
X180935000Y-98836250D01*
G75*
G02*
X180716250Y-99055000I-218750J0D01*
G01*
X180278750Y-99055000D01*
G75*
G02*
X180060000Y-98836250I0J218750D01*
G01*
G37*
G36*
G01*
X178485000Y-98836250D02*
X178485000Y-98323750D01*
G75*
G02*
X178703750Y-98105000I218750J0D01*
G01*
X179141250Y-98105000D01*
G75*
G02*
X179360000Y-98323750I0J-218750D01*
G01*
X179360000Y-98836250D01*
G75*
G02*
X179141250Y-99055000I-218750J0D01*
G01*
X178703750Y-99055000D01*
G75*
G02*
X178485000Y-98836250I0J218750D01*
G01*
G37*
G36*
G01*
X180060000Y-96216250D02*
X180060000Y-95703750D01*
G75*
G02*
X180278750Y-95485000I218750J0D01*
G01*
X180716250Y-95485000D01*
G75*
G02*
X180935000Y-95703750I0J-218750D01*
G01*
X180935000Y-96216250D01*
G75*
G02*
X180716250Y-96435000I-218750J0D01*
G01*
X180278750Y-96435000D01*
G75*
G02*
X180060000Y-96216250I0J218750D01*
G01*
G37*
G36*
G01*
X178485000Y-96216250D02*
X178485000Y-95703750D01*
G75*
G02*
X178703750Y-95485000I218750J0D01*
G01*
X179141250Y-95485000D01*
G75*
G02*
X179360000Y-95703750I0J-218750D01*
G01*
X179360000Y-96216250D01*
G75*
G02*
X179141250Y-96435000I-218750J0D01*
G01*
X178703750Y-96435000D01*
G75*
G02*
X178485000Y-96216250I0J218750D01*
G01*
G37*
G36*
G01*
X175940000Y-96216250D02*
X175940000Y-95703750D01*
G75*
G02*
X176158750Y-95485000I218750J0D01*
G01*
X176596250Y-95485000D01*
G75*
G02*
X176815000Y-95703750I0J-218750D01*
G01*
X176815000Y-96216250D01*
G75*
G02*
X176596250Y-96435000I-218750J0D01*
G01*
X176158750Y-96435000D01*
G75*
G02*
X175940000Y-96216250I0J218750D01*
G01*
G37*
G36*
G01*
X174365000Y-96216250D02*
X174365000Y-95703750D01*
G75*
G02*
X174583750Y-95485000I218750J0D01*
G01*
X175021250Y-95485000D01*
G75*
G02*
X175240000Y-95703750I0J-218750D01*
G01*
X175240000Y-96216250D01*
G75*
G02*
X175021250Y-96435000I-218750J0D01*
G01*
X174583750Y-96435000D01*
G75*
G02*
X174365000Y-96216250I0J218750D01*
G01*
G37*
G36*
G01*
X131606250Y-66130000D02*
X131093750Y-66130000D01*
G75*
G02*
X130875000Y-65911250I0J218750D01*
G01*
X130875000Y-65473750D01*
G75*
G02*
X131093750Y-65255000I218750J0D01*
G01*
X131606250Y-65255000D01*
G75*
G02*
X131825000Y-65473750I0J-218750D01*
G01*
X131825000Y-65911250D01*
G75*
G02*
X131606250Y-66130000I-218750J0D01*
G01*
G37*
G36*
G01*
X131606250Y-67705000D02*
X131093750Y-67705000D01*
G75*
G02*
X130875000Y-67486250I0J218750D01*
G01*
X130875000Y-67048750D01*
G75*
G02*
X131093750Y-66830000I218750J0D01*
G01*
X131606250Y-66830000D01*
G75*
G02*
X131825000Y-67048750I0J-218750D01*
G01*
X131825000Y-67486250D01*
G75*
G02*
X131606250Y-67705000I-218750J0D01*
G01*
G37*
G36*
G01*
X143286250Y-75420000D02*
X142773750Y-75420000D01*
G75*
G02*
X142555000Y-75201250I0J218750D01*
G01*
X142555000Y-74763750D01*
G75*
G02*
X142773750Y-74545000I218750J0D01*
G01*
X143286250Y-74545000D01*
G75*
G02*
X143505000Y-74763750I0J-218750D01*
G01*
X143505000Y-75201250D01*
G75*
G02*
X143286250Y-75420000I-218750J0D01*
G01*
G37*
G36*
G01*
X143286250Y-76995000D02*
X142773750Y-76995000D01*
G75*
G02*
X142555000Y-76776250I0J218750D01*
G01*
X142555000Y-76338750D01*
G75*
G02*
X142773750Y-76120000I218750J0D01*
G01*
X143286250Y-76120000D01*
G75*
G02*
X143505000Y-76338750I0J-218750D01*
G01*
X143505000Y-76776250D01*
G75*
G02*
X143286250Y-76995000I-218750J0D01*
G01*
G37*
G36*
G01*
X121550000Y-66736250D02*
X121550000Y-66223750D01*
G75*
G02*
X121768750Y-66005000I218750J0D01*
G01*
X122206250Y-66005000D01*
G75*
G02*
X122425000Y-66223750I0J-218750D01*
G01*
X122425000Y-66736250D01*
G75*
G02*
X122206250Y-66955000I-218750J0D01*
G01*
X121768750Y-66955000D01*
G75*
G02*
X121550000Y-66736250I0J218750D01*
G01*
G37*
G36*
G01*
X119975000Y-66736250D02*
X119975000Y-66223750D01*
G75*
G02*
X120193750Y-66005000I218750J0D01*
G01*
X120631250Y-66005000D01*
G75*
G02*
X120850000Y-66223750I0J-218750D01*
G01*
X120850000Y-66736250D01*
G75*
G02*
X120631250Y-66955000I-218750J0D01*
G01*
X120193750Y-66955000D01*
G75*
G02*
X119975000Y-66736250I0J218750D01*
G01*
G37*
G36*
G01*
X149300000Y-85396250D02*
X149300000Y-84883750D01*
G75*
G02*
X149518750Y-84665000I218750J0D01*
G01*
X149956250Y-84665000D01*
G75*
G02*
X150175000Y-84883750I0J-218750D01*
G01*
X150175000Y-85396250D01*
G75*
G02*
X149956250Y-85615000I-218750J0D01*
G01*
X149518750Y-85615000D01*
G75*
G02*
X149300000Y-85396250I0J218750D01*
G01*
G37*
G36*
G01*
X147725000Y-85396250D02*
X147725000Y-84883750D01*
G75*
G02*
X147943750Y-84665000I218750J0D01*
G01*
X148381250Y-84665000D01*
G75*
G02*
X148600000Y-84883750I0J-218750D01*
G01*
X148600000Y-85396250D01*
G75*
G02*
X148381250Y-85615000I-218750J0D01*
G01*
X147943750Y-85615000D01*
G75*
G02*
X147725000Y-85396250I0J218750D01*
G01*
G37*
G36*
G01*
X114016250Y-105650000D02*
X113503750Y-105650000D01*
G75*
G02*
X113285000Y-105431250I0J218750D01*
G01*
X113285000Y-104993750D01*
G75*
G02*
X113503750Y-104775000I218750J0D01*
G01*
X114016250Y-104775000D01*
G75*
G02*
X114235000Y-104993750I0J-218750D01*
G01*
X114235000Y-105431250D01*
G75*
G02*
X114016250Y-105650000I-218750J0D01*
G01*
G37*
G36*
G01*
X114016250Y-107225000D02*
X113503750Y-107225000D01*
G75*
G02*
X113285000Y-107006250I0J218750D01*
G01*
X113285000Y-106568750D01*
G75*
G02*
X113503750Y-106350000I218750J0D01*
G01*
X114016250Y-106350000D01*
G75*
G02*
X114235000Y-106568750I0J-218750D01*
G01*
X114235000Y-107006250D01*
G75*
G02*
X114016250Y-107225000I-218750J0D01*
G01*
G37*
G36*
G01*
X146466250Y-78990000D02*
X145953750Y-78990000D01*
G75*
G02*
X145735000Y-78771250I0J218750D01*
G01*
X145735000Y-78333750D01*
G75*
G02*
X145953750Y-78115000I218750J0D01*
G01*
X146466250Y-78115000D01*
G75*
G02*
X146685000Y-78333750I0J-218750D01*
G01*
X146685000Y-78771250D01*
G75*
G02*
X146466250Y-78990000I-218750J0D01*
G01*
G37*
G36*
G01*
X146466250Y-80565000D02*
X145953750Y-80565000D01*
G75*
G02*
X145735000Y-80346250I0J218750D01*
G01*
X145735000Y-79908750D01*
G75*
G02*
X145953750Y-79690000I218750J0D01*
G01*
X146466250Y-79690000D01*
G75*
G02*
X146685000Y-79908750I0J-218750D01*
G01*
X146685000Y-80346250D01*
G75*
G02*
X146466250Y-80565000I-218750J0D01*
G01*
G37*
G36*
G01*
X146466250Y-75420000D02*
X145953750Y-75420000D01*
G75*
G02*
X145735000Y-75201250I0J218750D01*
G01*
X145735000Y-74763750D01*
G75*
G02*
X145953750Y-74545000I218750J0D01*
G01*
X146466250Y-74545000D01*
G75*
G02*
X146685000Y-74763750I0J-218750D01*
G01*
X146685000Y-75201250D01*
G75*
G02*
X146466250Y-75420000I-218750J0D01*
G01*
G37*
G36*
G01*
X146466250Y-76995000D02*
X145953750Y-76995000D01*
G75*
G02*
X145735000Y-76776250I0J218750D01*
G01*
X145735000Y-76338750D01*
G75*
G02*
X145953750Y-76120000I218750J0D01*
G01*
X146466250Y-76120000D01*
G75*
G02*
X146685000Y-76338750I0J-218750D01*
G01*
X146685000Y-76776250D01*
G75*
G02*
X146466250Y-76995000I-218750J0D01*
G01*
G37*
G36*
G01*
X157570000Y-65606250D02*
X157570000Y-65093750D01*
G75*
G02*
X157788750Y-64875000I218750J0D01*
G01*
X158226250Y-64875000D01*
G75*
G02*
X158445000Y-65093750I0J-218750D01*
G01*
X158445000Y-65606250D01*
G75*
G02*
X158226250Y-65825000I-218750J0D01*
G01*
X157788750Y-65825000D01*
G75*
G02*
X157570000Y-65606250I0J218750D01*
G01*
G37*
G36*
G01*
X155995000Y-65606250D02*
X155995000Y-65093750D01*
G75*
G02*
X156213750Y-64875000I218750J0D01*
G01*
X156651250Y-64875000D01*
G75*
G02*
X156870000Y-65093750I0J-218750D01*
G01*
X156870000Y-65606250D01*
G75*
G02*
X156651250Y-65825000I-218750J0D01*
G01*
X156213750Y-65825000D01*
G75*
G02*
X155995000Y-65606250I0J218750D01*
G01*
G37*
G36*
G01*
X162580000Y-65606250D02*
X162580000Y-65093750D01*
G75*
G02*
X162798750Y-64875000I218750J0D01*
G01*
X163236250Y-64875000D01*
G75*
G02*
X163455000Y-65093750I0J-218750D01*
G01*
X163455000Y-65606250D01*
G75*
G02*
X163236250Y-65825000I-218750J0D01*
G01*
X162798750Y-65825000D01*
G75*
G02*
X162580000Y-65606250I0J218750D01*
G01*
G37*
G36*
G01*
X161005000Y-65606250D02*
X161005000Y-65093750D01*
G75*
G02*
X161223750Y-64875000I218750J0D01*
G01*
X161661250Y-64875000D01*
G75*
G02*
X161880000Y-65093750I0J-218750D01*
G01*
X161880000Y-65606250D01*
G75*
G02*
X161661250Y-65825000I-218750J0D01*
G01*
X161223750Y-65825000D01*
G75*
G02*
X161005000Y-65606250I0J218750D01*
G01*
G37*
G36*
G01*
X162416250Y-87910000D02*
X161903750Y-87910000D01*
G75*
G02*
X161685000Y-87691250I0J218750D01*
G01*
X161685000Y-87253750D01*
G75*
G02*
X161903750Y-87035000I218750J0D01*
G01*
X162416250Y-87035000D01*
G75*
G02*
X162635000Y-87253750I0J-218750D01*
G01*
X162635000Y-87691250D01*
G75*
G02*
X162416250Y-87910000I-218750J0D01*
G01*
G37*
G36*
G01*
X162416250Y-89485000D02*
X161903750Y-89485000D01*
G75*
G02*
X161685000Y-89266250I0J218750D01*
G01*
X161685000Y-88828750D01*
G75*
G02*
X161903750Y-88610000I218750J0D01*
G01*
X162416250Y-88610000D01*
G75*
G02*
X162635000Y-88828750I0J-218750D01*
G01*
X162635000Y-89266250D01*
G75*
G02*
X162416250Y-89485000I-218750J0D01*
G01*
G37*
G36*
G01*
X175940000Y-93596250D02*
X175940000Y-93083750D01*
G75*
G02*
X176158750Y-92865000I218750J0D01*
G01*
X176596250Y-92865000D01*
G75*
G02*
X176815000Y-93083750I0J-218750D01*
G01*
X176815000Y-93596250D01*
G75*
G02*
X176596250Y-93815000I-218750J0D01*
G01*
X176158750Y-93815000D01*
G75*
G02*
X175940000Y-93596250I0J218750D01*
G01*
G37*
G36*
G01*
X174365000Y-93596250D02*
X174365000Y-93083750D01*
G75*
G02*
X174583750Y-92865000I218750J0D01*
G01*
X175021250Y-92865000D01*
G75*
G02*
X175240000Y-93083750I0J-218750D01*
G01*
X175240000Y-93596250D01*
G75*
G02*
X175021250Y-93815000I-218750J0D01*
G01*
X174583750Y-93815000D01*
G75*
G02*
X174365000Y-93596250I0J218750D01*
G01*
G37*
G36*
G01*
X175900000Y-85396250D02*
X175900000Y-84883750D01*
G75*
G02*
X176118750Y-84665000I218750J0D01*
G01*
X176556250Y-84665000D01*
G75*
G02*
X176775000Y-84883750I0J-218750D01*
G01*
X176775000Y-85396250D01*
G75*
G02*
X176556250Y-85615000I-218750J0D01*
G01*
X176118750Y-85615000D01*
G75*
G02*
X175900000Y-85396250I0J218750D01*
G01*
G37*
G36*
G01*
X174325000Y-85396250D02*
X174325000Y-84883750D01*
G75*
G02*
X174543750Y-84665000I218750J0D01*
G01*
X174981250Y-84665000D01*
G75*
G02*
X175200000Y-84883750I0J-218750D01*
G01*
X175200000Y-85396250D01*
G75*
G02*
X174981250Y-85615000I-218750J0D01*
G01*
X174543750Y-85615000D01*
G75*
G02*
X174325000Y-85396250I0J218750D01*
G01*
G37*
G36*
G01*
X160920000Y-85396250D02*
X160920000Y-84883750D01*
G75*
G02*
X161138750Y-84665000I218750J0D01*
G01*
X161576250Y-84665000D01*
G75*
G02*
X161795000Y-84883750I0J-218750D01*
G01*
X161795000Y-85396250D01*
G75*
G02*
X161576250Y-85615000I-218750J0D01*
G01*
X161138750Y-85615000D01*
G75*
G02*
X160920000Y-85396250I0J218750D01*
G01*
G37*
G36*
G01*
X159345000Y-85396250D02*
X159345000Y-84883750D01*
G75*
G02*
X159563750Y-84665000I218750J0D01*
G01*
X160001250Y-84665000D01*
G75*
G02*
X160220000Y-84883750I0J-218750D01*
G01*
X160220000Y-85396250D01*
G75*
G02*
X160001250Y-85615000I-218750J0D01*
G01*
X159563750Y-85615000D01*
G75*
G02*
X159345000Y-85396250I0J218750D01*
G01*
G37*
G36*
G01*
X175890000Y-68006250D02*
X175890000Y-67493750D01*
G75*
G02*
X176108750Y-67275000I218750J0D01*
G01*
X176546250Y-67275000D01*
G75*
G02*
X176765000Y-67493750I0J-218750D01*
G01*
X176765000Y-68006250D01*
G75*
G02*
X176546250Y-68225000I-218750J0D01*
G01*
X176108750Y-68225000D01*
G75*
G02*
X175890000Y-68006250I0J218750D01*
G01*
G37*
G36*
G01*
X174315000Y-68006250D02*
X174315000Y-67493750D01*
G75*
G02*
X174533750Y-67275000I218750J0D01*
G01*
X174971250Y-67275000D01*
G75*
G02*
X175190000Y-67493750I0J-218750D01*
G01*
X175190000Y-68006250D01*
G75*
G02*
X174971250Y-68225000I-218750J0D01*
G01*
X174533750Y-68225000D01*
G75*
G02*
X174315000Y-68006250I0J218750D01*
G01*
G37*
G36*
G01*
X175940000Y-65606250D02*
X175940000Y-65093750D01*
G75*
G02*
X176158750Y-64875000I218750J0D01*
G01*
X176596250Y-64875000D01*
G75*
G02*
X176815000Y-65093750I0J-218750D01*
G01*
X176815000Y-65606250D01*
G75*
G02*
X176596250Y-65825000I-218750J0D01*
G01*
X176158750Y-65825000D01*
G75*
G02*
X175940000Y-65606250I0J218750D01*
G01*
G37*
G36*
G01*
X174365000Y-65606250D02*
X174365000Y-65093750D01*
G75*
G02*
X174583750Y-64875000I218750J0D01*
G01*
X175021250Y-64875000D01*
G75*
G02*
X175240000Y-65093750I0J-218750D01*
G01*
X175240000Y-65606250D01*
G75*
G02*
X175021250Y-65825000I-218750J0D01*
G01*
X174583750Y-65825000D01*
G75*
G02*
X174365000Y-65606250I0J218750D01*
G01*
G37*
G36*
G01*
X149306250Y-70290000D02*
X148793750Y-70290000D01*
G75*
G02*
X148575000Y-70071250I0J218750D01*
G01*
X148575000Y-69633750D01*
G75*
G02*
X148793750Y-69415000I218750J0D01*
G01*
X149306250Y-69415000D01*
G75*
G02*
X149525000Y-69633750I0J-218750D01*
G01*
X149525000Y-70071250D01*
G75*
G02*
X149306250Y-70290000I-218750J0D01*
G01*
G37*
G36*
G01*
X149306250Y-71865000D02*
X148793750Y-71865000D01*
G75*
G02*
X148575000Y-71646250I0J218750D01*
G01*
X148575000Y-71208750D01*
G75*
G02*
X148793750Y-70990000I218750J0D01*
G01*
X149306250Y-70990000D01*
G75*
G02*
X149525000Y-71208750I0J-218750D01*
G01*
X149525000Y-71646250D01*
G75*
G02*
X149306250Y-71865000I-218750J0D01*
G01*
G37*
G36*
G01*
X149330000Y-96676250D02*
X149330000Y-96163750D01*
G75*
G02*
X149548750Y-95945000I218750J0D01*
G01*
X149986250Y-95945000D01*
G75*
G02*
X150205000Y-96163750I0J-218750D01*
G01*
X150205000Y-96676250D01*
G75*
G02*
X149986250Y-96895000I-218750J0D01*
G01*
X149548750Y-96895000D01*
G75*
G02*
X149330000Y-96676250I0J218750D01*
G01*
G37*
G36*
G01*
X147755000Y-96676250D02*
X147755000Y-96163750D01*
G75*
G02*
X147973750Y-95945000I218750J0D01*
G01*
X148411250Y-95945000D01*
G75*
G02*
X148630000Y-96163750I0J-218750D01*
G01*
X148630000Y-96676250D01*
G75*
G02*
X148411250Y-96895000I-218750J0D01*
G01*
X147973750Y-96895000D01*
G75*
G02*
X147755000Y-96676250I0J218750D01*
G01*
G37*
G36*
G01*
X149310000Y-101876250D02*
X149310000Y-101363750D01*
G75*
G02*
X149528750Y-101145000I218750J0D01*
G01*
X149966250Y-101145000D01*
G75*
G02*
X150185000Y-101363750I0J-218750D01*
G01*
X150185000Y-101876250D01*
G75*
G02*
X149966250Y-102095000I-218750J0D01*
G01*
X149528750Y-102095000D01*
G75*
G02*
X149310000Y-101876250I0J218750D01*
G01*
G37*
G36*
G01*
X147735000Y-101876250D02*
X147735000Y-101363750D01*
G75*
G02*
X147953750Y-101145000I218750J0D01*
G01*
X148391250Y-101145000D01*
G75*
G02*
X148610000Y-101363750I0J-218750D01*
G01*
X148610000Y-101876250D01*
G75*
G02*
X148391250Y-102095000I-218750J0D01*
G01*
X147953750Y-102095000D01*
G75*
G02*
X147735000Y-101876250I0J218750D01*
G01*
G37*
G36*
G01*
X149330000Y-99276250D02*
X149330000Y-98763750D01*
G75*
G02*
X149548750Y-98545000I218750J0D01*
G01*
X149986250Y-98545000D01*
G75*
G02*
X150205000Y-98763750I0J-218750D01*
G01*
X150205000Y-99276250D01*
G75*
G02*
X149986250Y-99495000I-218750J0D01*
G01*
X149548750Y-99495000D01*
G75*
G02*
X149330000Y-99276250I0J218750D01*
G01*
G37*
G36*
G01*
X147755000Y-99276250D02*
X147755000Y-98763750D01*
G75*
G02*
X147973750Y-98545000I218750J0D01*
G01*
X148411250Y-98545000D01*
G75*
G02*
X148630000Y-98763750I0J-218750D01*
G01*
X148630000Y-99276250D01*
G75*
G02*
X148411250Y-99495000I-218750J0D01*
G01*
X147973750Y-99495000D01*
G75*
G02*
X147755000Y-99276250I0J218750D01*
G01*
G37*
G36*
G01*
X146456250Y-82110000D02*
X145943750Y-82110000D01*
G75*
G02*
X145725000Y-81891250I0J218750D01*
G01*
X145725000Y-81453750D01*
G75*
G02*
X145943750Y-81235000I218750J0D01*
G01*
X146456250Y-81235000D01*
G75*
G02*
X146675000Y-81453750I0J-218750D01*
G01*
X146675000Y-81891250D01*
G75*
G02*
X146456250Y-82110000I-218750J0D01*
G01*
G37*
G36*
G01*
X146456250Y-83685000D02*
X145943750Y-83685000D01*
G75*
G02*
X145725000Y-83466250I0J218750D01*
G01*
X145725000Y-83028750D01*
G75*
G02*
X145943750Y-82810000I218750J0D01*
G01*
X146456250Y-82810000D01*
G75*
G02*
X146675000Y-83028750I0J-218750D01*
G01*
X146675000Y-83466250D01*
G75*
G02*
X146456250Y-83685000I-218750J0D01*
G01*
G37*
G36*
G01*
X149206250Y-82110000D02*
X148693750Y-82110000D01*
G75*
G02*
X148475000Y-81891250I0J218750D01*
G01*
X148475000Y-81453750D01*
G75*
G02*
X148693750Y-81235000I218750J0D01*
G01*
X149206250Y-81235000D01*
G75*
G02*
X149425000Y-81453750I0J-218750D01*
G01*
X149425000Y-81891250D01*
G75*
G02*
X149206250Y-82110000I-218750J0D01*
G01*
G37*
G36*
G01*
X149206250Y-83685000D02*
X148693750Y-83685000D01*
G75*
G02*
X148475000Y-83466250I0J218750D01*
G01*
X148475000Y-83028750D01*
G75*
G02*
X148693750Y-82810000I218750J0D01*
G01*
X149206250Y-82810000D01*
G75*
G02*
X149425000Y-83028750I0J-218750D01*
G01*
X149425000Y-83466250D01*
G75*
G02*
X149206250Y-83685000I-218750J0D01*
G01*
G37*
G36*
G01*
X153140000Y-85396250D02*
X153140000Y-84883750D01*
G75*
G02*
X153358750Y-84665000I218750J0D01*
G01*
X153796250Y-84665000D01*
G75*
G02*
X154015000Y-84883750I0J-218750D01*
G01*
X154015000Y-85396250D01*
G75*
G02*
X153796250Y-85615000I-218750J0D01*
G01*
X153358750Y-85615000D01*
G75*
G02*
X153140000Y-85396250I0J218750D01*
G01*
G37*
G36*
G01*
X151565000Y-85396250D02*
X151565000Y-84883750D01*
G75*
G02*
X151783750Y-84665000I218750J0D01*
G01*
X152221250Y-84665000D01*
G75*
G02*
X152440000Y-84883750I0J-218750D01*
G01*
X152440000Y-85396250D01*
G75*
G02*
X152221250Y-85615000I-218750J0D01*
G01*
X151783750Y-85615000D01*
G75*
G02*
X151565000Y-85396250I0J218750D01*
G01*
G37*
G36*
G01*
X156216250Y-92420000D02*
X155703750Y-92420000D01*
G75*
G02*
X155485000Y-92201250I0J218750D01*
G01*
X155485000Y-91763750D01*
G75*
G02*
X155703750Y-91545000I218750J0D01*
G01*
X156216250Y-91545000D01*
G75*
G02*
X156435000Y-91763750I0J-218750D01*
G01*
X156435000Y-92201250D01*
G75*
G02*
X156216250Y-92420000I-218750J0D01*
G01*
G37*
G36*
G01*
X156216250Y-93995000D02*
X155703750Y-93995000D01*
G75*
G02*
X155485000Y-93776250I0J218750D01*
G01*
X155485000Y-93338750D01*
G75*
G02*
X155703750Y-93120000I218750J0D01*
G01*
X156216250Y-93120000D01*
G75*
G02*
X156435000Y-93338750I0J-218750D01*
G01*
X156435000Y-93776250D01*
G75*
G02*
X156216250Y-93995000I-218750J0D01*
G01*
G37*
G36*
G01*
X157570000Y-74546250D02*
X157570000Y-74033750D01*
G75*
G02*
X157788750Y-73815000I218750J0D01*
G01*
X158226250Y-73815000D01*
G75*
G02*
X158445000Y-74033750I0J-218750D01*
G01*
X158445000Y-74546250D01*
G75*
G02*
X158226250Y-74765000I-218750J0D01*
G01*
X157788750Y-74765000D01*
G75*
G02*
X157570000Y-74546250I0J218750D01*
G01*
G37*
G36*
G01*
X155995000Y-74546250D02*
X155995000Y-74033750D01*
G75*
G02*
X156213750Y-73815000I218750J0D01*
G01*
X156651250Y-73815000D01*
G75*
G02*
X156870000Y-74033750I0J-218750D01*
G01*
X156870000Y-74546250D01*
G75*
G02*
X156651250Y-74765000I-218750J0D01*
G01*
X156213750Y-74765000D01*
G75*
G02*
X155995000Y-74546250I0J218750D01*
G01*
G37*
G36*
G01*
X175900000Y-82796250D02*
X175900000Y-82283750D01*
G75*
G02*
X176118750Y-82065000I218750J0D01*
G01*
X176556250Y-82065000D01*
G75*
G02*
X176775000Y-82283750I0J-218750D01*
G01*
X176775000Y-82796250D01*
G75*
G02*
X176556250Y-83015000I-218750J0D01*
G01*
X176118750Y-83015000D01*
G75*
G02*
X175900000Y-82796250I0J218750D01*
G01*
G37*
G36*
G01*
X174325000Y-82796250D02*
X174325000Y-82283750D01*
G75*
G02*
X174543750Y-82065000I218750J0D01*
G01*
X174981250Y-82065000D01*
G75*
G02*
X175200000Y-82283750I0J-218750D01*
G01*
X175200000Y-82796250D01*
G75*
G02*
X174981250Y-83015000I-218750J0D01*
G01*
X174543750Y-83015000D01*
G75*
G02*
X174325000Y-82796250I0J218750D01*
G01*
G37*
G36*
G01*
X162600000Y-74546250D02*
X162600000Y-74033750D01*
G75*
G02*
X162818750Y-73815000I218750J0D01*
G01*
X163256250Y-73815000D01*
G75*
G02*
X163475000Y-74033750I0J-218750D01*
G01*
X163475000Y-74546250D01*
G75*
G02*
X163256250Y-74765000I-218750J0D01*
G01*
X162818750Y-74765000D01*
G75*
G02*
X162600000Y-74546250I0J218750D01*
G01*
G37*
G36*
G01*
X161025000Y-74546250D02*
X161025000Y-74033750D01*
G75*
G02*
X161243750Y-73815000I218750J0D01*
G01*
X161681250Y-73815000D01*
G75*
G02*
X161900000Y-74033750I0J-218750D01*
G01*
X161900000Y-74546250D01*
G75*
G02*
X161681250Y-74765000I-218750J0D01*
G01*
X161243750Y-74765000D01*
G75*
G02*
X161025000Y-74546250I0J218750D01*
G01*
G37*
G36*
G01*
X149306250Y-75420000D02*
X148793750Y-75420000D01*
G75*
G02*
X148575000Y-75201250I0J218750D01*
G01*
X148575000Y-74763750D01*
G75*
G02*
X148793750Y-74545000I218750J0D01*
G01*
X149306250Y-74545000D01*
G75*
G02*
X149525000Y-74763750I0J-218750D01*
G01*
X149525000Y-75201250D01*
G75*
G02*
X149306250Y-75420000I-218750J0D01*
G01*
G37*
G36*
G01*
X149306250Y-76995000D02*
X148793750Y-76995000D01*
G75*
G02*
X148575000Y-76776250I0J218750D01*
G01*
X148575000Y-76338750D01*
G75*
G02*
X148793750Y-76120000I218750J0D01*
G01*
X149306250Y-76120000D01*
G75*
G02*
X149525000Y-76338750I0J-218750D01*
G01*
X149525000Y-76776250D01*
G75*
G02*
X149306250Y-76995000I-218750J0D01*
G01*
G37*
G36*
G01*
X166450000Y-76986250D02*
X166450000Y-76473750D01*
G75*
G02*
X166668750Y-76255000I218750J0D01*
G01*
X167106250Y-76255000D01*
G75*
G02*
X167325000Y-76473750I0J-218750D01*
G01*
X167325000Y-76986250D01*
G75*
G02*
X167106250Y-77205000I-218750J0D01*
G01*
X166668750Y-77205000D01*
G75*
G02*
X166450000Y-76986250I0J218750D01*
G01*
G37*
G36*
G01*
X164875000Y-76986250D02*
X164875000Y-76473750D01*
G75*
G02*
X165093750Y-76255000I218750J0D01*
G01*
X165531250Y-76255000D01*
G75*
G02*
X165750000Y-76473750I0J-218750D01*
G01*
X165750000Y-76986250D01*
G75*
G02*
X165531250Y-77205000I-218750J0D01*
G01*
X165093750Y-77205000D01*
G75*
G02*
X164875000Y-76986250I0J218750D01*
G01*
G37*
G36*
G01*
X129616250Y-105650000D02*
X129103750Y-105650000D01*
G75*
G02*
X128885000Y-105431250I0J218750D01*
G01*
X128885000Y-104993750D01*
G75*
G02*
X129103750Y-104775000I218750J0D01*
G01*
X129616250Y-104775000D01*
G75*
G02*
X129835000Y-104993750I0J-218750D01*
G01*
X129835000Y-105431250D01*
G75*
G02*
X129616250Y-105650000I-218750J0D01*
G01*
G37*
G36*
G01*
X129616250Y-107225000D02*
X129103750Y-107225000D01*
G75*
G02*
X128885000Y-107006250I0J218750D01*
G01*
X128885000Y-106568750D01*
G75*
G02*
X129103750Y-106350000I218750J0D01*
G01*
X129616250Y-106350000D01*
G75*
G02*
X129835000Y-106568750I0J-218750D01*
G01*
X129835000Y-107006250D01*
G75*
G02*
X129616250Y-107225000I-218750J0D01*
G01*
G37*
G36*
G01*
X108816250Y-101610000D02*
X108303750Y-101610000D01*
G75*
G02*
X108085000Y-101391250I0J218750D01*
G01*
X108085000Y-100953750D01*
G75*
G02*
X108303750Y-100735000I218750J0D01*
G01*
X108816250Y-100735000D01*
G75*
G02*
X109035000Y-100953750I0J-218750D01*
G01*
X109035000Y-101391250D01*
G75*
G02*
X108816250Y-101610000I-218750J0D01*
G01*
G37*
G36*
G01*
X108816250Y-103185000D02*
X108303750Y-103185000D01*
G75*
G02*
X108085000Y-102966250I0J218750D01*
G01*
X108085000Y-102528750D01*
G75*
G02*
X108303750Y-102310000I218750J0D01*
G01*
X108816250Y-102310000D01*
G75*
G02*
X109035000Y-102528750I0J-218750D01*
G01*
X109035000Y-102966250D01*
G75*
G02*
X108816250Y-103185000I-218750J0D01*
G01*
G37*
G36*
G01*
X108816250Y-105650000D02*
X108303750Y-105650000D01*
G75*
G02*
X108085000Y-105431250I0J218750D01*
G01*
X108085000Y-104993750D01*
G75*
G02*
X108303750Y-104775000I218750J0D01*
G01*
X108816250Y-104775000D01*
G75*
G02*
X109035000Y-104993750I0J-218750D01*
G01*
X109035000Y-105431250D01*
G75*
G02*
X108816250Y-105650000I-218750J0D01*
G01*
G37*
G36*
G01*
X108816250Y-107225000D02*
X108303750Y-107225000D01*
G75*
G02*
X108085000Y-107006250I0J218750D01*
G01*
X108085000Y-106568750D01*
G75*
G02*
X108303750Y-106350000I218750J0D01*
G01*
X108816250Y-106350000D01*
G75*
G02*
X109035000Y-106568750I0J-218750D01*
G01*
X109035000Y-107006250D01*
G75*
G02*
X108816250Y-107225000I-218750J0D01*
G01*
G37*
G36*
G01*
X124416250Y-105650000D02*
X123903750Y-105650000D01*
G75*
G02*
X123685000Y-105431250I0J218750D01*
G01*
X123685000Y-104993750D01*
G75*
G02*
X123903750Y-104775000I218750J0D01*
G01*
X124416250Y-104775000D01*
G75*
G02*
X124635000Y-104993750I0J-218750D01*
G01*
X124635000Y-105431250D01*
G75*
G02*
X124416250Y-105650000I-218750J0D01*
G01*
G37*
G36*
G01*
X124416250Y-107225000D02*
X123903750Y-107225000D01*
G75*
G02*
X123685000Y-107006250I0J218750D01*
G01*
X123685000Y-106568750D01*
G75*
G02*
X123903750Y-106350000I218750J0D01*
G01*
X124416250Y-106350000D01*
G75*
G02*
X124635000Y-106568750I0J-218750D01*
G01*
X124635000Y-107006250D01*
G75*
G02*
X124416250Y-107225000I-218750J0D01*
G01*
G37*
G36*
G01*
X149276250Y-78990000D02*
X148763750Y-78990000D01*
G75*
G02*
X148545000Y-78771250I0J218750D01*
G01*
X148545000Y-78333750D01*
G75*
G02*
X148763750Y-78115000I218750J0D01*
G01*
X149276250Y-78115000D01*
G75*
G02*
X149495000Y-78333750I0J-218750D01*
G01*
X149495000Y-78771250D01*
G75*
G02*
X149276250Y-78990000I-218750J0D01*
G01*
G37*
G36*
G01*
X149276250Y-80565000D02*
X148763750Y-80565000D01*
G75*
G02*
X148545000Y-80346250I0J218750D01*
G01*
X148545000Y-79908750D01*
G75*
G02*
X148763750Y-79690000I218750J0D01*
G01*
X149276250Y-79690000D01*
G75*
G02*
X149495000Y-79908750I0J-218750D01*
G01*
X149495000Y-80346250D01*
G75*
G02*
X149276250Y-80565000I-218750J0D01*
G01*
G37*
G36*
G01*
X161686250Y-81330000D02*
X161173750Y-81330000D01*
G75*
G02*
X160955000Y-81111250I0J218750D01*
G01*
X160955000Y-80673750D01*
G75*
G02*
X161173750Y-80455000I218750J0D01*
G01*
X161686250Y-80455000D01*
G75*
G02*
X161905000Y-80673750I0J-218750D01*
G01*
X161905000Y-81111250D01*
G75*
G02*
X161686250Y-81330000I-218750J0D01*
G01*
G37*
G36*
G01*
X161686250Y-82905000D02*
X161173750Y-82905000D01*
G75*
G02*
X160955000Y-82686250I0J218750D01*
G01*
X160955000Y-82248750D01*
G75*
G02*
X161173750Y-82030000I218750J0D01*
G01*
X161686250Y-82030000D01*
G75*
G02*
X161905000Y-82248750I0J-218750D01*
G01*
X161905000Y-82686250D01*
G75*
G02*
X161686250Y-82905000I-218750J0D01*
G01*
G37*
G36*
G01*
X164186250Y-81330000D02*
X163673750Y-81330000D01*
G75*
G02*
X163455000Y-81111250I0J218750D01*
G01*
X163455000Y-80673750D01*
G75*
G02*
X163673750Y-80455000I218750J0D01*
G01*
X164186250Y-80455000D01*
G75*
G02*
X164405000Y-80673750I0J-218750D01*
G01*
X164405000Y-81111250D01*
G75*
G02*
X164186250Y-81330000I-218750J0D01*
G01*
G37*
G36*
G01*
X164186250Y-82905000D02*
X163673750Y-82905000D01*
G75*
G02*
X163455000Y-82686250I0J218750D01*
G01*
X163455000Y-82248750D01*
G75*
G02*
X163673750Y-82030000I218750J0D01*
G01*
X164186250Y-82030000D01*
G75*
G02*
X164405000Y-82248750I0J-218750D01*
G01*
X164405000Y-82686250D01*
G75*
G02*
X164186250Y-82905000I-218750J0D01*
G01*
G37*
G36*
G01*
X149360000Y-94076250D02*
X149360000Y-93563750D01*
G75*
G02*
X149578750Y-93345000I218750J0D01*
G01*
X150016250Y-93345000D01*
G75*
G02*
X150235000Y-93563750I0J-218750D01*
G01*
X150235000Y-94076250D01*
G75*
G02*
X150016250Y-94295000I-218750J0D01*
G01*
X149578750Y-94295000D01*
G75*
G02*
X149360000Y-94076250I0J218750D01*
G01*
G37*
G36*
G01*
X147785000Y-94076250D02*
X147785000Y-93563750D01*
G75*
G02*
X148003750Y-93345000I218750J0D01*
G01*
X148441250Y-93345000D01*
G75*
G02*
X148660000Y-93563750I0J-218750D01*
G01*
X148660000Y-94076250D01*
G75*
G02*
X148441250Y-94295000I-218750J0D01*
G01*
X148003750Y-94295000D01*
G75*
G02*
X147785000Y-94076250I0J218750D01*
G01*
G37*
G36*
G01*
X96396250Y-66970000D02*
X95883750Y-66970000D01*
G75*
G02*
X95665000Y-66751250I0J218750D01*
G01*
X95665000Y-66313750D01*
G75*
G02*
X95883750Y-66095000I218750J0D01*
G01*
X96396250Y-66095000D01*
G75*
G02*
X96615000Y-66313750I0J-218750D01*
G01*
X96615000Y-66751250D01*
G75*
G02*
X96396250Y-66970000I-218750J0D01*
G01*
G37*
G36*
G01*
X96396250Y-68545000D02*
X95883750Y-68545000D01*
G75*
G02*
X95665000Y-68326250I0J218750D01*
G01*
X95665000Y-67888750D01*
G75*
G02*
X95883750Y-67670000I218750J0D01*
G01*
X96396250Y-67670000D01*
G75*
G02*
X96615000Y-67888750I0J-218750D01*
G01*
X96615000Y-68326250D01*
G75*
G02*
X96396250Y-68545000I-218750J0D01*
G01*
G37*
G36*
G01*
X113250000Y-87296250D02*
X113250000Y-86783750D01*
G75*
G02*
X113468750Y-86565000I218750J0D01*
G01*
X113906250Y-86565000D01*
G75*
G02*
X114125000Y-86783750I0J-218750D01*
G01*
X114125000Y-87296250D01*
G75*
G02*
X113906250Y-87515000I-218750J0D01*
G01*
X113468750Y-87515000D01*
G75*
G02*
X113250000Y-87296250I0J218750D01*
G01*
G37*
G36*
G01*
X111675000Y-87296250D02*
X111675000Y-86783750D01*
G75*
G02*
X111893750Y-86565000I218750J0D01*
G01*
X112331250Y-86565000D01*
G75*
G02*
X112550000Y-86783750I0J-218750D01*
G01*
X112550000Y-87296250D01*
G75*
G02*
X112331250Y-87515000I-218750J0D01*
G01*
X111893750Y-87515000D01*
G75*
G02*
X111675000Y-87296250I0J218750D01*
G01*
G37*
G36*
G01*
X113250000Y-89896250D02*
X113250000Y-89383750D01*
G75*
G02*
X113468750Y-89165000I218750J0D01*
G01*
X113906250Y-89165000D01*
G75*
G02*
X114125000Y-89383750I0J-218750D01*
G01*
X114125000Y-89896250D01*
G75*
G02*
X113906250Y-90115000I-218750J0D01*
G01*
X113468750Y-90115000D01*
G75*
G02*
X113250000Y-89896250I0J218750D01*
G01*
G37*
G36*
G01*
X111675000Y-89896250D02*
X111675000Y-89383750D01*
G75*
G02*
X111893750Y-89165000I218750J0D01*
G01*
X112331250Y-89165000D01*
G75*
G02*
X112550000Y-89383750I0J-218750D01*
G01*
X112550000Y-89896250D01*
G75*
G02*
X112331250Y-90115000I-218750J0D01*
G01*
X111893750Y-90115000D01*
G75*
G02*
X111675000Y-89896250I0J218750D01*
G01*
G37*
G36*
G01*
X117700000Y-87296250D02*
X117700000Y-86783750D01*
G75*
G02*
X117918750Y-86565000I218750J0D01*
G01*
X118356250Y-86565000D01*
G75*
G02*
X118575000Y-86783750I0J-218750D01*
G01*
X118575000Y-87296250D01*
G75*
G02*
X118356250Y-87515000I-218750J0D01*
G01*
X117918750Y-87515000D01*
G75*
G02*
X117700000Y-87296250I0J218750D01*
G01*
G37*
G36*
G01*
X116125000Y-87296250D02*
X116125000Y-86783750D01*
G75*
G02*
X116343750Y-86565000I218750J0D01*
G01*
X116781250Y-86565000D01*
G75*
G02*
X117000000Y-86783750I0J-218750D01*
G01*
X117000000Y-87296250D01*
G75*
G02*
X116781250Y-87515000I-218750J0D01*
G01*
X116343750Y-87515000D01*
G75*
G02*
X116125000Y-87296250I0J218750D01*
G01*
G37*
G36*
G01*
X117700000Y-89896250D02*
X117700000Y-89383750D01*
G75*
G02*
X117918750Y-89165000I218750J0D01*
G01*
X118356250Y-89165000D01*
G75*
G02*
X118575000Y-89383750I0J-218750D01*
G01*
X118575000Y-89896250D01*
G75*
G02*
X118356250Y-90115000I-218750J0D01*
G01*
X117918750Y-90115000D01*
G75*
G02*
X117700000Y-89896250I0J218750D01*
G01*
G37*
G36*
G01*
X116125000Y-89896250D02*
X116125000Y-89383750D01*
G75*
G02*
X116343750Y-89165000I218750J0D01*
G01*
X116781250Y-89165000D01*
G75*
G02*
X117000000Y-89383750I0J-218750D01*
G01*
X117000000Y-89896250D01*
G75*
G02*
X116781250Y-90115000I-218750J0D01*
G01*
X116343750Y-90115000D01*
G75*
G02*
X116125000Y-89896250I0J218750D01*
G01*
G37*
G36*
G01*
X106216250Y-105650000D02*
X105703750Y-105650000D01*
G75*
G02*
X105485000Y-105431250I0J218750D01*
G01*
X105485000Y-104993750D01*
G75*
G02*
X105703750Y-104775000I218750J0D01*
G01*
X106216250Y-104775000D01*
G75*
G02*
X106435000Y-104993750I0J-218750D01*
G01*
X106435000Y-105431250D01*
G75*
G02*
X106216250Y-105650000I-218750J0D01*
G01*
G37*
G36*
G01*
X106216250Y-107225000D02*
X105703750Y-107225000D01*
G75*
G02*
X105485000Y-107006250I0J218750D01*
G01*
X105485000Y-106568750D01*
G75*
G02*
X105703750Y-106350000I218750J0D01*
G01*
X106216250Y-106350000D01*
G75*
G02*
X106435000Y-106568750I0J-218750D01*
G01*
X106435000Y-107006250D01*
G75*
G02*
X106216250Y-107225000I-218750J0D01*
G01*
G37*
G36*
G01*
X143326250Y-78990000D02*
X142813750Y-78990000D01*
G75*
G02*
X142595000Y-78771250I0J218750D01*
G01*
X142595000Y-78333750D01*
G75*
G02*
X142813750Y-78115000I218750J0D01*
G01*
X143326250Y-78115000D01*
G75*
G02*
X143545000Y-78333750I0J-218750D01*
G01*
X143545000Y-78771250D01*
G75*
G02*
X143326250Y-78990000I-218750J0D01*
G01*
G37*
G36*
G01*
X143326250Y-80565000D02*
X142813750Y-80565000D01*
G75*
G02*
X142595000Y-80346250I0J218750D01*
G01*
X142595000Y-79908750D01*
G75*
G02*
X142813750Y-79690000I218750J0D01*
G01*
X143326250Y-79690000D01*
G75*
G02*
X143545000Y-79908750I0J-218750D01*
G01*
X143545000Y-80346250D01*
G75*
G02*
X143326250Y-80565000I-218750J0D01*
G01*
G37*
G36*
G01*
X104576250Y-69290000D02*
X104063750Y-69290000D01*
G75*
G02*
X103845000Y-69071250I0J218750D01*
G01*
X103845000Y-68633750D01*
G75*
G02*
X104063750Y-68415000I218750J0D01*
G01*
X104576250Y-68415000D01*
G75*
G02*
X104795000Y-68633750I0J-218750D01*
G01*
X104795000Y-69071250D01*
G75*
G02*
X104576250Y-69290000I-218750J0D01*
G01*
G37*
G36*
G01*
X104576250Y-70865000D02*
X104063750Y-70865000D01*
G75*
G02*
X103845000Y-70646250I0J218750D01*
G01*
X103845000Y-70208750D01*
G75*
G02*
X104063750Y-69990000I218750J0D01*
G01*
X104576250Y-69990000D01*
G75*
G02*
X104795000Y-70208750I0J-218750D01*
G01*
X104795000Y-70646250D01*
G75*
G02*
X104576250Y-70865000I-218750J0D01*
G01*
G37*
D13*
X97350000Y-63260000D03*
D12*
X96010000Y-64210000D03*
X96010000Y-63260000D03*
X96010000Y-62310000D03*
X98690000Y-62310000D03*
X98690000Y-63260000D03*
X98690000Y-64210000D03*
D14*
X107840000Y-76100000D03*
X107840000Y-75600000D03*
X107840000Y-75100000D03*
X107840000Y-74600000D03*
X107840000Y-74100000D03*
X107840000Y-73600000D03*
D15*
X107140000Y-72900000D03*
X106640000Y-72900000D03*
X106140000Y-72900000D03*
X105640000Y-72900000D03*
X105140000Y-72900000D03*
X104640000Y-72900000D03*
D14*
X103940000Y-73600000D03*
X103940000Y-74100000D03*
X103940000Y-74600000D03*
X103940000Y-75100000D03*
X103940000Y-75600000D03*
X103940000Y-76100000D03*
D15*
X104640000Y-76800000D03*
X105140000Y-76800000D03*
X105640000Y-76800000D03*
X106140000Y-76800000D03*
X106640000Y-76800000D03*
X107140000Y-76800000D03*
D16*
X105890000Y-74850000D03*
D17*
X99160000Y-80710000D03*
X99160000Y-81660000D03*
X99160000Y-82610000D03*
X101360000Y-82610000D03*
X101360000Y-80710000D03*
X101360000Y-81660000D03*
D18*
X126320000Y-73865000D03*
X126320000Y-72595000D03*
X126320000Y-71325000D03*
X126320000Y-70055000D03*
X120920000Y-70055000D03*
X120920000Y-71325000D03*
X120920000Y-72595000D03*
X120920000Y-73865000D03*
D19*
X134060000Y-96020000D03*
X134860000Y-96020000D03*
X135660000Y-96020000D03*
X136460000Y-96020000D03*
X137260000Y-96020000D03*
X138060000Y-96020000D03*
X138860000Y-96020000D03*
X139660000Y-96020000D03*
X140460000Y-96020000D03*
X141260000Y-96020000D03*
X142060000Y-96020000D03*
D20*
X143760000Y-94320000D03*
X143760000Y-93520000D03*
X143760000Y-92720000D03*
X143760000Y-91920000D03*
X143760000Y-91120000D03*
X143760000Y-90320000D03*
X143760000Y-89520000D03*
X143760000Y-88720000D03*
X143760000Y-87920000D03*
X143760000Y-87120000D03*
X143760000Y-86320000D03*
D19*
X142060000Y-84620000D03*
X141260000Y-84620000D03*
X140460000Y-84620000D03*
X139660000Y-84620000D03*
X138860000Y-84620000D03*
X138060000Y-84620000D03*
X137260000Y-84620000D03*
X136460000Y-84620000D03*
X135660000Y-84620000D03*
X134860000Y-84620000D03*
X134060000Y-84620000D03*
D20*
X132360000Y-86320000D03*
X132360000Y-87120000D03*
X132360000Y-87920000D03*
X132360000Y-88720000D03*
X132360000Y-89520000D03*
X132360000Y-90320000D03*
X132360000Y-91120000D03*
X132360000Y-91920000D03*
X132360000Y-92720000D03*
X132360000Y-93520000D03*
X132360000Y-94320000D03*
D18*
X154350000Y-95215000D03*
X154350000Y-96485000D03*
X154350000Y-97755000D03*
X154350000Y-99025000D03*
X159750000Y-99025000D03*
X159750000Y-97755000D03*
X159750000Y-96485000D03*
X159750000Y-95215000D03*
D21*
X112700000Y-75695000D03*
X112700000Y-70645000D03*
D22*
X109485000Y-81610000D03*
X104435000Y-81610000D03*
X135445000Y-71200000D03*
X130395000Y-71200000D03*
X112465000Y-66570000D03*
X117515000Y-66570000D03*
D23*
X174560000Y-73860000D03*
X174560000Y-75760000D03*
X176560000Y-74810000D03*
D24*
X131800000Y-99290000D03*
X131800000Y-100560000D03*
X131800000Y-101830000D03*
X131800000Y-103100000D03*
X131800000Y-104370000D03*
X131800000Y-105640000D03*
X131800000Y-106910000D03*
X137200000Y-106910000D03*
X137200000Y-105640000D03*
X137200000Y-104370000D03*
X137200000Y-103100000D03*
X137200000Y-101830000D03*
X137200000Y-100560000D03*
X137200000Y-99290000D03*
X166050000Y-66240000D03*
X166050000Y-67510000D03*
X166050000Y-68780000D03*
X166050000Y-70050000D03*
X166050000Y-71320000D03*
X166050000Y-72590000D03*
X166050000Y-73860000D03*
X171450000Y-73860000D03*
X171450000Y-72590000D03*
X171450000Y-71320000D03*
X171450000Y-70050000D03*
X171450000Y-68780000D03*
X171450000Y-67510000D03*
X171450000Y-66240000D03*
D18*
X164370000Y-87625000D03*
X164370000Y-88895000D03*
X164370000Y-90165000D03*
X164370000Y-91435000D03*
X169770000Y-91435000D03*
X169770000Y-90165000D03*
X169770000Y-88895000D03*
X169770000Y-87625000D03*
D25*
X154150000Y-69450000D03*
X154150000Y-69950000D03*
X154150000Y-70450000D03*
X154150000Y-70950000D03*
X154150000Y-71450000D03*
X158550000Y-71450000D03*
X158550000Y-70950000D03*
X158550000Y-70450000D03*
X158550000Y-69950000D03*
X158550000Y-69450000D03*
D18*
X174630000Y-87575000D03*
X174630000Y-88845000D03*
X174630000Y-90115000D03*
X174630000Y-91385000D03*
X180030000Y-91385000D03*
X180030000Y-90115000D03*
X180030000Y-88845000D03*
X180030000Y-87575000D03*
X164380000Y-95255000D03*
X164380000Y-96525000D03*
X164380000Y-97795000D03*
X164380000Y-99065000D03*
X169780000Y-99065000D03*
X169780000Y-97795000D03*
X169780000Y-96525000D03*
X169780000Y-95255000D03*
X122060000Y-103155000D03*
X122060000Y-101885000D03*
X122060000Y-100615000D03*
X122060000Y-99345000D03*
X116660000Y-99345000D03*
X116660000Y-100615000D03*
X116660000Y-101885000D03*
X116660000Y-103155000D03*
X153360000Y-78895000D03*
X153360000Y-80165000D03*
X153360000Y-81435000D03*
X153360000Y-82705000D03*
X158760000Y-82705000D03*
X158760000Y-81435000D03*
X158760000Y-80165000D03*
X158760000Y-78895000D03*
D23*
X121730000Y-80220000D03*
X121730000Y-78320000D03*
X119730000Y-79270000D03*
X136480000Y-67430000D03*
X136480000Y-65530000D03*
X134480000Y-66480000D03*
D26*
X117430000Y-75925000D03*
X117430000Y-72875000D03*
D27*
X127605000Y-66480000D03*
X124555000Y-66480000D03*
G36*
G01*
X143345000Y-83370000D02*
X142795000Y-83370000D01*
G75*
G02*
X142620000Y-83195000I0J175000D01*
G01*
X142620000Y-82845000D01*
G75*
G02*
X142795000Y-82670000I175000J0D01*
G01*
X143345000Y-82670000D01*
G75*
G02*
X143520000Y-82845000I0J-175000D01*
G01*
X143520000Y-83195000D01*
G75*
G02*
X143345000Y-83370000I-175000J0D01*
G01*
G37*
G36*
G01*
X143345000Y-81870000D02*
X142795000Y-81870000D01*
G75*
G02*
X142620000Y-81695000I0J175000D01*
G01*
X142620000Y-81345000D01*
G75*
G02*
X142795000Y-81170000I175000J0D01*
G01*
X143345000Y-81170000D01*
G75*
G02*
X143520000Y-81345000I0J-175000D01*
G01*
X143520000Y-81695000D01*
G75*
G02*
X143345000Y-81870000I-175000J0D01*
G01*
G37*
D28*
X131590000Y-79210000D03*
X135290000Y-79210000D03*
D29*
X101130000Y-73750000D03*
D30*
X99410000Y-73750000D03*
X99410000Y-75950000D03*
X101310000Y-75950000D03*
D31*
X91955000Y-98575000D03*
D32*
X92405000Y-85075000D03*
D33*
X96555000Y-85075000D03*
D34*
X102755000Y-85075000D03*
X107055000Y-96225000D03*
D35*
X107055000Y-88075000D03*
X107055000Y-89175000D03*
X107055000Y-90275000D03*
X107055000Y-91375000D03*
X107055000Y-92475000D03*
X107055000Y-93575000D03*
X107055000Y-94675000D03*
X107055000Y-86975000D03*
X107055000Y-86025000D03*
D18*
X159770000Y-106905000D03*
X159770000Y-105635000D03*
X159770000Y-104365000D03*
X159770000Y-103095000D03*
X154370000Y-103095000D03*
X154370000Y-104365000D03*
X154370000Y-105635000D03*
X154370000Y-106905000D03*
D36*
X164060000Y-108260000D03*
X164060000Y-105760000D03*
D37*
X96510000Y-77900000D03*
X96510000Y-77100000D03*
X96510000Y-76600000D03*
X96510000Y-76100000D03*
X96510000Y-75600000D03*
X96510000Y-75100000D03*
X96510000Y-74600000D03*
X96510000Y-74100000D03*
X96510000Y-73600000D03*
X96510000Y-73100000D03*
X96510000Y-72300000D03*
X96510000Y-71500000D03*
X96510000Y-71800000D03*
X96510000Y-72600000D03*
X96510000Y-77400000D03*
X96510000Y-78200000D03*
G36*
G01*
X96926250Y-83395000D02*
X96413750Y-83395000D01*
G75*
G02*
X96195000Y-83176250I0J218750D01*
G01*
X96195000Y-82738750D01*
G75*
G02*
X96413750Y-82520000I218750J0D01*
G01*
X96926250Y-82520000D01*
G75*
G02*
X97145000Y-82738750I0J-218750D01*
G01*
X97145000Y-83176250D01*
G75*
G02*
X96926250Y-83395000I-218750J0D01*
G01*
G37*
G36*
G01*
X96926250Y-81820000D02*
X96413750Y-81820000D01*
G75*
G02*
X96195000Y-81601250I0J218750D01*
G01*
X96195000Y-81163750D01*
G75*
G02*
X96413750Y-80945000I218750J0D01*
G01*
X96926250Y-80945000D01*
G75*
G02*
X97145000Y-81163750I0J-218750D01*
G01*
X97145000Y-81601250D01*
G75*
G02*
X96926250Y-81820000I-218750J0D01*
G01*
G37*
G36*
G01*
X94716250Y-81820000D02*
X94203750Y-81820000D01*
G75*
G02*
X93985000Y-81601250I0J218750D01*
G01*
X93985000Y-81163750D01*
G75*
G02*
X94203750Y-80945000I218750J0D01*
G01*
X94716250Y-80945000D01*
G75*
G02*
X94935000Y-81163750I0J-218750D01*
G01*
X94935000Y-81601250D01*
G75*
G02*
X94716250Y-81820000I-218750J0D01*
G01*
G37*
G36*
G01*
X94716250Y-83395000D02*
X94203750Y-83395000D01*
G75*
G02*
X93985000Y-83176250I0J218750D01*
G01*
X93985000Y-82738750D01*
G75*
G02*
X94203750Y-82520000I218750J0D01*
G01*
X94716250Y-82520000D01*
G75*
G02*
X94935000Y-82738750I0J-218750D01*
G01*
X94935000Y-83176250D01*
G75*
G02*
X94716250Y-83395000I-218750J0D01*
G01*
G37*
G36*
G01*
X109756250Y-110620000D02*
X109243750Y-110620000D01*
G75*
G02*
X109025000Y-110401250I0J218750D01*
G01*
X109025000Y-109963750D01*
G75*
G02*
X109243750Y-109745000I218750J0D01*
G01*
X109756250Y-109745000D01*
G75*
G02*
X109975000Y-109963750I0J-218750D01*
G01*
X109975000Y-110401250D01*
G75*
G02*
X109756250Y-110620000I-218750J0D01*
G01*
G37*
G36*
G01*
X109756250Y-112195000D02*
X109243750Y-112195000D01*
G75*
G02*
X109025000Y-111976250I0J218750D01*
G01*
X109025000Y-111538750D01*
G75*
G02*
X109243750Y-111320000I218750J0D01*
G01*
X109756250Y-111320000D01*
G75*
G02*
X109975000Y-111538750I0J-218750D01*
G01*
X109975000Y-111976250D01*
G75*
G02*
X109756250Y-112195000I-218750J0D01*
G01*
G37*
G36*
G01*
X116616250Y-112245000D02*
X116103750Y-112245000D01*
G75*
G02*
X115885000Y-112026250I0J218750D01*
G01*
X115885000Y-111588750D01*
G75*
G02*
X116103750Y-111370000I218750J0D01*
G01*
X116616250Y-111370000D01*
G75*
G02*
X116835000Y-111588750I0J-218750D01*
G01*
X116835000Y-112026250D01*
G75*
G02*
X116616250Y-112245000I-218750J0D01*
G01*
G37*
G36*
G01*
X116616250Y-110670000D02*
X116103750Y-110670000D01*
G75*
G02*
X115885000Y-110451250I0J218750D01*
G01*
X115885000Y-110013750D01*
G75*
G02*
X116103750Y-109795000I218750J0D01*
G01*
X116616250Y-109795000D01*
G75*
G02*
X116835000Y-110013750I0J-218750D01*
G01*
X116835000Y-110451250D01*
G75*
G02*
X116616250Y-110670000I-218750J0D01*
G01*
G37*
G36*
G01*
X92023750Y-82540000D02*
X92536250Y-82540000D01*
G75*
G02*
X92755000Y-82758750I0J-218750D01*
G01*
X92755000Y-83196250D01*
G75*
G02*
X92536250Y-83415000I-218750J0D01*
G01*
X92023750Y-83415000D01*
G75*
G02*
X91805000Y-83196250I0J218750D01*
G01*
X91805000Y-82758750D01*
G75*
G02*
X92023750Y-82540000I218750J0D01*
G01*
G37*
G36*
G01*
X92023750Y-80965000D02*
X92536250Y-80965000D01*
G75*
G02*
X92755000Y-81183750I0J-218750D01*
G01*
X92755000Y-81621250D01*
G75*
G02*
X92536250Y-81840000I-218750J0D01*
G01*
X92023750Y-81840000D01*
G75*
G02*
X91805000Y-81621250I0J218750D01*
G01*
X91805000Y-81183750D01*
G75*
G02*
X92023750Y-80965000I218750J0D01*
G01*
G37*
G36*
G01*
X129386250Y-91585000D02*
X128873750Y-91585000D01*
G75*
G02*
X128655000Y-91366250I0J218750D01*
G01*
X128655000Y-90928750D01*
G75*
G02*
X128873750Y-90710000I218750J0D01*
G01*
X129386250Y-90710000D01*
G75*
G02*
X129605000Y-90928750I0J-218750D01*
G01*
X129605000Y-91366250D01*
G75*
G02*
X129386250Y-91585000I-218750J0D01*
G01*
G37*
G36*
G01*
X129386250Y-90010000D02*
X128873750Y-90010000D01*
G75*
G02*
X128655000Y-89791250I0J218750D01*
G01*
X128655000Y-89353750D01*
G75*
G02*
X128873750Y-89135000I218750J0D01*
G01*
X129386250Y-89135000D01*
G75*
G02*
X129605000Y-89353750I0J-218750D01*
G01*
X129605000Y-89791250D01*
G75*
G02*
X129386250Y-90010000I-218750J0D01*
G01*
G37*
G36*
G01*
X110903750Y-104775000D02*
X111416250Y-104775000D01*
G75*
G02*
X111635000Y-104993750I0J-218750D01*
G01*
X111635000Y-105431250D01*
G75*
G02*
X111416250Y-105650000I-218750J0D01*
G01*
X110903750Y-105650000D01*
G75*
G02*
X110685000Y-105431250I0J218750D01*
G01*
X110685000Y-104993750D01*
G75*
G02*
X110903750Y-104775000I218750J0D01*
G01*
G37*
G36*
G01*
X110903750Y-106350000D02*
X111416250Y-106350000D01*
G75*
G02*
X111635000Y-106568750I0J-218750D01*
G01*
X111635000Y-107006250D01*
G75*
G02*
X111416250Y-107225000I-218750J0D01*
G01*
X110903750Y-107225000D01*
G75*
G02*
X110685000Y-107006250I0J218750D01*
G01*
X110685000Y-106568750D01*
G75*
G02*
X110903750Y-106350000I218750J0D01*
G01*
G37*
G36*
G01*
X106216250Y-103185000D02*
X105703750Y-103185000D01*
G75*
G02*
X105485000Y-102966250I0J218750D01*
G01*
X105485000Y-102528750D01*
G75*
G02*
X105703750Y-102310000I218750J0D01*
G01*
X106216250Y-102310000D01*
G75*
G02*
X106435000Y-102528750I0J-218750D01*
G01*
X106435000Y-102966250D01*
G75*
G02*
X106216250Y-103185000I-218750J0D01*
G01*
G37*
G36*
G01*
X106216250Y-101610000D02*
X105703750Y-101610000D01*
G75*
G02*
X105485000Y-101391250I0J218750D01*
G01*
X105485000Y-100953750D01*
G75*
G02*
X105703750Y-100735000I218750J0D01*
G01*
X106216250Y-100735000D01*
G75*
G02*
X106435000Y-100953750I0J-218750D01*
G01*
X106435000Y-101391250D01*
G75*
G02*
X106216250Y-101610000I-218750J0D01*
G01*
G37*
G36*
G01*
X131343750Y-76040000D02*
X131856250Y-76040000D01*
G75*
G02*
X132075000Y-76258750I0J-218750D01*
G01*
X132075000Y-76696250D01*
G75*
G02*
X131856250Y-76915000I-218750J0D01*
G01*
X131343750Y-76915000D01*
G75*
G02*
X131125000Y-76696250I0J218750D01*
G01*
X131125000Y-76258750D01*
G75*
G02*
X131343750Y-76040000I218750J0D01*
G01*
G37*
G36*
G01*
X131343750Y-74465000D02*
X131856250Y-74465000D01*
G75*
G02*
X132075000Y-74683750I0J-218750D01*
G01*
X132075000Y-75121250D01*
G75*
G02*
X131856250Y-75340000I-218750J0D01*
G01*
X131343750Y-75340000D01*
G75*
G02*
X131125000Y-75121250I0J218750D01*
G01*
X131125000Y-74683750D01*
G75*
G02*
X131343750Y-74465000I218750J0D01*
G01*
G37*
G36*
G01*
X129616250Y-103185000D02*
X129103750Y-103185000D01*
G75*
G02*
X128885000Y-102966250I0J218750D01*
G01*
X128885000Y-102528750D01*
G75*
G02*
X129103750Y-102310000I218750J0D01*
G01*
X129616250Y-102310000D01*
G75*
G02*
X129835000Y-102528750I0J-218750D01*
G01*
X129835000Y-102966250D01*
G75*
G02*
X129616250Y-103185000I-218750J0D01*
G01*
G37*
G36*
G01*
X129616250Y-101610000D02*
X129103750Y-101610000D01*
G75*
G02*
X128885000Y-101391250I0J218750D01*
G01*
X128885000Y-100953750D01*
G75*
G02*
X129103750Y-100735000I218750J0D01*
G01*
X129616250Y-100735000D01*
G75*
G02*
X129835000Y-100953750I0J-218750D01*
G01*
X129835000Y-101391250D01*
G75*
G02*
X129616250Y-101610000I-218750J0D01*
G01*
G37*
G36*
G01*
X135033750Y-76040000D02*
X135546250Y-76040000D01*
G75*
G02*
X135765000Y-76258750I0J-218750D01*
G01*
X135765000Y-76696250D01*
G75*
G02*
X135546250Y-76915000I-218750J0D01*
G01*
X135033750Y-76915000D01*
G75*
G02*
X134815000Y-76696250I0J218750D01*
G01*
X134815000Y-76258750D01*
G75*
G02*
X135033750Y-76040000I218750J0D01*
G01*
G37*
G36*
G01*
X135033750Y-74465000D02*
X135546250Y-74465000D01*
G75*
G02*
X135765000Y-74683750I0J-218750D01*
G01*
X135765000Y-75121250D01*
G75*
G02*
X135546250Y-75340000I-218750J0D01*
G01*
X135033750Y-75340000D01*
G75*
G02*
X134815000Y-75121250I0J218750D01*
G01*
X134815000Y-74683750D01*
G75*
G02*
X135033750Y-74465000I218750J0D01*
G01*
G37*
G36*
G01*
X136835000Y-81886250D02*
X136835000Y-81373750D01*
G75*
G02*
X137053750Y-81155000I218750J0D01*
G01*
X137491250Y-81155000D01*
G75*
G02*
X137710000Y-81373750I0J-218750D01*
G01*
X137710000Y-81886250D01*
G75*
G02*
X137491250Y-82105000I-218750J0D01*
G01*
X137053750Y-82105000D01*
G75*
G02*
X136835000Y-81886250I0J218750D01*
G01*
G37*
G36*
G01*
X138410000Y-81886250D02*
X138410000Y-81373750D01*
G75*
G02*
X138628750Y-81155000I218750J0D01*
G01*
X139066250Y-81155000D01*
G75*
G02*
X139285000Y-81373750I0J-218750D01*
G01*
X139285000Y-81886250D01*
G75*
G02*
X139066250Y-82105000I-218750J0D01*
G01*
X138628750Y-82105000D01*
G75*
G02*
X138410000Y-81886250I0J218750D01*
G01*
G37*
G36*
G01*
X100743750Y-63410000D02*
X101256250Y-63410000D01*
G75*
G02*
X101475000Y-63628750I0J-218750D01*
G01*
X101475000Y-64066250D01*
G75*
G02*
X101256250Y-64285000I-218750J0D01*
G01*
X100743750Y-64285000D01*
G75*
G02*
X100525000Y-64066250I0J218750D01*
G01*
X100525000Y-63628750D01*
G75*
G02*
X100743750Y-63410000I218750J0D01*
G01*
G37*
G36*
G01*
X100743750Y-61835000D02*
X101256250Y-61835000D01*
G75*
G02*
X101475000Y-62053750I0J-218750D01*
G01*
X101475000Y-62491250D01*
G75*
G02*
X101256250Y-62710000I-218750J0D01*
G01*
X100743750Y-62710000D01*
G75*
G02*
X100525000Y-62491250I0J218750D01*
G01*
X100525000Y-62053750D01*
G75*
G02*
X100743750Y-61835000I218750J0D01*
G01*
G37*
G36*
G01*
X148700000Y-88363750D02*
X148700000Y-88876250D01*
G75*
G02*
X148481250Y-89095000I-218750J0D01*
G01*
X148043750Y-89095000D01*
G75*
G02*
X147825000Y-88876250I0J218750D01*
G01*
X147825000Y-88363750D01*
G75*
G02*
X148043750Y-88145000I218750J0D01*
G01*
X148481250Y-88145000D01*
G75*
G02*
X148700000Y-88363750I0J-218750D01*
G01*
G37*
G36*
G01*
X150275000Y-88363750D02*
X150275000Y-88876250D01*
G75*
G02*
X150056250Y-89095000I-218750J0D01*
G01*
X149618750Y-89095000D01*
G75*
G02*
X149400000Y-88876250I0J218750D01*
G01*
X149400000Y-88363750D01*
G75*
G02*
X149618750Y-88145000I218750J0D01*
G01*
X150056250Y-88145000D01*
G75*
G02*
X150275000Y-88363750I0J-218750D01*
G01*
G37*
G36*
G01*
X93393750Y-63410000D02*
X93906250Y-63410000D01*
G75*
G02*
X94125000Y-63628750I0J-218750D01*
G01*
X94125000Y-64066250D01*
G75*
G02*
X93906250Y-64285000I-218750J0D01*
G01*
X93393750Y-64285000D01*
G75*
G02*
X93175000Y-64066250I0J218750D01*
G01*
X93175000Y-63628750D01*
G75*
G02*
X93393750Y-63410000I218750J0D01*
G01*
G37*
G36*
G01*
X93393750Y-61835000D02*
X93906250Y-61835000D01*
G75*
G02*
X94125000Y-62053750I0J-218750D01*
G01*
X94125000Y-62491250D01*
G75*
G02*
X93906250Y-62710000I-218750J0D01*
G01*
X93393750Y-62710000D01*
G75*
G02*
X93175000Y-62491250I0J218750D01*
G01*
X93175000Y-62053750D01*
G75*
G02*
X93393750Y-61835000I218750J0D01*
G01*
G37*
G36*
G01*
X141910000Y-98576250D02*
X141910000Y-98063750D01*
G75*
G02*
X142128750Y-97845000I218750J0D01*
G01*
X142566250Y-97845000D01*
G75*
G02*
X142785000Y-98063750I0J-218750D01*
G01*
X142785000Y-98576250D01*
G75*
G02*
X142566250Y-98795000I-218750J0D01*
G01*
X142128750Y-98795000D01*
G75*
G02*
X141910000Y-98576250I0J218750D01*
G01*
G37*
G36*
G01*
X140335000Y-98576250D02*
X140335000Y-98063750D01*
G75*
G02*
X140553750Y-97845000I218750J0D01*
G01*
X140991250Y-97845000D01*
G75*
G02*
X141210000Y-98063750I0J-218750D01*
G01*
X141210000Y-98576250D01*
G75*
G02*
X140991250Y-98795000I-218750J0D01*
G01*
X140553750Y-98795000D01*
G75*
G02*
X140335000Y-98576250I0J218750D01*
G01*
G37*
G36*
G01*
X168060000Y-93083750D02*
X168060000Y-93596250D01*
G75*
G02*
X167841250Y-93815000I-218750J0D01*
G01*
X167403750Y-93815000D01*
G75*
G02*
X167185000Y-93596250I0J218750D01*
G01*
X167185000Y-93083750D01*
G75*
G02*
X167403750Y-92865000I218750J0D01*
G01*
X167841250Y-92865000D01*
G75*
G02*
X168060000Y-93083750I0J-218750D01*
G01*
G37*
G36*
G01*
X169635000Y-93083750D02*
X169635000Y-93596250D01*
G75*
G02*
X169416250Y-93815000I-218750J0D01*
G01*
X168978750Y-93815000D01*
G75*
G02*
X168760000Y-93596250I0J218750D01*
G01*
X168760000Y-93083750D01*
G75*
G02*
X168978750Y-92865000I218750J0D01*
G01*
X169416250Y-92865000D01*
G75*
G02*
X169635000Y-93083750I0J-218750D01*
G01*
G37*
G36*
G01*
X159713750Y-87025000D02*
X160226250Y-87025000D01*
G75*
G02*
X160445000Y-87243750I0J-218750D01*
G01*
X160445000Y-87681250D01*
G75*
G02*
X160226250Y-87900000I-218750J0D01*
G01*
X159713750Y-87900000D01*
G75*
G02*
X159495000Y-87681250I0J218750D01*
G01*
X159495000Y-87243750D01*
G75*
G02*
X159713750Y-87025000I218750J0D01*
G01*
G37*
G36*
G01*
X159713750Y-88600000D02*
X160226250Y-88600000D01*
G75*
G02*
X160445000Y-88818750I0J-218750D01*
G01*
X160445000Y-89256250D01*
G75*
G02*
X160226250Y-89475000I-218750J0D01*
G01*
X159713750Y-89475000D01*
G75*
G02*
X159495000Y-89256250I0J218750D01*
G01*
X159495000Y-88818750D01*
G75*
G02*
X159713750Y-88600000I218750J0D01*
G01*
G37*
G36*
G01*
X156870000Y-67143750D02*
X156870000Y-67656250D01*
G75*
G02*
X156651250Y-67875000I-218750J0D01*
G01*
X156213750Y-67875000D01*
G75*
G02*
X155995000Y-67656250I0J218750D01*
G01*
X155995000Y-67143750D01*
G75*
G02*
X156213750Y-66925000I218750J0D01*
G01*
X156651250Y-66925000D01*
G75*
G02*
X156870000Y-67143750I0J-218750D01*
G01*
G37*
G36*
G01*
X158445000Y-67143750D02*
X158445000Y-67656250D01*
G75*
G02*
X158226250Y-67875000I-218750J0D01*
G01*
X157788750Y-67875000D01*
G75*
G02*
X157570000Y-67656250I0J218750D01*
G01*
X157570000Y-67143750D01*
G75*
G02*
X157788750Y-66925000I218750J0D01*
G01*
X158226250Y-66925000D01*
G75*
G02*
X158445000Y-67143750I0J-218750D01*
G01*
G37*
G36*
G01*
X163245000Y-85396250D02*
X163245000Y-84883750D01*
G75*
G02*
X163463750Y-84665000I218750J0D01*
G01*
X163901250Y-84665000D01*
G75*
G02*
X164120000Y-84883750I0J-218750D01*
G01*
X164120000Y-85396250D01*
G75*
G02*
X163901250Y-85615000I-218750J0D01*
G01*
X163463750Y-85615000D01*
G75*
G02*
X163245000Y-85396250I0J218750D01*
G01*
G37*
G36*
G01*
X164820000Y-85396250D02*
X164820000Y-84883750D01*
G75*
G02*
X165038750Y-84665000I218750J0D01*
G01*
X165476250Y-84665000D01*
G75*
G02*
X165695000Y-84883750I0J-218750D01*
G01*
X165695000Y-85396250D01*
G75*
G02*
X165476250Y-85615000I-218750J0D01*
G01*
X165038750Y-85615000D01*
G75*
G02*
X164820000Y-85396250I0J218750D01*
G01*
G37*
G36*
G01*
X169370000Y-85396250D02*
X169370000Y-84883750D01*
G75*
G02*
X169588750Y-84665000I218750J0D01*
G01*
X170026250Y-84665000D01*
G75*
G02*
X170245000Y-84883750I0J-218750D01*
G01*
X170245000Y-85396250D01*
G75*
G02*
X170026250Y-85615000I-218750J0D01*
G01*
X169588750Y-85615000D01*
G75*
G02*
X169370000Y-85396250I0J218750D01*
G01*
G37*
G36*
G01*
X167795000Y-85396250D02*
X167795000Y-84883750D01*
G75*
G02*
X168013750Y-84665000I218750J0D01*
G01*
X168451250Y-84665000D01*
G75*
G02*
X168670000Y-84883750I0J-218750D01*
G01*
X168670000Y-85396250D01*
G75*
G02*
X168451250Y-85615000I-218750J0D01*
G01*
X168013750Y-85615000D01*
G75*
G02*
X167795000Y-85396250I0J218750D01*
G01*
G37*
G36*
G01*
X161025000Y-67656250D02*
X161025000Y-67143750D01*
G75*
G02*
X161243750Y-66925000I218750J0D01*
G01*
X161681250Y-66925000D01*
G75*
G02*
X161900000Y-67143750I0J-218750D01*
G01*
X161900000Y-67656250D01*
G75*
G02*
X161681250Y-67875000I-218750J0D01*
G01*
X161243750Y-67875000D01*
G75*
G02*
X161025000Y-67656250I0J218750D01*
G01*
G37*
G36*
G01*
X162600000Y-67656250D02*
X162600000Y-67143750D01*
G75*
G02*
X162818750Y-66925000I218750J0D01*
G01*
X163256250Y-66925000D01*
G75*
G02*
X163475000Y-67143750I0J-218750D01*
G01*
X163475000Y-67656250D01*
G75*
G02*
X163256250Y-67875000I-218750J0D01*
G01*
X162818750Y-67875000D01*
G75*
G02*
X162600000Y-67656250I0J218750D01*
G01*
G37*
G36*
G01*
X156335000Y-100773750D02*
X156335000Y-101286250D01*
G75*
G02*
X156116250Y-101505000I-218750J0D01*
G01*
X155678750Y-101505000D01*
G75*
G02*
X155460000Y-101286250I0J218750D01*
G01*
X155460000Y-100773750D01*
G75*
G02*
X155678750Y-100555000I218750J0D01*
G01*
X156116250Y-100555000D01*
G75*
G02*
X156335000Y-100773750I0J-218750D01*
G01*
G37*
G36*
G01*
X154760000Y-100773750D02*
X154760000Y-101286250D01*
G75*
G02*
X154541250Y-101505000I-218750J0D01*
G01*
X154103750Y-101505000D01*
G75*
G02*
X153885000Y-101286250I0J218750D01*
G01*
X153885000Y-100773750D01*
G75*
G02*
X154103750Y-100555000I218750J0D01*
G01*
X154541250Y-100555000D01*
G75*
G02*
X154760000Y-100773750I0J-218750D01*
G01*
G37*
G36*
G01*
X151343750Y-96280000D02*
X151856250Y-96280000D01*
G75*
G02*
X152075000Y-96498750I0J-218750D01*
G01*
X152075000Y-96936250D01*
G75*
G02*
X151856250Y-97155000I-218750J0D01*
G01*
X151343750Y-97155000D01*
G75*
G02*
X151125000Y-96936250I0J218750D01*
G01*
X151125000Y-96498750D01*
G75*
G02*
X151343750Y-96280000I218750J0D01*
G01*
G37*
G36*
G01*
X151343750Y-94705000D02*
X151856250Y-94705000D01*
G75*
G02*
X152075000Y-94923750I0J-218750D01*
G01*
X152075000Y-95361250D01*
G75*
G02*
X151856250Y-95580000I-218750J0D01*
G01*
X151343750Y-95580000D01*
G75*
G02*
X151125000Y-95361250I0J218750D01*
G01*
X151125000Y-94923750D01*
G75*
G02*
X151343750Y-94705000I218750J0D01*
G01*
G37*
G36*
G01*
X114016250Y-101610000D02*
X113503750Y-101610000D01*
G75*
G02*
X113285000Y-101391250I0J218750D01*
G01*
X113285000Y-100953750D01*
G75*
G02*
X113503750Y-100735000I218750J0D01*
G01*
X114016250Y-100735000D01*
G75*
G02*
X114235000Y-100953750I0J-218750D01*
G01*
X114235000Y-101391250D01*
G75*
G02*
X114016250Y-101610000I-218750J0D01*
G01*
G37*
G36*
G01*
X114016250Y-103185000D02*
X113503750Y-103185000D01*
G75*
G02*
X113285000Y-102966250I0J218750D01*
G01*
X113285000Y-102528750D01*
G75*
G02*
X113503750Y-102310000I218750J0D01*
G01*
X114016250Y-102310000D01*
G75*
G02*
X114235000Y-102528750I0J-218750D01*
G01*
X114235000Y-102966250D01*
G75*
G02*
X114016250Y-103185000I-218750J0D01*
G01*
G37*
G36*
G01*
X159445000Y-93596250D02*
X159445000Y-93083750D01*
G75*
G02*
X159663750Y-92865000I218750J0D01*
G01*
X160101250Y-92865000D01*
G75*
G02*
X160320000Y-93083750I0J-218750D01*
G01*
X160320000Y-93596250D01*
G75*
G02*
X160101250Y-93815000I-218750J0D01*
G01*
X159663750Y-93815000D01*
G75*
G02*
X159445000Y-93596250I0J218750D01*
G01*
G37*
G36*
G01*
X161020000Y-93596250D02*
X161020000Y-93083750D01*
G75*
G02*
X161238750Y-92865000I218750J0D01*
G01*
X161676250Y-92865000D01*
G75*
G02*
X161895000Y-93083750I0J-218750D01*
G01*
X161895000Y-93596250D01*
G75*
G02*
X161676250Y-93815000I-218750J0D01*
G01*
X161238750Y-93815000D01*
G75*
G02*
X161020000Y-93596250I0J218750D01*
G01*
G37*
G36*
G01*
X175900000Y-70606250D02*
X175900000Y-70093750D01*
G75*
G02*
X176118750Y-69875000I218750J0D01*
G01*
X176556250Y-69875000D01*
G75*
G02*
X176775000Y-70093750I0J-218750D01*
G01*
X176775000Y-70606250D01*
G75*
G02*
X176556250Y-70825000I-218750J0D01*
G01*
X176118750Y-70825000D01*
G75*
G02*
X175900000Y-70606250I0J218750D01*
G01*
G37*
G36*
G01*
X174325000Y-70606250D02*
X174325000Y-70093750D01*
G75*
G02*
X174543750Y-69875000I218750J0D01*
G01*
X174981250Y-69875000D01*
G75*
G02*
X175200000Y-70093750I0J-218750D01*
G01*
X175200000Y-70606250D01*
G75*
G02*
X174981250Y-70825000I-218750J0D01*
G01*
X174543750Y-70825000D01*
G75*
G02*
X174325000Y-70606250I0J218750D01*
G01*
G37*
G36*
G01*
X126503750Y-106344000D02*
X127016250Y-106344000D01*
G75*
G02*
X127235000Y-106562750I0J-218750D01*
G01*
X127235000Y-107000250D01*
G75*
G02*
X127016250Y-107219000I-218750J0D01*
G01*
X126503750Y-107219000D01*
G75*
G02*
X126285000Y-107000250I0J218750D01*
G01*
X126285000Y-106562750D01*
G75*
G02*
X126503750Y-106344000I218750J0D01*
G01*
G37*
G36*
G01*
X126503750Y-104769000D02*
X127016250Y-104769000D01*
G75*
G02*
X127235000Y-104987750I0J-218750D01*
G01*
X127235000Y-105425250D01*
G75*
G02*
X127016250Y-105644000I-218750J0D01*
G01*
X126503750Y-105644000D01*
G75*
G02*
X126285000Y-105425250I0J218750D01*
G01*
X126285000Y-104987750D01*
G75*
G02*
X126503750Y-104769000I218750J0D01*
G01*
G37*
G36*
G01*
X156240000Y-84883750D02*
X156240000Y-85396250D01*
G75*
G02*
X156021250Y-85615000I-218750J0D01*
G01*
X155583750Y-85615000D01*
G75*
G02*
X155365000Y-85396250I0J218750D01*
G01*
X155365000Y-84883750D01*
G75*
G02*
X155583750Y-84665000I218750J0D01*
G01*
X156021250Y-84665000D01*
G75*
G02*
X156240000Y-84883750I0J-218750D01*
G01*
G37*
G36*
G01*
X157815000Y-84883750D02*
X157815000Y-85396250D01*
G75*
G02*
X157596250Y-85615000I-218750J0D01*
G01*
X157158750Y-85615000D01*
G75*
G02*
X156940000Y-85396250I0J218750D01*
G01*
X156940000Y-84883750D01*
G75*
G02*
X157158750Y-84665000I218750J0D01*
G01*
X157596250Y-84665000D01*
G75*
G02*
X157815000Y-84883750I0J-218750D01*
G01*
G37*
G36*
G01*
X114625000Y-97906250D02*
X114625000Y-97393750D01*
G75*
G02*
X114843750Y-97175000I218750J0D01*
G01*
X115281250Y-97175000D01*
G75*
G02*
X115500000Y-97393750I0J-218750D01*
G01*
X115500000Y-97906250D01*
G75*
G02*
X115281250Y-98125000I-218750J0D01*
G01*
X114843750Y-98125000D01*
G75*
G02*
X114625000Y-97906250I0J218750D01*
G01*
G37*
G36*
G01*
X116200000Y-97906250D02*
X116200000Y-97393750D01*
G75*
G02*
X116418750Y-97175000I218750J0D01*
G01*
X116856250Y-97175000D01*
G75*
G02*
X117075000Y-97393750I0J-218750D01*
G01*
X117075000Y-97906250D01*
G75*
G02*
X116856250Y-98125000I-218750J0D01*
G01*
X116418750Y-98125000D01*
G75*
G02*
X116200000Y-97906250I0J218750D01*
G01*
G37*
G36*
G01*
X116616250Y-107225000D02*
X116103750Y-107225000D01*
G75*
G02*
X115885000Y-107006250I0J218750D01*
G01*
X115885000Y-106568750D01*
G75*
G02*
X116103750Y-106350000I218750J0D01*
G01*
X116616250Y-106350000D01*
G75*
G02*
X116835000Y-106568750I0J-218750D01*
G01*
X116835000Y-107006250D01*
G75*
G02*
X116616250Y-107225000I-218750J0D01*
G01*
G37*
G36*
G01*
X116616250Y-105650000D02*
X116103750Y-105650000D01*
G75*
G02*
X115885000Y-105431250I0J218750D01*
G01*
X115885000Y-104993750D01*
G75*
G02*
X116103750Y-104775000I218750J0D01*
G01*
X116616250Y-104775000D01*
G75*
G02*
X116835000Y-104993750I0J-218750D01*
G01*
X116835000Y-105431250D01*
G75*
G02*
X116616250Y-105650000I-218750J0D01*
G01*
G37*
G36*
G01*
X155995000Y-76976250D02*
X155995000Y-76463750D01*
G75*
G02*
X156213750Y-76245000I218750J0D01*
G01*
X156651250Y-76245000D01*
G75*
G02*
X156870000Y-76463750I0J-218750D01*
G01*
X156870000Y-76976250D01*
G75*
G02*
X156651250Y-77195000I-218750J0D01*
G01*
X156213750Y-77195000D01*
G75*
G02*
X155995000Y-76976250I0J218750D01*
G01*
G37*
G36*
G01*
X157570000Y-76976250D02*
X157570000Y-76463750D01*
G75*
G02*
X157788750Y-76245000I218750J0D01*
G01*
X158226250Y-76245000D01*
G75*
G02*
X158445000Y-76463750I0J-218750D01*
G01*
X158445000Y-76976250D01*
G75*
G02*
X158226250Y-77195000I-218750J0D01*
G01*
X157788750Y-77195000D01*
G75*
G02*
X157570000Y-76976250I0J218750D01*
G01*
G37*
G36*
G01*
X123400000Y-97906250D02*
X123400000Y-97393750D01*
G75*
G02*
X123618750Y-97175000I218750J0D01*
G01*
X124056250Y-97175000D01*
G75*
G02*
X124275000Y-97393750I0J-218750D01*
G01*
X124275000Y-97906250D01*
G75*
G02*
X124056250Y-98125000I-218750J0D01*
G01*
X123618750Y-98125000D01*
G75*
G02*
X123400000Y-97906250I0J218750D01*
G01*
G37*
G36*
G01*
X121825000Y-97906250D02*
X121825000Y-97393750D01*
G75*
G02*
X122043750Y-97175000I218750J0D01*
G01*
X122481250Y-97175000D01*
G75*
G02*
X122700000Y-97393750I0J-218750D01*
G01*
X122700000Y-97906250D01*
G75*
G02*
X122481250Y-98125000I-218750J0D01*
G01*
X122043750Y-98125000D01*
G75*
G02*
X121825000Y-97906250I0J218750D01*
G01*
G37*
G36*
G01*
X180050000Y-93596250D02*
X180050000Y-93083750D01*
G75*
G02*
X180268750Y-92865000I218750J0D01*
G01*
X180706250Y-92865000D01*
G75*
G02*
X180925000Y-93083750I0J-218750D01*
G01*
X180925000Y-93596250D01*
G75*
G02*
X180706250Y-93815000I-218750J0D01*
G01*
X180268750Y-93815000D01*
G75*
G02*
X180050000Y-93596250I0J218750D01*
G01*
G37*
G36*
G01*
X178475000Y-93596250D02*
X178475000Y-93083750D01*
G75*
G02*
X178693750Y-92865000I218750J0D01*
G01*
X179131250Y-92865000D01*
G75*
G02*
X179350000Y-93083750I0J-218750D01*
G01*
X179350000Y-93596250D01*
G75*
G02*
X179131250Y-93815000I-218750J0D01*
G01*
X178693750Y-93815000D01*
G75*
G02*
X178475000Y-93596250I0J218750D01*
G01*
G37*
G36*
G01*
X121816250Y-107225000D02*
X121303750Y-107225000D01*
G75*
G02*
X121085000Y-107006250I0J218750D01*
G01*
X121085000Y-106568750D01*
G75*
G02*
X121303750Y-106350000I218750J0D01*
G01*
X121816250Y-106350000D01*
G75*
G02*
X122035000Y-106568750I0J-218750D01*
G01*
X122035000Y-107006250D01*
G75*
G02*
X121816250Y-107225000I-218750J0D01*
G01*
G37*
G36*
G01*
X121816250Y-105650000D02*
X121303750Y-105650000D01*
G75*
G02*
X121085000Y-105431250I0J218750D01*
G01*
X121085000Y-104993750D01*
G75*
G02*
X121303750Y-104775000I218750J0D01*
G01*
X121816250Y-104775000D01*
G75*
G02*
X122035000Y-104993750I0J-218750D01*
G01*
X122035000Y-105431250D01*
G75*
G02*
X121816250Y-105650000I-218750J0D01*
G01*
G37*
G36*
G01*
X151353750Y-98965000D02*
X151866250Y-98965000D01*
G75*
G02*
X152085000Y-99183750I0J-218750D01*
G01*
X152085000Y-99621250D01*
G75*
G02*
X151866250Y-99840000I-218750J0D01*
G01*
X151353750Y-99840000D01*
G75*
G02*
X151135000Y-99621250I0J218750D01*
G01*
X151135000Y-99183750D01*
G75*
G02*
X151353750Y-98965000I218750J0D01*
G01*
G37*
G36*
G01*
X151353750Y-100540000D02*
X151866250Y-100540000D01*
G75*
G02*
X152085000Y-100758750I0J-218750D01*
G01*
X152085000Y-101196250D01*
G75*
G02*
X151866250Y-101415000I-218750J0D01*
G01*
X151353750Y-101415000D01*
G75*
G02*
X151135000Y-101196250I0J218750D01*
G01*
X151135000Y-100758750D01*
G75*
G02*
X151353750Y-100540000I218750J0D01*
G01*
G37*
G36*
G01*
X162600000Y-76986250D02*
X162600000Y-76473750D01*
G75*
G02*
X162818750Y-76255000I218750J0D01*
G01*
X163256250Y-76255000D01*
G75*
G02*
X163475000Y-76473750I0J-218750D01*
G01*
X163475000Y-76986250D01*
G75*
G02*
X163256250Y-77205000I-218750J0D01*
G01*
X162818750Y-77205000D01*
G75*
G02*
X162600000Y-76986250I0J218750D01*
G01*
G37*
G36*
G01*
X161025000Y-76986250D02*
X161025000Y-76473750D01*
G75*
G02*
X161243750Y-76255000I218750J0D01*
G01*
X161681250Y-76255000D01*
G75*
G02*
X161900000Y-76473750I0J-218750D01*
G01*
X161900000Y-76986250D01*
G75*
G02*
X161681250Y-77205000I-218750J0D01*
G01*
X161243750Y-77205000D01*
G75*
G02*
X161025000Y-76986250I0J218750D01*
G01*
G37*
G36*
G01*
X109246250Y-69300000D02*
X108733750Y-69300000D01*
G75*
G02*
X108515000Y-69081250I0J218750D01*
G01*
X108515000Y-68643750D01*
G75*
G02*
X108733750Y-68425000I218750J0D01*
G01*
X109246250Y-68425000D01*
G75*
G02*
X109465000Y-68643750I0J-218750D01*
G01*
X109465000Y-69081250D01*
G75*
G02*
X109246250Y-69300000I-218750J0D01*
G01*
G37*
G36*
G01*
X109246250Y-70875000D02*
X108733750Y-70875000D01*
G75*
G02*
X108515000Y-70656250I0J218750D01*
G01*
X108515000Y-70218750D01*
G75*
G02*
X108733750Y-70000000I218750J0D01*
G01*
X109246250Y-70000000D01*
G75*
G02*
X109465000Y-70218750I0J-218750D01*
G01*
X109465000Y-70656250D01*
G75*
G02*
X109246250Y-70875000I-218750J0D01*
G01*
G37*
G36*
G01*
X106916250Y-70865000D02*
X106403750Y-70865000D01*
G75*
G02*
X106185000Y-70646250I0J218750D01*
G01*
X106185000Y-70208750D01*
G75*
G02*
X106403750Y-69990000I218750J0D01*
G01*
X106916250Y-69990000D01*
G75*
G02*
X107135000Y-70208750I0J-218750D01*
G01*
X107135000Y-70646250D01*
G75*
G02*
X106916250Y-70865000I-218750J0D01*
G01*
G37*
G36*
G01*
X106916250Y-69290000D02*
X106403750Y-69290000D01*
G75*
G02*
X106185000Y-69071250I0J218750D01*
G01*
X106185000Y-68633750D01*
G75*
G02*
X106403750Y-68415000I218750J0D01*
G01*
X106916250Y-68415000D01*
G75*
G02*
X107135000Y-68633750I0J-218750D01*
G01*
X107135000Y-69071250D01*
G75*
G02*
X106916250Y-69290000I-218750J0D01*
G01*
G37*
D38*
X120730000Y-83310000D03*
X120730000Y-86810000D03*
D39*
X139080000Y-66480000D03*
X142580000Y-66480000D03*
G36*
G01*
X153023750Y-91110000D02*
X153936250Y-91110000D01*
G75*
G02*
X154180000Y-91353750I0J-243750D01*
G01*
X154180000Y-91841250D01*
G75*
G02*
X153936250Y-92085000I-243750J0D01*
G01*
X153023750Y-92085000D01*
G75*
G02*
X152780000Y-91841250I0J243750D01*
G01*
X152780000Y-91353750D01*
G75*
G02*
X153023750Y-91110000I243750J0D01*
G01*
G37*
G36*
G01*
X153023750Y-89235000D02*
X153936250Y-89235000D01*
G75*
G02*
X154180000Y-89478750I0J-243750D01*
G01*
X154180000Y-89966250D01*
G75*
G02*
X153936250Y-90210000I-243750J0D01*
G01*
X153023750Y-90210000D01*
G75*
G02*
X152780000Y-89966250I0J243750D01*
G01*
X152780000Y-89478750D01*
G75*
G02*
X153023750Y-89235000I243750J0D01*
G01*
G37*
G36*
G01*
X94056250Y-68765000D02*
X93143750Y-68765000D01*
G75*
G02*
X92900000Y-68521250I0J243750D01*
G01*
X92900000Y-68033750D01*
G75*
G02*
X93143750Y-67790000I243750J0D01*
G01*
X94056250Y-67790000D01*
G75*
G02*
X94300000Y-68033750I0J-243750D01*
G01*
X94300000Y-68521250D01*
G75*
G02*
X94056250Y-68765000I-243750J0D01*
G01*
G37*
G36*
G01*
X94056250Y-66890000D02*
X93143750Y-66890000D01*
G75*
G02*
X92900000Y-66646250I0J243750D01*
G01*
X92900000Y-66158750D01*
G75*
G02*
X93143750Y-65915000I243750J0D01*
G01*
X94056250Y-65915000D01*
G75*
G02*
X94300000Y-66158750I0J-243750D01*
G01*
X94300000Y-66646250D01*
G75*
G02*
X94056250Y-66890000I-243750J0D01*
G01*
G37*
G36*
G01*
X99665000Y-69465000D02*
X98415000Y-69465000D01*
G75*
G02*
X98165000Y-69215000I0J250000D01*
G01*
X98165000Y-68465000D01*
G75*
G02*
X98415000Y-68215000I250000J0D01*
G01*
X99665000Y-68215000D01*
G75*
G02*
X99915000Y-68465000I0J-250000D01*
G01*
X99915000Y-69215000D01*
G75*
G02*
X99665000Y-69465000I-250000J0D01*
G01*
G37*
G36*
G01*
X99665000Y-66665000D02*
X98415000Y-66665000D01*
G75*
G02*
X98165000Y-66415000I0J250000D01*
G01*
X98165000Y-65665000D01*
G75*
G02*
X98415000Y-65415000I250000J0D01*
G01*
X99665000Y-65415000D01*
G75*
G02*
X99915000Y-65665000I0J-250000D01*
G01*
X99915000Y-66415000D01*
G75*
G02*
X99665000Y-66665000I-250000J0D01*
G01*
G37*
G36*
G01*
X147735000Y-104216250D02*
X147735000Y-103703750D01*
G75*
G02*
X147953750Y-103485000I218750J0D01*
G01*
X148391250Y-103485000D01*
G75*
G02*
X148610000Y-103703750I0J-218750D01*
G01*
X148610000Y-104216250D01*
G75*
G02*
X148391250Y-104435000I-218750J0D01*
G01*
X147953750Y-104435000D01*
G75*
G02*
X147735000Y-104216250I0J218750D01*
G01*
G37*
G36*
G01*
X149310000Y-104216250D02*
X149310000Y-103703750D01*
G75*
G02*
X149528750Y-103485000I218750J0D01*
G01*
X149966250Y-103485000D01*
G75*
G02*
X150185000Y-103703750I0J-218750D01*
G01*
X150185000Y-104216250D01*
G75*
G02*
X149966250Y-104435000I-218750J0D01*
G01*
X149528750Y-104435000D01*
G75*
G02*
X149310000Y-104216250I0J218750D01*
G01*
G37*
G36*
G01*
X126460000Y-112520001D02*
X126460000Y-109619999D01*
G75*
G02*
X126709999Y-109370000I249999J0D01*
G01*
X127335001Y-109370000D01*
G75*
G02*
X127585000Y-109619999I0J-249999D01*
G01*
X127585000Y-112520001D01*
G75*
G02*
X127335001Y-112770000I-249999J0D01*
G01*
X126709999Y-112770000D01*
G75*
G02*
X126460000Y-112520001I0J249999D01*
G01*
G37*
G36*
G01*
X130735000Y-112520001D02*
X130735000Y-109619999D01*
G75*
G02*
X130984999Y-109370000I249999J0D01*
G01*
X131610001Y-109370000D01*
G75*
G02*
X131860000Y-109619999I0J-249999D01*
G01*
X131860000Y-112520001D01*
G75*
G02*
X131610001Y-112770000I-249999J0D01*
G01*
X130984999Y-112770000D01*
G75*
G02*
X130735000Y-112520001I0J249999D01*
G01*
G37*
D40*
X112650000Y-94280000D03*
X112650000Y-97680000D03*
D41*
X117560000Y-84340000D03*
X117560000Y-81140000D03*
X112660000Y-84340000D03*
X112660000Y-81140000D03*
G36*
G01*
X100700500Y-67163750D02*
X100700500Y-66651250D01*
G75*
G02*
X100919250Y-66432500I218750J0D01*
G01*
X101356750Y-66432500D01*
G75*
G02*
X101575500Y-66651250I0J-218750D01*
G01*
X101575500Y-67163750D01*
G75*
G02*
X101356750Y-67382500I-218750J0D01*
G01*
X100919250Y-67382500D01*
G75*
G02*
X100700500Y-67163750I0J218750D01*
G01*
G37*
G36*
G01*
X102275500Y-67163750D02*
X102275500Y-66651250D01*
G75*
G02*
X102494250Y-66432500I218750J0D01*
G01*
X102931750Y-66432500D01*
G75*
G02*
X103150500Y-66651250I0J-218750D01*
G01*
X103150500Y-67163750D01*
G75*
G02*
X102931750Y-67382500I-218750J0D01*
G01*
X102494250Y-67382500D01*
G75*
G02*
X102275500Y-67163750I0J218750D01*
G01*
G37*
G36*
G01*
X102236250Y-69290000D02*
X101723750Y-69290000D01*
G75*
G02*
X101505000Y-69071250I0J218750D01*
G01*
X101505000Y-68633750D01*
G75*
G02*
X101723750Y-68415000I218750J0D01*
G01*
X102236250Y-68415000D01*
G75*
G02*
X102455000Y-68633750I0J-218750D01*
G01*
X102455000Y-69071250D01*
G75*
G02*
X102236250Y-69290000I-218750J0D01*
G01*
G37*
G36*
G01*
X102236250Y-70865000D02*
X101723750Y-70865000D01*
G75*
G02*
X101505000Y-70646250I0J218750D01*
G01*
X101505000Y-70208750D01*
G75*
G02*
X101723750Y-69990000I218750J0D01*
G01*
X102236250Y-69990000D01*
G75*
G02*
X102455000Y-70208750I0J-218750D01*
G01*
X102455000Y-70646250D01*
G75*
G02*
X102236250Y-70865000I-218750J0D01*
G01*
G37*
M02*
