G04 #@! TF.GenerationSoftware,KiCad,Pcbnew,5.1.6-c6e7f7d~86~ubuntu18.04.1*
G04 #@! TF.CreationDate,2020-05-18T15:46:42+03:00*
G04 #@! TF.ProjectId,PSLab,50534c61-622e-46b6-9963-61645f706362,v6.1*
G04 #@! TF.SameCoordinates,Original*
G04 #@! TF.FileFunction,Soldermask,Top*
G04 #@! TF.FilePolarity,Negative*
%FSLAX46Y46*%
G04 Gerber Fmt 4.6, Leading zero omitted, Abs format (unit mm)*
G04 Created by KiCad (PCBNEW 5.1.6-c6e7f7d~86~ubuntu18.04.1) date 2020-05-18 15:46:42*
%MOMM*%
%LPD*%
G01*
G04 APERTURE LIST*
%ADD10C,0.100000*%
G04 APERTURE END LIST*
D10*
G36*
X105321493Y-108252963D02*
G01*
X105696730Y-108327602D01*
X105851181Y-108391578D01*
X106206296Y-108538671D01*
X106206297Y-108538672D01*
X106664896Y-108845098D01*
X107054902Y-109235104D01*
X107131672Y-109349999D01*
X107361329Y-109693704D01*
X107433690Y-109868400D01*
X107572398Y-110203270D01*
X107598947Y-110336740D01*
X107680000Y-110744223D01*
X107680000Y-111295777D01*
X107673281Y-111329554D01*
X107572398Y-111836730D01*
X107529622Y-111940000D01*
X107361329Y-112346296D01*
X107361328Y-112346297D01*
X107054902Y-112804896D01*
X106664896Y-113194902D01*
X106358469Y-113399650D01*
X106206296Y-113501329D01*
X105907799Y-113624970D01*
X105696730Y-113712398D01*
X105426253Y-113766199D01*
X105155777Y-113820000D01*
X104604223Y-113820000D01*
X104333747Y-113766199D01*
X104063270Y-113712398D01*
X103852201Y-113624970D01*
X103553704Y-113501329D01*
X103401531Y-113399650D01*
X103095104Y-113194902D01*
X102705098Y-112804896D01*
X102398672Y-112346297D01*
X102398671Y-112346296D01*
X102230378Y-111940000D01*
X102187602Y-111836730D01*
X102086719Y-111329554D01*
X102080000Y-111295777D01*
X102080000Y-110744223D01*
X102161053Y-110336740D01*
X102187602Y-110203270D01*
X102326310Y-109868400D01*
X102398671Y-109693704D01*
X102628328Y-109349999D01*
X102705098Y-109235104D01*
X103095104Y-108845098D01*
X103553703Y-108538672D01*
X103553704Y-108538671D01*
X103908819Y-108391578D01*
X104063270Y-108327602D01*
X104438507Y-108252963D01*
X104604223Y-108220000D01*
X105155777Y-108220000D01*
X105321493Y-108252963D01*
G37*
G36*
X187966253Y-108263801D02*
G01*
X188236730Y-108317602D01*
X188415323Y-108391578D01*
X188746296Y-108528671D01*
X188898469Y-108630350D01*
X189204896Y-108835098D01*
X189594902Y-109225104D01*
X189799650Y-109531531D01*
X189901329Y-109683704D01*
X189914605Y-109715756D01*
X190112398Y-110193270D01*
X190140936Y-110336739D01*
X190210682Y-110687376D01*
X190220000Y-110734224D01*
X190220000Y-111285776D01*
X190112398Y-111826730D01*
X190090830Y-111878800D01*
X189901329Y-112336296D01*
X189858763Y-112400000D01*
X189594902Y-112794896D01*
X189204896Y-113184902D01*
X188898469Y-113389650D01*
X188746296Y-113491329D01*
X188447799Y-113614970D01*
X188236730Y-113702398D01*
X188186456Y-113712398D01*
X187695777Y-113810000D01*
X187144223Y-113810000D01*
X186653544Y-113712398D01*
X186603270Y-113702398D01*
X186392201Y-113614970D01*
X186093704Y-113491329D01*
X185941531Y-113389650D01*
X185635104Y-113184902D01*
X185245098Y-112794896D01*
X184981237Y-112400000D01*
X184938671Y-112336296D01*
X184749170Y-111878800D01*
X184727602Y-111826730D01*
X184620000Y-111285776D01*
X184620000Y-110734224D01*
X184629319Y-110687376D01*
X184699064Y-110336739D01*
X184727602Y-110193270D01*
X184925395Y-109715756D01*
X184938671Y-109683704D01*
X185040350Y-109531531D01*
X185245098Y-109225104D01*
X185635104Y-108835098D01*
X185941531Y-108630350D01*
X186093704Y-108528671D01*
X186424677Y-108391578D01*
X186603270Y-108317602D01*
X186873747Y-108263801D01*
X187144223Y-108210000D01*
X187695777Y-108210000D01*
X187966253Y-108263801D01*
G37*
G36*
X175767614Y-102395989D02*
G01*
X175972365Y-102480800D01*
X176695756Y-102780438D01*
X177531061Y-103338571D01*
X178241429Y-104048939D01*
X178799562Y-104884244D01*
X179008612Y-105388936D01*
X179184011Y-105812386D01*
X179380000Y-106797692D01*
X179380000Y-107802308D01*
X179184011Y-108787614D01*
X179164342Y-108835098D01*
X178799562Y-109715756D01*
X178241429Y-110551061D01*
X177531061Y-111261429D01*
X176695756Y-111819562D01*
X176152063Y-112044767D01*
X175767614Y-112204011D01*
X174782308Y-112400000D01*
X173777692Y-112400000D01*
X172792386Y-112204011D01*
X172407937Y-112044767D01*
X171864244Y-111819562D01*
X171028939Y-111261429D01*
X170318571Y-110551061D01*
X169760438Y-109715756D01*
X169395658Y-108835098D01*
X169375989Y-108787614D01*
X169180000Y-107802308D01*
X169180000Y-106797692D01*
X169375989Y-105812386D01*
X169551388Y-105388936D01*
X169760438Y-104884244D01*
X170318571Y-104048939D01*
X171028939Y-103338571D01*
X171864244Y-102780438D01*
X172587635Y-102480800D01*
X172792386Y-102395989D01*
X173777692Y-102200000D01*
X174782308Y-102200000D01*
X175767614Y-102395989D01*
G37*
G36*
X98522400Y-112046600D02*
G01*
X97722400Y-112046600D01*
X97722400Y-111296600D01*
X98522400Y-111296600D01*
X98522400Y-112046600D01*
G37*
G36*
X150887935Y-110272664D02*
G01*
X151042624Y-110336739D01*
X151042626Y-110336740D01*
X151181844Y-110429762D01*
X151300238Y-110548156D01*
X151393260Y-110687374D01*
X151393261Y-110687376D01*
X151457336Y-110842065D01*
X151490000Y-111006281D01*
X151490000Y-111173719D01*
X151457336Y-111337935D01*
X151422680Y-111421600D01*
X151393260Y-111492626D01*
X151300238Y-111631844D01*
X151181844Y-111750238D01*
X151042626Y-111843260D01*
X151042625Y-111843261D01*
X151042624Y-111843261D01*
X150887935Y-111907336D01*
X150723719Y-111940000D01*
X150556281Y-111940000D01*
X150392065Y-111907336D01*
X150237376Y-111843261D01*
X150237375Y-111843261D01*
X150237374Y-111843260D01*
X150098156Y-111750238D01*
X149979762Y-111631844D01*
X149886740Y-111492626D01*
X149857320Y-111421600D01*
X149822664Y-111337935D01*
X149790000Y-111173719D01*
X149790000Y-111006281D01*
X149822664Y-110842065D01*
X149886739Y-110687376D01*
X149886740Y-110687374D01*
X149979762Y-110548156D01*
X150098156Y-110429762D01*
X150237374Y-110336740D01*
X150237376Y-110336739D01*
X150392065Y-110272664D01*
X150556281Y-110240000D01*
X150723719Y-110240000D01*
X150887935Y-110272664D01*
G37*
G36*
X163587935Y-110272664D02*
G01*
X163742624Y-110336739D01*
X163742626Y-110336740D01*
X163881844Y-110429762D01*
X164000238Y-110548156D01*
X164093260Y-110687374D01*
X164093261Y-110687376D01*
X164157336Y-110842065D01*
X164190000Y-111006281D01*
X164190000Y-111173719D01*
X164157336Y-111337935D01*
X164122680Y-111421600D01*
X164093260Y-111492626D01*
X164000238Y-111631844D01*
X163881844Y-111750238D01*
X163742626Y-111843260D01*
X163742625Y-111843261D01*
X163742624Y-111843261D01*
X163587935Y-111907336D01*
X163423719Y-111940000D01*
X163256281Y-111940000D01*
X163092065Y-111907336D01*
X162937376Y-111843261D01*
X162937375Y-111843261D01*
X162937374Y-111843260D01*
X162798156Y-111750238D01*
X162679762Y-111631844D01*
X162586740Y-111492626D01*
X162557320Y-111421600D01*
X162522664Y-111337935D01*
X162490000Y-111173719D01*
X162490000Y-111006281D01*
X162522664Y-110842065D01*
X162586739Y-110687376D01*
X162586740Y-110687374D01*
X162679762Y-110548156D01*
X162798156Y-110429762D01*
X162937374Y-110336740D01*
X162937376Y-110336739D01*
X163092065Y-110272664D01*
X163256281Y-110240000D01*
X163423719Y-110240000D01*
X163587935Y-110272664D01*
G37*
G36*
X155967935Y-110272664D02*
G01*
X156122624Y-110336739D01*
X156122626Y-110336740D01*
X156261844Y-110429762D01*
X156380238Y-110548156D01*
X156473260Y-110687374D01*
X156473261Y-110687376D01*
X156537336Y-110842065D01*
X156570000Y-111006281D01*
X156570000Y-111173719D01*
X156537336Y-111337935D01*
X156502680Y-111421600D01*
X156473260Y-111492626D01*
X156380238Y-111631844D01*
X156261844Y-111750238D01*
X156122626Y-111843260D01*
X156122625Y-111843261D01*
X156122624Y-111843261D01*
X155967935Y-111907336D01*
X155803719Y-111940000D01*
X155636281Y-111940000D01*
X155472065Y-111907336D01*
X155317376Y-111843261D01*
X155317375Y-111843261D01*
X155317374Y-111843260D01*
X155178156Y-111750238D01*
X155059762Y-111631844D01*
X154966740Y-111492626D01*
X154937320Y-111421600D01*
X154902664Y-111337935D01*
X154870000Y-111173719D01*
X154870000Y-111006281D01*
X154902664Y-110842065D01*
X154966739Y-110687376D01*
X154966740Y-110687374D01*
X155059762Y-110548156D01*
X155178156Y-110429762D01*
X155317374Y-110336740D01*
X155317376Y-110336739D01*
X155472065Y-110272664D01*
X155636281Y-110240000D01*
X155803719Y-110240000D01*
X155967935Y-110272664D01*
G37*
G36*
X153427935Y-110272664D02*
G01*
X153582624Y-110336739D01*
X153582626Y-110336740D01*
X153721844Y-110429762D01*
X153840238Y-110548156D01*
X153933260Y-110687374D01*
X153933261Y-110687376D01*
X153997336Y-110842065D01*
X154030000Y-111006281D01*
X154030000Y-111173719D01*
X153997336Y-111337935D01*
X153962680Y-111421600D01*
X153933260Y-111492626D01*
X153840238Y-111631844D01*
X153721844Y-111750238D01*
X153582626Y-111843260D01*
X153582625Y-111843261D01*
X153582624Y-111843261D01*
X153427935Y-111907336D01*
X153263719Y-111940000D01*
X153096281Y-111940000D01*
X152932065Y-111907336D01*
X152777376Y-111843261D01*
X152777375Y-111843261D01*
X152777374Y-111843260D01*
X152638156Y-111750238D01*
X152519762Y-111631844D01*
X152426740Y-111492626D01*
X152397320Y-111421600D01*
X152362664Y-111337935D01*
X152330000Y-111173719D01*
X152330000Y-111006281D01*
X152362664Y-110842065D01*
X152426739Y-110687376D01*
X152426740Y-110687374D01*
X152519762Y-110548156D01*
X152638156Y-110429762D01*
X152777374Y-110336740D01*
X152777376Y-110336739D01*
X152932065Y-110272664D01*
X153096281Y-110240000D01*
X153263719Y-110240000D01*
X153427935Y-110272664D01*
G37*
G36*
X148347935Y-110272664D02*
G01*
X148502624Y-110336739D01*
X148502626Y-110336740D01*
X148641844Y-110429762D01*
X148760238Y-110548156D01*
X148853260Y-110687374D01*
X148853261Y-110687376D01*
X148917336Y-110842065D01*
X148950000Y-111006281D01*
X148950000Y-111173719D01*
X148917336Y-111337935D01*
X148882680Y-111421600D01*
X148853260Y-111492626D01*
X148760238Y-111631844D01*
X148641844Y-111750238D01*
X148502626Y-111843260D01*
X148502625Y-111843261D01*
X148502624Y-111843261D01*
X148347935Y-111907336D01*
X148183719Y-111940000D01*
X148016281Y-111940000D01*
X147852065Y-111907336D01*
X147697376Y-111843261D01*
X147697375Y-111843261D01*
X147697374Y-111843260D01*
X147558156Y-111750238D01*
X147439762Y-111631844D01*
X147346740Y-111492626D01*
X147317320Y-111421600D01*
X147282664Y-111337935D01*
X147250000Y-111173719D01*
X147250000Y-111006281D01*
X147282664Y-110842065D01*
X147346739Y-110687376D01*
X147346740Y-110687374D01*
X147439762Y-110548156D01*
X147558156Y-110429762D01*
X147697374Y-110336740D01*
X147697376Y-110336739D01*
X147852065Y-110272664D01*
X148016281Y-110240000D01*
X148183719Y-110240000D01*
X148347935Y-110272664D01*
G37*
G36*
X145807935Y-110272664D02*
G01*
X145962624Y-110336739D01*
X145962626Y-110336740D01*
X146101844Y-110429762D01*
X146220238Y-110548156D01*
X146313260Y-110687374D01*
X146313261Y-110687376D01*
X146377336Y-110842065D01*
X146410000Y-111006281D01*
X146410000Y-111173719D01*
X146377336Y-111337935D01*
X146342680Y-111421600D01*
X146313260Y-111492626D01*
X146220238Y-111631844D01*
X146101844Y-111750238D01*
X145962626Y-111843260D01*
X145962625Y-111843261D01*
X145962624Y-111843261D01*
X145807935Y-111907336D01*
X145643719Y-111940000D01*
X145476281Y-111940000D01*
X145312065Y-111907336D01*
X145157376Y-111843261D01*
X145157375Y-111843261D01*
X145157374Y-111843260D01*
X145018156Y-111750238D01*
X144899762Y-111631844D01*
X144806740Y-111492626D01*
X144777320Y-111421600D01*
X144742664Y-111337935D01*
X144710000Y-111173719D01*
X144710000Y-111006281D01*
X144742664Y-110842065D01*
X144806739Y-110687376D01*
X144806740Y-110687374D01*
X144899762Y-110548156D01*
X145018156Y-110429762D01*
X145157374Y-110336740D01*
X145157376Y-110336739D01*
X145312065Y-110272664D01*
X145476281Y-110240000D01*
X145643719Y-110240000D01*
X145807935Y-110272664D01*
G37*
G36*
X143267935Y-110272664D02*
G01*
X143422624Y-110336739D01*
X143422626Y-110336740D01*
X143561844Y-110429762D01*
X143680238Y-110548156D01*
X143773260Y-110687374D01*
X143773261Y-110687376D01*
X143837336Y-110842065D01*
X143870000Y-111006281D01*
X143870000Y-111173719D01*
X143837336Y-111337935D01*
X143802680Y-111421600D01*
X143773260Y-111492626D01*
X143680238Y-111631844D01*
X143561844Y-111750238D01*
X143422626Y-111843260D01*
X143422625Y-111843261D01*
X143422624Y-111843261D01*
X143267935Y-111907336D01*
X143103719Y-111940000D01*
X142936281Y-111940000D01*
X142772065Y-111907336D01*
X142617376Y-111843261D01*
X142617375Y-111843261D01*
X142617374Y-111843260D01*
X142478156Y-111750238D01*
X142359762Y-111631844D01*
X142266740Y-111492626D01*
X142237320Y-111421600D01*
X142202664Y-111337935D01*
X142170000Y-111173719D01*
X142170000Y-111006281D01*
X142202664Y-110842065D01*
X142266739Y-110687376D01*
X142266740Y-110687374D01*
X142359762Y-110548156D01*
X142478156Y-110429762D01*
X142617374Y-110336740D01*
X142617376Y-110336739D01*
X142772065Y-110272664D01*
X142936281Y-110240000D01*
X143103719Y-110240000D01*
X143267935Y-110272664D01*
G37*
G36*
X140727935Y-110272664D02*
G01*
X140882624Y-110336739D01*
X140882626Y-110336740D01*
X141021844Y-110429762D01*
X141140238Y-110548156D01*
X141233260Y-110687374D01*
X141233261Y-110687376D01*
X141297336Y-110842065D01*
X141330000Y-111006281D01*
X141330000Y-111173719D01*
X141297336Y-111337935D01*
X141262680Y-111421600D01*
X141233260Y-111492626D01*
X141140238Y-111631844D01*
X141021844Y-111750238D01*
X140882626Y-111843260D01*
X140882625Y-111843261D01*
X140882624Y-111843261D01*
X140727935Y-111907336D01*
X140563719Y-111940000D01*
X140396281Y-111940000D01*
X140232065Y-111907336D01*
X140077376Y-111843261D01*
X140077375Y-111843261D01*
X140077374Y-111843260D01*
X139938156Y-111750238D01*
X139819762Y-111631844D01*
X139726740Y-111492626D01*
X139697320Y-111421600D01*
X139662664Y-111337935D01*
X139630000Y-111173719D01*
X139630000Y-111006281D01*
X139662664Y-110842065D01*
X139726739Y-110687376D01*
X139726740Y-110687374D01*
X139819762Y-110548156D01*
X139938156Y-110429762D01*
X140077374Y-110336740D01*
X140077376Y-110336739D01*
X140232065Y-110272664D01*
X140396281Y-110240000D01*
X140563719Y-110240000D01*
X140727935Y-110272664D01*
G37*
G36*
X138187935Y-110272664D02*
G01*
X138342624Y-110336739D01*
X138342626Y-110336740D01*
X138481844Y-110429762D01*
X138600238Y-110548156D01*
X138693260Y-110687374D01*
X138693261Y-110687376D01*
X138757336Y-110842065D01*
X138790000Y-111006281D01*
X138790000Y-111173719D01*
X138757336Y-111337935D01*
X138722680Y-111421600D01*
X138693260Y-111492626D01*
X138600238Y-111631844D01*
X138481844Y-111750238D01*
X138342626Y-111843260D01*
X138342625Y-111843261D01*
X138342624Y-111843261D01*
X138187935Y-111907336D01*
X138023719Y-111940000D01*
X137856281Y-111940000D01*
X137692065Y-111907336D01*
X137537376Y-111843261D01*
X137537375Y-111843261D01*
X137537374Y-111843260D01*
X137398156Y-111750238D01*
X137279762Y-111631844D01*
X137186740Y-111492626D01*
X137157320Y-111421600D01*
X137122664Y-111337935D01*
X137090000Y-111173719D01*
X137090000Y-111006281D01*
X137122664Y-110842065D01*
X137186739Y-110687376D01*
X137186740Y-110687374D01*
X137279762Y-110548156D01*
X137398156Y-110429762D01*
X137537374Y-110336740D01*
X137537376Y-110336739D01*
X137692065Y-110272664D01*
X137856281Y-110240000D01*
X138023719Y-110240000D01*
X138187935Y-110272664D01*
G37*
G36*
X136250000Y-111940000D02*
G01*
X134550000Y-111940000D01*
X134550000Y-110240000D01*
X136250000Y-110240000D01*
X136250000Y-111940000D01*
G37*
G36*
X115920000Y-111940000D02*
G01*
X114220000Y-111940000D01*
X114220000Y-110240000D01*
X115920000Y-110240000D01*
X115920000Y-111940000D01*
G37*
G36*
X161047935Y-110272664D02*
G01*
X161202624Y-110336739D01*
X161202626Y-110336740D01*
X161341844Y-110429762D01*
X161460238Y-110548156D01*
X161553260Y-110687374D01*
X161553261Y-110687376D01*
X161617336Y-110842065D01*
X161650000Y-111006281D01*
X161650000Y-111173719D01*
X161617336Y-111337935D01*
X161582680Y-111421600D01*
X161553260Y-111492626D01*
X161460238Y-111631844D01*
X161341844Y-111750238D01*
X161202626Y-111843260D01*
X161202625Y-111843261D01*
X161202624Y-111843261D01*
X161047935Y-111907336D01*
X160883719Y-111940000D01*
X160716281Y-111940000D01*
X160552065Y-111907336D01*
X160397376Y-111843261D01*
X160397375Y-111843261D01*
X160397374Y-111843260D01*
X160258156Y-111750238D01*
X160139762Y-111631844D01*
X160046740Y-111492626D01*
X160017320Y-111421600D01*
X159982664Y-111337935D01*
X159950000Y-111173719D01*
X159950000Y-111006281D01*
X159982664Y-110842065D01*
X160046739Y-110687376D01*
X160046740Y-110687374D01*
X160139762Y-110548156D01*
X160258156Y-110429762D01*
X160397374Y-110336740D01*
X160397376Y-110336739D01*
X160552065Y-110272664D01*
X160716281Y-110240000D01*
X160883719Y-110240000D01*
X161047935Y-110272664D01*
G37*
G36*
X130557935Y-110272664D02*
G01*
X130712624Y-110336739D01*
X130712626Y-110336740D01*
X130851844Y-110429762D01*
X130970238Y-110548156D01*
X131063260Y-110687374D01*
X131063261Y-110687376D01*
X131127336Y-110842065D01*
X131160000Y-111006281D01*
X131160000Y-111173719D01*
X131127336Y-111337935D01*
X131092680Y-111421600D01*
X131063260Y-111492626D01*
X130970238Y-111631844D01*
X130851844Y-111750238D01*
X130712626Y-111843260D01*
X130712625Y-111843261D01*
X130712624Y-111843261D01*
X130557935Y-111907336D01*
X130393719Y-111940000D01*
X130226281Y-111940000D01*
X130062065Y-111907336D01*
X129907376Y-111843261D01*
X129907375Y-111843261D01*
X129907374Y-111843260D01*
X129768156Y-111750238D01*
X129649762Y-111631844D01*
X129556740Y-111492626D01*
X129527320Y-111421600D01*
X129492664Y-111337935D01*
X129460000Y-111173719D01*
X129460000Y-111006281D01*
X129492664Y-110842065D01*
X129556739Y-110687376D01*
X129556740Y-110687374D01*
X129649762Y-110548156D01*
X129768156Y-110429762D01*
X129907374Y-110336740D01*
X129907376Y-110336739D01*
X130062065Y-110272664D01*
X130226281Y-110240000D01*
X130393719Y-110240000D01*
X130557935Y-110272664D01*
G37*
G36*
X128017935Y-110272664D02*
G01*
X128172624Y-110336739D01*
X128172626Y-110336740D01*
X128311844Y-110429762D01*
X128430238Y-110548156D01*
X128523260Y-110687374D01*
X128523261Y-110687376D01*
X128587336Y-110842065D01*
X128620000Y-111006281D01*
X128620000Y-111173719D01*
X128587336Y-111337935D01*
X128552680Y-111421600D01*
X128523260Y-111492626D01*
X128430238Y-111631844D01*
X128311844Y-111750238D01*
X128172626Y-111843260D01*
X128172625Y-111843261D01*
X128172624Y-111843261D01*
X128017935Y-111907336D01*
X127853719Y-111940000D01*
X127686281Y-111940000D01*
X127522065Y-111907336D01*
X127367376Y-111843261D01*
X127367375Y-111843261D01*
X127367374Y-111843260D01*
X127228156Y-111750238D01*
X127109762Y-111631844D01*
X127016740Y-111492626D01*
X126987320Y-111421600D01*
X126952664Y-111337935D01*
X126920000Y-111173719D01*
X126920000Y-111006281D01*
X126952664Y-110842065D01*
X127016739Y-110687376D01*
X127016740Y-110687374D01*
X127109762Y-110548156D01*
X127228156Y-110429762D01*
X127367374Y-110336740D01*
X127367376Y-110336739D01*
X127522065Y-110272664D01*
X127686281Y-110240000D01*
X127853719Y-110240000D01*
X128017935Y-110272664D01*
G37*
G36*
X125477935Y-110272664D02*
G01*
X125632624Y-110336739D01*
X125632626Y-110336740D01*
X125771844Y-110429762D01*
X125890238Y-110548156D01*
X125983260Y-110687374D01*
X125983261Y-110687376D01*
X126047336Y-110842065D01*
X126080000Y-111006281D01*
X126080000Y-111173719D01*
X126047336Y-111337935D01*
X126012680Y-111421600D01*
X125983260Y-111492626D01*
X125890238Y-111631844D01*
X125771844Y-111750238D01*
X125632626Y-111843260D01*
X125632625Y-111843261D01*
X125632624Y-111843261D01*
X125477935Y-111907336D01*
X125313719Y-111940000D01*
X125146281Y-111940000D01*
X124982065Y-111907336D01*
X124827376Y-111843261D01*
X124827375Y-111843261D01*
X124827374Y-111843260D01*
X124688156Y-111750238D01*
X124569762Y-111631844D01*
X124476740Y-111492626D01*
X124447320Y-111421600D01*
X124412664Y-111337935D01*
X124380000Y-111173719D01*
X124380000Y-111006281D01*
X124412664Y-110842065D01*
X124476739Y-110687376D01*
X124476740Y-110687374D01*
X124569762Y-110548156D01*
X124688156Y-110429762D01*
X124827374Y-110336740D01*
X124827376Y-110336739D01*
X124982065Y-110272664D01*
X125146281Y-110240000D01*
X125313719Y-110240000D01*
X125477935Y-110272664D01*
G37*
G36*
X158507935Y-110272664D02*
G01*
X158662624Y-110336739D01*
X158662626Y-110336740D01*
X158801844Y-110429762D01*
X158920238Y-110548156D01*
X159013260Y-110687374D01*
X159013261Y-110687376D01*
X159077336Y-110842065D01*
X159110000Y-111006281D01*
X159110000Y-111173719D01*
X159077336Y-111337935D01*
X159042680Y-111421600D01*
X159013260Y-111492626D01*
X158920238Y-111631844D01*
X158801844Y-111750238D01*
X158662626Y-111843260D01*
X158662625Y-111843261D01*
X158662624Y-111843261D01*
X158507935Y-111907336D01*
X158343719Y-111940000D01*
X158176281Y-111940000D01*
X158012065Y-111907336D01*
X157857376Y-111843261D01*
X157857375Y-111843261D01*
X157857374Y-111843260D01*
X157718156Y-111750238D01*
X157599762Y-111631844D01*
X157506740Y-111492626D01*
X157477320Y-111421600D01*
X157442664Y-111337935D01*
X157410000Y-111173719D01*
X157410000Y-111006281D01*
X157442664Y-110842065D01*
X157506739Y-110687376D01*
X157506740Y-110687374D01*
X157599762Y-110548156D01*
X157718156Y-110429762D01*
X157857374Y-110336740D01*
X157857376Y-110336739D01*
X158012065Y-110272664D01*
X158176281Y-110240000D01*
X158343719Y-110240000D01*
X158507935Y-110272664D01*
G37*
G36*
X120397935Y-110272664D02*
G01*
X120552624Y-110336739D01*
X120552626Y-110336740D01*
X120691844Y-110429762D01*
X120810238Y-110548156D01*
X120903260Y-110687374D01*
X120903261Y-110687376D01*
X120967336Y-110842065D01*
X121000000Y-111006281D01*
X121000000Y-111173719D01*
X120967336Y-111337935D01*
X120932680Y-111421600D01*
X120903260Y-111492626D01*
X120810238Y-111631844D01*
X120691844Y-111750238D01*
X120552626Y-111843260D01*
X120552625Y-111843261D01*
X120552624Y-111843261D01*
X120397935Y-111907336D01*
X120233719Y-111940000D01*
X120066281Y-111940000D01*
X119902065Y-111907336D01*
X119747376Y-111843261D01*
X119747375Y-111843261D01*
X119747374Y-111843260D01*
X119608156Y-111750238D01*
X119489762Y-111631844D01*
X119396740Y-111492626D01*
X119367320Y-111421600D01*
X119332664Y-111337935D01*
X119300000Y-111173719D01*
X119300000Y-111006281D01*
X119332664Y-110842065D01*
X119396739Y-110687376D01*
X119396740Y-110687374D01*
X119489762Y-110548156D01*
X119608156Y-110429762D01*
X119747374Y-110336740D01*
X119747376Y-110336739D01*
X119902065Y-110272664D01*
X120066281Y-110240000D01*
X120233719Y-110240000D01*
X120397935Y-110272664D01*
G37*
G36*
X117857935Y-110272664D02*
G01*
X118012624Y-110336739D01*
X118012626Y-110336740D01*
X118151844Y-110429762D01*
X118270238Y-110548156D01*
X118363260Y-110687374D01*
X118363261Y-110687376D01*
X118427336Y-110842065D01*
X118460000Y-111006281D01*
X118460000Y-111173719D01*
X118427336Y-111337935D01*
X118392680Y-111421600D01*
X118363260Y-111492626D01*
X118270238Y-111631844D01*
X118151844Y-111750238D01*
X118012626Y-111843260D01*
X118012625Y-111843261D01*
X118012624Y-111843261D01*
X117857935Y-111907336D01*
X117693719Y-111940000D01*
X117526281Y-111940000D01*
X117362065Y-111907336D01*
X117207376Y-111843261D01*
X117207375Y-111843261D01*
X117207374Y-111843260D01*
X117068156Y-111750238D01*
X116949762Y-111631844D01*
X116856740Y-111492626D01*
X116827320Y-111421600D01*
X116792664Y-111337935D01*
X116760000Y-111173719D01*
X116760000Y-111006281D01*
X116792664Y-110842065D01*
X116856739Y-110687376D01*
X116856740Y-110687374D01*
X116949762Y-110548156D01*
X117068156Y-110429762D01*
X117207374Y-110336740D01*
X117207376Y-110336739D01*
X117362065Y-110272664D01*
X117526281Y-110240000D01*
X117693719Y-110240000D01*
X117857935Y-110272664D01*
G37*
G36*
X122937935Y-110272664D02*
G01*
X123092624Y-110336739D01*
X123092626Y-110336740D01*
X123231844Y-110429762D01*
X123350238Y-110548156D01*
X123443260Y-110687374D01*
X123443261Y-110687376D01*
X123507336Y-110842065D01*
X123540000Y-111006281D01*
X123540000Y-111173719D01*
X123507336Y-111337935D01*
X123472680Y-111421600D01*
X123443260Y-111492626D01*
X123350238Y-111631844D01*
X123231844Y-111750238D01*
X123092626Y-111843260D01*
X123092625Y-111843261D01*
X123092624Y-111843261D01*
X122937935Y-111907336D01*
X122773719Y-111940000D01*
X122606281Y-111940000D01*
X122442065Y-111907336D01*
X122287376Y-111843261D01*
X122287375Y-111843261D01*
X122287374Y-111843260D01*
X122148156Y-111750238D01*
X122029762Y-111631844D01*
X121936740Y-111492626D01*
X121907320Y-111421600D01*
X121872664Y-111337935D01*
X121840000Y-111173719D01*
X121840000Y-111006281D01*
X121872664Y-110842065D01*
X121936739Y-110687376D01*
X121936740Y-110687374D01*
X122029762Y-110548156D01*
X122148156Y-110429762D01*
X122287374Y-110336740D01*
X122287376Y-110336739D01*
X122442065Y-110272664D01*
X122606281Y-110240000D01*
X122773719Y-110240000D01*
X122937935Y-110272664D01*
G37*
G36*
X100960000Y-111921600D02*
G01*
X100060000Y-111921600D01*
X100060000Y-111421600D01*
X100960000Y-111421600D01*
X100960000Y-111921600D01*
G37*
G36*
X110714243Y-110898014D02*
G01*
X110714246Y-110898015D01*
X110714245Y-110898015D01*
X110805239Y-110935706D01*
X110846463Y-110963251D01*
X110887130Y-110990424D01*
X110956776Y-111060070D01*
X111011495Y-111141963D01*
X111049186Y-111232957D01*
X111068400Y-111329553D01*
X111068400Y-111428047D01*
X111049186Y-111524643D01*
X111049185Y-111524645D01*
X111011494Y-111615639D01*
X110956775Y-111697531D01*
X110887131Y-111767175D01*
X110805239Y-111821894D01*
X110805238Y-111821895D01*
X110805237Y-111821895D01*
X110714243Y-111859586D01*
X110617647Y-111878800D01*
X110519153Y-111878800D01*
X110422557Y-111859586D01*
X110331563Y-111821895D01*
X110331562Y-111821895D01*
X110331561Y-111821894D01*
X110249669Y-111767175D01*
X110180025Y-111697531D01*
X110125306Y-111615639D01*
X110087615Y-111524645D01*
X110087614Y-111524643D01*
X110068400Y-111428047D01*
X110068400Y-111329553D01*
X110087614Y-111232957D01*
X110125305Y-111141963D01*
X110180024Y-111060070D01*
X110249670Y-110990424D01*
X110290337Y-110963251D01*
X110331561Y-110935706D01*
X110422555Y-110898015D01*
X110422554Y-110898015D01*
X110422557Y-110898014D01*
X110519153Y-110878800D01*
X110617647Y-110878800D01*
X110714243Y-110898014D01*
G37*
G36*
X93011600Y-111568400D02*
G01*
X92111600Y-111568400D01*
X92111600Y-109868400D01*
X93011600Y-109868400D01*
X93011600Y-111568400D01*
G37*
G36*
X96411600Y-111568400D02*
G01*
X95511600Y-111568400D01*
X95511600Y-109868400D01*
X96411600Y-109868400D01*
X96411600Y-111568400D01*
G37*
G36*
X98522400Y-110546600D02*
G01*
X97722400Y-110546600D01*
X97722400Y-109796600D01*
X98522400Y-109796600D01*
X98522400Y-110546600D01*
G37*
G36*
X100960000Y-110421600D02*
G01*
X100060000Y-110421600D01*
X100060000Y-109921600D01*
X100960000Y-109921600D01*
X100960000Y-110421600D01*
G37*
G36*
X183130000Y-105250000D02*
G01*
X183130000Y-109350000D01*
X180630000Y-110350000D01*
X180630000Y-104250000D01*
X183130000Y-105250000D01*
G37*
G36*
X167930000Y-110350000D02*
G01*
X165430000Y-109350000D01*
X165430000Y-105250000D01*
X167930000Y-104250000D01*
X167930000Y-110350000D01*
G37*
G36*
X100960000Y-108645000D02*
G01*
X100060000Y-108645000D01*
X100060000Y-108145000D01*
X100960000Y-108145000D01*
X100960000Y-108645000D01*
G37*
G36*
X94454966Y-107000021D02*
G01*
X94591457Y-107056558D01*
X94714297Y-107138637D01*
X94818763Y-107243103D01*
X94900842Y-107365943D01*
X94957379Y-107502434D01*
X94986200Y-107647330D01*
X94986200Y-107795070D01*
X94957379Y-107939966D01*
X94900842Y-108076457D01*
X94818763Y-108199297D01*
X94714297Y-108303763D01*
X94591457Y-108385842D01*
X94454966Y-108442379D01*
X94310070Y-108471200D01*
X94162330Y-108471200D01*
X94017434Y-108442379D01*
X93880943Y-108385842D01*
X93758103Y-108303763D01*
X93653637Y-108199297D01*
X93571558Y-108076457D01*
X93515021Y-107939966D01*
X93486200Y-107795070D01*
X93486200Y-107647330D01*
X93515021Y-107502434D01*
X93571558Y-107365943D01*
X93653637Y-107243103D01*
X93758103Y-107138637D01*
X93880943Y-107056558D01*
X94017434Y-107000021D01*
X94162330Y-106971200D01*
X94310070Y-106971200D01*
X94454966Y-107000021D01*
G37*
G36*
X97553766Y-106949221D02*
G01*
X97690257Y-107005758D01*
X97813097Y-107087837D01*
X97917563Y-107192303D01*
X97999642Y-107315143D01*
X98056179Y-107451634D01*
X98085000Y-107596530D01*
X98085000Y-107744270D01*
X98056179Y-107889166D01*
X97999642Y-108025657D01*
X97917563Y-108148497D01*
X97813097Y-108252963D01*
X97690257Y-108335042D01*
X97553766Y-108391579D01*
X97408870Y-108420400D01*
X97261130Y-108420400D01*
X97116234Y-108391579D01*
X96979743Y-108335042D01*
X96856903Y-108252963D01*
X96752437Y-108148497D01*
X96670358Y-108025657D01*
X96613821Y-107889166D01*
X96585000Y-107744270D01*
X96585000Y-107596530D01*
X96613821Y-107451634D01*
X96670358Y-107315143D01*
X96752437Y-107192303D01*
X96856903Y-107087837D01*
X96979743Y-107005758D01*
X97116234Y-106949221D01*
X97261130Y-106920400D01*
X97408870Y-106920400D01*
X97553766Y-106949221D01*
G37*
G36*
X163650000Y-108420000D02*
G01*
X161850000Y-108420000D01*
X161850000Y-107420000D01*
X163650000Y-107420000D01*
X163650000Y-108420000D01*
G37*
G36*
X131910000Y-107960000D02*
G01*
X130410000Y-107960000D01*
X130410000Y-107360000D01*
X131910000Y-107360000D01*
X131910000Y-107960000D01*
G37*
G36*
X137310000Y-107960000D02*
G01*
X135810000Y-107960000D01*
X135810000Y-107360000D01*
X137310000Y-107360000D01*
X137310000Y-107960000D01*
G37*
G36*
X185425843Y-106194214D02*
G01*
X185425846Y-106194215D01*
X185425845Y-106194215D01*
X185516839Y-106231906D01*
X185598731Y-106286625D01*
X185668375Y-106356269D01*
X185703075Y-106408200D01*
X185723095Y-106438163D01*
X185760786Y-106529157D01*
X185780000Y-106625753D01*
X185780000Y-106724247D01*
X185760786Y-106820843D01*
X185760785Y-106820845D01*
X185723094Y-106911839D01*
X185668375Y-106993731D01*
X185598731Y-107063375D01*
X185516839Y-107118094D01*
X185516838Y-107118095D01*
X185516837Y-107118095D01*
X185425843Y-107155786D01*
X185329247Y-107175000D01*
X185230753Y-107175000D01*
X185134157Y-107155786D01*
X185043163Y-107118095D01*
X185043162Y-107118095D01*
X185043161Y-107118094D01*
X184961269Y-107063375D01*
X184891625Y-106993731D01*
X184836906Y-106911839D01*
X184799215Y-106820845D01*
X184799214Y-106820843D01*
X184780000Y-106724247D01*
X184780000Y-106625753D01*
X184799214Y-106529157D01*
X184836905Y-106438163D01*
X184856926Y-106408200D01*
X184891625Y-106356269D01*
X184961269Y-106286625D01*
X185043161Y-106231906D01*
X185134155Y-106194215D01*
X185134154Y-106194215D01*
X185134157Y-106194214D01*
X185230753Y-106175000D01*
X185329247Y-106175000D01*
X185425843Y-106194214D01*
G37*
G36*
X100960000Y-107145000D02*
G01*
X100060000Y-107145000D01*
X100060000Y-106645000D01*
X100960000Y-106645000D01*
X100960000Y-107145000D01*
G37*
G36*
X115089800Y-107050200D02*
G01*
X114339800Y-107050200D01*
X114339800Y-106250200D01*
X115089800Y-106250200D01*
X115089800Y-107050200D01*
G37*
G36*
X119769800Y-107050200D02*
G01*
X119019800Y-107050200D01*
X119019800Y-106250200D01*
X119769800Y-106250200D01*
X119769800Y-107050200D01*
G37*
G36*
X124449800Y-107050200D02*
G01*
X123699800Y-107050200D01*
X123699800Y-106250200D01*
X124449800Y-106250200D01*
X124449800Y-107050200D01*
G37*
G36*
X155145000Y-106965000D02*
G01*
X153595000Y-106965000D01*
X153595000Y-106365000D01*
X155145000Y-106365000D01*
X155145000Y-106965000D01*
G37*
G36*
X160545000Y-106965000D02*
G01*
X158995000Y-106965000D01*
X158995000Y-106365000D01*
X160545000Y-106365000D01*
X160545000Y-106965000D01*
G37*
G36*
X108144800Y-106908200D02*
G01*
X107244800Y-106908200D01*
X107244800Y-106408200D01*
X108144800Y-106408200D01*
X108144800Y-106908200D01*
G37*
G36*
X122184800Y-106900200D02*
G01*
X121284800Y-106900200D01*
X121284800Y-106400200D01*
X122184800Y-106400200D01*
X122184800Y-106900200D01*
G37*
G36*
X117504800Y-106900200D02*
G01*
X116604800Y-106900200D01*
X116604800Y-106400200D01*
X117504800Y-106400200D01*
X117504800Y-106900200D01*
G37*
G36*
X112824800Y-106900200D02*
G01*
X111924800Y-106900200D01*
X111924800Y-106400200D01*
X112824800Y-106400200D01*
X112824800Y-106900200D01*
G37*
G36*
X129204800Y-106900200D02*
G01*
X128304800Y-106900200D01*
X128304800Y-106400200D01*
X129204800Y-106400200D01*
X129204800Y-106900200D01*
G37*
G36*
X126864800Y-106900200D02*
G01*
X125964800Y-106900200D01*
X125964800Y-106400200D01*
X126864800Y-106400200D01*
X126864800Y-106900200D01*
G37*
G36*
X110484800Y-106900200D02*
G01*
X109584800Y-106900200D01*
X109584800Y-106400200D01*
X110484800Y-106400200D01*
X110484800Y-106900200D01*
G37*
G36*
X137310000Y-106690000D02*
G01*
X135810000Y-106690000D01*
X135810000Y-106090000D01*
X137310000Y-106090000D01*
X137310000Y-106690000D01*
G37*
G36*
X131910000Y-106690000D02*
G01*
X130410000Y-106690000D01*
X130410000Y-106090000D01*
X131910000Y-106090000D01*
X131910000Y-106690000D01*
G37*
G36*
X163650000Y-105920000D02*
G01*
X161850000Y-105920000D01*
X161850000Y-104920000D01*
X163650000Y-104920000D01*
X163650000Y-105920000D01*
G37*
G36*
X160545000Y-105695000D02*
G01*
X158995000Y-105695000D01*
X158995000Y-105095000D01*
X160545000Y-105095000D01*
X160545000Y-105695000D01*
G37*
G36*
X155145000Y-105695000D02*
G01*
X153595000Y-105695000D01*
X153595000Y-105095000D01*
X155145000Y-105095000D01*
X155145000Y-105695000D01*
G37*
G36*
X115089800Y-105550200D02*
G01*
X114339800Y-105550200D01*
X114339800Y-104750200D01*
X115089800Y-104750200D01*
X115089800Y-105550200D01*
G37*
G36*
X119769800Y-105550200D02*
G01*
X119019800Y-105550200D01*
X119019800Y-104750200D01*
X119769800Y-104750200D01*
X119769800Y-105550200D01*
G37*
G36*
X124449800Y-105550200D02*
G01*
X123699800Y-105550200D01*
X123699800Y-104750200D01*
X124449800Y-104750200D01*
X124449800Y-105550200D01*
G37*
G36*
X102586735Y-103754264D02*
G01*
X102741424Y-103818339D01*
X102741426Y-103818340D01*
X102880644Y-103911362D01*
X102999038Y-104029756D01*
X103079382Y-104150000D01*
X103092061Y-104168976D01*
X103156136Y-104323665D01*
X103188800Y-104487881D01*
X103188800Y-104655319D01*
X103156136Y-104819535D01*
X103092061Y-104974224D01*
X103092060Y-104974226D01*
X102999038Y-105113444D01*
X102880644Y-105231838D01*
X102741426Y-105324860D01*
X102741425Y-105324861D01*
X102741424Y-105324861D01*
X102586735Y-105388936D01*
X102422519Y-105421600D01*
X102255081Y-105421600D01*
X102090865Y-105388936D01*
X101936176Y-105324861D01*
X101936175Y-105324861D01*
X101936174Y-105324860D01*
X101796956Y-105231838D01*
X101678562Y-105113444D01*
X101585540Y-104974226D01*
X101585539Y-104974224D01*
X101521464Y-104819535D01*
X101488800Y-104655319D01*
X101488800Y-104487881D01*
X101521464Y-104323665D01*
X101585539Y-104168976D01*
X101598218Y-104150000D01*
X101678562Y-104029756D01*
X101796956Y-103911362D01*
X101936174Y-103818340D01*
X101936176Y-103818339D01*
X102090865Y-103754264D01*
X102255081Y-103721600D01*
X102422519Y-103721600D01*
X102586735Y-103754264D01*
G37*
G36*
X97506735Y-103754264D02*
G01*
X97661424Y-103818339D01*
X97661426Y-103818340D01*
X97800644Y-103911362D01*
X97919038Y-104029756D01*
X97999382Y-104150000D01*
X98012061Y-104168976D01*
X98076136Y-104323665D01*
X98108800Y-104487881D01*
X98108800Y-104655319D01*
X98076136Y-104819535D01*
X98012061Y-104974224D01*
X98012060Y-104974226D01*
X97919038Y-105113444D01*
X97800644Y-105231838D01*
X97661426Y-105324860D01*
X97661425Y-105324861D01*
X97661424Y-105324861D01*
X97506735Y-105388936D01*
X97342519Y-105421600D01*
X97175081Y-105421600D01*
X97010865Y-105388936D01*
X96856176Y-105324861D01*
X96856175Y-105324861D01*
X96856174Y-105324860D01*
X96716956Y-105231838D01*
X96598562Y-105113444D01*
X96505540Y-104974226D01*
X96505539Y-104974224D01*
X96441464Y-104819535D01*
X96408800Y-104655319D01*
X96408800Y-104487881D01*
X96441464Y-104323665D01*
X96505539Y-104168976D01*
X96518218Y-104150000D01*
X96598562Y-104029756D01*
X96716956Y-103911362D01*
X96856174Y-103818340D01*
X96856176Y-103818339D01*
X97010865Y-103754264D01*
X97175081Y-103721600D01*
X97342519Y-103721600D01*
X97506735Y-103754264D01*
G37*
G36*
X100046735Y-103754264D02*
G01*
X100201424Y-103818339D01*
X100201426Y-103818340D01*
X100340644Y-103911362D01*
X100459038Y-104029756D01*
X100539382Y-104150000D01*
X100552061Y-104168976D01*
X100616136Y-104323665D01*
X100648800Y-104487881D01*
X100648800Y-104655319D01*
X100616136Y-104819535D01*
X100552061Y-104974224D01*
X100552060Y-104974226D01*
X100459038Y-105113444D01*
X100340644Y-105231838D01*
X100201426Y-105324860D01*
X100201425Y-105324861D01*
X100201424Y-105324861D01*
X100046735Y-105388936D01*
X99882519Y-105421600D01*
X99715081Y-105421600D01*
X99550865Y-105388936D01*
X99396176Y-105324861D01*
X99396175Y-105324861D01*
X99396174Y-105324860D01*
X99256956Y-105231838D01*
X99138562Y-105113444D01*
X99045540Y-104974226D01*
X99045539Y-104974224D01*
X98981464Y-104819535D01*
X98948800Y-104655319D01*
X98948800Y-104487881D01*
X98981464Y-104323665D01*
X99045539Y-104168976D01*
X99058218Y-104150000D01*
X99138562Y-104029756D01*
X99256956Y-103911362D01*
X99396174Y-103818340D01*
X99396176Y-103818339D01*
X99550865Y-103754264D01*
X99715081Y-103721600D01*
X99882519Y-103721600D01*
X100046735Y-103754264D01*
G37*
G36*
X95568800Y-105421600D02*
G01*
X93868800Y-105421600D01*
X93868800Y-103721600D01*
X95568800Y-103721600D01*
X95568800Y-105421600D01*
G37*
G36*
X137310000Y-105420000D02*
G01*
X135810000Y-105420000D01*
X135810000Y-104820000D01*
X137310000Y-104820000D01*
X137310000Y-105420000D01*
G37*
G36*
X131910000Y-105420000D02*
G01*
X130410000Y-105420000D01*
X130410000Y-104820000D01*
X131910000Y-104820000D01*
X131910000Y-105420000D01*
G37*
G36*
X108144800Y-105408200D02*
G01*
X107244800Y-105408200D01*
X107244800Y-104908200D01*
X108144800Y-104908200D01*
X108144800Y-105408200D01*
G37*
G36*
X117504800Y-105400200D02*
G01*
X116604800Y-105400200D01*
X116604800Y-104900200D01*
X117504800Y-104900200D01*
X117504800Y-105400200D01*
G37*
G36*
X110484800Y-105400200D02*
G01*
X109584800Y-105400200D01*
X109584800Y-104900200D01*
X110484800Y-104900200D01*
X110484800Y-105400200D01*
G37*
G36*
X112824800Y-105400200D02*
G01*
X111924800Y-105400200D01*
X111924800Y-104900200D01*
X112824800Y-104900200D01*
X112824800Y-105400200D01*
G37*
G36*
X126864800Y-105400200D02*
G01*
X125964800Y-105400200D01*
X125964800Y-104900200D01*
X126864800Y-104900200D01*
X126864800Y-105400200D01*
G37*
G36*
X122184800Y-105400200D02*
G01*
X121284800Y-105400200D01*
X121284800Y-104900200D01*
X122184800Y-104900200D01*
X122184800Y-105400200D01*
G37*
G36*
X129204800Y-105400200D02*
G01*
X128304800Y-105400200D01*
X128304800Y-104900200D01*
X129204800Y-104900200D01*
X129204800Y-105400200D01*
G37*
G36*
X160545000Y-104425000D02*
G01*
X158995000Y-104425000D01*
X158995000Y-103825000D01*
X160545000Y-103825000D01*
X160545000Y-104425000D01*
G37*
G36*
X155145000Y-104425000D02*
G01*
X153595000Y-104425000D01*
X153595000Y-103825000D01*
X155145000Y-103825000D01*
X155145000Y-104425000D01*
G37*
G36*
X185137935Y-102612664D02*
G01*
X185292624Y-102676739D01*
X185292626Y-102676740D01*
X185431844Y-102769762D01*
X185550238Y-102888156D01*
X185612140Y-102980800D01*
X185643261Y-103027376D01*
X185707336Y-103182065D01*
X185740000Y-103346281D01*
X185740000Y-103513719D01*
X185707336Y-103677935D01*
X185646419Y-103825000D01*
X185643260Y-103832626D01*
X185550238Y-103971844D01*
X185431844Y-104090238D01*
X185292626Y-104183260D01*
X185292625Y-104183261D01*
X185292624Y-104183261D01*
X185137935Y-104247336D01*
X184973719Y-104280000D01*
X184806281Y-104280000D01*
X184642065Y-104247336D01*
X184487376Y-104183261D01*
X184487375Y-104183261D01*
X184487374Y-104183260D01*
X184348156Y-104090238D01*
X184229762Y-103971844D01*
X184136740Y-103832626D01*
X184133581Y-103825000D01*
X184072664Y-103677935D01*
X184040000Y-103513719D01*
X184040000Y-103346281D01*
X184072664Y-103182065D01*
X184136739Y-103027376D01*
X184167860Y-102980800D01*
X184229762Y-102888156D01*
X184348156Y-102769762D01*
X184487374Y-102676740D01*
X184487376Y-102676739D01*
X184642065Y-102612664D01*
X184806281Y-102580000D01*
X184973719Y-102580000D01*
X185137935Y-102612664D01*
G37*
G36*
X187677935Y-102612664D02*
G01*
X187832624Y-102676739D01*
X187832626Y-102676740D01*
X187971844Y-102769762D01*
X188090238Y-102888156D01*
X188152140Y-102980800D01*
X188183261Y-103027376D01*
X188247336Y-103182065D01*
X188280000Y-103346281D01*
X188280000Y-103513719D01*
X188247336Y-103677935D01*
X188186419Y-103825000D01*
X188183260Y-103832626D01*
X188090238Y-103971844D01*
X187971844Y-104090238D01*
X187832626Y-104183260D01*
X187832625Y-104183261D01*
X187832624Y-104183261D01*
X187677935Y-104247336D01*
X187513719Y-104280000D01*
X187346281Y-104280000D01*
X187182065Y-104247336D01*
X187027376Y-104183261D01*
X187027375Y-104183261D01*
X187027374Y-104183260D01*
X186888156Y-104090238D01*
X186769762Y-103971844D01*
X186676740Y-103832626D01*
X186673581Y-103825000D01*
X186612664Y-103677935D01*
X186580000Y-103513719D01*
X186580000Y-103346281D01*
X186612664Y-103182065D01*
X186676739Y-103027376D01*
X186707860Y-102980800D01*
X186769762Y-102888156D01*
X186888156Y-102769762D01*
X187027374Y-102676740D01*
X187027376Y-102676739D01*
X187182065Y-102612664D01*
X187346281Y-102580000D01*
X187513719Y-102580000D01*
X187677935Y-102612664D01*
G37*
G36*
X131910000Y-104150000D02*
G01*
X130410000Y-104150000D01*
X130410000Y-103550000D01*
X131910000Y-103550000D01*
X131910000Y-104150000D01*
G37*
G36*
X137310000Y-104150000D02*
G01*
X135810000Y-104150000D01*
X135810000Y-103550000D01*
X137310000Y-103550000D01*
X137310000Y-104150000D01*
G37*
G36*
X122835000Y-103455000D02*
G01*
X121285000Y-103455000D01*
X121285000Y-102855000D01*
X122835000Y-102855000D01*
X122835000Y-103455000D01*
G37*
G36*
X117435000Y-103455000D02*
G01*
X115885000Y-103455000D01*
X115885000Y-102855000D01*
X117435000Y-102855000D01*
X117435000Y-103455000D01*
G37*
G36*
X160545000Y-103155000D02*
G01*
X158995000Y-103155000D01*
X158995000Y-102555000D01*
X160545000Y-102555000D01*
X160545000Y-103155000D01*
G37*
G36*
X155145000Y-103155000D02*
G01*
X153595000Y-103155000D01*
X153595000Y-102555000D01*
X155145000Y-102555000D01*
X155145000Y-103155000D01*
G37*
G36*
X129129800Y-103130800D02*
G01*
X128379800Y-103130800D01*
X128379800Y-102330800D01*
X129129800Y-102330800D01*
X129129800Y-103130800D01*
G37*
G36*
X112749800Y-103130800D02*
G01*
X111999800Y-103130800D01*
X111999800Y-102330800D01*
X112749800Y-102330800D01*
X112749800Y-103130800D01*
G37*
G36*
X126789800Y-103130800D02*
G01*
X126039800Y-103130800D01*
X126039800Y-102330800D01*
X126789800Y-102330800D01*
X126789800Y-103130800D01*
G37*
G36*
X108069800Y-103105400D02*
G01*
X107319800Y-103105400D01*
X107319800Y-102305400D01*
X108069800Y-102305400D01*
X108069800Y-103105400D01*
G37*
G36*
X110484800Y-102980800D02*
G01*
X109584800Y-102980800D01*
X109584800Y-102480800D01*
X110484800Y-102480800D01*
X110484800Y-102980800D01*
G37*
G36*
X94966735Y-101214264D02*
G01*
X95121424Y-101278339D01*
X95121426Y-101278340D01*
X95260644Y-101371362D01*
X95379038Y-101489756D01*
X95456308Y-101605400D01*
X95472061Y-101628976D01*
X95536136Y-101783665D01*
X95568800Y-101947881D01*
X95568800Y-102115319D01*
X95536136Y-102279535D01*
X95487898Y-102395990D01*
X95472060Y-102434226D01*
X95379038Y-102573444D01*
X95260644Y-102691838D01*
X95121426Y-102784860D01*
X95121425Y-102784861D01*
X95121424Y-102784861D01*
X94966735Y-102848936D01*
X94802519Y-102881600D01*
X94635081Y-102881600D01*
X94470865Y-102848936D01*
X94316176Y-102784861D01*
X94316175Y-102784861D01*
X94316174Y-102784860D01*
X94176956Y-102691838D01*
X94058562Y-102573444D01*
X93965540Y-102434226D01*
X93949702Y-102395990D01*
X93901464Y-102279535D01*
X93868800Y-102115319D01*
X93868800Y-101947881D01*
X93901464Y-101783665D01*
X93965539Y-101628976D01*
X93981292Y-101605400D01*
X94058562Y-101489756D01*
X94176956Y-101371362D01*
X94316174Y-101278340D01*
X94316176Y-101278339D01*
X94470865Y-101214264D01*
X94635081Y-101181600D01*
X94802519Y-101181600D01*
X94966735Y-101214264D01*
G37*
G36*
X97506735Y-101214264D02*
G01*
X97661424Y-101278339D01*
X97661426Y-101278340D01*
X97800644Y-101371362D01*
X97919038Y-101489756D01*
X97996308Y-101605400D01*
X98012061Y-101628976D01*
X98076136Y-101783665D01*
X98108800Y-101947881D01*
X98108800Y-102115319D01*
X98076136Y-102279535D01*
X98027898Y-102395990D01*
X98012060Y-102434226D01*
X97919038Y-102573444D01*
X97800644Y-102691838D01*
X97661426Y-102784860D01*
X97661425Y-102784861D01*
X97661424Y-102784861D01*
X97506735Y-102848936D01*
X97342519Y-102881600D01*
X97175081Y-102881600D01*
X97010865Y-102848936D01*
X96856176Y-102784861D01*
X96856175Y-102784861D01*
X96856174Y-102784860D01*
X96716956Y-102691838D01*
X96598562Y-102573444D01*
X96505540Y-102434226D01*
X96489702Y-102395990D01*
X96441464Y-102279535D01*
X96408800Y-102115319D01*
X96408800Y-101947881D01*
X96441464Y-101783665D01*
X96505539Y-101628976D01*
X96521292Y-101605400D01*
X96598562Y-101489756D01*
X96716956Y-101371362D01*
X96856174Y-101278340D01*
X96856176Y-101278339D01*
X97010865Y-101214264D01*
X97175081Y-101181600D01*
X97342519Y-101181600D01*
X97506735Y-101214264D01*
G37*
G36*
X100046735Y-101214264D02*
G01*
X100201424Y-101278339D01*
X100201426Y-101278340D01*
X100340644Y-101371362D01*
X100459038Y-101489756D01*
X100536308Y-101605400D01*
X100552061Y-101628976D01*
X100616136Y-101783665D01*
X100648800Y-101947881D01*
X100648800Y-102115319D01*
X100616136Y-102279535D01*
X100567898Y-102395990D01*
X100552060Y-102434226D01*
X100459038Y-102573444D01*
X100340644Y-102691838D01*
X100201426Y-102784860D01*
X100201425Y-102784861D01*
X100201424Y-102784861D01*
X100046735Y-102848936D01*
X99882519Y-102881600D01*
X99715081Y-102881600D01*
X99550865Y-102848936D01*
X99396176Y-102784861D01*
X99396175Y-102784861D01*
X99396174Y-102784860D01*
X99256956Y-102691838D01*
X99138562Y-102573444D01*
X99045540Y-102434226D01*
X99029702Y-102395990D01*
X98981464Y-102279535D01*
X98948800Y-102115319D01*
X98948800Y-101947881D01*
X98981464Y-101783665D01*
X99045539Y-101628976D01*
X99061292Y-101605400D01*
X99138562Y-101489756D01*
X99256956Y-101371362D01*
X99396174Y-101278340D01*
X99396176Y-101278339D01*
X99550865Y-101214264D01*
X99715081Y-101181600D01*
X99882519Y-101181600D01*
X100046735Y-101214264D01*
G37*
G36*
X102586735Y-101214264D02*
G01*
X102741424Y-101278339D01*
X102741426Y-101278340D01*
X102880644Y-101371362D01*
X102999038Y-101489756D01*
X103076308Y-101605400D01*
X103092061Y-101628976D01*
X103156136Y-101783665D01*
X103188800Y-101947881D01*
X103188800Y-102115319D01*
X103156136Y-102279535D01*
X103107898Y-102395990D01*
X103092060Y-102434226D01*
X102999038Y-102573444D01*
X102880644Y-102691838D01*
X102741426Y-102784860D01*
X102741425Y-102784861D01*
X102741424Y-102784861D01*
X102586735Y-102848936D01*
X102422519Y-102881600D01*
X102255081Y-102881600D01*
X102090865Y-102848936D01*
X101936176Y-102784861D01*
X101936175Y-102784861D01*
X101936174Y-102784860D01*
X101796956Y-102691838D01*
X101678562Y-102573444D01*
X101585540Y-102434226D01*
X101569702Y-102395990D01*
X101521464Y-102279535D01*
X101488800Y-102115319D01*
X101488800Y-101947881D01*
X101521464Y-101783665D01*
X101585539Y-101628976D01*
X101601292Y-101605400D01*
X101678562Y-101489756D01*
X101796956Y-101371362D01*
X101936174Y-101278340D01*
X101936176Y-101278339D01*
X102090865Y-101214264D01*
X102255081Y-101181600D01*
X102422519Y-101181600D01*
X102586735Y-101214264D01*
G37*
G36*
X131910000Y-102880000D02*
G01*
X130410000Y-102880000D01*
X130410000Y-102280000D01*
X131910000Y-102280000D01*
X131910000Y-102880000D01*
G37*
G36*
X137310000Y-102880000D02*
G01*
X135810000Y-102880000D01*
X135810000Y-102280000D01*
X137310000Y-102280000D01*
X137310000Y-102880000D01*
G37*
G36*
X117435000Y-102185000D02*
G01*
X115885000Y-102185000D01*
X115885000Y-101585000D01*
X117435000Y-101585000D01*
X117435000Y-102185000D01*
G37*
G36*
X122835000Y-102185000D02*
G01*
X121285000Y-102185000D01*
X121285000Y-101585000D01*
X122835000Y-101585000D01*
X122835000Y-102185000D01*
G37*
G36*
X149960000Y-102070000D02*
G01*
X149460000Y-102070000D01*
X149460000Y-101170000D01*
X149960000Y-101170000D01*
X149960000Y-102070000D01*
G37*
G36*
X148460000Y-102070000D02*
G01*
X147960000Y-102070000D01*
X147960000Y-101170000D01*
X148460000Y-101170000D01*
X148460000Y-102070000D01*
G37*
G36*
X187677935Y-100072664D02*
G01*
X187832624Y-100136739D01*
X187832626Y-100136740D01*
X187971844Y-100229762D01*
X188090238Y-100348156D01*
X188183260Y-100487374D01*
X188183261Y-100487376D01*
X188247336Y-100642065D01*
X188280000Y-100806281D01*
X188280000Y-100973719D01*
X188247336Y-101137935D01*
X188183261Y-101292624D01*
X188183260Y-101292626D01*
X188090238Y-101431844D01*
X187971844Y-101550238D01*
X187832626Y-101643260D01*
X187832625Y-101643261D01*
X187832624Y-101643261D01*
X187677935Y-101707336D01*
X187513719Y-101740000D01*
X187346281Y-101740000D01*
X187182065Y-101707336D01*
X187027376Y-101643261D01*
X187027375Y-101643261D01*
X187027374Y-101643260D01*
X186888156Y-101550238D01*
X186769762Y-101431844D01*
X186676740Y-101292626D01*
X186676739Y-101292624D01*
X186612664Y-101137935D01*
X186580000Y-100973719D01*
X186580000Y-100806281D01*
X186612664Y-100642065D01*
X186676739Y-100487376D01*
X186676740Y-100487374D01*
X186769762Y-100348156D01*
X186888156Y-100229762D01*
X187027374Y-100136740D01*
X187027376Y-100136739D01*
X187182065Y-100072664D01*
X187346281Y-100040000D01*
X187513719Y-100040000D01*
X187677935Y-100072664D01*
G37*
G36*
X185137935Y-100072664D02*
G01*
X185292624Y-100136739D01*
X185292626Y-100136740D01*
X185431844Y-100229762D01*
X185550238Y-100348156D01*
X185643260Y-100487374D01*
X185643261Y-100487376D01*
X185707336Y-100642065D01*
X185740000Y-100806281D01*
X185740000Y-100973719D01*
X185707336Y-101137935D01*
X185643261Y-101292624D01*
X185643260Y-101292626D01*
X185550238Y-101431844D01*
X185431844Y-101550238D01*
X185292626Y-101643260D01*
X185292625Y-101643261D01*
X185292624Y-101643261D01*
X185137935Y-101707336D01*
X184973719Y-101740000D01*
X184806281Y-101740000D01*
X184642065Y-101707336D01*
X184487376Y-101643261D01*
X184487375Y-101643261D01*
X184487374Y-101643260D01*
X184348156Y-101550238D01*
X184229762Y-101431844D01*
X184136740Y-101292626D01*
X184136739Y-101292624D01*
X184072664Y-101137935D01*
X184040000Y-100973719D01*
X184040000Y-100806281D01*
X184072664Y-100642065D01*
X184136739Y-100487376D01*
X184136740Y-100487374D01*
X184229762Y-100348156D01*
X184348156Y-100229762D01*
X184487374Y-100136740D01*
X184487376Y-100136739D01*
X184642065Y-100072664D01*
X184806281Y-100040000D01*
X184973719Y-100040000D01*
X185137935Y-100072664D01*
G37*
G36*
X126789800Y-101630800D02*
G01*
X126039800Y-101630800D01*
X126039800Y-100830800D01*
X126789800Y-100830800D01*
X126789800Y-101630800D01*
G37*
G36*
X129129800Y-101630800D02*
G01*
X128379800Y-101630800D01*
X128379800Y-100830800D01*
X129129800Y-100830800D01*
X129129800Y-101630800D01*
G37*
G36*
X112749800Y-101630800D02*
G01*
X111999800Y-101630800D01*
X111999800Y-100830800D01*
X112749800Y-100830800D01*
X112749800Y-101630800D01*
G37*
G36*
X131910000Y-101610000D02*
G01*
X130410000Y-101610000D01*
X130410000Y-101010000D01*
X131910000Y-101010000D01*
X131910000Y-101610000D01*
G37*
G36*
X137310000Y-101610000D02*
G01*
X135810000Y-101610000D01*
X135810000Y-101010000D01*
X137310000Y-101010000D01*
X137310000Y-101610000D01*
G37*
G36*
X108069800Y-101605400D02*
G01*
X107319800Y-101605400D01*
X107319800Y-100805400D01*
X108069800Y-100805400D01*
X108069800Y-101605400D01*
G37*
G36*
X110484800Y-101480800D02*
G01*
X109584800Y-101480800D01*
X109584800Y-100980800D01*
X110484800Y-100980800D01*
X110484800Y-101480800D01*
G37*
G36*
X154760000Y-101405000D02*
G01*
X153960000Y-101405000D01*
X153960000Y-100655000D01*
X154760000Y-100655000D01*
X154760000Y-101405000D01*
G37*
G36*
X156260000Y-101405000D02*
G01*
X155460000Y-101405000D01*
X155460000Y-100655000D01*
X156260000Y-100655000D01*
X156260000Y-101405000D01*
G37*
G36*
X151985000Y-101340000D02*
G01*
X151235000Y-101340000D01*
X151235000Y-100540000D01*
X151985000Y-100540000D01*
X151985000Y-101340000D01*
G37*
G36*
X117435000Y-100915000D02*
G01*
X115885000Y-100915000D01*
X115885000Y-100315000D01*
X117435000Y-100315000D01*
X117435000Y-100915000D01*
G37*
G36*
X122835000Y-100915000D02*
G01*
X121285000Y-100915000D01*
X121285000Y-100315000D01*
X122835000Y-100315000D01*
X122835000Y-100915000D01*
G37*
G36*
X131910000Y-100340000D02*
G01*
X130410000Y-100340000D01*
X130410000Y-99740000D01*
X131910000Y-99740000D01*
X131910000Y-100340000D01*
G37*
G36*
X137310000Y-100340000D02*
G01*
X135810000Y-100340000D01*
X135810000Y-99740000D01*
X137310000Y-99740000D01*
X137310000Y-100340000D01*
G37*
G36*
X127449566Y-98414821D02*
G01*
X127586057Y-98471358D01*
X127708897Y-98553437D01*
X127813363Y-98657903D01*
X127895442Y-98780743D01*
X127951979Y-98917234D01*
X127980800Y-99062130D01*
X127980800Y-99209870D01*
X127951979Y-99354766D01*
X127895442Y-99491257D01*
X127813363Y-99614097D01*
X127708897Y-99718563D01*
X127586057Y-99800642D01*
X127449566Y-99857179D01*
X127304670Y-99886000D01*
X127156930Y-99886000D01*
X127012034Y-99857179D01*
X126875543Y-99800642D01*
X126752703Y-99718563D01*
X126648237Y-99614097D01*
X126566158Y-99491257D01*
X126509621Y-99354766D01*
X126480800Y-99209870D01*
X126480800Y-99062130D01*
X126509621Y-98917234D01*
X126566158Y-98780743D01*
X126648237Y-98657903D01*
X126752703Y-98553437D01*
X126875543Y-98471358D01*
X127012034Y-98414821D01*
X127156930Y-98386000D01*
X127304670Y-98386000D01*
X127449566Y-98414821D01*
G37*
G36*
X151985000Y-99840000D02*
G01*
X151235000Y-99840000D01*
X151235000Y-99040000D01*
X151985000Y-99040000D01*
X151985000Y-99840000D01*
G37*
G36*
X117435000Y-99645000D02*
G01*
X115885000Y-99645000D01*
X115885000Y-99045000D01*
X117435000Y-99045000D01*
X117435000Y-99645000D01*
G37*
G36*
X122835000Y-99645000D02*
G01*
X121285000Y-99645000D01*
X121285000Y-99045000D01*
X122835000Y-99045000D01*
X122835000Y-99645000D01*
G37*
G36*
X149980000Y-99470000D02*
G01*
X149480000Y-99470000D01*
X149480000Y-98570000D01*
X149980000Y-98570000D01*
X149980000Y-99470000D01*
G37*
G36*
X148480000Y-99470000D02*
G01*
X147980000Y-99470000D01*
X147980000Y-98570000D01*
X148480000Y-98570000D01*
X148480000Y-99470000D01*
G37*
G36*
X165155000Y-99365000D02*
G01*
X163605000Y-99365000D01*
X163605000Y-98765000D01*
X165155000Y-98765000D01*
X165155000Y-99365000D01*
G37*
G36*
X170555000Y-99365000D02*
G01*
X169005000Y-99365000D01*
X169005000Y-98765000D01*
X170555000Y-98765000D01*
X170555000Y-99365000D01*
G37*
G36*
X160525000Y-99325000D02*
G01*
X158975000Y-99325000D01*
X158975000Y-98725000D01*
X160525000Y-98725000D01*
X160525000Y-99325000D01*
G37*
G36*
X155125000Y-99325000D02*
G01*
X153575000Y-99325000D01*
X153575000Y-98725000D01*
X155125000Y-98725000D01*
X155125000Y-99325000D01*
G37*
G36*
X92905000Y-99225000D02*
G01*
X91005000Y-99225000D01*
X91005000Y-97925000D01*
X92905000Y-97925000D01*
X92905000Y-99225000D01*
G37*
G36*
X142320000Y-99215000D02*
G01*
X141520000Y-99215000D01*
X141520000Y-98465000D01*
X142320000Y-98465000D01*
X142320000Y-99215000D01*
G37*
G36*
X140820000Y-99215000D02*
G01*
X140020000Y-99215000D01*
X140020000Y-98465000D01*
X140820000Y-98465000D01*
X140820000Y-99215000D01*
G37*
G36*
X185137935Y-97532664D02*
G01*
X185292624Y-97596739D01*
X185292626Y-97596740D01*
X185431844Y-97689762D01*
X185550238Y-97808156D01*
X185628310Y-97925000D01*
X185643261Y-97947376D01*
X185707336Y-98102065D01*
X185740000Y-98266281D01*
X185740000Y-98433719D01*
X185707336Y-98597935D01*
X185682496Y-98657903D01*
X185643260Y-98752626D01*
X185550238Y-98891844D01*
X185431844Y-99010238D01*
X185292626Y-99103260D01*
X185292625Y-99103261D01*
X185292624Y-99103261D01*
X185137935Y-99167336D01*
X184973719Y-99200000D01*
X184806281Y-99200000D01*
X184642065Y-99167336D01*
X184487376Y-99103261D01*
X184487375Y-99103261D01*
X184487374Y-99103260D01*
X184348156Y-99010238D01*
X184229762Y-98891844D01*
X184136740Y-98752626D01*
X184097504Y-98657903D01*
X184072664Y-98597935D01*
X184040000Y-98433719D01*
X184040000Y-98266281D01*
X184072664Y-98102065D01*
X184136739Y-97947376D01*
X184151690Y-97925000D01*
X184229762Y-97808156D01*
X184348156Y-97689762D01*
X184487374Y-97596740D01*
X184487376Y-97596739D01*
X184642065Y-97532664D01*
X184806281Y-97500000D01*
X184973719Y-97500000D01*
X185137935Y-97532664D01*
G37*
G36*
X187677935Y-97532664D02*
G01*
X187832624Y-97596739D01*
X187832626Y-97596740D01*
X187971844Y-97689762D01*
X188090238Y-97808156D01*
X188168310Y-97925000D01*
X188183261Y-97947376D01*
X188247336Y-98102065D01*
X188280000Y-98266281D01*
X188280000Y-98433719D01*
X188247336Y-98597935D01*
X188222496Y-98657903D01*
X188183260Y-98752626D01*
X188090238Y-98891844D01*
X187971844Y-99010238D01*
X187832626Y-99103260D01*
X187832625Y-99103261D01*
X187832624Y-99103261D01*
X187677935Y-99167336D01*
X187513719Y-99200000D01*
X187346281Y-99200000D01*
X187182065Y-99167336D01*
X187027376Y-99103261D01*
X187027375Y-99103261D01*
X187027374Y-99103260D01*
X186888156Y-99010238D01*
X186769762Y-98891844D01*
X186676740Y-98752626D01*
X186637504Y-98657903D01*
X186612664Y-98597935D01*
X186580000Y-98433719D01*
X186580000Y-98266281D01*
X186612664Y-98102065D01*
X186676739Y-97947376D01*
X186691690Y-97925000D01*
X186769762Y-97808156D01*
X186888156Y-97689762D01*
X187027374Y-97596740D01*
X187027376Y-97596739D01*
X187182065Y-97532664D01*
X187346281Y-97500000D01*
X187513719Y-97500000D01*
X187677935Y-97532664D01*
G37*
G36*
X180450000Y-98900000D02*
G01*
X179950000Y-98900000D01*
X179950000Y-98000000D01*
X180450000Y-98000000D01*
X180450000Y-98900000D01*
G37*
G36*
X181950000Y-98900000D02*
G01*
X181450000Y-98900000D01*
X181450000Y-98000000D01*
X181950000Y-98000000D01*
X181950000Y-98900000D01*
G37*
G36*
X178350000Y-98900000D02*
G01*
X177850000Y-98900000D01*
X177850000Y-98000000D01*
X178350000Y-98000000D01*
X178350000Y-98900000D01*
G37*
G36*
X173250000Y-98900000D02*
G01*
X172750000Y-98900000D01*
X172750000Y-98000000D01*
X173250000Y-98000000D01*
X173250000Y-98900000D01*
G37*
G36*
X176850000Y-98900000D02*
G01*
X176350000Y-98900000D01*
X176350000Y-98000000D01*
X176850000Y-98000000D01*
X176850000Y-98900000D01*
G37*
G36*
X174750000Y-98900000D02*
G01*
X174250000Y-98900000D01*
X174250000Y-98000000D01*
X174750000Y-98000000D01*
X174750000Y-98900000D01*
G37*
G36*
X170555000Y-98095000D02*
G01*
X169005000Y-98095000D01*
X169005000Y-97495000D01*
X170555000Y-97495000D01*
X170555000Y-98095000D01*
G37*
G36*
X165155000Y-98095000D02*
G01*
X163605000Y-98095000D01*
X163605000Y-97495000D01*
X165155000Y-97495000D01*
X165155000Y-98095000D01*
G37*
G36*
X160525000Y-98055000D02*
G01*
X158975000Y-98055000D01*
X158975000Y-97455000D01*
X160525000Y-97455000D01*
X160525000Y-98055000D01*
G37*
G36*
X155125000Y-98055000D02*
G01*
X153575000Y-98055000D01*
X153575000Y-97455000D01*
X155125000Y-97455000D01*
X155125000Y-98055000D01*
G37*
G36*
X122700000Y-98025000D02*
G01*
X121900000Y-98025000D01*
X121900000Y-97275000D01*
X122700000Y-97275000D01*
X122700000Y-98025000D01*
G37*
G36*
X124200000Y-98025000D02*
G01*
X123400000Y-98025000D01*
X123400000Y-97275000D01*
X124200000Y-97275000D01*
X124200000Y-98025000D01*
G37*
G36*
X117000000Y-98025000D02*
G01*
X116200000Y-98025000D01*
X116200000Y-97275000D01*
X117000000Y-97275000D01*
X117000000Y-98025000D01*
G37*
G36*
X115500000Y-98025000D02*
G01*
X114700000Y-98025000D01*
X114700000Y-97275000D01*
X115500000Y-97275000D01*
X115500000Y-98025000D01*
G37*
G36*
X151975000Y-97080000D02*
G01*
X151225000Y-97080000D01*
X151225000Y-96280000D01*
X151975000Y-96280000D01*
X151975000Y-97080000D01*
G37*
G36*
X148480000Y-96870000D02*
G01*
X147980000Y-96870000D01*
X147980000Y-95970000D01*
X148480000Y-95970000D01*
X148480000Y-96870000D01*
G37*
G36*
X149980000Y-96870000D02*
G01*
X149480000Y-96870000D01*
X149480000Y-95970000D01*
X149980000Y-95970000D01*
X149980000Y-96870000D01*
G37*
G36*
X165155000Y-96825000D02*
G01*
X163605000Y-96825000D01*
X163605000Y-96225000D01*
X165155000Y-96225000D01*
X165155000Y-96825000D01*
G37*
G36*
X170555000Y-96825000D02*
G01*
X169005000Y-96825000D01*
X169005000Y-96225000D01*
X170555000Y-96225000D01*
X170555000Y-96825000D01*
G37*
G36*
X155125000Y-96785000D02*
G01*
X153575000Y-96785000D01*
X153575000Y-96185000D01*
X155125000Y-96185000D01*
X155125000Y-96785000D01*
G37*
G36*
X160525000Y-96785000D02*
G01*
X158975000Y-96785000D01*
X158975000Y-96185000D01*
X160525000Y-96185000D01*
X160525000Y-96785000D01*
G37*
G36*
X138335000Y-96770000D02*
G01*
X137785000Y-96770000D01*
X137785000Y-95270000D01*
X138335000Y-95270000D01*
X138335000Y-96770000D01*
G37*
G36*
X134335000Y-96770000D02*
G01*
X133785000Y-96770000D01*
X133785000Y-95270000D01*
X134335000Y-95270000D01*
X134335000Y-96770000D01*
G37*
G36*
X135135000Y-96770000D02*
G01*
X134585000Y-96770000D01*
X134585000Y-95270000D01*
X135135000Y-95270000D01*
X135135000Y-96770000D01*
G37*
G36*
X137535000Y-96770000D02*
G01*
X136985000Y-96770000D01*
X136985000Y-95270000D01*
X137535000Y-95270000D01*
X137535000Y-96770000D01*
G37*
G36*
X136735000Y-96770000D02*
G01*
X136185000Y-96770000D01*
X136185000Y-95270000D01*
X136735000Y-95270000D01*
X136735000Y-96770000D01*
G37*
G36*
X135935000Y-96770000D02*
G01*
X135385000Y-96770000D01*
X135385000Y-95270000D01*
X135935000Y-95270000D01*
X135935000Y-96770000D01*
G37*
G36*
X140735000Y-96770000D02*
G01*
X140185000Y-96770000D01*
X140185000Y-95270000D01*
X140735000Y-95270000D01*
X140735000Y-96770000D01*
G37*
G36*
X139135000Y-96770000D02*
G01*
X138585000Y-96770000D01*
X138585000Y-95270000D01*
X139135000Y-95270000D01*
X139135000Y-96770000D01*
G37*
G36*
X142335000Y-96770000D02*
G01*
X141785000Y-96770000D01*
X141785000Y-95270000D01*
X142335000Y-95270000D01*
X142335000Y-96770000D01*
G37*
G36*
X139935000Y-96770000D02*
G01*
X139385000Y-96770000D01*
X139385000Y-95270000D01*
X139935000Y-95270000D01*
X139935000Y-96770000D01*
G37*
G36*
X141535000Y-96770000D02*
G01*
X140985000Y-96770000D01*
X140985000Y-95270000D01*
X141535000Y-95270000D01*
X141535000Y-96770000D01*
G37*
G36*
X107655000Y-96725000D02*
G01*
X106455000Y-96725000D01*
X106455000Y-95725000D01*
X107655000Y-95725000D01*
X107655000Y-96725000D01*
G37*
G36*
X187677935Y-94992664D02*
G01*
X187832624Y-95056739D01*
X187832626Y-95056740D01*
X187971844Y-95149762D01*
X188090238Y-95268156D01*
X188178333Y-95400000D01*
X188183261Y-95407376D01*
X188247336Y-95562065D01*
X188280000Y-95726281D01*
X188280000Y-95893719D01*
X188247336Y-96057935D01*
X188194703Y-96185000D01*
X188183260Y-96212626D01*
X188090238Y-96351844D01*
X187971844Y-96470238D01*
X187832626Y-96563260D01*
X187832625Y-96563261D01*
X187832624Y-96563261D01*
X187677935Y-96627336D01*
X187513719Y-96660000D01*
X187346281Y-96660000D01*
X187182065Y-96627336D01*
X187027376Y-96563261D01*
X187027375Y-96563261D01*
X187027374Y-96563260D01*
X186888156Y-96470238D01*
X186769762Y-96351844D01*
X186676740Y-96212626D01*
X186665297Y-96185000D01*
X186612664Y-96057935D01*
X186580000Y-95893719D01*
X186580000Y-95726281D01*
X186612664Y-95562065D01*
X186676739Y-95407376D01*
X186681667Y-95400000D01*
X186769762Y-95268156D01*
X186888156Y-95149762D01*
X187027374Y-95056740D01*
X187027376Y-95056739D01*
X187182065Y-94992664D01*
X187346281Y-94960000D01*
X187513719Y-94960000D01*
X187677935Y-94992664D01*
G37*
G36*
X185137935Y-94992664D02*
G01*
X185292624Y-95056739D01*
X185292626Y-95056740D01*
X185431844Y-95149762D01*
X185550238Y-95268156D01*
X185638333Y-95400000D01*
X185643261Y-95407376D01*
X185707336Y-95562065D01*
X185740000Y-95726281D01*
X185740000Y-95893719D01*
X185707336Y-96057935D01*
X185654703Y-96185000D01*
X185643260Y-96212626D01*
X185550238Y-96351844D01*
X185431844Y-96470238D01*
X185292626Y-96563260D01*
X185292625Y-96563261D01*
X185292624Y-96563261D01*
X185137935Y-96627336D01*
X184973719Y-96660000D01*
X184806281Y-96660000D01*
X184642065Y-96627336D01*
X184487376Y-96563261D01*
X184487375Y-96563261D01*
X184487374Y-96563260D01*
X184348156Y-96470238D01*
X184229762Y-96351844D01*
X184136740Y-96212626D01*
X184125297Y-96185000D01*
X184072664Y-96057935D01*
X184040000Y-95893719D01*
X184040000Y-95726281D01*
X184072664Y-95562065D01*
X184136739Y-95407376D01*
X184141667Y-95400000D01*
X184229762Y-95268156D01*
X184348156Y-95149762D01*
X184487374Y-95056740D01*
X184487376Y-95056739D01*
X184642065Y-94992664D01*
X184806281Y-94960000D01*
X184973719Y-94960000D01*
X185137935Y-94992664D01*
G37*
G36*
X174750000Y-96300000D02*
G01*
X174250000Y-96300000D01*
X174250000Y-95400000D01*
X174750000Y-95400000D01*
X174750000Y-96300000D01*
G37*
G36*
X173250000Y-96300000D02*
G01*
X172750000Y-96300000D01*
X172750000Y-95400000D01*
X173250000Y-95400000D01*
X173250000Y-96300000D01*
G37*
G36*
X180450000Y-96300000D02*
G01*
X179950000Y-96300000D01*
X179950000Y-95400000D01*
X180450000Y-95400000D01*
X180450000Y-96300000D01*
G37*
G36*
X181950000Y-96300000D02*
G01*
X181450000Y-96300000D01*
X181450000Y-95400000D01*
X181950000Y-95400000D01*
X181950000Y-96300000D01*
G37*
G36*
X178500000Y-96225000D02*
G01*
X177700000Y-96225000D01*
X177700000Y-95475000D01*
X178500000Y-95475000D01*
X178500000Y-96225000D01*
G37*
G36*
X177000000Y-96225000D02*
G01*
X176200000Y-96225000D01*
X176200000Y-95475000D01*
X177000000Y-95475000D01*
X177000000Y-96225000D01*
G37*
G36*
X151975000Y-95580000D02*
G01*
X151225000Y-95580000D01*
X151225000Y-94780000D01*
X151975000Y-94780000D01*
X151975000Y-95580000D01*
G37*
G36*
X170555000Y-95555000D02*
G01*
X169005000Y-95555000D01*
X169005000Y-94955000D01*
X170555000Y-94955000D01*
X170555000Y-95555000D01*
G37*
G36*
X165155000Y-95555000D02*
G01*
X163605000Y-95555000D01*
X163605000Y-94955000D01*
X165155000Y-94955000D01*
X165155000Y-95555000D01*
G37*
G36*
X155125000Y-95515000D02*
G01*
X153575000Y-95515000D01*
X153575000Y-94915000D01*
X155125000Y-94915000D01*
X155125000Y-95515000D01*
G37*
G36*
X160525000Y-95515000D02*
G01*
X158975000Y-95515000D01*
X158975000Y-94915000D01*
X160525000Y-94915000D01*
X160525000Y-95515000D01*
G37*
G36*
X121147935Y-93522664D02*
G01*
X121302624Y-93586739D01*
X121302626Y-93586740D01*
X121441844Y-93679762D01*
X121560238Y-93798156D01*
X121644992Y-93925000D01*
X121653261Y-93937376D01*
X121717336Y-94092065D01*
X121750000Y-94256281D01*
X121750000Y-94423719D01*
X121717336Y-94587935D01*
X121702311Y-94624207D01*
X121653260Y-94742626D01*
X121560238Y-94881844D01*
X121441844Y-95000238D01*
X121302626Y-95093260D01*
X121302625Y-95093261D01*
X121302624Y-95093261D01*
X121147935Y-95157336D01*
X120983719Y-95190000D01*
X120816281Y-95190000D01*
X120652065Y-95157336D01*
X120497376Y-95093261D01*
X120497375Y-95093261D01*
X120497374Y-95093260D01*
X120358156Y-95000238D01*
X120239762Y-94881844D01*
X120146740Y-94742626D01*
X120097689Y-94624207D01*
X120082664Y-94587935D01*
X120050000Y-94423719D01*
X120050000Y-94256281D01*
X120082664Y-94092065D01*
X120146739Y-93937376D01*
X120155008Y-93925000D01*
X120239762Y-93798156D01*
X120358156Y-93679762D01*
X120497374Y-93586740D01*
X120497376Y-93586739D01*
X120652065Y-93522664D01*
X120816281Y-93490000D01*
X120983719Y-93490000D01*
X121147935Y-93522664D01*
G37*
G36*
X116670000Y-95190000D02*
G01*
X114970000Y-95190000D01*
X114970000Y-93490000D01*
X116670000Y-93490000D01*
X116670000Y-95190000D01*
G37*
G36*
X123687935Y-93522664D02*
G01*
X123842624Y-93586739D01*
X123842626Y-93586740D01*
X123981844Y-93679762D01*
X124100238Y-93798156D01*
X124184992Y-93925000D01*
X124193261Y-93937376D01*
X124257336Y-94092065D01*
X124290000Y-94256281D01*
X124290000Y-94423719D01*
X124257336Y-94587935D01*
X124242311Y-94624207D01*
X124193260Y-94742626D01*
X124100238Y-94881844D01*
X123981844Y-95000238D01*
X123842626Y-95093260D01*
X123842625Y-95093261D01*
X123842624Y-95093261D01*
X123687935Y-95157336D01*
X123523719Y-95190000D01*
X123356281Y-95190000D01*
X123192065Y-95157336D01*
X123037376Y-95093261D01*
X123037375Y-95093261D01*
X123037374Y-95093260D01*
X122898156Y-95000238D01*
X122779762Y-94881844D01*
X122686740Y-94742626D01*
X122637689Y-94624207D01*
X122622664Y-94587935D01*
X122590000Y-94423719D01*
X122590000Y-94256281D01*
X122622664Y-94092065D01*
X122686739Y-93937376D01*
X122695008Y-93925000D01*
X122779762Y-93798156D01*
X122898156Y-93679762D01*
X123037374Y-93586740D01*
X123037376Y-93586739D01*
X123192065Y-93522664D01*
X123356281Y-93490000D01*
X123523719Y-93490000D01*
X123687935Y-93522664D01*
G37*
G36*
X126227935Y-93522664D02*
G01*
X126382624Y-93586739D01*
X126382626Y-93586740D01*
X126521844Y-93679762D01*
X126640238Y-93798156D01*
X126724992Y-93925000D01*
X126733261Y-93937376D01*
X126797336Y-94092065D01*
X126830000Y-94256281D01*
X126830000Y-94423719D01*
X126797336Y-94587935D01*
X126782311Y-94624207D01*
X126733260Y-94742626D01*
X126640238Y-94881844D01*
X126521844Y-95000238D01*
X126382626Y-95093260D01*
X126382625Y-95093261D01*
X126382624Y-95093261D01*
X126227935Y-95157336D01*
X126063719Y-95190000D01*
X125896281Y-95190000D01*
X125732065Y-95157336D01*
X125577376Y-95093261D01*
X125577375Y-95093261D01*
X125577374Y-95093260D01*
X125438156Y-95000238D01*
X125319762Y-94881844D01*
X125226740Y-94742626D01*
X125177689Y-94624207D01*
X125162664Y-94587935D01*
X125130000Y-94423719D01*
X125130000Y-94256281D01*
X125162664Y-94092065D01*
X125226739Y-93937376D01*
X125235008Y-93925000D01*
X125319762Y-93798156D01*
X125438156Y-93679762D01*
X125577374Y-93586740D01*
X125577376Y-93586739D01*
X125732065Y-93522664D01*
X125896281Y-93490000D01*
X126063719Y-93490000D01*
X126227935Y-93522664D01*
G37*
G36*
X118607935Y-93522664D02*
G01*
X118762624Y-93586739D01*
X118762626Y-93586740D01*
X118901844Y-93679762D01*
X119020238Y-93798156D01*
X119104992Y-93925000D01*
X119113261Y-93937376D01*
X119177336Y-94092065D01*
X119210000Y-94256281D01*
X119210000Y-94423719D01*
X119177336Y-94587935D01*
X119162311Y-94624207D01*
X119113260Y-94742626D01*
X119020238Y-94881844D01*
X118901844Y-95000238D01*
X118762626Y-95093260D01*
X118762625Y-95093261D01*
X118762624Y-95093261D01*
X118607935Y-95157336D01*
X118443719Y-95190000D01*
X118276281Y-95190000D01*
X118112065Y-95157336D01*
X117957376Y-95093261D01*
X117957375Y-95093261D01*
X117957374Y-95093260D01*
X117818156Y-95000238D01*
X117699762Y-94881844D01*
X117606740Y-94742626D01*
X117557689Y-94624207D01*
X117542664Y-94587935D01*
X117510000Y-94423719D01*
X117510000Y-94256281D01*
X117542664Y-94092065D01*
X117606739Y-93937376D01*
X117615008Y-93925000D01*
X117699762Y-93798156D01*
X117818156Y-93679762D01*
X117957374Y-93586740D01*
X117957376Y-93586739D01*
X118112065Y-93522664D01*
X118276281Y-93490000D01*
X118443719Y-93490000D01*
X118607935Y-93522664D01*
G37*
G36*
X107655000Y-95025000D02*
G01*
X106455000Y-95025000D01*
X106455000Y-94325000D01*
X107655000Y-94325000D01*
X107655000Y-95025000D01*
G37*
G36*
X128695013Y-93763057D02*
G01*
X128804206Y-93808286D01*
X128902477Y-93873949D01*
X128986051Y-93957523D01*
X129051714Y-94055794D01*
X129096943Y-94164987D01*
X129120000Y-94280904D01*
X129120000Y-94399096D01*
X129096943Y-94515013D01*
X129051714Y-94624206D01*
X128986051Y-94722477D01*
X128902477Y-94806051D01*
X128804206Y-94871714D01*
X128695013Y-94916943D01*
X128579096Y-94940000D01*
X128460904Y-94940000D01*
X128344987Y-94916943D01*
X128235794Y-94871714D01*
X128137523Y-94806051D01*
X128053949Y-94722477D01*
X127988286Y-94624206D01*
X127943057Y-94515013D01*
X127920000Y-94399096D01*
X127920000Y-94280904D01*
X127943057Y-94164987D01*
X127988286Y-94055794D01*
X128053949Y-93957523D01*
X128137523Y-93873949D01*
X128235794Y-93808286D01*
X128344987Y-93763057D01*
X128460904Y-93740000D01*
X128579096Y-93740000D01*
X128695013Y-93763057D01*
G37*
G36*
X144510000Y-94595000D02*
G01*
X143010000Y-94595000D01*
X143010000Y-94045000D01*
X144510000Y-94045000D01*
X144510000Y-94595000D01*
G37*
G36*
X133110000Y-94595000D02*
G01*
X131610000Y-94595000D01*
X131610000Y-94045000D01*
X133110000Y-94045000D01*
X133110000Y-94595000D01*
G37*
G36*
X150010000Y-94270000D02*
G01*
X149510000Y-94270000D01*
X149510000Y-93370000D01*
X150010000Y-93370000D01*
X150010000Y-94270000D01*
G37*
G36*
X148510000Y-94270000D02*
G01*
X148010000Y-94270000D01*
X148010000Y-93370000D01*
X148510000Y-93370000D01*
X148510000Y-94270000D01*
G37*
G36*
X187677935Y-92452664D02*
G01*
X187832624Y-92516739D01*
X187832626Y-92516740D01*
X187971844Y-92609762D01*
X188090238Y-92728156D01*
X188183260Y-92867374D01*
X188183261Y-92867376D01*
X188247336Y-93022065D01*
X188280000Y-93186281D01*
X188280000Y-93353719D01*
X188247336Y-93517935D01*
X188183261Y-93672624D01*
X188183260Y-93672626D01*
X188090238Y-93811844D01*
X187971844Y-93930238D01*
X187832626Y-94023260D01*
X187832625Y-94023261D01*
X187832624Y-94023261D01*
X187677935Y-94087336D01*
X187513719Y-94120000D01*
X187346281Y-94120000D01*
X187182065Y-94087336D01*
X187027376Y-94023261D01*
X187027375Y-94023261D01*
X187027374Y-94023260D01*
X186888156Y-93930238D01*
X186769762Y-93811844D01*
X186676740Y-93672626D01*
X186676739Y-93672624D01*
X186612664Y-93517935D01*
X186580000Y-93353719D01*
X186580000Y-93186281D01*
X186612664Y-93022065D01*
X186676739Y-92867376D01*
X186676740Y-92867374D01*
X186769762Y-92728156D01*
X186888156Y-92609762D01*
X187027374Y-92516740D01*
X187027376Y-92516739D01*
X187182065Y-92452664D01*
X187346281Y-92420000D01*
X187513719Y-92420000D01*
X187677935Y-92452664D01*
G37*
G36*
X185137935Y-92452664D02*
G01*
X185292624Y-92516739D01*
X185292626Y-92516740D01*
X185431844Y-92609762D01*
X185550238Y-92728156D01*
X185643260Y-92867374D01*
X185643261Y-92867376D01*
X185707336Y-93022065D01*
X185740000Y-93186281D01*
X185740000Y-93353719D01*
X185707336Y-93517935D01*
X185643261Y-93672624D01*
X185643260Y-93672626D01*
X185550238Y-93811844D01*
X185431844Y-93930238D01*
X185292626Y-94023260D01*
X185292625Y-94023261D01*
X185292624Y-94023261D01*
X185137935Y-94087336D01*
X184973719Y-94120000D01*
X184806281Y-94120000D01*
X184642065Y-94087336D01*
X184487376Y-94023261D01*
X184487375Y-94023261D01*
X184487374Y-94023260D01*
X184348156Y-93930238D01*
X184229762Y-93811844D01*
X184136740Y-93672626D01*
X184136739Y-93672624D01*
X184072664Y-93517935D01*
X184040000Y-93353719D01*
X184040000Y-93186281D01*
X184072664Y-93022065D01*
X184136739Y-92867376D01*
X184136740Y-92867374D01*
X184229762Y-92728156D01*
X184348156Y-92609762D01*
X184487374Y-92516740D01*
X184487376Y-92516739D01*
X184642065Y-92452664D01*
X184806281Y-92420000D01*
X184973719Y-92420000D01*
X185137935Y-92452664D01*
G37*
G36*
X107655000Y-93925000D02*
G01*
X106455000Y-93925000D01*
X106455000Y-93225000D01*
X107655000Y-93225000D01*
X107655000Y-93925000D01*
G37*
G36*
X144510000Y-93795000D02*
G01*
X143010000Y-93795000D01*
X143010000Y-93245000D01*
X144510000Y-93245000D01*
X144510000Y-93795000D01*
G37*
G36*
X133110000Y-93795000D02*
G01*
X131610000Y-93795000D01*
X131610000Y-93245000D01*
X133110000Y-93245000D01*
X133110000Y-93795000D01*
G37*
G36*
X156410000Y-93770000D02*
G01*
X155510000Y-93770000D01*
X155510000Y-93270000D01*
X156410000Y-93270000D01*
X156410000Y-93770000D01*
G37*
G36*
X161820000Y-93715000D02*
G01*
X161020000Y-93715000D01*
X161020000Y-92965000D01*
X161820000Y-92965000D01*
X161820000Y-93715000D01*
G37*
G36*
X160320000Y-93715000D02*
G01*
X159520000Y-93715000D01*
X159520000Y-92965000D01*
X160320000Y-92965000D01*
X160320000Y-93715000D01*
G37*
G36*
X168060000Y-93715000D02*
G01*
X167260000Y-93715000D01*
X167260000Y-92965000D01*
X168060000Y-92965000D01*
X168060000Y-93715000D01*
G37*
G36*
X169560000Y-93715000D02*
G01*
X168760000Y-93715000D01*
X168760000Y-92965000D01*
X169560000Y-92965000D01*
X169560000Y-93715000D01*
G37*
G36*
X133110000Y-92995000D02*
G01*
X131610000Y-92995000D01*
X131610000Y-92445000D01*
X133110000Y-92445000D01*
X133110000Y-92995000D01*
G37*
G36*
X144510000Y-92995000D02*
G01*
X143010000Y-92995000D01*
X143010000Y-92445000D01*
X144510000Y-92445000D01*
X144510000Y-92995000D01*
G37*
G36*
X107655000Y-92825000D02*
G01*
X106455000Y-92825000D01*
X106455000Y-92125000D01*
X107655000Y-92125000D01*
X107655000Y-92825000D01*
G37*
G36*
X154080000Y-92360000D02*
G01*
X152880000Y-92360000D01*
X152880000Y-91160000D01*
X154080000Y-91160000D01*
X154080000Y-92360000D01*
G37*
G36*
X156410000Y-92270000D02*
G01*
X155510000Y-92270000D01*
X155510000Y-91770000D01*
X156410000Y-91770000D01*
X156410000Y-92270000D01*
G37*
G36*
X133110000Y-92195000D02*
G01*
X131610000Y-92195000D01*
X131610000Y-91645000D01*
X133110000Y-91645000D01*
X133110000Y-92195000D01*
G37*
G36*
X144510000Y-92195000D02*
G01*
X143010000Y-92195000D01*
X143010000Y-91645000D01*
X144510000Y-91645000D01*
X144510000Y-92195000D01*
G37*
G36*
X170545000Y-91735000D02*
G01*
X168995000Y-91735000D01*
X168995000Y-91135000D01*
X170545000Y-91135000D01*
X170545000Y-91735000D01*
G37*
G36*
X165145000Y-91735000D02*
G01*
X163595000Y-91735000D01*
X163595000Y-91135000D01*
X165145000Y-91135000D01*
X165145000Y-91735000D01*
G37*
G36*
X107655000Y-91725000D02*
G01*
X106455000Y-91725000D01*
X106455000Y-91025000D01*
X107655000Y-91025000D01*
X107655000Y-91725000D01*
G37*
G36*
X175405000Y-91685000D02*
G01*
X173855000Y-91685000D01*
X173855000Y-91085000D01*
X175405000Y-91085000D01*
X175405000Y-91685000D01*
G37*
G36*
X180805000Y-91685000D02*
G01*
X179255000Y-91685000D01*
X179255000Y-91085000D01*
X180805000Y-91085000D01*
X180805000Y-91685000D01*
G37*
G36*
X150010000Y-91670000D02*
G01*
X149510000Y-91670000D01*
X149510000Y-90770000D01*
X150010000Y-90770000D01*
X150010000Y-91670000D01*
G37*
G36*
X148510000Y-91670000D02*
G01*
X148010000Y-91670000D01*
X148010000Y-90770000D01*
X148510000Y-90770000D01*
X148510000Y-91670000D01*
G37*
G36*
X185137935Y-89912664D02*
G01*
X185292624Y-89976739D01*
X185292626Y-89976740D01*
X185431844Y-90069762D01*
X185550238Y-90188156D01*
X185643260Y-90327374D01*
X185643261Y-90327376D01*
X185707336Y-90482065D01*
X185740000Y-90646281D01*
X185740000Y-90813719D01*
X185707336Y-90977935D01*
X185643261Y-91132624D01*
X185643260Y-91132626D01*
X185550238Y-91271844D01*
X185431844Y-91390238D01*
X185292626Y-91483260D01*
X185292625Y-91483261D01*
X185292624Y-91483261D01*
X185137935Y-91547336D01*
X184973719Y-91580000D01*
X184806281Y-91580000D01*
X184642065Y-91547336D01*
X184487376Y-91483261D01*
X184487375Y-91483261D01*
X184487374Y-91483260D01*
X184348156Y-91390238D01*
X184229762Y-91271844D01*
X184136740Y-91132626D01*
X184136739Y-91132624D01*
X184072664Y-90977935D01*
X184040000Y-90813719D01*
X184040000Y-90646281D01*
X184072664Y-90482065D01*
X184136739Y-90327376D01*
X184136740Y-90327374D01*
X184229762Y-90188156D01*
X184348156Y-90069762D01*
X184487374Y-89976740D01*
X184487376Y-89976739D01*
X184642065Y-89912664D01*
X184806281Y-89880000D01*
X184973719Y-89880000D01*
X185137935Y-89912664D01*
G37*
G36*
X187677935Y-89912664D02*
G01*
X187832624Y-89976739D01*
X187832626Y-89976740D01*
X187971844Y-90069762D01*
X188090238Y-90188156D01*
X188183260Y-90327374D01*
X188183261Y-90327376D01*
X188247336Y-90482065D01*
X188280000Y-90646281D01*
X188280000Y-90813719D01*
X188247336Y-90977935D01*
X188183261Y-91132624D01*
X188183260Y-91132626D01*
X188090238Y-91271844D01*
X187971844Y-91390238D01*
X187832626Y-91483260D01*
X187832625Y-91483261D01*
X187832624Y-91483261D01*
X187677935Y-91547336D01*
X187513719Y-91580000D01*
X187346281Y-91580000D01*
X187182065Y-91547336D01*
X187027376Y-91483261D01*
X187027375Y-91483261D01*
X187027374Y-91483260D01*
X186888156Y-91390238D01*
X186769762Y-91271844D01*
X186676740Y-91132626D01*
X186676739Y-91132624D01*
X186612664Y-90977935D01*
X186580000Y-90813719D01*
X186580000Y-90646281D01*
X186612664Y-90482065D01*
X186676739Y-90327376D01*
X186676740Y-90327374D01*
X186769762Y-90188156D01*
X186888156Y-90069762D01*
X187027374Y-89976740D01*
X187027376Y-89976739D01*
X187182065Y-89912664D01*
X187346281Y-89880000D01*
X187513719Y-89880000D01*
X187677935Y-89912664D01*
G37*
G36*
X129505000Y-91510000D02*
G01*
X128755000Y-91510000D01*
X128755000Y-90710000D01*
X129505000Y-90710000D01*
X129505000Y-91510000D01*
G37*
G36*
X144510000Y-91395000D02*
G01*
X143010000Y-91395000D01*
X143010000Y-90845000D01*
X144510000Y-90845000D01*
X144510000Y-91395000D01*
G37*
G36*
X133110000Y-91395000D02*
G01*
X131610000Y-91395000D01*
X131610000Y-90845000D01*
X133110000Y-90845000D01*
X133110000Y-91395000D01*
G37*
G36*
X107655000Y-90625000D02*
G01*
X106455000Y-90625000D01*
X106455000Y-89925000D01*
X107655000Y-89925000D01*
X107655000Y-90625000D01*
G37*
G36*
X133110000Y-90595000D02*
G01*
X131610000Y-90595000D01*
X131610000Y-90045000D01*
X133110000Y-90045000D01*
X133110000Y-90595000D01*
G37*
G36*
X144510000Y-90595000D02*
G01*
X143010000Y-90595000D01*
X143010000Y-90045000D01*
X144510000Y-90045000D01*
X144510000Y-90595000D01*
G37*
G36*
X165145000Y-90465000D02*
G01*
X163595000Y-90465000D01*
X163595000Y-89865000D01*
X165145000Y-89865000D01*
X165145000Y-90465000D01*
G37*
G36*
X170545000Y-90465000D02*
G01*
X168995000Y-90465000D01*
X168995000Y-89865000D01*
X170545000Y-89865000D01*
X170545000Y-90465000D01*
G37*
G36*
X125998000Y-90461000D02*
G01*
X124298000Y-90461000D01*
X124298000Y-88761000D01*
X125998000Y-88761000D01*
X125998000Y-90461000D01*
G37*
G36*
X180805000Y-90415000D02*
G01*
X179255000Y-90415000D01*
X179255000Y-89815000D01*
X180805000Y-89815000D01*
X180805000Y-90415000D01*
G37*
G36*
X175405000Y-90415000D02*
G01*
X173855000Y-90415000D01*
X173855000Y-89815000D01*
X175405000Y-89815000D01*
X175405000Y-90415000D01*
G37*
G36*
X154080000Y-90160000D02*
G01*
X152880000Y-90160000D01*
X152880000Y-88960000D01*
X154080000Y-88960000D01*
X154080000Y-90160000D01*
G37*
G36*
X117500000Y-90090000D02*
G01*
X117000000Y-90090000D01*
X117000000Y-89190000D01*
X117500000Y-89190000D01*
X117500000Y-90090000D01*
G37*
G36*
X116000000Y-90090000D02*
G01*
X115500000Y-90090000D01*
X115500000Y-89190000D01*
X116000000Y-89190000D01*
X116000000Y-90090000D01*
G37*
G36*
X112400000Y-90090000D02*
G01*
X111900000Y-90090000D01*
X111900000Y-89190000D01*
X112400000Y-89190000D01*
X112400000Y-90090000D01*
G37*
G36*
X113900000Y-90090000D02*
G01*
X113400000Y-90090000D01*
X113400000Y-89190000D01*
X113900000Y-89190000D01*
X113900000Y-90090000D01*
G37*
G36*
X129505000Y-90010000D02*
G01*
X128755000Y-90010000D01*
X128755000Y-89210000D01*
X129505000Y-89210000D01*
X129505000Y-90010000D01*
G37*
G36*
X144510000Y-89795000D02*
G01*
X143010000Y-89795000D01*
X143010000Y-89245000D01*
X144510000Y-89245000D01*
X144510000Y-89795000D01*
G37*
G36*
X133110000Y-89795000D02*
G01*
X131610000Y-89795000D01*
X131610000Y-89245000D01*
X133110000Y-89245000D01*
X133110000Y-89795000D01*
G37*
G36*
X107655000Y-89525000D02*
G01*
X106455000Y-89525000D01*
X106455000Y-88825000D01*
X107655000Y-88825000D01*
X107655000Y-89525000D01*
G37*
G36*
X160345000Y-89400000D02*
G01*
X159595000Y-89400000D01*
X159595000Y-88600000D01*
X160345000Y-88600000D01*
X160345000Y-89400000D01*
G37*
G36*
X162610000Y-89260000D02*
G01*
X161710000Y-89260000D01*
X161710000Y-88760000D01*
X162610000Y-88760000D01*
X162610000Y-89260000D01*
G37*
G36*
X170545000Y-89195000D02*
G01*
X168995000Y-89195000D01*
X168995000Y-88595000D01*
X170545000Y-88595000D01*
X170545000Y-89195000D01*
G37*
G36*
X165145000Y-89195000D02*
G01*
X163595000Y-89195000D01*
X163595000Y-88595000D01*
X165145000Y-88595000D01*
X165145000Y-89195000D01*
G37*
G36*
X180805000Y-89145000D02*
G01*
X179255000Y-89145000D01*
X179255000Y-88545000D01*
X180805000Y-88545000D01*
X180805000Y-89145000D01*
G37*
G36*
X175405000Y-89145000D02*
G01*
X173855000Y-89145000D01*
X173855000Y-88545000D01*
X175405000Y-88545000D01*
X175405000Y-89145000D01*
G37*
G36*
X185137935Y-87372664D02*
G01*
X185292624Y-87436739D01*
X185292626Y-87436740D01*
X185431844Y-87529762D01*
X185550238Y-87648156D01*
X185601583Y-87725000D01*
X185643261Y-87787376D01*
X185707336Y-87942065D01*
X185740000Y-88106281D01*
X185740000Y-88273719D01*
X185707336Y-88437935D01*
X185643261Y-88592624D01*
X185643260Y-88592626D01*
X185550238Y-88731844D01*
X185431844Y-88850238D01*
X185292626Y-88943260D01*
X185292625Y-88943261D01*
X185292624Y-88943261D01*
X185137935Y-89007336D01*
X184973719Y-89040000D01*
X184806281Y-89040000D01*
X184642065Y-89007336D01*
X184487376Y-88943261D01*
X184487375Y-88943261D01*
X184487374Y-88943260D01*
X184348156Y-88850238D01*
X184229762Y-88731844D01*
X184136740Y-88592626D01*
X184136739Y-88592624D01*
X184072664Y-88437935D01*
X184040000Y-88273719D01*
X184040000Y-88106281D01*
X184072664Y-87942065D01*
X184136739Y-87787376D01*
X184178417Y-87725000D01*
X184229762Y-87648156D01*
X184348156Y-87529762D01*
X184487374Y-87436740D01*
X184487376Y-87436739D01*
X184642065Y-87372664D01*
X184806281Y-87340000D01*
X184973719Y-87340000D01*
X185137935Y-87372664D01*
G37*
G36*
X187677935Y-87372664D02*
G01*
X187832624Y-87436739D01*
X187832626Y-87436740D01*
X187971844Y-87529762D01*
X188090238Y-87648156D01*
X188141583Y-87725000D01*
X188183261Y-87787376D01*
X188247336Y-87942065D01*
X188280000Y-88106281D01*
X188280000Y-88273719D01*
X188247336Y-88437935D01*
X188183261Y-88592624D01*
X188183260Y-88592626D01*
X188090238Y-88731844D01*
X187971844Y-88850238D01*
X187832626Y-88943260D01*
X187832625Y-88943261D01*
X187832624Y-88943261D01*
X187677935Y-89007336D01*
X187513719Y-89040000D01*
X187346281Y-89040000D01*
X187182065Y-89007336D01*
X187027376Y-88943261D01*
X187027375Y-88943261D01*
X187027374Y-88943260D01*
X186888156Y-88850238D01*
X186769762Y-88731844D01*
X186676740Y-88592626D01*
X186676739Y-88592624D01*
X186612664Y-88437935D01*
X186580000Y-88273719D01*
X186580000Y-88106281D01*
X186612664Y-87942065D01*
X186676739Y-87787376D01*
X186718417Y-87725000D01*
X186769762Y-87648156D01*
X186888156Y-87529762D01*
X187027374Y-87436740D01*
X187027376Y-87436739D01*
X187182065Y-87372664D01*
X187346281Y-87340000D01*
X187513719Y-87340000D01*
X187677935Y-87372664D01*
G37*
G36*
X148700000Y-88995000D02*
G01*
X147900000Y-88995000D01*
X147900000Y-88245000D01*
X148700000Y-88245000D01*
X148700000Y-88995000D01*
G37*
G36*
X150200000Y-88995000D02*
G01*
X149400000Y-88995000D01*
X149400000Y-88245000D01*
X150200000Y-88245000D01*
X150200000Y-88995000D01*
G37*
G36*
X144510000Y-88995000D02*
G01*
X143010000Y-88995000D01*
X143010000Y-88445000D01*
X144510000Y-88445000D01*
X144510000Y-88995000D01*
G37*
G36*
X133110000Y-88995000D02*
G01*
X131610000Y-88995000D01*
X131610000Y-88445000D01*
X133110000Y-88445000D01*
X133110000Y-88995000D01*
G37*
G36*
X107655000Y-88425000D02*
G01*
X106455000Y-88425000D01*
X106455000Y-87725000D01*
X107655000Y-87725000D01*
X107655000Y-88425000D01*
G37*
G36*
X133110000Y-88195000D02*
G01*
X131610000Y-88195000D01*
X131610000Y-87645000D01*
X133110000Y-87645000D01*
X133110000Y-88195000D01*
G37*
G36*
X144510000Y-88195000D02*
G01*
X143010000Y-88195000D01*
X143010000Y-87645000D01*
X144510000Y-87645000D01*
X144510000Y-88195000D01*
G37*
G36*
X170545000Y-87925000D02*
G01*
X168995000Y-87925000D01*
X168995000Y-87325000D01*
X170545000Y-87325000D01*
X170545000Y-87925000D01*
G37*
G36*
X165145000Y-87925000D02*
G01*
X163595000Y-87925000D01*
X163595000Y-87325000D01*
X165145000Y-87325000D01*
X165145000Y-87925000D01*
G37*
G36*
X125395935Y-86253664D02*
G01*
X125532515Y-86310238D01*
X125550626Y-86317740D01*
X125689844Y-86410762D01*
X125808238Y-86529156D01*
X125901260Y-86668374D01*
X125901261Y-86668376D01*
X125965336Y-86823065D01*
X125998000Y-86987281D01*
X125998000Y-87154719D01*
X125965336Y-87318935D01*
X125956610Y-87340000D01*
X125901260Y-87473626D01*
X125808238Y-87612844D01*
X125689844Y-87731238D01*
X125550626Y-87824260D01*
X125550625Y-87824261D01*
X125550624Y-87824261D01*
X125395935Y-87888336D01*
X125231719Y-87921000D01*
X125064281Y-87921000D01*
X124900065Y-87888336D01*
X124745376Y-87824261D01*
X124745375Y-87824261D01*
X124745374Y-87824260D01*
X124606156Y-87731238D01*
X124487762Y-87612844D01*
X124394740Y-87473626D01*
X124339390Y-87340000D01*
X124330664Y-87318935D01*
X124298000Y-87154719D01*
X124298000Y-86987281D01*
X124330664Y-86823065D01*
X124394739Y-86668376D01*
X124394740Y-86668374D01*
X124487762Y-86529156D01*
X124606156Y-86410762D01*
X124745374Y-86317740D01*
X124763485Y-86310238D01*
X124900065Y-86253664D01*
X125064281Y-86221000D01*
X125231719Y-86221000D01*
X125395935Y-86253664D01*
G37*
G36*
X160345000Y-87900000D02*
G01*
X159595000Y-87900000D01*
X159595000Y-87100000D01*
X160345000Y-87100000D01*
X160345000Y-87900000D01*
G37*
G36*
X175405000Y-87875000D02*
G01*
X173855000Y-87875000D01*
X173855000Y-87275000D01*
X175405000Y-87275000D01*
X175405000Y-87875000D01*
G37*
G36*
X180805000Y-87875000D02*
G01*
X179255000Y-87875000D01*
X179255000Y-87275000D01*
X180805000Y-87275000D01*
X180805000Y-87875000D01*
G37*
G36*
X162610000Y-87760000D02*
G01*
X161710000Y-87760000D01*
X161710000Y-87260000D01*
X162610000Y-87260000D01*
X162610000Y-87760000D01*
G37*
G36*
X112400000Y-87490000D02*
G01*
X111900000Y-87490000D01*
X111900000Y-86590000D01*
X112400000Y-86590000D01*
X112400000Y-87490000D01*
G37*
G36*
X113900000Y-87490000D02*
G01*
X113400000Y-87490000D01*
X113400000Y-86590000D01*
X113900000Y-86590000D01*
X113900000Y-87490000D01*
G37*
G36*
X116000000Y-87490000D02*
G01*
X115500000Y-87490000D01*
X115500000Y-86590000D01*
X116000000Y-86590000D01*
X116000000Y-87490000D01*
G37*
G36*
X117500000Y-87490000D02*
G01*
X117000000Y-87490000D01*
X117000000Y-86590000D01*
X117500000Y-86590000D01*
X117500000Y-87490000D01*
G37*
G36*
X133110000Y-87395000D02*
G01*
X131610000Y-87395000D01*
X131610000Y-86845000D01*
X133110000Y-86845000D01*
X133110000Y-87395000D01*
G37*
G36*
X144510000Y-87395000D02*
G01*
X143010000Y-87395000D01*
X143010000Y-86845000D01*
X144510000Y-86845000D01*
X144510000Y-87395000D01*
G37*
G36*
X107655000Y-87325000D02*
G01*
X106455000Y-87325000D01*
X106455000Y-86625000D01*
X107655000Y-86625000D01*
X107655000Y-87325000D01*
G37*
G36*
X144510000Y-86595000D02*
G01*
X143010000Y-86595000D01*
X143010000Y-86045000D01*
X144510000Y-86045000D01*
X144510000Y-86595000D01*
G37*
G36*
X133110000Y-86595000D02*
G01*
X131610000Y-86595000D01*
X131610000Y-86045000D01*
X133110000Y-86045000D01*
X133110000Y-86595000D01*
G37*
G36*
X187677935Y-84832664D02*
G01*
X187832624Y-84896739D01*
X187832626Y-84896740D01*
X187971844Y-84989762D01*
X188090238Y-85108156D01*
X188145751Y-85191238D01*
X188183261Y-85247376D01*
X188247336Y-85402065D01*
X188280000Y-85566281D01*
X188280000Y-85733719D01*
X188247336Y-85897935D01*
X188186419Y-86045000D01*
X188183260Y-86052626D01*
X188090238Y-86191844D01*
X187971844Y-86310238D01*
X187832626Y-86403260D01*
X187832625Y-86403261D01*
X187832624Y-86403261D01*
X187677935Y-86467336D01*
X187513719Y-86500000D01*
X187346281Y-86500000D01*
X187182065Y-86467336D01*
X187027376Y-86403261D01*
X187027375Y-86403261D01*
X187027374Y-86403260D01*
X186888156Y-86310238D01*
X186769762Y-86191844D01*
X186676740Y-86052626D01*
X186673581Y-86045000D01*
X186612664Y-85897935D01*
X186580000Y-85733719D01*
X186580000Y-85566281D01*
X186612664Y-85402065D01*
X186676739Y-85247376D01*
X186714249Y-85191238D01*
X186769762Y-85108156D01*
X186888156Y-84989762D01*
X187027374Y-84896740D01*
X187027376Y-84896739D01*
X187182065Y-84832664D01*
X187346281Y-84800000D01*
X187513719Y-84800000D01*
X187677935Y-84832664D01*
G37*
G36*
X185137935Y-84832664D02*
G01*
X185292624Y-84896739D01*
X185292626Y-84896740D01*
X185431844Y-84989762D01*
X185550238Y-85108156D01*
X185605751Y-85191238D01*
X185643261Y-85247376D01*
X185707336Y-85402065D01*
X185740000Y-85566281D01*
X185740000Y-85733719D01*
X185707336Y-85897935D01*
X185646419Y-86045000D01*
X185643260Y-86052626D01*
X185550238Y-86191844D01*
X185431844Y-86310238D01*
X185292626Y-86403260D01*
X185292625Y-86403261D01*
X185292624Y-86403261D01*
X185137935Y-86467336D01*
X184973719Y-86500000D01*
X184806281Y-86500000D01*
X184642065Y-86467336D01*
X184487376Y-86403261D01*
X184487375Y-86403261D01*
X184487374Y-86403260D01*
X184348156Y-86310238D01*
X184229762Y-86191844D01*
X184136740Y-86052626D01*
X184133581Y-86045000D01*
X184072664Y-85897935D01*
X184040000Y-85733719D01*
X184040000Y-85566281D01*
X184072664Y-85402065D01*
X184136739Y-85247376D01*
X184174249Y-85191238D01*
X184229762Y-85108156D01*
X184348156Y-84989762D01*
X184487374Y-84896740D01*
X184487376Y-84896739D01*
X184642065Y-84832664D01*
X184806281Y-84800000D01*
X184973719Y-84800000D01*
X185137935Y-84832664D01*
G37*
G36*
X107655000Y-86375000D02*
G01*
X106455000Y-86375000D01*
X106455000Y-85675000D01*
X107655000Y-85675000D01*
X107655000Y-86375000D01*
G37*
G36*
X148450000Y-85590000D02*
G01*
X147950000Y-85590000D01*
X147950000Y-84690000D01*
X148450000Y-84690000D01*
X148450000Y-85590000D01*
G37*
G36*
X176550000Y-85590000D02*
G01*
X176050000Y-85590000D01*
X176050000Y-84690000D01*
X176550000Y-84690000D01*
X176550000Y-85590000D01*
G37*
G36*
X175050000Y-85590000D02*
G01*
X174550000Y-85590000D01*
X174550000Y-84690000D01*
X175050000Y-84690000D01*
X175050000Y-85590000D01*
G37*
G36*
X161570000Y-85590000D02*
G01*
X161070000Y-85590000D01*
X161070000Y-84690000D01*
X161570000Y-84690000D01*
X161570000Y-85590000D01*
G37*
G36*
X149950000Y-85590000D02*
G01*
X149450000Y-85590000D01*
X149450000Y-84690000D01*
X149950000Y-84690000D01*
X149950000Y-85590000D01*
G37*
G36*
X160070000Y-85590000D02*
G01*
X159570000Y-85590000D01*
X159570000Y-84690000D01*
X160070000Y-84690000D01*
X160070000Y-85590000D01*
G37*
G36*
X152290000Y-85590000D02*
G01*
X151790000Y-85590000D01*
X151790000Y-84690000D01*
X152290000Y-84690000D01*
X152290000Y-85590000D01*
G37*
G36*
X153790000Y-85590000D02*
G01*
X153290000Y-85590000D01*
X153290000Y-84690000D01*
X153790000Y-84690000D01*
X153790000Y-85590000D01*
G37*
G36*
X103355000Y-85575000D02*
G01*
X102155000Y-85575000D01*
X102155000Y-84575000D01*
X103355000Y-84575000D01*
X103355000Y-85575000D01*
G37*
G36*
X93805000Y-85575000D02*
G01*
X91005000Y-85575000D01*
X91005000Y-84575000D01*
X93805000Y-84575000D01*
X93805000Y-85575000D01*
G37*
G36*
X96955000Y-85575000D02*
G01*
X96155000Y-85575000D01*
X96155000Y-84575000D01*
X96955000Y-84575000D01*
X96955000Y-85575000D01*
G37*
G36*
X164120000Y-85515000D02*
G01*
X163320000Y-85515000D01*
X163320000Y-84765000D01*
X164120000Y-84765000D01*
X164120000Y-85515000D01*
G37*
G36*
X170170000Y-85515000D02*
G01*
X169370000Y-85515000D01*
X169370000Y-84765000D01*
X170170000Y-84765000D01*
X170170000Y-85515000D01*
G37*
G36*
X168670000Y-85515000D02*
G01*
X167870000Y-85515000D01*
X167870000Y-84765000D01*
X168670000Y-84765000D01*
X168670000Y-85515000D01*
G37*
G36*
X165620000Y-85515000D02*
G01*
X164820000Y-85515000D01*
X164820000Y-84765000D01*
X165620000Y-84765000D01*
X165620000Y-85515000D01*
G37*
G36*
X157740000Y-85515000D02*
G01*
X156940000Y-85515000D01*
X156940000Y-84765000D01*
X157740000Y-84765000D01*
X157740000Y-85515000D01*
G37*
G36*
X156240000Y-85515000D02*
G01*
X155440000Y-85515000D01*
X155440000Y-84765000D01*
X156240000Y-84765000D01*
X156240000Y-85515000D01*
G37*
G36*
X125395935Y-83713664D02*
G01*
X125532515Y-83770238D01*
X125550626Y-83777740D01*
X125689844Y-83870762D01*
X125808238Y-83989156D01*
X125901260Y-84128374D01*
X125901261Y-84128376D01*
X125965336Y-84283065D01*
X125998000Y-84447281D01*
X125998000Y-84614719D01*
X125965336Y-84778935D01*
X125956610Y-84800000D01*
X125901260Y-84933626D01*
X125808238Y-85072844D01*
X125689844Y-85191238D01*
X125550626Y-85284260D01*
X125550625Y-85284261D01*
X125550624Y-85284261D01*
X125395935Y-85348336D01*
X125231719Y-85381000D01*
X125064281Y-85381000D01*
X124900065Y-85348336D01*
X124745376Y-85284261D01*
X124745375Y-85284261D01*
X124745374Y-85284260D01*
X124606156Y-85191238D01*
X124487762Y-85072844D01*
X124394740Y-84933626D01*
X124339390Y-84800000D01*
X124330664Y-84778935D01*
X124298000Y-84614719D01*
X124298000Y-84447281D01*
X124330664Y-84283065D01*
X124394739Y-84128376D01*
X124394740Y-84128374D01*
X124487762Y-83989156D01*
X124606156Y-83870762D01*
X124745374Y-83777740D01*
X124763485Y-83770238D01*
X124900065Y-83713664D01*
X125064281Y-83681000D01*
X125231719Y-83681000D01*
X125395935Y-83713664D01*
G37*
G36*
X138335000Y-85370000D02*
G01*
X137785000Y-85370000D01*
X137785000Y-83870000D01*
X138335000Y-83870000D01*
X138335000Y-85370000D01*
G37*
G36*
X134335000Y-85370000D02*
G01*
X133785000Y-85370000D01*
X133785000Y-83870000D01*
X134335000Y-83870000D01*
X134335000Y-85370000D01*
G37*
G36*
X135135000Y-85370000D02*
G01*
X134585000Y-85370000D01*
X134585000Y-83870000D01*
X135135000Y-83870000D01*
X135135000Y-85370000D01*
G37*
G36*
X139135000Y-85370000D02*
G01*
X138585000Y-85370000D01*
X138585000Y-83870000D01*
X139135000Y-83870000D01*
X139135000Y-85370000D01*
G37*
G36*
X139935000Y-85370000D02*
G01*
X139385000Y-85370000D01*
X139385000Y-83870000D01*
X139935000Y-83870000D01*
X139935000Y-85370000D01*
G37*
G36*
X136735000Y-85370000D02*
G01*
X136185000Y-85370000D01*
X136185000Y-83870000D01*
X136735000Y-83870000D01*
X136735000Y-85370000D01*
G37*
G36*
X135935000Y-85370000D02*
G01*
X135385000Y-85370000D01*
X135385000Y-83870000D01*
X135935000Y-83870000D01*
X135935000Y-85370000D01*
G37*
G36*
X137535000Y-85370000D02*
G01*
X136985000Y-85370000D01*
X136985000Y-83870000D01*
X137535000Y-83870000D01*
X137535000Y-85370000D01*
G37*
G36*
X141535000Y-85370000D02*
G01*
X140985000Y-85370000D01*
X140985000Y-83870000D01*
X141535000Y-83870000D01*
X141535000Y-85370000D01*
G37*
G36*
X142335000Y-85370000D02*
G01*
X141785000Y-85370000D01*
X141785000Y-83870000D01*
X142335000Y-83870000D01*
X142335000Y-85370000D01*
G37*
G36*
X140735000Y-85370000D02*
G01*
X140185000Y-85370000D01*
X140185000Y-83870000D01*
X140735000Y-83870000D01*
X140735000Y-85370000D01*
G37*
G36*
X121740000Y-85230000D02*
G01*
X120040000Y-85230000D01*
X120040000Y-83930000D01*
X121740000Y-83930000D01*
X121740000Y-85230000D01*
G37*
G36*
X131920000Y-84780000D02*
G01*
X131420000Y-84780000D01*
X131420000Y-83880000D01*
X131920000Y-83880000D01*
X131920000Y-84780000D01*
G37*
G36*
X130420000Y-84780000D02*
G01*
X129920000Y-84780000D01*
X129920000Y-83880000D01*
X130420000Y-83880000D01*
X130420000Y-84780000D01*
G37*
G36*
X185137935Y-82292664D02*
G01*
X185292624Y-82356739D01*
X185292626Y-82356740D01*
X185431844Y-82449762D01*
X185550238Y-82568156D01*
X185621628Y-82675000D01*
X185643261Y-82707376D01*
X185707336Y-82862065D01*
X185740000Y-83026281D01*
X185740000Y-83193719D01*
X185707336Y-83357935D01*
X185665059Y-83460000D01*
X185643260Y-83512626D01*
X185550238Y-83651844D01*
X185431844Y-83770238D01*
X185292626Y-83863260D01*
X185292625Y-83863261D01*
X185292624Y-83863261D01*
X185137935Y-83927336D01*
X184973719Y-83960000D01*
X184806281Y-83960000D01*
X184642065Y-83927336D01*
X184487376Y-83863261D01*
X184487375Y-83863261D01*
X184487374Y-83863260D01*
X184348156Y-83770238D01*
X184229762Y-83651844D01*
X184136740Y-83512626D01*
X184114941Y-83460000D01*
X184072664Y-83357935D01*
X184040000Y-83193719D01*
X184040000Y-83026281D01*
X184072664Y-82862065D01*
X184136739Y-82707376D01*
X184158372Y-82675000D01*
X184229762Y-82568156D01*
X184348156Y-82449762D01*
X184487374Y-82356740D01*
X184487376Y-82356739D01*
X184642065Y-82292664D01*
X184806281Y-82260000D01*
X184973719Y-82260000D01*
X185137935Y-82292664D01*
G37*
G36*
X187677935Y-82292664D02*
G01*
X187832624Y-82356739D01*
X187832626Y-82356740D01*
X187971844Y-82449762D01*
X188090238Y-82568156D01*
X188161628Y-82675000D01*
X188183261Y-82707376D01*
X188247336Y-82862065D01*
X188280000Y-83026281D01*
X188280000Y-83193719D01*
X188247336Y-83357935D01*
X188205059Y-83460000D01*
X188183260Y-83512626D01*
X188090238Y-83651844D01*
X187971844Y-83770238D01*
X187832626Y-83863260D01*
X187832625Y-83863261D01*
X187832624Y-83863261D01*
X187677935Y-83927336D01*
X187513719Y-83960000D01*
X187346281Y-83960000D01*
X187182065Y-83927336D01*
X187027376Y-83863261D01*
X187027375Y-83863261D01*
X187027374Y-83863260D01*
X186888156Y-83770238D01*
X186769762Y-83651844D01*
X186676740Y-83512626D01*
X186654941Y-83460000D01*
X186612664Y-83357935D01*
X186580000Y-83193719D01*
X186580000Y-83026281D01*
X186612664Y-82862065D01*
X186676739Y-82707376D01*
X186698372Y-82675000D01*
X186769762Y-82568156D01*
X186888156Y-82449762D01*
X187027374Y-82356740D01*
X187027376Y-82356739D01*
X187182065Y-82292664D01*
X187346281Y-82260000D01*
X187513719Y-82260000D01*
X187677935Y-82292664D01*
G37*
G36*
X149400000Y-83460000D02*
G01*
X148500000Y-83460000D01*
X148500000Y-82960000D01*
X149400000Y-82960000D01*
X149400000Y-83460000D01*
G37*
G36*
X143520000Y-83460000D02*
G01*
X142620000Y-83460000D01*
X142620000Y-82960000D01*
X143520000Y-82960000D01*
X143520000Y-83460000D01*
G37*
G36*
X146650000Y-83460000D02*
G01*
X145750000Y-83460000D01*
X145750000Y-82960000D01*
X146650000Y-82960000D01*
X146650000Y-83460000D01*
G37*
G36*
X153905000Y-82995000D02*
G01*
X152355000Y-82995000D01*
X152355000Y-82395000D01*
X153905000Y-82395000D01*
X153905000Y-82995000D01*
G37*
G36*
X159305000Y-82995000D02*
G01*
X157755000Y-82995000D01*
X157755000Y-82395000D01*
X159305000Y-82395000D01*
X159305000Y-82995000D01*
G37*
G36*
X176550000Y-82990000D02*
G01*
X176050000Y-82990000D01*
X176050000Y-82090000D01*
X176550000Y-82090000D01*
X176550000Y-82990000D01*
G37*
G36*
X175050000Y-82990000D02*
G01*
X174550000Y-82990000D01*
X174550000Y-82090000D01*
X175050000Y-82090000D01*
X175050000Y-82990000D01*
G37*
G36*
X98900000Y-82935000D02*
G01*
X97840000Y-82935000D01*
X97840000Y-82285000D01*
X98900000Y-82285000D01*
X98900000Y-82935000D01*
G37*
G36*
X101100000Y-82935000D02*
G01*
X100040000Y-82935000D01*
X100040000Y-82285000D01*
X101100000Y-82285000D01*
X101100000Y-82935000D01*
G37*
G36*
X125395935Y-81173664D02*
G01*
X125532515Y-81230238D01*
X125550626Y-81237740D01*
X125689844Y-81330762D01*
X125808238Y-81449156D01*
X125901260Y-81588374D01*
X125901261Y-81588376D01*
X125965336Y-81743065D01*
X125998000Y-81907281D01*
X125998000Y-82074719D01*
X125965336Y-82238935D01*
X125956610Y-82260000D01*
X125901260Y-82393626D01*
X125808238Y-82532844D01*
X125689844Y-82651238D01*
X125550626Y-82744260D01*
X125550625Y-82744261D01*
X125550624Y-82744261D01*
X125395935Y-82808336D01*
X125231719Y-82841000D01*
X125064281Y-82841000D01*
X124900065Y-82808336D01*
X124745376Y-82744261D01*
X124745375Y-82744261D01*
X124745374Y-82744260D01*
X124606156Y-82651238D01*
X124487762Y-82532844D01*
X124394740Y-82393626D01*
X124339390Y-82260000D01*
X124330664Y-82238935D01*
X124298000Y-82074719D01*
X124298000Y-81907281D01*
X124330664Y-81743065D01*
X124394739Y-81588376D01*
X124394740Y-81588374D01*
X124487762Y-81449156D01*
X124606156Y-81330762D01*
X124745374Y-81237740D01*
X124763485Y-81230238D01*
X124900065Y-81173664D01*
X125064281Y-81141000D01*
X125231719Y-81141000D01*
X125395935Y-81173664D01*
G37*
G36*
X130420000Y-82690000D02*
G01*
X129920000Y-82690000D01*
X129920000Y-81790000D01*
X130420000Y-81790000D01*
X130420000Y-82690000D01*
G37*
G36*
X131920000Y-82690000D02*
G01*
X131420000Y-82690000D01*
X131420000Y-81790000D01*
X131920000Y-81790000D01*
X131920000Y-82690000D01*
G37*
G36*
X161875000Y-82675000D02*
G01*
X160975000Y-82675000D01*
X160975000Y-82175000D01*
X161875000Y-82175000D01*
X161875000Y-82675000D01*
G37*
G36*
X164270000Y-82670000D02*
G01*
X163370000Y-82670000D01*
X163370000Y-82170000D01*
X164270000Y-82170000D01*
X164270000Y-82670000D01*
G37*
G36*
X92810000Y-82493000D02*
G01*
X92010000Y-82493000D01*
X92010000Y-81743000D01*
X92810000Y-81743000D01*
X92810000Y-82493000D01*
G37*
G36*
X94310000Y-82493000D02*
G01*
X93510000Y-82493000D01*
X93510000Y-81743000D01*
X94310000Y-81743000D01*
X94310000Y-82493000D01*
G37*
G36*
X105150000Y-82160000D02*
G01*
X102600000Y-82160000D01*
X102600000Y-79660000D01*
X105150000Y-79660000D01*
X105150000Y-82160000D01*
G37*
G36*
X110200000Y-82160000D02*
G01*
X107650000Y-82160000D01*
X107650000Y-79660000D01*
X110200000Y-79660000D01*
X110200000Y-82160000D01*
G37*
G36*
X137710000Y-82005000D02*
G01*
X136910000Y-82005000D01*
X136910000Y-81255000D01*
X137710000Y-81255000D01*
X137710000Y-82005000D01*
G37*
G36*
X139210000Y-82005000D02*
G01*
X138410000Y-82005000D01*
X138410000Y-81255000D01*
X139210000Y-81255000D01*
X139210000Y-82005000D01*
G37*
G36*
X101100000Y-81985000D02*
G01*
X100040000Y-81985000D01*
X100040000Y-81335000D01*
X101100000Y-81335000D01*
X101100000Y-81985000D01*
G37*
G36*
X98900000Y-81985000D02*
G01*
X97840000Y-81985000D01*
X97840000Y-81335000D01*
X98900000Y-81335000D01*
X98900000Y-81985000D01*
G37*
G36*
X143520000Y-81960000D02*
G01*
X142620000Y-81960000D01*
X142620000Y-81460000D01*
X143520000Y-81460000D01*
X143520000Y-81960000D01*
G37*
G36*
X146650000Y-81960000D02*
G01*
X145750000Y-81960000D01*
X145750000Y-81460000D01*
X146650000Y-81460000D01*
X146650000Y-81960000D01*
G37*
G36*
X149400000Y-81960000D02*
G01*
X148500000Y-81960000D01*
X148500000Y-81460000D01*
X149400000Y-81460000D01*
X149400000Y-81960000D01*
G37*
G36*
X121740000Y-81730000D02*
G01*
X120040000Y-81730000D01*
X120040000Y-80430000D01*
X121740000Y-80430000D01*
X121740000Y-81730000D01*
G37*
G36*
X153905000Y-81725000D02*
G01*
X152355000Y-81725000D01*
X152355000Y-81125000D01*
X153905000Y-81125000D01*
X153905000Y-81725000D01*
G37*
G36*
X159305000Y-81725000D02*
G01*
X157755000Y-81725000D01*
X157755000Y-81125000D01*
X159305000Y-81125000D01*
X159305000Y-81725000D01*
G37*
G36*
X187677935Y-79752664D02*
G01*
X187832624Y-79816739D01*
X187832626Y-79816740D01*
X187971844Y-79909762D01*
X188090238Y-80028156D01*
X188145751Y-80111238D01*
X188183261Y-80167376D01*
X188247336Y-80322065D01*
X188280000Y-80486281D01*
X188280000Y-80653719D01*
X188247336Y-80817935D01*
X188183261Y-80972624D01*
X188183260Y-80972626D01*
X188090238Y-81111844D01*
X187971844Y-81230238D01*
X187832626Y-81323260D01*
X187832625Y-81323261D01*
X187832624Y-81323261D01*
X187677935Y-81387336D01*
X187513719Y-81420000D01*
X187346281Y-81420000D01*
X187182065Y-81387336D01*
X187027376Y-81323261D01*
X187027375Y-81323261D01*
X187027374Y-81323260D01*
X186888156Y-81230238D01*
X186769762Y-81111844D01*
X186676740Y-80972626D01*
X186676739Y-80972624D01*
X186612664Y-80817935D01*
X186580000Y-80653719D01*
X186580000Y-80486281D01*
X186612664Y-80322065D01*
X186676739Y-80167376D01*
X186714249Y-80111238D01*
X186769762Y-80028156D01*
X186888156Y-79909762D01*
X187027374Y-79816740D01*
X187027376Y-79816739D01*
X187182065Y-79752664D01*
X187346281Y-79720000D01*
X187513719Y-79720000D01*
X187677935Y-79752664D01*
G37*
G36*
X185137935Y-79752664D02*
G01*
X185292624Y-79816739D01*
X185292626Y-79816740D01*
X185431844Y-79909762D01*
X185550238Y-80028156D01*
X185605751Y-80111238D01*
X185643261Y-80167376D01*
X185707336Y-80322065D01*
X185740000Y-80486281D01*
X185740000Y-80653719D01*
X185707336Y-80817935D01*
X185643261Y-80972624D01*
X185643260Y-80972626D01*
X185550238Y-81111844D01*
X185431844Y-81230238D01*
X185292626Y-81323260D01*
X185292625Y-81323261D01*
X185292624Y-81323261D01*
X185137935Y-81387336D01*
X184973719Y-81420000D01*
X184806281Y-81420000D01*
X184642065Y-81387336D01*
X184487376Y-81323261D01*
X184487375Y-81323261D01*
X184487374Y-81323260D01*
X184348156Y-81230238D01*
X184229762Y-81111844D01*
X184136740Y-80972626D01*
X184136739Y-80972624D01*
X184072664Y-80817935D01*
X184040000Y-80653719D01*
X184040000Y-80486281D01*
X184072664Y-80322065D01*
X184136739Y-80167376D01*
X184174249Y-80111238D01*
X184229762Y-80028156D01*
X184348156Y-79909762D01*
X184487374Y-79816740D01*
X184487376Y-79816739D01*
X184642065Y-79752664D01*
X184806281Y-79720000D01*
X184973719Y-79720000D01*
X185137935Y-79752664D01*
G37*
G36*
X161875000Y-81175000D02*
G01*
X160975000Y-81175000D01*
X160975000Y-80675000D01*
X161875000Y-80675000D01*
X161875000Y-81175000D01*
G37*
G36*
X164270000Y-81170000D02*
G01*
X163370000Y-81170000D01*
X163370000Y-80670000D01*
X164270000Y-80670000D01*
X164270000Y-81170000D01*
G37*
G36*
X98900000Y-81035000D02*
G01*
X97840000Y-81035000D01*
X97840000Y-80385000D01*
X98900000Y-80385000D01*
X98900000Y-81035000D01*
G37*
G36*
X101100000Y-81035000D02*
G01*
X100040000Y-81035000D01*
X100040000Y-80385000D01*
X101100000Y-80385000D01*
X101100000Y-81035000D01*
G37*
G36*
X153905000Y-80455000D02*
G01*
X152355000Y-80455000D01*
X152355000Y-79855000D01*
X153905000Y-79855000D01*
X153905000Y-80455000D01*
G37*
G36*
X159305000Y-80455000D02*
G01*
X157755000Y-80455000D01*
X157755000Y-79855000D01*
X159305000Y-79855000D01*
X159305000Y-80455000D01*
G37*
G36*
X132590000Y-80410000D02*
G01*
X130590000Y-80410000D01*
X130590000Y-78010000D01*
X132590000Y-78010000D01*
X132590000Y-80410000D01*
G37*
G36*
X136290000Y-80410000D02*
G01*
X134290000Y-80410000D01*
X134290000Y-78010000D01*
X136290000Y-78010000D01*
X136290000Y-80410000D01*
G37*
G36*
X143520000Y-80340000D02*
G01*
X142620000Y-80340000D01*
X142620000Y-79840000D01*
X143520000Y-79840000D01*
X143520000Y-80340000D01*
G37*
G36*
X146660000Y-80340000D02*
G01*
X145760000Y-80340000D01*
X145760000Y-79840000D01*
X146660000Y-79840000D01*
X146660000Y-80340000D01*
G37*
G36*
X149470000Y-80340000D02*
G01*
X148570000Y-80340000D01*
X148570000Y-79840000D01*
X149470000Y-79840000D01*
X149470000Y-80340000D01*
G37*
G36*
X125395935Y-78633664D02*
G01*
X125532515Y-78690238D01*
X125550626Y-78697740D01*
X125689844Y-78790762D01*
X125808238Y-78909156D01*
X125901260Y-79048374D01*
X125901261Y-79048376D01*
X125965336Y-79203065D01*
X125998000Y-79367281D01*
X125998000Y-79534719D01*
X125965336Y-79698935D01*
X125956610Y-79720000D01*
X125901260Y-79853626D01*
X125808238Y-79992844D01*
X125689844Y-80111238D01*
X125550626Y-80204260D01*
X125550625Y-80204261D01*
X125550624Y-80204261D01*
X125395935Y-80268336D01*
X125231719Y-80301000D01*
X125064281Y-80301000D01*
X124900065Y-80268336D01*
X124745376Y-80204261D01*
X124745375Y-80204261D01*
X124745374Y-80204260D01*
X124606156Y-80111238D01*
X124487762Y-79992844D01*
X124394740Y-79853626D01*
X124339390Y-79720000D01*
X124330664Y-79698935D01*
X124298000Y-79534719D01*
X124298000Y-79367281D01*
X124330664Y-79203065D01*
X124394739Y-79048376D01*
X124394740Y-79048374D01*
X124487762Y-78909156D01*
X124606156Y-78790762D01*
X124745374Y-78697740D01*
X124763485Y-78690238D01*
X124900065Y-78633664D01*
X125064281Y-78601000D01*
X125231719Y-78601000D01*
X125395935Y-78633664D01*
G37*
G36*
X117500000Y-79670000D02*
G01*
X117000000Y-79670000D01*
X117000000Y-78770000D01*
X117500000Y-78770000D01*
X117500000Y-79670000D01*
G37*
G36*
X116000000Y-79670000D02*
G01*
X115500000Y-79670000D01*
X115500000Y-78770000D01*
X116000000Y-78770000D01*
X116000000Y-79670000D01*
G37*
G36*
X112400000Y-79660000D02*
G01*
X111900000Y-79660000D01*
X111900000Y-78760000D01*
X112400000Y-78760000D01*
X112400000Y-79660000D01*
G37*
G36*
X113900000Y-79660000D02*
G01*
X113400000Y-79660000D01*
X113400000Y-78760000D01*
X113900000Y-78760000D01*
X113900000Y-79660000D01*
G37*
G36*
X93650000Y-79406250D02*
G01*
X91750000Y-79406250D01*
X91750000Y-77406250D01*
X93650000Y-77406250D01*
X93650000Y-79406250D01*
G37*
G36*
X153905000Y-79185000D02*
G01*
X152355000Y-79185000D01*
X152355000Y-78585000D01*
X153905000Y-78585000D01*
X153905000Y-79185000D01*
G37*
G36*
X159305000Y-79185000D02*
G01*
X157755000Y-79185000D01*
X157755000Y-78585000D01*
X159305000Y-78585000D01*
X159305000Y-79185000D01*
G37*
G36*
X185137935Y-77212664D02*
G01*
X185292624Y-77276739D01*
X185292626Y-77276740D01*
X185431844Y-77369762D01*
X185550238Y-77488156D01*
X185605751Y-77571238D01*
X185643261Y-77627376D01*
X185707336Y-77782065D01*
X185740000Y-77946281D01*
X185740000Y-78113719D01*
X185707336Y-78277935D01*
X185643261Y-78432624D01*
X185643260Y-78432626D01*
X185550238Y-78571844D01*
X185431844Y-78690238D01*
X185292626Y-78783260D01*
X185292625Y-78783261D01*
X185292624Y-78783261D01*
X185137935Y-78847336D01*
X184973719Y-78880000D01*
X184806281Y-78880000D01*
X184642065Y-78847336D01*
X184487376Y-78783261D01*
X184487375Y-78783261D01*
X184487374Y-78783260D01*
X184348156Y-78690238D01*
X184229762Y-78571844D01*
X184136740Y-78432626D01*
X184136739Y-78432624D01*
X184072664Y-78277935D01*
X184040000Y-78113719D01*
X184040000Y-77946281D01*
X184072664Y-77782065D01*
X184136739Y-77627376D01*
X184174249Y-77571238D01*
X184229762Y-77488156D01*
X184348156Y-77369762D01*
X184487374Y-77276740D01*
X184487376Y-77276739D01*
X184642065Y-77212664D01*
X184806281Y-77180000D01*
X184973719Y-77180000D01*
X185137935Y-77212664D01*
G37*
G36*
X187677935Y-77212664D02*
G01*
X187832624Y-77276739D01*
X187832626Y-77276740D01*
X187971844Y-77369762D01*
X188090238Y-77488156D01*
X188145751Y-77571238D01*
X188183261Y-77627376D01*
X188247336Y-77782065D01*
X188280000Y-77946281D01*
X188280000Y-78113719D01*
X188247336Y-78277935D01*
X188183261Y-78432624D01*
X188183260Y-78432626D01*
X188090238Y-78571844D01*
X187971844Y-78690238D01*
X187832626Y-78783260D01*
X187832625Y-78783261D01*
X187832624Y-78783261D01*
X187677935Y-78847336D01*
X187513719Y-78880000D01*
X187346281Y-78880000D01*
X187182065Y-78847336D01*
X187027376Y-78783261D01*
X187027375Y-78783261D01*
X187027374Y-78783260D01*
X186888156Y-78690238D01*
X186769762Y-78571844D01*
X186676740Y-78432626D01*
X186676739Y-78432624D01*
X186612664Y-78277935D01*
X186580000Y-78113719D01*
X186580000Y-77946281D01*
X186612664Y-77782065D01*
X186676739Y-77627376D01*
X186714249Y-77571238D01*
X186769762Y-77488156D01*
X186888156Y-77369762D01*
X187027374Y-77276740D01*
X187027376Y-77276739D01*
X187182065Y-77212664D01*
X187346281Y-77180000D01*
X187513719Y-77180000D01*
X187677935Y-77212664D01*
G37*
G36*
X149470000Y-78840000D02*
G01*
X148570000Y-78840000D01*
X148570000Y-78340000D01*
X149470000Y-78340000D01*
X149470000Y-78840000D01*
G37*
G36*
X146660000Y-78840000D02*
G01*
X145760000Y-78840000D01*
X145760000Y-78340000D01*
X146660000Y-78340000D01*
X146660000Y-78840000D01*
G37*
G36*
X143520000Y-78840000D02*
G01*
X142620000Y-78840000D01*
X142620000Y-78340000D01*
X143520000Y-78340000D01*
X143520000Y-78840000D01*
G37*
G36*
X121710000Y-78780000D02*
G01*
X120810000Y-78780000D01*
X120810000Y-77980000D01*
X121710000Y-77980000D01*
X121710000Y-78780000D01*
G37*
G36*
X119710000Y-77830000D02*
G01*
X118810000Y-77830000D01*
X118810000Y-77030000D01*
X119710000Y-77030000D01*
X119710000Y-77830000D01*
G37*
G36*
X96325000Y-77800000D02*
G01*
X95075000Y-77800000D01*
X95075000Y-76750000D01*
X96325000Y-76750000D01*
X96325000Y-77800000D01*
G37*
G36*
X125395935Y-76093664D02*
G01*
X125532515Y-76150238D01*
X125550626Y-76157740D01*
X125689844Y-76250762D01*
X125808238Y-76369156D01*
X125901260Y-76508374D01*
X125901261Y-76508376D01*
X125965336Y-76663065D01*
X125998000Y-76827281D01*
X125998000Y-76994719D01*
X125965336Y-77158935D01*
X125916539Y-77276739D01*
X125901260Y-77313626D01*
X125808238Y-77452844D01*
X125689844Y-77571238D01*
X125550626Y-77664260D01*
X125550625Y-77664261D01*
X125550624Y-77664261D01*
X125395935Y-77728336D01*
X125231719Y-77761000D01*
X125064281Y-77761000D01*
X124900065Y-77728336D01*
X124745376Y-77664261D01*
X124745375Y-77664261D01*
X124745374Y-77664260D01*
X124606156Y-77571238D01*
X124487762Y-77452844D01*
X124394740Y-77313626D01*
X124379461Y-77276739D01*
X124330664Y-77158935D01*
X124298000Y-76994719D01*
X124298000Y-76827281D01*
X124330664Y-76663065D01*
X124394739Y-76508376D01*
X124394740Y-76508374D01*
X124487762Y-76369156D01*
X124606156Y-76250762D01*
X124745374Y-76157740D01*
X124763485Y-76150238D01*
X124900065Y-76093664D01*
X125064281Y-76061000D01*
X125231719Y-76061000D01*
X125395935Y-76093664D01*
G37*
G36*
X105530000Y-77225000D02*
G01*
X102730000Y-77225000D01*
X102730000Y-76375000D01*
X105530000Y-76375000D01*
X105530000Y-77225000D01*
G37*
G36*
X167100000Y-77180000D02*
G01*
X166600000Y-77180000D01*
X166600000Y-76280000D01*
X167100000Y-76280000D01*
X167100000Y-77180000D01*
G37*
G36*
X165600000Y-77180000D02*
G01*
X165100000Y-77180000D01*
X165100000Y-76280000D01*
X165600000Y-76280000D01*
X165600000Y-77180000D01*
G37*
G36*
X161900000Y-77105000D02*
G01*
X161100000Y-77105000D01*
X161100000Y-76355000D01*
X161900000Y-76355000D01*
X161900000Y-77105000D01*
G37*
G36*
X163400000Y-77105000D02*
G01*
X162600000Y-77105000D01*
X162600000Y-76355000D01*
X163400000Y-76355000D01*
X163400000Y-77105000D01*
G37*
G36*
X156870000Y-77095000D02*
G01*
X156070000Y-77095000D01*
X156070000Y-76345000D01*
X156870000Y-76345000D01*
X156870000Y-77095000D01*
G37*
G36*
X158370000Y-77095000D02*
G01*
X157570000Y-77095000D01*
X157570000Y-76345000D01*
X158370000Y-76345000D01*
X158370000Y-77095000D01*
G37*
G36*
X112030000Y-77000000D02*
G01*
X109530000Y-77000000D01*
X109530000Y-74450000D01*
X112030000Y-74450000D01*
X112030000Y-77000000D01*
G37*
G36*
X116600000Y-76900000D02*
G01*
X114100000Y-76900000D01*
X114100000Y-74950000D01*
X116600000Y-74950000D01*
X116600000Y-76900000D01*
G37*
G36*
X121710000Y-76880000D02*
G01*
X120810000Y-76880000D01*
X120810000Y-76080000D01*
X121710000Y-76080000D01*
X121710000Y-76880000D01*
G37*
G36*
X131975000Y-76840000D02*
G01*
X131225000Y-76840000D01*
X131225000Y-76040000D01*
X131975000Y-76040000D01*
X131975000Y-76840000D01*
G37*
G36*
X135665000Y-76840000D02*
G01*
X134915000Y-76840000D01*
X134915000Y-76040000D01*
X135665000Y-76040000D01*
X135665000Y-76840000D01*
G37*
G36*
X146660000Y-76770000D02*
G01*
X145760000Y-76770000D01*
X145760000Y-76270000D01*
X146660000Y-76270000D01*
X146660000Y-76770000D01*
G37*
G36*
X149500000Y-76770000D02*
G01*
X148600000Y-76770000D01*
X148600000Y-76270000D01*
X149500000Y-76270000D01*
X149500000Y-76770000D01*
G37*
G36*
X143480000Y-76770000D02*
G01*
X142580000Y-76770000D01*
X142580000Y-76270000D01*
X143480000Y-76270000D01*
X143480000Y-76770000D01*
G37*
G36*
X140210000Y-76750000D02*
G01*
X139310000Y-76750000D01*
X139310000Y-76250000D01*
X140210000Y-76250000D01*
X140210000Y-76750000D01*
G37*
G36*
X100700000Y-76650000D02*
G01*
X99700000Y-76650000D01*
X99700000Y-75250000D01*
X100700000Y-75250000D01*
X100700000Y-76650000D01*
G37*
G36*
X98800000Y-76650000D02*
G01*
X97800000Y-76650000D01*
X97800000Y-75250000D01*
X98800000Y-75250000D01*
X98800000Y-76650000D01*
G37*
G36*
X96500000Y-76350000D02*
G01*
X94700000Y-76350000D01*
X94700000Y-75950000D01*
X96500000Y-75950000D01*
X96500000Y-76350000D01*
G37*
G36*
X187677935Y-74672664D02*
G01*
X187832624Y-74736739D01*
X187832626Y-74736740D01*
X187971844Y-74829762D01*
X188090238Y-74948156D01*
X188183260Y-75087374D01*
X188183261Y-75087376D01*
X188247336Y-75242065D01*
X188280000Y-75406281D01*
X188280000Y-75573719D01*
X188247336Y-75737935D01*
X188242338Y-75750000D01*
X188183260Y-75892626D01*
X188090238Y-76031844D01*
X187971844Y-76150238D01*
X187832626Y-76243260D01*
X187832625Y-76243261D01*
X187832624Y-76243261D01*
X187677935Y-76307336D01*
X187513719Y-76340000D01*
X187346281Y-76340000D01*
X187182065Y-76307336D01*
X187027376Y-76243261D01*
X187027375Y-76243261D01*
X187027374Y-76243260D01*
X186888156Y-76150238D01*
X186769762Y-76031844D01*
X186676740Y-75892626D01*
X186617662Y-75750000D01*
X186612664Y-75737935D01*
X186580000Y-75573719D01*
X186580000Y-75406281D01*
X186612664Y-75242065D01*
X186676739Y-75087376D01*
X186676740Y-75087374D01*
X186769762Y-74948156D01*
X186888156Y-74829762D01*
X187027374Y-74736740D01*
X187027376Y-74736739D01*
X187182065Y-74672664D01*
X187346281Y-74640000D01*
X187513719Y-74640000D01*
X187677935Y-74672664D01*
G37*
G36*
X185137935Y-74672664D02*
G01*
X185292624Y-74736739D01*
X185292626Y-74736740D01*
X185431844Y-74829762D01*
X185550238Y-74948156D01*
X185643260Y-75087374D01*
X185643261Y-75087376D01*
X185707336Y-75242065D01*
X185740000Y-75406281D01*
X185740000Y-75573719D01*
X185707336Y-75737935D01*
X185702338Y-75750000D01*
X185643260Y-75892626D01*
X185550238Y-76031844D01*
X185431844Y-76150238D01*
X185292626Y-76243260D01*
X185292625Y-76243261D01*
X185292624Y-76243261D01*
X185137935Y-76307336D01*
X184973719Y-76340000D01*
X184806281Y-76340000D01*
X184642065Y-76307336D01*
X184487376Y-76243261D01*
X184487375Y-76243261D01*
X184487374Y-76243260D01*
X184348156Y-76150238D01*
X184229762Y-76031844D01*
X184136740Y-75892626D01*
X184077662Y-75750000D01*
X184072664Y-75737935D01*
X184040000Y-75573719D01*
X184040000Y-75406281D01*
X184072664Y-75242065D01*
X184136739Y-75087376D01*
X184136740Y-75087374D01*
X184229762Y-74948156D01*
X184348156Y-74829762D01*
X184487374Y-74736740D01*
X184487376Y-74736739D01*
X184642065Y-74672664D01*
X184806281Y-74640000D01*
X184973719Y-74640000D01*
X185137935Y-74672664D01*
G37*
G36*
X106505000Y-76250000D02*
G01*
X105655000Y-76250000D01*
X105655000Y-73450000D01*
X106505000Y-73450000D01*
X106505000Y-76250000D01*
G37*
G36*
X102605000Y-76250000D02*
G01*
X101755000Y-76250000D01*
X101755000Y-73450000D01*
X102605000Y-73450000D01*
X102605000Y-76250000D01*
G37*
G36*
X175010000Y-76160000D02*
G01*
X174110000Y-76160000D01*
X174110000Y-75360000D01*
X175010000Y-75360000D01*
X175010000Y-76160000D01*
G37*
G36*
X105030000Y-75750000D02*
G01*
X103230000Y-75750000D01*
X103230000Y-73950000D01*
X105030000Y-73950000D01*
X105030000Y-75750000D01*
G37*
G36*
X96500000Y-75700000D02*
G01*
X94700000Y-75700000D01*
X94700000Y-75300000D01*
X96500000Y-75300000D01*
X96500000Y-75700000D01*
G37*
G36*
X131975000Y-75340000D02*
G01*
X131225000Y-75340000D01*
X131225000Y-74540000D01*
X131975000Y-74540000D01*
X131975000Y-75340000D01*
G37*
G36*
X135665000Y-75340000D02*
G01*
X134915000Y-75340000D01*
X134915000Y-74540000D01*
X135665000Y-74540000D01*
X135665000Y-75340000D01*
G37*
G36*
X143480000Y-75270000D02*
G01*
X142580000Y-75270000D01*
X142580000Y-74770000D01*
X143480000Y-74770000D01*
X143480000Y-75270000D01*
G37*
G36*
X146660000Y-75270000D02*
G01*
X145760000Y-75270000D01*
X145760000Y-74770000D01*
X146660000Y-74770000D01*
X146660000Y-75270000D01*
G37*
G36*
X149500000Y-75270000D02*
G01*
X148600000Y-75270000D01*
X148600000Y-74770000D01*
X149500000Y-74770000D01*
X149500000Y-75270000D01*
G37*
G36*
X140210000Y-75250000D02*
G01*
X139310000Y-75250000D01*
X139310000Y-74750000D01*
X140210000Y-74750000D01*
X140210000Y-75250000D01*
G37*
G36*
X177010000Y-75210000D02*
G01*
X176110000Y-75210000D01*
X176110000Y-74410000D01*
X177010000Y-74410000D01*
X177010000Y-75210000D01*
G37*
G36*
X96500000Y-75050000D02*
G01*
X94700000Y-75050000D01*
X94700000Y-74650000D01*
X96500000Y-74650000D01*
X96500000Y-75050000D01*
G37*
G36*
X156720000Y-74740000D02*
G01*
X156220000Y-74740000D01*
X156220000Y-73840000D01*
X156720000Y-73840000D01*
X156720000Y-74740000D01*
G37*
G36*
X158220000Y-74740000D02*
G01*
X157720000Y-74740000D01*
X157720000Y-73840000D01*
X158220000Y-73840000D01*
X158220000Y-74740000D01*
G37*
G36*
X161750000Y-74740000D02*
G01*
X161250000Y-74740000D01*
X161250000Y-73840000D01*
X161750000Y-73840000D01*
X161750000Y-74740000D01*
G37*
G36*
X163250000Y-74740000D02*
G01*
X162750000Y-74740000D01*
X162750000Y-73840000D01*
X163250000Y-73840000D01*
X163250000Y-74740000D01*
G37*
G36*
X100620000Y-74450000D02*
G01*
X99420000Y-74450000D01*
X99420000Y-73050000D01*
X100620000Y-73050000D01*
X100620000Y-74450000D01*
G37*
G36*
X98800000Y-74450000D02*
G01*
X97800000Y-74450000D01*
X97800000Y-73050000D01*
X98800000Y-73050000D01*
X98800000Y-74450000D01*
G37*
G36*
X96500000Y-74400000D02*
G01*
X94700000Y-74400000D01*
X94700000Y-74000000D01*
X96500000Y-74000000D01*
X96500000Y-74400000D01*
G37*
G36*
X175010000Y-74260000D02*
G01*
X174110000Y-74260000D01*
X174110000Y-73460000D01*
X175010000Y-73460000D01*
X175010000Y-74260000D01*
G37*
G36*
X172200000Y-74160000D02*
G01*
X170700000Y-74160000D01*
X170700000Y-73560000D01*
X172200000Y-73560000D01*
X172200000Y-74160000D01*
G37*
G36*
X166800000Y-74160000D02*
G01*
X165300000Y-74160000D01*
X165300000Y-73560000D01*
X166800000Y-73560000D01*
X166800000Y-74160000D01*
G37*
G36*
X120675000Y-74155000D02*
G01*
X119125000Y-74155000D01*
X119125000Y-73555000D01*
X120675000Y-73555000D01*
X120675000Y-74155000D01*
G37*
G36*
X126075000Y-74155000D02*
G01*
X124525000Y-74155000D01*
X124525000Y-73555000D01*
X126075000Y-73555000D01*
X126075000Y-74155000D01*
G37*
G36*
X116600000Y-73850000D02*
G01*
X114100000Y-73850000D01*
X114100000Y-71900000D01*
X116600000Y-71900000D01*
X116600000Y-73850000D01*
G37*
G36*
X187677935Y-72132664D02*
G01*
X187832624Y-72196739D01*
X187832626Y-72196740D01*
X187971844Y-72289762D01*
X188090238Y-72408156D01*
X188118197Y-72450000D01*
X188183261Y-72547376D01*
X188247336Y-72702065D01*
X188280000Y-72866281D01*
X188280000Y-73033719D01*
X188247336Y-73197935D01*
X188194703Y-73325000D01*
X188183260Y-73352626D01*
X188090238Y-73491844D01*
X187971844Y-73610238D01*
X187832626Y-73703260D01*
X187832625Y-73703261D01*
X187832624Y-73703261D01*
X187677935Y-73767336D01*
X187513719Y-73800000D01*
X187346281Y-73800000D01*
X187182065Y-73767336D01*
X187027376Y-73703261D01*
X187027375Y-73703261D01*
X187027374Y-73703260D01*
X186888156Y-73610238D01*
X186769762Y-73491844D01*
X186676740Y-73352626D01*
X186665297Y-73325000D01*
X186612664Y-73197935D01*
X186580000Y-73033719D01*
X186580000Y-72866281D01*
X186612664Y-72702065D01*
X186676739Y-72547376D01*
X186741803Y-72450000D01*
X186769762Y-72408156D01*
X186888156Y-72289762D01*
X187027374Y-72196740D01*
X187027376Y-72196739D01*
X187182065Y-72132664D01*
X187346281Y-72100000D01*
X187513719Y-72100000D01*
X187677935Y-72132664D01*
G37*
G36*
X185137935Y-72132664D02*
G01*
X185292624Y-72196739D01*
X185292626Y-72196740D01*
X185431844Y-72289762D01*
X185550238Y-72408156D01*
X185578197Y-72450000D01*
X185643261Y-72547376D01*
X185707336Y-72702065D01*
X185740000Y-72866281D01*
X185740000Y-73033719D01*
X185707336Y-73197935D01*
X185654703Y-73325000D01*
X185643260Y-73352626D01*
X185550238Y-73491844D01*
X185431844Y-73610238D01*
X185292626Y-73703260D01*
X185292625Y-73703261D01*
X185292624Y-73703261D01*
X185137935Y-73767336D01*
X184973719Y-73800000D01*
X184806281Y-73800000D01*
X184642065Y-73767336D01*
X184487376Y-73703261D01*
X184487375Y-73703261D01*
X184487374Y-73703260D01*
X184348156Y-73610238D01*
X184229762Y-73491844D01*
X184136740Y-73352626D01*
X184125297Y-73325000D01*
X184072664Y-73197935D01*
X184040000Y-73033719D01*
X184040000Y-72866281D01*
X184072664Y-72702065D01*
X184136739Y-72547376D01*
X184201803Y-72450000D01*
X184229762Y-72408156D01*
X184348156Y-72289762D01*
X184487374Y-72196740D01*
X184487376Y-72196739D01*
X184642065Y-72132664D01*
X184806281Y-72100000D01*
X184973719Y-72100000D01*
X185137935Y-72132664D01*
G37*
G36*
X96500000Y-73750000D02*
G01*
X94700000Y-73750000D01*
X94700000Y-73350000D01*
X96500000Y-73350000D01*
X96500000Y-73750000D01*
G37*
G36*
X105530000Y-73325000D02*
G01*
X102730000Y-73325000D01*
X102730000Y-72475000D01*
X105530000Y-72475000D01*
X105530000Y-73325000D01*
G37*
G36*
X96325000Y-72950000D02*
G01*
X95075000Y-72950000D01*
X95075000Y-71900000D01*
X96325000Y-71900000D01*
X96325000Y-72950000D01*
G37*
G36*
X172200000Y-72890000D02*
G01*
X170700000Y-72890000D01*
X170700000Y-72290000D01*
X172200000Y-72290000D01*
X172200000Y-72890000D01*
G37*
G36*
X166800000Y-72890000D02*
G01*
X165300000Y-72890000D01*
X165300000Y-72290000D01*
X166800000Y-72290000D01*
X166800000Y-72890000D01*
G37*
G36*
X126075000Y-72885000D02*
G01*
X124525000Y-72885000D01*
X124525000Y-72285000D01*
X126075000Y-72285000D01*
X126075000Y-72885000D01*
G37*
G36*
X120675000Y-72885000D02*
G01*
X119125000Y-72885000D01*
X119125000Y-72285000D01*
X120675000Y-72285000D01*
X120675000Y-72885000D01*
G37*
G36*
X130550000Y-72450000D02*
G01*
X128000000Y-72450000D01*
X128000000Y-69950000D01*
X130550000Y-69950000D01*
X130550000Y-72450000D01*
G37*
G36*
X135600000Y-72450000D02*
G01*
X133050000Y-72450000D01*
X133050000Y-69950000D01*
X135600000Y-69950000D01*
X135600000Y-72450000D01*
G37*
G36*
X93650000Y-72293750D02*
G01*
X91750000Y-72293750D01*
X91750000Y-70293750D01*
X93650000Y-70293750D01*
X93650000Y-72293750D01*
G37*
G36*
X112030000Y-71950000D02*
G01*
X109530000Y-71950000D01*
X109530000Y-69400000D01*
X112030000Y-69400000D01*
X112030000Y-71950000D01*
G37*
G36*
X149500000Y-71640000D02*
G01*
X148600000Y-71640000D01*
X148600000Y-71140000D01*
X149500000Y-71140000D01*
X149500000Y-71640000D01*
G37*
G36*
X172200000Y-71620000D02*
G01*
X170700000Y-71620000D01*
X170700000Y-71020000D01*
X172200000Y-71020000D01*
X172200000Y-71620000D01*
G37*
G36*
X166800000Y-71620000D02*
G01*
X165300000Y-71620000D01*
X165300000Y-71020000D01*
X166800000Y-71020000D01*
X166800000Y-71620000D01*
G37*
G36*
X126075000Y-71615000D02*
G01*
X124525000Y-71615000D01*
X124525000Y-71015000D01*
X126075000Y-71015000D01*
X126075000Y-71615000D01*
G37*
G36*
X120675000Y-71615000D02*
G01*
X119125000Y-71615000D01*
X119125000Y-71015000D01*
X120675000Y-71015000D01*
X120675000Y-71615000D01*
G37*
G36*
X154850000Y-71600000D02*
G01*
X153450000Y-71600000D01*
X153450000Y-69300000D01*
X154850000Y-69300000D01*
X154850000Y-71600000D01*
G37*
G36*
X159250000Y-71600000D02*
G01*
X157850000Y-71600000D01*
X157850000Y-69300000D01*
X159250000Y-69300000D01*
X159250000Y-71600000D01*
G37*
G36*
X187677935Y-69592664D02*
G01*
X187832624Y-69656739D01*
X187832626Y-69656740D01*
X187971844Y-69749762D01*
X188090238Y-69868156D01*
X188144924Y-69950000D01*
X188183261Y-70007376D01*
X188247336Y-70162065D01*
X188280000Y-70326281D01*
X188280000Y-70493719D01*
X188247336Y-70657935D01*
X188219556Y-70725000D01*
X188183260Y-70812626D01*
X188090238Y-70951844D01*
X187971844Y-71070238D01*
X187832626Y-71163260D01*
X187832625Y-71163261D01*
X187832624Y-71163261D01*
X187677935Y-71227336D01*
X187513719Y-71260000D01*
X187346281Y-71260000D01*
X187182065Y-71227336D01*
X187027376Y-71163261D01*
X187027375Y-71163261D01*
X187027374Y-71163260D01*
X186888156Y-71070238D01*
X186769762Y-70951844D01*
X186676740Y-70812626D01*
X186640444Y-70725000D01*
X186612664Y-70657935D01*
X186580000Y-70493719D01*
X186580000Y-70326281D01*
X186612664Y-70162065D01*
X186676739Y-70007376D01*
X186715076Y-69950000D01*
X186769762Y-69868156D01*
X186888156Y-69749762D01*
X187027374Y-69656740D01*
X187027376Y-69656739D01*
X187182065Y-69592664D01*
X187346281Y-69560000D01*
X187513719Y-69560000D01*
X187677935Y-69592664D01*
G37*
G36*
X185740000Y-71260000D02*
G01*
X184040000Y-71260000D01*
X184040000Y-69560000D01*
X185740000Y-69560000D01*
X185740000Y-71260000D01*
G37*
G36*
X107575000Y-70800000D02*
G01*
X106825000Y-70800000D01*
X106825000Y-70000000D01*
X107575000Y-70000000D01*
X107575000Y-70800000D01*
G37*
G36*
X104975000Y-70790000D02*
G01*
X104225000Y-70790000D01*
X104225000Y-69990000D01*
X104975000Y-69990000D01*
X104975000Y-70790000D01*
G37*
G36*
X176700000Y-70725000D02*
G01*
X175900000Y-70725000D01*
X175900000Y-69975000D01*
X176700000Y-69975000D01*
X176700000Y-70725000D01*
G37*
G36*
X175200000Y-70725000D02*
G01*
X174400000Y-70725000D01*
X174400000Y-69975000D01*
X175200000Y-69975000D01*
X175200000Y-70725000D01*
G37*
G36*
X102450000Y-70640000D02*
G01*
X101550000Y-70640000D01*
X101550000Y-70140000D01*
X102450000Y-70140000D01*
X102450000Y-70640000D01*
G37*
G36*
X172200000Y-70350000D02*
G01*
X170700000Y-70350000D01*
X170700000Y-69750000D01*
X172200000Y-69750000D01*
X172200000Y-70350000D01*
G37*
G36*
X166800000Y-70350000D02*
G01*
X165300000Y-70350000D01*
X165300000Y-69750000D01*
X166800000Y-69750000D01*
X166800000Y-70350000D01*
G37*
G36*
X120675000Y-70345000D02*
G01*
X119125000Y-70345000D01*
X119125000Y-69745000D01*
X120675000Y-69745000D01*
X120675000Y-70345000D01*
G37*
G36*
X126075000Y-70345000D02*
G01*
X124525000Y-70345000D01*
X124525000Y-69745000D01*
X126075000Y-69745000D01*
X126075000Y-70345000D01*
G37*
G36*
X149500000Y-70140000D02*
G01*
X148600000Y-70140000D01*
X148600000Y-69640000D01*
X149500000Y-69640000D01*
X149500000Y-70140000D01*
G37*
G36*
X107575000Y-69300000D02*
G01*
X106825000Y-69300000D01*
X106825000Y-68500000D01*
X107575000Y-68500000D01*
X107575000Y-69300000D01*
G37*
G36*
X104975000Y-69290000D02*
G01*
X104225000Y-69290000D01*
X104225000Y-68490000D01*
X104975000Y-68490000D01*
X104975000Y-69290000D01*
G37*
G36*
X102450000Y-69140000D02*
G01*
X101550000Y-69140000D01*
X101550000Y-68640000D01*
X102450000Y-68640000D01*
X102450000Y-69140000D01*
G37*
G36*
X100015000Y-69090000D02*
G01*
X97985000Y-69090000D01*
X97985000Y-67950000D01*
X100015000Y-67950000D01*
X100015000Y-69090000D01*
G37*
G36*
X166800000Y-69080000D02*
G01*
X165300000Y-69080000D01*
X165300000Y-68480000D01*
X166800000Y-68480000D01*
X166800000Y-69080000D01*
G37*
G36*
X172200000Y-69080000D02*
G01*
X170700000Y-69080000D01*
X170700000Y-68480000D01*
X172200000Y-68480000D01*
X172200000Y-69080000D01*
G37*
G36*
X94250000Y-69000000D02*
G01*
X93050000Y-69000000D01*
X93050000Y-67800000D01*
X94250000Y-67800000D01*
X94250000Y-69000000D01*
G37*
G36*
X96590000Y-68320000D02*
G01*
X95690000Y-68320000D01*
X95690000Y-67820000D01*
X96590000Y-67820000D01*
X96590000Y-68320000D01*
G37*
G36*
X176540000Y-68200000D02*
G01*
X176040000Y-68200000D01*
X176040000Y-67300000D01*
X176540000Y-67300000D01*
X176540000Y-68200000D01*
G37*
G36*
X175040000Y-68200000D02*
G01*
X174540000Y-68200000D01*
X174540000Y-67300000D01*
X175040000Y-67300000D01*
X175040000Y-68200000D01*
G37*
G36*
X136930000Y-67830000D02*
G01*
X136030000Y-67830000D01*
X136030000Y-67030000D01*
X136930000Y-67030000D01*
X136930000Y-67830000D01*
G37*
G36*
X166800000Y-67810000D02*
G01*
X165300000Y-67810000D01*
X165300000Y-67210000D01*
X166800000Y-67210000D01*
X166800000Y-67810000D01*
G37*
G36*
X172200000Y-67810000D02*
G01*
X170700000Y-67810000D01*
X170700000Y-67210000D01*
X172200000Y-67210000D01*
X172200000Y-67810000D01*
G37*
G36*
X163400000Y-67775000D02*
G01*
X162600000Y-67775000D01*
X162600000Y-67025000D01*
X163400000Y-67025000D01*
X163400000Y-67775000D01*
G37*
G36*
X161900000Y-67775000D02*
G01*
X161100000Y-67775000D01*
X161100000Y-67025000D01*
X161900000Y-67025000D01*
X161900000Y-67775000D01*
G37*
G36*
X156870000Y-67775000D02*
G01*
X156070000Y-67775000D01*
X156070000Y-67025000D01*
X156870000Y-67025000D01*
X156870000Y-67775000D01*
G37*
G36*
X158370000Y-67775000D02*
G01*
X157570000Y-67775000D01*
X157570000Y-67025000D01*
X158370000Y-67025000D01*
X158370000Y-67775000D01*
G37*
G36*
X128580000Y-67730000D02*
G01*
X126630000Y-67730000D01*
X126630000Y-65230000D01*
X128580000Y-65230000D01*
X128580000Y-67730000D01*
G37*
G36*
X113740000Y-67730000D02*
G01*
X111190000Y-67730000D01*
X111190000Y-65230000D01*
X113740000Y-65230000D01*
X113740000Y-67730000D01*
G37*
G36*
X118790000Y-67730000D02*
G01*
X116240000Y-67730000D01*
X116240000Y-65230000D01*
X118790000Y-65230000D01*
X118790000Y-67730000D01*
G37*
G36*
X125530000Y-67730000D02*
G01*
X123580000Y-67730000D01*
X123580000Y-65230000D01*
X125530000Y-65230000D01*
X125530000Y-67730000D01*
G37*
G36*
X131800000Y-67480000D02*
G01*
X130900000Y-67480000D01*
X130900000Y-66980000D01*
X131800000Y-66980000D01*
X131800000Y-67480000D01*
G37*
G36*
X143230000Y-67330000D02*
G01*
X141930000Y-67330000D01*
X141930000Y-65630000D01*
X143230000Y-65630000D01*
X143230000Y-67330000D01*
G37*
G36*
X139730000Y-67330000D02*
G01*
X138430000Y-67330000D01*
X138430000Y-65630000D01*
X139730000Y-65630000D01*
X139730000Y-67330000D01*
G37*
G36*
X148958766Y-65758821D02*
G01*
X149095257Y-65815358D01*
X149218097Y-65897437D01*
X149322563Y-66001903D01*
X149404642Y-66124743D01*
X149461179Y-66261234D01*
X149490000Y-66406130D01*
X149490000Y-66553870D01*
X149461179Y-66698766D01*
X149404642Y-66835257D01*
X149322563Y-66958097D01*
X149218097Y-67062563D01*
X149095257Y-67144642D01*
X148958766Y-67201179D01*
X148813870Y-67230000D01*
X148666130Y-67230000D01*
X148521234Y-67201179D01*
X148384743Y-67144642D01*
X148261903Y-67062563D01*
X148157437Y-66958097D01*
X148075358Y-66835257D01*
X148018821Y-66698766D01*
X147990000Y-66553870D01*
X147990000Y-66406130D01*
X148018821Y-66261234D01*
X148075358Y-66124743D01*
X148157437Y-66001903D01*
X148261903Y-65897437D01*
X148384743Y-65815358D01*
X148521234Y-65758821D01*
X148666130Y-65730000D01*
X148813870Y-65730000D01*
X148958766Y-65758821D01*
G37*
G36*
X145608766Y-65758821D02*
G01*
X145745257Y-65815358D01*
X145868097Y-65897437D01*
X145972563Y-66001903D01*
X146054642Y-66124743D01*
X146111179Y-66261234D01*
X146140000Y-66406130D01*
X146140000Y-66553870D01*
X146111179Y-66698766D01*
X146054642Y-66835257D01*
X145972563Y-66958097D01*
X145868097Y-67062563D01*
X145745257Y-67144642D01*
X145608766Y-67201179D01*
X145463870Y-67230000D01*
X145316130Y-67230000D01*
X145171234Y-67201179D01*
X145034743Y-67144642D01*
X144911903Y-67062563D01*
X144807437Y-66958097D01*
X144725358Y-66835257D01*
X144668821Y-66698766D01*
X144640000Y-66553870D01*
X144640000Y-66406130D01*
X144668821Y-66261234D01*
X144725358Y-66124743D01*
X144807437Y-66001903D01*
X144911903Y-65897437D01*
X145034743Y-65815358D01*
X145171234Y-65758821D01*
X145316130Y-65730000D01*
X145463870Y-65730000D01*
X145608766Y-65758821D01*
G37*
G36*
X152408766Y-65748821D02*
G01*
X152545257Y-65805358D01*
X152668097Y-65887437D01*
X152772563Y-65991903D01*
X152854642Y-66114743D01*
X152911179Y-66251234D01*
X152940000Y-66396130D01*
X152940000Y-66543870D01*
X152911179Y-66688766D01*
X152854642Y-66825257D01*
X152772563Y-66948097D01*
X152668097Y-67052563D01*
X152545257Y-67134642D01*
X152408766Y-67191179D01*
X152263870Y-67220000D01*
X152116130Y-67220000D01*
X151971234Y-67191179D01*
X151834743Y-67134642D01*
X151711903Y-67052563D01*
X151607437Y-66948097D01*
X151525358Y-66825257D01*
X151468821Y-66688766D01*
X151440000Y-66543870D01*
X151440000Y-66396130D01*
X151468821Y-66251234D01*
X151525358Y-66114743D01*
X151607437Y-65991903D01*
X151711903Y-65887437D01*
X151834743Y-65805358D01*
X151971234Y-65748821D01*
X152116130Y-65720000D01*
X152263870Y-65720000D01*
X152408766Y-65748821D01*
G37*
G36*
X120700000Y-66930000D02*
G01*
X120200000Y-66930000D01*
X120200000Y-66030000D01*
X120700000Y-66030000D01*
X120700000Y-66930000D01*
G37*
G36*
X122200000Y-66930000D02*
G01*
X121700000Y-66930000D01*
X121700000Y-66030000D01*
X122200000Y-66030000D01*
X122200000Y-66930000D01*
G37*
G36*
X134930000Y-66880000D02*
G01*
X134030000Y-66880000D01*
X134030000Y-66080000D01*
X134930000Y-66080000D01*
X134930000Y-66880000D01*
G37*
G36*
X96590000Y-66820000D02*
G01*
X95690000Y-66820000D01*
X95690000Y-66320000D01*
X96590000Y-66320000D01*
X96590000Y-66820000D01*
G37*
G36*
X94250000Y-66800000D02*
G01*
X93050000Y-66800000D01*
X93050000Y-65600000D01*
X94250000Y-65600000D01*
X94250000Y-66800000D01*
G37*
G36*
X100015000Y-66690000D02*
G01*
X97985000Y-66690000D01*
X97985000Y-65550000D01*
X100015000Y-65550000D01*
X100015000Y-66690000D01*
G37*
G36*
X172200000Y-66540000D02*
G01*
X170700000Y-66540000D01*
X170700000Y-65940000D01*
X172200000Y-65940000D01*
X172200000Y-66540000D01*
G37*
G36*
X166800000Y-66540000D02*
G01*
X165300000Y-66540000D01*
X165300000Y-65940000D01*
X166800000Y-65940000D01*
X166800000Y-66540000D01*
G37*
G36*
X131800000Y-65980000D02*
G01*
X130900000Y-65980000D01*
X130900000Y-65480000D01*
X131800000Y-65480000D01*
X131800000Y-65980000D01*
G37*
G36*
X136930000Y-65930000D02*
G01*
X136030000Y-65930000D01*
X136030000Y-65130000D01*
X136930000Y-65130000D01*
X136930000Y-65930000D01*
G37*
G36*
X163230000Y-65600000D02*
G01*
X162730000Y-65600000D01*
X162730000Y-64700000D01*
X163230000Y-64700000D01*
X163230000Y-65600000D01*
G37*
G36*
X176600000Y-65600000D02*
G01*
X176100000Y-65600000D01*
X176100000Y-64700000D01*
X176600000Y-64700000D01*
X176600000Y-65600000D01*
G37*
G36*
X175100000Y-65600000D02*
G01*
X174600000Y-65600000D01*
X174600000Y-64700000D01*
X175100000Y-64700000D01*
X175100000Y-65600000D01*
G37*
G36*
X161730000Y-65600000D02*
G01*
X161230000Y-65600000D01*
X161230000Y-64700000D01*
X161730000Y-64700000D01*
X161730000Y-65600000D01*
G37*
G36*
X158220000Y-65600000D02*
G01*
X157720000Y-65600000D01*
X157720000Y-64700000D01*
X158220000Y-64700000D01*
X158220000Y-65600000D01*
G37*
G36*
X156720000Y-65600000D02*
G01*
X156220000Y-65600000D01*
X156220000Y-64700000D01*
X156720000Y-64700000D01*
X156720000Y-65600000D01*
G37*
G36*
X181636253Y-60033801D02*
G01*
X181906730Y-60087602D01*
X182117799Y-60175030D01*
X182416296Y-60298671D01*
X182416297Y-60298672D01*
X182874896Y-60605098D01*
X183264902Y-60995104D01*
X183469650Y-61301531D01*
X183571329Y-61453704D01*
X183694970Y-61752201D01*
X183782398Y-61963270D01*
X183807559Y-62089762D01*
X183890000Y-62504223D01*
X183890000Y-63055777D01*
X183857082Y-63221269D01*
X183782398Y-63596730D01*
X183745486Y-63685843D01*
X183571329Y-64106296D01*
X183571328Y-64106297D01*
X183264902Y-64564896D01*
X182874896Y-64954902D01*
X182612843Y-65130000D01*
X182416296Y-65261329D01*
X182117799Y-65384970D01*
X181906730Y-65472398D01*
X181636253Y-65526199D01*
X181365777Y-65580000D01*
X180814223Y-65580000D01*
X180543747Y-65526199D01*
X180273270Y-65472398D01*
X180062201Y-65384970D01*
X179763704Y-65261329D01*
X179567157Y-65130000D01*
X179305104Y-64954902D01*
X178915098Y-64564896D01*
X178608672Y-64106297D01*
X178608671Y-64106296D01*
X178434514Y-63685843D01*
X178397602Y-63596730D01*
X178322918Y-63221269D01*
X178290000Y-63055777D01*
X178290000Y-62504223D01*
X178372441Y-62089762D01*
X178397602Y-61963270D01*
X178485030Y-61752201D01*
X178608671Y-61453704D01*
X178710350Y-61301531D01*
X178915098Y-60995104D01*
X179305104Y-60605098D01*
X179763703Y-60298672D01*
X179763704Y-60298671D01*
X180062201Y-60175030D01*
X180273270Y-60087602D01*
X180543747Y-60033801D01*
X180814223Y-59980000D01*
X181365777Y-59980000D01*
X181636253Y-60033801D01*
G37*
G36*
X106476050Y-59980000D02*
G01*
X106966730Y-60077602D01*
X107177799Y-60165030D01*
X107476296Y-60288671D01*
X107628469Y-60390350D01*
X107934896Y-60595098D01*
X108324902Y-60985104D01*
X108331584Y-60995105D01*
X108631329Y-61443704D01*
X108635471Y-61453704D01*
X108833863Y-61932664D01*
X108842398Y-61953271D01*
X108950000Y-62494223D01*
X108950000Y-63045777D01*
X108928747Y-63152624D01*
X108842398Y-63586730D01*
X108836901Y-63600000D01*
X108631329Y-64096296D01*
X108555354Y-64210000D01*
X108324902Y-64554896D01*
X107934896Y-64944902D01*
X107657877Y-65130000D01*
X107476296Y-65251329D01*
X107177799Y-65374970D01*
X106966730Y-65462398D01*
X106916456Y-65472398D01*
X106425777Y-65570000D01*
X105874223Y-65570000D01*
X105383544Y-65472398D01*
X105333270Y-65462398D01*
X105122201Y-65374970D01*
X104823704Y-65251329D01*
X104642123Y-65130000D01*
X104365104Y-64944902D01*
X103975098Y-64554896D01*
X103744646Y-64210000D01*
X103668671Y-64096296D01*
X103463099Y-63600000D01*
X103457602Y-63586730D01*
X103371253Y-63152624D01*
X103350000Y-63045777D01*
X103350000Y-62494223D01*
X103457602Y-61953271D01*
X103466138Y-61932664D01*
X103664529Y-61453704D01*
X103668671Y-61443704D01*
X103968416Y-60995105D01*
X103975098Y-60985104D01*
X104365104Y-60595098D01*
X104671531Y-60390350D01*
X104823704Y-60288671D01*
X105122201Y-60165030D01*
X105333270Y-60077602D01*
X105823950Y-59980000D01*
X105874223Y-59970000D01*
X106425777Y-59970000D01*
X106476050Y-59980000D01*
G37*
G36*
X97850000Y-64510000D02*
G01*
X96850000Y-64510000D01*
X96850000Y-62010000D01*
X97850000Y-62010000D01*
X97850000Y-64510000D01*
G37*
G36*
X99005000Y-64435000D02*
G01*
X98375000Y-64435000D01*
X98375000Y-63985000D01*
X99005000Y-63985000D01*
X99005000Y-64435000D01*
G37*
G36*
X96325000Y-64435000D02*
G01*
X95695000Y-64435000D01*
X95695000Y-63985000D01*
X96325000Y-63985000D01*
X96325000Y-64435000D01*
G37*
G36*
X101375000Y-64210000D02*
G01*
X100625000Y-64210000D01*
X100625000Y-63410000D01*
X101375000Y-63410000D01*
X101375000Y-64210000D01*
G37*
G36*
X94025000Y-64210000D02*
G01*
X93275000Y-64210000D01*
X93275000Y-63410000D01*
X94025000Y-63410000D01*
X94025000Y-64210000D01*
G37*
G36*
X186895843Y-63059214D02*
G01*
X186895846Y-63059215D01*
X186895845Y-63059215D01*
X186986839Y-63096906D01*
X187028063Y-63124451D01*
X187068730Y-63151624D01*
X187138376Y-63221270D01*
X187193095Y-63303163D01*
X187230786Y-63394157D01*
X187250000Y-63490753D01*
X187250000Y-63589247D01*
X187230786Y-63685843D01*
X187230785Y-63685845D01*
X187193094Y-63776839D01*
X187138375Y-63858731D01*
X187068731Y-63928375D01*
X186986839Y-63983094D01*
X186986838Y-63983095D01*
X186986837Y-63983095D01*
X186895843Y-64020786D01*
X186799247Y-64040000D01*
X186700753Y-64040000D01*
X186604157Y-64020786D01*
X186513163Y-63983095D01*
X186513162Y-63983095D01*
X186513161Y-63983094D01*
X186431269Y-63928375D01*
X186361625Y-63858731D01*
X186306906Y-63776839D01*
X186269215Y-63685845D01*
X186269214Y-63685843D01*
X186250000Y-63589247D01*
X186250000Y-63490753D01*
X186269214Y-63394157D01*
X186306905Y-63303163D01*
X186361624Y-63221270D01*
X186431270Y-63151624D01*
X186471937Y-63124451D01*
X186513161Y-63096906D01*
X186604155Y-63059215D01*
X186604154Y-63059215D01*
X186604157Y-63059214D01*
X186700753Y-63040000D01*
X186799247Y-63040000D01*
X186895843Y-63059214D01*
G37*
G36*
X156557935Y-61932664D02*
G01*
X156712624Y-61996739D01*
X156712626Y-61996740D01*
X156851844Y-62089762D01*
X156970238Y-62208156D01*
X157063260Y-62347374D01*
X157063261Y-62347376D01*
X157127336Y-62502065D01*
X157160000Y-62666281D01*
X157160000Y-62833719D01*
X157127336Y-62997935D01*
X157086341Y-63096905D01*
X157063260Y-63152626D01*
X156970238Y-63291844D01*
X156851844Y-63410238D01*
X156712626Y-63503260D01*
X156712625Y-63503261D01*
X156712624Y-63503261D01*
X156557935Y-63567336D01*
X156393719Y-63600000D01*
X156226281Y-63600000D01*
X156062065Y-63567336D01*
X155907376Y-63503261D01*
X155907375Y-63503261D01*
X155907374Y-63503260D01*
X155768156Y-63410238D01*
X155649762Y-63291844D01*
X155556740Y-63152626D01*
X155533659Y-63096905D01*
X155492664Y-62997935D01*
X155460000Y-62833719D01*
X155460000Y-62666281D01*
X155492664Y-62502065D01*
X155556739Y-62347376D01*
X155556740Y-62347374D01*
X155649762Y-62208156D01*
X155768156Y-62089762D01*
X155907374Y-61996740D01*
X155907376Y-61996739D01*
X156062065Y-61932664D01*
X156226281Y-61900000D01*
X156393719Y-61900000D01*
X156557935Y-61932664D01*
G37*
G36*
X127480000Y-63600000D02*
G01*
X125780000Y-63600000D01*
X125780000Y-61900000D01*
X127480000Y-61900000D01*
X127480000Y-63600000D01*
G37*
G36*
X151717935Y-61932664D02*
G01*
X151872624Y-61996739D01*
X151872626Y-61996740D01*
X152011844Y-62089762D01*
X152130238Y-62208156D01*
X152223260Y-62347374D01*
X152223261Y-62347376D01*
X152287336Y-62502065D01*
X152320000Y-62666281D01*
X152320000Y-62833719D01*
X152287336Y-62997935D01*
X152246341Y-63096905D01*
X152223260Y-63152626D01*
X152130238Y-63291844D01*
X152011844Y-63410238D01*
X151872626Y-63503260D01*
X151872625Y-63503261D01*
X151872624Y-63503261D01*
X151717935Y-63567336D01*
X151553719Y-63600000D01*
X151386281Y-63600000D01*
X151222065Y-63567336D01*
X151067376Y-63503261D01*
X151067375Y-63503261D01*
X151067374Y-63503260D01*
X150928156Y-63410238D01*
X150809762Y-63291844D01*
X150716740Y-63152626D01*
X150693659Y-63096905D01*
X150652664Y-62997935D01*
X150620000Y-62833719D01*
X150620000Y-62666281D01*
X150652664Y-62502065D01*
X150716739Y-62347376D01*
X150716740Y-62347374D01*
X150809762Y-62208156D01*
X150928156Y-62089762D01*
X151067374Y-61996740D01*
X151067376Y-61996739D01*
X151222065Y-61932664D01*
X151386281Y-61900000D01*
X151553719Y-61900000D01*
X151717935Y-61932664D01*
G37*
G36*
X144700000Y-63600000D02*
G01*
X143000000Y-63600000D01*
X143000000Y-61900000D01*
X144700000Y-61900000D01*
X144700000Y-63600000D01*
G37*
G36*
X146637935Y-61932664D02*
G01*
X146792624Y-61996739D01*
X146792626Y-61996740D01*
X146931844Y-62089762D01*
X147050238Y-62208156D01*
X147143260Y-62347374D01*
X147143261Y-62347376D01*
X147207336Y-62502065D01*
X147240000Y-62666281D01*
X147240000Y-62833719D01*
X147207336Y-62997935D01*
X147166341Y-63096905D01*
X147143260Y-63152626D01*
X147050238Y-63291844D01*
X146931844Y-63410238D01*
X146792626Y-63503260D01*
X146792625Y-63503261D01*
X146792624Y-63503261D01*
X146637935Y-63567336D01*
X146473719Y-63600000D01*
X146306281Y-63600000D01*
X146142065Y-63567336D01*
X145987376Y-63503261D01*
X145987375Y-63503261D01*
X145987374Y-63503260D01*
X145848156Y-63410238D01*
X145729762Y-63291844D01*
X145636740Y-63152626D01*
X145613659Y-63096905D01*
X145572664Y-62997935D01*
X145540000Y-62833719D01*
X145540000Y-62666281D01*
X145572664Y-62502065D01*
X145636739Y-62347376D01*
X145636740Y-62347374D01*
X145729762Y-62208156D01*
X145848156Y-62089762D01*
X145987374Y-61996740D01*
X145987376Y-61996739D01*
X146142065Y-61932664D01*
X146306281Y-61900000D01*
X146473719Y-61900000D01*
X146637935Y-61932664D01*
G37*
G36*
X149177935Y-61932664D02*
G01*
X149332624Y-61996739D01*
X149332626Y-61996740D01*
X149471844Y-62089762D01*
X149590238Y-62208156D01*
X149683260Y-62347374D01*
X149683261Y-62347376D01*
X149747336Y-62502065D01*
X149780000Y-62666281D01*
X149780000Y-62833719D01*
X149747336Y-62997935D01*
X149706341Y-63096905D01*
X149683260Y-63152626D01*
X149590238Y-63291844D01*
X149471844Y-63410238D01*
X149332626Y-63503260D01*
X149332625Y-63503261D01*
X149332624Y-63503261D01*
X149177935Y-63567336D01*
X149013719Y-63600000D01*
X148846281Y-63600000D01*
X148682065Y-63567336D01*
X148527376Y-63503261D01*
X148527375Y-63503261D01*
X148527374Y-63503260D01*
X148388156Y-63410238D01*
X148269762Y-63291844D01*
X148176740Y-63152626D01*
X148153659Y-63096905D01*
X148112664Y-62997935D01*
X148080000Y-62833719D01*
X148080000Y-62666281D01*
X148112664Y-62502065D01*
X148176739Y-62347376D01*
X148176740Y-62347374D01*
X148269762Y-62208156D01*
X148388156Y-62089762D01*
X148527374Y-61996740D01*
X148527376Y-61996739D01*
X148682065Y-61932664D01*
X148846281Y-61900000D01*
X149013719Y-61900000D01*
X149177935Y-61932664D01*
G37*
G36*
X132280000Y-63600000D02*
G01*
X130580000Y-63600000D01*
X130580000Y-61900000D01*
X132280000Y-61900000D01*
X132280000Y-63600000D01*
G37*
G36*
X134217935Y-61932664D02*
G01*
X134372624Y-61996739D01*
X134372626Y-61996740D01*
X134511844Y-62089762D01*
X134630238Y-62208156D01*
X134723260Y-62347374D01*
X134723261Y-62347376D01*
X134787336Y-62502065D01*
X134820000Y-62666281D01*
X134820000Y-62833719D01*
X134787336Y-62997935D01*
X134746341Y-63096905D01*
X134723260Y-63152626D01*
X134630238Y-63291844D01*
X134511844Y-63410238D01*
X134372626Y-63503260D01*
X134372625Y-63503261D01*
X134372624Y-63503261D01*
X134217935Y-63567336D01*
X134053719Y-63600000D01*
X133886281Y-63600000D01*
X133722065Y-63567336D01*
X133567376Y-63503261D01*
X133567375Y-63503261D01*
X133567374Y-63503260D01*
X133428156Y-63410238D01*
X133309762Y-63291844D01*
X133216740Y-63152626D01*
X133193659Y-63096905D01*
X133152664Y-62997935D01*
X133120000Y-62833719D01*
X133120000Y-62666281D01*
X133152664Y-62502065D01*
X133216739Y-62347376D01*
X133216740Y-62347374D01*
X133309762Y-62208156D01*
X133428156Y-62089762D01*
X133567374Y-61996740D01*
X133567376Y-61996739D01*
X133722065Y-61932664D01*
X133886281Y-61900000D01*
X134053719Y-61900000D01*
X134217935Y-61932664D01*
G37*
G36*
X136757935Y-61932664D02*
G01*
X136912624Y-61996739D01*
X136912626Y-61996740D01*
X137051844Y-62089762D01*
X137170238Y-62208156D01*
X137263260Y-62347374D01*
X137263261Y-62347376D01*
X137327336Y-62502065D01*
X137360000Y-62666281D01*
X137360000Y-62833719D01*
X137327336Y-62997935D01*
X137286341Y-63096905D01*
X137263260Y-63152626D01*
X137170238Y-63291844D01*
X137051844Y-63410238D01*
X136912626Y-63503260D01*
X136912625Y-63503261D01*
X136912624Y-63503261D01*
X136757935Y-63567336D01*
X136593719Y-63600000D01*
X136426281Y-63600000D01*
X136262065Y-63567336D01*
X136107376Y-63503261D01*
X136107375Y-63503261D01*
X136107374Y-63503260D01*
X135968156Y-63410238D01*
X135849762Y-63291844D01*
X135756740Y-63152626D01*
X135733659Y-63096905D01*
X135692664Y-62997935D01*
X135660000Y-62833719D01*
X135660000Y-62666281D01*
X135692664Y-62502065D01*
X135756739Y-62347376D01*
X135756740Y-62347374D01*
X135849762Y-62208156D01*
X135968156Y-62089762D01*
X136107374Y-61996740D01*
X136107376Y-61996739D01*
X136262065Y-61932664D01*
X136426281Y-61900000D01*
X136593719Y-61900000D01*
X136757935Y-61932664D01*
G37*
G36*
X139297935Y-61932664D02*
G01*
X139452624Y-61996739D01*
X139452626Y-61996740D01*
X139591844Y-62089762D01*
X139710238Y-62208156D01*
X139803260Y-62347374D01*
X139803261Y-62347376D01*
X139867336Y-62502065D01*
X139900000Y-62666281D01*
X139900000Y-62833719D01*
X139867336Y-62997935D01*
X139826341Y-63096905D01*
X139803260Y-63152626D01*
X139710238Y-63291844D01*
X139591844Y-63410238D01*
X139452626Y-63503260D01*
X139452625Y-63503261D01*
X139452624Y-63503261D01*
X139297935Y-63567336D01*
X139133719Y-63600000D01*
X138966281Y-63600000D01*
X138802065Y-63567336D01*
X138647376Y-63503261D01*
X138647375Y-63503261D01*
X138647374Y-63503260D01*
X138508156Y-63410238D01*
X138389762Y-63291844D01*
X138296740Y-63152626D01*
X138273659Y-63096905D01*
X138232664Y-62997935D01*
X138200000Y-62833719D01*
X138200000Y-62666281D01*
X138232664Y-62502065D01*
X138296739Y-62347376D01*
X138296740Y-62347374D01*
X138389762Y-62208156D01*
X138508156Y-62089762D01*
X138647374Y-61996740D01*
X138647376Y-61996739D01*
X138802065Y-61932664D01*
X138966281Y-61900000D01*
X139133719Y-61900000D01*
X139297935Y-61932664D01*
G37*
G36*
X159097935Y-61932664D02*
G01*
X159252624Y-61996739D01*
X159252626Y-61996740D01*
X159391844Y-62089762D01*
X159510238Y-62208156D01*
X159603260Y-62347374D01*
X159603261Y-62347376D01*
X159667336Y-62502065D01*
X159700000Y-62666281D01*
X159700000Y-62833719D01*
X159667336Y-62997935D01*
X159626341Y-63096905D01*
X159603260Y-63152626D01*
X159510238Y-63291844D01*
X159391844Y-63410238D01*
X159252626Y-63503260D01*
X159252625Y-63503261D01*
X159252624Y-63503261D01*
X159097935Y-63567336D01*
X158933719Y-63600000D01*
X158766281Y-63600000D01*
X158602065Y-63567336D01*
X158447376Y-63503261D01*
X158447375Y-63503261D01*
X158447374Y-63503260D01*
X158308156Y-63410238D01*
X158189762Y-63291844D01*
X158096740Y-63152626D01*
X158073659Y-63096905D01*
X158032664Y-62997935D01*
X158000000Y-62833719D01*
X158000000Y-62666281D01*
X158032664Y-62502065D01*
X158096739Y-62347376D01*
X158096740Y-62347374D01*
X158189762Y-62208156D01*
X158308156Y-62089762D01*
X158447374Y-61996740D01*
X158447376Y-61996739D01*
X158602065Y-61932664D01*
X158766281Y-61900000D01*
X158933719Y-61900000D01*
X159097935Y-61932664D01*
G37*
G36*
X164177935Y-61932664D02*
G01*
X164332624Y-61996739D01*
X164332626Y-61996740D01*
X164471844Y-62089762D01*
X164590238Y-62208156D01*
X164683260Y-62347374D01*
X164683261Y-62347376D01*
X164747336Y-62502065D01*
X164780000Y-62666281D01*
X164780000Y-62833719D01*
X164747336Y-62997935D01*
X164706341Y-63096905D01*
X164683260Y-63152626D01*
X164590238Y-63291844D01*
X164471844Y-63410238D01*
X164332626Y-63503260D01*
X164332625Y-63503261D01*
X164332624Y-63503261D01*
X164177935Y-63567336D01*
X164013719Y-63600000D01*
X163846281Y-63600000D01*
X163682065Y-63567336D01*
X163527376Y-63503261D01*
X163527375Y-63503261D01*
X163527374Y-63503260D01*
X163388156Y-63410238D01*
X163269762Y-63291844D01*
X163176740Y-63152626D01*
X163153659Y-63096905D01*
X163112664Y-62997935D01*
X163080000Y-62833719D01*
X163080000Y-62666281D01*
X163112664Y-62502065D01*
X163176739Y-62347376D01*
X163176740Y-62347374D01*
X163269762Y-62208156D01*
X163388156Y-62089762D01*
X163527374Y-61996740D01*
X163527376Y-61996739D01*
X163682065Y-61932664D01*
X163846281Y-61900000D01*
X164013719Y-61900000D01*
X164177935Y-61932664D01*
G37*
G36*
X121797935Y-61932664D02*
G01*
X121952624Y-61996739D01*
X121952626Y-61996740D01*
X122091844Y-62089762D01*
X122210238Y-62208156D01*
X122303260Y-62347374D01*
X122303261Y-62347376D01*
X122367336Y-62502065D01*
X122400000Y-62666281D01*
X122400000Y-62833719D01*
X122367336Y-62997935D01*
X122326341Y-63096905D01*
X122303260Y-63152626D01*
X122210238Y-63291844D01*
X122091844Y-63410238D01*
X121952626Y-63503260D01*
X121952625Y-63503261D01*
X121952624Y-63503261D01*
X121797935Y-63567336D01*
X121633719Y-63600000D01*
X121466281Y-63600000D01*
X121302065Y-63567336D01*
X121147376Y-63503261D01*
X121147375Y-63503261D01*
X121147374Y-63503260D01*
X121008156Y-63410238D01*
X120889762Y-63291844D01*
X120796740Y-63152626D01*
X120773659Y-63096905D01*
X120732664Y-62997935D01*
X120700000Y-62833719D01*
X120700000Y-62666281D01*
X120732664Y-62502065D01*
X120796739Y-62347376D01*
X120796740Y-62347374D01*
X120889762Y-62208156D01*
X121008156Y-62089762D01*
X121147374Y-61996740D01*
X121147376Y-61996739D01*
X121302065Y-61932664D01*
X121466281Y-61900000D01*
X121633719Y-61900000D01*
X121797935Y-61932664D01*
G37*
G36*
X119257935Y-61932664D02*
G01*
X119412624Y-61996739D01*
X119412626Y-61996740D01*
X119551844Y-62089762D01*
X119670238Y-62208156D01*
X119763260Y-62347374D01*
X119763261Y-62347376D01*
X119827336Y-62502065D01*
X119860000Y-62666281D01*
X119860000Y-62833719D01*
X119827336Y-62997935D01*
X119786341Y-63096905D01*
X119763260Y-63152626D01*
X119670238Y-63291844D01*
X119551844Y-63410238D01*
X119412626Y-63503260D01*
X119412625Y-63503261D01*
X119412624Y-63503261D01*
X119257935Y-63567336D01*
X119093719Y-63600000D01*
X118926281Y-63600000D01*
X118762065Y-63567336D01*
X118607376Y-63503261D01*
X118607375Y-63503261D01*
X118607374Y-63503260D01*
X118468156Y-63410238D01*
X118349762Y-63291844D01*
X118256740Y-63152626D01*
X118233659Y-63096905D01*
X118192664Y-62997935D01*
X118160000Y-62833719D01*
X118160000Y-62666281D01*
X118192664Y-62502065D01*
X118256739Y-62347376D01*
X118256740Y-62347374D01*
X118349762Y-62208156D01*
X118468156Y-62089762D01*
X118607374Y-61996740D01*
X118607376Y-61996739D01*
X118762065Y-61932664D01*
X118926281Y-61900000D01*
X119093719Y-61900000D01*
X119257935Y-61932664D01*
G37*
G36*
X116717935Y-61932664D02*
G01*
X116872624Y-61996739D01*
X116872626Y-61996740D01*
X117011844Y-62089762D01*
X117130238Y-62208156D01*
X117223260Y-62347374D01*
X117223261Y-62347376D01*
X117287336Y-62502065D01*
X117320000Y-62666281D01*
X117320000Y-62833719D01*
X117287336Y-62997935D01*
X117246341Y-63096905D01*
X117223260Y-63152626D01*
X117130238Y-63291844D01*
X117011844Y-63410238D01*
X116872626Y-63503260D01*
X116872625Y-63503261D01*
X116872624Y-63503261D01*
X116717935Y-63567336D01*
X116553719Y-63600000D01*
X116386281Y-63600000D01*
X116222065Y-63567336D01*
X116067376Y-63503261D01*
X116067375Y-63503261D01*
X116067374Y-63503260D01*
X115928156Y-63410238D01*
X115809762Y-63291844D01*
X115716740Y-63152626D01*
X115693659Y-63096905D01*
X115652664Y-62997935D01*
X115620000Y-62833719D01*
X115620000Y-62666281D01*
X115652664Y-62502065D01*
X115716739Y-62347376D01*
X115716740Y-62347374D01*
X115809762Y-62208156D01*
X115928156Y-62089762D01*
X116067374Y-61996740D01*
X116067376Y-61996739D01*
X116222065Y-61932664D01*
X116386281Y-61900000D01*
X116553719Y-61900000D01*
X116717935Y-61932664D01*
G37*
G36*
X114177935Y-61932664D02*
G01*
X114332624Y-61996739D01*
X114332626Y-61996740D01*
X114471844Y-62089762D01*
X114590238Y-62208156D01*
X114683260Y-62347374D01*
X114683261Y-62347376D01*
X114747336Y-62502065D01*
X114780000Y-62666281D01*
X114780000Y-62833719D01*
X114747336Y-62997935D01*
X114706341Y-63096905D01*
X114683260Y-63152626D01*
X114590238Y-63291844D01*
X114471844Y-63410238D01*
X114332626Y-63503260D01*
X114332625Y-63503261D01*
X114332624Y-63503261D01*
X114177935Y-63567336D01*
X114013719Y-63600000D01*
X113846281Y-63600000D01*
X113682065Y-63567336D01*
X113527376Y-63503261D01*
X113527375Y-63503261D01*
X113527374Y-63503260D01*
X113388156Y-63410238D01*
X113269762Y-63291844D01*
X113176740Y-63152626D01*
X113153659Y-63096905D01*
X113112664Y-62997935D01*
X113080000Y-62833719D01*
X113080000Y-62666281D01*
X113112664Y-62502065D01*
X113176739Y-62347376D01*
X113176740Y-62347374D01*
X113269762Y-62208156D01*
X113388156Y-62089762D01*
X113527374Y-61996740D01*
X113527376Y-61996739D01*
X113682065Y-61932664D01*
X113846281Y-61900000D01*
X114013719Y-61900000D01*
X114177935Y-61932664D01*
G37*
G36*
X124337935Y-61932664D02*
G01*
X124492624Y-61996739D01*
X124492626Y-61996740D01*
X124631844Y-62089762D01*
X124750238Y-62208156D01*
X124843260Y-62347374D01*
X124843261Y-62347376D01*
X124907336Y-62502065D01*
X124940000Y-62666281D01*
X124940000Y-62833719D01*
X124907336Y-62997935D01*
X124866341Y-63096905D01*
X124843260Y-63152626D01*
X124750238Y-63291844D01*
X124631844Y-63410238D01*
X124492626Y-63503260D01*
X124492625Y-63503261D01*
X124492624Y-63503261D01*
X124337935Y-63567336D01*
X124173719Y-63600000D01*
X124006281Y-63600000D01*
X123842065Y-63567336D01*
X123687376Y-63503261D01*
X123687375Y-63503261D01*
X123687374Y-63503260D01*
X123548156Y-63410238D01*
X123429762Y-63291844D01*
X123336740Y-63152626D01*
X123313659Y-63096905D01*
X123272664Y-62997935D01*
X123240000Y-62833719D01*
X123240000Y-62666281D01*
X123272664Y-62502065D01*
X123336739Y-62347376D01*
X123336740Y-62347374D01*
X123429762Y-62208156D01*
X123548156Y-62089762D01*
X123687374Y-61996740D01*
X123687376Y-61996739D01*
X123842065Y-61932664D01*
X124006281Y-61900000D01*
X124173719Y-61900000D01*
X124337935Y-61932664D01*
G37*
G36*
X174940000Y-63600000D02*
G01*
X173240000Y-63600000D01*
X173240000Y-61900000D01*
X174940000Y-61900000D01*
X174940000Y-63600000D01*
G37*
G36*
X171797935Y-61932664D02*
G01*
X171952624Y-61996739D01*
X171952626Y-61996740D01*
X172091844Y-62089762D01*
X172210238Y-62208156D01*
X172303260Y-62347374D01*
X172303261Y-62347376D01*
X172367336Y-62502065D01*
X172400000Y-62666281D01*
X172400000Y-62833719D01*
X172367336Y-62997935D01*
X172326341Y-63096905D01*
X172303260Y-63152626D01*
X172210238Y-63291844D01*
X172091844Y-63410238D01*
X171952626Y-63503260D01*
X171952625Y-63503261D01*
X171952624Y-63503261D01*
X171797935Y-63567336D01*
X171633719Y-63600000D01*
X171466281Y-63600000D01*
X171302065Y-63567336D01*
X171147376Y-63503261D01*
X171147375Y-63503261D01*
X171147374Y-63503260D01*
X171008156Y-63410238D01*
X170889762Y-63291844D01*
X170796740Y-63152626D01*
X170773659Y-63096905D01*
X170732664Y-62997935D01*
X170700000Y-62833719D01*
X170700000Y-62666281D01*
X170732664Y-62502065D01*
X170796739Y-62347376D01*
X170796740Y-62347374D01*
X170889762Y-62208156D01*
X171008156Y-62089762D01*
X171147374Y-61996740D01*
X171147376Y-61996739D01*
X171302065Y-61932664D01*
X171466281Y-61900000D01*
X171633719Y-61900000D01*
X171797935Y-61932664D01*
G37*
G36*
X169257935Y-61932664D02*
G01*
X169412624Y-61996739D01*
X169412626Y-61996740D01*
X169551844Y-62089762D01*
X169670238Y-62208156D01*
X169763260Y-62347374D01*
X169763261Y-62347376D01*
X169827336Y-62502065D01*
X169860000Y-62666281D01*
X169860000Y-62833719D01*
X169827336Y-62997935D01*
X169786341Y-63096905D01*
X169763260Y-63152626D01*
X169670238Y-63291844D01*
X169551844Y-63410238D01*
X169412626Y-63503260D01*
X169412625Y-63503261D01*
X169412624Y-63503261D01*
X169257935Y-63567336D01*
X169093719Y-63600000D01*
X168926281Y-63600000D01*
X168762065Y-63567336D01*
X168607376Y-63503261D01*
X168607375Y-63503261D01*
X168607374Y-63503260D01*
X168468156Y-63410238D01*
X168349762Y-63291844D01*
X168256740Y-63152626D01*
X168233659Y-63096905D01*
X168192664Y-62997935D01*
X168160000Y-62833719D01*
X168160000Y-62666281D01*
X168192664Y-62502065D01*
X168256739Y-62347376D01*
X168256740Y-62347374D01*
X168349762Y-62208156D01*
X168468156Y-62089762D01*
X168607374Y-61996740D01*
X168607376Y-61996739D01*
X168762065Y-61932664D01*
X168926281Y-61900000D01*
X169093719Y-61900000D01*
X169257935Y-61932664D01*
G37*
G36*
X166717935Y-61932664D02*
G01*
X166872624Y-61996739D01*
X166872626Y-61996740D01*
X167011844Y-62089762D01*
X167130238Y-62208156D01*
X167223260Y-62347374D01*
X167223261Y-62347376D01*
X167287336Y-62502065D01*
X167320000Y-62666281D01*
X167320000Y-62833719D01*
X167287336Y-62997935D01*
X167246341Y-63096905D01*
X167223260Y-63152626D01*
X167130238Y-63291844D01*
X167011844Y-63410238D01*
X166872626Y-63503260D01*
X166872625Y-63503261D01*
X166872624Y-63503261D01*
X166717935Y-63567336D01*
X166553719Y-63600000D01*
X166386281Y-63600000D01*
X166222065Y-63567336D01*
X166067376Y-63503261D01*
X166067375Y-63503261D01*
X166067374Y-63503260D01*
X165928156Y-63410238D01*
X165809762Y-63291844D01*
X165716740Y-63152626D01*
X165693659Y-63096905D01*
X165652664Y-62997935D01*
X165620000Y-62833719D01*
X165620000Y-62666281D01*
X165652664Y-62502065D01*
X165716739Y-62347376D01*
X165716740Y-62347374D01*
X165809762Y-62208156D01*
X165928156Y-62089762D01*
X166067374Y-61996740D01*
X166067376Y-61996739D01*
X166222065Y-61932664D01*
X166386281Y-61900000D01*
X166553719Y-61900000D01*
X166717935Y-61932664D01*
G37*
G36*
X161637935Y-61932664D02*
G01*
X161792624Y-61996739D01*
X161792626Y-61996740D01*
X161931844Y-62089762D01*
X162050238Y-62208156D01*
X162143260Y-62347374D01*
X162143261Y-62347376D01*
X162207336Y-62502065D01*
X162240000Y-62666281D01*
X162240000Y-62833719D01*
X162207336Y-62997935D01*
X162166341Y-63096905D01*
X162143260Y-63152626D01*
X162050238Y-63291844D01*
X161931844Y-63410238D01*
X161792626Y-63503260D01*
X161792625Y-63503261D01*
X161792624Y-63503261D01*
X161637935Y-63567336D01*
X161473719Y-63600000D01*
X161306281Y-63600000D01*
X161142065Y-63567336D01*
X160987376Y-63503261D01*
X160987375Y-63503261D01*
X160987374Y-63503260D01*
X160848156Y-63410238D01*
X160729762Y-63291844D01*
X160636740Y-63152626D01*
X160613659Y-63096905D01*
X160572664Y-62997935D01*
X160540000Y-62833719D01*
X160540000Y-62666281D01*
X160572664Y-62502065D01*
X160636739Y-62347376D01*
X160636740Y-62347374D01*
X160729762Y-62208156D01*
X160848156Y-62089762D01*
X160987374Y-61996740D01*
X160987376Y-61996739D01*
X161142065Y-61932664D01*
X161306281Y-61900000D01*
X161473719Y-61900000D01*
X161637935Y-61932664D01*
G37*
G36*
X96325000Y-63485000D02*
G01*
X95695000Y-63485000D01*
X95695000Y-63035000D01*
X96325000Y-63035000D01*
X96325000Y-63485000D01*
G37*
G36*
X99005000Y-63485000D02*
G01*
X98375000Y-63485000D01*
X98375000Y-63035000D01*
X99005000Y-63035000D01*
X99005000Y-63485000D01*
G37*
G36*
X101375000Y-62710000D02*
G01*
X100625000Y-62710000D01*
X100625000Y-61910000D01*
X101375000Y-61910000D01*
X101375000Y-62710000D01*
G37*
G36*
X94025000Y-62710000D02*
G01*
X93275000Y-62710000D01*
X93275000Y-61910000D01*
X94025000Y-61910000D01*
X94025000Y-62710000D01*
G37*
G36*
X96325000Y-62535000D02*
G01*
X95695000Y-62535000D01*
X95695000Y-62085000D01*
X96325000Y-62085000D01*
X96325000Y-62535000D01*
G37*
G36*
X99005000Y-62535000D02*
G01*
X98375000Y-62535000D01*
X98375000Y-62085000D01*
X99005000Y-62085000D01*
X99005000Y-62535000D01*
G37*
M02*
