G04 #@! TF.GenerationSoftware,KiCad,Pcbnew,5.1.6-c6e7f7d~87~ubuntu18.04.1*
G04 #@! TF.CreationDate,2020-10-25T15:07:59+02:00*
G04 #@! TF.ProjectId,PSLab,50534c61-622e-46b6-9963-61645f706362,v6.1*
G04 #@! TF.SameCoordinates,Original*
G04 #@! TF.FileFunction,Soldermask,Bot*
G04 #@! TF.FilePolarity,Negative*
%FSLAX46Y46*%
G04 Gerber Fmt 4.6, Leading zero omitted, Abs format (unit mm)*
G04 Created by KiCad (PCBNEW 5.1.6-c6e7f7d~87~ubuntu18.04.1) date 2020-10-25 15:07:59*
%MOMM*%
%LPD*%
G01*
G04 APERTURE LIST*
%ADD10C,0.100000*%
G04 APERTURE END LIST*
D10*
G36*
X105426253Y-108273801D02*
G01*
X105696730Y-108327602D01*
X105907799Y-108415030D01*
X106206296Y-108538671D01*
X106206297Y-108538672D01*
X106664896Y-108845098D01*
X107054902Y-109235104D01*
X107104077Y-109308700D01*
X107361329Y-109693704D01*
X107484970Y-109992201D01*
X107568256Y-110193270D01*
X107572398Y-110203271D01*
X107680000Y-110744223D01*
X107680000Y-111295777D01*
X107660885Y-111391873D01*
X107572398Y-111836730D01*
X107502887Y-112004544D01*
X107361329Y-112346296D01*
X107361328Y-112346297D01*
X107054902Y-112804896D01*
X106664896Y-113194902D01*
X106358469Y-113399650D01*
X106206296Y-113501329D01*
X105907799Y-113624970D01*
X105696730Y-113712398D01*
X105426253Y-113766199D01*
X105155777Y-113820000D01*
X104604223Y-113820000D01*
X104333747Y-113766199D01*
X104063270Y-113712398D01*
X103852201Y-113624970D01*
X103553704Y-113501329D01*
X103401531Y-113399650D01*
X103095104Y-113194902D01*
X102705098Y-112804896D01*
X102398672Y-112346297D01*
X102398671Y-112346296D01*
X102257113Y-112004544D01*
X102187602Y-111836730D01*
X102099115Y-111391873D01*
X102080000Y-111295777D01*
X102080000Y-110744223D01*
X102187602Y-110203271D01*
X102191745Y-110193270D01*
X102275030Y-109992201D01*
X102398671Y-109693704D01*
X102655923Y-109308700D01*
X102705098Y-109235104D01*
X103095104Y-108845098D01*
X103553703Y-108538672D01*
X103553704Y-108538671D01*
X103852201Y-108415030D01*
X104063270Y-108327602D01*
X104333747Y-108273801D01*
X104604223Y-108220000D01*
X105155777Y-108220000D01*
X105426253Y-108273801D01*
G37*
G36*
X187746050Y-108220000D02*
G01*
X188236730Y-108317602D01*
X188447799Y-108405030D01*
X188746296Y-108528671D01*
X188803143Y-108566655D01*
X189204896Y-108835098D01*
X189594902Y-109225104D01*
X189615501Y-109255933D01*
X189901329Y-109683704D01*
X189905471Y-109693704D01*
X190112398Y-110193270D01*
X190125008Y-110256664D01*
X190220000Y-110734223D01*
X190220000Y-111285777D01*
X190198896Y-111391873D01*
X190112398Y-111826730D01*
X190085637Y-111891336D01*
X189901329Y-112336296D01*
X189870909Y-112381822D01*
X189594902Y-112794896D01*
X189204896Y-113184902D01*
X188898469Y-113389650D01*
X188746296Y-113491329D01*
X188447799Y-113614970D01*
X188236730Y-113702398D01*
X188186456Y-113712398D01*
X187695777Y-113810000D01*
X187144223Y-113810000D01*
X186653544Y-113712398D01*
X186603270Y-113702398D01*
X186392201Y-113614970D01*
X186093704Y-113491329D01*
X185941531Y-113389650D01*
X185635104Y-113184902D01*
X185245098Y-112794896D01*
X184969091Y-112381822D01*
X184938671Y-112336296D01*
X184754363Y-111891336D01*
X184727602Y-111826730D01*
X184641104Y-111391873D01*
X184620000Y-111285777D01*
X184620000Y-110734223D01*
X184714992Y-110256664D01*
X184727602Y-110193270D01*
X184934529Y-109693704D01*
X184938671Y-109683704D01*
X185224499Y-109255933D01*
X185245098Y-109225104D01*
X185635104Y-108835098D01*
X186036857Y-108566655D01*
X186093704Y-108528671D01*
X186392201Y-108405030D01*
X186603270Y-108317602D01*
X187093950Y-108220000D01*
X187144223Y-108210000D01*
X187695777Y-108210000D01*
X187746050Y-108220000D01*
G37*
G36*
X96610182Y-111262500D02*
G01*
X96737573Y-111315267D01*
X96794510Y-111353311D01*
X96852224Y-111391874D01*
X96949726Y-111489376D01*
X96949727Y-111489378D01*
X97026333Y-111604027D01*
X97079100Y-111731418D01*
X97106000Y-111866655D01*
X97106000Y-112004545D01*
X97079100Y-112139782D01*
X97026333Y-112267173D01*
X97026332Y-112267174D01*
X96949726Y-112381824D01*
X96852224Y-112479326D01*
X96794510Y-112517889D01*
X96737573Y-112555933D01*
X96610182Y-112608700D01*
X96474945Y-112635600D01*
X96337055Y-112635600D01*
X96201818Y-112608700D01*
X96074427Y-112555933D01*
X96017490Y-112517889D01*
X95959776Y-112479326D01*
X95862274Y-112381824D01*
X95785668Y-112267174D01*
X95785667Y-112267173D01*
X95732900Y-112139782D01*
X95706000Y-112004545D01*
X95706000Y-111866655D01*
X95732900Y-111731418D01*
X95785667Y-111604027D01*
X95862273Y-111489378D01*
X95862274Y-111489376D01*
X95959776Y-111391874D01*
X96017490Y-111353311D01*
X96074427Y-111315267D01*
X96201818Y-111262500D01*
X96337055Y-111235600D01*
X96474945Y-111235600D01*
X96610182Y-111262500D01*
G37*
G36*
X99110182Y-111262500D02*
G01*
X99237573Y-111315267D01*
X99294510Y-111353311D01*
X99352224Y-111391874D01*
X99449726Y-111489376D01*
X99449727Y-111489378D01*
X99526333Y-111604027D01*
X99579100Y-111731418D01*
X99606000Y-111866655D01*
X99606000Y-112004545D01*
X99579100Y-112139782D01*
X99526333Y-112267173D01*
X99526332Y-112267174D01*
X99449726Y-112381824D01*
X99352224Y-112479326D01*
X99294510Y-112517889D01*
X99237573Y-112555933D01*
X99110182Y-112608700D01*
X98974945Y-112635600D01*
X98837055Y-112635600D01*
X98701818Y-112608700D01*
X98574427Y-112555933D01*
X98517490Y-112517889D01*
X98459776Y-112479326D01*
X98362274Y-112381824D01*
X98285668Y-112267174D01*
X98285667Y-112267173D01*
X98232900Y-112139782D01*
X98206000Y-112004545D01*
X98206000Y-111866655D01*
X98232900Y-111731418D01*
X98285667Y-111604027D01*
X98362273Y-111489378D01*
X98362274Y-111489376D01*
X98459776Y-111391874D01*
X98517490Y-111353311D01*
X98574427Y-111315267D01*
X98701818Y-111262500D01*
X98837055Y-111235600D01*
X98974945Y-111235600D01*
X99110182Y-111262500D01*
G37*
G36*
X94110182Y-111262500D02*
G01*
X94237573Y-111315267D01*
X94294510Y-111353311D01*
X94352224Y-111391874D01*
X94449726Y-111489376D01*
X94449727Y-111489378D01*
X94526333Y-111604027D01*
X94579100Y-111731418D01*
X94606000Y-111866655D01*
X94606000Y-112004545D01*
X94579100Y-112139782D01*
X94526333Y-112267173D01*
X94526332Y-112267174D01*
X94449726Y-112381824D01*
X94352224Y-112479326D01*
X94294510Y-112517889D01*
X94237573Y-112555933D01*
X94110182Y-112608700D01*
X93974945Y-112635600D01*
X93837055Y-112635600D01*
X93701818Y-112608700D01*
X93574427Y-112555933D01*
X93517490Y-112517889D01*
X93459776Y-112479326D01*
X93362274Y-112381824D01*
X93285668Y-112267174D01*
X93285667Y-112267173D01*
X93232900Y-112139782D01*
X93206000Y-112004545D01*
X93206000Y-111866655D01*
X93232900Y-111731418D01*
X93285667Y-111604027D01*
X93362273Y-111489378D01*
X93362274Y-111489376D01*
X93459776Y-111391874D01*
X93517490Y-111353311D01*
X93574427Y-111315267D01*
X93701818Y-111262500D01*
X93837055Y-111235600D01*
X93974945Y-111235600D01*
X94110182Y-111262500D01*
G37*
G36*
X138908735Y-110256664D02*
G01*
X139063424Y-110320739D01*
X139063426Y-110320740D01*
X139202644Y-110413762D01*
X139321038Y-110532156D01*
X139414060Y-110671374D01*
X139414061Y-110671376D01*
X139478136Y-110826065D01*
X139510800Y-110990281D01*
X139510800Y-111157719D01*
X139478136Y-111321935D01*
X139449166Y-111391873D01*
X139414060Y-111476626D01*
X139321038Y-111615844D01*
X139202644Y-111734238D01*
X139063426Y-111827260D01*
X139063425Y-111827261D01*
X139063424Y-111827261D01*
X138908735Y-111891336D01*
X138744519Y-111924000D01*
X138577081Y-111924000D01*
X138412865Y-111891336D01*
X138258176Y-111827261D01*
X138258175Y-111827261D01*
X138258174Y-111827260D01*
X138118956Y-111734238D01*
X138000562Y-111615844D01*
X137907540Y-111476626D01*
X137872434Y-111391873D01*
X137843464Y-111321935D01*
X137810800Y-111157719D01*
X137810800Y-110990281D01*
X137843464Y-110826065D01*
X137907539Y-110671376D01*
X137907540Y-110671374D01*
X138000562Y-110532156D01*
X138118956Y-110413762D01*
X138258174Y-110320740D01*
X138258176Y-110320739D01*
X138412865Y-110256664D01*
X138577081Y-110224000D01*
X138744519Y-110224000D01*
X138908735Y-110256664D01*
G37*
G36*
X122347935Y-110256664D02*
G01*
X122502624Y-110320739D01*
X122502626Y-110320740D01*
X122641844Y-110413762D01*
X122760238Y-110532156D01*
X122853260Y-110671374D01*
X122853261Y-110671376D01*
X122917336Y-110826065D01*
X122950000Y-110990281D01*
X122950000Y-111157719D01*
X122917336Y-111321935D01*
X122888366Y-111391873D01*
X122853260Y-111476626D01*
X122760238Y-111615844D01*
X122641844Y-111734238D01*
X122502626Y-111827260D01*
X122502625Y-111827261D01*
X122502624Y-111827261D01*
X122347935Y-111891336D01*
X122183719Y-111924000D01*
X122016281Y-111924000D01*
X121852065Y-111891336D01*
X121697376Y-111827261D01*
X121697375Y-111827261D01*
X121697374Y-111827260D01*
X121558156Y-111734238D01*
X121439762Y-111615844D01*
X121346740Y-111476626D01*
X121311634Y-111391873D01*
X121282664Y-111321935D01*
X121250000Y-111157719D01*
X121250000Y-110990281D01*
X121282664Y-110826065D01*
X121346739Y-110671376D01*
X121346740Y-110671374D01*
X121439762Y-110532156D01*
X121558156Y-110413762D01*
X121697374Y-110320740D01*
X121697376Y-110320739D01*
X121852065Y-110256664D01*
X122016281Y-110224000D01*
X122183719Y-110224000D01*
X122347935Y-110256664D01*
G37*
G36*
X120410000Y-111924000D02*
G01*
X118710000Y-111924000D01*
X118710000Y-110224000D01*
X120410000Y-110224000D01*
X120410000Y-111924000D01*
G37*
G36*
X143988735Y-110256664D02*
G01*
X144143424Y-110320739D01*
X144143426Y-110320740D01*
X144282644Y-110413762D01*
X144401038Y-110532156D01*
X144494060Y-110671374D01*
X144494061Y-110671376D01*
X144558136Y-110826065D01*
X144590800Y-110990281D01*
X144590800Y-111157719D01*
X144558136Y-111321935D01*
X144529166Y-111391873D01*
X144494060Y-111476626D01*
X144401038Y-111615844D01*
X144282644Y-111734238D01*
X144143426Y-111827260D01*
X144143425Y-111827261D01*
X144143424Y-111827261D01*
X143988735Y-111891336D01*
X143824519Y-111924000D01*
X143657081Y-111924000D01*
X143492865Y-111891336D01*
X143338176Y-111827261D01*
X143338175Y-111827261D01*
X143338174Y-111827260D01*
X143198956Y-111734238D01*
X143080562Y-111615844D01*
X142987540Y-111476626D01*
X142952434Y-111391873D01*
X142923464Y-111321935D01*
X142890800Y-111157719D01*
X142890800Y-110990281D01*
X142923464Y-110826065D01*
X142987539Y-110671376D01*
X142987540Y-110671374D01*
X143080562Y-110532156D01*
X143198956Y-110413762D01*
X143338174Y-110320740D01*
X143338176Y-110320739D01*
X143492865Y-110256664D01*
X143657081Y-110224000D01*
X143824519Y-110224000D01*
X143988735Y-110256664D01*
G37*
G36*
X141448735Y-110256664D02*
G01*
X141603424Y-110320739D01*
X141603426Y-110320740D01*
X141742644Y-110413762D01*
X141861038Y-110532156D01*
X141954060Y-110671374D01*
X141954061Y-110671376D01*
X142018136Y-110826065D01*
X142050800Y-110990281D01*
X142050800Y-111157719D01*
X142018136Y-111321935D01*
X141989166Y-111391873D01*
X141954060Y-111476626D01*
X141861038Y-111615844D01*
X141742644Y-111734238D01*
X141603426Y-111827260D01*
X141603425Y-111827261D01*
X141603424Y-111827261D01*
X141448735Y-111891336D01*
X141284519Y-111924000D01*
X141117081Y-111924000D01*
X140952865Y-111891336D01*
X140798176Y-111827261D01*
X140798175Y-111827261D01*
X140798174Y-111827260D01*
X140658956Y-111734238D01*
X140540562Y-111615844D01*
X140447540Y-111476626D01*
X140412434Y-111391873D01*
X140383464Y-111321935D01*
X140350800Y-111157719D01*
X140350800Y-110990281D01*
X140383464Y-110826065D01*
X140447539Y-110671376D01*
X140447540Y-110671374D01*
X140540562Y-110532156D01*
X140658956Y-110413762D01*
X140798174Y-110320740D01*
X140798176Y-110320739D01*
X140952865Y-110256664D01*
X141117081Y-110224000D01*
X141284519Y-110224000D01*
X141448735Y-110256664D01*
G37*
G36*
X136368735Y-110256664D02*
G01*
X136523424Y-110320739D01*
X136523426Y-110320740D01*
X136662644Y-110413762D01*
X136781038Y-110532156D01*
X136874060Y-110671374D01*
X136874061Y-110671376D01*
X136938136Y-110826065D01*
X136970800Y-110990281D01*
X136970800Y-111157719D01*
X136938136Y-111321935D01*
X136909166Y-111391873D01*
X136874060Y-111476626D01*
X136781038Y-111615844D01*
X136662644Y-111734238D01*
X136523426Y-111827260D01*
X136523425Y-111827261D01*
X136523424Y-111827261D01*
X136368735Y-111891336D01*
X136204519Y-111924000D01*
X136037081Y-111924000D01*
X135872865Y-111891336D01*
X135718176Y-111827261D01*
X135718175Y-111827261D01*
X135718174Y-111827260D01*
X135578956Y-111734238D01*
X135460562Y-111615844D01*
X135367540Y-111476626D01*
X135332434Y-111391873D01*
X135303464Y-111321935D01*
X135270800Y-111157719D01*
X135270800Y-110990281D01*
X135303464Y-110826065D01*
X135367539Y-110671376D01*
X135367540Y-110671374D01*
X135460562Y-110532156D01*
X135578956Y-110413762D01*
X135718174Y-110320740D01*
X135718176Y-110320739D01*
X135872865Y-110256664D01*
X136037081Y-110224000D01*
X136204519Y-110224000D01*
X136368735Y-110256664D01*
G37*
G36*
X134430800Y-111924000D02*
G01*
X132730800Y-111924000D01*
X132730800Y-110224000D01*
X134430800Y-110224000D01*
X134430800Y-111924000D01*
G37*
G36*
X166797935Y-110256664D02*
G01*
X166952624Y-110320739D01*
X166952626Y-110320740D01*
X167091844Y-110413762D01*
X167210238Y-110532156D01*
X167303260Y-110671374D01*
X167303261Y-110671376D01*
X167367336Y-110826065D01*
X167400000Y-110990281D01*
X167400000Y-111157719D01*
X167367336Y-111321935D01*
X167338366Y-111391873D01*
X167303260Y-111476626D01*
X167210238Y-111615844D01*
X167091844Y-111734238D01*
X166952626Y-111827260D01*
X166952625Y-111827261D01*
X166952624Y-111827261D01*
X166797935Y-111891336D01*
X166633719Y-111924000D01*
X166466281Y-111924000D01*
X166302065Y-111891336D01*
X166147376Y-111827261D01*
X166147375Y-111827261D01*
X166147374Y-111827260D01*
X166008156Y-111734238D01*
X165889762Y-111615844D01*
X165796740Y-111476626D01*
X165761634Y-111391873D01*
X165732664Y-111321935D01*
X165700000Y-111157719D01*
X165700000Y-110990281D01*
X165732664Y-110826065D01*
X165796739Y-110671376D01*
X165796740Y-110671374D01*
X165889762Y-110532156D01*
X166008156Y-110413762D01*
X166147374Y-110320740D01*
X166147376Y-110320739D01*
X166302065Y-110256664D01*
X166466281Y-110224000D01*
X166633719Y-110224000D01*
X166797935Y-110256664D01*
G37*
G36*
X161717935Y-110256664D02*
G01*
X161872624Y-110320739D01*
X161872626Y-110320740D01*
X162011844Y-110413762D01*
X162130238Y-110532156D01*
X162223260Y-110671374D01*
X162223261Y-110671376D01*
X162287336Y-110826065D01*
X162320000Y-110990281D01*
X162320000Y-111157719D01*
X162287336Y-111321935D01*
X162258366Y-111391873D01*
X162223260Y-111476626D01*
X162130238Y-111615844D01*
X162011844Y-111734238D01*
X161872626Y-111827260D01*
X161872625Y-111827261D01*
X161872624Y-111827261D01*
X161717935Y-111891336D01*
X161553719Y-111924000D01*
X161386281Y-111924000D01*
X161222065Y-111891336D01*
X161067376Y-111827261D01*
X161067375Y-111827261D01*
X161067374Y-111827260D01*
X160928156Y-111734238D01*
X160809762Y-111615844D01*
X160716740Y-111476626D01*
X160681634Y-111391873D01*
X160652664Y-111321935D01*
X160620000Y-111157719D01*
X160620000Y-110990281D01*
X160652664Y-110826065D01*
X160716739Y-110671376D01*
X160716740Y-110671374D01*
X160809762Y-110532156D01*
X160928156Y-110413762D01*
X161067374Y-110320740D01*
X161067376Y-110320739D01*
X161222065Y-110256664D01*
X161386281Y-110224000D01*
X161553719Y-110224000D01*
X161717935Y-110256664D01*
G37*
G36*
X159177935Y-110256664D02*
G01*
X159332624Y-110320739D01*
X159332626Y-110320740D01*
X159471844Y-110413762D01*
X159590238Y-110532156D01*
X159683260Y-110671374D01*
X159683261Y-110671376D01*
X159747336Y-110826065D01*
X159780000Y-110990281D01*
X159780000Y-111157719D01*
X159747336Y-111321935D01*
X159718366Y-111391873D01*
X159683260Y-111476626D01*
X159590238Y-111615844D01*
X159471844Y-111734238D01*
X159332626Y-111827260D01*
X159332625Y-111827261D01*
X159332624Y-111827261D01*
X159177935Y-111891336D01*
X159013719Y-111924000D01*
X158846281Y-111924000D01*
X158682065Y-111891336D01*
X158527376Y-111827261D01*
X158527375Y-111827261D01*
X158527374Y-111827260D01*
X158388156Y-111734238D01*
X158269762Y-111615844D01*
X158176740Y-111476626D01*
X158141634Y-111391873D01*
X158112664Y-111321935D01*
X158080000Y-111157719D01*
X158080000Y-110990281D01*
X158112664Y-110826065D01*
X158176739Y-110671376D01*
X158176740Y-110671374D01*
X158269762Y-110532156D01*
X158388156Y-110413762D01*
X158527374Y-110320740D01*
X158527376Y-110320739D01*
X158682065Y-110256664D01*
X158846281Y-110224000D01*
X159013719Y-110224000D01*
X159177935Y-110256664D01*
G37*
G36*
X124887935Y-110256664D02*
G01*
X125042624Y-110320739D01*
X125042626Y-110320740D01*
X125181844Y-110413762D01*
X125300238Y-110532156D01*
X125393260Y-110671374D01*
X125393261Y-110671376D01*
X125457336Y-110826065D01*
X125490000Y-110990281D01*
X125490000Y-111157719D01*
X125457336Y-111321935D01*
X125428366Y-111391873D01*
X125393260Y-111476626D01*
X125300238Y-111615844D01*
X125181844Y-111734238D01*
X125042626Y-111827260D01*
X125042625Y-111827261D01*
X125042624Y-111827261D01*
X124887935Y-111891336D01*
X124723719Y-111924000D01*
X124556281Y-111924000D01*
X124392065Y-111891336D01*
X124237376Y-111827261D01*
X124237375Y-111827261D01*
X124237374Y-111827260D01*
X124098156Y-111734238D01*
X123979762Y-111615844D01*
X123886740Y-111476626D01*
X123851634Y-111391873D01*
X123822664Y-111321935D01*
X123790000Y-111157719D01*
X123790000Y-110990281D01*
X123822664Y-110826065D01*
X123886739Y-110671376D01*
X123886740Y-110671374D01*
X123979762Y-110532156D01*
X124098156Y-110413762D01*
X124237374Y-110320740D01*
X124237376Y-110320739D01*
X124392065Y-110256664D01*
X124556281Y-110224000D01*
X124723719Y-110224000D01*
X124887935Y-110256664D01*
G37*
G36*
X156637935Y-110256664D02*
G01*
X156792624Y-110320739D01*
X156792626Y-110320740D01*
X156931844Y-110413762D01*
X157050238Y-110532156D01*
X157143260Y-110671374D01*
X157143261Y-110671376D01*
X157207336Y-110826065D01*
X157240000Y-110990281D01*
X157240000Y-111157719D01*
X157207336Y-111321935D01*
X157178366Y-111391873D01*
X157143260Y-111476626D01*
X157050238Y-111615844D01*
X156931844Y-111734238D01*
X156792626Y-111827260D01*
X156792625Y-111827261D01*
X156792624Y-111827261D01*
X156637935Y-111891336D01*
X156473719Y-111924000D01*
X156306281Y-111924000D01*
X156142065Y-111891336D01*
X155987376Y-111827261D01*
X155987375Y-111827261D01*
X155987374Y-111827260D01*
X155848156Y-111734238D01*
X155729762Y-111615844D01*
X155636740Y-111476626D01*
X155601634Y-111391873D01*
X155572664Y-111321935D01*
X155540000Y-111157719D01*
X155540000Y-110990281D01*
X155572664Y-110826065D01*
X155636739Y-110671376D01*
X155636740Y-110671374D01*
X155729762Y-110532156D01*
X155848156Y-110413762D01*
X155987374Y-110320740D01*
X155987376Y-110320739D01*
X156142065Y-110256664D01*
X156306281Y-110224000D01*
X156473719Y-110224000D01*
X156637935Y-110256664D01*
G37*
G36*
X154097935Y-110256664D02*
G01*
X154252624Y-110320739D01*
X154252626Y-110320740D01*
X154391844Y-110413762D01*
X154510238Y-110532156D01*
X154603260Y-110671374D01*
X154603261Y-110671376D01*
X154667336Y-110826065D01*
X154700000Y-110990281D01*
X154700000Y-111157719D01*
X154667336Y-111321935D01*
X154638366Y-111391873D01*
X154603260Y-111476626D01*
X154510238Y-111615844D01*
X154391844Y-111734238D01*
X154252626Y-111827260D01*
X154252625Y-111827261D01*
X154252624Y-111827261D01*
X154097935Y-111891336D01*
X153933719Y-111924000D01*
X153766281Y-111924000D01*
X153602065Y-111891336D01*
X153447376Y-111827261D01*
X153447375Y-111827261D01*
X153447374Y-111827260D01*
X153308156Y-111734238D01*
X153189762Y-111615844D01*
X153096740Y-111476626D01*
X153061634Y-111391873D01*
X153032664Y-111321935D01*
X153000000Y-111157719D01*
X153000000Y-110990281D01*
X153032664Y-110826065D01*
X153096739Y-110671376D01*
X153096740Y-110671374D01*
X153189762Y-110532156D01*
X153308156Y-110413762D01*
X153447374Y-110320740D01*
X153447376Y-110320739D01*
X153602065Y-110256664D01*
X153766281Y-110224000D01*
X153933719Y-110224000D01*
X154097935Y-110256664D01*
G37*
G36*
X151557935Y-110256664D02*
G01*
X151712624Y-110320739D01*
X151712626Y-110320740D01*
X151851844Y-110413762D01*
X151970238Y-110532156D01*
X152063260Y-110671374D01*
X152063261Y-110671376D01*
X152127336Y-110826065D01*
X152160000Y-110990281D01*
X152160000Y-111157719D01*
X152127336Y-111321935D01*
X152098366Y-111391873D01*
X152063260Y-111476626D01*
X151970238Y-111615844D01*
X151851844Y-111734238D01*
X151712626Y-111827260D01*
X151712625Y-111827261D01*
X151712624Y-111827261D01*
X151557935Y-111891336D01*
X151393719Y-111924000D01*
X151226281Y-111924000D01*
X151062065Y-111891336D01*
X150907376Y-111827261D01*
X150907375Y-111827261D01*
X150907374Y-111827260D01*
X150768156Y-111734238D01*
X150649762Y-111615844D01*
X150556740Y-111476626D01*
X150521634Y-111391873D01*
X150492664Y-111321935D01*
X150460000Y-111157719D01*
X150460000Y-110990281D01*
X150492664Y-110826065D01*
X150556739Y-110671376D01*
X150556740Y-110671374D01*
X150649762Y-110532156D01*
X150768156Y-110413762D01*
X150907374Y-110320740D01*
X150907376Y-110320739D01*
X151062065Y-110256664D01*
X151226281Y-110224000D01*
X151393719Y-110224000D01*
X151557935Y-110256664D01*
G37*
G36*
X149620000Y-111924000D02*
G01*
X147920000Y-111924000D01*
X147920000Y-110224000D01*
X149620000Y-110224000D01*
X149620000Y-111924000D01*
G37*
G36*
X164257935Y-110256664D02*
G01*
X164412624Y-110320739D01*
X164412626Y-110320740D01*
X164551844Y-110413762D01*
X164670238Y-110532156D01*
X164763260Y-110671374D01*
X164763261Y-110671376D01*
X164827336Y-110826065D01*
X164860000Y-110990281D01*
X164860000Y-111157719D01*
X164827336Y-111321935D01*
X164798366Y-111391873D01*
X164763260Y-111476626D01*
X164670238Y-111615844D01*
X164551844Y-111734238D01*
X164412626Y-111827260D01*
X164412625Y-111827261D01*
X164412624Y-111827261D01*
X164257935Y-111891336D01*
X164093719Y-111924000D01*
X163926281Y-111924000D01*
X163762065Y-111891336D01*
X163607376Y-111827261D01*
X163607375Y-111827261D01*
X163607374Y-111827260D01*
X163468156Y-111734238D01*
X163349762Y-111615844D01*
X163256740Y-111476626D01*
X163221634Y-111391873D01*
X163192664Y-111321935D01*
X163160000Y-111157719D01*
X163160000Y-110990281D01*
X163192664Y-110826065D01*
X163256739Y-110671376D01*
X163256740Y-110671374D01*
X163349762Y-110532156D01*
X163468156Y-110413762D01*
X163607374Y-110320740D01*
X163607376Y-110320739D01*
X163762065Y-110256664D01*
X163926281Y-110224000D01*
X164093719Y-110224000D01*
X164257935Y-110256664D01*
G37*
G36*
X94606000Y-109335600D02*
G01*
X93206000Y-109335600D01*
X93206000Y-107935600D01*
X94606000Y-107935600D01*
X94606000Y-109335600D01*
G37*
G36*
X99110182Y-107962500D02*
G01*
X99237573Y-108015267D01*
X99237574Y-108015268D01*
X99352224Y-108091874D01*
X99449726Y-108189376D01*
X99449727Y-108189378D01*
X99526333Y-108304027D01*
X99579100Y-108431418D01*
X99606000Y-108566655D01*
X99606000Y-108704545D01*
X99579100Y-108839782D01*
X99526333Y-108967173D01*
X99526332Y-108967174D01*
X99449726Y-109081824D01*
X99352224Y-109179326D01*
X99294510Y-109217889D01*
X99237573Y-109255933D01*
X99110182Y-109308700D01*
X98974945Y-109335600D01*
X98837055Y-109335600D01*
X98701818Y-109308700D01*
X98574427Y-109255933D01*
X98517490Y-109217889D01*
X98459776Y-109179326D01*
X98362274Y-109081824D01*
X98285668Y-108967174D01*
X98285667Y-108967173D01*
X98232900Y-108839782D01*
X98206000Y-108704545D01*
X98206000Y-108566655D01*
X98232900Y-108431418D01*
X98285667Y-108304027D01*
X98362273Y-108189378D01*
X98362274Y-108189376D01*
X98459776Y-108091874D01*
X98574426Y-108015268D01*
X98574427Y-108015267D01*
X98701818Y-107962500D01*
X98837055Y-107935600D01*
X98974945Y-107935600D01*
X99110182Y-107962500D01*
G37*
G36*
X96610182Y-107962500D02*
G01*
X96737573Y-108015267D01*
X96737574Y-108015268D01*
X96852224Y-108091874D01*
X96949726Y-108189376D01*
X96949727Y-108189378D01*
X97026333Y-108304027D01*
X97079100Y-108431418D01*
X97106000Y-108566655D01*
X97106000Y-108704545D01*
X97079100Y-108839782D01*
X97026333Y-108967173D01*
X97026332Y-108967174D01*
X96949726Y-109081824D01*
X96852224Y-109179326D01*
X96794510Y-109217889D01*
X96737573Y-109255933D01*
X96610182Y-109308700D01*
X96474945Y-109335600D01*
X96337055Y-109335600D01*
X96201818Y-109308700D01*
X96074427Y-109255933D01*
X96017490Y-109217889D01*
X95959776Y-109179326D01*
X95862274Y-109081824D01*
X95785668Y-108967174D01*
X95785667Y-108967173D01*
X95732900Y-108839782D01*
X95706000Y-108704545D01*
X95706000Y-108566655D01*
X95732900Y-108431418D01*
X95785667Y-108304027D01*
X95862273Y-108189378D01*
X95862274Y-108189376D01*
X95959776Y-108091874D01*
X96074426Y-108015268D01*
X96074427Y-108015267D01*
X96201818Y-107962500D01*
X96337055Y-107935600D01*
X96474945Y-107935600D01*
X96610182Y-107962500D01*
G37*
G36*
X95557000Y-105409800D02*
G01*
X93829800Y-105409800D01*
X93829800Y-103682600D01*
X95557000Y-103682600D01*
X95557000Y-105409800D01*
G37*
G36*
X102565303Y-103715787D02*
G01*
X102722468Y-103780887D01*
X102863913Y-103875398D01*
X102984202Y-103995687D01*
X103078713Y-104137132D01*
X103143813Y-104294297D01*
X103177000Y-104461143D01*
X103177000Y-104631257D01*
X103143813Y-104798103D01*
X103078713Y-104955268D01*
X102984202Y-105096713D01*
X102863913Y-105217002D01*
X102722468Y-105311513D01*
X102565303Y-105376613D01*
X102398457Y-105409800D01*
X102228343Y-105409800D01*
X102061497Y-105376613D01*
X101904332Y-105311513D01*
X101762887Y-105217002D01*
X101642598Y-105096713D01*
X101548087Y-104955268D01*
X101482987Y-104798103D01*
X101449800Y-104631257D01*
X101449800Y-104461143D01*
X101482987Y-104294297D01*
X101548087Y-104137132D01*
X101642598Y-103995687D01*
X101762887Y-103875398D01*
X101904332Y-103780887D01*
X102061497Y-103715787D01*
X102228343Y-103682600D01*
X102398457Y-103682600D01*
X102565303Y-103715787D01*
G37*
G36*
X97485303Y-103715787D02*
G01*
X97642468Y-103780887D01*
X97783913Y-103875398D01*
X97904202Y-103995687D01*
X97998713Y-104137132D01*
X98063813Y-104294297D01*
X98097000Y-104461143D01*
X98097000Y-104631257D01*
X98063813Y-104798103D01*
X97998713Y-104955268D01*
X97904202Y-105096713D01*
X97783913Y-105217002D01*
X97642468Y-105311513D01*
X97485303Y-105376613D01*
X97318457Y-105409800D01*
X97148343Y-105409800D01*
X96981497Y-105376613D01*
X96824332Y-105311513D01*
X96682887Y-105217002D01*
X96562598Y-105096713D01*
X96468087Y-104955268D01*
X96402987Y-104798103D01*
X96369800Y-104631257D01*
X96369800Y-104461143D01*
X96402987Y-104294297D01*
X96468087Y-104137132D01*
X96562598Y-103995687D01*
X96682887Y-103875398D01*
X96824332Y-103780887D01*
X96981497Y-103715787D01*
X97148343Y-103682600D01*
X97318457Y-103682600D01*
X97485303Y-103715787D01*
G37*
G36*
X100025303Y-103715787D02*
G01*
X100182468Y-103780887D01*
X100323913Y-103875398D01*
X100444202Y-103995687D01*
X100538713Y-104137132D01*
X100603813Y-104294297D01*
X100637000Y-104461143D01*
X100637000Y-104631257D01*
X100603813Y-104798103D01*
X100538713Y-104955268D01*
X100444202Y-105096713D01*
X100323913Y-105217002D01*
X100182468Y-105311513D01*
X100025303Y-105376613D01*
X99858457Y-105409800D01*
X99688343Y-105409800D01*
X99521497Y-105376613D01*
X99364332Y-105311513D01*
X99222887Y-105217002D01*
X99102598Y-105096713D01*
X99008087Y-104955268D01*
X98942987Y-104798103D01*
X98909800Y-104631257D01*
X98909800Y-104461143D01*
X98942987Y-104294297D01*
X99008087Y-104137132D01*
X99102598Y-103995687D01*
X99222887Y-103875398D01*
X99364332Y-103780887D01*
X99521497Y-103715787D01*
X99688343Y-103682600D01*
X99858457Y-103682600D01*
X100025303Y-103715787D01*
G37*
G36*
X154318963Y-102404196D02*
G01*
X154354021Y-102414831D01*
X154386332Y-102432102D01*
X154414655Y-102455345D01*
X154437898Y-102483668D01*
X154455169Y-102515979D01*
X154465804Y-102551037D01*
X154470000Y-102593641D01*
X154470000Y-103206359D01*
X154465804Y-103248963D01*
X154455169Y-103284021D01*
X154437898Y-103316332D01*
X154414655Y-103344655D01*
X154386332Y-103367898D01*
X154354021Y-103385169D01*
X154318963Y-103395804D01*
X154276359Y-103400000D01*
X153663641Y-103400000D01*
X153621037Y-103395804D01*
X153585979Y-103385169D01*
X153553668Y-103367898D01*
X153525345Y-103344655D01*
X153502102Y-103316332D01*
X153484831Y-103284021D01*
X153474196Y-103248963D01*
X153470000Y-103206359D01*
X153470000Y-102593641D01*
X153474196Y-102551037D01*
X153484831Y-102515979D01*
X153502102Y-102483668D01*
X153525345Y-102455345D01*
X153553668Y-102432102D01*
X153585979Y-102414831D01*
X153621037Y-102404196D01*
X153663641Y-102400000D01*
X154276359Y-102400000D01*
X154318963Y-102404196D01*
G37*
G36*
X97485303Y-101175787D02*
G01*
X97642468Y-101240887D01*
X97783913Y-101335398D01*
X97904202Y-101455687D01*
X97998713Y-101597132D01*
X98063813Y-101754297D01*
X98097000Y-101921143D01*
X98097000Y-102091257D01*
X98063813Y-102258103D01*
X97998713Y-102415268D01*
X97904202Y-102556713D01*
X97783913Y-102677002D01*
X97642468Y-102771513D01*
X97485303Y-102836613D01*
X97318457Y-102869800D01*
X97148343Y-102869800D01*
X96981497Y-102836613D01*
X96824332Y-102771513D01*
X96682887Y-102677002D01*
X96562598Y-102556713D01*
X96468087Y-102415268D01*
X96402987Y-102258103D01*
X96369800Y-102091257D01*
X96369800Y-101921143D01*
X96402987Y-101754297D01*
X96468087Y-101597132D01*
X96562598Y-101455687D01*
X96682887Y-101335398D01*
X96824332Y-101240887D01*
X96981497Y-101175787D01*
X97148343Y-101142600D01*
X97318457Y-101142600D01*
X97485303Y-101175787D01*
G37*
G36*
X100025303Y-101175787D02*
G01*
X100182468Y-101240887D01*
X100323913Y-101335398D01*
X100444202Y-101455687D01*
X100538713Y-101597132D01*
X100603813Y-101754297D01*
X100637000Y-101921143D01*
X100637000Y-102091257D01*
X100603813Y-102258103D01*
X100538713Y-102415268D01*
X100444202Y-102556713D01*
X100323913Y-102677002D01*
X100182468Y-102771513D01*
X100025303Y-102836613D01*
X99858457Y-102869800D01*
X99688343Y-102869800D01*
X99521497Y-102836613D01*
X99364332Y-102771513D01*
X99222887Y-102677002D01*
X99102598Y-102556713D01*
X99008087Y-102415268D01*
X98942987Y-102258103D01*
X98909800Y-102091257D01*
X98909800Y-101921143D01*
X98942987Y-101754297D01*
X99008087Y-101597132D01*
X99102598Y-101455687D01*
X99222887Y-101335398D01*
X99364332Y-101240887D01*
X99521497Y-101175787D01*
X99688343Y-101142600D01*
X99858457Y-101142600D01*
X100025303Y-101175787D01*
G37*
G36*
X94945303Y-101175787D02*
G01*
X95102468Y-101240887D01*
X95243913Y-101335398D01*
X95364202Y-101455687D01*
X95458713Y-101597132D01*
X95523813Y-101754297D01*
X95557000Y-101921143D01*
X95557000Y-102091257D01*
X95523813Y-102258103D01*
X95458713Y-102415268D01*
X95364202Y-102556713D01*
X95243913Y-102677002D01*
X95102468Y-102771513D01*
X94945303Y-102836613D01*
X94778457Y-102869800D01*
X94608343Y-102869800D01*
X94441497Y-102836613D01*
X94284332Y-102771513D01*
X94142887Y-102677002D01*
X94022598Y-102556713D01*
X93928087Y-102415268D01*
X93862987Y-102258103D01*
X93829800Y-102091257D01*
X93829800Y-101921143D01*
X93862987Y-101754297D01*
X93928087Y-101597132D01*
X94022598Y-101455687D01*
X94142887Y-101335398D01*
X94284332Y-101240887D01*
X94441497Y-101175787D01*
X94608343Y-101142600D01*
X94778457Y-101142600D01*
X94945303Y-101175787D01*
G37*
G36*
X102565303Y-101175787D02*
G01*
X102722468Y-101240887D01*
X102863913Y-101335398D01*
X102984202Y-101455687D01*
X103078713Y-101597132D01*
X103143813Y-101754297D01*
X103177000Y-101921143D01*
X103177000Y-102091257D01*
X103143813Y-102258103D01*
X103078713Y-102415268D01*
X102984202Y-102556713D01*
X102863913Y-102677002D01*
X102722468Y-102771513D01*
X102565303Y-102836613D01*
X102398457Y-102869800D01*
X102228343Y-102869800D01*
X102061497Y-102836613D01*
X101904332Y-102771513D01*
X101762887Y-102677002D01*
X101642598Y-102556713D01*
X101548087Y-102415268D01*
X101482987Y-102258103D01*
X101449800Y-102091257D01*
X101449800Y-101921143D01*
X101482987Y-101754297D01*
X101548087Y-101597132D01*
X101642598Y-101455687D01*
X101762887Y-101335398D01*
X101904332Y-101240887D01*
X102061497Y-101175787D01*
X102228343Y-101142600D01*
X102398457Y-101142600D01*
X102565303Y-101175787D01*
G37*
G36*
X184984335Y-100960264D02*
G01*
X185139024Y-101024339D01*
X185139026Y-101024340D01*
X185278244Y-101117362D01*
X185396638Y-101235756D01*
X185400066Y-101240887D01*
X185489661Y-101374976D01*
X185553736Y-101529665D01*
X185586400Y-101693881D01*
X185586400Y-101861319D01*
X185553736Y-102025535D01*
X185489661Y-102180224D01*
X185489660Y-102180226D01*
X185396638Y-102319444D01*
X185278244Y-102437838D01*
X185139026Y-102530860D01*
X185139025Y-102530861D01*
X185139024Y-102530861D01*
X184984335Y-102594936D01*
X184820119Y-102627600D01*
X184652681Y-102627600D01*
X184488465Y-102594936D01*
X184333776Y-102530861D01*
X184333775Y-102530861D01*
X184333774Y-102530860D01*
X184194556Y-102437838D01*
X184076162Y-102319444D01*
X183983140Y-102180226D01*
X183983139Y-102180224D01*
X183919064Y-102025535D01*
X183886400Y-101861319D01*
X183886400Y-101693881D01*
X183919064Y-101529665D01*
X183983139Y-101374976D01*
X184072734Y-101240887D01*
X184076162Y-101235756D01*
X184194556Y-101117362D01*
X184333774Y-101024340D01*
X184333776Y-101024339D01*
X184488465Y-100960264D01*
X184652681Y-100927600D01*
X184820119Y-100927600D01*
X184984335Y-100960264D01*
G37*
G36*
X187524335Y-100960264D02*
G01*
X187679024Y-101024339D01*
X187679026Y-101024340D01*
X187818244Y-101117362D01*
X187936638Y-101235756D01*
X187940066Y-101240887D01*
X188029661Y-101374976D01*
X188093736Y-101529665D01*
X188126400Y-101693881D01*
X188126400Y-101861319D01*
X188093736Y-102025535D01*
X188029661Y-102180224D01*
X188029660Y-102180226D01*
X187936638Y-102319444D01*
X187818244Y-102437838D01*
X187679026Y-102530860D01*
X187679025Y-102530861D01*
X187679024Y-102530861D01*
X187524335Y-102594936D01*
X187360119Y-102627600D01*
X187192681Y-102627600D01*
X187028465Y-102594936D01*
X186873776Y-102530861D01*
X186873775Y-102530861D01*
X186873774Y-102530860D01*
X186734556Y-102437838D01*
X186616162Y-102319444D01*
X186523140Y-102180226D01*
X186523139Y-102180224D01*
X186459064Y-102025535D01*
X186426400Y-101861319D01*
X186426400Y-101693881D01*
X186459064Y-101529665D01*
X186523139Y-101374976D01*
X186612734Y-101240887D01*
X186616162Y-101235756D01*
X186734556Y-101117362D01*
X186873774Y-101024340D01*
X186873776Y-101024339D01*
X187028465Y-100960264D01*
X187192681Y-100927600D01*
X187360119Y-100927600D01*
X187524335Y-100960264D01*
G37*
G36*
X184984335Y-98420264D02*
G01*
X185139024Y-98484339D01*
X185139026Y-98484340D01*
X185278244Y-98577362D01*
X185396638Y-98695756D01*
X185489660Y-98834974D01*
X185489661Y-98834976D01*
X185553736Y-98989665D01*
X185586400Y-99153881D01*
X185586400Y-99321319D01*
X185553736Y-99485535D01*
X185489661Y-99640224D01*
X185489660Y-99640226D01*
X185396638Y-99779444D01*
X185278244Y-99897838D01*
X185139026Y-99990860D01*
X185139025Y-99990861D01*
X185139024Y-99990861D01*
X184984335Y-100054936D01*
X184820119Y-100087600D01*
X184652681Y-100087600D01*
X184488465Y-100054936D01*
X184333776Y-99990861D01*
X184333775Y-99990861D01*
X184333774Y-99990860D01*
X184194556Y-99897838D01*
X184076162Y-99779444D01*
X183983140Y-99640226D01*
X183983139Y-99640224D01*
X183919064Y-99485535D01*
X183886400Y-99321319D01*
X183886400Y-99153881D01*
X183919064Y-98989665D01*
X183983139Y-98834976D01*
X183983140Y-98834974D01*
X184076162Y-98695756D01*
X184194556Y-98577362D01*
X184333774Y-98484340D01*
X184333776Y-98484339D01*
X184488465Y-98420264D01*
X184652681Y-98387600D01*
X184820119Y-98387600D01*
X184984335Y-98420264D01*
G37*
G36*
X187524335Y-98420264D02*
G01*
X187679024Y-98484339D01*
X187679026Y-98484340D01*
X187818244Y-98577362D01*
X187936638Y-98695756D01*
X188029660Y-98834974D01*
X188029661Y-98834976D01*
X188093736Y-98989665D01*
X188126400Y-99153881D01*
X188126400Y-99321319D01*
X188093736Y-99485535D01*
X188029661Y-99640224D01*
X188029660Y-99640226D01*
X187936638Y-99779444D01*
X187818244Y-99897838D01*
X187679026Y-99990860D01*
X187679025Y-99990861D01*
X187679024Y-99990861D01*
X187524335Y-100054936D01*
X187360119Y-100087600D01*
X187192681Y-100087600D01*
X187028465Y-100054936D01*
X186873776Y-99990861D01*
X186873775Y-99990861D01*
X186873774Y-99990860D01*
X186734556Y-99897838D01*
X186616162Y-99779444D01*
X186523140Y-99640226D01*
X186523139Y-99640224D01*
X186459064Y-99485535D01*
X186426400Y-99321319D01*
X186426400Y-99153881D01*
X186459064Y-98989665D01*
X186523139Y-98834976D01*
X186523140Y-98834974D01*
X186616162Y-98695756D01*
X186734556Y-98577362D01*
X186873774Y-98484340D01*
X186873776Y-98484339D01*
X187028465Y-98420264D01*
X187192681Y-98387600D01*
X187360119Y-98387600D01*
X187524335Y-98420264D01*
G37*
G36*
X187524335Y-95880264D02*
G01*
X187679024Y-95944339D01*
X187679026Y-95944340D01*
X187818244Y-96037362D01*
X187936638Y-96155756D01*
X188029660Y-96294974D01*
X188029661Y-96294976D01*
X188093736Y-96449665D01*
X188126400Y-96613881D01*
X188126400Y-96781319D01*
X188093736Y-96945535D01*
X188029661Y-97100224D01*
X188029660Y-97100226D01*
X187936638Y-97239444D01*
X187818244Y-97357838D01*
X187679026Y-97450860D01*
X187679025Y-97450861D01*
X187679024Y-97450861D01*
X187524335Y-97514936D01*
X187360119Y-97547600D01*
X187192681Y-97547600D01*
X187028465Y-97514936D01*
X186873776Y-97450861D01*
X186873775Y-97450861D01*
X186873774Y-97450860D01*
X186734556Y-97357838D01*
X186616162Y-97239444D01*
X186523140Y-97100226D01*
X186523139Y-97100224D01*
X186459064Y-96945535D01*
X186426400Y-96781319D01*
X186426400Y-96613881D01*
X186459064Y-96449665D01*
X186523139Y-96294976D01*
X186523140Y-96294974D01*
X186616162Y-96155756D01*
X186734556Y-96037362D01*
X186873774Y-95944340D01*
X186873776Y-95944339D01*
X187028465Y-95880264D01*
X187192681Y-95847600D01*
X187360119Y-95847600D01*
X187524335Y-95880264D01*
G37*
G36*
X184984335Y-95880264D02*
G01*
X185139024Y-95944339D01*
X185139026Y-95944340D01*
X185278244Y-96037362D01*
X185396638Y-96155756D01*
X185489660Y-96294974D01*
X185489661Y-96294976D01*
X185553736Y-96449665D01*
X185586400Y-96613881D01*
X185586400Y-96781319D01*
X185553736Y-96945535D01*
X185489661Y-97100224D01*
X185489660Y-97100226D01*
X185396638Y-97239444D01*
X185278244Y-97357838D01*
X185139026Y-97450860D01*
X185139025Y-97450861D01*
X185139024Y-97450861D01*
X184984335Y-97514936D01*
X184820119Y-97547600D01*
X184652681Y-97547600D01*
X184488465Y-97514936D01*
X184333776Y-97450861D01*
X184333775Y-97450861D01*
X184333774Y-97450860D01*
X184194556Y-97357838D01*
X184076162Y-97239444D01*
X183983140Y-97100226D01*
X183983139Y-97100224D01*
X183919064Y-96945535D01*
X183886400Y-96781319D01*
X183886400Y-96613881D01*
X183919064Y-96449665D01*
X183983139Y-96294976D01*
X183983140Y-96294974D01*
X184076162Y-96155756D01*
X184194556Y-96037362D01*
X184333774Y-95944340D01*
X184333776Y-95944339D01*
X184488465Y-95880264D01*
X184652681Y-95847600D01*
X184820119Y-95847600D01*
X184984335Y-95880264D01*
G37*
G36*
X118479600Y-95185400D02*
G01*
X116779600Y-95185400D01*
X116779600Y-93485400D01*
X118479600Y-93485400D01*
X118479600Y-95185400D01*
G37*
G36*
X120417535Y-93518064D02*
G01*
X120572224Y-93582139D01*
X120572226Y-93582140D01*
X120711444Y-93675162D01*
X120829838Y-93793556D01*
X120907418Y-93909664D01*
X120922861Y-93932776D01*
X120986936Y-94087465D01*
X121019600Y-94251681D01*
X121019600Y-94419119D01*
X120986936Y-94583335D01*
X120922861Y-94738024D01*
X120922860Y-94738026D01*
X120829838Y-94877244D01*
X120711444Y-94995638D01*
X120572226Y-95088660D01*
X120572225Y-95088661D01*
X120572224Y-95088661D01*
X120417535Y-95152736D01*
X120253319Y-95185400D01*
X120085881Y-95185400D01*
X119921665Y-95152736D01*
X119766976Y-95088661D01*
X119766975Y-95088661D01*
X119766974Y-95088660D01*
X119627756Y-94995638D01*
X119509362Y-94877244D01*
X119416340Y-94738026D01*
X119416339Y-94738024D01*
X119352264Y-94583335D01*
X119319600Y-94419119D01*
X119319600Y-94251681D01*
X119352264Y-94087465D01*
X119416339Y-93932776D01*
X119431782Y-93909664D01*
X119509362Y-93793556D01*
X119627756Y-93675162D01*
X119766974Y-93582140D01*
X119766976Y-93582139D01*
X119921665Y-93518064D01*
X120085881Y-93485400D01*
X120253319Y-93485400D01*
X120417535Y-93518064D01*
G37*
G36*
X122957535Y-93518064D02*
G01*
X123112224Y-93582139D01*
X123112226Y-93582140D01*
X123251444Y-93675162D01*
X123369838Y-93793556D01*
X123447418Y-93909664D01*
X123462861Y-93932776D01*
X123526936Y-94087465D01*
X123559600Y-94251681D01*
X123559600Y-94419119D01*
X123526936Y-94583335D01*
X123462861Y-94738024D01*
X123462860Y-94738026D01*
X123369838Y-94877244D01*
X123251444Y-94995638D01*
X123112226Y-95088660D01*
X123112225Y-95088661D01*
X123112224Y-95088661D01*
X122957535Y-95152736D01*
X122793319Y-95185400D01*
X122625881Y-95185400D01*
X122461665Y-95152736D01*
X122306976Y-95088661D01*
X122306975Y-95088661D01*
X122306974Y-95088660D01*
X122167756Y-94995638D01*
X122049362Y-94877244D01*
X121956340Y-94738026D01*
X121956339Y-94738024D01*
X121892264Y-94583335D01*
X121859600Y-94419119D01*
X121859600Y-94251681D01*
X121892264Y-94087465D01*
X121956339Y-93932776D01*
X121971782Y-93909664D01*
X122049362Y-93793556D01*
X122167756Y-93675162D01*
X122306974Y-93582140D01*
X122306976Y-93582139D01*
X122461665Y-93518064D01*
X122625881Y-93485400D01*
X122793319Y-93485400D01*
X122957535Y-93518064D01*
G37*
G36*
X128037535Y-93518064D02*
G01*
X128192224Y-93582139D01*
X128192226Y-93582140D01*
X128331444Y-93675162D01*
X128449838Y-93793556D01*
X128527418Y-93909664D01*
X128542861Y-93932776D01*
X128606936Y-94087465D01*
X128639600Y-94251681D01*
X128639600Y-94419119D01*
X128606936Y-94583335D01*
X128542861Y-94738024D01*
X128542860Y-94738026D01*
X128449838Y-94877244D01*
X128331444Y-94995638D01*
X128192226Y-95088660D01*
X128192225Y-95088661D01*
X128192224Y-95088661D01*
X128037535Y-95152736D01*
X127873319Y-95185400D01*
X127705881Y-95185400D01*
X127541665Y-95152736D01*
X127386976Y-95088661D01*
X127386975Y-95088661D01*
X127386974Y-95088660D01*
X127247756Y-94995638D01*
X127129362Y-94877244D01*
X127036340Y-94738026D01*
X127036339Y-94738024D01*
X126972264Y-94583335D01*
X126939600Y-94419119D01*
X126939600Y-94251681D01*
X126972264Y-94087465D01*
X127036339Y-93932776D01*
X127051782Y-93909664D01*
X127129362Y-93793556D01*
X127247756Y-93675162D01*
X127386974Y-93582140D01*
X127386976Y-93582139D01*
X127541665Y-93518064D01*
X127705881Y-93485400D01*
X127873319Y-93485400D01*
X128037535Y-93518064D01*
G37*
G36*
X125497535Y-93518064D02*
G01*
X125652224Y-93582139D01*
X125652226Y-93582140D01*
X125791444Y-93675162D01*
X125909838Y-93793556D01*
X125987418Y-93909664D01*
X126002861Y-93932776D01*
X126066936Y-94087465D01*
X126099600Y-94251681D01*
X126099600Y-94419119D01*
X126066936Y-94583335D01*
X126002861Y-94738024D01*
X126002860Y-94738026D01*
X125909838Y-94877244D01*
X125791444Y-94995638D01*
X125652226Y-95088660D01*
X125652225Y-95088661D01*
X125652224Y-95088661D01*
X125497535Y-95152736D01*
X125333319Y-95185400D01*
X125165881Y-95185400D01*
X125001665Y-95152736D01*
X124846976Y-95088661D01*
X124846975Y-95088661D01*
X124846974Y-95088660D01*
X124707756Y-94995638D01*
X124589362Y-94877244D01*
X124496340Y-94738026D01*
X124496339Y-94738024D01*
X124432264Y-94583335D01*
X124399600Y-94419119D01*
X124399600Y-94251681D01*
X124432264Y-94087465D01*
X124496339Y-93932776D01*
X124511782Y-93909664D01*
X124589362Y-93793556D01*
X124707756Y-93675162D01*
X124846974Y-93582140D01*
X124846976Y-93582139D01*
X125001665Y-93518064D01*
X125165881Y-93485400D01*
X125333319Y-93485400D01*
X125497535Y-93518064D01*
G37*
G36*
X187524335Y-93340264D02*
G01*
X187679024Y-93404339D01*
X187679026Y-93404340D01*
X187818244Y-93497362D01*
X187936638Y-93615756D01*
X188029660Y-93754974D01*
X188029661Y-93754976D01*
X188093736Y-93909665D01*
X188126400Y-94073881D01*
X188126400Y-94241319D01*
X188093736Y-94405535D01*
X188088109Y-94419119D01*
X188029660Y-94560226D01*
X187936638Y-94699444D01*
X187818244Y-94817838D01*
X187679026Y-94910860D01*
X187679025Y-94910861D01*
X187679024Y-94910861D01*
X187524335Y-94974936D01*
X187360119Y-95007600D01*
X187192681Y-95007600D01*
X187028465Y-94974936D01*
X186873776Y-94910861D01*
X186873775Y-94910861D01*
X186873774Y-94910860D01*
X186734556Y-94817838D01*
X186616162Y-94699444D01*
X186523140Y-94560226D01*
X186464691Y-94419119D01*
X186459064Y-94405535D01*
X186426400Y-94241319D01*
X186426400Y-94073881D01*
X186459064Y-93909665D01*
X186523139Y-93754976D01*
X186523140Y-93754974D01*
X186616162Y-93615756D01*
X186734556Y-93497362D01*
X186873774Y-93404340D01*
X186873776Y-93404339D01*
X187028465Y-93340264D01*
X187192681Y-93307600D01*
X187360119Y-93307600D01*
X187524335Y-93340264D01*
G37*
G36*
X184984335Y-93340264D02*
G01*
X185139024Y-93404339D01*
X185139026Y-93404340D01*
X185278244Y-93497362D01*
X185396638Y-93615756D01*
X185489660Y-93754974D01*
X185489661Y-93754976D01*
X185553736Y-93909665D01*
X185586400Y-94073881D01*
X185586400Y-94241319D01*
X185553736Y-94405535D01*
X185548109Y-94419119D01*
X185489660Y-94560226D01*
X185396638Y-94699444D01*
X185278244Y-94817838D01*
X185139026Y-94910860D01*
X185139025Y-94910861D01*
X185139024Y-94910861D01*
X184984335Y-94974936D01*
X184820119Y-95007600D01*
X184652681Y-95007600D01*
X184488465Y-94974936D01*
X184333776Y-94910861D01*
X184333775Y-94910861D01*
X184333774Y-94910860D01*
X184194556Y-94817838D01*
X184076162Y-94699444D01*
X183983140Y-94560226D01*
X183924691Y-94419119D01*
X183919064Y-94405535D01*
X183886400Y-94241319D01*
X183886400Y-94073881D01*
X183919064Y-93909665D01*
X183983139Y-93754976D01*
X183983140Y-93754974D01*
X184076162Y-93615756D01*
X184194556Y-93497362D01*
X184333774Y-93404340D01*
X184333776Y-93404339D01*
X184488465Y-93340264D01*
X184652681Y-93307600D01*
X184820119Y-93307600D01*
X184984335Y-93340264D01*
G37*
G36*
X184984335Y-90800264D02*
G01*
X185139024Y-90864339D01*
X185139026Y-90864340D01*
X185278244Y-90957362D01*
X185396638Y-91075756D01*
X185489660Y-91214974D01*
X185489661Y-91214976D01*
X185553736Y-91369665D01*
X185586400Y-91533881D01*
X185586400Y-91701319D01*
X185553736Y-91865535D01*
X185489661Y-92020224D01*
X185489660Y-92020226D01*
X185396638Y-92159444D01*
X185278244Y-92277838D01*
X185139026Y-92370860D01*
X185139025Y-92370861D01*
X185139024Y-92370861D01*
X184984335Y-92434936D01*
X184820119Y-92467600D01*
X184652681Y-92467600D01*
X184488465Y-92434936D01*
X184333776Y-92370861D01*
X184333775Y-92370861D01*
X184333774Y-92370860D01*
X184194556Y-92277838D01*
X184076162Y-92159444D01*
X183983140Y-92020226D01*
X183983139Y-92020224D01*
X183919064Y-91865535D01*
X183886400Y-91701319D01*
X183886400Y-91533881D01*
X183919064Y-91369665D01*
X183983139Y-91214976D01*
X183983140Y-91214974D01*
X184076162Y-91075756D01*
X184194556Y-90957362D01*
X184333774Y-90864340D01*
X184333776Y-90864339D01*
X184488465Y-90800264D01*
X184652681Y-90767600D01*
X184820119Y-90767600D01*
X184984335Y-90800264D01*
G37*
G36*
X187524335Y-90800264D02*
G01*
X187679024Y-90864339D01*
X187679026Y-90864340D01*
X187818244Y-90957362D01*
X187936638Y-91075756D01*
X188029660Y-91214974D01*
X188029661Y-91214976D01*
X188093736Y-91369665D01*
X188126400Y-91533881D01*
X188126400Y-91701319D01*
X188093736Y-91865535D01*
X188029661Y-92020224D01*
X188029660Y-92020226D01*
X187936638Y-92159444D01*
X187818244Y-92277838D01*
X187679026Y-92370860D01*
X187679025Y-92370861D01*
X187679024Y-92370861D01*
X187524335Y-92434936D01*
X187360119Y-92467600D01*
X187192681Y-92467600D01*
X187028465Y-92434936D01*
X186873776Y-92370861D01*
X186873775Y-92370861D01*
X186873774Y-92370860D01*
X186734556Y-92277838D01*
X186616162Y-92159444D01*
X186523140Y-92020226D01*
X186523139Y-92020224D01*
X186459064Y-91865535D01*
X186426400Y-91701319D01*
X186426400Y-91533881D01*
X186459064Y-91369665D01*
X186523139Y-91214976D01*
X186523140Y-91214974D01*
X186616162Y-91075756D01*
X186734556Y-90957362D01*
X186873774Y-90864340D01*
X186873776Y-90864339D01*
X187028465Y-90800264D01*
X187192681Y-90767600D01*
X187360119Y-90767600D01*
X187524335Y-90800264D01*
G37*
G36*
X125998000Y-90461000D02*
G01*
X124298000Y-90461000D01*
X124298000Y-88761000D01*
X125998000Y-88761000D01*
X125998000Y-90461000D01*
G37*
G36*
X187524335Y-88260264D02*
G01*
X187679024Y-88324339D01*
X187679026Y-88324340D01*
X187818244Y-88417362D01*
X187936638Y-88535756D01*
X188029660Y-88674974D01*
X188029661Y-88674976D01*
X188093736Y-88829665D01*
X188126400Y-88993881D01*
X188126400Y-89161319D01*
X188093736Y-89325535D01*
X188029661Y-89480224D01*
X188029660Y-89480226D01*
X187936638Y-89619444D01*
X187818244Y-89737838D01*
X187679026Y-89830860D01*
X187679025Y-89830861D01*
X187679024Y-89830861D01*
X187524335Y-89894936D01*
X187360119Y-89927600D01*
X187192681Y-89927600D01*
X187028465Y-89894936D01*
X186873776Y-89830861D01*
X186873775Y-89830861D01*
X186873774Y-89830860D01*
X186734556Y-89737838D01*
X186616162Y-89619444D01*
X186523140Y-89480226D01*
X186523139Y-89480224D01*
X186459064Y-89325535D01*
X186426400Y-89161319D01*
X186426400Y-88993881D01*
X186459064Y-88829665D01*
X186523139Y-88674976D01*
X186523140Y-88674974D01*
X186616162Y-88535756D01*
X186734556Y-88417362D01*
X186873774Y-88324340D01*
X186873776Y-88324339D01*
X187028465Y-88260264D01*
X187192681Y-88227600D01*
X187360119Y-88227600D01*
X187524335Y-88260264D01*
G37*
G36*
X184984335Y-88260264D02*
G01*
X185139024Y-88324339D01*
X185139026Y-88324340D01*
X185278244Y-88417362D01*
X185396638Y-88535756D01*
X185489660Y-88674974D01*
X185489661Y-88674976D01*
X185553736Y-88829665D01*
X185586400Y-88993881D01*
X185586400Y-89161319D01*
X185553736Y-89325535D01*
X185489661Y-89480224D01*
X185489660Y-89480226D01*
X185396638Y-89619444D01*
X185278244Y-89737838D01*
X185139026Y-89830860D01*
X185139025Y-89830861D01*
X185139024Y-89830861D01*
X184984335Y-89894936D01*
X184820119Y-89927600D01*
X184652681Y-89927600D01*
X184488465Y-89894936D01*
X184333776Y-89830861D01*
X184333775Y-89830861D01*
X184333774Y-89830860D01*
X184194556Y-89737838D01*
X184076162Y-89619444D01*
X183983140Y-89480226D01*
X183983139Y-89480224D01*
X183919064Y-89325535D01*
X183886400Y-89161319D01*
X183886400Y-88993881D01*
X183919064Y-88829665D01*
X183983139Y-88674976D01*
X183983140Y-88674974D01*
X184076162Y-88535756D01*
X184194556Y-88417362D01*
X184333774Y-88324340D01*
X184333776Y-88324339D01*
X184488465Y-88260264D01*
X184652681Y-88227600D01*
X184820119Y-88227600D01*
X184984335Y-88260264D01*
G37*
G36*
X125395935Y-86253664D02*
G01*
X125550624Y-86317739D01*
X125550626Y-86317740D01*
X125689844Y-86410762D01*
X125808238Y-86529156D01*
X125869818Y-86621318D01*
X125901261Y-86668376D01*
X125965336Y-86823065D01*
X125998000Y-86987281D01*
X125998000Y-87154719D01*
X125965336Y-87318935D01*
X125901261Y-87473624D01*
X125901260Y-87473626D01*
X125808238Y-87612844D01*
X125689844Y-87731238D01*
X125550626Y-87824260D01*
X125550625Y-87824261D01*
X125550624Y-87824261D01*
X125395935Y-87888336D01*
X125231719Y-87921000D01*
X125064281Y-87921000D01*
X124900065Y-87888336D01*
X124745376Y-87824261D01*
X124745375Y-87824261D01*
X124745374Y-87824260D01*
X124606156Y-87731238D01*
X124487762Y-87612844D01*
X124394740Y-87473626D01*
X124394739Y-87473624D01*
X124330664Y-87318935D01*
X124298000Y-87154719D01*
X124298000Y-86987281D01*
X124330664Y-86823065D01*
X124394739Y-86668376D01*
X124426182Y-86621318D01*
X124487762Y-86529156D01*
X124606156Y-86410762D01*
X124745374Y-86317740D01*
X124745376Y-86317739D01*
X124900065Y-86253664D01*
X125064281Y-86221000D01*
X125231719Y-86221000D01*
X125395935Y-86253664D01*
G37*
G36*
X184984335Y-85720264D02*
G01*
X185139024Y-85784339D01*
X185139026Y-85784340D01*
X185278244Y-85877362D01*
X185396638Y-85995756D01*
X185489660Y-86134974D01*
X185489661Y-86134976D01*
X185553736Y-86289665D01*
X185586400Y-86453881D01*
X185586400Y-86621319D01*
X185553736Y-86785535D01*
X185538190Y-86823065D01*
X185489660Y-86940226D01*
X185396638Y-87079444D01*
X185278244Y-87197838D01*
X185139026Y-87290860D01*
X185139025Y-87290861D01*
X185139024Y-87290861D01*
X184984335Y-87354936D01*
X184820119Y-87387600D01*
X184652681Y-87387600D01*
X184488465Y-87354936D01*
X184333776Y-87290861D01*
X184333775Y-87290861D01*
X184333774Y-87290860D01*
X184194556Y-87197838D01*
X184076162Y-87079444D01*
X183983140Y-86940226D01*
X183934610Y-86823065D01*
X183919064Y-86785535D01*
X183886400Y-86621319D01*
X183886400Y-86453881D01*
X183919064Y-86289665D01*
X183983139Y-86134976D01*
X183983140Y-86134974D01*
X184076162Y-85995756D01*
X184194556Y-85877362D01*
X184333774Y-85784340D01*
X184333776Y-85784339D01*
X184488465Y-85720264D01*
X184652681Y-85687600D01*
X184820119Y-85687600D01*
X184984335Y-85720264D01*
G37*
G36*
X187524335Y-85720264D02*
G01*
X187679024Y-85784339D01*
X187679026Y-85784340D01*
X187818244Y-85877362D01*
X187936638Y-85995756D01*
X188029660Y-86134974D01*
X188029661Y-86134976D01*
X188093736Y-86289665D01*
X188126400Y-86453881D01*
X188126400Y-86621319D01*
X188093736Y-86785535D01*
X188078190Y-86823065D01*
X188029660Y-86940226D01*
X187936638Y-87079444D01*
X187818244Y-87197838D01*
X187679026Y-87290860D01*
X187679025Y-87290861D01*
X187679024Y-87290861D01*
X187524335Y-87354936D01*
X187360119Y-87387600D01*
X187192681Y-87387600D01*
X187028465Y-87354936D01*
X186873776Y-87290861D01*
X186873775Y-87290861D01*
X186873774Y-87290860D01*
X186734556Y-87197838D01*
X186616162Y-87079444D01*
X186523140Y-86940226D01*
X186474610Y-86823065D01*
X186459064Y-86785535D01*
X186426400Y-86621319D01*
X186426400Y-86453881D01*
X186459064Y-86289665D01*
X186523139Y-86134976D01*
X186523140Y-86134974D01*
X186616162Y-85995756D01*
X186734556Y-85877362D01*
X186873774Y-85784340D01*
X186873776Y-85784339D01*
X187028465Y-85720264D01*
X187192681Y-85687600D01*
X187360119Y-85687600D01*
X187524335Y-85720264D01*
G37*
G36*
X125395935Y-83713664D02*
G01*
X125550624Y-83777739D01*
X125550626Y-83777740D01*
X125689844Y-83870762D01*
X125808238Y-83989156D01*
X125869818Y-84081318D01*
X125901261Y-84128376D01*
X125965336Y-84283065D01*
X125998000Y-84447281D01*
X125998000Y-84614719D01*
X125965336Y-84778935D01*
X125901261Y-84933624D01*
X125901260Y-84933626D01*
X125808238Y-85072844D01*
X125689844Y-85191238D01*
X125550626Y-85284260D01*
X125550625Y-85284261D01*
X125550624Y-85284261D01*
X125395935Y-85348336D01*
X125231719Y-85381000D01*
X125064281Y-85381000D01*
X124900065Y-85348336D01*
X124745376Y-85284261D01*
X124745375Y-85284261D01*
X124745374Y-85284260D01*
X124606156Y-85191238D01*
X124487762Y-85072844D01*
X124394740Y-84933626D01*
X124394739Y-84933624D01*
X124330664Y-84778935D01*
X124298000Y-84614719D01*
X124298000Y-84447281D01*
X124330664Y-84283065D01*
X124394739Y-84128376D01*
X124426182Y-84081318D01*
X124487762Y-83989156D01*
X124606156Y-83870762D01*
X124745374Y-83777740D01*
X124745376Y-83777739D01*
X124900065Y-83713664D01*
X125064281Y-83681000D01*
X125231719Y-83681000D01*
X125395935Y-83713664D01*
G37*
G36*
X184984335Y-83180264D02*
G01*
X185139024Y-83244339D01*
X185139026Y-83244340D01*
X185278244Y-83337362D01*
X185396638Y-83455756D01*
X185489660Y-83594974D01*
X185489661Y-83594976D01*
X185553736Y-83749665D01*
X185586400Y-83913881D01*
X185586400Y-84081319D01*
X185553736Y-84245535D01*
X185538190Y-84283065D01*
X185489660Y-84400226D01*
X185396638Y-84539444D01*
X185278244Y-84657838D01*
X185139026Y-84750860D01*
X185139025Y-84750861D01*
X185139024Y-84750861D01*
X184984335Y-84814936D01*
X184820119Y-84847600D01*
X184652681Y-84847600D01*
X184488465Y-84814936D01*
X184333776Y-84750861D01*
X184333775Y-84750861D01*
X184333774Y-84750860D01*
X184194556Y-84657838D01*
X184076162Y-84539444D01*
X183983140Y-84400226D01*
X183934610Y-84283065D01*
X183919064Y-84245535D01*
X183886400Y-84081319D01*
X183886400Y-83913881D01*
X183919064Y-83749665D01*
X183983139Y-83594976D01*
X183983140Y-83594974D01*
X184076162Y-83455756D01*
X184194556Y-83337362D01*
X184333774Y-83244340D01*
X184333776Y-83244339D01*
X184488465Y-83180264D01*
X184652681Y-83147600D01*
X184820119Y-83147600D01*
X184984335Y-83180264D01*
G37*
G36*
X187524335Y-83180264D02*
G01*
X187679024Y-83244339D01*
X187679026Y-83244340D01*
X187818244Y-83337362D01*
X187936638Y-83455756D01*
X188029660Y-83594974D01*
X188029661Y-83594976D01*
X188093736Y-83749665D01*
X188126400Y-83913881D01*
X188126400Y-84081319D01*
X188093736Y-84245535D01*
X188078190Y-84283065D01*
X188029660Y-84400226D01*
X187936638Y-84539444D01*
X187818244Y-84657838D01*
X187679026Y-84750860D01*
X187679025Y-84750861D01*
X187679024Y-84750861D01*
X187524335Y-84814936D01*
X187360119Y-84847600D01*
X187192681Y-84847600D01*
X187028465Y-84814936D01*
X186873776Y-84750861D01*
X186873775Y-84750861D01*
X186873774Y-84750860D01*
X186734556Y-84657838D01*
X186616162Y-84539444D01*
X186523140Y-84400226D01*
X186474610Y-84283065D01*
X186459064Y-84245535D01*
X186426400Y-84081319D01*
X186426400Y-83913881D01*
X186459064Y-83749665D01*
X186523139Y-83594976D01*
X186523140Y-83594974D01*
X186616162Y-83455756D01*
X186734556Y-83337362D01*
X186873774Y-83244340D01*
X186873776Y-83244339D01*
X187028465Y-83180264D01*
X187192681Y-83147600D01*
X187360119Y-83147600D01*
X187524335Y-83180264D01*
G37*
G36*
X125395935Y-81173664D02*
G01*
X125550624Y-81237739D01*
X125550626Y-81237740D01*
X125689844Y-81330762D01*
X125808238Y-81449156D01*
X125869818Y-81541318D01*
X125901261Y-81588376D01*
X125965336Y-81743065D01*
X125998000Y-81907281D01*
X125998000Y-82074719D01*
X125965336Y-82238935D01*
X125901261Y-82393624D01*
X125901260Y-82393626D01*
X125808238Y-82532844D01*
X125689844Y-82651238D01*
X125550626Y-82744260D01*
X125550625Y-82744261D01*
X125550624Y-82744261D01*
X125395935Y-82808336D01*
X125231719Y-82841000D01*
X125064281Y-82841000D01*
X124900065Y-82808336D01*
X124745376Y-82744261D01*
X124745375Y-82744261D01*
X124745374Y-82744260D01*
X124606156Y-82651238D01*
X124487762Y-82532844D01*
X124394740Y-82393626D01*
X124394739Y-82393624D01*
X124330664Y-82238935D01*
X124298000Y-82074719D01*
X124298000Y-81907281D01*
X124330664Y-81743065D01*
X124394739Y-81588376D01*
X124426182Y-81541318D01*
X124487762Y-81449156D01*
X124606156Y-81330762D01*
X124745374Y-81237740D01*
X124745376Y-81237739D01*
X124900065Y-81173664D01*
X125064281Y-81141000D01*
X125231719Y-81141000D01*
X125395935Y-81173664D01*
G37*
G36*
X187524335Y-80640264D02*
G01*
X187679024Y-80704339D01*
X187679026Y-80704340D01*
X187818244Y-80797362D01*
X187936638Y-80915756D01*
X188029660Y-81054974D01*
X188029661Y-81054976D01*
X188093736Y-81209665D01*
X188126400Y-81373881D01*
X188126400Y-81541319D01*
X188093736Y-81705535D01*
X188078190Y-81743065D01*
X188029660Y-81860226D01*
X187936638Y-81999444D01*
X187818244Y-82117838D01*
X187679026Y-82210860D01*
X187679025Y-82210861D01*
X187679024Y-82210861D01*
X187524335Y-82274936D01*
X187360119Y-82307600D01*
X187192681Y-82307600D01*
X187028465Y-82274936D01*
X186873776Y-82210861D01*
X186873775Y-82210861D01*
X186873774Y-82210860D01*
X186734556Y-82117838D01*
X186616162Y-81999444D01*
X186523140Y-81860226D01*
X186474610Y-81743065D01*
X186459064Y-81705535D01*
X186426400Y-81541319D01*
X186426400Y-81373881D01*
X186459064Y-81209665D01*
X186523139Y-81054976D01*
X186523140Y-81054974D01*
X186616162Y-80915756D01*
X186734556Y-80797362D01*
X186873774Y-80704340D01*
X186873776Y-80704339D01*
X187028465Y-80640264D01*
X187192681Y-80607600D01*
X187360119Y-80607600D01*
X187524335Y-80640264D01*
G37*
G36*
X184984335Y-80640264D02*
G01*
X185139024Y-80704339D01*
X185139026Y-80704340D01*
X185278244Y-80797362D01*
X185396638Y-80915756D01*
X185489660Y-81054974D01*
X185489661Y-81054976D01*
X185553736Y-81209665D01*
X185586400Y-81373881D01*
X185586400Y-81541319D01*
X185553736Y-81705535D01*
X185538190Y-81743065D01*
X185489660Y-81860226D01*
X185396638Y-81999444D01*
X185278244Y-82117838D01*
X185139026Y-82210860D01*
X185139025Y-82210861D01*
X185139024Y-82210861D01*
X184984335Y-82274936D01*
X184820119Y-82307600D01*
X184652681Y-82307600D01*
X184488465Y-82274936D01*
X184333776Y-82210861D01*
X184333775Y-82210861D01*
X184333774Y-82210860D01*
X184194556Y-82117838D01*
X184076162Y-81999444D01*
X183983140Y-81860226D01*
X183934610Y-81743065D01*
X183919064Y-81705535D01*
X183886400Y-81541319D01*
X183886400Y-81373881D01*
X183919064Y-81209665D01*
X183983139Y-81054976D01*
X183983140Y-81054974D01*
X184076162Y-80915756D01*
X184194556Y-80797362D01*
X184333774Y-80704340D01*
X184333776Y-80704339D01*
X184488465Y-80640264D01*
X184652681Y-80607600D01*
X184820119Y-80607600D01*
X184984335Y-80640264D01*
G37*
G36*
X125395935Y-78633664D02*
G01*
X125550624Y-78697739D01*
X125550626Y-78697740D01*
X125689844Y-78790762D01*
X125808238Y-78909156D01*
X125854057Y-78977730D01*
X125901261Y-79048376D01*
X125965336Y-79203065D01*
X125998000Y-79367281D01*
X125998000Y-79534719D01*
X125965336Y-79698935D01*
X125901261Y-79853624D01*
X125901260Y-79853626D01*
X125808238Y-79992844D01*
X125689844Y-80111238D01*
X125550626Y-80204260D01*
X125550625Y-80204261D01*
X125550624Y-80204261D01*
X125395935Y-80268336D01*
X125231719Y-80301000D01*
X125064281Y-80301000D01*
X124900065Y-80268336D01*
X124745376Y-80204261D01*
X124745375Y-80204261D01*
X124745374Y-80204260D01*
X124606156Y-80111238D01*
X124487762Y-79992844D01*
X124394740Y-79853626D01*
X124394739Y-79853624D01*
X124330664Y-79698935D01*
X124298000Y-79534719D01*
X124298000Y-79367281D01*
X124330664Y-79203065D01*
X124394739Y-79048376D01*
X124441943Y-78977730D01*
X124487762Y-78909156D01*
X124606156Y-78790762D01*
X124745374Y-78697740D01*
X124745376Y-78697739D01*
X124900065Y-78633664D01*
X125064281Y-78601000D01*
X125231719Y-78601000D01*
X125395935Y-78633664D01*
G37*
G36*
X184984335Y-78100264D02*
G01*
X185139024Y-78164339D01*
X185139026Y-78164340D01*
X185278244Y-78257362D01*
X185396638Y-78375756D01*
X185489660Y-78514974D01*
X185489661Y-78514976D01*
X185553736Y-78669665D01*
X185586400Y-78833881D01*
X185586400Y-79001319D01*
X185553736Y-79165535D01*
X185538190Y-79203065D01*
X185489660Y-79320226D01*
X185396638Y-79459444D01*
X185278244Y-79577838D01*
X185139026Y-79670860D01*
X185139025Y-79670861D01*
X185139024Y-79670861D01*
X184984335Y-79734936D01*
X184820119Y-79767600D01*
X184652681Y-79767600D01*
X184488465Y-79734936D01*
X184333776Y-79670861D01*
X184333775Y-79670861D01*
X184333774Y-79670860D01*
X184194556Y-79577838D01*
X184076162Y-79459444D01*
X183983140Y-79320226D01*
X183934610Y-79203065D01*
X183919064Y-79165535D01*
X183886400Y-79001319D01*
X183886400Y-78833881D01*
X183919064Y-78669665D01*
X183983139Y-78514976D01*
X183983140Y-78514974D01*
X184076162Y-78375756D01*
X184194556Y-78257362D01*
X184333774Y-78164340D01*
X184333776Y-78164339D01*
X184488465Y-78100264D01*
X184652681Y-78067600D01*
X184820119Y-78067600D01*
X184984335Y-78100264D01*
G37*
G36*
X187524335Y-78100264D02*
G01*
X187679024Y-78164339D01*
X187679026Y-78164340D01*
X187818244Y-78257362D01*
X187936638Y-78375756D01*
X188029660Y-78514974D01*
X188029661Y-78514976D01*
X188093736Y-78669665D01*
X188126400Y-78833881D01*
X188126400Y-79001319D01*
X188093736Y-79165535D01*
X188078190Y-79203065D01*
X188029660Y-79320226D01*
X187936638Y-79459444D01*
X187818244Y-79577838D01*
X187679026Y-79670860D01*
X187679025Y-79670861D01*
X187679024Y-79670861D01*
X187524335Y-79734936D01*
X187360119Y-79767600D01*
X187192681Y-79767600D01*
X187028465Y-79734936D01*
X186873776Y-79670861D01*
X186873775Y-79670861D01*
X186873774Y-79670860D01*
X186734556Y-79577838D01*
X186616162Y-79459444D01*
X186523140Y-79320226D01*
X186474610Y-79203065D01*
X186459064Y-79165535D01*
X186426400Y-79001319D01*
X186426400Y-78833881D01*
X186459064Y-78669665D01*
X186523139Y-78514976D01*
X186523140Y-78514974D01*
X186616162Y-78375756D01*
X186734556Y-78257362D01*
X186873774Y-78164340D01*
X186873776Y-78164339D01*
X187028465Y-78100264D01*
X187192681Y-78067600D01*
X187360119Y-78067600D01*
X187524335Y-78100264D01*
G37*
G36*
X92463015Y-78677234D02*
G01*
X92557270Y-78705826D01*
X92644128Y-78752253D01*
X92720264Y-78814736D01*
X92782747Y-78890872D01*
X92829174Y-78977730D01*
X92857766Y-79071985D01*
X92867419Y-79170000D01*
X92857766Y-79268015D01*
X92829174Y-79362270D01*
X92782747Y-79449128D01*
X92720264Y-79525264D01*
X92644128Y-79587747D01*
X92557270Y-79634174D01*
X92463015Y-79662766D01*
X92389564Y-79670000D01*
X91340436Y-79670000D01*
X91266985Y-79662766D01*
X91172730Y-79634174D01*
X91085872Y-79587747D01*
X91009736Y-79525264D01*
X90947253Y-79449128D01*
X90900826Y-79362270D01*
X90872234Y-79268015D01*
X90862581Y-79170000D01*
X90872234Y-79071985D01*
X90900826Y-78977730D01*
X90947253Y-78890872D01*
X91009736Y-78814736D01*
X91085872Y-78752253D01*
X91172730Y-78705826D01*
X91266985Y-78677234D01*
X91340436Y-78670000D01*
X92389564Y-78670000D01*
X92463015Y-78677234D01*
G37*
G36*
X96593015Y-78677234D02*
G01*
X96687270Y-78705826D01*
X96774128Y-78752253D01*
X96850264Y-78814736D01*
X96912747Y-78890872D01*
X96959174Y-78977730D01*
X96987766Y-79071985D01*
X96997419Y-79170000D01*
X96987766Y-79268015D01*
X96959174Y-79362270D01*
X96912747Y-79449128D01*
X96850264Y-79525264D01*
X96774128Y-79587747D01*
X96687270Y-79634174D01*
X96593015Y-79662766D01*
X96519564Y-79670000D01*
X95370436Y-79670000D01*
X95296985Y-79662766D01*
X95202730Y-79634174D01*
X95115872Y-79587747D01*
X95039736Y-79525264D01*
X94977253Y-79449128D01*
X94930826Y-79362270D01*
X94902234Y-79268015D01*
X94892581Y-79170000D01*
X94902234Y-79071985D01*
X94930826Y-78977730D01*
X94977253Y-78890872D01*
X95039736Y-78814736D01*
X95115872Y-78752253D01*
X95202730Y-78705826D01*
X95296985Y-78677234D01*
X95370436Y-78670000D01*
X96519564Y-78670000D01*
X96593015Y-78677234D01*
G37*
G36*
X98940000Y-78720000D02*
G01*
X97940000Y-78720000D01*
X97940000Y-77720000D01*
X98940000Y-77720000D01*
X98940000Y-78720000D01*
G37*
G36*
X97074823Y-71350833D02*
G01*
X97077051Y-71351509D01*
X97079106Y-71352608D01*
X97080911Y-71354089D01*
X97082392Y-71355894D01*
X97083491Y-71357949D01*
X97084167Y-71360177D01*
X97085000Y-71368640D01*
X97085000Y-71631362D01*
X97084371Y-71637749D01*
X97084371Y-71662251D01*
X97085000Y-71668638D01*
X97085000Y-71931360D01*
X97084167Y-71939823D01*
X97083491Y-71942051D01*
X97082392Y-71944106D01*
X97080913Y-71945908D01*
X97071815Y-71953375D01*
X97054489Y-71970703D01*
X97040875Y-71991077D01*
X97031498Y-72013716D01*
X97026718Y-72037749D01*
X97026718Y-72062253D01*
X97031499Y-72086287D01*
X97040876Y-72108925D01*
X97054490Y-72129300D01*
X97071815Y-72146625D01*
X97080913Y-72154092D01*
X97082392Y-72155894D01*
X97083491Y-72157949D01*
X97084167Y-72160177D01*
X97085000Y-72168640D01*
X97085000Y-72431362D01*
X97084371Y-72437749D01*
X97084371Y-72462251D01*
X97085000Y-72468638D01*
X97085000Y-72731360D01*
X97084167Y-72739823D01*
X97083491Y-72742051D01*
X97082392Y-72744106D01*
X97080913Y-72745908D01*
X97071815Y-72753375D01*
X97054489Y-72770703D01*
X97040875Y-72791077D01*
X97031498Y-72813716D01*
X97026718Y-72837749D01*
X97026718Y-72862253D01*
X97031499Y-72886287D01*
X97040876Y-72908925D01*
X97054490Y-72929300D01*
X97071815Y-72946625D01*
X97080913Y-72954092D01*
X97082392Y-72955894D01*
X97083491Y-72957949D01*
X97084167Y-72960177D01*
X97085000Y-72968640D01*
X97085000Y-73231360D01*
X97084167Y-73239823D01*
X97083491Y-73242051D01*
X97082392Y-73244106D01*
X97080913Y-73245908D01*
X97071815Y-73253375D01*
X97054489Y-73270703D01*
X97040875Y-73291077D01*
X97031498Y-73313716D01*
X97026718Y-73337749D01*
X97026718Y-73362253D01*
X97031499Y-73386287D01*
X97040876Y-73408925D01*
X97054490Y-73429300D01*
X97071815Y-73446625D01*
X97080913Y-73454092D01*
X97082392Y-73455894D01*
X97083491Y-73457949D01*
X97084167Y-73460177D01*
X97085000Y-73468640D01*
X97085000Y-73731360D01*
X97084167Y-73739823D01*
X97083491Y-73742051D01*
X97082392Y-73744106D01*
X97080913Y-73745908D01*
X97071815Y-73753375D01*
X97054489Y-73770703D01*
X97040875Y-73791077D01*
X97031498Y-73813716D01*
X97026718Y-73837749D01*
X97026718Y-73862253D01*
X97031499Y-73886287D01*
X97040876Y-73908925D01*
X97054490Y-73929300D01*
X97071815Y-73946625D01*
X97080913Y-73954092D01*
X97082392Y-73955894D01*
X97083491Y-73957949D01*
X97084167Y-73960177D01*
X97085000Y-73968640D01*
X97085000Y-74231360D01*
X97084167Y-74239823D01*
X97083491Y-74242051D01*
X97082392Y-74244106D01*
X97080913Y-74245908D01*
X97071815Y-74253375D01*
X97054489Y-74270703D01*
X97040875Y-74291077D01*
X97031498Y-74313716D01*
X97026718Y-74337749D01*
X97026718Y-74362253D01*
X97031499Y-74386287D01*
X97040876Y-74408925D01*
X97054490Y-74429300D01*
X97071815Y-74446625D01*
X97080913Y-74454092D01*
X97082392Y-74455894D01*
X97083491Y-74457949D01*
X97084167Y-74460177D01*
X97085000Y-74468640D01*
X97085000Y-74731360D01*
X97084167Y-74739823D01*
X97083491Y-74742051D01*
X97082392Y-74744106D01*
X97080913Y-74745908D01*
X97071815Y-74753375D01*
X97054489Y-74770703D01*
X97040875Y-74791077D01*
X97031498Y-74813716D01*
X97026718Y-74837749D01*
X97026718Y-74862253D01*
X97031499Y-74886287D01*
X97040876Y-74908925D01*
X97054490Y-74929300D01*
X97071815Y-74946625D01*
X97080913Y-74954092D01*
X97082392Y-74955894D01*
X97083491Y-74957949D01*
X97084167Y-74960177D01*
X97085000Y-74968640D01*
X97085000Y-75231360D01*
X97084167Y-75239823D01*
X97083491Y-75242051D01*
X97082392Y-75244106D01*
X97080913Y-75245908D01*
X97071815Y-75253375D01*
X97054489Y-75270703D01*
X97040875Y-75291077D01*
X97031498Y-75313716D01*
X97026718Y-75337749D01*
X97026718Y-75362253D01*
X97031499Y-75386287D01*
X97040876Y-75408925D01*
X97054490Y-75429300D01*
X97071815Y-75446625D01*
X97080913Y-75454092D01*
X97082392Y-75455894D01*
X97083491Y-75457949D01*
X97084167Y-75460177D01*
X97085000Y-75468640D01*
X97085000Y-75731360D01*
X97084167Y-75739823D01*
X97083491Y-75742051D01*
X97082392Y-75744106D01*
X97080913Y-75745908D01*
X97071815Y-75753375D01*
X97054489Y-75770703D01*
X97040875Y-75791077D01*
X97031498Y-75813716D01*
X97026718Y-75837749D01*
X97026718Y-75862253D01*
X97031499Y-75886287D01*
X97040876Y-75908925D01*
X97054490Y-75929300D01*
X97071815Y-75946625D01*
X97080913Y-75954092D01*
X97082392Y-75955894D01*
X97083491Y-75957949D01*
X97084167Y-75960177D01*
X97085000Y-75968640D01*
X97085000Y-76231360D01*
X97084167Y-76239823D01*
X97083491Y-76242051D01*
X97082392Y-76244106D01*
X97080913Y-76245908D01*
X97071815Y-76253375D01*
X97054489Y-76270703D01*
X97040875Y-76291077D01*
X97031498Y-76313716D01*
X97026718Y-76337749D01*
X97026718Y-76362253D01*
X97031499Y-76386287D01*
X97040876Y-76408925D01*
X97054490Y-76429300D01*
X97071815Y-76446625D01*
X97080913Y-76454092D01*
X97082392Y-76455894D01*
X97083491Y-76457949D01*
X97084167Y-76460177D01*
X97085000Y-76468640D01*
X97085000Y-76731360D01*
X97084167Y-76739823D01*
X97083491Y-76742051D01*
X97082392Y-76744106D01*
X97080913Y-76745908D01*
X97071815Y-76753375D01*
X97054489Y-76770703D01*
X97040875Y-76791077D01*
X97031498Y-76813716D01*
X97026718Y-76837749D01*
X97026718Y-76862253D01*
X97031499Y-76886287D01*
X97040876Y-76908925D01*
X97054490Y-76929300D01*
X97071815Y-76946625D01*
X97080913Y-76954092D01*
X97082392Y-76955894D01*
X97083491Y-76957949D01*
X97084167Y-76960177D01*
X97085000Y-76968640D01*
X97085000Y-77231362D01*
X97084371Y-77237749D01*
X97084371Y-77262251D01*
X97085000Y-77268638D01*
X97085000Y-77531360D01*
X97084167Y-77539823D01*
X97083491Y-77542051D01*
X97082392Y-77544106D01*
X97080913Y-77545908D01*
X97071815Y-77553375D01*
X97054489Y-77570703D01*
X97040875Y-77591077D01*
X97031498Y-77613716D01*
X97026718Y-77637749D01*
X97026718Y-77662253D01*
X97031499Y-77686287D01*
X97040876Y-77708925D01*
X97054490Y-77729300D01*
X97071815Y-77746625D01*
X97080913Y-77754092D01*
X97082392Y-77755894D01*
X97083491Y-77757949D01*
X97084167Y-77760177D01*
X97085000Y-77768640D01*
X97085000Y-78031362D01*
X97084371Y-78037749D01*
X97084371Y-78062251D01*
X97085000Y-78068638D01*
X97085000Y-78331360D01*
X97084167Y-78339823D01*
X97083491Y-78342051D01*
X97082392Y-78344106D01*
X97080911Y-78345911D01*
X97079106Y-78347392D01*
X97077051Y-78348491D01*
X97074823Y-78349167D01*
X97066360Y-78350000D01*
X95953640Y-78350000D01*
X95945177Y-78349167D01*
X95942949Y-78348491D01*
X95940894Y-78347392D01*
X95939089Y-78345911D01*
X95937608Y-78344106D01*
X95936509Y-78342051D01*
X95935833Y-78339823D01*
X95935000Y-78331360D01*
X95935000Y-78068638D01*
X95935629Y-78062251D01*
X95935629Y-78037749D01*
X95935000Y-78031362D01*
X95935000Y-78003714D01*
X95932598Y-77979328D01*
X95925485Y-77955879D01*
X95913934Y-77934268D01*
X95898389Y-77915326D01*
X95879447Y-77899781D01*
X95857836Y-77888230D01*
X95834387Y-77881117D01*
X95810001Y-77878715D01*
X95785615Y-77881117D01*
X95762166Y-77888230D01*
X95740555Y-77899781D01*
X95721613Y-77915326D01*
X95706072Y-77934263D01*
X95697444Y-77947176D01*
X95652176Y-77992444D01*
X95598945Y-78028012D01*
X95539799Y-78052511D01*
X95477010Y-78065000D01*
X95412990Y-78065000D01*
X95350201Y-78052511D01*
X95291055Y-78028012D01*
X95237824Y-77992444D01*
X95192556Y-77947176D01*
X95156988Y-77893945D01*
X95132489Y-77834799D01*
X95120000Y-77772010D01*
X95120000Y-77707990D01*
X95132489Y-77645201D01*
X95156988Y-77586055D01*
X95192556Y-77532824D01*
X95237824Y-77487556D01*
X95291055Y-77451988D01*
X95350201Y-77427489D01*
X95412990Y-77415000D01*
X95477010Y-77415000D01*
X95539799Y-77427489D01*
X95598945Y-77451988D01*
X95652176Y-77487556D01*
X95697444Y-77532824D01*
X95706072Y-77545737D01*
X95721614Y-77564675D01*
X95740556Y-77580220D01*
X95762167Y-77591771D01*
X95785616Y-77598883D01*
X95810002Y-77601285D01*
X95834388Y-77598883D01*
X95857837Y-77591770D01*
X95879448Y-77580218D01*
X95898390Y-77564673D01*
X95913935Y-77545731D01*
X95925486Y-77524120D01*
X95932598Y-77500671D01*
X95935000Y-77476286D01*
X95935000Y-77268638D01*
X95935629Y-77262251D01*
X95935629Y-77237749D01*
X95935000Y-77231362D01*
X95935000Y-76968640D01*
X95935833Y-76960177D01*
X95936509Y-76957949D01*
X95937608Y-76955894D01*
X95939087Y-76954092D01*
X95948185Y-76946625D01*
X95965511Y-76929297D01*
X95979125Y-76908923D01*
X95988502Y-76886284D01*
X95993282Y-76862251D01*
X95993282Y-76837747D01*
X95988501Y-76813713D01*
X95979124Y-76791075D01*
X95965510Y-76770700D01*
X95948185Y-76753375D01*
X95939087Y-76745908D01*
X95937608Y-76744106D01*
X95936509Y-76742051D01*
X95935833Y-76739823D01*
X95935000Y-76731360D01*
X95935000Y-76468640D01*
X95935833Y-76460177D01*
X95936509Y-76457949D01*
X95937608Y-76455894D01*
X95939087Y-76454092D01*
X95948185Y-76446625D01*
X95965511Y-76429297D01*
X95979125Y-76408923D01*
X95988502Y-76386284D01*
X95993282Y-76362251D01*
X95993282Y-76337747D01*
X95988501Y-76313713D01*
X95979124Y-76291075D01*
X95965510Y-76270700D01*
X95948185Y-76253375D01*
X95939087Y-76245908D01*
X95937608Y-76244106D01*
X95936509Y-76242051D01*
X95935833Y-76239823D01*
X95935000Y-76231360D01*
X95935000Y-75968640D01*
X95935833Y-75960177D01*
X95936509Y-75957949D01*
X95937608Y-75955894D01*
X95939087Y-75954092D01*
X95948185Y-75946625D01*
X95965511Y-75929297D01*
X95979125Y-75908923D01*
X95988502Y-75886284D01*
X95993282Y-75862251D01*
X95993282Y-75837747D01*
X95988501Y-75813713D01*
X95979124Y-75791075D01*
X95965510Y-75770700D01*
X95948185Y-75753375D01*
X95939087Y-75745908D01*
X95937608Y-75744106D01*
X95936509Y-75742051D01*
X95935833Y-75739823D01*
X95935000Y-75731360D01*
X95935000Y-75468640D01*
X95935833Y-75460177D01*
X95936509Y-75457949D01*
X95937608Y-75455894D01*
X95939087Y-75454092D01*
X95948185Y-75446625D01*
X95965511Y-75429297D01*
X95979125Y-75408923D01*
X95988502Y-75386284D01*
X95993282Y-75362251D01*
X95993282Y-75337747D01*
X95988501Y-75313713D01*
X95979124Y-75291075D01*
X95965510Y-75270700D01*
X95948185Y-75253375D01*
X95939087Y-75245908D01*
X95937608Y-75244106D01*
X95936509Y-75242051D01*
X95935833Y-75239823D01*
X95935000Y-75231360D01*
X95935000Y-74968640D01*
X95935833Y-74960177D01*
X95936509Y-74957949D01*
X95937608Y-74955894D01*
X95939087Y-74954092D01*
X95948185Y-74946625D01*
X95965511Y-74929297D01*
X95979125Y-74908923D01*
X95988502Y-74886284D01*
X95993282Y-74862251D01*
X95993282Y-74837747D01*
X95988501Y-74813713D01*
X95979124Y-74791075D01*
X95965510Y-74770700D01*
X95948185Y-74753375D01*
X95939087Y-74745908D01*
X95937608Y-74744106D01*
X95936509Y-74742051D01*
X95935833Y-74739823D01*
X95935000Y-74731360D01*
X95935000Y-74468640D01*
X95935833Y-74460177D01*
X95936509Y-74457949D01*
X95937608Y-74455894D01*
X95939087Y-74454092D01*
X95948185Y-74446625D01*
X95965511Y-74429297D01*
X95979125Y-74408923D01*
X95988502Y-74386284D01*
X95993282Y-74362251D01*
X95993282Y-74337747D01*
X95988501Y-74313713D01*
X95979124Y-74291075D01*
X95965510Y-74270700D01*
X95948185Y-74253375D01*
X95939087Y-74245908D01*
X95937608Y-74244106D01*
X95936509Y-74242051D01*
X95935833Y-74239823D01*
X95935000Y-74231360D01*
X95935000Y-73968640D01*
X95935833Y-73960177D01*
X95936509Y-73957949D01*
X95937608Y-73955894D01*
X95939087Y-73954092D01*
X95948185Y-73946625D01*
X95965511Y-73929297D01*
X95979125Y-73908923D01*
X95988502Y-73886284D01*
X95993282Y-73862251D01*
X95993282Y-73837747D01*
X95988501Y-73813713D01*
X95979124Y-73791075D01*
X95965510Y-73770700D01*
X95948185Y-73753375D01*
X95939087Y-73745908D01*
X95937608Y-73744106D01*
X95936509Y-73742051D01*
X95935833Y-73739823D01*
X95935000Y-73731360D01*
X95935000Y-73468640D01*
X95935833Y-73460177D01*
X95936509Y-73457949D01*
X95937608Y-73455894D01*
X95939087Y-73454092D01*
X95948185Y-73446625D01*
X95965511Y-73429297D01*
X95979125Y-73408923D01*
X95988502Y-73386284D01*
X95993282Y-73362251D01*
X95993282Y-73337747D01*
X95988501Y-73313713D01*
X95979124Y-73291075D01*
X95965510Y-73270700D01*
X95948185Y-73253375D01*
X95939087Y-73245908D01*
X95937608Y-73244106D01*
X95936509Y-73242051D01*
X95935833Y-73239823D01*
X95935000Y-73231360D01*
X95935000Y-72968640D01*
X95935833Y-72960177D01*
X95936509Y-72957949D01*
X95937608Y-72955894D01*
X95939087Y-72954092D01*
X95948185Y-72946625D01*
X95965511Y-72929297D01*
X95979125Y-72908923D01*
X95988502Y-72886284D01*
X95993282Y-72862251D01*
X95993282Y-72837747D01*
X95988501Y-72813713D01*
X95979124Y-72791075D01*
X95965510Y-72770700D01*
X95948185Y-72753375D01*
X95939087Y-72745908D01*
X95937608Y-72744106D01*
X95936509Y-72742051D01*
X95935833Y-72739823D01*
X95935000Y-72731360D01*
X95935000Y-72468638D01*
X95935629Y-72462251D01*
X95935629Y-72437749D01*
X95935000Y-72431362D01*
X95935000Y-72223714D01*
X95932598Y-72199328D01*
X95925485Y-72175879D01*
X95913934Y-72154268D01*
X95898389Y-72135326D01*
X95879447Y-72119781D01*
X95857836Y-72108230D01*
X95834387Y-72101117D01*
X95810001Y-72098715D01*
X95785615Y-72101117D01*
X95762166Y-72108230D01*
X95740555Y-72119781D01*
X95721613Y-72135326D01*
X95706072Y-72154263D01*
X95697444Y-72167176D01*
X95652176Y-72212444D01*
X95598945Y-72248012D01*
X95539799Y-72272511D01*
X95477010Y-72285000D01*
X95412990Y-72285000D01*
X95350201Y-72272511D01*
X95291055Y-72248012D01*
X95237824Y-72212444D01*
X95192556Y-72167176D01*
X95156988Y-72113945D01*
X95132489Y-72054799D01*
X95120000Y-71992010D01*
X95120000Y-71927990D01*
X95132489Y-71865201D01*
X95156988Y-71806055D01*
X95192556Y-71752824D01*
X95237824Y-71707556D01*
X95291055Y-71671988D01*
X95350201Y-71647489D01*
X95412990Y-71635000D01*
X95477010Y-71635000D01*
X95539799Y-71647489D01*
X95598945Y-71671988D01*
X95652176Y-71707556D01*
X95697444Y-71752824D01*
X95706072Y-71765737D01*
X95721614Y-71784675D01*
X95740556Y-71800220D01*
X95762167Y-71811771D01*
X95785616Y-71818883D01*
X95810002Y-71821285D01*
X95834388Y-71818883D01*
X95857837Y-71811770D01*
X95879448Y-71800218D01*
X95898390Y-71784673D01*
X95913935Y-71765731D01*
X95925486Y-71744120D01*
X95932598Y-71720671D01*
X95935000Y-71696286D01*
X95935000Y-71668638D01*
X95935629Y-71662251D01*
X95935629Y-71637749D01*
X95935000Y-71631362D01*
X95935000Y-71368640D01*
X95935833Y-71360177D01*
X95936509Y-71357949D01*
X95937608Y-71355894D01*
X95939089Y-71354089D01*
X95940894Y-71352608D01*
X95942949Y-71351509D01*
X95945177Y-71350833D01*
X95953640Y-71350000D01*
X97066360Y-71350000D01*
X97074823Y-71350833D01*
G37*
G36*
X125395935Y-76093664D02*
G01*
X125550624Y-76157739D01*
X125550626Y-76157740D01*
X125689844Y-76250762D01*
X125808238Y-76369156D01*
X125901260Y-76508374D01*
X125901261Y-76508376D01*
X125965336Y-76663065D01*
X125998000Y-76827281D01*
X125998000Y-76994719D01*
X125965336Y-77158935D01*
X125919895Y-77268638D01*
X125901260Y-77313626D01*
X125808238Y-77452844D01*
X125689844Y-77571238D01*
X125550626Y-77664260D01*
X125550625Y-77664261D01*
X125550624Y-77664261D01*
X125395935Y-77728336D01*
X125231719Y-77761000D01*
X125064281Y-77761000D01*
X124900065Y-77728336D01*
X124745376Y-77664261D01*
X124745375Y-77664261D01*
X124745374Y-77664260D01*
X124606156Y-77571238D01*
X124487762Y-77452844D01*
X124394740Y-77313626D01*
X124376105Y-77268638D01*
X124330664Y-77158935D01*
X124298000Y-76994719D01*
X124298000Y-76827281D01*
X124330664Y-76663065D01*
X124394739Y-76508376D01*
X124394740Y-76508374D01*
X124487762Y-76369156D01*
X124606156Y-76250762D01*
X124745374Y-76157740D01*
X124745376Y-76157739D01*
X124900065Y-76093664D01*
X125064281Y-76061000D01*
X125231719Y-76061000D01*
X125395935Y-76093664D01*
G37*
G36*
X187524335Y-75560264D02*
G01*
X187679024Y-75624339D01*
X187679026Y-75624340D01*
X187818244Y-75717362D01*
X187936638Y-75835756D01*
X188029660Y-75974974D01*
X188029661Y-75974976D01*
X188093736Y-76129665D01*
X188126400Y-76293881D01*
X188126400Y-76461319D01*
X188093736Y-76625535D01*
X188044545Y-76744291D01*
X188029660Y-76780226D01*
X187936638Y-76919444D01*
X187818244Y-77037838D01*
X187679026Y-77130860D01*
X187679025Y-77130861D01*
X187679024Y-77130861D01*
X187524335Y-77194936D01*
X187360119Y-77227600D01*
X187192681Y-77227600D01*
X187028465Y-77194936D01*
X186873776Y-77130861D01*
X186873775Y-77130861D01*
X186873774Y-77130860D01*
X186734556Y-77037838D01*
X186616162Y-76919444D01*
X186523140Y-76780226D01*
X186508255Y-76744291D01*
X186459064Y-76625535D01*
X186426400Y-76461319D01*
X186426400Y-76293881D01*
X186459064Y-76129665D01*
X186523139Y-75974976D01*
X186523140Y-75974974D01*
X186616162Y-75835756D01*
X186734556Y-75717362D01*
X186873774Y-75624340D01*
X186873776Y-75624339D01*
X187028465Y-75560264D01*
X187192681Y-75527600D01*
X187360119Y-75527600D01*
X187524335Y-75560264D01*
G37*
G36*
X184984335Y-75560264D02*
G01*
X185139024Y-75624339D01*
X185139026Y-75624340D01*
X185278244Y-75717362D01*
X185396638Y-75835756D01*
X185489660Y-75974974D01*
X185489661Y-75974976D01*
X185553736Y-76129665D01*
X185586400Y-76293881D01*
X185586400Y-76461319D01*
X185553736Y-76625535D01*
X185504545Y-76744291D01*
X185489660Y-76780226D01*
X185396638Y-76919444D01*
X185278244Y-77037838D01*
X185139026Y-77130860D01*
X185139025Y-77130861D01*
X185139024Y-77130861D01*
X184984335Y-77194936D01*
X184820119Y-77227600D01*
X184652681Y-77227600D01*
X184488465Y-77194936D01*
X184333776Y-77130861D01*
X184333775Y-77130861D01*
X184333774Y-77130860D01*
X184194556Y-77037838D01*
X184076162Y-76919444D01*
X183983140Y-76780226D01*
X183968255Y-76744291D01*
X183919064Y-76625535D01*
X183886400Y-76461319D01*
X183886400Y-76293881D01*
X183919064Y-76129665D01*
X183983139Y-75974976D01*
X183983140Y-75974974D01*
X184076162Y-75835756D01*
X184194556Y-75717362D01*
X184333774Y-75624340D01*
X184333776Y-75624339D01*
X184488465Y-75560264D01*
X184652681Y-75527600D01*
X184820119Y-75527600D01*
X184984335Y-75560264D01*
G37*
G36*
X98950000Y-76500000D02*
G01*
X97950000Y-76500000D01*
X97950000Y-75500000D01*
X98950000Y-75500000D01*
X98950000Y-76500000D01*
G37*
G36*
X164028763Y-74916596D02*
G01*
X164063821Y-74927231D01*
X164096132Y-74944502D01*
X164124455Y-74967745D01*
X164147698Y-74996068D01*
X164164969Y-75028379D01*
X164175604Y-75063437D01*
X164179800Y-75106041D01*
X164179800Y-75718759D01*
X164175604Y-75761363D01*
X164164969Y-75796421D01*
X164147698Y-75828732D01*
X164124455Y-75857055D01*
X164096132Y-75880298D01*
X164063821Y-75897569D01*
X164028763Y-75908204D01*
X163986159Y-75912400D01*
X163373441Y-75912400D01*
X163330837Y-75908204D01*
X163295779Y-75897569D01*
X163263468Y-75880298D01*
X163235145Y-75857055D01*
X163211902Y-75828732D01*
X163194631Y-75796421D01*
X163183996Y-75761363D01*
X163179800Y-75718759D01*
X163179800Y-75106041D01*
X163183996Y-75063437D01*
X163194631Y-75028379D01*
X163211902Y-74996068D01*
X163235145Y-74967745D01*
X163263468Y-74944502D01*
X163295779Y-74927231D01*
X163330837Y-74916596D01*
X163373441Y-74912400D01*
X163986159Y-74912400D01*
X164028763Y-74916596D01*
G37*
G36*
X184984335Y-73020264D02*
G01*
X185139024Y-73084339D01*
X185139026Y-73084340D01*
X185278244Y-73177362D01*
X185396638Y-73295756D01*
X185489660Y-73434974D01*
X185489661Y-73434976D01*
X185553736Y-73589665D01*
X185586400Y-73753881D01*
X185586400Y-73921319D01*
X185553736Y-74085535D01*
X185490847Y-74237360D01*
X185489660Y-74240226D01*
X185396638Y-74379444D01*
X185278244Y-74497838D01*
X185139026Y-74590860D01*
X185139025Y-74590861D01*
X185139024Y-74590861D01*
X184984335Y-74654936D01*
X184820119Y-74687600D01*
X184652681Y-74687600D01*
X184488465Y-74654936D01*
X184333776Y-74590861D01*
X184333775Y-74590861D01*
X184333774Y-74590860D01*
X184194556Y-74497838D01*
X184076162Y-74379444D01*
X183983140Y-74240226D01*
X183981953Y-74237360D01*
X183919064Y-74085535D01*
X183886400Y-73921319D01*
X183886400Y-73753881D01*
X183919064Y-73589665D01*
X183983139Y-73434976D01*
X183983140Y-73434974D01*
X184076162Y-73295756D01*
X184194556Y-73177362D01*
X184333774Y-73084340D01*
X184333776Y-73084339D01*
X184488465Y-73020264D01*
X184652681Y-72987600D01*
X184820119Y-72987600D01*
X184984335Y-73020264D01*
G37*
G36*
X187524335Y-73020264D02*
G01*
X187679024Y-73084339D01*
X187679026Y-73084340D01*
X187818244Y-73177362D01*
X187936638Y-73295756D01*
X188029660Y-73434974D01*
X188029661Y-73434976D01*
X188093736Y-73589665D01*
X188126400Y-73753881D01*
X188126400Y-73921319D01*
X188093736Y-74085535D01*
X188030847Y-74237360D01*
X188029660Y-74240226D01*
X187936638Y-74379444D01*
X187818244Y-74497838D01*
X187679026Y-74590860D01*
X187679025Y-74590861D01*
X187679024Y-74590861D01*
X187524335Y-74654936D01*
X187360119Y-74687600D01*
X187192681Y-74687600D01*
X187028465Y-74654936D01*
X186873776Y-74590861D01*
X186873775Y-74590861D01*
X186873774Y-74590860D01*
X186734556Y-74497838D01*
X186616162Y-74379444D01*
X186523140Y-74240226D01*
X186521953Y-74237360D01*
X186459064Y-74085535D01*
X186426400Y-73921319D01*
X186426400Y-73753881D01*
X186459064Y-73589665D01*
X186523139Y-73434976D01*
X186523140Y-73434974D01*
X186616162Y-73295756D01*
X186734556Y-73177362D01*
X186873774Y-73084340D01*
X186873776Y-73084339D01*
X187028465Y-73020264D01*
X187192681Y-72987600D01*
X187360119Y-72987600D01*
X187524335Y-73020264D01*
G37*
G36*
X98950000Y-74280000D02*
G01*
X97950000Y-74280000D01*
X97950000Y-73280000D01*
X98950000Y-73280000D01*
X98950000Y-74280000D01*
G37*
G36*
X164028763Y-71893996D02*
G01*
X164063821Y-71904631D01*
X164096132Y-71921902D01*
X164124455Y-71945145D01*
X164147698Y-71973468D01*
X164164969Y-72005779D01*
X164175604Y-72040837D01*
X164179800Y-72083441D01*
X164179800Y-72696159D01*
X164175604Y-72738763D01*
X164164969Y-72773821D01*
X164147698Y-72806132D01*
X164124455Y-72834455D01*
X164096132Y-72857698D01*
X164063821Y-72874969D01*
X164028763Y-72885604D01*
X163986159Y-72889800D01*
X163373441Y-72889800D01*
X163330837Y-72885604D01*
X163295779Y-72874969D01*
X163263468Y-72857698D01*
X163235145Y-72834455D01*
X163211902Y-72806132D01*
X163194631Y-72773821D01*
X163183996Y-72738763D01*
X163179800Y-72696159D01*
X163179800Y-72083441D01*
X163183996Y-72040837D01*
X163194631Y-72005779D01*
X163211902Y-71973468D01*
X163235145Y-71945145D01*
X163263468Y-71921902D01*
X163295779Y-71904631D01*
X163330837Y-71893996D01*
X163373441Y-71889800D01*
X163986159Y-71889800D01*
X164028763Y-71893996D01*
G37*
G36*
X187524335Y-70480264D02*
G01*
X187679024Y-70544339D01*
X187679026Y-70544340D01*
X187818244Y-70637362D01*
X187936638Y-70755756D01*
X188023172Y-70885264D01*
X188029661Y-70894976D01*
X188093736Y-71049665D01*
X188126400Y-71213881D01*
X188126400Y-71381319D01*
X188093736Y-71545535D01*
X188041357Y-71671987D01*
X188029660Y-71700226D01*
X187936638Y-71839444D01*
X187818244Y-71957838D01*
X187679026Y-72050860D01*
X187679025Y-72050861D01*
X187679024Y-72050861D01*
X187524335Y-72114936D01*
X187360119Y-72147600D01*
X187192681Y-72147600D01*
X187028465Y-72114936D01*
X186873776Y-72050861D01*
X186873775Y-72050861D01*
X186873774Y-72050860D01*
X186734556Y-71957838D01*
X186616162Y-71839444D01*
X186523140Y-71700226D01*
X186511443Y-71671987D01*
X186459064Y-71545535D01*
X186426400Y-71381319D01*
X186426400Y-71213881D01*
X186459064Y-71049665D01*
X186523139Y-70894976D01*
X186529628Y-70885264D01*
X186616162Y-70755756D01*
X186734556Y-70637362D01*
X186873774Y-70544340D01*
X186873776Y-70544339D01*
X187028465Y-70480264D01*
X187192681Y-70447600D01*
X187360119Y-70447600D01*
X187524335Y-70480264D01*
G37*
G36*
X184984335Y-70480264D02*
G01*
X185139024Y-70544339D01*
X185139026Y-70544340D01*
X185278244Y-70637362D01*
X185396638Y-70755756D01*
X185483172Y-70885264D01*
X185489661Y-70894976D01*
X185553736Y-71049665D01*
X185586400Y-71213881D01*
X185586400Y-71381319D01*
X185553736Y-71545535D01*
X185501357Y-71671987D01*
X185489660Y-71700226D01*
X185396638Y-71839444D01*
X185278244Y-71957838D01*
X185139026Y-72050860D01*
X185139025Y-72050861D01*
X185139024Y-72050861D01*
X184984335Y-72114936D01*
X184820119Y-72147600D01*
X184652681Y-72147600D01*
X184488465Y-72114936D01*
X184333776Y-72050861D01*
X184333775Y-72050861D01*
X184333774Y-72050860D01*
X184194556Y-71957838D01*
X184076162Y-71839444D01*
X183983140Y-71700226D01*
X183971443Y-71671987D01*
X183919064Y-71545535D01*
X183886400Y-71381319D01*
X183886400Y-71213881D01*
X183919064Y-71049665D01*
X183983139Y-70894976D01*
X183989628Y-70885264D01*
X184076162Y-70755756D01*
X184194556Y-70637362D01*
X184333774Y-70544340D01*
X184333776Y-70544339D01*
X184488465Y-70480264D01*
X184652681Y-70447600D01*
X184820119Y-70447600D01*
X184984335Y-70480264D01*
G37*
G36*
X98952600Y-72026200D02*
G01*
X97952600Y-72026200D01*
X97952600Y-71026200D01*
X98952600Y-71026200D01*
X98952600Y-72026200D01*
G37*
G36*
X92463015Y-70037234D02*
G01*
X92557270Y-70065826D01*
X92644128Y-70112253D01*
X92720264Y-70174736D01*
X92782747Y-70250872D01*
X92829174Y-70337730D01*
X92857766Y-70431985D01*
X92867419Y-70530000D01*
X92857766Y-70628015D01*
X92829174Y-70722270D01*
X92782747Y-70809128D01*
X92720264Y-70885264D01*
X92644128Y-70947747D01*
X92557270Y-70994174D01*
X92463015Y-71022766D01*
X92389564Y-71030000D01*
X91340436Y-71030000D01*
X91266985Y-71022766D01*
X91172730Y-70994174D01*
X91085872Y-70947747D01*
X91009736Y-70885264D01*
X90947253Y-70809128D01*
X90900826Y-70722270D01*
X90872234Y-70628015D01*
X90862581Y-70530000D01*
X90872234Y-70431985D01*
X90900826Y-70337730D01*
X90947253Y-70250872D01*
X91009736Y-70174736D01*
X91085872Y-70112253D01*
X91172730Y-70065826D01*
X91266985Y-70037234D01*
X91340436Y-70030000D01*
X92389564Y-70030000D01*
X92463015Y-70037234D01*
G37*
G36*
X96593015Y-70037234D02*
G01*
X96687270Y-70065826D01*
X96774128Y-70112253D01*
X96850264Y-70174736D01*
X96912747Y-70250872D01*
X96959174Y-70337730D01*
X96987766Y-70431985D01*
X96997419Y-70530000D01*
X96987766Y-70628015D01*
X96959174Y-70722270D01*
X96912747Y-70809128D01*
X96850264Y-70885264D01*
X96774128Y-70947747D01*
X96687270Y-70994174D01*
X96593015Y-71022766D01*
X96519564Y-71030000D01*
X95370436Y-71030000D01*
X95296985Y-71022766D01*
X95202730Y-70994174D01*
X95115872Y-70947747D01*
X95039736Y-70885264D01*
X94977253Y-70809128D01*
X94930826Y-70722270D01*
X94902234Y-70628015D01*
X94892581Y-70530000D01*
X94902234Y-70431985D01*
X94930826Y-70337730D01*
X94977253Y-70250872D01*
X95039736Y-70174736D01*
X95115872Y-70112253D01*
X95202730Y-70065826D01*
X95296985Y-70037234D01*
X95370436Y-70030000D01*
X96519564Y-70030000D01*
X96593015Y-70037234D01*
G37*
G36*
X105050399Y-69787999D02*
G01*
X105050401Y-69788001D01*
X105051005Y-69794137D01*
X105051005Y-70281863D01*
X105049199Y-70300203D01*
X105048597Y-70312453D01*
X105048597Y-70330872D01*
X105047388Y-70343150D01*
X105030663Y-70427232D01*
X105027077Y-70439052D01*
X104994270Y-70518256D01*
X104988455Y-70529136D01*
X104940821Y-70600426D01*
X104932993Y-70609963D01*
X104872363Y-70670593D01*
X104862826Y-70678421D01*
X104791536Y-70726055D01*
X104780656Y-70731870D01*
X104701452Y-70764677D01*
X104689632Y-70768263D01*
X104605550Y-70784988D01*
X104593272Y-70786197D01*
X104574853Y-70786197D01*
X104562603Y-70786799D01*
X104544263Y-70788605D01*
X104056537Y-70788605D01*
X104038197Y-70786799D01*
X104025947Y-70786197D01*
X104007528Y-70786197D01*
X103995250Y-70784988D01*
X103911168Y-70768263D01*
X103899348Y-70764677D01*
X103820144Y-70731870D01*
X103809264Y-70726055D01*
X103737974Y-70678421D01*
X103728437Y-70670593D01*
X103667807Y-70609963D01*
X103659979Y-70600426D01*
X103612345Y-70529136D01*
X103606530Y-70518256D01*
X103573723Y-70439052D01*
X103570137Y-70427232D01*
X103553412Y-70343150D01*
X103552203Y-70330872D01*
X103552203Y-70312453D01*
X103551601Y-70300203D01*
X103549795Y-70281863D01*
X103549795Y-69794137D01*
X103550399Y-69788001D01*
X103550401Y-69787999D01*
X103556537Y-69787395D01*
X105044263Y-69787395D01*
X105050399Y-69787999D01*
G37*
G36*
X185586400Y-69607600D02*
G01*
X183886400Y-69607600D01*
X183886400Y-67907600D01*
X185586400Y-67907600D01*
X185586400Y-69607600D01*
G37*
G36*
X187524335Y-67940264D02*
G01*
X187679024Y-68004339D01*
X187679026Y-68004340D01*
X187818244Y-68097362D01*
X187936638Y-68215756D01*
X188029660Y-68354974D01*
X188029661Y-68354976D01*
X188093736Y-68509665D01*
X188126400Y-68673881D01*
X188126400Y-68841319D01*
X188093736Y-69005535D01*
X188029661Y-69160224D01*
X188029660Y-69160226D01*
X187936638Y-69299444D01*
X187818244Y-69417838D01*
X187679026Y-69510860D01*
X187679025Y-69510861D01*
X187679024Y-69510861D01*
X187524335Y-69574936D01*
X187360119Y-69607600D01*
X187192681Y-69607600D01*
X187028465Y-69574936D01*
X186873776Y-69510861D01*
X186873775Y-69510861D01*
X186873774Y-69510860D01*
X186734556Y-69417838D01*
X186616162Y-69299444D01*
X186523140Y-69160226D01*
X186523139Y-69160224D01*
X186459064Y-69005535D01*
X186426400Y-68841319D01*
X186426400Y-68673881D01*
X186459064Y-68509665D01*
X186523139Y-68354976D01*
X186523140Y-68354974D01*
X186616162Y-68215756D01*
X186734556Y-68097362D01*
X186873774Y-68004340D01*
X186873776Y-68004339D01*
X187028465Y-67940264D01*
X187192681Y-67907600D01*
X187360119Y-67907600D01*
X187524335Y-67940264D01*
G37*
G36*
X104562603Y-68489201D02*
G01*
X104574853Y-68489803D01*
X104593272Y-68489803D01*
X104605550Y-68491012D01*
X104689632Y-68507737D01*
X104701452Y-68511323D01*
X104780656Y-68544130D01*
X104791536Y-68549945D01*
X104862826Y-68597579D01*
X104872363Y-68605407D01*
X104932993Y-68666037D01*
X104940821Y-68675574D01*
X104988455Y-68746864D01*
X104994270Y-68757744D01*
X105027077Y-68836948D01*
X105030663Y-68848768D01*
X105047388Y-68932850D01*
X105048597Y-68945128D01*
X105048597Y-68963547D01*
X105049199Y-68975797D01*
X105051005Y-68994137D01*
X105051005Y-69481863D01*
X105050401Y-69487999D01*
X105050399Y-69488001D01*
X105044263Y-69488605D01*
X103556537Y-69488605D01*
X103550401Y-69488001D01*
X103550399Y-69487999D01*
X103549795Y-69481863D01*
X103549795Y-68994137D01*
X103551601Y-68975797D01*
X103552203Y-68963547D01*
X103552203Y-68945128D01*
X103553412Y-68932850D01*
X103570137Y-68848768D01*
X103573723Y-68836948D01*
X103606530Y-68757744D01*
X103612345Y-68746864D01*
X103659979Y-68675574D01*
X103667807Y-68666037D01*
X103728437Y-68605407D01*
X103737974Y-68597579D01*
X103809264Y-68549945D01*
X103820144Y-68544130D01*
X103899348Y-68511323D01*
X103911168Y-68507737D01*
X103995250Y-68491012D01*
X104007528Y-68489803D01*
X104025947Y-68489803D01*
X104038197Y-68489201D01*
X104056537Y-68487395D01*
X104544263Y-68487395D01*
X104562603Y-68489201D01*
G37*
G36*
X181636253Y-60033801D02*
G01*
X181906730Y-60087602D01*
X182117799Y-60175030D01*
X182416296Y-60298671D01*
X182416297Y-60298672D01*
X182874896Y-60605098D01*
X183264902Y-60995104D01*
X183469650Y-61301531D01*
X183571329Y-61453704D01*
X183694970Y-61752201D01*
X183782398Y-61963270D01*
X183807559Y-62089762D01*
X183890000Y-62504223D01*
X183890000Y-63055777D01*
X183843044Y-63291843D01*
X183782398Y-63596730D01*
X183694970Y-63807799D01*
X183571329Y-64106296D01*
X183571328Y-64106297D01*
X183264902Y-64564896D01*
X182874896Y-64954902D01*
X182568469Y-65159650D01*
X182416296Y-65261329D01*
X182117799Y-65384970D01*
X181906730Y-65472398D01*
X181636253Y-65526199D01*
X181365777Y-65580000D01*
X180814223Y-65580000D01*
X180543747Y-65526199D01*
X180273270Y-65472398D01*
X180062201Y-65384970D01*
X179763704Y-65261329D01*
X179611531Y-65159650D01*
X179305104Y-64954902D01*
X178915098Y-64564896D01*
X178608672Y-64106297D01*
X178608671Y-64106296D01*
X178485030Y-63807799D01*
X178397602Y-63596730D01*
X178336956Y-63291843D01*
X178290000Y-63055777D01*
X178290000Y-62504223D01*
X178372441Y-62089762D01*
X178397602Y-61963270D01*
X178485030Y-61752201D01*
X178608671Y-61453704D01*
X178710350Y-61301531D01*
X178915098Y-60995104D01*
X179305104Y-60605098D01*
X179763703Y-60298672D01*
X179763704Y-60298671D01*
X180062201Y-60175030D01*
X180273270Y-60087602D01*
X180543747Y-60033801D01*
X180814223Y-59980000D01*
X181365777Y-59980000D01*
X181636253Y-60033801D01*
G37*
G36*
X106476050Y-59980000D02*
G01*
X106966730Y-60077602D01*
X107177799Y-60165030D01*
X107476296Y-60288671D01*
X107628469Y-60390350D01*
X107934896Y-60595098D01*
X108324902Y-60985104D01*
X108331584Y-60995105D01*
X108631329Y-61443704D01*
X108635471Y-61453704D01*
X108842398Y-61953270D01*
X108950000Y-62494224D01*
X108950000Y-63045776D01*
X108842398Y-63586730D01*
X108836901Y-63600000D01*
X108631329Y-64096296D01*
X108529650Y-64248469D01*
X108324902Y-64554896D01*
X107934896Y-64944902D01*
X107628469Y-65149650D01*
X107476296Y-65251329D01*
X107177799Y-65374970D01*
X106966730Y-65462398D01*
X106916456Y-65472398D01*
X106425777Y-65570000D01*
X105874223Y-65570000D01*
X105383544Y-65472398D01*
X105333270Y-65462398D01*
X105122201Y-65374970D01*
X104823704Y-65251329D01*
X104671531Y-65149650D01*
X104365104Y-64944902D01*
X103975098Y-64554896D01*
X103770350Y-64248469D01*
X103668671Y-64096296D01*
X103463099Y-63600000D01*
X103457602Y-63586730D01*
X103350000Y-63045776D01*
X103350000Y-62494224D01*
X103457602Y-61953270D01*
X103664529Y-61453704D01*
X103668671Y-61443704D01*
X103968416Y-60995105D01*
X103975098Y-60985104D01*
X104365104Y-60595098D01*
X104671531Y-60390350D01*
X104823704Y-60288671D01*
X105122201Y-60165030D01*
X105333270Y-60077602D01*
X105823950Y-59980000D01*
X105874223Y-59970000D01*
X106425777Y-59970000D01*
X106476050Y-59980000D01*
G37*
G36*
X166717935Y-61932664D02*
G01*
X166872624Y-61996739D01*
X166872626Y-61996740D01*
X167011844Y-62089762D01*
X167130238Y-62208156D01*
X167223260Y-62347374D01*
X167223261Y-62347376D01*
X167287336Y-62502065D01*
X167320000Y-62666281D01*
X167320000Y-62833719D01*
X167287336Y-62997935D01*
X167223261Y-63152624D01*
X167223260Y-63152626D01*
X167130238Y-63291844D01*
X167011844Y-63410238D01*
X166872626Y-63503260D01*
X166872625Y-63503261D01*
X166872624Y-63503261D01*
X166717935Y-63567336D01*
X166553719Y-63600000D01*
X166386281Y-63600000D01*
X166222065Y-63567336D01*
X166067376Y-63503261D01*
X166067375Y-63503261D01*
X166067374Y-63503260D01*
X165928156Y-63410238D01*
X165809762Y-63291844D01*
X165716740Y-63152626D01*
X165716739Y-63152624D01*
X165652664Y-62997935D01*
X165620000Y-62833719D01*
X165620000Y-62666281D01*
X165652664Y-62502065D01*
X165716739Y-62347376D01*
X165716740Y-62347374D01*
X165809762Y-62208156D01*
X165928156Y-62089762D01*
X166067374Y-61996740D01*
X166067376Y-61996739D01*
X166222065Y-61932664D01*
X166386281Y-61900000D01*
X166553719Y-61900000D01*
X166717935Y-61932664D01*
G37*
G36*
X169257935Y-61932664D02*
G01*
X169412624Y-61996739D01*
X169412626Y-61996740D01*
X169551844Y-62089762D01*
X169670238Y-62208156D01*
X169763260Y-62347374D01*
X169763261Y-62347376D01*
X169827336Y-62502065D01*
X169860000Y-62666281D01*
X169860000Y-62833719D01*
X169827336Y-62997935D01*
X169763261Y-63152624D01*
X169763260Y-63152626D01*
X169670238Y-63291844D01*
X169551844Y-63410238D01*
X169412626Y-63503260D01*
X169412625Y-63503261D01*
X169412624Y-63503261D01*
X169257935Y-63567336D01*
X169093719Y-63600000D01*
X168926281Y-63600000D01*
X168762065Y-63567336D01*
X168607376Y-63503261D01*
X168607375Y-63503261D01*
X168607374Y-63503260D01*
X168468156Y-63410238D01*
X168349762Y-63291844D01*
X168256740Y-63152626D01*
X168256739Y-63152624D01*
X168192664Y-62997935D01*
X168160000Y-62833719D01*
X168160000Y-62666281D01*
X168192664Y-62502065D01*
X168256739Y-62347376D01*
X168256740Y-62347374D01*
X168349762Y-62208156D01*
X168468156Y-62089762D01*
X168607374Y-61996740D01*
X168607376Y-61996739D01*
X168762065Y-61932664D01*
X168926281Y-61900000D01*
X169093719Y-61900000D01*
X169257935Y-61932664D01*
G37*
G36*
X174940000Y-63600000D02*
G01*
X173240000Y-63600000D01*
X173240000Y-61900000D01*
X174940000Y-61900000D01*
X174940000Y-63600000D01*
G37*
G36*
X151717935Y-61932664D02*
G01*
X151872624Y-61996739D01*
X151872626Y-61996740D01*
X152011844Y-62089762D01*
X152130238Y-62208156D01*
X152223260Y-62347374D01*
X152223261Y-62347376D01*
X152287336Y-62502065D01*
X152320000Y-62666281D01*
X152320000Y-62833719D01*
X152287336Y-62997935D01*
X152223261Y-63152624D01*
X152223260Y-63152626D01*
X152130238Y-63291844D01*
X152011844Y-63410238D01*
X151872626Y-63503260D01*
X151872625Y-63503261D01*
X151872624Y-63503261D01*
X151717935Y-63567336D01*
X151553719Y-63600000D01*
X151386281Y-63600000D01*
X151222065Y-63567336D01*
X151067376Y-63503261D01*
X151067375Y-63503261D01*
X151067374Y-63503260D01*
X150928156Y-63410238D01*
X150809762Y-63291844D01*
X150716740Y-63152626D01*
X150716739Y-63152624D01*
X150652664Y-62997935D01*
X150620000Y-62833719D01*
X150620000Y-62666281D01*
X150652664Y-62502065D01*
X150716739Y-62347376D01*
X150716740Y-62347374D01*
X150809762Y-62208156D01*
X150928156Y-62089762D01*
X151067374Y-61996740D01*
X151067376Y-61996739D01*
X151222065Y-61932664D01*
X151386281Y-61900000D01*
X151553719Y-61900000D01*
X151717935Y-61932664D01*
G37*
G36*
X149177935Y-61932664D02*
G01*
X149332624Y-61996739D01*
X149332626Y-61996740D01*
X149471844Y-62089762D01*
X149590238Y-62208156D01*
X149683260Y-62347374D01*
X149683261Y-62347376D01*
X149747336Y-62502065D01*
X149780000Y-62666281D01*
X149780000Y-62833719D01*
X149747336Y-62997935D01*
X149683261Y-63152624D01*
X149683260Y-63152626D01*
X149590238Y-63291844D01*
X149471844Y-63410238D01*
X149332626Y-63503260D01*
X149332625Y-63503261D01*
X149332624Y-63503261D01*
X149177935Y-63567336D01*
X149013719Y-63600000D01*
X148846281Y-63600000D01*
X148682065Y-63567336D01*
X148527376Y-63503261D01*
X148527375Y-63503261D01*
X148527374Y-63503260D01*
X148388156Y-63410238D01*
X148269762Y-63291844D01*
X148176740Y-63152626D01*
X148176739Y-63152624D01*
X148112664Y-62997935D01*
X148080000Y-62833719D01*
X148080000Y-62666281D01*
X148112664Y-62502065D01*
X148176739Y-62347376D01*
X148176740Y-62347374D01*
X148269762Y-62208156D01*
X148388156Y-62089762D01*
X148527374Y-61996740D01*
X148527376Y-61996739D01*
X148682065Y-61932664D01*
X148846281Y-61900000D01*
X149013719Y-61900000D01*
X149177935Y-61932664D01*
G37*
G36*
X146637935Y-61932664D02*
G01*
X146792624Y-61996739D01*
X146792626Y-61996740D01*
X146931844Y-62089762D01*
X147050238Y-62208156D01*
X147143260Y-62347374D01*
X147143261Y-62347376D01*
X147207336Y-62502065D01*
X147240000Y-62666281D01*
X147240000Y-62833719D01*
X147207336Y-62997935D01*
X147143261Y-63152624D01*
X147143260Y-63152626D01*
X147050238Y-63291844D01*
X146931844Y-63410238D01*
X146792626Y-63503260D01*
X146792625Y-63503261D01*
X146792624Y-63503261D01*
X146637935Y-63567336D01*
X146473719Y-63600000D01*
X146306281Y-63600000D01*
X146142065Y-63567336D01*
X145987376Y-63503261D01*
X145987375Y-63503261D01*
X145987374Y-63503260D01*
X145848156Y-63410238D01*
X145729762Y-63291844D01*
X145636740Y-63152626D01*
X145636739Y-63152624D01*
X145572664Y-62997935D01*
X145540000Y-62833719D01*
X145540000Y-62666281D01*
X145572664Y-62502065D01*
X145636739Y-62347376D01*
X145636740Y-62347374D01*
X145729762Y-62208156D01*
X145848156Y-62089762D01*
X145987374Y-61996740D01*
X145987376Y-61996739D01*
X146142065Y-61932664D01*
X146306281Y-61900000D01*
X146473719Y-61900000D01*
X146637935Y-61932664D01*
G37*
G36*
X144700000Y-63600000D02*
G01*
X143000000Y-63600000D01*
X143000000Y-61900000D01*
X144700000Y-61900000D01*
X144700000Y-63600000D01*
G37*
G36*
X156557935Y-61932664D02*
G01*
X156712624Y-61996739D01*
X156712626Y-61996740D01*
X156851844Y-62089762D01*
X156970238Y-62208156D01*
X157063260Y-62347374D01*
X157063261Y-62347376D01*
X157127336Y-62502065D01*
X157160000Y-62666281D01*
X157160000Y-62833719D01*
X157127336Y-62997935D01*
X157063261Y-63152624D01*
X157063260Y-63152626D01*
X156970238Y-63291844D01*
X156851844Y-63410238D01*
X156712626Y-63503260D01*
X156712625Y-63503261D01*
X156712624Y-63503261D01*
X156557935Y-63567336D01*
X156393719Y-63600000D01*
X156226281Y-63600000D01*
X156062065Y-63567336D01*
X155907376Y-63503261D01*
X155907375Y-63503261D01*
X155907374Y-63503260D01*
X155768156Y-63410238D01*
X155649762Y-63291844D01*
X155556740Y-63152626D01*
X155556739Y-63152624D01*
X155492664Y-62997935D01*
X155460000Y-62833719D01*
X155460000Y-62666281D01*
X155492664Y-62502065D01*
X155556739Y-62347376D01*
X155556740Y-62347374D01*
X155649762Y-62208156D01*
X155768156Y-62089762D01*
X155907374Y-61996740D01*
X155907376Y-61996739D01*
X156062065Y-61932664D01*
X156226281Y-61900000D01*
X156393719Y-61900000D01*
X156557935Y-61932664D01*
G37*
G36*
X159097935Y-61932664D02*
G01*
X159252624Y-61996739D01*
X159252626Y-61996740D01*
X159391844Y-62089762D01*
X159510238Y-62208156D01*
X159603260Y-62347374D01*
X159603261Y-62347376D01*
X159667336Y-62502065D01*
X159700000Y-62666281D01*
X159700000Y-62833719D01*
X159667336Y-62997935D01*
X159603261Y-63152624D01*
X159603260Y-63152626D01*
X159510238Y-63291844D01*
X159391844Y-63410238D01*
X159252626Y-63503260D01*
X159252625Y-63503261D01*
X159252624Y-63503261D01*
X159097935Y-63567336D01*
X158933719Y-63600000D01*
X158766281Y-63600000D01*
X158602065Y-63567336D01*
X158447376Y-63503261D01*
X158447375Y-63503261D01*
X158447374Y-63503260D01*
X158308156Y-63410238D01*
X158189762Y-63291844D01*
X158096740Y-63152626D01*
X158096739Y-63152624D01*
X158032664Y-62997935D01*
X158000000Y-62833719D01*
X158000000Y-62666281D01*
X158032664Y-62502065D01*
X158096739Y-62347376D01*
X158096740Y-62347374D01*
X158189762Y-62208156D01*
X158308156Y-62089762D01*
X158447374Y-61996740D01*
X158447376Y-61996739D01*
X158602065Y-61932664D01*
X158766281Y-61900000D01*
X158933719Y-61900000D01*
X159097935Y-61932664D01*
G37*
G36*
X161637935Y-61932664D02*
G01*
X161792624Y-61996739D01*
X161792626Y-61996740D01*
X161931844Y-62089762D01*
X162050238Y-62208156D01*
X162143260Y-62347374D01*
X162143261Y-62347376D01*
X162207336Y-62502065D01*
X162240000Y-62666281D01*
X162240000Y-62833719D01*
X162207336Y-62997935D01*
X162143261Y-63152624D01*
X162143260Y-63152626D01*
X162050238Y-63291844D01*
X161931844Y-63410238D01*
X161792626Y-63503260D01*
X161792625Y-63503261D01*
X161792624Y-63503261D01*
X161637935Y-63567336D01*
X161473719Y-63600000D01*
X161306281Y-63600000D01*
X161142065Y-63567336D01*
X160987376Y-63503261D01*
X160987375Y-63503261D01*
X160987374Y-63503260D01*
X160848156Y-63410238D01*
X160729762Y-63291844D01*
X160636740Y-63152626D01*
X160636739Y-63152624D01*
X160572664Y-62997935D01*
X160540000Y-62833719D01*
X160540000Y-62666281D01*
X160572664Y-62502065D01*
X160636739Y-62347376D01*
X160636740Y-62347374D01*
X160729762Y-62208156D01*
X160848156Y-62089762D01*
X160987374Y-61996740D01*
X160987376Y-61996739D01*
X161142065Y-61932664D01*
X161306281Y-61900000D01*
X161473719Y-61900000D01*
X161637935Y-61932664D01*
G37*
G36*
X164177935Y-61932664D02*
G01*
X164332624Y-61996739D01*
X164332626Y-61996740D01*
X164471844Y-62089762D01*
X164590238Y-62208156D01*
X164683260Y-62347374D01*
X164683261Y-62347376D01*
X164747336Y-62502065D01*
X164780000Y-62666281D01*
X164780000Y-62833719D01*
X164747336Y-62997935D01*
X164683261Y-63152624D01*
X164683260Y-63152626D01*
X164590238Y-63291844D01*
X164471844Y-63410238D01*
X164332626Y-63503260D01*
X164332625Y-63503261D01*
X164332624Y-63503261D01*
X164177935Y-63567336D01*
X164013719Y-63600000D01*
X163846281Y-63600000D01*
X163682065Y-63567336D01*
X163527376Y-63503261D01*
X163527375Y-63503261D01*
X163527374Y-63503260D01*
X163388156Y-63410238D01*
X163269762Y-63291844D01*
X163176740Y-63152626D01*
X163176739Y-63152624D01*
X163112664Y-62997935D01*
X163080000Y-62833719D01*
X163080000Y-62666281D01*
X163112664Y-62502065D01*
X163176739Y-62347376D01*
X163176740Y-62347374D01*
X163269762Y-62208156D01*
X163388156Y-62089762D01*
X163527374Y-61996740D01*
X163527376Y-61996739D01*
X163682065Y-61932664D01*
X163846281Y-61900000D01*
X164013719Y-61900000D01*
X164177935Y-61932664D01*
G37*
G36*
X114177935Y-61932664D02*
G01*
X114332624Y-61996739D01*
X114332626Y-61996740D01*
X114471844Y-62089762D01*
X114590238Y-62208156D01*
X114683260Y-62347374D01*
X114683261Y-62347376D01*
X114747336Y-62502065D01*
X114780000Y-62666281D01*
X114780000Y-62833719D01*
X114747336Y-62997935D01*
X114683261Y-63152624D01*
X114683260Y-63152626D01*
X114590238Y-63291844D01*
X114471844Y-63410238D01*
X114332626Y-63503260D01*
X114332625Y-63503261D01*
X114332624Y-63503261D01*
X114177935Y-63567336D01*
X114013719Y-63600000D01*
X113846281Y-63600000D01*
X113682065Y-63567336D01*
X113527376Y-63503261D01*
X113527375Y-63503261D01*
X113527374Y-63503260D01*
X113388156Y-63410238D01*
X113269762Y-63291844D01*
X113176740Y-63152626D01*
X113176739Y-63152624D01*
X113112664Y-62997935D01*
X113080000Y-62833719D01*
X113080000Y-62666281D01*
X113112664Y-62502065D01*
X113176739Y-62347376D01*
X113176740Y-62347374D01*
X113269762Y-62208156D01*
X113388156Y-62089762D01*
X113527374Y-61996740D01*
X113527376Y-61996739D01*
X113682065Y-61932664D01*
X113846281Y-61900000D01*
X114013719Y-61900000D01*
X114177935Y-61932664D01*
G37*
G36*
X116717935Y-61932664D02*
G01*
X116872624Y-61996739D01*
X116872626Y-61996740D01*
X117011844Y-62089762D01*
X117130238Y-62208156D01*
X117223260Y-62347374D01*
X117223261Y-62347376D01*
X117287336Y-62502065D01*
X117320000Y-62666281D01*
X117320000Y-62833719D01*
X117287336Y-62997935D01*
X117223261Y-63152624D01*
X117223260Y-63152626D01*
X117130238Y-63291844D01*
X117011844Y-63410238D01*
X116872626Y-63503260D01*
X116872625Y-63503261D01*
X116872624Y-63503261D01*
X116717935Y-63567336D01*
X116553719Y-63600000D01*
X116386281Y-63600000D01*
X116222065Y-63567336D01*
X116067376Y-63503261D01*
X116067375Y-63503261D01*
X116067374Y-63503260D01*
X115928156Y-63410238D01*
X115809762Y-63291844D01*
X115716740Y-63152626D01*
X115716739Y-63152624D01*
X115652664Y-62997935D01*
X115620000Y-62833719D01*
X115620000Y-62666281D01*
X115652664Y-62502065D01*
X115716739Y-62347376D01*
X115716740Y-62347374D01*
X115809762Y-62208156D01*
X115928156Y-62089762D01*
X116067374Y-61996740D01*
X116067376Y-61996739D01*
X116222065Y-61932664D01*
X116386281Y-61900000D01*
X116553719Y-61900000D01*
X116717935Y-61932664D01*
G37*
G36*
X119257935Y-61932664D02*
G01*
X119412624Y-61996739D01*
X119412626Y-61996740D01*
X119551844Y-62089762D01*
X119670238Y-62208156D01*
X119763260Y-62347374D01*
X119763261Y-62347376D01*
X119827336Y-62502065D01*
X119860000Y-62666281D01*
X119860000Y-62833719D01*
X119827336Y-62997935D01*
X119763261Y-63152624D01*
X119763260Y-63152626D01*
X119670238Y-63291844D01*
X119551844Y-63410238D01*
X119412626Y-63503260D01*
X119412625Y-63503261D01*
X119412624Y-63503261D01*
X119257935Y-63567336D01*
X119093719Y-63600000D01*
X118926281Y-63600000D01*
X118762065Y-63567336D01*
X118607376Y-63503261D01*
X118607375Y-63503261D01*
X118607374Y-63503260D01*
X118468156Y-63410238D01*
X118349762Y-63291844D01*
X118256740Y-63152626D01*
X118256739Y-63152624D01*
X118192664Y-62997935D01*
X118160000Y-62833719D01*
X118160000Y-62666281D01*
X118192664Y-62502065D01*
X118256739Y-62347376D01*
X118256740Y-62347374D01*
X118349762Y-62208156D01*
X118468156Y-62089762D01*
X118607374Y-61996740D01*
X118607376Y-61996739D01*
X118762065Y-61932664D01*
X118926281Y-61900000D01*
X119093719Y-61900000D01*
X119257935Y-61932664D01*
G37*
G36*
X121797935Y-61932664D02*
G01*
X121952624Y-61996739D01*
X121952626Y-61996740D01*
X122091844Y-62089762D01*
X122210238Y-62208156D01*
X122303260Y-62347374D01*
X122303261Y-62347376D01*
X122367336Y-62502065D01*
X122400000Y-62666281D01*
X122400000Y-62833719D01*
X122367336Y-62997935D01*
X122303261Y-63152624D01*
X122303260Y-63152626D01*
X122210238Y-63291844D01*
X122091844Y-63410238D01*
X121952626Y-63503260D01*
X121952625Y-63503261D01*
X121952624Y-63503261D01*
X121797935Y-63567336D01*
X121633719Y-63600000D01*
X121466281Y-63600000D01*
X121302065Y-63567336D01*
X121147376Y-63503261D01*
X121147375Y-63503261D01*
X121147374Y-63503260D01*
X121008156Y-63410238D01*
X120889762Y-63291844D01*
X120796740Y-63152626D01*
X120796739Y-63152624D01*
X120732664Y-62997935D01*
X120700000Y-62833719D01*
X120700000Y-62666281D01*
X120732664Y-62502065D01*
X120796739Y-62347376D01*
X120796740Y-62347374D01*
X120889762Y-62208156D01*
X121008156Y-62089762D01*
X121147374Y-61996740D01*
X121147376Y-61996739D01*
X121302065Y-61932664D01*
X121466281Y-61900000D01*
X121633719Y-61900000D01*
X121797935Y-61932664D01*
G37*
G36*
X124337935Y-61932664D02*
G01*
X124492624Y-61996739D01*
X124492626Y-61996740D01*
X124631844Y-62089762D01*
X124750238Y-62208156D01*
X124843260Y-62347374D01*
X124843261Y-62347376D01*
X124907336Y-62502065D01*
X124940000Y-62666281D01*
X124940000Y-62833719D01*
X124907336Y-62997935D01*
X124843261Y-63152624D01*
X124843260Y-63152626D01*
X124750238Y-63291844D01*
X124631844Y-63410238D01*
X124492626Y-63503260D01*
X124492625Y-63503261D01*
X124492624Y-63503261D01*
X124337935Y-63567336D01*
X124173719Y-63600000D01*
X124006281Y-63600000D01*
X123842065Y-63567336D01*
X123687376Y-63503261D01*
X123687375Y-63503261D01*
X123687374Y-63503260D01*
X123548156Y-63410238D01*
X123429762Y-63291844D01*
X123336740Y-63152626D01*
X123336739Y-63152624D01*
X123272664Y-62997935D01*
X123240000Y-62833719D01*
X123240000Y-62666281D01*
X123272664Y-62502065D01*
X123336739Y-62347376D01*
X123336740Y-62347374D01*
X123429762Y-62208156D01*
X123548156Y-62089762D01*
X123687374Y-61996740D01*
X123687376Y-61996739D01*
X123842065Y-61932664D01*
X124006281Y-61900000D01*
X124173719Y-61900000D01*
X124337935Y-61932664D01*
G37*
G36*
X127480000Y-63600000D02*
G01*
X125780000Y-63600000D01*
X125780000Y-61900000D01*
X127480000Y-61900000D01*
X127480000Y-63600000D01*
G37*
G36*
X139297935Y-61932664D02*
G01*
X139452624Y-61996739D01*
X139452626Y-61996740D01*
X139591844Y-62089762D01*
X139710238Y-62208156D01*
X139803260Y-62347374D01*
X139803261Y-62347376D01*
X139867336Y-62502065D01*
X139900000Y-62666281D01*
X139900000Y-62833719D01*
X139867336Y-62997935D01*
X139803261Y-63152624D01*
X139803260Y-63152626D01*
X139710238Y-63291844D01*
X139591844Y-63410238D01*
X139452626Y-63503260D01*
X139452625Y-63503261D01*
X139452624Y-63503261D01*
X139297935Y-63567336D01*
X139133719Y-63600000D01*
X138966281Y-63600000D01*
X138802065Y-63567336D01*
X138647376Y-63503261D01*
X138647375Y-63503261D01*
X138647374Y-63503260D01*
X138508156Y-63410238D01*
X138389762Y-63291844D01*
X138296740Y-63152626D01*
X138296739Y-63152624D01*
X138232664Y-62997935D01*
X138200000Y-62833719D01*
X138200000Y-62666281D01*
X138232664Y-62502065D01*
X138296739Y-62347376D01*
X138296740Y-62347374D01*
X138389762Y-62208156D01*
X138508156Y-62089762D01*
X138647374Y-61996740D01*
X138647376Y-61996739D01*
X138802065Y-61932664D01*
X138966281Y-61900000D01*
X139133719Y-61900000D01*
X139297935Y-61932664D01*
G37*
G36*
X136757935Y-61932664D02*
G01*
X136912624Y-61996739D01*
X136912626Y-61996740D01*
X137051844Y-62089762D01*
X137170238Y-62208156D01*
X137263260Y-62347374D01*
X137263261Y-62347376D01*
X137327336Y-62502065D01*
X137360000Y-62666281D01*
X137360000Y-62833719D01*
X137327336Y-62997935D01*
X137263261Y-63152624D01*
X137263260Y-63152626D01*
X137170238Y-63291844D01*
X137051844Y-63410238D01*
X136912626Y-63503260D01*
X136912625Y-63503261D01*
X136912624Y-63503261D01*
X136757935Y-63567336D01*
X136593719Y-63600000D01*
X136426281Y-63600000D01*
X136262065Y-63567336D01*
X136107376Y-63503261D01*
X136107375Y-63503261D01*
X136107374Y-63503260D01*
X135968156Y-63410238D01*
X135849762Y-63291844D01*
X135756740Y-63152626D01*
X135756739Y-63152624D01*
X135692664Y-62997935D01*
X135660000Y-62833719D01*
X135660000Y-62666281D01*
X135692664Y-62502065D01*
X135756739Y-62347376D01*
X135756740Y-62347374D01*
X135849762Y-62208156D01*
X135968156Y-62089762D01*
X136107374Y-61996740D01*
X136107376Y-61996739D01*
X136262065Y-61932664D01*
X136426281Y-61900000D01*
X136593719Y-61900000D01*
X136757935Y-61932664D01*
G37*
G36*
X134217935Y-61932664D02*
G01*
X134372624Y-61996739D01*
X134372626Y-61996740D01*
X134511844Y-62089762D01*
X134630238Y-62208156D01*
X134723260Y-62347374D01*
X134723261Y-62347376D01*
X134787336Y-62502065D01*
X134820000Y-62666281D01*
X134820000Y-62833719D01*
X134787336Y-62997935D01*
X134723261Y-63152624D01*
X134723260Y-63152626D01*
X134630238Y-63291844D01*
X134511844Y-63410238D01*
X134372626Y-63503260D01*
X134372625Y-63503261D01*
X134372624Y-63503261D01*
X134217935Y-63567336D01*
X134053719Y-63600000D01*
X133886281Y-63600000D01*
X133722065Y-63567336D01*
X133567376Y-63503261D01*
X133567375Y-63503261D01*
X133567374Y-63503260D01*
X133428156Y-63410238D01*
X133309762Y-63291844D01*
X133216740Y-63152626D01*
X133216739Y-63152624D01*
X133152664Y-62997935D01*
X133120000Y-62833719D01*
X133120000Y-62666281D01*
X133152664Y-62502065D01*
X133216739Y-62347376D01*
X133216740Y-62347374D01*
X133309762Y-62208156D01*
X133428156Y-62089762D01*
X133567374Y-61996740D01*
X133567376Y-61996739D01*
X133722065Y-61932664D01*
X133886281Y-61900000D01*
X134053719Y-61900000D01*
X134217935Y-61932664D01*
G37*
G36*
X132280000Y-63600000D02*
G01*
X130580000Y-63600000D01*
X130580000Y-61900000D01*
X132280000Y-61900000D01*
X132280000Y-63600000D01*
G37*
G36*
X171797935Y-61932664D02*
G01*
X171952624Y-61996739D01*
X171952626Y-61996740D01*
X172091844Y-62089762D01*
X172210238Y-62208156D01*
X172303260Y-62347374D01*
X172303261Y-62347376D01*
X172367336Y-62502065D01*
X172400000Y-62666281D01*
X172400000Y-62833719D01*
X172367336Y-62997935D01*
X172303261Y-63152624D01*
X172303260Y-63152626D01*
X172210238Y-63291844D01*
X172091844Y-63410238D01*
X171952626Y-63503260D01*
X171952625Y-63503261D01*
X171952624Y-63503261D01*
X171797935Y-63567336D01*
X171633719Y-63600000D01*
X171466281Y-63600000D01*
X171302065Y-63567336D01*
X171147376Y-63503261D01*
X171147375Y-63503261D01*
X171147374Y-63503260D01*
X171008156Y-63410238D01*
X170889762Y-63291844D01*
X170796740Y-63152626D01*
X170796739Y-63152624D01*
X170732664Y-62997935D01*
X170700000Y-62833719D01*
X170700000Y-62666281D01*
X170732664Y-62502065D01*
X170796739Y-62347376D01*
X170796740Y-62347374D01*
X170889762Y-62208156D01*
X171008156Y-62089762D01*
X171147374Y-61996740D01*
X171147376Y-61996739D01*
X171302065Y-61932664D01*
X171466281Y-61900000D01*
X171633719Y-61900000D01*
X171797935Y-61932664D01*
G37*
M02*
