%FSLAX45Y45*%
G04 Gerber Fmt 4.5, Leading zero omitted, Abs format (unit mm)*
G04 Created by KiCad (PCBNEW 5.1.6-c6e7f7d~87~ubuntu18.04.1) date 2020-09-05 12:58:42*
%MOMM*%
%LPD*%
G01*
G04 APERTURE LIST*
%TA.AperFunction,Profile*%
%ADD10C,0.100000*%
%TD*%
%ADD11C,0.200000*%
%ADD12C,0.300000*%
G04 APERTURE END LIST*
D10*
X9094000Y-11358000D02*
X9094000Y-6027000D01*
X18997000Y-11358000D02*
X9094000Y-11358000D01*
X18997000Y-6179000D02*
X18997000Y-11358000D01*
X18845000Y-6027000D02*
X18997000Y-6179000D01*
X9094000Y-6027000D02*
X18845000Y-6027000D01*
D11*
X9207720Y-8120353D02*
X9248360Y-8160993D01*
X9248360Y-8120353D02*
X9207720Y-8160993D01*
X9214979Y-8487180D02*
X9255619Y-8527820D01*
X9255619Y-8487180D02*
X9214979Y-8527820D01*
X9593681Y-6790431D02*
X9634321Y-6831071D01*
X9634321Y-6790431D02*
X9593681Y-6831071D01*
X9710641Y-9116037D02*
X9751281Y-9156677D01*
X9751281Y-9116037D02*
X9710641Y-9156677D01*
X9714680Y-6257400D02*
X9755320Y-6298040D01*
X9755320Y-6257400D02*
X9714680Y-6298040D01*
X9714680Y-6351400D02*
X9755320Y-6392040D01*
X9755320Y-6351400D02*
X9714680Y-6392040D01*
X9786840Y-8051780D02*
X9827480Y-8092420D01*
X9827480Y-8051780D02*
X9786840Y-8092420D01*
X9822399Y-7799680D02*
X9863039Y-7840320D01*
X9863039Y-7799680D02*
X9822399Y-7840320D01*
X9822400Y-7134840D02*
X9863040Y-7175480D01*
X9863040Y-7134840D02*
X9822400Y-7175480D01*
X9823920Y-7354680D02*
X9864560Y-7395320D01*
X9864560Y-7354680D02*
X9823920Y-7395320D01*
X9823921Y-7574680D02*
X9864561Y-7615320D01*
X9864561Y-7574680D02*
X9823921Y-7615320D01*
X9883680Y-6583682D02*
X9924320Y-6624322D01*
X9924320Y-6583682D02*
X9883680Y-6624322D01*
X10091640Y-7239680D02*
X10132280Y-7280320D01*
X10132280Y-7239680D02*
X10091640Y-7280320D01*
X10255180Y-8487178D02*
X10295820Y-8527818D01*
X10295820Y-8487178D02*
X10255180Y-8527818D01*
X10255680Y-6471680D02*
X10296320Y-6512320D01*
X10296320Y-6471680D02*
X10255680Y-6512320D01*
X10442160Y-7807940D02*
X10482800Y-7848580D01*
X10482800Y-7807940D02*
X10442160Y-7848580D01*
X10487880Y-8614505D02*
X10528520Y-8655145D01*
X10528520Y-8614505D02*
X10487880Y-8655145D01*
X10488680Y-8897180D02*
X10529320Y-8937820D01*
X10529320Y-8897180D02*
X10488680Y-8937820D01*
X10488680Y-9116680D02*
X10529320Y-9157320D01*
X10529320Y-9116680D02*
X10488680Y-9157320D01*
X10488680Y-9226680D02*
X10529320Y-9267320D01*
X10529320Y-9226680D02*
X10488680Y-9267320D01*
X10488680Y-9337680D02*
X10529320Y-9378320D01*
X10529320Y-9337680D02*
X10488680Y-9378320D01*
X10569163Y-7464680D02*
X10609803Y-7505320D01*
X10609803Y-7464680D02*
X10569163Y-7505320D01*
X10574240Y-10096480D02*
X10614880Y-10137120D01*
X10614880Y-10096480D02*
X10574240Y-10137120D01*
X10592020Y-7807940D02*
X10632660Y-7848580D01*
X10632660Y-7807940D02*
X10592020Y-7848580D01*
X10645681Y-7022430D02*
X10686321Y-7063070D01*
X10686321Y-7022430D02*
X10645681Y-7063070D01*
X10875680Y-6550680D02*
X10916320Y-6591320D01*
X10916320Y-6550680D02*
X10875680Y-6591320D01*
X10879040Y-7134840D02*
X10919680Y-7175480D01*
X10919680Y-7134840D02*
X10879040Y-7175480D01*
X10929681Y-11155431D02*
X10970321Y-11196071D01*
X10970321Y-11155431D02*
X10929681Y-11196071D01*
X10960320Y-7353280D02*
X11000960Y-7393920D01*
X11000960Y-7353280D02*
X10960320Y-7393920D01*
X10960320Y-7578038D02*
X11000960Y-7618678D01*
X11000960Y-7578038D02*
X10960320Y-7618678D01*
X11003500Y-9405600D02*
X11044140Y-9446240D01*
X11044140Y-9405600D02*
X11003500Y-9446240D01*
X11049680Y-8683680D02*
X11090320Y-8724320D01*
X11090320Y-8683680D02*
X11049680Y-8724320D01*
X11049680Y-8814680D02*
X11090320Y-8855320D01*
X11090320Y-8814680D02*
X11049680Y-8855320D01*
X11049680Y-8943680D02*
X11090320Y-8984320D01*
X11090320Y-8943680D02*
X11049680Y-8984320D01*
X11095681Y-10500330D02*
X11136321Y-10540970D01*
X11136321Y-10500330D02*
X11095681Y-10540970D01*
X11225980Y-6637000D02*
X11266620Y-6677640D01*
X11266620Y-6637000D02*
X11225980Y-6677640D01*
X11249680Y-7044180D02*
X11290320Y-7084820D01*
X11290320Y-7044180D02*
X11249680Y-7084820D01*
X11249878Y-7549900D02*
X11290518Y-7590540D01*
X11290518Y-7549900D02*
X11249878Y-7590540D01*
X11275280Y-11023580D02*
X11315920Y-11064220D01*
X11315920Y-11023580D02*
X11275280Y-11064220D01*
X11275280Y-11122640D02*
X11315920Y-11163280D01*
X11315920Y-11122640D02*
X11275280Y-11163280D01*
X11355679Y-10254430D02*
X11396319Y-10295070D01*
X11396319Y-10254430D02*
X11355679Y-10295070D01*
X11448680Y-8943680D02*
X11489320Y-8984320D01*
X11489320Y-8943680D02*
X11448680Y-8984320D01*
X11448680Y-9093180D02*
X11489320Y-9133820D01*
X11489320Y-9093180D02*
X11448680Y-9133820D01*
X11448680Y-9224113D02*
X11489320Y-9264753D01*
X11489320Y-9224113D02*
X11448680Y-9264753D01*
X11449680Y-7901680D02*
X11490320Y-7942320D01*
X11490320Y-7901680D02*
X11449680Y-7942320D01*
X11450965Y-8683680D02*
X11491605Y-8724320D01*
X11491605Y-8683680D02*
X11450965Y-8724320D01*
X11615680Y-11002930D02*
X11656320Y-11043570D01*
X11656320Y-11002930D02*
X11615680Y-11043570D01*
X11722680Y-7267180D02*
X11763320Y-7307820D01*
X11763320Y-7267180D02*
X11722680Y-7307820D01*
X11793450Y-8683680D02*
X11834090Y-8724320D01*
X11834090Y-8683680D02*
X11793450Y-8724320D01*
X11841420Y-10050480D02*
X11882060Y-10091120D01*
X11882060Y-10050480D02*
X11841420Y-10091120D01*
X12049980Y-8943320D02*
X12090620Y-8983960D01*
X12090620Y-8943320D02*
X12049980Y-8983960D01*
X12052680Y-8660679D02*
X12093320Y-8701319D01*
X12093320Y-8660679D02*
X12052680Y-8701319D01*
X12072080Y-7365979D02*
X12112720Y-7406619D01*
X12112720Y-7365979D02*
X12072080Y-7406619D01*
X12152680Y-7811679D02*
X12193320Y-7852319D01*
X12193320Y-7811679D02*
X12152680Y-7852319D01*
X12185679Y-10295180D02*
X12226319Y-10335820D01*
X12226319Y-10295180D02*
X12185679Y-10335820D01*
X12254680Y-6432680D02*
X12295320Y-6473320D01*
X12295320Y-6432680D02*
X12254680Y-6473320D01*
X12273500Y-7368520D02*
X12314140Y-7409160D01*
X12314140Y-7368520D02*
X12273500Y-7409160D01*
X12363430Y-9744678D02*
X12404070Y-9785318D01*
X12404070Y-9744678D02*
X12363430Y-9785318D01*
X12533160Y-10057520D02*
X12573800Y-10098160D01*
X12573800Y-10057520D02*
X12533160Y-10098160D01*
X12655680Y-10500328D02*
X12696320Y-10540968D01*
X12696320Y-10500328D02*
X12655680Y-10540968D01*
X12716040Y-10057520D02*
X12756680Y-10098160D01*
X12756680Y-10057520D02*
X12716040Y-10098160D01*
X12892680Y-8936929D02*
X12933320Y-8977569D01*
X12933320Y-8936929D02*
X12892680Y-8977569D01*
X12922680Y-8599680D02*
X12963320Y-8640320D01*
X12963320Y-8599680D02*
X12922680Y-8640320D01*
X12922680Y-8729680D02*
X12963320Y-8770320D01*
X12963320Y-8729680D02*
X12922680Y-8770320D01*
X13032680Y-8559680D02*
X13073320Y-8600320D01*
X13073320Y-8559680D02*
X13032680Y-8600320D01*
X13159202Y-9908520D02*
X13199842Y-9949160D01*
X13199842Y-9908520D02*
X13159202Y-9949160D01*
X13159960Y-9705320D02*
X13200600Y-9745960D01*
X13200600Y-9705320D02*
X13159960Y-9745960D01*
X13256680Y-8310680D02*
X13297320Y-8351320D01*
X13297320Y-8310680D02*
X13256680Y-8351320D01*
X13342840Y-10162520D02*
X13383480Y-10203160D01*
X13383480Y-10162520D02*
X13342840Y-10203160D01*
X13385680Y-8687680D02*
X13426320Y-8728320D01*
X13426320Y-8687680D02*
X13385680Y-8728320D01*
X13444680Y-9304680D02*
X13485320Y-9345320D01*
X13485320Y-9304680D02*
X13444680Y-9345320D01*
X13502680Y-8844680D02*
X13543320Y-8885320D01*
X13543320Y-8844680D02*
X13502680Y-8885320D01*
X13534680Y-9414680D02*
X13575320Y-9455320D01*
X13575320Y-9414680D02*
X13534680Y-9455320D01*
X13566680Y-9091680D02*
X13607320Y-9132320D01*
X13607320Y-9091680D02*
X13566680Y-9132320D01*
X13575680Y-8685680D02*
X13616320Y-8726320D01*
X13616320Y-8685680D02*
X13575680Y-8726320D01*
X13614620Y-9309680D02*
X13655260Y-9350320D01*
X13655260Y-9309680D02*
X13614620Y-9350320D01*
X13664680Y-7390680D02*
X13705320Y-7431320D01*
X13705320Y-7390680D02*
X13664680Y-7431320D01*
X13699201Y-10035520D02*
X13739841Y-10076160D01*
X13739841Y-10035520D02*
X13699201Y-10076160D01*
X13778680Y-7111680D02*
X13819320Y-7152320D01*
X13819320Y-7111680D02*
X13778680Y-7152320D01*
X13809680Y-8721680D02*
X13850320Y-8762320D01*
X13850320Y-8721680D02*
X13809680Y-8762320D01*
X13886680Y-9203680D02*
X13927320Y-9244320D01*
X13927320Y-9203680D02*
X13886680Y-9244320D01*
X13886680Y-9380680D02*
X13927320Y-9421320D01*
X13927320Y-9380680D02*
X13886680Y-9421320D01*
X13954680Y-7023680D02*
X13995320Y-7064320D01*
X13995320Y-7023680D02*
X13954680Y-7064320D01*
X13980680Y-9292680D02*
X14021320Y-9333320D01*
X14021320Y-9292680D02*
X13980680Y-9333320D01*
X13986680Y-8742680D02*
X14027320Y-8783320D01*
X14027320Y-8742680D02*
X13986680Y-8783320D01*
X13987680Y-10162520D02*
X14028320Y-10203160D01*
X14028320Y-10162520D02*
X13987680Y-10203160D01*
X13987680Y-10289520D02*
X14028320Y-10330160D01*
X14028320Y-10289520D02*
X13987680Y-10330160D01*
X13987680Y-10416520D02*
X14028320Y-10457160D01*
X14028320Y-10416520D02*
X13987680Y-10457160D01*
X13987680Y-10543520D02*
X14028320Y-10584160D01*
X14028320Y-10543520D02*
X13987680Y-10584160D01*
X13987680Y-10670520D02*
X14028320Y-10711160D01*
X14028320Y-10670520D02*
X13987680Y-10711160D01*
X14034680Y-8609680D02*
X14075320Y-8650320D01*
X14075320Y-8609680D02*
X14034680Y-8650320D01*
X14040680Y-7581680D02*
X14081320Y-7622320D01*
X14081320Y-7581680D02*
X14040680Y-7622320D01*
X14101680Y-9203680D02*
X14142320Y-9244320D01*
X14142320Y-9203680D02*
X14101680Y-9244320D01*
X14105680Y-9089680D02*
X14146320Y-9130320D01*
X14146320Y-9089680D02*
X14105680Y-9130320D01*
X14142680Y-7443680D02*
X14183320Y-7484320D01*
X14183320Y-7443680D02*
X14142680Y-7484320D01*
X14162680Y-9397680D02*
X14203320Y-9438320D01*
X14203320Y-9397680D02*
X14162680Y-9438320D01*
X14177680Y-7997680D02*
X14218320Y-8038320D01*
X14218320Y-7997680D02*
X14177680Y-8038320D01*
X14283680Y-7718680D02*
X14324320Y-7759320D01*
X14324320Y-7718680D02*
X14283680Y-7759320D01*
X14286680Y-8106680D02*
X14327320Y-8147320D01*
X14327320Y-8106680D02*
X14286680Y-8147320D01*
X14313120Y-10543520D02*
X14353760Y-10584160D01*
X14353760Y-10543520D02*
X14313120Y-10584160D01*
X14367680Y-9623680D02*
X14408320Y-9664320D01*
X14408320Y-9623680D02*
X14367680Y-9664320D01*
X14443680Y-8338680D02*
X14484320Y-8379320D01*
X14484320Y-8338680D02*
X14443680Y-8379320D01*
X14460440Y-10543520D02*
X14501080Y-10584160D01*
X14501080Y-10543520D02*
X14460440Y-10584160D01*
X14492680Y-8501680D02*
X14533320Y-8542320D01*
X14533320Y-8501680D02*
X14492680Y-8542320D01*
X14518680Y-6852680D02*
X14559320Y-6893320D01*
X14559320Y-6852680D02*
X14518680Y-6893320D01*
X14539680Y-8959680D02*
X14580320Y-9000320D01*
X14580320Y-8959680D02*
X14539680Y-9000320D01*
X14572200Y-10543520D02*
X14612840Y-10584160D01*
X14612840Y-10543520D02*
X14572200Y-10584160D01*
X14599680Y-7721680D02*
X14640320Y-7762320D01*
X14640320Y-7721680D02*
X14599680Y-7762320D01*
X14722060Y-10543520D02*
X14762700Y-10584160D01*
X14762700Y-10543520D02*
X14722060Y-10584160D01*
X14755680Y-7721680D02*
X14796320Y-7762320D01*
X14796320Y-7721680D02*
X14755680Y-7762320D01*
X14958280Y-9362420D02*
X14998920Y-9403060D01*
X14998920Y-9362420D02*
X14958280Y-9403060D01*
X14963431Y-8841680D02*
X15004071Y-8882320D01*
X15004071Y-8841680D02*
X14963431Y-8882320D01*
X15024680Y-6841680D02*
X15065320Y-6882320D01*
X15065320Y-6841680D02*
X15024680Y-6882320D01*
X15045680Y-8493680D02*
X15086320Y-8534320D01*
X15086320Y-8493680D02*
X15045680Y-8534320D01*
X15081680Y-7778680D02*
X15122320Y-7819320D01*
X15122320Y-7778680D02*
X15081680Y-7819320D01*
X15133540Y-8122900D02*
X15174180Y-8163540D01*
X15174180Y-8122900D02*
X15133540Y-8163540D01*
X15141680Y-10543520D02*
X15182320Y-10584160D01*
X15182320Y-10543520D02*
X15141680Y-10584160D01*
X15204680Y-6959680D02*
X15245320Y-7000320D01*
X15245320Y-6959680D02*
X15204680Y-7000320D01*
X15263080Y-10543520D02*
X15303720Y-10584160D01*
X15303720Y-10543520D02*
X15263080Y-10584160D01*
X15268680Y-8706680D02*
X15309320Y-8747320D01*
X15309320Y-8706680D02*
X15268680Y-8747320D01*
X15268680Y-10068680D02*
X15309320Y-10109320D01*
X15309320Y-10068680D02*
X15268680Y-10109320D01*
X15416680Y-10543520D02*
X15457320Y-10584160D01*
X15457320Y-10543520D02*
X15416680Y-10584160D01*
X15450680Y-7869680D02*
X15491320Y-7910320D01*
X15491320Y-7869680D02*
X15450680Y-7910320D01*
X15451680Y-8702680D02*
X15492320Y-8743320D01*
X15492320Y-8702680D02*
X15451680Y-8743320D01*
X15510680Y-7238680D02*
X15551320Y-7279320D01*
X15551320Y-7238680D02*
X15510680Y-7279320D01*
X15521680Y-9108680D02*
X15562320Y-9149320D01*
X15562320Y-9108680D02*
X15521680Y-9149320D01*
X15539680Y-7024680D02*
X15580320Y-7065320D01*
X15580320Y-7024680D02*
X15539680Y-7065320D01*
X15584680Y-9884680D02*
X15625320Y-9925320D01*
X15625320Y-9884680D02*
X15584680Y-9925320D01*
X15595820Y-10543520D02*
X15636460Y-10584160D01*
X15636460Y-10543520D02*
X15595820Y-10584160D01*
X15670680Y-8249680D02*
X15711320Y-8290320D01*
X15711320Y-8249680D02*
X15670680Y-8290320D01*
X15768680Y-9529680D02*
X15809320Y-9570320D01*
X15809320Y-9529680D02*
X15768680Y-9570320D01*
X15812680Y-7245680D02*
X15853320Y-7286320D01*
X15853320Y-7245680D02*
X15812680Y-7286320D01*
X15998680Y-6604680D02*
X16039320Y-6645320D01*
X16039320Y-6604680D02*
X15998680Y-6645320D01*
X15998680Y-7996680D02*
X16039320Y-8037320D01*
X16039320Y-7996680D02*
X15998680Y-8037320D01*
X16043680Y-6844680D02*
X16084320Y-6885320D01*
X16084320Y-6844680D02*
X16043680Y-6885320D01*
X16112680Y-7129680D02*
X16153320Y-7170320D01*
X16153320Y-7129680D02*
X16112680Y-7170320D01*
X16113180Y-9501180D02*
X16153820Y-9541820D01*
X16153820Y-9501180D02*
X16113180Y-9541820D01*
X16248600Y-8011140D02*
X16289240Y-8051780D01*
X16289240Y-8011140D02*
X16248600Y-8051780D01*
X16255680Y-10027680D02*
X16296320Y-10068320D01*
X16296320Y-10027680D02*
X16255680Y-10068320D01*
X16349680Y-6984680D02*
X16390320Y-7025320D01*
X16390320Y-6984680D02*
X16349680Y-7025320D01*
X16628680Y-9883680D02*
X16669320Y-9924320D01*
X16669320Y-9883680D02*
X16628680Y-9924320D01*
X16729680Y-8110680D02*
X16770320Y-8151320D01*
X16770320Y-8110680D02*
X16729680Y-8151320D01*
X16741680Y-6603680D02*
X16782320Y-6644320D01*
X16782320Y-6603680D02*
X16741680Y-6644320D01*
X16791680Y-8741680D02*
X16832320Y-8782320D01*
X16832320Y-8741680D02*
X16791680Y-8782320D01*
X16794680Y-9120680D02*
X16835320Y-9161320D01*
X16835320Y-9120680D02*
X16794680Y-9161320D01*
X16796680Y-8995680D02*
X16837320Y-9036320D01*
X16837320Y-8995680D02*
X16796680Y-9036320D01*
X16814320Y-10560880D02*
X16854960Y-10601520D01*
X16854960Y-10560880D02*
X16814320Y-10601520D01*
X16815320Y-10658880D02*
X16855960Y-10699520D01*
X16855960Y-10658880D02*
X16815320Y-10699520D01*
X16815320Y-10756880D02*
X16855960Y-10797520D01*
X16855960Y-10756880D02*
X16815320Y-10797520D01*
X16827680Y-9884680D02*
X16868320Y-9925320D01*
X16868320Y-9884680D02*
X16827680Y-9925320D01*
X16830680Y-9758680D02*
X16871320Y-9799320D01*
X16871320Y-9758680D02*
X16830680Y-9799320D01*
X16831599Y-9632537D02*
X16872239Y-9673177D01*
X16872239Y-9632537D02*
X16831599Y-9673177D01*
X16831680Y-9505680D02*
X16872320Y-9546320D01*
X16872320Y-9505680D02*
X16831680Y-9546320D01*
X17027680Y-9313680D02*
X17068320Y-9354320D01*
X17068320Y-9313680D02*
X17027680Y-9354320D01*
X17033680Y-7111680D02*
X17074320Y-7152320D01*
X17074320Y-7111680D02*
X17033680Y-7152320D01*
X17152680Y-8735680D02*
X17193320Y-8776320D01*
X17193320Y-8735680D02*
X17152680Y-8776320D01*
X17160460Y-7947640D02*
X17201100Y-7988280D01*
X17201100Y-7947640D02*
X17160460Y-7988280D01*
X17244680Y-6857680D02*
X17285320Y-6898320D01*
X17285320Y-6857680D02*
X17244680Y-6898320D01*
X17244680Y-6984680D02*
X17285320Y-7025320D01*
X17285320Y-6984680D02*
X17244680Y-7025320D01*
X17255680Y-8225680D02*
X17296320Y-8266320D01*
X17296320Y-8225680D02*
X17255680Y-8266320D01*
X17319680Y-8737680D02*
X17360320Y-8778320D01*
X17360320Y-8737680D02*
X17319680Y-8778320D01*
X17319680Y-8991680D02*
X17360320Y-9032320D01*
X17360320Y-8991680D02*
X17319680Y-9032320D01*
X17319680Y-9119680D02*
X17360320Y-9160320D01*
X17360320Y-9119680D02*
X17319680Y-9160320D01*
X17383280Y-11044120D02*
X17423920Y-11084760D01*
X17423920Y-11044120D02*
X17383280Y-11084760D01*
X17455930Y-9967770D02*
X17496570Y-10008410D01*
X17496570Y-9967770D02*
X17455930Y-10008410D01*
X17460170Y-9575781D02*
X17500810Y-9616421D01*
X17500810Y-9575781D02*
X17460170Y-9616421D01*
X17510280Y-10321120D02*
X17550920Y-10361760D01*
X17550920Y-10321120D02*
X17510280Y-10361760D01*
X17512280Y-11044120D02*
X17552920Y-11084760D01*
X17552920Y-11044120D02*
X17512280Y-11084760D01*
X17631280Y-11047120D02*
X17671920Y-11087760D01*
X17671920Y-11047120D02*
X17631280Y-11087760D01*
X17870929Y-9313680D02*
X17911569Y-9354320D01*
X17911569Y-9313680D02*
X17870929Y-9354320D01*
X17871650Y-9575779D02*
X17912290Y-9616419D01*
X17912290Y-9575779D02*
X17871650Y-9616419D01*
X17871650Y-8864680D02*
X17912290Y-8905320D01*
X17912290Y-8864680D02*
X17871650Y-8905320D01*
X17871650Y-8992680D02*
X17912290Y-9033320D01*
X17912290Y-8992680D02*
X17871650Y-9033320D01*
X17871650Y-9118580D02*
X17912290Y-9159220D01*
X17912290Y-9118580D02*
X17871650Y-9159220D01*
X17871930Y-9837680D02*
X17912570Y-9878320D01*
X17912570Y-9837680D02*
X17871930Y-9878320D01*
X17940240Y-6677640D02*
X17980880Y-6718280D01*
X17980880Y-6677640D02*
X17940240Y-6718280D01*
X18323160Y-10560880D02*
X18363800Y-10601520D01*
X18363800Y-10560880D02*
X18323160Y-10601520D01*
X18324160Y-10756880D02*
X18364800Y-10797520D01*
X18364800Y-10756880D02*
X18324160Y-10797520D01*
X18325160Y-10658880D02*
X18365800Y-10699520D01*
X18365800Y-10658880D02*
X18325160Y-10699520D01*
X9216500Y-7053000D02*
G75*
G03*
X9216500Y-7053000I-30000J0D01*
G01*
X9236500Y-7033000D02*
X9136500Y-7033000D01*
X9236500Y-7073000D02*
X9136500Y-7073000D01*
X9136500Y-7033000D02*
G75*
G03*
X9136500Y-7073000I0J-20000D01*
G01*
X9236500Y-7073000D02*
G75*
G03*
X9236500Y-7033000I0J20000D01*
G01*
X9216500Y-7917000D02*
G75*
G03*
X9216500Y-7917000I-30000J0D01*
G01*
X9236500Y-7897000D02*
X9136500Y-7897000D01*
X9236500Y-7937000D02*
X9136500Y-7937000D01*
X9136500Y-7897000D02*
G75*
G03*
X9136500Y-7937000I0J-20000D01*
G01*
X9236500Y-7937000D02*
G75*
G03*
X9236500Y-7897000I0J20000D01*
G01*
X9624500Y-7053000D02*
G75*
G03*
X9624500Y-7053000I-30000J0D01*
G01*
X9649500Y-7033000D02*
X9539500Y-7033000D01*
X9649500Y-7073000D02*
X9539500Y-7073000D01*
X9539500Y-7033000D02*
G75*
G03*
X9539500Y-7073000I0J-20000D01*
G01*
X9649500Y-7073000D02*
G75*
G03*
X9649500Y-7033000I0J20000D01*
G01*
X9624500Y-7917000D02*
G75*
G03*
X9624500Y-7917000I-30000J0D01*
G01*
X9649500Y-7897000D02*
X9539500Y-7897000D01*
X9649500Y-7937000D02*
X9539500Y-7937000D01*
X9539500Y-7897000D02*
G75*
G03*
X9539500Y-7937000I0J-20000D01*
G01*
X9649500Y-7937000D02*
G75*
G03*
X9649500Y-7897000I0J20000D01*
G01*
X10178000Y-6615440D02*
X10178000Y-6695440D01*
X10138000Y-6655440D02*
X10218000Y-6655440D01*
X10178000Y-6815440D02*
X10178000Y-6895440D01*
X10138000Y-6855440D02*
X10218000Y-6855440D01*
X9422420Y-10895380D02*
X9422420Y-10831740D01*
X9358780Y-10831740D01*
X9358780Y-10895380D01*
X9422420Y-10895380D01*
X9422420Y-11225380D02*
X9422420Y-11161740D01*
X9358780Y-11161740D01*
X9358780Y-11225380D01*
X9422420Y-11225380D01*
X9672420Y-10895380D02*
X9672420Y-10831740D01*
X9608780Y-10831740D01*
X9608780Y-10895380D01*
X9672420Y-10895380D01*
X9672420Y-11225380D02*
X9672420Y-11161740D01*
X9608780Y-11161740D01*
X9608780Y-11225380D01*
X9672420Y-11225380D01*
X9922420Y-10895380D02*
X9922420Y-10831740D01*
X9858780Y-10831740D01*
X9858780Y-10895380D01*
X9922420Y-10895380D01*
X9922420Y-11225380D02*
X9922420Y-11161740D01*
X9858780Y-11161740D01*
X9858780Y-11225380D01*
X9922420Y-11225380D01*
X14877000Y-11157400D02*
X14927000Y-11107400D01*
X14877000Y-11057400D01*
X14827000Y-11107400D01*
X14877000Y-11157400D01*
X15131000Y-11157400D02*
X15181000Y-11107400D01*
X15131000Y-11057400D01*
X15081000Y-11107400D01*
X15131000Y-11157400D01*
X15385000Y-11157400D02*
X15435000Y-11107400D01*
X15385000Y-11057400D01*
X15335000Y-11107400D01*
X15385000Y-11157400D01*
X15639000Y-11157400D02*
X15689000Y-11107400D01*
X15639000Y-11057400D01*
X15589000Y-11107400D01*
X15639000Y-11157400D01*
X15893000Y-11157400D02*
X15943000Y-11107400D01*
X15893000Y-11057400D01*
X15843000Y-11107400D01*
X15893000Y-11157400D01*
X16147000Y-11157400D02*
X16197000Y-11107400D01*
X16147000Y-11057400D01*
X16097000Y-11107400D01*
X16147000Y-11157400D01*
X16401000Y-11157400D02*
X16451000Y-11107400D01*
X16401000Y-11057400D01*
X16351000Y-11107400D01*
X16401000Y-11157400D01*
X16655000Y-11157400D02*
X16705000Y-11107400D01*
X16655000Y-11057400D01*
X16605000Y-11107400D01*
X16655000Y-11157400D01*
X14385000Y-6325000D02*
X14435000Y-6275000D01*
X14385000Y-6225000D01*
X14335000Y-6275000D01*
X14385000Y-6325000D01*
X14639000Y-6325000D02*
X14689000Y-6275000D01*
X14639000Y-6225000D01*
X14589000Y-6275000D01*
X14639000Y-6325000D01*
X14893000Y-6325000D02*
X14943000Y-6275000D01*
X14893000Y-6225000D01*
X14843000Y-6275000D01*
X14893000Y-6325000D01*
X15147000Y-6325000D02*
X15197000Y-6275000D01*
X15147000Y-6225000D01*
X15097000Y-6275000D01*
X15147000Y-6325000D01*
X15631000Y-6325000D02*
X15681000Y-6275000D01*
X15631000Y-6225000D01*
X15581000Y-6275000D01*
X15631000Y-6325000D01*
X15885000Y-6325000D02*
X15935000Y-6275000D01*
X15885000Y-6225000D01*
X15835000Y-6275000D01*
X15885000Y-6325000D01*
X16139000Y-6325000D02*
X16189000Y-6275000D01*
X16139000Y-6225000D01*
X16089000Y-6275000D01*
X16139000Y-6325000D01*
X16393000Y-6325000D02*
X16443000Y-6275000D01*
X16393000Y-6225000D01*
X16343000Y-6275000D01*
X16393000Y-6325000D01*
X16647000Y-6325000D02*
X16697000Y-6275000D01*
X16647000Y-6225000D01*
X16597000Y-6275000D01*
X16647000Y-6325000D01*
X16901000Y-6325000D02*
X16951000Y-6275000D01*
X16901000Y-6225000D01*
X16851000Y-6275000D01*
X16901000Y-6325000D01*
X17155000Y-6325000D02*
X17205000Y-6275000D01*
X17155000Y-6225000D01*
X17105000Y-6275000D01*
X17155000Y-6325000D01*
X17409000Y-6325000D02*
X17459000Y-6275000D01*
X17409000Y-6225000D01*
X17359000Y-6275000D01*
X17409000Y-6325000D01*
X11956000Y-11157400D02*
X12006000Y-11107400D01*
X11956000Y-11057400D01*
X11906000Y-11107400D01*
X11956000Y-11157400D01*
X12210000Y-11157400D02*
X12260000Y-11107400D01*
X12210000Y-11057400D01*
X12160000Y-11107400D01*
X12210000Y-11157400D01*
X12464000Y-11157400D02*
X12514000Y-11107400D01*
X12464000Y-11057400D01*
X12414000Y-11107400D01*
X12464000Y-11157400D01*
X11762960Y-9483540D02*
X11812960Y-9433540D01*
X11762960Y-9383540D01*
X11712960Y-9433540D01*
X11762960Y-9483540D01*
X12016960Y-9483540D02*
X12066960Y-9433540D01*
X12016960Y-9383540D01*
X11966960Y-9433540D01*
X12016960Y-9483540D01*
X12270960Y-9483540D02*
X12320960Y-9433540D01*
X12270960Y-9383540D01*
X12220960Y-9433540D01*
X12270960Y-9483540D01*
X12524960Y-9483540D02*
X12574960Y-9433540D01*
X12524960Y-9383540D01*
X12474960Y-9433540D01*
X12524960Y-9483540D01*
X12778960Y-9483540D02*
X12828960Y-9433540D01*
X12778960Y-9383540D01*
X12728960Y-9433540D01*
X12778960Y-9483540D01*
X13358080Y-11157400D02*
X13408080Y-11107400D01*
X13358080Y-11057400D01*
X13308080Y-11107400D01*
X13358080Y-11157400D01*
X13612080Y-11157400D02*
X13662080Y-11107400D01*
X13612080Y-11057400D01*
X13562080Y-11107400D01*
X13612080Y-11157400D01*
X13866080Y-11157400D02*
X13916080Y-11107400D01*
X13866080Y-11057400D01*
X13816080Y-11107400D01*
X13866080Y-11157400D01*
X14120080Y-11157400D02*
X14170080Y-11107400D01*
X14120080Y-11057400D01*
X14070080Y-11107400D01*
X14120080Y-11157400D01*
X14374080Y-11157400D02*
X14424080Y-11107400D01*
X14374080Y-11057400D01*
X14324080Y-11107400D01*
X14374080Y-11157400D01*
X12514800Y-7741100D02*
X12564800Y-7691100D01*
X12514800Y-7641100D01*
X12464800Y-7691100D01*
X12514800Y-7741100D01*
X12514800Y-7995100D02*
X12564800Y-7945100D01*
X12514800Y-7895100D01*
X12464800Y-7945100D01*
X12514800Y-7995100D01*
X12514800Y-8249100D02*
X12564800Y-8199100D01*
X12514800Y-8149100D01*
X12464800Y-8199100D01*
X12514800Y-8249100D01*
X12514800Y-8503100D02*
X12564800Y-8453100D01*
X12514800Y-8403100D01*
X12464800Y-8453100D01*
X12514800Y-8503100D01*
X12514800Y-8757100D02*
X12564800Y-8707100D01*
X12514800Y-8657100D01*
X12464800Y-8707100D01*
X12514800Y-8757100D01*
X12514800Y-9011100D02*
X12564800Y-8961100D01*
X12514800Y-8911100D01*
X12464800Y-8961100D01*
X12514800Y-9011100D01*
X11393000Y-6325000D02*
X11443000Y-6275000D01*
X11393000Y-6225000D01*
X11343000Y-6275000D01*
X11393000Y-6325000D01*
X11647000Y-6325000D02*
X11697000Y-6275000D01*
X11647000Y-6225000D01*
X11597000Y-6275000D01*
X11647000Y-6325000D01*
X11901000Y-6325000D02*
X11951000Y-6275000D01*
X11901000Y-6225000D01*
X11851000Y-6275000D01*
X11901000Y-6325000D01*
X12155000Y-6325000D02*
X12205000Y-6275000D01*
X12155000Y-6225000D01*
X12105000Y-6275000D01*
X12155000Y-6325000D01*
X12409000Y-6325000D02*
X12459000Y-6275000D01*
X12409000Y-6225000D01*
X12359000Y-6275000D01*
X12409000Y-6325000D01*
X12663000Y-6325000D02*
X12713000Y-6275000D01*
X12663000Y-6225000D01*
X12613000Y-6275000D01*
X12663000Y-6325000D01*
X18473640Y-6925760D02*
X18523640Y-6875760D01*
X18473640Y-6825760D01*
X18423640Y-6875760D01*
X18473640Y-6925760D01*
X18473640Y-7179760D02*
X18523640Y-7129760D01*
X18473640Y-7079760D01*
X18423640Y-7129760D01*
X18473640Y-7179760D01*
X18473640Y-7433760D02*
X18523640Y-7383760D01*
X18473640Y-7333760D01*
X18423640Y-7383760D01*
X18473640Y-7433760D01*
X18473640Y-7687760D02*
X18523640Y-7637760D01*
X18473640Y-7587760D01*
X18423640Y-7637760D01*
X18473640Y-7687760D01*
X18473640Y-7941760D02*
X18523640Y-7891760D01*
X18473640Y-7841760D01*
X18423640Y-7891760D01*
X18473640Y-7941760D01*
X18473640Y-8195760D02*
X18523640Y-8145760D01*
X18473640Y-8095760D01*
X18423640Y-8145760D01*
X18473640Y-8195760D01*
X18473640Y-8449760D02*
X18523640Y-8399760D01*
X18473640Y-8349760D01*
X18423640Y-8399760D01*
X18473640Y-8449760D01*
X18473640Y-8703760D02*
X18523640Y-8653760D01*
X18473640Y-8603760D01*
X18423640Y-8653760D01*
X18473640Y-8703760D01*
X18473640Y-8957760D02*
X18523640Y-8907760D01*
X18473640Y-8857760D01*
X18423640Y-8907760D01*
X18473640Y-8957760D01*
X18473640Y-9211760D02*
X18523640Y-9161760D01*
X18473640Y-9111760D01*
X18423640Y-9161760D01*
X18473640Y-9211760D01*
X18473640Y-9465760D02*
X18523640Y-9415760D01*
X18473640Y-9365760D01*
X18423640Y-9415760D01*
X18473640Y-9465760D01*
X18473640Y-9719760D02*
X18523640Y-9669760D01*
X18473640Y-9619760D01*
X18423640Y-9669760D01*
X18473640Y-9719760D01*
X18473640Y-9973760D02*
X18523640Y-9923760D01*
X18473640Y-9873760D01*
X18423640Y-9923760D01*
X18473640Y-9973760D01*
X18473640Y-10227760D02*
X18523640Y-10177760D01*
X18473640Y-10127760D01*
X18423640Y-10177760D01*
X18473640Y-10227760D01*
X18727640Y-6925760D02*
X18777640Y-6875760D01*
X18727640Y-6825760D01*
X18677640Y-6875760D01*
X18727640Y-6925760D01*
X18727640Y-7179760D02*
X18777640Y-7129760D01*
X18727640Y-7079760D01*
X18677640Y-7129760D01*
X18727640Y-7179760D01*
X18727640Y-7433760D02*
X18777640Y-7383760D01*
X18727640Y-7333760D01*
X18677640Y-7383760D01*
X18727640Y-7433760D01*
X18727640Y-7687760D02*
X18777640Y-7637760D01*
X18727640Y-7587760D01*
X18677640Y-7637760D01*
X18727640Y-7687760D01*
X18727640Y-7941760D02*
X18777640Y-7891760D01*
X18727640Y-7841760D01*
X18677640Y-7891760D01*
X18727640Y-7941760D01*
X18727640Y-8195760D02*
X18777640Y-8145760D01*
X18727640Y-8095760D01*
X18677640Y-8145760D01*
X18727640Y-8195760D01*
X18727640Y-8449760D02*
X18777640Y-8399760D01*
X18727640Y-8349760D01*
X18677640Y-8399760D01*
X18727640Y-8449760D01*
X18727640Y-8703760D02*
X18777640Y-8653760D01*
X18727640Y-8603760D01*
X18677640Y-8653760D01*
X18727640Y-8703760D01*
X18727640Y-8957760D02*
X18777640Y-8907760D01*
X18727640Y-8857760D01*
X18677640Y-8907760D01*
X18727640Y-8957760D01*
X18727640Y-9211760D02*
X18777640Y-9161760D01*
X18727640Y-9111760D01*
X18677640Y-9161760D01*
X18727640Y-9211760D01*
X18727640Y-9465760D02*
X18777640Y-9415760D01*
X18727640Y-9365760D01*
X18677640Y-9415760D01*
X18727640Y-9465760D01*
X18727640Y-9719760D02*
X18777640Y-9669760D01*
X18727640Y-9619760D01*
X18677640Y-9669760D01*
X18727640Y-9719760D01*
X18727640Y-9973760D02*
X18777640Y-9923760D01*
X18727640Y-9873760D01*
X18677640Y-9923760D01*
X18727640Y-9973760D01*
X18727640Y-10227760D02*
X18777640Y-10177760D01*
X18727640Y-10127760D01*
X18677640Y-10177760D01*
X18727640Y-10227760D01*
X13143000Y-6325000D02*
X13193000Y-6275000D01*
X13143000Y-6225000D01*
X13093000Y-6275000D01*
X13143000Y-6325000D01*
X13397000Y-6325000D02*
X13447000Y-6275000D01*
X13397000Y-6225000D01*
X13347000Y-6275000D01*
X13397000Y-6325000D01*
X13651000Y-6325000D02*
X13701000Y-6275000D01*
X13651000Y-6225000D01*
X13601000Y-6275000D01*
X13651000Y-6325000D01*
X13905000Y-6325000D02*
X13955000Y-6275000D01*
X13905000Y-6225000D01*
X13855000Y-6275000D01*
X13905000Y-6325000D01*
X9418540Y-10149820D02*
X9520140Y-10251420D01*
X9520140Y-10149820D02*
X9418540Y-10251420D01*
X9520140Y-10200620D02*
G75*
G03*
X9520140Y-10200620I-50800J0D01*
G01*
X9418540Y-10403820D02*
X9520140Y-10505420D01*
X9520140Y-10403820D02*
X9418540Y-10505420D01*
X9520140Y-10454620D02*
G75*
G03*
X9520140Y-10454620I-50800J0D01*
G01*
X9672540Y-10149820D02*
X9774140Y-10251420D01*
X9774140Y-10149820D02*
X9672540Y-10251420D01*
X9774140Y-10200620D02*
G75*
G03*
X9774140Y-10200620I-50800J0D01*
G01*
X9672540Y-10403820D02*
X9774140Y-10505420D01*
X9774140Y-10403820D02*
X9672540Y-10505420D01*
X9774140Y-10454620D02*
G75*
G03*
X9774140Y-10454620I-50800J0D01*
G01*
X9926540Y-10149820D02*
X10028140Y-10251420D01*
X10028140Y-10149820D02*
X9926540Y-10251420D01*
X10028140Y-10200620D02*
G75*
G03*
X10028140Y-10200620I-50800J0D01*
G01*
X9926540Y-10403820D02*
X10028140Y-10505420D01*
X10028140Y-10403820D02*
X9926540Y-10505420D01*
X10028140Y-10454620D02*
G75*
G03*
X10028140Y-10454620I-50800J0D01*
G01*
X10180540Y-10149820D02*
X10282140Y-10251420D01*
X10282140Y-10149820D02*
X10180540Y-10251420D01*
X10282140Y-10200620D02*
G75*
G03*
X10282140Y-10200620I-50800J0D01*
G01*
X10180540Y-10403820D02*
X10282140Y-10505420D01*
X10282140Y-10403820D02*
X10180540Y-10505420D01*
X10282140Y-10454620D02*
G75*
G03*
X10282140Y-10454620I-50800J0D01*
G01*
X18582000Y-10941000D02*
X18902000Y-11261000D01*
X18902000Y-10941000D02*
X18582000Y-11261000D01*
X18742000Y-10941000D02*
X18742000Y-11261000D01*
X18582000Y-11101000D02*
X18902000Y-11101000D01*
X10455000Y-6117000D02*
X10775000Y-6437000D01*
X10775000Y-6117000D02*
X10455000Y-6437000D01*
X10615000Y-6117000D02*
X10615000Y-6437000D01*
X10455000Y-6277000D02*
X10775000Y-6277000D01*
X17949000Y-6118000D02*
X18269000Y-6438000D01*
X18269000Y-6118000D02*
X17949000Y-6438000D01*
X18109000Y-6118000D02*
X18109000Y-6438000D01*
X17949000Y-6278000D02*
X18269000Y-6278000D01*
X10328000Y-10942000D02*
X10648000Y-11262000D01*
X10648000Y-10942000D02*
X10328000Y-11262000D01*
X10488000Y-10942000D02*
X10488000Y-11262000D01*
X10328000Y-11102000D02*
X10648000Y-11102000D01*
X9512000Y-7163500D02*
X9577000Y-7228500D01*
X9577000Y-7163500D02*
X9512000Y-7228500D01*
X9567481Y-7218981D02*
X9567481Y-7173019D01*
X9521519Y-7173019D01*
X9521519Y-7218981D01*
X9567481Y-7218981D01*
X9512000Y-7741500D02*
X9577000Y-7806500D01*
X9577000Y-7741500D02*
X9512000Y-7806500D01*
X9567481Y-7796981D02*
X9567481Y-7751019D01*
X9521519Y-7751019D01*
X9521519Y-7796981D01*
X9567481Y-7796981D01*
D12*
X9375428Y-11828714D02*
X9375428Y-11528714D01*
X9446857Y-11528714D01*
X9489714Y-11543000D01*
X9518286Y-11571571D01*
X9532571Y-11600143D01*
X9546857Y-11657286D01*
X9546857Y-11700143D01*
X9532571Y-11757286D01*
X9518286Y-11785857D01*
X9489714Y-11814429D01*
X9446857Y-11828714D01*
X9375428Y-11828714D01*
X9675428Y-11828714D02*
X9675428Y-11628714D01*
X9675428Y-11685857D02*
X9689714Y-11657286D01*
X9704000Y-11643000D01*
X9732571Y-11628714D01*
X9761143Y-11628714D01*
X9861143Y-11828714D02*
X9861143Y-11628714D01*
X9861143Y-11528714D02*
X9846857Y-11543000D01*
X9861143Y-11557286D01*
X9875428Y-11543000D01*
X9861143Y-11528714D01*
X9861143Y-11557286D01*
X10046857Y-11828714D02*
X10018286Y-11814429D01*
X10004000Y-11785857D01*
X10004000Y-11528714D01*
X10204000Y-11828714D02*
X10175428Y-11814429D01*
X10161143Y-11785857D01*
X10161143Y-11528714D01*
X10546857Y-11828714D02*
X10546857Y-11528714D01*
X10646857Y-11743000D01*
X10746857Y-11528714D01*
X10746857Y-11828714D01*
X11018286Y-11828714D02*
X11018286Y-11671571D01*
X11004000Y-11643000D01*
X10975428Y-11628714D01*
X10918286Y-11628714D01*
X10889714Y-11643000D01*
X11018286Y-11814429D02*
X10989714Y-11828714D01*
X10918286Y-11828714D01*
X10889714Y-11814429D01*
X10875428Y-11785857D01*
X10875428Y-11757286D01*
X10889714Y-11728714D01*
X10918286Y-11714429D01*
X10989714Y-11714429D01*
X11018286Y-11700143D01*
X11161143Y-11628714D02*
X11161143Y-11928714D01*
X11161143Y-11643000D02*
X11189714Y-11628714D01*
X11246857Y-11628714D01*
X11275428Y-11643000D01*
X11289714Y-11657286D01*
X11304000Y-11685857D01*
X11304000Y-11771571D01*
X11289714Y-11800143D01*
X11275428Y-11814429D01*
X11246857Y-11828714D01*
X11189714Y-11828714D01*
X11161143Y-11814429D01*
X11432571Y-11800143D02*
X11446857Y-11814429D01*
X11432571Y-11828714D01*
X11418286Y-11814429D01*
X11432571Y-11800143D01*
X11432571Y-11828714D01*
X11432571Y-11643000D02*
X11446857Y-11657286D01*
X11432571Y-11671571D01*
X11418286Y-11657286D01*
X11432571Y-11643000D01*
X11432571Y-11671571D01*
X9048360Y-12302680D02*
X9089000Y-12343320D01*
X9089000Y-12302680D02*
X9048360Y-12343320D01*
X9432571Y-12158714D02*
X9461143Y-12158714D01*
X9489714Y-12173000D01*
X9504000Y-12187286D01*
X9518286Y-12215857D01*
X9532571Y-12273000D01*
X9532571Y-12344429D01*
X9518286Y-12401571D01*
X9504000Y-12430143D01*
X9489714Y-12444429D01*
X9461143Y-12458714D01*
X9432571Y-12458714D01*
X9404000Y-12444429D01*
X9389714Y-12430143D01*
X9375428Y-12401571D01*
X9361143Y-12344429D01*
X9361143Y-12273000D01*
X9375428Y-12215857D01*
X9389714Y-12187286D01*
X9404000Y-12173000D01*
X9432571Y-12158714D01*
X9661143Y-12430143D02*
X9675428Y-12444429D01*
X9661143Y-12458714D01*
X9646857Y-12444429D01*
X9661143Y-12430143D01*
X9661143Y-12458714D01*
X9932571Y-12258714D02*
X9932571Y-12458714D01*
X9861143Y-12144429D02*
X9789714Y-12358714D01*
X9975428Y-12358714D01*
X10246857Y-12458714D02*
X10075428Y-12458714D01*
X10161143Y-12458714D02*
X10161143Y-12158714D01*
X10132571Y-12201571D01*
X10104000Y-12230143D01*
X10075428Y-12244429D01*
X10375428Y-12458714D02*
X10375428Y-12258714D01*
X10375428Y-12287286D02*
X10389714Y-12273000D01*
X10418286Y-12258714D01*
X10461143Y-12258714D01*
X10489714Y-12273000D01*
X10504000Y-12301571D01*
X10504000Y-12458714D01*
X10504000Y-12301571D02*
X10518286Y-12273000D01*
X10546857Y-12258714D01*
X10589714Y-12258714D01*
X10618286Y-12273000D01*
X10632571Y-12301571D01*
X10632571Y-12458714D01*
X10775428Y-12458714D02*
X10775428Y-12258714D01*
X10775428Y-12287286D02*
X10789714Y-12273000D01*
X10818286Y-12258714D01*
X10861143Y-12258714D01*
X10889714Y-12273000D01*
X10904000Y-12301571D01*
X10904000Y-12458714D01*
X10904000Y-12301571D02*
X10918286Y-12273000D01*
X10946857Y-12258714D01*
X10989714Y-12258714D01*
X11018286Y-12273000D01*
X11032571Y-12301571D01*
X11032571Y-12458714D01*
X11618286Y-12144429D02*
X11361143Y-12530143D01*
X12004000Y-12158714D02*
X12032571Y-12158714D01*
X12061143Y-12173000D01*
X12075428Y-12187286D01*
X12089714Y-12215857D01*
X12104000Y-12273000D01*
X12104000Y-12344429D01*
X12089714Y-12401571D01*
X12075428Y-12430143D01*
X12061143Y-12444429D01*
X12032571Y-12458714D01*
X12004000Y-12458714D01*
X11975428Y-12444429D01*
X11961143Y-12430143D01*
X11946857Y-12401571D01*
X11932571Y-12344429D01*
X11932571Y-12273000D01*
X11946857Y-12215857D01*
X11961143Y-12187286D01*
X11975428Y-12173000D01*
X12004000Y-12158714D01*
X12232571Y-12430143D02*
X12246857Y-12444429D01*
X12232571Y-12458714D01*
X12218286Y-12444429D01*
X12232571Y-12430143D01*
X12232571Y-12458714D01*
X12432571Y-12158714D02*
X12461143Y-12158714D01*
X12489714Y-12173000D01*
X12504000Y-12187286D01*
X12518286Y-12215857D01*
X12532571Y-12273000D01*
X12532571Y-12344429D01*
X12518286Y-12401571D01*
X12504000Y-12430143D01*
X12489714Y-12444429D01*
X12461143Y-12458714D01*
X12432571Y-12458714D01*
X12404000Y-12444429D01*
X12389714Y-12430143D01*
X12375428Y-12401571D01*
X12361143Y-12344429D01*
X12361143Y-12273000D01*
X12375428Y-12215857D01*
X12389714Y-12187286D01*
X12404000Y-12173000D01*
X12432571Y-12158714D01*
X12818286Y-12458714D02*
X12646857Y-12458714D01*
X12732571Y-12458714D02*
X12732571Y-12158714D01*
X12704000Y-12201571D01*
X12675428Y-12230143D01*
X12646857Y-12244429D01*
X13075428Y-12158714D02*
X13018286Y-12158714D01*
X12989714Y-12173000D01*
X12975428Y-12187286D01*
X12946857Y-12230143D01*
X12932571Y-12287286D01*
X12932571Y-12401571D01*
X12946857Y-12430143D01*
X12961143Y-12444429D01*
X12989714Y-12458714D01*
X13046857Y-12458714D01*
X13075428Y-12444429D01*
X13089714Y-12430143D01*
X13104000Y-12401571D01*
X13104000Y-12330143D01*
X13089714Y-12301571D01*
X13075428Y-12287286D01*
X13046857Y-12273000D01*
X12989714Y-12273000D01*
X12961143Y-12287286D01*
X12946857Y-12301571D01*
X12932571Y-12330143D01*
X13218286Y-12158714D02*
X13218286Y-12215857D01*
X13332571Y-12158714D02*
X13332571Y-12215857D01*
X13775428Y-12573000D02*
X13761143Y-12558714D01*
X13732571Y-12515857D01*
X13718286Y-12487286D01*
X13704000Y-12444429D01*
X13689714Y-12373000D01*
X13689714Y-12315857D01*
X13704000Y-12244429D01*
X13718286Y-12201571D01*
X13732571Y-12173000D01*
X13761143Y-12130143D01*
X13775428Y-12115857D01*
X14046857Y-12458714D02*
X13875428Y-12458714D01*
X13961143Y-12458714D02*
X13961143Y-12158714D01*
X13932571Y-12201571D01*
X13904000Y-12230143D01*
X13875428Y-12244429D01*
X14146857Y-12158714D02*
X14346857Y-12158714D01*
X14218286Y-12458714D01*
X14475428Y-12458714D02*
X14532571Y-12458714D01*
X14561143Y-12444429D01*
X14575428Y-12430143D01*
X14604000Y-12387286D01*
X14618286Y-12330143D01*
X14618286Y-12215857D01*
X14604000Y-12187286D01*
X14589714Y-12173000D01*
X14561143Y-12158714D01*
X14504000Y-12158714D01*
X14475428Y-12173000D01*
X14461143Y-12187286D01*
X14446857Y-12215857D01*
X14446857Y-12287286D01*
X14461143Y-12315857D01*
X14475428Y-12330143D01*
X14504000Y-12344429D01*
X14561143Y-12344429D01*
X14589714Y-12330143D01*
X14604000Y-12315857D01*
X14618286Y-12287286D01*
X14975428Y-12458714D02*
X14975428Y-12158714D01*
X15104000Y-12458714D02*
X15104000Y-12301571D01*
X15089714Y-12273000D01*
X15061143Y-12258714D01*
X15018286Y-12258714D01*
X14989714Y-12273000D01*
X14975428Y-12287286D01*
X15289714Y-12458714D02*
X15261143Y-12444429D01*
X15246857Y-12430143D01*
X15232571Y-12401571D01*
X15232571Y-12315857D01*
X15246857Y-12287286D01*
X15261143Y-12273000D01*
X15289714Y-12258714D01*
X15332571Y-12258714D01*
X15361143Y-12273000D01*
X15375428Y-12287286D01*
X15389714Y-12315857D01*
X15389714Y-12401571D01*
X15375428Y-12430143D01*
X15361143Y-12444429D01*
X15332571Y-12458714D01*
X15289714Y-12458714D01*
X15561143Y-12458714D02*
X15532571Y-12444429D01*
X15518286Y-12415857D01*
X15518286Y-12158714D01*
X15789714Y-12444429D02*
X15761143Y-12458714D01*
X15704000Y-12458714D01*
X15675428Y-12444429D01*
X15661143Y-12415857D01*
X15661143Y-12301571D01*
X15675428Y-12273000D01*
X15704000Y-12258714D01*
X15761143Y-12258714D01*
X15789714Y-12273000D01*
X15804000Y-12301571D01*
X15804000Y-12330143D01*
X15661143Y-12358714D01*
X15918286Y-12444429D02*
X15946857Y-12458714D01*
X16004000Y-12458714D01*
X16032571Y-12444429D01*
X16046857Y-12415857D01*
X16046857Y-12401571D01*
X16032571Y-12373000D01*
X16004000Y-12358714D01*
X15961143Y-12358714D01*
X15932571Y-12344429D01*
X15918286Y-12315857D01*
X15918286Y-12301571D01*
X15932571Y-12273000D01*
X15961143Y-12258714D01*
X16004000Y-12258714D01*
X16032571Y-12273000D01*
X16146857Y-12573000D02*
X16161143Y-12558714D01*
X16189714Y-12515857D01*
X16204000Y-12487286D01*
X16218286Y-12444429D01*
X16232571Y-12373000D01*
X16232571Y-12315857D01*
X16218286Y-12244429D01*
X16204000Y-12201571D01*
X16189714Y-12173000D01*
X16161143Y-12130143D01*
X16146857Y-12115857D01*
X9089000Y-12719000D02*
G75*
G03*
X9089000Y-12719000I-30000J0D01*
G01*
X9432571Y-12554714D02*
X9461143Y-12554714D01*
X9489714Y-12569000D01*
X9504000Y-12583286D01*
X9518286Y-12611857D01*
X9532571Y-12669000D01*
X9532571Y-12740429D01*
X9518286Y-12797571D01*
X9504000Y-12826143D01*
X9489714Y-12840429D01*
X9461143Y-12854714D01*
X9432571Y-12854714D01*
X9404000Y-12840429D01*
X9389714Y-12826143D01*
X9375428Y-12797571D01*
X9361143Y-12740429D01*
X9361143Y-12669000D01*
X9375428Y-12611857D01*
X9389714Y-12583286D01*
X9404000Y-12569000D01*
X9432571Y-12554714D01*
X9661143Y-12826143D02*
X9675428Y-12840429D01*
X9661143Y-12854714D01*
X9646857Y-12840429D01*
X9661143Y-12826143D01*
X9661143Y-12854714D01*
X9932571Y-12554714D02*
X9875428Y-12554714D01*
X9846857Y-12569000D01*
X9832571Y-12583286D01*
X9804000Y-12626143D01*
X9789714Y-12683286D01*
X9789714Y-12797571D01*
X9804000Y-12826143D01*
X9818286Y-12840429D01*
X9846857Y-12854714D01*
X9904000Y-12854714D01*
X9932571Y-12840429D01*
X9946857Y-12826143D01*
X9961143Y-12797571D01*
X9961143Y-12726143D01*
X9946857Y-12697571D01*
X9932571Y-12683286D01*
X9904000Y-12669000D01*
X9846857Y-12669000D01*
X9818286Y-12683286D01*
X9804000Y-12697571D01*
X9789714Y-12726143D01*
X10146857Y-12554714D02*
X10175428Y-12554714D01*
X10204000Y-12569000D01*
X10218286Y-12583286D01*
X10232571Y-12611857D01*
X10246857Y-12669000D01*
X10246857Y-12740429D01*
X10232571Y-12797571D01*
X10218286Y-12826143D01*
X10204000Y-12840429D01*
X10175428Y-12854714D01*
X10146857Y-12854714D01*
X10118286Y-12840429D01*
X10104000Y-12826143D01*
X10089714Y-12797571D01*
X10075428Y-12740429D01*
X10075428Y-12669000D01*
X10089714Y-12611857D01*
X10104000Y-12583286D01*
X10118286Y-12569000D01*
X10146857Y-12554714D01*
X10375428Y-12854714D02*
X10375428Y-12654714D01*
X10375428Y-12683286D02*
X10389714Y-12669000D01*
X10418286Y-12654714D01*
X10461143Y-12654714D01*
X10489714Y-12669000D01*
X10504000Y-12697571D01*
X10504000Y-12854714D01*
X10504000Y-12697571D02*
X10518286Y-12669000D01*
X10546857Y-12654714D01*
X10589714Y-12654714D01*
X10618286Y-12669000D01*
X10632571Y-12697571D01*
X10632571Y-12854714D01*
X10775428Y-12854714D02*
X10775428Y-12654714D01*
X10775428Y-12683286D02*
X10789714Y-12669000D01*
X10818286Y-12654714D01*
X10861143Y-12654714D01*
X10889714Y-12669000D01*
X10904000Y-12697571D01*
X10904000Y-12854714D01*
X10904000Y-12697571D02*
X10918286Y-12669000D01*
X10946857Y-12654714D01*
X10989714Y-12654714D01*
X11018286Y-12669000D01*
X11032571Y-12697571D01*
X11032571Y-12854714D01*
X11618286Y-12540429D02*
X11361143Y-12926143D01*
X12004000Y-12554714D02*
X12032571Y-12554714D01*
X12061143Y-12569000D01*
X12075428Y-12583286D01*
X12089714Y-12611857D01*
X12104000Y-12669000D01*
X12104000Y-12740429D01*
X12089714Y-12797571D01*
X12075428Y-12826143D01*
X12061143Y-12840429D01*
X12032571Y-12854714D01*
X12004000Y-12854714D01*
X11975428Y-12840429D01*
X11961143Y-12826143D01*
X11946857Y-12797571D01*
X11932571Y-12740429D01*
X11932571Y-12669000D01*
X11946857Y-12611857D01*
X11961143Y-12583286D01*
X11975428Y-12569000D01*
X12004000Y-12554714D01*
X12232571Y-12826143D02*
X12246857Y-12840429D01*
X12232571Y-12854714D01*
X12218286Y-12840429D01*
X12232571Y-12826143D01*
X12232571Y-12854714D01*
X12432571Y-12554714D02*
X12461143Y-12554714D01*
X12489714Y-12569000D01*
X12504000Y-12583286D01*
X12518286Y-12611857D01*
X12532571Y-12669000D01*
X12532571Y-12740429D01*
X12518286Y-12797571D01*
X12504000Y-12826143D01*
X12489714Y-12840429D01*
X12461143Y-12854714D01*
X12432571Y-12854714D01*
X12404000Y-12840429D01*
X12389714Y-12826143D01*
X12375428Y-12797571D01*
X12361143Y-12740429D01*
X12361143Y-12669000D01*
X12375428Y-12611857D01*
X12389714Y-12583286D01*
X12404000Y-12569000D01*
X12432571Y-12554714D01*
X12646857Y-12583286D02*
X12661143Y-12569000D01*
X12689714Y-12554714D01*
X12761143Y-12554714D01*
X12789714Y-12569000D01*
X12804000Y-12583286D01*
X12818286Y-12611857D01*
X12818286Y-12640429D01*
X12804000Y-12683286D01*
X12632571Y-12854714D01*
X12818286Y-12854714D01*
X13075428Y-12654714D02*
X13075428Y-12854714D01*
X13004000Y-12540429D02*
X12932571Y-12754714D01*
X13118286Y-12754714D01*
X13218286Y-12554714D02*
X13218286Y-12611857D01*
X13332571Y-12554714D02*
X13332571Y-12611857D01*
X13775428Y-12969000D02*
X13761143Y-12954714D01*
X13732571Y-12911857D01*
X13718286Y-12883286D01*
X13704000Y-12840429D01*
X13689714Y-12769000D01*
X13689714Y-12711857D01*
X13704000Y-12640429D01*
X13718286Y-12597571D01*
X13732571Y-12569000D01*
X13761143Y-12526143D01*
X13775428Y-12511857D01*
X13946857Y-12554714D02*
X13975428Y-12554714D01*
X14004000Y-12569000D01*
X14018286Y-12583286D01*
X14032571Y-12611857D01*
X14046857Y-12669000D01*
X14046857Y-12740429D01*
X14032571Y-12797571D01*
X14018286Y-12826143D01*
X14004000Y-12840429D01*
X13975428Y-12854714D01*
X13946857Y-12854714D01*
X13918286Y-12840429D01*
X13904000Y-12826143D01*
X13889714Y-12797571D01*
X13875428Y-12740429D01*
X13875428Y-12669000D01*
X13889714Y-12611857D01*
X13904000Y-12583286D01*
X13918286Y-12569000D01*
X13946857Y-12554714D01*
X14404000Y-12854714D02*
X14404000Y-12554714D01*
X14532571Y-12854714D02*
X14532571Y-12697571D01*
X14518286Y-12669000D01*
X14489714Y-12654714D01*
X14446857Y-12654714D01*
X14418286Y-12669000D01*
X14404000Y-12683286D01*
X14718286Y-12854714D02*
X14689714Y-12840429D01*
X14675428Y-12826143D01*
X14661143Y-12797571D01*
X14661143Y-12711857D01*
X14675428Y-12683286D01*
X14689714Y-12669000D01*
X14718286Y-12654714D01*
X14761143Y-12654714D01*
X14789714Y-12669000D01*
X14804000Y-12683286D01*
X14818286Y-12711857D01*
X14818286Y-12797571D01*
X14804000Y-12826143D01*
X14789714Y-12840429D01*
X14761143Y-12854714D01*
X14718286Y-12854714D01*
X14989714Y-12854714D02*
X14961143Y-12840429D01*
X14946857Y-12811857D01*
X14946857Y-12554714D01*
X15218286Y-12840429D02*
X15189714Y-12854714D01*
X15132571Y-12854714D01*
X15104000Y-12840429D01*
X15089714Y-12811857D01*
X15089714Y-12697571D01*
X15104000Y-12669000D01*
X15132571Y-12654714D01*
X15189714Y-12654714D01*
X15218286Y-12669000D01*
X15232571Y-12697571D01*
X15232571Y-12726143D01*
X15089714Y-12754714D01*
X15346857Y-12840429D02*
X15375428Y-12854714D01*
X15432571Y-12854714D01*
X15461143Y-12840429D01*
X15475428Y-12811857D01*
X15475428Y-12797571D01*
X15461143Y-12769000D01*
X15432571Y-12754714D01*
X15389714Y-12754714D01*
X15361143Y-12740429D01*
X15346857Y-12711857D01*
X15346857Y-12697571D01*
X15361143Y-12669000D01*
X15389714Y-12654714D01*
X15432571Y-12654714D01*
X15461143Y-12669000D01*
X15832571Y-12740429D02*
X16061143Y-12740429D01*
X15946857Y-12854714D02*
X15946857Y-12626143D01*
X16561143Y-12654714D02*
X16561143Y-12854714D01*
X16489714Y-12540429D02*
X16418286Y-12754714D01*
X16604000Y-12754714D01*
X16932571Y-12840429D02*
X16961143Y-12854714D01*
X17018286Y-12854714D01*
X17046857Y-12840429D01*
X17061143Y-12811857D01*
X17061143Y-12797571D01*
X17046857Y-12769000D01*
X17018286Y-12754714D01*
X16975428Y-12754714D01*
X16946857Y-12740429D01*
X16932571Y-12711857D01*
X16932571Y-12697571D01*
X16946857Y-12669000D01*
X16975428Y-12654714D01*
X17018286Y-12654714D01*
X17046857Y-12669000D01*
X17232571Y-12854714D02*
X17204000Y-12840429D01*
X17189714Y-12811857D01*
X17189714Y-12554714D01*
X17389714Y-12854714D02*
X17361143Y-12840429D01*
X17346857Y-12826143D01*
X17332571Y-12797571D01*
X17332571Y-12711857D01*
X17346857Y-12683286D01*
X17361143Y-12669000D01*
X17389714Y-12654714D01*
X17432571Y-12654714D01*
X17461143Y-12669000D01*
X17475428Y-12683286D01*
X17489714Y-12711857D01*
X17489714Y-12797571D01*
X17475428Y-12826143D01*
X17461143Y-12840429D01*
X17432571Y-12854714D01*
X17389714Y-12854714D01*
X17575428Y-12654714D02*
X17689714Y-12654714D01*
X17618286Y-12554714D02*
X17618286Y-12811857D01*
X17632571Y-12840429D01*
X17661143Y-12854714D01*
X17689714Y-12854714D01*
X17775428Y-12840429D02*
X17804000Y-12854714D01*
X17861143Y-12854714D01*
X17889714Y-12840429D01*
X17904000Y-12811857D01*
X17904000Y-12797571D01*
X17889714Y-12769000D01*
X17861143Y-12754714D01*
X17818286Y-12754714D01*
X17789714Y-12740429D01*
X17775428Y-12711857D01*
X17775428Y-12697571D01*
X17789714Y-12669000D01*
X17818286Y-12654714D01*
X17861143Y-12654714D01*
X17889714Y-12669000D01*
X18004000Y-12969000D02*
X18018286Y-12954714D01*
X18046857Y-12911857D01*
X18061143Y-12883286D01*
X18075428Y-12840429D01*
X18089714Y-12769000D01*
X18089714Y-12711857D01*
X18075428Y-12640429D01*
X18061143Y-12597571D01*
X18046857Y-12569000D01*
X18018286Y-12526143D01*
X18004000Y-12511857D01*
X9049000Y-13075000D02*
X9049000Y-13155000D01*
X9009000Y-13115000D02*
X9089000Y-13115000D01*
X9432571Y-12950714D02*
X9461143Y-12950714D01*
X9489714Y-12965000D01*
X9504000Y-12979286D01*
X9518286Y-13007857D01*
X9532571Y-13065000D01*
X9532571Y-13136429D01*
X9518286Y-13193571D01*
X9504000Y-13222143D01*
X9489714Y-13236429D01*
X9461143Y-13250714D01*
X9432571Y-13250714D01*
X9404000Y-13236429D01*
X9389714Y-13222143D01*
X9375428Y-13193571D01*
X9361143Y-13136429D01*
X9361143Y-13065000D01*
X9375428Y-13007857D01*
X9389714Y-12979286D01*
X9404000Y-12965000D01*
X9432571Y-12950714D01*
X9661143Y-13222143D02*
X9675428Y-13236429D01*
X9661143Y-13250714D01*
X9646857Y-13236429D01*
X9661143Y-13222143D01*
X9661143Y-13250714D01*
X9846857Y-13079286D02*
X9818286Y-13065000D01*
X9804000Y-13050714D01*
X9789714Y-13022143D01*
X9789714Y-13007857D01*
X9804000Y-12979286D01*
X9818286Y-12965000D01*
X9846857Y-12950714D01*
X9904000Y-12950714D01*
X9932571Y-12965000D01*
X9946857Y-12979286D01*
X9961143Y-13007857D01*
X9961143Y-13022143D01*
X9946857Y-13050714D01*
X9932571Y-13065000D01*
X9904000Y-13079286D01*
X9846857Y-13079286D01*
X9818286Y-13093571D01*
X9804000Y-13107857D01*
X9789714Y-13136429D01*
X9789714Y-13193571D01*
X9804000Y-13222143D01*
X9818286Y-13236429D01*
X9846857Y-13250714D01*
X9904000Y-13250714D01*
X9932571Y-13236429D01*
X9946857Y-13222143D01*
X9961143Y-13193571D01*
X9961143Y-13136429D01*
X9946857Y-13107857D01*
X9932571Y-13093571D01*
X9904000Y-13079286D01*
X10146857Y-12950714D02*
X10175428Y-12950714D01*
X10204000Y-12965000D01*
X10218286Y-12979286D01*
X10232571Y-13007857D01*
X10246857Y-13065000D01*
X10246857Y-13136429D01*
X10232571Y-13193571D01*
X10218286Y-13222143D01*
X10204000Y-13236429D01*
X10175428Y-13250714D01*
X10146857Y-13250714D01*
X10118286Y-13236429D01*
X10104000Y-13222143D01*
X10089714Y-13193571D01*
X10075428Y-13136429D01*
X10075428Y-13065000D01*
X10089714Y-13007857D01*
X10104000Y-12979286D01*
X10118286Y-12965000D01*
X10146857Y-12950714D01*
X10375428Y-13250714D02*
X10375428Y-13050714D01*
X10375428Y-13079286D02*
X10389714Y-13065000D01*
X10418286Y-13050714D01*
X10461143Y-13050714D01*
X10489714Y-13065000D01*
X10504000Y-13093571D01*
X10504000Y-13250714D01*
X10504000Y-13093571D02*
X10518286Y-13065000D01*
X10546857Y-13050714D01*
X10589714Y-13050714D01*
X10618286Y-13065000D01*
X10632571Y-13093571D01*
X10632571Y-13250714D01*
X10775428Y-13250714D02*
X10775428Y-13050714D01*
X10775428Y-13079286D02*
X10789714Y-13065000D01*
X10818286Y-13050714D01*
X10861143Y-13050714D01*
X10889714Y-13065000D01*
X10904000Y-13093571D01*
X10904000Y-13250714D01*
X10904000Y-13093571D02*
X10918286Y-13065000D01*
X10946857Y-13050714D01*
X10989714Y-13050714D01*
X11018286Y-13065000D01*
X11032571Y-13093571D01*
X11032571Y-13250714D01*
X11618286Y-12936429D02*
X11361143Y-13322143D01*
X12004000Y-12950714D02*
X12032571Y-12950714D01*
X12061143Y-12965000D01*
X12075428Y-12979286D01*
X12089714Y-13007857D01*
X12104000Y-13065000D01*
X12104000Y-13136429D01*
X12089714Y-13193571D01*
X12075428Y-13222143D01*
X12061143Y-13236429D01*
X12032571Y-13250714D01*
X12004000Y-13250714D01*
X11975428Y-13236429D01*
X11961143Y-13222143D01*
X11946857Y-13193571D01*
X11932571Y-13136429D01*
X11932571Y-13065000D01*
X11946857Y-13007857D01*
X11961143Y-12979286D01*
X11975428Y-12965000D01*
X12004000Y-12950714D01*
X12232571Y-13222143D02*
X12246857Y-13236429D01*
X12232571Y-13250714D01*
X12218286Y-13236429D01*
X12232571Y-13222143D01*
X12232571Y-13250714D01*
X12432571Y-12950714D02*
X12461143Y-12950714D01*
X12489714Y-12965000D01*
X12504000Y-12979286D01*
X12518286Y-13007857D01*
X12532571Y-13065000D01*
X12532571Y-13136429D01*
X12518286Y-13193571D01*
X12504000Y-13222143D01*
X12489714Y-13236429D01*
X12461143Y-13250714D01*
X12432571Y-13250714D01*
X12404000Y-13236429D01*
X12389714Y-13222143D01*
X12375428Y-13193571D01*
X12361143Y-13136429D01*
X12361143Y-13065000D01*
X12375428Y-13007857D01*
X12389714Y-12979286D01*
X12404000Y-12965000D01*
X12432571Y-12950714D01*
X12632571Y-12950714D02*
X12818286Y-12950714D01*
X12718286Y-13065000D01*
X12761143Y-13065000D01*
X12789714Y-13079286D01*
X12804000Y-13093571D01*
X12818286Y-13122143D01*
X12818286Y-13193571D01*
X12804000Y-13222143D01*
X12789714Y-13236429D01*
X12761143Y-13250714D01*
X12675428Y-13250714D01*
X12646857Y-13236429D01*
X12632571Y-13222143D01*
X13104000Y-13250714D02*
X12932571Y-13250714D01*
X13018286Y-13250714D02*
X13018286Y-12950714D01*
X12989714Y-12993571D01*
X12961143Y-13022143D01*
X12932571Y-13036429D01*
X13218286Y-12950714D02*
X13218286Y-13007857D01*
X13332571Y-12950714D02*
X13332571Y-13007857D01*
X13775428Y-13365000D02*
X13761143Y-13350714D01*
X13732571Y-13307857D01*
X13718286Y-13279286D01*
X13704000Y-13236429D01*
X13689714Y-13165000D01*
X13689714Y-13107857D01*
X13704000Y-13036429D01*
X13718286Y-12993571D01*
X13732571Y-12965000D01*
X13761143Y-12922143D01*
X13775428Y-12907857D01*
X13875428Y-12979286D02*
X13889714Y-12965000D01*
X13918286Y-12950714D01*
X13989714Y-12950714D01*
X14018286Y-12965000D01*
X14032571Y-12979286D01*
X14046857Y-13007857D01*
X14046857Y-13036429D01*
X14032571Y-13079286D01*
X13861143Y-13250714D01*
X14046857Y-13250714D01*
X14404000Y-13250714D02*
X14404000Y-12950714D01*
X14532571Y-13250714D02*
X14532571Y-13093571D01*
X14518286Y-13065000D01*
X14489714Y-13050714D01*
X14446857Y-13050714D01*
X14418286Y-13065000D01*
X14404000Y-13079286D01*
X14718286Y-13250714D02*
X14689714Y-13236429D01*
X14675428Y-13222143D01*
X14661143Y-13193571D01*
X14661143Y-13107857D01*
X14675428Y-13079286D01*
X14689714Y-13065000D01*
X14718286Y-13050714D01*
X14761143Y-13050714D01*
X14789714Y-13065000D01*
X14804000Y-13079286D01*
X14818286Y-13107857D01*
X14818286Y-13193571D01*
X14804000Y-13222143D01*
X14789714Y-13236429D01*
X14761143Y-13250714D01*
X14718286Y-13250714D01*
X14989714Y-13250714D02*
X14961143Y-13236429D01*
X14946857Y-13207857D01*
X14946857Y-12950714D01*
X15218286Y-13236429D02*
X15189714Y-13250714D01*
X15132571Y-13250714D01*
X15104000Y-13236429D01*
X15089714Y-13207857D01*
X15089714Y-13093571D01*
X15104000Y-13065000D01*
X15132571Y-13050714D01*
X15189714Y-13050714D01*
X15218286Y-13065000D01*
X15232571Y-13093571D01*
X15232571Y-13122143D01*
X15089714Y-13150714D01*
X15346857Y-13236429D02*
X15375428Y-13250714D01*
X15432571Y-13250714D01*
X15461143Y-13236429D01*
X15475428Y-13207857D01*
X15475428Y-13193571D01*
X15461143Y-13165000D01*
X15432571Y-13150714D01*
X15389714Y-13150714D01*
X15361143Y-13136429D01*
X15346857Y-13107857D01*
X15346857Y-13093571D01*
X15361143Y-13065000D01*
X15389714Y-13050714D01*
X15432571Y-13050714D01*
X15461143Y-13065000D01*
X15575428Y-13365000D02*
X15589714Y-13350714D01*
X15618286Y-13307857D01*
X15632571Y-13279286D01*
X15646857Y-13236429D01*
X15661143Y-13165000D01*
X15661143Y-13107857D01*
X15646857Y-13036429D01*
X15632571Y-12993571D01*
X15618286Y-12965000D01*
X15589714Y-12922143D01*
X15575428Y-12907857D01*
X9075820Y-13542820D02*
X9075820Y-13479180D01*
X9012180Y-13479180D01*
X9012180Y-13542820D01*
X9075820Y-13542820D01*
X9432571Y-13346714D02*
X9461143Y-13346714D01*
X9489714Y-13361000D01*
X9504000Y-13375286D01*
X9518286Y-13403857D01*
X9532571Y-13461000D01*
X9532571Y-13532429D01*
X9518286Y-13589571D01*
X9504000Y-13618143D01*
X9489714Y-13632429D01*
X9461143Y-13646714D01*
X9432571Y-13646714D01*
X9404000Y-13632429D01*
X9389714Y-13618143D01*
X9375428Y-13589571D01*
X9361143Y-13532429D01*
X9361143Y-13461000D01*
X9375428Y-13403857D01*
X9389714Y-13375286D01*
X9404000Y-13361000D01*
X9432571Y-13346714D01*
X9661143Y-13618143D02*
X9675428Y-13632429D01*
X9661143Y-13646714D01*
X9646857Y-13632429D01*
X9661143Y-13618143D01*
X9661143Y-13646714D01*
X9818286Y-13646714D02*
X9875428Y-13646714D01*
X9904000Y-13632429D01*
X9918286Y-13618143D01*
X9946857Y-13575286D01*
X9961143Y-13518143D01*
X9961143Y-13403857D01*
X9946857Y-13375286D01*
X9932571Y-13361000D01*
X9904000Y-13346714D01*
X9846857Y-13346714D01*
X9818286Y-13361000D01*
X9804000Y-13375286D01*
X9789714Y-13403857D01*
X9789714Y-13475286D01*
X9804000Y-13503857D01*
X9818286Y-13518143D01*
X9846857Y-13532429D01*
X9904000Y-13532429D01*
X9932571Y-13518143D01*
X9946857Y-13503857D01*
X9961143Y-13475286D01*
X10146857Y-13346714D02*
X10175428Y-13346714D01*
X10204000Y-13361000D01*
X10218286Y-13375286D01*
X10232571Y-13403857D01*
X10246857Y-13461000D01*
X10246857Y-13532429D01*
X10232571Y-13589571D01*
X10218286Y-13618143D01*
X10204000Y-13632429D01*
X10175428Y-13646714D01*
X10146857Y-13646714D01*
X10118286Y-13632429D01*
X10104000Y-13618143D01*
X10089714Y-13589571D01*
X10075428Y-13532429D01*
X10075428Y-13461000D01*
X10089714Y-13403857D01*
X10104000Y-13375286D01*
X10118286Y-13361000D01*
X10146857Y-13346714D01*
X10375428Y-13646714D02*
X10375428Y-13446714D01*
X10375428Y-13475286D02*
X10389714Y-13461000D01*
X10418286Y-13446714D01*
X10461143Y-13446714D01*
X10489714Y-13461000D01*
X10504000Y-13489571D01*
X10504000Y-13646714D01*
X10504000Y-13489571D02*
X10518286Y-13461000D01*
X10546857Y-13446714D01*
X10589714Y-13446714D01*
X10618286Y-13461000D01*
X10632571Y-13489571D01*
X10632571Y-13646714D01*
X10775428Y-13646714D02*
X10775428Y-13446714D01*
X10775428Y-13475286D02*
X10789714Y-13461000D01*
X10818286Y-13446714D01*
X10861143Y-13446714D01*
X10889714Y-13461000D01*
X10904000Y-13489571D01*
X10904000Y-13646714D01*
X10904000Y-13489571D02*
X10918286Y-13461000D01*
X10946857Y-13446714D01*
X10989714Y-13446714D01*
X11018286Y-13461000D01*
X11032571Y-13489571D01*
X11032571Y-13646714D01*
X11618286Y-13332429D02*
X11361143Y-13718143D01*
X12004000Y-13346714D02*
X12032571Y-13346714D01*
X12061143Y-13361000D01*
X12075428Y-13375286D01*
X12089714Y-13403857D01*
X12104000Y-13461000D01*
X12104000Y-13532429D01*
X12089714Y-13589571D01*
X12075428Y-13618143D01*
X12061143Y-13632429D01*
X12032571Y-13646714D01*
X12004000Y-13646714D01*
X11975428Y-13632429D01*
X11961143Y-13618143D01*
X11946857Y-13589571D01*
X11932571Y-13532429D01*
X11932571Y-13461000D01*
X11946857Y-13403857D01*
X11961143Y-13375286D01*
X11975428Y-13361000D01*
X12004000Y-13346714D01*
X12232571Y-13618143D02*
X12246857Y-13632429D01*
X12232571Y-13646714D01*
X12218286Y-13632429D01*
X12232571Y-13618143D01*
X12232571Y-13646714D01*
X12432571Y-13346714D02*
X12461143Y-13346714D01*
X12489714Y-13361000D01*
X12504000Y-13375286D01*
X12518286Y-13403857D01*
X12532571Y-13461000D01*
X12532571Y-13532429D01*
X12518286Y-13589571D01*
X12504000Y-13618143D01*
X12489714Y-13632429D01*
X12461143Y-13646714D01*
X12432571Y-13646714D01*
X12404000Y-13632429D01*
X12389714Y-13618143D01*
X12375428Y-13589571D01*
X12361143Y-13532429D01*
X12361143Y-13461000D01*
X12375428Y-13403857D01*
X12389714Y-13375286D01*
X12404000Y-13361000D01*
X12432571Y-13346714D01*
X12632571Y-13346714D02*
X12818286Y-13346714D01*
X12718286Y-13461000D01*
X12761143Y-13461000D01*
X12789714Y-13475286D01*
X12804000Y-13489571D01*
X12818286Y-13518143D01*
X12818286Y-13589571D01*
X12804000Y-13618143D01*
X12789714Y-13632429D01*
X12761143Y-13646714D01*
X12675428Y-13646714D01*
X12646857Y-13632429D01*
X12632571Y-13618143D01*
X13089714Y-13346714D02*
X12946857Y-13346714D01*
X12932571Y-13489571D01*
X12946857Y-13475286D01*
X12975428Y-13461000D01*
X13046857Y-13461000D01*
X13075428Y-13475286D01*
X13089714Y-13489571D01*
X13104000Y-13518143D01*
X13104000Y-13589571D01*
X13089714Y-13618143D01*
X13075428Y-13632429D01*
X13046857Y-13646714D01*
X12975428Y-13646714D01*
X12946857Y-13632429D01*
X12932571Y-13618143D01*
X13218286Y-13346714D02*
X13218286Y-13403857D01*
X13332571Y-13346714D02*
X13332571Y-13403857D01*
X13775428Y-13761000D02*
X13761143Y-13746714D01*
X13732571Y-13703857D01*
X13718286Y-13675286D01*
X13704000Y-13632429D01*
X13689714Y-13561000D01*
X13689714Y-13503857D01*
X13704000Y-13432429D01*
X13718286Y-13389571D01*
X13732571Y-13361000D01*
X13761143Y-13318143D01*
X13775428Y-13303857D01*
X14018286Y-13346714D02*
X13961143Y-13346714D01*
X13932571Y-13361000D01*
X13918286Y-13375286D01*
X13889714Y-13418143D01*
X13875428Y-13475286D01*
X13875428Y-13589571D01*
X13889714Y-13618143D01*
X13904000Y-13632429D01*
X13932571Y-13646714D01*
X13989714Y-13646714D01*
X14018286Y-13632429D01*
X14032571Y-13618143D01*
X14046857Y-13589571D01*
X14046857Y-13518143D01*
X14032571Y-13489571D01*
X14018286Y-13475286D01*
X13989714Y-13461000D01*
X13932571Y-13461000D01*
X13904000Y-13475286D01*
X13889714Y-13489571D01*
X13875428Y-13518143D01*
X14404000Y-13646714D02*
X14404000Y-13346714D01*
X14532571Y-13646714D02*
X14532571Y-13489571D01*
X14518286Y-13461000D01*
X14489714Y-13446714D01*
X14446857Y-13446714D01*
X14418286Y-13461000D01*
X14404000Y-13475286D01*
X14718286Y-13646714D02*
X14689714Y-13632429D01*
X14675428Y-13618143D01*
X14661143Y-13589571D01*
X14661143Y-13503857D01*
X14675428Y-13475286D01*
X14689714Y-13461000D01*
X14718286Y-13446714D01*
X14761143Y-13446714D01*
X14789714Y-13461000D01*
X14804000Y-13475286D01*
X14818286Y-13503857D01*
X14818286Y-13589571D01*
X14804000Y-13618143D01*
X14789714Y-13632429D01*
X14761143Y-13646714D01*
X14718286Y-13646714D01*
X14989714Y-13646714D02*
X14961143Y-13632429D01*
X14946857Y-13603857D01*
X14946857Y-13346714D01*
X15218286Y-13632429D02*
X15189714Y-13646714D01*
X15132571Y-13646714D01*
X15104000Y-13632429D01*
X15089714Y-13603857D01*
X15089714Y-13489571D01*
X15104000Y-13461000D01*
X15132571Y-13446714D01*
X15189714Y-13446714D01*
X15218286Y-13461000D01*
X15232571Y-13489571D01*
X15232571Y-13518143D01*
X15089714Y-13546714D01*
X15346857Y-13632429D02*
X15375428Y-13646714D01*
X15432571Y-13646714D01*
X15461143Y-13632429D01*
X15475428Y-13603857D01*
X15475428Y-13589571D01*
X15461143Y-13561000D01*
X15432571Y-13546714D01*
X15389714Y-13546714D01*
X15361143Y-13532429D01*
X15346857Y-13503857D01*
X15346857Y-13489571D01*
X15361143Y-13461000D01*
X15389714Y-13446714D01*
X15432571Y-13446714D01*
X15461143Y-13461000D01*
X15575428Y-13761000D02*
X15589714Y-13746714D01*
X15618286Y-13703857D01*
X15632571Y-13675286D01*
X15646857Y-13632429D01*
X15661143Y-13561000D01*
X15661143Y-13503857D01*
X15646857Y-13432429D01*
X15632571Y-13389571D01*
X15618286Y-13361000D01*
X15589714Y-13318143D01*
X15575428Y-13303857D01*
X9039000Y-13957000D02*
X9089000Y-13907000D01*
X9039000Y-13857000D01*
X8989000Y-13907000D01*
X9039000Y-13957000D01*
X9532571Y-14042714D02*
X9361143Y-14042714D01*
X9446857Y-14042714D02*
X9446857Y-13742714D01*
X9418286Y-13785571D01*
X9389714Y-13814143D01*
X9361143Y-13828429D01*
X9661143Y-14014143D02*
X9675428Y-14028429D01*
X9661143Y-14042714D01*
X9646857Y-14028429D01*
X9661143Y-14014143D01*
X9661143Y-14042714D01*
X9861143Y-13742714D02*
X9889714Y-13742714D01*
X9918286Y-13757000D01*
X9932571Y-13771286D01*
X9946857Y-13799857D01*
X9961143Y-13857000D01*
X9961143Y-13928429D01*
X9946857Y-13985571D01*
X9932571Y-14014143D01*
X9918286Y-14028429D01*
X9889714Y-14042714D01*
X9861143Y-14042714D01*
X9832571Y-14028429D01*
X9818286Y-14014143D01*
X9804000Y-13985571D01*
X9789714Y-13928429D01*
X9789714Y-13857000D01*
X9804000Y-13799857D01*
X9818286Y-13771286D01*
X9832571Y-13757000D01*
X9861143Y-13742714D01*
X10146857Y-13742714D02*
X10175428Y-13742714D01*
X10204000Y-13757000D01*
X10218286Y-13771286D01*
X10232571Y-13799857D01*
X10246857Y-13857000D01*
X10246857Y-13928429D01*
X10232571Y-13985571D01*
X10218286Y-14014143D01*
X10204000Y-14028429D01*
X10175428Y-14042714D01*
X10146857Y-14042714D01*
X10118286Y-14028429D01*
X10104000Y-14014143D01*
X10089714Y-13985571D01*
X10075428Y-13928429D01*
X10075428Y-13857000D01*
X10089714Y-13799857D01*
X10104000Y-13771286D01*
X10118286Y-13757000D01*
X10146857Y-13742714D01*
X10375428Y-14042714D02*
X10375428Y-13842714D01*
X10375428Y-13871286D02*
X10389714Y-13857000D01*
X10418286Y-13842714D01*
X10461143Y-13842714D01*
X10489714Y-13857000D01*
X10504000Y-13885571D01*
X10504000Y-14042714D01*
X10504000Y-13885571D02*
X10518286Y-13857000D01*
X10546857Y-13842714D01*
X10589714Y-13842714D01*
X10618286Y-13857000D01*
X10632571Y-13885571D01*
X10632571Y-14042714D01*
X10775428Y-14042714D02*
X10775428Y-13842714D01*
X10775428Y-13871286D02*
X10789714Y-13857000D01*
X10818286Y-13842714D01*
X10861143Y-13842714D01*
X10889714Y-13857000D01*
X10904000Y-13885571D01*
X10904000Y-14042714D01*
X10904000Y-13885571D02*
X10918286Y-13857000D01*
X10946857Y-13842714D01*
X10989714Y-13842714D01*
X11018286Y-13857000D01*
X11032571Y-13885571D01*
X11032571Y-14042714D01*
X11618286Y-13728429D02*
X11361143Y-14114143D01*
X12004000Y-13742714D02*
X12032571Y-13742714D01*
X12061143Y-13757000D01*
X12075428Y-13771286D01*
X12089714Y-13799857D01*
X12104000Y-13857000D01*
X12104000Y-13928429D01*
X12089714Y-13985571D01*
X12075428Y-14014143D01*
X12061143Y-14028429D01*
X12032571Y-14042714D01*
X12004000Y-14042714D01*
X11975428Y-14028429D01*
X11961143Y-14014143D01*
X11946857Y-13985571D01*
X11932571Y-13928429D01*
X11932571Y-13857000D01*
X11946857Y-13799857D01*
X11961143Y-13771286D01*
X11975428Y-13757000D01*
X12004000Y-13742714D01*
X12232571Y-14014143D02*
X12246857Y-14028429D01*
X12232571Y-14042714D01*
X12218286Y-14028429D01*
X12232571Y-14014143D01*
X12232571Y-14042714D01*
X12432571Y-13742714D02*
X12461143Y-13742714D01*
X12489714Y-13757000D01*
X12504000Y-13771286D01*
X12518286Y-13799857D01*
X12532571Y-13857000D01*
X12532571Y-13928429D01*
X12518286Y-13985571D01*
X12504000Y-14014143D01*
X12489714Y-14028429D01*
X12461143Y-14042714D01*
X12432571Y-14042714D01*
X12404000Y-14028429D01*
X12389714Y-14014143D01*
X12375428Y-13985571D01*
X12361143Y-13928429D01*
X12361143Y-13857000D01*
X12375428Y-13799857D01*
X12389714Y-13771286D01*
X12404000Y-13757000D01*
X12432571Y-13742714D01*
X12632571Y-13742714D02*
X12818286Y-13742714D01*
X12718286Y-13857000D01*
X12761143Y-13857000D01*
X12789714Y-13871286D01*
X12804000Y-13885571D01*
X12818286Y-13914143D01*
X12818286Y-13985571D01*
X12804000Y-14014143D01*
X12789714Y-14028429D01*
X12761143Y-14042714D01*
X12675428Y-14042714D01*
X12646857Y-14028429D01*
X12632571Y-14014143D01*
X12961143Y-14042714D02*
X13018286Y-14042714D01*
X13046857Y-14028429D01*
X13061143Y-14014143D01*
X13089714Y-13971286D01*
X13104000Y-13914143D01*
X13104000Y-13799857D01*
X13089714Y-13771286D01*
X13075428Y-13757000D01*
X13046857Y-13742714D01*
X12989714Y-13742714D01*
X12961143Y-13757000D01*
X12946857Y-13771286D01*
X12932571Y-13799857D01*
X12932571Y-13871286D01*
X12946857Y-13899857D01*
X12961143Y-13914143D01*
X12989714Y-13928429D01*
X13046857Y-13928429D01*
X13075428Y-13914143D01*
X13089714Y-13899857D01*
X13104000Y-13871286D01*
X13218286Y-13742714D02*
X13218286Y-13799857D01*
X13332571Y-13742714D02*
X13332571Y-13799857D01*
X13775428Y-14157000D02*
X13761143Y-14142714D01*
X13732571Y-14099857D01*
X13718286Y-14071286D01*
X13704000Y-14028429D01*
X13689714Y-13957000D01*
X13689714Y-13899857D01*
X13704000Y-13828429D01*
X13718286Y-13785571D01*
X13732571Y-13757000D01*
X13761143Y-13714143D01*
X13775428Y-13699857D01*
X13861143Y-13742714D02*
X14061143Y-13742714D01*
X13932571Y-14042714D01*
X14146857Y-13742714D02*
X14346857Y-13742714D01*
X14218286Y-14042714D01*
X14689714Y-14042714D02*
X14689714Y-13742714D01*
X14818286Y-14042714D02*
X14818286Y-13885571D01*
X14804000Y-13857000D01*
X14775428Y-13842714D01*
X14732571Y-13842714D01*
X14704000Y-13857000D01*
X14689714Y-13871286D01*
X15004000Y-14042714D02*
X14975428Y-14028429D01*
X14961143Y-14014143D01*
X14946857Y-13985571D01*
X14946857Y-13899857D01*
X14961143Y-13871286D01*
X14975428Y-13857000D01*
X15004000Y-13842714D01*
X15046857Y-13842714D01*
X15075428Y-13857000D01*
X15089714Y-13871286D01*
X15104000Y-13899857D01*
X15104000Y-13985571D01*
X15089714Y-14014143D01*
X15075428Y-14028429D01*
X15046857Y-14042714D01*
X15004000Y-14042714D01*
X15275428Y-14042714D02*
X15246857Y-14028429D01*
X15232571Y-13999857D01*
X15232571Y-13742714D01*
X15504000Y-14028429D02*
X15475428Y-14042714D01*
X15418286Y-14042714D01*
X15389714Y-14028429D01*
X15375428Y-13999857D01*
X15375428Y-13885571D01*
X15389714Y-13857000D01*
X15418286Y-13842714D01*
X15475428Y-13842714D01*
X15504000Y-13857000D01*
X15518286Y-13885571D01*
X15518286Y-13914143D01*
X15375428Y-13942714D01*
X15632571Y-14028429D02*
X15661143Y-14042714D01*
X15718286Y-14042714D01*
X15746857Y-14028429D01*
X15761143Y-13999857D01*
X15761143Y-13985571D01*
X15746857Y-13957000D01*
X15718286Y-13942714D01*
X15675428Y-13942714D01*
X15646857Y-13928429D01*
X15632571Y-13899857D01*
X15632571Y-13885571D01*
X15646857Y-13857000D01*
X15675428Y-13842714D01*
X15718286Y-13842714D01*
X15746857Y-13857000D01*
X15861143Y-14157000D02*
X15875428Y-14142714D01*
X15904000Y-14099857D01*
X15918286Y-14071286D01*
X15932571Y-14028429D01*
X15946857Y-13957000D01*
X15946857Y-13899857D01*
X15932571Y-13828429D01*
X15918286Y-13785571D01*
X15904000Y-13757000D01*
X15875428Y-13714143D01*
X15861143Y-13699857D01*
X8987400Y-14252200D02*
X9089000Y-14353800D01*
X9089000Y-14252200D02*
X8987400Y-14353800D01*
X9089000Y-14303000D02*
G75*
G03*
X9089000Y-14303000I-50800J0D01*
G01*
X9532571Y-14438714D02*
X9361143Y-14438714D01*
X9446857Y-14438714D02*
X9446857Y-14138714D01*
X9418286Y-14181571D01*
X9389714Y-14210143D01*
X9361143Y-14224429D01*
X9661143Y-14410143D02*
X9675428Y-14424429D01*
X9661143Y-14438714D01*
X9646857Y-14424429D01*
X9661143Y-14410143D01*
X9661143Y-14438714D01*
X9861143Y-14138714D02*
X9889714Y-14138714D01*
X9918286Y-14153000D01*
X9932571Y-14167286D01*
X9946857Y-14195857D01*
X9961143Y-14253000D01*
X9961143Y-14324429D01*
X9946857Y-14381571D01*
X9932571Y-14410143D01*
X9918286Y-14424429D01*
X9889714Y-14438714D01*
X9861143Y-14438714D01*
X9832571Y-14424429D01*
X9818286Y-14410143D01*
X9804000Y-14381571D01*
X9789714Y-14324429D01*
X9789714Y-14253000D01*
X9804000Y-14195857D01*
X9818286Y-14167286D01*
X9832571Y-14153000D01*
X9861143Y-14138714D01*
X10075428Y-14167286D02*
X10089714Y-14153000D01*
X10118286Y-14138714D01*
X10189714Y-14138714D01*
X10218286Y-14153000D01*
X10232571Y-14167286D01*
X10246857Y-14195857D01*
X10246857Y-14224429D01*
X10232571Y-14267286D01*
X10061143Y-14438714D01*
X10246857Y-14438714D01*
X10375428Y-14438714D02*
X10375428Y-14238714D01*
X10375428Y-14267286D02*
X10389714Y-14253000D01*
X10418286Y-14238714D01*
X10461143Y-14238714D01*
X10489714Y-14253000D01*
X10504000Y-14281571D01*
X10504000Y-14438714D01*
X10504000Y-14281571D02*
X10518286Y-14253000D01*
X10546857Y-14238714D01*
X10589714Y-14238714D01*
X10618286Y-14253000D01*
X10632571Y-14281571D01*
X10632571Y-14438714D01*
X10775428Y-14438714D02*
X10775428Y-14238714D01*
X10775428Y-14267286D02*
X10789714Y-14253000D01*
X10818286Y-14238714D01*
X10861143Y-14238714D01*
X10889714Y-14253000D01*
X10904000Y-14281571D01*
X10904000Y-14438714D01*
X10904000Y-14281571D02*
X10918286Y-14253000D01*
X10946857Y-14238714D01*
X10989714Y-14238714D01*
X11018286Y-14253000D01*
X11032571Y-14281571D01*
X11032571Y-14438714D01*
X11618286Y-14124429D02*
X11361143Y-14510143D01*
X12004000Y-14138714D02*
X12032571Y-14138714D01*
X12061143Y-14153000D01*
X12075428Y-14167286D01*
X12089714Y-14195857D01*
X12104000Y-14253000D01*
X12104000Y-14324429D01*
X12089714Y-14381571D01*
X12075428Y-14410143D01*
X12061143Y-14424429D01*
X12032571Y-14438714D01*
X12004000Y-14438714D01*
X11975428Y-14424429D01*
X11961143Y-14410143D01*
X11946857Y-14381571D01*
X11932571Y-14324429D01*
X11932571Y-14253000D01*
X11946857Y-14195857D01*
X11961143Y-14167286D01*
X11975428Y-14153000D01*
X12004000Y-14138714D01*
X12232571Y-14410143D02*
X12246857Y-14424429D01*
X12232571Y-14438714D01*
X12218286Y-14424429D01*
X12232571Y-14410143D01*
X12232571Y-14438714D01*
X12432571Y-14138714D02*
X12461143Y-14138714D01*
X12489714Y-14153000D01*
X12504000Y-14167286D01*
X12518286Y-14195857D01*
X12532571Y-14253000D01*
X12532571Y-14324429D01*
X12518286Y-14381571D01*
X12504000Y-14410143D01*
X12489714Y-14424429D01*
X12461143Y-14438714D01*
X12432571Y-14438714D01*
X12404000Y-14424429D01*
X12389714Y-14410143D01*
X12375428Y-14381571D01*
X12361143Y-14324429D01*
X12361143Y-14253000D01*
X12375428Y-14195857D01*
X12389714Y-14167286D01*
X12404000Y-14153000D01*
X12432571Y-14138714D01*
X12789714Y-14238714D02*
X12789714Y-14438714D01*
X12718286Y-14124429D02*
X12646857Y-14338714D01*
X12832571Y-14338714D01*
X13004000Y-14138714D02*
X13032571Y-14138714D01*
X13061143Y-14153000D01*
X13075428Y-14167286D01*
X13089714Y-14195857D01*
X13104000Y-14253000D01*
X13104000Y-14324429D01*
X13089714Y-14381571D01*
X13075428Y-14410143D01*
X13061143Y-14424429D01*
X13032571Y-14438714D01*
X13004000Y-14438714D01*
X12975428Y-14424429D01*
X12961143Y-14410143D01*
X12946857Y-14381571D01*
X12932571Y-14324429D01*
X12932571Y-14253000D01*
X12946857Y-14195857D01*
X12961143Y-14167286D01*
X12975428Y-14153000D01*
X13004000Y-14138714D01*
X13218286Y-14138714D02*
X13218286Y-14195857D01*
X13332571Y-14138714D02*
X13332571Y-14195857D01*
X13775428Y-14553000D02*
X13761143Y-14538714D01*
X13732571Y-14495857D01*
X13718286Y-14467286D01*
X13704000Y-14424429D01*
X13689714Y-14353000D01*
X13689714Y-14295857D01*
X13704000Y-14224429D01*
X13718286Y-14181571D01*
X13732571Y-14153000D01*
X13761143Y-14110143D01*
X13775428Y-14095857D01*
X13932571Y-14267286D02*
X13904000Y-14253000D01*
X13889714Y-14238714D01*
X13875428Y-14210143D01*
X13875428Y-14195857D01*
X13889714Y-14167286D01*
X13904000Y-14153000D01*
X13932571Y-14138714D01*
X13989714Y-14138714D01*
X14018286Y-14153000D01*
X14032571Y-14167286D01*
X14046857Y-14195857D01*
X14046857Y-14210143D01*
X14032571Y-14238714D01*
X14018286Y-14253000D01*
X13989714Y-14267286D01*
X13932571Y-14267286D01*
X13904000Y-14281571D01*
X13889714Y-14295857D01*
X13875428Y-14324429D01*
X13875428Y-14381571D01*
X13889714Y-14410143D01*
X13904000Y-14424429D01*
X13932571Y-14438714D01*
X13989714Y-14438714D01*
X14018286Y-14424429D01*
X14032571Y-14410143D01*
X14046857Y-14381571D01*
X14046857Y-14324429D01*
X14032571Y-14295857D01*
X14018286Y-14281571D01*
X13989714Y-14267286D01*
X14404000Y-14438714D02*
X14404000Y-14138714D01*
X14532571Y-14438714D02*
X14532571Y-14281571D01*
X14518286Y-14253000D01*
X14489714Y-14238714D01*
X14446857Y-14238714D01*
X14418286Y-14253000D01*
X14404000Y-14267286D01*
X14718286Y-14438714D02*
X14689714Y-14424429D01*
X14675428Y-14410143D01*
X14661143Y-14381571D01*
X14661143Y-14295857D01*
X14675428Y-14267286D01*
X14689714Y-14253000D01*
X14718286Y-14238714D01*
X14761143Y-14238714D01*
X14789714Y-14253000D01*
X14804000Y-14267286D01*
X14818286Y-14295857D01*
X14818286Y-14381571D01*
X14804000Y-14410143D01*
X14789714Y-14424429D01*
X14761143Y-14438714D01*
X14718286Y-14438714D01*
X14989714Y-14438714D02*
X14961143Y-14424429D01*
X14946857Y-14395857D01*
X14946857Y-14138714D01*
X15218286Y-14424429D02*
X15189714Y-14438714D01*
X15132571Y-14438714D01*
X15104000Y-14424429D01*
X15089714Y-14395857D01*
X15089714Y-14281571D01*
X15104000Y-14253000D01*
X15132571Y-14238714D01*
X15189714Y-14238714D01*
X15218286Y-14253000D01*
X15232571Y-14281571D01*
X15232571Y-14310143D01*
X15089714Y-14338714D01*
X15346857Y-14424429D02*
X15375428Y-14438714D01*
X15432571Y-14438714D01*
X15461143Y-14424429D01*
X15475428Y-14395857D01*
X15475428Y-14381571D01*
X15461143Y-14353000D01*
X15432571Y-14338714D01*
X15389714Y-14338714D01*
X15361143Y-14324429D01*
X15346857Y-14295857D01*
X15346857Y-14281571D01*
X15361143Y-14253000D01*
X15389714Y-14238714D01*
X15432571Y-14238714D01*
X15461143Y-14253000D01*
X15575428Y-14553000D02*
X15589714Y-14538714D01*
X15618286Y-14495857D01*
X15632571Y-14467286D01*
X15646857Y-14424429D01*
X15661143Y-14353000D01*
X15661143Y-14295857D01*
X15646857Y-14224429D01*
X15632571Y-14181571D01*
X15618286Y-14153000D01*
X15589714Y-14110143D01*
X15575428Y-14095857D01*
X8769000Y-14539000D02*
X9089000Y-14859000D01*
X9089000Y-14539000D02*
X8769000Y-14859000D01*
X8929000Y-14539000D02*
X8929000Y-14859000D01*
X8769000Y-14699000D02*
X9089000Y-14699000D01*
X9346857Y-14534714D02*
X9532571Y-14534714D01*
X9432571Y-14649000D01*
X9475428Y-14649000D01*
X9504000Y-14663286D01*
X9518286Y-14677571D01*
X9532571Y-14706143D01*
X9532571Y-14777571D01*
X9518286Y-14806143D01*
X9504000Y-14820429D01*
X9475428Y-14834714D01*
X9389714Y-14834714D01*
X9361143Y-14820429D01*
X9346857Y-14806143D01*
X9661143Y-14806143D02*
X9675428Y-14820429D01*
X9661143Y-14834714D01*
X9646857Y-14820429D01*
X9661143Y-14806143D01*
X9661143Y-14834714D01*
X9789714Y-14563286D02*
X9804000Y-14549000D01*
X9832571Y-14534714D01*
X9904000Y-14534714D01*
X9932571Y-14549000D01*
X9946857Y-14563286D01*
X9961143Y-14591857D01*
X9961143Y-14620429D01*
X9946857Y-14663286D01*
X9775428Y-14834714D01*
X9961143Y-14834714D01*
X10146857Y-14534714D02*
X10175428Y-14534714D01*
X10204000Y-14549000D01*
X10218286Y-14563286D01*
X10232571Y-14591857D01*
X10246857Y-14649000D01*
X10246857Y-14720429D01*
X10232571Y-14777571D01*
X10218286Y-14806143D01*
X10204000Y-14820429D01*
X10175428Y-14834714D01*
X10146857Y-14834714D01*
X10118286Y-14820429D01*
X10104000Y-14806143D01*
X10089714Y-14777571D01*
X10075428Y-14720429D01*
X10075428Y-14649000D01*
X10089714Y-14591857D01*
X10104000Y-14563286D01*
X10118286Y-14549000D01*
X10146857Y-14534714D01*
X10375428Y-14834714D02*
X10375428Y-14634714D01*
X10375428Y-14663286D02*
X10389714Y-14649000D01*
X10418286Y-14634714D01*
X10461143Y-14634714D01*
X10489714Y-14649000D01*
X10504000Y-14677571D01*
X10504000Y-14834714D01*
X10504000Y-14677571D02*
X10518286Y-14649000D01*
X10546857Y-14634714D01*
X10589714Y-14634714D01*
X10618286Y-14649000D01*
X10632571Y-14677571D01*
X10632571Y-14834714D01*
X10775428Y-14834714D02*
X10775428Y-14634714D01*
X10775428Y-14663286D02*
X10789714Y-14649000D01*
X10818286Y-14634714D01*
X10861143Y-14634714D01*
X10889714Y-14649000D01*
X10904000Y-14677571D01*
X10904000Y-14834714D01*
X10904000Y-14677571D02*
X10918286Y-14649000D01*
X10946857Y-14634714D01*
X10989714Y-14634714D01*
X11018286Y-14649000D01*
X11032571Y-14677571D01*
X11032571Y-14834714D01*
X11618286Y-14520429D02*
X11361143Y-14906143D01*
X12004000Y-14534714D02*
X12032571Y-14534714D01*
X12061143Y-14549000D01*
X12075428Y-14563286D01*
X12089714Y-14591857D01*
X12104000Y-14649000D01*
X12104000Y-14720429D01*
X12089714Y-14777571D01*
X12075428Y-14806143D01*
X12061143Y-14820429D01*
X12032571Y-14834714D01*
X12004000Y-14834714D01*
X11975428Y-14820429D01*
X11961143Y-14806143D01*
X11946857Y-14777571D01*
X11932571Y-14720429D01*
X11932571Y-14649000D01*
X11946857Y-14591857D01*
X11961143Y-14563286D01*
X11975428Y-14549000D01*
X12004000Y-14534714D01*
X12232571Y-14806143D02*
X12246857Y-14820429D01*
X12232571Y-14834714D01*
X12218286Y-14820429D01*
X12232571Y-14806143D01*
X12232571Y-14834714D01*
X12532571Y-14834714D02*
X12361143Y-14834714D01*
X12446857Y-14834714D02*
X12446857Y-14534714D01*
X12418286Y-14577571D01*
X12389714Y-14606143D01*
X12361143Y-14620429D01*
X12646857Y-14563286D02*
X12661143Y-14549000D01*
X12689714Y-14534714D01*
X12761143Y-14534714D01*
X12789714Y-14549000D01*
X12804000Y-14563286D01*
X12818286Y-14591857D01*
X12818286Y-14620429D01*
X12804000Y-14663286D01*
X12632571Y-14834714D01*
X12818286Y-14834714D01*
X13075428Y-14534714D02*
X13018286Y-14534714D01*
X12989714Y-14549000D01*
X12975428Y-14563286D01*
X12946857Y-14606143D01*
X12932571Y-14663286D01*
X12932571Y-14777571D01*
X12946857Y-14806143D01*
X12961143Y-14820429D01*
X12989714Y-14834714D01*
X13046857Y-14834714D01*
X13075428Y-14820429D01*
X13089714Y-14806143D01*
X13104000Y-14777571D01*
X13104000Y-14706143D01*
X13089714Y-14677571D01*
X13075428Y-14663286D01*
X13046857Y-14649000D01*
X12989714Y-14649000D01*
X12961143Y-14663286D01*
X12946857Y-14677571D01*
X12932571Y-14706143D01*
X13218286Y-14534714D02*
X13218286Y-14591857D01*
X13332571Y-14534714D02*
X13332571Y-14591857D01*
X13775428Y-14949000D02*
X13761143Y-14934714D01*
X13732571Y-14891857D01*
X13718286Y-14863286D01*
X13704000Y-14820429D01*
X13689714Y-14749000D01*
X13689714Y-14691857D01*
X13704000Y-14620429D01*
X13718286Y-14577571D01*
X13732571Y-14549000D01*
X13761143Y-14506143D01*
X13775428Y-14491857D01*
X14018286Y-14634714D02*
X14018286Y-14834714D01*
X13946857Y-14520429D02*
X13875428Y-14734714D01*
X14061143Y-14734714D01*
X14404000Y-14834714D02*
X14404000Y-14534714D01*
X14532571Y-14834714D02*
X14532571Y-14677571D01*
X14518286Y-14649000D01*
X14489714Y-14634714D01*
X14446857Y-14634714D01*
X14418286Y-14649000D01*
X14404000Y-14663286D01*
X14718286Y-14834714D02*
X14689714Y-14820429D01*
X14675428Y-14806143D01*
X14661143Y-14777571D01*
X14661143Y-14691857D01*
X14675428Y-14663286D01*
X14689714Y-14649000D01*
X14718286Y-14634714D01*
X14761143Y-14634714D01*
X14789714Y-14649000D01*
X14804000Y-14663286D01*
X14818286Y-14691857D01*
X14818286Y-14777571D01*
X14804000Y-14806143D01*
X14789714Y-14820429D01*
X14761143Y-14834714D01*
X14718286Y-14834714D01*
X14989714Y-14834714D02*
X14961143Y-14820429D01*
X14946857Y-14791857D01*
X14946857Y-14534714D01*
X15218286Y-14820429D02*
X15189714Y-14834714D01*
X15132571Y-14834714D01*
X15104000Y-14820429D01*
X15089714Y-14791857D01*
X15089714Y-14677571D01*
X15104000Y-14649000D01*
X15132571Y-14634714D01*
X15189714Y-14634714D01*
X15218286Y-14649000D01*
X15232571Y-14677571D01*
X15232571Y-14706143D01*
X15089714Y-14734714D01*
X15346857Y-14820429D02*
X15375428Y-14834714D01*
X15432571Y-14834714D01*
X15461143Y-14820429D01*
X15475428Y-14791857D01*
X15475428Y-14777571D01*
X15461143Y-14749000D01*
X15432571Y-14734714D01*
X15389714Y-14734714D01*
X15361143Y-14720429D01*
X15346857Y-14691857D01*
X15346857Y-14677571D01*
X15361143Y-14649000D01*
X15389714Y-14634714D01*
X15432571Y-14634714D01*
X15461143Y-14649000D01*
X15575428Y-14949000D02*
X15589714Y-14934714D01*
X15618286Y-14891857D01*
X15632571Y-14863286D01*
X15646857Y-14820429D01*
X15661143Y-14749000D01*
X15661143Y-14691857D01*
X15646857Y-14620429D01*
X15632571Y-14577571D01*
X15618286Y-14549000D01*
X15589714Y-14506143D01*
X15575428Y-14491857D01*
X9024000Y-15116500D02*
X9089000Y-15181500D01*
X9089000Y-15116500D02*
X9024000Y-15181500D01*
X9079481Y-15171981D02*
X9079481Y-15126019D01*
X9033519Y-15126019D01*
X9033519Y-15171981D01*
X9079481Y-15171981D01*
X9432571Y-14984714D02*
X9461143Y-14984714D01*
X9489714Y-14999000D01*
X9504000Y-15013286D01*
X9518286Y-15041857D01*
X9532571Y-15099000D01*
X9532571Y-15170429D01*
X9518286Y-15227571D01*
X9504000Y-15256143D01*
X9489714Y-15270429D01*
X9461143Y-15284714D01*
X9432571Y-15284714D01*
X9404000Y-15270429D01*
X9389714Y-15256143D01*
X9375428Y-15227571D01*
X9361143Y-15170429D01*
X9361143Y-15099000D01*
X9375428Y-15041857D01*
X9389714Y-15013286D01*
X9404000Y-14999000D01*
X9432571Y-14984714D01*
X9661143Y-15256143D02*
X9675428Y-15270429D01*
X9661143Y-15284714D01*
X9646857Y-15270429D01*
X9661143Y-15256143D01*
X9661143Y-15284714D01*
X9932571Y-14984714D02*
X9875428Y-14984714D01*
X9846857Y-14999000D01*
X9832571Y-15013286D01*
X9804000Y-15056143D01*
X9789714Y-15113286D01*
X9789714Y-15227571D01*
X9804000Y-15256143D01*
X9818286Y-15270429D01*
X9846857Y-15284714D01*
X9904000Y-15284714D01*
X9932571Y-15270429D01*
X9946857Y-15256143D01*
X9961143Y-15227571D01*
X9961143Y-15156143D01*
X9946857Y-15127571D01*
X9932571Y-15113286D01*
X9904000Y-15099000D01*
X9846857Y-15099000D01*
X9818286Y-15113286D01*
X9804000Y-15127571D01*
X9789714Y-15156143D01*
X10232571Y-14984714D02*
X10089714Y-14984714D01*
X10075428Y-15127571D01*
X10089714Y-15113286D01*
X10118286Y-15099000D01*
X10189714Y-15099000D01*
X10218286Y-15113286D01*
X10232571Y-15127571D01*
X10246857Y-15156143D01*
X10246857Y-15227571D01*
X10232571Y-15256143D01*
X10218286Y-15270429D01*
X10189714Y-15284714D01*
X10118286Y-15284714D01*
X10089714Y-15270429D01*
X10075428Y-15256143D01*
X10375428Y-15284714D02*
X10375428Y-15084714D01*
X10375428Y-15113286D02*
X10389714Y-15099000D01*
X10418286Y-15084714D01*
X10461143Y-15084714D01*
X10489714Y-15099000D01*
X10504000Y-15127571D01*
X10504000Y-15284714D01*
X10504000Y-15127571D02*
X10518286Y-15099000D01*
X10546857Y-15084714D01*
X10589714Y-15084714D01*
X10618286Y-15099000D01*
X10632571Y-15127571D01*
X10632571Y-15284714D01*
X10775428Y-15284714D02*
X10775428Y-15084714D01*
X10775428Y-15113286D02*
X10789714Y-15099000D01*
X10818286Y-15084714D01*
X10861143Y-15084714D01*
X10889714Y-15099000D01*
X10904000Y-15127571D01*
X10904000Y-15284714D01*
X10904000Y-15127571D02*
X10918286Y-15099000D01*
X10946857Y-15084714D01*
X10989714Y-15084714D01*
X11018286Y-15099000D01*
X11032571Y-15127571D01*
X11032571Y-15284714D01*
X11618286Y-14970429D02*
X11361143Y-15356143D01*
X12004000Y-14984714D02*
X12032571Y-14984714D01*
X12061143Y-14999000D01*
X12075428Y-15013286D01*
X12089714Y-15041857D01*
X12104000Y-15099000D01*
X12104000Y-15170429D01*
X12089714Y-15227571D01*
X12075428Y-15256143D01*
X12061143Y-15270429D01*
X12032571Y-15284714D01*
X12004000Y-15284714D01*
X11975428Y-15270429D01*
X11961143Y-15256143D01*
X11946857Y-15227571D01*
X11932571Y-15170429D01*
X11932571Y-15099000D01*
X11946857Y-15041857D01*
X11961143Y-15013286D01*
X11975428Y-14999000D01*
X12004000Y-14984714D01*
X12232571Y-15256143D02*
X12246857Y-15270429D01*
X12232571Y-15284714D01*
X12218286Y-15270429D01*
X12232571Y-15256143D01*
X12232571Y-15284714D01*
X12432571Y-14984714D02*
X12461143Y-14984714D01*
X12489714Y-14999000D01*
X12504000Y-15013286D01*
X12518286Y-15041857D01*
X12532571Y-15099000D01*
X12532571Y-15170429D01*
X12518286Y-15227571D01*
X12504000Y-15256143D01*
X12489714Y-15270429D01*
X12461143Y-15284714D01*
X12432571Y-15284714D01*
X12404000Y-15270429D01*
X12389714Y-15256143D01*
X12375428Y-15227571D01*
X12361143Y-15170429D01*
X12361143Y-15099000D01*
X12375428Y-15041857D01*
X12389714Y-15013286D01*
X12404000Y-14999000D01*
X12432571Y-14984714D01*
X12646857Y-15013286D02*
X12661143Y-14999000D01*
X12689714Y-14984714D01*
X12761143Y-14984714D01*
X12789714Y-14999000D01*
X12804000Y-15013286D01*
X12818286Y-15041857D01*
X12818286Y-15070429D01*
X12804000Y-15113286D01*
X12632571Y-15284714D01*
X12818286Y-15284714D01*
X13075428Y-14984714D02*
X13018286Y-14984714D01*
X12989714Y-14999000D01*
X12975428Y-15013286D01*
X12946857Y-15056143D01*
X12932571Y-15113286D01*
X12932571Y-15227571D01*
X12946857Y-15256143D01*
X12961143Y-15270429D01*
X12989714Y-15284714D01*
X13046857Y-15284714D01*
X13075428Y-15270429D01*
X13089714Y-15256143D01*
X13104000Y-15227571D01*
X13104000Y-15156143D01*
X13089714Y-15127571D01*
X13075428Y-15113286D01*
X13046857Y-15099000D01*
X12989714Y-15099000D01*
X12961143Y-15113286D01*
X12946857Y-15127571D01*
X12932571Y-15156143D01*
X13218286Y-14984714D02*
X13218286Y-15041857D01*
X13332571Y-14984714D02*
X13332571Y-15041857D01*
X13775428Y-15399000D02*
X13761143Y-15384714D01*
X13732571Y-15341857D01*
X13718286Y-15313286D01*
X13704000Y-15270429D01*
X13689714Y-15199000D01*
X13689714Y-15141857D01*
X13704000Y-15070429D01*
X13718286Y-15027571D01*
X13732571Y-14999000D01*
X13761143Y-14956143D01*
X13775428Y-14941857D01*
X13875428Y-15013286D02*
X13889714Y-14999000D01*
X13918286Y-14984714D01*
X13989714Y-14984714D01*
X14018286Y-14999000D01*
X14032571Y-15013286D01*
X14046857Y-15041857D01*
X14046857Y-15070429D01*
X14032571Y-15113286D01*
X13861143Y-15284714D01*
X14046857Y-15284714D01*
X14404000Y-15284714D02*
X14404000Y-14984714D01*
X14532571Y-15284714D02*
X14532571Y-15127571D01*
X14518286Y-15099000D01*
X14489714Y-15084714D01*
X14446857Y-15084714D01*
X14418286Y-15099000D01*
X14404000Y-15113286D01*
X14718286Y-15284714D02*
X14689714Y-15270429D01*
X14675428Y-15256143D01*
X14661143Y-15227571D01*
X14661143Y-15141857D01*
X14675428Y-15113286D01*
X14689714Y-15099000D01*
X14718286Y-15084714D01*
X14761143Y-15084714D01*
X14789714Y-15099000D01*
X14804000Y-15113286D01*
X14818286Y-15141857D01*
X14818286Y-15227571D01*
X14804000Y-15256143D01*
X14789714Y-15270429D01*
X14761143Y-15284714D01*
X14718286Y-15284714D01*
X14989714Y-15284714D02*
X14961143Y-15270429D01*
X14946857Y-15241857D01*
X14946857Y-14984714D01*
X15218286Y-15270429D02*
X15189714Y-15284714D01*
X15132571Y-15284714D01*
X15104000Y-15270429D01*
X15089714Y-15241857D01*
X15089714Y-15127571D01*
X15104000Y-15099000D01*
X15132571Y-15084714D01*
X15189714Y-15084714D01*
X15218286Y-15099000D01*
X15232571Y-15127571D01*
X15232571Y-15156143D01*
X15089714Y-15184714D01*
X15346857Y-15270429D02*
X15375428Y-15284714D01*
X15432571Y-15284714D01*
X15461143Y-15270429D01*
X15475428Y-15241857D01*
X15475428Y-15227571D01*
X15461143Y-15199000D01*
X15432571Y-15184714D01*
X15389714Y-15184714D01*
X15361143Y-15170429D01*
X15346857Y-15141857D01*
X15346857Y-15127571D01*
X15361143Y-15099000D01*
X15389714Y-15084714D01*
X15432571Y-15084714D01*
X15461143Y-15099000D01*
X15575428Y-15399000D02*
X15589714Y-15384714D01*
X15618286Y-15341857D01*
X15632571Y-15313286D01*
X15646857Y-15270429D01*
X15661143Y-15199000D01*
X15661143Y-15141857D01*
X15646857Y-15070429D01*
X15632571Y-15027571D01*
X15618286Y-14999000D01*
X15589714Y-14956143D01*
X15575428Y-14941857D01*
X16118286Y-15399000D02*
X16104000Y-15384714D01*
X16075428Y-15341857D01*
X16061143Y-15313286D01*
X16046857Y-15270429D01*
X16032571Y-15199000D01*
X16032571Y-15141857D01*
X16046857Y-15070429D01*
X16061143Y-15027571D01*
X16075428Y-14999000D01*
X16104000Y-14956143D01*
X16118286Y-14941857D01*
X16232571Y-15084714D02*
X16232571Y-15284714D01*
X16232571Y-15113286D02*
X16246857Y-15099000D01*
X16275428Y-15084714D01*
X16318286Y-15084714D01*
X16346857Y-15099000D01*
X16361143Y-15127571D01*
X16361143Y-15284714D01*
X16546857Y-15284714D02*
X16518286Y-15270429D01*
X16504000Y-15256143D01*
X16489714Y-15227571D01*
X16489714Y-15141857D01*
X16504000Y-15113286D01*
X16518286Y-15099000D01*
X16546857Y-15084714D01*
X16589714Y-15084714D01*
X16618286Y-15099000D01*
X16632571Y-15113286D01*
X16646857Y-15141857D01*
X16646857Y-15227571D01*
X16632571Y-15256143D01*
X16618286Y-15270429D01*
X16589714Y-15284714D01*
X16546857Y-15284714D01*
X16732571Y-15084714D02*
X16846857Y-15084714D01*
X16775428Y-14984714D02*
X16775428Y-15241857D01*
X16789714Y-15270429D01*
X16818286Y-15284714D01*
X16846857Y-15284714D01*
X17175428Y-15084714D02*
X17175428Y-15384714D01*
X17175428Y-15099000D02*
X17204000Y-15084714D01*
X17261143Y-15084714D01*
X17289714Y-15099000D01*
X17304000Y-15113286D01*
X17318286Y-15141857D01*
X17318286Y-15227571D01*
X17304000Y-15256143D01*
X17289714Y-15270429D01*
X17261143Y-15284714D01*
X17204000Y-15284714D01*
X17175428Y-15270429D01*
X17489714Y-15284714D02*
X17461143Y-15270429D01*
X17446857Y-15241857D01*
X17446857Y-14984714D01*
X17732571Y-15284714D02*
X17732571Y-15127571D01*
X17718286Y-15099000D01*
X17689714Y-15084714D01*
X17632571Y-15084714D01*
X17604000Y-15099000D01*
X17732571Y-15270429D02*
X17704000Y-15284714D01*
X17632571Y-15284714D01*
X17604000Y-15270429D01*
X17589714Y-15241857D01*
X17589714Y-15213286D01*
X17604000Y-15184714D01*
X17632571Y-15170429D01*
X17704000Y-15170429D01*
X17732571Y-15156143D01*
X17832571Y-15084714D02*
X17946857Y-15084714D01*
X17875428Y-14984714D02*
X17875428Y-15241857D01*
X17889714Y-15270429D01*
X17918286Y-15284714D01*
X17946857Y-15284714D01*
X18161143Y-15270429D02*
X18132571Y-15284714D01*
X18075428Y-15284714D01*
X18046857Y-15270429D01*
X18032571Y-15241857D01*
X18032571Y-15127571D01*
X18046857Y-15099000D01*
X18075428Y-15084714D01*
X18132571Y-15084714D01*
X18161143Y-15099000D01*
X18175428Y-15127571D01*
X18175428Y-15156143D01*
X18032571Y-15184714D01*
X18432571Y-15284714D02*
X18432571Y-14984714D01*
X18432571Y-15270429D02*
X18404000Y-15284714D01*
X18346857Y-15284714D01*
X18318286Y-15270429D01*
X18304000Y-15256143D01*
X18289714Y-15227571D01*
X18289714Y-15141857D01*
X18304000Y-15113286D01*
X18318286Y-15099000D01*
X18346857Y-15084714D01*
X18404000Y-15084714D01*
X18432571Y-15099000D01*
X18546857Y-15399000D02*
X18561143Y-15384714D01*
X18589714Y-15341857D01*
X18604000Y-15313286D01*
X18618286Y-15270429D01*
X18632571Y-15199000D01*
X18632571Y-15141857D01*
X18618286Y-15070429D01*
X18604000Y-15027571D01*
X18589714Y-14999000D01*
X18561143Y-14956143D01*
X18546857Y-14941857D01*
M02*
