G04 #@! TF.GenerationSoftware,KiCad,Pcbnew,5.0.2-bee76a0~70~ubuntu16.04.1*
G04 #@! TF.CreationDate,2019-04-12T22:23:48+05:30*
G04 #@! TF.ProjectId,PSLab,50534c61-622e-46b6-9963-61645f706362,v6.1*
G04 #@! TF.SameCoordinates,Original*
G04 #@! TF.FileFunction,Soldermask,Bot*
G04 #@! TF.FilePolarity,Negative*
%FSLAX46Y46*%
G04 Gerber Fmt 4.6, Leading zero omitted, Abs format (unit mm)*
G04 Created by KiCad (PCBNEW 5.0.2-bee76a0~70~ubuntu16.04.1) date Fri 12 Apr 2019 22:23:48 +0530*
%MOMM*%
%LPD*%
G01*
G04 APERTURE LIST*
%ADD10C,0.100000*%
G04 APERTURE END LIST*
D10*
G36*
X105426253Y-108273801D02*
X105696730Y-108327602D01*
X105907799Y-108415030D01*
X106206296Y-108538671D01*
X106664899Y-108845100D01*
X107054900Y-109235101D01*
X107361329Y-109693704D01*
X107484970Y-109992201D01*
X107572398Y-110203270D01*
X107680000Y-110744224D01*
X107680000Y-111295776D01*
X107579671Y-111800168D01*
X107572398Y-111836729D01*
X107361329Y-112346296D01*
X107054900Y-112804899D01*
X106664899Y-113194900D01*
X106206296Y-113501329D01*
X105907799Y-113624970D01*
X105696730Y-113712398D01*
X105426253Y-113766199D01*
X105155777Y-113820000D01*
X104604223Y-113820000D01*
X104333747Y-113766199D01*
X104063270Y-113712398D01*
X103852201Y-113624970D01*
X103553704Y-113501329D01*
X103095101Y-113194900D01*
X102705100Y-112804899D01*
X102398671Y-112346296D01*
X102187602Y-111836729D01*
X102180330Y-111800168D01*
X102080000Y-111295776D01*
X102080000Y-110744224D01*
X102187602Y-110203270D01*
X102275030Y-109992201D01*
X102398671Y-109693704D01*
X102705100Y-109235101D01*
X103095101Y-108845100D01*
X103553704Y-108538671D01*
X103852201Y-108415030D01*
X104063270Y-108327602D01*
X104333747Y-108273801D01*
X104604223Y-108220000D01*
X105155777Y-108220000D01*
X105426253Y-108273801D01*
X105426253Y-108273801D01*
G37*
G36*
X187746050Y-108220000D02*
X188236730Y-108317602D01*
X188447799Y-108405030D01*
X188746296Y-108528671D01*
X189204899Y-108835100D01*
X189594900Y-109225101D01*
X189901329Y-109683704D01*
X189905471Y-109693704D01*
X190112398Y-110193270D01*
X190124140Y-110252300D01*
X190196381Y-110615480D01*
X190220000Y-110734224D01*
X190220000Y-111285776D01*
X190112398Y-111826730D01*
X190090707Y-111879097D01*
X189901329Y-112336296D01*
X189594900Y-112794899D01*
X189204899Y-113184900D01*
X188746296Y-113491329D01*
X188447799Y-113614970D01*
X188236730Y-113702398D01*
X188186456Y-113712398D01*
X187695777Y-113810000D01*
X187144223Y-113810000D01*
X186653544Y-113712398D01*
X186603270Y-113702398D01*
X186392201Y-113614970D01*
X186093704Y-113491329D01*
X185635101Y-113184900D01*
X185245100Y-112794899D01*
X184938671Y-112336296D01*
X184749293Y-111879097D01*
X184727602Y-111826730D01*
X184620000Y-111285776D01*
X184620000Y-110734224D01*
X184643620Y-110615480D01*
X184715860Y-110252300D01*
X184727602Y-110193270D01*
X184934529Y-109693704D01*
X184938671Y-109683704D01*
X185245100Y-109225101D01*
X185635101Y-108835100D01*
X186093704Y-108528671D01*
X186392201Y-108405030D01*
X186603270Y-108317602D01*
X187093950Y-108220000D01*
X187144223Y-108210000D01*
X187695777Y-108210000D01*
X187746050Y-108220000D01*
X187746050Y-108220000D01*
G37*
G36*
X163506630Y-110252299D02*
X163666855Y-110300903D01*
X163814520Y-110379831D01*
X163943949Y-110486051D01*
X164050169Y-110615480D01*
X164129097Y-110763145D01*
X164177701Y-110923370D01*
X164194112Y-111090000D01*
X164177701Y-111256630D01*
X164129097Y-111416855D01*
X164050169Y-111564520D01*
X163943949Y-111693949D01*
X163814520Y-111800169D01*
X163666855Y-111879097D01*
X163506630Y-111927701D01*
X163381752Y-111940000D01*
X163298248Y-111940000D01*
X163173370Y-111927701D01*
X163013145Y-111879097D01*
X162865480Y-111800169D01*
X162736051Y-111693949D01*
X162629831Y-111564520D01*
X162550903Y-111416855D01*
X162502299Y-111256630D01*
X162485888Y-111090000D01*
X162502299Y-110923370D01*
X162550903Y-110763145D01*
X162629831Y-110615480D01*
X162736051Y-110486051D01*
X162865480Y-110379831D01*
X163013145Y-110300903D01*
X163173370Y-110252299D01*
X163298248Y-110240000D01*
X163381752Y-110240000D01*
X163506630Y-110252299D01*
X163506630Y-110252299D01*
G37*
G36*
X160966630Y-110252299D02*
X161126855Y-110300903D01*
X161274520Y-110379831D01*
X161403949Y-110486051D01*
X161510169Y-110615480D01*
X161589097Y-110763145D01*
X161637701Y-110923370D01*
X161654112Y-111090000D01*
X161637701Y-111256630D01*
X161589097Y-111416855D01*
X161510169Y-111564520D01*
X161403949Y-111693949D01*
X161274520Y-111800169D01*
X161126855Y-111879097D01*
X160966630Y-111927701D01*
X160841752Y-111940000D01*
X160758248Y-111940000D01*
X160633370Y-111927701D01*
X160473145Y-111879097D01*
X160325480Y-111800169D01*
X160196051Y-111693949D01*
X160089831Y-111564520D01*
X160010903Y-111416855D01*
X159962299Y-111256630D01*
X159945888Y-111090000D01*
X159962299Y-110923370D01*
X160010903Y-110763145D01*
X160089831Y-110615480D01*
X160196051Y-110486051D01*
X160325480Y-110379831D01*
X160473145Y-110300903D01*
X160633370Y-110252299D01*
X160758248Y-110240000D01*
X160841752Y-110240000D01*
X160966630Y-110252299D01*
X160966630Y-110252299D01*
G37*
G36*
X136250000Y-111940000D02*
X134550000Y-111940000D01*
X134550000Y-110240000D01*
X136250000Y-110240000D01*
X136250000Y-111940000D01*
X136250000Y-111940000D01*
G37*
G36*
X138106630Y-110252299D02*
X138266855Y-110300903D01*
X138414520Y-110379831D01*
X138543949Y-110486051D01*
X138650169Y-110615480D01*
X138729097Y-110763145D01*
X138777701Y-110923370D01*
X138794112Y-111090000D01*
X138777701Y-111256630D01*
X138729097Y-111416855D01*
X138650169Y-111564520D01*
X138543949Y-111693949D01*
X138414520Y-111800169D01*
X138266855Y-111879097D01*
X138106630Y-111927701D01*
X137981752Y-111940000D01*
X137898248Y-111940000D01*
X137773370Y-111927701D01*
X137613145Y-111879097D01*
X137465480Y-111800169D01*
X137336051Y-111693949D01*
X137229831Y-111564520D01*
X137150903Y-111416855D01*
X137102299Y-111256630D01*
X137085888Y-111090000D01*
X137102299Y-110923370D01*
X137150903Y-110763145D01*
X137229831Y-110615480D01*
X137336051Y-110486051D01*
X137465480Y-110379831D01*
X137613145Y-110300903D01*
X137773370Y-110252299D01*
X137898248Y-110240000D01*
X137981752Y-110240000D01*
X138106630Y-110252299D01*
X138106630Y-110252299D01*
G37*
G36*
X140646630Y-110252299D02*
X140806855Y-110300903D01*
X140954520Y-110379831D01*
X141083949Y-110486051D01*
X141190169Y-110615480D01*
X141269097Y-110763145D01*
X141317701Y-110923370D01*
X141334112Y-111090000D01*
X141317701Y-111256630D01*
X141269097Y-111416855D01*
X141190169Y-111564520D01*
X141083949Y-111693949D01*
X140954520Y-111800169D01*
X140806855Y-111879097D01*
X140646630Y-111927701D01*
X140521752Y-111940000D01*
X140438248Y-111940000D01*
X140313370Y-111927701D01*
X140153145Y-111879097D01*
X140005480Y-111800169D01*
X139876051Y-111693949D01*
X139769831Y-111564520D01*
X139690903Y-111416855D01*
X139642299Y-111256630D01*
X139625888Y-111090000D01*
X139642299Y-110923370D01*
X139690903Y-110763145D01*
X139769831Y-110615480D01*
X139876051Y-110486051D01*
X140005480Y-110379831D01*
X140153145Y-110300903D01*
X140313370Y-110252299D01*
X140438248Y-110240000D01*
X140521752Y-110240000D01*
X140646630Y-110252299D01*
X140646630Y-110252299D01*
G37*
G36*
X143186630Y-110252299D02*
X143346855Y-110300903D01*
X143494520Y-110379831D01*
X143623949Y-110486051D01*
X143730169Y-110615480D01*
X143809097Y-110763145D01*
X143857701Y-110923370D01*
X143874112Y-111090000D01*
X143857701Y-111256630D01*
X143809097Y-111416855D01*
X143730169Y-111564520D01*
X143623949Y-111693949D01*
X143494520Y-111800169D01*
X143346855Y-111879097D01*
X143186630Y-111927701D01*
X143061752Y-111940000D01*
X142978248Y-111940000D01*
X142853370Y-111927701D01*
X142693145Y-111879097D01*
X142545480Y-111800169D01*
X142416051Y-111693949D01*
X142309831Y-111564520D01*
X142230903Y-111416855D01*
X142182299Y-111256630D01*
X142165888Y-111090000D01*
X142182299Y-110923370D01*
X142230903Y-110763145D01*
X142309831Y-110615480D01*
X142416051Y-110486051D01*
X142545480Y-110379831D01*
X142693145Y-110300903D01*
X142853370Y-110252299D01*
X142978248Y-110240000D01*
X143061752Y-110240000D01*
X143186630Y-110252299D01*
X143186630Y-110252299D01*
G37*
G36*
X145726630Y-110252299D02*
X145886855Y-110300903D01*
X146034520Y-110379831D01*
X146163949Y-110486051D01*
X146270169Y-110615480D01*
X146349097Y-110763145D01*
X146397701Y-110923370D01*
X146414112Y-111090000D01*
X146397701Y-111256630D01*
X146349097Y-111416855D01*
X146270169Y-111564520D01*
X146163949Y-111693949D01*
X146034520Y-111800169D01*
X145886855Y-111879097D01*
X145726630Y-111927701D01*
X145601752Y-111940000D01*
X145518248Y-111940000D01*
X145393370Y-111927701D01*
X145233145Y-111879097D01*
X145085480Y-111800169D01*
X144956051Y-111693949D01*
X144849831Y-111564520D01*
X144770903Y-111416855D01*
X144722299Y-111256630D01*
X144705888Y-111090000D01*
X144722299Y-110923370D01*
X144770903Y-110763145D01*
X144849831Y-110615480D01*
X144956051Y-110486051D01*
X145085480Y-110379831D01*
X145233145Y-110300903D01*
X145393370Y-110252299D01*
X145518248Y-110240000D01*
X145601752Y-110240000D01*
X145726630Y-110252299D01*
X145726630Y-110252299D01*
G37*
G36*
X148266630Y-110252299D02*
X148426855Y-110300903D01*
X148574520Y-110379831D01*
X148703949Y-110486051D01*
X148810169Y-110615480D01*
X148889097Y-110763145D01*
X148937701Y-110923370D01*
X148954112Y-111090000D01*
X148937701Y-111256630D01*
X148889097Y-111416855D01*
X148810169Y-111564520D01*
X148703949Y-111693949D01*
X148574520Y-111800169D01*
X148426855Y-111879097D01*
X148266630Y-111927701D01*
X148141752Y-111940000D01*
X148058248Y-111940000D01*
X147933370Y-111927701D01*
X147773145Y-111879097D01*
X147625480Y-111800169D01*
X147496051Y-111693949D01*
X147389831Y-111564520D01*
X147310903Y-111416855D01*
X147262299Y-111256630D01*
X147245888Y-111090000D01*
X147262299Y-110923370D01*
X147310903Y-110763145D01*
X147389831Y-110615480D01*
X147496051Y-110486051D01*
X147625480Y-110379831D01*
X147773145Y-110300903D01*
X147933370Y-110252299D01*
X148058248Y-110240000D01*
X148141752Y-110240000D01*
X148266630Y-110252299D01*
X148266630Y-110252299D01*
G37*
G36*
X150806630Y-110252299D02*
X150966855Y-110300903D01*
X151114520Y-110379831D01*
X151243949Y-110486051D01*
X151350169Y-110615480D01*
X151429097Y-110763145D01*
X151477701Y-110923370D01*
X151494112Y-111090000D01*
X151477701Y-111256630D01*
X151429097Y-111416855D01*
X151350169Y-111564520D01*
X151243949Y-111693949D01*
X151114520Y-111800169D01*
X150966855Y-111879097D01*
X150806630Y-111927701D01*
X150681752Y-111940000D01*
X150598248Y-111940000D01*
X150473370Y-111927701D01*
X150313145Y-111879097D01*
X150165480Y-111800169D01*
X150036051Y-111693949D01*
X149929831Y-111564520D01*
X149850903Y-111416855D01*
X149802299Y-111256630D01*
X149785888Y-111090000D01*
X149802299Y-110923370D01*
X149850903Y-110763145D01*
X149929831Y-110615480D01*
X150036051Y-110486051D01*
X150165480Y-110379831D01*
X150313145Y-110300903D01*
X150473370Y-110252299D01*
X150598248Y-110240000D01*
X150681752Y-110240000D01*
X150806630Y-110252299D01*
X150806630Y-110252299D01*
G37*
G36*
X153346630Y-110252299D02*
X153506855Y-110300903D01*
X153654520Y-110379831D01*
X153783949Y-110486051D01*
X153890169Y-110615480D01*
X153969097Y-110763145D01*
X154017701Y-110923370D01*
X154034112Y-111090000D01*
X154017701Y-111256630D01*
X153969097Y-111416855D01*
X153890169Y-111564520D01*
X153783949Y-111693949D01*
X153654520Y-111800169D01*
X153506855Y-111879097D01*
X153346630Y-111927701D01*
X153221752Y-111940000D01*
X153138248Y-111940000D01*
X153013370Y-111927701D01*
X152853145Y-111879097D01*
X152705480Y-111800169D01*
X152576051Y-111693949D01*
X152469831Y-111564520D01*
X152390903Y-111416855D01*
X152342299Y-111256630D01*
X152325888Y-111090000D01*
X152342299Y-110923370D01*
X152390903Y-110763145D01*
X152469831Y-110615480D01*
X152576051Y-110486051D01*
X152705480Y-110379831D01*
X152853145Y-110300903D01*
X153013370Y-110252299D01*
X153138248Y-110240000D01*
X153221752Y-110240000D01*
X153346630Y-110252299D01*
X153346630Y-110252299D01*
G37*
G36*
X155886630Y-110252299D02*
X156046855Y-110300903D01*
X156194520Y-110379831D01*
X156323949Y-110486051D01*
X156430169Y-110615480D01*
X156509097Y-110763145D01*
X156557701Y-110923370D01*
X156574112Y-111090000D01*
X156557701Y-111256630D01*
X156509097Y-111416855D01*
X156430169Y-111564520D01*
X156323949Y-111693949D01*
X156194520Y-111800169D01*
X156046855Y-111879097D01*
X155886630Y-111927701D01*
X155761752Y-111940000D01*
X155678248Y-111940000D01*
X155553370Y-111927701D01*
X155393145Y-111879097D01*
X155245480Y-111800169D01*
X155116051Y-111693949D01*
X155009831Y-111564520D01*
X154930903Y-111416855D01*
X154882299Y-111256630D01*
X154865888Y-111090000D01*
X154882299Y-110923370D01*
X154930903Y-110763145D01*
X155009831Y-110615480D01*
X155116051Y-110486051D01*
X155245480Y-110379831D01*
X155393145Y-110300903D01*
X155553370Y-110252299D01*
X155678248Y-110240000D01*
X155761752Y-110240000D01*
X155886630Y-110252299D01*
X155886630Y-110252299D01*
G37*
G36*
X115920000Y-111940000D02*
X114220000Y-111940000D01*
X114220000Y-110240000D01*
X115920000Y-110240000D01*
X115920000Y-111940000D01*
X115920000Y-111940000D01*
G37*
G36*
X117776630Y-110252299D02*
X117936855Y-110300903D01*
X118084520Y-110379831D01*
X118213949Y-110486051D01*
X118320169Y-110615480D01*
X118399097Y-110763145D01*
X118447701Y-110923370D01*
X118464112Y-111090000D01*
X118447701Y-111256630D01*
X118399097Y-111416855D01*
X118320169Y-111564520D01*
X118213949Y-111693949D01*
X118084520Y-111800169D01*
X117936855Y-111879097D01*
X117776630Y-111927701D01*
X117651752Y-111940000D01*
X117568248Y-111940000D01*
X117443370Y-111927701D01*
X117283145Y-111879097D01*
X117135480Y-111800169D01*
X117006051Y-111693949D01*
X116899831Y-111564520D01*
X116820903Y-111416855D01*
X116772299Y-111256630D01*
X116755888Y-111090000D01*
X116772299Y-110923370D01*
X116820903Y-110763145D01*
X116899831Y-110615480D01*
X117006051Y-110486051D01*
X117135480Y-110379831D01*
X117283145Y-110300903D01*
X117443370Y-110252299D01*
X117568248Y-110240000D01*
X117651752Y-110240000D01*
X117776630Y-110252299D01*
X117776630Y-110252299D01*
G37*
G36*
X120316630Y-110252299D02*
X120476855Y-110300903D01*
X120624520Y-110379831D01*
X120753949Y-110486051D01*
X120860169Y-110615480D01*
X120939097Y-110763145D01*
X120987701Y-110923370D01*
X121004112Y-111090000D01*
X120987701Y-111256630D01*
X120939097Y-111416855D01*
X120860169Y-111564520D01*
X120753949Y-111693949D01*
X120624520Y-111800169D01*
X120476855Y-111879097D01*
X120316630Y-111927701D01*
X120191752Y-111940000D01*
X120108248Y-111940000D01*
X119983370Y-111927701D01*
X119823145Y-111879097D01*
X119675480Y-111800169D01*
X119546051Y-111693949D01*
X119439831Y-111564520D01*
X119360903Y-111416855D01*
X119312299Y-111256630D01*
X119295888Y-111090000D01*
X119312299Y-110923370D01*
X119360903Y-110763145D01*
X119439831Y-110615480D01*
X119546051Y-110486051D01*
X119675480Y-110379831D01*
X119823145Y-110300903D01*
X119983370Y-110252299D01*
X120108248Y-110240000D01*
X120191752Y-110240000D01*
X120316630Y-110252299D01*
X120316630Y-110252299D01*
G37*
G36*
X122856630Y-110252299D02*
X123016855Y-110300903D01*
X123164520Y-110379831D01*
X123293949Y-110486051D01*
X123400169Y-110615480D01*
X123479097Y-110763145D01*
X123527701Y-110923370D01*
X123544112Y-111090000D01*
X123527701Y-111256630D01*
X123479097Y-111416855D01*
X123400169Y-111564520D01*
X123293949Y-111693949D01*
X123164520Y-111800169D01*
X123016855Y-111879097D01*
X122856630Y-111927701D01*
X122731752Y-111940000D01*
X122648248Y-111940000D01*
X122523370Y-111927701D01*
X122363145Y-111879097D01*
X122215480Y-111800169D01*
X122086051Y-111693949D01*
X121979831Y-111564520D01*
X121900903Y-111416855D01*
X121852299Y-111256630D01*
X121835888Y-111090000D01*
X121852299Y-110923370D01*
X121900903Y-110763145D01*
X121979831Y-110615480D01*
X122086051Y-110486051D01*
X122215480Y-110379831D01*
X122363145Y-110300903D01*
X122523370Y-110252299D01*
X122648248Y-110240000D01*
X122731752Y-110240000D01*
X122856630Y-110252299D01*
X122856630Y-110252299D01*
G37*
G36*
X125396630Y-110252299D02*
X125556855Y-110300903D01*
X125704520Y-110379831D01*
X125833949Y-110486051D01*
X125940169Y-110615480D01*
X126019097Y-110763145D01*
X126067701Y-110923370D01*
X126084112Y-111090000D01*
X126067701Y-111256630D01*
X126019097Y-111416855D01*
X125940169Y-111564520D01*
X125833949Y-111693949D01*
X125704520Y-111800169D01*
X125556855Y-111879097D01*
X125396630Y-111927701D01*
X125271752Y-111940000D01*
X125188248Y-111940000D01*
X125063370Y-111927701D01*
X124903145Y-111879097D01*
X124755480Y-111800169D01*
X124626051Y-111693949D01*
X124519831Y-111564520D01*
X124440903Y-111416855D01*
X124392299Y-111256630D01*
X124375888Y-111090000D01*
X124392299Y-110923370D01*
X124440903Y-110763145D01*
X124519831Y-110615480D01*
X124626051Y-110486051D01*
X124755480Y-110379831D01*
X124903145Y-110300903D01*
X125063370Y-110252299D01*
X125188248Y-110240000D01*
X125271752Y-110240000D01*
X125396630Y-110252299D01*
X125396630Y-110252299D01*
G37*
G36*
X127936630Y-110252299D02*
X128096855Y-110300903D01*
X128244520Y-110379831D01*
X128373949Y-110486051D01*
X128480169Y-110615480D01*
X128559097Y-110763145D01*
X128607701Y-110923370D01*
X128624112Y-111090000D01*
X128607701Y-111256630D01*
X128559097Y-111416855D01*
X128480169Y-111564520D01*
X128373949Y-111693949D01*
X128244520Y-111800169D01*
X128096855Y-111879097D01*
X127936630Y-111927701D01*
X127811752Y-111940000D01*
X127728248Y-111940000D01*
X127603370Y-111927701D01*
X127443145Y-111879097D01*
X127295480Y-111800169D01*
X127166051Y-111693949D01*
X127059831Y-111564520D01*
X126980903Y-111416855D01*
X126932299Y-111256630D01*
X126915888Y-111090000D01*
X126932299Y-110923370D01*
X126980903Y-110763145D01*
X127059831Y-110615480D01*
X127166051Y-110486051D01*
X127295480Y-110379831D01*
X127443145Y-110300903D01*
X127603370Y-110252299D01*
X127728248Y-110240000D01*
X127811752Y-110240000D01*
X127936630Y-110252299D01*
X127936630Y-110252299D01*
G37*
G36*
X130476630Y-110252299D02*
X130636855Y-110300903D01*
X130784520Y-110379831D01*
X130913949Y-110486051D01*
X131020169Y-110615480D01*
X131099097Y-110763145D01*
X131147701Y-110923370D01*
X131164112Y-111090000D01*
X131147701Y-111256630D01*
X131099097Y-111416855D01*
X131020169Y-111564520D01*
X130913949Y-111693949D01*
X130784520Y-111800169D01*
X130636855Y-111879097D01*
X130476630Y-111927701D01*
X130351752Y-111940000D01*
X130268248Y-111940000D01*
X130143370Y-111927701D01*
X129983145Y-111879097D01*
X129835480Y-111800169D01*
X129706051Y-111693949D01*
X129599831Y-111564520D01*
X129520903Y-111416855D01*
X129472299Y-111256630D01*
X129455888Y-111090000D01*
X129472299Y-110923370D01*
X129520903Y-110763145D01*
X129599831Y-110615480D01*
X129706051Y-110486051D01*
X129835480Y-110379831D01*
X129983145Y-110300903D01*
X130143370Y-110252299D01*
X130268248Y-110240000D01*
X130351752Y-110240000D01*
X130476630Y-110252299D01*
X130476630Y-110252299D01*
G37*
G36*
X158426630Y-110252299D02*
X158586855Y-110300903D01*
X158734520Y-110379831D01*
X158863949Y-110486051D01*
X158970169Y-110615480D01*
X159049097Y-110763145D01*
X159097701Y-110923370D01*
X159114112Y-111090000D01*
X159097701Y-111256630D01*
X159049097Y-111416855D01*
X158970169Y-111564520D01*
X158863949Y-111693949D01*
X158734520Y-111800169D01*
X158586855Y-111879097D01*
X158426630Y-111927701D01*
X158301752Y-111940000D01*
X158218248Y-111940000D01*
X158093370Y-111927701D01*
X157933145Y-111879097D01*
X157785480Y-111800169D01*
X157656051Y-111693949D01*
X157549831Y-111564520D01*
X157470903Y-111416855D01*
X157422299Y-111256630D01*
X157405888Y-111090000D01*
X157422299Y-110923370D01*
X157470903Y-110763145D01*
X157549831Y-110615480D01*
X157656051Y-110486051D01*
X157785480Y-110379831D01*
X157933145Y-110300903D01*
X158093370Y-110252299D01*
X158218248Y-110240000D01*
X158301752Y-110240000D01*
X158426630Y-110252299D01*
X158426630Y-110252299D01*
G37*
G36*
X185056630Y-102592299D02*
X185216855Y-102640903D01*
X185364520Y-102719831D01*
X185493949Y-102826051D01*
X185600169Y-102955480D01*
X185679097Y-103103145D01*
X185727701Y-103263370D01*
X185744112Y-103430000D01*
X185727701Y-103596630D01*
X185679097Y-103756855D01*
X185600169Y-103904520D01*
X185493949Y-104033949D01*
X185364520Y-104140169D01*
X185216855Y-104219097D01*
X185056630Y-104267701D01*
X184931752Y-104280000D01*
X184848248Y-104280000D01*
X184723370Y-104267701D01*
X184563145Y-104219097D01*
X184415480Y-104140169D01*
X184286051Y-104033949D01*
X184179831Y-103904520D01*
X184100903Y-103756855D01*
X184052299Y-103596630D01*
X184035888Y-103430000D01*
X184052299Y-103263370D01*
X184100903Y-103103145D01*
X184179831Y-102955480D01*
X184286051Y-102826051D01*
X184415480Y-102719831D01*
X184563145Y-102640903D01*
X184723370Y-102592299D01*
X184848248Y-102580000D01*
X184931752Y-102580000D01*
X185056630Y-102592299D01*
X185056630Y-102592299D01*
G37*
G36*
X187596630Y-102592299D02*
X187756855Y-102640903D01*
X187904520Y-102719831D01*
X188033949Y-102826051D01*
X188140169Y-102955480D01*
X188219097Y-103103145D01*
X188267701Y-103263370D01*
X188284112Y-103430000D01*
X188267701Y-103596630D01*
X188219097Y-103756855D01*
X188140169Y-103904520D01*
X188033949Y-104033949D01*
X187904520Y-104140169D01*
X187756855Y-104219097D01*
X187596630Y-104267701D01*
X187471752Y-104280000D01*
X187388248Y-104280000D01*
X187263370Y-104267701D01*
X187103145Y-104219097D01*
X186955480Y-104140169D01*
X186826051Y-104033949D01*
X186719831Y-103904520D01*
X186640903Y-103756855D01*
X186592299Y-103596630D01*
X186575888Y-103430000D01*
X186592299Y-103263370D01*
X186640903Y-103103145D01*
X186719831Y-102955480D01*
X186826051Y-102826051D01*
X186955480Y-102719831D01*
X187103145Y-102640903D01*
X187263370Y-102592299D01*
X187388248Y-102580000D01*
X187471752Y-102580000D01*
X187596630Y-102592299D01*
X187596630Y-102592299D01*
G37*
G36*
X185056630Y-100052299D02*
X185216855Y-100100903D01*
X185364520Y-100179831D01*
X185493949Y-100286051D01*
X185600169Y-100415480D01*
X185679097Y-100563145D01*
X185727701Y-100723370D01*
X185744112Y-100890000D01*
X185727701Y-101056630D01*
X185679097Y-101216855D01*
X185600169Y-101364520D01*
X185493949Y-101493949D01*
X185364520Y-101600169D01*
X185216855Y-101679097D01*
X185056630Y-101727701D01*
X184931752Y-101740000D01*
X184848248Y-101740000D01*
X184723370Y-101727701D01*
X184563145Y-101679097D01*
X184415480Y-101600169D01*
X184286051Y-101493949D01*
X184179831Y-101364520D01*
X184100903Y-101216855D01*
X184052299Y-101056630D01*
X184035888Y-100890000D01*
X184052299Y-100723370D01*
X184100903Y-100563145D01*
X184179831Y-100415480D01*
X184286051Y-100286051D01*
X184415480Y-100179831D01*
X184563145Y-100100903D01*
X184723370Y-100052299D01*
X184848248Y-100040000D01*
X184931752Y-100040000D01*
X185056630Y-100052299D01*
X185056630Y-100052299D01*
G37*
G36*
X187596630Y-100052299D02*
X187756855Y-100100903D01*
X187904520Y-100179831D01*
X188033949Y-100286051D01*
X188140169Y-100415480D01*
X188219097Y-100563145D01*
X188267701Y-100723370D01*
X188284112Y-100890000D01*
X188267701Y-101056630D01*
X188219097Y-101216855D01*
X188140169Y-101364520D01*
X188033949Y-101493949D01*
X187904520Y-101600169D01*
X187756855Y-101679097D01*
X187596630Y-101727701D01*
X187471752Y-101740000D01*
X187388248Y-101740000D01*
X187263370Y-101727701D01*
X187103145Y-101679097D01*
X186955480Y-101600169D01*
X186826051Y-101493949D01*
X186719831Y-101364520D01*
X186640903Y-101216855D01*
X186592299Y-101056630D01*
X186575888Y-100890000D01*
X186592299Y-100723370D01*
X186640903Y-100563145D01*
X186719831Y-100415480D01*
X186826051Y-100286051D01*
X186955480Y-100179831D01*
X187103145Y-100100903D01*
X187263370Y-100052299D01*
X187388248Y-100040000D01*
X187471752Y-100040000D01*
X187596630Y-100052299D01*
X187596630Y-100052299D01*
G37*
G36*
X107085000Y-100925000D02*
X105815000Y-100925000D01*
X105815000Y-99955000D01*
X107085000Y-99955000D01*
X107085000Y-100925000D01*
X107085000Y-100925000D01*
G37*
G36*
X107085000Y-99645000D02*
X105815000Y-99645000D01*
X105815000Y-98675000D01*
X107085000Y-98675000D01*
X107085000Y-99645000D01*
X107085000Y-99645000D01*
G37*
G36*
X187596630Y-97512299D02*
X187756855Y-97560903D01*
X187904520Y-97639831D01*
X188033949Y-97746051D01*
X188140169Y-97875480D01*
X188219097Y-98023145D01*
X188267701Y-98183370D01*
X188284112Y-98350000D01*
X188267701Y-98516630D01*
X188219097Y-98676855D01*
X188140169Y-98824520D01*
X188033949Y-98953949D01*
X187904520Y-99060169D01*
X187756855Y-99139097D01*
X187596630Y-99187701D01*
X187471752Y-99200000D01*
X187388248Y-99200000D01*
X187263370Y-99187701D01*
X187103145Y-99139097D01*
X186955480Y-99060169D01*
X186826051Y-98953949D01*
X186719831Y-98824520D01*
X186640903Y-98676855D01*
X186592299Y-98516630D01*
X186575888Y-98350000D01*
X186592299Y-98183370D01*
X186640903Y-98023145D01*
X186719831Y-97875480D01*
X186826051Y-97746051D01*
X186955480Y-97639831D01*
X187103145Y-97560903D01*
X187263370Y-97512299D01*
X187388248Y-97500000D01*
X187471752Y-97500000D01*
X187596630Y-97512299D01*
X187596630Y-97512299D01*
G37*
G36*
X185056630Y-97512299D02*
X185216855Y-97560903D01*
X185364520Y-97639831D01*
X185493949Y-97746051D01*
X185600169Y-97875480D01*
X185679097Y-98023145D01*
X185727701Y-98183370D01*
X185744112Y-98350000D01*
X185727701Y-98516630D01*
X185679097Y-98676855D01*
X185600169Y-98824520D01*
X185493949Y-98953949D01*
X185364520Y-99060169D01*
X185216855Y-99139097D01*
X185056630Y-99187701D01*
X184931752Y-99200000D01*
X184848248Y-99200000D01*
X184723370Y-99187701D01*
X184563145Y-99139097D01*
X184415480Y-99060169D01*
X184286051Y-98953949D01*
X184179831Y-98824520D01*
X184100903Y-98676855D01*
X184052299Y-98516630D01*
X184035888Y-98350000D01*
X184052299Y-98183370D01*
X184100903Y-98023145D01*
X184179831Y-97875480D01*
X184286051Y-97746051D01*
X184415480Y-97639831D01*
X184563145Y-97560903D01*
X184723370Y-97512299D01*
X184848248Y-97500000D01*
X184931752Y-97500000D01*
X185056630Y-97512299D01*
X185056630Y-97512299D01*
G37*
G36*
X92940000Y-97770000D02*
X91940000Y-97770000D01*
X91940000Y-95770000D01*
X92940000Y-95770000D01*
X92940000Y-97770000D01*
X92940000Y-97770000D01*
G37*
G36*
X106940000Y-97770000D02*
X105940000Y-97770000D01*
X105940000Y-95770000D01*
X106940000Y-95770000D01*
X106940000Y-97770000D01*
X106940000Y-97770000D01*
G37*
G36*
X104940000Y-97770000D02*
X103940000Y-97770000D01*
X103940000Y-95770000D01*
X104940000Y-95770000D01*
X104940000Y-97770000D01*
X104940000Y-97770000D01*
G37*
G36*
X102940000Y-97770000D02*
X101940000Y-97770000D01*
X101940000Y-95770000D01*
X102940000Y-95770000D01*
X102940000Y-97770000D01*
X102940000Y-97770000D01*
G37*
G36*
X98940000Y-97770000D02*
X97940000Y-97770000D01*
X97940000Y-95770000D01*
X98940000Y-95770000D01*
X98940000Y-97770000D01*
X98940000Y-97770000D01*
G37*
G36*
X96940000Y-97770000D02*
X95940000Y-97770000D01*
X95940000Y-95770000D01*
X96940000Y-95770000D01*
X96940000Y-97770000D01*
X96940000Y-97770000D01*
G37*
G36*
X94940000Y-97770000D02*
X93940000Y-97770000D01*
X93940000Y-95770000D01*
X94940000Y-95770000D01*
X94940000Y-97770000D01*
X94940000Y-97770000D01*
G37*
G36*
X100940000Y-97770000D02*
X99940000Y-97770000D01*
X99940000Y-95770000D01*
X100940000Y-95770000D01*
X100940000Y-97770000D01*
X100940000Y-97770000D01*
G37*
G36*
X187596630Y-94972299D02*
X187756855Y-95020903D01*
X187904520Y-95099831D01*
X188033949Y-95206051D01*
X188140169Y-95335480D01*
X188219097Y-95483145D01*
X188267701Y-95643370D01*
X188284112Y-95810000D01*
X188267701Y-95976630D01*
X188219097Y-96136855D01*
X188140169Y-96284520D01*
X188033949Y-96413949D01*
X187904520Y-96520169D01*
X187756855Y-96599097D01*
X187596630Y-96647701D01*
X187471752Y-96660000D01*
X187388248Y-96660000D01*
X187263370Y-96647701D01*
X187103145Y-96599097D01*
X186955480Y-96520169D01*
X186826051Y-96413949D01*
X186719831Y-96284520D01*
X186640903Y-96136855D01*
X186592299Y-95976630D01*
X186575888Y-95810000D01*
X186592299Y-95643370D01*
X186640903Y-95483145D01*
X186719831Y-95335480D01*
X186826051Y-95206051D01*
X186955480Y-95099831D01*
X187103145Y-95020903D01*
X187263370Y-94972299D01*
X187388248Y-94960000D01*
X187471752Y-94960000D01*
X187596630Y-94972299D01*
X187596630Y-94972299D01*
G37*
G36*
X185056630Y-94972299D02*
X185216855Y-95020903D01*
X185364520Y-95099831D01*
X185493949Y-95206051D01*
X185600169Y-95335480D01*
X185679097Y-95483145D01*
X185727701Y-95643370D01*
X185744112Y-95810000D01*
X185727701Y-95976630D01*
X185679097Y-96136855D01*
X185600169Y-96284520D01*
X185493949Y-96413949D01*
X185364520Y-96520169D01*
X185216855Y-96599097D01*
X185056630Y-96647701D01*
X184931752Y-96660000D01*
X184848248Y-96660000D01*
X184723370Y-96647701D01*
X184563145Y-96599097D01*
X184415480Y-96520169D01*
X184286051Y-96413949D01*
X184179831Y-96284520D01*
X184100903Y-96136855D01*
X184052299Y-95976630D01*
X184035888Y-95810000D01*
X184052299Y-95643370D01*
X184100903Y-95483145D01*
X184179831Y-95335480D01*
X184286051Y-95206051D01*
X184415480Y-95099831D01*
X184563145Y-95020903D01*
X184723370Y-94972299D01*
X184848248Y-94960000D01*
X184931752Y-94960000D01*
X185056630Y-94972299D01*
X185056630Y-94972299D01*
G37*
G36*
X126146630Y-93502299D02*
X126306855Y-93550903D01*
X126454520Y-93629831D01*
X126583949Y-93736051D01*
X126690169Y-93865480D01*
X126769097Y-94013145D01*
X126817701Y-94173370D01*
X126834112Y-94340000D01*
X126817701Y-94506630D01*
X126769097Y-94666855D01*
X126690169Y-94814520D01*
X126583949Y-94943949D01*
X126454520Y-95050169D01*
X126306855Y-95129097D01*
X126146630Y-95177701D01*
X126021752Y-95190000D01*
X125938248Y-95190000D01*
X125813370Y-95177701D01*
X125653145Y-95129097D01*
X125505480Y-95050169D01*
X125376051Y-94943949D01*
X125269831Y-94814520D01*
X125190903Y-94666855D01*
X125142299Y-94506630D01*
X125125888Y-94340000D01*
X125142299Y-94173370D01*
X125190903Y-94013145D01*
X125269831Y-93865480D01*
X125376051Y-93736051D01*
X125505480Y-93629831D01*
X125653145Y-93550903D01*
X125813370Y-93502299D01*
X125938248Y-93490000D01*
X126021752Y-93490000D01*
X126146630Y-93502299D01*
X126146630Y-93502299D01*
G37*
G36*
X116670000Y-95190000D02*
X114970000Y-95190000D01*
X114970000Y-93490000D01*
X116670000Y-93490000D01*
X116670000Y-95190000D01*
X116670000Y-95190000D01*
G37*
G36*
X123606630Y-93502299D02*
X123766855Y-93550903D01*
X123914520Y-93629831D01*
X124043949Y-93736051D01*
X124150169Y-93865480D01*
X124229097Y-94013145D01*
X124277701Y-94173370D01*
X124294112Y-94340000D01*
X124277701Y-94506630D01*
X124229097Y-94666855D01*
X124150169Y-94814520D01*
X124043949Y-94943949D01*
X123914520Y-95050169D01*
X123766855Y-95129097D01*
X123606630Y-95177701D01*
X123481752Y-95190000D01*
X123398248Y-95190000D01*
X123273370Y-95177701D01*
X123113145Y-95129097D01*
X122965480Y-95050169D01*
X122836051Y-94943949D01*
X122729831Y-94814520D01*
X122650903Y-94666855D01*
X122602299Y-94506630D01*
X122585888Y-94340000D01*
X122602299Y-94173370D01*
X122650903Y-94013145D01*
X122729831Y-93865480D01*
X122836051Y-93736051D01*
X122965480Y-93629831D01*
X123113145Y-93550903D01*
X123273370Y-93502299D01*
X123398248Y-93490000D01*
X123481752Y-93490000D01*
X123606630Y-93502299D01*
X123606630Y-93502299D01*
G37*
G36*
X121066630Y-93502299D02*
X121226855Y-93550903D01*
X121374520Y-93629831D01*
X121503949Y-93736051D01*
X121610169Y-93865480D01*
X121689097Y-94013145D01*
X121737701Y-94173370D01*
X121754112Y-94340000D01*
X121737701Y-94506630D01*
X121689097Y-94666855D01*
X121610169Y-94814520D01*
X121503949Y-94943949D01*
X121374520Y-95050169D01*
X121226855Y-95129097D01*
X121066630Y-95177701D01*
X120941752Y-95190000D01*
X120858248Y-95190000D01*
X120733370Y-95177701D01*
X120573145Y-95129097D01*
X120425480Y-95050169D01*
X120296051Y-94943949D01*
X120189831Y-94814520D01*
X120110903Y-94666855D01*
X120062299Y-94506630D01*
X120045888Y-94340000D01*
X120062299Y-94173370D01*
X120110903Y-94013145D01*
X120189831Y-93865480D01*
X120296051Y-93736051D01*
X120425480Y-93629831D01*
X120573145Y-93550903D01*
X120733370Y-93502299D01*
X120858248Y-93490000D01*
X120941752Y-93490000D01*
X121066630Y-93502299D01*
X121066630Y-93502299D01*
G37*
G36*
X118526630Y-93502299D02*
X118686855Y-93550903D01*
X118834520Y-93629831D01*
X118963949Y-93736051D01*
X119070169Y-93865480D01*
X119149097Y-94013145D01*
X119197701Y-94173370D01*
X119214112Y-94340000D01*
X119197701Y-94506630D01*
X119149097Y-94666855D01*
X119070169Y-94814520D01*
X118963949Y-94943949D01*
X118834520Y-95050169D01*
X118686855Y-95129097D01*
X118526630Y-95177701D01*
X118401752Y-95190000D01*
X118318248Y-95190000D01*
X118193370Y-95177701D01*
X118033145Y-95129097D01*
X117885480Y-95050169D01*
X117756051Y-94943949D01*
X117649831Y-94814520D01*
X117570903Y-94666855D01*
X117522299Y-94506630D01*
X117505888Y-94340000D01*
X117522299Y-94173370D01*
X117570903Y-94013145D01*
X117649831Y-93865480D01*
X117756051Y-93736051D01*
X117885480Y-93629831D01*
X118033145Y-93550903D01*
X118193370Y-93502299D01*
X118318248Y-93490000D01*
X118401752Y-93490000D01*
X118526630Y-93502299D01*
X118526630Y-93502299D01*
G37*
G36*
X128637621Y-93748682D02*
X128750721Y-93782990D01*
X128854955Y-93838704D01*
X128946317Y-93913683D01*
X129021296Y-94005045D01*
X129077010Y-94109279D01*
X129111318Y-94222379D01*
X129122903Y-94340000D01*
X129111318Y-94457621D01*
X129077010Y-94570721D01*
X129021296Y-94674955D01*
X128946317Y-94766317D01*
X128854955Y-94841296D01*
X128750721Y-94897010D01*
X128637621Y-94931318D01*
X128549474Y-94940000D01*
X128490526Y-94940000D01*
X128402379Y-94931318D01*
X128289279Y-94897010D01*
X128185045Y-94841296D01*
X128093683Y-94766317D01*
X128018704Y-94674955D01*
X127962990Y-94570721D01*
X127928682Y-94457621D01*
X127917097Y-94340000D01*
X127928682Y-94222379D01*
X127962990Y-94109279D01*
X128018704Y-94005045D01*
X128093683Y-93913683D01*
X128185045Y-93838704D01*
X128289279Y-93782990D01*
X128402379Y-93748682D01*
X128490526Y-93740000D01*
X128549474Y-93740000D01*
X128637621Y-93748682D01*
X128637621Y-93748682D01*
G37*
G36*
X187596630Y-92432299D02*
X187756855Y-92480903D01*
X187904520Y-92559831D01*
X188033949Y-92666051D01*
X188140169Y-92795480D01*
X188219097Y-92943145D01*
X188267701Y-93103370D01*
X188284112Y-93270000D01*
X188267701Y-93436630D01*
X188219097Y-93596855D01*
X188140169Y-93744520D01*
X188033949Y-93873949D01*
X187904520Y-93980169D01*
X187756855Y-94059097D01*
X187596630Y-94107701D01*
X187471752Y-94120000D01*
X187388248Y-94120000D01*
X187263370Y-94107701D01*
X187103145Y-94059097D01*
X186955480Y-93980169D01*
X186826051Y-93873949D01*
X186719831Y-93744520D01*
X186640903Y-93596855D01*
X186592299Y-93436630D01*
X186575888Y-93270000D01*
X186592299Y-93103370D01*
X186640903Y-92943145D01*
X186719831Y-92795480D01*
X186826051Y-92666051D01*
X186955480Y-92559831D01*
X187103145Y-92480903D01*
X187263370Y-92432299D01*
X187388248Y-92420000D01*
X187471752Y-92420000D01*
X187596630Y-92432299D01*
X187596630Y-92432299D01*
G37*
G36*
X185056630Y-92432299D02*
X185216855Y-92480903D01*
X185364520Y-92559831D01*
X185493949Y-92666051D01*
X185600169Y-92795480D01*
X185679097Y-92943145D01*
X185727701Y-93103370D01*
X185744112Y-93270000D01*
X185727701Y-93436630D01*
X185679097Y-93596855D01*
X185600169Y-93744520D01*
X185493949Y-93873949D01*
X185364520Y-93980169D01*
X185216855Y-94059097D01*
X185056630Y-94107701D01*
X184931752Y-94120000D01*
X184848248Y-94120000D01*
X184723370Y-94107701D01*
X184563145Y-94059097D01*
X184415480Y-93980169D01*
X184286051Y-93873949D01*
X184179831Y-93744520D01*
X184100903Y-93596855D01*
X184052299Y-93436630D01*
X184035888Y-93270000D01*
X184052299Y-93103370D01*
X184100903Y-92943145D01*
X184179831Y-92795480D01*
X184286051Y-92666051D01*
X184415480Y-92559831D01*
X184563145Y-92480903D01*
X184723370Y-92432299D01*
X184848248Y-92420000D01*
X184931752Y-92420000D01*
X185056630Y-92432299D01*
X185056630Y-92432299D01*
G37*
G36*
X187596630Y-89892299D02*
X187756855Y-89940903D01*
X187904520Y-90019831D01*
X188033949Y-90126051D01*
X188140169Y-90255480D01*
X188219097Y-90403145D01*
X188267701Y-90563370D01*
X188284112Y-90730000D01*
X188267701Y-90896630D01*
X188219097Y-91056855D01*
X188140169Y-91204520D01*
X188033949Y-91333949D01*
X187904520Y-91440169D01*
X187756855Y-91519097D01*
X187596630Y-91567701D01*
X187471752Y-91580000D01*
X187388248Y-91580000D01*
X187263370Y-91567701D01*
X187103145Y-91519097D01*
X186955480Y-91440169D01*
X186826051Y-91333949D01*
X186719831Y-91204520D01*
X186640903Y-91056855D01*
X186592299Y-90896630D01*
X186575888Y-90730000D01*
X186592299Y-90563370D01*
X186640903Y-90403145D01*
X186719831Y-90255480D01*
X186826051Y-90126051D01*
X186955480Y-90019831D01*
X187103145Y-89940903D01*
X187263370Y-89892299D01*
X187388248Y-89880000D01*
X187471752Y-89880000D01*
X187596630Y-89892299D01*
X187596630Y-89892299D01*
G37*
G36*
X185056630Y-89892299D02*
X185216855Y-89940903D01*
X185364520Y-90019831D01*
X185493949Y-90126051D01*
X185600169Y-90255480D01*
X185679097Y-90403145D01*
X185727701Y-90563370D01*
X185744112Y-90730000D01*
X185727701Y-90896630D01*
X185679097Y-91056855D01*
X185600169Y-91204520D01*
X185493949Y-91333949D01*
X185364520Y-91440169D01*
X185216855Y-91519097D01*
X185056630Y-91567701D01*
X184931752Y-91580000D01*
X184848248Y-91580000D01*
X184723370Y-91567701D01*
X184563145Y-91519097D01*
X184415480Y-91440169D01*
X184286051Y-91333949D01*
X184179831Y-91204520D01*
X184100903Y-91056855D01*
X184052299Y-90896630D01*
X184035888Y-90730000D01*
X184052299Y-90563370D01*
X184100903Y-90403145D01*
X184179831Y-90255480D01*
X184286051Y-90126051D01*
X184415480Y-90019831D01*
X184563145Y-89940903D01*
X184723370Y-89892299D01*
X184848248Y-89880000D01*
X184931752Y-89880000D01*
X185056630Y-89892299D01*
X185056630Y-89892299D01*
G37*
G36*
X125336630Y-88812299D02*
X125496855Y-88860903D01*
X125644520Y-88939831D01*
X125773949Y-89046051D01*
X125880169Y-89175480D01*
X125959097Y-89323145D01*
X126007701Y-89483370D01*
X126024112Y-89650000D01*
X126007701Y-89816630D01*
X125959097Y-89976855D01*
X125880169Y-90124520D01*
X125773949Y-90253949D01*
X125644520Y-90360169D01*
X125496855Y-90439097D01*
X125336630Y-90487701D01*
X125211752Y-90500000D01*
X125128248Y-90500000D01*
X125003370Y-90487701D01*
X124843145Y-90439097D01*
X124695480Y-90360169D01*
X124566051Y-90253949D01*
X124459831Y-90124520D01*
X124380903Y-89976855D01*
X124332299Y-89816630D01*
X124315888Y-89650000D01*
X124332299Y-89483370D01*
X124380903Y-89323145D01*
X124459831Y-89175480D01*
X124566051Y-89046051D01*
X124695480Y-88939831D01*
X124843145Y-88860903D01*
X125003370Y-88812299D01*
X125128248Y-88800000D01*
X125211752Y-88800000D01*
X125336630Y-88812299D01*
X125336630Y-88812299D01*
G37*
G36*
X187596630Y-87352299D02*
X187756855Y-87400903D01*
X187904520Y-87479831D01*
X188033949Y-87586051D01*
X188140169Y-87715480D01*
X188219097Y-87863145D01*
X188267701Y-88023370D01*
X188284112Y-88190000D01*
X188267701Y-88356630D01*
X188219097Y-88516855D01*
X188140169Y-88664520D01*
X188033949Y-88793949D01*
X187904520Y-88900169D01*
X187756855Y-88979097D01*
X187596630Y-89027701D01*
X187471752Y-89040000D01*
X187388248Y-89040000D01*
X187263370Y-89027701D01*
X187103145Y-88979097D01*
X186955480Y-88900169D01*
X186826051Y-88793949D01*
X186719831Y-88664520D01*
X186640903Y-88516855D01*
X186592299Y-88356630D01*
X186575888Y-88190000D01*
X186592299Y-88023370D01*
X186640903Y-87863145D01*
X186719831Y-87715480D01*
X186826051Y-87586051D01*
X186955480Y-87479831D01*
X187103145Y-87400903D01*
X187263370Y-87352299D01*
X187388248Y-87340000D01*
X187471752Y-87340000D01*
X187596630Y-87352299D01*
X187596630Y-87352299D01*
G37*
G36*
X185056630Y-87352299D02*
X185216855Y-87400903D01*
X185364520Y-87479831D01*
X185493949Y-87586051D01*
X185600169Y-87715480D01*
X185679097Y-87863145D01*
X185727701Y-88023370D01*
X185744112Y-88190000D01*
X185727701Y-88356630D01*
X185679097Y-88516855D01*
X185600169Y-88664520D01*
X185493949Y-88793949D01*
X185364520Y-88900169D01*
X185216855Y-88979097D01*
X185056630Y-89027701D01*
X184931752Y-89040000D01*
X184848248Y-89040000D01*
X184723370Y-89027701D01*
X184563145Y-88979097D01*
X184415480Y-88900169D01*
X184286051Y-88793949D01*
X184179831Y-88664520D01*
X184100903Y-88516855D01*
X184052299Y-88356630D01*
X184035888Y-88190000D01*
X184052299Y-88023370D01*
X184100903Y-87863145D01*
X184179831Y-87715480D01*
X184286051Y-87586051D01*
X184415480Y-87479831D01*
X184563145Y-87400903D01*
X184723370Y-87352299D01*
X184848248Y-87340000D01*
X184931752Y-87340000D01*
X185056630Y-87352299D01*
X185056630Y-87352299D01*
G37*
G36*
X125336630Y-86272299D02*
X125496855Y-86320903D01*
X125644520Y-86399831D01*
X125773949Y-86506051D01*
X125880169Y-86635480D01*
X125959097Y-86783145D01*
X126007701Y-86943370D01*
X126024112Y-87110000D01*
X126007701Y-87276630D01*
X125959097Y-87436855D01*
X125880169Y-87584520D01*
X125773949Y-87713949D01*
X125644520Y-87820169D01*
X125496855Y-87899097D01*
X125336630Y-87947701D01*
X125211752Y-87960000D01*
X125128248Y-87960000D01*
X125003370Y-87947701D01*
X124843145Y-87899097D01*
X124695480Y-87820169D01*
X124566051Y-87713949D01*
X124459831Y-87584520D01*
X124380903Y-87436855D01*
X124332299Y-87276630D01*
X124315888Y-87110000D01*
X124332299Y-86943370D01*
X124380903Y-86783145D01*
X124459831Y-86635480D01*
X124566051Y-86506051D01*
X124695480Y-86399831D01*
X124843145Y-86320903D01*
X125003370Y-86272299D01*
X125128248Y-86260000D01*
X125211752Y-86260000D01*
X125336630Y-86272299D01*
X125336630Y-86272299D01*
G37*
G36*
X187596630Y-84812299D02*
X187756855Y-84860903D01*
X187904520Y-84939831D01*
X188033949Y-85046051D01*
X188140169Y-85175480D01*
X188219097Y-85323145D01*
X188267701Y-85483370D01*
X188284112Y-85650000D01*
X188267701Y-85816630D01*
X188219097Y-85976855D01*
X188140169Y-86124520D01*
X188033949Y-86253949D01*
X187904520Y-86360169D01*
X187756855Y-86439097D01*
X187596630Y-86487701D01*
X187471752Y-86500000D01*
X187388248Y-86500000D01*
X187263370Y-86487701D01*
X187103145Y-86439097D01*
X186955480Y-86360169D01*
X186826051Y-86253949D01*
X186719831Y-86124520D01*
X186640903Y-85976855D01*
X186592299Y-85816630D01*
X186575888Y-85650000D01*
X186592299Y-85483370D01*
X186640903Y-85323145D01*
X186719831Y-85175480D01*
X186826051Y-85046051D01*
X186955480Y-84939831D01*
X187103145Y-84860903D01*
X187263370Y-84812299D01*
X187388248Y-84800000D01*
X187471752Y-84800000D01*
X187596630Y-84812299D01*
X187596630Y-84812299D01*
G37*
G36*
X185056630Y-84812299D02*
X185216855Y-84860903D01*
X185364520Y-84939831D01*
X185493949Y-85046051D01*
X185600169Y-85175480D01*
X185679097Y-85323145D01*
X185727701Y-85483370D01*
X185744112Y-85650000D01*
X185727701Y-85816630D01*
X185679097Y-85976855D01*
X185600169Y-86124520D01*
X185493949Y-86253949D01*
X185364520Y-86360169D01*
X185216855Y-86439097D01*
X185056630Y-86487701D01*
X184931752Y-86500000D01*
X184848248Y-86500000D01*
X184723370Y-86487701D01*
X184563145Y-86439097D01*
X184415480Y-86360169D01*
X184286051Y-86253949D01*
X184179831Y-86124520D01*
X184100903Y-85976855D01*
X184052299Y-85816630D01*
X184035888Y-85650000D01*
X184052299Y-85483370D01*
X184100903Y-85323145D01*
X184179831Y-85175480D01*
X184286051Y-85046051D01*
X184415480Y-84939831D01*
X184563145Y-84860903D01*
X184723370Y-84812299D01*
X184848248Y-84800000D01*
X184931752Y-84800000D01*
X185056630Y-84812299D01*
X185056630Y-84812299D01*
G37*
G36*
X125336630Y-83732299D02*
X125496855Y-83780903D01*
X125644520Y-83859831D01*
X125773949Y-83966051D01*
X125880169Y-84095480D01*
X125959097Y-84243145D01*
X126007701Y-84403370D01*
X126024112Y-84570000D01*
X126007701Y-84736630D01*
X125959097Y-84896855D01*
X125880169Y-85044520D01*
X125773949Y-85173949D01*
X125644520Y-85280169D01*
X125496855Y-85359097D01*
X125336630Y-85407701D01*
X125211752Y-85420000D01*
X125128248Y-85420000D01*
X125003370Y-85407701D01*
X124843145Y-85359097D01*
X124695480Y-85280169D01*
X124566051Y-85173949D01*
X124459831Y-85044520D01*
X124380903Y-84896855D01*
X124332299Y-84736630D01*
X124315888Y-84570000D01*
X124332299Y-84403370D01*
X124380903Y-84243145D01*
X124459831Y-84095480D01*
X124566051Y-83966051D01*
X124695480Y-83859831D01*
X124843145Y-83780903D01*
X125003370Y-83732299D01*
X125128248Y-83720000D01*
X125211752Y-83720000D01*
X125336630Y-83732299D01*
X125336630Y-83732299D01*
G37*
G36*
X187596630Y-82272299D02*
X187756855Y-82320903D01*
X187904520Y-82399831D01*
X188033949Y-82506051D01*
X188140169Y-82635480D01*
X188219097Y-82783145D01*
X188267701Y-82943370D01*
X188284112Y-83110000D01*
X188267701Y-83276630D01*
X188219097Y-83436855D01*
X188140169Y-83584520D01*
X188033949Y-83713949D01*
X187904520Y-83820169D01*
X187756855Y-83899097D01*
X187596630Y-83947701D01*
X187471752Y-83960000D01*
X187388248Y-83960000D01*
X187263370Y-83947701D01*
X187103145Y-83899097D01*
X186955480Y-83820169D01*
X186826051Y-83713949D01*
X186719831Y-83584520D01*
X186640903Y-83436855D01*
X186592299Y-83276630D01*
X186575888Y-83110000D01*
X186592299Y-82943370D01*
X186640903Y-82783145D01*
X186719831Y-82635480D01*
X186826051Y-82506051D01*
X186955480Y-82399831D01*
X187103145Y-82320903D01*
X187263370Y-82272299D01*
X187388248Y-82260000D01*
X187471752Y-82260000D01*
X187596630Y-82272299D01*
X187596630Y-82272299D01*
G37*
G36*
X185056630Y-82272299D02*
X185216855Y-82320903D01*
X185364520Y-82399831D01*
X185493949Y-82506051D01*
X185600169Y-82635480D01*
X185679097Y-82783145D01*
X185727701Y-82943370D01*
X185744112Y-83110000D01*
X185727701Y-83276630D01*
X185679097Y-83436855D01*
X185600169Y-83584520D01*
X185493949Y-83713949D01*
X185364520Y-83820169D01*
X185216855Y-83899097D01*
X185056630Y-83947701D01*
X184931752Y-83960000D01*
X184848248Y-83960000D01*
X184723370Y-83947701D01*
X184563145Y-83899097D01*
X184415480Y-83820169D01*
X184286051Y-83713949D01*
X184179831Y-83584520D01*
X184100903Y-83436855D01*
X184052299Y-83276630D01*
X184035888Y-83110000D01*
X184052299Y-82943370D01*
X184100903Y-82783145D01*
X184179831Y-82635480D01*
X184286051Y-82506051D01*
X184415480Y-82399831D01*
X184563145Y-82320903D01*
X184723370Y-82272299D01*
X184848248Y-82260000D01*
X184931752Y-82260000D01*
X185056630Y-82272299D01*
X185056630Y-82272299D01*
G37*
G36*
X125336630Y-81192299D02*
X125496855Y-81240903D01*
X125644520Y-81319831D01*
X125773949Y-81426051D01*
X125880169Y-81555480D01*
X125959097Y-81703145D01*
X126007701Y-81863370D01*
X126024112Y-82030000D01*
X126007701Y-82196630D01*
X125959097Y-82356855D01*
X125880169Y-82504520D01*
X125773949Y-82633949D01*
X125644520Y-82740169D01*
X125496855Y-82819097D01*
X125336630Y-82867701D01*
X125211752Y-82880000D01*
X125128248Y-82880000D01*
X125003370Y-82867701D01*
X124843145Y-82819097D01*
X124695480Y-82740169D01*
X124566051Y-82633949D01*
X124459831Y-82504520D01*
X124380903Y-82356855D01*
X124332299Y-82196630D01*
X124315888Y-82030000D01*
X124332299Y-81863370D01*
X124380903Y-81703145D01*
X124459831Y-81555480D01*
X124566051Y-81426051D01*
X124695480Y-81319831D01*
X124843145Y-81240903D01*
X125003370Y-81192299D01*
X125128248Y-81180000D01*
X125211752Y-81180000D01*
X125336630Y-81192299D01*
X125336630Y-81192299D01*
G37*
G36*
X92940000Y-81770000D02*
X91940000Y-81770000D01*
X91940000Y-79770000D01*
X92940000Y-79770000D01*
X92940000Y-81770000D01*
X92940000Y-81770000D01*
G37*
G36*
X94940000Y-81770000D02*
X93940000Y-81770000D01*
X93940000Y-79770000D01*
X94940000Y-79770000D01*
X94940000Y-81770000D01*
X94940000Y-81770000D01*
G37*
G36*
X106940000Y-81770000D02*
X105940000Y-81770000D01*
X105940000Y-79770000D01*
X106940000Y-79770000D01*
X106940000Y-81770000D01*
X106940000Y-81770000D01*
G37*
G36*
X104940000Y-81770000D02*
X103940000Y-81770000D01*
X103940000Y-79770000D01*
X104940000Y-79770000D01*
X104940000Y-81770000D01*
X104940000Y-81770000D01*
G37*
G36*
X102940000Y-81770000D02*
X101940000Y-81770000D01*
X101940000Y-79770000D01*
X102940000Y-79770000D01*
X102940000Y-81770000D01*
X102940000Y-81770000D01*
G37*
G36*
X100940000Y-81770000D02*
X99940000Y-81770000D01*
X99940000Y-79770000D01*
X100940000Y-79770000D01*
X100940000Y-81770000D01*
X100940000Y-81770000D01*
G37*
G36*
X96940000Y-81770000D02*
X95940000Y-81770000D01*
X95940000Y-79770000D01*
X96940000Y-79770000D01*
X96940000Y-81770000D01*
X96940000Y-81770000D01*
G37*
G36*
X98940000Y-81770000D02*
X97940000Y-81770000D01*
X97940000Y-79770000D01*
X98940000Y-79770000D01*
X98940000Y-81770000D01*
X98940000Y-81770000D01*
G37*
G36*
X185056630Y-79732299D02*
X185216855Y-79780903D01*
X185364520Y-79859831D01*
X185493949Y-79966051D01*
X185600169Y-80095480D01*
X185679097Y-80243145D01*
X185727701Y-80403370D01*
X185744112Y-80570000D01*
X185727701Y-80736630D01*
X185679097Y-80896855D01*
X185600169Y-81044520D01*
X185493949Y-81173949D01*
X185364520Y-81280169D01*
X185216855Y-81359097D01*
X185056630Y-81407701D01*
X184931752Y-81420000D01*
X184848248Y-81420000D01*
X184723370Y-81407701D01*
X184563145Y-81359097D01*
X184415480Y-81280169D01*
X184286051Y-81173949D01*
X184179831Y-81044520D01*
X184100903Y-80896855D01*
X184052299Y-80736630D01*
X184035888Y-80570000D01*
X184052299Y-80403370D01*
X184100903Y-80243145D01*
X184179831Y-80095480D01*
X184286051Y-79966051D01*
X184415480Y-79859831D01*
X184563145Y-79780903D01*
X184723370Y-79732299D01*
X184848248Y-79720000D01*
X184931752Y-79720000D01*
X185056630Y-79732299D01*
X185056630Y-79732299D01*
G37*
G36*
X187596630Y-79732299D02*
X187756855Y-79780903D01*
X187904520Y-79859831D01*
X188033949Y-79966051D01*
X188140169Y-80095480D01*
X188219097Y-80243145D01*
X188267701Y-80403370D01*
X188284112Y-80570000D01*
X188267701Y-80736630D01*
X188219097Y-80896855D01*
X188140169Y-81044520D01*
X188033949Y-81173949D01*
X187904520Y-81280169D01*
X187756855Y-81359097D01*
X187596630Y-81407701D01*
X187471752Y-81420000D01*
X187388248Y-81420000D01*
X187263370Y-81407701D01*
X187103145Y-81359097D01*
X186955480Y-81280169D01*
X186826051Y-81173949D01*
X186719831Y-81044520D01*
X186640903Y-80896855D01*
X186592299Y-80736630D01*
X186575888Y-80570000D01*
X186592299Y-80403370D01*
X186640903Y-80243145D01*
X186719831Y-80095480D01*
X186826051Y-79966051D01*
X186955480Y-79859831D01*
X187103145Y-79780903D01*
X187263370Y-79732299D01*
X187388248Y-79720000D01*
X187471752Y-79720000D01*
X187596630Y-79732299D01*
X187596630Y-79732299D01*
G37*
G36*
X125336630Y-78652299D02*
X125496855Y-78700903D01*
X125644520Y-78779831D01*
X125773949Y-78886051D01*
X125880169Y-79015480D01*
X125959097Y-79163145D01*
X126007701Y-79323370D01*
X126024112Y-79490000D01*
X126007701Y-79656630D01*
X125959097Y-79816855D01*
X125880169Y-79964520D01*
X125773949Y-80093949D01*
X125644520Y-80200169D01*
X125496855Y-80279097D01*
X125336630Y-80327701D01*
X125211752Y-80340000D01*
X125128248Y-80340000D01*
X125003370Y-80327701D01*
X124843145Y-80279097D01*
X124695480Y-80200169D01*
X124566051Y-80093949D01*
X124459831Y-79964520D01*
X124380903Y-79816855D01*
X124332299Y-79656630D01*
X124315888Y-79490000D01*
X124332299Y-79323370D01*
X124380903Y-79163145D01*
X124459831Y-79015480D01*
X124566051Y-78886051D01*
X124695480Y-78779831D01*
X124843145Y-78700903D01*
X125003370Y-78652299D01*
X125128248Y-78640000D01*
X125211752Y-78640000D01*
X125336630Y-78652299D01*
X125336630Y-78652299D01*
G37*
G36*
X93650000Y-79406250D02*
X91750000Y-79406250D01*
X91750000Y-77406250D01*
X93650000Y-77406250D01*
X93650000Y-79406250D01*
X93650000Y-79406250D01*
G37*
G36*
X98370000Y-78950000D02*
X96870000Y-78950000D01*
X96870000Y-77450000D01*
X98370000Y-77450000D01*
X98370000Y-78950000D01*
X98370000Y-78950000D01*
G37*
G36*
X185056630Y-77192299D02*
X185216855Y-77240903D01*
X185364520Y-77319831D01*
X185493949Y-77426051D01*
X185600169Y-77555480D01*
X185679097Y-77703145D01*
X185727701Y-77863370D01*
X185744112Y-78030000D01*
X185727701Y-78196630D01*
X185679097Y-78356855D01*
X185600169Y-78504520D01*
X185493949Y-78633949D01*
X185364520Y-78740169D01*
X185216855Y-78819097D01*
X185056630Y-78867701D01*
X184931752Y-78880000D01*
X184848248Y-78880000D01*
X184723370Y-78867701D01*
X184563145Y-78819097D01*
X184415480Y-78740169D01*
X184286051Y-78633949D01*
X184179831Y-78504520D01*
X184100903Y-78356855D01*
X184052299Y-78196630D01*
X184035888Y-78030000D01*
X184052299Y-77863370D01*
X184100903Y-77703145D01*
X184179831Y-77555480D01*
X184286051Y-77426051D01*
X184415480Y-77319831D01*
X184563145Y-77240903D01*
X184723370Y-77192299D01*
X184848248Y-77180000D01*
X184931752Y-77180000D01*
X185056630Y-77192299D01*
X185056630Y-77192299D01*
G37*
G36*
X187596630Y-77192299D02*
X187756855Y-77240903D01*
X187904520Y-77319831D01*
X188033949Y-77426051D01*
X188140169Y-77555480D01*
X188219097Y-77703145D01*
X188267701Y-77863370D01*
X188284112Y-78030000D01*
X188267701Y-78196630D01*
X188219097Y-78356855D01*
X188140169Y-78504520D01*
X188033949Y-78633949D01*
X187904520Y-78740169D01*
X187756855Y-78819097D01*
X187596630Y-78867701D01*
X187471752Y-78880000D01*
X187388248Y-78880000D01*
X187263370Y-78867701D01*
X187103145Y-78819097D01*
X186955480Y-78740169D01*
X186826051Y-78633949D01*
X186719831Y-78504520D01*
X186640903Y-78356855D01*
X186592299Y-78196630D01*
X186575888Y-78030000D01*
X186592299Y-77863370D01*
X186640903Y-77703145D01*
X186719831Y-77555480D01*
X186826051Y-77426051D01*
X186955480Y-77319831D01*
X187103145Y-77240903D01*
X187263370Y-77192299D01*
X187388248Y-77180000D01*
X187471752Y-77180000D01*
X187596630Y-77192299D01*
X187596630Y-77192299D01*
G37*
G36*
X96325000Y-77800000D02*
X95075000Y-77800000D01*
X95075000Y-76750000D01*
X96325000Y-76750000D01*
X96325000Y-77800000D01*
X96325000Y-77800000D01*
G37*
G36*
X126020000Y-77800000D02*
X124320000Y-77800000D01*
X124320000Y-76100000D01*
X126020000Y-76100000D01*
X126020000Y-77800000D01*
X126020000Y-77800000D01*
G37*
G36*
X98350000Y-76700000D02*
X96850000Y-76700000D01*
X96850000Y-75200000D01*
X98350000Y-75200000D01*
X98350000Y-76700000D01*
X98350000Y-76700000D01*
G37*
G36*
X187596630Y-74652299D02*
X187756855Y-74700903D01*
X187904520Y-74779831D01*
X188033949Y-74886051D01*
X188140169Y-75015480D01*
X188219097Y-75163145D01*
X188267701Y-75323370D01*
X188284112Y-75490000D01*
X188267701Y-75656630D01*
X188219097Y-75816855D01*
X188140169Y-75964520D01*
X188033949Y-76093949D01*
X187904520Y-76200169D01*
X187756855Y-76279097D01*
X187596630Y-76327701D01*
X187471752Y-76340000D01*
X187388248Y-76340000D01*
X187263370Y-76327701D01*
X187103145Y-76279097D01*
X186955480Y-76200169D01*
X186826051Y-76093949D01*
X186719831Y-75964520D01*
X186640903Y-75816855D01*
X186592299Y-75656630D01*
X186575888Y-75490000D01*
X186592299Y-75323370D01*
X186640903Y-75163145D01*
X186719831Y-75015480D01*
X186826051Y-74886051D01*
X186955480Y-74779831D01*
X187103145Y-74700903D01*
X187263370Y-74652299D01*
X187388248Y-74640000D01*
X187471752Y-74640000D01*
X187596630Y-74652299D01*
X187596630Y-74652299D01*
G37*
G36*
X185056630Y-74652299D02*
X185216855Y-74700903D01*
X185364520Y-74779831D01*
X185493949Y-74886051D01*
X185600169Y-75015480D01*
X185679097Y-75163145D01*
X185727701Y-75323370D01*
X185744112Y-75490000D01*
X185727701Y-75656630D01*
X185679097Y-75816855D01*
X185600169Y-75964520D01*
X185493949Y-76093949D01*
X185364520Y-76200169D01*
X185216855Y-76279097D01*
X185056630Y-76327701D01*
X184931752Y-76340000D01*
X184848248Y-76340000D01*
X184723370Y-76327701D01*
X184563145Y-76279097D01*
X184415480Y-76200169D01*
X184286051Y-76093949D01*
X184179831Y-75964520D01*
X184100903Y-75816855D01*
X184052299Y-75656630D01*
X184035888Y-75490000D01*
X184052299Y-75323370D01*
X184100903Y-75163145D01*
X184179831Y-75015480D01*
X184286051Y-74886051D01*
X184415480Y-74779831D01*
X184563145Y-74700903D01*
X184723370Y-74652299D01*
X184848248Y-74640000D01*
X184931752Y-74640000D01*
X185056630Y-74652299D01*
X185056630Y-74652299D01*
G37*
G36*
X98350000Y-74500000D02*
X96850000Y-74500000D01*
X96850000Y-73000000D01*
X98350000Y-73000000D01*
X98350000Y-74500000D01*
X98350000Y-74500000D01*
G37*
G36*
X185056630Y-72112299D02*
X185216855Y-72160903D01*
X185364520Y-72239831D01*
X185493949Y-72346051D01*
X185600169Y-72475480D01*
X185679097Y-72623145D01*
X185727701Y-72783370D01*
X185744112Y-72950000D01*
X185727701Y-73116630D01*
X185679097Y-73276855D01*
X185600169Y-73424520D01*
X185493949Y-73553949D01*
X185364520Y-73660169D01*
X185216855Y-73739097D01*
X185056630Y-73787701D01*
X184931752Y-73800000D01*
X184848248Y-73800000D01*
X184723370Y-73787701D01*
X184563145Y-73739097D01*
X184415480Y-73660169D01*
X184286051Y-73553949D01*
X184179831Y-73424520D01*
X184100903Y-73276855D01*
X184052299Y-73116630D01*
X184035888Y-72950000D01*
X184052299Y-72783370D01*
X184100903Y-72623145D01*
X184179831Y-72475480D01*
X184286051Y-72346051D01*
X184415480Y-72239831D01*
X184563145Y-72160903D01*
X184723370Y-72112299D01*
X184848248Y-72100000D01*
X184931752Y-72100000D01*
X185056630Y-72112299D01*
X185056630Y-72112299D01*
G37*
G36*
X187596630Y-72112299D02*
X187756855Y-72160903D01*
X187904520Y-72239831D01*
X188033949Y-72346051D01*
X188140169Y-72475480D01*
X188219097Y-72623145D01*
X188267701Y-72783370D01*
X188284112Y-72950000D01*
X188267701Y-73116630D01*
X188219097Y-73276855D01*
X188140169Y-73424520D01*
X188033949Y-73553949D01*
X187904520Y-73660169D01*
X187756855Y-73739097D01*
X187596630Y-73787701D01*
X187471752Y-73800000D01*
X187388248Y-73800000D01*
X187263370Y-73787701D01*
X187103145Y-73739097D01*
X186955480Y-73660169D01*
X186826051Y-73553949D01*
X186719831Y-73424520D01*
X186640903Y-73276855D01*
X186592299Y-73116630D01*
X186575888Y-72950000D01*
X186592299Y-72783370D01*
X186640903Y-72623145D01*
X186719831Y-72475480D01*
X186826051Y-72346051D01*
X186955480Y-72239831D01*
X187103145Y-72160903D01*
X187263370Y-72112299D01*
X187388248Y-72100000D01*
X187471752Y-72100000D01*
X187596630Y-72112299D01*
X187596630Y-72112299D01*
G37*
G36*
X96325000Y-72950000D02*
X95075000Y-72950000D01*
X95075000Y-71900000D01*
X96325000Y-71900000D01*
X96325000Y-72950000D01*
X96325000Y-72950000D01*
G37*
G36*
X98360000Y-72300000D02*
X96860000Y-72300000D01*
X96860000Y-70800000D01*
X98360000Y-70800000D01*
X98360000Y-72300000D01*
X98360000Y-72300000D01*
G37*
G36*
X93650000Y-72293750D02*
X91750000Y-72293750D01*
X91750000Y-70293750D01*
X93650000Y-70293750D01*
X93650000Y-72293750D01*
X93650000Y-72293750D01*
G37*
G36*
X187596630Y-69572299D02*
X187756855Y-69620903D01*
X187904520Y-69699831D01*
X188033949Y-69806051D01*
X188140169Y-69935480D01*
X188219097Y-70083145D01*
X188267701Y-70243370D01*
X188284112Y-70410000D01*
X188267701Y-70576630D01*
X188219097Y-70736855D01*
X188140169Y-70884520D01*
X188033949Y-71013949D01*
X187904520Y-71120169D01*
X187756855Y-71199097D01*
X187596630Y-71247701D01*
X187471752Y-71260000D01*
X187388248Y-71260000D01*
X187263370Y-71247701D01*
X187103145Y-71199097D01*
X186955480Y-71120169D01*
X186826051Y-71013949D01*
X186719831Y-70884520D01*
X186640903Y-70736855D01*
X186592299Y-70576630D01*
X186575888Y-70410000D01*
X186592299Y-70243370D01*
X186640903Y-70083145D01*
X186719831Y-69935480D01*
X186826051Y-69806051D01*
X186955480Y-69699831D01*
X187103145Y-69620903D01*
X187263370Y-69572299D01*
X187388248Y-69560000D01*
X187471752Y-69560000D01*
X187596630Y-69572299D01*
X187596630Y-69572299D01*
G37*
G36*
X185740000Y-71260000D02*
X184040000Y-71260000D01*
X184040000Y-69560000D01*
X185740000Y-69560000D01*
X185740000Y-71260000D01*
X185740000Y-71260000D01*
G37*
G36*
X103055000Y-70435000D02*
X101785000Y-70435000D01*
X101785000Y-69465000D01*
X103055000Y-69465000D01*
X103055000Y-70435000D01*
X103055000Y-70435000D01*
G37*
G36*
X103055000Y-69155000D02*
X101785000Y-69155000D01*
X101785000Y-68185000D01*
X103055000Y-68185000D01*
X103055000Y-69155000D01*
X103055000Y-69155000D01*
G37*
G36*
X181636253Y-60033801D02*
X181906730Y-60087602D01*
X182117799Y-60175030D01*
X182416296Y-60298671D01*
X182874899Y-60605100D01*
X183264900Y-60995101D01*
X183571329Y-61453704D01*
X183694970Y-61752201D01*
X183781418Y-61960903D01*
X183782398Y-61963271D01*
X183873873Y-62423145D01*
X183890000Y-62504224D01*
X183890000Y-63055776D01*
X183782398Y-63596730D01*
X183694970Y-63807799D01*
X183571329Y-64106296D01*
X183264900Y-64564899D01*
X182874899Y-64954900D01*
X182416296Y-65261329D01*
X182117799Y-65384970D01*
X181906730Y-65472398D01*
X181636253Y-65526199D01*
X181365777Y-65580000D01*
X180814223Y-65580000D01*
X180543747Y-65526199D01*
X180273270Y-65472398D01*
X180062201Y-65384970D01*
X179763704Y-65261329D01*
X179305101Y-64954900D01*
X178915100Y-64564899D01*
X178608671Y-64106296D01*
X178485030Y-63807799D01*
X178397602Y-63596730D01*
X178290000Y-63055776D01*
X178290000Y-62504224D01*
X178306128Y-62423145D01*
X178397602Y-61963271D01*
X178398583Y-61960903D01*
X178485030Y-61752201D01*
X178608671Y-61453704D01*
X178915100Y-60995101D01*
X179305101Y-60605100D01*
X179763704Y-60298671D01*
X180062201Y-60175030D01*
X180273270Y-60087602D01*
X180543747Y-60033801D01*
X180814223Y-59980000D01*
X181365777Y-59980000D01*
X181636253Y-60033801D01*
X181636253Y-60033801D01*
G37*
G36*
X106476050Y-59980000D02*
X106966730Y-60077602D01*
X107177799Y-60165030D01*
X107476296Y-60288671D01*
X107934899Y-60595100D01*
X108324900Y-60985101D01*
X108631329Y-61443704D01*
X108635471Y-61453704D01*
X108825428Y-61912300D01*
X108842398Y-61953271D01*
X108906490Y-62275481D01*
X108950000Y-62494224D01*
X108950000Y-63045776D01*
X108842398Y-63586730D01*
X108836901Y-63600000D01*
X108631329Y-64096296D01*
X108324900Y-64554899D01*
X107934899Y-64944900D01*
X107476296Y-65251329D01*
X107177799Y-65374970D01*
X106966730Y-65462398D01*
X106916456Y-65472398D01*
X106425777Y-65570000D01*
X105874223Y-65570000D01*
X105383544Y-65472398D01*
X105333270Y-65462398D01*
X105122201Y-65374970D01*
X104823704Y-65251329D01*
X104365101Y-64944900D01*
X103975100Y-64554899D01*
X103668671Y-64096296D01*
X103463099Y-63600000D01*
X103457602Y-63586730D01*
X103350000Y-63045776D01*
X103350000Y-62494224D01*
X103393511Y-62275481D01*
X103457602Y-61953271D01*
X103474573Y-61912300D01*
X103664529Y-61453704D01*
X103668671Y-61443704D01*
X103975100Y-60985101D01*
X104365101Y-60595100D01*
X104823704Y-60288671D01*
X105122201Y-60165030D01*
X105333270Y-60077602D01*
X105823950Y-59980000D01*
X105874223Y-59970000D01*
X106425777Y-59970000D01*
X106476050Y-59980000D01*
X106476050Y-59980000D01*
G37*
G36*
X166636630Y-61912299D02*
X166796855Y-61960903D01*
X166944520Y-62039831D01*
X167073949Y-62146051D01*
X167180169Y-62275480D01*
X167259097Y-62423145D01*
X167307701Y-62583370D01*
X167324112Y-62750000D01*
X167307701Y-62916630D01*
X167259097Y-63076855D01*
X167180169Y-63224520D01*
X167073949Y-63353949D01*
X166944520Y-63460169D01*
X166796855Y-63539097D01*
X166636630Y-63587701D01*
X166511752Y-63600000D01*
X166428248Y-63600000D01*
X166303370Y-63587701D01*
X166143145Y-63539097D01*
X165995480Y-63460169D01*
X165866051Y-63353949D01*
X165759831Y-63224520D01*
X165680903Y-63076855D01*
X165632299Y-62916630D01*
X165615888Y-62750000D01*
X165632299Y-62583370D01*
X165680903Y-62423145D01*
X165759831Y-62275480D01*
X165866051Y-62146051D01*
X165995480Y-62039831D01*
X166143145Y-61960903D01*
X166303370Y-61912299D01*
X166428248Y-61900000D01*
X166511752Y-61900000D01*
X166636630Y-61912299D01*
X166636630Y-61912299D01*
G37*
G36*
X169176630Y-61912299D02*
X169336855Y-61960903D01*
X169484520Y-62039831D01*
X169613949Y-62146051D01*
X169720169Y-62275480D01*
X169799097Y-62423145D01*
X169847701Y-62583370D01*
X169864112Y-62750000D01*
X169847701Y-62916630D01*
X169799097Y-63076855D01*
X169720169Y-63224520D01*
X169613949Y-63353949D01*
X169484520Y-63460169D01*
X169336855Y-63539097D01*
X169176630Y-63587701D01*
X169051752Y-63600000D01*
X168968248Y-63600000D01*
X168843370Y-63587701D01*
X168683145Y-63539097D01*
X168535480Y-63460169D01*
X168406051Y-63353949D01*
X168299831Y-63224520D01*
X168220903Y-63076855D01*
X168172299Y-62916630D01*
X168155888Y-62750000D01*
X168172299Y-62583370D01*
X168220903Y-62423145D01*
X168299831Y-62275480D01*
X168406051Y-62146051D01*
X168535480Y-62039831D01*
X168683145Y-61960903D01*
X168843370Y-61912299D01*
X168968248Y-61900000D01*
X169051752Y-61900000D01*
X169176630Y-61912299D01*
X169176630Y-61912299D01*
G37*
G36*
X171716630Y-61912299D02*
X171876855Y-61960903D01*
X172024520Y-62039831D01*
X172153949Y-62146051D01*
X172260169Y-62275480D01*
X172339097Y-62423145D01*
X172387701Y-62583370D01*
X172404112Y-62750000D01*
X172387701Y-62916630D01*
X172339097Y-63076855D01*
X172260169Y-63224520D01*
X172153949Y-63353949D01*
X172024520Y-63460169D01*
X171876855Y-63539097D01*
X171716630Y-63587701D01*
X171591752Y-63600000D01*
X171508248Y-63600000D01*
X171383370Y-63587701D01*
X171223145Y-63539097D01*
X171075480Y-63460169D01*
X170946051Y-63353949D01*
X170839831Y-63224520D01*
X170760903Y-63076855D01*
X170712299Y-62916630D01*
X170695888Y-62750000D01*
X170712299Y-62583370D01*
X170760903Y-62423145D01*
X170839831Y-62275480D01*
X170946051Y-62146051D01*
X171075480Y-62039831D01*
X171223145Y-61960903D01*
X171383370Y-61912299D01*
X171508248Y-61900000D01*
X171591752Y-61900000D01*
X171716630Y-61912299D01*
X171716630Y-61912299D01*
G37*
G36*
X144700000Y-63600000D02*
X143000000Y-63600000D01*
X143000000Y-61900000D01*
X144700000Y-61900000D01*
X144700000Y-63600000D01*
X144700000Y-63600000D01*
G37*
G36*
X174940000Y-63600000D02*
X173240000Y-63600000D01*
X173240000Y-61900000D01*
X174940000Y-61900000D01*
X174940000Y-63600000D01*
X174940000Y-63600000D01*
G37*
G36*
X149096630Y-61912299D02*
X149256855Y-61960903D01*
X149404520Y-62039831D01*
X149533949Y-62146051D01*
X149640169Y-62275480D01*
X149719097Y-62423145D01*
X149767701Y-62583370D01*
X149784112Y-62750000D01*
X149767701Y-62916630D01*
X149719097Y-63076855D01*
X149640169Y-63224520D01*
X149533949Y-63353949D01*
X149404520Y-63460169D01*
X149256855Y-63539097D01*
X149096630Y-63587701D01*
X148971752Y-63600000D01*
X148888248Y-63600000D01*
X148763370Y-63587701D01*
X148603145Y-63539097D01*
X148455480Y-63460169D01*
X148326051Y-63353949D01*
X148219831Y-63224520D01*
X148140903Y-63076855D01*
X148092299Y-62916630D01*
X148075888Y-62750000D01*
X148092299Y-62583370D01*
X148140903Y-62423145D01*
X148219831Y-62275480D01*
X148326051Y-62146051D01*
X148455480Y-62039831D01*
X148603145Y-61960903D01*
X148763370Y-61912299D01*
X148888248Y-61900000D01*
X148971752Y-61900000D01*
X149096630Y-61912299D01*
X149096630Y-61912299D01*
G37*
G36*
X151636630Y-61912299D02*
X151796855Y-61960903D01*
X151944520Y-62039831D01*
X152073949Y-62146051D01*
X152180169Y-62275480D01*
X152259097Y-62423145D01*
X152307701Y-62583370D01*
X152324112Y-62750000D01*
X152307701Y-62916630D01*
X152259097Y-63076855D01*
X152180169Y-63224520D01*
X152073949Y-63353949D01*
X151944520Y-63460169D01*
X151796855Y-63539097D01*
X151636630Y-63587701D01*
X151511752Y-63600000D01*
X151428248Y-63600000D01*
X151303370Y-63587701D01*
X151143145Y-63539097D01*
X150995480Y-63460169D01*
X150866051Y-63353949D01*
X150759831Y-63224520D01*
X150680903Y-63076855D01*
X150632299Y-62916630D01*
X150615888Y-62750000D01*
X150632299Y-62583370D01*
X150680903Y-62423145D01*
X150759831Y-62275480D01*
X150866051Y-62146051D01*
X150995480Y-62039831D01*
X151143145Y-61960903D01*
X151303370Y-61912299D01*
X151428248Y-61900000D01*
X151511752Y-61900000D01*
X151636630Y-61912299D01*
X151636630Y-61912299D01*
G37*
G36*
X139216630Y-61912299D02*
X139376855Y-61960903D01*
X139524520Y-62039831D01*
X139653949Y-62146051D01*
X139760169Y-62275480D01*
X139839097Y-62423145D01*
X139887701Y-62583370D01*
X139904112Y-62750000D01*
X139887701Y-62916630D01*
X139839097Y-63076855D01*
X139760169Y-63224520D01*
X139653949Y-63353949D01*
X139524520Y-63460169D01*
X139376855Y-63539097D01*
X139216630Y-63587701D01*
X139091752Y-63600000D01*
X139008248Y-63600000D01*
X138883370Y-63587701D01*
X138723145Y-63539097D01*
X138575480Y-63460169D01*
X138446051Y-63353949D01*
X138339831Y-63224520D01*
X138260903Y-63076855D01*
X138212299Y-62916630D01*
X138195888Y-62750000D01*
X138212299Y-62583370D01*
X138260903Y-62423145D01*
X138339831Y-62275480D01*
X138446051Y-62146051D01*
X138575480Y-62039831D01*
X138723145Y-61960903D01*
X138883370Y-61912299D01*
X139008248Y-61900000D01*
X139091752Y-61900000D01*
X139216630Y-61912299D01*
X139216630Y-61912299D01*
G37*
G36*
X121716630Y-61912299D02*
X121876855Y-61960903D01*
X122024520Y-62039831D01*
X122153949Y-62146051D01*
X122260169Y-62275480D01*
X122339097Y-62423145D01*
X122387701Y-62583370D01*
X122404112Y-62750000D01*
X122387701Y-62916630D01*
X122339097Y-63076855D01*
X122260169Y-63224520D01*
X122153949Y-63353949D01*
X122024520Y-63460169D01*
X121876855Y-63539097D01*
X121716630Y-63587701D01*
X121591752Y-63600000D01*
X121508248Y-63600000D01*
X121383370Y-63587701D01*
X121223145Y-63539097D01*
X121075480Y-63460169D01*
X120946051Y-63353949D01*
X120839831Y-63224520D01*
X120760903Y-63076855D01*
X120712299Y-62916630D01*
X120695888Y-62750000D01*
X120712299Y-62583370D01*
X120760903Y-62423145D01*
X120839831Y-62275480D01*
X120946051Y-62146051D01*
X121075480Y-62039831D01*
X121223145Y-61960903D01*
X121383370Y-61912299D01*
X121508248Y-61900000D01*
X121591752Y-61900000D01*
X121716630Y-61912299D01*
X121716630Y-61912299D01*
G37*
G36*
X124256630Y-61912299D02*
X124416855Y-61960903D01*
X124564520Y-62039831D01*
X124693949Y-62146051D01*
X124800169Y-62275480D01*
X124879097Y-62423145D01*
X124927701Y-62583370D01*
X124944112Y-62750000D01*
X124927701Y-62916630D01*
X124879097Y-63076855D01*
X124800169Y-63224520D01*
X124693949Y-63353949D01*
X124564520Y-63460169D01*
X124416855Y-63539097D01*
X124256630Y-63587701D01*
X124131752Y-63600000D01*
X124048248Y-63600000D01*
X123923370Y-63587701D01*
X123763145Y-63539097D01*
X123615480Y-63460169D01*
X123486051Y-63353949D01*
X123379831Y-63224520D01*
X123300903Y-63076855D01*
X123252299Y-62916630D01*
X123235888Y-62750000D01*
X123252299Y-62583370D01*
X123300903Y-62423145D01*
X123379831Y-62275480D01*
X123486051Y-62146051D01*
X123615480Y-62039831D01*
X123763145Y-61960903D01*
X123923370Y-61912299D01*
X124048248Y-61900000D01*
X124131752Y-61900000D01*
X124256630Y-61912299D01*
X124256630Y-61912299D01*
G37*
G36*
X127480000Y-63600000D02*
X125780000Y-63600000D01*
X125780000Y-61900000D01*
X127480000Y-61900000D01*
X127480000Y-63600000D01*
X127480000Y-63600000D01*
G37*
G36*
X136676630Y-61912299D02*
X136836855Y-61960903D01*
X136984520Y-62039831D01*
X137113949Y-62146051D01*
X137220169Y-62275480D01*
X137299097Y-62423145D01*
X137347701Y-62583370D01*
X137364112Y-62750000D01*
X137347701Y-62916630D01*
X137299097Y-63076855D01*
X137220169Y-63224520D01*
X137113949Y-63353949D01*
X136984520Y-63460169D01*
X136836855Y-63539097D01*
X136676630Y-63587701D01*
X136551752Y-63600000D01*
X136468248Y-63600000D01*
X136343370Y-63587701D01*
X136183145Y-63539097D01*
X136035480Y-63460169D01*
X135906051Y-63353949D01*
X135799831Y-63224520D01*
X135720903Y-63076855D01*
X135672299Y-62916630D01*
X135655888Y-62750000D01*
X135672299Y-62583370D01*
X135720903Y-62423145D01*
X135799831Y-62275480D01*
X135906051Y-62146051D01*
X136035480Y-62039831D01*
X136183145Y-61960903D01*
X136343370Y-61912299D01*
X136468248Y-61900000D01*
X136551752Y-61900000D01*
X136676630Y-61912299D01*
X136676630Y-61912299D01*
G37*
G36*
X134136630Y-61912299D02*
X134296855Y-61960903D01*
X134444520Y-62039831D01*
X134573949Y-62146051D01*
X134680169Y-62275480D01*
X134759097Y-62423145D01*
X134807701Y-62583370D01*
X134824112Y-62750000D01*
X134807701Y-62916630D01*
X134759097Y-63076855D01*
X134680169Y-63224520D01*
X134573949Y-63353949D01*
X134444520Y-63460169D01*
X134296855Y-63539097D01*
X134136630Y-63587701D01*
X134011752Y-63600000D01*
X133928248Y-63600000D01*
X133803370Y-63587701D01*
X133643145Y-63539097D01*
X133495480Y-63460169D01*
X133366051Y-63353949D01*
X133259831Y-63224520D01*
X133180903Y-63076855D01*
X133132299Y-62916630D01*
X133115888Y-62750000D01*
X133132299Y-62583370D01*
X133180903Y-62423145D01*
X133259831Y-62275480D01*
X133366051Y-62146051D01*
X133495480Y-62039831D01*
X133643145Y-61960903D01*
X133803370Y-61912299D01*
X133928248Y-61900000D01*
X134011752Y-61900000D01*
X134136630Y-61912299D01*
X134136630Y-61912299D01*
G37*
G36*
X132280000Y-63600000D02*
X130580000Y-63600000D01*
X130580000Y-61900000D01*
X132280000Y-61900000D01*
X132280000Y-63600000D01*
X132280000Y-63600000D01*
G37*
G36*
X114096630Y-61912299D02*
X114256855Y-61960903D01*
X114404520Y-62039831D01*
X114533949Y-62146051D01*
X114640169Y-62275480D01*
X114719097Y-62423145D01*
X114767701Y-62583370D01*
X114784112Y-62750000D01*
X114767701Y-62916630D01*
X114719097Y-63076855D01*
X114640169Y-63224520D01*
X114533949Y-63353949D01*
X114404520Y-63460169D01*
X114256855Y-63539097D01*
X114096630Y-63587701D01*
X113971752Y-63600000D01*
X113888248Y-63600000D01*
X113763370Y-63587701D01*
X113603145Y-63539097D01*
X113455480Y-63460169D01*
X113326051Y-63353949D01*
X113219831Y-63224520D01*
X113140903Y-63076855D01*
X113092299Y-62916630D01*
X113075888Y-62750000D01*
X113092299Y-62583370D01*
X113140903Y-62423145D01*
X113219831Y-62275480D01*
X113326051Y-62146051D01*
X113455480Y-62039831D01*
X113603145Y-61960903D01*
X113763370Y-61912299D01*
X113888248Y-61900000D01*
X113971752Y-61900000D01*
X114096630Y-61912299D01*
X114096630Y-61912299D01*
G37*
G36*
X116636630Y-61912299D02*
X116796855Y-61960903D01*
X116944520Y-62039831D01*
X117073949Y-62146051D01*
X117180169Y-62275480D01*
X117259097Y-62423145D01*
X117307701Y-62583370D01*
X117324112Y-62750000D01*
X117307701Y-62916630D01*
X117259097Y-63076855D01*
X117180169Y-63224520D01*
X117073949Y-63353949D01*
X116944520Y-63460169D01*
X116796855Y-63539097D01*
X116636630Y-63587701D01*
X116511752Y-63600000D01*
X116428248Y-63600000D01*
X116303370Y-63587701D01*
X116143145Y-63539097D01*
X115995480Y-63460169D01*
X115866051Y-63353949D01*
X115759831Y-63224520D01*
X115680903Y-63076855D01*
X115632299Y-62916630D01*
X115615888Y-62750000D01*
X115632299Y-62583370D01*
X115680903Y-62423145D01*
X115759831Y-62275480D01*
X115866051Y-62146051D01*
X115995480Y-62039831D01*
X116143145Y-61960903D01*
X116303370Y-61912299D01*
X116428248Y-61900000D01*
X116511752Y-61900000D01*
X116636630Y-61912299D01*
X116636630Y-61912299D01*
G37*
G36*
X119176630Y-61912299D02*
X119336855Y-61960903D01*
X119484520Y-62039831D01*
X119613949Y-62146051D01*
X119720169Y-62275480D01*
X119799097Y-62423145D01*
X119847701Y-62583370D01*
X119864112Y-62750000D01*
X119847701Y-62916630D01*
X119799097Y-63076855D01*
X119720169Y-63224520D01*
X119613949Y-63353949D01*
X119484520Y-63460169D01*
X119336855Y-63539097D01*
X119176630Y-63587701D01*
X119051752Y-63600000D01*
X118968248Y-63600000D01*
X118843370Y-63587701D01*
X118683145Y-63539097D01*
X118535480Y-63460169D01*
X118406051Y-63353949D01*
X118299831Y-63224520D01*
X118220903Y-63076855D01*
X118172299Y-62916630D01*
X118155888Y-62750000D01*
X118172299Y-62583370D01*
X118220903Y-62423145D01*
X118299831Y-62275480D01*
X118406051Y-62146051D01*
X118535480Y-62039831D01*
X118683145Y-61960903D01*
X118843370Y-61912299D01*
X118968248Y-61900000D01*
X119051752Y-61900000D01*
X119176630Y-61912299D01*
X119176630Y-61912299D01*
G37*
G36*
X156476630Y-61912299D02*
X156636855Y-61960903D01*
X156784520Y-62039831D01*
X156913949Y-62146051D01*
X157020169Y-62275480D01*
X157099097Y-62423145D01*
X157147701Y-62583370D01*
X157164112Y-62750000D01*
X157147701Y-62916630D01*
X157099097Y-63076855D01*
X157020169Y-63224520D01*
X156913949Y-63353949D01*
X156784520Y-63460169D01*
X156636855Y-63539097D01*
X156476630Y-63587701D01*
X156351752Y-63600000D01*
X156268248Y-63600000D01*
X156143370Y-63587701D01*
X155983145Y-63539097D01*
X155835480Y-63460169D01*
X155706051Y-63353949D01*
X155599831Y-63224520D01*
X155520903Y-63076855D01*
X155472299Y-62916630D01*
X155455888Y-62750000D01*
X155472299Y-62583370D01*
X155520903Y-62423145D01*
X155599831Y-62275480D01*
X155706051Y-62146051D01*
X155835480Y-62039831D01*
X155983145Y-61960903D01*
X156143370Y-61912299D01*
X156268248Y-61900000D01*
X156351752Y-61900000D01*
X156476630Y-61912299D01*
X156476630Y-61912299D01*
G37*
G36*
X159016630Y-61912299D02*
X159176855Y-61960903D01*
X159324520Y-62039831D01*
X159453949Y-62146051D01*
X159560169Y-62275480D01*
X159639097Y-62423145D01*
X159687701Y-62583370D01*
X159704112Y-62750000D01*
X159687701Y-62916630D01*
X159639097Y-63076855D01*
X159560169Y-63224520D01*
X159453949Y-63353949D01*
X159324520Y-63460169D01*
X159176855Y-63539097D01*
X159016630Y-63587701D01*
X158891752Y-63600000D01*
X158808248Y-63600000D01*
X158683370Y-63587701D01*
X158523145Y-63539097D01*
X158375480Y-63460169D01*
X158246051Y-63353949D01*
X158139831Y-63224520D01*
X158060903Y-63076855D01*
X158012299Y-62916630D01*
X157995888Y-62750000D01*
X158012299Y-62583370D01*
X158060903Y-62423145D01*
X158139831Y-62275480D01*
X158246051Y-62146051D01*
X158375480Y-62039831D01*
X158523145Y-61960903D01*
X158683370Y-61912299D01*
X158808248Y-61900000D01*
X158891752Y-61900000D01*
X159016630Y-61912299D01*
X159016630Y-61912299D01*
G37*
G36*
X161556630Y-61912299D02*
X161716855Y-61960903D01*
X161864520Y-62039831D01*
X161993949Y-62146051D01*
X162100169Y-62275480D01*
X162179097Y-62423145D01*
X162227701Y-62583370D01*
X162244112Y-62750000D01*
X162227701Y-62916630D01*
X162179097Y-63076855D01*
X162100169Y-63224520D01*
X161993949Y-63353949D01*
X161864520Y-63460169D01*
X161716855Y-63539097D01*
X161556630Y-63587701D01*
X161431752Y-63600000D01*
X161348248Y-63600000D01*
X161223370Y-63587701D01*
X161063145Y-63539097D01*
X160915480Y-63460169D01*
X160786051Y-63353949D01*
X160679831Y-63224520D01*
X160600903Y-63076855D01*
X160552299Y-62916630D01*
X160535888Y-62750000D01*
X160552299Y-62583370D01*
X160600903Y-62423145D01*
X160679831Y-62275480D01*
X160786051Y-62146051D01*
X160915480Y-62039831D01*
X161063145Y-61960903D01*
X161223370Y-61912299D01*
X161348248Y-61900000D01*
X161431752Y-61900000D01*
X161556630Y-61912299D01*
X161556630Y-61912299D01*
G37*
G36*
X146556630Y-61912299D02*
X146716855Y-61960903D01*
X146864520Y-62039831D01*
X146993949Y-62146051D01*
X147100169Y-62275480D01*
X147179097Y-62423145D01*
X147227701Y-62583370D01*
X147244112Y-62750000D01*
X147227701Y-62916630D01*
X147179097Y-63076855D01*
X147100169Y-63224520D01*
X146993949Y-63353949D01*
X146864520Y-63460169D01*
X146716855Y-63539097D01*
X146556630Y-63587701D01*
X146431752Y-63600000D01*
X146348248Y-63600000D01*
X146223370Y-63587701D01*
X146063145Y-63539097D01*
X145915480Y-63460169D01*
X145786051Y-63353949D01*
X145679831Y-63224520D01*
X145600903Y-63076855D01*
X145552299Y-62916630D01*
X145535888Y-62750000D01*
X145552299Y-62583370D01*
X145600903Y-62423145D01*
X145679831Y-62275480D01*
X145786051Y-62146051D01*
X145915480Y-62039831D01*
X146063145Y-61960903D01*
X146223370Y-61912299D01*
X146348248Y-61900000D01*
X146431752Y-61900000D01*
X146556630Y-61912299D01*
X146556630Y-61912299D01*
G37*
G36*
X164096630Y-61912299D02*
X164256855Y-61960903D01*
X164404520Y-62039831D01*
X164533949Y-62146051D01*
X164640169Y-62275480D01*
X164719097Y-62423145D01*
X164767701Y-62583370D01*
X164784112Y-62750000D01*
X164767701Y-62916630D01*
X164719097Y-63076855D01*
X164640169Y-63224520D01*
X164533949Y-63353949D01*
X164404520Y-63460169D01*
X164256855Y-63539097D01*
X164096630Y-63587701D01*
X163971752Y-63600000D01*
X163888248Y-63600000D01*
X163763370Y-63587701D01*
X163603145Y-63539097D01*
X163455480Y-63460169D01*
X163326051Y-63353949D01*
X163219831Y-63224520D01*
X163140903Y-63076855D01*
X163092299Y-62916630D01*
X163075888Y-62750000D01*
X163092299Y-62583370D01*
X163140903Y-62423145D01*
X163219831Y-62275480D01*
X163326051Y-62146051D01*
X163455480Y-62039831D01*
X163603145Y-61960903D01*
X163763370Y-61912299D01*
X163888248Y-61900000D01*
X163971752Y-61900000D01*
X164096630Y-61912299D01*
X164096630Y-61912299D01*
G37*
M02*
