G04 #@! TF.GenerationSoftware,KiCad,Pcbnew,5.1.6-c6e7f7d~87~ubuntu18.04.1*
G04 #@! TF.CreationDate,2020-10-25T15:07:58+02:00*
G04 #@! TF.ProjectId,PSLab,50534c61-622e-46b6-9963-61645f706362,v6.1*
G04 #@! TF.SameCoordinates,Original*
G04 #@! TF.FileFunction,Paste,Bot*
G04 #@! TF.FilePolarity,Positive*
%FSLAX46Y46*%
G04 Gerber Fmt 4.6, Leading zero omitted, Abs format (unit mm)*
G04 Created by KiCad (PCBNEW 5.1.6-c6e7f7d~87~ubuntu18.04.1) date 2020-10-25 15:07:58*
%MOMM*%
%LPD*%
G01*
G04 APERTURE LIST*
G04 APERTURE END LIST*
G36*
G01*
X97010000Y-71950000D02*
X96010000Y-71950000D01*
G75*
G02*
X95935000Y-71875000I0J75000D01*
G01*
X95935000Y-71725000D01*
G75*
G02*
X96010000Y-71650000I75000J0D01*
G01*
X97010000Y-71650000D01*
G75*
G02*
X97085000Y-71725000I0J-75000D01*
G01*
X97085000Y-71875000D01*
G75*
G02*
X97010000Y-71950000I-75000J0D01*
G01*
G37*
G36*
G01*
X97010000Y-72750000D02*
X96010000Y-72750000D01*
G75*
G02*
X95935000Y-72675000I0J75000D01*
G01*
X95935000Y-72525000D01*
G75*
G02*
X96010000Y-72450000I75000J0D01*
G01*
X97010000Y-72450000D01*
G75*
G02*
X97085000Y-72525000I0J-75000D01*
G01*
X97085000Y-72675000D01*
G75*
G02*
X97010000Y-72750000I-75000J0D01*
G01*
G37*
G36*
G01*
X97010000Y-73750000D02*
X96010000Y-73750000D01*
G75*
G02*
X95935000Y-73675000I0J75000D01*
G01*
X95935000Y-73525000D01*
G75*
G02*
X96010000Y-73450000I75000J0D01*
G01*
X97010000Y-73450000D01*
G75*
G02*
X97085000Y-73525000I0J-75000D01*
G01*
X97085000Y-73675000D01*
G75*
G02*
X97010000Y-73750000I-75000J0D01*
G01*
G37*
G36*
G01*
X97010000Y-73250000D02*
X96010000Y-73250000D01*
G75*
G02*
X95935000Y-73175000I0J75000D01*
G01*
X95935000Y-73025000D01*
G75*
G02*
X96010000Y-72950000I75000J0D01*
G01*
X97010000Y-72950000D01*
G75*
G02*
X97085000Y-73025000I0J-75000D01*
G01*
X97085000Y-73175000D01*
G75*
G02*
X97010000Y-73250000I-75000J0D01*
G01*
G37*
G36*
G01*
X97010000Y-74750000D02*
X96010000Y-74750000D01*
G75*
G02*
X95935000Y-74675000I0J75000D01*
G01*
X95935000Y-74525000D01*
G75*
G02*
X96010000Y-74450000I75000J0D01*
G01*
X97010000Y-74450000D01*
G75*
G02*
X97085000Y-74525000I0J-75000D01*
G01*
X97085000Y-74675000D01*
G75*
G02*
X97010000Y-74750000I-75000J0D01*
G01*
G37*
G36*
G01*
X97010000Y-74250000D02*
X96010000Y-74250000D01*
G75*
G02*
X95935000Y-74175000I0J75000D01*
G01*
X95935000Y-74025000D01*
G75*
G02*
X96010000Y-73950000I75000J0D01*
G01*
X97010000Y-73950000D01*
G75*
G02*
X97085000Y-74025000I0J-75000D01*
G01*
X97085000Y-74175000D01*
G75*
G02*
X97010000Y-74250000I-75000J0D01*
G01*
G37*
G36*
G01*
X97010000Y-75250000D02*
X96010000Y-75250000D01*
G75*
G02*
X95935000Y-75175000I0J75000D01*
G01*
X95935000Y-75025000D01*
G75*
G02*
X96010000Y-74950000I75000J0D01*
G01*
X97010000Y-74950000D01*
G75*
G02*
X97085000Y-75025000I0J-75000D01*
G01*
X97085000Y-75175000D01*
G75*
G02*
X97010000Y-75250000I-75000J0D01*
G01*
G37*
G36*
G01*
X97010000Y-75750000D02*
X96010000Y-75750000D01*
G75*
G02*
X95935000Y-75675000I0J75000D01*
G01*
X95935000Y-75525000D01*
G75*
G02*
X96010000Y-75450000I75000J0D01*
G01*
X97010000Y-75450000D01*
G75*
G02*
X97085000Y-75525000I0J-75000D01*
G01*
X97085000Y-75675000D01*
G75*
G02*
X97010000Y-75750000I-75000J0D01*
G01*
G37*
G36*
G01*
X97010000Y-76750000D02*
X96010000Y-76750000D01*
G75*
G02*
X95935000Y-76675000I0J75000D01*
G01*
X95935000Y-76525000D01*
G75*
G02*
X96010000Y-76450000I75000J0D01*
G01*
X97010000Y-76450000D01*
G75*
G02*
X97085000Y-76525000I0J-75000D01*
G01*
X97085000Y-76675000D01*
G75*
G02*
X97010000Y-76750000I-75000J0D01*
G01*
G37*
G36*
G01*
X97010000Y-76250000D02*
X96010000Y-76250000D01*
G75*
G02*
X95935000Y-76175000I0J75000D01*
G01*
X95935000Y-76025000D01*
G75*
G02*
X96010000Y-75950000I75000J0D01*
G01*
X97010000Y-75950000D01*
G75*
G02*
X97085000Y-76025000I0J-75000D01*
G01*
X97085000Y-76175000D01*
G75*
G02*
X97010000Y-76250000I-75000J0D01*
G01*
G37*
G36*
G01*
X97010000Y-77550000D02*
X96010000Y-77550000D01*
G75*
G02*
X95935000Y-77475000I0J75000D01*
G01*
X95935000Y-77325000D01*
G75*
G02*
X96010000Y-77250000I75000J0D01*
G01*
X97010000Y-77250000D01*
G75*
G02*
X97085000Y-77325000I0J-75000D01*
G01*
X97085000Y-77475000D01*
G75*
G02*
X97010000Y-77550000I-75000J0D01*
G01*
G37*
G36*
G01*
X97010000Y-78350000D02*
X96010000Y-78350000D01*
G75*
G02*
X95935000Y-78275000I0J75000D01*
G01*
X95935000Y-78125000D01*
G75*
G02*
X96010000Y-78050000I75000J0D01*
G01*
X97010000Y-78050000D01*
G75*
G02*
X97085000Y-78125000I0J-75000D01*
G01*
X97085000Y-78275000D01*
G75*
G02*
X97010000Y-78350000I-75000J0D01*
G01*
G37*
G36*
G01*
X97010000Y-78050000D02*
X96010000Y-78050000D01*
G75*
G02*
X95935000Y-77975000I0J75000D01*
G01*
X95935000Y-77825000D01*
G75*
G02*
X96010000Y-77750000I75000J0D01*
G01*
X97010000Y-77750000D01*
G75*
G02*
X97085000Y-77825000I0J-75000D01*
G01*
X97085000Y-77975000D01*
G75*
G02*
X97010000Y-78050000I-75000J0D01*
G01*
G37*
G36*
G01*
X97010000Y-77250000D02*
X96010000Y-77250000D01*
G75*
G02*
X95935000Y-77175000I0J75000D01*
G01*
X95935000Y-77025000D01*
G75*
G02*
X96010000Y-76950000I75000J0D01*
G01*
X97010000Y-76950000D01*
G75*
G02*
X97085000Y-77025000I0J-75000D01*
G01*
X97085000Y-77175000D01*
G75*
G02*
X97010000Y-77250000I-75000J0D01*
G01*
G37*
G36*
G01*
X97010000Y-72450000D02*
X96010000Y-72450000D01*
G75*
G02*
X95935000Y-72375000I0J75000D01*
G01*
X95935000Y-72225000D01*
G75*
G02*
X96010000Y-72150000I75000J0D01*
G01*
X97010000Y-72150000D01*
G75*
G02*
X97085000Y-72225000I0J-75000D01*
G01*
X97085000Y-72375000D01*
G75*
G02*
X97010000Y-72450000I-75000J0D01*
G01*
G37*
G36*
G01*
X97010000Y-71650000D02*
X96010000Y-71650000D01*
G75*
G02*
X95935000Y-71575000I0J75000D01*
G01*
X95935000Y-71425000D01*
G75*
G02*
X96010000Y-71350000I75000J0D01*
G01*
X97010000Y-71350000D01*
G75*
G02*
X97085000Y-71425000I0J-75000D01*
G01*
X97085000Y-71575000D01*
G75*
G02*
X97010000Y-71650000I-75000J0D01*
G01*
G37*
M02*
