G04 #@! TF.GenerationSoftware,KiCad,Pcbnew,5.1.6-c6e7f7d~87~ubuntu18.04.1*
G04 #@! TF.CreationDate,2020-09-06T17:54:03+03:00*
G04 #@! TF.ProjectId,PSLab,50534c61-622e-46b6-9963-61645f706362,v6.1*
G04 #@! TF.SameCoordinates,Original*
G04 #@! TF.FileFunction,Copper,L3,Inr*
G04 #@! TF.FilePolarity,Positive*
%FSLAX46Y46*%
G04 Gerber Fmt 4.6, Leading zero omitted, Abs format (unit mm)*
G04 Created by KiCad (PCBNEW 5.1.6-c6e7f7d~87~ubuntu18.04.1) date 2020-09-06 17:54:03*
%MOMM*%
%LPD*%
G01*
G04 APERTURE LIST*
G04 #@! TA.AperFunction,ViaPad*
%ADD10O,1.727200X1.727200*%
G04 #@! TD*
G04 #@! TA.AperFunction,ViaPad*
%ADD11R,1.727200X1.727200*%
G04 #@! TD*
G04 #@! TA.AperFunction,ViaPad*
%ADD12R,1.700000X1.700000*%
G04 #@! TD*
G04 #@! TA.AperFunction,ViaPad*
%ADD13O,1.700000X1.700000*%
G04 #@! TD*
G04 #@! TA.AperFunction,ViaPad*
%ADD14C,5.600000*%
G04 #@! TD*
G04 #@! TA.AperFunction,ViaPad*
%ADD15O,2.100000X1.000000*%
G04 #@! TD*
G04 #@! TA.AperFunction,ViaPad*
%ADD16O,2.000000X1.000000*%
G04 #@! TD*
G04 #@! TA.AperFunction,ViaPad*
%ADD17R,1.400000X1.400000*%
G04 #@! TD*
G04 #@! TA.AperFunction,ViaPad*
%ADD18C,1.400000*%
G04 #@! TD*
G04 #@! TA.AperFunction,ViaPad*
%ADD19O,1.350000X1.350000*%
G04 #@! TD*
G04 #@! TA.AperFunction,ViaPad*
%ADD20C,0.914400*%
G04 #@! TD*
G04 #@! TA.AperFunction,Conductor*
%ADD21C,0.762000*%
G04 #@! TD*
G04 #@! TA.AperFunction,Conductor*
%ADD22C,0.304800*%
G04 #@! TD*
G04 #@! TA.AperFunction,Conductor*
%ADD23C,0.406400*%
G04 #@! TD*
G04 #@! TA.AperFunction,Conductor*
%ADD24C,0.508000*%
G04 #@! TD*
G04 #@! TA.AperFunction,Conductor*
%ADD25C,0.254000*%
G04 #@! TD*
G04 APERTURE END LIST*
D10*
X102313400Y-102006200D03*
X102313400Y-104546200D03*
X99773400Y-102006200D03*
X99773400Y-104546200D03*
X97233400Y-102006200D03*
X97233400Y-104546200D03*
X94693400Y-102006200D03*
D11*
X94693400Y-104546200D03*
D12*
X174090000Y-62750000D03*
D13*
X171550000Y-62750000D03*
X169010000Y-62750000D03*
X166470000Y-62750000D03*
X163930000Y-62750000D03*
X161390000Y-62750000D03*
X158850000Y-62750000D03*
X156310000Y-62750000D03*
D12*
X131430000Y-62750000D03*
D13*
X133970000Y-62750000D03*
X136510000Y-62750000D03*
X139050000Y-62750000D03*
D12*
X143850000Y-62750000D03*
D13*
X146390000Y-62750000D03*
X148930000Y-62750000D03*
X151470000Y-62750000D03*
D12*
X184736400Y-68757600D03*
D13*
X187276400Y-68757600D03*
X184736400Y-71297600D03*
X187276400Y-71297600D03*
X184736400Y-73837600D03*
X187276400Y-73837600D03*
X184736400Y-76377600D03*
X187276400Y-76377600D03*
X184736400Y-78917600D03*
X187276400Y-78917600D03*
X184736400Y-81457600D03*
X187276400Y-81457600D03*
X184736400Y-83997600D03*
X187276400Y-83997600D03*
X184736400Y-86537600D03*
X187276400Y-86537600D03*
X184736400Y-89077600D03*
X187276400Y-89077600D03*
X184736400Y-91617600D03*
X187276400Y-91617600D03*
X184736400Y-94157600D03*
X187276400Y-94157600D03*
X184736400Y-96697600D03*
X187276400Y-96697600D03*
X184736400Y-99237600D03*
X187276400Y-99237600D03*
X184736400Y-101777600D03*
X187276400Y-101777600D03*
D12*
X125148000Y-89611000D03*
D13*
X125148000Y-87071000D03*
X125148000Y-84531000D03*
X125148000Y-81991000D03*
X125148000Y-79451000D03*
X125148000Y-76911000D03*
D14*
X104880000Y-111020000D03*
X181090000Y-62780000D03*
X106150000Y-62770000D03*
X187420000Y-111010000D03*
D12*
X126630000Y-62750000D03*
D13*
X124090000Y-62750000D03*
X121550000Y-62750000D03*
X119010000Y-62750000D03*
X116470000Y-62750000D03*
X113930000Y-62750000D03*
D15*
X95945000Y-70530000D03*
X95945000Y-79170000D03*
D16*
X91865000Y-70530000D03*
X91865000Y-79170000D03*
D12*
X148770000Y-111074000D03*
D13*
X151310000Y-111074000D03*
X153850000Y-111074000D03*
X156390000Y-111074000D03*
X158930000Y-111074000D03*
X161470000Y-111074000D03*
X164010000Y-111074000D03*
X166550000Y-111074000D03*
D12*
X119560000Y-111074000D03*
D13*
X122100000Y-111074000D03*
X124640000Y-111074000D03*
D12*
X117629600Y-94335400D03*
D13*
X120169600Y-94335400D03*
X122709600Y-94335400D03*
X125249600Y-94335400D03*
X127789600Y-94335400D03*
D17*
X93906000Y-108635600D03*
D18*
X96406000Y-108635600D03*
X98906000Y-108635600D03*
X93906000Y-111935600D03*
X96406000Y-111935600D03*
X98906000Y-111935600D03*
D19*
X101780000Y-68554400D03*
G04 #@! TA.AperFunction,ViaPad*
G36*
G01*
X102455000Y-66216900D02*
X102455000Y-66891900D01*
G75*
G02*
X102117500Y-67229400I-337500J0D01*
G01*
X101442500Y-67229400D01*
G75*
G02*
X101105000Y-66891900I0J337500D01*
G01*
X101105000Y-66216900D01*
G75*
G02*
X101442500Y-65879400I337500J0D01*
G01*
X102117500Y-65879400D01*
G75*
G02*
X102455000Y-66216900I0J-337500D01*
G01*
G37*
G04 #@! TD.AperFunction*
D12*
X133580800Y-111074000D03*
D13*
X136120800Y-111074000D03*
X138660800Y-111074000D03*
X141200800Y-111074000D03*
X143740800Y-111074000D03*
D20*
X162760000Y-100480000D03*
X136850000Y-74110000D03*
X156910000Y-82700000D03*
X170480000Y-93340000D03*
X147760000Y-77420000D03*
X155310000Y-72590000D03*
X160640000Y-68650000D03*
X97350000Y-62777200D03*
X97350000Y-63717200D03*
X173400000Y-91400000D03*
X175306000Y-103414400D03*
X175326000Y-110644400D03*
X176516000Y-110674400D03*
X174036000Y-110644400D03*
X98427190Y-78200000D03*
X105894834Y-74850000D03*
X102755000Y-85074978D03*
X92352990Y-85075000D03*
X101119600Y-72600000D03*
X112463000Y-66573200D03*
X105090000Y-89175000D03*
X112956000Y-110439000D03*
X112956000Y-111429600D03*
X136349400Y-93300000D03*
X149837510Y-88620000D03*
X129130000Y-89572494D03*
X116360000Y-110232504D03*
X112700000Y-70645004D03*
X117429998Y-72874998D03*
X178912488Y-93340000D03*
X120730000Y-86809994D03*
X105945600Y-101168000D03*
X98071600Y-80721000D03*
X96140010Y-68107510D03*
X131795218Y-99288400D03*
X156161400Y-105638400D03*
X140080000Y-104368400D03*
X137195214Y-100558400D03*
X110238200Y-94259200D03*
X125534800Y-100778400D03*
X106660000Y-70427500D03*
X102596060Y-72607260D03*
X117597300Y-83074600D03*
X145600000Y-89800000D03*
X152890000Y-100890000D03*
X144640000Y-83590000D03*
X138300000Y-87420000D03*
X168520000Y-95260000D03*
X143022700Y-73333700D03*
X160190000Y-66250000D03*
X163700000Y-70050000D03*
X118617400Y-100708000D03*
X114640296Y-79000000D03*
X122750000Y-64530000D03*
X172650004Y-70050000D03*
X123837500Y-97649980D03*
X122938200Y-73888400D03*
X135230000Y-88650000D03*
X168519189Y-96528572D03*
X178919704Y-88850000D03*
X114690000Y-92444333D03*
X152250000Y-69800000D03*
X134060000Y-87080000D03*
X141220000Y-92240000D03*
X152834000Y-105638400D03*
X135960000Y-87060000D03*
X155600000Y-70450000D03*
X151620000Y-105638400D03*
X141260000Y-91100000D03*
X130530000Y-85800000D03*
X105090000Y-92470000D03*
X168510000Y-97790000D03*
X178919704Y-90130000D03*
X139070000Y-94010000D03*
X174762500Y-99880904D03*
X140010000Y-93130000D03*
X178922496Y-98579996D03*
X141830000Y-94180000D03*
X178919700Y-95960988D03*
X143880000Y-96440000D03*
X174804900Y-95961012D03*
X161330000Y-71500000D03*
X179605600Y-66979600D03*
X166490000Y-99040000D03*
X147423802Y-105638400D03*
X110700000Y-88350000D03*
X105082000Y-86348254D03*
X110700000Y-89640000D03*
X106123400Y-78282602D03*
X110700000Y-87040000D03*
X104624800Y-78282602D03*
X120924000Y-73862988D03*
X112701980Y-75702200D03*
X145390000Y-68730000D03*
X156050000Y-99050000D03*
X154720000Y-87230000D03*
X150450000Y-68620000D03*
X161335000Y-95215000D03*
X162689200Y-80314602D03*
X168120000Y-87620000D03*
X121730000Y-78319994D03*
X168150000Y-91410000D03*
X146200000Y-77420000D03*
X157890000Y-95500000D03*
X167620000Y-66240000D03*
X172650000Y-68780000D03*
X145130000Y-85220000D03*
X173400000Y-87580000D03*
X140550000Y-86300000D03*
X171807800Y-79679600D03*
X158330000Y-72660000D03*
X170539998Y-71320000D03*
X140080000Y-105638400D03*
X111160014Y-105206500D03*
X118137700Y-87040000D03*
X167500000Y-81310000D03*
X172760000Y-82460000D03*
X155420000Y-91290000D03*
X171730000Y-87560000D03*
X151538600Y-81432200D03*
X154710000Y-78900000D03*
X152890000Y-87270000D03*
X168170000Y-90160000D03*
X173400000Y-90120000D03*
X168480000Y-99050000D03*
X145925200Y-105638400D03*
X144807600Y-105638400D03*
X178919704Y-91389000D03*
X160190000Y-80170000D03*
X150660000Y-85140000D03*
X120703000Y-89636400D03*
X113759986Y-102747500D03*
X126760000Y-105206484D03*
X140080000Y-101828400D03*
X122059986Y-103155000D03*
X151020000Y-77990000D03*
X149786000Y-93827400D03*
X139750000Y-70440000D03*
X140070000Y-87630000D03*
X140080000Y-106908400D03*
X143334400Y-105638400D03*
X140080000Y-103098400D03*
X133631602Y-101828400D03*
X143040000Y-77390000D03*
X141980000Y-80180000D03*
X114712855Y-87040000D03*
X134650000Y-93250000D03*
X114690000Y-89640000D03*
X135550000Y-94350000D03*
X129430000Y-86200000D03*
X114690000Y-91135000D03*
X143070000Y-81270000D03*
X140610000Y-76020000D03*
X135870000Y-91120000D03*
X137990000Y-71320000D03*
X132770000Y-83310000D03*
X105090000Y-91370000D03*
X102760000Y-64920000D03*
X92280400Y-81406728D03*
X108993600Y-71551598D03*
X97309612Y-91363574D03*
X108960000Y-65710000D03*
X98442400Y-73750000D03*
X109806400Y-73736000D03*
X98442406Y-75950000D03*
X109806400Y-75983585D03*
X105090000Y-93580000D03*
X131802800Y-97256402D03*
X129430000Y-87500000D03*
X183454800Y-106792000D03*
X168356400Y-107772000D03*
X183444800Y-107772000D03*
X168346400Y-105812000D03*
X183434800Y-105812000D03*
X168356400Y-106792000D03*
X109500011Y-111757511D03*
X99040000Y-66040016D03*
X154370000Y-105638400D03*
X139070000Y-92240000D03*
X127363600Y-100778400D03*
X98445700Y-71530300D03*
X101326060Y-78185100D03*
X142057500Y-86300400D03*
X119692800Y-81169600D03*
D21*
X147760000Y-77420000D02*
X147760000Y-74680000D01*
X149850000Y-72590000D02*
X155310000Y-72590000D01*
X147760000Y-74680000D02*
X149850000Y-72590000D01*
X156910000Y-87400000D02*
X155690000Y-88620000D01*
X155690000Y-88620000D02*
X149837510Y-88620000D01*
X156910000Y-82700000D02*
X156910000Y-87400000D01*
X171460000Y-93340000D02*
X170570000Y-93340000D01*
X173400000Y-91400000D02*
X171460000Y-93340000D01*
X156910000Y-74190000D02*
X156910000Y-82700000D01*
X155310000Y-72590000D02*
X156910000Y-74190000D01*
D22*
X124890000Y-86830000D02*
X125170000Y-87110000D01*
D23*
X98659000Y-80721000D02*
X98071600Y-80721000D01*
D21*
X99697200Y-80721000D02*
X99773400Y-80797200D01*
X98071600Y-80721000D02*
X99697200Y-80721000D01*
X96406000Y-111935600D02*
X96406000Y-108635600D01*
X96406000Y-107608800D02*
X96406000Y-108635600D01*
X99773400Y-94716400D02*
X104345400Y-99288400D01*
X99773400Y-80797200D02*
X99773400Y-94716400D01*
X104345400Y-99288400D02*
X104345400Y-105841600D01*
X104345400Y-105841600D02*
X103329400Y-106857600D01*
X103329400Y-106857600D02*
X97157200Y-106857600D01*
X97157200Y-106857600D02*
X96406000Y-107608800D01*
X104345400Y-99288400D02*
X120779200Y-99288400D01*
D24*
X110238200Y-94259200D02*
X110238200Y-99339200D01*
D21*
X125526200Y-100769800D02*
X125534800Y-100778400D01*
X125526200Y-99288400D02*
X125526200Y-100769800D01*
X125526200Y-99288400D02*
X131795218Y-99288400D01*
X120779200Y-99288400D02*
X125526200Y-99288400D01*
X99773400Y-75946640D02*
X99773400Y-80797200D01*
X99773400Y-70637200D02*
X99773400Y-75946640D01*
X106660000Y-70445780D02*
X106660000Y-70427500D01*
X99983100Y-70427500D02*
X99773400Y-70637200D01*
X102596060Y-70462620D02*
X102631180Y-70427500D01*
X106660000Y-70427500D02*
X102631180Y-70427500D01*
X102596060Y-72607260D02*
X102596060Y-70462620D01*
X102631180Y-70427500D02*
X99983100Y-70427500D01*
X99773400Y-70391660D02*
X99773400Y-70637200D01*
X96140010Y-68107510D02*
X97489250Y-68107510D01*
X97489250Y-68107510D02*
X99773400Y-70391660D01*
X139430000Y-89800000D02*
X145600000Y-89800000D01*
X138300000Y-88670000D02*
X139430000Y-89800000D01*
X138300000Y-87420000D02*
X138300000Y-88670000D01*
X160440000Y-100890000D02*
X152890000Y-100890000D01*
X166070000Y-95260000D02*
X160440000Y-100890000D01*
X168520000Y-95260000D02*
X166070000Y-95260000D01*
X146636400Y-88763600D02*
X145600000Y-89800000D01*
X146636400Y-84607200D02*
X146636400Y-88763600D01*
X144640000Y-83590000D02*
X145619200Y-83590000D01*
X145619200Y-83590000D02*
X146636400Y-84607200D01*
X146611000Y-98791000D02*
X148710000Y-100890000D01*
X145600000Y-89800000D02*
X146611000Y-90811000D01*
X148710000Y-100890000D02*
X152890000Y-100890000D01*
X146611000Y-90811000D02*
X146611000Y-98791000D01*
X144640000Y-83590000D02*
X144640000Y-74951000D01*
X144640000Y-74951000D02*
X143022700Y-73333700D01*
X160190000Y-66250000D02*
X162560000Y-66250000D01*
D22*
X160190000Y-66250000D02*
X160190000Y-66220000D01*
D21*
X162560000Y-66250000D02*
X163700000Y-67390000D01*
X163700000Y-67390000D02*
X163700000Y-70050000D01*
X160190000Y-66250000D02*
X120442000Y-66250000D01*
X120442000Y-66250000D02*
X114640296Y-72051704D01*
X114640296Y-72051704D02*
X114640296Y-79000000D01*
D23*
X170452828Y-96528572D02*
X168519189Y-96528572D01*
X178919704Y-88850000D02*
X178131400Y-88850000D01*
X178131400Y-88850000D02*
X170452828Y-96528572D01*
X152834000Y-106248000D02*
X152834000Y-105638400D01*
X141493000Y-92240000D02*
X143030000Y-93777000D01*
X143030000Y-98630000D02*
X151079800Y-106679800D01*
X143030000Y-93777000D02*
X143030000Y-98630000D01*
X141220000Y-92240000D02*
X141493000Y-92240000D01*
X152402200Y-106679800D02*
X152834000Y-106248000D01*
X151079800Y-106679800D02*
X152402200Y-106679800D01*
X151620000Y-105580000D02*
X151620000Y-105638400D01*
X144859790Y-98819790D02*
X151620000Y-105580000D01*
X144859790Y-94053212D02*
X144859790Y-98819790D01*
X141260000Y-91100000D02*
X141906578Y-91100000D01*
X141906578Y-91100000D02*
X144859790Y-94053212D01*
D21*
X177426000Y-64800000D02*
X179605600Y-66979600D01*
X158850000Y-62750000D02*
X160900000Y-64800000D01*
X160900000Y-64800000D02*
X177426000Y-64800000D01*
D23*
X147423802Y-106248002D02*
X147423802Y-105638400D01*
X148744600Y-107568800D02*
X147423802Y-106248002D01*
X158549000Y-107568800D02*
X148744600Y-107568800D01*
X166500000Y-98940000D02*
X166500000Y-99617800D01*
X166500000Y-99617800D02*
X158549000Y-107568800D01*
D21*
X150450000Y-68620000D02*
X156350000Y-68620000D01*
X162689200Y-74959200D02*
X162689200Y-80314602D01*
X156350000Y-68620000D02*
X162689200Y-74959200D01*
X121730000Y-76935300D02*
X121730000Y-78319994D01*
X130140300Y-68525000D02*
X121730000Y-76935300D01*
X144163600Y-70425000D02*
X142263600Y-68525000D01*
X142263600Y-68525000D02*
X130140300Y-68525000D01*
X150450000Y-68620000D02*
X148645000Y-70425000D01*
X148645000Y-70425000D02*
X144163600Y-70425000D01*
X148389000Y-94689000D02*
X150090000Y-96390000D01*
X150090000Y-96390000D02*
X157000000Y-96390000D01*
X148389000Y-80829000D02*
X148389000Y-94689000D01*
X157000000Y-96390000D02*
X157890000Y-95500000D01*
X146200000Y-77420000D02*
X146200000Y-78640000D01*
X146200000Y-78640000D02*
X148389000Y-80829000D01*
X161980000Y-91410000D02*
X168150000Y-91410000D01*
X157890000Y-95500000D02*
X161980000Y-91410000D01*
D23*
X184890000Y-79096800D02*
X184890000Y-79071200D01*
X184890000Y-79071200D02*
X184736400Y-78917600D01*
X181917000Y-79679600D02*
X171807800Y-79679600D01*
X184736400Y-78917600D02*
X182679000Y-78917600D01*
X182679000Y-78917600D02*
X181917000Y-79679600D01*
D24*
X112193900Y-105206500D02*
X111160014Y-105206500D01*
X113260800Y-106273400D02*
X112193900Y-105206500D01*
X140080000Y-105638400D02*
X139445000Y-106273400D01*
X139445000Y-106273400D02*
X113260800Y-106273400D01*
X118137716Y-87040000D02*
X118879800Y-87040000D01*
X118879800Y-87040000D02*
X119636200Y-86283600D01*
X119636200Y-86283600D02*
X119636200Y-85013600D01*
X118137716Y-87040000D02*
X118137700Y-87040000D01*
X127789600Y-95453000D02*
X127103800Y-96138800D01*
X127789600Y-94335400D02*
X127789600Y-95453000D01*
X127103800Y-96138800D02*
X116410400Y-96138800D01*
X116410400Y-96138800D02*
X113210000Y-92938400D01*
X114810200Y-85013600D02*
X119636200Y-85013600D01*
X113210000Y-86613800D02*
X114810200Y-85013600D01*
X113210000Y-92938400D02*
X113210000Y-86613800D01*
X123420800Y-79451000D02*
X125148000Y-79451000D01*
X119636200Y-85013600D02*
X119636200Y-83235600D01*
X119636200Y-83235600D02*
X123420800Y-79451000D01*
X172752400Y-86537600D02*
X171730000Y-87560000D01*
X184890000Y-86716800D02*
X184710800Y-86537600D01*
X184710800Y-86537600D02*
X172752400Y-86537600D01*
D21*
X152890000Y-87270000D02*
X152890000Y-86260000D01*
X152890000Y-86260000D02*
X154710000Y-84440000D01*
X154710000Y-84440000D02*
X154710000Y-78900000D01*
X168210000Y-90120000D02*
X173400000Y-90120000D01*
X168170000Y-90160000D02*
X168210000Y-90120000D01*
D23*
X159173800Y-108356200D02*
X168480000Y-99050000D01*
X148058800Y-108356200D02*
X159173800Y-108356200D01*
X145925200Y-105638400D02*
X145925200Y-106222600D01*
X145925200Y-106222600D02*
X148058800Y-108356200D01*
X144807600Y-106400400D02*
X144807600Y-105638400D01*
X147449200Y-109042000D02*
X144807600Y-106400400D01*
X178919704Y-91389000D02*
X177776800Y-91389000D01*
X160123800Y-109042000D02*
X147449200Y-109042000D01*
X177776800Y-91389000D02*
X160123800Y-109042000D01*
D24*
X121820600Y-89636400D02*
X120703000Y-89636400D01*
X122785800Y-88671200D02*
X121820600Y-89636400D01*
X122785800Y-83007000D02*
X122785800Y-88671200D01*
X125148000Y-81991000D02*
X123801800Y-81991000D01*
X123801800Y-81991000D02*
X122785800Y-83007000D01*
X136705112Y-105206484D02*
X140083196Y-101828400D01*
X126760000Y-105206484D02*
X136705112Y-105206484D01*
X136701916Y-105206484D02*
X140080000Y-101828400D01*
X126760000Y-105206484D02*
X136701916Y-105206484D01*
X167007200Y-76377600D02*
X184736400Y-76377600D01*
X164695800Y-78689000D02*
X167007200Y-76377600D01*
X149786000Y-93827400D02*
X156339200Y-93827400D01*
X164695800Y-85470800D02*
X164695800Y-78689000D01*
X156339200Y-93827400D02*
X164695800Y-85470800D01*
D21*
X140070000Y-87630000D02*
X139380000Y-86940000D01*
X139380000Y-86940000D02*
X139380000Y-70810000D01*
X139380000Y-70810000D02*
X139750000Y-70440000D01*
D24*
X139578801Y-100757999D02*
X138508400Y-101828400D01*
X138508400Y-101828400D02*
X133631602Y-101828400D01*
X140616600Y-100757999D02*
X139578801Y-100757999D01*
X156390000Y-111074000D02*
X156390000Y-112064600D01*
X156390000Y-112064600D02*
X155678800Y-112775800D01*
X155678800Y-112775800D02*
X147804800Y-112775800D01*
X147804800Y-112775800D02*
X141302400Y-106273400D01*
X141302400Y-106273400D02*
X141302400Y-101443799D01*
X141302400Y-101443799D02*
X140616600Y-100757999D01*
D21*
X132600700Y-91200700D02*
X134650000Y-93250000D01*
X119930500Y-91200700D02*
X132600700Y-91200700D01*
X114712855Y-87040000D02*
X115769800Y-87040000D01*
X115769800Y-87040000D02*
X119930500Y-91200700D01*
X131548800Y-92328800D02*
X133570000Y-94350000D01*
X114690000Y-89640000D02*
X115855200Y-89640000D01*
X118544000Y-92328800D02*
X131548800Y-92328800D01*
X115855200Y-89640000D02*
X118544000Y-92328800D01*
X133570000Y-94350000D02*
X135550000Y-94350000D01*
D24*
X108993600Y-65743600D02*
X108960000Y-65710000D01*
D21*
X137990000Y-71320000D02*
X137990000Y-82611000D01*
X137291000Y-83310000D02*
X138000400Y-82600600D01*
X132770000Y-83310000D02*
X137291000Y-83310000D01*
X137136800Y-83464200D02*
X137289200Y-83311800D01*
X135870000Y-91120000D02*
X137136800Y-89853200D01*
X137136800Y-89853200D02*
X137136800Y-83464200D01*
D24*
X108993600Y-71551598D02*
X108993600Y-65743600D01*
D21*
X93093200Y-108635600D02*
X92610600Y-108153000D01*
X93906000Y-108635600D02*
X93093200Y-108635600D01*
X92610600Y-108153000D02*
X92610600Y-111480400D01*
X93065800Y-111935600D02*
X93906000Y-111935600D01*
X92610600Y-111480400D02*
X93065800Y-111935600D01*
X93702800Y-68452800D02*
X96115584Y-66040016D01*
X96115584Y-66040016D02*
X99040000Y-66040016D01*
X93702800Y-85597800D02*
X93702800Y-68452800D01*
X92610600Y-86690000D02*
X93702800Y-85597800D01*
X92610600Y-108153000D02*
X92610600Y-86690000D01*
D23*
X132545200Y-100778400D02*
X127363600Y-100778400D01*
X132723000Y-100778400D02*
X132545200Y-100778400D01*
X133383400Y-100118000D02*
X132723000Y-100778400D01*
X139070000Y-92240000D02*
X133383400Y-97926600D01*
X133383400Y-97926600D02*
X133383400Y-100118000D01*
X140825600Y-78286700D02*
X141613000Y-77499300D01*
X142057500Y-86300400D02*
X140825600Y-85068500D01*
X120339378Y-81169600D02*
X119692800Y-81169600D01*
X123223400Y-76940500D02*
X123223400Y-78285578D01*
X141613000Y-77499300D02*
X141613000Y-69980900D01*
X130614800Y-69549100D02*
X123223400Y-76940500D01*
X141181200Y-69549100D02*
X130614800Y-69549100D01*
X141613000Y-69980900D02*
X141181200Y-69549100D01*
X140825600Y-85068500D02*
X140825600Y-78286700D01*
X123223400Y-78285578D02*
X120339378Y-81169600D01*
D25*
G36*
X183594059Y-105435168D02*
G01*
X183847400Y-105671937D01*
X183847400Y-107949374D01*
X183672062Y-108151400D01*
X168222606Y-108151400D01*
X167947000Y-107875794D01*
X167947000Y-105691006D01*
X168212573Y-105425433D01*
X183594059Y-105435168D01*
G37*
X183594059Y-105435168D02*
X183847400Y-105671937D01*
X183847400Y-107949374D01*
X183672062Y-108151400D01*
X168222606Y-108151400D01*
X167947000Y-107875794D01*
X167947000Y-105691006D01*
X168212573Y-105425433D01*
X183594059Y-105435168D01*
M02*
