M48
; DRILL file {KiCad 5.1.6-c6e7f7d~87~ubuntu18.04.1} date Thu Sep  3 19:07:54 2020
; FORMAT={-:-/ absolute / inch / decimal}
; #@! TF.CreationDate,2020-09-03T19:07:54+03:00
; #@! TF.GenerationSoftware,Kicad,Pcbnew,5.1.6-c6e7f7d~87~ubuntu18.04.1
FMAT,2
INCH
T1C0.0160
T2C0.0236
T3C0.0315
T4C0.0354
T5C0.0394
T6C0.0400
T7C0.1260
T8C0.0256
%
G90
G05
T1
X3.6331Y-3.205
X3.6359Y-3.3494
X3.785Y-2.6814
X3.8311Y-3.597
X3.8327Y-2.4715
X3.8327Y-2.5086
X3.8611Y-3.178
X3.8751Y-3.0787
X3.8751Y-2.817
X3.8757Y-2.9035
X3.8757Y-2.9902
X3.8992Y-2.6
X3.9811Y-2.8583
X4.0455Y-3.3494
X4.0457Y-2.5559
X4.1191Y-3.082
X4.1371Y-3.425
X4.1374Y-3.5108
X4.1374Y-3.5972
X4.1374Y-3.6406
X4.1374Y-3.6843
X4.1691Y-2.9469
X4.1711Y-3.983
X4.1781Y-3.082
X4.1992Y-2.7727
X4.2898Y-2.587
X4.2911Y-2.817
X4.311Y-4.3999
X4.3231Y-2.903
X4.3231Y-2.9915
X4.3401Y-3.711
X4.3583Y-3.4268
X4.3583Y-3.4783
X4.3583Y-3.5291
X4.3764Y-4.142
X4.4277Y-2.621
X4.437Y-2.7813
X4.4371Y-2.9804
X4.4471Y-4.348
X4.4471Y-4.387
X4.4787Y-4.0452
X4.5154Y-3.5291
X4.5154Y-3.588
X4.5154Y-3.6395
X4.5157Y-3.1189
X4.5163Y-3.4268
X4.5811Y-4.3399
X4.6232Y-2.8691
X4.6511Y-3.4268
X4.67Y-3.9649
X4.7521Y-3.529
X4.7531Y-3.4177
X4.7608Y-2.908
X4.7925Y-3.0835
X4.8055Y-4.0612
X4.8327Y-2.5406
X4.8401Y-2.909
X4.8755Y-3.8445
X4.9423Y-3.9677
X4.9906Y-4.142
X5.0143Y-3.9677
X5.0839Y-3.5265
X5.0957Y-3.3937
X5.0957Y-3.4449
X5.139Y-3.378
X5.1888Y-3.909
X5.1891Y-3.829
X5.2272Y-3.2799
X5.2611Y-4.009
X5.278Y-3.4283
X5.3012Y-3.6713
X5.324Y-3.4902
X5.3366Y-3.7146
X5.3492Y-3.5874
X5.3528Y-3.4276
X5.3681Y-3.6732
X5.3878Y-2.9177
X5.4014Y-3.959
X5.4327Y-2.8079
X5.4449Y-3.4417
X5.4752Y-3.6315
X5.4752Y-3.7012
X5.502Y-2.7732
X5.5122Y-3.6665
X5.5146Y-3.45
X5.515Y-4.009
X5.515Y-4.059
X5.515Y-4.109
X5.515Y-4.159
X5.515Y-4.209
X5.5335Y-3.3976
X5.5358Y-2.9929
X5.5598Y-3.6315
X5.5614Y-3.5866
X5.576Y-2.9386
X5.5839Y-3.7079
X5.5898Y-3.1567
X5.6315Y-3.0469
X5.6327Y-3.1996
X5.6431Y-4.159
X5.6646Y-3.7969
X5.6945Y-3.2909
X5.7011Y-4.159
X5.7138Y-3.3551
X5.724Y-2.7059
X5.7323Y-3.5354
X5.7451Y-4.159
X5.7559Y-3.048
X5.8041Y-4.159
X5.8173Y-3.048
X5.8971Y-3.694
X5.8991Y-3.489
X5.9232Y-2.7016
X5.9315Y-3.352
X5.9457Y-3.0705
X5.9661Y-3.206
X5.9693Y-4.159
X5.9941Y-2.748
X6.0171Y-4.159
X6.0193Y-3.4358
X6.0193Y-3.972
X6.0776Y-4.159
X6.0909Y-3.1063
X6.0913Y-3.4343
X6.1146Y-2.8579
X6.1189Y-3.5941
X6.126Y-2.7736
X6.1437Y-3.8996
X6.1481Y-4.159
X6.1602Y-3.1051
X6.1776Y-3.2559
X6.2161Y-3.7598
X6.2335Y-2.8606
X6.3067Y-2.6083
X6.3067Y-3.1563
X6.3244Y-2.7028
X6.3516Y-2.815
X6.3518Y-3.7486
X6.4051Y-3.162
X6.4079Y-3.9559
X6.4449Y-2.7579
X6.5547Y-3.8992
X6.5945Y-3.2012
X6.5992Y-2.6079
X6.6189Y-3.4496
X6.6201Y-3.5988
X6.6209Y-3.5496
X6.6278Y-4.1658
X6.6282Y-4.2044
X6.6282Y-4.243
X6.6331Y-3.8996
X6.6343Y-3.85
X6.6346Y-3.8003
X6.6346Y-3.7504
X6.7118Y-3.6748
X6.7142Y-2.8079
X6.761Y-3.4472
X6.7641Y-3.137
X6.7972Y-2.7079
X6.7972Y-2.7579
X6.8016Y-3.2465
X6.8268Y-3.448
X6.8268Y-3.548
X6.8268Y-3.5984
X6.8518Y-4.3561
X6.8804Y-3.9323
X6.8821Y-3.778
X6.9018Y-4.0714
X6.9026Y-4.3561
X6.9494Y-4.3573
X7.0438Y-3.6748
X7.0441Y-3.778
X7.0441Y-3.498
X7.0441Y-3.5484
X7.0441Y-3.598
X7.0442Y-3.8811
X7.0711Y-2.637
X7.2218Y-4.1658
X7.2222Y-4.243
X7.2226Y-4.2044
T3
X4.0071Y-2.6203
X4.0071Y-2.699
T4
X3.6971Y-4.277
X3.6971Y-4.4069
X3.7955Y-4.277
X3.7955Y-4.4069
X3.8939Y-4.277
X3.8939Y-4.4069
T5
X7.2731Y-2.707
X7.2731Y-2.807
X7.2731Y-2.907
X7.2731Y-3.007
X7.2731Y-3.107
X7.2731Y-3.207
X7.2731Y-3.307
X7.2731Y-3.407
X7.2731Y-3.507
X7.2731Y-3.607
X7.2731Y-3.707
X7.2731Y-3.807
X7.2731Y-3.907
X7.2731Y-4.007
X7.3731Y-2.707
X7.3731Y-2.807
X7.3731Y-2.907
X7.3731Y-3.007
X7.3731Y-3.107
X7.3731Y-3.207
X7.3731Y-3.307
X7.3731Y-3.407
X7.3731Y-3.507
X7.3731Y-3.607
X7.3731Y-3.707
X7.3731Y-3.807
X7.3731Y-3.907
X7.3731Y-4.007
X4.4854Y-2.4705
X4.5854Y-2.4705
X4.6854Y-2.4705
X4.7854Y-2.4705
X4.8854Y-2.4705
X4.9854Y-2.4705
X4.6311Y-3.714
X4.7311Y-3.714
X4.8311Y-3.714
X4.9311Y-3.714
X5.0311Y-3.714
X4.7071Y-4.373
X4.8071Y-4.373
X4.9071Y-4.373
X4.9271Y-3.028
X4.9271Y-3.128
X4.9271Y-3.228
X4.9271Y-3.328
X4.9271Y-3.428
X4.9271Y-3.528
X5.2591Y-4.373
X5.3591Y-4.373
X5.4591Y-4.373
X5.5591Y-4.373
X5.6591Y-4.373
X5.8571Y-4.373
X5.9571Y-4.373
X6.0571Y-4.373
X6.1571Y-4.373
X6.2571Y-4.373
X6.3571Y-4.373
X6.4571Y-4.373
X6.5571Y-4.373
X5.1744Y-2.4705
X5.2744Y-2.4705
X5.3744Y-2.4705
X5.4744Y-2.4705
X6.1539Y-2.4705
X6.2539Y-2.4705
X6.3539Y-2.4705
X6.4539Y-2.4705
X6.5539Y-2.4705
X6.6539Y-2.4705
X6.7539Y-2.4705
X6.8539Y-2.4705
X5.6634Y-2.4705
X5.7634Y-2.4705
X5.8634Y-2.4705
X5.9634Y-2.4705
T6
X3.7281Y-4.016
X3.7281Y-4.116
X3.8281Y-4.016
X3.8281Y-4.116
X3.9281Y-4.016
X3.9281Y-4.116
X4.0281Y-4.016
X4.0281Y-4.116
T7
X4.1791Y-2.4713
X7.3787Y-4.3705
X4.1291Y-4.3709
X7.1295Y-2.4717
T8
X3.7577Y-2.8331
X3.7577Y-3.0606
T2
G00X3.6364Y-2.7768
M15
G01X3.597Y-2.7768
M16
G05
G00X3.6364Y-3.1169
M15
G01X3.597Y-3.1169
M16
G05
G00X3.799Y-2.7768
M15
G01X3.7557Y-2.7768
M16
G05
G00X3.799Y-3.1169
M15
G01X3.7557Y-3.1169
M16
G05
T0
M30
