<?xml version="1.0" encoding="UTF-8" standalone="no"?>
<!-- Creator: CorelDRAW X6 -->

<svg
   xmlns:dc="http://purl.org/dc/elements/1.1/"
   xmlns:cc="http://creativecommons.org/ns#"
   xmlns:rdf="http://www.w3.org/1999/02/22-rdf-syntax-ns#"
   xmlns:svg="http://www.w3.org/2000/svg"
   xmlns="http://www.w3.org/2000/svg"
   xmlns:sodipodi="http://sodipodi.sourceforge.net/DTD/sodipodi-0.dtd"
   xmlns:inkscape="http://www.inkscape.org/namespaces/inkscape"
   xml:space="preserve"
   width="210mm"
   height="297mm"
   version="1.1"
   style="clip-rule:evenodd;fill-rule:evenodd;image-rendering:optimizeQuality;shape-rendering:geometricPrecision;text-rendering:geometricPrecision"
   viewBox="0 0 8267.5163 11693.014"
   id="svg2"
   inkscape:version="0.91 r13725"
   sodipodi:docname="pocket version.svg"><metadata
     id="metadata370"><rdf:RDF><cc:Work
         rdf:about=""><dc:format>image/svg+xml</dc:format><dc:type
           rdf:resource="http://purl.org/dc/dcmitype/StillImage" /><dc:title></dc:title></cc:Work></rdf:RDF></metadata><sodipodi:namedview
     pagecolor="#ffffff"
     bordercolor="#666666"
     borderopacity="1"
     objecttolerance="10"
     gridtolerance="10"
     guidetolerance="10"
     inkscape:pageopacity="0"
     inkscape:pageshadow="2"
     inkscape:window-width="1855"
     inkscape:window-height="1056"
     id="namedview368"
     showgrid="false"
     units="mm"
     inkscape:zoom="2.5371857"
     inkscape:cx="212.45943"
     inkscape:cy="800.45972"
     inkscape:window-x="65"
     inkscape:window-y="24"
     inkscape:window-maximized="1"
     inkscape:current-layer="svg2" /><defs
     id="defs4"><style
       type="text/css"
       id="style6"><![CDATA[
    .str0 {stroke:#373435;stroke-width:6.94488}
    .str1 {stroke:#48887B;stroke-width:6.94488}
    .str2 {stroke:#373435;stroke-width:7.87402}
    .fil0 {fill:none}
    .fil3 {fill:#FEFEFE}
    .fil1 {fill:#373435;fill-rule:nonzero}
    .fil2 {fill:#373435;fill-rule:nonzero}
   ]]></style></defs><g
     id="_212730864"
     transform="translate(-10107.509,-8918.3759)"><path
       style="fill:none;stroke:#373435;stroke-width:6.94488001"
       inkscape:connector-curvature="0"
       id="path11"
       d="m 11193,10006 c 33,0 59,26 59,59 0,33 -26,59 -59,59 -33,0 -59,-26 -59,-59 0,-33 26,-59 59,-59 z"
       class="fil0 str0" /><path
       style="fill:none;stroke:#373435;stroke-width:6.94488001"
       inkscape:connector-curvature="0"
       id="path13"
       d="m 13240,10006 c 33,0 59,26 59,59 0,33 -26,59 -59,59 -33,0 -59,-26 -59,-59 0,-33 26,-59 59,-59 z"
       class="fil0 str0" /><path
       style="fill:none;stroke:#373435;stroke-width:6.94488001"
       inkscape:connector-curvature="0"
       id="path15"
       d="m 11193,12644 c 33,0 59,26 59,59 0,33 -26,59 -59,59 -33,0 -59,-26 -59,-59 0,-33 26,-59 59,-59 z"
       class="fil0 str0" /><path
       style="fill:none;stroke:#373435;stroke-width:6.94488001"
       inkscape:connector-curvature="0"
       id="path17"
       d="m 13240,12644 c 33,0 59,26 59,59 0,33 -26,59 -59,59 -33,0 -59,-26 -59,-59 0,-33 26,-59 59,-59 z"
       class="fil0 str0" /><polygon
       style="fill:none;stroke:#373435;stroke-width:6.94488001"
       id="polygon19"
       points="11204,11675 11094,11675 11094,10628 11204,10628 "
       class="fil0 str0" /><polygon
       style="fill:none;stroke:#373435;stroke-width:6.94488001"
       id="polygon21"
       points="12885,11321 12437,11321 12437,11211 12885,11211 "
       class="fil0 str0" /><polygon
       style="fill:none;stroke:#373435;stroke-width:6.94488001"
       id="polygon23"
       points="13330,12263 13220,12263 13220,11615 13330,11615 "
       class="fil0 str0" /><path
       style="fill:none;stroke:#373435;stroke-width:6.94488001"
       inkscape:connector-curvature="0"
       id="path25"
       d="m 11704,9947 c 33,0 59,26 59,59 0,33 -26,59 -59,59 -33,0 -59,-26 -59,-59 0,-33 26,-59 59,-59 z"
       class="fil0 str0" /><polygon
       style="fill:none;stroke:#373435;stroke-width:6.94488001"
       id="polygon27"
       points="12206,12836 11359,12836 11359,12734 12206,12734 "
       class="fil0 str0" /><polygon
       style="fill:none;stroke:#373435;stroke-width:6.94488001"
       id="polygon29"
       points="13106,12836 12259,12836 12259,12734 13106,12734 "
       class="fil0 str0" /><path
       style="fill:none;stroke:#373435;stroke-width:6.94488001"
       inkscape:connector-curvature="0"
       id="path31"
       d="m 13458,11668 0,0 -3,1135 c 0,65 -53,118 -118,118 l -2244,0 c -65,0 -118,-53 -118,-118 l 0,-2835 c 0,-65 53,-118 118,-118 l 2366,0"
       class="fil0 str0" /><rect
       style="fill:none;stroke:#48887b;stroke-width:6.94488001"
       id="rect33"
       height="1181"
       width="177"
       y="10245"
       x="13652"
       class="fil0 str1" /><polyline
       style="fill:none;stroke:#373435;stroke-width:6.94488001"
       id="polyline35"
       points="13625,10753 13420,10753 13380,10793 13380,10879 13420,10919 13623,10919 "
       class="fil0 str0" /><path
       style="fill:none;stroke:#373435;stroke-width:6.94488001"
       inkscape:connector-curvature="0"
       id="path37"
       d="m 13455,9850 59,0 c 65,0 118,53 118,118 l 0,752 0,24 -10,10 m -2,165 12,14 0,570"
       class="fil0 str0" /><line
       style="fill:none;stroke:#373435;stroke-width:6.94488001"
       id="line39"
       y2="11668"
       x2="13458"
       y1="11504"
       x1="13632"
       class="fil0 str0" /></g><path
     style="fill:#373435;fill-rule:nonzero;stroke:#000000"
     inkscape:connector-curvature="0"
     id="path41"
     d="m 3227.491,2349.6241 2,-11 c 7,1 13,4 17,9 4,5 6,11 6,18 0,9 -3,16 -9,21 -6,5 -14,8 -25,8 -7,0 -13,-1 -18,-3 -5,-2 -9,-6 -12,-11 -3,-5 -4,-10 -4,-15 0,-7 2,-13 5,-17 4,-4 9,-7 15,-9 l 2,11 c -4,1 -8,3 -10,5 -2,3 -3,6 -3,9 0,6 2,10 6,14 4,3 10,5 19,5 9,0 15,-2 19,-5 4,-3 6,-8 6,-13 0,-4 -1,-8 -4,-11 -3,-3 -7,-5 -12,-6 z"
     class="fil1" /><path
     style="fill:#373435;fill-rule:nonzero;stroke:#000000"
     inkscape:connector-curvature="0"
     d="m 3231.491,2334.6241 -2,-11 c 4,-1 8,-2 10,-5 2,-3 3,-7 3,-12 0,-5 -1,-9 -3,-11 -2,-2 -4,-4 -7,-4 -2,0 -4,1 -6,3 -1,2 -2,5 -4,11 -2,8 -4,14 -5,17 -2,3 -4,5 -6,7 -3,2 -6,2 -9,2 -3,0 -6,-1 -8,-2 -2,-1 -5,-3 -6,-5 -1,-2 -2,-4 -3,-7 -1,-3 -1,-6 -1,-9 0,-5 1,-10 2,-13 1,-4 3,-7 6,-9 3,-2 6,-3 10,-4 l 2,11 c -3,0 -6,2 -8,4 -2,2 -3,6 -3,10 0,5 1,9 3,11 2,2 4,3 6,3 1,0 3,0 4,-1 1,-1 2,-2 3,-4 0,-1 1,-4 3,-10 2,-8 4,-13 5,-16 1,-3 3,-6 6,-7 3,-2 6,-3 9,-3 4,0 7,1 10,3 3,2 6,5 8,9 2,4 3,9 3,14 0,8 -2,15 -5,19 -4,4 -9,7 -16,8 z"
     class="fil1"
     id="1" /><path
     style="fill:#373435;fill-rule:nonzero;stroke:#000000"
     inkscape:connector-curvature="0"
     d="m 3276.491,2267.6241 -90,0 0,-10 9,0 c -3,-2 -6,-5 -7,-8 -2,-3 -2,-7 -2,-11 0,-6 1,-10 4,-15 3,-4 7,-7 12,-10 5,-2 11,-3 17,-3 7,0 13,1 18,4 5,2 9,6 12,10 3,5 4,9 4,14 0,4 -1,7 -2,10 -2,3 -3,5 -6,7 l 32,0 0,11 z m -57,-10 c 8,0 14,-2 18,-5 4,-3 6,-7 6,-12 0,-5 -2,-9 -6,-13 -4,-3 -11,-5 -19,-5 -8,0 -14,2 -19,5 -4,3 -6,7 -6,12 0,5 2,9 7,12 4,4 11,5 19,5 z"
     class="fil1"
     id="2" /><path
     style="fill:#373435;fill-rule:nonzero;stroke:#000000"
     inkscape:connector-curvature="0"
     d="m 3243.491,2155.6241 c 3,4 6,8 7,12 1,4 2,8 2,12 0,7 -2,13 -5,16 -3,4 -8,6 -13,6 -3,0 -6,-1 -9,-2 -3,-1 -5,-3 -6,-6 -2,-2 -3,-5 -4,-8 -1,-2 -1,-5 -2,-10 -1,-9 -2,-15 -4,-20 -2,0 -2,0 -3,0 -4,0 -8,1 -9,3 -2,3 -4,7 -4,13 0,5 1,9 3,11 2,2 5,4 10,5 l -2,11 c -5,-1 -8,-3 -11,-5 -3,-2 -5,-6 -7,-10 -2,-4 -2,-9 -2,-15 0,-6 1,-10 2,-14 1,-3 3,-6 5,-8 2,-2 4,-3 8,-3 2,0 5,-1 10,-1 l 15,0 c 10,0 17,0 19,-1 3,0 5,-1 8,-3 l 0,12 c -2,1 -5,2 -8,2 z m -24,1 c 2,4 3,10 4,18 1,5 1,8 2,10 1,2 2,3 4,4 2,1 3,2 5,2 3,0 5,-1 7,-3 2,-2 3,-5 3,-10 0,-4 -1,-8 -3,-11 -2,-3 -4,-6 -8,-7 -2,-1 -6,-2 -11,-2 l -4,0 z"
     class="fil1"
     id="3" /><path
     style="fill:#373435;fill-rule:nonzero;stroke:#000000"
     inkscape:connector-curvature="0"
     d="m 3251.491,2128.6241 -65,0 0,-10 10,0 c -5,-3 -8,-5 -9,-7 -1,-2 -2,-5 -2,-7 0,-4 1,-7 3,-11 l 10,4 c -2,3 -2,5 -2,8 0,2 1,5 2,6 1,2 3,3 6,4 4,1 8,2 13,2 l 34,0 0,11 z"
     class="fil1"
     id="4" /><polygon
     style="fill:#373435;fill-rule:nonzero;stroke:#000000"
     points="13318,10979 13359,10951 13359,10965 13326,10987 13333,10994 13359,10994 13359,11005 13269,11005 13269,10994 13320,10994 13294,10968 13294,10954 "
     class="fil1"
     id="5"
     transform="translate(-10107.509,-8918.3759)" /><path
     style="fill:#373435;fill-rule:nonzero;stroke:#000000"
     inkscape:connector-curvature="0"
     d="m 3251.491,2024.6241 -65,0 0,-10 10,0 c -5,-3 -8,-5 -9,-7 -1,-2 -2,-5 -2,-7 0,-4 1,-7 3,-11 l 10,4 c -2,3 -2,5 -2,8 0,2 1,5 2,6 1,2 3,3 6,4 4,1 8,2 13,2 l 34,0 0,11 z"
     class="fil1"
     id="6" /><path
     style="fill:#373435;fill-rule:nonzero;stroke:#000000"
     inkscape:connector-curvature="0"
     d="m 3230.491,1938.6241 2,-11 c 7,2 12,5 15,10 4,5 5,11 5,19 0,9 -3,17 -9,23 -6,6 -14,8 -25,8 -11,0 -19,-3 -25,-8 -6,-6 -9,-13 -9,-22 0,-9 3,-16 9,-21 6,-5 14,-8 25,-8 1,0 2,0 3,0 l 0,48 c 7,0 13,-2 16,-6 4,-4 6,-8 6,-14 0,-4 -1,-7 -3,-10 -2,-3 -6,-5 -10,-7 z m -18,36 0,-36 c -5,0 -10,2 -12,4 -4,3 -6,8 -6,14 0,5 2,9 5,13 3,3 8,5 14,6 z"
     class="fil1"
     id="7" /><path
     style="fill:#373435;fill-rule:nonzero;stroke:#000000"
     inkscape:connector-curvature="0"
     d="m 3231.491,1917.6241 -2,-11 c 4,-1 8,-2 10,-5 2,-3 3,-7 3,-12 0,-5 -1,-9 -3,-11 -2,-2 -4,-4 -7,-4 -2,0 -4,1 -6,3 -1,2 -2,5 -4,11 -2,8 -4,14 -5,17 -2,3 -4,5 -6,7 -3,2 -6,2 -9,2 -3,0 -6,-1 -8,-2 -2,-1 -5,-3 -6,-5 -1,-2 -2,-4 -3,-7 -1,-3 -1,-6 -1,-9 0,-5 1,-10 2,-13 1,-4 3,-7 6,-9 3,-2 6,-3 10,-4 l 2,11 c -3,0 -6,2 -8,4 -2,2 -3,6 -3,10 0,5 1,9 3,11 2,2 4,3 6,3 1,0 3,0 4,-1 1,-1 2,-2 3,-4 0,-1 1,-4 3,-10 2,-8 4,-13 5,-16 1,-3 3,-6 6,-7 3,-2 6,-3 9,-3 4,0 7,1 10,3 3,2 6,5 8,9 2,4 3,9 3,14 0,8 -2,15 -5,19 -4,4 -9,7 -16,8 z"
     class="fil1"
     id="8" /><path
     style="fill:#373435;fill-rule:nonzero;stroke:#000000"
     inkscape:connector-curvature="0"
     d="m 3230.491,1806.6241 2,-11 c 7,2 12,5 15,10 4,5 5,11 5,19 0,9 -3,17 -9,23 -6,6 -14,8 -25,8 -11,0 -19,-3 -25,-8 -6,-6 -9,-13 -9,-22 0,-9 3,-16 9,-21 6,-5 14,-8 25,-8 1,0 2,0 3,0 l 0,48 c 7,0 13,-2 16,-6 4,-4 6,-8 6,-14 0,-4 -1,-7 -3,-10 -2,-3 -6,-5 -10,-7 z m -18,36 0,-36 c -5,0 -10,2 -12,4 -4,3 -6,8 -6,14 0,5 2,9 5,13 3,3 8,5 14,6 z"
     class="fil1"
     id="9" /><path
     style="fill:#373435;fill-rule:nonzero;stroke:#000000"
     inkscape:connector-curvature="0"
     d="m 3243.491,1738.6241 c 3,4 6,8 7,12 1,4 2,8 2,12 0,7 -2,13 -5,16 -3,4 -8,6 -13,6 -3,0 -6,-1 -9,-2 -3,-1 -5,-3 -6,-6 -2,-2 -3,-5 -4,-8 -1,-2 -1,-5 -2,-10 -1,-9 -2,-15 -4,-20 -2,0 -2,0 -3,0 -4,0 -8,1 -9,3 -2,3 -4,7 -4,13 0,5 1,9 3,11 2,2 5,4 10,5 l -2,11 c -5,-1 -8,-3 -11,-5 -3,-2 -5,-6 -7,-10 -2,-4 -2,-9 -2,-15 0,-6 1,-10 2,-14 1,-3 3,-6 5,-8 2,-2 4,-3 8,-3 2,0 5,-1 10,-1 l 15,0 c 10,0 17,0 19,-1 3,0 5,-1 8,-3 l 0,12 c -2,1 -5,2 -8,2 z m -24,1 c 2,4 3,10 4,18 1,5 1,8 2,10 1,2 2,3 4,4 2,1 3,2 5,2 3,0 5,-1 7,-3 2,-2 3,-5 3,-10 0,-4 -1,-8 -3,-11 -2,-3 -4,-6 -8,-7 -2,-1 -6,-2 -11,-2 l -4,0 z"
     class="fil1"
     id="10" /><path
     style="fill:#373435;fill-rule:nonzero;stroke:#000000"
     inkscape:connector-curvature="0"
     d="m 3251.491,1711.6241 -65,0 0,-10 10,0 c -5,-3 -8,-5 -9,-7 -1,-2 -2,-5 -2,-7 0,-4 1,-7 3,-11 l 10,4 c -2,3 -2,5 -2,8 0,2 1,5 2,6 1,2 3,3 6,4 4,1 8,2 13,2 l 34,0 0,11 z"
     class="fil1"
     id="11" /><path
     style="fill:#373435;fill-rule:nonzero;stroke:#000000"
     inkscape:connector-curvature="0"
     d="m 3227.491,1627.6241 2,-11 c 7,1 13,4 17,9 4,5 6,11 6,18 0,9 -3,16 -9,21 -6,5 -14,8 -25,8 -7,0 -13,-1 -18,-3 -5,-2 -9,-6 -12,-11 -3,-5 -4,-10 -4,-15 0,-7 2,-13 5,-17 4,-4 9,-7 15,-9 l 2,11 c -4,1 -8,3 -10,5 -2,3 -3,6 -3,9 0,6 2,10 6,14 4,3 10,5 19,5 9,0 15,-2 19,-5 4,-3 6,-8 6,-13 0,-4 -1,-8 -4,-11 -3,-3 -7,-5 -12,-6 z"
     class="fil1"
     id="12" /><path
     style="fill:#373435;fill-rule:nonzero;stroke:#000000"
     inkscape:connector-curvature="0"
     d="m 3251.491,1607.6241 -90,0 0,-11 32,0 c -6,-5 -9,-12 -9,-19 0,-5 1,-9 3,-12 2,-4 5,-6 8,-8 3,-2 8,-2 15,-2 l 41,0 0,11 -41,0 c -5,0 -9,1 -12,4 -3,2 -4,6 -4,10 0,3 1,6 3,9 2,3 4,5 7,6 3,1 7,2 12,2 l 35,0 0,11 z"
     class="fil1"
     id="13" /><polygon
     style="fill:#373435;fill-rule:nonzero;stroke:#000000"
     points="13346,10441 13359,10441 13359,10453 13346,10453 "
     class="fil1"
     id="14"
     transform="translate(-10107.509,-8918.3759)" /><path
     style="fill:#373435;fill-rule:nonzero;stroke:#000000"
     inkscape:connector-curvature="0"
     d="m 3174.491,1503.6241 -13,0 0,-11 13,0 0,11 z m 77,0 -65,0 0,-11 65,0 0,11 z"
     class="fil1"
     id="15" /><path
     style="fill:#373435;fill-rule:nonzero;stroke:#000000"
     inkscape:connector-curvature="0"
     d="m 3251.491,1475.6241 -65,0 0,-10 9,0 c -7,-5 -11,-12 -11,-21 0,-4 1,-8 2,-11 1,-3 3,-6 6,-7 2,-2 5,-3 8,-3 2,0 6,-1 11,-1 l 40,0 0,11 -39,0 c -4,0 -8,0 -10,1 -2,1 -4,2 -5,5 -1,2 -2,5 -2,8 0,5 1,9 4,12 3,3 9,5 17,5 l 35,0 0,11 z"
     class="fil1"
     id="16" /><polygon
     style="fill:#373435;fill-rule:nonzero"
     id="polygon59"
     points="12610,11378 12610,11447 12600,11447 12600,11378 "
     class="fil1"
     transform="translate(-10107.509,-8918.3759)" /><path
     style="fill:#373435;fill-rule:nonzero"
     inkscape:connector-curvature="0"
     d="m 2559.491,2520.6241 0,8 -46,0 c 0,-2 0,-4 1,-6 1,-3 3,-6 6,-9 3,-3 6,-7 11,-11 8,-6 13,-11 15,-15 3,-4 4,-7 4,-10 0,-3 -1,-6 -4,-9 -2,-2 -6,-3 -10,-3 -4,0 -7,1 -10,4 -2,2 -4,6 -4,10 l -9,-1 c 1,-7 3,-12 7,-15 4,-3 9,-5 16,-5 7,0 12,2 16,6 4,4 6,8 6,14 0,3 -1,6 -2,8 -1,3 -3,6 -6,9 -3,3 -7,7 -13,12 -5,4 -8,7 -10,9 -1,2 -3,3 -4,5 l 34,0 z"
     class="fil1"
     id="path61" /><path
     style="fill:#373435;fill-rule:nonzero"
     inkscape:connector-curvature="0"
     d="m 2622.491,2504.6241 9,2 c -2,8 -5,13 -10,17 -5,4 -11,6 -18,6 -7,0 -14,-2 -18,-5 -5,-3 -8,-7 -11,-13 -2,-6 -4,-12 -4,-19 0,-7 1,-14 4,-19 3,-5 7,-9 12,-12 5,-3 11,-4 17,-4 7,0 13,2 18,5 5,4 8,9 10,15 l -9,2 c -2,-5 -4,-9 -7,-11 -3,-2 -7,-3 -12,-3 -5,0 -10,1 -13,4 -4,3 -6,6 -8,10 -1,4 -2,9 -2,13 0,6 1,11 3,15 2,4 4,8 8,10 4,2 8,3 12,3 5,0 9,-1 13,-4 4,-3 6,-7 7,-13 z"
     class="fil1"
     id="path63" /><path
     style="fill:#000000;fill-rule:nonzero"
     inkscape:connector-curvature="0"
     id="path65"
     d="m 1164.491,1779.6241 0,-7 25,0 0,22 c -4,3 -8,5 -12,7 -4,2 -8,2 -13,2 -6,0 -11,-1 -16,-4 -5,-3 -8,-6 -11,-11 -2,-5 -4,-10 -4,-16 0,-6 1,-11 4,-16 2,-5 6,-9 10,-11 5,-2 10,-4 16,-4 4,0 8,1 12,2 3,1 6,3 8,6 2,3 3,6 5,10 l -7,2 c -1,-3 -2,-5 -3,-7 -1,-2 -3,-3 -6,-4 -2,-1 -5,-2 -8,-2 -4,0 -7,1 -9,2 -3,1 -5,3 -6,4 -2,2 -3,4 -4,6 -2,4 -2,8 -2,12 0,5 1,10 3,13 2,4 5,6 8,8 4,2 7,3 11,3 3,0 7,-1 10,-2 3,-1 6,-3 7,-4 l 0,-11 -18,0 z"
     class="fil1" /><polygon
     style="fill:#000000;fill-rule:nonzero"
     points="11356,10722 11348,10722 11316,10675 11316,10722 11309,10722 11309,10662 11317,10662 11348,10709 11348,10662 11356,10662 "
     class="fil1"
     id="polygon67"
     transform="translate(-10107.509,-8918.3759)" /><path
     style="fill:#000000;fill-rule:nonzero"
     inkscape:connector-curvature="0"
     d="m 1261.491,1803.6241 0,-60 21,0 c 5,0 8,0 11,1 3,1 6,2 9,4 3,3 6,6 7,10 2,4 2,9 2,14 0,5 -1,9 -2,12 -1,4 -2,6 -4,9 -2,2 -3,4 -5,5 -2,1 -4,2 -7,3 -3,1 -6,1 -10,1 l -22,0 z m 8,-7 13,0 c 4,0 7,0 9,-1 2,-1 4,-2 5,-3 2,-2 3,-4 4,-8 1,-3 2,-7 2,-12 0,-6 -1,-11 -3,-14 -2,-3 -5,-6 -7,-7 -2,-1 -6,-1 -10,-1 l -13,0 0,46 z"
     class="fil1"
     id="path69" /><path
     style="fill:#000000;fill-rule:nonzero"
     inkscape:connector-curvature="0"
     d="m 1134.491,1886.6241 7,-1 c 0,3 1,5 2,7 1,2 3,3 6,5 3,1 6,2 9,2 3,0 6,0 8,-1 2,-1 4,-2 5,-4 1,-2 2,-3 2,-5 0,-2 -1,-3 -2,-5 -1,-1 -3,-3 -5,-4 -2,-1 -5,-2 -11,-3 -5,-1 -9,-3 -12,-4 -3,-2 -5,-3 -6,-6 -1,-2 -2,-5 -2,-7 0,-3 1,-6 3,-8 2,-3 4,-5 7,-6 3,-1 7,-2 11,-2 4,0 8,1 12,2 3,1 6,4 8,6 2,3 3,6 3,9 l -8,1 c 0,-4 -2,-7 -4,-9 -2,-2 -6,-3 -10,-3 -5,0 -8,1 -10,3 -2,2 -3,4 -3,6 0,2 1,4 2,5 2,1 5,3 12,4 6,1 11,3 13,4 3,2 6,4 8,6 2,2 2,5 2,8 0,3 -1,6 -3,9 -2,3 -4,5 -8,7 -3,2 -7,2 -11,2 -5,0 -10,-1 -14,-2 -4,-2 -7,-4 -9,-7 -2,-3 -3,-7 -3,-11 z"
     class="fil1"
     id="path71" /><path
     style="fill:#000000;fill-rule:nonzero"
     inkscape:connector-curvature="0"
     d="m 1237.491,1899.6241 c 4,3 7,4 10,6 l -2,6 c -4,-2 -9,-4 -13,-7 -4,2 -9,4 -15,4 -5,0 -10,-1 -15,-4 -4,-3 -8,-6 -10,-11 -2,-5 -4,-10 -4,-16 0,-6 1,-11 4,-16 2,-5 6,-8 10,-11 4,-3 9,-4 15,-4 6,0 10,1 15,4 4,3 8,6 10,11 2,5 3,10 3,16 0,5 -1,9 -2,13 -1,4 -4,7 -7,10 z m -17,-10 c 5,1 8,3 11,6 5,-4 7,-11 7,-19 0,-5 -1,-9 -2,-13 -2,-4 -4,-6 -7,-8 -3,-2 -7,-3 -11,-3 -6,0 -11,2 -15,6 -4,4 -6,10 -6,18 0,8 2,14 6,18 4,4 9,6 15,6 3,0 5,-1 8,-2 -2,-2 -5,-3 -8,-3 l 2,-6 z"
     class="fil1"
     id="path73" /><path
     style="fill:#000000;fill-rule:nonzero"
     inkscape:connector-curvature="0"
     d="m 1257.491,1905.6241 0,-60 26,0 c 5,0 9,1 12,2 3,1 5,3 7,6 2,3 2,6 2,9 0,4 -1,8 -4,11 -3,3 -7,5 -13,6 2,1 4,2 5,3 2,2 4,5 7,8 l 10,16 -10,0 -8,-12 c -2,-4 -4,-6 -6,-8 -2,-2 -3,-3 -4,-4 -1,-1 -2,-1 -4,-2 -1,0 -2,0 -4,0 l -9,0 0,27 -8,0 z m 8,-33 17,0 c 4,0 6,0 8,-1 2,-1 4,-2 5,-4 1,-2 2,-3 2,-5 0,-3 -1,-5 -3,-7 -2,-2 -5,-3 -10,-3 l -19,0 0,20 z"
     class="fil1"
     id="path75" /><path
     style="fill:#000000;fill-rule:nonzero"
     inkscape:connector-curvature="0"
     d="m 1341.491,1905.6241 -7,0 0,-47 c -2,2 -4,3 -7,5 -3,2 -5,3 -8,4 l 0,-7 c 4,-2 8,-4 11,-7 3,-3 5,-5 7,-8 l 5,0 0,60 z"
     class="fil1"
     id="path77" /><path
     style="fill:#000000;fill-rule:nonzero"
     inkscape:connector-curvature="0"
     d="m 1134.491,1989.6241 7,-1 c 0,3 1,5 2,7 1,2 3,3 6,5 3,1 6,2 9,2 3,0 6,0 8,-1 2,-1 4,-2 5,-4 1,-2 2,-3 2,-5 0,-2 -1,-3 -2,-5 -1,-1 -3,-3 -5,-4 -2,-1 -5,-2 -11,-3 -5,-1 -9,-3 -12,-4 -3,-2 -5,-3 -6,-6 -1,-2 -2,-5 -2,-7 0,-3 1,-6 3,-8 2,-3 4,-5 7,-6 3,-1 7,-2 11,-2 4,0 8,1 12,2 3,1 6,4 8,6 2,3 3,6 3,9 l -8,1 c 0,-4 -2,-7 -4,-9 -2,-2 -6,-3 -10,-3 -5,0 -8,1 -10,3 -2,2 -3,4 -3,6 0,2 1,4 2,5 2,1 5,3 12,4 6,1 11,3 13,4 3,2 6,4 8,6 2,2 2,5 2,8 0,3 -1,6 -3,9 -2,3 -4,5 -8,7 -3,2 -7,2 -11,2 -5,0 -10,-1 -14,-2 -4,-2 -7,-4 -9,-7 -2,-3 -3,-7 -3,-11 z"
     class="fil1"
     id="path79" /><path
     style="fill:#000000;fill-rule:nonzero"
     inkscape:connector-curvature="0"
     d="m 1237.491,2001.6241 c 4,3 7,4 10,6 l -2,6 c -4,-2 -9,-4 -13,-7 -4,2 -9,4 -15,4 -5,0 -10,-1 -15,-4 -4,-3 -8,-6 -10,-11 -2,-5 -4,-10 -4,-16 0,-6 1,-11 4,-16 2,-5 6,-8 10,-11 4,-3 9,-4 15,-4 6,0 10,1 15,4 4,3 8,6 10,11 2,5 3,10 3,16 0,5 -1,9 -2,13 -1,4 -4,7 -7,10 z m -17,-10 c 5,1 8,3 11,6 5,-4 7,-11 7,-19 0,-5 -1,-9 -2,-13 -2,-4 -4,-6 -7,-8 -3,-2 -7,-3 -11,-3 -6,0 -11,2 -15,6 -4,4 -6,10 -6,18 0,8 2,14 6,18 4,4 9,6 15,6 3,0 5,-1 8,-2 -2,-2 -5,-3 -8,-3 l 2,-6 z"
     class="fil1"
     id="path81" /><path
     style="fill:#000000;fill-rule:nonzero"
     inkscape:connector-curvature="0"
     d="m 1257.491,2008.6241 0,-60 26,0 c 5,0 9,1 12,2 3,1 5,3 7,6 2,3 2,6 2,9 0,4 -1,8 -4,11 -3,3 -7,5 -13,6 2,1 4,2 5,3 2,2 4,5 7,8 l 10,16 -10,0 -8,-12 c -2,-4 -4,-6 -6,-8 -2,-2 -3,-3 -4,-4 -1,-1 -2,-1 -4,-2 -1,0 -2,0 -4,0 l -9,0 0,27 -8,0 z m 8,-33 17,0 c 4,0 6,0 8,-1 2,-1 4,-2 5,-4 1,-2 2,-3 2,-5 0,-3 -1,-5 -3,-7 -2,-2 -5,-3 -10,-3 l -19,0 0,20 z"
     class="fil1"
     id="path83" /><path
     style="fill:#000000;fill-rule:nonzero"
     inkscape:connector-curvature="0"
     d="m 1352.491,2001.6241 0,7 -40,0 c 0,-2 0,-3 1,-5 1,-3 3,-5 5,-8 2,-3 5,-6 10,-9 6,-5 11,-10 13,-13 2,-3 3,-6 3,-9 0,-3 -1,-5 -3,-7 -2,-2 -5,-3 -8,-3 -4,0 -6,1 -9,3 -2,2 -3,5 -3,9 l -8,-1 c 1,-6 2,-10 6,-13 3,-3 8,-4 14,-4 6,0 10,2 14,5 3,3 5,7 5,12 0,2 0,5 -1,7 -1,2 -3,5 -5,7 -2,3 -6,6 -11,11 -4,4 -7,6 -8,8 -1,1 -2,3 -3,4 l 29,0 z"
     class="fil1"
     id="path85" /><path
     style="fill:#000000;fill-rule:nonzero"
     inkscape:connector-curvature="0"
     d="m 1134.491,2091.6241 7,-1 c 0,3 1,5 2,7 1,2 3,3 6,5 3,1 6,2 9,2 3,0 6,0 8,-1 2,-1 4,-2 5,-4 1,-2 2,-3 2,-5 0,-2 -1,-3 -2,-5 -1,-1 -3,-3 -5,-4 -2,-1 -5,-2 -11,-3 -5,-1 -9,-3 -12,-4 -3,-2 -5,-3 -6,-6 -1,-2 -2,-5 -2,-7 0,-3 1,-6 3,-8 2,-3 4,-5 7,-6 3,-1 7,-2 11,-2 4,0 8,1 12,2 3,1 6,4 8,6 2,3 3,6 3,9 l -8,1 c 0,-4 -2,-7 -4,-9 -2,-2 -6,-3 -10,-3 -5,0 -8,1 -10,3 -2,2 -3,4 -3,6 0,2 1,4 2,5 2,1 5,3 12,4 6,1 11,3 13,4 3,2 6,4 8,6 2,2 2,5 2,8 0,3 -1,6 -3,9 -2,3 -4,5 -8,7 -3,2 -7,2 -11,2 -5,0 -10,-1 -14,-2 -4,-2 -7,-4 -9,-7 -2,-3 -3,-7 -3,-11 z"
     class="fil1"
     id="path87" /><path
     style="fill:#000000;fill-rule:nonzero"
     inkscape:connector-curvature="0"
     d="m 1237.491,2104.6241 c 4,3 7,4 10,6 l -2,6 c -4,-2 -9,-4 -13,-7 -4,2 -9,4 -15,4 -5,0 -10,-1 -15,-4 -4,-3 -8,-6 -10,-11 -2,-5 -4,-10 -4,-16 0,-6 1,-11 4,-16 2,-5 6,-8 10,-11 4,-3 9,-4 15,-4 6,0 10,1 15,4 4,3 8,6 10,11 2,5 3,10 3,16 0,5 -1,9 -2,13 -1,4 -4,7 -7,10 z m -17,-10 c 5,1 8,3 11,6 5,-4 7,-11 7,-19 0,-5 -1,-9 -2,-13 -2,-4 -4,-6 -7,-8 -3,-2 -7,-3 -11,-3 -6,0 -11,2 -15,6 -4,4 -6,10 -6,18 0,8 2,14 6,18 4,4 9,6 15,6 3,0 5,-1 8,-2 -2,-2 -5,-3 -8,-3 l 2,-6 z"
     class="fil1"
     id="path89" /><path
     style="fill:#000000;fill-rule:nonzero"
     inkscape:connector-curvature="0"
     d="m 1257.491,2110.6241 0,-60 26,0 c 5,0 9,1 12,2 3,1 5,3 7,6 2,3 2,6 2,9 0,4 -1,8 -4,11 -3,3 -7,5 -13,6 2,1 4,2 5,3 2,2 4,5 7,8 l 10,16 -10,0 -8,-12 c -2,-4 -4,-6 -6,-8 -2,-2 -3,-3 -4,-4 -1,-1 -2,-1 -4,-2 -1,0 -2,0 -4,0 l -9,0 0,27 -8,0 z m 8,-33 17,0 c 4,0 6,0 8,-1 2,-1 4,-2 5,-4 1,-2 2,-3 2,-5 0,-3 -1,-5 -3,-7 -2,-2 -5,-3 -10,-3 l -19,0 0,20 z"
     class="fil1"
     id="path91" /><path
     style="fill:#000000;fill-rule:nonzero"
     inkscape:connector-curvature="0"
     d="m 1314.491,2094.6241 7,-1 c 1,4 2,7 4,9 2,2 4,3 7,3 3,0 6,-1 9,-4 2,-2 4,-5 4,-9 0,-3 -1,-6 -3,-8 -2,-2 -5,-3 -8,-3 -1,0 -3,0 -5,1 l 1,-6 c 0,0 1,0 1,0 3,0 6,-1 8,-2 3,-2 4,-4 4,-8 0,-3 -1,-5 -3,-7 -2,-2 -4,-3 -7,-3 -3,0 -5,1 -7,3 -2,2 -3,5 -4,8 l -7,-1 c 1,-5 3,-9 6,-11 3,-3 7,-4 12,-4 3,0 6,1 9,2 3,1 5,3 6,6 1,2 2,5 2,8 0,3 -1,5 -2,7 -1,2 -3,4 -6,5 4,1 6,3 8,5 2,3 3,6 3,10 0,5 -2,10 -6,13 -4,4 -9,5 -14,5 -5,0 -10,-2 -13,-5 -3,-3 -5,-7 -6,-12 z"
     class="fil1"
     id="path93" /><path
     style="fill:#000000;fill-rule:nonzero"
     inkscape:connector-curvature="0"
     d="m 1134.491,2193.6241 7,-1 c 0,3 1,5 2,7 1,2 3,3 6,5 3,1 6,2 9,2 3,0 6,0 8,-1 2,-1 4,-2 5,-4 1,-2 2,-3 2,-5 0,-2 -1,-3 -2,-5 -1,-1 -3,-3 -5,-4 -2,-1 -5,-2 -11,-3 -5,-1 -9,-3 -12,-4 -3,-2 -5,-3 -6,-6 -1,-2 -2,-5 -2,-7 0,-3 1,-6 3,-8 2,-3 4,-5 7,-6 3,-1 7,-2 11,-2 4,0 8,1 12,2 3,1 6,4 8,6 2,3 3,6 3,9 l -8,1 c 0,-4 -2,-7 -4,-9 -2,-2 -6,-3 -10,-3 -5,0 -8,1 -10,3 -2,2 -3,4 -3,6 0,2 1,4 2,5 2,1 5,3 12,4 6,1 11,3 13,4 3,2 6,4 8,6 2,2 2,5 2,8 0,3 -1,6 -3,9 -2,3 -4,5 -8,7 -3,2 -7,2 -11,2 -5,0 -10,-1 -14,-2 -4,-2 -7,-4 -9,-7 -2,-3 -3,-7 -3,-11 z"
     class="fil1"
     id="path95" /><path
     style="fill:#000000;fill-rule:nonzero"
     inkscape:connector-curvature="0"
     d="m 1237.491,2206.6241 c 4,3 7,4 10,6 l -2,6 c -4,-2 -9,-4 -13,-7 -4,2 -9,4 -15,4 -5,0 -10,-1 -15,-4 -4,-3 -8,-6 -10,-11 -2,-5 -4,-10 -4,-16 0,-6 1,-11 4,-16 2,-5 6,-8 10,-11 4,-3 9,-4 15,-4 6,0 10,1 15,4 4,3 8,6 10,11 2,5 3,10 3,16 0,5 -1,9 -2,13 -1,4 -4,7 -7,10 z m -17,-10 c 5,1 8,3 11,6 5,-4 7,-11 7,-19 0,-5 -1,-9 -2,-13 -2,-4 -4,-6 -7,-8 -3,-2 -7,-3 -11,-3 -6,0 -11,2 -15,6 -4,4 -6,10 -6,18 0,8 2,14 6,18 4,4 9,6 15,6 3,0 5,-1 8,-2 -2,-2 -5,-3 -8,-3 l 2,-6 z"
     class="fil1"
     id="path97" /><path
     style="fill:#000000;fill-rule:nonzero"
     inkscape:connector-curvature="0"
     d="m 1257.491,2212.6241 0,-60 26,0 c 5,0 9,1 12,2 3,1 5,3 7,6 2,3 2,6 2,9 0,4 -1,8 -4,11 -3,3 -7,5 -13,6 2,1 4,2 5,3 2,2 4,5 7,8 l 10,16 -10,0 -8,-12 c -2,-4 -4,-6 -6,-8 -2,-2 -3,-3 -4,-4 -1,-1 -2,-1 -4,-2 -1,0 -2,0 -4,0 l -9,0 0,27 -8,0 z m 8,-33 17,0 c 4,0 6,0 8,-1 2,-1 4,-2 5,-4 1,-2 2,-3 2,-5 0,-3 -1,-5 -3,-7 -2,-2 -5,-3 -10,-3 l -19,0 0,20 z"
     class="fil1"
     id="17" /><path
     style="fill:#000000;fill-rule:nonzero"
     inkscape:connector-curvature="0"
     d="m 1337.491,2212.6241 0,-14 -26,0 0,-7 27,-39 6,0 0,39 8,0 0,7 -8,0 0,14 -7,0 z m 0,-21 0,-27 -19,27 19,0 z"
     class="fil1"
     id="18" /><path
     style="fill:#000000;fill-rule:nonzero"
     inkscape:connector-curvature="0"
     d="m 1179.491,2294.6241 8,2 c -2,6 -5,11 -9,15 -4,3 -10,5 -16,5 -6,0 -12,-1 -16,-4 -4,-3 -7,-6 -9,-11 -2,-5 -3,-10 -3,-16 0,-6 1,-12 4,-16 2,-5 6,-8 10,-11 4,-2 9,-4 14,-4 6,0 11,2 15,5 4,3 7,7 9,13 l -8,2 c -1,-4 -3,-8 -6,-9 -3,-2 -6,-3 -10,-3 -5,0 -8,1 -11,3 -3,2 -5,5 -6,9 -1,4 -2,8 -2,11 0,5 1,10 2,13 1,4 4,7 7,8 3,2 6,3 10,3 4,0 8,-1 11,-4 3,-3 5,-6 6,-11 z"
     class="fil1"
     id="19" /><polygon
     style="fill:#000000;fill-rule:nonzero"
     points="11351,11234 11343,11234 11312,11187 11312,11234 11304,11234 11304,11174 11312,11174 11344,11221 11344,11174 11351,11174 "
     class="fil1"
     id="20"
     transform="translate(-10107.509,-8918.3759)" /><polygon
     style="fill:#000000;fill-rule:nonzero"
     points="11388,11181 11388,11234 11380,11234 11380,11181 11360,11181 11360,11174 11407,11174 11407,11181 "
     class="fil1"
     id="21"
     transform="translate(-10107.509,-8918.3759)" /><path
     style="fill:#000000;fill-rule:nonzero"
     inkscape:connector-curvature="0"
     d="m 1308.491,2315.6241 0,-60 26,0 c 5,0 9,1 12,2 3,1 5,3 7,6 2,3 2,6 2,9 0,4 -1,8 -4,11 -3,3 -7,5 -13,6 2,1 4,2 5,3 2,2 4,5 7,8 l 10,16 -10,0 -8,-12 c -2,-4 -4,-6 -6,-8 -2,-2 -3,-3 -4,-4 -1,-1 -2,-1 -4,-2 -1,0 -2,0 -4,0 l -9,0 0,27 -8,0 z m 8,-33 17,0 c 4,0 6,0 8,-1 2,-1 4,-2 5,-4 1,-2 2,-3 2,-5 0,-3 -1,-5 -3,-7 -2,-2 -5,-3 -10,-3 l -19,0 0,20 z"
     class="fil1"
     id="22" /><polygon
     style="fill:#000000;fill-rule:nonzero"
     points="11253,11277 11253,11336 11245,11336 11245,11277 "
     class="fil1"
     id="23"
     transform="translate(-10107.509,-8918.3759)" /><path
     style="fill:#000000;fill-rule:nonzero"
     inkscape:connector-curvature="0"
     d="m 1159.491,2417.6241 0,-60 21,0 c 5,0 8,0 11,1 3,1 6,2 9,4 3,3 6,6 7,10 2,4 2,9 2,14 0,5 -1,9 -2,12 -1,4 -2,6 -4,9 -2,2 -3,4 -5,5 -2,1 -4,2 -7,3 -3,1 -6,1 -10,1 l -22,0 z m 8,-7 13,0 c 4,0 7,0 9,-1 2,-1 4,-2 5,-3 2,-2 3,-4 4,-8 1,-3 2,-7 2,-12 0,-6 -1,-11 -3,-14 -2,-3 -5,-6 -7,-7 -2,-1 -6,-1 -10,-1 l -13,0 0,46 z"
     class="fil1"
     id="24" /><path
     style="fill:#000000;fill-rule:nonzero"
     inkscape:connector-curvature="0"
     d="m 1244.491,2417.6241 -7,0 0,-47 c -2,2 -4,3 -7,5 -3,2 -5,3 -8,4 l 0,-7 c 4,-2 8,-4 11,-7 3,-3 5,-5 7,-8 l 5,0 0,60 z"
     class="fil1"
     id="25" /><polygon
     style="fill:#000000;fill-rule:nonzero"
     points="11253,11379 11253,11439 11245,11439 11245,11379 "
     class="fil1"
     id="26"
     transform="translate(-10107.509,-8918.3759)" /><path
     style="fill:#000000;fill-rule:nonzero"
     inkscape:connector-curvature="0"
     d="m 1159.491,2520.6241 0,-60 21,0 c 5,0 8,0 11,1 3,1 6,2 9,4 3,3 6,6 7,10 2,4 2,9 2,14 0,5 -1,9 -2,12 -1,4 -2,6 -4,9 -2,2 -3,4 -5,5 -2,1 -4,2 -7,3 -3,1 -6,1 -10,1 l -22,0 z m 8,-7 13,0 c 4,0 7,0 9,-1 2,-1 4,-2 5,-3 2,-2 3,-4 4,-8 1,-3 2,-7 2,-12 0,-6 -1,-11 -3,-14 -2,-3 -5,-6 -7,-7 -2,-1 -6,-1 -10,-1 l -13,0 0,46 z"
     class="fil1"
     id="27" /><path
     style="fill:#000000;fill-rule:nonzero"
     inkscape:connector-curvature="0"
     d="m 1255.491,2513.6241 0,7 -40,0 c 0,-2 0,-3 1,-5 1,-3 3,-5 5,-8 2,-3 5,-6 10,-9 6,-5 11,-10 13,-13 2,-3 3,-6 3,-9 0,-3 -1,-5 -3,-7 -2,-2 -5,-3 -8,-3 -4,0 -6,1 -9,3 -2,2 -3,5 -3,9 l -8,-1 c 1,-6 2,-10 6,-13 3,-3 8,-4 14,-4 6,0 10,2 14,5 3,3 5,7 5,12 0,2 0,5 -1,7 -1,2 -3,5 -5,7 -2,3 -6,6 -11,11 -4,4 -7,6 -8,8 -1,1 -2,3 -3,4 l 29,0 z"
     class="fil1"
     id="28" /><polygon
     style="fill:#000000;fill-rule:nonzero"
     points="11253,11481 11253,11541 11245,11541 11245,11481 "
     class="fil1"
     id="29"
     transform="translate(-10107.509,-8918.3759)" /><path
     style="fill:#000000;fill-rule:nonzero"
     inkscape:connector-curvature="0"
     d="m 1159.491,2622.6241 0,-60 21,0 c 5,0 8,0 11,1 3,1 6,2 9,4 3,3 6,6 7,10 2,4 2,9 2,14 0,5 -1,9 -2,12 -1,4 -2,6 -4,9 -2,2 -3,4 -5,5 -2,1 -4,2 -7,3 -3,1 -6,1 -10,1 l -22,0 z m 8,-7 13,0 c 4,0 7,0 9,-1 2,-1 4,-2 5,-3 2,-2 3,-4 4,-8 1,-3 2,-7 2,-12 0,-6 -1,-11 -3,-14 -2,-3 -5,-6 -7,-7 -2,-1 -6,-1 -10,-1 l -13,0 0,46 z"
     class="fil1"
     id="30" /><path
     style="fill:#000000;fill-rule:nonzero"
     inkscape:connector-curvature="0"
     d="m 1217.491,2606.6241 7,-1 c 1,4 2,7 4,9 2,2 4,3 7,3 3,0 6,-1 9,-4 2,-2 4,-5 4,-9 0,-3 -1,-6 -3,-8 -2,-2 -5,-3 -8,-3 -1,0 -3,0 -5,1 l 1,-6 c 0,0 1,0 1,0 3,0 6,-1 8,-2 3,-2 4,-4 4,-8 0,-3 -1,-5 -3,-7 -2,-2 -4,-3 -7,-3 -3,0 -5,1 -7,3 -2,2 -3,5 -4,8 l -7,-1 c 1,-5 3,-9 6,-11 3,-3 7,-4 12,-4 3,0 6,1 9,2 3,1 5,3 6,6 1,2 2,5 2,8 0,3 -1,5 -2,7 -1,2 -3,4 -6,5 4,1 6,3 8,5 2,3 3,6 3,10 0,5 -2,10 -6,13 -4,4 -9,5 -14,5 -5,0 -10,-2 -13,-5 -3,-3 -5,-7 -6,-12 z"
     class="fil1"
     id="31" /><polygon
     style="fill:#000000;fill-rule:nonzero"
     points="11253,11584 11253,11644 11245,11644 11245,11584 "
     class="fil1"
     id="32"
     transform="translate(-10107.509,-8918.3759)" /><path
     style="fill:#000000;fill-rule:nonzero"
     inkscape:connector-curvature="0"
     d="m 1159.491,2725.6241 0,-60 21,0 c 5,0 8,0 11,1 3,1 6,2 9,4 3,3 6,6 7,10 2,4 2,9 2,14 0,5 -1,9 -2,12 -1,4 -2,6 -4,9 -2,2 -3,4 -5,5 -2,1 -4,2 -7,3 -3,1 -6,1 -10,1 l -22,0 z m 8,-7 13,0 c 4,0 7,0 9,-1 2,-1 4,-2 5,-3 2,-2 3,-4 4,-8 1,-3 2,-7 2,-12 0,-6 -1,-11 -3,-14 -2,-3 -5,-6 -7,-7 -2,-1 -6,-1 -10,-1 l -13,0 0,46 z"
     class="fil1"
     id="33" /><path
     style="fill:#000000;fill-rule:nonzero"
     inkscape:connector-curvature="0"
     d="m 1240.491,2725.6241 0,-14 -26,0 0,-7 27,-39 6,0 0,39 8,0 0,7 -8,0 0,14 -7,0 z m 0,-21 0,-27 -19,27 19,0 z"
     class="fil1"
     id="34" /><path
     style="fill:#000000;fill-rule:nonzero;stroke:#000000"
     inkscape:connector-curvature="0"
     id="path117"
     d="m 2415.491,2245.6241 -1,-7 c 4,-1 7,-2 9,-4 2,-2 3,-4 3,-7 0,-3 -1,-6 -4,-9 -2,-2 -5,-4 -9,-4 -3,0 -6,1 -8,3 -2,2 -3,5 -3,8 0,1 0,3 1,5 l -6,-1 c 0,0 0,-1 0,-1 0,-3 -1,-6 -2,-8 -2,-3 -4,-4 -8,-4 -3,0 -5,1 -7,3 -2,2 -3,4 -3,7 0,3 1,5 3,7 2,2 5,3 8,4 l -1,7 c -5,-1 -9,-3 -11,-6 -3,-3 -4,-7 -4,-12 0,-3 1,-6 2,-9 1,-3 3,-5 6,-6 2,-1 5,-2 8,-2 3,0 5,1 7,2 2,1 4,3 5,6 1,-4 3,-6 5,-8 3,-2 6,-3 10,-3 5,0 10,2 13,6 4,4 5,9 5,14 0,5 -2,10 -5,13 -3,3 -7,5 -12,6 z"
     class="fil1" /><polygon
     style="fill:#000000;fill-rule:nonzero;stroke:#000000"
     points="12530,11105 12539,11105 12539,11113 12530,11113 "
     class="fil1"
     id="polygon119"
     transform="translate(-10107.509,-8918.3759)" /><path
     style="fill:#000000;fill-rule:nonzero;stroke:#000000"
     inkscape:connector-curvature="0"
     d="m 2415.491,2175.6241 -1,-7 c 4,-1 7,-2 9,-4 2,-2 3,-4 3,-7 0,-3 -1,-6 -4,-9 -2,-2 -5,-4 -9,-4 -3,0 -6,1 -8,3 -2,2 -3,5 -3,8 0,1 0,3 1,5 l -6,-1 c 0,0 0,-1 0,-1 0,-3 -1,-6 -2,-8 -2,-3 -4,-4 -8,-4 -3,0 -5,1 -7,3 -2,2 -3,4 -3,7 0,3 1,5 3,7 2,2 5,3 8,4 l -1,7 c -5,-1 -9,-3 -11,-6 -3,-3 -4,-7 -4,-12 0,-3 1,-6 2,-9 1,-3 3,-5 6,-6 2,-1 5,-2 8,-2 3,0 5,1 7,2 2,1 4,3 5,6 1,-4 3,-6 5,-8 3,-2 6,-3 10,-3 5,0 10,2 13,6 4,4 5,9 5,14 0,5 -2,10 -5,13 -3,3 -7,5 -12,6 z"
     class="fil1"
     id="path121" /><path
     style="fill:#000000;fill-rule:nonzero;stroke:#000000"
     inkscape:connector-curvature="0"
     d="m 2431.491,2109.6241 -60,23 0,-9 43,-16 c 3,-1 7,-2 10,-3 -3,-1 -7,-2 -10,-3 l -43,-16 0,-8 60,23 0,8 z"
     class="fil1"
     id="path123" /><path
     style="fill:#000000;fill-rule:nonzero;stroke:#000000"
     inkscape:connector-curvature="0"
     d="m 2510.491,2214.6241 -7,0 0,-25 22,0 c 3,4 5,8 7,12 2,4 2,8 2,13 0,6 -1,11 -4,16 -3,5 -6,8 -11,11 -5,2 -10,4 -16,4 -6,0 -11,-1 -16,-4 -5,-2 -9,-6 -11,-10 -2,-5 -4,-10 -4,-16 0,-4 1,-8 2,-12 1,-3 3,-6 6,-8 2,-2 6,-3 10,-5 l 2,7 c -3,1 -5,2 -7,3 -2,1 -3,3 -4,6 -1,2 -2,5 -2,8 0,4 1,7 2,9 1,3 3,5 4,6 2,2 4,3 6,4 4,2 8,2 12,2 5,0 10,-1 13,-3 4,-2 6,-5 8,-8 2,-4 3,-7 3,-11 0,-3 -1,-7 -2,-10 -1,-3 -3,-6 -4,-7 l -11,0 0,18 z"
     class="fil1"
     id="path125" /><polygon
     style="fill:#000000;fill-rule:nonzero;stroke:#000000"
     points="12641,11049 12641,11057 12594,11088 12641,11088 12641,11096 12581,11096 12581,11088 12628,11057 12581,11057 12581,11049 "
     class="fil1"
     id="polygon127"
     transform="translate(-10107.509,-8918.3759)" /><path
     style="fill:#000000;fill-rule:nonzero;stroke:#000000"
     inkscape:connector-curvature="0"
     d="m 2533.491,2117.6241 -60,0 0,-21 c 0,-5 0,-8 1,-11 1,-3 2,-6 4,-9 3,-3 6,-6 10,-7 4,-2 9,-2 14,-2 5,0 9,1 12,2 4,1 6,2 9,4 2,2 4,3 5,5 1,2 2,4 3,7 1,3 1,6 1,10 l 0,22 z m -7,-8 0,-13 c 0,-4 0,-7 -1,-9 -1,-2 -2,-4 -3,-5 -2,-2 -4,-3 -8,-4 -3,-1 -7,-2 -12,-2 -6,0 -11,1 -14,3 -3,2 -6,5 -7,7 -1,2 -1,6 -1,10 l 0,13 46,0 z"
     class="fil1"
     id="path129" /><path
     style="fill:#000000;fill-rule:nonzero;stroke:#000000"
     inkscape:connector-curvature="0"
     d="m 2616.491,2244.6241 -1,-7 c 3,0 5,-1 7,-2 2,-1 3,-3 5,-6 1,-3 2,-6 2,-9 0,-3 0,-6 -1,-8 -1,-2 -2,-4 -4,-5 -2,-1 -3,-2 -5,-2 -2,0 -3,1 -5,2 -1,1 -3,3 -4,5 -1,2 -2,5 -3,11 -1,5 -3,9 -4,12 -2,3 -3,5 -6,6 -2,1 -5,2 -7,2 -3,0 -6,-1 -8,-3 -3,-2 -5,-4 -6,-7 -1,-3 -2,-7 -2,-11 0,-4 1,-8 2,-12 1,-3 4,-6 6,-8 3,-2 6,-3 9,-3 l 1,8 c -4,0 -7,2 -9,4 -2,2 -3,6 -3,10 0,5 1,8 3,10 2,2 4,3 6,3 2,0 4,-1 5,-2 1,-2 3,-5 4,-12 1,-6 3,-11 4,-13 2,-3 4,-6 6,-8 2,-2 5,-2 8,-2 3,0 6,1 9,3 3,2 5,4 7,8 2,3 2,7 2,11 0,5 -1,10 -2,14 -2,4 -4,7 -7,9 -3,2 -7,3 -11,3 z"
     class="fil1"
     id="path131" /><path
     style="fill:#000000;fill-rule:nonzero;stroke:#000000"
     inkscape:connector-curvature="0"
     d="m 2615.491,2144.6241 2,-8 c 6,2 11,5 15,9 3,4 5,10 5,16 0,6 -1,12 -4,16 -3,4 -6,7 -11,9 -5,2 -10,3 -16,3 -6,0 -12,-1 -16,-4 -5,-2 -8,-6 -11,-10 -2,-4 -4,-9 -4,-14 0,-6 2,-11 5,-15 3,-4 7,-7 13,-9 l 2,8 c -4,1 -8,3 -9,6 -2,3 -3,6 -3,10 0,5 1,8 3,11 2,3 5,5 9,6 4,1 8,2 11,2 5,0 10,-1 13,-2 4,-1 7,-4 8,-7 2,-3 3,-6 3,-10 0,-4 -1,-8 -4,-11 -3,-3 -6,-5 -11,-6 z"
     class="fil1"
     id="path133" /><polygon
     style="fill:#000000;fill-rule:nonzero;stroke:#000000"
     points="12743,11045 12684,11045 12684,11037 12736,11037 12736,11008 12743,11008 "
     class="fil1"
     id="polygon135"
     transform="translate(-10107.509,-8918.3759)" /><path
     style="fill:#000000;fill-rule:nonzero;stroke:#000000"
     inkscape:connector-curvature="0"
     d="m 2719.491,2244.6241 -1,-7 c 3,0 5,-1 7,-2 2,-1 3,-3 5,-6 1,-3 2,-6 2,-9 0,-3 0,-6 -1,-8 -1,-2 -2,-4 -4,-5 -2,-1 -3,-2 -5,-2 -2,0 -3,1 -5,2 -1,1 -3,3 -4,5 -1,2 -2,5 -3,11 -1,5 -3,9 -4,12 -2,3 -3,5 -6,6 -2,1 -5,2 -7,2 -3,0 -6,-1 -8,-3 -3,-2 -5,-4 -6,-7 -1,-3 -2,-7 -2,-11 0,-4 1,-8 2,-12 1,-3 4,-6 6,-8 3,-2 6,-3 9,-3 l 1,8 c -4,0 -7,2 -9,4 -2,2 -3,6 -3,10 0,5 1,8 3,10 2,2 4,3 6,3 2,0 4,-1 5,-2 1,-2 3,-5 4,-12 1,-6 3,-11 4,-13 2,-3 4,-6 6,-8 2,-2 5,-2 8,-2 3,0 6,1 9,3 3,2 5,4 7,8 2,3 2,7 2,11 0,5 -1,10 -2,14 -2,4 -4,7 -7,9 -3,2 -7,3 -11,3 z"
     class="fil1"
     id="path137" /><path
     style="fill:#000000;fill-rule:nonzero;stroke:#000000"
     inkscape:connector-curvature="0"
     d="m 2738.491,2186.6241 -60,0 0,-21 c 0,-5 0,-8 1,-11 1,-3 2,-6 4,-9 3,-3 6,-6 10,-7 4,-2 9,-2 14,-2 5,0 9,1 12,2 4,1 6,2 9,4 2,2 4,3 5,5 1,2 2,4 3,7 1,3 1,6 1,10 l 0,22 z m -7,-8 0,-13 c 0,-4 0,-7 -1,-9 -1,-2 -2,-4 -3,-5 -2,-2 -4,-3 -8,-4 -3,-1 -7,-2 -12,-2 -6,0 -11,1 -14,3 -3,2 -6,5 -7,7 -1,2 -1,6 -1,10 l 0,13 46,0 z"
     class="fil1"
     id="path139" /><path
     style="fill:#000000;fill-rule:nonzero;stroke:#000000"
     inkscape:connector-curvature="0"
     d="m 2738.491,2133.6241 -60,-23 0,-9 60,-24 0,9 -18,7 0,25 18,6 0,8 z m -25,-17 0,-20 -17,6 c -5,2 -9,3 -12,4 4,1 8,2 11,3 l 18,7 z"
     class="fil1"
     id="path141" /><path
     style="fill:#000000;fill-rule:nonzero"
     inkscape:connector-curvature="0"
     id="path143"
     d="m 2914.491,2769.6241 7,-1 c 0,3 1,5 2,7 1,2 3,3 6,5 3,1 6,2 9,2 3,0 6,0 8,-1 2,-1 4,-2 5,-4 1,-2 2,-3 2,-5 0,-2 -1,-3 -2,-5 -1,-1 -3,-3 -5,-4 -2,-1 -5,-2 -11,-3 -5,-1 -9,-3 -12,-4 -3,-2 -5,-3 -6,-6 -1,-2 -2,-5 -2,-7 0,-3 1,-6 3,-8 2,-3 4,-5 7,-6 3,-1 7,-2 11,-2 4,0 8,1 12,2 3,1 6,4 8,6 2,3 3,6 3,9 l -8,1 c 0,-4 -2,-7 -4,-9 -2,-2 -6,-3 -10,-3 -5,0 -8,1 -10,3 -2,2 -3,4 -3,6 0,2 1,4 2,5 2,1 5,3 12,4 6,1 11,3 13,4 3,2 6,4 8,6 2,2 2,5 2,8 0,3 -1,6 -3,9 -2,3 -4,5 -8,7 -3,2 -7,2 -11,2 -5,0 -10,-1 -14,-2 -4,-2 -7,-4 -9,-7 -2,-3 -3,-7 -3,-11 z"
     class="fil2" /><polygon
     style="fill:#000000;fill-rule:nonzero"
     points="13121,11672 13121,11679 13088,11679 13088,11700 13125,11700 13125,11707 13080,11707 13080,11647 13123,11647 13123,11654 13088,11654 13088,11672 "
     class="fil2"
     id="polygon145"
     transform="translate(-10107.509,-8918.3759)" /><polygon
     style="fill:#000000;fill-rule:nonzero"
     points="13182,11707 13174,11707 13143,11660 13143,11707 13135,11707 13135,11647 13144,11647 13175,11694 13175,11647 13182,11647 "
     class="fil2"
     id="polygon147"
     transform="translate(-10107.509,-8918.3759)" /><path
     style="fill:#000000;fill-rule:nonzero"
     inkscape:connector-curvature="0"
     d="m 2930.491,2867.6241 0,-7 25,0 0,22 c -4,3 -8,5 -12,7 -4,2 -8,2 -13,2 -6,0 -11,-1 -16,-4 -5,-3 -8,-6 -11,-11 -2,-5 -4,-10 -4,-16 0,-6 1,-11 4,-16 2,-5 6,-9 10,-11 5,-2 10,-4 16,-4 4,0 8,1 12,2 3,1 6,3 8,6 2,3 3,6 5,10 l -7,2 c -1,-3 -2,-5 -3,-7 -1,-2 -3,-3 -6,-4 -2,-1 -5,-2 -8,-2 -4,0 -7,1 -9,2 -3,1 -5,3 -6,4 -2,2 -3,4 -4,6 -2,4 -2,8 -2,12 0,5 1,10 3,13 2,4 5,6 8,8 4,2 7,3 11,3 3,0 7,-1 10,-2 3,-1 6,-3 7,-4 l 0,-11 -18,0 z"
     class="fil2"
     id="path149" /><polygon
     style="fill:#000000;fill-rule:nonzero"
     points="13122,11809 13114,11809 13083,11762 13083,11809 13075,11809 13075,11749 13083,11749 13115,11796 13115,11749 13122,11749 "
     class="fil2"
     id="polygon151"
     transform="translate(-10107.509,-8918.3759)" /><path
     style="fill:#000000;fill-rule:nonzero"
     inkscape:connector-curvature="0"
     d="m 3027.491,2890.6241 0,-60 21,0 c 5,0 8,0 11,1 3,1 6,2 9,4 3,3 6,6 7,10 2,4 2,9 2,14 0,5 -1,9 -2,12 -1,4 -2,6 -4,9 -2,2 -3,4 -5,5 -2,1 -4,2 -7,3 -3,1 -6,1 -10,1 l -22,0 z m 8,-7 13,0 c 4,0 7,0 9,-1 2,-1 4,-2 5,-3 2,-2 3,-4 4,-8 1,-3 2,-7 2,-12 0,-6 -1,-11 -3,-14 -2,-3 -5,-6 -7,-7 -2,-1 -6,-1 -10,-1 l -13,0 0,46 z"
     class="fil2"
     id="path153" /><path
     style="fill:#000000;fill-rule:nonzero"
     inkscape:connector-curvature="0"
     d="m 2959.491,2972.6241 8,2 c -2,6 -5,11 -9,15 -4,3 -10,5 -16,5 -6,0 -12,-1 -16,-4 -4,-3 -7,-6 -9,-11 -2,-5 -3,-10 -3,-16 0,-6 1,-12 4,-16 2,-5 6,-8 10,-11 4,-2 9,-4 14,-4 6,0 11,2 15,5 4,3 7,7 9,13 l -8,2 c -1,-4 -3,-8 -6,-9 -3,-2 -6,-3 -10,-3 -5,0 -8,1 -11,3 -3,2 -5,5 -6,9 -1,4 -2,8 -2,11 0,5 1,10 2,13 1,4 4,7 7,8 3,2 6,3 10,3 4,0 8,-1 11,-4 3,-3 5,-6 6,-11 z"
     class="fil2"
     id="path155" /><path
     style="fill:#000000;fill-rule:nonzero"
     inkscape:connector-curvature="0"
     d="m 2970.491,2993.6241 23,-60 9,0 24,60 -9,0 -7,-18 -25,0 -6,18 -8,0 z m 17,-25 20,0 -6,-17 c -2,-5 -3,-9 -4,-12 -1,4 -2,8 -3,11 l -7,18 z"
     class="fil2"
     id="path157" /><path
     style="fill:#000000;fill-rule:nonzero"
     inkscape:connector-curvature="0"
     d="m 3032.491,2993.6241 0,-60 23,0 c 4,0 7,0 9,1 3,0 5,1 7,3 2,1 4,3 5,6 1,2 2,5 2,8 0,5 -2,9 -5,13 -3,4 -9,5 -18,5 l -15,0 0,24 -8,0 z m 8,-31 15,0 c 5,0 9,-1 11,-3 2,-2 3,-5 3,-8 0,-2 -1,-5 -2,-6 -1,-2 -3,-3 -5,-4 -1,0 -4,-1 -7,-1 l -15,0 0,21 z"
     class="fil2"
     id="path159" /><path
     style="fill:#000000;fill-rule:nonzero"
     inkscape:connector-curvature="0"
     d="m 2935.491,3095.6241 0,-60 12,0 14,42 c 1,4 2,7 3,9 1,-2 2,-5 3,-10 l 14,-42 11,0 0,60 -8,0 0,-50 -17,50 -7,0 -17,-51 0,51 -8,0 z"
     class="fil2"
     id="path161" /><polygon
     style="fill:#000000;fill-rule:nonzero"
     points="13122,11954 13122,12014 13114,12014 13114,11954 "
     class="fil2"
     id="polygon163"
     transform="translate(-10107.509,-8918.3759)" /><path
     style="fill:#000000;fill-rule:nonzero"
     inkscape:connector-curvature="0"
     d="m 3070.491,3074.6241 8,2 c -2,6 -5,11 -9,15 -4,3 -10,5 -16,5 -6,0 -12,-1 -16,-4 -4,-3 -7,-6 -9,-11 -2,-5 -3,-10 -3,-16 0,-6 1,-12 4,-16 2,-5 6,-8 10,-11 4,-2 9,-4 14,-4 6,0 11,2 15,5 4,3 7,7 9,13 l -8,2 c -1,-4 -3,-8 -6,-9 -3,-2 -6,-3 -10,-3 -5,0 -8,1 -11,3 -3,2 -5,5 -6,9 -1,4 -2,8 -2,11 0,5 1,10 2,13 1,4 4,7 7,8 3,2 6,3 10,3 4,0 8,-1 11,-4 3,-3 5,-6 6,-11 z"
     class="fil2"
     id="path165" /><path
     style="fill:#000000;fill-rule:nonzero"
     inkscape:connector-curvature="0"
     d="m 2930.491,3174.6241 0,-7 25,0 0,22 c -4,3 -8,5 -12,7 -4,2 -8,2 -13,2 -6,0 -11,-1 -16,-4 -5,-3 -8,-6 -11,-11 -2,-5 -4,-10 -4,-16 0,-6 1,-11 4,-16 2,-5 6,-9 10,-11 5,-2 10,-4 16,-4 4,0 8,1 12,2 3,1 6,3 8,6 2,3 3,6 5,10 l -7,2 c -1,-3 -2,-5 -3,-7 -1,-2 -3,-3 -6,-4 -2,-1 -5,-2 -8,-2 -4,0 -7,1 -9,2 -3,1 -5,3 -6,4 -2,2 -3,4 -4,6 -2,4 -2,8 -2,12 0,5 1,10 3,13 2,4 5,6 8,8 4,2 7,3 11,3 3,0 7,-1 10,-2 3,-1 6,-3 7,-4 l 0,-11 -18,0 z"
     class="fil2"
     id="path167" /><polygon
     style="fill:#000000;fill-rule:nonzero"
     points="13122,12116 13114,12116 13083,12070 13083,12116 13075,12116 13075,12057 13083,12057 13115,12104 13115,12057 13122,12057 "
     class="fil2"
     id="polygon169"
     transform="translate(-10107.509,-8918.3759)" /><path
     style="fill:#000000;fill-rule:nonzero"
     inkscape:connector-curvature="0"
     d="m 3027.491,3197.6241 0,-60 21,0 c 5,0 8,0 11,1 3,1 6,2 9,4 3,3 6,6 7,10 2,4 2,9 2,14 0,5 -1,9 -2,12 -1,4 -2,6 -4,9 -2,2 -3,4 -5,5 -2,1 -4,2 -7,3 -3,1 -6,1 -10,1 l -22,0 z m 8,-7 13,0 c 4,0 7,0 9,-1 2,-1 4,-2 5,-3 2,-2 3,-4 4,-8 1,-3 2,-7 2,-12 0,-6 -1,-11 -3,-14 -2,-3 -5,-6 -7,-7 -2,-1 -6,-1 -10,-1 l -13,0 0,46 z"
     class="fil2"
     id="path171" /><path
     style="fill:#000000;fill-rule:nonzero"
     inkscape:connector-curvature="0"
     d="m 2981.491,3300.6241 0,-60 26,0 c 5,0 9,1 12,2 3,1 5,3 7,6 2,3 2,6 2,9 0,4 -1,8 -4,11 -3,3 -7,5 -13,6 2,1 4,2 5,3 2,2 4,5 7,8 l 10,16 -10,0 -8,-12 c -2,-4 -4,-6 -6,-8 -2,-2 -3,-3 -4,-4 -1,-1 -2,-1 -4,-2 -1,0 -2,0 -4,0 l -9,0 0,27 -8,0 z m 8,-33 17,0 c 4,0 6,0 8,-1 2,-1 4,-2 5,-4 1,-2 2,-3 2,-5 0,-3 -1,-5 -3,-7 -2,-2 -5,-3 -10,-3 l -19,0 0,20 z"
     class="fil2"
     id="path173" /><path
     style="fill:#000000;fill-rule:nonzero"
     inkscape:connector-curvature="0"
     d="m 3039.491,3303.6241 7,1 c 0,2 1,4 2,5 2,1 4,2 7,2 3,0 6,-1 8,-2 2,-1 3,-3 4,-6 0,-1 1,-5 1,-9 -3,4 -7,6 -12,6 -6,0 -11,-2 -14,-6 -3,-4 -5,-9 -5,-15 0,-4 1,-8 2,-11 1,-3 4,-6 6,-8 3,-2 6,-3 10,-3 5,0 9,2 13,6 l 0,-5 7,0 0,37 c 0,7 -1,12 -2,14 -1,3 -4,5 -7,7 -3,2 -7,2 -11,2 -5,0 -9,-1 -12,-3 -3,-2 -5,-6 -5,-10 z m 6,-26 c 0,6 1,10 3,12 2,3 5,4 8,4 3,0 6,-1 8,-4 2,-3 3,-7 3,-12 0,-5 -1,-9 -4,-12 -2,-3 -5,-4 -8,-4 -3,0 -6,1 -8,4 -2,3 -3,7 -3,12 z"
     class="fil2"
     id="path175" /><path
     style="fill:#000000;fill-rule:nonzero"
     inkscape:connector-curvature="0"
     id="path177"
     d="m 1351.491,3767.6241 -60,16 0,-8 39,-9 c 4,-1 8,-2 12,-3 -6,-2 -10,-2 -11,-3 l -40,-11 0,-10 30,-9 c 8,-2 15,-4 21,-5 -4,-1 -8,-2 -13,-3 l -38,-9 0,-8 60,16 0,8 -45,13 c -4,1 -6,2 -7,2 3,1 5,1 7,2 l 45,13 0,8 z"
     class="fil1" /><path
     style="fill:#000000;fill-rule:nonzero"
     inkscape:connector-curvature="0"
     d="m 1344.491,3663.6241 7,0 0,40 c -2,0 -3,0 -5,-1 -3,-1 -5,-3 -8,-5 -3,-2 -6,-5 -9,-10 -5,-6 -10,-11 -13,-13 -3,-2 -6,-3 -9,-3 -3,0 -5,1 -7,3 -2,2 -3,5 -3,8 0,4 1,6 3,9 2,2 5,3 9,3 l -1,8 c -6,-1 -10,-2 -13,-6 -3,-3 -4,-8 -4,-14 0,-6 2,-10 5,-14 3,-3 7,-5 12,-5 2,0 5,0 7,1 2,1 5,3 7,5 3,2 6,6 11,11 4,4 6,7 8,8 1,1 3,2 4,3 l 0,-29 z"
     class="fil1"
     id="path179" /><path
     style="fill:#000000;fill-rule:nonzero"
     inkscape:connector-curvature="0"
     d="m 1430.491,3749.6241 -7,0 0,-25 22,0 c 3,4 5,8 7,12 2,4 2,8 2,13 0,6 -1,11 -4,16 -3,5 -6,8 -11,11 -5,2 -10,4 -16,4 -6,0 -11,-1 -16,-4 -5,-2 -9,-6 -11,-10 -2,-5 -4,-10 -4,-16 0,-4 1,-8 2,-12 1,-3 3,-6 6,-8 2,-2 6,-3 10,-5 l 2,7 c -3,1 -5,2 -7,3 -2,1 -3,3 -4,6 -1,2 -2,5 -2,8 0,4 1,7 2,9 1,3 3,5 4,6 2,2 4,3 6,4 4,2 8,2 12,2 5,0 10,-1 13,-3 4,-2 6,-5 8,-8 2,-4 3,-7 3,-11 0,-3 -1,-7 -2,-10 -1,-3 -3,-6 -4,-7 l -11,0 0,18 z"
     class="fil1"
     id="path181" /><polygon
     style="fill:#000000;fill-rule:nonzero"
     points="11562,12585 11562,12593 11515,12624 11562,12624 11562,12632 11502,12632 11502,12624 11549,12592 11502,12592 11502,12585 "
     class="fil1"
     id="polygon183"
     transform="translate(-10107.509,-8918.3759)" /><path
     style="fill:#000000;fill-rule:nonzero"
     inkscape:connector-curvature="0"
     d="m 1454.491,3652.6241 -60,0 0,-21 c 0,-5 0,-8 1,-11 1,-3 2,-6 4,-9 3,-3 6,-6 10,-7 4,-2 9,-2 14,-2 5,0 9,1 12,2 4,1 6,2 9,4 2,2 4,3 5,5 1,2 2,4 3,7 1,3 1,6 1,10 l 0,22 z m -7,-8 0,-13 c 0,-4 0,-7 -1,-9 -1,-2 -2,-4 -3,-5 -2,-2 -4,-3 -8,-4 -3,-1 -7,-2 -12,-2 -6,0 -11,1 -14,3 -3,2 -6,5 -7,7 -1,2 -1,6 -1,10 l 0,13 46,0 z"
     class="fil1"
     id="path185" /><path
     style="fill:#000000;fill-rule:nonzero"
     inkscape:connector-curvature="0"
     d="m 1556.491,3767.6241 -60,16 0,-8 39,-9 c 4,-1 8,-2 12,-3 -6,-2 -10,-2 -11,-3 l -40,-11 0,-10 30,-9 c 8,-2 15,-4 21,-5 -4,-1 -8,-2 -13,-3 l -38,-9 0,-8 60,16 0,8 -45,13 c -4,1 -6,2 -7,2 3,1 5,1 7,2 l 45,13 0,8 z"
     class="fil1"
     id="path187" /><path
     style="fill:#000000;fill-rule:nonzero"
     inkscape:connector-curvature="0"
     d="m 1556.491,3674.6241 0,7 -47,0 c 2,2 3,4 5,7 2,3 3,5 4,8 l -7,0 c -2,-4 -4,-8 -7,-11 -3,-3 -5,-5 -8,-7 l 0,-5 60,0 z"
     class="fil1"
     id="path189" /><path
     style="fill:#000000;fill-rule:nonzero"
     inkscape:connector-curvature="0"
     d="m 1635.491,3749.6241 -7,0 0,-25 22,0 c 3,4 5,8 7,12 2,4 2,8 2,13 0,6 -1,11 -4,16 -3,5 -6,8 -11,11 -5,2 -10,4 -16,4 -6,0 -11,-1 -16,-4 -5,-2 -9,-6 -11,-10 -2,-5 -4,-10 -4,-16 0,-4 1,-8 2,-12 1,-3 3,-6 6,-8 2,-2 6,-3 10,-5 l 2,7 c -3,1 -5,2 -7,3 -2,1 -3,3 -4,6 -1,2 -2,5 -2,8 0,4 1,7 2,9 1,3 3,5 4,6 2,2 4,3 6,4 4,2 8,2 12,2 5,0 10,-1 13,-3 4,-2 6,-5 8,-8 2,-4 3,-7 3,-11 0,-3 -1,-7 -2,-10 -1,-3 -3,-6 -4,-7 l -11,0 0,18 z"
     class="fil1"
     id="path191" /><polygon
     style="fill:#000000;fill-rule:nonzero"
     points="11767,12585 11767,12593 11720,12624 11767,12624 11767,12632 11707,12632 11707,12624 11754,12592 11707,12592 11707,12585 "
     class="fil1"
     id="polygon193"
     transform="translate(-10107.509,-8918.3759)" /><path
     style="fill:#000000;fill-rule:nonzero"
     inkscape:connector-curvature="0"
     d="m 1659.491,3652.6241 -60,0 0,-21 c 0,-5 0,-8 1,-11 1,-3 2,-6 4,-9 3,-3 6,-6 10,-7 4,-2 9,-2 14,-2 5,0 9,1 12,2 4,1 6,2 9,4 2,2 4,3 5,5 1,2 2,4 3,7 1,3 1,6 1,10 l 0,22 z m -7,-8 0,-13 c 0,-4 0,-7 -1,-9 -1,-2 -2,-4 -3,-5 -2,-2 -4,-3 -8,-4 -3,-1 -7,-2 -12,-2 -6,0 -11,1 -14,3 -3,2 -6,5 -7,7 -1,2 -1,6 -1,10 l 0,13 46,0 z"
     class="fil1"
     id="path195" /><path
     style="fill:#000000;fill-rule:nonzero"
     inkscape:connector-curvature="0"
     d="m 1761.491,3777.6241 -60,0 0,-23 c 0,-4 0,-7 1,-9 0,-3 1,-5 3,-7 1,-2 3,-4 6,-5 2,-1 5,-2 8,-2 5,0 9,2 13,5 4,3 5,9 5,18 l 0,15 24,0 0,8 z m -31,-8 0,-15 c 0,-5 -1,-9 -3,-11 -2,-2 -5,-3 -8,-3 -2,0 -5,1 -6,2 -2,1 -3,3 -4,5 0,1 -1,4 -1,7 l 0,15 21,0 z"
     class="fil1"
     id="path197" /><path
     style="fill:#000000;fill-rule:nonzero"
     inkscape:connector-curvature="0"
     d="m 1740.491,3679.6241 2,-8 c 6,2 11,5 15,9 3,4 5,10 5,16 0,6 -1,12 -4,16 -3,4 -6,7 -11,9 -5,2 -10,3 -16,3 -6,0 -12,-1 -16,-4 -5,-2 -8,-6 -11,-10 -2,-4 -4,-9 -4,-14 0,-6 2,-11 5,-15 3,-4 7,-7 13,-9 l 2,8 c -4,1 -8,3 -9,6 -2,3 -3,6 -3,10 0,5 1,8 3,11 2,3 5,5 9,6 4,1 8,2 11,2 5,0 10,-1 13,-2 4,-1 7,-4 8,-7 2,-3 3,-6 3,-10 0,-4 -1,-8 -4,-11 -3,-3 -6,-5 -11,-6 z"
     class="fil1"
     id="path199" /><path
     style="fill:#000000;fill-rule:nonzero"
     inkscape:connector-curvature="0"
     d="m 1742.491,3664.6241 -1,-7 c 3,0 5,-1 7,-2 2,-1 3,-3 5,-6 1,-3 2,-6 2,-9 0,-3 0,-6 -1,-8 -1,-2 -2,-4 -4,-5 -2,-1 -3,-2 -5,-2 -2,0 -3,1 -5,2 -1,1 -3,3 -4,5 -1,2 -2,5 -3,11 -1,5 -3,9 -4,12 -2,3 -3,5 -6,6 -2,1 -5,2 -7,2 -3,0 -6,-1 -8,-3 -3,-2 -5,-4 -6,-7 -1,-3 -2,-7 -2,-11 0,-4 1,-8 2,-12 1,-3 4,-6 6,-8 3,-2 6,-3 9,-3 l 1,8 c -4,0 -7,2 -9,4 -2,2 -3,6 -3,10 0,5 1,8 3,10 2,2 4,3 6,3 2,0 4,-1 5,-2 1,-2 3,-5 4,-12 1,-6 3,-11 4,-13 2,-3 4,-6 6,-8 2,-2 5,-2 8,-2 3,0 6,1 9,3 3,2 5,4 7,8 2,3 2,7 2,11 0,5 -1,10 -2,14 -2,4 -4,7 -7,9 -3,2 -7,3 -11,3 z"
     class="fil1"
     id="path201" /><path
     style="fill:#000000;fill-rule:nonzero"
     inkscape:connector-curvature="0"
     d="m 1863.491,3777.6241 -60,0 0,-23 c 0,-4 0,-7 1,-9 0,-3 1,-5 3,-7 1,-2 3,-4 6,-5 2,-1 5,-2 8,-2 5,0 9,2 13,5 4,3 5,9 5,18 l 0,15 24,0 0,8 z m -31,-8 0,-15 c 0,-5 -1,-9 -3,-11 -2,-2 -5,-3 -8,-3 -2,0 -5,1 -6,2 -2,1 -3,3 -4,5 0,1 -1,4 -1,7 l 0,15 21,0 z"
     class="fil1"
     id="path203" /><path
     style="fill:#000000;fill-rule:nonzero"
     inkscape:connector-curvature="0"
     d="m 1863.491,3705.6241 -60,23 0,-9 43,-16 c 3,-1 7,-2 10,-3 -3,-1 -7,-2 -10,-3 l -43,-16 0,-8 60,23 0,8 z"
     class="fil1"
     id="path205" /><path
     style="fill:#000000;fill-rule:nonzero"
     inkscape:connector-curvature="0"
     d="m 1848.491,3669.6241 -1,-7 c 4,-1 7,-2 9,-4 2,-2 3,-4 3,-7 0,-3 -1,-6 -4,-9 -2,-2 -5,-4 -9,-4 -3,0 -6,1 -8,3 -2,2 -3,5 -3,8 0,1 0,3 1,5 l -6,-1 c 0,0 0,-1 0,-1 0,-3 -1,-6 -2,-8 -2,-3 -4,-4 -8,-4 -3,0 -5,1 -7,3 -2,2 -3,4 -3,7 0,3 1,5 3,7 2,2 5,3 8,4 l -1,7 c -5,-1 -9,-3 -11,-6 -3,-3 -4,-7 -4,-12 0,-3 1,-6 2,-9 1,-3 3,-5 6,-6 2,-1 5,-2 8,-2 3,0 5,1 7,2 2,1 4,3 5,6 1,-4 3,-6 5,-8 3,-2 6,-3 10,-3 5,0 10,2 13,6 4,4 5,9 5,14 0,5 -2,10 -5,13 -3,3 -7,5 -12,6 z"
     class="fil1"
     id="path207" /><path
     style="fill:#000000;fill-rule:nonzero"
     inkscape:connector-curvature="0"
     d="m 1966.491,3777.6241 -60,0 0,-23 c 0,-4 0,-7 1,-9 0,-3 1,-5 3,-7 1,-2 3,-4 6,-5 2,-1 5,-2 8,-2 5,0 9,2 13,5 4,3 5,9 5,18 l 0,15 24,0 0,8 z m -31,-8 0,-15 c 0,-5 -1,-9 -3,-11 -2,-2 -5,-3 -8,-3 -2,0 -5,1 -6,2 -2,1 -3,3 -4,5 0,1 -1,4 -1,7 l 0,15 21,0 z"
     class="fil1"
     id="path209" /><path
     style="fill:#000000;fill-rule:nonzero"
     inkscape:connector-curvature="0"
     d="m 1966.491,3705.6241 -60,23 0,-9 43,-16 c 3,-1 7,-2 10,-3 -3,-1 -7,-2 -10,-3 l -43,-16 0,-8 60,23 0,8 z"
     class="fil1"
     id="path211" /><path
     style="fill:#000000;fill-rule:nonzero"
     inkscape:connector-curvature="0"
     d="m 1959.491,3631.6241 7,0 0,40 c -2,0 -3,0 -5,-1 -3,-1 -5,-3 -8,-5 -3,-2 -6,-5 -9,-10 -5,-6 -10,-11 -13,-13 -3,-2 -6,-3 -9,-3 -3,0 -5,1 -7,3 -2,2 -3,5 -3,8 0,4 1,6 3,9 2,2 5,3 9,3 l -1,8 c -6,-1 -10,-2 -13,-6 -3,-3 -4,-8 -4,-14 0,-6 2,-10 5,-14 3,-3 7,-5 12,-5 2,0 5,0 7,1 2,1 5,3 7,5 3,2 6,6 11,11 4,4 6,7 8,8 1,1 3,2 4,3 l 0,-29 z"
     class="fil1"
     id="path213" /><path
     style="fill:#000000;fill-rule:nonzero"
     inkscape:connector-curvature="0"
     d="m 2068.491,3777.6241 -60,0 0,-23 c 0,-4 0,-7 1,-9 0,-3 1,-5 3,-7 1,-2 3,-4 6,-5 2,-1 5,-2 8,-2 5,0 9,2 13,5 4,3 5,9 5,18 l 0,15 24,0 0,8 z m -31,-8 0,-15 c 0,-5 -1,-9 -3,-11 -2,-2 -5,-3 -8,-3 -2,0 -5,1 -6,2 -2,1 -3,3 -4,5 0,1 -1,4 -1,7 l 0,15 21,0 z"
     class="fil1"
     id="path215" /><path
     style="fill:#000000;fill-rule:nonzero"
     inkscape:connector-curvature="0"
     d="m 2068.491,3705.6241 -60,23 0,-9 43,-16 c 3,-1 7,-2 10,-3 -3,-1 -7,-2 -10,-3 l -43,-16 0,-8 60,23 0,8 z"
     class="fil1"
     id="path217" /><path
     style="fill:#000000;fill-rule:nonzero"
     inkscape:connector-curvature="0"
     d="m 2068.491,3642.6241 0,7 -47,0 c 2,2 3,4 5,7 2,3 3,5 4,8 l -7,0 c -2,-4 -4,-8 -7,-11 -3,-3 -5,-5 -8,-7 l 0,-5 60,0 z"
     class="fil1"
     id="path219" /><path
     style="fill:#000000;fill-rule:nonzero"
     inkscape:connector-curvature="0"
     id="path221"
     d="m 2244.491,3789.6241 -60,-23 0,-9 60,-24 0,9 -18,7 0,25 18,6 0,8 z m -25,-17 0,-20 -17,6 c -5,2 -9,3 -12,4 4,1 8,2 11,3 l 18,7 z"
     class="fil1" /><path
     style="fill:#000000;fill-rule:nonzero"
     inkscape:connector-curvature="0"
     d="m 2223.491,3684.6241 2,-8 c 6,2 11,5 15,9 3,4 5,10 5,16 0,6 -1,12 -4,16 -3,4 -6,7 -11,9 -5,2 -10,3 -16,3 -6,0 -12,-1 -16,-4 -5,-2 -8,-6 -11,-10 -2,-4 -4,-9 -4,-14 0,-6 2,-11 5,-15 3,-4 7,-7 13,-9 l 2,8 c -4,1 -8,3 -9,6 -2,3 -3,6 -3,10 0,5 1,8 3,11 2,3 5,5 9,6 4,1 8,2 11,2 5,0 10,-1 13,-2 4,-1 7,-4 8,-7 2,-3 3,-6 3,-10 0,-4 -1,-8 -4,-11 -3,-3 -6,-5 -11,-6 z"
     class="fil1"
     id="path223" /><path
     style="fill:#000000;fill-rule:nonzero"
     inkscape:connector-curvature="0"
     d="m 2244.491,3642.6241 0,7 -47,0 c 2,2 3,4 5,7 2,3 3,5 4,8 l -7,0 c -2,-4 -4,-8 -7,-11 -3,-3 -5,-5 -8,-7 l 0,-5 60,0 z"
     class="fil1"
     id="path225" /><path
     style="fill:#000000;fill-rule:nonzero"
     inkscape:connector-curvature="0"
     d="m 2323.491,3754.6241 -7,0 0,-25 22,0 c 3,4 5,8 7,12 2,4 2,8 2,13 0,6 -1,11 -4,16 -3,5 -6,8 -11,11 -5,2 -10,4 -16,4 -6,0 -11,-1 -16,-4 -5,-2 -9,-6 -11,-10 -2,-5 -4,-10 -4,-16 0,-4 1,-8 2,-12 1,-3 3,-6 6,-8 2,-2 6,-3 10,-5 l 2,7 c -3,1 -5,2 -7,3 -2,1 -3,3 -4,6 -1,2 -2,5 -2,8 0,4 1,7 2,9 1,3 3,5 4,6 2,2 4,3 6,4 4,2 8,2 12,2 5,0 10,-1 13,-3 4,-2 6,-5 8,-8 2,-4 3,-7 3,-11 0,-3 -1,-7 -2,-10 -1,-3 -3,-6 -4,-7 l -11,0 0,18 z"
     class="fil1"
     id="path227" /><polygon
     style="fill:#000000;fill-rule:nonzero"
     points="12454,12590 12454,12598 12407,12629 12454,12629 12454,12637 12394,12637 12394,12628 12441,12597 12394,12597 12394,12590 "
     class="fil1"
     id="polygon229"
     transform="translate(-10107.509,-8918.3759)" /><path
     style="fill:#000000;fill-rule:nonzero"
     inkscape:connector-curvature="0"
     d="m 2346.491,3657.6241 -60,0 0,-21 c 0,-5 0,-8 1,-11 1,-3 2,-6 4,-9 3,-3 6,-6 10,-7 4,-2 9,-2 14,-2 5,0 9,1 12,2 4,1 6,2 9,4 2,2 4,3 5,5 1,2 2,4 3,7 1,3 1,6 1,10 l 0,22 z m -7,-8 0,-13 c 0,-4 0,-7 -1,-9 -1,-2 -2,-4 -3,-5 -2,-2 -4,-3 -8,-4 -3,-1 -7,-2 -12,-2 -6,0 -11,1 -14,3 -3,2 -6,5 -7,7 -1,2 -1,6 -1,10 l 0,13 46,0 z"
     class="fil1"
     id="path231" /><path
     style="fill:#000000;fill-rule:nonzero"
     inkscape:connector-curvature="0"
     d="m 2428.491,3740.6241 2,-8 c 6,2 11,5 15,9 3,4 5,10 5,16 0,6 -1,12 -4,16 -3,4 -6,7 -11,9 -5,2 -10,3 -16,3 -6,0 -12,-1 -16,-4 -5,-2 -8,-6 -11,-10 -2,-4 -4,-9 -4,-14 0,-6 2,-11 5,-15 3,-4 7,-7 13,-9 l 2,8 c -4,1 -8,3 -9,6 -2,3 -3,6 -3,10 0,5 1,8 3,11 2,3 5,5 9,6 4,1 8,2 11,2 5,0 10,-1 13,-2 4,-1 7,-4 8,-7 2,-3 3,-6 3,-10 0,-4 -1,-8 -4,-11 -3,-3 -6,-5 -11,-6 z"
     class="fil1"
     id="path233" /><polygon
     style="fill:#000000;fill-rule:nonzero"
     points="12497,12594 12556,12594 12556,12602 12528,12602 12528,12633 12556,12633 12556,12641 12497,12641 12497,12633 12521,12633 12521,12602 12497,12602 "
     class="fil1"
     id="polygon235"
     transform="translate(-10107.509,-8918.3759)" /><path
     style="fill:#000000;fill-rule:nonzero"
     inkscape:connector-curvature="0"
     d="m 2448.491,3637.6241 0,7 -47,0 c 2,2 3,4 5,7 2,3 3,5 4,8 l -7,0 c -2,-4 -4,-8 -7,-11 -3,-3 -5,-5 -8,-7 l 0,-5 60,0 z"
     class="fil1"
     id="path237" /><path
     style="fill:#000000;fill-rule:nonzero"
     inkscape:connector-curvature="0"
     d="m 2527.491,3754.6241 -7,0 0,-25 22,0 c 3,4 5,8 7,12 2,4 2,8 2,13 0,6 -1,11 -4,16 -3,5 -6,8 -11,11 -5,2 -10,4 -16,4 -6,0 -11,-1 -16,-4 -5,-2 -9,-6 -11,-10 -2,-5 -4,-10 -4,-16 0,-4 1,-8 2,-12 1,-3 3,-6 6,-8 2,-2 6,-3 10,-5 l 2,7 c -3,1 -5,2 -7,3 -2,1 -3,3 -4,6 -1,2 -2,5 -2,8 0,4 1,7 2,9 1,3 3,5 4,6 2,2 4,3 6,4 4,2 8,2 12,2 5,0 10,-1 13,-3 4,-2 6,-5 8,-8 2,-4 3,-7 3,-11 0,-3 -1,-7 -2,-10 -1,-3 -3,-6 -4,-7 l -11,0 0,18 z"
     class="fil1"
     id="path239" /><polygon
     style="fill:#000000;fill-rule:nonzero"
     points="12659,12590 12659,12598 12612,12629 12659,12629 12659,12637 12599,12637 12599,12628 12646,12597 12599,12597 12599,12590 "
     class="fil1"
     id="polygon241"
     transform="translate(-10107.509,-8918.3759)" /><path
     style="fill:#000000;fill-rule:nonzero"
     inkscape:connector-curvature="0"
     d="m 2551.491,3657.6241 -60,0 0,-21 c 0,-5 0,-8 1,-11 1,-3 2,-6 4,-9 3,-3 6,-6 10,-7 4,-2 9,-2 14,-2 5,0 9,1 12,2 4,1 6,2 9,4 2,2 4,3 5,5 1,2 2,4 3,7 1,3 1,6 1,10 l 0,22 z m -7,-8 0,-13 c 0,-4 0,-7 -1,-9 -1,-2 -2,-4 -3,-5 -2,-2 -4,-3 -8,-4 -3,-1 -7,-2 -12,-2 -6,0 -11,1 -14,3 -3,2 -6,5 -7,7 -1,2 -1,6 -1,10 l 0,13 46,0 z"
     class="fil1"
     id="path243" /><path
     style="fill:#000000;fill-rule:nonzero"
     inkscape:connector-curvature="0"
     d="m 2632.491,3740.6241 2,-8 c 6,2 11,5 15,9 3,4 5,10 5,16 0,6 -1,12 -4,16 -3,4 -6,7 -11,9 -5,2 -10,3 -16,3 -6,0 -12,-1 -16,-4 -5,-2 -8,-6 -11,-10 -2,-4 -4,-9 -4,-14 0,-6 2,-11 5,-15 3,-4 7,-7 13,-9 l 2,8 c -4,1 -8,3 -9,6 -2,3 -3,6 -3,10 0,5 1,8 3,11 2,3 5,5 9,6 4,1 8,2 11,2 5,0 10,-1 13,-2 4,-1 7,-4 8,-7 2,-3 3,-6 3,-10 0,-4 -1,-8 -4,-11 -3,-3 -6,-5 -11,-6 z"
     class="fil1"
     id="path245" /><polygon
     style="fill:#000000;fill-rule:nonzero"
     points="12702,12594 12761,12594 12761,12602 12733,12602 12733,12633 12761,12633 12761,12641 12702,12641 12702,12633 12726,12633 12726,12602 12702,12602 "
     class="fil1"
     id="polygon247"
     transform="translate(-10107.509,-8918.3759)" /><path
     style="fill:#000000;fill-rule:nonzero"
     inkscape:connector-curvature="0"
     d="m 2646.491,3626.6241 7,0 0,40 c -2,0 -3,0 -5,-1 -3,-1 -5,-3 -8,-5 -3,-2 -6,-5 -9,-10 -5,-6 -10,-11 -13,-13 -3,-2 -6,-3 -9,-3 -3,0 -5,1 -7,3 -2,2 -3,5 -3,8 0,4 1,6 3,9 2,2 5,3 9,3 l -1,8 c -6,-1 -10,-2 -13,-6 -3,-3 -4,-8 -4,-14 0,-6 2,-10 5,-14 3,-3 7,-5 12,-5 2,0 5,0 7,1 2,1 5,3 7,5 3,2 6,6 11,11 4,4 6,7 8,8 1,1 3,2 4,3 l 0,-29 z"
     class="fil1"
     id="path249" /><path
     style="fill:#000000;fill-rule:nonzero"
     inkscape:connector-curvature="0"
     d="m 2732.491,3754.6241 -7,0 0,-25 22,0 c 3,4 5,8 7,12 2,4 2,8 2,13 0,6 -1,11 -4,16 -3,5 -6,8 -11,11 -5,2 -10,4 -16,4 -6,0 -11,-1 -16,-4 -5,-2 -9,-6 -11,-10 -2,-5 -4,-10 -4,-16 0,-4 1,-8 2,-12 1,-3 3,-6 6,-8 2,-2 6,-3 10,-5 l 2,7 c -3,1 -5,2 -7,3 -2,1 -3,3 -4,6 -1,2 -2,5 -2,8 0,4 1,7 2,9 1,3 3,5 4,6 2,2 4,3 6,4 4,2 8,2 12,2 5,0 10,-1 13,-3 4,-2 6,-5 8,-8 2,-4 3,-7 3,-11 0,-3 -1,-7 -2,-10 -1,-3 -3,-6 -4,-7 l -11,0 0,18 z"
     class="fil1"
     id="path251" /><polygon
     style="fill:#000000;fill-rule:nonzero"
     points="12864,12590 12864,12598 12817,12629 12864,12629 12864,12637 12804,12637 12804,12628 12851,12597 12804,12597 12804,12590 "
     class="fil1"
     id="polygon253"
     transform="translate(-10107.509,-8918.3759)" /><path
     style="fill:#000000;fill-rule:nonzero"
     inkscape:connector-curvature="0"
     d="m 2756.491,3657.6241 -60,0 0,-21 c 0,-5 0,-8 1,-11 1,-3 2,-6 4,-9 3,-3 6,-6 10,-7 4,-2 9,-2 14,-2 5,0 9,1 12,2 4,1 6,2 9,4 2,2 4,3 5,5 1,2 2,4 3,7 1,3 1,6 1,10 l 0,22 z m -7,-8 0,-13 c 0,-4 0,-7 -1,-9 -1,-2 -2,-4 -3,-5 -2,-2 -4,-3 -8,-4 -3,-1 -7,-2 -12,-2 -6,0 -11,1 -14,3 -3,2 -6,5 -7,7 -1,2 -1,6 -1,10 l 0,13 46,0 z"
     class="fil1"
     id="path255" /><path
     style="fill:#000000;fill-rule:nonzero"
     inkscape:connector-curvature="0"
     d="m 2837.491,3740.6241 2,-8 c 6,2 11,5 15,9 3,4 5,10 5,16 0,6 -1,12 -4,16 -3,4 -6,7 -11,9 -5,2 -10,3 -16,3 -6,0 -12,-1 -16,-4 -5,-2 -8,-6 -11,-10 -2,-4 -4,-9 -4,-14 0,-6 2,-11 5,-15 3,-4 7,-7 13,-9 l 2,8 c -4,1 -8,3 -9,6 -2,3 -3,6 -3,10 0,5 1,8 3,11 2,3 5,5 9,6 4,1 8,2 11,2 5,0 10,-1 13,-2 4,-1 7,-4 8,-7 2,-3 3,-6 3,-10 0,-4 -1,-8 -4,-11 -3,-3 -6,-5 -11,-6 z"
     class="fil1"
     id="path257" /><polygon
     style="fill:#000000;fill-rule:nonzero"
     points="12906,12594 12966,12594 12966,12602 12938,12602 12938,12633 12966,12633 12966,12641 12906,12641 12906,12633 12931,12633 12931,12602 12906,12602 "
     class="fil1"
     id="polygon259"
     transform="translate(-10107.509,-8918.3759)" /><path
     style="fill:#000000;fill-rule:nonzero"
     inkscape:connector-curvature="0"
     d="m 2842.491,3665.6241 -1,-7 c 4,-1 7,-2 9,-4 2,-2 3,-4 3,-7 0,-3 -1,-6 -4,-9 -2,-2 -5,-4 -9,-4 -3,0 -6,1 -8,3 -2,2 -3,5 -3,8 0,1 0,3 1,5 l -6,-1 c 0,0 0,-1 0,-1 0,-3 -1,-6 -2,-8 -2,-3 -4,-4 -8,-4 -3,0 -5,1 -7,3 -2,2 -3,4 -3,7 0,3 1,5 3,7 2,2 5,3 8,4 l -1,7 c -5,-1 -9,-3 -11,-6 -3,-3 -4,-7 -4,-12 0,-3 1,-6 2,-9 1,-3 3,-5 6,-6 2,-1 5,-2 8,-2 3,0 5,1 7,2 2,1 4,3 5,6 1,-4 3,-6 5,-8 3,-2 6,-3 10,-3 5,0 10,2 13,6 4,4 5,9 5,14 0,5 -2,10 -5,13 -3,3 -7,5 -12,6 z"
     class="fil1"
     id="path261" /><path
     style="fill:#000000;fill-rule:nonzero"
     inkscape:connector-curvature="0"
     d="m 2937.491,3754.6241 -7,0 0,-25 22,0 c 3,4 5,8 7,12 2,4 2,8 2,13 0,6 -1,11 -4,16 -3,5 -6,8 -11,11 -5,2 -10,4 -16,4 -6,0 -11,-1 -16,-4 -5,-2 -9,-6 -11,-10 -2,-5 -4,-10 -4,-16 0,-4 1,-8 2,-12 1,-3 3,-6 6,-8 2,-2 6,-3 10,-5 l 2,7 c -3,1 -5,2 -7,3 -2,1 -3,3 -4,6 -1,2 -2,5 -2,8 0,4 1,7 2,9 1,3 3,5 4,6 2,2 4,3 6,4 4,2 8,2 12,2 5,0 10,-1 13,-3 4,-2 6,-5 8,-8 2,-4 3,-7 3,-11 0,-3 -1,-7 -2,-10 -1,-3 -3,-6 -4,-7 l -11,0 0,18 z"
     class="fil1"
     id="path263" /><polygon
     style="fill:#000000;fill-rule:nonzero"
     points="13069,12590 13069,12598 13022,12629 13069,12629 13069,12637 13009,12637 13009,12628 13056,12597 13009,12597 13009,12590 "
     class="fil1"
     id="polygon265"
     transform="translate(-10107.509,-8918.3759)" /><path
     style="fill:#000000;fill-rule:nonzero"
     inkscape:connector-curvature="0"
     d="m 2961.491,3657.6241 -60,0 0,-21 c 0,-5 0,-8 1,-11 1,-3 2,-6 4,-9 3,-3 6,-6 10,-7 4,-2 9,-2 14,-2 5,0 9,1 12,2 4,1 6,2 9,4 2,2 4,3 5,5 1,2 2,4 3,7 1,3 1,6 1,10 l 0,22 z m -7,-8 0,-13 c 0,-4 0,-7 -1,-9 -1,-2 -2,-4 -3,-5 -2,-2 -4,-3 -8,-4 -3,-1 -7,-2 -12,-2 -6,0 -11,1 -14,3 -3,2 -6,5 -7,7 -1,2 -1,6 -1,10 l 0,13 46,0 z"
     class="fil1"
     id="path267" /><path
     style="fill:#000000;fill-rule:nonzero"
     inkscape:connector-curvature="0"
     id="path269"
     d="m 1767.491,1126.6241 20,-2 c 1,8 3,15 7,20 3,5 9,9 16,12 7,3 15,5 24,5 8,0 15,-1 21,-4 6,-2 11,-6 14,-10 3,-4 5,-9 5,-14 0,-5 -1,-9 -4,-13 -3,-4 -8,-7 -14,-9 -4,-2 -14,-4 -28,-8 -15,-4 -25,-7 -31,-10 -8,-4 -13,-9 -17,-15 -4,-6 -6,-13 -6,-20 0,-8 2,-16 7,-23 5,-7 11,-12 20,-16 9,-4 18,-5 29,-5 12,0 22,2 31,6 9,4 16,9 21,17 5,7 7,16 8,25 l -20,2 c -1,-10 -5,-18 -11,-23 -6,-5 -16,-8 -28,-8 -13,0 -22,2 -28,7 -6,5 -9,10 -9,17 0,6 2,10 6,14 4,4 15,7 32,11 17,4 29,7 35,10 9,4 16,10 20,16 4,7 7,14 7,23 0,8 -2,16 -7,24 -5,7 -12,13 -21,17 -9,4 -19,6 -31,6 -14,0 -26,-2 -36,-6 -10,-4 -17,-10 -23,-19 -6,-8 -8,-18 -9,-29 z"
     class="fil1" /><polygon
     style="fill:#000000;fill-rule:nonzero"
     points="12140,10004 12140,10023 12052,10023 12052,10077 12150,10077 12150,10096 12031,10096 12031,9937 12146,9937 12146,9955 12052,9955 12052,10004 "
     class="fil1"
     id="polygon271"
     transform="translate(-10107.509,-8918.3759)" /><polygon
     style="fill:#000000;fill-rule:nonzero"
     points="12288,10004 12288,10023 12200,10023 12200,10077 12298,10077 12298,10096 12179,10096 12179,9937 12294,9937 12294,9955 12200,9955 12200,10004 "
     class="fil1"
     id="polygon273"
     transform="translate(-10107.509,-8918.3759)" /><polygon
     style="fill:#000000;fill-rule:nonzero"
     points="12326,10096 12326,9937 12347,9937 12347,10077 12425,10077 12425,10096 "
     class="fil1"
     id="polygon275"
     transform="translate(-10107.509,-8918.3759)" /><path
     style="fill:#000000;fill-rule:nonzero"
     inkscape:connector-curvature="0"
     d="m 2415.491,1162.6241 c -7,6 -14,11 -21,13 -7,3 -14,4 -22,4 -13,0 -22,-3 -29,-9 -7,-6 -10,-14 -10,-24 0,-6 1,-11 4,-15 3,-5 6,-8 10,-11 4,-3 9,-5 14,-6 4,-1 10,-2 17,-3 16,-2 27,-4 35,-7 0,-3 0,-4 0,-5 0,-8 -2,-14 -6,-17 -5,-4 -12,-7 -22,-7 -9,0 -16,2 -20,5 -4,3 -8,9 -10,17 l -19,-3 c 2,-8 5,-15 9,-20 4,-5 10,-9 17,-12 8,-3 16,-4 26,-4 10,0 18,1 24,3 6,2 11,5 14,9 3,4 5,8 6,13 1,3 1,9 1,18 l 0,26 c 0,18 0,30 1,34 1,5 2,9 5,14 l -20,0 c -2,-4 -3,-9 -4,-14 z m -2,-43 c -7,3 -18,5 -32,7 -8,1 -14,2 -17,4 -3,1 -6,4 -8,6 -2,3 -3,6 -3,9 0,5 2,9 6,13 4,3 10,5 17,5 8,0 14,-2 20,-5 6,-3 10,-8 13,-13 2,-4 3,-11 3,-19 l 0,-7 z"
     class="fil1"
     id="path277" /><path
     style="fill:#000000;fill-rule:nonzero"
     inkscape:connector-curvature="0"
     d="m 2482.491,1177.6241 -18,0 0,-159 20,0 0,57 c 8,-10 19,-15 32,-15 7,0 14,1 20,4 6,3 12,7 16,12 4,5 7,11 10,19 2,7 3,15 3,23 0,20 -5,35 -15,46 -10,11 -21,16 -35,16 -14,0 -24,-6 -32,-17 l 0,15 z m 0,-59 c 0,14 2,24 6,30 6,10 14,15 25,15 9,0 16,-4 22,-11 6,-7 9,-18 9,-33 0,-15 -3,-26 -9,-33 -6,-7 -13,-11 -22,-11 -9,0 -16,4 -22,11 -6,7 -9,18 -9,32 z"
     class="fil1"
     id="path279" /><polygon
     style="fill:#000000;fill-rule:nonzero"
     points="12714,9937 12714,10096 12695,10096 12695,9937 "
     class="fil1"
     id="polygon281"
     transform="translate(-10107.509,-8918.3759)" /><path
     style="fill:#000000;fill-rule:nonzero"
     inkscape:connector-curvature="0"
     d="m 2715.491,1139.6241 20,3 c -3,12 -9,21 -18,27 -9,6 -20,10 -33,10 -17,0 -30,-5 -40,-16 -10,-10 -15,-25 -15,-44 0,-19 5,-34 15,-45 10,-11 23,-16 39,-16 15,0 28,5 38,16 10,10 15,25 15,44 0,1 0,3 0,5 l -86,0 c 1,13 4,22 11,29 6,7 14,10 24,10 7,0 13,-2 18,-6 5,-4 9,-10 12,-18 z m -64,-31 64,0 c -1,-10 -3,-17 -7,-22 -6,-8 -14,-11 -24,-11 -9,0 -16,3 -23,9 -6,6 -9,14 -10,24 z"
     class="fil1"
     id="path283" /><path
     style="fill:#000000;fill-rule:nonzero"
     inkscape:connector-curvature="0"
     d="m 2803.491,1159.6241 3,17 c -5,1 -10,2 -15,2 -7,0 -13,-1 -16,-3 -4,-2 -7,-5 -8,-9 -2,-4 -2,-11 -2,-23 l 0,-66 -14,0 0,-15 14,0 0,-29 20,-12 0,40 20,0 0,15 -20,0 0,68 c 0,6 0,9 1,11 1,2 2,3 3,4 2,1 4,1 7,1 2,0 5,0 9,-1 z"
     class="fil1"
     id="path285" /><path
     style="fill:#000000;fill-rule:nonzero"
     inkscape:connector-curvature="0"
     id="path287"
     d="m 1986.491,1326.6241 0,-90 34,0 c 6,0 10,0 14,1 4,1 8,2 11,4 3,2 5,5 7,9 2,4 3,8 3,12 0,8 -2,14 -7,19 -5,5 -14,8 -26,8 l -23,0 0,37 -12,0 z m 12,-47 23,0 c 8,0 13,-1 16,-4 3,-3 5,-7 5,-12 0,-4 -1,-7 -3,-10 -2,-3 -4,-4 -7,-5 -2,-1 -6,-1 -11,-1 l -23,0 0,32 z"
     class="fil1" /><path
     style="fill:#000000;fill-rule:nonzero"
     inkscape:connector-curvature="0"
     d="m 2064.491,1293.6241 c 0,-12 3,-21 10,-27 6,-5 12,-7 20,-7 9,0 16,3 22,9 6,6 8,14 8,24 0,8 -1,15 -4,20 -3,5 -6,8 -11,11 -5,3 -10,4 -16,4 -9,0 -16,-3 -22,-9 -6,-6 -8,-14 -8,-25 z m 11,0 c 0,8 2,15 5,19 4,4 8,6 14,6 5,0 10,-2 14,-6 4,-4 5,-10 5,-19 0,-8 -2,-14 -5,-18 -4,-4 -8,-6 -14,-6 -6,0 -10,2 -14,6 -4,4 -5,10 -5,19 z"
     class="fil1"
     id="path289" /><path
     style="fill:#000000;fill-rule:nonzero"
     inkscape:connector-curvature="0"
     d="m 2180.491,1302.6241 11,2 c -1,7 -4,13 -9,17 -5,4 -11,6 -18,6 -9,0 -16,-3 -21,-9 -5,-6 -8,-14 -8,-25 0,-7 1,-13 3,-18 2,-5 6,-9 11,-12 5,-3 10,-4 15,-4 7,0 13,2 17,5 4,4 7,9 9,15 l -11,2 c -1,-4 -3,-8 -5,-10 -3,-2 -6,-3 -9,-3 -6,0 -10,2 -14,6 -3,4 -5,10 -5,19 0,9 2,15 5,19 3,4 8,6 13,6 4,0 8,-1 11,-4 3,-3 5,-7 6,-12 z"
     class="fil1"
     id="path291" /><polygon
     style="fill:#000000;fill-rule:nonzero"
     points="12335,10204 12362,10245 12349,10245 12327,10212 12320,10219 12320,10245 12309,10245 12309,10155 12320,10155 12320,10206 12346,10180 12360,10180 "
     class="fil1"
     id="polygon293"
     transform="translate(-10107.509,-8918.3759)" /><path
     style="fill:#000000;fill-rule:nonzero"
     inkscape:connector-curvature="0"
     d="m 2307.491,1305.6241 11,2 c -2,7 -5,12 -10,15 -5,4 -11,5 -19,5 -9,0 -17,-3 -23,-9 -6,-6 -8,-14 -8,-25 0,-11 3,-19 8,-25 6,-6 13,-9 22,-9 9,0 16,3 21,9 5,6 8,14 8,25 0,1 0,2 0,3 l -48,0 c 0,7 2,13 6,16 4,4 8,6 14,6 4,0 7,-1 10,-3 3,-2 5,-6 7,-10 z m -36,-18 36,0 c 0,-5 -2,-10 -4,-12 -3,-4 -8,-6 -14,-6 -5,0 -9,2 -13,5 -3,3 -5,8 -6,14 z"
     class="fil1"
     id="path295" /><path
     style="fill:#000000;fill-rule:nonzero"
     inkscape:connector-curvature="0"
     d="m 2356.491,1316.6241 2,10 c -3,1 -6,1 -8,1 -4,0 -7,-1 -9,-2 -2,-1 -4,-3 -5,-5 -1,-2 -1,-6 -1,-13 l 0,-37 -8,0 0,-9 8,0 0,-16 11,-7 0,23 11,0 0,9 -11,0 0,38 c 0,3 0,5 1,6 0,1 1,2 2,2 1,1 2,1 4,1 1,0 3,0 5,0 z"
     class="fil1"
     id="path297" /><path
     style="fill:#000000;fill-rule:nonzero"
     inkscape:connector-curvature="0"
     d="m 2429.491,1326.6241 -35,-90 13,0 23,65 c 2,5 3,10 5,15 1,-5 3,-10 5,-15 l 24,-65 12,0 -35,90 -12,0 z"
     class="fil1"
     id="path299" /><path
     style="fill:#000000;fill-rule:nonzero"
     inkscape:connector-curvature="0"
     d="m 2523.491,1305.6241 11,2 c -2,7 -5,12 -10,15 -5,4 -11,5 -19,5 -9,0 -17,-3 -23,-9 -6,-6 -8,-14 -8,-25 0,-11 3,-19 8,-25 6,-6 13,-9 22,-9 9,0 16,3 21,9 5,6 8,14 8,25 0,1 0,2 0,3 l -48,0 c 0,7 2,13 6,16 4,4 8,6 14,6 4,0 7,-1 10,-3 3,-2 5,-6 7,-10 z m -36,-18 36,0 c 0,-5 -2,-10 -4,-12 -3,-4 -8,-6 -14,-6 -5,0 -9,2 -13,5 -3,3 -5,8 -6,14 z"
     class="fil1"
     id="path301" /><path
     style="fill:#000000;fill-rule:nonzero"
     inkscape:connector-curvature="0"
     d="m 2548.491,1326.6241 0,-65 10,0 0,10 c 3,-5 5,-8 7,-9 2,-1 5,-2 7,-2 4,0 7,1 11,3 l -4,10 c -3,-2 -5,-2 -8,-2 -2,0 -5,1 -6,2 -2,1 -3,3 -4,6 -1,4 -2,8 -2,13 l 0,34 -11,0 z"
     class="fil1"
     id="path303" /><path
     style="fill:#000000;fill-rule:nonzero"
     inkscape:connector-curvature="0"
     d="m 2585.491,1307.6241 11,-2 c 1,4 2,8 5,10 3,2 7,3 12,3 5,0 9,-1 11,-3 2,-2 4,-4 4,-7 0,-2 -1,-4 -3,-6 -2,-1 -5,-2 -11,-4 -8,-2 -14,-4 -17,-5 -3,-2 -5,-4 -7,-6 -2,-3 -2,-6 -2,-9 0,-3 1,-6 2,-8 1,-2 3,-5 5,-6 2,-1 4,-2 7,-3 3,-1 6,-1 9,-1 5,0 10,1 13,2 4,1 7,3 9,6 2,3 3,6 4,10 l -11,2 c 0,-3 -2,-6 -4,-8 -2,-2 -6,-3 -10,-3 -5,0 -9,1 -11,3 -2,2 -3,4 -3,6 0,1 0,3 1,4 1,1 2,2 4,3 1,0 4,1 10,3 8,2 13,4 16,5 3,1 6,3 7,6 2,3 3,6 3,9 0,4 -1,7 -3,10 -2,3 -5,6 -9,8 -4,2 -9,3 -14,3 -8,0 -15,-2 -19,-5 -4,-4 -7,-9 -8,-16 z"
     class="fil1"
     id="path305" /><path
     style="fill:#000000;fill-rule:nonzero"
     inkscape:connector-curvature="0"
     d="m 2652.491,1249.6241 0,-13 11,0 0,13 -11,0 z m 0,77 0,-65 11,0 0,65 -11,0 z"
     class="fil1"
     id="path307" /><path
     style="fill:#000000;fill-rule:nonzero"
     inkscape:connector-curvature="0"
     d="m 2676.491,1293.6241 c 0,-12 3,-21 10,-27 6,-5 12,-7 20,-7 9,0 16,3 22,9 6,6 8,14 8,24 0,8 -1,15 -4,20 -3,5 -6,8 -11,11 -5,3 -10,4 -16,4 -9,0 -16,-3 -22,-9 -6,-6 -8,-14 -8,-25 z m 11,0 c 0,8 2,15 5,19 4,4 8,6 14,6 5,0 10,-2 14,-6 4,-4 5,-10 5,-19 0,-8 -2,-14 -5,-18 -4,-4 -8,-6 -14,-6 -6,0 -10,2 -14,6 -4,4 -5,10 -5,19 z"
     class="fil1"
     id="path309" /><path
     style="fill:#000000;fill-rule:nonzero"
     inkscape:connector-curvature="0"
     d="m 2749.491,1326.6241 0,-65 10,0 0,9 c 5,-7 12,-11 21,-11 4,0 8,1 11,2 3,1 6,3 7,6 2,2 3,5 3,8 0,2 1,6 1,11 l 0,40 -11,0 0,-39 c 0,-4 0,-8 -1,-10 -1,-2 -2,-4 -5,-5 -2,-1 -5,-2 -8,-2 -5,0 -9,1 -12,4 -3,3 -5,9 -5,17 l 0,35 -11,0 z"
     class="fil1"
     id="path311" /><polygon
     style="fill:none;stroke:#373435;stroke-width:6.94488001"
     id="polygon313"
     points="11014,12216 11277,12214 11277,12153 "
     class="fil0 str0"
     transform="translate(-10107.509,-8918.3759)" /><path
     style="fill:#373435;fill-rule:nonzero"
     inkscape:connector-curvature="0"
     id="path315"
     d="m 982.491,3451.6241 -24,-90 12,0 13,59 c 1,6 3,12 4,18 2,-10 4,-15 4,-17 l 17,-60 14,0 13,45 c 3,11 5,22 7,32 1,-6 3,-12 5,-19 l 14,-58 12,0 -25,90 -12,0 -19,-68 c -2,-6 -3,-9 -3,-11 -1,4 -2,8 -3,10 l -19,68 -12,0 z"
     class="fil1" /><path
     style="fill:#373435;fill-rule:nonzero"
     inkscape:connector-curvature="0"
     d="m 1122.491,3451.6241 -11,0 0,-70 c -3,3 -6,5 -10,8 -4,3 -8,4 -12,6 l 0,-11 c 6,-3 12,-6 16,-11 5,-4 8,-8 10,-12 l 7,0 0,90 z"
     class="fil1"
     id="path317" /><circle
     style="fill:none;stroke:#373435;stroke-width:6.94488001"
     id="circle319"
     r="59"
     cy="1146.6241"
     cx="1084.491"
     class="fil0 str0" /><circle
     style="fill:none;stroke:#373435;stroke-width:6.94488001"
     id="circle321"
     r="59"
     cy="1146.6241"
     cx="3132.491"
     class="fil0 str0" /><circle
     style="fill:none;stroke:#373435;stroke-width:6.94488001"
     id="circle323"
     r="59"
     cy="3784.624"
     cx="1084.491"
     class="fil0 str0" /><circle
     style="fill:none;stroke:#373435;stroke-width:6.94488001"
     id="circle325"
     r="59"
     cy="3784.624"
     cx="3132.491"
     class="fil0 str0" /><path
     class="fil3 str2"
     d="m 1916.491,3002.6241 c 0,-4 0,-8 0,-12 0,-4 -1,-6 -1,-12 0,-11 1,-15 -2,-24 -4,-3 -12,-2 -15,1 -4,4 -2,10 -3,18 -13,2 -34,-1 -47,1 -24,5 -12,22 -17,30 -3,3 -20,1 -24,1 -30,-3 -31,-5 -60,-17 -18,-8 -45,-32 -55,-48 -32,-49 -39,-107 -13,-161 14,-31 45,-64 75,-79 88,-42 123,-18 195,19 -29,-24 -87,-43 -109,-46 -14,-2 -34,-1 -48,3 -13,3 -25,5 -36,11 -10,5 -22,10 -30,16 -18,12 -35,28 -48,46 -39,54 -48,120 -19,181 18,37 55,77 94,91 3,1 5,2 8,4 l 27,8 c 9,3 37,3 42,5 4,7 -6,28 18,29 12,1 36,-2 46,0 0,5 -1,13 2,16 2,3 26,14 19,-28 0,-4 1,-8 1,-13 0,-5 -1,-7 -1,-13 l 0,-20 c 0,-1 0,-2 0,-3 l 1,-3 0,-1 z"
     id="path328"
     inkscape:connector-curvature="0"
     style="fill:#fefefe;stroke:#373435;stroke-width:7.8740201" /><path
     class="fil3 str2"
     d="m 1786.491,2977.6241 c -19,-31 -20,-62 -15,-97 1,-4 2,-8 3,-13 1,-4 3,-8 4,-12 12,-42 10,-77 -4,-117 -2,-5 -9,-21 -12,-24 -3,-4 -7,0 -11,3 -18,14 -34,26 -46,47 -9,16 -18,33 -22,52 -6,27 -5,69 10,95 7,12 4,10 14,24 12,17 21,24 37,37 9,6 39,22 53,22 0,-5 -8,-12 -11,-16 z"
     id="path330"
     inkscape:connector-curvature="0"
     style="fill:#fefefe;stroke:#373435;stroke-width:7.8740201" /><path
     class="fil3 str0"
     d="m 1936.491,2759.6241 15,3 c 34,5 61,25 68,26 0,-7 -1,-3 -3,-8 -15,-42 -18,-41 -40,-73 -5,-8 -13,-16 -20,-21 -13,-11 -35,-25 -56,-27 -22,-2 -28,-4 -52,6 -12,5 -8,6 -12,8 2,2 -1,1 4,1 10,1 12,-1 31,4 25,6 48,16 68,32 3,2 10,6 11,10 2,5 -1,-1 4,5 1,1 0,0 1,1 -3,-1 -4,-3 -5,-4 -8,-7 -39,-23 -47,-26 -9,-3 -23,-8 -33,-8 -8,0 -12,-1 -19,-2 -4,0 -15,-1 -19,0 l -1,0 c -4,1 -2,24 2,33 18,40 88,37 105,41 z"
     id="path332"
     inkscape:connector-curvature="0"
     style="fill:#fefefe;stroke:#373435;stroke-width:6.94488001" /><path
     class="fil3 str2"
     d="m 1964.491,2993.6241 c 1,-14 -29,-3 -47,-8 -3,-13 4,-27 -4,-31 4,9 2,13 2,24 0,5 1,7 1,12 0,4 0,9 0,12 14,0 47,5 48,-9 z"
     id="path334"
     inkscape:connector-curvature="0"
     style="fill:#fefefe;stroke:#373435;stroke-width:7.8740201" /><path
     class="fil3 str2"
     d="m 1964.491,3043.6241 c 3,-15 -36,-8 -47,-9 l 0,-32 0,1 -1,3 c 0,1 0,2 0,3 l 0,20 c 0,6 1,8 1,13 0,5 0,8 -1,13 19,-8 46,4 48,-10 z"
     id="path336"
     inkscape:connector-curvature="0"
     style="fill:#fefefe;stroke:#373435;stroke-width:7.8740201" /><polygon
     class="fil0 str2"
     points="11957,11582 11945,11590 11979,11596 12009,11604 12039,11622 12053,11632 12058,11638 12020,11618 11988,11607 11950,11604 11937,11608 11936,11611 11938,11631 11948,11649 11961,11659 11982,11668 12007,11673 12030,11676 12062,11681 12091,11690 12127,11706 12112,11668 12098,11644 12076,11614 12058,11598 12030,11582 11997,11576 11972,11577 "
     id="polygon338"
     style="fill:none;stroke:#373435;stroke-width:7.8740201"
     transform="translate(-10107.509,-8918.3759)" /><path
     class="fil1"
     d="m 2050.491,3069.6241 c 0,2 -1,3 -3,3 l -7,0 c -5,-9 -9,-15 -11,-18 -5,-6 -10,-11 -16,-14 l -16,0 0,27 10,0 c 2,0 4,1 4,3 0,2 -1,3 -4,3 l -22,0 c -2,0 -3,-1 -3,-3 0,-2 1,-3 3,-3 l 7,0 0,-61 -7,0 c -2,0 -3,-1 -3,-3 0,-2 1,-3 3,-3 l 31,0 c 6,0 11,2 15,5 5,4 7,9 7,14 0,8 -6,14 -18,18 4,3 9,7 13,13 2,2 5,8 9,15 l 4,0 c 2,0 3,1 3,3 z m -17,-49 c 0,-4 -2,-8 -6,-10 -4,-3 -8,-4 -12,-4 l -19,0 0,29 14,0 c 4,0 7,-1 11,-2 4,-2 7,-4 9,-6 2,-2 2,-4 2,-7 z"
     id="path340"
     inkscape:connector-curvature="0"
     style="fill:#000000;fill-rule:nonzero" /><path
     id="path342"
     class="fil1"
     d="m 2116.491,3063.6241 c 0,1 0,1 -1,2 -2,3 -7,5 -12,6 -5,1 -9,2 -14,2 -9,0 -16,-3 -22,-8 -6,-6 -9,-13 -9,-21 0,-8 3,-14 9,-20 6,-5 12,-8 20,-8 9,0 16,3 21,8 5,6 8,13 8,21 l -52,0 c 1,7 4,12 8,16 5,4 10,6 17,6 9,0 16,-2 22,-7 1,-1 1,-1 2,-1 2,0 2,1 2,3 z m -5,-22 c -1,-6 -4,-10 -8,-14 -4,-4 -10,-5 -15,-5 -6,0 -11,2 -15,5 -4,3 -7,8 -8,14 l 47,0 z"
     inkscape:connector-curvature="0"
     style="fill:#000000;fill-rule:nonzero" /><path
     id="path344"
     class="fil1"
     d="m 2188.491,3057.6241 c 0,6 -3,10 -9,13 -5,2 -10,4 -16,4 -8,0 -15,-2 -20,-6 0,2 0,3 -1,4 0,0 -1,0 -1,0 -2,0 -3,-1 -3,-3 l 0,-11 c 0,-2 1,-3 3,-3 2,0 3,1 3,3 0,4 3,7 8,10 3,1 7,2 11,2 5,0 9,-1 12,-2 5,-2 7,-5 7,-9 0,-6 -7,-10 -19,-12 -5,-1 -9,-1 -11,-2 -4,-1 -7,-3 -9,-6 -2,-2 -2,-4 -2,-7 0,-5 3,-9 8,-11 4,-2 9,-3 14,-3 7,0 13,2 17,5 0,-2 1,-3 3,-3 2,0 3,1 3,3 l 0,9 c 0,2 -1,3 -3,3 -2,0 -2,-1 -3,-3 0,-2 -2,-4 -4,-6 -3,-2 -8,-3 -13,-3 -6,0 -10,1 -13,4 -2,2 -4,4 -4,6 0,2 1,4 4,6 2,1 6,2 11,3 7,1 12,2 15,3 8,3 12,7 12,14 z"
     inkscape:connector-curvature="0"
     style="fill:#000000;fill-rule:nonzero" /><path
     id="path346"
     class="fil1"
     d="m 2266.491,3063.6241 c 0,1 0,1 -1,2 -2,3 -7,5 -12,6 -5,1 -9,2 -14,2 -9,0 -16,-3 -22,-8 -6,-6 -9,-13 -9,-21 0,-8 3,-14 9,-20 6,-5 12,-8 20,-8 9,0 16,3 21,8 5,6 8,13 8,21 l -52,0 c 1,7 4,12 8,16 5,4 10,6 17,6 9,0 16,-2 22,-7 1,-1 1,-1 2,-1 2,0 2,1 2,3 z m -5,-22 c -1,-6 -4,-10 -8,-14 -4,-4 -10,-5 -15,-5 -6,0 -11,2 -15,5 -4,3 -7,8 -8,14 l 47,0 z"
     inkscape:connector-curvature="0"
     style="fill:#000000;fill-rule:nonzero" /><path
     id="path348"
     class="fil1"
     d="m 2344.491,3069.6241 c 0,2 -1,3 -3,3 l -12,0 0,-7 c -7,6 -15,9 -24,9 -5,0 -10,-1 -14,-4 -4,-3 -6,-7 -6,-12 0,-6 3,-11 9,-15 5,-3 11,-4 18,-4 5,0 10,1 17,2 l 0,-8 c 0,-4 -2,-6 -5,-8 -3,-1 -6,-2 -10,-2 -4,0 -10,1 -17,4 -1,0 -2,1 -3,1 -2,0 -2,-1 -2,-3 0,-1 0,-1 1,-2 1,-1 3,-1 7,-2 6,-2 11,-3 14,-3 5,0 10,1 14,4 5,3 7,7 7,12 l 0,34 7,0 c 2,0 4,1 4,3 z m -16,-12 0,-12 c -5,-1 -10,-2 -16,-2 -7,0 -13,2 -17,5 -3,2 -5,5 -5,9 0,4 2,7 5,8 3,2 6,3 10,3 8,0 16,-4 24,-11 z"
     inkscape:connector-curvature="0"
     style="fill:#000000;fill-rule:nonzero" /><path
     id="path350"
     class="fil1"
     d="m 2419.491,3025.6241 c 0,2 -1,3 -3,3 -1,0 -2,-1 -3,-2 -2,-3 -5,-4 -7,-4 -3,0 -8,2 -13,6 -2,2 -6,5 -11,10 l 0,28 23,0 c 2,0 3,1 3,3 0,2 -1,3 -3,3 l -40,0 c -2,0 -3,-1 -3,-3 0,-2 1,-2 3,-2 l 12,0 0,-43 -9,0 c -2,0 -3,-1 -3,-3 0,-2 1,-3 3,-3 l 15,0 0,13 c 5,-4 9,-8 11,-9 5,-3 9,-5 13,-5 2,0 5,1 8,3 3,2 5,4 5,5 z"
     inkscape:connector-curvature="0"
     style="fill:#000000;fill-rule:nonzero" /><path
     id="path352"
     class="fil1"
     d="m 2493.491,3060.6241 c 0,2 -2,4 -6,7 -7,4 -14,7 -22,7 -8,0 -15,-3 -20,-8 -5,-5 -8,-12 -8,-20 0,-8 3,-15 8,-21 5,-5 12,-8 21,-8 8,0 14,2 20,7 l 0,-2 c 0,-2 1,-4 3,-4 2,0 3,1 3,3 l 0,12 c 0,2 -1,3 -3,3 -2,0 -2,-1 -3,-3 0,-4 -3,-7 -8,-9 -4,-2 -8,-3 -12,-3 -7,0 -13,2 -17,7 -4,4 -6,10 -6,17 0,7 2,12 7,17 4,4 10,6 17,6 9,0 17,-3 23,-9 1,-1 2,-1 2,-1 2,0 2,1 2,2 z"
     inkscape:connector-curvature="0"
     style="fill:#000000;fill-rule:nonzero" /><path
     id="path354"
     class="fil1"
     d="m 2570.491,3069.6241 c 0,2 -1,3 -3,3 l -17,0 c -2,0 -3,-1 -3,-3 0,-2 1,-3 4,-3 l 6,0 0,-31 c 0,-4 -2,-7 -5,-10 -3,-2 -6,-3 -11,-3 -4,0 -7,1 -10,3 -2,1 -5,4 -9,9 l 0,32 6,0 c 2,0 3,1 3,3 0,2 -1,3 -3,3 l -17,0 c -2,0 -3,-1 -3,-3 0,-2 1,-3 3,-3 l 6,0 0,-66 -7,0 c -2,0 -3,-1 -3,-3 0,-2 1,-3 3,-3 l 12,0 0,32 c 6,-6 12,-10 19,-10 8,0 13,3 17,9 2,3 3,6 3,9 l 0,32 6,0 c 2,0 3,1 3,3 z"
     inkscape:connector-curvature="0"
     style="fill:#000000;fill-rule:nonzero" /><path
     class="fil1"
     d="m 2013.491,2891.6241 c 3,0 5,0 7,1 2,0 4,1 6,2 2,1 3,1 4,2 1,1 1,2 1,2 0,1 0,3 0,5 0,2 0,5 0,8 l -3,0 c 0,0 0,-1 0,-1 0,0 0,-1 0,-1 0,-1 0,-3 0,-4 0,-1 -1,-2 -2,-4 -1,-1 -2,-2 -3,-3 -1,-1 -2,-2 -4,-2 -1,-1 -3,-1 -4,-1 -2,0 -3,0 -5,0 -3,0 -5,0 -7,1 -2,1 -4,2 -6,4 -2,2 -3,3 -5,5 -1,2 -2,4 -3,7 -1,2 -1,5 -2,8 0,3 -1,5 -1,8 0,3 0,6 1,9 1,3 1,5 2,8 1,2 2,5 4,6 1,2 3,4 5,5 2,1 4,2 6,3 2,1 4,1 6,1 2,0 3,0 5,-1 2,0 3,-1 5,-2 2,-1 3,-2 5,-3 2,-1 3,-2 5,-4 0,0 0,0 1,0 0,0 0,0 1,0 0,0 0,0 0,1 0,0 0,0 0,1 0,0 0,0 0,1 -2,2 -4,4 -6,6 -2,1 -4,3 -6,4 -2,1 -4,2 -6,2 -2,0 -4,1 -6,1 -3,0 -5,0 -8,-1 -3,-1 -5,-2 -7,-3 -2,-1 -4,-3 -6,-5 -2,-2 -3,-4 -4,-7 -1,-3 -2,-5 -3,-8 -1,-3 -1,-6 -1,-9 0,-3 0,-6 1,-10 1,-3 2,-6 3,-9 1,-3 3,-6 5,-8 2,-3 4,-5 7,-7 3,-2 5,-3 9,-4 3,-1 7,-2 11,-2 z"
     id="path356"
     inkscape:connector-curvature="0"
     style="fill:#000000;fill-rule:nonzero" /><path
     id="path358"
     class="fil1"
     d="m 2046.491,2945.6241 c 0,0 0,1 0,1 0,0 0,1 0,1 0,2 0,4 1,6 1,2 2,3 3,4 1,1 3,2 4,2 2,0 3,1 5,1 2,0 4,0 6,-1 2,-1 3,-1 5,-3 1,-1 2,-3 3,-4 1,-2 1,-4 1,-6 0,-1 0,-3 -1,-4 0,-1 -1,-2 -2,-3 -1,-1 -1,-2 -2,-3 -1,-1 -2,-2 -3,-2 -1,-1 -2,-1 -3,-2 -1,-1 -2,-1 -4,-2 -1,-1 -3,-1 -4,-2 -1,-1 -2,-2 -4,-2 -1,-1 -2,-2 -3,-3 -1,-1 -2,-2 -3,-3 -1,-1 -1,-2 -2,-4 0,-1 -1,-3 -1,-5 0,-2 0,-4 1,-6 1,-2 1,-4 2,-5 1,-2 2,-3 4,-4 1,-1 3,-2 5,-3 2,-1 3,-1 5,-2 2,0 4,-1 6,-1 1,0 2,0 3,0 1,0 2,0 3,1 1,0 2,1 3,1 1,0 2,1 2,1 1,0 1,1 2,1 0,1 1,1 1,2 0,1 0,1 0,2 0,1 0,2 0,3 0,1 0,2 0,4 0,1 0,3 0,4 l -3,0 c 0,-1 0,-1 0,-2 0,-2 0,-4 -1,-5 -1,-2 -1,-3 -3,-4 -1,-1 -2,-2 -4,-2 -2,-1 -3,-1 -5,-1 -2,0 -4,0 -5,1 -2,1 -3,1 -4,3 -1,1 -2,2 -3,4 -1,2 -1,3 -1,5 0,1 0,3 1,4 0,1 1,2 2,3 1,1 2,2 2,3 1,1 2,2 3,2 1,1 2,1 3,2 1,1 2,1 4,2 1,1 3,1 4,2 1,1 3,1 4,2 1,1 2,2 3,3 1,1 2,2 3,3 1,1 1,2 2,4 0,1 1,3 1,5 0,3 0,5 -1,7 -1,2 -2,4 -3,6 -1,2 -3,3 -4,4 -2,1 -3,2 -5,3 -2,1 -4,1 -5,1 -2,0 -3,0 -5,0 -2,0 -4,0 -6,0 -2,0 -3,-1 -5,-1 -1,0 -2,-1 -3,-2 -1,-1 -1,-1 -1,-2 0,-1 0,-3 0,-6 0,-3 0,-6 0,-9 l 3,0 z"
     inkscape:connector-curvature="0"
     style="fill:#000000;fill-rule:nonzero" /><path
     id="path360"
     class="fil1"
     d="m 2085.491,2922.6241 c 2,-1 4,-1 6,-2 2,0 3,-1 4,-1 1,0 2,0 3,-1 1,0 1,0 1,0 1,0 1,0 1,0 0,0 1,0 1,1 0,0 1,1 1,1 0,1 0,1 0,2 0,0 0,1 0,2 0,1 0,2 0,4 0,2 0,4 0,6 0,2 0,5 -1,8 l 0,0 c 2,-4 3,-7 5,-10 2,-3 4,-6 6,-8 2,-2 4,-4 6,-5 2,-1 4,-2 5,-2 1,0 3,0 4,1 1,1 2,1 3,2 1,1 1,2 2,3 1,1 1,2 1,4 0,1 1,2 1,4 0,1 0,2 0,4 0,3 0,6 -1,8 -1,3 -1,5 -3,7 -1,2 -2,4 -4,6 -1,2 -3,3 -5,4 -2,1 -3,2 -5,3 -2,1 -4,1 -6,1 -2,0 -4,0 -6,-1 -2,-1 -4,-2 -5,-4 0,5 0,10 -1,16 0,5 0,11 0,17 l -6,1 -1,0 c 0,-4 1,-8 1,-12 0,-4 1,-8 1,-13 0,-4 0,-8 1,-12 0,-4 0,-8 0,-11 0,-4 0,-7 0,-10 0,-3 0,-5 0,-7 0,-1 0,-1 0,-2 0,-1 0,-1 0,-1 0,0 -1,-1 -1,-1 0,0 -1,0 -2,0 -1,0 -2,0 -3,0 -1,0 -2,0 -4,1 l 0,-2 z m 16,34 c 2,1 3,3 5,3 2,1 3,1 5,1 2,0 4,0 6,-1 2,-1 4,-2 5,-4 1,-2 2,-4 3,-7 1,-3 1,-6 1,-10 0,-1 0,-3 0,-4 0,-1 -1,-3 -1,-4 0,-1 -1,-2 -2,-3 -1,-1 -2,-1 -3,-1 -1,0 -2,0 -4,1 -1,1 -2,2 -4,3 -1,1 -2,2 -3,4 -1,1 -2,3 -3,5 -1,2 -2,3 -3,5 -1,2 -1,3 -2,5 -1,2 -1,3 -1,5 0,1 -1,3 -1,4 z"
     inkscape:connector-curvature="0"
     style="fill:#000000;fill-rule:nonzero" /><path
     id="path362"
     class="fil1"
     d="m 2167.491,2932.6241 c 0,-2 0,-3 -1,-4 -1,-1 -1,-2 -2,-3 -1,-1 -2,-1 -3,-2 -1,0 -2,-1 -3,-1 -1,0 -3,0 -4,0 -1,0 -2,1 -2,1 -1,1 -1,1 -1,2 0,1 0,2 0,2 0,1 0,2 1,3 0,1 1,2 2,3 l 0,0 c -1,1 -2,1 -4,1 -1,0 -1,0 -2,0 -1,0 -1,-1 -2,-1 0,0 -1,-1 -1,-1 0,-1 0,-1 0,-2 0,-1 0,-2 1,-3 1,-1 1,-2 2,-3 1,-1 2,-2 3,-2 1,-1 3,-1 4,-2 1,0 3,-1 4,-1 1,0 3,0 4,0 2,0 4,0 5,1 2,1 3,1 4,2 1,1 2,2 2,4 0,2 1,3 1,5 0,1 0,3 0,4 0,2 0,3 0,5 0,2 0,4 0,5 0,2 0,4 0,6 0,3 1,5 2,7 1,1 3,2 4,2 2,0 3,-1 5,-2 l 1,1 c -1,1 -3,2 -4,3 -2,1 -3,1 -5,1 -1,0 -3,0 -4,-1 -1,0 -2,-1 -3,-2 -1,-1 -1,-2 -2,-3 0,-1 -1,-3 -1,-5 0,-1 0,-1 0,-2 0,-1 0,-1 0,-2 l 0,0 c -1,2 -2,3 -3,5 -1,2 -2,3 -4,5 -1,1 -3,2 -4,3 -2,1 -3,1 -5,1 -1,0 -3,0 -4,-1 -1,0 -2,-1 -3,-2 -1,-1 -1,-2 -2,-3 0,-1 -1,-2 -1,-4 0,-2 0,-3 1,-5 1,-1 2,-3 3,-4 1,-1 3,-2 4,-3 2,-1 3,-2 5,-2 2,-1 4,-1 6,-1 2,0 4,0 7,0 0,-1 0,-3 0,-4 0,-1 0,-3 0,-4 z m -19,21 c 0,1 0,2 0,2 0,1 0,1 1,2 0,1 1,1 1,1 1,0 1,0 2,0 1,0 2,0 3,-1 1,0 2,-1 3,-2 1,-1 2,-2 3,-3 1,-1 2,-2 2,-3 1,-1 1,-3 2,-4 0,-1 1,-3 1,-4 -2,0 -3,0 -5,0 -1,0 -3,0 -4,1 -1,0 -3,1 -4,1 -1,1 -2,1 -3,2 -1,1 -1,2 -2,3 0,1 -1,2 -1,4 z"
     inkscape:connector-curvature="0"
     style="fill:#000000;fill-rule:nonzero" /><path
     id="path364"
     class="fil1"
     d="m 2190.491,2964.6241 0,0 c 0,-2 0,-4 0,-6 0,-2 0,-5 0,-7 0,-2 0,-5 0,-7 0,-2 0,-4 0,-6 0,-2 0,-4 0,-5 0,-2 0,-3 0,-4 0,-1 0,-1 0,-2 0,-1 0,-1 0,-1 0,0 -1,-1 -1,-1 0,0 -1,0 -2,0 0,0 -1,0 -1,0 0,0 -1,0 -1,0 0,0 -1,0 -2,0 -1,0 -1,0 -2,0 l 0,-2 c 3,-1 6,-2 8,-3 2,-1 4,-1 4,-1 1,0 2,0 3,1 1,1 1,2 1,3 0,0 0,1 0,1 0,1 0,2 0,3 0,1 0,2 0,4 0,1 0,3 0,5 0,2 0,3 0,5 0,2 0,4 -1,5 l 0,0 c 1,-4 2,-8 3,-11 1,-3 3,-6 4,-9 2,-3 3,-5 5,-6 2,-1 4,-2 6,-2 1,0 2,0 2,0 1,0 1,1 2,1 0,0 1,1 1,2 0,1 0,1 0,2 0,1 0,2 -1,3 0,1 -1,2 -2,2 l 0,0 c -1,-1 -2,-1 -2,-2 -1,0 -2,0 -2,0 -1,0 -2,0 -3,1 -1,0 -2,1 -2,1 -1,1 -2,2 -3,4 -1,2 -2,4 -3,6 -1,2 -2,4 -2,7 -1,2 -1,5 -2,7 0,2 -1,4 -1,6 0,2 -1,4 -1,5 l -6,1 z"
     inkscape:connector-curvature="0"
     style="fill:#000000;fill-rule:nonzero" /><path
     id="path366"
     class="fil1"
     d="m 2240.491,2943.6241 c 2,-1 5,-2 7,-3 2,-1 4,-2 5,-3 1,-1 3,-2 3,-4 1,-1 1,-3 1,-4 0,-1 0,-1 0,-2 0,0 -1,-1 -1,-1 0,0 -1,-1 -1,-1 0,0 -1,0 -2,0 -1,0 -3,0 -4,1 -1,1 -3,2 -4,3 -1,2 -3,3 -4,6 -1,2 -2,5 -4,7 -1,3 -2,6 -3,9 -1,3 -2,7 -2,11 l -6,1 0,0 c 0,-2 0,-5 0,-8 0,-3 0,-6 1,-9 0,-3 0,-7 1,-10 0,-4 0,-7 1,-11 0,-4 0,-7 1,-11 0,-4 0,-7 1,-11 0,-4 0,-7 1,-11 0,-3 0,-7 1,-10 0,0 0,-1 0,-1 0,0 1,-1 1,-1 0,0 1,0 1,0 1,0 1,0 2,0 1,0 3,0 4,1 0,4 -1,8 -1,11 0,3 -1,7 -1,10 0,3 -1,6 -1,8 0,3 0,5 -1,7 0,2 0,5 -1,7 0,2 0,5 -1,7 0,2 0,5 -1,7 0,3 0,5 -1,8 l 0,0 c 1,-2 2,-5 3,-7 1,-2 2,-5 3,-7 1,-2 3,-4 4,-6 1,-2 3,-3 4,-5 2,-1 3,-2 5,-3 2,-1 3,-1 5,-1 1,0 2,0 3,1 1,0 2,1 2,1 1,1 1,1 1,2 0,1 1,2 1,3 0,2 0,3 -1,5 -1,2 -2,3 -3,5 -1,1 -3,3 -5,4 -2,1 -4,3 -6,4 1,3 3,5 4,6 1,2 2,3 3,4 1,1 2,2 2,3 1,1 1,1 2,2 1,0 1,1 2,1 1,0 1,0 2,0 1,0 2,0 3,-1 1,0 2,-1 3,-1 l 1,2 c -1,1 -2,1 -3,2 -1,1 -2,1 -4,2 -1,1 -3,1 -4,1 -1,0 -2,0 -3,0 -1,0 -2,0 -3,-1 -1,-1 -2,-2 -4,-4 -1,-2 -3,-4 -4,-6 -2,-3 -3,-6 -5,-9 l 0,0 z"
     inkscape:connector-curvature="0"
     style="fill:#000000;fill-rule:nonzero" /></svg>