G04 #@! TF.GenerationSoftware,KiCad,Pcbnew,6.0.6+dfsg-1*
G04 #@! TF.CreationDate,2022-07-23T03:11:19+08:00*
G04 #@! TF.ProjectId,PSLab,50534c61-622e-46b6-9963-61645f706362,v6.0-beta*
G04 #@! TF.SameCoordinates,Original*
G04 #@! TF.FileFunction,Copper,L1,Top*
G04 #@! TF.FilePolarity,Positive*
%FSLAX46Y46*%
G04 Gerber Fmt 4.6, Leading zero omitted, Abs format (unit mm)*
G04 Created by KiCad (PCBNEW 6.0.6+dfsg-1) date 2022-07-23 03:11:19*
%MOMM*%
%LPD*%
G01*
G04 APERTURE LIST*
G04 Aperture macros list*
%AMRoundRect*
0 Rectangle with rounded corners*
0 $1 Rounding radius*
0 $2 $3 $4 $5 $6 $7 $8 $9 X,Y pos of 4 corners*
0 Add a 4 corners polygon primitive as box body*
4,1,4,$2,$3,$4,$5,$6,$7,$8,$9,$2,$3,0*
0 Add four circle primitives for the rounded corners*
1,1,$1+$1,$2,$3*
1,1,$1+$1,$4,$5*
1,1,$1+$1,$6,$7*
1,1,$1+$1,$8,$9*
0 Add four rect primitives between the rounded corners*
20,1,$1+$1,$2,$3,$4,$5,0*
20,1,$1+$1,$4,$5,$6,$7,0*
20,1,$1+$1,$6,$7,$8,$9,0*
20,1,$1+$1,$8,$9,$2,$3,0*%
G04 Aperture macros list end*
G04 #@! TA.AperFunction,SMDPad,CuDef*
%ADD10RoundRect,0.200000X-0.200000X-0.275000X0.200000X-0.275000X0.200000X0.275000X-0.200000X0.275000X0*%
G04 #@! TD*
G04 #@! TA.AperFunction,SMDPad,CuDef*
%ADD11RoundRect,0.200000X-0.275000X0.200000X-0.275000X-0.200000X0.275000X-0.200000X0.275000X0.200000X0*%
G04 #@! TD*
G04 #@! TA.AperFunction,SMDPad,CuDef*
%ADD12RoundRect,0.200000X0.200000X0.275000X-0.200000X0.275000X-0.200000X-0.275000X0.200000X-0.275000X0*%
G04 #@! TD*
G04 #@! TA.AperFunction,SMDPad,CuDef*
%ADD13RoundRect,0.200000X0.275000X-0.200000X0.275000X0.200000X-0.275000X0.200000X-0.275000X-0.200000X0*%
G04 #@! TD*
G04 #@! TA.AperFunction,SMDPad,CuDef*
%ADD14R,0.800000X1.200000*%
G04 #@! TD*
G04 #@! TA.AperFunction,SMDPad,CuDef*
%ADD15RoundRect,0.250000X-0.375000X-0.625000X0.375000X-0.625000X0.375000X0.625000X-0.375000X0.625000X0*%
G04 #@! TD*
G04 #@! TA.AperFunction,SMDPad,CuDef*
%ADD16RoundRect,0.225000X0.225000X0.250000X-0.225000X0.250000X-0.225000X-0.250000X0.225000X-0.250000X0*%
G04 #@! TD*
G04 #@! TA.AperFunction,SMDPad,CuDef*
%ADD17RoundRect,0.225000X-0.225000X-0.250000X0.225000X-0.250000X0.225000X0.250000X-0.225000X0.250000X0*%
G04 #@! TD*
G04 #@! TA.AperFunction,SMDPad,CuDef*
%ADD18RoundRect,0.225000X-0.250000X0.225000X-0.250000X-0.225000X0.250000X-0.225000X0.250000X0.225000X0*%
G04 #@! TD*
G04 #@! TA.AperFunction,SMDPad,CuDef*
%ADD19RoundRect,0.225000X0.250000X-0.225000X0.250000X0.225000X-0.250000X0.225000X-0.250000X-0.225000X0*%
G04 #@! TD*
G04 #@! TA.AperFunction,SMDPad,CuDef*
%ADD20R,1.700000X1.300000*%
G04 #@! TD*
G04 #@! TA.AperFunction,SMDPad,CuDef*
%ADD21RoundRect,0.243750X0.243750X0.456250X-0.243750X0.456250X-0.243750X-0.456250X0.243750X-0.456250X0*%
G04 #@! TD*
G04 #@! TA.AperFunction,SMDPad,CuDef*
%ADD22RoundRect,0.243750X0.456250X-0.243750X0.456250X0.243750X-0.456250X0.243750X-0.456250X-0.243750X0*%
G04 #@! TD*
G04 #@! TA.AperFunction,SMDPad,CuDef*
%ADD23R,1.500000X1.000000*%
G04 #@! TD*
G04 #@! TA.AperFunction,SMDPad,CuDef*
%ADD24RoundRect,0.150000X-0.825000X-0.150000X0.825000X-0.150000X0.825000X0.150000X-0.825000X0.150000X0*%
G04 #@! TD*
G04 #@! TA.AperFunction,SMDPad,CuDef*
%ADD25RoundRect,0.150000X0.825000X0.150000X-0.825000X0.150000X-0.825000X-0.150000X0.825000X-0.150000X0*%
G04 #@! TD*
G04 #@! TA.AperFunction,SMDPad,CuDef*
%ADD26RoundRect,0.100000X0.637500X0.100000X-0.637500X0.100000X-0.637500X-0.100000X0.637500X-0.100000X0*%
G04 #@! TD*
G04 #@! TA.AperFunction,SMDPad,CuDef*
%ADD27R,1.200000X1.400000*%
G04 #@! TD*
G04 #@! TA.AperFunction,SMDPad,CuDef*
%ADD28R,1.000000X1.400000*%
G04 #@! TD*
G04 #@! TA.AperFunction,ComponentPad*
%ADD29C,5.600000*%
G04 #@! TD*
G04 #@! TA.AperFunction,ComponentPad*
%ADD30R,1.700000X1.700000*%
G04 #@! TD*
G04 #@! TA.AperFunction,ComponentPad*
%ADD31O,1.700000X1.700000*%
G04 #@! TD*
G04 #@! TA.AperFunction,SMDPad,CuDef*
%ADD32R,1.800000X1.000000*%
G04 #@! TD*
G04 #@! TA.AperFunction,SMDPad,CuDef*
%ADD33R,0.550000X1.500000*%
G04 #@! TD*
G04 #@! TA.AperFunction,SMDPad,CuDef*
%ADD34R,1.500000X0.550000*%
G04 #@! TD*
G04 #@! TA.AperFunction,SMDPad,CuDef*
%ADD35R,0.900000X0.800000*%
G04 #@! TD*
G04 #@! TA.AperFunction,SMDPad,CuDef*
%ADD36C,0.500000*%
G04 #@! TD*
G04 #@! TA.AperFunction,SMDPad,CuDef*
%ADD37RoundRect,0.100000X-0.637500X-0.100000X0.637500X-0.100000X0.637500X0.100000X-0.637500X0.100000X0*%
G04 #@! TD*
G04 #@! TA.AperFunction,SMDPad,CuDef*
%ADD38R,2.800000X3.200000*%
G04 #@! TD*
G04 #@! TA.AperFunction,SMDPad,CuDef*
%ADD39C,10.200000*%
G04 #@! TD*
G04 #@! TA.AperFunction,SMDPad,CuDef*
%ADD40R,0.800000X0.900000*%
G04 #@! TD*
G04 #@! TA.AperFunction,SMDPad,CuDef*
%ADD41C,0.800000*%
G04 #@! TD*
G04 #@! TA.AperFunction,SMDPad,CuDef*
%ADD42R,2.000000X1.500000*%
G04 #@! TD*
G04 #@! TA.AperFunction,SMDPad,CuDef*
%ADD43R,2.000000X3.800000*%
G04 #@! TD*
G04 #@! TA.AperFunction,SMDPad,CuDef*
%ADD44R,0.650000X2.000000*%
G04 #@! TD*
G04 #@! TA.AperFunction,SMDPad,CuDef*
%ADD45R,1.200000X0.900000*%
G04 #@! TD*
G04 #@! TA.AperFunction,SMDPad,CuDef*
%ADD46RoundRect,0.100000X0.100000X0.100000X-0.100000X0.100000X-0.100000X-0.100000X0.100000X-0.100000X0*%
G04 #@! TD*
G04 #@! TA.AperFunction,SMDPad,CuDef*
%ADD47O,0.700000X0.200000*%
G04 #@! TD*
G04 #@! TA.AperFunction,SMDPad,CuDef*
%ADD48O,0.200000X0.700000*%
G04 #@! TD*
G04 #@! TA.AperFunction,SMDPad,CuDef*
%ADD49R,1.600000X1.600000*%
G04 #@! TD*
G04 #@! TA.AperFunction,SMDPad,CuDef*
%ADD50R,0.500000X0.500000*%
G04 #@! TD*
G04 #@! TA.AperFunction,SMDPad,CuDef*
%ADD51R,1.450000X0.600000*%
G04 #@! TD*
G04 #@! TA.AperFunction,SMDPad,CuDef*
%ADD52R,1.450000X0.300000*%
G04 #@! TD*
G04 #@! TA.AperFunction,SMDPad,CuDef*
%ADD53R,1.500000X2.020000*%
G04 #@! TD*
G04 #@! TA.AperFunction,SMDPad,CuDef*
%ADD54R,1.000000X2.600000*%
G04 #@! TD*
G04 #@! TA.AperFunction,SMDPad,CuDef*
%ADD55R,1.500000X3.400000*%
G04 #@! TD*
G04 #@! TA.AperFunction,SMDPad,CuDef*
%ADD56R,2.400000X2.000000*%
G04 #@! TD*
G04 #@! TA.AperFunction,SMDPad,CuDef*
%ADD57RoundRect,0.062500X-0.350000X-0.062500X0.350000X-0.062500X0.350000X0.062500X-0.350000X0.062500X0*%
G04 #@! TD*
G04 #@! TA.AperFunction,SMDPad,CuDef*
%ADD58RoundRect,0.062500X-0.062500X-0.350000X0.062500X-0.350000X0.062500X0.350000X-0.062500X0.350000X0*%
G04 #@! TD*
G04 #@! TA.AperFunction,SMDPad,CuDef*
%ADD59R,2.600000X2.600000*%
G04 #@! TD*
G04 #@! TA.AperFunction,SMDPad,CuDef*
%ADD60R,1.600000X0.700000*%
G04 #@! TD*
G04 #@! TA.AperFunction,SMDPad,CuDef*
%ADD61R,1.400000X1.600000*%
G04 #@! TD*
G04 #@! TA.AperFunction,SMDPad,CuDef*
%ADD62R,2.200000X1.200000*%
G04 #@! TD*
G04 #@! TA.AperFunction,SMDPad,CuDef*
%ADD63R,1.400000X1.200000*%
G04 #@! TD*
G04 #@! TA.AperFunction,ComponentPad*
%ADD64O,1.727200X1.727200*%
G04 #@! TD*
G04 #@! TA.AperFunction,ComponentPad*
%ADD65R,1.727200X1.727200*%
G04 #@! TD*
G04 #@! TA.AperFunction,SMDPad,CuDef*
%ADD66R,2.000000X0.650000*%
G04 #@! TD*
G04 #@! TA.AperFunction,SMDPad,CuDef*
%ADD67R,1.060000X0.650000*%
G04 #@! TD*
G04 #@! TA.AperFunction,SMDPad,CuDef*
%ADD68RoundRect,0.150000X0.512500X0.150000X-0.512500X0.150000X-0.512500X-0.150000X0.512500X-0.150000X0*%
G04 #@! TD*
G04 #@! TA.AperFunction,SMDPad,CuDef*
%ADD69RoundRect,0.218750X0.256250X-0.218750X0.256250X0.218750X-0.256250X0.218750X-0.256250X-0.218750X0*%
G04 #@! TD*
G04 #@! TA.AperFunction,SMDPad,CuDef*
%ADD70RoundRect,0.150000X0.150000X-0.825000X0.150000X0.825000X-0.150000X0.825000X-0.150000X-0.825000X0*%
G04 #@! TD*
G04 #@! TA.AperFunction,SMDPad,CuDef*
%ADD71RoundRect,0.218750X-0.256250X0.218750X-0.256250X-0.218750X0.256250X-0.218750X0.256250X0.218750X0*%
G04 #@! TD*
G04 #@! TA.AperFunction,ViaPad*
%ADD72C,0.500000*%
G04 #@! TD*
G04 #@! TA.AperFunction,ViaPad*
%ADD73C,0.914400*%
G04 #@! TD*
G04 #@! TA.AperFunction,Conductor*
%ADD74C,0.150000*%
G04 #@! TD*
G04 #@! TA.AperFunction,Conductor*
%ADD75C,0.400000*%
G04 #@! TD*
G04 #@! TA.AperFunction,Conductor*
%ADD76C,0.250000*%
G04 #@! TD*
G04 #@! TA.AperFunction,Conductor*
%ADD77C,0.200000*%
G04 #@! TD*
G04 #@! TA.AperFunction,Conductor*
%ADD78C,0.800000*%
G04 #@! TD*
G04 APERTURE END LIST*
D10*
X177825000Y-62250000D03*
X179475000Y-62250000D03*
D11*
X150856000Y-88880000D03*
X150856000Y-90530000D03*
D10*
X162775000Y-54800000D03*
X164425000Y-54800000D03*
D12*
X164425000Y-53200000D03*
X162775000Y-53200000D03*
X188325000Y-76200000D03*
X186675000Y-76200000D03*
D11*
X152514000Y-92127000D03*
X152514000Y-93777000D03*
D10*
X186675000Y-74600000D03*
X188325000Y-74600000D03*
X173470000Y-54026000D03*
X175120000Y-54026000D03*
D12*
X185150000Y-76200000D03*
X183500000Y-76200000D03*
X179475000Y-60566500D03*
X177825000Y-60566500D03*
D10*
X177851000Y-58407500D03*
X179501000Y-58407500D03*
X177851000Y-56248500D03*
X179501000Y-56248500D03*
X164263000Y-62789000D03*
X165913000Y-62789000D03*
X173407000Y-62052500D03*
X175057000Y-62052500D03*
X168961000Y-62789000D03*
X170611000Y-62789000D03*
D12*
X185343500Y-56248500D03*
X183693500Y-56248500D03*
X179501000Y-54026000D03*
X177851000Y-54026000D03*
D13*
X137084000Y-90030000D03*
X137084000Y-88380000D03*
X139243000Y-93777000D03*
X139243000Y-92127000D03*
X137084000Y-93777000D03*
X137084000Y-92127000D03*
X152514000Y-90530000D03*
X152514000Y-88880000D03*
D10*
X180725000Y-64500000D03*
X182375000Y-64500000D03*
X172475000Y-88000000D03*
X174125000Y-88000000D03*
D13*
X105000000Y-53925000D03*
X105000000Y-52275000D03*
D11*
X119091000Y-66937000D03*
X119091000Y-68587000D03*
X117450000Y-66937000D03*
X117450000Y-68587000D03*
D13*
X114350000Y-56883000D03*
X114350000Y-55233000D03*
D12*
X186225000Y-83900000D03*
X184575000Y-83900000D03*
X157213000Y-87872000D03*
X155563000Y-87872000D03*
D13*
X137084000Y-97587000D03*
X137084000Y-95937000D03*
D14*
X140900000Y-66100000D03*
X140900000Y-62300000D03*
X138500000Y-62300000D03*
X138500000Y-66100000D03*
D12*
X110085000Y-52420000D03*
X108435000Y-52420000D03*
X110085000Y-50520000D03*
X108435000Y-50520000D03*
D15*
X111450000Y-65800000D03*
X114250000Y-65800000D03*
D16*
X126525000Y-77950000D03*
X124975000Y-77950000D03*
D17*
X159725000Y-54800000D03*
X161275000Y-54800000D03*
D18*
X189900000Y-74825000D03*
X189900000Y-76375000D03*
D17*
X169075000Y-54000000D03*
X170625000Y-54000000D03*
D16*
X143320000Y-88372000D03*
X141770000Y-88372000D03*
D19*
X150856000Y-93727000D03*
X150856000Y-92177000D03*
D17*
X146215000Y-88372000D03*
X147765000Y-88372000D03*
X188125000Y-54026000D03*
X189675000Y-54026000D03*
D20*
X138800000Y-53350000D03*
X138800000Y-56850000D03*
D21*
X174037500Y-89900000D03*
X172162500Y-89900000D03*
D22*
X102860000Y-53797500D03*
X102860000Y-51922500D03*
D20*
X135000000Y-67250000D03*
X135000000Y-63750000D03*
D19*
X139243000Y-89980000D03*
X139243000Y-88430000D03*
D16*
X138939000Y-86411000D03*
X137389000Y-86411000D03*
D17*
X150925000Y-85700000D03*
X152475000Y-85700000D03*
X165925000Y-54000000D03*
X167475000Y-54000000D03*
D12*
X178175000Y-85700000D03*
X176525000Y-85700000D03*
X185343000Y-54026000D03*
X183693000Y-54026000D03*
X189725000Y-56248500D03*
X188075000Y-56248500D03*
D23*
X121100000Y-80425000D03*
X121100000Y-83625000D03*
X126000000Y-83625000D03*
X126000000Y-80425000D03*
D11*
X111240000Y-55233000D03*
X111240000Y-56883000D03*
X112800000Y-55225000D03*
X112800000Y-56875000D03*
D12*
X175120000Y-56248500D03*
X173470000Y-56248500D03*
D24*
X184203000Y-78045000D03*
X184203000Y-79315000D03*
X184203000Y-80585000D03*
X184203000Y-81855000D03*
X189153000Y-81855000D03*
X189153000Y-80585000D03*
X189153000Y-79315000D03*
X189153000Y-78045000D03*
D25*
X147243000Y-93904000D03*
X147243000Y-92634000D03*
X147243000Y-91364000D03*
X147243000Y-90094000D03*
X142293000Y-90094000D03*
X142293000Y-91364000D03*
X142293000Y-92634000D03*
X142293000Y-93904000D03*
D24*
X184203000Y-58979000D03*
X184203000Y-60249000D03*
X184203000Y-61519000D03*
X184203000Y-62789000D03*
X189153000Y-62789000D03*
X189153000Y-61519000D03*
X189153000Y-60249000D03*
X189153000Y-58979000D03*
D26*
X173402500Y-84305000D03*
X173402500Y-83655000D03*
X173402500Y-83005000D03*
X173402500Y-82355000D03*
X173402500Y-81705000D03*
X173402500Y-81055000D03*
X173402500Y-80405000D03*
X173402500Y-79755000D03*
X167677500Y-79755000D03*
X167677500Y-80405000D03*
X167677500Y-81055000D03*
X167677500Y-81705000D03*
X167677500Y-82355000D03*
X167677500Y-83005000D03*
X167677500Y-83655000D03*
X167677500Y-84305000D03*
D24*
X176225000Y-78045000D03*
X176225000Y-79315000D03*
X176225000Y-80585000D03*
X176225000Y-81855000D03*
X181175000Y-81855000D03*
X181175000Y-80585000D03*
X181175000Y-79315000D03*
X181175000Y-78045000D03*
D27*
X114070000Y-60800000D03*
D28*
X112350000Y-60800000D03*
X112350000Y-63000000D03*
X114250000Y-63000000D03*
D29*
X113940000Y-97440000D03*
X190150000Y-49200000D03*
X115210000Y-49190000D03*
X196480000Y-97430000D03*
D30*
X196520000Y-54280000D03*
D31*
X193980000Y-54280000D03*
X196520000Y-56820000D03*
X193980000Y-56820000D03*
X196520000Y-59360000D03*
X193980000Y-59360000D03*
X196520000Y-61900000D03*
X193980000Y-61900000D03*
X196520000Y-64440000D03*
X193980000Y-64440000D03*
X196520000Y-66980000D03*
X193980000Y-66980000D03*
X196520000Y-69520000D03*
X193980000Y-69520000D03*
X196520000Y-72060000D03*
X193980000Y-72060000D03*
X196520000Y-74600000D03*
X193980000Y-74600000D03*
X196520000Y-77140000D03*
X193980000Y-77140000D03*
X196520000Y-79680000D03*
X193980000Y-79680000D03*
X196520000Y-82220000D03*
X193980000Y-82220000D03*
X196520000Y-84760000D03*
X193980000Y-84760000D03*
X196520000Y-87300000D03*
X193980000Y-87300000D03*
D16*
X160325000Y-87872000D03*
X158775000Y-87872000D03*
D13*
X159660000Y-84569000D03*
X159660000Y-82919000D03*
X161310000Y-84569000D03*
X161310000Y-82919000D03*
X162966000Y-84569000D03*
X162966000Y-82919000D03*
X164610000Y-84569000D03*
X164610000Y-82919000D03*
D17*
X161825000Y-87872000D03*
X163375000Y-87872000D03*
D19*
X148133000Y-74867000D03*
X148133000Y-73317000D03*
X150900000Y-61375000D03*
X150900000Y-59825000D03*
D16*
X154075000Y-58800000D03*
X152525000Y-58800000D03*
D19*
X157658000Y-64961000D03*
X157658000Y-63411000D03*
D18*
X165600000Y-74225000D03*
X165600000Y-75775000D03*
X158039000Y-82969000D03*
X158039000Y-84519000D03*
D13*
X181900000Y-56150000D03*
X181900000Y-54500000D03*
D25*
X170103000Y-93967000D03*
X170103000Y-92697000D03*
X170103000Y-91427000D03*
X170103000Y-90157000D03*
X165153000Y-90157000D03*
X165153000Y-91427000D03*
X165153000Y-92697000D03*
X165153000Y-93967000D03*
D32*
X172600000Y-94750000D03*
X172600000Y-92250000D03*
D13*
X159700000Y-65011000D03*
X159700000Y-63361000D03*
X149300000Y-65011000D03*
X149300000Y-63361000D03*
X150928000Y-65011000D03*
X150928000Y-63361000D03*
D10*
X164263000Y-64948000D03*
X165913000Y-64948000D03*
D33*
X153150000Y-79919000D03*
X153950000Y-79919000D03*
X154750000Y-79919000D03*
X155550000Y-79919000D03*
X156350000Y-79919000D03*
X157150000Y-79919000D03*
X157950000Y-79919000D03*
X158750000Y-79919000D03*
X159550000Y-79919000D03*
X160350000Y-79919000D03*
X161150000Y-79919000D03*
D34*
X162850000Y-78219000D03*
X162850000Y-77419000D03*
X162850000Y-76619000D03*
X162850000Y-75819000D03*
X162850000Y-75019000D03*
X162850000Y-74219000D03*
X162850000Y-73419000D03*
X162850000Y-72619000D03*
X162850000Y-71819000D03*
X162850000Y-71019000D03*
X162850000Y-70219000D03*
D33*
X161150000Y-68519000D03*
X160350000Y-68519000D03*
X159550000Y-68519000D03*
X158750000Y-68519000D03*
X157950000Y-68519000D03*
X157150000Y-68519000D03*
X156350000Y-68519000D03*
X155550000Y-68519000D03*
X154750000Y-68519000D03*
X153950000Y-68519000D03*
X153150000Y-68519000D03*
D34*
X151450000Y-70219000D03*
X151450000Y-71019000D03*
X151450000Y-71819000D03*
X151450000Y-72619000D03*
X151450000Y-73419000D03*
X151450000Y-74219000D03*
X151450000Y-75019000D03*
X151450000Y-75819000D03*
X151450000Y-76619000D03*
X151450000Y-77419000D03*
X151450000Y-78219000D03*
D30*
X122860000Y-49200000D03*
D31*
X125400000Y-49200000D03*
X127940000Y-49200000D03*
X130480000Y-49200000D03*
X133020000Y-49200000D03*
X135560000Y-49200000D03*
X138100000Y-49200000D03*
X140640000Y-49200000D03*
X143180000Y-49200000D03*
X145720000Y-49200000D03*
X148260000Y-49200000D03*
X150800000Y-49200000D03*
X153340000Y-49200000D03*
X155880000Y-49200000D03*
X158420000Y-49200000D03*
X160960000Y-49200000D03*
X163500000Y-49200000D03*
X166040000Y-49200000D03*
X168580000Y-49200000D03*
X171120000Y-49200000D03*
X173660000Y-49200000D03*
X176200000Y-49200000D03*
X178740000Y-49200000D03*
X181280000Y-49200000D03*
X183820000Y-49200000D03*
D30*
X143180000Y-97494000D03*
D31*
X145720000Y-97494000D03*
X148260000Y-97494000D03*
X150800000Y-97494000D03*
X153340000Y-97494000D03*
X155880000Y-97494000D03*
X158420000Y-97494000D03*
X160960000Y-97494000D03*
X163500000Y-97494000D03*
X166040000Y-97494000D03*
X168580000Y-97494000D03*
X171120000Y-97494000D03*
X173660000Y-97494000D03*
D35*
X173486000Y-58537000D03*
X173486000Y-60437000D03*
X175486000Y-59487000D03*
D17*
X112425000Y-59000000D03*
X113975000Y-59000000D03*
D36*
X197060000Y-92420000D03*
X197060000Y-48820000D03*
D12*
X115557000Y-87681000D03*
X113907000Y-87681000D03*
X115557000Y-89840000D03*
X113907000Y-89840000D03*
D36*
X105560000Y-48620000D03*
D37*
X164574500Y-56584500D03*
X164574500Y-57234500D03*
X164574500Y-57884500D03*
X164574500Y-58534500D03*
X164574500Y-59184500D03*
X164574500Y-59834500D03*
X164574500Y-60484500D03*
X170299500Y-60484500D03*
X170299500Y-59834500D03*
X170299500Y-59184500D03*
X170299500Y-58534500D03*
X170299500Y-57884500D03*
X170299500Y-57234500D03*
X170299500Y-56584500D03*
D38*
X176500000Y-93075000D03*
X192700000Y-93075000D03*
D39*
X184600000Y-93075000D03*
D19*
X181800000Y-62975000D03*
X181800000Y-61425000D03*
D16*
X115675000Y-92100000D03*
X114125000Y-92100000D03*
D18*
X139243000Y-95923000D03*
X139243000Y-97473000D03*
D10*
X141900000Y-53257000D03*
X143550000Y-53257000D03*
D30*
X144660000Y-69012000D03*
D31*
X144660000Y-71552000D03*
X144660000Y-74092000D03*
X144660000Y-76632000D03*
X144660000Y-79172000D03*
D40*
X143250000Y-56700000D03*
X145150000Y-56700000D03*
X144200000Y-54700000D03*
D41*
X145000000Y-53250000D03*
D12*
X139052000Y-82029500D03*
X137402000Y-82029500D03*
D14*
X146100000Y-85898000D03*
X146100000Y-82098000D03*
X143700000Y-82098000D03*
X143700000Y-85898000D03*
D37*
X155875000Y-90112000D03*
X155875000Y-90762000D03*
X155875000Y-91412000D03*
X155875000Y-92062000D03*
X155875000Y-92712000D03*
X155875000Y-93362000D03*
X155875000Y-94012000D03*
X161600000Y-94012000D03*
X161600000Y-93362000D03*
X161600000Y-92712000D03*
X161600000Y-92062000D03*
X161600000Y-91412000D03*
X161600000Y-90762000D03*
X161600000Y-90112000D03*
D10*
X167375000Y-64900000D03*
X169025000Y-64900000D03*
D16*
X129275000Y-98000000D03*
X127725000Y-98000000D03*
D42*
X128550000Y-78825000D03*
X128550000Y-81125000D03*
D43*
X134850000Y-81125000D03*
D42*
X128550000Y-83425000D03*
D44*
X133875000Y-96000000D03*
X132525000Y-96000000D03*
D13*
X130900000Y-98025000D03*
X130900000Y-96375000D03*
D45*
X128500000Y-69750000D03*
X128500000Y-73050000D03*
D44*
X125025000Y-72500000D03*
X126375000Y-72500000D03*
D12*
X124025000Y-66500000D03*
X122375000Y-66500000D03*
D46*
X119600000Y-62600000D03*
D47*
X119750000Y-62050000D03*
X119750000Y-61550000D03*
X119750000Y-61050000D03*
X119750000Y-60550000D03*
D46*
X119600000Y-60000000D03*
D48*
X119050000Y-59850000D03*
X118550000Y-59850000D03*
X118050000Y-59850000D03*
X117550000Y-59850000D03*
D46*
X117000000Y-60000000D03*
D47*
X116850000Y-60550000D03*
X116850000Y-61050000D03*
X116850000Y-61550000D03*
X116850000Y-62050000D03*
D46*
X117000000Y-62600000D03*
D48*
X117550000Y-62750000D03*
X118050000Y-62750000D03*
X118550000Y-62750000D03*
X119050000Y-62750000D03*
D49*
X118300000Y-61300000D03*
D16*
X118575000Y-55400000D03*
X117025000Y-55400000D03*
X118575000Y-56950000D03*
X117025000Y-56950000D03*
D41*
X145650000Y-58975000D03*
X175200000Y-85000000D03*
D50*
X197028000Y-90348000D03*
D13*
X169030000Y-78135000D03*
X169030000Y-76485000D03*
X170680000Y-78135000D03*
X170680000Y-76485000D03*
D12*
X158125000Y-54800000D03*
X156475000Y-54800000D03*
D13*
X172330000Y-78135000D03*
X172330000Y-76485000D03*
D19*
X126960000Y-96195000D03*
X126960000Y-94645000D03*
D51*
X107145000Y-58650000D03*
X107145000Y-59450000D03*
D52*
X107145000Y-60650000D03*
X107145000Y-61650000D03*
X107145000Y-62150000D03*
X107145000Y-63150000D03*
D51*
X107145000Y-64350000D03*
X107145000Y-65150000D03*
X107145000Y-65150000D03*
X107145000Y-64350000D03*
D52*
X107145000Y-63650000D03*
X107145000Y-62650000D03*
X107145000Y-61150000D03*
X107145000Y-60150000D03*
D51*
X107145000Y-59450000D03*
X107145000Y-58650000D03*
D53*
X106200000Y-67230000D03*
X106200000Y-56570000D03*
X102200000Y-56570000D03*
X102200000Y-67230000D03*
D12*
X134025000Y-85500000D03*
X132375000Y-85500000D03*
D14*
X146100000Y-66100000D03*
X146100000Y-62300000D03*
X143700000Y-62300000D03*
X143700000Y-66100000D03*
D16*
X152475000Y-87300000D03*
X150925000Y-87300000D03*
D17*
X177725000Y-63850000D03*
X179275000Y-63850000D03*
D10*
X165775000Y-88000000D03*
X167425000Y-88000000D03*
X169075000Y-88000000D03*
X170725000Y-88000000D03*
D24*
X156905000Y-56635000D03*
X156905000Y-57905000D03*
X156905000Y-59175000D03*
X156905000Y-60445000D03*
X161855000Y-60445000D03*
X161855000Y-59175000D03*
X161855000Y-57905000D03*
X161855000Y-56635000D03*
D19*
X128550000Y-68175000D03*
X128550000Y-66625000D03*
X130100000Y-68175000D03*
X130100000Y-66625000D03*
D54*
X122460000Y-92620000D03*
X120460000Y-92620000D03*
D55*
X124810000Y-97920000D03*
X118110000Y-97920000D03*
D18*
X127000000Y-91525000D03*
X127000000Y-93075000D03*
D10*
X187025000Y-64500000D03*
X188675000Y-64500000D03*
D12*
X185425000Y-64500000D03*
X183775000Y-64500000D03*
D18*
X181800000Y-58325000D03*
X181800000Y-59875000D03*
D56*
X153700000Y-64550000D03*
X153700000Y-60850000D03*
D19*
X127050000Y-66475000D03*
X127050000Y-64925000D03*
D12*
X134025000Y-87100000D03*
X132375000Y-87100000D03*
D57*
X129062500Y-90800000D03*
X129062500Y-91300000D03*
X129062500Y-91800000D03*
X129062500Y-92300000D03*
X129062500Y-92800000D03*
X129062500Y-93300000D03*
D58*
X129750000Y-93987500D03*
X130250000Y-93987500D03*
X130750000Y-93987500D03*
X131250000Y-93987500D03*
X131750000Y-93987500D03*
X132250000Y-93987500D03*
D57*
X132937500Y-93300000D03*
X132937500Y-92800000D03*
X132937500Y-92300000D03*
X132937500Y-91800000D03*
X132937500Y-91300000D03*
X132937500Y-90800000D03*
D58*
X132250000Y-90112500D03*
X131750000Y-90112500D03*
X131250000Y-90112500D03*
X130750000Y-90112500D03*
X130250000Y-90112500D03*
X129750000Y-90112500D03*
D59*
X131000000Y-92050000D03*
D60*
X115700000Y-80150000D03*
X115700000Y-79050000D03*
X115700000Y-77950000D03*
X115700000Y-76850000D03*
X115700000Y-75750000D03*
X115700000Y-74650000D03*
X115700000Y-73550000D03*
X115700000Y-72450000D03*
X115700000Y-71350000D03*
D61*
X115200000Y-84750000D03*
D62*
X105600000Y-85650000D03*
X105600000Y-70150000D03*
D63*
X115200000Y-70150000D03*
D64*
X103365500Y-88697000D03*
D65*
X103365500Y-91237000D03*
D64*
X105905500Y-88697000D03*
X105905500Y-91237000D03*
X108445500Y-88697000D03*
X108445500Y-91237000D03*
X110985500Y-88697000D03*
X110985500Y-91237000D03*
D12*
X178150000Y-84130000D03*
X176500000Y-84130000D03*
D66*
X161976000Y-63511000D03*
X161976000Y-64861000D03*
D16*
X130875000Y-85500000D03*
X129325000Y-85500000D03*
X162775000Y-62100000D03*
X161225000Y-62100000D03*
D18*
X135000000Y-92325000D03*
X135000000Y-93875000D03*
D17*
X129325000Y-87100000D03*
X130875000Y-87100000D03*
D18*
X135600000Y-54825000D03*
X135600000Y-56375000D03*
X137900000Y-58525000D03*
X137900000Y-60075000D03*
X131400000Y-54725000D03*
X131400000Y-56275000D03*
D10*
X131775000Y-61500000D03*
X133425000Y-61500000D03*
D11*
X136300000Y-58275000D03*
X136300000Y-59925000D03*
D67*
X132400000Y-57950000D03*
X132400000Y-58900000D03*
X132400000Y-59850000D03*
X134600000Y-59850000D03*
X134600000Y-58900000D03*
X134600000Y-57950000D03*
D20*
X141300000Y-54950000D03*
X141300000Y-58450000D03*
D11*
X125500000Y-64875000D03*
X125500000Y-66525000D03*
D41*
X129600000Y-74700000D03*
X132050000Y-67600000D03*
D12*
X132225000Y-72900000D03*
X130575000Y-72900000D03*
D20*
X135700000Y-69575000D03*
X135700000Y-73075000D03*
D35*
X133700000Y-71050000D03*
X133700000Y-69150000D03*
X131700000Y-70100000D03*
D16*
X132075000Y-53225000D03*
X130525000Y-53225000D03*
D44*
X134175000Y-55700000D03*
X132825000Y-55700000D03*
D12*
X136450000Y-61500000D03*
X134800000Y-61500000D03*
D18*
X131675000Y-64675000D03*
X131675000Y-66225000D03*
D17*
X179750000Y-84200000D03*
X181300000Y-84200000D03*
D68*
X126337500Y-70060000D03*
X126337500Y-69110000D03*
X126337500Y-68160000D03*
X124062500Y-68160000D03*
X124062500Y-70060000D03*
D69*
X124150000Y-87600000D03*
X124150000Y-86025000D03*
D13*
X183500000Y-70825000D03*
X183500000Y-69175000D03*
D70*
X186645000Y-72075000D03*
X187915000Y-72075000D03*
X189185000Y-72075000D03*
X190455000Y-72075000D03*
X190455000Y-67125000D03*
X189185000Y-67125000D03*
X187915000Y-67125000D03*
X186645000Y-67125000D03*
D69*
X120950000Y-87600000D03*
X120950000Y-86025000D03*
D10*
X174625000Y-63850000D03*
X176275000Y-63850000D03*
D24*
X176425000Y-66195000D03*
X176425000Y-67465000D03*
X176425000Y-68735000D03*
X176425000Y-70005000D03*
X181375000Y-70005000D03*
X181375000Y-68735000D03*
X181375000Y-67465000D03*
X181375000Y-66195000D03*
D12*
X185175000Y-74600000D03*
X183525000Y-74600000D03*
D71*
X122550000Y-86025000D03*
X122550000Y-87600000D03*
D18*
X185050000Y-67825000D03*
X185050000Y-69375000D03*
D71*
X125800000Y-86025000D03*
X125800000Y-87600000D03*
D11*
X183500000Y-66125000D03*
X183500000Y-67775000D03*
D72*
X118600000Y-80600000D03*
X124200000Y-78750000D03*
X125025000Y-69325000D03*
X157259002Y-90112000D03*
X125025000Y-75550000D03*
X129100000Y-64850000D03*
X135600000Y-95600000D03*
X130900000Y-95200000D03*
X129275000Y-96725000D03*
X158500000Y-61750000D03*
X170200000Y-70500000D03*
X176650000Y-71150000D03*
X162500000Y-67000000D03*
X141412128Y-60787872D03*
X150068352Y-71849241D03*
X179700000Y-68100000D03*
X142800000Y-60600000D03*
X117950000Y-75950000D03*
X151100000Y-57824990D03*
X163000000Y-90300000D03*
X152100000Y-55400000D03*
X153811558Y-70320697D03*
X148300000Y-59700000D03*
X155032727Y-70303773D03*
X163493498Y-89706502D03*
X143300000Y-61100000D03*
X179600000Y-68900000D03*
X176500000Y-72100000D03*
X167358051Y-72241029D03*
X118400000Y-77950000D03*
X170500000Y-71750000D03*
X142350000Y-62450000D03*
X148700000Y-69600000D03*
X150500000Y-58400000D03*
X172516992Y-61392000D03*
X162800000Y-55900000D03*
X134100000Y-60600000D03*
X131300000Y-58400000D03*
X118800000Y-85200000D03*
X187400000Y-83900000D03*
X180600000Y-56100000D03*
X184500000Y-56200000D03*
X180900000Y-57400000D03*
X188074512Y-57328000D03*
X118800000Y-86000000D03*
X164400000Y-76900000D03*
X180200000Y-57200000D03*
X185788500Y-60249000D03*
X161220442Y-73774500D03*
X159000000Y-62700000D03*
X151700000Y-68000000D03*
X117970500Y-74536500D03*
X149900000Y-71100000D03*
X152900000Y-81400000D03*
X166000000Y-79600000D03*
X177450000Y-91850000D03*
X175550000Y-92250000D03*
X193550000Y-94250000D03*
X175600000Y-94250000D03*
X191800000Y-91950000D03*
X193600000Y-91950000D03*
X191800000Y-94200000D03*
X177400000Y-94250000D03*
X126295533Y-79612289D03*
X152959000Y-77330500D03*
D73*
X109620000Y-58534501D03*
D72*
X131260000Y-88860000D03*
X128000000Y-92400000D03*
X108500000Y-53800000D03*
X105800000Y-63200000D03*
X107900000Y-53300000D03*
X105700000Y-60600000D03*
X118095950Y-58300010D03*
X115510883Y-57889117D03*
D73*
X109637000Y-62991500D03*
D72*
X118600000Y-65700000D03*
D73*
X109637000Y-60771500D03*
D72*
X119651746Y-65355366D03*
X168900000Y-84600000D03*
X165212074Y-76657575D03*
X153594000Y-84094000D03*
X154546500Y-92888000D03*
X154546500Y-90983000D03*
X154265316Y-84596501D03*
X164760000Y-85720000D03*
X163160000Y-85620000D03*
X161510000Y-85620000D03*
X160210000Y-85720000D03*
X167600000Y-85500000D03*
X118900000Y-73800000D03*
X151600000Y-81900000D03*
X156800000Y-84200000D03*
X156700000Y-82100000D03*
X172000000Y-84000000D03*
X150183142Y-80072418D03*
X150101500Y-73393500D03*
X182900000Y-57700000D03*
X168750000Y-57500000D03*
X166000000Y-56250000D03*
X136322000Y-82029500D03*
X117650000Y-77100000D03*
X170800000Y-75600000D03*
X169500000Y-75600000D03*
X172200000Y-75600000D03*
X166150000Y-84150000D03*
X150400000Y-62400000D03*
X137425000Y-77725000D03*
X157860000Y-66320000D03*
X149086000Y-62154500D03*
X154740326Y-83507176D03*
X160324998Y-91427500D03*
X156297641Y-84612493D03*
X159800000Y-57800000D03*
X166250000Y-68150000D03*
X163500000Y-62789000D03*
X179800000Y-66700000D03*
X179650000Y-78650000D03*
X177729000Y-82821000D03*
X173600000Y-64150000D03*
X167700000Y-73300000D03*
X159400000Y-58800000D03*
X180550000Y-63250000D03*
X186000000Y-81500000D03*
X166200000Y-60400000D03*
X145402500Y-87871500D03*
X186700000Y-70600000D03*
X167800000Y-58400000D03*
X190650000Y-70650000D03*
X146455000Y-57200000D03*
X187600000Y-65500000D03*
X182557500Y-58400000D03*
X187503000Y-58979000D03*
X187900000Y-77300000D03*
X144132016Y-87872000D03*
X166050000Y-58550000D03*
X136100000Y-71200000D03*
X144100000Y-93700000D03*
X155314960Y-83811004D03*
X160324998Y-93586500D03*
X158737504Y-66472000D03*
X166000000Y-66000000D03*
X159200000Y-67000000D03*
X166600000Y-64400000D03*
X113200000Y-90400000D03*
X113200000Y-88300000D03*
D73*
X182807267Y-90056962D03*
X181452084Y-91922212D03*
X181452084Y-94227788D03*
X182807267Y-96093038D03*
X185000000Y-96805500D03*
X187192733Y-96093038D03*
X188547916Y-94227788D03*
X188547916Y-91922212D03*
X187192733Y-90056962D03*
D72*
X128025000Y-95200000D03*
X103600000Y-68800000D03*
D73*
X109637000Y-65202000D03*
D72*
X108000000Y-86450000D03*
X108000000Y-85850000D03*
X107400000Y-84650000D03*
X108000000Y-85250000D03*
X107400000Y-85850000D03*
X107400000Y-86450000D03*
X108000000Y-84650000D03*
X107400000Y-85250000D03*
X103900000Y-86400000D03*
X103900000Y-85800000D03*
X103300000Y-84600000D03*
X103900000Y-85200000D03*
X103300000Y-85800000D03*
X103300000Y-86400000D03*
X103900000Y-84600000D03*
X103300000Y-85200000D03*
X129325000Y-67225000D03*
X113100000Y-84950000D03*
X107900000Y-68800000D03*
X133475000Y-53225000D03*
X117250000Y-85550000D03*
X177702270Y-69426685D03*
X132475000Y-84600000D03*
X131010000Y-92040000D03*
X103600000Y-66400000D03*
X182200000Y-60650000D03*
X185650000Y-68600000D03*
X103570000Y-67230000D03*
X140900000Y-64200000D03*
X100800000Y-55800000D03*
X107900000Y-56100000D03*
X105800000Y-55100000D03*
X156818718Y-70074500D03*
X112827000Y-91999000D03*
X173100000Y-90000000D03*
X105000000Y-55900000D03*
X179900000Y-64600000D03*
X105800000Y-68800000D03*
X107900000Y-70700000D03*
X137100000Y-59300000D03*
X156800000Y-64300000D03*
X174800000Y-83000000D03*
X131700000Y-92000000D03*
X185600000Y-80250000D03*
X130650000Y-79400000D03*
X124600000Y-83600000D03*
X172115000Y-81055000D03*
X105000000Y-68800000D03*
X134600000Y-65100000D03*
X113700000Y-84350000D03*
X157100000Y-78500000D03*
X107300000Y-69500000D03*
X151800000Y-59800000D03*
X113700000Y-84950000D03*
X107900000Y-69500000D03*
X105000000Y-66400000D03*
X182600000Y-59300000D03*
X107200000Y-68800000D03*
X103000000Y-68800000D03*
X181800000Y-84950000D03*
X158000000Y-87300000D03*
X154546500Y-94031000D03*
X105000000Y-55100000D03*
X105000000Y-56600000D03*
X106500000Y-68800000D03*
X114000000Y-67600000D03*
X116650000Y-85550000D03*
X187950000Y-64100000D03*
X100800000Y-57200000D03*
X168600000Y-90200000D03*
X117250000Y-84350000D03*
X138600000Y-54600000D03*
X113100000Y-83750000D03*
X130825000Y-65925000D03*
X139200000Y-54600000D03*
X103600000Y-68000000D03*
X142293000Y-89147000D03*
X187800000Y-82400000D03*
X114600000Y-67600000D03*
X102300000Y-68800000D03*
X128400000Y-96800000D03*
X131700000Y-91300000D03*
X114200000Y-74650000D03*
X115200000Y-68200000D03*
X115200000Y-67600000D03*
X161500000Y-75000000D03*
X116650000Y-84950000D03*
X177050000Y-85000000D03*
X131000000Y-92700000D03*
X131350000Y-54050000D03*
X144515207Y-82839172D03*
X107900000Y-67100000D03*
X105000000Y-68100000D03*
X130050000Y-79400000D03*
X115800000Y-68200000D03*
X143700000Y-64700000D03*
X107900000Y-66400000D03*
X190741500Y-62789000D03*
X100800000Y-55100000D03*
X103400000Y-57100000D03*
X104970000Y-67230000D03*
X113700000Y-85550000D03*
X172700000Y-53700000D03*
X107300000Y-70700000D03*
X114600000Y-68200000D03*
X167900000Y-52900000D03*
X109400000Y-51500000D03*
X116200000Y-60000000D03*
X100800000Y-66300000D03*
X135400000Y-65100000D03*
X160500000Y-58100000D03*
X151800000Y-86400000D03*
X113100000Y-85550000D03*
D73*
X185000000Y-89344500D03*
D72*
X117250000Y-84950000D03*
X115800000Y-67600000D03*
X131700000Y-92700000D03*
X130300000Y-92700000D03*
X107900000Y-67900000D03*
X103400000Y-56500000D03*
X145736000Y-91364000D03*
X131600000Y-87100182D03*
X100800000Y-56500000D03*
X139243000Y-98603000D03*
X164300000Y-88300000D03*
X117250000Y-83750000D03*
X113300000Y-61900000D03*
X170800000Y-53100000D03*
X116650000Y-84350000D03*
X106500000Y-55100000D03*
X101600000Y-55100000D03*
X130300000Y-92000000D03*
X105000000Y-57200000D03*
X160500000Y-61400000D03*
X131000000Y-91300000D03*
X107300000Y-71300000D03*
X116175000Y-56650000D03*
X113700000Y-83750000D03*
X101500000Y-68800000D03*
X100800000Y-67500000D03*
X107900000Y-56900000D03*
X107900000Y-55300000D03*
X107900000Y-57600000D03*
X100800000Y-66900000D03*
X173600000Y-79174500D03*
X132600000Y-54300000D03*
X148700000Y-88500000D03*
X158975337Y-55424990D03*
X137084000Y-98603000D03*
X107300000Y-70100000D03*
X114000000Y-68200000D03*
X113100000Y-84350000D03*
X135300000Y-95000000D03*
X107900000Y-71300000D03*
X130300000Y-91300000D03*
X107900000Y-70100000D03*
X127546675Y-68719298D03*
X134700000Y-94800000D03*
X152959000Y-74219002D03*
X116650000Y-83750000D03*
X158039000Y-85839500D03*
X100800000Y-68200000D03*
X100800000Y-68800000D03*
X176900000Y-60700000D03*
X165385883Y-70485883D03*
X176898500Y-58407504D03*
X164750000Y-71250000D03*
X175700000Y-71150000D03*
X166674500Y-70994521D03*
X165750000Y-72250000D03*
X174250000Y-66750000D03*
X117850000Y-54600000D03*
X114975000Y-56025000D03*
X115100000Y-57375000D03*
X117500000Y-58700000D03*
X131550000Y-94900000D03*
X134300000Y-84300000D03*
X169200000Y-79200000D03*
X171100000Y-80200000D03*
X173700000Y-73100000D03*
X180189026Y-70975500D03*
X158500000Y-58250000D03*
X166899172Y-71766529D03*
X163750000Y-67500000D03*
X171500000Y-77500000D03*
X166100000Y-85000000D03*
X153600000Y-77900000D03*
X150613588Y-79585354D03*
X170000000Y-84400000D03*
X156700000Y-77400000D03*
X127900000Y-93600000D03*
X133900000Y-88000000D03*
X130000000Y-95000000D03*
X139400000Y-79700000D03*
X185000000Y-71200000D03*
X179536269Y-72110669D03*
X177650000Y-80250000D03*
X187500000Y-78900000D03*
X185800000Y-77000000D03*
X185000000Y-77200000D03*
X187485000Y-80585000D03*
X181900000Y-71550000D03*
X174750000Y-79200000D03*
D74*
X115700000Y-77950000D02*
X118400000Y-77950000D01*
D75*
X119600000Y-79800000D02*
X119400000Y-79800000D01*
X119400000Y-79800000D02*
X118600000Y-80600000D01*
X124975000Y-77950000D02*
X121450000Y-77950000D01*
X121450000Y-77950000D02*
X119600000Y-79800000D01*
D76*
X126375000Y-78775000D02*
X126800000Y-79200000D01*
X126800000Y-79200000D02*
X126800000Y-79400000D01*
X126800000Y-79400000D02*
X128525000Y-81125000D01*
X128525000Y-81125000D02*
X128550000Y-81125000D01*
D75*
X124975000Y-77950000D02*
X125800000Y-78775000D01*
X125800000Y-78775000D02*
X126175000Y-78775000D01*
X126175000Y-78775000D02*
X126375000Y-78775000D01*
X126525000Y-77950000D02*
X127675000Y-77950000D01*
X127675000Y-77950000D02*
X128550000Y-78825000D01*
X124200000Y-81200000D02*
X124200000Y-78750000D01*
X126301679Y-82149501D02*
X125149501Y-82149501D01*
X125149501Y-82149501D02*
X124200000Y-81200000D01*
X127577178Y-83425000D02*
X126301679Y-82149501D01*
X128550000Y-83425000D02*
X127577178Y-83425000D01*
D77*
X132947500Y-91290000D02*
X133890000Y-91290000D01*
X133890000Y-91290000D02*
X134000000Y-91400000D01*
X133810000Y-91790000D02*
X132947500Y-91790000D01*
D75*
X134000000Y-91400000D02*
X134000000Y-91600000D01*
D77*
X134000000Y-91600000D02*
X133810000Y-91790000D01*
D75*
X134275000Y-91600000D02*
X135000000Y-92325000D01*
X131675000Y-64675000D02*
X131675000Y-60700000D01*
X160325000Y-87872000D02*
X160325000Y-89699000D01*
X163880500Y-93967000D02*
X165153000Y-93967000D01*
X131675000Y-60575000D02*
X132400000Y-59850000D01*
X160325000Y-89699000D02*
X159912000Y-90112000D01*
X125025000Y-71175000D02*
X125025000Y-72500000D01*
X161600000Y-90762000D02*
X162562000Y-90762000D01*
X128550000Y-83425000D02*
X134525000Y-83425000D01*
X134450000Y-91400000D02*
X134000000Y-91400000D01*
X135000000Y-90850000D02*
X134450000Y-91400000D01*
X153717398Y-91350490D02*
X153717398Y-90478602D01*
X155875000Y-92062000D02*
X154428908Y-92062000D01*
X129100000Y-64850000D02*
X131500000Y-64850000D01*
D74*
X125010000Y-70060000D02*
X125025000Y-70075000D01*
D75*
X163500000Y-93586500D02*
X163880500Y-93967000D01*
X125025000Y-70275000D02*
X125025000Y-70075000D01*
D74*
X125025000Y-69325000D02*
X125025000Y-69122500D01*
D75*
X121100000Y-80425000D02*
X122525000Y-80425000D01*
X128550000Y-83425000D02*
X128550000Y-84725000D01*
X125025000Y-70075000D02*
X125025000Y-69325000D01*
X154084000Y-90112000D02*
X155875000Y-90112000D01*
X155875000Y-90112000D02*
X157394200Y-90112000D01*
X159912000Y-90112000D02*
X161600000Y-90112000D01*
X163500000Y-91700000D02*
X163500000Y-93586500D01*
X154428908Y-92062000D02*
X153717398Y-91350490D01*
X160162000Y-90762000D02*
X161600000Y-90762000D01*
D74*
X124062500Y-70060000D02*
X125010000Y-70060000D01*
D75*
X160325000Y-87872000D02*
X161825000Y-87872000D01*
X134000000Y-91600000D02*
X134275000Y-91600000D01*
X157394200Y-90112000D02*
X159312000Y-90112000D01*
X161600000Y-92712000D02*
X159859002Y-92712000D01*
X128550000Y-84725000D02*
X129325000Y-85500000D01*
X125025000Y-71175000D02*
X125025000Y-70275000D01*
X135000000Y-92325000D02*
X135900002Y-93225002D01*
X159312000Y-90112000D02*
X159912000Y-90112000D01*
X134525000Y-83425000D02*
X134800000Y-83700000D01*
X135900002Y-93225002D02*
X135900002Y-95299998D01*
X135900002Y-95299998D02*
X135600000Y-95600000D01*
X134800000Y-83700000D02*
X135000000Y-83900000D01*
X159859002Y-92712000D02*
X157259002Y-90112000D01*
X153717398Y-90478602D02*
X154084000Y-90112000D01*
X157394200Y-90112000D02*
X157259002Y-90112000D01*
D74*
X125025000Y-69122500D02*
X124062500Y-68160000D01*
D75*
X162562000Y-90762000D02*
X163500000Y-91700000D01*
X131675000Y-60700000D02*
X131675000Y-60575000D01*
X131500000Y-64850000D02*
X131675000Y-64675000D01*
X125025000Y-72500000D02*
X125025000Y-75550000D01*
X125025000Y-70275000D02*
X125025000Y-69325000D01*
X135000000Y-83900000D02*
X135000000Y-90850000D01*
X122525000Y-80425000D02*
X124200000Y-78750000D01*
X159312000Y-90112000D02*
X159512000Y-90112000D01*
X159512000Y-90112000D02*
X160162000Y-90762000D01*
D74*
X129275000Y-98000000D02*
X129275000Y-96725000D01*
X130750000Y-93987500D02*
X130750000Y-95150000D01*
X130750000Y-95150000D02*
X130850000Y-95150000D01*
X130850000Y-95150000D02*
X130900000Y-95200000D01*
D75*
X129275000Y-98000000D02*
X130900000Y-98000000D01*
X125500000Y-64925000D02*
X127050000Y-66475000D01*
X130575000Y-72900000D02*
X130575000Y-73725000D01*
X130575000Y-72900000D02*
X130575000Y-71225000D01*
X130100000Y-68500000D02*
X131700000Y-70100000D01*
X127050000Y-66475000D02*
X127050000Y-66675000D01*
X125500000Y-64875000D02*
X125500000Y-64925000D01*
X128550000Y-68175000D02*
X128550000Y-69700000D01*
X130575000Y-73725000D02*
X129600000Y-74700000D01*
X130100000Y-68175000D02*
X130100000Y-68500000D01*
X127050000Y-66675000D02*
X128550000Y-68175000D01*
X130575000Y-71225000D02*
X131700000Y-70100000D01*
X128550000Y-68175000D02*
X130100000Y-68175000D01*
X128550000Y-69700000D02*
X128500000Y-69750000D01*
D74*
X142612128Y-60787872D02*
X142800000Y-60600000D01*
X179515000Y-79315000D02*
X178000000Y-77800000D01*
X156905000Y-59175000D02*
X156099278Y-59175000D01*
X158500000Y-59795000D02*
X157880000Y-59175000D01*
X157880000Y-59175000D02*
X156905000Y-59175000D01*
X154499269Y-57574991D02*
X151349999Y-57574991D01*
X180335000Y-67465000D02*
X179700000Y-68100000D01*
X168725000Y-70535000D02*
X170165000Y-70535000D01*
X166837140Y-69662860D02*
X164174279Y-67000000D01*
X181375000Y-67465000D02*
X180335000Y-67465000D01*
X117750000Y-75750000D02*
X117950000Y-75950000D01*
X178000000Y-77800000D02*
X178000000Y-73000000D01*
X151450000Y-71819000D02*
X150098593Y-71819000D01*
X167709280Y-70535000D02*
X168725000Y-70535000D01*
X181175000Y-79315000D02*
X179515000Y-79315000D01*
X177700000Y-72700000D02*
X177700000Y-72200000D01*
X115700000Y-75750000D02*
X117750000Y-75750000D01*
X177700000Y-72200000D02*
X176650000Y-71150000D01*
X141412128Y-60787872D02*
X142612128Y-60787872D01*
X150098593Y-71819000D02*
X150068352Y-71849241D01*
X156099278Y-59175000D02*
X154499269Y-57574991D01*
X151349999Y-57574991D02*
X151100000Y-57824990D01*
X166837140Y-69662860D02*
X167709280Y-70535000D01*
X158500000Y-61750000D02*
X158500000Y-59795000D01*
X178000000Y-73000000D02*
X177700000Y-72700000D01*
X170165000Y-70535000D02*
X170200000Y-70500000D01*
X164174279Y-67000000D02*
X162500000Y-67000000D01*
X149300000Y-65995000D02*
X150602500Y-67297500D01*
X153150000Y-67552000D02*
X152895500Y-67297500D01*
X153150000Y-68519000D02*
X153150000Y-69659139D01*
X164027000Y-91427000D02*
X163000000Y-90400000D01*
X148260000Y-49200000D02*
X152100000Y-53040000D01*
X149300000Y-65011000D02*
X149300000Y-65995000D01*
X152100000Y-53040000D02*
X152100000Y-55400000D01*
X163000000Y-90400000D02*
X163000000Y-90300000D01*
X153150000Y-68519000D02*
X153150000Y-67552000D01*
X149300000Y-65011000D02*
X149300000Y-64900000D01*
X164027000Y-91427000D02*
X165153000Y-91427000D01*
X153150000Y-69659139D02*
X153811558Y-70320697D01*
X149300000Y-64900000D02*
X148300000Y-63900000D01*
X148300000Y-63900000D02*
X148300000Y-59700000D01*
X152895500Y-67297500D02*
X150602500Y-67297500D01*
X149600000Y-49800000D02*
X150400000Y-50600000D01*
X163943996Y-90157000D02*
X163493498Y-89706502D01*
X150928000Y-65011000D02*
X150100000Y-64183000D01*
X159560000Y-50600000D02*
X160960000Y-49200000D01*
X149600000Y-62400000D02*
X149600000Y-53080000D01*
X165153000Y-90157000D02*
X163943996Y-90157000D01*
X153276500Y-66662500D02*
X151837500Y-66662500D01*
X145720000Y-49200000D02*
X146920000Y-48000000D01*
X149600000Y-48700000D02*
X149600000Y-49800000D01*
X148900000Y-48000000D02*
X149600000Y-48700000D01*
X150100000Y-64183000D02*
X150100000Y-62900000D01*
X153950000Y-69221046D02*
X155032727Y-70303773D01*
X150100000Y-62900000D02*
X149600000Y-62400000D01*
X150400000Y-50600000D02*
X159560000Y-50600000D01*
X150928000Y-65011000D02*
X150928000Y-65753000D01*
X153950000Y-68519000D02*
X153950000Y-69221046D01*
X150928000Y-65753000D02*
X151837500Y-66662500D01*
X153950000Y-68519000D02*
X153950000Y-67336000D01*
X153950000Y-67336000D02*
X153276500Y-66662500D01*
X146920000Y-48000000D02*
X148900000Y-48000000D01*
X149600000Y-53080000D02*
X145720000Y-49200000D01*
X151400000Y-58400000D02*
X151900000Y-57900000D01*
X155693206Y-59193206D02*
X155693206Y-59506794D01*
X154400000Y-57900000D02*
X155693206Y-59193206D01*
X179765000Y-68735000D02*
X179600000Y-68900000D01*
X181175000Y-80585000D02*
X180335000Y-80585000D01*
X156445000Y-60445000D02*
X156905000Y-60445000D01*
X155693206Y-59506794D02*
X156445000Y-60258588D01*
X150500000Y-58400000D02*
X151400000Y-58400000D01*
X168780000Y-71750000D02*
X168725000Y-71805000D01*
X151900000Y-57900000D02*
X154400000Y-57900000D01*
X156445000Y-60258588D02*
X156445000Y-60445000D01*
X149019000Y-70219000D02*
X148700000Y-69900000D01*
X142350000Y-62050000D02*
X143300000Y-61100000D01*
X167794080Y-71805000D02*
X167358051Y-72241029D01*
X180335000Y-80585000D02*
X177300000Y-77550000D01*
X149019000Y-70219000D02*
X151450000Y-70219000D01*
X168725000Y-71805000D02*
X167794080Y-71805000D01*
X177300000Y-77550000D02*
X177300000Y-73200000D01*
X170500000Y-71750000D02*
X168780000Y-71750000D01*
X181375000Y-68735000D02*
X179765000Y-68735000D01*
X142350000Y-62450000D02*
X142350000Y-62050000D01*
X148700000Y-69900000D02*
X148700000Y-69600000D01*
X177300000Y-72900000D02*
X176500000Y-72100000D01*
X177300000Y-73200000D02*
X177300000Y-72900000D01*
X170299500Y-60484500D02*
X171119500Y-60484500D01*
X173067000Y-58537000D02*
X173486000Y-58537000D01*
X171119500Y-60484500D02*
X173067000Y-58537000D01*
X166383822Y-61783822D02*
X170178322Y-61783822D01*
X170611000Y-61795644D02*
X170611000Y-62789000D01*
X170622822Y-61783822D02*
X170611000Y-61795644D01*
X164574500Y-60484500D02*
X165084500Y-60484500D01*
X171916821Y-61392000D02*
X172516992Y-61392000D01*
X171524999Y-61783822D02*
X171916821Y-61392000D01*
X165084500Y-60484500D02*
X166383822Y-61783822D01*
X170178322Y-61783822D02*
X170622822Y-61783822D01*
X170178322Y-61783822D02*
X171524999Y-61783822D01*
X175755500Y-57328000D02*
X176263500Y-56820000D01*
X176263500Y-56820000D02*
X176263500Y-51676500D01*
X175120000Y-56248500D02*
X175120000Y-57327500D01*
X172644000Y-57328000D02*
X175120500Y-57328000D01*
X175120000Y-57327500D02*
X175120500Y-57328000D01*
X171900500Y-56584500D02*
X172644000Y-57328000D01*
X176263500Y-51676500D02*
X178740000Y-49200000D01*
X175120500Y-57328000D02*
X175755500Y-57328000D01*
X170299500Y-56584500D02*
X171900500Y-56584500D01*
X162065000Y-56635000D02*
X162800000Y-55900000D01*
X164574500Y-57884500D02*
X163634500Y-57884500D01*
X161855000Y-56635000D02*
X162065000Y-56635000D01*
X162385000Y-56635000D02*
X161855000Y-56635000D01*
X163634500Y-57884500D02*
X162385000Y-56635000D01*
X173407000Y-60439500D02*
X172180277Y-60439500D01*
X169405500Y-61138000D02*
X169088000Y-60820500D01*
X171481777Y-61138000D02*
X169405500Y-61138000D01*
X169088000Y-60820500D02*
X169088000Y-60122000D01*
X169375500Y-59834500D02*
X170299500Y-59834500D01*
X172180277Y-60439500D02*
X171481777Y-61138000D01*
X173486000Y-61973500D02*
X173407000Y-62052500D01*
X173486000Y-60437000D02*
X173486000Y-61973500D01*
X169088000Y-60122000D02*
X169375500Y-59834500D01*
X175486000Y-58486500D02*
X176835000Y-57137500D01*
X176835000Y-57137500D02*
X176835000Y-53200500D01*
X175486000Y-59487000D02*
X175486000Y-58486500D01*
X176835000Y-53200500D02*
X178295500Y-51740000D01*
X182970001Y-50049999D02*
X183820000Y-49200000D01*
X178295500Y-51740000D02*
X181280000Y-51740000D01*
X181280000Y-51740000D02*
X182970001Y-50049999D01*
D75*
X142400000Y-52100000D02*
X143550000Y-53250000D01*
X144993000Y-53257000D02*
X145000000Y-53250000D01*
X143550000Y-53257000D02*
X143550000Y-54050000D01*
D74*
X131300000Y-58300000D02*
X131300000Y-58400000D01*
D75*
X130525000Y-53225000D02*
X130525000Y-55200000D01*
X143550000Y-53257000D02*
X144993000Y-53257000D01*
X131200000Y-52100000D02*
X142400000Y-52100000D01*
D74*
X134100000Y-60725000D02*
X134775000Y-61400000D01*
D75*
X130525000Y-55200000D02*
X130525000Y-55400000D01*
X143550000Y-54050000D02*
X144200000Y-54700000D01*
X130525000Y-55400000D02*
X131400000Y-56275000D01*
D74*
X131650000Y-57950000D02*
X131300000Y-58300000D01*
X132400000Y-57950000D02*
X131650000Y-57950000D01*
D75*
X130525000Y-53225000D02*
X130525000Y-52775000D01*
X143550000Y-53250000D02*
X143550000Y-53257000D01*
X131400000Y-56275000D02*
X131400000Y-56950000D01*
D74*
X134100000Y-60600000D02*
X134100000Y-60725000D01*
D75*
X131400000Y-56950000D02*
X132400000Y-57950000D01*
X130525000Y-52775000D02*
X131200000Y-52100000D01*
D74*
X163400000Y-56800000D02*
X163400000Y-55825000D01*
X163400000Y-55825000D02*
X164425000Y-54800000D01*
X162775000Y-53200000D02*
X162825000Y-53200000D01*
X163834500Y-57234500D02*
X163400000Y-56800000D01*
X164574500Y-57234500D02*
X163834500Y-57234500D01*
X162825000Y-53200000D02*
X164425000Y-54800000D01*
X163309500Y-60122000D02*
X163309500Y-60694314D01*
X165913000Y-62027000D02*
X165913000Y-62789000D01*
X168961000Y-62789000D02*
X165913000Y-62789000D01*
X165428407Y-61542407D02*
X165913000Y-62027000D01*
X164574500Y-59834500D02*
X163597000Y-59834500D01*
X163597000Y-59834500D02*
X163309500Y-60122000D01*
X163309500Y-60694314D02*
X164157593Y-61542407D01*
X164157593Y-61542407D02*
X165428407Y-61542407D01*
X183693000Y-54978500D02*
X183820000Y-55105500D01*
X189725000Y-56248500D02*
X190551000Y-56248500D01*
X191376500Y-57074000D02*
X191376500Y-60820500D01*
X190678000Y-61519000D02*
X189153000Y-61519000D01*
X189344500Y-55105500D02*
X189725000Y-55486000D01*
X189725000Y-55486000D02*
X189725000Y-56248500D01*
X191376500Y-60820500D02*
X190678000Y-61519000D01*
X183693000Y-54026000D02*
X183693000Y-54978500D01*
X183820000Y-55105500D02*
X189344500Y-55105500D01*
X190551000Y-56248500D02*
X191376500Y-57074000D01*
X189408000Y-52883000D02*
X189675000Y-53150000D01*
X189675000Y-53150000D02*
X189675000Y-54026000D01*
X181597500Y-52883000D02*
X189408000Y-52883000D01*
X192011500Y-55359500D02*
X190678000Y-54026000D01*
X180454500Y-54026000D02*
X181597500Y-52883000D01*
X179501000Y-54026000D02*
X180454500Y-54026000D01*
X190678000Y-54026000D02*
X189675000Y-54026000D01*
X192011500Y-62471500D02*
X192011500Y-55359500D01*
X193980000Y-64440000D02*
X192011500Y-62471500D01*
X136322000Y-87478000D02*
X137389000Y-86411000D01*
X137084000Y-95937000D02*
X137084000Y-93777000D01*
X137084000Y-93777000D02*
X136322000Y-93015000D01*
X136322000Y-93015000D02*
X136322000Y-87478000D01*
X138163500Y-93523000D02*
X138163500Y-92316500D01*
X138417500Y-93777000D02*
X138163500Y-93523000D01*
X139243000Y-93777000D02*
X138417500Y-93777000D01*
X137084000Y-90030000D02*
X137084000Y-92127000D01*
X137974000Y-92127000D02*
X137084000Y-92127000D01*
X139243000Y-95923000D02*
X139243000Y-93777000D01*
X138163500Y-92316500D02*
X137974000Y-92127000D01*
X140957500Y-91364000D02*
X140513000Y-90919500D01*
X142293000Y-91364000D02*
X140957500Y-91364000D01*
X140513000Y-88887500D02*
X140055500Y-88430000D01*
X140055500Y-88430000D02*
X139243000Y-88430000D01*
X139193000Y-88380000D02*
X139243000Y-88430000D01*
X140513000Y-90919500D02*
X140513000Y-88887500D01*
X137084000Y-88380000D02*
X139193000Y-88380000D01*
X152514000Y-92127000D02*
X152514000Y-90530000D01*
X149900000Y-87924000D02*
X150856000Y-88880000D01*
X150925000Y-85700000D02*
X150600000Y-85700000D01*
X150864000Y-88880000D02*
X152514000Y-90530000D01*
X149900000Y-86400000D02*
X149900000Y-87924000D01*
X150600000Y-85700000D02*
X149900000Y-86400000D01*
X150856000Y-88880000D02*
X150864000Y-88880000D01*
X115557000Y-87681000D02*
X116319000Y-87681000D01*
X151450000Y-76619000D02*
X149733500Y-76619000D01*
X144660000Y-79172000D02*
X147180500Y-79172000D01*
X116319000Y-87681000D02*
X118800000Y-85200000D01*
X149733500Y-76619000D02*
X147180500Y-79172000D01*
X189900000Y-74825000D02*
X193755000Y-74825000D01*
X193755000Y-74825000D02*
X193980000Y-74600000D01*
X189675000Y-74600000D02*
X189900000Y-74825000D01*
X188325000Y-74600000D02*
X189675000Y-74600000D01*
X193215000Y-76375000D02*
X189900000Y-76375000D01*
X193980000Y-77140000D02*
X193215000Y-76375000D01*
D77*
X187400000Y-83900000D02*
X186225000Y-83900000D01*
D74*
X185850000Y-61950000D02*
X187300000Y-63400000D01*
X182375000Y-64500000D02*
X182375000Y-64375000D01*
X185419000Y-61519000D02*
X185850000Y-61950000D01*
X185300000Y-63350000D02*
X185419000Y-63231000D01*
X182375000Y-64375000D02*
X183400000Y-63350000D01*
X185419000Y-63231000D02*
X185419000Y-61519000D01*
X192500000Y-68040000D02*
X193980000Y-69520000D01*
X183400000Y-63350000D02*
X183850000Y-63350000D01*
X192500000Y-64300000D02*
X192500000Y-68040000D01*
X191600000Y-63400000D02*
X192500000Y-64300000D01*
X184203000Y-61519000D02*
X185419000Y-61519000D01*
X183850000Y-63350000D02*
X185300000Y-63350000D01*
X187300000Y-63400000D02*
X191600000Y-63400000D01*
X183693000Y-56249000D02*
X183693500Y-56248500D01*
X179649500Y-56100000D02*
X179501000Y-56248500D01*
X183693000Y-57391500D02*
X183693000Y-56249000D01*
X180600000Y-56100000D02*
X179649500Y-56100000D01*
X184203000Y-58979000D02*
X184203000Y-57901500D01*
X183693500Y-56248500D02*
X184451500Y-56248500D01*
X184203000Y-57901500D02*
X183693000Y-57391500D01*
X184451500Y-56248500D02*
X184500000Y-56200000D01*
X188392000Y-57391500D02*
X188328500Y-57328000D01*
X190741500Y-57899500D02*
X190741500Y-59804500D01*
X190741500Y-59804500D02*
X190297000Y-60249000D01*
X190297000Y-60249000D02*
X189153000Y-60249000D01*
X190170000Y-57328000D02*
X190741500Y-57899500D01*
X188455500Y-57328000D02*
X189154000Y-57328000D01*
X189154000Y-57328000D02*
X190170000Y-57328000D01*
X180550000Y-57750000D02*
X180550000Y-61175000D01*
X189154000Y-57328000D02*
X188074512Y-57328000D01*
X188075000Y-56248500D02*
X188075000Y-57074500D01*
X188392000Y-57391500D02*
X188455500Y-57328000D01*
X188075000Y-57074500D02*
X188392000Y-57391500D01*
X180550000Y-61175000D02*
X179475000Y-62250000D01*
X180900000Y-57400000D02*
X180550000Y-57750000D01*
X188328500Y-57328000D02*
X188074512Y-57328000D01*
X115557000Y-89243000D02*
X118800000Y-86000000D01*
X144660000Y-76632000D02*
X148641000Y-76632000D01*
X151437500Y-75806500D02*
X151450000Y-75819000D01*
X148641000Y-76632000D02*
X149466500Y-75806500D01*
X149466500Y-75806500D02*
X151437500Y-75806500D01*
X115557000Y-89840000D02*
X115557000Y-89243000D01*
X154628000Y-87872000D02*
X153620000Y-88880000D01*
X150934000Y-87300000D02*
X152514000Y-88880000D01*
X155563000Y-87872000D02*
X154628000Y-87872000D01*
X153620000Y-88880000D02*
X152514000Y-88880000D01*
X150925000Y-87300000D02*
X150934000Y-87300000D01*
X147243000Y-92634000D02*
X148966000Y-92634000D01*
X150856000Y-92177000D02*
X150856000Y-90530000D01*
X148966000Y-92634000D02*
X149423000Y-92177000D01*
X149423000Y-92177000D02*
X150856000Y-92177000D01*
X142293000Y-92634000D02*
X144230100Y-92634000D01*
X145498779Y-94434756D02*
X146037244Y-94973221D01*
X139243000Y-92127000D02*
X140133000Y-92127000D01*
X145498779Y-93902679D02*
X145498779Y-94434756D01*
X146037244Y-94973221D02*
X155373221Y-94973221D01*
X140640000Y-92634000D02*
X142293000Y-92634000D01*
X144230100Y-92634000D02*
X145498779Y-93902679D01*
X155373221Y-94973221D02*
X155880000Y-95480000D01*
X139243000Y-92127000D02*
X139243000Y-89980000D01*
X140133000Y-92127000D02*
X140640000Y-92634000D01*
X155880000Y-95480000D02*
X155880000Y-97460000D01*
X155633210Y-94673210D02*
X153410210Y-94673210D01*
X150856000Y-93727000D02*
X152464000Y-93727000D01*
X152464000Y-93727000D02*
X152514000Y-93777000D01*
X150679000Y-93904000D02*
X150856000Y-93727000D01*
X158420000Y-97460000D02*
X155633210Y-94673210D01*
X147243000Y-93904000D02*
X150679000Y-93904000D01*
X153410210Y-94673210D02*
X152514000Y-93777000D01*
X185343000Y-54026000D02*
X188125000Y-54026000D01*
X181250000Y-56150000D02*
X180200000Y-57200000D01*
X162850000Y-76619000D02*
X164119000Y-76619000D01*
X181900000Y-56150000D02*
X181250000Y-56150000D01*
X164119000Y-76619000D02*
X164400000Y-76900000D01*
X172162500Y-89900000D02*
X174062500Y-88000000D01*
X174062500Y-88000000D02*
X174125000Y-88000000D01*
X103212500Y-52275000D02*
X105000000Y-52275000D01*
X102860000Y-51922500D02*
X103212500Y-52275000D01*
X185788500Y-57963000D02*
X185344000Y-57518500D01*
X184203000Y-60249000D02*
X185788500Y-60249000D01*
X185344000Y-56249000D02*
X185343500Y-56248500D01*
X185344000Y-57518500D02*
X185344000Y-56249000D01*
X185788500Y-60249000D02*
X185788500Y-57963000D01*
X161575942Y-73419000D02*
X161220442Y-73774500D01*
X162850000Y-73419000D02*
X161575942Y-73419000D01*
X145288000Y-69012000D02*
X144660000Y-69012000D01*
X146300000Y-68000000D02*
X145288000Y-69012000D01*
X151700000Y-68000000D02*
X146300000Y-68000000D01*
X146100000Y-67800000D02*
X146300000Y-68000000D01*
X146100000Y-66100000D02*
X146100000Y-67800000D01*
X159661000Y-63361000D02*
X159000000Y-62700000D01*
X146100000Y-62300000D02*
X146100000Y-66100000D01*
X163309500Y-94729500D02*
X168389500Y-94729500D01*
X162928500Y-94348500D02*
X163309500Y-94729500D01*
X161600000Y-92062000D02*
X162546500Y-92062000D01*
X162546500Y-92062000D02*
X162928500Y-92444000D01*
X168389500Y-94729500D02*
X171120000Y-97460000D01*
X162928500Y-92444000D02*
X162928500Y-94348500D01*
X166357500Y-95237500D02*
X168580000Y-97460000D01*
X162166500Y-95237500D02*
X166357500Y-95237500D01*
X161600000Y-94671000D02*
X162166500Y-95237500D01*
X161600000Y-94012000D02*
X161600000Y-94671000D01*
X155875000Y-91412000D02*
X156721750Y-91412000D01*
X156721750Y-91412000D02*
X161055250Y-95745500D01*
X164325500Y-95745500D02*
X166040000Y-97460000D01*
X161055250Y-95745500D02*
X164325500Y-95745500D01*
X155875000Y-93362000D02*
X157179500Y-93362000D01*
X162293500Y-96253500D02*
X163500000Y-97460000D01*
X157179500Y-93362000D02*
X160071000Y-96253500D01*
X160071000Y-96253500D02*
X162293500Y-96253500D01*
X115700000Y-73550000D02*
X116984000Y-73550000D01*
X149981000Y-71019000D02*
X149900000Y-71100000D01*
X151450000Y-71019000D02*
X149981000Y-71019000D01*
X117184000Y-73750000D02*
X117970500Y-74536500D01*
X116984000Y-73550000D02*
X117184000Y-73750000D01*
X153150000Y-79919000D02*
X153150000Y-81150000D01*
X167677500Y-79755000D02*
X166155000Y-79755000D01*
X166155000Y-79755000D02*
X166000000Y-79600000D01*
X153150000Y-81150000D02*
X152900000Y-81400000D01*
X171073000Y-91427000D02*
X171200000Y-91300000D01*
X182400000Y-86550000D02*
X186900000Y-86550000D01*
X188950000Y-87600000D02*
X190800000Y-89450000D01*
X177450000Y-91850000D02*
X178500000Y-90800000D01*
X180000000Y-87600000D02*
X181350000Y-87600000D01*
X187950000Y-87600000D02*
X188950000Y-87600000D01*
X178500000Y-90800000D02*
X178500000Y-89100000D01*
X171200000Y-91300000D02*
X175258000Y-91300000D01*
X178500000Y-89100000D02*
X180000000Y-87600000D01*
X190800000Y-89450000D02*
X190800000Y-91175000D01*
X169703000Y-91427000D02*
X171073000Y-91427000D01*
X181350000Y-87600000D02*
X182400000Y-86550000D01*
X175258000Y-91300000D02*
X177100000Y-93142000D01*
X190800000Y-91175000D02*
X192700000Y-93075000D01*
X186900000Y-86550000D02*
X187950000Y-87600000D01*
D75*
X135000000Y-67250000D02*
X135000000Y-69050000D01*
X135000000Y-69050000D02*
X135700000Y-69750000D01*
X139900000Y-56850000D02*
X141300000Y-58250000D01*
X138800000Y-56850000D02*
X139900000Y-56850000D01*
D74*
X161150000Y-71235000D02*
X161150000Y-68519000D01*
X155054500Y-77330500D02*
X161150000Y-71235000D01*
X126199000Y-79708822D02*
X126295533Y-79612289D01*
X126199000Y-80429500D02*
X126199000Y-79708822D01*
X152959000Y-77330500D02*
X155054500Y-77330500D01*
D75*
X105300000Y-60000000D02*
X105100000Y-60200000D01*
X105100000Y-60200000D02*
X105100000Y-63400000D01*
D76*
X107145000Y-64350000D02*
X108150000Y-64350000D01*
D75*
X112925000Y-64325000D02*
X114250000Y-63000000D01*
X105700000Y-64000000D02*
X105900000Y-64000000D01*
X111325000Y-64325000D02*
X111325000Y-65675000D01*
X108400000Y-64100000D02*
X111100000Y-64100000D01*
X111325000Y-64325000D02*
X112925000Y-64325000D01*
D76*
X105900000Y-64000000D02*
X106250000Y-64350000D01*
D75*
X105400000Y-63700000D02*
X105700000Y-64000000D01*
X111325000Y-65675000D02*
X111450000Y-65800000D01*
D74*
X106250000Y-64350000D02*
X107145000Y-64350000D01*
D75*
X111100000Y-64100000D02*
X111325000Y-64325000D01*
X109565499Y-58534501D02*
X109620000Y-58534501D01*
X108650000Y-59450000D02*
X109565499Y-58534501D01*
D76*
X107145000Y-59450000D02*
X106350000Y-59450000D01*
X108150000Y-64350000D02*
X108400000Y-64100000D01*
X106350000Y-59450000D02*
X105800000Y-60000000D01*
D75*
X105100000Y-63400000D02*
X105400000Y-63700000D01*
X105800000Y-60000000D02*
X105300000Y-60000000D01*
D76*
X107145000Y-59450000D02*
X108650000Y-59450000D01*
D75*
X109600000Y-54400000D02*
X109783976Y-54216024D01*
D74*
X131260000Y-90102500D02*
X131260000Y-88860000D01*
D75*
X115575002Y-56361994D02*
X115575002Y-54361998D01*
X114000000Y-65800000D02*
X111900000Y-67900000D01*
X115574998Y-56938002D02*
X115574998Y-56361998D01*
X116390650Y-81640650D02*
X119450000Y-84700000D01*
X109783976Y-54216024D02*
X113398000Y-54216024D01*
X114640650Y-81640650D02*
X116390650Y-81640650D01*
X115574998Y-56361998D02*
X115575002Y-56361994D01*
D74*
X112800000Y-54814024D02*
X113398000Y-54216024D01*
D75*
X114250000Y-65800000D02*
X114600000Y-65800000D01*
D74*
X119050000Y-59200000D02*
X119050000Y-59850000D01*
D75*
X113975000Y-59000000D02*
X115000000Y-59000000D01*
X129325000Y-87100000D02*
X129325000Y-87475000D01*
X129325000Y-87475000D02*
X129300000Y-87500000D01*
D74*
X112800000Y-55225000D02*
X112800000Y-54814024D01*
X128100000Y-92300000D02*
X128000000Y-92400000D01*
X131760000Y-90102500D02*
X131760000Y-89360000D01*
D75*
X114600000Y-65800000D02*
X115500000Y-64900000D01*
X115500000Y-59500000D02*
X116350000Y-58650000D01*
D74*
X118375000Y-57825000D02*
X119050000Y-58500000D01*
D75*
X130400000Y-88600000D02*
X131000000Y-88600000D01*
X111900000Y-67900000D02*
X111900000Y-78900000D01*
X131000000Y-88600000D02*
X131260000Y-88860000D01*
X114250000Y-65800000D02*
X114000000Y-65800000D01*
D74*
X131760000Y-89360000D02*
X131260000Y-88860000D01*
D75*
X105000000Y-53925000D02*
X105475000Y-54400000D01*
X126500000Y-84700000D02*
X129300000Y-87500000D01*
D74*
X119050000Y-58500000D02*
X119050000Y-59200000D01*
X129062500Y-92300000D02*
X128100000Y-92300000D01*
D75*
X115000000Y-59000000D02*
X115500000Y-59500000D01*
D74*
X116850000Y-58650000D02*
X117675000Y-57825000D01*
D75*
X115429028Y-54216024D02*
X113398000Y-54216024D01*
D74*
X116350000Y-58650000D02*
X116850000Y-58650000D01*
D75*
X115575002Y-54361998D02*
X115429028Y-54216024D01*
X119450000Y-84700000D02*
X126500000Y-84700000D01*
X111900000Y-78900000D02*
X114640650Y-81640650D01*
X129300000Y-87500000D02*
X130400000Y-88600000D01*
X116350000Y-58650000D02*
X116350000Y-57713004D01*
X116350000Y-57713004D02*
X115574998Y-56938002D01*
X105475000Y-54400000D02*
X109600000Y-54400000D01*
X115500000Y-64900000D02*
X115500000Y-59500000D01*
D74*
X117675000Y-57825000D02*
X118375000Y-57825000D01*
X108475000Y-52400000D02*
X108475000Y-53775000D01*
X106250000Y-63650000D02*
X107145000Y-63650000D01*
X108475000Y-53775000D02*
X108500000Y-53800000D01*
X105800000Y-63200000D02*
X106250000Y-63650000D01*
X107775000Y-53175000D02*
X107900000Y-53300000D01*
X108435000Y-50520000D02*
X108435000Y-51175000D01*
X107145000Y-60650000D02*
X105750000Y-60650000D01*
X108435000Y-51175000D02*
X107775000Y-51835000D01*
X105750000Y-60650000D02*
X105700000Y-60600000D01*
X107775000Y-51835000D02*
X107775000Y-53175000D01*
X112792000Y-56883000D02*
X112800000Y-56875000D01*
X112800000Y-56875000D02*
X112821766Y-56875000D01*
X111240000Y-56883000D02*
X112792000Y-56883000D01*
X118550000Y-59850000D02*
X118550000Y-58754060D01*
X112821766Y-56875000D02*
X113835883Y-57889117D01*
X113835883Y-57889117D02*
X115510883Y-57889117D01*
X118550000Y-58754060D02*
X118095950Y-58300010D01*
X107145000Y-61650000D02*
X108750000Y-61650000D01*
X112350000Y-63000000D02*
X109645500Y-63000000D01*
X109645500Y-63000000D02*
X109637000Y-62991500D01*
X108900000Y-62600000D02*
X109245500Y-62600000D01*
X108900000Y-61800000D02*
X108900000Y-62600000D01*
X107145000Y-62650000D02*
X108950000Y-62650000D01*
X108750000Y-61650000D02*
X108900000Y-61800000D01*
X108900000Y-62600000D02*
X108950000Y-62650000D01*
X120600000Y-63700000D02*
X118600000Y-65700000D01*
X120425722Y-61050000D02*
X120600000Y-61224278D01*
X120600000Y-61224278D02*
X120600000Y-63700000D01*
X109245500Y-62600000D02*
X109637000Y-62991500D01*
X119750000Y-61050000D02*
X120425722Y-61050000D01*
X120350000Y-60550000D02*
X119750000Y-60550000D01*
X106770000Y-62150000D02*
X106095400Y-62150000D01*
X105822300Y-61348200D02*
X106020500Y-61150000D01*
X105822300Y-61876900D02*
X105822300Y-61348200D01*
X109637000Y-60771500D02*
X112321500Y-60771500D01*
X112321500Y-60771500D02*
X112350000Y-60800000D01*
X107145000Y-61150000D02*
X109258500Y-61150000D01*
X119651746Y-65355366D02*
X121000000Y-64007112D01*
X106095400Y-62150000D02*
X105822300Y-61876900D01*
X106020500Y-61150000D02*
X106770000Y-61150000D01*
X121000000Y-64007112D02*
X121000000Y-61200000D01*
X121000000Y-61200000D02*
X120350000Y-60550000D01*
X109258500Y-61150000D02*
X109637000Y-60771500D01*
X168900000Y-85200000D02*
X170200000Y-86500000D01*
X168900000Y-84600000D02*
X168900000Y-85200000D01*
X164373499Y-75819000D02*
X165212074Y-76657575D01*
X170975000Y-86500000D02*
X172475000Y-88000000D01*
X162850000Y-75819000D02*
X164373499Y-75819000D01*
X170200000Y-86500000D02*
X170975000Y-86500000D01*
X154722500Y-92712000D02*
X154546500Y-92888000D01*
X153950000Y-79919000D02*
X153950000Y-81550000D01*
X153950000Y-83738000D02*
X153594000Y-84094000D01*
X153950000Y-81550000D02*
X153950000Y-83738000D01*
X155875000Y-92712000D02*
X154722500Y-92712000D01*
X155842000Y-90729000D02*
X155809000Y-90762000D01*
X154265316Y-82934684D02*
X154265316Y-84596501D01*
X154767500Y-90762000D02*
X154546500Y-90983000D01*
X154750000Y-79919000D02*
X154750000Y-82450000D01*
X155809000Y-90762000D02*
X154767500Y-90762000D01*
X154750000Y-82450000D02*
X154265316Y-82934684D01*
X154075000Y-59100000D02*
X154075000Y-60475000D01*
X154075000Y-60475000D02*
X153700000Y-60850000D01*
X155125001Y-66925001D02*
X155550000Y-67350000D01*
X155050000Y-60850000D02*
X155125001Y-60925001D01*
X153700000Y-60850000D02*
X155050000Y-60850000D01*
X155125001Y-60925001D02*
X155125001Y-66925001D01*
X155550000Y-67350000D02*
X155550000Y-68519000D01*
X150900000Y-61375000D02*
X150900000Y-61750000D01*
X154750000Y-65600000D02*
X153700000Y-64550000D01*
X154750000Y-68519000D02*
X154750000Y-65600000D01*
X150900000Y-61750000D02*
X153700000Y-64550000D01*
X164610000Y-85570000D02*
X164760000Y-85720000D01*
X164610000Y-84569000D02*
X164610000Y-85570000D01*
X162966000Y-84569000D02*
X162966000Y-85426000D01*
X162966000Y-85426000D02*
X163160000Y-85620000D01*
X161310000Y-84569000D02*
X161310000Y-85420000D01*
X161310000Y-85420000D02*
X161510000Y-85620000D01*
X160210000Y-85119000D02*
X159660000Y-84569000D01*
X160210000Y-85720000D02*
X160210000Y-85119000D01*
X158750000Y-79919000D02*
X158750000Y-81810000D01*
X158750000Y-81810000D02*
X159660000Y-82720000D01*
X159660000Y-82720000D02*
X159660000Y-82919000D01*
X159550000Y-81360000D02*
X161109000Y-82919000D01*
X161109000Y-82919000D02*
X161310000Y-82919000D01*
X159550000Y-79919000D02*
X159550000Y-81360000D01*
X160350000Y-81210000D02*
X161410000Y-82270000D01*
X161410000Y-82270000D02*
X162317000Y-82270000D01*
X160350000Y-79919000D02*
X160350000Y-81210000D01*
X162317000Y-82270000D02*
X162966000Y-82919000D01*
X161710000Y-81920000D02*
X163611000Y-81920000D01*
X161150000Y-79919000D02*
X161150000Y-81360000D01*
X161150000Y-81360000D02*
X161710000Y-81920000D01*
X163611000Y-81920000D02*
X164610000Y-82919000D01*
X157979600Y-82909600D02*
X158039000Y-82969000D01*
X157950000Y-79919000D02*
X157950000Y-82880000D01*
X157950000Y-82880000D02*
X158039000Y-82969000D01*
X121875000Y-76775000D02*
X134900000Y-76775000D01*
X169075000Y-88000000D02*
X169075000Y-87375000D01*
X150800000Y-79100000D02*
X151600000Y-79900000D01*
X156700000Y-82100000D02*
X156700000Y-84100000D01*
X151600000Y-79900000D02*
X151600000Y-81900000D01*
X168700000Y-87000000D02*
X169075000Y-87375000D01*
X118900000Y-73800000D02*
X121875000Y-76775000D01*
X156700000Y-84100000D02*
X156800000Y-84200000D01*
X134900000Y-76775000D02*
X139025000Y-80900000D01*
X168700000Y-86600000D02*
X167600000Y-85500000D01*
X173402500Y-84305000D02*
X172305000Y-84305000D01*
X148000000Y-80900000D02*
X149800000Y-79100000D01*
X139025000Y-80900000D02*
X148000000Y-80900000D01*
X149800000Y-79100000D02*
X150800000Y-79100000D01*
X168700000Y-86600000D02*
X168700000Y-87000000D01*
X172305000Y-84305000D02*
X172000000Y-84000000D01*
X170103000Y-93967000D02*
X171817000Y-93967000D01*
X171817000Y-93967000D02*
X172600000Y-94750000D01*
X172153000Y-92697000D02*
X172600000Y-92250000D01*
X170103000Y-92697000D02*
X172153000Y-92697000D01*
X163375000Y-65836000D02*
X161333000Y-65836000D01*
X164263000Y-64948000D02*
X163375000Y-65836000D01*
X161333000Y-65836000D02*
X159550000Y-67619000D01*
X159550000Y-67619000D02*
X159550000Y-68519000D01*
X139052000Y-82029500D02*
X141529500Y-82029500D01*
X142900000Y-83400000D02*
X145200000Y-83400000D01*
X151424500Y-73393500D02*
X151450000Y-73419000D01*
X146100000Y-82500000D02*
X146100000Y-82098000D01*
X141529500Y-82029500D02*
X142900000Y-83400000D01*
X146100000Y-85898000D02*
X146100000Y-82098000D01*
X147702000Y-82098000D02*
X149727582Y-80072418D01*
X145200000Y-83400000D02*
X146100000Y-82500000D01*
X146100000Y-82098000D02*
X147702000Y-82098000D01*
X150101500Y-73393500D02*
X151424500Y-73393500D01*
X149727582Y-80072418D02*
X150183142Y-80072418D01*
X181900000Y-54500000D02*
X182900000Y-55500000D01*
X182900000Y-55500000D02*
X182900000Y-57700000D01*
X169134500Y-57884500D02*
X168750000Y-57500000D01*
X165200000Y-55959000D02*
X164574500Y-56584500D01*
X170299500Y-57884500D02*
X169134500Y-57884500D01*
X164425000Y-53200000D02*
X164425000Y-53425000D01*
X164425000Y-53425000D02*
X165200000Y-54200000D01*
X164574500Y-56584500D02*
X165665500Y-56584500D01*
X165665500Y-56584500D02*
X166000000Y-56250000D01*
X165200000Y-54200000D02*
X165200000Y-55959000D01*
X168961000Y-56947000D02*
X168961000Y-55550000D01*
X168961000Y-55550000D02*
X169342000Y-55169000D01*
X169248500Y-57234500D02*
X168961000Y-56947000D01*
X174803000Y-55169000D02*
X173470000Y-55169000D01*
X170299500Y-57234500D02*
X169248500Y-57234500D01*
X169342000Y-55169000D02*
X173470000Y-55169000D01*
X175120000Y-54026000D02*
X175120000Y-54852000D01*
X175120000Y-54852000D02*
X174803000Y-55169000D01*
X173470000Y-55169000D02*
X173470000Y-56248500D01*
X123337500Y-86812500D02*
X126500000Y-86812500D01*
X122550000Y-86025000D02*
X123337500Y-86812500D01*
X128400000Y-90800000D02*
X129062500Y-90800000D01*
X126500000Y-86812500D02*
X128100000Y-88412500D01*
X120950000Y-86025000D02*
X122550000Y-86025000D01*
X128100000Y-90500000D02*
X128400000Y-90800000D01*
X128100000Y-88412500D02*
X128100000Y-90500000D01*
X170299500Y-59184500D02*
X164574500Y-59184500D01*
X164574500Y-59184500D02*
X161864500Y-59184500D01*
X161864500Y-59184500D02*
X161855000Y-59175000D01*
X129750000Y-89162500D02*
X129750000Y-89350000D01*
X124150000Y-86025000D02*
X125800000Y-86025000D01*
X126612500Y-86025000D02*
X129750000Y-89162500D01*
X129750000Y-90112500D02*
X129750000Y-89350000D01*
X126612500Y-86025000D02*
X125800000Y-86025000D01*
X165686000Y-81055000D02*
X165115500Y-80484500D01*
X162850000Y-78219000D02*
X163819000Y-78219000D01*
X167677500Y-81055000D02*
X165686000Y-81055000D01*
X165115500Y-79515500D02*
X165115500Y-80484500D01*
X163819000Y-78219000D02*
X165115500Y-79515500D01*
X165524999Y-79828001D02*
X166101998Y-80405000D01*
X166101998Y-80405000D02*
X167677500Y-80405000D01*
X165524999Y-79193999D02*
X165524999Y-79828001D01*
X163750000Y-77419000D02*
X165524999Y-79193999D01*
X162850000Y-77419000D02*
X163750000Y-77419000D01*
X167425000Y-88000000D02*
X166600000Y-87175000D01*
X170725000Y-88000000D02*
X170725000Y-88075000D01*
D75*
X157689200Y-64992200D02*
X157658000Y-64961000D01*
X135560000Y-49200000D02*
X137883500Y-51523500D01*
D74*
X169800000Y-89000000D02*
X168425000Y-89000000D01*
X166305000Y-84305000D02*
X166150000Y-84150000D01*
D75*
X143142500Y-51523500D02*
X143180000Y-51486000D01*
X157860000Y-66320000D02*
X157860000Y-65163000D01*
X115675000Y-91275000D02*
X115400000Y-91000000D01*
X115700000Y-76850000D02*
X117400000Y-76850000D01*
D74*
X170680000Y-75720000D02*
X170800000Y-75600000D01*
D75*
X153581000Y-75019000D02*
X157418219Y-71181781D01*
X149086000Y-62154500D02*
X149086000Y-63147000D01*
X135417500Y-81125000D02*
X136322000Y-82029500D01*
X159835700Y-64973500D02*
X159817000Y-64992200D01*
X151450000Y-75019000D02*
X148285000Y-75019000D01*
X159817000Y-64992200D02*
X157689200Y-64992200D01*
D74*
X169030000Y-76070000D02*
X169500000Y-75600000D01*
X166600000Y-84550000D02*
X166845000Y-84305000D01*
D75*
X161976000Y-64973500D02*
X159835700Y-64973500D01*
X157860000Y-65163000D02*
X157658000Y-64961000D01*
X150928000Y-62928000D02*
X150400000Y-62400000D01*
D74*
X172330000Y-76485000D02*
X172330000Y-75730000D01*
X169030000Y-76485000D02*
X169030000Y-76070000D01*
D75*
X157150000Y-67030000D02*
X157150000Y-68519000D01*
D74*
X166845000Y-84305000D02*
X166305000Y-84305000D01*
D75*
X151450000Y-75019000D02*
X153581000Y-75019000D01*
X146758000Y-51486000D02*
X149086000Y-53814000D01*
X134850000Y-81125000D02*
X135417500Y-81125000D01*
X143180000Y-51486000D02*
X146758000Y-51486000D01*
X136322000Y-82029500D02*
X137402000Y-82029500D01*
X115675000Y-92100000D02*
X115675000Y-91275000D01*
D78*
X128550000Y-81125000D02*
X134850000Y-81125000D01*
D75*
X117400000Y-76850000D02*
X117650000Y-77100000D01*
X157418219Y-71181781D02*
X157418219Y-69599349D01*
D74*
X168425000Y-89000000D02*
X167425000Y-88000000D01*
D75*
X159817000Y-64992200D02*
X159817000Y-65011000D01*
D74*
X166600000Y-87175000D02*
X166600000Y-84550000D01*
D75*
X110985500Y-91237000D02*
X111763000Y-91237000D01*
X111763000Y-91237000D02*
X112000000Y-91000000D01*
X137883500Y-51523500D02*
X143142500Y-51523500D01*
D74*
X170680000Y-76485000D02*
X170680000Y-75720000D01*
D75*
X143180000Y-51486000D02*
X143180000Y-49200000D01*
X148285000Y-75019000D02*
X148133000Y-74867000D01*
X112000000Y-91000000D02*
X115400000Y-91000000D01*
D74*
X172330000Y-75730000D02*
X172200000Y-75600000D01*
D75*
X150928000Y-63361000D02*
X150928000Y-62928000D01*
D74*
X166845000Y-84305000D02*
X167677500Y-84305000D01*
X170725000Y-88075000D02*
X169800000Y-89000000D01*
D75*
X149086000Y-53814000D02*
X149086000Y-62154500D01*
X157860000Y-66320000D02*
X157150000Y-67030000D01*
X157150000Y-69331130D02*
X157150000Y-68519000D01*
X157418219Y-69599349D02*
X157150000Y-69331130D01*
X117600000Y-77050000D02*
X117650000Y-77100000D01*
X149086000Y-63147000D02*
X149300000Y-63361000D01*
D74*
X144200000Y-84700000D02*
X145000000Y-85500000D01*
X145000000Y-87000000D02*
X145250000Y-87250000D01*
X140650000Y-84700000D02*
X144200000Y-84700000D01*
X146750000Y-87250000D02*
X147000000Y-87000000D01*
X138939000Y-86411000D02*
X140650000Y-84700000D01*
X147000000Y-87000000D02*
X147000000Y-85500000D01*
X161600000Y-91412000D02*
X160340498Y-91412000D01*
X153000000Y-84700000D02*
X153500000Y-85200000D01*
X154400000Y-85200000D02*
X154740326Y-84859674D01*
X160340498Y-91412000D02*
X160324998Y-91427500D01*
X147000000Y-85500000D02*
X147800000Y-84700000D01*
X147800000Y-84700000D02*
X153000000Y-84700000D01*
X145000000Y-85500000D02*
X145000000Y-87000000D01*
X156224999Y-80044001D02*
X156224999Y-84539851D01*
X153500000Y-85200000D02*
X154400000Y-85200000D01*
X156224999Y-84539851D02*
X156297641Y-84612493D01*
X156350000Y-79919000D02*
X156224999Y-80044001D01*
X154740326Y-84859674D02*
X154740326Y-83507176D01*
X145250000Y-87250000D02*
X146750000Y-87250000D01*
D75*
X178676500Y-55486500D02*
X178676500Y-56820000D01*
D74*
X159400000Y-58800000D02*
X158999989Y-58399989D01*
D75*
X168599998Y-63699998D02*
X172250002Y-63699998D01*
D74*
X183500000Y-66125000D02*
X183500000Y-64775000D01*
X177725000Y-63850000D02*
X177725000Y-64625000D01*
D75*
X169025000Y-64125000D02*
X169025000Y-64900000D01*
X173050002Y-63699998D02*
X174697500Y-62052500D01*
X162890500Y-63398500D02*
X161976000Y-63398500D01*
D74*
X180305000Y-66195000D02*
X181375000Y-66195000D01*
D76*
X165600000Y-74225000D02*
X166775000Y-74225000D01*
D74*
X159800000Y-62100000D02*
X159800000Y-61335000D01*
D75*
X164263000Y-62789000D02*
X165173998Y-63699998D01*
X168725000Y-67995000D02*
X166405000Y-67995000D01*
X164263000Y-62789000D02*
X163500000Y-62789000D01*
D74*
X176070000Y-84130000D02*
X176500000Y-84130000D01*
X161211000Y-63511000D02*
X159800000Y-62100000D01*
D75*
X177851000Y-54026000D02*
X177851000Y-54661000D01*
D74*
X161976000Y-63511000D02*
X161211000Y-63511000D01*
D76*
X165600000Y-74225000D02*
X164037000Y-74225000D01*
D75*
X169025000Y-64900000D02*
X169025000Y-67695000D01*
D74*
X178650000Y-63075000D02*
X177875000Y-63850000D01*
D75*
X168599998Y-63699998D02*
X169025000Y-64125000D01*
D74*
X183430000Y-66195000D02*
X183500000Y-66125000D01*
D76*
X166775000Y-74225000D02*
X167700000Y-73300000D01*
D75*
X163500000Y-62789000D02*
X162890500Y-63398500D01*
D74*
X161275000Y-54800000D02*
X162775000Y-54800000D01*
D75*
X169025000Y-67695000D02*
X168725000Y-67995000D01*
X166405000Y-67995000D02*
X166250000Y-68150000D01*
X178676500Y-56820000D02*
X179501000Y-57644500D01*
D74*
X157880000Y-56635000D02*
X156905000Y-56635000D01*
X174425000Y-64150000D02*
X174725000Y-63850000D01*
D75*
X172250002Y-63699998D02*
X173050002Y-63699998D01*
D74*
X183500000Y-64775000D02*
X183775000Y-64500000D01*
D75*
X175057000Y-61646000D02*
X177216000Y-59487000D01*
D74*
X158999989Y-57754989D02*
X157880000Y-56635000D01*
X158999989Y-58399989D02*
X158999989Y-57754989D01*
X159400000Y-60935000D02*
X159400000Y-58800000D01*
D75*
X165173998Y-63699998D02*
X168599998Y-63699998D01*
D74*
X179475000Y-60566500D02*
X179475000Y-60575000D01*
X159800000Y-61335000D02*
X159400000Y-60935000D01*
X176500000Y-84050000D02*
X177729000Y-82821000D01*
D75*
X177216000Y-59487000D02*
X179501000Y-59487000D01*
D74*
X181375000Y-66195000D02*
X183430000Y-66195000D01*
X176500000Y-84130000D02*
X176500000Y-84050000D01*
X179800000Y-66700000D02*
X180305000Y-66195000D01*
D76*
X164037000Y-74225000D02*
X164031000Y-74219000D01*
D74*
X162850000Y-74219000D02*
X164031000Y-74219000D01*
X162775000Y-62100000D02*
X162811000Y-62100000D01*
X177725000Y-64625000D02*
X179800000Y-66700000D01*
D75*
X175057000Y-62052500D02*
X175057000Y-61646000D01*
D74*
X173600000Y-64150000D02*
X174425000Y-64150000D01*
D75*
X174697500Y-62052500D02*
X175057000Y-62052500D01*
D74*
X161275000Y-54800000D02*
X159800000Y-56275000D01*
D75*
X173050002Y-63699998D02*
X173149998Y-63699998D01*
D74*
X162811000Y-62100000D02*
X163500000Y-62789000D01*
X181175000Y-78045000D02*
X180255000Y-78045000D01*
X159800000Y-56275000D02*
X159800000Y-57800000D01*
D75*
X173600000Y-64150000D02*
X173149998Y-63699998D01*
D74*
X178650000Y-61400000D02*
X178650000Y-63075000D01*
X180255000Y-78045000D02*
X179650000Y-78650000D01*
D75*
X179501000Y-59487000D02*
X179501000Y-58407500D01*
D74*
X175200000Y-85000000D02*
X176070000Y-84130000D01*
D75*
X177851000Y-54661000D02*
X178676500Y-55486500D01*
D74*
X179475000Y-60575000D02*
X178650000Y-61400000D01*
D75*
X179501000Y-57644500D02*
X179501000Y-58407500D01*
D74*
X185645000Y-81855000D02*
X184203000Y-81855000D01*
D76*
X146037500Y-90094000D02*
X147243000Y-90094000D01*
D74*
X186000000Y-81500000D02*
X185645000Y-81855000D01*
X190805000Y-70805000D02*
X190650000Y-70650000D01*
X168934500Y-58534500D02*
X170299500Y-58534500D01*
D75*
X180825000Y-62975000D02*
X180550000Y-63250000D01*
D74*
X168000000Y-55075000D02*
X168000000Y-57600000D01*
D76*
X146215000Y-88372000D02*
X145903000Y-88372000D01*
D74*
X169075000Y-54000000D02*
X168000000Y-55075000D01*
D76*
X145402500Y-87871500D02*
X145402500Y-89459000D01*
D75*
X145955000Y-56700000D02*
X146455000Y-57200000D01*
X145150000Y-56700000D02*
X145150000Y-58475000D01*
D76*
X145402500Y-89459000D02*
X146037500Y-90094000D01*
D75*
X145150000Y-56700000D02*
X145955000Y-56700000D01*
D76*
X145903000Y-88372000D02*
X145402500Y-87871500D01*
D74*
X168200000Y-58400000D02*
X167800000Y-58400000D01*
X168000000Y-57600000D02*
X168500000Y-58100000D01*
X168500000Y-58100000D02*
X168934500Y-58534500D01*
D75*
X181800000Y-62975000D02*
X180825000Y-62975000D01*
D74*
X168500000Y-58100000D02*
X168200000Y-58400000D01*
D75*
X184203000Y-62789000D02*
X181986000Y-62789000D01*
X181986000Y-62789000D02*
X181800000Y-62975000D01*
X145150000Y-58475000D02*
X145650000Y-58975000D01*
D74*
X190805000Y-72075000D02*
X190805000Y-70805000D01*
D75*
X187503000Y-58979000D02*
X189153000Y-58979000D01*
D76*
X142293000Y-93904000D02*
X143896000Y-93904000D01*
D77*
X182482500Y-58325000D02*
X182557500Y-58400000D01*
D76*
X143820000Y-87872000D02*
X143320000Y-88372000D01*
D74*
X187900000Y-77300000D02*
X188645000Y-78045000D01*
D76*
X143896000Y-93904000D02*
X144100000Y-93700000D01*
D75*
X135200000Y-71200000D02*
X136100000Y-71200000D01*
D74*
X166050000Y-58550000D02*
X166475001Y-58124999D01*
D75*
X133600000Y-69150000D02*
X132050000Y-67600000D01*
D74*
X166034500Y-58534500D02*
X166050000Y-58550000D01*
X166475001Y-54550001D02*
X165925000Y-54000000D01*
D76*
X144132016Y-87872000D02*
X143820000Y-87872000D01*
D74*
X164574500Y-58534500D02*
X166034500Y-58534500D01*
X186645000Y-66455000D02*
X186645000Y-67125000D01*
D75*
X133700000Y-69150000D02*
X133600000Y-69150000D01*
D74*
X187600000Y-65500000D02*
X186645000Y-66455000D01*
X188645000Y-78045000D02*
X189153000Y-78045000D01*
D75*
X133700000Y-69150000D02*
X133700000Y-69700000D01*
D74*
X166475001Y-58124999D02*
X166475001Y-54550001D01*
D75*
X133700000Y-69700000D02*
X135200000Y-71200000D01*
D77*
X181800000Y-58325000D02*
X182482500Y-58325000D01*
D74*
X160549498Y-93362000D02*
X160324998Y-93586500D01*
X155314960Y-84785040D02*
X155314960Y-83811004D01*
X152800000Y-87300000D02*
X155314960Y-84785040D01*
X155550000Y-83575964D02*
X155314960Y-83811004D01*
X152475000Y-87300000D02*
X152800000Y-87300000D01*
X161600000Y-93362000D02*
X160549498Y-93362000D01*
X155550000Y-79919000D02*
X155550000Y-83575964D01*
X157950000Y-68519000D02*
X157950000Y-67259504D01*
X157950000Y-67259504D02*
X158737504Y-66472000D01*
X158750000Y-67450000D02*
X159200000Y-67000000D01*
X166275000Y-66000000D02*
X167375000Y-64900000D01*
X166000000Y-66000000D02*
X166275000Y-66000000D01*
X158750000Y-68519000D02*
X158750000Y-67450000D01*
X166600000Y-64400000D02*
X166461000Y-64400000D01*
X161769011Y-66199989D02*
X160350000Y-67619000D01*
X166461000Y-64400000D02*
X165913000Y-64948000D01*
X160350000Y-67619000D02*
X160350000Y-68519000D01*
X164661011Y-66199989D02*
X161769011Y-66199989D01*
X165913000Y-64948000D02*
X164661011Y-66199989D01*
X119091000Y-68587000D02*
X119091000Y-72037000D01*
X135148123Y-76175979D02*
X139272122Y-80299978D01*
X119091000Y-72037000D02*
X123229978Y-76175978D01*
X150432443Y-77419000D02*
X151450000Y-77419000D01*
X147551465Y-80299978D02*
X150432443Y-77419000D01*
X123229978Y-76175978D02*
X135148123Y-76175979D01*
X139272122Y-80299978D02*
X147551465Y-80299978D01*
X117450000Y-71031500D02*
X117450000Y-68587000D01*
X147675733Y-80599989D02*
X139148561Y-80599989D01*
X135024061Y-76475489D02*
X122893989Y-76475489D01*
X139148561Y-80599989D02*
X135024061Y-76475489D01*
X122893989Y-76475489D02*
X117450000Y-71031500D01*
X150056722Y-78219000D02*
X147675733Y-80599989D01*
X151450000Y-78219000D02*
X150056722Y-78219000D01*
X110985500Y-88697000D02*
X112688500Y-90400000D01*
X113907000Y-89840000D02*
X113760000Y-89840000D01*
X113907000Y-89840000D02*
X113843000Y-89840000D01*
X113760000Y-89840000D02*
X113200000Y-90400000D01*
X112688500Y-90400000D02*
X113200000Y-90400000D01*
X113819000Y-87681000D02*
X113200000Y-88300000D01*
X113907000Y-87681000D02*
X113819000Y-87681000D01*
X103400000Y-56500000D02*
X105000000Y-57200000D01*
X103400000Y-57100000D02*
X103400000Y-56500000D01*
X105000000Y-57200000D02*
X105000000Y-56600000D01*
X105000000Y-56600000D02*
X105000000Y-55900000D01*
X105000000Y-55900000D02*
X106200000Y-56570000D01*
X103570000Y-67230000D02*
X104970000Y-67230000D01*
X104970000Y-67230000D02*
X106200000Y-67230000D01*
X140900000Y-64200000D02*
X140900000Y-66100000D01*
X143700000Y-64700000D02*
X143700000Y-66100000D01*
D75*
X132075000Y-53225000D02*
X132075000Y-53325000D01*
D74*
X109400000Y-51500000D02*
X110085000Y-50815000D01*
D75*
X121460000Y-90420000D02*
X122130000Y-90420000D01*
D74*
X157175001Y-81724999D02*
X157175001Y-83655001D01*
X152525000Y-59100000D02*
X152400000Y-59100000D01*
D75*
X129675000Y-79400000D02*
X130650000Y-79400000D01*
X131600182Y-87100000D02*
X131600000Y-87100182D01*
D74*
X170625000Y-54000000D02*
X170625000Y-53275000D01*
X132250000Y-93250000D02*
X131700000Y-92700000D01*
X129750000Y-94500000D02*
X129750000Y-93987500D01*
D75*
X120460000Y-92720000D02*
X120460000Y-91420000D01*
D74*
X157972000Y-87328000D02*
X158000000Y-87300000D01*
X141770000Y-88624000D02*
X141770000Y-87828000D01*
D75*
X123760000Y-90420000D02*
X126415000Y-93075000D01*
D74*
X143700000Y-82098000D02*
X144441172Y-82839172D01*
X102860000Y-55910000D02*
X102200000Y-56570000D01*
D75*
X127000000Y-94605000D02*
X126960000Y-94645000D01*
D74*
X151800000Y-59800000D02*
X151675000Y-59825000D01*
D75*
X138800000Y-53350000D02*
X138800000Y-54400000D01*
D74*
X102200000Y-56570000D02*
X103400000Y-57100000D01*
X114070000Y-61130000D02*
X113300000Y-61900000D01*
X188345000Y-81855000D02*
X187800000Y-82400000D01*
D75*
X106770000Y-58145000D02*
X106770000Y-58550000D01*
D74*
X189153000Y-81855000D02*
X188345000Y-81855000D01*
X157150000Y-81699998D02*
X157175001Y-81724999D01*
X147243000Y-91364000D02*
X145736000Y-91364000D01*
X116850000Y-60550000D02*
X117550000Y-60550000D01*
X127725000Y-97475000D02*
X128400000Y-96800000D01*
D75*
X132075000Y-53225000D02*
X133475000Y-53225000D01*
X122130000Y-90420000D02*
X123760000Y-90420000D01*
D74*
X154665729Y-94031000D02*
X154612563Y-94084166D01*
X173402500Y-81055000D02*
X172115000Y-81055000D01*
X161200000Y-62100000D02*
X160500000Y-61400000D01*
X156350000Y-66650000D02*
X156350000Y-68519000D01*
X126337500Y-69110000D02*
X125710000Y-69110000D01*
D75*
X132600000Y-54300000D02*
X132600000Y-55475000D01*
D74*
X110867000Y-55233000D02*
X109950000Y-56150000D01*
X179925000Y-64575000D02*
X179900000Y-64600000D01*
X173200000Y-89900000D02*
X173100000Y-90000000D01*
D75*
X127050000Y-64925000D02*
X127050000Y-65125000D01*
X120460000Y-91420000D02*
X121460000Y-90420000D01*
D74*
X179925000Y-64500000D02*
X180725000Y-64500000D01*
D75*
X128550000Y-78825000D02*
X129125000Y-79400000D01*
X196520000Y-88760500D02*
X196520000Y-87300000D01*
D74*
X116200000Y-60250000D02*
X116200000Y-60000000D01*
D75*
X131599818Y-87100000D02*
X131600000Y-87100182D01*
D74*
X125100000Y-68500000D02*
X125100000Y-68000000D01*
X188350000Y-64500000D02*
X187950000Y-64100000D01*
D76*
X127546675Y-68853325D02*
X127546675Y-68719298D01*
D74*
X164844000Y-75019000D02*
X165600000Y-75775000D01*
X112928000Y-92100000D02*
X112827000Y-91999000D01*
X108130000Y-56570000D02*
X108550000Y-56150000D01*
D75*
X129400000Y-67150000D02*
X129325000Y-67225000D01*
D77*
X136300000Y-58475000D02*
X136300000Y-58500000D01*
D75*
X129125000Y-79400000D02*
X129675000Y-79400000D01*
D74*
X176525000Y-85525000D02*
X177050000Y-85000000D01*
X170200000Y-90200000D02*
X168600000Y-90200000D01*
D75*
X132600000Y-55475000D02*
X132825000Y-55700000D01*
D74*
X144441172Y-82839172D02*
X144515207Y-82839172D01*
D75*
X131675000Y-66225000D02*
X131125000Y-66225000D01*
D74*
X119750000Y-61550000D02*
X118550000Y-61550000D01*
X142293000Y-89147000D02*
X141770000Y-88624000D01*
X157658000Y-63442000D02*
X156800000Y-64300000D01*
X141770000Y-87828000D02*
X143700000Y-85898000D01*
D77*
X182025000Y-59875000D02*
X182600000Y-59300000D01*
D74*
X123275000Y-67400000D02*
X122375000Y-66500000D01*
X155856000Y-94031000D02*
X154665729Y-94031000D01*
D75*
X106205000Y-57580000D02*
X106770000Y-58145000D01*
X131350000Y-54675000D02*
X131400000Y-54725000D01*
D74*
X116500000Y-60550000D02*
X116200000Y-60250000D01*
X135000000Y-94700000D02*
X135300000Y-95000000D01*
D77*
X182150000Y-60600000D02*
X182200000Y-60650000D01*
D74*
X110085000Y-50815000D02*
X110085000Y-50520000D01*
D75*
X131125000Y-66225000D02*
X130825000Y-65925000D01*
X129400000Y-66625000D02*
X129400000Y-67150000D01*
D74*
X157213000Y-87872000D02*
X157972000Y-87872000D01*
X158125000Y-54800000D02*
X158900000Y-54800000D01*
D77*
X181800000Y-60600000D02*
X182150000Y-60600000D01*
D74*
X189153000Y-62789000D02*
X190741500Y-62789000D01*
X102860000Y-53797500D02*
X102860000Y-55910000D01*
D77*
X136300000Y-58500000D02*
X137100000Y-59300000D01*
D74*
X173402500Y-79372000D02*
X173600000Y-79174500D01*
X102200000Y-67230000D02*
X103570000Y-67230000D01*
D75*
X130875000Y-85500000D02*
X132375000Y-85500000D01*
D74*
X125100000Y-68000000D02*
X124500000Y-67400000D01*
X156800000Y-66200000D02*
X156350000Y-66650000D01*
X117550000Y-60550000D02*
X118300000Y-61300000D01*
X185050000Y-69375000D02*
X185050000Y-69200000D01*
X111240000Y-55233000D02*
X110867000Y-55233000D01*
X173402500Y-79755000D02*
X173402500Y-79372000D01*
D75*
X112425000Y-59000000D02*
X112425000Y-59025000D01*
D74*
X151675000Y-59825000D02*
X150900000Y-59825000D01*
X157150000Y-78550000D02*
X157100000Y-78500000D01*
X173470000Y-54026000D02*
X173026000Y-54026000D01*
X148572000Y-88372000D02*
X148700000Y-88500000D01*
D77*
X137125000Y-59300000D02*
X137900000Y-58525000D01*
D74*
X158900000Y-55349653D02*
X158975337Y-55424990D01*
D76*
X129500000Y-94750000D02*
X129250000Y-95000000D01*
D74*
X152475000Y-85725000D02*
X151800000Y-86400000D01*
X158900000Y-54800000D02*
X159725000Y-54800000D01*
X125710000Y-69110000D02*
X125100000Y-68500000D01*
D75*
X127470000Y-94645000D02*
X128025000Y-95200000D01*
D74*
X156350000Y-68519000D02*
X156350000Y-69605782D01*
D75*
X131350000Y-54050000D02*
X131350000Y-54675000D01*
D77*
X181800000Y-60600000D02*
X181800000Y-59875000D01*
D74*
X162850000Y-75019000D02*
X164844000Y-75019000D01*
X135000000Y-94500000D02*
X135000000Y-93875000D01*
X129500000Y-94750000D02*
X129750000Y-94500000D01*
D75*
X129250000Y-95000000D02*
X129050000Y-95200000D01*
X107145000Y-65150000D02*
X107145000Y-65280000D01*
X129400000Y-66625000D02*
X130100000Y-66625000D01*
X114070000Y-60670000D02*
X114070000Y-60800000D01*
D74*
X106330000Y-67100000D02*
X106200000Y-67230000D01*
D75*
X128550000Y-66625000D02*
X129400000Y-66625000D01*
X127050000Y-65125000D02*
X128550000Y-66625000D01*
D74*
X161855000Y-57905000D02*
X160695000Y-57905000D01*
X167900000Y-52800000D02*
X167900000Y-52900000D01*
D75*
X127000000Y-93075000D02*
X127000000Y-94605000D01*
X131400000Y-54725000D02*
X131850000Y-54725000D01*
D74*
X143700000Y-62300000D02*
X143700000Y-64700000D01*
D75*
X132375000Y-87100000D02*
X131600182Y-87100000D01*
D74*
X106200000Y-56570000D02*
X108130000Y-56570000D01*
X179275000Y-63850000D02*
X179925000Y-64500000D01*
D75*
X132475000Y-84625000D02*
X132475000Y-84600000D01*
D74*
X157175001Y-83655001D02*
X158039000Y-84519000D01*
X118550000Y-61550000D02*
X118300000Y-61300000D01*
X158039000Y-84519000D02*
X158039000Y-85839500D01*
X163375000Y-87872000D02*
X163972000Y-87872000D01*
X156350000Y-69605782D02*
X156818718Y-70074500D01*
X137084000Y-97587000D02*
X137084000Y-98603000D01*
X163972000Y-87872000D02*
X164300000Y-88200000D01*
D75*
X126960000Y-94645000D02*
X127470000Y-94645000D01*
D76*
X124600000Y-83600000D02*
X125975000Y-83600000D01*
D74*
X157972000Y-87872000D02*
X158775000Y-87872000D01*
X148133000Y-73317000D02*
X149035000Y-74219000D01*
D75*
X138800000Y-54400000D02*
X138600000Y-54600000D01*
D74*
X149035000Y-74219000D02*
X151450000Y-74219000D01*
X176425000Y-70005000D02*
X177123955Y-70005000D01*
X109950000Y-56150000D02*
X108550000Y-56150000D01*
X161225000Y-62100000D02*
X161200000Y-62100000D01*
X170625000Y-53275000D02*
X170800000Y-53100000D01*
X170103000Y-90157000D02*
X170243000Y-90157000D01*
D75*
X131275000Y-66625000D02*
X131675000Y-66225000D01*
D74*
X139243000Y-97473000D02*
X139243000Y-98603000D01*
X147765000Y-88372000D02*
X148572000Y-88372000D01*
X161519000Y-75019000D02*
X161500000Y-75000000D01*
X151750000Y-59750000D02*
X151800000Y-59800000D01*
X158900000Y-54800000D02*
X158900000Y-55349653D01*
X176525000Y-85700000D02*
X176525000Y-85525000D01*
D75*
X132375000Y-84725000D02*
X132475000Y-84625000D01*
D74*
X156800000Y-64300000D02*
X156800000Y-66200000D01*
X155875000Y-94012000D02*
X155856000Y-94031000D01*
X188675000Y-64500000D02*
X188350000Y-64500000D01*
D76*
X126450000Y-69110000D02*
X127290000Y-69110000D01*
D75*
X129675000Y-79400000D02*
X130050000Y-79400000D01*
X132375000Y-85500000D02*
X132375000Y-87100000D01*
D74*
X177123955Y-70005000D02*
X177702270Y-69426685D01*
X185265000Y-80585000D02*
X185600000Y-80250000D01*
D75*
X197028000Y-89268500D02*
X196520000Y-88760500D01*
X135000000Y-64700000D02*
X134600000Y-65100000D01*
D74*
X167475000Y-54000000D02*
X167475000Y-53225000D01*
D77*
X137100000Y-59300000D02*
X137125000Y-59300000D01*
D74*
X184203000Y-80585000D02*
X185265000Y-80585000D01*
X117025000Y-56950000D02*
X116475000Y-56950000D01*
X164300000Y-88200000D02*
X164300000Y-88300000D01*
D75*
X132375000Y-85500000D02*
X132375000Y-84725000D01*
X131850000Y-54725000D02*
X132825000Y-55700000D01*
D74*
X140900000Y-62300000D02*
X140900000Y-64200000D01*
X157150000Y-79919000D02*
X157150000Y-81699998D01*
D75*
X126415000Y-93075000D02*
X127000000Y-93075000D01*
D74*
X175945000Y-81855000D02*
X174800000Y-83000000D01*
X110125000Y-52400000D02*
X109400000Y-51675000D01*
D75*
X197028000Y-90348000D02*
X197028000Y-89268500D01*
D74*
X134700000Y-94800000D02*
X135000000Y-94500000D01*
D75*
X112425000Y-59025000D02*
X114070000Y-60670000D01*
D74*
X157658000Y-63411000D02*
X157658000Y-63442000D01*
X157972000Y-87872000D02*
X157972000Y-87328000D01*
X173026000Y-54026000D02*
X172700000Y-53700000D01*
X132250000Y-93987500D02*
X132250000Y-93250000D01*
X117025000Y-55400000D02*
X117025000Y-56950000D01*
X152475000Y-85700000D02*
X152475000Y-85725000D01*
X185050000Y-69200000D02*
X185650000Y-68600000D01*
X179925000Y-64500000D02*
X179925000Y-64575000D01*
D75*
X135000000Y-64700000D02*
X135400000Y-65100000D01*
D74*
X174037500Y-89900000D02*
X173200000Y-89900000D01*
D75*
X130875000Y-87100000D02*
X131599818Y-87100000D01*
D74*
X116850000Y-60550000D02*
X116500000Y-60550000D01*
X152400000Y-59100000D02*
X151750000Y-59750000D01*
X114125000Y-92100000D02*
X112928000Y-92100000D01*
X142293000Y-90094000D02*
X142293000Y-89147000D01*
X160695000Y-57905000D02*
X160500000Y-58100000D01*
X116475000Y-56950000D02*
X116175000Y-56650000D01*
D75*
X130100000Y-66625000D02*
X131275000Y-66625000D01*
D77*
X181800000Y-59875000D02*
X182025000Y-59875000D01*
D74*
X162850000Y-75019000D02*
X161519000Y-75019000D01*
X152958998Y-74219000D02*
X152959000Y-74219002D01*
X124500000Y-67400000D02*
X123275000Y-67400000D01*
D77*
X181800000Y-61425000D02*
X181800000Y-60600000D01*
D75*
X132075000Y-53325000D02*
X131350000Y-54050000D01*
D74*
X135000000Y-93875000D02*
X135000000Y-94700000D01*
D75*
X107145000Y-65280000D02*
X106205000Y-66220000D01*
D74*
X173402500Y-83005000D02*
X174795000Y-83005000D01*
X181300000Y-84200000D02*
X181300000Y-84450000D01*
X109400000Y-51675000D02*
X109400000Y-51500000D01*
D75*
X135000000Y-63750000D02*
X135000000Y-64700000D01*
D76*
X125975000Y-83600000D02*
X126000000Y-83625000D01*
D74*
X174795000Y-83005000D02*
X174800000Y-83000000D01*
D75*
X139000000Y-54400000D02*
X139200000Y-54600000D01*
D74*
X167475000Y-53225000D02*
X167900000Y-52800000D01*
X115700000Y-74650000D02*
X114200000Y-74650000D01*
X107900000Y-67100000D02*
X106330000Y-67100000D01*
D75*
X138800000Y-54400000D02*
X139000000Y-54400000D01*
D74*
X181300000Y-84450000D02*
X181800000Y-84950000D01*
X173402500Y-81055000D02*
X173402500Y-79755000D01*
D75*
X129050000Y-95200000D02*
X128025000Y-95200000D01*
D74*
X114070000Y-60800000D02*
X114070000Y-61130000D01*
X170243000Y-90157000D02*
X170200000Y-90200000D01*
X176225000Y-81855000D02*
X175945000Y-81855000D01*
D76*
X127290000Y-69110000D02*
X127546675Y-68853325D01*
D74*
X157150000Y-79919000D02*
X157150000Y-78550000D01*
X127725000Y-98000000D02*
X127725000Y-97475000D01*
X151450000Y-74219000D02*
X152958998Y-74219000D01*
X177825000Y-60566500D02*
X177825000Y-62250000D01*
X177033500Y-60566500D02*
X176900000Y-60700000D01*
X165096768Y-70774998D02*
X165385883Y-70485883D01*
X177851000Y-60566500D02*
X177033500Y-60566500D01*
X163094002Y-70774998D02*
X165096768Y-70774998D01*
X162850000Y-71019000D02*
X163094002Y-70774998D01*
X164750000Y-71250000D02*
X164181000Y-71819000D01*
X177851000Y-56248500D02*
X177851000Y-58407500D01*
X176898504Y-58407500D02*
X176898500Y-58407504D01*
X177851000Y-58407500D02*
X176898504Y-58407500D01*
X164181000Y-71819000D02*
X162850000Y-71819000D01*
X175700000Y-72300000D02*
X175700000Y-71150000D01*
X163944000Y-69600000D02*
X165279979Y-69600000D01*
X163325000Y-70219000D02*
X163944000Y-69600000D01*
X165279979Y-69600000D02*
X166674500Y-70994521D01*
X176225000Y-72825000D02*
X175700000Y-72300000D01*
X162850000Y-70219000D02*
X163325000Y-70219000D01*
X176225000Y-78045000D02*
X176225000Y-72825000D01*
X176425000Y-66195000D02*
X174805000Y-66195000D01*
X174805000Y-66195000D02*
X174250000Y-66750000D01*
X162850000Y-72619000D02*
X165381000Y-72619000D01*
X165381000Y-72619000D02*
X165750000Y-72250000D01*
X127150000Y-91800000D02*
X129062500Y-91800000D01*
D75*
X126000000Y-93700000D02*
X126000000Y-95235000D01*
X127255000Y-95900000D02*
X129710000Y-95900000D01*
X132330000Y-96195000D02*
X132525000Y-96000000D01*
X130720000Y-96195000D02*
X130900000Y-96375000D01*
X129710000Y-95900000D02*
X130005000Y-96195000D01*
X126000000Y-95235000D02*
X126185000Y-95420000D01*
X130005000Y-96195000D02*
X130720000Y-96195000D01*
X130005000Y-96195000D02*
X132330000Y-96195000D01*
X124600000Y-92300000D02*
X126000000Y-93700000D01*
X122460000Y-92720000D02*
X122880000Y-92300000D01*
X126960000Y-96195000D02*
X127255000Y-95900000D01*
X126185000Y-95420000D02*
X126960000Y-96195000D01*
X122880000Y-92300000D02*
X124600000Y-92300000D01*
X127950000Y-72500000D02*
X128500000Y-73050000D01*
X126337500Y-72462500D02*
X126375000Y-72500000D01*
X126375000Y-72500000D02*
X127950000Y-72500000D01*
X126337500Y-70060000D02*
X126337500Y-72462500D01*
D74*
X132947500Y-93290000D02*
X133870000Y-93290000D01*
X133870000Y-93290000D02*
X133890000Y-93310000D01*
X133890000Y-93310000D02*
X133890000Y-93090000D01*
X132947500Y-92290000D02*
X133690000Y-92290000D01*
X133690000Y-92290000D02*
X133890000Y-92490000D01*
X133890000Y-92490000D02*
X133890000Y-93090000D01*
X132947500Y-92790000D02*
X133590000Y-92790000D01*
X133590000Y-92790000D02*
X133890000Y-93090000D01*
D75*
X133870000Y-95995000D02*
X133875000Y-96000000D01*
X133870000Y-93290000D02*
X133870000Y-95995000D01*
D74*
X190455000Y-68545000D02*
X189185000Y-69815000D01*
X185050000Y-64875000D02*
X185425000Y-64500000D01*
X185425000Y-64500000D02*
X187025000Y-64500000D01*
X188449639Y-65350000D02*
X189350000Y-65350000D01*
X190455000Y-66455000D02*
X190455000Y-67125000D01*
X189350000Y-65350000D02*
X190455000Y-66455000D01*
X185050000Y-67825000D02*
X185050000Y-64875000D01*
X190455000Y-67125000D02*
X190455000Y-68545000D01*
X189185000Y-69815000D02*
X189185000Y-72075000D01*
X187025000Y-64500000D02*
X187599639Y-64500000D01*
X187599639Y-64500000D02*
X188449639Y-65350000D01*
X125500000Y-66525000D02*
X125500000Y-67210000D01*
X124025000Y-66500000D02*
X125475000Y-66500000D01*
X125500000Y-67210000D02*
X126450000Y-68160000D01*
X125475000Y-66500000D02*
X125500000Y-66525000D01*
X118575000Y-55400000D02*
X118575000Y-56950000D01*
X117850000Y-54600000D02*
X117850000Y-54675000D01*
X114350000Y-55233000D02*
X114350000Y-55400000D01*
X114350000Y-55400000D02*
X114975000Y-56025000D01*
X120025000Y-59050000D02*
X119600000Y-59475000D01*
X118575000Y-56950000D02*
X118900000Y-56950000D01*
X119600000Y-59475000D02*
X119600000Y-60000000D01*
X118900000Y-56950000D02*
X120025000Y-58075000D01*
X120025000Y-58075000D02*
X120025000Y-59050000D01*
X117850000Y-54675000D02*
X118575000Y-55400000D01*
X117500000Y-58700000D02*
X118050000Y-59250000D01*
X114608000Y-56883000D02*
X115100000Y-57375000D01*
X118050000Y-59250000D02*
X118050000Y-59850000D01*
X114350000Y-56883000D02*
X114608000Y-56883000D01*
X117450000Y-65550000D02*
X117450000Y-66937000D01*
X118050000Y-62750000D02*
X118050000Y-64950000D01*
X118050000Y-64950000D02*
X117450000Y-65550000D01*
X117550000Y-64850000D02*
X117550000Y-62750000D01*
X119091000Y-66937000D02*
X118963000Y-66937000D01*
X116850000Y-67800000D02*
X116550000Y-67500000D01*
X118100000Y-67800000D02*
X116850000Y-67800000D01*
X118963000Y-66937000D02*
X118100000Y-67800000D01*
X116550000Y-65850000D02*
X117550000Y-64850000D01*
X116550000Y-67500000D02*
X116550000Y-65850000D01*
X131750000Y-94700000D02*
X131550000Y-94900000D01*
X134300000Y-85225000D02*
X134025000Y-85500000D01*
X134300000Y-84300000D02*
X134300000Y-85225000D01*
X131750000Y-93987500D02*
X131750000Y-94700000D01*
X173000000Y-78700000D02*
X178000000Y-78700000D01*
X168545000Y-82355000D02*
X169200000Y-81700000D01*
X171100000Y-80200000D02*
X171500000Y-80200000D01*
X179150000Y-79850000D02*
X179150000Y-81200000D01*
X169200000Y-81700000D02*
X169200000Y-78305000D01*
X171500000Y-80200000D02*
X173000000Y-78700000D01*
X179150000Y-81200000D02*
X179805000Y-81855000D01*
X179805000Y-81855000D02*
X181175000Y-81855000D01*
X169200000Y-78305000D02*
X169030000Y-78135000D01*
X178000000Y-78700000D02*
X179150000Y-79850000D01*
X167677500Y-82355000D02*
X168545000Y-82355000D01*
X169700000Y-82003002D02*
X169700000Y-79115000D01*
X181375000Y-70005000D02*
X180404500Y-70975500D01*
X171500000Y-76796996D02*
X171500000Y-75300000D01*
X171500000Y-75300000D02*
X173700000Y-73100000D01*
X180404500Y-70975500D02*
X180189026Y-70975500D01*
X169700000Y-79115000D02*
X170680000Y-78135000D01*
X167677500Y-83005000D02*
X168698002Y-83005000D01*
X170680000Y-77616996D02*
X171500000Y-76796996D01*
X170680000Y-78135000D02*
X170680000Y-77616996D01*
X168698002Y-83005000D02*
X169700000Y-82003002D01*
X160845000Y-60445000D02*
X161855000Y-60445000D01*
X160450000Y-60050000D02*
X160845000Y-60445000D01*
X160450000Y-59150000D02*
X160450000Y-60050000D01*
X159300000Y-58000000D02*
X160450000Y-59150000D01*
X159300000Y-57096996D02*
X159300000Y-58000000D01*
X156475000Y-54800000D02*
X157003004Y-54800000D01*
X157003004Y-54800000D02*
X159300000Y-57096996D01*
X172135000Y-78135000D02*
X171500000Y-77500000D01*
X166899172Y-71766529D02*
X167500000Y-71165701D01*
X166663888Y-69963888D02*
X166236112Y-69963888D01*
X158155000Y-57905000D02*
X158500000Y-58250000D01*
X172330000Y-78135000D02*
X172065000Y-78135000D01*
X167500000Y-71165701D02*
X167500000Y-70800000D01*
X172065000Y-78135000D02*
X170300000Y-79900000D01*
X156905000Y-57905000D02*
X158155000Y-57905000D01*
X170300000Y-79900000D02*
X170300000Y-82000000D01*
X168645000Y-83655000D02*
X167677500Y-83655000D01*
X170300000Y-82000000D02*
X168645000Y-83655000D01*
X172330000Y-78135000D02*
X172135000Y-78135000D01*
X163772224Y-67500000D02*
X166236112Y-69963888D01*
X163750000Y-67500000D02*
X163772224Y-67500000D01*
X167500000Y-70800000D02*
X166663888Y-69963888D01*
X121500000Y-77075000D02*
X134725000Y-77075000D01*
X148146436Y-81200011D02*
X149761093Y-79585354D01*
X165775000Y-85325000D02*
X166100000Y-85000000D01*
X119525000Y-79050000D02*
X121500000Y-77075000D01*
X156700000Y-77400000D02*
X156200000Y-77400000D01*
X156200000Y-77400000D02*
X155700000Y-77900000D01*
X149761093Y-79585354D02*
X150613588Y-79585354D01*
X169500000Y-83900000D02*
X170000000Y-84400000D01*
X115700000Y-79050000D02*
X119525000Y-79050000D01*
X155700000Y-77900000D02*
X153600000Y-77900000D01*
X165775000Y-88000000D02*
X165775000Y-85325000D01*
X134725000Y-77075000D02*
X138850011Y-81200011D01*
X138850011Y-81200011D02*
X148146436Y-81200011D01*
X171095000Y-81705000D02*
X169500000Y-83300000D01*
X169500000Y-83300000D02*
X169500000Y-83900000D01*
X171595000Y-81705000D02*
X171095000Y-81705000D01*
X173402500Y-81705000D02*
X171595000Y-81705000D01*
X134325000Y-87000000D02*
X134325000Y-87575000D01*
X128200000Y-93300000D02*
X127900000Y-93600000D01*
X129062500Y-93300000D02*
X128200000Y-93300000D01*
X134325000Y-87575000D02*
X133900000Y-88000000D01*
X128100000Y-91300000D02*
X129062500Y-91300000D01*
X120950000Y-87600000D02*
X125800000Y-87600000D01*
X127375000Y-90575000D02*
X128100000Y-91300000D01*
X127375000Y-88575000D02*
X127375000Y-90575000D01*
X126400000Y-87600000D02*
X127375000Y-88575000D01*
X125800000Y-87600000D02*
X126400000Y-87600000D01*
X130250000Y-94750000D02*
X130000000Y-95000000D01*
X139800000Y-67400000D02*
X139800000Y-79300000D01*
X138500000Y-66100000D02*
X139800000Y-67400000D01*
X138500000Y-62300000D02*
X138500000Y-66100000D01*
X139800000Y-79300000D02*
X139400000Y-79700000D01*
X130250000Y-93987500D02*
X130250000Y-94750000D01*
X178150000Y-85675000D02*
X178175000Y-85700000D01*
X179680000Y-84130000D02*
X179750000Y-84200000D01*
X178150000Y-84130000D02*
X179680000Y-84130000D01*
X178150000Y-84130000D02*
X178150000Y-85675000D01*
X176225000Y-80585000D02*
X177615000Y-80585000D01*
X187915000Y-69485000D02*
X187915000Y-67125000D01*
X177615000Y-80585000D02*
X177615000Y-80285000D01*
X178600000Y-69100000D02*
X178235000Y-68735000D01*
X187400000Y-70000000D02*
X187915000Y-69485000D01*
X187915000Y-67125000D02*
X189185000Y-67125000D01*
X177615000Y-80285000D02*
X177650000Y-80250000D01*
X178600000Y-71174400D02*
X178600000Y-69100000D01*
X185000000Y-71200000D02*
X186200000Y-70000000D01*
X179536269Y-72110669D02*
X178600000Y-71174400D01*
X178235000Y-68735000D02*
X176425000Y-68735000D01*
X186200000Y-70000000D02*
X187400000Y-70000000D01*
D75*
X133700000Y-71050000D02*
X135700000Y-73050000D01*
X133700000Y-71050000D02*
X133700000Y-71425000D01*
X133700000Y-71425000D02*
X132225000Y-72900000D01*
X141900000Y-54350000D02*
X141300000Y-54950000D01*
X143050000Y-56700000D02*
X141300000Y-54950000D01*
X143250000Y-56700000D02*
X143050000Y-56700000D01*
X141900000Y-53257000D02*
X141900000Y-54350000D01*
X135200000Y-56775000D02*
X135200000Y-57350000D01*
X135200000Y-57350000D02*
X134600000Y-57950000D01*
X135200000Y-55225000D02*
X134950000Y-55225000D01*
D76*
X133500000Y-57600000D02*
X134175000Y-56925000D01*
X132400000Y-58900000D02*
X133200000Y-58900000D01*
X133500000Y-58600000D02*
X133500000Y-57600000D01*
D75*
X134950000Y-55225000D02*
X134175000Y-56000000D01*
D76*
X134175000Y-56925000D02*
X134175000Y-56000000D01*
X133200000Y-58900000D02*
X133500000Y-58600000D01*
D74*
X136025000Y-59850000D02*
X136300000Y-60125000D01*
X136350000Y-60075000D02*
X137900000Y-60075000D01*
X134600000Y-59850000D02*
X136025000Y-59850000D01*
X136300000Y-60125000D02*
X136350000Y-60075000D01*
X136425000Y-61400000D02*
X136425000Y-60250000D01*
X136425000Y-60250000D02*
X136300000Y-60125000D01*
X133525000Y-59620978D02*
X134245978Y-58900000D01*
X134245978Y-58900000D02*
X134600000Y-58900000D01*
X133525000Y-61400000D02*
X133525000Y-59620978D01*
X186005000Y-78045000D02*
X186675000Y-77375000D01*
X186675000Y-77375000D02*
X186675000Y-76200000D01*
X184203000Y-78045000D02*
X186005000Y-78045000D01*
X185950000Y-75475000D02*
X186675000Y-76200000D01*
X185950000Y-72975000D02*
X185950000Y-75475000D01*
X183750000Y-70775000D02*
X185950000Y-72975000D01*
X186725000Y-74600000D02*
X188325000Y-76200000D01*
X188325000Y-76200000D02*
X188000000Y-76200000D01*
X187100000Y-78250000D02*
X186035000Y-79315000D01*
X187100000Y-77100000D02*
X187100000Y-78250000D01*
X188000000Y-76200000D02*
X187100000Y-77100000D01*
X186675000Y-74600000D02*
X186725000Y-74600000D01*
X186035000Y-79315000D02*
X184203000Y-79315000D01*
X187915000Y-79315000D02*
X189153000Y-79315000D01*
X185175000Y-74600000D02*
X185175000Y-76175000D01*
X185150000Y-76200000D02*
X185150000Y-76350000D01*
X185150000Y-76350000D02*
X185800000Y-77000000D01*
X187500000Y-78900000D02*
X187915000Y-79315000D01*
X185175000Y-76175000D02*
X185150000Y-76200000D01*
X184575000Y-83525000D02*
X184575000Y-83900000D01*
X189153000Y-80585000D02*
X187485000Y-80585000D01*
X183500000Y-76200000D02*
X184500000Y-77200000D01*
X187485000Y-80585000D02*
X187485000Y-81415000D01*
X186000000Y-82900000D02*
X185200000Y-82900000D01*
X185200000Y-82900000D02*
X184575000Y-83525000D01*
X187485000Y-81415000D02*
X186000000Y-82900000D01*
X184500000Y-77200000D02*
X185000000Y-77200000D01*
X183500000Y-67775000D02*
X183500000Y-69175000D01*
X182100000Y-71650000D02*
X182000000Y-71650000D01*
X182800480Y-70949520D02*
X182100000Y-71650000D01*
X174865000Y-79315000D02*
X174750000Y-79200000D01*
X182800480Y-69874520D02*
X182800480Y-70949520D01*
X183500000Y-69175000D02*
X182800480Y-69874520D01*
X176225000Y-79315000D02*
X174865000Y-79315000D01*
X182000000Y-71650000D02*
X181900000Y-71550000D01*
X177285000Y-67465000D02*
X176425000Y-67465000D01*
X177950000Y-66000000D02*
X177950000Y-66800000D01*
X179450000Y-71450000D02*
X179000000Y-71000000D01*
X179000000Y-68250000D02*
X178215000Y-67465000D01*
X177950000Y-66800000D02*
X177285000Y-67465000D01*
X178215000Y-67465000D02*
X176425000Y-67465000D01*
X176375000Y-64425000D02*
X177950000Y-66000000D01*
X176375000Y-63850000D02*
X176375000Y-64425000D01*
X180375000Y-71450000D02*
X179450000Y-71450000D01*
X179000000Y-71000000D02*
X179000000Y-68250000D01*
X183525000Y-74600000D02*
X180375000Y-71450000D01*
X186995000Y-72075000D02*
X188265000Y-72075000D01*
G04 #@! TA.AperFunction,Conductor*
G36*
X116043039Y-67119685D02*
G01*
X116088794Y-67172489D01*
X116100000Y-67224000D01*
X116100000Y-70676000D01*
X116080315Y-70743039D01*
X116027511Y-70788794D01*
X115976000Y-70800000D01*
X114024000Y-70800000D01*
X113956961Y-70780315D01*
X113911206Y-70727511D01*
X113900000Y-70676000D01*
X113900000Y-67224000D01*
X113919685Y-67156961D01*
X113972489Y-67111206D01*
X114024000Y-67100000D01*
X115976000Y-67100000D01*
X116043039Y-67119685D01*
G37*
G04 #@! TD.AperFunction*
G04 #@! TA.AperFunction,Conductor*
G36*
X108343039Y-69419685D02*
G01*
X108388794Y-69472489D01*
X108400000Y-69524000D01*
X108400000Y-71476000D01*
X108380315Y-71543039D01*
X108327511Y-71588794D01*
X108276000Y-71600000D01*
X102924000Y-71600000D01*
X102856961Y-71580315D01*
X102811206Y-71527511D01*
X102800000Y-71476000D01*
X102800000Y-69524000D01*
X102819685Y-69456961D01*
X102872489Y-69411206D01*
X102924000Y-69400000D01*
X108276000Y-69400000D01*
X108343039Y-69419685D01*
G37*
G04 #@! TD.AperFunction*
G04 #@! TA.AperFunction,Conductor*
G36*
X117693039Y-83669685D02*
G01*
X117738794Y-83722489D01*
X117750000Y-83774000D01*
X117750000Y-85726000D01*
X117730315Y-85793039D01*
X117677511Y-85838794D01*
X117626000Y-85850000D01*
X112524000Y-85850000D01*
X112456961Y-85830315D01*
X112411206Y-85777511D01*
X112400000Y-85726000D01*
X112400000Y-83774000D01*
X112419685Y-83706961D01*
X112472489Y-83661206D01*
X112524000Y-83650000D01*
X117626000Y-83650000D01*
X117693039Y-83669685D01*
G37*
G04 #@! TD.AperFunction*
G04 #@! TA.AperFunction,Conductor*
G36*
X108443039Y-84569685D02*
G01*
X108488794Y-84622489D01*
X108500000Y-84674000D01*
X108500000Y-86626000D01*
X108480315Y-86693039D01*
X108427511Y-86738794D01*
X108376000Y-86750000D01*
X102974000Y-86750000D01*
X102906961Y-86730315D01*
X102861206Y-86677511D01*
X102850000Y-86626000D01*
X102850000Y-84674000D01*
X102869685Y-84606961D01*
X102922489Y-84561206D01*
X102974000Y-84550000D01*
X108376000Y-84550000D01*
X108443039Y-84569685D01*
G37*
G04 #@! TD.AperFunction*
G04 #@! TA.AperFunction,Conductor*
G36*
X131867183Y-92418907D02*
G01*
X131878996Y-92428996D01*
X132130611Y-92680611D01*
X132156651Y-92726604D01*
X132299431Y-93297724D01*
X132300464Y-93302320D01*
X132376317Y-93681585D01*
X132369189Y-93742353D01*
X132327704Y-93787326D01*
X132279240Y-93800000D01*
X132221356Y-93800000D01*
X132163165Y-93781093D01*
X132127436Y-93732307D01*
X132002455Y-93357366D01*
X132000000Y-93350000D01*
X131416220Y-92557727D01*
X131396923Y-92499664D01*
X131415440Y-92441348D01*
X131464697Y-92405053D01*
X131495921Y-92400000D01*
X131808992Y-92400000D01*
X131867183Y-92418907D01*
G37*
G04 #@! TD.AperFunction*
G04 #@! TA.AperFunction,Conductor*
G36*
X108059191Y-54818907D02*
G01*
X108095155Y-54868407D01*
X108100000Y-54899000D01*
X108100000Y-57801000D01*
X108081093Y-57859191D01*
X108031593Y-57895155D01*
X108001000Y-57900000D01*
X100499000Y-57900000D01*
X100440809Y-57881093D01*
X100404845Y-57831593D01*
X100400000Y-57801000D01*
X100400000Y-54899000D01*
X100418907Y-54840809D01*
X100468407Y-54804845D01*
X100499000Y-54800000D01*
X108001000Y-54800000D01*
X108059191Y-54818907D01*
G37*
G04 #@! TD.AperFunction*
G04 #@! TA.AperFunction,Conductor*
G36*
X108414393Y-65902863D02*
G01*
X108447468Y-65909442D01*
X108501184Y-65931693D01*
X108516782Y-65942116D01*
X108557884Y-65983218D01*
X108568307Y-65998816D01*
X108590558Y-66052532D01*
X108597137Y-66085607D01*
X108600000Y-66114675D01*
X108600000Y-68985325D01*
X108597137Y-69014393D01*
X108590558Y-69047468D01*
X108568307Y-69101184D01*
X108557884Y-69116782D01*
X108516782Y-69157884D01*
X108501184Y-69168307D01*
X108447468Y-69190558D01*
X108414393Y-69197137D01*
X108385325Y-69200000D01*
X100614675Y-69200000D01*
X100585607Y-69197137D01*
X100552532Y-69190558D01*
X100498816Y-69168307D01*
X100483218Y-69157884D01*
X100442116Y-69116782D01*
X100431693Y-69101184D01*
X100409442Y-69047468D01*
X100402863Y-69014393D01*
X100400000Y-68985325D01*
X100400000Y-66114675D01*
X100402863Y-66085607D01*
X100409442Y-66052532D01*
X100431693Y-65998816D01*
X100442116Y-65983218D01*
X100483218Y-65942116D01*
X100498816Y-65931693D01*
X100552532Y-65909442D01*
X100585607Y-65902863D01*
X100614675Y-65900000D01*
X108385325Y-65900000D01*
X108414393Y-65902863D01*
G37*
G04 #@! TD.AperFunction*
M02*
