G04 #@! TF.GenerationSoftware,KiCad,Pcbnew,5.1.10-88a1d61d58~88~ubuntu20.04.1*
G04 #@! TF.CreationDate,2021-05-30T17:39:30+02:00*
G04 #@! TF.ProjectId,PSLab,50534c61-622e-46b6-9963-61645f706362,v6.1*
G04 #@! TF.SameCoordinates,Original*
G04 #@! TF.FileFunction,Copper,L2,Inr*
G04 #@! TF.FilePolarity,Positive*
%FSLAX46Y46*%
G04 Gerber Fmt 4.6, Leading zero omitted, Abs format (unit mm)*
G04 Created by KiCad (PCBNEW 5.1.10-88a1d61d58~88~ubuntu20.04.1) date 2021-05-30 17:39:30*
%MOMM*%
%LPD*%
G01*
G04 APERTURE LIST*
G04 #@! TA.AperFunction,ComponentPad*
%ADD10R,1.700000X1.700000*%
G04 #@! TD*
G04 #@! TA.AperFunction,ComponentPad*
%ADD11O,1.700000X1.700000*%
G04 #@! TD*
G04 #@! TA.AperFunction,ComponentPad*
%ADD12R,1.727200X1.727200*%
G04 #@! TD*
G04 #@! TA.AperFunction,ComponentPad*
%ADD13O,1.727200X1.727200*%
G04 #@! TD*
G04 #@! TA.AperFunction,ComponentPad*
%ADD14O,2.100000X1.000000*%
G04 #@! TD*
G04 #@! TA.AperFunction,ComponentPad*
%ADD15O,2.000000X1.000000*%
G04 #@! TD*
G04 #@! TA.AperFunction,ComponentPad*
%ADD16C,0.500000*%
G04 #@! TD*
G04 #@! TA.AperFunction,ComponentPad*
%ADD17C,5.600000*%
G04 #@! TD*
G04 #@! TA.AperFunction,ComponentPad*
%ADD18O,1.700000X2.000000*%
G04 #@! TD*
G04 #@! TA.AperFunction,ViaPad*
%ADD19C,0.914400*%
G04 #@! TD*
G04 #@! TA.AperFunction,Conductor*
%ADD20C,0.508000*%
G04 #@! TD*
G04 #@! TA.AperFunction,Conductor*
%ADD21C,0.762000*%
G04 #@! TD*
G04 #@! TA.AperFunction,Conductor*
%ADD22C,0.304800*%
G04 #@! TD*
G04 #@! TA.AperFunction,Conductor*
%ADD23C,0.406400*%
G04 #@! TD*
G04 #@! TA.AperFunction,NonConductor*
%ADD24C,0.030000*%
G04 #@! TD*
G04 #@! TA.AperFunction,NonConductor*
%ADD25C,0.100000*%
G04 #@! TD*
G04 APERTURE END LIST*
D10*
X124785500Y-77194500D03*
D11*
X124785500Y-79734500D03*
X124785500Y-82274500D03*
X124785500Y-84814500D03*
X124785500Y-87354500D03*
D12*
X94369000Y-104753500D03*
D13*
X94369000Y-102213500D03*
X96909000Y-104753500D03*
X96909000Y-102213500D03*
X99449000Y-104753500D03*
X99449000Y-102213500D03*
X101989000Y-104753500D03*
X101989000Y-102213500D03*
D14*
X95945000Y-71160000D03*
X95945000Y-79800000D03*
D15*
X91865000Y-71160000D03*
X91865000Y-79800000D03*
D16*
X117279000Y-111128500D03*
X117279000Y-109808500D03*
X118499000Y-111128500D03*
X118499000Y-109808500D03*
X119719000Y-109808500D03*
X119719000Y-111128500D03*
D17*
X104880000Y-111020000D03*
G04 #@! TA.AperFunction,ComponentPad*
G36*
G01*
X93900000Y-110964500D02*
X93900000Y-109464500D01*
G75*
G02*
X94150000Y-109214500I250000J0D01*
G01*
X95350000Y-109214500D01*
G75*
G02*
X95600000Y-109464500I0J-250000D01*
G01*
X95600000Y-110964500D01*
G75*
G02*
X95350000Y-111214500I-250000J0D01*
G01*
X94150000Y-111214500D01*
G75*
G02*
X93900000Y-110964500I0J250000D01*
G01*
G37*
G04 #@! TD.AperFunction*
D18*
X97250000Y-110214500D03*
D17*
X181090000Y-62780000D03*
X106150000Y-62770000D03*
X187420000Y-111010000D03*
D10*
X187460000Y-67860000D03*
D11*
X184920000Y-67860000D03*
X187460000Y-70400000D03*
X184920000Y-70400000D03*
X187460000Y-72940000D03*
X184920000Y-72940000D03*
X187460000Y-75480000D03*
X184920000Y-75480000D03*
X187460000Y-78020000D03*
X184920000Y-78020000D03*
X187460000Y-80560000D03*
X184920000Y-80560000D03*
X187460000Y-83100000D03*
X184920000Y-83100000D03*
X187460000Y-85640000D03*
X184920000Y-85640000D03*
X187460000Y-88180000D03*
X184920000Y-88180000D03*
X187460000Y-90720000D03*
X184920000Y-90720000D03*
X187460000Y-93260000D03*
X184920000Y-93260000D03*
X187460000Y-95800000D03*
X184920000Y-95800000D03*
X187460000Y-98340000D03*
X184920000Y-98340000D03*
X187460000Y-100880000D03*
X184920000Y-100880000D03*
D10*
X156980000Y-62780000D03*
D11*
X159520000Y-62780000D03*
X162060000Y-62780000D03*
X164600000Y-62780000D03*
X167140000Y-62780000D03*
X169680000Y-62780000D03*
X172220000Y-62780000D03*
X174760000Y-62780000D03*
X167140000Y-111040000D03*
X164600000Y-111040000D03*
X162060000Y-111040000D03*
X159520000Y-111040000D03*
X156980000Y-111040000D03*
X154440000Y-111040000D03*
X151900000Y-111040000D03*
D10*
X149360000Y-111040000D03*
X131580000Y-62780000D03*
D11*
X134120000Y-62780000D03*
X136660000Y-62780000D03*
X139200000Y-62780000D03*
D10*
X144280000Y-62780000D03*
D11*
X146820000Y-62780000D03*
X149360000Y-62780000D03*
X151900000Y-62780000D03*
X144280000Y-111074000D03*
X141740000Y-111074000D03*
X139200000Y-111074000D03*
D10*
X136660000Y-111074000D03*
X113800000Y-62780000D03*
D11*
X116340000Y-62780000D03*
X118880000Y-62780000D03*
X121420000Y-62780000D03*
X123960000Y-62780000D03*
X126500000Y-62780000D03*
D19*
X154370000Y-105638400D03*
X98071600Y-80721000D03*
X96140010Y-68107510D03*
X131795218Y-99288400D03*
X156161400Y-105638400D03*
X140080000Y-104368400D03*
X137195214Y-100558400D03*
X125534800Y-100778400D03*
X101138100Y-66907500D03*
X127008000Y-109643000D03*
X125484000Y-102404000D03*
X145600000Y-89800000D03*
X152890000Y-100890000D03*
X144640000Y-83590000D03*
X138300000Y-87420000D03*
X168520000Y-95260000D03*
X143030000Y-73800000D03*
X135230000Y-88650000D03*
X168519189Y-96528572D03*
X178919704Y-88850000D03*
X114690000Y-92444333D03*
X152250000Y-69800000D03*
X134060000Y-87080000D03*
X141220000Y-92240000D03*
X152834000Y-105638400D03*
X135960000Y-87060000D03*
X155600000Y-70450000D03*
X151620000Y-105638400D03*
X141260000Y-91100000D03*
X130530000Y-85800000D03*
X105090000Y-92470000D03*
X168510000Y-97790000D03*
X178919704Y-90130000D03*
X161330000Y-71500000D03*
X179605600Y-66979600D03*
X110700000Y-89640000D03*
X106123400Y-78282602D03*
X110700000Y-87040000D03*
X104624800Y-78282602D03*
X167620000Y-66240000D03*
X172650000Y-68780000D03*
X145130000Y-85220000D03*
X173400000Y-87580000D03*
X171807800Y-79679600D03*
X108990000Y-87050000D03*
X118137700Y-87040000D03*
X167500000Y-81310000D03*
X172760000Y-82460000D03*
X155420000Y-91290000D03*
X171730000Y-87560000D03*
X151538600Y-81432200D03*
X154710000Y-78900000D03*
X152890000Y-87270000D03*
X160190000Y-80170000D03*
X150660000Y-85140000D03*
X110700000Y-88350000D03*
X119220000Y-89360000D03*
X125249600Y-94335400D03*
X113759986Y-102747500D03*
X122059986Y-103155000D03*
X151020000Y-77990000D03*
X140070000Y-87630000D03*
X140590000Y-73810000D03*
X140080000Y-106908400D03*
X143334400Y-105638400D03*
X140080000Y-103098400D03*
X133631602Y-101828400D03*
X129430000Y-86200000D03*
X114690000Y-91135000D03*
X105090000Y-93580000D03*
X131802800Y-97256402D03*
X183454800Y-106792000D03*
X168356400Y-107772000D03*
X183444800Y-107772000D03*
X168346400Y-105812000D03*
X183434800Y-105812000D03*
X168356400Y-106792000D03*
X142057500Y-86300400D03*
X118520000Y-81140000D03*
X168150000Y-91410000D03*
X146200000Y-77420000D03*
X157890000Y-95500000D03*
X166490000Y-99040000D03*
X147423802Y-105638400D03*
X168170000Y-90160000D03*
X173400000Y-90120000D03*
X104465500Y-107103000D03*
X107196000Y-107674500D03*
X98445700Y-71530300D03*
X101326060Y-78185100D03*
X96670000Y-81390000D03*
X94860000Y-81380000D03*
X105583100Y-67809200D03*
X102713000Y-66907500D03*
X104320000Y-70427500D03*
X98442406Y-75950000D03*
X109806400Y-75983585D03*
X98442400Y-73750000D03*
X109806400Y-73736000D03*
X120924000Y-73862988D03*
X112701980Y-75702200D03*
X162760000Y-100480000D03*
X156910000Y-82700000D03*
X170480000Y-93340000D03*
X147760000Y-77420000D03*
X155310000Y-72590000D03*
X160640000Y-68650000D03*
X97350000Y-62777200D03*
X97350000Y-63717200D03*
X173400000Y-91400000D03*
X175710000Y-103250000D03*
X175710000Y-110620000D03*
X177340000Y-110620000D03*
X174060000Y-110620000D03*
X98427190Y-78200000D03*
X105894834Y-74850000D03*
X102755000Y-85074978D03*
X92352990Y-85075000D03*
X112463000Y-66573200D03*
X105090000Y-89175000D03*
X136349400Y-93300000D03*
X149837510Y-88620000D03*
X129130000Y-89572494D03*
X112700000Y-70645004D03*
X117429998Y-72874998D03*
X133517500Y-74902500D03*
X124100000Y-71750000D03*
X101980000Y-70427496D03*
X101163500Y-72432000D03*
X130246500Y-109770000D03*
X139070000Y-94010000D03*
X174762500Y-99880904D03*
X140010000Y-93130000D03*
X178922496Y-98579996D03*
X141830000Y-94180000D03*
X178919700Y-95960988D03*
X143880000Y-96440000D03*
X174804900Y-95961012D03*
X129430000Y-87500000D03*
X139070000Y-92240000D03*
X127363600Y-100778400D03*
X149786000Y-93827400D03*
X158330000Y-72660000D03*
X170539998Y-71320000D03*
X144807600Y-105638400D03*
X178919704Y-91389000D03*
X168480000Y-99050000D03*
X145925200Y-105638400D03*
X143070000Y-81270000D03*
X140610000Y-76020000D03*
X135870000Y-91120000D03*
X132770000Y-83310000D03*
X105090000Y-91370000D03*
X102760000Y-64920000D03*
X92280400Y-81406728D03*
X108993600Y-71551598D03*
X97309612Y-91363574D03*
X108960000Y-65710000D03*
X120169600Y-93323000D03*
X138818998Y-71225500D03*
X140080000Y-105638400D03*
X160190000Y-66250000D03*
X163700000Y-70050000D03*
X118617400Y-100708000D03*
X114640296Y-79000000D03*
X178912488Y-93340000D03*
X172650004Y-70050000D03*
X122938200Y-70798200D03*
X129395000Y-64625000D03*
X145390000Y-68730000D03*
X156050000Y-99050000D03*
X154720000Y-87230000D03*
X150450000Y-68620000D03*
X161335000Y-95215000D03*
X162689200Y-80314602D03*
X168120000Y-87620000D03*
X140080000Y-101828400D03*
X140550000Y-86300000D03*
X143040000Y-77390000D03*
X141980000Y-80180000D03*
X114712855Y-87040000D03*
X134650000Y-93250000D03*
X114690000Y-89640000D03*
X135550000Y-94350000D03*
X127770000Y-94339500D03*
D20*
X156161400Y-106425800D02*
X156161400Y-105689200D01*
X155856600Y-106730600D02*
X156161400Y-106425800D01*
X142648604Y-106730600D02*
X155856600Y-106730600D01*
X140080000Y-104368400D02*
X140286404Y-104368400D01*
X140286404Y-104368400D02*
X142648604Y-106730600D01*
D21*
X121600000Y-89940000D02*
X121600000Y-88230000D01*
X113839000Y-88220000D02*
X122195600Y-88220000D01*
X113850000Y-88220000D02*
X113840000Y-88220000D01*
X113286200Y-88783800D02*
X113850000Y-88220000D01*
X110238200Y-94259200D02*
X113286200Y-91211200D01*
X113286200Y-91211200D02*
X113286200Y-88783800D01*
D22*
X125484000Y-108119000D02*
X125484000Y-102404000D01*
X127008000Y-109643000D02*
X125484000Y-108119000D01*
D20*
X130830000Y-84300000D02*
X132330000Y-85800000D01*
X135230000Y-88650000D02*
X133330000Y-88650000D01*
X133330000Y-88650000D02*
X132330000Y-87650000D01*
X132330000Y-87650000D02*
X132330000Y-85800000D01*
X142280000Y-88650000D02*
X135230000Y-88650000D01*
D23*
X168511428Y-96528572D02*
X168519189Y-96528572D01*
D20*
X168519189Y-96528572D02*
X150158572Y-96528572D01*
X150158572Y-96528572D02*
X142280000Y-88650000D01*
X129680000Y-72930000D02*
X129680000Y-83150000D01*
X129680000Y-83150000D02*
X132330000Y-85800000D01*
X121550000Y-64800000D02*
X129680000Y-72930000D01*
D23*
X134390000Y-86110000D02*
X136630000Y-86110000D01*
D20*
X134383422Y-86110000D02*
X134390000Y-86110000D01*
X134060000Y-86433422D02*
X134383422Y-86110000D01*
X134060000Y-87080000D02*
X134060000Y-86433422D01*
X134383422Y-86110000D02*
X136630000Y-86110000D01*
X148930000Y-64970000D02*
X148930000Y-62750000D01*
X152250000Y-68290000D02*
X148930000Y-64970000D01*
X152250000Y-69800000D02*
X152250000Y-68290000D01*
X152250000Y-70190000D02*
X152250000Y-69800000D01*
X142220000Y-70640000D02*
X151800000Y-70640000D01*
X151800000Y-70640000D02*
X152250000Y-70190000D01*
X140220000Y-70640000D02*
X142220000Y-70640000D01*
X139050000Y-62750000D02*
X139050000Y-69470000D01*
X139050000Y-69470000D02*
X140220000Y-70640000D01*
X137910000Y-73795553D02*
X141065553Y-70640000D01*
X141065553Y-70640000D02*
X142220000Y-70640000D01*
X137910000Y-84830000D02*
X137910000Y-73795553D01*
X136630000Y-86110000D02*
X137910000Y-84830000D01*
X155550000Y-70450000D02*
X155600000Y-70450000D01*
X155600000Y-70500000D02*
X155600000Y-70450000D01*
X155600000Y-69803422D02*
X155600000Y-70450000D01*
X155600000Y-68780000D02*
X155600000Y-70450000D01*
X151470000Y-64650000D02*
X155600000Y-68780000D01*
X151470000Y-62750000D02*
X151470000Y-64650000D01*
D21*
X136510000Y-61510400D02*
X137120400Y-60900000D01*
X136510000Y-62750000D02*
X136510000Y-61510400D01*
X137120400Y-60900000D02*
X150960000Y-60900000D01*
X150960000Y-60900000D02*
X151470000Y-61410000D01*
X151470000Y-61410000D02*
X151470000Y-62750000D01*
D20*
X155600000Y-70450000D02*
X154327201Y-71722799D01*
X139210000Y-73434606D02*
X139210000Y-85120000D01*
X139210000Y-85120000D02*
X137270000Y-87060000D01*
X140921807Y-71722799D02*
X139210000Y-73434606D01*
X137270000Y-87060000D02*
X135960000Y-87060000D01*
X154327201Y-71722799D02*
X140921807Y-71722799D01*
X168510000Y-97820000D02*
X168510000Y-97790000D01*
X170182000Y-97790000D02*
X168510000Y-97790000D01*
X178919704Y-90130000D02*
X177842000Y-90130000D01*
X177842000Y-90130000D02*
X170182000Y-97790000D01*
X141760000Y-89750000D02*
X149800000Y-97790000D01*
X130530000Y-85800000D02*
X130530000Y-89750000D01*
X149800000Y-97790000D02*
X168510000Y-97790000D01*
X130530000Y-89750000D02*
X141760000Y-89750000D01*
X130530000Y-90375800D02*
X130530000Y-85800000D01*
X106239200Y-92470000D02*
X109196800Y-95427600D01*
X109196800Y-95427600D02*
X113540200Y-95427600D01*
X105090000Y-92470000D02*
X106239200Y-92470000D01*
X113540200Y-95427600D02*
X117451800Y-91516000D01*
X117451800Y-91516000D02*
X129389800Y-91516000D01*
X129389800Y-91516000D02*
X130530000Y-90375800D01*
X130510000Y-85800000D02*
X130530000Y-85800000D01*
X128780000Y-73610000D02*
X128780000Y-84070000D01*
X128780000Y-84070000D02*
X130510000Y-85800000D01*
X119010000Y-63840000D02*
X128780000Y-73610000D01*
D21*
X161330000Y-70450000D02*
X162400000Y-69380000D01*
X161330000Y-71500000D02*
X161330000Y-70450000D01*
X162400000Y-65800000D02*
X163930000Y-64270000D01*
X162400000Y-69380000D02*
X162400000Y-65800000D01*
D20*
X111838400Y-89128400D02*
X111326800Y-89640000D01*
X111838400Y-86309000D02*
X111838400Y-89128400D01*
X111326800Y-89640000D02*
X110700000Y-89640000D01*
X106123400Y-78282602D02*
X106123400Y-80594000D01*
X106123400Y-80594000D02*
X111838400Y-86309000D01*
X104624800Y-80964800D02*
X104624800Y-78282602D01*
X110700000Y-87040000D02*
X104624800Y-80964800D01*
D21*
X171460000Y-68780000D02*
X172650000Y-68780000D01*
X168920000Y-66240000D02*
X171460000Y-68780000D01*
X167620000Y-66240000D02*
X168920000Y-66240000D01*
X168956600Y-92640000D02*
X173400000Y-88196600D01*
X150820000Y-92640000D02*
X168956600Y-92640000D01*
X173400000Y-88196600D02*
X173400000Y-87580000D01*
X145130000Y-85220000D02*
X145130000Y-86950000D01*
X145130000Y-86950000D02*
X150820000Y-92640000D01*
X125100000Y-87040000D02*
X125170000Y-87110000D01*
D20*
X92850000Y-103820000D02*
X92850000Y-98120000D01*
X103920000Y-87050000D02*
X108990000Y-87050000D01*
X92850000Y-98120000D02*
X103920000Y-87050000D01*
D21*
X167500000Y-81310000D02*
X176968800Y-81310000D01*
D23*
X172760000Y-82460000D02*
X172840000Y-82540000D01*
D21*
X172760000Y-82460000D02*
X175578800Y-82460000D01*
X170360000Y-88930000D02*
X171730000Y-87560000D01*
X155420000Y-91290000D02*
X157780000Y-88930000D01*
X157780000Y-88930000D02*
X170360000Y-88930000D01*
D20*
X155887800Y-81432200D02*
X151538600Y-81432200D01*
X175896000Y-78510000D02*
X158810000Y-78510000D01*
X158810000Y-78510000D02*
X155887800Y-81432200D01*
X181383600Y-83997600D02*
X175896000Y-78510000D01*
D21*
X150680000Y-85120000D02*
X157950000Y-85120000D01*
X157950000Y-85120000D02*
X160190000Y-82880000D01*
X160190000Y-82880000D02*
X160190000Y-80170000D01*
D23*
X150660000Y-85140000D02*
X150680000Y-85120000D01*
X110700000Y-88350000D02*
X110501200Y-88350000D01*
D20*
X110657799Y-88307799D02*
X110700000Y-88350000D01*
X104528201Y-88307799D02*
X110657799Y-88307799D01*
X102313400Y-90522600D02*
X104528201Y-88307799D01*
D21*
X125249600Y-95376800D02*
X125833800Y-95961000D01*
X125249600Y-94335400D02*
X125249600Y-95376800D01*
X132387000Y-95961000D02*
X134749200Y-98323200D01*
X125833800Y-95961000D02*
X132387000Y-95961000D01*
X134749200Y-107441800D02*
X136120800Y-108813400D01*
X134749200Y-98323200D02*
X134749200Y-107441800D01*
D20*
X176650000Y-77460000D02*
X151550000Y-77460000D01*
X151550000Y-77460000D02*
X151020000Y-77990000D01*
X180647600Y-81457600D02*
X176650000Y-77460000D01*
X140791199Y-107619599D02*
X140080000Y-106908400D01*
X164010000Y-111074000D02*
X160555599Y-107619599D01*
X160555599Y-107619599D02*
X140791199Y-107619599D01*
D21*
X143334400Y-105685598D02*
X143334400Y-105638401D01*
D23*
X140794400Y-103098400D02*
X140134000Y-103098400D01*
X143334400Y-105638401D02*
X143334400Y-105638400D01*
D20*
X140794400Y-103098400D02*
X143334400Y-105638400D01*
X140080000Y-103098400D02*
X140794400Y-103098400D01*
X127855000Y-74165000D02*
X127855000Y-84625000D01*
X127855000Y-84625000D02*
X129430000Y-86200000D01*
D21*
X105090000Y-93580000D02*
X110620600Y-99110600D01*
X110620600Y-99110600D02*
X128246800Y-99110600D01*
X128246800Y-99110600D02*
X130100998Y-97256402D01*
X130100998Y-97256402D02*
X131802800Y-97256402D01*
D20*
X98442406Y-75950000D02*
X98475991Y-75983585D01*
D21*
X109772815Y-75950000D02*
X109806400Y-75983585D01*
X98442406Y-75950000D02*
X109772815Y-75950000D01*
X109792400Y-73750000D02*
X109806400Y-73736000D01*
X98442400Y-73750000D02*
X109792400Y-73750000D01*
X116552400Y-75702200D02*
X112701980Y-75702200D01*
X120924000Y-73862988D02*
X118391612Y-73862988D01*
X118391612Y-73862988D02*
X116552400Y-75702200D01*
D20*
X173704496Y-99880904D02*
X174762500Y-99880904D01*
X146466099Y-104604499D02*
X168980901Y-104604499D01*
X168980901Y-104604499D02*
X173704496Y-99880904D01*
X139070000Y-94010000D02*
X139070000Y-97208400D01*
X139070000Y-97208400D02*
X146466099Y-104604499D01*
X140010000Y-96167200D02*
X147452800Y-103610000D01*
X140010000Y-93130000D02*
X140010000Y-96167200D01*
X147452800Y-103610000D02*
X168490622Y-103610000D01*
X173520626Y-98579996D02*
X178922496Y-98579996D01*
X168490622Y-103610000D02*
X173520626Y-98579996D01*
X176710012Y-95960988D02*
X178919700Y-95960988D01*
X141830000Y-96209200D02*
X148250800Y-102630000D01*
X141830000Y-94180000D02*
X141830000Y-96209200D01*
X148250800Y-102630000D02*
X168085200Y-102630000D01*
X168085200Y-102630000D02*
X173509600Y-97205600D01*
X175465400Y-97205600D02*
X176710012Y-95960988D01*
X173509600Y-97205600D02*
X175465400Y-97205600D01*
X173388988Y-95961012D02*
X174804900Y-95961012D01*
X167592799Y-101757201D02*
X173388988Y-95961012D01*
X143880000Y-96440000D02*
X149197201Y-101757201D01*
X149197201Y-101757201D02*
X167592799Y-101757201D01*
X129230000Y-87500000D02*
X129430000Y-87500000D01*
X129430000Y-87500000D02*
X126980000Y-85050000D01*
X126980000Y-85050000D02*
X126980000Y-76520000D01*
D21*
X127363600Y-102314000D02*
X133580800Y-108531200D01*
X127363600Y-100778400D02*
X127363600Y-102314000D01*
X169199998Y-72660000D02*
X170539998Y-71320000D01*
X158330000Y-72660000D02*
X169199998Y-72660000D01*
D20*
X137489715Y-97533115D02*
X137489715Y-92739715D01*
X137489715Y-92739715D02*
X135870000Y-91120000D01*
X93626528Y-81406728D02*
X93702800Y-81483000D01*
D21*
X93702800Y-67335200D02*
X96118000Y-64920000D01*
X96118000Y-64920000D02*
X102760000Y-64920000D01*
X93601272Y-81406728D02*
X93702800Y-81305200D01*
X92280400Y-81406728D02*
X93601272Y-81406728D01*
X93702800Y-87756762D02*
X93702800Y-81305200D01*
X93702800Y-81305200D02*
X93702800Y-67335200D01*
X93702800Y-87756762D02*
X97309612Y-91363574D01*
D20*
X137489715Y-97533115D02*
X138965600Y-99009000D01*
X138965600Y-99009000D02*
X138965600Y-107365600D01*
X138965600Y-107365600D02*
X140489600Y-108889600D01*
X140489600Y-108889600D02*
X143105800Y-108889600D01*
X143105800Y-108889600D02*
X143740800Y-109524600D01*
X133875200Y-91120000D02*
X135870000Y-91120000D01*
X132412400Y-92582800D02*
X133875200Y-91120000D01*
X120855400Y-92582800D02*
X132412400Y-92582800D01*
X120169600Y-93268600D02*
X120855400Y-92582800D01*
D21*
X135645000Y-68975000D02*
X138022500Y-71352500D01*
X136670000Y-70000000D02*
X138022500Y-71352500D01*
X133970000Y-67300000D02*
X138022500Y-71352500D01*
X138691998Y-71352500D02*
X138818998Y-71225500D01*
X134260000Y-67590000D02*
X138022500Y-71352500D01*
X133970000Y-62750000D02*
X133970000Y-67300000D01*
X138022500Y-71352500D02*
X138691998Y-71352500D01*
D23*
X162613002Y-80314602D02*
X162689200Y-80314602D01*
D21*
X162689200Y-82189200D02*
X162689200Y-80314602D01*
X168120000Y-87620000D02*
X162689200Y-82189200D01*
D20*
X140550000Y-77990000D02*
X140550000Y-86300000D01*
X144380000Y-74160000D02*
X140550000Y-77990000D01*
X175210000Y-74160000D02*
X144380000Y-74160000D01*
X180612400Y-68757600D02*
X175210000Y-74160000D01*
X145080000Y-75350000D02*
X143040000Y-77390000D01*
X175807200Y-75350000D02*
X145080000Y-75350000D01*
X179859600Y-71297600D02*
X175807200Y-75350000D01*
X145770000Y-76390000D02*
X141980000Y-80180000D01*
X176748400Y-76390000D02*
X145770000Y-76390000D01*
X179300800Y-73837600D02*
X176748400Y-76390000D01*
D21*
X138660800Y-111074000D02*
X138660800Y-109143600D01*
X138660800Y-109143600D02*
X136044600Y-106527400D01*
X136044600Y-98043800D02*
X132336200Y-94335400D01*
X136044600Y-106527400D02*
X136044600Y-98043800D01*
X132336200Y-94335400D02*
X127789600Y-94335400D01*
D22*
X127774100Y-94335400D02*
X127770000Y-94339500D01*
X127789600Y-94335400D02*
X127774100Y-94335400D01*
D24*
X189875001Y-113485000D02*
X189570500Y-113485000D01*
X189570500Y-113150500D01*
X189875001Y-113150500D01*
X189875001Y-113485000D01*
G04 #@! TA.AperFunction,NonConductor*
D25*
G36*
X189875001Y-113485000D02*
G01*
X189570500Y-113485000D01*
X189570500Y-113150500D01*
X189875001Y-113150500D01*
X189875001Y-113485000D01*
G37*
G04 #@! TD.AperFunction*
D24*
X91369500Y-60669500D02*
X91035000Y-60669500D01*
X91035000Y-60365000D01*
X91369500Y-60365000D01*
X91369500Y-60669500D01*
G04 #@! TA.AperFunction,NonConductor*
D25*
G36*
X91369500Y-60669500D02*
G01*
X91035000Y-60669500D01*
X91035000Y-60365000D01*
X91369500Y-60365000D01*
X91369500Y-60669500D01*
G37*
G04 #@! TD.AperFunction*
M02*
