G04 #@! TF.GenerationSoftware,KiCad,Pcbnew,5.1.10-88a1d61d58~90~ubuntu20.04.1*
G04 #@! TF.CreationDate,2021-10-20T11:37:08+02:00*
G04 #@! TF.ProjectId,PSLab,50534c61-622e-46b6-9963-61645f706362,v6.1*
G04 #@! TF.SameCoordinates,Original*
G04 #@! TF.FileFunction,Soldermask,Bot*
G04 #@! TF.FilePolarity,Negative*
%FSLAX46Y46*%
G04 Gerber Fmt 4.6, Leading zero omitted, Abs format (unit mm)*
G04 Created by KiCad (PCBNEW 5.1.10-88a1d61d58~90~ubuntu20.04.1) date 2021-10-20 11:37:08*
%MOMM*%
%LPD*%
G01*
G04 APERTURE LIST*
%ADD10C,0.010000*%
%ADD11O,1.700000X1.700000*%
%ADD12R,1.700000X1.700000*%
%ADD13R,1.000000X1.000000*%
%ADD14R,1.727200X1.727200*%
%ADD15O,1.727200X1.727200*%
%ADD16O,2.100000X1.000000*%
%ADD17O,2.000000X1.000000*%
%ADD18C,0.650000*%
%ADD19C,5.600000*%
%ADD20C,0.914400*%
G04 APERTURE END LIST*
D10*
G36*
X94655699Y-67705810D02*
G01*
X94714166Y-67707924D01*
X94761649Y-67711394D01*
X94849812Y-67722772D01*
X94937316Y-67738883D01*
X95021210Y-67758975D01*
X95098539Y-67782293D01*
X95166351Y-67808084D01*
X95197656Y-67822616D01*
X95282126Y-67872598D01*
X95357007Y-67932732D01*
X95421907Y-68002464D01*
X95476433Y-68081243D01*
X95520191Y-68168515D01*
X95552789Y-68263728D01*
X95570897Y-68347233D01*
X95584899Y-68464588D01*
X95586925Y-68574614D01*
X95576909Y-68677546D01*
X95554787Y-68773622D01*
X95520493Y-68863075D01*
X95473963Y-68946144D01*
X95415131Y-69023064D01*
X95372545Y-69067677D01*
X95292386Y-69135450D01*
X95203217Y-69192411D01*
X95105181Y-69238488D01*
X94998422Y-69273611D01*
X94930140Y-69289415D01*
X94901402Y-69293698D01*
X94863035Y-69297463D01*
X94818790Y-69300544D01*
X94772419Y-69302772D01*
X94727673Y-69303977D01*
X94688302Y-69303993D01*
X94658058Y-69302649D01*
X94651222Y-69301943D01*
X94541013Y-69283204D01*
X94441759Y-69255896D01*
X94352996Y-69219741D01*
X94274257Y-69174459D01*
X94205077Y-69119770D01*
X94144992Y-69055393D01*
X94093535Y-68981050D01*
X94080958Y-68959045D01*
X94044642Y-68882644D01*
X94017108Y-68801120D01*
X93997773Y-68712243D01*
X93986054Y-68613785D01*
X93984417Y-68590250D01*
X93984681Y-68513052D01*
X93995238Y-68433952D01*
X93995968Y-68431076D01*
X94390938Y-68431076D01*
X94391165Y-68499931D01*
X94397655Y-68565086D01*
X94410402Y-68623523D01*
X94428669Y-68670791D01*
X94460249Y-68717917D01*
X94502557Y-68757316D01*
X94554262Y-68788584D01*
X94614030Y-68811317D01*
X94680530Y-68825112D01*
X94752428Y-68829564D01*
X94828392Y-68824271D01*
X94894639Y-68811933D01*
X94965646Y-68789339D01*
X95026855Y-68758331D01*
X95077677Y-68719697D01*
X95117520Y-68674224D01*
X95145796Y-68622700D01*
X95161914Y-68565911D01*
X95165285Y-68504647D01*
X95159519Y-68458367D01*
X95143505Y-68403181D01*
X95118208Y-68356791D01*
X95083976Y-68317978D01*
X95029587Y-68275520D01*
X94966011Y-68241647D01*
X94892162Y-68215855D01*
X94834034Y-68202390D01*
X94799926Y-68197089D01*
X94756764Y-68192222D01*
X94707819Y-68187975D01*
X94656360Y-68184534D01*
X94605657Y-68182088D01*
X94558978Y-68180822D01*
X94519595Y-68180924D01*
X94490777Y-68182580D01*
X94489643Y-68182711D01*
X94444480Y-68188084D01*
X94427891Y-68232480D01*
X94409296Y-68294332D01*
X94396980Y-68361537D01*
X94390938Y-68431076D01*
X93995968Y-68431076D01*
X94016522Y-68350152D01*
X94026182Y-68320375D01*
X94033630Y-68296245D01*
X94037717Y-68278246D01*
X94037762Y-68269566D01*
X94037130Y-68269222D01*
X94023116Y-68272277D01*
X93999990Y-68280475D01*
X93971119Y-68292370D01*
X93939870Y-68306516D01*
X93909608Y-68321465D01*
X93887482Y-68333544D01*
X93850467Y-68358688D01*
X93809600Y-68392507D01*
X93768385Y-68431633D01*
X93730322Y-68472698D01*
X93698914Y-68512333D01*
X93693531Y-68520102D01*
X93647323Y-68597732D01*
X93606454Y-68684136D01*
X93572987Y-68774366D01*
X93548983Y-68863470D01*
X93547461Y-68870753D01*
X93540465Y-68909531D01*
X93533531Y-68955794D01*
X93527113Y-69005607D01*
X93521667Y-69055035D01*
X93517647Y-69100145D01*
X93515507Y-69137002D01*
X93515278Y-69149360D01*
X93514508Y-69172192D01*
X93512501Y-69188089D01*
X93509986Y-69193360D01*
X93501833Y-69192848D01*
X93481445Y-69191475D01*
X93450666Y-69189366D01*
X93411339Y-69186649D01*
X93365306Y-69183451D01*
X93314410Y-69179898D01*
X93307139Y-69179389D01*
X93255651Y-69175795D01*
X93208712Y-69172539D01*
X93168178Y-69169747D01*
X93135905Y-69167548D01*
X93113748Y-69166067D01*
X93103563Y-69165432D01*
X93103209Y-69165419D01*
X93100622Y-69158704D01*
X93099335Y-69140218D01*
X93099226Y-69112228D01*
X93100175Y-69077000D01*
X93102061Y-69036804D01*
X93104765Y-68993905D01*
X93108165Y-68950572D01*
X93112140Y-68909072D01*
X93116571Y-68871672D01*
X93120103Y-68847778D01*
X93150208Y-68701637D01*
X93190555Y-68565195D01*
X93241166Y-68438420D01*
X93302062Y-68321279D01*
X93373267Y-68213742D01*
X93454802Y-68115775D01*
X93546689Y-68027347D01*
X93648951Y-67948426D01*
X93761610Y-67878979D01*
X93808765Y-67854258D01*
X93904551Y-67811238D01*
X94005848Y-67775580D01*
X94115328Y-67746450D01*
X94221050Y-67725471D01*
X94264872Y-67719516D01*
X94319782Y-67714480D01*
X94382781Y-67710441D01*
X94450871Y-67707476D01*
X94521053Y-67705664D01*
X94590328Y-67705082D01*
X94655699Y-67705810D01*
G37*
X94655699Y-67705810D02*
X94714166Y-67707924D01*
X94761649Y-67711394D01*
X94849812Y-67722772D01*
X94937316Y-67738883D01*
X95021210Y-67758975D01*
X95098539Y-67782293D01*
X95166351Y-67808084D01*
X95197656Y-67822616D01*
X95282126Y-67872598D01*
X95357007Y-67932732D01*
X95421907Y-68002464D01*
X95476433Y-68081243D01*
X95520191Y-68168515D01*
X95552789Y-68263728D01*
X95570897Y-68347233D01*
X95584899Y-68464588D01*
X95586925Y-68574614D01*
X95576909Y-68677546D01*
X95554787Y-68773622D01*
X95520493Y-68863075D01*
X95473963Y-68946144D01*
X95415131Y-69023064D01*
X95372545Y-69067677D01*
X95292386Y-69135450D01*
X95203217Y-69192411D01*
X95105181Y-69238488D01*
X94998422Y-69273611D01*
X94930140Y-69289415D01*
X94901402Y-69293698D01*
X94863035Y-69297463D01*
X94818790Y-69300544D01*
X94772419Y-69302772D01*
X94727673Y-69303977D01*
X94688302Y-69303993D01*
X94658058Y-69302649D01*
X94651222Y-69301943D01*
X94541013Y-69283204D01*
X94441759Y-69255896D01*
X94352996Y-69219741D01*
X94274257Y-69174459D01*
X94205077Y-69119770D01*
X94144992Y-69055393D01*
X94093535Y-68981050D01*
X94080958Y-68959045D01*
X94044642Y-68882644D01*
X94017108Y-68801120D01*
X93997773Y-68712243D01*
X93986054Y-68613785D01*
X93984417Y-68590250D01*
X93984681Y-68513052D01*
X93995238Y-68433952D01*
X93995968Y-68431076D01*
X94390938Y-68431076D01*
X94391165Y-68499931D01*
X94397655Y-68565086D01*
X94410402Y-68623523D01*
X94428669Y-68670791D01*
X94460249Y-68717917D01*
X94502557Y-68757316D01*
X94554262Y-68788584D01*
X94614030Y-68811317D01*
X94680530Y-68825112D01*
X94752428Y-68829564D01*
X94828392Y-68824271D01*
X94894639Y-68811933D01*
X94965646Y-68789339D01*
X95026855Y-68758331D01*
X95077677Y-68719697D01*
X95117520Y-68674224D01*
X95145796Y-68622700D01*
X95161914Y-68565911D01*
X95165285Y-68504647D01*
X95159519Y-68458367D01*
X95143505Y-68403181D01*
X95118208Y-68356791D01*
X95083976Y-68317978D01*
X95029587Y-68275520D01*
X94966011Y-68241647D01*
X94892162Y-68215855D01*
X94834034Y-68202390D01*
X94799926Y-68197089D01*
X94756764Y-68192222D01*
X94707819Y-68187975D01*
X94656360Y-68184534D01*
X94605657Y-68182088D01*
X94558978Y-68180822D01*
X94519595Y-68180924D01*
X94490777Y-68182580D01*
X94489643Y-68182711D01*
X94444480Y-68188084D01*
X94427891Y-68232480D01*
X94409296Y-68294332D01*
X94396980Y-68361537D01*
X94390938Y-68431076D01*
X93995968Y-68431076D01*
X94016522Y-68350152D01*
X94026182Y-68320375D01*
X94033630Y-68296245D01*
X94037717Y-68278246D01*
X94037762Y-68269566D01*
X94037130Y-68269222D01*
X94023116Y-68272277D01*
X93999990Y-68280475D01*
X93971119Y-68292370D01*
X93939870Y-68306516D01*
X93909608Y-68321465D01*
X93887482Y-68333544D01*
X93850467Y-68358688D01*
X93809600Y-68392507D01*
X93768385Y-68431633D01*
X93730322Y-68472698D01*
X93698914Y-68512333D01*
X93693531Y-68520102D01*
X93647323Y-68597732D01*
X93606454Y-68684136D01*
X93572987Y-68774366D01*
X93548983Y-68863470D01*
X93547461Y-68870753D01*
X93540465Y-68909531D01*
X93533531Y-68955794D01*
X93527113Y-69005607D01*
X93521667Y-69055035D01*
X93517647Y-69100145D01*
X93515507Y-69137002D01*
X93515278Y-69149360D01*
X93514508Y-69172192D01*
X93512501Y-69188089D01*
X93509986Y-69193360D01*
X93501833Y-69192848D01*
X93481445Y-69191475D01*
X93450666Y-69189366D01*
X93411339Y-69186649D01*
X93365306Y-69183451D01*
X93314410Y-69179898D01*
X93307139Y-69179389D01*
X93255651Y-69175795D01*
X93208712Y-69172539D01*
X93168178Y-69169747D01*
X93135905Y-69167548D01*
X93113748Y-69166067D01*
X93103563Y-69165432D01*
X93103209Y-69165419D01*
X93100622Y-69158704D01*
X93099335Y-69140218D01*
X93099226Y-69112228D01*
X93100175Y-69077000D01*
X93102061Y-69036804D01*
X93104765Y-68993905D01*
X93108165Y-68950572D01*
X93112140Y-68909072D01*
X93116571Y-68871672D01*
X93120103Y-68847778D01*
X93150208Y-68701637D01*
X93190555Y-68565195D01*
X93241166Y-68438420D01*
X93302062Y-68321279D01*
X93373267Y-68213742D01*
X93454802Y-68115775D01*
X93546689Y-68027347D01*
X93648951Y-67948426D01*
X93761610Y-67878979D01*
X93808765Y-67854258D01*
X93904551Y-67811238D01*
X94005848Y-67775580D01*
X94115328Y-67746450D01*
X94221050Y-67725471D01*
X94264872Y-67719516D01*
X94319782Y-67714480D01*
X94382781Y-67710441D01*
X94450871Y-67707476D01*
X94521053Y-67705664D01*
X94590328Y-67705082D01*
X94655699Y-67705810D01*
D11*
X133612000Y-92752000D03*
X133612000Y-90212000D03*
X133612000Y-87672000D03*
X133612000Y-85132000D03*
D12*
X133612000Y-82592000D03*
D13*
X98577000Y-76571500D03*
X98579600Y-72097700D03*
X98577000Y-74351500D03*
D14*
X94305500Y-104817000D03*
D15*
X94305500Y-102277000D03*
X96845500Y-104817000D03*
X96845500Y-102277000D03*
X99385500Y-104817000D03*
X99385500Y-102277000D03*
X101925500Y-104817000D03*
X101925500Y-102277000D03*
D16*
X95945000Y-71160000D03*
X95945000Y-79800000D03*
D17*
X91865000Y-71160000D03*
X91865000Y-79800000D03*
D18*
X95445000Y-78370000D03*
X95445000Y-72590000D03*
D19*
X104880000Y-111020000D03*
X181090000Y-62780000D03*
X106150000Y-62770000D03*
X187420000Y-111010000D03*
D12*
X187460000Y-67860000D03*
D11*
X184920000Y-67860000D03*
X187460000Y-70400000D03*
X184920000Y-70400000D03*
X187460000Y-72940000D03*
X184920000Y-72940000D03*
X187460000Y-75480000D03*
X184920000Y-75480000D03*
X187460000Y-78020000D03*
X184920000Y-78020000D03*
X187460000Y-80560000D03*
X184920000Y-80560000D03*
X187460000Y-83100000D03*
X184920000Y-83100000D03*
X187460000Y-85640000D03*
X184920000Y-85640000D03*
X187460000Y-88180000D03*
X184920000Y-88180000D03*
X187460000Y-90720000D03*
X184920000Y-90720000D03*
X187460000Y-93260000D03*
X184920000Y-93260000D03*
X187460000Y-95800000D03*
X184920000Y-95800000D03*
X187460000Y-98340000D03*
X184920000Y-98340000D03*
X187460000Y-100880000D03*
X184920000Y-100880000D03*
D12*
X156980000Y-62780000D03*
D11*
X159520000Y-62780000D03*
X162060000Y-62780000D03*
X164600000Y-62780000D03*
X167140000Y-62780000D03*
X169680000Y-62780000D03*
X172220000Y-62780000D03*
X174760000Y-62780000D03*
X164600000Y-111040000D03*
X162060000Y-111040000D03*
X159520000Y-111040000D03*
X156980000Y-111040000D03*
X154440000Y-111040000D03*
X151900000Y-111040000D03*
X149360000Y-111040000D03*
D12*
X146820000Y-111040000D03*
X131580000Y-62780000D03*
D11*
X134120000Y-62780000D03*
X136660000Y-62780000D03*
X139200000Y-62780000D03*
D12*
X144280000Y-62780000D03*
D11*
X146820000Y-62780000D03*
X149360000Y-62780000D03*
X151900000Y-62780000D03*
X141740000Y-111074000D03*
X139200000Y-111074000D03*
X136660000Y-111074000D03*
D12*
X134120000Y-111074000D03*
X113800000Y-62780000D03*
D11*
X116340000Y-62780000D03*
X118880000Y-62780000D03*
X121420000Y-62780000D03*
X123960000Y-62780000D03*
X126500000Y-62780000D03*
D13*
X98577000Y-78782000D03*
D12*
X93162500Y-111294000D03*
D11*
X93162500Y-108754000D03*
D12*
X99703000Y-110024000D03*
D11*
X97163000Y-110024000D03*
D20*
X148199002Y-103692000D03*
X104338000Y-67796024D03*
X115768500Y-108627000D03*
X114816000Y-102213500D03*
X121251290Y-104817000D03*
X118753000Y-84433500D03*
X118753000Y-90402506D03*
X124468000Y-105593522D03*
X141012600Y-85399000D03*
X168283006Y-94720500D03*
X168283004Y-84243000D03*
X108910500Y-90275500D03*
X157678500Y-105007500D03*
X144751558Y-83900697D03*
X149550500Y-72495500D03*
X157678500Y-103737500D03*
X145931000Y-83925500D03*
X141004300Y-83799000D03*
X167140000Y-94720500D03*
X167140000Y-85128390D03*
X108910500Y-92498000D03*
X163456992Y-74972000D03*
X151099200Y-73503500D03*
X107577004Y-101261000D03*
X179014512Y-70908000D03*
X172474000Y-70907996D03*
X107577000Y-103420000D03*
X176728500Y-73829000D03*
X152408000Y-87037000D03*
X147391500Y-87037000D03*
X150757000Y-75797496D03*
X108910500Y-88116500D03*
X111768000Y-85894000D03*
X108910500Y-93641000D03*
X142629000Y-95673000D03*
X132342000Y-91482000D03*
X118499000Y-94022000D03*
X143899000Y-90910500D03*
X149550500Y-74019500D03*
X149105982Y-67606000D03*
X178443000Y-95990500D03*
X167140000Y-95990504D03*
X164919000Y-85513000D03*
X178379502Y-84243000D03*
X117419500Y-103229500D03*
X121991500Y-106722000D03*
X98560000Y-72114501D03*
X99068000Y-66713972D03*
X118498992Y-109893390D03*
X118053500Y-100054000D03*
X100528500Y-94085500D03*
X119648000Y-100921210D03*
X120721500Y-108754000D03*
X110053500Y-76559500D03*
X98577000Y-76571500D03*
X110053500Y-74337000D03*
X98577000Y-74351500D03*
X162695000Y-95101500D03*
X150439500Y-89386499D03*
X144787992Y-95673000D03*
X145486500Y-106468000D03*
X145690000Y-96562000D03*
X145486500Y-104563000D03*
X158758000Y-99292500D03*
X156789504Y-99292494D03*
X154694000Y-99292504D03*
X152535000Y-99292500D03*
X117165498Y-77448500D03*
X139644500Y-85386002D03*
X141168500Y-93387000D03*
X141041500Y-86973500D03*
X158821500Y-90338996D03*
X158948500Y-74598221D03*
X153741500Y-75797500D03*
X168283000Y-97260500D03*
X150439500Y-91736000D03*
X166374390Y-87386784D03*
X152408000Y-90593000D03*
X102116000Y-63835000D03*
X92654500Y-83367000D03*
X93988000Y-91418500D03*
X127262000Y-95609500D03*
X140026000Y-75734500D03*
X147290000Y-98149500D03*
X151264998Y-105007500D03*
X134691500Y-107484000D03*
X135072016Y-101452000D03*
X125368500Y-77321506D03*
X157525804Y-68841433D03*
X157489619Y-71798619D03*
X169869000Y-93450500D03*
X165947000Y-89005500D03*
X169869000Y-82973000D03*
X167457500Y-79671000D03*
X165933500Y-102966410D03*
X136342500Y-101451500D03*
X158313500Y-65447000D03*
X132976998Y-67987000D03*
X120986500Y-66526500D03*
X120975500Y-67733000D03*
X159138998Y-71797000D03*
X176728500Y-86783000D03*
X176665000Y-97260500D03*
X171521500Y-89005500D03*
X171521500Y-92244000D03*
X135095000Y-72098500D03*
X171585000Y-79671000D03*
X178379500Y-82973000D03*
X172474000Y-73003500D03*
X178443000Y-93450500D03*
X178443000Y-72559000D03*
X126840020Y-82893500D03*
X173426500Y-93450506D03*
X172474000Y-83477390D03*
X146490000Y-97324000D03*
X151264998Y-107166500D03*
X149677504Y-80052000D03*
X149677500Y-83925500D03*
X153360500Y-81576000D03*
X157995998Y-78527998D03*
X103767000Y-103356500D03*
X103767000Y-101261000D03*
X124087000Y-67733000D03*
X125103000Y-110024000D03*
X125103000Y-111040000D03*
X123833000Y-111040000D03*
X123833000Y-110024000D03*
X175840000Y-102991500D03*
X102098400Y-62239200D03*
X133233000Y-102727000D03*
X102180000Y-71510300D03*
X173647267Y-103703962D03*
X172292084Y-105569212D03*
X172292084Y-107874788D03*
X173647267Y-109740038D03*
X175840000Y-110452500D03*
X178032733Y-109740038D03*
X179387916Y-107874788D03*
X179387916Y-105569212D03*
X178032733Y-103703962D03*
X159456500Y-103737500D03*
X115768500Y-112183000D03*
X111958500Y-112183000D03*
X128024000Y-112183000D03*
X130183000Y-112183000D03*
X92400506Y-62454400D03*
X150047211Y-101436973D03*
X145486500Y-107611000D03*
X143518000Y-71035000D03*
X148979000Y-99419500D03*
X172474000Y-98403496D03*
X143899000Y-87799002D03*
X139805694Y-101451500D03*
X181681500Y-76369000D03*
X151138000Y-71987500D03*
X148598000Y-75797500D03*
X124087000Y-66526500D03*
X172474000Y-87862500D03*
X177871500Y-78591500D03*
X163266500Y-89005504D03*
X160726000Y-95101990D03*
X148090000Y-91863004D03*
X128443500Y-77321500D03*
X103767000Y-105579000D03*
X127262000Y-97768504D03*
X111006000Y-102213500D03*
X114816008Y-100054500D03*
X114752500Y-73434000D03*
X114727518Y-77956500D03*
X114727518Y-76813500D03*
X115832000Y-73434000D03*
X146185000Y-68685500D03*
X145738884Y-71036622D03*
X106244000Y-75416500D03*
X101608000Y-75226000D03*
X92455000Y-98601468D03*
X92905000Y-85101484D03*
X103255000Y-85101484D03*
X107555012Y-96476710D03*
X117139000Y-97209500D03*
X136914000Y-76051500D03*
X120657994Y-79671000D03*
X109736000Y-67796490D03*
X121991500Y-72685996D03*
X147260890Y-83925500D03*
X154186000Y-67606000D03*
X163139500Y-67606000D03*
X151421061Y-88436937D03*
X172474000Y-77512000D03*
X109990000Y-79925000D03*
X126750982Y-85259000D03*
X133167500Y-99277956D03*
X167989000Y-75012500D03*
X157551500Y-84624000D03*
X167838500Y-71987504D03*
X159901000Y-79925000D03*
X159012000Y-88497500D03*
X155646502Y-83798502D03*
M02*
