G04 #@! TF.GenerationSoftware,KiCad,Pcbnew,5.1.10-88a1d61d58~90~ubuntu20.04.1*
G04 #@! TF.CreationDate,2021-10-20T11:32:16+02:00*
G04 #@! TF.ProjectId,PSLab,50534c61-622e-46b6-9963-61645f706362,v6.1*
G04 #@! TF.SameCoordinates,Original*
G04 #@! TF.FileFunction,Paste,Top*
G04 #@! TF.FilePolarity,Positive*
%FSLAX46Y46*%
G04 Gerber Fmt 4.6, Leading zero omitted, Abs format (unit mm)*
G04 Created by KiCad (PCBNEW 5.1.10-88a1d61d58~90~ubuntu20.04.1) date 2021-10-20 11:32:16*
%MOMM*%
%LPD*%
G01*
G04 APERTURE LIST*
%ADD10R,1.500000X1.000000*%
%ADD11R,1.700000X0.900000*%
%ADD12R,1.500000X0.550000*%
%ADD13R,0.550000X1.500000*%
%ADD14R,0.600000X0.600000*%
%ADD15R,0.700000X0.450000*%
%ADD16R,1.270000X0.610000*%
%ADD17R,1.020000X0.610000*%
%ADD18R,3.810000X3.910000*%
%ADD19R,1.400000X0.300000*%
%ADD20R,0.650000X1.060000*%
%ADD21R,0.800000X0.900000*%
%ADD22R,0.900000X0.800000*%
%ADD23R,1.300000X1.700000*%
%ADD24R,1.700000X1.300000*%
%ADD25R,1.200000X0.700000*%
%ADD26R,1.200000X1.000000*%
%ADD27R,0.800000X1.000000*%
%ADD28R,2.800000X1.000000*%
%ADD29R,1.900000X1.300000*%
%ADD30R,4.700000X1.200000*%
%ADD31R,1.200000X1.400000*%
%ADD32R,1.800000X1.000000*%
G04 APERTURE END LIST*
D10*
X112239000Y-94009500D03*
X112239000Y-97209500D03*
X117139000Y-94009500D03*
X117139000Y-97209500D03*
D11*
X133612000Y-76066000D03*
X133612000Y-79466000D03*
X133548000Y-99278000D03*
X133548000Y-95878000D03*
G36*
G01*
X168894000Y-93600500D02*
X168894000Y-93300500D01*
G75*
G02*
X169044000Y-93150500I150000J0D01*
G01*
X170694000Y-93150500D01*
G75*
G02*
X170844000Y-93300500I0J-150000D01*
G01*
X170844000Y-93600500D01*
G75*
G02*
X170694000Y-93750500I-150000J0D01*
G01*
X169044000Y-93750500D01*
G75*
G02*
X168894000Y-93600500I0J150000D01*
G01*
G37*
G36*
G01*
X168894000Y-94870500D02*
X168894000Y-94570500D01*
G75*
G02*
X169044000Y-94420500I150000J0D01*
G01*
X170694000Y-94420500D01*
G75*
G02*
X170844000Y-94570500I0J-150000D01*
G01*
X170844000Y-94870500D01*
G75*
G02*
X170694000Y-95020500I-150000J0D01*
G01*
X169044000Y-95020500D01*
G75*
G02*
X168894000Y-94870500I0J150000D01*
G01*
G37*
G36*
G01*
X168894000Y-96140500D02*
X168894000Y-95840500D01*
G75*
G02*
X169044000Y-95690500I150000J0D01*
G01*
X170694000Y-95690500D01*
G75*
G02*
X170844000Y-95840500I0J-150000D01*
G01*
X170844000Y-96140500D01*
G75*
G02*
X170694000Y-96290500I-150000J0D01*
G01*
X169044000Y-96290500D01*
G75*
G02*
X168894000Y-96140500I0J150000D01*
G01*
G37*
G36*
G01*
X168894000Y-97410500D02*
X168894000Y-97110500D01*
G75*
G02*
X169044000Y-96960500I150000J0D01*
G01*
X170694000Y-96960500D01*
G75*
G02*
X170844000Y-97110500I0J-150000D01*
G01*
X170844000Y-97410500D01*
G75*
G02*
X170694000Y-97560500I-150000J0D01*
G01*
X169044000Y-97560500D01*
G75*
G02*
X168894000Y-97410500I0J150000D01*
G01*
G37*
G36*
G01*
X163944000Y-97410500D02*
X163944000Y-97110500D01*
G75*
G02*
X164094000Y-96960500I150000J0D01*
G01*
X165744000Y-96960500D01*
G75*
G02*
X165894000Y-97110500I0J-150000D01*
G01*
X165894000Y-97410500D01*
G75*
G02*
X165744000Y-97560500I-150000J0D01*
G01*
X164094000Y-97560500D01*
G75*
G02*
X163944000Y-97410500I0J150000D01*
G01*
G37*
G36*
G01*
X163944000Y-96140500D02*
X163944000Y-95840500D01*
G75*
G02*
X164094000Y-95690500I150000J0D01*
G01*
X165744000Y-95690500D01*
G75*
G02*
X165894000Y-95840500I0J-150000D01*
G01*
X165894000Y-96140500D01*
G75*
G02*
X165744000Y-96290500I-150000J0D01*
G01*
X164094000Y-96290500D01*
G75*
G02*
X163944000Y-96140500I0J150000D01*
G01*
G37*
G36*
G01*
X163944000Y-94870500D02*
X163944000Y-94570500D01*
G75*
G02*
X164094000Y-94420500I150000J0D01*
G01*
X165744000Y-94420500D01*
G75*
G02*
X165894000Y-94570500I0J-150000D01*
G01*
X165894000Y-94870500D01*
G75*
G02*
X165744000Y-95020500I-150000J0D01*
G01*
X164094000Y-95020500D01*
G75*
G02*
X163944000Y-94870500I0J150000D01*
G01*
G37*
G36*
G01*
X163944000Y-93600500D02*
X163944000Y-93300500D01*
G75*
G02*
X164094000Y-93150500I150000J0D01*
G01*
X165744000Y-93150500D01*
G75*
G02*
X165894000Y-93300500I0J-150000D01*
G01*
X165894000Y-93600500D01*
G75*
G02*
X165744000Y-93750500I-150000J0D01*
G01*
X164094000Y-93750500D01*
G75*
G02*
X163944000Y-93600500I0J150000D01*
G01*
G37*
G36*
G01*
X175757000Y-81025500D02*
X175757000Y-80475500D01*
G75*
G02*
X175957000Y-80275500I200000J0D01*
G01*
X176357000Y-80275500D01*
G75*
G02*
X176557000Y-80475500I0J-200000D01*
G01*
X176557000Y-81025500D01*
G75*
G02*
X176357000Y-81225500I-200000J0D01*
G01*
X175957000Y-81225500D01*
G75*
G02*
X175757000Y-81025500I0J200000D01*
G01*
G37*
G36*
G01*
X174107000Y-81025500D02*
X174107000Y-80475500D01*
G75*
G02*
X174307000Y-80275500I200000J0D01*
G01*
X174707000Y-80275500D01*
G75*
G02*
X174907000Y-80475500I0J-200000D01*
G01*
X174907000Y-81025500D01*
G75*
G02*
X174707000Y-81225500I-200000J0D01*
G01*
X174307000Y-81225500D01*
G75*
G02*
X174107000Y-81025500I0J200000D01*
G01*
G37*
G36*
G01*
X179118000Y-72709000D02*
X179118000Y-72409000D01*
G75*
G02*
X179268000Y-72259000I150000J0D01*
G01*
X180918000Y-72259000D01*
G75*
G02*
X181068000Y-72409000I0J-150000D01*
G01*
X181068000Y-72709000D01*
G75*
G02*
X180918000Y-72859000I-150000J0D01*
G01*
X179268000Y-72859000D01*
G75*
G02*
X179118000Y-72709000I0J150000D01*
G01*
G37*
G36*
G01*
X179118000Y-73979000D02*
X179118000Y-73679000D01*
G75*
G02*
X179268000Y-73529000I150000J0D01*
G01*
X180918000Y-73529000D01*
G75*
G02*
X181068000Y-73679000I0J-150000D01*
G01*
X181068000Y-73979000D01*
G75*
G02*
X180918000Y-74129000I-150000J0D01*
G01*
X179268000Y-74129000D01*
G75*
G02*
X179118000Y-73979000I0J150000D01*
G01*
G37*
G36*
G01*
X179118000Y-75249000D02*
X179118000Y-74949000D01*
G75*
G02*
X179268000Y-74799000I150000J0D01*
G01*
X180918000Y-74799000D01*
G75*
G02*
X181068000Y-74949000I0J-150000D01*
G01*
X181068000Y-75249000D01*
G75*
G02*
X180918000Y-75399000I-150000J0D01*
G01*
X179268000Y-75399000D01*
G75*
G02*
X179118000Y-75249000I0J150000D01*
G01*
G37*
G36*
G01*
X179118000Y-76519000D02*
X179118000Y-76219000D01*
G75*
G02*
X179268000Y-76069000I150000J0D01*
G01*
X180918000Y-76069000D01*
G75*
G02*
X181068000Y-76219000I0J-150000D01*
G01*
X181068000Y-76519000D01*
G75*
G02*
X180918000Y-76669000I-150000J0D01*
G01*
X179268000Y-76669000D01*
G75*
G02*
X179118000Y-76519000I0J150000D01*
G01*
G37*
G36*
G01*
X174168000Y-76519000D02*
X174168000Y-76219000D01*
G75*
G02*
X174318000Y-76069000I150000J0D01*
G01*
X175968000Y-76069000D01*
G75*
G02*
X176118000Y-76219000I0J-150000D01*
G01*
X176118000Y-76519000D01*
G75*
G02*
X175968000Y-76669000I-150000J0D01*
G01*
X174318000Y-76669000D01*
G75*
G02*
X174168000Y-76519000I0J150000D01*
G01*
G37*
G36*
G01*
X174168000Y-75249000D02*
X174168000Y-74949000D01*
G75*
G02*
X174318000Y-74799000I150000J0D01*
G01*
X175968000Y-74799000D01*
G75*
G02*
X176118000Y-74949000I0J-150000D01*
G01*
X176118000Y-75249000D01*
G75*
G02*
X175968000Y-75399000I-150000J0D01*
G01*
X174318000Y-75399000D01*
G75*
G02*
X174168000Y-75249000I0J150000D01*
G01*
G37*
G36*
G01*
X174168000Y-73979000D02*
X174168000Y-73679000D01*
G75*
G02*
X174318000Y-73529000I150000J0D01*
G01*
X175968000Y-73529000D01*
G75*
G02*
X176118000Y-73679000I0J-150000D01*
G01*
X176118000Y-73979000D01*
G75*
G02*
X175968000Y-74129000I-150000J0D01*
G01*
X174318000Y-74129000D01*
G75*
G02*
X174168000Y-73979000I0J150000D01*
G01*
G37*
G36*
G01*
X174168000Y-72709000D02*
X174168000Y-72409000D01*
G75*
G02*
X174318000Y-72259000I150000J0D01*
G01*
X175968000Y-72259000D01*
G75*
G02*
X176118000Y-72409000I0J-150000D01*
G01*
X176118000Y-72709000D01*
G75*
G02*
X175968000Y-72859000I-150000J0D01*
G01*
X174318000Y-72859000D01*
G75*
G02*
X174168000Y-72709000I0J150000D01*
G01*
G37*
D12*
X142390000Y-91799000D03*
X142390000Y-90999000D03*
X142390000Y-90199000D03*
X142390000Y-89399000D03*
X142390000Y-88599000D03*
X142390000Y-87799000D03*
X142390000Y-86999000D03*
X142390000Y-86199000D03*
X142390000Y-85399000D03*
X142390000Y-84599000D03*
X142390000Y-83799000D03*
D13*
X144090000Y-82099000D03*
X144890000Y-82099000D03*
X145690000Y-82099000D03*
X146490000Y-82099000D03*
X147290000Y-82099000D03*
X148090000Y-82099000D03*
X148890000Y-82099000D03*
X149690000Y-82099000D03*
X150490000Y-82099000D03*
X151290000Y-82099000D03*
X152090000Y-82099000D03*
D12*
X153790000Y-83799000D03*
X153790000Y-84599000D03*
X153790000Y-85399000D03*
X153790000Y-86199000D03*
X153790000Y-86999000D03*
X153790000Y-87799000D03*
X153790000Y-88599000D03*
X153790000Y-89399000D03*
X153790000Y-90199000D03*
X153790000Y-90999000D03*
X153790000Y-91799000D03*
D13*
X152090000Y-93499000D03*
X151290000Y-93499000D03*
X150490000Y-93499000D03*
X149690000Y-93499000D03*
X148890000Y-93499000D03*
X148090000Y-93499000D03*
X147290000Y-93499000D03*
X146490000Y-93499000D03*
X145690000Y-93499000D03*
X144890000Y-93499000D03*
X144090000Y-93499000D03*
G36*
G01*
X102216000Y-73954600D02*
X102216000Y-74754600D01*
G75*
G02*
X101916000Y-75054600I-300000J0D01*
G01*
X101316000Y-75054600D01*
G75*
G02*
X101016000Y-74754600I0J300000D01*
G01*
X101016000Y-73954600D01*
G75*
G02*
X101316000Y-73654600I300000J0D01*
G01*
X101916000Y-73654600D01*
G75*
G02*
X102216000Y-73954600I0J-300000D01*
G01*
G37*
G36*
G01*
X100396000Y-73904600D02*
X100396000Y-74804600D01*
G75*
G02*
X100146000Y-75054600I-250000J0D01*
G01*
X99646000Y-75054600D01*
G75*
G02*
X99396000Y-74804600I0J250000D01*
G01*
X99396000Y-73904600D01*
G75*
G02*
X99646000Y-73654600I250000J0D01*
G01*
X100146000Y-73654600D01*
G75*
G02*
X100396000Y-73904600I0J-250000D01*
G01*
G37*
G36*
G01*
X100396000Y-76104600D02*
X100396000Y-77004600D01*
G75*
G02*
X100146000Y-77254600I-250000J0D01*
G01*
X99646000Y-77254600D01*
G75*
G02*
X99396000Y-77004600I0J250000D01*
G01*
X99396000Y-76104600D01*
G75*
G02*
X99646000Y-75854600I250000J0D01*
G01*
X100146000Y-75854600D01*
G75*
G02*
X100396000Y-76104600I0J-250000D01*
G01*
G37*
G36*
G01*
X102296000Y-76104600D02*
X102296000Y-77004600D01*
G75*
G02*
X102046000Y-77254600I-250000J0D01*
G01*
X101546000Y-77254600D01*
G75*
G02*
X101296000Y-77004600I0J250000D01*
G01*
X101296000Y-76104600D01*
G75*
G02*
X101546000Y-75854600I250000J0D01*
G01*
X102046000Y-75854600D01*
G75*
G02*
X102296000Y-76104600I0J-250000D01*
G01*
G37*
D14*
X97750000Y-64060000D03*
X96950000Y-64060000D03*
X97750000Y-63260000D03*
X96950000Y-63260000D03*
X96950000Y-62460000D03*
X97750000Y-62460000D03*
D15*
X95975000Y-64210000D03*
X95975000Y-63260000D03*
X95975000Y-62310000D03*
X98725000Y-62310000D03*
X98725000Y-63260000D03*
X98725000Y-64210000D03*
G36*
G01*
X116807500Y-109197000D02*
X116682500Y-109197000D01*
G75*
G02*
X116620000Y-109134500I0J62500D01*
G01*
X116620000Y-108409500D01*
G75*
G02*
X116682500Y-108347000I62500J0D01*
G01*
X116807500Y-108347000D01*
G75*
G02*
X116870000Y-108409500I0J-62500D01*
G01*
X116870000Y-109134500D01*
G75*
G02*
X116807500Y-109197000I-62500J0D01*
G01*
G37*
G36*
G01*
X117307500Y-109197000D02*
X117182500Y-109197000D01*
G75*
G02*
X117120000Y-109134500I0J62500D01*
G01*
X117120000Y-108409500D01*
G75*
G02*
X117182500Y-108347000I62500J0D01*
G01*
X117307500Y-108347000D01*
G75*
G02*
X117370000Y-108409500I0J-62500D01*
G01*
X117370000Y-109134500D01*
G75*
G02*
X117307500Y-109197000I-62500J0D01*
G01*
G37*
G36*
G01*
X117807500Y-109197000D02*
X117682500Y-109197000D01*
G75*
G02*
X117620000Y-109134500I0J62500D01*
G01*
X117620000Y-108409500D01*
G75*
G02*
X117682500Y-108347000I62500J0D01*
G01*
X117807500Y-108347000D01*
G75*
G02*
X117870000Y-108409500I0J-62500D01*
G01*
X117870000Y-109134500D01*
G75*
G02*
X117807500Y-109197000I-62500J0D01*
G01*
G37*
G36*
G01*
X118307500Y-109197000D02*
X118182500Y-109197000D01*
G75*
G02*
X118120000Y-109134500I0J62500D01*
G01*
X118120000Y-108409500D01*
G75*
G02*
X118182500Y-108347000I62500J0D01*
G01*
X118307500Y-108347000D01*
G75*
G02*
X118370000Y-108409500I0J-62500D01*
G01*
X118370000Y-109134500D01*
G75*
G02*
X118307500Y-109197000I-62500J0D01*
G01*
G37*
G36*
G01*
X118807500Y-109197000D02*
X118682500Y-109197000D01*
G75*
G02*
X118620000Y-109134500I0J62500D01*
G01*
X118620000Y-108409500D01*
G75*
G02*
X118682500Y-108347000I62500J0D01*
G01*
X118807500Y-108347000D01*
G75*
G02*
X118870000Y-108409500I0J-62500D01*
G01*
X118870000Y-109134500D01*
G75*
G02*
X118807500Y-109197000I-62500J0D01*
G01*
G37*
G36*
G01*
X119307500Y-109197000D02*
X119182500Y-109197000D01*
G75*
G02*
X119120000Y-109134500I0J62500D01*
G01*
X119120000Y-108409500D01*
G75*
G02*
X119182500Y-108347000I62500J0D01*
G01*
X119307500Y-108347000D01*
G75*
G02*
X119370000Y-108409500I0J-62500D01*
G01*
X119370000Y-109134500D01*
G75*
G02*
X119307500Y-109197000I-62500J0D01*
G01*
G37*
G36*
G01*
X119807500Y-109197000D02*
X119682500Y-109197000D01*
G75*
G02*
X119620000Y-109134500I0J62500D01*
G01*
X119620000Y-108409500D01*
G75*
G02*
X119682500Y-108347000I62500J0D01*
G01*
X119807500Y-108347000D01*
G75*
G02*
X119870000Y-108409500I0J-62500D01*
G01*
X119870000Y-109134500D01*
G75*
G02*
X119807500Y-109197000I-62500J0D01*
G01*
G37*
G36*
G01*
X121157500Y-107847000D02*
X120432500Y-107847000D01*
G75*
G02*
X120370000Y-107784500I0J62500D01*
G01*
X120370000Y-107659500D01*
G75*
G02*
X120432500Y-107597000I62500J0D01*
G01*
X121157500Y-107597000D01*
G75*
G02*
X121220000Y-107659500I0J-62500D01*
G01*
X121220000Y-107784500D01*
G75*
G02*
X121157500Y-107847000I-62500J0D01*
G01*
G37*
G36*
G01*
X121157500Y-107347000D02*
X120432500Y-107347000D01*
G75*
G02*
X120370000Y-107284500I0J62500D01*
G01*
X120370000Y-107159500D01*
G75*
G02*
X120432500Y-107097000I62500J0D01*
G01*
X121157500Y-107097000D01*
G75*
G02*
X121220000Y-107159500I0J-62500D01*
G01*
X121220000Y-107284500D01*
G75*
G02*
X121157500Y-107347000I-62500J0D01*
G01*
G37*
G36*
G01*
X121157500Y-106847000D02*
X120432500Y-106847000D01*
G75*
G02*
X120370000Y-106784500I0J62500D01*
G01*
X120370000Y-106659500D01*
G75*
G02*
X120432500Y-106597000I62500J0D01*
G01*
X121157500Y-106597000D01*
G75*
G02*
X121220000Y-106659500I0J-62500D01*
G01*
X121220000Y-106784500D01*
G75*
G02*
X121157500Y-106847000I-62500J0D01*
G01*
G37*
G36*
G01*
X121157500Y-106347000D02*
X120432500Y-106347000D01*
G75*
G02*
X120370000Y-106284500I0J62500D01*
G01*
X120370000Y-106159500D01*
G75*
G02*
X120432500Y-106097000I62500J0D01*
G01*
X121157500Y-106097000D01*
G75*
G02*
X121220000Y-106159500I0J-62500D01*
G01*
X121220000Y-106284500D01*
G75*
G02*
X121157500Y-106347000I-62500J0D01*
G01*
G37*
G36*
G01*
X121157500Y-105847000D02*
X120432500Y-105847000D01*
G75*
G02*
X120370000Y-105784500I0J62500D01*
G01*
X120370000Y-105659500D01*
G75*
G02*
X120432500Y-105597000I62500J0D01*
G01*
X121157500Y-105597000D01*
G75*
G02*
X121220000Y-105659500I0J-62500D01*
G01*
X121220000Y-105784500D01*
G75*
G02*
X121157500Y-105847000I-62500J0D01*
G01*
G37*
G36*
G01*
X119807500Y-105097000D02*
X119682500Y-105097000D01*
G75*
G02*
X119620000Y-105034500I0J62500D01*
G01*
X119620000Y-104309500D01*
G75*
G02*
X119682500Y-104247000I62500J0D01*
G01*
X119807500Y-104247000D01*
G75*
G02*
X119870000Y-104309500I0J-62500D01*
G01*
X119870000Y-105034500D01*
G75*
G02*
X119807500Y-105097000I-62500J0D01*
G01*
G37*
G36*
G01*
X119307500Y-105097000D02*
X119182500Y-105097000D01*
G75*
G02*
X119120000Y-105034500I0J62500D01*
G01*
X119120000Y-104309500D01*
G75*
G02*
X119182500Y-104247000I62500J0D01*
G01*
X119307500Y-104247000D01*
G75*
G02*
X119370000Y-104309500I0J-62500D01*
G01*
X119370000Y-105034500D01*
G75*
G02*
X119307500Y-105097000I-62500J0D01*
G01*
G37*
G36*
G01*
X118807500Y-105097000D02*
X118682500Y-105097000D01*
G75*
G02*
X118620000Y-105034500I0J62500D01*
G01*
X118620000Y-104309500D01*
G75*
G02*
X118682500Y-104247000I62500J0D01*
G01*
X118807500Y-104247000D01*
G75*
G02*
X118870000Y-104309500I0J-62500D01*
G01*
X118870000Y-105034500D01*
G75*
G02*
X118807500Y-105097000I-62500J0D01*
G01*
G37*
G36*
G01*
X118307500Y-105097000D02*
X118182500Y-105097000D01*
G75*
G02*
X118120000Y-105034500I0J62500D01*
G01*
X118120000Y-104309500D01*
G75*
G02*
X118182500Y-104247000I62500J0D01*
G01*
X118307500Y-104247000D01*
G75*
G02*
X118370000Y-104309500I0J-62500D01*
G01*
X118370000Y-105034500D01*
G75*
G02*
X118307500Y-105097000I-62500J0D01*
G01*
G37*
G36*
G01*
X117807500Y-105097000D02*
X117682500Y-105097000D01*
G75*
G02*
X117620000Y-105034500I0J62500D01*
G01*
X117620000Y-104309500D01*
G75*
G02*
X117682500Y-104247000I62500J0D01*
G01*
X117807500Y-104247000D01*
G75*
G02*
X117870000Y-104309500I0J-62500D01*
G01*
X117870000Y-105034500D01*
G75*
G02*
X117807500Y-105097000I-62500J0D01*
G01*
G37*
G36*
G01*
X117307500Y-105097000D02*
X117182500Y-105097000D01*
G75*
G02*
X117120000Y-105034500I0J62500D01*
G01*
X117120000Y-104309500D01*
G75*
G02*
X117182500Y-104247000I62500J0D01*
G01*
X117307500Y-104247000D01*
G75*
G02*
X117370000Y-104309500I0J-62500D01*
G01*
X117370000Y-105034500D01*
G75*
G02*
X117307500Y-105097000I-62500J0D01*
G01*
G37*
G36*
G01*
X116807500Y-105097000D02*
X116682500Y-105097000D01*
G75*
G02*
X116620000Y-105034500I0J62500D01*
G01*
X116620000Y-104309500D01*
G75*
G02*
X116682500Y-104247000I62500J0D01*
G01*
X116807500Y-104247000D01*
G75*
G02*
X116870000Y-104309500I0J-62500D01*
G01*
X116870000Y-105034500D01*
G75*
G02*
X116807500Y-105097000I-62500J0D01*
G01*
G37*
G36*
G01*
X116057500Y-105847000D02*
X115332500Y-105847000D01*
G75*
G02*
X115270000Y-105784500I0J62500D01*
G01*
X115270000Y-105659500D01*
G75*
G02*
X115332500Y-105597000I62500J0D01*
G01*
X116057500Y-105597000D01*
G75*
G02*
X116120000Y-105659500I0J-62500D01*
G01*
X116120000Y-105784500D01*
G75*
G02*
X116057500Y-105847000I-62500J0D01*
G01*
G37*
G36*
G01*
X116057500Y-106347000D02*
X115332500Y-106347000D01*
G75*
G02*
X115270000Y-106284500I0J62500D01*
G01*
X115270000Y-106159500D01*
G75*
G02*
X115332500Y-106097000I62500J0D01*
G01*
X116057500Y-106097000D01*
G75*
G02*
X116120000Y-106159500I0J-62500D01*
G01*
X116120000Y-106284500D01*
G75*
G02*
X116057500Y-106347000I-62500J0D01*
G01*
G37*
G36*
G01*
X116057500Y-106847000D02*
X115332500Y-106847000D01*
G75*
G02*
X115270000Y-106784500I0J62500D01*
G01*
X115270000Y-106659500D01*
G75*
G02*
X115332500Y-106597000I62500J0D01*
G01*
X116057500Y-106597000D01*
G75*
G02*
X116120000Y-106659500I0J-62500D01*
G01*
X116120000Y-106784500D01*
G75*
G02*
X116057500Y-106847000I-62500J0D01*
G01*
G37*
G36*
G01*
X116057500Y-107347000D02*
X115332500Y-107347000D01*
G75*
G02*
X115270000Y-107284500I0J62500D01*
G01*
X115270000Y-107159500D01*
G75*
G02*
X115332500Y-107097000I62500J0D01*
G01*
X116057500Y-107097000D01*
G75*
G02*
X116120000Y-107159500I0J-62500D01*
G01*
X116120000Y-107284500D01*
G75*
G02*
X116057500Y-107347000I-62500J0D01*
G01*
G37*
G36*
G01*
X116057500Y-107847000D02*
X115332500Y-107847000D01*
G75*
G02*
X115270000Y-107784500I0J62500D01*
G01*
X115270000Y-107659500D01*
G75*
G02*
X115332500Y-107597000I62500J0D01*
G01*
X116057500Y-107597000D01*
G75*
G02*
X116120000Y-107659500I0J-62500D01*
G01*
X116120000Y-107784500D01*
G75*
G02*
X116057500Y-107847000I-62500J0D01*
G01*
G37*
G36*
G01*
X117234600Y-107832000D02*
X116815400Y-107832000D01*
G75*
G02*
X116625000Y-107641600I0J190400D01*
G01*
X116625000Y-107122400D01*
G75*
G02*
X116815400Y-106932000I190400J0D01*
G01*
X117234600Y-106932000D01*
G75*
G02*
X117425000Y-107122400I0J-190400D01*
G01*
X117425000Y-107641600D01*
G75*
G02*
X117234600Y-107832000I-190400J0D01*
G01*
G37*
G36*
G01*
X118454600Y-107832000D02*
X118035400Y-107832000D01*
G75*
G02*
X117845000Y-107641600I0J190400D01*
G01*
X117845000Y-107122400D01*
G75*
G02*
X118035400Y-106932000I190400J0D01*
G01*
X118454600Y-106932000D01*
G75*
G02*
X118645000Y-107122400I0J-190400D01*
G01*
X118645000Y-107641600D01*
G75*
G02*
X118454600Y-107832000I-190400J0D01*
G01*
G37*
G36*
G01*
X119674600Y-107832000D02*
X119255400Y-107832000D01*
G75*
G02*
X119065000Y-107641600I0J190400D01*
G01*
X119065000Y-107122400D01*
G75*
G02*
X119255400Y-106932000I190400J0D01*
G01*
X119674600Y-106932000D01*
G75*
G02*
X119865000Y-107122400I0J-190400D01*
G01*
X119865000Y-107641600D01*
G75*
G02*
X119674600Y-107832000I-190400J0D01*
G01*
G37*
G36*
G01*
X117234600Y-106512000D02*
X116815400Y-106512000D01*
G75*
G02*
X116625000Y-106321600I0J190400D01*
G01*
X116625000Y-105802400D01*
G75*
G02*
X116815400Y-105612000I190400J0D01*
G01*
X117234600Y-105612000D01*
G75*
G02*
X117425000Y-105802400I0J-190400D01*
G01*
X117425000Y-106321600D01*
G75*
G02*
X117234600Y-106512000I-190400J0D01*
G01*
G37*
G36*
G01*
X118454600Y-106512000D02*
X118035400Y-106512000D01*
G75*
G02*
X117845000Y-106321600I0J190400D01*
G01*
X117845000Y-105802400D01*
G75*
G02*
X118035400Y-105612000I190400J0D01*
G01*
X118454600Y-105612000D01*
G75*
G02*
X118645000Y-105802400I0J-190400D01*
G01*
X118645000Y-106321600D01*
G75*
G02*
X118454600Y-106512000I-190400J0D01*
G01*
G37*
G36*
G01*
X119674600Y-106512000D02*
X119255400Y-106512000D01*
G75*
G02*
X119065000Y-106321600I0J190400D01*
G01*
X119065000Y-105802400D01*
G75*
G02*
X119255400Y-105612000I190400J0D01*
G01*
X119674600Y-105612000D01*
G75*
G02*
X119865000Y-105802400I0J-190400D01*
G01*
X119865000Y-106321600D01*
G75*
G02*
X119674600Y-106512000I-190400J0D01*
G01*
G37*
D16*
X119648000Y-98277000D03*
X119648000Y-99547000D03*
X119648000Y-100817000D03*
X119648000Y-102087000D03*
D17*
X125113000Y-102087000D03*
X125113000Y-100817000D03*
X125113000Y-99547000D03*
X125113000Y-98277000D03*
D18*
X123008000Y-100182000D03*
G36*
G01*
X167390000Y-108747000D02*
X167390000Y-104697000D01*
G75*
G02*
X167915000Y-104172000I525000J0D01*
G01*
X168965000Y-104172000D01*
G75*
G02*
X169490000Y-104697000I0J-525000D01*
G01*
X169490000Y-108747000D01*
G75*
G02*
X168965000Y-109272000I-525000J0D01*
G01*
X167915000Y-109272000D01*
G75*
G02*
X167390000Y-108747000I0J525000D01*
G01*
G37*
G36*
G01*
X182190000Y-108747000D02*
X182190000Y-104697000D01*
G75*
G02*
X182715000Y-104172000I525000J0D01*
G01*
X183765000Y-104172000D01*
G75*
G02*
X184290000Y-104697000I0J-525000D01*
G01*
X184290000Y-108747000D01*
G75*
G02*
X183765000Y-109272000I-525000J0D01*
G01*
X182715000Y-109272000D01*
G75*
G02*
X182190000Y-108747000I0J525000D01*
G01*
G37*
G36*
G01*
X164847000Y-99233000D02*
X164847000Y-99733000D01*
G75*
G02*
X164622000Y-99958000I-225000J0D01*
G01*
X164172000Y-99958000D01*
G75*
G02*
X163947000Y-99733000I0J225000D01*
G01*
X163947000Y-99233000D01*
G75*
G02*
X164172000Y-99008000I225000J0D01*
G01*
X164622000Y-99008000D01*
G75*
G02*
X164847000Y-99233000I0J-225000D01*
G01*
G37*
G36*
G01*
X166397000Y-99233000D02*
X166397000Y-99733000D01*
G75*
G02*
X166172000Y-99958000I-225000J0D01*
G01*
X165722000Y-99958000D01*
G75*
G02*
X165497000Y-99733000I0J225000D01*
G01*
X165497000Y-99233000D01*
G75*
G02*
X165722000Y-99008000I225000J0D01*
G01*
X166172000Y-99008000D01*
G75*
G02*
X166397000Y-99233000I0J-225000D01*
G01*
G37*
D19*
X152449000Y-72003500D03*
X152449000Y-72503500D03*
X152449000Y-73003500D03*
X152449000Y-73503500D03*
X152449000Y-74003500D03*
X148049000Y-74003500D03*
X148049000Y-73503500D03*
X148049000Y-73003500D03*
X148049000Y-72503500D03*
X148049000Y-72003500D03*
G36*
G01*
X160269750Y-97774000D02*
X161182250Y-97774000D01*
G75*
G02*
X161426000Y-98017750I0J-243750D01*
G01*
X161426000Y-98505250D01*
G75*
G02*
X161182250Y-98749000I-243750J0D01*
G01*
X160269750Y-98749000D01*
G75*
G02*
X160026000Y-98505250I0J243750D01*
G01*
X160026000Y-98017750D01*
G75*
G02*
X160269750Y-97774000I243750J0D01*
G01*
G37*
G36*
G01*
X160269750Y-95899000D02*
X161182250Y-95899000D01*
G75*
G02*
X161426000Y-96142750I0J-243750D01*
G01*
X161426000Y-96630250D01*
G75*
G02*
X161182250Y-96874000I-243750J0D01*
G01*
X160269750Y-96874000D01*
G75*
G02*
X160026000Y-96630250I0J243750D01*
G01*
X160026000Y-96142750D01*
G75*
G02*
X160269750Y-95899000I243750J0D01*
G01*
G37*
G36*
G01*
X94056250Y-66890000D02*
X93143750Y-66890000D01*
G75*
G02*
X92900000Y-66646250I0J243750D01*
G01*
X92900000Y-66158750D01*
G75*
G02*
X93143750Y-65915000I243750J0D01*
G01*
X94056250Y-65915000D01*
G75*
G02*
X94300000Y-66158750I0J-243750D01*
G01*
X94300000Y-66646250D01*
G75*
G02*
X94056250Y-66890000I-243750J0D01*
G01*
G37*
G36*
G01*
X94056250Y-68765000D02*
X93143750Y-68765000D01*
G75*
G02*
X92900000Y-68521250I0J243750D01*
G01*
X92900000Y-68033750D01*
G75*
G02*
X93143750Y-67790000I243750J0D01*
G01*
X94056250Y-67790000D01*
G75*
G02*
X94300000Y-68033750I0J-243750D01*
G01*
X94300000Y-68521250D01*
G75*
G02*
X94056250Y-68765000I-243750J0D01*
G01*
G37*
G36*
G01*
X106119000Y-74491499D02*
X106119000Y-75041501D01*
G75*
G02*
X105869001Y-75291500I-249999J0D01*
G01*
X105318999Y-75291500D01*
G75*
G02*
X105069000Y-75041501I0J249999D01*
G01*
X105069000Y-74491499D01*
G75*
G02*
X105318999Y-74241500I249999J0D01*
G01*
X105869001Y-74241500D01*
G75*
G02*
X106119000Y-74491499I0J-249999D01*
G01*
G37*
G36*
G01*
X106119000Y-75791499D02*
X106119000Y-76341501D01*
G75*
G02*
X105869001Y-76591500I-249999J0D01*
G01*
X105318999Y-76591500D01*
G75*
G02*
X105069000Y-76341501I0J249999D01*
G01*
X105069000Y-75791499D01*
G75*
G02*
X105318999Y-75541500I249999J0D01*
G01*
X105869001Y-75541500D01*
G75*
G02*
X106119000Y-75791499I0J-249999D01*
G01*
G37*
G36*
G01*
X107419000Y-74491499D02*
X107419000Y-75041501D01*
G75*
G02*
X107169001Y-75291500I-249999J0D01*
G01*
X106618999Y-75291500D01*
G75*
G02*
X106369000Y-75041501I0J249999D01*
G01*
X106369000Y-74491499D01*
G75*
G02*
X106618999Y-74241500I249999J0D01*
G01*
X107169001Y-74241500D01*
G75*
G02*
X107419000Y-74491499I0J-249999D01*
G01*
G37*
G36*
G01*
X107419000Y-75791499D02*
X107419000Y-76341501D01*
G75*
G02*
X107169001Y-76591500I-249999J0D01*
G01*
X106618999Y-76591500D01*
G75*
G02*
X106369000Y-76341501I0J249999D01*
G01*
X106369000Y-75791499D01*
G75*
G02*
X106618999Y-75541500I249999J0D01*
G01*
X107169001Y-75541500D01*
G75*
G02*
X107419000Y-75791499I0J-249999D01*
G01*
G37*
G36*
G01*
X107619000Y-77004000D02*
X107619000Y-77704000D01*
G75*
G02*
X107556500Y-77766500I-62500J0D01*
G01*
X107431500Y-77766500D01*
G75*
G02*
X107369000Y-77704000I0J62500D01*
G01*
X107369000Y-77004000D01*
G75*
G02*
X107431500Y-76941500I62500J0D01*
G01*
X107556500Y-76941500D01*
G75*
G02*
X107619000Y-77004000I0J-62500D01*
G01*
G37*
G36*
G01*
X107119000Y-77004000D02*
X107119000Y-77704000D01*
G75*
G02*
X107056500Y-77766500I-62500J0D01*
G01*
X106931500Y-77766500D01*
G75*
G02*
X106869000Y-77704000I0J62500D01*
G01*
X106869000Y-77004000D01*
G75*
G02*
X106931500Y-76941500I62500J0D01*
G01*
X107056500Y-76941500D01*
G75*
G02*
X107119000Y-77004000I0J-62500D01*
G01*
G37*
G36*
G01*
X106619000Y-77004000D02*
X106619000Y-77704000D01*
G75*
G02*
X106556500Y-77766500I-62500J0D01*
G01*
X106431500Y-77766500D01*
G75*
G02*
X106369000Y-77704000I0J62500D01*
G01*
X106369000Y-77004000D01*
G75*
G02*
X106431500Y-76941500I62500J0D01*
G01*
X106556500Y-76941500D01*
G75*
G02*
X106619000Y-77004000I0J-62500D01*
G01*
G37*
G36*
G01*
X106119000Y-77004000D02*
X106119000Y-77704000D01*
G75*
G02*
X106056500Y-77766500I-62500J0D01*
G01*
X105931500Y-77766500D01*
G75*
G02*
X105869000Y-77704000I0J62500D01*
G01*
X105869000Y-77004000D01*
G75*
G02*
X105931500Y-76941500I62500J0D01*
G01*
X106056500Y-76941500D01*
G75*
G02*
X106119000Y-77004000I0J-62500D01*
G01*
G37*
G36*
G01*
X105619000Y-77004000D02*
X105619000Y-77704000D01*
G75*
G02*
X105556500Y-77766500I-62500J0D01*
G01*
X105431500Y-77766500D01*
G75*
G02*
X105369000Y-77704000I0J62500D01*
G01*
X105369000Y-77004000D01*
G75*
G02*
X105431500Y-76941500I62500J0D01*
G01*
X105556500Y-76941500D01*
G75*
G02*
X105619000Y-77004000I0J-62500D01*
G01*
G37*
G36*
G01*
X105119000Y-77004000D02*
X105119000Y-77704000D01*
G75*
G02*
X105056500Y-77766500I-62500J0D01*
G01*
X104931500Y-77766500D01*
G75*
G02*
X104869000Y-77704000I0J62500D01*
G01*
X104869000Y-77004000D01*
G75*
G02*
X104931500Y-76941500I62500J0D01*
G01*
X105056500Y-76941500D01*
G75*
G02*
X105119000Y-77004000I0J-62500D01*
G01*
G37*
G36*
G01*
X104719000Y-76604000D02*
X104719000Y-76729000D01*
G75*
G02*
X104656500Y-76791500I-62500J0D01*
G01*
X103956500Y-76791500D01*
G75*
G02*
X103894000Y-76729000I0J62500D01*
G01*
X103894000Y-76604000D01*
G75*
G02*
X103956500Y-76541500I62500J0D01*
G01*
X104656500Y-76541500D01*
G75*
G02*
X104719000Y-76604000I0J-62500D01*
G01*
G37*
G36*
G01*
X104719000Y-76104000D02*
X104719000Y-76229000D01*
G75*
G02*
X104656500Y-76291500I-62500J0D01*
G01*
X103956500Y-76291500D01*
G75*
G02*
X103894000Y-76229000I0J62500D01*
G01*
X103894000Y-76104000D01*
G75*
G02*
X103956500Y-76041500I62500J0D01*
G01*
X104656500Y-76041500D01*
G75*
G02*
X104719000Y-76104000I0J-62500D01*
G01*
G37*
G36*
G01*
X104719000Y-75604000D02*
X104719000Y-75729000D01*
G75*
G02*
X104656500Y-75791500I-62500J0D01*
G01*
X103956500Y-75791500D01*
G75*
G02*
X103894000Y-75729000I0J62500D01*
G01*
X103894000Y-75604000D01*
G75*
G02*
X103956500Y-75541500I62500J0D01*
G01*
X104656500Y-75541500D01*
G75*
G02*
X104719000Y-75604000I0J-62500D01*
G01*
G37*
G36*
G01*
X104719000Y-75104000D02*
X104719000Y-75229000D01*
G75*
G02*
X104656500Y-75291500I-62500J0D01*
G01*
X103956500Y-75291500D01*
G75*
G02*
X103894000Y-75229000I0J62500D01*
G01*
X103894000Y-75104000D01*
G75*
G02*
X103956500Y-75041500I62500J0D01*
G01*
X104656500Y-75041500D01*
G75*
G02*
X104719000Y-75104000I0J-62500D01*
G01*
G37*
G36*
G01*
X104719000Y-74604000D02*
X104719000Y-74729000D01*
G75*
G02*
X104656500Y-74791500I-62500J0D01*
G01*
X103956500Y-74791500D01*
G75*
G02*
X103894000Y-74729000I0J62500D01*
G01*
X103894000Y-74604000D01*
G75*
G02*
X103956500Y-74541500I62500J0D01*
G01*
X104656500Y-74541500D01*
G75*
G02*
X104719000Y-74604000I0J-62500D01*
G01*
G37*
G36*
G01*
X104719000Y-74104000D02*
X104719000Y-74229000D01*
G75*
G02*
X104656500Y-74291500I-62500J0D01*
G01*
X103956500Y-74291500D01*
G75*
G02*
X103894000Y-74229000I0J62500D01*
G01*
X103894000Y-74104000D01*
G75*
G02*
X103956500Y-74041500I62500J0D01*
G01*
X104656500Y-74041500D01*
G75*
G02*
X104719000Y-74104000I0J-62500D01*
G01*
G37*
G36*
G01*
X105119000Y-73129000D02*
X105119000Y-73829000D01*
G75*
G02*
X105056500Y-73891500I-62500J0D01*
G01*
X104931500Y-73891500D01*
G75*
G02*
X104869000Y-73829000I0J62500D01*
G01*
X104869000Y-73129000D01*
G75*
G02*
X104931500Y-73066500I62500J0D01*
G01*
X105056500Y-73066500D01*
G75*
G02*
X105119000Y-73129000I0J-62500D01*
G01*
G37*
G36*
G01*
X105619000Y-73129000D02*
X105619000Y-73829000D01*
G75*
G02*
X105556500Y-73891500I-62500J0D01*
G01*
X105431500Y-73891500D01*
G75*
G02*
X105369000Y-73829000I0J62500D01*
G01*
X105369000Y-73129000D01*
G75*
G02*
X105431500Y-73066500I62500J0D01*
G01*
X105556500Y-73066500D01*
G75*
G02*
X105619000Y-73129000I0J-62500D01*
G01*
G37*
G36*
G01*
X106119000Y-73129000D02*
X106119000Y-73829000D01*
G75*
G02*
X106056500Y-73891500I-62500J0D01*
G01*
X105931500Y-73891500D01*
G75*
G02*
X105869000Y-73829000I0J62500D01*
G01*
X105869000Y-73129000D01*
G75*
G02*
X105931500Y-73066500I62500J0D01*
G01*
X106056500Y-73066500D01*
G75*
G02*
X106119000Y-73129000I0J-62500D01*
G01*
G37*
G36*
G01*
X106619000Y-73129000D02*
X106619000Y-73829000D01*
G75*
G02*
X106556500Y-73891500I-62500J0D01*
G01*
X106431500Y-73891500D01*
G75*
G02*
X106369000Y-73829000I0J62500D01*
G01*
X106369000Y-73129000D01*
G75*
G02*
X106431500Y-73066500I62500J0D01*
G01*
X106556500Y-73066500D01*
G75*
G02*
X106619000Y-73129000I0J-62500D01*
G01*
G37*
G36*
G01*
X107119000Y-73129000D02*
X107119000Y-73829000D01*
G75*
G02*
X107056500Y-73891500I-62500J0D01*
G01*
X106931500Y-73891500D01*
G75*
G02*
X106869000Y-73829000I0J62500D01*
G01*
X106869000Y-73129000D01*
G75*
G02*
X106931500Y-73066500I62500J0D01*
G01*
X107056500Y-73066500D01*
G75*
G02*
X107119000Y-73129000I0J-62500D01*
G01*
G37*
G36*
G01*
X107619000Y-73129000D02*
X107619000Y-73829000D01*
G75*
G02*
X107556500Y-73891500I-62500J0D01*
G01*
X107431500Y-73891500D01*
G75*
G02*
X107369000Y-73829000I0J62500D01*
G01*
X107369000Y-73129000D01*
G75*
G02*
X107431500Y-73066500I62500J0D01*
G01*
X107556500Y-73066500D01*
G75*
G02*
X107619000Y-73129000I0J-62500D01*
G01*
G37*
G36*
G01*
X108594000Y-74104000D02*
X108594000Y-74229000D01*
G75*
G02*
X108531500Y-74291500I-62500J0D01*
G01*
X107831500Y-74291500D01*
G75*
G02*
X107769000Y-74229000I0J62500D01*
G01*
X107769000Y-74104000D01*
G75*
G02*
X107831500Y-74041500I62500J0D01*
G01*
X108531500Y-74041500D01*
G75*
G02*
X108594000Y-74104000I0J-62500D01*
G01*
G37*
G36*
G01*
X108594000Y-74604000D02*
X108594000Y-74729000D01*
G75*
G02*
X108531500Y-74791500I-62500J0D01*
G01*
X107831500Y-74791500D01*
G75*
G02*
X107769000Y-74729000I0J62500D01*
G01*
X107769000Y-74604000D01*
G75*
G02*
X107831500Y-74541500I62500J0D01*
G01*
X108531500Y-74541500D01*
G75*
G02*
X108594000Y-74604000I0J-62500D01*
G01*
G37*
G36*
G01*
X108594000Y-75104000D02*
X108594000Y-75229000D01*
G75*
G02*
X108531500Y-75291500I-62500J0D01*
G01*
X107831500Y-75291500D01*
G75*
G02*
X107769000Y-75229000I0J62500D01*
G01*
X107769000Y-75104000D01*
G75*
G02*
X107831500Y-75041500I62500J0D01*
G01*
X108531500Y-75041500D01*
G75*
G02*
X108594000Y-75104000I0J-62500D01*
G01*
G37*
G36*
G01*
X108594000Y-75604000D02*
X108594000Y-75729000D01*
G75*
G02*
X108531500Y-75791500I-62500J0D01*
G01*
X107831500Y-75791500D01*
G75*
G02*
X107769000Y-75729000I0J62500D01*
G01*
X107769000Y-75604000D01*
G75*
G02*
X107831500Y-75541500I62500J0D01*
G01*
X108531500Y-75541500D01*
G75*
G02*
X108594000Y-75604000I0J-62500D01*
G01*
G37*
G36*
G01*
X108594000Y-76104000D02*
X108594000Y-76229000D01*
G75*
G02*
X108531500Y-76291500I-62500J0D01*
G01*
X107831500Y-76291500D01*
G75*
G02*
X107769000Y-76229000I0J62500D01*
G01*
X107769000Y-76104000D01*
G75*
G02*
X107831500Y-76041500I62500J0D01*
G01*
X108531500Y-76041500D01*
G75*
G02*
X108594000Y-76104000I0J-62500D01*
G01*
G37*
G36*
G01*
X108594000Y-76604000D02*
X108594000Y-76729000D01*
G75*
G02*
X108531500Y-76791500I-62500J0D01*
G01*
X107831500Y-76791500D01*
G75*
G02*
X107769000Y-76729000I0J62500D01*
G01*
X107769000Y-76604000D01*
G75*
G02*
X107831500Y-76541500I62500J0D01*
G01*
X108531500Y-76541500D01*
G75*
G02*
X108594000Y-76604000I0J-62500D01*
G01*
G37*
D20*
X118780000Y-82993500D03*
X119730000Y-82993500D03*
X120680000Y-82993500D03*
X120680000Y-80793500D03*
X118780000Y-80793500D03*
X119730000Y-80793500D03*
G36*
G01*
X179054000Y-93600500D02*
X179054000Y-93300500D01*
G75*
G02*
X179204000Y-93150500I150000J0D01*
G01*
X180854000Y-93150500D01*
G75*
G02*
X181004000Y-93300500I0J-150000D01*
G01*
X181004000Y-93600500D01*
G75*
G02*
X180854000Y-93750500I-150000J0D01*
G01*
X179204000Y-93750500D01*
G75*
G02*
X179054000Y-93600500I0J150000D01*
G01*
G37*
G36*
G01*
X179054000Y-94870500D02*
X179054000Y-94570500D01*
G75*
G02*
X179204000Y-94420500I150000J0D01*
G01*
X180854000Y-94420500D01*
G75*
G02*
X181004000Y-94570500I0J-150000D01*
G01*
X181004000Y-94870500D01*
G75*
G02*
X180854000Y-95020500I-150000J0D01*
G01*
X179204000Y-95020500D01*
G75*
G02*
X179054000Y-94870500I0J150000D01*
G01*
G37*
G36*
G01*
X179054000Y-96140500D02*
X179054000Y-95840500D01*
G75*
G02*
X179204000Y-95690500I150000J0D01*
G01*
X180854000Y-95690500D01*
G75*
G02*
X181004000Y-95840500I0J-150000D01*
G01*
X181004000Y-96140500D01*
G75*
G02*
X180854000Y-96290500I-150000J0D01*
G01*
X179204000Y-96290500D01*
G75*
G02*
X179054000Y-96140500I0J150000D01*
G01*
G37*
G36*
G01*
X179054000Y-97410500D02*
X179054000Y-97110500D01*
G75*
G02*
X179204000Y-96960500I150000J0D01*
G01*
X180854000Y-96960500D01*
G75*
G02*
X181004000Y-97110500I0J-150000D01*
G01*
X181004000Y-97410500D01*
G75*
G02*
X180854000Y-97560500I-150000J0D01*
G01*
X179204000Y-97560500D01*
G75*
G02*
X179054000Y-97410500I0J150000D01*
G01*
G37*
G36*
G01*
X174104000Y-97410500D02*
X174104000Y-97110500D01*
G75*
G02*
X174254000Y-96960500I150000J0D01*
G01*
X175904000Y-96960500D01*
G75*
G02*
X176054000Y-97110500I0J-150000D01*
G01*
X176054000Y-97410500D01*
G75*
G02*
X175904000Y-97560500I-150000J0D01*
G01*
X174254000Y-97560500D01*
G75*
G02*
X174104000Y-97410500I0J150000D01*
G01*
G37*
G36*
G01*
X174104000Y-96140500D02*
X174104000Y-95840500D01*
G75*
G02*
X174254000Y-95690500I150000J0D01*
G01*
X175904000Y-95690500D01*
G75*
G02*
X176054000Y-95840500I0J-150000D01*
G01*
X176054000Y-96140500D01*
G75*
G02*
X175904000Y-96290500I-150000J0D01*
G01*
X174254000Y-96290500D01*
G75*
G02*
X174104000Y-96140500I0J150000D01*
G01*
G37*
G36*
G01*
X174104000Y-94870500D02*
X174104000Y-94570500D01*
G75*
G02*
X174254000Y-94420500I150000J0D01*
G01*
X175904000Y-94420500D01*
G75*
G02*
X176054000Y-94570500I0J-150000D01*
G01*
X176054000Y-94870500D01*
G75*
G02*
X175904000Y-95020500I-150000J0D01*
G01*
X174254000Y-95020500D01*
G75*
G02*
X174104000Y-94870500I0J150000D01*
G01*
G37*
G36*
G01*
X174104000Y-93600500D02*
X174104000Y-93300500D01*
G75*
G02*
X174254000Y-93150500I150000J0D01*
G01*
X175904000Y-93150500D01*
G75*
G02*
X176054000Y-93300500I0J-150000D01*
G01*
X176054000Y-93600500D01*
G75*
G02*
X175904000Y-93750500I-150000J0D01*
G01*
X174254000Y-93750500D01*
G75*
G02*
X174104000Y-93600500I0J150000D01*
G01*
G37*
G36*
G01*
X124704000Y-73806000D02*
X124704000Y-74106000D01*
G75*
G02*
X124554000Y-74256000I-150000J0D01*
G01*
X122904000Y-74256000D01*
G75*
G02*
X122754000Y-74106000I0J150000D01*
G01*
X122754000Y-73806000D01*
G75*
G02*
X122904000Y-73656000I150000J0D01*
G01*
X124554000Y-73656000D01*
G75*
G02*
X124704000Y-73806000I0J-150000D01*
G01*
G37*
G36*
G01*
X124704000Y-72536000D02*
X124704000Y-72836000D01*
G75*
G02*
X124554000Y-72986000I-150000J0D01*
G01*
X122904000Y-72986000D01*
G75*
G02*
X122754000Y-72836000I0J150000D01*
G01*
X122754000Y-72536000D01*
G75*
G02*
X122904000Y-72386000I150000J0D01*
G01*
X124554000Y-72386000D01*
G75*
G02*
X124704000Y-72536000I0J-150000D01*
G01*
G37*
G36*
G01*
X124704000Y-71266000D02*
X124704000Y-71566000D01*
G75*
G02*
X124554000Y-71716000I-150000J0D01*
G01*
X122904000Y-71716000D01*
G75*
G02*
X122754000Y-71566000I0J150000D01*
G01*
X122754000Y-71266000D01*
G75*
G02*
X122904000Y-71116000I150000J0D01*
G01*
X124554000Y-71116000D01*
G75*
G02*
X124704000Y-71266000I0J-150000D01*
G01*
G37*
G36*
G01*
X124704000Y-69996000D02*
X124704000Y-70296000D01*
G75*
G02*
X124554000Y-70446000I-150000J0D01*
G01*
X122904000Y-70446000D01*
G75*
G02*
X122754000Y-70296000I0J150000D01*
G01*
X122754000Y-69996000D01*
G75*
G02*
X122904000Y-69846000I150000J0D01*
G01*
X124554000Y-69846000D01*
G75*
G02*
X124704000Y-69996000I0J-150000D01*
G01*
G37*
G36*
G01*
X119754000Y-69996000D02*
X119754000Y-70296000D01*
G75*
G02*
X119604000Y-70446000I-150000J0D01*
G01*
X117954000Y-70446000D01*
G75*
G02*
X117804000Y-70296000I0J150000D01*
G01*
X117804000Y-69996000D01*
G75*
G02*
X117954000Y-69846000I150000J0D01*
G01*
X119604000Y-69846000D01*
G75*
G02*
X119754000Y-69996000I0J-150000D01*
G01*
G37*
G36*
G01*
X119754000Y-71266000D02*
X119754000Y-71566000D01*
G75*
G02*
X119604000Y-71716000I-150000J0D01*
G01*
X117954000Y-71716000D01*
G75*
G02*
X117804000Y-71566000I0J150000D01*
G01*
X117804000Y-71266000D01*
G75*
G02*
X117954000Y-71116000I150000J0D01*
G01*
X119604000Y-71116000D01*
G75*
G02*
X119754000Y-71266000I0J-150000D01*
G01*
G37*
G36*
G01*
X119754000Y-72536000D02*
X119754000Y-72836000D01*
G75*
G02*
X119604000Y-72986000I-150000J0D01*
G01*
X117954000Y-72986000D01*
G75*
G02*
X117804000Y-72836000I0J150000D01*
G01*
X117804000Y-72536000D01*
G75*
G02*
X117954000Y-72386000I150000J0D01*
G01*
X119604000Y-72386000D01*
G75*
G02*
X119754000Y-72536000I0J-150000D01*
G01*
G37*
G36*
G01*
X119754000Y-73806000D02*
X119754000Y-74106000D01*
G75*
G02*
X119604000Y-74256000I-150000J0D01*
G01*
X117954000Y-74256000D01*
G75*
G02*
X117804000Y-74106000I0J150000D01*
G01*
X117804000Y-73806000D01*
G75*
G02*
X117954000Y-73656000I150000J0D01*
G01*
X119604000Y-73656000D01*
G75*
G02*
X119754000Y-73806000I0J-150000D01*
G01*
G37*
G36*
G01*
X134208000Y-107334000D02*
X134208000Y-107634000D01*
G75*
G02*
X134058000Y-107784000I-150000J0D01*
G01*
X132408000Y-107784000D01*
G75*
G02*
X132258000Y-107634000I0J150000D01*
G01*
X132258000Y-107334000D01*
G75*
G02*
X132408000Y-107184000I150000J0D01*
G01*
X134058000Y-107184000D01*
G75*
G02*
X134208000Y-107334000I0J-150000D01*
G01*
G37*
G36*
G01*
X134208000Y-106064000D02*
X134208000Y-106364000D01*
G75*
G02*
X134058000Y-106514000I-150000J0D01*
G01*
X132408000Y-106514000D01*
G75*
G02*
X132258000Y-106364000I0J150000D01*
G01*
X132258000Y-106064000D01*
G75*
G02*
X132408000Y-105914000I150000J0D01*
G01*
X134058000Y-105914000D01*
G75*
G02*
X134208000Y-106064000I0J-150000D01*
G01*
G37*
G36*
G01*
X134208000Y-104794000D02*
X134208000Y-105094000D01*
G75*
G02*
X134058000Y-105244000I-150000J0D01*
G01*
X132408000Y-105244000D01*
G75*
G02*
X132258000Y-105094000I0J150000D01*
G01*
X132258000Y-104794000D01*
G75*
G02*
X132408000Y-104644000I150000J0D01*
G01*
X134058000Y-104644000D01*
G75*
G02*
X134208000Y-104794000I0J-150000D01*
G01*
G37*
G36*
G01*
X134208000Y-103524000D02*
X134208000Y-103824000D01*
G75*
G02*
X134058000Y-103974000I-150000J0D01*
G01*
X132408000Y-103974000D01*
G75*
G02*
X132258000Y-103824000I0J150000D01*
G01*
X132258000Y-103524000D01*
G75*
G02*
X132408000Y-103374000I150000J0D01*
G01*
X134058000Y-103374000D01*
G75*
G02*
X134208000Y-103524000I0J-150000D01*
G01*
G37*
G36*
G01*
X139158000Y-103524000D02*
X139158000Y-103824000D01*
G75*
G02*
X139008000Y-103974000I-150000J0D01*
G01*
X137358000Y-103974000D01*
G75*
G02*
X137208000Y-103824000I0J150000D01*
G01*
X137208000Y-103524000D01*
G75*
G02*
X137358000Y-103374000I150000J0D01*
G01*
X139008000Y-103374000D01*
G75*
G02*
X139158000Y-103524000I0J-150000D01*
G01*
G37*
G36*
G01*
X139158000Y-104794000D02*
X139158000Y-105094000D01*
G75*
G02*
X139008000Y-105244000I-150000J0D01*
G01*
X137358000Y-105244000D01*
G75*
G02*
X137208000Y-105094000I0J150000D01*
G01*
X137208000Y-104794000D01*
G75*
G02*
X137358000Y-104644000I150000J0D01*
G01*
X139008000Y-104644000D01*
G75*
G02*
X139158000Y-104794000I0J-150000D01*
G01*
G37*
G36*
G01*
X139158000Y-106064000D02*
X139158000Y-106364000D01*
G75*
G02*
X139008000Y-106514000I-150000J0D01*
G01*
X137358000Y-106514000D01*
G75*
G02*
X137208000Y-106364000I0J150000D01*
G01*
X137208000Y-106064000D01*
G75*
G02*
X137358000Y-105914000I150000J0D01*
G01*
X139008000Y-105914000D01*
G75*
G02*
X139158000Y-106064000I0J-150000D01*
G01*
G37*
G36*
G01*
X139158000Y-107334000D02*
X139158000Y-107634000D01*
G75*
G02*
X139008000Y-107784000I-150000J0D01*
G01*
X137358000Y-107784000D01*
G75*
G02*
X137208000Y-107634000I0J150000D01*
G01*
X137208000Y-107334000D01*
G75*
G02*
X137358000Y-107184000I150000J0D01*
G01*
X139008000Y-107184000D01*
G75*
G02*
X139158000Y-107334000I0J-150000D01*
G01*
G37*
G36*
G01*
X179054000Y-83123000D02*
X179054000Y-82823000D01*
G75*
G02*
X179204000Y-82673000I150000J0D01*
G01*
X180854000Y-82673000D01*
G75*
G02*
X181004000Y-82823000I0J-150000D01*
G01*
X181004000Y-83123000D01*
G75*
G02*
X180854000Y-83273000I-150000J0D01*
G01*
X179204000Y-83273000D01*
G75*
G02*
X179054000Y-83123000I0J150000D01*
G01*
G37*
G36*
G01*
X179054000Y-84393000D02*
X179054000Y-84093000D01*
G75*
G02*
X179204000Y-83943000I150000J0D01*
G01*
X180854000Y-83943000D01*
G75*
G02*
X181004000Y-84093000I0J-150000D01*
G01*
X181004000Y-84393000D01*
G75*
G02*
X180854000Y-84543000I-150000J0D01*
G01*
X179204000Y-84543000D01*
G75*
G02*
X179054000Y-84393000I0J150000D01*
G01*
G37*
G36*
G01*
X179054000Y-85663000D02*
X179054000Y-85363000D01*
G75*
G02*
X179204000Y-85213000I150000J0D01*
G01*
X180854000Y-85213000D01*
G75*
G02*
X181004000Y-85363000I0J-150000D01*
G01*
X181004000Y-85663000D01*
G75*
G02*
X180854000Y-85813000I-150000J0D01*
G01*
X179204000Y-85813000D01*
G75*
G02*
X179054000Y-85663000I0J150000D01*
G01*
G37*
G36*
G01*
X179054000Y-86933000D02*
X179054000Y-86633000D01*
G75*
G02*
X179204000Y-86483000I150000J0D01*
G01*
X180854000Y-86483000D01*
G75*
G02*
X181004000Y-86633000I0J-150000D01*
G01*
X181004000Y-86933000D01*
G75*
G02*
X180854000Y-87083000I-150000J0D01*
G01*
X179204000Y-87083000D01*
G75*
G02*
X179054000Y-86933000I0J150000D01*
G01*
G37*
G36*
G01*
X174104000Y-86933000D02*
X174104000Y-86633000D01*
G75*
G02*
X174254000Y-86483000I150000J0D01*
G01*
X175904000Y-86483000D01*
G75*
G02*
X176054000Y-86633000I0J-150000D01*
G01*
X176054000Y-86933000D01*
G75*
G02*
X175904000Y-87083000I-150000J0D01*
G01*
X174254000Y-87083000D01*
G75*
G02*
X174104000Y-86933000I0J150000D01*
G01*
G37*
G36*
G01*
X174104000Y-85663000D02*
X174104000Y-85363000D01*
G75*
G02*
X174254000Y-85213000I150000J0D01*
G01*
X175904000Y-85213000D01*
G75*
G02*
X176054000Y-85363000I0J-150000D01*
G01*
X176054000Y-85663000D01*
G75*
G02*
X175904000Y-85813000I-150000J0D01*
G01*
X174254000Y-85813000D01*
G75*
G02*
X174104000Y-85663000I0J150000D01*
G01*
G37*
G36*
G01*
X174104000Y-84393000D02*
X174104000Y-84093000D01*
G75*
G02*
X174254000Y-83943000I150000J0D01*
G01*
X175904000Y-83943000D01*
G75*
G02*
X176054000Y-84093000I0J-150000D01*
G01*
X176054000Y-84393000D01*
G75*
G02*
X175904000Y-84543000I-150000J0D01*
G01*
X174254000Y-84543000D01*
G75*
G02*
X174104000Y-84393000I0J150000D01*
G01*
G37*
G36*
G01*
X174104000Y-83123000D02*
X174104000Y-82823000D01*
G75*
G02*
X174254000Y-82673000I150000J0D01*
G01*
X175904000Y-82673000D01*
G75*
G02*
X176054000Y-82823000I0J-150000D01*
G01*
X176054000Y-83123000D01*
G75*
G02*
X175904000Y-83273000I-150000J0D01*
G01*
X174254000Y-83273000D01*
G75*
G02*
X174104000Y-83123000I0J150000D01*
G01*
G37*
G36*
G01*
X168894000Y-83123000D02*
X168894000Y-82823000D01*
G75*
G02*
X169044000Y-82673000I150000J0D01*
G01*
X170694000Y-82673000D01*
G75*
G02*
X170844000Y-82823000I0J-150000D01*
G01*
X170844000Y-83123000D01*
G75*
G02*
X170694000Y-83273000I-150000J0D01*
G01*
X169044000Y-83273000D01*
G75*
G02*
X168894000Y-83123000I0J150000D01*
G01*
G37*
G36*
G01*
X168894000Y-84393000D02*
X168894000Y-84093000D01*
G75*
G02*
X169044000Y-83943000I150000J0D01*
G01*
X170694000Y-83943000D01*
G75*
G02*
X170844000Y-84093000I0J-150000D01*
G01*
X170844000Y-84393000D01*
G75*
G02*
X170694000Y-84543000I-150000J0D01*
G01*
X169044000Y-84543000D01*
G75*
G02*
X168894000Y-84393000I0J150000D01*
G01*
G37*
G36*
G01*
X168894000Y-85663000D02*
X168894000Y-85363000D01*
G75*
G02*
X169044000Y-85213000I150000J0D01*
G01*
X170694000Y-85213000D01*
G75*
G02*
X170844000Y-85363000I0J-150000D01*
G01*
X170844000Y-85663000D01*
G75*
G02*
X170694000Y-85813000I-150000J0D01*
G01*
X169044000Y-85813000D01*
G75*
G02*
X168894000Y-85663000I0J150000D01*
G01*
G37*
G36*
G01*
X168894000Y-86933000D02*
X168894000Y-86633000D01*
G75*
G02*
X169044000Y-86483000I150000J0D01*
G01*
X170694000Y-86483000D01*
G75*
G02*
X170844000Y-86633000I0J-150000D01*
G01*
X170844000Y-86933000D01*
G75*
G02*
X170694000Y-87083000I-150000J0D01*
G01*
X169044000Y-87083000D01*
G75*
G02*
X168894000Y-86933000I0J150000D01*
G01*
G37*
G36*
G01*
X163944000Y-86933000D02*
X163944000Y-86633000D01*
G75*
G02*
X164094000Y-86483000I150000J0D01*
G01*
X165744000Y-86483000D01*
G75*
G02*
X165894000Y-86633000I0J-150000D01*
G01*
X165894000Y-86933000D01*
G75*
G02*
X165744000Y-87083000I-150000J0D01*
G01*
X164094000Y-87083000D01*
G75*
G02*
X163944000Y-86933000I0J150000D01*
G01*
G37*
G36*
G01*
X163944000Y-85663000D02*
X163944000Y-85363000D01*
G75*
G02*
X164094000Y-85213000I150000J0D01*
G01*
X165744000Y-85213000D01*
G75*
G02*
X165894000Y-85363000I0J-150000D01*
G01*
X165894000Y-85663000D01*
G75*
G02*
X165744000Y-85813000I-150000J0D01*
G01*
X164094000Y-85813000D01*
G75*
G02*
X163944000Y-85663000I0J150000D01*
G01*
G37*
G36*
G01*
X163944000Y-84393000D02*
X163944000Y-84093000D01*
G75*
G02*
X164094000Y-83943000I150000J0D01*
G01*
X165744000Y-83943000D01*
G75*
G02*
X165894000Y-84093000I0J-150000D01*
G01*
X165894000Y-84393000D01*
G75*
G02*
X165744000Y-84543000I-150000J0D01*
G01*
X164094000Y-84543000D01*
G75*
G02*
X163944000Y-84393000I0J150000D01*
G01*
G37*
G36*
G01*
X163944000Y-83123000D02*
X163944000Y-82823000D01*
G75*
G02*
X164094000Y-82673000I150000J0D01*
G01*
X165744000Y-82673000D01*
G75*
G02*
X165894000Y-82823000I0J-150000D01*
G01*
X165894000Y-83123000D01*
G75*
G02*
X165744000Y-83273000I-150000J0D01*
G01*
X164094000Y-83273000D01*
G75*
G02*
X163944000Y-83123000I0J150000D01*
G01*
G37*
G36*
G01*
X157068000Y-107397000D02*
X157068000Y-107697000D01*
G75*
G02*
X156918000Y-107847000I-150000J0D01*
G01*
X155268000Y-107847000D01*
G75*
G02*
X155118000Y-107697000I0J150000D01*
G01*
X155118000Y-107397000D01*
G75*
G02*
X155268000Y-107247000I150000J0D01*
G01*
X156918000Y-107247000D01*
G75*
G02*
X157068000Y-107397000I0J-150000D01*
G01*
G37*
G36*
G01*
X157068000Y-106127000D02*
X157068000Y-106427000D01*
G75*
G02*
X156918000Y-106577000I-150000J0D01*
G01*
X155268000Y-106577000D01*
G75*
G02*
X155118000Y-106427000I0J150000D01*
G01*
X155118000Y-106127000D01*
G75*
G02*
X155268000Y-105977000I150000J0D01*
G01*
X156918000Y-105977000D01*
G75*
G02*
X157068000Y-106127000I0J-150000D01*
G01*
G37*
G36*
G01*
X157068000Y-104857000D02*
X157068000Y-105157000D01*
G75*
G02*
X156918000Y-105307000I-150000J0D01*
G01*
X155268000Y-105307000D01*
G75*
G02*
X155118000Y-105157000I0J150000D01*
G01*
X155118000Y-104857000D01*
G75*
G02*
X155268000Y-104707000I150000J0D01*
G01*
X156918000Y-104707000D01*
G75*
G02*
X157068000Y-104857000I0J-150000D01*
G01*
G37*
G36*
G01*
X157068000Y-103587000D02*
X157068000Y-103887000D01*
G75*
G02*
X156918000Y-104037000I-150000J0D01*
G01*
X155268000Y-104037000D01*
G75*
G02*
X155118000Y-103887000I0J150000D01*
G01*
X155118000Y-103587000D01*
G75*
G02*
X155268000Y-103437000I150000J0D01*
G01*
X156918000Y-103437000D01*
G75*
G02*
X157068000Y-103587000I0J-150000D01*
G01*
G37*
G36*
G01*
X162018000Y-103587000D02*
X162018000Y-103887000D01*
G75*
G02*
X161868000Y-104037000I-150000J0D01*
G01*
X160218000Y-104037000D01*
G75*
G02*
X160068000Y-103887000I0J150000D01*
G01*
X160068000Y-103587000D01*
G75*
G02*
X160218000Y-103437000I150000J0D01*
G01*
X161868000Y-103437000D01*
G75*
G02*
X162018000Y-103587000I0J-150000D01*
G01*
G37*
G36*
G01*
X162018000Y-104857000D02*
X162018000Y-105157000D01*
G75*
G02*
X161868000Y-105307000I-150000J0D01*
G01*
X160218000Y-105307000D01*
G75*
G02*
X160068000Y-105157000I0J150000D01*
G01*
X160068000Y-104857000D01*
G75*
G02*
X160218000Y-104707000I150000J0D01*
G01*
X161868000Y-104707000D01*
G75*
G02*
X162018000Y-104857000I0J-150000D01*
G01*
G37*
G36*
G01*
X162018000Y-106127000D02*
X162018000Y-106427000D01*
G75*
G02*
X161868000Y-106577000I-150000J0D01*
G01*
X160218000Y-106577000D01*
G75*
G02*
X160068000Y-106427000I0J150000D01*
G01*
X160068000Y-106127000D01*
G75*
G02*
X160218000Y-105977000I150000J0D01*
G01*
X161868000Y-105977000D01*
G75*
G02*
X162018000Y-106127000I0J-150000D01*
G01*
G37*
G36*
G01*
X162018000Y-107397000D02*
X162018000Y-107697000D01*
G75*
G02*
X161868000Y-107847000I-150000J0D01*
G01*
X160218000Y-107847000D01*
G75*
G02*
X160068000Y-107697000I0J150000D01*
G01*
X160068000Y-107397000D01*
G75*
G02*
X160218000Y-107247000I150000J0D01*
G01*
X161868000Y-107247000D01*
G75*
G02*
X162018000Y-107397000I0J-150000D01*
G01*
G37*
D21*
X124940000Y-82893500D03*
X126840000Y-82893500D03*
X125890000Y-80893500D03*
X133195000Y-72098500D03*
X135095000Y-72098500D03*
X134145000Y-70098500D03*
D22*
X166426000Y-73067000D03*
X164426000Y-74017000D03*
X164426000Y-72117000D03*
G36*
G01*
X128779000Y-99741000D02*
X128779000Y-100241000D01*
G75*
G02*
X128554000Y-100466000I-225000J0D01*
G01*
X128104000Y-100466000D01*
G75*
G02*
X127879000Y-100241000I0J225000D01*
G01*
X127879000Y-99741000D01*
G75*
G02*
X128104000Y-99516000I225000J0D01*
G01*
X128554000Y-99516000D01*
G75*
G02*
X128779000Y-99741000I0J-225000D01*
G01*
G37*
G36*
G01*
X130329000Y-99741000D02*
X130329000Y-100241000D01*
G75*
G02*
X130104000Y-100466000I-225000J0D01*
G01*
X129654000Y-100466000D01*
G75*
G02*
X129429000Y-100241000I0J225000D01*
G01*
X129429000Y-99741000D01*
G75*
G02*
X129654000Y-99516000I225000J0D01*
G01*
X130104000Y-99516000D01*
G75*
G02*
X130329000Y-99741000I0J-225000D01*
G01*
G37*
G36*
G01*
X129933000Y-110603000D02*
X130433000Y-110603000D01*
G75*
G02*
X130658000Y-110828000I0J-225000D01*
G01*
X130658000Y-111278000D01*
G75*
G02*
X130433000Y-111503000I-225000J0D01*
G01*
X129933000Y-111503000D01*
G75*
G02*
X129708000Y-111278000I0J225000D01*
G01*
X129708000Y-110828000D01*
G75*
G02*
X129933000Y-110603000I225000J0D01*
G01*
G37*
G36*
G01*
X129933000Y-109053000D02*
X130433000Y-109053000D01*
G75*
G02*
X130658000Y-109278000I0J-225000D01*
G01*
X130658000Y-109728000D01*
G75*
G02*
X130433000Y-109953000I-225000J0D01*
G01*
X129933000Y-109953000D01*
G75*
G02*
X129708000Y-109728000I0J225000D01*
G01*
X129708000Y-109278000D01*
G75*
G02*
X129933000Y-109053000I225000J0D01*
G01*
G37*
G36*
G01*
X100750000Y-63385000D02*
X101250000Y-63385000D01*
G75*
G02*
X101475000Y-63610000I0J-225000D01*
G01*
X101475000Y-64060000D01*
G75*
G02*
X101250000Y-64285000I-225000J0D01*
G01*
X100750000Y-64285000D01*
G75*
G02*
X100525000Y-64060000I0J225000D01*
G01*
X100525000Y-63610000D01*
G75*
G02*
X100750000Y-63385000I225000J0D01*
G01*
G37*
G36*
G01*
X100750000Y-61835000D02*
X101250000Y-61835000D01*
G75*
G02*
X101475000Y-62060000I0J-225000D01*
G01*
X101475000Y-62510000D01*
G75*
G02*
X101250000Y-62735000I-225000J0D01*
G01*
X100750000Y-62735000D01*
G75*
G02*
X100525000Y-62510000I0J225000D01*
G01*
X100525000Y-62060000D01*
G75*
G02*
X100750000Y-61835000I225000J0D01*
G01*
G37*
G36*
G01*
X93400000Y-63549500D02*
X93900000Y-63549500D01*
G75*
G02*
X94125000Y-63774500I0J-225000D01*
G01*
X94125000Y-64224500D01*
G75*
G02*
X93900000Y-64449500I-225000J0D01*
G01*
X93400000Y-64449500D01*
G75*
G02*
X93175000Y-64224500I0J225000D01*
G01*
X93175000Y-63774500D01*
G75*
G02*
X93400000Y-63549500I225000J0D01*
G01*
G37*
G36*
G01*
X93400000Y-61999500D02*
X93900000Y-61999500D01*
G75*
G02*
X94125000Y-62224500I0J-225000D01*
G01*
X94125000Y-62674500D01*
G75*
G02*
X93900000Y-62899500I-225000J0D01*
G01*
X93400000Y-62899500D01*
G75*
G02*
X93175000Y-62674500I0J225000D01*
G01*
X93175000Y-62224500D01*
G75*
G02*
X93400000Y-61999500I225000J0D01*
G01*
G37*
G36*
G01*
X169291000Y-99233000D02*
X169291000Y-99733000D01*
G75*
G02*
X169066000Y-99958000I-225000J0D01*
G01*
X168616000Y-99958000D01*
G75*
G02*
X168391000Y-99733000I0J225000D01*
G01*
X168391000Y-99233000D01*
G75*
G02*
X168616000Y-99008000I225000J0D01*
G01*
X169066000Y-99008000D01*
G75*
G02*
X169291000Y-99233000I0J-225000D01*
G01*
G37*
G36*
G01*
X170841000Y-99233000D02*
X170841000Y-99733000D01*
G75*
G02*
X170616000Y-99958000I-225000J0D01*
G01*
X170166000Y-99958000D01*
G75*
G02*
X169941000Y-99733000I0J225000D01*
G01*
X169941000Y-99233000D01*
G75*
G02*
X170166000Y-99008000I225000J0D01*
G01*
X170616000Y-99008000D01*
G75*
G02*
X170841000Y-99233000I0J-225000D01*
G01*
G37*
G36*
G01*
X175657000Y-89255500D02*
X175657000Y-88755500D01*
G75*
G02*
X175882000Y-88530500I225000J0D01*
G01*
X176332000Y-88530500D01*
G75*
G02*
X176557000Y-88755500I0J-225000D01*
G01*
X176557000Y-89255500D01*
G75*
G02*
X176332000Y-89480500I-225000J0D01*
G01*
X175882000Y-89480500D01*
G75*
G02*
X175657000Y-89255500I0J225000D01*
G01*
G37*
G36*
G01*
X174107000Y-89255500D02*
X174107000Y-88755500D01*
G75*
G02*
X174332000Y-88530500I225000J0D01*
G01*
X174782000Y-88530500D01*
G75*
G02*
X175007000Y-88755500I0J-225000D01*
G01*
X175007000Y-89255500D01*
G75*
G02*
X174782000Y-89480500I-225000J0D01*
G01*
X174332000Y-89480500D01*
G75*
G02*
X174107000Y-89255500I0J225000D01*
G01*
G37*
G36*
G01*
X148606000Y-70015000D02*
X148606000Y-69515000D01*
G75*
G02*
X148831000Y-69290000I225000J0D01*
G01*
X149281000Y-69290000D01*
G75*
G02*
X149506000Y-69515000I0J-225000D01*
G01*
X149506000Y-70015000D01*
G75*
G02*
X149281000Y-70240000I-225000J0D01*
G01*
X148831000Y-70240000D01*
G75*
G02*
X148606000Y-70015000I0J225000D01*
G01*
G37*
G36*
G01*
X147056000Y-70015000D02*
X147056000Y-69515000D01*
G75*
G02*
X147281000Y-69290000I225000J0D01*
G01*
X147731000Y-69290000D01*
G75*
G02*
X147956000Y-69515000I0J-225000D01*
G01*
X147956000Y-70015000D01*
G75*
G02*
X147731000Y-70240000I-225000J0D01*
G01*
X147281000Y-70240000D01*
G75*
G02*
X147056000Y-70015000I0J225000D01*
G01*
G37*
G36*
G01*
X180101000Y-91414500D02*
X180101000Y-90914500D01*
G75*
G02*
X180326000Y-90689500I225000J0D01*
G01*
X180776000Y-90689500D01*
G75*
G02*
X181001000Y-90914500I0J-225000D01*
G01*
X181001000Y-91414500D01*
G75*
G02*
X180776000Y-91639500I-225000J0D01*
G01*
X180326000Y-91639500D01*
G75*
G02*
X180101000Y-91414500I0J225000D01*
G01*
G37*
G36*
G01*
X178551000Y-91414500D02*
X178551000Y-90914500D01*
G75*
G02*
X178776000Y-90689500I225000J0D01*
G01*
X179226000Y-90689500D01*
G75*
G02*
X179451000Y-90914500I0J-225000D01*
G01*
X179451000Y-91414500D01*
G75*
G02*
X179226000Y-91639500I-225000J0D01*
G01*
X178776000Y-91639500D01*
G75*
G02*
X178551000Y-91414500I0J225000D01*
G01*
G37*
G36*
G01*
X172224000Y-96887000D02*
X172724000Y-96887000D01*
G75*
G02*
X172949000Y-97112000I0J-225000D01*
G01*
X172949000Y-97562000D01*
G75*
G02*
X172724000Y-97787000I-225000J0D01*
G01*
X172224000Y-97787000D01*
G75*
G02*
X171999000Y-97562000I0J225000D01*
G01*
X171999000Y-97112000D01*
G75*
G02*
X172224000Y-96887000I225000J0D01*
G01*
G37*
G36*
G01*
X172224000Y-95337000D02*
X172724000Y-95337000D01*
G75*
G02*
X172949000Y-95562000I0J-225000D01*
G01*
X172949000Y-96012000D01*
G75*
G02*
X172724000Y-96237000I-225000J0D01*
G01*
X172224000Y-96237000D01*
G75*
G02*
X171999000Y-96012000I0J225000D01*
G01*
X171999000Y-95562000D01*
G75*
G02*
X172224000Y-95337000I225000J0D01*
G01*
G37*
G36*
G01*
X155703000Y-67356000D02*
X155703000Y-67856000D01*
G75*
G02*
X155478000Y-68081000I-225000J0D01*
G01*
X155028000Y-68081000D01*
G75*
G02*
X154803000Y-67856000I0J225000D01*
G01*
X154803000Y-67356000D01*
G75*
G02*
X155028000Y-67131000I225000J0D01*
G01*
X155478000Y-67131000D01*
G75*
G02*
X155703000Y-67356000I0J-225000D01*
G01*
G37*
G36*
G01*
X157253000Y-67356000D02*
X157253000Y-67856000D01*
G75*
G02*
X157028000Y-68081000I-225000J0D01*
G01*
X156578000Y-68081000D01*
G75*
G02*
X156353000Y-67856000I0J225000D01*
G01*
X156353000Y-67356000D01*
G75*
G02*
X156578000Y-67131000I225000J0D01*
G01*
X157028000Y-67131000D01*
G75*
G02*
X157253000Y-67356000I0J-225000D01*
G01*
G37*
G36*
G01*
X169291000Y-88755500D02*
X169291000Y-89255500D01*
G75*
G02*
X169066000Y-89480500I-225000J0D01*
G01*
X168616000Y-89480500D01*
G75*
G02*
X168391000Y-89255500I0J225000D01*
G01*
X168391000Y-88755500D01*
G75*
G02*
X168616000Y-88530500I225000J0D01*
G01*
X169066000Y-88530500D01*
G75*
G02*
X169291000Y-88755500I0J-225000D01*
G01*
G37*
G36*
G01*
X170841000Y-88755500D02*
X170841000Y-89255500D01*
G75*
G02*
X170616000Y-89480500I-225000J0D01*
G01*
X170166000Y-89480500D01*
G75*
G02*
X169941000Y-89255500I0J225000D01*
G01*
X169941000Y-88755500D01*
G75*
G02*
X170166000Y-88530500I225000J0D01*
G01*
X170616000Y-88530500D01*
G75*
G02*
X170841000Y-88755500I0J-225000D01*
G01*
G37*
G36*
G01*
X175657000Y-78841500D02*
X175657000Y-78341500D01*
G75*
G02*
X175882000Y-78116500I225000J0D01*
G01*
X176332000Y-78116500D01*
G75*
G02*
X176557000Y-78341500I0J-225000D01*
G01*
X176557000Y-78841500D01*
G75*
G02*
X176332000Y-79066500I-225000J0D01*
G01*
X175882000Y-79066500D01*
G75*
G02*
X175657000Y-78841500I0J225000D01*
G01*
G37*
G36*
G01*
X174107000Y-78841500D02*
X174107000Y-78341500D01*
G75*
G02*
X174332000Y-78116500I225000J0D01*
G01*
X174782000Y-78116500D01*
G75*
G02*
X175007000Y-78341500I0J-225000D01*
G01*
X175007000Y-78841500D01*
G75*
G02*
X174782000Y-79066500I-225000J0D01*
G01*
X174332000Y-79066500D01*
G75*
G02*
X174107000Y-78841500I0J225000D01*
G01*
G37*
G36*
G01*
X130433000Y-102460000D02*
X129933000Y-102460000D01*
G75*
G02*
X129708000Y-102235000I0J225000D01*
G01*
X129708000Y-101785000D01*
G75*
G02*
X129933000Y-101560000I225000J0D01*
G01*
X130433000Y-101560000D01*
G75*
G02*
X130658000Y-101785000I0J-225000D01*
G01*
X130658000Y-102235000D01*
G75*
G02*
X130433000Y-102460000I-225000J0D01*
G01*
G37*
G36*
G01*
X130433000Y-104010000D02*
X129933000Y-104010000D01*
G75*
G02*
X129708000Y-103785000I0J225000D01*
G01*
X129708000Y-103335000D01*
G75*
G02*
X129933000Y-103110000I225000J0D01*
G01*
X130433000Y-103110000D01*
G75*
G02*
X130658000Y-103335000I0J-225000D01*
G01*
X130658000Y-103785000D01*
G75*
G02*
X130433000Y-104010000I-225000J0D01*
G01*
G37*
G36*
G01*
X172224000Y-86409500D02*
X172724000Y-86409500D01*
G75*
G02*
X172949000Y-86634500I0J-225000D01*
G01*
X172949000Y-87084500D01*
G75*
G02*
X172724000Y-87309500I-225000J0D01*
G01*
X172224000Y-87309500D01*
G75*
G02*
X171999000Y-87084500I0J225000D01*
G01*
X171999000Y-86634500D01*
G75*
G02*
X172224000Y-86409500I225000J0D01*
G01*
G37*
G36*
G01*
X172224000Y-84859500D02*
X172724000Y-84859500D01*
G75*
G02*
X172949000Y-85084500I0J-225000D01*
G01*
X172949000Y-85534500D01*
G75*
G02*
X172724000Y-85759500I-225000J0D01*
G01*
X172224000Y-85759500D01*
G75*
G02*
X171999000Y-85534500I0J225000D01*
G01*
X171999000Y-85084500D01*
G75*
G02*
X172224000Y-84859500I225000J0D01*
G01*
G37*
G36*
G01*
X161115000Y-67856000D02*
X161115000Y-67356000D01*
G75*
G02*
X161340000Y-67131000I225000J0D01*
G01*
X161790000Y-67131000D01*
G75*
G02*
X162015000Y-67356000I0J-225000D01*
G01*
X162015000Y-67856000D01*
G75*
G02*
X161790000Y-68081000I-225000J0D01*
G01*
X161340000Y-68081000D01*
G75*
G02*
X161115000Y-67856000I0J225000D01*
G01*
G37*
G36*
G01*
X159565000Y-67856000D02*
X159565000Y-67356000D01*
G75*
G02*
X159790000Y-67131000I225000J0D01*
G01*
X160240000Y-67131000D01*
G75*
G02*
X160465000Y-67356000I0J-225000D01*
G01*
X160465000Y-67856000D01*
G75*
G02*
X160240000Y-68081000I-225000J0D01*
G01*
X159790000Y-68081000D01*
G75*
G02*
X159565000Y-67856000I0J225000D01*
G01*
G37*
G36*
G01*
X141732500Y-99042500D02*
X141732500Y-99542500D01*
G75*
G02*
X141507500Y-99767500I-225000J0D01*
G01*
X141057500Y-99767500D01*
G75*
G02*
X140832500Y-99542500I0J225000D01*
G01*
X140832500Y-99042500D01*
G75*
G02*
X141057500Y-98817500I225000J0D01*
G01*
X141507500Y-98817500D01*
G75*
G02*
X141732500Y-99042500I0J-225000D01*
G01*
G37*
G36*
G01*
X143282500Y-99042500D02*
X143282500Y-99542500D01*
G75*
G02*
X143057500Y-99767500I-225000J0D01*
G01*
X142607500Y-99767500D01*
G75*
G02*
X142382500Y-99542500I0J225000D01*
G01*
X142382500Y-99042500D01*
G75*
G02*
X142607500Y-98817500I225000J0D01*
G01*
X143057500Y-98817500D01*
G75*
G02*
X143282500Y-99042500I0J-225000D01*
G01*
G37*
G36*
G01*
X169291000Y-78278000D02*
X169291000Y-78778000D01*
G75*
G02*
X169066000Y-79003000I-225000J0D01*
G01*
X168616000Y-79003000D01*
G75*
G02*
X168391000Y-78778000I0J225000D01*
G01*
X168391000Y-78278000D01*
G75*
G02*
X168616000Y-78053000I225000J0D01*
G01*
X169066000Y-78053000D01*
G75*
G02*
X169291000Y-78278000I0J-225000D01*
G01*
G37*
G36*
G01*
X170841000Y-78278000D02*
X170841000Y-78778000D01*
G75*
G02*
X170616000Y-79003000I-225000J0D01*
G01*
X170166000Y-79003000D01*
G75*
G02*
X169941000Y-78778000I0J225000D01*
G01*
X169941000Y-78278000D01*
G75*
G02*
X170166000Y-78053000I225000J0D01*
G01*
X170616000Y-78053000D01*
G75*
G02*
X170841000Y-78278000I0J-225000D01*
G01*
G37*
G36*
G01*
X133160000Y-101202000D02*
X133160000Y-101702000D01*
G75*
G02*
X132935000Y-101927000I-225000J0D01*
G01*
X132485000Y-101927000D01*
G75*
G02*
X132260000Y-101702000I0J225000D01*
G01*
X132260000Y-101202000D01*
G75*
G02*
X132485000Y-100977000I225000J0D01*
G01*
X132935000Y-100977000D01*
G75*
G02*
X133160000Y-101202000I0J-225000D01*
G01*
G37*
G36*
G01*
X134710000Y-101202000D02*
X134710000Y-101702000D01*
G75*
G02*
X134485000Y-101927000I-225000J0D01*
G01*
X134035000Y-101927000D01*
G75*
G02*
X133810000Y-101702000I0J225000D01*
G01*
X133810000Y-101202000D01*
G75*
G02*
X134035000Y-100977000I225000J0D01*
G01*
X134485000Y-100977000D01*
G75*
G02*
X134710000Y-101202000I0J-225000D01*
G01*
G37*
G36*
G01*
X141546000Y-106207000D02*
X141046000Y-106207000D01*
G75*
G02*
X140821000Y-105982000I0J225000D01*
G01*
X140821000Y-105532000D01*
G75*
G02*
X141046000Y-105307000I225000J0D01*
G01*
X141546000Y-105307000D01*
G75*
G02*
X141771000Y-105532000I0J-225000D01*
G01*
X141771000Y-105982000D01*
G75*
G02*
X141546000Y-106207000I-225000J0D01*
G01*
G37*
G36*
G01*
X141546000Y-107757000D02*
X141046000Y-107757000D01*
G75*
G02*
X140821000Y-107532000I0J225000D01*
G01*
X140821000Y-107082000D01*
G75*
G02*
X141046000Y-106857000I225000J0D01*
G01*
X141546000Y-106857000D01*
G75*
G02*
X141771000Y-107082000I0J-225000D01*
G01*
X141771000Y-107532000D01*
G75*
G02*
X141546000Y-107757000I-225000J0D01*
G01*
G37*
G36*
G01*
X172224000Y-75995500D02*
X172724000Y-75995500D01*
G75*
G02*
X172949000Y-76220500I0J-225000D01*
G01*
X172949000Y-76670500D01*
G75*
G02*
X172724000Y-76895500I-225000J0D01*
G01*
X172224000Y-76895500D01*
G75*
G02*
X171999000Y-76670500I0J225000D01*
G01*
X171999000Y-76220500D01*
G75*
G02*
X172224000Y-75995500I225000J0D01*
G01*
G37*
G36*
G01*
X172224000Y-74445500D02*
X172724000Y-74445500D01*
G75*
G02*
X172949000Y-74670500I0J-225000D01*
G01*
X172949000Y-75120500D01*
G75*
G02*
X172724000Y-75345500I-225000J0D01*
G01*
X172224000Y-75345500D01*
G75*
G02*
X171999000Y-75120500I0J225000D01*
G01*
X171999000Y-74670500D01*
G75*
G02*
X172224000Y-74445500I225000J0D01*
G01*
G37*
G36*
G01*
X138255000Y-101702000D02*
X138255000Y-101202000D01*
G75*
G02*
X138480000Y-100977000I225000J0D01*
G01*
X138930000Y-100977000D01*
G75*
G02*
X139155000Y-101202000I0J-225000D01*
G01*
X139155000Y-101702000D01*
G75*
G02*
X138930000Y-101927000I-225000J0D01*
G01*
X138480000Y-101927000D01*
G75*
G02*
X138255000Y-101702000I0J225000D01*
G01*
G37*
G36*
G01*
X136705000Y-101702000D02*
X136705000Y-101202000D01*
G75*
G02*
X136930000Y-100977000I225000J0D01*
G01*
X137380000Y-100977000D01*
G75*
G02*
X137605000Y-101202000I0J-225000D01*
G01*
X137605000Y-101702000D01*
G75*
G02*
X137380000Y-101927000I-225000J0D01*
G01*
X136930000Y-101927000D01*
G75*
G02*
X136705000Y-101702000I0J225000D01*
G01*
G37*
G36*
G01*
X137605000Y-99042500D02*
X137605000Y-99542500D01*
G75*
G02*
X137380000Y-99767500I-225000J0D01*
G01*
X136930000Y-99767500D01*
G75*
G02*
X136705000Y-99542500I0J225000D01*
G01*
X136705000Y-99042500D01*
G75*
G02*
X136930000Y-98817500I225000J0D01*
G01*
X137380000Y-98817500D01*
G75*
G02*
X137605000Y-99042500I0J-225000D01*
G01*
G37*
G36*
G01*
X139155000Y-99042500D02*
X139155000Y-99542500D01*
G75*
G02*
X138930000Y-99767500I-225000J0D01*
G01*
X138480000Y-99767500D01*
G75*
G02*
X138255000Y-99542500I0J225000D01*
G01*
X138255000Y-99042500D01*
G75*
G02*
X138480000Y-98817500I225000J0D01*
G01*
X138930000Y-98817500D01*
G75*
G02*
X139155000Y-99042500I0J-225000D01*
G01*
G37*
G36*
G01*
X164847000Y-88755500D02*
X164847000Y-89255500D01*
G75*
G02*
X164622000Y-89480500I-225000J0D01*
G01*
X164172000Y-89480500D01*
G75*
G02*
X163947000Y-89255500I0J225000D01*
G01*
X163947000Y-88755500D01*
G75*
G02*
X164172000Y-88530500I225000J0D01*
G01*
X164622000Y-88530500D01*
G75*
G02*
X164847000Y-88755500I0J-225000D01*
G01*
G37*
G36*
G01*
X166397000Y-88755500D02*
X166397000Y-89255500D01*
G75*
G02*
X166172000Y-89480500I-225000J0D01*
G01*
X165722000Y-89480500D01*
G75*
G02*
X165497000Y-89255500I0J225000D01*
G01*
X165497000Y-88755500D01*
G75*
G02*
X165722000Y-88530500I225000J0D01*
G01*
X166172000Y-88530500D01*
G75*
G02*
X166397000Y-88755500I0J-225000D01*
G01*
G37*
G36*
G01*
X180165000Y-67856000D02*
X180165000Y-67356000D01*
G75*
G02*
X180390000Y-67131000I225000J0D01*
G01*
X180840000Y-67131000D01*
G75*
G02*
X181065000Y-67356000I0J-225000D01*
G01*
X181065000Y-67856000D01*
G75*
G02*
X180840000Y-68081000I-225000J0D01*
G01*
X180390000Y-68081000D01*
G75*
G02*
X180165000Y-67856000I0J225000D01*
G01*
G37*
G36*
G01*
X178615000Y-67856000D02*
X178615000Y-67356000D01*
G75*
G02*
X178840000Y-67131000I225000J0D01*
G01*
X179290000Y-67131000D01*
G75*
G02*
X179515000Y-67356000I0J-225000D01*
G01*
X179515000Y-67856000D01*
G75*
G02*
X179290000Y-68081000I-225000J0D01*
G01*
X178840000Y-68081000D01*
G75*
G02*
X178615000Y-67856000I0J225000D01*
G01*
G37*
G36*
G01*
X111002000Y-69325000D02*
X110502000Y-69325000D01*
G75*
G02*
X110277000Y-69100000I0J225000D01*
G01*
X110277000Y-68650000D01*
G75*
G02*
X110502000Y-68425000I225000J0D01*
G01*
X111002000Y-68425000D01*
G75*
G02*
X111227000Y-68650000I0J-225000D01*
G01*
X111227000Y-69100000D01*
G75*
G02*
X111002000Y-69325000I-225000J0D01*
G01*
G37*
G36*
G01*
X111002000Y-70875000D02*
X110502000Y-70875000D01*
G75*
G02*
X110277000Y-70650000I0J225000D01*
G01*
X110277000Y-70200000D01*
G75*
G02*
X110502000Y-69975000I225000J0D01*
G01*
X111002000Y-69975000D01*
G75*
G02*
X111227000Y-70200000I0J-225000D01*
G01*
X111227000Y-70650000D01*
G75*
G02*
X111002000Y-70875000I-225000J0D01*
G01*
G37*
G36*
G01*
X108906000Y-69313000D02*
X108406000Y-69313000D01*
G75*
G02*
X108181000Y-69088000I0J225000D01*
G01*
X108181000Y-68638000D01*
G75*
G02*
X108406000Y-68413000I225000J0D01*
G01*
X108906000Y-68413000D01*
G75*
G02*
X109131000Y-68638000I0J-225000D01*
G01*
X109131000Y-69088000D01*
G75*
G02*
X108906000Y-69313000I-225000J0D01*
G01*
G37*
G36*
G01*
X108906000Y-70863000D02*
X108406000Y-70863000D01*
G75*
G02*
X108181000Y-70638000I0J225000D01*
G01*
X108181000Y-70188000D01*
G75*
G02*
X108406000Y-69963000I225000J0D01*
G01*
X108906000Y-69963000D01*
G75*
G02*
X109131000Y-70188000I0J-225000D01*
G01*
X109131000Y-70638000D01*
G75*
G02*
X108906000Y-70863000I-225000J0D01*
G01*
G37*
G36*
G01*
X116269000Y-99804000D02*
X116269000Y-100304000D01*
G75*
G02*
X116044000Y-100529000I-225000J0D01*
G01*
X115594000Y-100529000D01*
G75*
G02*
X115369000Y-100304000I0J225000D01*
G01*
X115369000Y-99804000D01*
G75*
G02*
X115594000Y-99579000I225000J0D01*
G01*
X116044000Y-99579000D01*
G75*
G02*
X116269000Y-99804000I0J-225000D01*
G01*
G37*
G36*
G01*
X117819000Y-99804000D02*
X117819000Y-100304000D01*
G75*
G02*
X117594000Y-100529000I-225000J0D01*
G01*
X117144000Y-100529000D01*
G75*
G02*
X116919000Y-100304000I0J225000D01*
G01*
X116919000Y-99804000D01*
G75*
G02*
X117144000Y-99579000I225000J0D01*
G01*
X117594000Y-99579000D01*
G75*
G02*
X117819000Y-99804000I0J-225000D01*
G01*
G37*
G36*
G01*
X105997000Y-105829000D02*
X105997000Y-105329000D01*
G75*
G02*
X106222000Y-105104000I225000J0D01*
G01*
X106672000Y-105104000D01*
G75*
G02*
X106897000Y-105329000I0J-225000D01*
G01*
X106897000Y-105829000D01*
G75*
G02*
X106672000Y-106054000I-225000J0D01*
G01*
X106222000Y-106054000D01*
G75*
G02*
X105997000Y-105829000I0J225000D01*
G01*
G37*
G36*
G01*
X104447000Y-105829000D02*
X104447000Y-105329000D01*
G75*
G02*
X104672000Y-105104000I225000J0D01*
G01*
X105122000Y-105104000D01*
G75*
G02*
X105347000Y-105329000I0J-225000D01*
G01*
X105347000Y-105829000D01*
G75*
G02*
X105122000Y-106054000I-225000J0D01*
G01*
X104672000Y-106054000D01*
G75*
G02*
X104447000Y-105829000I0J225000D01*
G01*
G37*
G36*
G01*
X151765000Y-101202000D02*
X151765000Y-101702000D01*
G75*
G02*
X151540000Y-101927000I-225000J0D01*
G01*
X151090000Y-101927000D01*
G75*
G02*
X150865000Y-101702000I0J225000D01*
G01*
X150865000Y-101202000D01*
G75*
G02*
X151090000Y-100977000I225000J0D01*
G01*
X151540000Y-100977000D01*
G75*
G02*
X151765000Y-101202000I0J-225000D01*
G01*
G37*
G36*
G01*
X153315000Y-101202000D02*
X153315000Y-101702000D01*
G75*
G02*
X153090000Y-101927000I-225000J0D01*
G01*
X152640000Y-101927000D01*
G75*
G02*
X152415000Y-101702000I0J225000D01*
G01*
X152415000Y-101202000D01*
G75*
G02*
X152640000Y-100977000I225000J0D01*
G01*
X153090000Y-100977000D01*
G75*
G02*
X153315000Y-101202000I0J-225000D01*
G01*
G37*
G36*
G01*
X156670000Y-101702000D02*
X156670000Y-101202000D01*
G75*
G02*
X156895000Y-100977000I225000J0D01*
G01*
X157345000Y-100977000D01*
G75*
G02*
X157570000Y-101202000I0J-225000D01*
G01*
X157570000Y-101702000D01*
G75*
G02*
X157345000Y-101927000I-225000J0D01*
G01*
X156895000Y-101927000D01*
G75*
G02*
X156670000Y-101702000I0J225000D01*
G01*
G37*
G36*
G01*
X155120000Y-101702000D02*
X155120000Y-101202000D01*
G75*
G02*
X155345000Y-100977000I225000J0D01*
G01*
X155795000Y-100977000D01*
G75*
G02*
X156020000Y-101202000I0J-225000D01*
G01*
X156020000Y-101702000D01*
G75*
G02*
X155795000Y-101927000I-225000J0D01*
G01*
X155345000Y-101927000D01*
G75*
G02*
X155120000Y-101702000I0J225000D01*
G01*
G37*
G36*
G01*
X139323000Y-87347000D02*
X138823000Y-87347000D01*
G75*
G02*
X138598000Y-87122000I0J225000D01*
G01*
X138598000Y-86672000D01*
G75*
G02*
X138823000Y-86447000I225000J0D01*
G01*
X139323000Y-86447000D01*
G75*
G02*
X139548000Y-86672000I0J-225000D01*
G01*
X139548000Y-87122000D01*
G75*
G02*
X139323000Y-87347000I-225000J0D01*
G01*
G37*
G36*
G01*
X139323000Y-88897000D02*
X138823000Y-88897000D01*
G75*
G02*
X138598000Y-88672000I0J225000D01*
G01*
X138598000Y-88222000D01*
G75*
G02*
X138823000Y-87997000I225000J0D01*
G01*
X139323000Y-87997000D01*
G75*
G02*
X139548000Y-88222000I0J-225000D01*
G01*
X139548000Y-88672000D01*
G75*
G02*
X139323000Y-88897000I-225000J0D01*
G01*
G37*
G36*
G01*
X143768500Y-72805500D02*
X143268500Y-72805500D01*
G75*
G02*
X143043500Y-72580500I0J225000D01*
G01*
X143043500Y-72130500D01*
G75*
G02*
X143268500Y-71905500I225000J0D01*
G01*
X143768500Y-71905500D01*
G75*
G02*
X143993500Y-72130500I0J-225000D01*
G01*
X143993500Y-72580500D01*
G75*
G02*
X143768500Y-72805500I-225000J0D01*
G01*
G37*
G36*
G01*
X143768500Y-74355500D02*
X143268500Y-74355500D01*
G75*
G02*
X143043500Y-74130500I0J225000D01*
G01*
X143043500Y-73680500D01*
G75*
G02*
X143268500Y-73455500I225000J0D01*
G01*
X143768500Y-73455500D01*
G75*
G02*
X143993500Y-73680500I0J-225000D01*
G01*
X143993500Y-74130500D01*
G75*
G02*
X143768500Y-74355500I-225000J0D01*
G01*
G37*
G36*
G01*
X145990500Y-72805500D02*
X145490500Y-72805500D01*
G75*
G02*
X145265500Y-72580500I0J225000D01*
G01*
X145265500Y-72130500D01*
G75*
G02*
X145490500Y-71905500I225000J0D01*
G01*
X145990500Y-71905500D01*
G75*
G02*
X146215500Y-72130500I0J-225000D01*
G01*
X146215500Y-72580500D01*
G75*
G02*
X145990500Y-72805500I-225000J0D01*
G01*
G37*
G36*
G01*
X145990500Y-74355500D02*
X145490500Y-74355500D01*
G75*
G02*
X145265500Y-74130500I0J225000D01*
G01*
X145265500Y-73680500D01*
G75*
G02*
X145490500Y-73455500I225000J0D01*
G01*
X145990500Y-73455500D01*
G75*
G02*
X146215500Y-73680500I0J-225000D01*
G01*
X146215500Y-74130500D01*
G75*
G02*
X145990500Y-74355500I-225000J0D01*
G01*
G37*
G36*
G01*
X148848000Y-77441000D02*
X148348000Y-77441000D01*
G75*
G02*
X148123000Y-77216000I0J225000D01*
G01*
X148123000Y-76766000D01*
G75*
G02*
X148348000Y-76541000I225000J0D01*
G01*
X148848000Y-76541000D01*
G75*
G02*
X149073000Y-76766000I0J-225000D01*
G01*
X149073000Y-77216000D01*
G75*
G02*
X148848000Y-77441000I-225000J0D01*
G01*
G37*
G36*
G01*
X148848000Y-78991000D02*
X148348000Y-78991000D01*
G75*
G02*
X148123000Y-78766000I0J225000D01*
G01*
X148123000Y-78316000D01*
G75*
G02*
X148348000Y-78091000I225000J0D01*
G01*
X148848000Y-78091000D01*
G75*
G02*
X149073000Y-78316000I0J-225000D01*
G01*
X149073000Y-78766000D01*
G75*
G02*
X148848000Y-78991000I-225000J0D01*
G01*
G37*
G36*
G01*
X157301500Y-88187500D02*
X157801500Y-88187500D01*
G75*
G02*
X158026500Y-88412500I0J-225000D01*
G01*
X158026500Y-88862500D01*
G75*
G02*
X157801500Y-89087500I-225000J0D01*
G01*
X157301500Y-89087500D01*
G75*
G02*
X157076500Y-88862500I0J225000D01*
G01*
X157076500Y-88412500D01*
G75*
G02*
X157301500Y-88187500I225000J0D01*
G01*
G37*
G36*
G01*
X157301500Y-86637500D02*
X157801500Y-86637500D01*
G75*
G02*
X158026500Y-86862500I0J-225000D01*
G01*
X158026500Y-87312500D01*
G75*
G02*
X157801500Y-87537500I-225000J0D01*
G01*
X157301500Y-87537500D01*
G75*
G02*
X157076500Y-87312500I0J225000D01*
G01*
X157076500Y-86862500D01*
G75*
G02*
X157301500Y-86637500I225000J0D01*
G01*
G37*
G36*
G01*
X148729000Y-97649000D02*
X149229000Y-97649000D01*
G75*
G02*
X149454000Y-97874000I0J-225000D01*
G01*
X149454000Y-98324000D01*
G75*
G02*
X149229000Y-98549000I-225000J0D01*
G01*
X148729000Y-98549000D01*
G75*
G02*
X148504000Y-98324000I0J225000D01*
G01*
X148504000Y-97874000D01*
G75*
G02*
X148729000Y-97649000I225000J0D01*
G01*
G37*
G36*
G01*
X148729000Y-96099000D02*
X149229000Y-96099000D01*
G75*
G02*
X149454000Y-96324000I0J-225000D01*
G01*
X149454000Y-96774000D01*
G75*
G02*
X149229000Y-96999000I-225000J0D01*
G01*
X148729000Y-96999000D01*
G75*
G02*
X148504000Y-96774000I0J225000D01*
G01*
X148504000Y-96324000D01*
G75*
G02*
X148729000Y-96099000I225000J0D01*
G01*
G37*
G36*
G01*
X92904500Y-82267000D02*
X92404500Y-82267000D01*
G75*
G02*
X92179500Y-82042000I0J225000D01*
G01*
X92179500Y-81592000D01*
G75*
G02*
X92404500Y-81367000I225000J0D01*
G01*
X92904500Y-81367000D01*
G75*
G02*
X93129500Y-81592000I0J-225000D01*
G01*
X93129500Y-82042000D01*
G75*
G02*
X92904500Y-82267000I-225000J0D01*
G01*
G37*
G36*
G01*
X92904500Y-83817000D02*
X92404500Y-83817000D01*
G75*
G02*
X92179500Y-83592000I0J225000D01*
G01*
X92179500Y-83142000D01*
G75*
G02*
X92404500Y-82917000I225000J0D01*
G01*
X92904500Y-82917000D01*
G75*
G02*
X93129500Y-83142000I0J-225000D01*
G01*
X93129500Y-83592000D01*
G75*
G02*
X92904500Y-83817000I-225000J0D01*
G01*
G37*
G36*
G01*
X136664000Y-78091000D02*
X137164000Y-78091000D01*
G75*
G02*
X137389000Y-78316000I0J-225000D01*
G01*
X137389000Y-78766000D01*
G75*
G02*
X137164000Y-78991000I-225000J0D01*
G01*
X136664000Y-78991000D01*
G75*
G02*
X136439000Y-78766000I0J225000D01*
G01*
X136439000Y-78316000D01*
G75*
G02*
X136664000Y-78091000I225000J0D01*
G01*
G37*
G36*
G01*
X136664000Y-76541000D02*
X137164000Y-76541000D01*
G75*
G02*
X137389000Y-76766000I0J-225000D01*
G01*
X137389000Y-77216000D01*
G75*
G02*
X137164000Y-77441000I-225000J0D01*
G01*
X136664000Y-77441000D01*
G75*
G02*
X136439000Y-77216000I0J225000D01*
G01*
X136439000Y-76766000D01*
G75*
G02*
X136664000Y-76541000I225000J0D01*
G01*
G37*
G36*
G01*
X129492000Y-98018500D02*
X129492000Y-97518500D01*
G75*
G02*
X129717000Y-97293500I225000J0D01*
G01*
X130167000Y-97293500D01*
G75*
G02*
X130392000Y-97518500I0J-225000D01*
G01*
X130392000Y-98018500D01*
G75*
G02*
X130167000Y-98243500I-225000J0D01*
G01*
X129717000Y-98243500D01*
G75*
G02*
X129492000Y-98018500I0J225000D01*
G01*
G37*
G36*
G01*
X127942000Y-98018500D02*
X127942000Y-97518500D01*
G75*
G02*
X128167000Y-97293500I225000J0D01*
G01*
X128617000Y-97293500D01*
G75*
G02*
X128842000Y-97518500I0J-225000D01*
G01*
X128842000Y-98018500D01*
G75*
G02*
X128617000Y-98243500I-225000J0D01*
G01*
X128167000Y-98243500D01*
G75*
G02*
X127942000Y-98018500I0J225000D01*
G01*
G37*
G36*
G01*
X123543000Y-109481000D02*
X125393000Y-109481000D01*
G75*
G02*
X125643000Y-109731000I0J-250000D01*
G01*
X125643000Y-111306000D01*
G75*
G02*
X125393000Y-111556000I-250000J0D01*
G01*
X123543000Y-111556000D01*
G75*
G02*
X123293000Y-111306000I0J250000D01*
G01*
X123293000Y-109731000D01*
G75*
G02*
X123543000Y-109481000I250000J0D01*
G01*
G37*
G36*
G01*
X123543000Y-104556000D02*
X125393000Y-104556000D01*
G75*
G02*
X125643000Y-104806000I0J-250000D01*
G01*
X125643000Y-106381000D01*
G75*
G02*
X125393000Y-106631000I-250000J0D01*
G01*
X123543000Y-106631000D01*
G75*
G02*
X123293000Y-106381000I0J250000D01*
G01*
X123293000Y-104806000D01*
G75*
G02*
X123543000Y-104556000I250000J0D01*
G01*
G37*
G36*
G01*
X120690000Y-76460000D02*
X120690000Y-78310000D01*
G75*
G02*
X120440000Y-78560000I-250000J0D01*
G01*
X118865000Y-78560000D01*
G75*
G02*
X118615000Y-78310000I0J250000D01*
G01*
X118615000Y-76460000D01*
G75*
G02*
X118865000Y-76210000I250000J0D01*
G01*
X120440000Y-76210000D01*
G75*
G02*
X120690000Y-76460000I0J-250000D01*
G01*
G37*
G36*
G01*
X115765000Y-76460000D02*
X115765000Y-78310000D01*
G75*
G02*
X115515000Y-78560000I-250000J0D01*
G01*
X113940000Y-78560000D01*
G75*
G02*
X113690000Y-78310000I0J250000D01*
G01*
X113690000Y-76460000D01*
G75*
G02*
X113940000Y-76210000I250000J0D01*
G01*
X115515000Y-76210000D01*
G75*
G02*
X115765000Y-76460000I0J-250000D01*
G01*
G37*
G36*
G01*
X114361000Y-80235000D02*
X116211000Y-80235000D01*
G75*
G02*
X116461000Y-80485000I0J-250000D01*
G01*
X116461000Y-82060000D01*
G75*
G02*
X116211000Y-82310000I-250000J0D01*
G01*
X114361000Y-82310000D01*
G75*
G02*
X114111000Y-82060000I0J250000D01*
G01*
X114111000Y-80485000D01*
G75*
G02*
X114361000Y-80235000I250000J0D01*
G01*
G37*
G36*
G01*
X114361000Y-85160000D02*
X116211000Y-85160000D01*
G75*
G02*
X116461000Y-85410000I0J-250000D01*
G01*
X116461000Y-86985000D01*
G75*
G02*
X116211000Y-87235000I-250000J0D01*
G01*
X114361000Y-87235000D01*
G75*
G02*
X114111000Y-86985000I0J250000D01*
G01*
X114111000Y-85410000D01*
G75*
G02*
X114361000Y-85160000I250000J0D01*
G01*
G37*
G36*
G01*
X128212000Y-74471500D02*
X126362000Y-74471500D01*
G75*
G02*
X126112000Y-74221500I0J250000D01*
G01*
X126112000Y-72646500D01*
G75*
G02*
X126362000Y-72396500I250000J0D01*
G01*
X128212000Y-72396500D01*
G75*
G02*
X128462000Y-72646500I0J-250000D01*
G01*
X128462000Y-74221500D01*
G75*
G02*
X128212000Y-74471500I-250000J0D01*
G01*
G37*
G36*
G01*
X128212000Y-69546500D02*
X126362000Y-69546500D01*
G75*
G02*
X126112000Y-69296500I0J250000D01*
G01*
X126112000Y-67721500D01*
G75*
G02*
X126362000Y-67471500I250000J0D01*
G01*
X128212000Y-67471500D01*
G75*
G02*
X128462000Y-67721500I0J-250000D01*
G01*
X128462000Y-69296500D01*
G75*
G02*
X128212000Y-69546500I-250000J0D01*
G01*
G37*
G36*
G01*
X116211000Y-74471500D02*
X114361000Y-74471500D01*
G75*
G02*
X114111000Y-74221500I0J250000D01*
G01*
X114111000Y-72646500D01*
G75*
G02*
X114361000Y-72396500I250000J0D01*
G01*
X116211000Y-72396500D01*
G75*
G02*
X116461000Y-72646500I0J-250000D01*
G01*
X116461000Y-74221500D01*
G75*
G02*
X116211000Y-74471500I-250000J0D01*
G01*
G37*
G36*
G01*
X116211000Y-69546500D02*
X114361000Y-69546500D01*
G75*
G02*
X114111000Y-69296500I0J250000D01*
G01*
X114111000Y-67721500D01*
G75*
G02*
X114361000Y-67471500I250000J0D01*
G01*
X116211000Y-67471500D01*
G75*
G02*
X116461000Y-67721500I0J-250000D01*
G01*
X116461000Y-69296500D01*
G75*
G02*
X116211000Y-69546500I-250000J0D01*
G01*
G37*
G36*
G01*
X160301000Y-101177000D02*
X160301000Y-101727000D01*
G75*
G02*
X160101000Y-101927000I-200000J0D01*
G01*
X159701000Y-101927000D01*
G75*
G02*
X159501000Y-101727000I0J200000D01*
G01*
X159501000Y-101177000D01*
G75*
G02*
X159701000Y-100977000I200000J0D01*
G01*
X160101000Y-100977000D01*
G75*
G02*
X160301000Y-101177000I0J-200000D01*
G01*
G37*
G36*
G01*
X161951000Y-101177000D02*
X161951000Y-101727000D01*
G75*
G02*
X161751000Y-101927000I-200000J0D01*
G01*
X161351000Y-101927000D01*
G75*
G02*
X161151000Y-101727000I0J200000D01*
G01*
X161151000Y-101177000D01*
G75*
G02*
X161351000Y-100977000I200000J0D01*
G01*
X161751000Y-100977000D01*
G75*
G02*
X161951000Y-101177000I0J-200000D01*
G01*
G37*
G36*
G01*
X130458000Y-107757000D02*
X129908000Y-107757000D01*
G75*
G02*
X129708000Y-107557000I0J200000D01*
G01*
X129708000Y-107157000D01*
G75*
G02*
X129908000Y-106957000I200000J0D01*
G01*
X130458000Y-106957000D01*
G75*
G02*
X130658000Y-107157000I0J-200000D01*
G01*
X130658000Y-107557000D01*
G75*
G02*
X130458000Y-107757000I-200000J0D01*
G01*
G37*
G36*
G01*
X130458000Y-106107000D02*
X129908000Y-106107000D01*
G75*
G02*
X129708000Y-105907000I0J200000D01*
G01*
X129708000Y-105507000D01*
G75*
G02*
X129908000Y-105307000I200000J0D01*
G01*
X130458000Y-105307000D01*
G75*
G02*
X130658000Y-105507000I0J-200000D01*
G01*
X130658000Y-105907000D01*
G75*
G02*
X130458000Y-106107000I-200000J0D01*
G01*
G37*
G36*
G01*
X143179000Y-106957000D02*
X143729000Y-106957000D01*
G75*
G02*
X143929000Y-107157000I0J-200000D01*
G01*
X143929000Y-107557000D01*
G75*
G02*
X143729000Y-107757000I-200000J0D01*
G01*
X143179000Y-107757000D01*
G75*
G02*
X142979000Y-107557000I0J200000D01*
G01*
X142979000Y-107157000D01*
G75*
G02*
X143179000Y-106957000I200000J0D01*
G01*
G37*
G36*
G01*
X143179000Y-105307000D02*
X143729000Y-105307000D01*
G75*
G02*
X143929000Y-105507000I0J-200000D01*
G01*
X143929000Y-105907000D01*
G75*
G02*
X143729000Y-106107000I-200000J0D01*
G01*
X143179000Y-106107000D01*
G75*
G02*
X142979000Y-105907000I0J200000D01*
G01*
X142979000Y-105507000D01*
G75*
G02*
X143179000Y-105307000I200000J0D01*
G01*
G37*
G36*
G01*
X122567000Y-76160000D02*
X123117000Y-76160000D01*
G75*
G02*
X123317000Y-76360000I0J-200000D01*
G01*
X123317000Y-76760000D01*
G75*
G02*
X123117000Y-76960000I-200000J0D01*
G01*
X122567000Y-76960000D01*
G75*
G02*
X122367000Y-76760000I0J200000D01*
G01*
X122367000Y-76360000D01*
G75*
G02*
X122567000Y-76160000I200000J0D01*
G01*
G37*
G36*
G01*
X122567000Y-77810000D02*
X123117000Y-77810000D01*
G75*
G02*
X123317000Y-78010000I0J-200000D01*
G01*
X123317000Y-78410000D01*
G75*
G02*
X123117000Y-78610000I-200000J0D01*
G01*
X122567000Y-78610000D01*
G75*
G02*
X122367000Y-78410000I0J200000D01*
G01*
X122367000Y-78010000D01*
G75*
G02*
X122567000Y-77810000I200000J0D01*
G01*
G37*
G36*
G01*
X123117000Y-83182000D02*
X122567000Y-83182000D01*
G75*
G02*
X122367000Y-82982000I0J200000D01*
G01*
X122367000Y-82582000D01*
G75*
G02*
X122567000Y-82382000I200000J0D01*
G01*
X123117000Y-82382000D01*
G75*
G02*
X123317000Y-82582000I0J-200000D01*
G01*
X123317000Y-82982000D01*
G75*
G02*
X123117000Y-83182000I-200000J0D01*
G01*
G37*
G36*
G01*
X123117000Y-81532000D02*
X122567000Y-81532000D01*
G75*
G02*
X122367000Y-81332000I0J200000D01*
G01*
X122367000Y-80932000D01*
G75*
G02*
X122567000Y-80732000I200000J0D01*
G01*
X123117000Y-80732000D01*
G75*
G02*
X123317000Y-80932000I0J-200000D01*
G01*
X123317000Y-81332000D01*
G75*
G02*
X123117000Y-81532000I-200000J0D01*
G01*
G37*
G36*
G01*
X129935000Y-68262000D02*
X129935000Y-67712000D01*
G75*
G02*
X130135000Y-67512000I200000J0D01*
G01*
X130535000Y-67512000D01*
G75*
G02*
X130735000Y-67712000I0J-200000D01*
G01*
X130735000Y-68262000D01*
G75*
G02*
X130535000Y-68462000I-200000J0D01*
G01*
X130135000Y-68462000D01*
G75*
G02*
X129935000Y-68262000I0J200000D01*
G01*
G37*
G36*
G01*
X131585000Y-68262000D02*
X131585000Y-67712000D01*
G75*
G02*
X131785000Y-67512000I200000J0D01*
G01*
X132185000Y-67512000D01*
G75*
G02*
X132385000Y-67712000I0J-200000D01*
G01*
X132385000Y-68262000D01*
G75*
G02*
X132185000Y-68462000I-200000J0D01*
G01*
X131785000Y-68462000D01*
G75*
G02*
X131585000Y-68262000I0J200000D01*
G01*
G37*
G36*
G01*
X118863000Y-68450000D02*
X118313000Y-68450000D01*
G75*
G02*
X118113000Y-68250000I0J200000D01*
G01*
X118113000Y-67850000D01*
G75*
G02*
X118313000Y-67650000I200000J0D01*
G01*
X118863000Y-67650000D01*
G75*
G02*
X119063000Y-67850000I0J-200000D01*
G01*
X119063000Y-68250000D01*
G75*
G02*
X118863000Y-68450000I-200000J0D01*
G01*
G37*
G36*
G01*
X118863000Y-66800000D02*
X118313000Y-66800000D01*
G75*
G02*
X118113000Y-66600000I0J200000D01*
G01*
X118113000Y-66200000D01*
G75*
G02*
X118313000Y-66000000I200000J0D01*
G01*
X118863000Y-66000000D01*
G75*
G02*
X119063000Y-66200000I0J-200000D01*
G01*
X119063000Y-66600000D01*
G75*
G02*
X118863000Y-66800000I-200000J0D01*
G01*
G37*
G36*
G01*
X170041000Y-76644000D02*
X170041000Y-76094000D01*
G75*
G02*
X170241000Y-75894000I200000J0D01*
G01*
X170641000Y-75894000D01*
G75*
G02*
X170841000Y-76094000I0J-200000D01*
G01*
X170841000Y-76644000D01*
G75*
G02*
X170641000Y-76844000I-200000J0D01*
G01*
X170241000Y-76844000D01*
G75*
G02*
X170041000Y-76644000I0J200000D01*
G01*
G37*
G36*
G01*
X168391000Y-76644000D02*
X168391000Y-76094000D01*
G75*
G02*
X168591000Y-75894000I200000J0D01*
G01*
X168991000Y-75894000D01*
G75*
G02*
X169191000Y-76094000I0J-200000D01*
G01*
X169191000Y-76644000D01*
G75*
G02*
X168991000Y-76844000I-200000J0D01*
G01*
X168591000Y-76844000D01*
G75*
G02*
X168391000Y-76644000I0J200000D01*
G01*
G37*
G36*
G01*
X141021000Y-103210000D02*
X141571000Y-103210000D01*
G75*
G02*
X141771000Y-103410000I0J-200000D01*
G01*
X141771000Y-103810000D01*
G75*
G02*
X141571000Y-104010000I-200000J0D01*
G01*
X141021000Y-104010000D01*
G75*
G02*
X140821000Y-103810000I0J200000D01*
G01*
X140821000Y-103410000D01*
G75*
G02*
X141021000Y-103210000I200000J0D01*
G01*
G37*
G36*
G01*
X141021000Y-101560000D02*
X141571000Y-101560000D01*
G75*
G02*
X141771000Y-101760000I0J-200000D01*
G01*
X141771000Y-102160000D01*
G75*
G02*
X141571000Y-102360000I-200000J0D01*
G01*
X141021000Y-102360000D01*
G75*
G02*
X140821000Y-102160000I0J200000D01*
G01*
X140821000Y-101760000D01*
G75*
G02*
X141021000Y-101560000I200000J0D01*
G01*
G37*
G36*
G01*
X174907000Y-99208000D02*
X174907000Y-99758000D01*
G75*
G02*
X174707000Y-99958000I-200000J0D01*
G01*
X174307000Y-99958000D01*
G75*
G02*
X174107000Y-99758000I0J200000D01*
G01*
X174107000Y-99208000D01*
G75*
G02*
X174307000Y-99008000I200000J0D01*
G01*
X174707000Y-99008000D01*
G75*
G02*
X174907000Y-99208000I0J-200000D01*
G01*
G37*
G36*
G01*
X176557000Y-99208000D02*
X176557000Y-99758000D01*
G75*
G02*
X176357000Y-99958000I-200000J0D01*
G01*
X175957000Y-99958000D01*
G75*
G02*
X175757000Y-99758000I0J200000D01*
G01*
X175757000Y-99208000D01*
G75*
G02*
X175957000Y-99008000I200000J0D01*
G01*
X176357000Y-99008000D01*
G75*
G02*
X176557000Y-99208000I0J-200000D01*
G01*
G37*
G36*
G01*
X180201000Y-99758000D02*
X180201000Y-99208000D01*
G75*
G02*
X180401000Y-99008000I200000J0D01*
G01*
X180801000Y-99008000D01*
G75*
G02*
X181001000Y-99208000I0J-200000D01*
G01*
X181001000Y-99758000D01*
G75*
G02*
X180801000Y-99958000I-200000J0D01*
G01*
X180401000Y-99958000D01*
G75*
G02*
X180201000Y-99758000I0J200000D01*
G01*
G37*
G36*
G01*
X178551000Y-99758000D02*
X178551000Y-99208000D01*
G75*
G02*
X178751000Y-99008000I200000J0D01*
G01*
X179151000Y-99008000D01*
G75*
G02*
X179351000Y-99208000I0J-200000D01*
G01*
X179351000Y-99758000D01*
G75*
G02*
X179151000Y-99958000I-200000J0D01*
G01*
X178751000Y-99958000D01*
G75*
G02*
X178551000Y-99758000I0J200000D01*
G01*
G37*
G36*
G01*
X152388000Y-70040000D02*
X152388000Y-69490000D01*
G75*
G02*
X152588000Y-69290000I200000J0D01*
G01*
X152988000Y-69290000D01*
G75*
G02*
X153188000Y-69490000I0J-200000D01*
G01*
X153188000Y-70040000D01*
G75*
G02*
X152988000Y-70240000I-200000J0D01*
G01*
X152588000Y-70240000D01*
G75*
G02*
X152388000Y-70040000I0J200000D01*
G01*
G37*
G36*
G01*
X150738000Y-70040000D02*
X150738000Y-69490000D01*
G75*
G02*
X150938000Y-69290000I200000J0D01*
G01*
X151338000Y-69290000D01*
G75*
G02*
X151538000Y-69490000I0J-200000D01*
G01*
X151538000Y-70040000D01*
G75*
G02*
X151338000Y-70240000I-200000J0D01*
G01*
X150938000Y-70240000D01*
G75*
G02*
X150738000Y-70040000I0J200000D01*
G01*
G37*
G36*
G01*
X151538000Y-67331000D02*
X151538000Y-67881000D01*
G75*
G02*
X151338000Y-68081000I-200000J0D01*
G01*
X150938000Y-68081000D01*
G75*
G02*
X150738000Y-67881000I0J200000D01*
G01*
X150738000Y-67331000D01*
G75*
G02*
X150938000Y-67131000I200000J0D01*
G01*
X151338000Y-67131000D01*
G75*
G02*
X151538000Y-67331000I0J-200000D01*
G01*
G37*
G36*
G01*
X153188000Y-67331000D02*
X153188000Y-67881000D01*
G75*
G02*
X152988000Y-68081000I-200000J0D01*
G01*
X152588000Y-68081000D01*
G75*
G02*
X152388000Y-67881000I0J200000D01*
G01*
X152388000Y-67331000D01*
G75*
G02*
X152588000Y-67131000I200000J0D01*
G01*
X152988000Y-67131000D01*
G75*
G02*
X153188000Y-67331000I0J-200000D01*
G01*
G37*
G36*
G01*
X174907000Y-90889500D02*
X174907000Y-91439500D01*
G75*
G02*
X174707000Y-91639500I-200000J0D01*
G01*
X174307000Y-91639500D01*
G75*
G02*
X174107000Y-91439500I0J200000D01*
G01*
X174107000Y-90889500D01*
G75*
G02*
X174307000Y-90689500I200000J0D01*
G01*
X174707000Y-90689500D01*
G75*
G02*
X174907000Y-90889500I0J-200000D01*
G01*
G37*
G36*
G01*
X176557000Y-90889500D02*
X176557000Y-91439500D01*
G75*
G02*
X176357000Y-91639500I-200000J0D01*
G01*
X175957000Y-91639500D01*
G75*
G02*
X175757000Y-91439500I0J200000D01*
G01*
X175757000Y-90889500D01*
G75*
G02*
X175957000Y-90689500I200000J0D01*
G01*
X176357000Y-90689500D01*
G75*
G02*
X176557000Y-90889500I0J-200000D01*
G01*
G37*
G36*
G01*
X165597000Y-91439500D02*
X165597000Y-90889500D01*
G75*
G02*
X165797000Y-90689500I200000J0D01*
G01*
X166197000Y-90689500D01*
G75*
G02*
X166397000Y-90889500I0J-200000D01*
G01*
X166397000Y-91439500D01*
G75*
G02*
X166197000Y-91639500I-200000J0D01*
G01*
X165797000Y-91639500D01*
G75*
G02*
X165597000Y-91439500I0J200000D01*
G01*
G37*
G36*
G01*
X163947000Y-91439500D02*
X163947000Y-90889500D01*
G75*
G02*
X164147000Y-90689500I200000J0D01*
G01*
X164547000Y-90689500D01*
G75*
G02*
X164747000Y-90889500I0J-200000D01*
G01*
X164747000Y-91439500D01*
G75*
G02*
X164547000Y-91639500I-200000J0D01*
G01*
X164147000Y-91639500D01*
G75*
G02*
X163947000Y-91439500I0J200000D01*
G01*
G37*
G36*
G01*
X169191000Y-90889500D02*
X169191000Y-91439500D01*
G75*
G02*
X168991000Y-91639500I-200000J0D01*
G01*
X168591000Y-91639500D01*
G75*
G02*
X168391000Y-91439500I0J200000D01*
G01*
X168391000Y-90889500D01*
G75*
G02*
X168591000Y-90689500I200000J0D01*
G01*
X168991000Y-90689500D01*
G75*
G02*
X169191000Y-90889500I0J-200000D01*
G01*
G37*
G36*
G01*
X170841000Y-90889500D02*
X170841000Y-91439500D01*
G75*
G02*
X170641000Y-91639500I-200000J0D01*
G01*
X170241000Y-91639500D01*
G75*
G02*
X170041000Y-91439500I0J200000D01*
G01*
X170041000Y-90889500D01*
G75*
G02*
X170241000Y-90689500I200000J0D01*
G01*
X170641000Y-90689500D01*
G75*
G02*
X170841000Y-90889500I0J-200000D01*
G01*
G37*
G36*
G01*
X180201000Y-89280500D02*
X180201000Y-88730500D01*
G75*
G02*
X180401000Y-88530500I200000J0D01*
G01*
X180801000Y-88530500D01*
G75*
G02*
X181001000Y-88730500I0J-200000D01*
G01*
X181001000Y-89280500D01*
G75*
G02*
X180801000Y-89480500I-200000J0D01*
G01*
X180401000Y-89480500D01*
G75*
G02*
X180201000Y-89280500I0J200000D01*
G01*
G37*
G36*
G01*
X178551000Y-89280500D02*
X178551000Y-88730500D01*
G75*
G02*
X178751000Y-88530500I200000J0D01*
G01*
X179151000Y-88530500D01*
G75*
G02*
X179351000Y-88730500I0J-200000D01*
G01*
X179351000Y-89280500D01*
G75*
G02*
X179151000Y-89480500I-200000J0D01*
G01*
X178751000Y-89480500D01*
G75*
G02*
X178551000Y-89280500I0J200000D01*
G01*
G37*
G36*
G01*
X165660000Y-67881000D02*
X165660000Y-67331000D01*
G75*
G02*
X165860000Y-67131000I200000J0D01*
G01*
X166260000Y-67131000D01*
G75*
G02*
X166460000Y-67331000I0J-200000D01*
G01*
X166460000Y-67881000D01*
G75*
G02*
X166260000Y-68081000I-200000J0D01*
G01*
X165860000Y-68081000D01*
G75*
G02*
X165660000Y-67881000I0J200000D01*
G01*
G37*
G36*
G01*
X164010000Y-67881000D02*
X164010000Y-67331000D01*
G75*
G02*
X164210000Y-67131000I200000J0D01*
G01*
X164610000Y-67131000D01*
G75*
G02*
X164810000Y-67331000I0J-200000D01*
G01*
X164810000Y-67881000D01*
G75*
G02*
X164610000Y-68081000I-200000J0D01*
G01*
X164210000Y-68081000D01*
G75*
G02*
X164010000Y-67881000I0J200000D01*
G01*
G37*
G36*
G01*
X164810000Y-69553500D02*
X164810000Y-70103500D01*
G75*
G02*
X164610000Y-70303500I-200000J0D01*
G01*
X164210000Y-70303500D01*
G75*
G02*
X164010000Y-70103500I0J200000D01*
G01*
X164010000Y-69553500D01*
G75*
G02*
X164210000Y-69353500I200000J0D01*
G01*
X164610000Y-69353500D01*
G75*
G02*
X164810000Y-69553500I0J-200000D01*
G01*
G37*
G36*
G01*
X166460000Y-69553500D02*
X166460000Y-70103500D01*
G75*
G02*
X166260000Y-70303500I-200000J0D01*
G01*
X165860000Y-70303500D01*
G75*
G02*
X165660000Y-70103500I0J200000D01*
G01*
X165660000Y-69553500D01*
G75*
G02*
X165860000Y-69353500I200000J0D01*
G01*
X166260000Y-69353500D01*
G75*
G02*
X166460000Y-69553500I0J-200000D01*
G01*
G37*
G36*
G01*
X148706000Y-67881000D02*
X148706000Y-67331000D01*
G75*
G02*
X148906000Y-67131000I200000J0D01*
G01*
X149306000Y-67131000D01*
G75*
G02*
X149506000Y-67331000I0J-200000D01*
G01*
X149506000Y-67881000D01*
G75*
G02*
X149306000Y-68081000I-200000J0D01*
G01*
X148906000Y-68081000D01*
G75*
G02*
X148706000Y-67881000I0J200000D01*
G01*
G37*
G36*
G01*
X147056000Y-67881000D02*
X147056000Y-67331000D01*
G75*
G02*
X147256000Y-67131000I200000J0D01*
G01*
X147656000Y-67131000D01*
G75*
G02*
X147856000Y-67331000I0J-200000D01*
G01*
X147856000Y-67881000D01*
G75*
G02*
X147656000Y-68081000I-200000J0D01*
G01*
X147256000Y-68081000D01*
G75*
G02*
X147056000Y-67881000I0J200000D01*
G01*
G37*
G36*
G01*
X169191000Y-80475500D02*
X169191000Y-81025500D01*
G75*
G02*
X168991000Y-81225500I-200000J0D01*
G01*
X168591000Y-81225500D01*
G75*
G02*
X168391000Y-81025500I0J200000D01*
G01*
X168391000Y-80475500D01*
G75*
G02*
X168591000Y-80275500I200000J0D01*
G01*
X168991000Y-80275500D01*
G75*
G02*
X169191000Y-80475500I0J-200000D01*
G01*
G37*
G36*
G01*
X170841000Y-80475500D02*
X170841000Y-81025500D01*
G75*
G02*
X170641000Y-81225500I-200000J0D01*
G01*
X170241000Y-81225500D01*
G75*
G02*
X170041000Y-81025500I0J200000D01*
G01*
X170041000Y-80475500D01*
G75*
G02*
X170241000Y-80275500I200000J0D01*
G01*
X170641000Y-80275500D01*
G75*
G02*
X170841000Y-80475500I0J-200000D01*
G01*
G37*
G36*
G01*
X165597000Y-81025500D02*
X165597000Y-80475500D01*
G75*
G02*
X165797000Y-80275500I200000J0D01*
G01*
X166197000Y-80275500D01*
G75*
G02*
X166397000Y-80475500I0J-200000D01*
G01*
X166397000Y-81025500D01*
G75*
G02*
X166197000Y-81225500I-200000J0D01*
G01*
X165797000Y-81225500D01*
G75*
G02*
X165597000Y-81025500I0J200000D01*
G01*
G37*
G36*
G01*
X163947000Y-81025500D02*
X163947000Y-80475500D01*
G75*
G02*
X164147000Y-80275500I200000J0D01*
G01*
X164547000Y-80275500D01*
G75*
G02*
X164747000Y-80475500I0J-200000D01*
G01*
X164747000Y-81025500D01*
G75*
G02*
X164547000Y-81225500I-200000J0D01*
G01*
X164147000Y-81225500D01*
G75*
G02*
X163947000Y-81025500I0J200000D01*
G01*
G37*
G36*
G01*
X169191000Y-73871500D02*
X169191000Y-74421500D01*
G75*
G02*
X168991000Y-74621500I-200000J0D01*
G01*
X168591000Y-74621500D01*
G75*
G02*
X168391000Y-74421500I0J200000D01*
G01*
X168391000Y-73871500D01*
G75*
G02*
X168591000Y-73671500I200000J0D01*
G01*
X168991000Y-73671500D01*
G75*
G02*
X169191000Y-73871500I0J-200000D01*
G01*
G37*
G36*
G01*
X170841000Y-73871500D02*
X170841000Y-74421500D01*
G75*
G02*
X170641000Y-74621500I-200000J0D01*
G01*
X170241000Y-74621500D01*
G75*
G02*
X170041000Y-74421500I0J200000D01*
G01*
X170041000Y-73871500D01*
G75*
G02*
X170241000Y-73671500I200000J0D01*
G01*
X170641000Y-73671500D01*
G75*
G02*
X170841000Y-73871500I0J-200000D01*
G01*
G37*
G36*
G01*
X170041000Y-72262500D02*
X170041000Y-71712500D01*
G75*
G02*
X170241000Y-71512500I200000J0D01*
G01*
X170641000Y-71512500D01*
G75*
G02*
X170841000Y-71712500I0J-200000D01*
G01*
X170841000Y-72262500D01*
G75*
G02*
X170641000Y-72462500I-200000J0D01*
G01*
X170241000Y-72462500D01*
G75*
G02*
X170041000Y-72262500I0J200000D01*
G01*
G37*
G36*
G01*
X168391000Y-72262500D02*
X168391000Y-71712500D01*
G75*
G02*
X168591000Y-71512500I200000J0D01*
G01*
X168991000Y-71512500D01*
G75*
G02*
X169191000Y-71712500I0J-200000D01*
G01*
X169191000Y-72262500D01*
G75*
G02*
X168991000Y-72462500I-200000J0D01*
G01*
X168591000Y-72462500D01*
G75*
G02*
X168391000Y-72262500I0J200000D01*
G01*
G37*
G36*
G01*
X170041000Y-70103500D02*
X170041000Y-69553500D01*
G75*
G02*
X170241000Y-69353500I200000J0D01*
G01*
X170641000Y-69353500D01*
G75*
G02*
X170841000Y-69553500I0J-200000D01*
G01*
X170841000Y-70103500D01*
G75*
G02*
X170641000Y-70303500I-200000J0D01*
G01*
X170241000Y-70303500D01*
G75*
G02*
X170041000Y-70103500I0J200000D01*
G01*
G37*
G36*
G01*
X168391000Y-70103500D02*
X168391000Y-69553500D01*
G75*
G02*
X168591000Y-69353500I200000J0D01*
G01*
X168991000Y-69353500D01*
G75*
G02*
X169191000Y-69553500I0J-200000D01*
G01*
X169191000Y-70103500D01*
G75*
G02*
X168991000Y-70303500I-200000J0D01*
G01*
X168591000Y-70303500D01*
G75*
G02*
X168391000Y-70103500I0J200000D01*
G01*
G37*
G36*
G01*
X178551000Y-81025500D02*
X178551000Y-80475500D01*
G75*
G02*
X178751000Y-80275500I200000J0D01*
G01*
X179151000Y-80275500D01*
G75*
G02*
X179351000Y-80475500I0J-200000D01*
G01*
X179351000Y-81025500D01*
G75*
G02*
X179151000Y-81225500I-200000J0D01*
G01*
X178751000Y-81225500D01*
G75*
G02*
X178551000Y-81025500I0J200000D01*
G01*
G37*
G36*
G01*
X180201000Y-81025500D02*
X180201000Y-80475500D01*
G75*
G02*
X180401000Y-80275500I200000J0D01*
G01*
X180801000Y-80275500D01*
G75*
G02*
X181001000Y-80475500I0J-200000D01*
G01*
X181001000Y-81025500D01*
G75*
G02*
X180801000Y-81225500I-200000J0D01*
G01*
X180401000Y-81225500D01*
G75*
G02*
X180201000Y-81025500I0J200000D01*
G01*
G37*
G36*
G01*
X156453000Y-76644000D02*
X156453000Y-76094000D01*
G75*
G02*
X156653000Y-75894000I200000J0D01*
G01*
X157053000Y-75894000D01*
G75*
G02*
X157253000Y-76094000I0J-200000D01*
G01*
X157253000Y-76644000D01*
G75*
G02*
X157053000Y-76844000I-200000J0D01*
G01*
X156653000Y-76844000D01*
G75*
G02*
X156453000Y-76644000I0J200000D01*
G01*
G37*
G36*
G01*
X154803000Y-76644000D02*
X154803000Y-76094000D01*
G75*
G02*
X155003000Y-75894000I200000J0D01*
G01*
X155403000Y-75894000D01*
G75*
G02*
X155603000Y-76094000I0J-200000D01*
G01*
X155603000Y-76644000D01*
G75*
G02*
X155403000Y-76844000I-200000J0D01*
G01*
X155003000Y-76844000D01*
G75*
G02*
X154803000Y-76644000I0J200000D01*
G01*
G37*
G36*
G01*
X165597000Y-76707500D02*
X165597000Y-76157500D01*
G75*
G02*
X165797000Y-75957500I200000J0D01*
G01*
X166197000Y-75957500D01*
G75*
G02*
X166397000Y-76157500I0J-200000D01*
G01*
X166397000Y-76707500D01*
G75*
G02*
X166197000Y-76907500I-200000J0D01*
G01*
X165797000Y-76907500D01*
G75*
G02*
X165597000Y-76707500I0J200000D01*
G01*
G37*
G36*
G01*
X163947000Y-76707500D02*
X163947000Y-76157500D01*
G75*
G02*
X164147000Y-75957500I200000J0D01*
G01*
X164547000Y-75957500D01*
G75*
G02*
X164747000Y-76157500I0J-200000D01*
G01*
X164747000Y-76707500D01*
G75*
G02*
X164547000Y-76907500I-200000J0D01*
G01*
X164147000Y-76907500D01*
G75*
G02*
X163947000Y-76707500I0J200000D01*
G01*
G37*
G36*
G01*
X161151000Y-76644000D02*
X161151000Y-76094000D01*
G75*
G02*
X161351000Y-75894000I200000J0D01*
G01*
X161751000Y-75894000D01*
G75*
G02*
X161951000Y-76094000I0J-200000D01*
G01*
X161951000Y-76644000D01*
G75*
G02*
X161751000Y-76844000I-200000J0D01*
G01*
X161351000Y-76844000D01*
G75*
G02*
X161151000Y-76644000I0J200000D01*
G01*
G37*
G36*
G01*
X159501000Y-76644000D02*
X159501000Y-76094000D01*
G75*
G02*
X159701000Y-75894000I200000J0D01*
G01*
X160101000Y-75894000D01*
G75*
G02*
X160301000Y-76094000I0J-200000D01*
G01*
X160301000Y-76644000D01*
G75*
G02*
X160101000Y-76844000I-200000J0D01*
G01*
X159701000Y-76844000D01*
G75*
G02*
X159501000Y-76644000I0J200000D01*
G01*
G37*
G36*
G01*
X175033500Y-69553500D02*
X175033500Y-70103500D01*
G75*
G02*
X174833500Y-70303500I-200000J0D01*
G01*
X174433500Y-70303500D01*
G75*
G02*
X174233500Y-70103500I0J200000D01*
G01*
X174233500Y-69553500D01*
G75*
G02*
X174433500Y-69353500I200000J0D01*
G01*
X174833500Y-69353500D01*
G75*
G02*
X175033500Y-69553500I0J-200000D01*
G01*
G37*
G36*
G01*
X176683500Y-69553500D02*
X176683500Y-70103500D01*
G75*
G02*
X176483500Y-70303500I-200000J0D01*
G01*
X176083500Y-70303500D01*
G75*
G02*
X175883500Y-70103500I0J200000D01*
G01*
X175883500Y-69553500D01*
G75*
G02*
X176083500Y-69353500I200000J0D01*
G01*
X176483500Y-69353500D01*
G75*
G02*
X176683500Y-69553500I0J-200000D01*
G01*
G37*
G36*
G01*
X169191000Y-67331000D02*
X169191000Y-67881000D01*
G75*
G02*
X168991000Y-68081000I-200000J0D01*
G01*
X168591000Y-68081000D01*
G75*
G02*
X168391000Y-67881000I0J200000D01*
G01*
X168391000Y-67331000D01*
G75*
G02*
X168591000Y-67131000I200000J0D01*
G01*
X168991000Y-67131000D01*
G75*
G02*
X169191000Y-67331000I0J-200000D01*
G01*
G37*
G36*
G01*
X170841000Y-67331000D02*
X170841000Y-67881000D01*
G75*
G02*
X170641000Y-68081000I-200000J0D01*
G01*
X170241000Y-68081000D01*
G75*
G02*
X170041000Y-67881000I0J200000D01*
G01*
X170041000Y-67331000D01*
G75*
G02*
X170241000Y-67131000I200000J0D01*
G01*
X170641000Y-67131000D01*
G75*
G02*
X170841000Y-67331000I0J-200000D01*
G01*
G37*
G36*
G01*
X146903000Y-101177000D02*
X146903000Y-101727000D01*
G75*
G02*
X146703000Y-101927000I-200000J0D01*
G01*
X146303000Y-101927000D01*
G75*
G02*
X146103000Y-101727000I0J200000D01*
G01*
X146103000Y-101177000D01*
G75*
G02*
X146303000Y-100977000I200000J0D01*
G01*
X146703000Y-100977000D01*
G75*
G02*
X146903000Y-101177000I0J-200000D01*
G01*
G37*
G36*
G01*
X148553000Y-101177000D02*
X148553000Y-101727000D01*
G75*
G02*
X148353000Y-101927000I-200000J0D01*
G01*
X147953000Y-101927000D01*
G75*
G02*
X147753000Y-101727000I0J200000D01*
G01*
X147753000Y-101177000D01*
G75*
G02*
X147953000Y-100977000I200000J0D01*
G01*
X148353000Y-100977000D01*
G75*
G02*
X148553000Y-101177000I0J-200000D01*
G01*
G37*
G36*
G01*
X128299000Y-102360000D02*
X127749000Y-102360000D01*
G75*
G02*
X127549000Y-102160000I0J200000D01*
G01*
X127549000Y-101760000D01*
G75*
G02*
X127749000Y-101560000I200000J0D01*
G01*
X128299000Y-101560000D01*
G75*
G02*
X128499000Y-101760000I0J-200000D01*
G01*
X128499000Y-102160000D01*
G75*
G02*
X128299000Y-102360000I-200000J0D01*
G01*
G37*
G36*
G01*
X128299000Y-104010000D02*
X127749000Y-104010000D01*
G75*
G02*
X127549000Y-103810000I0J200000D01*
G01*
X127549000Y-103410000D01*
G75*
G02*
X127749000Y-103210000I200000J0D01*
G01*
X128299000Y-103210000D01*
G75*
G02*
X128499000Y-103410000I0J-200000D01*
G01*
X128499000Y-103810000D01*
G75*
G02*
X128299000Y-104010000I-200000J0D01*
G01*
G37*
G36*
G01*
X128299000Y-106107000D02*
X127749000Y-106107000D01*
G75*
G02*
X127549000Y-105907000I0J200000D01*
G01*
X127549000Y-105507000D01*
G75*
G02*
X127749000Y-105307000I200000J0D01*
G01*
X128299000Y-105307000D01*
G75*
G02*
X128499000Y-105507000I0J-200000D01*
G01*
X128499000Y-105907000D01*
G75*
G02*
X128299000Y-106107000I-200000J0D01*
G01*
G37*
G36*
G01*
X128299000Y-107757000D02*
X127749000Y-107757000D01*
G75*
G02*
X127549000Y-107557000I0J200000D01*
G01*
X127549000Y-107157000D01*
G75*
G02*
X127749000Y-106957000I200000J0D01*
G01*
X128299000Y-106957000D01*
G75*
G02*
X128499000Y-107157000I0J-200000D01*
G01*
X128499000Y-107557000D01*
G75*
G02*
X128299000Y-107757000I-200000J0D01*
G01*
G37*
G36*
G01*
X143729000Y-102360000D02*
X143179000Y-102360000D01*
G75*
G02*
X142979000Y-102160000I0J200000D01*
G01*
X142979000Y-101760000D01*
G75*
G02*
X143179000Y-101560000I200000J0D01*
G01*
X143729000Y-101560000D01*
G75*
G02*
X143929000Y-101760000I0J-200000D01*
G01*
X143929000Y-102160000D01*
G75*
G02*
X143729000Y-102360000I-200000J0D01*
G01*
G37*
G36*
G01*
X143729000Y-104010000D02*
X143179000Y-104010000D01*
G75*
G02*
X142979000Y-103810000I0J200000D01*
G01*
X142979000Y-103410000D01*
G75*
G02*
X143179000Y-103210000I200000J0D01*
G01*
X143729000Y-103210000D01*
G75*
G02*
X143929000Y-103410000I0J-200000D01*
G01*
X143929000Y-103810000D01*
G75*
G02*
X143729000Y-104010000I-200000J0D01*
G01*
G37*
G36*
G01*
X180201000Y-78866500D02*
X180201000Y-78316500D01*
G75*
G02*
X180401000Y-78116500I200000J0D01*
G01*
X180801000Y-78116500D01*
G75*
G02*
X181001000Y-78316500I0J-200000D01*
G01*
X181001000Y-78866500D01*
G75*
G02*
X180801000Y-79066500I-200000J0D01*
G01*
X180401000Y-79066500D01*
G75*
G02*
X180201000Y-78866500I0J200000D01*
G01*
G37*
G36*
G01*
X178551000Y-78866500D02*
X178551000Y-78316500D01*
G75*
G02*
X178751000Y-78116500I200000J0D01*
G01*
X179151000Y-78116500D01*
G75*
G02*
X179351000Y-78316500I0J-200000D01*
G01*
X179351000Y-78866500D01*
G75*
G02*
X179151000Y-79066500I-200000J0D01*
G01*
X178751000Y-79066500D01*
G75*
G02*
X178551000Y-78866500I0J200000D01*
G01*
G37*
G36*
G01*
X179415000Y-69553500D02*
X179415000Y-70103500D01*
G75*
G02*
X179215000Y-70303500I-200000J0D01*
G01*
X178815000Y-70303500D01*
G75*
G02*
X178615000Y-70103500I0J200000D01*
G01*
X178615000Y-69553500D01*
G75*
G02*
X178815000Y-69353500I200000J0D01*
G01*
X179215000Y-69353500D01*
G75*
G02*
X179415000Y-69553500I0J-200000D01*
G01*
G37*
G36*
G01*
X181065000Y-69553500D02*
X181065000Y-70103500D01*
G75*
G02*
X180865000Y-70303500I-200000J0D01*
G01*
X180465000Y-70303500D01*
G75*
G02*
X180265000Y-70103500I0J200000D01*
G01*
X180265000Y-69553500D01*
G75*
G02*
X180465000Y-69353500I200000J0D01*
G01*
X180865000Y-69353500D01*
G75*
G02*
X181065000Y-69553500I0J-200000D01*
G01*
G37*
G36*
G01*
X175033000Y-67331000D02*
X175033000Y-67881000D01*
G75*
G02*
X174833000Y-68081000I-200000J0D01*
G01*
X174433000Y-68081000D01*
G75*
G02*
X174233000Y-67881000I0J200000D01*
G01*
X174233000Y-67331000D01*
G75*
G02*
X174433000Y-67131000I200000J0D01*
G01*
X174833000Y-67131000D01*
G75*
G02*
X175033000Y-67331000I0J-200000D01*
G01*
G37*
G36*
G01*
X176683000Y-67331000D02*
X176683000Y-67881000D01*
G75*
G02*
X176483000Y-68081000I-200000J0D01*
G01*
X176083000Y-68081000D01*
G75*
G02*
X175883000Y-67881000I0J200000D01*
G01*
X175883000Y-67331000D01*
G75*
G02*
X176083000Y-67131000I200000J0D01*
G01*
X176483000Y-67131000D01*
G75*
G02*
X176683000Y-67331000I0J-200000D01*
G01*
G37*
G36*
G01*
X96415000Y-66895000D02*
X95865000Y-66895000D01*
G75*
G02*
X95665000Y-66695000I0J200000D01*
G01*
X95665000Y-66295000D01*
G75*
G02*
X95865000Y-66095000I200000J0D01*
G01*
X96415000Y-66095000D01*
G75*
G02*
X96615000Y-66295000I0J-200000D01*
G01*
X96615000Y-66695000D01*
G75*
G02*
X96415000Y-66895000I-200000J0D01*
G01*
G37*
G36*
G01*
X96415000Y-68545000D02*
X95865000Y-68545000D01*
G75*
G02*
X95665000Y-68345000I0J200000D01*
G01*
X95665000Y-67945000D01*
G75*
G02*
X95865000Y-67745000I200000J0D01*
G01*
X96415000Y-67745000D01*
G75*
G02*
X96615000Y-67945000I0J-200000D01*
G01*
X96615000Y-68345000D01*
G75*
G02*
X96415000Y-68545000I-200000J0D01*
G01*
G37*
G36*
G01*
X107556000Y-83017000D02*
X108106000Y-83017000D01*
G75*
G02*
X108306000Y-83217000I0J-200000D01*
G01*
X108306000Y-83617000D01*
G75*
G02*
X108106000Y-83817000I-200000J0D01*
G01*
X107556000Y-83817000D01*
G75*
G02*
X107356000Y-83617000I0J200000D01*
G01*
X107356000Y-83217000D01*
G75*
G02*
X107556000Y-83017000I200000J0D01*
G01*
G37*
G36*
G01*
X107556000Y-81367000D02*
X108106000Y-81367000D01*
G75*
G02*
X108306000Y-81567000I0J-200000D01*
G01*
X108306000Y-81967000D01*
G75*
G02*
X108106000Y-82167000I-200000J0D01*
G01*
X107556000Y-82167000D01*
G75*
G02*
X107356000Y-81967000I0J200000D01*
G01*
X107356000Y-81567000D01*
G75*
G02*
X107556000Y-81367000I200000J0D01*
G01*
G37*
G36*
G01*
X105397000Y-83017000D02*
X105947000Y-83017000D01*
G75*
G02*
X106147000Y-83217000I0J-200000D01*
G01*
X106147000Y-83617000D01*
G75*
G02*
X105947000Y-83817000I-200000J0D01*
G01*
X105397000Y-83817000D01*
G75*
G02*
X105197000Y-83617000I0J200000D01*
G01*
X105197000Y-83217000D01*
G75*
G02*
X105397000Y-83017000I200000J0D01*
G01*
G37*
G36*
G01*
X105397000Y-81367000D02*
X105947000Y-81367000D01*
G75*
G02*
X106147000Y-81567000I0J-200000D01*
G01*
X106147000Y-81967000D01*
G75*
G02*
X105947000Y-82167000I-200000J0D01*
G01*
X105397000Y-82167000D01*
G75*
G02*
X105197000Y-81967000I0J200000D01*
G01*
X105197000Y-81567000D01*
G75*
G02*
X105397000Y-81367000I200000J0D01*
G01*
G37*
G36*
G01*
X128299000Y-109917000D02*
X127749000Y-109917000D01*
G75*
G02*
X127549000Y-109717000I0J200000D01*
G01*
X127549000Y-109317000D01*
G75*
G02*
X127749000Y-109117000I200000J0D01*
G01*
X128299000Y-109117000D01*
G75*
G02*
X128499000Y-109317000I0J-200000D01*
G01*
X128499000Y-109717000D01*
G75*
G02*
X128299000Y-109917000I-200000J0D01*
G01*
G37*
G36*
G01*
X128299000Y-111567000D02*
X127749000Y-111567000D01*
G75*
G02*
X127549000Y-111367000I0J200000D01*
G01*
X127549000Y-110967000D01*
G75*
G02*
X127749000Y-110767000I200000J0D01*
G01*
X128299000Y-110767000D01*
G75*
G02*
X128499000Y-110967000I0J-200000D01*
G01*
X128499000Y-111367000D01*
G75*
G02*
X128299000Y-111567000I-200000J0D01*
G01*
G37*
G36*
G01*
X106773000Y-69213000D02*
X106223000Y-69213000D01*
G75*
G02*
X106023000Y-69013000I0J200000D01*
G01*
X106023000Y-68613000D01*
G75*
G02*
X106223000Y-68413000I200000J0D01*
G01*
X106773000Y-68413000D01*
G75*
G02*
X106973000Y-68613000I0J-200000D01*
G01*
X106973000Y-69013000D01*
G75*
G02*
X106773000Y-69213000I-200000J0D01*
G01*
G37*
G36*
G01*
X106773000Y-70863000D02*
X106223000Y-70863000D01*
G75*
G02*
X106023000Y-70663000I0J200000D01*
G01*
X106023000Y-70263000D01*
G75*
G02*
X106223000Y-70063000I200000J0D01*
G01*
X106773000Y-70063000D01*
G75*
G02*
X106973000Y-70263000I0J-200000D01*
G01*
X106973000Y-70663000D01*
G75*
G02*
X106773000Y-70863000I-200000J0D01*
G01*
G37*
G36*
G01*
X97311000Y-82167000D02*
X96761000Y-82167000D01*
G75*
G02*
X96561000Y-81967000I0J200000D01*
G01*
X96561000Y-81567000D01*
G75*
G02*
X96761000Y-81367000I200000J0D01*
G01*
X97311000Y-81367000D01*
G75*
G02*
X97511000Y-81567000I0J-200000D01*
G01*
X97511000Y-81967000D01*
G75*
G02*
X97311000Y-82167000I-200000J0D01*
G01*
G37*
G36*
G01*
X97311000Y-83817000D02*
X96761000Y-83817000D01*
G75*
G02*
X96561000Y-83617000I0J200000D01*
G01*
X96561000Y-83217000D01*
G75*
G02*
X96761000Y-83017000I200000J0D01*
G01*
X97311000Y-83017000D01*
G75*
G02*
X97511000Y-83217000I0J-200000D01*
G01*
X97511000Y-83617000D01*
G75*
G02*
X97311000Y-83817000I-200000J0D01*
G01*
G37*
G36*
G01*
X95152000Y-82167000D02*
X94602000Y-82167000D01*
G75*
G02*
X94402000Y-81967000I0J200000D01*
G01*
X94402000Y-81567000D01*
G75*
G02*
X94602000Y-81367000I200000J0D01*
G01*
X95152000Y-81367000D01*
G75*
G02*
X95352000Y-81567000I0J-200000D01*
G01*
X95352000Y-81967000D01*
G75*
G02*
X95152000Y-82167000I-200000J0D01*
G01*
G37*
G36*
G01*
X95152000Y-83817000D02*
X94602000Y-83817000D01*
G75*
G02*
X94402000Y-83617000I0J200000D01*
G01*
X94402000Y-83217000D01*
G75*
G02*
X94602000Y-83017000I200000J0D01*
G01*
X95152000Y-83017000D01*
G75*
G02*
X95352000Y-83217000I0J-200000D01*
G01*
X95352000Y-83617000D01*
G75*
G02*
X95152000Y-83817000I-200000J0D01*
G01*
G37*
G36*
G01*
X104063000Y-70063000D02*
X104613000Y-70063000D01*
G75*
G02*
X104813000Y-70263000I0J-200000D01*
G01*
X104813000Y-70663000D01*
G75*
G02*
X104613000Y-70863000I-200000J0D01*
G01*
X104063000Y-70863000D01*
G75*
G02*
X103863000Y-70663000I0J200000D01*
G01*
X103863000Y-70263000D01*
G75*
G02*
X104063000Y-70063000I200000J0D01*
G01*
G37*
G36*
G01*
X104063000Y-68413000D02*
X104613000Y-68413000D01*
G75*
G02*
X104813000Y-68613000I0J-200000D01*
G01*
X104813000Y-69013000D01*
G75*
G02*
X104613000Y-69213000I-200000J0D01*
G01*
X104063000Y-69213000D01*
G75*
G02*
X103863000Y-69013000I0J200000D01*
G01*
X103863000Y-68613000D01*
G75*
G02*
X104063000Y-68413000I200000J0D01*
G01*
G37*
G36*
G01*
X102455000Y-69213000D02*
X101905000Y-69213000D01*
G75*
G02*
X101705000Y-69013000I0J200000D01*
G01*
X101705000Y-68613000D01*
G75*
G02*
X101905000Y-68413000I200000J0D01*
G01*
X102455000Y-68413000D01*
G75*
G02*
X102655000Y-68613000I0J-200000D01*
G01*
X102655000Y-69013000D01*
G75*
G02*
X102455000Y-69213000I-200000J0D01*
G01*
G37*
G36*
G01*
X102455000Y-70863000D02*
X101905000Y-70863000D01*
G75*
G02*
X101705000Y-70663000I0J200000D01*
G01*
X101705000Y-70263000D01*
G75*
G02*
X101905000Y-70063000I200000J0D01*
G01*
X102455000Y-70063000D01*
G75*
G02*
X102655000Y-70263000I0J-200000D01*
G01*
X102655000Y-70663000D01*
G75*
G02*
X102455000Y-70863000I-200000J0D01*
G01*
G37*
G36*
G01*
X112359000Y-110829000D02*
X112359000Y-111379000D01*
G75*
G02*
X112159000Y-111579000I-200000J0D01*
G01*
X111759000Y-111579000D01*
G75*
G02*
X111559000Y-111379000I0J200000D01*
G01*
X111559000Y-110829000D01*
G75*
G02*
X111759000Y-110629000I200000J0D01*
G01*
X112159000Y-110629000D01*
G75*
G02*
X112359000Y-110829000I0J-200000D01*
G01*
G37*
G36*
G01*
X114009000Y-110829000D02*
X114009000Y-111379000D01*
G75*
G02*
X113809000Y-111579000I-200000J0D01*
G01*
X113409000Y-111579000D01*
G75*
G02*
X113209000Y-111379000I0J200000D01*
G01*
X113209000Y-110829000D01*
G75*
G02*
X113409000Y-110629000I200000J0D01*
G01*
X113809000Y-110629000D01*
G75*
G02*
X114009000Y-110829000I0J-200000D01*
G01*
G37*
G36*
G01*
X120765000Y-111379000D02*
X120765000Y-110829000D01*
G75*
G02*
X120965000Y-110629000I200000J0D01*
G01*
X121365000Y-110629000D01*
G75*
G02*
X121565000Y-110829000I0J-200000D01*
G01*
X121565000Y-111379000D01*
G75*
G02*
X121365000Y-111579000I-200000J0D01*
G01*
X120965000Y-111579000D01*
G75*
G02*
X120765000Y-111379000I0J200000D01*
G01*
G37*
G36*
G01*
X119115000Y-111379000D02*
X119115000Y-110829000D01*
G75*
G02*
X119315000Y-110629000I200000J0D01*
G01*
X119715000Y-110629000D01*
G75*
G02*
X119915000Y-110829000I0J-200000D01*
G01*
X119915000Y-111379000D01*
G75*
G02*
X119715000Y-111579000I-200000J0D01*
G01*
X119315000Y-111579000D01*
G75*
G02*
X119115000Y-111379000I0J200000D01*
G01*
G37*
G36*
G01*
X117019000Y-102489000D02*
X117019000Y-101939000D01*
G75*
G02*
X117219000Y-101739000I200000J0D01*
G01*
X117619000Y-101739000D01*
G75*
G02*
X117819000Y-101939000I0J-200000D01*
G01*
X117819000Y-102489000D01*
G75*
G02*
X117619000Y-102689000I-200000J0D01*
G01*
X117219000Y-102689000D01*
G75*
G02*
X117019000Y-102489000I0J200000D01*
G01*
G37*
G36*
G01*
X115369000Y-102489000D02*
X115369000Y-101939000D01*
G75*
G02*
X115569000Y-101739000I200000J0D01*
G01*
X115969000Y-101739000D01*
G75*
G02*
X116169000Y-101939000I0J-200000D01*
G01*
X116169000Y-102489000D01*
G75*
G02*
X115969000Y-102689000I-200000J0D01*
G01*
X115569000Y-102689000D01*
G75*
G02*
X115369000Y-102489000I0J200000D01*
G01*
G37*
G36*
G01*
X117019000Y-111378500D02*
X117019000Y-110828500D01*
G75*
G02*
X117219000Y-110628500I200000J0D01*
G01*
X117619000Y-110628500D01*
G75*
G02*
X117819000Y-110828500I0J-200000D01*
G01*
X117819000Y-111378500D01*
G75*
G02*
X117619000Y-111578500I-200000J0D01*
G01*
X117219000Y-111578500D01*
G75*
G02*
X117019000Y-111378500I0J200000D01*
G01*
G37*
G36*
G01*
X115369000Y-111378500D02*
X115369000Y-110828500D01*
G75*
G02*
X115569000Y-110628500I200000J0D01*
G01*
X115969000Y-110628500D01*
G75*
G02*
X116169000Y-110828500I0J-200000D01*
G01*
X116169000Y-111378500D01*
G75*
G02*
X115969000Y-111578500I-200000J0D01*
G01*
X115569000Y-111578500D01*
G75*
G02*
X115369000Y-111378500I0J200000D01*
G01*
G37*
G36*
G01*
X113273000Y-100329000D02*
X113273000Y-99779000D01*
G75*
G02*
X113473000Y-99579000I200000J0D01*
G01*
X113873000Y-99579000D01*
G75*
G02*
X114073000Y-99779000I0J-200000D01*
G01*
X114073000Y-100329000D01*
G75*
G02*
X113873000Y-100529000I-200000J0D01*
G01*
X113473000Y-100529000D01*
G75*
G02*
X113273000Y-100329000I0J200000D01*
G01*
G37*
G36*
G01*
X111623000Y-100329000D02*
X111623000Y-99779000D01*
G75*
G02*
X111823000Y-99579000I200000J0D01*
G01*
X112223000Y-99579000D01*
G75*
G02*
X112423000Y-99779000I0J-200000D01*
G01*
X112423000Y-100329000D01*
G75*
G02*
X112223000Y-100529000I-200000J0D01*
G01*
X111823000Y-100529000D01*
G75*
G02*
X111623000Y-100329000I0J200000D01*
G01*
G37*
G36*
G01*
X113272500Y-102488500D02*
X113272500Y-101938500D01*
G75*
G02*
X113472500Y-101738500I200000J0D01*
G01*
X113872500Y-101738500D01*
G75*
G02*
X114072500Y-101938500I0J-200000D01*
G01*
X114072500Y-102488500D01*
G75*
G02*
X113872500Y-102688500I-200000J0D01*
G01*
X113472500Y-102688500D01*
G75*
G02*
X113272500Y-102488500I0J200000D01*
G01*
G37*
G36*
G01*
X111622500Y-102488500D02*
X111622500Y-101938500D01*
G75*
G02*
X111822500Y-101738500I200000J0D01*
G01*
X112222500Y-101738500D01*
G75*
G02*
X112422500Y-101938500I0J-200000D01*
G01*
X112422500Y-102488500D01*
G75*
G02*
X112222500Y-102688500I-200000J0D01*
G01*
X111822500Y-102688500D01*
G75*
G02*
X111622500Y-102488500I0J200000D01*
G01*
G37*
G36*
G01*
X151413000Y-96899000D02*
X150863000Y-96899000D01*
G75*
G02*
X150663000Y-96699000I0J200000D01*
G01*
X150663000Y-96299000D01*
G75*
G02*
X150863000Y-96099000I200000J0D01*
G01*
X151413000Y-96099000D01*
G75*
G02*
X151613000Y-96299000I0J-200000D01*
G01*
X151613000Y-96699000D01*
G75*
G02*
X151413000Y-96899000I-200000J0D01*
G01*
G37*
G36*
G01*
X151413000Y-98549000D02*
X150863000Y-98549000D01*
G75*
G02*
X150663000Y-98349000I0J200000D01*
G01*
X150663000Y-97949000D01*
G75*
G02*
X150863000Y-97749000I200000J0D01*
G01*
X151413000Y-97749000D01*
G75*
G02*
X151613000Y-97949000I0J-200000D01*
G01*
X151613000Y-98349000D01*
G75*
G02*
X151413000Y-98549000I-200000J0D01*
G01*
G37*
G36*
G01*
X153572000Y-96899000D02*
X153022000Y-96899000D01*
G75*
G02*
X152822000Y-96699000I0J200000D01*
G01*
X152822000Y-96299000D01*
G75*
G02*
X153022000Y-96099000I200000J0D01*
G01*
X153572000Y-96099000D01*
G75*
G02*
X153772000Y-96299000I0J-200000D01*
G01*
X153772000Y-96699000D01*
G75*
G02*
X153572000Y-96899000I-200000J0D01*
G01*
G37*
G36*
G01*
X153572000Y-98549000D02*
X153022000Y-98549000D01*
G75*
G02*
X152822000Y-98349000I0J200000D01*
G01*
X152822000Y-97949000D01*
G75*
G02*
X153022000Y-97749000I200000J0D01*
G01*
X153572000Y-97749000D01*
G75*
G02*
X153772000Y-97949000I0J-200000D01*
G01*
X153772000Y-98349000D01*
G75*
G02*
X153572000Y-98549000I-200000J0D01*
G01*
G37*
G36*
G01*
X155731000Y-96899000D02*
X155181000Y-96899000D01*
G75*
G02*
X154981000Y-96699000I0J200000D01*
G01*
X154981000Y-96299000D01*
G75*
G02*
X155181000Y-96099000I200000J0D01*
G01*
X155731000Y-96099000D01*
G75*
G02*
X155931000Y-96299000I0J-200000D01*
G01*
X155931000Y-96699000D01*
G75*
G02*
X155731000Y-96899000I-200000J0D01*
G01*
G37*
G36*
G01*
X155731000Y-98549000D02*
X155181000Y-98549000D01*
G75*
G02*
X154981000Y-98349000I0J200000D01*
G01*
X154981000Y-97949000D01*
G75*
G02*
X155181000Y-97749000I200000J0D01*
G01*
X155731000Y-97749000D01*
G75*
G02*
X155931000Y-97949000I0J-200000D01*
G01*
X155931000Y-98349000D01*
G75*
G02*
X155731000Y-98549000I-200000J0D01*
G01*
G37*
G36*
G01*
X157827000Y-96899000D02*
X157277000Y-96899000D01*
G75*
G02*
X157077000Y-96699000I0J200000D01*
G01*
X157077000Y-96299000D01*
G75*
G02*
X157277000Y-96099000I200000J0D01*
G01*
X157827000Y-96099000D01*
G75*
G02*
X158027000Y-96299000I0J-200000D01*
G01*
X158027000Y-96699000D01*
G75*
G02*
X157827000Y-96899000I-200000J0D01*
G01*
G37*
G36*
G01*
X157827000Y-98549000D02*
X157277000Y-98549000D01*
G75*
G02*
X157077000Y-98349000I0J200000D01*
G01*
X157077000Y-97949000D01*
G75*
G02*
X157277000Y-97749000I200000J0D01*
G01*
X157827000Y-97749000D01*
G75*
G02*
X158027000Y-97949000I0J-200000D01*
G01*
X158027000Y-98349000D01*
G75*
G02*
X157827000Y-98549000I-200000J0D01*
G01*
G37*
G36*
G01*
X157826500Y-90739500D02*
X157276500Y-90739500D01*
G75*
G02*
X157076500Y-90539500I0J200000D01*
G01*
X157076500Y-90139500D01*
G75*
G02*
X157276500Y-89939500I200000J0D01*
G01*
X157826500Y-89939500D01*
G75*
G02*
X158026500Y-90139500I0J-200000D01*
G01*
X158026500Y-90539500D01*
G75*
G02*
X157826500Y-90739500I-200000J0D01*
G01*
G37*
G36*
G01*
X157826500Y-92389500D02*
X157276500Y-92389500D01*
G75*
G02*
X157076500Y-92189500I0J200000D01*
G01*
X157076500Y-91789500D01*
G75*
G02*
X157276500Y-91589500I200000J0D01*
G01*
X157826500Y-91589500D01*
G75*
G02*
X158026500Y-91789500I0J-200000D01*
G01*
X158026500Y-92189500D01*
G75*
G02*
X157826500Y-92389500I-200000J0D01*
G01*
G37*
G36*
G01*
X151032000Y-77341000D02*
X150482000Y-77341000D01*
G75*
G02*
X150282000Y-77141000I0J200000D01*
G01*
X150282000Y-76741000D01*
G75*
G02*
X150482000Y-76541000I200000J0D01*
G01*
X151032000Y-76541000D01*
G75*
G02*
X151232000Y-76741000I0J-200000D01*
G01*
X151232000Y-77141000D01*
G75*
G02*
X151032000Y-77341000I-200000J0D01*
G01*
G37*
G36*
G01*
X151032000Y-78991000D02*
X150482000Y-78991000D01*
G75*
G02*
X150282000Y-78791000I0J200000D01*
G01*
X150282000Y-78391000D01*
G75*
G02*
X150482000Y-78191000I200000J0D01*
G01*
X151032000Y-78191000D01*
G75*
G02*
X151232000Y-78391000I0J-200000D01*
G01*
X151232000Y-78791000D01*
G75*
G02*
X151032000Y-78991000I-200000J0D01*
G01*
G37*
G36*
G01*
X139285000Y-77341000D02*
X138735000Y-77341000D01*
G75*
G02*
X138535000Y-77141000I0J200000D01*
G01*
X138535000Y-76741000D01*
G75*
G02*
X138735000Y-76541000I200000J0D01*
G01*
X139285000Y-76541000D01*
G75*
G02*
X139485000Y-76741000I0J-200000D01*
G01*
X139485000Y-77141000D01*
G75*
G02*
X139285000Y-77341000I-200000J0D01*
G01*
G37*
G36*
G01*
X139285000Y-78991000D02*
X138735000Y-78991000D01*
G75*
G02*
X138535000Y-78791000I0J200000D01*
G01*
X138535000Y-78391000D01*
G75*
G02*
X138735000Y-78191000I200000J0D01*
G01*
X139285000Y-78191000D01*
G75*
G02*
X139485000Y-78391000I0J-200000D01*
G01*
X139485000Y-78791000D01*
G75*
G02*
X139285000Y-78991000I-200000J0D01*
G01*
G37*
G36*
G01*
X141443000Y-77341000D02*
X140893000Y-77341000D01*
G75*
G02*
X140693000Y-77141000I0J200000D01*
G01*
X140693000Y-76741000D01*
G75*
G02*
X140893000Y-76541000I200000J0D01*
G01*
X141443000Y-76541000D01*
G75*
G02*
X141643000Y-76741000I0J-200000D01*
G01*
X141643000Y-77141000D01*
G75*
G02*
X141443000Y-77341000I-200000J0D01*
G01*
G37*
G36*
G01*
X141443000Y-78991000D02*
X140893000Y-78991000D01*
G75*
G02*
X140693000Y-78791000I0J200000D01*
G01*
X140693000Y-78391000D01*
G75*
G02*
X140893000Y-78191000I200000J0D01*
G01*
X141443000Y-78191000D01*
G75*
G02*
X141643000Y-78391000I0J-200000D01*
G01*
X141643000Y-78791000D01*
G75*
G02*
X141443000Y-78991000I-200000J0D01*
G01*
G37*
G36*
G01*
X156453000Y-78803000D02*
X156453000Y-78253000D01*
G75*
G02*
X156653000Y-78053000I200000J0D01*
G01*
X157053000Y-78053000D01*
G75*
G02*
X157253000Y-78253000I0J-200000D01*
G01*
X157253000Y-78803000D01*
G75*
G02*
X157053000Y-79003000I-200000J0D01*
G01*
X156653000Y-79003000D01*
G75*
G02*
X156453000Y-78803000I0J200000D01*
G01*
G37*
G36*
G01*
X154803000Y-78803000D02*
X154803000Y-78253000D01*
G75*
G02*
X155003000Y-78053000I200000J0D01*
G01*
X155403000Y-78053000D01*
G75*
G02*
X155603000Y-78253000I0J-200000D01*
G01*
X155603000Y-78803000D01*
G75*
G02*
X155403000Y-79003000I-200000J0D01*
G01*
X155003000Y-79003000D01*
G75*
G02*
X154803000Y-78803000I0J200000D01*
G01*
G37*
G36*
G01*
X165596500Y-78866500D02*
X165596500Y-78316500D01*
G75*
G02*
X165796500Y-78116500I200000J0D01*
G01*
X166196500Y-78116500D01*
G75*
G02*
X166396500Y-78316500I0J-200000D01*
G01*
X166396500Y-78866500D01*
G75*
G02*
X166196500Y-79066500I-200000J0D01*
G01*
X165796500Y-79066500D01*
G75*
G02*
X165596500Y-78866500I0J200000D01*
G01*
G37*
G36*
G01*
X163946500Y-78866500D02*
X163946500Y-78316500D01*
G75*
G02*
X164146500Y-78116500I200000J0D01*
G01*
X164546500Y-78116500D01*
G75*
G02*
X164746500Y-78316500I0J-200000D01*
G01*
X164746500Y-78866500D01*
G75*
G02*
X164546500Y-79066500I-200000J0D01*
G01*
X164146500Y-79066500D01*
G75*
G02*
X163946500Y-78866500I0J200000D01*
G01*
G37*
G36*
G01*
X105247000Y-100986000D02*
X105247000Y-101536000D01*
G75*
G02*
X105047000Y-101736000I-200000J0D01*
G01*
X104647000Y-101736000D01*
G75*
G02*
X104447000Y-101536000I0J200000D01*
G01*
X104447000Y-100986000D01*
G75*
G02*
X104647000Y-100786000I200000J0D01*
G01*
X105047000Y-100786000D01*
G75*
G02*
X105247000Y-100986000I0J-200000D01*
G01*
G37*
G36*
G01*
X106897000Y-100986000D02*
X106897000Y-101536000D01*
G75*
G02*
X106697000Y-101736000I-200000J0D01*
G01*
X106297000Y-101736000D01*
G75*
G02*
X106097000Y-101536000I0J200000D01*
G01*
X106097000Y-100986000D01*
G75*
G02*
X106297000Y-100786000I200000J0D01*
G01*
X106697000Y-100786000D01*
G75*
G02*
X106897000Y-100986000I0J-200000D01*
G01*
G37*
G36*
G01*
X105247000Y-103145000D02*
X105247000Y-103695000D01*
G75*
G02*
X105047000Y-103895000I-200000J0D01*
G01*
X104647000Y-103895000D01*
G75*
G02*
X104447000Y-103695000I0J200000D01*
G01*
X104447000Y-103145000D01*
G75*
G02*
X104647000Y-102945000I200000J0D01*
G01*
X105047000Y-102945000D01*
G75*
G02*
X105247000Y-103145000I0J-200000D01*
G01*
G37*
G36*
G01*
X106897000Y-103145000D02*
X106897000Y-103695000D01*
G75*
G02*
X106697000Y-103895000I-200000J0D01*
G01*
X106297000Y-103895000D01*
G75*
G02*
X106097000Y-103695000I0J200000D01*
G01*
X106097000Y-103145000D01*
G75*
G02*
X106297000Y-102945000I200000J0D01*
G01*
X106697000Y-102945000D01*
G75*
G02*
X106897000Y-103145000I0J-200000D01*
G01*
G37*
G36*
G01*
X96010000Y-78380000D02*
X97010000Y-78380000D01*
G75*
G02*
X97085000Y-78455000I0J-75000D01*
G01*
X97085000Y-78605000D01*
G75*
G02*
X97010000Y-78680000I-75000J0D01*
G01*
X96010000Y-78680000D01*
G75*
G02*
X95935000Y-78605000I0J75000D01*
G01*
X95935000Y-78455000D01*
G75*
G02*
X96010000Y-78380000I75000J0D01*
G01*
G37*
G36*
G01*
X96010000Y-77580000D02*
X97010000Y-77580000D01*
G75*
G02*
X97085000Y-77655000I0J-75000D01*
G01*
X97085000Y-77805000D01*
G75*
G02*
X97010000Y-77880000I-75000J0D01*
G01*
X96010000Y-77880000D01*
G75*
G02*
X95935000Y-77805000I0J75000D01*
G01*
X95935000Y-77655000D01*
G75*
G02*
X96010000Y-77580000I75000J0D01*
G01*
G37*
G36*
G01*
X96010000Y-77080000D02*
X97010000Y-77080000D01*
G75*
G02*
X97085000Y-77155000I0J-75000D01*
G01*
X97085000Y-77305000D01*
G75*
G02*
X97010000Y-77380000I-75000J0D01*
G01*
X96010000Y-77380000D01*
G75*
G02*
X95935000Y-77305000I0J75000D01*
G01*
X95935000Y-77155000D01*
G75*
G02*
X96010000Y-77080000I75000J0D01*
G01*
G37*
G36*
G01*
X96010000Y-76580000D02*
X97010000Y-76580000D01*
G75*
G02*
X97085000Y-76655000I0J-75000D01*
G01*
X97085000Y-76805000D01*
G75*
G02*
X97010000Y-76880000I-75000J0D01*
G01*
X96010000Y-76880000D01*
G75*
G02*
X95935000Y-76805000I0J75000D01*
G01*
X95935000Y-76655000D01*
G75*
G02*
X96010000Y-76580000I75000J0D01*
G01*
G37*
G36*
G01*
X96010000Y-76080000D02*
X97010000Y-76080000D01*
G75*
G02*
X97085000Y-76155000I0J-75000D01*
G01*
X97085000Y-76305000D01*
G75*
G02*
X97010000Y-76380000I-75000J0D01*
G01*
X96010000Y-76380000D01*
G75*
G02*
X95935000Y-76305000I0J75000D01*
G01*
X95935000Y-76155000D01*
G75*
G02*
X96010000Y-76080000I75000J0D01*
G01*
G37*
G36*
G01*
X96010000Y-75580000D02*
X97010000Y-75580000D01*
G75*
G02*
X97085000Y-75655000I0J-75000D01*
G01*
X97085000Y-75805000D01*
G75*
G02*
X97010000Y-75880000I-75000J0D01*
G01*
X96010000Y-75880000D01*
G75*
G02*
X95935000Y-75805000I0J75000D01*
G01*
X95935000Y-75655000D01*
G75*
G02*
X96010000Y-75580000I75000J0D01*
G01*
G37*
G36*
G01*
X96010000Y-75080000D02*
X97010000Y-75080000D01*
G75*
G02*
X97085000Y-75155000I0J-75000D01*
G01*
X97085000Y-75305000D01*
G75*
G02*
X97010000Y-75380000I-75000J0D01*
G01*
X96010000Y-75380000D01*
G75*
G02*
X95935000Y-75305000I0J75000D01*
G01*
X95935000Y-75155000D01*
G75*
G02*
X96010000Y-75080000I75000J0D01*
G01*
G37*
G36*
G01*
X96010000Y-74580000D02*
X97010000Y-74580000D01*
G75*
G02*
X97085000Y-74655000I0J-75000D01*
G01*
X97085000Y-74805000D01*
G75*
G02*
X97010000Y-74880000I-75000J0D01*
G01*
X96010000Y-74880000D01*
G75*
G02*
X95935000Y-74805000I0J75000D01*
G01*
X95935000Y-74655000D01*
G75*
G02*
X96010000Y-74580000I75000J0D01*
G01*
G37*
G36*
G01*
X96010000Y-74080000D02*
X97010000Y-74080000D01*
G75*
G02*
X97085000Y-74155000I0J-75000D01*
G01*
X97085000Y-74305000D01*
G75*
G02*
X97010000Y-74380000I-75000J0D01*
G01*
X96010000Y-74380000D01*
G75*
G02*
X95935000Y-74305000I0J75000D01*
G01*
X95935000Y-74155000D01*
G75*
G02*
X96010000Y-74080000I75000J0D01*
G01*
G37*
G36*
G01*
X96010000Y-73580000D02*
X97010000Y-73580000D01*
G75*
G02*
X97085000Y-73655000I0J-75000D01*
G01*
X97085000Y-73805000D01*
G75*
G02*
X97010000Y-73880000I-75000J0D01*
G01*
X96010000Y-73880000D01*
G75*
G02*
X95935000Y-73805000I0J75000D01*
G01*
X95935000Y-73655000D01*
G75*
G02*
X96010000Y-73580000I75000J0D01*
G01*
G37*
G36*
G01*
X96010000Y-72780000D02*
X97010000Y-72780000D01*
G75*
G02*
X97085000Y-72855000I0J-75000D01*
G01*
X97085000Y-73005000D01*
G75*
G02*
X97010000Y-73080000I-75000J0D01*
G01*
X96010000Y-73080000D01*
G75*
G02*
X95935000Y-73005000I0J75000D01*
G01*
X95935000Y-72855000D01*
G75*
G02*
X96010000Y-72780000I75000J0D01*
G01*
G37*
G36*
G01*
X96010000Y-71980000D02*
X97010000Y-71980000D01*
G75*
G02*
X97085000Y-72055000I0J-75000D01*
G01*
X97085000Y-72205000D01*
G75*
G02*
X97010000Y-72280000I-75000J0D01*
G01*
X96010000Y-72280000D01*
G75*
G02*
X95935000Y-72205000I0J75000D01*
G01*
X95935000Y-72055000D01*
G75*
G02*
X96010000Y-71980000I75000J0D01*
G01*
G37*
G36*
G01*
X96010000Y-72280000D02*
X97010000Y-72280000D01*
G75*
G02*
X97085000Y-72355000I0J-75000D01*
G01*
X97085000Y-72505000D01*
G75*
G02*
X97010000Y-72580000I-75000J0D01*
G01*
X96010000Y-72580000D01*
G75*
G02*
X95935000Y-72505000I0J75000D01*
G01*
X95935000Y-72355000D01*
G75*
G02*
X96010000Y-72280000I75000J0D01*
G01*
G37*
G36*
G01*
X96010000Y-73080000D02*
X97010000Y-73080000D01*
G75*
G02*
X97085000Y-73155000I0J-75000D01*
G01*
X97085000Y-73305000D01*
G75*
G02*
X97010000Y-73380000I-75000J0D01*
G01*
X96010000Y-73380000D01*
G75*
G02*
X95935000Y-73305000I0J75000D01*
G01*
X95935000Y-73155000D01*
G75*
G02*
X96010000Y-73080000I75000J0D01*
G01*
G37*
G36*
G01*
X96010000Y-77880000D02*
X97010000Y-77880000D01*
G75*
G02*
X97085000Y-77955000I0J-75000D01*
G01*
X97085000Y-78105000D01*
G75*
G02*
X97010000Y-78180000I-75000J0D01*
G01*
X96010000Y-78180000D01*
G75*
G02*
X95935000Y-78105000I0J75000D01*
G01*
X95935000Y-77955000D01*
G75*
G02*
X96010000Y-77880000I75000J0D01*
G01*
G37*
G36*
G01*
X96010000Y-78680000D02*
X97010000Y-78680000D01*
G75*
G02*
X97085000Y-78755000I0J-75000D01*
G01*
X97085000Y-78905000D01*
G75*
G02*
X97010000Y-78980000I-75000J0D01*
G01*
X96010000Y-78980000D01*
G75*
G02*
X95935000Y-78905000I0J75000D01*
G01*
X95935000Y-78755000D01*
G75*
G02*
X96010000Y-78680000I75000J0D01*
G01*
G37*
G36*
G01*
X126101000Y-85784000D02*
X126101000Y-84734000D01*
G75*
G02*
X126426000Y-84409000I325000J0D01*
G01*
X127076000Y-84409000D01*
G75*
G02*
X127401000Y-84734000I0J-325000D01*
G01*
X127401000Y-85784000D01*
G75*
G02*
X127076000Y-86109000I-325000J0D01*
G01*
X126426000Y-86109000D01*
G75*
G02*
X126101000Y-85784000I0J325000D01*
G01*
G37*
D23*
X123251000Y-85259000D03*
D24*
X130780000Y-73801000D03*
G36*
G01*
X131305000Y-70951000D02*
X130255000Y-70951000D01*
G75*
G02*
X129930000Y-70626000I0J325000D01*
G01*
X129930000Y-69976000D01*
G75*
G02*
X130255000Y-69651000I325000J0D01*
G01*
X131305000Y-69651000D01*
G75*
G02*
X131630000Y-69976000I0J-325000D01*
G01*
X131630000Y-70626000D01*
G75*
G02*
X131305000Y-70951000I-325000J0D01*
G01*
G37*
G36*
G01*
X99693000Y-70139000D02*
X98443000Y-70139000D01*
G75*
G02*
X98193000Y-69889000I0J250000D01*
G01*
X98193000Y-69139000D01*
G75*
G02*
X98443000Y-68889000I250000J0D01*
G01*
X99693000Y-68889000D01*
G75*
G02*
X99943000Y-69139000I0J-250000D01*
G01*
X99943000Y-69889000D01*
G75*
G02*
X99693000Y-70139000I-250000J0D01*
G01*
G37*
G36*
G01*
X99693000Y-67339000D02*
X98443000Y-67339000D01*
G75*
G02*
X98193000Y-67089000I0J250000D01*
G01*
X98193000Y-66339000D01*
G75*
G02*
X98443000Y-66089000I250000J0D01*
G01*
X99693000Y-66089000D01*
G75*
G02*
X99943000Y-66339000I0J-250000D01*
G01*
X99943000Y-67089000D01*
G75*
G02*
X99693000Y-67339000I-250000J0D01*
G01*
G37*
D23*
X120496000Y-95482500D03*
G36*
G01*
X123346000Y-96007500D02*
X123346000Y-94957500D01*
G75*
G02*
X123671000Y-94632500I325000J0D01*
G01*
X124321000Y-94632500D01*
G75*
G02*
X124646000Y-94957500I0J-325000D01*
G01*
X124646000Y-96007500D01*
G75*
G02*
X124321000Y-96332500I-325000J0D01*
G01*
X123671000Y-96332500D01*
G75*
G02*
X123346000Y-96007500I0J325000D01*
G01*
G37*
D25*
X107555000Y-86051500D03*
X107555000Y-87001500D03*
X107555000Y-94701500D03*
X107555000Y-93601500D03*
X107555000Y-92501500D03*
X107555000Y-91401500D03*
X107555000Y-90301500D03*
X107555000Y-89201500D03*
X107555000Y-88101500D03*
D26*
X107555000Y-96251500D03*
X103255000Y-85101500D03*
D27*
X97055000Y-85101500D03*
D28*
X92905000Y-85101500D03*
D29*
X92455000Y-98601500D03*
D30*
X111070000Y-108377000D03*
X111070000Y-105067000D03*
G36*
G01*
X127781000Y-78246503D02*
X127781000Y-76396497D01*
G75*
G02*
X128030997Y-76146500I249997J0D01*
G01*
X128856003Y-76146500D01*
G75*
G02*
X129106000Y-76396497I0J-249997D01*
G01*
X129106000Y-78246503D01*
G75*
G02*
X128856003Y-78496500I-249997J0D01*
G01*
X128030997Y-78496500D01*
G75*
G02*
X127781000Y-78246503I0J249997D01*
G01*
G37*
G36*
G01*
X124706000Y-78246503D02*
X124706000Y-76396497D01*
G75*
G02*
X124955997Y-76146500I249997J0D01*
G01*
X125781003Y-76146500D01*
G75*
G02*
X126031000Y-76396497I0J-249997D01*
G01*
X126031000Y-78246503D01*
G75*
G02*
X125781003Y-78496500I-249997J0D01*
G01*
X124955997Y-78496500D01*
G75*
G02*
X124706000Y-78246503I0J249997D01*
G01*
G37*
G36*
G01*
X121649000Y-66172997D02*
X121649000Y-68023003D01*
G75*
G02*
X121399003Y-68273000I-249997J0D01*
G01*
X120573997Y-68273000D01*
G75*
G02*
X120324000Y-68023003I0J249997D01*
G01*
X120324000Y-66172997D01*
G75*
G02*
X120573997Y-65923000I249997J0D01*
G01*
X121399003Y-65923000D01*
G75*
G02*
X121649000Y-66172997I0J-249997D01*
G01*
G37*
G36*
G01*
X124724000Y-66172997D02*
X124724000Y-68023003D01*
G75*
G02*
X124474003Y-68273000I-249997J0D01*
G01*
X123648997Y-68273000D01*
G75*
G02*
X123399000Y-68023003I0J249997D01*
G01*
X123399000Y-66172997D01*
G75*
G02*
X123648997Y-65923000I249997J0D01*
G01*
X124474003Y-65923000D01*
G75*
G02*
X124724000Y-66172997I0J-249997D01*
G01*
G37*
D31*
X145511000Y-78294500D03*
X145511000Y-76094500D03*
X143811000Y-76094500D03*
X143811000Y-78294500D03*
D32*
X164156000Y-107591000D03*
X164156000Y-105091000D03*
G36*
G01*
X152659750Y-76541000D02*
X153172250Y-76541000D01*
G75*
G02*
X153391000Y-76759750I0J-218750D01*
G01*
X153391000Y-77197250D01*
G75*
G02*
X153172250Y-77416000I-218750J0D01*
G01*
X152659750Y-77416000D01*
G75*
G02*
X152441000Y-77197250I0J218750D01*
G01*
X152441000Y-76759750D01*
G75*
G02*
X152659750Y-76541000I218750J0D01*
G01*
G37*
G36*
G01*
X152659750Y-78116000D02*
X153172250Y-78116000D01*
G75*
G02*
X153391000Y-78334750I0J-218750D01*
G01*
X153391000Y-78772250D01*
G75*
G02*
X153172250Y-78991000I-218750J0D01*
G01*
X152659750Y-78991000D01*
G75*
G02*
X152441000Y-78772250I0J218750D01*
G01*
X152441000Y-78334750D01*
G75*
G02*
X152659750Y-78116000I218750J0D01*
G01*
G37*
G36*
G01*
X154777000Y-70264500D02*
X154777000Y-70064500D01*
G75*
G02*
X154877000Y-69964500I100000J0D01*
G01*
X156152000Y-69964500D01*
G75*
G02*
X156252000Y-70064500I0J-100000D01*
G01*
X156252000Y-70264500D01*
G75*
G02*
X156152000Y-70364500I-100000J0D01*
G01*
X154877000Y-70364500D01*
G75*
G02*
X154777000Y-70264500I0J100000D01*
G01*
G37*
G36*
G01*
X154777000Y-70914500D02*
X154777000Y-70714500D01*
G75*
G02*
X154877000Y-70614500I100000J0D01*
G01*
X156152000Y-70614500D01*
G75*
G02*
X156252000Y-70714500I0J-100000D01*
G01*
X156252000Y-70914500D01*
G75*
G02*
X156152000Y-71014500I-100000J0D01*
G01*
X154877000Y-71014500D01*
G75*
G02*
X154777000Y-70914500I0J100000D01*
G01*
G37*
G36*
G01*
X154777000Y-71564500D02*
X154777000Y-71364500D01*
G75*
G02*
X154877000Y-71264500I100000J0D01*
G01*
X156152000Y-71264500D01*
G75*
G02*
X156252000Y-71364500I0J-100000D01*
G01*
X156252000Y-71564500D01*
G75*
G02*
X156152000Y-71664500I-100000J0D01*
G01*
X154877000Y-71664500D01*
G75*
G02*
X154777000Y-71564500I0J100000D01*
G01*
G37*
G36*
G01*
X154777000Y-72214500D02*
X154777000Y-72014500D01*
G75*
G02*
X154877000Y-71914500I100000J0D01*
G01*
X156152000Y-71914500D01*
G75*
G02*
X156252000Y-72014500I0J-100000D01*
G01*
X156252000Y-72214500D01*
G75*
G02*
X156152000Y-72314500I-100000J0D01*
G01*
X154877000Y-72314500D01*
G75*
G02*
X154777000Y-72214500I0J100000D01*
G01*
G37*
G36*
G01*
X154777000Y-72864500D02*
X154777000Y-72664500D01*
G75*
G02*
X154877000Y-72564500I100000J0D01*
G01*
X156152000Y-72564500D01*
G75*
G02*
X156252000Y-72664500I0J-100000D01*
G01*
X156252000Y-72864500D01*
G75*
G02*
X156152000Y-72964500I-100000J0D01*
G01*
X154877000Y-72964500D01*
G75*
G02*
X154777000Y-72864500I0J100000D01*
G01*
G37*
G36*
G01*
X154777000Y-73514500D02*
X154777000Y-73314500D01*
G75*
G02*
X154877000Y-73214500I100000J0D01*
G01*
X156152000Y-73214500D01*
G75*
G02*
X156252000Y-73314500I0J-100000D01*
G01*
X156252000Y-73514500D01*
G75*
G02*
X156152000Y-73614500I-100000J0D01*
G01*
X154877000Y-73614500D01*
G75*
G02*
X154777000Y-73514500I0J100000D01*
G01*
G37*
G36*
G01*
X154777000Y-74164500D02*
X154777000Y-73964500D01*
G75*
G02*
X154877000Y-73864500I100000J0D01*
G01*
X156152000Y-73864500D01*
G75*
G02*
X156252000Y-73964500I0J-100000D01*
G01*
X156252000Y-74164500D01*
G75*
G02*
X156152000Y-74264500I-100000J0D01*
G01*
X154877000Y-74264500D01*
G75*
G02*
X154777000Y-74164500I0J100000D01*
G01*
G37*
G36*
G01*
X160502000Y-74164500D02*
X160502000Y-73964500D01*
G75*
G02*
X160602000Y-73864500I100000J0D01*
G01*
X161877000Y-73864500D01*
G75*
G02*
X161977000Y-73964500I0J-100000D01*
G01*
X161977000Y-74164500D01*
G75*
G02*
X161877000Y-74264500I-100000J0D01*
G01*
X160602000Y-74264500D01*
G75*
G02*
X160502000Y-74164500I0J100000D01*
G01*
G37*
G36*
G01*
X160502000Y-73514500D02*
X160502000Y-73314500D01*
G75*
G02*
X160602000Y-73214500I100000J0D01*
G01*
X161877000Y-73214500D01*
G75*
G02*
X161977000Y-73314500I0J-100000D01*
G01*
X161977000Y-73514500D01*
G75*
G02*
X161877000Y-73614500I-100000J0D01*
G01*
X160602000Y-73614500D01*
G75*
G02*
X160502000Y-73514500I0J100000D01*
G01*
G37*
G36*
G01*
X160502000Y-72864500D02*
X160502000Y-72664500D01*
G75*
G02*
X160602000Y-72564500I100000J0D01*
G01*
X161877000Y-72564500D01*
G75*
G02*
X161977000Y-72664500I0J-100000D01*
G01*
X161977000Y-72864500D01*
G75*
G02*
X161877000Y-72964500I-100000J0D01*
G01*
X160602000Y-72964500D01*
G75*
G02*
X160502000Y-72864500I0J100000D01*
G01*
G37*
G36*
G01*
X160502000Y-72214500D02*
X160502000Y-72014500D01*
G75*
G02*
X160602000Y-71914500I100000J0D01*
G01*
X161877000Y-71914500D01*
G75*
G02*
X161977000Y-72014500I0J-100000D01*
G01*
X161977000Y-72214500D01*
G75*
G02*
X161877000Y-72314500I-100000J0D01*
G01*
X160602000Y-72314500D01*
G75*
G02*
X160502000Y-72214500I0J100000D01*
G01*
G37*
G36*
G01*
X160502000Y-71564500D02*
X160502000Y-71364500D01*
G75*
G02*
X160602000Y-71264500I100000J0D01*
G01*
X161877000Y-71264500D01*
G75*
G02*
X161977000Y-71364500I0J-100000D01*
G01*
X161977000Y-71564500D01*
G75*
G02*
X161877000Y-71664500I-100000J0D01*
G01*
X160602000Y-71664500D01*
G75*
G02*
X160502000Y-71564500I0J100000D01*
G01*
G37*
G36*
G01*
X160502000Y-70914500D02*
X160502000Y-70714500D01*
G75*
G02*
X160602000Y-70614500I100000J0D01*
G01*
X161877000Y-70614500D01*
G75*
G02*
X161977000Y-70714500I0J-100000D01*
G01*
X161977000Y-70914500D01*
G75*
G02*
X161877000Y-71014500I-100000J0D01*
G01*
X160602000Y-71014500D01*
G75*
G02*
X160502000Y-70914500I0J100000D01*
G01*
G37*
G36*
G01*
X160502000Y-70264500D02*
X160502000Y-70064500D01*
G75*
G02*
X160602000Y-69964500I100000J0D01*
G01*
X161877000Y-69964500D01*
G75*
G02*
X161977000Y-70064500I0J-100000D01*
G01*
X161977000Y-70264500D01*
G75*
G02*
X161877000Y-70364500I-100000J0D01*
G01*
X160602000Y-70364500D01*
G75*
G02*
X160502000Y-70264500I0J100000D01*
G01*
G37*
G36*
G01*
X130392000Y-95334500D02*
X130392000Y-95884500D01*
G75*
G02*
X130192000Y-96084500I-200000J0D01*
G01*
X129792000Y-96084500D01*
G75*
G02*
X129592000Y-95884500I0J200000D01*
G01*
X129592000Y-95334500D01*
G75*
G02*
X129792000Y-95134500I200000J0D01*
G01*
X130192000Y-95134500D01*
G75*
G02*
X130392000Y-95334500I0J-200000D01*
G01*
G37*
G36*
G01*
X128742000Y-95334500D02*
X128742000Y-95884500D01*
G75*
G02*
X128542000Y-96084500I-200000J0D01*
G01*
X128142000Y-96084500D01*
G75*
G02*
X127942000Y-95884500I0J200000D01*
G01*
X127942000Y-95334500D01*
G75*
G02*
X128142000Y-95134500I200000J0D01*
G01*
X128542000Y-95134500D01*
G75*
G02*
X128742000Y-95334500I0J-200000D01*
G01*
G37*
G36*
G01*
X146077500Y-103792000D02*
X146077500Y-103592000D01*
G75*
G02*
X146177500Y-103492000I100000J0D01*
G01*
X147452500Y-103492000D01*
G75*
G02*
X147552500Y-103592000I0J-100000D01*
G01*
X147552500Y-103792000D01*
G75*
G02*
X147452500Y-103892000I-100000J0D01*
G01*
X146177500Y-103892000D01*
G75*
G02*
X146077500Y-103792000I0J100000D01*
G01*
G37*
G36*
G01*
X146077500Y-104442000D02*
X146077500Y-104242000D01*
G75*
G02*
X146177500Y-104142000I100000J0D01*
G01*
X147452500Y-104142000D01*
G75*
G02*
X147552500Y-104242000I0J-100000D01*
G01*
X147552500Y-104442000D01*
G75*
G02*
X147452500Y-104542000I-100000J0D01*
G01*
X146177500Y-104542000D01*
G75*
G02*
X146077500Y-104442000I0J100000D01*
G01*
G37*
G36*
G01*
X146077500Y-105092000D02*
X146077500Y-104892000D01*
G75*
G02*
X146177500Y-104792000I100000J0D01*
G01*
X147452500Y-104792000D01*
G75*
G02*
X147552500Y-104892000I0J-100000D01*
G01*
X147552500Y-105092000D01*
G75*
G02*
X147452500Y-105192000I-100000J0D01*
G01*
X146177500Y-105192000D01*
G75*
G02*
X146077500Y-105092000I0J100000D01*
G01*
G37*
G36*
G01*
X146077500Y-105742000D02*
X146077500Y-105542000D01*
G75*
G02*
X146177500Y-105442000I100000J0D01*
G01*
X147452500Y-105442000D01*
G75*
G02*
X147552500Y-105542000I0J-100000D01*
G01*
X147552500Y-105742000D01*
G75*
G02*
X147452500Y-105842000I-100000J0D01*
G01*
X146177500Y-105842000D01*
G75*
G02*
X146077500Y-105742000I0J100000D01*
G01*
G37*
G36*
G01*
X146077500Y-106392000D02*
X146077500Y-106192000D01*
G75*
G02*
X146177500Y-106092000I100000J0D01*
G01*
X147452500Y-106092000D01*
G75*
G02*
X147552500Y-106192000I0J-100000D01*
G01*
X147552500Y-106392000D01*
G75*
G02*
X147452500Y-106492000I-100000J0D01*
G01*
X146177500Y-106492000D01*
G75*
G02*
X146077500Y-106392000I0J100000D01*
G01*
G37*
G36*
G01*
X146077500Y-107042000D02*
X146077500Y-106842000D01*
G75*
G02*
X146177500Y-106742000I100000J0D01*
G01*
X147452500Y-106742000D01*
G75*
G02*
X147552500Y-106842000I0J-100000D01*
G01*
X147552500Y-107042000D01*
G75*
G02*
X147452500Y-107142000I-100000J0D01*
G01*
X146177500Y-107142000D01*
G75*
G02*
X146077500Y-107042000I0J100000D01*
G01*
G37*
G36*
G01*
X146077500Y-107692000D02*
X146077500Y-107492000D01*
G75*
G02*
X146177500Y-107392000I100000J0D01*
G01*
X147452500Y-107392000D01*
G75*
G02*
X147552500Y-107492000I0J-100000D01*
G01*
X147552500Y-107692000D01*
G75*
G02*
X147452500Y-107792000I-100000J0D01*
G01*
X146177500Y-107792000D01*
G75*
G02*
X146077500Y-107692000I0J100000D01*
G01*
G37*
G36*
G01*
X151802500Y-107692000D02*
X151802500Y-107492000D01*
G75*
G02*
X151902500Y-107392000I100000J0D01*
G01*
X153177500Y-107392000D01*
G75*
G02*
X153277500Y-107492000I0J-100000D01*
G01*
X153277500Y-107692000D01*
G75*
G02*
X153177500Y-107792000I-100000J0D01*
G01*
X151902500Y-107792000D01*
G75*
G02*
X151802500Y-107692000I0J100000D01*
G01*
G37*
G36*
G01*
X151802500Y-107042000D02*
X151802500Y-106842000D01*
G75*
G02*
X151902500Y-106742000I100000J0D01*
G01*
X153177500Y-106742000D01*
G75*
G02*
X153277500Y-106842000I0J-100000D01*
G01*
X153277500Y-107042000D01*
G75*
G02*
X153177500Y-107142000I-100000J0D01*
G01*
X151902500Y-107142000D01*
G75*
G02*
X151802500Y-107042000I0J100000D01*
G01*
G37*
G36*
G01*
X151802500Y-106392000D02*
X151802500Y-106192000D01*
G75*
G02*
X151902500Y-106092000I100000J0D01*
G01*
X153177500Y-106092000D01*
G75*
G02*
X153277500Y-106192000I0J-100000D01*
G01*
X153277500Y-106392000D01*
G75*
G02*
X153177500Y-106492000I-100000J0D01*
G01*
X151902500Y-106492000D01*
G75*
G02*
X151802500Y-106392000I0J100000D01*
G01*
G37*
G36*
G01*
X151802500Y-105742000D02*
X151802500Y-105542000D01*
G75*
G02*
X151902500Y-105442000I100000J0D01*
G01*
X153177500Y-105442000D01*
G75*
G02*
X153277500Y-105542000I0J-100000D01*
G01*
X153277500Y-105742000D01*
G75*
G02*
X153177500Y-105842000I-100000J0D01*
G01*
X151902500Y-105842000D01*
G75*
G02*
X151802500Y-105742000I0J100000D01*
G01*
G37*
G36*
G01*
X151802500Y-105092000D02*
X151802500Y-104892000D01*
G75*
G02*
X151902500Y-104792000I100000J0D01*
G01*
X153177500Y-104792000D01*
G75*
G02*
X153277500Y-104892000I0J-100000D01*
G01*
X153277500Y-105092000D01*
G75*
G02*
X153177500Y-105192000I-100000J0D01*
G01*
X151902500Y-105192000D01*
G75*
G02*
X151802500Y-105092000I0J100000D01*
G01*
G37*
G36*
G01*
X151802500Y-104442000D02*
X151802500Y-104242000D01*
G75*
G02*
X151902500Y-104142000I100000J0D01*
G01*
X153177500Y-104142000D01*
G75*
G02*
X153277500Y-104242000I0J-100000D01*
G01*
X153277500Y-104442000D01*
G75*
G02*
X153177500Y-104542000I-100000J0D01*
G01*
X151902500Y-104542000D01*
G75*
G02*
X151802500Y-104442000I0J100000D01*
G01*
G37*
G36*
G01*
X151802500Y-103792000D02*
X151802500Y-103592000D01*
G75*
G02*
X151902500Y-103492000I100000J0D01*
G01*
X153177500Y-103492000D01*
G75*
G02*
X153277500Y-103592000I0J-100000D01*
G01*
X153277500Y-103792000D01*
G75*
G02*
X153177500Y-103892000I-100000J0D01*
G01*
X151902500Y-103892000D01*
G75*
G02*
X151802500Y-103792000I0J100000D01*
G01*
G37*
M02*
