M48
; DRILL file {KiCad 5.1.10-88a1d61d58~90~ubuntu20.04.1} date Sun Oct 17 20:31:17 2021
; FORMAT={-:-/ absolute / inch / decimal}
; #@! TF.CreationDate,2021-10-17T20:31:17+02:00
; #@! TF.GenerationSoftware,Kicad,Pcbnew,5.1.10-88a1d61d58~90~ubuntu20.04.1
FMAT,2
INCH
T1C0.0079
T2C0.0160
T3C0.0236
T4C0.0394
T5C0.0400
T6C0.1260
T7C0.0256
%
G90
G05
T1
X3.8327Y-2.4556
X3.8327Y-2.4906
X3.8327Y-2.5256
X4.6103Y-4.1817
X4.6103Y-4.2217
X4.6553Y-4.1817
X4.6553Y-4.2217
X4.7003Y-4.1817
X4.7003Y-4.2217
T2
X3.6378Y-2.4588
X3.64Y-3.8819
X3.6478Y-3.2822
X3.6577Y-3.3505
X3.7003Y-3.5992
X3.8803Y-2.8392
X3.881Y-2.9272
X3.881Y-3.0146
X3.9003Y-2.6265
X3.9578Y-3.7042
X4.0003Y-2.9617
X4.0196Y-2.4504
X4.0203Y-2.5132
X4.0228Y-2.8154
X4.0652Y-3.3505
X4.0853Y-3.9867
X4.0853Y-4.0692
X4.0853Y-4.1567
X4.1078Y-2.6691
X4.1828Y-2.9692
X4.2344Y-3.7983
X4.2353Y-4.0717
X4.2353Y-3.9867
X4.2878Y-3.4692
X4.2878Y-3.5542
X4.2878Y-3.6417
X4.2878Y-3.6867
X4.3203Y-2.6692
X4.3303Y-3.1467
X4.3328Y-2.9267
X4.3328Y-3.0142
X4.3703Y-4.0242
X4.4003Y-3.3817
X4.4078Y-4.4167
X4.5168Y-3.0242
X4.5168Y-3.0692
X4.5178Y-2.8911
X4.5203Y-4.0242
X4.5203Y-3.9392
X4.5578Y-4.2767
X4.5578Y-4.4167
X4.5603Y-2.8911
X4.6118Y-3.8271
X4.6128Y-3.0492
X4.6228Y-4.0642
X4.6478Y-3.9391
X4.6653Y-4.3265
X4.6653Y-3.7017
X4.6753Y-3.3242
X4.6753Y-3.5592
X4.7106Y-3.9733
X4.7503Y-3.1367
X4.7528Y-4.2817
X4.7628Y-2.6667
X4.7632Y-2.6192
X4.7737Y-4.1267
X4.8028Y-2.8617
X4.8028Y-4.2017
X4.8753Y-4.3317
X4.8753Y-4.3717
X4.8853Y-2.6192
X4.8853Y-2.6667
X4.9003Y-4.1572
X4.9253Y-4.3317
X4.9253Y-4.3717
X4.9358Y-3.0442
X4.9902Y-3.3567
X4.9937Y-3.2635
X5.0103Y-3.7642
X5.0103Y-3.8492
X5.0403Y-4.4167
X5.0568Y-3.0442
X5.1253Y-4.4167
X5.2103Y-3.6017
X5.2353Y-2.6767
X5.2428Y-3.9086
X5.2454Y-4.0444
X5.3028Y-4.2317
X5.3178Y-3.9942
X5.3187Y-2.8385
X5.3678Y-3.9942
X5.3903Y-2.9942
X5.4978Y-3.3617
X5.5042Y-3.9942
X5.5128Y-2.9817
X5.5514Y-3.2992
X5.5517Y-3.3622
X5.5528Y-3.4242
X5.5578Y-3.6767
X5.6153Y-3.7667
X5.6503Y-2.7967
X5.6653Y-3.4567
X5.6653Y-3.5792
X5.6989Y-3.3032
X5.7003Y-3.7667
X5.7278Y-4.1167
X5.7278Y-4.1917
X5.7278Y-4.2367
X5.7358Y-3.8017
X5.7378Y-2.7967
X5.7453Y-3.3042
X5.7553Y-2.7042
X5.7673Y-3.8317
X5.7977Y-3.3042
X5.7988Y-3.8642
X5.8028Y-3.4267
X5.8303Y-3.6167
X5.8346Y-4.0824
X5.8503Y-2.9842
X5.8653Y-3.9142
X5.8703Y-2.6617
X5.8878Y-2.8542
X5.8878Y-2.9142
X5.8928Y-3.3042
X5.8928Y-3.1517
X5.9074Y-3.9936
X5.9228Y-3.5192
X5.9228Y-3.6117
X5.9353Y-2.9842
X5.9488Y-2.8938
X5.9503Y-2.8342
X5.9553Y-4.1342
X5.9553Y-4.2192
X5.9615Y-3.4818
X6.0003Y-3.4267
X6.0003Y-3.5667
X6.0053Y-3.9092
X6.0378Y-3.2117
X6.0528Y-2.9842
X6.0703Y-2.6617
X6.0903Y-3.9092
X6.1278Y-3.2992
X6.1728Y-3.9092
X6.2003Y-2.7092
X6.2003Y-2.8267
X6.2028Y-3.3317
X6.2078Y-4.0842
X6.2078Y-4.1342
X6.2203Y-3.0917
X6.2328Y-2.5767
X6.2503Y-3.9092
X6.2528Y-3.5567
X6.2578Y-2.9369
X6.2603Y-3.4842
X6.2653Y-2.8267
X6.2778Y-4.0842
X6.2953Y-3.1467
X6.3278Y-3.7442
X6.4053Y-3.7442
X6.4228Y-2.6617
X6.4278Y-3.5042
X6.4353Y-2.9517
X6.4929Y-3.3667
X6.5328Y-4.0517
X6.5333Y-3.5042
X6.5502Y-3.4404
X6.5803Y-3.3515
X6.5803Y-3.7292
X6.5803Y-3.7792
X6.5928Y-3.1367
X6.6078Y-2.8342
X6.6137Y-2.9532
X6.6253Y-3.8292
X6.6253Y-3.3167
X6.6253Y-3.7292
X6.6878Y-3.2667
X6.6878Y-3.6792
X6.7528Y-3.5042
X6.7528Y-3.6317
X6.7553Y-3.1367
X6.7832Y-4.1563
X6.7832Y-4.247
X6.7903Y-2.7917
X6.7903Y-2.8742
X6.7903Y-3.0517
X6.7903Y-3.2865
X6.7903Y-3.4592
X6.7903Y-3.8742
X6.8278Y-3.6792
X6.8365Y-4.0828
X6.8365Y-4.3205
X6.9228Y-4.0548
X6.9228Y-4.3485
X6.9553Y-3.8292
X6.9578Y-2.9067
X6.9578Y-3.4167
X7.0028Y-3.0942
X7.0092Y-4.0828
X7.0092Y-4.3205
X7.0228Y-3.2667
X7.0228Y-3.3167
X7.0253Y-2.8567
X7.0253Y-3.6792
X7.0253Y-3.7792
X7.0478Y-2.7917
X7.0625Y-4.1563
X7.0625Y-4.247
X7.1528Y-3.0067
T4
X3.6678Y-4.2817
X3.6678Y-4.3817
X3.8253Y-4.3317
X3.9253Y-4.3317
X4.4803Y-2.4717
X4.5803Y-2.4717
X4.6803Y-2.4717
X4.7803Y-2.4717
X4.8803Y-2.4717
X4.9803Y-2.4717
X5.1803Y-2.4717
X5.2603Y-3.2517
X5.2603Y-3.3517
X5.2603Y-3.4517
X5.2603Y-3.5517
X5.2603Y-3.6517
X5.2803Y-2.4717
X5.2803Y-4.373
X5.3803Y-2.4717
X5.3803Y-4.373
X5.4803Y-2.4717
X5.4803Y-4.373
X5.5803Y-4.373
X5.6803Y-2.4717
X5.7803Y-2.4717
X5.7803Y-4.3717
X5.8803Y-2.4717
X5.8803Y-4.3717
X5.9803Y-2.4717
X5.9803Y-4.3717
X6.0803Y-4.3717
X6.1803Y-2.4717
X6.1803Y-4.3717
X6.2803Y-2.4717
X6.2803Y-4.3717
X6.3803Y-2.4717
X6.3803Y-4.3717
X6.4803Y-2.4717
X6.4803Y-4.3717
X6.5803Y-2.4717
X6.6803Y-2.4717
X6.7803Y-2.4717
X6.8803Y-2.4717
X7.2803Y-2.6717
X7.2803Y-2.7717
X7.2803Y-2.8717
X7.2803Y-2.9717
X7.2803Y-3.0717
X7.2803Y-3.1717
X7.2803Y-3.2717
X7.2803Y-3.3717
X7.2803Y-3.4717
X7.2803Y-3.5717
X7.2803Y-3.6717
X7.2803Y-3.7717
X7.2803Y-3.8717
X7.2803Y-3.9717
X7.3803Y-2.6717
X7.3803Y-2.7717
X7.3803Y-2.8717
X7.3803Y-2.9717
X7.3803Y-3.0717
X7.3803Y-3.1717
X7.3803Y-3.2717
X7.3803Y-3.3717
X7.3803Y-3.4717
X7.3803Y-3.5717
X7.3803Y-3.6717
X7.3803Y-3.7717
X7.3803Y-3.8717
X7.3803Y-3.9717
T5
X3.7128Y-4.0267
X3.7128Y-4.1267
X3.8128Y-4.0267
X3.8128Y-4.1267
X3.9128Y-4.0267
X3.9128Y-4.1267
X4.0128Y-4.0267
X4.0128Y-4.1267
T6
X4.1291Y-4.3709
X4.1791Y-2.4713
X7.1295Y-2.4717
X7.3787Y-4.3705
T7
X3.7577Y-2.8579
X3.7577Y-3.0854
T3
G00X3.6364Y-2.8016
M15
G01X3.597Y-2.8016
M16
G05
G00X3.6364Y-3.1417
M15
G01X3.597Y-3.1417
M16
G05
G00X3.799Y-2.8016
M15
G01X3.7557Y-2.8016
M16
G05
G00X3.799Y-3.1417
M15
G01X3.7557Y-3.1417
M16
G05
T0
M30
