G04 #@! TF.GenerationSoftware,KiCad,Pcbnew,5.1.10-88a1d61d58~90~ubuntu20.04.1*
G04 #@! TF.CreationDate,2021-10-17T20:31:12+02:00*
G04 #@! TF.ProjectId,PSLab,50534c61-622e-46b6-9963-61645f706362,v6.1*
G04 #@! TF.SameCoordinates,Original*
G04 #@! TF.FileFunction,Copper,L3,Inr*
G04 #@! TF.FilePolarity,Positive*
%FSLAX46Y46*%
G04 Gerber Fmt 4.6, Leading zero omitted, Abs format (unit mm)*
G04 Created by KiCad (PCBNEW 5.1.10-88a1d61d58~90~ubuntu20.04.1) date 2021-10-17 20:31:12*
%MOMM*%
%LPD*%
G01*
G04 APERTURE LIST*
G04 #@! TA.AperFunction,ComponentPad*
%ADD10O,1.700000X1.700000*%
G04 #@! TD*
G04 #@! TA.AperFunction,ComponentPad*
%ADD11R,1.700000X1.700000*%
G04 #@! TD*
G04 #@! TA.AperFunction,ComponentPad*
%ADD12C,0.500000*%
G04 #@! TD*
G04 #@! TA.AperFunction,ComponentPad*
%ADD13R,1.727200X1.727200*%
G04 #@! TD*
G04 #@! TA.AperFunction,ComponentPad*
%ADD14O,1.727200X1.727200*%
G04 #@! TD*
G04 #@! TA.AperFunction,ComponentPad*
%ADD15O,2.100000X1.000000*%
G04 #@! TD*
G04 #@! TA.AperFunction,ComponentPad*
%ADD16O,2.000000X1.000000*%
G04 #@! TD*
G04 #@! TA.AperFunction,ComponentPad*
%ADD17C,5.600000*%
G04 #@! TD*
G04 #@! TA.AperFunction,ViaPad*
%ADD18C,0.914400*%
G04 #@! TD*
G04 #@! TA.AperFunction,Conductor*
%ADD19C,0.508000*%
G04 #@! TD*
G04 #@! TA.AperFunction,Conductor*
%ADD20C,0.304800*%
G04 #@! TD*
G04 #@! TA.AperFunction,Conductor*
%ADD21C,0.254000*%
G04 #@! TD*
G04 #@! TA.AperFunction,Conductor*
%ADD22C,0.406400*%
G04 #@! TD*
G04 #@! TA.AperFunction,Conductor*
%ADD23C,0.762000*%
G04 #@! TD*
G04 #@! TA.AperFunction,NonConductor*
%ADD24C,0.030000*%
G04 #@! TD*
G04 #@! TA.AperFunction,NonConductor*
%ADD25C,0.100000*%
G04 #@! TD*
G04 APERTURE END LIST*
D10*
X133612000Y-92752000D03*
X133612000Y-90212000D03*
X133612000Y-87672000D03*
X133612000Y-85132000D03*
D11*
X133612000Y-82592000D03*
D12*
X97350000Y-62371000D03*
X97350000Y-64149000D03*
X97350000Y-63260000D03*
X119388000Y-107230000D03*
X119388000Y-106214000D03*
X118245000Y-106214000D03*
X118245000Y-107230000D03*
X117102000Y-106214000D03*
X117102000Y-107230000D03*
D13*
X94305500Y-104817000D03*
D14*
X94305500Y-102277000D03*
X96845500Y-104817000D03*
X96845500Y-102277000D03*
X99385500Y-104817000D03*
X99385500Y-102277000D03*
X101925500Y-104817000D03*
X101925500Y-102277000D03*
D15*
X95945000Y-71160000D03*
X95945000Y-79800000D03*
D16*
X91865000Y-71160000D03*
X91865000Y-79800000D03*
D17*
X104880000Y-111020000D03*
X181090000Y-62780000D03*
X106150000Y-62770000D03*
X187420000Y-111010000D03*
D11*
X187460000Y-67860000D03*
D10*
X184920000Y-67860000D03*
X187460000Y-70400000D03*
X184920000Y-70400000D03*
X187460000Y-72940000D03*
X184920000Y-72940000D03*
X187460000Y-75480000D03*
X184920000Y-75480000D03*
X187460000Y-78020000D03*
X184920000Y-78020000D03*
X187460000Y-80560000D03*
X184920000Y-80560000D03*
X187460000Y-83100000D03*
X184920000Y-83100000D03*
X187460000Y-85640000D03*
X184920000Y-85640000D03*
X187460000Y-88180000D03*
X184920000Y-88180000D03*
X187460000Y-90720000D03*
X184920000Y-90720000D03*
X187460000Y-93260000D03*
X184920000Y-93260000D03*
X187460000Y-95800000D03*
X184920000Y-95800000D03*
X187460000Y-98340000D03*
X184920000Y-98340000D03*
X187460000Y-100880000D03*
X184920000Y-100880000D03*
D11*
X156980000Y-62780000D03*
D10*
X159520000Y-62780000D03*
X162060000Y-62780000D03*
X164600000Y-62780000D03*
X167140000Y-62780000D03*
X169680000Y-62780000D03*
X172220000Y-62780000D03*
X174760000Y-62780000D03*
X164600000Y-111040000D03*
X162060000Y-111040000D03*
X159520000Y-111040000D03*
X156980000Y-111040000D03*
X154440000Y-111040000D03*
X151900000Y-111040000D03*
X149360000Y-111040000D03*
D11*
X146820000Y-111040000D03*
X131580000Y-62780000D03*
D10*
X134120000Y-62780000D03*
X136660000Y-62780000D03*
X139200000Y-62780000D03*
D11*
X144280000Y-62780000D03*
D10*
X146820000Y-62780000D03*
X149360000Y-62780000D03*
X151900000Y-62780000D03*
X141740000Y-111074000D03*
X139200000Y-111074000D03*
X136660000Y-111074000D03*
D11*
X134120000Y-111074000D03*
X113800000Y-62780000D03*
D10*
X116340000Y-62780000D03*
X118880000Y-62780000D03*
X121420000Y-62780000D03*
X123960000Y-62780000D03*
X126500000Y-62780000D03*
D11*
X93162500Y-111294000D03*
D10*
X93162500Y-108754000D03*
D11*
X99703000Y-110024000D03*
D10*
X97163000Y-110024000D03*
D18*
X148199002Y-103692000D03*
X104338000Y-67796024D03*
X115768500Y-108627000D03*
X114816000Y-102213500D03*
X121251290Y-104817000D03*
X118753000Y-84433500D03*
X118753000Y-90402506D03*
X124468000Y-105593522D03*
X141012600Y-85399000D03*
X168283006Y-94720500D03*
X168283004Y-84243000D03*
X108910500Y-90275500D03*
X157678500Y-105007500D03*
X144751558Y-83900697D03*
X149550500Y-72495500D03*
X157678500Y-103737500D03*
X145931000Y-83925500D03*
X141004300Y-83799000D03*
X167140000Y-94720500D03*
X167140000Y-85128390D03*
X108910500Y-92498000D03*
X163456992Y-74972000D03*
X151099200Y-73503500D03*
X107577004Y-101261000D03*
X179014512Y-70908000D03*
X172474000Y-70907996D03*
X107577000Y-103420000D03*
X176728500Y-73829000D03*
X152408000Y-87037000D03*
X147391500Y-87037000D03*
X150757000Y-75797496D03*
X108910500Y-88116500D03*
X111768000Y-85894000D03*
X108910500Y-93641000D03*
X142629000Y-95673000D03*
X132342000Y-91482000D03*
X118499000Y-94022000D03*
X143899000Y-90910500D03*
X149550500Y-74019500D03*
X149105982Y-67606000D03*
X178443000Y-95990500D03*
X167140000Y-95990504D03*
X164919000Y-85513000D03*
X178379502Y-84243000D03*
X117419500Y-103229500D03*
X121991500Y-106722000D03*
X98560000Y-72114501D03*
X99068000Y-66713972D03*
X118498992Y-109893390D03*
X118053500Y-100054000D03*
X100528500Y-94085500D03*
X119648000Y-100921210D03*
X120721500Y-108754000D03*
X110053500Y-76559500D03*
X98577000Y-76571500D03*
X110053500Y-74337000D03*
X98577000Y-74351500D03*
X162695000Y-95101500D03*
X150439500Y-89386499D03*
X144787992Y-95673000D03*
X145486500Y-106468000D03*
X145690000Y-96562000D03*
X145486500Y-104563000D03*
X158758000Y-99292500D03*
X156789504Y-99292494D03*
X154694000Y-99292504D03*
X152535000Y-99292500D03*
X117165498Y-77448500D03*
X139644500Y-85386002D03*
X141168500Y-93387000D03*
X141041500Y-86973500D03*
X158821500Y-90338996D03*
X158948500Y-74598221D03*
X153741500Y-75797500D03*
X168283000Y-97260500D03*
X150439500Y-91736000D03*
X166374390Y-87386784D03*
X152408000Y-90593000D03*
X102116000Y-63835000D03*
X92654500Y-83367000D03*
X93988000Y-91418500D03*
X127262000Y-95609500D03*
X140026000Y-75734500D03*
X147290000Y-98149500D03*
X151264998Y-105007500D03*
X134691500Y-107484000D03*
X135072016Y-101452000D03*
X157487992Y-68812492D03*
X125368500Y-77321506D03*
X157488000Y-71797000D03*
X165933500Y-102912000D03*
X169869000Y-93450500D03*
X165947000Y-89005500D03*
X169869000Y-82973000D03*
X167457500Y-79671000D03*
X136342500Y-101451500D03*
X158313500Y-65447000D03*
X132976998Y-67987000D03*
X120986500Y-66526500D03*
X120975500Y-67733000D03*
X159138998Y-71797000D03*
X176728500Y-86783000D03*
X176665000Y-97260500D03*
X171521500Y-89005500D03*
X171521500Y-92244000D03*
X135095000Y-72098500D03*
X171585000Y-79671000D03*
X178379500Y-82973000D03*
X172474000Y-73003500D03*
X178443000Y-93450500D03*
X178443000Y-72559000D03*
X126840020Y-82893500D03*
X173426500Y-93450506D03*
X172474000Y-83477390D03*
X146490000Y-97324000D03*
X151264998Y-107166500D03*
X149677504Y-80052000D03*
X149677500Y-83925500D03*
X153360500Y-81576000D03*
X157995998Y-78527998D03*
X103767000Y-103356500D03*
X103767000Y-101261000D03*
X124087000Y-67733000D03*
X125103000Y-110024000D03*
X125103000Y-111040000D03*
X123833000Y-111040000D03*
X123833000Y-110024000D03*
X175840000Y-102991500D03*
X102098400Y-62239200D03*
X133233000Y-102727000D03*
X102180000Y-71510300D03*
X173647267Y-103703962D03*
X172292084Y-105569212D03*
X172292084Y-107874788D03*
X173647267Y-109740038D03*
X175840000Y-110452500D03*
X178032733Y-109740038D03*
X179387916Y-107874788D03*
X179387916Y-105569212D03*
X178032733Y-103703962D03*
X159456500Y-103737500D03*
X115768500Y-112183000D03*
X111958500Y-112183000D03*
X128024000Y-112183000D03*
X130183000Y-112183000D03*
X92400506Y-62454400D03*
X150047211Y-101436973D03*
X145486500Y-107611000D03*
X143518000Y-71035000D03*
X148979000Y-99419500D03*
X172474000Y-98403496D03*
X143899000Y-87799002D03*
X139805694Y-101451500D03*
X181681500Y-76369000D03*
X151138000Y-71987500D03*
X148598000Y-75797500D03*
X124087000Y-66526500D03*
X172474000Y-87862500D03*
X177871500Y-78591500D03*
X163266500Y-89005504D03*
X160726000Y-95101990D03*
X148090000Y-91863004D03*
X128443500Y-77321500D03*
X103767000Y-105579000D03*
X127262000Y-97768504D03*
X111006000Y-102213500D03*
X114816008Y-100054500D03*
X114752500Y-73434000D03*
X114727518Y-77956500D03*
X114727518Y-76813500D03*
X115832000Y-73434000D03*
X146185000Y-68685500D03*
X145738884Y-71036622D03*
X106244000Y-75416500D03*
X101608000Y-75226000D03*
X92455000Y-98601468D03*
X92905000Y-85101484D03*
X103255000Y-85101484D03*
X107555012Y-96476710D03*
X117139000Y-97209500D03*
X136914000Y-76051500D03*
X120657994Y-79671000D03*
X109736000Y-67796490D03*
X121991500Y-72685996D03*
X147260890Y-83925500D03*
X154186000Y-67606000D03*
X163139500Y-67606000D03*
X151421061Y-88436937D03*
X172474000Y-77512000D03*
X109990000Y-79925000D03*
X126750982Y-85259000D03*
X133167500Y-99277956D03*
X167989000Y-75012500D03*
X157551500Y-84624000D03*
X167838500Y-71987504D03*
X159901000Y-79925000D03*
X159012000Y-88497500D03*
X155646502Y-83798502D03*
D19*
X141502000Y-103692000D02*
X148199002Y-103692000D01*
X134120000Y-111074000D02*
X141502000Y-103692000D01*
X114816000Y-102213500D02*
X114816000Y-103864500D01*
X114816000Y-103864500D02*
X115768500Y-104817000D01*
X115768500Y-104817000D02*
X115768500Y-105261500D01*
X115768500Y-105261500D02*
X115768500Y-108627000D01*
X115768500Y-104817000D02*
X121251290Y-104817000D01*
X117978307Y-91177199D02*
X118753000Y-90402506D01*
X105240199Y-91177199D02*
X117978307Y-91177199D01*
X118753000Y-84433500D02*
X118753000Y-90402506D01*
X104338000Y-67796024D02*
X104338000Y-90275000D01*
X104338000Y-90275000D02*
X105240199Y-91177199D01*
X129948478Y-111074000D02*
X124468000Y-105593522D01*
X134120000Y-111074000D02*
X129948478Y-111074000D01*
D20*
X168283004Y-85322496D02*
X168283004Y-84243000D01*
X166822500Y-86084500D02*
X167521000Y-86084500D01*
X163520500Y-82782500D02*
X166822500Y-86084500D01*
X167521000Y-86084500D02*
X168283004Y-85322496D01*
X154503500Y-82782500D02*
X163520500Y-82782500D01*
X151887000Y-85399000D02*
X154503500Y-82782500D01*
X141012600Y-85399000D02*
X151887000Y-85399000D01*
X166682801Y-84671191D02*
X167140000Y-85128390D01*
X164159110Y-82147500D02*
X166682801Y-84671191D01*
X144216500Y-84814500D02*
X151582500Y-84814500D01*
X154249500Y-82147500D02*
X164159110Y-82147500D01*
X151582500Y-84814500D02*
X154249500Y-82147500D01*
X143201000Y-83799000D02*
X144216500Y-84814500D01*
X141004300Y-83799000D02*
X143201000Y-83799000D01*
X164600000Y-62780000D02*
X164600000Y-73828992D01*
X164600000Y-73828992D02*
X163456992Y-74972000D01*
X179014512Y-70908000D02*
X172474004Y-70908000D01*
X172474004Y-70908000D02*
X172474000Y-70907996D01*
X152408000Y-87037000D02*
X147391500Y-87037000D01*
X133421500Y-95673000D02*
X132342000Y-94593500D01*
X142629000Y-95673000D02*
X133421500Y-95673000D01*
X132342000Y-94593500D02*
X132342000Y-91482000D01*
D21*
X121483500Y-103229500D02*
X117419500Y-103229500D01*
X121991500Y-103737500D02*
X121483500Y-103229500D01*
X121991500Y-106722000D02*
X121991500Y-103737500D01*
D19*
X100528500Y-68174472D02*
X99068000Y-66713972D01*
X100528500Y-78337500D02*
X100528500Y-68174472D01*
X121102000Y-100054000D02*
X118053500Y-100054000D01*
X122944000Y-101896000D02*
X121102000Y-100054000D01*
X122944000Y-108182500D02*
X122944000Y-101896000D01*
X121233110Y-109893390D02*
X122944000Y-108182500D01*
X118498992Y-109893390D02*
X121233110Y-109893390D01*
X100528500Y-78337500D02*
X100528500Y-94085500D01*
D20*
X113800000Y-65891500D02*
X113800000Y-62780000D01*
X113800000Y-62780000D02*
X113800000Y-74083002D01*
X113800000Y-74083002D02*
X117165498Y-77448500D01*
X157749221Y-75797500D02*
X153741500Y-75797500D01*
X158948500Y-74598221D02*
X157749221Y-75797500D01*
D22*
X101925500Y-101070500D02*
X101925500Y-102277000D01*
D20*
X101925500Y-100880000D02*
X101925500Y-102277000D01*
D19*
X102116000Y-63835000D02*
X99918000Y-63835000D01*
X99918000Y-63835000D02*
X93988000Y-69765000D01*
X93467000Y-83367000D02*
X92654500Y-83367000D01*
X93988000Y-82846000D02*
X93467000Y-83367000D01*
X93988000Y-69765000D02*
X93988000Y-82465000D01*
X93988000Y-82465000D02*
X93988000Y-82846000D01*
X93988000Y-82465000D02*
X93988000Y-91418500D01*
X102243000Y-95609500D02*
X127262000Y-95609500D01*
X97861500Y-95609500D02*
X98941000Y-95609500D01*
X97925000Y-95609500D02*
X97861500Y-95609500D01*
X97798000Y-95609500D02*
X97861500Y-95609500D01*
X94877000Y-95609500D02*
X102243000Y-95609500D01*
X101925500Y-100562500D02*
X101925500Y-102277000D01*
X101290500Y-99927500D02*
X101925500Y-100562500D01*
X92527500Y-100880000D02*
X93480000Y-99927500D01*
X92527500Y-104182000D02*
X92527500Y-100880000D01*
X93162500Y-104817000D02*
X92527500Y-104182000D01*
X94305500Y-104817000D02*
X93162500Y-104817000D01*
X94750000Y-99927500D02*
X101290500Y-99927500D01*
X93480000Y-99927500D02*
X94750000Y-99927500D01*
X93988000Y-95609500D02*
X94877000Y-95609500D01*
X93988000Y-91418500D02*
X93988000Y-95609500D01*
X93988000Y-99927500D02*
X94750000Y-99927500D01*
X93988000Y-95609500D02*
X93988000Y-99927500D01*
X133612000Y-85132000D02*
X136152000Y-85132000D01*
X140026000Y-81258000D02*
X140026000Y-75734500D01*
X136152000Y-85132000D02*
X140026000Y-81258000D01*
X135072016Y-107103484D02*
X135072016Y-101452000D01*
X134691500Y-107484000D02*
X135072016Y-107103484D01*
X125825699Y-76864307D02*
X125368500Y-77321506D01*
X136100006Y-66590000D02*
X125825699Y-76864307D01*
X156599000Y-66590000D02*
X136100006Y-66590000D01*
X157487992Y-67478992D02*
X156599000Y-66590000D01*
X157487992Y-68812492D02*
X157487992Y-67478992D01*
X157487992Y-71796992D02*
X157488000Y-71797000D01*
X157487992Y-68812492D02*
X157487992Y-71796992D01*
D20*
X157342702Y-72069300D02*
X157488000Y-71924002D01*
X157488000Y-71924002D02*
X157488000Y-71797000D01*
D19*
X125368500Y-77968084D02*
X125368500Y-77321506D01*
X125368500Y-89828770D02*
X125368500Y-77968084D01*
X135072016Y-99532286D02*
X125368500Y-89828770D01*
X135072016Y-101452000D02*
X135072016Y-99532286D01*
X165933500Y-102912000D02*
X165933500Y-94085500D01*
X166568500Y-93450500D02*
X169869000Y-93450500D01*
X165933500Y-94085500D02*
X166568500Y-93450500D01*
X165933500Y-89019000D02*
X165947000Y-89005500D01*
X165933500Y-94085500D02*
X165933500Y-89019000D01*
X165947000Y-89005500D02*
X167648000Y-89005500D01*
X169869000Y-86784500D02*
X169869000Y-82973000D01*
X167648000Y-89005500D02*
X169869000Y-86784500D01*
X169299000Y-79671000D02*
X167457500Y-79671000D01*
X169869000Y-80241000D02*
X169299000Y-79671000D01*
X169869000Y-82973000D02*
X169869000Y-80241000D01*
X135516998Y-65447000D02*
X132976998Y-67987000D01*
X158313500Y-65447000D02*
X135516998Y-65447000D01*
X120986500Y-68887000D02*
X120986500Y-66526500D01*
X121483500Y-69384000D02*
X120986500Y-68887000D01*
X131579998Y-69384000D02*
X121483500Y-69384000D01*
X132976998Y-67987000D02*
X131579998Y-69384000D01*
X159138998Y-66272498D02*
X159138998Y-71797000D01*
D23*
X159138998Y-71860488D02*
X159138998Y-71797000D01*
D19*
X158313500Y-65447000D02*
X159138998Y-66272498D01*
X137549000Y-102658000D02*
X136342500Y-101451500D01*
X137549000Y-106277500D02*
X137549000Y-102658000D01*
X135072500Y-108754000D02*
X137549000Y-106277500D01*
X131516500Y-106341000D02*
X133929500Y-108754000D01*
X131516500Y-97895500D02*
X131516500Y-106341000D01*
X123515500Y-89894500D02*
X131516500Y-97895500D01*
X133929500Y-108754000D02*
X135072500Y-108754000D01*
X123515500Y-78210500D02*
X123515500Y-89894500D01*
X120975500Y-75670500D02*
X123515500Y-78210500D01*
X120975500Y-67733000D02*
X120975500Y-75670500D01*
X171521500Y-92244000D02*
X171521500Y-89005500D01*
X171521500Y-89005500D02*
X171521500Y-85576500D01*
X171521500Y-86783000D02*
X176728500Y-86783000D01*
X171521500Y-85576500D02*
X171521500Y-86783000D01*
X171521500Y-96244500D02*
X171521500Y-92244000D01*
X172537500Y-97260500D02*
X171521500Y-96244500D01*
X176665000Y-97260500D02*
X172537500Y-97260500D01*
X171521500Y-79734500D02*
X171585000Y-79671000D01*
X171521500Y-85576500D02*
X171521500Y-79734500D01*
X149137750Y-71035000D02*
X153119947Y-71035000D01*
X169391510Y-77477510D02*
X171585000Y-79671000D01*
X163168510Y-77477510D02*
X169391510Y-77477510D01*
X159422011Y-73731011D02*
X163168510Y-77477510D01*
X135095000Y-72098500D02*
X148074250Y-72098500D01*
X148074250Y-72098500D02*
X149137750Y-71035000D01*
X155815958Y-73731011D02*
X159422011Y-73731011D01*
X153119947Y-71035000D02*
X155815958Y-73731011D01*
X179649500Y-92244000D02*
X178443000Y-93450500D01*
X179649500Y-84243000D02*
X179649500Y-92244000D01*
X178379500Y-82973000D02*
X179649500Y-84243000D01*
X179649500Y-73765500D02*
X178443000Y-72559000D01*
X178379500Y-82973000D02*
X179649500Y-81703000D01*
X179649500Y-81703000D02*
X179649500Y-73765500D01*
X173426506Y-93450500D02*
X173426500Y-93450506D01*
X178443000Y-93450500D02*
X173426506Y-93450500D01*
X126840020Y-77425980D02*
X126840020Y-82893500D01*
X134247000Y-70019000D02*
X126840020Y-77425980D01*
X153678000Y-70019000D02*
X134247000Y-70019000D01*
X156408500Y-72749500D02*
X153678000Y-70019000D01*
X163393500Y-76178500D02*
X159964500Y-72749500D01*
X159964500Y-72749500D02*
X156408500Y-72749500D01*
X169299000Y-76178500D02*
X163393500Y-76178500D01*
X172918500Y-72559000D02*
X169299000Y-76178500D01*
X178443000Y-72559000D02*
X172918500Y-72559000D01*
X172978390Y-82973000D02*
X172474000Y-83477390D01*
X178379500Y-82973000D02*
X172978390Y-82973000D01*
D20*
X151011000Y-83925500D02*
X153360500Y-81576000D01*
X149677500Y-83925500D02*
X151011000Y-83925500D01*
D24*
X91369500Y-60669500D02*
X91035000Y-60669500D01*
X91035000Y-60365000D01*
X91369500Y-60365000D01*
X91369500Y-60669500D01*
G04 #@! TA.AperFunction,NonConductor*
D25*
G36*
X91369500Y-60669500D02*
G01*
X91035000Y-60669500D01*
X91035000Y-60365000D01*
X91369500Y-60365000D01*
X91369500Y-60669500D01*
G37*
G04 #@! TD.AperFunction*
D24*
X189875001Y-113485000D02*
X189570500Y-113485000D01*
X189570500Y-113150500D01*
X189875001Y-113150500D01*
X189875001Y-113485000D01*
G04 #@! TA.AperFunction,NonConductor*
D25*
G36*
X189875001Y-113485000D02*
G01*
X189570500Y-113485000D01*
X189570500Y-113150500D01*
X189875001Y-113150500D01*
X189875001Y-113485000D01*
G37*
G04 #@! TD.AperFunction*
M02*
