G04 #@! TF.GenerationSoftware,KiCad,Pcbnew,5.1.10-88a1d61d58~88~ubuntu20.04.1*
G04 #@! TF.CreationDate,2021-05-26T16:36:03+02:00*
G04 #@! TF.ProjectId,PSLab,50534c61-622e-46b6-9963-61645f706362,v6.1*
G04 #@! TF.SameCoordinates,Original*
G04 #@! TF.FileFunction,Paste,Top*
G04 #@! TF.FilePolarity,Positive*
%FSLAX46Y46*%
G04 Gerber Fmt 4.6, Leading zero omitted, Abs format (unit mm)*
G04 Created by KiCad (PCBNEW 5.1.10-88a1d61d58~88~ubuntu20.04.1) date 2021-05-26 16:36:03*
%MOMM*%
%LPD*%
G01*
G04 APERTURE LIST*
%ADD10R,1.700000X1.300000*%
%ADD11R,1.300000X1.700000*%
%ADD12R,1.200000X0.700000*%
%ADD13R,1.200000X1.000000*%
%ADD14R,0.800000X1.000000*%
%ADD15R,2.800000X1.000000*%
%ADD16R,1.900000X1.300000*%
%ADD17R,4.700000X1.200000*%
%ADD18R,1.060000X0.650000*%
%ADD19R,0.900000X0.800000*%
%ADD20R,1.270000X0.610000*%
%ADD21R,1.020000X0.610000*%
%ADD22R,3.810000X3.910000*%
%ADD23R,1.400000X1.200000*%
%ADD24R,2.500000X5.100000*%
%ADD25R,1.800000X1.000000*%
%ADD26R,0.900000X1.700000*%
%ADD27R,0.550000X1.500000*%
%ADD28R,1.500000X0.550000*%
%ADD29R,0.630000X0.450000*%
%ADD30R,0.660000X0.730000*%
G04 APERTURE END LIST*
G36*
G01*
X179255000Y-87725000D02*
X179255000Y-87425000D01*
G75*
G02*
X179405000Y-87275000I150000J0D01*
G01*
X180655000Y-87275000D01*
G75*
G02*
X180805000Y-87425000I0J-150000D01*
G01*
X180805000Y-87725000D01*
G75*
G02*
X180655000Y-87875000I-150000J0D01*
G01*
X179405000Y-87875000D01*
G75*
G02*
X179255000Y-87725000I0J150000D01*
G01*
G37*
G36*
G01*
X179255000Y-88995000D02*
X179255000Y-88695000D01*
G75*
G02*
X179405000Y-88545000I150000J0D01*
G01*
X180655000Y-88545000D01*
G75*
G02*
X180805000Y-88695000I0J-150000D01*
G01*
X180805000Y-88995000D01*
G75*
G02*
X180655000Y-89145000I-150000J0D01*
G01*
X179405000Y-89145000D01*
G75*
G02*
X179255000Y-88995000I0J150000D01*
G01*
G37*
G36*
G01*
X179255000Y-90265000D02*
X179255000Y-89965000D01*
G75*
G02*
X179405000Y-89815000I150000J0D01*
G01*
X180655000Y-89815000D01*
G75*
G02*
X180805000Y-89965000I0J-150000D01*
G01*
X180805000Y-90265000D01*
G75*
G02*
X180655000Y-90415000I-150000J0D01*
G01*
X179405000Y-90415000D01*
G75*
G02*
X179255000Y-90265000I0J150000D01*
G01*
G37*
G36*
G01*
X179255000Y-91535000D02*
X179255000Y-91235000D01*
G75*
G02*
X179405000Y-91085000I150000J0D01*
G01*
X180655000Y-91085000D01*
G75*
G02*
X180805000Y-91235000I0J-150000D01*
G01*
X180805000Y-91535000D01*
G75*
G02*
X180655000Y-91685000I-150000J0D01*
G01*
X179405000Y-91685000D01*
G75*
G02*
X179255000Y-91535000I0J150000D01*
G01*
G37*
G36*
G01*
X173855000Y-91535000D02*
X173855000Y-91235000D01*
G75*
G02*
X174005000Y-91085000I150000J0D01*
G01*
X175255000Y-91085000D01*
G75*
G02*
X175405000Y-91235000I0J-150000D01*
G01*
X175405000Y-91535000D01*
G75*
G02*
X175255000Y-91685000I-150000J0D01*
G01*
X174005000Y-91685000D01*
G75*
G02*
X173855000Y-91535000I0J150000D01*
G01*
G37*
G36*
G01*
X173855000Y-90265000D02*
X173855000Y-89965000D01*
G75*
G02*
X174005000Y-89815000I150000J0D01*
G01*
X175255000Y-89815000D01*
G75*
G02*
X175405000Y-89965000I0J-150000D01*
G01*
X175405000Y-90265000D01*
G75*
G02*
X175255000Y-90415000I-150000J0D01*
G01*
X174005000Y-90415000D01*
G75*
G02*
X173855000Y-90265000I0J150000D01*
G01*
G37*
G36*
G01*
X173855000Y-88995000D02*
X173855000Y-88695000D01*
G75*
G02*
X174005000Y-88545000I150000J0D01*
G01*
X175255000Y-88545000D01*
G75*
G02*
X175405000Y-88695000I0J-150000D01*
G01*
X175405000Y-88995000D01*
G75*
G02*
X175255000Y-89145000I-150000J0D01*
G01*
X174005000Y-89145000D01*
G75*
G02*
X173855000Y-88995000I0J150000D01*
G01*
G37*
G36*
G01*
X173855000Y-87725000D02*
X173855000Y-87425000D01*
G75*
G02*
X174005000Y-87275000I150000J0D01*
G01*
X175255000Y-87275000D01*
G75*
G02*
X175405000Y-87425000I0J-150000D01*
G01*
X175405000Y-87725000D01*
G75*
G02*
X175255000Y-87875000I-150000J0D01*
G01*
X174005000Y-87875000D01*
G75*
G02*
X173855000Y-87725000I0J150000D01*
G01*
G37*
G36*
G01*
X168995000Y-87775000D02*
X168995000Y-87475000D01*
G75*
G02*
X169145000Y-87325000I150000J0D01*
G01*
X170395000Y-87325000D01*
G75*
G02*
X170545000Y-87475000I0J-150000D01*
G01*
X170545000Y-87775000D01*
G75*
G02*
X170395000Y-87925000I-150000J0D01*
G01*
X169145000Y-87925000D01*
G75*
G02*
X168995000Y-87775000I0J150000D01*
G01*
G37*
G36*
G01*
X168995000Y-89045000D02*
X168995000Y-88745000D01*
G75*
G02*
X169145000Y-88595000I150000J0D01*
G01*
X170395000Y-88595000D01*
G75*
G02*
X170545000Y-88745000I0J-150000D01*
G01*
X170545000Y-89045000D01*
G75*
G02*
X170395000Y-89195000I-150000J0D01*
G01*
X169145000Y-89195000D01*
G75*
G02*
X168995000Y-89045000I0J150000D01*
G01*
G37*
G36*
G01*
X168995000Y-90315000D02*
X168995000Y-90015000D01*
G75*
G02*
X169145000Y-89865000I150000J0D01*
G01*
X170395000Y-89865000D01*
G75*
G02*
X170545000Y-90015000I0J-150000D01*
G01*
X170545000Y-90315000D01*
G75*
G02*
X170395000Y-90465000I-150000J0D01*
G01*
X169145000Y-90465000D01*
G75*
G02*
X168995000Y-90315000I0J150000D01*
G01*
G37*
G36*
G01*
X168995000Y-91585000D02*
X168995000Y-91285000D01*
G75*
G02*
X169145000Y-91135000I150000J0D01*
G01*
X170395000Y-91135000D01*
G75*
G02*
X170545000Y-91285000I0J-150000D01*
G01*
X170545000Y-91585000D01*
G75*
G02*
X170395000Y-91735000I-150000J0D01*
G01*
X169145000Y-91735000D01*
G75*
G02*
X168995000Y-91585000I0J150000D01*
G01*
G37*
G36*
G01*
X163595000Y-91585000D02*
X163595000Y-91285000D01*
G75*
G02*
X163745000Y-91135000I150000J0D01*
G01*
X164995000Y-91135000D01*
G75*
G02*
X165145000Y-91285000I0J-150000D01*
G01*
X165145000Y-91585000D01*
G75*
G02*
X164995000Y-91735000I-150000J0D01*
G01*
X163745000Y-91735000D01*
G75*
G02*
X163595000Y-91585000I0J150000D01*
G01*
G37*
G36*
G01*
X163595000Y-90315000D02*
X163595000Y-90015000D01*
G75*
G02*
X163745000Y-89865000I150000J0D01*
G01*
X164995000Y-89865000D01*
G75*
G02*
X165145000Y-90015000I0J-150000D01*
G01*
X165145000Y-90315000D01*
G75*
G02*
X164995000Y-90465000I-150000J0D01*
G01*
X163745000Y-90465000D01*
G75*
G02*
X163595000Y-90315000I0J150000D01*
G01*
G37*
G36*
G01*
X163595000Y-89045000D02*
X163595000Y-88745000D01*
G75*
G02*
X163745000Y-88595000I150000J0D01*
G01*
X164995000Y-88595000D01*
G75*
G02*
X165145000Y-88745000I0J-150000D01*
G01*
X165145000Y-89045000D01*
G75*
G02*
X164995000Y-89195000I-150000J0D01*
G01*
X163745000Y-89195000D01*
G75*
G02*
X163595000Y-89045000I0J150000D01*
G01*
G37*
G36*
G01*
X163595000Y-87775000D02*
X163595000Y-87475000D01*
G75*
G02*
X163745000Y-87325000I150000J0D01*
G01*
X164995000Y-87325000D01*
G75*
G02*
X165145000Y-87475000I0J-150000D01*
G01*
X165145000Y-87775000D01*
G75*
G02*
X164995000Y-87925000I-150000J0D01*
G01*
X163745000Y-87925000D01*
G75*
G02*
X163595000Y-87775000I0J150000D01*
G01*
G37*
G36*
G01*
X152585000Y-79045000D02*
X152585000Y-78745000D01*
G75*
G02*
X152735000Y-78595000I150000J0D01*
G01*
X153985000Y-78595000D01*
G75*
G02*
X154135000Y-78745000I0J-150000D01*
G01*
X154135000Y-79045000D01*
G75*
G02*
X153985000Y-79195000I-150000J0D01*
G01*
X152735000Y-79195000D01*
G75*
G02*
X152585000Y-79045000I0J150000D01*
G01*
G37*
G36*
G01*
X152585000Y-80315000D02*
X152585000Y-80015000D01*
G75*
G02*
X152735000Y-79865000I150000J0D01*
G01*
X153985000Y-79865000D01*
G75*
G02*
X154135000Y-80015000I0J-150000D01*
G01*
X154135000Y-80315000D01*
G75*
G02*
X153985000Y-80465000I-150000J0D01*
G01*
X152735000Y-80465000D01*
G75*
G02*
X152585000Y-80315000I0J150000D01*
G01*
G37*
G36*
G01*
X152585000Y-81585000D02*
X152585000Y-81285000D01*
G75*
G02*
X152735000Y-81135000I150000J0D01*
G01*
X153985000Y-81135000D01*
G75*
G02*
X154135000Y-81285000I0J-150000D01*
G01*
X154135000Y-81585000D01*
G75*
G02*
X153985000Y-81735000I-150000J0D01*
G01*
X152735000Y-81735000D01*
G75*
G02*
X152585000Y-81585000I0J150000D01*
G01*
G37*
G36*
G01*
X152585000Y-82855000D02*
X152585000Y-82555000D01*
G75*
G02*
X152735000Y-82405000I150000J0D01*
G01*
X153985000Y-82405000D01*
G75*
G02*
X154135000Y-82555000I0J-150000D01*
G01*
X154135000Y-82855000D01*
G75*
G02*
X153985000Y-83005000I-150000J0D01*
G01*
X152735000Y-83005000D01*
G75*
G02*
X152585000Y-82855000I0J150000D01*
G01*
G37*
G36*
G01*
X157985000Y-82855000D02*
X157985000Y-82555000D01*
G75*
G02*
X158135000Y-82405000I150000J0D01*
G01*
X159385000Y-82405000D01*
G75*
G02*
X159535000Y-82555000I0J-150000D01*
G01*
X159535000Y-82855000D01*
G75*
G02*
X159385000Y-83005000I-150000J0D01*
G01*
X158135000Y-83005000D01*
G75*
G02*
X157985000Y-82855000I0J150000D01*
G01*
G37*
G36*
G01*
X157985000Y-81585000D02*
X157985000Y-81285000D01*
G75*
G02*
X158135000Y-81135000I150000J0D01*
G01*
X159385000Y-81135000D01*
G75*
G02*
X159535000Y-81285000I0J-150000D01*
G01*
X159535000Y-81585000D01*
G75*
G02*
X159385000Y-81735000I-150000J0D01*
G01*
X158135000Y-81735000D01*
G75*
G02*
X157985000Y-81585000I0J150000D01*
G01*
G37*
G36*
G01*
X157985000Y-80315000D02*
X157985000Y-80015000D01*
G75*
G02*
X158135000Y-79865000I150000J0D01*
G01*
X159385000Y-79865000D01*
G75*
G02*
X159535000Y-80015000I0J-150000D01*
G01*
X159535000Y-80315000D01*
G75*
G02*
X159385000Y-80465000I-150000J0D01*
G01*
X158135000Y-80465000D01*
G75*
G02*
X157985000Y-80315000I0J150000D01*
G01*
G37*
G36*
G01*
X157985000Y-79045000D02*
X157985000Y-78745000D01*
G75*
G02*
X158135000Y-78595000I150000J0D01*
G01*
X159385000Y-78595000D01*
G75*
G02*
X159535000Y-78745000I0J-150000D01*
G01*
X159535000Y-79045000D01*
G75*
G02*
X159385000Y-79195000I-150000J0D01*
G01*
X158135000Y-79195000D01*
G75*
G02*
X157985000Y-79045000I0J150000D01*
G01*
G37*
G36*
G01*
X127095000Y-73715000D02*
X127095000Y-74015000D01*
G75*
G02*
X126945000Y-74165000I-150000J0D01*
G01*
X125695000Y-74165000D01*
G75*
G02*
X125545000Y-74015000I0J150000D01*
G01*
X125545000Y-73715000D01*
G75*
G02*
X125695000Y-73565000I150000J0D01*
G01*
X126945000Y-73565000D01*
G75*
G02*
X127095000Y-73715000I0J-150000D01*
G01*
G37*
G36*
G01*
X127095000Y-72445000D02*
X127095000Y-72745000D01*
G75*
G02*
X126945000Y-72895000I-150000J0D01*
G01*
X125695000Y-72895000D01*
G75*
G02*
X125545000Y-72745000I0J150000D01*
G01*
X125545000Y-72445000D01*
G75*
G02*
X125695000Y-72295000I150000J0D01*
G01*
X126945000Y-72295000D01*
G75*
G02*
X127095000Y-72445000I0J-150000D01*
G01*
G37*
G36*
G01*
X127095000Y-71175000D02*
X127095000Y-71475000D01*
G75*
G02*
X126945000Y-71625000I-150000J0D01*
G01*
X125695000Y-71625000D01*
G75*
G02*
X125545000Y-71475000I0J150000D01*
G01*
X125545000Y-71175000D01*
G75*
G02*
X125695000Y-71025000I150000J0D01*
G01*
X126945000Y-71025000D01*
G75*
G02*
X127095000Y-71175000I0J-150000D01*
G01*
G37*
G36*
G01*
X127095000Y-69905000D02*
X127095000Y-70205000D01*
G75*
G02*
X126945000Y-70355000I-150000J0D01*
G01*
X125695000Y-70355000D01*
G75*
G02*
X125545000Y-70205000I0J150000D01*
G01*
X125545000Y-69905000D01*
G75*
G02*
X125695000Y-69755000I150000J0D01*
G01*
X126945000Y-69755000D01*
G75*
G02*
X127095000Y-69905000I0J-150000D01*
G01*
G37*
G36*
G01*
X121695000Y-69905000D02*
X121695000Y-70205000D01*
G75*
G02*
X121545000Y-70355000I-150000J0D01*
G01*
X120295000Y-70355000D01*
G75*
G02*
X120145000Y-70205000I0J150000D01*
G01*
X120145000Y-69905000D01*
G75*
G02*
X120295000Y-69755000I150000J0D01*
G01*
X121545000Y-69755000D01*
G75*
G02*
X121695000Y-69905000I0J-150000D01*
G01*
G37*
G36*
G01*
X121695000Y-71175000D02*
X121695000Y-71475000D01*
G75*
G02*
X121545000Y-71625000I-150000J0D01*
G01*
X120295000Y-71625000D01*
G75*
G02*
X120145000Y-71475000I0J150000D01*
G01*
X120145000Y-71175000D01*
G75*
G02*
X120295000Y-71025000I150000J0D01*
G01*
X121545000Y-71025000D01*
G75*
G02*
X121695000Y-71175000I0J-150000D01*
G01*
G37*
G36*
G01*
X121695000Y-72445000D02*
X121695000Y-72745000D01*
G75*
G02*
X121545000Y-72895000I-150000J0D01*
G01*
X120295000Y-72895000D01*
G75*
G02*
X120145000Y-72745000I0J150000D01*
G01*
X120145000Y-72445000D01*
G75*
G02*
X120295000Y-72295000I150000J0D01*
G01*
X121545000Y-72295000D01*
G75*
G02*
X121695000Y-72445000I0J-150000D01*
G01*
G37*
G36*
G01*
X121695000Y-73715000D02*
X121695000Y-74015000D01*
G75*
G02*
X121545000Y-74165000I-150000J0D01*
G01*
X120295000Y-74165000D01*
G75*
G02*
X120145000Y-74015000I0J150000D01*
G01*
X120145000Y-73715000D01*
G75*
G02*
X120295000Y-73565000I150000J0D01*
G01*
X121545000Y-73565000D01*
G75*
G02*
X121695000Y-73715000I0J-150000D01*
G01*
G37*
G36*
G01*
X122835000Y-103005000D02*
X122835000Y-103305000D01*
G75*
G02*
X122685000Y-103455000I-150000J0D01*
G01*
X121435000Y-103455000D01*
G75*
G02*
X121285000Y-103305000I0J150000D01*
G01*
X121285000Y-103005000D01*
G75*
G02*
X121435000Y-102855000I150000J0D01*
G01*
X122685000Y-102855000D01*
G75*
G02*
X122835000Y-103005000I0J-150000D01*
G01*
G37*
G36*
G01*
X122835000Y-101735000D02*
X122835000Y-102035000D01*
G75*
G02*
X122685000Y-102185000I-150000J0D01*
G01*
X121435000Y-102185000D01*
G75*
G02*
X121285000Y-102035000I0J150000D01*
G01*
X121285000Y-101735000D01*
G75*
G02*
X121435000Y-101585000I150000J0D01*
G01*
X122685000Y-101585000D01*
G75*
G02*
X122835000Y-101735000I0J-150000D01*
G01*
G37*
G36*
G01*
X122835000Y-100465000D02*
X122835000Y-100765000D01*
G75*
G02*
X122685000Y-100915000I-150000J0D01*
G01*
X121435000Y-100915000D01*
G75*
G02*
X121285000Y-100765000I0J150000D01*
G01*
X121285000Y-100465000D01*
G75*
G02*
X121435000Y-100315000I150000J0D01*
G01*
X122685000Y-100315000D01*
G75*
G02*
X122835000Y-100465000I0J-150000D01*
G01*
G37*
G36*
G01*
X122835000Y-99195000D02*
X122835000Y-99495000D01*
G75*
G02*
X122685000Y-99645000I-150000J0D01*
G01*
X121435000Y-99645000D01*
G75*
G02*
X121285000Y-99495000I0J150000D01*
G01*
X121285000Y-99195000D01*
G75*
G02*
X121435000Y-99045000I150000J0D01*
G01*
X122685000Y-99045000D01*
G75*
G02*
X122835000Y-99195000I0J-150000D01*
G01*
G37*
G36*
G01*
X117435000Y-99195000D02*
X117435000Y-99495000D01*
G75*
G02*
X117285000Y-99645000I-150000J0D01*
G01*
X116035000Y-99645000D01*
G75*
G02*
X115885000Y-99495000I0J150000D01*
G01*
X115885000Y-99195000D01*
G75*
G02*
X116035000Y-99045000I150000J0D01*
G01*
X117285000Y-99045000D01*
G75*
G02*
X117435000Y-99195000I0J-150000D01*
G01*
G37*
G36*
G01*
X117435000Y-100465000D02*
X117435000Y-100765000D01*
G75*
G02*
X117285000Y-100915000I-150000J0D01*
G01*
X116035000Y-100915000D01*
G75*
G02*
X115885000Y-100765000I0J150000D01*
G01*
X115885000Y-100465000D01*
G75*
G02*
X116035000Y-100315000I150000J0D01*
G01*
X117285000Y-100315000D01*
G75*
G02*
X117435000Y-100465000I0J-150000D01*
G01*
G37*
G36*
G01*
X117435000Y-101735000D02*
X117435000Y-102035000D01*
G75*
G02*
X117285000Y-102185000I-150000J0D01*
G01*
X116035000Y-102185000D01*
G75*
G02*
X115885000Y-102035000I0J150000D01*
G01*
X115885000Y-101735000D01*
G75*
G02*
X116035000Y-101585000I150000J0D01*
G01*
X117285000Y-101585000D01*
G75*
G02*
X117435000Y-101735000I0J-150000D01*
G01*
G37*
G36*
G01*
X117435000Y-103005000D02*
X117435000Y-103305000D01*
G75*
G02*
X117285000Y-103455000I-150000J0D01*
G01*
X116035000Y-103455000D01*
G75*
G02*
X115885000Y-103305000I0J150000D01*
G01*
X115885000Y-103005000D01*
G75*
G02*
X116035000Y-102855000I150000J0D01*
G01*
X117285000Y-102855000D01*
G75*
G02*
X117435000Y-103005000I0J-150000D01*
G01*
G37*
G36*
G01*
X165275000Y-66390000D02*
X165275000Y-66090000D01*
G75*
G02*
X165425000Y-65940000I150000J0D01*
G01*
X166675000Y-65940000D01*
G75*
G02*
X166825000Y-66090000I0J-150000D01*
G01*
X166825000Y-66390000D01*
G75*
G02*
X166675000Y-66540000I-150000J0D01*
G01*
X165425000Y-66540000D01*
G75*
G02*
X165275000Y-66390000I0J150000D01*
G01*
G37*
G36*
G01*
X165275000Y-67660000D02*
X165275000Y-67360000D01*
G75*
G02*
X165425000Y-67210000I150000J0D01*
G01*
X166675000Y-67210000D01*
G75*
G02*
X166825000Y-67360000I0J-150000D01*
G01*
X166825000Y-67660000D01*
G75*
G02*
X166675000Y-67810000I-150000J0D01*
G01*
X165425000Y-67810000D01*
G75*
G02*
X165275000Y-67660000I0J150000D01*
G01*
G37*
G36*
G01*
X165275000Y-68930000D02*
X165275000Y-68630000D01*
G75*
G02*
X165425000Y-68480000I150000J0D01*
G01*
X166675000Y-68480000D01*
G75*
G02*
X166825000Y-68630000I0J-150000D01*
G01*
X166825000Y-68930000D01*
G75*
G02*
X166675000Y-69080000I-150000J0D01*
G01*
X165425000Y-69080000D01*
G75*
G02*
X165275000Y-68930000I0J150000D01*
G01*
G37*
G36*
G01*
X165275000Y-70200000D02*
X165275000Y-69900000D01*
G75*
G02*
X165425000Y-69750000I150000J0D01*
G01*
X166675000Y-69750000D01*
G75*
G02*
X166825000Y-69900000I0J-150000D01*
G01*
X166825000Y-70200000D01*
G75*
G02*
X166675000Y-70350000I-150000J0D01*
G01*
X165425000Y-70350000D01*
G75*
G02*
X165275000Y-70200000I0J150000D01*
G01*
G37*
G36*
G01*
X165275000Y-71470000D02*
X165275000Y-71170000D01*
G75*
G02*
X165425000Y-71020000I150000J0D01*
G01*
X166675000Y-71020000D01*
G75*
G02*
X166825000Y-71170000I0J-150000D01*
G01*
X166825000Y-71470000D01*
G75*
G02*
X166675000Y-71620000I-150000J0D01*
G01*
X165425000Y-71620000D01*
G75*
G02*
X165275000Y-71470000I0J150000D01*
G01*
G37*
G36*
G01*
X165275000Y-72740000D02*
X165275000Y-72440000D01*
G75*
G02*
X165425000Y-72290000I150000J0D01*
G01*
X166675000Y-72290000D01*
G75*
G02*
X166825000Y-72440000I0J-150000D01*
G01*
X166825000Y-72740000D01*
G75*
G02*
X166675000Y-72890000I-150000J0D01*
G01*
X165425000Y-72890000D01*
G75*
G02*
X165275000Y-72740000I0J150000D01*
G01*
G37*
G36*
G01*
X165275000Y-74010000D02*
X165275000Y-73710000D01*
G75*
G02*
X165425000Y-73560000I150000J0D01*
G01*
X166675000Y-73560000D01*
G75*
G02*
X166825000Y-73710000I0J-150000D01*
G01*
X166825000Y-74010000D01*
G75*
G02*
X166675000Y-74160000I-150000J0D01*
G01*
X165425000Y-74160000D01*
G75*
G02*
X165275000Y-74010000I0J150000D01*
G01*
G37*
G36*
G01*
X170675000Y-74010000D02*
X170675000Y-73710000D01*
G75*
G02*
X170825000Y-73560000I150000J0D01*
G01*
X172075000Y-73560000D01*
G75*
G02*
X172225000Y-73710000I0J-150000D01*
G01*
X172225000Y-74010000D01*
G75*
G02*
X172075000Y-74160000I-150000J0D01*
G01*
X170825000Y-74160000D01*
G75*
G02*
X170675000Y-74010000I0J150000D01*
G01*
G37*
G36*
G01*
X170675000Y-72740000D02*
X170675000Y-72440000D01*
G75*
G02*
X170825000Y-72290000I150000J0D01*
G01*
X172075000Y-72290000D01*
G75*
G02*
X172225000Y-72440000I0J-150000D01*
G01*
X172225000Y-72740000D01*
G75*
G02*
X172075000Y-72890000I-150000J0D01*
G01*
X170825000Y-72890000D01*
G75*
G02*
X170675000Y-72740000I0J150000D01*
G01*
G37*
G36*
G01*
X170675000Y-71470000D02*
X170675000Y-71170000D01*
G75*
G02*
X170825000Y-71020000I150000J0D01*
G01*
X172075000Y-71020000D01*
G75*
G02*
X172225000Y-71170000I0J-150000D01*
G01*
X172225000Y-71470000D01*
G75*
G02*
X172075000Y-71620000I-150000J0D01*
G01*
X170825000Y-71620000D01*
G75*
G02*
X170675000Y-71470000I0J150000D01*
G01*
G37*
G36*
G01*
X170675000Y-70200000D02*
X170675000Y-69900000D01*
G75*
G02*
X170825000Y-69750000I150000J0D01*
G01*
X172075000Y-69750000D01*
G75*
G02*
X172225000Y-69900000I0J-150000D01*
G01*
X172225000Y-70200000D01*
G75*
G02*
X172075000Y-70350000I-150000J0D01*
G01*
X170825000Y-70350000D01*
G75*
G02*
X170675000Y-70200000I0J150000D01*
G01*
G37*
G36*
G01*
X170675000Y-68930000D02*
X170675000Y-68630000D01*
G75*
G02*
X170825000Y-68480000I150000J0D01*
G01*
X172075000Y-68480000D01*
G75*
G02*
X172225000Y-68630000I0J-150000D01*
G01*
X172225000Y-68930000D01*
G75*
G02*
X172075000Y-69080000I-150000J0D01*
G01*
X170825000Y-69080000D01*
G75*
G02*
X170675000Y-68930000I0J150000D01*
G01*
G37*
G36*
G01*
X170675000Y-67660000D02*
X170675000Y-67360000D01*
G75*
G02*
X170825000Y-67210000I150000J0D01*
G01*
X172075000Y-67210000D01*
G75*
G02*
X172225000Y-67360000I0J-150000D01*
G01*
X172225000Y-67660000D01*
G75*
G02*
X172075000Y-67810000I-150000J0D01*
G01*
X170825000Y-67810000D01*
G75*
G02*
X170675000Y-67660000I0J150000D01*
G01*
G37*
G36*
G01*
X170675000Y-66390000D02*
X170675000Y-66090000D01*
G75*
G02*
X170825000Y-65940000I150000J0D01*
G01*
X172075000Y-65940000D01*
G75*
G02*
X172225000Y-66090000I0J-150000D01*
G01*
X172225000Y-66390000D01*
G75*
G02*
X172075000Y-66540000I-150000J0D01*
G01*
X170825000Y-66540000D01*
G75*
G02*
X170675000Y-66390000I0J150000D01*
G01*
G37*
G36*
G01*
X158975000Y-95365000D02*
X158975000Y-95065000D01*
G75*
G02*
X159125000Y-94915000I150000J0D01*
G01*
X160375000Y-94915000D01*
G75*
G02*
X160525000Y-95065000I0J-150000D01*
G01*
X160525000Y-95365000D01*
G75*
G02*
X160375000Y-95515000I-150000J0D01*
G01*
X159125000Y-95515000D01*
G75*
G02*
X158975000Y-95365000I0J150000D01*
G01*
G37*
G36*
G01*
X158975000Y-96635000D02*
X158975000Y-96335000D01*
G75*
G02*
X159125000Y-96185000I150000J0D01*
G01*
X160375000Y-96185000D01*
G75*
G02*
X160525000Y-96335000I0J-150000D01*
G01*
X160525000Y-96635000D01*
G75*
G02*
X160375000Y-96785000I-150000J0D01*
G01*
X159125000Y-96785000D01*
G75*
G02*
X158975000Y-96635000I0J150000D01*
G01*
G37*
G36*
G01*
X158975000Y-97905000D02*
X158975000Y-97605000D01*
G75*
G02*
X159125000Y-97455000I150000J0D01*
G01*
X160375000Y-97455000D01*
G75*
G02*
X160525000Y-97605000I0J-150000D01*
G01*
X160525000Y-97905000D01*
G75*
G02*
X160375000Y-98055000I-150000J0D01*
G01*
X159125000Y-98055000D01*
G75*
G02*
X158975000Y-97905000I0J150000D01*
G01*
G37*
G36*
G01*
X158975000Y-99175000D02*
X158975000Y-98875000D01*
G75*
G02*
X159125000Y-98725000I150000J0D01*
G01*
X160375000Y-98725000D01*
G75*
G02*
X160525000Y-98875000I0J-150000D01*
G01*
X160525000Y-99175000D01*
G75*
G02*
X160375000Y-99325000I-150000J0D01*
G01*
X159125000Y-99325000D01*
G75*
G02*
X158975000Y-99175000I0J150000D01*
G01*
G37*
G36*
G01*
X153575000Y-99175000D02*
X153575000Y-98875000D01*
G75*
G02*
X153725000Y-98725000I150000J0D01*
G01*
X154975000Y-98725000D01*
G75*
G02*
X155125000Y-98875000I0J-150000D01*
G01*
X155125000Y-99175000D01*
G75*
G02*
X154975000Y-99325000I-150000J0D01*
G01*
X153725000Y-99325000D01*
G75*
G02*
X153575000Y-99175000I0J150000D01*
G01*
G37*
G36*
G01*
X153575000Y-97905000D02*
X153575000Y-97605000D01*
G75*
G02*
X153725000Y-97455000I150000J0D01*
G01*
X154975000Y-97455000D01*
G75*
G02*
X155125000Y-97605000I0J-150000D01*
G01*
X155125000Y-97905000D01*
G75*
G02*
X154975000Y-98055000I-150000J0D01*
G01*
X153725000Y-98055000D01*
G75*
G02*
X153575000Y-97905000I0J150000D01*
G01*
G37*
G36*
G01*
X153575000Y-96635000D02*
X153575000Y-96335000D01*
G75*
G02*
X153725000Y-96185000I150000J0D01*
G01*
X154975000Y-96185000D01*
G75*
G02*
X155125000Y-96335000I0J-150000D01*
G01*
X155125000Y-96635000D01*
G75*
G02*
X154975000Y-96785000I-150000J0D01*
G01*
X153725000Y-96785000D01*
G75*
G02*
X153575000Y-96635000I0J150000D01*
G01*
G37*
G36*
G01*
X153575000Y-95365000D02*
X153575000Y-95065000D01*
G75*
G02*
X153725000Y-94915000I150000J0D01*
G01*
X154975000Y-94915000D01*
G75*
G02*
X155125000Y-95065000I0J-150000D01*
G01*
X155125000Y-95365000D01*
G75*
G02*
X154975000Y-95515000I-150000J0D01*
G01*
X153725000Y-95515000D01*
G75*
G02*
X153575000Y-95365000I0J150000D01*
G01*
G37*
G36*
G01*
X163605000Y-95405000D02*
X163605000Y-95105000D01*
G75*
G02*
X163755000Y-94955000I150000J0D01*
G01*
X165005000Y-94955000D01*
G75*
G02*
X165155000Y-95105000I0J-150000D01*
G01*
X165155000Y-95405000D01*
G75*
G02*
X165005000Y-95555000I-150000J0D01*
G01*
X163755000Y-95555000D01*
G75*
G02*
X163605000Y-95405000I0J150000D01*
G01*
G37*
G36*
G01*
X163605000Y-96675000D02*
X163605000Y-96375000D01*
G75*
G02*
X163755000Y-96225000I150000J0D01*
G01*
X165005000Y-96225000D01*
G75*
G02*
X165155000Y-96375000I0J-150000D01*
G01*
X165155000Y-96675000D01*
G75*
G02*
X165005000Y-96825000I-150000J0D01*
G01*
X163755000Y-96825000D01*
G75*
G02*
X163605000Y-96675000I0J150000D01*
G01*
G37*
G36*
G01*
X163605000Y-97945000D02*
X163605000Y-97645000D01*
G75*
G02*
X163755000Y-97495000I150000J0D01*
G01*
X165005000Y-97495000D01*
G75*
G02*
X165155000Y-97645000I0J-150000D01*
G01*
X165155000Y-97945000D01*
G75*
G02*
X165005000Y-98095000I-150000J0D01*
G01*
X163755000Y-98095000D01*
G75*
G02*
X163605000Y-97945000I0J150000D01*
G01*
G37*
G36*
G01*
X163605000Y-99215000D02*
X163605000Y-98915000D01*
G75*
G02*
X163755000Y-98765000I150000J0D01*
G01*
X165005000Y-98765000D01*
G75*
G02*
X165155000Y-98915000I0J-150000D01*
G01*
X165155000Y-99215000D01*
G75*
G02*
X165005000Y-99365000I-150000J0D01*
G01*
X163755000Y-99365000D01*
G75*
G02*
X163605000Y-99215000I0J150000D01*
G01*
G37*
G36*
G01*
X169005000Y-99215000D02*
X169005000Y-98915000D01*
G75*
G02*
X169155000Y-98765000I150000J0D01*
G01*
X170405000Y-98765000D01*
G75*
G02*
X170555000Y-98915000I0J-150000D01*
G01*
X170555000Y-99215000D01*
G75*
G02*
X170405000Y-99365000I-150000J0D01*
G01*
X169155000Y-99365000D01*
G75*
G02*
X169005000Y-99215000I0J150000D01*
G01*
G37*
G36*
G01*
X169005000Y-97945000D02*
X169005000Y-97645000D01*
G75*
G02*
X169155000Y-97495000I150000J0D01*
G01*
X170405000Y-97495000D01*
G75*
G02*
X170555000Y-97645000I0J-150000D01*
G01*
X170555000Y-97945000D01*
G75*
G02*
X170405000Y-98095000I-150000J0D01*
G01*
X169155000Y-98095000D01*
G75*
G02*
X169005000Y-97945000I0J150000D01*
G01*
G37*
G36*
G01*
X169005000Y-96675000D02*
X169005000Y-96375000D01*
G75*
G02*
X169155000Y-96225000I150000J0D01*
G01*
X170405000Y-96225000D01*
G75*
G02*
X170555000Y-96375000I0J-150000D01*
G01*
X170555000Y-96675000D01*
G75*
G02*
X170405000Y-96825000I-150000J0D01*
G01*
X169155000Y-96825000D01*
G75*
G02*
X169005000Y-96675000I0J150000D01*
G01*
G37*
G36*
G01*
X169005000Y-95405000D02*
X169005000Y-95105000D01*
G75*
G02*
X169155000Y-94955000I150000J0D01*
G01*
X170405000Y-94955000D01*
G75*
G02*
X170555000Y-95105000I0J-150000D01*
G01*
X170555000Y-95405000D01*
G75*
G02*
X170405000Y-95555000I-150000J0D01*
G01*
X169155000Y-95555000D01*
G75*
G02*
X169005000Y-95405000I0J150000D01*
G01*
G37*
G36*
G01*
X105945000Y-74104999D02*
X105945000Y-74655001D01*
G75*
G02*
X105695001Y-74905000I-249999J0D01*
G01*
X105144999Y-74905000D01*
G75*
G02*
X104895000Y-74655001I0J249999D01*
G01*
X104895000Y-74104999D01*
G75*
G02*
X105144999Y-73855000I249999J0D01*
G01*
X105695001Y-73855000D01*
G75*
G02*
X105945000Y-74104999I0J-249999D01*
G01*
G37*
G36*
G01*
X105945000Y-75044999D02*
X105945000Y-75595001D01*
G75*
G02*
X105695001Y-75845000I-249999J0D01*
G01*
X105144999Y-75845000D01*
G75*
G02*
X104895000Y-75595001I0J249999D01*
G01*
X104895000Y-75044999D01*
G75*
G02*
X105144999Y-74795000I249999J0D01*
G01*
X105695001Y-74795000D01*
G75*
G02*
X105945000Y-75044999I0J-249999D01*
G01*
G37*
G36*
G01*
X106885000Y-74104999D02*
X106885000Y-74655001D01*
G75*
G02*
X106635001Y-74905000I-249999J0D01*
G01*
X106084999Y-74905000D01*
G75*
G02*
X105835000Y-74655001I0J249999D01*
G01*
X105835000Y-74104999D01*
G75*
G02*
X106084999Y-73855000I249999J0D01*
G01*
X106635001Y-73855000D01*
G75*
G02*
X106885000Y-74104999I0J-249999D01*
G01*
G37*
G36*
G01*
X106885000Y-75044999D02*
X106885000Y-75595001D01*
G75*
G02*
X106635001Y-75845000I-249999J0D01*
G01*
X106084999Y-75845000D01*
G75*
G02*
X105835000Y-75595001I0J249999D01*
G01*
X105835000Y-75044999D01*
G75*
G02*
X106084999Y-74795000I249999J0D01*
G01*
X106635001Y-74795000D01*
G75*
G02*
X106885000Y-75044999I0J-249999D01*
G01*
G37*
G36*
G01*
X107290000Y-76450000D02*
X107290000Y-77125000D01*
G75*
G02*
X107215000Y-77200000I-75000J0D01*
G01*
X107065000Y-77200000D01*
G75*
G02*
X106990000Y-77125000I0J75000D01*
G01*
X106990000Y-76450000D01*
G75*
G02*
X107065000Y-76375000I75000J0D01*
G01*
X107215000Y-76375000D01*
G75*
G02*
X107290000Y-76450000I0J-75000D01*
G01*
G37*
G36*
G01*
X106790000Y-76450000D02*
X106790000Y-77125000D01*
G75*
G02*
X106715000Y-77200000I-75000J0D01*
G01*
X106565000Y-77200000D01*
G75*
G02*
X106490000Y-77125000I0J75000D01*
G01*
X106490000Y-76450000D01*
G75*
G02*
X106565000Y-76375000I75000J0D01*
G01*
X106715000Y-76375000D01*
G75*
G02*
X106790000Y-76450000I0J-75000D01*
G01*
G37*
G36*
G01*
X106290000Y-76450000D02*
X106290000Y-77125000D01*
G75*
G02*
X106215000Y-77200000I-75000J0D01*
G01*
X106065000Y-77200000D01*
G75*
G02*
X105990000Y-77125000I0J75000D01*
G01*
X105990000Y-76450000D01*
G75*
G02*
X106065000Y-76375000I75000J0D01*
G01*
X106215000Y-76375000D01*
G75*
G02*
X106290000Y-76450000I0J-75000D01*
G01*
G37*
G36*
G01*
X105790000Y-76450000D02*
X105790000Y-77125000D01*
G75*
G02*
X105715000Y-77200000I-75000J0D01*
G01*
X105565000Y-77200000D01*
G75*
G02*
X105490000Y-77125000I0J75000D01*
G01*
X105490000Y-76450000D01*
G75*
G02*
X105565000Y-76375000I75000J0D01*
G01*
X105715000Y-76375000D01*
G75*
G02*
X105790000Y-76450000I0J-75000D01*
G01*
G37*
G36*
G01*
X105290000Y-76450000D02*
X105290000Y-77125000D01*
G75*
G02*
X105215000Y-77200000I-75000J0D01*
G01*
X105065000Y-77200000D01*
G75*
G02*
X104990000Y-77125000I0J75000D01*
G01*
X104990000Y-76450000D01*
G75*
G02*
X105065000Y-76375000I75000J0D01*
G01*
X105215000Y-76375000D01*
G75*
G02*
X105290000Y-76450000I0J-75000D01*
G01*
G37*
G36*
G01*
X104790000Y-76450000D02*
X104790000Y-77125000D01*
G75*
G02*
X104715000Y-77200000I-75000J0D01*
G01*
X104565000Y-77200000D01*
G75*
G02*
X104490000Y-77125000I0J75000D01*
G01*
X104490000Y-76450000D01*
G75*
G02*
X104565000Y-76375000I75000J0D01*
G01*
X104715000Y-76375000D01*
G75*
G02*
X104790000Y-76450000I0J-75000D01*
G01*
G37*
G36*
G01*
X104365000Y-76025000D02*
X104365000Y-76175000D01*
G75*
G02*
X104290000Y-76250000I-75000J0D01*
G01*
X103615000Y-76250000D01*
G75*
G02*
X103540000Y-76175000I0J75000D01*
G01*
X103540000Y-76025000D01*
G75*
G02*
X103615000Y-75950000I75000J0D01*
G01*
X104290000Y-75950000D01*
G75*
G02*
X104365000Y-76025000I0J-75000D01*
G01*
G37*
G36*
G01*
X104365000Y-75525000D02*
X104365000Y-75675000D01*
G75*
G02*
X104290000Y-75750000I-75000J0D01*
G01*
X103615000Y-75750000D01*
G75*
G02*
X103540000Y-75675000I0J75000D01*
G01*
X103540000Y-75525000D01*
G75*
G02*
X103615000Y-75450000I75000J0D01*
G01*
X104290000Y-75450000D01*
G75*
G02*
X104365000Y-75525000I0J-75000D01*
G01*
G37*
G36*
G01*
X104365000Y-75025000D02*
X104365000Y-75175000D01*
G75*
G02*
X104290000Y-75250000I-75000J0D01*
G01*
X103615000Y-75250000D01*
G75*
G02*
X103540000Y-75175000I0J75000D01*
G01*
X103540000Y-75025000D01*
G75*
G02*
X103615000Y-74950000I75000J0D01*
G01*
X104290000Y-74950000D01*
G75*
G02*
X104365000Y-75025000I0J-75000D01*
G01*
G37*
G36*
G01*
X104365000Y-74525000D02*
X104365000Y-74675000D01*
G75*
G02*
X104290000Y-74750000I-75000J0D01*
G01*
X103615000Y-74750000D01*
G75*
G02*
X103540000Y-74675000I0J75000D01*
G01*
X103540000Y-74525000D01*
G75*
G02*
X103615000Y-74450000I75000J0D01*
G01*
X104290000Y-74450000D01*
G75*
G02*
X104365000Y-74525000I0J-75000D01*
G01*
G37*
G36*
G01*
X104365000Y-74025000D02*
X104365000Y-74175000D01*
G75*
G02*
X104290000Y-74250000I-75000J0D01*
G01*
X103615000Y-74250000D01*
G75*
G02*
X103540000Y-74175000I0J75000D01*
G01*
X103540000Y-74025000D01*
G75*
G02*
X103615000Y-73950000I75000J0D01*
G01*
X104290000Y-73950000D01*
G75*
G02*
X104365000Y-74025000I0J-75000D01*
G01*
G37*
G36*
G01*
X104365000Y-73525000D02*
X104365000Y-73675000D01*
G75*
G02*
X104290000Y-73750000I-75000J0D01*
G01*
X103615000Y-73750000D01*
G75*
G02*
X103540000Y-73675000I0J75000D01*
G01*
X103540000Y-73525000D01*
G75*
G02*
X103615000Y-73450000I75000J0D01*
G01*
X104290000Y-73450000D01*
G75*
G02*
X104365000Y-73525000I0J-75000D01*
G01*
G37*
G36*
G01*
X104790000Y-72575000D02*
X104790000Y-73250000D01*
G75*
G02*
X104715000Y-73325000I-75000J0D01*
G01*
X104565000Y-73325000D01*
G75*
G02*
X104490000Y-73250000I0J75000D01*
G01*
X104490000Y-72575000D01*
G75*
G02*
X104565000Y-72500000I75000J0D01*
G01*
X104715000Y-72500000D01*
G75*
G02*
X104790000Y-72575000I0J-75000D01*
G01*
G37*
G36*
G01*
X105290000Y-72575000D02*
X105290000Y-73250000D01*
G75*
G02*
X105215000Y-73325000I-75000J0D01*
G01*
X105065000Y-73325000D01*
G75*
G02*
X104990000Y-73250000I0J75000D01*
G01*
X104990000Y-72575000D01*
G75*
G02*
X105065000Y-72500000I75000J0D01*
G01*
X105215000Y-72500000D01*
G75*
G02*
X105290000Y-72575000I0J-75000D01*
G01*
G37*
G36*
G01*
X105790000Y-72575000D02*
X105790000Y-73250000D01*
G75*
G02*
X105715000Y-73325000I-75000J0D01*
G01*
X105565000Y-73325000D01*
G75*
G02*
X105490000Y-73250000I0J75000D01*
G01*
X105490000Y-72575000D01*
G75*
G02*
X105565000Y-72500000I75000J0D01*
G01*
X105715000Y-72500000D01*
G75*
G02*
X105790000Y-72575000I0J-75000D01*
G01*
G37*
G36*
G01*
X106290000Y-72575000D02*
X106290000Y-73250000D01*
G75*
G02*
X106215000Y-73325000I-75000J0D01*
G01*
X106065000Y-73325000D01*
G75*
G02*
X105990000Y-73250000I0J75000D01*
G01*
X105990000Y-72575000D01*
G75*
G02*
X106065000Y-72500000I75000J0D01*
G01*
X106215000Y-72500000D01*
G75*
G02*
X106290000Y-72575000I0J-75000D01*
G01*
G37*
G36*
G01*
X106790000Y-72575000D02*
X106790000Y-73250000D01*
G75*
G02*
X106715000Y-73325000I-75000J0D01*
G01*
X106565000Y-73325000D01*
G75*
G02*
X106490000Y-73250000I0J75000D01*
G01*
X106490000Y-72575000D01*
G75*
G02*
X106565000Y-72500000I75000J0D01*
G01*
X106715000Y-72500000D01*
G75*
G02*
X106790000Y-72575000I0J-75000D01*
G01*
G37*
G36*
G01*
X107290000Y-72575000D02*
X107290000Y-73250000D01*
G75*
G02*
X107215000Y-73325000I-75000J0D01*
G01*
X107065000Y-73325000D01*
G75*
G02*
X106990000Y-73250000I0J75000D01*
G01*
X106990000Y-72575000D01*
G75*
G02*
X107065000Y-72500000I75000J0D01*
G01*
X107215000Y-72500000D01*
G75*
G02*
X107290000Y-72575000I0J-75000D01*
G01*
G37*
G36*
G01*
X108240000Y-73525000D02*
X108240000Y-73675000D01*
G75*
G02*
X108165000Y-73750000I-75000J0D01*
G01*
X107490000Y-73750000D01*
G75*
G02*
X107415000Y-73675000I0J75000D01*
G01*
X107415000Y-73525000D01*
G75*
G02*
X107490000Y-73450000I75000J0D01*
G01*
X108165000Y-73450000D01*
G75*
G02*
X108240000Y-73525000I0J-75000D01*
G01*
G37*
G36*
G01*
X108240000Y-74025000D02*
X108240000Y-74175000D01*
G75*
G02*
X108165000Y-74250000I-75000J0D01*
G01*
X107490000Y-74250000D01*
G75*
G02*
X107415000Y-74175000I0J75000D01*
G01*
X107415000Y-74025000D01*
G75*
G02*
X107490000Y-73950000I75000J0D01*
G01*
X108165000Y-73950000D01*
G75*
G02*
X108240000Y-74025000I0J-75000D01*
G01*
G37*
G36*
G01*
X108240000Y-74495000D02*
X108240000Y-74645000D01*
G75*
G02*
X108165000Y-74720000I-75000J0D01*
G01*
X107490000Y-74720000D01*
G75*
G02*
X107415000Y-74645000I0J75000D01*
G01*
X107415000Y-74495000D01*
G75*
G02*
X107490000Y-74420000I75000J0D01*
G01*
X108165000Y-74420000D01*
G75*
G02*
X108240000Y-74495000I0J-75000D01*
G01*
G37*
G36*
G01*
X108240000Y-75025000D02*
X108240000Y-75175000D01*
G75*
G02*
X108165000Y-75250000I-75000J0D01*
G01*
X107490000Y-75250000D01*
G75*
G02*
X107415000Y-75175000I0J75000D01*
G01*
X107415000Y-75025000D01*
G75*
G02*
X107490000Y-74950000I75000J0D01*
G01*
X108165000Y-74950000D01*
G75*
G02*
X108240000Y-75025000I0J-75000D01*
G01*
G37*
G36*
G01*
X108240000Y-75525000D02*
X108240000Y-75675000D01*
G75*
G02*
X108165000Y-75750000I-75000J0D01*
G01*
X107490000Y-75750000D01*
G75*
G02*
X107415000Y-75675000I0J75000D01*
G01*
X107415000Y-75525000D01*
G75*
G02*
X107490000Y-75450000I75000J0D01*
G01*
X108165000Y-75450000D01*
G75*
G02*
X108240000Y-75525000I0J-75000D01*
G01*
G37*
G36*
G01*
X108240000Y-76025000D02*
X108240000Y-76175000D01*
G75*
G02*
X108165000Y-76250000I-75000J0D01*
G01*
X107490000Y-76250000D01*
G75*
G02*
X107415000Y-76175000I0J75000D01*
G01*
X107415000Y-76025000D01*
G75*
G02*
X107490000Y-75950000I75000J0D01*
G01*
X108165000Y-75950000D01*
G75*
G02*
X108240000Y-76025000I0J-75000D01*
G01*
G37*
G36*
G01*
X153023750Y-91110000D02*
X153936250Y-91110000D01*
G75*
G02*
X154180000Y-91353750I0J-243750D01*
G01*
X154180000Y-91841250D01*
G75*
G02*
X153936250Y-92085000I-243750J0D01*
G01*
X153023750Y-92085000D01*
G75*
G02*
X152780000Y-91841250I0J243750D01*
G01*
X152780000Y-91353750D01*
G75*
G02*
X153023750Y-91110000I243750J0D01*
G01*
G37*
G36*
G01*
X153023750Y-89235000D02*
X153936250Y-89235000D01*
G75*
G02*
X154180000Y-89478750I0J-243750D01*
G01*
X154180000Y-89966250D01*
G75*
G02*
X153936250Y-90210000I-243750J0D01*
G01*
X153023750Y-90210000D01*
G75*
G02*
X152780000Y-89966250I0J243750D01*
G01*
X152780000Y-89478750D01*
G75*
G02*
X153023750Y-89235000I243750J0D01*
G01*
G37*
G36*
G01*
X94056250Y-68765000D02*
X93143750Y-68765000D01*
G75*
G02*
X92900000Y-68521250I0J243750D01*
G01*
X92900000Y-68033750D01*
G75*
G02*
X93143750Y-67790000I243750J0D01*
G01*
X94056250Y-67790000D01*
G75*
G02*
X94300000Y-68033750I0J-243750D01*
G01*
X94300000Y-68521250D01*
G75*
G02*
X94056250Y-68765000I-243750J0D01*
G01*
G37*
G36*
G01*
X94056250Y-66890000D02*
X93143750Y-66890000D01*
G75*
G02*
X92900000Y-66646250I0J243750D01*
G01*
X92900000Y-66158750D01*
G75*
G02*
X93143750Y-65915000I243750J0D01*
G01*
X94056250Y-65915000D01*
G75*
G02*
X94300000Y-66158750I0J-243750D01*
G01*
X94300000Y-66646250D01*
G75*
G02*
X94056250Y-66890000I-243750J0D01*
G01*
G37*
G36*
G01*
X96010000Y-77750000D02*
X97010000Y-77750000D01*
G75*
G02*
X97085000Y-77825000I0J-75000D01*
G01*
X97085000Y-77975000D01*
G75*
G02*
X97010000Y-78050000I-75000J0D01*
G01*
X96010000Y-78050000D01*
G75*
G02*
X95935000Y-77975000I0J75000D01*
G01*
X95935000Y-77825000D01*
G75*
G02*
X96010000Y-77750000I75000J0D01*
G01*
G37*
G36*
G01*
X96010000Y-76950000D02*
X97010000Y-76950000D01*
G75*
G02*
X97085000Y-77025000I0J-75000D01*
G01*
X97085000Y-77175000D01*
G75*
G02*
X97010000Y-77250000I-75000J0D01*
G01*
X96010000Y-77250000D01*
G75*
G02*
X95935000Y-77175000I0J75000D01*
G01*
X95935000Y-77025000D01*
G75*
G02*
X96010000Y-76950000I75000J0D01*
G01*
G37*
G36*
G01*
X96010000Y-76450000D02*
X97010000Y-76450000D01*
G75*
G02*
X97085000Y-76525000I0J-75000D01*
G01*
X97085000Y-76675000D01*
G75*
G02*
X97010000Y-76750000I-75000J0D01*
G01*
X96010000Y-76750000D01*
G75*
G02*
X95935000Y-76675000I0J75000D01*
G01*
X95935000Y-76525000D01*
G75*
G02*
X96010000Y-76450000I75000J0D01*
G01*
G37*
G36*
G01*
X96010000Y-75950000D02*
X97010000Y-75950000D01*
G75*
G02*
X97085000Y-76025000I0J-75000D01*
G01*
X97085000Y-76175000D01*
G75*
G02*
X97010000Y-76250000I-75000J0D01*
G01*
X96010000Y-76250000D01*
G75*
G02*
X95935000Y-76175000I0J75000D01*
G01*
X95935000Y-76025000D01*
G75*
G02*
X96010000Y-75950000I75000J0D01*
G01*
G37*
G36*
G01*
X96010000Y-75450000D02*
X97010000Y-75450000D01*
G75*
G02*
X97085000Y-75525000I0J-75000D01*
G01*
X97085000Y-75675000D01*
G75*
G02*
X97010000Y-75750000I-75000J0D01*
G01*
X96010000Y-75750000D01*
G75*
G02*
X95935000Y-75675000I0J75000D01*
G01*
X95935000Y-75525000D01*
G75*
G02*
X96010000Y-75450000I75000J0D01*
G01*
G37*
G36*
G01*
X96010000Y-74950000D02*
X97010000Y-74950000D01*
G75*
G02*
X97085000Y-75025000I0J-75000D01*
G01*
X97085000Y-75175000D01*
G75*
G02*
X97010000Y-75250000I-75000J0D01*
G01*
X96010000Y-75250000D01*
G75*
G02*
X95935000Y-75175000I0J75000D01*
G01*
X95935000Y-75025000D01*
G75*
G02*
X96010000Y-74950000I75000J0D01*
G01*
G37*
G36*
G01*
X96010000Y-74450000D02*
X97010000Y-74450000D01*
G75*
G02*
X97085000Y-74525000I0J-75000D01*
G01*
X97085000Y-74675000D01*
G75*
G02*
X97010000Y-74750000I-75000J0D01*
G01*
X96010000Y-74750000D01*
G75*
G02*
X95935000Y-74675000I0J75000D01*
G01*
X95935000Y-74525000D01*
G75*
G02*
X96010000Y-74450000I75000J0D01*
G01*
G37*
G36*
G01*
X96010000Y-73950000D02*
X97010000Y-73950000D01*
G75*
G02*
X97085000Y-74025000I0J-75000D01*
G01*
X97085000Y-74175000D01*
G75*
G02*
X97010000Y-74250000I-75000J0D01*
G01*
X96010000Y-74250000D01*
G75*
G02*
X95935000Y-74175000I0J75000D01*
G01*
X95935000Y-74025000D01*
G75*
G02*
X96010000Y-73950000I75000J0D01*
G01*
G37*
G36*
G01*
X96010000Y-73450000D02*
X97010000Y-73450000D01*
G75*
G02*
X97085000Y-73525000I0J-75000D01*
G01*
X97085000Y-73675000D01*
G75*
G02*
X97010000Y-73750000I-75000J0D01*
G01*
X96010000Y-73750000D01*
G75*
G02*
X95935000Y-73675000I0J75000D01*
G01*
X95935000Y-73525000D01*
G75*
G02*
X96010000Y-73450000I75000J0D01*
G01*
G37*
G36*
G01*
X96010000Y-72950000D02*
X97010000Y-72950000D01*
G75*
G02*
X97085000Y-73025000I0J-75000D01*
G01*
X97085000Y-73175000D01*
G75*
G02*
X97010000Y-73250000I-75000J0D01*
G01*
X96010000Y-73250000D01*
G75*
G02*
X95935000Y-73175000I0J75000D01*
G01*
X95935000Y-73025000D01*
G75*
G02*
X96010000Y-72950000I75000J0D01*
G01*
G37*
G36*
G01*
X96010000Y-72150000D02*
X97010000Y-72150000D01*
G75*
G02*
X97085000Y-72225000I0J-75000D01*
G01*
X97085000Y-72375000D01*
G75*
G02*
X97010000Y-72450000I-75000J0D01*
G01*
X96010000Y-72450000D01*
G75*
G02*
X95935000Y-72375000I0J75000D01*
G01*
X95935000Y-72225000D01*
G75*
G02*
X96010000Y-72150000I75000J0D01*
G01*
G37*
G36*
G01*
X96010000Y-71350000D02*
X97010000Y-71350000D01*
G75*
G02*
X97085000Y-71425000I0J-75000D01*
G01*
X97085000Y-71575000D01*
G75*
G02*
X97010000Y-71650000I-75000J0D01*
G01*
X96010000Y-71650000D01*
G75*
G02*
X95935000Y-71575000I0J75000D01*
G01*
X95935000Y-71425000D01*
G75*
G02*
X96010000Y-71350000I75000J0D01*
G01*
G37*
G36*
G01*
X96010000Y-71650000D02*
X97010000Y-71650000D01*
G75*
G02*
X97085000Y-71725000I0J-75000D01*
G01*
X97085000Y-71875000D01*
G75*
G02*
X97010000Y-71950000I-75000J0D01*
G01*
X96010000Y-71950000D01*
G75*
G02*
X95935000Y-71875000I0J75000D01*
G01*
X95935000Y-71725000D01*
G75*
G02*
X96010000Y-71650000I75000J0D01*
G01*
G37*
G36*
G01*
X96010000Y-72450000D02*
X97010000Y-72450000D01*
G75*
G02*
X97085000Y-72525000I0J-75000D01*
G01*
X97085000Y-72675000D01*
G75*
G02*
X97010000Y-72750000I-75000J0D01*
G01*
X96010000Y-72750000D01*
G75*
G02*
X95935000Y-72675000I0J75000D01*
G01*
X95935000Y-72525000D01*
G75*
G02*
X96010000Y-72450000I75000J0D01*
G01*
G37*
G36*
G01*
X96010000Y-77250000D02*
X97010000Y-77250000D01*
G75*
G02*
X97085000Y-77325000I0J-75000D01*
G01*
X97085000Y-77475000D01*
G75*
G02*
X97010000Y-77550000I-75000J0D01*
G01*
X96010000Y-77550000D01*
G75*
G02*
X95935000Y-77475000I0J75000D01*
G01*
X95935000Y-77325000D01*
G75*
G02*
X96010000Y-77250000I75000J0D01*
G01*
G37*
G36*
G01*
X96010000Y-78050000D02*
X97010000Y-78050000D01*
G75*
G02*
X97085000Y-78125000I0J-75000D01*
G01*
X97085000Y-78275000D01*
G75*
G02*
X97010000Y-78350000I-75000J0D01*
G01*
X96010000Y-78350000D01*
G75*
G02*
X95935000Y-78275000I0J75000D01*
G01*
X95935000Y-78125000D01*
G75*
G02*
X96010000Y-78050000I75000J0D01*
G01*
G37*
G36*
G01*
X149360000Y-91476250D02*
X149360000Y-90963750D01*
G75*
G02*
X149578750Y-90745000I218750J0D01*
G01*
X150016250Y-90745000D01*
G75*
G02*
X150235000Y-90963750I0J-218750D01*
G01*
X150235000Y-91476250D01*
G75*
G02*
X150016250Y-91695000I-218750J0D01*
G01*
X149578750Y-91695000D01*
G75*
G02*
X149360000Y-91476250I0J218750D01*
G01*
G37*
G36*
G01*
X147785000Y-91476250D02*
X147785000Y-90963750D01*
G75*
G02*
X148003750Y-90745000I218750J0D01*
G01*
X148441250Y-90745000D01*
G75*
G02*
X148660000Y-90963750I0J-218750D01*
G01*
X148660000Y-91476250D01*
G75*
G02*
X148441250Y-91695000I-218750J0D01*
G01*
X148003750Y-91695000D01*
G75*
G02*
X147785000Y-91476250I0J218750D01*
G01*
G37*
G36*
G01*
X111416250Y-101610000D02*
X110903750Y-101610000D01*
G75*
G02*
X110685000Y-101391250I0J218750D01*
G01*
X110685000Y-100953750D01*
G75*
G02*
X110903750Y-100735000I218750J0D01*
G01*
X111416250Y-100735000D01*
G75*
G02*
X111635000Y-100953750I0J-218750D01*
G01*
X111635000Y-101391250D01*
G75*
G02*
X111416250Y-101610000I-218750J0D01*
G01*
G37*
G36*
G01*
X111416250Y-103185000D02*
X110903750Y-103185000D01*
G75*
G02*
X110685000Y-102966250I0J218750D01*
G01*
X110685000Y-102528750D01*
G75*
G02*
X110903750Y-102310000I218750J0D01*
G01*
X111416250Y-102310000D01*
G75*
G02*
X111635000Y-102528750I0J-218750D01*
G01*
X111635000Y-102966250D01*
G75*
G02*
X111416250Y-103185000I-218750J0D01*
G01*
G37*
G36*
G01*
X119216250Y-105650000D02*
X118703750Y-105650000D01*
G75*
G02*
X118485000Y-105431250I0J218750D01*
G01*
X118485000Y-104993750D01*
G75*
G02*
X118703750Y-104775000I218750J0D01*
G01*
X119216250Y-104775000D01*
G75*
G02*
X119435000Y-104993750I0J-218750D01*
G01*
X119435000Y-105431250D01*
G75*
G02*
X119216250Y-105650000I-218750J0D01*
G01*
G37*
G36*
G01*
X119216250Y-107225000D02*
X118703750Y-107225000D01*
G75*
G02*
X118485000Y-107006250I0J218750D01*
G01*
X118485000Y-106568750D01*
G75*
G02*
X118703750Y-106350000I218750J0D01*
G01*
X119216250Y-106350000D01*
G75*
G02*
X119435000Y-106568750I0J-218750D01*
G01*
X119435000Y-107006250D01*
G75*
G02*
X119216250Y-107225000I-218750J0D01*
G01*
G37*
G36*
G01*
X113250000Y-79256250D02*
X113250000Y-78743750D01*
G75*
G02*
X113468750Y-78525000I218750J0D01*
G01*
X113906250Y-78525000D01*
G75*
G02*
X114125000Y-78743750I0J-218750D01*
G01*
X114125000Y-79256250D01*
G75*
G02*
X113906250Y-79475000I-218750J0D01*
G01*
X113468750Y-79475000D01*
G75*
G02*
X113250000Y-79256250I0J218750D01*
G01*
G37*
G36*
G01*
X111675000Y-79256250D02*
X111675000Y-78743750D01*
G75*
G02*
X111893750Y-78525000I218750J0D01*
G01*
X112331250Y-78525000D01*
G75*
G02*
X112550000Y-78743750I0J-218750D01*
G01*
X112550000Y-79256250D01*
G75*
G02*
X112331250Y-79475000I-218750J0D01*
G01*
X111893750Y-79475000D01*
G75*
G02*
X111675000Y-79256250I0J218750D01*
G01*
G37*
G36*
G01*
X115275000Y-79256250D02*
X115275000Y-78743750D01*
G75*
G02*
X115493750Y-78525000I218750J0D01*
G01*
X115931250Y-78525000D01*
G75*
G02*
X116150000Y-78743750I0J-218750D01*
G01*
X116150000Y-79256250D01*
G75*
G02*
X115931250Y-79475000I-218750J0D01*
G01*
X115493750Y-79475000D01*
G75*
G02*
X115275000Y-79256250I0J218750D01*
G01*
G37*
G36*
G01*
X116850000Y-79256250D02*
X116850000Y-78743750D01*
G75*
G02*
X117068750Y-78525000I218750J0D01*
G01*
X117506250Y-78525000D01*
G75*
G02*
X117725000Y-78743750I0J-218750D01*
G01*
X117725000Y-79256250D01*
G75*
G02*
X117506250Y-79475000I-218750J0D01*
G01*
X117068750Y-79475000D01*
G75*
G02*
X116850000Y-79256250I0J218750D01*
G01*
G37*
G36*
G01*
X131606250Y-66130000D02*
X131093750Y-66130000D01*
G75*
G02*
X130875000Y-65911250I0J218750D01*
G01*
X130875000Y-65473750D01*
G75*
G02*
X131093750Y-65255000I218750J0D01*
G01*
X131606250Y-65255000D01*
G75*
G02*
X131825000Y-65473750I0J-218750D01*
G01*
X131825000Y-65911250D01*
G75*
G02*
X131606250Y-66130000I-218750J0D01*
G01*
G37*
G36*
G01*
X131606250Y-67705000D02*
X131093750Y-67705000D01*
G75*
G02*
X130875000Y-67486250I0J218750D01*
G01*
X130875000Y-67048750D01*
G75*
G02*
X131093750Y-66830000I218750J0D01*
G01*
X131606250Y-66830000D01*
G75*
G02*
X131825000Y-67048750I0J-218750D01*
G01*
X131825000Y-67486250D01*
G75*
G02*
X131606250Y-67705000I-218750J0D01*
G01*
G37*
G36*
G01*
X121550000Y-66736250D02*
X121550000Y-66223750D01*
G75*
G02*
X121768750Y-66005000I218750J0D01*
G01*
X122206250Y-66005000D01*
G75*
G02*
X122425000Y-66223750I0J-218750D01*
G01*
X122425000Y-66736250D01*
G75*
G02*
X122206250Y-66955000I-218750J0D01*
G01*
X121768750Y-66955000D01*
G75*
G02*
X121550000Y-66736250I0J218750D01*
G01*
G37*
G36*
G01*
X119975000Y-66736250D02*
X119975000Y-66223750D01*
G75*
G02*
X120193750Y-66005000I218750J0D01*
G01*
X120631250Y-66005000D01*
G75*
G02*
X120850000Y-66223750I0J-218750D01*
G01*
X120850000Y-66736250D01*
G75*
G02*
X120631250Y-66955000I-218750J0D01*
G01*
X120193750Y-66955000D01*
G75*
G02*
X119975000Y-66736250I0J218750D01*
G01*
G37*
G36*
G01*
X149300000Y-85396250D02*
X149300000Y-84883750D01*
G75*
G02*
X149518750Y-84665000I218750J0D01*
G01*
X149956250Y-84665000D01*
G75*
G02*
X150175000Y-84883750I0J-218750D01*
G01*
X150175000Y-85396250D01*
G75*
G02*
X149956250Y-85615000I-218750J0D01*
G01*
X149518750Y-85615000D01*
G75*
G02*
X149300000Y-85396250I0J218750D01*
G01*
G37*
G36*
G01*
X147725000Y-85396250D02*
X147725000Y-84883750D01*
G75*
G02*
X147943750Y-84665000I218750J0D01*
G01*
X148381250Y-84665000D01*
G75*
G02*
X148600000Y-84883750I0J-218750D01*
G01*
X148600000Y-85396250D01*
G75*
G02*
X148381250Y-85615000I-218750J0D01*
G01*
X147943750Y-85615000D01*
G75*
G02*
X147725000Y-85396250I0J218750D01*
G01*
G37*
G36*
G01*
X114016250Y-105650000D02*
X113503750Y-105650000D01*
G75*
G02*
X113285000Y-105431250I0J218750D01*
G01*
X113285000Y-104993750D01*
G75*
G02*
X113503750Y-104775000I218750J0D01*
G01*
X114016250Y-104775000D01*
G75*
G02*
X114235000Y-104993750I0J-218750D01*
G01*
X114235000Y-105431250D01*
G75*
G02*
X114016250Y-105650000I-218750J0D01*
G01*
G37*
G36*
G01*
X114016250Y-107225000D02*
X113503750Y-107225000D01*
G75*
G02*
X113285000Y-107006250I0J218750D01*
G01*
X113285000Y-106568750D01*
G75*
G02*
X113503750Y-106350000I218750J0D01*
G01*
X114016250Y-106350000D01*
G75*
G02*
X114235000Y-106568750I0J-218750D01*
G01*
X114235000Y-107006250D01*
G75*
G02*
X114016250Y-107225000I-218750J0D01*
G01*
G37*
G36*
G01*
X146466250Y-78990000D02*
X145953750Y-78990000D01*
G75*
G02*
X145735000Y-78771250I0J218750D01*
G01*
X145735000Y-78333750D01*
G75*
G02*
X145953750Y-78115000I218750J0D01*
G01*
X146466250Y-78115000D01*
G75*
G02*
X146685000Y-78333750I0J-218750D01*
G01*
X146685000Y-78771250D01*
G75*
G02*
X146466250Y-78990000I-218750J0D01*
G01*
G37*
G36*
G01*
X146466250Y-80565000D02*
X145953750Y-80565000D01*
G75*
G02*
X145735000Y-80346250I0J218750D01*
G01*
X145735000Y-79908750D01*
G75*
G02*
X145953750Y-79690000I218750J0D01*
G01*
X146466250Y-79690000D01*
G75*
G02*
X146685000Y-79908750I0J-218750D01*
G01*
X146685000Y-80346250D01*
G75*
G02*
X146466250Y-80565000I-218750J0D01*
G01*
G37*
G36*
G01*
X146466250Y-75420000D02*
X145953750Y-75420000D01*
G75*
G02*
X145735000Y-75201250I0J218750D01*
G01*
X145735000Y-74763750D01*
G75*
G02*
X145953750Y-74545000I218750J0D01*
G01*
X146466250Y-74545000D01*
G75*
G02*
X146685000Y-74763750I0J-218750D01*
G01*
X146685000Y-75201250D01*
G75*
G02*
X146466250Y-75420000I-218750J0D01*
G01*
G37*
G36*
G01*
X146466250Y-76995000D02*
X145953750Y-76995000D01*
G75*
G02*
X145735000Y-76776250I0J218750D01*
G01*
X145735000Y-76338750D01*
G75*
G02*
X145953750Y-76120000I218750J0D01*
G01*
X146466250Y-76120000D01*
G75*
G02*
X146685000Y-76338750I0J-218750D01*
G01*
X146685000Y-76776250D01*
G75*
G02*
X146466250Y-76995000I-218750J0D01*
G01*
G37*
G36*
G01*
X157570000Y-65606250D02*
X157570000Y-65093750D01*
G75*
G02*
X157788750Y-64875000I218750J0D01*
G01*
X158226250Y-64875000D01*
G75*
G02*
X158445000Y-65093750I0J-218750D01*
G01*
X158445000Y-65606250D01*
G75*
G02*
X158226250Y-65825000I-218750J0D01*
G01*
X157788750Y-65825000D01*
G75*
G02*
X157570000Y-65606250I0J218750D01*
G01*
G37*
G36*
G01*
X155995000Y-65606250D02*
X155995000Y-65093750D01*
G75*
G02*
X156213750Y-64875000I218750J0D01*
G01*
X156651250Y-64875000D01*
G75*
G02*
X156870000Y-65093750I0J-218750D01*
G01*
X156870000Y-65606250D01*
G75*
G02*
X156651250Y-65825000I-218750J0D01*
G01*
X156213750Y-65825000D01*
G75*
G02*
X155995000Y-65606250I0J218750D01*
G01*
G37*
G36*
G01*
X162580000Y-65606250D02*
X162580000Y-65093750D01*
G75*
G02*
X162798750Y-64875000I218750J0D01*
G01*
X163236250Y-64875000D01*
G75*
G02*
X163455000Y-65093750I0J-218750D01*
G01*
X163455000Y-65606250D01*
G75*
G02*
X163236250Y-65825000I-218750J0D01*
G01*
X162798750Y-65825000D01*
G75*
G02*
X162580000Y-65606250I0J218750D01*
G01*
G37*
G36*
G01*
X161005000Y-65606250D02*
X161005000Y-65093750D01*
G75*
G02*
X161223750Y-64875000I218750J0D01*
G01*
X161661250Y-64875000D01*
G75*
G02*
X161880000Y-65093750I0J-218750D01*
G01*
X161880000Y-65606250D01*
G75*
G02*
X161661250Y-65825000I-218750J0D01*
G01*
X161223750Y-65825000D01*
G75*
G02*
X161005000Y-65606250I0J218750D01*
G01*
G37*
G36*
G01*
X162416250Y-87910000D02*
X161903750Y-87910000D01*
G75*
G02*
X161685000Y-87691250I0J218750D01*
G01*
X161685000Y-87253750D01*
G75*
G02*
X161903750Y-87035000I218750J0D01*
G01*
X162416250Y-87035000D01*
G75*
G02*
X162635000Y-87253750I0J-218750D01*
G01*
X162635000Y-87691250D01*
G75*
G02*
X162416250Y-87910000I-218750J0D01*
G01*
G37*
G36*
G01*
X162416250Y-89485000D02*
X161903750Y-89485000D01*
G75*
G02*
X161685000Y-89266250I0J218750D01*
G01*
X161685000Y-88828750D01*
G75*
G02*
X161903750Y-88610000I218750J0D01*
G01*
X162416250Y-88610000D01*
G75*
G02*
X162635000Y-88828750I0J-218750D01*
G01*
X162635000Y-89266250D01*
G75*
G02*
X162416250Y-89485000I-218750J0D01*
G01*
G37*
G36*
G01*
X175940000Y-93596250D02*
X175940000Y-93083750D01*
G75*
G02*
X176158750Y-92865000I218750J0D01*
G01*
X176596250Y-92865000D01*
G75*
G02*
X176815000Y-93083750I0J-218750D01*
G01*
X176815000Y-93596250D01*
G75*
G02*
X176596250Y-93815000I-218750J0D01*
G01*
X176158750Y-93815000D01*
G75*
G02*
X175940000Y-93596250I0J218750D01*
G01*
G37*
G36*
G01*
X174365000Y-93596250D02*
X174365000Y-93083750D01*
G75*
G02*
X174583750Y-92865000I218750J0D01*
G01*
X175021250Y-92865000D01*
G75*
G02*
X175240000Y-93083750I0J-218750D01*
G01*
X175240000Y-93596250D01*
G75*
G02*
X175021250Y-93815000I-218750J0D01*
G01*
X174583750Y-93815000D01*
G75*
G02*
X174365000Y-93596250I0J218750D01*
G01*
G37*
G36*
G01*
X175900000Y-85396250D02*
X175900000Y-84883750D01*
G75*
G02*
X176118750Y-84665000I218750J0D01*
G01*
X176556250Y-84665000D01*
G75*
G02*
X176775000Y-84883750I0J-218750D01*
G01*
X176775000Y-85396250D01*
G75*
G02*
X176556250Y-85615000I-218750J0D01*
G01*
X176118750Y-85615000D01*
G75*
G02*
X175900000Y-85396250I0J218750D01*
G01*
G37*
G36*
G01*
X174325000Y-85396250D02*
X174325000Y-84883750D01*
G75*
G02*
X174543750Y-84665000I218750J0D01*
G01*
X174981250Y-84665000D01*
G75*
G02*
X175200000Y-84883750I0J-218750D01*
G01*
X175200000Y-85396250D01*
G75*
G02*
X174981250Y-85615000I-218750J0D01*
G01*
X174543750Y-85615000D01*
G75*
G02*
X174325000Y-85396250I0J218750D01*
G01*
G37*
G36*
G01*
X160920000Y-85396250D02*
X160920000Y-84883750D01*
G75*
G02*
X161138750Y-84665000I218750J0D01*
G01*
X161576250Y-84665000D01*
G75*
G02*
X161795000Y-84883750I0J-218750D01*
G01*
X161795000Y-85396250D01*
G75*
G02*
X161576250Y-85615000I-218750J0D01*
G01*
X161138750Y-85615000D01*
G75*
G02*
X160920000Y-85396250I0J218750D01*
G01*
G37*
G36*
G01*
X159345000Y-85396250D02*
X159345000Y-84883750D01*
G75*
G02*
X159563750Y-84665000I218750J0D01*
G01*
X160001250Y-84665000D01*
G75*
G02*
X160220000Y-84883750I0J-218750D01*
G01*
X160220000Y-85396250D01*
G75*
G02*
X160001250Y-85615000I-218750J0D01*
G01*
X159563750Y-85615000D01*
G75*
G02*
X159345000Y-85396250I0J218750D01*
G01*
G37*
G36*
G01*
X175890000Y-68006250D02*
X175890000Y-67493750D01*
G75*
G02*
X176108750Y-67275000I218750J0D01*
G01*
X176546250Y-67275000D01*
G75*
G02*
X176765000Y-67493750I0J-218750D01*
G01*
X176765000Y-68006250D01*
G75*
G02*
X176546250Y-68225000I-218750J0D01*
G01*
X176108750Y-68225000D01*
G75*
G02*
X175890000Y-68006250I0J218750D01*
G01*
G37*
G36*
G01*
X174315000Y-68006250D02*
X174315000Y-67493750D01*
G75*
G02*
X174533750Y-67275000I218750J0D01*
G01*
X174971250Y-67275000D01*
G75*
G02*
X175190000Y-67493750I0J-218750D01*
G01*
X175190000Y-68006250D01*
G75*
G02*
X174971250Y-68225000I-218750J0D01*
G01*
X174533750Y-68225000D01*
G75*
G02*
X174315000Y-68006250I0J218750D01*
G01*
G37*
G36*
G01*
X175940000Y-65606250D02*
X175940000Y-65093750D01*
G75*
G02*
X176158750Y-64875000I218750J0D01*
G01*
X176596250Y-64875000D01*
G75*
G02*
X176815000Y-65093750I0J-218750D01*
G01*
X176815000Y-65606250D01*
G75*
G02*
X176596250Y-65825000I-218750J0D01*
G01*
X176158750Y-65825000D01*
G75*
G02*
X175940000Y-65606250I0J218750D01*
G01*
G37*
G36*
G01*
X174365000Y-65606250D02*
X174365000Y-65093750D01*
G75*
G02*
X174583750Y-64875000I218750J0D01*
G01*
X175021250Y-64875000D01*
G75*
G02*
X175240000Y-65093750I0J-218750D01*
G01*
X175240000Y-65606250D01*
G75*
G02*
X175021250Y-65825000I-218750J0D01*
G01*
X174583750Y-65825000D01*
G75*
G02*
X174365000Y-65606250I0J218750D01*
G01*
G37*
G36*
G01*
X149306250Y-70290000D02*
X148793750Y-70290000D01*
G75*
G02*
X148575000Y-70071250I0J218750D01*
G01*
X148575000Y-69633750D01*
G75*
G02*
X148793750Y-69415000I218750J0D01*
G01*
X149306250Y-69415000D01*
G75*
G02*
X149525000Y-69633750I0J-218750D01*
G01*
X149525000Y-70071250D01*
G75*
G02*
X149306250Y-70290000I-218750J0D01*
G01*
G37*
G36*
G01*
X149306250Y-71865000D02*
X148793750Y-71865000D01*
G75*
G02*
X148575000Y-71646250I0J218750D01*
G01*
X148575000Y-71208750D01*
G75*
G02*
X148793750Y-70990000I218750J0D01*
G01*
X149306250Y-70990000D01*
G75*
G02*
X149525000Y-71208750I0J-218750D01*
G01*
X149525000Y-71646250D01*
G75*
G02*
X149306250Y-71865000I-218750J0D01*
G01*
G37*
G36*
G01*
X149330000Y-96676250D02*
X149330000Y-96163750D01*
G75*
G02*
X149548750Y-95945000I218750J0D01*
G01*
X149986250Y-95945000D01*
G75*
G02*
X150205000Y-96163750I0J-218750D01*
G01*
X150205000Y-96676250D01*
G75*
G02*
X149986250Y-96895000I-218750J0D01*
G01*
X149548750Y-96895000D01*
G75*
G02*
X149330000Y-96676250I0J218750D01*
G01*
G37*
G36*
G01*
X147755000Y-96676250D02*
X147755000Y-96163750D01*
G75*
G02*
X147973750Y-95945000I218750J0D01*
G01*
X148411250Y-95945000D01*
G75*
G02*
X148630000Y-96163750I0J-218750D01*
G01*
X148630000Y-96676250D01*
G75*
G02*
X148411250Y-96895000I-218750J0D01*
G01*
X147973750Y-96895000D01*
G75*
G02*
X147755000Y-96676250I0J218750D01*
G01*
G37*
G36*
G01*
X149310000Y-101876250D02*
X149310000Y-101363750D01*
G75*
G02*
X149528750Y-101145000I218750J0D01*
G01*
X149966250Y-101145000D01*
G75*
G02*
X150185000Y-101363750I0J-218750D01*
G01*
X150185000Y-101876250D01*
G75*
G02*
X149966250Y-102095000I-218750J0D01*
G01*
X149528750Y-102095000D01*
G75*
G02*
X149310000Y-101876250I0J218750D01*
G01*
G37*
G36*
G01*
X147735000Y-101876250D02*
X147735000Y-101363750D01*
G75*
G02*
X147953750Y-101145000I218750J0D01*
G01*
X148391250Y-101145000D01*
G75*
G02*
X148610000Y-101363750I0J-218750D01*
G01*
X148610000Y-101876250D01*
G75*
G02*
X148391250Y-102095000I-218750J0D01*
G01*
X147953750Y-102095000D01*
G75*
G02*
X147735000Y-101876250I0J218750D01*
G01*
G37*
G36*
G01*
X149330000Y-99276250D02*
X149330000Y-98763750D01*
G75*
G02*
X149548750Y-98545000I218750J0D01*
G01*
X149986250Y-98545000D01*
G75*
G02*
X150205000Y-98763750I0J-218750D01*
G01*
X150205000Y-99276250D01*
G75*
G02*
X149986250Y-99495000I-218750J0D01*
G01*
X149548750Y-99495000D01*
G75*
G02*
X149330000Y-99276250I0J218750D01*
G01*
G37*
G36*
G01*
X147755000Y-99276250D02*
X147755000Y-98763750D01*
G75*
G02*
X147973750Y-98545000I218750J0D01*
G01*
X148411250Y-98545000D01*
G75*
G02*
X148630000Y-98763750I0J-218750D01*
G01*
X148630000Y-99276250D01*
G75*
G02*
X148411250Y-99495000I-218750J0D01*
G01*
X147973750Y-99495000D01*
G75*
G02*
X147755000Y-99276250I0J218750D01*
G01*
G37*
G36*
G01*
X146456250Y-82110000D02*
X145943750Y-82110000D01*
G75*
G02*
X145725000Y-81891250I0J218750D01*
G01*
X145725000Y-81453750D01*
G75*
G02*
X145943750Y-81235000I218750J0D01*
G01*
X146456250Y-81235000D01*
G75*
G02*
X146675000Y-81453750I0J-218750D01*
G01*
X146675000Y-81891250D01*
G75*
G02*
X146456250Y-82110000I-218750J0D01*
G01*
G37*
G36*
G01*
X146456250Y-83685000D02*
X145943750Y-83685000D01*
G75*
G02*
X145725000Y-83466250I0J218750D01*
G01*
X145725000Y-83028750D01*
G75*
G02*
X145943750Y-82810000I218750J0D01*
G01*
X146456250Y-82810000D01*
G75*
G02*
X146675000Y-83028750I0J-218750D01*
G01*
X146675000Y-83466250D01*
G75*
G02*
X146456250Y-83685000I-218750J0D01*
G01*
G37*
G36*
G01*
X149206250Y-82110000D02*
X148693750Y-82110000D01*
G75*
G02*
X148475000Y-81891250I0J218750D01*
G01*
X148475000Y-81453750D01*
G75*
G02*
X148693750Y-81235000I218750J0D01*
G01*
X149206250Y-81235000D01*
G75*
G02*
X149425000Y-81453750I0J-218750D01*
G01*
X149425000Y-81891250D01*
G75*
G02*
X149206250Y-82110000I-218750J0D01*
G01*
G37*
G36*
G01*
X149206250Y-83685000D02*
X148693750Y-83685000D01*
G75*
G02*
X148475000Y-83466250I0J218750D01*
G01*
X148475000Y-83028750D01*
G75*
G02*
X148693750Y-82810000I218750J0D01*
G01*
X149206250Y-82810000D01*
G75*
G02*
X149425000Y-83028750I0J-218750D01*
G01*
X149425000Y-83466250D01*
G75*
G02*
X149206250Y-83685000I-218750J0D01*
G01*
G37*
G36*
G01*
X153140000Y-85396250D02*
X153140000Y-84883750D01*
G75*
G02*
X153358750Y-84665000I218750J0D01*
G01*
X153796250Y-84665000D01*
G75*
G02*
X154015000Y-84883750I0J-218750D01*
G01*
X154015000Y-85396250D01*
G75*
G02*
X153796250Y-85615000I-218750J0D01*
G01*
X153358750Y-85615000D01*
G75*
G02*
X153140000Y-85396250I0J218750D01*
G01*
G37*
G36*
G01*
X151565000Y-85396250D02*
X151565000Y-84883750D01*
G75*
G02*
X151783750Y-84665000I218750J0D01*
G01*
X152221250Y-84665000D01*
G75*
G02*
X152440000Y-84883750I0J-218750D01*
G01*
X152440000Y-85396250D01*
G75*
G02*
X152221250Y-85615000I-218750J0D01*
G01*
X151783750Y-85615000D01*
G75*
G02*
X151565000Y-85396250I0J218750D01*
G01*
G37*
G36*
G01*
X156216250Y-92420000D02*
X155703750Y-92420000D01*
G75*
G02*
X155485000Y-92201250I0J218750D01*
G01*
X155485000Y-91763750D01*
G75*
G02*
X155703750Y-91545000I218750J0D01*
G01*
X156216250Y-91545000D01*
G75*
G02*
X156435000Y-91763750I0J-218750D01*
G01*
X156435000Y-92201250D01*
G75*
G02*
X156216250Y-92420000I-218750J0D01*
G01*
G37*
G36*
G01*
X156216250Y-93995000D02*
X155703750Y-93995000D01*
G75*
G02*
X155485000Y-93776250I0J218750D01*
G01*
X155485000Y-93338750D01*
G75*
G02*
X155703750Y-93120000I218750J0D01*
G01*
X156216250Y-93120000D01*
G75*
G02*
X156435000Y-93338750I0J-218750D01*
G01*
X156435000Y-93776250D01*
G75*
G02*
X156216250Y-93995000I-218750J0D01*
G01*
G37*
G36*
G01*
X157570000Y-74546250D02*
X157570000Y-74033750D01*
G75*
G02*
X157788750Y-73815000I218750J0D01*
G01*
X158226250Y-73815000D01*
G75*
G02*
X158445000Y-74033750I0J-218750D01*
G01*
X158445000Y-74546250D01*
G75*
G02*
X158226250Y-74765000I-218750J0D01*
G01*
X157788750Y-74765000D01*
G75*
G02*
X157570000Y-74546250I0J218750D01*
G01*
G37*
G36*
G01*
X155995000Y-74546250D02*
X155995000Y-74033750D01*
G75*
G02*
X156213750Y-73815000I218750J0D01*
G01*
X156651250Y-73815000D01*
G75*
G02*
X156870000Y-74033750I0J-218750D01*
G01*
X156870000Y-74546250D01*
G75*
G02*
X156651250Y-74765000I-218750J0D01*
G01*
X156213750Y-74765000D01*
G75*
G02*
X155995000Y-74546250I0J218750D01*
G01*
G37*
G36*
G01*
X175900000Y-82796250D02*
X175900000Y-82283750D01*
G75*
G02*
X176118750Y-82065000I218750J0D01*
G01*
X176556250Y-82065000D01*
G75*
G02*
X176775000Y-82283750I0J-218750D01*
G01*
X176775000Y-82796250D01*
G75*
G02*
X176556250Y-83015000I-218750J0D01*
G01*
X176118750Y-83015000D01*
G75*
G02*
X175900000Y-82796250I0J218750D01*
G01*
G37*
G36*
G01*
X174325000Y-82796250D02*
X174325000Y-82283750D01*
G75*
G02*
X174543750Y-82065000I218750J0D01*
G01*
X174981250Y-82065000D01*
G75*
G02*
X175200000Y-82283750I0J-218750D01*
G01*
X175200000Y-82796250D01*
G75*
G02*
X174981250Y-83015000I-218750J0D01*
G01*
X174543750Y-83015000D01*
G75*
G02*
X174325000Y-82796250I0J218750D01*
G01*
G37*
G36*
G01*
X162600000Y-74546250D02*
X162600000Y-74033750D01*
G75*
G02*
X162818750Y-73815000I218750J0D01*
G01*
X163256250Y-73815000D01*
G75*
G02*
X163475000Y-74033750I0J-218750D01*
G01*
X163475000Y-74546250D01*
G75*
G02*
X163256250Y-74765000I-218750J0D01*
G01*
X162818750Y-74765000D01*
G75*
G02*
X162600000Y-74546250I0J218750D01*
G01*
G37*
G36*
G01*
X161025000Y-74546250D02*
X161025000Y-74033750D01*
G75*
G02*
X161243750Y-73815000I218750J0D01*
G01*
X161681250Y-73815000D01*
G75*
G02*
X161900000Y-74033750I0J-218750D01*
G01*
X161900000Y-74546250D01*
G75*
G02*
X161681250Y-74765000I-218750J0D01*
G01*
X161243750Y-74765000D01*
G75*
G02*
X161025000Y-74546250I0J218750D01*
G01*
G37*
G36*
G01*
X149306250Y-75420000D02*
X148793750Y-75420000D01*
G75*
G02*
X148575000Y-75201250I0J218750D01*
G01*
X148575000Y-74763750D01*
G75*
G02*
X148793750Y-74545000I218750J0D01*
G01*
X149306250Y-74545000D01*
G75*
G02*
X149525000Y-74763750I0J-218750D01*
G01*
X149525000Y-75201250D01*
G75*
G02*
X149306250Y-75420000I-218750J0D01*
G01*
G37*
G36*
G01*
X149306250Y-76995000D02*
X148793750Y-76995000D01*
G75*
G02*
X148575000Y-76776250I0J218750D01*
G01*
X148575000Y-76338750D01*
G75*
G02*
X148793750Y-76120000I218750J0D01*
G01*
X149306250Y-76120000D01*
G75*
G02*
X149525000Y-76338750I0J-218750D01*
G01*
X149525000Y-76776250D01*
G75*
G02*
X149306250Y-76995000I-218750J0D01*
G01*
G37*
G36*
G01*
X166450000Y-76986250D02*
X166450000Y-76473750D01*
G75*
G02*
X166668750Y-76255000I218750J0D01*
G01*
X167106250Y-76255000D01*
G75*
G02*
X167325000Y-76473750I0J-218750D01*
G01*
X167325000Y-76986250D01*
G75*
G02*
X167106250Y-77205000I-218750J0D01*
G01*
X166668750Y-77205000D01*
G75*
G02*
X166450000Y-76986250I0J218750D01*
G01*
G37*
G36*
G01*
X164875000Y-76986250D02*
X164875000Y-76473750D01*
G75*
G02*
X165093750Y-76255000I218750J0D01*
G01*
X165531250Y-76255000D01*
G75*
G02*
X165750000Y-76473750I0J-218750D01*
G01*
X165750000Y-76986250D01*
G75*
G02*
X165531250Y-77205000I-218750J0D01*
G01*
X165093750Y-77205000D01*
G75*
G02*
X164875000Y-76986250I0J218750D01*
G01*
G37*
G36*
G01*
X129616250Y-105650000D02*
X129103750Y-105650000D01*
G75*
G02*
X128885000Y-105431250I0J218750D01*
G01*
X128885000Y-104993750D01*
G75*
G02*
X129103750Y-104775000I218750J0D01*
G01*
X129616250Y-104775000D01*
G75*
G02*
X129835000Y-104993750I0J-218750D01*
G01*
X129835000Y-105431250D01*
G75*
G02*
X129616250Y-105650000I-218750J0D01*
G01*
G37*
G36*
G01*
X129616250Y-107225000D02*
X129103750Y-107225000D01*
G75*
G02*
X128885000Y-107006250I0J218750D01*
G01*
X128885000Y-106568750D01*
G75*
G02*
X129103750Y-106350000I218750J0D01*
G01*
X129616250Y-106350000D01*
G75*
G02*
X129835000Y-106568750I0J-218750D01*
G01*
X129835000Y-107006250D01*
G75*
G02*
X129616250Y-107225000I-218750J0D01*
G01*
G37*
G36*
G01*
X108816250Y-101610000D02*
X108303750Y-101610000D01*
G75*
G02*
X108085000Y-101391250I0J218750D01*
G01*
X108085000Y-100953750D01*
G75*
G02*
X108303750Y-100735000I218750J0D01*
G01*
X108816250Y-100735000D01*
G75*
G02*
X109035000Y-100953750I0J-218750D01*
G01*
X109035000Y-101391250D01*
G75*
G02*
X108816250Y-101610000I-218750J0D01*
G01*
G37*
G36*
G01*
X108816250Y-103185000D02*
X108303750Y-103185000D01*
G75*
G02*
X108085000Y-102966250I0J218750D01*
G01*
X108085000Y-102528750D01*
G75*
G02*
X108303750Y-102310000I218750J0D01*
G01*
X108816250Y-102310000D01*
G75*
G02*
X109035000Y-102528750I0J-218750D01*
G01*
X109035000Y-102966250D01*
G75*
G02*
X108816250Y-103185000I-218750J0D01*
G01*
G37*
G36*
G01*
X108816250Y-105650000D02*
X108303750Y-105650000D01*
G75*
G02*
X108085000Y-105431250I0J218750D01*
G01*
X108085000Y-104993750D01*
G75*
G02*
X108303750Y-104775000I218750J0D01*
G01*
X108816250Y-104775000D01*
G75*
G02*
X109035000Y-104993750I0J-218750D01*
G01*
X109035000Y-105431250D01*
G75*
G02*
X108816250Y-105650000I-218750J0D01*
G01*
G37*
G36*
G01*
X108816250Y-107225000D02*
X108303750Y-107225000D01*
G75*
G02*
X108085000Y-107006250I0J218750D01*
G01*
X108085000Y-106568750D01*
G75*
G02*
X108303750Y-106350000I218750J0D01*
G01*
X108816250Y-106350000D01*
G75*
G02*
X109035000Y-106568750I0J-218750D01*
G01*
X109035000Y-107006250D01*
G75*
G02*
X108816250Y-107225000I-218750J0D01*
G01*
G37*
G36*
G01*
X124416250Y-105650000D02*
X123903750Y-105650000D01*
G75*
G02*
X123685000Y-105431250I0J218750D01*
G01*
X123685000Y-104993750D01*
G75*
G02*
X123903750Y-104775000I218750J0D01*
G01*
X124416250Y-104775000D01*
G75*
G02*
X124635000Y-104993750I0J-218750D01*
G01*
X124635000Y-105431250D01*
G75*
G02*
X124416250Y-105650000I-218750J0D01*
G01*
G37*
G36*
G01*
X124416250Y-107225000D02*
X123903750Y-107225000D01*
G75*
G02*
X123685000Y-107006250I0J218750D01*
G01*
X123685000Y-106568750D01*
G75*
G02*
X123903750Y-106350000I218750J0D01*
G01*
X124416250Y-106350000D01*
G75*
G02*
X124635000Y-106568750I0J-218750D01*
G01*
X124635000Y-107006250D01*
G75*
G02*
X124416250Y-107225000I-218750J0D01*
G01*
G37*
G36*
G01*
X149276250Y-78990000D02*
X148763750Y-78990000D01*
G75*
G02*
X148545000Y-78771250I0J218750D01*
G01*
X148545000Y-78333750D01*
G75*
G02*
X148763750Y-78115000I218750J0D01*
G01*
X149276250Y-78115000D01*
G75*
G02*
X149495000Y-78333750I0J-218750D01*
G01*
X149495000Y-78771250D01*
G75*
G02*
X149276250Y-78990000I-218750J0D01*
G01*
G37*
G36*
G01*
X149276250Y-80565000D02*
X148763750Y-80565000D01*
G75*
G02*
X148545000Y-80346250I0J218750D01*
G01*
X148545000Y-79908750D01*
G75*
G02*
X148763750Y-79690000I218750J0D01*
G01*
X149276250Y-79690000D01*
G75*
G02*
X149495000Y-79908750I0J-218750D01*
G01*
X149495000Y-80346250D01*
G75*
G02*
X149276250Y-80565000I-218750J0D01*
G01*
G37*
G36*
G01*
X161686250Y-81330000D02*
X161173750Y-81330000D01*
G75*
G02*
X160955000Y-81111250I0J218750D01*
G01*
X160955000Y-80673750D01*
G75*
G02*
X161173750Y-80455000I218750J0D01*
G01*
X161686250Y-80455000D01*
G75*
G02*
X161905000Y-80673750I0J-218750D01*
G01*
X161905000Y-81111250D01*
G75*
G02*
X161686250Y-81330000I-218750J0D01*
G01*
G37*
G36*
G01*
X161686250Y-82905000D02*
X161173750Y-82905000D01*
G75*
G02*
X160955000Y-82686250I0J218750D01*
G01*
X160955000Y-82248750D01*
G75*
G02*
X161173750Y-82030000I218750J0D01*
G01*
X161686250Y-82030000D01*
G75*
G02*
X161905000Y-82248750I0J-218750D01*
G01*
X161905000Y-82686250D01*
G75*
G02*
X161686250Y-82905000I-218750J0D01*
G01*
G37*
G36*
G01*
X164186250Y-81330000D02*
X163673750Y-81330000D01*
G75*
G02*
X163455000Y-81111250I0J218750D01*
G01*
X163455000Y-80673750D01*
G75*
G02*
X163673750Y-80455000I218750J0D01*
G01*
X164186250Y-80455000D01*
G75*
G02*
X164405000Y-80673750I0J-218750D01*
G01*
X164405000Y-81111250D01*
G75*
G02*
X164186250Y-81330000I-218750J0D01*
G01*
G37*
G36*
G01*
X164186250Y-82905000D02*
X163673750Y-82905000D01*
G75*
G02*
X163455000Y-82686250I0J218750D01*
G01*
X163455000Y-82248750D01*
G75*
G02*
X163673750Y-82030000I218750J0D01*
G01*
X164186250Y-82030000D01*
G75*
G02*
X164405000Y-82248750I0J-218750D01*
G01*
X164405000Y-82686250D01*
G75*
G02*
X164186250Y-82905000I-218750J0D01*
G01*
G37*
G36*
G01*
X96396250Y-66970000D02*
X95883750Y-66970000D01*
G75*
G02*
X95665000Y-66751250I0J218750D01*
G01*
X95665000Y-66313750D01*
G75*
G02*
X95883750Y-66095000I218750J0D01*
G01*
X96396250Y-66095000D01*
G75*
G02*
X96615000Y-66313750I0J-218750D01*
G01*
X96615000Y-66751250D01*
G75*
G02*
X96396250Y-66970000I-218750J0D01*
G01*
G37*
G36*
G01*
X96396250Y-68545000D02*
X95883750Y-68545000D01*
G75*
G02*
X95665000Y-68326250I0J218750D01*
G01*
X95665000Y-67888750D01*
G75*
G02*
X95883750Y-67670000I218750J0D01*
G01*
X96396250Y-67670000D01*
G75*
G02*
X96615000Y-67888750I0J-218750D01*
G01*
X96615000Y-68326250D01*
G75*
G02*
X96396250Y-68545000I-218750J0D01*
G01*
G37*
G36*
G01*
X113250000Y-87296250D02*
X113250000Y-86783750D01*
G75*
G02*
X113468750Y-86565000I218750J0D01*
G01*
X113906250Y-86565000D01*
G75*
G02*
X114125000Y-86783750I0J-218750D01*
G01*
X114125000Y-87296250D01*
G75*
G02*
X113906250Y-87515000I-218750J0D01*
G01*
X113468750Y-87515000D01*
G75*
G02*
X113250000Y-87296250I0J218750D01*
G01*
G37*
G36*
G01*
X111675000Y-87296250D02*
X111675000Y-86783750D01*
G75*
G02*
X111893750Y-86565000I218750J0D01*
G01*
X112331250Y-86565000D01*
G75*
G02*
X112550000Y-86783750I0J-218750D01*
G01*
X112550000Y-87296250D01*
G75*
G02*
X112331250Y-87515000I-218750J0D01*
G01*
X111893750Y-87515000D01*
G75*
G02*
X111675000Y-87296250I0J218750D01*
G01*
G37*
G36*
G01*
X113250000Y-89896250D02*
X113250000Y-89383750D01*
G75*
G02*
X113468750Y-89165000I218750J0D01*
G01*
X113906250Y-89165000D01*
G75*
G02*
X114125000Y-89383750I0J-218750D01*
G01*
X114125000Y-89896250D01*
G75*
G02*
X113906250Y-90115000I-218750J0D01*
G01*
X113468750Y-90115000D01*
G75*
G02*
X113250000Y-89896250I0J218750D01*
G01*
G37*
G36*
G01*
X111675000Y-89896250D02*
X111675000Y-89383750D01*
G75*
G02*
X111893750Y-89165000I218750J0D01*
G01*
X112331250Y-89165000D01*
G75*
G02*
X112550000Y-89383750I0J-218750D01*
G01*
X112550000Y-89896250D01*
G75*
G02*
X112331250Y-90115000I-218750J0D01*
G01*
X111893750Y-90115000D01*
G75*
G02*
X111675000Y-89896250I0J218750D01*
G01*
G37*
G36*
G01*
X106216250Y-105650000D02*
X105703750Y-105650000D01*
G75*
G02*
X105485000Y-105431250I0J218750D01*
G01*
X105485000Y-104993750D01*
G75*
G02*
X105703750Y-104775000I218750J0D01*
G01*
X106216250Y-104775000D01*
G75*
G02*
X106435000Y-104993750I0J-218750D01*
G01*
X106435000Y-105431250D01*
G75*
G02*
X106216250Y-105650000I-218750J0D01*
G01*
G37*
G36*
G01*
X106216250Y-107225000D02*
X105703750Y-107225000D01*
G75*
G02*
X105485000Y-107006250I0J218750D01*
G01*
X105485000Y-106568750D01*
G75*
G02*
X105703750Y-106350000I218750J0D01*
G01*
X106216250Y-106350000D01*
G75*
G02*
X106435000Y-106568750I0J-218750D01*
G01*
X106435000Y-107006250D01*
G75*
G02*
X106216250Y-107225000I-218750J0D01*
G01*
G37*
G36*
G01*
X104576250Y-69290000D02*
X104063750Y-69290000D01*
G75*
G02*
X103845000Y-69071250I0J218750D01*
G01*
X103845000Y-68633750D01*
G75*
G02*
X104063750Y-68415000I218750J0D01*
G01*
X104576250Y-68415000D01*
G75*
G02*
X104795000Y-68633750I0J-218750D01*
G01*
X104795000Y-69071250D01*
G75*
G02*
X104576250Y-69290000I-218750J0D01*
G01*
G37*
G36*
G01*
X104576250Y-70865000D02*
X104063750Y-70865000D01*
G75*
G02*
X103845000Y-70646250I0J218750D01*
G01*
X103845000Y-70208750D01*
G75*
G02*
X104063750Y-69990000I218750J0D01*
G01*
X104576250Y-69990000D01*
G75*
G02*
X104795000Y-70208750I0J-218750D01*
G01*
X104795000Y-70646250D01*
G75*
G02*
X104576250Y-70865000I-218750J0D01*
G01*
G37*
G36*
G01*
X96926250Y-83395000D02*
X96413750Y-83395000D01*
G75*
G02*
X96195000Y-83176250I0J218750D01*
G01*
X96195000Y-82738750D01*
G75*
G02*
X96413750Y-82520000I218750J0D01*
G01*
X96926250Y-82520000D01*
G75*
G02*
X97145000Y-82738750I0J-218750D01*
G01*
X97145000Y-83176250D01*
G75*
G02*
X96926250Y-83395000I-218750J0D01*
G01*
G37*
G36*
G01*
X96926250Y-81820000D02*
X96413750Y-81820000D01*
G75*
G02*
X96195000Y-81601250I0J218750D01*
G01*
X96195000Y-81163750D01*
G75*
G02*
X96413750Y-80945000I218750J0D01*
G01*
X96926250Y-80945000D01*
G75*
G02*
X97145000Y-81163750I0J-218750D01*
G01*
X97145000Y-81601250D01*
G75*
G02*
X96926250Y-81820000I-218750J0D01*
G01*
G37*
G36*
G01*
X94716250Y-81820000D02*
X94203750Y-81820000D01*
G75*
G02*
X93985000Y-81601250I0J218750D01*
G01*
X93985000Y-81163750D01*
G75*
G02*
X94203750Y-80945000I218750J0D01*
G01*
X94716250Y-80945000D01*
G75*
G02*
X94935000Y-81163750I0J-218750D01*
G01*
X94935000Y-81601250D01*
G75*
G02*
X94716250Y-81820000I-218750J0D01*
G01*
G37*
G36*
G01*
X94716250Y-83395000D02*
X94203750Y-83395000D01*
G75*
G02*
X93985000Y-83176250I0J218750D01*
G01*
X93985000Y-82738750D01*
G75*
G02*
X94203750Y-82520000I218750J0D01*
G01*
X94716250Y-82520000D01*
G75*
G02*
X94935000Y-82738750I0J-218750D01*
G01*
X94935000Y-83176250D01*
G75*
G02*
X94716250Y-83395000I-218750J0D01*
G01*
G37*
G36*
G01*
X110903750Y-104775000D02*
X111416250Y-104775000D01*
G75*
G02*
X111635000Y-104993750I0J-218750D01*
G01*
X111635000Y-105431250D01*
G75*
G02*
X111416250Y-105650000I-218750J0D01*
G01*
X110903750Y-105650000D01*
G75*
G02*
X110685000Y-105431250I0J218750D01*
G01*
X110685000Y-104993750D01*
G75*
G02*
X110903750Y-104775000I218750J0D01*
G01*
G37*
G36*
G01*
X110903750Y-106350000D02*
X111416250Y-106350000D01*
G75*
G02*
X111635000Y-106568750I0J-218750D01*
G01*
X111635000Y-107006250D01*
G75*
G02*
X111416250Y-107225000I-218750J0D01*
G01*
X110903750Y-107225000D01*
G75*
G02*
X110685000Y-107006250I0J218750D01*
G01*
X110685000Y-106568750D01*
G75*
G02*
X110903750Y-106350000I218750J0D01*
G01*
G37*
G36*
G01*
X106216250Y-103185000D02*
X105703750Y-103185000D01*
G75*
G02*
X105485000Y-102966250I0J218750D01*
G01*
X105485000Y-102528750D01*
G75*
G02*
X105703750Y-102310000I218750J0D01*
G01*
X106216250Y-102310000D01*
G75*
G02*
X106435000Y-102528750I0J-218750D01*
G01*
X106435000Y-102966250D01*
G75*
G02*
X106216250Y-103185000I-218750J0D01*
G01*
G37*
G36*
G01*
X106216250Y-101610000D02*
X105703750Y-101610000D01*
G75*
G02*
X105485000Y-101391250I0J218750D01*
G01*
X105485000Y-100953750D01*
G75*
G02*
X105703750Y-100735000I218750J0D01*
G01*
X106216250Y-100735000D01*
G75*
G02*
X106435000Y-100953750I0J-218750D01*
G01*
X106435000Y-101391250D01*
G75*
G02*
X106216250Y-101610000I-218750J0D01*
G01*
G37*
G36*
G01*
X100743750Y-63410000D02*
X101256250Y-63410000D01*
G75*
G02*
X101475000Y-63628750I0J-218750D01*
G01*
X101475000Y-64066250D01*
G75*
G02*
X101256250Y-64285000I-218750J0D01*
G01*
X100743750Y-64285000D01*
G75*
G02*
X100525000Y-64066250I0J218750D01*
G01*
X100525000Y-63628750D01*
G75*
G02*
X100743750Y-63410000I218750J0D01*
G01*
G37*
G36*
G01*
X100743750Y-61835000D02*
X101256250Y-61835000D01*
G75*
G02*
X101475000Y-62053750I0J-218750D01*
G01*
X101475000Y-62491250D01*
G75*
G02*
X101256250Y-62710000I-218750J0D01*
G01*
X100743750Y-62710000D01*
G75*
G02*
X100525000Y-62491250I0J218750D01*
G01*
X100525000Y-62053750D01*
G75*
G02*
X100743750Y-61835000I218750J0D01*
G01*
G37*
G36*
G01*
X93393750Y-63410000D02*
X93906250Y-63410000D01*
G75*
G02*
X94125000Y-63628750I0J-218750D01*
G01*
X94125000Y-64066250D01*
G75*
G02*
X93906250Y-64285000I-218750J0D01*
G01*
X93393750Y-64285000D01*
G75*
G02*
X93175000Y-64066250I0J218750D01*
G01*
X93175000Y-63628750D01*
G75*
G02*
X93393750Y-63410000I218750J0D01*
G01*
G37*
G36*
G01*
X93393750Y-61835000D02*
X93906250Y-61835000D01*
G75*
G02*
X94125000Y-62053750I0J-218750D01*
G01*
X94125000Y-62491250D01*
G75*
G02*
X93906250Y-62710000I-218750J0D01*
G01*
X93393750Y-62710000D01*
G75*
G02*
X93175000Y-62491250I0J218750D01*
G01*
X93175000Y-62053750D01*
G75*
G02*
X93393750Y-61835000I218750J0D01*
G01*
G37*
G36*
G01*
X168060000Y-93083750D02*
X168060000Y-93596250D01*
G75*
G02*
X167841250Y-93815000I-218750J0D01*
G01*
X167403750Y-93815000D01*
G75*
G02*
X167185000Y-93596250I0J218750D01*
G01*
X167185000Y-93083750D01*
G75*
G02*
X167403750Y-92865000I218750J0D01*
G01*
X167841250Y-92865000D01*
G75*
G02*
X168060000Y-93083750I0J-218750D01*
G01*
G37*
G36*
G01*
X169635000Y-93083750D02*
X169635000Y-93596250D01*
G75*
G02*
X169416250Y-93815000I-218750J0D01*
G01*
X168978750Y-93815000D01*
G75*
G02*
X168760000Y-93596250I0J218750D01*
G01*
X168760000Y-93083750D01*
G75*
G02*
X168978750Y-92865000I218750J0D01*
G01*
X169416250Y-92865000D01*
G75*
G02*
X169635000Y-93083750I0J-218750D01*
G01*
G37*
G36*
G01*
X159713750Y-87025000D02*
X160226250Y-87025000D01*
G75*
G02*
X160445000Y-87243750I0J-218750D01*
G01*
X160445000Y-87681250D01*
G75*
G02*
X160226250Y-87900000I-218750J0D01*
G01*
X159713750Y-87900000D01*
G75*
G02*
X159495000Y-87681250I0J218750D01*
G01*
X159495000Y-87243750D01*
G75*
G02*
X159713750Y-87025000I218750J0D01*
G01*
G37*
G36*
G01*
X159713750Y-88600000D02*
X160226250Y-88600000D01*
G75*
G02*
X160445000Y-88818750I0J-218750D01*
G01*
X160445000Y-89256250D01*
G75*
G02*
X160226250Y-89475000I-218750J0D01*
G01*
X159713750Y-89475000D01*
G75*
G02*
X159495000Y-89256250I0J218750D01*
G01*
X159495000Y-88818750D01*
G75*
G02*
X159713750Y-88600000I218750J0D01*
G01*
G37*
G36*
G01*
X156870000Y-67143750D02*
X156870000Y-67656250D01*
G75*
G02*
X156651250Y-67875000I-218750J0D01*
G01*
X156213750Y-67875000D01*
G75*
G02*
X155995000Y-67656250I0J218750D01*
G01*
X155995000Y-67143750D01*
G75*
G02*
X156213750Y-66925000I218750J0D01*
G01*
X156651250Y-66925000D01*
G75*
G02*
X156870000Y-67143750I0J-218750D01*
G01*
G37*
G36*
G01*
X158445000Y-67143750D02*
X158445000Y-67656250D01*
G75*
G02*
X158226250Y-67875000I-218750J0D01*
G01*
X157788750Y-67875000D01*
G75*
G02*
X157570000Y-67656250I0J218750D01*
G01*
X157570000Y-67143750D01*
G75*
G02*
X157788750Y-66925000I218750J0D01*
G01*
X158226250Y-66925000D01*
G75*
G02*
X158445000Y-67143750I0J-218750D01*
G01*
G37*
G36*
G01*
X163245000Y-85396250D02*
X163245000Y-84883750D01*
G75*
G02*
X163463750Y-84665000I218750J0D01*
G01*
X163901250Y-84665000D01*
G75*
G02*
X164120000Y-84883750I0J-218750D01*
G01*
X164120000Y-85396250D01*
G75*
G02*
X163901250Y-85615000I-218750J0D01*
G01*
X163463750Y-85615000D01*
G75*
G02*
X163245000Y-85396250I0J218750D01*
G01*
G37*
G36*
G01*
X164820000Y-85396250D02*
X164820000Y-84883750D01*
G75*
G02*
X165038750Y-84665000I218750J0D01*
G01*
X165476250Y-84665000D01*
G75*
G02*
X165695000Y-84883750I0J-218750D01*
G01*
X165695000Y-85396250D01*
G75*
G02*
X165476250Y-85615000I-218750J0D01*
G01*
X165038750Y-85615000D01*
G75*
G02*
X164820000Y-85396250I0J218750D01*
G01*
G37*
G36*
G01*
X169370000Y-85396250D02*
X169370000Y-84883750D01*
G75*
G02*
X169588750Y-84665000I218750J0D01*
G01*
X170026250Y-84665000D01*
G75*
G02*
X170245000Y-84883750I0J-218750D01*
G01*
X170245000Y-85396250D01*
G75*
G02*
X170026250Y-85615000I-218750J0D01*
G01*
X169588750Y-85615000D01*
G75*
G02*
X169370000Y-85396250I0J218750D01*
G01*
G37*
G36*
G01*
X167795000Y-85396250D02*
X167795000Y-84883750D01*
G75*
G02*
X168013750Y-84665000I218750J0D01*
G01*
X168451250Y-84665000D01*
G75*
G02*
X168670000Y-84883750I0J-218750D01*
G01*
X168670000Y-85396250D01*
G75*
G02*
X168451250Y-85615000I-218750J0D01*
G01*
X168013750Y-85615000D01*
G75*
G02*
X167795000Y-85396250I0J218750D01*
G01*
G37*
G36*
G01*
X161025000Y-67656250D02*
X161025000Y-67143750D01*
G75*
G02*
X161243750Y-66925000I218750J0D01*
G01*
X161681250Y-66925000D01*
G75*
G02*
X161900000Y-67143750I0J-218750D01*
G01*
X161900000Y-67656250D01*
G75*
G02*
X161681250Y-67875000I-218750J0D01*
G01*
X161243750Y-67875000D01*
G75*
G02*
X161025000Y-67656250I0J218750D01*
G01*
G37*
G36*
G01*
X162600000Y-67656250D02*
X162600000Y-67143750D01*
G75*
G02*
X162818750Y-66925000I218750J0D01*
G01*
X163256250Y-66925000D01*
G75*
G02*
X163475000Y-67143750I0J-218750D01*
G01*
X163475000Y-67656250D01*
G75*
G02*
X163256250Y-67875000I-218750J0D01*
G01*
X162818750Y-67875000D01*
G75*
G02*
X162600000Y-67656250I0J218750D01*
G01*
G37*
G36*
G01*
X156335000Y-100773750D02*
X156335000Y-101286250D01*
G75*
G02*
X156116250Y-101505000I-218750J0D01*
G01*
X155678750Y-101505000D01*
G75*
G02*
X155460000Y-101286250I0J218750D01*
G01*
X155460000Y-100773750D01*
G75*
G02*
X155678750Y-100555000I218750J0D01*
G01*
X156116250Y-100555000D01*
G75*
G02*
X156335000Y-100773750I0J-218750D01*
G01*
G37*
G36*
G01*
X154760000Y-100773750D02*
X154760000Y-101286250D01*
G75*
G02*
X154541250Y-101505000I-218750J0D01*
G01*
X154103750Y-101505000D01*
G75*
G02*
X153885000Y-101286250I0J218750D01*
G01*
X153885000Y-100773750D01*
G75*
G02*
X154103750Y-100555000I218750J0D01*
G01*
X154541250Y-100555000D01*
G75*
G02*
X154760000Y-100773750I0J-218750D01*
G01*
G37*
G36*
G01*
X151343750Y-96280000D02*
X151856250Y-96280000D01*
G75*
G02*
X152075000Y-96498750I0J-218750D01*
G01*
X152075000Y-96936250D01*
G75*
G02*
X151856250Y-97155000I-218750J0D01*
G01*
X151343750Y-97155000D01*
G75*
G02*
X151125000Y-96936250I0J218750D01*
G01*
X151125000Y-96498750D01*
G75*
G02*
X151343750Y-96280000I218750J0D01*
G01*
G37*
G36*
G01*
X151343750Y-94705000D02*
X151856250Y-94705000D01*
G75*
G02*
X152075000Y-94923750I0J-218750D01*
G01*
X152075000Y-95361250D01*
G75*
G02*
X151856250Y-95580000I-218750J0D01*
G01*
X151343750Y-95580000D01*
G75*
G02*
X151125000Y-95361250I0J218750D01*
G01*
X151125000Y-94923750D01*
G75*
G02*
X151343750Y-94705000I218750J0D01*
G01*
G37*
G36*
G01*
X114016250Y-101610000D02*
X113503750Y-101610000D01*
G75*
G02*
X113285000Y-101391250I0J218750D01*
G01*
X113285000Y-100953750D01*
G75*
G02*
X113503750Y-100735000I218750J0D01*
G01*
X114016250Y-100735000D01*
G75*
G02*
X114235000Y-100953750I0J-218750D01*
G01*
X114235000Y-101391250D01*
G75*
G02*
X114016250Y-101610000I-218750J0D01*
G01*
G37*
G36*
G01*
X114016250Y-103185000D02*
X113503750Y-103185000D01*
G75*
G02*
X113285000Y-102966250I0J218750D01*
G01*
X113285000Y-102528750D01*
G75*
G02*
X113503750Y-102310000I218750J0D01*
G01*
X114016250Y-102310000D01*
G75*
G02*
X114235000Y-102528750I0J-218750D01*
G01*
X114235000Y-102966250D01*
G75*
G02*
X114016250Y-103185000I-218750J0D01*
G01*
G37*
G36*
G01*
X159445000Y-93596250D02*
X159445000Y-93083750D01*
G75*
G02*
X159663750Y-92865000I218750J0D01*
G01*
X160101250Y-92865000D01*
G75*
G02*
X160320000Y-93083750I0J-218750D01*
G01*
X160320000Y-93596250D01*
G75*
G02*
X160101250Y-93815000I-218750J0D01*
G01*
X159663750Y-93815000D01*
G75*
G02*
X159445000Y-93596250I0J218750D01*
G01*
G37*
G36*
G01*
X161020000Y-93596250D02*
X161020000Y-93083750D01*
G75*
G02*
X161238750Y-92865000I218750J0D01*
G01*
X161676250Y-92865000D01*
G75*
G02*
X161895000Y-93083750I0J-218750D01*
G01*
X161895000Y-93596250D01*
G75*
G02*
X161676250Y-93815000I-218750J0D01*
G01*
X161238750Y-93815000D01*
G75*
G02*
X161020000Y-93596250I0J218750D01*
G01*
G37*
G36*
G01*
X175900000Y-70606250D02*
X175900000Y-70093750D01*
G75*
G02*
X176118750Y-69875000I218750J0D01*
G01*
X176556250Y-69875000D01*
G75*
G02*
X176775000Y-70093750I0J-218750D01*
G01*
X176775000Y-70606250D01*
G75*
G02*
X176556250Y-70825000I-218750J0D01*
G01*
X176118750Y-70825000D01*
G75*
G02*
X175900000Y-70606250I0J218750D01*
G01*
G37*
G36*
G01*
X174325000Y-70606250D02*
X174325000Y-70093750D01*
G75*
G02*
X174543750Y-69875000I218750J0D01*
G01*
X174981250Y-69875000D01*
G75*
G02*
X175200000Y-70093750I0J-218750D01*
G01*
X175200000Y-70606250D01*
G75*
G02*
X174981250Y-70825000I-218750J0D01*
G01*
X174543750Y-70825000D01*
G75*
G02*
X174325000Y-70606250I0J218750D01*
G01*
G37*
G36*
G01*
X126503750Y-106344000D02*
X127016250Y-106344000D01*
G75*
G02*
X127235000Y-106562750I0J-218750D01*
G01*
X127235000Y-107000250D01*
G75*
G02*
X127016250Y-107219000I-218750J0D01*
G01*
X126503750Y-107219000D01*
G75*
G02*
X126285000Y-107000250I0J218750D01*
G01*
X126285000Y-106562750D01*
G75*
G02*
X126503750Y-106344000I218750J0D01*
G01*
G37*
G36*
G01*
X126503750Y-104769000D02*
X127016250Y-104769000D01*
G75*
G02*
X127235000Y-104987750I0J-218750D01*
G01*
X127235000Y-105425250D01*
G75*
G02*
X127016250Y-105644000I-218750J0D01*
G01*
X126503750Y-105644000D01*
G75*
G02*
X126285000Y-105425250I0J218750D01*
G01*
X126285000Y-104987750D01*
G75*
G02*
X126503750Y-104769000I218750J0D01*
G01*
G37*
G36*
G01*
X156240000Y-84883750D02*
X156240000Y-85396250D01*
G75*
G02*
X156021250Y-85615000I-218750J0D01*
G01*
X155583750Y-85615000D01*
G75*
G02*
X155365000Y-85396250I0J218750D01*
G01*
X155365000Y-84883750D01*
G75*
G02*
X155583750Y-84665000I218750J0D01*
G01*
X156021250Y-84665000D01*
G75*
G02*
X156240000Y-84883750I0J-218750D01*
G01*
G37*
G36*
G01*
X157815000Y-84883750D02*
X157815000Y-85396250D01*
G75*
G02*
X157596250Y-85615000I-218750J0D01*
G01*
X157158750Y-85615000D01*
G75*
G02*
X156940000Y-85396250I0J218750D01*
G01*
X156940000Y-84883750D01*
G75*
G02*
X157158750Y-84665000I218750J0D01*
G01*
X157596250Y-84665000D01*
G75*
G02*
X157815000Y-84883750I0J-218750D01*
G01*
G37*
G36*
G01*
X114625000Y-97906250D02*
X114625000Y-97393750D01*
G75*
G02*
X114843750Y-97175000I218750J0D01*
G01*
X115281250Y-97175000D01*
G75*
G02*
X115500000Y-97393750I0J-218750D01*
G01*
X115500000Y-97906250D01*
G75*
G02*
X115281250Y-98125000I-218750J0D01*
G01*
X114843750Y-98125000D01*
G75*
G02*
X114625000Y-97906250I0J218750D01*
G01*
G37*
G36*
G01*
X116200000Y-97906250D02*
X116200000Y-97393750D01*
G75*
G02*
X116418750Y-97175000I218750J0D01*
G01*
X116856250Y-97175000D01*
G75*
G02*
X117075000Y-97393750I0J-218750D01*
G01*
X117075000Y-97906250D01*
G75*
G02*
X116856250Y-98125000I-218750J0D01*
G01*
X116418750Y-98125000D01*
G75*
G02*
X116200000Y-97906250I0J218750D01*
G01*
G37*
G36*
G01*
X116616250Y-107225000D02*
X116103750Y-107225000D01*
G75*
G02*
X115885000Y-107006250I0J218750D01*
G01*
X115885000Y-106568750D01*
G75*
G02*
X116103750Y-106350000I218750J0D01*
G01*
X116616250Y-106350000D01*
G75*
G02*
X116835000Y-106568750I0J-218750D01*
G01*
X116835000Y-107006250D01*
G75*
G02*
X116616250Y-107225000I-218750J0D01*
G01*
G37*
G36*
G01*
X116616250Y-105650000D02*
X116103750Y-105650000D01*
G75*
G02*
X115885000Y-105431250I0J218750D01*
G01*
X115885000Y-104993750D01*
G75*
G02*
X116103750Y-104775000I218750J0D01*
G01*
X116616250Y-104775000D01*
G75*
G02*
X116835000Y-104993750I0J-218750D01*
G01*
X116835000Y-105431250D01*
G75*
G02*
X116616250Y-105650000I-218750J0D01*
G01*
G37*
G36*
G01*
X155995000Y-76976250D02*
X155995000Y-76463750D01*
G75*
G02*
X156213750Y-76245000I218750J0D01*
G01*
X156651250Y-76245000D01*
G75*
G02*
X156870000Y-76463750I0J-218750D01*
G01*
X156870000Y-76976250D01*
G75*
G02*
X156651250Y-77195000I-218750J0D01*
G01*
X156213750Y-77195000D01*
G75*
G02*
X155995000Y-76976250I0J218750D01*
G01*
G37*
G36*
G01*
X157570000Y-76976250D02*
X157570000Y-76463750D01*
G75*
G02*
X157788750Y-76245000I218750J0D01*
G01*
X158226250Y-76245000D01*
G75*
G02*
X158445000Y-76463750I0J-218750D01*
G01*
X158445000Y-76976250D01*
G75*
G02*
X158226250Y-77195000I-218750J0D01*
G01*
X157788750Y-77195000D01*
G75*
G02*
X157570000Y-76976250I0J218750D01*
G01*
G37*
G36*
G01*
X123400000Y-97906250D02*
X123400000Y-97393750D01*
G75*
G02*
X123618750Y-97175000I218750J0D01*
G01*
X124056250Y-97175000D01*
G75*
G02*
X124275000Y-97393750I0J-218750D01*
G01*
X124275000Y-97906250D01*
G75*
G02*
X124056250Y-98125000I-218750J0D01*
G01*
X123618750Y-98125000D01*
G75*
G02*
X123400000Y-97906250I0J218750D01*
G01*
G37*
G36*
G01*
X121825000Y-97906250D02*
X121825000Y-97393750D01*
G75*
G02*
X122043750Y-97175000I218750J0D01*
G01*
X122481250Y-97175000D01*
G75*
G02*
X122700000Y-97393750I0J-218750D01*
G01*
X122700000Y-97906250D01*
G75*
G02*
X122481250Y-98125000I-218750J0D01*
G01*
X122043750Y-98125000D01*
G75*
G02*
X121825000Y-97906250I0J218750D01*
G01*
G37*
G36*
G01*
X180050000Y-93596250D02*
X180050000Y-93083750D01*
G75*
G02*
X180268750Y-92865000I218750J0D01*
G01*
X180706250Y-92865000D01*
G75*
G02*
X180925000Y-93083750I0J-218750D01*
G01*
X180925000Y-93596250D01*
G75*
G02*
X180706250Y-93815000I-218750J0D01*
G01*
X180268750Y-93815000D01*
G75*
G02*
X180050000Y-93596250I0J218750D01*
G01*
G37*
G36*
G01*
X178475000Y-93596250D02*
X178475000Y-93083750D01*
G75*
G02*
X178693750Y-92865000I218750J0D01*
G01*
X179131250Y-92865000D01*
G75*
G02*
X179350000Y-93083750I0J-218750D01*
G01*
X179350000Y-93596250D01*
G75*
G02*
X179131250Y-93815000I-218750J0D01*
G01*
X178693750Y-93815000D01*
G75*
G02*
X178475000Y-93596250I0J218750D01*
G01*
G37*
G36*
G01*
X121816250Y-107225000D02*
X121303750Y-107225000D01*
G75*
G02*
X121085000Y-107006250I0J218750D01*
G01*
X121085000Y-106568750D01*
G75*
G02*
X121303750Y-106350000I218750J0D01*
G01*
X121816250Y-106350000D01*
G75*
G02*
X122035000Y-106568750I0J-218750D01*
G01*
X122035000Y-107006250D01*
G75*
G02*
X121816250Y-107225000I-218750J0D01*
G01*
G37*
G36*
G01*
X121816250Y-105650000D02*
X121303750Y-105650000D01*
G75*
G02*
X121085000Y-105431250I0J218750D01*
G01*
X121085000Y-104993750D01*
G75*
G02*
X121303750Y-104775000I218750J0D01*
G01*
X121816250Y-104775000D01*
G75*
G02*
X122035000Y-104993750I0J-218750D01*
G01*
X122035000Y-105431250D01*
G75*
G02*
X121816250Y-105650000I-218750J0D01*
G01*
G37*
G36*
G01*
X151353750Y-98965000D02*
X151866250Y-98965000D01*
G75*
G02*
X152085000Y-99183750I0J-218750D01*
G01*
X152085000Y-99621250D01*
G75*
G02*
X151866250Y-99840000I-218750J0D01*
G01*
X151353750Y-99840000D01*
G75*
G02*
X151135000Y-99621250I0J218750D01*
G01*
X151135000Y-99183750D01*
G75*
G02*
X151353750Y-98965000I218750J0D01*
G01*
G37*
G36*
G01*
X151353750Y-100540000D02*
X151866250Y-100540000D01*
G75*
G02*
X152085000Y-100758750I0J-218750D01*
G01*
X152085000Y-101196250D01*
G75*
G02*
X151866250Y-101415000I-218750J0D01*
G01*
X151353750Y-101415000D01*
G75*
G02*
X151135000Y-101196250I0J218750D01*
G01*
X151135000Y-100758750D01*
G75*
G02*
X151353750Y-100540000I218750J0D01*
G01*
G37*
G36*
G01*
X162600000Y-76986250D02*
X162600000Y-76473750D01*
G75*
G02*
X162818750Y-76255000I218750J0D01*
G01*
X163256250Y-76255000D01*
G75*
G02*
X163475000Y-76473750I0J-218750D01*
G01*
X163475000Y-76986250D01*
G75*
G02*
X163256250Y-77205000I-218750J0D01*
G01*
X162818750Y-77205000D01*
G75*
G02*
X162600000Y-76986250I0J218750D01*
G01*
G37*
G36*
G01*
X161025000Y-76986250D02*
X161025000Y-76473750D01*
G75*
G02*
X161243750Y-76255000I218750J0D01*
G01*
X161681250Y-76255000D01*
G75*
G02*
X161900000Y-76473750I0J-218750D01*
G01*
X161900000Y-76986250D01*
G75*
G02*
X161681250Y-77205000I-218750J0D01*
G01*
X161243750Y-77205000D01*
G75*
G02*
X161025000Y-76986250I0J218750D01*
G01*
G37*
G36*
G01*
X109246250Y-69300000D02*
X108733750Y-69300000D01*
G75*
G02*
X108515000Y-69081250I0J218750D01*
G01*
X108515000Y-68643750D01*
G75*
G02*
X108733750Y-68425000I218750J0D01*
G01*
X109246250Y-68425000D01*
G75*
G02*
X109465000Y-68643750I0J-218750D01*
G01*
X109465000Y-69081250D01*
G75*
G02*
X109246250Y-69300000I-218750J0D01*
G01*
G37*
G36*
G01*
X109246250Y-70875000D02*
X108733750Y-70875000D01*
G75*
G02*
X108515000Y-70656250I0J218750D01*
G01*
X108515000Y-70218750D01*
G75*
G02*
X108733750Y-70000000I218750J0D01*
G01*
X109246250Y-70000000D01*
G75*
G02*
X109465000Y-70218750I0J-218750D01*
G01*
X109465000Y-70656250D01*
G75*
G02*
X109246250Y-70875000I-218750J0D01*
G01*
G37*
G36*
G01*
X106916250Y-70865000D02*
X106403750Y-70865000D01*
G75*
G02*
X106185000Y-70646250I0J218750D01*
G01*
X106185000Y-70208750D01*
G75*
G02*
X106403750Y-69990000I218750J0D01*
G01*
X106916250Y-69990000D01*
G75*
G02*
X107135000Y-70208750I0J-218750D01*
G01*
X107135000Y-70646250D01*
G75*
G02*
X106916250Y-70865000I-218750J0D01*
G01*
G37*
G36*
G01*
X106916250Y-69290000D02*
X106403750Y-69290000D01*
G75*
G02*
X106185000Y-69071250I0J218750D01*
G01*
X106185000Y-68633750D01*
G75*
G02*
X106403750Y-68415000I218750J0D01*
G01*
X106916250Y-68415000D01*
G75*
G02*
X107135000Y-68633750I0J-218750D01*
G01*
X107135000Y-69071250D01*
G75*
G02*
X106916250Y-69290000I-218750J0D01*
G01*
G37*
D10*
X120700000Y-80750000D03*
G36*
G01*
X120175000Y-83600000D02*
X121225000Y-83600000D01*
G75*
G02*
X121550000Y-83925000I0J-325000D01*
G01*
X121550000Y-84575000D01*
G75*
G02*
X121225000Y-84900000I-325000J0D01*
G01*
X120175000Y-84900000D01*
G75*
G02*
X119850000Y-84575000I0J325000D01*
G01*
X119850000Y-83925000D01*
G75*
G02*
X120175000Y-83600000I325000J0D01*
G01*
G37*
G36*
G01*
X139730000Y-65955000D02*
X139730000Y-67005000D01*
G75*
G02*
X139405000Y-67330000I-325000J0D01*
G01*
X138755000Y-67330000D01*
G75*
G02*
X138430000Y-67005000I0J325000D01*
G01*
X138430000Y-65955000D01*
G75*
G02*
X138755000Y-65630000I325000J0D01*
G01*
X139405000Y-65630000D01*
G75*
G02*
X139730000Y-65955000I0J-325000D01*
G01*
G37*
D11*
X142580000Y-66480000D03*
G36*
G01*
X99665000Y-69465000D02*
X98415000Y-69465000D01*
G75*
G02*
X98165000Y-69215000I0J250000D01*
G01*
X98165000Y-68465000D01*
G75*
G02*
X98415000Y-68215000I250000J0D01*
G01*
X99665000Y-68215000D01*
G75*
G02*
X99915000Y-68465000I0J-250000D01*
G01*
X99915000Y-69215000D01*
G75*
G02*
X99665000Y-69465000I-250000J0D01*
G01*
G37*
G36*
G01*
X99665000Y-66665000D02*
X98415000Y-66665000D01*
G75*
G02*
X98165000Y-66415000I0J250000D01*
G01*
X98165000Y-65665000D01*
G75*
G02*
X98415000Y-65415000I250000J0D01*
G01*
X99665000Y-65415000D01*
G75*
G02*
X99915000Y-65665000I0J-250000D01*
G01*
X99915000Y-66415000D01*
G75*
G02*
X99665000Y-66665000I-250000J0D01*
G01*
G37*
G36*
G01*
X127716500Y-76568500D02*
X128966500Y-76568500D01*
G75*
G02*
X129191500Y-76793500I0J-225000D01*
G01*
X129191500Y-77243500D01*
G75*
G02*
X128966500Y-77468500I-225000J0D01*
G01*
X127716500Y-77468500D01*
G75*
G02*
X127491500Y-77243500I0J225000D01*
G01*
X127491500Y-76793500D01*
G75*
G02*
X127716500Y-76568500I225000J0D01*
G01*
G37*
G36*
G01*
X127716500Y-79968500D02*
X128966500Y-79968500D01*
G75*
G02*
X129191500Y-80193500I0J-225000D01*
G01*
X129191500Y-80643500D01*
G75*
G02*
X128966500Y-80868500I-225000J0D01*
G01*
X127716500Y-80868500D01*
G75*
G02*
X127491500Y-80643500I0J225000D01*
G01*
X127491500Y-80193500D01*
G75*
G02*
X127716500Y-79968500I225000J0D01*
G01*
G37*
G36*
G01*
X116810000Y-84590000D02*
X116810000Y-84090000D01*
G75*
G02*
X117060000Y-83840000I250000J0D01*
G01*
X118060000Y-83840000D01*
G75*
G02*
X118310000Y-84090000I0J-250000D01*
G01*
X118310000Y-84590000D01*
G75*
G02*
X118060000Y-84840000I-250000J0D01*
G01*
X117060000Y-84840000D01*
G75*
G02*
X116810000Y-84590000I0J250000D01*
G01*
G37*
G36*
G01*
X116810000Y-81390000D02*
X116810000Y-80890000D01*
G75*
G02*
X117060000Y-80640000I250000J0D01*
G01*
X118060000Y-80640000D01*
G75*
G02*
X118310000Y-80890000I0J-250000D01*
G01*
X118310000Y-81390000D01*
G75*
G02*
X118060000Y-81640000I-250000J0D01*
G01*
X117060000Y-81640000D01*
G75*
G02*
X116810000Y-81390000I0J250000D01*
G01*
G37*
G36*
G01*
X111910000Y-84590000D02*
X111910000Y-84090000D01*
G75*
G02*
X112160000Y-83840000I250000J0D01*
G01*
X113160000Y-83840000D01*
G75*
G02*
X113410000Y-84090000I0J-250000D01*
G01*
X113410000Y-84590000D01*
G75*
G02*
X113160000Y-84840000I-250000J0D01*
G01*
X112160000Y-84840000D01*
G75*
G02*
X111910000Y-84590000I0J250000D01*
G01*
G37*
G36*
G01*
X111910000Y-81390000D02*
X111910000Y-80890000D01*
G75*
G02*
X112160000Y-80640000I250000J0D01*
G01*
X113160000Y-80640000D01*
G75*
G02*
X113410000Y-80890000I0J-250000D01*
G01*
X113410000Y-81390000D01*
G75*
G02*
X113160000Y-81640000I-250000J0D01*
G01*
X112160000Y-81640000D01*
G75*
G02*
X111910000Y-81390000I0J250000D01*
G01*
G37*
G36*
G01*
X100700500Y-67163750D02*
X100700500Y-66651250D01*
G75*
G02*
X100919250Y-66432500I218750J0D01*
G01*
X101356750Y-66432500D01*
G75*
G02*
X101575500Y-66651250I0J-218750D01*
G01*
X101575500Y-67163750D01*
G75*
G02*
X101356750Y-67382500I-218750J0D01*
G01*
X100919250Y-67382500D01*
G75*
G02*
X100700500Y-67163750I0J218750D01*
G01*
G37*
G36*
G01*
X102275500Y-67163750D02*
X102275500Y-66651250D01*
G75*
G02*
X102494250Y-66432500I218750J0D01*
G01*
X102931750Y-66432500D01*
G75*
G02*
X103150500Y-66651250I0J-218750D01*
G01*
X103150500Y-67163750D01*
G75*
G02*
X102931750Y-67382500I-218750J0D01*
G01*
X102494250Y-67382500D01*
G75*
G02*
X102275500Y-67163750I0J218750D01*
G01*
G37*
G36*
G01*
X102236250Y-69290000D02*
X101723750Y-69290000D01*
G75*
G02*
X101505000Y-69071250I0J218750D01*
G01*
X101505000Y-68633750D01*
G75*
G02*
X101723750Y-68415000I218750J0D01*
G01*
X102236250Y-68415000D01*
G75*
G02*
X102455000Y-68633750I0J-218750D01*
G01*
X102455000Y-69071250D01*
G75*
G02*
X102236250Y-69290000I-218750J0D01*
G01*
G37*
G36*
G01*
X102236250Y-70865000D02*
X101723750Y-70865000D01*
G75*
G02*
X101505000Y-70646250I0J218750D01*
G01*
X101505000Y-70208750D01*
G75*
G02*
X101723750Y-69990000I218750J0D01*
G01*
X102236250Y-69990000D01*
G75*
G02*
X102455000Y-70208750I0J-218750D01*
G01*
X102455000Y-70646250D01*
G75*
G02*
X102236250Y-70865000I-218750J0D01*
G01*
G37*
D10*
X120700000Y-86810000D03*
G36*
G01*
X120175000Y-89660000D02*
X121225000Y-89660000D01*
G75*
G02*
X121550000Y-89985000I0J-325000D01*
G01*
X121550000Y-90635000D01*
G75*
G02*
X121225000Y-90960000I-325000J0D01*
G01*
X120175000Y-90960000D01*
G75*
G02*
X119850000Y-90635000I0J325000D01*
G01*
X119850000Y-89985000D01*
G75*
G02*
X120175000Y-89660000I325000J0D01*
G01*
G37*
D12*
X107055000Y-86025000D03*
X107055000Y-86975000D03*
X107055000Y-94675000D03*
X107055000Y-93575000D03*
X107055000Y-92475000D03*
X107055000Y-91375000D03*
X107055000Y-90275000D03*
X107055000Y-89175000D03*
X107055000Y-88075000D03*
D13*
X107055000Y-96225000D03*
X102755000Y-85075000D03*
D14*
X96555000Y-85075000D03*
D15*
X92405000Y-85075000D03*
D16*
X91955000Y-98575000D03*
G36*
G01*
X153450000Y-69525000D02*
X153450000Y-69375000D01*
G75*
G02*
X153525000Y-69300000I75000J0D01*
G01*
X154775000Y-69300000D01*
G75*
G02*
X154850000Y-69375000I0J-75000D01*
G01*
X154850000Y-69525000D01*
G75*
G02*
X154775000Y-69600000I-75000J0D01*
G01*
X153525000Y-69600000D01*
G75*
G02*
X153450000Y-69525000I0J75000D01*
G01*
G37*
G36*
G01*
X153450000Y-70025000D02*
X153450000Y-69875000D01*
G75*
G02*
X153525000Y-69800000I75000J0D01*
G01*
X154775000Y-69800000D01*
G75*
G02*
X154850000Y-69875000I0J-75000D01*
G01*
X154850000Y-70025000D01*
G75*
G02*
X154775000Y-70100000I-75000J0D01*
G01*
X153525000Y-70100000D01*
G75*
G02*
X153450000Y-70025000I0J75000D01*
G01*
G37*
G36*
G01*
X153450000Y-70525000D02*
X153450000Y-70375000D01*
G75*
G02*
X153525000Y-70300000I75000J0D01*
G01*
X154775000Y-70300000D01*
G75*
G02*
X154850000Y-70375000I0J-75000D01*
G01*
X154850000Y-70525000D01*
G75*
G02*
X154775000Y-70600000I-75000J0D01*
G01*
X153525000Y-70600000D01*
G75*
G02*
X153450000Y-70525000I0J75000D01*
G01*
G37*
G36*
G01*
X153450000Y-71025000D02*
X153450000Y-70875000D01*
G75*
G02*
X153525000Y-70800000I75000J0D01*
G01*
X154775000Y-70800000D01*
G75*
G02*
X154850000Y-70875000I0J-75000D01*
G01*
X154850000Y-71025000D01*
G75*
G02*
X154775000Y-71100000I-75000J0D01*
G01*
X153525000Y-71100000D01*
G75*
G02*
X153450000Y-71025000I0J75000D01*
G01*
G37*
G36*
G01*
X153450000Y-71525000D02*
X153450000Y-71375000D01*
G75*
G02*
X153525000Y-71300000I75000J0D01*
G01*
X154775000Y-71300000D01*
G75*
G02*
X154850000Y-71375000I0J-75000D01*
G01*
X154850000Y-71525000D01*
G75*
G02*
X154775000Y-71600000I-75000J0D01*
G01*
X153525000Y-71600000D01*
G75*
G02*
X153450000Y-71525000I0J75000D01*
G01*
G37*
G36*
G01*
X157850000Y-71525000D02*
X157850000Y-71375000D01*
G75*
G02*
X157925000Y-71300000I75000J0D01*
G01*
X159175000Y-71300000D01*
G75*
G02*
X159250000Y-71375000I0J-75000D01*
G01*
X159250000Y-71525000D01*
G75*
G02*
X159175000Y-71600000I-75000J0D01*
G01*
X157925000Y-71600000D01*
G75*
G02*
X157850000Y-71525000I0J75000D01*
G01*
G37*
G36*
G01*
X157850000Y-71025000D02*
X157850000Y-70875000D01*
G75*
G02*
X157925000Y-70800000I75000J0D01*
G01*
X159175000Y-70800000D01*
G75*
G02*
X159250000Y-70875000I0J-75000D01*
G01*
X159250000Y-71025000D01*
G75*
G02*
X159175000Y-71100000I-75000J0D01*
G01*
X157925000Y-71100000D01*
G75*
G02*
X157850000Y-71025000I0J75000D01*
G01*
G37*
G36*
G01*
X157850000Y-70525000D02*
X157850000Y-70375000D01*
G75*
G02*
X157925000Y-70300000I75000J0D01*
G01*
X159175000Y-70300000D01*
G75*
G02*
X159250000Y-70375000I0J-75000D01*
G01*
X159250000Y-70525000D01*
G75*
G02*
X159175000Y-70600000I-75000J0D01*
G01*
X157925000Y-70600000D01*
G75*
G02*
X157850000Y-70525000I0J75000D01*
G01*
G37*
G36*
G01*
X157850000Y-70025000D02*
X157850000Y-69875000D01*
G75*
G02*
X157925000Y-69800000I75000J0D01*
G01*
X159175000Y-69800000D01*
G75*
G02*
X159250000Y-69875000I0J-75000D01*
G01*
X159250000Y-70025000D01*
G75*
G02*
X159175000Y-70100000I-75000J0D01*
G01*
X157925000Y-70100000D01*
G75*
G02*
X157850000Y-70025000I0J75000D01*
G01*
G37*
G36*
G01*
X157850000Y-69525000D02*
X157850000Y-69375000D01*
G75*
G02*
X157925000Y-69300000I75000J0D01*
G01*
X159175000Y-69300000D01*
G75*
G02*
X159250000Y-69375000I0J-75000D01*
G01*
X159250000Y-69525000D01*
G75*
G02*
X159175000Y-69600000I-75000J0D01*
G01*
X157925000Y-69600000D01*
G75*
G02*
X157850000Y-69525000I0J75000D01*
G01*
G37*
G36*
G01*
X101730000Y-73350000D02*
X101730000Y-74150000D01*
G75*
G02*
X101430000Y-74450000I-300000J0D01*
G01*
X100830000Y-74450000D01*
G75*
G02*
X100530000Y-74150000I0J300000D01*
G01*
X100530000Y-73350000D01*
G75*
G02*
X100830000Y-73050000I300000J0D01*
G01*
X101430000Y-73050000D01*
G75*
G02*
X101730000Y-73350000I0J-300000D01*
G01*
G37*
G36*
G01*
X99910000Y-73300000D02*
X99910000Y-74200000D01*
G75*
G02*
X99660000Y-74450000I-250000J0D01*
G01*
X99160000Y-74450000D01*
G75*
G02*
X98910000Y-74200000I0J250000D01*
G01*
X98910000Y-73300000D01*
G75*
G02*
X99160000Y-73050000I250000J0D01*
G01*
X99660000Y-73050000D01*
G75*
G02*
X99910000Y-73300000I0J-250000D01*
G01*
G37*
G36*
G01*
X99910000Y-75500000D02*
X99910000Y-76400000D01*
G75*
G02*
X99660000Y-76650000I-250000J0D01*
G01*
X99160000Y-76650000D01*
G75*
G02*
X98910000Y-76400000I0J250000D01*
G01*
X98910000Y-75500000D01*
G75*
G02*
X99160000Y-75250000I250000J0D01*
G01*
X99660000Y-75250000D01*
G75*
G02*
X99910000Y-75500000I0J-250000D01*
G01*
G37*
G36*
G01*
X101810000Y-75500000D02*
X101810000Y-76400000D01*
G75*
G02*
X101560000Y-76650000I-250000J0D01*
G01*
X101060000Y-76650000D01*
G75*
G02*
X100810000Y-76400000I0J250000D01*
G01*
X100810000Y-75500000D01*
G75*
G02*
X101060000Y-75250000I250000J0D01*
G01*
X101560000Y-75250000D01*
G75*
G02*
X101810000Y-75500000I0J-250000D01*
G01*
G37*
G36*
G01*
X119981000Y-110358500D02*
X119457000Y-110358500D01*
G75*
G02*
X119219000Y-110120500I0J238000D01*
G01*
X119219000Y-109496500D01*
G75*
G02*
X119457000Y-109258500I238000J0D01*
G01*
X119981000Y-109258500D01*
G75*
G02*
X120219000Y-109496500I0J-238000D01*
G01*
X120219000Y-110120500D01*
G75*
G02*
X119981000Y-110358500I-238000J0D01*
G01*
G37*
G36*
G01*
X118761000Y-110358500D02*
X118237000Y-110358500D01*
G75*
G02*
X117999000Y-110120500I0J238000D01*
G01*
X117999000Y-109496500D01*
G75*
G02*
X118237000Y-109258500I238000J0D01*
G01*
X118761000Y-109258500D01*
G75*
G02*
X118999000Y-109496500I0J-238000D01*
G01*
X118999000Y-110120500D01*
G75*
G02*
X118761000Y-110358500I-238000J0D01*
G01*
G37*
G36*
G01*
X117541000Y-110358500D02*
X117017000Y-110358500D01*
G75*
G02*
X116779000Y-110120500I0J238000D01*
G01*
X116779000Y-109496500D01*
G75*
G02*
X117017000Y-109258500I238000J0D01*
G01*
X117541000Y-109258500D01*
G75*
G02*
X117779000Y-109496500I0J-238000D01*
G01*
X117779000Y-110120500D01*
G75*
G02*
X117541000Y-110358500I-238000J0D01*
G01*
G37*
G36*
G01*
X119981000Y-111678500D02*
X119457000Y-111678500D01*
G75*
G02*
X119219000Y-111440500I0J238000D01*
G01*
X119219000Y-110816500D01*
G75*
G02*
X119457000Y-110578500I238000J0D01*
G01*
X119981000Y-110578500D01*
G75*
G02*
X120219000Y-110816500I0J-238000D01*
G01*
X120219000Y-111440500D01*
G75*
G02*
X119981000Y-111678500I-238000J0D01*
G01*
G37*
G36*
G01*
X118761000Y-111678500D02*
X118237000Y-111678500D01*
G75*
G02*
X117999000Y-111440500I0J238000D01*
G01*
X117999000Y-110816500D01*
G75*
G02*
X118237000Y-110578500I238000J0D01*
G01*
X118761000Y-110578500D01*
G75*
G02*
X118999000Y-110816500I0J-238000D01*
G01*
X118999000Y-111440500D01*
G75*
G02*
X118761000Y-111678500I-238000J0D01*
G01*
G37*
G36*
G01*
X117541000Y-111678500D02*
X117017000Y-111678500D01*
G75*
G02*
X116779000Y-111440500I0J238000D01*
G01*
X116779000Y-110816500D01*
G75*
G02*
X117017000Y-110578500I238000J0D01*
G01*
X117541000Y-110578500D01*
G75*
G02*
X117779000Y-110816500I0J-238000D01*
G01*
X117779000Y-111440500D01*
G75*
G02*
X117541000Y-111678500I-238000J0D01*
G01*
G37*
G36*
G01*
X116311500Y-111593500D02*
X115586500Y-111593500D01*
G75*
G02*
X115524000Y-111531000I0J62500D01*
G01*
X115524000Y-111406000D01*
G75*
G02*
X115586500Y-111343500I62500J0D01*
G01*
X116311500Y-111343500D01*
G75*
G02*
X116374000Y-111406000I0J-62500D01*
G01*
X116374000Y-111531000D01*
G75*
G02*
X116311500Y-111593500I-62500J0D01*
G01*
G37*
G36*
G01*
X116311500Y-111093500D02*
X115586500Y-111093500D01*
G75*
G02*
X115524000Y-111031000I0J62500D01*
G01*
X115524000Y-110906000D01*
G75*
G02*
X115586500Y-110843500I62500J0D01*
G01*
X116311500Y-110843500D01*
G75*
G02*
X116374000Y-110906000I0J-62500D01*
G01*
X116374000Y-111031000D01*
G75*
G02*
X116311500Y-111093500I-62500J0D01*
G01*
G37*
G36*
G01*
X116311500Y-110593500D02*
X115586500Y-110593500D01*
G75*
G02*
X115524000Y-110531000I0J62500D01*
G01*
X115524000Y-110406000D01*
G75*
G02*
X115586500Y-110343500I62500J0D01*
G01*
X116311500Y-110343500D01*
G75*
G02*
X116374000Y-110406000I0J-62500D01*
G01*
X116374000Y-110531000D01*
G75*
G02*
X116311500Y-110593500I-62500J0D01*
G01*
G37*
G36*
G01*
X116311500Y-110093500D02*
X115586500Y-110093500D01*
G75*
G02*
X115524000Y-110031000I0J62500D01*
G01*
X115524000Y-109906000D01*
G75*
G02*
X115586500Y-109843500I62500J0D01*
G01*
X116311500Y-109843500D01*
G75*
G02*
X116374000Y-109906000I0J-62500D01*
G01*
X116374000Y-110031000D01*
G75*
G02*
X116311500Y-110093500I-62500J0D01*
G01*
G37*
G36*
G01*
X116311500Y-109593500D02*
X115586500Y-109593500D01*
G75*
G02*
X115524000Y-109531000I0J62500D01*
G01*
X115524000Y-109406000D01*
G75*
G02*
X115586500Y-109343500I62500J0D01*
G01*
X116311500Y-109343500D01*
G75*
G02*
X116374000Y-109406000I0J-62500D01*
G01*
X116374000Y-109531000D01*
G75*
G02*
X116311500Y-109593500I-62500J0D01*
G01*
G37*
G36*
G01*
X117061500Y-108843500D02*
X116936500Y-108843500D01*
G75*
G02*
X116874000Y-108781000I0J62500D01*
G01*
X116874000Y-108056000D01*
G75*
G02*
X116936500Y-107993500I62500J0D01*
G01*
X117061500Y-107993500D01*
G75*
G02*
X117124000Y-108056000I0J-62500D01*
G01*
X117124000Y-108781000D01*
G75*
G02*
X117061500Y-108843500I-62500J0D01*
G01*
G37*
G36*
G01*
X117561500Y-108843500D02*
X117436500Y-108843500D01*
G75*
G02*
X117374000Y-108781000I0J62500D01*
G01*
X117374000Y-108056000D01*
G75*
G02*
X117436500Y-107993500I62500J0D01*
G01*
X117561500Y-107993500D01*
G75*
G02*
X117624000Y-108056000I0J-62500D01*
G01*
X117624000Y-108781000D01*
G75*
G02*
X117561500Y-108843500I-62500J0D01*
G01*
G37*
G36*
G01*
X118061500Y-108843500D02*
X117936500Y-108843500D01*
G75*
G02*
X117874000Y-108781000I0J62500D01*
G01*
X117874000Y-108056000D01*
G75*
G02*
X117936500Y-107993500I62500J0D01*
G01*
X118061500Y-107993500D01*
G75*
G02*
X118124000Y-108056000I0J-62500D01*
G01*
X118124000Y-108781000D01*
G75*
G02*
X118061500Y-108843500I-62500J0D01*
G01*
G37*
G36*
G01*
X118561500Y-108843500D02*
X118436500Y-108843500D01*
G75*
G02*
X118374000Y-108781000I0J62500D01*
G01*
X118374000Y-108056000D01*
G75*
G02*
X118436500Y-107993500I62500J0D01*
G01*
X118561500Y-107993500D01*
G75*
G02*
X118624000Y-108056000I0J-62500D01*
G01*
X118624000Y-108781000D01*
G75*
G02*
X118561500Y-108843500I-62500J0D01*
G01*
G37*
G36*
G01*
X119061500Y-108843500D02*
X118936500Y-108843500D01*
G75*
G02*
X118874000Y-108781000I0J62500D01*
G01*
X118874000Y-108056000D01*
G75*
G02*
X118936500Y-107993500I62500J0D01*
G01*
X119061500Y-107993500D01*
G75*
G02*
X119124000Y-108056000I0J-62500D01*
G01*
X119124000Y-108781000D01*
G75*
G02*
X119061500Y-108843500I-62500J0D01*
G01*
G37*
G36*
G01*
X119561500Y-108843500D02*
X119436500Y-108843500D01*
G75*
G02*
X119374000Y-108781000I0J62500D01*
G01*
X119374000Y-108056000D01*
G75*
G02*
X119436500Y-107993500I62500J0D01*
G01*
X119561500Y-107993500D01*
G75*
G02*
X119624000Y-108056000I0J-62500D01*
G01*
X119624000Y-108781000D01*
G75*
G02*
X119561500Y-108843500I-62500J0D01*
G01*
G37*
G36*
G01*
X120061500Y-108843500D02*
X119936500Y-108843500D01*
G75*
G02*
X119874000Y-108781000I0J62500D01*
G01*
X119874000Y-108056000D01*
G75*
G02*
X119936500Y-107993500I62500J0D01*
G01*
X120061500Y-107993500D01*
G75*
G02*
X120124000Y-108056000I0J-62500D01*
G01*
X120124000Y-108781000D01*
G75*
G02*
X120061500Y-108843500I-62500J0D01*
G01*
G37*
G36*
G01*
X121411500Y-109593500D02*
X120686500Y-109593500D01*
G75*
G02*
X120624000Y-109531000I0J62500D01*
G01*
X120624000Y-109406000D01*
G75*
G02*
X120686500Y-109343500I62500J0D01*
G01*
X121411500Y-109343500D01*
G75*
G02*
X121474000Y-109406000I0J-62500D01*
G01*
X121474000Y-109531000D01*
G75*
G02*
X121411500Y-109593500I-62500J0D01*
G01*
G37*
G36*
G01*
X121411500Y-110093500D02*
X120686500Y-110093500D01*
G75*
G02*
X120624000Y-110031000I0J62500D01*
G01*
X120624000Y-109906000D01*
G75*
G02*
X120686500Y-109843500I62500J0D01*
G01*
X121411500Y-109843500D01*
G75*
G02*
X121474000Y-109906000I0J-62500D01*
G01*
X121474000Y-110031000D01*
G75*
G02*
X121411500Y-110093500I-62500J0D01*
G01*
G37*
G36*
G01*
X121411500Y-110593500D02*
X120686500Y-110593500D01*
G75*
G02*
X120624000Y-110531000I0J62500D01*
G01*
X120624000Y-110406000D01*
G75*
G02*
X120686500Y-110343500I62500J0D01*
G01*
X121411500Y-110343500D01*
G75*
G02*
X121474000Y-110406000I0J-62500D01*
G01*
X121474000Y-110531000D01*
G75*
G02*
X121411500Y-110593500I-62500J0D01*
G01*
G37*
G36*
G01*
X121411500Y-111093500D02*
X120686500Y-111093500D01*
G75*
G02*
X120624000Y-111031000I0J62500D01*
G01*
X120624000Y-110906000D01*
G75*
G02*
X120686500Y-110843500I62500J0D01*
G01*
X121411500Y-110843500D01*
G75*
G02*
X121474000Y-110906000I0J-62500D01*
G01*
X121474000Y-111031000D01*
G75*
G02*
X121411500Y-111093500I-62500J0D01*
G01*
G37*
G36*
G01*
X121411500Y-111593500D02*
X120686500Y-111593500D01*
G75*
G02*
X120624000Y-111531000I0J62500D01*
G01*
X120624000Y-111406000D01*
G75*
G02*
X120686500Y-111343500I62500J0D01*
G01*
X121411500Y-111343500D01*
G75*
G02*
X121474000Y-111406000I0J-62500D01*
G01*
X121474000Y-111531000D01*
G75*
G02*
X121411500Y-111593500I-62500J0D01*
G01*
G37*
G36*
G01*
X120061500Y-112943500D02*
X119936500Y-112943500D01*
G75*
G02*
X119874000Y-112881000I0J62500D01*
G01*
X119874000Y-112156000D01*
G75*
G02*
X119936500Y-112093500I62500J0D01*
G01*
X120061500Y-112093500D01*
G75*
G02*
X120124000Y-112156000I0J-62500D01*
G01*
X120124000Y-112881000D01*
G75*
G02*
X120061500Y-112943500I-62500J0D01*
G01*
G37*
G36*
G01*
X119561500Y-112943500D02*
X119436500Y-112943500D01*
G75*
G02*
X119374000Y-112881000I0J62500D01*
G01*
X119374000Y-112156000D01*
G75*
G02*
X119436500Y-112093500I62500J0D01*
G01*
X119561500Y-112093500D01*
G75*
G02*
X119624000Y-112156000I0J-62500D01*
G01*
X119624000Y-112881000D01*
G75*
G02*
X119561500Y-112943500I-62500J0D01*
G01*
G37*
G36*
G01*
X119061500Y-112943500D02*
X118936500Y-112943500D01*
G75*
G02*
X118874000Y-112881000I0J62500D01*
G01*
X118874000Y-112156000D01*
G75*
G02*
X118936500Y-112093500I62500J0D01*
G01*
X119061500Y-112093500D01*
G75*
G02*
X119124000Y-112156000I0J-62500D01*
G01*
X119124000Y-112881000D01*
G75*
G02*
X119061500Y-112943500I-62500J0D01*
G01*
G37*
G36*
G01*
X118561500Y-112943500D02*
X118436500Y-112943500D01*
G75*
G02*
X118374000Y-112881000I0J62500D01*
G01*
X118374000Y-112156000D01*
G75*
G02*
X118436500Y-112093500I62500J0D01*
G01*
X118561500Y-112093500D01*
G75*
G02*
X118624000Y-112156000I0J-62500D01*
G01*
X118624000Y-112881000D01*
G75*
G02*
X118561500Y-112943500I-62500J0D01*
G01*
G37*
G36*
G01*
X118061500Y-112943500D02*
X117936500Y-112943500D01*
G75*
G02*
X117874000Y-112881000I0J62500D01*
G01*
X117874000Y-112156000D01*
G75*
G02*
X117936500Y-112093500I62500J0D01*
G01*
X118061500Y-112093500D01*
G75*
G02*
X118124000Y-112156000I0J-62500D01*
G01*
X118124000Y-112881000D01*
G75*
G02*
X118061500Y-112943500I-62500J0D01*
G01*
G37*
G36*
G01*
X117561500Y-112943500D02*
X117436500Y-112943500D01*
G75*
G02*
X117374000Y-112881000I0J62500D01*
G01*
X117374000Y-112156000D01*
G75*
G02*
X117436500Y-112093500I62500J0D01*
G01*
X117561500Y-112093500D01*
G75*
G02*
X117624000Y-112156000I0J-62500D01*
G01*
X117624000Y-112881000D01*
G75*
G02*
X117561500Y-112943500I-62500J0D01*
G01*
G37*
G36*
G01*
X117061500Y-112943500D02*
X116936500Y-112943500D01*
G75*
G02*
X116874000Y-112881000I0J62500D01*
G01*
X116874000Y-112156000D01*
G75*
G02*
X116936500Y-112093500I62500J0D01*
G01*
X117061500Y-112093500D01*
G75*
G02*
X117124000Y-112156000I0J-62500D01*
G01*
X117124000Y-112881000D01*
G75*
G02*
X117061500Y-112943500I-62500J0D01*
G01*
G37*
D17*
X111260000Y-111933000D03*
X111260000Y-108623000D03*
G36*
G01*
X122989000Y-112712000D02*
X122989000Y-112162000D01*
G75*
G02*
X123189000Y-111962000I200000J0D01*
G01*
X123589000Y-111962000D01*
G75*
G02*
X123789000Y-112162000I0J-200000D01*
G01*
X123789000Y-112712000D01*
G75*
G02*
X123589000Y-112912000I-200000J0D01*
G01*
X123189000Y-112912000D01*
G75*
G02*
X122989000Y-112712000I0J200000D01*
G01*
G37*
G36*
G01*
X124639000Y-112712000D02*
X124639000Y-112162000D01*
G75*
G02*
X124839000Y-111962000I200000J0D01*
G01*
X125239000Y-111962000D01*
G75*
G02*
X125439000Y-112162000I0J-200000D01*
G01*
X125439000Y-112712000D01*
G75*
G02*
X125239000Y-112912000I-200000J0D01*
G01*
X124839000Y-112912000D01*
G75*
G02*
X124639000Y-112712000I0J200000D01*
G01*
G37*
G36*
G01*
X122834001Y-90543501D02*
X122834001Y-89993501D01*
G75*
G02*
X123034001Y-89793501I200000J0D01*
G01*
X123434001Y-89793501D01*
G75*
G02*
X123634001Y-89993501I0J-200000D01*
G01*
X123634001Y-90543501D01*
G75*
G02*
X123434001Y-90743501I-200000J0D01*
G01*
X123034001Y-90743501D01*
G75*
G02*
X122834001Y-90543501I0J200000D01*
G01*
G37*
G36*
G01*
X121184001Y-90543501D02*
X121184001Y-89993501D01*
G75*
G02*
X121384001Y-89793501I200000J0D01*
G01*
X121784001Y-89793501D01*
G75*
G02*
X121984001Y-89993501I0J-200000D01*
G01*
X121984001Y-90543501D01*
G75*
G02*
X121784001Y-90743501I-200000J0D01*
G01*
X121384001Y-90743501D01*
G75*
G02*
X121184001Y-90543501I0J200000D01*
G01*
G37*
G36*
G01*
X124004000Y-96456000D02*
X124004000Y-95906000D01*
G75*
G02*
X124204000Y-95706000I200000J0D01*
G01*
X124604000Y-95706000D01*
G75*
G02*
X124804000Y-95906000I0J-200000D01*
G01*
X124804000Y-96456000D01*
G75*
G02*
X124604000Y-96656000I-200000J0D01*
G01*
X124204000Y-96656000D01*
G75*
G02*
X124004000Y-96456000I0J200000D01*
G01*
G37*
G36*
G01*
X122354000Y-96456000D02*
X122354000Y-95906000D01*
G75*
G02*
X122554000Y-95706000I200000J0D01*
G01*
X122954000Y-95706000D01*
G75*
G02*
X123154000Y-95906000I0J-200000D01*
G01*
X123154000Y-96456000D01*
G75*
G02*
X122954000Y-96656000I-200000J0D01*
G01*
X122554000Y-96656000D01*
G75*
G02*
X122354000Y-96456000I0J200000D01*
G01*
G37*
G36*
G01*
X121184001Y-93053501D02*
X121184001Y-92503501D01*
G75*
G02*
X121384001Y-92303501I200000J0D01*
G01*
X121784001Y-92303501D01*
G75*
G02*
X121984001Y-92503501I0J-200000D01*
G01*
X121984001Y-93053501D01*
G75*
G02*
X121784001Y-93253501I-200000J0D01*
G01*
X121384001Y-93253501D01*
G75*
G02*
X121184001Y-93053501I0J200000D01*
G01*
G37*
G36*
G01*
X122834001Y-93053501D02*
X122834001Y-92503501D01*
G75*
G02*
X123034001Y-92303501I200000J0D01*
G01*
X123434001Y-92303501D01*
G75*
G02*
X123634001Y-92503501I0J-200000D01*
G01*
X123634001Y-93053501D01*
G75*
G02*
X123434001Y-93253501I-200000J0D01*
G01*
X123034001Y-93253501D01*
G75*
G02*
X122834001Y-93053501I0J200000D01*
G01*
G37*
G36*
G01*
X126844001Y-90543501D02*
X126844001Y-89993501D01*
G75*
G02*
X127044001Y-89793501I200000J0D01*
G01*
X127444001Y-89793501D01*
G75*
G02*
X127644001Y-89993501I0J-200000D01*
G01*
X127644001Y-90543501D01*
G75*
G02*
X127444001Y-90743501I-200000J0D01*
G01*
X127044001Y-90743501D01*
G75*
G02*
X126844001Y-90543501I0J200000D01*
G01*
G37*
G36*
G01*
X125194001Y-90543501D02*
X125194001Y-89993501D01*
G75*
G02*
X125394001Y-89793501I200000J0D01*
G01*
X125794001Y-89793501D01*
G75*
G02*
X125994001Y-89993501I0J-200000D01*
G01*
X125994001Y-90543501D01*
G75*
G02*
X125794001Y-90743501I-200000J0D01*
G01*
X125394001Y-90743501D01*
G75*
G02*
X125194001Y-90543501I0J200000D01*
G01*
G37*
G36*
G01*
X122354001Y-95563501D02*
X122354001Y-95013501D01*
G75*
G02*
X122554001Y-94813501I200000J0D01*
G01*
X122954001Y-94813501D01*
G75*
G02*
X123154001Y-95013501I0J-200000D01*
G01*
X123154001Y-95563501D01*
G75*
G02*
X122954001Y-95763501I-200000J0D01*
G01*
X122554001Y-95763501D01*
G75*
G02*
X122354001Y-95563501I0J200000D01*
G01*
G37*
G36*
G01*
X124004001Y-95563501D02*
X124004001Y-95013501D01*
G75*
G02*
X124204001Y-94813501I200000J0D01*
G01*
X124604001Y-94813501D01*
G75*
G02*
X124804001Y-95013501I0J-200000D01*
G01*
X124804001Y-95563501D01*
G75*
G02*
X124604001Y-95763501I-200000J0D01*
G01*
X124204001Y-95763501D01*
G75*
G02*
X124004001Y-95563501I0J200000D01*
G01*
G37*
G36*
G01*
X120284500Y-95161000D02*
X120284500Y-94661000D01*
G75*
G02*
X120509500Y-94436000I225000J0D01*
G01*
X120959500Y-94436000D01*
G75*
G02*
X121184500Y-94661000I0J-225000D01*
G01*
X121184500Y-95161000D01*
G75*
G02*
X120959500Y-95386000I-225000J0D01*
G01*
X120509500Y-95386000D01*
G75*
G02*
X120284500Y-95161000I0J225000D01*
G01*
G37*
G36*
G01*
X118734500Y-95161000D02*
X118734500Y-94661000D01*
G75*
G02*
X118959500Y-94436000I225000J0D01*
G01*
X119409500Y-94436000D01*
G75*
G02*
X119634500Y-94661000I0J-225000D01*
G01*
X119634500Y-95161000D01*
G75*
G02*
X119409500Y-95386000I-225000J0D01*
G01*
X118959500Y-95386000D01*
G75*
G02*
X118734500Y-95161000I0J225000D01*
G01*
G37*
G36*
G01*
X124513000Y-99669500D02*
X124513000Y-99169500D01*
G75*
G02*
X124738000Y-98944500I225000J0D01*
G01*
X125188000Y-98944500D01*
G75*
G02*
X125413000Y-99169500I0J-225000D01*
G01*
X125413000Y-99669500D01*
G75*
G02*
X125188000Y-99894500I-225000J0D01*
G01*
X124738000Y-99894500D01*
G75*
G02*
X124513000Y-99669500I0J225000D01*
G01*
G37*
G36*
G01*
X126063000Y-99669500D02*
X126063000Y-99169500D01*
G75*
G02*
X126288000Y-98944500I225000J0D01*
G01*
X126738000Y-98944500D01*
G75*
G02*
X126963000Y-99169500I0J-225000D01*
G01*
X126963000Y-99669500D01*
G75*
G02*
X126738000Y-99894500I-225000J0D01*
G01*
X126288000Y-99894500D01*
G75*
G02*
X126063000Y-99669500I0J225000D01*
G01*
G37*
G36*
G01*
X124270000Y-110695000D02*
X124270000Y-108845000D01*
G75*
G02*
X124520000Y-108595000I250000J0D01*
G01*
X126095000Y-108595000D01*
G75*
G02*
X126345000Y-108845000I0J-250000D01*
G01*
X126345000Y-110695000D01*
G75*
G02*
X126095000Y-110945000I-250000J0D01*
G01*
X124520000Y-110945000D01*
G75*
G02*
X124270000Y-110695000I0J250000D01*
G01*
G37*
G36*
G01*
X129195000Y-110695000D02*
X129195000Y-108845000D01*
G75*
G02*
X129445000Y-108595000I250000J0D01*
G01*
X131020000Y-108595000D01*
G75*
G02*
X131270000Y-108845000I0J-250000D01*
G01*
X131270000Y-110695000D01*
G75*
G02*
X131020000Y-110945000I-250000J0D01*
G01*
X129445000Y-110945000D01*
G75*
G02*
X129195000Y-110695000I0J250000D01*
G01*
G37*
G36*
G01*
X113625000Y-71745000D02*
X111775000Y-71745000D01*
G75*
G02*
X111525000Y-71495000I0J250000D01*
G01*
X111525000Y-69920000D01*
G75*
G02*
X111775000Y-69670000I250000J0D01*
G01*
X113625000Y-69670000D01*
G75*
G02*
X113875000Y-69920000I0J-250000D01*
G01*
X113875000Y-71495000D01*
G75*
G02*
X113625000Y-71745000I-250000J0D01*
G01*
G37*
G36*
G01*
X113625000Y-76670000D02*
X111775000Y-76670000D01*
G75*
G02*
X111525000Y-76420000I0J250000D01*
G01*
X111525000Y-74845000D01*
G75*
G02*
X111775000Y-74595000I250000J0D01*
G01*
X113625000Y-74595000D01*
G75*
G02*
X113875000Y-74845000I0J-250000D01*
G01*
X113875000Y-76420000D01*
G75*
G02*
X113625000Y-76670000I-250000J0D01*
G01*
G37*
G36*
G01*
X117925001Y-76600000D02*
X116074999Y-76600000D01*
G75*
G02*
X115825000Y-76350001I0J249999D01*
G01*
X115825000Y-75524999D01*
G75*
G02*
X116074999Y-75275000I249999J0D01*
G01*
X117925001Y-75275000D01*
G75*
G02*
X118175000Y-75524999I0J-249999D01*
G01*
X118175000Y-76350001D01*
G75*
G02*
X117925001Y-76600000I-249999J0D01*
G01*
G37*
G36*
G01*
X117925001Y-73525000D02*
X116074999Y-73525000D01*
G75*
G02*
X115825000Y-73275001I0J249999D01*
G01*
X115825000Y-72449999D01*
G75*
G02*
X116074999Y-72200000I249999J0D01*
G01*
X117925001Y-72200000D01*
G75*
G02*
X118175000Y-72449999I0J-249999D01*
G01*
X118175000Y-73275001D01*
G75*
G02*
X117925001Y-73525000I-249999J0D01*
G01*
G37*
G36*
G01*
X110460000Y-80685000D02*
X110460000Y-82535000D01*
G75*
G02*
X110210000Y-82785000I-250000J0D01*
G01*
X108635000Y-82785000D01*
G75*
G02*
X108385000Y-82535000I0J250000D01*
G01*
X108385000Y-80685000D01*
G75*
G02*
X108635000Y-80435000I250000J0D01*
G01*
X110210000Y-80435000D01*
G75*
G02*
X110460000Y-80685000I0J-250000D01*
G01*
G37*
G36*
G01*
X105535000Y-80685000D02*
X105535000Y-82535000D01*
G75*
G02*
X105285000Y-82785000I-250000J0D01*
G01*
X103710000Y-82785000D01*
G75*
G02*
X103460000Y-82535000I0J250000D01*
G01*
X103460000Y-80685000D01*
G75*
G02*
X103710000Y-80435000I250000J0D01*
G01*
X105285000Y-80435000D01*
G75*
G02*
X105535000Y-80685000I0J-250000D01*
G01*
G37*
G36*
G01*
X137965500Y-69792500D02*
X137965500Y-71642500D01*
G75*
G02*
X137715500Y-71892500I-250000J0D01*
G01*
X136140500Y-71892500D01*
G75*
G02*
X135890500Y-71642500I0J250000D01*
G01*
X135890500Y-69792500D01*
G75*
G02*
X136140500Y-69542500I250000J0D01*
G01*
X137715500Y-69542500D01*
G75*
G02*
X137965500Y-69792500I0J-250000D01*
G01*
G37*
G36*
G01*
X142890500Y-69792500D02*
X142890500Y-71642500D01*
G75*
G02*
X142640500Y-71892500I-250000J0D01*
G01*
X141065500Y-71892500D01*
G75*
G02*
X140815500Y-71642500I0J250000D01*
G01*
X140815500Y-69792500D01*
G75*
G02*
X141065500Y-69542500I250000J0D01*
G01*
X142640500Y-69542500D01*
G75*
G02*
X142890500Y-69792500I0J-250000D01*
G01*
G37*
G36*
G01*
X111490000Y-67495000D02*
X111490000Y-65645000D01*
G75*
G02*
X111740000Y-65395000I250000J0D01*
G01*
X113315000Y-65395000D01*
G75*
G02*
X113565000Y-65645000I0J-250000D01*
G01*
X113565000Y-67495000D01*
G75*
G02*
X113315000Y-67745000I-250000J0D01*
G01*
X111740000Y-67745000D01*
G75*
G02*
X111490000Y-67495000I0J250000D01*
G01*
G37*
G36*
G01*
X116415000Y-67495000D02*
X116415000Y-65645000D01*
G75*
G02*
X116665000Y-65395000I250000J0D01*
G01*
X118240000Y-65395000D01*
G75*
G02*
X118490000Y-65645000I0J-250000D01*
G01*
X118490000Y-67495000D01*
G75*
G02*
X118240000Y-67745000I-250000J0D01*
G01*
X116665000Y-67745000D01*
G75*
G02*
X116415000Y-67495000I0J250000D01*
G01*
G37*
D18*
X99174500Y-80753000D03*
X99174500Y-81703000D03*
X99174500Y-82653000D03*
X101374500Y-82653000D03*
X101374500Y-80753000D03*
X101374500Y-81703000D03*
G36*
G01*
X128280000Y-65554999D02*
X128280000Y-67405001D01*
G75*
G02*
X128030001Y-67655000I-249999J0D01*
G01*
X127204999Y-67655000D01*
G75*
G02*
X126955000Y-67405001I0J249999D01*
G01*
X126955000Y-65554999D01*
G75*
G02*
X127204999Y-65305000I249999J0D01*
G01*
X128030001Y-65305000D01*
G75*
G02*
X128280000Y-65554999I0J-249999D01*
G01*
G37*
G36*
G01*
X125205000Y-65554999D02*
X125205000Y-67405001D01*
G75*
G02*
X124955001Y-67655000I-249999J0D01*
G01*
X124129999Y-67655000D01*
G75*
G02*
X123880000Y-67405001I0J249999D01*
G01*
X123880000Y-65554999D01*
G75*
G02*
X124129999Y-65305000I249999J0D01*
G01*
X124955001Y-65305000D01*
G75*
G02*
X125205000Y-65554999I0J-249999D01*
G01*
G37*
D19*
X119700000Y-77000000D03*
X121700000Y-76050000D03*
X121700000Y-77950000D03*
X136480000Y-67430000D03*
X136480000Y-65530000D03*
X134480000Y-66480000D03*
D20*
X111765000Y-92752000D03*
X111765000Y-94022000D03*
X111765000Y-95292000D03*
X111765000Y-96562000D03*
D21*
X117230000Y-96562000D03*
X117230000Y-95292000D03*
X117230000Y-94022000D03*
X117230000Y-92752000D03*
D22*
X115125000Y-94657000D03*
G36*
G01*
X128980500Y-100734500D02*
X129480500Y-100734500D01*
G75*
G02*
X129705500Y-100959500I0J-225000D01*
G01*
X129705500Y-101409500D01*
G75*
G02*
X129480500Y-101634500I-225000J0D01*
G01*
X128980500Y-101634500D01*
G75*
G02*
X128755500Y-101409500I0J225000D01*
G01*
X128755500Y-100959500D01*
G75*
G02*
X128980500Y-100734500I225000J0D01*
G01*
G37*
G36*
G01*
X128980500Y-102284500D02*
X129480500Y-102284500D01*
G75*
G02*
X129705500Y-102509500I0J-225000D01*
G01*
X129705500Y-102959500D01*
G75*
G02*
X129480500Y-103184500I-225000J0D01*
G01*
X128980500Y-103184500D01*
G75*
G02*
X128755500Y-102959500I0J225000D01*
G01*
X128755500Y-102509500D01*
G75*
G02*
X128980500Y-102284500I225000J0D01*
G01*
G37*
G36*
G01*
X131178000Y-99379000D02*
X131178000Y-99079000D01*
G75*
G02*
X131328000Y-98929000I150000J0D01*
G01*
X132978000Y-98929000D01*
G75*
G02*
X133128000Y-99079000I0J-150000D01*
G01*
X133128000Y-99379000D01*
G75*
G02*
X132978000Y-99529000I-150000J0D01*
G01*
X131328000Y-99529000D01*
G75*
G02*
X131178000Y-99379000I0J150000D01*
G01*
G37*
G36*
G01*
X131178000Y-100649000D02*
X131178000Y-100349000D01*
G75*
G02*
X131328000Y-100199000I150000J0D01*
G01*
X132978000Y-100199000D01*
G75*
G02*
X133128000Y-100349000I0J-150000D01*
G01*
X133128000Y-100649000D01*
G75*
G02*
X132978000Y-100799000I-150000J0D01*
G01*
X131328000Y-100799000D01*
G75*
G02*
X131178000Y-100649000I0J150000D01*
G01*
G37*
G36*
G01*
X131178000Y-101919000D02*
X131178000Y-101619000D01*
G75*
G02*
X131328000Y-101469000I150000J0D01*
G01*
X132978000Y-101469000D01*
G75*
G02*
X133128000Y-101619000I0J-150000D01*
G01*
X133128000Y-101919000D01*
G75*
G02*
X132978000Y-102069000I-150000J0D01*
G01*
X131328000Y-102069000D01*
G75*
G02*
X131178000Y-101919000I0J150000D01*
G01*
G37*
G36*
G01*
X131178000Y-103189000D02*
X131178000Y-102889000D01*
G75*
G02*
X131328000Y-102739000I150000J0D01*
G01*
X132978000Y-102739000D01*
G75*
G02*
X133128000Y-102889000I0J-150000D01*
G01*
X133128000Y-103189000D01*
G75*
G02*
X132978000Y-103339000I-150000J0D01*
G01*
X131328000Y-103339000D01*
G75*
G02*
X131178000Y-103189000I0J150000D01*
G01*
G37*
G36*
G01*
X131178000Y-104459000D02*
X131178000Y-104159000D01*
G75*
G02*
X131328000Y-104009000I150000J0D01*
G01*
X132978000Y-104009000D01*
G75*
G02*
X133128000Y-104159000I0J-150000D01*
G01*
X133128000Y-104459000D01*
G75*
G02*
X132978000Y-104609000I-150000J0D01*
G01*
X131328000Y-104609000D01*
G75*
G02*
X131178000Y-104459000I0J150000D01*
G01*
G37*
G36*
G01*
X131178000Y-105729000D02*
X131178000Y-105429000D01*
G75*
G02*
X131328000Y-105279000I150000J0D01*
G01*
X132978000Y-105279000D01*
G75*
G02*
X133128000Y-105429000I0J-150000D01*
G01*
X133128000Y-105729000D01*
G75*
G02*
X132978000Y-105879000I-150000J0D01*
G01*
X131328000Y-105879000D01*
G75*
G02*
X131178000Y-105729000I0J150000D01*
G01*
G37*
G36*
G01*
X131178000Y-106999000D02*
X131178000Y-106699000D01*
G75*
G02*
X131328000Y-106549000I150000J0D01*
G01*
X132978000Y-106549000D01*
G75*
G02*
X133128000Y-106699000I0J-150000D01*
G01*
X133128000Y-106999000D01*
G75*
G02*
X132978000Y-107149000I-150000J0D01*
G01*
X131328000Y-107149000D01*
G75*
G02*
X131178000Y-106999000I0J150000D01*
G01*
G37*
G36*
G01*
X136128000Y-106999000D02*
X136128000Y-106699000D01*
G75*
G02*
X136278000Y-106549000I150000J0D01*
G01*
X137928000Y-106549000D01*
G75*
G02*
X138078000Y-106699000I0J-150000D01*
G01*
X138078000Y-106999000D01*
G75*
G02*
X137928000Y-107149000I-150000J0D01*
G01*
X136278000Y-107149000D01*
G75*
G02*
X136128000Y-106999000I0J150000D01*
G01*
G37*
G36*
G01*
X136128000Y-105729000D02*
X136128000Y-105429000D01*
G75*
G02*
X136278000Y-105279000I150000J0D01*
G01*
X137928000Y-105279000D01*
G75*
G02*
X138078000Y-105429000I0J-150000D01*
G01*
X138078000Y-105729000D01*
G75*
G02*
X137928000Y-105879000I-150000J0D01*
G01*
X136278000Y-105879000D01*
G75*
G02*
X136128000Y-105729000I0J150000D01*
G01*
G37*
G36*
G01*
X136128000Y-104459000D02*
X136128000Y-104159000D01*
G75*
G02*
X136278000Y-104009000I150000J0D01*
G01*
X137928000Y-104009000D01*
G75*
G02*
X138078000Y-104159000I0J-150000D01*
G01*
X138078000Y-104459000D01*
G75*
G02*
X137928000Y-104609000I-150000J0D01*
G01*
X136278000Y-104609000D01*
G75*
G02*
X136128000Y-104459000I0J150000D01*
G01*
G37*
G36*
G01*
X136128000Y-103189000D02*
X136128000Y-102889000D01*
G75*
G02*
X136278000Y-102739000I150000J0D01*
G01*
X137928000Y-102739000D01*
G75*
G02*
X138078000Y-102889000I0J-150000D01*
G01*
X138078000Y-103189000D01*
G75*
G02*
X137928000Y-103339000I-150000J0D01*
G01*
X136278000Y-103339000D01*
G75*
G02*
X136128000Y-103189000I0J150000D01*
G01*
G37*
G36*
G01*
X136128000Y-101919000D02*
X136128000Y-101619000D01*
G75*
G02*
X136278000Y-101469000I150000J0D01*
G01*
X137928000Y-101469000D01*
G75*
G02*
X138078000Y-101619000I0J-150000D01*
G01*
X138078000Y-101919000D01*
G75*
G02*
X137928000Y-102069000I-150000J0D01*
G01*
X136278000Y-102069000D01*
G75*
G02*
X136128000Y-101919000I0J150000D01*
G01*
G37*
G36*
G01*
X136128000Y-100649000D02*
X136128000Y-100349000D01*
G75*
G02*
X136278000Y-100199000I150000J0D01*
G01*
X137928000Y-100199000D01*
G75*
G02*
X138078000Y-100349000I0J-150000D01*
G01*
X138078000Y-100649000D01*
G75*
G02*
X137928000Y-100799000I-150000J0D01*
G01*
X136278000Y-100799000D01*
G75*
G02*
X136128000Y-100649000I0J150000D01*
G01*
G37*
G36*
G01*
X136128000Y-99379000D02*
X136128000Y-99079000D01*
G75*
G02*
X136278000Y-98929000I150000J0D01*
G01*
X137928000Y-98929000D01*
G75*
G02*
X138078000Y-99079000I0J-150000D01*
G01*
X138078000Y-99379000D01*
G75*
G02*
X137928000Y-99529000I-150000J0D01*
G01*
X136278000Y-99529000D01*
G75*
G02*
X136128000Y-99379000I0J150000D01*
G01*
G37*
D23*
X132385000Y-80140000D03*
X134585000Y-80140000D03*
X134585000Y-78440000D03*
X132385000Y-78440000D03*
G36*
G01*
X176747000Y-98382500D02*
X176747000Y-98932500D01*
G75*
G02*
X176547000Y-99132500I-200000J0D01*
G01*
X176147000Y-99132500D01*
G75*
G02*
X175947000Y-98932500I0J200000D01*
G01*
X175947000Y-98382500D01*
G75*
G02*
X176147000Y-98182500I200000J0D01*
G01*
X176547000Y-98182500D01*
G75*
G02*
X176747000Y-98382500I0J-200000D01*
G01*
G37*
G36*
G01*
X175097000Y-98382500D02*
X175097000Y-98932500D01*
G75*
G02*
X174897000Y-99132500I-200000J0D01*
G01*
X174497000Y-99132500D01*
G75*
G02*
X174297000Y-98932500I0J200000D01*
G01*
X174297000Y-98382500D01*
G75*
G02*
X174497000Y-98182500I200000J0D01*
G01*
X174897000Y-98182500D01*
G75*
G02*
X175097000Y-98382500I0J-200000D01*
G01*
G37*
G36*
G01*
X179288000Y-98382500D02*
X179288000Y-98932500D01*
G75*
G02*
X179088000Y-99132500I-200000J0D01*
G01*
X178688000Y-99132500D01*
G75*
G02*
X178488000Y-98932500I0J200000D01*
G01*
X178488000Y-98382500D01*
G75*
G02*
X178688000Y-98182500I200000J0D01*
G01*
X179088000Y-98182500D01*
G75*
G02*
X179288000Y-98382500I0J-200000D01*
G01*
G37*
G36*
G01*
X180938000Y-98382500D02*
X180938000Y-98932500D01*
G75*
G02*
X180738000Y-99132500I-200000J0D01*
G01*
X180338000Y-99132500D01*
G75*
G02*
X180138000Y-98932500I0J200000D01*
G01*
X180138000Y-98382500D01*
G75*
G02*
X180338000Y-98182500I200000J0D01*
G01*
X180738000Y-98182500D01*
G75*
G02*
X180938000Y-98382500I0J-200000D01*
G01*
G37*
G36*
G01*
X180938000Y-95715500D02*
X180938000Y-96265500D01*
G75*
G02*
X180738000Y-96465500I-200000J0D01*
G01*
X180338000Y-96465500D01*
G75*
G02*
X180138000Y-96265500I0J200000D01*
G01*
X180138000Y-95715500D01*
G75*
G02*
X180338000Y-95515500I200000J0D01*
G01*
X180738000Y-95515500D01*
G75*
G02*
X180938000Y-95715500I0J-200000D01*
G01*
G37*
G36*
G01*
X179288000Y-95715500D02*
X179288000Y-96265500D01*
G75*
G02*
X179088000Y-96465500I-200000J0D01*
G01*
X178688000Y-96465500D01*
G75*
G02*
X178488000Y-96265500I0J200000D01*
G01*
X178488000Y-95715500D01*
G75*
G02*
X178688000Y-95515500I200000J0D01*
G01*
X179088000Y-95515500D01*
G75*
G02*
X179288000Y-95715500I0J-200000D01*
G01*
G37*
G36*
G01*
X175097000Y-95715500D02*
X175097000Y-96265500D01*
G75*
G02*
X174897000Y-96465500I-200000J0D01*
G01*
X174497000Y-96465500D01*
G75*
G02*
X174297000Y-96265500I0J200000D01*
G01*
X174297000Y-95715500D01*
G75*
G02*
X174497000Y-95515500I200000J0D01*
G01*
X174897000Y-95515500D01*
G75*
G02*
X175097000Y-95715500I0J-200000D01*
G01*
G37*
G36*
G01*
X176747000Y-95715500D02*
X176747000Y-96265500D01*
G75*
G02*
X176547000Y-96465500I-200000J0D01*
G01*
X176147000Y-96465500D01*
G75*
G02*
X175947000Y-96265500I0J200000D01*
G01*
X175947000Y-95715500D01*
G75*
G02*
X176147000Y-95515500I200000J0D01*
G01*
X176547000Y-95515500D01*
G75*
G02*
X176747000Y-95715500I0J-200000D01*
G01*
G37*
D24*
X168747500Y-106849000D03*
X183947500Y-106849000D03*
G36*
G01*
X148008000Y-104114500D02*
X148008000Y-103614500D01*
G75*
G02*
X148233000Y-103389500I225000J0D01*
G01*
X148683000Y-103389500D01*
G75*
G02*
X148908000Y-103614500I0J-225000D01*
G01*
X148908000Y-104114500D01*
G75*
G02*
X148683000Y-104339500I-225000J0D01*
G01*
X148233000Y-104339500D01*
G75*
G02*
X148008000Y-104114500I0J225000D01*
G01*
G37*
G36*
G01*
X149558000Y-104114500D02*
X149558000Y-103614500D01*
G75*
G02*
X149783000Y-103389500I225000J0D01*
G01*
X150233000Y-103389500D01*
G75*
G02*
X150458000Y-103614500I0J-225000D01*
G01*
X150458000Y-104114500D01*
G75*
G02*
X150233000Y-104339500I-225000J0D01*
G01*
X149783000Y-104339500D01*
G75*
G02*
X149558000Y-104114500I0J225000D01*
G01*
G37*
G36*
G01*
X129480500Y-91564000D02*
X128980500Y-91564000D01*
G75*
G02*
X128755500Y-91339000I0J225000D01*
G01*
X128755500Y-90889000D01*
G75*
G02*
X128980500Y-90664000I225000J0D01*
G01*
X129480500Y-90664000D01*
G75*
G02*
X129705500Y-90889000I0J-225000D01*
G01*
X129705500Y-91339000D01*
G75*
G02*
X129480500Y-91564000I-225000J0D01*
G01*
G37*
G36*
G01*
X129480500Y-90014000D02*
X128980500Y-90014000D01*
G75*
G02*
X128755500Y-89789000I0J225000D01*
G01*
X128755500Y-89339000D01*
G75*
G02*
X128980500Y-89114000I225000J0D01*
G01*
X129480500Y-89114000D01*
G75*
G02*
X129705500Y-89339000I0J-225000D01*
G01*
X129705500Y-89789000D01*
G75*
G02*
X129480500Y-90014000I-225000J0D01*
G01*
G37*
G36*
G01*
X135513000Y-75472500D02*
X135013000Y-75472500D01*
G75*
G02*
X134788000Y-75247500I0J225000D01*
G01*
X134788000Y-74797500D01*
G75*
G02*
X135013000Y-74572500I225000J0D01*
G01*
X135513000Y-74572500D01*
G75*
G02*
X135738000Y-74797500I0J-225000D01*
G01*
X135738000Y-75247500D01*
G75*
G02*
X135513000Y-75472500I-225000J0D01*
G01*
G37*
G36*
G01*
X135513000Y-77022500D02*
X135013000Y-77022500D01*
G75*
G02*
X134788000Y-76797500I0J225000D01*
G01*
X134788000Y-76347500D01*
G75*
G02*
X135013000Y-76122500I225000J0D01*
G01*
X135513000Y-76122500D01*
G75*
G02*
X135738000Y-76347500I0J-225000D01*
G01*
X135738000Y-76797500D01*
G75*
G02*
X135513000Y-77022500I-225000J0D01*
G01*
G37*
G36*
G01*
X131830000Y-76959000D02*
X131330000Y-76959000D01*
G75*
G02*
X131105000Y-76734000I0J225000D01*
G01*
X131105000Y-76284000D01*
G75*
G02*
X131330000Y-76059000I225000J0D01*
G01*
X131830000Y-76059000D01*
G75*
G02*
X132055000Y-76284000I0J-225000D01*
G01*
X132055000Y-76734000D01*
G75*
G02*
X131830000Y-76959000I-225000J0D01*
G01*
G37*
G36*
G01*
X131830000Y-75409000D02*
X131330000Y-75409000D01*
G75*
G02*
X131105000Y-75184000I0J225000D01*
G01*
X131105000Y-74734000D01*
G75*
G02*
X131330000Y-74509000I225000J0D01*
G01*
X131830000Y-74509000D01*
G75*
G02*
X132055000Y-74734000I0J-225000D01*
G01*
X132055000Y-75184000D01*
G75*
G02*
X131830000Y-75409000I-225000J0D01*
G01*
G37*
G36*
G01*
X139282000Y-81326000D02*
X139282000Y-81826000D01*
G75*
G02*
X139057000Y-82051000I-225000J0D01*
G01*
X138607000Y-82051000D01*
G75*
G02*
X138382000Y-81826000I0J225000D01*
G01*
X138382000Y-81326000D01*
G75*
G02*
X138607000Y-81101000I225000J0D01*
G01*
X139057000Y-81101000D01*
G75*
G02*
X139282000Y-81326000I0J-225000D01*
G01*
G37*
G36*
G01*
X137732000Y-81326000D02*
X137732000Y-81826000D01*
G75*
G02*
X137507000Y-82051000I-225000J0D01*
G01*
X137057000Y-82051000D01*
G75*
G02*
X136832000Y-81826000I0J225000D01*
G01*
X136832000Y-81326000D01*
G75*
G02*
X137057000Y-81101000I225000J0D01*
G01*
X137507000Y-81101000D01*
G75*
G02*
X137732000Y-81326000I0J-225000D01*
G01*
G37*
G36*
G01*
X149367500Y-88874500D02*
X149367500Y-88374500D01*
G75*
G02*
X149592500Y-88149500I225000J0D01*
G01*
X150042500Y-88149500D01*
G75*
G02*
X150267500Y-88374500I0J-225000D01*
G01*
X150267500Y-88874500D01*
G75*
G02*
X150042500Y-89099500I-225000J0D01*
G01*
X149592500Y-89099500D01*
G75*
G02*
X149367500Y-88874500I0J225000D01*
G01*
G37*
G36*
G01*
X147817500Y-88874500D02*
X147817500Y-88374500D01*
G75*
G02*
X148042500Y-88149500I225000J0D01*
G01*
X148492500Y-88149500D01*
G75*
G02*
X148717500Y-88374500I0J-225000D01*
G01*
X148717500Y-88874500D01*
G75*
G02*
X148492500Y-89099500I-225000J0D01*
G01*
X148042500Y-89099500D01*
G75*
G02*
X147817500Y-88874500I0J225000D01*
G01*
G37*
G36*
G01*
X141874500Y-98653500D02*
X141874500Y-98153500D01*
G75*
G02*
X142099500Y-97928500I225000J0D01*
G01*
X142549500Y-97928500D01*
G75*
G02*
X142774500Y-98153500I0J-225000D01*
G01*
X142774500Y-98653500D01*
G75*
G02*
X142549500Y-98878500I-225000J0D01*
G01*
X142099500Y-98878500D01*
G75*
G02*
X141874500Y-98653500I0J225000D01*
G01*
G37*
G36*
G01*
X140324500Y-98653500D02*
X140324500Y-98153500D01*
G75*
G02*
X140549500Y-97928500I225000J0D01*
G01*
X140999500Y-97928500D01*
G75*
G02*
X141224500Y-98153500I0J-225000D01*
G01*
X141224500Y-98653500D01*
G75*
G02*
X140999500Y-98878500I-225000J0D01*
G01*
X140549500Y-98878500D01*
G75*
G02*
X140324500Y-98653500I0J225000D01*
G01*
G37*
G36*
G01*
X147754000Y-94106500D02*
X147754000Y-93556500D01*
G75*
G02*
X147954000Y-93356500I200000J0D01*
G01*
X148354000Y-93356500D01*
G75*
G02*
X148554000Y-93556500I0J-200000D01*
G01*
X148554000Y-94106500D01*
G75*
G02*
X148354000Y-94306500I-200000J0D01*
G01*
X147954000Y-94306500D01*
G75*
G02*
X147754000Y-94106500I0J200000D01*
G01*
G37*
G36*
G01*
X149404000Y-94106500D02*
X149404000Y-93556500D01*
G75*
G02*
X149604000Y-93356500I200000J0D01*
G01*
X150004000Y-93356500D01*
G75*
G02*
X150204000Y-93556500I0J-200000D01*
G01*
X150204000Y-94106500D01*
G75*
G02*
X150004000Y-94306500I-200000J0D01*
G01*
X149604000Y-94306500D01*
G75*
G02*
X149404000Y-94106500I0J200000D01*
G01*
G37*
G36*
G01*
X160938000Y-106699000D02*
X160938000Y-106999000D01*
G75*
G02*
X160788000Y-107149000I-150000J0D01*
G01*
X159138000Y-107149000D01*
G75*
G02*
X158988000Y-106999000I0J150000D01*
G01*
X158988000Y-106699000D01*
G75*
G02*
X159138000Y-106549000I150000J0D01*
G01*
X160788000Y-106549000D01*
G75*
G02*
X160938000Y-106699000I0J-150000D01*
G01*
G37*
G36*
G01*
X160938000Y-105429000D02*
X160938000Y-105729000D01*
G75*
G02*
X160788000Y-105879000I-150000J0D01*
G01*
X159138000Y-105879000D01*
G75*
G02*
X158988000Y-105729000I0J150000D01*
G01*
X158988000Y-105429000D01*
G75*
G02*
X159138000Y-105279000I150000J0D01*
G01*
X160788000Y-105279000D01*
G75*
G02*
X160938000Y-105429000I0J-150000D01*
G01*
G37*
G36*
G01*
X160938000Y-104159000D02*
X160938000Y-104459000D01*
G75*
G02*
X160788000Y-104609000I-150000J0D01*
G01*
X159138000Y-104609000D01*
G75*
G02*
X158988000Y-104459000I0J150000D01*
G01*
X158988000Y-104159000D01*
G75*
G02*
X159138000Y-104009000I150000J0D01*
G01*
X160788000Y-104009000D01*
G75*
G02*
X160938000Y-104159000I0J-150000D01*
G01*
G37*
G36*
G01*
X160938000Y-102889000D02*
X160938000Y-103189000D01*
G75*
G02*
X160788000Y-103339000I-150000J0D01*
G01*
X159138000Y-103339000D01*
G75*
G02*
X158988000Y-103189000I0J150000D01*
G01*
X158988000Y-102889000D01*
G75*
G02*
X159138000Y-102739000I150000J0D01*
G01*
X160788000Y-102739000D01*
G75*
G02*
X160938000Y-102889000I0J-150000D01*
G01*
G37*
G36*
G01*
X155988000Y-102889000D02*
X155988000Y-103189000D01*
G75*
G02*
X155838000Y-103339000I-150000J0D01*
G01*
X154188000Y-103339000D01*
G75*
G02*
X154038000Y-103189000I0J150000D01*
G01*
X154038000Y-102889000D01*
G75*
G02*
X154188000Y-102739000I150000J0D01*
G01*
X155838000Y-102739000D01*
G75*
G02*
X155988000Y-102889000I0J-150000D01*
G01*
G37*
G36*
G01*
X155988000Y-104159000D02*
X155988000Y-104459000D01*
G75*
G02*
X155838000Y-104609000I-150000J0D01*
G01*
X154188000Y-104609000D01*
G75*
G02*
X154038000Y-104459000I0J150000D01*
G01*
X154038000Y-104159000D01*
G75*
G02*
X154188000Y-104009000I150000J0D01*
G01*
X155838000Y-104009000D01*
G75*
G02*
X155988000Y-104159000I0J-150000D01*
G01*
G37*
G36*
G01*
X155988000Y-105429000D02*
X155988000Y-105729000D01*
G75*
G02*
X155838000Y-105879000I-150000J0D01*
G01*
X154188000Y-105879000D01*
G75*
G02*
X154038000Y-105729000I0J150000D01*
G01*
X154038000Y-105429000D01*
G75*
G02*
X154188000Y-105279000I150000J0D01*
G01*
X155838000Y-105279000D01*
G75*
G02*
X155988000Y-105429000I0J-150000D01*
G01*
G37*
G36*
G01*
X155988000Y-106699000D02*
X155988000Y-106999000D01*
G75*
G02*
X155838000Y-107149000I-150000J0D01*
G01*
X154188000Y-107149000D01*
G75*
G02*
X154038000Y-106999000I0J150000D01*
G01*
X154038000Y-106699000D01*
G75*
G02*
X154188000Y-106549000I150000J0D01*
G01*
X155838000Y-106549000D01*
G75*
G02*
X155988000Y-106699000I0J-150000D01*
G01*
G37*
D25*
X164155500Y-108099000D03*
X164155500Y-105599000D03*
G36*
G01*
X139919500Y-76578000D02*
X139369500Y-76578000D01*
G75*
G02*
X139169500Y-76378000I0J200000D01*
G01*
X139169500Y-75978000D01*
G75*
G02*
X139369500Y-75778000I200000J0D01*
G01*
X139919500Y-75778000D01*
G75*
G02*
X140119500Y-75978000I0J-200000D01*
G01*
X140119500Y-76378000D01*
G75*
G02*
X139919500Y-76578000I-200000J0D01*
G01*
G37*
G36*
G01*
X139919500Y-74928000D02*
X139369500Y-74928000D01*
G75*
G02*
X139169500Y-74728000I0J200000D01*
G01*
X139169500Y-74328000D01*
G75*
G02*
X139369500Y-74128000I200000J0D01*
G01*
X139919500Y-74128000D01*
G75*
G02*
X140119500Y-74328000I0J-200000D01*
G01*
X140119500Y-74728000D01*
G75*
G02*
X139919500Y-74928000I-200000J0D01*
G01*
G37*
G36*
G01*
X129250000Y-84031500D02*
X129250000Y-84581500D01*
G75*
G02*
X129050000Y-84781500I-200000J0D01*
G01*
X128650000Y-84781500D01*
G75*
G02*
X128450000Y-84581500I0J200000D01*
G01*
X128450000Y-84031500D01*
G75*
G02*
X128650000Y-83831500I200000J0D01*
G01*
X129050000Y-83831500D01*
G75*
G02*
X129250000Y-84031500I0J-200000D01*
G01*
G37*
G36*
G01*
X130900000Y-84031500D02*
X130900000Y-84581500D01*
G75*
G02*
X130700000Y-84781500I-200000J0D01*
G01*
X130300000Y-84781500D01*
G75*
G02*
X130100000Y-84581500I0J200000D01*
G01*
X130100000Y-84031500D01*
G75*
G02*
X130300000Y-83831500I200000J0D01*
G01*
X130700000Y-83831500D01*
G75*
G02*
X130900000Y-84031500I0J-200000D01*
G01*
G37*
G36*
G01*
X130900000Y-81936000D02*
X130900000Y-82486000D01*
G75*
G02*
X130700000Y-82686000I-200000J0D01*
G01*
X130300000Y-82686000D01*
G75*
G02*
X130100000Y-82486000I0J200000D01*
G01*
X130100000Y-81936000D01*
G75*
G02*
X130300000Y-81736000I200000J0D01*
G01*
X130700000Y-81736000D01*
G75*
G02*
X130900000Y-81936000I0J-200000D01*
G01*
G37*
G36*
G01*
X129250000Y-81936000D02*
X129250000Y-82486000D01*
G75*
G02*
X129050000Y-82686000I-200000J0D01*
G01*
X128650000Y-82686000D01*
G75*
G02*
X128450000Y-82486000I0J200000D01*
G01*
X128450000Y-81936000D01*
G75*
G02*
X128650000Y-81736000I200000J0D01*
G01*
X129050000Y-81736000D01*
G75*
G02*
X129250000Y-81936000I0J-200000D01*
G01*
G37*
G36*
G01*
X142862000Y-79778500D02*
X143412000Y-79778500D01*
G75*
G02*
X143612000Y-79978500I0J-200000D01*
G01*
X143612000Y-80378500D01*
G75*
G02*
X143412000Y-80578500I-200000J0D01*
G01*
X142862000Y-80578500D01*
G75*
G02*
X142662000Y-80378500I0J200000D01*
G01*
X142662000Y-79978500D01*
G75*
G02*
X142862000Y-79778500I200000J0D01*
G01*
G37*
G36*
G01*
X142862000Y-78128500D02*
X143412000Y-78128500D01*
G75*
G02*
X143612000Y-78328500I0J-200000D01*
G01*
X143612000Y-78728500D01*
G75*
G02*
X143412000Y-78928500I-200000J0D01*
G01*
X142862000Y-78928500D01*
G75*
G02*
X142662000Y-78728500I0J200000D01*
G01*
X142662000Y-78328500D01*
G75*
G02*
X142862000Y-78128500I200000J0D01*
G01*
G37*
G36*
G01*
X143348500Y-76768500D02*
X142798500Y-76768500D01*
G75*
G02*
X142598500Y-76568500I0J200000D01*
G01*
X142598500Y-76168500D01*
G75*
G02*
X142798500Y-75968500I200000J0D01*
G01*
X143348500Y-75968500D01*
G75*
G02*
X143548500Y-76168500I0J-200000D01*
G01*
X143548500Y-76568500D01*
G75*
G02*
X143348500Y-76768500I-200000J0D01*
G01*
G37*
G36*
G01*
X143348500Y-75118500D02*
X142798500Y-75118500D01*
G75*
G02*
X142598500Y-74918500I0J200000D01*
G01*
X142598500Y-74518500D01*
G75*
G02*
X142798500Y-74318500I200000J0D01*
G01*
X143348500Y-74318500D01*
G75*
G02*
X143548500Y-74518500I0J-200000D01*
G01*
X143548500Y-74918500D01*
G75*
G02*
X143348500Y-75118500I-200000J0D01*
G01*
G37*
D26*
X125943000Y-96435000D03*
X129343000Y-96435000D03*
D27*
X133993500Y-95975500D03*
X134793500Y-95975500D03*
X135593500Y-95975500D03*
X136393500Y-95975500D03*
X137193500Y-95975500D03*
X137993500Y-95975500D03*
X138793500Y-95975500D03*
X139593500Y-95975500D03*
X140393500Y-95975500D03*
X141193500Y-95975500D03*
X141993500Y-95975500D03*
D28*
X143693500Y-94275500D03*
X143693500Y-93475500D03*
X143693500Y-92675500D03*
X143693500Y-91875500D03*
X143693500Y-91075500D03*
X143693500Y-90275500D03*
X143693500Y-89475500D03*
X143693500Y-88675500D03*
X143693500Y-87875500D03*
X143693500Y-87075500D03*
X143693500Y-86275500D03*
D27*
X141993500Y-84575500D03*
X141193500Y-84575500D03*
X140393500Y-84575500D03*
X139593500Y-84575500D03*
X138793500Y-84575500D03*
X137993500Y-84575500D03*
X137193500Y-84575500D03*
X136393500Y-84575500D03*
X135593500Y-84575500D03*
X134793500Y-84575500D03*
X133993500Y-84575500D03*
D28*
X132293500Y-86275500D03*
X132293500Y-87075500D03*
X132293500Y-87875500D03*
X132293500Y-88675500D03*
X132293500Y-89475500D03*
X132293500Y-90275500D03*
X132293500Y-91075500D03*
X132293500Y-91875500D03*
X132293500Y-92675500D03*
X132293500Y-93475500D03*
X132293500Y-94275500D03*
G36*
G01*
X91960000Y-80922500D02*
X92460000Y-80922500D01*
G75*
G02*
X92685000Y-81147500I0J-225000D01*
G01*
X92685000Y-81597500D01*
G75*
G02*
X92460000Y-81822500I-225000J0D01*
G01*
X91960000Y-81822500D01*
G75*
G02*
X91735000Y-81597500I0J225000D01*
G01*
X91735000Y-81147500D01*
G75*
G02*
X91960000Y-80922500I225000J0D01*
G01*
G37*
G36*
G01*
X91960000Y-82472500D02*
X92460000Y-82472500D01*
G75*
G02*
X92685000Y-82697500I0J-225000D01*
G01*
X92685000Y-83147500D01*
G75*
G02*
X92460000Y-83372500I-225000J0D01*
G01*
X91960000Y-83372500D01*
G75*
G02*
X91735000Y-83147500I0J225000D01*
G01*
X91735000Y-82697500D01*
G75*
G02*
X91960000Y-82472500I225000J0D01*
G01*
G37*
D19*
X174560000Y-73860000D03*
X174560000Y-75760000D03*
X176560000Y-74810000D03*
G36*
G01*
X132222500Y-72555000D02*
X132222500Y-72055000D01*
G75*
G02*
X132447500Y-71830000I225000J0D01*
G01*
X132897500Y-71830000D01*
G75*
G02*
X133122500Y-72055000I0J-225000D01*
G01*
X133122500Y-72555000D01*
G75*
G02*
X132897500Y-72780000I-225000J0D01*
G01*
X132447500Y-72780000D01*
G75*
G02*
X132222500Y-72555000I0J225000D01*
G01*
G37*
G36*
G01*
X130672500Y-72555000D02*
X130672500Y-72055000D01*
G75*
G02*
X130897500Y-71830000I225000J0D01*
G01*
X131347500Y-71830000D01*
G75*
G02*
X131572500Y-72055000I0J-225000D01*
G01*
X131572500Y-72555000D01*
G75*
G02*
X131347500Y-72780000I-225000J0D01*
G01*
X130897500Y-72780000D01*
G75*
G02*
X130672500Y-72555000I0J225000D01*
G01*
G37*
G36*
G01*
X125338500Y-93192500D02*
X125338500Y-92692500D01*
G75*
G02*
X125563500Y-92467500I225000J0D01*
G01*
X126013500Y-92467500D01*
G75*
G02*
X126238500Y-92692500I0J-225000D01*
G01*
X126238500Y-93192500D01*
G75*
G02*
X126013500Y-93417500I-225000J0D01*
G01*
X125563500Y-93417500D01*
G75*
G02*
X125338500Y-93192500I0J225000D01*
G01*
G37*
G36*
G01*
X126888500Y-93192500D02*
X126888500Y-92692500D01*
G75*
G02*
X127113500Y-92467500I225000J0D01*
G01*
X127563500Y-92467500D01*
G75*
G02*
X127788500Y-92692500I0J-225000D01*
G01*
X127788500Y-93192500D01*
G75*
G02*
X127563500Y-93417500I-225000J0D01*
G01*
X127113500Y-93417500D01*
G75*
G02*
X126888500Y-93192500I0J225000D01*
G01*
G37*
G36*
G01*
X143326250Y-83495000D02*
X142813750Y-83495000D01*
G75*
G02*
X142595000Y-83276250I0J218750D01*
G01*
X142595000Y-82838750D01*
G75*
G02*
X142813750Y-82620000I218750J0D01*
G01*
X143326250Y-82620000D01*
G75*
G02*
X143545000Y-82838750I0J-218750D01*
G01*
X143545000Y-83276250D01*
G75*
G02*
X143326250Y-83495000I-218750J0D01*
G01*
G37*
G36*
G01*
X143326250Y-81920000D02*
X142813750Y-81920000D01*
G75*
G02*
X142595000Y-81701250I0J218750D01*
G01*
X142595000Y-81263750D01*
G75*
G02*
X142813750Y-81045000I218750J0D01*
G01*
X143326250Y-81045000D01*
G75*
G02*
X143545000Y-81263750I0J-218750D01*
G01*
X143545000Y-81701250D01*
G75*
G02*
X143326250Y-81920000I-218750J0D01*
G01*
G37*
D29*
X98690000Y-64210000D03*
X98690000Y-63260000D03*
X98690000Y-62310000D03*
X96010000Y-62310000D03*
X96010000Y-63260000D03*
X96010000Y-64210000D03*
D30*
X97775000Y-62394000D03*
X96925000Y-62394000D03*
X96925000Y-63260000D03*
X97775000Y-63260000D03*
X96925000Y-64126000D03*
X97775000Y-64126000D03*
M02*
