M48
; DRILL file {KiCad 5.1.10-88a1d61d58~88~ubuntu20.04.1} date Sun May 30 17:39:30 2021
; FORMAT={-:-/ absolute / metric / decimal}
; #@! TF.CreationDate,2021-05-30T17:39:30+02:00
; #@! TF.GenerationSoftware,Kicad,Pcbnew,5.1.10-88a1d61d58~88~ubuntu20.04.1
FMAT,2
METRIC
T1C0.200
T2C0.406
T3C0.600
T4C1.000
T5C1.016
T6C3.200
T7C0.650
%
G90
G05
T1
X117.279Y-109.808
X117.279Y-111.128
X118.499Y-109.808
X118.499Y-111.128
X119.719Y-109.808
X119.719Y-111.128
T2
X92.28Y-81.407
X92.353Y-85.075
X94.86Y-81.38
X96.14Y-68.108
X96.67Y-81.39
X97.31Y-91.364
X97.35Y-62.777
X97.35Y-63.717
X98.072Y-80.721
X98.427Y-78.2
X98.442Y-73.75
X98.442Y-75.95
X98.446Y-71.53
X101.138Y-66.907
X101.163Y-72.432
X101.326Y-78.185
X101.98Y-70.427
X102.713Y-66.907
X102.755Y-85.075
X102.76Y-64.92
X104.32Y-70.427
X104.465Y-107.103
X104.625Y-78.283
X105.09Y-89.175
X105.09Y-91.37
X105.09Y-92.47
X105.09Y-93.58
X105.583Y-67.809
X105.895Y-74.85
X106.123Y-78.283
X107.196Y-107.674
X108.96Y-65.71
X108.99Y-87.05
X108.994Y-71.552
X109.806Y-73.736
X109.806Y-75.984
X110.7Y-87.04
X110.7Y-88.35
X110.7Y-89.64
X112.463Y-66.573
X112.7Y-70.645
X112.702Y-75.702
X113.76Y-102.748
X114.64Y-79.0
X114.69Y-89.64
X114.69Y-91.135
X114.69Y-92.444
X114.713Y-87.04
X117.43Y-72.875
X118.138Y-87.04
X118.52Y-81.14
X118.617Y-100.708
X119.22Y-89.36
X120.17Y-93.323
X120.924Y-73.863
X122.06Y-103.155
X122.938Y-70.798
X124.1Y-71.75
X125.25Y-94.335
X125.484Y-102.404
X125.535Y-100.778
X127.008Y-109.643
X127.364Y-100.778
X127.77Y-94.34
X129.13Y-89.572
X129.395Y-64.625
X129.43Y-86.2
X129.43Y-87.5
X130.246Y-109.77
X130.53Y-85.8
X131.795Y-99.288
X131.803Y-97.256
X132.77Y-83.31
X133.517Y-74.903
X133.632Y-101.828
X134.06Y-87.08
X134.65Y-93.25
X135.23Y-88.65
X135.55Y-94.35
X135.87Y-91.12
X135.96Y-87.06
X136.349Y-93.3
X137.195Y-100.558
X138.3Y-87.42
X138.819Y-71.225
X139.07Y-92.24
X139.07Y-94.01
X140.01Y-93.13
X140.07Y-87.63
X140.08Y-101.828
X140.08Y-103.098
X140.08Y-104.368
X140.08Y-105.638
X140.08Y-106.908
X140.55Y-86.3
X140.59Y-73.81
X140.61Y-76.02
X141.22Y-92.24
X141.26Y-91.1
X141.83Y-94.18
X141.98Y-80.18
X142.058Y-86.3
X143.03Y-73.8
X143.04Y-77.39
X143.07Y-81.27
X143.334Y-105.638
X143.88Y-96.44
X144.64Y-83.59
X144.808Y-105.638
X145.13Y-85.22
X145.39Y-68.73
X145.6Y-89.8
X145.925Y-105.638
X146.2Y-77.42
X147.424Y-105.638
X147.76Y-77.42
X149.786Y-93.827
X149.838Y-88.62
X150.45Y-68.62
X150.66Y-85.14
X151.02Y-77.99
X151.539Y-81.432
X151.62Y-105.638
X152.25Y-69.8
X152.834Y-105.638
X152.89Y-87.27
X152.89Y-100.89
X154.37Y-105.638
X154.71Y-78.9
X154.72Y-87.23
X155.31Y-72.59
X155.42Y-91.29
X155.6Y-70.45
X156.05Y-99.05
X156.161Y-105.638
X156.91Y-82.7
X157.89Y-95.5
X158.33Y-72.66
X160.19Y-66.25
X160.19Y-80.17
X160.64Y-68.65
X161.33Y-71.5
X161.335Y-95.215
X162.689Y-80.315
X162.76Y-100.48
X163.7Y-70.05
X166.49Y-99.04
X167.5Y-81.31
X167.62Y-66.24
X168.12Y-87.62
X168.15Y-91.41
X168.17Y-90.16
X168.346Y-105.812
X168.356Y-106.792
X168.356Y-107.772
X168.48Y-99.05
X168.51Y-97.79
X168.519Y-96.529
X168.52Y-95.26
X170.48Y-93.34
X170.54Y-71.32
X171.73Y-87.56
X171.808Y-79.68
X172.65Y-68.78
X172.65Y-70.05
X172.76Y-82.46
X173.4Y-87.58
X173.4Y-90.12
X173.4Y-91.4
X174.06Y-110.62
X174.762Y-99.881
X174.805Y-95.961
X175.71Y-103.25
X175.71Y-110.62
X177.34Y-110.62
X178.912Y-93.34
X178.92Y-95.961
X178.92Y-88.85
X178.92Y-90.13
X178.92Y-91.389
X178.922Y-98.58
X179.606Y-66.98
X183.435Y-105.812
X183.445Y-107.772
X183.455Y-106.792
T4
X94.75Y-110.215
X97.25Y-110.215
X113.8Y-62.78
X116.34Y-62.78
X118.88Y-62.78
X121.42Y-62.78
X123.96Y-62.78
X124.785Y-77.194
X124.785Y-79.734
X124.785Y-82.275
X124.785Y-84.814
X124.785Y-87.355
X126.5Y-62.78
X131.58Y-62.78
X134.12Y-62.78
X136.66Y-62.78
X136.66Y-111.074
X139.2Y-62.78
X139.2Y-111.074
X141.74Y-111.074
X144.28Y-62.78
X144.28Y-111.074
X146.82Y-62.78
X149.36Y-62.78
X149.36Y-111.04
X151.9Y-62.78
X151.9Y-111.04
X154.44Y-111.04
X156.98Y-62.78
X156.98Y-111.04
X159.52Y-62.78
X159.52Y-111.04
X162.06Y-62.78
X162.06Y-111.04
X164.6Y-62.78
X164.6Y-111.04
X167.14Y-62.78
X167.14Y-111.04
X169.68Y-62.78
X172.22Y-62.78
X174.76Y-62.78
X184.92Y-67.86
X184.92Y-70.4
X184.92Y-72.94
X184.92Y-75.48
X184.92Y-78.02
X184.92Y-80.56
X184.92Y-83.1
X184.92Y-85.64
X184.92Y-88.18
X184.92Y-90.72
X184.92Y-93.26
X184.92Y-95.8
X184.92Y-98.34
X184.92Y-100.88
X187.46Y-67.86
X187.46Y-70.4
X187.46Y-72.94
X187.46Y-75.48
X187.46Y-78.02
X187.46Y-80.56
X187.46Y-83.1
X187.46Y-85.64
X187.46Y-88.18
X187.46Y-90.72
X187.46Y-93.26
X187.46Y-95.8
X187.46Y-98.34
X187.46Y-100.88
T5
X94.369Y-102.213
X94.369Y-104.753
X96.909Y-102.213
X96.909Y-104.753
X99.449Y-102.213
X99.449Y-104.753
X101.989Y-102.213
X101.989Y-104.753
T6
X104.88Y-111.02
X106.15Y-62.77
X181.09Y-62.78
X187.42Y-111.01
T7
X95.445Y-72.59
X95.445Y-78.37
T3
G00X92.365Y-71.16
M15
G01X91.365Y-71.16
M16
G05
G00X92.365Y-79.8
M15
G01X91.365Y-79.8
M16
G05
G00X96.495Y-71.16
M15
G01X95.395Y-71.16
M16
G05
G00X96.495Y-79.8
M15
G01X95.395Y-79.8
M16
G05
T0
M30
