G04 #@! TF.GenerationSoftware,KiCad,Pcbnew,7.0.6-0*
G04 #@! TF.CreationDate,2023-12-03T22:32:09+05:30*
G04 #@! TF.ProjectId,PSLab,50534c61-622e-46b6-9963-61645f706362,v6.0-beta*
G04 #@! TF.SameCoordinates,Original*
G04 #@! TF.FileFunction,Copper,L3,Inr*
G04 #@! TF.FilePolarity,Positive*
%FSLAX46Y46*%
G04 Gerber Fmt 4.6, Leading zero omitted, Abs format (unit mm)*
G04 Created by KiCad (PCBNEW 7.0.6-0) date 2023-12-03 22:32:09*
%MOMM*%
%LPD*%
G01*
G04 APERTURE LIST*
G04 Aperture macros list*
%AMFreePoly0*
4,1,196,1.486708,2.396263,1.488166,2.395953,1.649636,2.284828,1.649726,2.284688,1.649888,2.284643,1.846612,2.130321,1.846747,2.130080,1.847006,2.129978,2.040306,1.942648,2.040400,1.942428,2.040613,1.942322,2.222723,1.731085,2.222795,1.730866,2.222990,1.730746,2.386142,1.504704,2.386199,1.504463,2.386397,1.504314,2.522824,1.272566,2.522845,1.272411,2.522966,1.272309,
2.536841,1.245207,2.536852,1.245065,2.536955,1.244968,2.604770,1.093253,2.604774,1.093074,2.604895,1.092945,2.670355,0.915733,2.670349,0.915592,2.670441,0.915482,2.728100,0.729504,2.728086,0.729353,2.728175,0.729233,2.772586,0.551214,2.772565,0.551075,2.772643,0.550958,2.786975,0.477203,2.786939,0.477028,2.787028,0.476873,2.805291,0.331419,2.805246,0.331257,
2.805320,0.331107,2.816083,0.158613,2.816044,0.158499,2.816092,0.158389,2.819348,-0.026977,2.819308,-0.027077,2.819348,-0.027180,2.815091,-0.211240,2.815040,-0.211354,2.815080,-0.211472,2.803306,-0.380057,2.803232,-0.380204,2.803275,-0.380363,2.787407,-0.500589,2.787274,-0.500818,2.787317,-0.501081,2.720043,-0.786853,2.719880,-0.787079,2.719896,-0.787356,2.619266,-1.075411,
2.619091,-1.075606,2.619080,-1.075870,2.490731,-1.352015,2.490539,-1.352191,2.490503,-1.352449,2.363179,-1.568195,2.362942,-1.568373,2.362868,-1.568661,2.159913,-1.838222,2.159636,-1.838384,2.159519,-1.838685,1.926024,-2.080922,1.925735,-2.081047,1.925586,-2.081326,1.665239,-2.293825,1.664939,-2.293914,1.664761,-2.294170,1.381250,-2.474516,1.380942,-2.474570,1.380734,-2.474803,
1.077747,-2.620582,1.077430,-2.620599,1.077194,-2.620808,0.758420,-2.729607,0.758132,-2.729588,0.757898,-2.729754,0.501029,-2.787329,0.500777,-2.787285,0.500556,-2.787411,0.372955,-2.803357,0.372798,-2.803314,0.372652,-2.803386,0.216242,-2.813341,0.216139,-2.813306,0.216040,-2.813350,0.043711,-2.817343,0.043625,-2.817309,0.043540,-2.817344,-0.131817,-2.815407,-0.131907,-2.815368,
-0.131999,-2.815401,-0.297491,-2.807564,-0.297607,-2.807509,-0.297732,-2.807547,-0.440466,-2.793842,-0.440598,-2.793771,-0.440744,-2.793807,-0.498174,-2.785012,-0.498375,-2.784890,-0.498610,-2.784926,-0.820934,-2.705747,-0.821194,-2.705555,-0.821517,-2.705565,-1.131867,-2.587632,-1.132094,-2.587417,-1.132406,-2.587390,-1.427102,-2.433462,-1.427298,-2.433227,-1.427598,-2.433165,-1.702963,-2.245999,
-1.703129,-2.245744,-1.703417,-2.245650,-1.955773,-2.028004,-1.955910,-2.027731,-1.956187,-2.027603,-2.181854,-1.782236,-2.181961,-1.781942,-2.182227,-1.781779,-2.377527,-1.511449,-2.377594,-1.511166,-2.377824,-1.510987,-2.511110,-1.275855,-2.511141,-1.275604,-2.511325,-1.275430,-2.584503,-1.111692,-2.584507,-1.111513,-2.584629,-1.111382,-2.653995,-0.923319,-2.653989,-0.923170,-2.654084,-0.923056,
-2.713729,-0.728623,-2.713713,-0.728459,-2.713810,-0.728327,-2.757825,-0.545480,-2.757803,-0.545344,-2.757878,-0.545231,-2.766198,-0.500856,-2.766165,-0.500699,-2.766245,-0.500559,-2.784356,-0.356581,-2.784311,-0.356417,-2.784385,-0.356267,-2.795021,-0.184902,-2.794982,-0.184788,-2.795030,-0.184678,-2.798193,-0.000134,-2.798158,-0.000045,-2.798193,0.000043,-2.798190,0.000208,-2.798184,0.000220,
-2.798190,0.000234,-2.793888,0.183587,-2.793837,0.183701,-2.793877,0.183819,-2.782107,0.352103,-2.782033,0.352250,-2.782076,0.352409,-2.765969,0.474229,-2.765832,0.474465,-2.765875,0.474735,-2.686758,0.806050,-2.686570,0.806309,-2.686582,0.806629,-2.568597,1.124172,-2.568381,1.124404,-2.568355,1.124719,-2.413658,1.425158,-2.413418,1.425361,-2.413355,1.425670,-2.224102,1.705677,
-2.223839,1.705850,-2.223741,1.706148,-2.002087,1.962391,-2.001806,1.962532,-2.001671,1.962819,-1.749775,2.191969,-1.749523,2.192059,-1.749386,2.192288,-1.565496,2.328509,-1.565390,2.328535,-1.565331,2.328626,-1.466267,2.395969,-1.464821,2.396268,-1.463456,2.396834,1.485331,2.396834,1.486708,2.396263,1.486708,2.396263,$1*%
%AMFreePoly1*
4,1,163,1.487740,2.396257,1.489213,2.395932,1.628816,2.298342,1.628903,2.298204,1.629062,2.298159,1.888462,2.092120,1.888611,2.091850,1.888897,2.091731,2.125547,1.853746,2.125663,1.853461,2.125931,1.853312,2.332455,1.590876,2.332502,1.590708,2.332649,1.590613,2.349982,1.565349,2.349985,1.565333,2.349998,1.565325,2.417139,1.466261,2.417436,1.464817,2.418000,1.463456,
2.418000,-1.486348,2.417423,-1.487740,2.417098,-1.489213,2.319507,-1.628817,2.319367,-1.628905,2.319322,-1.629065,2.108739,-1.893712,2.108457,-1.893868,2.108332,-1.894164,1.865640,-2.132861,1.865348,-2.132978,1.865192,-2.133252,1.593814,-2.343059,1.593512,-2.343140,1.593328,-2.343390,1.296687,-2.521370,1.296510,-2.521396,1.296396,-2.521531,1.254744,-2.542888,1.254597,-2.542899,
1.254497,-2.543006,1.116477,-2.604495,1.116303,-2.604499,1.116177,-2.604617,0.951767,-2.665454,0.951634,-2.665448,0.951533,-2.665534,0.776447,-2.720649,0.776313,-2.720637,0.776207,-2.720718,0.606158,-2.765040,0.606014,-2.765020,0.605893,-2.765102,0.498413,-2.786967,0.498212,-2.786928,0.498035,-2.787029,0.368315,-2.803206,0.368158,-2.803162,0.368014,-2.803234,0.209918,-2.813293,
0.209815,-2.813257,0.209715,-2.813302,0.036201,-2.817270,0.036113,-2.817236,0.036027,-2.817271,-0.139948,-2.815174,-0.140040,-2.815134,-0.140134,-2.815168,-0.305613,-2.807031,-0.305734,-2.806973,-0.305863,-2.807012,-0.447890,-2.792862,-0.448020,-2.792791,-0.448166,-2.792827,-0.498189,-2.785010,-0.498383,-2.784891,-0.498610,-2.784926,-0.820934,-2.705747,-0.821194,-2.705555,-0.821517,-2.705565,
-1.131867,-2.587632,-1.132094,-2.587417,-1.132406,-2.587390,-1.427102,-2.433462,-1.427298,-2.433227,-1.427598,-2.433165,-1.702963,-2.245999,-1.703129,-2.245744,-1.703417,-2.245650,-1.955773,-2.028004,-1.955910,-2.027731,-1.956187,-2.027603,-2.181854,-1.782236,-2.181961,-1.781942,-2.182227,-1.781779,-2.377527,-1.511449,-2.377594,-1.511166,-2.377824,-1.510987,-2.511110,-1.275855,-2.511141,-1.275604,
-2.511325,-1.275430,-2.584503,-1.111692,-2.584507,-1.111513,-2.584629,-1.111382,-2.653995,-0.923319,-2.653989,-0.923170,-2.654084,-0.923056,-2.713729,-0.728623,-2.713713,-0.728459,-2.713810,-0.728327,-2.757825,-0.545480,-2.757803,-0.545344,-2.757878,-0.545231,-2.766198,-0.500856,-2.766165,-0.500699,-2.766245,-0.500559,-2.784356,-0.356581,-2.784311,-0.356417,-2.784385,-0.356267,-2.795021,-0.184902,
-2.794982,-0.184788,-2.795030,-0.184678,-2.798193,-0.000134,-2.798158,-0.000045,-2.798193,0.000043,-2.798190,0.000208,-2.798184,0.000220,-2.798190,0.000234,-2.793888,0.183587,-2.793837,0.183701,-2.793877,0.183819,-2.782107,0.352103,-2.782033,0.352250,-2.782076,0.352409,-2.765969,0.474229,-2.765832,0.474465,-2.765875,0.474735,-2.686758,0.806050,-2.686570,0.806309,-2.686582,0.806629,
-2.568597,1.124172,-2.568381,1.124404,-2.568355,1.124719,-2.413658,1.425158,-2.413418,1.425361,-2.413355,1.425670,-2.224102,1.705677,-2.223839,1.705850,-2.223741,1.706148,-2.002087,1.962391,-2.001806,1.962532,-2.001671,1.962819,-1.749775,2.191969,-1.749523,2.192059,-1.749386,2.192288,-1.565496,2.328509,-1.565390,2.328535,-1.565331,2.328626,-1.466267,2.395969,-1.464821,2.396268,
-1.463456,2.396834,1.486348,2.396834,1.487740,2.396257,1.487740,2.396257,$1*%
G04 Aperture macros list end*
G04 #@! TA.AperFunction,ComponentPad*
%ADD10FreePoly0,180.000000*%
G04 #@! TD*
G04 #@! TA.AperFunction,ComponentPad*
%ADD11FreePoly0,0.000000*%
G04 #@! TD*
G04 #@! TA.AperFunction,ComponentPad*
%ADD12FreePoly1,270.000000*%
G04 #@! TD*
G04 #@! TA.AperFunction,ComponentPad*
%ADD13R,1.700000X1.700000*%
G04 #@! TD*
G04 #@! TA.AperFunction,ComponentPad*
%ADD14O,1.700000X1.700000*%
G04 #@! TD*
G04 #@! TA.AperFunction,ComponentPad*
%ADD15O,1.727200X1.727200*%
G04 #@! TD*
G04 #@! TA.AperFunction,ComponentPad*
%ADD16R,1.727200X1.727200*%
G04 #@! TD*
G04 #@! TA.AperFunction,ViaPad*
%ADD17C,0.500000*%
G04 #@! TD*
G04 #@! TA.AperFunction,ViaPad*
%ADD18C,0.914400*%
G04 #@! TD*
G04 #@! TA.AperFunction,Conductor*
%ADD19C,0.400000*%
G04 #@! TD*
G04 #@! TA.AperFunction,Conductor*
%ADD20C,0.150000*%
G04 #@! TD*
G04 #@! TA.AperFunction,Conductor*
%ADD21C,0.200000*%
G04 #@! TD*
G04 APERTURE END LIST*
D10*
X113940000Y-97440000D03*
D11*
X190150000Y-49200000D03*
X115210000Y-49190000D03*
D12*
X196480000Y-97430000D03*
D13*
X196520000Y-54280000D03*
D14*
X193980000Y-54280000D03*
X196520000Y-56820000D03*
X193980000Y-56820000D03*
X196520000Y-59360000D03*
X193980000Y-59360000D03*
X196520000Y-61900000D03*
X193980000Y-61900000D03*
X196520000Y-64440000D03*
X193980000Y-64440000D03*
X196520000Y-66980000D03*
X193980000Y-66980000D03*
X196520000Y-69520000D03*
X193980000Y-69520000D03*
X196520000Y-72060000D03*
X193980000Y-72060000D03*
X196520000Y-74600000D03*
X193980000Y-74600000D03*
X196520000Y-77140000D03*
X193980000Y-77140000D03*
X196520000Y-79680000D03*
X193980000Y-79680000D03*
X196520000Y-82220000D03*
X193980000Y-82220000D03*
X196520000Y-84760000D03*
X193980000Y-84760000D03*
X196520000Y-87300000D03*
X193980000Y-87300000D03*
D13*
X122860000Y-49200000D03*
D14*
X125400000Y-49200000D03*
X127940000Y-49200000D03*
X130480000Y-49200000D03*
X133020000Y-49200000D03*
X135560000Y-49200000D03*
X138100000Y-49200000D03*
X140640000Y-49200000D03*
X143180000Y-49200000D03*
X145720000Y-49200000D03*
X148260000Y-49200000D03*
X150800000Y-49200000D03*
X153340000Y-49200000D03*
X155880000Y-49200000D03*
X158420000Y-49200000D03*
X160960000Y-49200000D03*
X163500000Y-49200000D03*
X166040000Y-49200000D03*
X168580000Y-49200000D03*
X171120000Y-49200000D03*
X173660000Y-49200000D03*
X176200000Y-49200000D03*
X178740000Y-49200000D03*
X181280000Y-49200000D03*
X183820000Y-49200000D03*
D13*
X143180000Y-97494000D03*
D14*
X145720000Y-97494000D03*
X148260000Y-97494000D03*
X150800000Y-97494000D03*
X153340000Y-97494000D03*
X155880000Y-97494000D03*
X158420000Y-97494000D03*
X160960000Y-97494000D03*
X163500000Y-97494000D03*
X166040000Y-97494000D03*
X168580000Y-97494000D03*
X171120000Y-97494000D03*
X173660000Y-97494000D03*
D13*
X144660000Y-69012000D03*
D14*
X144660000Y-71552000D03*
X144660000Y-74092000D03*
X144660000Y-76632000D03*
X144660000Y-79172000D03*
D15*
X103365500Y-88697000D03*
D16*
X103365500Y-91237000D03*
D15*
X105905500Y-88697000D03*
X105905500Y-91237000D03*
X108445500Y-88697000D03*
X108445500Y-91237000D03*
X110985500Y-88697000D03*
X110985500Y-91237000D03*
D17*
X124200000Y-78750000D03*
X125025000Y-69325000D03*
X157259002Y-90112000D03*
X125025000Y-75550000D03*
X129100000Y-64850000D03*
X135600000Y-95600000D03*
X158500000Y-61750000D03*
X170200000Y-70500000D03*
X176650000Y-71150000D03*
X162500000Y-67000000D03*
X141412128Y-60787872D03*
X150068352Y-71849241D03*
X179700000Y-68100000D03*
X142800000Y-60600000D03*
X117950000Y-75950000D03*
X151100000Y-57824990D03*
X163000000Y-90300000D03*
X152100000Y-55400000D03*
X153811558Y-70320697D03*
X148300000Y-59700000D03*
X155032727Y-70303773D03*
X163493498Y-89706502D03*
X143300000Y-61100000D03*
X179600000Y-68900000D03*
X176500000Y-72100000D03*
X167358051Y-72241029D03*
X118400000Y-77950000D03*
X170500000Y-71750000D03*
X142350000Y-62450000D03*
X148700000Y-69600000D03*
X150500000Y-58400000D03*
X136322000Y-82029500D03*
X117650000Y-77100000D03*
X170800000Y-75600000D03*
X169500000Y-75600000D03*
X172200000Y-75600000D03*
X118600000Y-80600000D03*
X166150000Y-84150000D03*
X150400000Y-62400000D03*
X137425000Y-77725000D03*
X157860000Y-66320000D03*
X149086000Y-62154500D03*
X172516992Y-61392000D03*
X162800000Y-55900000D03*
X134100000Y-60600000D03*
X131300000Y-58400000D03*
X116350000Y-90600000D03*
X187400000Y-83900000D03*
X180330000Y-56100000D03*
X184500000Y-56200000D03*
X180900000Y-57400000D03*
X188074512Y-57328000D03*
X116650000Y-91800000D03*
X185788500Y-60249000D03*
X161220442Y-73774500D03*
X159000000Y-62700000D03*
X151700000Y-68000000D03*
X117970500Y-74536500D03*
X149900000Y-71100000D03*
X152900000Y-81400000D03*
X166000000Y-79600000D03*
X126295533Y-79612289D03*
X152959000Y-77330500D03*
D18*
X109620000Y-58534501D03*
D17*
X131260000Y-88860000D03*
X128000000Y-92400000D03*
X108500000Y-53800000D03*
X105800000Y-63200000D03*
X107900000Y-53300000D03*
X105700000Y-60600000D03*
X118095950Y-58300010D03*
X115510883Y-57889117D03*
D18*
X109637000Y-62991500D03*
D17*
X118600000Y-65700000D03*
D18*
X109637000Y-60771500D03*
D17*
X119651746Y-65355366D03*
X168900000Y-84600000D03*
X165212074Y-76657575D03*
X153594000Y-84094000D03*
X154546500Y-92888000D03*
X154546500Y-90983000D03*
X154265316Y-84596501D03*
X164760000Y-85720000D03*
X163160000Y-85620000D03*
X161510000Y-85620000D03*
X160210000Y-85720000D03*
X167600000Y-85500000D03*
X118900000Y-73800000D03*
X151600000Y-81900000D03*
X156800000Y-84200000D03*
X156700000Y-82100000D03*
X172000000Y-84000000D03*
X150183142Y-80072418D03*
X150101500Y-73393500D03*
X182900000Y-57700000D03*
X124900000Y-86600000D03*
X120400000Y-87300000D03*
X154740326Y-83507176D03*
X160324998Y-91427500D03*
X156297641Y-84612493D03*
X159800000Y-57800000D03*
X166250000Y-68150000D03*
X163500000Y-62789000D03*
X179800000Y-66700000D03*
X179650000Y-78650000D03*
X177729000Y-82821000D03*
X173600000Y-64150000D03*
X167700000Y-73300000D03*
X159400000Y-58800000D03*
X180550000Y-63250000D03*
X186000000Y-81500000D03*
X166200000Y-60400000D03*
X145402500Y-87871500D03*
X186700000Y-70600000D03*
X167800000Y-58400000D03*
X190650000Y-70650000D03*
X146455000Y-57200000D03*
X187600000Y-65500000D03*
X182557500Y-58400000D03*
X187503000Y-58979000D03*
X187900000Y-77300000D03*
X144132016Y-87872000D03*
X166050000Y-58550000D03*
X136100000Y-71200000D03*
X144100000Y-93700000D03*
X155314960Y-83811004D03*
X160324998Y-93586500D03*
X158737504Y-66472000D03*
X166000000Y-66000000D03*
X159200000Y-67000000D03*
X166600000Y-64400000D03*
X113200000Y-91125000D03*
X113200000Y-90050000D03*
D18*
X182807267Y-90056962D03*
X181452084Y-91922212D03*
X181452084Y-94227788D03*
X182807267Y-96093038D03*
X185000000Y-96805500D03*
X187192733Y-96093038D03*
X188547916Y-94227788D03*
X188547916Y-91922212D03*
X187192733Y-90056962D03*
D17*
X128025000Y-95200000D03*
X103600000Y-68800000D03*
D18*
X109637000Y-65202000D03*
D17*
X108000000Y-86450000D03*
X108000000Y-85850000D03*
X107400000Y-84650000D03*
X108000000Y-85250000D03*
X107400000Y-85850000D03*
X107400000Y-86450000D03*
X108000000Y-84650000D03*
X107400000Y-85250000D03*
X103900000Y-86400000D03*
X103900000Y-85800000D03*
X103300000Y-84600000D03*
X103900000Y-85200000D03*
X103300000Y-85800000D03*
X103300000Y-86400000D03*
X103900000Y-84600000D03*
X103300000Y-85200000D03*
X129325000Y-67225000D03*
X113100000Y-84950000D03*
X107900000Y-68800000D03*
X133475000Y-53225000D03*
X117250000Y-85550000D03*
X177702270Y-69426685D03*
X132475000Y-84600000D03*
X131010000Y-92040000D03*
X103600000Y-66400000D03*
X182200000Y-60650000D03*
X185650000Y-68600000D03*
X103570000Y-67230000D03*
D18*
X123650000Y-98950000D03*
D17*
X140900000Y-64200000D03*
X100800000Y-55800000D03*
X107900000Y-56100000D03*
X105800000Y-55100000D03*
X156818718Y-70074500D03*
X173100000Y-90000000D03*
X105000000Y-55900000D03*
X179900000Y-64600000D03*
X105800000Y-68800000D03*
X107900000Y-70700000D03*
X137100000Y-59300000D03*
X156800000Y-64300000D03*
X174800000Y-83000000D03*
X131700000Y-92000000D03*
X185600000Y-80250000D03*
X128800000Y-95200000D03*
X130650000Y-79400000D03*
X124600000Y-83600000D03*
X172115000Y-81055000D03*
X105000000Y-68800000D03*
X134600000Y-65100000D03*
X113700000Y-84350000D03*
X157100000Y-78500000D03*
X107300000Y-69500000D03*
X151800000Y-59800000D03*
X113700000Y-84950000D03*
X107900000Y-69500000D03*
X105000000Y-66400000D03*
X182600000Y-59300000D03*
D18*
X123650000Y-97950000D03*
D17*
X107200000Y-68800000D03*
X103000000Y-68800000D03*
X181800000Y-84950000D03*
X158000000Y-87300000D03*
X154546500Y-94031000D03*
X105000000Y-55100000D03*
X105000000Y-56600000D03*
X106500000Y-68800000D03*
X114000000Y-67600000D03*
X116650000Y-85550000D03*
X187950000Y-64100000D03*
X100800000Y-57200000D03*
X168600000Y-90200000D03*
X117250000Y-84350000D03*
X138600000Y-54600000D03*
X113100000Y-83750000D03*
X130825000Y-65925000D03*
X139200000Y-54600000D03*
X103600000Y-68000000D03*
X142293000Y-89147000D03*
X187800000Y-82400000D03*
X114600000Y-67600000D03*
X102300000Y-68800000D03*
X128400000Y-96800000D03*
X131700000Y-91300000D03*
X114200000Y-74650000D03*
X115200000Y-68200000D03*
X115200000Y-67600000D03*
X161500000Y-75000000D03*
X116650000Y-84950000D03*
X177050000Y-85000000D03*
X131000000Y-92700000D03*
X131350000Y-54050000D03*
X144515207Y-82839172D03*
X107900000Y-67100000D03*
X105000000Y-68100000D03*
X116125000Y-94050000D03*
X130050000Y-79400000D03*
X115800000Y-68200000D03*
X143700000Y-64700000D03*
X107900000Y-66400000D03*
X190741500Y-62789000D03*
X100800000Y-55100000D03*
X103400000Y-57100000D03*
X104970000Y-67230000D03*
X113700000Y-85550000D03*
X172700000Y-53700000D03*
X107300000Y-70700000D03*
X114600000Y-68200000D03*
X167900000Y-52900000D03*
X109400000Y-51500000D03*
X116200000Y-60000000D03*
X100800000Y-66300000D03*
X135400000Y-65100000D03*
X160500000Y-58100000D03*
X151800000Y-86400000D03*
X113100000Y-85550000D03*
D18*
X185000000Y-89344500D03*
D17*
X117250000Y-84950000D03*
X115800000Y-67600000D03*
X131700000Y-92700000D03*
X130300000Y-92700000D03*
X107900000Y-67900000D03*
X103400000Y-56500000D03*
X145736000Y-91364000D03*
X131600000Y-87100182D03*
D18*
X123650000Y-96950000D03*
D17*
X100800000Y-56500000D03*
X139243000Y-98603000D03*
X164300000Y-88300000D03*
X117250000Y-83750000D03*
X113300000Y-61900000D03*
X170800000Y-53100000D03*
X116650000Y-84350000D03*
X106500000Y-55100000D03*
X130300000Y-92000000D03*
X105000000Y-57200000D03*
X160500000Y-61400000D03*
X131000000Y-91300000D03*
X107300000Y-71300000D03*
X116175000Y-56650000D03*
X113700000Y-83750000D03*
X101500000Y-68800000D03*
X100800000Y-67500000D03*
X107900000Y-56900000D03*
X107900000Y-55300000D03*
X107900000Y-57600000D03*
X100800000Y-66900000D03*
X173600000Y-79174500D03*
X132600000Y-54300000D03*
X148700000Y-88500000D03*
X158975337Y-55424990D03*
X137084000Y-98603000D03*
X107300000Y-70100000D03*
X114000000Y-68200000D03*
X113100000Y-84350000D03*
X135300000Y-95000000D03*
X107900000Y-71300000D03*
X130300000Y-91300000D03*
X107900000Y-70100000D03*
X127546675Y-68719298D03*
X134700000Y-94800000D03*
X152959000Y-74219002D03*
X116650000Y-83750000D03*
X158039000Y-85839500D03*
X100800000Y-68200000D03*
X100800000Y-68800000D03*
X176900000Y-60700000D03*
X165385883Y-70485883D03*
X176898500Y-58407504D03*
X164750000Y-71250000D03*
X175700000Y-71150000D03*
X166674500Y-70994521D03*
X165750000Y-72250000D03*
X174250000Y-66750000D03*
X117850000Y-54600000D03*
X114975000Y-56025000D03*
X169200000Y-79200000D03*
X171100000Y-80200000D03*
X173700000Y-73100000D03*
X180189026Y-70975500D03*
X158500000Y-58250000D03*
X166899172Y-71766529D03*
X163750000Y-67500000D03*
X171500000Y-77500000D03*
X166100000Y-85000000D03*
X153600000Y-77900000D03*
X150613588Y-79585354D03*
X170000000Y-84400000D03*
X156700000Y-77400000D03*
X118950000Y-90250000D03*
X124250000Y-90500000D03*
X185000000Y-71200000D03*
X179536269Y-72110669D03*
X177650000Y-80250000D03*
X177450000Y-91850000D03*
X175550000Y-92250000D03*
X193550000Y-94250000D03*
X175600000Y-94250000D03*
X191800000Y-91950000D03*
X193600000Y-91950000D03*
X191800000Y-94200000D03*
X177400000Y-94250000D03*
X181900000Y-71550000D03*
X174750000Y-79200000D03*
X168750000Y-57500000D03*
X166000000Y-56250000D03*
X185000000Y-77200000D03*
X187485000Y-80585000D03*
X164400000Y-76900000D03*
X180200000Y-57200000D03*
X115100000Y-57375000D03*
X117500000Y-58700000D03*
X127900000Y-93600000D03*
X133900000Y-88000000D03*
X131550000Y-94900000D03*
X134300000Y-84300000D03*
X130000000Y-95000000D03*
X139400000Y-79700000D03*
X187500000Y-78900000D03*
X185800000Y-77000000D03*
D19*
X150562000Y-90112000D02*
X157259002Y-90112000D01*
X135600000Y-95600000D02*
X137494000Y-97494000D01*
X143180000Y-97494000D02*
X150562000Y-90112000D01*
X137494000Y-97494000D02*
X143180000Y-97494000D01*
D20*
X162500000Y-67000000D02*
X158500000Y-63000000D01*
X158500000Y-63000000D02*
X158500000Y-61750000D01*
X161650000Y-73300000D02*
X166299080Y-73300000D01*
X148700000Y-69600000D02*
X157950000Y-69600000D01*
X166299080Y-73300000D02*
X167358051Y-72241029D01*
X157950000Y-69600000D02*
X161650000Y-73300000D01*
D19*
X157860000Y-66320000D02*
X157860000Y-66860000D01*
X149860000Y-66620000D02*
X157560000Y-66620000D01*
X149331500Y-62400000D02*
X149086000Y-62154500D01*
X167850000Y-67400000D02*
X168700011Y-68250011D01*
X168450000Y-81850000D02*
X166150000Y-84150000D01*
X111550000Y-83150000D02*
X111550000Y-86450000D01*
D20*
X168450000Y-75300000D02*
X168450000Y-74650000D01*
D19*
X149860000Y-66620000D02*
X149592000Y-66620000D01*
X149086000Y-65846000D02*
X149086000Y-62154500D01*
X157860000Y-66860000D02*
X159400000Y-68400000D01*
X111550000Y-86450000D02*
X112600000Y-87500000D01*
X149592000Y-66620000D02*
X144660000Y-71552000D01*
X113300001Y-81399999D02*
X111550000Y-83150000D01*
X143180000Y-50340000D02*
X143960000Y-51120000D01*
D20*
X168750000Y-75600000D02*
X168450000Y-75300000D01*
D19*
X168450000Y-74650000D02*
X168450000Y-81850000D01*
X164550000Y-68400000D02*
X165550000Y-67400000D01*
X149086000Y-65846000D02*
X149860000Y-66620000D01*
X159400000Y-68400000D02*
X164550000Y-68400000D01*
X165550000Y-67400000D02*
X167850000Y-67400000D01*
D21*
X109748500Y-90000000D02*
X107142500Y-90000000D01*
D20*
X172200000Y-75600000D02*
X170800000Y-75600000D01*
D19*
X117650000Y-78650000D02*
X118600000Y-79600000D01*
X168700011Y-74399989D02*
X168450000Y-74650000D01*
X143180000Y-49200000D02*
X143180000Y-50340000D01*
X118600000Y-79600000D02*
X118600000Y-80600000D01*
X168700011Y-68250011D02*
X168700011Y-74399989D01*
X136322000Y-82029500D02*
X136322000Y-78828000D01*
X112600000Y-89622500D02*
X110985500Y-91237000D01*
X112600000Y-87500000D02*
X112600000Y-89622500D01*
X143960000Y-51120000D02*
X151420000Y-51120000D01*
X117650000Y-77100000D02*
X117650000Y-78650000D01*
X118600000Y-80600000D02*
X117800001Y-81399999D01*
X136322000Y-78828000D02*
X137425000Y-77725000D01*
X157560000Y-66620000D02*
X157860000Y-66320000D01*
D21*
X107142500Y-90000000D02*
X105905500Y-91237000D01*
D19*
X117800001Y-81399999D02*
X113300001Y-81399999D01*
D20*
X169500000Y-75600000D02*
X168750000Y-75600000D01*
D21*
X110985500Y-91237000D02*
X109748500Y-90000000D01*
D19*
X151420000Y-51120000D02*
X153340000Y-49200000D01*
X150400000Y-62400000D02*
X149331500Y-62400000D01*
D20*
X170800000Y-75600000D02*
X169500000Y-75600000D01*
X173660000Y-49200000D02*
X173660000Y-60248992D01*
X173660000Y-60248992D02*
X172516992Y-61392000D01*
X188074512Y-57328000D02*
X187824513Y-57078001D01*
X181121999Y-57078001D02*
X180900000Y-57300000D01*
X180900000Y-57300000D02*
X180900000Y-57400000D01*
X187824513Y-57078001D02*
X182021999Y-57078001D01*
X182021999Y-57078001D02*
X181121999Y-57078001D01*
X165600000Y-79600000D02*
X166000000Y-79600000D01*
X152900000Y-81400000D02*
X163800000Y-81400000D01*
X163800000Y-81400000D02*
X165600000Y-79600000D01*
D19*
X179629000Y-78671000D02*
X179650000Y-78650000D01*
X173600000Y-64150000D02*
X176808000Y-64150000D01*
X178929000Y-82821000D02*
X177729000Y-82821000D01*
D20*
X179329000Y-66271000D02*
X179371000Y-66271000D01*
D19*
X168150000Y-72400000D02*
X167700000Y-72850000D01*
X178929000Y-78671000D02*
X178929000Y-82821000D01*
D20*
X179371000Y-66271000D02*
X179800000Y-66700000D01*
X159800000Y-58400000D02*
X159400000Y-58800000D01*
D19*
X168150000Y-70050000D02*
X168150000Y-72400000D01*
D20*
X178929000Y-66271000D02*
X179329000Y-66271000D01*
D19*
X167500000Y-69400000D02*
X168150000Y-70050000D01*
X178929000Y-72671000D02*
X178929000Y-78671000D01*
X178929000Y-67129000D02*
X178929000Y-72671000D01*
X178929000Y-78671000D02*
X179629000Y-78671000D01*
X176808000Y-64150000D02*
X178929000Y-66271000D01*
X167700000Y-72850000D02*
X167700000Y-73300000D01*
D20*
X159800000Y-57800000D02*
X159800000Y-58400000D01*
D19*
X178929000Y-66271000D02*
X178929000Y-67129000D01*
X166250000Y-68150000D02*
X167500000Y-69400000D01*
X163100000Y-59800000D02*
X166200000Y-59800000D01*
X186700000Y-80800000D02*
X186000000Y-81500000D01*
D20*
X166200000Y-60400000D02*
X166200000Y-59800000D01*
D19*
X180278001Y-63521999D02*
X180121999Y-63521999D01*
X186700000Y-65700000D02*
X186700000Y-70600000D01*
X145402500Y-87871500D02*
X142500000Y-84969000D01*
X136800000Y-64000000D02*
X143600000Y-57200000D01*
X160500000Y-57200000D02*
X163100000Y-59800000D01*
X142500000Y-84969000D02*
X142500000Y-80500000D01*
X180550000Y-63250000D02*
X180278001Y-63521999D01*
X146455000Y-57200000D02*
X160500000Y-57200000D01*
X166200000Y-59800000D02*
X168100000Y-59800000D01*
X142500000Y-80500000D02*
X136800000Y-74800000D01*
X168100000Y-59800000D02*
X171821999Y-63521999D01*
X184521999Y-63521999D02*
X186700000Y-65700000D01*
X186700000Y-70600000D02*
X186700000Y-72000000D01*
X136800000Y-74800000D02*
X136800000Y-64000000D01*
X171821999Y-63521999D02*
X180121999Y-63521999D01*
X143600000Y-57200000D02*
X146455000Y-57200000D01*
X180121999Y-63521999D02*
X184521999Y-63521999D01*
X186700000Y-72000000D02*
X186700000Y-80800000D01*
X179378750Y-61578750D02*
X178359000Y-62598500D01*
X141629865Y-80729865D02*
X141629865Y-85369849D01*
X186924000Y-58400000D02*
X187503000Y-58979000D01*
X143376011Y-56369989D02*
X160769989Y-56369989D01*
X187600000Y-74100000D02*
X187600000Y-76000000D01*
D20*
X166050000Y-58550000D02*
X166050000Y-59150000D01*
D19*
X179378750Y-61578750D02*
X182557500Y-58400000D01*
X136100000Y-63646000D02*
X143376011Y-56369989D01*
X160769989Y-56369989D02*
X163600000Y-59200000D01*
X187600000Y-77000000D02*
X187900000Y-77300000D01*
X178359000Y-62598500D02*
X184698500Y-62598500D01*
D20*
X166050000Y-59150000D02*
X166000000Y-59200000D01*
D19*
X136100000Y-71200000D02*
X136100000Y-75200000D01*
X182557500Y-58400000D02*
X186924000Y-58400000D01*
X171711998Y-62600002D02*
X178357498Y-62600002D01*
X163600000Y-59200000D02*
X166000000Y-59200000D01*
X187600000Y-65500000D02*
X187600000Y-74100000D01*
X187600000Y-76000000D02*
X187600000Y-77000000D01*
X136100000Y-75200000D02*
X141629865Y-80729865D01*
X184698500Y-62598500D02*
X187600000Y-65500000D01*
X141629865Y-85369849D02*
X144132016Y-87872000D01*
X144132016Y-93667984D02*
X144100000Y-93700000D01*
X168311996Y-59200000D02*
X171711998Y-62600002D01*
X166000000Y-59200000D02*
X168311996Y-59200000D01*
X136100000Y-71200000D02*
X136100000Y-63646000D01*
X144132016Y-87872000D02*
X144132016Y-93667984D01*
X178357498Y-62600002D02*
X178359000Y-62598500D01*
G04 #@! TA.AperFunction,Conductor*
G36*
X160251864Y-57570185D02*
G01*
X160297619Y-57622989D01*
X160307563Y-57692147D01*
X160278538Y-57755703D01*
X160268460Y-57764951D01*
X160268558Y-57765049D01*
X160171954Y-57861652D01*
X160171951Y-57861657D01*
X160171950Y-57861658D01*
X160159727Y-57885647D01*
X160114352Y-57974698D01*
X160114352Y-57974699D01*
X160094508Y-58099996D01*
X160094508Y-58100003D01*
X160114352Y-58225300D01*
X160114352Y-58225301D01*
X160114354Y-58225304D01*
X160171950Y-58338342D01*
X160171952Y-58338344D01*
X160171954Y-58338347D01*
X160261652Y-58428045D01*
X160261654Y-58428046D01*
X160261658Y-58428050D01*
X160374696Y-58485646D01*
X160374697Y-58485646D01*
X160374699Y-58485647D01*
X160499997Y-58505492D01*
X160500000Y-58505492D01*
X160500003Y-58505492D01*
X160625300Y-58485647D01*
X160625301Y-58485647D01*
X160625302Y-58485646D01*
X160625304Y-58485646D01*
X160738342Y-58428050D01*
X160828050Y-58338342D01*
X160856761Y-58281991D01*
X160904734Y-58231198D01*
X160972555Y-58214403D01*
X161038690Y-58236940D01*
X161054926Y-58250608D01*
X162817362Y-60013044D01*
X162833486Y-60032899D01*
X162838563Y-60040669D01*
X162864508Y-60060862D01*
X162870260Y-60065942D01*
X162872693Y-60068375D01*
X162890434Y-60081041D01*
X162930874Y-60112517D01*
X162930876Y-60112517D01*
X162937248Y-60115966D01*
X162937305Y-60115994D01*
X162937378Y-60116033D01*
X162943929Y-60119235D01*
X162943934Y-60119239D01*
X162993033Y-60133856D01*
X163041512Y-60150500D01*
X163041520Y-60150500D01*
X163048705Y-60151699D01*
X163048738Y-60151704D01*
X163048792Y-60151713D01*
X163056046Y-60152617D01*
X163107231Y-60150500D01*
X165688839Y-60150500D01*
X165755878Y-60170185D01*
X165801633Y-60222989D01*
X165811577Y-60292147D01*
X165811312Y-60293897D01*
X165794508Y-60399996D01*
X165794508Y-60400003D01*
X165814352Y-60525300D01*
X165814352Y-60525301D01*
X165814354Y-60525304D01*
X165871950Y-60638342D01*
X165871952Y-60638344D01*
X165871954Y-60638347D01*
X165961652Y-60728045D01*
X165961654Y-60728046D01*
X165961658Y-60728050D01*
X166074696Y-60785646D01*
X166074697Y-60785646D01*
X166074699Y-60785647D01*
X166199997Y-60805492D01*
X166200000Y-60805492D01*
X166200003Y-60805492D01*
X166325300Y-60785647D01*
X166325301Y-60785647D01*
X166325302Y-60785646D01*
X166325304Y-60785646D01*
X166438342Y-60728050D01*
X166528050Y-60638342D01*
X166585646Y-60525304D01*
X166585646Y-60525302D01*
X166585647Y-60525301D01*
X166585647Y-60525300D01*
X166603310Y-60413775D01*
X166605492Y-60400000D01*
X166605491Y-60399998D01*
X166605492Y-60399996D01*
X166588688Y-60293897D01*
X166597643Y-60224604D01*
X166642639Y-60171152D01*
X166709391Y-60150513D01*
X166711161Y-60150500D01*
X167903456Y-60150500D01*
X167970495Y-60170185D01*
X167991137Y-60186819D01*
X171539361Y-63735043D01*
X171555488Y-63754901D01*
X171560562Y-63762668D01*
X171560564Y-63762670D01*
X171586504Y-63782859D01*
X171592267Y-63787949D01*
X171594692Y-63790374D01*
X171594694Y-63790376D01*
X171611559Y-63802417D01*
X171612436Y-63803043D01*
X171652873Y-63834516D01*
X171652877Y-63834517D01*
X171659313Y-63837999D01*
X171659338Y-63838012D01*
X171659370Y-63838029D01*
X171665929Y-63841236D01*
X171665932Y-63841238D01*
X171715036Y-63855857D01*
X171763511Y-63872499D01*
X171763513Y-63872499D01*
X171770753Y-63873707D01*
X171778045Y-63874616D01*
X171829230Y-63872499D01*
X180063511Y-63872499D01*
X180228790Y-63872499D01*
X180254235Y-63875137D01*
X180263316Y-63877042D01*
X180279006Y-63875086D01*
X180295940Y-63872976D01*
X180303616Y-63872499D01*
X180876000Y-63872499D01*
X180943039Y-63892184D01*
X180988794Y-63944988D01*
X181000000Y-63996499D01*
X181000000Y-88876000D01*
X180980315Y-88943039D01*
X180927511Y-88988794D01*
X180876000Y-89000000D01*
X159124000Y-89000000D01*
X159056961Y-88980315D01*
X159011206Y-88927511D01*
X159000000Y-88876000D01*
X159000000Y-88300003D01*
X163894508Y-88300003D01*
X163914352Y-88425300D01*
X163914352Y-88425301D01*
X163914354Y-88425304D01*
X163971950Y-88538342D01*
X163971952Y-88538344D01*
X163971954Y-88538347D01*
X164061652Y-88628045D01*
X164061654Y-88628046D01*
X164061658Y-88628050D01*
X164174696Y-88685646D01*
X164174697Y-88685646D01*
X164174699Y-88685647D01*
X164299997Y-88705492D01*
X164300000Y-88705492D01*
X164300003Y-88705492D01*
X164425300Y-88685647D01*
X164425301Y-88685647D01*
X164425302Y-88685646D01*
X164425304Y-88685646D01*
X164538342Y-88628050D01*
X164628050Y-88538342D01*
X164685646Y-88425304D01*
X164685646Y-88425302D01*
X164685647Y-88425301D01*
X164685647Y-88425300D01*
X164693805Y-88373783D01*
X164705492Y-88300000D01*
X164697332Y-88248479D01*
X164685647Y-88174699D01*
X164685647Y-88174698D01*
X164685646Y-88174696D01*
X164628050Y-88061658D01*
X164628046Y-88061654D01*
X164628045Y-88061652D01*
X164538347Y-87971954D01*
X164538344Y-87971952D01*
X164538342Y-87971950D01*
X164425304Y-87914354D01*
X164425303Y-87914353D01*
X164425300Y-87914352D01*
X164300003Y-87894508D01*
X164299997Y-87894508D01*
X164174699Y-87914352D01*
X164174698Y-87914352D01*
X164099337Y-87952751D01*
X164061658Y-87971950D01*
X164061656Y-87971951D01*
X164061657Y-87971951D01*
X164061652Y-87971954D01*
X163971954Y-88061652D01*
X163971951Y-88061657D01*
X163914352Y-88174698D01*
X163914352Y-88174699D01*
X163894508Y-88299996D01*
X163894508Y-88300003D01*
X159000000Y-88300003D01*
X159000000Y-85720003D01*
X159804508Y-85720003D01*
X159824352Y-85845300D01*
X159824352Y-85845301D01*
X159842805Y-85881517D01*
X159881950Y-85958342D01*
X159881952Y-85958344D01*
X159881954Y-85958347D01*
X159971652Y-86048045D01*
X159971654Y-86048046D01*
X159971658Y-86048050D01*
X160084696Y-86105646D01*
X160084697Y-86105646D01*
X160084699Y-86105647D01*
X160209997Y-86125492D01*
X160210000Y-86125492D01*
X160210003Y-86125492D01*
X160335300Y-86105647D01*
X160335301Y-86105647D01*
X160335302Y-86105646D01*
X160335304Y-86105646D01*
X160448342Y-86048050D01*
X160538050Y-85958342D01*
X160595646Y-85845304D01*
X160595646Y-85845302D01*
X160595647Y-85845301D01*
X160595647Y-85845300D01*
X160615492Y-85720003D01*
X160615492Y-85719996D01*
X160599655Y-85620003D01*
X161104508Y-85620003D01*
X161124352Y-85745300D01*
X161124352Y-85745301D01*
X161124354Y-85745304D01*
X161181950Y-85858342D01*
X161181952Y-85858344D01*
X161181954Y-85858347D01*
X161271652Y-85948045D01*
X161271654Y-85948046D01*
X161271658Y-85948050D01*
X161384696Y-86005646D01*
X161384697Y-86005646D01*
X161384699Y-86005647D01*
X161509997Y-86025492D01*
X161510000Y-86025492D01*
X161510003Y-86025492D01*
X161635300Y-86005647D01*
X161635301Y-86005647D01*
X161635302Y-86005646D01*
X161635304Y-86005646D01*
X161748342Y-85948050D01*
X161838050Y-85858342D01*
X161895646Y-85745304D01*
X161895646Y-85745302D01*
X161895647Y-85745301D01*
X161895647Y-85745300D01*
X161903805Y-85693783D01*
X161915492Y-85620003D01*
X162754508Y-85620003D01*
X162774352Y-85745300D01*
X162774352Y-85745301D01*
X162774354Y-85745304D01*
X162831950Y-85858342D01*
X162831952Y-85858344D01*
X162831954Y-85858347D01*
X162921652Y-85948045D01*
X162921654Y-85948046D01*
X162921658Y-85948050D01*
X163034696Y-86005646D01*
X163034697Y-86005646D01*
X163034699Y-86005647D01*
X163159997Y-86025492D01*
X163160000Y-86025492D01*
X163160003Y-86025492D01*
X163285300Y-86005647D01*
X163285301Y-86005647D01*
X163285302Y-86005646D01*
X163285304Y-86005646D01*
X163398342Y-85948050D01*
X163488050Y-85858342D01*
X163545646Y-85745304D01*
X163545646Y-85745302D01*
X163545647Y-85745301D01*
X163545647Y-85745300D01*
X163549653Y-85720003D01*
X164354508Y-85720003D01*
X164374352Y-85845300D01*
X164374352Y-85845301D01*
X164392805Y-85881517D01*
X164431950Y-85958342D01*
X164431952Y-85958344D01*
X164431954Y-85958347D01*
X164521652Y-86048045D01*
X164521654Y-86048046D01*
X164521658Y-86048050D01*
X164634696Y-86105646D01*
X164634697Y-86105646D01*
X164634699Y-86105647D01*
X164759997Y-86125492D01*
X164760000Y-86125492D01*
X164760003Y-86125492D01*
X164885300Y-86105647D01*
X164885301Y-86105647D01*
X164885302Y-86105646D01*
X164885304Y-86105646D01*
X164998342Y-86048050D01*
X165088050Y-85958342D01*
X165145646Y-85845304D01*
X165145646Y-85845302D01*
X165145647Y-85845301D01*
X165145647Y-85845300D01*
X165161484Y-85745304D01*
X165165492Y-85720000D01*
X165150494Y-85625304D01*
X165145647Y-85594699D01*
X165145647Y-85594698D01*
X165145646Y-85594696D01*
X165097397Y-85500003D01*
X167194508Y-85500003D01*
X167214352Y-85625300D01*
X167214352Y-85625301D01*
X167214354Y-85625304D01*
X167271950Y-85738342D01*
X167271952Y-85738344D01*
X167271954Y-85738347D01*
X167361652Y-85828045D01*
X167361654Y-85828046D01*
X167361658Y-85828050D01*
X167474696Y-85885646D01*
X167474697Y-85885646D01*
X167474699Y-85885647D01*
X167599997Y-85905492D01*
X167600000Y-85905492D01*
X167600003Y-85905492D01*
X167725300Y-85885647D01*
X167725301Y-85885647D01*
X167725302Y-85885646D01*
X167725304Y-85885646D01*
X167838342Y-85828050D01*
X167928050Y-85738342D01*
X167985646Y-85625304D01*
X167985646Y-85625302D01*
X167985647Y-85625301D01*
X167985647Y-85625300D01*
X167993805Y-85573783D01*
X168005492Y-85500000D01*
X167990524Y-85405492D01*
X167985647Y-85374699D01*
X167985647Y-85374698D01*
X167985646Y-85374696D01*
X167928050Y-85261658D01*
X167928046Y-85261654D01*
X167928045Y-85261652D01*
X167838347Y-85171954D01*
X167838344Y-85171952D01*
X167838342Y-85171950D01*
X167725304Y-85114354D01*
X167725303Y-85114353D01*
X167725300Y-85114352D01*
X167600003Y-85094508D01*
X167599997Y-85094508D01*
X167474699Y-85114352D01*
X167474698Y-85114352D01*
X167399337Y-85152751D01*
X167361658Y-85171950D01*
X167361657Y-85171951D01*
X167361652Y-85171954D01*
X167271954Y-85261652D01*
X167271951Y-85261657D01*
X167214352Y-85374698D01*
X167214352Y-85374699D01*
X167194508Y-85499996D01*
X167194508Y-85500003D01*
X165097397Y-85500003D01*
X165088050Y-85481658D01*
X165088046Y-85481654D01*
X165088045Y-85481652D01*
X164998347Y-85391954D01*
X164998344Y-85391952D01*
X164998342Y-85391950D01*
X164885304Y-85334354D01*
X164885303Y-85334353D01*
X164885300Y-85334352D01*
X164760003Y-85314508D01*
X164759997Y-85314508D01*
X164634699Y-85334352D01*
X164634698Y-85334352D01*
X164559337Y-85372751D01*
X164521658Y-85391950D01*
X164521657Y-85391951D01*
X164521652Y-85391954D01*
X164431954Y-85481652D01*
X164431951Y-85481657D01*
X164431950Y-85481658D01*
X164422604Y-85500000D01*
X164374352Y-85594698D01*
X164374352Y-85594699D01*
X164354508Y-85719996D01*
X164354508Y-85720003D01*
X163549653Y-85720003D01*
X163553805Y-85693783D01*
X163565492Y-85620000D01*
X163546487Y-85500003D01*
X163545647Y-85494699D01*
X163545647Y-85494698D01*
X163539000Y-85481652D01*
X163488050Y-85381658D01*
X163488046Y-85381654D01*
X163488045Y-85381652D01*
X163398347Y-85291954D01*
X163398344Y-85291952D01*
X163398342Y-85291950D01*
X163285304Y-85234354D01*
X163285303Y-85234353D01*
X163285300Y-85234352D01*
X163160003Y-85214508D01*
X163159997Y-85214508D01*
X163034699Y-85234352D01*
X163034698Y-85234352D01*
X162981111Y-85261657D01*
X162921658Y-85291950D01*
X162921657Y-85291951D01*
X162921652Y-85291954D01*
X162831954Y-85381652D01*
X162831951Y-85381657D01*
X162831950Y-85381658D01*
X162826704Y-85391954D01*
X162774352Y-85494698D01*
X162774352Y-85494699D01*
X162754508Y-85619996D01*
X162754508Y-85620003D01*
X161915492Y-85620003D01*
X161915492Y-85620000D01*
X161896487Y-85500003D01*
X161895647Y-85494699D01*
X161895647Y-85494698D01*
X161889000Y-85481652D01*
X161838050Y-85381658D01*
X161838046Y-85381654D01*
X161838045Y-85381652D01*
X161748347Y-85291954D01*
X161748344Y-85291952D01*
X161748342Y-85291950D01*
X161635304Y-85234354D01*
X161635303Y-85234353D01*
X161635300Y-85234352D01*
X161510003Y-85214508D01*
X161509997Y-85214508D01*
X161384699Y-85234352D01*
X161384698Y-85234352D01*
X161331111Y-85261657D01*
X161271658Y-85291950D01*
X161271656Y-85291951D01*
X161271657Y-85291951D01*
X161271652Y-85291954D01*
X161181954Y-85381652D01*
X161181951Y-85381657D01*
X161181950Y-85381658D01*
X161176704Y-85391954D01*
X161124352Y-85494698D01*
X161124352Y-85494699D01*
X161104508Y-85619996D01*
X161104508Y-85620003D01*
X160599655Y-85620003D01*
X160595647Y-85594699D01*
X160595647Y-85594698D01*
X160595646Y-85594696D01*
X160538050Y-85481658D01*
X160538046Y-85481654D01*
X160538045Y-85481652D01*
X160448347Y-85391954D01*
X160448344Y-85391952D01*
X160448342Y-85391950D01*
X160335304Y-85334354D01*
X160335303Y-85334353D01*
X160335300Y-85334352D01*
X160210003Y-85314508D01*
X160209997Y-85314508D01*
X160084699Y-85334352D01*
X160084698Y-85334352D01*
X160009337Y-85372751D01*
X159971658Y-85391950D01*
X159971656Y-85391951D01*
X159971657Y-85391951D01*
X159971652Y-85391954D01*
X159881954Y-85481652D01*
X159881951Y-85481657D01*
X159881950Y-85481658D01*
X159872604Y-85500000D01*
X159824352Y-85594698D01*
X159824352Y-85594699D01*
X159804508Y-85719996D01*
X159804508Y-85720003D01*
X159000000Y-85720003D01*
X159000000Y-81749500D01*
X159019685Y-81682461D01*
X159072489Y-81636706D01*
X159124000Y-81625500D01*
X163792462Y-81625500D01*
X163795706Y-81625584D01*
X163836064Y-81627700D01*
X163855138Y-81620377D01*
X163873789Y-81614853D01*
X163893768Y-81610607D01*
X163895313Y-81609484D01*
X163923767Y-81594034D01*
X163925560Y-81593346D01*
X163940013Y-81578891D01*
X163954796Y-81566266D01*
X163971323Y-81554260D01*
X163972281Y-81552599D01*
X163991986Y-81526918D01*
X165588576Y-79930327D01*
X165649897Y-79896844D01*
X165719589Y-79901828D01*
X165753027Y-79923318D01*
X165753759Y-79922311D01*
X165761653Y-79928045D01*
X165761658Y-79928050D01*
X165874696Y-79985646D01*
X165874697Y-79985646D01*
X165874699Y-79985647D01*
X165999997Y-80005492D01*
X166000000Y-80005492D01*
X166000003Y-80005492D01*
X166125300Y-79985647D01*
X166125301Y-79985647D01*
X166125302Y-79985646D01*
X166125304Y-79985646D01*
X166238342Y-79928050D01*
X166328050Y-79838342D01*
X166385646Y-79725304D01*
X166385646Y-79725302D01*
X166385647Y-79725301D01*
X166385647Y-79725300D01*
X166404622Y-79605492D01*
X166405492Y-79600000D01*
X166395275Y-79535491D01*
X166385647Y-79474699D01*
X166385647Y-79474698D01*
X166384824Y-79473082D01*
X166328050Y-79361658D01*
X166328046Y-79361654D01*
X166328045Y-79361652D01*
X166238347Y-79271954D01*
X166238344Y-79271952D01*
X166238342Y-79271950D01*
X166125304Y-79214354D01*
X166125303Y-79214353D01*
X166125300Y-79214352D01*
X166000003Y-79194508D01*
X165999997Y-79194508D01*
X165874699Y-79214352D01*
X165874698Y-79214352D01*
X165799337Y-79252751D01*
X165761658Y-79271950D01*
X165761657Y-79271951D01*
X165761652Y-79271954D01*
X165695496Y-79338111D01*
X165634173Y-79371596D01*
X165601327Y-79374260D01*
X165563939Y-79372301D01*
X165563938Y-79372301D01*
X165563936Y-79372301D01*
X165563934Y-79372301D01*
X165563932Y-79372302D01*
X165544866Y-79379620D01*
X165526221Y-79385143D01*
X165506232Y-79389392D01*
X165504671Y-79390527D01*
X165476235Y-79405965D01*
X165474443Y-79406652D01*
X165474440Y-79406655D01*
X165459995Y-79421099D01*
X165445206Y-79433729D01*
X165428678Y-79445737D01*
X165428674Y-79445742D01*
X165427712Y-79447409D01*
X165408011Y-79473082D01*
X163742914Y-81138181D01*
X163681591Y-81171666D01*
X163655233Y-81174500D01*
X159124000Y-81174500D01*
X159056961Y-81154815D01*
X159011206Y-81102011D01*
X159000000Y-81050500D01*
X159000000Y-76900003D01*
X163994508Y-76900003D01*
X164014352Y-77025300D01*
X164014352Y-77025301D01*
X164032805Y-77061517D01*
X164071950Y-77138342D01*
X164071952Y-77138344D01*
X164071954Y-77138347D01*
X164161652Y-77228045D01*
X164161654Y-77228046D01*
X164161658Y-77228050D01*
X164274696Y-77285646D01*
X164274697Y-77285646D01*
X164274699Y-77285647D01*
X164399997Y-77305492D01*
X164400000Y-77305492D01*
X164400003Y-77305492D01*
X164525300Y-77285647D01*
X164525301Y-77285647D01*
X164525302Y-77285646D01*
X164525304Y-77285646D01*
X164638342Y-77228050D01*
X164728050Y-77138342D01*
X164785306Y-77025970D01*
X164833278Y-76975177D01*
X164901099Y-76958382D01*
X164967234Y-76980919D01*
X164968675Y-76981950D01*
X164973728Y-76985621D01*
X164973732Y-76985625D01*
X165086770Y-77043221D01*
X165086771Y-77043221D01*
X165086773Y-77043222D01*
X165212071Y-77063067D01*
X165212074Y-77063067D01*
X165212077Y-77063067D01*
X165337374Y-77043222D01*
X165337375Y-77043222D01*
X165337376Y-77043221D01*
X165337378Y-77043221D01*
X165450416Y-76985625D01*
X165540124Y-76895917D01*
X165597720Y-76782879D01*
X165597720Y-76782877D01*
X165597721Y-76782876D01*
X165597721Y-76782875D01*
X165617566Y-76657578D01*
X165617566Y-76657571D01*
X165597721Y-76532274D01*
X165597721Y-76532273D01*
X165588590Y-76514352D01*
X165540124Y-76419233D01*
X165540120Y-76419229D01*
X165540119Y-76419227D01*
X165450421Y-76329529D01*
X165450418Y-76329527D01*
X165450416Y-76329525D01*
X165337378Y-76271929D01*
X165337377Y-76271928D01*
X165337374Y-76271927D01*
X165212077Y-76252083D01*
X165212071Y-76252083D01*
X165086773Y-76271927D01*
X165086772Y-76271927D01*
X165011411Y-76310326D01*
X164973732Y-76329525D01*
X164973730Y-76329526D01*
X164973731Y-76329526D01*
X164973726Y-76329529D01*
X164884028Y-76419227D01*
X164884023Y-76419234D01*
X164826768Y-76531602D01*
X164778794Y-76582397D01*
X164710972Y-76599192D01*
X164644838Y-76576654D01*
X164643400Y-76575625D01*
X164638343Y-76571951D01*
X164638342Y-76571950D01*
X164525304Y-76514354D01*
X164525303Y-76514353D01*
X164525300Y-76514352D01*
X164400003Y-76494508D01*
X164399997Y-76494508D01*
X164274699Y-76514352D01*
X164274698Y-76514352D01*
X164199337Y-76552751D01*
X164161658Y-76571950D01*
X164161656Y-76571951D01*
X164161657Y-76571951D01*
X164161652Y-76571954D01*
X164071954Y-76661652D01*
X164071951Y-76661657D01*
X164014352Y-76774698D01*
X164014352Y-76774699D01*
X163994508Y-76899996D01*
X163994508Y-76900003D01*
X159000000Y-76900003D01*
X159000000Y-75000003D01*
X161094508Y-75000003D01*
X161114352Y-75125300D01*
X161114352Y-75125301D01*
X161114354Y-75125304D01*
X161171950Y-75238342D01*
X161171952Y-75238344D01*
X161171954Y-75238347D01*
X161261652Y-75328045D01*
X161261654Y-75328046D01*
X161261658Y-75328050D01*
X161374696Y-75385646D01*
X161374697Y-75385646D01*
X161374699Y-75385647D01*
X161499997Y-75405492D01*
X161500000Y-75405492D01*
X161500003Y-75405492D01*
X161625300Y-75385647D01*
X161625301Y-75385647D01*
X161625302Y-75385646D01*
X161625304Y-75385646D01*
X161738342Y-75328050D01*
X161828050Y-75238342D01*
X161885646Y-75125304D01*
X161885646Y-75125302D01*
X161885647Y-75125301D01*
X161885647Y-75125300D01*
X161893805Y-75073783D01*
X161905492Y-75000000D01*
X161897332Y-74948479D01*
X161885647Y-74874699D01*
X161885647Y-74874698D01*
X161871301Y-74846543D01*
X161828050Y-74761658D01*
X161828046Y-74761654D01*
X161828045Y-74761652D01*
X161738347Y-74671954D01*
X161738344Y-74671952D01*
X161738342Y-74671950D01*
X161625304Y-74614354D01*
X161625303Y-74614353D01*
X161625300Y-74614352D01*
X161500003Y-74594508D01*
X161499997Y-74594508D01*
X161374699Y-74614352D01*
X161374698Y-74614352D01*
X161299337Y-74652751D01*
X161261658Y-74671950D01*
X161261656Y-74671951D01*
X161261657Y-74671951D01*
X161261652Y-74671954D01*
X161171954Y-74761652D01*
X161171951Y-74761657D01*
X161114352Y-74874698D01*
X161114352Y-74874699D01*
X161094508Y-74999996D01*
X161094508Y-75000003D01*
X159000000Y-75000003D01*
X159000000Y-71268267D01*
X159019685Y-71201228D01*
X159072489Y-71155473D01*
X159141647Y-71145529D01*
X159205203Y-71174554D01*
X159211672Y-71180577D01*
X159627485Y-71596390D01*
X161203453Y-73172358D01*
X161236938Y-73233681D01*
X161231954Y-73303373D01*
X161190082Y-73359306D01*
X161135172Y-73382512D01*
X161095140Y-73388853D01*
X161095138Y-73388853D01*
X161095138Y-73388854D01*
X160982100Y-73446450D01*
X160982099Y-73446451D01*
X160982094Y-73446454D01*
X160892396Y-73536152D01*
X160892393Y-73536157D01*
X160834794Y-73649198D01*
X160834794Y-73649199D01*
X160814950Y-73774496D01*
X160814950Y-73774503D01*
X160834794Y-73899800D01*
X160834794Y-73899801D01*
X160834796Y-73899804D01*
X160892392Y-74012842D01*
X160892394Y-74012844D01*
X160892396Y-74012847D01*
X160982094Y-74102545D01*
X160982096Y-74102546D01*
X160982100Y-74102550D01*
X161095138Y-74160146D01*
X161095139Y-74160146D01*
X161095141Y-74160147D01*
X161220439Y-74179992D01*
X161220442Y-74179992D01*
X161220445Y-74179992D01*
X161345742Y-74160147D01*
X161345743Y-74160147D01*
X161345744Y-74160146D01*
X161345746Y-74160146D01*
X161458784Y-74102550D01*
X161548492Y-74012842D01*
X161606088Y-73899804D01*
X161606088Y-73899802D01*
X161606089Y-73899801D01*
X161606089Y-73899800D01*
X161625934Y-73774503D01*
X161625934Y-73774496D01*
X161609209Y-73668897D01*
X161618164Y-73599604D01*
X161663160Y-73546152D01*
X161729912Y-73525513D01*
X161731682Y-73525500D01*
X166291542Y-73525500D01*
X166294786Y-73525584D01*
X166335144Y-73527700D01*
X166354218Y-73520377D01*
X166372869Y-73514853D01*
X166392848Y-73510607D01*
X166394393Y-73509484D01*
X166422847Y-73494034D01*
X166424640Y-73493346D01*
X166439093Y-73478891D01*
X166453876Y-73466266D01*
X166470403Y-73454260D01*
X166471361Y-73452599D01*
X166491065Y-73426919D01*
X167238629Y-72679355D01*
X167299950Y-72645872D01*
X167345708Y-72644566D01*
X167358051Y-72646521D01*
X167358051Y-72646520D01*
X167358052Y-72646521D01*
X167358054Y-72646521D01*
X167483351Y-72626676D01*
X167483352Y-72626676D01*
X167483353Y-72626675D01*
X167483355Y-72626675D01*
X167596393Y-72569079D01*
X167686101Y-72479371D01*
X167743697Y-72366333D01*
X167743697Y-72366331D01*
X167743698Y-72366330D01*
X167743698Y-72366329D01*
X167763543Y-72241032D01*
X167763543Y-72241025D01*
X167743698Y-72115728D01*
X167743698Y-72115727D01*
X167735686Y-72100003D01*
X167686101Y-72002687D01*
X167686097Y-72002683D01*
X167686096Y-72002681D01*
X167596398Y-71912983D01*
X167596395Y-71912981D01*
X167596393Y-71912979D01*
X167516598Y-71872321D01*
X167483352Y-71855381D01*
X167403483Y-71842732D01*
X167340349Y-71812803D01*
X167303417Y-71753492D01*
X167300408Y-71739656D01*
X167284819Y-71641228D01*
X167284819Y-71641227D01*
X167281975Y-71635646D01*
X167227222Y-71528187D01*
X167227218Y-71528183D01*
X167227217Y-71528181D01*
X167137519Y-71438483D01*
X167137515Y-71438480D01*
X167137514Y-71438479D01*
X167135723Y-71437566D01*
X167057677Y-71397799D01*
X167006882Y-71349824D01*
X166990087Y-71282003D01*
X167003488Y-71231021D01*
X167060146Y-71119825D01*
X167060146Y-71119823D01*
X167060147Y-71119821D01*
X167079992Y-70994524D01*
X167079992Y-70994517D01*
X167060147Y-70869220D01*
X167060147Y-70869219D01*
X167039169Y-70828048D01*
X167002550Y-70756179D01*
X167002546Y-70756175D01*
X167002545Y-70756173D01*
X166912847Y-70666475D01*
X166912844Y-70666473D01*
X166912842Y-70666471D01*
X166799804Y-70608875D01*
X166799803Y-70608874D01*
X166799800Y-70608873D01*
X166674503Y-70589029D01*
X166674497Y-70589029D01*
X166549199Y-70608873D01*
X166549198Y-70608873D01*
X166473837Y-70647272D01*
X166436158Y-70666471D01*
X166436157Y-70666472D01*
X166436152Y-70666475D01*
X166346454Y-70756173D01*
X166346451Y-70756178D01*
X166346450Y-70756179D01*
X166327251Y-70793858D01*
X166288852Y-70869219D01*
X166288852Y-70869220D01*
X166269008Y-70994517D01*
X166269008Y-70994524D01*
X166288852Y-71119821D01*
X166288852Y-71119822D01*
X166307018Y-71155473D01*
X166346450Y-71232863D01*
X166346452Y-71232865D01*
X166346454Y-71232868D01*
X166436152Y-71322566D01*
X166436155Y-71322568D01*
X166436158Y-71322571D01*
X166479212Y-71344508D01*
X166515994Y-71363250D01*
X166566789Y-71411224D01*
X166583584Y-71479045D01*
X166570183Y-71530028D01*
X166513525Y-71641224D01*
X166513524Y-71641228D01*
X166493680Y-71766525D01*
X166493680Y-71766532D01*
X166513524Y-71891829D01*
X166513524Y-71891830D01*
X166528871Y-71921950D01*
X166571122Y-72004871D01*
X166571124Y-72004873D01*
X166571126Y-72004876D01*
X166660824Y-72094574D01*
X166660826Y-72094575D01*
X166660830Y-72094579D01*
X166773868Y-72152175D01*
X166839211Y-72162524D01*
X166902344Y-72192452D01*
X166939276Y-72251763D01*
X166938280Y-72321626D01*
X166907494Y-72372678D01*
X166241994Y-73038181D01*
X166180671Y-73071666D01*
X166154313Y-73074500D01*
X161794767Y-73074500D01*
X161727728Y-73054815D01*
X161707086Y-73038181D01*
X160918908Y-72250003D01*
X165344508Y-72250003D01*
X165364352Y-72375300D01*
X165364352Y-72375301D01*
X165364354Y-72375304D01*
X165421950Y-72488342D01*
X165421952Y-72488344D01*
X165421954Y-72488347D01*
X165511652Y-72578045D01*
X165511654Y-72578046D01*
X165511658Y-72578050D01*
X165624696Y-72635646D01*
X165624697Y-72635646D01*
X165624699Y-72635647D01*
X165749997Y-72655492D01*
X165750000Y-72655492D01*
X165750003Y-72655492D01*
X165875300Y-72635647D01*
X165875301Y-72635647D01*
X165875302Y-72635646D01*
X165875304Y-72635646D01*
X165988342Y-72578050D01*
X166078050Y-72488342D01*
X166135646Y-72375304D01*
X166135646Y-72375302D01*
X166135647Y-72375301D01*
X166135647Y-72375300D01*
X166145074Y-72315776D01*
X166155492Y-72250000D01*
X166146377Y-72192452D01*
X166135647Y-72124699D01*
X166135647Y-72124698D01*
X166135646Y-72124696D01*
X166078050Y-72011658D01*
X166078046Y-72011654D01*
X166078045Y-72011652D01*
X165988347Y-71921954D01*
X165988344Y-71921952D01*
X165988342Y-71921950D01*
X165875304Y-71864354D01*
X165875303Y-71864353D01*
X165875300Y-71864352D01*
X165750003Y-71844508D01*
X165749997Y-71844508D01*
X165624699Y-71864352D01*
X165624698Y-71864352D01*
X165549337Y-71902751D01*
X165511658Y-71921950D01*
X165511657Y-71921950D01*
X165511657Y-71921951D01*
X165511652Y-71921954D01*
X165421954Y-72011652D01*
X165421951Y-72011657D01*
X165364352Y-72124698D01*
X165364352Y-72124699D01*
X165344508Y-72249996D01*
X165344508Y-72250003D01*
X160918908Y-72250003D01*
X159918909Y-71250003D01*
X164344508Y-71250003D01*
X164364352Y-71375300D01*
X164364352Y-71375301D01*
X164375816Y-71397799D01*
X164421950Y-71488342D01*
X164421952Y-71488344D01*
X164421954Y-71488347D01*
X164511652Y-71578045D01*
X164511654Y-71578046D01*
X164511658Y-71578050D01*
X164624696Y-71635646D01*
X164624697Y-71635646D01*
X164624699Y-71635647D01*
X164749997Y-71655492D01*
X164750000Y-71655492D01*
X164750003Y-71655492D01*
X164875300Y-71635647D01*
X164875301Y-71635647D01*
X164875302Y-71635646D01*
X164875304Y-71635646D01*
X164988342Y-71578050D01*
X165078050Y-71488342D01*
X165135646Y-71375304D01*
X165135646Y-71375302D01*
X165135647Y-71375301D01*
X165135647Y-71375300D01*
X165144916Y-71316773D01*
X165155492Y-71250000D01*
X165140521Y-71155473D01*
X165135647Y-71124699D01*
X165135646Y-71124696D01*
X165098002Y-71050816D01*
X165090867Y-71036813D01*
X165077971Y-70968147D01*
X165104247Y-70903406D01*
X165161353Y-70863149D01*
X165231158Y-70860156D01*
X165257644Y-70870033D01*
X165260579Y-70871529D01*
X165260580Y-70871529D01*
X165260582Y-70871530D01*
X165385880Y-70891375D01*
X165385883Y-70891375D01*
X165385886Y-70891375D01*
X165511183Y-70871530D01*
X165511184Y-70871530D01*
X165511185Y-70871529D01*
X165511187Y-70871529D01*
X165624225Y-70813933D01*
X165713933Y-70724225D01*
X165771529Y-70611187D01*
X165771529Y-70611185D01*
X165771530Y-70611184D01*
X165771530Y-70611183D01*
X165791375Y-70485886D01*
X165791375Y-70485879D01*
X165771530Y-70360582D01*
X165771530Y-70360581D01*
X165743765Y-70306090D01*
X165713933Y-70247541D01*
X165713929Y-70247537D01*
X165713928Y-70247535D01*
X165624230Y-70157837D01*
X165624227Y-70157835D01*
X165624225Y-70157833D01*
X165511187Y-70100237D01*
X165511186Y-70100236D01*
X165511183Y-70100235D01*
X165385886Y-70080391D01*
X165385880Y-70080391D01*
X165260582Y-70100235D01*
X165260581Y-70100235D01*
X165185220Y-70138634D01*
X165147541Y-70157833D01*
X165147540Y-70157834D01*
X165147535Y-70157837D01*
X165057837Y-70247535D01*
X165057834Y-70247540D01*
X165000235Y-70360581D01*
X165000235Y-70360582D01*
X164980391Y-70485879D01*
X164980391Y-70485886D01*
X165000235Y-70611183D01*
X165000236Y-70611186D01*
X165000237Y-70611187D01*
X165045015Y-70699069D01*
X165057911Y-70767736D01*
X165031635Y-70832476D01*
X164974529Y-70872734D01*
X164904723Y-70875726D01*
X164878241Y-70865850D01*
X164875304Y-70864353D01*
X164875300Y-70864352D01*
X164750003Y-70844508D01*
X164749997Y-70844508D01*
X164624699Y-70864352D01*
X164624698Y-70864352D01*
X164549337Y-70902751D01*
X164511658Y-70921950D01*
X164511657Y-70921950D01*
X164511657Y-70921951D01*
X164511652Y-70921954D01*
X164421954Y-71011652D01*
X164421951Y-71011657D01*
X164421950Y-71011658D01*
X164409131Y-71036816D01*
X164364352Y-71124698D01*
X164364352Y-71124699D01*
X164344508Y-71249996D01*
X164344508Y-71250003D01*
X159918909Y-71250003D01*
X159036319Y-70367413D01*
X159002834Y-70306090D01*
X159000000Y-70279732D01*
X159000000Y-68786466D01*
X159019685Y-68719427D01*
X159072489Y-68673672D01*
X159141647Y-68663728D01*
X159200161Y-68688612D01*
X159230874Y-68712517D01*
X159230875Y-68712517D01*
X159230876Y-68712518D01*
X159237295Y-68715992D01*
X159237344Y-68716016D01*
X159237390Y-68716041D01*
X159243932Y-68719239D01*
X159243933Y-68719239D01*
X159243934Y-68719240D01*
X159258078Y-68723451D01*
X159293045Y-68733862D01*
X159341509Y-68750499D01*
X159341512Y-68750500D01*
X159341515Y-68750500D01*
X159348625Y-68751687D01*
X159348731Y-68751700D01*
X159348855Y-68751720D01*
X159356046Y-68752617D01*
X159407231Y-68750500D01*
X164500789Y-68750500D01*
X164526234Y-68753138D01*
X164535315Y-68755043D01*
X164551005Y-68753087D01*
X164567939Y-68750977D01*
X164575615Y-68750500D01*
X164579035Y-68750500D01*
X164579040Y-68750500D01*
X164582608Y-68749904D01*
X164600539Y-68746913D01*
X164627958Y-68743494D01*
X164651393Y-68740573D01*
X164651402Y-68740568D01*
X164658451Y-68738470D01*
X164665377Y-68736092D01*
X164665381Y-68736092D01*
X164710444Y-68711704D01*
X164756484Y-68689198D01*
X164756487Y-68689194D01*
X164762453Y-68684935D01*
X164768254Y-68680419D01*
X164768258Y-68680418D01*
X164802957Y-68642724D01*
X165658862Y-67786819D01*
X165720186Y-67753334D01*
X165746544Y-67750500D01*
X167653456Y-67750500D01*
X167720495Y-67770185D01*
X167741137Y-67786819D01*
X168313192Y-68358874D01*
X168346677Y-68420197D01*
X168349511Y-68446555D01*
X168349511Y-74203444D01*
X168329826Y-74270483D01*
X168313196Y-74291120D01*
X168236954Y-74367362D01*
X168236955Y-74367362D01*
X168217106Y-74383482D01*
X168209331Y-74388562D01*
X168189143Y-74414498D01*
X168184067Y-74420248D01*
X168181634Y-74422681D01*
X168181623Y-74422694D01*
X168168954Y-74440438D01*
X168137483Y-74480872D01*
X168133975Y-74487353D01*
X168130760Y-74493932D01*
X168116138Y-74543045D01*
X168099498Y-74591516D01*
X168098294Y-74598733D01*
X168097382Y-74606046D01*
X168099500Y-74657230D01*
X168099499Y-81653455D01*
X168079814Y-81720494D01*
X168063180Y-81741136D01*
X166068362Y-83735954D01*
X166032407Y-83757992D01*
X166033391Y-83759923D01*
X165911659Y-83821949D01*
X165911652Y-83821954D01*
X165821954Y-83911652D01*
X165821951Y-83911657D01*
X165764352Y-84024698D01*
X165764352Y-84024699D01*
X165744508Y-84149996D01*
X165744508Y-84150003D01*
X165764352Y-84275300D01*
X165764352Y-84275301D01*
X165764354Y-84275304D01*
X165821950Y-84388342D01*
X165821952Y-84388344D01*
X165821954Y-84388347D01*
X165902548Y-84468941D01*
X165936033Y-84530264D01*
X165931049Y-84599956D01*
X165889177Y-84655889D01*
X165871167Y-84667104D01*
X165861661Y-84671947D01*
X165861652Y-84671954D01*
X165771954Y-84761652D01*
X165771951Y-84761657D01*
X165771950Y-84761658D01*
X165759727Y-84785647D01*
X165714352Y-84874698D01*
X165714352Y-84874699D01*
X165694508Y-84999996D01*
X165694508Y-85000003D01*
X165714352Y-85125300D01*
X165714352Y-85125301D01*
X165714354Y-85125304D01*
X165771950Y-85238342D01*
X165771952Y-85238344D01*
X165771954Y-85238347D01*
X165861652Y-85328045D01*
X165861654Y-85328046D01*
X165861658Y-85328050D01*
X165974696Y-85385646D01*
X165974697Y-85385646D01*
X165974699Y-85385647D01*
X166099997Y-85405492D01*
X166100000Y-85405492D01*
X166100003Y-85405492D01*
X166225300Y-85385647D01*
X166225301Y-85385647D01*
X166225302Y-85385646D01*
X166225304Y-85385646D01*
X166338342Y-85328050D01*
X166428050Y-85238342D01*
X166485646Y-85125304D01*
X166485646Y-85125302D01*
X166485647Y-85125301D01*
X166485647Y-85125300D01*
X166504622Y-85005492D01*
X166505492Y-85000000D01*
X166497332Y-84948479D01*
X166485647Y-84874699D01*
X166485647Y-84874698D01*
X166467125Y-84838347D01*
X166428050Y-84761658D01*
X166428046Y-84761654D01*
X166428045Y-84761652D01*
X166347451Y-84681058D01*
X166313966Y-84619735D01*
X166315377Y-84600003D01*
X168494508Y-84600003D01*
X168514352Y-84725300D01*
X168514352Y-84725301D01*
X168515752Y-84728048D01*
X168571950Y-84838342D01*
X168571952Y-84838344D01*
X168571954Y-84838347D01*
X168661652Y-84928045D01*
X168661654Y-84928046D01*
X168661658Y-84928050D01*
X168774696Y-84985646D01*
X168774697Y-84985646D01*
X168774699Y-84985647D01*
X168899997Y-85005492D01*
X168900000Y-85005492D01*
X168900003Y-85005492D01*
X168934659Y-85000003D01*
X176644508Y-85000003D01*
X176664352Y-85125300D01*
X176664352Y-85125301D01*
X176664354Y-85125304D01*
X176721950Y-85238342D01*
X176721952Y-85238344D01*
X176721954Y-85238347D01*
X176811652Y-85328045D01*
X176811654Y-85328046D01*
X176811658Y-85328050D01*
X176924696Y-85385646D01*
X176924697Y-85385646D01*
X176924699Y-85385647D01*
X177049997Y-85405492D01*
X177050000Y-85405492D01*
X177050003Y-85405492D01*
X177175300Y-85385647D01*
X177175301Y-85385647D01*
X177175302Y-85385646D01*
X177175304Y-85385646D01*
X177288342Y-85328050D01*
X177378050Y-85238342D01*
X177435646Y-85125304D01*
X177435646Y-85125302D01*
X177435647Y-85125301D01*
X177435647Y-85125300D01*
X177454622Y-85005492D01*
X177455492Y-85000000D01*
X177447332Y-84948479D01*
X177435647Y-84874699D01*
X177435647Y-84874698D01*
X177417125Y-84838347D01*
X177378050Y-84761658D01*
X177378046Y-84761654D01*
X177378045Y-84761652D01*
X177288347Y-84671954D01*
X177288344Y-84671952D01*
X177288342Y-84671950D01*
X177175304Y-84614354D01*
X177175303Y-84614353D01*
X177175300Y-84614352D01*
X177050003Y-84594508D01*
X177049997Y-84594508D01*
X176924699Y-84614352D01*
X176924698Y-84614352D01*
X176877607Y-84638347D01*
X176811658Y-84671950D01*
X176811657Y-84671951D01*
X176811652Y-84671954D01*
X176721954Y-84761652D01*
X176721951Y-84761657D01*
X176721950Y-84761658D01*
X176709727Y-84785647D01*
X176664352Y-84874698D01*
X176664352Y-84874699D01*
X176644508Y-84999996D01*
X176644508Y-85000003D01*
X168934659Y-85000003D01*
X169025300Y-84985647D01*
X169025301Y-84985647D01*
X169025302Y-84985646D01*
X169025304Y-84985646D01*
X169138342Y-84928050D01*
X169228050Y-84838342D01*
X169285646Y-84725304D01*
X169285646Y-84725302D01*
X169285647Y-84725301D01*
X169285647Y-84725300D01*
X169302366Y-84619735D01*
X169305492Y-84600000D01*
X169297332Y-84548479D01*
X169285647Y-84474699D01*
X169285647Y-84474698D01*
X169282714Y-84468941D01*
X169247588Y-84400003D01*
X169594508Y-84400003D01*
X169614352Y-84525300D01*
X169614352Y-84525301D01*
X169626959Y-84550043D01*
X169671950Y-84638342D01*
X169671952Y-84638344D01*
X169671954Y-84638347D01*
X169761652Y-84728045D01*
X169761654Y-84728046D01*
X169761658Y-84728050D01*
X169874696Y-84785646D01*
X169874697Y-84785646D01*
X169874699Y-84785647D01*
X169999997Y-84805492D01*
X170000000Y-84805492D01*
X170000003Y-84805492D01*
X170125300Y-84785647D01*
X170125301Y-84785647D01*
X170125302Y-84785646D01*
X170125304Y-84785646D01*
X170238342Y-84728050D01*
X170328050Y-84638342D01*
X170385646Y-84525304D01*
X170385646Y-84525302D01*
X170385647Y-84525301D01*
X170385647Y-84525300D01*
X170404622Y-84405492D01*
X170405492Y-84400000D01*
X170397332Y-84348479D01*
X170385647Y-84274699D01*
X170385647Y-84274698D01*
X170367125Y-84238347D01*
X170328050Y-84161658D01*
X170328046Y-84161654D01*
X170328045Y-84161652D01*
X170238347Y-84071954D01*
X170238344Y-84071952D01*
X170238342Y-84071950D01*
X170125304Y-84014354D01*
X170125303Y-84014353D01*
X170125300Y-84014352D01*
X170034699Y-84000003D01*
X171594508Y-84000003D01*
X171614352Y-84125300D01*
X171614352Y-84125301D01*
X171614354Y-84125304D01*
X171671950Y-84238342D01*
X171671952Y-84238344D01*
X171671954Y-84238347D01*
X171761652Y-84328045D01*
X171761654Y-84328046D01*
X171761658Y-84328050D01*
X171874696Y-84385646D01*
X171874697Y-84385646D01*
X171874699Y-84385647D01*
X171999997Y-84405492D01*
X172000000Y-84405492D01*
X172000003Y-84405492D01*
X172125300Y-84385647D01*
X172125301Y-84385647D01*
X172125302Y-84385646D01*
X172125304Y-84385646D01*
X172238342Y-84328050D01*
X172328050Y-84238342D01*
X172385646Y-84125304D01*
X172385646Y-84125302D01*
X172385647Y-84125301D01*
X172385647Y-84125300D01*
X172401580Y-84024698D01*
X172405492Y-84000000D01*
X172391499Y-83911652D01*
X172385647Y-83874699D01*
X172385647Y-83874698D01*
X172358770Y-83821950D01*
X172328050Y-83761658D01*
X172328046Y-83761654D01*
X172328045Y-83761652D01*
X172238347Y-83671954D01*
X172238344Y-83671952D01*
X172238342Y-83671950D01*
X172125304Y-83614354D01*
X172125303Y-83614353D01*
X172125300Y-83614352D01*
X172000003Y-83594508D01*
X171999997Y-83594508D01*
X171874699Y-83614352D01*
X171874698Y-83614352D01*
X171799337Y-83652751D01*
X171761658Y-83671950D01*
X171761657Y-83671951D01*
X171761652Y-83671954D01*
X171671954Y-83761652D01*
X171671951Y-83761657D01*
X171671950Y-83761658D01*
X171652751Y-83799337D01*
X171614352Y-83874698D01*
X171614352Y-83874699D01*
X171594508Y-83999996D01*
X171594508Y-84000003D01*
X170034699Y-84000003D01*
X170000003Y-83994508D01*
X169999997Y-83994508D01*
X169874699Y-84014352D01*
X169874698Y-84014352D01*
X169799337Y-84052751D01*
X169761658Y-84071950D01*
X169761657Y-84071951D01*
X169761652Y-84071954D01*
X169671954Y-84161652D01*
X169671951Y-84161657D01*
X169614352Y-84274698D01*
X169614352Y-84274699D01*
X169594508Y-84399996D01*
X169594508Y-84400003D01*
X169247588Y-84400003D01*
X169228050Y-84361658D01*
X169228046Y-84361654D01*
X169228045Y-84361652D01*
X169138347Y-84271954D01*
X169138344Y-84271952D01*
X169138342Y-84271950D01*
X169025304Y-84214354D01*
X169025303Y-84214353D01*
X169025300Y-84214352D01*
X168900003Y-84194508D01*
X168899997Y-84194508D01*
X168774699Y-84214352D01*
X168774698Y-84214352D01*
X168727607Y-84238347D01*
X168661658Y-84271950D01*
X168661657Y-84271951D01*
X168661652Y-84271954D01*
X168571954Y-84361652D01*
X168571951Y-84361657D01*
X168571950Y-84361658D01*
X168559727Y-84385647D01*
X168514352Y-84474698D01*
X168514352Y-84474699D01*
X168494508Y-84599996D01*
X168494508Y-84600003D01*
X166315377Y-84600003D01*
X166318950Y-84550043D01*
X166360822Y-84494110D01*
X166378829Y-84482896D01*
X166388342Y-84478050D01*
X166478050Y-84388342D01*
X166516219Y-84313430D01*
X166540078Y-84266607D01*
X166542014Y-84267593D01*
X166564044Y-84231636D01*
X167795677Y-83000003D01*
X174394508Y-83000003D01*
X174414352Y-83125300D01*
X174414352Y-83125301D01*
X174414354Y-83125304D01*
X174471950Y-83238342D01*
X174471952Y-83238344D01*
X174471954Y-83238347D01*
X174561652Y-83328045D01*
X174561654Y-83328046D01*
X174561658Y-83328050D01*
X174674696Y-83385646D01*
X174674697Y-83385646D01*
X174674699Y-83385647D01*
X174799997Y-83405492D01*
X174800000Y-83405492D01*
X174800003Y-83405492D01*
X174925300Y-83385647D01*
X174925301Y-83385647D01*
X174925302Y-83385646D01*
X174925304Y-83385646D01*
X175038342Y-83328050D01*
X175128050Y-83238342D01*
X175185646Y-83125304D01*
X175185646Y-83125302D01*
X175185647Y-83125301D01*
X175185647Y-83125300D01*
X175193805Y-83073783D01*
X175205492Y-83000000D01*
X175197332Y-82948479D01*
X175185647Y-82874699D01*
X175185647Y-82874698D01*
X175185646Y-82874696D01*
X175128050Y-82761658D01*
X175128046Y-82761654D01*
X175128045Y-82761652D01*
X175038347Y-82671954D01*
X175038344Y-82671952D01*
X175038342Y-82671950D01*
X174925304Y-82614354D01*
X174925303Y-82614353D01*
X174925300Y-82614352D01*
X174800003Y-82594508D01*
X174799997Y-82594508D01*
X174674699Y-82614352D01*
X174674698Y-82614352D01*
X174599337Y-82652751D01*
X174561658Y-82671950D01*
X174561656Y-82671951D01*
X174561657Y-82671951D01*
X174561652Y-82671954D01*
X174471954Y-82761652D01*
X174471951Y-82761657D01*
X174414352Y-82874698D01*
X174414352Y-82874699D01*
X174394508Y-82999996D01*
X174394508Y-83000003D01*
X167795677Y-83000003D01*
X168663046Y-82132634D01*
X168682902Y-82116511D01*
X168690669Y-82111437D01*
X168710873Y-82085477D01*
X168715941Y-82079739D01*
X168718375Y-82077307D01*
X168731040Y-82059567D01*
X168739801Y-82048310D01*
X168762517Y-82019126D01*
X168762520Y-82019116D01*
X168766006Y-82012675D01*
X168769235Y-82006070D01*
X168769239Y-82006066D01*
X168783856Y-81956966D01*
X168800500Y-81908488D01*
X168800500Y-81908482D01*
X168801692Y-81901342D01*
X168801701Y-81901272D01*
X168801714Y-81901191D01*
X168802617Y-81893952D01*
X168800500Y-81842770D01*
X168800500Y-81055003D01*
X171709507Y-81055003D01*
X171729352Y-81180300D01*
X171729352Y-81180301D01*
X171729354Y-81180304D01*
X171786950Y-81293342D01*
X171786952Y-81293344D01*
X171786954Y-81293347D01*
X171876652Y-81383045D01*
X171876654Y-81383046D01*
X171876658Y-81383050D01*
X171989696Y-81440646D01*
X171989697Y-81440646D01*
X171989699Y-81440647D01*
X172114997Y-81460492D01*
X172115000Y-81460492D01*
X172115003Y-81460492D01*
X172240300Y-81440647D01*
X172240301Y-81440647D01*
X172240302Y-81440646D01*
X172240304Y-81440646D01*
X172353342Y-81383050D01*
X172443050Y-81293342D01*
X172500646Y-81180304D01*
X172500646Y-81180302D01*
X172500647Y-81180301D01*
X172500647Y-81180300D01*
X172520492Y-81055003D01*
X172520492Y-81054996D01*
X172500647Y-80929699D01*
X172500647Y-80929698D01*
X172500646Y-80929696D01*
X172443050Y-80816658D01*
X172443046Y-80816654D01*
X172443045Y-80816652D01*
X172353347Y-80726954D01*
X172353344Y-80726952D01*
X172353342Y-80726950D01*
X172240304Y-80669354D01*
X172240303Y-80669353D01*
X172240300Y-80669352D01*
X172115003Y-80649508D01*
X172114997Y-80649508D01*
X171989699Y-80669352D01*
X171989698Y-80669352D01*
X171914337Y-80707751D01*
X171876658Y-80726950D01*
X171876657Y-80726950D01*
X171876657Y-80726951D01*
X171876652Y-80726954D01*
X171786954Y-80816652D01*
X171786951Y-80816657D01*
X171729352Y-80929698D01*
X171729352Y-80929699D01*
X171709507Y-81054996D01*
X171709507Y-81055003D01*
X168800500Y-81055003D01*
X168800500Y-80200003D01*
X170694508Y-80200003D01*
X170714352Y-80325300D01*
X170714352Y-80325301D01*
X170714354Y-80325304D01*
X170771950Y-80438342D01*
X170771952Y-80438344D01*
X170771954Y-80438347D01*
X170861652Y-80528045D01*
X170861654Y-80528046D01*
X170861658Y-80528050D01*
X170974696Y-80585646D01*
X170974697Y-80585646D01*
X170974699Y-80585647D01*
X171099997Y-80605492D01*
X171100000Y-80605492D01*
X171100003Y-80605492D01*
X171225300Y-80585647D01*
X171225301Y-80585647D01*
X171225302Y-80585646D01*
X171225304Y-80585646D01*
X171338342Y-80528050D01*
X171428050Y-80438342D01*
X171485646Y-80325304D01*
X171485646Y-80325302D01*
X171485647Y-80325301D01*
X171485647Y-80325300D01*
X171497572Y-80250003D01*
X177244508Y-80250003D01*
X177264352Y-80375300D01*
X177264352Y-80375301D01*
X177264354Y-80375304D01*
X177321950Y-80488342D01*
X177321952Y-80488344D01*
X177321954Y-80488347D01*
X177411652Y-80578045D01*
X177411654Y-80578046D01*
X177411658Y-80578050D01*
X177524696Y-80635646D01*
X177524697Y-80635646D01*
X177524699Y-80635647D01*
X177649997Y-80655492D01*
X177650000Y-80655492D01*
X177650003Y-80655492D01*
X177775300Y-80635647D01*
X177775301Y-80635647D01*
X177775302Y-80635646D01*
X177775304Y-80635646D01*
X177888342Y-80578050D01*
X177978050Y-80488342D01*
X178035646Y-80375304D01*
X178035646Y-80375302D01*
X178035647Y-80375301D01*
X178035647Y-80375300D01*
X178043805Y-80323783D01*
X178055492Y-80250000D01*
X178047332Y-80198479D01*
X178035647Y-80124699D01*
X178035647Y-80124698D01*
X178035646Y-80124696D01*
X177978050Y-80011658D01*
X177978046Y-80011654D01*
X177978045Y-80011652D01*
X177888347Y-79921954D01*
X177888344Y-79921952D01*
X177888342Y-79921950D01*
X177775304Y-79864354D01*
X177775303Y-79864353D01*
X177775300Y-79864352D01*
X177650003Y-79844508D01*
X177649997Y-79844508D01*
X177524699Y-79864352D01*
X177524698Y-79864352D01*
X177460931Y-79896844D01*
X177411658Y-79921950D01*
X177411656Y-79921951D01*
X177411657Y-79921951D01*
X177411652Y-79921954D01*
X177321954Y-80011652D01*
X177321951Y-80011657D01*
X177264352Y-80124698D01*
X177264352Y-80124699D01*
X177244508Y-80249996D01*
X177244508Y-80250003D01*
X171497572Y-80250003D01*
X171497573Y-80249996D01*
X171505492Y-80200000D01*
X171493566Y-80124699D01*
X171485647Y-80074699D01*
X171485647Y-80074698D01*
X171453526Y-80011658D01*
X171428050Y-79961658D01*
X171428046Y-79961654D01*
X171428045Y-79961652D01*
X171338347Y-79871954D01*
X171338344Y-79871952D01*
X171338342Y-79871950D01*
X171225304Y-79814354D01*
X171225303Y-79814353D01*
X171225300Y-79814352D01*
X171100003Y-79794508D01*
X171099997Y-79794508D01*
X170974699Y-79814352D01*
X170974698Y-79814352D01*
X170899337Y-79852751D01*
X170861658Y-79871950D01*
X170861656Y-79871951D01*
X170861657Y-79871951D01*
X170861652Y-79871954D01*
X170771954Y-79961652D01*
X170771951Y-79961657D01*
X170771950Y-79961658D01*
X170759727Y-79985647D01*
X170714352Y-80074698D01*
X170714352Y-80074699D01*
X170694508Y-80199996D01*
X170694508Y-80200003D01*
X168800500Y-80200003D01*
X168800500Y-79648285D01*
X168820185Y-79581246D01*
X168872989Y-79535491D01*
X168942147Y-79525547D01*
X168980795Y-79537801D01*
X169074693Y-79585645D01*
X169074699Y-79585647D01*
X169199997Y-79605492D01*
X169200000Y-79605492D01*
X169200003Y-79605492D01*
X169325300Y-79585647D01*
X169325301Y-79585647D01*
X169325302Y-79585646D01*
X169325304Y-79585646D01*
X169438342Y-79528050D01*
X169528050Y-79438342D01*
X169585646Y-79325304D01*
X169585646Y-79325302D01*
X169585647Y-79325301D01*
X169585647Y-79325300D01*
X169599500Y-79237832D01*
X169605492Y-79200000D01*
X169601454Y-79174503D01*
X173194508Y-79174503D01*
X173214352Y-79299800D01*
X173214352Y-79299801D01*
X173214354Y-79299804D01*
X173271950Y-79412842D01*
X173271952Y-79412844D01*
X173271954Y-79412847D01*
X173361652Y-79502545D01*
X173361654Y-79502546D01*
X173361658Y-79502550D01*
X173474696Y-79560146D01*
X173474697Y-79560146D01*
X173474699Y-79560147D01*
X173599997Y-79579992D01*
X173600000Y-79579992D01*
X173600003Y-79579992D01*
X173725300Y-79560147D01*
X173725301Y-79560147D01*
X173725302Y-79560146D01*
X173725304Y-79560146D01*
X173838342Y-79502550D01*
X173928050Y-79412842D01*
X173985646Y-79299804D01*
X173985646Y-79299802D01*
X173985647Y-79299801D01*
X173985647Y-79299800D01*
X173999180Y-79214352D01*
X174001453Y-79200003D01*
X174344508Y-79200003D01*
X174364352Y-79325300D01*
X174364352Y-79325301D01*
X174382805Y-79361517D01*
X174421950Y-79438342D01*
X174421952Y-79438344D01*
X174421954Y-79438347D01*
X174511652Y-79528045D01*
X174511654Y-79528046D01*
X174511658Y-79528050D01*
X174624696Y-79585646D01*
X174624697Y-79585646D01*
X174624699Y-79585647D01*
X174749997Y-79605492D01*
X174750000Y-79605492D01*
X174750003Y-79605492D01*
X174875300Y-79585647D01*
X174875301Y-79585647D01*
X174875302Y-79585646D01*
X174875304Y-79585646D01*
X174988342Y-79528050D01*
X175078050Y-79438342D01*
X175135646Y-79325304D01*
X175135646Y-79325302D01*
X175135647Y-79325301D01*
X175135647Y-79325300D01*
X175149500Y-79237832D01*
X175155492Y-79200000D01*
X175147332Y-79148479D01*
X175135647Y-79074699D01*
X175135647Y-79074698D01*
X175135646Y-79074696D01*
X175078050Y-78961658D01*
X175078046Y-78961654D01*
X175078045Y-78961652D01*
X174988347Y-78871954D01*
X174988344Y-78871952D01*
X174988342Y-78871950D01*
X174875304Y-78814354D01*
X174875303Y-78814353D01*
X174875300Y-78814352D01*
X174750003Y-78794508D01*
X174749997Y-78794508D01*
X174624699Y-78814352D01*
X174624698Y-78814352D01*
X174561704Y-78846450D01*
X174511658Y-78871950D01*
X174511657Y-78871951D01*
X174511652Y-78871954D01*
X174421954Y-78961652D01*
X174421951Y-78961657D01*
X174364352Y-79074698D01*
X174364352Y-79074699D01*
X174344508Y-79199996D01*
X174344508Y-79200003D01*
X174001453Y-79200003D01*
X174005492Y-79174500D01*
X173997332Y-79122979D01*
X173985647Y-79049199D01*
X173985647Y-79049198D01*
X173985646Y-79049196D01*
X173928050Y-78936158D01*
X173928046Y-78936154D01*
X173928045Y-78936152D01*
X173838347Y-78846454D01*
X173838344Y-78846452D01*
X173838342Y-78846450D01*
X173725304Y-78788854D01*
X173725303Y-78788853D01*
X173725300Y-78788852D01*
X173600003Y-78769008D01*
X173599997Y-78769008D01*
X173474699Y-78788852D01*
X173474698Y-78788852D01*
X173399337Y-78827251D01*
X173361658Y-78846450D01*
X173361656Y-78846451D01*
X173361657Y-78846451D01*
X173361652Y-78846454D01*
X173271954Y-78936152D01*
X173271951Y-78936157D01*
X173214352Y-79049198D01*
X173214352Y-79049199D01*
X173194508Y-79174496D01*
X173194508Y-79174503D01*
X169601454Y-79174503D01*
X169597332Y-79148479D01*
X169585647Y-79074699D01*
X169585647Y-79074698D01*
X169585646Y-79074696D01*
X169528050Y-78961658D01*
X169528046Y-78961654D01*
X169528045Y-78961652D01*
X169438347Y-78871954D01*
X169438344Y-78871952D01*
X169438342Y-78871950D01*
X169325304Y-78814354D01*
X169325303Y-78814353D01*
X169325300Y-78814352D01*
X169200003Y-78794508D01*
X169199997Y-78794508D01*
X169074699Y-78814352D01*
X169074698Y-78814352D01*
X168980795Y-78862199D01*
X168912125Y-78875095D01*
X168847385Y-78848818D01*
X168807128Y-78791712D01*
X168800500Y-78751714D01*
X168800500Y-77500003D01*
X171094508Y-77500003D01*
X171114352Y-77625300D01*
X171114352Y-77625301D01*
X171114354Y-77625304D01*
X171171950Y-77738342D01*
X171171952Y-77738344D01*
X171171954Y-77738347D01*
X171261652Y-77828045D01*
X171261654Y-77828046D01*
X171261658Y-77828050D01*
X171374696Y-77885646D01*
X171374697Y-77885646D01*
X171374699Y-77885647D01*
X171499997Y-77905492D01*
X171500000Y-77905492D01*
X171500003Y-77905492D01*
X171625300Y-77885647D01*
X171625301Y-77885647D01*
X171625302Y-77885646D01*
X171625304Y-77885646D01*
X171738342Y-77828050D01*
X171828050Y-77738342D01*
X171885646Y-77625304D01*
X171885646Y-77625302D01*
X171885647Y-77625301D01*
X171885647Y-77625300D01*
X171893805Y-77573783D01*
X171905492Y-77500000D01*
X171897332Y-77448479D01*
X171885647Y-77374699D01*
X171885647Y-77374698D01*
X171885646Y-77374696D01*
X171828050Y-77261658D01*
X171828046Y-77261654D01*
X171828045Y-77261652D01*
X171738347Y-77171954D01*
X171738344Y-77171952D01*
X171738342Y-77171950D01*
X171625304Y-77114354D01*
X171625303Y-77114353D01*
X171625300Y-77114352D01*
X171500003Y-77094508D01*
X171499997Y-77094508D01*
X171374699Y-77114352D01*
X171374698Y-77114352D01*
X171327607Y-77138347D01*
X171261658Y-77171950D01*
X171261656Y-77171951D01*
X171261657Y-77171951D01*
X171261652Y-77171954D01*
X171171954Y-77261652D01*
X171171951Y-77261657D01*
X171171950Y-77261658D01*
X171159727Y-77285647D01*
X171114352Y-77374698D01*
X171114352Y-77374699D01*
X171094508Y-77499996D01*
X171094508Y-77500003D01*
X168800500Y-77500003D01*
X168800500Y-75949500D01*
X168820185Y-75882461D01*
X168872989Y-75836706D01*
X168924500Y-75825500D01*
X169107746Y-75825500D01*
X169174785Y-75845185D01*
X169195422Y-75861814D01*
X169261658Y-75928050D01*
X169374696Y-75985646D01*
X169374697Y-75985646D01*
X169374699Y-75985647D01*
X169499997Y-76005492D01*
X169500000Y-76005492D01*
X169500003Y-76005492D01*
X169625300Y-75985647D01*
X169625301Y-75985647D01*
X169625302Y-75985646D01*
X169625304Y-75985646D01*
X169738342Y-75928050D01*
X169804574Y-75861817D01*
X169865895Y-75828334D01*
X169892254Y-75825500D01*
X170407746Y-75825500D01*
X170474785Y-75845185D01*
X170495422Y-75861814D01*
X170561658Y-75928050D01*
X170674696Y-75985646D01*
X170674697Y-75985646D01*
X170674699Y-75985647D01*
X170799997Y-76005492D01*
X170800000Y-76005492D01*
X170800003Y-76005492D01*
X170925300Y-75985647D01*
X170925301Y-75985647D01*
X170925302Y-75985646D01*
X170925304Y-75985646D01*
X171038342Y-75928050D01*
X171104574Y-75861817D01*
X171165895Y-75828334D01*
X171192254Y-75825500D01*
X171807746Y-75825500D01*
X171874785Y-75845185D01*
X171895422Y-75861814D01*
X171961658Y-75928050D01*
X172074696Y-75985646D01*
X172074697Y-75985646D01*
X172074699Y-75985647D01*
X172199997Y-76005492D01*
X172200000Y-76005492D01*
X172200003Y-76005492D01*
X172325300Y-75985647D01*
X172325301Y-75985647D01*
X172325302Y-75985646D01*
X172325304Y-75985646D01*
X172438342Y-75928050D01*
X172528050Y-75838342D01*
X172585646Y-75725304D01*
X172585646Y-75725302D01*
X172585647Y-75725301D01*
X172585647Y-75725300D01*
X172593805Y-75673783D01*
X172605492Y-75600000D01*
X172597332Y-75548479D01*
X172585647Y-75474699D01*
X172585647Y-75474698D01*
X172585646Y-75474696D01*
X172528050Y-75361658D01*
X172528046Y-75361654D01*
X172528045Y-75361652D01*
X172438347Y-75271954D01*
X172438344Y-75271952D01*
X172438342Y-75271950D01*
X172325304Y-75214354D01*
X172325303Y-75214353D01*
X172325300Y-75214352D01*
X172200003Y-75194508D01*
X172199997Y-75194508D01*
X172074699Y-75214352D01*
X172074698Y-75214352D01*
X172027607Y-75238347D01*
X171961658Y-75271950D01*
X171961657Y-75271951D01*
X171961656Y-75271951D01*
X171931597Y-75302011D01*
X171895425Y-75338182D01*
X171834105Y-75371666D01*
X171807746Y-75374500D01*
X171192254Y-75374500D01*
X171125215Y-75354815D01*
X171104577Y-75338185D01*
X171038342Y-75271950D01*
X170925304Y-75214354D01*
X170925303Y-75214353D01*
X170925300Y-75214352D01*
X170800003Y-75194508D01*
X170799997Y-75194508D01*
X170674699Y-75214352D01*
X170674698Y-75214352D01*
X170627607Y-75238347D01*
X170561658Y-75271950D01*
X170561657Y-75271951D01*
X170561656Y-75271951D01*
X170531597Y-75302011D01*
X170495425Y-75338182D01*
X170434105Y-75371666D01*
X170407746Y-75374500D01*
X169892254Y-75374500D01*
X169825215Y-75354815D01*
X169804577Y-75338185D01*
X169738342Y-75271950D01*
X169625304Y-75214354D01*
X169625303Y-75214353D01*
X169625300Y-75214352D01*
X169500003Y-75194508D01*
X169499997Y-75194508D01*
X169374699Y-75214352D01*
X169374698Y-75214352D01*
X169327607Y-75238347D01*
X169261658Y-75271950D01*
X169261657Y-75271951D01*
X169261656Y-75271951D01*
X169231597Y-75302011D01*
X169195425Y-75338182D01*
X169134105Y-75371666D01*
X169107746Y-75374500D01*
X168924500Y-75374500D01*
X168857461Y-75354815D01*
X168811706Y-75302011D01*
X168800500Y-75250500D01*
X168800500Y-74846543D01*
X168820185Y-74779504D01*
X168836813Y-74758867D01*
X168913061Y-74682619D01*
X168932913Y-74666500D01*
X168940680Y-74661426D01*
X168960884Y-74635466D01*
X168965952Y-74629728D01*
X168968386Y-74627296D01*
X168981055Y-74609550D01*
X169012528Y-74569115D01*
X169012529Y-74569109D01*
X169016028Y-74562644D01*
X169019246Y-74556061D01*
X169019251Y-74556055D01*
X169033872Y-74506943D01*
X169040413Y-74487892D01*
X169042822Y-74480874D01*
X169050511Y-74458477D01*
X169050511Y-74458473D01*
X169051703Y-74451330D01*
X169051712Y-74451260D01*
X169051725Y-74451179D01*
X169052628Y-74443941D01*
X169050510Y-74392758D01*
X169050510Y-73100003D01*
X173294508Y-73100003D01*
X173314352Y-73225300D01*
X173314352Y-73225301D01*
X173314354Y-73225304D01*
X173371950Y-73338342D01*
X173371952Y-73338344D01*
X173371954Y-73338347D01*
X173461652Y-73428045D01*
X173461654Y-73428046D01*
X173461658Y-73428050D01*
X173574696Y-73485646D01*
X173574697Y-73485646D01*
X173574699Y-73485647D01*
X173699997Y-73505492D01*
X173700000Y-73505492D01*
X173700003Y-73505492D01*
X173825300Y-73485647D01*
X173825301Y-73485647D01*
X173825302Y-73485646D01*
X173825304Y-73485646D01*
X173938342Y-73428050D01*
X174028050Y-73338342D01*
X174085646Y-73225304D01*
X174085646Y-73225302D01*
X174085647Y-73225301D01*
X174085647Y-73225300D01*
X174094032Y-73172358D01*
X174105492Y-73100000D01*
X174095701Y-73038181D01*
X174085647Y-72974699D01*
X174085647Y-72974698D01*
X174085646Y-72974696D01*
X174028050Y-72861658D01*
X174028046Y-72861654D01*
X174028045Y-72861652D01*
X173938347Y-72771954D01*
X173938344Y-72771952D01*
X173938342Y-72771950D01*
X173825304Y-72714354D01*
X173825303Y-72714353D01*
X173825300Y-72714352D01*
X173700003Y-72694508D01*
X173699997Y-72694508D01*
X173574699Y-72714352D01*
X173574698Y-72714352D01*
X173499337Y-72752751D01*
X173461658Y-72771950D01*
X173461657Y-72771951D01*
X173461652Y-72771954D01*
X173371954Y-72861652D01*
X173371951Y-72861657D01*
X173314352Y-72974698D01*
X173314352Y-72974699D01*
X173294508Y-73099996D01*
X173294508Y-73100003D01*
X169050510Y-73100003D01*
X169050510Y-71750003D01*
X170094508Y-71750003D01*
X170114352Y-71875300D01*
X170114352Y-71875301D01*
X170114354Y-71875304D01*
X170171950Y-71988342D01*
X170171952Y-71988344D01*
X170171954Y-71988347D01*
X170261652Y-72078045D01*
X170261654Y-72078046D01*
X170261658Y-72078050D01*
X170374696Y-72135646D01*
X170374697Y-72135646D01*
X170374699Y-72135647D01*
X170499997Y-72155492D01*
X170500000Y-72155492D01*
X170500003Y-72155492D01*
X170625300Y-72135647D01*
X170625301Y-72135647D01*
X170625302Y-72135646D01*
X170625304Y-72135646D01*
X170738342Y-72078050D01*
X170828050Y-71988342D01*
X170885646Y-71875304D01*
X170885646Y-71875302D01*
X170885647Y-71875301D01*
X170885647Y-71875300D01*
X170900325Y-71782623D01*
X170905492Y-71750000D01*
X170896703Y-71694508D01*
X170885647Y-71624699D01*
X170885647Y-71624698D01*
X170871223Y-71596390D01*
X170828050Y-71511658D01*
X170828046Y-71511654D01*
X170828045Y-71511652D01*
X170738347Y-71421954D01*
X170738344Y-71421952D01*
X170738342Y-71421950D01*
X170625304Y-71364354D01*
X170625303Y-71364353D01*
X170625300Y-71364352D01*
X170500003Y-71344508D01*
X170499997Y-71344508D01*
X170374699Y-71364352D01*
X170374698Y-71364352D01*
X170299337Y-71402751D01*
X170261658Y-71421950D01*
X170261657Y-71421950D01*
X170261657Y-71421951D01*
X170261652Y-71421954D01*
X170171954Y-71511652D01*
X170171951Y-71511657D01*
X170171950Y-71511658D01*
X170155460Y-71544021D01*
X170114352Y-71624698D01*
X170114352Y-71624699D01*
X170094508Y-71749996D01*
X170094508Y-71750003D01*
X169050510Y-71750003D01*
X169050510Y-71344508D01*
X169050510Y-71150003D01*
X175294508Y-71150003D01*
X175314352Y-71275300D01*
X175314352Y-71275301D01*
X175328745Y-71303548D01*
X175371950Y-71388342D01*
X175371952Y-71388344D01*
X175371954Y-71388347D01*
X175461652Y-71478045D01*
X175461654Y-71478046D01*
X175461658Y-71478050D01*
X175574696Y-71535646D01*
X175574697Y-71535646D01*
X175574699Y-71535647D01*
X175699997Y-71555492D01*
X175700000Y-71555492D01*
X175700003Y-71555492D01*
X175825300Y-71535647D01*
X175825301Y-71535647D01*
X175825302Y-71535646D01*
X175825304Y-71535646D01*
X175938342Y-71478050D01*
X176028050Y-71388342D01*
X176064516Y-71316771D01*
X176112487Y-71265979D01*
X176180308Y-71249183D01*
X176246443Y-71271720D01*
X176285483Y-71316773D01*
X176299615Y-71344508D01*
X176321949Y-71388341D01*
X176321954Y-71388347D01*
X176411652Y-71478045D01*
X176411655Y-71478047D01*
X176411658Y-71478050D01*
X176413611Y-71479045D01*
X176416653Y-71480595D01*
X176467448Y-71528569D01*
X176484243Y-71596390D01*
X176461705Y-71662525D01*
X176406990Y-71705976D01*
X176379755Y-71713552D01*
X176374699Y-71714352D01*
X176374698Y-71714352D01*
X176325038Y-71739656D01*
X176261658Y-71771950D01*
X176261656Y-71771951D01*
X176261657Y-71771951D01*
X176261652Y-71771954D01*
X176171954Y-71861652D01*
X176171951Y-71861657D01*
X176171950Y-71861658D01*
X176166514Y-71872327D01*
X176114352Y-71974698D01*
X176114352Y-71974699D01*
X176094508Y-72099996D01*
X176094508Y-72100003D01*
X176114352Y-72225300D01*
X176114352Y-72225301D01*
X176132805Y-72261517D01*
X176171950Y-72338342D01*
X176171952Y-72338344D01*
X176171954Y-72338347D01*
X176261652Y-72428045D01*
X176261654Y-72428046D01*
X176261658Y-72428050D01*
X176374696Y-72485646D01*
X176374697Y-72485646D01*
X176374699Y-72485647D01*
X176499997Y-72505492D01*
X176500000Y-72505492D01*
X176500003Y-72505492D01*
X176625300Y-72485647D01*
X176625301Y-72485647D01*
X176625302Y-72485646D01*
X176625304Y-72485646D01*
X176738342Y-72428050D01*
X176828050Y-72338342D01*
X176885646Y-72225304D01*
X176885646Y-72225302D01*
X176885647Y-72225301D01*
X176885647Y-72225300D01*
X176897228Y-72152175D01*
X176903802Y-72110672D01*
X179130777Y-72110672D01*
X179150621Y-72235969D01*
X179150621Y-72235970D01*
X179158668Y-72251763D01*
X179208219Y-72349011D01*
X179208221Y-72349013D01*
X179208223Y-72349016D01*
X179297921Y-72438714D01*
X179297923Y-72438715D01*
X179297927Y-72438719D01*
X179410965Y-72496315D01*
X179410966Y-72496315D01*
X179410968Y-72496316D01*
X179536266Y-72516161D01*
X179536269Y-72516161D01*
X179536272Y-72516161D01*
X179661569Y-72496316D01*
X179661570Y-72496316D01*
X179661571Y-72496315D01*
X179661573Y-72496315D01*
X179774611Y-72438719D01*
X179864319Y-72349011D01*
X179921915Y-72235973D01*
X179921915Y-72235971D01*
X179921916Y-72235970D01*
X179921916Y-72235969D01*
X179941761Y-72110672D01*
X179941761Y-72110665D01*
X179921916Y-71985368D01*
X179921916Y-71985367D01*
X179916479Y-71974696D01*
X179864319Y-71872327D01*
X179864315Y-71872323D01*
X179864314Y-71872321D01*
X179774616Y-71782623D01*
X179774613Y-71782621D01*
X179774611Y-71782619D01*
X179661573Y-71725023D01*
X179661572Y-71725022D01*
X179661569Y-71725021D01*
X179536272Y-71705177D01*
X179536266Y-71705177D01*
X179410968Y-71725021D01*
X179410967Y-71725021D01*
X179335606Y-71763420D01*
X179297927Y-71782619D01*
X179297925Y-71782619D01*
X179297926Y-71782620D01*
X179297921Y-71782623D01*
X179208223Y-71872321D01*
X179208220Y-71872326D01*
X179208219Y-71872327D01*
X179198282Y-71891829D01*
X179150621Y-71985367D01*
X179150621Y-71985368D01*
X179130777Y-72110665D01*
X179130777Y-72110672D01*
X176903802Y-72110672D01*
X176905492Y-72100000D01*
X176890426Y-72004876D01*
X176885647Y-71974699D01*
X176885647Y-71974698D01*
X176858772Y-71921954D01*
X176828050Y-71861658D01*
X176828046Y-71861654D01*
X176828045Y-71861652D01*
X176738347Y-71771954D01*
X176738343Y-71771951D01*
X176738342Y-71771950D01*
X176733342Y-71769402D01*
X176682549Y-71721427D01*
X176665756Y-71653605D01*
X176688296Y-71587471D01*
X176743012Y-71544021D01*
X176770244Y-71536447D01*
X176775304Y-71535646D01*
X176888342Y-71478050D01*
X176978050Y-71388342D01*
X177035646Y-71275304D01*
X177035646Y-71275302D01*
X177035647Y-71275301D01*
X177035647Y-71275300D01*
X177045380Y-71213847D01*
X177055492Y-71150000D01*
X177037123Y-71034021D01*
X177035647Y-71024699D01*
X177035647Y-71024698D01*
X177029000Y-71011652D01*
X177010581Y-70975503D01*
X179783534Y-70975503D01*
X179803378Y-71100800D01*
X179803378Y-71100801D01*
X179815555Y-71124699D01*
X179860976Y-71213842D01*
X179860978Y-71213844D01*
X179860980Y-71213847D01*
X179950678Y-71303545D01*
X179950680Y-71303546D01*
X179950684Y-71303550D01*
X180063722Y-71361146D01*
X180063723Y-71361146D01*
X180063725Y-71361147D01*
X180189023Y-71380992D01*
X180189026Y-71380992D01*
X180189029Y-71380992D01*
X180314326Y-71361147D01*
X180314327Y-71361147D01*
X180314328Y-71361146D01*
X180314330Y-71361146D01*
X180427368Y-71303550D01*
X180517076Y-71213842D01*
X180574672Y-71100804D01*
X180574672Y-71100802D01*
X180574673Y-71100801D01*
X180574673Y-71100800D01*
X180594518Y-70975503D01*
X180594518Y-70975496D01*
X180574673Y-70850199D01*
X180574673Y-70850198D01*
X180560280Y-70821951D01*
X180517076Y-70737158D01*
X180517072Y-70737154D01*
X180517071Y-70737152D01*
X180427373Y-70647454D01*
X180427370Y-70647452D01*
X180427368Y-70647450D01*
X180314330Y-70589854D01*
X180314329Y-70589853D01*
X180314326Y-70589852D01*
X180189029Y-70570008D01*
X180189023Y-70570008D01*
X180063725Y-70589852D01*
X180063724Y-70589852D01*
X179994154Y-70625301D01*
X179950684Y-70647450D01*
X179950683Y-70647451D01*
X179950678Y-70647454D01*
X179860980Y-70737152D01*
X179860977Y-70737157D01*
X179860976Y-70737158D01*
X179847120Y-70764352D01*
X179803378Y-70850198D01*
X179803378Y-70850199D01*
X179783534Y-70975496D01*
X179783534Y-70975503D01*
X177010581Y-70975503D01*
X176978050Y-70911658D01*
X176978046Y-70911654D01*
X176978045Y-70911652D01*
X176888347Y-70821954D01*
X176888344Y-70821952D01*
X176888342Y-70821950D01*
X176775304Y-70764354D01*
X176775303Y-70764353D01*
X176775300Y-70764352D01*
X176650003Y-70744508D01*
X176649997Y-70744508D01*
X176524699Y-70764352D01*
X176524698Y-70764352D01*
X176449337Y-70802751D01*
X176411658Y-70821950D01*
X176411656Y-70821950D01*
X176411657Y-70821951D01*
X176411652Y-70821954D01*
X176321954Y-70911652D01*
X176321951Y-70911657D01*
X176321950Y-70911658D01*
X176285485Y-70983225D01*
X176237510Y-71034021D01*
X176169689Y-71050816D01*
X176103554Y-71028278D01*
X176064515Y-70983225D01*
X176028050Y-70911658D01*
X176028046Y-70911654D01*
X176028045Y-70911652D01*
X175938347Y-70821954D01*
X175938344Y-70821952D01*
X175938342Y-70821950D01*
X175825304Y-70764354D01*
X175825303Y-70764353D01*
X175825300Y-70764352D01*
X175700003Y-70744508D01*
X175699997Y-70744508D01*
X175574699Y-70764352D01*
X175574698Y-70764352D01*
X175499337Y-70802751D01*
X175461658Y-70821950D01*
X175461657Y-70821950D01*
X175461657Y-70821951D01*
X175461652Y-70821954D01*
X175371954Y-70911652D01*
X175371951Y-70911657D01*
X175371950Y-70911658D01*
X175366704Y-70921954D01*
X175314352Y-71024698D01*
X175314352Y-71024699D01*
X175294508Y-71149996D01*
X175294508Y-71150003D01*
X169050510Y-71150003D01*
X169050510Y-70500003D01*
X169794508Y-70500003D01*
X169814352Y-70625300D01*
X169814352Y-70625301D01*
X169825640Y-70647454D01*
X169871950Y-70738342D01*
X169871952Y-70738344D01*
X169871954Y-70738347D01*
X169961652Y-70828045D01*
X169961654Y-70828046D01*
X169961658Y-70828050D01*
X170074696Y-70885646D01*
X170074697Y-70885646D01*
X170074699Y-70885647D01*
X170199997Y-70905492D01*
X170200000Y-70905492D01*
X170200003Y-70905492D01*
X170325300Y-70885647D01*
X170325301Y-70885647D01*
X170325302Y-70885646D01*
X170325304Y-70885646D01*
X170438342Y-70828050D01*
X170528050Y-70738342D01*
X170585646Y-70625304D01*
X170585646Y-70625302D01*
X170585647Y-70625301D01*
X170585647Y-70625300D01*
X170594404Y-70570008D01*
X170605492Y-70500000D01*
X170597332Y-70448479D01*
X170585647Y-70374699D01*
X170585647Y-70374698D01*
X170581935Y-70367413D01*
X170528050Y-70261658D01*
X170528046Y-70261654D01*
X170528045Y-70261652D01*
X170438347Y-70171954D01*
X170438344Y-70171952D01*
X170438342Y-70171950D01*
X170325304Y-70114354D01*
X170325303Y-70114353D01*
X170325300Y-70114352D01*
X170200003Y-70094508D01*
X170199997Y-70094508D01*
X170074699Y-70114352D01*
X170074698Y-70114352D01*
X169999337Y-70152751D01*
X169961658Y-70171950D01*
X169961657Y-70171951D01*
X169961652Y-70171954D01*
X169871954Y-70261652D01*
X169871951Y-70261657D01*
X169814352Y-70374698D01*
X169814352Y-70374699D01*
X169794508Y-70499996D01*
X169794508Y-70500003D01*
X169050510Y-70500003D01*
X169050510Y-69426688D01*
X177296778Y-69426688D01*
X177316622Y-69551985D01*
X177316622Y-69551986D01*
X177316624Y-69551989D01*
X177374220Y-69665027D01*
X177374222Y-69665029D01*
X177374224Y-69665032D01*
X177463922Y-69754730D01*
X177463924Y-69754731D01*
X177463928Y-69754735D01*
X177576966Y-69812331D01*
X177576967Y-69812331D01*
X177576969Y-69812332D01*
X177702267Y-69832177D01*
X177702270Y-69832177D01*
X177702273Y-69832177D01*
X177827570Y-69812332D01*
X177827571Y-69812332D01*
X177827572Y-69812331D01*
X177827574Y-69812331D01*
X177940612Y-69754735D01*
X178030320Y-69665027D01*
X178087916Y-69551989D01*
X178087916Y-69551987D01*
X178087917Y-69551986D01*
X178087917Y-69551985D01*
X178107762Y-69426688D01*
X178107762Y-69426681D01*
X178087917Y-69301384D01*
X178087917Y-69301383D01*
X178079899Y-69285647D01*
X178030320Y-69188343D01*
X178030316Y-69188339D01*
X178030315Y-69188337D01*
X177940617Y-69098639D01*
X177940614Y-69098637D01*
X177940612Y-69098635D01*
X177827574Y-69041039D01*
X177827573Y-69041038D01*
X177827570Y-69041037D01*
X177702273Y-69021193D01*
X177702267Y-69021193D01*
X177576969Y-69041037D01*
X177576968Y-69041037D01*
X177501607Y-69079436D01*
X177463928Y-69098635D01*
X177463927Y-69098636D01*
X177463922Y-69098639D01*
X177374224Y-69188337D01*
X177374221Y-69188342D01*
X177316622Y-69301383D01*
X177316622Y-69301384D01*
X177296778Y-69426681D01*
X177296778Y-69426688D01*
X169050510Y-69426688D01*
X169050510Y-68900003D01*
X179194508Y-68900003D01*
X179214352Y-69025300D01*
X179214352Y-69025301D01*
X179214354Y-69025304D01*
X179271950Y-69138342D01*
X179271952Y-69138344D01*
X179271954Y-69138347D01*
X179361652Y-69228045D01*
X179361654Y-69228046D01*
X179361658Y-69228050D01*
X179474696Y-69285646D01*
X179474697Y-69285646D01*
X179474699Y-69285647D01*
X179599997Y-69305492D01*
X179600000Y-69305492D01*
X179600003Y-69305492D01*
X179725300Y-69285647D01*
X179725301Y-69285647D01*
X179725302Y-69285646D01*
X179725304Y-69285646D01*
X179838342Y-69228050D01*
X179928050Y-69138342D01*
X179985646Y-69025304D01*
X179985646Y-69025302D01*
X179985647Y-69025301D01*
X179985647Y-69025300D01*
X179993805Y-68973783D01*
X180005492Y-68900000D01*
X179997332Y-68848479D01*
X179985647Y-68774699D01*
X179985647Y-68774698D01*
X179975632Y-68755043D01*
X179928050Y-68661658D01*
X179928046Y-68661654D01*
X179928045Y-68661652D01*
X179897451Y-68631058D01*
X179863966Y-68569735D01*
X179868950Y-68500043D01*
X179910822Y-68444110D01*
X179928829Y-68432896D01*
X179938342Y-68428050D01*
X180028050Y-68338342D01*
X180085646Y-68225304D01*
X180085646Y-68225302D01*
X180085647Y-68225301D01*
X180085647Y-68225300D01*
X180100007Y-68134629D01*
X180105492Y-68100000D01*
X180094376Y-68029815D01*
X180085647Y-67974699D01*
X180085647Y-67974698D01*
X180073122Y-67950117D01*
X180028050Y-67861658D01*
X180028046Y-67861654D01*
X180028045Y-67861652D01*
X179938347Y-67771954D01*
X179938344Y-67771952D01*
X179938342Y-67771950D01*
X179825304Y-67714354D01*
X179825303Y-67714353D01*
X179825300Y-67714352D01*
X179700003Y-67694508D01*
X179699997Y-67694508D01*
X179574699Y-67714352D01*
X179574698Y-67714352D01*
X179527607Y-67738347D01*
X179461658Y-67771950D01*
X179461656Y-67771951D01*
X179461657Y-67771951D01*
X179461652Y-67771954D01*
X179371954Y-67861652D01*
X179371951Y-67861657D01*
X179371950Y-67861658D01*
X179352751Y-67899337D01*
X179314352Y-67974698D01*
X179314352Y-67974699D01*
X179294508Y-68099996D01*
X179294508Y-68100003D01*
X179314352Y-68225300D01*
X179314352Y-68225301D01*
X179317806Y-68232079D01*
X179371950Y-68338342D01*
X179371952Y-68338344D01*
X179371954Y-68338347D01*
X179402548Y-68368941D01*
X179436033Y-68430264D01*
X179431049Y-68499956D01*
X179389177Y-68555889D01*
X179371167Y-68567104D01*
X179361661Y-68571947D01*
X179361652Y-68571954D01*
X179271954Y-68661652D01*
X179271951Y-68661657D01*
X179271950Y-68661658D01*
X179260592Y-68683949D01*
X179214352Y-68774698D01*
X179214352Y-68774699D01*
X179194508Y-68899996D01*
X179194508Y-68900003D01*
X169050510Y-68900003D01*
X169050510Y-68299207D01*
X169053148Y-68273777D01*
X169055053Y-68264696D01*
X169053202Y-68249850D01*
X169050988Y-68232079D01*
X169050511Y-68224402D01*
X169050511Y-68220974D01*
X169050509Y-68220961D01*
X169046921Y-68199460D01*
X169040584Y-68148618D01*
X169040583Y-68148615D01*
X169038529Y-68141715D01*
X169038486Y-68141590D01*
X169038448Y-68141464D01*
X169036103Y-68134629D01*
X169011715Y-68089566D01*
X168989210Y-68043529D01*
X168984930Y-68037535D01*
X168980430Y-68031754D01*
X168942735Y-67997052D01*
X168132637Y-67186955D01*
X168116511Y-67167098D01*
X168111437Y-67159331D01*
X168085487Y-67139133D01*
X168079741Y-67134059D01*
X168077307Y-67131625D01*
X168077306Y-67131624D01*
X168077305Y-67131623D01*
X168070848Y-67127013D01*
X168059561Y-67118955D01*
X168019126Y-67087483D01*
X168019122Y-67087481D01*
X168012648Y-67083977D01*
X168006069Y-67080760D01*
X167956954Y-67066138D01*
X167908486Y-67049498D01*
X167901269Y-67048294D01*
X167893953Y-67047382D01*
X167844725Y-67049419D01*
X167842769Y-67049500D01*
X165599212Y-67049500D01*
X165573766Y-67046861D01*
X165564686Y-67044957D01*
X165564685Y-67044957D01*
X165564683Y-67044957D01*
X165532062Y-67049023D01*
X165524386Y-67049500D01*
X165520960Y-67049500D01*
X165504832Y-67052191D01*
X165499455Y-67053088D01*
X165448606Y-67059427D01*
X165441560Y-67061524D01*
X165434618Y-67063908D01*
X165389546Y-67088300D01*
X165343514Y-67110803D01*
X165337529Y-67115075D01*
X165331746Y-67119577D01*
X165297031Y-67157287D01*
X164441137Y-68013181D01*
X164379814Y-68046666D01*
X164353456Y-68049500D01*
X164065175Y-68049500D01*
X163998136Y-68029815D01*
X163952381Y-67977011D01*
X163942437Y-67907853D01*
X163971462Y-67844297D01*
X163981539Y-67835048D01*
X163981442Y-67834951D01*
X164078045Y-67738347D01*
X164078050Y-67738342D01*
X164135646Y-67625304D01*
X164135646Y-67625302D01*
X164135647Y-67625301D01*
X164135647Y-67625300D01*
X164146646Y-67555850D01*
X164155492Y-67500000D01*
X164140574Y-67405808D01*
X164135647Y-67374699D01*
X164135647Y-67374698D01*
X164135646Y-67374696D01*
X164078050Y-67261658D01*
X164078046Y-67261654D01*
X164078045Y-67261652D01*
X163988347Y-67171954D01*
X163988344Y-67171952D01*
X163988342Y-67171950D01*
X163875304Y-67114354D01*
X163875303Y-67114353D01*
X163875300Y-67114352D01*
X163750003Y-67094508D01*
X163749997Y-67094508D01*
X163624699Y-67114352D01*
X163624698Y-67114352D01*
X163549337Y-67152751D01*
X163511658Y-67171950D01*
X163511657Y-67171951D01*
X163511652Y-67171954D01*
X163421954Y-67261652D01*
X163421951Y-67261657D01*
X163364352Y-67374698D01*
X163364352Y-67374699D01*
X163344508Y-67499996D01*
X163344508Y-67500003D01*
X163364352Y-67625300D01*
X163364352Y-67625301D01*
X163364354Y-67625304D01*
X163421950Y-67738342D01*
X163421952Y-67738344D01*
X163421954Y-67738347D01*
X163518558Y-67834951D01*
X163516685Y-67836823D01*
X163550373Y-67880504D01*
X163556357Y-67950117D01*
X163523755Y-68011915D01*
X163462918Y-68046276D01*
X163434825Y-68049500D01*
X159596544Y-68049500D01*
X159529505Y-68029815D01*
X159508863Y-68013181D01*
X159112855Y-67617173D01*
X159079370Y-67555850D01*
X159084354Y-67486158D01*
X159126226Y-67430225D01*
X159191690Y-67405808D01*
X159199848Y-67405516D01*
X159325300Y-67385647D01*
X159325301Y-67385647D01*
X159325302Y-67385646D01*
X159325304Y-67385646D01*
X159438342Y-67328050D01*
X159528050Y-67238342D01*
X159585646Y-67125304D01*
X159585646Y-67125302D01*
X159585647Y-67125301D01*
X159585647Y-67125300D01*
X159605492Y-67000003D01*
X159605492Y-66999996D01*
X159585647Y-66874699D01*
X159585647Y-66874698D01*
X159580449Y-66864497D01*
X159528050Y-66761658D01*
X159528046Y-66761654D01*
X159528045Y-66761652D01*
X159438347Y-66671954D01*
X159438344Y-66671952D01*
X159438342Y-66671950D01*
X159356678Y-66630340D01*
X159325301Y-66614352D01*
X159247598Y-66602046D01*
X159184463Y-66572117D01*
X159147532Y-66512805D01*
X159142996Y-66479573D01*
X159142996Y-66471996D01*
X159123151Y-66346699D01*
X159123151Y-66346698D01*
X159113647Y-66328045D01*
X159065554Y-66233658D01*
X159065550Y-66233654D01*
X159065549Y-66233652D01*
X159036319Y-66204422D01*
X159002834Y-66143099D01*
X159000000Y-66116741D01*
X159000000Y-64118267D01*
X159019685Y-64051228D01*
X159072489Y-64005473D01*
X159141647Y-63995529D01*
X159205203Y-64024554D01*
X159211669Y-64030575D01*
X160775603Y-65594508D01*
X162061670Y-66880575D01*
X162095155Y-66941898D01*
X162096463Y-66987647D01*
X162094508Y-66999994D01*
X162094508Y-67000003D01*
X162114352Y-67125300D01*
X162114352Y-67125301D01*
X162121405Y-67139143D01*
X162171950Y-67238342D01*
X162171952Y-67238344D01*
X162171954Y-67238347D01*
X162261652Y-67328045D01*
X162261654Y-67328046D01*
X162261658Y-67328050D01*
X162374696Y-67385646D01*
X162374697Y-67385646D01*
X162374699Y-67385647D01*
X162499997Y-67405492D01*
X162500000Y-67405492D01*
X162500003Y-67405492D01*
X162625300Y-67385647D01*
X162625301Y-67385647D01*
X162625302Y-67385646D01*
X162625304Y-67385646D01*
X162738342Y-67328050D01*
X162828050Y-67238342D01*
X162885646Y-67125304D01*
X162885646Y-67125302D01*
X162885647Y-67125301D01*
X162885647Y-67125300D01*
X162897652Y-67049498D01*
X162905492Y-67000000D01*
X162893653Y-66925251D01*
X162885647Y-66874699D01*
X162885647Y-66874698D01*
X162880449Y-66864497D01*
X162828050Y-66761658D01*
X162828046Y-66761654D01*
X162828045Y-66761652D01*
X162816396Y-66750003D01*
X173844508Y-66750003D01*
X173864352Y-66875300D01*
X173864352Y-66875301D01*
X173882805Y-66911517D01*
X173921950Y-66988342D01*
X173921952Y-66988344D01*
X173921954Y-66988347D01*
X174011652Y-67078045D01*
X174011654Y-67078046D01*
X174011658Y-67078050D01*
X174124696Y-67135646D01*
X174124697Y-67135646D01*
X174124699Y-67135647D01*
X174249997Y-67155492D01*
X174250000Y-67155492D01*
X174250003Y-67155492D01*
X174375300Y-67135647D01*
X174375301Y-67135647D01*
X174375302Y-67135646D01*
X174375304Y-67135646D01*
X174488342Y-67078050D01*
X174578050Y-66988342D01*
X174635646Y-66875304D01*
X174635646Y-66875302D01*
X174635647Y-66875301D01*
X174635647Y-66875300D01*
X174647565Y-66800050D01*
X174655492Y-66750000D01*
X174643131Y-66671954D01*
X174635647Y-66624699D01*
X174635647Y-66624698D01*
X174621689Y-66597304D01*
X174578050Y-66511658D01*
X174578046Y-66511654D01*
X174578045Y-66511652D01*
X174488347Y-66421954D01*
X174488344Y-66421952D01*
X174488342Y-66421950D01*
X174375304Y-66364354D01*
X174375303Y-66364353D01*
X174375300Y-66364352D01*
X174250003Y-66344508D01*
X174249997Y-66344508D01*
X174124699Y-66364352D01*
X174124698Y-66364352D01*
X174049337Y-66402751D01*
X174011658Y-66421950D01*
X174011656Y-66421950D01*
X174011657Y-66421951D01*
X174011652Y-66421954D01*
X173921954Y-66511652D01*
X173921951Y-66511657D01*
X173921950Y-66511658D01*
X173921366Y-66512805D01*
X173864352Y-66624698D01*
X173864352Y-66624699D01*
X173844508Y-66749996D01*
X173844508Y-66750003D01*
X162816396Y-66750003D01*
X162738347Y-66671954D01*
X162738344Y-66671952D01*
X162738342Y-66671950D01*
X162625304Y-66614354D01*
X162625303Y-66614353D01*
X162625300Y-66614352D01*
X162500003Y-66594508D01*
X162499995Y-66594508D01*
X162487647Y-66596463D01*
X162418354Y-66587505D01*
X162380575Y-66561670D01*
X161818908Y-66000003D01*
X165594508Y-66000003D01*
X165614352Y-66125300D01*
X165614352Y-66125301D01*
X165632805Y-66161517D01*
X165671950Y-66238342D01*
X165671952Y-66238344D01*
X165671954Y-66238347D01*
X165761652Y-66328045D01*
X165761654Y-66328046D01*
X165761658Y-66328050D01*
X165874696Y-66385646D01*
X165874697Y-66385646D01*
X165874699Y-66385647D01*
X165999997Y-66405492D01*
X166000000Y-66405492D01*
X166000003Y-66405492D01*
X166125300Y-66385647D01*
X166125301Y-66385647D01*
X166125302Y-66385646D01*
X166125304Y-66385646D01*
X166238342Y-66328050D01*
X166328050Y-66238342D01*
X166385646Y-66125304D01*
X166385646Y-66125302D01*
X166385647Y-66125301D01*
X166385647Y-66125300D01*
X166394958Y-66066508D01*
X166405492Y-66000000D01*
X166397332Y-65948479D01*
X166385647Y-65874699D01*
X166385647Y-65874698D01*
X166385646Y-65874696D01*
X166328050Y-65761658D01*
X166328046Y-65761654D01*
X166328045Y-65761652D01*
X166238347Y-65671954D01*
X166238344Y-65671952D01*
X166238342Y-65671950D01*
X166125304Y-65614354D01*
X166125303Y-65614353D01*
X166125300Y-65614352D01*
X166000003Y-65594508D01*
X165999997Y-65594508D01*
X165874699Y-65614352D01*
X165874698Y-65614352D01*
X165799337Y-65652751D01*
X165761658Y-65671950D01*
X165761657Y-65671951D01*
X165761652Y-65671954D01*
X165671954Y-65761652D01*
X165671951Y-65761657D01*
X165614352Y-65874698D01*
X165614352Y-65874699D01*
X165594508Y-65999996D01*
X165594508Y-66000003D01*
X161818908Y-66000003D01*
X160218909Y-64400003D01*
X166194508Y-64400003D01*
X166214352Y-64525300D01*
X166214352Y-64525301D01*
X166214354Y-64525304D01*
X166271950Y-64638342D01*
X166271952Y-64638344D01*
X166271954Y-64638347D01*
X166361652Y-64728045D01*
X166361654Y-64728046D01*
X166361658Y-64728050D01*
X166474696Y-64785646D01*
X166474697Y-64785646D01*
X166474699Y-64785647D01*
X166599997Y-64805492D01*
X166600000Y-64805492D01*
X166600003Y-64805492D01*
X166725300Y-64785647D01*
X166725301Y-64785647D01*
X166725302Y-64785646D01*
X166725304Y-64785646D01*
X166838342Y-64728050D01*
X166928050Y-64638342D01*
X166947585Y-64600003D01*
X179494508Y-64600003D01*
X179514352Y-64725300D01*
X179514352Y-64725301D01*
X179515752Y-64728048D01*
X179571950Y-64838342D01*
X179571952Y-64838344D01*
X179571954Y-64838347D01*
X179661652Y-64928045D01*
X179661654Y-64928046D01*
X179661658Y-64928050D01*
X179774696Y-64985646D01*
X179774697Y-64985646D01*
X179774699Y-64985647D01*
X179899997Y-65005492D01*
X179900000Y-65005492D01*
X179900003Y-65005492D01*
X180025300Y-64985647D01*
X180025301Y-64985647D01*
X180025302Y-64985646D01*
X180025304Y-64985646D01*
X180138342Y-64928050D01*
X180228050Y-64838342D01*
X180285646Y-64725304D01*
X180285646Y-64725302D01*
X180285647Y-64725301D01*
X180285647Y-64725300D01*
X180299419Y-64638342D01*
X180305492Y-64600000D01*
X180297332Y-64548479D01*
X180285647Y-64474699D01*
X180285647Y-64474698D01*
X180285646Y-64474696D01*
X180228050Y-64361658D01*
X180228046Y-64361654D01*
X180228045Y-64361652D01*
X180138347Y-64271954D01*
X180138344Y-64271952D01*
X180138342Y-64271950D01*
X180025304Y-64214354D01*
X180025303Y-64214353D01*
X180025300Y-64214352D01*
X179900003Y-64194508D01*
X179899997Y-64194508D01*
X179774699Y-64214352D01*
X179774698Y-64214352D01*
X179699337Y-64252751D01*
X179661658Y-64271950D01*
X179661656Y-64271951D01*
X179661657Y-64271951D01*
X179661652Y-64271954D01*
X179571954Y-64361652D01*
X179571951Y-64361657D01*
X179514352Y-64474698D01*
X179514352Y-64474699D01*
X179494508Y-64599996D01*
X179494508Y-64600003D01*
X166947585Y-64600003D01*
X166985646Y-64525304D01*
X166985646Y-64525302D01*
X166985647Y-64525301D01*
X166985647Y-64525300D01*
X166993805Y-64473783D01*
X167005492Y-64400000D01*
X166997332Y-64348479D01*
X166985647Y-64274699D01*
X166985647Y-64274698D01*
X166984247Y-64271950D01*
X166928050Y-64161658D01*
X166928046Y-64161654D01*
X166928045Y-64161652D01*
X166838347Y-64071954D01*
X166838344Y-64071952D01*
X166838342Y-64071950D01*
X166725304Y-64014354D01*
X166725303Y-64014353D01*
X166725300Y-64014352D01*
X166600003Y-63994508D01*
X166599997Y-63994508D01*
X166474699Y-64014352D01*
X166474698Y-64014352D01*
X166402327Y-64051228D01*
X166361658Y-64071950D01*
X166361656Y-64071951D01*
X166361657Y-64071951D01*
X166361652Y-64071954D01*
X166271954Y-64161652D01*
X166271951Y-64161657D01*
X166214352Y-64274698D01*
X166214352Y-64274699D01*
X166194508Y-64399996D01*
X166194508Y-64400003D01*
X160218909Y-64400003D01*
X159099747Y-63280841D01*
X159066262Y-63219518D01*
X159071246Y-63149826D01*
X159113118Y-63093893D01*
X159131124Y-63082680D01*
X159238342Y-63028050D01*
X159328050Y-62938342D01*
X159385646Y-62825304D01*
X159385646Y-62825302D01*
X159385647Y-62825301D01*
X159385647Y-62825300D01*
X159405492Y-62700003D01*
X159405492Y-62699996D01*
X159385647Y-62574699D01*
X159385647Y-62574698D01*
X159382823Y-62569156D01*
X159328050Y-62461658D01*
X159328046Y-62461654D01*
X159328045Y-62461652D01*
X159238347Y-62371954D01*
X159238344Y-62371952D01*
X159238342Y-62371950D01*
X159125304Y-62314354D01*
X159125302Y-62314353D01*
X159125301Y-62314353D01*
X159104600Y-62311074D01*
X159041466Y-62281144D01*
X159004536Y-62221832D01*
X159000000Y-62188601D01*
X159000000Y-61400003D01*
X160094508Y-61400003D01*
X160114352Y-61525300D01*
X160114352Y-61525301D01*
X160114354Y-61525304D01*
X160171950Y-61638342D01*
X160171952Y-61638344D01*
X160171954Y-61638347D01*
X160261652Y-61728045D01*
X160261654Y-61728046D01*
X160261658Y-61728050D01*
X160374696Y-61785646D01*
X160374697Y-61785646D01*
X160374699Y-61785647D01*
X160499997Y-61805492D01*
X160500000Y-61805492D01*
X160500003Y-61805492D01*
X160625300Y-61785647D01*
X160625301Y-61785647D01*
X160625302Y-61785646D01*
X160625304Y-61785646D01*
X160738342Y-61728050D01*
X160828050Y-61638342D01*
X160885646Y-61525304D01*
X160885646Y-61525302D01*
X160885647Y-61525301D01*
X160885647Y-61525300D01*
X160905492Y-61400003D01*
X160905492Y-61399996D01*
X160885647Y-61274699D01*
X160885647Y-61274698D01*
X160881570Y-61266696D01*
X160828050Y-61161658D01*
X160828046Y-61161654D01*
X160828045Y-61161652D01*
X160738347Y-61071954D01*
X160738344Y-61071952D01*
X160738342Y-61071950D01*
X160625304Y-61014354D01*
X160625303Y-61014353D01*
X160625300Y-61014352D01*
X160500003Y-60994508D01*
X160499997Y-60994508D01*
X160374699Y-61014352D01*
X160374698Y-61014352D01*
X160299337Y-61052751D01*
X160261658Y-61071950D01*
X160261657Y-61071951D01*
X160261652Y-61071954D01*
X160171954Y-61161652D01*
X160171951Y-61161657D01*
X160114352Y-61274698D01*
X160114352Y-61274699D01*
X160094508Y-61399996D01*
X160094508Y-61400003D01*
X159000000Y-61400003D01*
X159000000Y-57674500D01*
X159019685Y-57607461D01*
X159072489Y-57561706D01*
X159124000Y-57550500D01*
X160184825Y-57550500D01*
X160251864Y-57570185D01*
G37*
G04 #@! TD.AperFunction*
M02*
