G04 #@! TF.GenerationSoftware,KiCad,Pcbnew,5.1.10-88a1d61d58~90~ubuntu20.04.1*
G04 #@! TF.CreationDate,2021-08-06T09:09:21+02:00*
G04 #@! TF.ProjectId,PSLab,50534c61-622e-46b6-9963-61645f706362,v6.1*
G04 #@! TF.SameCoordinates,Original*
G04 #@! TF.FileFunction,Soldermask,Bot*
G04 #@! TF.FilePolarity,Negative*
%FSLAX46Y46*%
G04 Gerber Fmt 4.6, Leading zero omitted, Abs format (unit mm)*
G04 Created by KiCad (PCBNEW 5.1.10-88a1d61d58~90~ubuntu20.04.1) date 2021-08-06 09:09:21*
%MOMM*%
%LPD*%
G01*
G04 APERTURE LIST*
%ADD10C,0.010000*%
%ADD11O,1.700000X1.700000*%
%ADD12R,1.700000X1.700000*%
%ADD13R,1.000000X1.000000*%
%ADD14R,1.727200X1.727200*%
%ADD15O,1.727200X1.727200*%
%ADD16O,2.100000X1.000000*%
%ADD17O,2.000000X1.000000*%
%ADD18C,0.650000*%
%ADD19C,5.600000*%
%ADD20O,1.700000X2.000000*%
%ADD21C,0.914400*%
G04 APERTURE END LIST*
D10*
G36*
X186558300Y-61552334D02*
G01*
X186560906Y-61611600D01*
X186561499Y-61646312D01*
X186560472Y-61678328D01*
X186558311Y-61698889D01*
X186545140Y-61730978D01*
X186519994Y-61762696D01*
X186487305Y-61789473D01*
X186454807Y-61805669D01*
X186421611Y-61813085D01*
X186379306Y-61817249D01*
X186334759Y-61817975D01*
X186294835Y-61815078D01*
X186272669Y-61810603D01*
X186232132Y-61792554D01*
X186197587Y-61766333D01*
X186178364Y-61742446D01*
X186167871Y-61715128D01*
X186160399Y-61677347D01*
X186156666Y-61635420D01*
X186156714Y-61632767D01*
X186232334Y-61632767D01*
X186232334Y-61656691D01*
X186240075Y-61684249D01*
X186261348Y-61706748D01*
X186293229Y-61723117D01*
X186332793Y-61732283D01*
X186377115Y-61733176D01*
X186420332Y-61725561D01*
X186450735Y-61710765D01*
X186473903Y-61687572D01*
X186485657Y-61660592D01*
X186486334Y-61652792D01*
X186486334Y-61632767D01*
X186232334Y-61632767D01*
X186156714Y-61632767D01*
X186157393Y-61595659D01*
X186159685Y-61578388D01*
X186165426Y-61547790D01*
X186558300Y-61552334D01*
G37*
X186558300Y-61552334D02*
X186560906Y-61611600D01*
X186561499Y-61646312D01*
X186560472Y-61678328D01*
X186558311Y-61698889D01*
X186545140Y-61730978D01*
X186519994Y-61762696D01*
X186487305Y-61789473D01*
X186454807Y-61805669D01*
X186421611Y-61813085D01*
X186379306Y-61817249D01*
X186334759Y-61817975D01*
X186294835Y-61815078D01*
X186272669Y-61810603D01*
X186232132Y-61792554D01*
X186197587Y-61766333D01*
X186178364Y-61742446D01*
X186167871Y-61715128D01*
X186160399Y-61677347D01*
X186156666Y-61635420D01*
X186156714Y-61632767D01*
X186232334Y-61632767D01*
X186232334Y-61656691D01*
X186240075Y-61684249D01*
X186261348Y-61706748D01*
X186293229Y-61723117D01*
X186332793Y-61732283D01*
X186377115Y-61733176D01*
X186420332Y-61725561D01*
X186450735Y-61710765D01*
X186473903Y-61687572D01*
X186485657Y-61660592D01*
X186486334Y-61652792D01*
X186486334Y-61632767D01*
X186232334Y-61632767D01*
X186156714Y-61632767D01*
X186157393Y-61595659D01*
X186159685Y-61578388D01*
X186165426Y-61547790D01*
X186558300Y-61552334D01*
G36*
X186451756Y-61856415D02*
G01*
X186493800Y-61869669D01*
X186526245Y-61894893D01*
X186545238Y-61921799D01*
X186557607Y-61955672D01*
X186564188Y-61999439D01*
X186564482Y-62046911D01*
X186558711Y-62088792D01*
X186553707Y-62106619D01*
X186545839Y-62113818D01*
X186529497Y-62113506D01*
X186517522Y-62111687D01*
X186495307Y-62107636D01*
X186481642Y-62104203D01*
X186480014Y-62103403D01*
X186480103Y-62094314D01*
X186483394Y-62074272D01*
X186486141Y-62061193D01*
X186490413Y-62032163D01*
X186490658Y-62006018D01*
X186489551Y-61998686D01*
X186481063Y-61978179D01*
X186467234Y-61957474D01*
X186452370Y-61942167D01*
X186442524Y-61937567D01*
X186439772Y-61945475D01*
X186437530Y-61966973D01*
X186436038Y-61998718D01*
X186435534Y-62034934D01*
X186435534Y-62132300D01*
X186395317Y-62131632D01*
X186364808Y-62129278D01*
X186336876Y-62124191D01*
X186329700Y-62122060D01*
X186290454Y-62100456D01*
X186264034Y-62067939D01*
X186250814Y-62025069D01*
X186249267Y-62001215D01*
X186249783Y-61997259D01*
X186319659Y-61997259D01*
X186320886Y-62003610D01*
X186332646Y-62028237D01*
X186351437Y-62044229D01*
X186365185Y-62047634D01*
X186371694Y-62041998D01*
X186375245Y-62023682D01*
X186376267Y-61992600D01*
X186375069Y-61959738D01*
X186370559Y-61942530D01*
X186361367Y-61939809D01*
X186346120Y-61950408D01*
X186336971Y-61959160D01*
X186322103Y-61978451D01*
X186319659Y-61997259D01*
X186249783Y-61997259D01*
X186255810Y-61951060D01*
X186275931Y-61910352D01*
X186304732Y-61881630D01*
X186325093Y-61868113D01*
X186346017Y-61860126D01*
X186373679Y-61855857D01*
X186398137Y-61854220D01*
X186451756Y-61856415D01*
G37*
X186451756Y-61856415D02*
X186493800Y-61869669D01*
X186526245Y-61894893D01*
X186545238Y-61921799D01*
X186557607Y-61955672D01*
X186564188Y-61999439D01*
X186564482Y-62046911D01*
X186558711Y-62088792D01*
X186553707Y-62106619D01*
X186545839Y-62113818D01*
X186529497Y-62113506D01*
X186517522Y-62111687D01*
X186495307Y-62107636D01*
X186481642Y-62104203D01*
X186480014Y-62103403D01*
X186480103Y-62094314D01*
X186483394Y-62074272D01*
X186486141Y-62061193D01*
X186490413Y-62032163D01*
X186490658Y-62006018D01*
X186489551Y-61998686D01*
X186481063Y-61978179D01*
X186467234Y-61957474D01*
X186452370Y-61942167D01*
X186442524Y-61937567D01*
X186439772Y-61945475D01*
X186437530Y-61966973D01*
X186436038Y-61998718D01*
X186435534Y-62034934D01*
X186435534Y-62132300D01*
X186395317Y-62131632D01*
X186364808Y-62129278D01*
X186336876Y-62124191D01*
X186329700Y-62122060D01*
X186290454Y-62100456D01*
X186264034Y-62067939D01*
X186250814Y-62025069D01*
X186249267Y-62001215D01*
X186249783Y-61997259D01*
X186319659Y-61997259D01*
X186320886Y-62003610D01*
X186332646Y-62028237D01*
X186351437Y-62044229D01*
X186365185Y-62047634D01*
X186371694Y-62041998D01*
X186375245Y-62023682D01*
X186376267Y-61992600D01*
X186375069Y-61959738D01*
X186370559Y-61942530D01*
X186361367Y-61939809D01*
X186346120Y-61950408D01*
X186336971Y-61959160D01*
X186322103Y-61978451D01*
X186319659Y-61997259D01*
X186249783Y-61997259D01*
X186255810Y-61951060D01*
X186275931Y-61910352D01*
X186304732Y-61881630D01*
X186325093Y-61868113D01*
X186346017Y-61860126D01*
X186373679Y-61855857D01*
X186398137Y-61854220D01*
X186451756Y-61856415D01*
G36*
X187587000Y-61844434D02*
G01*
X187369365Y-61844434D01*
X187363851Y-61916167D01*
X187352932Y-61990757D01*
X187332641Y-62051394D01*
X187302851Y-62098309D01*
X187263437Y-62131734D01*
X187239867Y-62143549D01*
X187199330Y-62154821D01*
X187150318Y-62160654D01*
X187100601Y-62160388D01*
X187076068Y-62157454D01*
X187023861Y-62141591D01*
X186981807Y-62113458D01*
X186949714Y-62072682D01*
X186927386Y-62018888D01*
X186914631Y-61951703D01*
X186911306Y-61871950D01*
X187035436Y-61871950D01*
X187036038Y-61923463D01*
X187043801Y-61961517D01*
X187059747Y-61988430D01*
X187084893Y-62006523D01*
X187096727Y-62011445D01*
X187133620Y-62017622D01*
X187173572Y-62013539D01*
X187200211Y-62003867D01*
X187218018Y-61985699D01*
X187231323Y-61954756D01*
X187238765Y-61914900D01*
X187239867Y-61891272D01*
X187239867Y-61844434D01*
X187036667Y-61844434D01*
X187035436Y-61871950D01*
X186911306Y-61871950D01*
X186911256Y-61870751D01*
X186912203Y-61840200D01*
X186914529Y-61799195D01*
X186917303Y-61763462D01*
X186920172Y-61736936D01*
X186922687Y-61723784D01*
X186925105Y-61720023D01*
X186930223Y-61716956D01*
X186939624Y-61714511D01*
X186954889Y-61712620D01*
X186977602Y-61711212D01*
X187009345Y-61710217D01*
X187051701Y-61709565D01*
X187106252Y-61709186D01*
X187174581Y-61709010D01*
X187257706Y-61708967D01*
X187587000Y-61708967D01*
X187587000Y-61844434D01*
G37*
X187587000Y-61844434D02*
X187369365Y-61844434D01*
X187363851Y-61916167D01*
X187352932Y-61990757D01*
X187332641Y-62051394D01*
X187302851Y-62098309D01*
X187263437Y-62131734D01*
X187239867Y-62143549D01*
X187199330Y-62154821D01*
X187150318Y-62160654D01*
X187100601Y-62160388D01*
X187076068Y-62157454D01*
X187023861Y-62141591D01*
X186981807Y-62113458D01*
X186949714Y-62072682D01*
X186927386Y-62018888D01*
X186914631Y-61951703D01*
X186911306Y-61871950D01*
X187035436Y-61871950D01*
X187036038Y-61923463D01*
X187043801Y-61961517D01*
X187059747Y-61988430D01*
X187084893Y-62006523D01*
X187096727Y-62011445D01*
X187133620Y-62017622D01*
X187173572Y-62013539D01*
X187200211Y-62003867D01*
X187218018Y-61985699D01*
X187231323Y-61954756D01*
X187238765Y-61914900D01*
X187239867Y-61891272D01*
X187239867Y-61844434D01*
X187036667Y-61844434D01*
X187035436Y-61871950D01*
X186911306Y-61871950D01*
X186911256Y-61870751D01*
X186912203Y-61840200D01*
X186914529Y-61799195D01*
X186917303Y-61763462D01*
X186920172Y-61736936D01*
X186922687Y-61723784D01*
X186925105Y-61720023D01*
X186930223Y-61716956D01*
X186939624Y-61714511D01*
X186954889Y-61712620D01*
X186977602Y-61711212D01*
X187009345Y-61710217D01*
X187051701Y-61709565D01*
X187106252Y-61709186D01*
X187174581Y-61709010D01*
X187257706Y-61708967D01*
X187587000Y-61708967D01*
X187587000Y-61844434D01*
G36*
X186542931Y-62187949D02*
G01*
X186550384Y-62201934D01*
X186554274Y-62213362D01*
X186561278Y-62246418D01*
X186564185Y-62286416D01*
X186563106Y-62327222D01*
X186558151Y-62362701D01*
X186551208Y-62383642D01*
X186532462Y-62411853D01*
X186509313Y-62427544D01*
X186479729Y-62434538D01*
X186453350Y-62435029D01*
X186432940Y-62425999D01*
X186424127Y-62418960D01*
X186409472Y-62401059D01*
X186392871Y-62373103D01*
X186377859Y-62341060D01*
X186377523Y-62340231D01*
X186362085Y-62304943D01*
X186349809Y-62284913D01*
X186339452Y-62279048D01*
X186329771Y-62286255D01*
X186325002Y-62294035D01*
X186319657Y-62310511D01*
X186320266Y-62332608D01*
X186325183Y-62358706D01*
X186330109Y-62384599D01*
X186332005Y-62403079D01*
X186331154Y-62408836D01*
X186320744Y-62412596D01*
X186300177Y-62416631D01*
X186293547Y-62417593D01*
X186271943Y-62419511D01*
X186261372Y-62415254D01*
X186256172Y-62401473D01*
X186254748Y-62394656D01*
X186250034Y-62355246D01*
X186249898Y-62312593D01*
X186254046Y-62273542D01*
X186261072Y-62247435D01*
X186282404Y-62214811D01*
X186313183Y-62196236D01*
X186344935Y-62191567D01*
X186379514Y-62199532D01*
X186408348Y-62223386D01*
X186431373Y-62263064D01*
X186439422Y-62284823D01*
X186449782Y-62312703D01*
X186460458Y-62335082D01*
X186466471Y-62343967D01*
X186479042Y-62351140D01*
X186488039Y-62344349D01*
X186493060Y-62326263D01*
X186493706Y-62299552D01*
X186489574Y-62266885D01*
X186482411Y-62237758D01*
X186475744Y-62213966D01*
X186472227Y-62198082D01*
X186472145Y-62194466D01*
X186481018Y-62191939D01*
X186500674Y-62188171D01*
X186508972Y-62186793D01*
X186531194Y-62184115D01*
X186542931Y-62187949D01*
G37*
X186542931Y-62187949D02*
X186550384Y-62201934D01*
X186554274Y-62213362D01*
X186561278Y-62246418D01*
X186564185Y-62286416D01*
X186563106Y-62327222D01*
X186558151Y-62362701D01*
X186551208Y-62383642D01*
X186532462Y-62411853D01*
X186509313Y-62427544D01*
X186479729Y-62434538D01*
X186453350Y-62435029D01*
X186432940Y-62425999D01*
X186424127Y-62418960D01*
X186409472Y-62401059D01*
X186392871Y-62373103D01*
X186377859Y-62341060D01*
X186377523Y-62340231D01*
X186362085Y-62304943D01*
X186349809Y-62284913D01*
X186339452Y-62279048D01*
X186329771Y-62286255D01*
X186325002Y-62294035D01*
X186319657Y-62310511D01*
X186320266Y-62332608D01*
X186325183Y-62358706D01*
X186330109Y-62384599D01*
X186332005Y-62403079D01*
X186331154Y-62408836D01*
X186320744Y-62412596D01*
X186300177Y-62416631D01*
X186293547Y-62417593D01*
X186271943Y-62419511D01*
X186261372Y-62415254D01*
X186256172Y-62401473D01*
X186254748Y-62394656D01*
X186250034Y-62355246D01*
X186249898Y-62312593D01*
X186254046Y-62273542D01*
X186261072Y-62247435D01*
X186282404Y-62214811D01*
X186313183Y-62196236D01*
X186344935Y-62191567D01*
X186379514Y-62199532D01*
X186408348Y-62223386D01*
X186431373Y-62263064D01*
X186439422Y-62284823D01*
X186449782Y-62312703D01*
X186460458Y-62335082D01*
X186466471Y-62343967D01*
X186479042Y-62351140D01*
X186488039Y-62344349D01*
X186493060Y-62326263D01*
X186493706Y-62299552D01*
X186489574Y-62266885D01*
X186482411Y-62237758D01*
X186475744Y-62213966D01*
X186472227Y-62198082D01*
X186472145Y-62194466D01*
X186481018Y-62191939D01*
X186500674Y-62188171D01*
X186508972Y-62186793D01*
X186531194Y-62184115D01*
X186542931Y-62187949D01*
G36*
X186183064Y-62548650D02*
G01*
X186205532Y-62560288D01*
X186220485Y-62580968D01*
X186223867Y-62599132D01*
X186216817Y-62626911D01*
X186198420Y-62645352D01*
X186172806Y-62651990D01*
X186146265Y-62645476D01*
X186130766Y-62629438D01*
X186123381Y-62605084D01*
X186125035Y-62579430D01*
X186135123Y-62560920D01*
X186157966Y-62548160D01*
X186183064Y-62548650D01*
G37*
X186183064Y-62548650D02*
X186205532Y-62560288D01*
X186220485Y-62580968D01*
X186223867Y-62599132D01*
X186216817Y-62626911D01*
X186198420Y-62645352D01*
X186172806Y-62651990D01*
X186146265Y-62645476D01*
X186130766Y-62629438D01*
X186123381Y-62605084D01*
X186125035Y-62579430D01*
X186135123Y-62560920D01*
X186157966Y-62548160D01*
X186183064Y-62548650D01*
G36*
X187486913Y-62240166D02*
G01*
X187529178Y-62259130D01*
X187561525Y-62291041D01*
X187584086Y-62336150D01*
X187596991Y-62394705D01*
X187600371Y-62466956D01*
X187595629Y-62541484D01*
X187591375Y-62579570D01*
X187587077Y-62613217D01*
X187583382Y-62637553D01*
X187581843Y-62645200D01*
X187576698Y-62665700D01*
X187397699Y-62665134D01*
X187325361Y-62664432D01*
X187268531Y-62662782D01*
X187225802Y-62660107D01*
X187195772Y-62656327D01*
X187181675Y-62653019D01*
X187139116Y-62633604D01*
X187107054Y-62604465D01*
X187084823Y-62564320D01*
X187071757Y-62511889D01*
X187067188Y-62445889D01*
X187067213Y-62432867D01*
X187068591Y-62392238D01*
X187071524Y-62353971D01*
X187075498Y-62323883D01*
X187077734Y-62313660D01*
X187087342Y-62279120D01*
X187140321Y-62287380D01*
X187168069Y-62291905D01*
X187188066Y-62295543D01*
X187195555Y-62297363D01*
X187195471Y-62305915D01*
X187193218Y-62327017D01*
X187189256Y-62356494D01*
X187188214Y-62363602D01*
X187184226Y-62399612D01*
X187182802Y-62433383D01*
X187184221Y-62457919D01*
X187184399Y-62458928D01*
X187195891Y-62488406D01*
X187215971Y-62512882D01*
X187240185Y-62527780D01*
X187253803Y-62530234D01*
X187263348Y-62529449D01*
X187269228Y-62524894D01*
X187272334Y-62513267D01*
X187273554Y-62491268D01*
X187273750Y-62460881D01*
X187371531Y-62460881D01*
X187371937Y-62492293D01*
X187372675Y-62498484D01*
X187377498Y-62530234D01*
X187487251Y-62530234D01*
X187483998Y-62465815D01*
X187481549Y-62431409D01*
X187477592Y-62409417D01*
X187470835Y-62395317D01*
X187460968Y-62385381D01*
X187433890Y-62371055D01*
X187409692Y-62372744D01*
X187390102Y-62389569D01*
X187376845Y-62420653D01*
X187374985Y-62429135D01*
X187371531Y-62460881D01*
X187273750Y-62460881D01*
X187273781Y-62456150D01*
X187275963Y-62397666D01*
X187283001Y-62351962D01*
X187295759Y-62315363D01*
X187313781Y-62285918D01*
X187345900Y-62255890D01*
X187387746Y-62238748D01*
X187434600Y-62233900D01*
X187486913Y-62240166D01*
G37*
X187486913Y-62240166D02*
X187529178Y-62259130D01*
X187561525Y-62291041D01*
X187584086Y-62336150D01*
X187596991Y-62394705D01*
X187600371Y-62466956D01*
X187595629Y-62541484D01*
X187591375Y-62579570D01*
X187587077Y-62613217D01*
X187583382Y-62637553D01*
X187581843Y-62645200D01*
X187576698Y-62665700D01*
X187397699Y-62665134D01*
X187325361Y-62664432D01*
X187268531Y-62662782D01*
X187225802Y-62660107D01*
X187195772Y-62656327D01*
X187181675Y-62653019D01*
X187139116Y-62633604D01*
X187107054Y-62604465D01*
X187084823Y-62564320D01*
X187071757Y-62511889D01*
X187067188Y-62445889D01*
X187067213Y-62432867D01*
X187068591Y-62392238D01*
X187071524Y-62353971D01*
X187075498Y-62323883D01*
X187077734Y-62313660D01*
X187087342Y-62279120D01*
X187140321Y-62287380D01*
X187168069Y-62291905D01*
X187188066Y-62295543D01*
X187195555Y-62297363D01*
X187195471Y-62305915D01*
X187193218Y-62327017D01*
X187189256Y-62356494D01*
X187188214Y-62363602D01*
X187184226Y-62399612D01*
X187182802Y-62433383D01*
X187184221Y-62457919D01*
X187184399Y-62458928D01*
X187195891Y-62488406D01*
X187215971Y-62512882D01*
X187240185Y-62527780D01*
X187253803Y-62530234D01*
X187263348Y-62529449D01*
X187269228Y-62524894D01*
X187272334Y-62513267D01*
X187273554Y-62491268D01*
X187273750Y-62460881D01*
X187371531Y-62460881D01*
X187371937Y-62492293D01*
X187372675Y-62498484D01*
X187377498Y-62530234D01*
X187487251Y-62530234D01*
X187483998Y-62465815D01*
X187481549Y-62431409D01*
X187477592Y-62409417D01*
X187470835Y-62395317D01*
X187460968Y-62385381D01*
X187433890Y-62371055D01*
X187409692Y-62372744D01*
X187390102Y-62389569D01*
X187376845Y-62420653D01*
X187374985Y-62429135D01*
X187371531Y-62460881D01*
X187273750Y-62460881D01*
X187273781Y-62456150D01*
X187275963Y-62397666D01*
X187283001Y-62351962D01*
X187295759Y-62315363D01*
X187313781Y-62285918D01*
X187345900Y-62255890D01*
X187387746Y-62238748D01*
X187434600Y-62233900D01*
X187486913Y-62240166D01*
G36*
X186325467Y-62572567D02*
G01*
X186404637Y-62572567D01*
X186461438Y-62574521D01*
X186503591Y-62581268D01*
X186533020Y-62594136D01*
X186551652Y-62614453D01*
X186561412Y-62643547D01*
X186564227Y-62682602D01*
X186561724Y-62723874D01*
X186553267Y-62750398D01*
X186537433Y-62763744D01*
X186512798Y-62765479D01*
X186492678Y-62761463D01*
X186484426Y-62757145D01*
X186481564Y-62747514D01*
X186484033Y-62728954D01*
X186491641Y-62698342D01*
X186489168Y-62681744D01*
X186481783Y-62670826D01*
X186472747Y-62664903D01*
X186457695Y-62660921D01*
X186433696Y-62658543D01*
X186397818Y-62657434D01*
X186362962Y-62657234D01*
X186257734Y-62657234D01*
X186257734Y-62487900D01*
X186325467Y-62487900D01*
X186325467Y-62572567D01*
G37*
X186325467Y-62572567D02*
X186404637Y-62572567D01*
X186461438Y-62574521D01*
X186503591Y-62581268D01*
X186533020Y-62594136D01*
X186551652Y-62614453D01*
X186561412Y-62643547D01*
X186564227Y-62682602D01*
X186561724Y-62723874D01*
X186553267Y-62750398D01*
X186537433Y-62763744D01*
X186512798Y-62765479D01*
X186492678Y-62761463D01*
X186484426Y-62757145D01*
X186481564Y-62747514D01*
X186484033Y-62728954D01*
X186491641Y-62698342D01*
X186489168Y-62681744D01*
X186481783Y-62670826D01*
X186472747Y-62664903D01*
X186457695Y-62660921D01*
X186433696Y-62658543D01*
X186397818Y-62657434D01*
X186362962Y-62657234D01*
X186257734Y-62657234D01*
X186257734Y-62487900D01*
X186325467Y-62487900D01*
X186325467Y-62572567D01*
G36*
X186453480Y-62809797D02*
G01*
X186487079Y-62822719D01*
X186515440Y-62846454D01*
X186531841Y-62881821D01*
X186536009Y-62928199D01*
X186535743Y-62933396D01*
X186534708Y-62959746D01*
X186536769Y-62973369D01*
X186543294Y-62978384D01*
X186550913Y-62978978D01*
X186572885Y-62971728D01*
X186586675Y-62951408D01*
X186591634Y-62920115D01*
X186587112Y-62879947D01*
X186584727Y-62869924D01*
X186579285Y-62845060D01*
X186577419Y-62827887D01*
X186578531Y-62823216D01*
X186589578Y-62819936D01*
X186610139Y-62815579D01*
X186614547Y-62814765D01*
X186635355Y-62812329D01*
X186646270Y-62817407D01*
X186653845Y-62833472D01*
X186654764Y-62836083D01*
X186661844Y-62869423D01*
X186664151Y-62910281D01*
X186661900Y-62952006D01*
X186655307Y-62987948D01*
X186649304Y-63004079D01*
X186637488Y-63024323D01*
X186623519Y-63039813D01*
X186605024Y-63051243D01*
X186579633Y-63059308D01*
X186544974Y-63064704D01*
X186498675Y-63068126D01*
X186438366Y-63070269D01*
X186422245Y-63070655D01*
X186360406Y-63071630D01*
X186314485Y-63071372D01*
X186283510Y-63069846D01*
X186266508Y-63067014D01*
X186262599Y-63064656D01*
X186257984Y-63049134D01*
X186254181Y-63022001D01*
X186251523Y-62988572D01*
X186250507Y-62958942D01*
X186317000Y-62958942D01*
X186317813Y-62968691D01*
X186322497Y-62974619D01*
X186334423Y-62977674D01*
X186356961Y-62978806D01*
X186388061Y-62978967D01*
X186424478Y-62978337D01*
X186447230Y-62976069D01*
X186459551Y-62971594D01*
X186464261Y-62965574D01*
X186469380Y-62935796D01*
X186459667Y-62913502D01*
X186435817Y-62899427D01*
X186398528Y-62894308D01*
X186396736Y-62894300D01*
X186368570Y-62895616D01*
X186350940Y-62901068D01*
X186337553Y-62912915D01*
X186334548Y-62916609D01*
X186322145Y-62938269D01*
X186317000Y-62958942D01*
X186250507Y-62958942D01*
X186250342Y-62954163D01*
X186250973Y-62924089D01*
X186252778Y-62907872D01*
X186262314Y-62881508D01*
X186278800Y-62854412D01*
X186283723Y-62848356D01*
X186316505Y-62822990D01*
X186358748Y-62807727D01*
X186405918Y-62803139D01*
X186453480Y-62809797D01*
G37*
X186453480Y-62809797D02*
X186487079Y-62822719D01*
X186515440Y-62846454D01*
X186531841Y-62881821D01*
X186536009Y-62928199D01*
X186535743Y-62933396D01*
X186534708Y-62959746D01*
X186536769Y-62973369D01*
X186543294Y-62978384D01*
X186550913Y-62978978D01*
X186572885Y-62971728D01*
X186586675Y-62951408D01*
X186591634Y-62920115D01*
X186587112Y-62879947D01*
X186584727Y-62869924D01*
X186579285Y-62845060D01*
X186577419Y-62827887D01*
X186578531Y-62823216D01*
X186589578Y-62819936D01*
X186610139Y-62815579D01*
X186614547Y-62814765D01*
X186635355Y-62812329D01*
X186646270Y-62817407D01*
X186653845Y-62833472D01*
X186654764Y-62836083D01*
X186661844Y-62869423D01*
X186664151Y-62910281D01*
X186661900Y-62952006D01*
X186655307Y-62987948D01*
X186649304Y-63004079D01*
X186637488Y-63024323D01*
X186623519Y-63039813D01*
X186605024Y-63051243D01*
X186579633Y-63059308D01*
X186544974Y-63064704D01*
X186498675Y-63068126D01*
X186438366Y-63070269D01*
X186422245Y-63070655D01*
X186360406Y-63071630D01*
X186314485Y-63071372D01*
X186283510Y-63069846D01*
X186266508Y-63067014D01*
X186262599Y-63064656D01*
X186257984Y-63049134D01*
X186254181Y-63022001D01*
X186251523Y-62988572D01*
X186250507Y-62958942D01*
X186317000Y-62958942D01*
X186317813Y-62968691D01*
X186322497Y-62974619D01*
X186334423Y-62977674D01*
X186356961Y-62978806D01*
X186388061Y-62978967D01*
X186424478Y-62978337D01*
X186447230Y-62976069D01*
X186459551Y-62971594D01*
X186464261Y-62965574D01*
X186469380Y-62935796D01*
X186459667Y-62913502D01*
X186435817Y-62899427D01*
X186398528Y-62894308D01*
X186396736Y-62894300D01*
X186368570Y-62895616D01*
X186350940Y-62901068D01*
X186337553Y-62912915D01*
X186334548Y-62916609D01*
X186322145Y-62938269D01*
X186317000Y-62958942D01*
X186250507Y-62958942D01*
X186250342Y-62954163D01*
X186250973Y-62924089D01*
X186252778Y-62907872D01*
X186262314Y-62881508D01*
X186278800Y-62854412D01*
X186283723Y-62848356D01*
X186316505Y-62822990D01*
X186358748Y-62807727D01*
X186405918Y-62803139D01*
X186453480Y-62809797D01*
G36*
X187388404Y-62755168D02*
G01*
X187447627Y-62769183D01*
X187474765Y-62779913D01*
X187523483Y-62808446D01*
X187559232Y-62844510D01*
X187583002Y-62889867D01*
X187595786Y-62946277D01*
X187598768Y-63000134D01*
X187597409Y-63043543D01*
X187593821Y-63088987D01*
X187588727Y-63127782D01*
X187587688Y-63133484D01*
X187576616Y-63190634D01*
X187204471Y-63190634D01*
X187115321Y-63190601D01*
X187041656Y-63190467D01*
X186982031Y-63190170D01*
X186934997Y-63189655D01*
X186899108Y-63188862D01*
X186872916Y-63187732D01*
X186854974Y-63186209D01*
X186843835Y-63184232D01*
X186838051Y-63181745D01*
X186836176Y-63178689D01*
X186836511Y-63175817D01*
X186840270Y-63158486D01*
X186844688Y-63132757D01*
X186846167Y-63122900D01*
X186849892Y-63096041D01*
X186853895Y-63077385D01*
X186860971Y-63065448D01*
X186873913Y-63058743D01*
X186895514Y-63055785D01*
X186928567Y-63055088D01*
X186973528Y-63055167D01*
X187087048Y-63055167D01*
X187077948Y-63031884D01*
X187069342Y-62993182D01*
X187069001Y-62970044D01*
X187190845Y-62970044D01*
X187192977Y-63009780D01*
X187198362Y-63028503D01*
X187207657Y-63055167D01*
X187476934Y-63055167D01*
X187476934Y-63009250D01*
X187470405Y-62966094D01*
X187450701Y-62933177D01*
X187417641Y-62910366D01*
X187371048Y-62897528D01*
X187322901Y-62894347D01*
X187270024Y-62899466D01*
X187229981Y-62914227D01*
X187203384Y-62937973D01*
X187190845Y-62970044D01*
X187069001Y-62970044D01*
X187068662Y-62947082D01*
X187075435Y-62900887D01*
X187088938Y-62862384D01*
X187117141Y-62824959D01*
X187158043Y-62794498D01*
X187208631Y-62771644D01*
X187265895Y-62757043D01*
X187326823Y-62751336D01*
X187388404Y-62755168D01*
G37*
X187388404Y-62755168D02*
X187447627Y-62769183D01*
X187474765Y-62779913D01*
X187523483Y-62808446D01*
X187559232Y-62844510D01*
X187583002Y-62889867D01*
X187595786Y-62946277D01*
X187598768Y-63000134D01*
X187597409Y-63043543D01*
X187593821Y-63088987D01*
X187588727Y-63127782D01*
X187587688Y-63133484D01*
X187576616Y-63190634D01*
X187204471Y-63190634D01*
X187115321Y-63190601D01*
X187041656Y-63190467D01*
X186982031Y-63190170D01*
X186934997Y-63189655D01*
X186899108Y-63188862D01*
X186872916Y-63187732D01*
X186854974Y-63186209D01*
X186843835Y-63184232D01*
X186838051Y-63181745D01*
X186836176Y-63178689D01*
X186836511Y-63175817D01*
X186840270Y-63158486D01*
X186844688Y-63132757D01*
X186846167Y-63122900D01*
X186849892Y-63096041D01*
X186853895Y-63077385D01*
X186860971Y-63065448D01*
X186873913Y-63058743D01*
X186895514Y-63055785D01*
X186928567Y-63055088D01*
X186973528Y-63055167D01*
X187087048Y-63055167D01*
X187077948Y-63031884D01*
X187069342Y-62993182D01*
X187069001Y-62970044D01*
X187190845Y-62970044D01*
X187192977Y-63009780D01*
X187198362Y-63028503D01*
X187207657Y-63055167D01*
X187476934Y-63055167D01*
X187476934Y-63009250D01*
X187470405Y-62966094D01*
X187450701Y-62933177D01*
X187417641Y-62910366D01*
X187371048Y-62897528D01*
X187322901Y-62894347D01*
X187270024Y-62899466D01*
X187229981Y-62914227D01*
X187203384Y-62937973D01*
X187190845Y-62970044D01*
X187069001Y-62970044D01*
X187068662Y-62947082D01*
X187075435Y-62900887D01*
X187088938Y-62862384D01*
X187117141Y-62824959D01*
X187158043Y-62794498D01*
X187208631Y-62771644D01*
X187265895Y-62757043D01*
X187326823Y-62751336D01*
X187388404Y-62755168D01*
G36*
X186562534Y-63224500D02*
G01*
X186325467Y-63224500D01*
X186325467Y-63253836D01*
X186329914Y-63279375D01*
X186341844Y-63291936D01*
X186356460Y-63295367D01*
X186384009Y-63298169D01*
X186420494Y-63300045D01*
X186460377Y-63300700D01*
X186562534Y-63300700D01*
X186562534Y-63385367D01*
X186446117Y-63384830D01*
X186402080Y-63384138D01*
X186363064Y-63382620D01*
X186332748Y-63380483D01*
X186314810Y-63377934D01*
X186312767Y-63377289D01*
X186295503Y-63366356D01*
X186276241Y-63349155D01*
X186274667Y-63347489D01*
X186264551Y-63335154D01*
X186258286Y-63321868D01*
X186254963Y-63303323D01*
X186253676Y-63275216D01*
X186253500Y-63247080D01*
X186254141Y-63210952D01*
X186255855Y-63180134D01*
X186258328Y-63159384D01*
X186259584Y-63154650D01*
X186263255Y-63149277D01*
X186270783Y-63145373D01*
X186284565Y-63142709D01*
X186306993Y-63141056D01*
X186340464Y-63140182D01*
X186387371Y-63139860D01*
X186414101Y-63139834D01*
X186562534Y-63139834D01*
X186562534Y-63224500D01*
G37*
X186562534Y-63224500D02*
X186325467Y-63224500D01*
X186325467Y-63253836D01*
X186329914Y-63279375D01*
X186341844Y-63291936D01*
X186356460Y-63295367D01*
X186384009Y-63298169D01*
X186420494Y-63300045D01*
X186460377Y-63300700D01*
X186562534Y-63300700D01*
X186562534Y-63385367D01*
X186446117Y-63384830D01*
X186402080Y-63384138D01*
X186363064Y-63382620D01*
X186332748Y-63380483D01*
X186314810Y-63377934D01*
X186312767Y-63377289D01*
X186295503Y-63366356D01*
X186276241Y-63349155D01*
X186274667Y-63347489D01*
X186264551Y-63335154D01*
X186258286Y-63321868D01*
X186254963Y-63303323D01*
X186253676Y-63275216D01*
X186253500Y-63247080D01*
X186254141Y-63210952D01*
X186255855Y-63180134D01*
X186258328Y-63159384D01*
X186259584Y-63154650D01*
X186263255Y-63149277D01*
X186270783Y-63145373D01*
X186284565Y-63142709D01*
X186306993Y-63141056D01*
X186340464Y-63140182D01*
X186387371Y-63139860D01*
X186414101Y-63139834D01*
X186562534Y-63139834D01*
X186562534Y-63224500D01*
G36*
X186466955Y-63446314D02*
G01*
X186507007Y-63465729D01*
X186537970Y-63495056D01*
X186554964Y-63527461D01*
X186561479Y-63558574D01*
X186564368Y-63597402D01*
X186563605Y-63637010D01*
X186559161Y-63670462D01*
X186555596Y-63682594D01*
X186548142Y-63696721D01*
X186537030Y-63701514D01*
X186516049Y-63699490D01*
X186514525Y-63699237D01*
X186493391Y-63694214D01*
X186484770Y-63686252D01*
X186484120Y-63672943D01*
X186487535Y-63624626D01*
X186486783Y-63589629D01*
X186481628Y-63564802D01*
X186475041Y-63551426D01*
X186461204Y-63535795D01*
X186448316Y-63529300D01*
X186442749Y-63532521D01*
X186438829Y-63543858D01*
X186436171Y-63565826D01*
X186434387Y-63600938D01*
X186433694Y-63624550D01*
X186432544Y-63665760D01*
X186431084Y-63692997D01*
X186428595Y-63709216D01*
X186424355Y-63717373D01*
X186417644Y-63720424D01*
X186410134Y-63721166D01*
X186388112Y-63720345D01*
X186360120Y-63716597D01*
X186353492Y-63715344D01*
X186307912Y-63699748D01*
X186275680Y-63673923D01*
X186256531Y-63637499D01*
X186250201Y-63590106D01*
X186250264Y-63588395D01*
X186317000Y-63588395D01*
X186322950Y-63601005D01*
X186336994Y-63617541D01*
X186353422Y-63632230D01*
X186366526Y-63639301D01*
X186367415Y-63639367D01*
X186372290Y-63631464D01*
X186375400Y-63609922D01*
X186376267Y-63584334D01*
X186374884Y-63551393D01*
X186370016Y-63533496D01*
X186360585Y-63528925D01*
X186345784Y-63535780D01*
X186333438Y-63549688D01*
X186322127Y-63570248D01*
X186317004Y-63588039D01*
X186317000Y-63588395D01*
X186250264Y-63588395D01*
X186250875Y-63572062D01*
X186260395Y-63523916D01*
X186281698Y-63487297D01*
X186315700Y-63460747D01*
X186323183Y-63456951D01*
X186371953Y-63440985D01*
X186420907Y-63437753D01*
X186466955Y-63446314D01*
G37*
X186466955Y-63446314D02*
X186507007Y-63465729D01*
X186537970Y-63495056D01*
X186554964Y-63527461D01*
X186561479Y-63558574D01*
X186564368Y-63597402D01*
X186563605Y-63637010D01*
X186559161Y-63670462D01*
X186555596Y-63682594D01*
X186548142Y-63696721D01*
X186537030Y-63701514D01*
X186516049Y-63699490D01*
X186514525Y-63699237D01*
X186493391Y-63694214D01*
X186484770Y-63686252D01*
X186484120Y-63672943D01*
X186487535Y-63624626D01*
X186486783Y-63589629D01*
X186481628Y-63564802D01*
X186475041Y-63551426D01*
X186461204Y-63535795D01*
X186448316Y-63529300D01*
X186442749Y-63532521D01*
X186438829Y-63543858D01*
X186436171Y-63565826D01*
X186434387Y-63600938D01*
X186433694Y-63624550D01*
X186432544Y-63665760D01*
X186431084Y-63692997D01*
X186428595Y-63709216D01*
X186424355Y-63717373D01*
X186417644Y-63720424D01*
X186410134Y-63721166D01*
X186388112Y-63720345D01*
X186360120Y-63716597D01*
X186353492Y-63715344D01*
X186307912Y-63699748D01*
X186275680Y-63673923D01*
X186256531Y-63637499D01*
X186250201Y-63590106D01*
X186250264Y-63588395D01*
X186317000Y-63588395D01*
X186322950Y-63601005D01*
X186336994Y-63617541D01*
X186353422Y-63632230D01*
X186366526Y-63639301D01*
X186367415Y-63639367D01*
X186372290Y-63631464D01*
X186375400Y-63609922D01*
X186376267Y-63584334D01*
X186374884Y-63551393D01*
X186370016Y-63533496D01*
X186360585Y-63528925D01*
X186345784Y-63535780D01*
X186333438Y-63549688D01*
X186322127Y-63570248D01*
X186317004Y-63588039D01*
X186317000Y-63588395D01*
X186250264Y-63588395D01*
X186250875Y-63572062D01*
X186260395Y-63523916D01*
X186281698Y-63487297D01*
X186315700Y-63460747D01*
X186323183Y-63456951D01*
X186371953Y-63440985D01*
X186420907Y-63437753D01*
X186466955Y-63446314D01*
G36*
X187587000Y-63402300D02*
G01*
X187189067Y-63402300D01*
X187189067Y-63427200D01*
X187192370Y-63447369D01*
X187199650Y-63458950D01*
X187212043Y-63462103D01*
X187237410Y-63465338D01*
X187271797Y-63468234D01*
X187303367Y-63470034D01*
X187396500Y-63474267D01*
X187399018Y-63532042D01*
X187401536Y-63589818D01*
X187297418Y-63587730D01*
X187193300Y-63585643D01*
X187193300Y-63610138D01*
X187194651Y-63624176D01*
X187199960Y-63635052D01*
X187211114Y-63643162D01*
X187229997Y-63648906D01*
X187258495Y-63652682D01*
X187298494Y-63654887D01*
X187351878Y-63655920D01*
X187411317Y-63656175D01*
X187587000Y-63656300D01*
X187587000Y-63774834D01*
X187411317Y-63773777D01*
X187355130Y-63773131D01*
X187301698Y-63771950D01*
X187254447Y-63770352D01*
X187216804Y-63768458D01*
X187192195Y-63766386D01*
X187190018Y-63766093D01*
X187159456Y-63759233D01*
X187132491Y-63749149D01*
X187122284Y-63743264D01*
X187093259Y-63712090D01*
X187076035Y-63671973D01*
X187071541Y-63626953D01*
X187080706Y-63581069D01*
X187083393Y-63574179D01*
X187090779Y-63553114D01*
X187091314Y-63535770D01*
X187084846Y-63513657D01*
X187082190Y-63506580D01*
X187074100Y-63469667D01*
X187072676Y-63422600D01*
X187077754Y-63370719D01*
X187087841Y-63323984D01*
X187096729Y-63292234D01*
X187587000Y-63292234D01*
X187587000Y-63402300D01*
G37*
X187587000Y-63402300D02*
X187189067Y-63402300D01*
X187189067Y-63427200D01*
X187192370Y-63447369D01*
X187199650Y-63458950D01*
X187212043Y-63462103D01*
X187237410Y-63465338D01*
X187271797Y-63468234D01*
X187303367Y-63470034D01*
X187396500Y-63474267D01*
X187399018Y-63532042D01*
X187401536Y-63589818D01*
X187297418Y-63587730D01*
X187193300Y-63585643D01*
X187193300Y-63610138D01*
X187194651Y-63624176D01*
X187199960Y-63635052D01*
X187211114Y-63643162D01*
X187229997Y-63648906D01*
X187258495Y-63652682D01*
X187298494Y-63654887D01*
X187351878Y-63655920D01*
X187411317Y-63656175D01*
X187587000Y-63656300D01*
X187587000Y-63774834D01*
X187411317Y-63773777D01*
X187355130Y-63773131D01*
X187301698Y-63771950D01*
X187254447Y-63770352D01*
X187216804Y-63768458D01*
X187192195Y-63766386D01*
X187190018Y-63766093D01*
X187159456Y-63759233D01*
X187132491Y-63749149D01*
X187122284Y-63743264D01*
X187093259Y-63712090D01*
X187076035Y-63671973D01*
X187071541Y-63626953D01*
X187080706Y-63581069D01*
X187083393Y-63574179D01*
X187090779Y-63553114D01*
X187091314Y-63535770D01*
X187084846Y-63513657D01*
X187082190Y-63506580D01*
X187074100Y-63469667D01*
X187072676Y-63422600D01*
X187077754Y-63370719D01*
X187087841Y-63323984D01*
X187096729Y-63292234D01*
X187587000Y-63292234D01*
X187587000Y-63402300D01*
G36*
X186453152Y-63758424D02*
G01*
X186490126Y-63768766D01*
X186520673Y-63788323D01*
X186535736Y-63802857D01*
X186553814Y-63832014D01*
X186565295Y-63870246D01*
X186568321Y-63910375D01*
X186566995Y-63923827D01*
X186562325Y-63953922D01*
X186557917Y-63982267D01*
X186553300Y-64011900D01*
X186333550Y-64011900D01*
X186263683Y-64011721D01*
X186209221Y-64011133D01*
X186168640Y-64010063D01*
X186140414Y-64008439D01*
X186123019Y-64006185D01*
X186114929Y-64003230D01*
X186113893Y-64001317D01*
X186115266Y-63986404D01*
X186118523Y-63963377D01*
X186119234Y-63958984D01*
X186124482Y-63927234D01*
X186188991Y-63927245D01*
X186253500Y-63927257D01*
X186251569Y-63892436D01*
X186325467Y-63892436D01*
X186327316Y-63911648D01*
X186331111Y-63921589D01*
X186341543Y-63924052D01*
X186364835Y-63925970D01*
X186396915Y-63927073D01*
X186415778Y-63927234D01*
X186452646Y-63927088D01*
X186475781Y-63926070D01*
X186488383Y-63923306D01*
X186493651Y-63917924D01*
X186494787Y-63909051D01*
X186494800Y-63905682D01*
X186488941Y-63884861D01*
X186474767Y-63864111D01*
X186474018Y-63863349D01*
X186457248Y-63850291D01*
X186436824Y-63844072D01*
X186408169Y-63842567D01*
X186366582Y-63846958D01*
X186339329Y-63860086D01*
X186326522Y-63881882D01*
X186325467Y-63892436D01*
X186251569Y-63892436D01*
X186251034Y-63882795D01*
X186254839Y-63837122D01*
X186271970Y-63801660D01*
X186302542Y-63776314D01*
X186346671Y-63760987D01*
X186404474Y-63755584D01*
X186405007Y-63755581D01*
X186453152Y-63758424D01*
G37*
X186453152Y-63758424D02*
X186490126Y-63768766D01*
X186520673Y-63788323D01*
X186535736Y-63802857D01*
X186553814Y-63832014D01*
X186565295Y-63870246D01*
X186568321Y-63910375D01*
X186566995Y-63923827D01*
X186562325Y-63953922D01*
X186557917Y-63982267D01*
X186553300Y-64011900D01*
X186333550Y-64011900D01*
X186263683Y-64011721D01*
X186209221Y-64011133D01*
X186168640Y-64010063D01*
X186140414Y-64008439D01*
X186123019Y-64006185D01*
X186114929Y-64003230D01*
X186113893Y-64001317D01*
X186115266Y-63986404D01*
X186118523Y-63963377D01*
X186119234Y-63958984D01*
X186124482Y-63927234D01*
X186188991Y-63927245D01*
X186253500Y-63927257D01*
X186251569Y-63892436D01*
X186325467Y-63892436D01*
X186327316Y-63911648D01*
X186331111Y-63921589D01*
X186341543Y-63924052D01*
X186364835Y-63925970D01*
X186396915Y-63927073D01*
X186415778Y-63927234D01*
X186452646Y-63927088D01*
X186475781Y-63926070D01*
X186488383Y-63923306D01*
X186493651Y-63917924D01*
X186494787Y-63909051D01*
X186494800Y-63905682D01*
X186488941Y-63884861D01*
X186474767Y-63864111D01*
X186474018Y-63863349D01*
X186457248Y-63850291D01*
X186436824Y-63844072D01*
X186408169Y-63842567D01*
X186366582Y-63846958D01*
X186339329Y-63860086D01*
X186326522Y-63881882D01*
X186325467Y-63892436D01*
X186251569Y-63892436D01*
X186251034Y-63882795D01*
X186254839Y-63837122D01*
X186271970Y-63801660D01*
X186302542Y-63776314D01*
X186346671Y-63760987D01*
X186404474Y-63755584D01*
X186405007Y-63755581D01*
X186453152Y-63758424D01*
G36*
X187461681Y-63844952D02*
G01*
X187506567Y-63858490D01*
X187542633Y-63880531D01*
X187568738Y-63910249D01*
X187586433Y-63950297D01*
X187597271Y-64003328D01*
X187598796Y-64016134D01*
X187600128Y-64047614D01*
X187599208Y-64090126D01*
X187596441Y-64137975D01*
X187592233Y-64185470D01*
X187586990Y-64226916D01*
X187581843Y-64253867D01*
X187576698Y-64274367D01*
X187389232Y-64274181D01*
X187326509Y-64273969D01*
X187278247Y-64273357D01*
X187241973Y-64272168D01*
X187215218Y-64270225D01*
X187195510Y-64267352D01*
X187180378Y-64263372D01*
X187167900Y-64258364D01*
X187126072Y-64231623D01*
X187095469Y-64194488D01*
X187075172Y-64145486D01*
X187065414Y-64094080D01*
X187064172Y-64066906D01*
X187065324Y-64032441D01*
X187068377Y-63994850D01*
X187072839Y-63958294D01*
X187078217Y-63926936D01*
X187084021Y-63904939D01*
X187088738Y-63896815D01*
X187101689Y-63895006D01*
X187124612Y-63896196D01*
X187150977Y-63899577D01*
X187174258Y-63904338D01*
X187186940Y-63908986D01*
X187191677Y-63917310D01*
X187192324Y-63935786D01*
X187188914Y-63967258D01*
X187187665Y-63975920D01*
X187183872Y-64011268D01*
X187182740Y-64044524D01*
X187184407Y-64067640D01*
X187195934Y-64098315D01*
X187215690Y-64122909D01*
X187239603Y-64137077D01*
X187251245Y-64138900D01*
X187260351Y-64138298D01*
X187266410Y-64134506D01*
X187270205Y-64124544D01*
X187272514Y-64105436D01*
X187273543Y-64085394D01*
X187370745Y-64085394D01*
X187372508Y-64107150D01*
X187377498Y-64138900D01*
X187487251Y-64138900D01*
X187483998Y-64074481D01*
X187481549Y-64040076D01*
X187477592Y-64018083D01*
X187470835Y-64003984D01*
X187460968Y-63994048D01*
X187438965Y-63980431D01*
X187420059Y-63980923D01*
X187401254Y-63992850D01*
X187385007Y-64015109D01*
X187374344Y-64047917D01*
X187370745Y-64085394D01*
X187273543Y-64085394D01*
X187274118Y-64074200D01*
X187275085Y-64047884D01*
X187277177Y-64004365D01*
X187280393Y-63973204D01*
X187285592Y-63949827D01*
X187293631Y-63929659D01*
X187299305Y-63918767D01*
X187328492Y-63882252D01*
X187367601Y-63857104D01*
X187413156Y-63844334D01*
X187461681Y-63844952D01*
G37*
X187461681Y-63844952D02*
X187506567Y-63858490D01*
X187542633Y-63880531D01*
X187568738Y-63910249D01*
X187586433Y-63950297D01*
X187597271Y-64003328D01*
X187598796Y-64016134D01*
X187600128Y-64047614D01*
X187599208Y-64090126D01*
X187596441Y-64137975D01*
X187592233Y-64185470D01*
X187586990Y-64226916D01*
X187581843Y-64253867D01*
X187576698Y-64274367D01*
X187389232Y-64274181D01*
X187326509Y-64273969D01*
X187278247Y-64273357D01*
X187241973Y-64272168D01*
X187215218Y-64270225D01*
X187195510Y-64267352D01*
X187180378Y-64263372D01*
X187167900Y-64258364D01*
X187126072Y-64231623D01*
X187095469Y-64194488D01*
X187075172Y-64145486D01*
X187065414Y-64094080D01*
X187064172Y-64066906D01*
X187065324Y-64032441D01*
X187068377Y-63994850D01*
X187072839Y-63958294D01*
X187078217Y-63926936D01*
X187084021Y-63904939D01*
X187088738Y-63896815D01*
X187101689Y-63895006D01*
X187124612Y-63896196D01*
X187150977Y-63899577D01*
X187174258Y-63904338D01*
X187186940Y-63908986D01*
X187191677Y-63917310D01*
X187192324Y-63935786D01*
X187188914Y-63967258D01*
X187187665Y-63975920D01*
X187183872Y-64011268D01*
X187182740Y-64044524D01*
X187184407Y-64067640D01*
X187195934Y-64098315D01*
X187215690Y-64122909D01*
X187239603Y-64137077D01*
X187251245Y-64138900D01*
X187260351Y-64138298D01*
X187266410Y-64134506D01*
X187270205Y-64124544D01*
X187272514Y-64105436D01*
X187273543Y-64085394D01*
X187370745Y-64085394D01*
X187372508Y-64107150D01*
X187377498Y-64138900D01*
X187487251Y-64138900D01*
X187483998Y-64074481D01*
X187481549Y-64040076D01*
X187477592Y-64018083D01*
X187470835Y-64003984D01*
X187460968Y-63994048D01*
X187438965Y-63980431D01*
X187420059Y-63980923D01*
X187401254Y-63992850D01*
X187385007Y-64015109D01*
X187374344Y-64047917D01*
X187370745Y-64085394D01*
X187273543Y-64085394D01*
X187274118Y-64074200D01*
X187275085Y-64047884D01*
X187277177Y-64004365D01*
X187280393Y-63973204D01*
X187285592Y-63949827D01*
X187293631Y-63929659D01*
X187299305Y-63918767D01*
X187328492Y-63882252D01*
X187367601Y-63857104D01*
X187413156Y-63844334D01*
X187461681Y-63844952D01*
G36*
X186558416Y-64435763D02*
G01*
X186563680Y-64473149D01*
X186564989Y-64514790D01*
X186562586Y-64554905D01*
X186556712Y-64587713D01*
X186551469Y-64601783D01*
X186529710Y-64632901D01*
X186500960Y-64653749D01*
X186462177Y-64665855D01*
X186414367Y-64670610D01*
X186375840Y-64671075D01*
X186348228Y-64668442D01*
X186325656Y-64661845D01*
X186311818Y-64655486D01*
X186276934Y-64630348D01*
X186256571Y-64597164D01*
X186250157Y-64554831D01*
X186251052Y-64538170D01*
X186251867Y-64529679D01*
X186327120Y-64529679D01*
X186327985Y-64553741D01*
X186337513Y-64569149D01*
X186343821Y-64574129D01*
X186368629Y-64583988D01*
X186401340Y-64587710D01*
X186434878Y-64585380D01*
X186462164Y-64577082D01*
X186469121Y-64572629D01*
X186485010Y-64549387D01*
X186489109Y-64528179D01*
X186490567Y-64498734D01*
X186329700Y-64498734D01*
X186327120Y-64529679D01*
X186251867Y-64529679D01*
X186255248Y-64494500D01*
X186111585Y-64494500D01*
X186116833Y-64462750D01*
X186120317Y-64439167D01*
X186122113Y-64422141D01*
X186122174Y-64420417D01*
X186125964Y-64417018D01*
X186138293Y-64414377D01*
X186160698Y-64412417D01*
X186194716Y-64411063D01*
X186241884Y-64410240D01*
X186303738Y-64409871D01*
X186337494Y-64409834D01*
X186552721Y-64409834D01*
X186558416Y-64435763D01*
G37*
X186558416Y-64435763D02*
X186563680Y-64473149D01*
X186564989Y-64514790D01*
X186562586Y-64554905D01*
X186556712Y-64587713D01*
X186551469Y-64601783D01*
X186529710Y-64632901D01*
X186500960Y-64653749D01*
X186462177Y-64665855D01*
X186414367Y-64670610D01*
X186375840Y-64671075D01*
X186348228Y-64668442D01*
X186325656Y-64661845D01*
X186311818Y-64655486D01*
X186276934Y-64630348D01*
X186256571Y-64597164D01*
X186250157Y-64554831D01*
X186251052Y-64538170D01*
X186251867Y-64529679D01*
X186327120Y-64529679D01*
X186327985Y-64553741D01*
X186337513Y-64569149D01*
X186343821Y-64574129D01*
X186368629Y-64583988D01*
X186401340Y-64587710D01*
X186434878Y-64585380D01*
X186462164Y-64577082D01*
X186469121Y-64572629D01*
X186485010Y-64549387D01*
X186489109Y-64528179D01*
X186490567Y-64498734D01*
X186329700Y-64498734D01*
X186327120Y-64529679D01*
X186251867Y-64529679D01*
X186255248Y-64494500D01*
X186111585Y-64494500D01*
X186116833Y-64462750D01*
X186120317Y-64439167D01*
X186122113Y-64422141D01*
X186122174Y-64420417D01*
X186125964Y-64417018D01*
X186138293Y-64414377D01*
X186160698Y-64412417D01*
X186194716Y-64411063D01*
X186241884Y-64410240D01*
X186303738Y-64409871D01*
X186337494Y-64409834D01*
X186552721Y-64409834D01*
X186558416Y-64435763D01*
G36*
X186960467Y-64511434D02*
G01*
X187200230Y-64511434D01*
X187281864Y-64511695D01*
X187348495Y-64512681D01*
X187402049Y-64514691D01*
X187444451Y-64518026D01*
X187477627Y-64522985D01*
X187503502Y-64529869D01*
X187524002Y-64538979D01*
X187541053Y-64550613D01*
X187556578Y-64565074D01*
X187558739Y-64567340D01*
X187583518Y-64605318D01*
X187597652Y-64653490D01*
X187600833Y-64708636D01*
X187592752Y-64767538D01*
X187581552Y-64805650D01*
X187571111Y-64829111D01*
X187558501Y-64839159D01*
X187538234Y-64838988D01*
X187527734Y-64836982D01*
X187511156Y-64833868D01*
X187487235Y-64829773D01*
X187483763Y-64829204D01*
X187452492Y-64824113D01*
X187464713Y-64789475D01*
X187474292Y-64750885D01*
X187476225Y-64714529D01*
X187470459Y-64685719D01*
X187465848Y-64677310D01*
X187458084Y-64669680D01*
X187445974Y-64663434D01*
X187427937Y-64658441D01*
X187402391Y-64654564D01*
X187367754Y-64651672D01*
X187322445Y-64649629D01*
X187264883Y-64648303D01*
X187193485Y-64647559D01*
X187110750Y-64647269D01*
X186841934Y-64646900D01*
X186841934Y-64367500D01*
X186960467Y-64367500D01*
X186960467Y-64511434D01*
G37*
X186960467Y-64511434D02*
X187200230Y-64511434D01*
X187281864Y-64511695D01*
X187348495Y-64512681D01*
X187402049Y-64514691D01*
X187444451Y-64518026D01*
X187477627Y-64522985D01*
X187503502Y-64529869D01*
X187524002Y-64538979D01*
X187541053Y-64550613D01*
X187556578Y-64565074D01*
X187558739Y-64567340D01*
X187583518Y-64605318D01*
X187597652Y-64653490D01*
X187600833Y-64708636D01*
X187592752Y-64767538D01*
X187581552Y-64805650D01*
X187571111Y-64829111D01*
X187558501Y-64839159D01*
X187538234Y-64838988D01*
X187527734Y-64836982D01*
X187511156Y-64833868D01*
X187487235Y-64829773D01*
X187483763Y-64829204D01*
X187452492Y-64824113D01*
X187464713Y-64789475D01*
X187474292Y-64750885D01*
X187476225Y-64714529D01*
X187470459Y-64685719D01*
X187465848Y-64677310D01*
X187458084Y-64669680D01*
X187445974Y-64663434D01*
X187427937Y-64658441D01*
X187402391Y-64654564D01*
X187367754Y-64651672D01*
X187322445Y-64649629D01*
X187264883Y-64648303D01*
X187193485Y-64647559D01*
X187110750Y-64647269D01*
X186841934Y-64646900D01*
X186841934Y-64367500D01*
X186960467Y-64367500D01*
X186960467Y-64511434D01*
G36*
X186653385Y-64706085D02*
G01*
X186660837Y-64719171D01*
X186663653Y-64744953D01*
X186664004Y-64766901D01*
X186661353Y-64799846D01*
X186651975Y-64827420D01*
X186634030Y-64851287D01*
X186605673Y-64873109D01*
X186565064Y-64894549D01*
X186510360Y-64917270D01*
X186488161Y-64925604D01*
X186445287Y-64940492D01*
X186396787Y-64955989D01*
X186355100Y-64968192D01*
X186321636Y-64977366D01*
X186293140Y-64985220D01*
X186274641Y-64990367D01*
X186272083Y-64991093D01*
X186263305Y-64991772D01*
X186259197Y-64984814D01*
X186258620Y-64966601D01*
X186259383Y-64950691D01*
X186261967Y-64905911D01*
X186348750Y-64885845D01*
X186384403Y-64877025D01*
X186412954Y-64868863D01*
X186430979Y-64862409D01*
X186435534Y-64859283D01*
X186427952Y-64854338D01*
X186407403Y-64845915D01*
X186377176Y-64835266D01*
X186346634Y-64825491D01*
X186257734Y-64798194D01*
X186257734Y-64756414D01*
X186259320Y-64729350D01*
X186264544Y-64716519D01*
X186269614Y-64714634D01*
X186283405Y-64717490D01*
X186309319Y-64725208D01*
X186343701Y-64736509D01*
X186382892Y-64750116D01*
X186423236Y-64764751D01*
X186461075Y-64779135D01*
X186492752Y-64791992D01*
X186499981Y-64795127D01*
X186529622Y-64806860D01*
X186549243Y-64810655D01*
X186563309Y-64807347D01*
X186563793Y-64807093D01*
X186582856Y-64788077D01*
X186590307Y-64760515D01*
X186587584Y-64738815D01*
X186584911Y-64724308D01*
X186590226Y-64715968D01*
X186607225Y-64709714D01*
X186616038Y-64707410D01*
X186639164Y-64703048D01*
X186653385Y-64706085D01*
G37*
X186653385Y-64706085D02*
X186660837Y-64719171D01*
X186663653Y-64744953D01*
X186664004Y-64766901D01*
X186661353Y-64799846D01*
X186651975Y-64827420D01*
X186634030Y-64851287D01*
X186605673Y-64873109D01*
X186565064Y-64894549D01*
X186510360Y-64917270D01*
X186488161Y-64925604D01*
X186445287Y-64940492D01*
X186396787Y-64955989D01*
X186355100Y-64968192D01*
X186321636Y-64977366D01*
X186293140Y-64985220D01*
X186274641Y-64990367D01*
X186272083Y-64991093D01*
X186263305Y-64991772D01*
X186259197Y-64984814D01*
X186258620Y-64966601D01*
X186259383Y-64950691D01*
X186261967Y-64905911D01*
X186348750Y-64885845D01*
X186384403Y-64877025D01*
X186412954Y-64868863D01*
X186430979Y-64862409D01*
X186435534Y-64859283D01*
X186427952Y-64854338D01*
X186407403Y-64845915D01*
X186377176Y-64835266D01*
X186346634Y-64825491D01*
X186257734Y-64798194D01*
X186257734Y-64756414D01*
X186259320Y-64729350D01*
X186264544Y-64716519D01*
X186269614Y-64714634D01*
X186283405Y-64717490D01*
X186309319Y-64725208D01*
X186343701Y-64736509D01*
X186382892Y-64750116D01*
X186423236Y-64764751D01*
X186461075Y-64779135D01*
X186492752Y-64791992D01*
X186499981Y-64795127D01*
X186529622Y-64806860D01*
X186549243Y-64810655D01*
X186563309Y-64807347D01*
X186563793Y-64807093D01*
X186582856Y-64788077D01*
X186590307Y-64760515D01*
X186587584Y-64738815D01*
X186584911Y-64724308D01*
X186590226Y-64715968D01*
X186607225Y-64709714D01*
X186616038Y-64707410D01*
X186639164Y-64703048D01*
X186653385Y-64706085D01*
G36*
X94622878Y-67708101D02*
G01*
X94684914Y-67708904D01*
X94735792Y-67710464D01*
X94778397Y-67712920D01*
X94815613Y-67716411D01*
X94850324Y-67721079D01*
X94864047Y-67723288D01*
X94992573Y-67750239D01*
X95106987Y-67785801D01*
X95207978Y-67830358D01*
X95296235Y-67884297D01*
X95372446Y-67948000D01*
X95437301Y-68021853D01*
X95462114Y-68057201D01*
X95509015Y-68142878D01*
X95545389Y-68239060D01*
X95570876Y-68342711D01*
X95585115Y-68450796D01*
X95587747Y-68560280D01*
X95578413Y-68668126D01*
X95556753Y-68771300D01*
X95549573Y-68795367D01*
X95511441Y-68888058D01*
X95458573Y-68973960D01*
X95392114Y-69052165D01*
X95313208Y-69121767D01*
X95222998Y-69181859D01*
X95122628Y-69231534D01*
X95013241Y-69269885D01*
X94924535Y-69290947D01*
X94868855Y-69298417D01*
X94802335Y-69302365D01*
X94730685Y-69302856D01*
X94659612Y-69299951D01*
X94594827Y-69293715D01*
X94553447Y-69286817D01*
X94449278Y-69259845D01*
X94358922Y-69225342D01*
X94280553Y-69182280D01*
X94212350Y-69129628D01*
X94152488Y-69066358D01*
X94143980Y-69055715D01*
X94089268Y-68975287D01*
X94046587Y-68888437D01*
X94015110Y-68792919D01*
X93994009Y-68686487D01*
X93987259Y-68630199D01*
X93982816Y-68560208D01*
X93984827Y-68497915D01*
X93988908Y-68470714D01*
X94388488Y-68470714D01*
X94394754Y-68546256D01*
X94410603Y-68615582D01*
X94435734Y-68676426D01*
X94469844Y-68726521D01*
X94500234Y-68754994D01*
X94540566Y-68779830D01*
X94590179Y-68802061D01*
X94641429Y-68818513D01*
X94665334Y-68823588D01*
X94704507Y-68827330D01*
X94753244Y-68828000D01*
X94804501Y-68825835D01*
X94851237Y-68821072D01*
X94877000Y-68816436D01*
X94934090Y-68801190D01*
X94979880Y-68783869D01*
X95020002Y-68762192D01*
X95034382Y-68752718D01*
X95089279Y-68708213D01*
X95128307Y-68660315D01*
X95152469Y-68607075D01*
X95162767Y-68546543D01*
X95162568Y-68503467D01*
X95154557Y-68441308D01*
X95139830Y-68396028D01*
X95108448Y-68347883D01*
X95062406Y-68303654D01*
X95003782Y-68264706D01*
X94934658Y-68232405D01*
X94857111Y-68208117D01*
X94851600Y-68206794D01*
X94816952Y-68200305D01*
X94773248Y-68195263D01*
X94718177Y-68191480D01*
X94649426Y-68188772D01*
X94617616Y-68187948D01*
X94447132Y-68184055D01*
X94430211Y-68229461D01*
X94405914Y-68310050D01*
X94392107Y-68391223D01*
X94388488Y-68470714D01*
X93988908Y-68470714D01*
X93994021Y-68436647D01*
X94011128Y-68369731D01*
X94018270Y-68346422D01*
X94027715Y-68314827D01*
X94034156Y-68289907D01*
X94036616Y-68275608D01*
X94036299Y-68273777D01*
X94025998Y-68274010D01*
X94004589Y-68280563D01*
X93975931Y-68291837D01*
X93943881Y-68306233D01*
X93912300Y-68322151D01*
X93892474Y-68333382D01*
X93832073Y-68373746D01*
X93781319Y-68417504D01*
X93734202Y-68470103D01*
X93716525Y-68492844D01*
X93660849Y-68576305D01*
X93614808Y-68666787D01*
X93577848Y-68766020D01*
X93549416Y-68875735D01*
X93528957Y-68997659D01*
X93517199Y-69115183D01*
X93513912Y-69152947D01*
X93510312Y-69176645D01*
X93505688Y-69189140D01*
X93499332Y-69193295D01*
X93497835Y-69193377D01*
X93485553Y-69192754D01*
X93459143Y-69191085D01*
X93421366Y-69188558D01*
X93374983Y-69185356D01*
X93322755Y-69181665D01*
X93310667Y-69180800D01*
X93257078Y-69177014D01*
X93208307Y-69173679D01*
X93167227Y-69170983D01*
X93136708Y-69169113D01*
X93119622Y-69168257D01*
X93118050Y-69168223D01*
X93109124Y-69167310D01*
X93103540Y-69162569D01*
X93100521Y-69150786D01*
X93099289Y-69128750D01*
X93099067Y-69093248D01*
X93099070Y-69089783D01*
X93105972Y-68952941D01*
X93125755Y-68812390D01*
X93157384Y-68672761D01*
X93199827Y-68538683D01*
X93247668Y-68423938D01*
X93316890Y-68296761D01*
X93398510Y-68181024D01*
X93492190Y-68077010D01*
X93597591Y-67985002D01*
X93714372Y-67905283D01*
X93842195Y-67838136D01*
X93980721Y-67783845D01*
X94035429Y-67766836D01*
X94101232Y-67748987D01*
X94163846Y-67734923D01*
X94226609Y-67724259D01*
X94292859Y-67716611D01*
X94365935Y-67711594D01*
X94449175Y-67708824D01*
X94545917Y-67707915D01*
X94546800Y-67707915D01*
X94622878Y-67708101D01*
G37*
X94622878Y-67708101D02*
X94684914Y-67708904D01*
X94735792Y-67710464D01*
X94778397Y-67712920D01*
X94815613Y-67716411D01*
X94850324Y-67721079D01*
X94864047Y-67723288D01*
X94992573Y-67750239D01*
X95106987Y-67785801D01*
X95207978Y-67830358D01*
X95296235Y-67884297D01*
X95372446Y-67948000D01*
X95437301Y-68021853D01*
X95462114Y-68057201D01*
X95509015Y-68142878D01*
X95545389Y-68239060D01*
X95570876Y-68342711D01*
X95585115Y-68450796D01*
X95587747Y-68560280D01*
X95578413Y-68668126D01*
X95556753Y-68771300D01*
X95549573Y-68795367D01*
X95511441Y-68888058D01*
X95458573Y-68973960D01*
X95392114Y-69052165D01*
X95313208Y-69121767D01*
X95222998Y-69181859D01*
X95122628Y-69231534D01*
X95013241Y-69269885D01*
X94924535Y-69290947D01*
X94868855Y-69298417D01*
X94802335Y-69302365D01*
X94730685Y-69302856D01*
X94659612Y-69299951D01*
X94594827Y-69293715D01*
X94553447Y-69286817D01*
X94449278Y-69259845D01*
X94358922Y-69225342D01*
X94280553Y-69182280D01*
X94212350Y-69129628D01*
X94152488Y-69066358D01*
X94143980Y-69055715D01*
X94089268Y-68975287D01*
X94046587Y-68888437D01*
X94015110Y-68792919D01*
X93994009Y-68686487D01*
X93987259Y-68630199D01*
X93982816Y-68560208D01*
X93984827Y-68497915D01*
X93988908Y-68470714D01*
X94388488Y-68470714D01*
X94394754Y-68546256D01*
X94410603Y-68615582D01*
X94435734Y-68676426D01*
X94469844Y-68726521D01*
X94500234Y-68754994D01*
X94540566Y-68779830D01*
X94590179Y-68802061D01*
X94641429Y-68818513D01*
X94665334Y-68823588D01*
X94704507Y-68827330D01*
X94753244Y-68828000D01*
X94804501Y-68825835D01*
X94851237Y-68821072D01*
X94877000Y-68816436D01*
X94934090Y-68801190D01*
X94979880Y-68783869D01*
X95020002Y-68762192D01*
X95034382Y-68752718D01*
X95089279Y-68708213D01*
X95128307Y-68660315D01*
X95152469Y-68607075D01*
X95162767Y-68546543D01*
X95162568Y-68503467D01*
X95154557Y-68441308D01*
X95139830Y-68396028D01*
X95108448Y-68347883D01*
X95062406Y-68303654D01*
X95003782Y-68264706D01*
X94934658Y-68232405D01*
X94857111Y-68208117D01*
X94851600Y-68206794D01*
X94816952Y-68200305D01*
X94773248Y-68195263D01*
X94718177Y-68191480D01*
X94649426Y-68188772D01*
X94617616Y-68187948D01*
X94447132Y-68184055D01*
X94430211Y-68229461D01*
X94405914Y-68310050D01*
X94392107Y-68391223D01*
X94388488Y-68470714D01*
X93988908Y-68470714D01*
X93994021Y-68436647D01*
X94011128Y-68369731D01*
X94018270Y-68346422D01*
X94027715Y-68314827D01*
X94034156Y-68289907D01*
X94036616Y-68275608D01*
X94036299Y-68273777D01*
X94025998Y-68274010D01*
X94004589Y-68280563D01*
X93975931Y-68291837D01*
X93943881Y-68306233D01*
X93912300Y-68322151D01*
X93892474Y-68333382D01*
X93832073Y-68373746D01*
X93781319Y-68417504D01*
X93734202Y-68470103D01*
X93716525Y-68492844D01*
X93660849Y-68576305D01*
X93614808Y-68666787D01*
X93577848Y-68766020D01*
X93549416Y-68875735D01*
X93528957Y-68997659D01*
X93517199Y-69115183D01*
X93513912Y-69152947D01*
X93510312Y-69176645D01*
X93505688Y-69189140D01*
X93499332Y-69193295D01*
X93497835Y-69193377D01*
X93485553Y-69192754D01*
X93459143Y-69191085D01*
X93421366Y-69188558D01*
X93374983Y-69185356D01*
X93322755Y-69181665D01*
X93310667Y-69180800D01*
X93257078Y-69177014D01*
X93208307Y-69173679D01*
X93167227Y-69170983D01*
X93136708Y-69169113D01*
X93119622Y-69168257D01*
X93118050Y-69168223D01*
X93109124Y-69167310D01*
X93103540Y-69162569D01*
X93100521Y-69150786D01*
X93099289Y-69128750D01*
X93099067Y-69093248D01*
X93099070Y-69089783D01*
X93105972Y-68952941D01*
X93125755Y-68812390D01*
X93157384Y-68672761D01*
X93199827Y-68538683D01*
X93247668Y-68423938D01*
X93316890Y-68296761D01*
X93398510Y-68181024D01*
X93492190Y-68077010D01*
X93597591Y-67985002D01*
X93714372Y-67905283D01*
X93842195Y-67838136D01*
X93980721Y-67783845D01*
X94035429Y-67766836D01*
X94101232Y-67748987D01*
X94163846Y-67734923D01*
X94226609Y-67724259D01*
X94292859Y-67716611D01*
X94365935Y-67711594D01*
X94449175Y-67708824D01*
X94545917Y-67707915D01*
X94546800Y-67707915D01*
X94622878Y-67708101D01*
D11*
X133612000Y-92752000D03*
X133612000Y-90212000D03*
X133612000Y-87672000D03*
X133612000Y-85132000D03*
D12*
X133612000Y-82592000D03*
D13*
X98577000Y-76571500D03*
X98579600Y-72097700D03*
X98577000Y-74351500D03*
D14*
X94305500Y-104817000D03*
D15*
X94305500Y-102277000D03*
X96845500Y-104817000D03*
X96845500Y-102277000D03*
X99385500Y-104817000D03*
X99385500Y-102277000D03*
X101925500Y-104817000D03*
X101925500Y-102277000D03*
D16*
X95945000Y-71160000D03*
X95945000Y-79800000D03*
D17*
X91865000Y-71160000D03*
X91865000Y-79800000D03*
D18*
X95445000Y-78370000D03*
X95445000Y-72590000D03*
D19*
X104880000Y-111020000D03*
G36*
G01*
X94725500Y-110266000D02*
X94725500Y-108766000D01*
G75*
G02*
X94975500Y-108516000I250000J0D01*
G01*
X96175500Y-108516000D01*
G75*
G02*
X96425500Y-108766000I0J-250000D01*
G01*
X96425500Y-110266000D01*
G75*
G02*
X96175500Y-110516000I-250000J0D01*
G01*
X94975500Y-110516000D01*
G75*
G02*
X94725500Y-110266000I0J250000D01*
G01*
G37*
D20*
X98075500Y-109516000D03*
D19*
X181090000Y-62780000D03*
X106150000Y-62770000D03*
X187420000Y-111010000D03*
D12*
X187460000Y-67860000D03*
D11*
X184920000Y-67860000D03*
X187460000Y-70400000D03*
X184920000Y-70400000D03*
X187460000Y-72940000D03*
X184920000Y-72940000D03*
X187460000Y-75480000D03*
X184920000Y-75480000D03*
X187460000Y-78020000D03*
X184920000Y-78020000D03*
X187460000Y-80560000D03*
X184920000Y-80560000D03*
X187460000Y-83100000D03*
X184920000Y-83100000D03*
X187460000Y-85640000D03*
X184920000Y-85640000D03*
X187460000Y-88180000D03*
X184920000Y-88180000D03*
X187460000Y-90720000D03*
X184920000Y-90720000D03*
X187460000Y-93260000D03*
X184920000Y-93260000D03*
X187460000Y-95800000D03*
X184920000Y-95800000D03*
X187460000Y-98340000D03*
X184920000Y-98340000D03*
X187460000Y-100880000D03*
X184920000Y-100880000D03*
D12*
X156980000Y-62780000D03*
D11*
X159520000Y-62780000D03*
X162060000Y-62780000D03*
X164600000Y-62780000D03*
X167140000Y-62780000D03*
X169680000Y-62780000D03*
X172220000Y-62780000D03*
X174760000Y-62780000D03*
X164600000Y-111040000D03*
X162060000Y-111040000D03*
X159520000Y-111040000D03*
X156980000Y-111040000D03*
X154440000Y-111040000D03*
X151900000Y-111040000D03*
X149360000Y-111040000D03*
D12*
X146820000Y-111040000D03*
X131580000Y-62780000D03*
D11*
X134120000Y-62780000D03*
X136660000Y-62780000D03*
X139200000Y-62780000D03*
D12*
X144280000Y-62780000D03*
D11*
X146820000Y-62780000D03*
X149360000Y-62780000D03*
X151900000Y-62780000D03*
X141740000Y-111074000D03*
X139200000Y-111074000D03*
X136660000Y-111074000D03*
D12*
X134120000Y-111074000D03*
X113800000Y-62780000D03*
D11*
X116340000Y-62780000D03*
X118880000Y-62780000D03*
X121420000Y-62780000D03*
X123960000Y-62780000D03*
X126500000Y-62780000D03*
D13*
X98577000Y-78782000D03*
D21*
X148199002Y-103692000D03*
X104338000Y-67796024D03*
X124023500Y-96816000D03*
X117737000Y-90339008D03*
X117737000Y-84433506D03*
X141012600Y-85399000D03*
X168283006Y-94720500D03*
X168283004Y-84243000D03*
X108910500Y-90275500D03*
X157678500Y-105007500D03*
X144751558Y-83900697D03*
X149550500Y-72495500D03*
X157678500Y-103737500D03*
X145931000Y-83925500D03*
X141004300Y-83799000D03*
X167140000Y-94720500D03*
X167140000Y-85128390D03*
X108910500Y-92498000D03*
X163456992Y-74972000D03*
X151099200Y-73503500D03*
X107577004Y-101261000D03*
X179014512Y-70908000D03*
X172474000Y-70907996D03*
X107577000Y-103420000D03*
X176728500Y-73829000D03*
X152408000Y-87037000D03*
X147391500Y-87037000D03*
X150757000Y-75797496D03*
X108910500Y-88116500D03*
X111768000Y-85894000D03*
X108910500Y-93641000D03*
X142629000Y-95673000D03*
X132342000Y-91482000D03*
X118499000Y-94022000D03*
X143899000Y-90910500D03*
X149550500Y-74019500D03*
X149105982Y-67606000D03*
X178443000Y-95990500D03*
X167140000Y-95990504D03*
X164919000Y-85513000D03*
X178379502Y-84243000D03*
X117419500Y-103229500D03*
X121991500Y-106722000D03*
X98560000Y-72114501D03*
X115006500Y-91164500D03*
X99068000Y-66713972D03*
X119648000Y-100921210D03*
X120721500Y-108754000D03*
X110053500Y-76559500D03*
X98577000Y-76571500D03*
X110053500Y-74337000D03*
X98577000Y-74351500D03*
X162695000Y-95101500D03*
X150439500Y-89386499D03*
X144787992Y-95673000D03*
X145486500Y-106468000D03*
X145690000Y-96562000D03*
X145486500Y-104563000D03*
X158758000Y-99292500D03*
X156789504Y-99292494D03*
X154694000Y-99292504D03*
X152535000Y-99292500D03*
X117165498Y-77448500D03*
X139644500Y-85386002D03*
X141168500Y-93387000D03*
X141041500Y-86973500D03*
X158821500Y-90338996D03*
X158948500Y-74598221D03*
X153741500Y-75797500D03*
X168283000Y-97260500D03*
X150439500Y-91736000D03*
X166374390Y-87386784D03*
X152408000Y-90593000D03*
X102116000Y-63835000D03*
X92654500Y-83367000D03*
X93988000Y-91418500D03*
X127262000Y-95609500D03*
X140026000Y-75734500D03*
X147290000Y-98149500D03*
X151264998Y-105007500D03*
X134691500Y-107484000D03*
X135072016Y-101452000D03*
X157487992Y-68812492D03*
X125368500Y-77321506D03*
X157488000Y-71797000D03*
X165933500Y-102912000D03*
X169869000Y-93450500D03*
X165947000Y-89005500D03*
X169869000Y-82973000D03*
X167457500Y-79671000D03*
X136342500Y-101451500D03*
X158313500Y-65447000D03*
X132976998Y-67987000D03*
X120986500Y-66526500D03*
X120975500Y-67733000D03*
X159138998Y-71797000D03*
X176728500Y-86783000D03*
X176665000Y-97260500D03*
X171521500Y-89005500D03*
X171521500Y-92244000D03*
X135095000Y-72098500D03*
X171585000Y-79671000D03*
X178379500Y-82973000D03*
X172474000Y-73003500D03*
X178443000Y-93450500D03*
X178443000Y-72559000D03*
X126840020Y-82893500D03*
X173426500Y-93450506D03*
X172474000Y-83477390D03*
X146490000Y-97324000D03*
X151264998Y-107166500D03*
X149677504Y-80052000D03*
X149677500Y-83925500D03*
X153360500Y-81576000D03*
X157995998Y-78527998D03*
X103767000Y-103356500D03*
X103767000Y-101261000D03*
X124087000Y-67733000D03*
X125103000Y-110024000D03*
X125103000Y-111040000D03*
X123833000Y-111040000D03*
X123833000Y-110024000D03*
X175840000Y-102991500D03*
X102098400Y-62239200D03*
X133233000Y-102727000D03*
X102180000Y-71510300D03*
X173647267Y-103703962D03*
X172292084Y-105569212D03*
X172292084Y-107874788D03*
X173647267Y-109740038D03*
X175840000Y-110452500D03*
X178032733Y-109740038D03*
X179387916Y-107874788D03*
X179387916Y-105569212D03*
X178032733Y-103703962D03*
X159456500Y-103737500D03*
X115768500Y-112183000D03*
X111958500Y-112183000D03*
X128024000Y-112183000D03*
X130183000Y-112183000D03*
X92400506Y-62454400D03*
X150047211Y-101436973D03*
X145486500Y-107611000D03*
X143518000Y-71035000D03*
X148979000Y-99419500D03*
X172474000Y-98403496D03*
X143899000Y-87799002D03*
X139805694Y-101451500D03*
X181681500Y-76369000D03*
X151138000Y-71987500D03*
X148598000Y-75797500D03*
X124087000Y-66526500D03*
X172474000Y-87862500D03*
X177871500Y-78591500D03*
X163266500Y-89005504D03*
X160726000Y-95101990D03*
X148090000Y-91863004D03*
X128443500Y-77321500D03*
X103767000Y-105579000D03*
X127262000Y-97768504D03*
X111006000Y-102213500D03*
X114816008Y-100054500D03*
X114752500Y-73434000D03*
X114727518Y-77956500D03*
X114727518Y-76813500D03*
X115832000Y-73434000D03*
X146185000Y-68685500D03*
X145738884Y-71036622D03*
X106244000Y-75416500D03*
X101608000Y-75226000D03*
X92455000Y-98601468D03*
X92905000Y-85101484D03*
X103255000Y-85101484D03*
X107555012Y-96476710D03*
X117139000Y-97209500D03*
X136914000Y-76051500D03*
X120657994Y-79671000D03*
X109736000Y-67796490D03*
X121991500Y-72685996D03*
X147260890Y-83925500D03*
X154186000Y-67606000D03*
X163139500Y-67606000D03*
X151421061Y-88436937D03*
X172474000Y-77512000D03*
X109990000Y-79925000D03*
X126750982Y-85259000D03*
X133167500Y-99277956D03*
X118498992Y-109893390D03*
X118053500Y-100054000D03*
X115768500Y-108627000D03*
X114816000Y-102213500D03*
X121251290Y-104817000D03*
X167989000Y-75012500D03*
X157551500Y-84624000D03*
X167838500Y-71987504D03*
X159901000Y-79925000D03*
X159012000Y-88497500D03*
X155646502Y-83798502D03*
M02*
