G04 #@! TF.GenerationSoftware,KiCad,Pcbnew,5.1.10-88a1d61d58~90~ubuntu20.04.1*
G04 #@! TF.CreationDate,2021-10-17T22:22:07+02:00*
G04 #@! TF.ProjectId,PSLab,50534c61-622e-46b6-9963-61645f706362,v6.1*
G04 #@! TF.SameCoordinates,Original*
G04 #@! TF.FileFunction,Copper,L4,Bot*
G04 #@! TF.FilePolarity,Positive*
%FSLAX46Y46*%
G04 Gerber Fmt 4.6, Leading zero omitted, Abs format (unit mm)*
G04 Created by KiCad (PCBNEW 5.1.10-88a1d61d58~90~ubuntu20.04.1) date 2021-10-17 22:22:07*
%MOMM*%
%LPD*%
G01*
G04 APERTURE LIST*
G04 #@! TA.AperFunction,EtchedComponent*
%ADD10C,0.010000*%
G04 #@! TD*
G04 #@! TA.AperFunction,ComponentPad*
%ADD11O,1.700000X1.700000*%
G04 #@! TD*
G04 #@! TA.AperFunction,ComponentPad*
%ADD12R,1.700000X1.700000*%
G04 #@! TD*
G04 #@! TA.AperFunction,ComponentPad*
%ADD13C,0.500000*%
G04 #@! TD*
G04 #@! TA.AperFunction,SMDPad,CuDef*
%ADD14R,3.400000X2.400000*%
G04 #@! TD*
G04 #@! TA.AperFunction,SMDPad,CuDef*
%ADD15R,1.000000X1.000000*%
G04 #@! TD*
G04 #@! TA.AperFunction,ComponentPad*
%ADD16R,1.727200X1.727200*%
G04 #@! TD*
G04 #@! TA.AperFunction,ComponentPad*
%ADD17O,1.727200X1.727200*%
G04 #@! TD*
G04 #@! TA.AperFunction,ComponentPad*
%ADD18O,2.100000X1.000000*%
G04 #@! TD*
G04 #@! TA.AperFunction,ComponentPad*
%ADD19O,2.000000X1.000000*%
G04 #@! TD*
G04 #@! TA.AperFunction,ComponentPad*
%ADD20C,5.600000*%
G04 #@! TD*
G04 #@! TA.AperFunction,ViaPad*
%ADD21C,0.914400*%
G04 #@! TD*
G04 #@! TA.AperFunction,Conductor*
%ADD22C,0.304800*%
G04 #@! TD*
G04 #@! TA.AperFunction,Conductor*
%ADD23C,0.508000*%
G04 #@! TD*
G04 #@! TA.AperFunction,Conductor*
%ADD24C,0.406400*%
G04 #@! TD*
G04 #@! TA.AperFunction,NonConductor*
%ADD25C,0.030000*%
G04 #@! TD*
G04 #@! TA.AperFunction,NonConductor*
%ADD26C,0.100000*%
G04 #@! TD*
G04 APERTURE END LIST*
D10*
G36*
X187132941Y-61440709D02*
G01*
X187133890Y-61509854D01*
X187121847Y-61569497D01*
X187097115Y-61618929D01*
X187060000Y-61657440D01*
X187032638Y-61674638D01*
X187010665Y-61684815D01*
X186989063Y-61691422D01*
X186962984Y-61695326D01*
X186927578Y-61697393D01*
X186901482Y-61698079D01*
X186849269Y-61697910D01*
X186810166Y-61694742D01*
X186780563Y-61688241D01*
X186775259Y-61686438D01*
X186735476Y-61665079D01*
X186700261Y-61633624D01*
X186674424Y-61596912D01*
X186666047Y-61576548D01*
X186660479Y-61547823D01*
X186657017Y-61509794D01*
X186656180Y-61480367D01*
X186740334Y-61480367D01*
X186740334Y-61501135D01*
X186748046Y-61538246D01*
X186770446Y-61567597D01*
X186795194Y-61583065D01*
X186831179Y-61593526D01*
X186876349Y-61598404D01*
X186923877Y-61597625D01*
X186966935Y-61591115D01*
X186986021Y-61585151D01*
X187018923Y-61564044D01*
X187039276Y-61533491D01*
X187045134Y-61501954D01*
X187045134Y-61480367D01*
X186740334Y-61480367D01*
X186656180Y-61480367D01*
X186655857Y-61469022D01*
X186657192Y-61432073D01*
X186661003Y-61406284D01*
X186666108Y-61387234D01*
X187127462Y-61387234D01*
X187132941Y-61440709D01*
G37*
X187132941Y-61440709D02*
X187133890Y-61509854D01*
X187121847Y-61569497D01*
X187097115Y-61618929D01*
X187060000Y-61657440D01*
X187032638Y-61674638D01*
X187010665Y-61684815D01*
X186989063Y-61691422D01*
X186962984Y-61695326D01*
X186927578Y-61697393D01*
X186901482Y-61698079D01*
X186849269Y-61697910D01*
X186810166Y-61694742D01*
X186780563Y-61688241D01*
X186775259Y-61686438D01*
X186735476Y-61665079D01*
X186700261Y-61633624D01*
X186674424Y-61596912D01*
X186666047Y-61576548D01*
X186660479Y-61547823D01*
X186657017Y-61509794D01*
X186656180Y-61480367D01*
X186740334Y-61480367D01*
X186740334Y-61501135D01*
X186748046Y-61538246D01*
X186770446Y-61567597D01*
X186795194Y-61583065D01*
X186831179Y-61593526D01*
X186876349Y-61598404D01*
X186923877Y-61597625D01*
X186966935Y-61591115D01*
X186986021Y-61585151D01*
X187018923Y-61564044D01*
X187039276Y-61533491D01*
X187045134Y-61501954D01*
X187045134Y-61480367D01*
X186740334Y-61480367D01*
X186656180Y-61480367D01*
X186655857Y-61469022D01*
X186657192Y-61432073D01*
X186661003Y-61406284D01*
X186666108Y-61387234D01*
X187127462Y-61387234D01*
X187132941Y-61440709D01*
G36*
X187000539Y-61747310D02*
G01*
X187039743Y-61758089D01*
X187041883Y-61759031D01*
X187081691Y-61785981D01*
X187111526Y-61824839D01*
X187130588Y-61873277D01*
X187138077Y-61928969D01*
X187133192Y-61989589D01*
X187128553Y-62010978D01*
X187118840Y-62049555D01*
X187081568Y-62045354D01*
X187058078Y-62041951D01*
X187042712Y-62038319D01*
X187040189Y-62037045D01*
X187039187Y-62027132D01*
X187040822Y-62005701D01*
X187043719Y-61984231D01*
X187046822Y-61951118D01*
X187046435Y-61919476D01*
X187044430Y-61904797D01*
X187034326Y-61879922D01*
X187018186Y-61858534D01*
X187000447Y-61845882D01*
X186993396Y-61844434D01*
X186990644Y-61852385D01*
X186988343Y-61874184D01*
X186986696Y-61906745D01*
X186985907Y-61946984D01*
X186985867Y-61958734D01*
X186985867Y-62073034D01*
X186945650Y-62072167D01*
X186914945Y-62070268D01*
X186886659Y-62066564D01*
X186879446Y-62065082D01*
X186831989Y-62046313D01*
X186796760Y-62015980D01*
X186774228Y-61974703D01*
X186764862Y-61923100D01*
X186764612Y-61913242D01*
X186764823Y-61911616D01*
X186849227Y-61911616D01*
X186853752Y-61938336D01*
X186869217Y-61958253D01*
X186887879Y-61969433D01*
X186899820Y-61970273D01*
X186906470Y-61958998D01*
X186909254Y-61933835D01*
X186909667Y-61907934D01*
X186908770Y-61877582D01*
X186906398Y-61855129D01*
X186903027Y-61844711D01*
X186902342Y-61844434D01*
X186891228Y-61849228D01*
X186874121Y-61860882D01*
X186872709Y-61861981D01*
X186855618Y-61884180D01*
X186849227Y-61911616D01*
X186764823Y-61911616D01*
X186771620Y-61859313D01*
X186793009Y-61814275D01*
X186828499Y-61778553D01*
X186869178Y-61755983D01*
X186907695Y-61746124D01*
X186954003Y-61743278D01*
X187000539Y-61747310D01*
G37*
X187000539Y-61747310D02*
X187039743Y-61758089D01*
X187041883Y-61759031D01*
X187081691Y-61785981D01*
X187111526Y-61824839D01*
X187130588Y-61873277D01*
X187138077Y-61928969D01*
X187133192Y-61989589D01*
X187128553Y-62010978D01*
X187118840Y-62049555D01*
X187081568Y-62045354D01*
X187058078Y-62041951D01*
X187042712Y-62038319D01*
X187040189Y-62037045D01*
X187039187Y-62027132D01*
X187040822Y-62005701D01*
X187043719Y-61984231D01*
X187046822Y-61951118D01*
X187046435Y-61919476D01*
X187044430Y-61904797D01*
X187034326Y-61879922D01*
X187018186Y-61858534D01*
X187000447Y-61845882D01*
X186993396Y-61844434D01*
X186990644Y-61852385D01*
X186988343Y-61874184D01*
X186986696Y-61906745D01*
X186985907Y-61946984D01*
X186985867Y-61958734D01*
X186985867Y-62073034D01*
X186945650Y-62072167D01*
X186914945Y-62070268D01*
X186886659Y-62066564D01*
X186879446Y-62065082D01*
X186831989Y-62046313D01*
X186796760Y-62015980D01*
X186774228Y-61974703D01*
X186764862Y-61923100D01*
X186764612Y-61913242D01*
X186764823Y-61911616D01*
X186849227Y-61911616D01*
X186853752Y-61938336D01*
X186869217Y-61958253D01*
X186887879Y-61969433D01*
X186899820Y-61970273D01*
X186906470Y-61958998D01*
X186909254Y-61933835D01*
X186909667Y-61907934D01*
X186908770Y-61877582D01*
X186906398Y-61855129D01*
X186903027Y-61844711D01*
X186902342Y-61844434D01*
X186891228Y-61849228D01*
X186874121Y-61860882D01*
X186872709Y-61861981D01*
X186855618Y-61884180D01*
X186849227Y-61911616D01*
X186764823Y-61911616D01*
X186771620Y-61859313D01*
X186793009Y-61814275D01*
X186828499Y-61778553D01*
X186869178Y-61755983D01*
X186907695Y-61746124D01*
X186954003Y-61743278D01*
X187000539Y-61747310D01*
G36*
X188340534Y-61734367D02*
G01*
X188078067Y-61734367D01*
X188077899Y-61774584D01*
X188072175Y-61859453D01*
X188055931Y-61932634D01*
X188029429Y-61993558D01*
X187992930Y-62041661D01*
X187946697Y-62076373D01*
X187936151Y-62081733D01*
X187897808Y-62094240D01*
X187849334Y-62102058D01*
X187796975Y-62104805D01*
X187746976Y-62102103D01*
X187711574Y-62095401D01*
X187663751Y-62075295D01*
X187624151Y-62043365D01*
X187590512Y-61997571D01*
X187578534Y-61975541D01*
X187548900Y-61916802D01*
X187548900Y-61768434D01*
X187549147Y-61734367D01*
X187688600Y-61734367D01*
X187688600Y-61794471D01*
X187693099Y-61850027D01*
X187706655Y-61891460D01*
X187729363Y-61919013D01*
X187738397Y-61924841D01*
X187766227Y-61933550D01*
X187802560Y-61936775D01*
X187839878Y-61934524D01*
X187870665Y-61926802D01*
X187875144Y-61924724D01*
X187901156Y-61903484D01*
X187919150Y-61870089D01*
X187929755Y-61823124D01*
X187932379Y-61795750D01*
X187936360Y-61734367D01*
X187688600Y-61734367D01*
X187549147Y-61734367D01*
X187549264Y-61718326D01*
X187550273Y-61672667D01*
X187551801Y-61634761D01*
X187553723Y-61607912D01*
X187555411Y-61596784D01*
X187561923Y-61573500D01*
X188340534Y-61573500D01*
X188340534Y-61734367D01*
G37*
X188340534Y-61734367D02*
X188078067Y-61734367D01*
X188077899Y-61774584D01*
X188072175Y-61859453D01*
X188055931Y-61932634D01*
X188029429Y-61993558D01*
X187992930Y-62041661D01*
X187946697Y-62076373D01*
X187936151Y-62081733D01*
X187897808Y-62094240D01*
X187849334Y-62102058D01*
X187796975Y-62104805D01*
X187746976Y-62102103D01*
X187711574Y-62095401D01*
X187663751Y-62075295D01*
X187624151Y-62043365D01*
X187590512Y-61997571D01*
X187578534Y-61975541D01*
X187548900Y-61916802D01*
X187548900Y-61768434D01*
X187549147Y-61734367D01*
X187688600Y-61734367D01*
X187688600Y-61794471D01*
X187693099Y-61850027D01*
X187706655Y-61891460D01*
X187729363Y-61919013D01*
X187738397Y-61924841D01*
X187766227Y-61933550D01*
X187802560Y-61936775D01*
X187839878Y-61934524D01*
X187870665Y-61926802D01*
X187875144Y-61924724D01*
X187901156Y-61903484D01*
X187919150Y-61870089D01*
X187929755Y-61823124D01*
X187932379Y-61795750D01*
X187936360Y-61734367D01*
X187688600Y-61734367D01*
X187549147Y-61734367D01*
X187549264Y-61718326D01*
X187550273Y-61672667D01*
X187551801Y-61634761D01*
X187553723Y-61607912D01*
X187555411Y-61596784D01*
X187561923Y-61573500D01*
X188340534Y-61573500D01*
X188340534Y-61734367D01*
G36*
X187125609Y-62186322D02*
G01*
X187135542Y-62240677D01*
X187136310Y-62292868D01*
X187128581Y-62339928D01*
X187113025Y-62378894D01*
X187090311Y-62406799D01*
X187073580Y-62416975D01*
X187033353Y-62427920D01*
X186998831Y-62423806D01*
X186967376Y-62404311D01*
X186966950Y-62403932D01*
X186943651Y-62374974D01*
X186920898Y-62330741D01*
X186913614Y-62312916D01*
X186899403Y-62278625D01*
X186888172Y-62257960D01*
X186878228Y-62248272D01*
X186871280Y-62246600D01*
X186861359Y-62249062D01*
X186855755Y-62259091D01*
X186852788Y-62280651D01*
X186852039Y-62292057D01*
X186852244Y-62323583D01*
X186855687Y-62352507D01*
X186858501Y-62363489D01*
X186863431Y-62383994D01*
X186858680Y-62396093D01*
X186841676Y-62402373D01*
X186817308Y-62404962D01*
X186793847Y-62405582D01*
X186781609Y-62401366D01*
X186774996Y-62389438D01*
X186772730Y-62382067D01*
X186767496Y-62352049D01*
X186765365Y-62313530D01*
X186766195Y-62272694D01*
X186769842Y-62235726D01*
X186776161Y-62208810D01*
X186776795Y-62207237D01*
X186797443Y-62172903D01*
X186826046Y-62152201D01*
X186865787Y-62142829D01*
X186865876Y-62142820D01*
X186892968Y-62141699D01*
X186911881Y-62146595D01*
X186931019Y-62160103D01*
X186936108Y-62164500D01*
X186959940Y-62192669D01*
X186979843Y-62233040D01*
X186985341Y-62247996D01*
X186999066Y-62285486D01*
X187010003Y-62309327D01*
X187019779Y-62322216D01*
X187030025Y-62326848D01*
X187033087Y-62327034D01*
X187043838Y-62319422D01*
X187049893Y-62298811D01*
X187051024Y-62268531D01*
X187047002Y-62231917D01*
X187041396Y-62205833D01*
X187034446Y-62176974D01*
X187030151Y-62155357D01*
X187029375Y-62145373D01*
X187029477Y-62145221D01*
X187038873Y-62142383D01*
X187059305Y-62138470D01*
X187071497Y-62136537D01*
X187110560Y-62130723D01*
X187125609Y-62186322D01*
G37*
X187125609Y-62186322D02*
X187135542Y-62240677D01*
X187136310Y-62292868D01*
X187128581Y-62339928D01*
X187113025Y-62378894D01*
X187090311Y-62406799D01*
X187073580Y-62416975D01*
X187033353Y-62427920D01*
X186998831Y-62423806D01*
X186967376Y-62404311D01*
X186966950Y-62403932D01*
X186943651Y-62374974D01*
X186920898Y-62330741D01*
X186913614Y-62312916D01*
X186899403Y-62278625D01*
X186888172Y-62257960D01*
X186878228Y-62248272D01*
X186871280Y-62246600D01*
X186861359Y-62249062D01*
X186855755Y-62259091D01*
X186852788Y-62280651D01*
X186852039Y-62292057D01*
X186852244Y-62323583D01*
X186855687Y-62352507D01*
X186858501Y-62363489D01*
X186863431Y-62383994D01*
X186858680Y-62396093D01*
X186841676Y-62402373D01*
X186817308Y-62404962D01*
X186793847Y-62405582D01*
X186781609Y-62401366D01*
X186774996Y-62389438D01*
X186772730Y-62382067D01*
X186767496Y-62352049D01*
X186765365Y-62313530D01*
X186766195Y-62272694D01*
X186769842Y-62235726D01*
X186776161Y-62208810D01*
X186776795Y-62207237D01*
X186797443Y-62172903D01*
X186826046Y-62152201D01*
X186865787Y-62142829D01*
X186865876Y-62142820D01*
X186892968Y-62141699D01*
X186911881Y-62146595D01*
X186931019Y-62160103D01*
X186936108Y-62164500D01*
X186959940Y-62192669D01*
X186979843Y-62233040D01*
X186985341Y-62247996D01*
X186999066Y-62285486D01*
X187010003Y-62309327D01*
X187019779Y-62322216D01*
X187030025Y-62326848D01*
X187033087Y-62327034D01*
X187043838Y-62319422D01*
X187049893Y-62298811D01*
X187051024Y-62268531D01*
X187047002Y-62231917D01*
X187041396Y-62205833D01*
X187034446Y-62176974D01*
X187030151Y-62155357D01*
X187029375Y-62145373D01*
X187029477Y-62145221D01*
X187038873Y-62142383D01*
X187059305Y-62138470D01*
X187071497Y-62136537D01*
X187110560Y-62130723D01*
X187125609Y-62186322D01*
G36*
X186705563Y-62570882D02*
G01*
X186717855Y-62579584D01*
X186728981Y-62602113D01*
X186731349Y-62630244D01*
X186725085Y-62656330D01*
X186716383Y-62668621D01*
X186692073Y-62680456D01*
X186662917Y-62681148D01*
X186636586Y-62670958D01*
X186630267Y-62665700D01*
X186616968Y-62642548D01*
X186613734Y-62614472D01*
X186620685Y-62588665D01*
X186628817Y-62578112D01*
X186651347Y-62566986D01*
X186679478Y-62564618D01*
X186705563Y-62570882D01*
G37*
X186705563Y-62570882D02*
X186717855Y-62579584D01*
X186728981Y-62602113D01*
X186731349Y-62630244D01*
X186725085Y-62656330D01*
X186716383Y-62668621D01*
X186692073Y-62680456D01*
X186662917Y-62681148D01*
X186636586Y-62670958D01*
X186630267Y-62665700D01*
X186616968Y-62642548D01*
X186613734Y-62614472D01*
X186620685Y-62588665D01*
X186628817Y-62578112D01*
X186651347Y-62566986D01*
X186679478Y-62564618D01*
X186705563Y-62570882D01*
G36*
X188214605Y-62198008D02*
G01*
X188262584Y-62217417D01*
X188300345Y-62249928D01*
X188327961Y-62295669D01*
X188345506Y-62354773D01*
X188353054Y-62427371D01*
X188350677Y-62513594D01*
X188348823Y-62534467D01*
X188344438Y-62576394D01*
X188339897Y-62615661D01*
X188335828Y-62647011D01*
X188333593Y-62661467D01*
X188327554Y-62695334D01*
X188120261Y-62696673D01*
X188060781Y-62696742D01*
X188005275Y-62696214D01*
X187956530Y-62695164D01*
X187917333Y-62693663D01*
X187890469Y-62691786D01*
X187880942Y-62690398D01*
X187827841Y-62670802D01*
X187786090Y-62639647D01*
X187755293Y-62596369D01*
X187735053Y-62540402D01*
X187724975Y-62471180D01*
X187724734Y-62467427D01*
X187724408Y-62437933D01*
X187726101Y-62401100D01*
X187729364Y-62360924D01*
X187733751Y-62321404D01*
X187738813Y-62286536D01*
X187744102Y-62260318D01*
X187749170Y-62246746D01*
X187749499Y-62246379D01*
X187758356Y-62246580D01*
X187778779Y-62249393D01*
X187805772Y-62253909D01*
X187834337Y-62259215D01*
X187859477Y-62264404D01*
X187876197Y-62268563D01*
X187880091Y-62270168D01*
X187879826Y-62279262D01*
X187875743Y-62298495D01*
X187873941Y-62305307D01*
X187868102Y-62336453D01*
X187864872Y-62374630D01*
X187864244Y-62414578D01*
X187866213Y-62451035D01*
X187870773Y-62478738D01*
X187874145Y-62487900D01*
X187897590Y-62518282D01*
X187927489Y-62535498D01*
X187946834Y-62538531D01*
X187972234Y-62538738D01*
X187972233Y-62538700D01*
X188084849Y-62538700D01*
X188224124Y-62538700D01*
X188220349Y-62466781D01*
X188215048Y-62417918D01*
X188204438Y-62383810D01*
X188187521Y-62362834D01*
X188163296Y-62353369D01*
X188149870Y-62352434D01*
X188125351Y-62355969D01*
X188108061Y-62368029D01*
X188096780Y-62390798D01*
X188090287Y-62426456D01*
X188087808Y-62463377D01*
X188084849Y-62538700D01*
X187972233Y-62538700D01*
X187969534Y-62458223D01*
X187972006Y-62381136D01*
X187984930Y-62316900D01*
X188008175Y-62265699D01*
X188041610Y-62227721D01*
X188085104Y-62203152D01*
X188138527Y-62192179D01*
X188156333Y-62191567D01*
X188214605Y-62198008D01*
G37*
X188214605Y-62198008D02*
X188262584Y-62217417D01*
X188300345Y-62249928D01*
X188327961Y-62295669D01*
X188345506Y-62354773D01*
X188353054Y-62427371D01*
X188350677Y-62513594D01*
X188348823Y-62534467D01*
X188344438Y-62576394D01*
X188339897Y-62615661D01*
X188335828Y-62647011D01*
X188333593Y-62661467D01*
X188327554Y-62695334D01*
X188120261Y-62696673D01*
X188060781Y-62696742D01*
X188005275Y-62696214D01*
X187956530Y-62695164D01*
X187917333Y-62693663D01*
X187890469Y-62691786D01*
X187880942Y-62690398D01*
X187827841Y-62670802D01*
X187786090Y-62639647D01*
X187755293Y-62596369D01*
X187735053Y-62540402D01*
X187724975Y-62471180D01*
X187724734Y-62467427D01*
X187724408Y-62437933D01*
X187726101Y-62401100D01*
X187729364Y-62360924D01*
X187733751Y-62321404D01*
X187738813Y-62286536D01*
X187744102Y-62260318D01*
X187749170Y-62246746D01*
X187749499Y-62246379D01*
X187758356Y-62246580D01*
X187778779Y-62249393D01*
X187805772Y-62253909D01*
X187834337Y-62259215D01*
X187859477Y-62264404D01*
X187876197Y-62268563D01*
X187880091Y-62270168D01*
X187879826Y-62279262D01*
X187875743Y-62298495D01*
X187873941Y-62305307D01*
X187868102Y-62336453D01*
X187864872Y-62374630D01*
X187864244Y-62414578D01*
X187866213Y-62451035D01*
X187870773Y-62478738D01*
X187874145Y-62487900D01*
X187897590Y-62518282D01*
X187927489Y-62535498D01*
X187946834Y-62538531D01*
X187972234Y-62538738D01*
X187972233Y-62538700D01*
X188084849Y-62538700D01*
X188224124Y-62538700D01*
X188220349Y-62466781D01*
X188215048Y-62417918D01*
X188204438Y-62383810D01*
X188187521Y-62362834D01*
X188163296Y-62353369D01*
X188149870Y-62352434D01*
X188125351Y-62355969D01*
X188108061Y-62368029D01*
X188096780Y-62390798D01*
X188090287Y-62426456D01*
X188087808Y-62463377D01*
X188084849Y-62538700D01*
X187972233Y-62538700D01*
X187969534Y-62458223D01*
X187972006Y-62381136D01*
X187984930Y-62316900D01*
X188008175Y-62265699D01*
X188041610Y-62227721D01*
X188085104Y-62203152D01*
X188138527Y-62192179D01*
X188156333Y-62191567D01*
X188214605Y-62198008D01*
G36*
X186854634Y-62492134D02*
G01*
X186859712Y-62589500D01*
X186950306Y-62589686D01*
X186997353Y-62590605D01*
X187031713Y-62593492D01*
X187057571Y-62598876D01*
X187075409Y-62605545D01*
X187108783Y-62628552D01*
X187129194Y-62661697D01*
X187136938Y-62705610D01*
X187135990Y-62733675D01*
X187130701Y-62773938D01*
X187122046Y-62799576D01*
X187107694Y-62812866D01*
X187085317Y-62816086D01*
X187055717Y-62812125D01*
X187044184Y-62809531D01*
X187038799Y-62804590D01*
X187038586Y-62792940D01*
X187042570Y-62770215D01*
X187044328Y-62761157D01*
X187047201Y-62732124D01*
X187041681Y-62712091D01*
X187039245Y-62708240D01*
X187033460Y-62701606D01*
X187025088Y-62696940D01*
X187011356Y-62693900D01*
X186989490Y-62692143D01*
X186956714Y-62691325D01*
X186910256Y-62691103D01*
X186900720Y-62691100D01*
X186774200Y-62691100D01*
X186774200Y-62486972D01*
X186854634Y-62492134D01*
G37*
X186854634Y-62492134D02*
X186859712Y-62589500D01*
X186950306Y-62589686D01*
X186997353Y-62590605D01*
X187031713Y-62593492D01*
X187057571Y-62598876D01*
X187075409Y-62605545D01*
X187108783Y-62628552D01*
X187129194Y-62661697D01*
X187136938Y-62705610D01*
X187135990Y-62733675D01*
X187130701Y-62773938D01*
X187122046Y-62799576D01*
X187107694Y-62812866D01*
X187085317Y-62816086D01*
X187055717Y-62812125D01*
X187044184Y-62809531D01*
X187038799Y-62804590D01*
X187038586Y-62792940D01*
X187042570Y-62770215D01*
X187044328Y-62761157D01*
X187047201Y-62732124D01*
X187041681Y-62712091D01*
X187039245Y-62708240D01*
X187033460Y-62701606D01*
X187025088Y-62696940D01*
X187011356Y-62693900D01*
X186989490Y-62692143D01*
X186956714Y-62691325D01*
X186910256Y-62691103D01*
X186900720Y-62691100D01*
X186774200Y-62691100D01*
X186774200Y-62486972D01*
X186854634Y-62492134D01*
G36*
X186978405Y-62865423D02*
G01*
X187021520Y-62875827D01*
X187043653Y-62886171D01*
X187075420Y-62911745D01*
X187094552Y-62943644D01*
X187102469Y-62984975D01*
X187102458Y-63014950D01*
X187101707Y-63046887D01*
X187103704Y-63064884D01*
X187108875Y-63071775D01*
X187111030Y-63072100D01*
X187136799Y-63064760D01*
X187155212Y-63044425D01*
X187165676Y-63013627D01*
X187167594Y-62974896D01*
X187160374Y-62930763D01*
X187151032Y-62901756D01*
X187151432Y-62892259D01*
X187163171Y-62884748D01*
X187184793Y-62878260D01*
X187209224Y-62873303D01*
X187226706Y-62871930D01*
X187230856Y-62872797D01*
X187237691Y-62884720D01*
X187244089Y-62908951D01*
X187249415Y-62940863D01*
X187253032Y-62975832D01*
X187254303Y-63009233D01*
X187252980Y-63033627D01*
X187239392Y-63085286D01*
X187213046Y-63126103D01*
X187180571Y-63152076D01*
X187169426Y-63157879D01*
X187156711Y-63162304D01*
X187139960Y-63165586D01*
X187116704Y-63167957D01*
X187084478Y-63169650D01*
X187040814Y-63170898D01*
X186983245Y-63171934D01*
X186967945Y-63172164D01*
X186907596Y-63172967D01*
X186862013Y-63173260D01*
X186829033Y-63172899D01*
X186806494Y-63171738D01*
X186792234Y-63169633D01*
X186784088Y-63166438D01*
X186779894Y-63162009D01*
X186778676Y-63159464D01*
X186775329Y-63144265D01*
X186771831Y-63117113D01*
X186768777Y-63082973D01*
X186767909Y-63070038D01*
X186768105Y-63039466D01*
X186846704Y-63039466D01*
X186847359Y-63056059D01*
X186856582Y-63065743D01*
X186876731Y-63070133D01*
X186910165Y-63070841D01*
X186934014Y-63070277D01*
X187015500Y-63067867D01*
X187018022Y-63033562D01*
X187014766Y-63001674D01*
X186998808Y-62979964D01*
X186969096Y-62967294D01*
X186954471Y-62964678D01*
X186915675Y-62965277D01*
X186882980Y-62976785D01*
X186860052Y-62997420D01*
X186852260Y-63014352D01*
X186846704Y-63039466D01*
X186768105Y-63039466D01*
X186768315Y-63006926D01*
X186778590Y-62956791D01*
X186799497Y-62918337D01*
X186831799Y-62890266D01*
X186876257Y-62871280D01*
X186886305Y-62868551D01*
X186931019Y-62862738D01*
X186978405Y-62865423D01*
G37*
X186978405Y-62865423D02*
X187021520Y-62875827D01*
X187043653Y-62886171D01*
X187075420Y-62911745D01*
X187094552Y-62943644D01*
X187102469Y-62984975D01*
X187102458Y-63014950D01*
X187101707Y-63046887D01*
X187103704Y-63064884D01*
X187108875Y-63071775D01*
X187111030Y-63072100D01*
X187136799Y-63064760D01*
X187155212Y-63044425D01*
X187165676Y-63013627D01*
X187167594Y-62974896D01*
X187160374Y-62930763D01*
X187151032Y-62901756D01*
X187151432Y-62892259D01*
X187163171Y-62884748D01*
X187184793Y-62878260D01*
X187209224Y-62873303D01*
X187226706Y-62871930D01*
X187230856Y-62872797D01*
X187237691Y-62884720D01*
X187244089Y-62908951D01*
X187249415Y-62940863D01*
X187253032Y-62975832D01*
X187254303Y-63009233D01*
X187252980Y-63033627D01*
X187239392Y-63085286D01*
X187213046Y-63126103D01*
X187180571Y-63152076D01*
X187169426Y-63157879D01*
X187156711Y-63162304D01*
X187139960Y-63165586D01*
X187116704Y-63167957D01*
X187084478Y-63169650D01*
X187040814Y-63170898D01*
X186983245Y-63171934D01*
X186967945Y-63172164D01*
X186907596Y-63172967D01*
X186862013Y-63173260D01*
X186829033Y-63172899D01*
X186806494Y-63171738D01*
X186792234Y-63169633D01*
X186784088Y-63166438D01*
X186779894Y-63162009D01*
X186778676Y-63159464D01*
X186775329Y-63144265D01*
X186771831Y-63117113D01*
X186768777Y-63082973D01*
X186767909Y-63070038D01*
X186768105Y-63039466D01*
X186846704Y-63039466D01*
X186847359Y-63056059D01*
X186856582Y-63065743D01*
X186876731Y-63070133D01*
X186910165Y-63070841D01*
X186934014Y-63070277D01*
X187015500Y-63067867D01*
X187018022Y-63033562D01*
X187014766Y-63001674D01*
X186998808Y-62979964D01*
X186969096Y-62967294D01*
X186954471Y-62964678D01*
X186915675Y-62965277D01*
X186882980Y-62976785D01*
X186860052Y-62997420D01*
X186852260Y-63014352D01*
X186846704Y-63039466D01*
X186768105Y-63039466D01*
X186768315Y-63006926D01*
X186778590Y-62956791D01*
X186799497Y-62918337D01*
X186831799Y-62890266D01*
X186876257Y-62871280D01*
X186886305Y-62868551D01*
X186931019Y-62862738D01*
X186978405Y-62865423D01*
G36*
X188083442Y-62806540D02*
G01*
X188118570Y-62808169D01*
X188145454Y-62811614D01*
X188168428Y-62817398D01*
X188188134Y-62824548D01*
X188245397Y-62854383D01*
X188290006Y-62893469D01*
X188322323Y-62942557D01*
X188342713Y-63002400D01*
X188351537Y-63073749D01*
X188349160Y-63157356D01*
X188349139Y-63157598D01*
X188344830Y-63198272D01*
X188339386Y-63237701D01*
X188333764Y-63269255D01*
X188331878Y-63277417D01*
X188321590Y-63317634D01*
X187454714Y-63317634D01*
X187467431Y-63237200D01*
X187480147Y-63156767D01*
X187614913Y-63156767D01*
X187665413Y-63156643D01*
X187701289Y-63156095D01*
X187724850Y-63154858D01*
X187738403Y-63152666D01*
X187744257Y-63149254D01*
X187744720Y-63144358D01*
X187743923Y-63141950D01*
X187729969Y-63087305D01*
X187729208Y-63070666D01*
X187871256Y-63070666D01*
X187873778Y-63100377D01*
X187879337Y-63126955D01*
X187881630Y-63133484D01*
X187891381Y-63156767D01*
X188204744Y-63156767D01*
X188210185Y-63135089D01*
X188212874Y-63102617D01*
X188208188Y-63065718D01*
X188197531Y-63033370D01*
X188193049Y-63025387D01*
X188170605Y-63001775D01*
X188137892Y-62985459D01*
X188092695Y-62975589D01*
X188054667Y-62972177D01*
X187989949Y-62972406D01*
X187939649Y-62981080D01*
X187903395Y-62998399D01*
X187880814Y-63024562D01*
X187871533Y-63059770D01*
X187871256Y-63070666D01*
X187729208Y-63070666D01*
X187727284Y-63028614D01*
X187735654Y-62971892D01*
X187751553Y-62929224D01*
X187775332Y-62896855D01*
X187810910Y-62865242D01*
X187853448Y-62838271D01*
X187880109Y-62826009D01*
X187904517Y-62817404D01*
X187928530Y-62811689D01*
X187956618Y-62808294D01*
X187993252Y-62806652D01*
X188035734Y-62806206D01*
X188083442Y-62806540D01*
G37*
X188083442Y-62806540D02*
X188118570Y-62808169D01*
X188145454Y-62811614D01*
X188168428Y-62817398D01*
X188188134Y-62824548D01*
X188245397Y-62854383D01*
X188290006Y-62893469D01*
X188322323Y-62942557D01*
X188342713Y-63002400D01*
X188351537Y-63073749D01*
X188349160Y-63157356D01*
X188349139Y-63157598D01*
X188344830Y-63198272D01*
X188339386Y-63237701D01*
X188333764Y-63269255D01*
X188331878Y-63277417D01*
X188321590Y-63317634D01*
X187454714Y-63317634D01*
X187467431Y-63237200D01*
X187480147Y-63156767D01*
X187614913Y-63156767D01*
X187665413Y-63156643D01*
X187701289Y-63156095D01*
X187724850Y-63154858D01*
X187738403Y-63152666D01*
X187744257Y-63149254D01*
X187744720Y-63144358D01*
X187743923Y-63141950D01*
X187729969Y-63087305D01*
X187729208Y-63070666D01*
X187871256Y-63070666D01*
X187873778Y-63100377D01*
X187879337Y-63126955D01*
X187881630Y-63133484D01*
X187891381Y-63156767D01*
X188204744Y-63156767D01*
X188210185Y-63135089D01*
X188212874Y-63102617D01*
X188208188Y-63065718D01*
X188197531Y-63033370D01*
X188193049Y-63025387D01*
X188170605Y-63001775D01*
X188137892Y-62985459D01*
X188092695Y-62975589D01*
X188054667Y-62972177D01*
X187989949Y-62972406D01*
X187939649Y-62981080D01*
X187903395Y-62998399D01*
X187880814Y-63024562D01*
X187871533Y-63059770D01*
X187871256Y-63070666D01*
X187729208Y-63070666D01*
X187727284Y-63028614D01*
X187735654Y-62971892D01*
X187751553Y-62929224D01*
X187775332Y-62896855D01*
X187810910Y-62865242D01*
X187853448Y-62838271D01*
X187880109Y-62826009D01*
X187904517Y-62817404D01*
X187928530Y-62811689D01*
X187956618Y-62808294D01*
X187993252Y-62806652D01*
X188035734Y-62806206D01*
X188083442Y-62806540D01*
G36*
X187129800Y-63359967D02*
G01*
X186850400Y-63359967D01*
X186850400Y-63388288D01*
X186851779Y-63408267D01*
X186857405Y-63422915D01*
X186869515Y-63433044D01*
X186890344Y-63439465D01*
X186922126Y-63442990D01*
X186967097Y-63444430D01*
X187005584Y-63444634D01*
X187129800Y-63444634D01*
X187129800Y-63546234D01*
X186996450Y-63546220D01*
X186943034Y-63545902D01*
X186903554Y-63544777D01*
X186875025Y-63542574D01*
X186854458Y-63539021D01*
X186838865Y-63533846D01*
X186833636Y-63531404D01*
X186809086Y-63514144D01*
X186786948Y-63490916D01*
X186784113Y-63486967D01*
X186774939Y-63472068D01*
X186769351Y-63457504D01*
X186766747Y-63438972D01*
X186766523Y-63412166D01*
X186768076Y-63372783D01*
X186768081Y-63372667D01*
X186770399Y-63335054D01*
X186773358Y-63302740D01*
X186776501Y-63280189D01*
X186778293Y-63273184D01*
X186781731Y-63268157D01*
X186788742Y-63264406D01*
X186801539Y-63261748D01*
X186822336Y-63259998D01*
X186853348Y-63258973D01*
X186896789Y-63258491D01*
X186954872Y-63258367D01*
X187129800Y-63258367D01*
X187129800Y-63359967D01*
G37*
X187129800Y-63359967D02*
X186850400Y-63359967D01*
X186850400Y-63388288D01*
X186851779Y-63408267D01*
X186857405Y-63422915D01*
X186869515Y-63433044D01*
X186890344Y-63439465D01*
X186922126Y-63442990D01*
X186967097Y-63444430D01*
X187005584Y-63444634D01*
X187129800Y-63444634D01*
X187129800Y-63546234D01*
X186996450Y-63546220D01*
X186943034Y-63545902D01*
X186903554Y-63544777D01*
X186875025Y-63542574D01*
X186854458Y-63539021D01*
X186838865Y-63533846D01*
X186833636Y-63531404D01*
X186809086Y-63514144D01*
X186786948Y-63490916D01*
X186784113Y-63486967D01*
X186774939Y-63472068D01*
X186769351Y-63457504D01*
X186766747Y-63438972D01*
X186766523Y-63412166D01*
X186768076Y-63372783D01*
X186768081Y-63372667D01*
X186770399Y-63335054D01*
X186773358Y-63302740D01*
X186776501Y-63280189D01*
X186778293Y-63273184D01*
X186781731Y-63268157D01*
X186788742Y-63264406D01*
X186801539Y-63261748D01*
X186822336Y-63259998D01*
X186853348Y-63258973D01*
X186896789Y-63258491D01*
X186954872Y-63258367D01*
X187129800Y-63258367D01*
X187129800Y-63359967D01*
G36*
X186985200Y-63610028D02*
G01*
X187033541Y-63622930D01*
X187075147Y-63647179D01*
X187106842Y-63682292D01*
X187109447Y-63686558D01*
X187126912Y-63730017D01*
X187135580Y-63782814D01*
X187134837Y-63839468D01*
X187130028Y-63871104D01*
X187119782Y-63920457D01*
X187080341Y-63914587D01*
X187056476Y-63910549D01*
X187040816Y-63906987D01*
X187037858Y-63905761D01*
X187037534Y-63896520D01*
X187039838Y-63875663D01*
X187043093Y-63854763D01*
X187046987Y-63804020D01*
X187040200Y-63762138D01*
X187023407Y-63731881D01*
X187009516Y-63718407D01*
X186999468Y-63714354D01*
X186992672Y-63721201D01*
X186988535Y-63740427D01*
X186986464Y-63773511D01*
X186985869Y-63821932D01*
X186985867Y-63825634D01*
X186985867Y-63935700D01*
X186932950Y-63935369D01*
X186899086Y-63933086D01*
X186867371Y-63927546D01*
X186850652Y-63922293D01*
X186809830Y-63898397D01*
X186782822Y-63867031D01*
X186768248Y-63825976D01*
X186764610Y-63783858D01*
X186765018Y-63780519D01*
X186850398Y-63780519D01*
X186853090Y-63805646D01*
X186856880Y-63813657D01*
X186869391Y-63825240D01*
X186887649Y-63836604D01*
X186902779Y-63842273D01*
X186903317Y-63842309D01*
X186906351Y-63834664D01*
X186908596Y-63814205D01*
X186909639Y-63785047D01*
X186909667Y-63779067D01*
X186908210Y-63742076D01*
X186903245Y-63720836D01*
X186893882Y-63714368D01*
X186879232Y-63721693D01*
X186867334Y-63732500D01*
X186855509Y-63753322D01*
X186850398Y-63780519D01*
X186765018Y-63780519D01*
X186771216Y-63729817D01*
X186791082Y-63684637D01*
X186823452Y-63649899D01*
X186831517Y-63644241D01*
X186881013Y-63620200D01*
X186933299Y-63608957D01*
X186985200Y-63610028D01*
G37*
X186985200Y-63610028D02*
X187033541Y-63622930D01*
X187075147Y-63647179D01*
X187106842Y-63682292D01*
X187109447Y-63686558D01*
X187126912Y-63730017D01*
X187135580Y-63782814D01*
X187134837Y-63839468D01*
X187130028Y-63871104D01*
X187119782Y-63920457D01*
X187080341Y-63914587D01*
X187056476Y-63910549D01*
X187040816Y-63906987D01*
X187037858Y-63905761D01*
X187037534Y-63896520D01*
X187039838Y-63875663D01*
X187043093Y-63854763D01*
X187046987Y-63804020D01*
X187040200Y-63762138D01*
X187023407Y-63731881D01*
X187009516Y-63718407D01*
X186999468Y-63714354D01*
X186992672Y-63721201D01*
X186988535Y-63740427D01*
X186986464Y-63773511D01*
X186985869Y-63821932D01*
X186985867Y-63825634D01*
X186985867Y-63935700D01*
X186932950Y-63935369D01*
X186899086Y-63933086D01*
X186867371Y-63927546D01*
X186850652Y-63922293D01*
X186809830Y-63898397D01*
X186782822Y-63867031D01*
X186768248Y-63825976D01*
X186764610Y-63783858D01*
X186765018Y-63780519D01*
X186850398Y-63780519D01*
X186853090Y-63805646D01*
X186856880Y-63813657D01*
X186869391Y-63825240D01*
X186887649Y-63836604D01*
X186902779Y-63842273D01*
X186903317Y-63842309D01*
X186906351Y-63834664D01*
X186908596Y-63814205D01*
X186909639Y-63785047D01*
X186909667Y-63779067D01*
X186908210Y-63742076D01*
X186903245Y-63720836D01*
X186893882Y-63714368D01*
X186879232Y-63721693D01*
X186867334Y-63732500D01*
X186855509Y-63753322D01*
X186850398Y-63780519D01*
X186765018Y-63780519D01*
X186771216Y-63729817D01*
X186791082Y-63684637D01*
X186823452Y-63649899D01*
X186831517Y-63644241D01*
X186881013Y-63620200D01*
X186933299Y-63608957D01*
X186985200Y-63610028D01*
G36*
X188340534Y-63571366D02*
G01*
X188105584Y-63573616D01*
X188036438Y-63574320D01*
X187982352Y-63575053D01*
X187941453Y-63575966D01*
X187911867Y-63577212D01*
X187891722Y-63578942D01*
X187879143Y-63581308D01*
X187872258Y-63584462D01*
X187869194Y-63588555D01*
X187868197Y-63592862D01*
X187871089Y-63612926D01*
X187878080Y-63626728D01*
X187884764Y-63633726D01*
X187894840Y-63638642D01*
X187911304Y-63641955D01*
X187937152Y-63644142D01*
X187975379Y-63645684D01*
X188001166Y-63646390D01*
X188111934Y-63649179D01*
X188111934Y-63784924D01*
X187993781Y-63781995D01*
X187947003Y-63780922D01*
X187914428Y-63780660D01*
X187893334Y-63781569D01*
X187880996Y-63784010D01*
X187874690Y-63788345D01*
X187871694Y-63794934D01*
X187870809Y-63798291D01*
X187871415Y-63825183D01*
X187887326Y-63846110D01*
X187915183Y-63859082D01*
X187932950Y-63861674D01*
X187964870Y-63863953D01*
X188008162Y-63865812D01*
X188060048Y-63867144D01*
X188117747Y-63867842D01*
X188143684Y-63867920D01*
X188340534Y-63867967D01*
X188340534Y-64003434D01*
X188130984Y-64002377D01*
X188070400Y-64001826D01*
X188013068Y-64000847D01*
X187961929Y-63999525D01*
X187919930Y-63997948D01*
X187890014Y-63996199D01*
X187878479Y-63995018D01*
X187823495Y-63981626D01*
X187782346Y-63959098D01*
X187754059Y-63926510D01*
X187737662Y-63882938D01*
X187733697Y-63857537D01*
X187733493Y-63817091D01*
X187742908Y-63777507D01*
X187746550Y-63767509D01*
X187756050Y-63741209D01*
X187759365Y-63724793D01*
X187756751Y-63712485D01*
X187749540Y-63700148D01*
X187740874Y-63676321D01*
X187736199Y-63639950D01*
X187735564Y-63594957D01*
X187739021Y-63545268D01*
X187746618Y-63494806D01*
X187746911Y-63493317D01*
X187758251Y-63436167D01*
X188340534Y-63436167D01*
X188340534Y-63571366D01*
G37*
X188340534Y-63571366D02*
X188105584Y-63573616D01*
X188036438Y-63574320D01*
X187982352Y-63575053D01*
X187941453Y-63575966D01*
X187911867Y-63577212D01*
X187891722Y-63578942D01*
X187879143Y-63581308D01*
X187872258Y-63584462D01*
X187869194Y-63588555D01*
X187868197Y-63592862D01*
X187871089Y-63612926D01*
X187878080Y-63626728D01*
X187884764Y-63633726D01*
X187894840Y-63638642D01*
X187911304Y-63641955D01*
X187937152Y-63644142D01*
X187975379Y-63645684D01*
X188001166Y-63646390D01*
X188111934Y-63649179D01*
X188111934Y-63784924D01*
X187993781Y-63781995D01*
X187947003Y-63780922D01*
X187914428Y-63780660D01*
X187893334Y-63781569D01*
X187880996Y-63784010D01*
X187874690Y-63788345D01*
X187871694Y-63794934D01*
X187870809Y-63798291D01*
X187871415Y-63825183D01*
X187887326Y-63846110D01*
X187915183Y-63859082D01*
X187932950Y-63861674D01*
X187964870Y-63863953D01*
X188008162Y-63865812D01*
X188060048Y-63867144D01*
X188117747Y-63867842D01*
X188143684Y-63867920D01*
X188340534Y-63867967D01*
X188340534Y-64003434D01*
X188130984Y-64002377D01*
X188070400Y-64001826D01*
X188013068Y-64000847D01*
X187961929Y-63999525D01*
X187919930Y-63997948D01*
X187890014Y-63996199D01*
X187878479Y-63995018D01*
X187823495Y-63981626D01*
X187782346Y-63959098D01*
X187754059Y-63926510D01*
X187737662Y-63882938D01*
X187733697Y-63857537D01*
X187733493Y-63817091D01*
X187742908Y-63777507D01*
X187746550Y-63767509D01*
X187756050Y-63741209D01*
X187759365Y-63724793D01*
X187756751Y-63712485D01*
X187749540Y-63700148D01*
X187740874Y-63676321D01*
X187736199Y-63639950D01*
X187735564Y-63594957D01*
X187739021Y-63545268D01*
X187746618Y-63494806D01*
X187746911Y-63493317D01*
X187758251Y-63436167D01*
X188340534Y-63436167D01*
X188340534Y-63571366D01*
G36*
X186983181Y-63982560D02*
G01*
X187029564Y-63990927D01*
X187060368Y-64003284D01*
X187097310Y-64032188D01*
X187122097Y-64070534D01*
X187135003Y-64119209D01*
X187136300Y-64179101D01*
X187130060Y-64230490D01*
X187119804Y-64291300D01*
X186603278Y-64291300D01*
X186609274Y-64246850D01*
X186613324Y-64220620D01*
X186617196Y-64201639D01*
X186619035Y-64196050D01*
X186628636Y-64193199D01*
X186651067Y-64191011D01*
X186682223Y-64189822D01*
X186696660Y-64189700D01*
X186770520Y-64189700D01*
X186767734Y-64133705D01*
X186852575Y-64133705D01*
X186854675Y-64164490D01*
X186860212Y-64189700D01*
X186952512Y-64189700D01*
X186993061Y-64189531D01*
X187019798Y-64188607D01*
X187035842Y-64186307D01*
X187044312Y-64182009D01*
X187048328Y-64175090D01*
X187049675Y-64170320D01*
X187049892Y-64140101D01*
X187036357Y-64114524D01*
X187011942Y-64094994D01*
X186979516Y-64082921D01*
X186941952Y-64079710D01*
X186902118Y-64086770D01*
X186889044Y-64091561D01*
X186863537Y-64108748D01*
X186852575Y-64133705D01*
X186767734Y-64133705D01*
X186767676Y-64132550D01*
X186769344Y-64085135D01*
X186780900Y-64049416D01*
X186804068Y-64022257D01*
X186840043Y-64000764D01*
X186882521Y-63987411D01*
X186932200Y-63981365D01*
X186983181Y-63982560D01*
G37*
X186983181Y-63982560D02*
X187029564Y-63990927D01*
X187060368Y-64003284D01*
X187097310Y-64032188D01*
X187122097Y-64070534D01*
X187135003Y-64119209D01*
X187136300Y-64179101D01*
X187130060Y-64230490D01*
X187119804Y-64291300D01*
X186603278Y-64291300D01*
X186609274Y-64246850D01*
X186613324Y-64220620D01*
X186617196Y-64201639D01*
X186619035Y-64196050D01*
X186628636Y-64193199D01*
X186651067Y-64191011D01*
X186682223Y-64189822D01*
X186696660Y-64189700D01*
X186770520Y-64189700D01*
X186767734Y-64133705D01*
X186852575Y-64133705D01*
X186854675Y-64164490D01*
X186860212Y-64189700D01*
X186952512Y-64189700D01*
X186993061Y-64189531D01*
X187019798Y-64188607D01*
X187035842Y-64186307D01*
X187044312Y-64182009D01*
X187048328Y-64175090D01*
X187049675Y-64170320D01*
X187049892Y-64140101D01*
X187036357Y-64114524D01*
X187011942Y-64094994D01*
X186979516Y-64082921D01*
X186941952Y-64079710D01*
X186902118Y-64086770D01*
X186889044Y-64091561D01*
X186863537Y-64108748D01*
X186852575Y-64133705D01*
X186767734Y-64133705D01*
X186767676Y-64132550D01*
X186769344Y-64085135D01*
X186780900Y-64049416D01*
X186804068Y-64022257D01*
X186840043Y-64000764D01*
X186882521Y-63987411D01*
X186932200Y-63981365D01*
X186983181Y-63982560D01*
G36*
X188201585Y-64091070D02*
G01*
X188240216Y-64101130D01*
X188272738Y-64120008D01*
X188291735Y-64136621D01*
X188315437Y-64164605D01*
X188332478Y-64197189D01*
X188343609Y-64237244D01*
X188349582Y-64287641D01*
X188351147Y-64351253D01*
X188351034Y-64363267D01*
X188349468Y-64411000D01*
X188346302Y-64459999D01*
X188342041Y-64503611D01*
X188338503Y-64528367D01*
X188327324Y-64591867D01*
X188124379Y-64593338D01*
X188044103Y-64593454D01*
X187979768Y-64592494D01*
X187930413Y-64590423D01*
X187895078Y-64587203D01*
X187877369Y-64584054D01*
X187824715Y-64563753D01*
X187783259Y-64531152D01*
X187752830Y-64486005D01*
X187733259Y-64428066D01*
X187724773Y-64364584D01*
X187724433Y-64335083D01*
X187726091Y-64298280D01*
X187729308Y-64258143D01*
X187733640Y-64218644D01*
X187738647Y-64183754D01*
X187743886Y-64157444D01*
X187748918Y-64143683D01*
X187749394Y-64143148D01*
X187758497Y-64143150D01*
X187779123Y-64145724D01*
X187806217Y-64149993D01*
X187834723Y-64155078D01*
X187859586Y-64160102D01*
X187875750Y-64164188D01*
X187879045Y-64165656D01*
X187879470Y-64175466D01*
X187875738Y-64195025D01*
X187874202Y-64200895D01*
X187867733Y-64235397D01*
X187864457Y-64276626D01*
X187864381Y-64318763D01*
X187867512Y-64355987D01*
X187873859Y-64382480D01*
X187873958Y-64382716D01*
X187894135Y-64410761D01*
X187924178Y-64429587D01*
X187952763Y-64435252D01*
X187953006Y-64435234D01*
X188084849Y-64435234D01*
X188222000Y-64435234D01*
X188222000Y-64385492D01*
X188219198Y-64330978D01*
X188210375Y-64291311D01*
X188194906Y-64265291D01*
X188172166Y-64251713D01*
X188151016Y-64248967D01*
X188126091Y-64252352D01*
X188108541Y-64263995D01*
X188097095Y-64286123D01*
X188090485Y-64320964D01*
X188087808Y-64359910D01*
X188084849Y-64435234D01*
X187953006Y-64435234D01*
X187961756Y-64434586D01*
X187967306Y-64430455D01*
X187970073Y-64419694D01*
X187970716Y-64399140D01*
X187969894Y-64365626D01*
X187969534Y-64354756D01*
X187971923Y-64277444D01*
X187984611Y-64213055D01*
X188007467Y-64161784D01*
X188040357Y-64123826D01*
X188083148Y-64099376D01*
X188135707Y-64088628D01*
X188151869Y-64088100D01*
X188201585Y-64091070D01*
G37*
X188201585Y-64091070D02*
X188240216Y-64101130D01*
X188272738Y-64120008D01*
X188291735Y-64136621D01*
X188315437Y-64164605D01*
X188332478Y-64197189D01*
X188343609Y-64237244D01*
X188349582Y-64287641D01*
X188351147Y-64351253D01*
X188351034Y-64363267D01*
X188349468Y-64411000D01*
X188346302Y-64459999D01*
X188342041Y-64503611D01*
X188338503Y-64528367D01*
X188327324Y-64591867D01*
X188124379Y-64593338D01*
X188044103Y-64593454D01*
X187979768Y-64592494D01*
X187930413Y-64590423D01*
X187895078Y-64587203D01*
X187877369Y-64584054D01*
X187824715Y-64563753D01*
X187783259Y-64531152D01*
X187752830Y-64486005D01*
X187733259Y-64428066D01*
X187724773Y-64364584D01*
X187724433Y-64335083D01*
X187726091Y-64298280D01*
X187729308Y-64258143D01*
X187733640Y-64218644D01*
X187738647Y-64183754D01*
X187743886Y-64157444D01*
X187748918Y-64143683D01*
X187749394Y-64143148D01*
X187758497Y-64143150D01*
X187779123Y-64145724D01*
X187806217Y-64149993D01*
X187834723Y-64155078D01*
X187859586Y-64160102D01*
X187875750Y-64164188D01*
X187879045Y-64165656D01*
X187879470Y-64175466D01*
X187875738Y-64195025D01*
X187874202Y-64200895D01*
X187867733Y-64235397D01*
X187864457Y-64276626D01*
X187864381Y-64318763D01*
X187867512Y-64355987D01*
X187873859Y-64382480D01*
X187873958Y-64382716D01*
X187894135Y-64410761D01*
X187924178Y-64429587D01*
X187952763Y-64435252D01*
X187953006Y-64435234D01*
X188084849Y-64435234D01*
X188222000Y-64435234D01*
X188222000Y-64385492D01*
X188219198Y-64330978D01*
X188210375Y-64291311D01*
X188194906Y-64265291D01*
X188172166Y-64251713D01*
X188151016Y-64248967D01*
X188126091Y-64252352D01*
X188108541Y-64263995D01*
X188097095Y-64286123D01*
X188090485Y-64320964D01*
X188087808Y-64359910D01*
X188084849Y-64435234D01*
X187953006Y-64435234D01*
X187961756Y-64434586D01*
X187967306Y-64430455D01*
X187970073Y-64419694D01*
X187970716Y-64399140D01*
X187969894Y-64365626D01*
X187969534Y-64354756D01*
X187971923Y-64277444D01*
X187984611Y-64213055D01*
X188007467Y-64161784D01*
X188040357Y-64123826D01*
X188083148Y-64099376D01*
X188135707Y-64088628D01*
X188151869Y-64088100D01*
X188201585Y-64091070D01*
G36*
X187124460Y-64768272D02*
G01*
X187127738Y-64786568D01*
X187131547Y-64815461D01*
X187135032Y-64848396D01*
X187135750Y-64910821D01*
X187124796Y-64961618D01*
X187101637Y-65001913D01*
X187065742Y-65032831D01*
X187041775Y-65045618D01*
X187006771Y-65055790D01*
X186962426Y-65060723D01*
X186915543Y-65060274D01*
X186872930Y-65054300D01*
X186856190Y-65049500D01*
X186813898Y-65028168D01*
X186785525Y-64998560D01*
X186770204Y-64959256D01*
X186767070Y-64908836D01*
X186767349Y-64903810D01*
X186767435Y-64902459D01*
X186850912Y-64902459D01*
X186858004Y-64926896D01*
X186872709Y-64942619D01*
X186899277Y-64955017D01*
X186934648Y-64960787D01*
X186972204Y-64959897D01*
X187005327Y-64952313D01*
X187021874Y-64943367D01*
X187042419Y-64918486D01*
X187051421Y-64888428D01*
X187049138Y-64866313D01*
X187045352Y-64859120D01*
X187037391Y-64854423D01*
X187022147Y-64851702D01*
X186996511Y-64850435D01*
X186957376Y-64850102D01*
X186952417Y-64850100D01*
X186912027Y-64850282D01*
X186885430Y-64851242D01*
X186869483Y-64853597D01*
X186861046Y-64857967D01*
X186856979Y-64864971D01*
X186855737Y-64869150D01*
X186850912Y-64902459D01*
X186767435Y-64902459D01*
X186770769Y-64850100D01*
X186603278Y-64850100D01*
X186609274Y-64805650D01*
X186613324Y-64779420D01*
X186617196Y-64760439D01*
X186619035Y-64754850D01*
X186628134Y-64753240D01*
X186652031Y-64751779D01*
X186688591Y-64750523D01*
X186735677Y-64749525D01*
X186791155Y-64748838D01*
X186852889Y-64748517D01*
X186871149Y-64748500D01*
X187119498Y-64748500D01*
X187124460Y-64768272D01*
G37*
X187124460Y-64768272D02*
X187127738Y-64786568D01*
X187131547Y-64815461D01*
X187135032Y-64848396D01*
X187135750Y-64910821D01*
X187124796Y-64961618D01*
X187101637Y-65001913D01*
X187065742Y-65032831D01*
X187041775Y-65045618D01*
X187006771Y-65055790D01*
X186962426Y-65060723D01*
X186915543Y-65060274D01*
X186872930Y-65054300D01*
X186856190Y-65049500D01*
X186813898Y-65028168D01*
X186785525Y-64998560D01*
X186770204Y-64959256D01*
X186767070Y-64908836D01*
X186767349Y-64903810D01*
X186767435Y-64902459D01*
X186850912Y-64902459D01*
X186858004Y-64926896D01*
X186872709Y-64942619D01*
X186899277Y-64955017D01*
X186934648Y-64960787D01*
X186972204Y-64959897D01*
X187005327Y-64952313D01*
X187021874Y-64943367D01*
X187042419Y-64918486D01*
X187051421Y-64888428D01*
X187049138Y-64866313D01*
X187045352Y-64859120D01*
X187037391Y-64854423D01*
X187022147Y-64851702D01*
X186996511Y-64850435D01*
X186957376Y-64850102D01*
X186952417Y-64850100D01*
X186912027Y-64850282D01*
X186885430Y-64851242D01*
X186869483Y-64853597D01*
X186861046Y-64857967D01*
X186856979Y-64864971D01*
X186855737Y-64869150D01*
X186850912Y-64902459D01*
X186767435Y-64902459D01*
X186770769Y-64850100D01*
X186603278Y-64850100D01*
X186609274Y-64805650D01*
X186613324Y-64779420D01*
X186617196Y-64760439D01*
X186619035Y-64754850D01*
X186628134Y-64753240D01*
X186652031Y-64751779D01*
X186688591Y-64750523D01*
X186735677Y-64749525D01*
X186791155Y-64748838D01*
X186852889Y-64748517D01*
X186871149Y-64748500D01*
X187119498Y-64748500D01*
X187124460Y-64768272D01*
G36*
X187595467Y-64865119D02*
G01*
X187889684Y-64868910D01*
X187968633Y-64869979D01*
X188032592Y-64871026D01*
X188083504Y-64872176D01*
X188123312Y-64873556D01*
X188153959Y-64875292D01*
X188177387Y-64877510D01*
X188195538Y-64880336D01*
X188210357Y-64883896D01*
X188223786Y-64888316D01*
X188231023Y-64891058D01*
X188279298Y-64916422D01*
X188315478Y-64951394D01*
X188336682Y-64985567D01*
X188346094Y-65015978D01*
X188350905Y-65057432D01*
X188351153Y-65104687D01*
X188346878Y-65152502D01*
X188338120Y-65195635D01*
X188335024Y-65205700D01*
X188325212Y-65232246D01*
X188316388Y-65246444D01*
X188305120Y-65252296D01*
X188293967Y-65253566D01*
X188270485Y-65252743D01*
X188239794Y-65249177D01*
X188224688Y-65246661D01*
X188180809Y-65238457D01*
X188193688Y-65203029D01*
X188201717Y-65172546D01*
X188207006Y-65136805D01*
X188207933Y-65122445D01*
X188207621Y-65094448D01*
X188203053Y-65076699D01*
X188191989Y-65062634D01*
X188185545Y-65056828D01*
X188161789Y-65036367D01*
X187460000Y-65036367D01*
X187460000Y-64706167D01*
X187595467Y-64706167D01*
X187595467Y-64865119D01*
G37*
X187595467Y-64865119D02*
X187889684Y-64868910D01*
X187968633Y-64869979D01*
X188032592Y-64871026D01*
X188083504Y-64872176D01*
X188123312Y-64873556D01*
X188153959Y-64875292D01*
X188177387Y-64877510D01*
X188195538Y-64880336D01*
X188210357Y-64883896D01*
X188223786Y-64888316D01*
X188231023Y-64891058D01*
X188279298Y-64916422D01*
X188315478Y-64951394D01*
X188336682Y-64985567D01*
X188346094Y-65015978D01*
X188350905Y-65057432D01*
X188351153Y-65104687D01*
X188346878Y-65152502D01*
X188338120Y-65195635D01*
X188335024Y-65205700D01*
X188325212Y-65232246D01*
X188316388Y-65246444D01*
X188305120Y-65252296D01*
X188293967Y-65253566D01*
X188270485Y-65252743D01*
X188239794Y-65249177D01*
X188224688Y-65246661D01*
X188180809Y-65238457D01*
X188193688Y-65203029D01*
X188201717Y-65172546D01*
X188207006Y-65136805D01*
X188207933Y-65122445D01*
X188207621Y-65094448D01*
X188203053Y-65076699D01*
X188191989Y-65062634D01*
X188185545Y-65056828D01*
X188161789Y-65036367D01*
X187460000Y-65036367D01*
X187460000Y-64706167D01*
X187595467Y-64706167D01*
X187595467Y-64865119D01*
G36*
X187237780Y-65101961D02*
G01*
X187247851Y-65117968D01*
X187253062Y-65142550D01*
X187255582Y-65180084D01*
X187250438Y-65213514D01*
X187236504Y-65243670D01*
X187212656Y-65271384D01*
X187177770Y-65297487D01*
X187130721Y-65322810D01*
X187070383Y-65348186D01*
X186995634Y-65374446D01*
X186905347Y-65402421D01*
X186899084Y-65404268D01*
X186774200Y-65441013D01*
X186774239Y-65388973D01*
X186774278Y-65336934D01*
X186880541Y-65312084D01*
X186920658Y-65302350D01*
X186954399Y-65293497D01*
X186978544Y-65286418D01*
X186989872Y-65282007D01*
X186990269Y-65281627D01*
X186983974Y-65277458D01*
X186965050Y-65269710D01*
X186937119Y-65259569D01*
X186903801Y-65248226D01*
X186868715Y-65236869D01*
X186835482Y-65226686D01*
X186807721Y-65218866D01*
X186789054Y-65214599D01*
X186784784Y-65214152D01*
X186778388Y-65207477D01*
X186774970Y-65186508D01*
X186774200Y-65159590D01*
X186774200Y-65105013D01*
X186818139Y-65118061D01*
X186877148Y-65136829D01*
X186940984Y-65159199D01*
X187002693Y-65182630D01*
X187055326Y-65204580D01*
X187057836Y-65205701D01*
X187087770Y-65218700D01*
X187106913Y-65225131D01*
X187119761Y-65225712D01*
X187130809Y-65221162D01*
X187135614Y-65218143D01*
X187158728Y-65193897D01*
X187167130Y-65162599D01*
X187163875Y-65138694D01*
X187160267Y-65122114D01*
X187164402Y-65113012D01*
X187179890Y-65106659D01*
X187190590Y-65103690D01*
X187219938Y-65097977D01*
X187237780Y-65101961D01*
G37*
X187237780Y-65101961D02*
X187247851Y-65117968D01*
X187253062Y-65142550D01*
X187255582Y-65180084D01*
X187250438Y-65213514D01*
X187236504Y-65243670D01*
X187212656Y-65271384D01*
X187177770Y-65297487D01*
X187130721Y-65322810D01*
X187070383Y-65348186D01*
X186995634Y-65374446D01*
X186905347Y-65402421D01*
X186899084Y-65404268D01*
X186774200Y-65441013D01*
X186774239Y-65388973D01*
X186774278Y-65336934D01*
X186880541Y-65312084D01*
X186920658Y-65302350D01*
X186954399Y-65293497D01*
X186978544Y-65286418D01*
X186989872Y-65282007D01*
X186990269Y-65281627D01*
X186983974Y-65277458D01*
X186965050Y-65269710D01*
X186937119Y-65259569D01*
X186903801Y-65248226D01*
X186868715Y-65236869D01*
X186835482Y-65226686D01*
X186807721Y-65218866D01*
X186789054Y-65214599D01*
X186784784Y-65214152D01*
X186778388Y-65207477D01*
X186774970Y-65186508D01*
X186774200Y-65159590D01*
X186774200Y-65105013D01*
X186818139Y-65118061D01*
X186877148Y-65136829D01*
X186940984Y-65159199D01*
X187002693Y-65182630D01*
X187055326Y-65204580D01*
X187057836Y-65205701D01*
X187087770Y-65218700D01*
X187106913Y-65225131D01*
X187119761Y-65225712D01*
X187130809Y-65221162D01*
X187135614Y-65218143D01*
X187158728Y-65193897D01*
X187167130Y-65162599D01*
X187163875Y-65138694D01*
X187160267Y-65122114D01*
X187164402Y-65113012D01*
X187179890Y-65106659D01*
X187190590Y-65103690D01*
X187219938Y-65097977D01*
X187237780Y-65101961D01*
G36*
X188169409Y-60888368D02*
G01*
X188285231Y-60918642D01*
X188394926Y-60963500D01*
X188497524Y-61022029D01*
X188592053Y-61093319D01*
X188677541Y-61176455D01*
X188753016Y-61270527D01*
X188817508Y-61374621D01*
X188870043Y-61487826D01*
X188909651Y-61609229D01*
X188929565Y-61700890D01*
X188937774Y-61769424D01*
X188940976Y-61847067D01*
X188939372Y-61928212D01*
X188933160Y-62007251D01*
X188922543Y-62078577D01*
X188914824Y-62112772D01*
X188894389Y-62190611D01*
X188928800Y-62203753D01*
X188964469Y-62220657D01*
X189008524Y-62246529D01*
X189057065Y-62278686D01*
X189106193Y-62314443D01*
X189152008Y-62351114D01*
X189183249Y-62378923D01*
X189270650Y-62473113D01*
X189345010Y-62577692D01*
X189405734Y-62691563D01*
X189452227Y-62813633D01*
X189480674Y-62925839D01*
X189489211Y-62985328D01*
X189494180Y-63055647D01*
X189495580Y-63131073D01*
X189493413Y-63205885D01*
X189487678Y-63274360D01*
X189480674Y-63319961D01*
X189450618Y-63435801D01*
X189407596Y-63548261D01*
X189353205Y-63654117D01*
X189289042Y-63750144D01*
X189236669Y-63812488D01*
X189190020Y-63862605D01*
X189245065Y-63943603D01*
X189311525Y-64053708D01*
X189362028Y-64165738D01*
X189397221Y-64281814D01*
X189417750Y-64404063D01*
X189424267Y-64531791D01*
X189417481Y-64664413D01*
X189396729Y-64788629D01*
X189361423Y-64906419D01*
X189310973Y-65019761D01*
X189246872Y-65127531D01*
X189209046Y-65178101D01*
X189161543Y-65232557D01*
X189108545Y-65286717D01*
X189054234Y-65336396D01*
X189002794Y-65377413D01*
X188984000Y-65390430D01*
X188883488Y-65447542D01*
X188776474Y-65491990D01*
X188665899Y-65522975D01*
X188554701Y-65539700D01*
X188445820Y-65541367D01*
X188431550Y-65540403D01*
X188395652Y-65537979D01*
X188373463Y-65537744D01*
X188361862Y-65540010D01*
X188357729Y-65545094D01*
X188357467Y-65547863D01*
X188354301Y-65567263D01*
X188345693Y-65598431D01*
X188332978Y-65637616D01*
X188317490Y-65681068D01*
X188300565Y-65725036D01*
X188283536Y-65765770D01*
X188268322Y-65798367D01*
X188203268Y-65909804D01*
X188126561Y-66009984D01*
X188039211Y-66098113D01*
X187942229Y-66173395D01*
X187836625Y-66235032D01*
X187723409Y-66282231D01*
X187616765Y-66311511D01*
X187553783Y-66321282D01*
X187481695Y-66326779D01*
X187407412Y-66327832D01*
X187337849Y-66324274D01*
X187297741Y-66319294D01*
X187179607Y-66291508D01*
X187066723Y-66248251D01*
X186960384Y-66190519D01*
X186861885Y-66119306D01*
X186772519Y-66035608D01*
X186693582Y-65940417D01*
X186626367Y-65834731D01*
X186599810Y-65783008D01*
X186574532Y-65724155D01*
X186549803Y-65656015D01*
X186528252Y-65586108D01*
X186520003Y-65554916D01*
X186511062Y-65518898D01*
X186466948Y-65524065D01*
X186437605Y-65525392D01*
X186398697Y-65524340D01*
X186357388Y-65521158D01*
X186346260Y-65519905D01*
X186220372Y-65496408D01*
X186101578Y-65457738D01*
X185990616Y-65404419D01*
X185888226Y-65336973D01*
X185795145Y-65255923D01*
X185712112Y-65161792D01*
X185639866Y-65055103D01*
X185608018Y-64997211D01*
X185559004Y-64887416D01*
X185524531Y-64776780D01*
X185503763Y-64661741D01*
X185495861Y-64538742D01*
X185495734Y-64519900D01*
X185503437Y-64385019D01*
X185526506Y-64256876D01*
X185564880Y-64135734D01*
X185608659Y-64040024D01*
X185645164Y-63970782D01*
X185605249Y-63940342D01*
X185563477Y-63904740D01*
X185517144Y-63859079D01*
X185470340Y-63807857D01*
X185427161Y-63755568D01*
X185391699Y-63706709D01*
X185389535Y-63703416D01*
X185325945Y-63591732D01*
X185278078Y-63475491D01*
X185245609Y-63353567D01*
X185228212Y-63224837D01*
X185224891Y-63134096D01*
X185301168Y-63134096D01*
X185309442Y-63257466D01*
X185333099Y-63377999D01*
X185371292Y-63493969D01*
X185423175Y-63603653D01*
X185487901Y-63705326D01*
X185564623Y-63797264D01*
X185652496Y-63877741D01*
X185674514Y-63894686D01*
X185701345Y-63915605D01*
X185722609Y-63933987D01*
X185734737Y-63946685D01*
X185736080Y-63948968D01*
X185734028Y-63960482D01*
X185725232Y-63983795D01*
X185711006Y-64015815D01*
X185692664Y-64053450D01*
X185686904Y-64064698D01*
X185664984Y-64108991D01*
X185644378Y-64154095D01*
X185627321Y-64194899D01*
X185616048Y-64226290D01*
X185615593Y-64227800D01*
X185586671Y-64353208D01*
X185573742Y-64478519D01*
X185576375Y-64602395D01*
X185594139Y-64723498D01*
X185626601Y-64840488D01*
X185673332Y-64952028D01*
X185733899Y-65056779D01*
X185807871Y-65153402D01*
X185894817Y-65240558D01*
X185958463Y-65291778D01*
X186030538Y-65337879D01*
X186111038Y-65377348D01*
X186196457Y-65409196D01*
X186283288Y-65432436D01*
X186368024Y-65446079D01*
X186447161Y-65449136D01*
X186499034Y-65444173D01*
X186537545Y-65440132D01*
X186563359Y-65444453D01*
X186579416Y-65459000D01*
X186588655Y-65485642D01*
X186591475Y-65502846D01*
X186596864Y-65531434D01*
X186606147Y-65569336D01*
X186617641Y-65609877D01*
X186622069Y-65624065D01*
X186667731Y-65740210D01*
X186726773Y-65847510D01*
X186798152Y-65944889D01*
X186880824Y-66031267D01*
X186973745Y-66105567D01*
X187075873Y-66166711D01*
X187186162Y-66213621D01*
X187196246Y-66217039D01*
X187283008Y-66238755D01*
X187378278Y-66250097D01*
X187477067Y-66250914D01*
X187574383Y-66241057D01*
X187629334Y-66230115D01*
X187695823Y-66209507D01*
X187768287Y-66179177D01*
X187841251Y-66141875D01*
X187909237Y-66100354D01*
X187957006Y-66065432D01*
X188036888Y-65991120D01*
X188109328Y-65903895D01*
X188172382Y-65806858D01*
X188224111Y-65703109D01*
X188262574Y-65595751D01*
X188271174Y-65563553D01*
X188281208Y-65525020D01*
X188290785Y-65492305D01*
X188298759Y-65469090D01*
X188303627Y-65459353D01*
X188314501Y-65455532D01*
X188337432Y-65454954D01*
X188374190Y-65457643D01*
X188402125Y-65460660D01*
X188512939Y-65465304D01*
X188621807Y-65453958D01*
X188727537Y-65427549D01*
X188828940Y-65387002D01*
X188924825Y-65333243D01*
X189014000Y-65267201D01*
X189095276Y-65189800D01*
X189167461Y-65101966D01*
X189229366Y-65004627D01*
X189279798Y-64898709D01*
X189317568Y-64785138D01*
X189328382Y-64740034D01*
X189337403Y-64682432D01*
X189342778Y-64614153D01*
X189344558Y-64540221D01*
X189342792Y-64465659D01*
X189337533Y-64395493D01*
X189328830Y-64334747D01*
X189324067Y-64312875D01*
X189286759Y-64193521D01*
X189236293Y-64081129D01*
X189173988Y-63978401D01*
X189137029Y-63929308D01*
X189116826Y-63902801D01*
X189101727Y-63879939D01*
X189094382Y-63864823D01*
X189094067Y-63862795D01*
X189099588Y-63851272D01*
X189114495Y-63830880D01*
X189136302Y-63804828D01*
X189154733Y-63784521D01*
X189237212Y-63684702D01*
X189304402Y-63577750D01*
X189356129Y-63464167D01*
X189392219Y-63344457D01*
X189412497Y-63219121D01*
X189416788Y-63088664D01*
X189414152Y-63037340D01*
X189397254Y-62918595D01*
X189365095Y-62803725D01*
X189318757Y-62694286D01*
X189259320Y-62591835D01*
X189187868Y-62497930D01*
X189105480Y-62414127D01*
X189013240Y-62341982D01*
X188912228Y-62283053D01*
X188879517Y-62267806D01*
X188847332Y-62252133D01*
X188823230Y-62237404D01*
X188810795Y-62225861D01*
X188810071Y-62224291D01*
X188810067Y-62209177D01*
X188814487Y-62183250D01*
X188822402Y-62151763D01*
X188823652Y-62147492D01*
X188851871Y-62024297D01*
X188863850Y-61900567D01*
X188859974Y-61777754D01*
X188840625Y-61657309D01*
X188806186Y-61540686D01*
X188757041Y-61429336D01*
X188693571Y-61324710D01*
X188616161Y-61228261D01*
X188568392Y-61179800D01*
X188474078Y-61102020D01*
X188371739Y-61039147D01*
X188261422Y-60991208D01*
X188196600Y-60971010D01*
X188145576Y-60960766D01*
X188084150Y-60953984D01*
X188017292Y-60950720D01*
X187949970Y-60951026D01*
X187887155Y-60954959D01*
X187833815Y-60962571D01*
X187815600Y-60966834D01*
X187717791Y-60997865D01*
X187630863Y-61035593D01*
X187550294Y-61082535D01*
X187471565Y-61141208D01*
X187417467Y-61188451D01*
X187393019Y-61210066D01*
X187372864Y-61226309D01*
X187360504Y-61234405D01*
X187358942Y-61234834D01*
X187348652Y-61231080D01*
X187326744Y-61220879D01*
X187296504Y-61205819D01*
X187263618Y-61188756D01*
X187218961Y-61166824D01*
X187169827Y-61145317D01*
X187123560Y-61127346D01*
X187100167Y-61119534D01*
X187068479Y-61110401D01*
X187040732Y-61103992D01*
X187012616Y-61099814D01*
X186979818Y-61097372D01*
X186938030Y-61096171D01*
X186892734Y-61095761D01*
X186833986Y-61096036D01*
X186788042Y-61097713D01*
X186750804Y-61101119D01*
X186718178Y-61106581D01*
X186698000Y-61111260D01*
X186585729Y-61148226D01*
X186481081Y-61199488D01*
X186384927Y-61263817D01*
X186298133Y-61339981D01*
X186221568Y-61426752D01*
X186156100Y-61522897D01*
X186102598Y-61627187D01*
X186061929Y-61738391D01*
X186034962Y-61855279D01*
X186022565Y-61976621D01*
X186023227Y-62067542D01*
X186025695Y-62106980D01*
X186028471Y-62140850D01*
X186031187Y-62165155D01*
X186033150Y-62175248D01*
X186032845Y-62192995D01*
X186017225Y-62209237D01*
X185985694Y-62224416D01*
X185952934Y-62234898D01*
X185843736Y-62274020D01*
X185741783Y-62327548D01*
X185648026Y-62394169D01*
X185563420Y-62472568D01*
X185488917Y-62561429D01*
X185425468Y-62659440D01*
X185374028Y-62765285D01*
X185335549Y-62877649D01*
X185310984Y-62995219D01*
X185301285Y-63116680D01*
X185301168Y-63134096D01*
X185224891Y-63134096D01*
X185224827Y-63132374D01*
X185232610Y-62997109D01*
X185255956Y-62868473D01*
X185294966Y-62746194D01*
X185349742Y-62629995D01*
X185420383Y-62519604D01*
X185477172Y-62448137D01*
X185549230Y-62374925D01*
X185633281Y-62307360D01*
X185724985Y-62248321D01*
X185820002Y-62200687D01*
X185889434Y-62174620D01*
X185948700Y-62155758D01*
X185945900Y-62040930D01*
X185950464Y-61905599D01*
X185970710Y-61775775D01*
X186006379Y-61652124D01*
X186057209Y-61535310D01*
X186122943Y-61425996D01*
X186203321Y-61324849D01*
X186240709Y-61285634D01*
X186335616Y-61202331D01*
X186437392Y-61133955D01*
X186544841Y-61080715D01*
X186656765Y-61042821D01*
X186771967Y-61020482D01*
X186889251Y-61013909D01*
X187007419Y-61023311D01*
X187125273Y-61048898D01*
X187241617Y-61090881D01*
X187272081Y-61104800D01*
X187350862Y-61142434D01*
X187394848Y-61102864D01*
X187490997Y-61027556D01*
X187595606Y-60966462D01*
X187707154Y-60920114D01*
X187824119Y-60889046D01*
X187944981Y-60873791D01*
X188048434Y-60873590D01*
X188169409Y-60888368D01*
G37*
X188169409Y-60888368D02*
X188285231Y-60918642D01*
X188394926Y-60963500D01*
X188497524Y-61022029D01*
X188592053Y-61093319D01*
X188677541Y-61176455D01*
X188753016Y-61270527D01*
X188817508Y-61374621D01*
X188870043Y-61487826D01*
X188909651Y-61609229D01*
X188929565Y-61700890D01*
X188937774Y-61769424D01*
X188940976Y-61847067D01*
X188939372Y-61928212D01*
X188933160Y-62007251D01*
X188922543Y-62078577D01*
X188914824Y-62112772D01*
X188894389Y-62190611D01*
X188928800Y-62203753D01*
X188964469Y-62220657D01*
X189008524Y-62246529D01*
X189057065Y-62278686D01*
X189106193Y-62314443D01*
X189152008Y-62351114D01*
X189183249Y-62378923D01*
X189270650Y-62473113D01*
X189345010Y-62577692D01*
X189405734Y-62691563D01*
X189452227Y-62813633D01*
X189480674Y-62925839D01*
X189489211Y-62985328D01*
X189494180Y-63055647D01*
X189495580Y-63131073D01*
X189493413Y-63205885D01*
X189487678Y-63274360D01*
X189480674Y-63319961D01*
X189450618Y-63435801D01*
X189407596Y-63548261D01*
X189353205Y-63654117D01*
X189289042Y-63750144D01*
X189236669Y-63812488D01*
X189190020Y-63862605D01*
X189245065Y-63943603D01*
X189311525Y-64053708D01*
X189362028Y-64165738D01*
X189397221Y-64281814D01*
X189417750Y-64404063D01*
X189424267Y-64531791D01*
X189417481Y-64664413D01*
X189396729Y-64788629D01*
X189361423Y-64906419D01*
X189310973Y-65019761D01*
X189246872Y-65127531D01*
X189209046Y-65178101D01*
X189161543Y-65232557D01*
X189108545Y-65286717D01*
X189054234Y-65336396D01*
X189002794Y-65377413D01*
X188984000Y-65390430D01*
X188883488Y-65447542D01*
X188776474Y-65491990D01*
X188665899Y-65522975D01*
X188554701Y-65539700D01*
X188445820Y-65541367D01*
X188431550Y-65540403D01*
X188395652Y-65537979D01*
X188373463Y-65537744D01*
X188361862Y-65540010D01*
X188357729Y-65545094D01*
X188357467Y-65547863D01*
X188354301Y-65567263D01*
X188345693Y-65598431D01*
X188332978Y-65637616D01*
X188317490Y-65681068D01*
X188300565Y-65725036D01*
X188283536Y-65765770D01*
X188268322Y-65798367D01*
X188203268Y-65909804D01*
X188126561Y-66009984D01*
X188039211Y-66098113D01*
X187942229Y-66173395D01*
X187836625Y-66235032D01*
X187723409Y-66282231D01*
X187616765Y-66311511D01*
X187553783Y-66321282D01*
X187481695Y-66326779D01*
X187407412Y-66327832D01*
X187337849Y-66324274D01*
X187297741Y-66319294D01*
X187179607Y-66291508D01*
X187066723Y-66248251D01*
X186960384Y-66190519D01*
X186861885Y-66119306D01*
X186772519Y-66035608D01*
X186693582Y-65940417D01*
X186626367Y-65834731D01*
X186599810Y-65783008D01*
X186574532Y-65724155D01*
X186549803Y-65656015D01*
X186528252Y-65586108D01*
X186520003Y-65554916D01*
X186511062Y-65518898D01*
X186466948Y-65524065D01*
X186437605Y-65525392D01*
X186398697Y-65524340D01*
X186357388Y-65521158D01*
X186346260Y-65519905D01*
X186220372Y-65496408D01*
X186101578Y-65457738D01*
X185990616Y-65404419D01*
X185888226Y-65336973D01*
X185795145Y-65255923D01*
X185712112Y-65161792D01*
X185639866Y-65055103D01*
X185608018Y-64997211D01*
X185559004Y-64887416D01*
X185524531Y-64776780D01*
X185503763Y-64661741D01*
X185495861Y-64538742D01*
X185495734Y-64519900D01*
X185503437Y-64385019D01*
X185526506Y-64256876D01*
X185564880Y-64135734D01*
X185608659Y-64040024D01*
X185645164Y-63970782D01*
X185605249Y-63940342D01*
X185563477Y-63904740D01*
X185517144Y-63859079D01*
X185470340Y-63807857D01*
X185427161Y-63755568D01*
X185391699Y-63706709D01*
X185389535Y-63703416D01*
X185325945Y-63591732D01*
X185278078Y-63475491D01*
X185245609Y-63353567D01*
X185228212Y-63224837D01*
X185224891Y-63134096D01*
X185301168Y-63134096D01*
X185309442Y-63257466D01*
X185333099Y-63377999D01*
X185371292Y-63493969D01*
X185423175Y-63603653D01*
X185487901Y-63705326D01*
X185564623Y-63797264D01*
X185652496Y-63877741D01*
X185674514Y-63894686D01*
X185701345Y-63915605D01*
X185722609Y-63933987D01*
X185734737Y-63946685D01*
X185736080Y-63948968D01*
X185734028Y-63960482D01*
X185725232Y-63983795D01*
X185711006Y-64015815D01*
X185692664Y-64053450D01*
X185686904Y-64064698D01*
X185664984Y-64108991D01*
X185644378Y-64154095D01*
X185627321Y-64194899D01*
X185616048Y-64226290D01*
X185615593Y-64227800D01*
X185586671Y-64353208D01*
X185573742Y-64478519D01*
X185576375Y-64602395D01*
X185594139Y-64723498D01*
X185626601Y-64840488D01*
X185673332Y-64952028D01*
X185733899Y-65056779D01*
X185807871Y-65153402D01*
X185894817Y-65240558D01*
X185958463Y-65291778D01*
X186030538Y-65337879D01*
X186111038Y-65377348D01*
X186196457Y-65409196D01*
X186283288Y-65432436D01*
X186368024Y-65446079D01*
X186447161Y-65449136D01*
X186499034Y-65444173D01*
X186537545Y-65440132D01*
X186563359Y-65444453D01*
X186579416Y-65459000D01*
X186588655Y-65485642D01*
X186591475Y-65502846D01*
X186596864Y-65531434D01*
X186606147Y-65569336D01*
X186617641Y-65609877D01*
X186622069Y-65624065D01*
X186667731Y-65740210D01*
X186726773Y-65847510D01*
X186798152Y-65944889D01*
X186880824Y-66031267D01*
X186973745Y-66105567D01*
X187075873Y-66166711D01*
X187186162Y-66213621D01*
X187196246Y-66217039D01*
X187283008Y-66238755D01*
X187378278Y-66250097D01*
X187477067Y-66250914D01*
X187574383Y-66241057D01*
X187629334Y-66230115D01*
X187695823Y-66209507D01*
X187768287Y-66179177D01*
X187841251Y-66141875D01*
X187909237Y-66100354D01*
X187957006Y-66065432D01*
X188036888Y-65991120D01*
X188109328Y-65903895D01*
X188172382Y-65806858D01*
X188224111Y-65703109D01*
X188262574Y-65595751D01*
X188271174Y-65563553D01*
X188281208Y-65525020D01*
X188290785Y-65492305D01*
X188298759Y-65469090D01*
X188303627Y-65459353D01*
X188314501Y-65455532D01*
X188337432Y-65454954D01*
X188374190Y-65457643D01*
X188402125Y-65460660D01*
X188512939Y-65465304D01*
X188621807Y-65453958D01*
X188727537Y-65427549D01*
X188828940Y-65387002D01*
X188924825Y-65333243D01*
X189014000Y-65267201D01*
X189095276Y-65189800D01*
X189167461Y-65101966D01*
X189229366Y-65004627D01*
X189279798Y-64898709D01*
X189317568Y-64785138D01*
X189328382Y-64740034D01*
X189337403Y-64682432D01*
X189342778Y-64614153D01*
X189344558Y-64540221D01*
X189342792Y-64465659D01*
X189337533Y-64395493D01*
X189328830Y-64334747D01*
X189324067Y-64312875D01*
X189286759Y-64193521D01*
X189236293Y-64081129D01*
X189173988Y-63978401D01*
X189137029Y-63929308D01*
X189116826Y-63902801D01*
X189101727Y-63879939D01*
X189094382Y-63864823D01*
X189094067Y-63862795D01*
X189099588Y-63851272D01*
X189114495Y-63830880D01*
X189136302Y-63804828D01*
X189154733Y-63784521D01*
X189237212Y-63684702D01*
X189304402Y-63577750D01*
X189356129Y-63464167D01*
X189392219Y-63344457D01*
X189412497Y-63219121D01*
X189416788Y-63088664D01*
X189414152Y-63037340D01*
X189397254Y-62918595D01*
X189365095Y-62803725D01*
X189318757Y-62694286D01*
X189259320Y-62591835D01*
X189187868Y-62497930D01*
X189105480Y-62414127D01*
X189013240Y-62341982D01*
X188912228Y-62283053D01*
X188879517Y-62267806D01*
X188847332Y-62252133D01*
X188823230Y-62237404D01*
X188810795Y-62225861D01*
X188810071Y-62224291D01*
X188810067Y-62209177D01*
X188814487Y-62183250D01*
X188822402Y-62151763D01*
X188823652Y-62147492D01*
X188851871Y-62024297D01*
X188863850Y-61900567D01*
X188859974Y-61777754D01*
X188840625Y-61657309D01*
X188806186Y-61540686D01*
X188757041Y-61429336D01*
X188693571Y-61324710D01*
X188616161Y-61228261D01*
X188568392Y-61179800D01*
X188474078Y-61102020D01*
X188371739Y-61039147D01*
X188261422Y-60991208D01*
X188196600Y-60971010D01*
X188145576Y-60960766D01*
X188084150Y-60953984D01*
X188017292Y-60950720D01*
X187949970Y-60951026D01*
X187887155Y-60954959D01*
X187833815Y-60962571D01*
X187815600Y-60966834D01*
X187717791Y-60997865D01*
X187630863Y-61035593D01*
X187550294Y-61082535D01*
X187471565Y-61141208D01*
X187417467Y-61188451D01*
X187393019Y-61210066D01*
X187372864Y-61226309D01*
X187360504Y-61234405D01*
X187358942Y-61234834D01*
X187348652Y-61231080D01*
X187326744Y-61220879D01*
X187296504Y-61205819D01*
X187263618Y-61188756D01*
X187218961Y-61166824D01*
X187169827Y-61145317D01*
X187123560Y-61127346D01*
X187100167Y-61119534D01*
X187068479Y-61110401D01*
X187040732Y-61103992D01*
X187012616Y-61099814D01*
X186979818Y-61097372D01*
X186938030Y-61096171D01*
X186892734Y-61095761D01*
X186833986Y-61096036D01*
X186788042Y-61097713D01*
X186750804Y-61101119D01*
X186718178Y-61106581D01*
X186698000Y-61111260D01*
X186585729Y-61148226D01*
X186481081Y-61199488D01*
X186384927Y-61263817D01*
X186298133Y-61339981D01*
X186221568Y-61426752D01*
X186156100Y-61522897D01*
X186102598Y-61627187D01*
X186061929Y-61738391D01*
X186034962Y-61855279D01*
X186022565Y-61976621D01*
X186023227Y-62067542D01*
X186025695Y-62106980D01*
X186028471Y-62140850D01*
X186031187Y-62165155D01*
X186033150Y-62175248D01*
X186032845Y-62192995D01*
X186017225Y-62209237D01*
X185985694Y-62224416D01*
X185952934Y-62234898D01*
X185843736Y-62274020D01*
X185741783Y-62327548D01*
X185648026Y-62394169D01*
X185563420Y-62472568D01*
X185488917Y-62561429D01*
X185425468Y-62659440D01*
X185374028Y-62765285D01*
X185335549Y-62877649D01*
X185310984Y-62995219D01*
X185301285Y-63116680D01*
X185301168Y-63134096D01*
X185224891Y-63134096D01*
X185224827Y-63132374D01*
X185232610Y-62997109D01*
X185255956Y-62868473D01*
X185294966Y-62746194D01*
X185349742Y-62629995D01*
X185420383Y-62519604D01*
X185477172Y-62448137D01*
X185549230Y-62374925D01*
X185633281Y-62307360D01*
X185724985Y-62248321D01*
X185820002Y-62200687D01*
X185889434Y-62174620D01*
X185948700Y-62155758D01*
X185945900Y-62040930D01*
X185950464Y-61905599D01*
X185970710Y-61775775D01*
X186006379Y-61652124D01*
X186057209Y-61535310D01*
X186122943Y-61425996D01*
X186203321Y-61324849D01*
X186240709Y-61285634D01*
X186335616Y-61202331D01*
X186437392Y-61133955D01*
X186544841Y-61080715D01*
X186656765Y-61042821D01*
X186771967Y-61020482D01*
X186889251Y-61013909D01*
X187007419Y-61023311D01*
X187125273Y-61048898D01*
X187241617Y-61090881D01*
X187272081Y-61104800D01*
X187350862Y-61142434D01*
X187394848Y-61102864D01*
X187490997Y-61027556D01*
X187595606Y-60966462D01*
X187707154Y-60920114D01*
X187824119Y-60889046D01*
X187944981Y-60873791D01*
X188048434Y-60873590D01*
X188169409Y-60888368D01*
G36*
X94622878Y-67708101D02*
G01*
X94684914Y-67708904D01*
X94735792Y-67710464D01*
X94778397Y-67712920D01*
X94815613Y-67716411D01*
X94850324Y-67721079D01*
X94864047Y-67723288D01*
X94992573Y-67750239D01*
X95106987Y-67785801D01*
X95207978Y-67830358D01*
X95296235Y-67884297D01*
X95372446Y-67948000D01*
X95437301Y-68021853D01*
X95462114Y-68057201D01*
X95509015Y-68142878D01*
X95545389Y-68239060D01*
X95570876Y-68342711D01*
X95585115Y-68450796D01*
X95587747Y-68560280D01*
X95578413Y-68668126D01*
X95556753Y-68771300D01*
X95549573Y-68795367D01*
X95511441Y-68888058D01*
X95458573Y-68973960D01*
X95392114Y-69052165D01*
X95313208Y-69121767D01*
X95222998Y-69181859D01*
X95122628Y-69231534D01*
X95013241Y-69269885D01*
X94924535Y-69290947D01*
X94868855Y-69298417D01*
X94802335Y-69302365D01*
X94730685Y-69302856D01*
X94659612Y-69299951D01*
X94594827Y-69293715D01*
X94553447Y-69286817D01*
X94449278Y-69259845D01*
X94358922Y-69225342D01*
X94280553Y-69182280D01*
X94212350Y-69129628D01*
X94152488Y-69066358D01*
X94143980Y-69055715D01*
X94089268Y-68975287D01*
X94046587Y-68888437D01*
X94015110Y-68792919D01*
X93994009Y-68686487D01*
X93987259Y-68630199D01*
X93982816Y-68560208D01*
X93984827Y-68497915D01*
X93988908Y-68470714D01*
X94388488Y-68470714D01*
X94394754Y-68546256D01*
X94410603Y-68615582D01*
X94435734Y-68676426D01*
X94469844Y-68726521D01*
X94500234Y-68754994D01*
X94540566Y-68779830D01*
X94590179Y-68802061D01*
X94641429Y-68818513D01*
X94665334Y-68823588D01*
X94704507Y-68827330D01*
X94753244Y-68828000D01*
X94804501Y-68825835D01*
X94851237Y-68821072D01*
X94877000Y-68816436D01*
X94934090Y-68801190D01*
X94979880Y-68783869D01*
X95020002Y-68762192D01*
X95034382Y-68752718D01*
X95089279Y-68708213D01*
X95128307Y-68660315D01*
X95152469Y-68607075D01*
X95162767Y-68546543D01*
X95162568Y-68503467D01*
X95154557Y-68441308D01*
X95139830Y-68396028D01*
X95108448Y-68347883D01*
X95062406Y-68303654D01*
X95003782Y-68264706D01*
X94934658Y-68232405D01*
X94857111Y-68208117D01*
X94851600Y-68206794D01*
X94816952Y-68200305D01*
X94773248Y-68195263D01*
X94718177Y-68191480D01*
X94649426Y-68188772D01*
X94617616Y-68187948D01*
X94447132Y-68184055D01*
X94430211Y-68229461D01*
X94405914Y-68310050D01*
X94392107Y-68391223D01*
X94388488Y-68470714D01*
X93988908Y-68470714D01*
X93994021Y-68436647D01*
X94011128Y-68369731D01*
X94018270Y-68346422D01*
X94027715Y-68314827D01*
X94034156Y-68289907D01*
X94036616Y-68275608D01*
X94036299Y-68273777D01*
X94025998Y-68274010D01*
X94004589Y-68280563D01*
X93975931Y-68291837D01*
X93943881Y-68306233D01*
X93912300Y-68322151D01*
X93892474Y-68333382D01*
X93832073Y-68373746D01*
X93781319Y-68417504D01*
X93734202Y-68470103D01*
X93716525Y-68492844D01*
X93660849Y-68576305D01*
X93614808Y-68666787D01*
X93577848Y-68766020D01*
X93549416Y-68875735D01*
X93528957Y-68997659D01*
X93517199Y-69115183D01*
X93513912Y-69152947D01*
X93510312Y-69176645D01*
X93505688Y-69189140D01*
X93499332Y-69193295D01*
X93497835Y-69193377D01*
X93485553Y-69192754D01*
X93459143Y-69191085D01*
X93421366Y-69188558D01*
X93374983Y-69185356D01*
X93322755Y-69181665D01*
X93310667Y-69180800D01*
X93257078Y-69177014D01*
X93208307Y-69173679D01*
X93167227Y-69170983D01*
X93136708Y-69169113D01*
X93119622Y-69168257D01*
X93118050Y-69168223D01*
X93109124Y-69167310D01*
X93103540Y-69162569D01*
X93100521Y-69150786D01*
X93099289Y-69128750D01*
X93099067Y-69093248D01*
X93099070Y-69089783D01*
X93105972Y-68952941D01*
X93125755Y-68812390D01*
X93157384Y-68672761D01*
X93199827Y-68538683D01*
X93247668Y-68423938D01*
X93316890Y-68296761D01*
X93398510Y-68181024D01*
X93492190Y-68077010D01*
X93597591Y-67985002D01*
X93714372Y-67905283D01*
X93842195Y-67838136D01*
X93980721Y-67783845D01*
X94035429Y-67766836D01*
X94101232Y-67748987D01*
X94163846Y-67734923D01*
X94226609Y-67724259D01*
X94292859Y-67716611D01*
X94365935Y-67711594D01*
X94449175Y-67708824D01*
X94545917Y-67707915D01*
X94546800Y-67707915D01*
X94622878Y-67708101D01*
G37*
X94622878Y-67708101D02*
X94684914Y-67708904D01*
X94735792Y-67710464D01*
X94778397Y-67712920D01*
X94815613Y-67716411D01*
X94850324Y-67721079D01*
X94864047Y-67723288D01*
X94992573Y-67750239D01*
X95106987Y-67785801D01*
X95207978Y-67830358D01*
X95296235Y-67884297D01*
X95372446Y-67948000D01*
X95437301Y-68021853D01*
X95462114Y-68057201D01*
X95509015Y-68142878D01*
X95545389Y-68239060D01*
X95570876Y-68342711D01*
X95585115Y-68450796D01*
X95587747Y-68560280D01*
X95578413Y-68668126D01*
X95556753Y-68771300D01*
X95549573Y-68795367D01*
X95511441Y-68888058D01*
X95458573Y-68973960D01*
X95392114Y-69052165D01*
X95313208Y-69121767D01*
X95222998Y-69181859D01*
X95122628Y-69231534D01*
X95013241Y-69269885D01*
X94924535Y-69290947D01*
X94868855Y-69298417D01*
X94802335Y-69302365D01*
X94730685Y-69302856D01*
X94659612Y-69299951D01*
X94594827Y-69293715D01*
X94553447Y-69286817D01*
X94449278Y-69259845D01*
X94358922Y-69225342D01*
X94280553Y-69182280D01*
X94212350Y-69129628D01*
X94152488Y-69066358D01*
X94143980Y-69055715D01*
X94089268Y-68975287D01*
X94046587Y-68888437D01*
X94015110Y-68792919D01*
X93994009Y-68686487D01*
X93987259Y-68630199D01*
X93982816Y-68560208D01*
X93984827Y-68497915D01*
X93988908Y-68470714D01*
X94388488Y-68470714D01*
X94394754Y-68546256D01*
X94410603Y-68615582D01*
X94435734Y-68676426D01*
X94469844Y-68726521D01*
X94500234Y-68754994D01*
X94540566Y-68779830D01*
X94590179Y-68802061D01*
X94641429Y-68818513D01*
X94665334Y-68823588D01*
X94704507Y-68827330D01*
X94753244Y-68828000D01*
X94804501Y-68825835D01*
X94851237Y-68821072D01*
X94877000Y-68816436D01*
X94934090Y-68801190D01*
X94979880Y-68783869D01*
X95020002Y-68762192D01*
X95034382Y-68752718D01*
X95089279Y-68708213D01*
X95128307Y-68660315D01*
X95152469Y-68607075D01*
X95162767Y-68546543D01*
X95162568Y-68503467D01*
X95154557Y-68441308D01*
X95139830Y-68396028D01*
X95108448Y-68347883D01*
X95062406Y-68303654D01*
X95003782Y-68264706D01*
X94934658Y-68232405D01*
X94857111Y-68208117D01*
X94851600Y-68206794D01*
X94816952Y-68200305D01*
X94773248Y-68195263D01*
X94718177Y-68191480D01*
X94649426Y-68188772D01*
X94617616Y-68187948D01*
X94447132Y-68184055D01*
X94430211Y-68229461D01*
X94405914Y-68310050D01*
X94392107Y-68391223D01*
X94388488Y-68470714D01*
X93988908Y-68470714D01*
X93994021Y-68436647D01*
X94011128Y-68369731D01*
X94018270Y-68346422D01*
X94027715Y-68314827D01*
X94034156Y-68289907D01*
X94036616Y-68275608D01*
X94036299Y-68273777D01*
X94025998Y-68274010D01*
X94004589Y-68280563D01*
X93975931Y-68291837D01*
X93943881Y-68306233D01*
X93912300Y-68322151D01*
X93892474Y-68333382D01*
X93832073Y-68373746D01*
X93781319Y-68417504D01*
X93734202Y-68470103D01*
X93716525Y-68492844D01*
X93660849Y-68576305D01*
X93614808Y-68666787D01*
X93577848Y-68766020D01*
X93549416Y-68875735D01*
X93528957Y-68997659D01*
X93517199Y-69115183D01*
X93513912Y-69152947D01*
X93510312Y-69176645D01*
X93505688Y-69189140D01*
X93499332Y-69193295D01*
X93497835Y-69193377D01*
X93485553Y-69192754D01*
X93459143Y-69191085D01*
X93421366Y-69188558D01*
X93374983Y-69185356D01*
X93322755Y-69181665D01*
X93310667Y-69180800D01*
X93257078Y-69177014D01*
X93208307Y-69173679D01*
X93167227Y-69170983D01*
X93136708Y-69169113D01*
X93119622Y-69168257D01*
X93118050Y-69168223D01*
X93109124Y-69167310D01*
X93103540Y-69162569D01*
X93100521Y-69150786D01*
X93099289Y-69128750D01*
X93099067Y-69093248D01*
X93099070Y-69089783D01*
X93105972Y-68952941D01*
X93125755Y-68812390D01*
X93157384Y-68672761D01*
X93199827Y-68538683D01*
X93247668Y-68423938D01*
X93316890Y-68296761D01*
X93398510Y-68181024D01*
X93492190Y-68077010D01*
X93597591Y-67985002D01*
X93714372Y-67905283D01*
X93842195Y-67838136D01*
X93980721Y-67783845D01*
X94035429Y-67766836D01*
X94101232Y-67748987D01*
X94163846Y-67734923D01*
X94226609Y-67724259D01*
X94292859Y-67716611D01*
X94365935Y-67711594D01*
X94449175Y-67708824D01*
X94545917Y-67707915D01*
X94546800Y-67707915D01*
X94622878Y-67708101D01*
D11*
X133612000Y-92752000D03*
X133612000Y-90212000D03*
X133612000Y-87672000D03*
X133612000Y-85132000D03*
D12*
X133612000Y-82592000D03*
D13*
X97350000Y-62371000D03*
X97350000Y-64149000D03*
X97350000Y-63260000D03*
X119388000Y-107230000D03*
X119388000Y-106214000D03*
X118245000Y-106214000D03*
X118245000Y-107230000D03*
X117102000Y-106214000D03*
X117102000Y-107230000D03*
D14*
X118245000Y-106722000D03*
D15*
X98577000Y-76571500D03*
X98579600Y-72097700D03*
X98577000Y-74351500D03*
D16*
X94305500Y-104817000D03*
D17*
X94305500Y-102277000D03*
X96845500Y-104817000D03*
X96845500Y-102277000D03*
X99385500Y-104817000D03*
X99385500Y-102277000D03*
X101925500Y-104817000D03*
X101925500Y-102277000D03*
D18*
X95945000Y-71160000D03*
X95945000Y-79800000D03*
D19*
X91865000Y-71160000D03*
X91865000Y-79800000D03*
D20*
X104880000Y-111020000D03*
X181090000Y-62780000D03*
X106150000Y-62770000D03*
X187420000Y-111010000D03*
D12*
X187460000Y-67860000D03*
D11*
X184920000Y-67860000D03*
X187460000Y-70400000D03*
X184920000Y-70400000D03*
X187460000Y-72940000D03*
X184920000Y-72940000D03*
X187460000Y-75480000D03*
X184920000Y-75480000D03*
X187460000Y-78020000D03*
X184920000Y-78020000D03*
X187460000Y-80560000D03*
X184920000Y-80560000D03*
X187460000Y-83100000D03*
X184920000Y-83100000D03*
X187460000Y-85640000D03*
X184920000Y-85640000D03*
X187460000Y-88180000D03*
X184920000Y-88180000D03*
X187460000Y-90720000D03*
X184920000Y-90720000D03*
X187460000Y-93260000D03*
X184920000Y-93260000D03*
X187460000Y-95800000D03*
X184920000Y-95800000D03*
X187460000Y-98340000D03*
X184920000Y-98340000D03*
X187460000Y-100880000D03*
X184920000Y-100880000D03*
D12*
X156980000Y-62780000D03*
D11*
X159520000Y-62780000D03*
X162060000Y-62780000D03*
X164600000Y-62780000D03*
X167140000Y-62780000D03*
X169680000Y-62780000D03*
X172220000Y-62780000D03*
X174760000Y-62780000D03*
X164600000Y-111040000D03*
X162060000Y-111040000D03*
X159520000Y-111040000D03*
X156980000Y-111040000D03*
X154440000Y-111040000D03*
X151900000Y-111040000D03*
X149360000Y-111040000D03*
D12*
X146820000Y-111040000D03*
X131580000Y-62780000D03*
D11*
X134120000Y-62780000D03*
X136660000Y-62780000D03*
X139200000Y-62780000D03*
D12*
X144280000Y-62780000D03*
D11*
X146820000Y-62780000D03*
X149360000Y-62780000D03*
X151900000Y-62780000D03*
X141740000Y-111074000D03*
X139200000Y-111074000D03*
X136660000Y-111074000D03*
D12*
X134120000Y-111074000D03*
X113800000Y-62780000D03*
D11*
X116340000Y-62780000D03*
X118880000Y-62780000D03*
X121420000Y-62780000D03*
X123960000Y-62780000D03*
X126500000Y-62780000D03*
D15*
X98577000Y-78782000D03*
D12*
X93162500Y-111294000D03*
D11*
X93162500Y-108754000D03*
D12*
X99703000Y-110024000D03*
D11*
X97163000Y-110024000D03*
D21*
X148199002Y-103692000D03*
X104338000Y-67796024D03*
X115768500Y-108627000D03*
X114816000Y-102213500D03*
X121251290Y-104817000D03*
X118753000Y-84433500D03*
X118753000Y-90402506D03*
X124468000Y-105593522D03*
X141012600Y-85399000D03*
X168283006Y-94720500D03*
X168283004Y-84243000D03*
X108910500Y-90275500D03*
X157678500Y-105007500D03*
X144751558Y-83900697D03*
X149550500Y-72495500D03*
X157678500Y-103737500D03*
X145931000Y-83925500D03*
X141004300Y-83799000D03*
X167140000Y-94720500D03*
X167140000Y-85128390D03*
X108910500Y-92498000D03*
X163456992Y-74972000D03*
X151099200Y-73503500D03*
X107577004Y-101261000D03*
X179014512Y-70908000D03*
X172474000Y-70907996D03*
X107577000Y-103420000D03*
X176728500Y-73829000D03*
X152408000Y-87037000D03*
X147391500Y-87037000D03*
X150757000Y-75797496D03*
X108910500Y-88116500D03*
X111768000Y-85894000D03*
X108910500Y-93641000D03*
X142629000Y-95673000D03*
X132342000Y-91482000D03*
X118499000Y-94022000D03*
X143899000Y-90910500D03*
X149550500Y-74019500D03*
X149105982Y-67606000D03*
X178443000Y-95990500D03*
X167140000Y-95990504D03*
X164919000Y-85513000D03*
X178379502Y-84243000D03*
X117419500Y-103229500D03*
X121991500Y-106722000D03*
X98560000Y-72114501D03*
X99068000Y-66713972D03*
X118498992Y-109893390D03*
X118053500Y-100054000D03*
X100528500Y-94085500D03*
X119648000Y-100921210D03*
X120721500Y-108754000D03*
X110053500Y-76559500D03*
X98577000Y-76571500D03*
X110053500Y-74337000D03*
X98577000Y-74351500D03*
X162695000Y-95101500D03*
X150439500Y-89386499D03*
X144787992Y-95673000D03*
X145486500Y-106468000D03*
X145690000Y-96562000D03*
X145486500Y-104563000D03*
X158758000Y-99292500D03*
X156789504Y-99292494D03*
X154694000Y-99292504D03*
X152535000Y-99292500D03*
X117165498Y-77448500D03*
X139644500Y-85386002D03*
X141168500Y-93387000D03*
X141041500Y-86973500D03*
X158821500Y-90338996D03*
X158948500Y-74598221D03*
X153741500Y-75797500D03*
X168283000Y-97260500D03*
X150439500Y-91736000D03*
X166374390Y-87386784D03*
X152408000Y-90593000D03*
X102116000Y-63835000D03*
X92654500Y-83367000D03*
X93988000Y-91418500D03*
X127262000Y-95609500D03*
X140026000Y-75734500D03*
X147290000Y-98149500D03*
X151264998Y-105007500D03*
X134691500Y-107484000D03*
X135072016Y-101452000D03*
X125368500Y-77321506D03*
X157525804Y-68841433D03*
X157489619Y-71798619D03*
X169869000Y-93450500D03*
X165947000Y-89005500D03*
X169869000Y-82973000D03*
X167457500Y-79671000D03*
X165933500Y-102966410D03*
X136342500Y-101451500D03*
X158313500Y-65447000D03*
X132976998Y-67987000D03*
X120986500Y-66526500D03*
X120975500Y-67733000D03*
X159138998Y-71797000D03*
X176728500Y-86783000D03*
X176665000Y-97260500D03*
X171521500Y-89005500D03*
X171521500Y-92244000D03*
X135095000Y-72098500D03*
X171585000Y-79671000D03*
X178379500Y-82973000D03*
X172474000Y-73003500D03*
X178443000Y-93450500D03*
X178443000Y-72559000D03*
X126840020Y-82893500D03*
X173426500Y-93450506D03*
X172474000Y-83477390D03*
X146490000Y-97324000D03*
X151264998Y-107166500D03*
X149677504Y-80052000D03*
X149677500Y-83925500D03*
X153360500Y-81576000D03*
X157995998Y-78527998D03*
X103767000Y-103356500D03*
X103767000Y-101261000D03*
X124087000Y-67733000D03*
X125103000Y-110024000D03*
X125103000Y-111040000D03*
X123833000Y-111040000D03*
X123833000Y-110024000D03*
X175840000Y-102991500D03*
X102098400Y-62239200D03*
X133233000Y-102727000D03*
X102180000Y-71510300D03*
X173647267Y-103703962D03*
X172292084Y-105569212D03*
X172292084Y-107874788D03*
X173647267Y-109740038D03*
X175840000Y-110452500D03*
X178032733Y-109740038D03*
X179387916Y-107874788D03*
X179387916Y-105569212D03*
X178032733Y-103703962D03*
X159456500Y-103737500D03*
X115768500Y-112183000D03*
X111958500Y-112183000D03*
X128024000Y-112183000D03*
X130183000Y-112183000D03*
X92400506Y-62454400D03*
X150047211Y-101436973D03*
X145486500Y-107611000D03*
X143518000Y-71035000D03*
X148979000Y-99419500D03*
X172474000Y-98403496D03*
X143899000Y-87799002D03*
X139805694Y-101451500D03*
X181681500Y-76369000D03*
X151138000Y-71987500D03*
X148598000Y-75797500D03*
X124087000Y-66526500D03*
X172474000Y-87862500D03*
X177871500Y-78591500D03*
X163266500Y-89005504D03*
X160726000Y-95101990D03*
X148090000Y-91863004D03*
X128443500Y-77321500D03*
X103767000Y-105579000D03*
X127262000Y-97768504D03*
X111006000Y-102213500D03*
X114816008Y-100054500D03*
X114752500Y-73434000D03*
X114727518Y-77956500D03*
X114727518Y-76813500D03*
X115832000Y-73434000D03*
X146185000Y-68685500D03*
X145738884Y-71036622D03*
X106244000Y-75416500D03*
X101608000Y-75226000D03*
X92455000Y-98601468D03*
X92905000Y-85101484D03*
X103255000Y-85101484D03*
X107555012Y-96476710D03*
X117139000Y-97209500D03*
X136914000Y-76051500D03*
X120657994Y-79671000D03*
X109736000Y-67796490D03*
X121991500Y-72685996D03*
X147260890Y-83925500D03*
X154186000Y-67606000D03*
X163139500Y-67606000D03*
X151421061Y-88436937D03*
X172474000Y-77512000D03*
X109990000Y-79925000D03*
X126750982Y-85259000D03*
X133167500Y-99277956D03*
X167989000Y-75012500D03*
X157551500Y-84624000D03*
X167838500Y-71987504D03*
X159901000Y-79925000D03*
X159012000Y-88497500D03*
X155646502Y-83798502D03*
D22*
X168283004Y-94720498D02*
X168283006Y-94720500D01*
X168283004Y-84243000D02*
X168283004Y-94720498D01*
X141012600Y-85399000D02*
X141867000Y-84544600D01*
X141867000Y-84544600D02*
X141867000Y-83163500D01*
X141867000Y-83163500D02*
X128278000Y-69574500D01*
X128278000Y-69574500D02*
X128278000Y-62018000D01*
X128278000Y-62018000D02*
X127325500Y-61065500D01*
X120594500Y-61065500D02*
X118880000Y-62780000D01*
X127325500Y-61065500D02*
X120594500Y-61065500D01*
X108910500Y-90275500D02*
X111641000Y-90275500D01*
X111641000Y-90275500D02*
X112657000Y-89259500D01*
X112657000Y-89259500D02*
X112657000Y-69003000D01*
X117498401Y-64161599D02*
X118880000Y-62780000D01*
X112657000Y-69003000D02*
X117498401Y-64161599D01*
X149550500Y-72495500D02*
X150122000Y-71924000D01*
X150122000Y-63542000D02*
X149360000Y-62780000D01*
X150122000Y-71924000D02*
X150122000Y-63542000D01*
X139200000Y-62780000D02*
X140787500Y-64367500D01*
X147772500Y-64367500D02*
X149360000Y-62780000D01*
X144751558Y-83900697D02*
X140914500Y-80063639D01*
X140914500Y-80063639D02*
X140914500Y-64367500D01*
X140914500Y-64367500D02*
X147772500Y-64367500D01*
X140787500Y-64367500D02*
X140914500Y-64367500D01*
X144751558Y-83900697D02*
X145855861Y-85005000D01*
X145855861Y-85005000D02*
X145855861Y-86580861D01*
X145855861Y-86580861D02*
X145867500Y-86592500D01*
X145867500Y-86592500D02*
X145867500Y-95038000D01*
X155837000Y-105007500D02*
X157678500Y-105007500D01*
X145867500Y-95038000D02*
X155837000Y-105007500D01*
X136660000Y-62780000D02*
X138311000Y-61129000D01*
X150249000Y-61129000D02*
X151900000Y-62780000D01*
X138311000Y-61129000D02*
X150249000Y-61129000D01*
X145931000Y-83925500D02*
X146566000Y-84560500D01*
X146566000Y-84560500D02*
X146566000Y-94657000D01*
X155646500Y-103737500D02*
X157678500Y-103737500D01*
X146566000Y-94657000D02*
X155646500Y-103737500D01*
X167140000Y-85128390D02*
X167140000Y-94720500D01*
X108910500Y-92498000D02*
X111196500Y-92498000D01*
X111196500Y-92498000D02*
X113482500Y-90212000D01*
X113482500Y-70717500D02*
X121420000Y-62780000D01*
X113482500Y-90212000D02*
X113482500Y-70717500D01*
X127922800Y-70717500D02*
X141004300Y-83799000D01*
X113482500Y-70717500D02*
X127922800Y-70717500D01*
X159520000Y-65574000D02*
X159520000Y-62780000D01*
X151590500Y-73503500D02*
X159520000Y-65574000D01*
X151099200Y-73503500D02*
X151590500Y-73503500D01*
X132151500Y-92752000D02*
X133612000Y-92752000D01*
X131707000Y-92307500D02*
X132151500Y-92752000D01*
X116530504Y-92307500D02*
X131707000Y-92307500D01*
X107577004Y-101261000D02*
X116530504Y-92307500D01*
X135136000Y-90212000D02*
X133612000Y-90212000D01*
X135898000Y-90974000D02*
X135136000Y-90212000D01*
X135009000Y-94911000D02*
X135898000Y-94022000D01*
X131389500Y-94911000D02*
X135009000Y-94911000D01*
X135898000Y-94022000D02*
X135898000Y-90974000D01*
X129548000Y-93069500D02*
X131389500Y-94911000D01*
X117927500Y-93069500D02*
X129548000Y-93069500D01*
X107577000Y-103420000D02*
X117927500Y-93069500D01*
X176728500Y-73829000D02*
X176728500Y-76178500D01*
X181110000Y-80560000D02*
X184920000Y-80560000D01*
X176728500Y-76178500D02*
X181110000Y-80560000D01*
X150757000Y-75797496D02*
X148026500Y-78527996D01*
X148026500Y-78527996D02*
X148026500Y-85068500D01*
X147391500Y-85703500D02*
X147391500Y-87037000D01*
X148026500Y-85068500D02*
X147391500Y-85703500D01*
X108910500Y-88116500D02*
X111196500Y-88116500D01*
X111768000Y-87545000D02*
X111768000Y-85894000D01*
X111196500Y-88116500D02*
X111768000Y-87545000D01*
X111768000Y-67352000D02*
X116340000Y-62780000D01*
X111768000Y-85894000D02*
X111768000Y-67352000D01*
X108910500Y-93641000D02*
X113990500Y-93641000D01*
X113990500Y-93641000D02*
X116149500Y-91482000D01*
X116149500Y-91482000D02*
X132342000Y-91482000D01*
X118499000Y-94022000D02*
X129357500Y-94022000D01*
X129357500Y-94022000D02*
X131199000Y-95863500D01*
X131199000Y-95863500D02*
X136787000Y-95863500D01*
X141740000Y-90910500D02*
X143899000Y-90910500D01*
X136787000Y-95863500D02*
X141740000Y-90910500D01*
X149550500Y-74019500D02*
X148534500Y-73003500D01*
X148534500Y-68177482D02*
X149105982Y-67606000D01*
X148534500Y-73003500D02*
X148534500Y-68177482D01*
X178442996Y-95990504D02*
X178443000Y-95990500D01*
X167140000Y-95990504D02*
X178442996Y-95990504D01*
X164919000Y-85513000D02*
X167014500Y-83417500D01*
X167014500Y-83417500D02*
X168918000Y-83417500D01*
X168918000Y-83417500D02*
X169743500Y-84243000D01*
X169743500Y-84243000D02*
X178379502Y-84243000D01*
X98579600Y-72097700D02*
X98562799Y-72114501D01*
X98562799Y-72114501D02*
X98560000Y-72114501D01*
D23*
X119648000Y-100921210D02*
X120178290Y-101451500D01*
X120721500Y-108754000D02*
X120721500Y-105579000D01*
X120178290Y-105035790D02*
X120178290Y-101451500D01*
X120721500Y-105579000D02*
X120178290Y-105035790D01*
D22*
X110041500Y-76571500D02*
X110053500Y-76559500D01*
X98577000Y-76571500D02*
X110041500Y-76571500D01*
X110039000Y-74351500D02*
X110053500Y-74337000D01*
X98577000Y-74351500D02*
X110039000Y-74351500D01*
X150439500Y-89386499D02*
X150439500Y-90275500D01*
X150439500Y-90275500D02*
X154186000Y-94022000D01*
X161615500Y-94022000D02*
X162695000Y-95101500D01*
X154186000Y-94022000D02*
X161615500Y-94022000D01*
X144534000Y-105515500D02*
X145486500Y-106468000D01*
X144534000Y-95926992D02*
X144534000Y-105515500D01*
X144787992Y-95673000D02*
X144534000Y-95926992D01*
X145486500Y-96765500D02*
X145690000Y-96562000D01*
X145486500Y-104563000D02*
X145486500Y-96765500D01*
D24*
X178887500Y-99292500D02*
X184920000Y-93260000D01*
X158758000Y-99292500D02*
X178887500Y-99292500D01*
X184920000Y-95863500D02*
X184920000Y-95800000D01*
X180538500Y-100245000D02*
X184920000Y-95863500D01*
X157742010Y-100245000D02*
X180538500Y-100245000D01*
X156789504Y-99292494D02*
X157742010Y-100245000D01*
X182189500Y-101070500D02*
X184920000Y-98340000D01*
X156471996Y-101070500D02*
X182189500Y-101070500D01*
X154694000Y-99292504D02*
X156471996Y-101070500D01*
X183777000Y-102023000D02*
X184920000Y-100880000D01*
X155265500Y-102023000D02*
X183777000Y-102023000D01*
X152535000Y-99292500D02*
X155265500Y-102023000D01*
D22*
X117165498Y-77448500D02*
X118498998Y-78782000D01*
X133040498Y-78782000D02*
X139644500Y-85386002D01*
X118498998Y-78782000D02*
X133040498Y-78782000D01*
X141041500Y-86973500D02*
X144915000Y-86973500D01*
X144915000Y-86973500D02*
X145169000Y-87227500D01*
X145169000Y-87227500D02*
X145169000Y-91990000D01*
X143772000Y-93387000D02*
X141168500Y-93387000D01*
X145169000Y-91990000D02*
X143772000Y-93387000D01*
X158821500Y-90338996D02*
X162441000Y-86719496D01*
X162441000Y-86719496D02*
X162441000Y-86275000D01*
X162441000Y-86275000D02*
X176982500Y-71733500D01*
X181173500Y-71733500D02*
X184920000Y-75480000D01*
X176982500Y-71733500D02*
X181173500Y-71733500D01*
X150439500Y-91736000D02*
X155964000Y-97260500D01*
X155964000Y-97260500D02*
X168283000Y-97260500D01*
X166374390Y-87386784D02*
X162406174Y-91355000D01*
X153170000Y-91355000D02*
X152408000Y-90593000D01*
X162406174Y-91355000D02*
X153170000Y-91355000D01*
X151264998Y-105007500D02*
X147264500Y-101007002D01*
X147264500Y-98175000D02*
X147290000Y-98149500D01*
X147264500Y-101007002D02*
X147264500Y-98175000D01*
X151264998Y-107166500D02*
X150503000Y-107166500D01*
X146490000Y-103153500D02*
X146490000Y-97324000D01*
X150503000Y-107166500D02*
X146490000Y-103153500D01*
X149677504Y-78337496D02*
X149677504Y-80052000D01*
X161425000Y-66590000D02*
X149677504Y-78337496D01*
X183650000Y-66590000D02*
X161425000Y-66590000D01*
X184920000Y-67860000D02*
X183650000Y-66590000D01*
X184920000Y-70400000D02*
X183078500Y-68558500D01*
X183078500Y-68558500D02*
X163838000Y-68558500D01*
X149677500Y-82719000D02*
X149677500Y-83925500D01*
X163838000Y-68558500D02*
X149677500Y-82719000D01*
X157995998Y-78527998D02*
X166758996Y-69765000D01*
X181745000Y-69765000D02*
X184920000Y-72940000D01*
X166758996Y-69765000D02*
X181745000Y-69765000D01*
X137896000Y-109770000D02*
X139200000Y-111074000D01*
X129865500Y-109770000D02*
X137896000Y-109770000D01*
X128976500Y-108881000D02*
X129865500Y-109770000D01*
X122944000Y-108881000D02*
X128976500Y-108881000D01*
X120467500Y-111357500D02*
X122944000Y-108881000D01*
X111768000Y-111357500D02*
X120467500Y-111357500D01*
X103767000Y-103356500D02*
X111768000Y-111357500D01*
X139801000Y-109135000D02*
X141740000Y-111074000D01*
X130500500Y-109135000D02*
X139801000Y-109135000D01*
X122626500Y-108055500D02*
X129421000Y-108055500D01*
X119959500Y-110722500D02*
X122626500Y-108055500D01*
X129421000Y-108055500D02*
X130500500Y-109135000D01*
X112657000Y-110722500D02*
X119959500Y-110722500D01*
X103767000Y-101832500D02*
X112657000Y-110722500D01*
X103767000Y-101261000D02*
X103767000Y-101832500D01*
X98240500Y-79800000D02*
X95945000Y-79800000D01*
X98577000Y-79463500D02*
X98240500Y-79800000D01*
X98577000Y-78782000D02*
X98577000Y-79463500D01*
X158377500Y-84624000D02*
X167989000Y-75012500D01*
X157551500Y-84624000D02*
X158377500Y-84624000D01*
X167838496Y-71987504D02*
X167838500Y-71987504D01*
X159901000Y-79925000D02*
X167838496Y-71987504D01*
X155646502Y-85132002D02*
X159012000Y-88497500D01*
X155646502Y-83798502D02*
X155646502Y-85132002D01*
D25*
X189875001Y-113485000D02*
X189570500Y-113485000D01*
X189570500Y-113150500D01*
X189875001Y-113150500D01*
X189875001Y-113485000D01*
G04 #@! TA.AperFunction,NonConductor*
D26*
G36*
X189875001Y-113485000D02*
G01*
X189570500Y-113485000D01*
X189570500Y-113150500D01*
X189875001Y-113150500D01*
X189875001Y-113485000D01*
G37*
G04 #@! TD.AperFunction*
D25*
X91369500Y-60669500D02*
X91035000Y-60669500D01*
X91035000Y-60365000D01*
X91369500Y-60365000D01*
X91369500Y-60669500D01*
G04 #@! TA.AperFunction,NonConductor*
D26*
G36*
X91369500Y-60669500D02*
G01*
X91035000Y-60669500D01*
X91035000Y-60365000D01*
X91369500Y-60365000D01*
X91369500Y-60669500D01*
G37*
G04 #@! TD.AperFunction*
M02*
