G04 #@! TF.GenerationSoftware,KiCad,Pcbnew,5.1.10-88a1d61d58~88~ubuntu20.04.1*
G04 #@! TF.CreationDate,2021-05-30T17:39:30+02:00*
G04 #@! TF.ProjectId,PSLab,50534c61-622e-46b6-9963-61645f706362,v6.1*
G04 #@! TF.SameCoordinates,Original*
G04 #@! TF.FileFunction,Legend,Bot*
G04 #@! TF.FilePolarity,Positive*
%FSLAX46Y46*%
G04 Gerber Fmt 4.6, Leading zero omitted, Abs format (unit mm)*
G04 Created by KiCad (PCBNEW 5.1.10-88a1d61d58~88~ubuntu20.04.1) date 2021-05-30 17:39:30*
%MOMM*%
%LPD*%
G01*
G04 APERTURE LIST*
%ADD10C,0.120000*%
%ADD11C,0.010000*%
G04 APERTURE END LIST*
D10*
X97750000Y-76700000D02*
X99150000Y-76700000D01*
X99150000Y-76700000D02*
X99150000Y-75300000D01*
X99150000Y-75300000D02*
X97750000Y-75300000D01*
X97750000Y-75300000D02*
X97750000Y-76700000D01*
X97740000Y-78920000D02*
X99140000Y-78920000D01*
X99140000Y-78920000D02*
X99140000Y-77520000D01*
X99140000Y-77520000D02*
X97740000Y-77520000D01*
X97740000Y-77520000D02*
X97740000Y-78920000D01*
X97752600Y-72226200D02*
X99152600Y-72226200D01*
X99152600Y-72226200D02*
X99152600Y-70826200D01*
X99152600Y-70826200D02*
X97752600Y-70826200D01*
X97752600Y-70826200D02*
X97752600Y-72226200D01*
X97750000Y-74480000D02*
X99150000Y-74480000D01*
X99150000Y-74480000D02*
X99150000Y-73080000D01*
X99150000Y-73080000D02*
X97750000Y-73080000D01*
X97750000Y-73080000D02*
X97750000Y-74480000D01*
D11*
G36*
X151223529Y-81126471D02*
G01*
X137776471Y-81126471D01*
X137776471Y-85795588D01*
X138329294Y-85795588D01*
X138329294Y-81679294D01*
X142445588Y-81679294D01*
X142445588Y-85795588D01*
X138329294Y-85795588D01*
X137776471Y-85795588D01*
X137776471Y-88148824D01*
X138329294Y-88148824D01*
X138329294Y-87551177D01*
X138919471Y-87551177D01*
X138919471Y-87558647D01*
X139502176Y-87558647D01*
X139502176Y-86378294D01*
X140682529Y-86378294D01*
X140682529Y-87551177D01*
X141265235Y-87551177D01*
X141265235Y-86968471D01*
X141855412Y-86968471D01*
X141855412Y-86378294D01*
X142445588Y-86378294D01*
X142445588Y-86968471D01*
X143028294Y-86968471D01*
X143028294Y-84025059D01*
X143618471Y-84025059D01*
X143618471Y-85205412D01*
X144201086Y-85205412D01*
X144204912Y-84028794D01*
X144498132Y-84026840D01*
X144791353Y-84024885D01*
X144791353Y-83442353D01*
X144201176Y-83442353D01*
X144201176Y-82859647D01*
X143618471Y-82859647D01*
X143618471Y-83442353D01*
X143028294Y-83442353D01*
X143028294Y-81679294D01*
X144208647Y-81679294D01*
X144208647Y-82262000D01*
X144791353Y-82262000D01*
X144791353Y-81679294D01*
X145381529Y-81679294D01*
X145381529Y-82852177D01*
X146561943Y-82852177D01*
X146558147Y-84618971D01*
X145969838Y-84620884D01*
X145381529Y-84622796D01*
X145381529Y-84032529D01*
X144798823Y-84032529D01*
X144798823Y-85205412D01*
X145971706Y-85205412D01*
X145971706Y-85788118D01*
X146554412Y-85788118D01*
X146554412Y-85205412D01*
X147144588Y-85205412D01*
X147144588Y-84615235D01*
X148317471Y-84615235D01*
X148317471Y-84032529D01*
X147727294Y-84032529D01*
X147727294Y-81679294D01*
X148907647Y-81679294D01*
X148907647Y-82269471D01*
X148324941Y-82269471D01*
X148324941Y-83442353D01*
X148907647Y-83442353D01*
X148907647Y-82852177D01*
X149490353Y-82852177D01*
X149490353Y-81679294D01*
X150670706Y-81679294D01*
X150670706Y-82269471D01*
X150088000Y-82269471D01*
X150088000Y-82852177D01*
X150670706Y-82852177D01*
X150670706Y-83442353D01*
X150080529Y-83442353D01*
X150080529Y-82859647D01*
X149497823Y-82859647D01*
X149497823Y-83442353D01*
X148907647Y-83442353D01*
X148907647Y-84622706D01*
X148324941Y-84622706D01*
X148324941Y-85795588D01*
X148907647Y-85795588D01*
X148907647Y-85205412D01*
X149490353Y-85205412D01*
X149490353Y-84615235D01*
X150080529Y-84615235D01*
X150080529Y-84025059D01*
X150670706Y-84025059D01*
X150670706Y-84622706D01*
X150088000Y-84622706D01*
X150088000Y-85205412D01*
X150670706Y-85205412D01*
X150670706Y-86385855D01*
X149494088Y-86382029D01*
X149492134Y-86088809D01*
X149490179Y-85795588D01*
X148907647Y-85795588D01*
X148324941Y-85795588D01*
X148324941Y-86378294D01*
X148907647Y-86378294D01*
X148907647Y-86968471D01*
X148324941Y-86968471D01*
X148324941Y-88148824D01*
X148907647Y-88148824D01*
X148907647Y-87551177D01*
X149490353Y-87551177D01*
X149490353Y-86968471D01*
X150088000Y-86968471D01*
X150088000Y-87551177D01*
X150670706Y-87551177D01*
X150670706Y-88731529D01*
X150080529Y-88731529D01*
X150080529Y-88148824D01*
X148907647Y-88148824D01*
X148324941Y-88148824D01*
X148324941Y-88731529D01*
X147144588Y-88731529D01*
X147144588Y-89321706D01*
X148907647Y-89321706D01*
X148907647Y-88731529D01*
X149497823Y-88731529D01*
X149497823Y-89321706D01*
X148907647Y-89321706D01*
X147144588Y-89321706D01*
X145971706Y-89321706D01*
X145971706Y-90494588D01*
X145381529Y-90494588D01*
X145381529Y-89911882D01*
X144798823Y-89911882D01*
X144798823Y-91084765D01*
X144208647Y-91084765D01*
X144208647Y-92257647D01*
X144791353Y-92257647D01*
X144791353Y-91667471D01*
X145971706Y-91667471D01*
X145971706Y-92847824D01*
X144798997Y-92847824D01*
X144797043Y-93141044D01*
X144795088Y-93434265D01*
X144501868Y-93436219D01*
X144208647Y-93438174D01*
X144208647Y-94020706D01*
X146554412Y-94020706D01*
X146554412Y-89904412D01*
X150670706Y-89904412D01*
X150670706Y-94020706D01*
X146554412Y-94020706D01*
X144208647Y-94020706D01*
X143618471Y-94020706D01*
X143618471Y-93430529D01*
X144201176Y-93430529D01*
X144201176Y-92257647D01*
X143618471Y-92257647D01*
X143618471Y-90494588D01*
X143028294Y-90494588D01*
X143028294Y-89321706D01*
X140675059Y-89321706D01*
X140675059Y-87558647D01*
X139502176Y-87558647D01*
X138919471Y-87558647D01*
X138919471Y-88148824D01*
X138329294Y-88148824D01*
X137776471Y-88148824D01*
X137776471Y-89321706D01*
X138329294Y-89321706D01*
X138329294Y-88731529D01*
X140092353Y-88731529D01*
X140092353Y-89321706D01*
X138329294Y-89321706D01*
X137776471Y-89321706D01*
X137776471Y-94020706D01*
X138329294Y-94020706D01*
X138329294Y-89904412D01*
X142445588Y-89904412D01*
X142445588Y-92847824D01*
X143028294Y-92847824D01*
X143028294Y-92257647D01*
X143618471Y-92257647D01*
X143618471Y-92847824D01*
X143028294Y-92847824D01*
X142445588Y-92847824D01*
X142445588Y-94020706D01*
X138329294Y-94020706D01*
X137776471Y-94020706D01*
X137776471Y-94573529D01*
X151223529Y-94573529D01*
X151223529Y-81126471D01*
G37*
X151223529Y-81126471D02*
X137776471Y-81126471D01*
X137776471Y-85795588D01*
X138329294Y-85795588D01*
X138329294Y-81679294D01*
X142445588Y-81679294D01*
X142445588Y-85795588D01*
X138329294Y-85795588D01*
X137776471Y-85795588D01*
X137776471Y-88148824D01*
X138329294Y-88148824D01*
X138329294Y-87551177D01*
X138919471Y-87551177D01*
X138919471Y-87558647D01*
X139502176Y-87558647D01*
X139502176Y-86378294D01*
X140682529Y-86378294D01*
X140682529Y-87551177D01*
X141265235Y-87551177D01*
X141265235Y-86968471D01*
X141855412Y-86968471D01*
X141855412Y-86378294D01*
X142445588Y-86378294D01*
X142445588Y-86968471D01*
X143028294Y-86968471D01*
X143028294Y-84025059D01*
X143618471Y-84025059D01*
X143618471Y-85205412D01*
X144201086Y-85205412D01*
X144204912Y-84028794D01*
X144498132Y-84026840D01*
X144791353Y-84024885D01*
X144791353Y-83442353D01*
X144201176Y-83442353D01*
X144201176Y-82859647D01*
X143618471Y-82859647D01*
X143618471Y-83442353D01*
X143028294Y-83442353D01*
X143028294Y-81679294D01*
X144208647Y-81679294D01*
X144208647Y-82262000D01*
X144791353Y-82262000D01*
X144791353Y-81679294D01*
X145381529Y-81679294D01*
X145381529Y-82852177D01*
X146561943Y-82852177D01*
X146558147Y-84618971D01*
X145969838Y-84620884D01*
X145381529Y-84622796D01*
X145381529Y-84032529D01*
X144798823Y-84032529D01*
X144798823Y-85205412D01*
X145971706Y-85205412D01*
X145971706Y-85788118D01*
X146554412Y-85788118D01*
X146554412Y-85205412D01*
X147144588Y-85205412D01*
X147144588Y-84615235D01*
X148317471Y-84615235D01*
X148317471Y-84032529D01*
X147727294Y-84032529D01*
X147727294Y-81679294D01*
X148907647Y-81679294D01*
X148907647Y-82269471D01*
X148324941Y-82269471D01*
X148324941Y-83442353D01*
X148907647Y-83442353D01*
X148907647Y-82852177D01*
X149490353Y-82852177D01*
X149490353Y-81679294D01*
X150670706Y-81679294D01*
X150670706Y-82269471D01*
X150088000Y-82269471D01*
X150088000Y-82852177D01*
X150670706Y-82852177D01*
X150670706Y-83442353D01*
X150080529Y-83442353D01*
X150080529Y-82859647D01*
X149497823Y-82859647D01*
X149497823Y-83442353D01*
X148907647Y-83442353D01*
X148907647Y-84622706D01*
X148324941Y-84622706D01*
X148324941Y-85795588D01*
X148907647Y-85795588D01*
X148907647Y-85205412D01*
X149490353Y-85205412D01*
X149490353Y-84615235D01*
X150080529Y-84615235D01*
X150080529Y-84025059D01*
X150670706Y-84025059D01*
X150670706Y-84622706D01*
X150088000Y-84622706D01*
X150088000Y-85205412D01*
X150670706Y-85205412D01*
X150670706Y-86385855D01*
X149494088Y-86382029D01*
X149492134Y-86088809D01*
X149490179Y-85795588D01*
X148907647Y-85795588D01*
X148324941Y-85795588D01*
X148324941Y-86378294D01*
X148907647Y-86378294D01*
X148907647Y-86968471D01*
X148324941Y-86968471D01*
X148324941Y-88148824D01*
X148907647Y-88148824D01*
X148907647Y-87551177D01*
X149490353Y-87551177D01*
X149490353Y-86968471D01*
X150088000Y-86968471D01*
X150088000Y-87551177D01*
X150670706Y-87551177D01*
X150670706Y-88731529D01*
X150080529Y-88731529D01*
X150080529Y-88148824D01*
X148907647Y-88148824D01*
X148324941Y-88148824D01*
X148324941Y-88731529D01*
X147144588Y-88731529D01*
X147144588Y-89321706D01*
X148907647Y-89321706D01*
X148907647Y-88731529D01*
X149497823Y-88731529D01*
X149497823Y-89321706D01*
X148907647Y-89321706D01*
X147144588Y-89321706D01*
X145971706Y-89321706D01*
X145971706Y-90494588D01*
X145381529Y-90494588D01*
X145381529Y-89911882D01*
X144798823Y-89911882D01*
X144798823Y-91084765D01*
X144208647Y-91084765D01*
X144208647Y-92257647D01*
X144791353Y-92257647D01*
X144791353Y-91667471D01*
X145971706Y-91667471D01*
X145971706Y-92847824D01*
X144798997Y-92847824D01*
X144797043Y-93141044D01*
X144795088Y-93434265D01*
X144501868Y-93436219D01*
X144208647Y-93438174D01*
X144208647Y-94020706D01*
X146554412Y-94020706D01*
X146554412Y-89904412D01*
X150670706Y-89904412D01*
X150670706Y-94020706D01*
X146554412Y-94020706D01*
X144208647Y-94020706D01*
X143618471Y-94020706D01*
X143618471Y-93430529D01*
X144201176Y-93430529D01*
X144201176Y-92257647D01*
X143618471Y-92257647D01*
X143618471Y-90494588D01*
X143028294Y-90494588D01*
X143028294Y-89321706D01*
X140675059Y-89321706D01*
X140675059Y-87558647D01*
X139502176Y-87558647D01*
X138919471Y-87558647D01*
X138919471Y-88148824D01*
X138329294Y-88148824D01*
X137776471Y-88148824D01*
X137776471Y-89321706D01*
X138329294Y-89321706D01*
X138329294Y-88731529D01*
X140092353Y-88731529D01*
X140092353Y-89321706D01*
X138329294Y-89321706D01*
X137776471Y-89321706D01*
X137776471Y-94020706D01*
X138329294Y-94020706D01*
X138329294Y-89904412D01*
X142445588Y-89904412D01*
X142445588Y-92847824D01*
X143028294Y-92847824D01*
X143028294Y-92257647D01*
X143618471Y-92257647D01*
X143618471Y-92847824D01*
X143028294Y-92847824D01*
X142445588Y-92847824D01*
X142445588Y-94020706D01*
X138329294Y-94020706D01*
X137776471Y-94020706D01*
X137776471Y-94573529D01*
X151223529Y-94573529D01*
X151223529Y-81126471D01*
G36*
X141855412Y-82269471D02*
G01*
X138919471Y-82269471D01*
X138919471Y-82852177D01*
X139502176Y-82852177D01*
X141272767Y-82852177D01*
X141268971Y-84618971D01*
X140385573Y-84620869D01*
X139502176Y-84622767D01*
X139502176Y-82852177D01*
X138919471Y-82852177D01*
X138919471Y-85205412D01*
X141855412Y-85205412D01*
X141855412Y-82269471D01*
G37*
X141855412Y-82269471D02*
X138919471Y-82269471D01*
X138919471Y-82852177D01*
X139502176Y-82852177D01*
X141272767Y-82852177D01*
X141268971Y-84618971D01*
X140385573Y-84620869D01*
X139502176Y-84622767D01*
X139502176Y-82852177D01*
X138919471Y-82852177D01*
X138919471Y-85205412D01*
X141855412Y-85205412D01*
X141855412Y-82269471D01*
G36*
X147727294Y-85205412D02*
G01*
X147144588Y-85205412D01*
X147144588Y-85788118D01*
X147727294Y-85788118D01*
X147727294Y-85205412D01*
G37*
X147727294Y-85205412D02*
X147144588Y-85205412D01*
X147144588Y-85788118D01*
X147727294Y-85788118D01*
X147727294Y-85205412D01*
G36*
X144791353Y-85795588D02*
G01*
X144208647Y-85795588D01*
X144208647Y-86378294D01*
X144791353Y-86378294D01*
X144791353Y-85795588D01*
G37*
X144791353Y-85795588D02*
X144208647Y-85795588D01*
X144208647Y-86378294D01*
X144791353Y-86378294D01*
X144791353Y-85795588D01*
G36*
X147727294Y-86968471D02*
G01*
X147144588Y-86968471D01*
X147144588Y-85795588D01*
X146561882Y-85795588D01*
X146561882Y-86968471D01*
X145971706Y-86968471D01*
X145971706Y-87551003D01*
X146264926Y-87552957D01*
X146558147Y-87554912D01*
X146560101Y-87848132D01*
X146562056Y-88141353D01*
X147727294Y-88141353D01*
X147727294Y-86968471D01*
G37*
X147727294Y-86968471D02*
X147144588Y-86968471D01*
X147144588Y-85795588D01*
X146561882Y-85795588D01*
X146561882Y-86968471D01*
X145971706Y-86968471D01*
X145971706Y-87551003D01*
X146264926Y-87552957D01*
X146558147Y-87554912D01*
X146560101Y-87848132D01*
X146562056Y-88141353D01*
X147727294Y-88141353D01*
X147727294Y-86968471D01*
G36*
X145381529Y-86385765D02*
G01*
X144798823Y-86385765D01*
X144798823Y-86968471D01*
X145381529Y-86968471D01*
X145381529Y-86385765D01*
G37*
X145381529Y-86385765D02*
X144798823Y-86385765D01*
X144798823Y-86968471D01*
X145381529Y-86968471D01*
X145381529Y-86385765D01*
G36*
X148317471Y-86385765D02*
G01*
X147734765Y-86385765D01*
X147734765Y-86968471D01*
X148317471Y-86968471D01*
X148317471Y-86385765D01*
G37*
X148317471Y-86385765D02*
X147734765Y-86385765D01*
X147734765Y-86968471D01*
X148317471Y-86968471D01*
X148317471Y-86385765D01*
G36*
X142438118Y-86968471D02*
G01*
X141855412Y-86968471D01*
X141855412Y-87551177D01*
X142438118Y-87551177D01*
X142438118Y-86968471D01*
G37*
X142438118Y-86968471D02*
X141855412Y-86968471D01*
X141855412Y-87551177D01*
X142438118Y-87551177D01*
X142438118Y-86968471D01*
G36*
X143618471Y-86968471D02*
G01*
X143035765Y-86968471D01*
X143035765Y-87551177D01*
X143618471Y-87551177D01*
X143618471Y-86968471D01*
G37*
X143618471Y-86968471D02*
X143035765Y-86968471D01*
X143035765Y-87551177D01*
X143618471Y-87551177D01*
X143618471Y-86968471D01*
G36*
X145381529Y-87558647D02*
G01*
X144791353Y-87558647D01*
X144791353Y-86968471D01*
X144208647Y-86968471D01*
X144208647Y-88141353D01*
X145381529Y-88141353D01*
X145381529Y-87558647D01*
G37*
X145381529Y-87558647D02*
X144791353Y-87558647D01*
X144791353Y-86968471D01*
X144208647Y-86968471D01*
X144208647Y-88141353D01*
X145381529Y-88141353D01*
X145381529Y-87558647D01*
G36*
X141855412Y-87558647D02*
G01*
X141272706Y-87558647D01*
X141272706Y-88141353D01*
X141855412Y-88141353D01*
X141855412Y-87558647D01*
G37*
X141855412Y-87558647D02*
X141272706Y-87558647D01*
X141272706Y-88141353D01*
X141855412Y-88141353D01*
X141855412Y-87558647D01*
G36*
X142438118Y-88148824D02*
G01*
X141855412Y-88148824D01*
X141855412Y-88731529D01*
X142438118Y-88731529D01*
X142438118Y-88148824D01*
G37*
X142438118Y-88148824D02*
X141855412Y-88148824D01*
X141855412Y-88731529D01*
X142438118Y-88731529D01*
X142438118Y-88148824D01*
G36*
X144201176Y-88148824D02*
G01*
X143035765Y-88148824D01*
X143035765Y-88731529D01*
X143618471Y-88731529D01*
X143618471Y-90494588D01*
X144201176Y-90494588D01*
X144201176Y-88148824D01*
G37*
X144201176Y-88148824D02*
X143035765Y-88148824D01*
X143035765Y-88731529D01*
X143618471Y-88731529D01*
X143618471Y-90494588D01*
X144201176Y-90494588D01*
X144201176Y-88148824D01*
G36*
X146554412Y-88148824D02*
G01*
X145971706Y-88148824D01*
X145971706Y-88731529D01*
X146554412Y-88731529D01*
X146554412Y-88148824D01*
G37*
X146554412Y-88148824D02*
X145971706Y-88148824D01*
X145971706Y-88731529D01*
X146554412Y-88731529D01*
X146554412Y-88148824D01*
G36*
X145964235Y-88731529D02*
G01*
X145381529Y-88731529D01*
X145381529Y-89314235D01*
X145964235Y-89314235D01*
X145964235Y-88731529D01*
G37*
X145964235Y-88731529D02*
X145381529Y-88731529D01*
X145381529Y-89314235D01*
X145964235Y-89314235D01*
X145964235Y-88731529D01*
G36*
X141855412Y-90494588D02*
G01*
X138919471Y-90494588D01*
X138919471Y-92847824D01*
X139502176Y-92847824D01*
X139502176Y-91077233D01*
X140385573Y-91079131D01*
X141268971Y-91081029D01*
X141270869Y-91964427D01*
X141272767Y-92847824D01*
X139502176Y-92847824D01*
X138919471Y-92847824D01*
X138919471Y-93430529D01*
X141855412Y-93430529D01*
X141855412Y-90494588D01*
G37*
X141855412Y-90494588D02*
X138919471Y-90494588D01*
X138919471Y-92847824D01*
X139502176Y-92847824D01*
X139502176Y-91077233D01*
X140385573Y-91079131D01*
X141268971Y-91081029D01*
X141270869Y-91964427D01*
X141272767Y-92847824D01*
X139502176Y-92847824D01*
X138919471Y-92847824D01*
X138919471Y-93430529D01*
X141855412Y-93430529D01*
X141855412Y-90494588D01*
G36*
X150080529Y-90494588D02*
G01*
X147144588Y-90494588D01*
X147144588Y-92847824D01*
X147727294Y-92847824D01*
X147727294Y-91967539D01*
X147727335Y-91854080D01*
X147727456Y-91744790D01*
X147727651Y-91640595D01*
X147727915Y-91542426D01*
X147728243Y-91451210D01*
X147728630Y-91367875D01*
X147729069Y-91293350D01*
X147729557Y-91228563D01*
X147730087Y-91174443D01*
X147730656Y-91131918D01*
X147731256Y-91101916D01*
X147731884Y-91085365D01*
X147732274Y-91082275D01*
X147740242Y-91081633D01*
X147762223Y-91081015D01*
X147797288Y-91080427D01*
X147844509Y-91079873D01*
X147902958Y-91079359D01*
X147971707Y-91078889D01*
X148049826Y-91078470D01*
X148136389Y-91078106D01*
X148230466Y-91077803D01*
X148331128Y-91077566D01*
X148437449Y-91077400D01*
X148548499Y-91077309D01*
X148617539Y-91077294D01*
X149497823Y-91077294D01*
X149497823Y-92847824D01*
X147727294Y-92847824D01*
X147144588Y-92847824D01*
X147144588Y-93430529D01*
X150080529Y-93430529D01*
X150080529Y-90494588D01*
G37*
X150080529Y-90494588D02*
X147144588Y-90494588D01*
X147144588Y-92847824D01*
X147727294Y-92847824D01*
X147727294Y-91967539D01*
X147727335Y-91854080D01*
X147727456Y-91744790D01*
X147727651Y-91640595D01*
X147727915Y-91542426D01*
X147728243Y-91451210D01*
X147728630Y-91367875D01*
X147729069Y-91293350D01*
X147729557Y-91228563D01*
X147730087Y-91174443D01*
X147730656Y-91131918D01*
X147731256Y-91101916D01*
X147731884Y-91085365D01*
X147732274Y-91082275D01*
X147740242Y-91081633D01*
X147762223Y-91081015D01*
X147797288Y-91080427D01*
X147844509Y-91079873D01*
X147902958Y-91079359D01*
X147971707Y-91078889D01*
X148049826Y-91078470D01*
X148136389Y-91078106D01*
X148230466Y-91077803D01*
X148331128Y-91077566D01*
X148437449Y-91077400D01*
X148548499Y-91077309D01*
X148617539Y-91077294D01*
X149497823Y-91077294D01*
X149497823Y-92847824D01*
X147727294Y-92847824D01*
X147144588Y-92847824D01*
X147144588Y-93430529D01*
X150080529Y-93430529D01*
X150080529Y-90494588D01*
G36*
X105144245Y-102199389D02*
G01*
X105144245Y-102425166D01*
X110308911Y-102425166D01*
X110308911Y-102199389D01*
X105144245Y-102199389D01*
G37*
X105144245Y-102199389D02*
X105144245Y-102425166D01*
X110308911Y-102425166D01*
X110308911Y-102199389D01*
X105144245Y-102199389D01*
G36*
X105144245Y-101973611D02*
G01*
X105144245Y-102080855D01*
X110308911Y-102080855D01*
X110308911Y-101973611D01*
X105144245Y-101973611D01*
G37*
X105144245Y-101973611D02*
X105144245Y-102080855D01*
X110308911Y-102080855D01*
X110308911Y-101973611D01*
X105144245Y-101973611D01*
G36*
X105144245Y-101629300D02*
G01*
X105144245Y-101742189D01*
X110308911Y-101742189D01*
X110308911Y-101629300D01*
X105144245Y-101629300D01*
G37*
X105144245Y-101629300D02*
X105144245Y-101742189D01*
X110308911Y-101742189D01*
X110308911Y-101629300D01*
X105144245Y-101629300D01*
G36*
X105144245Y-101064855D02*
G01*
X105144245Y-101172100D01*
X110308911Y-101172100D01*
X110308911Y-101064855D01*
X105144245Y-101064855D01*
G37*
X105144245Y-101064855D02*
X105144245Y-101172100D01*
X110308911Y-101172100D01*
X110308911Y-101064855D01*
X105144245Y-101064855D01*
G36*
X105144245Y-100607655D02*
G01*
X105144245Y-100833433D01*
X110308911Y-100833433D01*
X110308911Y-100607655D01*
X105144245Y-100607655D01*
G37*
X105144245Y-100607655D02*
X105144245Y-100833433D01*
X110308911Y-100833433D01*
X110308911Y-100607655D01*
X105144245Y-100607655D01*
G36*
X105144245Y-100037566D02*
G01*
X105144245Y-100150455D01*
X110308911Y-100150455D01*
X110308911Y-100037566D01*
X105144245Y-100037566D01*
G37*
X105144245Y-100037566D02*
X105144245Y-100150455D01*
X110308911Y-100150455D01*
X110308911Y-100037566D01*
X105144245Y-100037566D01*
G36*
X105144245Y-99811789D02*
G01*
X105144245Y-99924678D01*
X110308911Y-99924678D01*
X110308911Y-99811789D01*
X105144245Y-99811789D01*
G37*
X105144245Y-99811789D02*
X105144245Y-99924678D01*
X110308911Y-99924678D01*
X110308911Y-99811789D01*
X105144245Y-99811789D01*
G36*
X105144245Y-99128811D02*
G01*
X105144245Y-99580366D01*
X110308911Y-99580366D01*
X110308911Y-99128811D01*
X105144245Y-99128811D01*
G37*
X105144245Y-99128811D02*
X105144245Y-99580366D01*
X110308911Y-99580366D01*
X110308911Y-99128811D01*
X105144245Y-99128811D01*
G36*
X105144245Y-98903033D02*
G01*
X105144245Y-99010278D01*
X110308911Y-99010278D01*
X110308911Y-98903033D01*
X105144245Y-98903033D01*
G37*
X105144245Y-98903033D02*
X105144245Y-99010278D01*
X110308911Y-99010278D01*
X110308911Y-98903033D01*
X105144245Y-98903033D01*
G36*
X105144245Y-98558722D02*
G01*
X105144245Y-98671611D01*
X110308911Y-98671611D01*
X110308911Y-98558722D01*
X105144245Y-98558722D01*
G37*
X105144245Y-98558722D02*
X105144245Y-98671611D01*
X110308911Y-98671611D01*
X110308911Y-98558722D01*
X105144245Y-98558722D01*
G36*
X105144245Y-97881389D02*
G01*
X105144245Y-98332944D01*
X110308911Y-98332944D01*
X110308911Y-97881389D01*
X105144245Y-97881389D01*
G37*
X105144245Y-97881389D02*
X105144245Y-98332944D01*
X110308911Y-98332944D01*
X110308911Y-97881389D01*
X105144245Y-97881389D01*
G36*
X105144245Y-97649966D02*
G01*
X105144245Y-97762855D01*
X110308911Y-97762855D01*
X110308911Y-97649966D01*
X105144245Y-97649966D01*
G37*
X105144245Y-97649966D02*
X105144245Y-97762855D01*
X110308911Y-97762855D01*
X110308911Y-97649966D01*
X105144245Y-97649966D01*
G36*
X105144245Y-97311300D02*
G01*
X105144245Y-97418544D01*
X110308911Y-97418544D01*
X110308911Y-97311300D01*
X105144245Y-97311300D01*
G37*
X105144245Y-97311300D02*
X105144245Y-97418544D01*
X110308911Y-97418544D01*
X110308911Y-97311300D01*
X105144245Y-97311300D01*
G36*
X105144245Y-97085522D02*
G01*
X105144245Y-97192766D01*
X110308911Y-97192766D01*
X110308911Y-97085522D01*
X105144245Y-97085522D01*
G37*
X105144245Y-97085522D02*
X105144245Y-97192766D01*
X110308911Y-97192766D01*
X110308911Y-97085522D01*
X105144245Y-97085522D01*
G36*
X105144245Y-96402544D02*
G01*
X105144245Y-96854100D01*
X110308911Y-96854100D01*
X110308911Y-96402544D01*
X105144245Y-96402544D01*
G37*
X105144245Y-96402544D02*
X105144245Y-96854100D01*
X110308911Y-96854100D01*
X110308911Y-96402544D01*
X105144245Y-96402544D01*
G36*
X105144245Y-96058233D02*
G01*
X105144245Y-96171122D01*
X110308911Y-96171122D01*
X110308911Y-96058233D01*
X105144245Y-96058233D01*
G37*
X105144245Y-96058233D02*
X105144245Y-96171122D01*
X110308911Y-96171122D01*
X110308911Y-96058233D01*
X105144245Y-96058233D01*
G36*
X105144245Y-95493789D02*
G01*
X105144245Y-95945344D01*
X110308911Y-95945344D01*
X110308911Y-95493789D01*
X105144245Y-95493789D01*
G37*
X105144245Y-95493789D02*
X105144245Y-95945344D01*
X110308911Y-95945344D01*
X110308911Y-95493789D01*
X105144245Y-95493789D01*
G36*
X105144245Y-95149478D02*
G01*
X105144245Y-95262366D01*
X110308911Y-95262366D01*
X110308911Y-95149478D01*
X105144245Y-95149478D01*
G37*
X105144245Y-95149478D02*
X105144245Y-95262366D01*
X110308911Y-95262366D01*
X110308911Y-95149478D01*
X105144245Y-95149478D01*
G36*
X105144245Y-94579389D02*
G01*
X105144245Y-94918055D01*
X110308911Y-94918055D01*
X110308911Y-94579389D01*
X105144245Y-94579389D01*
G37*
X105144245Y-94579389D02*
X105144245Y-94918055D01*
X110308911Y-94918055D01*
X110308911Y-94579389D01*
X105144245Y-94579389D01*
G36*
X105144245Y-94240722D02*
G01*
X105144245Y-94353611D01*
X110308911Y-94353611D01*
X110308911Y-94240722D01*
X105144245Y-94240722D01*
G37*
X105144245Y-94240722D02*
X105144245Y-94353611D01*
X110308911Y-94353611D01*
X110308911Y-94240722D01*
X105144245Y-94240722D01*
G36*
X105144245Y-93783522D02*
G01*
X105144245Y-94009300D01*
X110308911Y-94009300D01*
X110308911Y-93783522D01*
X105144245Y-93783522D01*
G37*
X105144245Y-93783522D02*
X105144245Y-94009300D01*
X110308911Y-94009300D01*
X110308911Y-93783522D01*
X105144245Y-93783522D01*
G36*
X105144245Y-93557744D02*
G01*
X105144245Y-93670633D01*
X110308911Y-93670633D01*
X110308911Y-93557744D01*
X105144245Y-93557744D01*
G37*
X105144245Y-93557744D02*
X105144245Y-93670633D01*
X110308911Y-93670633D01*
X110308911Y-93557744D01*
X105144245Y-93557744D01*
G36*
X105144245Y-93106189D02*
G01*
X105144245Y-93439211D01*
X110308911Y-93439211D01*
X110308911Y-93106189D01*
X105144245Y-93106189D01*
G37*
X105144245Y-93106189D02*
X105144245Y-93439211D01*
X110308911Y-93439211D01*
X110308911Y-93106189D01*
X105144245Y-93106189D01*
G36*
X105144245Y-92648989D02*
G01*
X105144245Y-92874766D01*
X110308911Y-92874766D01*
X110308911Y-92648989D01*
X105144245Y-92648989D01*
G37*
X105144245Y-92648989D02*
X105144245Y-92874766D01*
X110308911Y-92874766D01*
X110308911Y-92648989D01*
X105144245Y-92648989D01*
G36*
X105144245Y-92310322D02*
G01*
X105144245Y-92417566D01*
X110308911Y-92417566D01*
X110308911Y-92310322D01*
X105144245Y-92310322D01*
G37*
X105144245Y-92310322D02*
X105144245Y-92417566D01*
X110308911Y-92417566D01*
X110308911Y-92310322D01*
X105144245Y-92310322D01*
G36*
X105144245Y-91853122D02*
G01*
X105144245Y-92191789D01*
X110308911Y-92191789D01*
X110308911Y-91853122D01*
X105144245Y-91853122D01*
G37*
X105144245Y-91853122D02*
X105144245Y-92191789D01*
X110308911Y-92191789D01*
X110308911Y-91853122D01*
X105144245Y-91853122D01*
G36*
X105144245Y-91395922D02*
G01*
X105144245Y-91621700D01*
X110308911Y-91621700D01*
X110308911Y-91395922D01*
X105144245Y-91395922D01*
G37*
X105144245Y-91395922D02*
X105144245Y-91621700D01*
X110308911Y-91621700D01*
X110308911Y-91395922D01*
X105144245Y-91395922D01*
G36*
X105144245Y-91057255D02*
G01*
X105144245Y-91170144D01*
X110308911Y-91170144D01*
X110308911Y-91057255D01*
X105144245Y-91057255D01*
G37*
X105144245Y-91057255D02*
X105144245Y-91170144D01*
X110308911Y-91170144D01*
X110308911Y-91057255D01*
X105144245Y-91057255D01*
G36*
X105144245Y-90600055D02*
G01*
X105144245Y-90825833D01*
X110308911Y-90825833D01*
X110308911Y-90600055D01*
X105144245Y-90600055D01*
G37*
X105144245Y-90600055D02*
X105144245Y-90825833D01*
X110308911Y-90825833D01*
X110308911Y-90600055D01*
X105144245Y-90600055D01*
G36*
X105144245Y-90374278D02*
G01*
X105144245Y-90487166D01*
X110308911Y-90487166D01*
X110308911Y-90374278D01*
X105144245Y-90374278D01*
G37*
X105144245Y-90374278D02*
X105144245Y-90487166D01*
X110308911Y-90487166D01*
X110308911Y-90374278D01*
X105144245Y-90374278D01*
G36*
X105144245Y-89804189D02*
G01*
X105144245Y-89917078D01*
X110308911Y-89917078D01*
X110308911Y-89804189D01*
X105144245Y-89804189D01*
G37*
X105144245Y-89804189D02*
X105144245Y-89917078D01*
X110308911Y-89917078D01*
X110308911Y-89804189D01*
X105144245Y-89804189D01*
G36*
X105144245Y-89008322D02*
G01*
X105144245Y-89459878D01*
X110308911Y-89459878D01*
X110308911Y-89008322D01*
X105144245Y-89008322D01*
G37*
X105144245Y-89008322D02*
X105144245Y-89459878D01*
X110308911Y-89459878D01*
X110308911Y-89008322D01*
X105144245Y-89008322D01*
G36*
X105144245Y-88782544D02*
G01*
X105144245Y-88895433D01*
X110308911Y-88895433D01*
X110308911Y-88782544D01*
X105144245Y-88782544D01*
G37*
X105144245Y-88782544D02*
X105144245Y-88895433D01*
X110308911Y-88895433D01*
X110308911Y-88782544D01*
X105144245Y-88782544D01*
G36*
X105144245Y-88556766D02*
G01*
X105144245Y-88664011D01*
X110308911Y-88664011D01*
X110308911Y-88556766D01*
X105144245Y-88556766D01*
G37*
X105144245Y-88556766D02*
X105144245Y-88664011D01*
X110308911Y-88664011D01*
X110308911Y-88556766D01*
X105144245Y-88556766D01*
G36*
X105144245Y-87760900D02*
G01*
X105144245Y-88212455D01*
X110308911Y-88212455D01*
X110308911Y-87760900D01*
X105144245Y-87760900D01*
G37*
X105144245Y-87760900D02*
X105144245Y-88212455D01*
X110308911Y-88212455D01*
X110308911Y-87760900D01*
X105144245Y-87760900D01*
G36*
X105144245Y-87535122D02*
G01*
X105144245Y-87642366D01*
X110308911Y-87642366D01*
X110308911Y-87535122D01*
X105144245Y-87535122D01*
G37*
X105144245Y-87535122D02*
X105144245Y-87642366D01*
X110308911Y-87642366D01*
X110308911Y-87535122D01*
X105144245Y-87535122D01*
G36*
X105144245Y-87303700D02*
G01*
X105144245Y-87416589D01*
X110308911Y-87416589D01*
X110308911Y-87303700D01*
X105144245Y-87303700D01*
G37*
X105144245Y-87303700D02*
X105144245Y-87416589D01*
X110308911Y-87416589D01*
X110308911Y-87303700D01*
X105144245Y-87303700D01*
G36*
X105144245Y-86852144D02*
G01*
X105144245Y-87072278D01*
X110308911Y-87072278D01*
X110308911Y-86852144D01*
X105144245Y-86852144D01*
G37*
X105144245Y-86852144D02*
X105144245Y-87072278D01*
X110308911Y-87072278D01*
X110308911Y-86852144D01*
X105144245Y-86852144D01*
G36*
X105144245Y-86282055D02*
G01*
X105144245Y-86620722D01*
X110308911Y-86620722D01*
X110308911Y-86282055D01*
X105144245Y-86282055D01*
G37*
X105144245Y-86282055D02*
X105144245Y-86620722D01*
X110308911Y-86620722D01*
X110308911Y-86282055D01*
X105144245Y-86282055D01*
G36*
X105144245Y-86056278D02*
G01*
X105144245Y-86163522D01*
X110308911Y-86163522D01*
X110308911Y-86056278D01*
X105144245Y-86056278D01*
G37*
X105144245Y-86056278D02*
X105144245Y-86163522D01*
X110308911Y-86163522D01*
X110308911Y-86056278D01*
X105144245Y-86056278D01*
G36*
X105144245Y-85599078D02*
G01*
X105144245Y-85824855D01*
X110308911Y-85824855D01*
X110308911Y-85599078D01*
X105144245Y-85599078D01*
G37*
X105144245Y-85599078D02*
X105144245Y-85824855D01*
X110308911Y-85824855D01*
X110308911Y-85599078D01*
X105144245Y-85599078D01*
G36*
X105144245Y-85373300D02*
G01*
X105144245Y-85480544D01*
X110308911Y-85480544D01*
X110308911Y-85373300D01*
X105144245Y-85373300D01*
G37*
X105144245Y-85373300D02*
X105144245Y-85480544D01*
X110308911Y-85480544D01*
X110308911Y-85373300D01*
X105144245Y-85373300D01*
G36*
X105144245Y-84690322D02*
G01*
X105144245Y-84916100D01*
X110308911Y-84916100D01*
X110308911Y-84690322D01*
X105144245Y-84690322D01*
G37*
X105144245Y-84690322D02*
X105144245Y-84916100D01*
X110308911Y-84916100D01*
X110308911Y-84690322D01*
X105144245Y-84690322D01*
G36*
X105144245Y-84351655D02*
G01*
X105144245Y-84458900D01*
X110308911Y-84458900D01*
X110308911Y-84351655D01*
X105144245Y-84351655D01*
G37*
X105144245Y-84351655D02*
X105144245Y-84458900D01*
X110308911Y-84458900D01*
X110308911Y-84351655D01*
X105144245Y-84351655D01*
G36*
X105144245Y-84120233D02*
G01*
X105144245Y-84233122D01*
X110308911Y-84233122D01*
X110308911Y-84120233D01*
X105144245Y-84120233D01*
G37*
X105144245Y-84120233D02*
X105144245Y-84233122D01*
X110308911Y-84233122D01*
X110308911Y-84120233D01*
X105144245Y-84120233D01*
G36*
X105144245Y-83555789D02*
G01*
X105144245Y-83663033D01*
X110308911Y-83663033D01*
X110308911Y-83555789D01*
X105144245Y-83555789D01*
G37*
X105144245Y-83555789D02*
X105144245Y-83663033D01*
X110308911Y-83663033D01*
X110308911Y-83555789D01*
X105144245Y-83555789D01*
G36*
X105144245Y-83098589D02*
G01*
X105144245Y-83437255D01*
X110308911Y-83437255D01*
X110308911Y-83098589D01*
X105144245Y-83098589D01*
G37*
X105144245Y-83098589D02*
X105144245Y-83437255D01*
X110308911Y-83437255D01*
X110308911Y-83098589D01*
X105144245Y-83098589D01*
G36*
X105144245Y-82641389D02*
G01*
X105144245Y-82867166D01*
X110308911Y-82867166D01*
X110308911Y-82641389D01*
X105144245Y-82641389D01*
G37*
X105144245Y-82641389D02*
X105144245Y-82867166D01*
X110308911Y-82867166D01*
X110308911Y-82641389D01*
X105144245Y-82641389D01*
G36*
X105144245Y-81964055D02*
G01*
X105144245Y-82415611D01*
X110308911Y-82415611D01*
X110308911Y-81964055D01*
X105144245Y-81964055D01*
G37*
X105144245Y-81964055D02*
X105144245Y-82415611D01*
X110308911Y-82415611D01*
X110308911Y-81964055D01*
X105144245Y-81964055D01*
G36*
X105144245Y-81619744D02*
G01*
X105144245Y-81732633D01*
X110308911Y-81732633D01*
X110308911Y-81619744D01*
X105144245Y-81619744D01*
G37*
X105144245Y-81619744D02*
X105144245Y-81732633D01*
X110308911Y-81732633D01*
X110308911Y-81619744D01*
X105144245Y-81619744D01*
G36*
X105144245Y-81281078D02*
G01*
X105144245Y-81388322D01*
X110308911Y-81388322D01*
X110308911Y-81281078D01*
X105144245Y-81281078D01*
G37*
X105144245Y-81281078D02*
X105144245Y-81388322D01*
X110308911Y-81388322D01*
X110308911Y-81281078D01*
X105144245Y-81281078D01*
G36*
X105144245Y-81049655D02*
G01*
X105144245Y-81162544D01*
X110308911Y-81162544D01*
X110308911Y-81049655D01*
X105144245Y-81049655D01*
G37*
X105144245Y-81049655D02*
X105144245Y-81162544D01*
X110308911Y-81162544D01*
X110308911Y-81049655D01*
X105144245Y-81049655D01*
G36*
X105144245Y-80710989D02*
G01*
X105144245Y-80936766D01*
X110308911Y-80936766D01*
X110308911Y-80710989D01*
X105144245Y-80710989D01*
G37*
X105144245Y-80710989D02*
X105144245Y-80936766D01*
X110308911Y-80936766D01*
X110308911Y-80710989D01*
X105144245Y-80710989D01*
G36*
X105144245Y-80140900D02*
G01*
X105144245Y-80253789D01*
X110308911Y-80253789D01*
X110308911Y-80140900D01*
X105144245Y-80140900D01*
G37*
X105144245Y-80140900D02*
X105144245Y-80253789D01*
X110308911Y-80253789D01*
X110308911Y-80140900D01*
X105144245Y-80140900D01*
G36*
X105144245Y-79457922D02*
G01*
X105144245Y-79909478D01*
X110308911Y-79909478D01*
X110308911Y-79457922D01*
X105144245Y-79457922D01*
G37*
X105144245Y-79457922D02*
X105144245Y-79909478D01*
X110308911Y-79909478D01*
X110308911Y-79457922D01*
X105144245Y-79457922D01*
G36*
X105144245Y-79006366D02*
G01*
X105144245Y-79345033D01*
X110308911Y-79345033D01*
X110308911Y-79006366D01*
X105144245Y-79006366D01*
G37*
X105144245Y-79006366D02*
X105144245Y-79345033D01*
X110308911Y-79345033D01*
X110308911Y-79006366D01*
X105144245Y-79006366D01*
G36*
X105144245Y-78780589D02*
G01*
X105144245Y-78887833D01*
X110308911Y-78887833D01*
X110308911Y-78780589D01*
X105144245Y-78780589D01*
G37*
X105144245Y-78780589D02*
X105144245Y-78887833D01*
X110308911Y-78887833D01*
X110308911Y-78780589D01*
X105144245Y-78780589D01*
G36*
X105144245Y-78549166D02*
G01*
X105144245Y-78662055D01*
X110308911Y-78662055D01*
X110308911Y-78549166D01*
X105144245Y-78549166D01*
G37*
X105144245Y-78549166D02*
X105144245Y-78662055D01*
X110308911Y-78662055D01*
X110308911Y-78549166D01*
X105144245Y-78549166D01*
G36*
X105144245Y-78097611D02*
G01*
X105144245Y-78436278D01*
X110308911Y-78436278D01*
X110308911Y-78097611D01*
X105144245Y-78097611D01*
G37*
X105144245Y-78097611D02*
X105144245Y-78436278D01*
X110308911Y-78436278D01*
X110308911Y-78097611D01*
X105144245Y-78097611D01*
G36*
X105144245Y-77753300D02*
G01*
X105144245Y-77979078D01*
X110308911Y-77979078D01*
X110308911Y-77753300D01*
X105144245Y-77753300D01*
G37*
X105144245Y-77753300D02*
X105144245Y-77979078D01*
X110308911Y-77979078D01*
X110308911Y-77753300D01*
X105144245Y-77753300D01*
G36*
X105144245Y-77188855D02*
G01*
X105144245Y-77408989D01*
X110308911Y-77408989D01*
X110308911Y-77188855D01*
X105144245Y-77188855D01*
G37*
X105144245Y-77188855D02*
X105144245Y-77408989D01*
X110308911Y-77408989D01*
X110308911Y-77188855D01*
X105144245Y-77188855D01*
G36*
X105144245Y-76731655D02*
G01*
X105144245Y-77070322D01*
X110308911Y-77070322D01*
X110308911Y-76731655D01*
X105144245Y-76731655D01*
G37*
X105144245Y-76731655D02*
X105144245Y-77070322D01*
X110308911Y-77070322D01*
X110308911Y-76731655D01*
X105144245Y-76731655D01*
G36*
X105144245Y-76505878D02*
G01*
X105144245Y-76613122D01*
X110308911Y-76613122D01*
X110308911Y-76505878D01*
X105144245Y-76505878D01*
G37*
X105144245Y-76505878D02*
X105144245Y-76613122D01*
X110308911Y-76613122D01*
X110308911Y-76505878D01*
X105144245Y-76505878D01*
G36*
X105144245Y-75935789D02*
G01*
X105144245Y-76161566D01*
X110308911Y-76161566D01*
X110308911Y-75935789D01*
X105144245Y-75935789D01*
G37*
X105144245Y-75935789D02*
X105144245Y-76161566D01*
X110308911Y-76161566D01*
X110308911Y-75935789D01*
X105144245Y-75935789D01*
G36*
X105144245Y-75365700D02*
G01*
X105144245Y-75478589D01*
X110308911Y-75478589D01*
X110308911Y-75365700D01*
X105144245Y-75365700D01*
G37*
X105144245Y-75365700D02*
X105144245Y-75478589D01*
X110308911Y-75478589D01*
X110308911Y-75365700D01*
X105144245Y-75365700D01*
G36*
X105144245Y-75139922D02*
G01*
X105144245Y-75252811D01*
X110308911Y-75252811D01*
X110308911Y-75139922D01*
X105144245Y-75139922D01*
G37*
X105144245Y-75139922D02*
X105144245Y-75252811D01*
X110308911Y-75252811D01*
X110308911Y-75139922D01*
X105144245Y-75139922D01*
G36*
X105144245Y-74801255D02*
G01*
X105144245Y-74908500D01*
X110308911Y-74908500D01*
X110308911Y-74801255D01*
X105144245Y-74801255D01*
G37*
X105144245Y-74801255D02*
X105144245Y-74908500D01*
X110308911Y-74908500D01*
X110308911Y-74801255D01*
X105144245Y-74801255D01*
G36*
X105144245Y-74118278D02*
G01*
X105144245Y-74569833D01*
X110308911Y-74569833D01*
X110308911Y-74118278D01*
X105144245Y-74118278D01*
G37*
X105144245Y-74118278D02*
X105144245Y-74569833D01*
X110308911Y-74569833D01*
X110308911Y-74118278D01*
X105144245Y-74118278D01*
G36*
X105144245Y-73773966D02*
G01*
X105144245Y-73886855D01*
X110308911Y-73886855D01*
X110308911Y-73773966D01*
X105144245Y-73773966D01*
G37*
X105144245Y-73773966D02*
X105144245Y-73886855D01*
X110308911Y-73886855D01*
X110308911Y-73773966D01*
X105144245Y-73773966D01*
G36*
X105144245Y-73435300D02*
G01*
X105144245Y-73661078D01*
X110308911Y-73661078D01*
X110308911Y-73435300D01*
X105144245Y-73435300D01*
G37*
X105144245Y-73435300D02*
X105144245Y-73661078D01*
X110308911Y-73661078D01*
X110308911Y-73435300D01*
X105144245Y-73435300D01*
G36*
X105144245Y-72752322D02*
G01*
X105144245Y-73090989D01*
X110308911Y-73090989D01*
X110308911Y-72752322D01*
X105144245Y-72752322D01*
G37*
X105144245Y-72752322D02*
X105144245Y-73090989D01*
X110308911Y-73090989D01*
X110308911Y-72752322D01*
X105144245Y-72752322D01*
G36*
X105144245Y-72526544D02*
G01*
X105144245Y-72633789D01*
X110308911Y-72633789D01*
X110308911Y-72526544D01*
X105144245Y-72526544D01*
G37*
X105144245Y-72526544D02*
X105144245Y-72633789D01*
X110308911Y-72633789D01*
X110308911Y-72526544D01*
X105144245Y-72526544D01*
G36*
X105144245Y-72182233D02*
G01*
X105144245Y-72408011D01*
X110308911Y-72408011D01*
X110308911Y-72182233D01*
X105144245Y-72182233D01*
G37*
X105144245Y-72182233D02*
X105144245Y-72408011D01*
X110308911Y-72408011D01*
X110308911Y-72182233D01*
X105144245Y-72182233D01*
M02*
