M48
; DRILL file {KiCad 5.1.10-88a1d61d58~90~ubuntu20.04.1} date Fri Aug  6 09:09:21 2021
; FORMAT={-:-/ absolute / metric / decimal}
; #@! TF.CreationDate,2021-08-06T09:09:21+02:00
; #@! TF.GenerationSoftware,Kicad,Pcbnew,5.1.10-88a1d61d58~90~ubuntu20.04.1
FMAT,2
METRIC
T1C0.200
T2C0.406
T3C0.600
T4C1.000
T5C1.016
T6C3.200
T7C0.650
%
G90
G05
T1
X97.35Y-62.371
X97.35Y-63.26
X97.35Y-64.149
X117.102Y-106.214
X117.102Y-107.23
X118.245Y-106.214
X118.245Y-107.23
X119.388Y-106.214
X119.388Y-107.23
T2
X92.401Y-62.454
X92.455Y-98.601
X92.654Y-83.367
X92.905Y-85.101
X93.988Y-91.418
X98.56Y-72.115
X98.577Y-74.352
X98.577Y-76.572
X99.068Y-66.714
X101.608Y-75.226
X102.098Y-62.239
X102.116Y-63.835
X102.18Y-71.51
X103.255Y-85.101
X103.767Y-101.261
X103.767Y-103.356
X103.767Y-105.579
X104.338Y-67.796
X106.244Y-75.416
X107.555Y-96.477
X107.577Y-103.42
X107.577Y-101.261
X108.91Y-88.117
X108.91Y-90.275
X108.91Y-92.498
X108.91Y-93.641
X109.736Y-67.796
X109.99Y-79.925
X110.053Y-74.337
X110.053Y-76.559
X111.006Y-102.213
X111.768Y-85.894
X111.959Y-112.183
X114.728Y-76.813
X114.728Y-77.956
X114.752Y-73.434
X114.816Y-102.213
X114.816Y-100.054
X115.006Y-91.164
X115.768Y-108.627
X115.768Y-112.183
X115.832Y-73.434
X117.139Y-97.209
X117.165Y-77.448
X117.419Y-103.23
X117.737Y-84.434
X117.737Y-90.339
X118.053Y-100.054
X118.499Y-109.893
X118.499Y-94.022
X119.648Y-100.921
X120.658Y-79.671
X120.721Y-108.754
X120.975Y-67.733
X120.986Y-66.526
X121.251Y-104.817
X121.991Y-72.686
X121.991Y-106.722
X123.833Y-110.024
X123.833Y-111.04
X124.023Y-96.816
X124.087Y-66.526
X124.087Y-67.733
X125.103Y-110.024
X125.103Y-111.04
X125.368Y-77.322
X126.751Y-85.259
X126.84Y-82.894
X127.262Y-95.609
X127.262Y-97.769
X128.024Y-112.183
X128.444Y-77.322
X130.183Y-112.183
X132.342Y-91.482
X132.977Y-67.987
X133.167Y-99.278
X133.233Y-102.727
X134.691Y-107.484
X135.072Y-101.452
X135.095Y-72.099
X136.343Y-101.451
X136.914Y-76.051
X139.644Y-85.386
X139.806Y-101.451
X140.026Y-75.734
X141.004Y-83.799
X141.013Y-85.399
X141.041Y-86.974
X141.168Y-93.387
X142.629Y-95.673
X143.518Y-71.035
X143.899Y-87.799
X143.899Y-90.91
X144.752Y-83.901
X144.788Y-95.673
X145.487Y-104.563
X145.487Y-106.468
X145.487Y-107.611
X145.69Y-96.562
X145.739Y-71.037
X145.931Y-83.925
X146.185Y-68.685
X146.49Y-97.324
X147.261Y-83.925
X147.29Y-98.149
X147.391Y-87.037
X148.09Y-91.863
X148.199Y-103.692
X148.598Y-75.797
X148.979Y-99.419
X149.106Y-67.606
X149.55Y-72.495
X149.55Y-74.019
X149.677Y-83.925
X149.678Y-80.052
X150.047Y-101.437
X150.439Y-89.386
X150.439Y-91.736
X150.757Y-75.797
X151.099Y-73.504
X151.138Y-71.987
X151.265Y-105.007
X151.265Y-107.166
X151.421Y-88.437
X152.408Y-87.037
X152.408Y-90.593
X152.535Y-99.292
X153.361Y-81.576
X153.742Y-75.797
X154.186Y-67.606
X154.694Y-99.293
X155.647Y-83.799
X156.79Y-99.292
X157.488Y-68.812
X157.488Y-71.797
X157.552Y-84.624
X157.678Y-103.737
X157.678Y-105.007
X157.996Y-78.528
X158.314Y-65.447
X158.758Y-99.292
X158.821Y-90.339
X158.948Y-74.598
X159.012Y-88.498
X159.139Y-71.797
X159.457Y-103.737
X159.901Y-79.925
X160.726Y-95.102
X162.695Y-95.102
X163.139Y-67.606
X163.266Y-89.006
X163.457Y-74.972
X164.919Y-85.513
X165.933Y-102.912
X165.947Y-89.005
X166.374Y-87.387
X167.14Y-85.128
X167.14Y-94.721
X167.14Y-95.991
X167.457Y-79.671
X167.838Y-71.988
X167.989Y-75.013
X168.283Y-97.26
X168.283Y-84.243
X168.283Y-94.721
X169.869Y-82.973
X169.869Y-93.45
X171.522Y-89.005
X171.522Y-92.244
X171.585Y-79.671
X172.292Y-105.569
X172.292Y-107.875
X172.474Y-70.908
X172.474Y-73.004
X172.474Y-77.512
X172.474Y-83.477
X172.474Y-87.862
X172.474Y-98.403
X173.427Y-93.451
X173.647Y-103.704
X173.647Y-109.74
X175.84Y-102.992
X175.84Y-110.453
X176.665Y-97.26
X176.728Y-73.829
X176.728Y-86.783
X177.871Y-78.591
X178.033Y-103.704
X178.033Y-109.74
X178.379Y-82.973
X178.38Y-84.243
X178.443Y-72.559
X178.443Y-93.45
X178.443Y-95.99
X179.015Y-70.908
X179.388Y-105.569
X179.388Y-107.875
X181.681Y-76.369
T4
X95.575Y-109.516
X98.075Y-109.516
X113.8Y-62.78
X116.34Y-62.78
X118.88Y-62.78
X121.42Y-62.78
X123.96Y-62.78
X126.5Y-62.78
X131.58Y-62.78
X133.612Y-82.592
X133.612Y-85.132
X133.612Y-87.672
X133.612Y-90.212
X133.612Y-92.752
X134.12Y-62.78
X134.12Y-111.074
X136.66Y-62.78
X136.66Y-111.074
X139.2Y-62.78
X139.2Y-111.074
X141.74Y-111.074
X144.28Y-62.78
X146.82Y-62.78
X146.82Y-111.04
X149.36Y-62.78
X149.36Y-111.04
X151.9Y-62.78
X151.9Y-111.04
X154.44Y-111.04
X156.98Y-62.78
X156.98Y-111.04
X159.52Y-62.78
X159.52Y-111.04
X162.06Y-62.78
X162.06Y-111.04
X164.6Y-62.78
X164.6Y-111.04
X167.14Y-62.78
X169.68Y-62.78
X172.22Y-62.78
X174.76Y-62.78
X184.92Y-67.86
X184.92Y-70.4
X184.92Y-72.94
X184.92Y-75.48
X184.92Y-78.02
X184.92Y-80.56
X184.92Y-83.1
X184.92Y-85.64
X184.92Y-88.18
X184.92Y-90.72
X184.92Y-93.26
X184.92Y-95.8
X184.92Y-98.34
X184.92Y-100.88
X187.46Y-67.86
X187.46Y-70.4
X187.46Y-72.94
X187.46Y-75.48
X187.46Y-78.02
X187.46Y-80.56
X187.46Y-83.1
X187.46Y-85.64
X187.46Y-88.18
X187.46Y-90.72
X187.46Y-93.26
X187.46Y-95.8
X187.46Y-98.34
X187.46Y-100.88
T5
X94.305Y-102.277
X94.305Y-104.817
X96.846Y-102.277
X96.846Y-104.817
X99.385Y-102.277
X99.385Y-104.817
X101.925Y-102.277
X101.925Y-104.817
T6
X104.88Y-111.02
X106.15Y-62.77
X181.09Y-62.78
X187.42Y-111.01
T7
X95.445Y-72.59
X95.445Y-78.37
T3
G00X92.365Y-71.16
M15
G01X91.365Y-71.16
M16
G05
G00X92.365Y-79.8
M15
G01X91.365Y-79.8
M16
G05
G00X96.495Y-71.16
M15
G01X95.395Y-71.16
M16
G05
G00X96.495Y-79.8
M15
G01X95.395Y-79.8
M16
G05
T0
M30
