G04 #@! TF.GenerationSoftware,KiCad,Pcbnew,7.0.8-7.0.8~ubuntu23.04.1*
G04 #@! TF.CreationDate,2023-10-23T05:56:26+00:00*
G04 #@! TF.ProjectId,PSLab,50534c61-622e-46b6-9963-61645f706362,v6.0-beta*
G04 #@! TF.SameCoordinates,Original*
G04 #@! TF.FileFunction,Other,ECO1*
%FSLAX46Y46*%
G04 Gerber Fmt 4.6, Leading zero omitted, Abs format (unit mm)*
G04 Created by KiCad (PCBNEW 7.0.8-7.0.8~ubuntu23.04.1) date 2023-10-23 05:56:26*
%MOMM*%
%LPD*%
G01*
G04 APERTURE LIST*
G04 APERTURE END LIST*
G36*
X197525931Y-46710002D02*
G01*
X197546905Y-46726905D01*
X198993095Y-48173095D01*
X199027121Y-48235407D01*
X199030000Y-48262190D01*
X199030000Y-99874000D01*
X199009998Y-99942121D01*
X198956342Y-99988614D01*
X198904000Y-100000000D01*
X108626000Y-100000000D01*
X108557879Y-99979998D01*
X108511386Y-99926342D01*
X108500000Y-99874000D01*
X108500000Y-98000002D01*
X108483964Y-97683900D01*
X108428123Y-97372375D01*
X108428118Y-97372357D01*
X108333367Y-97070378D01*
X108201220Y-96782782D01*
X108201217Y-96782777D01*
X108033796Y-96514184D01*
X107833790Y-96268898D01*
X107604386Y-96050839D01*
X107604381Y-96050835D01*
X107349272Y-95863508D01*
X107349266Y-95863504D01*
X107072540Y-95709911D01*
X106778615Y-95592506D01*
X106472214Y-95513173D01*
X106472211Y-95513172D01*
X106158264Y-95473189D01*
X106158248Y-95473188D01*
X105841752Y-95473188D01*
X105841735Y-95473189D01*
X105527788Y-95513172D01*
X105527785Y-95513173D01*
X105221384Y-95592506D01*
X105221383Y-95592506D01*
X104927459Y-95709911D01*
X104650733Y-95863504D01*
X104650727Y-95863508D01*
X104395618Y-96050835D01*
X104395613Y-96050839D01*
X104166209Y-96268898D01*
X103966203Y-96514184D01*
X103798782Y-96782777D01*
X103798779Y-96782782D01*
X103666632Y-97070378D01*
X103571881Y-97372357D01*
X103571876Y-97372375D01*
X103516035Y-97683900D01*
X103500000Y-98000002D01*
X103500000Y-99874000D01*
X103479998Y-99942121D01*
X103426342Y-99988614D01*
X103374000Y-100000000D01*
X100126000Y-100000000D01*
X100057879Y-99979998D01*
X100011386Y-99926342D01*
X100000000Y-99874000D01*
X100000000Y-46816000D01*
X100020002Y-46747879D01*
X100073658Y-46701386D01*
X100126000Y-46690000D01*
X197457810Y-46690000D01*
X197525931Y-46710002D01*
G37*
M02*
