M48
; DRILL file {KiCad 7.0.8-7.0.8~ubuntu23.04.1} date Mon Oct 23 05:56:26 2023
; FORMAT={-:-/ absolute / metric / decimal}
; #@! TF.CreationDate,2023-10-23T05:56:26+00:00
; #@! TF.GenerationSoftware,Kicad,Pcbnew,7.0.8-7.0.8~ubuntu23.04.1
; #@! TF.FileFunction,MixedPlating,1,4
FMAT,2
METRIC
; #@! TA.AperFunction,Plated,PTH,ViaDrill
T1C0.300
; #@! TA.AperFunction,Plated,PTH,ViaDrill
T2C0.406
; #@! TA.AperFunction,Plated,PTH,ComponentDrill
T3C1.000
; #@! TA.AperFunction,Plated,PTH,ComponentDrill
T4C1.016
; #@! TA.AperFunction,Plated,PTH,ComponentDrill
T5C3.200
; #@! TA.AperFunction,NonPlated,NPTH,ComponentDrill
T6C0.650
; #@! TA.AperFunction,NonPlated,NPTH,ComponentDrill
T7C1.000
%
G90
G05
T1
X100.8Y-55.1
X100.8Y-55.8
X100.8Y-56.5
X100.8Y-57.2
X100.8Y-66.3
X100.8Y-66.9
X100.8Y-67.5
X100.8Y-68.2
X100.8Y-68.8
X101.5Y-68.8
X102.3Y-68.8
X103.0Y-68.8
X103.3Y-84.6
X103.3Y-85.2
X103.3Y-85.8
X103.3Y-86.4
X103.4Y-56.5
X103.4Y-57.1
X103.57Y-67.23
X103.6Y-66.4
X103.6Y-68.0
X103.6Y-68.8
X103.9Y-84.6
X103.9Y-85.2
X103.9Y-85.8
X103.9Y-86.4
X104.97Y-67.23
X105.0Y-55.1
X105.0Y-55.9
X105.0Y-56.6
X105.0Y-57.2
X105.0Y-66.4
X105.0Y-68.1
X105.0Y-68.8
X105.7Y-60.6
X105.8Y-55.1
X105.8Y-63.2
X105.8Y-68.8
X106.5Y-55.1
X106.5Y-68.8
X107.2Y-68.8
X107.3Y-69.5
X107.3Y-70.1
X107.3Y-70.7
X107.3Y-71.3
X107.4Y-84.65
X107.4Y-85.25
X107.4Y-85.85
X107.4Y-86.45
X107.9Y-53.3
X107.9Y-55.3
X107.9Y-56.1
X107.9Y-56.9
X107.9Y-57.6
X107.9Y-66.4
X107.9Y-67.1
X107.9Y-67.9
X107.9Y-68.8
X107.9Y-69.5
X107.9Y-70.1
X107.9Y-70.7
X107.9Y-71.3
X108.0Y-84.65
X108.0Y-85.25
X108.0Y-85.85
X108.0Y-86.45
X108.5Y-53.8
X109.4Y-51.5
X113.1Y-83.75
X113.1Y-84.35
X113.1Y-84.95
X113.1Y-85.55
X113.2Y-90.05
X113.2Y-91.125
X113.3Y-61.9
X113.7Y-83.75
X113.7Y-84.35
X113.7Y-84.95
X113.7Y-85.55
X114.0Y-67.6
X114.0Y-68.2
X114.2Y-74.65
X114.6Y-67.6
X114.6Y-68.2
X114.975Y-56.025
X115.1Y-57.375
X115.2Y-67.6
X115.2Y-68.2
X115.511Y-57.889
X115.8Y-67.6
X115.8Y-68.2
X116.125Y-94.05
X116.175Y-56.65
X116.2Y-60.0
X116.35Y-90.6
X116.65Y-83.75
X116.65Y-84.35
X116.65Y-84.95
X116.65Y-85.55
X116.65Y-91.8
X117.25Y-83.75
X117.25Y-84.35
X117.25Y-84.95
X117.25Y-85.55
X117.5Y-58.7
X117.65Y-77.1
X117.85Y-54.6
X117.95Y-75.95
X117.971Y-74.536
X118.096Y-58.3
X118.4Y-77.95
X118.6Y-65.7
X118.6Y-80.6
X118.9Y-73.8
X118.95Y-90.25
X119.652Y-65.355
X120.4Y-87.3
X124.2Y-78.75
X124.25Y-90.5
X124.6Y-83.6
X124.9Y-86.6
X125.025Y-69.325
X125.025Y-75.55
X126.296Y-79.612
X127.547Y-68.719
X127.9Y-93.6
X128.0Y-92.4
X128.025Y-95.2
X128.4Y-96.8
X128.8Y-95.2
X129.1Y-64.85
X129.325Y-67.225
X130.0Y-95.0
X130.05Y-79.4
X130.3Y-91.3
X130.3Y-92.0
X130.3Y-92.7
X130.65Y-79.4
X130.825Y-65.925
X131.0Y-91.3
X131.0Y-92.7
X131.01Y-92.04
X131.26Y-88.86
X131.3Y-58.4
X131.35Y-54.05
X131.55Y-94.9
X131.6Y-87.1
X131.7Y-91.3
X131.7Y-92.0
X131.7Y-92.7
X132.475Y-84.6
X132.6Y-54.3
X133.475Y-53.225
X133.9Y-88.0
X134.1Y-60.6
X134.3Y-84.3
X134.6Y-65.1
X134.7Y-94.8
X135.3Y-95.0
X135.4Y-65.1
X135.6Y-95.6
X136.1Y-71.2
X136.322Y-82.029
X137.084Y-98.603
X137.1Y-59.3
X137.425Y-77.725
X138.6Y-54.6
X139.2Y-54.6
X139.243Y-98.603
X139.4Y-79.7
X140.9Y-64.2
X141.412Y-60.788
X142.293Y-89.147
X142.35Y-62.45
X142.8Y-60.6
X143.3Y-61.1
X143.7Y-64.7
X144.1Y-93.7
X144.132Y-87.872
X144.515Y-82.839
X145.403Y-87.871
X145.736Y-91.364
X146.455Y-57.2
X148.3Y-59.7
X148.7Y-69.6
X148.7Y-88.5
X149.086Y-62.154
X149.9Y-71.1
X150.068Y-71.849
X150.101Y-73.394
X150.183Y-80.072
X150.4Y-62.4
X150.5Y-58.4
X150.614Y-79.585
X151.1Y-57.825
X151.6Y-81.9
X151.7Y-68.0
X151.8Y-59.8
X151.8Y-86.4
X152.1Y-55.4
X152.9Y-81.4
X152.959Y-74.219
X152.959Y-77.331
X153.594Y-84.094
X153.6Y-77.9
X153.812Y-70.321
X154.265Y-84.597
X154.546Y-90.983
X154.546Y-92.888
X154.546Y-94.031
X154.74Y-83.507
X155.033Y-70.304
X155.315Y-83.811
X156.298Y-84.612
X156.7Y-77.4
X156.7Y-82.1
X156.8Y-64.3
X156.8Y-84.2
X156.819Y-70.075
X157.1Y-78.5
X157.259Y-90.112
X157.86Y-66.32
X158.0Y-87.3
X158.039Y-85.84
X158.5Y-58.25
X158.5Y-61.75
X158.738Y-66.472
X158.975Y-55.425
X159.0Y-62.7
X159.2Y-67.0
X159.4Y-58.8
X159.8Y-57.8
X160.21Y-85.72
X160.325Y-91.427
X160.325Y-93.587
X160.5Y-58.1
X160.5Y-61.4
X161.22Y-73.775
X161.5Y-75.0
X161.51Y-85.62
X162.5Y-67.0
X162.8Y-55.9
X163.0Y-90.3
X163.16Y-85.62
X163.493Y-89.707
X163.5Y-62.789
X163.75Y-67.5
X164.3Y-88.3
X164.4Y-76.9
X164.75Y-71.25
X164.76Y-85.72
X165.212Y-76.658
X165.386Y-70.486
X165.75Y-72.25
X166.0Y-56.25
X166.0Y-66.0
X166.0Y-79.6
X166.05Y-58.55
X166.1Y-85.0
X166.15Y-84.15
X166.2Y-60.4
X166.25Y-68.15
X166.6Y-64.4
X166.674Y-70.995
X166.899Y-71.767
X167.358Y-72.241
X167.6Y-85.5
X167.7Y-73.3
X167.8Y-58.4
X167.9Y-52.9
X168.6Y-90.2
X168.75Y-57.5
X168.9Y-84.6
X169.2Y-79.2
X169.5Y-75.6
X170.0Y-84.4
X170.2Y-70.5
X170.5Y-71.75
X170.8Y-53.1
X170.8Y-75.6
X171.1Y-80.2
X171.5Y-77.5
X172.0Y-84.0
X172.115Y-81.055
X172.2Y-75.6
X172.517Y-61.392
X172.7Y-53.7
X173.1Y-90.0
X173.6Y-64.15
X173.6Y-79.174
X173.7Y-73.1
X174.25Y-66.75
X174.75Y-79.2
X174.8Y-83.0
X175.55Y-92.25
X175.6Y-94.25
X175.7Y-71.15
X176.5Y-72.1
X176.65Y-71.15
X176.898Y-58.408
X176.9Y-60.7
X177.05Y-85.0
X177.4Y-94.25
X177.45Y-91.85
X177.65Y-80.25
X177.702Y-69.427
X177.729Y-82.821
X179.536Y-72.111
X179.6Y-68.9
X179.65Y-78.65
X179.7Y-68.1
X179.8Y-66.7
X179.9Y-64.6
X180.189Y-70.975
X180.2Y-57.2
X180.33Y-56.1
X180.55Y-63.25
X180.9Y-57.4
X181.8Y-84.95
X181.9Y-71.55
X182.2Y-60.65
X182.558Y-58.4
X182.6Y-59.3
X182.9Y-57.7
X184.5Y-56.2
X185.0Y-71.2
X185.0Y-77.2
X185.6Y-80.25
X185.65Y-68.6
X185.788Y-60.249
X185.8Y-77.0
X186.0Y-81.5
X186.7Y-70.6
X187.4Y-83.9
X187.485Y-80.585
X187.5Y-78.9
X187.503Y-58.979
X187.6Y-65.5
X187.8Y-82.4
X187.9Y-77.3
X187.95Y-64.1
X188.075Y-57.328
X190.65Y-70.65
X190.742Y-62.789
X191.8Y-91.95
X191.8Y-94.2
X193.55Y-94.25
X193.6Y-91.95
T2
X109.62Y-58.535
X109.637Y-60.771
X109.637Y-62.991
X109.637Y-65.202
X123.65Y-96.95
X123.65Y-97.95
X123.65Y-98.95
X181.452Y-91.922
X181.452Y-94.228
X182.807Y-90.057
X182.807Y-96.093
X185.0Y-89.344
X185.0Y-96.805
X187.193Y-90.057
X187.193Y-96.093
X188.548Y-91.922
X188.548Y-94.228
T3
X122.86Y-49.2
X125.4Y-49.2
X127.94Y-49.2
X130.48Y-49.2
X133.02Y-49.2
X135.56Y-49.2
X138.1Y-49.2
X140.64Y-49.2
X143.18Y-49.2
X143.18Y-97.494
X144.66Y-69.012
X144.66Y-71.552
X144.66Y-74.092
X144.66Y-76.632
X144.66Y-79.172
X145.72Y-49.2
X145.72Y-97.494
X148.26Y-49.2
X148.26Y-97.494
X150.8Y-49.2
X150.8Y-97.494
X153.34Y-49.2
X153.34Y-97.494
X155.88Y-49.2
X155.88Y-97.494
X158.42Y-49.2
X158.42Y-97.494
X160.96Y-49.2
X160.96Y-97.494
X163.5Y-49.2
X163.5Y-97.494
X166.04Y-49.2
X166.04Y-97.494
X168.58Y-49.2
X168.58Y-97.494
X171.12Y-49.2
X171.12Y-97.494
X173.66Y-49.2
X173.66Y-97.494
X176.2Y-49.2
X178.74Y-49.2
X181.28Y-49.2
X183.82Y-49.2
X193.98Y-54.28
X193.98Y-56.82
X193.98Y-59.36
X193.98Y-61.9
X193.98Y-64.44
X193.98Y-66.98
X193.98Y-69.52
X193.98Y-72.06
X193.98Y-74.6
X193.98Y-77.14
X193.98Y-79.68
X193.98Y-82.22
X193.98Y-84.76
X193.98Y-87.3
X196.52Y-54.28
X196.52Y-56.82
X196.52Y-59.36
X196.52Y-61.9
X196.52Y-64.44
X196.52Y-66.98
X196.52Y-69.52
X196.52Y-72.06
X196.52Y-74.6
X196.52Y-77.14
X196.52Y-79.68
X196.52Y-82.22
X196.52Y-84.76
X196.52Y-87.3
T4
X103.365Y-88.697
X103.365Y-91.237
X105.905Y-88.697
X105.905Y-91.237
X108.445Y-88.697
X108.445Y-91.237
X110.986Y-88.697
X110.986Y-91.237
T5
X113.94Y-97.44
X115.21Y-49.19
X190.15Y-49.2
X196.48Y-97.43
T6
X105.7Y-59.01
X105.7Y-64.79
T7
X105.2Y-72.95
X105.2Y-80.95
T0
M30
