%TF.GenerationSoftware,KiCad,Pcbnew,7.0.6-0*%
%TF.CreationDate,2023-12-03T22:32:11+05:30*%
%TF.ProjectId,PSLab,50534c61-622e-46b6-9963-61645f706362,v6.0-beta*%
%TF.SameCoordinates,Original*%
%TF.FileFunction,Drillmap*%
%TF.FilePolarity,Positive*%
%FSLAX45Y45*%
G04 Gerber Fmt 4.5, Leading zero omitted, Abs format (unit mm)*
G04 Created by KiCad (PCBNEW 7.0.6-0) date 2023-12-03 22:32:11*
%MOMM*%
%LPD*%
G01*
G04 APERTURE LIST*
%ADD10C,0.100000*%
%ADD11C,0.200000*%
%ADD12C,0.065000*%
G04 APERTURE END LIST*
D10*
X19903000Y-10000000D02*
X12560000Y-10000000D01*
X10000000Y-9735000D02*
X10000000Y-4669000D01*
X19903000Y-4821000D02*
X19903000Y-10000000D01*
X10000000Y-9735000D02*
X10000000Y-10000000D01*
X10000000Y-4669000D02*
X19751000Y-4669000D01*
X10850000Y-9800000D02*
X10850000Y-10000000D01*
X10350000Y-9800000D02*
X10350000Y-10000000D01*
X11740000Y-10000000D02*
X10850000Y-10000000D01*
X19751000Y-4669000D02*
X19903000Y-4821000D01*
X10850000Y-9800000D02*
G75*
G03*
X10350000Y-9800000I-250000J3163D01*
G01*
X12560000Y-10000000D02*
X11740000Y-10000000D01*
X10000000Y-10000000D02*
X10350000Y-10000000D01*
D11*
D12*
X10537500Y-5868500D02*
X10602500Y-5933500D01*
X10602500Y-5868500D02*
X10537500Y-5933500D01*
X10537500Y-6446500D02*
X10602500Y-6511500D01*
X10602500Y-6446500D02*
X10537500Y-6511500D01*
D10*
X10570000Y-7295000D02*
G75*
G03*
X10570000Y-7295000I-50000J0D01*
G01*
X10570000Y-8095000D02*
G75*
G03*
X10570000Y-8095000I-50000J0D01*
G01*
D11*
X10255777Y-10316484D02*
X10255777Y-10116484D01*
X10255777Y-10116484D02*
X10303396Y-10116484D01*
X10303396Y-10116484D02*
X10331967Y-10126008D01*
X10331967Y-10126008D02*
X10351015Y-10145055D01*
X10351015Y-10145055D02*
X10360539Y-10164103D01*
X10360539Y-10164103D02*
X10370063Y-10202198D01*
X10370063Y-10202198D02*
X10370063Y-10230770D01*
X10370063Y-10230770D02*
X10360539Y-10268865D01*
X10360539Y-10268865D02*
X10351015Y-10287912D01*
X10351015Y-10287912D02*
X10331967Y-10306960D01*
X10331967Y-10306960D02*
X10303396Y-10316484D01*
X10303396Y-10316484D02*
X10255777Y-10316484D01*
X10455777Y-10316484D02*
X10455777Y-10183150D01*
X10455777Y-10221246D02*
X10465301Y-10202198D01*
X10465301Y-10202198D02*
X10474824Y-10192674D01*
X10474824Y-10192674D02*
X10493872Y-10183150D01*
X10493872Y-10183150D02*
X10512920Y-10183150D01*
X10579586Y-10316484D02*
X10579586Y-10183150D01*
X10579586Y-10116484D02*
X10570063Y-10126008D01*
X10570063Y-10126008D02*
X10579586Y-10135531D01*
X10579586Y-10135531D02*
X10589110Y-10126008D01*
X10589110Y-10126008D02*
X10579586Y-10116484D01*
X10579586Y-10116484D02*
X10579586Y-10135531D01*
X10703396Y-10316484D02*
X10684348Y-10306960D01*
X10684348Y-10306960D02*
X10674824Y-10287912D01*
X10674824Y-10287912D02*
X10674824Y-10116484D01*
X10808158Y-10316484D02*
X10789110Y-10306960D01*
X10789110Y-10306960D02*
X10779586Y-10287912D01*
X10779586Y-10287912D02*
X10779586Y-10116484D01*
X11036729Y-10316484D02*
X11036729Y-10116484D01*
X11036729Y-10116484D02*
X11103396Y-10259341D01*
X11103396Y-10259341D02*
X11170063Y-10116484D01*
X11170063Y-10116484D02*
X11170063Y-10316484D01*
X11351015Y-10316484D02*
X11351015Y-10211722D01*
X11351015Y-10211722D02*
X11341491Y-10192674D01*
X11341491Y-10192674D02*
X11322443Y-10183150D01*
X11322443Y-10183150D02*
X11284348Y-10183150D01*
X11284348Y-10183150D02*
X11265301Y-10192674D01*
X11351015Y-10306960D02*
X11331967Y-10316484D01*
X11331967Y-10316484D02*
X11284348Y-10316484D01*
X11284348Y-10316484D02*
X11265301Y-10306960D01*
X11265301Y-10306960D02*
X11255777Y-10287912D01*
X11255777Y-10287912D02*
X11255777Y-10268865D01*
X11255777Y-10268865D02*
X11265301Y-10249817D01*
X11265301Y-10249817D02*
X11284348Y-10240293D01*
X11284348Y-10240293D02*
X11331967Y-10240293D01*
X11331967Y-10240293D02*
X11351015Y-10230770D01*
X11446253Y-10183150D02*
X11446253Y-10383150D01*
X11446253Y-10192674D02*
X11465301Y-10183150D01*
X11465301Y-10183150D02*
X11503396Y-10183150D01*
X11503396Y-10183150D02*
X11522443Y-10192674D01*
X11522443Y-10192674D02*
X11531967Y-10202198D01*
X11531967Y-10202198D02*
X11541491Y-10221246D01*
X11541491Y-10221246D02*
X11541491Y-10278389D01*
X11541491Y-10278389D02*
X11531967Y-10297436D01*
X11531967Y-10297436D02*
X11522443Y-10306960D01*
X11522443Y-10306960D02*
X11503396Y-10316484D01*
X11503396Y-10316484D02*
X11465301Y-10316484D01*
X11465301Y-10316484D02*
X11446253Y-10306960D01*
X11627205Y-10297436D02*
X11636729Y-10306960D01*
X11636729Y-10306960D02*
X11627205Y-10316484D01*
X11627205Y-10316484D02*
X11617682Y-10306960D01*
X11617682Y-10306960D02*
X11627205Y-10297436D01*
X11627205Y-10297436D02*
X11627205Y-10316484D01*
X11627205Y-10192674D02*
X11636729Y-10202198D01*
X11636729Y-10202198D02*
X11627205Y-10211722D01*
X11627205Y-10211722D02*
X11617682Y-10202198D01*
X11617682Y-10202198D02*
X11627205Y-10192674D01*
X11627205Y-10192674D02*
X11627205Y-10211722D01*
D12*
X9930000Y-10612500D02*
X9995000Y-10677500D01*
X9995000Y-10612500D02*
X9930000Y-10677500D01*
D11*
X10293872Y-10536484D02*
X10312920Y-10536484D01*
X10312920Y-10536484D02*
X10331967Y-10546008D01*
X10331967Y-10546008D02*
X10341491Y-10555531D01*
X10341491Y-10555531D02*
X10351015Y-10574579D01*
X10351015Y-10574579D02*
X10360539Y-10612674D01*
X10360539Y-10612674D02*
X10360539Y-10660293D01*
X10360539Y-10660293D02*
X10351015Y-10698389D01*
X10351015Y-10698389D02*
X10341491Y-10717436D01*
X10341491Y-10717436D02*
X10331967Y-10726960D01*
X10331967Y-10726960D02*
X10312920Y-10736484D01*
X10312920Y-10736484D02*
X10293872Y-10736484D01*
X10293872Y-10736484D02*
X10274824Y-10726960D01*
X10274824Y-10726960D02*
X10265301Y-10717436D01*
X10265301Y-10717436D02*
X10255777Y-10698389D01*
X10255777Y-10698389D02*
X10246253Y-10660293D01*
X10246253Y-10660293D02*
X10246253Y-10612674D01*
X10246253Y-10612674D02*
X10255777Y-10574579D01*
X10255777Y-10574579D02*
X10265301Y-10555531D01*
X10265301Y-10555531D02*
X10274824Y-10546008D01*
X10274824Y-10546008D02*
X10293872Y-10536484D01*
X10446253Y-10717436D02*
X10455777Y-10726960D01*
X10455777Y-10726960D02*
X10446253Y-10736484D01*
X10446253Y-10736484D02*
X10436729Y-10726960D01*
X10436729Y-10726960D02*
X10446253Y-10717436D01*
X10446253Y-10717436D02*
X10446253Y-10736484D01*
X10627205Y-10536484D02*
X10589110Y-10536484D01*
X10589110Y-10536484D02*
X10570063Y-10546008D01*
X10570063Y-10546008D02*
X10560539Y-10555531D01*
X10560539Y-10555531D02*
X10541491Y-10584103D01*
X10541491Y-10584103D02*
X10531967Y-10622198D01*
X10531967Y-10622198D02*
X10531967Y-10698389D01*
X10531967Y-10698389D02*
X10541491Y-10717436D01*
X10541491Y-10717436D02*
X10551015Y-10726960D01*
X10551015Y-10726960D02*
X10570063Y-10736484D01*
X10570063Y-10736484D02*
X10608158Y-10736484D01*
X10608158Y-10736484D02*
X10627205Y-10726960D01*
X10627205Y-10726960D02*
X10636729Y-10717436D01*
X10636729Y-10717436D02*
X10646253Y-10698389D01*
X10646253Y-10698389D02*
X10646253Y-10650770D01*
X10646253Y-10650770D02*
X10636729Y-10631722D01*
X10636729Y-10631722D02*
X10627205Y-10622198D01*
X10627205Y-10622198D02*
X10608158Y-10612674D01*
X10608158Y-10612674D02*
X10570063Y-10612674D01*
X10570063Y-10612674D02*
X10551015Y-10622198D01*
X10551015Y-10622198D02*
X10541491Y-10631722D01*
X10541491Y-10631722D02*
X10531967Y-10650770D01*
X10827205Y-10536484D02*
X10731967Y-10536484D01*
X10731967Y-10536484D02*
X10722444Y-10631722D01*
X10722444Y-10631722D02*
X10731967Y-10622198D01*
X10731967Y-10622198D02*
X10751015Y-10612674D01*
X10751015Y-10612674D02*
X10798634Y-10612674D01*
X10798634Y-10612674D02*
X10817682Y-10622198D01*
X10817682Y-10622198D02*
X10827205Y-10631722D01*
X10827205Y-10631722D02*
X10836729Y-10650770D01*
X10836729Y-10650770D02*
X10836729Y-10698389D01*
X10836729Y-10698389D02*
X10827205Y-10717436D01*
X10827205Y-10717436D02*
X10817682Y-10726960D01*
X10817682Y-10726960D02*
X10798634Y-10736484D01*
X10798634Y-10736484D02*
X10751015Y-10736484D01*
X10751015Y-10736484D02*
X10731967Y-10726960D01*
X10731967Y-10726960D02*
X10722444Y-10717436D01*
X10960539Y-10536484D02*
X10979586Y-10536484D01*
X10979586Y-10536484D02*
X10998634Y-10546008D01*
X10998634Y-10546008D02*
X11008158Y-10555531D01*
X11008158Y-10555531D02*
X11017682Y-10574579D01*
X11017682Y-10574579D02*
X11027205Y-10612674D01*
X11027205Y-10612674D02*
X11027205Y-10660293D01*
X11027205Y-10660293D02*
X11017682Y-10698389D01*
X11017682Y-10698389D02*
X11008158Y-10717436D01*
X11008158Y-10717436D02*
X10998634Y-10726960D01*
X10998634Y-10726960D02*
X10979586Y-10736484D01*
X10979586Y-10736484D02*
X10960539Y-10736484D01*
X10960539Y-10736484D02*
X10941491Y-10726960D01*
X10941491Y-10726960D02*
X10931967Y-10717436D01*
X10931967Y-10717436D02*
X10922444Y-10698389D01*
X10922444Y-10698389D02*
X10912920Y-10660293D01*
X10912920Y-10660293D02*
X10912920Y-10612674D01*
X10912920Y-10612674D02*
X10922444Y-10574579D01*
X10922444Y-10574579D02*
X10931967Y-10555531D01*
X10931967Y-10555531D02*
X10941491Y-10546008D01*
X10941491Y-10546008D02*
X10960539Y-10536484D01*
X11112920Y-10736484D02*
X11112920Y-10603150D01*
X11112920Y-10622198D02*
X11122444Y-10612674D01*
X11122444Y-10612674D02*
X11141491Y-10603150D01*
X11141491Y-10603150D02*
X11170063Y-10603150D01*
X11170063Y-10603150D02*
X11189110Y-10612674D01*
X11189110Y-10612674D02*
X11198634Y-10631722D01*
X11198634Y-10631722D02*
X11198634Y-10736484D01*
X11198634Y-10631722D02*
X11208158Y-10612674D01*
X11208158Y-10612674D02*
X11227205Y-10603150D01*
X11227205Y-10603150D02*
X11255777Y-10603150D01*
X11255777Y-10603150D02*
X11274824Y-10612674D01*
X11274824Y-10612674D02*
X11284348Y-10631722D01*
X11284348Y-10631722D02*
X11284348Y-10736484D01*
X11379586Y-10736484D02*
X11379586Y-10603150D01*
X11379586Y-10622198D02*
X11389110Y-10612674D01*
X11389110Y-10612674D02*
X11408158Y-10603150D01*
X11408158Y-10603150D02*
X11436729Y-10603150D01*
X11436729Y-10603150D02*
X11455777Y-10612674D01*
X11455777Y-10612674D02*
X11465301Y-10631722D01*
X11465301Y-10631722D02*
X11465301Y-10736484D01*
X11465301Y-10631722D02*
X11474824Y-10612674D01*
X11474824Y-10612674D02*
X11493872Y-10603150D01*
X11493872Y-10603150D02*
X11522443Y-10603150D01*
X11522443Y-10603150D02*
X11541491Y-10612674D01*
X11541491Y-10612674D02*
X11551015Y-10631722D01*
X11551015Y-10631722D02*
X11551015Y-10736484D01*
X11941491Y-10526960D02*
X11770063Y-10784103D01*
X12198634Y-10536484D02*
X12217682Y-10536484D01*
X12217682Y-10536484D02*
X12236729Y-10546008D01*
X12236729Y-10546008D02*
X12246253Y-10555531D01*
X12246253Y-10555531D02*
X12255777Y-10574579D01*
X12255777Y-10574579D02*
X12265301Y-10612674D01*
X12265301Y-10612674D02*
X12265301Y-10660293D01*
X12265301Y-10660293D02*
X12255777Y-10698389D01*
X12255777Y-10698389D02*
X12246253Y-10717436D01*
X12246253Y-10717436D02*
X12236729Y-10726960D01*
X12236729Y-10726960D02*
X12217682Y-10736484D01*
X12217682Y-10736484D02*
X12198634Y-10736484D01*
X12198634Y-10736484D02*
X12179586Y-10726960D01*
X12179586Y-10726960D02*
X12170063Y-10717436D01*
X12170063Y-10717436D02*
X12160539Y-10698389D01*
X12160539Y-10698389D02*
X12151015Y-10660293D01*
X12151015Y-10660293D02*
X12151015Y-10612674D01*
X12151015Y-10612674D02*
X12160539Y-10574579D01*
X12160539Y-10574579D02*
X12170063Y-10555531D01*
X12170063Y-10555531D02*
X12179586Y-10546008D01*
X12179586Y-10546008D02*
X12198634Y-10536484D01*
X12351015Y-10717436D02*
X12360539Y-10726960D01*
X12360539Y-10726960D02*
X12351015Y-10736484D01*
X12351015Y-10736484D02*
X12341491Y-10726960D01*
X12341491Y-10726960D02*
X12351015Y-10717436D01*
X12351015Y-10717436D02*
X12351015Y-10736484D01*
X12484348Y-10536484D02*
X12503396Y-10536484D01*
X12503396Y-10536484D02*
X12522444Y-10546008D01*
X12522444Y-10546008D02*
X12531967Y-10555531D01*
X12531967Y-10555531D02*
X12541491Y-10574579D01*
X12541491Y-10574579D02*
X12551015Y-10612674D01*
X12551015Y-10612674D02*
X12551015Y-10660293D01*
X12551015Y-10660293D02*
X12541491Y-10698389D01*
X12541491Y-10698389D02*
X12531967Y-10717436D01*
X12531967Y-10717436D02*
X12522444Y-10726960D01*
X12522444Y-10726960D02*
X12503396Y-10736484D01*
X12503396Y-10736484D02*
X12484348Y-10736484D01*
X12484348Y-10736484D02*
X12465301Y-10726960D01*
X12465301Y-10726960D02*
X12455777Y-10717436D01*
X12455777Y-10717436D02*
X12446253Y-10698389D01*
X12446253Y-10698389D02*
X12436729Y-10660293D01*
X12436729Y-10660293D02*
X12436729Y-10612674D01*
X12436729Y-10612674D02*
X12446253Y-10574579D01*
X12446253Y-10574579D02*
X12455777Y-10555531D01*
X12455777Y-10555531D02*
X12465301Y-10546008D01*
X12465301Y-10546008D02*
X12484348Y-10536484D01*
X12627206Y-10555531D02*
X12636729Y-10546008D01*
X12636729Y-10546008D02*
X12655777Y-10536484D01*
X12655777Y-10536484D02*
X12703396Y-10536484D01*
X12703396Y-10536484D02*
X12722444Y-10546008D01*
X12722444Y-10546008D02*
X12731967Y-10555531D01*
X12731967Y-10555531D02*
X12741491Y-10574579D01*
X12741491Y-10574579D02*
X12741491Y-10593627D01*
X12741491Y-10593627D02*
X12731967Y-10622198D01*
X12731967Y-10622198D02*
X12617682Y-10736484D01*
X12617682Y-10736484D02*
X12741491Y-10736484D01*
X12922444Y-10536484D02*
X12827206Y-10536484D01*
X12827206Y-10536484D02*
X12817682Y-10631722D01*
X12817682Y-10631722D02*
X12827206Y-10622198D01*
X12827206Y-10622198D02*
X12846253Y-10612674D01*
X12846253Y-10612674D02*
X12893872Y-10612674D01*
X12893872Y-10612674D02*
X12912920Y-10622198D01*
X12912920Y-10622198D02*
X12922444Y-10631722D01*
X12922444Y-10631722D02*
X12931967Y-10650770D01*
X12931967Y-10650770D02*
X12931967Y-10698389D01*
X12931967Y-10698389D02*
X12922444Y-10717436D01*
X12922444Y-10717436D02*
X12912920Y-10726960D01*
X12912920Y-10726960D02*
X12893872Y-10736484D01*
X12893872Y-10736484D02*
X12846253Y-10736484D01*
X12846253Y-10736484D02*
X12827206Y-10726960D01*
X12827206Y-10726960D02*
X12817682Y-10717436D01*
X13103396Y-10536484D02*
X13065301Y-10536484D01*
X13065301Y-10536484D02*
X13046253Y-10546008D01*
X13046253Y-10546008D02*
X13036729Y-10555531D01*
X13036729Y-10555531D02*
X13017682Y-10584103D01*
X13017682Y-10584103D02*
X13008158Y-10622198D01*
X13008158Y-10622198D02*
X13008158Y-10698389D01*
X13008158Y-10698389D02*
X13017682Y-10717436D01*
X13017682Y-10717436D02*
X13027206Y-10726960D01*
X13027206Y-10726960D02*
X13046253Y-10736484D01*
X13046253Y-10736484D02*
X13084348Y-10736484D01*
X13084348Y-10736484D02*
X13103396Y-10726960D01*
X13103396Y-10726960D02*
X13112920Y-10717436D01*
X13112920Y-10717436D02*
X13122444Y-10698389D01*
X13122444Y-10698389D02*
X13122444Y-10650770D01*
X13122444Y-10650770D02*
X13112920Y-10631722D01*
X13112920Y-10631722D02*
X13103396Y-10622198D01*
X13103396Y-10622198D02*
X13084348Y-10612674D01*
X13084348Y-10612674D02*
X13046253Y-10612674D01*
X13046253Y-10612674D02*
X13027206Y-10622198D01*
X13027206Y-10622198D02*
X13017682Y-10631722D01*
X13017682Y-10631722D02*
X13008158Y-10650770D01*
X13198634Y-10536484D02*
X13198634Y-10574579D01*
X13274825Y-10536484D02*
X13274825Y-10574579D01*
X13570063Y-10812674D02*
X13560539Y-10803150D01*
X13560539Y-10803150D02*
X13541491Y-10774579D01*
X13541491Y-10774579D02*
X13531968Y-10755531D01*
X13531968Y-10755531D02*
X13522444Y-10726960D01*
X13522444Y-10726960D02*
X13512920Y-10679341D01*
X13512920Y-10679341D02*
X13512920Y-10641246D01*
X13512920Y-10641246D02*
X13522444Y-10593627D01*
X13522444Y-10593627D02*
X13531968Y-10565055D01*
X13531968Y-10565055D02*
X13541491Y-10546008D01*
X13541491Y-10546008D02*
X13560539Y-10517436D01*
X13560539Y-10517436D02*
X13570063Y-10507912D01*
X13636729Y-10555531D02*
X13646253Y-10546008D01*
X13646253Y-10546008D02*
X13665301Y-10536484D01*
X13665301Y-10536484D02*
X13712920Y-10536484D01*
X13712920Y-10536484D02*
X13731968Y-10546008D01*
X13731968Y-10546008D02*
X13741491Y-10555531D01*
X13741491Y-10555531D02*
X13751015Y-10574579D01*
X13751015Y-10574579D02*
X13751015Y-10593627D01*
X13751015Y-10593627D02*
X13741491Y-10622198D01*
X13741491Y-10622198D02*
X13627206Y-10736484D01*
X13627206Y-10736484D02*
X13751015Y-10736484D01*
X13989110Y-10736484D02*
X13989110Y-10536484D01*
X14074825Y-10736484D02*
X14074825Y-10631722D01*
X14074825Y-10631722D02*
X14065301Y-10612674D01*
X14065301Y-10612674D02*
X14046253Y-10603150D01*
X14046253Y-10603150D02*
X14017682Y-10603150D01*
X14017682Y-10603150D02*
X13998634Y-10612674D01*
X13998634Y-10612674D02*
X13989110Y-10622198D01*
X14198634Y-10736484D02*
X14179587Y-10726960D01*
X14179587Y-10726960D02*
X14170063Y-10717436D01*
X14170063Y-10717436D02*
X14160539Y-10698389D01*
X14160539Y-10698389D02*
X14160539Y-10641246D01*
X14160539Y-10641246D02*
X14170063Y-10622198D01*
X14170063Y-10622198D02*
X14179587Y-10612674D01*
X14179587Y-10612674D02*
X14198634Y-10603150D01*
X14198634Y-10603150D02*
X14227206Y-10603150D01*
X14227206Y-10603150D02*
X14246253Y-10612674D01*
X14246253Y-10612674D02*
X14255777Y-10622198D01*
X14255777Y-10622198D02*
X14265301Y-10641246D01*
X14265301Y-10641246D02*
X14265301Y-10698389D01*
X14265301Y-10698389D02*
X14255777Y-10717436D01*
X14255777Y-10717436D02*
X14246253Y-10726960D01*
X14246253Y-10726960D02*
X14227206Y-10736484D01*
X14227206Y-10736484D02*
X14198634Y-10736484D01*
X14379587Y-10736484D02*
X14360539Y-10726960D01*
X14360539Y-10726960D02*
X14351015Y-10707912D01*
X14351015Y-10707912D02*
X14351015Y-10536484D01*
X14531968Y-10726960D02*
X14512920Y-10736484D01*
X14512920Y-10736484D02*
X14474825Y-10736484D01*
X14474825Y-10736484D02*
X14455777Y-10726960D01*
X14455777Y-10726960D02*
X14446253Y-10707912D01*
X14446253Y-10707912D02*
X14446253Y-10631722D01*
X14446253Y-10631722D02*
X14455777Y-10612674D01*
X14455777Y-10612674D02*
X14474825Y-10603150D01*
X14474825Y-10603150D02*
X14512920Y-10603150D01*
X14512920Y-10603150D02*
X14531968Y-10612674D01*
X14531968Y-10612674D02*
X14541491Y-10631722D01*
X14541491Y-10631722D02*
X14541491Y-10650770D01*
X14541491Y-10650770D02*
X14446253Y-10669817D01*
X14617682Y-10726960D02*
X14636730Y-10736484D01*
X14636730Y-10736484D02*
X14674825Y-10736484D01*
X14674825Y-10736484D02*
X14693872Y-10726960D01*
X14693872Y-10726960D02*
X14703396Y-10707912D01*
X14703396Y-10707912D02*
X14703396Y-10698389D01*
X14703396Y-10698389D02*
X14693872Y-10679341D01*
X14693872Y-10679341D02*
X14674825Y-10669817D01*
X14674825Y-10669817D02*
X14646253Y-10669817D01*
X14646253Y-10669817D02*
X14627206Y-10660293D01*
X14627206Y-10660293D02*
X14617682Y-10641246D01*
X14617682Y-10641246D02*
X14617682Y-10631722D01*
X14617682Y-10631722D02*
X14627206Y-10612674D01*
X14627206Y-10612674D02*
X14646253Y-10603150D01*
X14646253Y-10603150D02*
X14674825Y-10603150D01*
X14674825Y-10603150D02*
X14693872Y-10612674D01*
X14770063Y-10812674D02*
X14779587Y-10803150D01*
X14779587Y-10803150D02*
X14798634Y-10774579D01*
X14798634Y-10774579D02*
X14808158Y-10755531D01*
X14808158Y-10755531D02*
X14817682Y-10726960D01*
X14817682Y-10726960D02*
X14827206Y-10679341D01*
X14827206Y-10679341D02*
X14827206Y-10641246D01*
X14827206Y-10641246D02*
X14817682Y-10593627D01*
X14817682Y-10593627D02*
X14808158Y-10565055D01*
X14808158Y-10565055D02*
X14798634Y-10546008D01*
X14798634Y-10546008D02*
X14779587Y-10517436D01*
X14779587Y-10517436D02*
X14770063Y-10507912D01*
X15131968Y-10812674D02*
X15122444Y-10803150D01*
X15122444Y-10803150D02*
X15103396Y-10774579D01*
X15103396Y-10774579D02*
X15093872Y-10755531D01*
X15093872Y-10755531D02*
X15084349Y-10726960D01*
X15084349Y-10726960D02*
X15074825Y-10679341D01*
X15074825Y-10679341D02*
X15074825Y-10641246D01*
X15074825Y-10641246D02*
X15084349Y-10593627D01*
X15084349Y-10593627D02*
X15093872Y-10565055D01*
X15093872Y-10565055D02*
X15103396Y-10546008D01*
X15103396Y-10546008D02*
X15122444Y-10517436D01*
X15122444Y-10517436D02*
X15131968Y-10507912D01*
X15208158Y-10603150D02*
X15208158Y-10736484D01*
X15208158Y-10622198D02*
X15217682Y-10612674D01*
X15217682Y-10612674D02*
X15236730Y-10603150D01*
X15236730Y-10603150D02*
X15265301Y-10603150D01*
X15265301Y-10603150D02*
X15284349Y-10612674D01*
X15284349Y-10612674D02*
X15293872Y-10631722D01*
X15293872Y-10631722D02*
X15293872Y-10736484D01*
X15417682Y-10736484D02*
X15398634Y-10726960D01*
X15398634Y-10726960D02*
X15389111Y-10717436D01*
X15389111Y-10717436D02*
X15379587Y-10698389D01*
X15379587Y-10698389D02*
X15379587Y-10641246D01*
X15379587Y-10641246D02*
X15389111Y-10622198D01*
X15389111Y-10622198D02*
X15398634Y-10612674D01*
X15398634Y-10612674D02*
X15417682Y-10603150D01*
X15417682Y-10603150D02*
X15446253Y-10603150D01*
X15446253Y-10603150D02*
X15465301Y-10612674D01*
X15465301Y-10612674D02*
X15474825Y-10622198D01*
X15474825Y-10622198D02*
X15484349Y-10641246D01*
X15484349Y-10641246D02*
X15484349Y-10698389D01*
X15484349Y-10698389D02*
X15474825Y-10717436D01*
X15474825Y-10717436D02*
X15465301Y-10726960D01*
X15465301Y-10726960D02*
X15446253Y-10736484D01*
X15446253Y-10736484D02*
X15417682Y-10736484D01*
X15541492Y-10603150D02*
X15617682Y-10603150D01*
X15570063Y-10536484D02*
X15570063Y-10707912D01*
X15570063Y-10707912D02*
X15579587Y-10726960D01*
X15579587Y-10726960D02*
X15598634Y-10736484D01*
X15598634Y-10736484D02*
X15617682Y-10736484D01*
X15836730Y-10603150D02*
X15836730Y-10803150D01*
X15836730Y-10612674D02*
X15855777Y-10603150D01*
X15855777Y-10603150D02*
X15893873Y-10603150D01*
X15893873Y-10603150D02*
X15912920Y-10612674D01*
X15912920Y-10612674D02*
X15922444Y-10622198D01*
X15922444Y-10622198D02*
X15931968Y-10641246D01*
X15931968Y-10641246D02*
X15931968Y-10698389D01*
X15931968Y-10698389D02*
X15922444Y-10717436D01*
X15922444Y-10717436D02*
X15912920Y-10726960D01*
X15912920Y-10726960D02*
X15893873Y-10736484D01*
X15893873Y-10736484D02*
X15855777Y-10736484D01*
X15855777Y-10736484D02*
X15836730Y-10726960D01*
X16046253Y-10736484D02*
X16027206Y-10726960D01*
X16027206Y-10726960D02*
X16017682Y-10707912D01*
X16017682Y-10707912D02*
X16017682Y-10536484D01*
X16208158Y-10736484D02*
X16208158Y-10631722D01*
X16208158Y-10631722D02*
X16198634Y-10612674D01*
X16198634Y-10612674D02*
X16179587Y-10603150D01*
X16179587Y-10603150D02*
X16141492Y-10603150D01*
X16141492Y-10603150D02*
X16122444Y-10612674D01*
X16208158Y-10726960D02*
X16189111Y-10736484D01*
X16189111Y-10736484D02*
X16141492Y-10736484D01*
X16141492Y-10736484D02*
X16122444Y-10726960D01*
X16122444Y-10726960D02*
X16112920Y-10707912D01*
X16112920Y-10707912D02*
X16112920Y-10688865D01*
X16112920Y-10688865D02*
X16122444Y-10669817D01*
X16122444Y-10669817D02*
X16141492Y-10660293D01*
X16141492Y-10660293D02*
X16189111Y-10660293D01*
X16189111Y-10660293D02*
X16208158Y-10650770D01*
X16274825Y-10603150D02*
X16351015Y-10603150D01*
X16303396Y-10536484D02*
X16303396Y-10707912D01*
X16303396Y-10707912D02*
X16312920Y-10726960D01*
X16312920Y-10726960D02*
X16331968Y-10736484D01*
X16331968Y-10736484D02*
X16351015Y-10736484D01*
X16493873Y-10726960D02*
X16474825Y-10736484D01*
X16474825Y-10736484D02*
X16436730Y-10736484D01*
X16436730Y-10736484D02*
X16417682Y-10726960D01*
X16417682Y-10726960D02*
X16408158Y-10707912D01*
X16408158Y-10707912D02*
X16408158Y-10631722D01*
X16408158Y-10631722D02*
X16417682Y-10612674D01*
X16417682Y-10612674D02*
X16436730Y-10603150D01*
X16436730Y-10603150D02*
X16474825Y-10603150D01*
X16474825Y-10603150D02*
X16493873Y-10612674D01*
X16493873Y-10612674D02*
X16503396Y-10631722D01*
X16503396Y-10631722D02*
X16503396Y-10650770D01*
X16503396Y-10650770D02*
X16408158Y-10669817D01*
X16674825Y-10736484D02*
X16674825Y-10536484D01*
X16674825Y-10726960D02*
X16655777Y-10736484D01*
X16655777Y-10736484D02*
X16617682Y-10736484D01*
X16617682Y-10736484D02*
X16598634Y-10726960D01*
X16598634Y-10726960D02*
X16589111Y-10717436D01*
X16589111Y-10717436D02*
X16579587Y-10698389D01*
X16579587Y-10698389D02*
X16579587Y-10641246D01*
X16579587Y-10641246D02*
X16589111Y-10622198D01*
X16589111Y-10622198D02*
X16598634Y-10612674D01*
X16598634Y-10612674D02*
X16617682Y-10603150D01*
X16617682Y-10603150D02*
X16655777Y-10603150D01*
X16655777Y-10603150D02*
X16674825Y-10612674D01*
X16751015Y-10812674D02*
X16760539Y-10803150D01*
X16760539Y-10803150D02*
X16779587Y-10774579D01*
X16779587Y-10774579D02*
X16789111Y-10755531D01*
X16789111Y-10755531D02*
X16798635Y-10726960D01*
X16798635Y-10726960D02*
X16808158Y-10679341D01*
X16808158Y-10679341D02*
X16808158Y-10641246D01*
X16808158Y-10641246D02*
X16798635Y-10593627D01*
X16798635Y-10593627D02*
X16789111Y-10565055D01*
X16789111Y-10565055D02*
X16779587Y-10546008D01*
X16779587Y-10546008D02*
X16760539Y-10517436D01*
X16760539Y-10517436D02*
X16751015Y-10507912D01*
D10*
X9995000Y-10909000D02*
G75*
G03*
X9995000Y-10909000I-50000J0D01*
G01*
D11*
X10360539Y-11000484D02*
X10246253Y-11000484D01*
X10303396Y-11000484D02*
X10303396Y-10800484D01*
X10303396Y-10800484D02*
X10284348Y-10829055D01*
X10284348Y-10829055D02*
X10265301Y-10848103D01*
X10265301Y-10848103D02*
X10246253Y-10857627D01*
X10446253Y-10981436D02*
X10455777Y-10990960D01*
X10455777Y-10990960D02*
X10446253Y-11000484D01*
X10446253Y-11000484D02*
X10436729Y-10990960D01*
X10436729Y-10990960D02*
X10446253Y-10981436D01*
X10446253Y-10981436D02*
X10446253Y-11000484D01*
X10579586Y-10800484D02*
X10598634Y-10800484D01*
X10598634Y-10800484D02*
X10617682Y-10810008D01*
X10617682Y-10810008D02*
X10627205Y-10819531D01*
X10627205Y-10819531D02*
X10636729Y-10838579D01*
X10636729Y-10838579D02*
X10646253Y-10876674D01*
X10646253Y-10876674D02*
X10646253Y-10924293D01*
X10646253Y-10924293D02*
X10636729Y-10962389D01*
X10636729Y-10962389D02*
X10627205Y-10981436D01*
X10627205Y-10981436D02*
X10617682Y-10990960D01*
X10617682Y-10990960D02*
X10598634Y-11000484D01*
X10598634Y-11000484D02*
X10579586Y-11000484D01*
X10579586Y-11000484D02*
X10560539Y-10990960D01*
X10560539Y-10990960D02*
X10551015Y-10981436D01*
X10551015Y-10981436D02*
X10541491Y-10962389D01*
X10541491Y-10962389D02*
X10531967Y-10924293D01*
X10531967Y-10924293D02*
X10531967Y-10876674D01*
X10531967Y-10876674D02*
X10541491Y-10838579D01*
X10541491Y-10838579D02*
X10551015Y-10819531D01*
X10551015Y-10819531D02*
X10560539Y-10810008D01*
X10560539Y-10810008D02*
X10579586Y-10800484D01*
X10770063Y-10800484D02*
X10789110Y-10800484D01*
X10789110Y-10800484D02*
X10808158Y-10810008D01*
X10808158Y-10810008D02*
X10817682Y-10819531D01*
X10817682Y-10819531D02*
X10827205Y-10838579D01*
X10827205Y-10838579D02*
X10836729Y-10876674D01*
X10836729Y-10876674D02*
X10836729Y-10924293D01*
X10836729Y-10924293D02*
X10827205Y-10962389D01*
X10827205Y-10962389D02*
X10817682Y-10981436D01*
X10817682Y-10981436D02*
X10808158Y-10990960D01*
X10808158Y-10990960D02*
X10789110Y-11000484D01*
X10789110Y-11000484D02*
X10770063Y-11000484D01*
X10770063Y-11000484D02*
X10751015Y-10990960D01*
X10751015Y-10990960D02*
X10741491Y-10981436D01*
X10741491Y-10981436D02*
X10731967Y-10962389D01*
X10731967Y-10962389D02*
X10722444Y-10924293D01*
X10722444Y-10924293D02*
X10722444Y-10876674D01*
X10722444Y-10876674D02*
X10731967Y-10838579D01*
X10731967Y-10838579D02*
X10741491Y-10819531D01*
X10741491Y-10819531D02*
X10751015Y-10810008D01*
X10751015Y-10810008D02*
X10770063Y-10800484D01*
X10960539Y-10800484D02*
X10979586Y-10800484D01*
X10979586Y-10800484D02*
X10998634Y-10810008D01*
X10998634Y-10810008D02*
X11008158Y-10819531D01*
X11008158Y-10819531D02*
X11017682Y-10838579D01*
X11017682Y-10838579D02*
X11027205Y-10876674D01*
X11027205Y-10876674D02*
X11027205Y-10924293D01*
X11027205Y-10924293D02*
X11017682Y-10962389D01*
X11017682Y-10962389D02*
X11008158Y-10981436D01*
X11008158Y-10981436D02*
X10998634Y-10990960D01*
X10998634Y-10990960D02*
X10979586Y-11000484D01*
X10979586Y-11000484D02*
X10960539Y-11000484D01*
X10960539Y-11000484D02*
X10941491Y-10990960D01*
X10941491Y-10990960D02*
X10931967Y-10981436D01*
X10931967Y-10981436D02*
X10922444Y-10962389D01*
X10922444Y-10962389D02*
X10912920Y-10924293D01*
X10912920Y-10924293D02*
X10912920Y-10876674D01*
X10912920Y-10876674D02*
X10922444Y-10838579D01*
X10922444Y-10838579D02*
X10931967Y-10819531D01*
X10931967Y-10819531D02*
X10941491Y-10810008D01*
X10941491Y-10810008D02*
X10960539Y-10800484D01*
X11112920Y-11000484D02*
X11112920Y-10867150D01*
X11112920Y-10886198D02*
X11122444Y-10876674D01*
X11122444Y-10876674D02*
X11141491Y-10867150D01*
X11141491Y-10867150D02*
X11170063Y-10867150D01*
X11170063Y-10867150D02*
X11189110Y-10876674D01*
X11189110Y-10876674D02*
X11198634Y-10895722D01*
X11198634Y-10895722D02*
X11198634Y-11000484D01*
X11198634Y-10895722D02*
X11208158Y-10876674D01*
X11208158Y-10876674D02*
X11227205Y-10867150D01*
X11227205Y-10867150D02*
X11255777Y-10867150D01*
X11255777Y-10867150D02*
X11274824Y-10876674D01*
X11274824Y-10876674D02*
X11284348Y-10895722D01*
X11284348Y-10895722D02*
X11284348Y-11000484D01*
X11379586Y-11000484D02*
X11379586Y-10867150D01*
X11379586Y-10886198D02*
X11389110Y-10876674D01*
X11389110Y-10876674D02*
X11408158Y-10867150D01*
X11408158Y-10867150D02*
X11436729Y-10867150D01*
X11436729Y-10867150D02*
X11455777Y-10876674D01*
X11455777Y-10876674D02*
X11465301Y-10895722D01*
X11465301Y-10895722D02*
X11465301Y-11000484D01*
X11465301Y-10895722D02*
X11474824Y-10876674D01*
X11474824Y-10876674D02*
X11493872Y-10867150D01*
X11493872Y-10867150D02*
X11522443Y-10867150D01*
X11522443Y-10867150D02*
X11541491Y-10876674D01*
X11541491Y-10876674D02*
X11551015Y-10895722D01*
X11551015Y-10895722D02*
X11551015Y-11000484D01*
X11941491Y-10790960D02*
X11770063Y-11048103D01*
X12198634Y-10800484D02*
X12217682Y-10800484D01*
X12217682Y-10800484D02*
X12236729Y-10810008D01*
X12236729Y-10810008D02*
X12246253Y-10819531D01*
X12246253Y-10819531D02*
X12255777Y-10838579D01*
X12255777Y-10838579D02*
X12265301Y-10876674D01*
X12265301Y-10876674D02*
X12265301Y-10924293D01*
X12265301Y-10924293D02*
X12255777Y-10962389D01*
X12255777Y-10962389D02*
X12246253Y-10981436D01*
X12246253Y-10981436D02*
X12236729Y-10990960D01*
X12236729Y-10990960D02*
X12217682Y-11000484D01*
X12217682Y-11000484D02*
X12198634Y-11000484D01*
X12198634Y-11000484D02*
X12179586Y-10990960D01*
X12179586Y-10990960D02*
X12170063Y-10981436D01*
X12170063Y-10981436D02*
X12160539Y-10962389D01*
X12160539Y-10962389D02*
X12151015Y-10924293D01*
X12151015Y-10924293D02*
X12151015Y-10876674D01*
X12151015Y-10876674D02*
X12160539Y-10838579D01*
X12160539Y-10838579D02*
X12170063Y-10819531D01*
X12170063Y-10819531D02*
X12179586Y-10810008D01*
X12179586Y-10810008D02*
X12198634Y-10800484D01*
X12351015Y-10981436D02*
X12360539Y-10990960D01*
X12360539Y-10990960D02*
X12351015Y-11000484D01*
X12351015Y-11000484D02*
X12341491Y-10990960D01*
X12341491Y-10990960D02*
X12351015Y-10981436D01*
X12351015Y-10981436D02*
X12351015Y-11000484D01*
X12484348Y-10800484D02*
X12503396Y-10800484D01*
X12503396Y-10800484D02*
X12522444Y-10810008D01*
X12522444Y-10810008D02*
X12531967Y-10819531D01*
X12531967Y-10819531D02*
X12541491Y-10838579D01*
X12541491Y-10838579D02*
X12551015Y-10876674D01*
X12551015Y-10876674D02*
X12551015Y-10924293D01*
X12551015Y-10924293D02*
X12541491Y-10962389D01*
X12541491Y-10962389D02*
X12531967Y-10981436D01*
X12531967Y-10981436D02*
X12522444Y-10990960D01*
X12522444Y-10990960D02*
X12503396Y-11000484D01*
X12503396Y-11000484D02*
X12484348Y-11000484D01*
X12484348Y-11000484D02*
X12465301Y-10990960D01*
X12465301Y-10990960D02*
X12455777Y-10981436D01*
X12455777Y-10981436D02*
X12446253Y-10962389D01*
X12446253Y-10962389D02*
X12436729Y-10924293D01*
X12436729Y-10924293D02*
X12436729Y-10876674D01*
X12436729Y-10876674D02*
X12446253Y-10838579D01*
X12446253Y-10838579D02*
X12455777Y-10819531D01*
X12455777Y-10819531D02*
X12465301Y-10810008D01*
X12465301Y-10810008D02*
X12484348Y-10800484D01*
X12617682Y-10800484D02*
X12741491Y-10800484D01*
X12741491Y-10800484D02*
X12674825Y-10876674D01*
X12674825Y-10876674D02*
X12703396Y-10876674D01*
X12703396Y-10876674D02*
X12722444Y-10886198D01*
X12722444Y-10886198D02*
X12731967Y-10895722D01*
X12731967Y-10895722D02*
X12741491Y-10914770D01*
X12741491Y-10914770D02*
X12741491Y-10962389D01*
X12741491Y-10962389D02*
X12731967Y-10981436D01*
X12731967Y-10981436D02*
X12722444Y-10990960D01*
X12722444Y-10990960D02*
X12703396Y-11000484D01*
X12703396Y-11000484D02*
X12646253Y-11000484D01*
X12646253Y-11000484D02*
X12627206Y-10990960D01*
X12627206Y-10990960D02*
X12617682Y-10981436D01*
X12836729Y-11000484D02*
X12874825Y-11000484D01*
X12874825Y-11000484D02*
X12893872Y-10990960D01*
X12893872Y-10990960D02*
X12903396Y-10981436D01*
X12903396Y-10981436D02*
X12922444Y-10952865D01*
X12922444Y-10952865D02*
X12931967Y-10914770D01*
X12931967Y-10914770D02*
X12931967Y-10838579D01*
X12931967Y-10838579D02*
X12922444Y-10819531D01*
X12922444Y-10819531D02*
X12912920Y-10810008D01*
X12912920Y-10810008D02*
X12893872Y-10800484D01*
X12893872Y-10800484D02*
X12855777Y-10800484D01*
X12855777Y-10800484D02*
X12836729Y-10810008D01*
X12836729Y-10810008D02*
X12827206Y-10819531D01*
X12827206Y-10819531D02*
X12817682Y-10838579D01*
X12817682Y-10838579D02*
X12817682Y-10886198D01*
X12817682Y-10886198D02*
X12827206Y-10905246D01*
X12827206Y-10905246D02*
X12836729Y-10914770D01*
X12836729Y-10914770D02*
X12855777Y-10924293D01*
X12855777Y-10924293D02*
X12893872Y-10924293D01*
X12893872Y-10924293D02*
X12912920Y-10914770D01*
X12912920Y-10914770D02*
X12922444Y-10905246D01*
X12922444Y-10905246D02*
X12931967Y-10886198D01*
X13103396Y-10867150D02*
X13103396Y-11000484D01*
X13055777Y-10790960D02*
X13008158Y-10933817D01*
X13008158Y-10933817D02*
X13131967Y-10933817D01*
X13198634Y-10800484D02*
X13198634Y-10838579D01*
X13274825Y-10800484D02*
X13274825Y-10838579D01*
X13570063Y-11076674D02*
X13560539Y-11067150D01*
X13560539Y-11067150D02*
X13541491Y-11038579D01*
X13541491Y-11038579D02*
X13531968Y-11019531D01*
X13531968Y-11019531D02*
X13522444Y-10990960D01*
X13522444Y-10990960D02*
X13512920Y-10943341D01*
X13512920Y-10943341D02*
X13512920Y-10905246D01*
X13512920Y-10905246D02*
X13522444Y-10857627D01*
X13522444Y-10857627D02*
X13531968Y-10829055D01*
X13531968Y-10829055D02*
X13541491Y-10810008D01*
X13541491Y-10810008D02*
X13560539Y-10781436D01*
X13560539Y-10781436D02*
X13570063Y-10771912D01*
X13636729Y-10819531D02*
X13646253Y-10810008D01*
X13646253Y-10810008D02*
X13665301Y-10800484D01*
X13665301Y-10800484D02*
X13712920Y-10800484D01*
X13712920Y-10800484D02*
X13731968Y-10810008D01*
X13731968Y-10810008D02*
X13741491Y-10819531D01*
X13741491Y-10819531D02*
X13751015Y-10838579D01*
X13751015Y-10838579D02*
X13751015Y-10857627D01*
X13751015Y-10857627D02*
X13741491Y-10886198D01*
X13741491Y-10886198D02*
X13627206Y-11000484D01*
X13627206Y-11000484D02*
X13751015Y-11000484D01*
X13989110Y-11000484D02*
X13989110Y-10800484D01*
X14074825Y-11000484D02*
X14074825Y-10895722D01*
X14074825Y-10895722D02*
X14065301Y-10876674D01*
X14065301Y-10876674D02*
X14046253Y-10867150D01*
X14046253Y-10867150D02*
X14017682Y-10867150D01*
X14017682Y-10867150D02*
X13998634Y-10876674D01*
X13998634Y-10876674D02*
X13989110Y-10886198D01*
X14198634Y-11000484D02*
X14179587Y-10990960D01*
X14179587Y-10990960D02*
X14170063Y-10981436D01*
X14170063Y-10981436D02*
X14160539Y-10962389D01*
X14160539Y-10962389D02*
X14160539Y-10905246D01*
X14160539Y-10905246D02*
X14170063Y-10886198D01*
X14170063Y-10886198D02*
X14179587Y-10876674D01*
X14179587Y-10876674D02*
X14198634Y-10867150D01*
X14198634Y-10867150D02*
X14227206Y-10867150D01*
X14227206Y-10867150D02*
X14246253Y-10876674D01*
X14246253Y-10876674D02*
X14255777Y-10886198D01*
X14255777Y-10886198D02*
X14265301Y-10905246D01*
X14265301Y-10905246D02*
X14265301Y-10962389D01*
X14265301Y-10962389D02*
X14255777Y-10981436D01*
X14255777Y-10981436D02*
X14246253Y-10990960D01*
X14246253Y-10990960D02*
X14227206Y-11000484D01*
X14227206Y-11000484D02*
X14198634Y-11000484D01*
X14379587Y-11000484D02*
X14360539Y-10990960D01*
X14360539Y-10990960D02*
X14351015Y-10971912D01*
X14351015Y-10971912D02*
X14351015Y-10800484D01*
X14531968Y-10990960D02*
X14512920Y-11000484D01*
X14512920Y-11000484D02*
X14474825Y-11000484D01*
X14474825Y-11000484D02*
X14455777Y-10990960D01*
X14455777Y-10990960D02*
X14446253Y-10971912D01*
X14446253Y-10971912D02*
X14446253Y-10895722D01*
X14446253Y-10895722D02*
X14455777Y-10876674D01*
X14455777Y-10876674D02*
X14474825Y-10867150D01*
X14474825Y-10867150D02*
X14512920Y-10867150D01*
X14512920Y-10867150D02*
X14531968Y-10876674D01*
X14531968Y-10876674D02*
X14541491Y-10895722D01*
X14541491Y-10895722D02*
X14541491Y-10914770D01*
X14541491Y-10914770D02*
X14446253Y-10933817D01*
X14617682Y-10990960D02*
X14636730Y-11000484D01*
X14636730Y-11000484D02*
X14674825Y-11000484D01*
X14674825Y-11000484D02*
X14693872Y-10990960D01*
X14693872Y-10990960D02*
X14703396Y-10971912D01*
X14703396Y-10971912D02*
X14703396Y-10962389D01*
X14703396Y-10962389D02*
X14693872Y-10943341D01*
X14693872Y-10943341D02*
X14674825Y-10933817D01*
X14674825Y-10933817D02*
X14646253Y-10933817D01*
X14646253Y-10933817D02*
X14627206Y-10924293D01*
X14627206Y-10924293D02*
X14617682Y-10905246D01*
X14617682Y-10905246D02*
X14617682Y-10895722D01*
X14617682Y-10895722D02*
X14627206Y-10876674D01*
X14627206Y-10876674D02*
X14646253Y-10867150D01*
X14646253Y-10867150D02*
X14674825Y-10867150D01*
X14674825Y-10867150D02*
X14693872Y-10876674D01*
X14770063Y-11076674D02*
X14779587Y-11067150D01*
X14779587Y-11067150D02*
X14798634Y-11038579D01*
X14798634Y-11038579D02*
X14808158Y-11019531D01*
X14808158Y-11019531D02*
X14817682Y-10990960D01*
X14817682Y-10990960D02*
X14827206Y-10943341D01*
X14827206Y-10943341D02*
X14827206Y-10905246D01*
X14827206Y-10905246D02*
X14817682Y-10857627D01*
X14817682Y-10857627D02*
X14808158Y-10829055D01*
X14808158Y-10829055D02*
X14798634Y-10810008D01*
X14798634Y-10810008D02*
X14779587Y-10781436D01*
X14779587Y-10781436D02*
X14770063Y-10771912D01*
X15131968Y-11076674D02*
X15122444Y-11067150D01*
X15122444Y-11067150D02*
X15103396Y-11038579D01*
X15103396Y-11038579D02*
X15093872Y-11019531D01*
X15093872Y-11019531D02*
X15084349Y-10990960D01*
X15084349Y-10990960D02*
X15074825Y-10943341D01*
X15074825Y-10943341D02*
X15074825Y-10905246D01*
X15074825Y-10905246D02*
X15084349Y-10857627D01*
X15084349Y-10857627D02*
X15093872Y-10829055D01*
X15093872Y-10829055D02*
X15103396Y-10810008D01*
X15103396Y-10810008D02*
X15122444Y-10781436D01*
X15122444Y-10781436D02*
X15131968Y-10771912D01*
X15208158Y-10867150D02*
X15208158Y-11000484D01*
X15208158Y-10886198D02*
X15217682Y-10876674D01*
X15217682Y-10876674D02*
X15236730Y-10867150D01*
X15236730Y-10867150D02*
X15265301Y-10867150D01*
X15265301Y-10867150D02*
X15284349Y-10876674D01*
X15284349Y-10876674D02*
X15293872Y-10895722D01*
X15293872Y-10895722D02*
X15293872Y-11000484D01*
X15417682Y-11000484D02*
X15398634Y-10990960D01*
X15398634Y-10990960D02*
X15389111Y-10981436D01*
X15389111Y-10981436D02*
X15379587Y-10962389D01*
X15379587Y-10962389D02*
X15379587Y-10905246D01*
X15379587Y-10905246D02*
X15389111Y-10886198D01*
X15389111Y-10886198D02*
X15398634Y-10876674D01*
X15398634Y-10876674D02*
X15417682Y-10867150D01*
X15417682Y-10867150D02*
X15446253Y-10867150D01*
X15446253Y-10867150D02*
X15465301Y-10876674D01*
X15465301Y-10876674D02*
X15474825Y-10886198D01*
X15474825Y-10886198D02*
X15484349Y-10905246D01*
X15484349Y-10905246D02*
X15484349Y-10962389D01*
X15484349Y-10962389D02*
X15474825Y-10981436D01*
X15474825Y-10981436D02*
X15465301Y-10990960D01*
X15465301Y-10990960D02*
X15446253Y-11000484D01*
X15446253Y-11000484D02*
X15417682Y-11000484D01*
X15541492Y-10867150D02*
X15617682Y-10867150D01*
X15570063Y-10800484D02*
X15570063Y-10971912D01*
X15570063Y-10971912D02*
X15579587Y-10990960D01*
X15579587Y-10990960D02*
X15598634Y-11000484D01*
X15598634Y-11000484D02*
X15617682Y-11000484D01*
X15836730Y-10867150D02*
X15836730Y-11067150D01*
X15836730Y-10876674D02*
X15855777Y-10867150D01*
X15855777Y-10867150D02*
X15893873Y-10867150D01*
X15893873Y-10867150D02*
X15912920Y-10876674D01*
X15912920Y-10876674D02*
X15922444Y-10886198D01*
X15922444Y-10886198D02*
X15931968Y-10905246D01*
X15931968Y-10905246D02*
X15931968Y-10962389D01*
X15931968Y-10962389D02*
X15922444Y-10981436D01*
X15922444Y-10981436D02*
X15912920Y-10990960D01*
X15912920Y-10990960D02*
X15893873Y-11000484D01*
X15893873Y-11000484D02*
X15855777Y-11000484D01*
X15855777Y-11000484D02*
X15836730Y-10990960D01*
X16046253Y-11000484D02*
X16027206Y-10990960D01*
X16027206Y-10990960D02*
X16017682Y-10971912D01*
X16017682Y-10971912D02*
X16017682Y-10800484D01*
X16208158Y-11000484D02*
X16208158Y-10895722D01*
X16208158Y-10895722D02*
X16198634Y-10876674D01*
X16198634Y-10876674D02*
X16179587Y-10867150D01*
X16179587Y-10867150D02*
X16141492Y-10867150D01*
X16141492Y-10867150D02*
X16122444Y-10876674D01*
X16208158Y-10990960D02*
X16189111Y-11000484D01*
X16189111Y-11000484D02*
X16141492Y-11000484D01*
X16141492Y-11000484D02*
X16122444Y-10990960D01*
X16122444Y-10990960D02*
X16112920Y-10971912D01*
X16112920Y-10971912D02*
X16112920Y-10952865D01*
X16112920Y-10952865D02*
X16122444Y-10933817D01*
X16122444Y-10933817D02*
X16141492Y-10924293D01*
X16141492Y-10924293D02*
X16189111Y-10924293D01*
X16189111Y-10924293D02*
X16208158Y-10914770D01*
X16274825Y-10867150D02*
X16351015Y-10867150D01*
X16303396Y-10800484D02*
X16303396Y-10971912D01*
X16303396Y-10971912D02*
X16312920Y-10990960D01*
X16312920Y-10990960D02*
X16331968Y-11000484D01*
X16331968Y-11000484D02*
X16351015Y-11000484D01*
X16493873Y-10990960D02*
X16474825Y-11000484D01*
X16474825Y-11000484D02*
X16436730Y-11000484D01*
X16436730Y-11000484D02*
X16417682Y-10990960D01*
X16417682Y-10990960D02*
X16408158Y-10971912D01*
X16408158Y-10971912D02*
X16408158Y-10895722D01*
X16408158Y-10895722D02*
X16417682Y-10876674D01*
X16417682Y-10876674D02*
X16436730Y-10867150D01*
X16436730Y-10867150D02*
X16474825Y-10867150D01*
X16474825Y-10867150D02*
X16493873Y-10876674D01*
X16493873Y-10876674D02*
X16503396Y-10895722D01*
X16503396Y-10895722D02*
X16503396Y-10914770D01*
X16503396Y-10914770D02*
X16408158Y-10933817D01*
X16674825Y-11000484D02*
X16674825Y-10800484D01*
X16674825Y-10990960D02*
X16655777Y-11000484D01*
X16655777Y-11000484D02*
X16617682Y-11000484D01*
X16617682Y-11000484D02*
X16598634Y-10990960D01*
X16598634Y-10990960D02*
X16589111Y-10981436D01*
X16589111Y-10981436D02*
X16579587Y-10962389D01*
X16579587Y-10962389D02*
X16579587Y-10905246D01*
X16579587Y-10905246D02*
X16589111Y-10886198D01*
X16589111Y-10886198D02*
X16598634Y-10876674D01*
X16598634Y-10876674D02*
X16617682Y-10867150D01*
X16617682Y-10867150D02*
X16655777Y-10867150D01*
X16655777Y-10867150D02*
X16674825Y-10876674D01*
X16751015Y-11076674D02*
X16760539Y-11067150D01*
X16760539Y-11067150D02*
X16779587Y-11038579D01*
X16779587Y-11038579D02*
X16789111Y-11019531D01*
X16789111Y-11019531D02*
X16798635Y-10990960D01*
X16798635Y-10990960D02*
X16808158Y-10943341D01*
X16808158Y-10943341D02*
X16808158Y-10905246D01*
X16808158Y-10905246D02*
X16798635Y-10857627D01*
X16798635Y-10857627D02*
X16789111Y-10829055D01*
X16789111Y-10829055D02*
X16779587Y-10810008D01*
X16779587Y-10810008D02*
X16760539Y-10781436D01*
X16760539Y-10781436D02*
X16751015Y-10771912D01*
M02*
