%FSLAX45Y45*%
G04 Gerber Fmt 4.5, Leading zero omitted, Abs format (unit mm)*
G04 Created by KiCad (PCBNEW 5.1.10-88a1d61d58~88~ubuntu20.04.1) date 2021-05-26 19:05:16*
%MOMM*%
%LPD*%
G01*
G04 APERTURE LIST*
%TA.AperFunction,Profile*%
%ADD10C,0.100000*%
%TD*%
%ADD11C,0.200000*%
%ADD12C,0.300000*%
G04 APERTURE END LIST*
D10*
X9094000Y-11358000D02*
X9094000Y-6027000D01*
X18997000Y-11358000D02*
X9094000Y-11358000D01*
X18997000Y-6179000D02*
X18997000Y-11358000D01*
X18845000Y-6027000D02*
X18997000Y-6179000D01*
X9094000Y-6027000D02*
X18845000Y-6027000D01*
D11*
X11717900Y-10970850D02*
X11737900Y-10990850D01*
X11737900Y-10970850D02*
X11717900Y-10990850D01*
X11717900Y-11102850D02*
X11737900Y-11122850D01*
X11737900Y-11102850D02*
X11717900Y-11122850D01*
X11839900Y-10970850D02*
X11859900Y-10990850D01*
X11859900Y-10970850D02*
X11839900Y-10990850D01*
X11839900Y-11102850D02*
X11859900Y-11122850D01*
X11859900Y-11102850D02*
X11839900Y-11122850D01*
X11961900Y-10970850D02*
X11981900Y-10990850D01*
X11981900Y-10970850D02*
X11961900Y-10990850D01*
X11961900Y-11102850D02*
X11981900Y-11122850D01*
X11981900Y-11102850D02*
X11961900Y-11122850D01*
X9248360Y-8140673D02*
G75*
G03*
X9248360Y-8140673I-20320J0D01*
G01*
X9255619Y-8507500D02*
G75*
G03*
X9255619Y-8507500I-20320J0D01*
G01*
X9506320Y-8138000D02*
G75*
G03*
X9506320Y-8138000I-20320J0D01*
G01*
X9634321Y-6810751D02*
G75*
G03*
X9634321Y-6810751I-20320J0D01*
G01*
X9687320Y-8139000D02*
G75*
G03*
X9687320Y-8139000I-20320J0D01*
G01*
X9751281Y-9136357D02*
G75*
G03*
X9751281Y-9136357I-20320J0D01*
G01*
X9755320Y-6277720D02*
G75*
G03*
X9755320Y-6277720I-20320J0D01*
G01*
X9755320Y-6371720D02*
G75*
G03*
X9755320Y-6371720I-20320J0D01*
G01*
X9827480Y-8072100D02*
G75*
G03*
X9827480Y-8072100I-20320J0D01*
G01*
X9863039Y-7820000D02*
G75*
G03*
X9863039Y-7820000I-20320J0D01*
G01*
X9864560Y-7375000D02*
G75*
G03*
X9864560Y-7375000I-20320J0D01*
G01*
X9864561Y-7595000D02*
G75*
G03*
X9864561Y-7595000I-20320J0D01*
G01*
X9864890Y-7153030D02*
G75*
G03*
X9864890Y-7153030I-20320J0D01*
G01*
X10134130Y-6690750D02*
G75*
G03*
X10134130Y-6690750I-20320J0D01*
G01*
X10136670Y-7243200D02*
G75*
G03*
X10136670Y-7243200I-20320J0D01*
G01*
X10152926Y-7818510D02*
G75*
G03*
X10152926Y-7818510I-20320J0D01*
G01*
X10218320Y-7042750D02*
G75*
G03*
X10218320Y-7042750I-20320J0D01*
G01*
X10291620Y-6690750D02*
G75*
G03*
X10291620Y-6690750I-20320J0D01*
G01*
X10295820Y-8507498D02*
G75*
G03*
X10295820Y-8507498I-20320J0D01*
G01*
X10296320Y-6492000D02*
G75*
G03*
X10296320Y-6492000I-20320J0D01*
G01*
X10452320Y-7042750D02*
G75*
G03*
X10452320Y-7042750I-20320J0D01*
G01*
X10466870Y-10710300D02*
G75*
G03*
X10466870Y-10710300I-20320J0D01*
G01*
X10482800Y-7828260D02*
G75*
G03*
X10482800Y-7828260I-20320J0D01*
G01*
X10529320Y-8917500D02*
G75*
G03*
X10529320Y-8917500I-20320J0D01*
G01*
X10529320Y-9137000D02*
G75*
G03*
X10529320Y-9137000I-20320J0D01*
G01*
X10529320Y-9247000D02*
G75*
G03*
X10529320Y-9247000I-20320J0D01*
G01*
X10529320Y-9358000D02*
G75*
G03*
X10529320Y-9358000I-20320J0D01*
G01*
X10578630Y-6780920D02*
G75*
G03*
X10578630Y-6780920I-20320J0D01*
G01*
X10609803Y-7485000D02*
G75*
G03*
X10609803Y-7485000I-20320J0D01*
G01*
X10632660Y-7828260D02*
G75*
G03*
X10632660Y-7828260I-20320J0D01*
G01*
X10739920Y-10767450D02*
G75*
G03*
X10739920Y-10767450I-20320J0D01*
G01*
X10916320Y-6571000D02*
G75*
G03*
X10916320Y-6571000I-20320J0D01*
G01*
X10919320Y-8705000D02*
G75*
G03*
X10919320Y-8705000I-20320J0D01*
G01*
X10919680Y-7155160D02*
G75*
G03*
X10919680Y-7155160I-20320J0D01*
G01*
X11000960Y-7373600D02*
G75*
G03*
X11000960Y-7373600I-20320J0D01*
G01*
X11000960Y-7598358D02*
G75*
G03*
X11000960Y-7598358I-20320J0D01*
G01*
X11044140Y-9425920D02*
G75*
G03*
X11044140Y-9425920I-20320J0D01*
G01*
X11090320Y-8704000D02*
G75*
G03*
X11090320Y-8704000I-20320J0D01*
G01*
X11090320Y-8835000D02*
G75*
G03*
X11090320Y-8835000I-20320J0D01*
G01*
X11090320Y-8964000D02*
G75*
G03*
X11090320Y-8964000I-20320J0D01*
G01*
X11266620Y-6657320D02*
G75*
G03*
X11266620Y-6657320I-20320J0D01*
G01*
X11290320Y-7064500D02*
G75*
G03*
X11290320Y-7064500I-20320J0D01*
G01*
X11290518Y-7570220D02*
G75*
G03*
X11290518Y-7570220I-20320J0D01*
G01*
X11396319Y-10274750D02*
G75*
G03*
X11396319Y-10274750I-20320J0D01*
G01*
X11484350Y-7900000D02*
G75*
G03*
X11484350Y-7900000I-20320J0D01*
G01*
X11489320Y-8964000D02*
G75*
G03*
X11489320Y-8964000I-20320J0D01*
G01*
X11489320Y-9113500D02*
G75*
G03*
X11489320Y-9113500I-20320J0D01*
G01*
X11489320Y-9244433D02*
G75*
G03*
X11489320Y-9244433I-20320J0D01*
G01*
X11491605Y-8704000D02*
G75*
G03*
X11491605Y-8704000I-20320J0D01*
G01*
X11763320Y-7287500D02*
G75*
G03*
X11763320Y-7287500I-20320J0D01*
G01*
X11834090Y-8704000D02*
G75*
G03*
X11834090Y-8704000I-20320J0D01*
G01*
X11872320Y-8114000D02*
G75*
G03*
X11872320Y-8114000I-20320J0D01*
G01*
X11882060Y-10070800D02*
G75*
G03*
X11882060Y-10070800I-20320J0D01*
G01*
X11942320Y-8936000D02*
G75*
G03*
X11942320Y-8936000I-20320J0D01*
G01*
X12037280Y-9332300D02*
G75*
G03*
X12037280Y-9332300I-20320J0D01*
G01*
X12112720Y-7386299D02*
G75*
G03*
X12112720Y-7386299I-20320J0D01*
G01*
X12180320Y-8994000D02*
G75*
G03*
X12180320Y-8994000I-20320J0D01*
G01*
X12226319Y-10315500D02*
G75*
G03*
X12226319Y-10315500I-20320J0D01*
G01*
X12314140Y-7079820D02*
G75*
G03*
X12314140Y-7079820I-20320J0D01*
G01*
X12430320Y-7175000D02*
G75*
G03*
X12430320Y-7175000I-20320J0D01*
G01*
X12545280Y-9433540D02*
G75*
G03*
X12545280Y-9433540I-20320J0D01*
G01*
X12568720Y-10240400D02*
G75*
G03*
X12568720Y-10240400I-20320J0D01*
G01*
X12573800Y-10077840D02*
G75*
G03*
X12573800Y-10077840I-20320J0D01*
G01*
X12721120Y-10964300D02*
G75*
G03*
X12721120Y-10964300I-20320J0D01*
G01*
X12756680Y-10077840D02*
G75*
G03*
X12756680Y-10077840I-20320J0D01*
G01*
X12797320Y-9433950D02*
G75*
G03*
X12797320Y-9433950I-20320J0D01*
G01*
X12933320Y-8957249D02*
G75*
G03*
X12933320Y-8957249I-20320J0D01*
G01*
X12959820Y-6462500D02*
G75*
G03*
X12959820Y-6462500I-20320J0D01*
G01*
X12963320Y-8620000D02*
G75*
G03*
X12963320Y-8620000I-20320J0D01*
G01*
X12963320Y-8750000D02*
G75*
G03*
X12963320Y-8750000I-20320J0D01*
G01*
X13044970Y-10977000D02*
G75*
G03*
X13044970Y-10977000I-20320J0D01*
G01*
X13073320Y-8580000D02*
G75*
G03*
X13073320Y-8580000I-20320J0D01*
G01*
X13199842Y-9928840D02*
G75*
G03*
X13199842Y-9928840I-20320J0D01*
G01*
X13200600Y-9725640D02*
G75*
G03*
X13200600Y-9725640I-20320J0D01*
G01*
X13297320Y-8331000D02*
G75*
G03*
X13297320Y-8331000I-20320J0D01*
G01*
X13372070Y-7490250D02*
G75*
G03*
X13372070Y-7490250I-20320J0D01*
G01*
X13383480Y-10182840D02*
G75*
G03*
X13383480Y-10182840I-20320J0D01*
G01*
X13426320Y-8708000D02*
G75*
G03*
X13426320Y-8708000I-20320J0D01*
G01*
X13485320Y-9325000D02*
G75*
G03*
X13485320Y-9325000I-20320J0D01*
G01*
X13543320Y-8865000D02*
G75*
G03*
X13543320Y-8865000I-20320J0D01*
G01*
X13575320Y-9435000D02*
G75*
G03*
X13575320Y-9435000I-20320J0D01*
G01*
X13607320Y-9112000D02*
G75*
G03*
X13607320Y-9112000I-20320J0D01*
G01*
X13616320Y-8706000D02*
G75*
G03*
X13616320Y-8706000I-20320J0D01*
G01*
X13655260Y-9330000D02*
G75*
G03*
X13655260Y-9330000I-20320J0D01*
G01*
X13739841Y-10055840D02*
G75*
G03*
X13739841Y-10055840I-20320J0D01*
G01*
X13850320Y-8742000D02*
G75*
G03*
X13850320Y-8742000I-20320J0D01*
G01*
X13902220Y-7122550D02*
G75*
G03*
X13902220Y-7122550I-20320J0D01*
G01*
X13927320Y-9224000D02*
G75*
G03*
X13927320Y-9224000I-20320J0D01*
G01*
X13927320Y-9401000D02*
G75*
G03*
X13927320Y-9401000I-20320J0D01*
G01*
X14021320Y-9313000D02*
G75*
G03*
X14021320Y-9313000I-20320J0D01*
G01*
X14027320Y-8763000D02*
G75*
G03*
X14027320Y-8763000I-20320J0D01*
G01*
X14028320Y-10182840D02*
G75*
G03*
X14028320Y-10182840I-20320J0D01*
G01*
X14028320Y-10309840D02*
G75*
G03*
X14028320Y-10309840I-20320J0D01*
G01*
X14028320Y-10436840D02*
G75*
G03*
X14028320Y-10436840I-20320J0D01*
G01*
X14028320Y-10563840D02*
G75*
G03*
X14028320Y-10563840I-20320J0D01*
G01*
X14028320Y-10690840D02*
G75*
G03*
X14028320Y-10690840I-20320J0D01*
G01*
X14075320Y-8630000D02*
G75*
G03*
X14075320Y-8630000I-20320J0D01*
G01*
X14079320Y-7381000D02*
G75*
G03*
X14079320Y-7381000I-20320J0D01*
G01*
X14081320Y-7602000D02*
G75*
G03*
X14081320Y-7602000I-20320J0D01*
G01*
X14142320Y-9224000D02*
G75*
G03*
X14142320Y-9224000I-20320J0D01*
G01*
X14146320Y-9110000D02*
G75*
G03*
X14146320Y-9110000I-20320J0D01*
G01*
X14203320Y-9418000D02*
G75*
G03*
X14203320Y-9418000I-20320J0D01*
G01*
X14218320Y-8018000D02*
G75*
G03*
X14218320Y-8018000I-20320J0D01*
G01*
X14226070Y-8630040D02*
G75*
G03*
X14226070Y-8630040I-20320J0D01*
G01*
X14323320Y-7380000D02*
G75*
G03*
X14323320Y-7380000I-20320J0D01*
G01*
X14324320Y-7739000D02*
G75*
G03*
X14324320Y-7739000I-20320J0D01*
G01*
X14327320Y-8127000D02*
G75*
G03*
X14327320Y-8127000I-20320J0D01*
G01*
X14353760Y-10563840D02*
G75*
G03*
X14353760Y-10563840I-20320J0D01*
G01*
X14408320Y-9644000D02*
G75*
G03*
X14408320Y-9644000I-20320J0D01*
G01*
X14484320Y-8359000D02*
G75*
G03*
X14484320Y-8359000I-20320J0D01*
G01*
X14501080Y-10563840D02*
G75*
G03*
X14501080Y-10563840I-20320J0D01*
G01*
X14533320Y-8522000D02*
G75*
G03*
X14533320Y-8522000I-20320J0D01*
G01*
X14559320Y-6873000D02*
G75*
G03*
X14559320Y-6873000I-20320J0D01*
G01*
X14580320Y-8980000D02*
G75*
G03*
X14580320Y-8980000I-20320J0D01*
G01*
X14612840Y-10563840D02*
G75*
G03*
X14612840Y-10563840I-20320J0D01*
G01*
X14640320Y-7742000D02*
G75*
G03*
X14640320Y-7742000I-20320J0D01*
G01*
X14762700Y-10563840D02*
G75*
G03*
X14762700Y-10563840I-20320J0D01*
G01*
X14796320Y-7742000D02*
G75*
G03*
X14796320Y-7742000I-20320J0D01*
G01*
X14998920Y-9382740D02*
G75*
G03*
X14998920Y-9382740I-20320J0D01*
G01*
X15004071Y-8862000D02*
G75*
G03*
X15004071Y-8862000I-20320J0D01*
G01*
X15065320Y-6862000D02*
G75*
G03*
X15065320Y-6862000I-20320J0D01*
G01*
X15086320Y-8514000D02*
G75*
G03*
X15086320Y-8514000I-20320J0D01*
G01*
X15122320Y-7799000D02*
G75*
G03*
X15122320Y-7799000I-20320J0D01*
G01*
X15174180Y-8143220D02*
G75*
G03*
X15174180Y-8143220I-20320J0D01*
G01*
X15182320Y-10563840D02*
G75*
G03*
X15182320Y-10563840I-20320J0D01*
G01*
X15245320Y-6980000D02*
G75*
G03*
X15245320Y-6980000I-20320J0D01*
G01*
X15303720Y-10563840D02*
G75*
G03*
X15303720Y-10563840I-20320J0D01*
G01*
X15309320Y-8727000D02*
G75*
G03*
X15309320Y-8727000I-20320J0D01*
G01*
X15309320Y-10089000D02*
G75*
G03*
X15309320Y-10089000I-20320J0D01*
G01*
X15457320Y-10563840D02*
G75*
G03*
X15457320Y-10563840I-20320J0D01*
G01*
X15491320Y-7890000D02*
G75*
G03*
X15491320Y-7890000I-20320J0D01*
G01*
X15492320Y-8723000D02*
G75*
G03*
X15492320Y-8723000I-20320J0D01*
G01*
X15551320Y-7259000D02*
G75*
G03*
X15551320Y-7259000I-20320J0D01*
G01*
X15562320Y-9129000D02*
G75*
G03*
X15562320Y-9129000I-20320J0D01*
G01*
X15580320Y-7045000D02*
G75*
G03*
X15580320Y-7045000I-20320J0D01*
G01*
X15625320Y-9905000D02*
G75*
G03*
X15625320Y-9905000I-20320J0D01*
G01*
X15636460Y-10563840D02*
G75*
G03*
X15636460Y-10563840I-20320J0D01*
G01*
X15711320Y-8270000D02*
G75*
G03*
X15711320Y-8270000I-20320J0D01*
G01*
X15809320Y-9550000D02*
G75*
G03*
X15809320Y-9550000I-20320J0D01*
G01*
X15853320Y-7266000D02*
G75*
G03*
X15853320Y-7266000I-20320J0D01*
G01*
X16039320Y-6625000D02*
G75*
G03*
X16039320Y-6625000I-20320J0D01*
G01*
X16039320Y-8017000D02*
G75*
G03*
X16039320Y-8017000I-20320J0D01*
G01*
X16084320Y-6865000D02*
G75*
G03*
X16084320Y-6865000I-20320J0D01*
G01*
X16153320Y-7150000D02*
G75*
G03*
X16153320Y-7150000I-20320J0D01*
G01*
X16153820Y-9521500D02*
G75*
G03*
X16153820Y-9521500I-20320J0D01*
G01*
X16289240Y-8031460D02*
G75*
G03*
X16289240Y-8031460I-20320J0D01*
G01*
X16296320Y-10048000D02*
G75*
G03*
X16296320Y-10048000I-20320J0D01*
G01*
X16390320Y-7005000D02*
G75*
G03*
X16390320Y-7005000I-20320J0D01*
G01*
X16669320Y-9904000D02*
G75*
G03*
X16669320Y-9904000I-20320J0D01*
G01*
X16770320Y-8131000D02*
G75*
G03*
X16770320Y-8131000I-20320J0D01*
G01*
X16782320Y-6624000D02*
G75*
G03*
X16782320Y-6624000I-20320J0D01*
G01*
X16832320Y-8762000D02*
G75*
G03*
X16832320Y-8762000I-20320J0D01*
G01*
X16835320Y-9141000D02*
G75*
G03*
X16835320Y-9141000I-20320J0D01*
G01*
X16837320Y-9016000D02*
G75*
G03*
X16837320Y-9016000I-20320J0D01*
G01*
X16854960Y-10581200D02*
G75*
G03*
X16854960Y-10581200I-20320J0D01*
G01*
X16855960Y-10679200D02*
G75*
G03*
X16855960Y-10679200I-20320J0D01*
G01*
X16855960Y-10777200D02*
G75*
G03*
X16855960Y-10777200I-20320J0D01*
G01*
X16868320Y-9905000D02*
G75*
G03*
X16868320Y-9905000I-20320J0D01*
G01*
X16871320Y-9779000D02*
G75*
G03*
X16871320Y-9779000I-20320J0D01*
G01*
X16872239Y-9652857D02*
G75*
G03*
X16872239Y-9652857I-20320J0D01*
G01*
X16872320Y-9526000D02*
G75*
G03*
X16872320Y-9526000I-20320J0D01*
G01*
X17068320Y-9334000D02*
G75*
G03*
X17068320Y-9334000I-20320J0D01*
G01*
X17074320Y-7132000D02*
G75*
G03*
X17074320Y-7132000I-20320J0D01*
G01*
X17193320Y-8756000D02*
G75*
G03*
X17193320Y-8756000I-20320J0D01*
G01*
X17201100Y-7967960D02*
G75*
G03*
X17201100Y-7967960I-20320J0D01*
G01*
X17285320Y-6878000D02*
G75*
G03*
X17285320Y-6878000I-20320J0D01*
G01*
X17285320Y-7005000D02*
G75*
G03*
X17285320Y-7005000I-20320J0D01*
G01*
X17296320Y-8246000D02*
G75*
G03*
X17296320Y-8246000I-20320J0D01*
G01*
X17360320Y-8758000D02*
G75*
G03*
X17360320Y-8758000I-20320J0D01*
G01*
X17360320Y-9012000D02*
G75*
G03*
X17360320Y-9012000I-20320J0D01*
G01*
X17360320Y-9140000D02*
G75*
G03*
X17360320Y-9140000I-20320J0D01*
G01*
X17426320Y-11062000D02*
G75*
G03*
X17426320Y-11062000I-20320J0D01*
G01*
X17496570Y-9988090D02*
G75*
G03*
X17496570Y-9988090I-20320J0D01*
G01*
X17500810Y-9596101D02*
G75*
G03*
X17500810Y-9596101I-20320J0D01*
G01*
X17591320Y-10325000D02*
G75*
G03*
X17591320Y-10325000I-20320J0D01*
G01*
X17591320Y-11062000D02*
G75*
G03*
X17591320Y-11062000I-20320J0D01*
G01*
X17754320Y-11062000D02*
G75*
G03*
X17754320Y-11062000I-20320J0D01*
G01*
X17911569Y-9334000D02*
G75*
G03*
X17911569Y-9334000I-20320J0D01*
G01*
X17912290Y-9596099D02*
G75*
G03*
X17912290Y-9596099I-20320J0D01*
G01*
X17912290Y-8885000D02*
G75*
G03*
X17912290Y-8885000I-20320J0D01*
G01*
X17912290Y-9013000D02*
G75*
G03*
X17912290Y-9013000I-20320J0D01*
G01*
X17912290Y-9138900D02*
G75*
G03*
X17912290Y-9138900I-20320J0D01*
G01*
X17912570Y-9858000D02*
G75*
G03*
X17912570Y-9858000I-20320J0D01*
G01*
X17980880Y-6697960D02*
G75*
G03*
X17980880Y-6697960I-20320J0D01*
G01*
X18363800Y-10581200D02*
G75*
G03*
X18363800Y-10581200I-20320J0D01*
G01*
X18364800Y-10777200D02*
G75*
G03*
X18364800Y-10777200I-20320J0D01*
G01*
X18365800Y-10679200D02*
G75*
G03*
X18365800Y-10679200I-20320J0D01*
G01*
X9186500Y-7023000D02*
X9186500Y-7083000D01*
X9156500Y-7053000D02*
X9216500Y-7053000D01*
X9236500Y-7033000D02*
X9136500Y-7033000D01*
X9236500Y-7073000D02*
X9136500Y-7073000D01*
X9136500Y-7033000D02*
G75*
G03*
X9136500Y-7073000I0J-20000D01*
G01*
X9236500Y-7073000D02*
G75*
G03*
X9236500Y-7033000I0J20000D01*
G01*
X9186500Y-7887000D02*
X9186500Y-7947000D01*
X9156500Y-7917000D02*
X9216500Y-7917000D01*
X9236500Y-7897000D02*
X9136500Y-7897000D01*
X9236500Y-7937000D02*
X9136500Y-7937000D01*
X9136500Y-7897000D02*
G75*
G03*
X9136500Y-7937000I0J-20000D01*
G01*
X9236500Y-7937000D02*
G75*
G03*
X9236500Y-7897000I0J20000D01*
G01*
X9594500Y-7023000D02*
X9594500Y-7083000D01*
X9564500Y-7053000D02*
X9624500Y-7053000D01*
X9649500Y-7033000D02*
X9539500Y-7033000D01*
X9649500Y-7073000D02*
X9539500Y-7073000D01*
X9539500Y-7033000D02*
G75*
G03*
X9539500Y-7073000I0J-20000D01*
G01*
X9649500Y-7073000D02*
G75*
G03*
X9649500Y-7033000I0J20000D01*
G01*
X9594500Y-7887000D02*
X9594500Y-7947000D01*
X9564500Y-7917000D02*
X9624500Y-7917000D01*
X9649500Y-7897000D02*
X9539500Y-7897000D01*
X9649500Y-7937000D02*
X9539500Y-7937000D01*
X9539500Y-7897000D02*
G75*
G03*
X9539500Y-7937000I0J-20000D01*
G01*
X9649500Y-7937000D02*
G75*
G03*
X9649500Y-7897000I0J20000D01*
G01*
X9631006Y-11012356D02*
X9631006Y-10941644D01*
X9560294Y-10941644D01*
X9560294Y-11012356D01*
X9631006Y-11012356D01*
X9881006Y-11012356D02*
X9881006Y-10941644D01*
X9810294Y-10941644D01*
X9810294Y-11012356D01*
X9881006Y-11012356D01*
X11428356Y-6310356D02*
X11428356Y-6239644D01*
X11357644Y-6239644D01*
X11357644Y-6310356D01*
X11428356Y-6310356D01*
X11682356Y-6310356D02*
X11682356Y-6239644D01*
X11611644Y-6239644D01*
X11611644Y-6310356D01*
X11682356Y-6310356D01*
X11936356Y-6310356D02*
X11936356Y-6239644D01*
X11865644Y-6239644D01*
X11865644Y-6310356D01*
X11936356Y-6310356D01*
X12190356Y-6310356D02*
X12190356Y-6239644D01*
X12119644Y-6239644D01*
X12119644Y-6310356D01*
X12190356Y-6310356D01*
X12444356Y-6310356D02*
X12444356Y-6239644D01*
X12373644Y-6239644D01*
X12373644Y-6310356D01*
X12444356Y-6310356D01*
X12513906Y-7754806D02*
X12513906Y-7684094D01*
X12443194Y-7684094D01*
X12443194Y-7754806D01*
X12513906Y-7754806D01*
X12513906Y-8008806D02*
X12513906Y-7938094D01*
X12443194Y-7938094D01*
X12443194Y-8008806D01*
X12513906Y-8008806D01*
X12513906Y-8262806D02*
X12513906Y-8192094D01*
X12443194Y-8192094D01*
X12443194Y-8262806D01*
X12513906Y-8262806D01*
X12513906Y-8516806D02*
X12513906Y-8446094D01*
X12443194Y-8446094D01*
X12443194Y-8516806D01*
X12513906Y-8516806D01*
X12513906Y-8770806D02*
X12513906Y-8700094D01*
X12443194Y-8700094D01*
X12443194Y-8770806D01*
X12513906Y-8770806D01*
X12698356Y-6310356D02*
X12698356Y-6239644D01*
X12627644Y-6239644D01*
X12627644Y-6310356D01*
X12698356Y-6310356D01*
X13178356Y-6310356D02*
X13178356Y-6239644D01*
X13107644Y-6239644D01*
X13107644Y-6310356D01*
X13178356Y-6310356D01*
X13393436Y-11142756D02*
X13393436Y-11072044D01*
X13322724Y-11072044D01*
X13322724Y-11142756D01*
X13393436Y-11142756D01*
X13432356Y-6310356D02*
X13432356Y-6239644D01*
X13361644Y-6239644D01*
X13361644Y-6310356D01*
X13432356Y-6310356D01*
X13647436Y-11142756D02*
X13647436Y-11072044D01*
X13576724Y-11072044D01*
X13576724Y-11142756D01*
X13647436Y-11142756D01*
X13686356Y-6310356D02*
X13686356Y-6239644D01*
X13615644Y-6239644D01*
X13615644Y-6310356D01*
X13686356Y-6310356D01*
X13901436Y-11142756D02*
X13901436Y-11072044D01*
X13830724Y-11072044D01*
X13830724Y-11142756D01*
X13901436Y-11142756D01*
X13940356Y-6310356D02*
X13940356Y-6239644D01*
X13869644Y-6239644D01*
X13869644Y-6310356D01*
X13940356Y-6310356D01*
X14155436Y-11142756D02*
X14155436Y-11072044D01*
X14084724Y-11072044D01*
X14084724Y-11142756D01*
X14155436Y-11142756D01*
X14420356Y-6310356D02*
X14420356Y-6239644D01*
X14349644Y-6239644D01*
X14349644Y-6310356D01*
X14420356Y-6310356D01*
X14674356Y-6310356D02*
X14674356Y-6239644D01*
X14603644Y-6239644D01*
X14603644Y-6310356D01*
X14674356Y-6310356D01*
X14895156Y-11158406D02*
X14895156Y-11087694D01*
X14824444Y-11087694D01*
X14824444Y-11158406D01*
X14895156Y-11158406D01*
X14928356Y-6310356D02*
X14928356Y-6239644D01*
X14857644Y-6239644D01*
X14857644Y-6310356D01*
X14928356Y-6310356D01*
X15149156Y-11158406D02*
X15149156Y-11087694D01*
X15078444Y-11087694D01*
X15078444Y-11158406D01*
X15149156Y-11158406D01*
X15182356Y-6310356D02*
X15182356Y-6239644D01*
X15111644Y-6239644D01*
X15111644Y-6310356D01*
X15182356Y-6310356D01*
X15403156Y-11158406D02*
X15403156Y-11087694D01*
X15332444Y-11087694D01*
X15332444Y-11158406D01*
X15403156Y-11158406D01*
X15657156Y-11158406D02*
X15657156Y-11087694D01*
X15586444Y-11087694D01*
X15586444Y-11158406D01*
X15657156Y-11158406D01*
X15669856Y-6294306D02*
X15669856Y-6223594D01*
X15599144Y-6223594D01*
X15599144Y-6294306D01*
X15669856Y-6294306D01*
X15911156Y-11158406D02*
X15911156Y-11087694D01*
X15840444Y-11087694D01*
X15840444Y-11158406D01*
X15911156Y-11158406D01*
X15923856Y-6294306D02*
X15923856Y-6223594D01*
X15853144Y-6223594D01*
X15853144Y-6294306D01*
X15923856Y-6294306D01*
X16165156Y-11158406D02*
X16165156Y-11087694D01*
X16094444Y-11087694D01*
X16094444Y-11158406D01*
X16165156Y-11158406D01*
X16177856Y-6294306D02*
X16177856Y-6223594D01*
X16107144Y-6223594D01*
X16107144Y-6294306D01*
X16177856Y-6294306D01*
X16419156Y-11158406D02*
X16419156Y-11087694D01*
X16348444Y-11087694D01*
X16348444Y-11158406D01*
X16419156Y-11158406D01*
X16431856Y-6294306D02*
X16431856Y-6223594D01*
X16361144Y-6223594D01*
X16361144Y-6294306D01*
X16431856Y-6294306D01*
X16673156Y-11158406D02*
X16673156Y-11087694D01*
X16602444Y-11087694D01*
X16602444Y-11158406D01*
X16673156Y-11158406D01*
X16685856Y-6294306D02*
X16685856Y-6223594D01*
X16615144Y-6223594D01*
X16615144Y-6294306D01*
X16685856Y-6294306D01*
X16939856Y-6294306D02*
X16939856Y-6223594D01*
X16869144Y-6223594D01*
X16869144Y-6294306D01*
X16939856Y-6294306D01*
X17193856Y-6294306D02*
X17193856Y-6223594D01*
X17123144Y-6223594D01*
X17123144Y-6294306D01*
X17193856Y-6294306D01*
X17447856Y-6294306D02*
X17447856Y-6223594D01*
X17377144Y-6223594D01*
X17377144Y-6294306D01*
X17447856Y-6294306D01*
X18508306Y-6910256D02*
X18508306Y-6839544D01*
X18437594Y-6839544D01*
X18437594Y-6910256D01*
X18508306Y-6910256D01*
X18508306Y-7164256D02*
X18508306Y-7093544D01*
X18437594Y-7093544D01*
X18437594Y-7164256D01*
X18508306Y-7164256D01*
X18508306Y-7418256D02*
X18508306Y-7347544D01*
X18437594Y-7347544D01*
X18437594Y-7418256D01*
X18508306Y-7418256D01*
X18508306Y-7672256D02*
X18508306Y-7601544D01*
X18437594Y-7601544D01*
X18437594Y-7672256D01*
X18508306Y-7672256D01*
X18508306Y-7926256D02*
X18508306Y-7855544D01*
X18437594Y-7855544D01*
X18437594Y-7926256D01*
X18508306Y-7926256D01*
X18508306Y-8180256D02*
X18508306Y-8109544D01*
X18437594Y-8109544D01*
X18437594Y-8180256D01*
X18508306Y-8180256D01*
X18508306Y-8434256D02*
X18508306Y-8363544D01*
X18437594Y-8363544D01*
X18437594Y-8434256D01*
X18508306Y-8434256D01*
X18508306Y-8688256D02*
X18508306Y-8617544D01*
X18437594Y-8617544D01*
X18437594Y-8688256D01*
X18508306Y-8688256D01*
X18508306Y-8942256D02*
X18508306Y-8871544D01*
X18437594Y-8871544D01*
X18437594Y-8942256D01*
X18508306Y-8942256D01*
X18508306Y-9196256D02*
X18508306Y-9125544D01*
X18437594Y-9125544D01*
X18437594Y-9196256D01*
X18508306Y-9196256D01*
X18508306Y-9450256D02*
X18508306Y-9379544D01*
X18437594Y-9379544D01*
X18437594Y-9450256D01*
X18508306Y-9450256D01*
X18508306Y-9704256D02*
X18508306Y-9633544D01*
X18437594Y-9633544D01*
X18437594Y-9704256D01*
X18508306Y-9704256D01*
X18508306Y-9958256D02*
X18508306Y-9887544D01*
X18437594Y-9887544D01*
X18437594Y-9958256D01*
X18508306Y-9958256D01*
X18508306Y-10212256D02*
X18508306Y-10141544D01*
X18437594Y-10141544D01*
X18437594Y-10212256D01*
X18508306Y-10212256D01*
X18762306Y-6910256D02*
X18762306Y-6839544D01*
X18691594Y-6839544D01*
X18691594Y-6910256D01*
X18762306Y-6910256D01*
X18762306Y-7164256D02*
X18762306Y-7093544D01*
X18691594Y-7093544D01*
X18691594Y-7164256D01*
X18762306Y-7164256D01*
X18762306Y-7418256D02*
X18762306Y-7347544D01*
X18691594Y-7347544D01*
X18691594Y-7418256D01*
X18762306Y-7418256D01*
X18762306Y-7672256D02*
X18762306Y-7601544D01*
X18691594Y-7601544D01*
X18691594Y-7672256D01*
X18762306Y-7672256D01*
X18762306Y-7926256D02*
X18762306Y-7855544D01*
X18691594Y-7855544D01*
X18691594Y-7926256D01*
X18762306Y-7926256D01*
X18762306Y-8180256D02*
X18762306Y-8109544D01*
X18691594Y-8109544D01*
X18691594Y-8180256D01*
X18762306Y-8180256D01*
X18762306Y-8434256D02*
X18762306Y-8363544D01*
X18691594Y-8363544D01*
X18691594Y-8434256D01*
X18762306Y-8434256D01*
X18762306Y-8688256D02*
X18762306Y-8617544D01*
X18691594Y-8617544D01*
X18691594Y-8688256D01*
X18762306Y-8688256D01*
X18762306Y-8942256D02*
X18762306Y-8871544D01*
X18691594Y-8871544D01*
X18691594Y-8942256D01*
X18762306Y-8942256D01*
X18762306Y-9196256D02*
X18762306Y-9125544D01*
X18691594Y-9125544D01*
X18691594Y-9196256D01*
X18762306Y-9196256D01*
X18762306Y-9450256D02*
X18762306Y-9379544D01*
X18691594Y-9379544D01*
X18691594Y-9450256D01*
X18762306Y-9450256D01*
X18762306Y-9704256D02*
X18762306Y-9633544D01*
X18691594Y-9633544D01*
X18691594Y-9704256D01*
X18762306Y-9704256D01*
X18762306Y-9958256D02*
X18762306Y-9887544D01*
X18691594Y-9887544D01*
X18691594Y-9958256D01*
X18762306Y-9958256D01*
X18762306Y-10212256D02*
X18762306Y-10141544D01*
X18691594Y-10141544D01*
X18691594Y-10212256D01*
X18762306Y-10212256D01*
X9469340Y-10251420D02*
X9520140Y-10200620D01*
X9469340Y-10149820D01*
X9418540Y-10200620D01*
X9469340Y-10251420D01*
X9469340Y-10505420D02*
X9520140Y-10454620D01*
X9469340Y-10403820D01*
X9418540Y-10454620D01*
X9469340Y-10505420D01*
X9723340Y-10251420D02*
X9774140Y-10200620D01*
X9723340Y-10149820D01*
X9672540Y-10200620D01*
X9723340Y-10251420D01*
X9723340Y-10505420D02*
X9774140Y-10454620D01*
X9723340Y-10403820D01*
X9672540Y-10454620D01*
X9723340Y-10505420D01*
X9977340Y-10251420D02*
X10028140Y-10200620D01*
X9977340Y-10149820D01*
X9926540Y-10200620D01*
X9977340Y-10251420D01*
X9977340Y-10505420D02*
X10028140Y-10454620D01*
X9977340Y-10403820D01*
X9926540Y-10454620D01*
X9977340Y-10505420D01*
X10231340Y-10251420D02*
X10282140Y-10200620D01*
X10231340Y-10149820D01*
X10180540Y-10200620D01*
X10231340Y-10251420D01*
X10231340Y-10505420D02*
X10282140Y-10454620D01*
X10231340Y-10403820D01*
X10180540Y-10454620D01*
X10231340Y-10505420D01*
X10328000Y-10942000D02*
X10648000Y-11262000D01*
X10648000Y-10942000D02*
X10328000Y-11262000D01*
X10648000Y-11102000D02*
G75*
G03*
X10648000Y-11102000I-160000J0D01*
G01*
X10455000Y-6117000D02*
X10775000Y-6437000D01*
X10775000Y-6117000D02*
X10455000Y-6437000D01*
X10775000Y-6277000D02*
G75*
G03*
X10775000Y-6277000I-160000J0D01*
G01*
X17949000Y-6118000D02*
X18269000Y-6438000D01*
X18269000Y-6118000D02*
X17949000Y-6438000D01*
X18269000Y-6278000D02*
G75*
G03*
X18269000Y-6278000I-160000J0D01*
G01*
X18582000Y-10941000D02*
X18902000Y-11261000D01*
X18902000Y-10941000D02*
X18582000Y-11261000D01*
X18902000Y-11101000D02*
G75*
G03*
X18902000Y-11101000I-160000J0D01*
G01*
X9512000Y-7163500D02*
X9577000Y-7228500D01*
X9577000Y-7163500D02*
X9512000Y-7228500D01*
X9544500Y-7163500D02*
X9544500Y-7228500D01*
X9512000Y-7196000D02*
X9577000Y-7196000D01*
X9512000Y-7741500D02*
X9577000Y-7806500D01*
X9577000Y-7741500D02*
X9512000Y-7806500D01*
X9544500Y-7741500D02*
X9544500Y-7806500D01*
X9512000Y-7774000D02*
X9577000Y-7774000D01*
D12*
X9375428Y-11828714D02*
X9375428Y-11528714D01*
X9446857Y-11528714D01*
X9489714Y-11543000D01*
X9518286Y-11571571D01*
X9532571Y-11600143D01*
X9546857Y-11657286D01*
X9546857Y-11700143D01*
X9532571Y-11757286D01*
X9518286Y-11785857D01*
X9489714Y-11814429D01*
X9446857Y-11828714D01*
X9375428Y-11828714D01*
X9675428Y-11828714D02*
X9675428Y-11628714D01*
X9675428Y-11685857D02*
X9689714Y-11657286D01*
X9704000Y-11643000D01*
X9732571Y-11628714D01*
X9761143Y-11628714D01*
X9861143Y-11828714D02*
X9861143Y-11628714D01*
X9861143Y-11528714D02*
X9846857Y-11543000D01*
X9861143Y-11557286D01*
X9875428Y-11543000D01*
X9861143Y-11528714D01*
X9861143Y-11557286D01*
X10046857Y-11828714D02*
X10018286Y-11814429D01*
X10004000Y-11785857D01*
X10004000Y-11528714D01*
X10204000Y-11828714D02*
X10175428Y-11814429D01*
X10161143Y-11785857D01*
X10161143Y-11528714D01*
X10546857Y-11828714D02*
X10546857Y-11528714D01*
X10646857Y-11743000D01*
X10746857Y-11528714D01*
X10746857Y-11828714D01*
X11018286Y-11828714D02*
X11018286Y-11671571D01*
X11004000Y-11643000D01*
X10975428Y-11628714D01*
X10918286Y-11628714D01*
X10889714Y-11643000D01*
X11018286Y-11814429D02*
X10989714Y-11828714D01*
X10918286Y-11828714D01*
X10889714Y-11814429D01*
X10875428Y-11785857D01*
X10875428Y-11757286D01*
X10889714Y-11728714D01*
X10918286Y-11714429D01*
X10989714Y-11714429D01*
X11018286Y-11700143D01*
X11161143Y-11628714D02*
X11161143Y-11928714D01*
X11161143Y-11643000D02*
X11189714Y-11628714D01*
X11246857Y-11628714D01*
X11275428Y-11643000D01*
X11289714Y-11657286D01*
X11304000Y-11685857D01*
X11304000Y-11771571D01*
X11289714Y-11800143D01*
X11275428Y-11814429D01*
X11246857Y-11828714D01*
X11189714Y-11828714D01*
X11161143Y-11814429D01*
X11432571Y-11800143D02*
X11446857Y-11814429D01*
X11432571Y-11828714D01*
X11418286Y-11814429D01*
X11432571Y-11800143D01*
X11432571Y-11828714D01*
X11432571Y-11643000D02*
X11446857Y-11657286D01*
X11432571Y-11671571D01*
X11418286Y-11657286D01*
X11432571Y-11643000D01*
X11432571Y-11671571D01*
X9069000Y-12313000D02*
X9089000Y-12333000D01*
X9089000Y-12313000D02*
X9069000Y-12333000D01*
X9432571Y-12158714D02*
X9461143Y-12158714D01*
X9489714Y-12173000D01*
X9504000Y-12187286D01*
X9518286Y-12215857D01*
X9532571Y-12273000D01*
X9532571Y-12344429D01*
X9518286Y-12401571D01*
X9504000Y-12430143D01*
X9489714Y-12444429D01*
X9461143Y-12458714D01*
X9432571Y-12458714D01*
X9404000Y-12444429D01*
X9389714Y-12430143D01*
X9375428Y-12401571D01*
X9361143Y-12344429D01*
X9361143Y-12273000D01*
X9375428Y-12215857D01*
X9389714Y-12187286D01*
X9404000Y-12173000D01*
X9432571Y-12158714D01*
X9661143Y-12430143D02*
X9675428Y-12444429D01*
X9661143Y-12458714D01*
X9646857Y-12444429D01*
X9661143Y-12430143D01*
X9661143Y-12458714D01*
X9789714Y-12187286D02*
X9804000Y-12173000D01*
X9832571Y-12158714D01*
X9904000Y-12158714D01*
X9932571Y-12173000D01*
X9946857Y-12187286D01*
X9961143Y-12215857D01*
X9961143Y-12244429D01*
X9946857Y-12287286D01*
X9775428Y-12458714D01*
X9961143Y-12458714D01*
X10146857Y-12158714D02*
X10175428Y-12158714D01*
X10204000Y-12173000D01*
X10218286Y-12187286D01*
X10232571Y-12215857D01*
X10246857Y-12273000D01*
X10246857Y-12344429D01*
X10232571Y-12401571D01*
X10218286Y-12430143D01*
X10204000Y-12444429D01*
X10175428Y-12458714D01*
X10146857Y-12458714D01*
X10118286Y-12444429D01*
X10104000Y-12430143D01*
X10089714Y-12401571D01*
X10075428Y-12344429D01*
X10075428Y-12273000D01*
X10089714Y-12215857D01*
X10104000Y-12187286D01*
X10118286Y-12173000D01*
X10146857Y-12158714D01*
X10432571Y-12158714D02*
X10461143Y-12158714D01*
X10489714Y-12173000D01*
X10504000Y-12187286D01*
X10518286Y-12215857D01*
X10532571Y-12273000D01*
X10532571Y-12344429D01*
X10518286Y-12401571D01*
X10504000Y-12430143D01*
X10489714Y-12444429D01*
X10461143Y-12458714D01*
X10432571Y-12458714D01*
X10404000Y-12444429D01*
X10389714Y-12430143D01*
X10375428Y-12401571D01*
X10361143Y-12344429D01*
X10361143Y-12273000D01*
X10375428Y-12215857D01*
X10389714Y-12187286D01*
X10404000Y-12173000D01*
X10432571Y-12158714D01*
X10661143Y-12458714D02*
X10661143Y-12258714D01*
X10661143Y-12287286D02*
X10675428Y-12273000D01*
X10704000Y-12258714D01*
X10746857Y-12258714D01*
X10775428Y-12273000D01*
X10789714Y-12301571D01*
X10789714Y-12458714D01*
X10789714Y-12301571D02*
X10804000Y-12273000D01*
X10832571Y-12258714D01*
X10875428Y-12258714D01*
X10904000Y-12273000D01*
X10918286Y-12301571D01*
X10918286Y-12458714D01*
X11061143Y-12458714D02*
X11061143Y-12258714D01*
X11061143Y-12287286D02*
X11075428Y-12273000D01*
X11104000Y-12258714D01*
X11146857Y-12258714D01*
X11175428Y-12273000D01*
X11189714Y-12301571D01*
X11189714Y-12458714D01*
X11189714Y-12301571D02*
X11204000Y-12273000D01*
X11232571Y-12258714D01*
X11275428Y-12258714D01*
X11304000Y-12273000D01*
X11318286Y-12301571D01*
X11318286Y-12458714D01*
X11904000Y-12144429D02*
X11646857Y-12530143D01*
X12289714Y-12158714D02*
X12318286Y-12158714D01*
X12346857Y-12173000D01*
X12361143Y-12187286D01*
X12375428Y-12215857D01*
X12389714Y-12273000D01*
X12389714Y-12344429D01*
X12375428Y-12401571D01*
X12361143Y-12430143D01*
X12346857Y-12444429D01*
X12318286Y-12458714D01*
X12289714Y-12458714D01*
X12261143Y-12444429D01*
X12246857Y-12430143D01*
X12232571Y-12401571D01*
X12218286Y-12344429D01*
X12218286Y-12273000D01*
X12232571Y-12215857D01*
X12246857Y-12187286D01*
X12261143Y-12173000D01*
X12289714Y-12158714D01*
X12518286Y-12430143D02*
X12532571Y-12444429D01*
X12518286Y-12458714D01*
X12504000Y-12444429D01*
X12518286Y-12430143D01*
X12518286Y-12458714D01*
X12718286Y-12158714D02*
X12746857Y-12158714D01*
X12775428Y-12173000D01*
X12789714Y-12187286D01*
X12804000Y-12215857D01*
X12818286Y-12273000D01*
X12818286Y-12344429D01*
X12804000Y-12401571D01*
X12789714Y-12430143D01*
X12775428Y-12444429D01*
X12746857Y-12458714D01*
X12718286Y-12458714D01*
X12689714Y-12444429D01*
X12675428Y-12430143D01*
X12661143Y-12401571D01*
X12646857Y-12344429D01*
X12646857Y-12273000D01*
X12661143Y-12215857D01*
X12675428Y-12187286D01*
X12689714Y-12173000D01*
X12718286Y-12158714D01*
X13004000Y-12158714D02*
X13032571Y-12158714D01*
X13061143Y-12173000D01*
X13075428Y-12187286D01*
X13089714Y-12215857D01*
X13104000Y-12273000D01*
X13104000Y-12344429D01*
X13089714Y-12401571D01*
X13075428Y-12430143D01*
X13061143Y-12444429D01*
X13032571Y-12458714D01*
X13004000Y-12458714D01*
X12975428Y-12444429D01*
X12961143Y-12430143D01*
X12946857Y-12401571D01*
X12932571Y-12344429D01*
X12932571Y-12273000D01*
X12946857Y-12215857D01*
X12961143Y-12187286D01*
X12975428Y-12173000D01*
X13004000Y-12158714D01*
X13204000Y-12158714D02*
X13404000Y-12158714D01*
X13275428Y-12458714D01*
X13532571Y-12458714D02*
X13589714Y-12458714D01*
X13618286Y-12444429D01*
X13632571Y-12430143D01*
X13661143Y-12387286D01*
X13675428Y-12330143D01*
X13675428Y-12215857D01*
X13661143Y-12187286D01*
X13646857Y-12173000D01*
X13618286Y-12158714D01*
X13561143Y-12158714D01*
X13532571Y-12173000D01*
X13518286Y-12187286D01*
X13504000Y-12215857D01*
X13504000Y-12287286D01*
X13518286Y-12315857D01*
X13532571Y-12330143D01*
X13561143Y-12344429D01*
X13618286Y-12344429D01*
X13646857Y-12330143D01*
X13661143Y-12315857D01*
X13675428Y-12287286D01*
X13789714Y-12158714D02*
X13789714Y-12215857D01*
X13904000Y-12158714D02*
X13904000Y-12215857D01*
X14346857Y-12573000D02*
X14332571Y-12558714D01*
X14304000Y-12515857D01*
X14289714Y-12487286D01*
X14275428Y-12444429D01*
X14261143Y-12373000D01*
X14261143Y-12315857D01*
X14275428Y-12244429D01*
X14289714Y-12201571D01*
X14304000Y-12173000D01*
X14332571Y-12130143D01*
X14346857Y-12115857D01*
X14589714Y-12158714D02*
X14532571Y-12158714D01*
X14504000Y-12173000D01*
X14489714Y-12187286D01*
X14461143Y-12230143D01*
X14446857Y-12287286D01*
X14446857Y-12401571D01*
X14461143Y-12430143D01*
X14475428Y-12444429D01*
X14504000Y-12458714D01*
X14561143Y-12458714D01*
X14589714Y-12444429D01*
X14604000Y-12430143D01*
X14618286Y-12401571D01*
X14618286Y-12330143D01*
X14604000Y-12301571D01*
X14589714Y-12287286D01*
X14561143Y-12273000D01*
X14504000Y-12273000D01*
X14475428Y-12287286D01*
X14461143Y-12301571D01*
X14446857Y-12330143D01*
X14975428Y-12458714D02*
X14975428Y-12158714D01*
X15104000Y-12458714D02*
X15104000Y-12301571D01*
X15089714Y-12273000D01*
X15061143Y-12258714D01*
X15018286Y-12258714D01*
X14989714Y-12273000D01*
X14975428Y-12287286D01*
X15289714Y-12458714D02*
X15261143Y-12444429D01*
X15246857Y-12430143D01*
X15232571Y-12401571D01*
X15232571Y-12315857D01*
X15246857Y-12287286D01*
X15261143Y-12273000D01*
X15289714Y-12258714D01*
X15332571Y-12258714D01*
X15361143Y-12273000D01*
X15375428Y-12287286D01*
X15389714Y-12315857D01*
X15389714Y-12401571D01*
X15375428Y-12430143D01*
X15361143Y-12444429D01*
X15332571Y-12458714D01*
X15289714Y-12458714D01*
X15561143Y-12458714D02*
X15532571Y-12444429D01*
X15518286Y-12415857D01*
X15518286Y-12158714D01*
X15789714Y-12444429D02*
X15761143Y-12458714D01*
X15704000Y-12458714D01*
X15675428Y-12444429D01*
X15661143Y-12415857D01*
X15661143Y-12301571D01*
X15675428Y-12273000D01*
X15704000Y-12258714D01*
X15761143Y-12258714D01*
X15789714Y-12273000D01*
X15804000Y-12301571D01*
X15804000Y-12330143D01*
X15661143Y-12358714D01*
X15918286Y-12444429D02*
X15946857Y-12458714D01*
X16004000Y-12458714D01*
X16032571Y-12444429D01*
X16046857Y-12415857D01*
X16046857Y-12401571D01*
X16032571Y-12373000D01*
X16004000Y-12358714D01*
X15961143Y-12358714D01*
X15932571Y-12344429D01*
X15918286Y-12315857D01*
X15918286Y-12301571D01*
X15932571Y-12273000D01*
X15961143Y-12258714D01*
X16004000Y-12258714D01*
X16032571Y-12273000D01*
X16146857Y-12573000D02*
X16161143Y-12558714D01*
X16189714Y-12515857D01*
X16204000Y-12487286D01*
X16218286Y-12444429D01*
X16232571Y-12373000D01*
X16232571Y-12315857D01*
X16218286Y-12244429D01*
X16204000Y-12201571D01*
X16189714Y-12173000D01*
X16161143Y-12130143D01*
X16146857Y-12115857D01*
X9089000Y-12719000D02*
G75*
G03*
X9089000Y-12719000I-20320J0D01*
G01*
X9432571Y-12554714D02*
X9461143Y-12554714D01*
X9489714Y-12569000D01*
X9504000Y-12583286D01*
X9518286Y-12611857D01*
X9532571Y-12669000D01*
X9532571Y-12740429D01*
X9518286Y-12797571D01*
X9504000Y-12826143D01*
X9489714Y-12840429D01*
X9461143Y-12854714D01*
X9432571Y-12854714D01*
X9404000Y-12840429D01*
X9389714Y-12826143D01*
X9375428Y-12797571D01*
X9361143Y-12740429D01*
X9361143Y-12669000D01*
X9375428Y-12611857D01*
X9389714Y-12583286D01*
X9404000Y-12569000D01*
X9432571Y-12554714D01*
X9661143Y-12826143D02*
X9675428Y-12840429D01*
X9661143Y-12854714D01*
X9646857Y-12840429D01*
X9661143Y-12826143D01*
X9661143Y-12854714D01*
X9932571Y-12654714D02*
X9932571Y-12854714D01*
X9861143Y-12540429D02*
X9789714Y-12754714D01*
X9975428Y-12754714D01*
X10146857Y-12554714D02*
X10175428Y-12554714D01*
X10204000Y-12569000D01*
X10218286Y-12583286D01*
X10232571Y-12611857D01*
X10246857Y-12669000D01*
X10246857Y-12740429D01*
X10232571Y-12797571D01*
X10218286Y-12826143D01*
X10204000Y-12840429D01*
X10175428Y-12854714D01*
X10146857Y-12854714D01*
X10118286Y-12840429D01*
X10104000Y-12826143D01*
X10089714Y-12797571D01*
X10075428Y-12740429D01*
X10075428Y-12669000D01*
X10089714Y-12611857D01*
X10104000Y-12583286D01*
X10118286Y-12569000D01*
X10146857Y-12554714D01*
X10504000Y-12554714D02*
X10446857Y-12554714D01*
X10418286Y-12569000D01*
X10404000Y-12583286D01*
X10375428Y-12626143D01*
X10361143Y-12683286D01*
X10361143Y-12797571D01*
X10375428Y-12826143D01*
X10389714Y-12840429D01*
X10418286Y-12854714D01*
X10475428Y-12854714D01*
X10504000Y-12840429D01*
X10518286Y-12826143D01*
X10532571Y-12797571D01*
X10532571Y-12726143D01*
X10518286Y-12697571D01*
X10504000Y-12683286D01*
X10475428Y-12669000D01*
X10418286Y-12669000D01*
X10389714Y-12683286D01*
X10375428Y-12697571D01*
X10361143Y-12726143D01*
X10661143Y-12854714D02*
X10661143Y-12654714D01*
X10661143Y-12683286D02*
X10675428Y-12669000D01*
X10704000Y-12654714D01*
X10746857Y-12654714D01*
X10775428Y-12669000D01*
X10789714Y-12697571D01*
X10789714Y-12854714D01*
X10789714Y-12697571D02*
X10804000Y-12669000D01*
X10832571Y-12654714D01*
X10875428Y-12654714D01*
X10904000Y-12669000D01*
X10918286Y-12697571D01*
X10918286Y-12854714D01*
X11061143Y-12854714D02*
X11061143Y-12654714D01*
X11061143Y-12683286D02*
X11075428Y-12669000D01*
X11104000Y-12654714D01*
X11146857Y-12654714D01*
X11175428Y-12669000D01*
X11189714Y-12697571D01*
X11189714Y-12854714D01*
X11189714Y-12697571D02*
X11204000Y-12669000D01*
X11232571Y-12654714D01*
X11275428Y-12654714D01*
X11304000Y-12669000D01*
X11318286Y-12697571D01*
X11318286Y-12854714D01*
X11904000Y-12540429D02*
X11646857Y-12926143D01*
X12289714Y-12554714D02*
X12318286Y-12554714D01*
X12346857Y-12569000D01*
X12361143Y-12583286D01*
X12375428Y-12611857D01*
X12389714Y-12669000D01*
X12389714Y-12740429D01*
X12375428Y-12797571D01*
X12361143Y-12826143D01*
X12346857Y-12840429D01*
X12318286Y-12854714D01*
X12289714Y-12854714D01*
X12261143Y-12840429D01*
X12246857Y-12826143D01*
X12232571Y-12797571D01*
X12218286Y-12740429D01*
X12218286Y-12669000D01*
X12232571Y-12611857D01*
X12246857Y-12583286D01*
X12261143Y-12569000D01*
X12289714Y-12554714D01*
X12518286Y-12826143D02*
X12532571Y-12840429D01*
X12518286Y-12854714D01*
X12504000Y-12840429D01*
X12518286Y-12826143D01*
X12518286Y-12854714D01*
X12718286Y-12554714D02*
X12746857Y-12554714D01*
X12775428Y-12569000D01*
X12789714Y-12583286D01*
X12804000Y-12611857D01*
X12818286Y-12669000D01*
X12818286Y-12740429D01*
X12804000Y-12797571D01*
X12789714Y-12826143D01*
X12775428Y-12840429D01*
X12746857Y-12854714D01*
X12718286Y-12854714D01*
X12689714Y-12840429D01*
X12675428Y-12826143D01*
X12661143Y-12797571D01*
X12646857Y-12740429D01*
X12646857Y-12669000D01*
X12661143Y-12611857D01*
X12675428Y-12583286D01*
X12689714Y-12569000D01*
X12718286Y-12554714D01*
X13104000Y-12854714D02*
X12932571Y-12854714D01*
X13018286Y-12854714D02*
X13018286Y-12554714D01*
X12989714Y-12597571D01*
X12961143Y-12626143D01*
X12932571Y-12640429D01*
X13361143Y-12554714D02*
X13304000Y-12554714D01*
X13275428Y-12569000D01*
X13261143Y-12583286D01*
X13232571Y-12626143D01*
X13218286Y-12683286D01*
X13218286Y-12797571D01*
X13232571Y-12826143D01*
X13246857Y-12840429D01*
X13275428Y-12854714D01*
X13332571Y-12854714D01*
X13361143Y-12840429D01*
X13375428Y-12826143D01*
X13389714Y-12797571D01*
X13389714Y-12726143D01*
X13375428Y-12697571D01*
X13361143Y-12683286D01*
X13332571Y-12669000D01*
X13275428Y-12669000D01*
X13246857Y-12683286D01*
X13232571Y-12697571D01*
X13218286Y-12726143D01*
X13575428Y-12554714D02*
X13604000Y-12554714D01*
X13632571Y-12569000D01*
X13646857Y-12583286D01*
X13661143Y-12611857D01*
X13675428Y-12669000D01*
X13675428Y-12740429D01*
X13661143Y-12797571D01*
X13646857Y-12826143D01*
X13632571Y-12840429D01*
X13604000Y-12854714D01*
X13575428Y-12854714D01*
X13546857Y-12840429D01*
X13532571Y-12826143D01*
X13518286Y-12797571D01*
X13504000Y-12740429D01*
X13504000Y-12669000D01*
X13518286Y-12611857D01*
X13532571Y-12583286D01*
X13546857Y-12569000D01*
X13575428Y-12554714D01*
X13789714Y-12554714D02*
X13789714Y-12611857D01*
X13904000Y-12554714D02*
X13904000Y-12611857D01*
X14346857Y-12969000D02*
X14332571Y-12954714D01*
X14304000Y-12911857D01*
X14289714Y-12883286D01*
X14275428Y-12840429D01*
X14261143Y-12769000D01*
X14261143Y-12711857D01*
X14275428Y-12640429D01*
X14289714Y-12597571D01*
X14304000Y-12569000D01*
X14332571Y-12526143D01*
X14346857Y-12511857D01*
X14618286Y-12854714D02*
X14446857Y-12854714D01*
X14532571Y-12854714D02*
X14532571Y-12554714D01*
X14504000Y-12597571D01*
X14475428Y-12626143D01*
X14446857Y-12640429D01*
X14789714Y-12683286D02*
X14761143Y-12669000D01*
X14746857Y-12654714D01*
X14732571Y-12626143D01*
X14732571Y-12611857D01*
X14746857Y-12583286D01*
X14761143Y-12569000D01*
X14789714Y-12554714D01*
X14846857Y-12554714D01*
X14875428Y-12569000D01*
X14889714Y-12583286D01*
X14904000Y-12611857D01*
X14904000Y-12626143D01*
X14889714Y-12654714D01*
X14875428Y-12669000D01*
X14846857Y-12683286D01*
X14789714Y-12683286D01*
X14761143Y-12697571D01*
X14746857Y-12711857D01*
X14732571Y-12740429D01*
X14732571Y-12797571D01*
X14746857Y-12826143D01*
X14761143Y-12840429D01*
X14789714Y-12854714D01*
X14846857Y-12854714D01*
X14875428Y-12840429D01*
X14889714Y-12826143D01*
X14904000Y-12797571D01*
X14904000Y-12740429D01*
X14889714Y-12711857D01*
X14875428Y-12697571D01*
X14846857Y-12683286D01*
X15004000Y-12554714D02*
X15204000Y-12554714D01*
X15075428Y-12854714D01*
X15546857Y-12854714D02*
X15546857Y-12554714D01*
X15675428Y-12854714D02*
X15675428Y-12697571D01*
X15661143Y-12669000D01*
X15632571Y-12654714D01*
X15589714Y-12654714D01*
X15561143Y-12669000D01*
X15546857Y-12683286D01*
X15861143Y-12854714D02*
X15832571Y-12840429D01*
X15818286Y-12826143D01*
X15804000Y-12797571D01*
X15804000Y-12711857D01*
X15818286Y-12683286D01*
X15832571Y-12669000D01*
X15861143Y-12654714D01*
X15904000Y-12654714D01*
X15932571Y-12669000D01*
X15946857Y-12683286D01*
X15961143Y-12711857D01*
X15961143Y-12797571D01*
X15946857Y-12826143D01*
X15932571Y-12840429D01*
X15904000Y-12854714D01*
X15861143Y-12854714D01*
X16132571Y-12854714D02*
X16104000Y-12840429D01*
X16089714Y-12811857D01*
X16089714Y-12554714D01*
X16361143Y-12840429D02*
X16332571Y-12854714D01*
X16275428Y-12854714D01*
X16246857Y-12840429D01*
X16232571Y-12811857D01*
X16232571Y-12697571D01*
X16246857Y-12669000D01*
X16275428Y-12654714D01*
X16332571Y-12654714D01*
X16361143Y-12669000D01*
X16375428Y-12697571D01*
X16375428Y-12726143D01*
X16232571Y-12754714D01*
X16489714Y-12840429D02*
X16518286Y-12854714D01*
X16575428Y-12854714D01*
X16604000Y-12840429D01*
X16618286Y-12811857D01*
X16618286Y-12797571D01*
X16604000Y-12769000D01*
X16575428Y-12754714D01*
X16532571Y-12754714D01*
X16504000Y-12740429D01*
X16489714Y-12711857D01*
X16489714Y-12697571D01*
X16504000Y-12669000D01*
X16532571Y-12654714D01*
X16575428Y-12654714D01*
X16604000Y-12669000D01*
X16718286Y-12969000D02*
X16732571Y-12954714D01*
X16761143Y-12911857D01*
X16775428Y-12883286D01*
X16789714Y-12840429D01*
X16804000Y-12769000D01*
X16804000Y-12711857D01*
X16789714Y-12640429D01*
X16775428Y-12597571D01*
X16761143Y-12569000D01*
X16732571Y-12526143D01*
X16718286Y-12511857D01*
X9059000Y-13085000D02*
X9059000Y-13145000D01*
X9029000Y-13115000D02*
X9089000Y-13115000D01*
X9432571Y-12950714D02*
X9461143Y-12950714D01*
X9489714Y-12965000D01*
X9504000Y-12979286D01*
X9518286Y-13007857D01*
X9532571Y-13065000D01*
X9532571Y-13136429D01*
X9518286Y-13193571D01*
X9504000Y-13222143D01*
X9489714Y-13236429D01*
X9461143Y-13250714D01*
X9432571Y-13250714D01*
X9404000Y-13236429D01*
X9389714Y-13222143D01*
X9375428Y-13193571D01*
X9361143Y-13136429D01*
X9361143Y-13065000D01*
X9375428Y-13007857D01*
X9389714Y-12979286D01*
X9404000Y-12965000D01*
X9432571Y-12950714D01*
X9661143Y-13222143D02*
X9675428Y-13236429D01*
X9661143Y-13250714D01*
X9646857Y-13236429D01*
X9661143Y-13222143D01*
X9661143Y-13250714D01*
X9932571Y-12950714D02*
X9875428Y-12950714D01*
X9846857Y-12965000D01*
X9832571Y-12979286D01*
X9804000Y-13022143D01*
X9789714Y-13079286D01*
X9789714Y-13193571D01*
X9804000Y-13222143D01*
X9818286Y-13236429D01*
X9846857Y-13250714D01*
X9904000Y-13250714D01*
X9932571Y-13236429D01*
X9946857Y-13222143D01*
X9961143Y-13193571D01*
X9961143Y-13122143D01*
X9946857Y-13093571D01*
X9932571Y-13079286D01*
X9904000Y-13065000D01*
X9846857Y-13065000D01*
X9818286Y-13079286D01*
X9804000Y-13093571D01*
X9789714Y-13122143D01*
X10146857Y-12950714D02*
X10175428Y-12950714D01*
X10204000Y-12965000D01*
X10218286Y-12979286D01*
X10232571Y-13007857D01*
X10246857Y-13065000D01*
X10246857Y-13136429D01*
X10232571Y-13193571D01*
X10218286Y-13222143D01*
X10204000Y-13236429D01*
X10175428Y-13250714D01*
X10146857Y-13250714D01*
X10118286Y-13236429D01*
X10104000Y-13222143D01*
X10089714Y-13193571D01*
X10075428Y-13136429D01*
X10075428Y-13065000D01*
X10089714Y-13007857D01*
X10104000Y-12979286D01*
X10118286Y-12965000D01*
X10146857Y-12950714D01*
X10432571Y-12950714D02*
X10461143Y-12950714D01*
X10489714Y-12965000D01*
X10504000Y-12979286D01*
X10518286Y-13007857D01*
X10532571Y-13065000D01*
X10532571Y-13136429D01*
X10518286Y-13193571D01*
X10504000Y-13222143D01*
X10489714Y-13236429D01*
X10461143Y-13250714D01*
X10432571Y-13250714D01*
X10404000Y-13236429D01*
X10389714Y-13222143D01*
X10375428Y-13193571D01*
X10361143Y-13136429D01*
X10361143Y-13065000D01*
X10375428Y-13007857D01*
X10389714Y-12979286D01*
X10404000Y-12965000D01*
X10432571Y-12950714D01*
X10661143Y-13250714D02*
X10661143Y-13050714D01*
X10661143Y-13079286D02*
X10675428Y-13065000D01*
X10704000Y-13050714D01*
X10746857Y-13050714D01*
X10775428Y-13065000D01*
X10789714Y-13093571D01*
X10789714Y-13250714D01*
X10789714Y-13093571D02*
X10804000Y-13065000D01*
X10832571Y-13050714D01*
X10875428Y-13050714D01*
X10904000Y-13065000D01*
X10918286Y-13093571D01*
X10918286Y-13250714D01*
X11061143Y-13250714D02*
X11061143Y-13050714D01*
X11061143Y-13079286D02*
X11075428Y-13065000D01*
X11104000Y-13050714D01*
X11146857Y-13050714D01*
X11175428Y-13065000D01*
X11189714Y-13093571D01*
X11189714Y-13250714D01*
X11189714Y-13093571D02*
X11204000Y-13065000D01*
X11232571Y-13050714D01*
X11275428Y-13050714D01*
X11304000Y-13065000D01*
X11318286Y-13093571D01*
X11318286Y-13250714D01*
X11904000Y-12936429D02*
X11646857Y-13322143D01*
X12289714Y-12950714D02*
X12318286Y-12950714D01*
X12346857Y-12965000D01*
X12361143Y-12979286D01*
X12375428Y-13007857D01*
X12389714Y-13065000D01*
X12389714Y-13136429D01*
X12375428Y-13193571D01*
X12361143Y-13222143D01*
X12346857Y-13236429D01*
X12318286Y-13250714D01*
X12289714Y-13250714D01*
X12261143Y-13236429D01*
X12246857Y-13222143D01*
X12232571Y-13193571D01*
X12218286Y-13136429D01*
X12218286Y-13065000D01*
X12232571Y-13007857D01*
X12246857Y-12979286D01*
X12261143Y-12965000D01*
X12289714Y-12950714D01*
X12518286Y-13222143D02*
X12532571Y-13236429D01*
X12518286Y-13250714D01*
X12504000Y-13236429D01*
X12518286Y-13222143D01*
X12518286Y-13250714D01*
X12718286Y-12950714D02*
X12746857Y-12950714D01*
X12775428Y-12965000D01*
X12789714Y-12979286D01*
X12804000Y-13007857D01*
X12818286Y-13065000D01*
X12818286Y-13136429D01*
X12804000Y-13193571D01*
X12789714Y-13222143D01*
X12775428Y-13236429D01*
X12746857Y-13250714D01*
X12718286Y-13250714D01*
X12689714Y-13236429D01*
X12675428Y-13222143D01*
X12661143Y-13193571D01*
X12646857Y-13136429D01*
X12646857Y-13065000D01*
X12661143Y-13007857D01*
X12675428Y-12979286D01*
X12689714Y-12965000D01*
X12718286Y-12950714D01*
X12932571Y-12979286D02*
X12946857Y-12965000D01*
X12975428Y-12950714D01*
X13046857Y-12950714D01*
X13075428Y-12965000D01*
X13089714Y-12979286D01*
X13104000Y-13007857D01*
X13104000Y-13036429D01*
X13089714Y-13079286D01*
X12918286Y-13250714D01*
X13104000Y-13250714D01*
X13204000Y-12950714D02*
X13389714Y-12950714D01*
X13289714Y-13065000D01*
X13332571Y-13065000D01*
X13361143Y-13079286D01*
X13375428Y-13093571D01*
X13389714Y-13122143D01*
X13389714Y-13193571D01*
X13375428Y-13222143D01*
X13361143Y-13236429D01*
X13332571Y-13250714D01*
X13246857Y-13250714D01*
X13218286Y-13236429D01*
X13204000Y-13222143D01*
X13646857Y-12950714D02*
X13589714Y-12950714D01*
X13561143Y-12965000D01*
X13546857Y-12979286D01*
X13518286Y-13022143D01*
X13504000Y-13079286D01*
X13504000Y-13193571D01*
X13518286Y-13222143D01*
X13532571Y-13236429D01*
X13561143Y-13250714D01*
X13618286Y-13250714D01*
X13646857Y-13236429D01*
X13661143Y-13222143D01*
X13675428Y-13193571D01*
X13675428Y-13122143D01*
X13661143Y-13093571D01*
X13646857Y-13079286D01*
X13618286Y-13065000D01*
X13561143Y-13065000D01*
X13532571Y-13079286D01*
X13518286Y-13093571D01*
X13504000Y-13122143D01*
X13789714Y-12950714D02*
X13789714Y-13007857D01*
X13904000Y-12950714D02*
X13904000Y-13007857D01*
X14346857Y-13365000D02*
X14332571Y-13350714D01*
X14304000Y-13307857D01*
X14289714Y-13279286D01*
X14275428Y-13236429D01*
X14261143Y-13165000D01*
X14261143Y-13107857D01*
X14275428Y-13036429D01*
X14289714Y-12993571D01*
X14304000Y-12965000D01*
X14332571Y-12922143D01*
X14346857Y-12907857D01*
X14518286Y-12950714D02*
X14546857Y-12950714D01*
X14575428Y-12965000D01*
X14589714Y-12979286D01*
X14604000Y-13007857D01*
X14618286Y-13065000D01*
X14618286Y-13136429D01*
X14604000Y-13193571D01*
X14589714Y-13222143D01*
X14575428Y-13236429D01*
X14546857Y-13250714D01*
X14518286Y-13250714D01*
X14489714Y-13236429D01*
X14475428Y-13222143D01*
X14461143Y-13193571D01*
X14446857Y-13136429D01*
X14446857Y-13065000D01*
X14461143Y-13007857D01*
X14475428Y-12979286D01*
X14489714Y-12965000D01*
X14518286Y-12950714D01*
X14975428Y-13250714D02*
X14975428Y-12950714D01*
X15104000Y-13250714D02*
X15104000Y-13093571D01*
X15089714Y-13065000D01*
X15061143Y-13050714D01*
X15018286Y-13050714D01*
X14989714Y-13065000D01*
X14975428Y-13079286D01*
X15289714Y-13250714D02*
X15261143Y-13236429D01*
X15246857Y-13222143D01*
X15232571Y-13193571D01*
X15232571Y-13107857D01*
X15246857Y-13079286D01*
X15261143Y-13065000D01*
X15289714Y-13050714D01*
X15332571Y-13050714D01*
X15361143Y-13065000D01*
X15375428Y-13079286D01*
X15389714Y-13107857D01*
X15389714Y-13193571D01*
X15375428Y-13222143D01*
X15361143Y-13236429D01*
X15332571Y-13250714D01*
X15289714Y-13250714D01*
X15561143Y-13250714D02*
X15532571Y-13236429D01*
X15518286Y-13207857D01*
X15518286Y-12950714D01*
X15789714Y-13236429D02*
X15761143Y-13250714D01*
X15704000Y-13250714D01*
X15675428Y-13236429D01*
X15661143Y-13207857D01*
X15661143Y-13093571D01*
X15675428Y-13065000D01*
X15704000Y-13050714D01*
X15761143Y-13050714D01*
X15789714Y-13065000D01*
X15804000Y-13093571D01*
X15804000Y-13122143D01*
X15661143Y-13150714D01*
X15918286Y-13236429D02*
X15946857Y-13250714D01*
X16004000Y-13250714D01*
X16032571Y-13236429D01*
X16046857Y-13207857D01*
X16046857Y-13193571D01*
X16032571Y-13165000D01*
X16004000Y-13150714D01*
X15961143Y-13150714D01*
X15932571Y-13136429D01*
X15918286Y-13107857D01*
X15918286Y-13093571D01*
X15932571Y-13065000D01*
X15961143Y-13050714D01*
X16004000Y-13050714D01*
X16032571Y-13065000D01*
X16404000Y-13136429D02*
X16632571Y-13136429D01*
X16518286Y-13250714D02*
X16518286Y-13022143D01*
X17132571Y-13050714D02*
X17132571Y-13250714D01*
X17061143Y-12936429D02*
X16989714Y-13150714D01*
X17175428Y-13150714D01*
X17504000Y-13236429D02*
X17532571Y-13250714D01*
X17589714Y-13250714D01*
X17618286Y-13236429D01*
X17632571Y-13207857D01*
X17632571Y-13193571D01*
X17618286Y-13165000D01*
X17589714Y-13150714D01*
X17546857Y-13150714D01*
X17518286Y-13136429D01*
X17504000Y-13107857D01*
X17504000Y-13093571D01*
X17518286Y-13065000D01*
X17546857Y-13050714D01*
X17589714Y-13050714D01*
X17618286Y-13065000D01*
X17804000Y-13250714D02*
X17775428Y-13236429D01*
X17761143Y-13207857D01*
X17761143Y-12950714D01*
X17961143Y-13250714D02*
X17932571Y-13236429D01*
X17918286Y-13222143D01*
X17904000Y-13193571D01*
X17904000Y-13107857D01*
X17918286Y-13079286D01*
X17932571Y-13065000D01*
X17961143Y-13050714D01*
X18004000Y-13050714D01*
X18032571Y-13065000D01*
X18046857Y-13079286D01*
X18061143Y-13107857D01*
X18061143Y-13193571D01*
X18046857Y-13222143D01*
X18032571Y-13236429D01*
X18004000Y-13250714D01*
X17961143Y-13250714D01*
X18146857Y-13050714D02*
X18261143Y-13050714D01*
X18189714Y-12950714D02*
X18189714Y-13207857D01*
X18204000Y-13236429D01*
X18232571Y-13250714D01*
X18261143Y-13250714D01*
X18346857Y-13236429D02*
X18375428Y-13250714D01*
X18432571Y-13250714D01*
X18461143Y-13236429D01*
X18475428Y-13207857D01*
X18475428Y-13193571D01*
X18461143Y-13165000D01*
X18432571Y-13150714D01*
X18389714Y-13150714D01*
X18361143Y-13136429D01*
X18346857Y-13107857D01*
X18346857Y-13093571D01*
X18361143Y-13065000D01*
X18389714Y-13050714D01*
X18432571Y-13050714D01*
X18461143Y-13065000D01*
X18575428Y-13365000D02*
X18589714Y-13350714D01*
X18618286Y-13307857D01*
X18632571Y-13279286D01*
X18646857Y-13236429D01*
X18661143Y-13165000D01*
X18661143Y-13107857D01*
X18646857Y-13036429D01*
X18632571Y-12993571D01*
X18618286Y-12965000D01*
X18589714Y-12922143D01*
X18575428Y-12907857D01*
X9074356Y-13546356D02*
X9074356Y-13475644D01*
X9003644Y-13475644D01*
X9003644Y-13546356D01*
X9074356Y-13546356D01*
X9532571Y-13646714D02*
X9361143Y-13646714D01*
X9446857Y-13646714D02*
X9446857Y-13346714D01*
X9418286Y-13389571D01*
X9389714Y-13418143D01*
X9361143Y-13432429D01*
X9661143Y-13618143D02*
X9675428Y-13632429D01*
X9661143Y-13646714D01*
X9646857Y-13632429D01*
X9661143Y-13618143D01*
X9661143Y-13646714D01*
X9861143Y-13346714D02*
X9889714Y-13346714D01*
X9918286Y-13361000D01*
X9932571Y-13375286D01*
X9946857Y-13403857D01*
X9961143Y-13461000D01*
X9961143Y-13532429D01*
X9946857Y-13589571D01*
X9932571Y-13618143D01*
X9918286Y-13632429D01*
X9889714Y-13646714D01*
X9861143Y-13646714D01*
X9832571Y-13632429D01*
X9818286Y-13618143D01*
X9804000Y-13589571D01*
X9789714Y-13532429D01*
X9789714Y-13461000D01*
X9804000Y-13403857D01*
X9818286Y-13375286D01*
X9832571Y-13361000D01*
X9861143Y-13346714D01*
X10146857Y-13346714D02*
X10175428Y-13346714D01*
X10204000Y-13361000D01*
X10218286Y-13375286D01*
X10232571Y-13403857D01*
X10246857Y-13461000D01*
X10246857Y-13532429D01*
X10232571Y-13589571D01*
X10218286Y-13618143D01*
X10204000Y-13632429D01*
X10175428Y-13646714D01*
X10146857Y-13646714D01*
X10118286Y-13632429D01*
X10104000Y-13618143D01*
X10089714Y-13589571D01*
X10075428Y-13532429D01*
X10075428Y-13461000D01*
X10089714Y-13403857D01*
X10104000Y-13375286D01*
X10118286Y-13361000D01*
X10146857Y-13346714D01*
X10432571Y-13346714D02*
X10461143Y-13346714D01*
X10489714Y-13361000D01*
X10504000Y-13375286D01*
X10518286Y-13403857D01*
X10532571Y-13461000D01*
X10532571Y-13532429D01*
X10518286Y-13589571D01*
X10504000Y-13618143D01*
X10489714Y-13632429D01*
X10461143Y-13646714D01*
X10432571Y-13646714D01*
X10404000Y-13632429D01*
X10389714Y-13618143D01*
X10375428Y-13589571D01*
X10361143Y-13532429D01*
X10361143Y-13461000D01*
X10375428Y-13403857D01*
X10389714Y-13375286D01*
X10404000Y-13361000D01*
X10432571Y-13346714D01*
X10661143Y-13646714D02*
X10661143Y-13446714D01*
X10661143Y-13475286D02*
X10675428Y-13461000D01*
X10704000Y-13446714D01*
X10746857Y-13446714D01*
X10775428Y-13461000D01*
X10789714Y-13489571D01*
X10789714Y-13646714D01*
X10789714Y-13489571D02*
X10804000Y-13461000D01*
X10832571Y-13446714D01*
X10875428Y-13446714D01*
X10904000Y-13461000D01*
X10918286Y-13489571D01*
X10918286Y-13646714D01*
X11061143Y-13646714D02*
X11061143Y-13446714D01*
X11061143Y-13475286D02*
X11075428Y-13461000D01*
X11104000Y-13446714D01*
X11146857Y-13446714D01*
X11175428Y-13461000D01*
X11189714Y-13489571D01*
X11189714Y-13646714D01*
X11189714Y-13489571D02*
X11204000Y-13461000D01*
X11232571Y-13446714D01*
X11275428Y-13446714D01*
X11304000Y-13461000D01*
X11318286Y-13489571D01*
X11318286Y-13646714D01*
X11904000Y-13332429D02*
X11646857Y-13718143D01*
X12289714Y-13346714D02*
X12318286Y-13346714D01*
X12346857Y-13361000D01*
X12361143Y-13375286D01*
X12375428Y-13403857D01*
X12389714Y-13461000D01*
X12389714Y-13532429D01*
X12375428Y-13589571D01*
X12361143Y-13618143D01*
X12346857Y-13632429D01*
X12318286Y-13646714D01*
X12289714Y-13646714D01*
X12261143Y-13632429D01*
X12246857Y-13618143D01*
X12232571Y-13589571D01*
X12218286Y-13532429D01*
X12218286Y-13461000D01*
X12232571Y-13403857D01*
X12246857Y-13375286D01*
X12261143Y-13361000D01*
X12289714Y-13346714D01*
X12518286Y-13618143D02*
X12532571Y-13632429D01*
X12518286Y-13646714D01*
X12504000Y-13632429D01*
X12518286Y-13618143D01*
X12518286Y-13646714D01*
X12718286Y-13346714D02*
X12746857Y-13346714D01*
X12775428Y-13361000D01*
X12789714Y-13375286D01*
X12804000Y-13403857D01*
X12818286Y-13461000D01*
X12818286Y-13532429D01*
X12804000Y-13589571D01*
X12789714Y-13618143D01*
X12775428Y-13632429D01*
X12746857Y-13646714D01*
X12718286Y-13646714D01*
X12689714Y-13632429D01*
X12675428Y-13618143D01*
X12661143Y-13589571D01*
X12646857Y-13532429D01*
X12646857Y-13461000D01*
X12661143Y-13403857D01*
X12675428Y-13375286D01*
X12689714Y-13361000D01*
X12718286Y-13346714D01*
X12918286Y-13346714D02*
X13104000Y-13346714D01*
X13004000Y-13461000D01*
X13046857Y-13461000D01*
X13075428Y-13475286D01*
X13089714Y-13489571D01*
X13104000Y-13518143D01*
X13104000Y-13589571D01*
X13089714Y-13618143D01*
X13075428Y-13632429D01*
X13046857Y-13646714D01*
X12961143Y-13646714D01*
X12932571Y-13632429D01*
X12918286Y-13618143D01*
X13246857Y-13646714D02*
X13304000Y-13646714D01*
X13332571Y-13632429D01*
X13346857Y-13618143D01*
X13375428Y-13575286D01*
X13389714Y-13518143D01*
X13389714Y-13403857D01*
X13375428Y-13375286D01*
X13361143Y-13361000D01*
X13332571Y-13346714D01*
X13275428Y-13346714D01*
X13246857Y-13361000D01*
X13232571Y-13375286D01*
X13218286Y-13403857D01*
X13218286Y-13475286D01*
X13232571Y-13503857D01*
X13246857Y-13518143D01*
X13275428Y-13532429D01*
X13332571Y-13532429D01*
X13361143Y-13518143D01*
X13375428Y-13503857D01*
X13389714Y-13475286D01*
X13646857Y-13446714D02*
X13646857Y-13646714D01*
X13575428Y-13332429D02*
X13504000Y-13546714D01*
X13689714Y-13546714D01*
X13789714Y-13346714D02*
X13789714Y-13403857D01*
X13904000Y-13346714D02*
X13904000Y-13403857D01*
X14346857Y-13761000D02*
X14332571Y-13746714D01*
X14304000Y-13703857D01*
X14289714Y-13675286D01*
X14275428Y-13632429D01*
X14261143Y-13561000D01*
X14261143Y-13503857D01*
X14275428Y-13432429D01*
X14289714Y-13389571D01*
X14304000Y-13361000D01*
X14332571Y-13318143D01*
X14346857Y-13303857D01*
X14589714Y-13346714D02*
X14532571Y-13346714D01*
X14504000Y-13361000D01*
X14489714Y-13375286D01*
X14461143Y-13418143D01*
X14446857Y-13475286D01*
X14446857Y-13589571D01*
X14461143Y-13618143D01*
X14475428Y-13632429D01*
X14504000Y-13646714D01*
X14561143Y-13646714D01*
X14589714Y-13632429D01*
X14604000Y-13618143D01*
X14618286Y-13589571D01*
X14618286Y-13518143D01*
X14604000Y-13489571D01*
X14589714Y-13475286D01*
X14561143Y-13461000D01*
X14504000Y-13461000D01*
X14475428Y-13475286D01*
X14461143Y-13489571D01*
X14446857Y-13518143D01*
X14761143Y-13646714D02*
X14818286Y-13646714D01*
X14846857Y-13632429D01*
X14861143Y-13618143D01*
X14889714Y-13575286D01*
X14904000Y-13518143D01*
X14904000Y-13403857D01*
X14889714Y-13375286D01*
X14875428Y-13361000D01*
X14846857Y-13346714D01*
X14789714Y-13346714D01*
X14761143Y-13361000D01*
X14746857Y-13375286D01*
X14732571Y-13403857D01*
X14732571Y-13475286D01*
X14746857Y-13503857D01*
X14761143Y-13518143D01*
X14789714Y-13532429D01*
X14846857Y-13532429D01*
X14875428Y-13518143D01*
X14889714Y-13503857D01*
X14904000Y-13475286D01*
X15261143Y-13646714D02*
X15261143Y-13346714D01*
X15389714Y-13646714D02*
X15389714Y-13489571D01*
X15375428Y-13461000D01*
X15346857Y-13446714D01*
X15304000Y-13446714D01*
X15275428Y-13461000D01*
X15261143Y-13475286D01*
X15575428Y-13646714D02*
X15546857Y-13632429D01*
X15532571Y-13618143D01*
X15518286Y-13589571D01*
X15518286Y-13503857D01*
X15532571Y-13475286D01*
X15546857Y-13461000D01*
X15575428Y-13446714D01*
X15618286Y-13446714D01*
X15646857Y-13461000D01*
X15661143Y-13475286D01*
X15675428Y-13503857D01*
X15675428Y-13589571D01*
X15661143Y-13618143D01*
X15646857Y-13632429D01*
X15618286Y-13646714D01*
X15575428Y-13646714D01*
X15846857Y-13646714D02*
X15818286Y-13632429D01*
X15804000Y-13603857D01*
X15804000Y-13346714D01*
X16075428Y-13632429D02*
X16046857Y-13646714D01*
X15989714Y-13646714D01*
X15961143Y-13632429D01*
X15946857Y-13603857D01*
X15946857Y-13489571D01*
X15961143Y-13461000D01*
X15989714Y-13446714D01*
X16046857Y-13446714D01*
X16075428Y-13461000D01*
X16089714Y-13489571D01*
X16089714Y-13518143D01*
X15946857Y-13546714D01*
X16204000Y-13632429D02*
X16232571Y-13646714D01*
X16289714Y-13646714D01*
X16318286Y-13632429D01*
X16332571Y-13603857D01*
X16332571Y-13589571D01*
X16318286Y-13561000D01*
X16289714Y-13546714D01*
X16246857Y-13546714D01*
X16218286Y-13532429D01*
X16204000Y-13503857D01*
X16204000Y-13489571D01*
X16218286Y-13461000D01*
X16246857Y-13446714D01*
X16289714Y-13446714D01*
X16318286Y-13461000D01*
X16432571Y-13761000D02*
X16446857Y-13746714D01*
X16475428Y-13703857D01*
X16489714Y-13675286D01*
X16504000Y-13632429D01*
X16518286Y-13561000D01*
X16518286Y-13503857D01*
X16504000Y-13432429D01*
X16489714Y-13389571D01*
X16475428Y-13361000D01*
X16446857Y-13318143D01*
X16432571Y-13303857D01*
X9038200Y-13957800D02*
X9089000Y-13907000D01*
X9038200Y-13856200D01*
X8987400Y-13907000D01*
X9038200Y-13957800D01*
X9532571Y-14042714D02*
X9361143Y-14042714D01*
X9446857Y-14042714D02*
X9446857Y-13742714D01*
X9418286Y-13785571D01*
X9389714Y-13814143D01*
X9361143Y-13828429D01*
X9661143Y-14014143D02*
X9675428Y-14028429D01*
X9661143Y-14042714D01*
X9646857Y-14028429D01*
X9661143Y-14014143D01*
X9661143Y-14042714D01*
X9861143Y-13742714D02*
X9889714Y-13742714D01*
X9918286Y-13757000D01*
X9932571Y-13771286D01*
X9946857Y-13799857D01*
X9961143Y-13857000D01*
X9961143Y-13928429D01*
X9946857Y-13985571D01*
X9932571Y-14014143D01*
X9918286Y-14028429D01*
X9889714Y-14042714D01*
X9861143Y-14042714D01*
X9832571Y-14028429D01*
X9818286Y-14014143D01*
X9804000Y-13985571D01*
X9789714Y-13928429D01*
X9789714Y-13857000D01*
X9804000Y-13799857D01*
X9818286Y-13771286D01*
X9832571Y-13757000D01*
X9861143Y-13742714D01*
X10246857Y-14042714D02*
X10075428Y-14042714D01*
X10161143Y-14042714D02*
X10161143Y-13742714D01*
X10132571Y-13785571D01*
X10104000Y-13814143D01*
X10075428Y-13828429D01*
X10504000Y-13742714D02*
X10446857Y-13742714D01*
X10418286Y-13757000D01*
X10404000Y-13771286D01*
X10375428Y-13814143D01*
X10361143Y-13871286D01*
X10361143Y-13985571D01*
X10375428Y-14014143D01*
X10389714Y-14028429D01*
X10418286Y-14042714D01*
X10475428Y-14042714D01*
X10504000Y-14028429D01*
X10518286Y-14014143D01*
X10532571Y-13985571D01*
X10532571Y-13914143D01*
X10518286Y-13885571D01*
X10504000Y-13871286D01*
X10475428Y-13857000D01*
X10418286Y-13857000D01*
X10389714Y-13871286D01*
X10375428Y-13885571D01*
X10361143Y-13914143D01*
X10661143Y-14042714D02*
X10661143Y-13842714D01*
X10661143Y-13871286D02*
X10675428Y-13857000D01*
X10704000Y-13842714D01*
X10746857Y-13842714D01*
X10775428Y-13857000D01*
X10789714Y-13885571D01*
X10789714Y-14042714D01*
X10789714Y-13885571D02*
X10804000Y-13857000D01*
X10832571Y-13842714D01*
X10875428Y-13842714D01*
X10904000Y-13857000D01*
X10918286Y-13885571D01*
X10918286Y-14042714D01*
X11061143Y-14042714D02*
X11061143Y-13842714D01*
X11061143Y-13871286D02*
X11075428Y-13857000D01*
X11104000Y-13842714D01*
X11146857Y-13842714D01*
X11175428Y-13857000D01*
X11189714Y-13885571D01*
X11189714Y-14042714D01*
X11189714Y-13885571D02*
X11204000Y-13857000D01*
X11232571Y-13842714D01*
X11275428Y-13842714D01*
X11304000Y-13857000D01*
X11318286Y-13885571D01*
X11318286Y-14042714D01*
X11904000Y-13728429D02*
X11646857Y-14114143D01*
X12289714Y-13742714D02*
X12318286Y-13742714D01*
X12346857Y-13757000D01*
X12361143Y-13771286D01*
X12375428Y-13799857D01*
X12389714Y-13857000D01*
X12389714Y-13928429D01*
X12375428Y-13985571D01*
X12361143Y-14014143D01*
X12346857Y-14028429D01*
X12318286Y-14042714D01*
X12289714Y-14042714D01*
X12261143Y-14028429D01*
X12246857Y-14014143D01*
X12232571Y-13985571D01*
X12218286Y-13928429D01*
X12218286Y-13857000D01*
X12232571Y-13799857D01*
X12246857Y-13771286D01*
X12261143Y-13757000D01*
X12289714Y-13742714D01*
X12518286Y-14014143D02*
X12532571Y-14028429D01*
X12518286Y-14042714D01*
X12504000Y-14028429D01*
X12518286Y-14014143D01*
X12518286Y-14042714D01*
X12718286Y-13742714D02*
X12746857Y-13742714D01*
X12775428Y-13757000D01*
X12789714Y-13771286D01*
X12804000Y-13799857D01*
X12818286Y-13857000D01*
X12818286Y-13928429D01*
X12804000Y-13985571D01*
X12789714Y-14014143D01*
X12775428Y-14028429D01*
X12746857Y-14042714D01*
X12718286Y-14042714D01*
X12689714Y-14028429D01*
X12675428Y-14014143D01*
X12661143Y-13985571D01*
X12646857Y-13928429D01*
X12646857Y-13857000D01*
X12661143Y-13799857D01*
X12675428Y-13771286D01*
X12689714Y-13757000D01*
X12718286Y-13742714D01*
X13075428Y-13842714D02*
X13075428Y-14042714D01*
X13004000Y-13728429D02*
X12932571Y-13942714D01*
X13118286Y-13942714D01*
X13289714Y-13742714D02*
X13318286Y-13742714D01*
X13346857Y-13757000D01*
X13361143Y-13771286D01*
X13375428Y-13799857D01*
X13389714Y-13857000D01*
X13389714Y-13928429D01*
X13375428Y-13985571D01*
X13361143Y-14014143D01*
X13346857Y-14028429D01*
X13318286Y-14042714D01*
X13289714Y-14042714D01*
X13261143Y-14028429D01*
X13246857Y-14014143D01*
X13232571Y-13985571D01*
X13218286Y-13928429D01*
X13218286Y-13857000D01*
X13232571Y-13799857D01*
X13246857Y-13771286D01*
X13261143Y-13757000D01*
X13289714Y-13742714D01*
X13575428Y-13742714D02*
X13604000Y-13742714D01*
X13632571Y-13757000D01*
X13646857Y-13771286D01*
X13661143Y-13799857D01*
X13675428Y-13857000D01*
X13675428Y-13928429D01*
X13661143Y-13985571D01*
X13646857Y-14014143D01*
X13632571Y-14028429D01*
X13604000Y-14042714D01*
X13575428Y-14042714D01*
X13546857Y-14028429D01*
X13532571Y-14014143D01*
X13518286Y-13985571D01*
X13504000Y-13928429D01*
X13504000Y-13857000D01*
X13518286Y-13799857D01*
X13532571Y-13771286D01*
X13546857Y-13757000D01*
X13575428Y-13742714D01*
X13789714Y-13742714D02*
X13789714Y-13799857D01*
X13904000Y-13742714D02*
X13904000Y-13799857D01*
X14346857Y-14157000D02*
X14332571Y-14142714D01*
X14304000Y-14099857D01*
X14289714Y-14071286D01*
X14275428Y-14028429D01*
X14261143Y-13957000D01*
X14261143Y-13899857D01*
X14275428Y-13828429D01*
X14289714Y-13785571D01*
X14304000Y-13757000D01*
X14332571Y-13714143D01*
X14346857Y-13699857D01*
X14504000Y-13871286D02*
X14475428Y-13857000D01*
X14461143Y-13842714D01*
X14446857Y-13814143D01*
X14446857Y-13799857D01*
X14461143Y-13771286D01*
X14475428Y-13757000D01*
X14504000Y-13742714D01*
X14561143Y-13742714D01*
X14589714Y-13757000D01*
X14604000Y-13771286D01*
X14618286Y-13799857D01*
X14618286Y-13814143D01*
X14604000Y-13842714D01*
X14589714Y-13857000D01*
X14561143Y-13871286D01*
X14504000Y-13871286D01*
X14475428Y-13885571D01*
X14461143Y-13899857D01*
X14446857Y-13928429D01*
X14446857Y-13985571D01*
X14461143Y-14014143D01*
X14475428Y-14028429D01*
X14504000Y-14042714D01*
X14561143Y-14042714D01*
X14589714Y-14028429D01*
X14604000Y-14014143D01*
X14618286Y-13985571D01*
X14618286Y-13928429D01*
X14604000Y-13899857D01*
X14589714Y-13885571D01*
X14561143Y-13871286D01*
X14975428Y-14042714D02*
X14975428Y-13742714D01*
X15104000Y-14042714D02*
X15104000Y-13885571D01*
X15089714Y-13857000D01*
X15061143Y-13842714D01*
X15018286Y-13842714D01*
X14989714Y-13857000D01*
X14975428Y-13871286D01*
X15289714Y-14042714D02*
X15261143Y-14028429D01*
X15246857Y-14014143D01*
X15232571Y-13985571D01*
X15232571Y-13899857D01*
X15246857Y-13871286D01*
X15261143Y-13857000D01*
X15289714Y-13842714D01*
X15332571Y-13842714D01*
X15361143Y-13857000D01*
X15375428Y-13871286D01*
X15389714Y-13899857D01*
X15389714Y-13985571D01*
X15375428Y-14014143D01*
X15361143Y-14028429D01*
X15332571Y-14042714D01*
X15289714Y-14042714D01*
X15561143Y-14042714D02*
X15532571Y-14028429D01*
X15518286Y-13999857D01*
X15518286Y-13742714D01*
X15789714Y-14028429D02*
X15761143Y-14042714D01*
X15704000Y-14042714D01*
X15675428Y-14028429D01*
X15661143Y-13999857D01*
X15661143Y-13885571D01*
X15675428Y-13857000D01*
X15704000Y-13842714D01*
X15761143Y-13842714D01*
X15789714Y-13857000D01*
X15804000Y-13885571D01*
X15804000Y-13914143D01*
X15661143Y-13942714D01*
X15918286Y-14028429D02*
X15946857Y-14042714D01*
X16004000Y-14042714D01*
X16032571Y-14028429D01*
X16046857Y-13999857D01*
X16046857Y-13985571D01*
X16032571Y-13957000D01*
X16004000Y-13942714D01*
X15961143Y-13942714D01*
X15932571Y-13928429D01*
X15918286Y-13899857D01*
X15918286Y-13885571D01*
X15932571Y-13857000D01*
X15961143Y-13842714D01*
X16004000Y-13842714D01*
X16032571Y-13857000D01*
X16146857Y-14157000D02*
X16161143Y-14142714D01*
X16189714Y-14099857D01*
X16204000Y-14071286D01*
X16218286Y-14028429D01*
X16232571Y-13957000D01*
X16232571Y-13899857D01*
X16218286Y-13828429D01*
X16204000Y-13785571D01*
X16189714Y-13757000D01*
X16161143Y-13714143D01*
X16146857Y-13699857D01*
X8769000Y-14143000D02*
X9089000Y-14463000D01*
X9089000Y-14143000D02*
X8769000Y-14463000D01*
X9089000Y-14303000D02*
G75*
G03*
X9089000Y-14303000I-160000J0D01*
G01*
X9346857Y-14138714D02*
X9532571Y-14138714D01*
X9432571Y-14253000D01*
X9475428Y-14253000D01*
X9504000Y-14267286D01*
X9518286Y-14281571D01*
X9532571Y-14310143D01*
X9532571Y-14381571D01*
X9518286Y-14410143D01*
X9504000Y-14424429D01*
X9475428Y-14438714D01*
X9389714Y-14438714D01*
X9361143Y-14424429D01*
X9346857Y-14410143D01*
X9661143Y-14410143D02*
X9675428Y-14424429D01*
X9661143Y-14438714D01*
X9646857Y-14424429D01*
X9661143Y-14410143D01*
X9661143Y-14438714D01*
X9789714Y-14167286D02*
X9804000Y-14153000D01*
X9832571Y-14138714D01*
X9904000Y-14138714D01*
X9932571Y-14153000D01*
X9946857Y-14167286D01*
X9961143Y-14195857D01*
X9961143Y-14224429D01*
X9946857Y-14267286D01*
X9775428Y-14438714D01*
X9961143Y-14438714D01*
X10146857Y-14138714D02*
X10175428Y-14138714D01*
X10204000Y-14153000D01*
X10218286Y-14167286D01*
X10232571Y-14195857D01*
X10246857Y-14253000D01*
X10246857Y-14324429D01*
X10232571Y-14381571D01*
X10218286Y-14410143D01*
X10204000Y-14424429D01*
X10175428Y-14438714D01*
X10146857Y-14438714D01*
X10118286Y-14424429D01*
X10104000Y-14410143D01*
X10089714Y-14381571D01*
X10075428Y-14324429D01*
X10075428Y-14253000D01*
X10089714Y-14195857D01*
X10104000Y-14167286D01*
X10118286Y-14153000D01*
X10146857Y-14138714D01*
X10432571Y-14138714D02*
X10461143Y-14138714D01*
X10489714Y-14153000D01*
X10504000Y-14167286D01*
X10518286Y-14195857D01*
X10532571Y-14253000D01*
X10532571Y-14324429D01*
X10518286Y-14381571D01*
X10504000Y-14410143D01*
X10489714Y-14424429D01*
X10461143Y-14438714D01*
X10432571Y-14438714D01*
X10404000Y-14424429D01*
X10389714Y-14410143D01*
X10375428Y-14381571D01*
X10361143Y-14324429D01*
X10361143Y-14253000D01*
X10375428Y-14195857D01*
X10389714Y-14167286D01*
X10404000Y-14153000D01*
X10432571Y-14138714D01*
X10661143Y-14438714D02*
X10661143Y-14238714D01*
X10661143Y-14267286D02*
X10675428Y-14253000D01*
X10704000Y-14238714D01*
X10746857Y-14238714D01*
X10775428Y-14253000D01*
X10789714Y-14281571D01*
X10789714Y-14438714D01*
X10789714Y-14281571D02*
X10804000Y-14253000D01*
X10832571Y-14238714D01*
X10875428Y-14238714D01*
X10904000Y-14253000D01*
X10918286Y-14281571D01*
X10918286Y-14438714D01*
X11061143Y-14438714D02*
X11061143Y-14238714D01*
X11061143Y-14267286D02*
X11075428Y-14253000D01*
X11104000Y-14238714D01*
X11146857Y-14238714D01*
X11175428Y-14253000D01*
X11189714Y-14281571D01*
X11189714Y-14438714D01*
X11189714Y-14281571D02*
X11204000Y-14253000D01*
X11232571Y-14238714D01*
X11275428Y-14238714D01*
X11304000Y-14253000D01*
X11318286Y-14281571D01*
X11318286Y-14438714D01*
X11904000Y-14124429D02*
X11646857Y-14510143D01*
X12289714Y-14138714D02*
X12318286Y-14138714D01*
X12346857Y-14153000D01*
X12361143Y-14167286D01*
X12375428Y-14195857D01*
X12389714Y-14253000D01*
X12389714Y-14324429D01*
X12375428Y-14381571D01*
X12361143Y-14410143D01*
X12346857Y-14424429D01*
X12318286Y-14438714D01*
X12289714Y-14438714D01*
X12261143Y-14424429D01*
X12246857Y-14410143D01*
X12232571Y-14381571D01*
X12218286Y-14324429D01*
X12218286Y-14253000D01*
X12232571Y-14195857D01*
X12246857Y-14167286D01*
X12261143Y-14153000D01*
X12289714Y-14138714D01*
X12518286Y-14410143D02*
X12532571Y-14424429D01*
X12518286Y-14438714D01*
X12504000Y-14424429D01*
X12518286Y-14410143D01*
X12518286Y-14438714D01*
X12818286Y-14438714D02*
X12646857Y-14438714D01*
X12732571Y-14438714D02*
X12732571Y-14138714D01*
X12704000Y-14181571D01*
X12675428Y-14210143D01*
X12646857Y-14224429D01*
X12932571Y-14167286D02*
X12946857Y-14153000D01*
X12975428Y-14138714D01*
X13046857Y-14138714D01*
X13075428Y-14153000D01*
X13089714Y-14167286D01*
X13104000Y-14195857D01*
X13104000Y-14224429D01*
X13089714Y-14267286D01*
X12918286Y-14438714D01*
X13104000Y-14438714D01*
X13361143Y-14138714D02*
X13304000Y-14138714D01*
X13275428Y-14153000D01*
X13261143Y-14167286D01*
X13232571Y-14210143D01*
X13218286Y-14267286D01*
X13218286Y-14381571D01*
X13232571Y-14410143D01*
X13246857Y-14424429D01*
X13275428Y-14438714D01*
X13332571Y-14438714D01*
X13361143Y-14424429D01*
X13375428Y-14410143D01*
X13389714Y-14381571D01*
X13389714Y-14310143D01*
X13375428Y-14281571D01*
X13361143Y-14267286D01*
X13332571Y-14253000D01*
X13275428Y-14253000D01*
X13246857Y-14267286D01*
X13232571Y-14281571D01*
X13218286Y-14310143D01*
X13575428Y-14138714D02*
X13604000Y-14138714D01*
X13632571Y-14153000D01*
X13646857Y-14167286D01*
X13661143Y-14195857D01*
X13675428Y-14253000D01*
X13675428Y-14324429D01*
X13661143Y-14381571D01*
X13646857Y-14410143D01*
X13632571Y-14424429D01*
X13604000Y-14438714D01*
X13575428Y-14438714D01*
X13546857Y-14424429D01*
X13532571Y-14410143D01*
X13518286Y-14381571D01*
X13504000Y-14324429D01*
X13504000Y-14253000D01*
X13518286Y-14195857D01*
X13532571Y-14167286D01*
X13546857Y-14153000D01*
X13575428Y-14138714D01*
X13789714Y-14138714D02*
X13789714Y-14195857D01*
X13904000Y-14138714D02*
X13904000Y-14195857D01*
X14346857Y-14553000D02*
X14332571Y-14538714D01*
X14304000Y-14495857D01*
X14289714Y-14467286D01*
X14275428Y-14424429D01*
X14261143Y-14353000D01*
X14261143Y-14295857D01*
X14275428Y-14224429D01*
X14289714Y-14181571D01*
X14304000Y-14153000D01*
X14332571Y-14110143D01*
X14346857Y-14095857D01*
X14589714Y-14238714D02*
X14589714Y-14438714D01*
X14518286Y-14124429D02*
X14446857Y-14338714D01*
X14632571Y-14338714D01*
X14975428Y-14438714D02*
X14975428Y-14138714D01*
X15104000Y-14438714D02*
X15104000Y-14281571D01*
X15089714Y-14253000D01*
X15061143Y-14238714D01*
X15018286Y-14238714D01*
X14989714Y-14253000D01*
X14975428Y-14267286D01*
X15289714Y-14438714D02*
X15261143Y-14424429D01*
X15246857Y-14410143D01*
X15232571Y-14381571D01*
X15232571Y-14295857D01*
X15246857Y-14267286D01*
X15261143Y-14253000D01*
X15289714Y-14238714D01*
X15332571Y-14238714D01*
X15361143Y-14253000D01*
X15375428Y-14267286D01*
X15389714Y-14295857D01*
X15389714Y-14381571D01*
X15375428Y-14410143D01*
X15361143Y-14424429D01*
X15332571Y-14438714D01*
X15289714Y-14438714D01*
X15561143Y-14438714D02*
X15532571Y-14424429D01*
X15518286Y-14395857D01*
X15518286Y-14138714D01*
X15789714Y-14424429D02*
X15761143Y-14438714D01*
X15704000Y-14438714D01*
X15675428Y-14424429D01*
X15661143Y-14395857D01*
X15661143Y-14281571D01*
X15675428Y-14253000D01*
X15704000Y-14238714D01*
X15761143Y-14238714D01*
X15789714Y-14253000D01*
X15804000Y-14281571D01*
X15804000Y-14310143D01*
X15661143Y-14338714D01*
X15918286Y-14424429D02*
X15946857Y-14438714D01*
X16004000Y-14438714D01*
X16032571Y-14424429D01*
X16046857Y-14395857D01*
X16046857Y-14381571D01*
X16032571Y-14353000D01*
X16004000Y-14338714D01*
X15961143Y-14338714D01*
X15932571Y-14324429D01*
X15918286Y-14295857D01*
X15918286Y-14281571D01*
X15932571Y-14253000D01*
X15961143Y-14238714D01*
X16004000Y-14238714D01*
X16032571Y-14253000D01*
X16146857Y-14553000D02*
X16161143Y-14538714D01*
X16189714Y-14495857D01*
X16204000Y-14467286D01*
X16218286Y-14424429D01*
X16232571Y-14353000D01*
X16232571Y-14295857D01*
X16218286Y-14224429D01*
X16204000Y-14181571D01*
X16189714Y-14153000D01*
X16161143Y-14110143D01*
X16146857Y-14095857D01*
X9024000Y-14720500D02*
X9089000Y-14785500D01*
X9089000Y-14720500D02*
X9024000Y-14785500D01*
X9056500Y-14720500D02*
X9056500Y-14785500D01*
X9024000Y-14753000D02*
X9089000Y-14753000D01*
X9432571Y-14588714D02*
X9461143Y-14588714D01*
X9489714Y-14603000D01*
X9504000Y-14617286D01*
X9518286Y-14645857D01*
X9532571Y-14703000D01*
X9532571Y-14774429D01*
X9518286Y-14831571D01*
X9504000Y-14860143D01*
X9489714Y-14874429D01*
X9461143Y-14888714D01*
X9432571Y-14888714D01*
X9404000Y-14874429D01*
X9389714Y-14860143D01*
X9375428Y-14831571D01*
X9361143Y-14774429D01*
X9361143Y-14703000D01*
X9375428Y-14645857D01*
X9389714Y-14617286D01*
X9404000Y-14603000D01*
X9432571Y-14588714D01*
X9661143Y-14860143D02*
X9675428Y-14874429D01*
X9661143Y-14888714D01*
X9646857Y-14874429D01*
X9661143Y-14860143D01*
X9661143Y-14888714D01*
X9932571Y-14588714D02*
X9875428Y-14588714D01*
X9846857Y-14603000D01*
X9832571Y-14617286D01*
X9804000Y-14660143D01*
X9789714Y-14717286D01*
X9789714Y-14831571D01*
X9804000Y-14860143D01*
X9818286Y-14874429D01*
X9846857Y-14888714D01*
X9904000Y-14888714D01*
X9932571Y-14874429D01*
X9946857Y-14860143D01*
X9961143Y-14831571D01*
X9961143Y-14760143D01*
X9946857Y-14731571D01*
X9932571Y-14717286D01*
X9904000Y-14703000D01*
X9846857Y-14703000D01*
X9818286Y-14717286D01*
X9804000Y-14731571D01*
X9789714Y-14760143D01*
X10232571Y-14588714D02*
X10089714Y-14588714D01*
X10075428Y-14731571D01*
X10089714Y-14717286D01*
X10118286Y-14703000D01*
X10189714Y-14703000D01*
X10218286Y-14717286D01*
X10232571Y-14731571D01*
X10246857Y-14760143D01*
X10246857Y-14831571D01*
X10232571Y-14860143D01*
X10218286Y-14874429D01*
X10189714Y-14888714D01*
X10118286Y-14888714D01*
X10089714Y-14874429D01*
X10075428Y-14860143D01*
X10432571Y-14588714D02*
X10461143Y-14588714D01*
X10489714Y-14603000D01*
X10504000Y-14617286D01*
X10518286Y-14645857D01*
X10532571Y-14703000D01*
X10532571Y-14774429D01*
X10518286Y-14831571D01*
X10504000Y-14860143D01*
X10489714Y-14874429D01*
X10461143Y-14888714D01*
X10432571Y-14888714D01*
X10404000Y-14874429D01*
X10389714Y-14860143D01*
X10375428Y-14831571D01*
X10361143Y-14774429D01*
X10361143Y-14703000D01*
X10375428Y-14645857D01*
X10389714Y-14617286D01*
X10404000Y-14603000D01*
X10432571Y-14588714D01*
X10661143Y-14888714D02*
X10661143Y-14688714D01*
X10661143Y-14717286D02*
X10675428Y-14703000D01*
X10704000Y-14688714D01*
X10746857Y-14688714D01*
X10775428Y-14703000D01*
X10789714Y-14731571D01*
X10789714Y-14888714D01*
X10789714Y-14731571D02*
X10804000Y-14703000D01*
X10832571Y-14688714D01*
X10875428Y-14688714D01*
X10904000Y-14703000D01*
X10918286Y-14731571D01*
X10918286Y-14888714D01*
X11061143Y-14888714D02*
X11061143Y-14688714D01*
X11061143Y-14717286D02*
X11075428Y-14703000D01*
X11104000Y-14688714D01*
X11146857Y-14688714D01*
X11175428Y-14703000D01*
X11189714Y-14731571D01*
X11189714Y-14888714D01*
X11189714Y-14731571D02*
X11204000Y-14703000D01*
X11232571Y-14688714D01*
X11275428Y-14688714D01*
X11304000Y-14703000D01*
X11318286Y-14731571D01*
X11318286Y-14888714D01*
X11904000Y-14574429D02*
X11646857Y-14960143D01*
X12289714Y-14588714D02*
X12318286Y-14588714D01*
X12346857Y-14603000D01*
X12361143Y-14617286D01*
X12375428Y-14645857D01*
X12389714Y-14703000D01*
X12389714Y-14774429D01*
X12375428Y-14831571D01*
X12361143Y-14860143D01*
X12346857Y-14874429D01*
X12318286Y-14888714D01*
X12289714Y-14888714D01*
X12261143Y-14874429D01*
X12246857Y-14860143D01*
X12232571Y-14831571D01*
X12218286Y-14774429D01*
X12218286Y-14703000D01*
X12232571Y-14645857D01*
X12246857Y-14617286D01*
X12261143Y-14603000D01*
X12289714Y-14588714D01*
X12518286Y-14860143D02*
X12532571Y-14874429D01*
X12518286Y-14888714D01*
X12504000Y-14874429D01*
X12518286Y-14860143D01*
X12518286Y-14888714D01*
X12718286Y-14588714D02*
X12746857Y-14588714D01*
X12775428Y-14603000D01*
X12789714Y-14617286D01*
X12804000Y-14645857D01*
X12818286Y-14703000D01*
X12818286Y-14774429D01*
X12804000Y-14831571D01*
X12789714Y-14860143D01*
X12775428Y-14874429D01*
X12746857Y-14888714D01*
X12718286Y-14888714D01*
X12689714Y-14874429D01*
X12675428Y-14860143D01*
X12661143Y-14831571D01*
X12646857Y-14774429D01*
X12646857Y-14703000D01*
X12661143Y-14645857D01*
X12675428Y-14617286D01*
X12689714Y-14603000D01*
X12718286Y-14588714D01*
X12932571Y-14617286D02*
X12946857Y-14603000D01*
X12975428Y-14588714D01*
X13046857Y-14588714D01*
X13075428Y-14603000D01*
X13089714Y-14617286D01*
X13104000Y-14645857D01*
X13104000Y-14674429D01*
X13089714Y-14717286D01*
X12918286Y-14888714D01*
X13104000Y-14888714D01*
X13375428Y-14588714D02*
X13232571Y-14588714D01*
X13218286Y-14731571D01*
X13232571Y-14717286D01*
X13261143Y-14703000D01*
X13332571Y-14703000D01*
X13361143Y-14717286D01*
X13375428Y-14731571D01*
X13389714Y-14760143D01*
X13389714Y-14831571D01*
X13375428Y-14860143D01*
X13361143Y-14874429D01*
X13332571Y-14888714D01*
X13261143Y-14888714D01*
X13232571Y-14874429D01*
X13218286Y-14860143D01*
X13646857Y-14588714D02*
X13589714Y-14588714D01*
X13561143Y-14603000D01*
X13546857Y-14617286D01*
X13518286Y-14660143D01*
X13504000Y-14717286D01*
X13504000Y-14831571D01*
X13518286Y-14860143D01*
X13532571Y-14874429D01*
X13561143Y-14888714D01*
X13618286Y-14888714D01*
X13646857Y-14874429D01*
X13661143Y-14860143D01*
X13675428Y-14831571D01*
X13675428Y-14760143D01*
X13661143Y-14731571D01*
X13646857Y-14717286D01*
X13618286Y-14703000D01*
X13561143Y-14703000D01*
X13532571Y-14717286D01*
X13518286Y-14731571D01*
X13504000Y-14760143D01*
X13789714Y-14588714D02*
X13789714Y-14645857D01*
X13904000Y-14588714D02*
X13904000Y-14645857D01*
X14346857Y-15003000D02*
X14332571Y-14988714D01*
X14304000Y-14945857D01*
X14289714Y-14917286D01*
X14275428Y-14874429D01*
X14261143Y-14803000D01*
X14261143Y-14745857D01*
X14275428Y-14674429D01*
X14289714Y-14631571D01*
X14304000Y-14603000D01*
X14332571Y-14560143D01*
X14346857Y-14545857D01*
X14446857Y-14617286D02*
X14461143Y-14603000D01*
X14489714Y-14588714D01*
X14561143Y-14588714D01*
X14589714Y-14603000D01*
X14604000Y-14617286D01*
X14618286Y-14645857D01*
X14618286Y-14674429D01*
X14604000Y-14717286D01*
X14432571Y-14888714D01*
X14618286Y-14888714D01*
X14975428Y-14888714D02*
X14975428Y-14588714D01*
X15104000Y-14888714D02*
X15104000Y-14731571D01*
X15089714Y-14703000D01*
X15061143Y-14688714D01*
X15018286Y-14688714D01*
X14989714Y-14703000D01*
X14975428Y-14717286D01*
X15289714Y-14888714D02*
X15261143Y-14874429D01*
X15246857Y-14860143D01*
X15232571Y-14831571D01*
X15232571Y-14745857D01*
X15246857Y-14717286D01*
X15261143Y-14703000D01*
X15289714Y-14688714D01*
X15332571Y-14688714D01*
X15361143Y-14703000D01*
X15375428Y-14717286D01*
X15389714Y-14745857D01*
X15389714Y-14831571D01*
X15375428Y-14860143D01*
X15361143Y-14874429D01*
X15332571Y-14888714D01*
X15289714Y-14888714D01*
X15561143Y-14888714D02*
X15532571Y-14874429D01*
X15518286Y-14845857D01*
X15518286Y-14588714D01*
X15789714Y-14874429D02*
X15761143Y-14888714D01*
X15704000Y-14888714D01*
X15675428Y-14874429D01*
X15661143Y-14845857D01*
X15661143Y-14731571D01*
X15675428Y-14703000D01*
X15704000Y-14688714D01*
X15761143Y-14688714D01*
X15789714Y-14703000D01*
X15804000Y-14731571D01*
X15804000Y-14760143D01*
X15661143Y-14788714D01*
X15918286Y-14874429D02*
X15946857Y-14888714D01*
X16004000Y-14888714D01*
X16032571Y-14874429D01*
X16046857Y-14845857D01*
X16046857Y-14831571D01*
X16032571Y-14803000D01*
X16004000Y-14788714D01*
X15961143Y-14788714D01*
X15932571Y-14774429D01*
X15918286Y-14745857D01*
X15918286Y-14731571D01*
X15932571Y-14703000D01*
X15961143Y-14688714D01*
X16004000Y-14688714D01*
X16032571Y-14703000D01*
X16146857Y-15003000D02*
X16161143Y-14988714D01*
X16189714Y-14945857D01*
X16204000Y-14917286D01*
X16218286Y-14874429D01*
X16232571Y-14803000D01*
X16232571Y-14745857D01*
X16218286Y-14674429D01*
X16204000Y-14631571D01*
X16189714Y-14603000D01*
X16161143Y-14560143D01*
X16146857Y-14545857D01*
X16689714Y-15003000D02*
X16675428Y-14988714D01*
X16646857Y-14945857D01*
X16632571Y-14917286D01*
X16618286Y-14874429D01*
X16604000Y-14803000D01*
X16604000Y-14745857D01*
X16618286Y-14674429D01*
X16632571Y-14631571D01*
X16646857Y-14603000D01*
X16675428Y-14560143D01*
X16689714Y-14545857D01*
X16804000Y-14688714D02*
X16804000Y-14888714D01*
X16804000Y-14717286D02*
X16818286Y-14703000D01*
X16846857Y-14688714D01*
X16889714Y-14688714D01*
X16918286Y-14703000D01*
X16932571Y-14731571D01*
X16932571Y-14888714D01*
X17118286Y-14888714D02*
X17089714Y-14874429D01*
X17075428Y-14860143D01*
X17061143Y-14831571D01*
X17061143Y-14745857D01*
X17075428Y-14717286D01*
X17089714Y-14703000D01*
X17118286Y-14688714D01*
X17161143Y-14688714D01*
X17189714Y-14703000D01*
X17204000Y-14717286D01*
X17218286Y-14745857D01*
X17218286Y-14831571D01*
X17204000Y-14860143D01*
X17189714Y-14874429D01*
X17161143Y-14888714D01*
X17118286Y-14888714D01*
X17304000Y-14688714D02*
X17418286Y-14688714D01*
X17346857Y-14588714D02*
X17346857Y-14845857D01*
X17361143Y-14874429D01*
X17389714Y-14888714D01*
X17418286Y-14888714D01*
X17746857Y-14688714D02*
X17746857Y-14988714D01*
X17746857Y-14703000D02*
X17775428Y-14688714D01*
X17832571Y-14688714D01*
X17861143Y-14703000D01*
X17875428Y-14717286D01*
X17889714Y-14745857D01*
X17889714Y-14831571D01*
X17875428Y-14860143D01*
X17861143Y-14874429D01*
X17832571Y-14888714D01*
X17775428Y-14888714D01*
X17746857Y-14874429D01*
X18061143Y-14888714D02*
X18032571Y-14874429D01*
X18018286Y-14845857D01*
X18018286Y-14588714D01*
X18304000Y-14888714D02*
X18304000Y-14731571D01*
X18289714Y-14703000D01*
X18261143Y-14688714D01*
X18204000Y-14688714D01*
X18175428Y-14703000D01*
X18304000Y-14874429D02*
X18275428Y-14888714D01*
X18204000Y-14888714D01*
X18175428Y-14874429D01*
X18161143Y-14845857D01*
X18161143Y-14817286D01*
X18175428Y-14788714D01*
X18204000Y-14774429D01*
X18275428Y-14774429D01*
X18304000Y-14760143D01*
X18404000Y-14688714D02*
X18518286Y-14688714D01*
X18446857Y-14588714D02*
X18446857Y-14845857D01*
X18461143Y-14874429D01*
X18489714Y-14888714D01*
X18518286Y-14888714D01*
X18732571Y-14874429D02*
X18704000Y-14888714D01*
X18646857Y-14888714D01*
X18618286Y-14874429D01*
X18604000Y-14845857D01*
X18604000Y-14731571D01*
X18618286Y-14703000D01*
X18646857Y-14688714D01*
X18704000Y-14688714D01*
X18732571Y-14703000D01*
X18746857Y-14731571D01*
X18746857Y-14760143D01*
X18604000Y-14788714D01*
X19004000Y-14888714D02*
X19004000Y-14588714D01*
X19004000Y-14874429D02*
X18975428Y-14888714D01*
X18918286Y-14888714D01*
X18889714Y-14874429D01*
X18875428Y-14860143D01*
X18861143Y-14831571D01*
X18861143Y-14745857D01*
X18875428Y-14717286D01*
X18889714Y-14703000D01*
X18918286Y-14688714D01*
X18975428Y-14688714D01*
X19004000Y-14703000D01*
X19118286Y-15003000D02*
X19132571Y-14988714D01*
X19161143Y-14945857D01*
X19175428Y-14917286D01*
X19189714Y-14874429D01*
X19204000Y-14803000D01*
X19204000Y-14745857D01*
X19189714Y-14674429D01*
X19175428Y-14631571D01*
X19161143Y-14603000D01*
X19132571Y-14560143D01*
X19118286Y-14545857D01*
M02*
