G04 #@! TF.GenerationSoftware,KiCad,Pcbnew,7.0.8-7.0.8~ubuntu23.04.1*
G04 #@! TF.CreationDate,2023-10-23T05:56:26+00:00*
G04 #@! TF.ProjectId,PSLab,50534c61-622e-46b6-9963-61645f706362,v6.0-beta*
G04 #@! TF.SameCoordinates,Original*
G04 #@! TF.FileFunction,Paste,Top*
G04 #@! TF.FilePolarity,Positive*
%FSLAX46Y46*%
G04 Gerber Fmt 4.6, Leading zero omitted, Abs format (unit mm)*
G04 Created by KiCad (PCBNEW 7.0.8-7.0.8~ubuntu23.04.1) date 2023-10-23 05:56:26*
%MOMM*%
%LPD*%
G01*
G04 APERTURE LIST*
G04 Aperture macros list*
%AMRoundRect*
0 Rectangle with rounded corners*
0 $1 Rounding radius*
0 $2 $3 $4 $5 $6 $7 $8 $9 X,Y pos of 4 corners*
0 Add a 4 corners polygon primitive as box body*
4,1,4,$2,$3,$4,$5,$6,$7,$8,$9,$2,$3,0*
0 Add four circle primitives for the rounded corners*
1,1,$1+$1,$2,$3*
1,1,$1+$1,$4,$5*
1,1,$1+$1,$6,$7*
1,1,$1+$1,$8,$9*
0 Add four rect primitives between the rounded corners*
20,1,$1+$1,$2,$3,$4,$5,0*
20,1,$1+$1,$4,$5,$6,$7,0*
20,1,$1+$1,$6,$7,$8,$9,0*
20,1,$1+$1,$8,$9,$2,$3,0*%
G04 Aperture macros list end*
%ADD10RoundRect,0.200000X-0.200000X-0.275000X0.200000X-0.275000X0.200000X0.275000X-0.200000X0.275000X0*%
%ADD11RoundRect,0.200000X-0.275000X0.200000X-0.275000X-0.200000X0.275000X-0.200000X0.275000X0.200000X0*%
%ADD12RoundRect,0.200000X0.200000X0.275000X-0.200000X0.275000X-0.200000X-0.275000X0.200000X-0.275000X0*%
%ADD13RoundRect,0.200000X0.275000X-0.200000X0.275000X0.200000X-0.275000X0.200000X-0.275000X-0.200000X0*%
%ADD14R,0.800000X1.200000*%
%ADD15RoundRect,0.250000X-0.375000X-0.625000X0.375000X-0.625000X0.375000X0.625000X-0.375000X0.625000X0*%
%ADD16RoundRect,0.225000X0.225000X0.250000X-0.225000X0.250000X-0.225000X-0.250000X0.225000X-0.250000X0*%
%ADD17RoundRect,0.225000X-0.225000X-0.250000X0.225000X-0.250000X0.225000X0.250000X-0.225000X0.250000X0*%
%ADD18RoundRect,0.225000X-0.250000X0.225000X-0.250000X-0.225000X0.250000X-0.225000X0.250000X0.225000X0*%
%ADD19RoundRect,0.225000X0.250000X-0.225000X0.250000X0.225000X-0.250000X0.225000X-0.250000X-0.225000X0*%
%ADD20RoundRect,0.250000X-0.600000X0.400000X-0.600000X-0.400000X0.600000X-0.400000X0.600000X0.400000X0*%
%ADD21RoundRect,0.243750X0.243750X0.456250X-0.243750X0.456250X-0.243750X-0.456250X0.243750X-0.456250X0*%
%ADD22RoundRect,0.243750X0.456250X-0.243750X0.456250X0.243750X-0.456250X0.243750X-0.456250X-0.243750X0*%
%ADD23RoundRect,0.250000X0.600000X-0.400000X0.600000X0.400000X-0.600000X0.400000X-0.600000X-0.400000X0*%
%ADD24R,1.500000X0.900000*%
%ADD25RoundRect,0.150000X-0.825000X-0.150000X0.825000X-0.150000X0.825000X0.150000X-0.825000X0.150000X0*%
%ADD26RoundRect,0.150000X0.825000X0.150000X-0.825000X0.150000X-0.825000X-0.150000X0.825000X-0.150000X0*%
%ADD27RoundRect,0.100000X0.637500X0.100000X-0.637500X0.100000X-0.637500X-0.100000X0.637500X-0.100000X0*%
%ADD28R,1.000000X0.700000*%
%ADD29R,0.600000X0.700000*%
%ADD30R,1.800000X1.000000*%
%ADD31R,0.550000X1.500000*%
%ADD32R,1.500000X0.550000*%
%ADD33RoundRect,0.150000X-0.587500X-0.150000X0.587500X-0.150000X0.587500X0.150000X-0.587500X0.150000X0*%
%ADD34RoundRect,0.100000X-0.637500X-0.100000X0.637500X-0.100000X0.637500X0.100000X-0.637500X0.100000X0*%
%ADD35RoundRect,0.150000X0.150000X-0.587500X0.150000X0.587500X-0.150000X0.587500X-0.150000X-0.587500X0*%
%ADD36R,2.000000X1.500000*%
%ADD37R,2.000000X3.800000*%
%ADD38R,0.650000X2.000000*%
%ADD39RoundRect,0.225000X-0.375000X0.225000X-0.375000X-0.225000X0.375000X-0.225000X0.375000X0.225000X0*%
%ADD40RoundRect,0.100000X0.100000X0.100000X-0.100000X0.100000X-0.100000X-0.100000X0.100000X-0.100000X0*%
%ADD41O,0.700000X0.200000*%
%ADD42O,0.200000X0.700000*%
%ADD43R,0.100000X0.100000*%
%ADD44R,1.450000X0.600000*%
%ADD45R,1.450000X0.300000*%
%ADD46R,1.500000X2.020000*%
%ADD47R,1.000000X2.600000*%
%ADD48R,1.500000X3.400000*%
%ADD49R,2.400000X2.000000*%
%ADD50RoundRect,0.250000X-0.275000X-0.275000X0.275000X-0.275000X0.275000X0.275000X-0.275000X0.275000X0*%
%ADD51RoundRect,0.062500X-0.350000X-0.062500X0.350000X-0.062500X0.350000X0.062500X-0.350000X0.062500X0*%
%ADD52RoundRect,0.062500X-0.062500X-0.350000X0.062500X-0.350000X0.062500X0.350000X-0.062500X0.350000X0*%
%ADD53R,1.600000X0.700000*%
%ADD54R,1.400000X1.200000*%
%ADD55R,2.200000X1.200000*%
%ADD56R,1.400000X1.600000*%
%ADD57R,2.000000X0.650000*%
%ADD58RoundRect,0.150000X-0.512500X-0.150000X0.512500X-0.150000X0.512500X0.150000X-0.512500X0.150000X0*%
%ADD59RoundRect,0.150000X0.587500X0.150000X-0.587500X0.150000X-0.587500X-0.150000X0.587500X-0.150000X0*%
%ADD60RoundRect,0.150000X0.512500X0.150000X-0.512500X0.150000X-0.512500X-0.150000X0.512500X-0.150000X0*%
%ADD61RoundRect,0.218750X0.256250X-0.218750X0.256250X0.218750X-0.256250X0.218750X-0.256250X-0.218750X0*%
%ADD62RoundRect,0.150000X0.150000X-0.825000X0.150000X0.825000X-0.150000X0.825000X-0.150000X-0.825000X0*%
%ADD63RoundRect,0.218750X-0.256250X0.218750X-0.256250X-0.218750X0.256250X-0.218750X0.256250X0.218750X0*%
G04 APERTURE END LIST*
D10*
X177825000Y-62250000D03*
X179475000Y-62250000D03*
D11*
X150856000Y-88880000D03*
X150856000Y-90530000D03*
D10*
X162775000Y-54800000D03*
X164425000Y-54800000D03*
D12*
X164425000Y-53200000D03*
X162775000Y-53200000D03*
X188325000Y-76200000D03*
X186675000Y-76200000D03*
D11*
X152514000Y-92127000D03*
X152514000Y-93777000D03*
D10*
X186675000Y-74600000D03*
X188325000Y-74600000D03*
X173470000Y-54026000D03*
X175120000Y-54026000D03*
D12*
X185150000Y-76200000D03*
X183500000Y-76200000D03*
X179475000Y-60566500D03*
X177825000Y-60566500D03*
D10*
X177851000Y-58407500D03*
X179501000Y-58407500D03*
X177851000Y-56248500D03*
X179501000Y-56248500D03*
X164263000Y-62789000D03*
X165913000Y-62789000D03*
X173407000Y-62052500D03*
X175057000Y-62052500D03*
X168961000Y-62789000D03*
X170611000Y-62789000D03*
D12*
X185343500Y-56248500D03*
X183693500Y-56248500D03*
X179501000Y-54026000D03*
X177851000Y-54026000D03*
D13*
X137084000Y-90030000D03*
X137084000Y-88380000D03*
X139243000Y-93777000D03*
X139243000Y-92127000D03*
X137084000Y-93777000D03*
X137084000Y-92127000D03*
X152514000Y-90530000D03*
X152514000Y-88880000D03*
D10*
X180725000Y-64500000D03*
X182375000Y-64500000D03*
X172475000Y-88000000D03*
X174125000Y-88000000D03*
D13*
X105000000Y-53925000D03*
X105000000Y-52275000D03*
D11*
X119091000Y-66937000D03*
X119091000Y-68587000D03*
X117450000Y-66937000D03*
X117450000Y-68587000D03*
D13*
X114350000Y-56883000D03*
X114350000Y-55233000D03*
D12*
X186225000Y-83900000D03*
X184575000Y-83900000D03*
X157213000Y-87872000D03*
X155563000Y-87872000D03*
D13*
X137084000Y-97587000D03*
X137084000Y-95937000D03*
D14*
X140900000Y-66100000D03*
X140900000Y-62300000D03*
X138500000Y-62300000D03*
X138500000Y-66100000D03*
D12*
X110085000Y-52420000D03*
X108435000Y-52420000D03*
X110085000Y-50520000D03*
X108435000Y-50520000D03*
D15*
X111450000Y-65800000D03*
X114250000Y-65800000D03*
D16*
X126525000Y-77950000D03*
X124975000Y-77950000D03*
D17*
X159725000Y-54800000D03*
X161275000Y-54800000D03*
D18*
X189900000Y-74825000D03*
X189900000Y-76375000D03*
D17*
X169075000Y-54000000D03*
X170625000Y-54000000D03*
D16*
X143320000Y-88372000D03*
X141770000Y-88372000D03*
D19*
X150856000Y-93727000D03*
X150856000Y-92177000D03*
D17*
X146215000Y-88372000D03*
X147765000Y-88372000D03*
X188125000Y-54026000D03*
X189675000Y-54026000D03*
D20*
X138800000Y-53350000D03*
X138800000Y-56850000D03*
D21*
X174037500Y-89900000D03*
X172162500Y-89900000D03*
D22*
X102860000Y-53797500D03*
X102860000Y-51922500D03*
D23*
X135000000Y-67250000D03*
X135000000Y-63750000D03*
D19*
X139243000Y-89980000D03*
X139243000Y-88430000D03*
D16*
X138939000Y-86411000D03*
X137389000Y-86411000D03*
D17*
X150925000Y-85700000D03*
X152475000Y-85700000D03*
X165925000Y-54000000D03*
X167475000Y-54000000D03*
D12*
X178175000Y-85700000D03*
X176525000Y-85700000D03*
X185343000Y-54026000D03*
X183693000Y-54026000D03*
X189725000Y-56248500D03*
X188075000Y-56248500D03*
D24*
X121100000Y-80375000D03*
X121100000Y-83675000D03*
X126000000Y-83675000D03*
X126000000Y-80375000D03*
D11*
X111240000Y-55233000D03*
X111240000Y-56883000D03*
X112800000Y-55225000D03*
X112800000Y-56875000D03*
D12*
X175120000Y-56248500D03*
X173470000Y-56248500D03*
D25*
X184203000Y-78045000D03*
X184203000Y-79315000D03*
X184203000Y-80585000D03*
X184203000Y-81855000D03*
X189153000Y-81855000D03*
X189153000Y-80585000D03*
X189153000Y-79315000D03*
X189153000Y-78045000D03*
D26*
X147243000Y-93904000D03*
X147243000Y-92634000D03*
X147243000Y-91364000D03*
X147243000Y-90094000D03*
X142293000Y-90094000D03*
X142293000Y-91364000D03*
X142293000Y-92634000D03*
X142293000Y-93904000D03*
D25*
X184203000Y-58979000D03*
X184203000Y-60249000D03*
X184203000Y-61519000D03*
X184203000Y-62789000D03*
X189153000Y-62789000D03*
X189153000Y-61519000D03*
X189153000Y-60249000D03*
X189153000Y-58979000D03*
D27*
X173402500Y-84305000D03*
X173402500Y-83655000D03*
X173402500Y-83005000D03*
X173402500Y-82355000D03*
X173402500Y-81705000D03*
X173402500Y-81055000D03*
X173402500Y-80405000D03*
X173402500Y-79755000D03*
X167677500Y-79755000D03*
X167677500Y-80405000D03*
X167677500Y-81055000D03*
X167677500Y-81705000D03*
X167677500Y-82355000D03*
X167677500Y-83005000D03*
X167677500Y-83655000D03*
X167677500Y-84305000D03*
D25*
X176225000Y-78045000D03*
X176225000Y-79315000D03*
X176225000Y-80585000D03*
X176225000Y-81855000D03*
X181175000Y-81855000D03*
X181175000Y-80585000D03*
X181175000Y-79315000D03*
X181175000Y-78045000D03*
D28*
X114050000Y-60900000D03*
D29*
X112350000Y-60900000D03*
X112350000Y-62900000D03*
X114250000Y-62900000D03*
D16*
X160325000Y-87872000D03*
X158775000Y-87872000D03*
D13*
X159660000Y-84569000D03*
X159660000Y-82919000D03*
X161310000Y-84569000D03*
X161310000Y-82919000D03*
X162966000Y-84569000D03*
X162966000Y-82919000D03*
X164610000Y-84569000D03*
X164610000Y-82919000D03*
D17*
X161825000Y-87872000D03*
X163375000Y-87872000D03*
D19*
X148133000Y-74867000D03*
X148133000Y-73317000D03*
X150900000Y-61375000D03*
X150900000Y-59825000D03*
D16*
X154075000Y-58800000D03*
X152525000Y-58800000D03*
D19*
X157658000Y-64961000D03*
X157658000Y-63411000D03*
D18*
X165600000Y-74225000D03*
X165600000Y-75775000D03*
X158039000Y-82969000D03*
X158039000Y-84519000D03*
D13*
X181900000Y-56150000D03*
X181900000Y-54500000D03*
D26*
X170103000Y-93967000D03*
X170103000Y-92697000D03*
X170103000Y-91427000D03*
X170103000Y-90157000D03*
X165153000Y-90157000D03*
X165153000Y-91427000D03*
X165153000Y-92697000D03*
X165153000Y-93967000D03*
D30*
X172600000Y-94750000D03*
X172600000Y-92250000D03*
D13*
X159700000Y-65011000D03*
X159700000Y-63361000D03*
X149300000Y-65011000D03*
X149300000Y-63361000D03*
X150928000Y-65011000D03*
X150928000Y-63361000D03*
D10*
X164263000Y-64948000D03*
X165913000Y-64948000D03*
D31*
X153150000Y-79919000D03*
X153950000Y-79919000D03*
X154750000Y-79919000D03*
X155550000Y-79919000D03*
X156350000Y-79919000D03*
X157150000Y-79919000D03*
X157950000Y-79919000D03*
X158750000Y-79919000D03*
X159550000Y-79919000D03*
X160350000Y-79919000D03*
X161150000Y-79919000D03*
D32*
X162850000Y-78219000D03*
X162850000Y-77419000D03*
X162850000Y-76619000D03*
X162850000Y-75819000D03*
X162850000Y-75019000D03*
X162850000Y-74219000D03*
X162850000Y-73419000D03*
X162850000Y-72619000D03*
X162850000Y-71819000D03*
X162850000Y-71019000D03*
X162850000Y-70219000D03*
D31*
X161150000Y-68519000D03*
X160350000Y-68519000D03*
X159550000Y-68519000D03*
X158750000Y-68519000D03*
X157950000Y-68519000D03*
X157150000Y-68519000D03*
X156350000Y-68519000D03*
X155550000Y-68519000D03*
X154750000Y-68519000D03*
X153950000Y-68519000D03*
X153150000Y-68519000D03*
D32*
X151450000Y-70219000D03*
X151450000Y-71019000D03*
X151450000Y-71819000D03*
X151450000Y-72619000D03*
X151450000Y-73419000D03*
X151450000Y-74219000D03*
X151450000Y-75019000D03*
X151450000Y-75819000D03*
X151450000Y-76619000D03*
X151450000Y-77419000D03*
X151450000Y-78219000D03*
D33*
X173548500Y-58537000D03*
X173548500Y-60437000D03*
X175423500Y-59487000D03*
D17*
X112425000Y-59000000D03*
X113975000Y-59000000D03*
D12*
X115525000Y-90200000D03*
X113875000Y-90200000D03*
X115525000Y-91800000D03*
X113875000Y-91800000D03*
D34*
X164574500Y-56584500D03*
X164574500Y-57234500D03*
X164574500Y-57884500D03*
X164574500Y-58534500D03*
X164574500Y-59184500D03*
X164574500Y-59834500D03*
X164574500Y-60484500D03*
X170299500Y-60484500D03*
X170299500Y-59834500D03*
X170299500Y-59184500D03*
X170299500Y-58534500D03*
X170299500Y-57884500D03*
X170299500Y-57234500D03*
X170299500Y-56584500D03*
D19*
X181800000Y-62975000D03*
X181800000Y-61425000D03*
D17*
X113925000Y-93400000D03*
X115475000Y-93400000D03*
D18*
X139243000Y-95923000D03*
X139243000Y-97473000D03*
D10*
X141900000Y-52980000D03*
X143550000Y-52980000D03*
D35*
X143250000Y-56637500D03*
X145150000Y-56637500D03*
X144200000Y-54762500D03*
D12*
X139052000Y-82029500D03*
X137402000Y-82029500D03*
D14*
X146070000Y-85980000D03*
X146070000Y-82180000D03*
X143670000Y-82180000D03*
X143670000Y-85980000D03*
D34*
X155875000Y-90112000D03*
X155875000Y-90762000D03*
X155875000Y-91412000D03*
X155875000Y-92062000D03*
X155875000Y-92712000D03*
X155875000Y-93362000D03*
X155875000Y-94012000D03*
X161600000Y-94012000D03*
X161600000Y-93362000D03*
X161600000Y-92712000D03*
X161600000Y-92062000D03*
X161600000Y-91412000D03*
X161600000Y-90762000D03*
X161600000Y-90112000D03*
D10*
X167375000Y-64900000D03*
X169025000Y-64900000D03*
D16*
X129275000Y-98000000D03*
X127725000Y-98000000D03*
D36*
X128550000Y-78825000D03*
X128550000Y-81125000D03*
D37*
X134850000Y-81125000D03*
D36*
X128550000Y-83425000D03*
D38*
X133875000Y-96000000D03*
X132525000Y-96000000D03*
D39*
X128500000Y-69750000D03*
X128500000Y-73050000D03*
D38*
X125025000Y-72500000D03*
X126375000Y-72500000D03*
D12*
X124025000Y-66500000D03*
X122375000Y-66500000D03*
D40*
X119600000Y-62600000D03*
D41*
X119750000Y-62050000D03*
X119750000Y-61550000D03*
X119750000Y-61050000D03*
X119750000Y-60550000D03*
D40*
X119600000Y-60000000D03*
D42*
X119050000Y-59850000D03*
X118550000Y-59850000D03*
X118050000Y-59850000D03*
X117550000Y-59850000D03*
D40*
X117000000Y-60000000D03*
D41*
X116850000Y-60550000D03*
X116850000Y-61050000D03*
X116850000Y-61550000D03*
X116850000Y-62050000D03*
D40*
X117000000Y-62600000D03*
D42*
X117550000Y-62750000D03*
X118050000Y-62750000D03*
X118550000Y-62750000D03*
X119050000Y-62750000D03*
D43*
X118300000Y-61300000D03*
D16*
X118575000Y-55400000D03*
X117025000Y-55400000D03*
X118575000Y-56950000D03*
X117025000Y-56950000D03*
D13*
X169030000Y-78135000D03*
X169030000Y-76485000D03*
X170680000Y-78135000D03*
X170680000Y-76485000D03*
D12*
X158125000Y-54800000D03*
X156475000Y-54800000D03*
D13*
X172330000Y-78135000D03*
X172330000Y-76485000D03*
D19*
X126960000Y-96195000D03*
X126960000Y-94645000D03*
D44*
X107145000Y-58650000D03*
X107145000Y-59450000D03*
D45*
X107145000Y-60650000D03*
X107145000Y-61650000D03*
X107145000Y-62150000D03*
X107145000Y-63150000D03*
D44*
X107145000Y-64350000D03*
X107145000Y-65150000D03*
X107145000Y-65150000D03*
X107145000Y-64350000D03*
D45*
X107145000Y-63650000D03*
X107145000Y-62650000D03*
X107145000Y-61150000D03*
X107145000Y-60150000D03*
D44*
X107145000Y-59450000D03*
X107145000Y-58650000D03*
D46*
X106200000Y-56570000D03*
X102200000Y-56570000D03*
X106200000Y-67230000D03*
X102200000Y-67230000D03*
D12*
X134025000Y-85500000D03*
X132375000Y-85500000D03*
D14*
X146150000Y-66100000D03*
X146150000Y-62300000D03*
X143750000Y-62300000D03*
X143750000Y-66100000D03*
D16*
X152475000Y-87300000D03*
X150925000Y-87300000D03*
D17*
X177725000Y-63850000D03*
X179275000Y-63850000D03*
D10*
X165775000Y-88000000D03*
X167425000Y-88000000D03*
X169075000Y-88000000D03*
X170725000Y-88000000D03*
D25*
X156905000Y-56635000D03*
X156905000Y-57905000D03*
X156905000Y-59175000D03*
X156905000Y-60445000D03*
X161855000Y-60445000D03*
X161855000Y-59175000D03*
X161855000Y-57905000D03*
X161855000Y-56635000D03*
D19*
X128550000Y-68175000D03*
X128550000Y-66625000D03*
X130100000Y-68175000D03*
X130100000Y-66625000D03*
D47*
X120400000Y-98000000D03*
X122400000Y-98000000D03*
D48*
X118050000Y-92700000D03*
X124750000Y-92700000D03*
D18*
X127000000Y-91525000D03*
X127000000Y-93075000D03*
D10*
X187025000Y-64500000D03*
X188675000Y-64500000D03*
D12*
X185425000Y-64500000D03*
X183775000Y-64500000D03*
D18*
X181800000Y-58325000D03*
X181800000Y-59875000D03*
D49*
X153700000Y-64550000D03*
X153700000Y-60850000D03*
D19*
X127050000Y-66475000D03*
X127050000Y-64925000D03*
D12*
X134025000Y-87100000D03*
X132375000Y-87100000D03*
D50*
X130350000Y-91400000D03*
X130350000Y-92700000D03*
X131650000Y-91400000D03*
X131650000Y-92700000D03*
D51*
X129062500Y-90800000D03*
X129062500Y-91300000D03*
X129062500Y-91800000D03*
X129062500Y-92300000D03*
X129062500Y-92800000D03*
X129062500Y-93300000D03*
D52*
X129750000Y-93987500D03*
X130250000Y-93987500D03*
X130750000Y-93987500D03*
X131250000Y-93987500D03*
X131750000Y-93987500D03*
X132250000Y-93987500D03*
D51*
X132937500Y-93300000D03*
X132937500Y-92800000D03*
X132937500Y-92300000D03*
X132937500Y-91800000D03*
X132937500Y-91300000D03*
X132937500Y-90800000D03*
D52*
X132250000Y-90112500D03*
X131750000Y-90112500D03*
X131250000Y-90112500D03*
X130750000Y-90112500D03*
X130250000Y-90112500D03*
X129750000Y-90112500D03*
D53*
X115700000Y-80150000D03*
X115700000Y-79050000D03*
X115700000Y-77950000D03*
X115700000Y-76850000D03*
X115700000Y-75750000D03*
X115700000Y-74650000D03*
X115700000Y-73550000D03*
X115700000Y-72450000D03*
X115700000Y-71350000D03*
D54*
X115200000Y-70150000D03*
D55*
X105600000Y-70150000D03*
D56*
X115200000Y-84750000D03*
D55*
X105600000Y-85650000D03*
D12*
X178150000Y-84130000D03*
X176500000Y-84130000D03*
D57*
X161976000Y-63511000D03*
X161976000Y-64861000D03*
D16*
X130875000Y-85500000D03*
X129325000Y-85500000D03*
X162775000Y-62100000D03*
X161225000Y-62100000D03*
D18*
X135000000Y-92325000D03*
X135000000Y-93875000D03*
D17*
X129325000Y-87100000D03*
X130875000Y-87100000D03*
D18*
X135600000Y-54825000D03*
X135600000Y-56375000D03*
X137900000Y-58525000D03*
X137900000Y-60075000D03*
X131400000Y-54725000D03*
X131400000Y-56275000D03*
D10*
X131775000Y-61500000D03*
X133425000Y-61500000D03*
D11*
X136300000Y-58275000D03*
X136300000Y-59925000D03*
D58*
X132362500Y-57950000D03*
X132362500Y-58900000D03*
X132362500Y-59850000D03*
X134637500Y-59850000D03*
X134637500Y-58900000D03*
X134637500Y-57950000D03*
D39*
X141300000Y-55050000D03*
X141300000Y-58350000D03*
D11*
X125500000Y-64875000D03*
X125500000Y-66525000D03*
D12*
X132210000Y-73200000D03*
X130560000Y-73200000D03*
D20*
X135700000Y-69575000D03*
X135700000Y-73075000D03*
D59*
X133465000Y-71600000D03*
X133465000Y-69700000D03*
X131590000Y-70650000D03*
D16*
X132075000Y-53225000D03*
X130525000Y-53225000D03*
D38*
X134175000Y-55700000D03*
X132825000Y-55700000D03*
D12*
X136450000Y-61500000D03*
X134800000Y-61500000D03*
D18*
X131675000Y-64675000D03*
X131675000Y-66225000D03*
D10*
X125725000Y-87100000D03*
X127375000Y-87100000D03*
X122075000Y-87600000D03*
X123725000Y-87600000D03*
D17*
X179750000Y-84200000D03*
X181300000Y-84200000D03*
D60*
X126337500Y-70060000D03*
X126337500Y-69110000D03*
X126337500Y-68160000D03*
X124062500Y-68160000D03*
X124062500Y-70060000D03*
D12*
X123725000Y-86000000D03*
X122075000Y-86000000D03*
D61*
X117000000Y-88600000D03*
X117000000Y-87025000D03*
D13*
X183500000Y-70825000D03*
X183500000Y-69175000D03*
D62*
X186645000Y-72075000D03*
X187915000Y-72075000D03*
X189185000Y-72075000D03*
X190455000Y-72075000D03*
X190455000Y-67125000D03*
X189185000Y-67125000D03*
X187915000Y-67125000D03*
X186645000Y-67125000D03*
D61*
X113800000Y-88600000D03*
X113800000Y-87025000D03*
D10*
X174625000Y-63850000D03*
X176275000Y-63850000D03*
D25*
X176425000Y-66195000D03*
X176425000Y-67465000D03*
X176425000Y-68735000D03*
X176425000Y-70005000D03*
X181375000Y-70005000D03*
X181375000Y-68735000D03*
X181375000Y-67465000D03*
X181375000Y-66195000D03*
D12*
X185175000Y-74600000D03*
X183525000Y-74600000D03*
D10*
X125725000Y-88750000D03*
X127375000Y-88750000D03*
D63*
X115400000Y-87025000D03*
X115400000Y-88600000D03*
D18*
X185050000Y-67825000D03*
X185050000Y-69375000D03*
D63*
X118650000Y-87025000D03*
X118650000Y-88600000D03*
D11*
X183500000Y-66125000D03*
X183500000Y-67775000D03*
M02*
