G04 #@! TF.GenerationSoftware,KiCad,Pcbnew,6.0.6+dfsg-1*
G04 #@! TF.CreationDate,2022-07-23T03:11:20+08:00*
G04 #@! TF.ProjectId,PSLab,50534c61-622e-46b6-9963-61645f706362,v6.0-beta*
G04 #@! TF.SameCoordinates,Original*
G04 #@! TF.FileFunction,Soldermask,Bot*
G04 #@! TF.FilePolarity,Negative*
%FSLAX46Y46*%
G04 Gerber Fmt 4.6, Leading zero omitted, Abs format (unit mm)*
G04 Created by KiCad (PCBNEW 6.0.6+dfsg-1) date 2022-07-23 03:11:20*
%MOMM*%
%LPD*%
G01*
G04 APERTURE LIST*
%ADD10C,0.010000*%
%ADD11C,5.600000*%
%ADD12R,1.700000X1.700000*%
%ADD13O,1.700000X1.700000*%
%ADD14C,0.650000*%
%ADD15C,0.500000*%
%ADD16O,1.727200X1.727200*%
%ADD17R,1.727200X1.727200*%
%ADD18R,0.500000X0.500000*%
G04 APERTURE END LIST*
G36*
X102960182Y-54791875D02*
G01*
X102967630Y-54767745D01*
X102971717Y-54749746D01*
X102971762Y-54741066D01*
X102971130Y-54740722D01*
X102957116Y-54743777D01*
X102933990Y-54751975D01*
X102905119Y-54763870D01*
X102873870Y-54778016D01*
X102843608Y-54792965D01*
X102821482Y-54805044D01*
X102784467Y-54830188D01*
X102743600Y-54864007D01*
X102702385Y-54903133D01*
X102664322Y-54944198D01*
X102632914Y-54983833D01*
X102627531Y-54991602D01*
X102581323Y-55069232D01*
X102540454Y-55155636D01*
X102506987Y-55245866D01*
X102482983Y-55334970D01*
X102481461Y-55342253D01*
X102474465Y-55381031D01*
X102467531Y-55427294D01*
X102461113Y-55477107D01*
X102455667Y-55526535D01*
X102451647Y-55571645D01*
X102449507Y-55608502D01*
X102449278Y-55620860D01*
X102448508Y-55643692D01*
X102446501Y-55659589D01*
X102443986Y-55664860D01*
X102435833Y-55664348D01*
X102415445Y-55662975D01*
X102384666Y-55660866D01*
X102345339Y-55658149D01*
X102299306Y-55654951D01*
X102248410Y-55651398D01*
X102241139Y-55650889D01*
X102189651Y-55647295D01*
X102142712Y-55644039D01*
X102102178Y-55641247D01*
X102069905Y-55639048D01*
X102047748Y-55637567D01*
X102037563Y-55636932D01*
X102037209Y-55636919D01*
X102034622Y-55630204D01*
X102033335Y-55611718D01*
X102033226Y-55583728D01*
X102034175Y-55548500D01*
X102036061Y-55508304D01*
X102038765Y-55465405D01*
X102042165Y-55422072D01*
X102046140Y-55380572D01*
X102050571Y-55343172D01*
X102054103Y-55319278D01*
X102084208Y-55173137D01*
X102124555Y-55036695D01*
X102175166Y-54909920D01*
X102236062Y-54792779D01*
X102307267Y-54685242D01*
X102388802Y-54587275D01*
X102480689Y-54498847D01*
X102582951Y-54419926D01*
X102695610Y-54350479D01*
X102742765Y-54325758D01*
X102838551Y-54282738D01*
X102939848Y-54247080D01*
X103049328Y-54217950D01*
X103155050Y-54196971D01*
X103198872Y-54191016D01*
X103253782Y-54185980D01*
X103316781Y-54181941D01*
X103384871Y-54178976D01*
X103455053Y-54177164D01*
X103524328Y-54176582D01*
X103589699Y-54177310D01*
X103648166Y-54179424D01*
X103695649Y-54182894D01*
X103783812Y-54194272D01*
X103871316Y-54210383D01*
X103955210Y-54230475D01*
X104032539Y-54253793D01*
X104100351Y-54279584D01*
X104131656Y-54294116D01*
X104216126Y-54344098D01*
X104291007Y-54404232D01*
X104355907Y-54473964D01*
X104410433Y-54552743D01*
X104454191Y-54640015D01*
X104486789Y-54735228D01*
X104504897Y-54818733D01*
X104518899Y-54936088D01*
X104520925Y-55046114D01*
X104510909Y-55149046D01*
X104488787Y-55245122D01*
X104454493Y-55334575D01*
X104407963Y-55417644D01*
X104349131Y-55494564D01*
X104306545Y-55539177D01*
X104226386Y-55606950D01*
X104137217Y-55663911D01*
X104039181Y-55709988D01*
X103932422Y-55745111D01*
X103864140Y-55760915D01*
X103835402Y-55765198D01*
X103797035Y-55768963D01*
X103752790Y-55772044D01*
X103706419Y-55774272D01*
X103661673Y-55775477D01*
X103622302Y-55775493D01*
X103592058Y-55774149D01*
X103585222Y-55773443D01*
X103475013Y-55754704D01*
X103375759Y-55727396D01*
X103286996Y-55691241D01*
X103208257Y-55645959D01*
X103139077Y-55591270D01*
X103078992Y-55526893D01*
X103027535Y-55452550D01*
X103014958Y-55430545D01*
X102978642Y-55354144D01*
X102951108Y-55272620D01*
X102931773Y-55183743D01*
X102920054Y-55085285D01*
X102918417Y-55061750D01*
X102918681Y-54984552D01*
X102929238Y-54905452D01*
X102929968Y-54902576D01*
X103324938Y-54902576D01*
X103325165Y-54971431D01*
X103331655Y-55036586D01*
X103344402Y-55095023D01*
X103362669Y-55142291D01*
X103394249Y-55189417D01*
X103436557Y-55228816D01*
X103488262Y-55260084D01*
X103548030Y-55282817D01*
X103614530Y-55296612D01*
X103686428Y-55301064D01*
X103762392Y-55295771D01*
X103828639Y-55283433D01*
X103899646Y-55260839D01*
X103960855Y-55229831D01*
X104011677Y-55191197D01*
X104051520Y-55145724D01*
X104079796Y-55094200D01*
X104095914Y-55037411D01*
X104099285Y-54976147D01*
X104093519Y-54929867D01*
X104077505Y-54874681D01*
X104052208Y-54828291D01*
X104017976Y-54789478D01*
X103963587Y-54747020D01*
X103900011Y-54713147D01*
X103826162Y-54687355D01*
X103768034Y-54673890D01*
X103733926Y-54668589D01*
X103690764Y-54663722D01*
X103641819Y-54659475D01*
X103590360Y-54656034D01*
X103539657Y-54653588D01*
X103492978Y-54652322D01*
X103453595Y-54652424D01*
X103424777Y-54654080D01*
X103423643Y-54654211D01*
X103378480Y-54659584D01*
X103361891Y-54703980D01*
X103343296Y-54765832D01*
X103330980Y-54833037D01*
X103324938Y-54902576D01*
X102929968Y-54902576D01*
X102950522Y-54821652D01*
X102960182Y-54791875D01*
G37*
D10*
X102960182Y-54791875D02*
X102967630Y-54767745D01*
X102971717Y-54749746D01*
X102971762Y-54741066D01*
X102971130Y-54740722D01*
X102957116Y-54743777D01*
X102933990Y-54751975D01*
X102905119Y-54763870D01*
X102873870Y-54778016D01*
X102843608Y-54792965D01*
X102821482Y-54805044D01*
X102784467Y-54830188D01*
X102743600Y-54864007D01*
X102702385Y-54903133D01*
X102664322Y-54944198D01*
X102632914Y-54983833D01*
X102627531Y-54991602D01*
X102581323Y-55069232D01*
X102540454Y-55155636D01*
X102506987Y-55245866D01*
X102482983Y-55334970D01*
X102481461Y-55342253D01*
X102474465Y-55381031D01*
X102467531Y-55427294D01*
X102461113Y-55477107D01*
X102455667Y-55526535D01*
X102451647Y-55571645D01*
X102449507Y-55608502D01*
X102449278Y-55620860D01*
X102448508Y-55643692D01*
X102446501Y-55659589D01*
X102443986Y-55664860D01*
X102435833Y-55664348D01*
X102415445Y-55662975D01*
X102384666Y-55660866D01*
X102345339Y-55658149D01*
X102299306Y-55654951D01*
X102248410Y-55651398D01*
X102241139Y-55650889D01*
X102189651Y-55647295D01*
X102142712Y-55644039D01*
X102102178Y-55641247D01*
X102069905Y-55639048D01*
X102047748Y-55637567D01*
X102037563Y-55636932D01*
X102037209Y-55636919D01*
X102034622Y-55630204D01*
X102033335Y-55611718D01*
X102033226Y-55583728D01*
X102034175Y-55548500D01*
X102036061Y-55508304D01*
X102038765Y-55465405D01*
X102042165Y-55422072D01*
X102046140Y-55380572D01*
X102050571Y-55343172D01*
X102054103Y-55319278D01*
X102084208Y-55173137D01*
X102124555Y-55036695D01*
X102175166Y-54909920D01*
X102236062Y-54792779D01*
X102307267Y-54685242D01*
X102388802Y-54587275D01*
X102480689Y-54498847D01*
X102582951Y-54419926D01*
X102695610Y-54350479D01*
X102742765Y-54325758D01*
X102838551Y-54282738D01*
X102939848Y-54247080D01*
X103049328Y-54217950D01*
X103155050Y-54196971D01*
X103198872Y-54191016D01*
X103253782Y-54185980D01*
X103316781Y-54181941D01*
X103384871Y-54178976D01*
X103455053Y-54177164D01*
X103524328Y-54176582D01*
X103589699Y-54177310D01*
X103648166Y-54179424D01*
X103695649Y-54182894D01*
X103783812Y-54194272D01*
X103871316Y-54210383D01*
X103955210Y-54230475D01*
X104032539Y-54253793D01*
X104100351Y-54279584D01*
X104131656Y-54294116D01*
X104216126Y-54344098D01*
X104291007Y-54404232D01*
X104355907Y-54473964D01*
X104410433Y-54552743D01*
X104454191Y-54640015D01*
X104486789Y-54735228D01*
X104504897Y-54818733D01*
X104518899Y-54936088D01*
X104520925Y-55046114D01*
X104510909Y-55149046D01*
X104488787Y-55245122D01*
X104454493Y-55334575D01*
X104407963Y-55417644D01*
X104349131Y-55494564D01*
X104306545Y-55539177D01*
X104226386Y-55606950D01*
X104137217Y-55663911D01*
X104039181Y-55709988D01*
X103932422Y-55745111D01*
X103864140Y-55760915D01*
X103835402Y-55765198D01*
X103797035Y-55768963D01*
X103752790Y-55772044D01*
X103706419Y-55774272D01*
X103661673Y-55775477D01*
X103622302Y-55775493D01*
X103592058Y-55774149D01*
X103585222Y-55773443D01*
X103475013Y-55754704D01*
X103375759Y-55727396D01*
X103286996Y-55691241D01*
X103208257Y-55645959D01*
X103139077Y-55591270D01*
X103078992Y-55526893D01*
X103027535Y-55452550D01*
X103014958Y-55430545D01*
X102978642Y-55354144D01*
X102951108Y-55272620D01*
X102931773Y-55183743D01*
X102920054Y-55085285D01*
X102918417Y-55061750D01*
X102918681Y-54984552D01*
X102929238Y-54905452D01*
X102929968Y-54902576D01*
X103324938Y-54902576D01*
X103325165Y-54971431D01*
X103331655Y-55036586D01*
X103344402Y-55095023D01*
X103362669Y-55142291D01*
X103394249Y-55189417D01*
X103436557Y-55228816D01*
X103488262Y-55260084D01*
X103548030Y-55282817D01*
X103614530Y-55296612D01*
X103686428Y-55301064D01*
X103762392Y-55295771D01*
X103828639Y-55283433D01*
X103899646Y-55260839D01*
X103960855Y-55229831D01*
X104011677Y-55191197D01*
X104051520Y-55145724D01*
X104079796Y-55094200D01*
X104095914Y-55037411D01*
X104099285Y-54976147D01*
X104093519Y-54929867D01*
X104077505Y-54874681D01*
X104052208Y-54828291D01*
X104017976Y-54789478D01*
X103963587Y-54747020D01*
X103900011Y-54713147D01*
X103826162Y-54687355D01*
X103768034Y-54673890D01*
X103733926Y-54668589D01*
X103690764Y-54663722D01*
X103641819Y-54659475D01*
X103590360Y-54656034D01*
X103539657Y-54653588D01*
X103492978Y-54652322D01*
X103453595Y-54652424D01*
X103424777Y-54654080D01*
X103423643Y-54654211D01*
X103378480Y-54659584D01*
X103361891Y-54703980D01*
X103343296Y-54765832D01*
X103330980Y-54833037D01*
X103324938Y-54902576D01*
X102929968Y-54902576D01*
X102950522Y-54821652D01*
X102960182Y-54791875D01*
D11*
X113940000Y-97440000D03*
X190150000Y-49200000D03*
X115210000Y-49190000D03*
X196480000Y-97430000D03*
D12*
X196520000Y-54280000D03*
D13*
X193980000Y-54280000D03*
X196520000Y-56820000D03*
X193980000Y-56820000D03*
X196520000Y-59360000D03*
X193980000Y-59360000D03*
X196520000Y-61900000D03*
X193980000Y-61900000D03*
X196520000Y-64440000D03*
X193980000Y-64440000D03*
X196520000Y-66980000D03*
X193980000Y-66980000D03*
X196520000Y-69520000D03*
X193980000Y-69520000D03*
X196520000Y-72060000D03*
X193980000Y-72060000D03*
X196520000Y-74600000D03*
X193980000Y-74600000D03*
X196520000Y-77140000D03*
X193980000Y-77140000D03*
X196520000Y-79680000D03*
X193980000Y-79680000D03*
X196520000Y-82220000D03*
X193980000Y-82220000D03*
X196520000Y-84760000D03*
X193980000Y-84760000D03*
X196520000Y-87300000D03*
X193980000Y-87300000D03*
D12*
X122860000Y-49200000D03*
D13*
X125400000Y-49200000D03*
X127940000Y-49200000D03*
X130480000Y-49200000D03*
X133020000Y-49200000D03*
X135560000Y-49200000D03*
X138100000Y-49200000D03*
X140640000Y-49200000D03*
X143180000Y-49200000D03*
X145720000Y-49200000D03*
X148260000Y-49200000D03*
X150800000Y-49200000D03*
X153340000Y-49200000D03*
X155880000Y-49200000D03*
X158420000Y-49200000D03*
X160960000Y-49200000D03*
X163500000Y-49200000D03*
X166040000Y-49200000D03*
X168580000Y-49200000D03*
X171120000Y-49200000D03*
X173660000Y-49200000D03*
X176200000Y-49200000D03*
X178740000Y-49200000D03*
X181280000Y-49200000D03*
X183820000Y-49200000D03*
D12*
X143180000Y-97494000D03*
D13*
X145720000Y-97494000D03*
X148260000Y-97494000D03*
X150800000Y-97494000D03*
X153340000Y-97494000D03*
X155880000Y-97494000D03*
X158420000Y-97494000D03*
X160960000Y-97494000D03*
X163500000Y-97494000D03*
X166040000Y-97494000D03*
X168580000Y-97494000D03*
X171120000Y-97494000D03*
X173660000Y-97494000D03*
D12*
X144660000Y-69012000D03*
D13*
X144660000Y-71552000D03*
X144660000Y-74092000D03*
X144660000Y-76632000D03*
X144660000Y-79172000D03*
D14*
X105700000Y-64790000D03*
X105700000Y-59010000D03*
D15*
X105200000Y-72950000D03*
X105200000Y-80950000D03*
D16*
X103365500Y-88697000D03*
D17*
X103365500Y-91237000D03*
D16*
X105905500Y-88697000D03*
X105905500Y-91237000D03*
X108445500Y-88697000D03*
X108445500Y-91237000D03*
X110985500Y-88697000D03*
X110985500Y-91237000D03*
D18*
X109637000Y-62991500D03*
X109637000Y-60771500D03*
X109639600Y-58517700D03*
X109637000Y-65202000D03*
M02*
