<?xml version="1.0" encoding="utf-8"?>
<!DOCTYPE svg PUBLIC "-//W3C//DTD SVG 20010904//EN" "http://www.w3.org/TR/2001/REC-SVG-20010904/DTD/svg10.dtd">
<svg xmlns="http://www.w3.org/2000/svg" xml:space="preserve" xmlns:xlink="http://www.w3.org/1999/xlink" width="266" height="39.714" viewBox="0 0 266 39.714">
<desc></desc>
<rect x="0" y="0" width="266" height="39.714" style="fill:#ffffff;" />
<line fill="none" style="stroke:#000000; stroke-width:2;" x1="1" y1="0" x2="1" y2="30"/>
<line fill="none" style="stroke:#000000; stroke-width:1;" x1="3.5" y1="0" x2="3.5" y2="30"/>
<line fill="none" style="stroke:#000000; stroke-width:1;" x1="6.5" y1="0" x2="6.5" y2="30"/>
<line fill="none" style="stroke:#000000; stroke-width:1;" x1="11.5" y1="0" x2="11.5" y2="30"/>
<line fill="none" style="stroke:#000000; stroke-width:2;" x1="15" y1="0" x2="15" y2="30"/>
<line fill="none" style="stroke:#000000; stroke-width:1;" x1="20.5" y1="0" x2="20.5" y2="30"/>
<line fill="none" style="stroke:#000000; stroke-width:1;" x1="22.5" y1="0" x2="22.5" y2="30"/>
<line fill="none" style="stroke:#000000; stroke-width:4;" x1="27" y1="0" x2="27" y2="30"/>
<line fill="none" style="stroke:#000000; stroke-width:1;" x1="30.5" y1="0" x2="30.5" y2="30"/>
<line fill="none" style="stroke:#000000; stroke-width:1;" x1="33.5" y1="0" x2="33.5" y2="30"/>
<line fill="none" style="stroke:#000000; stroke-width:4;" x1="38" y1="0" x2="38" y2="30"/>
<line fill="none" style="stroke:#000000; stroke-width:1;" x1="41.5" y1="0" x2="41.5" y2="30"/>
<line fill="none" style="stroke:#000000; stroke-width:1;" x1="44.5" y1="0" x2="44.5" y2="30"/>
<line fill="none" style="stroke:#000000; stroke-width:1;" x1="46.5" y1="0" x2="46.5" y2="30"/>
<line fill="none" style="stroke:#000000; stroke-width:4;" x1="51" y1="0" x2="51" y2="30"/>
<line fill="none" style="stroke:#000000; stroke-width:1;" x1="55.5" y1="0" x2="55.5" y2="30"/>
<line fill="none" style="stroke:#000000; stroke-width:4;" x1="59" y1="0" x2="59" y2="30"/>
<line fill="none" style="stroke:#000000; stroke-width:1;" x1="63.5" y1="0" x2="63.5" y2="30"/>
<line fill="none" style="stroke:#000000; stroke-width:3;" x1="67.5" y1="0" x2="67.5" y2="30"/>
<line fill="none" style="stroke:#000000; stroke-width:1;" x1="71.5" y1="0" x2="71.5" y2="30"/>
<line fill="none" style="stroke:#000000; stroke-width:2;" x1="75" y1="0" x2="75" y2="30"/>
<line fill="none" style="stroke:#000000; stroke-width:1;" x1="77.5" y1="0" x2="77.5" y2="30"/>
<line fill="none" style="stroke:#000000; stroke-width:3;" x1="80.5" y1="0" x2="80.5" y2="30"/>
<line fill="none" style="stroke:#000000; stroke-width:2;" x1="85" y1="0" x2="85" y2="30"/>
<line fill="none" style="stroke:#000000; stroke-width:1;" x1="88.5" y1="0" x2="88.5" y2="30"/>
<line fill="none" style="stroke:#000000; stroke-width:3;" x1="91.5" y1="0" x2="91.5" y2="30"/>
<line fill="none" style="stroke:#000000; stroke-width:2;" x1="96" y1="0" x2="96" y2="30"/>
<line fill="none" style="stroke:#000000; stroke-width:1;" x1="99.5" y1="0" x2="99.5" y2="30"/>
<line fill="none" style="stroke:#000000; stroke-width:2;" x1="103" y1="0" x2="103" y2="30"/>
<line fill="none" style="stroke:#000000; stroke-width:1;" x1="105.5" y1="0" x2="105.5" y2="30"/>
<line fill="none" style="stroke:#000000; stroke-width:1;" x1="110.5" y1="0" x2="110.5" y2="30"/>
<line fill="none" style="stroke:#000000; stroke-width:4;" x1="116" y1="0" x2="116" y2="30"/>
<line fill="none" style="stroke:#000000; stroke-width:1;" x1="119.5" y1="0" x2="119.5" y2="30"/>
<line fill="none" style="stroke:#000000; stroke-width:1;" x1="121.5" y1="0" x2="121.5" y2="30"/>
<line fill="none" style="stroke:#000000; stroke-width:4;" x1="127" y1="0" x2="127" y2="30"/>
<line fill="none" style="stroke:#000000; stroke-width:1;" x1="130.5" y1="0" x2="130.5" y2="30"/>
<line fill="none" style="stroke:#000000; stroke-width:1;" x1="132.5" y1="0" x2="132.5" y2="30"/>
<line fill="none" style="stroke:#000000; stroke-width:2;" x1="136" y1="0" x2="136" y2="30"/>
<line fill="none" style="stroke:#000000; stroke-width:3;" x1="140.5" y1="0" x2="140.5" y2="30"/>
<line fill="none" style="stroke:#000000; stroke-width:1;" x1="143.5" y1="0" x2="143.5" y2="30"/>
<line fill="none" style="stroke:#000000; stroke-width:2;" x1="147" y1="0" x2="147" y2="30"/>
<line fill="none" style="stroke:#000000; stroke-width:1;" x1="149.5" y1="0" x2="149.5" y2="30"/>
<line fill="none" style="stroke:#000000; stroke-width:2;" x1="155" y1="0" x2="155" y2="30"/>
<line fill="none" style="stroke:#000000; stroke-width:1;" x1="158.5" y1="0" x2="158.5" y2="30"/>
<line fill="none" style="stroke:#000000; stroke-width:1;" x1="160.5" y1="0" x2="160.5" y2="30"/>
<line fill="none" style="stroke:#000000; stroke-width:1;" x1="165.5" y1="0" x2="165.5" y2="30"/>
<line fill="none" style="stroke:#000000; stroke-width:3;" x1="168.5" y1="0" x2="168.5" y2="30"/>
<line fill="none" style="stroke:#000000; stroke-width:2;" x1="173" y1="0" x2="173" y2="30"/>
<line fill="none" style="stroke:#000000; stroke-width:4;" x1="178" y1="0" x2="178" y2="30"/>
<line fill="none" style="stroke:#000000; stroke-width:1;" x1="182.5" y1="0" x2="182.5" y2="30"/>
<line fill="none" style="stroke:#000000; stroke-width:1;" x1="185.5" y1="0" x2="185.5" y2="30"/>
<line fill="none" style="stroke:#000000; stroke-width:1;" x1="187.5" y1="0" x2="187.5" y2="30"/>
<line fill="none" style="stroke:#000000; stroke-width:2;" x1="190" y1="0" x2="190" y2="30"/>
<line fill="none" style="stroke:#000000; stroke-width:1;" x1="195.5" y1="0" x2="195.5" y2="30"/>
<line fill="none" style="stroke:#000000; stroke-width:4;" x1="200" y1="0" x2="200" y2="30"/>
<line fill="none" style="stroke:#000000; stroke-width:3;" x1="204.5" y1="0" x2="204.5" y2="30"/>
<line fill="none" style="stroke:#000000; stroke-width:1;" x1="207.5" y1="0" x2="207.5" y2="30"/>
<line fill="none" style="stroke:#000000; stroke-width:1;" x1="209.5" y1="0" x2="209.5" y2="30"/>
<line fill="none" style="stroke:#000000; stroke-width:3;" x1="212.5" y1="0" x2="212.5" y2="30"/>
<line fill="none" style="stroke:#000000; stroke-width:2;" x1="216" y1="0" x2="216" y2="30"/>
<line fill="none" style="stroke:#000000; stroke-width:2;" x1="221" y1="0" x2="221" y2="30"/>
<line fill="none" style="stroke:#000000; stroke-width:3;" x1="224.5" y1="0" x2="224.5" y2="30"/>
<line fill="none" style="stroke:#000000; stroke-width:1;" x1="227.5" y1="0" x2="227.5" y2="30"/>
<line fill="none" style="stroke:#000000; stroke-width:2;" x1="232" y1="0" x2="232" y2="30"/>
<line fill="none" style="stroke:#000000; stroke-width:1;" x1="237.5" y1="0" x2="237.5" y2="30"/>
<line fill="none" style="stroke:#000000; stroke-width:1;" x1="239.5" y1="0" x2="239.5" y2="30"/>
<line fill="none" style="stroke:#000000; stroke-width:1;" x1="242.5" y1="0" x2="242.5" y2="30"/>
<line fill="none" style="stroke:#000000; stroke-width:4;" x1="247" y1="0" x2="247" y2="30"/>
<line fill="none" style="stroke:#000000; stroke-width:1;" x1="251.5" y1="0" x2="251.5" y2="30"/>
<line fill="none" style="stroke:#000000; stroke-width:2;" x1="254" y1="0" x2="254" y2="30"/>
<line fill="none" style="stroke:#000000; stroke-width:3;" x1="259.5" y1="0" x2="259.5" y2="30"/>
<line fill="none" style="stroke:#000000; stroke-width:1;" x1="262.5" y1="0" x2="262.5" y2="30"/>
<line fill="none" style="stroke:#000000; stroke-width:2;" x1="265" y1="0" x2="265" y2="30"/>
<text x="133" y="37.763" text-anchor="middle" style="font-family: Tahoma; font-size: 9px; stroke: none; fill:#000000;">https://goo.gl/xfmMSn</text></svg>