<?xml version="1.0" encoding="utf-8"?>
<!DOCTYPE svg PUBLIC "-//W3C//DTD SVG 20010904//EN" "http://www.w3.org/TR/2001/REC-SVG-20010904/DTD/svg10.dtd">
<svg xmlns="http://www.w3.org/2000/svg" xml:space="preserve" xmlns:xlink="http://www.w3.org/1999/xlink" width="145" height="39.714" viewBox="0 0 145 39.714">
<desc></desc>
<rect x="0" y="0" width="145" height="39.714" style="fill:#ffffff;" />
<line fill="none" style="stroke:#000000; stroke-width:2;" x1="1" y1="0" x2="1" y2="30"/>
<line fill="none" style="stroke:#000000; stroke-width:1;" x1="3.5" y1="0" x2="3.5" y2="30"/>
<line fill="none" style="stroke:#000000; stroke-width:1;" x1="6.5" y1="0" x2="6.5" y2="30"/>
<line fill="none" style="stroke:#000000; stroke-width:1;" x1="11.5" y1="0" x2="11.5" y2="30"/>
<line fill="none" style="stroke:#000000; stroke-width:1;" x1="13.5" y1="0" x2="13.5" y2="30"/>
<line fill="none" style="stroke:#000000; stroke-width:4;" x1="18" y1="0" x2="18" y2="30"/>
<line fill="none" style="stroke:#000000; stroke-width:1;" x1="22.5" y1="0" x2="22.5" y2="30"/>
<line fill="none" style="stroke:#000000; stroke-width:4;" x1="26" y1="0" x2="26" y2="30"/>
<line fill="none" style="stroke:#000000; stroke-width:1;" x1="30.5" y1="0" x2="30.5" y2="30"/>
<line fill="none" style="stroke:#000000; stroke-width:2;" x1="34" y1="0" x2="34" y2="30"/>
<line fill="none" style="stroke:#000000; stroke-width:1;" x1="37.5" y1="0" x2="37.5" y2="30"/>
<line fill="none" style="stroke:#000000; stroke-width:1;" x1="39.5" y1="0" x2="39.5" y2="30"/>
<line fill="none" style="stroke:#000000; stroke-width:1;" x1="44.5" y1="0" x2="44.5" y2="30"/>
<line fill="none" style="stroke:#000000; stroke-width:1;" x1="47.5" y1="0" x2="47.5" y2="30"/>
<line fill="none" style="stroke:#000000; stroke-width:2;" x1="50" y1="0" x2="50" y2="30"/>
<line fill="none" style="stroke:#000000; stroke-width:1;" x1="55.5" y1="0" x2="55.5" y2="30"/>
<line fill="none" style="stroke:#000000; stroke-width:1;" x1="58.5" y1="0" x2="58.5" y2="30"/>
<line fill="none" style="stroke:#000000; stroke-width:2;" x1="64" y1="0" x2="64" y2="30"/>
<line fill="none" style="stroke:#000000; stroke-width:1;" x1="66.5" y1="0" x2="66.5" y2="30"/>
<line fill="none" style="stroke:#000000; stroke-width:2;" x1="70" y1="0" x2="70" y2="30"/>
<line fill="none" style="stroke:#000000; stroke-width:3;" x1="74.5" y1="0" x2="74.5" y2="30"/>
<line fill="none" style="stroke:#000000; stroke-width:1;" x1="77.5" y1="0" x2="77.5" y2="30"/>
<line fill="none" style="stroke:#000000; stroke-width:2;" x1="83" y1="0" x2="83" y2="30"/>
<line fill="none" style="stroke:#000000; stroke-width:1;" x1="85.5" y1="0" x2="85.5" y2="30"/>
<line fill="none" style="stroke:#000000; stroke-width:1;" x1="88.5" y1="0" x2="88.5" y2="30"/>
<line fill="none" style="stroke:#000000; stroke-width:4;" x1="94" y1="0" x2="94" y2="30"/>
<line fill="none" style="stroke:#000000; stroke-width:1;" x1="97.5" y1="0" x2="97.5" y2="30"/>
<line fill="none" style="stroke:#000000; stroke-width:1;" x1="99.5" y1="0" x2="99.5" y2="30"/>
<line fill="none" style="stroke:#000000; stroke-width:3;" x1="102.5" y1="0" x2="102.5" y2="30"/>
<line fill="none" style="stroke:#000000; stroke-width:2;" x1="107" y1="0" x2="107" y2="30"/>
<line fill="none" style="stroke:#000000; stroke-width:4;" x1="112" y1="0" x2="112" y2="30"/>
<line fill="none" style="stroke:#000000; stroke-width:3;" x1="116.5" y1="0" x2="116.5" y2="30"/>
<line fill="none" style="stroke:#000000; stroke-width:1;" x1="119.5" y1="0" x2="119.5" y2="30"/>
<line fill="none" style="stroke:#000000; stroke-width:1;" x1="121.5" y1="0" x2="121.5" y2="30"/>
<line fill="none" style="stroke:#000000; stroke-width:1;" x1="124.5" y1="0" x2="124.5" y2="30"/>
<line fill="none" style="stroke:#000000; stroke-width:2;" x1="129" y1="0" x2="129" y2="30"/>
<line fill="none" style="stroke:#000000; stroke-width:2;" x1="133" y1="0" x2="133" y2="30"/>
<line fill="none" style="stroke:#000000; stroke-width:3;" x1="138.5" y1="0" x2="138.5" y2="30"/>
<line fill="none" style="stroke:#000000; stroke-width:1;" x1="141.5" y1="0" x2="141.5" y2="30"/>
<line fill="none" style="stroke:#000000; stroke-width:2;" x1="144" y1="0" x2="144" y2="30"/>
<text x="72.5" y="37.763" text-anchor="middle" style="font-family: Tahoma; font-size: 9px; stroke: none; fill:#000000;">pslab.io/m</text></svg>