<?xml version="1.0" encoding="utf-8"?>
<!DOCTYPE svg PUBLIC "-//W3C//DTD SVG 20010904//EN" "http://www.w3.org/TR/2001/REC-SVG-20010904/DTD/svg10.dtd">
<svg xmlns="http://www.w3.org/2000/svg" xml:space="preserve" xmlns:xlink="http://www.w3.org/1999/xlink" width="150" height="150" viewBox="0 0 150 150">
<desc></desc>
<rect width="150" height="150" fill="#ffffff" cx="0" cy="0" />
<g fill="#000000">
<rect x="12" y="12" width="6" height="6" />
<rect x="18" y="12" width="6" height="6" />
<rect x="24" y="12" width="6" height="6" />
<rect x="30" y="12" width="6" height="6" />
<rect x="36" y="12" width="6" height="6" />
<rect x="42" y="12" width="6" height="6" />
<rect x="48" y="12" width="6" height="6" />
<rect x="66" y="12" width="6" height="6" />
<rect x="96" y="12" width="6" height="6" />
<rect x="102" y="12" width="6" height="6" />
<rect x="108" y="12" width="6" height="6" />
<rect x="114" y="12" width="6" height="6" />
<rect x="120" y="12" width="6" height="6" />
<rect x="126" y="12" width="6" height="6" />
<rect x="132" y="12" width="6" height="6" />
<rect x="12" y="18" width="6" height="6" />
<rect x="48" y="18" width="6" height="6" />
<rect x="72" y="18" width="6" height="6" />
<rect x="96" y="18" width="6" height="6" />
<rect x="132" y="18" width="6" height="6" />
<rect x="12" y="24" width="6" height="6" />
<rect x="24" y="24" width="6" height="6" />
<rect x="30" y="24" width="6" height="6" />
<rect x="36" y="24" width="6" height="6" />
<rect x="48" y="24" width="6" height="6" />
<rect x="60" y="24" width="6" height="6" />
<rect x="72" y="24" width="6" height="6" />
<rect x="78" y="24" width="6" height="6" />
<rect x="84" y="24" width="6" height="6" />
<rect x="96" y="24" width="6" height="6" />
<rect x="108" y="24" width="6" height="6" />
<rect x="114" y="24" width="6" height="6" />
<rect x="120" y="24" width="6" height="6" />
<rect x="132" y="24" width="6" height="6" />
<rect x="12" y="30" width="6" height="6" />
<rect x="24" y="30" width="6" height="6" />
<rect x="30" y="30" width="6" height="6" />
<rect x="36" y="30" width="6" height="6" />
<rect x="48" y="30" width="6" height="6" />
<rect x="66" y="30" width="6" height="6" />
<rect x="78" y="30" width="6" height="6" />
<rect x="84" y="30" width="6" height="6" />
<rect x="96" y="30" width="6" height="6" />
<rect x="108" y="30" width="6" height="6" />
<rect x="114" y="30" width="6" height="6" />
<rect x="120" y="30" width="6" height="6" />
<rect x="132" y="30" width="6" height="6" />
<rect x="12" y="36" width="6" height="6" />
<rect x="24" y="36" width="6" height="6" />
<rect x="30" y="36" width="6" height="6" />
<rect x="36" y="36" width="6" height="6" />
<rect x="48" y="36" width="6" height="6" />
<rect x="66" y="36" width="6" height="6" />
<rect x="96" y="36" width="6" height="6" />
<rect x="108" y="36" width="6" height="6" />
<rect x="114" y="36" width="6" height="6" />
<rect x="120" y="36" width="6" height="6" />
<rect x="132" y="36" width="6" height="6" />
<rect x="12" y="42" width="6" height="6" />
<rect x="48" y="42" width="6" height="6" />
<rect x="66" y="42" width="6" height="6" />
<rect x="72" y="42" width="6" height="6" />
<rect x="96" y="42" width="6" height="6" />
<rect x="132" y="42" width="6" height="6" />
<rect x="12" y="48" width="6" height="6" />
<rect x="18" y="48" width="6" height="6" />
<rect x="24" y="48" width="6" height="6" />
<rect x="30" y="48" width="6" height="6" />
<rect x="36" y="48" width="6" height="6" />
<rect x="42" y="48" width="6" height="6" />
<rect x="48" y="48" width="6" height="6" />
<rect x="60" y="48" width="6" height="6" />
<rect x="72" y="48" width="6" height="6" />
<rect x="84" y="48" width="6" height="6" />
<rect x="96" y="48" width="6" height="6" />
<rect x="102" y="48" width="6" height="6" />
<rect x="108" y="48" width="6" height="6" />
<rect x="114" y="48" width="6" height="6" />
<rect x="120" y="48" width="6" height="6" />
<rect x="126" y="48" width="6" height="6" />
<rect x="132" y="48" width="6" height="6" />
<rect x="60" y="54" width="6" height="6" />
<rect x="72" y="54" width="6" height="6" />
<rect x="78" y="54" width="6" height="6" />
<rect x="84" y="54" width="6" height="6" />
<rect x="12" y="60" width="6" height="6" />
<rect x="18" y="60" width="6" height="6" />
<rect x="24" y="60" width="6" height="6" />
<rect x="36" y="60" width="6" height="6" />
<rect x="42" y="60" width="6" height="6" />
<rect x="48" y="60" width="6" height="6" />
<rect x="54" y="60" width="6" height="6" />
<rect x="60" y="60" width="6" height="6" />
<rect x="72" y="60" width="6" height="6" />
<rect x="78" y="60" width="6" height="6" />
<rect x="90" y="60" width="6" height="6" />
<rect x="96" y="60" width="6" height="6" />
<rect x="120" y="60" width="6" height="6" />
<rect x="36" y="66" width="6" height="6" />
<rect x="42" y="66" width="6" height="6" />
<rect x="54" y="66" width="6" height="6" />
<rect x="72" y="66" width="6" height="6" />
<rect x="78" y="66" width="6" height="6" />
<rect x="84" y="66" width="6" height="6" />
<rect x="96" y="66" width="6" height="6" />
<rect x="102" y="66" width="6" height="6" />
<rect x="108" y="66" width="6" height="6" />
<rect x="132" y="66" width="6" height="6" />
<rect x="12" y="72" width="6" height="6" />
<rect x="36" y="72" width="6" height="6" />
<rect x="48" y="72" width="6" height="6" />
<rect x="54" y="72" width="6" height="6" />
<rect x="60" y="72" width="6" height="6" />
<rect x="66" y="72" width="6" height="6" />
<rect x="84" y="72" width="6" height="6" />
<rect x="90" y="72" width="6" height="6" />
<rect x="108" y="72" width="6" height="6" />
<rect x="120" y="72" width="6" height="6" />
<rect x="126" y="72" width="6" height="6" />
<rect x="132" y="72" width="6" height="6" />
<rect x="24" y="78" width="6" height="6" />
<rect x="30" y="78" width="6" height="6" />
<rect x="42" y="78" width="6" height="6" />
<rect x="54" y="78" width="6" height="6" />
<rect x="66" y="78" width="6" height="6" />
<rect x="78" y="78" width="6" height="6" />
<rect x="84" y="78" width="6" height="6" />
<rect x="108" y="78" width="6" height="6" />
<rect x="126" y="78" width="6" height="6" />
<rect x="24" y="84" width="6" height="6" />
<rect x="30" y="84" width="6" height="6" />
<rect x="48" y="84" width="6" height="6" />
<rect x="60" y="84" width="6" height="6" />
<rect x="66" y="84" width="6" height="6" />
<rect x="72" y="84" width="6" height="6" />
<rect x="84" y="84" width="6" height="6" />
<rect x="90" y="84" width="6" height="6" />
<rect x="102" y="84" width="6" height="6" />
<rect x="114" y="84" width="6" height="6" />
<rect x="60" y="90" width="6" height="6" />
<rect x="66" y="90" width="6" height="6" />
<rect x="78" y="90" width="6" height="6" />
<rect x="84" y="90" width="6" height="6" />
<rect x="90" y="90" width="6" height="6" />
<rect x="102" y="90" width="6" height="6" />
<rect x="108" y="90" width="6" height="6" />
<rect x="126" y="90" width="6" height="6" />
<rect x="132" y="90" width="6" height="6" />
<rect x="12" y="96" width="6" height="6" />
<rect x="18" y="96" width="6" height="6" />
<rect x="24" y="96" width="6" height="6" />
<rect x="30" y="96" width="6" height="6" />
<rect x="36" y="96" width="6" height="6" />
<rect x="42" y="96" width="6" height="6" />
<rect x="48" y="96" width="6" height="6" />
<rect x="60" y="96" width="6" height="6" />
<rect x="66" y="96" width="6" height="6" />
<rect x="72" y="96" width="6" height="6" />
<rect x="78" y="96" width="6" height="6" />
<rect x="84" y="96" width="6" height="6" />
<rect x="96" y="96" width="6" height="6" />
<rect x="108" y="96" width="6" height="6" />
<rect x="120" y="96" width="6" height="6" />
<rect x="126" y="96" width="6" height="6" />
<rect x="132" y="96" width="6" height="6" />
<rect x="12" y="102" width="6" height="6" />
<rect x="48" y="102" width="6" height="6" />
<rect x="60" y="102" width="6" height="6" />
<rect x="72" y="102" width="6" height="6" />
<rect x="102" y="102" width="6" height="6" />
<rect x="108" y="102" width="6" height="6" />
<rect x="126" y="102" width="6" height="6" />
<rect x="12" y="108" width="6" height="6" />
<rect x="24" y="108" width="6" height="6" />
<rect x="30" y="108" width="6" height="6" />
<rect x="36" y="108" width="6" height="6" />
<rect x="48" y="108" width="6" height="6" />
<rect x="60" y="108" width="6" height="6" />
<rect x="72" y="108" width="6" height="6" />
<rect x="84" y="108" width="6" height="6" />
<rect x="90" y="108" width="6" height="6" />
<rect x="114" y="108" width="6" height="6" />
<rect x="132" y="108" width="6" height="6" />
<rect x="12" y="114" width="6" height="6" />
<rect x="24" y="114" width="6" height="6" />
<rect x="30" y="114" width="6" height="6" />
<rect x="36" y="114" width="6" height="6" />
<rect x="48" y="114" width="6" height="6" />
<rect x="78" y="114" width="6" height="6" />
<rect x="84" y="114" width="6" height="6" />
<rect x="90" y="114" width="6" height="6" />
<rect x="108" y="114" width="6" height="6" />
<rect x="114" y="114" width="6" height="6" />
<rect x="12" y="120" width="6" height="6" />
<rect x="24" y="120" width="6" height="6" />
<rect x="30" y="120" width="6" height="6" />
<rect x="36" y="120" width="6" height="6" />
<rect x="48" y="120" width="6" height="6" />
<rect x="60" y="120" width="6" height="6" />
<rect x="72" y="120" width="6" height="6" />
<rect x="78" y="120" width="6" height="6" />
<rect x="84" y="120" width="6" height="6" />
<rect x="90" y="120" width="6" height="6" />
<rect x="108" y="120" width="6" height="6" />
<rect x="120" y="120" width="6" height="6" />
<rect x="132" y="120" width="6" height="6" />
<rect x="12" y="126" width="6" height="6" />
<rect x="48" y="126" width="6" height="6" />
<rect x="60" y="126" width="6" height="6" />
<rect x="66" y="126" width="6" height="6" />
<rect x="72" y="126" width="6" height="6" />
<rect x="78" y="126" width="6" height="6" />
<rect x="108" y="126" width="6" height="6" />
<rect x="126" y="126" width="6" height="6" />
<rect x="12" y="132" width="6" height="6" />
<rect x="18" y="132" width="6" height="6" />
<rect x="24" y="132" width="6" height="6" />
<rect x="30" y="132" width="6" height="6" />
<rect x="36" y="132" width="6" height="6" />
<rect x="42" y="132" width="6" height="6" />
<rect x="48" y="132" width="6" height="6" />
<rect x="60" y="132" width="6" height="6" />
<rect x="66" y="132" width="6" height="6" />
<rect x="78" y="132" width="6" height="6" />
<rect x="108" y="132" width="6" height="6" />
<rect x="114" y="132" width="6" height="6" />
<rect x="126" y="132" width="6" height="6" />
<rect x="132" y="132" width="6" height="6" />
</g>
</svg>