<?xml version="1.0" encoding="UTF-8" standalone="no"?>
<!-- Created with Inkscape (http://www.inkscape.org/) -->

<svg
   xmlns:dc="http://purl.org/dc/elements/1.1/"
   xmlns:cc="http://creativecommons.org/ns#"
   xmlns:rdf="http://www.w3.org/1999/02/22-rdf-syntax-ns#"
   xmlns:svg="http://www.w3.org/2000/svg"
   xmlns="http://www.w3.org/2000/svg"
   xmlns:sodipodi="http://sodipodi.sourceforge.net/DTD/sodipodi-0.dtd"
   xmlns:inkscape="http://www.inkscape.org/namespaces/inkscape"
   version="1.1"
   id="svg2"
   width="826"
   height="227.82262"
   viewBox="0 0 826 227.82262"
   sodipodi:docname="OTS_grey.svg"
   inkscape:version="0.92.3 (2405546, 2018-03-11)">
  <metadata
     id="metadata8">
    <rdf:RDF>
      <cc:Work
         rdf:about="">
        <dc:format>image/svg+xml</dc:format>
        <dc:type
           rdf:resource="http://purl.org/dc/dcmitype/StillImage" />
        <dc:title></dc:title>
      </cc:Work>
    </rdf:RDF>
  </metadata>
  <defs
     id="defs6" />
  <sodipodi:namedview
     pagecolor="#ffffff"
     bordercolor="#666666"
     borderopacity="1"
     objecttolerance="10"
     gridtolerance="10"
     guidetolerance="10"
     inkscape:pageopacity="0"
     inkscape:pageshadow="2"
     inkscape:window-width="1225"
     inkscape:window-height="996"
     id="namedview4"
     showgrid="false"
     inkscape:zoom="0.80156246"
     inkscape:cx="221.91642"
     inkscape:cy="93.357839"
     inkscape:window-x="55"
     inkscape:window-y="0"
     inkscape:window-maximized="1"
     inkscape:current-layer="svg2" />
  <path
     style="fill:#000000;stroke-width:1.33333337"
     d="M 196.00001,135.82261 V 43.822612 h 18 18 l 0.0181,3.66666 c 0.0107,2.01667 0.38412,5.03241 0.83133,6.70166 0.79858,2.9807 0.89266,2.95309 5.2599,-1.54371 2.44573,-2.51829 7.92164,-6.26033 12.16868,-8.31564 6.59849,-3.19328 9.37069,-3.73755 19.05522,-3.74111 12.57266,-0.005 19.33811,1.79972 27.40492,7.30885 13.45636,9.18981 21.92848,32.34138 21.92848,59.923288 0,32.04653 -11.77237,56.5516 -31.83148,66.25962 -6.41969,3.10694 -9.23289,3.63859 -19.50185,3.68552 -12.8252,0.0587 -21.76467,-2.75402 -28.31672,-8.90936 l -3.01661,-2.83396 v 28.87368 c 0,28.8645 0.77877,31.99281 -2.22027,32.63284 -3.86487,0.82481 -30.20904,0.29166 -34.49869,0.29166 h -3.28104 z m 67.99461,10.50948 c 9.13057,-5.13167 13.33872,-17.28079 13.33872,-38.50948 0,-21.179818 -3.92236,-32.427858 -12.7726,-36.627578 -7.42911,-3.52533 -14.16927,-1.73418 -22.04687,5.8588 l -6.51386,6.27854 v 27.316898 27.3169 l 4.33333,4.18816 c 7.73611,7.47696 15.38745,8.82792 23.66128,4.17776 z M 70.66667,179.09611 C 43.84431,173.37727 22.60175,158.39713 9.30278,135.82261 5.43592,129.25875 0,115.8919 0,112.94721 c 0,-0.61854 10.18459,-1.1246 22.63243,-1.1246 h 22.63243 l 1.97881,3.82661 c 3.23365,6.25319 14.94383,15.80201 23.15416,18.88059 8.69808,3.26146 22.59727,3.81416 30.55901,1.21516 7.67682,-2.506 18.04488,-9.61152 22.81756,-15.63752 7.57071,-9.55879 10.10439,-16.94476 10.16838,-29.641908 0.0513,-10.20169 -0.38776,-12.2614 -4.31687,-20.24643 -8.48319,-17.24014 -23.70389,-26.69809 -43.16545,-26.82249 -8.86815,-0.0567 -11.34544,0.49559 -18.8956,4.21252 -8.03911,3.95764 -22.23152,16.93035 -22.23152,20.32092 0,0.69755 -9.76895,1.22588 -22.66667,1.22588 C 10.2,69.155942 0,68.672452 0,68.081502 0,64.413822 6.36414,49.307852 10.80219,42.441312 24.92706,20.587422 44.59602,7.0357322 69.61046,1.9231122 c 20.16836,-4.12214 38.26865,-1.66557004 57.72288,7.83415 29.5858,14.4470798 48.16647,42.9463498 49.70965,76.2453498 0.80327,17.332808 -1.92072,30.016208 -9.78692,45.569718 -7.26585,14.36646 -16.42991,24.83378 -29.24704,33.40641 -20.55919,13.75083 -45.01543,18.87772 -67.34236,14.11737 z m 562.70442,-1.93878 c -33.2943,-6.0182 -51.9673,-33.57868 -49.6531,-73.28512 2.5686,-44.069188 32.0315,-69.645758 72.3963,-62.846808 23.7201,3.99537 40.4832,19.96664 45.6187,43.46387 2.2412,10.25486 1.01527,23.857398 2.2116,30.571638 l -0.914,6.09503 h -39.1819 c -36.4301,0 -39.1815,0.16388 -39.1745,2.33333 0.017,5.44174 3.1457,12.86424 7.4126,17.58723 8.9812,9.94112 24.47579,10.63551 41.7436,1.87083 l 9.8539,-5.00158 3.1537,3.93843 c 1.7347,2.16613 5.3706,7.14917 8.0799,11.07341 l 4.9261,7.135 -3.2553,2.49294 c -5.8105,4.44976 -18.7388,10.85026 -25.7465,12.7466 -8.8056,2.38285 -28.956,3.36437 -37.4711,1.8252 z m 31.8003,-85.001388 c -2.7247,-20.61251 -12.0811,-29.18937 -26.3982,-24.19909 -7.9178,2.75977 -11.8669,9.48444 -14.6025,24.86576 l -0.7707,4.33333 h 21.2162 21.2162 z m 98.162,84.004488 c -27.3556,-7.43501 -43.2367,-29.01104 -44.9026,-61.00449 -2.4093,-46.270508 25.888,-77.620988 67.6414,-74.939488 6.273,0.40286 14.8821,1.9544 19.1312,3.44785 8.5845,3.0172 20.7966,10.34639 20.7966,12.4812 0,1.45644 -14.4848,22.07396 -16.2932,23.19163 -0.582,0.35976 -2.8145,-0.59647 -4.9612,-2.12494 -14.6817,-10.45433 -32.85,-7.98513 -39.7386,5.40076 -6.0648,11.78514 -7.1632,36.767058 -2.1658,49.257098 5.9318,14.82481 23.805,19.08476 39.3996,9.39058 3.7223,-2.31393 6.8846,-4.03409 7.0272,-3.82258 0.1427,0.2115 3.9658,5.57794 8.4958,11.92541 4.53,6.34747 8.2362,12.13492 8.2362,12.861 0,2.0892 -12.3201,9.44309 -20.8688,12.45659 -11.0422,3.8925 -30.3985,4.5776 -41.7978,1.47938 z m -425.3334,-67.0432 V 43.745212 l 17.6559,0.37203 17.6559,0.37203 1.1231,7.06634 1.123,7.06634 5.9875,-5.51913 c 8.067,-7.43586 17.8285,-11.68419 29.2962,-12.75 17.0827,-1.58767 30.1936,5.49752 36.6657,19.81426 3.1294,6.92249 3.1634,7.49853 3.5868,60.655528 l 0.4274,53.66666 h -20.0941 -20.094 v -46.70949 c 0,-51.400188 -0.4315,-54.658188 -7.6022,-57.401648 -6.0166,-2.30194 -12.6194,0.48273 -19.6279,8.27793 l -6.1033,6.78829 v 44.522458 44.52246 h -20 -20 z m 170.6667,-3.96129 V 35.822612 h -21.3333 -21.3334 V 20.489272 5.1559422 h 64.6667 c 60.6935,0 64.6674,0.14336 64.6795,2.33333 0.01,1.28333 -0.7113,8.1833298 -1.5965,15.3333298 l -1.6093,13.00001 h -21.0702 -21.0702 v 69.333328 69.33333 h -20.6666 -20.6667 z"
     id="path817"
     inkscape:connector-curvature="0"
     sodipodi:nodetypes="ccccccscccsscscsssccssccccccsssssccssscscsssscssssssscscscsccsccccccscccccccssccsccccccsscscccccccscccccsccccccccccccccscccccccccc" />
</svg>
