G04 #@! TF.FileFunction,Soldermask,Top*
%FSLAX46Y46*%
G04 Gerber Fmt 4.6, Leading zero omitted, Abs format (unit mm)*
G04 Created by KiCad (PCBNEW 4.0.7-e2-6376~58~ubuntu16.04.1) date Sat Dec 16 23:26:04 2017*
%MOMM*%
%LPD*%
G01*
G04 APERTURE LIST*
%ADD10C,0.100000*%
%ADD11R,0.600000X1.950000*%
%ADD12R,0.550000X1.500000*%
%ADD13R,1.500000X0.550000*%
%ADD14R,1.700000X1.700000*%
%ADD15O,1.700000X1.700000*%
%ADD16R,1.524000X1.524000*%
%ADD17C,1.524000*%
%ADD18R,1.000000X1.250000*%
%ADD19R,2.550000X2.500000*%
%ADD20R,2.500000X2.550000*%
%ADD21R,1.250000X1.000000*%
%ADD22R,1.700000X1.300000*%
%ADD23R,1.200000X1.200000*%
%ADD24C,3.800000*%
%ADD25R,0.900000X0.800000*%
%ADD26R,1.500000X0.600000*%
%ADD27R,1.550000X0.600000*%
%ADD28R,2.000000X3.800000*%
%ADD29R,2.000000X1.500000*%
%ADD30R,0.600000X1.500000*%
%ADD31R,0.600000X1.550000*%
%ADD32R,0.300000X1.400000*%
%ADD33C,1.800000*%
%ADD34C,4.600000*%
%ADD35R,1.350000X0.400000*%
%ADD36O,0.950000X1.250000*%
%ADD37O,1.550000X1.000000*%
%ADD38C,1.500000*%
%ADD39R,2.500000X1.950000*%
G04 APERTURE END LIST*
D10*
D11*
X116635000Y-96950000D03*
X117905000Y-96950000D03*
X119175000Y-96950000D03*
X120445000Y-96950000D03*
X121715000Y-96950000D03*
X122985000Y-96950000D03*
X124255000Y-96950000D03*
X125525000Y-96950000D03*
X126795000Y-96950000D03*
X128065000Y-96950000D03*
X128065000Y-87550000D03*
X126795000Y-87550000D03*
X125525000Y-87550000D03*
X124255000Y-87550000D03*
X122985000Y-87550000D03*
X121715000Y-87550000D03*
X120445000Y-87550000D03*
X119175000Y-87550000D03*
X117905000Y-87550000D03*
X116635000Y-87550000D03*
D12*
X146950000Y-103925000D03*
X147750000Y-103925000D03*
X148550000Y-103925000D03*
X149350000Y-103925000D03*
X150150000Y-103925000D03*
X150950000Y-103925000D03*
X151750000Y-103925000D03*
X152550000Y-103925000D03*
X153350000Y-103925000D03*
X154150000Y-103925000D03*
X154950000Y-103925000D03*
D13*
X156650000Y-102225000D03*
X156650000Y-101425000D03*
X156650000Y-100625000D03*
X156650000Y-99825000D03*
X156650000Y-99025000D03*
X156650000Y-98225000D03*
X156650000Y-97425000D03*
X156650000Y-96625000D03*
X156650000Y-95825000D03*
X156650000Y-95025000D03*
X156650000Y-94225000D03*
D12*
X154950000Y-92525000D03*
X154150000Y-92525000D03*
X153350000Y-92525000D03*
X152550000Y-92525000D03*
X151750000Y-92525000D03*
X150950000Y-92525000D03*
X150150000Y-92525000D03*
X149350000Y-92525000D03*
X148550000Y-92525000D03*
X147750000Y-92525000D03*
X146950000Y-92525000D03*
D13*
X145250000Y-94225000D03*
X145250000Y-95025000D03*
X145250000Y-95825000D03*
X145250000Y-96625000D03*
X145250000Y-97425000D03*
X145250000Y-98225000D03*
X145250000Y-99025000D03*
X145250000Y-99825000D03*
X145250000Y-100625000D03*
X145250000Y-101425000D03*
X145250000Y-102225000D03*
D14*
X165824400Y-73651000D03*
D15*
X168364400Y-73651000D03*
X170904400Y-73651000D03*
X173444400Y-73651000D03*
X175984400Y-73651000D03*
X178524400Y-73651000D03*
D16*
X139625000Y-93575000D03*
D17*
X137085000Y-93575000D03*
X139625000Y-91035000D03*
X137085000Y-91035000D03*
X139625000Y-88495000D03*
X137085000Y-88495000D03*
X139625000Y-85955000D03*
X137085000Y-85955000D03*
D18*
X147300000Y-83025000D03*
X145300000Y-83025000D03*
X149525000Y-83025000D03*
X151525000Y-83025000D03*
D19*
X133025000Y-110750000D03*
X127975000Y-110750000D03*
D20*
X132150000Y-91600000D03*
X132150000Y-86550000D03*
D19*
X159175000Y-78000000D03*
X154125000Y-78000000D03*
X128000000Y-116525000D03*
X133050000Y-116525000D03*
D18*
X127550000Y-83175000D03*
X129550000Y-83175000D03*
D21*
X149550000Y-79600000D03*
X149550000Y-77600000D03*
D18*
X179870000Y-109800000D03*
X177870000Y-109800000D03*
D22*
X181650000Y-99250000D03*
X181650000Y-102750000D03*
D23*
X159350000Y-104975000D03*
X161550000Y-104975000D03*
X123950000Y-78850000D03*
X126150000Y-78850000D03*
D24*
X130289800Y-121936400D03*
X129019800Y-73651000D03*
X181089800Y-106671000D03*
D14*
X160769800Y-121911000D03*
D15*
X163309800Y-121911000D03*
X165849800Y-121911000D03*
X168389800Y-121911000D03*
X170929800Y-121911000D03*
X173469800Y-121911000D03*
X176009800Y-121911000D03*
X178549800Y-121911000D03*
D14*
X156700000Y-121975000D03*
D15*
X154160000Y-121975000D03*
X151620000Y-121975000D03*
X149080000Y-121975000D03*
X146540000Y-121975000D03*
X144000000Y-121975000D03*
X141460000Y-121975000D03*
X138920000Y-121975000D03*
X136380000Y-121975000D03*
X133840000Y-121975000D03*
D14*
X142989800Y-73651000D03*
D15*
X145529800Y-73651000D03*
X148069800Y-73651000D03*
X150609800Y-73651000D03*
X153149800Y-73651000D03*
X155689800Y-73651000D03*
X158229800Y-73651000D03*
X160769800Y-73651000D03*
D25*
X158750000Y-118650000D03*
X158750000Y-116750000D03*
X156750000Y-117700000D03*
D26*
X138000000Y-108465000D03*
X138000000Y-109735000D03*
X138000000Y-111005000D03*
X138000000Y-112275000D03*
X138000000Y-113545000D03*
X138000000Y-114815000D03*
X138000000Y-116085000D03*
X143400000Y-116085000D03*
X143400000Y-114815000D03*
X143400000Y-113545000D03*
X143400000Y-112275000D03*
X143400000Y-111005000D03*
X143400000Y-109735000D03*
X143400000Y-108465000D03*
D27*
X138825000Y-100530000D03*
X138825000Y-99260000D03*
X138825000Y-97990000D03*
X138825000Y-96720000D03*
X133425000Y-96720000D03*
X133425000Y-97990000D03*
X133425000Y-99260000D03*
X133425000Y-100530000D03*
D28*
X139175000Y-78400000D03*
D29*
X132875000Y-78400000D03*
X132875000Y-80700000D03*
X132875000Y-76100000D03*
D30*
X169860000Y-111800000D03*
X168590000Y-111800000D03*
X167320000Y-111800000D03*
X166050000Y-111800000D03*
X164780000Y-111800000D03*
X163510000Y-111800000D03*
X162240000Y-111800000D03*
X162240000Y-117200000D03*
X163510000Y-117200000D03*
X164780000Y-117200000D03*
X166050000Y-117200000D03*
X167320000Y-117200000D03*
X168590000Y-117200000D03*
X169860000Y-117200000D03*
D31*
X178230000Y-90950000D03*
X176960000Y-90950000D03*
X175690000Y-90950000D03*
X174420000Y-90950000D03*
X174420000Y-96350000D03*
X175690000Y-96350000D03*
X176960000Y-96350000D03*
X178230000Y-96350000D03*
D32*
X171100000Y-102525000D03*
X170600000Y-102525000D03*
X170100000Y-102525000D03*
X169600000Y-102525000D03*
X169100000Y-102525000D03*
X169100000Y-106925000D03*
X169600000Y-106925000D03*
X170100000Y-106925000D03*
X170600000Y-106925000D03*
X171100000Y-106925000D03*
D31*
X171805000Y-80150000D03*
X170535000Y-80150000D03*
X169265000Y-80150000D03*
X167995000Y-80150000D03*
X167995000Y-85550000D03*
X169265000Y-85550000D03*
X170535000Y-85550000D03*
X171805000Y-85550000D03*
X166180000Y-95275000D03*
X164910000Y-95275000D03*
X163640000Y-95275000D03*
X162370000Y-95275000D03*
X162370000Y-100675000D03*
X163640000Y-100675000D03*
X164910000Y-100675000D03*
X166180000Y-100675000D03*
D27*
X178675000Y-117205000D03*
X178675000Y-115935000D03*
X178675000Y-114665000D03*
X178675000Y-113395000D03*
X173275000Y-113395000D03*
X173275000Y-114665000D03*
X173275000Y-115935000D03*
X173275000Y-117205000D03*
D31*
X178280000Y-80150000D03*
X177010000Y-80150000D03*
X175740000Y-80150000D03*
X174470000Y-80150000D03*
X174470000Y-85550000D03*
X175740000Y-85550000D03*
X177010000Y-85550000D03*
X178280000Y-85550000D03*
D33*
X114364000Y-111671000D03*
X114364000Y-109171000D03*
X114364000Y-106671000D03*
D34*
X117664000Y-114171000D03*
X117664000Y-104171000D03*
D14*
X164900000Y-83825000D03*
D15*
X164900000Y-86365000D03*
X164900000Y-88905000D03*
D14*
X135450000Y-105275000D03*
D15*
X137990000Y-105275000D03*
X140530000Y-105275000D03*
X143070000Y-105275000D03*
D35*
X119050000Y-77450000D03*
X119050000Y-78100000D03*
X119050000Y-78750000D03*
X119050000Y-79400000D03*
X119050000Y-80050000D03*
D36*
X119050000Y-76250000D03*
X119050000Y-81250000D03*
D37*
X116350000Y-75250000D03*
X116350000Y-82250000D03*
D25*
X174600000Y-105600000D03*
X174600000Y-103700000D03*
X172600000Y-104650000D03*
D14*
X126750000Y-107700000D03*
D15*
X124210000Y-107700000D03*
X121670000Y-107700000D03*
D38*
X146250000Y-86700000D03*
X151130000Y-86700000D03*
D14*
X142750000Y-77000000D03*
D15*
X145290000Y-77000000D03*
D14*
X145300000Y-79650000D03*
D15*
X142760000Y-79650000D03*
D14*
X159350000Y-85600000D03*
D15*
X159350000Y-88140000D03*
D14*
X156700000Y-85600000D03*
D15*
X156700000Y-88140000D03*
D39*
X124150000Y-119175000D03*
X124150000Y-122225000D03*
M02*
