G04 #@! TF.FileFunction,Legend,Top*
%FSLAX46Y46*%
G04 Gerber Fmt 4.6, Leading zero omitted, Abs format (unit mm)*
G04 Created by KiCad (PCBNEW 4.0.7-e2-6376~58~ubuntu16.04.1) date Sat Dec 16 23:26:04 2017*
%MOMM*%
%LPD*%
G01*
G04 APERTURE LIST*
%ADD10C,0.100000*%
%ADD11C,0.150000*%
%ADD12C,0.300000*%
%ADD13C,0.120000*%
G04 APERTURE END LIST*
D10*
X134866667Y-85283334D02*
X134866667Y-85616668D01*
X134723810Y-85216668D02*
X135223810Y-85450001D01*
X134723810Y-85683334D01*
X134723810Y-85916668D02*
X135223810Y-85916668D01*
X134723810Y-86316668D01*
X135223810Y-86316668D01*
X135057143Y-86950001D02*
X134723810Y-86950001D01*
X135247619Y-86783334D02*
X134890476Y-86616667D01*
X134890476Y-87050001D01*
X134747619Y-87816667D02*
X134723810Y-87916667D01*
X134723810Y-88083334D01*
X134747619Y-88150001D01*
X134771429Y-88183334D01*
X134819048Y-88216667D01*
X134866667Y-88216667D01*
X134914286Y-88183334D01*
X134938095Y-88150001D01*
X134961905Y-88083334D01*
X134985714Y-87950001D01*
X135009524Y-87883334D01*
X135033333Y-87850001D01*
X135080952Y-87816667D01*
X135128571Y-87816667D01*
X135176190Y-87850001D01*
X135200000Y-87883334D01*
X135223810Y-87950001D01*
X135223810Y-88116667D01*
X135200000Y-88216667D01*
X134723810Y-88516668D02*
X135223810Y-88516668D01*
X135223810Y-88683334D01*
X135200000Y-88783334D01*
X135152381Y-88850001D01*
X135104762Y-88883334D01*
X135009524Y-88916668D01*
X134938095Y-88916668D01*
X134842857Y-88883334D01*
X134795238Y-88850001D01*
X134747619Y-88783334D01*
X134723810Y-88683334D01*
X134723810Y-88516668D01*
X134723810Y-89216668D02*
X135223810Y-89216668D01*
X134771429Y-90483334D02*
X134747619Y-90450000D01*
X134723810Y-90350000D01*
X134723810Y-90283334D01*
X134747619Y-90183334D01*
X134795238Y-90116667D01*
X134842857Y-90083334D01*
X134938095Y-90050000D01*
X135009524Y-90050000D01*
X135104762Y-90083334D01*
X135152381Y-90116667D01*
X135200000Y-90183334D01*
X135223810Y-90283334D01*
X135223810Y-90350000D01*
X135200000Y-90450000D01*
X135176190Y-90483334D01*
X134985714Y-90783334D02*
X134985714Y-91016667D01*
X134723810Y-91116667D02*
X134723810Y-90783334D01*
X135223810Y-90783334D01*
X135223810Y-91116667D01*
X135176190Y-91383333D02*
X135200000Y-91416667D01*
X135223810Y-91483333D01*
X135223810Y-91650000D01*
X135200000Y-91716667D01*
X135176190Y-91750000D01*
X135128571Y-91783333D01*
X135080952Y-91783333D01*
X135009524Y-91750000D01*
X134723810Y-91350000D01*
X134723810Y-91783333D01*
X135223810Y-92516667D02*
X134723810Y-92750000D01*
X135223810Y-92983333D01*
X134723810Y-93216667D02*
X135223810Y-93216667D01*
X135223810Y-93383333D01*
X135200000Y-93483333D01*
X135152381Y-93550000D01*
X135104762Y-93583333D01*
X135009524Y-93616667D01*
X134938095Y-93616667D01*
X134842857Y-93583333D01*
X134795238Y-93550000D01*
X134747619Y-93483333D01*
X134723810Y-93383333D01*
X134723810Y-93216667D01*
X134723810Y-93916667D02*
X135223810Y-93916667D01*
X135223810Y-94083333D01*
X135200000Y-94183333D01*
X135152381Y-94250000D01*
X135104762Y-94283333D01*
X135009524Y-94316667D01*
X134938095Y-94316667D01*
X134842857Y-94283333D01*
X134795238Y-94250000D01*
X134747619Y-94183333D01*
X134723810Y-94083333D01*
X134723810Y-93916667D01*
X141347619Y-84983334D02*
X141323810Y-85083334D01*
X141323810Y-85250001D01*
X141347619Y-85316668D01*
X141371429Y-85350001D01*
X141419048Y-85383334D01*
X141466667Y-85383334D01*
X141514286Y-85350001D01*
X141538095Y-85316668D01*
X141561905Y-85250001D01*
X141585714Y-85116668D01*
X141609524Y-85050001D01*
X141633333Y-85016668D01*
X141680952Y-84983334D01*
X141728571Y-84983334D01*
X141776190Y-85016668D01*
X141800000Y-85050001D01*
X141823810Y-85116668D01*
X141823810Y-85283334D01*
X141800000Y-85383334D01*
X141323810Y-85683335D02*
X141823810Y-85683335D01*
X141823810Y-85850001D01*
X141800000Y-85950001D01*
X141752381Y-86016668D01*
X141704762Y-86050001D01*
X141609524Y-86083335D01*
X141538095Y-86083335D01*
X141442857Y-86050001D01*
X141395238Y-86016668D01*
X141347619Y-85950001D01*
X141323810Y-85850001D01*
X141323810Y-85683335D01*
X141823810Y-86516668D02*
X141823810Y-86650001D01*
X141800000Y-86716668D01*
X141752381Y-86783335D01*
X141657143Y-86816668D01*
X141490476Y-86816668D01*
X141395238Y-86783335D01*
X141347619Y-86716668D01*
X141323810Y-86650001D01*
X141323810Y-86516668D01*
X141347619Y-86450001D01*
X141395238Y-86383335D01*
X141490476Y-86350001D01*
X141657143Y-86350001D01*
X141752381Y-86383335D01*
X141800000Y-86450001D01*
X141823810Y-86516668D01*
X141347619Y-87616667D02*
X141323810Y-87716667D01*
X141323810Y-87883334D01*
X141347619Y-87950001D01*
X141371429Y-87983334D01*
X141419048Y-88016667D01*
X141466667Y-88016667D01*
X141514286Y-87983334D01*
X141538095Y-87950001D01*
X141561905Y-87883334D01*
X141585714Y-87750001D01*
X141609524Y-87683334D01*
X141633333Y-87650001D01*
X141680952Y-87616667D01*
X141728571Y-87616667D01*
X141776190Y-87650001D01*
X141800000Y-87683334D01*
X141823810Y-87750001D01*
X141823810Y-87916667D01*
X141800000Y-88016667D01*
X141371429Y-88716668D02*
X141347619Y-88683334D01*
X141323810Y-88583334D01*
X141323810Y-88516668D01*
X141347619Y-88416668D01*
X141395238Y-88350001D01*
X141442857Y-88316668D01*
X141538095Y-88283334D01*
X141609524Y-88283334D01*
X141704762Y-88316668D01*
X141752381Y-88350001D01*
X141800000Y-88416668D01*
X141823810Y-88516668D01*
X141823810Y-88583334D01*
X141800000Y-88683334D01*
X141776190Y-88716668D01*
X141323810Y-89016668D02*
X141823810Y-89016668D01*
X141323810Y-89416668D02*
X141609524Y-89116668D01*
X141823810Y-89416668D02*
X141538095Y-89016668D01*
X141371429Y-90650001D02*
X141347619Y-90616667D01*
X141323810Y-90516667D01*
X141323810Y-90450001D01*
X141347619Y-90350001D01*
X141395238Y-90283334D01*
X141442857Y-90250001D01*
X141538095Y-90216667D01*
X141609524Y-90216667D01*
X141704762Y-90250001D01*
X141752381Y-90283334D01*
X141800000Y-90350001D01*
X141823810Y-90450001D01*
X141823810Y-90516667D01*
X141800000Y-90616667D01*
X141776190Y-90650001D01*
X141585714Y-90950001D02*
X141585714Y-91183334D01*
X141323810Y-91283334D02*
X141323810Y-90950001D01*
X141823810Y-90950001D01*
X141823810Y-91283334D01*
X141323810Y-91950000D02*
X141323810Y-91550000D01*
X141323810Y-91750000D02*
X141823810Y-91750000D01*
X141752381Y-91683334D01*
X141704762Y-91616667D01*
X141680952Y-91550000D01*
X141800000Y-93150000D02*
X141823810Y-93083334D01*
X141823810Y-92983334D01*
X141800000Y-92883334D01*
X141752381Y-92816667D01*
X141704762Y-92783334D01*
X141609524Y-92750000D01*
X141538095Y-92750000D01*
X141442857Y-92783334D01*
X141395238Y-92816667D01*
X141347619Y-92883334D01*
X141323810Y-92983334D01*
X141323810Y-93050000D01*
X141347619Y-93150000D01*
X141371429Y-93183334D01*
X141538095Y-93183334D01*
X141538095Y-93050000D01*
X141323810Y-93483334D02*
X141823810Y-93483334D01*
X141323810Y-93883334D01*
X141823810Y-93883334D01*
X141323810Y-94216667D02*
X141823810Y-94216667D01*
X141823810Y-94383333D01*
X141800000Y-94483333D01*
X141752381Y-94550000D01*
X141704762Y-94583333D01*
X141609524Y-94616667D01*
X141538095Y-94616667D01*
X141442857Y-94583333D01*
X141395238Y-94550000D01*
X141347619Y-94483333D01*
X141323810Y-94383333D01*
X141323810Y-94216667D01*
X140647619Y-76100000D02*
X140623810Y-76200000D01*
X140623810Y-76366667D01*
X140647619Y-76433334D01*
X140671429Y-76466667D01*
X140719048Y-76500000D01*
X140766667Y-76500000D01*
X140814286Y-76466667D01*
X140838095Y-76433334D01*
X140861905Y-76366667D01*
X140885714Y-76233334D01*
X140909524Y-76166667D01*
X140933333Y-76133334D01*
X140980952Y-76100000D01*
X141028571Y-76100000D01*
X141076190Y-76133334D01*
X141100000Y-76166667D01*
X141123810Y-76233334D01*
X141123810Y-76400000D01*
X141100000Y-76500000D01*
X140671429Y-77200001D02*
X140647619Y-77166667D01*
X140623810Y-77066667D01*
X140623810Y-77000001D01*
X140647619Y-76900001D01*
X140695238Y-76833334D01*
X140742857Y-76800001D01*
X140838095Y-76766667D01*
X140909524Y-76766667D01*
X141004762Y-76800001D01*
X141052381Y-76833334D01*
X141100000Y-76900001D01*
X141123810Y-77000001D01*
X141123810Y-77066667D01*
X141100000Y-77166667D01*
X141076190Y-77200001D01*
X140623810Y-77833334D02*
X140623810Y-77500001D01*
X141123810Y-77500001D01*
X141123810Y-78500001D02*
X140623810Y-78733334D01*
X141123810Y-78966667D01*
X140623810Y-79200001D02*
X141123810Y-79200001D01*
X141123810Y-79366667D01*
X141100000Y-79466667D01*
X141052381Y-79533334D01*
X141004762Y-79566667D01*
X140909524Y-79600001D01*
X140838095Y-79600001D01*
X140742857Y-79566667D01*
X140695238Y-79533334D01*
X140647619Y-79466667D01*
X140623810Y-79366667D01*
X140623810Y-79200001D01*
X140623810Y-79900001D02*
X141123810Y-79900001D01*
X141123810Y-80066667D01*
X141100000Y-80166667D01*
X141052381Y-80233334D01*
X141004762Y-80266667D01*
X140909524Y-80300001D01*
X140838095Y-80300001D01*
X140742857Y-80266667D01*
X140695238Y-80233334D01*
X140647619Y-80166667D01*
X140623810Y-80066667D01*
X140623810Y-79900001D01*
X147047619Y-76116667D02*
X147023810Y-76216667D01*
X147023810Y-76383334D01*
X147047619Y-76450001D01*
X147071429Y-76483334D01*
X147119048Y-76516667D01*
X147166667Y-76516667D01*
X147214286Y-76483334D01*
X147238095Y-76450001D01*
X147261905Y-76383334D01*
X147285714Y-76250001D01*
X147309524Y-76183334D01*
X147333333Y-76150001D01*
X147380952Y-76116667D01*
X147428571Y-76116667D01*
X147476190Y-76150001D01*
X147500000Y-76183334D01*
X147523810Y-76250001D01*
X147523810Y-76416667D01*
X147500000Y-76516667D01*
X147023810Y-76816668D02*
X147523810Y-76816668D01*
X147523810Y-76983334D01*
X147500000Y-77083334D01*
X147452381Y-77150001D01*
X147404762Y-77183334D01*
X147309524Y-77216668D01*
X147238095Y-77216668D01*
X147142857Y-77183334D01*
X147095238Y-77150001D01*
X147047619Y-77083334D01*
X147023810Y-76983334D01*
X147023810Y-76816668D01*
X147166667Y-77483334D02*
X147166667Y-77816668D01*
X147023810Y-77416668D02*
X147523810Y-77650001D01*
X147023810Y-77883334D01*
X147500000Y-79016667D02*
X147523810Y-78950001D01*
X147523810Y-78850001D01*
X147500000Y-78750001D01*
X147452381Y-78683334D01*
X147404762Y-78650001D01*
X147309524Y-78616667D01*
X147238095Y-78616667D01*
X147142857Y-78650001D01*
X147095238Y-78683334D01*
X147047619Y-78750001D01*
X147023810Y-78850001D01*
X147023810Y-78916667D01*
X147047619Y-79016667D01*
X147071429Y-79050001D01*
X147238095Y-79050001D01*
X147238095Y-78916667D01*
X147023810Y-79350001D02*
X147523810Y-79350001D01*
X147023810Y-79750001D01*
X147523810Y-79750001D01*
X147023810Y-80083334D02*
X147523810Y-80083334D01*
X147523810Y-80250000D01*
X147500000Y-80350000D01*
X147452381Y-80416667D01*
X147404762Y-80450000D01*
X147309524Y-80483334D01*
X147238095Y-80483334D01*
X147142857Y-80450000D01*
X147095238Y-80416667D01*
X147047619Y-80350000D01*
X147023810Y-80250000D01*
X147023810Y-80083334D01*
X161376190Y-89549999D02*
X160876190Y-89549999D01*
X161233333Y-89316666D01*
X160876190Y-89083333D01*
X161376190Y-89083333D01*
X161328571Y-88349999D02*
X161352381Y-88383333D01*
X161376190Y-88483333D01*
X161376190Y-88549999D01*
X161352381Y-88649999D01*
X161304762Y-88716666D01*
X161257143Y-88749999D01*
X161161905Y-88783333D01*
X161090476Y-88783333D01*
X160995238Y-88749999D01*
X160947619Y-88716666D01*
X160900000Y-88649999D01*
X160876190Y-88549999D01*
X160876190Y-88483333D01*
X160900000Y-88383333D01*
X160923810Y-88349999D01*
X161376190Y-87716666D02*
X161376190Y-88049999D01*
X160876190Y-88049999D01*
X161376190Y-87083332D02*
X161138095Y-87316666D01*
X161376190Y-87483332D02*
X160876190Y-87483332D01*
X160876190Y-87216666D01*
X160900000Y-87149999D01*
X160923810Y-87116666D01*
X160971429Y-87083332D01*
X161042857Y-87083332D01*
X161090476Y-87116666D01*
X161114286Y-87149999D01*
X161138095Y-87216666D01*
X161138095Y-87483332D01*
X160900000Y-85883333D02*
X160876190Y-85949999D01*
X160876190Y-86049999D01*
X160900000Y-86149999D01*
X160947619Y-86216666D01*
X160995238Y-86249999D01*
X161090476Y-86283333D01*
X161161905Y-86283333D01*
X161257143Y-86249999D01*
X161304762Y-86216666D01*
X161352381Y-86149999D01*
X161376190Y-86049999D01*
X161376190Y-85983333D01*
X161352381Y-85883333D01*
X161328571Y-85849999D01*
X161161905Y-85849999D01*
X161161905Y-85983333D01*
X161376190Y-85549999D02*
X160876190Y-85549999D01*
X161376190Y-85149999D01*
X160876190Y-85149999D01*
X161376190Y-84816666D02*
X160876190Y-84816666D01*
X160876190Y-84650000D01*
X160900000Y-84550000D01*
X160947619Y-84483333D01*
X160995238Y-84450000D01*
X161090476Y-84416666D01*
X161161905Y-84416666D01*
X161257143Y-84450000D01*
X161304762Y-84483333D01*
X161352381Y-84550000D01*
X161376190Y-84650000D01*
X161376190Y-84816666D01*
X142150953Y-71783333D02*
X142470001Y-71783333D01*
X142087144Y-71926190D02*
X142310477Y-71426190D01*
X142533810Y-71926190D01*
X143140001Y-71878571D02*
X143108096Y-71902381D01*
X143012382Y-71926190D01*
X142948572Y-71926190D01*
X142852858Y-71902381D01*
X142789049Y-71854762D01*
X142757144Y-71807143D01*
X142725239Y-71711905D01*
X142725239Y-71640476D01*
X142757144Y-71545238D01*
X142789049Y-71497619D01*
X142852858Y-71450000D01*
X142948572Y-71426190D01*
X143012382Y-71426190D01*
X143108096Y-71450000D01*
X143140001Y-71473810D01*
X143778096Y-71926190D02*
X143395239Y-71926190D01*
X143586668Y-71926190D02*
X143586668Y-71426190D01*
X143522858Y-71497619D01*
X143459049Y-71545238D01*
X143395239Y-71569048D01*
X144926667Y-71450000D02*
X144862858Y-71426190D01*
X144767143Y-71426190D01*
X144671429Y-71450000D01*
X144607620Y-71497619D01*
X144575715Y-71545238D01*
X144543810Y-71640476D01*
X144543810Y-71711905D01*
X144575715Y-71807143D01*
X144607620Y-71854762D01*
X144671429Y-71902381D01*
X144767143Y-71926190D01*
X144830953Y-71926190D01*
X144926667Y-71902381D01*
X144958572Y-71878571D01*
X144958572Y-71711905D01*
X144830953Y-71711905D01*
X145245715Y-71926190D02*
X145245715Y-71426190D01*
X145628572Y-71926190D01*
X145628572Y-71426190D01*
X145947620Y-71926190D02*
X145947620Y-71426190D01*
X146107144Y-71426190D01*
X146202858Y-71450000D01*
X146266667Y-71497619D01*
X146298572Y-71545238D01*
X146330477Y-71640476D01*
X146330477Y-71711905D01*
X146298572Y-71807143D01*
X146266667Y-71854762D01*
X146202858Y-71902381D01*
X146107144Y-71926190D01*
X145947620Y-71926190D01*
X147510953Y-71878571D02*
X147479048Y-71902381D01*
X147383334Y-71926190D01*
X147319524Y-71926190D01*
X147223810Y-71902381D01*
X147160001Y-71854762D01*
X147128096Y-71807143D01*
X147096191Y-71711905D01*
X147096191Y-71640476D01*
X147128096Y-71545238D01*
X147160001Y-71497619D01*
X147223810Y-71450000D01*
X147319524Y-71426190D01*
X147383334Y-71426190D01*
X147479048Y-71450000D01*
X147510953Y-71473810D01*
X147798096Y-71926190D02*
X147798096Y-71426190D01*
X147798096Y-71664286D02*
X148180953Y-71664286D01*
X148180953Y-71926190D02*
X148180953Y-71426190D01*
X148850953Y-71926190D02*
X148468096Y-71926190D01*
X148659525Y-71926190D02*
X148659525Y-71426190D01*
X148595715Y-71497619D01*
X148531906Y-71545238D01*
X148468096Y-71569048D01*
X149999524Y-71450000D02*
X149935715Y-71426190D01*
X149840000Y-71426190D01*
X149744286Y-71450000D01*
X149680477Y-71497619D01*
X149648572Y-71545238D01*
X149616667Y-71640476D01*
X149616667Y-71711905D01*
X149648572Y-71807143D01*
X149680477Y-71854762D01*
X149744286Y-71902381D01*
X149840000Y-71926190D01*
X149903810Y-71926190D01*
X149999524Y-71902381D01*
X150031429Y-71878571D01*
X150031429Y-71711905D01*
X149903810Y-71711905D01*
X150318572Y-71926190D02*
X150318572Y-71426190D01*
X150701429Y-71926190D01*
X150701429Y-71426190D01*
X151020477Y-71926190D02*
X151020477Y-71426190D01*
X151180001Y-71426190D01*
X151275715Y-71450000D01*
X151339524Y-71497619D01*
X151371429Y-71545238D01*
X151403334Y-71640476D01*
X151403334Y-71711905D01*
X151371429Y-71807143D01*
X151339524Y-71854762D01*
X151275715Y-71902381D01*
X151180001Y-71926190D01*
X151020477Y-71926190D01*
X152583810Y-71878571D02*
X152551905Y-71902381D01*
X152456191Y-71926190D01*
X152392381Y-71926190D01*
X152296667Y-71902381D01*
X152232858Y-71854762D01*
X152200953Y-71807143D01*
X152169048Y-71711905D01*
X152169048Y-71640476D01*
X152200953Y-71545238D01*
X152232858Y-71497619D01*
X152296667Y-71450000D01*
X152392381Y-71426190D01*
X152456191Y-71426190D01*
X152551905Y-71450000D01*
X152583810Y-71473810D01*
X152870953Y-71926190D02*
X152870953Y-71426190D01*
X152870953Y-71664286D02*
X153253810Y-71664286D01*
X153253810Y-71926190D02*
X153253810Y-71426190D01*
X153540953Y-71473810D02*
X153572858Y-71450000D01*
X153636667Y-71426190D01*
X153796191Y-71426190D01*
X153860001Y-71450000D01*
X153891905Y-71473810D01*
X153923810Y-71521429D01*
X153923810Y-71569048D01*
X153891905Y-71640476D01*
X153509048Y-71926190D01*
X153923810Y-71926190D01*
X155072381Y-71450000D02*
X155008572Y-71426190D01*
X154912857Y-71426190D01*
X154817143Y-71450000D01*
X154753334Y-71497619D01*
X154721429Y-71545238D01*
X154689524Y-71640476D01*
X154689524Y-71711905D01*
X154721429Y-71807143D01*
X154753334Y-71854762D01*
X154817143Y-71902381D01*
X154912857Y-71926190D01*
X154976667Y-71926190D01*
X155072381Y-71902381D01*
X155104286Y-71878571D01*
X155104286Y-71711905D01*
X154976667Y-71711905D01*
X155391429Y-71926190D02*
X155391429Y-71426190D01*
X155774286Y-71926190D01*
X155774286Y-71426190D01*
X156093334Y-71926190D02*
X156093334Y-71426190D01*
X156252858Y-71426190D01*
X156348572Y-71450000D01*
X156412381Y-71497619D01*
X156444286Y-71545238D01*
X156476191Y-71640476D01*
X156476191Y-71711905D01*
X156444286Y-71807143D01*
X156412381Y-71854762D01*
X156348572Y-71902381D01*
X156252858Y-71926190D01*
X156093334Y-71926190D01*
X157656667Y-71878571D02*
X157624762Y-71902381D01*
X157529048Y-71926190D01*
X157465238Y-71926190D01*
X157369524Y-71902381D01*
X157305715Y-71854762D01*
X157273810Y-71807143D01*
X157241905Y-71711905D01*
X157241905Y-71640476D01*
X157273810Y-71545238D01*
X157305715Y-71497619D01*
X157369524Y-71450000D01*
X157465238Y-71426190D01*
X157529048Y-71426190D01*
X157624762Y-71450000D01*
X157656667Y-71473810D01*
X157943810Y-71926190D02*
X157943810Y-71426190D01*
X157943810Y-71664286D02*
X158326667Y-71664286D01*
X158326667Y-71926190D02*
X158326667Y-71426190D01*
X158581905Y-71426190D02*
X158996667Y-71426190D01*
X158773334Y-71616667D01*
X158869048Y-71616667D01*
X158932858Y-71640476D01*
X158964762Y-71664286D01*
X158996667Y-71711905D01*
X158996667Y-71830952D01*
X158964762Y-71878571D01*
X158932858Y-71902381D01*
X158869048Y-71926190D01*
X158677620Y-71926190D01*
X158613810Y-71902381D01*
X158581905Y-71878571D01*
X160145238Y-71450000D02*
X160081429Y-71426190D01*
X159985714Y-71426190D01*
X159890000Y-71450000D01*
X159826191Y-71497619D01*
X159794286Y-71545238D01*
X159762381Y-71640476D01*
X159762381Y-71711905D01*
X159794286Y-71807143D01*
X159826191Y-71854762D01*
X159890000Y-71902381D01*
X159985714Y-71926190D01*
X160049524Y-71926190D01*
X160145238Y-71902381D01*
X160177143Y-71878571D01*
X160177143Y-71711905D01*
X160049524Y-71711905D01*
X160464286Y-71926190D02*
X160464286Y-71426190D01*
X160847143Y-71926190D01*
X160847143Y-71426190D01*
X161166191Y-71926190D02*
X161166191Y-71426190D01*
X161325715Y-71426190D01*
X161421429Y-71450000D01*
X161485238Y-71497619D01*
X161517143Y-71545238D01*
X161549048Y-71640476D01*
X161549048Y-71711905D01*
X161517143Y-71807143D01*
X161485238Y-71854762D01*
X161421429Y-71902381D01*
X161325715Y-71926190D01*
X161166191Y-71926190D01*
X164850001Y-71902381D02*
X164950001Y-71926190D01*
X165116668Y-71926190D01*
X165183335Y-71902381D01*
X165216668Y-71878571D01*
X165250001Y-71830952D01*
X165250001Y-71783333D01*
X165216668Y-71735714D01*
X165183335Y-71711905D01*
X165116668Y-71688095D01*
X164983335Y-71664286D01*
X164916668Y-71640476D01*
X164883335Y-71616667D01*
X164850001Y-71569048D01*
X164850001Y-71521429D01*
X164883335Y-71473810D01*
X164916668Y-71450000D01*
X164983335Y-71426190D01*
X165150001Y-71426190D01*
X165250001Y-71450000D01*
X165550002Y-71664286D02*
X165783335Y-71664286D01*
X165883335Y-71926190D02*
X165550002Y-71926190D01*
X165550002Y-71426190D01*
X165883335Y-71426190D01*
X166183335Y-71926190D02*
X166183335Y-71426190D01*
X166583335Y-71926190D01*
X166583335Y-71426190D01*
X167816667Y-71450000D02*
X167750001Y-71426190D01*
X167650001Y-71426190D01*
X167550001Y-71450000D01*
X167483334Y-71497619D01*
X167450001Y-71545238D01*
X167416667Y-71640476D01*
X167416667Y-71711905D01*
X167450001Y-71807143D01*
X167483334Y-71854762D01*
X167550001Y-71902381D01*
X167650001Y-71926190D01*
X167716667Y-71926190D01*
X167816667Y-71902381D01*
X167850001Y-71878571D01*
X167850001Y-71711905D01*
X167716667Y-71711905D01*
X168150001Y-71926190D02*
X168150001Y-71426190D01*
X168550001Y-71926190D01*
X168550001Y-71426190D01*
X168883334Y-71926190D02*
X168883334Y-71426190D01*
X169050000Y-71426190D01*
X169150000Y-71450000D01*
X169216667Y-71497619D01*
X169250000Y-71545238D01*
X169283334Y-71640476D01*
X169283334Y-71711905D01*
X169250000Y-71807143D01*
X169216667Y-71854762D01*
X169150000Y-71902381D01*
X169050000Y-71926190D01*
X168883334Y-71926190D01*
X170516667Y-71878571D02*
X170483333Y-71902381D01*
X170383333Y-71926190D01*
X170316667Y-71926190D01*
X170216667Y-71902381D01*
X170150000Y-71854762D01*
X170116667Y-71807143D01*
X170083333Y-71711905D01*
X170083333Y-71640476D01*
X170116667Y-71545238D01*
X170150000Y-71497619D01*
X170216667Y-71450000D01*
X170316667Y-71426190D01*
X170383333Y-71426190D01*
X170483333Y-71450000D01*
X170516667Y-71473810D01*
X170783333Y-71783333D02*
X171116667Y-71783333D01*
X170716667Y-71926190D02*
X170950000Y-71426190D01*
X171183333Y-71926190D01*
X171416667Y-71926190D02*
X171416667Y-71426190D01*
X171683333Y-71426190D01*
X171750000Y-71450000D01*
X171783333Y-71473810D01*
X171816667Y-71521429D01*
X171816667Y-71592857D01*
X171783333Y-71640476D01*
X171750000Y-71664286D01*
X171683333Y-71688095D01*
X171416667Y-71688095D01*
X172650000Y-71926190D02*
X172650000Y-71426190D01*
X172883333Y-71783333D01*
X173116666Y-71426190D01*
X173116666Y-71926190D01*
X173450000Y-71926190D02*
X173450000Y-71426190D01*
X174183333Y-71878571D02*
X174149999Y-71902381D01*
X174049999Y-71926190D01*
X173983333Y-71926190D01*
X173883333Y-71902381D01*
X173816666Y-71854762D01*
X173783333Y-71807143D01*
X173749999Y-71711905D01*
X173749999Y-71640476D01*
X173783333Y-71545238D01*
X173816666Y-71497619D01*
X173883333Y-71450000D01*
X173983333Y-71426190D01*
X174049999Y-71426190D01*
X174149999Y-71450000D01*
X174183333Y-71473810D01*
X175383332Y-71450000D02*
X175316666Y-71426190D01*
X175216666Y-71426190D01*
X175116666Y-71450000D01*
X175049999Y-71497619D01*
X175016666Y-71545238D01*
X174983332Y-71640476D01*
X174983332Y-71711905D01*
X175016666Y-71807143D01*
X175049999Y-71854762D01*
X175116666Y-71902381D01*
X175216666Y-71926190D01*
X175283332Y-71926190D01*
X175383332Y-71902381D01*
X175416666Y-71878571D01*
X175416666Y-71711905D01*
X175283332Y-71711905D01*
X175716666Y-71926190D02*
X175716666Y-71426190D01*
X176116666Y-71926190D01*
X176116666Y-71426190D01*
X176449999Y-71926190D02*
X176449999Y-71426190D01*
X176616665Y-71426190D01*
X176716665Y-71450000D01*
X176783332Y-71497619D01*
X176816665Y-71545238D01*
X176849999Y-71640476D01*
X176849999Y-71711905D01*
X176816665Y-71807143D01*
X176783332Y-71854762D01*
X176716665Y-71902381D01*
X176616665Y-71926190D01*
X176449999Y-71926190D01*
X178083332Y-71878571D02*
X178049998Y-71902381D01*
X177949998Y-71926190D01*
X177883332Y-71926190D01*
X177783332Y-71902381D01*
X177716665Y-71854762D01*
X177683332Y-71807143D01*
X177649998Y-71711905D01*
X177649998Y-71640476D01*
X177683332Y-71545238D01*
X177716665Y-71497619D01*
X177783332Y-71450000D01*
X177883332Y-71426190D01*
X177949998Y-71426190D01*
X178049998Y-71450000D01*
X178083332Y-71473810D01*
X178316665Y-71426190D02*
X178749998Y-71426190D01*
X178516665Y-71616667D01*
X178616665Y-71616667D01*
X178683332Y-71640476D01*
X178716665Y-71664286D01*
X178749998Y-71711905D01*
X178749998Y-71830952D01*
X178716665Y-71878571D01*
X178683332Y-71902381D01*
X178616665Y-71926190D01*
X178416665Y-71926190D01*
X178349998Y-71902381D01*
X178316665Y-71878571D01*
X179416665Y-71450000D02*
X179349999Y-71426190D01*
X179249999Y-71426190D01*
X179149999Y-71450000D01*
X179083332Y-71497619D01*
X179049999Y-71545238D01*
X179016665Y-71640476D01*
X179016665Y-71711905D01*
X179049999Y-71807143D01*
X179083332Y-71854762D01*
X179149999Y-71902381D01*
X179249999Y-71926190D01*
X179316665Y-71926190D01*
X179416665Y-71902381D01*
X179449999Y-71878571D01*
X179449999Y-71711905D01*
X179316665Y-71711905D01*
X133083098Y-123550000D02*
X133013575Y-123526190D01*
X132909289Y-123526190D01*
X132805003Y-123550000D01*
X132735479Y-123597619D01*
X132700718Y-123645238D01*
X132665956Y-123740476D01*
X132665956Y-123811905D01*
X132700718Y-123907143D01*
X132735479Y-123954762D01*
X132805003Y-124002381D01*
X132909289Y-124026190D01*
X132978813Y-124026190D01*
X133083098Y-124002381D01*
X133117860Y-123978571D01*
X133117860Y-123811905D01*
X132978813Y-123811905D01*
X133430718Y-124026190D02*
X133430718Y-123526190D01*
X133847860Y-124026190D01*
X133847860Y-123526190D01*
X134195480Y-124026190D02*
X134195480Y-123526190D01*
X134369289Y-123526190D01*
X134473575Y-123550000D01*
X134543099Y-123597619D01*
X134577860Y-123645238D01*
X134612622Y-123740476D01*
X134612622Y-123811905D01*
X134577860Y-123907143D01*
X134543099Y-123954762D01*
X134473575Y-124002381D01*
X134369289Y-124026190D01*
X134195480Y-124026190D01*
X135446908Y-124002381D02*
X135551193Y-124026190D01*
X135725003Y-124026190D01*
X135794527Y-124002381D01*
X135829289Y-123978571D01*
X135864050Y-123930952D01*
X135864050Y-123883333D01*
X135829289Y-123835714D01*
X135794527Y-123811905D01*
X135725003Y-123788095D01*
X135585955Y-123764286D01*
X135516431Y-123740476D01*
X135481670Y-123716667D01*
X135446908Y-123669048D01*
X135446908Y-123621429D01*
X135481670Y-123573810D01*
X135516431Y-123550000D01*
X135585955Y-123526190D01*
X135759765Y-123526190D01*
X135864050Y-123550000D01*
X136663574Y-124073810D02*
X136594050Y-124050000D01*
X136524527Y-124002381D01*
X136420241Y-123930952D01*
X136350717Y-123907143D01*
X136281193Y-123907143D01*
X136315955Y-124026190D02*
X136246431Y-124002381D01*
X136176908Y-123954762D01*
X136142146Y-123859524D01*
X136142146Y-123692857D01*
X136176908Y-123597619D01*
X136246431Y-123550000D01*
X136315955Y-123526190D01*
X136455003Y-123526190D01*
X136524527Y-123550000D01*
X136594050Y-123597619D01*
X136628812Y-123692857D01*
X136628812Y-123859524D01*
X136594050Y-123954762D01*
X136524527Y-124002381D01*
X136455003Y-124026190D01*
X136315955Y-124026190D01*
X137324050Y-124026190D02*
X136906908Y-124026190D01*
X137115479Y-124026190D02*
X137115479Y-123526190D01*
X137045955Y-123597619D01*
X136976431Y-123645238D01*
X136906908Y-123669048D01*
X138158336Y-124002381D02*
X138262621Y-124026190D01*
X138436431Y-124026190D01*
X138505955Y-124002381D01*
X138540717Y-123978571D01*
X138575478Y-123930952D01*
X138575478Y-123883333D01*
X138540717Y-123835714D01*
X138505955Y-123811905D01*
X138436431Y-123788095D01*
X138297383Y-123764286D01*
X138227859Y-123740476D01*
X138193098Y-123716667D01*
X138158336Y-123669048D01*
X138158336Y-123621429D01*
X138193098Y-123573810D01*
X138227859Y-123550000D01*
X138297383Y-123526190D01*
X138471193Y-123526190D01*
X138575478Y-123550000D01*
X139375002Y-124073810D02*
X139305478Y-124050000D01*
X139235955Y-124002381D01*
X139131669Y-123930952D01*
X139062145Y-123907143D01*
X138992621Y-123907143D01*
X139027383Y-124026190D02*
X138957859Y-124002381D01*
X138888336Y-123954762D01*
X138853574Y-123859524D01*
X138853574Y-123692857D01*
X138888336Y-123597619D01*
X138957859Y-123550000D01*
X139027383Y-123526190D01*
X139166431Y-123526190D01*
X139235955Y-123550000D01*
X139305478Y-123597619D01*
X139340240Y-123692857D01*
X139340240Y-123859524D01*
X139305478Y-123954762D01*
X139235955Y-124002381D01*
X139166431Y-124026190D01*
X139027383Y-124026190D01*
X139618336Y-123573810D02*
X139653098Y-123550000D01*
X139722621Y-123526190D01*
X139896431Y-123526190D01*
X139965955Y-123550000D01*
X140000717Y-123573810D01*
X140035478Y-123621429D01*
X140035478Y-123669048D01*
X140000717Y-123740476D01*
X139583574Y-124026190D01*
X140035478Y-124026190D01*
X140869764Y-124002381D02*
X140974049Y-124026190D01*
X141147859Y-124026190D01*
X141217383Y-124002381D01*
X141252145Y-123978571D01*
X141286906Y-123930952D01*
X141286906Y-123883333D01*
X141252145Y-123835714D01*
X141217383Y-123811905D01*
X141147859Y-123788095D01*
X141008811Y-123764286D01*
X140939287Y-123740476D01*
X140904526Y-123716667D01*
X140869764Y-123669048D01*
X140869764Y-123621429D01*
X140904526Y-123573810D01*
X140939287Y-123550000D01*
X141008811Y-123526190D01*
X141182621Y-123526190D01*
X141286906Y-123550000D01*
X142086430Y-124073810D02*
X142016906Y-124050000D01*
X141947383Y-124002381D01*
X141843097Y-123930952D01*
X141773573Y-123907143D01*
X141704049Y-123907143D01*
X141738811Y-124026190D02*
X141669287Y-124002381D01*
X141599764Y-123954762D01*
X141565002Y-123859524D01*
X141565002Y-123692857D01*
X141599764Y-123597619D01*
X141669287Y-123550000D01*
X141738811Y-123526190D01*
X141877859Y-123526190D01*
X141947383Y-123550000D01*
X142016906Y-123597619D01*
X142051668Y-123692857D01*
X142051668Y-123859524D01*
X142016906Y-123954762D01*
X141947383Y-124002381D01*
X141877859Y-124026190D01*
X141738811Y-124026190D01*
X142295002Y-123526190D02*
X142746906Y-123526190D01*
X142503573Y-123716667D01*
X142607859Y-123716667D01*
X142677383Y-123740476D01*
X142712145Y-123764286D01*
X142746906Y-123811905D01*
X142746906Y-123930952D01*
X142712145Y-123978571D01*
X142677383Y-124002381D01*
X142607859Y-124026190D01*
X142399287Y-124026190D01*
X142329764Y-124002381D01*
X142295002Y-123978571D01*
X143581192Y-124002381D02*
X143685477Y-124026190D01*
X143859287Y-124026190D01*
X143928811Y-124002381D01*
X143963573Y-123978571D01*
X143998334Y-123930952D01*
X143998334Y-123883333D01*
X143963573Y-123835714D01*
X143928811Y-123811905D01*
X143859287Y-123788095D01*
X143720239Y-123764286D01*
X143650715Y-123740476D01*
X143615954Y-123716667D01*
X143581192Y-123669048D01*
X143581192Y-123621429D01*
X143615954Y-123573810D01*
X143650715Y-123550000D01*
X143720239Y-123526190D01*
X143894049Y-123526190D01*
X143998334Y-123550000D01*
X144797858Y-124073810D02*
X144728334Y-124050000D01*
X144658811Y-124002381D01*
X144554525Y-123930952D01*
X144485001Y-123907143D01*
X144415477Y-123907143D01*
X144450239Y-124026190D02*
X144380715Y-124002381D01*
X144311192Y-123954762D01*
X144276430Y-123859524D01*
X144276430Y-123692857D01*
X144311192Y-123597619D01*
X144380715Y-123550000D01*
X144450239Y-123526190D01*
X144589287Y-123526190D01*
X144658811Y-123550000D01*
X144728334Y-123597619D01*
X144763096Y-123692857D01*
X144763096Y-123859524D01*
X144728334Y-123954762D01*
X144658811Y-124002381D01*
X144589287Y-124026190D01*
X144450239Y-124026190D01*
X145388811Y-123692857D02*
X145388811Y-124026190D01*
X145215001Y-123502381D02*
X145041192Y-123859524D01*
X145493096Y-123859524D01*
X146570715Y-123764286D02*
X146327382Y-123764286D01*
X146327382Y-124026190D02*
X146327382Y-123526190D01*
X146675001Y-123526190D01*
X147370238Y-123978571D02*
X147335476Y-124002381D01*
X147231191Y-124026190D01*
X147161667Y-124026190D01*
X147057381Y-124002381D01*
X146987857Y-123954762D01*
X146953096Y-123907143D01*
X146918334Y-123811905D01*
X146918334Y-123740476D01*
X146953096Y-123645238D01*
X146987857Y-123597619D01*
X147057381Y-123550000D01*
X147161667Y-123526190D01*
X147231191Y-123526190D01*
X147335476Y-123550000D01*
X147370238Y-123573810D01*
X147683096Y-124026190D02*
X147683096Y-123692857D01*
X147683096Y-123526190D02*
X147648334Y-123550000D01*
X147683096Y-123573810D01*
X147717857Y-123550000D01*
X147683096Y-123526190D01*
X147683096Y-123573810D01*
X148586905Y-124026190D02*
X148586905Y-123526190D01*
X148934524Y-124026190D02*
X148934524Y-123526190D01*
X149108333Y-123526190D01*
X149212619Y-123550000D01*
X149282143Y-123597619D01*
X149316904Y-123645238D01*
X149351666Y-123740476D01*
X149351666Y-123811905D01*
X149316904Y-123907143D01*
X149282143Y-123954762D01*
X149212619Y-124002381D01*
X149108333Y-124026190D01*
X148934524Y-124026190D01*
X150046904Y-124026190D02*
X149629762Y-124026190D01*
X149838333Y-124026190D02*
X149838333Y-123526190D01*
X149768809Y-123597619D01*
X149699285Y-123645238D01*
X149629762Y-123669048D01*
X150915952Y-124026190D02*
X150915952Y-123526190D01*
X151263571Y-124026190D02*
X151263571Y-123526190D01*
X151437380Y-123526190D01*
X151541666Y-123550000D01*
X151611190Y-123597619D01*
X151645951Y-123645238D01*
X151680713Y-123740476D01*
X151680713Y-123811905D01*
X151645951Y-123907143D01*
X151611190Y-123954762D01*
X151541666Y-124002381D01*
X151437380Y-124026190D01*
X151263571Y-124026190D01*
X151958809Y-123573810D02*
X151993571Y-123550000D01*
X152063094Y-123526190D01*
X152236904Y-123526190D01*
X152306428Y-123550000D01*
X152341190Y-123573810D01*
X152375951Y-123621429D01*
X152375951Y-123669048D01*
X152341190Y-123740476D01*
X151924047Y-124026190D01*
X152375951Y-124026190D01*
X153244999Y-124026190D02*
X153244999Y-123526190D01*
X153592618Y-124026190D02*
X153592618Y-123526190D01*
X153766427Y-123526190D01*
X153870713Y-123550000D01*
X153940237Y-123597619D01*
X153974998Y-123645238D01*
X154009760Y-123740476D01*
X154009760Y-123811905D01*
X153974998Y-123907143D01*
X153940237Y-123954762D01*
X153870713Y-124002381D01*
X153766427Y-124026190D01*
X153592618Y-124026190D01*
X154253094Y-123526190D02*
X154704998Y-123526190D01*
X154461665Y-123716667D01*
X154565951Y-123716667D01*
X154635475Y-123740476D01*
X154670237Y-123764286D01*
X154704998Y-123811905D01*
X154704998Y-123930952D01*
X154670237Y-123978571D01*
X154635475Y-124002381D01*
X154565951Y-124026190D01*
X154357379Y-124026190D01*
X154287856Y-124002381D01*
X154253094Y-123978571D01*
X155574046Y-124026190D02*
X155574046Y-123526190D01*
X155921665Y-124026190D02*
X155921665Y-123526190D01*
X156095474Y-123526190D01*
X156199760Y-123550000D01*
X156269284Y-123597619D01*
X156304045Y-123645238D01*
X156338807Y-123740476D01*
X156338807Y-123811905D01*
X156304045Y-123907143D01*
X156269284Y-123954762D01*
X156199760Y-124002381D01*
X156095474Y-124026190D01*
X155921665Y-124026190D01*
X156964522Y-123692857D02*
X156964522Y-124026190D01*
X156790712Y-123502381D02*
X156616903Y-123859524D01*
X157068807Y-123859524D01*
X160266668Y-124026190D02*
X160266668Y-123526190D01*
X160533334Y-123526190D01*
X160600001Y-123550000D01*
X160633334Y-123573810D01*
X160666668Y-123621429D01*
X160666668Y-123692857D01*
X160633334Y-123740476D01*
X160600001Y-123764286D01*
X160533334Y-123788095D01*
X160266668Y-123788095D01*
X160866668Y-123526190D02*
X161100001Y-124026190D01*
X161333334Y-123526190D01*
X161933334Y-124026190D02*
X161533334Y-124026190D01*
X161733334Y-124026190D02*
X161733334Y-123526190D01*
X161666668Y-123597619D01*
X161600001Y-123645238D01*
X161533334Y-123669048D01*
X162766668Y-124026190D02*
X162766668Y-123526190D01*
X163033334Y-123526190D01*
X163100001Y-123550000D01*
X163133334Y-123573810D01*
X163166668Y-123621429D01*
X163166668Y-123692857D01*
X163133334Y-123740476D01*
X163100001Y-123764286D01*
X163033334Y-123788095D01*
X162766668Y-123788095D01*
X163366668Y-123526190D02*
X163600001Y-124026190D01*
X163833334Y-123526190D01*
X164033334Y-123573810D02*
X164066668Y-123550000D01*
X164133334Y-123526190D01*
X164300001Y-123526190D01*
X164366668Y-123550000D01*
X164400001Y-123573810D01*
X164433334Y-123621429D01*
X164433334Y-123669048D01*
X164400001Y-123740476D01*
X164000001Y-124026190D01*
X164433334Y-124026190D01*
X165266668Y-124026190D02*
X165266668Y-123526190D01*
X165533334Y-123526190D01*
X165600001Y-123550000D01*
X165633334Y-123573810D01*
X165666668Y-123621429D01*
X165666668Y-123692857D01*
X165633334Y-123740476D01*
X165600001Y-123764286D01*
X165533334Y-123788095D01*
X165266668Y-123788095D01*
X165866668Y-123526190D02*
X166100001Y-124026190D01*
X166333334Y-123526190D01*
X166500001Y-123526190D02*
X166933334Y-123526190D01*
X166700001Y-123716667D01*
X166800001Y-123716667D01*
X166866668Y-123740476D01*
X166900001Y-123764286D01*
X166933334Y-123811905D01*
X166933334Y-123930952D01*
X166900001Y-123978571D01*
X166866668Y-124002381D01*
X166800001Y-124026190D01*
X166600001Y-124026190D01*
X166533334Y-124002381D01*
X166500001Y-123978571D01*
X167766668Y-124026190D02*
X167766668Y-123526190D01*
X168033334Y-123526190D01*
X168100001Y-123550000D01*
X168133334Y-123573810D01*
X168166668Y-123621429D01*
X168166668Y-123692857D01*
X168133334Y-123740476D01*
X168100001Y-123764286D01*
X168033334Y-123788095D01*
X167766668Y-123788095D01*
X168866668Y-123978571D02*
X168833334Y-124002381D01*
X168733334Y-124026190D01*
X168666668Y-124026190D01*
X168566668Y-124002381D01*
X168500001Y-123954762D01*
X168466668Y-123907143D01*
X168433334Y-123811905D01*
X168433334Y-123740476D01*
X168466668Y-123645238D01*
X168500001Y-123597619D01*
X168566668Y-123550000D01*
X168666668Y-123526190D01*
X168733334Y-123526190D01*
X168833334Y-123550000D01*
X168866668Y-123573810D01*
X169133334Y-124002381D02*
X169233334Y-124026190D01*
X169400001Y-124026190D01*
X169466668Y-124002381D01*
X169500001Y-123978571D01*
X169533334Y-123930952D01*
X169533334Y-123883333D01*
X169500001Y-123835714D01*
X169466668Y-123811905D01*
X169400001Y-123788095D01*
X169266668Y-123764286D01*
X169200001Y-123740476D01*
X169166668Y-123716667D01*
X169133334Y-123669048D01*
X169133334Y-123621429D01*
X169166668Y-123573810D01*
X169200001Y-123550000D01*
X169266668Y-123526190D01*
X169433334Y-123526190D01*
X169533334Y-123550000D01*
X170733334Y-123550000D02*
X170666668Y-123526190D01*
X170566668Y-123526190D01*
X170466668Y-123550000D01*
X170400001Y-123597619D01*
X170366668Y-123645238D01*
X170333334Y-123740476D01*
X170333334Y-123811905D01*
X170366668Y-123907143D01*
X170400001Y-123954762D01*
X170466668Y-124002381D01*
X170566668Y-124026190D01*
X170633334Y-124026190D01*
X170733334Y-124002381D01*
X170766668Y-123978571D01*
X170766668Y-123811905D01*
X170633334Y-123811905D01*
X171066668Y-124026190D02*
X171066668Y-123526190D01*
X171466668Y-124026190D01*
X171466668Y-123526190D01*
X171800001Y-124026190D02*
X171800001Y-123526190D01*
X171966667Y-123526190D01*
X172066667Y-123550000D01*
X172133334Y-123597619D01*
X172166667Y-123645238D01*
X172200001Y-123740476D01*
X172200001Y-123811905D01*
X172166667Y-123907143D01*
X172133334Y-123954762D01*
X172066667Y-124002381D01*
X171966667Y-124026190D01*
X171800001Y-124026190D01*
X173000000Y-124002381D02*
X173100000Y-124026190D01*
X173266667Y-124026190D01*
X173333334Y-124002381D01*
X173366667Y-123978571D01*
X173400000Y-123930952D01*
X173400000Y-123883333D01*
X173366667Y-123835714D01*
X173333334Y-123811905D01*
X173266667Y-123788095D01*
X173133334Y-123764286D01*
X173066667Y-123740476D01*
X173033334Y-123716667D01*
X173000000Y-123669048D01*
X173000000Y-123621429D01*
X173033334Y-123573810D01*
X173066667Y-123550000D01*
X173133334Y-123526190D01*
X173300000Y-123526190D01*
X173400000Y-123550000D01*
X173700001Y-124026190D02*
X173700001Y-123526190D01*
X174400000Y-124026190D02*
X174000000Y-124026190D01*
X174200000Y-124026190D02*
X174200000Y-123526190D01*
X174133334Y-123597619D01*
X174066667Y-123645238D01*
X174000000Y-123669048D01*
X175600000Y-123550000D02*
X175533334Y-123526190D01*
X175433334Y-123526190D01*
X175333334Y-123550000D01*
X175266667Y-123597619D01*
X175233334Y-123645238D01*
X175200000Y-123740476D01*
X175200000Y-123811905D01*
X175233334Y-123907143D01*
X175266667Y-123954762D01*
X175333334Y-124002381D01*
X175433334Y-124026190D01*
X175500000Y-124026190D01*
X175600000Y-124002381D01*
X175633334Y-123978571D01*
X175633334Y-123811905D01*
X175500000Y-123811905D01*
X175933334Y-124026190D02*
X175933334Y-123526190D01*
X176333334Y-124026190D01*
X176333334Y-123526190D01*
X176666667Y-124026190D02*
X176666667Y-123526190D01*
X176833333Y-123526190D01*
X176933333Y-123550000D01*
X177000000Y-123597619D01*
X177033333Y-123645238D01*
X177066667Y-123740476D01*
X177066667Y-123811905D01*
X177033333Y-123907143D01*
X177000000Y-123954762D01*
X176933333Y-124002381D01*
X176833333Y-124026190D01*
X176666667Y-124026190D01*
X177866666Y-124002381D02*
X177966666Y-124026190D01*
X178133333Y-124026190D01*
X178200000Y-124002381D01*
X178233333Y-123978571D01*
X178266666Y-123930952D01*
X178266666Y-123883333D01*
X178233333Y-123835714D01*
X178200000Y-123811905D01*
X178133333Y-123788095D01*
X178000000Y-123764286D01*
X177933333Y-123740476D01*
X177900000Y-123716667D01*
X177866666Y-123669048D01*
X177866666Y-123621429D01*
X177900000Y-123573810D01*
X177933333Y-123550000D01*
X178000000Y-123526190D01*
X178166666Y-123526190D01*
X178266666Y-123550000D01*
X178566667Y-124026190D02*
X178566667Y-123526190D01*
X178866666Y-123573810D02*
X178900000Y-123550000D01*
X178966666Y-123526190D01*
X179133333Y-123526190D01*
X179200000Y-123550000D01*
X179233333Y-123573810D01*
X179266666Y-123621429D01*
X179266666Y-123669048D01*
X179233333Y-123740476D01*
X178833333Y-124026190D01*
X179266666Y-124026190D01*
X166547619Y-82928571D02*
X166523810Y-83035714D01*
X166523810Y-83214285D01*
X166547619Y-83285714D01*
X166571429Y-83321428D01*
X166619048Y-83357143D01*
X166666667Y-83357143D01*
X166714286Y-83321428D01*
X166738095Y-83285714D01*
X166761905Y-83214285D01*
X166785714Y-83071428D01*
X166809524Y-83000000D01*
X166833333Y-82964285D01*
X166880952Y-82928571D01*
X166928571Y-82928571D01*
X166976190Y-82964285D01*
X167000000Y-83000000D01*
X167023810Y-83071428D01*
X167023810Y-83250000D01*
X167000000Y-83357143D01*
X166523810Y-83678571D02*
X167023810Y-83678571D01*
X167023810Y-83857143D01*
X167000000Y-83964286D01*
X166952381Y-84035714D01*
X166904762Y-84071429D01*
X166809524Y-84107143D01*
X166738095Y-84107143D01*
X166642857Y-84071429D01*
X166595238Y-84035714D01*
X166547619Y-83964286D01*
X166523810Y-83857143D01*
X166523810Y-83678571D01*
X166523810Y-84428571D02*
X167023810Y-84428571D01*
X166547619Y-85321429D02*
X166523810Y-85428572D01*
X166523810Y-85607143D01*
X166547619Y-85678572D01*
X166571429Y-85714286D01*
X166619048Y-85750001D01*
X166666667Y-85750001D01*
X166714286Y-85714286D01*
X166738095Y-85678572D01*
X166761905Y-85607143D01*
X166785714Y-85464286D01*
X166809524Y-85392858D01*
X166833333Y-85357143D01*
X166880952Y-85321429D01*
X166928571Y-85321429D01*
X166976190Y-85357143D01*
X167000000Y-85392858D01*
X167023810Y-85464286D01*
X167023810Y-85642858D01*
X167000000Y-85750001D01*
X166523810Y-86071429D02*
X167023810Y-86071429D01*
X167023810Y-86250001D01*
X167000000Y-86357144D01*
X166952381Y-86428572D01*
X166904762Y-86464287D01*
X166809524Y-86500001D01*
X166738095Y-86500001D01*
X166642857Y-86464287D01*
X166595238Y-86428572D01*
X166547619Y-86357144D01*
X166523810Y-86250001D01*
X166523810Y-86071429D01*
X167023810Y-86964287D02*
X167023810Y-87107144D01*
X167000000Y-87178572D01*
X166952381Y-87250001D01*
X166857143Y-87285715D01*
X166690476Y-87285715D01*
X166595238Y-87250001D01*
X166547619Y-87178572D01*
X166523810Y-87107144D01*
X166523810Y-86964287D01*
X166547619Y-86892858D01*
X166595238Y-86821429D01*
X166690476Y-86785715D01*
X166857143Y-86785715D01*
X166952381Y-86821429D01*
X167000000Y-86892858D01*
X167023810Y-86964287D01*
X166547619Y-88142858D02*
X166523810Y-88250001D01*
X166523810Y-88428572D01*
X166547619Y-88500001D01*
X166571429Y-88535715D01*
X166619048Y-88571430D01*
X166666667Y-88571430D01*
X166714286Y-88535715D01*
X166738095Y-88500001D01*
X166761905Y-88428572D01*
X166785714Y-88285715D01*
X166809524Y-88214287D01*
X166833333Y-88178572D01*
X166880952Y-88142858D01*
X166928571Y-88142858D01*
X166976190Y-88178572D01*
X167000000Y-88214287D01*
X167023810Y-88285715D01*
X167023810Y-88464287D01*
X167000000Y-88571430D01*
X166571429Y-89321430D02*
X166547619Y-89285716D01*
X166523810Y-89178573D01*
X166523810Y-89107144D01*
X166547619Y-89000001D01*
X166595238Y-88928573D01*
X166642857Y-88892858D01*
X166738095Y-88857144D01*
X166809524Y-88857144D01*
X166904762Y-88892858D01*
X166952381Y-88928573D01*
X167000000Y-89000001D01*
X167023810Y-89107144D01*
X167023810Y-89178573D01*
X167000000Y-89285716D01*
X166976190Y-89321430D01*
X166523810Y-89642858D02*
X167023810Y-89642858D01*
X166523810Y-90071430D02*
X166809524Y-89750001D01*
X167023810Y-90071430D02*
X166738095Y-89642858D01*
X154833333Y-88885714D02*
X154833333Y-88528571D01*
X154976190Y-88957142D02*
X154476190Y-88707142D01*
X154976190Y-88457142D01*
X154976190Y-88207143D02*
X154476190Y-88207143D01*
X154976190Y-87778571D01*
X154476190Y-87778571D01*
X154690476Y-87314286D02*
X154666667Y-87385714D01*
X154642857Y-87421429D01*
X154595238Y-87457143D01*
X154571429Y-87457143D01*
X154523810Y-87421429D01*
X154500000Y-87385714D01*
X154476190Y-87314286D01*
X154476190Y-87171429D01*
X154500000Y-87100000D01*
X154523810Y-87064286D01*
X154571429Y-87028571D01*
X154595238Y-87028571D01*
X154642857Y-87064286D01*
X154666667Y-87100000D01*
X154690476Y-87171429D01*
X154690476Y-87314286D01*
X154714286Y-87385714D01*
X154738095Y-87421429D01*
X154785714Y-87457143D01*
X154880952Y-87457143D01*
X154928571Y-87421429D01*
X154952381Y-87385714D01*
X154976190Y-87314286D01*
X154976190Y-87171429D01*
X154952381Y-87100000D01*
X154928571Y-87064286D01*
X154880952Y-87028571D01*
X154785714Y-87028571D01*
X154738095Y-87064286D01*
X154714286Y-87100000D01*
X154690476Y-87171429D01*
X154476190Y-86242856D02*
X154976190Y-85992856D01*
X154476190Y-85742856D01*
X154976190Y-85492857D02*
X154476190Y-85492857D01*
X154476190Y-85314285D01*
X154500000Y-85207142D01*
X154547619Y-85135714D01*
X154595238Y-85099999D01*
X154690476Y-85064285D01*
X154761905Y-85064285D01*
X154857143Y-85099999D01*
X154904762Y-85135714D01*
X154952381Y-85207142D01*
X154976190Y-85314285D01*
X154976190Y-85492857D01*
X154976190Y-84742857D02*
X154476190Y-84742857D01*
X154476190Y-84564285D01*
X154500000Y-84457142D01*
X154547619Y-84385714D01*
X154595238Y-84349999D01*
X154690476Y-84314285D01*
X154761905Y-84314285D01*
X154857143Y-84349999D01*
X154904762Y-84385714D01*
X154952381Y-84457142D01*
X154976190Y-84564285D01*
X154976190Y-84742857D01*
X120621428Y-105052381D02*
X121192857Y-105052381D01*
X120907142Y-106052381D02*
X120907142Y-105052381D01*
X121430952Y-105052381D02*
X122097619Y-106052381D01*
X122097619Y-105052381D02*
X121430952Y-106052381D01*
X123811905Y-106052381D02*
X123478571Y-105576190D01*
X123240476Y-106052381D02*
X123240476Y-105052381D01*
X123621429Y-105052381D01*
X123716667Y-105100000D01*
X123764286Y-105147619D01*
X123811905Y-105242857D01*
X123811905Y-105385714D01*
X123764286Y-105480952D01*
X123716667Y-105528571D01*
X123621429Y-105576190D01*
X123240476Y-105576190D01*
X124145238Y-105052381D02*
X124811905Y-106052381D01*
X124811905Y-105052381D02*
X124145238Y-106052381D01*
X125954762Y-105528571D02*
X126288096Y-105528571D01*
X126430953Y-106052381D02*
X125954762Y-106052381D01*
X125954762Y-105052381D01*
X126430953Y-105052381D01*
X126811905Y-106004762D02*
X126954762Y-106052381D01*
X127192858Y-106052381D01*
X127288096Y-106004762D01*
X127335715Y-105957143D01*
X127383334Y-105861905D01*
X127383334Y-105766667D01*
X127335715Y-105671429D01*
X127288096Y-105623810D01*
X127192858Y-105576190D01*
X127002381Y-105528571D01*
X126907143Y-105480952D01*
X126859524Y-105433333D01*
X126811905Y-105338095D01*
X126811905Y-105242857D01*
X126859524Y-105147619D01*
X126907143Y-105100000D01*
X127002381Y-105052381D01*
X127240477Y-105052381D01*
X127383334Y-105100000D01*
X127811905Y-106052381D02*
X127811905Y-105052381D01*
X128192858Y-105052381D01*
X128288096Y-105100000D01*
X128335715Y-105147619D01*
X128383334Y-105242857D01*
X128383334Y-105385714D01*
X128335715Y-105480952D01*
X128288096Y-105528571D01*
X128192858Y-105576190D01*
X127811905Y-105576190D01*
X134183334Y-103335714D02*
X134716667Y-103335714D01*
X134450000Y-103526190D02*
X134450000Y-103145238D01*
X135383334Y-103026190D02*
X135050001Y-103026190D01*
X135016667Y-103264286D01*
X135050001Y-103240476D01*
X135116667Y-103216667D01*
X135283334Y-103216667D01*
X135350001Y-103240476D01*
X135383334Y-103264286D01*
X135416667Y-103311905D01*
X135416667Y-103430952D01*
X135383334Y-103478571D01*
X135350001Y-103502381D01*
X135283334Y-103526190D01*
X135116667Y-103526190D01*
X135050001Y-103502381D01*
X135016667Y-103478571D01*
X135616668Y-103026190D02*
X135850001Y-103526190D01*
X136083334Y-103026190D01*
X136850001Y-103526190D02*
X136850001Y-103026190D01*
X137116667Y-103026190D01*
X137183334Y-103050000D01*
X137216667Y-103073810D01*
X137250001Y-103121429D01*
X137250001Y-103192857D01*
X137216667Y-103240476D01*
X137183334Y-103264286D01*
X137116667Y-103288095D01*
X136850001Y-103288095D01*
X137916667Y-103050000D02*
X137850001Y-103026190D01*
X137750001Y-103026190D01*
X137650001Y-103050000D01*
X137583334Y-103097619D01*
X137550001Y-103145238D01*
X137516667Y-103240476D01*
X137516667Y-103311905D01*
X137550001Y-103407143D01*
X137583334Y-103454762D01*
X137650001Y-103502381D01*
X137750001Y-103526190D01*
X137816667Y-103526190D01*
X137916667Y-103502381D01*
X137950001Y-103478571D01*
X137950001Y-103311905D01*
X137816667Y-103311905D01*
X138250001Y-103526190D02*
X138250001Y-103026190D01*
X138416667Y-103026190D01*
X138516667Y-103050000D01*
X138583334Y-103097619D01*
X138616667Y-103145238D01*
X138650001Y-103240476D01*
X138650001Y-103311905D01*
X138616667Y-103407143D01*
X138583334Y-103454762D01*
X138516667Y-103502381D01*
X138416667Y-103526190D01*
X138250001Y-103526190D01*
X139483334Y-103526190D02*
X139483334Y-103026190D01*
X139750000Y-103026190D01*
X139816667Y-103050000D01*
X139850000Y-103073810D01*
X139883334Y-103121429D01*
X139883334Y-103192857D01*
X139850000Y-103240476D01*
X139816667Y-103264286D01*
X139750000Y-103288095D01*
X139483334Y-103288095D01*
X140550000Y-103050000D02*
X140483334Y-103026190D01*
X140383334Y-103026190D01*
X140283334Y-103050000D01*
X140216667Y-103097619D01*
X140183334Y-103145238D01*
X140150000Y-103240476D01*
X140150000Y-103311905D01*
X140183334Y-103407143D01*
X140216667Y-103454762D01*
X140283334Y-103502381D01*
X140383334Y-103526190D01*
X140450000Y-103526190D01*
X140550000Y-103502381D01*
X140583334Y-103478571D01*
X140583334Y-103311905D01*
X140450000Y-103311905D01*
X141283334Y-103478571D02*
X141250000Y-103502381D01*
X141150000Y-103526190D01*
X141083334Y-103526190D01*
X140983334Y-103502381D01*
X140916667Y-103454762D01*
X140883334Y-103407143D01*
X140850000Y-103311905D01*
X140850000Y-103240476D01*
X140883334Y-103145238D01*
X140916667Y-103097619D01*
X140983334Y-103050000D01*
X141083334Y-103026190D01*
X141150000Y-103026190D01*
X141250000Y-103050000D01*
X141283334Y-103073810D01*
X142516667Y-103526190D02*
X142283333Y-103288095D01*
X142116667Y-103526190D02*
X142116667Y-103026190D01*
X142383333Y-103026190D01*
X142450000Y-103050000D01*
X142483333Y-103073810D01*
X142516667Y-103121429D01*
X142516667Y-103192857D01*
X142483333Y-103240476D01*
X142450000Y-103264286D01*
X142383333Y-103288095D01*
X142116667Y-103288095D01*
X142816667Y-103526190D02*
X142816667Y-103026190D01*
X143083333Y-103026190D01*
X143150000Y-103050000D01*
X143183333Y-103073810D01*
X143216667Y-103121429D01*
X143216667Y-103192857D01*
X143183333Y-103240476D01*
X143150000Y-103264286D01*
X143083333Y-103288095D01*
X142816667Y-103288095D01*
X143816667Y-103192857D02*
X143816667Y-103526190D01*
X143650000Y-103002381D02*
X143483333Y-103359524D01*
X143916667Y-103359524D01*
X144550000Y-103526190D02*
X144150000Y-103526190D01*
X144350000Y-103526190D02*
X144350000Y-103026190D01*
X144283334Y-103097619D01*
X144216667Y-103145238D01*
X144150000Y-103169048D01*
D11*
X144578571Y-113885714D02*
X144578571Y-114885714D01*
X144578571Y-113933333D02*
X144673809Y-113885714D01*
X144864286Y-113885714D01*
X144959524Y-113933333D01*
X145007143Y-113980952D01*
X145054762Y-114076190D01*
X145054762Y-114361905D01*
X145007143Y-114457143D01*
X144959524Y-114504762D01*
X144864286Y-114552381D01*
X144673809Y-114552381D01*
X144578571Y-114504762D01*
X145435714Y-114504762D02*
X145530952Y-114552381D01*
X145721428Y-114552381D01*
X145816667Y-114504762D01*
X145864286Y-114409524D01*
X145864286Y-114361905D01*
X145816667Y-114266667D01*
X145721428Y-114219048D01*
X145578571Y-114219048D01*
X145483333Y-114171429D01*
X145435714Y-114076190D01*
X145435714Y-114028571D01*
X145483333Y-113933333D01*
X145578571Y-113885714D01*
X145721428Y-113885714D01*
X145816667Y-113933333D01*
X146435714Y-114552381D02*
X146340476Y-114504762D01*
X146292857Y-114409524D01*
X146292857Y-113552381D01*
X147245239Y-114552381D02*
X147245239Y-114028571D01*
X147197620Y-113933333D01*
X147102382Y-113885714D01*
X146911905Y-113885714D01*
X146816667Y-113933333D01*
X147245239Y-114504762D02*
X147150001Y-114552381D01*
X146911905Y-114552381D01*
X146816667Y-114504762D01*
X146769048Y-114409524D01*
X146769048Y-114314286D01*
X146816667Y-114219048D01*
X146911905Y-114171429D01*
X147150001Y-114171429D01*
X147245239Y-114123810D01*
X147721429Y-114552381D02*
X147721429Y-113552381D01*
X147721429Y-113933333D02*
X147816667Y-113885714D01*
X148007144Y-113885714D01*
X148102382Y-113933333D01*
X148150001Y-113980952D01*
X148197620Y-114076190D01*
X148197620Y-114361905D01*
X148150001Y-114457143D01*
X148102382Y-114504762D01*
X148007144Y-114552381D01*
X147816667Y-114552381D01*
X147721429Y-114504762D01*
X148626191Y-114457143D02*
X148673810Y-114504762D01*
X148626191Y-114552381D01*
X148578572Y-114504762D01*
X148626191Y-114457143D01*
X148626191Y-114552381D01*
X148959524Y-113885714D02*
X149340476Y-113885714D01*
X149102381Y-114552381D02*
X149102381Y-113695238D01*
X149150000Y-113600000D01*
X149245238Y-113552381D01*
X149340476Y-113552381D01*
X149816667Y-114552381D02*
X149721429Y-114504762D01*
X149673810Y-114457143D01*
X149626191Y-114361905D01*
X149626191Y-114076190D01*
X149673810Y-113980952D01*
X149721429Y-113933333D01*
X149816667Y-113885714D01*
X149959525Y-113885714D01*
X150054763Y-113933333D01*
X150102382Y-113980952D01*
X150150001Y-114076190D01*
X150150001Y-114361905D01*
X150102382Y-114457143D01*
X150054763Y-114504762D01*
X149959525Y-114552381D01*
X149816667Y-114552381D01*
X150530953Y-114504762D02*
X150626191Y-114552381D01*
X150816667Y-114552381D01*
X150911906Y-114504762D01*
X150959525Y-114409524D01*
X150959525Y-114361905D01*
X150911906Y-114266667D01*
X150816667Y-114219048D01*
X150673810Y-114219048D01*
X150578572Y-114171429D01*
X150530953Y-114076190D01*
X150530953Y-114028571D01*
X150578572Y-113933333D01*
X150673810Y-113885714D01*
X150816667Y-113885714D01*
X150911906Y-113933333D01*
X151340477Y-114504762D02*
X151435715Y-114552381D01*
X151626191Y-114552381D01*
X151721430Y-114504762D01*
X151769049Y-114409524D01*
X151769049Y-114361905D01*
X151721430Y-114266667D01*
X151626191Y-114219048D01*
X151483334Y-114219048D01*
X151388096Y-114171429D01*
X151340477Y-114076190D01*
X151340477Y-114028571D01*
X151388096Y-113933333D01*
X151483334Y-113885714D01*
X151626191Y-113885714D01*
X151721430Y-113933333D01*
X152626192Y-114552381D02*
X152626192Y-114028571D01*
X152578573Y-113933333D01*
X152483335Y-113885714D01*
X152292858Y-113885714D01*
X152197620Y-113933333D01*
X152626192Y-114504762D02*
X152530954Y-114552381D01*
X152292858Y-114552381D01*
X152197620Y-114504762D01*
X152150001Y-114409524D01*
X152150001Y-114314286D01*
X152197620Y-114219048D01*
X152292858Y-114171429D01*
X152530954Y-114171429D01*
X152626192Y-114123810D01*
X153054763Y-114504762D02*
X153150001Y-114552381D01*
X153340477Y-114552381D01*
X153435716Y-114504762D01*
X153483335Y-114409524D01*
X153483335Y-114361905D01*
X153435716Y-114266667D01*
X153340477Y-114219048D01*
X153197620Y-114219048D01*
X153102382Y-114171429D01*
X153054763Y-114076190D01*
X153054763Y-114028571D01*
X153102382Y-113933333D01*
X153197620Y-113885714D01*
X153340477Y-113885714D01*
X153435716Y-113933333D01*
X153911906Y-114552381D02*
X153911906Y-113885714D01*
X153911906Y-113552381D02*
X153864287Y-113600000D01*
X153911906Y-113647619D01*
X153959525Y-113600000D01*
X153911906Y-113552381D01*
X153911906Y-113647619D01*
X154816668Y-114552381D02*
X154816668Y-114028571D01*
X154769049Y-113933333D01*
X154673811Y-113885714D01*
X154483334Y-113885714D01*
X154388096Y-113933333D01*
X154816668Y-114504762D02*
X154721430Y-114552381D01*
X154483334Y-114552381D01*
X154388096Y-114504762D01*
X154340477Y-114409524D01*
X154340477Y-114314286D01*
X154388096Y-114219048D01*
X154483334Y-114171429D01*
X154721430Y-114171429D01*
X154816668Y-114123810D01*
X155292858Y-114457143D02*
X155340477Y-114504762D01*
X155292858Y-114552381D01*
X155245239Y-114504762D01*
X155292858Y-114457143D01*
X155292858Y-114552381D01*
X155911905Y-114552381D02*
X155816667Y-114504762D01*
X155769048Y-114457143D01*
X155721429Y-114361905D01*
X155721429Y-114076190D01*
X155769048Y-113980952D01*
X155816667Y-113933333D01*
X155911905Y-113885714D01*
X156054763Y-113885714D01*
X156150001Y-113933333D01*
X156197620Y-113980952D01*
X156245239Y-114076190D01*
X156245239Y-114361905D01*
X156197620Y-114457143D01*
X156150001Y-114504762D01*
X156054763Y-114552381D01*
X155911905Y-114552381D01*
X156673810Y-114552381D02*
X156673810Y-113885714D01*
X156673810Y-114076190D02*
X156721429Y-113980952D01*
X156769048Y-113933333D01*
X156864286Y-113885714D01*
X156959525Y-113885714D01*
X157721430Y-113885714D02*
X157721430Y-114695238D01*
X157673811Y-114790476D01*
X157626192Y-114838095D01*
X157530953Y-114885714D01*
X157388096Y-114885714D01*
X157292858Y-114838095D01*
X157721430Y-114504762D02*
X157626192Y-114552381D01*
X157435715Y-114552381D01*
X157340477Y-114504762D01*
X157292858Y-114457143D01*
X157245239Y-114361905D01*
X157245239Y-114076190D01*
X157292858Y-113980952D01*
X157340477Y-113933333D01*
X157435715Y-113885714D01*
X157626192Y-113885714D01*
X157721430Y-113933333D01*
D12*
X147678572Y-106828571D02*
X147678572Y-105328571D01*
X148250000Y-105328571D01*
X148392858Y-105400000D01*
X148464286Y-105471429D01*
X148535715Y-105614286D01*
X148535715Y-105828571D01*
X148464286Y-105971429D01*
X148392858Y-106042857D01*
X148250000Y-106114286D01*
X147678572Y-106114286D01*
X149107143Y-106757143D02*
X149321429Y-106828571D01*
X149678572Y-106828571D01*
X149821429Y-106757143D01*
X149892858Y-106685714D01*
X149964286Y-106542857D01*
X149964286Y-106400000D01*
X149892858Y-106257143D01*
X149821429Y-106185714D01*
X149678572Y-106114286D01*
X149392858Y-106042857D01*
X149250000Y-105971429D01*
X149178572Y-105900000D01*
X149107143Y-105757143D01*
X149107143Y-105614286D01*
X149178572Y-105471429D01*
X149250000Y-105400000D01*
X149392858Y-105328571D01*
X149750000Y-105328571D01*
X149964286Y-105400000D01*
X151321429Y-106828571D02*
X150607143Y-106828571D01*
X150607143Y-105328571D01*
X152464286Y-106828571D02*
X152464286Y-106042857D01*
X152392857Y-105900000D01*
X152250000Y-105828571D01*
X151964286Y-105828571D01*
X151821429Y-105900000D01*
X152464286Y-106757143D02*
X152321429Y-106828571D01*
X151964286Y-106828571D01*
X151821429Y-106757143D01*
X151750000Y-106614286D01*
X151750000Y-106471429D01*
X151821429Y-106328571D01*
X151964286Y-106257143D01*
X152321429Y-106257143D01*
X152464286Y-106185714D01*
X153178572Y-106828571D02*
X153178572Y-105328571D01*
X153178572Y-105900000D02*
X153321429Y-105828571D01*
X153607143Y-105828571D01*
X153750000Y-105900000D01*
X153821429Y-105971429D01*
X153892858Y-106114286D01*
X153892858Y-106542857D01*
X153821429Y-106685714D01*
X153750000Y-106757143D01*
X153607143Y-106828571D01*
X153321429Y-106828571D01*
X153178572Y-106757143D01*
X149857143Y-109378571D02*
X149857143Y-107878571D01*
X149857143Y-108450000D02*
X150000000Y-108378571D01*
X150285714Y-108378571D01*
X150428571Y-108450000D01*
X150500000Y-108521429D01*
X150571429Y-108664286D01*
X150571429Y-109092857D01*
X150500000Y-109235714D01*
X150428571Y-109307143D01*
X150285714Y-109378571D01*
X150000000Y-109378571D01*
X149857143Y-109307143D01*
X151071429Y-108378571D02*
X151428572Y-109378571D01*
X151785714Y-108378571D02*
X151428572Y-109378571D01*
X151285714Y-109735714D01*
X151214286Y-109807143D01*
X151071429Y-109878571D01*
X146392858Y-111142857D02*
X145892858Y-111142857D01*
X145892858Y-111928571D02*
X145892858Y-110428571D01*
X146607144Y-110428571D01*
X147464286Y-110428571D02*
X147750000Y-110428571D01*
X147892858Y-110500000D01*
X148035715Y-110642857D01*
X148107143Y-110928571D01*
X148107143Y-111428571D01*
X148035715Y-111714286D01*
X147892858Y-111857143D01*
X147750000Y-111928571D01*
X147464286Y-111928571D01*
X147321429Y-111857143D01*
X147178572Y-111714286D01*
X147107143Y-111428571D01*
X147107143Y-110928571D01*
X147178572Y-110642857D01*
X147321429Y-110500000D01*
X147464286Y-110428571D01*
X148678572Y-111857143D02*
X148892858Y-111928571D01*
X149250001Y-111928571D01*
X149392858Y-111857143D01*
X149464287Y-111785714D01*
X149535715Y-111642857D01*
X149535715Y-111500000D01*
X149464287Y-111357143D01*
X149392858Y-111285714D01*
X149250001Y-111214286D01*
X148964287Y-111142857D01*
X148821429Y-111071429D01*
X148750001Y-111000000D01*
X148678572Y-110857143D01*
X148678572Y-110714286D01*
X148750001Y-110571429D01*
X148821429Y-110500000D01*
X148964287Y-110428571D01*
X149321429Y-110428571D01*
X149535715Y-110500000D01*
X150107143Y-111857143D02*
X150321429Y-111928571D01*
X150678572Y-111928571D01*
X150821429Y-111857143D01*
X150892858Y-111785714D01*
X150964286Y-111642857D01*
X150964286Y-111500000D01*
X150892858Y-111357143D01*
X150821429Y-111285714D01*
X150678572Y-111214286D01*
X150392858Y-111142857D01*
X150250000Y-111071429D01*
X150178572Y-111000000D01*
X150107143Y-110857143D01*
X150107143Y-110714286D01*
X150178572Y-110571429D01*
X150250000Y-110500000D01*
X150392858Y-110428571D01*
X150750000Y-110428571D01*
X150964286Y-110500000D01*
X151535714Y-111500000D02*
X152250000Y-111500000D01*
X151392857Y-111928571D02*
X151892857Y-110428571D01*
X152392857Y-111928571D01*
X152821428Y-111857143D02*
X153035714Y-111928571D01*
X153392857Y-111928571D01*
X153535714Y-111857143D01*
X153607143Y-111785714D01*
X153678571Y-111642857D01*
X153678571Y-111500000D01*
X153607143Y-111357143D01*
X153535714Y-111285714D01*
X153392857Y-111214286D01*
X153107143Y-111142857D01*
X152964285Y-111071429D01*
X152892857Y-111000000D01*
X152821428Y-110857143D01*
X152821428Y-110714286D01*
X152892857Y-110571429D01*
X152964285Y-110500000D01*
X153107143Y-110428571D01*
X153464285Y-110428571D01*
X153678571Y-110500000D01*
X154321428Y-111928571D02*
X154321428Y-110428571D01*
X154964285Y-111500000D02*
X155678571Y-111500000D01*
X154821428Y-111928571D02*
X155321428Y-110428571D01*
X155821428Y-111928571D01*
D11*
X115775000Y-96125000D02*
X116025000Y-96125000D01*
X115775000Y-88375000D02*
X116110000Y-88375000D01*
X128925000Y-88375000D02*
X128590000Y-88375000D01*
X128925000Y-96125000D02*
X128590000Y-96125000D01*
X115775000Y-96125000D02*
X115775000Y-88375000D01*
X128925000Y-96125000D02*
X128925000Y-88375000D01*
X116025000Y-96125000D02*
X116025000Y-97925000D01*
X145775000Y-103400000D02*
X146350000Y-103400000D01*
X145775000Y-93050000D02*
X146450000Y-93050000D01*
X156125000Y-93050000D02*
X155450000Y-93050000D01*
X156125000Y-103400000D02*
X155450000Y-103400000D01*
X145775000Y-103400000D02*
X145775000Y-102725000D01*
X156125000Y-103400000D02*
X156125000Y-102725000D01*
X156125000Y-93050000D02*
X156125000Y-93725000D01*
X145775000Y-93050000D02*
X145775000Y-93725000D01*
X146350000Y-103400000D02*
X146350000Y-104675000D01*
D13*
X179854400Y-74981000D02*
X179854400Y-72321000D01*
X167094400Y-74981000D02*
X179854400Y-74981000D01*
X167094400Y-72321000D02*
X179854400Y-72321000D01*
X167094400Y-74981000D02*
X167094400Y-72321000D01*
X165824400Y-74981000D02*
X164494400Y-74981000D01*
X164494400Y-74981000D02*
X164494400Y-73651000D01*
X140895000Y-95099000D02*
X135561000Y-95099000D01*
X135561000Y-95099000D02*
X135561000Y-84431000D01*
X135561000Y-84431000D02*
X140895000Y-84431000D01*
X140895000Y-84431000D02*
X140895000Y-84431000D01*
X138355000Y-94591000D02*
X138355000Y-92305000D01*
X138355000Y-92305000D02*
X140641000Y-92305000D01*
X140641000Y-92305000D02*
X140641000Y-92305000D01*
X141225000Y-95675000D02*
X141225000Y-95675000D01*
X140895000Y-84431000D02*
X140895000Y-95099000D01*
X140895000Y-95099000D02*
X140895000Y-95099000D01*
X145800000Y-83875000D02*
X146800000Y-83875000D01*
X146800000Y-82175000D02*
X145800000Y-82175000D01*
X151025000Y-82175000D02*
X150025000Y-82175000D01*
X150025000Y-83875000D02*
X151025000Y-83875000D01*
X134600000Y-112600000D02*
X127500000Y-112600000D01*
X134600000Y-108900000D02*
X127500000Y-108900000D01*
X134600000Y-112600000D02*
X134600000Y-108900000D01*
X130300000Y-93175000D02*
X130300000Y-86075000D01*
X134000000Y-93175000D02*
X134000000Y-86075000D01*
X130300000Y-93175000D02*
X134000000Y-93175000D01*
X160750000Y-79850000D02*
X153650000Y-79850000D01*
X160750000Y-76150000D02*
X153650000Y-76150000D01*
X160750000Y-79850000D02*
X160750000Y-76150000D01*
X126425000Y-114675000D02*
X133525000Y-114675000D01*
X126425000Y-118375000D02*
X133525000Y-118375000D01*
X126425000Y-114675000D02*
X126425000Y-118375000D01*
X129050000Y-82325000D02*
X128050000Y-82325000D01*
X128050000Y-84025000D02*
X129050000Y-84025000D01*
X148700000Y-78100000D02*
X148700000Y-79100000D01*
X150400000Y-79100000D02*
X150400000Y-78100000D01*
X178370000Y-110650000D02*
X179370000Y-110650000D01*
X179370000Y-108950000D02*
X178370000Y-108950000D01*
X182650000Y-102750000D02*
X182650000Y-98450000D01*
X182650000Y-98450000D02*
X180650000Y-98450000D01*
X180650000Y-98450000D02*
X180650000Y-102750000D01*
X162250000Y-105675000D02*
X162250000Y-104275000D01*
X162250000Y-104275000D02*
X159450000Y-104275000D01*
X162250000Y-105675000D02*
X159450000Y-105675000D01*
X126850000Y-79550000D02*
X126850000Y-78150000D01*
X126850000Y-78150000D02*
X124050000Y-78150000D01*
X126850000Y-79550000D02*
X124050000Y-79550000D01*
X179879800Y-123241000D02*
X179879800Y-120581000D01*
X162039800Y-123241000D02*
X179879800Y-123241000D01*
X162039800Y-120581000D02*
X179879800Y-120581000D01*
X162039800Y-123241000D02*
X162039800Y-120581000D01*
X160769800Y-123241000D02*
X159439800Y-123241000D01*
X159439800Y-123241000D02*
X159439800Y-121911000D01*
X132510000Y-120645000D02*
X132510000Y-123305000D01*
X155430000Y-120645000D02*
X132510000Y-120645000D01*
X155430000Y-123305000D02*
X132510000Y-123305000D01*
X155430000Y-120645000D02*
X155430000Y-123305000D01*
X156700000Y-120645000D02*
X158030000Y-120645000D01*
X158030000Y-120645000D02*
X158030000Y-121975000D01*
X162099800Y-74981000D02*
X162099800Y-72321000D01*
X144259800Y-74981000D02*
X162099800Y-74981000D01*
X144259800Y-72321000D02*
X162099800Y-72321000D01*
X144259800Y-74981000D02*
X144259800Y-72321000D01*
X142989800Y-74981000D02*
X141659800Y-74981000D01*
X141659800Y-74981000D02*
X141659800Y-73651000D01*
X156990000Y-116120000D02*
X156990000Y-117050000D01*
X156990000Y-119280000D02*
X156990000Y-118350000D01*
X156990000Y-119280000D02*
X159150000Y-119280000D01*
X156990000Y-116120000D02*
X158450000Y-116120000D01*
D11*
X138625000Y-107825000D02*
X138625000Y-107850000D01*
X142775000Y-107825000D02*
X142775000Y-107940000D01*
X142775000Y-116725000D02*
X142775000Y-116610000D01*
X138625000Y-116725000D02*
X138625000Y-116610000D01*
X138625000Y-107825000D02*
X142775000Y-107825000D01*
X138625000Y-116725000D02*
X142775000Y-116725000D01*
X138625000Y-107850000D02*
X137250000Y-107850000D01*
X138200000Y-101200000D02*
X138200000Y-101150000D01*
X134050000Y-101200000D02*
X134050000Y-101055000D01*
X134050000Y-96050000D02*
X134050000Y-96195000D01*
X138200000Y-96050000D02*
X138200000Y-96195000D01*
X138200000Y-101200000D02*
X134050000Y-101200000D01*
X138200000Y-96050000D02*
X134050000Y-96050000D01*
X138200000Y-101150000D02*
X139600000Y-101150000D01*
D13*
X137935000Y-81810000D02*
X137935000Y-80550000D01*
X137935000Y-74990000D02*
X137935000Y-76250000D01*
X134175000Y-81810000D02*
X137935000Y-81810000D01*
X131925000Y-74990000D02*
X137935000Y-74990000D01*
D11*
X170500000Y-112425000D02*
X170475000Y-112425000D01*
X170500000Y-116575000D02*
X170385000Y-116575000D01*
X161600000Y-116575000D02*
X161715000Y-116575000D01*
X161600000Y-112425000D02*
X161715000Y-112425000D01*
X170500000Y-112425000D02*
X170500000Y-116575000D01*
X161600000Y-112425000D02*
X161600000Y-116575000D01*
X170475000Y-112425000D02*
X170475000Y-111050000D01*
X178900000Y-91575000D02*
X178850000Y-91575000D01*
X178900000Y-95725000D02*
X178755000Y-95725000D01*
X173750000Y-95725000D02*
X173895000Y-95725000D01*
X173750000Y-91575000D02*
X173895000Y-91575000D01*
X178900000Y-91575000D02*
X178900000Y-95725000D01*
X173750000Y-91575000D02*
X173750000Y-95725000D01*
X178850000Y-91575000D02*
X178850000Y-90175000D01*
X171775000Y-103050000D02*
X171550000Y-103050000D01*
X171775000Y-106400000D02*
X171475000Y-106400000D01*
X168425000Y-106400000D02*
X168725000Y-106400000D01*
X168425000Y-103050000D02*
X168725000Y-103050000D01*
X171775000Y-103050000D02*
X171775000Y-106400000D01*
X168425000Y-103050000D02*
X168425000Y-106400000D01*
X171550000Y-103050000D02*
X171550000Y-101825000D01*
X172475000Y-80775000D02*
X172425000Y-80775000D01*
X172475000Y-84925000D02*
X172330000Y-84925000D01*
X167325000Y-84925000D02*
X167470000Y-84925000D01*
X167325000Y-80775000D02*
X167470000Y-80775000D01*
X172475000Y-80775000D02*
X172475000Y-84925000D01*
X167325000Y-80775000D02*
X167325000Y-84925000D01*
X172425000Y-80775000D02*
X172425000Y-79375000D01*
X166850000Y-95900000D02*
X166800000Y-95900000D01*
X166850000Y-100050000D02*
X166705000Y-100050000D01*
X161700000Y-100050000D02*
X161845000Y-100050000D01*
X161700000Y-95900000D02*
X161845000Y-95900000D01*
X166850000Y-95900000D02*
X166850000Y-100050000D01*
X161700000Y-95900000D02*
X161700000Y-100050000D01*
X166800000Y-95900000D02*
X166800000Y-94500000D01*
X178050000Y-117875000D02*
X178050000Y-117825000D01*
X173900000Y-117875000D02*
X173900000Y-117730000D01*
X173900000Y-112725000D02*
X173900000Y-112870000D01*
X178050000Y-112725000D02*
X178050000Y-112870000D01*
X178050000Y-117875000D02*
X173900000Y-117875000D01*
X178050000Y-112725000D02*
X173900000Y-112725000D01*
X178050000Y-117825000D02*
X179450000Y-117825000D01*
X178950000Y-80775000D02*
X178900000Y-80775000D01*
X178950000Y-84925000D02*
X178805000Y-84925000D01*
X173800000Y-84925000D02*
X173945000Y-84925000D01*
X173800000Y-80775000D02*
X173945000Y-80775000D01*
X178950000Y-80775000D02*
X178950000Y-84925000D01*
X173800000Y-80775000D02*
X173800000Y-84925000D01*
X178900000Y-80775000D02*
X178900000Y-79375000D01*
D13*
X115169000Y-114132000D02*
X110904000Y-114132000D01*
X115169000Y-104211000D02*
X110904000Y-104211000D01*
X117824000Y-111676000D02*
X117824000Y-106666000D01*
X110904000Y-114132000D02*
X110904000Y-104211000D01*
X110904000Y-112481000D02*
X110104000Y-112481000D01*
X110904000Y-105861000D02*
X110104000Y-105861000D01*
X110904000Y-112481000D02*
X110904000Y-105861000D01*
X110104000Y-112481000D02*
X110104000Y-105861000D01*
X110104000Y-112231000D02*
X102704000Y-112231000D01*
X110104000Y-106111000D02*
X102704000Y-106111000D01*
X110104000Y-112231000D02*
X110104000Y-106111000D01*
X102704000Y-112231000D02*
X102704000Y-106111000D01*
X163570000Y-90235000D02*
X166230000Y-90235000D01*
X163570000Y-85095000D02*
X163570000Y-90235000D01*
X166230000Y-85095000D02*
X166230000Y-90235000D01*
X163570000Y-85095000D02*
X166230000Y-85095000D01*
X163570000Y-83825000D02*
X163570000Y-82495000D01*
X163570000Y-82495000D02*
X164900000Y-82495000D01*
X144400000Y-106605000D02*
X144400000Y-103945000D01*
X136720000Y-106605000D02*
X144400000Y-106605000D01*
X136720000Y-103945000D02*
X144400000Y-103945000D01*
X136720000Y-106605000D02*
X136720000Y-103945000D01*
X135450000Y-106605000D02*
X134120000Y-106605000D01*
X134120000Y-106605000D02*
X134120000Y-105275000D01*
X113670000Y-74400000D02*
X113670000Y-83100000D01*
X120080000Y-74400000D02*
X120080000Y-83100000D01*
X120080000Y-83100000D02*
X113670000Y-83100000D01*
X114900000Y-83100000D02*
X114900000Y-74400000D01*
X113670000Y-74400000D02*
X120080000Y-74400000D01*
X172840000Y-103070000D02*
X172840000Y-104000000D01*
X172840000Y-106230000D02*
X172840000Y-105300000D01*
X172840000Y-106230000D02*
X175000000Y-106230000D01*
X172840000Y-103070000D02*
X174300000Y-103070000D01*
X120340000Y-106370000D02*
X120340000Y-109030000D01*
X125480000Y-106370000D02*
X120340000Y-106370000D01*
X125480000Y-109030000D02*
X120340000Y-109030000D01*
X125480000Y-106370000D02*
X125480000Y-109030000D01*
X126750000Y-106370000D02*
X128080000Y-106370000D01*
X128080000Y-106370000D02*
X128080000Y-107700000D01*
X145565000Y-84175000D02*
X151815000Y-84175000D01*
X145565000Y-89225000D02*
X151815000Y-89225000D01*
X145565000Y-89225000D02*
G75*
G02X145565000Y-84175000I0J2525000D01*
G01*
X151815000Y-89225000D02*
G75*
G03X151815000Y-84175000I0J2525000D01*
G01*
X146620000Y-78330000D02*
X146620000Y-75670000D01*
X144020000Y-78330000D02*
X146620000Y-78330000D01*
X144020000Y-75670000D02*
X146620000Y-75670000D01*
X144020000Y-78330000D02*
X144020000Y-75670000D01*
X142750000Y-78330000D02*
X141420000Y-78330000D01*
X141420000Y-78330000D02*
X141420000Y-77000000D01*
X141430000Y-78320000D02*
X141430000Y-80980000D01*
X144030000Y-78320000D02*
X141430000Y-78320000D01*
X144030000Y-80980000D02*
X141430000Y-80980000D01*
X144030000Y-78320000D02*
X144030000Y-80980000D01*
X145300000Y-78320000D02*
X146630000Y-78320000D01*
X146630000Y-78320000D02*
X146630000Y-79650000D01*
X158020000Y-89470000D02*
X160680000Y-89470000D01*
X158020000Y-86870000D02*
X158020000Y-89470000D01*
X160680000Y-86870000D02*
X160680000Y-89470000D01*
X158020000Y-86870000D02*
X160680000Y-86870000D01*
X158020000Y-85600000D02*
X158020000Y-84270000D01*
X158020000Y-84270000D02*
X159350000Y-84270000D01*
X155370000Y-89470000D02*
X158030000Y-89470000D01*
X155370000Y-86870000D02*
X155370000Y-89470000D01*
X158030000Y-86870000D02*
X158030000Y-89470000D01*
X155370000Y-86870000D02*
X158030000Y-86870000D01*
X155370000Y-85600000D02*
X155370000Y-84270000D01*
X155370000Y-84270000D02*
X156700000Y-84270000D01*
X125800000Y-117900000D02*
X125800000Y-122450000D01*
X122500000Y-117900000D02*
X122500000Y-122450000D01*
X125800000Y-117900000D02*
X122500000Y-117900000D01*
D11*
X129202381Y-95861905D02*
X130011905Y-95861905D01*
X130107143Y-95814286D01*
X130154762Y-95766667D01*
X130202381Y-95671429D01*
X130202381Y-95480952D01*
X130154762Y-95385714D01*
X130107143Y-95338095D01*
X130011905Y-95290476D01*
X129202381Y-95290476D01*
X130202381Y-94290476D02*
X130202381Y-94861905D01*
X130202381Y-94576191D02*
X129202381Y-94576191D01*
X129345238Y-94671429D01*
X129440476Y-94766667D01*
X129488095Y-94861905D01*
X144588095Y-103452381D02*
X144588095Y-104261905D01*
X144635714Y-104357143D01*
X144683333Y-104404762D01*
X144778571Y-104452381D01*
X144969048Y-104452381D01*
X145064286Y-104404762D01*
X145111905Y-104357143D01*
X145159524Y-104261905D01*
X145159524Y-103452381D01*
X145540476Y-103452381D02*
X146159524Y-103452381D01*
X145826190Y-103833333D01*
X145969048Y-103833333D01*
X146064286Y-103880952D01*
X146111905Y-103928571D01*
X146159524Y-104023810D01*
X146159524Y-104261905D01*
X146111905Y-104357143D01*
X146064286Y-104404762D01*
X145969048Y-104452381D01*
X145683333Y-104452381D01*
X145588095Y-104404762D01*
X145540476Y-104357143D01*
X162811905Y-74052381D02*
X162811905Y-73052381D01*
X163192858Y-73052381D01*
X163288096Y-73100000D01*
X163335715Y-73147619D01*
X163383334Y-73242857D01*
X163383334Y-73385714D01*
X163335715Y-73480952D01*
X163288096Y-73528571D01*
X163192858Y-73576190D01*
X162811905Y-73576190D01*
X164288096Y-73052381D02*
X163811905Y-73052381D01*
X163764286Y-73528571D01*
X163811905Y-73480952D01*
X163907143Y-73433333D01*
X164145239Y-73433333D01*
X164240477Y-73480952D01*
X164288096Y-73528571D01*
X164335715Y-73623810D01*
X164335715Y-73861905D01*
X164288096Y-73957143D01*
X164240477Y-74004762D01*
X164145239Y-74052381D01*
X163907143Y-74052381D01*
X163811905Y-74004762D01*
X163764286Y-73957143D01*
X140858581Y-97225095D02*
X139858581Y-97225095D01*
X139858581Y-96844142D01*
X139906200Y-96748904D01*
X139953819Y-96701285D01*
X140049057Y-96653666D01*
X140191914Y-96653666D01*
X140287152Y-96701285D01*
X140334771Y-96748904D01*
X140382390Y-96844142D01*
X140382390Y-97225095D01*
X139858581Y-96320333D02*
X139858581Y-95653666D01*
X140858581Y-96082238D01*
X146083334Y-81857143D02*
X146035715Y-81904762D01*
X145892858Y-81952381D01*
X145797620Y-81952381D01*
X145654762Y-81904762D01*
X145559524Y-81809524D01*
X145511905Y-81714286D01*
X145464286Y-81523810D01*
X145464286Y-81380952D01*
X145511905Y-81190476D01*
X145559524Y-81095238D01*
X145654762Y-81000000D01*
X145797620Y-80952381D01*
X145892858Y-80952381D01*
X146035715Y-81000000D01*
X146083334Y-81047619D01*
X146654762Y-81380952D02*
X146559524Y-81333333D01*
X146511905Y-81285714D01*
X146464286Y-81190476D01*
X146464286Y-81142857D01*
X146511905Y-81047619D01*
X146559524Y-81000000D01*
X146654762Y-80952381D01*
X146845239Y-80952381D01*
X146940477Y-81000000D01*
X146988096Y-81047619D01*
X147035715Y-81142857D01*
X147035715Y-81190476D01*
X146988096Y-81285714D01*
X146940477Y-81333333D01*
X146845239Y-81380952D01*
X146654762Y-81380952D01*
X146559524Y-81428571D01*
X146511905Y-81476190D01*
X146464286Y-81571429D01*
X146464286Y-81761905D01*
X146511905Y-81857143D01*
X146559524Y-81904762D01*
X146654762Y-81952381D01*
X146845239Y-81952381D01*
X146940477Y-81904762D01*
X146988096Y-81857143D01*
X147035715Y-81761905D01*
X147035715Y-81571429D01*
X146988096Y-81476190D01*
X146940477Y-81428571D01*
X146845239Y-81380952D01*
X149807143Y-81857143D02*
X149759524Y-81904762D01*
X149616667Y-81952381D01*
X149521429Y-81952381D01*
X149378571Y-81904762D01*
X149283333Y-81809524D01*
X149235714Y-81714286D01*
X149188095Y-81523810D01*
X149188095Y-81380952D01*
X149235714Y-81190476D01*
X149283333Y-81095238D01*
X149378571Y-81000000D01*
X149521429Y-80952381D01*
X149616667Y-80952381D01*
X149759524Y-81000000D01*
X149807143Y-81047619D01*
X150759524Y-81952381D02*
X150188095Y-81952381D01*
X150473809Y-81952381D02*
X150473809Y-80952381D01*
X150378571Y-81095238D01*
X150283333Y-81190476D01*
X150188095Y-81238095D01*
X151378571Y-80952381D02*
X151473810Y-80952381D01*
X151569048Y-81000000D01*
X151616667Y-81047619D01*
X151664286Y-81142857D01*
X151711905Y-81333333D01*
X151711905Y-81571429D01*
X151664286Y-81761905D01*
X151616667Y-81857143D01*
X151569048Y-81904762D01*
X151473810Y-81952381D01*
X151378571Y-81952381D01*
X151283333Y-81904762D01*
X151235714Y-81857143D01*
X151188095Y-81761905D01*
X151140476Y-81571429D01*
X151140476Y-81333333D01*
X151188095Y-81142857D01*
X151235714Y-81047619D01*
X151283333Y-81000000D01*
X151378571Y-80952381D01*
X129807143Y-108857143D02*
X129759524Y-108904762D01*
X129616667Y-108952381D01*
X129521429Y-108952381D01*
X129378571Y-108904762D01*
X129283333Y-108809524D01*
X129235714Y-108714286D01*
X129188095Y-108523810D01*
X129188095Y-108380952D01*
X129235714Y-108190476D01*
X129283333Y-108095238D01*
X129378571Y-108000000D01*
X129521429Y-107952381D01*
X129616667Y-107952381D01*
X129759524Y-108000000D01*
X129807143Y-108047619D01*
X130759524Y-108952381D02*
X130188095Y-108952381D01*
X130473809Y-108952381D02*
X130473809Y-107952381D01*
X130378571Y-108095238D01*
X130283333Y-108190476D01*
X130188095Y-108238095D01*
X131711905Y-108952381D02*
X131140476Y-108952381D01*
X131426190Y-108952381D02*
X131426190Y-107952381D01*
X131330952Y-108095238D01*
X131235714Y-108190476D01*
X131140476Y-108238095D01*
X129757143Y-89817857D02*
X129804762Y-89865476D01*
X129852381Y-90008333D01*
X129852381Y-90103571D01*
X129804762Y-90246429D01*
X129709524Y-90341667D01*
X129614286Y-90389286D01*
X129423810Y-90436905D01*
X129280952Y-90436905D01*
X129090476Y-90389286D01*
X128995238Y-90341667D01*
X128900000Y-90246429D01*
X128852381Y-90103571D01*
X128852381Y-90008333D01*
X128900000Y-89865476D01*
X128947619Y-89817857D01*
X129852381Y-88865476D02*
X129852381Y-89436905D01*
X129852381Y-89151191D02*
X128852381Y-89151191D01*
X128995238Y-89246429D01*
X129090476Y-89341667D01*
X129138095Y-89436905D01*
X129185714Y-88008333D02*
X129852381Y-88008333D01*
X128804762Y-88246429D02*
X129519048Y-88484524D01*
X129519048Y-87865476D01*
X156107143Y-76057143D02*
X156059524Y-76104762D01*
X155916667Y-76152381D01*
X155821429Y-76152381D01*
X155678571Y-76104762D01*
X155583333Y-76009524D01*
X155535714Y-75914286D01*
X155488095Y-75723810D01*
X155488095Y-75580952D01*
X155535714Y-75390476D01*
X155583333Y-75295238D01*
X155678571Y-75200000D01*
X155821429Y-75152381D01*
X155916667Y-75152381D01*
X156059524Y-75200000D01*
X156107143Y-75247619D01*
X157059524Y-76152381D02*
X156488095Y-76152381D01*
X156773809Y-76152381D02*
X156773809Y-75152381D01*
X156678571Y-75295238D01*
X156583333Y-75390476D01*
X156488095Y-75438095D01*
X157916667Y-75152381D02*
X157726190Y-75152381D01*
X157630952Y-75200000D01*
X157583333Y-75247619D01*
X157488095Y-75390476D01*
X157440476Y-75580952D01*
X157440476Y-75961905D01*
X157488095Y-76057143D01*
X157535714Y-76104762D01*
X157630952Y-76152381D01*
X157821429Y-76152381D01*
X157916667Y-76104762D01*
X157964286Y-76057143D01*
X158011905Y-75961905D01*
X158011905Y-75723810D01*
X157964286Y-75628571D01*
X157916667Y-75580952D01*
X157821429Y-75533333D01*
X157630952Y-75533333D01*
X157535714Y-75580952D01*
X157488095Y-75628571D01*
X157440476Y-75723810D01*
X129807143Y-114557143D02*
X129759524Y-114604762D01*
X129616667Y-114652381D01*
X129521429Y-114652381D01*
X129378571Y-114604762D01*
X129283333Y-114509524D01*
X129235714Y-114414286D01*
X129188095Y-114223810D01*
X129188095Y-114080952D01*
X129235714Y-113890476D01*
X129283333Y-113795238D01*
X129378571Y-113700000D01*
X129521429Y-113652381D01*
X129616667Y-113652381D01*
X129759524Y-113700000D01*
X129807143Y-113747619D01*
X130759524Y-114652381D02*
X130188095Y-114652381D01*
X130473809Y-114652381D02*
X130473809Y-113652381D01*
X130378571Y-113795238D01*
X130283333Y-113890476D01*
X130188095Y-113938095D01*
X131330952Y-114080952D02*
X131235714Y-114033333D01*
X131188095Y-113985714D01*
X131140476Y-113890476D01*
X131140476Y-113842857D01*
X131188095Y-113747619D01*
X131235714Y-113700000D01*
X131330952Y-113652381D01*
X131521429Y-113652381D01*
X131616667Y-113700000D01*
X131664286Y-113747619D01*
X131711905Y-113842857D01*
X131711905Y-113890476D01*
X131664286Y-113985714D01*
X131616667Y-114033333D01*
X131521429Y-114080952D01*
X131330952Y-114080952D01*
X131235714Y-114128571D01*
X131188095Y-114176190D01*
X131140476Y-114271429D01*
X131140476Y-114461905D01*
X131188095Y-114557143D01*
X131235714Y-114604762D01*
X131330952Y-114652381D01*
X131521429Y-114652381D01*
X131616667Y-114604762D01*
X131664286Y-114557143D01*
X131711905Y-114461905D01*
X131711905Y-114271429D01*
X131664286Y-114176190D01*
X131616667Y-114128571D01*
X131521429Y-114080952D01*
X127807143Y-82057143D02*
X127759524Y-82104762D01*
X127616667Y-82152381D01*
X127521429Y-82152381D01*
X127378571Y-82104762D01*
X127283333Y-82009524D01*
X127235714Y-81914286D01*
X127188095Y-81723810D01*
X127188095Y-81580952D01*
X127235714Y-81390476D01*
X127283333Y-81295238D01*
X127378571Y-81200000D01*
X127521429Y-81152381D01*
X127616667Y-81152381D01*
X127759524Y-81200000D01*
X127807143Y-81247619D01*
X128188095Y-81247619D02*
X128235714Y-81200000D01*
X128330952Y-81152381D01*
X128569048Y-81152381D01*
X128664286Y-81200000D01*
X128711905Y-81247619D01*
X128759524Y-81342857D01*
X128759524Y-81438095D01*
X128711905Y-81580952D01*
X128140476Y-82152381D01*
X128759524Y-82152381D01*
X129378571Y-81152381D02*
X129473810Y-81152381D01*
X129569048Y-81200000D01*
X129616667Y-81247619D01*
X129664286Y-81342857D01*
X129711905Y-81533333D01*
X129711905Y-81771429D01*
X129664286Y-81961905D01*
X129616667Y-82057143D01*
X129569048Y-82104762D01*
X129473810Y-82152381D01*
X129378571Y-82152381D01*
X129283333Y-82104762D01*
X129235714Y-82057143D01*
X129188095Y-81961905D01*
X129140476Y-81771429D01*
X129140476Y-81533333D01*
X129188095Y-81342857D01*
X129235714Y-81247619D01*
X129283333Y-81200000D01*
X129378571Y-81152381D01*
X151607143Y-79242857D02*
X151654762Y-79290476D01*
X151702381Y-79433333D01*
X151702381Y-79528571D01*
X151654762Y-79671429D01*
X151559524Y-79766667D01*
X151464286Y-79814286D01*
X151273810Y-79861905D01*
X151130952Y-79861905D01*
X150940476Y-79814286D01*
X150845238Y-79766667D01*
X150750000Y-79671429D01*
X150702381Y-79528571D01*
X150702381Y-79433333D01*
X150750000Y-79290476D01*
X150797619Y-79242857D01*
X150797619Y-78861905D02*
X150750000Y-78814286D01*
X150702381Y-78719048D01*
X150702381Y-78480952D01*
X150750000Y-78385714D01*
X150797619Y-78338095D01*
X150892857Y-78290476D01*
X150988095Y-78290476D01*
X151130952Y-78338095D01*
X151702381Y-78909524D01*
X151702381Y-78290476D01*
X151702381Y-77338095D02*
X151702381Y-77909524D01*
X151702381Y-77623810D02*
X150702381Y-77623810D01*
X150845238Y-77719048D01*
X150940476Y-77814286D01*
X150988095Y-77909524D01*
X178207143Y-111757143D02*
X178159524Y-111804762D01*
X178016667Y-111852381D01*
X177921429Y-111852381D01*
X177778571Y-111804762D01*
X177683333Y-111709524D01*
X177635714Y-111614286D01*
X177588095Y-111423810D01*
X177588095Y-111280952D01*
X177635714Y-111090476D01*
X177683333Y-110995238D01*
X177778571Y-110900000D01*
X177921429Y-110852381D01*
X178016667Y-110852381D01*
X178159524Y-110900000D01*
X178207143Y-110947619D01*
X179064286Y-111185714D02*
X179064286Y-111852381D01*
X178826190Y-110804762D02*
X178588095Y-111519048D01*
X179207143Y-111519048D01*
X179778571Y-110852381D02*
X179873810Y-110852381D01*
X179969048Y-110900000D01*
X180016667Y-110947619D01*
X180064286Y-111042857D01*
X180111905Y-111233333D01*
X180111905Y-111471429D01*
X180064286Y-111661905D01*
X180016667Y-111757143D01*
X179969048Y-111804762D01*
X179873810Y-111852381D01*
X179778571Y-111852381D01*
X179683333Y-111804762D01*
X179635714Y-111757143D01*
X179588095Y-111661905D01*
X179540476Y-111471429D01*
X179540476Y-111233333D01*
X179588095Y-111042857D01*
X179635714Y-110947619D01*
X179683333Y-110900000D01*
X179778571Y-110852381D01*
X180911905Y-97952381D02*
X180911905Y-96952381D01*
X181150000Y-96952381D01*
X181292858Y-97000000D01*
X181388096Y-97095238D01*
X181435715Y-97190476D01*
X181483334Y-97380952D01*
X181483334Y-97523810D01*
X181435715Y-97714286D01*
X181388096Y-97809524D01*
X181292858Y-97904762D01*
X181150000Y-97952381D01*
X180911905Y-97952381D01*
X182435715Y-97952381D02*
X181864286Y-97952381D01*
X182150000Y-97952381D02*
X182150000Y-96952381D01*
X182054762Y-97095238D01*
X181959524Y-97190476D01*
X181864286Y-97238095D01*
X159911905Y-107052381D02*
X159911905Y-106052381D01*
X160150000Y-106052381D01*
X160292858Y-106100000D01*
X160388096Y-106195238D01*
X160435715Y-106290476D01*
X160483334Y-106480952D01*
X160483334Y-106623810D01*
X160435715Y-106814286D01*
X160388096Y-106909524D01*
X160292858Y-107004762D01*
X160150000Y-107052381D01*
X159911905Y-107052381D01*
X160816667Y-106052381D02*
X161435715Y-106052381D01*
X161102381Y-106433333D01*
X161245239Y-106433333D01*
X161340477Y-106480952D01*
X161388096Y-106528571D01*
X161435715Y-106623810D01*
X161435715Y-106861905D01*
X161388096Y-106957143D01*
X161340477Y-107004762D01*
X161245239Y-107052381D01*
X160959524Y-107052381D01*
X160864286Y-107004762D01*
X160816667Y-106957143D01*
X124311905Y-80852381D02*
X124311905Y-79852381D01*
X124550000Y-79852381D01*
X124692858Y-79900000D01*
X124788096Y-79995238D01*
X124835715Y-80090476D01*
X124883334Y-80280952D01*
X124883334Y-80423810D01*
X124835715Y-80614286D01*
X124788096Y-80709524D01*
X124692858Y-80804762D01*
X124550000Y-80852381D01*
X124311905Y-80852381D01*
X125740477Y-80185714D02*
X125740477Y-80852381D01*
X125502381Y-79804762D02*
X125264286Y-80519048D01*
X125883334Y-80519048D01*
X126016667Y-124152381D02*
X126016667Y-123152381D01*
X126350001Y-123866667D01*
X126683334Y-123152381D01*
X126683334Y-124152381D01*
X127159524Y-124152381D02*
X127159524Y-123152381D01*
X127159524Y-123628571D02*
X127730953Y-123628571D01*
X127730953Y-124152381D02*
X127730953Y-123152381D01*
X128730953Y-124152381D02*
X128159524Y-124152381D01*
X128445238Y-124152381D02*
X128445238Y-123152381D01*
X128350000Y-123295238D01*
X128254762Y-123390476D01*
X128159524Y-123438095D01*
X131416667Y-73952381D02*
X131416667Y-72952381D01*
X131750001Y-73666667D01*
X132083334Y-72952381D01*
X132083334Y-73952381D01*
X132559524Y-73952381D02*
X132559524Y-72952381D01*
X132559524Y-73428571D02*
X133130953Y-73428571D01*
X133130953Y-73952381D02*
X133130953Y-72952381D01*
X133511905Y-72952381D02*
X134130953Y-72952381D01*
X133797619Y-73333333D01*
X133940477Y-73333333D01*
X134035715Y-73380952D01*
X134083334Y-73428571D01*
X134130953Y-73523810D01*
X134130953Y-73761905D01*
X134083334Y-73857143D01*
X134035715Y-73904762D01*
X133940477Y-73952381D01*
X133654762Y-73952381D01*
X133559524Y-73904762D01*
X133511905Y-73857143D01*
X179716667Y-104352381D02*
X179716667Y-103352381D01*
X180050001Y-104066667D01*
X180383334Y-103352381D01*
X180383334Y-104352381D01*
X180859524Y-104352381D02*
X180859524Y-103352381D01*
X180859524Y-103828571D02*
X181430953Y-103828571D01*
X181430953Y-104352381D02*
X181430953Y-103352381D01*
X182335715Y-103685714D02*
X182335715Y-104352381D01*
X182097619Y-103304762D02*
X181859524Y-104019048D01*
X182478572Y-104019048D01*
X160011905Y-120552381D02*
X160011905Y-119552381D01*
X160392858Y-119552381D01*
X160488096Y-119600000D01*
X160535715Y-119647619D01*
X160583334Y-119742857D01*
X160583334Y-119885714D01*
X160535715Y-119980952D01*
X160488096Y-120028571D01*
X160392858Y-120076190D01*
X160011905Y-120076190D01*
X161535715Y-120552381D02*
X160964286Y-120552381D01*
X161250000Y-120552381D02*
X161250000Y-119552381D01*
X161154762Y-119695238D01*
X161059524Y-119790476D01*
X160964286Y-119838095D01*
X133111905Y-120352381D02*
X133111905Y-119352381D01*
X133492858Y-119352381D01*
X133588096Y-119400000D01*
X133635715Y-119447619D01*
X133683334Y-119542857D01*
X133683334Y-119685714D01*
X133635715Y-119780952D01*
X133588096Y-119828571D01*
X133492858Y-119876190D01*
X133111905Y-119876190D01*
X134016667Y-119352381D02*
X134635715Y-119352381D01*
X134302381Y-119733333D01*
X134445239Y-119733333D01*
X134540477Y-119780952D01*
X134588096Y-119828571D01*
X134635715Y-119923810D01*
X134635715Y-120161905D01*
X134588096Y-120257143D01*
X134540477Y-120304762D01*
X134445239Y-120352381D01*
X134159524Y-120352381D01*
X134064286Y-120304762D01*
X134016667Y-120257143D01*
X139135714Y-74152381D02*
X139135714Y-73152381D01*
X139516667Y-73152381D01*
X139611905Y-73200000D01*
X139659524Y-73247619D01*
X139707143Y-73342857D01*
X139707143Y-73485714D01*
X139659524Y-73580952D01*
X139611905Y-73628571D01*
X139516667Y-73676190D01*
X139135714Y-73676190D01*
X140659524Y-74152381D02*
X140088095Y-74152381D01*
X140373809Y-74152381D02*
X140373809Y-73152381D01*
X140278571Y-73295238D01*
X140183333Y-73390476D01*
X140088095Y-73438095D01*
X141278571Y-73152381D02*
X141373810Y-73152381D01*
X141469048Y-73200000D01*
X141516667Y-73247619D01*
X141564286Y-73342857D01*
X141611905Y-73533333D01*
X141611905Y-73771429D01*
X141564286Y-73961905D01*
X141516667Y-74057143D01*
X141469048Y-74104762D01*
X141373810Y-74152381D01*
X141278571Y-74152381D01*
X141183333Y-74104762D01*
X141135714Y-74057143D01*
X141088095Y-73961905D01*
X141040476Y-73771429D01*
X141040476Y-73533333D01*
X141088095Y-73342857D01*
X141135714Y-73247619D01*
X141183333Y-73200000D01*
X141278571Y-73152381D01*
X156754762Y-115947619D02*
X156659524Y-115900000D01*
X156564286Y-115804762D01*
X156421429Y-115661905D01*
X156326190Y-115614286D01*
X156230952Y-115614286D01*
X156278571Y-115852381D02*
X156183333Y-115804762D01*
X156088095Y-115709524D01*
X156040476Y-115519048D01*
X156040476Y-115185714D01*
X156088095Y-114995238D01*
X156183333Y-114900000D01*
X156278571Y-114852381D01*
X156469048Y-114852381D01*
X156564286Y-114900000D01*
X156659524Y-114995238D01*
X156707143Y-115185714D01*
X156707143Y-115519048D01*
X156659524Y-115709524D01*
X156564286Y-115804762D01*
X156469048Y-115852381D01*
X156278571Y-115852381D01*
X157659524Y-115852381D02*
X157088095Y-115852381D01*
X157373809Y-115852381D02*
X157373809Y-114852381D01*
X157278571Y-114995238D01*
X157183333Y-115090476D01*
X157088095Y-115138095D01*
X137188095Y-106652381D02*
X137188095Y-107461905D01*
X137235714Y-107557143D01*
X137283333Y-107604762D01*
X137378571Y-107652381D01*
X137569048Y-107652381D01*
X137664286Y-107604762D01*
X137711905Y-107557143D01*
X137759524Y-107461905D01*
X137759524Y-106652381D01*
X138188095Y-106747619D02*
X138235714Y-106700000D01*
X138330952Y-106652381D01*
X138569048Y-106652381D01*
X138664286Y-106700000D01*
X138711905Y-106747619D01*
X138759524Y-106842857D01*
X138759524Y-106938095D01*
X138711905Y-107080952D01*
X138140476Y-107652381D01*
X138759524Y-107652381D01*
X135588095Y-101552381D02*
X135588095Y-102361905D01*
X135635714Y-102457143D01*
X135683333Y-102504762D01*
X135778571Y-102552381D01*
X135969048Y-102552381D01*
X136064286Y-102504762D01*
X136111905Y-102457143D01*
X136159524Y-102361905D01*
X136159524Y-101552381D01*
X137111905Y-101552381D02*
X136635714Y-101552381D01*
X136588095Y-102028571D01*
X136635714Y-101980952D01*
X136730952Y-101933333D01*
X136969048Y-101933333D01*
X137064286Y-101980952D01*
X137111905Y-102028571D01*
X137159524Y-102123810D01*
X137159524Y-102361905D01*
X137111905Y-102457143D01*
X137064286Y-102504762D01*
X136969048Y-102552381D01*
X136730952Y-102552381D01*
X136635714Y-102504762D01*
X136588095Y-102457143D01*
X135488095Y-73652381D02*
X135488095Y-74461905D01*
X135535714Y-74557143D01*
X135583333Y-74604762D01*
X135678571Y-74652381D01*
X135869048Y-74652381D01*
X135964286Y-74604762D01*
X136011905Y-74557143D01*
X136059524Y-74461905D01*
X136059524Y-73652381D01*
X136964286Y-73652381D02*
X136773809Y-73652381D01*
X136678571Y-73700000D01*
X136630952Y-73747619D01*
X136535714Y-73890476D01*
X136488095Y-74080952D01*
X136488095Y-74461905D01*
X136535714Y-74557143D01*
X136583333Y-74604762D01*
X136678571Y-74652381D01*
X136869048Y-74652381D01*
X136964286Y-74604762D01*
X137011905Y-74557143D01*
X137059524Y-74461905D01*
X137059524Y-74223810D01*
X137011905Y-74128571D01*
X136964286Y-74080952D01*
X136869048Y-74033333D01*
X136678571Y-74033333D01*
X136583333Y-74080952D01*
X136535714Y-74128571D01*
X136488095Y-74223810D01*
X170602381Y-112461905D02*
X171411905Y-112461905D01*
X171507143Y-112414286D01*
X171554762Y-112366667D01*
X171602381Y-112271429D01*
X171602381Y-112080952D01*
X171554762Y-111985714D01*
X171507143Y-111938095D01*
X171411905Y-111890476D01*
X170602381Y-111890476D01*
X170602381Y-111509524D02*
X170602381Y-110842857D01*
X171602381Y-111271429D01*
X179277381Y-94411905D02*
X180086905Y-94411905D01*
X180182143Y-94364286D01*
X180229762Y-94316667D01*
X180277381Y-94221429D01*
X180277381Y-94030952D01*
X180229762Y-93935714D01*
X180182143Y-93888095D01*
X180086905Y-93840476D01*
X179277381Y-93840476D01*
X179705952Y-93221429D02*
X179658333Y-93316667D01*
X179610714Y-93364286D01*
X179515476Y-93411905D01*
X179467857Y-93411905D01*
X179372619Y-93364286D01*
X179325000Y-93316667D01*
X179277381Y-93221429D01*
X179277381Y-93030952D01*
X179325000Y-92935714D01*
X179372619Y-92888095D01*
X179467857Y-92840476D01*
X179515476Y-92840476D01*
X179610714Y-92888095D01*
X179658333Y-92935714D01*
X179705952Y-93030952D01*
X179705952Y-93221429D01*
X179753571Y-93316667D01*
X179801190Y-93364286D01*
X179896429Y-93411905D01*
X180086905Y-93411905D01*
X180182143Y-93364286D01*
X180229762Y-93316667D01*
X180277381Y-93221429D01*
X180277381Y-93030952D01*
X180229762Y-92935714D01*
X180182143Y-92888095D01*
X180086905Y-92840476D01*
X179896429Y-92840476D01*
X179801190Y-92888095D01*
X179753571Y-92935714D01*
X179705952Y-93030952D01*
X167002381Y-105461905D02*
X167811905Y-105461905D01*
X167907143Y-105414286D01*
X167954762Y-105366667D01*
X168002381Y-105271429D01*
X168002381Y-105080952D01*
X167954762Y-104985714D01*
X167907143Y-104938095D01*
X167811905Y-104890476D01*
X167002381Y-104890476D01*
X168002381Y-104366667D02*
X168002381Y-104176191D01*
X167954762Y-104080952D01*
X167907143Y-104033333D01*
X167764286Y-103938095D01*
X167573810Y-103890476D01*
X167192857Y-103890476D01*
X167097619Y-103938095D01*
X167050000Y-103985714D01*
X167002381Y-104080952D01*
X167002381Y-104271429D01*
X167050000Y-104366667D01*
X167097619Y-104414286D01*
X167192857Y-104461905D01*
X167430952Y-104461905D01*
X167526190Y-104414286D01*
X167573810Y-104366667D01*
X167621429Y-104271429D01*
X167621429Y-104080952D01*
X167573810Y-103985714D01*
X167526190Y-103938095D01*
X167430952Y-103890476D01*
X168911905Y-77852381D02*
X168911905Y-78661905D01*
X168959524Y-78757143D01*
X169007143Y-78804762D01*
X169102381Y-78852381D01*
X169292858Y-78852381D01*
X169388096Y-78804762D01*
X169435715Y-78757143D01*
X169483334Y-78661905D01*
X169483334Y-77852381D01*
X170483334Y-78852381D02*
X169911905Y-78852381D01*
X170197619Y-78852381D02*
X170197619Y-77852381D01*
X170102381Y-77995238D01*
X170007143Y-78090476D01*
X169911905Y-78138095D01*
X171102381Y-77852381D02*
X171197620Y-77852381D01*
X171292858Y-77900000D01*
X171340477Y-77947619D01*
X171388096Y-78042857D01*
X171435715Y-78233333D01*
X171435715Y-78471429D01*
X171388096Y-78661905D01*
X171340477Y-78757143D01*
X171292858Y-78804762D01*
X171197620Y-78852381D01*
X171102381Y-78852381D01*
X171007143Y-78804762D01*
X170959524Y-78757143D01*
X170911905Y-78661905D01*
X170864286Y-78471429D01*
X170864286Y-78233333D01*
X170911905Y-78042857D01*
X170959524Y-77947619D01*
X171007143Y-77900000D01*
X171102381Y-77852381D01*
X167227381Y-99213095D02*
X168036905Y-99213095D01*
X168132143Y-99165476D01*
X168179762Y-99117857D01*
X168227381Y-99022619D01*
X168227381Y-98832142D01*
X168179762Y-98736904D01*
X168132143Y-98689285D01*
X168036905Y-98641666D01*
X167227381Y-98641666D01*
X168227381Y-97641666D02*
X168227381Y-98213095D01*
X168227381Y-97927381D02*
X167227381Y-97927381D01*
X167370238Y-98022619D01*
X167465476Y-98117857D01*
X167513095Y-98213095D01*
X168227381Y-96689285D02*
X168227381Y-97260714D01*
X168227381Y-96975000D02*
X167227381Y-96975000D01*
X167370238Y-97070238D01*
X167465476Y-97165476D01*
X167513095Y-97260714D01*
X177711905Y-117952381D02*
X177711905Y-118761905D01*
X177759524Y-118857143D01*
X177807143Y-118904762D01*
X177902381Y-118952381D01*
X178092858Y-118952381D01*
X178188096Y-118904762D01*
X178235715Y-118857143D01*
X178283334Y-118761905D01*
X178283334Y-117952381D01*
X179283334Y-118952381D02*
X178711905Y-118952381D01*
X178997619Y-118952381D02*
X178997619Y-117952381D01*
X178902381Y-118095238D01*
X178807143Y-118190476D01*
X178711905Y-118238095D01*
X179616667Y-117952381D02*
X180235715Y-117952381D01*
X179902381Y-118333333D01*
X180045239Y-118333333D01*
X180140477Y-118380952D01*
X180188096Y-118428571D01*
X180235715Y-118523810D01*
X180235715Y-118761905D01*
X180188096Y-118857143D01*
X180140477Y-118904762D01*
X180045239Y-118952381D01*
X179759524Y-118952381D01*
X179664286Y-118904762D01*
X179616667Y-118857143D01*
X175011905Y-77852381D02*
X175011905Y-78661905D01*
X175059524Y-78757143D01*
X175107143Y-78804762D01*
X175202381Y-78852381D01*
X175392858Y-78852381D01*
X175488096Y-78804762D01*
X175535715Y-78757143D01*
X175583334Y-78661905D01*
X175583334Y-77852381D01*
X176583334Y-78852381D02*
X176011905Y-78852381D01*
X176297619Y-78852381D02*
X176297619Y-77852381D01*
X176202381Y-77995238D01*
X176107143Y-78090476D01*
X176011905Y-78138095D01*
X177440477Y-77852381D02*
X177250000Y-77852381D01*
X177154762Y-77900000D01*
X177107143Y-77947619D01*
X177011905Y-78090476D01*
X176964286Y-78280952D01*
X176964286Y-78661905D01*
X177011905Y-78757143D01*
X177059524Y-78804762D01*
X177154762Y-78852381D01*
X177345239Y-78852381D01*
X177440477Y-78804762D01*
X177488096Y-78757143D01*
X177535715Y-78661905D01*
X177535715Y-78423810D01*
X177488096Y-78328571D01*
X177440477Y-78280952D01*
X177345239Y-78233333D01*
X177154762Y-78233333D01*
X177059524Y-78280952D01*
X177011905Y-78328571D01*
X176964286Y-78423810D01*
X112682781Y-109679238D02*
X112206590Y-110012572D01*
X112682781Y-110250667D02*
X111682781Y-110250667D01*
X111682781Y-109869714D01*
X111730400Y-109774476D01*
X111778019Y-109726857D01*
X111873257Y-109679238D01*
X112016114Y-109679238D01*
X112111352Y-109726857D01*
X112158971Y-109774476D01*
X112206590Y-109869714D01*
X112206590Y-110250667D01*
X111682781Y-109393524D02*
X112682781Y-109060191D01*
X111682781Y-108726857D01*
X112682781Y-107869714D02*
X112682781Y-108441143D01*
X112682781Y-108155429D02*
X111682781Y-108155429D01*
X111825638Y-108250667D01*
X111920876Y-108345905D01*
X111968495Y-108441143D01*
X164516667Y-81452381D02*
X164516667Y-82166667D01*
X164469047Y-82309524D01*
X164373809Y-82404762D01*
X164230952Y-82452381D01*
X164135714Y-82452381D01*
X165421429Y-81452381D02*
X165230952Y-81452381D01*
X165135714Y-81500000D01*
X165088095Y-81547619D01*
X164992857Y-81690476D01*
X164945238Y-81880952D01*
X164945238Y-82261905D01*
X164992857Y-82357143D01*
X165040476Y-82404762D01*
X165135714Y-82452381D01*
X165326191Y-82452381D01*
X165421429Y-82404762D01*
X165469048Y-82357143D01*
X165516667Y-82261905D01*
X165516667Y-82023810D01*
X165469048Y-81928571D01*
X165421429Y-81880952D01*
X165326191Y-81833333D01*
X165135714Y-81833333D01*
X165040476Y-81880952D01*
X164992857Y-81928571D01*
X164945238Y-82023810D01*
X132572381Y-105608333D02*
X133286667Y-105608333D01*
X133429524Y-105655953D01*
X133524762Y-105751191D01*
X133572381Y-105894048D01*
X133572381Y-105989286D01*
X132572381Y-104655952D02*
X132572381Y-105132143D01*
X133048571Y-105179762D01*
X133000952Y-105132143D01*
X132953333Y-105036905D01*
X132953333Y-104798809D01*
X133000952Y-104703571D01*
X133048571Y-104655952D01*
X133143810Y-104608333D01*
X133381905Y-104608333D01*
X133477143Y-104655952D01*
X133524762Y-104703571D01*
X133572381Y-104798809D01*
X133572381Y-105036905D01*
X133524762Y-105132143D01*
X133477143Y-105179762D01*
X121297143Y-79964285D02*
X121344762Y-80011904D01*
X121392381Y-80154761D01*
X121392381Y-80249999D01*
X121344762Y-80392857D01*
X121249524Y-80488095D01*
X121154286Y-80535714D01*
X120963810Y-80583333D01*
X120820952Y-80583333D01*
X120630476Y-80535714D01*
X120535238Y-80488095D01*
X120440000Y-80392857D01*
X120392381Y-80249999D01*
X120392381Y-80154761D01*
X120440000Y-80011904D01*
X120487619Y-79964285D01*
X120392381Y-79345238D02*
X120392381Y-79154761D01*
X120440000Y-79059523D01*
X120535238Y-78964285D01*
X120725714Y-78916666D01*
X121059048Y-78916666D01*
X121249524Y-78964285D01*
X121344762Y-79059523D01*
X121392381Y-79154761D01*
X121392381Y-79345238D01*
X121344762Y-79440476D01*
X121249524Y-79535714D01*
X121059048Y-79583333D01*
X120725714Y-79583333D01*
X120535238Y-79535714D01*
X120440000Y-79440476D01*
X120392381Y-79345238D01*
X121392381Y-78488095D02*
X120392381Y-78488095D01*
X121392381Y-77916666D01*
X120392381Y-77916666D01*
X121392381Y-76916666D02*
X121392381Y-77488095D01*
X121392381Y-77202381D02*
X120392381Y-77202381D01*
X120535238Y-77297619D01*
X120630476Y-77392857D01*
X120678095Y-77488095D01*
X176597619Y-104795238D02*
X176550000Y-104890476D01*
X176454762Y-104985714D01*
X176311905Y-105128571D01*
X176264286Y-105223810D01*
X176264286Y-105319048D01*
X176502381Y-105271429D02*
X176454762Y-105366667D01*
X176359524Y-105461905D01*
X176169048Y-105509524D01*
X175835714Y-105509524D01*
X175645238Y-105461905D01*
X175550000Y-105366667D01*
X175502381Y-105271429D01*
X175502381Y-105080952D01*
X175550000Y-104985714D01*
X175645238Y-104890476D01*
X175835714Y-104842857D01*
X176169048Y-104842857D01*
X176359524Y-104890476D01*
X176454762Y-104985714D01*
X176502381Y-105080952D01*
X176502381Y-105271429D01*
X175597619Y-104461905D02*
X175550000Y-104414286D01*
X175502381Y-104319048D01*
X175502381Y-104080952D01*
X175550000Y-103985714D01*
X175597619Y-103938095D01*
X175692857Y-103890476D01*
X175788095Y-103890476D01*
X175930952Y-103938095D01*
X176502381Y-104509524D01*
X176502381Y-103890476D01*
X119002381Y-107933333D02*
X119716667Y-107933333D01*
X119859524Y-107980953D01*
X119954762Y-108076191D01*
X120002381Y-108219048D01*
X120002381Y-108314286D01*
X119430952Y-107314286D02*
X119383333Y-107409524D01*
X119335714Y-107457143D01*
X119240476Y-107504762D01*
X119192857Y-107504762D01*
X119097619Y-107457143D01*
X119050000Y-107409524D01*
X119002381Y-107314286D01*
X119002381Y-107123809D01*
X119050000Y-107028571D01*
X119097619Y-106980952D01*
X119192857Y-106933333D01*
X119240476Y-106933333D01*
X119335714Y-106980952D01*
X119383333Y-107028571D01*
X119430952Y-107123809D01*
X119430952Y-107314286D01*
X119478571Y-107409524D01*
X119526190Y-107457143D01*
X119621429Y-107504762D01*
X119811905Y-107504762D01*
X119907143Y-107457143D01*
X119954762Y-107409524D01*
X120002381Y-107314286D01*
X120002381Y-107123809D01*
X119954762Y-107028571D01*
X119907143Y-106980952D01*
X119811905Y-106933333D01*
X119621429Y-106933333D01*
X119526190Y-106980952D01*
X119478571Y-107028571D01*
X119430952Y-107123809D01*
X147940476Y-89452381D02*
X148607143Y-90452381D01*
X148607143Y-89452381D02*
X147940476Y-90452381D01*
X149511905Y-90452381D02*
X148940476Y-90452381D01*
X149226190Y-90452381D02*
X149226190Y-89452381D01*
X149130952Y-89595238D01*
X149035714Y-89690476D01*
X148940476Y-89738095D01*
X141740477Y-74752381D02*
X141740477Y-75466667D01*
X141692857Y-75609524D01*
X141597619Y-75704762D01*
X141454762Y-75752381D01*
X141359524Y-75752381D01*
X142740477Y-75752381D02*
X142169048Y-75752381D01*
X142454762Y-75752381D02*
X142454762Y-74752381D01*
X142359524Y-74895238D01*
X142264286Y-74990476D01*
X142169048Y-75038095D01*
X143359524Y-74752381D02*
X143454763Y-74752381D01*
X143550001Y-74800000D01*
X143597620Y-74847619D01*
X143645239Y-74942857D01*
X143692858Y-75133333D01*
X143692858Y-75371429D01*
X143645239Y-75561905D01*
X143597620Y-75657143D01*
X143550001Y-75704762D01*
X143454763Y-75752381D01*
X143359524Y-75752381D01*
X143264286Y-75704762D01*
X143216667Y-75657143D01*
X143169048Y-75561905D01*
X143121429Y-75371429D01*
X143121429Y-75133333D01*
X143169048Y-74942857D01*
X143216667Y-74847619D01*
X143264286Y-74800000D01*
X143359524Y-74752381D01*
X144940477Y-74752381D02*
X144940477Y-75466667D01*
X144892857Y-75609524D01*
X144797619Y-75704762D01*
X144654762Y-75752381D01*
X144559524Y-75752381D01*
X145940477Y-75752381D02*
X145369048Y-75752381D01*
X145654762Y-75752381D02*
X145654762Y-74752381D01*
X145559524Y-74895238D01*
X145464286Y-74990476D01*
X145369048Y-75038095D01*
X146892858Y-75752381D02*
X146321429Y-75752381D01*
X146607143Y-75752381D02*
X146607143Y-74752381D01*
X146511905Y-74895238D01*
X146416667Y-74990476D01*
X146321429Y-75038095D01*
X159116667Y-83052381D02*
X159116667Y-83766667D01*
X159069047Y-83909524D01*
X158973809Y-84004762D01*
X158830952Y-84052381D01*
X158735714Y-84052381D01*
X160021429Y-83385714D02*
X160021429Y-84052381D01*
X159783333Y-83004762D02*
X159545238Y-83719048D01*
X160164286Y-83719048D01*
X155740477Y-83052381D02*
X155740477Y-83766667D01*
X155692857Y-83909524D01*
X155597619Y-84004762D01*
X155454762Y-84052381D01*
X155359524Y-84052381D01*
X156740477Y-84052381D02*
X156169048Y-84052381D01*
X156454762Y-84052381D02*
X156454762Y-83052381D01*
X156359524Y-83195238D01*
X156264286Y-83290476D01*
X156169048Y-83338095D01*
X157121429Y-83147619D02*
X157169048Y-83100000D01*
X157264286Y-83052381D01*
X157502382Y-83052381D01*
X157597620Y-83100000D01*
X157645239Y-83147619D01*
X157692858Y-83242857D01*
X157692858Y-83338095D01*
X157645239Y-83480952D01*
X157073810Y-84052381D01*
X157692858Y-84052381D01*
X123407143Y-117557143D02*
X123359524Y-117604762D01*
X123216667Y-117652381D01*
X123121429Y-117652381D01*
X122978571Y-117604762D01*
X122883333Y-117509524D01*
X122835714Y-117414286D01*
X122788095Y-117223810D01*
X122788095Y-117080952D01*
X122835714Y-116890476D01*
X122883333Y-116795238D01*
X122978571Y-116700000D01*
X123121429Y-116652381D01*
X123216667Y-116652381D01*
X123359524Y-116700000D01*
X123407143Y-116747619D01*
X124359524Y-117652381D02*
X123788095Y-117652381D01*
X124073809Y-117652381D02*
X124073809Y-116652381D01*
X123978571Y-116795238D01*
X123883333Y-116890476D01*
X123788095Y-116938095D01*
X124835714Y-117652381D02*
X125026190Y-117652381D01*
X125121429Y-117604762D01*
X125169048Y-117557143D01*
X125264286Y-117414286D01*
X125311905Y-117223810D01*
X125311905Y-116842857D01*
X125264286Y-116747619D01*
X125216667Y-116700000D01*
X125121429Y-116652381D01*
X124930952Y-116652381D01*
X124835714Y-116700000D01*
X124788095Y-116747619D01*
X124740476Y-116842857D01*
X124740476Y-117080952D01*
X124788095Y-117176190D01*
X124835714Y-117223810D01*
X124930952Y-117271429D01*
X125121429Y-117271429D01*
X125216667Y-117223810D01*
X125264286Y-117176190D01*
X125311905Y-117080952D01*
M02*
